<?xml version="1.0" encoding="UTF-8"?>
<!DOCTYPE svg PUBLIC "-//W3C//DTD SVG 1.1//EN" "http://www.w3.org/Graphics/SVG/1.1/DTD/svg11.dtd">
<svg xmlns="http://www.w3.org/2000/svg" xml:space="preserve" width="580px" height="580px" shape-rendering="geometricPrecision" text-rendering="geometricPrecision" image-rendering="optimizeQuality" fill-rule="nonzero" clip-rule="nonzero" viewBox="0 0 5800 5800" xmlns:xlink="http://www.w3.org/1999/xlink">
	<title>3D_glasses icon</title>
	<desc>3D_glasses icon from the IconExperience.com I-Collection. Copyright by INCORS GmbH (www.incors.com).</desc>
	<path id="curve0"  d="M5500 1900l0 2200 -1691 0c-232,0 -433,-125 -536,-332l-179 -358c-75,-149 -313,-149 -388,0l-179 358c-103,207 -304,332 -536,332l-1691 0 0 -2200 5200 0zm-4800 1600c0,110 90,200 200,200l1091 0c123,0 118,-52 179,-111l278 -561c35,-71 52,-142 52,-222l0 -306c0,-110 -90,-200 -200,-200l-1400 0c-110,0 -200,90 -200,200l0 1000zm2652 -472l279 561c35,72 98,111 178,111l1091 0c110,0 200,-90 200,-200l0 -1000c0,-110 -90,-200 -200,-200l-1400 0c-110,0 -200,90 -200,200l0 306c0,40 4,77 13,114 8,37 21,72 39,108z"/>
</svg>