<?xml version="1.0" encoding="UTF-8"?>
<!DOCTYPE svg PUBLIC "-//W3C//DTD SVG 1.1//EN" "http://www.w3.org/Graphics/SVG/1.1/DTD/svg11.dtd">
<svg xmlns="http://www.w3.org/2000/svg" xml:space="preserve" width="580px" height="580px" shape-rendering="geometricPrecision" text-rendering="geometricPrecision" image-rendering="optimizeQuality" fill-rule="nonzero" clip-rule="nonzero" viewBox="0 0 5800 5800" xmlns:xlink="http://www.w3.org/1999/xlink">
	<title>address_book2 icon</title>
	<desc>address_book2 icon from the IconExperience.com I-Collection. Copyright by INCORS GmbH (www.incors.com).</desc>
	<path id="curve0"  d="M4184 4058c-89,178 -294,259 -484,218 -171,-37 -299,-161 -367,-319 -145,185 -407,343 -645,343 -413,0 -588,-325 -588,-700 0,-440 375,-900 833,-900 196,0 385,110 501,266 20,-38 42,-72 63,-100l158 124c-48,60 -93,163 -128,275 -36,117 -59,241 -59,337 6,0 1,36 1,42 7,179 75,394 273,437 47,10 94,7 136,-6 54,-17 101,-54 127,-105 61,-145 95,-303 95,-470 0,-663 -537,-1200 -1200,-1200 -663,0 -1200,537 -1200,1200 0,331 134,631 351,849 218,217 518,351 849,351 307,0 588,-116 800,-306l133 149c-247,222 -574,357 -933,357 -387,0 -737,-157 -990,-410 -253,-253 -410,-603 -410,-990 0,-773 627,-1400 1400,-1400 773,0 1400,627 1400,1400 0,198 -41,387 -116,558zm-847 -852c-48,-166 -232,-306 -404,-306 -348,0 -633,368 -633,700 0,260 90,500 388,500 227,0 550,-228 580,-463 0,-11 0,-22 0,-33 0,-115 27,-261 69,-398zm-2020 -2106l3383 0 0 200 -3115 0c-122,-6 -227,-85 -268,-200zm283 -400l3100 0 0 200 -3383 0c42,-120 156,-200 283,-200zm-353 653c90,91 215,147 353,147l3100 0c110,0 200,90 200,200l0 3800 -3300 0c-386,0 -700,-314 -700,-700l0 -3800c0,-193 79,-368 205,-495 127,-126 302,-205 495,-205l3100 0c110,0 200,90 200,200 -1100,0 -2200,0 -3300,0 -138,0 -263,56 -353,147 -91,90 -147,215 -147,353 0,133 53,259 147,353zm-142 142l-5 -6 0 3311c0,275 225,500 500,500l3100 0 0 -3600 -3100 0c-193,0 -368,-79 -495,-205z"/>
</svg>