<?xml version="1.0" encoding="UTF-8"?>
<!DOCTYPE svg PUBLIC "-//W3C//DTD SVG 1.1//EN" "http://www.w3.org/Graphics/SVG/1.1/DTD/svg11.dtd">
<svg xmlns="http://www.w3.org/2000/svg" xml:space="preserve" width="580px" height="580px" shape-rendering="geometricPrecision" text-rendering="geometricPrecision" image-rendering="optimizeQuality" fill-rule="nonzero" clip-rule="nonzero" viewBox="0 0 5800 5800" xmlns:xlink="http://www.w3.org/1999/xlink">
	<title>address_book2 icon</title>
	<desc>address_book2 icon from the IconExperience.com I-Collection. Copyright by INCORS GmbH (www.incors.com).</desc>
	<path id="curve0"  d="M1100 1000c0,275 225,500 500,500l3100 0c110,0 200,90 200,200l0 3800 -3300 0c-386,0 -700,-314 -700,-700l0 -3800c0,-386 314,-700 700,-700l3100 0c110,0 200,90 200,200 -1100,0 -2200,0 -3300,0 -275,0 -500,225 -500,500zm500 -300l3100 0 0 200 -3383 0c42,-120 156,-200 283,-200zm-283 400l3383 0 0 200 -3115 0c-122,-6 -227,-85 -268,-200zm2867 2958c75,-171 116,-360 116,-558 0,-773 -627,-1400 -1400,-1400 -773,0 -1400,627 -1400,1400 0,387 157,737 410,990 253,253 603,410 990,410 359,0 686,-135 933,-357l-133 -149c-212,190 -493,306 -800,306 -331,0 -631,-134 -849,-351 -217,-218 -351,-518 -351,-849 0,-663 537,-1200 1200,-1200 663,0 1200,537 1200,1200 0,167 -34,325 -95,470 -26,51 -73,88 -127,105 -42,13 -89,16 -136,6 -198,-43 -266,-258 -273,-437 1,-14 2,-28 2,-42l-3 0c0,-96 23,-220 59,-337 35,-112 80,-215 128,-275l-158 -124c-21,28 -43,62 -63,100 -116,-156 -305,-266 -501,-266 -458,0 -833,460 -833,900 0,375 175,700 588,700 238,0 500,-158 645,-343 68,158 196,282 367,319 190,41 395,-40 484,-218zm-847 -852c-48,-166 -232,-306 -404,-306 -348,0 -633,368 -633,700 0,260 90,500 388,500 227,0 550,-228 580,-463 0,-11 0,-22 0,-33 0,-115 27,-261 69,-398z"/>
</svg>