<?xml version="1.0" encoding="UTF-8"?>
<!DOCTYPE svg PUBLIC "-//W3C//DTD SVG 1.1//EN" "http://www.w3.org/Graphics/SVG/1.1/DTD/svg11.dtd">
<svg xmlns="http://www.w3.org/2000/svg" xml:space="preserve" width="580px" height="580px" shape-rendering="geometricPrecision" text-rendering="geometricPrecision" image-rendering="optimizeQuality" fill-rule="nonzero" clip-rule="nonzero" viewBox="0 0 5800 5800" xmlns:xlink="http://www.w3.org/1999/xlink">
	<title>adhesive_tape icon</title>
	<desc>adhesive_tape icon from the IconExperience.com I-Collection. Copyright by INCORS GmbH (www.incors.com).</desc>
	<path id="curve0"  d="M3900 1300c884,0 1600,716 1600,1600 0,394 -142,754 -378,1033l-96 -202c172,-232 274,-520 274,-831 0,-773 -627,-1400 -1400,-1400 -773,0 -1400,627 -1400,1400 0,325 111,625 297,863l-85 209c-256,-284 -412,-660 -412,-1072 0,-884 716,-1600 1600,-1600zm682 1957l718 1521 0 722 -4600 0 0 -1200c-232,0 -300,67 -300,300l-200 0c0,-345 157,-500 500,-500l1960 0 -80 200 -1558 0 278 139 0 261 1333 0 583 -1438c120,-297 337,-562 684,-562 348,0 547,272 682,557zm-682 -1157c442,0 800,358 800,800 0,44 -4,88 -11,131 -58,-103 -125,-200 -208,-282 -69,-264 -308,-449 -581,-449 -269,0 -505,179 -578,438 -85,81 -155,179 -213,283 -6,-39 -9,-80 -9,-121 0,-442 358,-800 800,-800zm1200 2722l-699 -1479c-98,-208 -242,-443 -501,-443 -259,0 -411,220 -499,437l-634 1563 -1667 0 0 -339 -200 -100 0 839 4200 0 0 -478z"/>
</svg>