<?xml version="1.0" encoding="UTF-8"?>
<!DOCTYPE svg PUBLIC "-//W3C//DTD SVG 1.1//EN" "http://www.w3.org/Graphics/SVG/1.1/DTD/svg11.dtd">
<svg xmlns="http://www.w3.org/2000/svg" xml:space="preserve" width="580px" height="580px" shape-rendering="geometricPrecision" text-rendering="geometricPrecision" image-rendering="optimizeQuality" fill-rule="nonzero" clip-rule="nonzero" viewBox="0 0 5800 5800" xmlns:xlink="http://www.w3.org/1999/xlink">
	<title>air_tube_carrier icon</title>
	<desc>air_tube_carrier icon from the IconExperience.com I-Collection. Copyright by INCORS GmbH (www.incors.com).</desc>
	<path id="curve0"  d="M5300 2000l100 0c165,0 300,135 300,300l0 1200c0,165 -135,300 -300,300l-100 0 0 100c0,165 -135,300 -300,300l-400 0c-165,0 -300,-135 -300,-300l0 -2000c0,-165 135,-300 300,-300l400 0c165,0 300,135 300,300l0 100zm-3600 -100l2400 0 0 2000 -2400 0 0 -2000zm200 1400l0 200 2000 0 0 -200 -2000 0zm-1100 -1700l400 0c165,0 300,135 300,300l0 2000c0,165 -135,300 -300,300l-400 0c-165,0 -300,-135 -300,-300l0 -100 -100 0c-165,0 -300,-135 -300,-300l0 -1200c0,-165 135,-300 300,-300l100 0 0 -100c0,-165 135,-300 300,-300z"/>
</svg>