<?xml version="1.0" encoding="UTF-8"?>
<!DOCTYPE svg PUBLIC "-//W3C//DTD SVG 1.1//EN" "http://www.w3.org/Graphics/SVG/1.1/DTD/svg11.dtd">
<svg xmlns="http://www.w3.org/2000/svg" xml:space="preserve" width="580px" height="580px" shape-rendering="geometricPrecision" text-rendering="geometricPrecision" image-rendering="optimizeQuality" fill-rule="nonzero" clip-rule="nonzero" viewBox="0 0 5800 5800" xmlns:xlink="http://www.w3.org/1999/xlink">
	<title>airbrush icon</title>
	<desc>airbrush icon from the IconExperience.com I-Collection. Copyright by INCORS GmbH (www.incors.com).</desc>
		<path id="curve28"  d="M3221 1901c188,187 -30,524 -176,670 -146,145 -482,363 -669,176 -331,-331 528,-1163 845,-846zm117 -164l329 -330c164,-163 392,-348 633,-520 251,-180 517,-346 738,-460 226,-116 353,-159 424,-89 70,71 27,198 -89,424 -122,237 -285,499 -464,747 -165,228 -343,446 -516,622l0 1806c0,199 -164,363 -363,363l-181 0c-199,0 -363,-164 -363,-363l0 -106c0,-74 -41,-137 -110,-165 -49,-20 -104,-19 -151,7 -73,38 -158,26 -216,-32l-62 -62 -77 76c-96,97 -198,175 -309,238 -141,80 -271,120 -425,158l-86 22c-80,-210 -113,-243 -323,-323l22 -86c38,-154 78,-284 158,-425 63,-111 141,-213 238,-309l66 -67c7,9 15,17 23,25 281,281 720,57 953,-176 238,-239 469,-702 151,-975zm-2489 3070c83,0 151,68 151,151 0,84 -68,152 -151,152 -84,0 -152,-68 -152,-152 0,-83 68,-151 152,-151zm-399 -404c83,0 150,67 150,150 0,83 -67,150 -150,150 -83,0 -150,-67 -150,-150 0,-83 67,-150 150,-150zm796 800c82,0 148,66 148,148 0,82 -66,149 -148,149 -82,0 -149,-67 -149,-149 0,-82 67,-148 149,-148zm-196 -1000c83,0 150,67 150,150 0,83 -67,150 -150,150 -83,0 -150,-67 -150,-150 0,-83 67,-150 150,-150zm400 400c83,0 150,67 150,150 0,83 -67,150 -150,150 -83,0 -150,-67 -150,-150 0,-83 67,-150 150,-150zm193 -600c81,0 147,65 147,147 0,81 -66,146 -147,146 -81,0 -147,-65 -147,-146 0,-82 66,-147 147,-147z"/>
</svg>