<?xml version="1.0" encoding="UTF-8"?>
<!DOCTYPE svg PUBLIC "-//W3C//DTD SVG 1.1//EN" "http://www.w3.org/Graphics/SVG/1.1/DTD/svg11.dtd">
<svg xmlns="http://www.w3.org/2000/svg" xml:space="preserve" width="580px" height="580px" shape-rendering="geometricPrecision" text-rendering="geometricPrecision" image-rendering="optimizeQuality" fill-rule="nonzero" clip-rule="nonzero" viewBox="0 0 5800 5800" xmlns:xlink="http://www.w3.org/1999/xlink">
	<title>airbrush icon</title>
	<desc>airbrush icon from the IconExperience.com I-Collection. Copyright by INCORS GmbH (www.incors.com).</desc>
		<path id="curve28" d="M2552 2077c108,-108 230,-185 340,-221 131,-44 252,-33 329,45 88,88 82,219 45,329 -36,111 -113,233 -221,341 -108,107 -230,184 -340,221 -110,37 -242,42 -329,-45 -78,-78 -90,-198 -46,-330 37,-110 114,-232 222,-340zm-1703 2730c83,0 151,68 151,151 0,84 -68,152 -151,152 -84,0 -152,-68 -152,-152 0,-83 68,-151 152,-151zm794 -804c81,0 147,65 147,147 0,81 -66,146 -147,146 -81,0 -147,-65 -147,-146 0,-82 66,-147 147,-147zm-193 600c83,0 150,67 150,150 0,83 -67,150 -150,150 -83,0 -150,-67 -150,-150 0,-83 67,-150 150,-150zm-400 -400c83,0 150,67 150,150 0,83 -67,150 -150,150 -83,0 -150,-67 -150,-150 0,-83 67,-150 150,-150zm196 1000c82,0 148,66 148,148 0,82 -66,149 -148,149 -82,0 -149,-67 -149,-149 0,-82 67,-148 149,-148zm-796 -800c83,0 150,67 150,150 0,83 -67,150 -150,150 -83,0 -150,-67 -150,-150 0,-83 67,-150 150,-150zm1487 -540c-65,-64 -128,-82 -210,-113l37 -148c33,-132 80,-252 143,-363 63,-111 141,-213 238,-309l66 -67c45,52 101,93 164,119l-89 89c-163,163 -265,339 -324,562 85,49 155,120 204,205 223,-59 400,-161 563,-324l218 -218 194 195c98,-48 211,-51 311,-9 142,59 234,194 234,349l0 106c0,90 73,163 163,163l181 0c90,0 163,-73 163,-163l0 -1887 30 -30c175,-174 357,-395 524,-627 174,-241 332,-494 448,-722 72,-140 141,-177 126,-192 -15,-14 -52,54 -192,126 -211,108 -468,269 -713,444 -231,165 -450,343 -608,500l-351 352c-26,-64 -67,-120 -119,-164l329 -330c164,-163 392,-348 633,-520 251,-180 517,-346 738,-460 226,-116 353,-159 424,-89 70,71 27,198 -89,424 -122,237 -285,499 -464,747 -165,228 -343,446 -516,622l0 1806c0,199 -164,363 -363,363l-181 0c-199,0 -363,-164 -363,-363l0 -106c0,-74 -41,-137 -110,-165 -49,-20 -104,-19 -151,7 -73,38 -158,26 -216,-32l-62 -62 -77 76c-192,193 -408,315 -672,381l-148 37c-31,-81 -49,-146 -113,-210zm756 -1645c-87,87 -147,180 -174,262 -19,59 -22,106 -2,125 26,26 93,9 126,-2 81,-27 174,-87 261,-174 86,-86 146,-180 173,-261 11,-33 29,-99 3,-126 -20,-19 -66,-17 -126,3 -81,27 -174,87 -261,173z"/>
</svg>