<?xml version="1.0" encoding="UTF-8"?>
<!DOCTYPE svg PUBLIC "-//W3C//DTD SVG 1.1//EN" "http://www.w3.org/Graphics/SVG/1.1/DTD/svg11.dtd">
<svg xmlns="http://www.w3.org/2000/svg" xml:space="preserve" width="580px" height="580px" shape-rendering="geometricPrecision" text-rendering="geometricPrecision" image-rendering="optimizeQuality" fill-rule="nonzero" clip-rule="nonzero" viewBox="0 0 5800 5800" xmlns:xlink="http://www.w3.org/1999/xlink">
	<title>airplane2_starting icon</title>
	<desc>airplane2_starting icon from the IconExperience.com I-Collection. Copyright by INCORS GmbH (www.incors.com).</desc>
		<path id="curve28" d="M3541 3794l134 47 943 221 79 -36 63 -169 -36 -82c-20,-43 -31,-89 -32,-136 -2,-62 11,-104 31,-160 18,-49 35,-95 75,-144l491 -607 -312 -111 -1102 502c-65,30 -132,46 -200,49 -67,2 -135,-9 -201,-34 -749,-271 -1498,-543 -2247,-815 -26,-13 -88,-27 -118,-34 -98,-21 -205,-28 -305,-20 -80,6 -189,27 -256,74 -48,34 -56,69 -43,124 21,82 85,167 142,227 41,43 86,81 132,114 59,41 124,79 191,104l755 273 311 324 -1134 -410c-85,-32 -165,-76 -238,-129 -56,-39 -111,-86 -160,-138 -83,-86 -163,-200 -192,-318 -33,-135 5,-253 122,-334 99,-70 235,-101 354,-110 120,-10 246,-2 364,24 12,3 143,42 143,42l2248 815c42,16 84,23 125,21 42,-1 83,-11 124,-30l1110 -506c44,-21 90,-22 135,-6l347 124c112,43 153,189 75,285l-507 626c-18,22 -29,53 -41,86 -11,30 -21,53 -20,86 1,20 6,40 15,60l40 90c20,44 21,91 4,136l-70 185c-16,45 -49,79 -92,99l-95 43c-37,17 -74,21 -114,12l-920 -216 -118 -248zm-1343 -696l903 941c19,19 32,29 57,39l92 34 -360 -764 266 97 380 804c37,80 -41,167 -125,136l-323 -121c-52,-19 -91,-46 -130,-87l-1184 -1233 424 154z"/>
</svg>