<?xml version="1.0" encoding="UTF-8"?>
<!DOCTYPE svg PUBLIC "-//W3C//DTD SVG 1.1//EN" "http://www.w3.org/Graphics/SVG/1.1/DTD/svg11.dtd">
<svg xmlns="http://www.w3.org/2000/svg" xml:space="preserve" width="580px" height="580px" shape-rendering="geometricPrecision" text-rendering="geometricPrecision" image-rendering="optimizeQuality" fill-rule="nonzero" clip-rule="nonzero" viewBox="0 0 5800 5800" xmlns:xlink="http://www.w3.org/1999/xlink">
	<title>airplane icon</title>
	<desc>airplane icon from the IconExperience.com I-Collection. Copyright by INCORS GmbH (www.incors.com).</desc>
		<path id="curve28"  d="M2448 3500l-486 0c-147,0 -309,-27 -455,-56l-357 457c-49,63 -118,99 -198,99l-375 0 233 -747c-124,-45 -234,-91 -317,-136 -120,-65 -193,-139 -193,-217 0,-78 73,-152 193,-217 83,-45 193,-91 317,-135l-233 -748 375 0c80,0 149,36 198,99l358 457c146,-29 309,-56 458,-56l482 0 -288 -2000 340 0c95,0 180,50 222,135l937 1865 804 0c203,0 486,72 699,186 153,81 338,223 338,414 0,167 -143,310 -338,414 -213,114 -496,186 -699,186l-804 0 -937 1865c-42,85 -127,135 -222,135l-340 0 288 -2000z"/>
</svg>