<?xml version="1.0" encoding="UTF-8"?>
<!DOCTYPE svg PUBLIC "-//W3C//DTD SVG 1.1//EN" "http://www.w3.org/Graphics/SVG/1.1/DTD/svg11.dtd">
<svg xmlns="http://www.w3.org/2000/svg" xml:space="preserve" width="580px" height="580px" shape-rendering="geometricPrecision" text-rendering="geometricPrecision" image-rendering="optimizeQuality" fill-rule="nonzero" clip-rule="nonzero" viewBox="0 0 5800 5800" xmlns:xlink="http://www.w3.org/1999/xlink">
	<title>airplane2 icon</title>
	<desc>airplane2 icon from the IconExperience.com I-Collection. Copyright by INCORS GmbH (www.incors.com).</desc>
		<path id="curve28" d="M3923 3597l139 -1 959 -114 62 -61 2 -180c-57,-59 -108,-103 -139,-182 -23,-57 -25,-101 -25,-161 0,-52 0,-102 20,-160l252 -738 -329 1 -860 848c-102,101 -229,152 -372,151 -786,0 -1584,0 -2381,0 -87,0 -165,11 -250,33 -102,28 -210,73 -296,136 -30,22 -61,50 -82,80 -33,48 -29,84 3,131 21,31 50,60 79,83 84,67 191,116 294,144 35,10 72,18 110,24 37,5 72,9 105,9l797 -1 402 199 -1200 1c-43,0 -89,-4 -133,-10 -44,-7 -90,-17 -134,-30 -130,-36 -261,-96 -366,-180 -42,-34 -86,-78 -120,-128 -77,-116 -82,-239 0,-356 36,-51 83,-93 127,-126 106,-80 236,-135 364,-169 101,-27 196,-41 301,-40l2381 0c91,0 167,-29 231,-93l866 -854c35,-35 76,-52 126,-51l366 -2c100,1 179,87 178,185 -1,20 -4,39 -10,57l-260 760c-10,28 -10,61 -10,96 0,58 3,96 45,139 58,60 120,106 119,197l-2 197c0,49 -18,91 -53,126 -53,52 -98,113 -177,122l-934 111 -195 -193zm-1495 -197l1168 578c22,11 41,16 65,16l97 1 -598 -595 283 0 630 626c18,19 30,44 29,72 0,55 -45,99 -100,99l-343 -4c-55,0 -104,-12 -153,-38l-1529 -755 451 0z"/>
</svg>