<?xml version="1.0" encoding="UTF-8"?>
<!DOCTYPE svg PUBLIC "-//W3C//DTD SVG 1.1//EN" "http://www.w3.org/Graphics/SVG/1.1/DTD/svg11.dtd">
<svg xmlns="http://www.w3.org/2000/svg" xml:space="preserve" width="580px" height="580px" shape-rendering="geometricPrecision" text-rendering="geometricPrecision" image-rendering="optimizeQuality" fill-rule="nonzero" clip-rule="nonzero" viewBox="0 0 5800 5800" xmlns:xlink="http://www.w3.org/1999/xlink">
	<title>airplane2_landing icon</title>
	<desc>airplane2_landing icon from the IconExperience.com I-Collection. Copyright by INCORS GmbH (www.incors.com).</desc>
		<path id="curve28"  d="M2452 3507l1295 143c2,0 4,0 6,1 10,1 20,1 29,0 10,-1 21,-4 32,-8l0 0 92 -32 -766 -354 266 -97 806 372c24,11 44,31 53,58 19,52 -9,109 -61,128l-323 113 0 0 -1 0c-26,10 -51,16 -77,18 -24,3 -48,3 -73,0 -2,0 -4,-1 -5,-1l-1696 -187 423 -154zm1474 -327l130 -49 861 -434 38 -78 -60 -170 -81 -39c-87,-42 -150,-114 -182,-205 -22,-62 -43,-112 -44,-180l-15 -780 -310 115 -517 1090c-61,129 -163,221 -298,269 0,0 -2050,746 -2238,814 -35,18 -74,29 -112,49 -89,47 -174,109 -245,179 -58,58 -126,141 -148,221 -15,57 1,89 47,122 69,50 172,75 255,84 93,10 194,6 286,-13 9,-2 102,-24 100,-27l749 -274 447 50 -1128 411c-43,15 -84,26 -129,35 -113,23 -231,29 -346,16 -121,-13 -253,-48 -352,-121 -112,-82 -158,-197 -121,-334 30,-115 116,-228 199,-311 85,-84 188,-159 294,-215 11,-5 135,-64 137,-59l2238 -815c84,-30 146,-86 184,-166l522 -1099c20,-44 54,-75 100,-91l345 -127c17,-6 36,-9 54,-10 79,-1 150,50 176,123 6,18 9,37 9,57l16 804c1,36 20,82 33,117 14,41 41,72 81,91l88 43c44,21 75,55 91,101l66 187c16,46 13,91 -7,135l-45 93c-17,37 -43,64 -80,83l-839 423 -249 -115z"/>
</svg>