<?xml version="1.0" encoding="UTF-8"?>
<!DOCTYPE svg PUBLIC "-//W3C//DTD SVG 1.1//EN" "http://www.w3.org/Graphics/SVG/1.1/DTD/svg11.dtd">
<svg xmlns="http://www.w3.org/2000/svg" xml:space="preserve" width="580px" height="580px" shape-rendering="geometricPrecision" text-rendering="geometricPrecision" image-rendering="optimizeQuality" fill-rule="nonzero" clip-rule="nonzero" viewBox="0 0 5800 5800" xmlns:xlink="http://www.w3.org/1999/xlink">
	<title>airplane2_starting icon</title>
	<desc>airplane2_starting icon from the IconExperience.com I-Collection. Copyright by INCORS GmbH (www.incors.com).</desc>
		<path id="curve28"  d="M2036 3505l-1134 -410c-90,-45 -152,-67 -238,-129 -56,-39 -111,-86 -160,-138 -83,-86 -163,-200 -192,-318 -33,-135 5,-253 122,-334 151,-106 385,-125 563,-109 102,9 202,29 298,65l2248 815c42,16 84,23 125,21 42,-1 83,-11 124,-30l1110 -506c44,-21 90,-22 135,-6l347 124c55,21 95,66 110,124 14,56 2,116 -35,161l-507 626c-18,22 -29,53 -41,86 -20,55 -31,90 -5,146l40 90c20,44 21,91 4,136l-70 185c-17,45 -48,79 -92,99l-95 43c-37,17 -74,21 -114,12l-920 -216 -237 -501 -266 -96 380 804c0,0 5,71 3,77 -19,52 -77,78 -128,59l-323 -121c-53,-19 -91,-46 -130,-87 -395,-411 -789,-822 -1184,-1233l-244 -88c0,82 33,160 90,216l416 433z"/>
</svg>