<?xml version="1.0" encoding="UTF-8"?>
<!DOCTYPE svg PUBLIC "-//W3C//DTD SVG 1.1//EN" "http://www.w3.org/Graphics/SVG/1.1/DTD/svg11.dtd">
<svg xmlns="http://www.w3.org/2000/svg" xml:space="preserve" width="580px" height="580px" shape-rendering="geometricPrecision" text-rendering="geometricPrecision" image-rendering="optimizeQuality" fill-rule="nonzero" clip-rule="nonzero" viewBox="0 0 5800 5800" xmlns:xlink="http://www.w3.org/1999/xlink">
	<title>airplane2_landing icon</title>
	<desc>airplane2_landing icon from the IconExperience.com I-Collection. Copyright by INCORS GmbH (www.incors.com).</desc>
		<path id="curve28"  d="M3406 3160l806 372c24,11 44,31 53,58 19,52 -9,109 -61,128l-324 113c-52,19 -100,23 -155,17l-1696 -187 -243 89c50,60 121,98 198,106l605 68 -1129 412c-148,52 -319,67 -474,50 -121,-13 -253,-48 -352,-121 -43,-32 -81,-72 -106,-122 -62,-126 -12,-264 61,-374 73,-111 175,-206 284,-282 83,-58 175,-108 270,-142l2238 -814c84,-30 146,-86 184,-166l522 -1099c20,-44 54,-75 100,-91l345 -127c54,-19 115,-9 162,24 48,34 76,87 77,146l16 804c1,36 20,82 33,117 14,41 41,72 81,91l88 43c44,21 75,55 91,101l66 187c16,46 13,91 -7,135l-45 93c-17,37 -43,64 -80,83l-839 423 -502 -232 -267 97z"/>
</svg>