<?xml version="1.0" encoding="UTF-8"?>
<!DOCTYPE svg PUBLIC "-//W3C//DTD SVG 1.1//EN" "http://www.w3.org/Graphics/SVG/1.1/DTD/svg11.dtd">
<svg xmlns="http://www.w3.org/2000/svg" xml:space="preserve" width="580px" height="580px" shape-rendering="geometricPrecision" text-rendering="geometricPrecision" image-rendering="optimizeQuality" fill-rule="nonzero" clip-rule="nonzero" viewBox="0 0 5800 5800" xmlns:xlink="http://www.w3.org/1999/xlink">
	<title>airplane2 icon</title>
	<desc>airplane2 icon from the IconExperience.com I-Collection. Copyright by INCORS GmbH (www.incors.com).</desc>
		<path id="curve28"  d="M2389 3826l-1175 13c-44,0 -90,-4 -134,-10 -113,-17 -229,-54 -332,-105 -108,-53 -220,-132 -288,-233 -77,-116 -82,-239 0,-356 36,-51 83,-93 127,-126 106,-80 236,-135 364,-169 97,-26 200,-41 301,-40l2382 0c89,1 167,-31 230,-93l866 -854c35,-35 76,-52 126,-51l366 -2c100,1 179,87 178,185 -1,20 -4,39 -10,57l-260 760c-10,28 -10,61 -10,96 0,9 0,17 0,26 0,44 14,82 45,113l69 71c34,35 51,77 50,126l-2 197c0,49 -18,91 -53,126l-73 72c-29,29 -63,45 -104,50l-934 111 -392 -390 -283 0 630 626c18,19 30,44 29,72 0,55 -45,99 -100,99l-343 -4c-55,0 -104,-12 -153,-38l-1529 -755 -259 0c25,71 77,132 150,168l521 258z"/>
</svg>