<?xml version="1.0" encoding="UTF-8"?>
<!DOCTYPE svg PUBLIC "-//W3C//DTD SVG 1.1//EN" "http://www.w3.org/Graphics/SVG/1.1/DTD/svg11.dtd">
<svg xmlns="http://www.w3.org/2000/svg" xml:space="preserve" width="580px" height="580px" shape-rendering="geometricPrecision" text-rendering="geometricPrecision" image-rendering="optimizeQuality" fill-rule="nonzero" clip-rule="nonzero" viewBox="0 0 5800 5800" xmlns:xlink="http://www.w3.org/1999/xlink">
	<title>airship icon</title>
	<desc>airship icon from the IconExperience.com I-Collection. Copyright by INCORS GmbH (www.incors.com).</desc>
	<path id="curve0"  d="M2260 1500c633,0 1262,111 1856,328l20 -33c88,-140 243,-214 407,-182l764 148c138,27 204,186 136,307l-187 333c121,80 200,148 233,297l-1389 0c-55,0 -100,45 -100,100 0,55 45,100 100,100l1389 0c-33,149 -113,217 -234,297l188 335c68,121 2,280 -136,307l-764 148c-164,32 -319,-42 -407,-183l-20 -32c-519,189 -1065,300 -1616,325l0 91c0,167 -130,314 -300,314l-800 0c-228,0 -400,-198 -400,-420l0 -145c-541,-181 -900,-531 -900,-1135 0,-1142 1281,-1300 2160,-1300z"/>
</svg>