<?xml version="1.0" encoding="UTF-8"?>
<!DOCTYPE svg PUBLIC "-//W3C//DTD SVG 1.1//EN" "http://www.w3.org/Graphics/SVG/1.1/DTD/svg11.dtd">
<svg xmlns="http://www.w3.org/2000/svg" xml:space="preserve" width="580px" height="580px" shape-rendering="geometricPrecision" text-rendering="geometricPrecision" image-rendering="optimizeQuality" fill-rule="nonzero" clip-rule="nonzero" viewBox="0 0 5800 5800" xmlns:xlink="http://www.w3.org/1999/xlink">
	<title>airship icon</title>
	<desc>airship icon from the IconExperience.com I-Collection. Copyright by INCORS GmbH (www.incors.com).</desc>
	<path id="curve0" d="M4100 2898c-55,0 -100,-45 -100,-100 0,-55 45,-100 100,-100l1180 0c-2,-4 -3,-8 -5,-12 -17,-32 -41,-60 -73,-81 -868,-589 -1892,-905 -2942,-905 -749,0 -1960,103 -1960,1100 0,997 1211,1100 1960,1100 1050,0 2074,-321 2942,-909 32,-21 56,-49 73,-81 2,-4 3,-8 5,-12l-1180 0zm1389 -200l111 0c55,0 100,45 100,100 0,55 -45,100 -100,100l-111 0c-24,106 -84,196 -175,258 -20,13 -39,26 -59,39l188 335c68,121 2,280 -136,307l-764 148c-164,32 -319,-42 -407,-183l-20 -32c-519,189 -1065,300 -1616,325l0 91c0,167 -130,314 -300,314l-800 0c-228,0 -400,-198 -400,-420l0 -145c-541,-181 -900,-531 -900,-1135 0,-1142 1281,-1300 2160,-1300 633,0 1262,111 1856,328l20 -33c88,-140 243,-214 407,-182l764 148c138,27 204,186 136,307l-187 333c19,13 39,26 58,39 60,40 106,93 138,154 17,33 29,68 37,104zm-1183 -797c271,110 532,242 781,393l182 -324c3,-5 2,-8 0,-13l-764 -148c-83,-16 -155,21 -199,92zm780 1401c-248,151 -510,283 -781,394 45,71 117,109 200,93l764 -148c2,-6 3,-8 0,-13l-183 -326zm-2786 798c-13,0 -26,0 -40,0 -357,0 -728,-26 -1060,-107l0 87c0,113 81,220 200,220l800 0c61,0 100,-57 100,-114l0 -86z"/>
</svg>