<?xml version="1.0" encoding="UTF-8"?>
<!DOCTYPE svg PUBLIC "-//W3C//DTD SVG 1.1//EN" "http://www.w3.org/Graphics/SVG/1.1/DTD/svg11.dtd">
<svg xmlns="http://www.w3.org/2000/svg" xml:space="preserve" width="580px" height="580px" shape-rendering="geometricPrecision" text-rendering="geometricPrecision" image-rendering="optimizeQuality" fill-rule="nonzero" clip-rule="nonzero" viewBox="0 0 5800 5800" xmlns:xlink="http://www.w3.org/1999/xlink">
	<title>alarmclock icon</title>
	<desc>alarmclock icon from the IconExperience.com I-Collection. Copyright by INCORS GmbH (www.incors.com).</desc>
		<path id="curve28" d="M2900 3200c18,0 35,2 52,7l677 -678 142 142 -678 677c5,17 7,34 7,52 0,110 -90,200 -200,200 -110,0 -200,-90 -200,-200 0,-18 2,-35 7,-52l-1078 -1077 142 -142 1077 1078c17,-5 34,-7 52,-7zm0 -1900c1160,0 2100,940 2100,2100 0,521 -190,997 -504,1364l387 581c31,45 18,108 -28,138 -45,31 -108,18 -138,-28l-361 -541c-378,363 -891,586 -1456,586 -565,0 -1078,-223 -1456,-586l-361 541c-30,46 -93,59 -138,28 -46,-30 -59,-93 -28,-138l387 -581c-314,-367 -504,-843 -504,-1364 0,-1160 940,-2100 2100,-2100zm0 200c-1049,0 -1900,851 -1900,1900 0,525 213,1000 556,1344 344,343 819,556 1344,556 525,0 1000,-213 1344,-556 343,-344 556,-819 556,-1344 0,-1049 -851,-1900 -1900,-1900zm-100 -400l0 -400 -300 0 0 -200 800 0 0 200 -300 0 0 400 -200 0zm-1050 -293c140,71 261,173 354,299l77 104 -121 48c-550,216 -998,638 -1247,1174l-55 118 -100 -83c-111,-94 -202,-211 -264,-344 -177,-380 -98,-833 199,-1130 305,-305 773,-380 1157,-186zm-90 178c-307,-155 -682,-94 -926,149 -237,237 -301,601 -160,904 32,67 72,129 120,185 258,-482 668,-868 1165,-1096 -59,-57 -126,-105 -199,-142zm2480 0c-73,37 -140,85 -199,142 497,228 907,614 1165,1096 48,-56 88,-118 120,-185 141,-303 77,-667 -160,-904 -244,-243 -619,-304 -926,-149zm-90 -178c384,-194 852,-119 1157,186 297,297 376,750 199,1130 -62,133 -153,250 -264,344l-100 83 -55 -118c-249,-536 -697,-958 -1247,-1174l-121 -48 77 -104c93,-126 214,-228 354,-299z"/>
</svg>