<?xml version="1.0" encoding="UTF-8"?>
<!DOCTYPE svg PUBLIC "-//W3C//DTD SVG 1.1//EN" "http://www.w3.org/Graphics/SVG/1.1/DTD/svg11.dtd">
<svg xmlns="http://www.w3.org/2000/svg" xml:space="preserve" width="580px" height="580px" shape-rendering="geometricPrecision" text-rendering="geometricPrecision" image-rendering="optimizeQuality" fill-rule="nonzero" clip-rule="nonzero" viewBox="0 0 5800 5800" xmlns:xlink="http://www.w3.org/1999/xlink">
	<title>alarm icon</title>
	<desc>alarm icon from the IconExperience.com I-Collection. Copyright by INCORS GmbH (www.incors.com).</desc>
	<path id="curve0"  d="M2900 300c884,0 1600,716 1600,1600 0,883 -715,1599 -1598,1600l1098 0c165,0 300,135 300,300l0 1400c0,165 -135,300 -300,300l-2200 0c-165,0 -300,-135 -300,-300l0 -1400c0,-165 135,-300 300,-300l1098 0c-883,-1 -1598,-717 -1598,-1600 0,-884 716,-1600 1600,-1600zm2037 883c173,347 263,730 263,1117 0,542 -174,1066 -500,1499l0 1201c0,55 -45,100 -100,100 -55,0 -100,-45 -100,-100l0 -1267c326,-422 500,-898 500,-1433 0,-350 -78,-693 -232,-1008 -22,5 -45,8 -68,8 -165,0 -300,-135 -300,-300 0,-165 135,-300 300,-300 165,0 300,135 300,300 0,69 -23,132 -63,183zm-2037 467c-110,0 -200,90 -200,200 0,110 90,200 200,200 110,0 200,-90 200,-200 0,-110 -90,-200 -200,-200z"/>
</svg>