<?xml version="1.0" encoding="UTF-8"?>
<!DOCTYPE svg PUBLIC "-//W3C//DTD SVG 1.1//EN" "http://www.w3.org/Graphics/SVG/1.1/DTD/svg11.dtd">
<svg xmlns="http://www.w3.org/2000/svg" xml:space="preserve" width="580px" height="580px" shape-rendering="geometricPrecision" text-rendering="geometricPrecision" image-rendering="optimizeQuality" fill-rule="nonzero" clip-rule="nonzero" viewBox="0 0 5800 5800" xmlns:xlink="http://www.w3.org/1999/xlink">
	<title>ambulance icon</title>
	<desc>ambulance icon from the IconExperience.com I-Collection. Copyright by INCORS GmbH (www.incors.com).</desc>
		<path id="curve30"  d="M2400 4500c0,-442 -358,-800 -800,-800 -442,0 -800,358 -800,800l-400 0c-55,0 -100,-45 -100,-100l0 -2800c0,-55 45,-100 100,-100l3900 0c41,0 75,24 91,59l687 1275 382 286c26,20 40,50 40,80l0 1200c0,55 -45,100 -100,100l-400 0c0,-442 -358,-800 -800,-800 -442,0 -800,358 -800,800l-1000 0z"/>
	<path id="curve29"  d="M3300 1300l0 -200c0,-221 179,-400 400,-400 221,0 400,180 400,400l0 200c-263,0 -511,0 -800,0zm1000 -300l400 0 0 200 -400 0 0 -200zm-1200 200l-400 0 0 -200 400 0 0 200zm105 -454l-283 -282 142 -142 282 283 -141 141zm395 -246l0 -400 200 0 0 400 -200 0zm454 105l282 -283 142 142 -283 282 -141 -141z"/>
	<path id="curve28"  d="M4200 3900c331,0 600,269 600,600 0,331 -269,600 -600,600 -331,0 -600,-269 -600,-600 0,-331 269,-600 600,-600zm-2600 0c331,0 600,269 600,600 0,331 -269,600 -600,600 -331,0 -600,-269 -600,-600 0,-331 269,-600 600,-600z"/>
</svg>