<?xml version="1.0" encoding="UTF-8"?>
<!DOCTYPE svg PUBLIC "-//W3C//DTD SVG 1.1//EN" "http://www.w3.org/Graphics/SVG/1.1/DTD/svg11.dtd">
<svg xmlns="http://www.w3.org/2000/svg" xml:space="preserve" width="580px" height="580px" shape-rendering="geometricPrecision" text-rendering="geometricPrecision" image-rendering="optimizeQuality" fill-rule="nonzero" clip-rule="nonzero" viewBox="0 0 5800 5800" xmlns:xlink="http://www.w3.org/1999/xlink">
	<title>ammunition_box_open icon</title>
	<desc>ammunition_box_open icon from the IconExperience.com I-Collection. Copyright by INCORS GmbH (www.incors.com).</desc>
	<path id="curve0"  d="M5200 3242l-3 1329 -1697 986 0 -1397 1645 -871 18 -169 -1036 -1224 299 -398 1107 1410 -333 334zm-1232 -1466l-538 -241 300 -400 538 241 -300 400zm-725 -325l-1264 -566 300 -400 1264 566 -300 400zm-1450 -650l-539 -241 300 -400 539 241 -300 400zm1507 3363l0 1400 -600 -271 0 -1402 600 273zm-800 1039l-1300 -587 0 -1407 1300 592 0 1402zm-1500 -677l-800 -362 0 -1409 800 364 0 1407zm-689 -1940l1541 -685 148 64 0 1074 -330 165 -1359 -618zm1592 724l199 -100 1492 674 -197 105 -1494 -679zm297 -274l0 -984 2670 1157 -1053 557 -1617 -730zm2549 -97l-2963 -1284 -750 -974 2902 1301 811 957z"/>
</svg>