<?xml version="1.0" encoding="UTF-8"?>
<!DOCTYPE svg PUBLIC "-//W3C//DTD SVG 1.1//EN" "http://www.w3.org/Graphics/SVG/1.1/DTD/svg11.dtd">
<svg xmlns="http://www.w3.org/2000/svg" xml:space="preserve" width="580px" height="580px" shape-rendering="geometricPrecision" text-rendering="geometricPrecision" image-rendering="optimizeQuality" fill-rule="nonzero" clip-rule="nonzero" viewBox="0 0 5800 5800" xmlns:xlink="http://www.w3.org/1999/xlink">
	<title>ammunition_box_open icon</title>
	<desc>ammunition_box_open icon from the IconExperience.com I-Collection. Copyright by INCORS GmbH (www.incors.com).</desc>
	<path id="curve0" d="M1368 76l2996 1343 1169 1489 -333 334 -3 1329 -1791 1041 -3206 -1448 0 -1528 1744 -776 -969 -1259c131,-175 262,-350 393,-525zm64 248l-178 236 539 241 178 -236 -539 -241zm725 325l-177 236 1263 566 178 -236 -1264 -566zm1450 650l-177 236 538 241 178 -236 -539 -241zm695 365l-175 232 979 1157 161 -161 -965 -1228zm698 1702l-1500 794 0 1167 1498 -871 2 -1090zm-1700 1979l0 -1181 -600 -271 0 1181 600 271zm-800 -361l0 -1181c-448,-202 -861,-389 -1300,-587l0 1181 1300 587zm-1500 -677l0 -1181 -600 -271 0 1181 600 271zm-456 -1606l1120 506 336 -168 0 -986 -1456 648zm1619 -882l2586 1120 -811 -957 -2518 -1129 743 966zm37 233l0 984 1617 730 1053 -557 -2670 -1157zm-302 1260l1499 677 197 -105 -1492 -674 -204 102z"/>
</svg>