<?xml version="1.0" encoding="UTF-8"?>
<!DOCTYPE svg PUBLIC "-//W3C//DTD SVG 1.1//EN" "http://www.w3.org/Graphics/SVG/1.1/DTD/svg11.dtd">
<svg xmlns="http://www.w3.org/2000/svg" xml:space="preserve" width="580px" height="580px" shape-rendering="geometricPrecision" text-rendering="geometricPrecision" image-rendering="optimizeQuality" fill-rule="nonzero" clip-rule="nonzero" viewBox="0 0 5800 5800" xmlns:xlink="http://www.w3.org/1999/xlink">
	<title>ammunition_box_closed icon</title>
	<desc>ammunition_box_closed icon from the IconExperience.com I-Collection. Copyright by INCORS GmbH (www.incors.com).</desc>
	<path id="curve0"  d="M2657 3110l1623 -757 -1323 -538 -1582 716 1282 579zm1875 -655l-1635 763 602 272 1653 -783 -620 -252zm768 426l-1700 783 0 178 1700 -805 0 -156zm0 377l-1700 805 0 1176 1700 -845 0 -1136zm-1900 1987l0 -1181 -600 -271 0 1181 600 271zm-800 -361l0 -1181 -1300 -587 0 1181 1300 587zm-1500 -677l0 -1181 -600 -271 0 1181 600 271zm-600 -1671l600 271 0 -181 -600 -271 0 181zm1699 -1244l3301 1341 0 1884 -1998 993 -3202 -1446 0 -1928 1899 -844zm-1555 909l488 220 1570 -709 -501 -204 -1557 693zm2756 1463l-600 -271 0 181 600 271 0 -181zm-2100 -948l0 181 1300 587 0 -181 -1300 -587z"/>
</svg>