<?xml version="1.0" encoding="UTF-8"?>
<!DOCTYPE svg PUBLIC "-//W3C//DTD SVG 1.1//EN" "http://www.w3.org/Graphics/SVG/1.1/DTD/svg11.dtd">
<svg xmlns="http://www.w3.org/2000/svg" xml:space="preserve" width="580px" height="580px" shape-rendering="geometricPrecision" text-rendering="geometricPrecision" image-rendering="optimizeQuality" fill-rule="nonzero" clip-rule="nonzero" viewBox="0 0 5800 5800" xmlns:xlink="http://www.w3.org/1999/xlink">
	<title>ammunition_box_closed icon</title>
	<desc>ammunition_box_closed icon from the IconExperience.com I-Collection. Copyright by INCORS GmbH (www.incors.com).</desc>
	<path id="curve0"  d="M5500 2763l0 179 -1900 900 0 -179 1900 -900zm-2001 727l-864 -390 1869 -872 893 363 -1898 899zm-1103 -498l-1021 -461 1833 -829 1044 424 -1856 866zm-1995 -901l1798 -799 754 306 -1821 823 -731 -330zm5099 1072l0 1354 -1900 945 0 -1399 1900 -900zm-2100 501l0 181 -900 -406 0 -181 900 406zm-1100 -315l-1000 -452 0 -181 1000 452 0 181zm-1200 -542l-800 -362 0 -181 800 362 0 181zm2300 1257l0 1400 -900 -406 0 -1400 900 406zm-1100 904l-1000 -452 0 -1400 1000 452 0 1400zm-1200 -542l-800 -362 0 -1400 800 362 0 1400z"/>
</svg>