<?xml version="1.0" encoding="UTF-8"?>
<!DOCTYPE svg PUBLIC "-//W3C//DTD SVG 1.1//EN" "http://www.w3.org/Graphics/SVG/1.1/DTD/svg11.dtd">
<svg xmlns="http://www.w3.org/2000/svg" xml:space="preserve" width="580px" height="580px" shape-rendering="geometricPrecision" text-rendering="geometricPrecision" image-rendering="optimizeQuality" fill-rule="nonzero" clip-rule="nonzero" viewBox="0 0 5800 5800" xmlns:xlink="http://www.w3.org/1999/xlink">
	<title>anchor icon</title>
	<desc>anchor icon from the IconExperience.com I-Collection. Copyright by INCORS GmbH (www.incors.com).</desc>
		<path id="curve28"  d="M2900 300c1436,0 2600,1164 2600,2600 0,1436 -1164,2600 -2600,2600 -1436,0 -2600,-1164 -2600,-2600 0,-1436 1164,-2600 2600,-2600zm0 600c-221,0 -400,179 -400,400 0,221 179,400 400,400 221,0 400,-179 400,-400 0,-221 -179,-400 -400,-400zm-700 1000l0 200 600 0 0 2797c-842,-52 -1500,-752 -1500,-1597l0 -400 -200 0 0 400c0,994 806,1800 1800,1800 994,0 1800,-806 1800,-1800l0 -400 -200 0 0 400c0,845 -658,1545 -1500,1597l0 -2797 600 0 0 -200 -600 0c288,-48 500,-307 500,-600 0,-331 -269,-600 -600,-600 -331,0 -600,269 -600,600 0,293 212,552 500,600l-600 0z"/>
</svg>