<?xml version="1.0" encoding="UTF-8"?>
<!DOCTYPE svg PUBLIC "-//W3C//DTD SVG 1.1//EN" "http://www.w3.org/Graphics/SVG/1.1/DTD/svg11.dtd">
<svg xmlns="http://www.w3.org/2000/svg" xml:space="preserve" width="580px" height="580px" shape-rendering="geometricPrecision" text-rendering="geometricPrecision" image-rendering="optimizeQuality" fill-rule="nonzero" clip-rule="nonzero" viewBox="0 0 5800 5800" xmlns:xlink="http://www.w3.org/1999/xlink">
	<title>angel icon</title>
	<desc>angel icon from the IconExperience.com I-Collection. Copyright by INCORS GmbH (www.incors.com).</desc>
		<path id="curve28"  d="M2900 700c316,0 605,53 815,138 238,96 385,239 385,407 0,150 -119,281 -315,376 -53,-56 -109,-106 -165,-146 87,-33 280,-119 280,-230 0,-78 -99,-157 -259,-222 -188,-76 -450,-123 -741,-123 -291,0 -553,47 -741,123 -160,65 -259,144 -259,222 0,111 194,197 281,230 -55,41 -111,91 -165,147 -197,-95 -316,-226 -316,-377 0,-168 147,-311 385,-407 210,-85 499,-138 815,-138zm-491 877c166,-47 334,-32 492,36 158,-68 327,-83 492,-36 149,43 271,175 357,340 95,181 150,406 150,583 0,232 0,977 189,1355l26 53c-172,257 -326,215 -597,137 -20,-5 -39,-11 -58,-16 92,121 248,157 387,201 161,51 323,102 423,199 89,86 147,172 183,268 36,95 49,196 49,313 0,183 -199,299 -473,370 -351,91 -840,120 -1128,120 -288,0 -777,-29 -1128,-120 -274,-71 -473,-187 -473,-370 0,-117 13,-218 48,-312 35,-96 93,-183 182,-269 100,-97 262,-148 423,-199 140,-44 293,-78 386,-201 -19,5 -38,11 -57,16 -271,78 -425,120 -597,-138l26 -52c174,-347 187,-962 188,-1355 1,-178 56,-403 152,-584 87,-164 209,-296 358,-339zm1598 1297c230,-349 561,-960 1067,-744 530,226 473,1042 419,1802 -29,399 -56,783 6,1030 16,62 -32,124 -97,124 -232,0 -463,-110 -577,-329 -284,-85 -448,-325 -448,-619 0,-166 31,-335 61,-504 18,-98 36,-195 47,-294l198 22c-11,99 -30,203 -48,307 -49,269 -147,654 119,837 -15,-182 26,-394 59,-573 42,-231 83,-461 34,-659l193 -48c60,238 15,489 -31,742 -29,158 -57,317 -57,470 0,244 150,388 327,433 -35,-264 -11,-603 14,-953 49,-692 102,-1434 -297,-1604 -302,-129 -550,252 -770,589 -66,102 -130,201 -196,285 -11,-104 -18,-209 -23,-314zm-2237 309c-64,-83 -128,-179 -194,-279 -223,-338 -476,-720 -780,-590 -400,170 -345,909 -293,1599 27,352 52,693 17,958 179,-45 330,-189 330,-433 0,-153 -28,-312 -57,-470 -46,-253 -92,-504 -32,-742l194 48c-50,198 -8,428 34,659 32,179 74,391 59,573 268,-183 170,-567 121,-837 -19,-103 -38,-207 -49,-305l199 -22c11,97 28,195 46,292 31,169 62,338 62,504 0,295 -165,535 -450,619 -114,219 -347,329 -580,329 -65,-8 -114,-54 -96,-124 62,-248 33,-633 3,-1034 -57,-759 -118,-1572 414,-1798 506,-215 842,390 1074,739 -4,102 -11,208 -22,314z"/>
</svg>