<?xml version="1.0" encoding="UTF-8"?>
<!DOCTYPE svg PUBLIC "-//W3C//DTD SVG 1.1//EN" "http://www.w3.org/Graphics/SVG/1.1/DTD/svg11.dtd">
<svg xmlns="http://www.w3.org/2000/svg" xml:space="preserve" width="580px" height="580px" shape-rendering="geometricPrecision" text-rendering="geometricPrecision" image-rendering="optimizeQuality" fill-rule="nonzero" clip-rule="nonzero" viewBox="0 0 5800 5800" xmlns:xlink="http://www.w3.org/1999/xlink">
	<title>angel icon</title>
	<desc>angel icon from the IconExperience.com I-Collection. Copyright by INCORS GmbH (www.incors.com).</desc>
		<path id="curve28" d="M397 5086c-64,0 -112,-61 -96,-124 62,-248 33,-633 3,-1034 -57,-759 -118,-1572 414,-1798 457,-194 758,261 1025,664 49,74 96,146 142,210 13,-203 14,-385 14,-487 1,-205 56,-420 152,-601 87,-164 209,-296 358,-339 166,-47 334,-32 492,36 158,-68 327,-83 492,-36 149,43 271,175 357,340 95,181 150,406 150,583 0,99 0,292 15,510 46,-65 94,-139 144,-215 263,-404 560,-859 1015,-665 530,226 473,1042 419,1802 -29,399 -56,783 6,1030 16,63 -33,124 -97,124 -232,0 -463,-110 -577,-329 -121,-36 -232,-106 -314,-209 -82,-105 -134,-241 -134,-410 0,-166 31,-335 61,-504 18,-98 36,-195 47,-294l198 22c-11,99 -30,203 -48,307 -29,158 -58,317 -58,469 0,121 35,216 90,286 25,32 55,59 87,82 -1,-22 -2,-45 -2,-68 0,-166 30,-336 61,-505 42,-231 83,-461 34,-659l193 -48c60,238 15,489 -31,742 -29,158 -57,317 -57,470 0,244 150,388 327,433 -35,-264 -11,-603 14,-953 49,-692 102,-1434 -297,-1604 -302,-129 -550,252 -770,589 -96,148 -187,288 -284,389 27,209 73,415 147,563l26 53 -32 47c-141,212 -356,150 -565,90 -20,-5 -39,-11 -58,-16 27,36 60,67 89,84 100,55 191,83 298,117 161,51 323,102 423,199 89,86 147,172 183,268 36,95 49,196 49,313 0,183 -199,299 -473,370 -351,91 -840,120 -1128,120 -288,0 -777,-29 -1128,-120 -274,-71 -473,-187 -473,-370 0,-117 13,-218 48,-312 35,-96 93,-183 182,-269 100,-97 262,-148 423,-199 111,-35 222,-70 294,-115 38,-23 65,-50 92,-86 -19,5 -38,11 -57,16 -209,60 -424,122 -565,-90l-32 -48 26 -52c75,-150 120,-358 147,-569 -95,-100 -186,-237 -282,-382 -223,-338 -476,-720 -780,-590 -400,170 -345,909 -293,1599 27,352 52,693 17,958 179,-45 330,-189 330,-433 0,-153 -28,-312 -57,-470 -46,-253 -92,-504 -32,-742l194 48c-50,198 -8,428 34,659 31,169 61,339 61,505 0,23 -1,46 -2,68 33,-23 63,-50 88,-82 56,-70 90,-165 90,-286 0,-152 -28,-311 -57,-469 -19,-103 -38,-207 -49,-305l199 -22c11,97 28,195 46,292 31,169 62,338 62,504 0,169 -52,306 -135,410 -82,103 -193,173 -315,209 -114,219 -347,329 -580,329zm2503 -4386c316,0 605,53 815,138 238,96 385,239 385,407 0,150 -119,281 -315,376 -53,-56 -109,-106 -165,-146 87,-33 280,-119 280,-230 0,-78 -99,-157 -259,-222 -188,-76 -450,-123 -741,-123 -291,0 -553,47 -741,123 -160,65 -259,144 -259,222 0,111 194,197 281,230 -55,41 -111,91 -165,147 -197,-95 -316,-226 -316,-377 0,-168 147,-311 385,-407 210,-85 499,-138 815,-138zm378 3417c-46,-69 -78,-148 -78,-217l0 -100 100 0c88,0 180,26 272,53 118,34 238,68 309,26 -181,-433 -181,-1148 -181,-1379 0,-148 -46,-338 -127,-491 -62,-119 -143,-214 -234,-240 -135,-38 -269,-20 -393,43l-45 22 -45 -22c-124,-63 -258,-81 -393,-43 -91,26 -172,121 -235,240 -82,154 -129,334 -130,508 0,248 -3,940 -179,1362 71,42 191,8 309,-26 92,-27 184,-53 272,-53l100 0c0,134 3,194 -78,316 0,36 -172,177 -172,171 -94,57 -215,96 -337,134 -139,44 -279,88 -343,150 -67,65 -110,128 -135,196 -26,70 -35,149 -35,243 0,69 136,128 323,177 331,86 800,113 1078,113 278,0 747,-27 1078,-113 187,-49 323,-108 323,-177 0,-95 -10,-173 -36,-242 -25,-68 -68,-131 -136,-197 -64,-62 -204,-106 -343,-150 -123,-39 -246,-78 -340,-136 -61,-36 -123,-99 -169,-168z"/>
</svg>