<?xml version="1.0" encoding="UTF-8"?>
<!DOCTYPE svg PUBLIC "-//W3C//DTD SVG 1.1//EN" "http://www.w3.org/Graphics/SVG/1.1/DTD/svg11.dtd">
<svg xmlns="http://www.w3.org/2000/svg" xml:space="preserve" width="580px" height="580px" shape-rendering="geometricPrecision" text-rendering="geometricPrecision" image-rendering="optimizeQuality" fill-rule="nonzero" clip-rule="nonzero" viewBox="0 0 5800 5800" xmlns:xlink="http://www.w3.org/1999/xlink">
	<title>antenna icon</title>
	<desc>antenna icon from the IconExperience.com I-Collection. Copyright by INCORS GmbH (www.incors.com).</desc>
		<path id="curve28"  d="M2900 1700c220,0 400,180 400,400 0,143 -76,275 -200,346l0 415 1084 2562 -368 154 -244 -577 -1344 0 -244 577 -368 -154 1084 -2562 0 -415c-124,-71 -200,-203 -200,-346 0,-220 180,-400 400,-400zm-164 2100l328 0 -164 -389 -164 389zm498 400l-668 0 -169 400 1006 0 -169 -400zm1348 -3873c488,468 762,1113 762,1789 0,645 -249,1263 -699,1726l-215 -209c396,-407 614,-949 614,-1517 0,-596 -239,-1161 -670,-1574l208 -215zm-478 503c350,335 546,797 546,1281 0,462 -179,904 -500,1236l-215 -209c268,-276 415,-642 415,-1027 0,-404 -161,-786 -453,-1065l207 -216zm-481 509c209,200 327,477 327,767 0,277 -107,542 -300,741l-215 -209c140,-143 215,-332 215,-532 0,-209 -83,-407 -235,-552l208 -215zm-2405 2534c-488,-468 -762,-1113 -762,-1789 0,-645 249,-1263 699,-1726l215 209c-396,407 -614,949 -614,1517 0,596 239,1161 670,1574l-208 215zm478 -503c-350,-335 -546,-797 -546,-1281 0,-462 179,-904 500,-1236l215 209c-268,276 -415,642 -415,1027 0,404 161,786 453,1065l-207 216zm481 -509c-209,-200 -327,-477 -327,-767 0,-277 107,-542 300,-741l215 209c-140,143 -215,332 -215,532 0,209 83,407 235,552l-208 215z"/>
</svg>