<?xml version="1.0" encoding="UTF-8"?>
<!DOCTYPE svg PUBLIC "-//W3C//DTD SVG 1.1//EN" "http://www.w3.org/Graphics/SVG/1.1/DTD/svg11.dtd">
<svg xmlns="http://www.w3.org/2000/svg" xml:space="preserve" width="580px" height="580px" shape-rendering="geometricPrecision" text-rendering="geometricPrecision" image-rendering="optimizeQuality" fill-rule="nonzero" clip-rule="nonzero" viewBox="0 0 5800 5800" xmlns:xlink="http://www.w3.org/1999/xlink">
	<title>antenna icon</title>
	<desc>antenna icon from the IconExperience.com I-Collection. Copyright by INCORS GmbH (www.incors.com).</desc>
		<path id="curve28"  d="M2585 3900l630 0 -315 -744 -315 744zm315 -2100c165,0 300,135 300,300 0,127 -80,241 -200,283l0 498 1092 2580 -184 78 -270 -639 -1476 0 -270 639 -184 -78 1092 -2580 0 -498c-120,-42 -200,-156 -200,-283 0,-165 135,-300 300,-300zm0 200c-56,0 -100,44 -100,100 0,55 45,100 100,100 55,0 100,-45 100,-100 0,-56 -44,-100 -100,-100zm400 2100l-800 0 -253 600 1306 0 -253 -600zm1247 -3737c479,458 747,1090 747,1753 0,633 -244,1237 -685,1691l-143 -139c405,-417 628,-971 628,-1552 0,-610 -245,-1188 -685,-1610l138 -143zm-477 503c340,326 530,775 530,1245 0,449 -173,879 -486,1201l-143 -139c277,-286 429,-664 429,-1062 0,-417 -167,-812 -468,-1101l138 -144zm-482 509c200,191 312,455 312,731 0,134 -26,263 -74,381 -49,122 -122,232 -212,325l-143 -139c72,-74 130,-163 170,-260 38,-95 59,-198 59,-307 0,-223 -89,-433 -250,-588l138 -143zm-2335 2462c-479,-458 -747,-1090 -747,-1753 0,-633 244,-1237 685,-1691l143 139c-405,417 -628,971 -628,1552 0,610 245,1188 685,1610l-138 143zm477 -503c-340,-326 -530,-775 -530,-1245 0,-449 173,-879 486,-1201l143 139c-277,286 -429,664 -429,1062 0,417 167,812 468,1101l-138 144zm482 -509c-200,-191 -312,-455 -312,-731 0,-264 102,-517 286,-706l143 139c-148,153 -229,354 -229,567 0,223 89,433 250,588l-138 143z"/>
</svg>