<?xml version="1.0" encoding="UTF-8"?>
<!DOCTYPE svg PUBLIC "-//W3C//DTD SVG 1.1//EN" "http://www.w3.org/Graphics/SVG/1.1/DTD/svg11.dtd">
<svg xmlns="http://www.w3.org/2000/svg" xml:space="preserve" width="580px" height="580px" shape-rendering="geometricPrecision" text-rendering="geometricPrecision" image-rendering="optimizeQuality" fill-rule="nonzero" clip-rule="nonzero" viewBox="0 0 5800 5800" xmlns:xlink="http://www.w3.org/1999/xlink">
	<title>apple_bite icon</title>
	<desc>apple_bite icon from the IconExperience.com I-Collection. Copyright by INCORS GmbH (www.incors.com).</desc>
		<path id="curve28"  d="M2750 1400l0 -300c0,-478 238,-850 750,-850l0 300c-342,0 -450,241 -450,550l0 300 -300 0zm150 158c91,0 176,-28 271,-59 142,-46 306,-99 554,-99 325,0 611,55 854,162 246,109 447,271 596,486l50 71c-38,35 -76,69 -114,104 -68,-7 -125,-12 -194,1 -62,12 -87,27 -136,60 -94,-17 -150,-10 -240,30 -91,39 -132,74 -183,154 -93,22 -140,50 -207,123 -67,73 -89,120 -102,214 -76,57 -107,100 -138,193 -31,93 -31,145 -4,236 -46,83 -57,134 -46,232 10,98 32,145 94,217 -7,94 4,145 54,229 50,85 90,121 176,162 33,89 66,131 146,188 81,58 133,76 228,78 62,63 102,87 192,110 111,27 167,15 271,-11 30,46 59,91 88,137 -209,316 -436,543 -779,716 -296,149 -639,228 -1018,228 -189,0 -258,-97 -413,-97 -155,0 -224,97 -413,97 -652,0 -1195,-233 -1576,-651 -373,-411 -587,-999 -587,-1718 0,-562 162,-995 458,-1292 304,-303 744,-459 1293,-459 239,0 384,49 518,94 97,33 188,64 307,64z"/>
</svg>