<?xml version="1.0" encoding="UTF-8"?>
<!DOCTYPE svg PUBLIC "-//W3C//DTD SVG 1.1//EN" "http://www.w3.org/Graphics/SVG/1.1/DTD/svg11.dtd">
<svg xmlns="http://www.w3.org/2000/svg" xml:space="preserve" width="580px" height="580px" shape-rendering="geometricPrecision" text-rendering="geometricPrecision" image-rendering="optimizeQuality" fill-rule="nonzero" clip-rule="nonzero" viewBox="0 0 5800 5800" xmlns:xlink="http://www.w3.org/1999/xlink">
	<title>apple_bite icon</title>
	<desc>apple_bite icon from the IconExperience.com I-Collection. Copyright by INCORS GmbH (www.incors.com).</desc>
		<path id="curve28" d="M2900 1558c91,0 176,-28 271,-59 142,-46 306,-99 554,-99 563,0 1116,167 1450,648l50 71c-38,35 -76,69 -114,104l-44 -5c-76,-7 -187,0 -253,44l-33 22 -39 -7c-109,-19 -303,63 -362,157l-22 34 -40 10c-106,25 -248,177 -263,286l-6 41 -33 25c-87,66 -153,259 -121,364l12 40 -21 37c-52,95 -30,298 41,380l28 32 -3 41c-9,109 98,286 196,333l37 17 14 38c38,104 210,224 320,227l40 1 29 29c76,78 262,114 365,88l69 -18c30,46 59,91 88,137l-36 54c-401,605 -1047,890 -1761,890 -125,0 -187,-29 -249,-58 -41,-19 -82,-39 -164,-39 -82,0 -123,20 -164,39 -62,29 -124,58 -249,58 -1399,0 -2163,-1038 -2163,-2369 0,-1112 639,-1751 1751,-1751 239,0 384,49 518,94 97,33 188,64 307,64zm333 131c-112,37 -211,69 -333,69 -150,0 -256,-36 -370,-75 -118,-39 -247,-83 -455,-83 -1001,0 -1551,550 -1551,1551 0,1219 675,2169 1963,2169 82,0 123,-19 165,-39 61,-29 124,-58 248,-58 125,0 187,29 249,58 41,20 82,39 164,39 581,0 1119,-202 1491,-659 -114,-12 -241,-53 -330,-126 -171,-24 -368,-163 -446,-317 -146,-90 -269,-297 -276,-469 -97,-142 -123,-379 -58,-538 -29,-169 47,-396 171,-514 43,-168 207,-344 369,-402 108,-134 331,-231 504,-219 50,-27 106,-43 162,-51 -304,-322 -746,-425 -1175,-425 -218,0 -364,48 -492,89zm-433 -289l0 -300c0,-243 60,-443 181,-583 119,-139 292,-217 519,-217l0 200c-165,0 -287,52 -368,146 -88,103 -132,259 -132,454l0 300 -200 0z"/>
</svg>