<?xml version="1.0" encoding="UTF-8"?>
<!DOCTYPE svg PUBLIC "-//W3C//DTD SVG 1.1//EN" "http://www.w3.org/Graphics/SVG/1.1/DTD/svg11.dtd">
<svg xmlns="http://www.w3.org/2000/svg" xml:space="preserve" width="580px" height="580px" shape-rendering="geometricPrecision" text-rendering="geometricPrecision" image-rendering="optimizeQuality" fill-rule="nonzero" clip-rule="nonzero" viewBox="0 0 5800 5800" xmlns:xlink="http://www.w3.org/1999/xlink">
	<title>apple icon</title>
	<desc>apple icon from the IconExperience.com I-Collection. Copyright by INCORS GmbH (www.incors.com).</desc>
		<path id="curve28" d="M2800 1400l0 -300c0,-243 60,-443 181,-583 119,-139 292,-217 519,-217l0 200c-165,0 -287,52 -368,146 -88,103 -132,259 -132,454l0 300 -200 0zm100 158c91,0 176,-28 271,-59 142,-46 306,-99 554,-99 1112,0 1751,639 1751,1751 0,1331 -764,2369 -2163,2369 -125,0 -187,-29 -249,-58 -41,-19 -82,-39 -164,-39 -82,0 -123,20 -164,39 -62,29 -124,58 -249,58 -1399,0 -2163,-1038 -2163,-2369 0,-1112 639,-1751 1751,-1751 239,0 384,49 518,94 97,33 188,64 307,64zm333 131c-112,37 -211,69 -333,69 -150,0 -256,-36 -370,-75 -118,-39 -247,-83 -455,-83 -1001,0 -1551,550 -1551,1551 0,1219 675,2169 1963,2169 82,0 123,-19 165,-39 61,-29 124,-58 248,-58 125,0 187,29 249,58 41,20 82,39 164,39 1288,0 1963,-950 1963,-2169 0,-1001 -550,-1551 -1551,-1551 -218,0 -364,48 -492,89z"/>
</svg>