<?xml version="1.0" encoding="UTF-8"?>
<!DOCTYPE svg PUBLIC "-//W3C//DTD SVG 1.1//EN" "http://www.w3.org/Graphics/SVG/1.1/DTD/svg11.dtd">
<svg xmlns="http://www.w3.org/2000/svg" xml:space="preserve" width="580px" height="580px" shape-rendering="geometricPrecision" text-rendering="geometricPrecision" image-rendering="optimizeQuality" fill-rule="nonzero" clip-rule="nonzero" viewBox="0 0 5800 5800" xmlns:xlink="http://www.w3.org/1999/xlink">
	<title>armour icon</title>
	<desc>armour icon from the IconExperience.com I-Collection. Copyright by INCORS GmbH (www.incors.com).</desc>
	<path id="curve0"  d="M4054 1624c-139,-62 -230,-185 -248,-336 -17,-151 43,-292 164,-384 208,-157 463,-229 722,-206 502,44 903,445 949,947 14,147 -125,261 -267,221 -230,-66 -460,-16 -659,113 -19,15 -44,23 -70,21l-118 -11c-36,-3 -69,-25 -84,-61 -18,-44 -67,-96 -129,-147 -77,-62 -172,-119 -260,-157zm-2306 1c-113,50 -336,186 -385,304 -15,36 -48,59 -84,62l-118 10c-26,3 -51,-6 -70,-21 -200,-129 -434,-178 -665,-112 -142,40 -281,-75 -267,-222 46,-502 448,-904 951,-948 259,-23 515,49 723,206 121,92 181,234 164,385 -18,151 -109,274 -249,336zm1152 3089c-88,263 -176,524 -264,787l-1736 0 0 -100c1,-255 100,-542 241,-753 120,-179 302,-348 530,-348l1507 0 951 0c228,0 410,169 530,348 141,211 240,498 241,753l0 100 -1736 0c-88,-263 -176,-524 -264,-787zm1074 -2907c56,24 263,144 285,198l44 106c12,36 45,63 86,67l308 26c4,1 8,1 13,1 0,8 1,95 0,95 0,618 -136,1261 -346,1842 -73,-27 -152,-42 -235,-42l-1129 0 0 -2520c-67,3 -133,3 -200,0l0 2520 -1129 0c-84,0 -164,15 -238,43 -210,-581 -345,-1225 -345,-1843 -2,0 0,-86 0,-94 7,1 14,1 21,1l309 -28c36,-3 69,-25 83,-61l47 -112c7,-18 40,-47 81,-78 69,-52 153,-99 200,-120 224,-99 366,-312 371,-557 216,84 452,131 700,131 249,0 486,-47 703,-133 5,245 146,459 371,558z"/>
</svg>