<?xml version="1.0" encoding="UTF-8"?>
<!DOCTYPE svg PUBLIC "-//W3C//DTD SVG 1.1//EN" "http://www.w3.org/Graphics/SVG/1.1/DTD/svg11.dtd">
<svg xmlns="http://www.w3.org/2000/svg" xml:space="preserve" width="580px" height="580px" shape-rendering="geometricPrecision" text-rendering="geometricPrecision" image-rendering="optimizeQuality" fill-rule="nonzero" clip-rule="nonzero" viewBox="0 0 5800 5800" xmlns:xlink="http://www.w3.org/1999/xlink">
	<title>armour icon</title>
	<desc>armour icon from the IconExperience.com I-Collection. Copyright by INCORS GmbH (www.incors.com).</desc>
	<path id="curve0" d="M4135 1441c158,70 367,205 463,354l31 2c243,-150 523,-202 800,-123 8,2 14,-3 14,-11 -38,-406 -362,-731 -768,-766 -210,-18 -416,39 -584,166 -66,50 -96,121 -86,202 9,81 55,143 130,176zm-2387 184c-113,50 -336,186 -385,304 -12,30 -36,50 -65,58 -7,103 -11,208 -11,313 0,462 83,974 235,1477 53,177 115,352 185,523l1093 0 0 -2720c-285,-14 -564,-84 -821,-208 -37,115 -120,204 -231,253zm2962 675c0,482 -86,1014 -244,1535 -50,167 -108,333 -173,495 141,53 267,170 366,318 148,221 241,515 241,753l0 100 -1736 0 -264 -787 -264 787 -1736 0 0 -100c0,-238 93,-532 241,-753 99,-147 223,-264 363,-317 -65,-163 -123,-329 -173,-496 -158,-520 -243,-1052 -244,-1535 0,-106 4,-210 11,-314 -203,-133 -436,-185 -672,-118 -142,40 -281,-75 -267,-222 46,-502 448,-904 951,-948 259,-23 515,49 723,206 82,62 138,149 159,250 279,151 590,228 908,228 319,0 631,-78 912,-230 20,-100 77,-186 158,-248 208,-157 463,-229 722,-206 502,44 903,445 949,947 14,147 -125,261 -267,221 -230,-66 -460,-16 -659,113 -4,3 -10,7 -15,10 7,103 11,206 10,311zm-656 -676c-110,-49 -193,-139 -230,-254 -258,125 -538,196 -824,210l0 2720 1090 0c70,-171 132,-346 186,-523 152,-502 235,-1015 235,-1477 0,-107 -4,-213 -12,-317 -24,-10 -45,-29 -56,-55 -49,-118 -275,-255 -389,-304zm75 2876l-1090 0 268 801 1387 0c-21,-181 -94,-383 -201,-542 -101,-151 -229,-259 -364,-259zm-1368 0l-1090 0c-135,0 -263,108 -364,259 -107,159 -180,361 -201,542l1387 0 268 -801zm-1093 -3058c75,-33 121,-95 130,-176 10,-81 -20,-153 -86,-202 -168,-127 -375,-185 -585,-167 -407,35 -732,361 -770,767 0,9 6,14 14,12 278,-79 562,-27 806,123l32 -3c95,-150 300,-284 459,-354z"/>
</svg>