<?xml version="1.0" encoding="UTF-8"?>
<!DOCTYPE svg PUBLIC "-//W3C//DTD SVG 1.1//EN" "http://www.w3.org/Graphics/SVG/1.1/DTD/svg11.dtd">
<svg xmlns="http://www.w3.org/2000/svg" xml:space="preserve" width="580px" height="580px" shape-rendering="geometricPrecision" text-rendering="geometricPrecision" image-rendering="optimizeQuality" fill-rule="nonzero" clip-rule="nonzero" viewBox="0 0 5800 5800" xmlns:xlink="http://www.w3.org/1999/xlink">
	<title>army_knife icon</title>
	<desc>army_knife icon from the IconExperience.com I-Collection. Copyright by INCORS GmbH (www.incors.com).</desc>
	<path id="curve0" d="M1382 4234l2830 -2830c311,-309 820,-308 1130,2 310,310 311,818 2,1129l-2831 2831c-311,310 -820,310 -1131,0 -311,-311 -311,-821 0,-1132zm141 142c-233,233 -233,615 0,848 233,233 616,233 849,0l2828 -2828c233,-233 233,-616 0,-849 -233,-233 -614,-233 -848,0l-2829 2829zm524 -3358c-52,-18 -79,-76 -60,-127 19,-52 76,-79 127,-60l752 274c52,18 79,75 60,127 -19,52 -76,79 -128,60l-751 -274zm810 1146l-1108 195c-340,60 -643,241 -856,513 309,109 638,135 961,78l642 -113 -246 246 -362 64c-403,71 -815,24 -1190,-137l-110 -47 65 -100c242,-371 625,-624 1062,-701l766 -135 376 137zm1165 -852l-2145 -781c-422,-154 -884,-142 -1297,33 272,327 623,574 1023,719l1794 653 -156 156 -1706 -621c-475,-173 -889,-479 -1192,-885l-71 -95 106 -54c488,-247 1053,-281 1567,-93l2245 817c-64,47 -113,96 -168,151z"/>
</svg>