<?xml version="1.0" encoding="UTF-8"?>
<!DOCTYPE svg PUBLIC "-//W3C//DTD SVG 1.1//EN" "http://www.w3.org/Graphics/SVG/1.1/DTD/svg11.dtd">
<svg xmlns="http://www.w3.org/2000/svg" xml:space="preserve" width="580px" height="580px" shape-rendering="geometricPrecision" text-rendering="geometricPrecision" image-rendering="optimizeQuality" fill-rule="nonzero" clip-rule="nonzero" viewBox="0 0 5800 5800" xmlns:xlink="http://www.w3.org/1999/xlink">
	<title>arrow_merge icon</title>
	<desc>arrow_merge icon from the IconExperience.com I-Collection. Copyright by INCORS GmbH (www.incors.com).</desc>
		<path id="curve28" d="M4271 1829l1070 1071 -1070 1071 -142 -142 830 -829 -1473 0c-175,0 -337,46 -474,130 -137,85 -251,208 -330,364 -187,370 -567,606 -982,606l-1200 0 0 -200 1200 0c341,0 651,-192 804,-496 96,-190 235,-341 403,-444 37,-22 74,-42 112,-60 -38,-18 -75,-38 -112,-60 -168,-103 -307,-254 -403,-444 -153,-304 -463,-496 -804,-496l-1200 0 0 -200 1200 0c415,0 795,236 982,606 79,156 193,279 330,364 137,84 299,130 474,130l1473 0 -830 -829 142 -142z"/>
</svg>