<?xml version="1.0" encoding="UTF-8"?>
<!DOCTYPE svg PUBLIC "-//W3C//DTD SVG 1.1//EN" "http://www.w3.org/Graphics/SVG/1.1/DTD/svg11.dtd">
<svg xmlns="http://www.w3.org/2000/svg" xml:space="preserve" width="580px" height="580px" shape-rendering="geometricPrecision" text-rendering="geometricPrecision" image-rendering="optimizeQuality" fill-rule="nonzero" clip-rule="nonzero" viewBox="0 0 5800 5800" xmlns:xlink="http://www.w3.org/1999/xlink">
	<title>arrow_circle icon</title>
	<desc>arrow_circle icon from the IconExperience.com I-Collection. Copyright by INCORS GmbH (www.incors.com).</desc>
		<path id="curve28"  d="M59 2959l1141 -1142 1141 1142 -282 282 -659 -658 0 317c0,1049 851,1900 1900,1900 1049,0 1900,-851 1900,-1900 0,-1049 -851,-1900 -1900,-1900 -546,0 -1062,232 -1424,641l-299 -264c438,-495 1062,-777 1723,-777 1270,0 2300,1030 2300,2300 0,1270 -1030,2300 -2300,2300 -1270,0 -2300,-1030 -2300,-2300l0 -317 -659 658 -282 -282z"/>
</svg>