<?xml version="1.0" encoding="UTF-8"?>
<!DOCTYPE svg PUBLIC "-//W3C//DTD SVG 1.1//EN" "http://www.w3.org/Graphics/SVG/1.1/DTD/svg11.dtd">
<svg xmlns="http://www.w3.org/2000/svg" xml:space="preserve" width="580px" height="580px" shape-rendering="geometricPrecision" text-rendering="geometricPrecision" image-rendering="optimizeQuality" fill-rule="nonzero" clip-rule="nonzero" viewBox="0 0 5800 5800" xmlns:xlink="http://www.w3.org/1999/xlink">
	<title>arrow_spread2 icon</title>
	<desc>arrow_spread2 icon from the IconExperience.com I-Collection. Copyright by INCORS GmbH (www.incors.com).</desc>
		<path id="curve28" d="M2300 5100l-1600 0 0 -1600 200 0 0 1259 1429 -1430 142 142 -1430 1429 1259 0 0 200zm2800 -1600l0 1600 -1600 0 0 -200 1259 0 -1430 -1429 142 -142 1429 1430 0 -1259 200 0zm-1600 -2800l1600 0 0 1600 -200 0 0 -1259 -1429 1430 -142 -142 1430 -1429 -1259 0 0 -200zm-2800 1600l0 -1600 1600 0 0 200 -1259 0 1430 1429 -142 142 -1429 -1430 0 1259 -200 0z"/>
</svg>