<?xml version="1.0" encoding="UTF-8"?>
<!DOCTYPE svg PUBLIC "-//W3C//DTD SVG 1.1//EN" "http://www.w3.org/Graphics/SVG/1.1/DTD/svg11.dtd">
<svg xmlns="http://www.w3.org/2000/svg" xml:space="preserve" width="580px" height="580px" shape-rendering="geometricPrecision" text-rendering="geometricPrecision" image-rendering="optimizeQuality" fill-rule="nonzero" clip-rule="nonzero" viewBox="0 0 5800 5800" xmlns:xlink="http://www.w3.org/1999/xlink">
	<title>arrow_spread2 icon</title>
	<desc>arrow_spread2 icon from the IconExperience.com I-Collection. Copyright by INCORS GmbH (www.incors.com).</desc>
		<path id="curve28"  d="M2300 5199l-1700 0 0 -1699 400 0 0 1017 1259 -1258 282 282 -1259 1260 1018 0 0 398zm2899 -1699l0 1700 -1699 0 0 -400 1017 0 -1258 -1259 282 -282 1260 1259 0 -1018 398 0zm-1699 -2899l1700 0 0 1699 -400 0 0 -1017 -1259 1258 -282 -282 1259 -1260 -1018 0 0 -398zm-2899 1699l0 -1700 1699 0 0 400 -1017 0 1258 1259 -282 282 -1260 -1259 0 1018 -398 0z"/>
</svg>