<?xml version="1.0" encoding="UTF-8"?>
<!DOCTYPE svg PUBLIC "-//W3C//DTD SVG 1.1//EN" "http://www.w3.org/Graphics/SVG/1.1/DTD/svg11.dtd">
<svg xmlns="http://www.w3.org/2000/svg" xml:space="preserve" width="580px" height="580px" shape-rendering="geometricPrecision" text-rendering="geometricPrecision" image-rendering="optimizeQuality" fill-rule="nonzero" clip-rule="nonzero" viewBox="0 0 5800 5800" xmlns:xlink="http://www.w3.org/1999/xlink">
	<title>arrow_circle icon</title>
	<desc>arrow_circle icon from the IconExperience.com I-Collection. Copyright by INCORS GmbH (www.incors.com).</desc>
		<path id="curve28"  d="M129 3029l1071 -1070 1071 1070 -142 142 -829 -830 0 559c0,1105 895,2000 2000,2000 1105,0 2000,-895 2000,-2000 0,-1105 -895,-2000 -2000,-2000 -575,0 -1118,244 -1499,675l-149 -132c419,-473 1016,-743 1648,-743 1215,0 2200,985 2200,2200 0,1215 -985,2200 -2200,2200 -1215,0 -2200,-985 -2200,-2200l0 -559 -829 830 -142 -142z"/>
</svg>