<?xml version="1.0" encoding="UTF-8"?>
<!DOCTYPE svg PUBLIC "-//W3C//DTD SVG 1.1//EN" "http://www.w3.org/Graphics/SVG/1.1/DTD/svg11.dtd">
<svg xmlns="http://www.w3.org/2000/svg" xml:space="preserve" width="580px" height="580px" shape-rendering="geometricPrecision" text-rendering="geometricPrecision" image-rendering="optimizeQuality" fill-rule="nonzero" clip-rule="nonzero" viewBox="0 0 5800 5800" xmlns:xlink="http://www.w3.org/1999/xlink">
	<title>arrow_loop3 icon</title>
	<desc>arrow_loop3 icon from the IconExperience.com I-Collection. Copyright by INCORS GmbH (www.incors.com).</desc>
		<path id="curve29"  d="M2341 3259l1142 1141 -1142 1141 -282 -282 658 -659 -817 0c-937,0 -1700,-763 -1700,-1700 0,-937 763,-1700 1700,-1700l234 0 -200 200 200 200 -234 0c-716,0 -1300,584 -1300,1300 0,716 584,1300 1300,1300l817 0 -658 -659 282 -282z"/>
	<path id="curve28"  d="M3359 2541l-1142 -1141 1142 -1141 282 282 -658 659 817 0c937,0 1700,763 1700,1700 0,937 -763,1700 -1700,1700l-234 0 200 -200 -200 -200 234 0c716,0 1300,-584 1300,-1300 0,-716 -584,-1300 -1300,-1300l-817 0 658 659 -282 282z"/>
</svg>