<?xml version="1.0" encoding="UTF-8"?>
<!DOCTYPE svg PUBLIC "-//W3C//DTD SVG 1.1//EN" "http://www.w3.org/Graphics/SVG/1.1/DTD/svg11.dtd">
<svg xmlns="http://www.w3.org/2000/svg" xml:space="preserve" width="580px" height="580px" shape-rendering="geometricPrecision" text-rendering="geometricPrecision" image-rendering="optimizeQuality" fill-rule="nonzero" clip-rule="nonzero" viewBox="0 0 5800 5800" xmlns:xlink="http://www.w3.org/1999/xlink">
	<title>arrow_join icon</title>
	<desc>arrow_join icon from the IconExperience.com I-Collection. Copyright by INCORS GmbH (www.incors.com).</desc>
		<path id="curve28"  d="M5500 3100l-1317 0 458 459 -282 282 -942 -941 942 -941 282 282 -458 459 1317 0 0 400zm-2400 -2800l0 1317 459 -458 282 282 -941 942 -941 -942 282 -282 459 458 0 -1317 400 0zm-1941 3259l458 -459 -1317 0 0 -400 1317 0 -458 -459 282 -282 942 941 -942 941 -282 -282zm2400 1082l-459 -458 0 1317 -400 0 0 -1317 -459 458 -282 -282 941 -942 941 942 -282 282z"/>
</svg>