<?xml version="1.0" encoding="UTF-8"?>
<!DOCTYPE svg PUBLIC "-//W3C//DTD SVG 1.1//EN" "http://www.w3.org/Graphics/SVG/1.1/DTD/svg11.dtd">
<svg xmlns="http://www.w3.org/2000/svg" xml:space="preserve" width="580px" height="580px" shape-rendering="geometricPrecision" text-rendering="geometricPrecision" image-rendering="optimizeQuality" fill-rule="nonzero" clip-rule="nonzero" viewBox="0 0 5800 5800" xmlns:xlink="http://www.w3.org/1999/xlink">
	<title>arrow_join icon</title>
	<desc>arrow_join icon from the IconExperience.com I-Collection. Copyright by INCORS GmbH (www.incors.com).</desc>
		<path id="curve28"  d="M5500 3000l-1559 0 630 629 -142 142 -870 -871 870 -871 142 142 -630 629 1559 0 0 200zm-2500 -2700l0 1559 629 -630 142 142 -871 870 -871 -870 142 -142 629 630 0 -1559 200 0zm-1771 3329l630 -629 -1559 0 0 -200 1559 0 -630 -629 142 -142 870 871 -870 871 -142 -142zm2400 942l-629 -630 0 1559 -200 0 0 -1559 -629 630 -142 -142 871 -870 871 870 -142 142z"/>
</svg>