<?xml version="1.0" encoding="UTF-8"?>
<!DOCTYPE svg PUBLIC "-//W3C//DTD SVG 1.1//EN" "http://www.w3.org/Graphics/SVG/1.1/DTD/svg11.dtd">
<svg xmlns="http://www.w3.org/2000/svg" xml:space="preserve" width="580px" height="580px" shape-rendering="geometricPrecision" text-rendering="geometricPrecision" image-rendering="optimizeQuality" fill-rule="nonzero" clip-rule="nonzero" viewBox="0 0 5800 5800" xmlns:xlink="http://www.w3.org/1999/xlink">
	<title>arrow_fork2 icon</title>
	<desc>arrow_fork2 icon from the IconExperience.com I-Collection. Copyright by INCORS GmbH (www.incors.com).</desc>
		<path id="curve28"  d="M1500 2841l0 307c0,431 310,773 691,935 242,103 458,261 609,479l0 -3921 -629 630 -142 -142 871 -870 871 870 -142 142 -629 -630 0 3051c151,-217 368,-376 610,-479 380,-162 690,-503 690,-934l0 -338 -629 630 -142 -142 871 -870 871 870 -142 142 -629 -630 0 338c0,512 -357,924 -812,1118 -382,162 -676,476 -688,907 0,398 0,797 0,1196l-200 0 0 -300c0,-442 -297,-767 -688,-934 -455,-193 -812,-606 -812,-1118l0 -307 -629 630 -142 -142 871 -870 871 870 -142 142 -629 -630z"/>
</svg>