<?xml version="1.0" encoding="UTF-8"?>
<!DOCTYPE svg PUBLIC "-//W3C//DTD SVG 1.1//EN" "http://www.w3.org/Graphics/SVG/1.1/DTD/svg11.dtd">
<svg xmlns="http://www.w3.org/2000/svg" xml:space="preserve" width="580px" height="580px" shape-rendering="geometricPrecision" text-rendering="geometricPrecision" image-rendering="optimizeQuality" fill-rule="nonzero" clip-rule="nonzero" viewBox="0 0 5800 5800" xmlns:xlink="http://www.w3.org/1999/xlink">
	<title>arrow_squiggly icon</title>
	<desc>arrow_squiggly icon from the IconExperience.com I-Collection. Copyright by INCORS GmbH (www.incors.com).</desc>
		<path id="curve28"  d="M2700 5300l0 -200c0,-258 -126,-407 -240,-541 -136,-161 -260,-307 -260,-559 0,-339 283,-594 566,-848 217,-196 434,-391 434,-552 0,-107 -78,-200 -165,-301 -158,-188 -335,-396 -335,-799l0 -417 -859 858 -282 -282 1341 -1342 1341 1342 -282 282 -859 -858 0 417c0,258 126,407 240,541 136,161 260,307 260,559 0,339 -283,594 -566,848 -217,196 -434,391 -434,552 0,107 78,200 165,301 158,188 335,396 335,799l0 200 -400 0z"/>
</svg>