<?xml version="1.0" encoding="UTF-8"?>
<!DOCTYPE svg PUBLIC "-//W3C//DTD SVG 1.1//EN" "http://www.w3.org/Graphics/SVG/1.1/DTD/svg11.dtd">
<svg xmlns="http://www.w3.org/2000/svg" xml:space="preserve" width="580px" height="580px" shape-rendering="geometricPrecision" text-rendering="geometricPrecision" image-rendering="optimizeQuality" fill-rule="nonzero" clip-rule="nonzero" viewBox="0 0 5800 5800" xmlns:xlink="http://www.w3.org/1999/xlink">
	<title>arrow_through icon</title>
	<desc>arrow_through icon from the IconExperience.com I-Collection. Copyright by INCORS GmbH (www.incors.com).</desc>
		<path id="curve28" d="M2600 2701l0 200 -1713 0 0 399 1713 0 0 200 -1914 0c0,-266 0,-532 0,-799l1914 0zm600 0l1900 0 0 799 -1900 0 0 -200 1700 0 0 -399 -1700 0 0 -200zm-1371 -1172l1071 -1070 1071 1070 -142 142 -829 -830 0 4259 -200 0 0 -4259 -829 830 -142 -142z"/>
</svg>