<?xml version="1.0" encoding="UTF-8"?>
<!DOCTYPE svg PUBLIC "-//W3C//DTD SVG 1.1//EN" "http://www.w3.org/Graphics/SVG/1.1/DTD/svg11.dtd">
<svg xmlns="http://www.w3.org/2000/svg" xml:space="preserve" width="580px" height="580px" shape-rendering="geometricPrecision" text-rendering="geometricPrecision" image-rendering="optimizeQuality" fill-rule="nonzero" clip-rule="nonzero" viewBox="0 0 5800 5800" xmlns:xlink="http://www.w3.org/1999/xlink">
	<title>arrow_fork icon</title>
	<desc>arrow_fork icon from the IconExperience.com I-Collection. Copyright by INCORS GmbH (www.incors.com).</desc>
		<path id="curve28"  d="M4617 1800l-817 0c-329,0 -586,240 -710,529 -96,226 -244,429 -446,571 202,142 350,345 446,571 124,289 381,529 710,529l817 0 -658 -659 282 -282 1142 1141 -1142 1141 -282 -282 658 -659 -817 0c-489,0 -890,-337 -1077,-773 -127,-297 -371,-527 -709,-527l-1714 0 0 -400 1714 0c338,0 582,-230 709,-527 187,-436 588,-773 1077,-773l817 0 -658 -659 282 -282 1142 1141 -1142 1141 -282 -282 658 -659z"/>
</svg>