<?xml version="1.0" encoding="UTF-8"?>
<!DOCTYPE svg PUBLIC "-//W3C//DTD SVG 1.1//EN" "http://www.w3.org/Graphics/SVG/1.1/DTD/svg11.dtd">
<svg xmlns="http://www.w3.org/2000/svg" xml:space="preserve" width="580px" height="580px" shape-rendering="geometricPrecision" text-rendering="geometricPrecision" image-rendering="optimizeQuality" fill-rule="nonzero" clip-rule="nonzero" viewBox="0 0 5800 5800" xmlns:xlink="http://www.w3.org/1999/xlink">
	<title>arrow_around icon</title>
	<desc>arrow_around icon from the IconExperience.com I-Collection. Copyright by INCORS GmbH (www.incors.com).</desc>
		<path id="curve29"  d="M1759 1559l1141 -1142 1141 1142 -282 282 -659 -658 0 632c632,98 1100,644 1100,1285 0,641 -468,1187 -1100,1285l0 915 -400 0 0 -1300 200 0c497,0 900,-403 900,-900 0,-497 -403,-900 -900,-900l-200 0 0 -1017 -659 658 -282 -282z"/>
	<path id="curve28"  d="M2900 2400c387,0 700,313 700,700 0,387 -313,700 -700,700 -387,0 -700,-313 -700,-700 0,-387 313,-700 700,-700z"/>
</svg>