<?xml version="1.0" encoding="UTF-8"?>
<!DOCTYPE svg PUBLIC "-//W3C//DTD SVG 1.1//EN" "http://www.w3.org/Graphics/SVG/1.1/DTD/svg11.dtd">
<svg xmlns="http://www.w3.org/2000/svg" xml:space="preserve" width="580px" height="580px" shape-rendering="geometricPrecision" text-rendering="geometricPrecision" image-rendering="optimizeQuality" fill-rule="nonzero" clip-rule="nonzero" viewBox="0 0 5800 5800" xmlns:xlink="http://www.w3.org/1999/xlink">
	<title>arrow_circle2 icon</title>
	<desc>arrow_circle2 icon from the IconExperience.com I-Collection. Copyright by INCORS GmbH (www.incors.com).</desc>
		<path id="curve28"  d="M2609 5459l458 -459 -117 0c-1160,0 -2100,-940 -2100,-2100 0,-676 326,-1309 874,-1704l233 323c-446,322 -707,831 -707,1381 0,939 761,1700 1700,1700l117 0 -458 -459 282 -282 942 941 -942 941 -282 -282zm582 -5118l-458 459 117 0c1160,0 2100,940 2100,2100 0,676 -326,1309 -874,1704l-233 -323c446,-322 707,-831 707,-1381 0,-939 -761,-1700 -1700,-1700l-117 0 458 459 -282 282 -942 -941 942 -941 282 282z"/>
</svg>