<?xml version="1.0" encoding="UTF-8"?>
<!DOCTYPE svg PUBLIC "-//W3C//DTD SVG 1.1//EN" "http://www.w3.org/Graphics/SVG/1.1/DTD/svg11.dtd">
<svg xmlns="http://www.w3.org/2000/svg" xml:space="preserve" width="580px" height="580px" shape-rendering="geometricPrecision" text-rendering="geometricPrecision" image-rendering="optimizeQuality" fill-rule="nonzero" clip-rule="nonzero" viewBox="0 0 5800 5800" xmlns:xlink="http://www.w3.org/1999/xlink">
	<title>arrow_loop icon</title>
	<desc>arrow_loop icon from the IconExperience.com I-Collection. Copyright by INCORS GmbH (www.incors.com).</desc>
		<path id="curve28"  d="M3749 3200l1068 0 -658 -659 282 -282 1142 1141 -1142 1141 -282 -282 658 -659 -1495 0c168,-102 314,-238 427,-400zm-2188 -200c-103,-177 -161,-381 -161,-600 0,-663 537,-1200 1200,-1200 663,0 1200,537 1200,1200 0,663 -537,1200 -1200,1200l-2100 0 0 -400 2100 0c442,0 800,-358 800,-800 0,-442 -358,-800 -800,-800 -442,0 -800,358 -800,800 0,230 98,448 271,600l-510 0z"/>
</svg>