<?xml version="1.0" encoding="UTF-8"?>
<!DOCTYPE svg PUBLIC "-//W3C//DTD SVG 1.1//EN" "http://www.w3.org/Graphics/SVG/1.1/DTD/svg11.dtd">
<svg xmlns="http://www.w3.org/2000/svg" xml:space="preserve" width="580px" height="580px" shape-rendering="geometricPrecision" text-rendering="geometricPrecision" image-rendering="optimizeQuality" fill-rule="nonzero" clip-rule="nonzero" viewBox="0 0 5800 5800" xmlns:xlink="http://www.w3.org/1999/xlink">
	<title>arrow_cross icon</title>
	<desc>arrow_cross icon from the IconExperience.com I-Collection. Copyright by INCORS GmbH (www.incors.com).</desc>
		<path id="curve28"  d="M4479,3629 5109,3000 3000,3000 3000,5109 3629,4479 3771,4621 2900,5491 2029,4621 2171,4479 2800,5109 2800,3000 691,3000 1321,3629 1179,3771 309,2900 1179,2029 1321,2171 691,2800 2800,2800 2800,691 2171,1321 2029,1179 2900,309 3771,1179 3629,1321 3000,691 3000,2800 5109,2800 4479,2171 4621,2029 5491,2900 4621,3771z"/>
</svg>