<?xml version="1.0" encoding="UTF-8"?>
<!DOCTYPE svg PUBLIC "-//W3C//DTD SVG 1.1//EN" "http://www.w3.org/Graphics/SVG/1.1/DTD/svg11.dtd">
<svg xmlns="http://www.w3.org/2000/svg" xml:space="preserve" width="580px" height="580px" shape-rendering="geometricPrecision" text-rendering="geometricPrecision" image-rendering="optimizeQuality" fill-rule="nonzero" clip-rule="nonzero" viewBox="0 0 5800 5800" xmlns:xlink="http://www.w3.org/1999/xlink">
	<title>arrow_from icon</title>
	<desc>arrow_from icon from the IconExperience.com I-Collection. Copyright by INCORS GmbH (www.incors.com).</desc>
		<path id="curve28" d="M2900 3700c442,0 800,358 800,800 0,442 -358,800 -800,800 -442,0 -800,-358 -800,-800 0,-442 358,-800 800,-800zm0 200c-331,0 -600,269 -600,600 0,331 269,600 600,600 166,0 316,-67 424,-176 109,-108 176,-258 176,-424 0,-331 -269,-600 -600,-600zm-100 -400l0 -2559 -829 830 -142 -142 1071 -1070 1071 1070 -142 142 -829 -830 0 2559 -200 0z"/>
</svg>