<?xml version="1.0" encoding="UTF-8"?>
<!DOCTYPE svg PUBLIC "-//W3C//DTD SVG 1.1//EN" "http://www.w3.org/Graphics/SVG/1.1/DTD/svg11.dtd">
<svg xmlns="http://www.w3.org/2000/svg" xml:space="preserve" width="580px" height="580px" shape-rendering="geometricPrecision" text-rendering="geometricPrecision" image-rendering="optimizeQuality" fill-rule="nonzero" clip-rule="nonzero" viewBox="0 0 5800 5800" xmlns:xlink="http://www.w3.org/1999/xlink">
	<title>arrow_around icon</title>
	<desc>arrow_around icon from the IconExperience.com I-Collection. Copyright by INCORS GmbH (www.incors.com).</desc>
		<path id="curve29" d="M1829 1629l1071 -1070 1071 1070 -142 142 -829 -830 0 963c621,51 1100,572 1100,1196 0,624 -479,1145 -1100,1196l0 1004 -200 0 0 -1100c0,-55 45,-100 100,-100 552,0 1000,-448 1000,-1000 0,-552 -448,-1000 -1000,-1000 -55,0 -100,-45 -100,-100l0 -1059 -829 830 -142 -142z"/>
	<path id="curve28" d="M2900 2300c442,0 800,358 800,800 0,442 -358,800 -800,800 -442,0 -800,-358 -800,-800 0,-442 358,-800 800,-800zm0 200c-331,0 -600,269 -600,600 0,331 269,600 600,600 331,0 600,-269 600,-600 0,-331 -269,-600 -600,-600z"/>
</svg>