<?xml version="1.0" encoding="UTF-8"?>
<!DOCTYPE svg PUBLIC "-//W3C//DTD SVG 1.1//EN" "http://www.w3.org/Graphics/SVG/1.1/DTD/svg11.dtd">
<svg xmlns="http://www.w3.org/2000/svg" xml:space="preserve" width="580px" height="580px" shape-rendering="geometricPrecision" text-rendering="geometricPrecision" image-rendering="optimizeQuality" fill-rule="nonzero" clip-rule="nonzero" viewBox="0 0 5800 5800" xmlns:xlink="http://www.w3.org/1999/xlink">
	<title>arrow_fork icon</title>
	<desc>arrow_fork icon from the IconExperience.com I-Collection. Copyright by INCORS GmbH (www.incors.com).</desc>
		<path id="curve28"  d="M4859 1700l-1059 0c-370,0 -662,264 -801,590 -111,260 -295,485 -550,610 255,125 439,350 550,610 139,326 432,590 801,590l1059 0 -830 -829 142 -142 1070 1071 -1070 1071 -142 -142 830 -829 -1059 0c-449,0 -814,-312 -985,-712 -143,-335 -422,-588 -801,-588l-1714 0 0 -200 1714 0c379,0 658,-253 801,-588 171,-400 536,-712 985,-712l1059 0 -830 -829 142 -142 1070 1071 -1070 1071 -142 -142 830 -829z"/>
</svg>