<?xml version="1.0" encoding="UTF-8"?>
<!DOCTYPE svg PUBLIC "-//W3C//DTD SVG 1.1//EN" "http://www.w3.org/Graphics/SVG/1.1/DTD/svg11.dtd">
<svg xmlns="http://www.w3.org/2000/svg" xml:space="preserve" width="580px" height="580px" shape-rendering="geometricPrecision" text-rendering="geometricPrecision" image-rendering="optimizeQuality" fill-rule="nonzero" clip-rule="nonzero" viewBox="0 0 5800 5800" xmlns:xlink="http://www.w3.org/1999/xlink">
	<title>arrow_squiggly icon</title>
	<desc>arrow_squiggly icon from the IconExperience.com I-Collection. Copyright by INCORS GmbH (www.incors.com).</desc>
		<path id="curve28" d="M1629 1729l1271 -1270 1271 1270 -142 142 -1029 -1030 0 659c0,294 139,458 264,605 124,146 236,279 236,495 0,294 -267,534 -533,774 -234,210 -467,420 -467,626 0,143 90,249 188,366 148,174 312,367 312,734l0 200 -200 0 0 -200c0,-294 -139,-458 -264,-605 -124,-146 -236,-279 -236,-495 0,-294 267,-534 533,-774 234,-210 467,-420 467,-626 0,-143 -90,-249 -188,-366 -148,-174 -312,-367 -312,-734l0 -659 -1029 1030 -142 -142z"/>
</svg>