<?xml version="1.0" encoding="UTF-8"?>
<!DOCTYPE svg PUBLIC "-//W3C//DTD SVG 1.1//EN" "http://www.w3.org/Graphics/SVG/1.1/DTD/svg11.dtd">
<svg xmlns="http://www.w3.org/2000/svg" xml:space="preserve" width="580px" height="580px" shape-rendering="geometricPrecision" text-rendering="geometricPrecision" image-rendering="optimizeQuality" fill-rule="nonzero" clip-rule="nonzero" viewBox="0 0 5800 5800" xmlns:xlink="http://www.w3.org/1999/xlink">
	<title>arrow_loop icon</title>
	<desc>arrow_loop icon from the IconExperience.com I-Collection. Copyright by INCORS GmbH (www.incors.com).</desc>
		<path id="curve28"  d="M4371 2329l1070 1071 -1070 1071 -142 -142 830 -829 -1766 0c89,-56 172,-124 245,-200l1521 0 -830 -829 142 -142zm-3871 971l2100 0c249,0 474,-101 636,-264 163,-162 264,-387 264,-636 0,-497 -403,-900 -900,-900 -497,0 -900,403 -900,900 0,273 123,529 334,700l-283 0c-157,-190 -251,-434 -251,-700 0,-607 493,-1100 1100,-1100 608,0 1100,493 1100,1100 0,304 -123,579 -322,778 -199,199 -474,322 -778,322l-2100 0 0 -200z"/>
</svg>