<?xml version="1.0" encoding="UTF-8"?>
<!DOCTYPE svg PUBLIC "-//W3C//DTD SVG 1.1//EN" "http://www.w3.org/Graphics/SVG/1.1/DTD/svg11.dtd">
<svg xmlns="http://www.w3.org/2000/svg" xml:space="preserve" width="580px" height="580px" shape-rendering="geometricPrecision" text-rendering="geometricPrecision" image-rendering="optimizeQuality" fill-rule="nonzero" clip-rule="nonzero" viewBox="0 0 5800 5800" xmlns:xlink="http://www.w3.org/1999/xlink">
	<title>arrow_loop2 icon</title>
	<desc>arrow_loop2 icon from the IconExperience.com I-Collection. Copyright by INCORS GmbH (www.incors.com).</desc>
		<path id="curve28"  d="M3871 471l-1030 1029 1059 0c881,0 1600,719 1600,1600 0,881 -719,1600 -1600,1600l-2000 0c-881,0 -1600,-719 -1600,-1600 0,-881 719,-1600 1600,-1600l385 0c-35,62 -35,138 0,200l-385 0c-771,0 -1400,629 -1400,1400 0,771 629,1400 1400,1400l2000 0c771,0 1400,-629 1400,-1400 0,-771 -629,-1400 -1400,-1400l-1059 0 1030 1029 -142 142 -1270 -1271 1270 -1271 142 142z"/>
</svg>