<?xml version="1.0" encoding="UTF-8"?>
<!DOCTYPE svg PUBLIC "-//W3C//DTD SVG 1.1//EN" "http://www.w3.org/Graphics/SVG/1.1/DTD/svg11.dtd">
<svg xmlns="http://www.w3.org/2000/svg" xml:space="preserve" width="580px" height="580px" shape-rendering="geometricPrecision" text-rendering="geometricPrecision" image-rendering="optimizeQuality" fill-rule="nonzero" clip-rule="nonzero" viewBox="0 0 5800 5800" xmlns:xlink="http://www.w3.org/1999/xlink">
	<title>arrow_merge icon</title>
	<desc>arrow_merge icon from the IconExperience.com I-Collection. Copyright by INCORS GmbH (www.incors.com).</desc>
		<path id="curve28"  d="M500 1600l1200 0c452,0 868,258 1071,661 141,278 404,439 715,439l1231 0 -658 -659 282 -282 1000 1000 142 141 -142 141 -1000 1000 -282 -282 658 -659 -1231 0c-311,0 -574,161 -715,439 -203,403 -619,661 -1071,661l-1200 0 0 -400 1200 0c303,0 578,-170 715,-441 97,-192 235,-347 401,-459 -166,-112 -304,-267 -401,-459 -137,-271 -411,-441 -715,-441l-1200 0 0 -400z"/>
</svg>