<?xml version="1.0" encoding="UTF-8"?>
<!DOCTYPE svg PUBLIC "-//W3C//DTD SVG 1.1//EN" "http://www.w3.org/Graphics/SVG/1.1/DTD/svg11.dtd">
<svg xmlns="http://www.w3.org/2000/svg" xml:space="preserve" width="580px" height="580px" shape-rendering="geometricPrecision" text-rendering="geometricPrecision" image-rendering="optimizeQuality" fill-rule="nonzero" clip-rule="nonzero" viewBox="0 0 5800 5800" xmlns:xlink="http://www.w3.org/1999/xlink">
	<title>arrow_cross icon</title>
	<desc>arrow_cross icon from the IconExperience.com I-Collection. Copyright by INCORS GmbH (www.incors.com).</desc>
		<path id="curve28"  d="M2700,4867 2700,3100 933,3100 1391,3559 1109,3841 167,2900 1109,1959 1391,2241 933,2700 2700,2700 2700,933 2241,1391 1959,1109 2900,167 3841,1109 3559,1391 3100,933 3100,2700 4867,2700 4409,2241 4691,1959 5633,2900 4691,3841 4409,3559 4867,3100 3100,3100 3100,4867 3559,4409 3841,4691 2900,5633 1959,4691 2241,4409z"/>
</svg>