<?xml version="1.0" encoding="UTF-8"?>
<!DOCTYPE svg PUBLIC "-//W3C//DTD SVG 1.1//EN" "http://www.w3.org/Graphics/SVG/1.1/DTD/svg11.dtd">
<svg xmlns="http://www.w3.org/2000/svg" xml:space="preserve" width="580px" height="580px" shape-rendering="geometricPrecision" text-rendering="geometricPrecision" image-rendering="optimizeQuality" fill-rule="nonzero" clip-rule="nonzero" viewBox="0 0 5800 5800" xmlns:xlink="http://www.w3.org/1999/xlink">
	<title>arrow_mix icon</title>
	<desc>arrow_mix icon from the IconExperience.com I-Collection. Copyright by INCORS GmbH (www.incors.com).</desc>
		<path id="curve28" d="M4571 529l1070 1071 -1070 1071 -142 -142 830 -829 -991 0c-441,0 -814,239 -999,639l-149 323 -110 -238 78 -169c216,-469 663,-755 1180,-755l991 0 -830 -829 142 -142zm-1781 2847l-78 169c-216,469 -663,755 -1180,755l-991 0 830 829 -142 142 -1070 -1071 1070 -1071 142 142 -830 829 991 0c441,0 814,-239 999,-639l149 -323 110 238zm1781 -247l1070 1071 -1070 1071 -142 -142 830 -829 -991 0c-517,0 -964,-286 -1180,-755l-557 -1206c-185,-400 -558,-639 -999,-639l-991 0 830 829 -142 142 -1070 -1071 1070 -1071 142 142 -830 829 991 0c517,0 964,286 1180,755l557 1206c185,400 558,639 999,639l991 0 -830 -829 142 -142z"/>
</svg>