<?xml version="1.0" encoding="UTF-8"?>
<!DOCTYPE svg PUBLIC "-//W3C//DTD SVG 1.1//EN" "http://www.w3.org/Graphics/SVG/1.1/DTD/svg11.dtd">
<svg xmlns="http://www.w3.org/2000/svg" xml:space="preserve" width="580px" height="580px" shape-rendering="geometricPrecision" text-rendering="geometricPrecision" image-rendering="optimizeQuality" fill-rule="nonzero" clip-rule="nonzero" viewBox="0 0 5800 5800" xmlns:xlink="http://www.w3.org/1999/xlink">
	<title>arrow_mix icon</title>
	<desc>arrow_mix icon from the IconExperience.com I-Collection. Copyright by INCORS GmbH (www.incors.com).</desc>
		<path id="curve29"  d="M4641 459l1142 1141 -1142 1141 -282 -282 658 -659 -749 0c-403,0 -740,215 -909,581l-129 280 -220 -476c238,-488 714,-785 1258,-785l749 0 -658 -659 282 -282zm-1851 3156c-238,488 -714,785 -1258,785l-749 0 658 659 -282 282 -1142 -1141 1142 -1141 282 282 -658 659 749 0c403,0 740,-215 908,-581l130 -280 220 476z"/>
	<path id="curve28"  d="M4641 3059l1142 1141 -1142 1141 -282 -282 658 -659 -749 0c-556,0 -1038,-309 -1271,-814l-556 -1205c-169,-366 -506,-581 -909,-581l-749 0 658 659 -282 282 -1142 -1141 1142 -1141 282 282 -658 659 749 0c556,0 1038,309 1271,814l557 1205c168,366 505,581 908,581l749 0 -658 -659 282 -282z"/>
</svg>