<?xml version="1.0" encoding="UTF-8"?>
<!DOCTYPE svg PUBLIC "-//W3C//DTD SVG 1.1//EN" "http://www.w3.org/Graphics/SVG/1.1/DTD/svg11.dtd">
<svg xmlns="http://www.w3.org/2000/svg" xml:space="preserve" width="580px" height="580px" shape-rendering="geometricPrecision" text-rendering="geometricPrecision" image-rendering="optimizeQuality" fill-rule="nonzero" clip-rule="nonzero" viewBox="0 0 5800 5800" xmlns:xlink="http://www.w3.org/1999/xlink">
	<title>arrow_over icon</title>
	<desc>arrow_over icon from the IconExperience.com I-Collection. Copyright by INCORS GmbH (www.incors.com).</desc>
		<path id="curve28" d="M2934 2701c97,9 184,52 248,117 25,25 47,53 65,83l-2360 0 0 399 2359 0c-18,30 -39,58 -64,82 -72,73 -172,118 -282,118l-2214 0 0 -799 2248 0zm883 0l1283 0 0 799 -1284 0c28,-64 50,-130 64,-200l1020 0 0 -399 -1020 0c-14,-69 -35,-136 -63,-200zm-1988 -1172l1071 -1070 1071 1070 -142 142 -829 -830 0 1465c398,50 700,392 700,794 0,402 -302,744 -700,794l0 1206 -200 0 0 -1400 100 0c330,0 600,-270 600,-600 0,-330 -270,-600 -600,-600l-100 0 0 -1659 -829 830 -142 -142z"/>
</svg>