<?xml version="1.0" encoding="UTF-8"?>
<!DOCTYPE svg PUBLIC "-//W3C//DTD SVG 1.1//EN" "http://www.w3.org/Graphics/SVG/1.1/DTD/svg11.dtd">
<svg xmlns="http://www.w3.org/2000/svg" xml:space="preserve" width="580px" height="580px" shape-rendering="geometricPrecision" text-rendering="geometricPrecision" image-rendering="optimizeQuality" fill-rule="nonzero" clip-rule="nonzero" viewBox="0 0 5800 5800" xmlns:xlink="http://www.w3.org/1999/xlink">
	<title>arrow_fork2 icon</title>
	<desc>arrow_fork2 icon from the IconExperience.com I-Collection. Copyright by INCORS GmbH (www.incors.com).</desc>
		<path id="curve28"  d="M1599 3082l1 66c0,391 286,697 630,843 182,78 340,181 470,303l0 -3411 -459 458 -282 -282 941 -942 941 942 -282 282 -459 -458 0 2541c130,-122 288,-225 470,-303 344,-146 630,-452 630,-842l0 -96 -459 458 -282 -282 941 -942 941 942 -282 282 -459 -458 0 96c0,552 -381,1000 -873,1210 -341,145 -611,420 -627,805 0,408 0,802 0,1206l-400 0 1 -300c0,-402 -274,-691 -628,-842 -492,-209 -873,-657 -873,-1210l1 -66 -460 459 -282 -282 941 -942 941 942 -282 282 -460 -459z"/>
</svg>