<?xml version="1.0" encoding="UTF-8"?>
<!DOCTYPE svg PUBLIC "-//W3C//DTD SVG 1.1//EN" "http://www.w3.org/Graphics/SVG/1.1/DTD/svg11.dtd">
<svg xmlns="http://www.w3.org/2000/svg" xml:space="preserve" width="580px" height="580px" shape-rendering="geometricPrecision" text-rendering="geometricPrecision" image-rendering="optimizeQuality" fill-rule="nonzero" clip-rule="nonzero" viewBox="0 0 5800 5800" xmlns:xlink="http://www.w3.org/1999/xlink">
	<title>ashtray_cigarette icon</title>
	<desc>ashtray_cigarette icon from the IconExperience.com I-Collection. Copyright by INCORS GmbH (www.incors.com).</desc>
	<path id="curve0" d="M2009 2811l400 693 -172 100 -400 -693 172 -100zm-261 345l192 333c-97,15 -188,33 -270,54 -133,34 -245,74 -327,120 -66,36 -173,100 -105,180 36,42 100,83 190,122 169,73 370,114 551,140 186,27 396,42 620,42 225,0 434,-15 620,-42 193,-27 361,-68 493,-117 82,-30 193,-80 248,-145 69,-81 -39,-144 -104,-180 -82,-46 -195,-86 -327,-119 -128,-33 -275,-59 -434,-77 -63,-7 -128,-12 -195,-17l510 -294 833 0 657 1219 0 1125 -4600 0 0 -1125 657 -1219 791 0zm-48 -2056c0,120 125,192 250,263 175,101 350,201 350,437 0,127 -36,204 -79,296 -9,19 -18,38 -27,58 35,-28 71,-55 107,-82 163,-122 325,-245 325,-479 0,-211 -197,-337 -406,-472 -287,-184 -594,-380 -594,-821l200 0c0,332 259,498 501,653 257,165 499,320 499,640 0,333 -203,486 -405,638 -106,80 -212,160 -272,270l-248 144c7,-351 80,-508 139,-633 33,-70 60,-127 60,-212 0,-120 -125,-192 -250,-263 -175,-101 -350,-201 -350,-437l200 0zm1902 2256c137,36 257,81 351,133 185,103 326,287 159,483 -81,96 -214,160 -331,204 -145,53 -326,97 -534,127 -196,28 -415,44 -648,44 -232,0 -452,-16 -648,-44 -199,-29 -416,-74 -602,-154 -118,-51 -208,-112 -263,-177 -167,-196 -24,-381 160,-483 94,-52 213,-97 350,-133l-521 0 -575 1069 0 875 4200 0 0 -875 -575 -1069 -523 0zm1612 -2394c133,230 266,461 399,692l-2857 1649 -400 -692 2858 -1649zm-73 272l-694 400 201 347 693 -400 -200 -347zm-866 500l-1646 950 200 347 1646 -950 -200 -347zm-2006 928l400 692 -173 100 -400 -693 173 -99z"/>
</svg>