<?xml version="1.0" encoding="UTF-8"?>
<!DOCTYPE svg PUBLIC "-//W3C//DTD SVG 1.1//EN" "http://www.w3.org/Graphics/SVG/1.1/DTD/svg11.dtd">
<svg xmlns="http://www.w3.org/2000/svg" xml:space="preserve" width="580px" height="580px" shape-rendering="geometricPrecision" text-rendering="geometricPrecision" image-rendering="optimizeQuality" fill-rule="nonzero" clip-rule="nonzero" viewBox="0 0 5800 5800" xmlns:xlink="http://www.w3.org/1999/xlink">
	<title>ashtray_cigarette icon</title>
	<desc>ashtray_cigarette icon from the IconExperience.com I-Collection. Copyright by INCORS GmbH (www.incors.com).</desc>
	<path id="curve0"  d="M2009 2811l400 693 -172 100 -400 -693 172 -100zm2166 -1250l400 692 -1819 1050 -400 -692 1819 -1050zm173 -100l866 -499c133,230 266,461 399,692l-866 500 -399 -693zm-2648 -361c0,120 125,192 250,263 175,101 350,201 350,437 0,127 -36,204 -79,296 -9,19 -18,38 -27,58 35,-28 71,-55 107,-82 163,-122 325,-245 325,-479 0,-211 -197,-337 -406,-472 -287,-184 -594,-380 -594,-821l200 0c0,332 259,498 501,653 257,165 499,320 499,640 0,333 -203,486 -405,638 -106,80 -212,160 -272,270l-248 144c7,-351 80,-508 139,-633 33,-70 60,-127 60,-212 0,-120 -125,-192 -250,-263 -175,-101 -350,-201 -350,-437l200 0zm48 2056l85 148c-194,35 -416,89 -587,185 -187,103 -325,289 -160,483 176,207 621,296 865,331 196,28 416,44 648,44 233,0 452,-16 648,-44 243,-35 689,-124 865,-331 167,-196 26,-380 -159,-483 -214,-119 -514,-179 -756,-210l213 -123 833 0 657 1219 0 1125 -4600 0 0 -1125 657 -1219 791 0zm521 -494l400 692 -173 100 -400 -693 173 -99z"/>
</svg>