<?xml version="1.0" encoding="UTF-8"?>
<!DOCTYPE svg PUBLIC "-//W3C//DTD SVG 1.1//EN" "http://www.w3.org/Graphics/SVG/1.1/DTD/svg11.dtd">
<svg xmlns="http://www.w3.org/2000/svg" xml:space="preserve" width="580px" height="580px" shape-rendering="geometricPrecision" text-rendering="geometricPrecision" image-rendering="optimizeQuality" fill-rule="nonzero" clip-rule="nonzero" viewBox="0 0 5800 5800" xmlns:xlink="http://www.w3.org/1999/xlink">
	<title>astronaut icon</title>
	<desc>astronaut icon from the IconExperience.com I-Collection. Copyright by INCORS GmbH (www.incors.com).</desc>
		<path id="curve29"  d="M4779 1312c42,27 81,58 116,93 126,127 205,302 205,495l0 1653c-143,-125 -316,-213 -500,-277 207,-353 300,-791 300,-1176 0,-290 -41,-554 -121,-788zm-3579 1964c-184,64 -357,152 -500,277l0 -1653c0,-193 79,-368 205,-495 35,-35 74,-66 116,-93 -80,234 -121,498 -121,788 0,385 93,823 300,1176z"/>
	<path id="curve28"  d="M4606 5291c-208,63 -451,111 -706,145l0 -1036c0,-50 -12,-96 -34,-138 64,-126 159,-386 242,-474 153,-101 274,-212 375,-340 331,106 531,256 652,449 137,221 165,486 165,803 0,274 -283,466 -694,591zm-206 -3011c0,-453 -99,-748 -346,-935 -239,-180 -607,-245 -1154,-245 -547,0 -915,65 -1154,245 -247,187 -346,482 -346,935 0,863 666,1420 1500,1420 834,0 1500,-557 1500,-1420zm-1200 -780c55,0 100,45 100,100 0,55 -45,100 -100,100 -55,0 -100,-45 -100,-100 0,-55 45,-100 100,-100zm1000 758c-53,-69 -128,-148 -223,-148 -96,0 -108,100 -215,100 -95,0 -111,-90 -216,-100 -94,-9 -212,100 -323,100 -108,0 -215,100 -323,100 -201,0 -108,-100 -215,-100 -108,0 -63,-100 -216,-100 -107,0 -164,100 -323,100 -107,0 -169,-100 -323,-100 -95,0 -170,79 -223,148 -3,764 558,1242 1300,1242 743,0 1303,-478 1300,-1242zm331 709c-123,287 -299,498 -476,616 -179,96 -257,359 -343,539 -34,-14 -72,-22 -112,-22l-1400 0c-52,0 -101,13 -144,37 -75,-143 -199,-478 -311,-554 -177,-118 -353,-329 -476,-616 -103,-239 -169,-531 -169,-867 0,-1135 671,-1800 1800,-1800 1129,0 1800,665 1800,1800 0,336 -66,628 -169,867zm-831 2492c-269,28 -544,41 -800,41 -256,0 -531,-13 -800,-41l0 -1059c0,-55 45,-100 100,-100l1400 0c55,0 100,45 100,100l0 1059zm-1800 -23c-255,-34 -498,-82 -706,-145 -411,-125 -694,-317 -694,-591 0,-317 28,-582 165,-803 121,-193 321,-343 653,-449 90,117 196,222 316,302 37,24 235,466 283,550 -11,32 -17,65 -17,100l0 1036z"/>
</svg>