<?xml version="1.0" encoding="UTF-8"?>
<!DOCTYPE svg PUBLIC "-//W3C//DTD SVG 1.1//EN" "http://www.w3.org/Graphics/SVG/1.1/DTD/svg11.dtd">
<svg xmlns="http://www.w3.org/2000/svg" xml:space="preserve" width="580px" height="580px" shape-rendering="geometricPrecision" text-rendering="geometricPrecision" image-rendering="optimizeQuality" fill-rule="nonzero" clip-rule="nonzero" viewBox="0 0 5800 5800" xmlns:xlink="http://www.w3.org/1999/xlink">
	<title>astrologer icon</title>
	<desc>astrologer icon from the IconExperience.com I-Collection. Copyright by INCORS GmbH (www.incors.com).</desc>
		<path id="curve28"  d="M2800 3300l200 0c153,0 200,31 200,147 0,24 -21,44 -53,51 -50,10 -444,10 -494,0 -32,-7 -53,-27 -53,-51 0,-116 47,-147 200,-147zm179 -3061c84,106 178,238 272,385l-24 74 -327 -1 265 192 -102 311 265 -193 245 179c46,89 90,180 131,270 173,380 296,761 296,1044 0,55 -45,100 -100,100 -28,0 -53,-11 -71,-30 -103,-101 -769,-170 -929,-170 -262,0 -723,73 -955,189 -50,25 -109,5 -134,-44 -7,-15 -11,-30 -11,-45l0 0c0,-263 106,-610 260,-963l14 245 176 -276 317 84 -209 -253 178 -275 -305 120 -1 -2c189,-368 411,-715 592,-942 35,-43 97,-50 140,-16 6,5 12,11 17,17zm-279 2861c-353,0 -500,275 -500,410 0,129 390,1090 700,1090 310,0 700,-961 700,-1090 0,-135 -147,-410 -500,-410l-400 0zm373 -1600l-150 291 -323 -53 231 232 -151 291 292 -148 230 233 -50 -323 293 -147 -323 -52 -49 -324zm-1265 1177c55,28 122,31 181,1 220,-109 665,-178 911,-178 152,0 737,61 861,144 38,36 87,56 139,56 33,0 64,-8 92,-22 -1,132 -51,273 -162,352 -48,188 -110,454 -229,606 1,36 4,73 9,107 -6,36 -46,290 -45,294 37,205 -57,265 -194,352 -142,90 -323,205 -471,494 -148,-289 -329,-404 -471,-494 -137,-87 -231,-147 -194,-352 5,-27 -37,-249 -45,-293 6,-35 9,-72 10,-108 -118,-150 -182,-420 -230,-606 -111,-79 -161,-220 -162,-353zm1877 1225c6,5 13,10 20,14 27,14 55,35 82,52 168,105 298,187 440,328 90,89 159,200 206,320 49,126 74,262 74,391 0,193 -195,312 -466,383 -72,19 -150,35 -231,49l-3 -16 293 -147 -323 -52 -49 -324 -150 291 -323 -53 231 232 -59 114c-172,13 -340,19 -477,20l0 -494c142,-325 330,-445 475,-537 168,-107 285,-181 239,-445l21 -126zm-835 1602c-306,-2 -761,-27 -1091,-114 -271,-71 -466,-190 -466,-383 0,-129 25,-265 75,-391 46,-120 115,-231 205,-320 142,-141 272,-223 440,-328 11,-7 75,-48 75,-48 10,-5 18,-11 27,-18l21 126c-46,264 71,338 239,445 73,46 156,99 239,182l-300 72 -170 -280 -25 326 -319 75 302 126 -27 326 213 -249 302 127 -171 -280 203 -235c80,81 159,190 228,347l0 494z"/>
</svg>