<?xml version="1.0" encoding="UTF-8"?>
<!DOCTYPE svg PUBLIC "-//W3C//DTD SVG 1.1//EN" "http://www.w3.org/Graphics/SVG/1.1/DTD/svg11.dtd">
<svg xmlns="http://www.w3.org/2000/svg" xml:space="preserve" width="580px" height="580px" shape-rendering="geometricPrecision" text-rendering="geometricPrecision" image-rendering="optimizeQuality" fill-rule="nonzero" clip-rule="nonzero" viewBox="0 0 5800 5800" xmlns:xlink="http://www.w3.org/1999/xlink">
	<title>astronaut icon</title>
	<desc>astronaut icon from the IconExperience.com I-Collection. Copyright by INCORS GmbH (www.incors.com).</desc>
		<path id="curve28" d="M4400 2280c0,356 -136,751 -437,1035 -244,230 -593,385 -1063,385 -470,0 -819,-155 -1063,-385 -301,-284 -437,-679 -437,-1035 0,-453 99,-748 346,-935 239,-180 607,-245 1154,-245 547,0 915,65 1154,245 247,187 346,482 346,935zm-1200 -780c-55,0 -100,45 -100,100 0,55 45,100 100,100 55,0 100,-45 100,-100 0,-55 -45,-100 -100,-100zm500 3759l0 -859c0,-55 -45,-100 -100,-100l-1400 0c-55,0 -100,45 -100,100l0 859c529,56 1071,56 1600,0zm246 -1843c396,-266 554,-864 554,-1316 0,-1023 -583,-1600 -1600,-1600 -1017,0 -1600,577 -1600,1600 0,452 158,1052 555,1317 134,89 216,281 280,423 39,85 79,175 129,260l1236 0c33,-62 62,-127 90,-191 91,-205 176,-398 356,-493zm-1891 721c-37,-72 -70,-145 -102,-215 -53,-116 -111,-272 -220,-347 -75,7 -146,15 -215,24 -368,92 -573,227 -683,404 -113,179 -135,414 -135,697 0,168 225,301 552,400 190,58 413,103 648,135l0 -835c0,-110 61,-210 155,-263zm1845 1098c235,-32 458,-77 648,-135 327,-99 552,-232 552,-400 0,-283 -22,-518 -135,-697 -110,-177 -315,-312 -683,-404 -66,-9 -179,-39 -237,-10 -122,61 -195,225 -273,401 -19,44 -39,88 -59,132 112,46 187,156 187,278l0 835zm366 -1840c18,2 41,4 58,8 249,62 436,144 576,246l0 -1749c0,-138 -56,-263 -147,-353 -41,-42 -90,-76 -144,-101 67,223 91,451 91,654 0,454 -129,948 -434,1295zm255 -2184c145,25 274,95 374,194 126,127 205,302 205,495l0 1946c12,17 24,34 35,51 137,221 165,486 165,803 0,274 -283,466 -694,591 -231,70 -504,121 -789,155 -462,69 -1380,80 -1836,0 -284,-34 -557,-85 -787,-155 -411,-125 -694,-317 -694,-591 0,-317 28,-582 165,-803 11,-17 23,-34 35,-51l0 -1946c0,-339 246,-631 579,-689 301,-661 917,-911 1621,-911 704,0 1320,250 1621,911zm-3330 235c-176,82 -291,259 -291,454l0 1749c139,-101 324,-183 571,-245 18,-5 44,-7 63,-9 -305,-347 -434,-841 -434,-1295 0,-203 24,-431 91,-654zm3009 812c-53,-69 -128,-148 -223,-148 -96,0 -108,100 -215,100 -95,0 -111,-90 -216,-100 -94,-9 -212,100 -323,100 -108,0 -215,100 -323,100 -201,0 -108,-100 -215,-100 -108,0 -63,-100 -216,-100 -107,0 -164,100 -323,100 -107,0 -169,-100 -323,-100 -95,0 -170,79 -223,148 -1,343 122,674 374,912 209,197 513,330 926,330 413,0 717,-133 926,-330 252,-238 375,-570 374,-912z"/>
</svg>