<?xml version="1.0" encoding="UTF-8"?>
<!DOCTYPE svg PUBLIC "-//W3C//DTD SVG 1.1//EN" "http://www.w3.org/Graphics/SVG/1.1/DTD/svg11.dtd">
<svg xmlns="http://www.w3.org/2000/svg" xml:space="preserve" width="580px" height="580px" shape-rendering="geometricPrecision" text-rendering="geometricPrecision" image-rendering="optimizeQuality" fill-rule="nonzero" clip-rule="nonzero" viewBox="0 0 5800 5800" xmlns:xlink="http://www.w3.org/1999/xlink">
	<title>astrologer icon</title>
	<desc>astrologer icon from the IconExperience.com I-Collection. Copyright by INCORS GmbH (www.incors.com).</desc>
		<path id="curve28" d="M2979 239c84,106 178,238 272,385l-24 74 -327 -1 265 192 -102 311 265 -193 245 179c46,89 90,180 131,270 173,380 296,761 296,1044 0,23 -7,43 -20,60 35,165 -7,368 -150,470l-8 31c-45,176 -110,433 -221,575 2,57 7,115 21,164 17,57 40,89 90,120 70,45 71,45 75,48 168,105 298,187 440,328 90,89 159,200 206,320 49,126 74,262 74,391 0,193 -195,312 -466,383 -72,19 -150,35 -231,49l-3 -16 293 -147 -323 -52 -49 -324 -150 291 -323 -53 231 232 -59 114c-194,15 -382,20 -527,20 -304,0 -793,-22 -1141,-114 -271,-71 -466,-190 -466,-383 0,-129 25,-265 75,-391 46,-120 115,-231 205,-320 142,-141 272,-223 440,-328 26,-17 52,-34 78,-50 45,-26 71,-69 87,-119 15,-50 20,-107 22,-163 -118,-150 -182,-420 -230,-606 -143,-102 -185,-306 -150,-470 -6,-9 -20,-60 -20,-60 0,-263 106,-610 260,-963l14 245 176 -276 317 84 -209 -253 178 -275 -305 120 -1 -2c189,-368 411,-715 592,-942 41,-51 118,-49 157,1zm-835 4208l-25 326 -319 75 302 126 -27 326 213 -249 302 127 -171 -280 214 -248 -319 77 -170 -280zm656 -1147c-153,0 -200,31 -200,147 0,24 21,44 53,51 50,10 444,10 494,0 32,-7 53,-27 53,-51 0,-116 -47,-147 -200,-147l-200 0zm-100 -200l400 0c224,0 365,110 438,226 37,-103 67,-221 90,-313 6,-22 11,-43 19,-72 7,-29 27,-52 53,-65 107,-56 109,-245 63,-340 -227,-86 -624,-136 -863,-136 -264,0 -621,61 -871,153 -37,94 -31,272 73,324 26,14 44,37 51,64 0,0 15,58 18,66 23,94 54,214 91,318 74,-115 215,-225 438,-225zm755 822c-141,311 -364,678 -555,678 -192,0 -414,-368 -556,-679 -41,87 -88,129 -167,179 -22,381 440,239 723,900 283,-661 745,-519 723,-900 -78,-49 -128,-92 -168,-178zm-382 -2422l-150 291 -323 -53 231 232 -151 291 292 -148 230 233 -50 -323 293 -147 -323 -52 -49 -324z"/>
</svg>