<?xml version="1.0" encoding="UTF-8"?>
<!DOCTYPE svg PUBLIC "-//W3C//DTD SVG 1.1//EN" "http://www.w3.org/Graphics/SVG/1.1/DTD/svg11.dtd">
<svg xmlns="http://www.w3.org/2000/svg" xml:space="preserve" width="580px" height="580px" shape-rendering="geometricPrecision" text-rendering="geometricPrecision" image-rendering="optimizeQuality" fill-rule="nonzero" clip-rule="nonzero" viewBox="0 0 5800 5800" xmlns:xlink="http://www.w3.org/1999/xlink">
	<title>athlete icon</title>
	<desc>athlete icon from the IconExperience.com I-Collection. Copyright by INCORS GmbH (www.incors.com).</desc>
		<path id="curve28"  d="M2005 2306c50,187 94,352 266,523 19,20 29,45 29,71 0,54 0,155 -28,275 -28,123 -86,260 -201,376 -45,45 -108,85 -182,123 201,303 213,1026 1011,1026 798,0 810,-723 1011,-1026 -74,-38 -137,-78 -182,-123 -115,-116 -173,-253 -201,-376 -16,5 -28,-247 -28,-275 0,-28 12,-53 30,-71 171,-172 216,-339 265,-524 12,-43 19,-77 66,-97 57,-31 88,-100 98,-179 12,-95 -6,-200 -47,-283 -11,-21 -14,-42 -10,-66 14,-67 21,-142 21,-219 0,-191 -46,-399 -162,-571 -196,-293 -526,-390 -861,-390 -335,0 -665,97 -861,390 -116,172 -162,380 -162,571 0,77 7,152 21,219 5,25 0,50 -11,70 -40,82 -57,186 -46,279 10,81 43,151 103,181 43,22 50,54 61,96zm-1022 1849c-73,110 -119,229 -146,351 -28,126 -37,259 -37,394 0,105 211,190 500,255 98,22 203,41 313,58 67,-504 -3,-1068 -209,-1333 -180,78 -348,165 -421,275zm3841 8c-80,-118 -248,-205 -428,-283 -206,265 -276,829 -209,1333 110,-17 215,-36 313,-58 289,-65 500,-150 500,-255 3,-242 9,-555 -176,-737zm-1102 -1033c22,92 64,195 149,279 71,71 236,138 415,210 265,107 556,224 691,417 234,234 219,559 223,864 0,223 -277,364 -657,450 -522,119 -1257,150 -1643,150 -386,0 -1121,-31 -1643,-150 -380,-86 -657,-227 -657,-450 0,-146 11,-293 42,-437 33,-146 87,-287 175,-418 132,-199 428,-318 697,-426 179,-72 344,-139 415,-210 85,-84 127,-187 149,-279 17,-73 21,-141 22,-190 -182,-194 -232,-373 -286,-575 -101,-69 -155,-184 -171,-312 -15,-120 5,-254 53,-366 -12,-71 -19,-147 -19,-226 0,-226 56,-473 196,-682 235,-352 622,-479 1027,-479 405,0 792,127 1027,479 140,209 196,456 196,682 0,79 -7,155 -19,226 48,112 68,245 53,366 -15,127 -70,243 -171,312 -53,199 -104,381 -286,575 1,49 5,117 22,190z"/>
</svg>