<?xml version="1.0" encoding="UTF-8"?>
<!DOCTYPE svg PUBLIC "-//W3C//DTD SVG 1.1//EN" "http://www.w3.org/Graphics/SVG/1.1/DTD/svg11.dtd">
<svg xmlns="http://www.w3.org/2000/svg" xml:space="preserve" width="580px" height="580px" shape-rendering="geometricPrecision" text-rendering="geometricPrecision" image-rendering="optimizeQuality" fill-rule="nonzero" clip-rule="nonzero" viewBox="0 0 5800 5800" xmlns:xlink="http://www.w3.org/1999/xlink">
	<title>athlete icon</title>
	<desc>athlete icon from the IconExperience.com I-Collection. Copyright by INCORS GmbH (www.incors.com).</desc>
		<path id="curve28"  d="M1404 3880c206,265 276,829 209,1332 421,63 863,88 1287,88 424,0 866,-25 1287,-88 -67,-503 3,-1067 209,-1332 -160,-69 -331,-126 -485,-206 -201,304 -214,1026 -1011,1026 -797,0 -810,-722 -1011,-1026 -154,80 -325,137 -485,206zm2318 -750c22,92 64,195 149,279 71,71 236,138 415,210 265,107 556,224 691,417 234,234 219,559 223,864 0,223 -277,364 -657,450 -522,119 -1257,150 -1643,150 -386,0 -1121,-31 -1643,-150 -380,-86 -657,-227 -657,-450 0,-146 11,-293 42,-437 33,-146 87,-287 175,-418 132,-199 428,-318 697,-426 179,-72 344,-139 415,-210 85,-84 127,-187 149,-279 17,-73 21,-141 22,-190 -182,-194 -232,-373 -286,-575 -208,-142 -209,-467 -118,-678 -12,-71 -19,-147 -19,-226 0,-226 56,-473 196,-682 235,-352 622,-479 1027,-479 405,0 792,127 1027,479 140,209 196,456 196,682 0,79 -7,155 -19,226 91,211 91,536 -118,678 -53,199 -104,381 -286,575 1,49 5,117 22,190z"/>
</svg>