<?xml version="1.0" encoding="UTF-8"?>
<!DOCTYPE svg PUBLIC "-//W3C//DTD SVG 1.1//EN" "http://www.w3.org/Graphics/SVG/1.1/DTD/svg11.dtd">
<svg xmlns="http://www.w3.org/2000/svg" xml:space="preserve" width="580px" height="580px" shape-rendering="geometricPrecision" text-rendering="geometricPrecision" image-rendering="optimizeQuality" fill-rule="nonzero" clip-rule="nonzero" viewBox="0 0 5800 5800" xmlns:xlink="http://www.w3.org/1999/xlink">
	<title>atm icon</title>
	<desc>atm icon from the IconExperience.com I-Collection. Copyright by INCORS GmbH (www.incors.com).</desc>
	<path id="curve0" d="M5100 2500c0,200 0,400 0,600l-800 0c0,-200 0,-400 0,-600l800 0zm-3600 -1600c0,200 0,400 0,600l-800 0c0,-200 0,-400 0,-600l800 0zm-200 200l-400 0 0 200 400 0 0 -200zm2800 -200l0 2200 -2400 0 0 -2200 2400 0zm-200 200l-2000 0 0 1800 2000 0 0 -1800zm-800 2200c0,133 0,267 0,400 -133,0 -267,0 -400,0 0,-133 0,-267 0,-400 133,0 267,0 400,0zm-600 0c0,133 0,267 0,400 -133,0 -267,0 -400,0 0,-133 0,-267 0,-400 133,0 267,0 400,0zm1200 0c0,133 0,267 0,400 -133,0 -267,0 -400,0 0,-133 0,-267 0,-400 133,0 267,0 400,0zm-600 600c0,133 0,267 0,400 -133,0 -267,0 -400,0 0,-133 0,-267 0,-400 133,0 267,0 400,0zm-600 0c0,133 0,267 0,400 -133,0 -267,0 -400,0 0,-133 0,-267 0,-400 133,0 267,0 400,0zm1200 0c0,133 0,267 0,400 -133,0 -267,0 -400,0 0,-133 0,-267 0,-400 133,0 267,0 400,0zm-600 600c0,133 0,267 0,400 -133,0 -267,0 -400,0 0,-133 0,-267 0,-400 133,0 267,0 400,0zm-600 0c0,133 0,267 0,400 -133,0 -267,0 -400,0 0,-133 0,-267 0,-400 133,0 267,0 400,0zm1200 0c0,133 0,267 0,400 -133,0 -267,0 -400,0 0,-133 0,-267 0,-400 133,0 267,0 400,0zm390 100l0 -800c0,-171 139,-310 310,-310 0,1 357,0 390,0 171,0 310,139 310,310l0 800c0,171 -139,310 -310,310l-390 0c-171,0 -310,-139 -310,-310zm200 -800l0 800c0,60 50,110 110,110l100 0 0 -1020 -100 0c-60,0 -110,50 -110,110zm410 910l90 0c60,0 110,-50 110,-110l0 -800c0,-60 -50,-110 -110,-110l-90 0 0 1020zm800 -4210l0 100 0 4700 -5200 0 0 -4800 5200 0zm-200 200l-4800 0 0 4400 4800 0 0 -4400zm-3800 1000c0,200 0,400 0,600 -267,0 -533,0 -800,0 0,-200 0,-400 0,-600 267,0 533,0 800,0zm-200 200l-400 0 0 200 400 0 0 -200zm200 600c0,200 0,400 0,600 -267,0 -533,0 -800,0 0,-200 0,-400 0,-600 267,0 533,0 800,0zm-200 200l-400 0 0 200 400 0 0 -200zm3800 -1800c0,200 0,400 0,600 -267,0 -533,0 -800,0 0,-200 0,-400 0,-600 267,0 533,0 800,0zm-200 200l-400 0 0 200 400 0 0 -200zm200 600c0,200 0,400 0,600 -267,0 -533,0 -800,0 0,-200 0,-400 0,-600 267,0 533,0 800,0zm-200 200l-400 0 0 200 400 0 0 -200zm0 800l-400 0 0 200 400 0 0 -200z"/>
</svg>