<?xml version="1.0" encoding="UTF-8"?>
<!DOCTYPE svg PUBLIC "-//W3C//DTD SVG 1.1//EN" "http://www.w3.org/Graphics/SVG/1.1/DTD/svg11.dtd">
<svg xmlns="http://www.w3.org/2000/svg" xml:space="preserve" width="580px" height="580px" shape-rendering="geometricPrecision" text-rendering="geometricPrecision" image-rendering="optimizeQuality" fill-rule="nonzero" clip-rule="nonzero" viewBox="0 0 5800 5800" xmlns:xlink="http://www.w3.org/1999/xlink">
	<title>atm icon</title>
	<desc>atm icon from the IconExperience.com I-Collection. Copyright by INCORS GmbH (www.incors.com).</desc>
	<path id="curve0"  d="M300 500l0 4800 5100 0 100 0 0 -100 0 -4600 0 -100 -100 0 -5100 0zm4200 4410l-100 0c-171,0 -310,-139 -310,-310l0 -800c0,-171 139,-310 310,-310l100 0 0 1420zm200 -1420l90 0c171,0 310,139 310,310l0 800c0,171 -139,310 -310,310l-90 0 0 -1420zm400 -990l0 600 -800 0 0 -600 800 0zm-200 200l-400 0 0 200 400 0 0 -200zm200 -1000l0 600 -800 0 0 -600 800 0zm-200 200l-400 0 0 200 400 0 0 -200zm200 -1000l0 600 -800 0 0 -600 800 0zm-200 200l-400 0 0 200 400 0 0 -200zm-3400 1400l0 600c-267,0 -533,0 -800,0l0 -600c267,0 533,0 800,0zm-200 200l-400 0 0 200 400 0 0 -200zm200 -1000l0 600c-267,0 -533,0 -800,0l0 -600c267,0 533,0 800,0zm-200 200l-400 0 0 200 400 0 0 -200zm2400 2600c0,133 0,267 0,400 -133,0 -267,0 -400,0 0,-133 0,-267 0,-400 133,0 267,0 400,0zm-1200 0c0,133 0,267 0,400 -133,0 -267,0 -400,0 0,-133 0,-267 0,-400 133,0 267,0 400,0zm600 0c0,133 0,267 0,400 -133,0 -267,0 -400,0 0,-133 0,-267 0,-400 133,0 267,0 400,0zm600 -600c0,133 0,267 0,400 -133,0 -267,0 -400,0 0,-133 0,-267 0,-400 133,0 267,0 400,0zm-1200 0c0,133 0,267 0,400 -133,0 -267,0 -400,0 0,-133 0,-267 0,-400 133,0 267,0 400,0zm600 0c0,133 0,267 0,400 -133,0 -267,0 -400,0 0,-133 0,-267 0,-400 133,0 267,0 400,0zm600 -600c0,133 0,267 0,400 -133,0 -267,0 -400,0 0,-133 0,-267 0,-400 133,0 267,0 400,0zm-1200 0c0,133 0,267 0,400 -133,0 -267,0 -400,0 0,-133 0,-267 0,-400 133,0 267,0 400,0zm600 0c0,133 0,267 0,400 -133,0 -267,0 -400,0 0,-133 0,-267 0,-400 133,0 267,0 400,0zm-1300 -2400l2300 0 0 2200 -2400 0 0 -2200 100 0zm2100 200l-2000 0 0 1800 2000 0 0 -1800zm-2400 -200l0 600c-267,0 -533,0 -800,0l0 -600c267,0 533,0 800,0zm-200 200l-400 0 0 200 400 0 0 -200z"/>
</svg>