<?xml version="1.0" encoding="UTF-8"?>
<!DOCTYPE svg PUBLIC "-//W3C//DTD SVG 1.1//EN" "http://www.w3.org/Graphics/SVG/1.1/DTD/svg11.dtd">
<svg xmlns="http://www.w3.org/2000/svg" xml:space="preserve" width="580px" height="580px" shape-rendering="geometricPrecision" text-rendering="geometricPrecision" image-rendering="optimizeQuality" fill-rule="nonzero" clip-rule="nonzero" viewBox="0 0 5800 5800" xmlns:xlink="http://www.w3.org/1999/xlink">
	<title>atom icon</title>
	<desc>atom icon from the IconExperience.com I-Collection. Copyright by INCORS GmbH (www.incors.com).</desc>
		<path id="curve29"  d="M2900 1100c704,0 1341,409 1635,1045 -454,441 -1078,850 -1635,1157 -557,-307 -1180,-716 -1635,-1157 294,-636 931,-1045 1635,-1045zm1800 1835c-7,373 -128,719 -329,1003 -245,-69 -486,-160 -720,-263 363,-222 721,-468 1049,-740zm-931 1542c-258,142 -554,223 -869,223 -315,0 -611,-81 -869,-223 295,-108 588,-237 869,-377 281,140 574,269 869,377zm-2340 -539c-201,-284 -322,-630 -329,-1003 328,272 686,518 1049,740 -234,103 -475,194 -720,263z"/>
	<path id="curve28"  d="M3224 3697c358,175 741,337 1122,442 133,37 682,177 763,36 73,-127 -258,-484 -338,-567 40,-107 72,-217 93,-330 245,239 728,723 475,1089 -216,267 -806,134 -1073,61 -463,-128 -938,-332 -1366,-553 -428,221 -903,425 -1366,553 -315,87 -880,217 -1102,-103 -194,-336 280,-828 504,-1047 21,113 53,223 93,330 -80,83 -411,440 -338,567 82,142 641,-2 763,-36 381,-105 764,-267 1122,-442 -592,-349 -1190,-733 -1682,-1216 -207,-204 -648,-683 -462,-1006 194,-336 857,-171 1158,-87 -86,75 -166,157 -238,246 -112,-28 -587,-137 -661,-9 -81,141 323,554 413,642 495,487 1180,932 1796,1263 616,-331 1301,-776 1796,-1263 90,-88 494,-501 413,-642 -74,-128 -549,-19 -661,9 -72,-89 -152,-171 -238,-246 301,-84 963,-249 1158,87 186,323 -255,802 -462,1006 -492,484 -1090,867 -1682,1216z"/>
</svg>