<?xml version="1.0" encoding="UTF-8"?>
<!DOCTYPE svg PUBLIC "-//W3C//DTD SVG 1.1//EN" "http://www.w3.org/Graphics/SVG/1.1/DTD/svg11.dtd">
<svg xmlns="http://www.w3.org/2000/svg" xml:space="preserve" width="580px" height="580px" shape-rendering="geometricPrecision" text-rendering="geometricPrecision" image-rendering="optimizeQuality" fill-rule="nonzero" clip-rule="nonzero" viewBox="0 0 5800 5800" xmlns:xlink="http://www.w3.org/1999/xlink">
	<title>atom icon</title>
	<desc>atom icon from the IconExperience.com I-Collection. Copyright by INCORS GmbH (www.incors.com).</desc>
		<path id="curve29"  d="M2900 1100c723,0 1374,432 1656,1094 -51,50 -104,98 -157,145 -234,-623 -830,-1039 -1499,-1039 -669,0 -1265,416 -1499,1039 -53,-47 -106,-95 -157,-145 282,-662 933,-1094 1656,-1094zm1800 1771c6,401 -119,789 -361,1110 -68,-19 -136,-41 -204,-64 201,-243 331,-547 359,-880 70,-54 139,-110 206,-166zm-875 1573c-270,163 -587,256 -925,256 -338,0 -655,-93 -925,-256 83,-29 166,-61 248,-94 206,96 435,150 677,150 242,0 471,-54 677,-150 82,33 165,65 248,94zm-2364 -463c-242,-321 -367,-709 -361,-1110 67,56 136,112 206,166 28,333 158,637 359,880 -68,23 -136,45 -204,64z"/>
	<path id="curve28"  d="M476 4300c-173,-299 283,-779 473,-964 16,74 37,147 62,219 -287,294 -429,530 -363,645 71,123 379,109 819,-13 348,-96 767,-262 1214,-487 -64,-36 -126,-73 -184,-109 -652,-377 -1203,-787 -1568,-1146 -394,-387 -576,-733 -454,-945 123,-212 513,-227 1046,-79l26 7c-56,52 -109,106 -159,164 -398,-102 -673,-108 -740,8 -71,123 95,382 421,703 458,451 984,786 1531,1117 101,58 201,114 300,167 99,-53 199,-109 300,-167 547,-331 1073,-666 1531,-1117 326,-321 492,-580 421,-703 -67,-116 -342,-110 -741,-8 -49,-58 -102,-112 -158,-164l26 -7c533,-148 923,-133 1046,79 122,212 -60,558 -454,945 -365,359 -916,769 -1568,1146 -58,36 -120,73 -184,109 447,225 866,391 1213,487 441,122 749,136 820,13 66,-115 -76,-351 -363,-645 11,-31 21,-63 30,-96 12,-41 23,-82 32,-123l20 19c394,387 576,733 453,945 -122,212 -513,227 -1045,79 -417,-115 -939,-331 -1379,-560 -440,229 -962,445 -1379,560 -532,148 -923,133 -1045,-79z"/>
</svg>