<?xml version="1.0" encoding="UTF-8"?>
<!DOCTYPE svg PUBLIC "-//W3C//DTD SVG 1.1//EN" "http://www.w3.org/Graphics/SVG/1.1/DTD/svg11.dtd">
<svg xmlns="http://www.w3.org/2000/svg" xml:space="preserve" width="580px" height="580px" shape-rendering="geometricPrecision" text-rendering="geometricPrecision" image-rendering="optimizeQuality" fill-rule="nonzero" clip-rule="nonzero" viewBox="0 0 5800 5800" xmlns:xlink="http://www.w3.org/1999/xlink">
	<title>atom2 icon</title>
	<desc>atom2 icon from the IconExperience.com I-Collection. Copyright by INCORS GmbH (www.incors.com).</desc>
		<path id="curve29"  d="M2900 1500c104,0 205,11 302,33 4,25 8,50 12,76 -67,31 -135,63 -201,96 -37,-3 -75,-5 -113,-5 -38,0 -75,2 -112,5 -100,-49 -201,-97 -302,-143 131,-40 270,-62 414,-62zm-832 535c-108,104 -196,228 -259,365 -93,61 -184,125 -275,190 55,-241 172,-459 333,-635 68,25 135,52 201,80zm-333 1153c131,534 613,912 1165,912 115,0 227,-16 333,-47 -9,72 -20,144 -31,214 -97,22 -198,33 -302,33 -612,0 -1152,-397 -1335,-978 55,-46 112,-90 170,-134zm2198 -1233c162,177 278,394 333,636 -91,-65 -182,-129 -275,-190 -31,-69 -69,-134 -112,-195 -5,-75 -11,-149 -17,-223 24,-10 47,-19 71,-28zm302 1367c-68,217 -188,411 -345,568 -13,13 -26,25 -39,38 11,-111 20,-222 27,-333 86,-121 150,-258 187,-407 58,44 114,89 170,134z"/>
	<path id="curve28"  d="M648 4200c-71,-123 95,-383 421,-703 436,-429 1002,-811 1531,-1117 101,-58 201,-114 300,-167 202,109 401,223 595,344 3,116 5,231 5,343 0,738 -77,1404 -202,1884 -114,442 -256,716 -398,716 -142,0 -284,-274 -398,-716 -29,-109 -55,-228 -78,-356 -75,-23 -147,-52 -217,-85 29,178 63,343 102,491 138,535 346,866 591,866 245,0 453,-331 591,-866 129,-497 209,-1181 209,-1934 0,-70 -1,-141 -2,-213 421,276 776,557 1033,810 326,320 492,580 421,703 -71,123 -379,109 -819,-13 -109,-30 -226,-67 -348,-111 -57,53 -118,102 -182,145 169,64 329,117 476,158 533,148 924,133 1046,-79 122,-212 -60,-558 -454,-945 -291,-286 -698,-604 -1180,-911 -8,-194 -22,-392 -43,-588 247,-104 479,-186 685,-243 440,-122 748,-136 819,-13 71,123 -95,383 -421,703 -81,79 -171,161 -270,245 17,76 29,154 35,231 140,-115 266,-227 375,-334 394,-387 576,-733 454,-945 -122,-212 -513,-227 -1046,-79 -199,55 -420,132 -656,229 -32,-235 -75,-465 -132,-684 -138,-535 -346,-866 -591,-866 -245,0 -453,331 -591,866 -39,148 -73,313 -102,491 70,-33 142,-62 217,-85 23,-128 49,-247 78,-356 114,-442 256,-716 398,-716 142,0 284,274 398,716 60,228 103,470 134,715 -172,76 -350,162 -531,256 -441,-230 -917,-438 -1380,-566 -533,-148 -924,-133 -1046,79 -122,212 60,558 454,945 109,108 235,219 375,334 6,-77 17,-154 35,-231 -99,-84 -189,-166 -270,-245 -326,-320 -492,-580 -421,-703 71,-123 379,-109 819,13 407,112 826,290 1220,489 -62,34 -125,69 -187,105 -544,314 -1122,706 -1571,1148 -394,387 -576,733 -454,945 122,212 513,227 1046,79 147,-41 307,-93 476,-158 -64,-43 -125,-92 -182,-145 -122,44 -239,81 -348,111 -440,122 -748,136 -819,13zm2836 -1884c-121,-74 -245,-145 -369,-214 115,-58 229,-112 341,-162 12,125 22,251 28,376z"/>
</svg>