<?xml version="1.0" encoding="UTF-8"?>
<!DOCTYPE svg PUBLIC "-//W3C//DTD SVG 1.1//EN" "http://www.w3.org/Graphics/SVG/1.1/DTD/svg11.dtd">
<svg xmlns="http://www.w3.org/2000/svg" xml:space="preserve" width="580px" height="580px" shape-rendering="geometricPrecision" text-rendering="geometricPrecision" image-rendering="optimizeQuality" fill-rule="nonzero" clip-rule="nonzero" viewBox="0 0 5800 5800" xmlns:xlink="http://www.w3.org/1999/xlink">
	<title>atom2 icon</title>
	<desc>atom2 icon from the IconExperience.com I-Collection. Copyright by INCORS GmbH (www.incors.com).</desc>
		<path id="curve29"  d="M3202 1533c4,25 8,50 12,76 -106,49 -210,100 -313,153 -137,-70 -275,-137 -415,-200 231,-71 480,-81 716,-29zm96 1137c1,78 2,154 2,230 0,438 -25,916 -98,1367 -97,22 -198,33 -302,33 -612,0 -1152,-397 -1335,-978 354,-290 750,-546 1135,-768 65,-38 132,-76 200,-113 134,74 267,150 398,229zm-1764 -80c55,-241 172,-459 333,-635 131,49 262,104 391,162 -244,146 -489,303 -724,473zm2399 -635c162,177 278,394 333,636 -125,-90 -252,-177 -380,-260 -6,-116 -14,-232 -24,-348 24,-10 47,-19 71,-28zm302 1367c-68,217 -188,411 -345,568 -13,13 -26,25 -39,38 29,-290 44,-581 48,-862 115,82 228,168 336,256z"/>
	<path id="curve28"  d="M648 4200c-71,-123 95,-383 421,-703 516,-508 1191,-941 1831,-1284 202,109 401,223 595,344 22,721 -16,1531 -197,2227 -114,442 -256,716 -398,716 -254,0 -431,-826 -476,-1072 -75,-23 -147,-52 -217,-85 60,370 257,1357 693,1357 245,0 453,-331 591,-866 176,-675 220,-1450 207,-2147 421,276 776,557 1033,810 326,320 492,580 421,703 -127,220 -931,-39 -1167,-124 -57,53 -118,102 -182,145 351,133 1304,457 1522,79 122,-212 -60,-558 -454,-945 -291,-286 -698,-604 -1180,-911 -8,-194 -22,-392 -43,-588 260,-110 1349,-524 1504,-256 127,220 -500,786 -691,948 17,76 29,154 35,231 290,-237 1047,-901 829,-1279 -237,-411 -1334,-1 -1702,150 -53,-394 -250,-1550 -723,-1550 -436,0 -633,987 -693,1357 70,-33 142,-62 217,-85 45,-246 222,-1072 476,-1072 308,0 497,1150 532,1431 -172,76 -350,162 -531,256 -441,-230 -917,-438 -1380,-566 -533,-148 -924,-133 -1046,79 -218,378 539,1042 829,1279 6,-77 17,-154 35,-231 -191,-162 -818,-728 -691,-948 71,-123 379,-109 819,13 407,112 826,290 1220,489 -617,339 -1256,759 -1758,1253 -394,387 -576,733 -454,945 218,378 1171,55 1522,-79 -64,-43 -125,-92 -182,-145 -236,85 -1040,344 -1167,124zm2836 -1884c-121,-74 -245,-145 -369,-214 115,-58 229,-112 341,-162 12,125 22,251 28,376z"/>
</svg>