<?xml version="1.0" encoding="utf-8"?>
<!-- Generator: Adobe Illustrator 19.2.1, SVG Export Plug-In . SVG Version: 6.00 Build 0)  -->
<svg version="1.1" id="Ebene_1" xmlns="http://www.w3.org/2000/svg" xmlns:xlink="http://www.w3.org/1999/xlink" x="0px" y="0px"
	 width="580px" height="580px" viewBox="0 0 580 580" style="enable-background:new 0 0 580 580;" xml:space="preserve">
<g>
	<path d="M57,437.9v-300c0-55.2,44.7-100,99.9-100C214,37.9,257,101.8,257,154.6V202h20l0-47.4c0-64-51.9-136.7-120.1-136.7
		C90.6,17.9,37,71.6,37,137.9v300c0,55.2,44.5,100,99.7,100c16.8,0,32.3-4.2,46.3-11.5v-23.5c-13,9.4-28.9,15-46.3,15
		C92.5,517.9,57,482.1,57,437.9z"/>
	<path d="M237,202v-4.1c0-44.2-35.8-80-80-80s-80,35.8-80,80V418h20V197.9c0-33.1,26.9-60,60-60c33.1,0,60,26.9,60,60v4.1H237z"/>
	<path d="M223,242v320h320V242H223z M523,542H243V262h280V542z"/>
	<path d="M320.5,457.3c18.2,12.3,39.6,19.5,60.1,19.5s42-7.2,60.1-19.5c17.5-11.9,32-28.5,39.6-48c0.3-0.9,0.3-1.8,0-2.8
		c-7.6-19.5-22.1-36.2-39.6-48c-18.2-12.3-39.7-19.5-60.1-19.5s-42,7.2-60.1,19.5c-17.5,11.9-32,28.5-39.6,48
		c-0.3,0.9-0.3,1.9,0,2.8C288.5,428.8,303,445.4,320.5,457.3z M332.1,370c14.7-10.1,32.1-16,48.5-16s33.8,5.9,48.5,16
		c13.8,9.5,25.2,22.6,31.4,37.9c-6.2,15.4-17.6,28.4-31.4,37.9c-14.7,10.1-32.1,16-48.5,16s-33.8-5.9-48.5-16
		c-13.8-9.5-25.3-22.6-31.5-37.9C306.9,392.6,318.3,379.5,332.1,370z"/>
	<circle cx="380.7" cy="408.2" r="10"/>
	<path d="M380.7,449.1c22.6,0,40.9-18.3,40.9-40.9s-18.3-40.9-40.9-40.9s-40.9,18.3-40.9,40.9S358.1,449.1,380.7,449.1z
		 M380.7,382.3c14.3,0,25.9,11.6,25.9,25.9c0,14.3-11.6,25.9-25.9,25.9s-25.9-11.6-25.9-25.9C354.8,393.9,366.4,382.3,380.7,382.3z"
		/>
</g>
</svg>
