<?xml version="1.0" encoding="UTF-8"?>
<!DOCTYPE svg PUBLIC "-//W3C//DTD SVG 1.1//EN" "http://www.w3.org/Graphics/SVG/1.1/DTD/svg11.dtd">
<svg xmlns="http://www.w3.org/2000/svg" xml:space="preserve" width="580px" height="580px" shape-rendering="geometricPrecision" text-rendering="geometricPrecision" image-rendering="optimizeQuality" fill-rule="nonzero" clip-rule="nonzero" viewBox="0 0 5800 5800" xmlns:xlink="http://www.w3.org/1999/xlink">
	<title>auction_hammer icon</title>
	<desc>auction_hammer icon from the IconExperience.com I-Collection. Copyright by INCORS GmbH (www.incors.com).</desc>
		<path id="curve28" d="M3452 298l44 45c42,42 72,93 87,148 15,54 16,113 1,171 -6,22 -6,46 1,68 12,46 50,83 95,95 23,7 46,7 68,1 59,-15 117,-14 171,1 55,15 106,45 148,87l210 209 209 210c42,42 72,93 87,148 15,54 16,112 1,171 -6,22 -6,45 1,68 12,45 50,83 95,95 22,7 46,7 68,1 58,-15 117,-14 171,1 55,15 105,45 148,87l44 44 0 1 1 -1c64,65 97,150 98,234 0,85 -31,170 -95,234l-808 809c-64,64 -149,95 -234,94 -85,-1 -170,-33 -234,-98l-44 -44c-43,-42 -72,-93 -87,-148 -16,-55 -16,-113 -1,-171 25,-99 -68,-190 -165,-165 -58,15 -116,15 -171,-1 -27,-7 -54,-18 -79,-33l-211 212c-98,98 -181,154 -265,211 -74,51 -149,102 -235,189 -71,70 -130,154 -190,237 -65,91 -130,183 -210,263l-1259 1258c-114,114 -300,117 -417,6 -23,-18 -47,-46 -68,-67l-56 -56c-117,-117 -117,-307 0,-424l1258 -1259c80,-80 172,-145 263,-210 83,-60 167,-119 237,-190 87,-86 138,-161 189,-235 57,-84 114,-167 211,-265l212 -211c-15,-25 -26,-52 -33,-79 -16,-55 -16,-113 -1,-171 5,-22 5,-46 -1,-69 -13,-45 -50,-82 -95,-95 -23,-6 -47,-6 -69,-1 -58,15 -116,15 -171,-1 -55,-15 -105,-44 -148,-87 -15,-16 -35,-32 -50,-50 -61,-64 -91,-146 -92,-228 -1,-85 30,-170 94,-234l809 -808c64,-64 149,-95 234,-95 84,1 169,34 234,98zm-152 4802l0 -300c0,-138 56,-263 147,-353 90,-91 215,-147 353,-147l1200 0c138,0 263,56 353,147 91,90 147,215 147,353l0 300 -200 0 0 -300c0,-83 -34,-158 -88,-212 -54,-54 -129,-88 -212,-88l-1200 0c-83,0 -158,34 -212,88 -54,54 -88,129 -88,212l0 300 -200 0zm-167 -2575l-258 -258 -204 204c-86,86 -138,161 -189,235 -57,84 -113,167 -211,265 -80,80 -172,145 -263,210 -83,60 -167,119 -237,190l-1259 1258c-39,39 -39,103 0,142 39,39 84,80 121,121 39,35 101,33 138,-4l1258 -1259c71,-70 130,-154 190,-237 65,-91 130,-183 210,-263 98,-98 181,-154 265,-211 74,-51 149,-102 235,-189l204 -204zm221 -2041l-44 -44c-26,-27 -60,-40 -94,-40 -33,-1 -66,12 -91,36l-808 809c-25,25 -37,58 -37,91 0,36 15,68 40,94l44 44c-5,6 52,34 60,36 22,6 45,6 69,0 56,-14 115,-14 171,2 114,32 202,120 234,234 16,56 16,115 2,171 -6,24 -6,47 0,69 6,21 18,41 36,60l418 418c19,18 39,30 60,36 22,6 45,6 69,0 56,-14 115,-14 171,2 114,32 202,120 234,234 16,56 16,115 2,171 -6,24 -6,47 0,69 6,21 18,41 36,60l44 44c27,26 61,40 94,40 33,0 66,-12 91,-37l809 -808c25,-25 37,-58 36,-91 0,-34 -13,-68 -40,-94l-44 -45c-18,-18 -38,-30 -60,-36 -21,-6 -45,-6 -68,0 -56,15 -115,14 -171,-1 -115,-32 -203,-121 -235,-235 -15,-56 -16,-115 -1,-171 6,-23 6,-47 0,-68 -6,-21 -18,-42 -37,-60l-209 -209 -209 -209c-18,-19 -39,-31 -60,-37 -21,-6 -45,-6 -68,0 -56,15 -115,14 -171,-1 -114,-32 -203,-121 -235,-235 -15,-56 -16,-115 -1,-171 6,-23 6,-47 0,-68 -6,-21 -18,-42 -37,-60z"/>
</svg>