<?xml version="1.0" encoding="UTF-8"?>
<!DOCTYPE svg PUBLIC "-//W3C//DTD SVG 1.1//EN" "http://www.w3.org/Graphics/SVG/1.1/DTD/svg11.dtd">
<svg xmlns="http://www.w3.org/2000/svg" xml:space="preserve" width="580px" height="580px" shape-rendering="geometricPrecision" text-rendering="geometricPrecision" image-rendering="optimizeQuality" fill-rule="nonzero" clip-rule="nonzero" viewBox="0 0 5800 5800" xmlns:xlink="http://www.w3.org/1999/xlink">
	<title>audio_cassette icon</title>
	<desc>audio_cassette icon from the IconExperience.com I-Collection. Copyright by INCORS GmbH (www.incors.com).</desc>
		<path id="curve28" d="M2100 3100l1600 0c-63,-84 -100,-187 -100,-300 0,-113 37,-216 100,-300l-1600 0c63,84 100,187 100,300 0,113 -37,216 -100,300zm3100 -2000c165,0 300,135 300,300l0 3000c0,165 -135,300 -300,300l-4600 0c-165,0 -300,-135 -300,-300l0 -3000c0,-165 135,-300 300,-300l4600 0zm-4600 200c-55,0 -100,45 -100,100l0 3000c0,55 45,100 100,100l431 0 276 -735c15,-41 54,-66 95,-65l2998 0c43,0 80,28 94,66l275 734 431 0c55,0 100,-45 100,-100l0 -3000c0,-55 -45,-100 -100,-100l-4600 0zm644 3200l3312 0 -225 -600 -2862 0 -225 600zm2856 -1200l-2400 0c-276,0 -500,-224 -500,-500 0,-276 224,-500 500,-500l2400 0c276,0 500,224 500,500 0,276 -224,500 -500,500zm0 -800c-166,0 -300,134 -300,300 0,166 134,300 300,300 166,0 300,-134 300,-300 0,-166 -134,-300 -300,-300zm-2400 0c-166,0 -300,134 -300,300 0,166 134,300 300,300 166,0 300,-134 300,-300 0,-166 -134,-300 -300,-300z"/>
</svg>