<?xml version="1.0" encoding="UTF-8"?>
<!DOCTYPE svg PUBLIC "-//W3C//DTD SVG 1.1//EN" "http://www.w3.org/Graphics/SVG/1.1/DTD/svg11.dtd">
<svg xmlns="http://www.w3.org/2000/svg" xml:space="preserve" width="580px" height="580px" shape-rendering="geometricPrecision" text-rendering="geometricPrecision" image-rendering="optimizeQuality" fill-rule="nonzero" clip-rule="nonzero" viewBox="0 0 5800 5800" xmlns:xlink="http://www.w3.org/1999/xlink">
	<title>audio_cassette icon</title>
	<desc>audio_cassette icon from the IconExperience.com I-Collection. Copyright by INCORS GmbH (www.incors.com).</desc>
		<path id="curve28"  d="M4100 2300l-2400 0c-276,0 -500,224 -500,500 0,276 224,500 500,500l2400 0c276,0 500,-224 500,-500 0,-276 -224,-500 -500,-500zm1100 -1200c165,0 300,135 300,300l0 3000c0,165 -135,300 -300,300l-356 0 -348 -927c-11,-42 -50,-73 -96,-73l-3000 0c-40,0 -78,25 -93,65l-351 935 -356 0c-165,0 -300,-135 -300,-300l0 -3000c0,-165 135,-300 300,-300l4600 0zm-569 3600l-3462 0 300 -800 2862 0 300 800zm-931 -1600c-63,-84 -100,-187 -100,-300 0,-113 37,-216 100,-300l-1600 0c63,84 100,187 100,300 0,113 -37,216 -100,300l1600 0zm-2000 -600c-166,0 -300,134 -300,300 0,166 134,300 300,300 166,0 300,-134 300,-300 0,-166 -134,-300 -300,-300zm2400 0c-166,0 -300,134 -300,300 0,166 134,300 300,300 166,0 300,-134 300,-300 0,-166 -134,-300 -300,-300z"/>
</svg>