<?xml version="1.0" encoding="UTF-8"?>
<!DOCTYPE svg PUBLIC "-//W3C//DTD SVG 1.1//EN" "http://www.w3.org/Graphics/SVG/1.1/DTD/svg11.dtd">
<svg xmlns="http://www.w3.org/2000/svg" xml:space="preserve" width="580px" height="580px" shape-rendering="geometricPrecision" text-rendering="geometricPrecision" image-rendering="optimizeQuality" fill-rule="nonzero" clip-rule="nonzero" viewBox="0 0 5800 5800" xmlns:xlink="http://www.w3.org/1999/xlink">
	<title>baby icon</title>
	<desc>baby icon from the IconExperience.com I-Collection. Copyright by INCORS GmbH (www.incors.com).</desc>
		<path id="curve28"  d="M4265 1854c111,167 165,352 138,533 85,209 87,598 -112,746 -43,126 -143,308 -270,462 -93,112 -203,212 -318,270 2,15 5,29 11,40 30,61 91,79 141,112 197,130 308,270 371,421 62,148 74,301 74,462 0,222 -160,368 -399,460 -274,105 -658,140 -1001,140 -343,0 -727,-35 -1001,-140 -239,-92 -399,-238 -399,-460 0,-161 12,-314 74,-462 63,-151 174,-291 371,-421 2,4 134,-67 151,-153 -116,-58 -225,-158 -317,-270 -127,-153 -227,-334 -270,-462 -199,-147 -197,-537 -112,-745 -22,-167 36,-359 153,-534 116,-174 292,-335 505,-442 208,-104 306,-259 394,-400 139,-220 259,-411 651,-411 127,0 256,35 350,106 91,68 150,166 150,294 0,26 -10,51 -29,71 -39,39 -103,39 -142,0 -22,-22 -39,-30 -49,-28 -7,2 -2,36 -1,41 18,84 118,203 366,327 219,110 402,267 520,443zm-867 1484c1,-13 2,-25 2,-38 0,-221 -224,-400 -500,-400 -276,0 -500,179 -500,400 0,13 1,25 2,38 -125,99 -202,235 -202,387 0,356 384,550 700,550 316,0 700,-194 700,-550 0,-152 -77,-288 -202,-387zm-909 189c-56,57 -89,125 -89,198 0,239 301,350 500,350 199,0 500,-111 500,-350 0,-73 -33,-141 -89,-198 -90,105 -240,173 -411,173 -171,0 -321,-68 -411,-173z"/>
</svg>