<?xml version="1.0" encoding="UTF-8"?>
<!DOCTYPE svg PUBLIC "-//W3C//DTD SVG 1.1//EN" "http://www.w3.org/Graphics/SVG/1.1/DTD/svg11.dtd">
<svg xmlns="http://www.w3.org/2000/svg" xml:space="preserve" width="580px" height="580px" shape-rendering="geometricPrecision" text-rendering="geometricPrecision" image-rendering="optimizeQuality" fill-rule="nonzero" clip-rule="nonzero" viewBox="0 0 5800 5800" xmlns:xlink="http://www.w3.org/1999/xlink">
	<title>baby icon</title>
	<desc>baby icon from the IconExperience.com I-Collection. Copyright by INCORS GmbH (www.incors.com).</desc>
		<path id="curve28"  d="M2900 2900c276,0 500,179 500,400 0,13 -1,25 -2,38 125,99 202,235 202,387 0,157 -83,298 -216,398 -125,94 -297,152 -484,152 -187,0 -359,-58 -484,-152 -133,-100 -216,-241 -216,-398 0,-152 77,-288 202,-387 -1,-13 -2,-25 -2,-38 0,-221 224,-400 500,-400zm-1210 143c28,104 120,276 243,424 28,34 57,66 88,96 -14,52 -21,106 -21,162 0,29 2,57 6,85 -82,-58 -159,-133 -227,-216 -127,-153 -227,-334 -270,-462 -90,-66 -140,-185 -159,-316 -20,-145 -2,-310 47,-429 -22,-167 36,-359 153,-534 116,-174 292,-335 505,-442 208,-104 306,-259 394,-400 139,-220 259,-411 651,-411 127,0 256,35 350,106 91,68 150,166 150,294 0,26 -10,51 -29,71 -39,39 -103,39 -142,0 -22,-22 -39,-30 -49,-28 -7,2 -2,36 -1,41 18,84 118,203 366,327 219,110 402,267 520,443l-1 0c112,167 166,352 139,533 49,119 67,284 47,429 -18,131 -69,250 -159,317 -43,126 -143,308 -270,462 -68,82 -145,157 -226,214 3,-27 5,-55 5,-84 0,-56 -7,-110 -21,-162 30,-30 60,-62 88,-96 123,-149 216,-321 243,-424 8,-30 29,-54 55,-66 47,-26 75,-101 87,-189 17,-121 1,-258 -41,-344 -10,-21 -13,-43 -9,-63 27,-137 -14,-283 -104,-417 -98,-148 -254,-281 -443,-375 -311,-156 -441,-330 -471,-462 -14,-65 -7,-123 16,-170 25,-49 65,-85 115,-102 -57,-37 -135,-55 -215,-55 -282,0 -375,147 -482,317 -103,163 -216,343 -473,472 -182,91 -331,227 -429,375 -96,144 -142,295 -118,417 5,24 0,49 -11,69 -40,86 -56,219 -39,338 13,90 42,167 90,191 27,13 45,37 52,64zm452 1089c-25,18 -55,36 -90,53 -158,106 -246,215 -293,329 -49,118 -59,247 -59,386 0,124 109,212 270,274 247,95 605,126 930,126 325,0 683,-31 930,-126 162,-62 270,-150 270,-274 0,-139 -10,-268 -59,-386 -47,-114 -135,-223 -293,-329 -34,-17 -64,-35 -90,-54 42,-54 75,-112 99,-175 20,17 46,34 82,52 6,3 11,5 16,9 197,130 308,270 371,421 62,148 74,301 74,462 0,222 -160,368 -399,460 -274,105 -658,140 -1001,140 -343,0 -727,-35 -1001,-140 -239,-92 -399,-238 -399,-460 0,-161 12,-314 74,-462 63,-151 174,-291 371,-421 0,0 9,-6 10,-6 38,-19 66,-38 87,-56 24,63 58,122 100,177zm1169 -605c-90,105 -240,173 -411,173 -171,0 -321,-68 -411,-173 -56,57 -89,125 -89,198 0,91 52,176 135,239 92,68 221,111 365,111 144,0 273,-43 365,-111 83,-63 135,-148 135,-239 0,-73 -33,-141 -89,-198z"/>
</svg>