<?xml version="1.0" encoding="UTF-8"?>
<!DOCTYPE svg PUBLIC "-//W3C//DTD SVG 1.1//EN" "http://www.w3.org/Graphics/SVG/1.1/DTD/svg11.dtd">
<svg xmlns="http://www.w3.org/2000/svg" xml:space="preserve" width="580px" height="580px" shape-rendering="geometricPrecision" text-rendering="geometricPrecision" image-rendering="optimizeQuality" fill-rule="nonzero" clip-rule="nonzero" viewBox="0 0 5800 5800" xmlns:xlink="http://www.w3.org/1999/xlink">
	<title>backpack icon</title>
	<desc>backpack icon from the IconExperience.com I-Collection. Copyright by INCORS GmbH (www.incors.com).</desc>
	<path id="curve0" d="M1900 3500l2000 0 0 200 -2000 0 0 -200zm2000 -3300l600 0c110,0 200,90 200,200l0 1035c-61,-86 -128,-168 -200,-244l0 -791 0 0 0 0 0 0c0,0 0,0 0,0 0,0 0,0 0,0l0 0 0 0 -600 0 0 340c-65,-33 -131,-63 -200,-90l0 -250c0,-110 90,-200 200,-200zm-2600 0l600 0c110,0 200,90 200,200l0 251c-68,26 -135,56 -200,89l0 -340 -600 0 0 790c-72,77 -139,158 -200,245l0 -1035c0,-110 90,-200 200,-200zm3200 200c0,0 0,0 0,0l0 0 0 0zm0 0l0 0 0 0c0,0 0,0 0,0zm0 0l0 0m-1600 300c1105,0 1999,895 2000,2000l1 2201c0,330 -270,598 -600,599l-301 0 -2200 0 -299 0c-336,0 -600,-269 -600,-601l-1 -2200c0,-1105 895,-1998 2000,-1999zm0 200c-994,0 -1800,806 -1800,1799l0 2200c1,178 117,339 290,387 -57,-81 -90,-180 -90,-286l0 -1500c0,-884 716,-1600 1600,-1600 884,0 1600,716 1600,1600l0 1500c0,106 -33,204 -90,285 171,-49 291,-205 291,-384l-1 -2201c0,-994 -806,-1800 -1800,-1800zm0 1200c-773,0 -1400,627 -1400,1400l0 1500c0,165 135,300 300,300l2200 0c83,0 158,-34 212,-88 54,-54 88,-129 88,-212l0 -1500c0,-773 -627,-1400 -1400,-1400z"/>
</svg>