<?xml version="1.0" encoding="UTF-8"?>
<!DOCTYPE svg PUBLIC "-//W3C//DTD SVG 1.1//EN" "http://www.w3.org/Graphics/SVG/1.1/DTD/svg11.dtd">
<svg xmlns="http://www.w3.org/2000/svg" xml:space="preserve" width="580px" height="580px" shape-rendering="geometricPrecision" text-rendering="geometricPrecision" image-rendering="optimizeQuality" fill-rule="nonzero" clip-rule="nonzero" viewBox="0 0 5800 5800" xmlns:xlink="http://www.w3.org/1999/xlink">
	<title>bacon icon</title>
	<desc>bacon icon from the IconExperience.com I-Collection. Copyright by INCORS GmbH (www.incors.com).</desc>
		<path id="curve28"  d="M5232 4390l-70 -397c-57,0 -114,-13 -170,-23 -181,-35 -368,-70 -559,-34 -185,34 -278,116 -371,198 -52,46 -104,92 -180,106 -111,21 -338,15 -564,10 -249,-7 -497,-13 -647,15 -166,31 -302,113 -438,195 -106,65 -212,129 -307,145 -215,39 -348,-1 -437,-27 -31,-10 -59,-18 -87,-24l77 435c120,29 284,51 516,10 168,-30 306,-113 444,-196 106,-64 211,-128 305,-145 111,-21 338,-16 564,-10 249,6 497,12 647,-16 185,-34 278,-116 371,-198 52,-46 105,-92 181,-106 117,-22 266,6 412,34 13,2 25,5 68,13 107,19 184,21 245,15zm-70 -2334l70 -396c-55,-20 -103,-51 -152,-80 -159,-95 -321,-192 -514,-224 -185,-30 -301,15 -416,60 -64,25 -129,50 -206,38 -109,-18 -321,-102 -533,-185 -231,-90 -461,-180 -614,-206 -166,-27 -322,3 -478,34 -121,24 -243,48 -338,31 -215,-37 -326,-120 -400,-175 -27,-19 -51,-37 -74,-52l-77 434c103,69 250,146 482,187 168,29 326,-2 484,-33 121,-24 242,-48 337,-32 109,18 321,101 533,184 230,91 461,181 614,206 185,31 300,-14 415,-59 65,-25 130,-51 207,-38 116,19 247,97 375,173 91,54 182,107 285,133zm-862 1192l0 -376c-56,-10 -110,-33 -163,-53 -173,-65 -350,-132 -544,-130 -189,2 -295,66 -400,131 -60,36 -119,72 -196,73 -112,1 -335,-44 -558,-89 -243,-49 -486,-98 -639,-97 -169,2 -317,59 -466,117 -116,44 -231,89 -327,89 -216,1 -341,-62 -425,-104 -29,-14 -56,-27 -82,-38l0 442c113,49 270,99 507,99 171,-1 321,-59 471,-116 115,-45 230,-89 325,-90 113,-1 335,44 558,89 243,49 486,98 639,96 189,-2 295,-66 401,-131 59,-36 118,-72 195,-73 119,-1 261,53 400,106 78,28 152,57 234,72 -132,39 -229,107 -338,203 -42,37 -76,72 -133,82 -145,27 -391,12 -543,8 -205,-5 -468,-20 -668,18 -101,19 -191,54 -279,98 -188,-37 -364,-69 -467,-68 -115,1 -239,49 -362,97 -61,23 -122,46 -184,65 -54,1 -106,14 -152,36 -32,5 -64,8 -97,8l-6 1c-95,0 -259,-22 -400,-76 -163,-62 -299,-167 -301,-334l0 -1103c0,-117 119,-164 215,-111 39,21 76,45 115,69 118,75 248,156 376,155 115,-1 239,-49 363,-96 131,-51 263,-101 402,-109 73,14 145,18 219,15 127,18 278,48 430,79 227,46 455,92 578,90 71,-1 126,-21 177,-47 182,73 400,162 584,192 176,30 307,-2 469,-65 121,-47 154,-46 272,9 4,249 0,501 0,750 -68,-1 -133,4 -200,17zm-2480 -1235c-94,-16 -252,-66 -382,-143 -150,-90 -265,-217 -238,-381l192 -1087c20,-117 147,-140 230,-72 32,26 66,57 101,88 280,253 356,256 718,186 148,-29 295,-58 444,-33 142,23 368,112 594,200 216,85 433,170 553,190 104,17 181,-13 259,-43 102,-40 205,-80 363,-54 149,25 280,99 410,174 45,26 90,52 124,69 50,27 95,8 124,-4 33,-14 59,-24 97,-18 89,16 114,73 84,243l-174 985c-18,102 -101,186 -205,200 -73,10 -153,-9 -227,-48 -145,-75 -316,-196 -473,-223 -105,-17 -182,13 -259,44 -103,40 -205,80 -363,54 -142,-24 -368,-112 -594,-201 -217,-85 -433,-170 -553,-190 -114,-18 -244,7 -375,32 -157,31 -289,57 -450,32zm260 3479c-98,17 -263,24 -411,-4 -171,-33 -323,-113 -354,-277l-192 -1086c-4,-26 -2,-49 5,-70 16,-46 55,-76 101,-84 68,-12 152,31 212,55 129,53 271,111 397,87 113,-21 227,-89 340,-157 130,-78 259,-156 407,-183 140,-27 383,-21 626,-15 232,6 464,12 585,-11 103,-19 166,-74 228,-129 83,-73 165,-146 323,-175 149,-28 297,-2 445,23 50,9 99,18 140,23 97,13 118,-82 200,-96 90,-16 132,29 162,200l174 984c3,21 4,46 1,73 -16,118 -102,197 -217,218 -90,16 -196,-8 -285,-23 -131,-23 -262,-45 -375,-24 -103,19 -165,74 -228,129 -82,73 -165,145 -323,175 -140,26 -383,20 -626,14 -232,-5 -464,-11 -585,11 -113,22 -227,90 -341,158 -129,78 -258,156 -409,184z"/>
</svg>