<?xml version="1.0" encoding="UTF-8"?>
<!DOCTYPE svg PUBLIC "-//W3C//DTD SVG 1.1//EN" "http://www.w3.org/Graphics/SVG/1.1/DTD/svg11.dtd">
<svg xmlns="http://www.w3.org/2000/svg" xml:space="preserve" width="580px" height="580px" shape-rendering="geometricPrecision" text-rendering="geometricPrecision" image-rendering="optimizeQuality" fill-rule="nonzero" clip-rule="nonzero" viewBox="0 0 5800 5800" xmlns:xlink="http://www.w3.org/1999/xlink">
	<title>bacon icon</title>
	<desc>bacon icon from the IconExperience.com I-Collection. Copyright by INCORS GmbH (www.incors.com).</desc>
		<path id="curve28"  d="M1004 3812c-98,1 -262,-21 -403,-75 -163,-62 -299,-167 -301,-334l0 -1103c0,-52 26,-100 75,-121 44,-20 99,-13 140,10 39,21 76,45 115,69 118,75 248,156 376,155 246,-3 495,-190 765,-205 8,1 15,3 22,4 67,11 132,14 197,11 127,18 278,48 430,79 227,46 455,92 578,90 71,-1 126,-21 177,-47 182,73 400,162 584,192 176,30 307,-2 469,-65 52,-20 96,-41 153,-32 35,6 76,21 119,41 4,249 0,501 0,750 -61,-1 -124,3 -190,15l-10 2 0 -376c-56,-10 -110,-33 -163,-53 -173,-65 -350,-132 -544,-130 -189,2 -295,66 -400,131 -60,36 -119,72 -196,73 -112,1 -335,-44 -558,-89 -243,-49 -486,-98 -639,-97 -298,3 -558,206 -793,206 -216,1 -341,-62 -425,-104 -29,-14 -56,-27 -82,-38l0 442c113,49 270,99 507,99 303,-1 556,-204 796,-206 113,-1 335,44 558,89 243,49 486,98 639,96 189,-2 295,-66 401,-131 59,-36 118,-72 195,-73 119,-1 261,53 400,106 78,28 152,57 234,72 -132,39 -229,107 -338,203 -42,37 -76,72 -133,82 -145,27 -391,12 -543,8 -205,-5 -468,-20 -668,18 -101,19 -191,54 -279,98 -188,-37 -364,-69 -467,-68 -173,2 -375,110 -546,162 -54,1 -106,14 -152,36 -32,5 -64,8 -100,8zm4158 -1756l70 -396c-55,-20 -103,-51 -152,-80 -159,-95 -321,-192 -514,-224 -185,-30 -301,15 -416,60 -64,25 -129,50 -206,38 -109,-18 -321,-102 -533,-185 -231,-90 -461,-180 -614,-206 -166,-27 -322,3 -478,34 -306,60 -474,52 -738,-144 -27,-19 -51,-37 -74,-52l-77 434c322,215 601,226 966,154 121,-24 242,-48 337,-32 109,18 321,101 533,184 230,91 461,181 614,206 185,31 300,-14 415,-59 65,-25 130,-51 207,-38 116,19 247,97 375,173 91,54 182,107 285,133zm-3724 -186c-150,-90 -265,-217 -238,-381l192 -1087c4,-26 14,-47 28,-64 13,-15 47,-43 66,-43 20,-5 39,-5 57,-1 33,5 67,26 79,36 32,26 66,57 101,88 104,94 217,197 344,218 113,18 243,-7 374,-32 148,-29 295,-58 444,-33 142,23 368,112 594,200 216,85 433,170 553,190 104,17 181,-13 259,-43 102,-40 205,-80 363,-54 149,25 280,99 410,174 88,50 145,108 248,65 33,-14 59,-24 97,-18 89,16 114,73 84,243l-174 985c-3,20 -11,44 -24,69 -55,105 -163,150 -278,130 -90,-16 -181,-74 -260,-119 -116,-66 -231,-132 -343,-151 -216,-35 -348,143 -622,98 -142,-24 -368,-112 -594,-201 -217,-85 -433,-170 -553,-190 -114,-18 -244,7 -375,32 -324,64 -539,63 -832,-111zm3794 2520l-70 -397c-248,1 -432,-113 -729,-57 -293,55 -376,271 -551,304 -359,67 -835,-45 -1211,25 -166,31 -302,113 -438,195 -268,162 -428,211 -744,118 -31,-10 -59,-18 -87,-24l77 435c376,92 642,6 960,-186 106,-64 211,-128 305,-145 359,-67 835,44 1211,-26 293,-55 377,-271 552,-304 229,-43 487,86 725,62zm-3563 1098c-171,-33 -323,-113 -354,-277l-192 -1086c-4,-26 -2,-49 5,-70 27,-78 115,-102 188,-77 7,0 109,42 125,48 129,53 271,111 397,87 113,-21 227,-89 340,-157 130,-78 259,-156 407,-183 140,-27 383,-21 626,-15 232,6 464,12 585,-11 103,-19 166,-74 228,-129 83,-73 165,-146 323,-175 149,-28 297,-2 445,23 50,9 99,18 140,23 97,13 118,-82 200,-96 90,-16 132,29 162,200l174 984c3,21 4,46 1,73 -6,42 -23,90 -58,131 -35,41 -86,74 -159,87 -195,34 -438,-89 -660,-47 -214,40 -277,253 -551,304 -372,70 -848,-42 -1211,25 -113,22 -227,90 -341,158 -283,170 -485,244 -820,180z"/>
</svg>