<?xml version="1.0" encoding="UTF-8"?>
<!DOCTYPE svg PUBLIC "-//W3C//DTD SVG 1.1//EN" "http://www.w3.org/Graphics/SVG/1.1/DTD/svg11.dtd">
<svg xmlns="http://www.w3.org/2000/svg" xml:space="preserve" width="580px" height="580px" shape-rendering="geometricPrecision" text-rendering="geometricPrecision" image-rendering="optimizeQuality" fill-rule="nonzero" clip-rule="nonzero" viewBox="0 0 5800 5800" xmlns:xlink="http://www.w3.org/1999/xlink">
	<title>bacteria icon</title>
	<desc>bacteria icon from the IconExperience.com I-Collection. Copyright by INCORS GmbH (www.incors.com).</desc>
		<path id="curve28"  d="M5148 3812l-1463 -1462c-102,-102 -235,-153 -368,-153 -133,0 -266,51 -367,153 -202,202 -202,533 0,735l1462 1463c102,101 235,152 368,152 287,0 520,-233 520,-520 0,-133 -51,-266 -152,-368zm-3674 -150c366,-380 659,-762 884,-1172 225,-412 389,-858 505,-1376 63,-278 -114,-559 -393,-622 -279,-62 -559,115 -622,394 -95,420 -226,779 -409,1110 -234,425 -450,592 -715,944 -95,96 -147,236 -144,370 2,133 55,265 159,364l0 1 1 1 0 0 0 0 0 0c1,1 2,2 3,3 103,97 235,144 366,141 143,-2 265,-58 365,-158zm-894 -859c288,-299 511,-588 684,-903 174,-315 299,-657 389,-1058 87,-386 474,-631 861,-544 327,74 561,367 561,702l1354 0c397,0 720,322 720,720 0,398 -323,720 -720,720l-371 0 1231 1231c141,140 211,325 211,509 0,398 -322,720 -720,720 -250,0 -401,-102 -569,-270l-1583 793c-233,116 -499,95 -705,-33 -189,-118 -311,-315 -334,-535 -29,-278 134,-619 402,-723l1148 -575 -331 -331c-206,-206 -267,-518 -155,-786l-44 0c-24,49 -50,98 -76,146 -234,426 -532,816 -910,1209 -58,69 -169,138 -252,172 -83,34 -171,51 -258,53 -182,3 -365,-62 -507,-196 -139,-115 -222,-334 -226,-511 -3,-182 62,-365 200,-510zm2468 -1603c-88,379 -200,721 -343,1040l73 0c137,-155 332,-243 539,-243 225,0 387,88 541,243l571 0c287,0 520,-233 520,-520 0,-287 -233,-520 -520,-520l-1381 0zm-2309 2475l0 0m2548 31l-1216 609c-256,128 -360,441 -232,698 126,257 445,359 699,232l1525 -764 -776 -775z"/>
</svg>