<?xml version="1.0" encoding="UTF-8"?>
<!DOCTYPE svg PUBLIC "-//W3C//DTD SVG 1.1//EN" "http://www.w3.org/Graphics/SVG/1.1/DTD/svg11.dtd">
<svg xmlns="http://www.w3.org/2000/svg" xml:space="preserve" width="580px" height="580px" shape-rendering="geometricPrecision" text-rendering="geometricPrecision" image-rendering="optimizeQuality" fill-rule="nonzero" clip-rule="nonzero" viewBox="0 0 5800 5800" xmlns:xlink="http://www.w3.org/1999/xlink">
	<title>bacteria icon</title>
	<desc>bacteria icon from the IconExperience.com I-Collection. Copyright by INCORS GmbH (www.incors.com).</desc>
		<path id="curve28"  d="M3826 2208l1463 1463c280,280 280,738 0,1018 -280,280 -738,280 -1018,0l-1463 -1463c-280,-279 -280,-738 0,-1018 280,-280 739,-280 1018,0zm-2209 1593c-138,142 -321,215 -504,219 -398,7 -725,-309 -733,-707 -3,-182 62,-365 200,-510 288,-299 511,-588 684,-903 174,-315 299,-657 389,-1058 87,-386 474,-631 861,-544 386,87 631,474 544,860 -63,278 -138,536 -229,780 -58,36 -113,79 -162,129 -196,196 -293,468 -265,743 -221,357 -495,701 -785,991zm1658 -2801l1154 0c397,0 720,322 720,720 0,398 -323,720 -720,720l-88 0 -373 -373c-233,-233 -572,-323 -889,-239 69,-204 126,-413 174,-626 15,-68 22,-135 22,-202zm-1293 3137l969 -485 1072 1072 -1398 700c-177,88 -373,97 -547,39 -378,-126 -582,-533 -456,-910 57,-172 179,-322 360,-416z"/>
</svg>