<?xml version="1.0" encoding="UTF-8"?>
<!DOCTYPE svg PUBLIC "-//W3C//DTD SVG 1.1//EN" "http://www.w3.org/Graphics/SVG/1.1/DTD/svg11.dtd">
<svg xmlns="http://www.w3.org/2000/svg" xml:space="preserve" width="580px" height="580px" shape-rendering="geometricPrecision" text-rendering="geometricPrecision" image-rendering="optimizeQuality" fill-rule="nonzero" clip-rule="nonzero" viewBox="0 0 5800 5800" xmlns:xlink="http://www.w3.org/1999/xlink">
	<title>badminton_racket icon</title>
	<desc>badminton_racket icon from the IconExperience.com I-Collection. Copyright by INCORS GmbH (www.incors.com).</desc>
	<path id="curve0" d="M5094 2474c-290,290 -651,456 -1000,490 -270,27 -533,-26 -752,-161 -68,48 -156,59 -233,30l-1204 1204c10,39 9,76 -4,114l-149 447c-5,15 -14,29 -24,39l-936 936c-77,78 -205,78 -283,0l-282 -282c-78,-78 -78,-205 0,-283l935 -936c14,-14 31,-23 49,-27l438 -146c38,-13 75,-14 114,-4l1203 -1202c-33,-79 -22,-171 28,-240 -133,-218 -184,-479 -158,-747 34,-349 200,-710 490,-1000 290,-290 651,-456 1000,-490 355,-35 698,67 945,313 246,247 348,590 313,945 -34,349 -200,710 -490,1000zm-141 -142c256,-256 403,-573 433,-876 29,-298 -54,-583 -257,-785 -202,-203 -487,-286 -785,-257 -303,30 -620,177 -876,433 -257,257 -404,574 -434,877 -29,298 54,583 257,785 202,203 487,286 785,257 304,-30 620,-177 877,-434zm-3242 1756l-423 141c-77,77 -920,920 -920,920l283 283 920 -920 140 -424z"/>
</svg>