<?xml version="1.0" encoding="UTF-8"?>
<!DOCTYPE svg PUBLIC "-//W3C//DTD SVG 1.1//EN" "http://www.w3.org/Graphics/SVG/1.1/DTD/svg11.dtd">
<svg xmlns="http://www.w3.org/2000/svg" xml:space="preserve" width="580px" height="580px" shape-rendering="geometricPrecision" text-rendering="geometricPrecision" image-rendering="optimizeQuality" fill-rule="nonzero" clip-rule="nonzero" viewBox="0 0 5800 5800" xmlns:xlink="http://www.w3.org/1999/xlink">
	<title>badminton_racket icon</title>
	<desc>badminton_racket icon from the IconExperience.com I-Collection. Copyright by INCORS GmbH (www.incors.com).</desc>
	<path id="curve0"  d="M1728 4637l-936 936c-2,3 -5,5 -7,7 -79,71 -201,68 -276,-7l-282 -282c-78,-78 -78,-205 0,-283l935 -936c14,-14 31,-23 49,-27l438 -146c38,-13 75,-14 114,-4l1203 -1202c-33,-79 -22,-170 28,-240 -133,-218 -184,-479 -158,-747 74,-753 737,-1416 1490,-1490 766,-75 1333,492 1258,1258 -74,753 -737,1416 -1490,1490 -270,27 -533,-26 -752,-161 -68,48 -156,59 -233,30l-1204 1204c10,39 9,76 -4,114l-149 447c-5,15 -14,29 -24,39zm2616 -4223c-655,64 -1245,654 -1310,1310 -63,641 401,1105 1042,1042 655,-65 1246,-655 1310,-1310 63,-642 -401,-1105 -1042,-1042z"/>
</svg>