<?xml version="1.0" encoding="UTF-8"?>
<!DOCTYPE svg PUBLIC "-//W3C//DTD SVG 1.1//EN" "http://www.w3.org/Graphics/SVG/1.1/DTD/svg11.dtd">
<svg xmlns="http://www.w3.org/2000/svg" xml:space="preserve" width="580px" height="580px" shape-rendering="geometricPrecision" text-rendering="geometricPrecision" image-rendering="optimizeQuality" fill-rule="nonzero" clip-rule="nonzero" viewBox="0 0 5800 5800" xmlns:xlink="http://www.w3.org/1999/xlink">
	<title>bag icon</title>
	<desc>bag icon from the IconExperience.com I-Collection. Copyright by INCORS GmbH (www.incors.com).</desc>
	<path id="curve0"  d="M1466 2006c476,62 954,94 1434,94 480,0 958,-32 1434,-94 -33,-267 -78,-531 -134,-791 -40,-187 -200,-315 -391,-315l0 -200c155,0 303,58 415,165l167 -201c56,-66 9,-164 -77,-164l-2828 0c-78,0 -126,82 -87,150l143 251c114,-129 277,-201 449,-201l0 200c-191,0 -351,128 -391,315 -56,260 -101,524 -134,791zm2954 2901l175 290c78,132 -15,303 -172,303l-3046 0c-157,0 -250,-171 -172,-303l175 -290c-120,-594 -180,-1201 -180,-1807 0,-326 17,-650 51,-971 35,-324 86,-643 154,-955 5,-26 12,-51 21,-75l-201 -351c-114,-199 31,-448 261,-448l2828 0c252,0 395,295 230,492l-199 239c22,44 39,92 50,143 68,312 119,631 154,955 34,321 51,645 51,971 0,606 -60,1213 -180,1807zm-3044 393c284,0 3048,0 3048,0 0,0 -83,-139 -92,-153 -37,34 -85,53 -135,53l-97 0 0 -200 97 0c100,-461 163,-929 189,-1400 -492,66 -989,100 -1486,100 -497,0 -994,-34 -1486,-100 26,471 89,939 189,1400l97 0 0 200 -97 0c-47,0 -90,-16 -125,-44 -3,-3 -7,-6 -10,-9 -9,15 -92,152 -92,153zm2980 -3096c-483,64 -970,96 -1456,96 -486,0 -973,-32 -1456,-96 -29,294 -44,592 -44,896 0,100 2,199 5,298 495,68 995,102 1495,102 500,0 1000,-34 1495,-102 3,-99 5,-198 5,-298 0,-304 -15,-602 -44,-896z"/>
</svg>