<?xml version="1.0" encoding="UTF-8"?>
<!DOCTYPE svg PUBLIC "-//W3C//DTD SVG 1.1//EN" "http://www.w3.org/Graphics/SVG/1.1/DTD/svg11.dtd">
<svg xmlns="http://www.w3.org/2000/svg" xml:space="preserve" width="580px" height="580px" shape-rendering="geometricPrecision" text-rendering="geometricPrecision" image-rendering="optimizeQuality" fill-rule="nonzero" clip-rule="nonzero" viewBox="0 0 5800 5800" xmlns:xlink="http://www.w3.org/1999/xlink">
	<title>bag icon</title>
	<desc>bag icon from the IconExperience.com I-Collection. Copyright by INCORS GmbH (www.incors.com).</desc>
	<path id="curve0"  d="M1225 749c-114,-200 31,-449 261,-449l2828 0c252,0 395,295 230,492l-199 239c22,44 39,92 50,143 265,1225 273,2504 25,3733l175 290c79,133 -17,303 -172,303l-3046 0c-155,0 -251,-170 -172,-303l175 -290c-248,-1229 -240,-2508 25,-3733 5,-26 12,-51 21,-75l-201 -350zm241 1257c-8,66 -15,132 -22,198 969,127 1943,127 2912,0 -7,-66 -14,-132 -22,-198 -953,125 -1915,125 -2868,0zm2920 1594c4,-67 7,-134 9,-202 -992,136 -1998,136 -2990,0 2,68 5,135 9,202 987,133 1985,133 2972,0z"/>
</svg>