<?xml version="1.0" encoding="UTF-8"?>
<!DOCTYPE svg PUBLIC "-//W3C//DTD SVG 1.1//EN" "http://www.w3.org/Graphics/SVG/1.1/DTD/svg11.dtd">
<svg xmlns="http://www.w3.org/2000/svg" xml:space="preserve" width="580px" height="580px" shape-rendering="geometricPrecision" text-rendering="geometricPrecision" image-rendering="optimizeQuality" fill-rule="nonzero" clip-rule="nonzero" viewBox="0 0 5800 5800" xmlns:xlink="http://www.w3.org/1999/xlink">
	<title>bags icon</title>
	<desc>bags icon from the IconExperience.com I-Collection. Copyright by INCORS GmbH (www.incors.com).</desc>
	<path id="curve0"  d="M266 713c-105,-184 28,-413 240,-413l1977 0c-136,92 -226,237 -247,400l-580 0c-363,0 -593,396 -413,712l132 233c-16,76 -31,153 -45,230 -277,-12 -553,-36 -828,-72 -8,66 -16,132 -22,198 271,35 543,60 815,72 -54,340 -87,684 -98,1027 -251,-14 -502,-39 -751,-73 2,68 5,136 9,203 245,33 491,56 737,70 -5,535 43,1074 142,1600l-925 0c-145,0 -235,-160 -161,-284l151 -252c-217,-1081 -209,-2208 23,-3285 5,-22 11,-42 18,-62l-174 -304zm1386 1690c-8,66 -16,132 -22,198 845,110 1695,110 2540,0 -6,-66 -14,-132 -22,-198 -829,108 -1667,108 -2496,0zm-56 1225c2,67 5,135 9,202 861,114 1730,114 2590,0 4,-67 7,-135 9,-202 -865,117 -1743,117 -2608,0zm-180 -2315c-105,-184 28,-413 240,-413l2489 0c166,0 295,147 274,311 -16,119 -156,253 -233,346 18,38 32,78 42,122 120,556 180,1127 180,1697 0,532 -53,1066 -157,1588l151 252c75,124 -16,284 -161,284l-2682 0c-145,0 -236,-160 -161,-284l151 -252c-217,-1081 -209,-2208 23,-3285 5,-22 11,-42 18,-62l-174 -304zm1124 -613c35,-118 142,-200 266,-200l2488 0c232,0 363,271 212,452l-170 205c18,38 32,78 42,121 232,1079 240,2205 23,3286l151 252c74,124 -16,284 -161,284l-826 0 -104 -173c90,-469 139,-949 146,-1427 51,-3 101,-6 151,-10 198,-14 393,-34 587,-60 4,-67 7,-135 9,-203 -201,28 -404,49 -610,64 -45,3 -91,6 -136,9 -4,-344 -29,-688 -74,-1028 67,-4 135,-8 202,-12 196,-14 391,-34 584,-59 -2,-20 -4,-40 -6,-59 -5,-47 -10,-93 -16,-139 -190,25 -381,44 -575,57 -72,6 -145,10 -218,13 -24,-147 -51,-292 -82,-436 -3,-14 -6,-28 -10,-41 97,-117 182,-199 203,-360 36,-281 -185,-536 -471,-536l-1605 0z"/>
</svg>