<?xml version="1.0" encoding="UTF-8"?>
<!DOCTYPE svg PUBLIC "-//W3C//DTD SVG 1.1//EN" "http://www.w3.org/Graphics/SVG/1.1/DTD/svg11.dtd">
<svg xmlns="http://www.w3.org/2000/svg" xml:space="preserve" width="580px" height="580px" shape-rendering="geometricPrecision" text-rendering="geometricPrecision" image-rendering="optimizeQuality" fill-rule="nonzero" clip-rule="nonzero" viewBox="0 0 5800 5800" xmlns:xlink="http://www.w3.org/1999/xlink">
	<title>bags icon</title>
	<desc>bags icon from the IconExperience.com I-Collection. Copyright by INCORS GmbH (www.incors.com).</desc>
	<path id="curve0"  d="M1652 2403c414,54 830,81 1248,81 418,0 834,-27 1248,-81 -28,-231 -67,-459 -116,-683 -34,-159 -170,-268 -332,-268l0 -200c135,0 264,49 364,140l139 -167c42,-51 7,-125 -58,-125l-2489 0c-60,0 -96,62 -67,114l118 206c103,-108 244,-168 393,-168l0 200c-162,0 -298,109 -332,268 -49,224 -87,452 -116,683zm2853 -330c73,-3 146,-7 218,-13 194,-13 385,-32 575,-57 -28,-231 -67,-459 -116,-683 -34,-159 -170,-268 -332,-268l0 -200c135,0 264,49 364,140l139 -167c42,-51 7,-125 -59,-125 -918,0 -1836,0 -2754,0 35,-118 142,-200 266,-200l2488 0c232,0 363,271 212,452l-170 205c18,38 32,78 42,121 59,276 104,557 135,842 30,283 45,568 45,856 0,532 -53,1066 -157,1588l151 252c74,124 -16,284 -161,284l-826 0 -104 -173 5 -27 904 0 -63 -104c-32,25 -73,40 -116,40l-85 0 0 -200 75 0c86,-397 141,-800 164,-1206 -245,33 -491,56 -738,70 1,-67 1,-133 1,-200 249,-15 498,-39 746,-73 3,-83 4,-167 4,-251 0,-263 -13,-521 -38,-775 -193,25 -388,45 -584,59 -67,4 -135,8 -202,12 -9,-67 -19,-133 -29,-199zm-3171 2827l-925 0c-145,0 -235,-160 -161,-284l151 -252c-104,-522 -157,-1056 -157,-1588 0,-287 15,-573 45,-855 31,-286 76,-567 135,-842 5,-22 11,-42 18,-62l-174 -304c-105,-184 28,-413 240,-413l1977 0c-76,51 -138,119 -182,200l-1795 0c-60,0 -96,62 -67,114l118 206c103,-108 244,-168 393,-168l0 200c-162,0 -298,109 -332,268 -49,224 -87,452 -116,683 190,25 381,44 575,57 84,6 168,11 253,15 -13,66 -24,132 -35,198 -77,-3 -154,-8 -231,-13 -196,-14 -391,-34 -584,-59 -25,254 -38,512 -38,775 0,84 1,168 4,251 249,34 500,59 751,73 -3,67 -4,133 -5,200 -246,-14 -492,-37 -737,-70 23,406 78,809 164,1206l75 0 0 200 -85 0c-43,0 -84,-15 -116,-40l-63 104 869 0c11,67 22,134 35,200zm2917 64l151 252c74,124 -16,284 -161,284l-2682 0c-145,0 -235,-160 -161,-284l151 -252c-47,-238 -85,-480 -111,-725 -30,-285 -46,-573 -46,-863 0,-287 15,-573 45,-855 31,-286 76,-567 135,-842 5,-22 11,-42 18,-62l-174 -304c-105,-184 28,-413 240,-413l2489 0c235,0 360,274 211,452l-170 205c18,38 32,78 42,122 59,275 104,556 135,841 30,283 45,568 45,856 0,290 -16,578 -46,863 -26,245 -64,487 -111,725zm-2608 232l-63 104 2640 0 -63 -104c-32,25 -73,40 -116,40l-85 0 0 -200 75 0c59,-269 103,-542 132,-819 14,-127 25,-257 32,-387 -429,57 -862,86 -1295,86 -433,0 -866,-29 -1295,-86 7,130 18,260 32,387 29,277 73,550 132,819l75 0 0 200 -85 0c-43,0 -84,-15 -116,-40zm2527 -2595c-421,55 -845,83 -1270,83 -424,0 -849,-28 -1270,-83 -25,254 -38,512 -38,775 0,84 1,168 4,252 432,58 868,88 1304,88 436,0 872,-30 1304,-88 3,-84 4,-168 4,-252 0,-263 -13,-521 -38,-775z"/>
</svg>