<?xml version="1.0" encoding="UTF-8"?>
<!DOCTYPE svg PUBLIC "-//W3C//DTD SVG 1.1//EN" "http://www.w3.org/Graphics/SVG/1.1/DTD/svg11.dtd">
<svg xmlns="http://www.w3.org/2000/svg" xml:space="preserve" width="580px" height="580px" shape-rendering="geometricPrecision" text-rendering="geometricPrecision" image-rendering="optimizeQuality" fill-rule="nonzero" clip-rule="nonzero" viewBox="0 0 5800 5800" xmlns:xlink="http://www.w3.org/1999/xlink">
	<title>ballpen icon</title>
	<desc>ballpen icon from the IconExperience.com I-Collection. Copyright by INCORS GmbH (www.incors.com).</desc>
		<path id="curve28"  d="M351 5449c-58,-59 -58,-154 0,-212l121 -121c70,71 141,142 212,212l-121 121c-58,58 -154,58 -212,0zm1919 -3192c36,36 59,86 59,142 0,110 -90,200 -200,200 -111,0 -200,-90 -200,-200 0,-58 24,-112 67,-150l1343 -1344c59,-58 143,-73 223,-73l247 0c34,0 81,-11 107,-33 226,-188 360,-266 505,-350 150,-87 249,-161 437,-138 107,13 211,61 292,143l196 196c82,81 130,185 143,292 23,192 -55,292 -139,439 -149,257 -277,479 -1022,1222l-70 70 -1061 -1060 382 -382 230 -199 -247 -1c-19,0 -68,2 -82,16l-1210 1210zm-344 486c59,35 129,56 203,56 220,0 400,-180 400,-400 0,-36 -5,-71 -14,-104l541 -541 1060 1060 -1397 1393c-189,189 -411,373 -635,535l-1031 -1031c156,-216 334,-430 518,-613l355 -355zm-9 2115c-117,78 -232,148 -343,209 -381,207 -713,291 -851,152l-142 -142c-142,-142 -55,-486 160,-879 57,-103 123,-211 196,-321l980 981z"/>
</svg>