<?xml version="1.0" encoding="UTF-8"?>
<!DOCTYPE svg PUBLIC "-//W3C//DTD SVG 1.1//EN" "http://www.w3.org/Graphics/SVG/1.1/DTD/svg11.dtd">
<svg xmlns="http://www.w3.org/2000/svg" xml:space="preserve" width="580px" height="580px" shape-rendering="geometricPrecision" text-rendering="geometricPrecision" image-rendering="optimizeQuality" fill-rule="nonzero" clip-rule="nonzero" viewBox="0 0 5800 5800" xmlns:xlink="http://www.w3.org/1999/xlink">
	<title>balloons icon</title>
	<desc>balloons icon from the IconExperience.com I-Collection. Copyright by INCORS GmbH (www.incors.com).</desc>
		<path id="curve29"  d="M3566 407c875,34 1535,724 1535,1599 0,803 -502,1490 -1291,1679 578,899 -419,1121 73,1860 -55,37 -111,73 -166,110 -240,-359 -205,-608 -116,-838 53,-137 130,-269 167,-411 -5,0 -10,0 -15,0l-504 0c-68,0 -128,-32 -166,-88 -37,-55 -45,-124 -20,-186l138 -344 0 -101c-142,-33 -279,-85 -408,-153 87,-28 172,-62 255,-103 85,33 173,59 263,76 49,5 87,44 90,93l200 0c3,-45 36,-83 82,-92 740,-135 1218,-760 1218,-1502 0,-689 -464,-1257 -1143,-1377 -58,-79 -122,-153 -192,-222zm35 3393l-200 0c-1,16 -1,28 -7,43l-33 82 -113 281 506 0c0,1 -97,-241 -143,-356 -8,-17 -10,-31 -10,-50zm999 -1800c0,299 -95,574 -264,788 -195,246 -518,426 -836,427l0 -94c39,-37 77,-75 113,-115 237,-48 431,-171 567,-343 141,-178 220,-409 220,-663l200 0z"/>
	<path id="curve28"  d="M3400 1700c0,299 -95,574 -264,788 -195,246 -518,426 -836,427l0 -199c534,-2 900,-517 900,-1016l200 0zm-1100 -1600c901,0 1600,698 1600,1600 0,804 -504,1491 -1294,1680 146,233 169,468 137,684 -33,219 -124,414 -199,564 -36,70 -60,145 -69,224 -24,203 58,393 182,550 35,45 73,88 113,127 -47,47 -93,95 -140,142 -226,-224 -392,-517 -354,-843 11,-94 40,-191 90,-290 70,-140 134,-284 167,-438l-485 0c-68,0 -128,-33 -166,-88 -37,-55 -45,-124 -20,-186l138 -345 0 -100c-793,-186 -1300,-874 -1300,-1681 0,-902 699,-1600 1600,-1600zm0 200c-791,0 -1400,609 -1400,1400 0,739 475,1362 1210,1501 51,5 90,47 90,99l200 0c0,-47 34,-89 82,-98 740,-135 1218,-761 1218,-1502 0,-791 -609,-1400 -1400,-1400zm-100 3200c0,12 -3,25 -7,37l-145 363 504 0c-1,0 -130,-327 -142,-356 -6,-13 -10,-28 -10,-44l-200 0z"/>
</svg>