<?xml version="1.0" encoding="UTF-8"?>
<!DOCTYPE svg PUBLIC "-//W3C//DTD SVG 1.1//EN" "http://www.w3.org/Graphics/SVG/1.1/DTD/svg11.dtd">
<svg xmlns="http://www.w3.org/2000/svg" xml:space="preserve" width="580px" height="580px" shape-rendering="geometricPrecision" text-rendering="geometricPrecision" image-rendering="optimizeQuality" fill-rule="nonzero" clip-rule="nonzero" viewBox="0 0 5800 5800" xmlns:xlink="http://www.w3.org/1999/xlink">
	<title>balloons icon</title>
	<desc>balloons icon from the IconExperience.com I-Collection. Copyright by INCORS GmbH (www.incors.com).</desc>
		<path id="curve28"  d="M2300 100c901,0 1600,698 1600,1600 0,807 -507,1495 -1300,1681l-600 0c-793,-186 -1300,-874 -1300,-1681 0,-902 699,-1600 1600,-1600zm-451 3821c-4,-32 1,-64 13,-95l131 -326 614 0 131 326c12,31 17,63 13,95 -11,102 -96,179 -199,179l-504 0c-103,0 -188,-78 -199,-179zm1551 -2221l-200 0c0,493 -299,909 -791,1007 -36,4 -74,9 -109,9l0 199c44,0 99,-3 142,-11 589,-115 958,-614 958,-1204zm-770 3971c-152,-150 -281,-335 -333,-544 -52,-204 -26,-402 69,-589 48,-96 103,-211 141,-338 87,0 149,-4 221,-57 -40,187 -118,354 -184,485 -73,144 -93,294 -54,450 44,174 155,327 280,451l-140 142zm1087 -16c-298,-446 -172,-723 -44,-1004 22,-48 43,-96 62,-145l18 0c86,0 167,-36 224,-100 -27,116 -75,223 -123,328 -105,230 -207,456 29,811l-166 110zm-151 -5248c875,34 1535,724 1535,1599 0,798 -496,1481 -1278,1676l-644 0c-134,-34 -264,-83 -386,-148 808,-259 1307,-992 1307,-1834 0,-489 -182,-950 -534,-1293zm240 3393l133 332c12,31 17,64 13,95 -11,102 -96,179 -199,179l-504 0c-142,0 -238,-143 -186,-274l133 -332 610 0z"/>
</svg>