<?xml version="1.0" encoding="UTF-8"?>
<!DOCTYPE svg PUBLIC "-//W3C//DTD SVG 1.1//EN" "http://www.w3.org/Graphics/SVG/1.1/DTD/svg11.dtd">
<svg xmlns="http://www.w3.org/2000/svg" xml:space="preserve" width="580px" height="580px" shape-rendering="geometricPrecision" text-rendering="geometricPrecision" image-rendering="optimizeQuality" fill-rule="nonzero" clip-rule="nonzero" viewBox="0 0 5800 5800" xmlns:xlink="http://www.w3.org/1999/xlink">
	<title>ballpen icon</title>
	<desc>ballpen icon from the IconExperience.com I-Collection. Copyright by INCORS GmbH (www.incors.com).</desc>
		<path id="curve28" d="M684 5328l-121 121c-58,58 -153,58 -212,0 -58,-59 -58,-154 0,-212l121 -121 212 212zm1445 -2730c-111,0 -200,-89 -200,-199 0,-52 19,-103 58,-142 451,-450 901,-901 1352,-1352 59,-58 143,-73 223,-73l247 0c34,0 81,-11 107,-33 226,-188 360,-266 505,-350 35,-20 71,-41 118,-69 197,-120 449,-88 611,74l196 196c163,162 193,413 74,611 2,1 -70,116 -70,121 -149,256 -277,478 -1022,1221l-1609 1604c-335,334 -771,656 -1145,860 -381,207 -713,291 -851,152l-142 -142c-142,-142 -55,-486 160,-879 199,-361 506,-776 830,-1100l354 -355c70,41 150,60 229,55l-442 441c-184,184 -362,399 -516,615l745 745c225,-160 448,-344 637,-534l1397 -1392 -919 -919 141 -141 920 919 71 -71c725,-723 848,-935 989,-1179 0,0 71,-124 73,-124 71,-118 52,-270 -46,-367l-195 -195c-98,-98 -248,-117 -367,-45 -37,22 -79,47 -121,71 -139,80 -266,154 -477,330 -65,54 -152,80 -235,80l-247 -1c-19,0 -68,2 -82,16l-1210 1210 0 1c39,39 59,90 59,141 0,110 -90,200 -200,199zm-1048 1424c-61,92 -116,184 -165,273 -173,315 -263,571 -193,641l141 141c66,67 311,-20 615,-185 95,-52 194,-112 295,-178l-693 -692z"/>
</svg>