<?xml version="1.0" encoding="UTF-8"?>
<!DOCTYPE svg PUBLIC "-//W3C//DTD SVG 1.1//EN" "http://www.w3.org/Graphics/SVG/1.1/DTD/svg11.dtd">
<svg xmlns="http://www.w3.org/2000/svg" xml:space="preserve" width="580px" height="580px" shape-rendering="geometricPrecision" text-rendering="geometricPrecision" image-rendering="optimizeQuality" fill-rule="nonzero" clip-rule="nonzero" viewBox="0 0 5800 5800" xmlns:xlink="http://www.w3.org/1999/xlink">
	<title>balloon icon</title>
	<desc>balloon icon from the IconExperience.com I-Collection. Copyright by INCORS GmbH (www.incors.com).</desc>
		<path id="curve28" d="M4000 1700c0,590 -369,1089 -958,1204 -43,8 -98,11 -142,11l0 -199c11,0 27,-1 47,-3 18,-1 38,-3 62,-6 492,-98 791,-514 791,-1007l200 0zm-770 3971c-152,-150 -281,-335 -333,-544 -52,-204 -26,-402 69,-589 71,-140 134,-284 167,-438l-485 0c-144,0 -238,-144 -186,-274l138 -345 0 -100c-793,-186 -1300,-874 -1300,-1681 0,-902 699,-1600 1600,-1600 901,0 1600,698 1600,1600 0,804 -504,1491 -1294,1680 146,233 169,468 137,684 -33,219 -124,414 -199,564 -72,143 -93,293 -54,450 44,174 155,327 280,451 -47,47 -93,95 -140,142zm-230 -2171l-200 0c0,32 -27,86 -40,117l-112 283 504 0 1 0 0 0 0 0 0 0 0 0c0,0 0,0 0,0l-143 -356c-6,-13 -10,-28 -10,-44zm-100 -3200c-791,0 -1400,609 -1400,1400 0,739 475,1362 1211,1501 63,6 120,16 185,16 66,0 128,-10 193,-16 736,-139 1211,-762 1211,-1501 0,-791 -609,-1400 -1400,-1400z"/>
</svg>