<?xml version="1.0" encoding="UTF-8"?>
<!DOCTYPE svg PUBLIC "-//W3C//DTD SVG 1.1//EN" "http://www.w3.org/Graphics/SVG/1.1/DTD/svg11.dtd">
<svg xmlns="http://www.w3.org/2000/svg" xml:space="preserve" width="580px" height="580px" shape-rendering="geometricPrecision" text-rendering="geometricPrecision" image-rendering="optimizeQuality" fill-rule="nonzero" clip-rule="nonzero" viewBox="0 0 5800 5800" xmlns:xlink="http://www.w3.org/1999/xlink">
	<title>banana icon</title>
	<desc>banana icon from the IconExperience.com I-Collection. Copyright by INCORS GmbH (www.incors.com).</desc>
		<path id="curve28" d="M1283 4631c-198,-57 -482,-177 -671,-356 -146,-137 -238,-309 -205,-516 0,-5 28,-56 28,-56 14,-14 24,-37 34,-61 17,-43 34,-87 78,-130 2,-2 22,-16 22,-16 101,-56 208,-98 323,-128 113,-29 233,-46 361,-50 275,-9 529,-34 767,-84 235,-48 454,-121 664,-225 491,-243 661,-546 828,-842 91,-163 181,-323 318,-476 4,-56 11,-117 18,-182 12,-121 26,-256 29,-399 3,-126 -51,-302 39,-404 13,-15 31,-40 51,-67 74,-103 168,-234 298,-238 30,-1 59,1 88,7 162,-33 339,52 461,111 36,18 7,59 35,45 62,-32 107,-16 137,45 19,38 10,77 -4,138 -13,58 -34,148 -41,246 -5,60 -38,103 -73,147 -16,21 -33,42 -33,43 -4,92 9,186 26,268 26,118 45,192 46,193 175,112 303,296 384,502 91,231 125,492 102,708 -79,720 -424,1364 -925,1824 -499,457 -1154,733 -1855,721 -258,-4 -586,-57 -828,-192 -198,-110 -341,-272 -356,-505 -3,-48 6,-109 20,-154 14,-44 33,-83 58,-125 16,-27 76,-61 102,-78 165,-106 390,-250 561,-275 281,-40 507,-102 706,-191 197,-88 370,-204 546,-353 378,-322 477,-732 561,-1085 57,-234 107,-446 226,-609 -3,-21 -6,-42 -9,-63 -17,-141 -9,-501 48,-636l184 78c-41,96 -46,431 -34,534 4,31 8,61 13,92 6,30 0,62 -21,86 -110,133 -158,337 -213,564 -92,383 -198,827 -626,1191 -189,160 -377,286 -594,383 -216,97 -459,164 -759,207 -128,18 -331,149 -481,245 -16,11 -31,20 -50,32 -29,52 -38,90 -38,150 12,150 113,260 253,338 210,117 502,163 734,167 648,11 1254,-245 1717,-669 467,-429 788,-1029 861,-1698 20,-187 -9,-413 -89,-614 -67,-170 -169,-320 -305,-407 -24,-15 -98,-151 -134,-319 -20,-94 -35,-205 -31,-317 3,-66 40,-114 76,-160 16,-20 31,-37 31,-38 7,-100 26,-189 41,-253 -18,-8 -36,-17 -56,-26 -98,-47 -240,-116 -335,-96 -46,8 -48,3 -92,-2 -11,-1 -21,-2 -29,-1 -31,1 -94,87 -142,155 -23,32 -44,61 -64,83 -10,12 12,231 11,275 -3,155 -17,293 -30,417 -8,76 -15,146 -19,208 -1,23 -10,46 -27,63 -134,143 -224,302 -314,463 -182,323 -367,653 -913,924 -226,112 -461,190 -713,242 -249,51 -514,78 -801,87 -112,4 -218,18 -317,44 -92,24 -180,58 -262,102 -11,14 -18,33 -26,53 -14,34 -27,67 -54,101 -8,119 55,224 149,313 162,154 414,259 589,310l-55 191z"/>
</svg>