<?xml version="1.0" encoding="UTF-8"?>
<!DOCTYPE svg PUBLIC "-//W3C//DTD SVG 1.1//EN" "http://www.w3.org/Graphics/SVG/1.1/DTD/svg11.dtd">
<svg xmlns="http://www.w3.org/2000/svg" xml:space="preserve" width="580px" height="580px" shape-rendering="geometricPrecision" text-rendering="geometricPrecision" image-rendering="optimizeQuality" fill-rule="nonzero" clip-rule="nonzero" viewBox="0 0 5800 5800" xmlns:xlink="http://www.w3.org/1999/xlink">
	<title>banana icon</title>
	<desc>banana icon from the IconExperience.com I-Collection. Copyright by INCORS GmbH (www.incors.com).</desc>
		<path id="curve29"  d="M1609 4345c165,-106 390,-250 561,-275 502,-72 863,-214 1252,-544 378,-322 477,-732 561,-1085 57,-234 107,-446 226,-609 -3,-21 -6,-42 -9,-63 -1,-9 -11,-207 1,-382 5,-73 14,-143 29,-200 -73,-86 -52,-121 -85,-42 -93,259 -61,356 -102,650 -111,185 -204,391 -254,599 -92,383 -183,713 -497,979 -359,305 -687,432 -1151,499 -217,32 -457,187 -640,305 -141,91 -193,148 -243,312 -13,42 -21,84 -25,127 -194,-62 -447,-177 -621,-341 -146,-137 -238,-309 -205,-516 5,-36 44,-72 62,-117 19,-50 51,-119 100,-146 101,-56 208,-98 323,-128 113,-29 233,-46 361,-50 497,-16 981,-86 1431,-309 491,-243 661,-546 828,-842 91,-163 181,-323 318,-476 4,-56 11,-117 18,-182 12,-121 26,-256 29,-399 1,-34 -3,-74 -6,-114 -10,-110 -20,-217 45,-290 13,-15 31,-40 51,-67 74,-103 168,-234 298,-238 30,-1 59,1 88,7 162,-33 339,52 461,111 36,18 7,59 35,45 62,-32 107,-16 137,45 19,38 10,77 -4,138 -13,58 -34,148 -41,246 -7,89 -68,137 -107,207 -1,62 49,429 73,444 175,112 303,296 384,502 91,231 125,492 102,708 -79,720 -424,1364 -925,1824 -499,457 -1154,733 -1855,721 -258,-4 -586,-57 -828,-192 -198,-110 -341,-272 -356,-505 -3,-48 6,-109 20,-154 36,-118 62,-139 160,-203z"/>
</svg>