<?xml version="1.0" encoding="utf-8"?>
<!-- Generator: Adobe Illustrator 19.2.1, SVG Export Plug-In . SVG Version: 6.00 Build 0)  -->
<svg version="1.1" id="band_x5F_control_x5F_gi" xmlns="http://www.w3.org/2000/svg" xmlns:xlink="http://www.w3.org/1999/xlink"
	 x="0px" y="0px" width="580px" height="580px" viewBox="0 0 580 580" style="enable-background:new 0 0 580 580;"
	 xml:space="preserve">
<path d="M30,80v420h520V80H30z M130,480H50v-80h80V480z M130,380H50v-80h80V380z M130,280H50v-80h80V280z M330,180H50v-80h280V180z
	 M230,480h-80v-80h80V480z M230,380h-80v-80h80V380z M230,280h-80v-80h80V280z M330,480h-80v-80h80V480z M330,380h-80v-80h80V380z
	 M330,280h-80v-80h80V280z M430,480h-80v-80h80V480z M430,380h-80v-80h80V380z M430,280h-80v-80h80V280z M530,180H350v-80h180V180z
	 M530,480h-80v-80h80V480z M530,380h-80v-80h80V380z M530,280h-80v-80h80V280z"/>
<path d="M290,290"/>
</svg>
