<?xml version="1.0" encoding="UTF-8"?>
<!DOCTYPE svg PUBLIC "-//W3C//DTD SVG 1.1//EN" "http://www.w3.org/Graphics/SVG/1.1/DTD/svg11.dtd">
<svg xmlns="http://www.w3.org/2000/svg" xml:space="preserve" width="580px" height="580px" shape-rendering="geometricPrecision" text-rendering="geometricPrecision" image-rendering="optimizeQuality" fill-rule="nonzero" clip-rule="nonzero" viewBox="0 0 5800 5800" xmlns:xlink="http://www.w3.org/1999/xlink">
	<title>band_aid icon</title>
	<desc>band_aid icon from the IconExperience.com I-Collection. Copyright by INCORS GmbH (www.incors.com).</desc>
		<path id="curve28"  d="M4182 2756l-1140 -1141 999 -997c156,-156 415,-156 571,0l570 571c156,156 156,414 1,569l-1001 998zm-2994 -2138c157,-156 415,-156 571,0 1143,1139 2283,2282 3423,3423 157,157 157,414 0,571l-570 570c-152,152 -434,160 -576,-5l-3418 -3419c-156,-155 -156,-413 0,-569l570 -571zm2035 2393c-60,-61 -158,-61 -218,0 -60,60 -60,157 0,217 60,61 158,61 218,0 60,-60 60,-157 0,-217zm427 -5c-61,-60 -158,-60 -218,0 -60,61 -60,158 0,218 60,60 157,60 218,0 60,-60 60,-157 0,-218zm-853 -861c-61,-60 -158,-60 -218,0 -60,60 -60,158 0,218 60,60 157,60 218,0 60,-60 60,-158 0,-218zm-2 860c-60,-61 -159,-61 -220,0 -61,61 -61,160 0,221 61,60 160,60 220,0 61,-61 61,-160 0,-221zm-431 -431c-61,-62 -161,-62 -222,0 -61,61 -61,160 0,222 61,61 161,61 222,0 61,-62 61,-161 0,-222zm431 0c-62,-62 -161,-62 -223,0 -61,61 -61,160 0,222 62,61 161,61 223,0 61,-62 61,-161 0,-222zm424 863c-60,-60 -158,-60 -218,0 -60,60 -60,158 0,218 60,60 158,60 218,0 60,-60 60,-158 0,-218zm6 -863c-61,-62 -161,-62 -222,0 -61,61 -61,160 0,222 61,61 161,61 222,0 61,-62 61,-161 0,-222zm-466 1607c-333,334 -667,668 -1000,1001 -156,156 -415,156 -570,0l-571 -570c-157,-157 -157,-414 0,-571l1001 -1002 1140 1142z"/>
</svg>