<?xml version="1.0" encoding="UTF-8"?>
<!DOCTYPE svg PUBLIC "-//W3C//DTD SVG 1.1//EN" "http://www.w3.org/Graphics/SVG/1.1/DTD/svg11.dtd">
<svg xmlns="http://www.w3.org/2000/svg" xml:space="preserve" width="580px" height="580px" shape-rendering="geometricPrecision" text-rendering="geometricPrecision" image-rendering="optimizeQuality" fill-rule="nonzero" clip-rule="nonzero" viewBox="0 0 5800 5800" xmlns:xlink="http://www.w3.org/1999/xlink">
	<title>band_aid icon</title>
	<desc>band_aid icon from the IconExperience.com I-Collection. Copyright by INCORS GmbH (www.incors.com).</desc>
		<path id="curve28"  d="M3223 3011c60,60 60,157 0,217 -60,61 -158,61 -218,0 -60,-60 -60,-157 0,-217 60,-61 158,-61 218,0zm427 -5c60,61 60,158 0,218 -61,60 -158,60 -218,0 -60,-60 -60,-157 0,-218 60,-60 157,-60 218,0zm-853 -861c60,60 60,158 0,218 -61,60 -158,60 -218,0 -60,-60 -60,-158 0,-218 60,-60 157,-60 218,0zm-2 860c61,61 61,160 0,221 -60,60 -159,60 -220,0 -61,-61 -61,-160 0,-221 61,-61 160,-61 220,0zm-431 -431c61,61 61,160 0,222 -61,61 -161,61 -222,0 -61,-62 -61,-161 0,-222 61,-62 161,-62 222,0zm431 0c61,61 61,160 0,222 -62,61 -161,61 -223,0 -61,-62 -61,-161 0,-222 62,-62 161,-62 223,0zm424 863c60,60 60,158 0,218 -60,60 -158,60 -218,0 -60,-60 -60,-158 0,-218 60,-60 158,-60 218,0zm6 -863c61,61 61,160 0,222 -61,61 -161,61 -222,0 -61,-62 -61,-161 0,-222 61,-62 161,-62 222,0zm-2037 -1956c157,-156 415,-156 571,0 1143,1139 2283,2282 3423,3423 157,157 157,414 0,571l-570 570c-156,156 -415,156 -571,0 -1141,-1141 -2282,-2282 -3423,-3424 -156,-155 -155,-414 0,-570l570 -570zm142 141l-571 571c-79,79 -79,208 0,287 1143,1140 2282,2283 3424,3424 79,79 208,79 287,0l571 -571c79,-79 79,-209 0,-288l-3423 -3423c-79,-79 -209,-79 -288,0zm2711 1856l1000 -998c79,-79 79,-208 0,-287l-571 -571c-79,-79 -209,-79 -288,0l-1000 997 -140 -141 999 -997c156,-156 415,-156 571,0l570 571c156,156 156,414 1,569l-1002 998 -140 -141zm-2281 565l-1001 1002c-79,79 -79,209 0,288l571 571c79,79 208,79 287,0 334,-334 667,-667 1000,-1001l142 141c-334,334 -667,668 -1000,1001 -156,156 -415,156 -570,0l-571 -570c-157,-157 -157,-414 0,-571l1000 -1001 142 140z"/>
</svg>