<?xml version="1.0" encoding="UTF-8"?>
<!DOCTYPE svg PUBLIC "-//W3C//DTD SVG 1.1//EN" "http://www.w3.org/Graphics/SVG/1.1/DTD/svg11.dtd">
<svg xmlns="http://www.w3.org/2000/svg" xml:space="preserve" width="580px" height="580px" shape-rendering="geometricPrecision" text-rendering="geometricPrecision" image-rendering="optimizeQuality" fill-rule="nonzero" clip-rule="nonzero" viewBox="0 0 5800 5800" xmlns:xlink="http://www.w3.org/1999/xlink">
	<title>bank_building icon</title>
	<desc>bank_building icon from the IconExperience.com I-Collection. Copyright by INCORS GmbH (www.incors.com).</desc>
		<path id="curve29"  d="M4900 2100l0 200c0,70 0,240 -187,287 82,644 87,1353 87,1913l500 0 0 200 200 0 0 600 -5200 0 0 -600 200 0 0 -200 500 0c0,-273 1,-583 13,-916 11,-332 33,-675 75,-999 -137,-39 -188,-151 -188,-285l0 -200 -200 0 0 -300 -261 0 -175 -349 2636 -1160 2636 1160 -175 349 -261 0 0 300 -200 0zm-4200 2600l0 200 -200 0 0 200 4800 0 0 -200 -200 0 0 -200c-1467,0 -2933,0 -4400,0zm3100 -200c0,-273 1,-583 13,-916 11,-332 33,-675 75,-999 -137,-39 -188,-151 -188,-285l0 -200 -1600 0 0 200c0,70 0,240 -187,287 82,644 87,1353 87,1913l1800 0zm1100 -2600l0 -300 339 0 25 -51 -2364 -1040 -2364 1040 25 51 339 0 0 300c1333,0 2667,0 4000,0zm-2000 -943l-1234 543 2468 0 -1234 -543zm0 -218l1800 792c0,56 0,112 0,169l-3600 0c0,-57 0,-113 0,-169l1800 -792zm500 2161c0,-166 -134,-300 -300,-300l-100 0 0 600 100 0c276,0 500,224 500,500 0,276 -224,500 -500,500l-100 0 0 200 -200 0 0 -200 -100 0c-276,0 -500,-224 -500,-500l200 0c0,166 134,300 300,300l100 0 0 -600 -100 0c-276,0 -500,-224 -500,-500 0,-276 224,-500 500,-500l100 0 0 -200 200 0 0 200 100 0c276,0 500,224 500,500l-200 0zm-600 -300l-100 0c-166,0 -300,134 -300,300 0,166 134,300 300,300l100 0 0 -600zm200 1400l100 0c166,0 300,-134 300,-300 0,-166 -134,-300 -300,-300l-100 0 0 600zm-1100 -1700l0 -200 -800 0 0 200c0,78 17,100 100,100l115 0 -16 114c-50,347 -75,718 -87,1077 -11,313 -12,629 -12,909l600 0c0,-585 -5,-1332 -99,-1986l-16 -114 115 0c100,0 100,-73 100,-100zm2800 0l0 -200 -800 0 0 200c0,78 17,100 100,100l115 0 -16 114c-50,347 -75,718 -87,1077 -11,313 -12,629 -12,909l600 0c0,-585 -5,-1332 -99,-1986l-16 -114 115 0c100,0 100,-73 100,-100z"/>
</svg>