<?xml version="1.0" encoding="UTF-8"?>
<!DOCTYPE svg PUBLIC "-//W3C//DTD SVG 1.1//EN" "http://www.w3.org/Graphics/SVG/1.1/DTD/svg11.dtd">
<svg xmlns="http://www.w3.org/2000/svg" xml:space="preserve" width="580px" height="580px" shape-rendering="geometricPrecision" text-rendering="geometricPrecision" image-rendering="optimizeQuality" fill-rule="nonzero" clip-rule="nonzero" viewBox="0 0 5800 5800" xmlns:xlink="http://www.w3.org/1999/xlink">
	<title>bank_building icon</title>
	<desc>bank_building icon from the IconExperience.com I-Collection. Copyright by INCORS GmbH (www.incors.com).</desc>
		<path id="curve29"  d="M500 4700l0 -200 4800 0 0 200 200 0c0,200 0,400 0,600l-5200 0 0 -600 200 0zm2400 -4409l2636 1160c-58,116 -116,233 -175,349l-261 0 0 300 -4400 0 0 -300 -261 0 -175 -349 2636 -1160zm0 666l1234 543 -2468 0 1234 -543zm0 -218l-1800 792c0,56 0,112 0,169l3600 0c0,-57 0,-113 0,-169l-1800 -792zm2000 1561c0,70 0,240 -187,287 72,570 85,1190 87,1713l-1000 0c1,-221 4,-462 13,-716 11,-332 33,-675 75,-999 -75,-21 -121,-65 -149,-114 -39,-67 -39,-134 -39,-171l1200 0zm-2800 0c0,70 0,240 -187,287 72,570 85,1190 87,1713l-1000 0c1,-221 4,-462 13,-716 11,-332 33,-675 75,-999 -75,-21 -121,-65 -149,-114 -39,-67 -39,-134 -39,-171l1200 0zm1500 1400c0,276 -224,500 -500,500l-100 0 0 100 -200 0 0 -100 -100 0c-276,0 -500,-224 -500,-500l200 0c0,166 134,300 300,300l100 0 0 -600 -100 0c-276,0 -500,-224 -500,-500 0,-276 224,-500 500,-500l100 0 0 -100 200 0 0 100 100 0c276,0 500,224 500,500l-200 0c0,-166 -134,-300 -300,-300l-100 0 0 600 100 0c276,0 500,224 500,500zm-200 0c0,-166 -134,-300 -300,-300l-100 0 0 600 100 0c166,0 300,-134 300,-300zm-600 -500l0 -600 -100 0c-166,0 -300,134 -300,300 0,166 134,300 300,300l100 0z"/>
</svg>