<?xml version="1.0" encoding="UTF-8"?>
<!DOCTYPE svg PUBLIC "-//W3C//DTD SVG 1.1//EN" "http://www.w3.org/Graphics/SVG/1.1/DTD/svg11.dtd">
<svg xmlns="http://www.w3.org/2000/svg" xml:space="preserve" width="580px" height="580px" shape-rendering="geometricPrecision" text-rendering="geometricPrecision" image-rendering="optimizeQuality" fill-rule="nonzero" clip-rule="nonzero" viewBox="0 0 5800 5800" xmlns:xlink="http://www.w3.org/1999/xlink">
	<title>barcode_scanner icon</title>
	<desc>barcode_scanner icon from the IconExperience.com I-Collection. Copyright by INCORS GmbH (www.incors.com).</desc>
		<path id="curve28"  d="M3026 1600l1191 0c42,-120 156,-200 283,-200 165,0 300,135 300,300 0,167 -135,300 -302,300 -127,-1 -239,-82 -281,-200l-1231 0 40 -200zm-1027 948l-297 1688c-39,212 -243,354 -454,317l-409 -72c-212,-37 -356,-242 -319,-455l288 -1633c9,-51 -21,-101 -72,-115 -260,-71 -441,-308 -441,-578 0,-331 269,-600 600,-600l1905 0c63,0 110,58 98,119l-200 1001c-9,47 -51,80 -98,80l-305 0c-148,0 -270,103 -296,248zm3501 -1648l-1600 0 0 -400 1600 0 0 400zm0 4400l-1600 0 0 -400 1600 0 0 400zm-1600 -800l1600 0 0 200 -1600 0 0 -200zm1600 -200l-1600 0 0 -400 1600 0 0 400zm0 -600l-1600 0 0 -400 1600 0 0 400zm-1600 -800l1600 0 0 200 -1600 0 0 -200zm0 -400l1600 0 0 200 -1600 0 0 -200zm1600 -200l-1600 0 0 -300 200 0c95,126 242,200 400,200 199,0 379,-118 458,-300l542 0 0 400zm-542 -800l542 0 0 200 -500 0c0,-71 -15,-139 -42,-200zm-1058 -400l1600 0 0 200 -700 0c-84,-63 -187,-100 -300,-100 -113,0 -216,37 -300,100l-300 0 0 -200z"/>
</svg>