<?xml version="1.0" encoding="UTF-8"?>
<!DOCTYPE svg PUBLIC "-//W3C//DTD SVG 1.1//EN" "http://www.w3.org/Graphics/SVG/1.1/DTD/svg11.dtd">
<svg xmlns="http://www.w3.org/2000/svg" xml:space="preserve" width="580px" height="580px" shape-rendering="geometricPrecision" text-rendering="geometricPrecision" image-rendering="optimizeQuality" fill-rule="nonzero" clip-rule="nonzero" viewBox="0 0 5800 5800" xmlns:xlink="http://www.w3.org/1999/xlink">
	<title>barrels icon</title>
	<desc>barrels icon from the IconExperience.com I-Collection. Copyright by INCORS GmbH (www.incors.com).</desc>
		<path id="curve28" d="M1900 300l2000 0 0 200 -100 0 0 400 -200 0 0 -400 -1400 0 0 400 -200 0 0 -400 -100 0 0 -200zm2000 2600l1300 0 0 200 -100 0 0 400 -200 0 0 -400 -1400 0 0 400 -200 0 0 -400 -100 0 0 -200 -600 0 0 200 -100 0 0 400 -200 0 0 -400 -1400 0 0 400 -200 0 0 -400 -100 0 0 -200 1300 0 0 -200 2000 0 0 200zm-100 -800l0 400 -200 0 0 -400 -1400 0 0 400 -200 0 0 -400 -100 0 0 -200 2000 0 0 200 -100 0zm0 -800l0 400 -200 0 0 -400 -1400 0 0 400 -200 0 0 -400 -100 0 0 -200 2000 0 0 200 -100 0zm-1300 3400l0 400 -200 0 0 -400 -1400 0 0 400 -200 0 0 -400 -100 0 0 -200 2000 0 0 200 -100 0zm0 -800l0 400 -200 0 0 -400 -1400 0 0 400 -200 0 0 -400 -100 0 0 -200 2000 0 0 200 -100 0zm-1900 1400l2000 0 0 200 -2000 0 0 -200zm4500 -600l0 400 -200 0 0 -400 -1400 0 0 400 -200 0 0 -400 -100 0 0 -200 2000 0 0 200 -100 0zm0 -800l0 400 -200 0 0 -400 -1400 0 0 400 -200 0 0 -400 -100 0 0 -200 2000 0 0 200 -100 0zm-1900 1400l2000 0 0 200 -2000 0 0 -200z"/>
</svg>