<?xml version="1.0" encoding="UTF-8"?>
<!DOCTYPE svg PUBLIC "-//W3C//DTD SVG 1.1//EN" "http://www.w3.org/Graphics/SVG/1.1/DTD/svg11.dtd">
<svg xmlns="http://www.w3.org/2000/svg" xml:space="preserve" width="580px" height="580px" shape-rendering="geometricPrecision" text-rendering="geometricPrecision" image-rendering="optimizeQuality" fill-rule="nonzero" clip-rule="nonzero" viewBox="0 0 5800 5800" xmlns:xlink="http://www.w3.org/1999/xlink">
	<title>barrier_open icon</title>
	<desc>barrier_open icon from the IconExperience.com I-Collection. Copyright by INCORS GmbH (www.incors.com).</desc>
		<path id="curve28"  d="M300 5300l200 0 0 -2800c0,-276 224,-500 500,-500l400 0c174,0 334,91 425,238l-179 90c-57,-80 -148,-128 -246,-128l-400 0c-165,0 -300,135 -300,300l0 2800 1000 0 0 -1992 200 -100 0 2092 200 0 0 200c-600,0 -1200,0 -1800,0l0 -200zm497 -2433c1340,-674 2680,-1348 4020,-2022 50,-25 110,-5 134,44l225 447c25,49 5,109 -44,134 -1340,674 -2680,1348 -4020,2022 -49,25 -109,5 -134,-44l-225 -447c-25,-49 -5,-109 44,-134zm4021 -1799l-52 26 -134 404 321 -161 -135 -269zm-305 153l-551 278 -134 403 552 -277 133 -404zm-804 405l-551 277 -134 404 552 -278 133 -403zm-804 404l-552 278 -133 403 552 -277 133 -404zm-804 405l-552 277 -133 403 552 -277 133 -403zm-804 404l-321 161 135 269 53 -26 133 -404z"/>
</svg>