<?xml version="1.0" encoding="UTF-8"?>
<!DOCTYPE svg PUBLIC "-//W3C//DTD SVG 1.1//EN" "http://www.w3.org/Graphics/SVG/1.1/DTD/svg11.dtd">
<svg xmlns="http://www.w3.org/2000/svg" xml:space="preserve" width="580px" height="580px" shape-rendering="geometricPrecision" text-rendering="geometricPrecision" image-rendering="optimizeQuality" fill-rule="nonzero" clip-rule="nonzero" viewBox="0 0 5800 5800" xmlns:xlink="http://www.w3.org/1999/xlink">
	<title>barrier_closed icon</title>
	<desc>barrier_closed icon from the IconExperience.com I-Collection. Copyright by INCORS GmbH (www.incors.com).</desc>
		<path id="curve28" d="M300 5300l200 0 0 -2800c0,-276 224,-500 500,-500l400 0c276,0 500,224 500,500l0 100 -200 0 0 -100c0,-165 -135,-300 -300,-300l-400 0c-165,0 -300,135 -300,300l0 2800 1000 0 0 -1800 200 0 0 1800 200 0 0 200c-600,0 -1200,0 -1800,0l0 -200zm600 -2600l4500 0c55,0 100,45 100,100l0 500c0,55 -45,100 -100,100l-4500 0c-55,0 -100,-45 -100,-100l0 -500c0,-55 45,-100 100,-100zm4400 200l-59 0 -300 300 359 0 0 -300zm-341 0l-618 0 -300 300 618 0 300 -300zm-900 0l-618 0 -300 300 618 0 300 -300zm-900 0l-618 0 -300 300 618 0 300 -300zm-900 0l-618 0 -300 300 618 0 300 -300zm-900 0l-359 0 0 300 59 0 300 -300z"/>
</svg>