<?xml version="1.0" encoding="UTF-8"?>
<!DOCTYPE svg PUBLIC "-//W3C//DTD SVG 1.1//EN" "http://www.w3.org/Graphics/SVG/1.1/DTD/svg11.dtd">
<svg xmlns="http://www.w3.org/2000/svg" xml:space="preserve" width="580px" height="580px" shape-rendering="geometricPrecision" text-rendering="geometricPrecision" image-rendering="optimizeQuality" fill-rule="nonzero" clip-rule="nonzero" viewBox="0 0 5800 5800" xmlns:xlink="http://www.w3.org/1999/xlink">
	<title>barrels icon</title>
	<desc>barrels icon from the IconExperience.com I-Collection. Copyright by INCORS GmbH (www.incors.com).</desc>
		<path id="curve28"  d="M3800 500l0 500 -1800 0 0 -500 -100 0 0 -200 2000 0 0 200 -100 0zm1300 2600l0 500 -1800 0 0 -500 -100 0 0 -200 -600 0 0 200 -100 0 0 500 -1800 0 0 -500 -100 0 0 -200 1300 0 0 -200 2000 0 0 200 1300 0 0 200 -100 0zm-1200 -2000l0 200 -100 0 0 500 -1800 0 0 -500 -100 0 0 -200 2000 0zm0 800l0 200 -100 0 0 500 -1800 0 0 -500 -100 0 0 -200 2000 0zm-1300 1800l0 200 -100 0 0 500 -1800 0 0 -500 -100 0 0 -200 2000 0zm0 800l0 200 -100 0 0 500 -1800 0 0 -500 -100 0 0 -200 2000 0zm0 800l0 200 -2000 0 0 -200 2000 0zm2600 -1600l0 200 -100 0 0 500 -1800 0 0 -500 -100 0 0 -200 2000 0zm0 800l0 200 -100 0 0 500 -1800 0 0 -500 -100 0 0 -200 2000 0zm0 800l0 200 -2000 0 0 -200 2000 0z"/>
</svg>