<?xml version="1.0" encoding="UTF-8"?>
<!DOCTYPE svg PUBLIC "-//W3C//DTD SVG 1.1//EN" "http://www.w3.org/Graphics/SVG/1.1/DTD/svg11.dtd">
<svg xmlns="http://www.w3.org/2000/svg" xml:space="preserve" width="580px" height="580px" shape-rendering="geometricPrecision" text-rendering="geometricPrecision" image-rendering="optimizeQuality" fill-rule="nonzero" clip-rule="nonzero" viewBox="0 0 5800 5800" xmlns:xlink="http://www.w3.org/1999/xlink">
	<title>barrier_closed icon</title>
	<desc>barrier_closed icon from the IconExperience.com I-Collection. Copyright by INCORS GmbH (www.incors.com).</desc>
		<path id="curve28"  d="M900 2700l4500 0c55,0 100,45 100,100l0 500c0,55 -45,100 -100,100l-4500 0c-55,0 -100,-45 -100,-100l0 -500c0,-55 45,-100 100,-100zm4200 200l-300 300 500 0 0 -300 -200 0zm-1800 0l-300 300 900 0 300 -300 -900 0zm-1800 0l-300 300 900 0 300 -300 -900 0zm400 700l0 1700 200 0 0 200 -1800 0 0 -200 200 0 0 -2800c0,-276 224,-500 500,-500l400 0c276,0 500,224 500,500l-1000 0c-166,0 -300,134 -300,300l0 500c0,166 134,300 300,300l1000 0z"/>
</svg>