<?xml version="1.0" encoding="UTF-8"?>
<!DOCTYPE svg PUBLIC "-//W3C//DTD SVG 1.1//EN" "http://www.w3.org/Graphics/SVG/1.1/DTD/svg11.dtd">
<svg xmlns="http://www.w3.org/2000/svg" xml:space="preserve" width="580px" height="580px" shape-rendering="geometricPrecision" text-rendering="geometricPrecision" image-rendering="optimizeQuality" fill-rule="nonzero" clip-rule="nonzero" viewBox="0 0 5800 5800" xmlns:xlink="http://www.w3.org/1999/xlink">
	<title>baseball_bat icon</title>
	<desc>baseball_bat icon from the IconExperience.com I-Collection. Copyright by INCORS GmbH (www.incors.com).</desc>
	<path id="curve0" d="M284 5516c-47,-47 -110,-131 -145,-218 -43,-108 -49,-224 39,-312 71,-72 173,-78 266,-54l688 -688c412,-412 811,-913 1218,-1423 421,-528 850,-1067 1309,-1529 0,0 322,-322 361,-361l577 -577c233,-233 616,-233 849,0 234,234 234,615 0,849l-543 542 -395 396c-462,459 -1001,888 -1529,1309 -510,407 -1011,806 -1423,1218l-688 688c24,93 18,195 -54,266 -73,74 -167,81 -261,56 -107,-29 -214,-106 -269,-162zm141 -141c39,39 112,92 180,111 29,7 54,8 68,-5 11,-12 9,-41 6,-56l-81 -81 817 -818c139,-138 287,-275 442,-411 -61,-54 -118,-111 -172,-172 -136,155 -273,303 -411,442l-818 817 -81 -81c-15,-3 -44,-5 -56,6 -22,22 -4,73 5,97 25,60 68,118 101,151zm3861 -4426c224,148 417,341 565,565l453 -452c157,-157 157,-410 0,-566 -155,-156 -410,-156 -566,0l-452 453zm129 1002c-129,-238 -328,-437 -566,-566 -488,488 -913,1021 -1343,1560 -143,180 -286,358 -428,533 71,90 154,173 244,244 175,-142 353,-285 533,-428 539,-430 1072,-855 1560,-1343zm-2405 2032c51,-44 103,-88 155,-131 -79,-66 -151,-138 -217,-217 -43,52 -87,104 -131,155 60,69 124,133 193,193zm2551 -2178l146 -146c-144,-228 -338,-422 -566,-566l-146 146c234,138 428,332 566,566z"/>
</svg>