<?xml version="1.0" encoding="UTF-8"?>
<!DOCTYPE svg PUBLIC "-//W3C//DTD SVG 1.1//EN" "http://www.w3.org/Graphics/SVG/1.1/DTD/svg11.dtd">
<svg xmlns="http://www.w3.org/2000/svg" xml:space="preserve" width="580px" height="580px" shape-rendering="geometricPrecision" text-rendering="geometricPrecision" image-rendering="optimizeQuality" fill-rule="nonzero" clip-rule="nonzero" viewBox="0 0 5800 5800" xmlns:xlink="http://www.w3.org/1999/xlink">
	<title>baseball icon</title>
	<desc>baseball icon from the IconExperience.com I-Collection. Copyright by INCORS GmbH (www.incors.com).</desc>
		<path id="curve28"  d="M4555 1162l-108 -67c-47,-29 -109,-14 -138,33 -29,47 -14,109 33,138l146 89c-62,50 -128,97 -197,141l-180 -159c-41,-37 -104,-33 -140,8 -37,42 -33,105 8,141l130 115c-64,34 -130,65 -198,94 -7,3 -15,6 -23,9l-149 -188c-34,-43 -97,-50 -140,-16 -43,34 -50,97 -16,140l108 136c-77,24 -155,46 -235,63l-114 -210c-26,-49 -87,-67 -135,-41 -49,26 -67,87 -41,135l83 153c-80,11 -161,18 -243,22l-75 -228c-18,-52 -74,-81 -126,-63 -52,17 -81,73 -64,125l56 166c-82,-3 -163,-11 -243,-22l-35 -237c-8,-54 -59,-92 -113,-84 -55,8 -93,58 -85,113l26 172c-80,-18 -159,-39 -235,-63l6 -240c1,-55 -42,-101 -97,-102 -55,-1 -101,42 -102,97l-5 173c-8,-3 -17,-7 -25,-10 -67,-29 -133,-59 -196,-92l49 -236c11,-54 -24,-106 -78,-117 -54,-11 -107,24 -118,78l-34 169c-70,-44 -136,-91 -199,-141l87 -221c14,-34 7,-71 -13,-98 -207,169 -386,371 -527,599 32,26 77,30 114,7l214 -131c71,56 147,110 226,160l-136 120c-41,37 -45,100 -9,141 37,41 100,45 141,9l186 -165c70,36 141,70 215,101 13,5 25,10 37,15l-113 143c-34,43 -27,106 16,140 43,35 106,28 141,-16l154 -195c88,28 177,52 269,72l-87 160c-26,49 -8,109 41,135 48,26 109,8 135,-40l118 -218c91,12 183,21 277,24l-58 172c-17,52 12,108 64,126 52,17 108,-11 126,-64l78 -234c93,-4 186,-12 277,-25l-27 179c-8,55 30,106 85,113 54,8 105,-29 113,-84l36 -246c92,-20 181,-44 269,-72l5 181c1,55 47,99 102,98 55,-2 98,-47 97,-102l-7 -250c10,-4 20,-8 30,-12 76,-32 150,-67 222,-105l36 178c11,54 64,89 118,78 54,-11 89,-64 78,-118l-50 -244c80,-50 155,-104 226,-161l68 171c20,51 78,76 130,56 51,-20 76,-78 56,-130l-61 -153c-78,-103 -164,-199 -257,-288zm377 3015c-29,-45 -89,-58 -135,-30l-205 126c-71,-55 -147,-108 -227,-157l127 -113c41,-36 45,-99 9,-141 -37,-41 -100,-45 -141,-8l-178 158c-63,-32 -127,-62 -193,-90 -20,-8 -40,-17 -60,-24l106 -133c34,-44 27,-106 -16,-141 -44,-34 -106,-27 -141,16l-148 187c-87,-27 -177,-50 -268,-69l81 -149c26,-49 7,-109 -41,-135 -49,-27 -109,-8 -135,40l-113 209c-91,-12 -184,-19 -277,-22l54 -160c17,-52 -12,-108 -64,-126 -52,-17 -108,11 -126,64l-74 224c-94,5 -186,14 -277,28l25 -168c8,-54 -30,-105 -84,-113 -55,-8 -106,30 -114,85l-35 235c-91,21 -180,46 -267,75l-4 -170c-2,-55 -47,-98 -102,-97 -55,2 -99,47 -98,102l7 239 -7 3c-84,35 -165,74 -243,117l-34 -167c-11,-53 -64,-88 -118,-77 -54,11 -89,63 -78,117l48 234c-79,51 -154,106 -224,164l-64 -160c-20,-52 -78,-77 -129,-57 -52,21 -77,79 -56,130l20 53c122,173 266,329 427,465 43,14 92,-3 116,-43 29,-47 15,-108 -32,-137l-157 -96c62,-51 127,-99 196,-144l187 166c41,36 104,32 141,-9 36,-41 32,-104 -9,-141l-139 -123c70,-38 144,-74 220,-106l155 196c34,43 97,50 140,16 44,-35 51,-97 16,-140l-115 -146c76,-25 155,-48 235,-66l118 219c27,49 87,67 136,41 48,-26 66,-87 40,-135l-89 -165c80,-11 161,-20 243,-24l79 237c18,52 74,81 126,63 52,-17 81,-73 64,-125l-60 -178c82,2 164,9 244,19l37 247c8,54 58,92 113,84 55,-8 92,-59 84,-113l-27 -184c80,16 159,36 237,60l-7 250c-2,55 42,101 97,102 55,1 101,-42 102,-97l5 -186c19,7 37,15 55,22 58,25 113,50 168,78l-50 245c-11,54 23,107 77,118 54,11 107,-24 118,-78l37 -183c71,44 138,91 201,140l-91 230c-17,43 -3,90 32,116 75,-60 147,-125 214,-195l6 -14 4 4c47,-48 91,-98 133,-149l-8 -7 27 -17c55,-69 106,-141 153,-216zm-2032 -3877c1436,0 2600,1164 2600,2600 0,1436 -1164,2600 -2600,2600 -1436,0 -2600,-1164 -2600,-2600 0,-1436 1164,-2600 2600,-2600z"/>
</svg>