<?xml version="1.0" encoding="UTF-8"?>
<!DOCTYPE svg PUBLIC "-//W3C//DTD SVG 1.1//EN" "http://www.w3.org/Graphics/SVG/1.1/DTD/svg11.dtd">
<svg xmlns="http://www.w3.org/2000/svg" xml:space="preserve" width="580px" height="580px" shape-rendering="geometricPrecision" text-rendering="geometricPrecision" image-rendering="optimizeQuality" fill-rule="nonzero" clip-rule="nonzero" viewBox="0 0 5800 5800" xmlns:xlink="http://www.w3.org/1999/xlink">
	<title>baseball_bat icon</title>
	<desc>baseball_bat icon from the IconExperience.com I-Collection. Copyright by INCORS GmbH (www.incors.com).</desc>
	<path id="curve0"  d="M5446 1203l-644 643c-66,-182 -224,-384 -354,-514 -134,-135 -314,-270 -497,-332l646 -646c233,-233 616,-233 849,0 234,234 234,615 0,849zm-787 787l-133 132c-466,466 -1011,901 -1547,1328 -219,175 -436,348 -645,521 -99,-56 -201,-140 -280,-219 -84,-84 -164,-183 -226,-285 174,-209 347,-427 522,-646 427,-536 861,-1081 1328,-1547l130 -131c200,97 342,175 503,337 168,168 239,308 348,510zm-2482 2112c-220,187 -430,375 -621,566l-688 688c24,93 18,195 -54,266 -153,153 -406,19 -530,-106 -126,-126 -260,-377 -106,-530 71,-72 173,-78 266,-54l688 -688c192,-192 381,-404 570,-626 16,76 151,215 208,272 78,78 170,160 267,212z"/>
</svg>