<?xml version="1.0" encoding="UTF-8"?>
<!DOCTYPE svg PUBLIC "-//W3C//DTD SVG 1.1//EN" "http://www.w3.org/Graphics/SVG/1.1/DTD/svg11.dtd">
<svg xmlns="http://www.w3.org/2000/svg" xml:space="preserve" width="580px" height="580px" shape-rendering="geometricPrecision" text-rendering="geometricPrecision" image-rendering="optimizeQuality" fill-rule="nonzero" clip-rule="nonzero" viewBox="0 0 5800 5800" xmlns:xlink="http://www.w3.org/1999/xlink">
	<title>baseball icon</title>
	<desc>baseball icon from the IconExperience.com I-Collection. Copyright by INCORS GmbH (www.incors.com).</desc>
		<path id="curve28"  d="M2900 300c1436,0 2600,1164 2600,2600 0,1436 -1164,2600 -2600,2600 -1436,0 -2600,-1164 -2600,-2600 0,-1436 1164,-2600 2600,-2600zm-1987 3923c-21,-51 4,-109 56,-130 51,-20 109,5 129,57l64 160c70,-58 145,-113 224,-164l-48 -234c-11,-54 24,-106 78,-117 54,-11 107,24 118,77l34 167c81,-44 165,-84 250,-120l-7 -239c-1,-55 43,-100 98,-102 55,-1 100,42 102,97l4 170c87,-29 176,-54 267,-75l35 -235c8,-55 59,-93 114,-85 54,8 92,59 84,113l-25 168c91,-14 183,-23 277,-28l74 -224c18,-53 74,-81 126,-64 52,18 81,74 64,126l-54 160c93,3 186,10 277,22l113 -209c26,-48 86,-67 135,-40 48,26 67,86 41,135l-81 149c91,19 181,42 268,69l148 -187c35,-43 97,-50 141,-16 43,35 50,97 16,141l-106 133c86,34 171,72 253,114l178 -158c41,-37 104,-33 141,8 36,42 32,105 -9,141l-127 113c80,49 156,102 227,157l205 -126c46,-28 106,-15 136,30 232,-370 367,-808 367,-1277 0,-545 -182,-1048 -488,-1451l61 154c20,52 -5,110 -56,130 -52,20 -110,-5 -130,-56l-68 -171c-71,57 -146,111 -226,161l50 244c11,54 -24,107 -78,118 -54,11 -107,-24 -118,-78l-36 -178c-82,43 -166,83 -252,117l7 250c1,55 -42,100 -97,102 -55,1 -101,-43 -102,-98l-5 -181c-88,28 -177,52 -269,72l-36 246c-8,55 -59,92 -113,84 -55,-7 -93,-58 -85,-113l27 -179c-91,13 -184,21 -277,25l-78 234c-18,53 -74,81 -126,64 -52,-18 -81,-74 -64,-126l58 -172c-94,-3 -186,-12 -277,-24l-118 218c-26,48 -87,66 -135,40 -49,-26 -67,-86 -41,-135l87 -160c-92,-20 -181,-44 -269,-72l-154 195c-35,44 -98,51 -141,16 -43,-34 -50,-97 -16,-140l113 -143c-85,-34 -170,-73 -252,-116l-186 165c-41,36 -104,32 -141,-9 -36,-41 -32,-104 9,-141l136 -120c-79,-50 -155,-104 -226,-160l-214 131c-37,23 -83,19 -115,-7 -227,367 -359,800 -359,1264 0,512 160,987 434,1376l-21 -53zm3490 548c-34,-26 -49,-73 -32,-116l91 -230c-63,-49 -130,-96 -201,-140l-37 183c-11,54 -64,89 -118,78 -54,-11 -88,-64 -77,-118l50 -245c-55,-28 -110,-53 -168,-78 -18,-7 -36,-15 -55,-22l-5 186c-1,55 -47,98 -102,97 -55,-1 -99,-47 -97,-102l7 -250c-78,-24 -157,-44 -237,-60l27 184c8,54 -29,105 -84,113 -55,8 -105,-30 -113,-84l-37 -248c-80,-9 -162,-16 -244,-18l60 178c17,52 -12,108 -64,125 -52,18 -108,-11 -126,-63l-79 -237c-82,4 -163,13 -243,24l89 165c26,48 8,109 -40,135 -49,26 -109,8 -136,-41l-118 -219c-80,18 -159,40 -235,66l115 146c35,43 28,105 -16,140 -43,34 -106,27 -140,-16l-155 -196c-76,32 -150,68 -220,106l139 123c41,37 45,100 9,141 -37,41 -100,45 -141,9l-187 -166c-69,45 -134,93 -196,144l157 96c47,29 61,90 32,137 -24,40 -73,57 -116,43 417,349 954,559 1540,559 569,0 1092,-198 1503,-529zm152 -3609c-431,-410 -1013,-662 -1655,-662 -574,0 -1100,201 -1513,537 20,27 27,64 13,98l-87 221c63,50 129,97 199,141l34 -169c11,-54 64,-89 118,-78 54,11 89,63 78,117l-49 236c72,37 146,71 221,102l5 -173c1,-55 47,-98 102,-97 55,1 98,47 97,102l-6 240c76,24 155,45 235,63l-26 -172c-8,-55 30,-105 85,-113 54,-8 105,30 113,84l35 237c80,11 161,19 243,22l-56 -166c-17,-52 12,-108 64,-125 52,-18 108,11 126,63l75 228c82,-4 163,-11 243,-22l-83 -153c-26,-48 -8,-109 41,-135 48,-26 109,-8 135,41l114 210c80,-17 158,-39 235,-63l-108 -136c-34,-43 -27,-106 16,-140 43,-34 106,-27 140,16l149 188c8,-3 16,-6 23,-9 68,-29 134,-60 198,-94l-130 -115c-41,-36 -45,-99 -8,-141 36,-41 99,-45 140,-8l180 159c69,-44 135,-91 197,-141l-146 -89c-47,-29 -62,-91 -33,-138 29,-47 91,-62 138,-33l108 67z"/>
</svg>