<?xml version="1.0" encoding="UTF-8"?>
<!DOCTYPE svg PUBLIC "-//W3C//DTD SVG 1.1//EN" "http://www.w3.org/Graphics/SVG/1.1/DTD/svg11.dtd">
<svg xmlns="http://www.w3.org/2000/svg" xml:space="preserve" width="580px" height="580px" shape-rendering="geometricPrecision" text-rendering="geometricPrecision" image-rendering="optimizeQuality" fill-rule="nonzero" clip-rule="nonzero" viewBox="0 0 5800 5800" xmlns:xlink="http://www.w3.org/1999/xlink">
	<title>basketball_hoop icon</title>
	<desc>basketball_hoop icon from the IconExperience.com I-Collection. Copyright by INCORS GmbH (www.incors.com).</desc>
	<path id="curve0"  d="M2900 1577c530,0 1011,40 1361,104 395,73 639,194 639,346 0,152 -244,273 -639,345 -350,65 -831,105 -1361,105 -530,0 -1011,-40 -1361,-105 -395,-72 -639,-193 -639,-345 0,-152 244,-273 639,-346 350,-64 831,-104 1361,-104zm-1213 1479c26,78 51,157 74,237 186,51 394,74 586,89 14,116 26,232 36,350 6,62 11,124 16,187 -147,-24 -447,-92 -533,-205 19,90 35,181 50,272 152,73 331,113 497,137 8,133 15,266 20,402 -131,-23 -395,-84 -472,-185 8,85 15,170 19,255 139,70 305,109 459,133 3,112 4,224 5,338 63,10 130,18 200,24 0,-113 -2,-226 -4,-338 172,14 348,14 520,0 -2,112 -4,225 -4,338 70,-6 137,-14 200,-24 1,-114 2,-226 5,-337 154,-24 319,-62 459,-132 4,-83 10,-167 18,-250 -85,97 -338,156 -471,179 5,-136 12,-270 20,-402 166,-25 345,-65 497,-137 14,-90 31,-180 49,-270 -90,112 -383,178 -532,202 5,-62 10,-125 16,-187 11,-118 22,-234 36,-350 192,-15 400,-38 586,-89 23,-80 48,-159 74,-238 -126,75 -471,111 -636,125 23,-178 50,-353 79,-524 317,-21 684,-55 991,-146 -351,746 -534,1556 -534,2381 0,134 -142,244 -370,314 -420,128 -1066,128 -1486,0 -228,-70 -370,-180 -370,-314 0,-825 -183,-1635 -534,-2381 307,91 674,125 991,146 29,171 56,346 79,524 -164,-14 -511,-50 -636,-124zm1665 -389c-29,171 -55,347 -77,527 -249,13 -501,13 -750,0 -22,-180 -48,-356 -77,-527 301,13 603,13 904,0zm-803 728c12,106 23,212 33,320 6,76 13,153 18,230 198,18 402,18 600,0 5,-77 12,-154 19,-230 9,-108 20,-214 32,-320 -233,11 -469,11 -702,0zm65 752c8,133 15,268 20,404 176,16 356,16 532,0 5,-136 12,-271 20,-404 -189,15 -383,15 -572,0zm-1771 -1786c292,542 492,1130 585,1739l-1028 0 -100 0 0 -100 0 -3700 5200 0 0 3800 -1128 0c93,-609 292,-1197 586,-1739 56,-105 142,-220 142,-334 0,-263 -307,-450 -803,-542 -363,-67 -858,-108 -1397,-108 -539,0 -1034,41 -1397,108 -496,92 -803,279 -803,542 0,116 86,228 143,334zm3383 -483c-338,-63 -806,-101 -1326,-101 -520,0 -988,38 -1326,101 -625,115 -624,183 0,298 338,63 806,101 1326,101 520,0 988,-38 1326,-101 624,-115 625,-183 0,-298z"/>
</svg>