<?xml version="1.0" encoding="UTF-8"?>
<!DOCTYPE svg PUBLIC "-//W3C//DTD SVG 1.1//EN" "http://www.w3.org/Graphics/SVG/1.1/DTD/svg11.dtd">
<svg xmlns="http://www.w3.org/2000/svg" xml:space="preserve" width="580px" height="580px" shape-rendering="geometricPrecision" text-rendering="geometricPrecision" image-rendering="optimizeQuality" fill-rule="nonzero" clip-rule="nonzero" viewBox="0 0 5800 5800" xmlns:xlink="http://www.w3.org/1999/xlink">
	<title>basketball icon</title>
	<desc>basketball icon from the IconExperience.com I-Collection. Copyright by INCORS GmbH (www.incors.com).</desc>
		<path id="curve28"  d="M2900 300c1436,0 2600,1164 2600,2600 0,1436 -1164,2600 -2600,2600 -1436,0 -2600,-1164 -2600,-2600 0,-1436 1164,-2600 2600,-2600zm361 227c635,124 861,888 908,1448 41,484 -21,990 -160,1455 -451,-194 -770,-800 -1077,-1387 -305,-581 -600,-1144 -1029,-1327 -90,41 -177,88 -260,139 459,34 779,645 1112,1280 328,625 667,1271 1192,1485 -44,124 -94,247 -150,366 -314,-89 -657,-211 -998,-355 -837,-352 -1656,-836 -2002,-1290 -74,-97 -124,-191 -146,-279 -36,94 -65,191 -88,290 22,37 48,74 76,110 367,483 1219,989 2083,1353 333,141 670,261 983,350 -69,126 -145,246 -229,360 -455,-102 -884,-65 -1278,-31 -490,42 -920,79 -1236,-178 73,100 154,194 241,281 31,32 64,62 97,92 276,59 583,33 914,4 351,-30 732,-62 1123,7 -207,240 -452,440 -735,582 97,12 197,18 298,18 22,0 44,0 65,-1 223,-151 419,-338 589,-549 167,47 366,123 469,271 59,-31 117,-65 173,-101 -117,-179 -316,-276 -514,-340 80,-115 154,-236 220,-362 369,94 693,138 922,117 59,-79 113,-161 162,-247 -207,125 -777,3 -994,-51 55,-118 104,-240 147,-363 229,32 452,-63 654,-228 191,-156 365,-376 506,-608 -3,-119 -15,-236 -34,-351 -148,299 -359,610 -598,804 -149,122 -308,197 -465,189 144,-486 209,-1016 166,-1521 -35,-419 -152,-882 -418,-1218 -214,-104 -445,-177 -689,-214z"/>
</svg>