<?xml version="1.0" encoding="UTF-8"?>
<!DOCTYPE svg PUBLIC "-//W3C//DTD SVG 1.1//EN" "http://www.w3.org/Graphics/SVG/1.1/DTD/svg11.dtd">
<svg xmlns="http://www.w3.org/2000/svg" xml:space="preserve" width="580px" height="580px" shape-rendering="geometricPrecision" text-rendering="geometricPrecision" image-rendering="optimizeQuality" fill-rule="nonzero" clip-rule="nonzero" viewBox="0 0 5800 5800" xmlns:xlink="http://www.w3.org/1999/xlink">
	<title>basketball_hoop icon</title>
	<desc>basketball_hoop icon from the IconExperience.com I-Collection. Copyright by INCORS GmbH (www.incors.com).</desc>
	<path id="curve0"  d="M3820 4597c-140,70 -305,108 -459,132 -3,111 -4,223 -5,337 85,-14 162,-32 229,-52 141,-43 227,-87 227,-123 0,-98 3,-196 8,-294zm-660 155c-172,14 -348,14 -520,0 2,112 4,225 4,338 169,14 343,14 512,0 0,-113 2,-226 4,-338zm-721 -24c-154,-24 -320,-63 -459,-133 5,98 8,197 8,296 0,36 86,80 227,123 67,20 144,38 229,52 -1,-114 -2,-226 -5,-338zm-478 -388c77,101 341,162 472,185 -5,-136 -12,-269 -20,-402 -166,-24 -345,-64 -497,-136 19,117 34,235 45,353zm673 211c176,16 356,16 532,0 5,-136 12,-271 20,-404 -189,15 -383,15 -572,0 8,133 15,268 20,404zm733 -25c133,-23 386,-82 471,-179 12,-121 27,-241 46,-360 -152,72 -331,112 -497,137 -8,132 -15,266 -20,402zm-167 -581c5,-77 12,-154 19,-230 9,-108 20,-214 32,-320 -233,11 -469,11 -702,0 12,106 23,212 33,320 6,76 13,153 18,230 198,18 402,18 600,0zm75 -751c22,-180 48,-356 77,-527 69,-3 137,-7 204,-11 -29,171 -56,346 -79,524 165,-14 510,-50 636,-125 56,-165 119,-328 188,-487 89,-17 171,-36 246,-58 -151,322 -273,659 -362,1008 -113,442 -172,902 -172,1373 0,134 -142,244 -370,314 -420,128 -1066,128 -1486,0 -228,-70 -370,-180 -370,-314 0,-471 -59,-931 -172,-1373 -89,-349 -211,-686 -362,-1008 75,22 157,41 245,58 70,159 133,322 189,488 126,74 472,110 636,124 -23,-178 -50,-353 -79,-524 67,4 135,8 204,11 29,171 55,347 77,527 249,13 501,13 750,0zm178 188c-14,116 -25,232 -36,350 -6,62 -11,125 -16,187 149,-24 442,-90 532,-202 18,-83 37,-166 58,-248 15,-59 31,-118 48,-176 -186,51 -394,74 -586,89zm-1692 -89c17,58 33,117 48,176 21,81 40,163 57,245 86,113 386,181 533,205 -5,-63 -10,-125 -16,-187 -10,-118 -22,-234 -36,-350 -192,-15 -400,-38 -586,-89zm3539 -2793l-4800 0 0 3400 893 0c13,66 25,133 35,200l-1128 0 0 -3800 5200 0 0 3800 -1128 0c10,-67 22,-134 35,-200l893 0 0 -3400zm-2400 1077c530,0 1011,40 1361,104 395,73 639,194 639,346 0,152 -244,273 -639,345 -350,65 -831,105 -1361,105 -530,0 -1011,-40 -1361,-105 -395,-72 -639,-193 -639,-345 0,-152 244,-273 639,-346 350,-64 831,-104 1361,-104zm1326 301c-338,-63 -806,-101 -1326,-101 -520,0 -988,38 -1326,101 -293,54 -474,108 -474,149 0,41 181,95 474,149 338,63 806,101 1326,101 520,0 988,-38 1326,-101 293,-54 474,-108 474,-149 0,-41 -181,-95 -474,-149z"/>
</svg>