<?xml version="1.0" encoding="UTF-8"?>
<!DOCTYPE svg PUBLIC "-//W3C//DTD SVG 1.1//EN" "http://www.w3.org/Graphics/SVG/1.1/DTD/svg11.dtd">
<svg xmlns="http://www.w3.org/2000/svg" xml:space="preserve" width="580px" height="580px" shape-rendering="geometricPrecision" text-rendering="geometricPrecision" image-rendering="optimizeQuality" fill-rule="nonzero" clip-rule="nonzero" viewBox="0 0 5800 5800" xmlns:xlink="http://www.w3.org/1999/xlink">
	<title>battery_plus_minus icon</title>
	<desc>battery_plus_minus icon from the IconExperience.com I-Collection. Copyright by INCORS GmbH (www.incors.com).</desc>
		<path id="curve28" d="M2300 700l0 -400c400,0 800,0 1200,0l0 400 800 0 0 4800 -2800 0 0 -4800 800 0zm200 0l800 0 0 -200 -800 0 0 200zm-800 200l0 4400 2400 0 0 -4400c-800,0 -1600,0 -2400,0zm1300 400l0 400 400 0 0 200 -400 0 0 400 -200 0 0 -400 -400 0 0 -200 400 0 0 -400 200 0zm-600 3000l1000 0 0 200 -1000 0 0 -200z"/>
</svg>