<?xml version="1.0" encoding="UTF-8"?>
<!DOCTYPE svg PUBLIC "-//W3C//DTD SVG 1.1//EN" "http://www.w3.org/Graphics/SVG/1.1/DTD/svg11.dtd">
<svg xmlns="http://www.w3.org/2000/svg" xml:space="preserve" width="580px" height="580px" shape-rendering="geometricPrecision" text-rendering="geometricPrecision" image-rendering="optimizeQuality" fill-rule="nonzero" clip-rule="nonzero" viewBox="0 0 5800 5800" xmlns:xlink="http://www.w3.org/1999/xlink">
	<title>beaker icon</title>
	<desc>beaker icon from the IconExperience.com I-Collection. Copyright by INCORS GmbH (www.incors.com).</desc>
		<path id="curve28" d="M3350 3400c304,0 550,246 550,550 0,304 -246,550 -550,550 -304,0 -550,-246 -550,-550 0,-304 246,-550 550,-550zm350 -2900l-200 0 0 1397c775,258 1300,985 1300,1803 0,1049 -851,1900 -1900,1900 -1049,0 -1900,-851 -1900,-1900 0,-818 525,-1545 1300,-1803l0 -1397 -200 0 0 -200 400 0 0 1745 -73 21c-514,149 -930,535 -1118,1034l3182 0c-188,-499 -604,-885 -1118,-1034l-73 -21 0 -1745 400 0 0 200zm-2453 2800c-31,128 -47,262 -47,400 0,939 761,1700 1700,1700 939,0 1700,-761 1700,-1700 0,-138 -16,-272 -47,-400l-3306 0zm1361 1125c192,0 350,157 350,350 0,193 -157,350 -350,350 -194,0 -350,-157 -350,-350 0,-193 156,-350 350,-350zm0 200c-84,0 -150,67 -150,150 0,83 67,150 150,150 83,0 150,-67 150,-150 0,-83 -67,-150 -150,-150zm742 -1025c-193,0 -350,157 -350,350 0,193 157,350 350,350 193,0 350,-157 350,-350 0,-193 -157,-350 -350,-350z"/>
</svg>