<?xml version="1.0" encoding="UTF-8"?>
<!DOCTYPE svg PUBLIC "-//W3C//DTD SVG 1.1//EN" "http://www.w3.org/Graphics/SVG/1.1/DTD/svg11.dtd">
<svg xmlns="http://www.w3.org/2000/svg" xml:space="preserve" width="580px" height="580px" shape-rendering="geometricPrecision" text-rendering="geometricPrecision" image-rendering="optimizeQuality" fill-rule="nonzero" clip-rule="nonzero" viewBox="0 0 5800 5800" xmlns:xlink="http://www.w3.org/1999/xlink">
	<title>beaker icon</title>
	<desc>beaker icon from the IconExperience.com I-Collection. Copyright by INCORS GmbH (www.incors.com).</desc>
		<path id="curve28"  d="M1309 3100l3182 0c-188,-499 -604,-885 -1118,-1034l-73 -21 0 -1745 400 0 0 200 -200 0 0 1397c775,258 1300,985 1300,1803 0,1049 -851,1900 -1900,1900 -1049,0 -1900,-851 -1900,-1900 0,-818 525,-1545 1300,-1803l0 -1397 -200 0 0 -200 400 0 0 1745 -73 21c-514,149 -930,535 -1118,1034zm1299 1425c-139,0 -250,112 -250,250 0,138 111,250 250,250 138,0 250,-112 250,-250 0,-138 -112,-250 -250,-250zm742 -1025c-249,0 -450,201 -450,450 0,249 201,450 450,450 249,0 450,-201 450,-450 0,-249 -201,-450 -450,-450z"/>
</svg>