<?xml version="1.0" encoding="UTF-8"?>
<!DOCTYPE svg PUBLIC "-//W3C//DTD SVG 1.1//EN" "http://www.w3.org/Graphics/SVG/1.1/DTD/svg11.dtd">
<svg xmlns="http://www.w3.org/2000/svg" xml:space="preserve" width="580px" height="580px" shape-rendering="geometricPrecision" text-rendering="geometricPrecision" image-rendering="optimizeQuality" fill-rule="nonzero" clip-rule="nonzero" viewBox="0 0 5800 5800" xmlns:xlink="http://www.w3.org/1999/xlink">
	<title>beaker2 icon</title>
	<desc>beaker2 icon from the IconExperience.com I-Collection. Copyright by INCORS GmbH (www.incors.com).</desc>
		<path id="curve28"  d="M3100 3100c331,0 600,269 600,600 0,331 -269,600 -600,600 -331,0 -600,-269 -600,-600 0,-331 269,-600 600,-600zm600 -2600l-200 0 0 1249c0,139 26,254 84,380l1174 2517c45,96 64,195 57,293 -13,200 -135,392 -311,488 -86,48 -184,73 -289,73l-2630 0c-105,0 -203,-25 -289,-73 -176,-96 -298,-288 -311,-488 -7,-98 12,-197 57,-293l1174 -2517c58,-126 84,-241 84,-380l0 -1249 -200 0 0 -200 400 0 0 1449c0,164 -34,315 -103,465l-227 486 1460 0 -227 -486c-69,-150 -103,-301 -103,-465l0 -1449 400 0 0 200zm-1624 2400l-854 1831c-30,64 -42,130 -38,196 9,132 91,261 208,325 56,32 122,48 193,48l2630 0c71,0 137,-16 193,-48 117,-64 199,-193 208,-325 4,-66 -8,-132 -38,-196l-854 -1831 -1648 0zm474 1500c193,0 350,157 350,350 0,193 -157,350 -350,350 -193,0 -350,-157 -350,-350 0,-193 157,-350 350,-350zm0 200c-83,0 -150,67 -150,150 0,83 67,150 150,150 83,0 150,-67 150,-150 0,-83 -67,-150 -150,-150zm550 -1300c-221,0 -400,179 -400,400 0,221 179,400 400,400 221,0 400,-179 400,-400 0,-221 -179,-400 -400,-400z"/>
</svg>