<?xml version="1.0" encoding="UTF-8"?>
<!DOCTYPE svg PUBLIC "-//W3C//DTD SVG 1.1//EN" "http://www.w3.org/Graphics/SVG/1.1/DTD/svg11.dtd">
<svg xmlns="http://www.w3.org/2000/svg" xml:space="preserve" width="580px" height="580px" shape-rendering="geometricPrecision" text-rendering="geometricPrecision" image-rendering="optimizeQuality" fill-rule="nonzero" clip-rule="nonzero" viewBox="0 0 5800 5800" xmlns:xlink="http://www.w3.org/1999/xlink">
	<title>beaker2 icon</title>
	<desc>beaker2 icon from the IconExperience.com I-Collection. Copyright by INCORS GmbH (www.incors.com).</desc>
		<path id="curve28"  d="M3700 500l-200 0 0 1249c0,139 26,254 84,380l1174 2517c186,399 -103,854 -543,854l-2630 0c-440,0 -729,-455 -543,-854l1174 -2517c58,-126 84,-241 84,-380l0 -1249 -200 0 0 -200 400 0 0 1449c0,164 -34,315 -103,465l-227 486 1460 0 -227 -486c-69,-150 -103,-301 -103,-465l0 -1449 400 0 0 200zm-600 2700c-276,0 -500,224 -500,500 0,276 224,500 500,500 276,0 500,-224 500,-500 0,-276 -224,-500 -500,-500zm-550 1300c-138,0 -250,112 -250,250 0,138 112,250 250,250 138,0 250,-112 250,-250 0,-138 -112,-250 -250,-250z"/>
</svg>