<?xml version="1.0" encoding="UTF-8"?>
<!DOCTYPE svg PUBLIC "-//W3C//DTD SVG 1.1//EN" "http://www.w3.org/Graphics/SVG/1.1/DTD/svg11.dtd">
<svg xmlns="http://www.w3.org/2000/svg" xml:space="preserve" width="580px" height="580px" shape-rendering="geometricPrecision" text-rendering="geometricPrecision" image-rendering="optimizeQuality" fill-rule="nonzero" clip-rule="nonzero" viewBox="0 0 5800 5800" xmlns:xlink="http://www.w3.org/1999/xlink">
	<title>bear icon</title>
	<desc>bear icon from the IconExperience.com I-Collection. Copyright by INCORS GmbH (www.incors.com).</desc>
	<path id="curve0"  d="M3852 3859l-330 56c42,76 67,158 79,241 21,153 -7,310 -68,434 -51,105 -84,202 -113,289 -26,77 -50,147 -82,214 -89,182 -386,224 -569,200 -135,-17 -305,-82 -305,-244 0,-125 40,-198 81,-272 27,-51 55,-101 55,-177 0,-241 -242,-420 -441,-509 -73,-33 -129,-88 -192,-148 -105,-103 -232,-225 -465,-201 -81,9 -141,-10 -222,-35 -176,-56 -271,-81 -452,-49 -196,35 -334,47 -504,-73 -81,-58 -146,-132 -184,-186 -128,-184 66,-384 213,-535 49,-51 89,-81 90,-87 22,-297 211,-397 376,-484 36,-19 70,-37 98,-56 66,-177 152,-236 241,-236 67,0 123,36 170,81 46,-11 83,-20 95,-27 10,-5 33,-20 64,-40 144,-90 437,-275 619,-304 222,-36 382,-3 562,33 146,29 323,65 470,53 468,-39 1235,-103 1929,529 223,204 433,691 433,995 -1,168 -23,364 -59,577 -36,213 -85,441 -140,672 -50,210 -92,296 -172,461l-31 62c-93,192 -447,223 -638,200 -136,-16 -333,-76 -333,-244 0,-125 50,-187 105,-257 43,-53 91,-114 91,-245 0,-80 -60,-126 -132,-180 -126,-96 -277,-212 -339,-508zm-1955 -1135c44,-175 15,-376 -176,-439 -154,-51 -338,26 -410,170 -25,50 -5,109 44,134 50,25 109,5 134,-44 28,-57 109,-91 169,-71 78,26 60,142 45,202 -13,53 19,107 73,121 53,13 108,-19 121,-73zm354 2094c-79,81 -128,174 -177,275 -51,104 -178,168 -318,193 -82,15 -171,18 -251,7 -135,-17 -305,-82 -305,-244 0,-206 81,-267 217,-407 75,-170 79,-493 92,-700 149,-13 218,45 319,144 76,73 145,140 250,187 88,39 193,103 263,186 66,80 76,135 29,223 -25,45 -81,97 -119,136z"/>
</svg>