<?xml version="1.0" encoding="UTF-8"?>
<!DOCTYPE svg PUBLIC "-//W3C//DTD SVG 1.1//EN" "http://www.w3.org/Graphics/SVG/1.1/DTD/svg11.dtd">
<svg xmlns="http://www.w3.org/2000/svg" xml:space="preserve" width="580px" height="580px" shape-rendering="geometricPrecision" text-rendering="geometricPrecision" image-rendering="optimizeQuality" fill-rule="nonzero" clip-rule="nonzero" viewBox="0 0 5800 5800" xmlns:xlink="http://www.w3.org/1999/xlink">
	<title>bear icon</title>
	<desc>bear icon from the IconExperience.com I-Collection. Copyright by INCORS GmbH (www.incors.com).</desc>
	<path id="curve0"  d="M1706 3984l-2 38c-16,270 -33,559 -115,723 -9,17 -21,28 -34,41 -119,123 -155,160 -155,263 0,1 3,3 8,7 25,20 69,33 122,40 88,11 321,-1 364,-90 23,-48 49,-101 82,-155 34,-57 76,-116 132,-173 73,-75 153,-156 208,-246 8,9 17,18 25,27 66,80 76,135 29,223l-13 23c-77,85 -149,149 -210,249 -30,49 -53,96 -73,139 -89,182 -386,224 -569,200 -135,-17 -305,-82 -305,-244 0,-206 81,-267 217,-407 58,-131 73,-389 87,-631l4 -69c5,0 10,-1 14,-1 74,-8 133,12 184,43zm2624 1065c31,22 87,37 153,45 75,9 159,8 236,-4 98,-16 181,-45 200,-84 16,-32 10,-21 31,-63 73,-149 111,-227 157,-419 54,-230 103,-454 137,-659 35,-204 56,-390 56,-544 1,-250 -184,-681 -367,-847 -630,-574 -1343,-514 -1778,-478 -177,12 -353,-22 -526,-57 -498,-100 -611,-22 -1036,245 -32,21 -57,36 -73,45 -40,23 -104,38 -179,55 -102,24 -227,53 -279,95 -45,34 -96,62 -150,90 -120,64 -256,136 -270,323 -5,66 -69,132 -146,211 -97,100 -226,233 -192,282 28,40 76,95 136,137 40,28 84,51 128,57 70,10 150,-4 226,-18 77,-13 150,-26 221,-18 151,18 248,49 324,73 59,18 103,32 143,28 325,-34 488,124 624,256 49,47 94,91 135,109 130,59 291,158 406,296 174,208 202,431 73,667 -28,51 -56,102 -56,177 0,1 3,3 8,7 25,20 69,33 122,40 88,11 321,-1 364,-90 27,-55 49,-120 73,-191 31,-92 66,-195 122,-311 93,-190 71,-437 -79,-590l143 -140c208,214 245,552 116,816 -51,105 -84,202 -113,289 -26,77 -50,147 -82,214 -89,182 -386,224 -569,200 -87,-11 -167,-37 -221,-80 -53,-41 -84,-96 -84,-164 0,-125 40,-198 81,-272 88,-162 69,-301 -51,-445 -92,-111 -225,-192 -335,-241 -73,-33 -129,-88 -192,-148 -105,-103 -232,-225 -465,-201 -81,9 -141,-10 -222,-35 -68,-22 -155,-49 -288,-65 -42,-5 -101,5 -164,16 -90,16 -186,33 -288,19 -79,-12 -153,-47 -216,-92 -81,-58 -146,-132 -184,-186 -128,-184 66,-384 213,-535 49,-51 89,-81 90,-87 22,-297 211,-397 376,-484 36,-19 70,-37 98,-56 66,-177 152,-236 241,-236 67,0 123,36 170,81 46,-11 83,-20 95,-27 10,-5 33,-20 64,-40 470,-296 629,-382 1181,-271 146,29 323,65 470,53 468,-39 1235,-103 1929,529 223,204 433,691 433,995 -1,168 -23,364 -59,577 -36,213 -85,441 -140,672 -50,210 -92,296 -172,461l-31 62c-51,105 -191,169 -348,194 -95,15 -199,17 -290,6 -100,-12 -190,-40 -249,-85 -53,-41 -84,-94 -84,-159 0,-125 50,-187 105,-257 43,-53 91,-114 91,-245 0,-80 -60,-126 -132,-180 -139,-106 -311,-237 -356,-612l198 -23c35,290 170,393 279,476 115,88 211,160 211,339 0,201 -71,290 -135,370 -32,40 -61,77 -58,132zm-2433 -2325c-13,54 -68,86 -121,73 -54,-14 -86,-68 -73,-121 23,-91 15,-147 -9,-178 -23,-28 -59,-33 -93,-28 -46,6 -91,33 -112,75 -25,49 -84,69 -134,44 -49,-25 -69,-84 -44,-134 51,-102 156,-168 263,-183 103,-14 211,19 277,103 59,75 86,190 46,349z"/>
</svg>