<?xml version="1.0" encoding="UTF-8"?>
<!DOCTYPE svg PUBLIC "-//W3C//DTD SVG 1.1//EN" "http://www.w3.org/Graphics/SVG/1.1/DTD/svg11.dtd">
<svg xmlns="http://www.w3.org/2000/svg" xml:space="preserve" width="580px" height="580px" shape-rendering="geometricPrecision" text-rendering="geometricPrecision" image-rendering="optimizeQuality" fill-rule="nonzero" clip-rule="nonzero" viewBox="0 0 5800 5800" xmlns:xlink="http://www.w3.org/1999/xlink">
	<title>bed icon</title>
	<desc>bed icon from the IconExperience.com I-Collection. Copyright by INCORS GmbH (www.incors.com).</desc>
		<path id="curve28" d="M3400 3300c195,0 251,68 317,204 81,9 218,-54 262,-73 -4,-77 -46,-166 7,-214 36,-33 80,-16 136,-33 52,-16 102,-18 135,-35 0,-59 44,-71 82,-43 90,67 71,48 153,69 91,-20 193,-16 283,44 182,123 218,275 225,381 0,0 12,1 13,1 222,15 187,242 187,399 0,86 -44,170 -131,228 -79,53 -176,72 -269,72l500 0 0 -1800 200 0 0 1900 0 600 0 500 -200 0 0 -400 -4800 0 0 400 -200 0c0,-733 0,-1467 0,-2200l200 0 0 1000 200 0c-55,0 -100,-45 -100,-100 0,-143 23,-316 92,-454 58,-117 149,-209 284,-243 109,-27 221,-63 337,-101 320,-103 674,-216 1091,-202 187,7 244,26 306,46 77,26 162,54 690,54zm1602 647c0,-19 1,-40 2,-60 -82,102 -193,171 -322,213l118 0c51,0 116,-8 159,-38 27,-18 41,-41 41,-62 0,-8 1,-30 2,-53zm298 953l0 -400 -4800 0 0 400 4800 0zm-1734 -1249c-46,-101 -70,-151 -166,-151 -559,0 -661,-33 -752,-64 -49,-16 -95,-31 -252,-36 -381,-14 -718,94 -1022,192 -121,39 -238,77 -350,105 -71,18 -120,70 -154,138 -39,77 -58,173 -66,265l2996 0c49,0 67,20 67,12 0,-41 -81,-139 -148,-221 -75,-90 -104,-135 -153,-240z"/>
</svg>