<?xml version="1.0" encoding="UTF-8"?>
<!DOCTYPE svg PUBLIC "-//W3C//DTD SVG 1.1//EN" "http://www.w3.org/Graphics/SVG/1.1/DTD/svg11.dtd">
<svg xmlns="http://www.w3.org/2000/svg" xml:space="preserve" width="580px" height="580px" shape-rendering="geometricPrecision" text-rendering="geometricPrecision" image-rendering="optimizeQuality" fill-rule="nonzero" clip-rule="nonzero" viewBox="0 0 5800 5800" xmlns:xlink="http://www.w3.org/1999/xlink">
	<title>bed icon</title>
	<desc>bed icon from the IconExperience.com I-Collection. Copyright by INCORS GmbH (www.incors.com).</desc>
		<path id="curve28"  d="M4257 3149c0,-59 44,-71 82,-43 90,67 71,48 153,69 91,-20 193,-16 283,44 182,123 218,275 225,381 22,329 -245,489 -419,495 -153,5 -336,-21 -452,-137 -45,-95 -119,-184 -179,-257 -64,-77 -87,-122 -128,-210 64,-18 129,-48 157,-60 -4,-77 -46,-166 7,-214 36,-33 80,-16 136,-33 52,-16 102,-18 135,-35zm-90 962c124,69 276,88 417,84 299,-10 523,-277 517,-571 110,58 105,212 100,330 -1,13 -1,25 -1,46 0,212 -222,300 -400,300l500 0 0 -1800 200 0 0 3000 -200 0 0 -400 -4800 0 0 400 -200 0 0 -2200 200 0 0 1000 200 0c-55,0 -100,-45 -100,-100 0,-143 23,-316 92,-454 58,-117 149,-209 284,-243 109,-27 221,-63 337,-101 320,-103 674,-216 1091,-202 187,7 244,26 306,46 77,26 162,54 690,54 224,0 265,89 347,267 43,92 59,118 126,198 88,107 194,235 194,347 0,113 -70,188 -267,188l299 0c42,-44 68,-106 68,-189zm1133 389l-4800 0 0 400 4800 0 0 -400z"/>
</svg>