<?xml version="1.0" encoding="UTF-8"?>
<!DOCTYPE svg PUBLIC "-//W3C//DTD SVG 1.1//EN" "http://www.w3.org/Graphics/SVG/1.1/DTD/svg11.dtd">
<svg xmlns="http://www.w3.org/2000/svg" xml:space="preserve" width="580px" height="580px" shape-rendering="geometricPrecision" text-rendering="geometricPrecision" image-rendering="optimizeQuality" fill-rule="nonzero" clip-rule="nonzero" viewBox="0 0 5800 5800" xmlns:xlink="http://www.w3.org/1999/xlink">
	<title>bed_empty icon</title>
	<desc>bed_empty icon from the IconExperience.com I-Collection. Copyright by INCORS GmbH (www.incors.com).</desc>
		<path id="curve28" d="M2100 3300c844,0 1240,168 1401,357 60,72 90,147 99,220 9,73 -5,143 -30,204 -55,129 -176,219 -270,219l2000 0 0 -1800 200 0 0 1900 0 1100 -200 0 0 -400 -4800 0 0 400 -200 0c0,-733 0,-1467 0,-2200l200 0 0 1000 567 0c-97,0 -249,-106 -321,-250 -32,-63 -50,-135 -45,-210 5,-77 35,-154 99,-226 152,-171 524,-314 1300,-314zm-1600 1600l4800 0 0 -400 -4800 0 0 400zm4000 -1440c289,0 439,82 519,195 81,115 81,246 81,362 0,286 -326,284 -634,282 -16,0 -116,0 -132,0 -308,2 -634,4 -634,-282 0,-143 76,-304 249,-417 127,-83 308,-140 551,-140zm356 310c-45,-64 -145,-110 -356,-110 -201,0 -345,43 -443,107 -109,71 -157,168 -157,250 0,85 223,84 433,83 60,0 13,-1 67,-1 54,0 7,1 67,1 210,1 433,2 433,-83 0,-86 0,-184 -44,-247zm-1508 16c-128,-152 -475,-286 -1248,-286 -708,0 -1031,112 -1151,247 -32,35 -46,72 -49,106 -2,37 8,74 25,108 40,80 106,139 142,139l2233 0c24,0 62,-40 86,-97 13,-31 20,-66 15,-102 -4,-37 -20,-76 -53,-115z"/>
</svg>