<?xml version="1.0" encoding="UTF-8"?>
<!DOCTYPE svg PUBLIC "-//W3C//DTD SVG 1.1//EN" "http://www.w3.org/Graphics/SVG/1.1/DTD/svg11.dtd">
<svg xmlns="http://www.w3.org/2000/svg" xml:space="preserve" width="580px" height="580px" shape-rendering="geometricPrecision" text-rendering="geometricPrecision" image-rendering="optimizeQuality" fill-rule="nonzero" clip-rule="nonzero" viewBox="0 0 5800 5800" xmlns:xlink="http://www.w3.org/1999/xlink">
	<title>bed_empty icon</title>
	<desc>bed_empty icon from the IconExperience.com I-Collection. Copyright by INCORS GmbH (www.incors.com).</desc>
		<path id="curve28"  d="M4595 4300l705 0 0 -1800 200 0 0 3000 -200 0 0 -400 -4800 0 0 400 -200 0 0 -2200 200 0 0 1000 567 0c-192,0 -379,-267 -366,-460 36,-518 1055,-540 1399,-540 376,0 1435,34 1500,577 21,176 -113,423 -300,423l906 0c-261,-4 -506,-40 -506,-283 0,-143 76,-304 249,-417 127,-83 308,-140 551,-140 289,0 439,82 519,195 81,115 81,246 81,362 0,244 -244,279 -505,283zm705 200l-4800 0 0 400 4800 0 0 -400z"/>
</svg>