<?xml version="1.0" encoding="UTF-8"?>
<!DOCTYPE svg PUBLIC "-//W3C//DTD SVG 1.1//EN" "http://www.w3.org/Graphics/SVG/1.1/DTD/svg11.dtd">
<svg xmlns="http://www.w3.org/2000/svg" xml:space="preserve" width="580px" height="580px" shape-rendering="geometricPrecision" text-rendering="geometricPrecision" image-rendering="optimizeQuality" fill-rule="nonzero" clip-rule="nonzero" viewBox="0 0 5800 5800" xmlns:xlink="http://www.w3.org/1999/xlink">
	<title>beer_bottle icon</title>
	<desc>beer_bottle icon from the IconExperience.com I-Collection. Copyright by INCORS GmbH (www.incors.com).</desc>
	<path id="curve0" d="M2400 600c0,-165 135,-300 300,-300l400 0c165,0 300,135 300,300l0 200 -91 0 91 1100c0,143 70,229 147,324 120,147 253,310 253,676l0 2600 -1800 0 0 -2600c0,-366 133,-529 253,-676 77,-94 147,-180 147,-324l91 -1100 -91 0 0 -200zm708 200l-416 0 -92 1104c-1,211 -92,323 -192,446 -98,120 -208,255 -208,550l0 2400 1400 0 0 -2400c0,-295 -109,-430 -208,-550 -99,-122 -189,-233 -192,-442l-92 -1108zm392 2300l0 1400 -1200 0 0 -1400 1200 0zm-200 200l-800 0 0 1000 800 0 0 -1000zm-700 -2700l600 0c0,-55 -45,-100 -100,-100l-400 0c-55,0 -100,45 -100,100z"/>
</svg>