<?xml version="1.0" encoding="UTF-8"?>
<!DOCTYPE svg PUBLIC "-//W3C//DTD SVG 1.1//EN" "http://www.w3.org/Graphics/SVG/1.1/DTD/svg11.dtd">
<svg xmlns="http://www.w3.org/2000/svg" xml:space="preserve" width="580px" height="580px" shape-rendering="geometricPrecision" text-rendering="geometricPrecision" image-rendering="optimizeQuality" fill-rule="nonzero" clip-rule="nonzero" viewBox="0 0 5800 5800" xmlns:xlink="http://www.w3.org/1999/xlink">
	<title>beer_garden_table icon</title>
	<desc>beer_garden_table icon from the IconExperience.com I-Collection. Copyright by INCORS GmbH (www.incors.com).</desc>
	<path id="curve0"  d="M1800 4900l400 0 0 -1300 -728 0 -1 0 -1 0 0 0 -1 0 0 0 -1 0 -1 0 -1 0 0 0 -1 0 0 0c-113,-6 -164,-143 -85,-222 640,-640 1280,-1280 1920,-1919 38,-38 88,-59 141,-59l1487 0c116,0 172,142 92,222l-1920 1919c-37,38 -88,59 -141,59l-559 0 0 1300 400 0 0 200c-333,0 -667,0 -1000,0l0 -200zm2891 -2600l887 0c115,0 173,141 92,222l-51 51 0 816 -200 0 0 -616 -1419 1418 0 909 -200 0 0 -800 -600 0 0 800 -200 0 0 -800 -78 0c-115,0 -173,-141 -92,-222l1720 -1719c38,-38 88,-59 141,-59zm-2700 0l185 0 -937 937c-207,206 -59,563 233,563l219 0 -391 391 0 909 -200 0 0 -800 -600 0 0 800 -200 0 0 -800 -78 0c-116,0 -172,-142 -92,-222l1720 -1719c37,-38 88,-59 141,-59z"/>
</svg>