<?xml version="1.0" encoding="UTF-8"?>
<!DOCTYPE svg PUBLIC "-//W3C//DTD SVG 1.1//EN" "http://www.w3.org/Graphics/SVG/1.1/DTD/svg11.dtd">
<svg xmlns="http://www.w3.org/2000/svg" xml:space="preserve" width="580px" height="580px" shape-rendering="geometricPrecision" text-rendering="geometricPrecision" image-rendering="optimizeQuality" fill-rule="nonzero" clip-rule="nonzero" viewBox="0 0 5800 5800" xmlns:xlink="http://www.w3.org/1999/xlink">
	<title>beer_glass icon</title>
	<desc>beer_glass icon from the IconExperience.com I-Collection. Copyright by INCORS GmbH (www.incors.com).</desc>
	<path id="curve0" d="M1952 1500l1896 0 -53 -600 -1790 0 -53 600zm2021 1429l-108 -1229 -1930 0 -108 1229c-3,33 -4,62 -4,95 0,572 450,1046 1022,1075 36,2 74,2 111,0 571,-29 1021,-503 1021,-1075 0,-33 -1,-62 -4,-95zm199 -17c3,37 5,76 5,112 0,665 -514,1221 -1177,1272l0 1004 900 0 0 200 -2000 0 0 -200 900 0 0 -1004c-663,-51 -1177,-607 -1177,-1272 0,-36 2,-75 5,-112l194 -2212 78 0c0,-220 180,-400 400,-400l1200 0c220,0 400,180 400,400l79 0 193 2212zm-2072 -2212l1600 0c0,-110 -90,-200 -200,-200l-1200 0c-110,0 -200,90 -200,200z"/>
</svg>