<?xml version="1.0" encoding="UTF-8"?>
<!DOCTYPE svg PUBLIC "-//W3C//DTD SVG 1.1//EN" "http://www.w3.org/Graphics/SVG/1.1/DTD/svg11.dtd">
<svg xmlns="http://www.w3.org/2000/svg" xml:space="preserve" width="580px" height="580px" shape-rendering="geometricPrecision" text-rendering="geometricPrecision" image-rendering="optimizeQuality" fill-rule="nonzero" clip-rule="nonzero" viewBox="0 0 5800 5800" xmlns:xlink="http://www.w3.org/1999/xlink">
	<title>beer_mug icon</title>
	<desc>beer_mug icon from the IconExperience.com I-Collection. Copyright by INCORS GmbH (www.incors.com).</desc>
	<path id="curve0"  d="M700 817l0 -17c0,-276 224,-500 500,-500l2400 0c276,0 500,224 500,500l0 17c119,43 200,156 200,283l0 500 500 0c386,0 700,314 700,700l0 1400c0,386 -314,700 -700,700l-500 0 0 300c0,220 -180,400 -400,400 0,110 -90,200 -200,200l-2600 0c-110,0 -200,-90 -200,-200 -220,0 -400,-180 -400,-400l0 -3600c0,-127 81,-240 200,-283zm3200 -17c0,-165 -135,-300 -300,-300l-2400 0c-165,0 -300,135 -300,300l3000 0zm700 1400l-300 0 0 1600 300 0c165,0 300,-135 300,-300l0 -1000c0,-165 -135,-300 -300,-300z"/>
</svg>