<?xml version="1.0" encoding="UTF-8"?>
<!DOCTYPE svg PUBLIC "-//W3C//DTD SVG 1.1//EN" "http://www.w3.org/Graphics/SVG/1.1/DTD/svg11.dtd">
<svg xmlns="http://www.w3.org/2000/svg" xml:space="preserve" width="580px" height="580px" shape-rendering="geometricPrecision" text-rendering="geometricPrecision" image-rendering="optimizeQuality" fill-rule="nonzero" clip-rule="nonzero" viewBox="0 0 5800 5800" xmlns:xlink="http://www.w3.org/1999/xlink">
	<title>beer_garden_table icon</title>
	<desc>beer_garden_table icon from the IconExperience.com I-Collection. Copyright by INCORS GmbH (www.incors.com).</desc>
	<path id="curve0"  d="M5619 2573l0 816 -200 0 0 -616 -1419 1418 0 909 -200 0 0 -800 -600 0 0 800 -200 0 0 -800 -78 0c-116,0 -172,-142 -92,-222l1720 -1719c38,-38 88,-59 141,-59l887 0c116,0 172,142 92,222l-51 51zm-3819 2327l400 0 0 -1300 -729 0c-116,-1 -170,-142 -91,-222l1920 -1919c38,-38 88,-59 141,-59l1487 0c116,0 172,142 92,222l-1920 1919c-37,38 -88,59 -141,59l-559 0 0 1300 400 0 0 200c-333,0 -667,0 -1000,0l0 -200zm191 -2600l198 0c-600,599 -1198,1200 -1798,1800l718 0 0 0 300 -300 282 0 -391 392 0 908 -200 0 0 -800 -600 0 0 800 -200 0 0 -800 -78 0c-116,0 -172,-142 -92,-222l1720 -1719c37,-38 88,-59 141,-59zm-882 1800l0 0c0,0 0,1 0,0zm0 0c1,0 0,0 0,0l0 0 0 0 0 0zm4300 -1600l-718 0 0 0 -1600 1600 718 0 0 0 1600 -1600zm-1600 1600l0 0c0,0 0,1 0,0zm0 0c1,0 0,0 0,0l0 0 0 0 0 0zm882 -1600l0 0c0,-1 0,-1 0,0zm0 0c-1,0 0,0 0,0l0 0 0 0 0 0zm68 -900l-1318 0 -1800 1800 1318 0 1800 -1800z"/>
</svg>