<?xml version="1.0" encoding="UTF-8"?>
<!DOCTYPE svg PUBLIC "-//W3C//DTD SVG 1.1//EN" "http://www.w3.org/Graphics/SVG/1.1/DTD/svg11.dtd">
<svg xmlns="http://www.w3.org/2000/svg" xml:space="preserve" width="580px" height="580px" shape-rendering="geometricPrecision" text-rendering="geometricPrecision" image-rendering="optimizeQuality" fill-rule="nonzero" clip-rule="nonzero" viewBox="0 0 5800 5800" xmlns:xlink="http://www.w3.org/1999/xlink">
	<title>bell2 icon</title>
	<desc>bell2 icon from the IconExperience.com I-Collection. Copyright by INCORS GmbH (www.incors.com).</desc>
	<path id="curve0"  d="M3278 931c10,-30 17,-62 20,-96 20,-220 -142,-414 -363,-433 -220,-20 -414,142 -433,363 -6,58 2,114 20,166 250,-42 506,-41 756,0zm1903 2561c-76,596 -376,1113 -807,1473 -353,295 -795,485 -1274,526l0 -845c156,-90 233,-275 186,-449 -57,-213 -276,-340 -489,-283 -213,57 -340,276 -283,489 26,99 90,188 186,243l0 845 -1 0c-559,-49 -1053,-294 -1421,-661 -356,-354 -594,-822 -659,-1338 -180,-38 -319,-198 -319,-392 0,-203 154,-375 355,-397 186,-845 836,-1515 1670,-1730 -21,-71 -30,-147 -23,-225 29,-330 321,-575 650,-546 330,29 575,321 546,650 -4,42 -12,82 -23,121 835,214 1484,886 1671,1730 200,23 354,194 354,397 0,192 -138,354 -319,392z"/>
</svg>