<?xml version="1.0" encoding="UTF-8"?>
<!DOCTYPE svg PUBLIC "-//W3C//DTD SVG 1.1//EN" "http://www.w3.org/Graphics/SVG/1.1/DTD/svg11.dtd">
<svg xmlns="http://www.w3.org/2000/svg" xml:space="preserve" width="580px" height="580px" shape-rendering="geometricPrecision" text-rendering="geometricPrecision" image-rendering="optimizeQuality" fill-rule="nonzero" clip-rule="nonzero" viewBox="0 0 5800 5800" xmlns:xlink="http://www.w3.org/1999/xlink">
	<title>bell2 icon</title>
	<desc>bell2 icon from the IconExperience.com I-Collection. Copyright by INCORS GmbH (www.incors.com).</desc>
	<path id="curve0" d="M3101 909c60,5 119,13 177,22 10,-30 17,-62 20,-96 20,-220 -142,-414 -363,-433 -220,-20 -414,142 -433,363 -6,58 2,114 20,166 187,-31 381,-39 579,-22zm-2801 2191c0,-203 154,-375 355,-397 186,-845 836,-1515 1670,-1730 -21,-71 -30,-147 -23,-225 29,-330 321,-575 650,-546 330,29 575,321 546,650 -4,42 -12,82 -23,121 835,214 1484,886 1671,1730 200,23 354,194 354,397 0,220 -180,400 -400,400l-4400 0c-217,0 -400,-177 -400,-400zm2800 1546l0 645c887,-84 1629,-725 1840,-1591 67,0 139,3 205,-2 -248,1125 -1297,1894 -2446,1793 -1000,-88 -1828,-815 -2044,-1793 66,5 138,2 205,2 212,866 950,1505 1840,1590l0 -644c-96,-55 -160,-144 -186,-243 -57,-213 70,-432 283,-489 213,-57 432,70 489,283 47,174 -30,359 -186,449zm-448 -3532c-904,107 -1646,791 -1816,1697 -5,50 -48,89 -99,89l-37 0c-111,0 -200,89 -200,200 0,111 89,200 200,200 1467,0 2933,0 4400,0 111,0 200,-89 200,-200 0,-111 -89,-200 -200,-200l-36 0c-48,0 -90,-34 -98,-82 -173,-935 -951,-1628 -1882,-1710 -147,-13 -291,-10 -432,6z"/>
</svg>