<?xml version="1.0" encoding="UTF-8"?>
<!DOCTYPE svg PUBLIC "-//W3C//DTD SVG 1.1//EN" "http://www.w3.org/Graphics/SVG/1.1/DTD/svg11.dtd">
<svg xmlns="http://www.w3.org/2000/svg" xml:space="preserve" width="580px" height="580px" shape-rendering="geometricPrecision" text-rendering="geometricPrecision" image-rendering="optimizeQuality" fill-rule="nonzero" clip-rule="nonzero" viewBox="0 0 5800 5800" xmlns:xlink="http://www.w3.org/1999/xlink">
	<title>beverage_can icon</title>
	<desc>beverage_can icon from the IconExperience.com I-Collection. Copyright by INCORS GmbH (www.incors.com).</desc>
		<path id="curve29"  d="M2885 786l114 -145c25,-30 60,-46 100,-43 207,16 390,48 528,91 34,11 30,60 -5,65 -232,35 -463,69 -694,104 -41,6 -69,-40 -43,-72zm558 -444c161,26 319,65 463,122 68,27 197,85 290,164 73,62 127,139 127,229l-1 109c0,70 28,107 74,156 70,73 104,160 104,260l0 3407c0,101 -34,188 -104,261 -34,36 -62,59 -78,109 -44,132 -336,213 -455,242 -310,75 -644,99 -963,99 -319,0 -653,-24 -963,-99 -120,-29 -411,-109 -455,-242 -16,-51 -43,-72 -78,-109 -70,-73 -104,-160 -104,-261l0 -3407c0,-100 34,-187 104,-260 47,-50 73,-85 73,-156l0 -109c0,-90 54,-167 127,-229 93,-79 222,-137 290,-164 144,-57 302,-96 463,-122 178,-29 362,-42 543,-42 181,0 365,13 543,42zm457 1558l-200 0 0 3000 200 0 0 -3000zm-183 -1288c-207,-69 -496,-112 -817,-112 -321,0 -610,43 -817,112 -175,58 -283,125 -283,188 0,63 108,130 283,188 207,69 496,112 817,112 321,0 610,-43 817,-112 175,-58 283,-125 283,-188 0,-63 -108,-130 -283,-188z"/>
</svg>