<?xml version="1.0" encoding="UTF-8"?>
<!DOCTYPE svg PUBLIC "-//W3C//DTD SVG 1.1//EN" "http://www.w3.org/Graphics/SVG/1.1/DTD/svg11.dtd">
<svg xmlns="http://www.w3.org/2000/svg" xml:space="preserve" width="580px" height="580px" shape-rendering="geometricPrecision" text-rendering="geometricPrecision" image-rendering="optimizeQuality" fill-rule="nonzero" clip-rule="nonzero" viewBox="0 0 5800 5800" xmlns:xlink="http://www.w3.org/1999/xlink">
	<title>beverage_can_empty icon</title>
	<desc>beverage_can_empty icon from the IconExperience.com I-Collection. Copyright by INCORS GmbH (www.incors.com).</desc>
	<path id="curve0"  d="M2807 1186l115 -145c24,-30 60,-46 99,-43 207,16 391,48 529,91 34,11 30,60 -6,65 -231,35 -462,69 -693,104 -41,6 -69,-40 -44,-72zm1248 3897c9,-22 19,-43 31,-64 26,-43 55,-72 89,-107 33,-35 48,-74 48,-123l0 -440 -105 -82 -534 412 -122 -158 479 -373 405 -646c64,-102 66,-265 34,-431 -40,-205 -132,-405 -228,-500l-29 -30 0 -41c0,-75 30,-157 65,-249 68,-180 156,-414 -35,-614 -67,-71 -104,-159 -107,-256 -72,78 -190,145 -343,196 -228,76 -539,123 -880,123 -341,0 -653,-47 -880,-123 -153,-51 -272,-118 -344,-197 -6,77 -64,129 -121,182 -28,26 -56,51 -57,54l-99 593c0,116 -6,209 -12,285 -6,86 -23,129 -17,135l181 181 400 100 419 419 -141 142 -381 -381 -273 -68 -171 769 199 500 -106 518c-7,37 27,78 51,103 49,52 85,89 114,158 2,5 3,11 7,15 17,13 39,26 50,31 39,21 82,38 126,52 319,107 718,132 1055,132 337,0 736,-25 1055,-132 27,-8 170,-64 177,-85zm-2712 -3668c28,-26 57,-46 57,-49l0 -109c0,-90 53,-166 127,-229 294,-250 867,-328 1296,-328 181,0 364,13 543,42 161,26 319,65 462,122 69,27 198,85 291,164 73,63 126,139 126,229l1 109c0,51 16,96 52,133 277,291 164,591 77,822 -21,56 -40,106 -48,145 108,129 206,348 249,566 41,211 33,427 -61,576l-303 479 211 164 0 538c0,101 -34,188 -104,261 -20,21 -47,45 -62,70 -6,11 -12,24 -17,39 -32,99 -207,168 -300,199 -339,112 -759,142 -1117,142 -358,0 -779,-30 -1118,-142 -81,-27 -170,-64 -238,-118 -28,-22 -51,-49 -62,-81 -16,-50 -44,-73 -79,-109 -73,-78 -123,-171 -101,-281l94 -460 -200 -500 195 -877 -162 -161c-57,-58 -51,-149 -41,-291 7,-97 12,-192 12,-289l101 -607c12,-70 65,-119 119,-169zm2297 -403c-207,-69 -496,-112 -817,-112 -322,0 -611,43 -818,112 -174,58 -282,125 -282,188 0,63 108,130 283,188 206,69 495,112 817,112 321,0 610,-43 817,-112 175,-58 283,-125 283,-188 0,-63 -108,-130 -283,-188z"/>
</svg>