<?xml version="1.0" encoding="UTF-8"?>
<!DOCTYPE svg PUBLIC "-//W3C//DTD SVG 1.1//EN" "http://www.w3.org/Graphics/SVG/1.1/DTD/svg11.dtd">
<svg xmlns="http://www.w3.org/2000/svg" xml:space="preserve" width="580px" height="580px" shape-rendering="geometricPrecision" text-rendering="geometricPrecision" image-rendering="optimizeQuality" fill-rule="nonzero" clip-rule="nonzero" viewBox="0 0 5800 5800" xmlns:xlink="http://www.w3.org/1999/xlink">
	<title>beverage_can icon</title>
	<desc>beverage_can icon from the IconExperience.com I-Collection. Copyright by INCORS GmbH (www.incors.com).</desc>
		<path id="curve29"  d="M2885 786l114 -145c25,-30 60,-46 100,-43 207,16 390,48 528,91 34,11 30,60 -5,65 -232,35 -463,69 -694,104 -41,6 -69,-40 -43,-72zm1015 1114l0 3000 -200 0 0 -3000 200 0zm223 -920c-71,79 -190,146 -343,197 -228,76 -539,123 -880,123 -341,0 -652,-47 -880,-123 -153,-51 -271,-118 -343,-196 -2,46 -11,90 -27,131 -25,63 -57,100 -102,147 -34,36 -48,75 -48,123l0 3407c0,49 14,88 48,123 34,35 63,64 89,107 6,10 30,63 32,66 77,61 221,100 315,122 296,72 612,93 916,93 304,0 620,-21 916,-93 90,-21 183,-48 265,-91 7,-4 50,-29 52,-33 27,-74 66,-115 119,-171 34,-35 48,-74 48,-123l0 -3407c0,-48 -14,-87 -48,-123 -81,-84 -125,-160 -129,-279zm-406 -368c-207,-69 -496,-112 -817,-112 -321,0 -610,43 -817,112 -175,58 -283,125 -283,188 0,63 108,130 283,188 207,69 496,112 817,112 321,0 610,-43 817,-112 175,-58 283,-125 283,-188 0,-63 -108,-130 -283,-188zm601 4547c-20,59 -92,106 -144,134 -96,50 -206,83 -311,108 -310,75 -644,99 -963,99 -319,0 -653,-24 -963,-99 -127,-31 -288,-78 -393,-161 -27,-22 -51,-49 -62,-81 -16,-51 -42,-72 -78,-109 -70,-73 -104,-160 -104,-261l0 -3407c0,-100 34,-187 104,-260 46,-49 73,-84 73,-156l0 -109c0,-90 54,-167 127,-229 93,-79 222,-137 290,-164 144,-57 302,-96 463,-122 184,-30 371,-42 543,-42 172,0 359,12 543,42 161,26 319,65 463,122 68,27 197,85 290,164 73,62 127,139 127,229l-1 109c0,50 18,97 53,133l21 23c70,73 104,160 104,260l0 3407c0,101 -34,188 -104,261 -36,37 -62,58 -78,109z"/>
</svg>