<?xml version="1.0" encoding="UTF-8"?>
<!DOCTYPE svg PUBLIC "-//W3C//DTD SVG 1.1//EN" "http://www.w3.org/Graphics/SVG/1.1/DTD/svg11.dtd">
<svg xmlns="http://www.w3.org/2000/svg" xml:space="preserve" width="580px" height="580px" shape-rendering="geometricPrecision" text-rendering="geometricPrecision" image-rendering="optimizeQuality" fill-rule="nonzero" clip-rule="nonzero" viewBox="0 0 5800 5800" xmlns:xlink="http://www.w3.org/1999/xlink">
	<title>beverage_can_empty icon</title>
	<desc>beverage_can_empty icon from the IconExperience.com I-Collection. Copyright by INCORS GmbH (www.incors.com).</desc>
	<path id="curve0"  d="M2807 1186l115 -145c24,-30 60,-46 99,-43 207,16 391,48 529,91 34,11 30,60 -6,65 -231,35 -462,69 -693,104 -41,6 -69,-40 -44,-72zm-1464 229c28,-26 57,-46 57,-49l0 -109c0,-197 259,-331 417,-393 306,-120 680,-164 1006,-164 326,0 699,44 1005,164 158,62 417,196 417,393l1 109c0,51 16,96 52,133 277,291 164,591 77,822 -21,56 -40,106 -48,145 108,129 206,348 249,566 41,211 33,427 -61,576l-125 197 -928 716 122 158 697 -538 142 110 0 538c0,101 -34,188 -104,261 -35,36 -62,59 -79,109 -19,59 -91,106 -143,134 -215,113 -553,163 -793,185 -316,30 -647,30 -963,0 -233,-21 -577,-72 -792,-185 -17,-9 -53,-30 -82,-53 -28,-22 -51,-49 -62,-81 -9,-29 -21,-49 -42,-71l-37 -38c-73,-78 -123,-171 -101,-281l94 -460 -200 -500 185 -836 467 117 381 381 141 -142 -419 -419 -754 -189c-22,-56 -16,-134 -9,-241 6,-78 13,-174 12,-280l0 -9 101 -607c12,-70 65,-119 119,-169zm2297 -403c-207,-69 -496,-112 -817,-112 -322,0 -611,43 -818,112 -174,58 -282,125 -282,188 0,63 108,130 283,188 206,69 495,112 817,112 321,0 610,-43 817,-112 175,-58 283,-125 283,-188 0,-63 -108,-130 -283,-188z"/>
</svg>