<?xml version="1.0" encoding="UTF-8"?>
<!DOCTYPE svg PUBLIC "-//W3C//DTD SVG 1.1//EN" "http://www.w3.org/Graphics/SVG/1.1/DTD/svg11.dtd">
<svg xmlns="http://www.w3.org/2000/svg" xml:space="preserve" width="580px" height="580px" shape-rendering="geometricPrecision" text-rendering="geometricPrecision" image-rendering="optimizeQuality" fill-rule="nonzero" clip-rule="nonzero" viewBox="0 0 5800 5800" xmlns:xlink="http://www.w3.org/1999/xlink">
	<title>bicyclist icon</title>
	<desc>bicyclist icon from the IconExperience.com I-Collection. Copyright by INCORS GmbH (www.incors.com).</desc>
		<path id="curve28" d="M1786 1778c-39,83 -47,187 -26,278 18,81 59,150 122,181 26,14 44,37 51,64l0 0c34,126 98,330 175,507 52,118 108,222 163,277 5,5 29,70 29,70 0,102 -7,213 -39,317 -5,17 -11,35 -18,52 28,25 63,48 104,69 287,143 819,143 1106,0 41,-21 75,-43 103,-68 -7,-18 -13,-36 -18,-54 -30,-101 -35,-210 -38,-314 0,-6 29,-72 29,-72 56,-56 112,-160 163,-277 79,-178 142,-382 175,-507 7,-29 27,-52 53,-64 61,-32 102,-101 120,-181 22,-94 12,-201 -29,-286 -10,-19 -11,-54 -11,-76 -238,-110 -607,-158 -989,-158 -455,0 -922,68 -1211,179 0,24 -1,41 -14,63zm1914 -78c64,0 123,53 108,120 -43,193 -70,480 -308,480l-200 0c-300,0 -300,-300 -400,-300 -100,0 -100,300 -400,300l-200 0c-236,0 -267,-289 -311,-480 -15,-68 46,-120 111,-120 499,0 1101,0 1600,0zm-303 -1316c-67,-25 -138,-44 -213,-58l-84 652c-16,121 -90,222 -200,222 -120,0 -186,-116 -200,-222l-84 -652c-75,14 -146,33 -213,58l92 516c48,270 -278,263 -400,0l-119 -256c-10,10 -20,19 -30,29 -186,186 -341,469 -341,736 0,63 9,119 27,161 307,-144 854,-234 1379,-234 451,0 892,67 1161,225 15,-42 23,-93 23,-152 0,-267 -155,-550 -341,-736 -10,-9 -20,-19 -30,-29l-119 256c-122,263 -448,270 -400,0l92 -516zm348 3365c-29,-18 -55,-37 -77,-58 -37,30 -79,56 -126,80 -148,74 -342,116 -542,126l0 1402c377,-6 938,-46 1344,-154 264,-70 456,-161 456,-276 0,-136 -26,-279 -78,-411 -48,-123 -118,-236 -209,-326 -97,-96 -246,-154 -399,-213 -126,-48 -254,-97 -369,-170zm-1692 1c-113,72 -241,121 -367,169 -153,59 -302,117 -399,213 -91,89 -161,203 -209,326 -52,132 -78,275 -78,411 0,115 192,206 456,276 406,108 967,148 1344,154l0 -1402c-200,-10 -394,-52 -542,-126 -47,-24 -89,-50 -126,-80 -23,21 -49,41 -79,59zm-105 -170c65,-38 101,-98 122,-167 21,-67 28,-145 30,-220 -63,-76 -122,-186 -175,-305 -74,-171 -137,-363 -174,-496 -96,-65 -158,-172 -186,-292 -22,-98 -21,-205 5,-305 -4,-1 -41,-24 -41,-24 -82,-83 -124,-212 -124,-362 0,-319 177,-655 399,-877 247,-247 611,-432 1096,-432 485,0 849,185 1096,432 222,222 399,558 399,877 0,150 -42,279 -124,362 -12,11 -26,20 -41,24 26,100 27,208 5,305 -28,120 -90,227 -186,292 -37,132 -99,325 -174,496 -52,118 -111,228 -174,304 2,77 8,155 28,223 23,77 56,123 125,166 100,64 216,108 331,152 173,67 342,132 469,257 111,111 196,248 254,395 61,156 92,324 92,484 0,228 -254,376 -605,469 -464,123 -1113,162 -1495,162 -382,0 -1031,-39 -1495,-162 -351,-93 -605,-241 -605,-469 0,-159 31,-328 92,-484 58,-147 143,-285 254,-395 127,-125 296,-190 469,-257 115,-44 231,-88 333,-153z"/>
</svg>