<?xml version="1.0" encoding="UTF-8"?>
<!DOCTYPE svg PUBLIC "-//W3C//DTD SVG 1.1//EN" "http://www.w3.org/Graphics/SVG/1.1/DTD/svg11.dtd">
<svg xmlns="http://www.w3.org/2000/svg" xml:space="preserve" width="580px" height="580px" shape-rendering="geometricPrecision" text-rendering="geometricPrecision" image-rendering="optimizeQuality" fill-rule="nonzero" clip-rule="nonzero" viewBox="0 0 5800 5800" xmlns:xlink="http://www.w3.org/1999/xlink">
	<title>bicyclist icon</title>
	<desc>bicyclist icon from the IconExperience.com I-Collection. Copyright by INCORS GmbH (www.incors.com).</desc>
		<path id="curve28"  d="M3700 1700c-499,0 -1101,0 -1600,0 -65,0 -126,52 -111,120 44,191 75,480 311,480l200 0c300,0 300,-300 400,-300 100,0 100,300 400,300l200 0c238,0 265,-287 308,-480 15,-67 -44,-120 -108,-120zm-1753 1881c66,-40 101,-94 123,-168 21,-67 28,-145 30,-220 -158,-190 -283,-565 -349,-801 -185,-125 -234,-391 -181,-597 -121,-39 -165,-284 -165,-386 0,-319 177,-655 399,-877 247,-247 611,-432 1096,-432 485,0 849,185 1096,432 222,222 399,558 399,877 0,107 -45,348 -165,386 53,206 4,472 -181,597 -66,238 -189,609 -348,800 2,77 8,155 28,223 23,77 56,123 125,166 100,64 216,108 331,152 173,67 342,132 469,257 226,225 346,564 346,879 0,228 -254,376 -605,469 -464,123 -1113,162 -1495,162 -382,0 -1031,-39 -1495,-162 -351,-93 -605,-241 -605,-469 0,-315 120,-655 346,-879 127,-125 296,-190 469,-257 115,-44 231,-88 332,-152zm1721 110c-37,30 -79,56 -126,80 -148,74 -342,116 -542,126l0 1402c377,-6 938,-46 1344,-154 264,-70 456,-161 456,-276 0,-262 -98,-550 -287,-737 -97,-96 -246,-154 -399,-213 -126,-48 -254,-97 -368,-169 -29,-19 -52,-35 -78,-59zm-868 206c-200,-10 -394,-52 -542,-126 -47,-24 -89,-50 -126,-80 -7,5 -79,59 -78,59 -114,72 -242,121 -368,169 -153,59 -302,117 -399,213 -189,186 -287,475 -287,737 0,115 192,206 456,276 406,108 967,148 1344,154l0 -1402zm100 -2697c-110,0 -184,-101 -200,-222l-84 -652c-75,14 -146,33 -213,58l92 516c48,270 -278,263 -400,0l-119 -256c-10,10 -20,19 -30,29 -186,186 -341,469 -341,736 0,63 9,119 27,161 307,-144 854,-234 1379,-234 451,0 892,67 1161,225 15,-42 23,-93 23,-152 0,-267 -155,-550 -341,-736 -10,-9 -20,-19 -30,-29l-119 256c-122,263 -448,270 -400,0l92 -516c-67,-25 -138,-44 -213,-58l-84 652c-16,121 -90,222 -200,222z"/>
</svg>