<?xml version="1.0" encoding="UTF-8"?>
<!DOCTYPE svg PUBLIC "-//W3C//DTD SVG 1.1//EN" "http://www.w3.org/Graphics/SVG/1.1/DTD/svg11.dtd">
<svg xmlns="http://www.w3.org/2000/svg" xml:space="preserve" width="580px" height="580px" shape-rendering="geometricPrecision" text-rendering="geometricPrecision" image-rendering="optimizeQuality" fill-rule="nonzero" clip-rule="nonzero" viewBox="0 0 5800 5800" xmlns:xlink="http://www.w3.org/1999/xlink">
	<title>bicycle icon</title>
	<desc>bicycle icon from the IconExperience.com I-Collection. Copyright by INCORS GmbH (www.incors.com).</desc>
		<path id="curve28"  d="M3300 1950c-83,0 -150,-67 -150,-150 0,-83 67,-150 150,-150l500 0c112,0 183,118 135,216l-173 433 465 1115 479 480c59,59 59,154 0,212 -58,59 -153,59 -212,0l-500 -500c-13,-14 -24,-30 -32,-49l-257 -616 -668 1418c-27,64 -95,100 -163,89l-1700 -300c-114,-20 -162,-156 -90,-243l900 -1259 -152 -333 -207 35c-82,13 -159,-42 -173,-123 -6,-36 -2,-88 -2,-125 0,-83 67,-150 150,-150l600 0c83,0 150,67 150,150 0,78 -59,142 -135,149l-77 13 86 188 1276 0 -38 -93c-15,-35 -16,-75 -1,-113l118 -294 -279 0zm1300 900c635,0 1150,515 1150,1150 0,635 -515,1150 -1150,1150 -635,0 -1150,-515 -1150,-1150 0,-39 2,-77 6,-115l248 -558 119 288c3,7 6,13 9,19 -52,111 -82,235 -82,366 0,469 381,850 850,850 469,0 850,-381 850,-850 0,-469 -381,-850 -850,-850 -105,0 -206,19 -299,54l-115 -277c128,-50 268,-77 414,-77zm-3400 0c141,0 277,26 402,72l-183 257c-70,-19 -143,-29 -219,-29 -469,0 -850,381 -850,850 0,469 381,850 850,850 235,0 447,-95 601,-249 39,-39 74,-81 105,-127l306 72c-53,99 -120,189 -199,267 -208,208 -495,337 -813,337 -635,0 -1150,-515 -1150,-1150 0,-635 515,-1150 1150,-1150zm889 420c156,190 252,430 260,693l-306 -72c-17,-134 -65,-258 -137,-365l183 -256zm1375 -520l-1104 0 542 1193 562 -1193zm-1337 210l-667 934 1186 209 -519 -1143z"/>
</svg>