<?xml version="1.0" encoding="UTF-8"?>
<!DOCTYPE svg PUBLIC "-//W3C//DTD SVG 1.1//EN" "http://www.w3.org/Graphics/SVG/1.1/DTD/svg11.dtd">
<svg xmlns="http://www.w3.org/2000/svg" xml:space="preserve" width="580px" height="580px" shape-rendering="geometricPrecision" text-rendering="geometricPrecision" image-rendering="optimizeQuality" fill-rule="nonzero" clip-rule="nonzero" viewBox="0 0 5800 5800" xmlns:xlink="http://www.w3.org/1999/xlink">
	<title>binocular icon</title>
	<desc>binocular icon from the IconExperience.com I-Collection. Copyright by INCORS GmbH (www.incors.com).</desc>
		<path id="curve28"  d="M1500 4700c442,0 800,-358 800,-800 0,-442 -358,-800 -800,-800 -442,0 -800,358 -800,800 0,442 358,800 800,800zm2800 0c442,0 800,-358 800,-800 0,-442 -358,-800 -800,-800 -442,0 -800,358 -800,800 0,442 358,800 800,800zm-1650 -455c-152,522 -607,855 -1150,855 -646,0 -1200,-553 -1200,-1200 0,-110 14,-223 46,-328l481 -1561c72,-234 281,-462 492,-581l137 -382c80,-223 315,-348 544,-348 314,0 512,203 591,491 22,-13 44,-24 68,-34 71,-30 150,-47 233,-47 85,0 167,19 242,52 25,11 49,24 73,38 80,-292 272,-500 593,-500 229,0 464,125 544,348l137 382c211,119 420,347 492,581l481 1561c32,105 46,218 46,328 0,647 -554,1200 -1200,1200 -543,0 -998,-333 -1150,-855 -158,73 -342,73 -500,0z"/>
</svg>