<?xml version="1.0" encoding="UTF-8"?>
<!DOCTYPE svg PUBLIC "-//W3C//DTD SVG 1.1//EN" "http://www.w3.org/Graphics/SVG/1.1/DTD/svg11.dtd">
<svg xmlns="http://www.w3.org/2000/svg" xml:space="preserve" width="580px" height="580px" shape-rendering="geometricPrecision" text-rendering="geometricPrecision" image-rendering="optimizeQuality" fill-rule="nonzero" clip-rule="nonzero" viewBox="0 0 5800 5800" xmlns:xlink="http://www.w3.org/1999/xlink">
	<title>bird icon</title>
	<desc>bird icon from the IconExperience.com I-Collection. Copyright by INCORS GmbH (www.incors.com).</desc>
	<path id="curve0" d="M4051 2647c67,99 134,198 183,268 230,333 573,487 940,628 201,78 253,167 216,263 -41,105 -219,160 -382,211 -93,28 -179,55 -195,70 -3,3 6,91 6,106 0,115 -39,207 -272,207 -348,0 -647,-168 -859,-287 -105,-60 -183,-103 -183,-103 -35,17 -68,32 -100,46l88 970 238 79c52,18 81,74 64,126 -18,52 -74,81 -126,64l-251 -84 -358 269c-44,33 -107,24 -140,-20 -33,-44 -24,-107 20,-140l73 -54 -197 32c-54,10 -105,-27 -114,-82 -9,-54 27,-105 82,-114l508 -85 -80 -889c-182,58 -348,82 -539,82 -544,0 -1025,-272 -1345,-709 -235,-320 -367,-709 -367,-1080 0,-110 12,-219 36,-325 20,-86 30,-187 16,-275l-513 -123 253 -244 -253 -244 515 -124c126,-391 447,-586 869,-586 454,0 826,188 981,637 124,355 375,576 659,809 116,94 322,397 527,701zm-2391 2633c-44,33 -107,24 -140,-20 -33,-44 -24,-107 20,-140l73 -54 -197 32c-54,10 -105,-27 -114,-82 -9,-54 27,-105 82,-114l550 -92 236 -472c32,10 65,18 98,26 34,8 67,14 101,20l-229 458 191 63c52,18 81,74 64,126 -18,52 -74,81 -126,64l-251 -84 -358 269zm-468 -3140c-21,90 -31,185 -31,281 0,329 118,676 328,962 283,386 703,627 1184,627 277,0 494,-58 746,-179 94,-46 209,19 367,107 192,109 465,262 761,262 62,0 72,-3 72,-7 0,-13 -1,-24 -2,-36 -7,-71 -14,-144 58,-213 49,-48 158,-82 274,-118 81,-25 166,-51 215,-70 24,-10 -50,-23 -61,-27 -412,-158 -775,-328 -1033,-701 -14,-20 -185,-269 -184,-270 -197,-291 -394,-581 -487,-658 -317,-259 -585,-502 -722,-898 -127,-366 -427,-502 -793,-502 -348,0 -607,165 -693,494l-15 58 -276 66 141 136 -141 135 271 65c60,174 62,308 21,486z"/>
</svg>