<?xml version="1.0" encoding="UTF-8"?>
<!DOCTYPE svg PUBLIC "-//W3C//DTD SVG 1.1//EN" "http://www.w3.org/Graphics/SVG/1.1/DTD/svg11.dtd">
<svg xmlns="http://www.w3.org/2000/svg" xml:space="preserve" width="580px" height="580px" shape-rendering="geometricPrecision" text-rendering="geometricPrecision" image-rendering="optimizeQuality" fill-rule="nonzero" clip-rule="nonzero" viewBox="0 0 5800 5800" xmlns:xlink="http://www.w3.org/1999/xlink">
	<title>bird icon</title>
	<desc>bird icon from the IconExperience.com I-Collection. Copyright by INCORS GmbH (www.incors.com).</desc>
	<path id="curve0"  d="M4051 2647c67,99 134,198 183,268 91,132 196,238 341,336 149,101 340,192 599,292 201,78 253,167 216,263 -41,105 -219,160 -382,211 -93,28 -179,55 -195,70 -3,3 6,91 6,106 0,115 -39,207 -272,207 -348,0 -647,-168 -859,-287 -105,-60 -183,-103 -183,-103 -35,17 -68,32 -100,46l88 970 238 79c52,18 81,74 64,126 -18,52 -74,81 -126,64l-251 -84 -358 269c-44,33 -107,24 -140,-20 -33,-44 -24,-107 20,-140l73 -54 -197 32c-54,10 -105,-27 -114,-82 -9,-54 27,-105 82,-114l508 -85 -80 -889c-288,92 -605,109 -899,41 -779,-180 -1352,-959 -1352,-1748 0,-110 12,-219 36,-325 20,-86 30,-187 16,-275l-513 -123 253 -244 -253 -244 515 -124c126,-391 447,-586 869,-586 454,0 826,188 981,637 46,132 104,246 201,369 100,127 243,264 458,440 116,94 322,397 527,701zm-2391 2633c-44,33 -107,24 -140,-20 -33,-44 -24,-107 20,-140l73 -54 -197 32c-54,10 -105,-27 -114,-82 -9,-54 27,-105 82,-114l550 -92 236 -472c65,19 132,35 199,46l-229 458 191 63c52,18 81,74 64,126 -18,52 -74,81 -126,64l-251 -84 -358 269z"/>
</svg>