<?xml version="1.0" encoding="UTF-8"?>
<!DOCTYPE svg PUBLIC "-//W3C//DTD SVG 1.1//EN" "http://www.w3.org/Graphics/SVG/1.1/DTD/svg11.dtd">
<svg xmlns="http://www.w3.org/2000/svg" xml:space="preserve" width="580px" height="580px" shape-rendering="geometricPrecision" text-rendering="geometricPrecision" image-rendering="optimizeQuality" fill-rule="nonzero" clip-rule="nonzero" viewBox="0 0 5800 5800" xmlns:xlink="http://www.w3.org/1999/xlink">
	<title>blackboard icon</title>
	<desc>blackboard icon from the IconExperience.com I-Collection. Copyright by INCORS GmbH (www.incors.com).</desc>
		<path id="curve28"  d="M5500 900l0 3800 -800 0 0 -400 -1600 0 0 400 -2800 0 0 -3800 5200 0zm-1702 601c-203,3 -362,36 -518,177 -145,131 -248,338 -263,635 -14,113 33,262 99,354 85,118 211,185 357,192 150,8 335,-47 548,-201 45,-32 55,-94 23,-139 -32,-44 -95,-54 -139,-22 -173,124 -313,169 -422,163 -84,-4 -156,-41 -205,-110 -44,-61 -66,-140 -63,-220 22,-186 49,-368 199,-503 112,-101 250,-126 384,-126 56,0 100,-45 100,-100 0,-55 -44,-100 -100,-100zm-1960 460c-45,19 -69,70 -56,118l146 517 173 616c12,51 62,85 115,76 66,-12 129,-26 187,-42 193,-55 332,-133 420,-223 101,-103 137,-220 117,-338 -2,-11 -5,-24 -9,-36 -51,-181 -155,-259 -293,-281 45,-79 52,-178 15,-311 -4,-16 -10,-32 -16,-46 -43,-97 -121,-153 -228,-172 -88,-17 -196,-6 -318,29 -24,6 -257,85 -253,93zm160 149l95 336c143,-41 255,-78 321,-126 57,-41 77,-103 47,-209 -35,-125 -228,-76 -316,-51 -46,13 -95,29 -147,50zm149 528c291,-79 538,-128 592,65 19,69 -10,131 -59,181 -64,66 -173,125 -331,170 -25,7 -52,13 -79,19l-123 -435zm-930 -262c-13,-30 -41,-52 -75,-57 -54,-8 -105,29 -114,83 -5,34 -16,98 -27,165 -41,248 -89,535 -92,815 -11,26 -12,55 0,82 2,107 11,213 31,315 10,54 62,90 116,79 54,-10 90,-62 80,-116 -17,-87 -25,-179 -27,-273l432 -294c102,104 212,197 322,265 47,28 109,13 137,-34 29,-47 14,-108 -33,-137 -141,-86 -282,-220 -405,-368 -150,-177 -274,-373 -345,-525zm189 649c-85,-101 -162,-207 -227,-309 -26,161 -52,335 -64,507l291 -198zm4094 1875l0 200 -5200 0 0 -200c1733,0 3467,0 5200,0z"/>
</svg>