<?xml version="1.0" encoding="UTF-8"?>
<!DOCTYPE svg PUBLIC "-//W3C//DTD SVG 1.1//EN" "http://www.w3.org/Graphics/SVG/1.1/DTD/svg11.dtd">
<svg xmlns="http://www.w3.org/2000/svg" xml:space="preserve" width="580px" height="580px" shape-rendering="geometricPrecision" text-rendering="geometricPrecision" image-rendering="optimizeQuality" fill-rule="nonzero" clip-rule="nonzero" viewBox="0 0 5800 5800" xmlns:xlink="http://www.w3.org/1999/xlink">
	<title>blackboard icon</title>
	<desc>blackboard icon from the IconExperience.com I-Collection. Copyright by INCORS GmbH (www.incors.com).</desc>
		<path id="curve28" d="M3798 1501l-2 0c-184,-8 -370,46 -516,177 -145,131 -248,338 -263,635l-1 9c-5,122 30,247 100,345 39,54 89,100 148,134 60,33 130,54 209,58 150,8 335,-47 548,-201 45,-32 55,-94 23,-139 -32,-44 -95,-54 -139,-22 -173,124 -313,169 -422,163 -46,-2 -87,-14 -121,-34 -34,-19 -62,-45 -84,-76 -44,-61 -66,-140 -63,-220 0,-1 1,-11 1,-11 13,-236 90,-395 198,-492 104,-94 239,-132 372,-127 4,1 8,1 12,1 56,0 100,-45 100,-100 0,-55 -44,-100 -100,-100zm902 2799l0 400 600 0 0 -3600 -4800 0 0 3600 2600 0 0 -400 1600 0zm800 -3400c0,1400 0,2800 0,4200l-5200 0c0,-1400 0,-2800 0,-4200l5200 0zm-1000 3600l-1200 0 0 200 1200 0 0 -200zm-2662 -2539c-45,19 -69,70 -56,118l146 517 173 616c12,51 62,85 115,76 66,-12 129,-26 187,-42 193,-55 332,-133 420,-223 101,-103 137,-220 117,-338 -2,-11 -5,-24 -9,-36 -51,-181 -155,-259 -293,-281 45,-79 52,-178 15,-311 -4,-16 -10,-32 -16,-46 -43,-97 -121,-153 -228,-172 -88,-17 -196,-6 -318,29 -24,6 -257,85 -253,93zm160 149c52,-21 101,-37 147,-50 94,-27 171,-36 229,-25 38,7 66,25 80,57 3,6 5,13 7,19 30,106 10,168 -47,209 -66,48 -178,85 -321,126l-95 -336zm149 528c291,-79 538,-128 592,65 1,5 3,10 4,16 9,55 -11,112 -63,165 -64,66 -173,125 -331,170 -25,7 -52,13 -79,19l-123 -435zm-930 -262c71,152 195,348 345,525 123,148 264,282 405,368 47,29 62,90 33,137 -28,47 -90,62 -137,34 -110,-68 -220,-161 -322,-265l-432 294c2,94 10,186 27,273 10,54 -26,106 -80,116 -54,11 -106,-25 -116,-79 -20,-102 -29,-208 -31,-315 -12,-27 -11,-56 0,-82 3,-280 51,-567 92,-815 11,-67 22,-131 27,-165 9,-54 60,-91 114,-83 34,5 62,27 75,57zm189 649c-85,-101 -162,-207 -227,-309 -26,161 -52,335 -64,507l291 -198z"/>
</svg>