<?xml version="1.0" encoding="UTF-8"?>
<!DOCTYPE svg PUBLIC "-//W3C//DTD SVG 1.1//EN" "http://www.w3.org/Graphics/SVG/1.1/DTD/svg11.dtd">
<svg xmlns="http://www.w3.org/2000/svg" xml:space="preserve" width="580px" height="580px" shape-rendering="geometricPrecision" text-rendering="geometricPrecision" image-rendering="optimizeQuality" fill-rule="nonzero" clip-rule="nonzero" viewBox="0 0 5800 5800" xmlns:xlink="http://www.w3.org/1999/xlink">
	<title>blender icon</title>
	<desc>blender icon from the IconExperience.com I-Collection. Copyright by INCORS GmbH (www.incors.com).</desc>
	<path id="curve0"  d="M4611 900l389 0c178,0 335,168 296,346l-401 1825c-53,239 -242,429 -495,429l-113 0c48,-127 79,-266 113,-400 61,0 93,-63 104,-115l371 -1685 -306 0 42 -400zm-2111 -700l800 0c110,0 200,90 200,200l0 200 800 0 0 200c-933,0 -1867,0 -2800,0l0 -200 800 0 0 -200c0,-110 90,-200 200,-200zm1571 3300c-71,163 -171,314 -297,439 -28,28 -46,46 -43,90 1,30 14,55 37,73 337,267 532,669 532,1098l0 300 -2800 0 0 -300c0,-429 195,-831 531,-1097 24,-20 37,-43 38,-74 2,-44 -15,-62 -43,-90 -125,-125 -226,-277 -297,-439l2342 0zm-2414 -200c-28,-95 -46,-192 -56,-290l-130 -1296c-3,-28 -13,-48 -35,-67l-476 -405c-132,-113 -38,-342 140,-342l3310 0 -211 2110c-10,98 -28,195 -56,290l-2486 0z"/>
</svg>