<?xml version="1.0" encoding="UTF-8"?>
<!DOCTYPE svg PUBLIC "-//W3C//DTD SVG 1.1//EN" "http://www.w3.org/Graphics/SVG/1.1/DTD/svg11.dtd">
<svg xmlns="http://www.w3.org/2000/svg" xml:space="preserve" width="580px" height="580px" shape-rendering="geometricPrecision" text-rendering="geometricPrecision" image-rendering="optimizeQuality" fill-rule="nonzero" clip-rule="nonzero" viewBox="0 0 5800 5800" xmlns:xlink="http://www.w3.org/1999/xlink">
	<title>blender icon</title>
	<desc>blender icon from the IconExperience.com I-Collection. Copyright by INCORS GmbH (www.incors.com).</desc>
	<path id="curve0" d="M2500 200l800 0c110,0 200,90 200,200l0 200 800 0 0 200c-933,0 -1867,0 -2800,0l0 -200 800 0 0 -200c0,-110 90,-200 200,-200zm1571 3300c-71,163 -171,314 -297,439 -28,28 -46,46 -43,90 1,30 14,55 37,73 337,267 532,669 532,1098l0 300 -2800 0 0 -300c0,-429 195,-831 531,-1097 24,-20 37,-43 38,-74 2,-44 -15,-62 -43,-90 -131,-131 -236,-292 -307,-463 -62,-147 -102,-306 -118,-466l-130 -1296c-3,-28 -13,-48 -35,-67l-476 -405c-132,-113 -38,-342 140,-342l3310 0 -211 2110c-17,169 -60,336 -128,490zm-136 -200c33,-100 55,-204 66,-310l189 -1890 -3089 0 465 396c60,51 96,120 104,198l129 1296c11,106 33,210 66,310l2070 0zm676 -2400l389 0c44,0 85,9 124,26 118,54 201,190 172,320l-401 1825c-53,239 -242,429 -495,429l-113 0c24,-65 46,-132 63,-200l50 0c160,0 267,-124 299,-272l402 -1825c11,-52 -49,-103 -101,-103l-409 0 20 -200zm-2456 3359c-288,228 -455,573 -455,941l0 100 2400 0 0 -100c0,-368 -167,-713 -455,-941 -70,-56 -109,-132 -113,-220 -5,-89 27,-168 90,-230 92,-90 168,-195 228,-309l-1900 0c60,114 136,219 228,309 63,62 95,141 90,230 -4,88 -43,165 -113,220zm1145 -3859l-800 0 0 200 800 0c0,-67 0,-200 0,-200z"/>
</svg>