<?xml version="1.0" encoding="UTF-8"?>
<!DOCTYPE svg PUBLIC "-//W3C//DTD SVG 1.1//EN" "http://www.w3.org/Graphics/SVG/1.1/DTD/svg11.dtd">
<svg xmlns="http://www.w3.org/2000/svg" xml:space="preserve" width="580px" height="580px" shape-rendering="geometricPrecision" text-rendering="geometricPrecision" image-rendering="optimizeQuality" fill-rule="nonzero" clip-rule="nonzero" viewBox="0 0 5800 5800" xmlns:xlink="http://www.w3.org/1999/xlink">
	<title>blood_bag icon</title>
	<desc>blood_bag icon from the IconExperience.com I-Collection. Copyright by INCORS GmbH (www.incors.com).</desc>
	<path id="curve0" d="M4200 500l0 400 100 0c331,0 600,269 600,600l0 3300c0,386 -314,700 -700,700l-2600 0c-386,0 -700,-314 -700,-700l0 -3300c0,-331 269,-600 600,-600l100 0 0 -400 800 0 0 400 400 0 0 -600 200 0 0 600 400 0 0 -400 800 0zm0 600l0 100c0,165 -135,300 -300,300l0 300c0,55 45,100 100,100 165,0 300,135 300,300l0 2300c0,220 -180,400 -400,400l-2000 0c-220,0 -400,-180 -400,-400l0 -2300c0,-165 135,-300 300,-300 55,0 100,-45 100,-100l0 -300c-165,0 -300,-135 -300,-300l0 -100 -100 0c-220,0 -400,180 -400,400l0 3300c0,275 225,500 500,500l2600 0c275,0 500,-225 500,-500l0 -3300c0,-220 -180,-400 -400,-400l-100 0zm-2100 400l0 300c0,55 45,100 100,100l500 0c55,0 100,-45 100,-100l0 -700 -400 0 0 100c0,165 -135,300 -300,300zm900 -400l0 700c0,55 45,100 100,100l500 0c55,0 100,-45 100,-100l0 -300c-165,0 -300,-135 -300,-300l0 -100 -400 0zm-800 -400l-400 0 0 500c0,55 45,100 100,100l200 0c55,0 100,-45 100,-100l0 -500zm1800 0l-400 0 0 500c0,55 45,100 100,100l200 0c55,0 100,-45 100,-100l0 -500z"/>
</svg>