<?xml version="1.0" encoding="UTF-8"?>
<!DOCTYPE svg PUBLIC "-//W3C//DTD SVG 1.1//EN" "http://www.w3.org/Graphics/SVG/1.1/DTD/svg11.dtd">
<svg xmlns="http://www.w3.org/2000/svg" xml:space="preserve" width="580px" height="580px" shape-rendering="geometricPrecision" text-rendering="geometricPrecision" image-rendering="optimizeQuality" fill-rule="nonzero" clip-rule="nonzero" viewBox="0 0 5800 5800" xmlns:xlink="http://www.w3.org/1999/xlink">
	<title>blood_bag icon</title>
	<desc>blood_bag icon from the IconExperience.com I-Collection. Copyright by INCORS GmbH (www.incors.com).</desc>
	<path id="curve0"  d="M1800 2100c-54,0 -100,46 -100,100l0 2300c0,110 90,200 200,200l2000 0c109,0 200,-91 200,-200l0 -2300c0,-55 -45,-100 -100,-100 -680,0 -1473,0 -2200,0zm800 -1200l0 -600 200 0 0 1500c0,55 -45,100 -100,100l-500 0c-55,0 -100,-45 -100,-100l0 -500c55,0 100,-45 100,-100l0 -500 -400 0 0 500c0,55 45,100 100,100l0 500c0,55 -45,100 -100,100 -165,0 -300,135 -300,300l0 2300c0,220 180,400 400,400l2000 0c220,0 400,-180 400,-400l0 -2300c0,-165 -135,-300 -300,-300 -55,0 -100,-45 -100,-100l0 -500c55,0 100,-45 100,-100l0 -500 -400 0 0 500c0,55 45,100 100,100l0 500c0,55 -45,100 -100,100l-500 0c-55,0 -100,-45 -100,-100l0 -1500 200 0 0 600 200 0 0 -400 800 0 0 400 100 0 0 0c165,0 315,67 424,176 109,109 176,259 176,424l0 3300c0,386 -314,700 -700,700l-2600 0c-386,0 -700,-314 -700,-700l0 -3300 0 0c0,-165 67,-315 176,-424 109,-109 259,-176 424,-176l100 0 0 -400 800 0 0 400 200 0z"/>
</svg>