<?xml version="1.0" encoding="UTF-8"?>
<!DOCTYPE svg PUBLIC "-//W3C//DTD SVG 1.1//EN" "http://www.w3.org/Graphics/SVG/1.1/DTD/svg11.dtd">
<svg xmlns="http://www.w3.org/2000/svg" xml:space="preserve" width="580px" height="580px" shape-rendering="geometricPrecision" text-rendering="geometricPrecision" image-rendering="optimizeQuality" fill-rule="nonzero" clip-rule="nonzero" viewBox="0 0 5800 5800" xmlns:xlink="http://www.w3.org/1999/xlink">
	<title>blot icon</title>
	<desc>blot icon from the IconExperience.com I-Collection. Copyright by INCORS GmbH (www.incors.com).</desc>
		<path id="curve28"  d="M4844 3833c-116,0 -221,-53 -322,-103 -81,-41 -163,-82 -233,-82 -131,0 -226,71 -258,198 -34,131 12,284 127,360 241,158 416,331 416,638 0,362 -293,656 -655,656 -365,0 -640,-295 -656,-651 -15,-345 -191,-616 -390,-745 -64,-42 -130,-68 -193,-75 -56,-7 -110,2 -155,29 -94,56 -162,189 -174,421 -17,356 -290,651 -655,651 -362,0 -655,-294 -655,-656 0,-399 366,-651 683,-870 144,-99 277,-190 345,-277 58,-74 54,-154 -76,-256 -444,-349 -455,-544 -246,-809 60,-77 142,-158 238,-255 34,-34 68,-71 80,-120 10,-43 0,-86 -23,-125 -28,-46 -72,-88 -124,-121 -71,-46 -154,-74 -222,-74 -355,0 -655,-243 -655,-611 0,-362 293,-656 655,-656 362,0 656,294 656,656 0,227 111,412 354,397 154,-10 335,-118 311,-294 -10,-77 -124,-140 -124,-289 0,-259 210,-470 470,-470 260,0 470,211 470,470 0,104 -49,242 -101,387 -50,138 -102,282 -102,378 0,39 18,65 70,65 101,0 194,-6 280,-12 153,-10 285,-18 392,8 222,56 314,221 199,680 -13,52 -21,125 14,170 50,67 182,76 259,76 362,0 656,294 656,656 0,362 -293,655 -656,655zm-467 -1605c78,-310 45,-413 -54,-438 -77,-19 -194,-11 -331,-2 -91,6 -191,12 -292,12 -201,0 -270,-106 -270,-265 0,-128 59,-290 114,-446 46,-126 89,-248 89,-319 0,-149 -121,-270 -270,-270 -149,0 -270,121 -270,270 0,59 107,154 122,264 39,297 -224,501 -497,518 -360,23 -566,-247 -566,-596 0,-252 -204,-456 -456,-456 -251,0 -455,204 -455,456 0,257 211,411 455,411 105,0 226,40 329,106 77,49 145,113 189,188 49,82 69,175 45,274 -18,68 -56,137 -122,202 -78,76 -166,163 -233,248 -123,156 -104,281 212,529 250,196 244,367 110,537 -86,109 -231,209 -389,317 -277,191 -596,411 -596,706 0,252 204,456 455,456 257,0 444,-212 456,-461 15,-307 123,-494 272,-583 84,-50 180,-67 279,-55 93,10 188,47 279,106 246,159 462,488 481,903 11,249 199,460 456,460 251,0 455,-204 455,-456 0,-233 -144,-353 -325,-472 -188,-124 -267,-361 -211,-576 55,-214 229,-348 451,-348 115,0 219,52 322,104 66,33 158,81 233,81 0,31 456,-49 456,-455 0,-252 -204,-456 -456,-456 -149,0 -322,-29 -418,-155 -76,-99 -78,-223 -49,-339zm623 -1528c276,0 500,224 500,500 0,276 -224,500 -500,500 -276,0 -500,-224 -500,-500 0,-276 224,-500 500,-500zm0 200c-166,0 -300,134 -300,300 0,166 134,300 300,300 166,0 300,-134 300,-300 0,-166 -134,-300 -300,-300zm-4100 1100c331,0 600,269 600,600 0,331 -269,600 -600,600 -331,0 -600,-269 -600,-600 0,-331 269,-600 600,-600zm0 200c-221,0 -400,179 -400,400 0,110 45,210 117,283 73,72 173,117 283,117 221,0 400,-179 400,-400 0,-221 -179,-400 -400,-400z"/>
</svg>