<?xml version="1.0" encoding="UTF-8"?>
<!DOCTYPE svg PUBLIC "-//W3C//DTD SVG 1.1//EN" "http://www.w3.org/Graphics/SVG/1.1/DTD/svg11.dtd">
<svg xmlns="http://www.w3.org/2000/svg" xml:space="preserve" width="580px" height="580px" shape-rendering="geometricPrecision" text-rendering="geometricPrecision" image-rendering="optimizeQuality" fill-rule="nonzero" clip-rule="nonzero" viewBox="0 0 5800 5800" xmlns:xlink="http://www.w3.org/1999/xlink">
	<title>blot icon</title>
	<desc>blot icon from the IconExperience.com I-Collection. Copyright by INCORS GmbH (www.incors.com).</desc>
		<path id="curve28"  d="M900 2000c331,0 600,269 600,600 0,331 -269,600 -600,600 -331,0 -600,-269 -600,-600 0,-331 269,-600 600,-600zm4100 -1300c276,0 500,224 500,500 0,276 -224,500 -500,500 -276,0 -500,-224 -500,-500 0,-276 224,-500 500,-500zm-156 3133c-115,0 -218,-51 -322,-103 -131,-66 -281,-135 -410,-21 -144,126 -112,393 46,497 241,158 416,331 416,638 0,362 -293,656 -655,656 -365,0 -640,-295 -656,-651 -15,-345 -191,-616 -390,-745 -99,-64 -238,-111 -348,-46 -94,56 -162,189 -174,421 -17,356 -290,651 -655,651 -362,0 -655,-294 -655,-656 0,-399 366,-651 683,-870 144,-99 277,-190 345,-277 58,-74 54,-154 -76,-256 -444,-349 -455,-544 -246,-809 65,-83 172,-189 249,-266 69,-69 99,-144 46,-234 -63,-107 -223,-195 -346,-195 -355,0 -655,-243 -655,-611 0,-362 293,-656 655,-656 362,0 656,294 656,656 0,208 84,324 193,371 101,44 226,32 323,-18 96,-50 164,-140 149,-250 -10,-77 -124,-140 -124,-289 0,-259 210,-470 470,-470 260,0 470,211 470,470 0,104 -49,242 -101,387 -50,138 -102,282 -102,378 0,39 18,65 70,65 200,0 492,-48 672,-4 222,56 314,221 199,680 -13,52 -21,125 14,170 50,67 182,76 259,76 181,0 345,74 464,192 119,119 192,283 192,464 0,362 -293,655 -656,655z"/>
</svg>