<?xml version="1.0" encoding="UTF-8"?>
<!DOCTYPE svg PUBLIC "-//W3C//DTD SVG 1.1//EN" "http://www.w3.org/Graphics/SVG/1.1/DTD/svg11.dtd">
<svg xmlns="http://www.w3.org/2000/svg" xml:space="preserve" width="580px" height="580px" shape-rendering="geometricPrecision" text-rendering="geometricPrecision" image-rendering="optimizeQuality" fill-rule="nonzero" clip-rule="nonzero" viewBox="0 0 5800 5800" xmlns:xlink="http://www.w3.org/1999/xlink">
	<title>body_scale icon</title>
	<desc>body_scale icon from the IconExperience.com I-Collection. Copyright by INCORS GmbH (www.incors.com).</desc>
		<path id="curve28"  d="M1400 500l3000 0c496,0 900,404 900,900l0 3000c0,496 -404,900 -900,900l-3000 0c-496,0 -900,-404 -900,-900l0 -3000c0,-496 404,-900 900,-900zm2534 1112l-433 498c-83,95 -220,118 -328,53 -41,-24 -86,-43 -131,-56 -91,-25 -193,-25 -284,0 -45,13 -90,32 -131,56 -108,65 -245,42 -328,-53l-433 -498c-75,-86 -87,-211 -30,-309 18,-32 43,-59 74,-82 288,-208 634,-321 990,-321 356,0 702,113 990,321 127,92 147,273 44,391zm-584 367l434 -498c26,-30 22,-75 -11,-98 -256,-185 -557,-283 -873,-283 -316,0 -617,98 -873,283 -33,23 -37,68 -11,98l434 498c20,22 49,28 76,12 55,-32 115,-58 180,-76 31,-8 62,-15 94,-19l0 -496 200 0 0 496c32,4 63,11 94,19 65,18 125,44 180,76 27,16 56,10 76,-12zm-1850 521l2800 0c220,0 400,180 400,400l0 1400c0,220 -180,400 -400,400l-2800 0c-220,0 -400,-180 -400,-400l0 -1400c0,-220 180,-400 400,-400zm2800 200l-2800 0c-111,0 -200,89 -200,200l0 1400c0,110 90,200 200,200l2800 0c110,0 200,-90 200,-200l0 -1400c0,-110 -90,-200 -200,-200zm100 -2000l-3000 0c-385,0 -700,315 -700,700l0 3000c0,385 315,700 700,700l3000 0c385,0 700,-315 700,-700l0 -3000c0,-385 -315,-700 -700,-700z"/>
</svg>