<?xml version="1.0" encoding="UTF-8"?>
<!DOCTYPE svg PUBLIC "-//W3C//DTD SVG 1.1//EN" "http://www.w3.org/Graphics/SVG/1.1/DTD/svg11.dtd">
<svg xmlns="http://www.w3.org/2000/svg" xml:space="preserve" width="580px" height="580px" shape-rendering="geometricPrecision" text-rendering="geometricPrecision" image-rendering="optimizeQuality" fill-rule="nonzero" clip-rule="nonzero" viewBox="0 0 5800 5800" xmlns:xlink="http://www.w3.org/1999/xlink">
	<title>body_scale icon</title>
	<desc>body_scale icon from the IconExperience.com I-Collection. Copyright by INCORS GmbH (www.incors.com).</desc>
		<path id="curve28"  d="M3934 1612c50,-57 72,-130 64,-205 -8,-76 -46,-141 -108,-186 -288,-208 -634,-321 -990,-321 -356,0 -702,113 -990,321 -62,45 -100,110 -108,186 -8,75 14,148 64,205l433 498c83,95 220,118 328,53 84,-50 175,-74 273,-74 98,0 189,24 273,74 108,65 245,42 328,-53l433 -498zm-2434 888c-220,0 -400,180 -400,400l0 1400c0,220 180,400 400,400l2800 0c220,0 400,-180 400,-400l0 -1400c0,-220 -180,-400 -400,-400l-2800 0zm2800 200l-2800 0c-111,0 -200,89 -200,200l0 1400c0,110 90,200 200,200l2800 0c110,0 200,-90 200,-200l0 -1400c0,-110 -90,-200 -200,-200zm-1500 -804c-97,13 -191,46 -274,95 -27,16 -56,10 -76,-12l-434 -498c-26,-30 -21,-75 11,-98 256,-185 557,-283 873,-283 316,0 617,98 873,283 32,23 37,68 11,98l-434 498c-20,22 -49,28 -76,12 -83,-49 -177,-82 -274,-95l0 -496 -200 0 0 496zm-1400 -1396l3000 0c496,0 900,404 900,900l0 3000c0,496 -404,900 -900,900l-3000 0c-496,0 -900,-404 -900,-900l0 -3000c0,-496 404,-900 900,-900z"/>
</svg>