<?xml version="1.0" encoding="UTF-8"?>
<!DOCTYPE svg PUBLIC "-//W3C//DTD SVG 1.1//EN" "http://www.w3.org/Graphics/SVG/1.1/DTD/svg11.dtd">
<svg xmlns="http://www.w3.org/2000/svg" xml:space="preserve" width="580px" height="580px" shape-rendering="geometricPrecision" text-rendering="geometricPrecision" image-rendering="optimizeQuality" fill-rule="nonzero" clip-rule="nonzero" viewBox="0 0 5800 5800" xmlns:xlink="http://www.w3.org/1999/xlink">
	<title>bolt icon</title>
	<desc>bolt icon from the IconExperience.com I-Collection. Copyright by INCORS GmbH (www.incors.com).</desc>
	<path id="curve0"  d="M4500 1500l0 -700c0,-165 -135,-300 -300,-300l-900 0 0 600 -800 0 0 -600 -900 0c-165,0 -300,135 -300,300l0 700 3200 0zm-800 200l0 3500c0,28 -12,54 -30,72l-199 199c-20,19 -45,29 -71,29l-1000 0c-28,0 -54,-12 -72,-30l-199 -199c-19,-20 -29,-45 -29,-71l0 -3500 -1000 0 0 -900c0,-276 225,-500 500,-500l1100 0 0 600 400 0 0 -600 1100 0c276,0 500,224 500,500l0 900 -1000 0zm-1400 2930l1200 428 0 -388 -1200 -428 0 388zm1118 611l-1118 -399 0 317 141 141 918 0 59 -59zm82 -3541l-1200 0 0 530 1200 428 0 -958zm-1200 742l0 388 1200 428 0 -388 -1200 -428zm0 600l0 388 1200 428 0 -388 -1200 -428zm0 600l0 388 1200 428 0 -388 -1200 -428z"/>
</svg>