<?xml version="1.0" encoding="UTF-8"?>
<!DOCTYPE svg PUBLIC "-//W3C//DTD SVG 1.1//EN" "http://www.w3.org/Graphics/SVG/1.1/DTD/svg11.dtd">
<svg xmlns="http://www.w3.org/2000/svg" xml:space="preserve" width="580px" height="580px" shape-rendering="geometricPrecision" text-rendering="geometricPrecision" image-rendering="optimizeQuality" fill-rule="nonzero" clip-rule="nonzero" viewBox="0 0 5800 5800" xmlns:xlink="http://www.w3.org/1999/xlink">
	<title>bolt icon</title>
	<desc>bolt icon from the IconExperience.com I-Collection. Copyright by INCORS GmbH (www.incors.com).</desc>
	<path id="curve0"  d="M3700 1900l0 830 -1600 -572 0 -258 1600 0zm1000 -200l-3600 0 0 -900c0,-276 225,-500 500,-500l1100 0 0 600 400 0 0 -600 1100 0c276,0 500,224 500,500l0 900m-1000 1242l0 388 -1600 -572 0 -388 1600 572zm0 600l0 388 -1600 -572 0 -388 1600 572zm0 600l0 388 -1600 -572 0 -388 1600 572zm0 600l0 388 -1600 -572 0 -388 1600 572zm-74 573l-155 156c-20,19 -45,29 -71,29l-1000 0c-28,0 -54,-12 -72,-30l-199 -199c-19,-20 -29,-45 -29,-71l0 -430 1526 545z"/>
</svg>