<?xml version="1.0" encoding="UTF-8"?>
<!DOCTYPE svg PUBLIC "-//W3C//DTD SVG 1.1//EN" "http://www.w3.org/Graphics/SVG/1.1/DTD/svg11.dtd">
<svg xmlns="http://www.w3.org/2000/svg" xml:space="preserve" width="580px" height="580px" shape-rendering="geometricPrecision" text-rendering="geometricPrecision" image-rendering="optimizeQuality" fill-rule="nonzero" clip-rule="nonzero" viewBox="0 0 5800 5800" xmlns:xlink="http://www.w3.org/1999/xlink">
	<title>bomb icon</title>
	<desc>bomb icon from the IconExperience.com I-Collection. Copyright by INCORS GmbH (www.incors.com).</desc>
		<path id="curve28"  d="M3747 1264c48,0 97,18 134,55l243 243c23,-23 199,-189 193,-203 -48,-116 7,-249 124,-298 116,-48 249,8 298,124 48,116 -8,249 -124,298 -46,19 -95,22 -140,11l-210 210 216 215c37,37 55,86 55,134 0,49 -18,97 -55,134l-231 231c161,308 246,636 246,984 0,1159 -940,2098 -2098,2098 -1159,0 -2098,-939 -2098,-2098 0,-1158 939,-2098 2098,-2098 348,0 676,85 984,246l231 -231c37,-37 85,-55 134,-55zm1236 -811l-174 422 -184 -76 174 -421 184 75zm439 548l-421 175 -76 -185 422 -174 75 184zm-75 698l-422 -175 76 -184 421 174 -75 185zm-548 439l-175 -421 185 -76 174 421 -184 76zm-1061 -1321l421 174 -76 184 -421 -174 76 -184zm548 -439l174 421 -184 76 -175 -422 185 -75zm-386 3022c0,828 -672,1500 -1500,1500l0 -200c718,0 1300,-582 1300,-1300l200 0zm-153 -1932l-327 327c-349,-183 -619,-291 -1022,-291 -1048,0 -1898,850 -1898,1898 0,1048 850,1898 1898,1898 1048,0 1898,-850 1898,-1898 0,-408 -111,-678 -291,-1022l327 -327 -585 -585z"/>
</svg>