<?xml version="1.0" encoding="UTF-8"?>
<!DOCTYPE svg PUBLIC "-//W3C//DTD SVG 1.1//EN" "http://www.w3.org/Graphics/SVG/1.1/DTD/svg11.dtd">
<svg xmlns="http://www.w3.org/2000/svg" xml:space="preserve" width="580px" height="580px" shape-rendering="geometricPrecision" text-rendering="geometricPrecision" image-rendering="optimizeQuality" fill-rule="nonzero" clip-rule="nonzero" viewBox="0 0 5800 5800" xmlns:xlink="http://www.w3.org/1999/xlink">
	<title>bomb2 icon</title>
	<desc>bomb2 icon from the IconExperience.com I-Collection. Copyright by INCORS GmbH (www.incors.com).</desc>
		<path id="curve28"  d="M5500 1300l0 3200 -950 0 -562 -749c-517,489 -1081,749 -1802,749 -874,0 -1886,-647 -1886,-1600 0,-953 1012,-1600 1886,-1600 721,0 1285,260 1802,749l562 -749 950 0zm-600 1800c-239,0 -478,0 -717,0l717 836 0 -836zm-717 -400c239,0 478,0 717,0 0,-279 0,-557 0,-836 -239,279 -478,557 -717,836zm-1997 1000l0 200c606,0 1039,-232 1460,-654l-141 -141c-384,384 -765,595 -1319,595z"/>
</svg>