<?xml version="1.0" encoding="UTF-8"?>
<!DOCTYPE svg PUBLIC "-//W3C//DTD SVG 1.1//EN" "http://www.w3.org/Graphics/SVG/1.1/DTD/svg11.dtd">
<svg xmlns="http://www.w3.org/2000/svg" xml:space="preserve" width="580px" height="580px" shape-rendering="geometricPrecision" text-rendering="geometricPrecision" image-rendering="optimizeQuality" fill-rule="nonzero" clip-rule="nonzero" viewBox="0 0 5800 5800" xmlns:xlink="http://www.w3.org/1999/xlink">
	<title>bomb2 icon</title>
	<desc>bomb2 icon from the IconExperience.com I-Collection. Copyright by INCORS GmbH (www.incors.com).</desc>
		<path id="curve28" d="M2186 3700c554,0 935,-211 1319,-595l141 141c-421,422 -854,654 -1460,654l0 -200zm1997 -1000l717 -836 0 836 -717 0zm434 -200l83 0 0 -97 -83 97zm83 800l-83 0 83 97 0 -97zm200 -200l0 836 -717 -836 717 0zm600 -1800l0 3200 -950 0 -562 -749c-517,489 -1081,749 -1802,749 -874,0 -1886,-647 -1886,-1600 0,-953 1012,-1600 1886,-1600 721,0 1285,260 1802,749l562 -749 950 0zm-200 200l-650 0 -639 852 -82 -81c-498,-498 -1028,-771 -1743,-771 -762,0 -1686,561 -1686,1400 0,839 924,1400 1686,1400 715,0 1245,-273 1743,-771l82 -81 639 852 650 0 0 -1400 0 -1400z"/>
</svg>