<?xml version="1.0" encoding="UTF-8"?>
<!DOCTYPE svg PUBLIC "-//W3C//DTD SVG 1.1//EN" "http://www.w3.org/Graphics/SVG/1.1/DTD/svg11.dtd">
<svg xmlns="http://www.w3.org/2000/svg" xml:space="preserve" width="580px" height="580px" shape-rendering="geometricPrecision" text-rendering="geometricPrecision" image-rendering="optimizeQuality" fill-rule="nonzero" clip-rule="nonzero" viewBox="0 0 5800 5800" xmlns:xlink="http://www.w3.org/1999/xlink">
	<title>bone icon</title>
	<desc>bone icon from the IconExperience.com I-Collection. Copyright by INCORS GmbH (www.incors.com).</desc>
		<path id="curve6"  d="M3865 2378c79,-79 174,-137 281,-171 147,-47 265,-42 377,-37 148,6 282,11 457,-164 81,-80 121,-154 121,-222 -1,-67 -40,-139 -117,-217 -22,-17 -69,-32 -125,-50 -115,-37 -255,-81 -375,-201 -120,-120 -165,-261 -201,-376 -17,-53 -32,-100 -49,-122 -79,-79 -151,-118 -218,-118 -68,-1 -142,39 -222,120 -175,175 -170,309 -164,457 8,192 -3,360 -105,528 -29,47 -63,90 -103,130l-1487 1487c-187,187 -405,219 -658,208 -148,-6 -282,-11 -457,164 -81,80 -121,154 -120,222 0,67 39,139 117,218 23,16 70,31 124,49 341,109 467,236 576,577 17,53 32,100 49,122 79,79 151,118 218,118 68,1 142,-39 222,-120 175,-175 170,-309 164,-457 -5,-112 -10,-230 37,-377 17,-54 40,-104 69,-151 26,-44 65,-95 102,-130l1487 -1487zm-3181 2005c-124,-124 -183,-243 -184,-367 0,-124 59,-244 179,-364 236,-236 411,-229 606,-221 195,8 363,-5 509,-151l1487 -1486c28,-29 53,-60 73,-93 80,-131 83,-267 77,-416 -8,-195 -15,-370 221,-606 120,-120 240,-179 364,-179 135,1 281,84 367,185 43,50 65,117 90,195 29,93 66,207 153,294 86,87 200,123 294,153 78,25 145,47 196,91 100,85 183,233 184,366 0,124 -59,244 -179,364 -236,236 -411,229 -606,221 -95,-4 -195,-8 -309,28 -77,24 -143,66 -200,123l-1486 1486c-5,-4 -69,85 -74,93 -21,34 -37,69 -49,107 -36,114 -32,214 -28,309 8,195 15,370 -221,606 -120,120 -240,179 -364,179 -124,-1 -244,-60 -364,-182 -46,-53 -68,-120 -93,-198 -88,-278 -169,-358 -447,-447 -75,-24 -139,-45 -196,-90z"/>
</svg>