<?xml version="1.0" encoding="UTF-8"?>
<!DOCTYPE svg PUBLIC "-//W3C//DTD SVG 1.1//EN" "http://www.w3.org/Graphics/SVG/1.1/DTD/svg11.dtd">
<svg xmlns="http://www.w3.org/2000/svg" xml:space="preserve" width="580px" height="580px" shape-rendering="geometricPrecision" text-rendering="geometricPrecision" image-rendering="optimizeQuality" fill-rule="nonzero" clip-rule="nonzero" viewBox="0 0 5800 5800" xmlns:xlink="http://www.w3.org/1999/xlink">
	<title>bookkeeper icon</title>
	<desc>bookkeeper icon from the IconExperience.com I-Collection. Copyright by INCORS GmbH (www.incors.com).</desc>
		<path id="curve28"  d="M3200 5293c50,-2 103,-4 157,-8 46,-330 185,-976 373,-1374l-441 441 -185 -248c-40,37 -80,72 -104,96 178,356 198,791 200,1093zm-1564 -3328c-36,-152 -61,-309 -68,-465l399 0c227,301 550,400 933,400 349,0 691,-80 933,-400l389 0c1,143 -19,297 -58,465 51,216 -21,467 -215,589 -55,207 -103,421 -249,586 -3,98 -18,196 -17,294 2,63 15,147 70,181 115,72 205,99 310,131 186,56 462,146 590,270 225,219 347,553 347,864 0,225 -254,370 -605,461 -465,121 -1113,159 -1495,159 -382,0 -1030,-38 -1495,-159 -351,-91 -605,-236 -605,-461 0,-311 122,-645 347,-864 128,-124 406,-215 590,-270 122,-37 208,-72 313,-133 57,-32 65,-126 66,-184 3,-96 -11,-193 -15,-289 -145,-163 -195,-381 -250,-586 -193,-122 -266,-374 -215,-589zm-32 -865c9,-36 20,-71 33,-105 106,-283 324,-438 617,-489 177,-155 482,-221 789,-200 521,34 955,282 1120,794l-2559 0zm1926 2563c-104,93 -236,151 -371,182l152 203 293 -293c-32,-27 -56,-58 -74,-92zm-888 182c-136,-31 -269,-90 -374,-183 -17,35 -41,66 -72,92l293 294 153 -203zm-1142 194c-82,32 -163,71 -214,120 -188,182 -286,463 -286,721 0,111 191,200 455,268 15,4 30,8 45,12l0 -1121zm943 1246c54,4 107,6 157,8 2,-302 22,-737 200,-1093l-100 -100 -189 252 -441 -441c188,398 327,1044 373,1374zm1857 -125c15,-4 30,-8 45,-12 264,-68 455,-157 455,-268 0,-258 -98,-538 -286,-721 -51,-49 -132,-88 -214,-120l0 1121z"/>
</svg>