<?xml version="1.0" encoding="UTF-8"?>
<!DOCTYPE svg PUBLIC "-//W3C//DTD SVG 1.1//EN" "http://www.w3.org/Graphics/SVG/1.1/DTD/svg11.dtd">
<svg xmlns="http://www.w3.org/2000/svg" xml:space="preserve" width="580px" height="580px" shape-rendering="geometricPrecision" text-rendering="geometricPrecision" image-rendering="optimizeQuality" fill-rule="nonzero" clip-rule="nonzero" viewBox="0 0 5800 5800" xmlns:xlink="http://www.w3.org/1999/xlink">
	<title>books icon</title>
	<desc>books icon from the IconExperience.com I-Collection. Copyright by INCORS GmbH (www.incors.com).</desc>
		<path id="curve28"  d="M900 800c0,165 135,300 300,300 1516,0 4469,0 1000,0 -386,0 -700,314 -700,700l0 2900 -100 0c-386,0 -700,-314 -700,-700l0 -3200c0,-276 224,-500 500,-500l2700 0c110,0 200,90 200,200 -967,0 -1933,0 -2900,0 -165,0 -300,135 -300,300zm300 -100l2900 0 0 200 -2900 0c-56,0 -100,-44 -100,-100 0,-56 44,-100 100,-100zm700 1100c0,165 135,300 300,300l2700 0c110,0 200,90 200,200l0 3000c0,110 -90,200 -200,200l-2500 0c-386,0 -700,-314 -700,-700l0 -3000c0,-276 224,-500 500,-500l2700 0c110,0 200,90 200,200 -967,0 -1933,0 -2900,0 -165,0 -300,135 -300,300zm300 -100l2900 0 0 200 -2900 0c-56,0 -100,-44 -100,-100 0,-56 44,-100 100,-100z"/>
</svg>