<?xml version="1.0" encoding="UTF-8"?>
<!DOCTYPE svg PUBLIC "-//W3C//DTD SVG 1.1//EN" "http://www.w3.org/Graphics/SVG/1.1/DTD/svg11.dtd">
<svg xmlns="http://www.w3.org/2000/svg" xml:space="preserve" width="580px" height="580px" shape-rendering="geometricPrecision" text-rendering="geometricPrecision" image-rendering="optimizeQuality" fill-rule="nonzero" clip-rule="nonzero" viewBox="0 0 5800 5800" xmlns:xlink="http://www.w3.org/1999/xlink">
	<title>book_bookmark icon</title>
	<desc>book_bookmark icon from the IconExperience.com I-Collection. Copyright by INCORS GmbH (www.incors.com).</desc>
		<path id="curve29"  d="M1100 1000c0,138 56,263 147,353 90,91 215,147 353,147l100 0 0 200 -100 0c-190,0 -366,-76 -500,-211l0 3311c0,275 225,500 500,500l3100 0 0 -3600 -1000 0 0 -200 1000 0c110,0 200,90 200,200l0 3800 -3300 0c-386,0 -700,-314 -700,-700l0 -3800c0,-386 314,-700 700,-700l3100 0c110,0 200,90 200,200 -1100,0 -2200,0 -3300,0 -275,0 -500,225 -500,500zm500 -300l3100 0 0 200c-1128,0 -2255,0 -3383,0 42,-120 156,-200 283,-200zm-283 400l383 0 0 200 -115 0c-77,-4 -146,-37 -197,-88 -31,-31 -56,-69 -71,-112zm2383 0l1000 0 0 200 -1000 0 0 -200z"/>
	<path id="curve28"  d="M3500 3694l-800 -571 -800 571 0 -2594 1600 0 0 2594zm-200 -388l0 -2006 -1200 0 0 2006 600 -429 600 429z"/>
</svg>