<?xml version="1.0" encoding="UTF-8"?>
<!DOCTYPE svg PUBLIC "-//W3C//DTD SVG 1.1//EN" "http://www.w3.org/Graphics/SVG/1.1/DTD/svg11.dtd">
<svg xmlns="http://www.w3.org/2000/svg" xml:space="preserve" width="580px" height="580px" shape-rendering="geometricPrecision" text-rendering="geometricPrecision" image-rendering="optimizeQuality" fill-rule="nonzero" clip-rule="nonzero" viewBox="0 0 5800 5800" xmlns:xlink="http://www.w3.org/1999/xlink">
	<title>bookmarks icon</title>
	<desc>bookmarks icon from the IconExperience.com I-Collection. Copyright by INCORS GmbH (www.incors.com).</desc>
		<path id="curve29"  d="M4540 2117c38,57 45,133 11,200 -49,98 -170,138 -268,88 -99,-49 -139,-169 -89,-268 33,-66 98,-106 167,-110l167 -330 205 -409c78,-155 93,-291 67,-397 -23,-98 -83,-170 -159,-209 -293,-147 -557,222 -919,725l-49 68c-29,-63 -79,-114 -141,-144l28 -41c263,-365 482,-670 718,-790 -225,48 -447,262 -725,529 -90,86 -185,178 -288,271l-302 0c168,-142 316,-285 452,-415 461,-443 789,-758 1259,-521 181,91 304,224 355,390 46,156 27,337 -73,535l-285 567 -131 261zm-120 -650l-90 178 -269 -135 -361 718 0 -444 12 -23c59,-81 117,-161 172,-238 61,-85 118,-165 173,-238l363 182zm-720 3433l1434 -2850 -269 -136 89 -178 358 180c50,25 69,85 45,134l-1657 3294 0 -444z"/>
	<path id="curve28"  d="M2800 2027c60,34 100,99 100,173 0,110 -90,200 -200,200 -110,0 -200,-90 -200,-200 0,-74 40,-139 100,-173l0 -827c0,-162 -41,-285 -104,-368 -67,-88 -159,-132 -251,-132 -327,0 -398,448 -494,1060 -99,623 -222,1402 -672,2094 -30,46 -92,60 -138,30 -46,-30 -59,-92 -29,-138 426,-657 546,-1413 642,-2018 70,-444 129,-813 284,-1027 -178,144 -280,435 -408,797 -203,572 -463,1309 -1161,1974 -40,38 -103,37 -141,-3 -38,-40 -37,-103 3,-141 664,-633 915,-1344 1110,-1896 213,-603 365,-1032 891,-1032 202,0 372,63 492,189 112,119 176,289 176,511l0 927zm-400 -527l0 200 -300 0 0 3600 1200 0 0 -3600 -300 0 0 -200 400 0c55,0 100,45 100,100l0 3800c0,55 -45,100 -100,100l-1400 0c-55,0 -100,-45 -100,-100l0 -3317c17,-100 33,-198 47,-292 17,-103 32,-201 48,-291l405 0z"/>
</svg>