<?xml version="1.0" encoding="UTF-8"?>
<!DOCTYPE svg PUBLIC "-//W3C//DTD SVG 1.1//EN" "http://www.w3.org/Graphics/SVG/1.1/DTD/svg11.dtd">
<svg xmlns="http://www.w3.org/2000/svg" xml:space="preserve" width="580px" height="580px" shape-rendering="geometricPrecision" text-rendering="geometricPrecision" image-rendering="optimizeQuality" fill-rule="nonzero" clip-rule="nonzero" viewBox="0 0 5800 5800" xmlns:xlink="http://www.w3.org/1999/xlink">
	<title>book_telephone icon</title>
	<desc>book_telephone icon from the IconExperience.com I-Collection. Copyright by INCORS GmbH (www.incors.com).</desc>
		<path id="curve28" d="M1100 1000c0,275 225,500 500,500l3100 0c110,0 200,90 200,200l0 3800 -3300 0c-386,0 -700,-314 -700,-700l0 -3800c0,-386 314,-700 700,-700l3100 0c110,0 200,90 200,200 -1100,0 -2200,0 -3300,0 -275,0 -500,225 -500,500zm1360 2851l-326 270c-45,38 -43,98 -8,142l54 68c49,60 113,109 185,139 66,27 139,37 211,25 38,-6 75,-20 108,-40 237,-143 486,-370 701,-627 215,-257 396,-542 495,-800 14,-34 21,-76 20,-113 0,-72 -23,-142 -62,-202 -42,-65 -101,-120 -170,-157 -47,-26 -104,-67 -158,-53 -23,6 -43,21 -57,44l-210 370c-10,20 -8,44 2,67 14,30 39,56 67,72l74 40c55,30 96,93 82,158 -29,125 -128,288 -248,431 -121,144 -267,273 -386,326 -37,16 -73,11 -105,-3 -26,-11 -52,-33 -66,-50l-52 -65c-20,-25 -51,-45 -83,-53 -24,-6 -49,-4 -68,11zm337 -46c83,-50 182,-144 270,-248 87,-103 159,-214 192,-302l-45 -25c-64,-36 -120,-96 -151,-164 -34,-76 -39,-163 5,-244l212 -373c42,-73 107,-120 180,-139 73,-19 154,-10 226,29l77 41c98,53 183,132 243,226 58,91 93,196 94,308 0,65 -10,125 -34,186 -108,279 -300,584 -528,856 -229,273 -495,516 -751,671 -55,33 -115,54 -178,65 -110,19 -220,3 -320,-38 -103,-42 -196,-112 -265,-199l-54 -68c-103,-130 -93,-312 37,-420l330 -273c72,-58 159,-68 239,-48 74,19 143,63 189,120l32 39zm-1480 -2705l3383 0 0 200 -3115 0c-122,-6 -227,-85 -268,-200zm283 -400l3100 0 0 200 -3383 0c42,-120 156,-200 283,-200zm-495 795l-5 -6 0 3311c0,275 225,500 500,500l3100 0 0 -3600 -3100 0c-193,0 -368,-79 -495,-205z"/>
</svg>