<?xml version="1.0" encoding="UTF-8"?>
<!DOCTYPE svg PUBLIC "-//W3C//DTD SVG 1.1//EN" "http://www.w3.org/Graphics/SVG/1.1/DTD/svg11.dtd">
<svg xmlns="http://www.w3.org/2000/svg" xml:space="preserve" width="580px" height="580px" shape-rendering="geometricPrecision" text-rendering="geometricPrecision" image-rendering="optimizeQuality" fill-rule="nonzero" clip-rule="nonzero" viewBox="0 0 5800 5800" xmlns:xlink="http://www.w3.org/1999/xlink">
	<title>book_headphones icon</title>
	<desc>book_headphones icon from the IconExperience.com I-Collection. Copyright by INCORS GmbH (www.incors.com).</desc>
		<path id="curve28"  d="M1400 1500l2900 0c110,0 200,90 200,200l0 1434c-247,-219 -571,-334 -900,-334 -564,0 -1104,345 -1259,900l-141 0c-386,0 -700,314 -700,700l0 700 -100 0c-386,0 -700,-314 -700,-700l0 -3400c0,-386 314,-700 700,-700l2900 0c110,0 200,90 200,200l-3100 0c-664,0 -652,1000 0,1000zm2900 3600l-1400 0c0,-362 14,-753 0,-1112 6,-360 366,-588 700,-588 341,0 700,233 700,600l0 1100zm-2900 -4400l2900 0 0 200 -3183 0c42,-120 156,-200 283,-200zm-283 400l3183 1 0 199 -2915 0c-122,-6 -227,-85 -268,-200zm1583 4300c0,55 -45,100 -100,100l-400 0c-276,0 -500,-224 -500,-500l0 -600c0,-276 224,-500 500,-500l306 0c59,-544 568,-900 1094,-900 526,0 1035,356 1095,900l305 0c276,0 500,224 500,500l0 600c0,276 -224,500 -500,500l-400 0c-55,0 -100,-45 -100,-100l0 -1400c0,-480 -448,-800 -900,-800 -448,0 -893,315 -900,789 2,470 0,941 0,1411z"/>
</svg>