<?xml version="1.0" encoding="UTF-8"?>
<!DOCTYPE svg PUBLIC "-//W3C//DTD SVG 1.1//EN" "http://www.w3.org/Graphics/SVG/1.1/DTD/svg11.dtd">
<svg xmlns="http://www.w3.org/2000/svg" xml:space="preserve" width="580px" height="580px" shape-rendering="geometricPrecision" text-rendering="geometricPrecision" image-rendering="optimizeQuality" fill-rule="nonzero" clip-rule="nonzero" viewBox="0 0 5800 5800" xmlns:xlink="http://www.w3.org/1999/xlink">
	<title>book_open icon</title>
	<desc>book_open icon from the IconExperience.com I-Collection. Copyright by INCORS GmbH (www.incors.com).</desc>
		<path id="curve29"  d="M2200 4771c-163,-35 -447,45 -764,133 -333,93 -699,196 -1036,196l-100 0 0 -3841 354 -355c99,-9 196,-17 295,-23 212,-14 358,-23 632,-114 229,-76 457,-167 702,-167 229,0 433,83 615,218 183,-136 386,-218 616,-218 245,0 473,91 702,167 267,88 413,98 616,111 105,7 209,16 314,26 118,118 236,237 354,355l0 3841 -100 0c-345,0 -730,-103 -1074,-195 -308,-83 -580,-156 -726,-132l0 27c0,165 -135,300 -300,300l-800 0c-165,0 -300,-135 -300,-300l0 -29zm-1300 -3687l0 3211c226,-13 421,-27 681,-113 229,-76 457,-167 702,-167 187,0 359,55 517,152l0 -3173c-154,-120 -320,-194 -517,-194 -217,0 -436,89 -640,157 -296,98 -454,108 -682,123l-61 4zm2100 3081c158,-96 329,-150 514,-150 245,0 473,92 702,167 241,80 444,96 684,112l0 -3211c-28,-2 -55,-4 -81,-6 -218,-14 -376,-24 -665,-120 -205,-68 -423,-157 -640,-157 -196,0 -361,73 -514,191l0 3174zm2100 -3024l0 3365 -177 -11c-271,-17 -494,-32 -769,-123 -205,-67 -423,-157 -640,-157 -214,0 -390,88 -552,222l-64 53 -63 -53c-162,-134 -338,-222 -552,-222 -217,0 -436,90 -640,157 -290,96 -502,109 -751,124 -64,3 -128,7 -192,11l0 -3366 -200 200 0 3556c285,-18 597,-105 882,-185 396,-111 746,-209 962,-101l56 27 0 162c0,55 45,100 100,100l800 0c55,0 100,-45 100,-100l0 -162 56 -27c191,-95 530,-4 922,101 297,79 626,168 922,185l0 -3556 -200 -200z"/>
</svg>