<?xml version="1.0" encoding="UTF-8"?>
<!DOCTYPE svg PUBLIC "-//W3C//DTD SVG 1.1//EN" "http://www.w3.org/Graphics/SVG/1.1/DTD/svg11.dtd">
<svg xmlns="http://www.w3.org/2000/svg" xml:space="preserve" width="580px" height="580px" shape-rendering="geometricPrecision" text-rendering="geometricPrecision" image-rendering="optimizeQuality" fill-rule="nonzero" clip-rule="nonzero" viewBox="0 0 5800 5800" xmlns:xlink="http://www.w3.org/1999/xlink">
	<title>book_bookmark icon</title>
	<desc>book_bookmark icon from the IconExperience.com I-Collection. Copyright by INCORS GmbH (www.incors.com).</desc>
		<path id="curve28"  d="M1100 1000c0,275 225,500 500,500l300 0 0 2194 800 -571 800 571 0 -2194 1200 0c110,0 200,90 200,200l0 3800 -3300 0c-386,0 -700,-314 -700,-700l0 -3800c0,-386 314,-700 700,-700l3100 0c110,0 200,90 200,200 -1100,0 -2200,0 -3300,0 -275,0 -500,225 -500,500zm1000 100l1200 0 0 2206 -600 -429 -600 429 0 -2206zm-500 -400l3100 0 0 200 -3383 0c42,-120 156,-200 283,-200zm-283 400l583 0 0 200 -315 0c-122,-6 -227,-85 -268,-200zm2183 0l1200 0 0 200 -1200 0 0 -200z"/>
</svg>