<?xml version="1.0" encoding="UTF-8"?>
<!DOCTYPE svg PUBLIC "-//W3C//DTD SVG 1.1//EN" "http://www.w3.org/Graphics/SVG/1.1/DTD/svg11.dtd">
<svg xmlns="http://www.w3.org/2000/svg" xml:space="preserve" width="580px" height="580px" shape-rendering="geometricPrecision" text-rendering="geometricPrecision" image-rendering="optimizeQuality" fill-rule="nonzero" clip-rule="nonzero" viewBox="0 0 5800 5800" xmlns:xlink="http://www.w3.org/1999/xlink">
	<title>book2 icon</title>
	<desc>book2 icon from the IconExperience.com I-Collection. Copyright by INCORS GmbH (www.incors.com).</desc>
		<path id="curve28"  d="M1600 700l3100 0 0 200 -3383 0c42,-120 156,-200 283,-200zm300 1600l99 0 1 0 2000 0 1 0 99 0 0 99 0 1 0 1200 0 1 0 99 -99 0 -1 0 -2000 0 -1 0 -99 0 0 -99 0 -1 0 -1200 0 -1 0 -99zm-300 -800l3100 0c110,0 200,90 200,200l0 3800 -3300 0c-386,0 -700,-314 -700,-700l0 -3800c0,-386 314,-700 700,-700l3100 0c110,0 200,90 200,200 -1100,0 -2200,0 -3300,0 -275,0 -500,225 -500,500 0,275 225,500 500,500zm-495 -5l-5 -6 0 3311c0,275 225,500 500,500l3100 0 0 -3600 -3100 0c-193,0 -368,-79 -495,-205zm2795 1005l-1800 0 0 1000 1800 0 0 -1000zm-2583 -1400l3383 0 0 200 -3115 0c-122,-6 -227,-85 -268,-200z"/>
</svg>