<?xml version="1.0" encoding="UTF-8"?>
<!DOCTYPE svg PUBLIC "-//W3C//DTD SVG 1.1//EN" "http://www.w3.org/Graphics/SVG/1.1/DTD/svg11.dtd">
<svg xmlns="http://www.w3.org/2000/svg" xml:space="preserve" width="580px" height="580px" shape-rendering="geometricPrecision" text-rendering="geometricPrecision" image-rendering="optimizeQuality" fill-rule="nonzero" clip-rule="nonzero" viewBox="0 0 5800 5800" xmlns:xlink="http://www.w3.org/1999/xlink">
	<title>bookkeeper icon</title>
	<desc>bookkeeper icon from the IconExperience.com I-Collection. Copyright by INCORS GmbH (www.incors.com).</desc>
		<path id="curve28"  d="M3200 5293c-2,-302 -22,-737 -200,-1093 24,-24 64,-59 104,-96l185 248 441 -441c-188,398 -327,1044 -373,1374 -54,4 -107,6 -157,8zm330 -2264c-19,19 -30,45 -30,73 1,39 -3,91 -7,146 -5,54 -9,110 -10,164 -112,192 -377,264 -584,263 -209,0 -471,-72 -583,-264l0 0c0,-62 -4,-124 -9,-183 -4,-46 -7,-90 -7,-128 0,0 -25,-66 -30,-71 -119,-118 -170,-312 -218,-495l-19 -72c-7,-27 -25,-50 -52,-64 -141,-69 -187,-257 -147,-400 6,-17 7,-37 2,-56 -35,-144 -61,-294 -68,-442l199 0c227,301 550,400 933,400 349,0 691,-80 933,-400l190 0c0,134 -19,280 -59,442 -4,17 -4,34 1,52 42,143 -1,330 -142,403 -27,12 -48,35 -56,65 -3,8 -12,43 -21,79 -46,179 -95,369 -216,488zm-1719 -1929c4,-12 8,-23 12,-35 63,-166 188,-296 405,-350 25,-6 52,-11 81,-15 22,-2 44,-12 62,-29 130,-130 390,-184 659,-166 269,18 542,108 699,266 98,97 172,206 221,329l-2139 0zm2911 3378c52,129 78,268 78,402 0,155 -380,250 -500,280l0 -1121c82,32 163,71 214,120 91,88 161,199 208,319zm-3222 -439l0 1121c-15,-4 -30,-8 -45,-12 -264,-68 -455,-157 -455,-268 0,-133 26,-273 78,-402 48,-120 117,-231 208,-319 51,-49 132,-88 214,-120zm943 1246c-46,-330 -185,-976 -373,-1374l441 441 189 -252 100 100c-178,356 -198,791 -200,1093 -50,-2 -103,-4 -157,-8zm716 -1440c135,-31 267,-89 371,-182 18,34 42,65 74,92l-293 293 -152 -203zm-891 -183c0,51 316,170 374,183l-153 203 -293 -294c31,-26 55,-57 72,-92zm2639 743c-58,-146 -143,-281 -254,-389 -103,-99 -260,-157 -386,-203 -68,-25 -135,-46 -204,-67 -105,-32 -195,-59 -313,-132 -82,-51 -70,-209 -58,-350 3,-43 7,-84 8,-124 137,-155 190,-358 239,-549 3,-10 5,-20 10,-37 194,-122 266,-373 215,-589 68,-288 76,-536 29,-753 -50,-228 -159,-419 -322,-583 -193,-193 -515,-302 -828,-323 -307,-21 -612,45 -789,200 -25,5 -50,10 -74,16 -291,71 -458,247 -543,473 -81,214 -84,471 -48,721 12,84 28,168 47,249 -51,215 22,467 215,589 5,16 7,24 8,30 51,196 105,402 242,556 1,32 4,67 7,103 11,147 25,323 -61,372 -117,73 -206,99 -310,131 -69,21 -136,42 -204,67 -126,46 -283,104 -386,203 -111,108 -196,243 -254,388 -62,154 -93,319 -93,476 0,225 254,370 605,461 465,121 1113,159 1495,159 382,0 1030,-38 1495,-159 351,-91 605,-236 605,-461 0,-157 -31,-322 -93,-475z"/>
</svg>