<?xml version="1.0" encoding="UTF-8"?>
<!DOCTYPE svg PUBLIC "-//W3C//DTD SVG 1.1//EN" "http://www.w3.org/Graphics/SVG/1.1/DTD/svg11.dtd">
<svg xmlns="http://www.w3.org/2000/svg" xml:space="preserve" width="580px" height="580px" shape-rendering="geometricPrecision" text-rendering="geometricPrecision" image-rendering="optimizeQuality" fill-rule="nonzero" clip-rule="nonzero" viewBox="0 0 5800 5800" xmlns:xlink="http://www.w3.org/1999/xlink">
	<title>bookmarks icon</title>
	<desc>bookmarks icon from the IconExperience.com I-Collection. Copyright by INCORS GmbH (www.incors.com).</desc>
		<path id="curve29"  d="M4062 1287l536 270 178 89 536 270c50,25 69,85 45,134l-1657 3294 0 -3560 362 -497zm536 270l-237 470c-69,4 -134,44 -167,110 -50,99 -10,219 89,268 98,50 219,10 268,-88 34,-67 27,-143 -11,-200l236 -471 135 -268 45 -89c100,-198 119,-379 73,-535 -51,-166 -174,-299 -355,-390 -470,-237 -798,78 -1259,521 -136,130 -284,273 -452,415l302 0c103,-93 198,-185 288,-271 278,-267 500,-481 725,-529 -236,120 -455,425 -718,790l-28 41c62,30 112,81 141,144l49 -68c362,-503 626,-872 919,-725 231,116 189,414 92,606l-135 269z"/>
	<path id="curve28"  d="M2600 1500l0 -300c0,-215 -96,-500 -355,-500 -327,0 -398,448 -494,1060 -99,623 -222,1402 -672,2094 -30,46 -92,60 -138,30 -46,-30 -59,-92 -29,-138 426,-657 546,-1413 642,-2018 70,-444 129,-813 284,-1027 -178,144 -280,435 -408,797 -203,572 -463,1309 -1161,1974 -40,38 -103,37 -141,-3 -38,-40 -37,-103 3,-141 664,-633 915,-1344 1110,-1896 213,-603 365,-1032 891,-1032 202,0 372,63 492,189 112,119 176,289 176,511l0 100 0 300 -200 0 0 527c-60,34 -100,99 -100,173 0,110 90,200 200,200 110,0 200,-90 200,-200 0,-74 -40,-139 -100,-173l0 -527 600 0c55,0 100,45 100,100l0 3800c0,55 -45,100 -100,100l-1400 0c-55,0 -100,-45 -100,-100l0 -3317c17,-100 33,-198 47,-292 5,-29 42,-291 53,-291l600 0z"/>
</svg>