<?xml version="1.0" encoding="UTF-8"?>
<!DOCTYPE svg PUBLIC "-//W3C//DTD SVG 1.1//EN" "http://www.w3.org/Graphics/SVG/1.1/DTD/svg11.dtd">
<svg xmlns="http://www.w3.org/2000/svg" xml:space="preserve" width="580px" height="580px" shape-rendering="geometricPrecision" text-rendering="geometricPrecision" image-rendering="optimizeQuality" fill-rule="nonzero" clip-rule="nonzero" viewBox="0 0 5800 5800" xmlns:xlink="http://www.w3.org/1999/xlink">
	<title>book_headphones icon</title>
	<desc>book_headphones icon from the IconExperience.com I-Collection. Copyright by INCORS GmbH (www.incors.com).</desc>
		<path id="curve29"  d="M4300 5100l-1400 0 0 -200 1400 0 0 200zm-3183 -4000l3183 1 0 199 -2915 0c-122,-6 -227,-85 -268,-200zm283 -400l2900 0 0 200 -3183 0c42,-120 156,-200 283,-200zm-500 300c0,275 225,500 500,500l2900 0c110,0 200,90 200,200l0 1434c-61,-54 -128,-103 -200,-145l0 -1289c0,0 0,0 0,0l0 0 0 0c0,0 0,0 0,0l-2900 0c-190,0 -366,-76 -500,-211l0 2911c0,275 225,500 500,500l100 0 0 200 -100 0c-386,0 -700,-314 -700,-700l0 -3400c0,-386 314,-700 700,-700l2900 0c110,0 200,90 200,200 -1033,0 -2067,0 -3100,0 -275,0 -500,225 -500,500zm3400 700l0 0 0 0 0 0 0 0z"/>
	<path id="curve28"  d="M4700 4100l0 1200 300 0c165,0 300,-135 300,-300l0 -600c0,-165 -135,-300 -300,-300l-300 0zm-2000 -100l0 1500 -500 0c-276,0 -500,-224 -500,-500l0 -600c0,-276 224,-500 500,-500l305 0c60,-544 569,-900 1095,-900 526,0 1035,356 1095,900l305 0c276,0 500,224 500,500l0 600c0,276 -224,500 -500,500l-500 0 0 -1500c0,-480 -448,-800 -900,-800 -452,0 -900,320 -900,800zm-200 1300l0 -1200 -300 0c-165,0 -300,135 -300,300l0 600c0,165 135,300 300,300l300 0z"/>
</svg>