<?xml version="1.0" encoding="UTF-8"?>
<!DOCTYPE svg PUBLIC "-//W3C//DTD SVG 1.1//EN" "http://www.w3.org/Graphics/SVG/1.1/DTD/svg11.dtd">
<svg xmlns="http://www.w3.org/2000/svg" xml:space="preserve" width="580px" height="580px" shape-rendering="geometricPrecision" text-rendering="geometricPrecision" image-rendering="optimizeQuality" fill-rule="nonzero" clip-rule="nonzero" viewBox="0 0 5800 5800" xmlns:xlink="http://www.w3.org/1999/xlink">
	<title>book_telephone icon</title>
	<desc>book_telephone icon from the IconExperience.com I-Collection. Copyright by INCORS GmbH (www.incors.com).</desc>
		<path id="curve28"  d="M1100 1000c0,275 225,500 500,500l3100 0c110,0 200,90 200,200l0 3800 -3300 0c-386,0 -700,-314 -700,-700l0 -3800c0,-386 314,-700 700,-700l3100 0c110,0 200,90 200,200 -1100,0 -2200,0 -3300,0 -275,0 -500,225 -500,500zm217 100l3383 0 0 200 -3115 0c-122,-6 -227,-85 -268,-200zm283 -400l3100 0 0 200 -3383 0c42,-120 156,-200 283,-200zm1141 3196l-50 -63c-67,-84 -203,-135 -295,-59l-326 270c-87,73 -91,194 -22,281l54 68c115,144 305,232 490,201 51,-9 99,-26 143,-53 494,-299 1031,-939 1238,-1477 19,-48 27,-99 27,-150 -2,-188 -122,-358 -285,-446l-76 -41c-97,-53 -216,-28 -272,71l-209 368c-59,104 15,229 110,280l70 38c15,7 36,29 32,48 -50,221 -369,596 -576,687 -17,7 -43,-11 -53,-23z"/>
</svg>