<?xml version="1.0" encoding="UTF-8"?>
<!DOCTYPE svg PUBLIC "-//W3C//DTD SVG 1.1//EN" "http://www.w3.org/Graphics/SVG/1.1/DTD/svg11.dtd">
<svg xmlns="http://www.w3.org/2000/svg" xml:space="preserve" width="580px" height="580px" shape-rendering="geometricPrecision" text-rendering="geometricPrecision" image-rendering="optimizeQuality" fill-rule="nonzero" clip-rule="nonzero" viewBox="0 0 5800 5800" xmlns:xlink="http://www.w3.org/1999/xlink">
	<title>bookmark icon</title>
	<desc>bookmark icon from the IconExperience.com I-Collection. Copyright by INCORS GmbH (www.incors.com).</desc>
		<path id="curve28" d="M2900 1100l0 200 -400 0 0 4000 1400 0 0 -4000 -400 0 0 -200 500 0c55,0 100,45 100,100l0 4200c0,55 -45,100 -100,100l-1600 0c-55,0 -100,-45 -100,-100l0 -3918c26,-141 52,-270 81,-380l519 -2zm400 727c60,34 100,99 100,173 0,110 -90,200 -200,200 -110,0 -200,-90 -200,-200 0,-74 40,-139 100,-173l0 -827c0,-160 -47,-280 -119,-363 -81,-91 -194,-137 -308,-137 -395,0 -478,449 -591,1062 -114,625 -258,1405 -780,2098 -33,44 -95,53 -139,20 -44,-34 -53,-96 -20,-140 494,-656 633,-1410 743,-2014 63,-339 117,-635 219,-851 -107,158 -189,374 -285,625 -219,572 -500,1309 -1254,1975 -41,36 -104,32 -141,-9 -36,-41 -32,-104 9,-141 717,-632 988,-1343 1199,-1896 230,-601 393,-1029 953,-1029 215,0 396,62 523,187 122,118 191,290 191,513l0 927z"/>
</svg>