<?xml version="1.0" encoding="utf-8"?>
<!-- Generator: Adobe Illustrator 19.2.1, SVG Export Plug-In . SVG Version: 6.00 Build 0)  -->
<svg version="1.1" id="Ebene_1" xmlns="http://www.w3.org/2000/svg" xmlns:xlink="http://www.w3.org/1999/xlink" x="0px" y="0px"
	 width="580px" height="580px" viewBox="0 0 580 580" style="enable-background:new 0 0 580 580;" xml:space="preserve">
<g>
	<path d="M46.7,483h228V97h-228V483z M101.4,192c7-2,14.5-4.6,22.4-7.9c7.9-3.3,15.6-7,23.2-11.1c7.6-4.1,14.8-8.4,21.6-12.9
		c6.8-4.5,12.6-8.9,17.6-13.2h12.1v286.3h-0.1h-32v-242c-2.5,2.5-6.1,5.3-10.8,8.5c-4.8,3.2-10.1,6.3-16,9.5
		c-5.9,3.1-12.2,6.1-18.8,8.8c-6.6,2.7-13,4.9-19.2,6.4V192z"/>
	<path d="M439.3,145c-15.2,0-28.7,3.3-40.5,9.7c-11.8,6.4-21.7,16-29.6,28.7c-8,12.7-14,28.5-18.1,47.2c-4.1,18.7-6.2,40.3-6.2,64.8
		c0,22.3,2,42,5.9,59.3c3.9,17.3,9.6,31.9,17.2,43.7c7.5,11.9,16.8,20.9,27.8,27.1c11,6.2,23.5,9.3,37.6,9.3c14.8,0,28-3.3,39.7-9.7
		c11.7-6.4,21.5-15.9,29.5-28.3c8-12.4,14.2-27.7,18.4-45.8s6.3-38.9,6.3-62.3C527.3,193,497.9,145.2,439.3,145z M436.5,407.6
		c-39.2,0-58.8-37.8-58.8-113.5c0-81.1,20-121.7,60-121.7c37.9,0,56.8,39.8,56.8,119.5C494.5,368.9,475.1,407.5,436.5,407.6z"/>
</g>
</svg>
