<?xml version="1.0" encoding="UTF-8"?>
<!DOCTYPE svg PUBLIC "-//W3C//DTD SVG 1.1//EN" "http://www.w3.org/Graphics/SVG/1.1/DTD/svg11.dtd">
<svg xmlns="http://www.w3.org/2000/svg" xml:space="preserve" width="580px" height="580px" shape-rendering="geometricPrecision" text-rendering="geometricPrecision" image-rendering="optimizeQuality" fill-rule="nonzero" clip-rule="nonzero" viewBox="0 0 5800 5800" xmlns:xlink="http://www.w3.org/1999/xlink">
	<title>boombox icon</title>
	<desc>boombox icon from the IconExperience.com I-Collection. Copyright by INCORS GmbH (www.incors.com).</desc>
		<path id="curve28"  d="M2600 3100l600 0c55,0 100,45 100,100l0 1200c0,55 -45,100 -100,100l-600 0c-55,0 -100,-45 -100,-100l0 -1200c0,-55 45,-100 100,-100zm500 200l-400 0 0 1000 400 0 0 -1000zm1300 -400c497,0 900,403 900,900 0,497 -403,900 -900,900 -497,0 -900,-403 -900,-900 0,-497 403,-900 900,-900zm0 200c-387,0 -700,313 -700,700 0,387 313,700 700,700 387,0 700,-313 700,-700 0,-387 -313,-700 -700,-700zm-3000 -200c497,0 900,403 900,900 0,497 -403,900 -900,900 -497,0 -900,-403 -900,-900 0,-497 403,-900 900,-900zm0 200c-387,0 -700,313 -700,700 0,387 313,700 700,700 387,0 700,-313 700,-700 0,-387 -313,-700 -700,-700zm100 -1600l0 -500c0,-55 45,-100 100,-100l2600 0c55,0 100,45 100,100l0 500 -200 0 0 -400 -2400 0 0 400 -200 0zm-1300 200l5400 0c55,0 100,45 100,100l0 3200c0,55 -45,100 -100,100l-5400 0c-55,0 -100,-45 -100,-100l0 -3200c0,-55 45,-100 100,-100zm5300 200l-5200 0 0 3000 5200 0 0 -3000z"/>
</svg>