<?xml version="1.0" encoding="UTF-8"?>
<!DOCTYPE svg PUBLIC "-//W3C//DTD SVG 1.1//EN" "http://www.w3.org/Graphics/SVG/1.1/DTD/svg11.dtd">
<svg xmlns="http://www.w3.org/2000/svg" xml:space="preserve" width="580px" height="580px" shape-rendering="geometricPrecision" text-rendering="geometricPrecision" image-rendering="optimizeQuality" fill-rule="nonzero" clip-rule="nonzero" viewBox="0 0 5800 5800" xmlns:xlink="http://www.w3.org/1999/xlink">
	<title>bottle icon</title>
	<desc>bottle icon from the IconExperience.com I-Collection. Copyright by INCORS GmbH (www.incors.com).</desc>
	<path id="curve0"  d="M3700 2400c0,-55 45,-100 100,-100 55,0 100,45 100,100l0 2400c0,55 -45,100 -100,100 -55,0 -100,-45 -100,-100l0 -2400zm800 2700c0,137 -199,246 -520,310 -277,56 -659,90 -1080,90 -421,0 -803,-34 -1080,-90 -321,-64 -520,-173 -520,-310l0 -3203c0,-137 199,-246 520,-310 26,-5 53,-10 81,-15 5,70 27,134 65,192 -38,6 -73,12 -107,19 -219,44 -355,85 -359,113l0 3204c0,28 137,70 359,114 265,53 633,86 1041,86 408,0 776,-33 1041,-86 222,-44 359,-86 359,-114l0 -3203c0,-28 -137,-69 -359,-114 -34,-7 -69,-13 -107,-19 38,-58 60,-122 65,-192 28,5 55,10 81,15 321,64 520,173 520,310l0 3203zm-2200 -4289l0 789c0,5 51,22 132,45 258,74 678,74 936,0 81,-23 132,-40 132,-45l0 -789c-24,10 -50,19 -78,27 -294,84 -750,84 -1044,0 -28,-8 -54,-17 -78,-27zm1400 789c0,105 -106,188 -278,238 -294,84 -750,84 -1044,0 -172,-49 -278,-133 -278,-238l0 -1003c2,-104 108,-186 278,-235 294,-84 750,-84 1044,0 109,32 274,101 278,235l0 1003zm-332 -1045c-258,-74 -678,-74 -936,0 -81,23 -132,40 -132,45 0,5 51,22 132,45 258,74 678,74 936,0 81,-23 132,-40 132,-45 0,-5 -51,-22 -132,-45z"/>
</svg>