<?xml version="1.0" encoding="UTF-8"?>
<!DOCTYPE svg PUBLIC "-//W3C//DTD SVG 1.1//EN" "http://www.w3.org/Graphics/SVG/1.1/DTD/svg11.dtd">
<svg xmlns="http://www.w3.org/2000/svg" xml:space="preserve" width="580px" height="580px" shape-rendering="geometricPrecision" text-rendering="geometricPrecision" image-rendering="optimizeQuality" fill-rule="nonzero" clip-rule="nonzero" viewBox="0 0 5800 5800" xmlns:xlink="http://www.w3.org/1999/xlink">
	<title>bottle_of_pills icon</title>
	<desc>bottle_of_pills icon from the IconExperience.com I-Collection. Copyright by INCORS GmbH (www.incors.com).</desc>
	<path id="curve0"  d="M3216 4400c302,0 542,250 542,550 0,300 -240,550 -542,550l-1116 0c-302,0 -542,-250 -542,-550 0,-300 240,-550 542,-550l1116 0zm-2561 -545l1099 -193c298,-53 577,152 629,447 6,31 8,62 9,92l-292 -1c-372,0 -685,281 -735,647l-519 92c-298,52 -577,-153 -629,-448 -52,-296 140,-583 438,-636zm4444 -2355c276,0 500,225 500,500l2 2502c0,275 -226,497 -500,498l-1145 0c28,-427 -308,-800 -740,-800l-617 1 0 -2201c0,-276 225,-500 500,-500 12,0 23,-2 33,-6l1934 0c10,4 22,6 33,6zm-2000 900l0 1500 1900 0 100 0 0 -100 0 -1400 -2000 0zm1800 200l0 1100 -1600 0 0 -1100 1600 0zm-1700 -1900l1800 0c165,0 300,135 300,300l0 100c0,165 -135,300 -300,300l-1800 0c-165,0 -300,-135 -300,-300l0 -100c0,-165 135,-300 300,-300z"/>
</svg>