<?xml version="1.0" encoding="UTF-8"?>
<!DOCTYPE svg PUBLIC "-//W3C//DTD SVG 1.1//EN" "http://www.w3.org/Graphics/SVG/1.1/DTD/svg11.dtd">
<svg xmlns="http://www.w3.org/2000/svg" xml:space="preserve" width="580px" height="580px" shape-rendering="geometricPrecision" text-rendering="geometricPrecision" image-rendering="optimizeQuality" fill-rule="nonzero" clip-rule="nonzero" viewBox="0 0 5800 5800" xmlns:xlink="http://www.w3.org/1999/xlink">
	<title>bottle_bubbles icon</title>
	<desc>bottle_bubbles icon from the IconExperience.com I-Collection. Copyright by INCORS GmbH (www.incors.com).</desc>
		<path id="curve28" d="M2800 4900c110,0 200,90 200,200 0,110 -90,200 -200,200 -110,0 -200,-90 -200,-200 0,-110 90,-200 200,-200zm400 -700c166,0 300,134 300,300 0,166 -134,300 -300,300 -165,0 -300,-135 -300,-300 0,-166 134,-300 300,-300zm0 200c-55,0 -100,45 -100,100 0,56 44,100 100,100 55,0 100,-45 100,-100 0,-55 -45,-100 -100,-100zm-500 -1100c221,0 400,179 400,400 0,220 -180,400 -400,400 -220,0 -400,-180 -400,-400 0,-221 179,-400 400,-400zm0 200c-110,0 -200,90 -200,200 0,111 89,200 200,200 111,0 200,-89 200,-200 0,-110 -90,-200 -200,-200zm300 -1400c276,0 500,224 500,500 0,276 -224,500 -500,500 -276,0 -500,-224 -500,-500 0,-276 224,-500 500,-500zm0 200c-166,0 -300,134 -300,300 0,166 134,300 300,300 166,0 300,-134 300,-300 0,-166 -134,-300 -300,-300zm-700 -2200l1200 0c55,0 100,45 100,100l0 300c0,55 -45,100 -100,100l-100 0 0 1100c0,111 90,193 201,292 218,197 499,452 499,1108l0 2300c0,165 -135,300 -300,300l-1800 0c-165,0 -300,-135 -300,-300l0 -2300c0,-656 281,-911 499,-1108 111,-99 201,-181 201,-292l0 -1100 -100 0c-55,0 -100,-45 -100,-100l0 -300c0,-55 45,-100 100,-100zm1100 200l-1000 0 0 100 100 0c55,0 100,45 100,100l0 1200c0,199 -120,307 -267,440 -189,171 -433,391 -433,960l0 2300c0,55 45,100 100,100l1800 0c55,0 100,-45 100,-100l0 -2300c0,-569 -244,-789 -433,-960 -147,-133 -267,-241 -267,-440l0 -1200c0,-55 45,-100 100,-100l100 0 0 -100z"/>
</svg>