<?xml version="1.0" encoding="UTF-8"?>
<!DOCTYPE svg PUBLIC "-//W3C//DTD SVG 1.1//EN" "http://www.w3.org/Graphics/SVG/1.1/DTD/svg11.dtd">
<svg xmlns="http://www.w3.org/2000/svg" xml:space="preserve" width="580px" height="580px" shape-rendering="geometricPrecision" text-rendering="geometricPrecision" image-rendering="optimizeQuality" fill-rule="nonzero" clip-rule="nonzero" viewBox="0 0 5800 5800" xmlns:xlink="http://www.w3.org/1999/xlink">
	<title>bottle_crate icon</title>
	<desc>bottle_crate icon from the IconExperience.com I-Collection. Copyright by INCORS GmbH (www.incors.com).</desc>
	<path id="curve0"  d="M300 900l300 0c0,-160 124,-300 288,-300l424 0c164,0 288,140 288,300l800 0c0,-160 124,-300 288,-300l424 0c164,0 288,140 288,300l800 0c0,-160 124,-300 288,-300l424 0c164,0 288,140 288,300l300 0c110,0 200,90 200,200l0 3900c0,165 -135,300 -300,300l-5000 0c-165,0 -300,-135 -300,-300l0 -3900c0,-110 90,-200 200,-200zm500 0l600 0c0,-50 -35,-100 -88,-100l-424 0c-53,0 -88,50 -88,100zm1800 0l600 0c0,-50 -35,-100 -88,-100l-424 0c-53,0 -88,50 -88,100zm1800 0l600 0c0,-50 -35,-100 -88,-100l-424 0c-53,0 -88,50 -88,100zm-500 3000l0 -937c0,-393 135,-687 251,-941 53,-116 102,-222 128,-322l-958 0c26,99 75,206 128,322 116,253 251,548 251,941l0 937 200 0zm585 -2200c-28,131 -87,262 -153,405 -107,234 -232,507 -232,858l0 937 100 0 0 -700 500 0 0 -1400c0,-55 -45,-100 -100,-100l-115 0zm-1800 0c-28,131 -87,262 -153,405 -107,234 -232,507 -232,858l0 937 100 0 0 -700 1000 0 0 700 100 0 0 -937c0,-351 -125,-624 -232,-858 -66,-143 -125,-274 -152,-405l-431 0zm-585 2200l0 -937c0,-393 135,-687 251,-941 53,-116 102,-222 128,-322l-958 0c26,99 75,206 128,322 116,253 251,548 251,941l0 937 200 0zm1100 0l0 -500 -600 0 0 500 600 0zm-1500 0l0 -937c0,-351 -125,-624 -232,-858 -66,-143 -125,-274 -152,-405l-116 0c-55,0 -100,45 -100,100l0 1400 500 0 0 700 100 0zm-300 0l0 -500 -300 0 0 400c0,55 45,100 100,100l200 0zm3300 -500l-300 0 0 500 200 0c55,0 100,-45 100,-100l0 -400zm800 -2300l-5200 0 0 3900c0,55 45,100 100,100l5000 0c55,0 100,-45 100,-100l0 -3900zm-4300 400l3400 0c165,0 300,135 300,300l0 2000c0,165 -135,300 -300,300l-3400 0c-165,0 -300,-135 -300,-300l0 -2000c0,-165 135,-300 300,-300z"/>
</svg>