<?xml version="1.0" encoding="UTF-8"?>
<!DOCTYPE svg PUBLIC "-//W3C//DTD SVG 1.1//EN" "http://www.w3.org/Graphics/SVG/1.1/DTD/svg11.dtd">
<svg xmlns="http://www.w3.org/2000/svg" xml:space="preserve" width="580px" height="580px" shape-rendering="geometricPrecision" text-rendering="geometricPrecision" image-rendering="optimizeQuality" fill-rule="nonzero" clip-rule="nonzero" viewBox="0 0 5800 5800" xmlns:xlink="http://www.w3.org/1999/xlink">
	<title>bottle_crate icon</title>
	<desc>bottle_crate icon from the IconExperience.com I-Collection. Copyright by INCORS GmbH (www.incors.com).</desc>
	<path id="curve0"  d="M300 900l300 0c0,-160 124,-300 288,-300l424 0c164,0 288,140 288,300l800 0c0,-160 124,-300 288,-300l424 0c164,0 288,140 288,300l800 0c0,-160 124,-300 288,-300l424 0c164,0 288,140 288,300l300 0c110,0 200,90 200,200l0 3900c0,165 -135,300 -300,300l-5000 0c-165,0 -300,-135 -300,-300l0 -3900c0,-110 90,-200 200,-200zm900 600c-165,0 -300,135 -300,300l0 2000c0,165 135,300 300,300l3400 0c165,0 300,-135 300,-300l0 -2000c0,-165 -135,-300 -300,-300l-3400 0zm-400 -600l600 0c0,-50 -35,-100 -88,-100l-424 0c-53,0 -88,50 -88,100zm1800 0l600 0c0,-50 -35,-100 -88,-100l-424 0c-53,0 -88,50 -88,100zm1300 3000l0 -937c0,-393 135,-687 251,-941 53,-116 102,-222 128,-322l321 0c55,0 100,45 100,100l0 1400 -500 0 0 700 -300 0zm-579 -2200c26,99 75,206 128,322 116,253 251,548 251,941l0 937 -300 0 0 -700 -1000 0 0 700 -300 0 0 -937c0,-393 135,-687 251,-941 53,-116 102,-222 128,-322l842 0zm1379 1700l-300 0 0 500 200 0c55,0 100,-45 100,-100l0 -400zm-3179 -1700l-321 0c-55,0 -100,45 -100,100l0 1400 500 0 0 700 300 0 0 -937c0,-393 -135,-688 -251,-941 -53,-116 -102,-223 -128,-322zm-121 2200l-200 0c-55,0 -100,-45 -100,-100l0 -400 300 0 0 500zm1800 0l0 -500 -600 0 0 500 600 0zm1200 -3000l600 0c0,-50 -35,-100 -88,-100l-424 0c-53,0 -88,50 -88,100z"/>
</svg>