<?xml version="1.0" encoding="UTF-8"?>
<!DOCTYPE svg PUBLIC "-//W3C//DTD SVG 1.1//EN" "http://www.w3.org/Graphics/SVG/1.1/DTD/svg11.dtd">
<svg xmlns="http://www.w3.org/2000/svg" xml:space="preserve" width="580px" height="580px" shape-rendering="geometricPrecision" text-rendering="geometricPrecision" image-rendering="optimizeQuality" fill-rule="nonzero" clip-rule="nonzero" viewBox="0 0 5800 5800" xmlns:xlink="http://www.w3.org/1999/xlink">
	<title>bottle icon</title>
	<desc>bottle icon from the IconExperience.com I-Collection. Copyright by INCORS GmbH (www.incors.com).</desc>
	<path id="curve0"  d="M4500 5100c0,137 -199,246 -520,310 -277,56 -659,90 -1080,90 -421,0 -803,-34 -1080,-90 -321,-64 -520,-173 -520,-310l0 -3203c0,-137 199,-246 520,-310 26,-5 53,-10 81,-15 30,432 659,528 999,528 340,0 969,-96 999,-528 28,5 55,10 81,15 321,64 520,173 520,310l0 3203zm-800 -2700l0 2400c0,55 45,100 100,100 55,0 100,-45 100,-100l0 -2400c0,-55 -45,-100 -100,-100 -55,0 -100,45 -100,100zm0 -800c0,105 -106,188 -278,238 -294,84 -750,84 -1044,0 -172,-49 -278,-133 -278,-238l0 -883c220,138 547,183 800,183 253,0 580,-45 800,-183l0 883zm-1562 -1103c45,-57 129,-103 240,-135 294,-84 750,-84 1044,0 78,23 184,64 240,135 -155,157 -557,203 -762,203 -205,0 -607,-46 -762,-203z"/>
</svg>