<?xml version="1.0" encoding="UTF-8"?>
<!DOCTYPE svg PUBLIC "-//W3C//DTD SVG 1.1//EN" "http://www.w3.org/Graphics/SVG/1.1/DTD/svg11.dtd">
<svg xmlns="http://www.w3.org/2000/svg" xml:space="preserve" width="580px" height="580px" shape-rendering="geometricPrecision" text-rendering="geometricPrecision" image-rendering="optimizeQuality" fill-rule="nonzero" clip-rule="nonzero" viewBox="0 0 5800 5800" xmlns:xlink="http://www.w3.org/1999/xlink">
	<title>bottle_bubbles icon</title>
	<desc>bottle_bubbles icon from the IconExperience.com I-Collection. Copyright by INCORS GmbH (www.incors.com).</desc>
		<path id="curve28"  d="M2300 100l1200 0c55,0 100,45 100,100l0 300c0,55 -45,100 -100,100l-100 0 0 1100c0,111 90,193 201,292 218,197 499,452 499,1108l0 2300c0,165 -135,300 -300,300l-1800 0c-165,0 -300,-135 -300,-300l0 -2300c0,-656 281,-911 499,-1108 111,-99 201,-181 201,-292l0 -1100 -100 0c-55,0 -100,-45 -100,-100l0 -300c0,-55 45,-100 100,-100zm700 2100c-221,0 -400,179 -400,400 0,221 179,400 400,400 221,0 400,-179 400,-400 0,-221 -179,-400 -400,-400zm-300 1200c-166,0 -300,134 -300,300 0,166 134,300 300,300 166,0 300,-134 300,-300 0,-166 -134,-300 -300,-300zm500 900c-110,0 -200,90 -200,200 0,110 90,200 200,200 110,0 200,-90 200,-200 0,-110 -90,-200 -200,-200zm-400 700c-55,0 -100,45 -100,100 0,55 45,100 100,100 55,0 100,-45 100,-100 0,-55 -45,-100 -100,-100z"/>
</svg>