<?xml version="1.0" encoding="UTF-8"?>
<!DOCTYPE svg PUBLIC "-//W3C//DTD SVG 1.1//EN" "http://www.w3.org/Graphics/SVG/1.1/DTD/svg11.dtd">
<svg xmlns="http://www.w3.org/2000/svg" xml:space="preserve" width="580px" height="580px" shape-rendering="geometricPrecision" text-rendering="geometricPrecision" image-rendering="optimizeQuality" fill-rule="nonzero" clip-rule="nonzero" viewBox="0 0 5800 5800" xmlns:xlink="http://www.w3.org/1999/xlink">
	<title>bottle_of_pills icon</title>
	<desc>bottle_of_pills icon from the IconExperience.com I-Collection. Copyright by INCORS GmbH (www.incors.com).</desc>
	<path id="curve0" d="M2100 4600c-193,0 -342,160 -342,350 0,190 149,350 342,350l1116 0c193,0 342,-160 342,-350 0,-190 -149,-350 -342,-350l-1116 0zm-311 -742l-1100 194c-189,34 -308,217 -275,404 33,188 208,319 397,286l617 -109c-31,67 -53,139 -63,214l-519 92c-298,52 -577,-153 -629,-448 -52,-296 140,-583 438,-636l1099 -193c335,-60 635,205 638,539l-200 0c-3,-211 -190,-380 -403,-343zm1410 -3158l1800 0c165,0 300,135 300,300l0 100c0,165 -135,300 -300,300 0,28 11,53 29,71 18,18 44,29 71,29 138,0 263,56 353,147 91,90 147,215 147,353l2 2502c0,137 -57,262 -147,352 -91,90 -216,146 -353,146l-1145 0c1,-17 2,-33 2,-50 0,-51 -5,-101 -15,-150l1158 0c82,0 157,-33 212,-87 54,-54 88,-129 88,-211l-1 -2502c0,-83 -34,-158 -88,-212 -55,-54 -130,-88 -213,-88 -82,0 -157,-34 -211,-88 -55,-55 -89,-130 -89,-212l-1400 0c0,165 -135,300 -300,300 -165,0 -300,135 -300,300l0 2201 -200 0 0 -2201c0,-276 225,-500 500,-500 56,0 100,-45 100,-100 -165,0 -300,-135 -300,-300l0 -100c0,-165 135,-300 300,-300zm1900 1700l0 1500 -2000 0 0 -1500 2000 0zm-200 200l-1600 0 0 1100 1600 0 0 -1100zm100 -1700l-1800 0c-55,0 -100,45 -100,100l0 100c0,55 45,100 100,100l1800 0c55,0 100,-45 100,-100l0 -100c0,-55 -45,-100 -100,-100zm-1783 3500c302,0 542,250 542,550 0,300 -240,550 -542,550l-1116 0c-302,0 -542,-250 -542,-550 0,-300 240,-550 542,-550l1116 0z"/>
</svg>