<?xml version="1.0" encoding="UTF-8"?>
<!DOCTYPE svg PUBLIC "-//W3C//DTD SVG 1.1//EN" "http://www.w3.org/Graphics/SVG/1.1/DTD/svg11.dtd">
<svg xmlns="http://www.w3.org/2000/svg" xml:space="preserve" width="580px" height="580px" shape-rendering="geometricPrecision" text-rendering="geometricPrecision" image-rendering="optimizeQuality" fill-rule="nonzero" clip-rule="nonzero" viewBox="0 0 5800 5800" xmlns:xlink="http://www.w3.org/1999/xlink">
	<title>bow_tie icon</title>
	<desc>bow_tie icon from the IconExperience.com I-Collection. Copyright by INCORS GmbH (www.incors.com).</desc>
		<path id="curve28"  d="M2900 4300c-218,0 -362,-55 -457,-152 -15,21 -32,41 -50,61 -16,17 -34,34 -54,52 -45,39 -117,80 -169,117 -295,207 -510,337 -886,337 -187,0 -364,-178 -364,-364 0,-132 -18,-241 -34,-343 -17,-102 -33,-199 -33,-307 0,-141 19,-258 37,-371 15,-96 30,-189 30,-296 0,-95 40,-190 108,-258 64,-64 152,-106 256,-106 330,0 575,147 839,305 57,34 115,69 166,97 24,14 56,50 74,71 29,33 56,70 80,109 95,-97 240,-152 457,-152 187,0 320,41 414,113 51,-52 113,-98 184,-136 58,-34 117,-67 175,-102 264,-158 509,-305 839,-305 199,0 364,164 364,364 0,105 12,185 24,266 15,96 30,194 30,337 0,106 -13,216 -26,331 -14,121 -28,249 -28,383 0,94 -45,185 -112,252 -67,67 -158,112 -252,112 -406,0 -641,-164 -880,-333 -54,-32 -110,-78 -164,-113 -55,-24 -103,-55 -145,-90 -94,78 -230,121 -423,121zm600 -600c0,120 -15,228 -56,319 47,42 79,49 126,79 0,-1 159,106 177,121 212,151 421,296 765,296 38,0 79,-22 111,-53 31,-32 53,-73 53,-111 0,-143 15,-278 30,-406 12,-108 24,-211 24,-308 0,-129 -14,-219 -27,-307 -14,-90 -27,-177 -27,-296 0,-90 -74,-164 -164,-164 -276,0 -498,133 -737,276 -61,36 -122,73 -178,104 -62,35 -109,68 -158,121 45,93 61,204 61,329zm-1170 249c-21,-75 -30,-158 -30,-249 0,-87 8,-167 28,-239 -29,-69 -68,-133 -115,-187 -10,-12 -21,-23 -33,-35 -60,-34 -110,-64 -159,-93 -240,-143 -461,-276 -737,-276 -47,0 -86,19 -114,47 -32,31 -50,74 -50,117 0,118 -16,221 -33,328 -17,103 -34,209 -34,339 0,95 14,183 29,275 19,112 38,230 38,375 0,77 86,164 164,164 326,0 516,-121 772,-301 50,-35 100,-71 157,-108 12,-10 23,-21 34,-33 35,-38 63,-80 83,-124zm570 -2249c730,0 1394,120 1876,315 509,206 824,500 824,835 0,249 -175,476 -474,661 -5,-85 -15,-154 -25,-221 190,-133 299,-284 299,-440 0,-245 -267,-476 -699,-650 -459,-185 -1096,-300 -1801,-300 -705,0 -1342,115 -1801,300 -432,174 -699,405 -699,650 0,155 107,304 295,437l-2 12c-11,66 -21,133 -29,205 -293,-183 -464,-408 -464,-654 0,-335 315,-629 824,-835 482,-195 1146,-315 1876,-315zm400 2000c0,-293 -101,-400 -400,-400 -299,0 -400,107 -400,400 0,293 101,401 400,400 298,0 401,-106 400,-400z"/>
</svg>