<?xml version="1.0" encoding="UTF-8"?>
<!DOCTYPE svg PUBLIC "-//W3C//DTD SVG 1.1//EN" "http://www.w3.org/Graphics/SVG/1.1/DTD/svg11.dtd">
<svg xmlns="http://www.w3.org/2000/svg" xml:space="preserve" width="580px" height="580px" shape-rendering="geometricPrecision" text-rendering="geometricPrecision" image-rendering="optimizeQuality" fill-rule="nonzero" clip-rule="nonzero" viewBox="0 0 5800 5800" xmlns:xlink="http://www.w3.org/1999/xlink">
	<title>bow_tie icon</title>
	<desc>bow_tie icon from the IconExperience.com I-Collection. Copyright by INCORS GmbH (www.incors.com).</desc>
		<path id="curve28"  d="M2900 1600c743,0 1419,123 1913,322 548,222 887,548 887,928 0,300 -211,566 -570,774 -1,-158 -26,-291 -45,-444 138,-105 215,-217 215,-330 0,-200 -243,-399 -636,-557 -448,-181 -1071,-293 -1764,-293 -693,0 -1316,112 -1764,293 -393,158 -636,357 -636,557 0,112 76,223 211,327 -18,148 -48,288 -56,439 -349,-207 -555,-471 -555,-766 0,-380 339,-706 887,-928 494,-199 1170,-322 1913,-322zm-1616 1070c330,0 575,147 839,305 57,34 115,69 166,97 11,6 19,14 28,22 -143,136 -217,340 -217,606 0,255 68,453 199,588 -42,28 -85,59 -129,90 -295,207 -510,337 -886,337 -187,0 -364,-178 -364,-364 0,-223 -67,-431 -67,-650 0,-230 67,-444 67,-667 0,-95 40,-190 108,-258 64,-64 152,-106 256,-106zm2389 305c264,-158 509,-305 839,-305 199,0 364,164 364,364 0,203 54,393 54,603 0,238 -54,473 -54,714 0,187 -177,364 -364,364 -406,0 -641,-164 -880,-333 -43,-26 -90,-63 -133,-92 132,-135 201,-334 201,-590 0,-270 -76,-476 -223,-611 65,-38 131,-75 196,-114zm-173 725c-1,405 -189,600 -600,600 -410,-1 -600,-195 -600,-600 0,-405 190,-600 600,-600 410,0 600,195 600,600z"/>
</svg>