<?xml version="1.0" encoding="UTF-8"?>
<!DOCTYPE svg PUBLIC "-//W3C//DTD SVG 1.1//EN" "http://www.w3.org/Graphics/SVG/1.1/DTD/svg11.dtd">
<svg xmlns="http://www.w3.org/2000/svg" xml:space="preserve" width="580px" height="580px" shape-rendering="geometricPrecision" text-rendering="geometricPrecision" image-rendering="optimizeQuality" fill-rule="nonzero" clip-rule="nonzero" viewBox="0 0 5800 5800" xmlns:xlink="http://www.w3.org/1999/xlink">
	<title>bowling_pins icon</title>
	<desc>bowling_pins icon from the IconExperience.com I-Collection. Copyright by INCORS GmbH (www.incors.com).</desc>
		<path id="curve28" d="M1900 4152c0,-622 155,-991 295,-1325 109,-259 208,-496 208,-816 0,-197 -57,-338 -109,-465 -49,-122 -94,-232 -94,-370 0,-383 324,-676 700,-676 376,0 700,293 700,676 0,138 -45,248 -94,370 -52,127 -109,268 -109,465 0,320 99,557 208,816 140,334 295,703 295,1325 0,457 -136,940 -338,1348l-1324 0c-205,-414 -338,-883 -338,-1348zm1644 -3587c135,-169 340,-265 556,-265 376,0 700,293 700,676 0,138 -45,248 -94,370 -52,127 -109,268 -109,465 0,320 99,557 208,816 140,334 295,703 295,1325 0,457 -136,940 -338,1348l-892 0c25,-65 49,-131 70,-200l697 0c157,-341 263,-773 263,-1148 0,-582 -147,-931 -279,-1248 -41,-96 -80,-189 -114,-284l-814 0c-5,14 -11,29 -16,43 -48,-140 -80,-285 -80,-452 0,-158 49,-280 94,-390 22,-53 42,-104 60,-157 38,124 54,242 52,372l594 0c-3,-219 43,-367 124,-565 41,-102 79,-195 79,-295 0,-273 -234,-476 -500,-476 -171,0 -334,83 -427,228 -36,-59 -80,-114 -129,-163zm-2844 3387c0,-622 155,-991 295,-1325 109,-259 208,-496 208,-816 0,-197 -57,-338 -109,-465 -49,-122 -94,-232 -94,-370 0,-383 324,-676 700,-676 216,0 421,96 556,265 -49,49 -93,104 -129,163 -93,-145 -256,-228 -427,-228 -266,0 -500,203 -500,476 0,100 38,193 79,295 81,198 127,346 124,565l594 0c-2,-130 14,-248 52,-372 18,53 38,104 60,157 45,110 94,232 94,390 0,167 -32,312 -80,452 -5,-14 -11,-29 -16,-43l-814 0c-34,95 -73,188 -114,284 -132,317 -279,666 -279,1248 0,375 106,807 263,1148l697 0c21,69 45,135 70,200l-892 0c-202,-408 -338,-891 -338,-1348zm1346 -1732c-14,-59 -26,-120 -35,-184l-622 0c-9,64 -21,125 -35,184l692 0zm1708 0l692 0c-14,-59 -26,-120 -35,-184l-622 0c-9,64 -21,125 -35,184zm-1200 200l692 0c-14,-59 -26,-120 -35,-184l-622 0c-9,64 -21,125 -35,184zm753 200l-814 0c-34,95 -73,188 -114,284 -132,317 -279,666 -279,1248 0,375 106,807 263,1148l1074 0c157,-341 263,-773 263,-1148 0,-582 -147,-931 -279,-1248 -41,-96 -80,-189 -114,-284zm-110 -584c-3,-219 43,-367 124,-565 41,-102 79,-195 79,-295 0,-273 -234,-476 -500,-476 -266,0 -500,203 -500,476 0,100 38,193 79,295 81,198 127,346 124,565l594 0z"/>
</svg>