<?xml version="1.0" encoding="UTF-8"?>
<!DOCTYPE svg PUBLIC "-//W3C//DTD SVG 1.1//EN" "http://www.w3.org/Graphics/SVG/1.1/DTD/svg11.dtd">
<svg xmlns="http://www.w3.org/2000/svg" xml:space="preserve" width="580px" height="580px" shape-rendering="geometricPrecision" text-rendering="geometricPrecision" image-rendering="optimizeQuality" fill-rule="nonzero" clip-rule="nonzero" viewBox="0 0 5800 5800" xmlns:xlink="http://www.w3.org/1999/xlink">
	<title>bowling_pin icon</title>
	<desc>bowling_pin icon from the IconExperience.com I-Collection. Copyright by INCORS GmbH (www.incors.com).</desc>
		<path id="curve28"  d="M1900 4100c0,-646 155,-1030 295,-1377 109,-270 208,-517 208,-853 0,-207 -57,-355 -109,-488 -49,-125 -94,-240 -94,-382 0,-387 313,-700 700,-700 387,0 700,313 700,700 0,142 -45,257 -94,382 -52,133 -109,281 -109,488 0,336 99,583 208,853 140,347 295,731 295,1377 0,474 -134,974 -337,1400l-1326 0c-203,-426 -337,-926 -337,-1400zm652 -1800l696 0c-16,-64 -28,-130 -37,-200l-622 0c-9,70 -21,136 -37,200zm755 200l-814 0c-34,100 -73,197 -113,297 -133,330 -280,695 -280,1303 0,391 106,843 264,1200l1072 0c158,-357 264,-809 264,-1200 0,-608 -147,-973 -280,-1303 -40,-100 -79,-197 -113,-297zm-110 -600c0,-10 0,-20 0,-30 0,-243 65,-410 123,-560 42,-107 80,-204 80,-310 0,-276 -224,-500 -500,-500 -276,0 -500,224 -500,500 0,106 38,203 80,310 58,150 123,317 123,560 0,10 0,20 0,30l594 0z"/>
</svg>