<?xml version="1.0" encoding="UTF-8"?>
<!DOCTYPE svg PUBLIC "-//W3C//DTD SVG 1.1//EN" "http://www.w3.org/Graphics/SVG/1.1/DTD/svg11.dtd">
<svg xmlns="http://www.w3.org/2000/svg" xml:space="preserve" width="580px" height="580px" shape-rendering="geometricPrecision" text-rendering="geometricPrecision" image-rendering="optimizeQuality" fill-rule="nonzero" clip-rule="nonzero" viewBox="0 0 5800 5800" xmlns:xlink="http://www.w3.org/1999/xlink">
	<title>bowl icon</title>
	<desc>bowl icon from the IconExperience.com I-Collection. Copyright by INCORS GmbH (www.incors.com).</desc>
	<path id="curve0"  d="M5300 2400c0,-113 -250,-230 -655,-327 -445,-107 -1061,-173 -1745,-173 -684,0 -1300,66 -1745,173 -405,97 -655,214 -655,327 0,113 250,230 655,327 445,107 1061,173 1745,173 684,0 1300,-66 1745,-173 405,-97 655,-214 655,-327zm-1698 2500l-1404 0c-13,0 -25,-2 -37,-7 -543,-161 -1012,-494 -1343,-936 -325,-434 -518,-973 -518,-1557 0,-218 309,-401 809,-521 461,-111 1094,-179 1791,-179 697,0 1330,68 1791,179 500,120 809,303 809,521 0,584 -193,1123 -518,1557 -333,445 -806,779 -1353,939 -9,2 -18,4 -27,4z"/>
</svg>