<?xml version="1.0" encoding="UTF-8"?>
<!DOCTYPE svg PUBLIC "-//W3C//DTD SVG 1.1//EN" "http://www.w3.org/Graphics/SVG/1.1/DTD/svg11.dtd">
<svg xmlns="http://www.w3.org/2000/svg" xml:space="preserve" width="580px" height="580px" shape-rendering="geometricPrecision" text-rendering="geometricPrecision" image-rendering="optimizeQuality" fill-rule="nonzero" clip-rule="nonzero" viewBox="0 0 5800 5800" xmlns:xlink="http://www.w3.org/1999/xlink">
	<title>bowl icon</title>
	<desc>bowl icon from the IconExperience.com I-Collection. Copyright by INCORS GmbH (www.incors.com).</desc>
	<path id="curve0" d="M5500 2396c27,1139 -791,2185 -1871,2500 -9,2 -18,4 -27,4l-1404 0c-13,0 -25,-2 -37,-7 -1074,-318 -1887,-1362 -1861,-2497 4,-216 312,-398 809,-517 461,-111 1094,-179 1791,-179 697,0 1330,68 1791,179 497,119 805,301 809,517zm-4982 302c117,942 783,1730 1694,2002l1376 0c911,-272 1577,-1060 1694,-2002 -140,88 -342,163 -591,223 -461,111 -1094,179 -1791,179 -697,0 -1330,-68 -1791,-179 -249,-60 -451,-135 -591,-223zm4127 -625c-445,-107 -1061,-173 -1745,-173 -684,0 -1300,66 -1745,173 -405,97 -655,214 -655,327 0,113 250,230 655,327 445,107 1061,173 1745,173 684,0 1300,-66 1745,-173 405,-97 655,-214 655,-327 0,-113 -250,-230 -655,-327z"/>
</svg>