<?xml version="1.0" encoding="UTF-8"?>
<!DOCTYPE svg PUBLIC "-//W3C//DTD SVG 1.1//EN" "http://www.w3.org/Graphics/SVG/1.1/DTD/svg11.dtd">
<svg xmlns="http://www.w3.org/2000/svg" xml:space="preserve" width="580px" height="580px" shape-rendering="geometricPrecision" text-rendering="geometricPrecision" image-rendering="optimizeQuality" fill-rule="nonzero" clip-rule="nonzero" viewBox="0 0 5800 5800" xmlns:xlink="http://www.w3.org/1999/xlink">
	<title>bowling_pin icon</title>
	<desc>bowling_pin icon from the IconExperience.com I-Collection. Copyright by INCORS GmbH (www.incors.com).</desc>
		<path id="curve28"  d="M2210 5443c-187,-393 -310,-908 -310,-1343 0,-646 155,-1030 295,-1377 30,-75 60,-149 87,-223l1236 0c27,74 57,148 87,223 140,347 295,731 295,1377 0,435 -123,950 -310,1343l-27 57c-442,0 -884,0 -1326,0l-27 -57zm136 -3143c17,-64 31,-130 41,-200l1026 0c10,70 24,136 41,200l-1108 0zm57 -400c3,-199 -38,-336 -109,-518 -49,-125 -94,-240 -94,-382 0,-387 313,-700 700,-700 387,0 700,313 700,700 0,142 -45,257 -94,382 -71,182 -112,319 -109,518l-994 0z"/>
</svg>