<?xml version="1.0" encoding="UTF-8"?>
<!DOCTYPE svg PUBLIC "-//W3C//DTD SVG 1.1//EN" "http://www.w3.org/Graphics/SVG/1.1/DTD/svg11.dtd">
<svg xmlns="http://www.w3.org/2000/svg" xml:space="preserve" width="580px" height="580px" shape-rendering="geometricPrecision" text-rendering="geometricPrecision" image-rendering="optimizeQuality" fill-rule="nonzero" clip-rule="nonzero" viewBox="0 0 5800 5800" xmlns:xlink="http://www.w3.org/1999/xlink">
	<title>bowling_pins icon</title>
	<desc>bowling_pins icon from the IconExperience.com I-Collection. Copyright by INCORS GmbH (www.incors.com).</desc>
		<path id="curve28"  d="M1900 4152c0,-622 155,-991 295,-1325 29,-70 58,-138 84,-207l1242 0c26,69 55,137 84,207 140,334 295,703 295,1325 0,465 -133,934 -338,1348l-1324 0c-205,-414 -338,-883 -338,-1348zm-1200 -200c0,-622 155,-991 295,-1325 29,-70 58,-138 84,-207l1058 0c-34,111 -79,218 -126,330 -148,351 -311,740 -311,1402 0,377 93,796 230,1148l-892 0c-205,-414 -338,-883 -338,-1348zm2963 -1532l1058 0c26,69 55,137 84,207 140,334 295,703 295,1325 0,465 -133,934 -338,1348l-892 0c137,-352 230,-771 230,-1148 0,-662 -163,-1051 -311,-1402 -47,-112 -92,-219 -126,-330zm-66 -384l1017 0c10,64 23,125 40,184l-1040 0c-10,-59 -16,-120 -17,-184zm-53 -1471c135,-169 340,-265 556,-265 376,0 700,293 700,676 0,138 -45,248 -94,370 -70,171 -112,301 -109,490l-980 0c19,-80 47,-150 74,-215 57,-141 109,-268 109,-445 0,-237 -97,-453 -256,-611zm-2398 1655c17,-59 30,-120 40,-184l1017 0c-1,64 -7,125 -17,184l-1040 0zm57 -384c3,-189 -39,-319 -109,-490 -49,-122 -94,-232 -94,-370 0,-383 324,-676 700,-676 216,0 421,96 556,265 -159,158 -256,374 -256,611 0,177 52,304 109,445 27,65 55,135 74,215l-980 0zm1143 584c17,-59 30,-120 40,-184l1028 0c10,64 23,125 40,184l-1108 0zm57 -384c3,-189 -39,-319 -109,-490 -49,-122 -94,-232 -94,-370 0,-383 324,-676 700,-676 376,0 700,293 700,676 0,138 -45,248 -94,370 -70,171 -112,301 -109,490l-994 0z"/>
</svg>