<?xml version="1.0" encoding="UTF-8"?>
<!DOCTYPE svg PUBLIC "-//W3C//DTD SVG 1.1//EN" "http://www.w3.org/Graphics/SVG/1.1/DTD/svg11.dtd">
<svg xmlns="http://www.w3.org/2000/svg" xml:space="preserve" width="580px" height="580px" shape-rendering="geometricPrecision" text-rendering="geometricPrecision" image-rendering="optimizeQuality" fill-rule="nonzero" clip-rule="nonzero" viewBox="0 0 5800 5800" xmlns:xlink="http://www.w3.org/1999/xlink">
	<title>box_surprise icon</title>
	<desc>box_surprise icon from the IconExperience.com I-Collection. Copyright by INCORS GmbH (www.incors.com).</desc>
	<path id="curve0"  d="M4900 2361l0 2139c0,43 -27,79 -64,93l-1936 968 0 -2200 2000 -1000zm-4100 -172l1955 -978c30,-15 62,-14 90,0l792 396 -1948 1026 -889 -444zm3057 -472l936 468 -1993 1004 -892 -446 1949 -1026zm-1157 1644l0 2200 -1945 -972c-34,-17 -55,-52 -55,-89l0 -2139c667,334 1333,667 2000,1000zm-1400 150l200 100 0 -159c0,-36 4,-67 12,-91 9,-31 24,-68 62,-49l290 145c75,38 130,165 149,244 9,38 14,77 14,115 0,28 -3,49 -9,66 -15,41 -46,52 -84,38 -28,-10 -59,-15 -89,-13 -107,5 -186,82 -222,180 -14,41 -23,89 -23,144l200 96c0,-36 0,-71 0,-81 -2,-40 3,-105 37,-132 9,-7 19,-10 29,-6 33,11 66,17 98,17 114,0 203,-70 241,-176 14,-39 22,-83 22,-133 0,-53 -7,-107 -19,-160 -34,-142 -120,-309 -255,-377l-290 -145c-95,-47 -197,-35 -271,43 -69,71 -92,179 -92,275l0 59zm500 1037l-200 -96 0 262 200 100 0 -266z"/>
</svg>