<?xml version="1.0" encoding="UTF-8"?>
<!DOCTYPE svg PUBLIC "-//W3C//DTD SVG 1.1//EN" "http://www.w3.org/Graphics/SVG/1.1/DTD/svg11.dtd">
<svg xmlns="http://www.w3.org/2000/svg" xml:space="preserve" width="580px" height="580px" shape-rendering="geometricPrecision" text-rendering="geometricPrecision" image-rendering="optimizeQuality" fill-rule="nonzero" clip-rule="nonzero" viewBox="0 0 5800 5800" xmlns:xlink="http://www.w3.org/1999/xlink">
	<title>box_into icon</title>
	<desc>box_into icon from the IconExperience.com I-Collection. Copyright by INCORS GmbH (www.incors.com).</desc>
		<path id="curve28"  d="M2700 2559l0 -1859 200 0 0 1859 629 -630 142 142 -871 870 -871 -870 142 -142 629 630zm-1989 -404c9,-19 25,-35 44,-44l1745 -870 0 222 -1577 787 1877 939c683,-338 1219,-610 1877,-939l-1577 -790 0 -222 1745 873c21,11 38,29 47,51l497 993c25,50 5,109 -44,134l-2000 1000c-47,23 -116,-12 -132,-41l-500 -900c-8,-14 -12,-29 -13,-44l0 2258 -1945 -973c-34,-17 -55,-53 -55,-89l0 -1877 -200 394 0 194 -155 78c-28,14 -60,15 -90,0 -49,-25 -69,-84 -44,-134l500 -1000zm4189 1580l0 765c0,43 -27,79 -64,93l-1936 968 0 -1465 138 250c73,131 262,189 396,122l1466 -733z"/>
</svg>