<?xml version="1.0" encoding="UTF-8"?>
<!DOCTYPE svg PUBLIC "-//W3C//DTD SVG 1.1//EN" "http://www.w3.org/Graphics/SVG/1.1/DTD/svg11.dtd">
<svg xmlns="http://www.w3.org/2000/svg" xml:space="preserve" width="580px" height="580px" shape-rendering="geometricPrecision" text-rendering="geometricPrecision" image-rendering="optimizeQuality" fill-rule="nonzero" clip-rule="nonzero" viewBox="0 0 5800 5800" xmlns:xlink="http://www.w3.org/1999/xlink">
	<title>box_surprise icon</title>
	<desc>box_surprise icon from the IconExperience.com I-Collection. Copyright by INCORS GmbH (www.incors.com).</desc>
	<path id="curve0"  d="M1300 3309l0 -58c0,-96 23,-204 92,-276 74,-77 176,-90 271,-43l290 146c135,67 221,234 255,376 12,53 19,107 19,160 0,50 -8,95 -22,134 -38,105 -127,176 -241,176 -32,0 -65,-6 -98,-18 -10,-4 -20,-1 -29,6 -34,28 -39,93 -37,132 0,10 0,45 0,81l-200 -96c0,-54 9,-102 23,-143 36,-98 115,-175 222,-181 30,-1 61,4 89,14 38,13 69,2 84,-38 6,-17 9,-39 9,-67 0,-38 -5,-77 -14,-114 -19,-80 -74,-207 -149,-244l-290 -146c-38,-18 -53,18 -62,49 -8,25 -12,56 -12,92l0 158 -200 -100zm3600 1191c0,43 -27,79 -64,93l-1991 996c-30,15 -62,14 -90,0l-2000 -1000c-34,-17 -55,-52 -55,-89l0 -2400c0,-43 27,-79 64,-93l1991 -996c30,-15 62,-14 90,0l2000 1000c32,17 53,49 55,85l0 2404zm-3877 -2400l776 388 1731 -911 -730 -366 -1777 889zm995 498l782 391 1777 -889 -827 -414 -1732 912zm2682 1841l0 -2178 -1800 900 0 2178 1800 -900zm-2000 -1278c-600,-300 -1200,-600 -1800,-900l0 2178 1800 900 0 -2178zm-900 1185l0 266 -200 -100 0 -262 200 96z"/>
</svg>