<?xml version="1.0" encoding="UTF-8"?>
<!DOCTYPE svg PUBLIC "-//W3C//DTD SVG 1.1//EN" "http://www.w3.org/Graphics/SVG/1.1/DTD/svg11.dtd">
<svg xmlns="http://www.w3.org/2000/svg" xml:space="preserve" width="580px" height="580px" shape-rendering="geometricPrecision" text-rendering="geometricPrecision" image-rendering="optimizeQuality" fill-rule="nonzero" clip-rule="nonzero" viewBox="0 0 5800 5800" xmlns:xlink="http://www.w3.org/1999/xlink">
	<title>box_software icon</title>
	<desc>box_software icon from the IconExperience.com I-Collection. Copyright by INCORS GmbH (www.incors.com).</desc>
	<path id="curve0"  d="M3900 3550c193,0 350,157 350,350 0,193 -157,350 -350,350 -193,0 -350,-157 -350,-350 0,-193 157,-350 350,-350zm0 -1250c884,0 1600,716 1600,1600 0,884 -716,1600 -1600,1600 -884,0 -1600,-716 -1600,-1600 0,-884 716,-1600 1600,-1600zm669 370c-58,-32 -119,-60 -182,-83l-270 595c64,19 125,47 182,83l270 -595zm-13 866c32,58 57,120 73,186l608 -238c-20,-64 -44,-126 -72,-185l-609 237zm-873 1082c-64,-19 -125,-47 -181,-83l-271 595c58,32 119,60 182,83l270 -595zm-439 -354c-32,-58 -57,-120 -73,-186l-608 238c20,64 44,126 72,185l609 -237zm656 -914c-304,0 -550,246 -550,550 0,304 246,550 550,550 304,0 550,-246 550,-550 0,-304 -246,-550 -550,-550zm0 400c-83,0 -150,67 -150,150 0,83 67,150 150,150 83,0 150,-67 150,-150 0,-83 -67,-150 -150,-150zm800 -1850l0 387c-241,-120 -513,-187 -800,-187 -994,0 -1800,806 -1800,1800 0,676 377,1291 975,1600l-1975 0 0 -3600 -941 0 800 -800 772 0 300 -800 3013 0 -300 800 897 0 -800 800 -141 0zm-700 -100l600 -600 -2800 0 -600 600 2800 0z"/>
</svg>