<?xml version="1.0" encoding="UTF-8"?>
<!DOCTYPE svg PUBLIC "-//W3C//DTD SVG 1.1//EN" "http://www.w3.org/Graphics/SVG/1.1/DTD/svg11.dtd">
<svg xmlns="http://www.w3.org/2000/svg" xml:space="preserve" width="580px" height="580px" shape-rendering="geometricPrecision" text-rendering="geometricPrecision" image-rendering="optimizeQuality" fill-rule="nonzero" clip-rule="nonzero" viewBox="0 0 5800 5800" xmlns:xlink="http://www.w3.org/1999/xlink">
	<title>box_tall icon</title>
	<desc>box_tall icon from the IconExperience.com I-Collection. Copyright by INCORS GmbH (www.incors.com).</desc>
	<path id="curve0" d="M4700 1900l0 2941 -659 659 -2941 0 0 -3600 -941 0 800 -800 772 0 300 -800 2869 0 144 0 -300 800 897 0 -800 800 -141 0zm-59 -600l-400 400 518 0 400 -400 -518 0zm-541 600l0 3259 400 -400 0 -2859 -400 0zm-200 3400l0 -3400 -2600 0 0 3400 2600 0zm59 -3600l400 -400 -2518 0 -400 400 2518 0zm-2015 -600l2587 0 225 -600 -2587 0 -225 600zm-785 600l400 -400 -518 0 -400 400 518 0z"/>
</svg>