<?xml version="1.0" encoding="UTF-8"?>
<!DOCTYPE svg PUBLIC "-//W3C//DTD SVG 1.1//EN" "http://www.w3.org/Graphics/SVG/1.1/DTD/svg11.dtd">
<svg xmlns="http://www.w3.org/2000/svg" xml:space="preserve" width="580px" height="580px" shape-rendering="geometricPrecision" text-rendering="geometricPrecision" image-rendering="optimizeQuality" fill-rule="nonzero" clip-rule="nonzero" viewBox="0 0 5800 5800" xmlns:xlink="http://www.w3.org/1999/xlink">
	<title>box_software icon</title>
	<desc>box_software icon from the IconExperience.com I-Collection. Copyright by INCORS GmbH (www.incors.com).</desc>
	<path id="curve0"  d="M3900 3550c193,0 350,157 350,350 0,193 -157,350 -350,350 -193,0 -350,-157 -350,-350 0,-193 157,-350 350,-350zm0 -1250c884,0 1600,716 1600,1600 0,884 -716,1600 -1600,1600 -884,0 -1600,-716 -1600,-1600 0,-884 716,-1600 1600,-1600zm741 -1000l-400 400 518 0 400 -400 -518 0zm-541 600l0 211c-66,-7 -132,-11 -200,-11l0 -200 -2600 0 0 3400 1469 0c94,77 197,144 306,200l-1975 0 0 -3600 -941 0 800 -800 772 0 300 -800 3013 0 -300 800 897 0 -800 800 -141 0 0 387c-65,-32 -131,-60 -200,-85l0 -302 -400 0zm-2941 -200l400 -400 -518 0 -400 400 518 0zm785 -600l2587 0 225 -600 -2587 0 -225 600zm-503 600l2518 0 400 -400 -2518 0 -400 400zm3796 1784l-655 257c12,51 18,104 18,159 0,387 -313,700 -700,700 -68,0 -134,-10 -196,-28l-291 641c152,56 316,87 487,87 773,0 1400,-627 1400,-1400 0,-145 -22,-284 -63,-416zm-728 71l656 -256c-128,-267 -337,-488 -596,-629l-291 641c95,61 175,145 231,244zm-413 -327l291 -641c-152,-56 -316,-87 -487,-87 -773,0 -1400,627 -1400,1400 0,145 22,284 63,416l655 -257c-12,-51 -18,-104 -18,-159 0,-387 313,-700 700,-700 68,0 134,10 196,28zm-805 1017l-656 256c128,267 337,488 596,629l291 -640c-95,-62 -175,-146 -231,-245zm609 -845c-276,0 -500,224 -500,500 0,276 224,500 500,500 276,0 500,-224 500,-500 0,-276 -224,-500 -500,-500zm0 350c-83,0 -150,67 -150,150 0,83 67,150 150,150 83,0 150,-67 150,-150 0,-83 -67,-150 -150,-150z"/>
</svg>