<?xml version="1.0" encoding="UTF-8"?>
<!DOCTYPE svg PUBLIC "-//W3C//DTD SVG 1.1//EN" "http://www.w3.org/Graphics/SVG/1.1/DTD/svg11.dtd">
<svg xmlns="http://www.w3.org/2000/svg" xml:space="preserve" width="580px" height="580px" shape-rendering="geometricPrecision" text-rendering="geometricPrecision" image-rendering="optimizeQuality" fill-rule="nonzero" clip-rule="nonzero" viewBox="0 0 5800 5800" xmlns:xlink="http://www.w3.org/1999/xlink">
	<title>box_closed icon</title>
	<desc>box_closed icon from the IconExperience.com I-Collection. Copyright by INCORS GmbH (www.incors.com).</desc>
		<path id="curve28"  d="M4900 4500c0,43 -27,79 -64,93l-1991 996c-30,15 -62,14 -90,0l-2000 -1000c-34,-17 -55,-52 -55,-89l0 -2200c0,-37 22,-73 55,-89l2000 -1000c30,-15 62,-14 90,0l2000 1000c32,16 53,49 55,85l0 2204zm-4000 -2039l0 1978 1800 900 0 -1978c-600,-300 -1200,-600 -1800,-900zm899 227l1731 -911 -730 -366 -1777 889 776 388zm1951 -802l-1732 912 782 391 1777 -889 -827 -414zm-850 1475l0 1978 1800 -900 0 -1978 -1800 900z"/>
</svg>