<?xml version="1.0" encoding="UTF-8"?>
<!DOCTYPE svg PUBLIC "-//W3C//DTD SVG 1.1//EN" "http://www.w3.org/Graphics/SVG/1.1/DTD/svg11.dtd">
<svg xmlns="http://www.w3.org/2000/svg" xml:space="preserve" width="580px" height="580px" shape-rendering="geometricPrecision" text-rendering="geometricPrecision" image-rendering="optimizeQuality" fill-rule="nonzero" clip-rule="nonzero" viewBox="0 0 5800 5800" xmlns:xlink="http://www.w3.org/1999/xlink">
	<title>box_closed icon</title>
	<desc>box_closed icon from the IconExperience.com I-Collection. Copyright by INCORS GmbH (www.incors.com).</desc>
		<path id="curve28"  d="M4900 2361l0 2139c0,43 -27,79 -64,93l-1936 968 0 -2200 2000 -1000zm-4100 -172l1955 -978c30,-15 62,-14 90,0l792 396 -1948 1026 -889 -444zm3057 -472l936 468 -1993 1004 -892 -446 1949 -1026zm-1157 1644l0 2200 -1945 -972c-34,-17 -55,-52 -55,-89l0 -2139c667,334 1333,667 2000,1000z"/>
</svg>