<?xml version="1.0" encoding="UTF-8"?>
<!DOCTYPE svg PUBLIC "-//W3C//DTD SVG 1.1//EN" "http://www.w3.org/Graphics/SVG/1.1/DTD/svg11.dtd">
<svg xmlns="http://www.w3.org/2000/svg" xml:space="preserve" width="580px" height="580px" shape-rendering="geometricPrecision" text-rendering="geometricPrecision" image-rendering="optimizeQuality" fill-rule="nonzero" clip-rule="nonzero" viewBox="0 0 5800 5800" xmlns:xlink="http://www.w3.org/1999/xlink">
	<title>boxing_glove icon</title>
	<desc>boxing_glove icon from the IconExperience.com I-Collection. Copyright by INCORS GmbH (www.incors.com).</desc>
	<path id="curve0"  d="M4576 2875c172,118 318,239 446,379 146,161 266,348 369,585 16,36 8,78 -17,106 -231,292 -445,536 -676,764 -232,229 -481,442 -779,670 -31,24 -72,27 -105,10 -237,-100 -425,-218 -587,-362 -143,-126 -265,-270 -385,-439 357,-180 704,-461 986,-739 278,-273 573,-619 748,-974zm-1060 -1279c48,-82 56,-184 14,-277 -26,-56 -46,-124 -64,-192 -38,-134 -74,-265 -156,-385 44,15 89,35 137,61 105,58 219,143 343,265 353,348 421,717 486,1072 37,198 73,391 161,565 -189,383 -445,703 -749,1002 -304,300 -621,544 -999,735 -249,-178 -477,-258 -701,-338 -327,-115 -647,-228 -1019,-608 -437,-446 -575,-863 -517,-1256 57,-388 307,-745 649,-1082 304,-299 609,-566 931,-677 338,-117 684,-65 1044,289 114,113 155,260 197,410 45,160 92,326 243,416z"/>
</svg>