<?xml version="1.0" encoding="UTF-8"?>
<!DOCTYPE svg PUBLIC "-//W3C//DTD SVG 1.1//EN" "http://www.w3.org/Graphics/SVG/1.1/DTD/svg11.dtd">
<svg xmlns="http://www.w3.org/2000/svg" xml:space="preserve" width="580px" height="580px" shape-rendering="geometricPrecision" text-rendering="geometricPrecision" image-rendering="optimizeQuality" fill-rule="nonzero" clip-rule="nonzero" viewBox="0 0 5800 5800" xmlns:xlink="http://www.w3.org/1999/xlink">
	<title>boxing_glove icon</title>
	<desc>boxing_glove icon from the IconExperience.com I-Collection. Copyright by INCORS GmbH (www.incors.com).</desc>
	<path id="curve0"  d="M2884 4339c559,-336 1103,-870 1445,-1425 -155,-231 -201,-481 -249,-738 -59,-324 -122,-662 -430,-966 -75,-75 -146,-133 -212,-178 -30,-101 -66,-198 -128,-290 44,15 89,35 137,61 105,58 219,143 343,265 353,348 421,717 486,1072 46,249 91,490 241,696 410,271 676,547 874,1003 16,36 8,78 -17,106 -231,292 -445,536 -676,764 -232,229 -481,442 -779,670 -31,24 -72,27 -105,10 -456,-193 -738,-456 -1013,-861 -294,-240 -556,-333 -813,-424 -327,-115 -647,-228 -1019,-608 -437,-446 -575,-863 -517,-1256 57,-388 307,-745 649,-1082 304,-299 609,-566 931,-677 338,-117 684,-65 1044,289 114,113 155,260 197,410 45,160 91,326 243,416 47,28 63,89 35,136 -28,48 -89,64 -137,35 -220,-130 -277,-335 -333,-534 -34,-124 -68,-245 -145,-320 -295,-292 -572,-336 -839,-244 -285,99 -570,349 -856,631 -313,309 -541,630 -591,969 -50,333 74,692 461,1087 340,347 639,453 943,560 262,93 528,187 830,423zm134 152c229,319 464,532 826,694 271,-210 500,-407 714,-618 215,-212 414,-437 626,-703 -166,-358 -384,-591 -705,-814 -354,562 -896,1093 -1461,1441z"/>
</svg>