<?xml version="1.0" encoding="UTF-8"?>
<!DOCTYPE svg PUBLIC "-//W3C//DTD SVG 1.1//EN" "http://www.w3.org/Graphics/SVG/1.1/DTD/svg11.dtd">
<svg xmlns="http://www.w3.org/2000/svg" xml:space="preserve" width="580px" height="580px" shape-rendering="geometricPrecision" text-rendering="geometricPrecision" image-rendering="optimizeQuality" fill-rule="nonzero" clip-rule="nonzero" viewBox="0 0 5800 5800" xmlns:xlink="http://www.w3.org/1999/xlink">
	<title>boy icon</title>
	<desc>boy icon from the IconExperience.com I-Collection. Copyright by INCORS GmbH (www.incors.com).</desc>
		<path id="curve28"  d="M1817 2655c19,64 57,120 128,156l36 18 14 40c49,150 126,299 229,419 85,99 188,178 307,217l69 23 0 72c0,284 -361,451 -637,578 -87,40 -164,76 -208,105 -129,86 -192,169 -223,261 -32,96 -32,214 -32,356 0,91 148,179 366,251 283,95 672,149 1034,149 362,0 751,-54 1034,-149 218,-72 366,-160 366,-251 0,-142 0,-260 -32,-356 -30,-92 -94,-175 -223,-261l0 0c-45,-30 -122,-65 -208,-105 -275,-127 -637,-294 -637,-578l0 -78 76 -19c347,-87 438,-360 529,-634l21 -43c80,-40 127,-74 153,-166 24,-85 21,-190 21,-279 63,-158 100,-317 100,-488 0,-121 -20,-231 -59,-317 -34,-77 -84,-134 -149,-160 -27,-10 -57,-16 -92,-16l-61 0 -28 -55c-99,-199 -430,-273 -628,-292 -291,-28 -624,18 -898,155 -44,22 -88,47 -130,75 -140,93 -255,263 -307,470 -54,218 -30,423 53,630 -5,89 -9,186 16,272zm-191 56c-28,-96 -31,-198 -27,-294 -94,-249 -99,-496 -45,-712 64,-256 211,-468 391,-588 47,-32 98,-61 151,-87 308,-155 681,-207 1006,-176 336,32 626,155 757,350 38,4 73,14 107,27 116,47 202,140 257,263 51,113 77,251 77,399 0,168 -33,352 -100,525 0,101 -2,201 -29,297 -29,101 -84,189 -189,253 -97,290 -204,573 -564,701 68,127 311,239 502,328 95,43 178,82 235,120l0 0c171,114 257,231 302,364 43,129 43,261 43,419 0,191 -204,340 -504,440 -304,102 -715,160 -1096,160 -381,0 -792,-58 -1096,-160 -300,-100 -504,-249 -504,-440 0,-158 0,-290 43,-419 44,-133 131,-250 302,-364 57,-38 141,-77 235,-120 195,-90 443,-205 505,-336 -121,-56 -225,-141 -313,-243 -111,-131 -196,-289 -254,-449 -105,-65 -162,-156 -192,-258z"/>
</svg>