<?xml version="1.0" encoding="UTF-8"?>
<!DOCTYPE svg PUBLIC "-//W3C//DTD SVG 1.1//EN" "http://www.w3.org/Graphics/SVG/1.1/DTD/svg11.dtd">
<svg xmlns="http://www.w3.org/2000/svg" xml:space="preserve" width="580px" height="580px" shape-rendering="geometricPrecision" text-rendering="geometricPrecision" image-rendering="optimizeQuality" fill-rule="nonzero" clip-rule="nonzero" viewBox="0 0 5800 5800" xmlns:xlink="http://www.w3.org/1999/xlink">
	<title>boy icon</title>
	<desc>boy icon from the IconExperience.com I-Collection. Copyright by INCORS GmbH (www.incors.com).</desc>
		<path id="curve28"  d="M1599 2417c-94,-249 -99,-496 -45,-712 64,-256 211,-468 391,-588 47,-32 98,-61 151,-87 308,-155 681,-207 1006,-176 336,32 626,155 757,350 38,4 73,14 107,27 116,47 202,140 257,263 51,113 77,251 77,399 0,168 -33,352 -100,525 0,215 -14,426 -218,550 -97,290 -204,573 -564,701 68,127 311,239 502,328 232,107 449,219 537,484 43,129 43,261 43,419 0,191 -204,340 -504,440 -304,102 -715,160 -1096,160 -381,0 -792,-58 -1096,-160 -300,-100 -504,-249 -504,-440 0,-158 0,-290 43,-419 87,-262 304,-377 537,-484 195,-90 443,-205 505,-336 -121,-56 -225,-141 -313,-243 -111,-131 -196,-289 -254,-449 -199,-122 -227,-338 -219,-552z"/>
</svg>