<?xml version="1.0" encoding="UTF-8"?>
<!DOCTYPE svg PUBLIC "-//W3C//DTD SVG 1.1//EN" "http://www.w3.org/Graphics/SVG/1.1/DTD/svg11.dtd">
<svg xmlns="http://www.w3.org/2000/svg" xml:space="preserve" width="580px" height="580px" shape-rendering="geometricPrecision" text-rendering="geometricPrecision" image-rendering="optimizeQuality" fill-rule="nonzero" clip-rule="nonzero" viewBox="0 0 5800 5800" xmlns:xlink="http://www.w3.org/1999/xlink">
	<title>brain icon</title>
	<desc>brain icon from the IconExperience.com I-Collection. Copyright by INCORS GmbH (www.incors.com).</desc>
		<path id="curve28"  d="M2904 501c57,-75 135,-133 221,-167 95,-37 201,-46 302,-15 25,8 49,18 73,30l0 451c0,55 45,100 100,100 55,0 100,-45 100,-100l0 -367c16,2 31,5 46,10 75,23 166,88 222,141 43,41 81,89 107,145l0 0c137,30 276,146 319,281 71,18 130,55 182,106l-233 497 -397 303 -326 163 -49 -50c-39,-39 -103,-39 -142,0 -39,39 -39,103 0,142l100 100c34,33 85,38 124,14l257 -129c-6,14 -10,28 -10,44l0 200c0,55 45,100 100,100 55,0 100,-45 100,-100l0 -200c0,-49 -35,-89 -81,-98 3,-2 42,-23 42,-23l422 -322c15,-12 26,-26 32,-42l195 -416c22,41 43,83 69,120 62,91 105,202 142,305 26,71 68,184 77,290l-453 303c-46,30 -59,93 -28,138 30,46 93,59 138,28l400 -266c126,136 109,343 94,512 -3,38 -3,94 -13,130 -1,3 -10,29 -10,30 44,51 59,125 59,191 0,158 -7,315 -46,470 -19,74 -43,155 -96,213l-154 -308c-25,-49 -84,-69 -134,-44 -49,25 -69,84 -44,134l278 555 -535 0 -154 -230 0 -170c0,-55 -45,-100 -100,-100 -55,0 -100,45 -100,100l0 200c0,21 7,41 18,57l95 143 -490 0 -178 -89c-50,-25 -109,-5 -134,44 -25,50 -5,109 44,134l164 82 86 260c18,52 74,81 126,64 52,-18 81,-74 64,-126l-57 -169 1021 0c-14,13 -26,23 -42,33 -9,200 -210,426 -399,486 -22,53 -55,102 -94,147 -118,135 -288,217 -468,220l-167 -331c-25,-49 -84,-69 -134,-44 -49,25 -69,84 -44,134l198 395c-27,19 -55,36 -85,52 -108,59 -286,113 -446,107 -97,-4 -189,-29 -261,-85 22,-46 40,-86 53,-113 57,-122 85,-258 87,-395 0,-40 -1,-81 -5,-121l193 -96c49,-25 69,-84 44,-134 -25,-49 -84,-69 -134,-44l-143 72c-9,-29 -19,-58 -30,-86 -35,-88 -88,-159 -165,-214 31,-23 62,-51 87,-81 24,-30 45,-64 62,-102 52,-116 58,-262 55,-400l379 0c307,0 324,-220 340,-425 7,-90 13,-175 60,-175l377 0 178 89c50,25 109,5 134,-44 25,-50 5,-109 -44,-134l-145 -72 0 -139c0,-55 -45,-100 -100,-100 -55,0 -100,45 -100,100l0 100c-200,0 -400,0 -600,0 -55,0 -100,45 -100,100 0,55 45,100 100,100l59 0c-10,49 -14,104 -19,160 -8,116 -18,240 -140,240l-386 0c-1,-35 -1,-69 -1,-104 1,-36 -14,-69 -35,-114 -30,-65 -78,-167 -78,-282 0,-125 27,-221 56,-300l344 0c55,0 100,-45 100,-100 0,-55 -45,-100 -100,-100l-273 0c5,-24 8,-47 8,-72 -2,-129 -22,-216 -42,-299 -11,-51 -23,-100 -28,-155 50,-137 24,-257 0,-370 -19,-92 -38,-178 13,-242 10,-12 19,-25 28,-38l239 159c17,12 36,17 55,17l400 0c28,0 54,-12 72,-30l99 -99c39,-39 39,-103 0,-142 -39,-39 -103,-39 -142,0l-70 71 -329 0 -251 -168c5,-35 7,-71 6,-107 -3,-136 -50,-275 -112,-396 -17,-31 -40,-76 -69,-128zm-1134 3628c39,39 40,102 1,141 -66,66 -147,99 -218,115 -69,15 -125,15 -153,15l-383 0c0,12 1,24 3,36 10,53 40,100 73,142 41,52 91,103 137,149 123,120 267,256 405,354 65,46 146,84 230,104 30,8 61,13 93,16l371 -372c39,-39 103,-39 142,0 39,39 39,103 0,142l-327 326c68,149 253,204 404,207 36,1 71,-1 106,-6 59,-117 108,-224 135,-281 45,-96 67,-205 69,-313 1,-115 -20,-230 -61,-333 -20,-49 -51,-94 -95,-126l-63 -45 -288 5c-36,0 -68,-3 -95,-8l-173 258c-30,46 -93,59 -138,28 -46,-30 -59,-93 -28,-138l186 -280c-6,-22 -9,-48 -10,-74 -1,-88 38,-188 76,-287 30,-77 60,-154 60,-200 0,-2 -7,-4 -29,-4l-639 0 -72 145c-25,49 -84,69 -134,44 -49,-25 -69,-84 -44,-134l89 -178 0 -177c0,-55 45,-100 100,-100 55,0 100,45 100,100l0 100 600 0c171,0 229,81 229,204 0,82 -37,176 -74,272 -31,81 -63,163 -63,212 0,11 15,18 57,17l239 -3 113 -81c18,-14 34,-29 49,-46 14,-17 25,-36 34,-56 48,-106 40,-279 34,-423 -1,-31 -3,-61 -3,-95 -1,-36 -2,-72 -1,-108 0,-10 -8,-6 -18,-28 -37,-80 -96,-207 -96,-365l-400 0c-45,0 -127,-26 -217,-56 -63,-20 -132,-43 -183,-55l0 111c0,55 -45,100 -100,100 -55,0 -100,-45 -100,-100l0 -200c0,-86 52,-121 138,-121 73,0 197,40 307,75 74,24 140,46 155,46l400 0c7,0 13,1 19,2 20,-99 51,-177 78,-244 21,-54 39,-98 39,-127 -2,-106 -20,-183 -37,-258 -15,-64 -30,-127 -35,-207 -1,-18 2,-34 9,-49 36,-88 16,-182 -3,-271 -3,-16 -7,-31 -10,-46l-436 0c-26,0 -51,-2 -76,-7l-177 178c-39,39 -103,39 -142,0 -39,-39 -39,-103 0,-142l130 -129c-6,-6 -12,-11 -18,-17l-112 -112c-39,-39 -39,-103 0,-142 39,-39 103,-39 142,0l112 112c40,41 84,59 141,59l424 0c8,-54 30,-107 74,-162 48,-61 66,-133 64,-208 -2,-103 -40,-212 -91,-310 -65,-127 -137,-254 -219,-372 -32,-6 -65,-8 -98,-8 -71,1 -176,18 -255,63 -25,14 -48,31 -67,51l327 491c31,45 18,108 -28,138 -45,31 -108,18 -138,-28l-311 -465c-95,-2 -172,30 -252,80 -93,58 -181,139 -237,196 -51,52 -116,127 -168,210l241 482c23,48 29,152 36,267 8,127 -69,275 -26,275l600 0c26,0 51,10 71,29l100 100c39,39 39,103 0,142 -39,39 -103,39 -142,0l-70 -71 -518 0 -170 171c-39,39 -103,39 -142,0 -39,-39 -39,-103 0,-142l146 -145c-32,-93 -41,-226 -48,-347 -6,-97 -11,-183 -16,-192l-152 -305c0,4 -86,42 -105,55 -182,126 -294,496 -359,714 -21,72 -43,143 -66,215 -49,156 -45,371 20,521l410 -136c13,-6 27,-9 41,-9 55,0 100,45 100,100l0 200c0,55 -45,100 -100,100 -55,0 -100,-45 -100,-100l0 -62 -458 153c0,26 0,52 -1,79 -4,128 -9,288 61,398 27,42 65,76 107,104 -58,94 -68,206 -43,312 19,78 56,154 106,216l528 0c22,0 66,0 110,-10 104,-23 175,-146 260,-61z"/>
</svg>