<?xml version="1.0" encoding="UTF-8"?>
<!DOCTYPE svg PUBLIC "-//W3C//DTD SVG 1.1//EN" "http://www.w3.org/Graphics/SVG/1.1/DTD/svg11.dtd">
<svg xmlns="http://www.w3.org/2000/svg" xml:space="preserve" width="580px" height="580px" shape-rendering="geometricPrecision" text-rendering="geometricPrecision" image-rendering="optimizeQuality" fill-rule="nonzero" clip-rule="nonzero" viewBox="0 0 5800 5800" xmlns:xlink="http://www.w3.org/1999/xlink">
	<title>brain icon</title>
	<desc>brain icon from the IconExperience.com I-Collection. Copyright by INCORS GmbH (www.incors.com).</desc>
		<path id="curve28" d="M3838 4300l57 169c17,52 -12,108 -64,126 -52,17 -108,-12 -126,-64l-86 -260 -164 -82c-49,-25 -69,-84 -44,-134 25,-49 84,-69 134,-44l178 89 490 0 -95 -143c-11,-16 -18,-36 -18,-57l0 -200c0,-55 45,-100 100,-100 55,0 100,45 100,100l0 170 154 230 321 0c57,-67 118,-170 81,-261 -18,-45 -27,-57 -45,-94l-100 -200c-25,-50 -5,-109 44,-134 50,-25 109,-5 134,44l44 89c25,-82 38,-163 45,-248 6,-71 7,-144 7,-216 0,-17 -1,-35 -5,-49 -2,-6 -4,-11 -6,-13l-40 -48 -40 -46 24 -57c35,-81 24,-58 32,-154 11,-131 25,-291 -43,-363l0 0c-6,-7 -15,-14 -23,-19l-229 152c-45,31 -108,18 -138,-28 -31,-45 -18,-108 28,-138l224 -150 28 -77c28,-76 -74,-337 -119,-437 -21,-49 -43,-88 -72,-133l-91 195c-6,16 -17,30 -32,42l-422 322c0,0 -39,21 -42,23 46,9 81,49 81,98l0 200c0,55 -45,100 -100,100 -55,0 -100,-45 -100,-100l0 -200c0,-16 4,-30 10,-44l-257 129c-39,24 -90,19 -124,-14l-100 -100c-39,-39 -39,-103 0,-142 39,-39 103,-39 142,0l49 50 326 -163 397 -303 141 -300c-79,-108 -128,-107 -246,-138l-34 -104c-22,-68 -101,-131 -171,-146l-98 -21c-30,-67 -48,-122 -104,-175 -33,-31 -89,-73 -131,-91l0 162c0,55 -45,100 -100,100 -55,0 -100,-45 -100,-100l0 -172c-43,-59 -55,-95 -131,-118 -55,-17 -116,-12 -172,10 -57,23 -108,62 -143,113 -19,28 -26,75 -47,68 44,103 76,214 78,324 1,36 -1,72 -6,107l251 168 329 0 70 -71c39,-39 103,-39 142,0 39,39 39,103 0,142l-99 99c-18,18 -44,30 -72,30l-400 0c-19,0 -38,-5 -55,-17l-239 -159c-9,13 -18,26 -28,38 -51,64 -32,150 -13,242 24,113 50,233 0,370 5,55 17,104 28,155 20,83 40,170 42,299 0,25 -3,48 -8,72l273 0c55,0 100,45 100,100 0,55 -45,100 -100,100l-344 0c-29,79 -56,175 -56,300 0,115 48,217 78,282 21,45 36,78 35,114 0,34 0,67 1,101l386 3c122,0 132,-124 140,-240 5,-56 9,-111 19,-160l-59 0c-55,0 -100,-45 -100,-100 0,-55 45,-100 100,-100 200,0 400,0 600,0l0 -100c0,-55 45,-100 100,-100 55,0 100,45 100,100l0 139 145 72c49,25 69,84 44,134 -25,49 -84,69 -134,44l-178 -89 -377 0c-47,0 -53,85 -60,175 -16,205 -33,425 -340,425l-379 0c3,138 -3,284 -55,400 -17,38 -38,72 -62,102 -25,30 -54,56 -87,80l0 1 0 0c38,27 71,59 97,94 28,36 51,77 68,120 11,28 21,57 30,86l143 -72c50,-25 109,-5 134,44 25,50 5,109 -44,134l-193 96c14,144 0,293 -47,430 2,3 4,6 6,10 34,51 100,72 174,74 123,5 260,-37 345,-83 30,-16 62,-36 89,-58 -33,-46 -80,-157 -108,-213 -25,-50 -5,-109 44,-134 50,-25 109,-5 134,44l64 128c82,4 136,10 217,-15 171,-53 235,-156 299,-310 152,-49 238,-91 317,-237 25,-46 30,-71 33,-121l-781 0zm-1746 -3702c6,-91 59,-154 131,-195 72,-42 173,-63 256,-63 157,0 308,58 415,175 57,-82 139,-145 231,-181 95,-37 201,-46 302,-15 40,12 79,31 116,56 13,9 26,19 37,30 10,10 20,23 30,36 47,-16 93,-12 136,2 125,38 276,170 329,286 72,17 140,53 196,102 53,47 101,111 123,179 73,19 134,57 187,110 101,101 124,191 198,299 31,46 58,99 82,153 71,160 174,432 126,579 6,10 60,62 66,62 128,137 111,345 96,516 -4,50 -3,114 -23,159 23,27 37,58 46,91 10,36 13,71 13,101 0,76 -2,153 -8,232 -2,20 -38,238 -38,238 -19,74 -44,157 -98,214 39,97 31,194 -3,284 -37,96 -130,225 -221,285 -9,203 -213,427 -399,486 -67,160 -215,282 -382,336 -75,25 -135,31 -212,31 0,41 -50,104 -81,128 -38,30 -76,55 -119,78 -108,59 -286,113 -446,107 -106,-4 -207,-34 -281,-102 -92,80 -229,110 -349,107 -249,-4 -377,-99 -444,-310 -157,32 -340,-22 -469,-113 -103,-73 -198,-161 -289,-245 -39,-36 -78,-72 -116,-109 -32,-32 -64,-65 -95,-100 -48,-46 -103,-127 -115,-191 -6,-33 -4,-68 9,-102l0 -1 0 0c-133,-78 -227,-195 -263,-349 -24,-106 -16,-218 43,-312l0 0 0 -1c-42,-27 -80,-61 -107,-103 -70,-110 -65,-270 -61,-398 1,-20 1,-39 1,-71 0,-94 43,-178 113,-238l1 -1 -1 0c-35,-75 -54,-168 -58,-261 -5,-96 7,-194 32,-275 23,-72 45,-143 66,-215 65,-218 177,-588 359,-714 32,-22 67,-39 105,-49 -2,-79 27,-160 69,-236 55,-96 131,-184 189,-244 56,-57 144,-138 237,-196 73,-46 152,-78 228,-80 38,-1 72,1 110,8zm609 3523c36,-27 65,-61 83,-102 48,-106 40,-279 34,-423 -2,-50 -4,-99 -4,-149 -1,-66 4,-34 -18,-82 -37,-80 -96,-207 -96,-365l-400 0c-45,0 -127,-26 -217,-56 -63,-20 -132,-43 -183,-55l0 111c0,55 -45,100 -100,100 -55,0 -100,-45 -100,-100l0 -200c0,-86 52,-121 138,-121 73,0 197,40 307,75 74,24 140,46 155,46l400 0c7,0 13,1 19,2 20,-99 51,-177 78,-244 21,-54 39,-98 39,-127 -2,-106 -20,-183 -37,-258 -15,-64 -30,-127 -35,-207 -1,-18 2,-34 9,-49 36,-88 16,-182 -3,-271 -3,-16 -7,-31 -10,-46l-436 0c-26,0 -51,-2 -76,-7l-177 178c-39,39 -103,39 -142,0 -39,-39 -39,-103 0,-142l130 -129c-6,-6 -12,-11 -18,-17l-112 -112c-39,-39 -39,-103 0,-142 39,-39 103,-39 142,0l112 112c40,41 84,59 141,59l424 0c8,-54 30,-107 74,-162 48,-61 66,-133 64,-208 -2,-103 -40,-212 -91,-310 -62,-120 -183,-181 -316,-181 -37,0 -185,21 -188,72l-3 41 195 293c31,45 18,108 -28,138 -45,31 -108,18 -138,-28l-161 -240c-55,-11 -113,-28 -169,-26 -35,1 -81,22 -128,51 -77,48 -152,116 -199,165 -50,51 -115,126 -158,203 -22,39 -39,78 -43,112 12,9 23,21 30,35l100 200c24,48 30,153 37,270 8,127 -69,275 -26,275l600 0c26,0 51,10 71,29l100 100c39,39 39,103 0,142 -39,39 -103,39 -142,0l-70 -71 -518 0 -170 171c-39,39 -103,39 -142,0 -39,-39 -39,-103 0,-142l146 -145c-32,-93 -41,-226 -48,-347 -6,-97 -11,-183 -16,-192l-59 -117c-33,8 -56,11 -85,31 -124,86 -223,414 -280,607 -22,73 -45,146 -68,219 -18,58 -27,132 -23,206 3,66 14,130 43,191l220 -73c66,-30 141,18 141,91l0 200c0,55 -45,100 -100,100 -55,0 -100,-45 -100,-100l0 -62c-43,15 -162,62 -201,62 -19,16 -36,30 -47,53 -6,14 -10,29 -10,46 0,13 -1,44 -2,77 -3,101 -7,226 30,284 24,37 93,74 129,98 46,30 59,91 30,137l-1 1 -50 81c-28,45 -31,103 -17,161 34,145 120,194 235,262l4 0 200 0c22,0 66,0 110,-10 41,-9 85,-26 119,-60 39,-39 102,-40 141,-1 39,39 40,102 1,141 -66,66 -147,99 -218,115 -69,15 -125,15 -153,15l-183 0 0 2c7,29 48,68 67,93 27,30 56,60 86,90 36,35 74,71 112,105 86,80 175,163 268,228 83,59 213,102 314,81l88 -18c10,-2 19,-3 28,-2l149 -150c39,-39 103,-39 142,0 39,39 39,103 0,142l-173 172c41,121 90,159 253,162 69,1 205,-17 238,-88 92,-198 88,-445 8,-646 -20,-49 -51,-94 -95,-126l-63 -45 -288 5c-36,0 -68,-3 -95,-8l-173 258c-30,46 -93,59 -138,28 -46,-30 -59,-93 -28,-138l186 -280c-6,-22 -9,-48 -10,-74 -1,-88 38,-188 76,-287 30,-77 60,-154 60,-200 0,-2 -7,-4 -29,-4l-639 0 -72 145c-25,49 -84,69 -134,44 -49,-25 -69,-84 -44,-134l89 -178 0 -177c0,-55 45,-100 100,-100 55,0 100,45 100,100l0 100 600 0c171,0 229,81 229,204 0,82 -37,176 -74,272 -31,81 -63,163 -63,212 0,11 15,18 57,17l239 -3 113 -81z"/>
</svg>