<?xml version="1.0" encoding="UTF-8"?>
<!DOCTYPE svg PUBLIC "-//W3C//DTD SVG 1.1//EN" "http://www.w3.org/Graphics/SVG/1.1/DTD/svg11.dtd">
<svg xmlns="http://www.w3.org/2000/svg" xml:space="preserve" width="580px" height="580px" shape-rendering="geometricPrecision" text-rendering="geometricPrecision" image-rendering="optimizeQuality" fill-rule="nonzero" clip-rule="nonzero" viewBox="0 0 5800 5800" xmlns:xlink="http://www.w3.org/1999/xlink">
	<title>breakpoints_selection icon</title>
	<desc>breakpoints_selection icon from the IconExperience.com I-Collection. Copyright by INCORS GmbH (www.incors.com).</desc>
	<path id="curve0"  d="M700 1100l0 -400 400 0 0 200 -200 0 0 200 -200 0zm1300 0l2400 0c165,0 300,135 300,300l0 2400c0,83 -34,158 -88,212 -54,54 -129,88 -212,88l-101 0 1 -2100c0,-275 -225,-500 -500,-500l-2100 0 0 -100c0,-266 300,-320 300,-300zm-600 600l2400 0c165,0 300,135 300,300l0 2400c0,165 -135,300 -300,300l-2400 0c-165,0 -300,-135 -300,-300l0 -2400c0,-165 135,-300 300,-300zm100 -1000l400 0 0 200 -400 0 0 -200zm800 0l400 0 0 200 -400 0 0 -200zm800 0l400 0 0 200 -400 0 0 -200zm800 0l400 0 0 200 -400 0 0 -200zm800 0l400 0 0 400 -200 0 0 -200 -200 0 0 -200zm400 800l0 400 -200 0 0 -400 200 0zm0 800l0 400 -200 0 0 -400 200 0zm0 800l0 400 -200 0 0 -400 200 0zm0 800l0 400 -200 0 0 -400 200 0zm0 800l0 400 -400 0 0 -200 200 0 0 -200 200 0zm-800 400l-400 0 0 -200 400 0 0 200zm-800 0l-400 0 0 -200 400 0 0 200zm-800 0l-400 0 0 -200 400 0 0 200zm-800 0l-400 0 0 -200 400 0 0 200zm-800 0l-400 0 0 -400 200 0 0 200 200 0 0 200zm-400 -800l0 -400 200 0 0 400 -200 0zm0 -800l0 -400 200 0 0 400 -200 0zm0 -800l0 -400 200 0 0 400 -200 0zm0 -800l0 -400 200 0 0 400 -200 0z"/>
</svg>