<?xml version="1.0" encoding="UTF-8"?>
<!DOCTYPE svg PUBLIC "-//W3C//DTD SVG 1.1//EN" "http://www.w3.org/Graphics/SVG/1.1/DTD/svg11.dtd">
<svg xmlns="http://www.w3.org/2000/svg" xml:space="preserve" width="580px" height="580px" shape-rendering="geometricPrecision" text-rendering="geometricPrecision" image-rendering="optimizeQuality" fill-rule="nonzero" clip-rule="nonzero" viewBox="0 0 5800 5800" xmlns:xlink="http://www.w3.org/1999/xlink">
	<title>breakfast_egg icon</title>
	<desc>breakfast_egg icon from the IconExperience.com I-Collection. Copyright by INCORS GmbH (www.incors.com).</desc>
	<path id="curve0"  d="M4600 300c513,0 800,541 800,1000 0,360 -164,758 -500,927l0 773c0,41 39,89 78,137 61,76 122,152 122,263l0 1600c0,275 -225,500 -500,500 -275,0 -500,-225 -500,-500l0 -1600c0,-111 61,-187 122,-262 39,-49 78,-97 78,-138l0 -773c-336,-169 -500,-567 -500,-927 0,-459 287,-1000 800,-1000zm-2700 0c364,0 690,261 935,618 285,414 465,964 465,1373 0,36 -1,73 -4,109l-201 0c3,-36 5,-73 5,-109 0,-374 -166,-878 -429,-1260 -211,-307 -482,-531 -771,-531 -289,0 -560,224 -771,531 -263,382 -429,886 -429,1260 0,36 2,73 5,109 -66,0 -135,-2 -201,0 -3,-36 -4,-73 -4,-109 0,-409 180,-959 465,-1373 245,-357 571,-618 935,-618zm1400 2400c0,747 -533,1438 -1300,1496l0 1104 1000 0 0 200 -2200 0 0 -200 1000 0 0 -1104c-767,-58 -1300,-749 -1300,-1496 0,-55 45,-100 100,-100l2600 0c55,0 100,45 100,100zm-203 100l-2393 0c44,637 533,1200 1196,1200 663,0 1152,-563 1197,-1200zm1503 -2300c-396,0 -600,456 -600,800 0,296 137,652 432,768 39,13 68,50 68,95l0 837c0,111 -61,187 -122,263 -39,48 -78,96 -78,137l0 1600c0,165 135,300 300,300 165,0 300,-135 300,-300l0 -1600c0,-41 -39,-89 -78,-137 -61,-76 -122,-152 -122,-263l0 -837c0,-41 25,-79 64,-94 297,-113 436,-472 436,-769 0,-344 -204,-800 -600,-800z"/>
</svg>