<?xml version="1.0" encoding="UTF-8"?>
<!DOCTYPE svg PUBLIC "-//W3C//DTD SVG 1.1//EN" "http://www.w3.org/Graphics/SVG/1.1/DTD/svg11.dtd">
<svg xmlns="http://www.w3.org/2000/svg" xml:space="preserve" width="580px" height="580px" shape-rendering="geometricPrecision" text-rendering="geometricPrecision" image-rendering="optimizeQuality" fill-rule="nonzero" clip-rule="nonzero" viewBox="0 0 5800 5800" xmlns:xlink="http://www.w3.org/1999/xlink">
	<title>breakfast_egg icon</title>
	<desc>breakfast_egg icon from the IconExperience.com I-Collection. Copyright by INCORS GmbH (www.incors.com).</desc>
	<path id="curve0"  d="M4600 300c226,0 429,116 574,302 276,355 298,899 74,1285 -87,151 -208,270 -348,340l0 773c0,41 39,89 78,137 61,76 122,152 122,263l0 1600c0,275 -225,500 -500,500 -275,0 -500,-225 -500,-500l0 -1600c0,-111 61,-187 122,-262 39,-49 78,-97 78,-138l0 -773c-140,-70 -261,-189 -348,-340 -224,-386 -202,-930 74,-1285 145,-186 348,-302 574,-302zm-2700 0c364,0 690,261 935,618 285,414 465,964 465,1373 0,36 -1,73 -4,109l-2792 0c-3,-36 -4,-73 -4,-109 0,-409 180,-959 465,-1373 245,-357 571,-618 935,-618zm1400 2400c0,747 -533,1438 -1300,1496l0 1104 1000 0 0 200 -2200 0 0 -200 1000 0 0 -1104c-767,-58 -1300,-749 -1300,-1496 0,-55 45,-100 100,-100l2600 0c55,0 100,45 100,100z"/>
</svg>