<?xml version="1.0" encoding="utf-8"?>
<!-- Generator: Adobe Illustrator 21.0.2, SVG Export Plug-In . SVG Version: 6.00 Build 0)  -->
<svg version="1.1" id="Ebene_1" xmlns="http://www.w3.org/2000/svg" xmlns:xlink="http://www.w3.org/1999/xlink" x="0px" y="0px"
	 width="580px" height="580px" viewBox="0 0 580 580" style="enable-background:new 0 0 580 580;" xml:space="preserve">
<g>
	<circle cx="473" cy="490" r="70"/>
	<circle cx="108" cy="90" r="70"/>
	<path d="M112.5,290c0,38.7,31.3,70,70,70s70-31.3,70-70s-31.3-70-70-70S112.5,251.3,112.5,290z M182.5,240c27.6,0,50,22.4,50,50
		s-22.4,50-50,50s-50-22.4-50-50S154.9,240,182.5,240z"/>
	<path d="M383.4,481.5H134c-47.4,0-86-36.1-86-80.4v-20.7c0-31,18.9-58,46.5-71.4c-1.3-6.1-2-12.5-2-19c0-0.7,0-1.3,0-2
		C54.6,303.3,28,339,28,380.4v20.7c0,55.4,47.6,100.4,106,100.4h249.7c-0.5-3.8-0.7-7.6-0.7-11.5C383,487.1,383.1,484.3,383.4,481.5
		z"/>
	<path d="M308.1,300c-0.4-3.3-0.6-6.6-0.6-10c0-3.4,0.2-6.7,0.6-10l-36.1,0c0.4,3.3,0.6,6.6,0.6,10s-0.2,6.7-0.6,10H308.1z"/>
	<path d="M446,78.5H197.3c0.5,3.8,0.7,7.6,0.7,11.5c0,2.9-0.1,5.7-0.4,8.5H446c47.4,0,86,36.1,86,80.4v20.7c0,31-18.9,58-46.5,71.4
		c1.3,6.1,2,12.5,2,19c0,0.7,0,1.3,0,2c37.9-15.3,64.5-51,64.5-92.4v-20.7C552,123.5,504.4,78.5,446,78.5z"/>
	<path d="M467.5,290c0-38.7-31.3-70-70-70s-70,31.3-70,70s31.3,70,70,70S467.5,328.7,467.5,290z M397.5,340c-27.6,0-50-22.4-50-50
		s22.4-50,50-50s50,22.4,50,50S425.1,340,397.5,340z"/>
</g>
</svg>
