<?xml version="1.0" encoding="UTF-8"?>
<!DOCTYPE svg PUBLIC "-//W3C//DTD SVG 1.1//EN" "http://www.w3.org/Graphics/SVG/1.1/DTD/svg11.dtd">
<svg xmlns="http://www.w3.org/2000/svg" xml:space="preserve" width="580px" height="580px" shape-rendering="geometricPrecision" text-rendering="geometricPrecision" image-rendering="optimizeQuality" fill-rule="nonzero" clip-rule="nonzero" viewBox="0 0 5800 5800" xmlns:xlink="http://www.w3.org/1999/xlink">
	<title>breakpoint_selection icon</title>
	<desc>breakpoint_selection icon from the IconExperience.com I-Collection. Copyright by INCORS GmbH (www.incors.com).</desc>
	<path id="curve0"  d="M4200 1300c165,0 300,135 300,300l0 2600c0,165 -135,300 -300,300l-2600 0c-165,0 -300,-135 -300,-300l0 -2600c0,-165 135,-300 300,-300l2600 0zm-3500 -200l0 -400 400 0 0 200 -200 0 0 200c-67,0 -133,0 -200,0zm800 -400l400 0 0 200 -400 0c0,-67 0,-133 0,-200zm800 0l400 0 0 200 -400 0c0,-67 0,-133 0,-200zm800 0l400 0 0 200 -400 0c0,-67 0,-133 0,-200zm800 0l400 0 0 200 -400 0c0,-67 0,-133 0,-200zm800 0l400 0 0 400 -200 0 0 -200 -200 0 0 -200zm400 800l0 400 -200 0 0 -400c67,0 133,0 200,0zm0 800l0 400 -200 0 0 -400c67,0 133,0 200,0zm0 800l0 400 -200 0 0 -400c67,0 133,0 200,0zm0 800l0 400 -200 0 0 -400c67,0 133,0 200,0zm0 800l0 400 -400 0 0 -200 200 0 0 -200c67,0 133,0 200,0zm-800 400l-400 0 0 -200 400 0c0,67 0,133 0,200zm-800 0l-400 0 0 -200 400 0c0,67 0,133 0,200zm-800 0l-400 0 0 -200 400 0c0,67 0,133 0,200zm-800 0l-400 0 0 -200 400 0c0,67 0,133 0,200zm-800 0l-400 0 0 -400 200 0 0 200 200 0c0,67 0,133 0,200zm-400 -800l0 -400 200 0 0 400c-67,0 -133,0 -200,0zm0 -800l0 -400 200 0 0 400c-67,0 -133,0 -200,0zm0 -800l0 -400 200 0 0 400c-67,0 -133,0 -200,0zm0 -800l0 -400 200 0 0 400c-67,0 -133,0 -200,0z"/>
</svg>