<?xml version="1.0" encoding="UTF-8"?>
<!DOCTYPE svg PUBLIC "-//W3C//DTD SVG 1.1//EN" "http://www.w3.org/Graphics/SVG/1.1/DTD/svg11.dtd">
<svg xmlns="http://www.w3.org/2000/svg" xml:space="preserve" width="580px" height="580px" shape-rendering="geometricPrecision" text-rendering="geometricPrecision" image-rendering="optimizeQuality" fill-rule="nonzero" clip-rule="nonzero" viewBox="0 0 5800 5800" xmlns:xlink="http://www.w3.org/1999/xlink">
	<title>breakpoints icon</title>
	<desc>breakpoints icon from the IconExperience.com I-Collection. Copyright by INCORS GmbH (www.incors.com).</desc>
	<path id="curve0"  d="M1000 1300l3200 0c165,0 300,135 300,300l0 3200c0,165 -135,300 -300,300l-3200 0c-165,0 -300,-135 -300,-300l0 -3200c0,-165 135,-300 300,-300zm600 -600l3200 0c165,0 300,135 300,300l0 3200c0,165 -135,300 -300,300l-100 0 0 -200 100 0c55,0 100,-45 100,-100l0 -3200c0,-55 -45,-100 -100,-100l-3200 0c-55,0 -100,45 -100,100l0 100 -200 0 0 -100c0,-165 135,-300 300,-300zm2600 800l-3200 0c-55,0 -100,45 -100,100l0 3200c0,55 45,100 100,100l3200 0c55,0 100,-45 100,-100l0 -3200c0,-55 -45,-100 -100,-100z"/>
</svg>