<?xml version="1.0" encoding="UTF-8"?>
<!DOCTYPE svg PUBLIC "-//W3C//DTD SVG 1.1//EN" "http://www.w3.org/Graphics/SVG/1.1/DTD/svg11.dtd">
<svg xmlns="http://www.w3.org/2000/svg" xml:space="preserve" width="580px" height="580px" shape-rendering="geometricPrecision" text-rendering="geometricPrecision" image-rendering="optimizeQuality" fill-rule="nonzero" clip-rule="nonzero" viewBox="0 0 5800 5800" xmlns:xlink="http://www.w3.org/1999/xlink">
	<title>brick_trowel icon</title>
	<desc>brick_trowel icon from the IconExperience.com I-Collection. Copyright by INCORS GmbH (www.incors.com).</desc>
	<path id="curve0"  d="M1862 1573l1155 -1156c156,-155 410,-155 566,0 155,156 155,410 0,566l-1156 1155c-39,39 -102,39 -141,0l-138 -138c-63,75 -94,167 -94,258 0,222 179,401 400,401 296,-1 332,-296 712,-297 332,-1 601,268 601,600 0,153 -58,307 -176,424l-800 800c-39,39 -102,39 -141,0 -39,-39 -39,-103 0,-142l800 -800c78,-78 117,-180 117,-282 0,-222 -180,-401 -401,-401 -295,1 -331,296 -712,297 -332,1 -600,-268 -600,-600 0,-143 50,-286 152,-399l-144 -145c-39,-39 -39,-102 0,-141zm141 1374l1045 416 -153 153 -896 -357 -1398 2114 4451 -897 -1550 -618 153 -153 1782 710c51,21 76,79 56,130 -13,33 -42,55 -75,61l-5013 1010c-54,10 -106,-25 -117,-79 -5,-26 1,-53 15,-74l1575 -2381c27,-42 81,-56 125,-35zm1156 -2388l-1085 1084 283 283 1084 -1085c78,-77 78,-205 0,-282 -77,-78 -205,-78 -282,0z"/>
</svg>