<?xml version="1.0" encoding="UTF-8"?>
<!DOCTYPE svg PUBLIC "-//W3C//DTD SVG 1.1//EN" "http://www.w3.org/Graphics/SVG/1.1/DTD/svg11.dtd">
<svg xmlns="http://www.w3.org/2000/svg" xml:space="preserve" width="580px" height="580px" shape-rendering="geometricPrecision" text-rendering="geometricPrecision" image-rendering="optimizeQuality" fill-rule="nonzero" clip-rule="nonzero" viewBox="0 0 5800 5800" xmlns:xlink="http://www.w3.org/1999/xlink">
	<title>brickwall icon</title>
	<desc>brickwall icon from the IconExperience.com I-Collection. Copyright by INCORS GmbH (www.incors.com).</desc>
		<path id="curve28" d="M4300 4300l0 -800c-600,0 -1200,0 -1800,0l0 800c600,0 1200,0 1800,0zm1200 -3000c0,1400 0,2800 0,4200 -1733,0 -3467,0 -5200,0 0,-1400 0,-2800 0,-4200 1733,0 3467,0 5200,0zm-200 200l-800 0 0 800 800 0 0 -800zm-4800 1000l0 800 800 0 0 -800 -800 0zm0 1000l0 800c600,0 1200,0 1800,0l0 -800c-600,0 -1200,0 -1800,0zm0 1000l0 800 800 0 0 -800 -800 0zm4800 -200l0 -800 -800 0 0 800 800 0zm-3000 -2800l-1800 0 0 800 1800 0 0 -800zm2000 0l-1800 0 0 800 1800 0 0 -800zm-800 1000l0 800c600,0 1200,0 1800,0l0 -800 -1800 0zm-200 0l-1800 0 0 800c600,0 1200,0 1800,0l0 -800zm0 2800l0 -800c-600,0 -1200,0 -1800,0l0 800 1800 0zm200 -800l0 800 1800 0 0 -800c-600,0 -1200,0 -1800,0z"/>
</svg>