<?xml version="1.0" encoding="UTF-8"?>
<!DOCTYPE svg PUBLIC "-//W3C//DTD SVG 1.1//EN" "http://www.w3.org/Graphics/SVG/1.1/DTD/svg11.dtd">
<svg xmlns="http://www.w3.org/2000/svg" xml:space="preserve" width="580px" height="580px" shape-rendering="geometricPrecision" text-rendering="geometricPrecision" image-rendering="optimizeQuality" fill-rule="nonzero" clip-rule="nonzero" viewBox="0 0 5800 5800" xmlns:xlink="http://www.w3.org/1999/xlink">
	<title>brick_trowel icon</title>
	<desc>brick_trowel icon from the IconExperience.com I-Collection. Copyright by INCORS GmbH (www.incors.com).</desc>
	<path id="curve0"  d="M1862 1573l1155 -1156c156,-155 410,-155 566,0 155,156 155,410 0,566l-1156 1155c-39,39 -102,39 -141,0l-138 -138c-134,158 -123,395 23,541 157,158 412,154 569,-2 234,-232 617,-236 851,-2 233,233 233,616 0,849l-800 800c-39,39 -102,39 -141,0 -39,-39 -39,-103 0,-142l800 -800c155,-155 155,-410 0,-565 -157,-158 -412,-154 -569,2 -234,232 -617,236 -852,2 -223,-224 -234,-589 -23,-824l-144 -145c-39,-39 -39,-102 0,-141zm-1559 3790l1575 -2381c27,-42 81,-56 125,-35l1045 416 -539 540c-118,117 -118,307 0,424 117,117 307,117 424,0l722 -722 1782 710c93,37 78,173 -19,191l-5013 1010c-54,10 -106,-25 -117,-79 -5,-26 1,-53 15,-74z"/>
</svg>