<?xml version="1.0" encoding="UTF-8"?>
<!DOCTYPE svg PUBLIC "-//W3C//DTD SVG 1.1//EN" "http://www.w3.org/Graphics/SVG/1.1/DTD/svg11.dtd">
<svg xmlns="http://www.w3.org/2000/svg" xml:space="preserve" width="580px" height="580px" shape-rendering="geometricPrecision" text-rendering="geometricPrecision" image-rendering="optimizeQuality" fill-rule="nonzero" clip-rule="nonzero" viewBox="0 0 5800 5800" xmlns:xlink="http://www.w3.org/1999/xlink">
	<title>brickwall icon</title>
	<desc>brickwall icon from the IconExperience.com I-Collection. Copyright by INCORS GmbH (www.incors.com).</desc>
		<path id="curve28"  d="M5500 1300l0 4200 -5200 0 0 -4200 5200 0zm-200 2000c-600,0 -1200,0 -1800,0l0 -800 1800 0 0 -200 -800 0 0 -800 -200 0 0 800 -1800 0 0 -800 -200 0 0 800 -1800 0 0 200 800 0 0 800 -800 0 0 200c600,0 1200,0 1800,0l0 800c-600,0 -1200,0 -1800,0l0 200 800 0 0 800 200 0 0 -800c600,0 1200,0 1800,0l0 800 200 0 0 -800c600,0 1200,0 1800,0l0 -200 -800 0 0 -800 800 0 0 -200zm-2800 200c600,0 1200,0 1800,0l0 800c-600,0 -1200,0 -1800,0l0 -800zm800 -1000l-1800 0 0 800c600,0 1200,0 1800,0l0 -800z"/>
</svg>