<?xml version="1.0" encoding="UTF-8"?>
<!DOCTYPE svg PUBLIC "-//W3C//DTD SVG 1.1//EN" "http://www.w3.org/Graphics/SVG/1.1/DTD/svg11.dtd">
<svg xmlns="http://www.w3.org/2000/svg" xml:space="preserve" width="580px" height="580px" shape-rendering="geometricPrecision" text-rendering="geometricPrecision" image-rendering="optimizeQuality" fill-rule="nonzero" clip-rule="nonzero" viewBox="0 0 5800 5800" xmlns:xlink="http://www.w3.org/1999/xlink">
	<title>bridge icon</title>
	<desc>bridge icon from the IconExperience.com I-Collection. Copyright by INCORS GmbH (www.incors.com).</desc>
	<path id="curve0"  d="M5200 2756l0 644 300 0 0 200 -1000 0 0 784c-57,52 -125,87 -200,104l0 -888 -2800 0 0 887c-75,-17 -144,-54 -200,-106l0 -781 -1000 0 0 -200 300 0 0 -644c-95,47 -195,86 -300,114l0 -208c595,-186 1000,-738 1000,-1362l0 -400 200 0 0 400c0,773 627,1400 1400,1400 773,0 1400,-627 1400,-1400l0 -400 200 0 0 400c0,624 405,1176 1000,1362l0 208c-105,-28 -205,-67 -300,-114zm-200 644l0 -763c-207,-144 -379,-334 -500,-555l0 1318 500 0zm-4200 0l500 0 0 -1318c-121,221 -293,411 -500,555l0 763zm3500 -1325c-121,219 -293,407 -500,548l0 777 500 0 0 -1325zm-700 664c-183,89 -386,145 -600,158l0 503 600 0 0 -661zm-800 158c-214,-13 -417,-69 -600,-158l0 661 600 0 0 -503zm-800 -274c-207,-141 -379,-329 -500,-548l0 1325 500 0 0 -777zm-1697 2076c235,0 449,-126 563,-332l87 -157 87 157c114,205 328,332 562,332 234,0 446,-124 561,-328l87 -156 87 156c114,205 328,332 563,332 235,0 451,-128 564,-334l87 -159 88 158c113,205 327,331 562,331 234,0 448,-126 562,-332l87 -157 88 157c113,206 327,332 562,332l0 200c-252,0 -490,-113 -650,-307 -160,194 -397,307 -649,307 -252,0 -489,-113 -649,-306 -160,196 -399,310 -652,310 -253,0 -490,-113 -651,-308 -160,192 -396,304 -647,304 -251,0 -489,-113 -649,-307 -160,194 -398,307 -650,307l0 -200z"/>
</svg>