<?xml version="1.0" encoding="UTF-8"?>
<!DOCTYPE svg PUBLIC "-//W3C//DTD SVG 1.1//EN" "http://www.w3.org/Graphics/SVG/1.1/DTD/svg11.dtd">
<svg xmlns="http://www.w3.org/2000/svg" xml:space="preserve" width="580px" height="580px" shape-rendering="geometricPrecision" text-rendering="geometricPrecision" image-rendering="optimizeQuality" fill-rule="nonzero" clip-rule="nonzero" viewBox="0 0 5800 5800" xmlns:xlink="http://www.w3.org/1999/xlink">
	<title>briefcase_document icon</title>
	<desc>briefcase_document icon from the IconExperience.com I-Collection. Copyright by INCORS GmbH (www.incors.com).</desc>
		<path id="curve29"  d="M4900 1994l0 -594c0,-55 -45,-100 -100,-100l-4200 0c-55,0 -100,45 -100,100l0 1200c0,83 34,158 88,212 54,54 129,88 212,88l200 0 0 200 -200 0c-138,0 -263,-56 -353,-147 -91,-90 -147,-215 -147,-353l0 -1200c0,-165 135,-300 300,-300l1100 0 0 -500c0,-165 135,-300 300,-300l1400 0c165,0 300,135 300,300l0 500 1100 0c165,0 300,135 300,300l0 794 -200 -200zm-2400 2906l-1900 0c-165,0 -300,-135 -300,-300l0 -1510c59,59 125,106 200,142l0 1368c0,55 45,100 100,100l1900 0 0 200zm-1300 -2200l600 0c55,0 100,45 100,100l0 800c0,55 -45,100 -100,100l-600 0c-55,0 -100,-45 -100,-100l0 -800c0,-55 45,-100 100,-100zm500 200l-400 0 0 600 400 0 0 -600zm200 -1800l1600 0 0 -500c0,-56 -43,-100 -100,-100l-1400 0c-55,0 -100,45 -100,100l0 500zm600 2000l-500 0 0 -200 500 0 0 200z"/>
	<path id="curve28"  d="M4420 1901c75,5 142,37 192,87 78,78 799,801 800,800 51,51 84,121 88,198l0 2514 -2800 0 0 -3600 1720 1zm280 458l0 341 341 0 -341 -341zm600 641l0 -1 0 0 0 0 0 -1 0 -1 0 0 0 0 0 -1 0 0 0 -1 0 0c-2,-30 -14,-49 -34,-70 -17,-15 -40,-25 -66,-25l-700 0 0 -700c0,-52 -41,-96 -93,-100l-1507 0 0 3200 2400 0 0 -2300z"/>
</svg>