<?xml version="1.0" encoding="UTF-8"?>
<!DOCTYPE svg PUBLIC "-//W3C//DTD SVG 1.1//EN" "http://www.w3.org/Graphics/SVG/1.1/DTD/svg11.dtd">
<svg xmlns="http://www.w3.org/2000/svg" xml:space="preserve" width="580px" height="580px" shape-rendering="geometricPrecision" text-rendering="geometricPrecision" image-rendering="optimizeQuality" fill-rule="nonzero" clip-rule="nonzero" viewBox="0 0 5800 5800" xmlns:xlink="http://www.w3.org/1999/xlink">
	<title>briefcase2_document icon</title>
	<desc>briefcase2_document icon from the IconExperience.com I-Collection. Copyright by INCORS GmbH (www.incors.com).</desc>
	<path id="curve0"  d="M4621 1998l783 782c30,28 54,62 71,100 4,11 8,22 12,33 -28,-9 -57,-13 -87,-13l-900 0 0 -900c0,-30 -5,-59 -13,-87 52,16 97,45 134,85zm879 3502l-2800 0 0 -3600 1500 0c55,0 100,45 100,100l0 1100 1100 0c27,0 52,11 71,29 18,19 29,44 29,71l0 2300zm-3000 -600l-1900 0c-165,0 -300,-135 -300,-300l5 -1705c127,126 302,205 495,205l1300 0 0 100c0,165 135,300 300,300l100 0c0,467 0,933 0,1400zm900 -4200l-1000 0c-55,0 -100,45 -100,100l0 2400c0,55 45,100 100,100l100 0c0,-533 0,-1067 0,-1600l1000 0 0 -900c0,-55 -45,-100 -100,-100zm-1300 2200l-1300 0c-275,0 -500,-225 -500,-500l0 -1400c25,-184 96,-300 300,-300l1517 0c-11,31 -17,65 -17,100l0 2100zm1583 -2200l1517 0c164,0 300,136 300,300l0 1400c0,58 -10,114 -28,165l-705 -705c-95,-102 -227,-160 -367,-160l-700 0 0 -900c0,-35 -6,-69 -17,-100z"/>
</svg>