<?xml version="1.0" encoding="UTF-8"?>
<!DOCTYPE svg PUBLIC "-//W3C//DTD SVG 1.1//EN" "http://www.w3.org/Graphics/SVG/1.1/DTD/svg11.dtd">
<svg xmlns="http://www.w3.org/2000/svg" xml:space="preserve" width="580px" height="580px" shape-rendering="geometricPrecision" text-rendering="geometricPrecision" image-rendering="optimizeQuality" fill-rule="nonzero" clip-rule="nonzero" viewBox="0 0 5800 5800" xmlns:xlink="http://www.w3.org/1999/xlink">
	<title>briefcase icon</title>
	<desc>briefcase icon from the IconExperience.com I-Collection. Copyright by INCORS GmbH (www.incors.com).</desc>
		<path id="curve28"  d="M5300 4800c0,165 -135,300 -300,300l-4200 0c-165,0 -300,-135 -300,-300l1 -1510c127,129 304,210 499,210l300 0 0 300c0,55 45,100 100,100l600 0c55,0 100,-45 100,-100l0 -300 1600 0 0 300c0,55 45,100 100,100l600 0c55,0 100,-45 100,-100l0 -300 300 0c193,0 368,-79 495,-205 10,-11 5,1265 5,1505zm-3400 -3700l0 -500c0,-55 45,-100 100,-100l1800 0c55,0 100,45 100,100l0 500 -200 0 0 -400 -1600 0 0 400 -200 0zm2600 2200l0 -300c0,-55 -45,-100 -100,-100l-600 0c-55,0 -100,45 -100,100l0 300 -1600 0 0 -300c0,-55 -45,-100 -100,-100l-600 0c-55,0 -100,45 -100,100l0 300 -300 0c-275,0 -500,-225 -500,-500l0 -1200c0,-165 135,-300 300,-300l4200 0c165,0 300,135 300,300l0 1200c0,275 -225,500 -500,500l-300 0zm-200 -200l-400 0c0,200 0,400 0,600l400 0c0,-200 0,-400 0,-600zm-2400 0l-400 0c0,200 0,400 0,600l400 0c0,-200 0,-400 0,-600z"/>
</svg>