<?xml version="1.0" encoding="UTF-8"?>
<!DOCTYPE svg PUBLIC "-//W3C//DTD SVG 1.1//EN" "http://www.w3.org/Graphics/SVG/1.1/DTD/svg11.dtd">
<svg xmlns="http://www.w3.org/2000/svg" xml:space="preserve" width="580px" height="580px" shape-rendering="geometricPrecision" text-rendering="geometricPrecision" image-rendering="optimizeQuality" fill-rule="nonzero" clip-rule="nonzero" viewBox="0 0 5800 5800" xmlns:xlink="http://www.w3.org/1999/xlink">
	<title>briefcase2 icon</title>
	<desc>briefcase2 icon from the IconExperience.com I-Collection. Copyright by INCORS GmbH (www.incors.com).</desc>
		<path id="curve28" d="M2600 2900l600 0c55,0 100,45 100,100l0 300 100 0c55,0 100,-45 100,-100l0 -2400c0,-55 -45,-100 -100,-100l-1000 0c-55,0 -100,45 -100,100l0 2400c0,55 45,100 100,100l100 0 0 -300c0,-55 45,-100 100,-100zm700 600l0 300c0,55 -45,100 -100,100l-600 0c-55,0 -100,-45 -100,-100l0 -300 -100 0c-165,0 -300,-135 -300,-300l0 -300 -1300 0c-275,0 -500,-225 -500,-500l0 -1400c0,-165 135,-300 300,-300l1517 0c43,-119 156,-200 283,-200l1000 0c127,0 240,81 283,200l1517 0c165,0 300,135 300,300l0 1400c0,275 -225,500 -500,500l-1300 0 0 300c0,165 -135,300 -300,300l-100 0zm400 -2600l0 1800 1300 0c165,0 300,-135 300,-300l0 -1400c0,-55 -45,-100 -100,-100l-1500 0zm-1600 1800l0 -1800 -1500 0c-55,0 -100,45 -100,100l0 1400c0,165 135,300 300,300l1300 0zm3400 190l0 1710c0,165 -135,300 -300,300l-4600 0c-165,0 -300,-135 -300,-300l0 -1710c59,59 125,106 200,142l0 1568c0,55 45,100 100,100l4600 0c55,0 100,-45 100,-100l0 -1568c75,-36 141,-83 200,-142zm-2400 210l-400 0 0 600 400 0 0 -600z"/>
</svg>