<?xml version="1.0" encoding="UTF-8"?>
<!DOCTYPE svg PUBLIC "-//W3C//DTD SVG 1.1//EN" "http://www.w3.org/Graphics/SVG/1.1/DTD/svg11.dtd">
<svg xmlns="http://www.w3.org/2000/svg" xml:space="preserve" width="580px" height="580px" shape-rendering="geometricPrecision" text-rendering="geometricPrecision" image-rendering="optimizeQuality" fill-rule="nonzero" clip-rule="nonzero" viewBox="0 0 5800 5800" xmlns:xlink="http://www.w3.org/1999/xlink">
	<title>briefcase_document icon</title>
	<desc>briefcase_document icon from the IconExperience.com I-Collection. Copyright by INCORS GmbH (www.incors.com).</desc>
		<path id="curve29"  d="M2500 4900l-1900 0c-165,0 -300,-135 -300,-300l0 -1510 5 5c127,126 302,205 495,205l300 0 0 300c0,55 45,100 100,100l600 0c55,0 100,-45 100,-100l0 -300 600 0 0 1600zm-800 -3800l0 -500c0,-165 135,-300 300,-300l1400 0c165,0 300,135 300,300l0 500 1100 0c165,0 300,135 300,300l0 794 -333 -334c-95,-102 -227,-160 -367,-160l-1900 0 0 1400 -600 0 0 -300c0,-55 -45,-100 -100,-100l-600 0c-55,0 -100,45 -100,100l0 300 -300 0c-275,0 -500,-225 -500,-500l0 -1200c0,-165 135,-300 300,-300l1100 0zm1800 0l0 -500c0,-48 -47,-100 -100,-100l-1400 0c-55,0 -100,45 -100,100l0 500 1600 0zm-1800 1800l-400 0 0 600 400 0 0 -600z"/>
	<path id="curve28"  d="M4523 1927c37,16 70,41 98,71l783 782c30,28 54,62 71,100 4,11 8,22 12,33 -28,-9 -57,-13 -87,-13l-900 0 0 -900c0,-30 -5,-59 -13,-87 12,4 24,8 36,14zm977 3573l-2800 0 0 -3600 1500 0c55,0 100,45 100,100l0 1100 1100 0c27,0 52,11 71,29 18,19 29,44 29,71l0 2300z"/>
</svg>