<?xml version="1.0" encoding="UTF-8"?>
<!DOCTYPE svg PUBLIC "-//W3C//DTD SVG 1.1//EN" "http://www.w3.org/Graphics/SVG/1.1/DTD/svg11.dtd">
<svg xmlns="http://www.w3.org/2000/svg" xml:space="preserve" width="580px" height="580px" shape-rendering="geometricPrecision" text-rendering="geometricPrecision" image-rendering="optimizeQuality" fill-rule="nonzero" clip-rule="nonzero" viewBox="0 0 5800 5800" xmlns:xlink="http://www.w3.org/1999/xlink">
	<title>briefcase icon</title>
	<desc>briefcase icon from the IconExperience.com I-Collection. Copyright by INCORS GmbH (www.incors.com).</desc>
		<path id="curve28" d="M1900 1100l0 -500c0,-55 45,-100 100,-100l1800 0c55,0 100,45 100,100l0 500 -200 0 0 -400 -1600 0 0 400 -200 0zm1900 1800l600 0c55,0 100,45 100,100l0 800c0,55 -45,100 -100,100l-600 0c-55,0 -100,-45 -100,-100l0 -800c0,-55 45,-100 100,-100zm500 200l-400 0 0 600 400 0 0 -600zm-2900 -200l600 0c55,0 100,45 100,100l0 800c0,55 -45,100 -100,100l-600 0c-55,0 -100,-45 -100,-100l0 -800c0,-55 45,-100 100,-100zm500 200l-400 0 0 600 400 0 0 -600zm2700 0l200 0c83,0 158,-34 212,-88 54,-54 88,-129 88,-212l0 -1200c0,-28 -11,-53 -29,-71l0 0c-18,-18 -43,-29 -71,-29l-4200 0c-28,0 -53,11 -71,29l0 0c-18,18 -29,43 -29,71l0 1200c0,83 34,158 88,212 54,54 129,88 212,88l200 0 0 200 -200 0c-138,0 -263,-56 -353,-147 -91,-90 -147,-215 -147,-353l0 -1200c0,-82 34,-157 88,-212l0 0c55,-54 130,-88 212,-88l4200 0c82,0 157,34 212,88l0 0c54,55 88,130 88,212l0 1200c0,138 -56,263 -147,353 -90,91 -215,147 -353,147l-200 0 0 -200zm-1000 200l-1400 0 0 -200 1400 0 0 200zm1700 -11l0 1511c0,83 -34,158 -88,212 -54,54 -129,88 -212,88l-4200 0c-82,0 -157,-34 -212,-88l0 0 0 0 0 -1c-55,-54 -88,-129 -88,-211l0 -1511 5 6c57,56 122,103 195,137l0 1368c0,28 11,53 29,71l0 0c18,18 43,29 71,29l4200 0c27,0 52,-11 71,-29 18,-19 29,-44 29,-71l0 -1368c73,-34 138,-81 195,-137l5 -6z"/>
</svg>