<?xml version="1.0" encoding="UTF-8"?>
<!DOCTYPE svg PUBLIC "-//W3C//DTD SVG 1.1//EN" "http://www.w3.org/Graphics/SVG/1.1/DTD/svg11.dtd">
<svg xmlns="http://www.w3.org/2000/svg" xml:space="preserve" width="580px" height="580px" shape-rendering="geometricPrecision" text-rendering="geometricPrecision" image-rendering="optimizeQuality" fill-rule="nonzero" clip-rule="nonzero" viewBox="0 0 5800 5800" xmlns:xlink="http://www.w3.org/1999/xlink">
	<title>briefcase2 icon</title>
	<desc>briefcase2 icon from the IconExperience.com I-Collection. Copyright by INCORS GmbH (www.incors.com).</desc>
		<path id="curve28"  d="M5500 4600c0,165 -135,300 -300,300l-4600 0c-165,0 -300,-135 -300,-300l5 -1705c127,126 302,205 495,205l1300 0 0 100c0,165 135,300 300,300l100 0 0 300c0,55 45,100 100,100l600 0c55,0 100,-45 100,-100l0 -300 100 0c165,0 300,-135 300,-300l0 -100 1300 0c193,0 368,-79 495,-205l5 1705zm-2400 -1500l-400 0 0 600 400 0 0 -600zm300 -2400l-1000 0c-55,0 -100,45 -100,100l0 2400c0,55 45,100 100,100l100 0 0 -300c0,-55 45,-100 100,-100l600 0c55,0 100,45 100,100l0 300 100 0c55,0 100,-45 100,-100l0 -2400c0,-55 -45,-100 -100,-100zm-1300 2200l-1300 0c-275,0 -500,-225 -500,-500l0 -1400c25,-184 96,-300 300,-300l1517 0c-11,31 -17,65 -17,100l0 2100zm1583 -2200l1517 0c164,0 300,136 300,300l0 1400c0,275 -225,500 -500,500l-1300 0 0 -2100c0,-35 -6,-69 -17,-100z"/>
</svg>