<?xml version="1.0" encoding="UTF-8"?>
<!DOCTYPE svg PUBLIC "-//W3C//DTD SVG 1.1//EN" "http://www.w3.org/Graphics/SVG/1.1/DTD/svg11.dtd">
<svg xmlns="http://www.w3.org/2000/svg" xml:space="preserve" width="580px" height="580px" shape-rendering="geometricPrecision" text-rendering="geometricPrecision" image-rendering="optimizeQuality" fill-rule="nonzero" clip-rule="nonzero" viewBox="0 0 5800 5800" xmlns:xlink="http://www.w3.org/1999/xlink">
	<title>briefcase2_document icon</title>
	<desc>briefcase2_document icon from the IconExperience.com I-Collection. Copyright by INCORS GmbH (www.incors.com).</desc>
	<path id="curve0" d="M4400 1900c87,0 168,37 225,102l779 778c62,58 96,135 96,220l0 2500 -2800 0 0 -3600 1700 0zm-900 -200l0 -900c0,-55 -45,-100 -100,-100l-1000 0c-55,0 -100,45 -100,100l0 2400c0,55 45,100 100,100l100 0 0 200 -100 0c-165,0 -300,-135 -300,-300l0 -300 -1300 0c-275,0 -500,-225 -500,-500l0 -1400c0,-165 135,-300 300,-300l1517 0c43,-119 156,-200 283,-200l1000 0c127,0 240,81 283,200l1517 0c165,0 300,135 300,300l0 1400c0,58 -10,114 -28,165l-172 -172 0 -1393c0,-55 -45,-100 -100,-100l-1500 0 0 800 -200 0zm-1400 1000l0 -1800 -1500 0c-55,0 -100,45 -100,100l0 1400c0,165 135,300 300,300l1300 0zm400 2200l-1900 0c-165,0 -300,-135 -300,-300l0 -1710c59,59 125,106 200,142l0 1568c0,55 45,100 100,100l1900 0 0 200zm2200 -2541l0 341 341 0 -341 -341zm600 641c-1,-55 -44,-100 -100,-100l-700 0 0 -700c0,-56 -45,-99 -100,-100l-1500 0 0 3200 2400 0 0 -2300z"/>
</svg>