<?xml version="1.0" encoding="UTF-8"?>
<!DOCTYPE svg PUBLIC "-//W3C//DTD SVG 1.1//EN" "http://www.w3.org/Graphics/SVG/1.1/DTD/svg11.dtd">
<svg xmlns="http://www.w3.org/2000/svg" xml:space="preserve" width="580px" height="580px" shape-rendering="geometricPrecision" text-rendering="geometricPrecision" image-rendering="optimizeQuality" fill-rule="nonzero" clip-rule="nonzero" viewBox="0 0 5800 5800" xmlns:xlink="http://www.w3.org/1999/xlink">
	<title>brush icon</title>
	<desc>brush icon from the IconExperience.com I-Collection. Copyright by INCORS GmbH (www.incors.com).</desc>
		<path id="curve28"  d="M2196 3855c145,159 208,330 208,493 0,201 -95,382 -242,515 -160,144 -386,237 -634,237l-1169 0c79,-79 156,-158 238,-234 104,-97 257,-238 308,-396 15,-46 27,-95 39,-145 46,-195 91,-363 245,-503 119,-107 284,-183 457,-195 177,-12 362,42 517,193 10,10 21,22 33,35zm-95 -547c134,56 254,138 356,240 101,100 186,221 247,348l-181 85c-52,-109 -121,-206 -206,-291 -84,-83 -184,-153 -292,-198l76 -184zm3288 -2732l35 35c90,90 101,231 26,335 -311,431 -683,920 -1098,1416 -340,404 -708,814 -1096,1202 -75,76 -163,147 -248,213 -48,43 -123,30 -154,-27 -28,-52 -59,-103 -95,-153 -84,-118 -183,-224 -299,-312 -48,-36 -205,-124 -223,-137 -44,-34 -53,-96 -20,-140 66,-86 143,-188 219,-264 388,-388 798,-756 1202,-1096 496,-415 985,-787 1416,-1098 104,-75 245,-64 335,26z"/>
</svg>