<?xml version="1.0" encoding="UTF-8"?>
<!DOCTYPE svg PUBLIC "-//W3C//DTD SVG 1.1//EN" "http://www.w3.org/Graphics/SVG/1.1/DTD/svg11.dtd">
<svg xmlns="http://www.w3.org/2000/svg" xml:space="preserve" width="580px" height="580px" shape-rendering="geometricPrecision" text-rendering="geometricPrecision" image-rendering="optimizeQuality" fill-rule="nonzero" clip-rule="nonzero" viewBox="0 0 5800 5800" xmlns:xlink="http://www.w3.org/1999/xlink">
	<title>bucket icon</title>
	<desc>bucket icon from the IconExperience.com I-Collection. Copyright by INCORS GmbH (www.incors.com).</desc>
		<path id="curve28" d="M3171 1429l1800 1800c39,39 39,103 0,142 -39,39 -103,39 -142,0l-1800 -1800c-39,18 -83,29 -129,29 -166,0 -300,-134 -300,-300 0,-165 135,-300 300,-300 165,0 300,135 300,300 0,46 -10,90 -29,129zm-271 -229c-56,0 -100,44 -100,100 0,55 45,100 100,100 55,0 100,-45 100,-100 0,-56 -44,-100 -100,-100zm2100 -700c64,0 111,59 98,120l-307 2147 -176 -176 270 -1891 -3970 0 572 4000 2826 0 196 -1367 176 176 -185 1297 0 594c0,55 -45,100 -100,100l-3000 0c-55,0 -100,-45 -100,-100l0 -594 -599 -4192c-8,-60 38,-114 99,-114l4200 0zm-700 4400l-2800 0 0 400 2800 0 0 -400z"/>
</svg>