<?xml version="1.0" encoding="UTF-8"?>
<!DOCTYPE svg PUBLIC "-//W3C//DTD SVG 1.1//EN" "http://www.w3.org/Graphics/SVG/1.1/DTD/svg11.dtd">
<svg xmlns="http://www.w3.org/2000/svg" xml:space="preserve" width="580px" height="580px" shape-rendering="geometricPrecision" text-rendering="geometricPrecision" image-rendering="optimizeQuality" fill-rule="nonzero" clip-rule="nonzero" viewBox="0 0 5800 5800" xmlns:xlink="http://www.w3.org/1999/xlink">
	<title>bug icon</title>
	<desc>bug icon from the IconExperience.com I-Collection. Copyright by INCORS GmbH (www.incors.com).</desc>
		<path id="curve28" d="M3000 2438l0 2523c403,-139 760,-300 1020,-540 280,-259 451,-616 451,-1150 0,-255 -48,-529 -126,-779 -67,-213 -155,-407 -252,-554 -28,27 -57,54 -85,79 -60,54 -124,105 -192,147 -266,166 -540,256 -816,274zm-200 2523l0 -2524c-278,-18 -554,-111 -820,-277 -67,-42 -130,-92 -190,-145 -29,-25 -56,-51 -83,-77 -97,147 -185,341 -252,554 -78,250 -126,524 -126,779 0,534 171,891 451,1150 260,240 617,401 1020,540zm1399 -3218c30,39 59,82 88,129l320 -320 95 -568c9,-55 60,-91 114,-82 55,9 91,60 82,114l-99 594c-2,22 -11,44 -28,61l-384 384c56,115 106,243 148,378 27,87 51,176 71,267 33,2 83,16 117,23l397 79c28,6 51,22 65,45l295 393c33,44 24,107 -20,140 -44,33 -107,24 -140,-20l-277 -369 -399 -80c18,121 27,243 27,360 0,217 -25,408 -73,578l362 271c18,14 30,32 35,51l200 598c17,52 -12,108 -64,126 -52,17 -108,-12 -126,-64l-190 -570 -287 -216c-89,207 -216,378 -373,523 -314,289 -743,470 -1224,627 -21,7 -42,6 -62,0 -481,-157 -910,-338 -1224,-627 -157,-145 -284,-316 -373,-523l-287 216 -190 570c-18,52 -74,81 -126,64 -52,-18 -81,-74 -64,-126l200 -598c5,-19 17,-37 35,-51l362 -271c-48,-170 -73,-361 -73,-578 0,-117 9,-239 27,-360l-399 80 -277 369c-33,44 -96,53 -140,20 -44,-33 -53,-96 -20,-140l295 -393c14,-23 37,-39 65,-45l443 -89c22,-4 49,-11 71,-13 20,-91 44,-181 71,-267 42,-135 92,-263 148,-378l-384 -384c-17,-17 -26,-39 -28,-61l-99 -594c-9,-54 27,-105 82,-114 54,-9 105,27 114,82l95 568 320 320c29,-47 58,-90 88,-129 14,-302 139,-599 375,-815 53,-49 102,-87 163,-125 199,-126 453,-203 761,-203 308,0 562,77 761,203 58,37 113,78 163,125 236,216 361,513 375,815zm-2398 8c40,40 81,79 121,115 52,46 106,89 163,124 267,167 541,251 814,251 272,1 546,-81 811,-246 57,-36 112,-80 165,-127 44,-39 84,-78 124,-117 -8,-166 -56,-331 -143,-474 -20,26 -45,47 -74,64 -95,54 -213,45 -313,12 -99,-32 -189,-91 -254,-160 -77,-82 -136,-197 -108,-311 6,-23 15,-45 27,-64 -73,-12 -151,-18 -234,-18 -83,0 -161,6 -234,18 23,37 34,80 34,123 0,87 -44,176 -115,252 -65,69 -155,128 -254,160 -100,33 -218,42 -313,-12 -29,-17 -54,-38 -74,-64 -87,143 -135,308 -143,474zm1633 -844c-34,-8 -134,-20 -134,34 0,34 23,75 61,115 43,46 103,85 170,107 66,22 204,43 160,-64 -6,-15 -16,-32 -28,-48 -34,-28 -70,-55 -108,-79 -28,-18 -57,-34 -87,-49 -11,-6 -23,-11 -34,-16zm-1068 0l-17 8c-36,17 -71,36 -104,57 -38,24 -74,51 -108,79 -12,16 -22,33 -28,48 -9,22 -18,55 7,69 40,22 112,9 153,-5 67,-22 127,-61 170,-107 38,-40 61,-81 61,-115 0,-38 -48,-41 -76,-41 -19,0 -38,2 -58,7z"/>
</svg>