<?xml version="1.0" encoding="UTF-8"?>
<!DOCTYPE svg PUBLIC "-//W3C//DTD SVG 1.1//EN" "http://www.w3.org/Graphics/SVG/1.1/DTD/svg11.dtd">
<svg xmlns="http://www.w3.org/2000/svg" xml:space="preserve" width="580px" height="580px" shape-rendering="geometricPrecision" text-rendering="geometricPrecision" image-rendering="optimizeQuality" fill-rule="nonzero" clip-rule="nonzero" viewBox="0 0 5800 5800" xmlns:xlink="http://www.w3.org/1999/xlink">
	<title>bug2 icon</title>
	<desc>bug2 icon from the IconExperience.com I-Collection. Copyright by INCORS GmbH (www.incors.com).</desc>
		<path id="curve28"  d="M3420 1255c96,63 180,142 247,234l324 -162 286 -666c9,-21 25,-39 47,-50l400 -200c49,-25 109,-5 134,44 24,50 4,109 -45,134l-367 184 -286 666c-10,25 -30,43 -52,53l-341 170c61,136 89,289 80,438l422 0c33,0 62,16 80,41l682 779 382 191c49,25 69,84 45,134 -25,49 -85,69 -134,44l-396 -198c-13,-6 -25,-14 -34,-25l-670 -766 -318 0c251,262 308,768 319,1118l299 199c23,15 38,39 43,65l196 979 389 584c30,45 18,108 -28,138 -46,31 -108,18 -139,-28l-399 -599 -16 -36 -191 -960 -153 -101c-15,403 -130,765 -354,1026 -220,258 -542,415 -972,415 -430,0 -752,-157 -972,-415 -227,-265 -343,-635 -355,-1047l-183 122 -192 960c-3,13 -8,26 -15,36l-400 599c-30,46 -93,59 -138,28 -46,-30 -59,-93 -28,-138l389 -584 196 -979c4,-26 19,-50 43,-65l300 -200c10,-7 21,-12 32,-14 20,-339 100,-834 325,-1103l-357 0 -670 766c-10,11 -22,19 -35,25l-395 198c-50,25 -109,5 -134,-44 -25,-50 -5,-109 44,-134l383 -191 681 -779c19,-25 48,-41 81,-41l453 0c-9,-144 18,-293 75,-425l-367 -183c-23,-10 -42,-28 -53,-53l-285 -666 -368 -184c-49,-25 -69,-84 -44,-134 25,-49 84,-69 134,-44l400 200c22,11 38,29 47,50l285 666 348 174c68,-97 155,-181 255,-246 -57,-127 -41,-263 32,-381 4,-5 7,-10 11,-15l-247 -62c-18,-5 -34,-14 -47,-26l-200 -200c-39,-39 -39,-103 0,-142 39,-39 103,-39 142,0l180 181 342 85c93,-59 203,-95 307,-95 104,0 214,36 307,95l342 -85 180 -181c39,-39 103,-39 142,0 39,39 39,103 0,142l-200 200c0,0 -43,25 -47,26l-247 62c4,5 7,10 11,15 73,118 89,254 32,381z"/>
</svg>