<?xml version="1.0" encoding="UTF-8"?>
<!DOCTYPE svg PUBLIC "-//W3C//DTD SVG 1.1//EN" "http://www.w3.org/Graphics/SVG/1.1/DTD/svg11.dtd">
<svg xmlns="http://www.w3.org/2000/svg" xml:space="preserve" width="580px" height="580px" shape-rendering="geometricPrecision" text-rendering="geometricPrecision" image-rendering="optimizeQuality" fill-rule="nonzero" clip-rule="nonzero" viewBox="0 0 5800 5800" xmlns:xlink="http://www.w3.org/1999/xlink">
	<title>bug2 icon</title>
	<desc>bug2 icon from the IconExperience.com I-Collection. Copyright by INCORS GmbH (www.incors.com).</desc>
		<path id="curve28" d="M3202 1232c-32,45 -22,107 23,139 1,1 13,8 13,8 124,63 228,159 300,277 70,114 110,248 110,392 0,72 -12,137 -26,210 -9,46 9,90 52,111 151,83 239,287 289,512 54,240 65,505 65,684 0,726 -334,1335 -1128,1335 -794,0 -1128,-609 -1128,-1335 0,-200 29,-525 115,-800 57,-180 137,-336 248,-411 35,-24 51,-67 41,-107 -7,-35 -13,-68 -17,-100 -5,-31 -7,-63 -7,-99 0,-144 40,-278 110,-392 72,-118 176,-214 300,-277 49,-25 69,-85 44,-134 0,-1 -8,-13 -8,-13 -31,-43 -53,-81 -53,-135 0,-92 69,-173 140,-223 66,-46 143,-74 215,-74 72,0 149,28 215,74 71,50 140,131 140,223 0,54 -23,93 -53,135zm1023 2185c-5,-172 -22,-381 -67,-580 -47,-208 -125,-404 -252,-537l318 0 670 766c9,11 21,19 34,25l396 198c49,25 109,5 134,-44 24,-50 4,-109 -45,-134l-382 -191 -682 -779c-18,-25 -47,-41 -80,-41l-422 0c9,-149 -19,-302 -80,-438l341 -170c22,-10 42,-28 52,-53l286 -666 367 -184c49,-25 69,-84 45,-134 -25,-49 -85,-69 -134,-44l-400 200c-22,11 -38,29 -47,50l0 0 -286 666 -324 162c-67,-92 -151,-171 -247,-234 24,-53 35,-106 35,-158 0,-80 -25,-155 -67,-223 -4,-5 -7,-10 -11,-15l247 -62c18,-5 34,-14 47,-26l200 -200c39,-39 39,-103 0,-142 -39,-39 -103,-39 -142,0l-180 181 -342 85c-93,-59 -203,-95 -307,-95 -104,0 -214,36 -307,95l-342 -85 -180 -181c-39,-39 -103,-39 -142,0 -39,39 -39,103 0,142l200 200c13,12 29,21 47,26l247 62c-4,5 -7,10 -11,15 -42,68 -67,143 -67,223 0,52 11,105 35,158 -100,65 -187,149 -255,246l-348 -174 -285 -666c0,0 -42,-47 -47,-50l-400 -200c-50,-25 -109,-5 -134,44 -25,50 -5,109 44,134l368 184 285 666c11,25 30,43 53,53l367 183c-49,114 -76,240 -76,373 0,17 0,35 1,52l-453 0c-33,0 -62,16 -81,41l-681 779 -383 191c-49,25 -69,84 -44,134 25,49 84,69 134,44l395 -198c13,-6 25,-14 35,-25l670 -766 357 0c-90,107 -156,250 -205,406 -73,230 -108,491 -120,697 -45,10 -277,177 -332,214 -24,15 -39,39 -43,65l-196 979 -389 584c-31,45 -18,108 28,138 45,31 108,18 138,-28l400 -599c7,-10 12,-23 15,-36l192 -960 183 -122c24,814 454,1462 1327,1462 864,0 1296,-635 1326,-1442l154 102 192 960c3,13 8,26 15,36l400 599c30,46 93,59 138,28 46,-30 59,-93 28,-138l-389 -584 -196 -979c-4,-26 -19,-50 -43,-65l-300 -200z"/>
</svg>