<?xml version="1.0" encoding="UTF-8"?>
<!DOCTYPE svg PUBLIC "-//W3C//DTD SVG 1.1//EN" "http://www.w3.org/Graphics/SVG/1.1/DTD/svg11.dtd">
<svg xmlns="http://www.w3.org/2000/svg" xml:space="preserve" width="580px" height="580px" shape-rendering="geometricPrecision" text-rendering="geometricPrecision" image-rendering="optimizeQuality" fill-rule="nonzero" clip-rule="nonzero" viewBox="0 0 5800 5800" xmlns:xlink="http://www.w3.org/1999/xlink">
	<title>bug icon</title>
	<desc>bug icon from the IconExperience.com I-Collection. Copyright by INCORS GmbH (www.incors.com).</desc>
		<path id="curve28"  d="M4238 1797c17,24 33,49 49,75l320 -320 95 -568c9,-55 60,-91 114,-82 55,9 91,60 82,114l-99 594c-2,22 -11,44 -28,61l-384 384c98,203 171,424 219,645 5,0 9,1 14,2l500 100c28,6 51,22 65,45l295 393c33,44 24,107 -20,140 -44,33 -107,24 -140,-20l-277 -369 -399 -80c45,307 38,638 -46,938l362 271c18,14 30,32 35,51l200 598c17,52 -12,108 -64,126 -52,17 -108,-12 -126,-64l-190 -570 -287 -216c-89,207 -216,378 -373,523 -299,275 -702,452 -1155,604l0 -2734c276,-18 550,-108 816,-274 158,-98 289,-238 422,-367zm-2825 258l-384 -384c-17,-17 -26,-39 -28,-61l-99 -594c-9,-54 27,-105 82,-114 54,-9 105,27 114,82l95 568 320 320c16,-26 32,-51 49,-75 133,127 260,265 418,363 266,166 542,259 820,277l0 2735c-453,-152 -856,-329 -1155,-604 -157,-145 -284,-316 -373,-523l-287 216 -190 570c-18,52 -74,81 -126,64 -52,-18 -81,-74 -64,-126l200 -598c5,-19 17,-37 35,-51l362 -271c-84,-300 -91,-631 -46,-938l-399 80 -277 369c-33,44 -96,53 -140,20 -44,-33 -53,-96 -20,-140l295 -393c14,-23 37,-39 65,-45l500 -100c5,-1 9,-2 14,-2 48,-221 121,-442 219,-645zm1587 183l-200 0c-311,-24 -643,-164 -878,-372 -99,-88 -205,-196 -302,-289 45,-243 163,-473 356,-649 216,-199 525,-328 924,-328 399,0 708,129 924,328 193,176 311,406 356,649 -98,93 -205,203 -304,291 -236,209 -563,347 -876,370zm856 -961c-45,-74 -100,-142 -166,-203 -138,-126 -323,-219 -556,-256 -23,37 -34,80 -34,123 0,87 44,176 115,252 101,106 259,187 409,187 87,0 178,-31 232,-103zm-1190 -459c-233,37 -418,130 -556,256 -66,61 -121,129 -166,203 54,72 145,103 232,103 150,0 308,-81 409,-187 71,-76 115,-165 115,-252 0,-43 -11,-86 -34,-123z"/>
</svg>