<?xml version="1.0" encoding="UTF-8"?>
<!DOCTYPE svg PUBLIC "-//W3C//DTD SVG 1.1//EN" "http://www.w3.org/Graphics/SVG/1.1/DTD/svg11.dtd">
<svg xmlns="http://www.w3.org/2000/svg" xml:space="preserve" width="580px" height="580px" shape-rendering="geometricPrecision" text-rendering="geometricPrecision" image-rendering="optimizeQuality" fill-rule="nonzero" clip-rule="nonzero" viewBox="0 0 5800 5800" xmlns:xlink="http://www.w3.org/1999/xlink">
	<title>building_brick icon</title>
	<desc>building_brick icon from the IconExperience.com I-Collection. Copyright by INCORS GmbH (www.incors.com).</desc>
	<path id="curve0"  d="M700 2958l0 -147c6,95 85,173 209,223 102,41 241,66 391,66 150,0 289,-25 391,-66 129,-52 209,-134 209,-234 0,-100 -80,-182 -209,-234 -102,-41 -241,-66 -391,-66 -52,0 -102,3 -150,9l150 -151 0 -147c6,95 85,173 209,223 102,41 241,66 391,66 150,0 289,-25 391,-66 129,-52 209,-134 209,-234 0,-100 -80,-182 -209,-234 -102,-41 -241,-66 -391,-66 -52,0 -102,3 -150,9l150 -151 0 -147c6,95 85,173 209,223 102,41 241,66 391,66 150,0 289,-25 391,-66 129,-52 209,-134 209,-234 0,-100 -80,-182 -209,-234 -102,-41 -241,-66 -391,-66 -52,0 -102,3 -150,9l150 -151 0 -147c6,95 85,173 209,223 102,41 241,66 391,66 150,0 289,-25 391,-66 129,-52 209,-134 209,-234l0 100 200 0 0 -89c6,95 85,173 209,223 102,41 241,66 391,66 150,0 289,-25 391,-66 129,-52 209,-134 209,-234l0 100 259 0 -2200 2200 -2800 0 341 -342zm2000 -458c-150,0 -289,25 -391,66 -129,52 -209,134 -209,234 0,100 80,182 209,234 102,41 241,66 391,66 150,0 289,-25 391,-66 129,-52 209,-134 209,-234 0,-100 -80,-182 -209,-234 -102,-41 -241,-66 -391,-66zm600 -600c-150,0 -289,25 -391,66 -129,52 -209,134 -209,234 0,100 80,182 209,234 102,41 241,66 391,66 150,0 289,-25 391,-66 129,-52 209,-134 209,-234 0,-100 -80,-182 -209,-234 -102,-41 -241,-66 -391,-66zm600 -600c-150,0 -289,25 -391,66 -129,52 -209,134 -209,234 0,100 80,182 209,234 102,41 241,66 391,66 150,0 289,-25 391,-66 129,-52 209,-134 209,-234 0,-100 -80,-182 -209,-234 -102,-41 -241,-66 -391,-66zm1600 -59l0 1600 -2200 2200 0 -1600 2200 -2200zm-2400 3859l-2800 0 0 -1600 2800 0 0 1600z"/>
</svg>