<?xml version="1.0" encoding="UTF-8"?>
<!DOCTYPE svg PUBLIC "-//W3C//DTD SVG 1.1//EN" "http://www.w3.org/Graphics/SVG/1.1/DTD/svg11.dtd">
<svg xmlns="http://www.w3.org/2000/svg" xml:space="preserve" width="580px" height="580px" shape-rendering="geometricPrecision" text-rendering="geometricPrecision" image-rendering="optimizeQuality" fill-rule="nonzero" clip-rule="nonzero" viewBox="0 0 5800 5800" xmlns:xlink="http://www.w3.org/1999/xlink">
	<title>building_brick icon</title>
	<desc>building_brick icon from the IconExperience.com I-Collection. Copyright by INCORS GmbH (www.incors.com).</desc>
	<path id="curve0" d="M2700 2500c0,-100 0,-200 0,-300 0,-124 118,-200 221,-239 -13,-17 -21,-38 -21,-61l0 -70 -9 4c-102,41 -241,66 -391,66 -126,0 -275,-18 -392,-67l-8 9 0 58c0,5 -1,10 -2,15 73,12 138,29 193,51 128,51 208,132 209,231l0 303c0,5 0,11 -1,16 66,-11 134,-16 201,-16zm198 15c73,12 138,29 193,51 128,51 208,132 209,231l0 303c0,55 -45,100 -100,100 -55,0 -100,-45 -100,-100l0 -70c-124,51 -267,70 -400,70 -133,0 -276,-19 -400,-70l0 70c0,55 -45,100 -100,100 -55,0 -100,-45 -100,-100l0 -289c0,-3 0,-7 0,-11 0,-123 118,-200 221,-239 -13,-17 -21,-38 -21,-61l0 -70 -9 4c-102,41 -241,66 -391,66 -128,0 -273,-18 -392,-67l-8 9 0 58c0,5 -1,10 -2,15 73,12 138,29 193,51 128,51 208,132 209,231l0 303c0,55 -45,100 -100,100 -55,0 -100,-45 -100,-100l0 -70c-124,51 -267,70 -400,70 -128,0 -273,-18 -392,-67l-8 9 0 58c0,55 -45,100 -100,100 -17,0 -33,-5 -47,-12l-112 112 2518 0 2000 -2000 -59 0c0,55 -45,100 -100,100 -55,0 -100,-45 -100,-100l0 -70c-124,51 -267,70 -400,70 -133,0 -276,-19 -400,-70l0 70c0,5 -1,10 -2,15 73,12 138,29 193,51 128,51 208,132 209,231l0 303c0,55 -45,100 -100,100 -55,0 -100,-45 -100,-100l0 -70 -9 4c-102,41 -241,66 -391,66 -150,0 -289,-25 -391,-66l-9 -4 0 70c0,5 -1,10 -2,15 73,12 138,29 193,51 128,51 208,132 209,231l0 303c0,55 -45,100 -100,100 -55,0 -100,-45 -100,-100l0 -70 -9 4c-102,41 -241,66 -391,66 -133,0 -276,-19 -400,-70l0 70c0,5 -1,10 -2,15zm402 -615c0,-100 0,-200 0,-300 0,-100 80,-182 209,-234 4,-2 8,-3 12,-5 -13,-17 -21,-38 -21,-61l0 -70c-124,51 -267,70 -400,70 -133,0 -276,-19 -400,-70 0,25 2,61 -2,85 73,12 138,29 193,51 128,51 208,132 209,231l0 303c0,5 0,11 -1,16 63,-10 130,-16 201,-16zm-2600 900c0,-100 80,-182 209,-234 67,-27 150,-47 241,-57l150 -151 0 -147c0,-3 0,-7 0,-11 0,-100 80,-182 209,-234 67,-27 150,-47 241,-57l150 -151c0,-53 0,-105 0,-158 0,-100 80,-182 209,-234 67,-27 150,-47 241,-57l150 -151c0,-53 0,-105 0,-158 0,-100 80,-182 209,-234 102,-41 241,-66 391,-66 150,0 289,25 391,66 128,51 208,132 209,231l0 103 200 0c0,-33 0,-67 0,-100 0,-100 80,-182 209,-234 102,-41 241,-66 391,-66 150,0 289,25 391,66 128,51 208,132 209,231l0 103 400 0 0 1741 -2259 2259 -2941 0 0 -1741 400 -401c0,-53 0,-105 0,-158zm3196 -1500l-196 0c0,5 0,11 -1,16 61,-10 128,-16 197,-16zm320 251c-79,-31 -190,-51 -316,-51 -126,0 -237,20 -316,51 -52,21 -84,39 -84,49 0,10 32,28 84,49 79,31 190,51 316,51 126,0 237,-20 316,-51 52,-21 84,-39 84,-49 0,-10 -32,-28 -84,-49zm-1400 0c-79,-31 -190,-51 -316,-51 -126,0 -237,20 -316,51 -52,21 -84,39 -84,49 0,10 32,28 84,49 79,31 190,51 316,51 126,0 237,-20 316,-51 52,-21 84,-39 84,-49 0,-10 -32,-28 -84,-49zm484 1890l0 1318 2000 -2000 0 -1318 -2000 2000zm-200 1459l0 -1400 -2600 0 0 1400 2600 0zm316 -3949c-79,-31 -190,-51 -316,-51 -126,0 -237,20 -316,51 -52,21 -84,39 -84,49 0,10 32,28 84,49 79,31 190,51 316,51 126,0 237,-20 316,-51 52,-21 84,-39 84,-49 0,-10 -32,-28 -84,-49zm1400 0c-79,-31 -190,-51 -316,-51 -126,0 -237,20 -316,51 -52,21 -84,39 -84,49 0,10 32,28 84,49 79,31 190,51 316,51 126,0 237,-20 316,-51 52,-21 84,-39 84,-49 0,-10 -32,-28 -84,-49zm-2600 1200c-79,-31 -190,-51 -316,-51 -126,0 -237,20 -316,51 -52,21 -84,39 -84,49 0,10 32,28 84,49 79,31 190,51 316,51 126,0 237,-20 316,-51 52,-21 84,-39 84,-49 0,-10 -32,-28 -84,-49zm1400 0c-79,-31 -190,-51 -316,-51 -126,0 -237,20 -316,51 -52,21 -84,39 -84,49 0,10 32,28 84,49 79,31 190,51 316,51 126,0 237,-20 316,-51 52,-21 84,-39 84,-49 0,-10 -32,-28 -84,-49zm-2000 600c-79,-31 -190,-51 -316,-51 -126,0 -237,20 -316,51 -52,21 -84,39 -84,49 0,10 32,28 84,49 79,31 190,51 316,51 126,0 237,-20 316,-51 52,-21 84,-39 84,-49 0,-10 -32,-28 -84,-49zm1400 0c-79,-31 -190,-51 -316,-51 -126,0 -237,20 -316,51 -52,21 -84,39 -84,49 0,10 32,28 84,49 79,31 190,51 316,51 126,0 237,-20 316,-51 52,-21 84,-39 84,-49 0,-10 -32,-28 -84,-49z"/>
</svg>