<?xml version="1.0" encoding="UTF-8"?>
<!DOCTYPE svg PUBLIC "-//W3C//DTD SVG 1.1//EN" "http://www.w3.org/Graphics/SVG/1.1/DTD/svg11.dtd">
<svg xmlns="http://www.w3.org/2000/svg" xml:space="preserve" width="580px" height="580px" shape-rendering="geometricPrecision" text-rendering="geometricPrecision" image-rendering="optimizeQuality" fill-rule="nonzero" clip-rule="nonzero" viewBox="0 0 5800 5800" xmlns:xlink="http://www.w3.org/1999/xlink">
	<title>bulldozer icon</title>
	<desc>bulldozer icon from the IconExperience.com I-Collection. Copyright by INCORS GmbH (www.incors.com).</desc>
		<path id="curve30"  d="M3800 3700c65,0 129,9 189,26l-405 374 -1484 0c-166,0 -300,134 -300,300 0,166 134,300 300,300l2334 0c-114,239 -369,400 -634,400l-2800 0c-386,0 -700,-314 -700,-700 0,-385 314,-700 700,-700l2800 0z"/>
	<path id="curve29"  d="M5100 2700c0,648 0,1296 0,1944l451 270 -102 172 -500 -301c-29,-17 -49,-49 -49,-85l0 -200 -2800 0 0 -200 1561 0 1239 -1144 0 -456 200 0zm-200 1600l0 -872 -945 872 945 0z"/>
	<path id="curve28"  d="M700 1100l300 0 0 0 0 0 0 0 1 0 0 0 0 0 0 0 1899 0 0 200 -200 0 0 1459 -750 741 -950 0c-171,0 -349,54 -500,154l0 -954 400 0 0 -1400 -200 0 0 -200zm1541 2400l659 -659 0 -541 600 0c386,0 700,314 700,700l0 594c-121,-60 -256,-94 -400,-94l-1559 0z"/>
</svg>