<?xml version="1.0" encoding="UTF-8"?>
<!DOCTYPE svg PUBLIC "-//W3C//DTD SVG 1.1//EN" "http://www.w3.org/Graphics/SVG/1.1/DTD/svg11.dtd">
<svg xmlns="http://www.w3.org/2000/svg" xml:space="preserve" width="580px" height="580px" shape-rendering="geometricPrecision" text-rendering="geometricPrecision" image-rendering="optimizeQuality" fill-rule="nonzero" clip-rule="nonzero" viewBox="0 0 5800 5800" xmlns:xlink="http://www.w3.org/1999/xlink">
	<title>bullets icon</title>
	<desc>bullets icon from the IconExperience.com I-Collection. Copyright by INCORS GmbH (www.incors.com).</desc>
	<path id="curve0" d="M3300 3300l0 1702 -199 0 0 -1702 199 0zm1000 -200l0 1702 -200 0 0 -1702 200 0zm-3000 -813c0,-131 0,-261 0,-391 0,-277 47,-543 134,-791 90,-257 222,-495 388,-703 41,-51 118,-50 157,2 147,184 267,391 355,615 -43,95 -81,193 -112,292 -13,-47 -28,-94 -44,-141 -68,-193 -162,-375 -278,-540 -116,165 -210,347 -278,540 -79,227 -122,471 -122,726 0,2 0,2 0,4l607 1c-1,25 -11,186 -7,199l-600 1 0 216 -200 698 0 2085 601 0 0 200 -801 0 0 -2315 200 -698zm2167 -1267c88,-223 208,-429 355,-614 41,-51 118,-50 157,2 166,208 297,444 387,701 87,248 134,514 134,791 0,128 -1,255 -1,383l200 700 1 2317 -801 0 0 -200 601 0 0 -2087 -200 -700 0 -213 -600 1c0,-67 -2,-133 -7,-199l607 -2c0,-255 -43,-499 -122,-725 -68,-194 -162,-375 -278,-540 -116,165 -210,346 -278,540 -16,45 -30,91 -43,138 -32,-100 -69,-197 -112,-293zm-1166 1465c0,-129 -1,-257 -1,-385 0,-277 47,-543 134,-791 90,-257 222,-494 388,-703 41,-51 118,-50 158,2 165,208 297,444 386,701 87,248 134,514 134,791 0,128 0,255 0,383l200 700 0 2317 -1599 0 -1 -2317 201 -698zm999 -385c0,-255 -43,-499 -122,-725 -68,-194 -162,-375 -278,-540 -116,165 -210,346 -278,540 -79,226 -122,470 -122,725l800 0zm-800 201l0 214 -200 698 0 2087 1201 0 -1 -2087 -200 -700 1 -213 -801 1z"/>
</svg>