<?xml version="1.0" encoding="UTF-8"?>
<!DOCTYPE svg PUBLIC "-//W3C//DTD SVG 1.1//EN" "http://www.w3.org/Graphics/SVG/1.1/DTD/svg11.dtd">
<svg xmlns="http://www.w3.org/2000/svg" xml:space="preserve" width="580px" height="580px" shape-rendering="geometricPrecision" text-rendering="geometricPrecision" image-rendering="optimizeQuality" fill-rule="nonzero" clip-rule="nonzero" viewBox="0 0 5800 5800" xmlns:xlink="http://www.w3.org/1999/xlink">
	<title>bulldozer icon</title>
	<desc>bulldozer icon from the IconExperience.com I-Collection. Copyright by INCORS GmbH (www.incors.com).</desc>
		<path id="curve28" d="M5100 2700c0,648 0,1296 0,1944l451 270 -102 172 -500 -301c-29,-17 -49,-49 -49,-85l0 -200 -2800 0 0 -200 1561 0 1239 -1144 0 -456 200 0zm-1300 1000c65,0 129,9 189,26l-189 174 -2800 0c-275,0 -500,225 -500,500 0,275 225,500 500,500l2800 0c154,0 307,-78 401,-200l233 0c-114,239 -369,400 -634,400l-2800 0c-386,0 -700,-314 -700,-700 0,-385 314,-700 700,-700l2800 0zm-3300 -46l0 -954 400 0 0 -1400 -200 0 0 -200 300 0 0 0 0 0 0 0 1 0 0 0 0 0 0 0 1899 0 0 200 -200 0c0,480 0,961 0,1441l-559 559 -641 0 0 -200 559 0 441 -441c0,-453 0,-906 0,-1359l-1400 0 0 1600c-134,0 -266,0 -400,0l0 654c-70,25 -137,58 -200,100zm2400 -1354l600 0c386,0 700,314 700,700l0 531 -45 42c-50,-21 -102,-38 -155,-51l0 -522c0,-275 -225,-500 -500,-500l-600 0 0 -200zm2000 2000l0 -872 -945 872 945 0z"/>
</svg>