<?xml version="1.0" encoding="UTF-8"?>
<!DOCTYPE svg PUBLIC "-//W3C//DTD SVG 1.1//EN" "http://www.w3.org/Graphics/SVG/1.1/DTD/svg11.dtd">
<svg xmlns="http://www.w3.org/2000/svg" xml:space="preserve" width="580px" height="580px" shape-rendering="geometricPrecision" text-rendering="geometricPrecision" image-rendering="optimizeQuality" fill-rule="nonzero" clip-rule="nonzero" viewBox="0 0 5800 5800" xmlns:xlink="http://www.w3.org/1999/xlink">
	<title>bullet_train icon</title>
	<desc>bullet_train icon from the IconExperience.com I-Collection. Copyright by INCORS GmbH (www.incors.com).</desc>
	<path id="curve0"  d="M100 3500l600 0c110,0 200,-90 200,-200l0 -800c0,-110 -90,-200 -200,-200l-600 0 0 -400 3596 0c402,0 699,213 978,478l850 958c186,210 229,495 114,751 -115,256 -358,413 -638,413l-4900 0 0 -1000zm4292 -837l-6 -7c-91,-86 -190,-173 -299,-239 -116,-70 -245,-117 -391,-117l-396 0c-110,0 -200,90 -200,200l0 800c0,110 90,200 200,200l1168 0c181,0 325,-163 297,-345 -8,-56 -33,-109 -73,-154l-300 -338zm-3092 -363c-110,0 -200,90 -200,200l0 800c0,110 90,200 200,200l1400 0c110,0 200,-90 200,-200l0 -800c0,-110 -90,-200 -200,-200l-1400 0zm3166 2400c-85,239 -311,400 -566,400 -255,0 -481,-161 -566,-400l1132 0zm-1200 0c-85,239 -311,400 -566,400 -255,0 -481,-161 -566,-400l1132 0zm-1900 0c-85,239 -311,400 -566,400 -255,0 -481,-161 -566,-400l1132 0z"/>
</svg>