<?xml version="1.0" encoding="UTF-8"?>
<!DOCTYPE svg PUBLIC "-//W3C//DTD SVG 1.1//EN" "http://www.w3.org/Graphics/SVG/1.1/DTD/svg11.dtd">
<svg xmlns="http://www.w3.org/2000/svg" xml:space="preserve" width="580px" height="580px" shape-rendering="geometricPrecision" text-rendering="geometricPrecision" image-rendering="optimizeQuality" fill-rule="nonzero" clip-rule="nonzero" viewBox="0 0 5800 5800" xmlns:xlink="http://www.w3.org/1999/xlink">
	<title>bull icon</title>
	<desc>bull icon from the IconExperience.com I-Collection. Copyright by INCORS GmbH (www.incors.com).</desc>
	<path id="curve0"  d="M1905 1905c5,63 10,126 15,189 4,56 5,117 -1,177 -11,117 -40,176 -98,273 -53,90 -105,176 -124,281 -50,194 -225,475 -450,475l-247 0c-246,0 -334,-164 -396,-371 -26,-88 -43,-195 -59,-292 -15,-89 -28,-169 -41,-197 -52,-108 -58,-243 -48,-361 6,-75 7,-151 13,-227 -280,-119 -369,-364 -369,-652l0 -241 171 170c164,165 250,263 495,271 79,-47 193,-28 290,-11 81,14 93,12 175,-3 133,-25 320,-60 491,14 313,-3 393,-57 607,-271l178 -177 -7 251c-11,376 -201,667 -595,702zm1186 3135c-36,83 -66,140 -104,182 -51,54 -106,78 -187,78l-216 0c-201,0 -276,-123 -192,-312 6,-13 13,-148 13,-282 0,-90 -4,-171 -15,-198 -3,-9 -12,-23 -22,-39 -36,-55 -79,-121 -83,-243 -30,-136 -89,-209 -150,-283 -87,-107 -176,-216 -215,-462l25 203c38,310 67,364 103,434 25,49 35,111 41,165 -241,52 -421,-26 -559,-169 -151,-157 -242,-393 -306,-614 344,0 588,-319 667,-626 16,-90 55,-151 102,-228 74,-124 110,-205 125,-355 7,-76 6,-149 0,-224 262,-80 444,-276 527,-534 101,19 192,45 282,71 168,48 337,96 573,96 205,0 454,0 685,13 235,13 445,41 560,98 193,96 403,283 552,539 121,208 203,462 203,750l0 1000c14,101 48,178 70,228 1,3 15,35 15,35 22,56 15,159 -3,270 -29,171 -87,381 -99,407 -62,140 -120,260 -293,260l-190 0c-77,0 -144,-14 -189,-67 -46,-54 -54,-131 -3,-244 5,-13 13,-149 13,-283 0,-90 -4,-171 -15,-198 -3,-9 -12,-23 -23,-39 -34,-53 -75,-117 -82,-231 -26,-52 -84,-94 -145,-138 -89,-64 -184,-133 -245,-255 -22,-44 -64,-128 -136,-176 -67,-45 -171,-60 -330,20 -130,65 -265,119 -404,156 -53,14 -107,26 -162,35 -60,-230 -167,-326 -276,-378 13,153 66,336 97,490 0,127 28,221 78,336 1,3 15,35 15,35 22,56 15,159 -3,270 -29,171 -87,381 -99,407zm-892 260l-200 0c-201,0 -276,-123 -193,-312 6,-12 13,-148 13,-282 0,-90 -4,-171 -14,-198 -2,-5 -6,-12 -11,-19 105,21 220,19 348,-11 13,28 60,94 63,103 0,1 0,55 0,125 0,112 7,196 5,201 -72,163 -68,289 -11,393zm2007 -312c16,-40 19,-429 -1,-480 -4,-9 -13,-23 -23,-39 -33,-52 -73,-113 -82,-221 -14,-20 -32,-40 -49,-60 -59,-67 -118,-134 -148,-266l-8 -36c13,-6 26,-12 39,-19 79,-39 115,-42 131,-31 28,18 53,68 68,98 83,166 198,249 307,328 27,20 53,39 68,50 18,127 66,201 107,265 7,10 7,0 8,26 5,72 6,297 3,305 -72,162 -68,289 -10,392l-217 0c-201,0 -276,-123 -193,-312z"/>
</svg>