<?xml version="1.0" encoding="UTF-8"?>
<!DOCTYPE svg PUBLIC "-//W3C//DTD SVG 1.1//EN" "http://www.w3.org/Graphics/SVG/1.1/DTD/svg11.dtd">
<svg xmlns="http://www.w3.org/2000/svg" xml:space="preserve" width="580px" height="580px" shape-rendering="geometricPrecision" text-rendering="geometricPrecision" image-rendering="optimizeQuality" fill-rule="nonzero" clip-rule="nonzero" viewBox="0 0 5800 5800" xmlns:xlink="http://www.w3.org/1999/xlink">
	<title>bullet_train icon</title>
	<desc>bullet_train icon from the IconExperience.com I-Collection. Copyright by INCORS GmbH (www.incors.com).</desc>
	<path id="curve0"  d="M4245 2797c-81,-76 -167,-152 -261,-208 -88,-54 -183,-89 -288,-89l-396 0 0 800 1168 0c88,0 132,-102 75,-167m149 -132c172,194 34,499 -224,499l-1168 0c-110,0 -200,-90 -200,-200l0 -800c0,-110 90,-200 200,-200l396 0c146,0 275,47 391,117 109,66 208,153 299,239l306 345zm-1138 1699c71,124 203,200 346,200 143,0 275,-76 346,-200l220 0c-85,239 -311,400 -566,400 -255,0 -481,-161 -566,-400l220 0zm-288 0c-85,239 -311,400 -566,400 -255,0 -481,-161 -566,-400l220 0c71,124 203,200 346,200 143,0 275,-76 346,-200l220 0zm-1900 0c-85,239 -311,400 -566,400 -255,0 -481,-161 -566,-400l220 0c71,124 203,200 346,200 143,0 275,-76 346,-200l220 0zm-66 -2400l1400 0c110,0 200,90 200,200l0 800c0,110 -90,200 -200,200l-1400 0c-110,0 -200,-90 -200,-200l0 -800c0,-110 90,-200 200,-200zm1400 200l-1400 0 0 800 1400 0c0,0 0,0 0,0l0 0 0 0 0 0 0 -800zm0 800l0 0 0 0 0 0 0 0zm-2588 -1004l600 0c113,0 188,96 188,204l0 800c0,110 -90,200 -200,200l-600 0 0 -200 600 0c0,0 0,0 0,0l0 0 0 0 0 0 0 -804 -588 0 0 -200zm588 1004l0 0 0 0 0 0 0 0zm-600 -1400l3596 0c202,0 378,54 540,142 158,86 299,204 438,336l850 958c186,210 229,495 114,751 -115,256 -358,413 -638,413l-4900 0 0 -200 4900 0c203,0 373,-110 456,-295 83,-184 52,-386 -82,-537l-839 -947c-128,-122 -256,-228 -394,-304 -133,-73 -278,-117 -445,-117l-3596 0 0 -200z"/>
</svg>