<?xml version="1.0" encoding="UTF-8"?>
<!DOCTYPE svg PUBLIC "-//W3C//DTD SVG 1.1//EN" "http://www.w3.org/Graphics/SVG/1.1/DTD/svg11.dtd">
<svg xmlns="http://www.w3.org/2000/svg" xml:space="preserve" width="580px" height="580px" shape-rendering="geometricPrecision" text-rendering="geometricPrecision" image-rendering="optimizeQuality" fill-rule="nonzero" clip-rule="nonzero" viewBox="0 0 5800 5800" xmlns:xlink="http://www.w3.org/1999/xlink">
	<title>bull icon</title>
	<desc>bull icon from the IconExperience.com I-Collection. Copyright by INCORS GmbH (www.incors.com).</desc>
	<path id="curve0" d="M1697 2825c-50,194 -225,475 -450,475l-247 0c-246,0 -334,-164 -396,-371 -26,-88 -43,-195 -59,-292 -15,-89 -28,-169 -41,-197 -27,-56 -41,-119 -48,-183 -6,-61 -5,-122 0,-178 2,-22 3,-54 5,-91 2,-44 5,-93 8,-136 -122,-52 -209,-128 -270,-227 -70,-116 -99,-258 -99,-425l0 -241 171 170c172,173 263,263 495,271 80,-47 193,-28 290,-11 81,14 93,12 175,-3 133,-25 320,-60 491,14 313,-3 393,-57 607,-271l178 -177 -7 251c-6,188 -57,380 -188,518 -107,114 -265,188 -488,188l0 -200c162,0 272,-49 344,-125 31,-33 55,-71 74,-112 -23,15 -47,29 -72,42 -154,77 -325,86 -493,86 -138,-69 -265,-45 -409,-18 -108,20 -139,22 -246,4 -65,-11 -143,-25 -146,-22l-30 36c-195,0 -342,-11 -504,-133 8,19 17,38 28,55 78,129 203,158 336,199l-37 99c0,1 -5,99 -9,177 -2,46 -4,87 -5,99 -4,47 -5,96 0,141 4,42 13,83 29,117 25,52 41,146 58,251 14,90 31,190 54,266 34,114 63,229 204,229l247 0c118,0 231,-227 256,-325l194 50zm2509 2163c6,-14 13,-149 13,-282 0,-90 -4,-171 -14,-198 -4,-9 -13,-23 -23,-39 -33,-52 -73,-113 -82,-221 -14,-20 -32,-40 -49,-60 -59,-67 -118,-134 -148,-266l194 -44c19,81 61,130 104,178 38,43 66,80 97,129l0 28c1,70 29,113 52,149 15,23 29,44 40,72 22,55 29,162 29,272 0,155 -17,332 -31,363 0,3 -14,31 -2,31 3,0 8,0 13,0l201 0 0 200 -201 0c-201,0 -276,-123 -193,-312zm-2006 312l-201 0c-201,0 -276,-123 -193,-312 6,-12 13,-148 13,-282 0,-90 -4,-171 -14,-198 -1,-4 -4,-8 -7,-13 63,-1 130,-9 203,-23 13,58 18,145 18,234 0,155 -17,333 -31,364 -11,26 -7,31 11,30l201 0 0 200zm83 -1081c-341,151 -580,74 -753,-105 -151,-157 -242,-393 -306,-614 73,0 129,-8 198,-36 56,191 133,388 252,512 116,120 283,169 531,59 -22,-33 -46,-63 -70,-92 -92,-114 -187,-230 -222,-510l198 -24c28,224 104,317 179,408 77,95 153,188 192,378 8,78 9,98 54,167 14,23 28,44 39,72 22,55 30,162 30,272 0,155 -17,333 -31,364 -5,11 -8,30 10,30l216 0 0 200 -216 0c-201,0 -276,-123 -192,-312 6,-13 13,-148 13,-282 0,-90 -4,-171 -15,-198 -3,-9 -12,-23 -22,-39 -36,-55 -79,-121 -83,-243l-2 -7zm363 -2686c100,19 191,45 281,71 168,48 337,96 573,96 205,0 454,0 685,13 235,13 445,41 560,98 193,96 403,283 552,539 121,208 203,462 203,750l0 800 -200 0 0 -800c0,-250 -71,-470 -176,-650 -128,-220 -306,-380 -469,-461 -85,-43 -269,-65 -481,-77 -216,-12 -467,-12 -674,-12 -264,0 -446,-52 -627,-104 -100,-28 -199,-57 -312,-75 36,-60 64,-123 85,-188zm2162 3456c5,-13 13,-149 13,-283 0,-90 -4,-171 -15,-198 -3,-9 -12,-23 -23,-39 -34,-53 -75,-117 -82,-231 -26,-52 -84,-94 -145,-138 -89,-64 -184,-133 -245,-255 -22,-44 -64,-128 -136,-176 -67,-45 -171,-60 -330,20 -268,134 -546,217 -847,211l4 -200c267,6 517,-71 753,-189 241,-120 411,-87 531,-8 115,76 173,192 203,252 40,79 114,133 184,184 90,65 176,127 220,240l6 34c2,70 29,113 52,148 15,24 29,45 40,73 22,55 30,162 30,272 0,155 -17,333 -31,364 -1,7 -7,31 10,30l200 0 0 200 -200 0c-205,0 -275,-126 -192,-311z"/>
</svg>