<?xml version="1.0" encoding="UTF-8"?>
<!DOCTYPE svg PUBLIC "-//W3C//DTD SVG 1.1//EN" "http://www.w3.org/Graphics/SVG/1.1/DTD/svg11.dtd">
<svg xmlns="http://www.w3.org/2000/svg" xml:space="preserve" width="580px" height="580px" shape-rendering="geometricPrecision" text-rendering="geometricPrecision" image-rendering="optimizeQuality" fill-rule="nonzero" clip-rule="nonzero" viewBox="0 0 5800 5800" xmlns:xlink="http://www.w3.org/1999/xlink">
	<title>bullets icon</title>
	<desc>bullets icon from the IconExperience.com I-Collection. Copyright by INCORS GmbH (www.incors.com).</desc>
	<path id="curve0"  d="M3467 1020c88,-223 208,-429 355,-614 41,-51 118,-50 157,2 338,425 521,949 521,1492l-808 0c-23,-304 -99,-602 -225,-880zm-167 2280l-199 0 0 1702 199 0 0 -1702zm-999 -815l-1 -185 1200 0 0 183 200 700 0 2317 -1599 0 -1 -2317 201 -698zm-1 -385c0,-544 183,-1069 522,-1494 41,-51 118,-50 158,2 337,425 520,949 520,1492l-1200 0zm2199 0l0 183 200 700 1 2317 -801 0 0 -2147 -199 -696 0 -357 799 0zm-199 1000l-200 0 0 1702 200 0 0 -1702zm-3000 -1200c-1,-37 1,-76 2,-113 23,-504 204,-988 520,-1385 41,-51 118,-50 157,2 147,184 267,391 355,615 -126,277 -203,577 -226,881l-808 0zm601 3400l-801 0 0 -2315 200 -698 0 -187 801 0 0 355 -200 698 0 2147z"/>
</svg>