<?xml version="1.0" encoding="UTF-8"?>
<!DOCTYPE svg PUBLIC "-//W3C//DTD SVG 1.1//EN" "http://www.w3.org/Graphics/SVG/1.1/DTD/svg11.dtd">
<svg xmlns="http://www.w3.org/2000/svg" xml:space="preserve" width="580px" height="580px" shape-rendering="geometricPrecision" text-rendering="geometricPrecision" image-rendering="optimizeQuality" fill-rule="nonzero" clip-rule="nonzero" viewBox="0 0 5800 5800" xmlns:xlink="http://www.w3.org/1999/xlink">
	<title>buoy icon</title>
	<desc>buoy icon from the IconExperience.com I-Collection. Copyright by INCORS GmbH (www.incors.com).</desc>
		<path id="curve29"  d="M1800 3500l24 0 445 -1600 -169 0 0 -879c0,-122 70,-229 181,-278l500 -217c78,-34 160,-34 238,0l500 217c111,49 181,156 181,278l0 879 -169 0 445 1600 24 0c276,0 500,227 500,503l0 378c-82,75 -187,115 -299,115 -163,0 -309,-85 -388,-228 -62,-111 -112,-260 -263,-259 -151,0 -200,150 -261,262 -78,142 -228,229 -389,229 -163,0 -310,-86 -389,-229 -61,-110 -110,-258 -260,-258 -150,0 -200,147 -262,257 -80,142 -224,226 -387,226 -113,0 -219,-41 -302,-118l0 -375c0,-276 224,-503 500,-503zm231 0l1738 0 -445 -1600 -848 0 -445 1600z"/>
	<path id="curve28"  d="M303 4696c235,0 449,-126 563,-331l87 -157 87 157c114,205 328,331 562,331 234,0 446,-124 561,-328l87 -156 87 156c114,206 328,332 563,332 235,0 451,-128 564,-334l87 -159 88 158c113,205 327,331 562,331 234,0 448,-126 562,-331l87 -157 88 157c113,205 327,331 562,331l0 200c-252,0 -490,-113 -650,-307 -160,194 -397,307 -649,307 -252,0 -489,-112 -649,-306 -160,196 -399,310 -652,310 -253,0 -490,-113 -651,-307 -160,192 -396,303 -647,303 -251,0 -489,-113 -649,-307 -160,194 -398,307 -650,307l0 -200z"/>
</svg>