<?xml version="1.0" encoding="UTF-8"?>
<!DOCTYPE svg PUBLIC "-//W3C//DTD SVG 1.1//EN" "http://www.w3.org/Graphics/SVG/1.1/DTD/svg11.dtd">
<svg xmlns="http://www.w3.org/2000/svg" xml:space="preserve" width="580px" height="580px" shape-rendering="geometricPrecision" text-rendering="geometricPrecision" image-rendering="optimizeQuality" fill-rule="nonzero" clip-rule="nonzero" viewBox="0 0 5800 5800" xmlns:xlink="http://www.w3.org/1999/xlink">
	<title>buoy icon</title>
	<desc>buoy icon from the IconExperience.com I-Collection. Copyright by INCORS GmbH (www.incors.com).</desc>
		<path id="curve28" d="M1800 3500l24 0 445 -1600 -169 0 0 -879c0,-122 70,-229 181,-278l500 -217c78,-34 160,-34 238,0l500 217c111,49 181,156 181,278l0 879 -169 0 445 1600 24 0c276,0 500,227 500,503l0 378c-23,21 -48,39 -74,55 -38,22 -81,39 -126,49l0 -482c0,-166 -133,-303 -300,-303l-2200 0c-167,0 -300,137 -300,303l0 481c-44,-10 -85,-26 -123,-48 -28,-17 -53,-36 -77,-58l0 -375c0,-276 224,-503 500,-503zm1524 -1600l-848 0 -445 1600 1738 0 -445 -1600zm-463 -1192l-500 218c-40,17 -61,52 -61,95l0 679 1200 0 0 -679c0,-43 -21,-78 -61,-95l-500 -218c-26,-11 -52,-11 -78,0zm-2558 3988c235,0 449,-126 563,-331l87 -157 87 157c114,205 328,331 562,331 234,0 446,-124 561,-328l87 -156 87 156c114,206 328,332 563,332 235,0 451,-128 564,-334l87 -159 88 158c113,205 327,331 562,331 234,0 448,-126 562,-331l87 -157 88 157c113,205 327,331 562,331l0 200c-252,0 -490,-113 -650,-307 -160,194 -397,307 -649,307 -252,0 -489,-112 -649,-306 -160,196 -399,310 -652,310 -253,0 -490,-113 -651,-307 -160,192 -396,303 -647,303 -251,0 -489,-113 -649,-307 -160,194 -398,307 -650,307l0 -200z"/>
</svg>