<?xml version="1.0" encoding="UTF-8"?>
<!DOCTYPE svg PUBLIC "-//W3C//DTD SVG 1.1//EN" "http://www.w3.org/Graphics/SVG/1.1/DTD/svg11.dtd">
<svg xmlns="http://www.w3.org/2000/svg" xml:space="preserve" width="580px" height="580px" shape-rendering="geometricPrecision" text-rendering="geometricPrecision" image-rendering="optimizeQuality" fill-rule="nonzero" clip-rule="nonzero" viewBox="0 0 5800 5800" xmlns:xlink="http://www.w3.org/1999/xlink">
	<title>bus icon</title>
	<desc>bus icon from the IconExperience.com I-Collection. Copyright by INCORS GmbH (www.incors.com).</desc>
		<path id="curve28" d="M4300 899c0,67 0,134 0,201l-2800 0c0,-67 0,-134 0,-201l2800 0zm800 4184l0 317c0,55 -45,100 -100,100l-800 0c-55,0 -100,-45 -100,-100l0 -216 168 -84 32 0 0 200 600 0 0 -200 100 0c35,0 69,-6 100,-17zm-3400 51l0 266c0,55 -45,100 -100,100l-800 0c-55,0 -100,-45 -100,-100l0 -317c31,11 65,17 100,17l100 0 0 200 600 0 0 -200 132 0 68 34zm3400 -4534l0 1100c0,1033 0,2067 0,3100 0,55 -45,100 -100,100l-777 0 -378 189c-15,7 -30,11 -45,11l-1700 0c-19,0 -38,-6 -53,-15l-370 -185 -877 0c-55,0 -100,-45 -100,-100l0 -400 0 -400 0 -1000 0 -1300 0 -1100c0,-55 45,-100 100,-100l4200 0c55,0 100,45 100,100zm-200 4100l0 -200 -1100 0c-32,0 -64,-16 -83,-45 -31,-45 -18,-108 28,-138l598 -399c16,-11 36,-18 57,-18l500 0 0 -411c-134,135 -310,211 -500,211l-3000 0c-190,0 -366,-76 -500,-211l0 411 500 0c20,0 39,7 55,17l600 400c46,30 59,93 28,138 -19,29 -51,45 -83,45l-1100 0 0 200 800 0c15,0 30,4 45,11l378 189 1654 0 370 -185c15,-9 34,-15 53,-15l700 0zm0 -3346l0 -654 -4000 0 0 654c59,-34 127,-54 200,-54l3600 0c73,0 141,20 200,54zm-3531 2746l-469 0 0 200 770 0 -301 -200zm3531 0l-470 0 -300 200 770 0 0 -200zm-200 -2600l-3600 0c-111,0 -200,89 -200,200l0 1300c0,275 225,500 500,500l3000 0c275,0 500,-225 500,-500l0 -1300c0,-110 -90,-200 -200,-200z"/>
</svg>