<?xml version="1.0" encoding="UTF-8"?>
<!DOCTYPE svg PUBLIC "-//W3C//DTD SVG 1.1//EN" "http://www.w3.org/Graphics/SVG/1.1/DTD/svg11.dtd">
<svg xmlns="http://www.w3.org/2000/svg" xml:space="preserve" width="580px" height="580px" shape-rendering="geometricPrecision" text-rendering="geometricPrecision" image-rendering="optimizeQuality" fill-rule="nonzero" clip-rule="nonzero" viewBox="0 0 5800 5800" xmlns:xlink="http://www.w3.org/1999/xlink">
	<title>bus2 icon</title>
	<desc>bus2 icon from the IconExperience.com I-Collection. Copyright by INCORS GmbH (www.incors.com).</desc>
		<path id="curve28" d="M4500 3300l-700 0c-55,0 -100,-45 -100,-100l0 -900 200 0 0 800 600 0 0 200zm-1000 0l-700 0c-55,0 -100,-45 -100,-100l0 -900 200 0 0 800 600 0 0 200zm-2000 0l-700 0c-55,0 -100,-45 -100,-100l0 -900 200 0 0 800 600 0 0 200zm1000 0l-700 0c-55,0 -100,-45 -100,-100l0 -900 200 0 0 800 600 0 0 200zm2800 400l-200 0c-28,0 -54,-12 -72,-30l-299 -299c-19,-20 -29,-45 -29,-71l0 -1000 200 0 0 959 241 241 159 0 0 200zm-4500 900l-600 0c-55,0 -100,-45 -100,-100l0 -2500c0,-55 45,-100 100,-100l5100 0c49,0 90,35 98,81l299 1195c0,2 3,24 3,24l0 1300c0,55 -45,100 -100,100l-600 0 0 -200 500 0 0 -1188 -278 -1112 -4922 0 0 2300 500 0 0 200zm2600 0l-1000 0 0 -200 1000 0 0 200zm800 -700c331,0 600,269 600,600 0,331 -269,600 -600,600 -331,0 -600,-269 -600,-600 0,-331 269,-600 600,-600zm0 200c-221,0 -400,179 -400,400 0,221 179,400 400,400 221,0 400,-179 400,-400 0,-221 -179,-400 -400,-400zm-2600 -200c331,0 600,269 600,600 0,331 -269,600 -600,600 -331,0 -600,-269 -600,-600 0,-331 269,-600 600,-600zm0 200c-221,0 -400,179 -400,400 0,221 179,400 400,400 221,0 400,-179 400,-400 0,-221 -179,-400 -400,-400z"/>
</svg>