<?xml version="1.0" encoding="UTF-8"?>
<!DOCTYPE svg PUBLIC "-//W3C//DTD SVG 1.1//EN" "http://www.w3.org/Graphics/SVG/1.1/DTD/svg11.dtd">
<svg xmlns="http://www.w3.org/2000/svg" xml:space="preserve" width="580px" height="580px" shape-rendering="geometricPrecision" text-rendering="geometricPrecision" image-rendering="optimizeQuality" fill-rule="nonzero" clip-rule="nonzero" viewBox="0 0 5800 5800" xmlns:xlink="http://www.w3.org/1999/xlink">
	<title>bus2 icon</title>
	<desc>bus2 icon from the IconExperience.com I-Collection. Copyright by INCORS GmbH (www.incors.com).</desc>
		<path id="curve29"  d="M4200 3900c331,0 600,269 600,600 0,331 -269,600 -600,600 -331,0 -600,-269 -600,-600 0,-331 269,-600 600,-600zm-2600 0c331,0 600,269 600,600 0,331 -269,600 -600,600 -331,0 -600,-269 -600,-600 0,-331 269,-600 600,-600z"/>
	<path id="curve28"  d="M2400 3300c55,0 100,-45 100,-100l0 -800c0,-55 -45,-100 -100,-100l-600 0c-55,0 -100,45 -100,100l0 800c0,55 45,100 100,100l600 0zm3297 -124c2,8 3,16 3,24l0 1300c0,55 -45,100 -100,100l-606 0c4,-33 6,-66 6,-100 0,-442 -358,-800 -800,-800 -442,0 -800,358 -800,800 0,34 2,67 6,100l-1012 0c4,-33 6,-66 6,-100 0,-442 -358,-800 -800,-800 -442,0 -800,358 -800,800 0,34 2,67 6,100l-606 0c-55,0 -100,-45 -100,-100l0 -2500c0,-55 45,-100 100,-100l5100 0c49,0 90,35 98,81l299 1195zm-197 524l0 -488 -228 -912 -472 0c-55,0 -100,45 -100,100l0 900c0,26 10,51 29,71l301 299c18,18 43,30 70,30l400 0zm-4700 -1400c-55,0 -100,45 -100,100l0 800c0,55 45,100 100,100l600 0c55,0 100,-45 100,-100l0 -800c0,-55 -45,-100 -100,-100l-600 0zm2600 0l-600 0c-55,0 -100,45 -100,100 0,267 0,533 0,800 0,55 45,100 100,100l600 0c55,0 100,-45 100,-100 0,-267 0,-533 0,-800 0,-55 -45,-100 -100,-100zm1000 1000c55,0 100,-45 100,-100l0 -800c0,-55 -45,-100 -100,-100l-600 0c-55,0 -100,45 -100,100l0 800c0,55 45,100 100,100l600 0z"/>
</svg>