<?xml version="1.0" encoding="UTF-8"?>
<!DOCTYPE svg PUBLIC "-//W3C//DTD SVG 1.1//EN" "http://www.w3.org/Graphics/SVG/1.1/DTD/svg11.dtd">
<svg xmlns="http://www.w3.org/2000/svg" xml:space="preserve" width="580px" height="580px" shape-rendering="geometricPrecision" text-rendering="geometricPrecision" image-rendering="optimizeQuality" fill-rule="nonzero" clip-rule="nonzero" viewBox="0 0 5800 5800" xmlns:xlink="http://www.w3.org/1999/xlink">
	<title>bus icon</title>
	<desc>bus icon from the IconExperience.com I-Collection. Copyright by INCORS GmbH (www.incors.com).</desc>
		<path id="curve28"  d="M1700 5134l0 266c0,55 -45,100 -100,100l-800 0c-55,0 -100,-45 -100,-100l0 -317c31,11 65,17 100,17l832 0 68 34zm3400 -51l0 317c0,55 -45,100 -100,100l-800 0c-55,0 -100,-45 -100,-100l0 -216 168 -84 732 0c35,0 69,-6 100,-17zm-3600 -4184c0,67 0,134 0,201l2800 0c0,-67 0,-134 0,-201l-2800 0zm3600 -299c0,1400 0,2800 0,4200 0,55 -45,100 -100,100l-777 0 -378 189c-15,7 -30,11 -45,11l-1700 0c-19,0 -38,-6 -53,-15l-370 -185 -877 0c-55,0 -100,-45 -100,-100l0 -4200c0,-55 45,-100 100,-100l4200 0c55,0 100,45 100,100zm-400 900l-3600 0c-111,0 -200,89 -200,200l0 1300c0,275 225,500 500,500l3000 0c275,0 500,-225 500,-500l0 -1300c0,-110 -90,-200 -200,-200zm200 2500l-500 0 -600 400 1100 0 0 -400zm-4000 0l0 400 1100 0 -600 -400 -500 0z"/>
</svg>