<?xml version="1.0" encoding="UTF-8"?>
<!DOCTYPE svg PUBLIC "-//W3C//DTD SVG 1.1//EN" "http://www.w3.org/Graphics/SVG/1.1/DTD/svg11.dtd">
<svg xmlns="http://www.w3.org/2000/svg" xml:space="preserve" width="580px" height="580px" shape-rendering="geometricPrecision" text-rendering="geometricPrecision" image-rendering="optimizeQuality" fill-rule="nonzero" clip-rule="nonzero" viewBox="0 0 5800 5800" xmlns:xlink="http://www.w3.org/1999/xlink">
	<title>businessmen icon</title>
	<desc>businessmen icon from the IconExperience.com I-Collection. Copyright by INCORS GmbH (www.incors.com).</desc>
	<path id="curve0" d="M4416 3083c-32,25 -67,47 -104,65 -39,20 -82,36 -126,48l75 100 181 -182c-10,-10 -18,-20 -26,-31zm-691 1169c3,-226 21,-547 150,-804l-57 -58 -88 117 -69 92 -82 -81 -223 -223c94,224 170,523 216,757 -147,-149 -383,-227 -579,-286 -69,-20 -127,-38 -195,-80 -7,-4 -20,-10 -24,-17 5,-5 10,-10 16,-16 60,-22 61,-19 65,-80 96,-132 140,-279 177,-421 28,-24 53,-51 75,-80 77,-24 124,-46 193,-86 48,-28 39,-151 31,-254 -2,-24 -4,-48 -5,-69 -35,-41 -63,-86 -85,-134 33,-164 43,-314 33,-454 48,25 52,71 64,117 35,134 72,276 157,359 20,20 30,46 30,72 0,0 12,207 12,226 31,51 80,91 138,120 80,40 176,60 274,60 97,0 194,-20 274,-60 59,-29 108,-69 139,-119 2,-74 15,-153 13,-225 0,-29 11,-55 30,-74 86,-84 122,-223 155,-354l16 -59c8,-30 29,-54 55,-66 95,-49 122,-177 94,-272 -5,-18 -5,-35 -1,-52 48,-197 55,-363 25,-504 -77,-354 -359,-521 -707,-543 -194,-12 -380,26 -471,117 -18,17 -40,27 -62,29 -20,3 -39,7 -57,11 -154,38 -242,130 -286,247 -59,157 -46,355 -16,519 -58,-113 -134,-213 -224,-302 4,-101 20,-199 53,-287 67,-177 198,-315 425,-370 16,-5 33,-8 50,-11 138,-117 368,-167 599,-152 440,27 795,257 891,699 36,165 30,353 -21,570 38,168 -18,360 -165,458 -40,153 -78,309 -184,433 -2,77 -36,284 23,322 91,49 133,69 232,99 135,40 329,105 429,188 31,17 58,37 81,59 172,167 261,424 261,657 0,168 -387,305 -523,341 -351,91 -840,120 -1127,120 -40,0 -84,-1 -132,-2 -25,-67 -56,-132 -93,-194zm571 -16c35,-236 126,-652 248,-941l-223 223 -82 81 -69 -92 -86 -114c-23,21 -45,41 -59,55 129,257 147,569 150,795 39,-2 80,-4 121,-7zm-838 -1122l181 182 75 -100c-45,-12 -88,-29 -128,-49 -37,-18 -71,-40 -103,-65 -7,11 -16,22 -25,32zm-793 955l-348 434 -169 -226c-26,25 -52,47 -68,63 138,277 157,614 160,855 285,-12 641,-45 911,-115 202,-53 349,-118 349,-196 0,-104 -20,-213 -61,-314 -37,-93 -91,-180 -162,-248 -72,-71 -284,-139 -398,-173 -73,-22 -138,-41 -214,-80zm-905 1126c3,-241 22,-578 160,-855l-66 -66 -171 229 -348 -434c-76,39 -141,58 -214,80 -113,34 -326,102 -398,173 -71,68 -125,154 -162,248 -41,100 -61,210 -61,314 0,78 147,143 349,196 270,70 626,103 911,115zm-407 -1460c2,-49 -3,-106 -7,-159 -2,-26 -4,-52 -5,-76 -109,-126 -152,-291 -193,-447l-4 -17c-74,-49 -126,-120 -156,-200 -34,-89 -40,-191 -19,-284 -15,-64 -28,-130 -38,-196 -63,-445 32,-898 543,-990 147,-125 394,-178 642,-161 255,17 517,106 675,264 302,303 334,684 240,1083 22,93 15,195 -18,284 -31,80 -83,151 -157,200l-5 22c-40,153 -82,315 -192,442 -1,30 -3,61 -6,93 -4,53 -7,103 -6,157 3,40 9,82 46,105 90,57 160,78 243,103 153,45 375,118 481,221 90,88 160,199 207,317 51,126 76,260 76,388 0,191 -210,313 -499,389 -374,97 -895,127 -1201,127 -306,0 -827,-30 -1201,-127 -289,-76 -499,-198 -499,-389 0,-128 26,-262 76,-388 47,-119 117,-229 207,-317 106,-102 329,-176 481,-221 100,-30 155,-52 246,-105 34,-18 43,-82 43,-118zm187 -275c0,30 3,65 5,101 4,46 8,95 8,143 88,144 289,196 447,196 158,0 359,-52 447,-195 0,-43 4,-86 7,-128 4,-43 7,-85 6,-114 0,-29 11,-55 30,-74 93,-91 131,-241 168,-381l16 -63c8,-30 29,-54 56,-66 46,-23 78,-65 96,-113 22,-59 24,-126 7,-185 -5,-18 -5,-35 -1,-52 82,-336 75,-661 -183,-918 -122,-123 -335,-193 -546,-207 -210,-14 -413,27 -512,127 -18,17 -40,27 -62,29 -408,61 -449,427 -400,768 10,68 23,136 39,201 5,19 4,38 -2,56 -16,58 -13,123 9,181 18,49 51,92 99,115 26,13 45,37 52,64 2,7 6,25 15,58 38,143 77,296 169,386 20,20 30,45 30,71zm-40 481c-1,3 -3,6 -5,8l182 229 82 -109c-93,-26 -183,-67 -259,-128zm1005 9c-2,-3 -4,-5 -6,-8 -75,60 -165,101 -258,127l82 109 182 -228z"/>
</svg>