<?xml version="1.0" encoding="UTF-8"?>
<!DOCTYPE svg PUBLIC "-//W3C//DTD SVG 1.1//EN" "http://www.w3.org/Graphics/SVG/1.1/DTD/svg11.dtd">
<svg xmlns="http://www.w3.org/2000/svg" xml:space="preserve" width="580px" height="580px" shape-rendering="geometricPrecision" text-rendering="geometricPrecision" image-rendering="optimizeQuality" fill-rule="nonzero" clip-rule="nonzero" viewBox="0 0 5800 5800" xmlns:xlink="http://www.w3.org/1999/xlink">
	<title>businessmen icon</title>
	<desc>businessmen icon from the IconExperience.com I-Collection. Copyright by INCORS GmbH (www.incors.com).</desc>
	<path id="curve0"  d="M4416 3083c8,11 16,21 26,31l-181 182 -75 -100c44,-12 87,-28 126,-48 37,-18 72,-40 104,-65zm-1145 -759c-6,66 -16,134 -30,205 22,48 50,93 85,134 1,21 3,45 5,69 8,103 17,226 -31,254 -69,40 -116,62 -193,86 -22,29 -47,56 -75,80 -37,142 -81,289 -177,421 -4,61 -5,58 -65,80 -6,6 -11,11 -16,16 4,7 17,13 24,17 68,42 126,60 195,80 196,59 432,137 579,286 -46,-234 -122,-533 -216,-757l223 223 82 81 69 -92 88 -117 57 58c-129,257 -147,578 -150,804 37,62 68,127 93,194 48,1 92,2 132,2 287,0 776,-29 1127,-120 136,-36 523,-173 523,-341 0,-233 -89,-490 -261,-657 -23,-22 -50,-42 -81,-59 -100,-83 -294,-148 -429,-188 -99,-30 -141,-50 -232,-99 -59,-38 -25,-245 -23,-322 106,-124 144,-280 184,-433 147,-98 203,-290 165,-458 51,-217 57,-405 21,-570 -96,-442 -451,-672 -891,-699 -231,-15 -461,35 -599,152 -17,3 -34,6 -50,11 -227,55 -358,193 -425,370 -33,88 -49,186 -53,287 165,162 274,354 323,581 30,137 35,282 22,421zm1025 1912c-41,3 -82,5 -121,7 -3,-226 -21,-538 -150,-795 14,-14 36,-34 59,-55l86 114 69 92 82 -81 223 -223c-122,289 -213,705 -248,941zm-838 -1122c9,-10 18,-21 25,-32 32,25 66,47 103,65 40,20 83,37 128,49l-75 100 -181 -182zm-793 955l-348 434 -169 -226c-26,25 -52,47 -68,63 138,277 157,614 160,855 285,-12 641,-45 911,-115 202,-53 349,-118 349,-196 0,-104 -20,-213 -61,-314 -37,-93 -91,-180 -162,-248 -72,-71 -284,-139 -398,-173 -73,-22 -138,-41 -214,-80zm-905 1126c3,-241 22,-578 160,-855l-66 -66 -171 229 -348 -434c-76,39 -141,58 -214,80 -113,34 -326,102 -398,173 -71,68 -125,154 -162,248 -41,100 -61,210 -61,314 0,78 147,143 349,196 270,70 626,103 911,115zm-407 -1460c2,-49 -3,-106 -7,-159 -2,-26 -4,-52 -5,-76 -109,-126 -152,-291 -193,-447l-4 -17c-74,-49 -126,-120 -156,-200 -34,-89 -40,-191 -19,-284 -15,-64 -28,-130 -38,-196 -63,-445 32,-898 543,-990 147,-125 394,-178 642,-161 255,17 517,106 675,264 302,303 334,684 240,1083 22,93 15,195 -18,284 -31,80 -83,151 -157,200l-5 22c-40,153 -82,315 -192,442 -1,30 -3,61 -6,93 -4,53 -7,103 -6,157 3,40 9,82 46,105 90,57 160,78 243,103 153,45 375,118 481,221 90,88 160,199 207,317 51,126 76,260 76,388 0,191 -210,313 -499,389 -374,97 -895,127 -1201,127 -306,0 -827,-30 -1201,-127 -289,-76 -499,-198 -499,-389 0,-128 26,-262 76,-388 47,-119 117,-229 207,-317 106,-102 329,-176 481,-221 100,-30 155,-52 246,-105 34,-18 43,-82 43,-118zm147 206c-1,3 -3,6 -5,8l182 229 82 -109c-93,-26 -183,-67 -259,-128zm1005 9c-2,-3 -4,-5 -6,-8 -75,60 -165,101 -258,127l82 109 182 -228z"/>
</svg>