<?xml version="1.0" encoding="UTF-8"?>
<!DOCTYPE svg PUBLIC "-//W3C//DTD SVG 1.1//EN" "http://www.w3.org/Graphics/SVG/1.1/DTD/svg11.dtd">
<svg xmlns="http://www.w3.org/2000/svg" xml:space="preserve" width="580px" height="580px" shape-rendering="geometricPrecision" text-rendering="geometricPrecision" image-rendering="optimizeQuality" fill-rule="nonzero" clip-rule="nonzero" viewBox="0 0 5800 5800" xmlns:xlink="http://www.w3.org/1999/xlink">
	<title>businesswomen icon</title>
	<desc>businesswomen icon from the IconExperience.com I-Collection. Copyright by INCORS GmbH (www.incors.com).</desc>
	<path id="curve0"  d="M2619 4631c42,0 80,-27 94,-69 66,-196 -34,-400 -110,-558 -27,-56 -51,-105 -57,-132 -3,-25 -15,-48 -33,-64 -56,-49 -89,-115 -109,-186 161,-30 286,-77 381,-145 173,-125 246,-334 246,-654 0,-378 -101,-817 -345,-1127 -186,-235 -458,-396 -836,-396 -378,0 -650,161 -836,396 -244,310 -345,749 -345,1127 0,320 73,529 246,654 96,69 223,116 386,146 -16,57 -46,108 -99,138 -51,44 -73,135 -91,171 -76,159 -197,411 -124,630 14,42 52,69 94,69 92,0 195,-17 297,-34 148,-24 296,-48 372,-15l0 616c34,1 68,2 100,2 32,0 66,-1 100,-2l0 -617c79,-39 226,-13 373,14 102,18 204,36 296,36zm-1379 -502c-42,95 -79,204 -77,298 59,-6 121,-16 183,-26 45,-8 89,-15 133,-21 -89,-71 -177,-154 -239,-251zm1213 23c-62,86 -149,153 -244,222 49,7 99,16 149,25 60,10 120,21 177,27 -1,-86 -41,-185 -82,-274zm-603 -3052c447,0 770,192 992,473 275,349 389,834 389,1250 0,388 -98,648 -330,816 -96,69 -214,120 -356,156 71,49 150,93 229,137 314,174 628,349 628,855 0,204 -196,349 -469,446 -323,114 -766,167 -1083,167 -317,0 -760,-53 -1083,-167 -273,-97 -469,-242 -469,-446 0,-506 314,-681 628,-855 79,-44 158,-88 229,-137 -143,-36 -260,-87 -356,-156 -232,-168 -330,-428 -330,-816 0,-416 114,-901 389,-1250 222,-281 545,-473 992,-473zm-493 2797c66,-55 107,-127 132,-206 28,-89 34,-184 34,-270l0 -42 -30 -29c-57,-57 -102,-129 -139,-208 -38,-82 -67,-172 -91,-259l-12 -44 -40 -20c-101,-50 -144,-162 -128,-269 118,-57 149,-57 257,-55 37,0 79,1 83,1l342 0c237,0 402,-211 510,-397l2 11c33,170 71,372 342,453 11,104 -33,208 -130,256l-40 20 -12 44c-23,86 -52,175 -90,257 -36,79 -81,152 -140,210l-31 30 1 43c3,89 13,185 41,275 26,80 64,156 123,221 -30,138 -154,226 -293,325 -66,48 -136,97 -202,155 -173,-127 -451,-292 -489,-502zm3408 -110c41,0 80,-26 94,-68 61,-183 -29,-372 -100,-518 -16,-39 -46,-85 -55,-126 -3,-29 -21,-91 -49,-108 -46,-26 -71,-67 -86,-114 -14,-48 -19,-102 -21,-156 58,-65 103,-140 139,-218 35,-75 62,-153 84,-229 73,-48 126,-115 156,-191 38,-94 42,-200 13,-300l-17 -58 -59 -12c-181,-35 -206,-170 -227,-281 -22,-113 -41,-212 -145,-264l-89 -44 -45 89c-38,75 -94,187 -167,279 -63,78 -138,140 -220,140l-318 0c-56,0 -66,0 -75,0 -150,-2 -181,-2 -367,90l-38 19 -1 2c-50,-95 -108,-186 -174,-270 -31,-39 -64,-77 -98,-113 55,-142 129,-277 222,-395 208,-262 510,-441 928,-441 418,0 720,179 928,441 257,325 363,777 363,1163 0,362 -92,605 -310,762 -86,62 -191,109 -317,142 63,42 131,80 198,117 294,163 588,326 588,800 0,193 -184,329 -441,420 -299,105 -692,155 -1009,155 -162,0 -327,-13 -488,-36 -90,-330 -323,-497 -575,-641 90,-60 168,-135 233,-222 1,40 8,80 21,118 14,42 53,68 94,68 86,1 182,-15 278,-31 133,-22 267,-44 337,-16l0 558c67,3 133,3 200,0l0 -560c72,-32 205,-8 338,16 94,17 189,34 277,33zm-1360 -1325c3,6 6,13 9,19 37,78 82,152 138,216 -1,53 -7,107 -22,155 -15,48 -41,90 -85,115 -8,7 -15,15 -20,23 4,-53 6,-109 6,-167 0,-117 -8,-238 -26,-361zm194 640c61,-51 99,-118 122,-191 26,-83 32,-172 32,-253l0 -41 -30 -30c-52,-51 -94,-118 -128,-190 -35,-77 -62,-160 -84,-239l-12 -44 -40 -20c-90,-44 -129,-142 -116,-238 107,-50 135,-50 233,-49l77 1 318 0c155,0 279,-96 375,-215 36,-45 68,-93 96,-140 30,157 69,341 317,416 8,93 -32,183 -118,225l-40 20 -12 44c-22,79 -48,161 -83,237 -33,72 -75,139 -129,192l-31 31 1 43c3,82 7,169 31,249 22,74 60,141 124,194 -21,133 -139,217 -272,312 -60,42 -123,87 -184,140 -21,-16 -45,-33 -70,-50 -142,-98 -343,-238 -377,-404zm-115 228c-35,81 -66,173 -65,253 51,-6 106,-15 161,-24 36,-6 72,-12 108,-17 -76,-61 -150,-131 -204,-212zm1125 20c-54,71 -126,129 -206,187 40,6 80,13 120,20 54,9 107,19 156,25 -3,-73 -35,-156 -70,-232z"/>
</svg>