<?xml version="1.0" encoding="UTF-8"?>
<!DOCTYPE svg PUBLIC "-//W3C//DTD SVG 1.1//EN" "http://www.w3.org/Graphics/SVG/1.1/DTD/svg11.dtd">
<svg xmlns="http://www.w3.org/2000/svg" xml:space="preserve" width="580px" height="580px" shape-rendering="geometricPrecision" text-rendering="geometricPrecision" image-rendering="optimizeQuality" fill-rule="nonzero" clip-rule="nonzero" viewBox="0 0 5800 5800" xmlns:xlink="http://www.w3.org/1999/xlink">
	<title>businesspeople icon</title>
	<desc>businesspeople icon from the IconExperience.com I-Collection. Copyright by INCORS GmbH (www.incors.com).</desc>
	<path id="curve0"  d="M2665 4069l-348 434 -169 -226c-26,25 -52,47 -68,63 138,277 157,614 160,855 285,-12 641,-45 911,-115 202,-53 349,-118 349,-196 0,-104 -20,-213 -61,-314 -37,-93 -91,-180 -162,-248 -72,-71 -284,-139 -398,-173 -73,-22 -138,-41 -214,-80zm1585 -131l0 560c39,-1 80,-3 122,-6 16,-229 85,-390 156,-549 -112,-19 -217,-32 -278,-5zm-99 762c-89,0 -178,-4 -267,-11 -15,-90 -40,-180 -74,-266 -44,-110 -104,-214 -180,-306 -15,-37 -31,-73 -47,-110l-14 -29c-24,3 -49,5 -73,7 -52,-39 -108,-70 -164,-95 -32,-130 1,-268 47,-388 -137,76 -273,153 -365,270 -70,-21 -135,-39 -199,-76 113,-171 293,-271 473,-371 67,-37 135,-75 198,-117 -126,-33 -231,-80 -317,-142 -13,-9 -25,-18 -37,-28 94,-140 128,-315 103,-482 52,-244 56,-460 14,-653 -37,-172 -109,-323 -212,-456 50,-109 112,-213 185,-306 208,-262 510,-441 928,-441 418,0 720,179 928,441 257,325 363,777 363,1163 0,362 -92,605 -310,762 -86,62 -191,109 -317,142 63,42 131,80 198,117 294,163 588,326 588,800 0,193 -184,329 -441,420 -301,105 -713,155 -1008,155zm-101 -202l0 -558c-59,-24 -164,-12 -276,6 70,158 138,318 154,546 42,3 83,5 122,6zm-351 -1196c39,192 295,342 447,454 61,-53 124,-98 184,-140 133,-95 251,-179 272,-312 -64,-53 -102,-120 -124,-194 -29,-94 -29,-195 -32,-292 74,-73 116,-127 160,-223 42,-91 69,-185 95,-281 66,-33 111,-55 141,-130 15,-35 20,-75 17,-115 -248,-75 -287,-259 -317,-416 -28,47 -60,95 -96,140 -96,119 -220,215 -375,215l-395 -1c-98,-1 -126,-1 -233,49 -6,44 -1,89 15,128 30,75 75,97 141,130 27,97 53,191 96,283 44,94 86,148 158,220 0,100 -1,196 -32,294 -23,73 -61,140 -122,191zm1166 685c-44,1 -89,-4 -134,-10 -74,167 -137,309 -157,494 182,-23 367,-61 519,-115 179,-63 307,-141 307,-231 0,-357 -242,-491 -484,-625l-14 -8c58,130 106,280 57,427 -14,42 -53,68 -94,68zm-1281 -457c-35,81 -66,173 -65,253 90,-10 179,-28 269,-41 -76,-61 -150,-131 -204,-212zm1125 20c-54,71 -126,129 -206,187 92,13 184,34 276,45 -3,-73 -35,-156 -70,-232zm-2949 1645c3,-241 22,-578 160,-855l-66 -66 -171 229 -348 -434c-76,39 -141,58 -214,80 -113,34 -326,102 -398,173 -71,68 -125,154 -162,248 -41,100 -61,210 -61,314 0,78 147,143 349,196 270,70 626,103 911,115zm-407 -1460c2,-49 -3,-106 -7,-159 -2,-26 -4,-52 -5,-76 -109,-126 -152,-291 -193,-447l-4 -17c-74,-49 -126,-120 -156,-200 -34,-89 -40,-191 -19,-284 -15,-64 -28,-130 -38,-196 -63,-445 32,-898 543,-990 147,-125 394,-178 642,-161 255,17 517,106 675,264 302,303 334,684 240,1083 22,93 15,195 -18,284 -31,80 -83,151 -157,200l-5 22c-40,153 -82,315 -192,442 -1,30 -3,61 -6,93 -4,53 -7,103 -6,157 3,40 9,82 46,105 90,57 160,78 243,103 153,45 375,118 481,221 90,88 160,199 207,317 51,126 76,260 76,388 0,191 -210,313 -499,389 -374,97 -895,127 -1201,127 -306,0 -827,-30 -1201,-127 -289,-76 -499,-198 -499,-389 0,-128 26,-262 76,-388 47,-119 117,-229 207,-317 106,-102 329,-176 481,-221 100,-30 155,-52 246,-105 34,-18 43,-82 43,-118zm187 -275c0,30 3,65 5,101 4,46 8,95 8,143 88,144 289,196 447,196 158,0 359,-52 447,-195 0,-43 4,-86 7,-128 4,-43 7,-85 6,-114 0,-29 11,-55 30,-74 93,-91 131,-241 168,-381l16 -63c8,-30 29,-54 56,-66 46,-23 78,-65 96,-113 22,-59 24,-126 7,-185 -5,-18 -5,-35 -1,-52 82,-336 75,-661 -183,-918 -122,-123 -335,-193 -546,-207 -210,-14 -413,27 -512,127 -18,17 -40,27 -62,29 -408,61 -449,427 -400,768 10,68 23,136 39,201 5,19 4,38 -2,56 -16,58 -13,123 9,181 18,49 51,92 99,115 26,13 45,37 52,64 2,7 6,25 15,58 38,143 77,296 169,386 20,20 30,45 30,71zm-40 481c-1,3 -3,6 -5,8l182 229 82 -109c-93,-26 -183,-67 -259,-128zm1005 9c-2,-3 -4,-5 -6,-8 -75,60 -165,101 -258,127l82 109 182 -228z"/>
</svg>