<?xml version="1.0" encoding="UTF-8"?>
<!DOCTYPE svg PUBLIC "-//W3C//DTD SVG 1.1//EN" "http://www.w3.org/Graphics/SVG/1.1/DTD/svg11.dtd">
<svg xmlns="http://www.w3.org/2000/svg" xml:space="preserve" width="580px" height="580px" shape-rendering="geometricPrecision" text-rendering="geometricPrecision" image-rendering="optimizeQuality" fill-rule="nonzero" clip-rule="nonzero" viewBox="0 0 5800 5800" xmlns:xlink="http://www.w3.org/1999/xlink">
	<title>businessperson2 icon</title>
	<desc>businessperson2 icon from the IconExperience.com I-Collection. Copyright by INCORS GmbH (www.incors.com).</desc>
		<path id="curve28"  d="M3104 4104c-40,37 -80,72 -104,96 178,356 198,791 200,1093 50,-2 103,-4 157,-8 46,-330 185,-976 373,-1374l-441 441 -185 -248zm-908 -350l293 294 153 -203c-136,-31 -269,-90 -374,-183 -17,35 -41,66 -72,92zm504 346l-189 252 -441 -441c188,398 327,1044 373,1374 54,4 107,6 157,8 2,-302 22,-737 200,-1093l-100 -100zm904 -345c-32,-27 -56,-58 -74,-92 -104,93 -236,151 -371,182l152 203 293 -293zm739 80c132,49 307,109 409,208 229,224 348,565 348,876 0,236 -502,369 -705,422 -465,121 -1113,159 -1495,159 -382,0 -1030,-38 -1495,-159 -203,-53 -705,-186 -705,-422 0,-311 119,-652 348,-876 102,-99 277,-159 409,-208 206,-76 400,-111 593,-222 89,-50 66,-259 58,-370 -3,-36 -6,-71 -7,-103 -137,-154 -191,-360 -242,-556 -1,-6 -3,-14 -8,-30 -92,-58 -156,-145 -193,-243 -41,-109 -48,-234 -22,-346 -19,-81 -35,-165 -47,-249 -36,-250 -33,-507 48,-721 85,-226 252,-402 543,-473 24,-6 49,-11 74,-16 177,-155 482,-221 789,-200 313,21 635,130 828,323 163,164 272,355 322,583 47,217 39,465 -29,753 27,113 20,237 -22,346 -37,98 -101,185 -193,243 -5,17 -7,27 -10,37 -49,191 -102,394 -239,549 -1,40 -5,81 -8,124 -2,21 -4,42 -5,63 -3,79 -20,236 60,285 210,111 381,143 596,223z"/>
</svg>