<?xml version="1.0" encoding="UTF-8"?>
<!DOCTYPE svg PUBLIC "-//W3C//DTD SVG 1.1//EN" "http://www.w3.org/Graphics/SVG/1.1/DTD/svg11.dtd">
<svg xmlns="http://www.w3.org/2000/svg" xml:space="preserve" width="580px" height="580px" shape-rendering="geometricPrecision" text-rendering="geometricPrecision" image-rendering="optimizeQuality" fill-rule="nonzero" clip-rule="nonzero" viewBox="0 0 5800 5800" xmlns:xlink="http://www.w3.org/1999/xlink">
	<title>businesspeople2 icon</title>
	<desc>businesspeople2 icon from the IconExperience.com I-Collection. Copyright by INCORS GmbH (www.incors.com).</desc>
	<path id="curve0" d="M2196 5282c20,-241 97,-409 173,-579 -16,-3 -31,-6 -46,-8 -147,-27 -294,-53 -373,-14l0 617c78,-2 161,-8 246,-16zm-446 -600c-76,-33 -224,-9 -372,15 -15,3 -30,5 -46,8 76,169 152,337 172,577 85,8 168,14 246,16l0 -616zm595 -684c-70,-56 -111,-128 -135,-208 -30,-100 -31,-206 -34,-310 79,-77 124,-138 171,-240 45,-98 74,-198 102,-301 71,-36 120,-61 152,-142 17,-42 23,-88 18,-134 -248,-74 -300,-235 -344,-464 -108,186 -273,397 -510,397l-342 0c-4,0 -46,-1 -83,-1 -108,-2 -139,-2 -257,55 -8,50 -2,101 16,147 32,81 80,106 152,142 28,104 57,205 103,303 47,101 92,161 169,237 0,107 -2,209 -34,312 -25,79 -66,151 -132,206 39,212 311,372 489,502 66,-58 136,-107 202,-155 146,-104 275,-196 297,-346zm-1105 231c-42,95 -79,204 -77,298 106,-11 211,-33 316,-47 -89,-71 -177,-154 -239,-251zm1213 23c-62,86 -149,153 -244,222 109,15 217,41 326,52 -1,-86 -41,-185 -82,-274zm-603 -3052c447,0 770,192 992,473 275,349 389,834 389,1250 0,388 -98,648 -330,816 -96,69 -214,120 -356,156 71,49 150,93 229,137 314,174 628,349 628,856 0,203 -196,348 -469,445 -323,114 -766,167 -1083,167 -317,0 -760,-53 -1083,-167 -273,-97 -469,-242 -469,-445 0,-507 314,-682 628,-856 79,-44 158,-88 229,-137 -143,-36 -260,-87 -356,-156 -232,-168 -330,-428 -330,-816 0,-416 114,-901 389,-1250 222,-281 545,-473 992,-473zm548 2523c164,-30 291,-77 387,-146 173,-125 246,-334 246,-654 0,-378 -101,-817 -345,-1127 -186,-235 -458,-396 -836,-396 -378,0 -650,161 -836,396 -244,310 -345,749 -345,1127 0,320 73,529 246,654 96,69 223,116 386,146 14,-50 20,-107 21,-163 -61,-69 -110,-149 -149,-234 -38,-82 -68,-167 -92,-251 -79,-51 -135,-123 -167,-204 -40,-99 -44,-213 -14,-317l12 -42 39 -20c199,-99 232,-99 392,-96 10,0 21,0 80,0l342 0c194,0 347,-305 423,-457l45 -89 89 44c109,55 129,159 151,279 24,123 52,270 251,310l59 12 17 59c31,105 26,218 -13,317 -33,81 -89,153 -168,204 -24,82 -53,167 -90,249 -40,85 -88,165 -151,235 2,57 7,114 20,164zm2235 -487l-251 314 -81 100 -77 -103 -90 -120c-17,16 -32,30 -43,41 134,268 150,596 152,826 264,-12 587,-45 833,-111 188,-50 324,-111 324,-183 0,-187 -51,-392 -189,-526 -52,-50 -151,-86 -232,-115 -48,-18 -96,-33 -145,-48 -69,-21 -130,-39 -201,-75zm-171 -656c101,-99 139,-284 174,-420 8,-30 29,-53 55,-65 97,-50 124,-181 96,-278 -5,-18 -5,-35 -1,-52 49,-199 56,-368 25,-512 -78,-359 -363,-527 -714,-551 -198,-13 -389,26 -482,119 -18,18 -40,27 -62,29 -21,3 -40,7 -58,12 -157,38 -246,131 -291,251 -50,131 -51,297 -27,462 9,64 22,129 37,190 5,19 4,39 -2,56 -5,19 -8,39 -9,59 -63,-131 -141,-255 -234,-366 -15,-165 -5,-330 48,-471 68,-179 200,-319 430,-375 17,-4 34,-8 51,-11 140,-120 376,-170 613,-154 441,30 799,261 895,708 36,167 31,357 -21,578 39,169 -18,363 -167,462 -41,156 -79,315 -186,440 -3,74 -15,149 -12,223 2,40 4,86 41,109 85,53 152,73 230,96 146,44 357,114 459,212 177,173 250,426 250,669 0,185 -199,303 -474,376 -349,94 -835,124 -1126,124 -127,0 -291,-6 -465,-20 -31,-80 -71,-150 -117,-212 127,14 254,23 369,27 2,-230 17,-558 152,-827l-59 -60 -181 242 -299 -373c21,-107 31,-225 31,-354 0,-268 -44,-564 -144,-842 8,6 16,11 25,16 50,24 54,71 67,118 35,136 73,280 159,365 20,20 30,46 30,71 0,0 12,212 12,231 83,134 272,183 420,183 148,0 337,-49 419,-183 2,-75 15,-155 14,-228 -1,-29 10,-55 29,-74zm-936 536l167 209 70 -93c-85,-23 -167,-61 -237,-116zm947 1l0 -1c-47,37 -100,67 -158,90 -25,10 -51,19 -78,26l70 93 166 -208z"/>
</svg>