<?xml version="1.0" encoding="UTF-8"?>
<!DOCTYPE svg PUBLIC "-//W3C//DTD SVG 1.1//EN" "http://www.w3.org/Graphics/SVG/1.1/DTD/svg11.dtd">
<svg xmlns="http://www.w3.org/2000/svg" xml:space="preserve" width="580px" height="580px" shape-rendering="geometricPrecision" text-rendering="geometricPrecision" image-rendering="optimizeQuality" fill-rule="nonzero" clip-rule="nonzero" viewBox="0 0 5800 5800" xmlns:xlink="http://www.w3.org/1999/xlink">
	<title>businesspeople2 icon</title>
	<desc>businesspeople2 icon from the IconExperience.com I-Collection. Copyright by INCORS GmbH (www.incors.com).</desc>
	<path id="curve0"  d="M2619 4731c42,0 80,-27 94,-68 66,-197 -34,-401 -110,-559 -27,-56 -51,-105 -57,-132 -3,-25 -15,-48 -33,-64 -56,-49 -89,-115 -109,-186 161,-30 286,-77 381,-145 173,-125 246,-334 246,-654 0,-378 -101,-817 -345,-1127 -186,-235 -458,-396 -836,-396 -378,0 -650,161 -836,396 -244,310 -345,749 -345,1127 0,320 73,529 246,654 96,69 223,116 386,146 -16,57 -46,108 -99,138 -51,44 -73,135 -91,171 -76,159 -197,411 -124,631 14,41 52,68 94,68 92,0 195,-17 297,-34 148,-24 296,-48 372,-15l0 616c34,1 68,2 100,2 32,0 66,-1 100,-2l0 -617c79,-39 226,-13 373,14 102,18 204,36 296,36zm-1379 -502c-42,95 -79,204 -77,298 59,-6 121,-16 183,-26 45,-8 89,-15 133,-21 -89,-71 -177,-154 -239,-251zm1213 23c-62,86 -149,153 -244,222 49,7 99,16 149,25 60,10 120,21 177,27 -1,-86 -41,-185 -82,-274zm-603 -3052c447,0 770,192 992,473 275,349 389,834 389,1250 0,388 -98,648 -330,816 -96,69 -214,120 -356,156 71,49 150,93 229,137 314,174 628,349 628,856 0,203 -196,348 -469,445 -323,114 -766,167 -1083,167 -317,0 -760,-53 -1083,-167 -273,-97 -469,-242 -469,-445 0,-507 314,-682 628,-856 79,-44 158,-88 229,-137 -143,-36 -260,-87 -356,-156 -232,-168 -330,-428 -330,-816 0,-416 114,-901 389,-1250 222,-281 545,-473 992,-473zm-493 2797c66,-55 107,-127 132,-206 28,-89 34,-184 34,-270l0 -42 -30 -29c-57,-57 -102,-129 -139,-208 -38,-82 -67,-172 -91,-259l-12 -44 -40 -20c-101,-50 -144,-162 -128,-269 118,-57 149,-57 257,-55 37,0 79,1 83,1l342 0c237,0 402,-211 510,-397l2 11c33,170 71,372 342,453 11,104 -33,208 -130,256l-40 20 -12 44c-23,86 -52,175 -90,257 -36,79 -81,152 -140,210l-31 30 1 43c3,89 13,185 41,275 26,80 64,156 123,221 -30,138 -154,226 -293,325 -66,48 -136,97 -202,155 -173,-127 -451,-292 -489,-502zm3276 -761c71,36 132,54 201,75 49,15 97,30 145,48 81,29 180,65 232,115 138,134 189,339 189,526 0,72 -136,133 -324,183 -246,66 -569,99 -833,111 -2,-230 -18,-558 -152,-826 11,-11 26,-25 43,-41l167 223 332 -414zm-1430 -1356c31,66 59,133 84,201 100,278 144,574 144,842 0,129 -10,247 -31,354l299 373 181 -242 59 60c-135,269 -150,597 -152,827 -115,-4 -242,-13 -369,-27 46,62 86,132 117,212 174,14 338,20 465,20 291,0 777,-30 1126,-124 275,-73 474,-191 474,-376 0,-243 -73,-496 -250,-669 -102,-98 -313,-168 -459,-212 -78,-23 -145,-43 -230,-96 -37,-23 -39,-69 -41,-109 -3,-74 9,-149 12,-223 107,-125 145,-284 186,-440 149,-99 206,-293 167,-462 52,-221 57,-411 21,-578 -96,-447 -454,-678 -895,-708 -237,-16 -473,34 -613,154 -17,3 -34,7 -51,11 -230,56 -362,196 -430,375 -53,141 -63,306 -48,471 93,111 171,235 234,366zm323 1236c70,55 152,93 237,116l-70 93 -167 -209zm947 1l-166 208 -70 -93c85,-23 167,-61 236,-116l0 1z"/>
</svg>