<?xml version="1.0" encoding="UTF-8"?>
<!DOCTYPE svg PUBLIC "-//W3C//DTD SVG 1.1//EN" "http://www.w3.org/Graphics/SVG/1.1/DTD/svg11.dtd">
<svg xmlns="http://www.w3.org/2000/svg" xml:space="preserve" width="580px" height="580px" shape-rendering="geometricPrecision" text-rendering="geometricPrecision" image-rendering="optimizeQuality" fill-rule="nonzero" clip-rule="nonzero" viewBox="0 0 5800 5800" xmlns:xlink="http://www.w3.org/1999/xlink">
	<title>businessperson2 icon</title>
	<desc>businessperson2 icon from the IconExperience.com I-Collection. Copyright by INCORS GmbH (www.incors.com).</desc>
		<path id="curve28"  d="M3200 5293c-2,-302 -22,-737 -200,-1093 24,-24 64,-59 104,-96l185 248 442 -441c-189,398 -328,1044 -374,1374 -54,4 -107,6 -157,8zm330 -1630c18,34 42,65 74,92l-293 293 -152 -203c73,-17 144,-41 209,-74 59,-29 114,-65 162,-108zm-888 182l-153 203 -293 -294c31,-26 55,-57 72,-92 48,42 102,78 161,108 66,33 138,58 213,75zm-609 -1383c-7,-27 -25,-50 -52,-64 -65,-32 -111,-90 -136,-157 -29,-77 -33,-165 -11,-243 6,-17 7,-37 2,-56 -20,-82 -37,-168 -50,-254 -56,-396 -20,-859 442,-973 25,-6 52,-11 81,-15 22,-2 44,-12 62,-29 130,-130 390,-184 659,-166 476,32 862,263 967,749 42,194 33,421 -33,688 0,0 0,48 1,52 23,79 20,169 -9,247 -25,66 -70,123 -133,156 -27,12 -48,35 -56,65 -3,8 -12,43 -21,79 -46,179 -95,369 -216,488 0,0 -30,66 -30,73 1,39 -3,91 -7,146 -5,54 -9,110 -10,164 -45,77 -117,137 -204,180 -111,56 -246,83 -380,83 -135,0 -270,-28 -380,-83 -87,-44 -158,-104 -203,-181 0,-62 -4,-124 -9,-183 -4,-46 -7,-90 -7,-128 0,-26 -10,-52 -30,-71 -119,-118 -170,-312 -218,-495l-19 -72zm1717 1152c-82,-51 -70,-209 -58,-350 3,-43 7,-84 8,-124 137,-155 190,-358 239,-549 3,-10 5,-20 10,-37 92,-58 156,-145 193,-243 42,-109 49,-233 22,-346 68,-288 76,-536 29,-753 -124,-574 -583,-868 -1150,-906 -307,-21 -612,45 -789,200 -25,5 -50,10 -74,16 -574,141 -664,687 -591,1194 12,84 28,168 47,249 -26,112 -19,237 22,346 37,98 101,185 193,243 5,16 7,24 8,30 51,196 105,402 242,556 1,32 4,67 7,103 11,147 25,323 -61,372 -165,103 -407,152 -590,220 -132,49 -307,109 -409,208 -229,224 -348,565 -348,876 0,236 502,369 705,422 465,121 1113,159 1495,159 382,0 1030,-38 1495,-159 203,-53 705,-186 705,-422 0,-311 -119,-652 -348,-876 -102,-99 -277,-159 -409,-208 -184,-68 -426,-118 -593,-221zm-1307 1671c-46,-330 -185,-976 -373,-1374l441 441 189 -252 100 100c-178,356 -198,791 -200,1093 -50,-2 -103,-4 -157,-8z"/>
</svg>