<?xml version="1.0" encoding="UTF-8"?>
<!DOCTYPE svg PUBLIC "-//W3C//DTD SVG 1.1//EN" "http://www.w3.org/Graphics/SVG/1.1/DTD/svg11.dtd">
<svg xmlns="http://www.w3.org/2000/svg" xml:space="preserve" width="580px" height="580px" shape-rendering="geometricPrecision" text-rendering="geometricPrecision" image-rendering="optimizeQuality" fill-rule="nonzero" clip-rule="nonzero" viewBox="0 0 5800 5800" xmlns:xlink="http://www.w3.org/1999/xlink">
	<title>businesspeople icon</title>
	<desc>businesspeople icon from the IconExperience.com I-Collection. Copyright by INCORS GmbH (www.incors.com).</desc>
	<path id="curve0"  d="M2665 4069l-348 434 -169 -226c-26,25 -52,47 -68,63 138,277 157,614 160,855 285,-12 641,-45 911,-115 202,-53 349,-118 349,-196 0,-104 -20,-213 -61,-314 -37,-93 -91,-180 -162,-248 -72,-71 -284,-139 -398,-173 -73,-22 -138,-41 -214,-80zm-905 1126c3,-241 22,-578 160,-855l-66 -66 -171 229 -348 -434c-76,39 -141,58 -214,80 -113,34 -326,102 -398,173 -71,68 -125,154 -162,248 -41,100 -61,210 -61,314 0,78 147,143 349,196 270,70 626,103 911,115zm-407 -1460c2,-49 -3,-106 -7,-159 -2,-26 -4,-52 -5,-76 -109,-126 -152,-291 -193,-447l-4 -17c-74,-49 -126,-120 -156,-200 -34,-89 -40,-191 -19,-284 -15,-64 -28,-130 -38,-196 -63,-445 32,-898 543,-990 147,-125 394,-178 642,-161 255,17 517,106 675,264 302,303 334,684 240,1083 22,93 15,195 -18,284 -31,80 -83,151 -157,200l-5 22c-40,153 -82,315 -192,442 -1,30 -3,61 -6,93 -4,53 -7,103 -6,157 3,40 9,82 46,105 90,57 160,78 243,103 153,45 375,118 481,221 90,88 160,199 207,317 51,126 76,260 76,388 0,191 -210,313 -499,389 -374,97 -895,127 -1201,127 -306,0 -827,-30 -1201,-127 -289,-76 -499,-198 -499,-389 0,-128 26,-262 76,-388 47,-119 117,-229 207,-317 106,-102 329,-176 481,-221 100,-30 155,-52 246,-105 34,-18 43,-82 43,-118zm147 206c-1,3 -3,6 -5,8l182 229 82 -109c-93,-26 -183,-67 -259,-128zm1005 9c-2,-3 -4,-5 -6,-8 -75,60 -165,101 -258,127l82 109 182 -228zm1079 -420c-35,81 -66,173 -65,253 51,-6 106,-15 161,-24 36,-6 72,-12 108,-17 -76,-61 -150,-131 -204,-212zm1125 20c-54,71 -126,129 -206,187 40,6 80,13 120,20 54,9 107,19 156,25 -3,-73 -35,-156 -70,-232zm156 437c-88,1 -183,-16 -277,-33 -133,-24 -266,-48 -338,-16l0 0 0 560c-35,1 -68,2 -100,2 -32,0 -65,-1 -100,-2l0 -558c-70,-28 -204,-6 -337,16 -74,12 -148,24 -217,29l0 0c139,105 250,279 314,438 34,86 59,176 74,266 94,7 185,11 266,11 295,0 707,-49 1009,-155 257,-91 441,-227 441,-420 0,-474 -294,-637 -588,-800 -67,-37 -135,-75 -198,-117 126,-33 231,-80 317,-142 218,-157 310,-400 310,-762 0,-386 -106,-838 -363,-1163 -208,-262 -510,-441 -928,-441 -418,0 -720,179 -928,441 -73,93 -135,197 -185,306 103,133 175,284 212,456 4,19 8,38 11,57l13 -43 38 -19c186,-92 217,-92 367,-90 9,0 19,0 75,0l318 0c82,0 157,-62 220,-140 73,-92 129,-204 167,-279l45 -89 89 44c104,52 123,151 145,264 21,111 46,246 227,281l59 12 17 58c29,100 25,206 -13,300 -30,76 -83,143 -156,191 -22,76 -49,154 -84,229 -36,78 -81,153 -139,218 2,54 7,108 21,156 11,35 28,67 55,92 34,11 75,87 80,130 9,41 39,87 55,126 71,146 161,335 100,518 -14,42 -53,68 -94,68zm-1533 -97c-50,-200 57,-420 125,-561 11,-22 63,-142 88,-162 12,-9 23,-18 33,-25 25,-24 42,-56 52,-90 15,-48 21,-102 22,-155 -56,-64 -101,-138 -138,-216 -35,-75 -62,-154 -84,-231 -72,-47 -124,-112 -155,-186 -5,93 -18,190 -40,292 25,167 -9,342 -103,482 12,10 24,19 37,28 86,62 191,109 317,142 -63,42 -131,80 -198,117 -180,100 -360,200 -473,371 61,35 115,51 178,70 108,33 237,77 339,124zm1270 -586c-21,133 -139,217 -272,312 -60,42 -123,87 -184,140 -21,-16 -45,-33 -70,-50 -131,-91 -335,-229 -377,-404 61,-51 99,-118 122,-191 26,-83 32,-172 32,-253l0 -41 -30 -30c-52,-51 -94,-118 -128,-190 -35,-77 -62,-160 -84,-239l-12 -44 -40 -20c-49,-24 -82,-64 -101,-110 -16,-39 -21,-84 -15,-128 107,-50 135,-50 233,-49l77 1 318 0c155,0 279,-96 375,-215 36,-45 68,-93 96,-140 30,157 69,341 317,416 3,40 -2,80 -17,115 -18,46 -52,86 -101,110l-40 20 -12 44c-22,79 -48,161 -83,237 -33,72 -75,139 -129,192l-31 31 1 43c3,82 7,169 31,249 22,74 60,141 124,194z"/>
</svg>