<?xml version="1.0" encoding="UTF-8"?>
<!DOCTYPE svg PUBLIC "-//W3C//DTD SVG 1.1//EN" "http://www.w3.org/Graphics/SVG/1.1/DTD/svg11.dtd">
<svg xmlns="http://www.w3.org/2000/svg" xml:space="preserve" width="580px" height="580px" shape-rendering="geometricPrecision" text-rendering="geometricPrecision" image-rendering="optimizeQuality" fill-rule="nonzero" clip-rule="nonzero" viewBox="0 0 5800 5800" xmlns:xlink="http://www.w3.org/1999/xlink">
	<title>businesswomen icon</title>
	<desc>businesswomen icon from the IconExperience.com I-Collection. Copyright by INCORS GmbH (www.incors.com).</desc>
	<path id="curve0"  d="M1950 4581l0 617c78,-2 161,-8 246,-16 20,-241 97,-409 173,-579 -16,-3 -31,-6 -46,-8 -147,-27 -294,-53 -373,-14zm-200 617l0 -616c-76,-33 -224,-9 -372,15 -15,3 -30,5 -46,8 76,169 152,337 172,577 85,8 168,14 246,16zm-393 -1301c39,212 311,371 489,502 66,-58 136,-107 202,-155 146,-104 275,-196 297,-346 -70,-56 -111,-128 -135,-208 -26,-86 -30,-179 -33,-267l-1 -43 31 -30c59,-58 104,-131 140,-210 45,-98 74,-198 102,-301 121,-60 185,-134 170,-276 -271,-81 -309,-283 -342,-453l-2 -11c-108,186 -273,397 -510,397 -142,0 -283,1 -425,-1 -108,-2 -139,-2 -257,55 -22,145 43,227 168,289 28,104 57,205 103,303 37,79 82,151 139,208l30 29 0 42c0,86 -6,181 -34,270 -25,79 -66,151 -132,206zm493 -2797c447,0 770,192 992,473 275,349 389,834 389,1250 0,388 -98,648 -330,816 -96,69 -214,120 -356,156 71,49 150,93 229,137 314,174 628,349 628,855 0,204 -196,349 -469,446 -323,114 -766,167 -1083,167 -317,0 -760,-53 -1083,-167 -273,-97 -469,-242 -469,-446 0,-506 314,-681 628,-855 79,-44 158,-88 229,-137 -143,-36 -260,-87 -356,-156 -232,-168 -330,-428 -330,-816 0,-416 114,-901 389,-1250 222,-281 545,-473 992,-473zm548 2523c164,-30 291,-77 387,-146 173,-125 246,-334 246,-654 0,-378 -101,-817 -345,-1127 -186,-235 -458,-396 -836,-396 -378,0 -650,161 -836,396 -244,310 -345,749 -345,1127 0,320 73,529 246,654 96,69 223,116 386,146 14,-51 20,-107 21,-163 -61,-69 -110,-149 -149,-234 -38,-82 -68,-167 -92,-251 -79,-51 -135,-123 -167,-204 -40,-99 -44,-213 -14,-317l12 -42 39 -20c199,-99 232,-99 392,-96 140,1 281,0 422,0 194,0 347,-305 423,-457l45 -89 89 44c109,55 129,159 151,279 24,123 52,270 251,310l59 12c5,16 11,37 17,59 57,194 -7,410 -181,521 -24,82 -53,167 -90,249 -40,85 -88,165 -151,235 2,57 7,114 20,164zm1752 115l0 560c39,-1 80,-3 122,-6 16,-229 85,-390 156,-549 -112,-19 -217,-32 -278,-5zm-99 762c-162,0 -328,-13 -489,-36 -22,-81 -53,-153 -91,-216 51,9 103,17 155,23 -20,-187 -82,-325 -143,-464l-14 -29c-11,1 -134,14 -134,9 -41,0 -80,-26 -94,-68 -13,-38 -20,-78 -21,-118 147,-198 211,-452 211,-778 0,-453 -126,-985 -433,-1374 -31,-39 -64,-77 -98,-113 55,-142 129,-277 222,-395 208,-262 510,-441 928,-441 418,0 720,179 928,441 257,325 363,777 363,1163 0,362 -92,605 -310,762 -86,62 -191,109 -317,142 63,42 131,80 198,117 294,163 588,326 588,800 0,193 -184,329 -441,420 -301,105 -713,155 -1008,155zm-101 -202l0 -558c-59,-24 -164,-12 -276,6 70,158 138,318 154,546 42,3 83,5 122,6zm-351 -1196c34,166 235,306 377,404 25,17 49,34 70,50 61,-53 124,-98 184,-140 133,-95 251,-179 272,-312 -64,-53 -102,-120 -124,-194 -24,-80 -28,-167 -31,-249l-1 -43c156,-153 199,-299 255,-504 66,-33 111,-55 141,-130 15,-35 20,-75 17,-115 -248,-75 -287,-259 -317,-416 -28,47 -60,95 -96,140 -96,119 -220,215 -375,215l-395 -1c-98,-1 -126,-1 -233,49 -6,44 -1,89 15,128 30,75 75,97 141,130 45,163 100,352 224,473l30 30 0 41c0,81 -6,170 -32,253 -23,73 -61,140 -122,191zm1203 190c58,130 106,280 57,427 -14,42 -53,68 -94,68 0,4 -123,-8 -134,-10l-13 30c-62,139 -124,277 -144,464 182,-23 367,-61 519,-115 179,-63 307,-141 307,-231 0,-357 -242,-491 -484,-625l-14 -8zm-1318 38c-35,81 -66,173 -65,253 90,-10 179,-28 269,-41 -76,-61 -150,-131 -204,-212zm1125 20c-54,71 -126,129 -206,187 92,13 184,34 276,45 -3,-73 -35,-156 -70,-232zm-3369 779c-42,95 -79,204 -77,298 59,-6 121,-16 183,-26 45,-8 89,-15 133,-21 -89,-71 -177,-154 -239,-251zm1213 23c-62,86 -149,153 -244,222 49,7 99,16 149,25 60,10 120,21 177,27 -1,-86 -41,-185 -82,-274z"/>
</svg>