<?xml version="1.0" encoding="UTF-8"?>
<!DOCTYPE svg PUBLIC "-//W3C//DTD SVG 1.1//EN" "http://www.w3.org/Graphics/SVG/1.1/DTD/svg11.dtd">
<svg xmlns="http://www.w3.org/2000/svg" xml:space="preserve" width="580px" height="580px" shape-rendering="geometricPrecision" text-rendering="geometricPrecision" image-rendering="optimizeQuality" fill-rule="nonzero" clip-rule="nonzero" viewBox="0 0 5800 5800" xmlns:xlink="http://www.w3.org/1999/xlink">
	<title>businesswoman icon</title>
	<desc>businesswoman icon from the IconExperience.com I-Collection. Copyright by INCORS GmbH (www.incors.com).</desc>
	<path id="curve0"  d="M2899 4363c71,-63 146,-121 218,-177 176,-135 337,-259 376,-438 -81,-64 -128,-147 -155,-238 -34,-113 -36,-233 -39,-351 189,-186 250,-381 316,-628 86,-43 143,-77 181,-172 21,-55 28,-116 20,-176 -321,-92 -351,-300 -410,-579 -124,223 -320,496 -606,496l-400 0c-9,0 -56,-1 -97,-1 -132,-2 -168,-3 -317,69 -11,65 -5,132 19,190 38,96 94,130 180,173 66,244 129,444 315,628 0,120 -2,236 -39,352 -29,92 -77,175 -155,238 39,179 199,302 375,437 72,56 147,114 218,177zm-901 237c107,0 225,-21 344,-43 181,-32 362,-64 458,-8l0 750c67,1 133,1 200,0l0 -751c96,-55 276,-23 456,9 119,22 237,43 344,43 42,0 81,-27 95,-69 74,-223 -42,-481 -129,-675 -17,-37 -84,-224 -117,-243 -65,-37 -100,-94 -120,-160 -20,-65 -25,-140 -28,-214 144,-159 226,-368 284,-572 202,-124 276,-372 211,-595l-17 -58 -59 -12c-244,-49 -279,-228 -307,-377 -46,-242 -65,-262 -271,-365 -73,217 -288,640 -542,640 -165,0 -330,2 -494,0 -233,-4 -283,27 -489,130l-13 42c-64,222 10,471 211,595 58,203 141,414 285,572 -2,73 -9,148 -30,213 -35,114 -166,190 -171,238 -7,34 -35,95 -67,166 -87,194 -203,452 -128,675 14,42 52,69 94,69zm537 -274c-136,-105 -262,-206 -344,-336 -57,129 -118,281 -111,406 72,-7 149,-21 227,-35 77,-13 154,-27 228,-35zm1072 -336c-81,130 -208,231 -344,336 74,8 151,22 228,35 78,14 155,28 228,35 6,-125 -55,-277 -112,-406zm66 -360c92,67 196,125 300,183 364,202 727,404 727,987 0,230 -225,395 -538,505 -376,133 -893,195 -1262,195 -369,0 -886,-62 -1262,-195 -313,-110 -538,-275 -538,-505 0,-583 363,-785 727,-987 104,-58 209,-116 300,-183 -181,-41 -329,-103 -448,-188 -267,-193 -379,-494 -379,-942 0,-483 132,-1048 452,-1453 257,-325 630,-547 1148,-547 518,0 891,222 1148,547 320,405 452,970 452,1453 0,448 -112,749 -379,942 -119,85 -267,147 -448,188z"/>
</svg>