<?xml version="1.0" encoding="UTF-8"?>
<!DOCTYPE svg PUBLIC "-//W3C//DTD SVG 1.1//EN" "http://www.w3.org/Graphics/SVG/1.1/DTD/svg11.dtd">
<svg xmlns="http://www.w3.org/2000/svg" xml:space="preserve" width="580px" height="580px" shape-rendering="geometricPrecision" text-rendering="geometricPrecision" image-rendering="optimizeQuality" fill-rule="nonzero" clip-rule="nonzero" viewBox="0 0 5800 5800" xmlns:xlink="http://www.w3.org/1999/xlink">
	<title>button icon</title>
	<desc>button icon from the IconExperience.com I-Collection. Copyright by INCORS GmbH (www.incors.com).</desc>
		<path id="curve28"  d="M3802 2760l352 352c47,48 84,102 109,162 32,79 37,143 37,226l-200 0c0,-54 0,-98 -22,-150 -14,-34 -36,-67 -66,-96l-370 -370 -342 265 0 351 -200 0 0 -1400 200 0 0 797 722 -559c26,-20 44,-46 56,-75 22,-53 22,-107 22,-163l200 0c0,85 -4,158 -37,239 -25,60 -64,114 -119,157l-342 264zm-3402 -1260l5000 0c165,0 300,135 300,300l0 2000c0,165 -135,300 -300,300l-5000 0c-165,0 -300,-135 -300,-300l0 -2000c0,-165 135,-300 300,-300zm5000 200l-5000 0c-55,0 -100,45 -100,100l0 2000c0,55 45,100 100,100l5000 0c55,0 100,-45 100,-100l0 -2000c0,-55 -45,-100 -100,-100zm-2900 900c0,-165 -135,-300 -300,-300l-200 0c-165,0 -300,135 -300,300l0 400c0,165 135,300 300,300l200 0c165,0 300,-135 300,-300l0 -400zm200 0l0 400c0,276 -224,500 -500,500l-200 0c-276,0 -500,-224 -500,-500l0 -400c0,-276 224,-500 500,-500l200 0c276,0 500,224 500,500z"/>
</svg>