<?xml version="1.0" encoding="UTF-8"?>
<!DOCTYPE svg PUBLIC "-//W3C//DTD SVG 1.1//EN" "http://www.w3.org/Graphics/SVG/1.1/DTD/svg11.dtd">
<svg xmlns="http://www.w3.org/2000/svg" xml:space="preserve" width="580px" height="580px" shape-rendering="geometricPrecision" text-rendering="geometricPrecision" image-rendering="optimizeQuality" fill-rule="nonzero" clip-rule="nonzero" viewBox="0 0 5800 5800" xmlns:xlink="http://www.w3.org/1999/xlink">
	<title>button icon</title>
	<desc>button icon from the IconExperience.com I-Collection. Copyright by INCORS GmbH (www.incors.com).</desc>
		<path id="curve28"  d="M400 1500l5000 0c165,0 300,135 300,300l0 2000c0,165 -135,300 -300,300l-5000 0c-165,0 -300,-135 -300,-300l0 -2000c0,-165 135,-300 300,-300zm2100 1100l0 400c0,165 -135,300 -300,300l-200 0c-165,0 -300,-135 -300,-300l0 -400c0,-165 135,-300 300,-300l200 0c165,0 300,135 300,300zm-300 -500l-200 0c-276,0 -500,224 -500,500l0 400c0,276 224,500 500,500l200 0c276,0 500,-224 500,-500l0 -400c0,-276 -224,-500 -500,-500zm1100 0l-200 0 0 1400 200 0 0 -351 342 -265 370 370c60,59 88,127 88,212l0 34 200 0 0 -34c0,-136 -51,-258 -146,-354l-352 -352 342 -264c113,-88 156,-222 156,-362l0 -34 -200 0 0 34c0,75 -15,156 -78,204l-722 559 0 -797z"/>
</svg>