<?xml version="1.0" encoding="utf-8"?>
<!-- Generator: Adobe Illustrator 19.2.1, SVG Export Plug-In . SVG Version: 6.00 Build 0)  -->
<svg version="1.1" id="byte_x5F_array_x5F_field" xmlns="http://www.w3.org/2000/svg" xmlns:xlink="http://www.w3.org/1999/xlink"
	 x="0px" y="0px" width="580px" height="580px" viewBox="0 0 580 580" style="enable-background:new 0 0 580 580;"
	 xml:space="preserve">
<g>
	<polygon points="30,430 150,430 150,410 50,410 50,170 150,170 150,150 30,150 	"/>
	<polygon points="432,150 432,170 530,170 530,410 432,410 432,430 550,430 550,150 	"/>
	<path d="M186.2,319c-16.6,0-30,13.4-30,30c0,16.6,13.4,30,30,30s30-13.4,30-30C216.2,332.4,202.8,319,186.2,319z"/>
	<path d="M290,319c-16.6,0-30,13.4-30,30c0,16.6,13.4,30,30,30s30-13.4,30-30C320,332.4,306.6,319,290,319z"/>
	<path d="M393.8,319c-16.6,0-30,13.4-30,30c0,16.6,13.4,30,30,30s30-13.4,30-30C423.8,332.4,410.4,319,393.8,319z"/>
</g>
</svg>
