<?xml version="1.0" encoding="UTF-8" standalone="no"?>
<!DOCTYPE svg PUBLIC "-//W3C//DTD SVG 1.1//EN" "http://www.w3.org/Graphics/SVG/1.1/DTD/svg11.dtd">
<svg version="1.1" xmlns="http://www.w3.org/2000/svg" xmlns:xlink="http://www.w3.org/1999/xlink" preserveAspectRatio="xMidYMid meet" viewBox="0 0 640 640" width="580" height="580"><defs><path d="M277.4 329.6C279.7 322.1 283.1 315.1 287.5 308.6C291.9 302.1 297.3 296.2 303.7 290.8C310.1 285.5 317.5 281.2 325.7 278.1C313.6 271.3 304 262.6 296.8 252C289.6 241.4 286.1 229.6 286.1 216.7C286.1 206.4 288.1 196.9 292.1 188.2C296.1 179.5 301.6 171.9 308.6 165.5C315.6 159.1 324 154.1 333.6 150.6C343.2 147 353.6 145.2 364.9 145.2C376.2 145.2 386.7 147 396.3 150.7C405.9 154.3 414.3 159.4 421.3 165.7C428.3 172.1 433.8 179.6 437.7 188.4C441.6 197.1 443.6 206.6 443.6 216.7C443.6 229.6 440 241.3 432.9 252C425.7 262.6 416.2 271.3 404.4 278.1C412.5 281.2 419.7 285.5 426.1 290.8C432.5 296.1 437.8 302.1 442.2 308.6C446.6 315.1 449.9 322.1 452.3 329.6C454.6 337.1 455.8 344.5 455.8 352C455.8 364.2 453.6 375.4 449.2 385.6C444.8 395.8 438.6 404.4 430.5 411.7C422.4 419 412.9 424.6 401.8 428.6C390.7 432.6 378.4 434.7 365 434.7C351.7 434.7 339.5 432.7 328.5 428.6C317.4 424.6 307.9 418.9 299.8 411.7C291.7 404.5 285.4 395.8 281 385.6C276.6 375.4 273.9 364.3 273.9 352C273.9 344.6 275.1 337.1 277.4 329.6ZM312.7 372.9C315.4 379.9 319.1 385.9 324 390.9C328.9 395.9 334.8 399.7 341.8 402.3C348.8 405 356.5 406.3 364.9 406.3C373.1 406.3 380.7 404.9 387.6 402.2C394.5 399.5 400.5 395.6 405.5 390.7C410.5 385.8 414.4 379.8 417.2 372.7C420 365.7 421.4 357.9 421.4 349.3C421.4 341.5 420.1 334.2 417.4 327.3C414.7 320.5 410.9 314.4 406 309.2C401 304 395.1 299.9 388.2 296.9C381.3 293.9 373.6 292.4 365 292.4C356.9 292.4 349.5 293.8 342.6 296.6C335.8 299.4 329.8 303.3 324.8 308.3C319.8 313.3 315.8 319.3 313 326.3C310.1 333.3 308.7 340.9 308.7 349.3C308.7 358 310 365.9 312.7 372.9ZM322.2 237.9C324.6 243.6 327.9 248.5 332.2 252.7C336.4 256.9 341.3 260.3 346.9 262.7C352.5 265.1 358.5 266.3 364.9 266.3C371.3 266.3 377.3 265.1 383 262.6C388.7 260.1 393.6 256.8 397.7 252.5C401.9 248.3 405.2 243.3 407.7 237.7C410.2 232 411.4 226 411.4 219.4C411.4 212.6 410.2 206.4 407.8 200.6C405.4 194.9 402.1 189.9 397.9 185.8C393.7 181.6 388.8 178.3 383.2 175.9C377.5 173.5 371.4 172.3 364.9 172.3C358 172.3 351.7 173.5 346.1 176C340.4 178.5 335.6 181.8 331.5 186.1C327.4 190.3 324.2 195.3 322 201C319.7 206.8 318.6 212.9 318.6 219.4C318.6 226 319.8 232.2 322.2 237.9Z" id="a20iOEJv5B"></path></defs><g><g><g><use xlink:href="#a20iOEJv5B" opacity="1" fill-opacity="1"></use><g><use xlink:href="#a20iOEJv5B" opacity="1" fill-opacity="0" stroke="#000000" stroke-width="1" stroke-opacity="0"></use></g></g></g></g></svg>