<?xml version="1.0" encoding="utf-8"?>
<!-- Generator: Adobe Illustrator 19.2.1, SVG Export Plug-In . SVG Version: 6.00 Build 0)  -->
<svg version="1.1" id="Ebene_1" xmlns="http://www.w3.org/2000/svg" xmlns:xlink="http://www.w3.org/1999/xlink" x="0px" y="0px"
	 width="580px" height="580px" viewBox="0 0 580 580" style="enable-background:new 0 0 580 580;" xml:space="preserve">
<g>
	<polygon points="150.2,410 50,410 50,170 150.2,170 150.2,150 30,150 30,430 150.2,430 	"/>
	<polygon points="432.3,150 432.3,170 530,170 530,410 432.3,410 432.3,430 550,430 550,150 	"/>
</g>
<g>
	<path d="M186.2,298c-16.6,0-30,13.4-30,30s13.4,30,30,30s30-13.4,30-30S202.8,298,186.2,298z"/>
	<path d="M290,298c-16.6,0-30,13.4-30,30s13.4,30,30,30s30-13.4,30-30S306.6,298,290,298z"/>
	<path d="M393.8,298c-16.6,0-30,13.4-30,30s13.4,30,30,30s30-13.4,30-30S410.4,298,393.8,298z"/>
</g>
</svg>
