<?xml version="1.0" encoding="UTF-8"?>
<!DOCTYPE svg PUBLIC "-//W3C//DTD SVG 1.1//EN" "http://www.w3.org/Graphics/SVG/1.1/DTD/svg11.dtd">
<svg xmlns="http://www.w3.org/2000/svg" xml:space="preserve" width="580px" height="580px" shape-rendering="geometricPrecision" text-rendering="geometricPrecision" image-rendering="optimizeQuality" fill-rule="nonzero" clip-rule="nonzero" viewBox="0 0 5800 5800" xmlns:xlink="http://www.w3.org/1999/xlink">
	<title>c_clamp icon</title>
	<desc>c_clamp icon from the IconExperience.com I-Collection. Copyright by INCORS GmbH (www.incors.com).</desc>
	<path id="curve0"  d="M3677 5000l323 -161 0 161 313 0c45,-175 204,-300 387,-300 221,0 400,179 400,400 0,220 -180,400 -400,400 -183,0 -342,-124 -387,-300l-1226 0c-45,175 -204,300 -387,300 -220,0 -400,-180 -400,-400 0,-221 179,-400 400,-400 183,0 342,124 387,300l590 0zm-2177 -4700l2800 0c331,0 600,269 600,600l0 200 -2800 0 0 2000 2800 0 0 200c0,331 -269,600 -600,600l-377 0 -523 261 0 -222 77 -39 -1977 0c-331,0 -600,-269 -600,-600l0 -2400c0,-331 269,-600 600,-600zm2500 4361l-600 300 0 -222 600 -300 0 222zm0 -400l-600 300 0 -222 600 -300 0 222z"/>
</svg>