<?xml version="1.0" encoding="UTF-8"?>
<!DOCTYPE svg PUBLIC "-//W3C//DTD SVG 1.1//EN" "http://www.w3.org/Graphics/SVG/1.1/DTD/svg11.dtd">
<svg xmlns="http://www.w3.org/2000/svg" xml:space="preserve" width="580px" height="580px" shape-rendering="geometricPrecision" text-rendering="geometricPrecision" image-rendering="optimizeQuality" fill-rule="nonzero" clip-rule="nonzero" viewBox="0 0 5800 5800" xmlns:xlink="http://www.w3.org/1999/xlink">
	<title>cabinet_flash icon</title>
	<desc>cabinet_flash icon from the IconExperience.com I-Collection. Copyright by INCORS GmbH (www.incors.com).</desc>
	<path id="curve0"  d="M3169 1238l-185 -76 -688 1673 880 -177 -468 1112 -29 -469 -199 12 68 1092 833 -709 -130 -152 -361 308 616 -1463 -884 176 547 -1327zm-1869 -538l0 4200 3200 0 0 -4200 -3200 0zm3000 200l0 3800 -2800 0 0 -3800 2800 0zm600 -600l0 5000 -200 0 0 200 -3600 0 0 -200 -200 0 0 -5000 4000 0z"/>
</svg>