<?xml version="1.0" encoding="UTF-8"?>
<!DOCTYPE svg PUBLIC "-//W3C//DTD SVG 1.1//EN" "http://www.w3.org/Graphics/SVG/1.1/DTD/svg11.dtd">
<svg xmlns="http://www.w3.org/2000/svg" xml:space="preserve" width="580px" height="580px" shape-rendering="geometricPrecision" text-rendering="geometricPrecision" image-rendering="optimizeQuality" fill-rule="nonzero" clip-rule="nonzero" viewBox="0 0 5800 5800" xmlns:xlink="http://www.w3.org/1999/xlink">
	<title>cabinet icon</title>
	<desc>cabinet icon from the IconExperience.com I-Collection. Copyright by INCORS GmbH (www.incors.com).</desc>
		<path id="curve29" d="M4900 300l0 5000 -200 0 0 200 -3600 0 0 -200 -200 0 0 -5000 4000 0zm-200 200l-3600 0 0 4600 200 0 0 200 3200 0 0 -200 200 0 0 -4600zm-3400 2400c0,667 0,1333 0,2000l3200 0c0,-667 0,-1333 0,-2000l-3200 0zm804 240c-3,-14 -7,-27 -12,-40l1615 0c-4,13 -8,26 -11,40 -19,93 -101,160 -196,160l-1200 0c-95,0 -177,-66 -196,-160zm-196 40c38,185 202,320 392,320l1200 0c190,0 354,-134 392,-320 9,-48 49,-80 98,-80l310 0 0 1600 -2800 0 0 -1600 310 0c48,0 89,32 98,80zm-608 -2480c0,667 0,1333 0,2000l3200 0c0,-667 0,-1333 0,-2000 0,0 -2934,0 -3200,0zm2689 200l311 0 0 1600 -2800 0 0 -1600 311 0c48,1 88,33 97,80 38,186 202,320 392,320l1200 0c190,0 354,-134 392,-320 9,-47 49,-80 97,-80zm-1885 40c-3,-14 -7,-27 -12,-40l1615 0c-4,13 -8,26 -11,40 -19,93 -101,160 -196,160l-1200 0c-95,0 -177,-66 -196,-160z"/>
</svg>