<?xml version="1.0" encoding="UTF-8"?>
<!DOCTYPE svg PUBLIC "-//W3C//DTD SVG 1.1//EN" "http://www.w3.org/Graphics/SVG/1.1/DTD/svg11.dtd">
<svg xmlns="http://www.w3.org/2000/svg" xml:space="preserve" width="580px" height="580px" shape-rendering="geometricPrecision" text-rendering="geometricPrecision" image-rendering="optimizeQuality" fill-rule="nonzero" clip-rule="nonzero" viewBox="0 0 5800 5800" xmlns:xlink="http://www.w3.org/1999/xlink">
	<title>cabinet icon</title>
	<desc>cabinet icon from the IconExperience.com I-Collection. Copyright by INCORS GmbH (www.incors.com).</desc>
		<path id="curve29"  d="M4900 300l0 5000 -200 0 0 200 -3600 0 0 -200 -200 0 0 -5000 4000 0zm-3600 2600c0,667 0,1333 0,2000l3200 0c0,-667 0,-1333 0,-2000l-3200 0zm2407 200c-4,13 -8,26 -11,40 -19,93 -101,160 -196,160l-1200 0c-95,0 -177,-66 -196,-160 -3,-13 -7,-27 -12,-40l1615 0zm-2207 0l0 1600 2800 0 0 -1600 -310 0c-46,0 -90,37 -98,80 -38,186 -202,320 -392,320l-1200 0c-190,0 -354,-135 -392,-320 -9,-48 -50,-80 -98,-80l-310 0zm-200 -2400c0,667 0,1333 0,2000l3200 0c0,-667 0,-1333 0,-2000 0,0 -2934,0 -3200,0zm3000 200l-311 0c-45,0 -89,38 -97,80 -38,186 -202,320 -392,320l-1200 0c-190,0 -354,-134 -392,-320 -9,-47 -49,-79 -97,-80l-311 0 0 1600 2800 0 0 -1600zm-593 0l-1615 0c5,13 9,27 12,40 19,94 101,160 196,160l1200 0c95,0 177,-67 196,-160 3,-14 7,-27 11,-40z"/>
</svg>