<?xml version="1.0" encoding="UTF-8"?>
<!DOCTYPE svg PUBLIC "-//W3C//DTD SVG 1.1//EN" "http://www.w3.org/Graphics/SVG/1.1/DTD/svg11.dtd">
<svg xmlns="http://www.w3.org/2000/svg" xml:space="preserve" width="580px" height="580px" shape-rendering="geometricPrecision" text-rendering="geometricPrecision" image-rendering="optimizeQuality" fill-rule="nonzero" clip-rule="nonzero" viewBox="0 0 5800 5800" xmlns:xlink="http://www.w3.org/1999/xlink">
	<title>cabinet_warning icon</title>
	<desc>cabinet_warning icon from the IconExperience.com I-Collection. Copyright by INCORS GmbH (www.incors.com).</desc>
	<path id="curve0" d="M2799 3398l200 0 0 200 -200 0 0 -200zm2101 -3098l0 5000 -200 0 0 200 -3600 0 0 -200 -200 0 0 -5000 4000 0zm-200 200l-3600 0 0 4600 200 0 0 200 3200 0 0 -200 200 0 0 -4600zm-200 200l0 4200 -3100 0 -100 0 0 -100 0 -4100 3200 0zm-200 200l-2800 0 0 3800 2800 0 0 -3800zm-1382 1153c-8,-15 -29,-15 -37,0l-977 1714c-9,14 -4,31 14,31l1969 0c17,0 15,-18 8,-30l-977 -1715zm174 -99l976 1715c40,68 43,151 5,220 -37,68 -109,109 -186,109l-1968 -1c-79,0 -151,-40 -190,-109 -39,-68 -37,-152 2,-219l976 -1715c40,-69 113,-112 192,-112 80,0 153,43 193,112zm-92 544l0 800 -200 0 0 -800 200 0z"/>
</svg>