<?xml version="1.0" encoding="UTF-8"?>
<!DOCTYPE svg PUBLIC "-//W3C//DTD SVG 1.1//EN" "http://www.w3.org/Graphics/SVG/1.1/DTD/svg11.dtd">
<svg xmlns="http://www.w3.org/2000/svg" xml:space="preserve" width="580px" height="580px" shape-rendering="geometricPrecision" text-rendering="geometricPrecision" image-rendering="optimizeQuality" fill-rule="nonzero" clip-rule="nonzero" viewBox="0 0 5800 5800" xmlns:xlink="http://www.w3.org/1999/xlink">
	<title>cabinet_open icon</title>
	<desc>cabinet_open icon from the IconExperience.com I-Collection. Copyright by INCORS GmbH (www.incors.com).</desc>
		<path id="curve29"  d="M4900 300l0 5000 -200 0 0 200 -3600 0 0 -200 -200 0 0 -5000 4000 0zm-3090 2800l-310 0 0 1600 2800 0 0 -1600 -310 0c-49,0 -89,32 -98,80 -38,186 -202,320 -392,320l-1200 0c-190,0 -354,-135 -392,-320 -9,-48 -50,-80 -98,-80zm282 0l1615 0c-4,13 -8,26 -11,40 -19,93 -101,160 -196,160l-1200 0c-95,0 -177,-66 -196,-160 -3,-13 -7,-27 -12,-40zm2408 -200l-3200 0 0 2000 3200 0 0 -2000zm-3067 -200l2429 0 -632 -1269 -1939 967 142 302zm2653 0c138,0 276,0 414,0 0,-667 0,-1333 0,-2000 0,0 -2518,0 -3200,0 0,490 0,980 0,1470l200 -100 0 -1170 311 0c48,1 88,33 97,80 38,186 202,320 392,320l1200 0c190,0 354,-134 392,-320 9,-47 49,-80 97,-80l311 0 0 1600 -314 0 100 200zm-379 -1800c-4,13 -8,26 -11,40 -19,93 -101,160 -196,160l-1200 0c-95,0 -177,-66 -196,-160 -3,-14 -7,-27 -12,-40l1615 0z"/>
</svg>