<?xml version="1.0" encoding="UTF-8"?>
<!DOCTYPE svg PUBLIC "-//W3C//DTD SVG 1.1//EN" "http://www.w3.org/Graphics/SVG/1.1/DTD/svg11.dtd">
<svg xmlns="http://www.w3.org/2000/svg" xml:space="preserve" width="580px" height="580px" shape-rendering="geometricPrecision" text-rendering="geometricPrecision" image-rendering="optimizeQuality" fill-rule="nonzero" clip-rule="nonzero" viewBox="0 0 5800 5800" xmlns:xlink="http://www.w3.org/1999/xlink">
	<title>cabinet_warning icon</title>
	<desc>cabinet_warning icon from the IconExperience.com I-Collection. Copyright by INCORS GmbH (www.incors.com).</desc>
	<path id="curve0"  d="M2799 3398l0 200 200 0 0 -200 -200 0zm2101 -3098l0 5000 -200 0 0 200 -3600 0 0 -200 -200 0 0 -5000 4000 0zm-3600 400l0 4200 3200 0 0 -4200 -3200 0zm3000 200l0 3800 -2800 0 0 -3800 2800 0zm-405 2867c4,7 7,19 3,26 -3,6 -11,4 -11,5l-1968 0c-7,0 -13,-2 -17,-8 -4,-8 -2,-16 2,-23l977 -1714c4,-8 10,-11 18,-11 9,0 15,3 19,11l977 1714zm173 -99l-976 -1714c-40,-69 -113,-112 -193,-112 -79,0 -152,43 -192,112l-976 1715c-39,67 -41,151 -2,219 39,69 111,109 190,109l1968 1c77,0 149,-41 186,-109 38,-69 35,-152 -5,-221zm-1068 -1170l-200 0 0 800 200 0 0 -800z"/>
</svg>