<?xml version="1.0" encoding="UTF-8"?>
<!DOCTYPE svg PUBLIC "-//W3C//DTD SVG 1.1//EN" "http://www.w3.org/Graphics/SVG/1.1/DTD/svg11.dtd">
<svg xmlns="http://www.w3.org/2000/svg" xml:space="preserve" width="580px" height="580px" shape-rendering="geometricPrecision" text-rendering="geometricPrecision" image-rendering="optimizeQuality" fill-rule="nonzero" clip-rule="nonzero" viewBox="0 0 5800 5800" xmlns:xlink="http://www.w3.org/1999/xlink">
	<title>cactus icon</title>
	<desc>cactus icon from the IconExperience.com I-Collection. Copyright by INCORS GmbH (www.incors.com).</desc>
		<path id="curve28" d="M1500 5300l2800 0 0 200 -2800 0 0 -200zm700 -200l0 -1400 -400 0c-496,0 -900,-404 -900,-900l0 -1000c0,-276 224,-500 500,-500 276,0 500,224 500,500l0 800c0,55 45,100 100,100l200 0 0 -1600c0,-386 314,-700 700,-700 386,0 700,314 700,700l0 2000 200 0c55,0 100,-45 100,-100l0 -800c0,-276 224,-500 500,-500 276,0 500,224 500,500l0 1000c0,496 -404,900 -900,900l-400 0 0 1000 -200 0 0 -1200 600 0c385,0 700,-315 700,-700l0 -1000c0,-165 -135,-300 -300,-300 -165,0 -300,135 -300,300l0 800c0,165 -135,300 -300,300l-400 0 0 -2200c0,-275 -225,-500 -500,-500 -275,0 -500,225 -500,500l0 1800 -400 0c-165,0 -300,-135 -300,-300l0 -800c0,-165 -135,-300 -300,-300 -165,0 -300,135 -300,300l0 1000c0,385 315,700 700,700l600 0 0 1600 -200 0z"/>
</svg>