<?xml version="1.0" encoding="UTF-8"?>
<!DOCTYPE svg PUBLIC "-//W3C//DTD SVG 1.1//EN" "http://www.w3.org/Graphics/SVG/1.1/DTD/svg11.dtd">
<svg xmlns="http://www.w3.org/2000/svg" xml:space="preserve" width="580px" height="580px" shape-rendering="geometricPrecision" text-rendering="geometricPrecision" image-rendering="optimizeQuality" fill-rule="nonzero" clip-rule="nonzero" viewBox="0 0 5800 5800" xmlns:xlink="http://www.w3.org/1999/xlink">
	<title>caesar icon</title>
	<desc>caesar icon from the IconExperience.com I-Collection. Copyright by INCORS GmbH (www.incors.com).</desc>
	<path id="curve0"  d="M4164 595c-24,9 -46,21 -66,37 -33,25 -59,58 -74,97 -15,39 -18,80 -11,118 4,23 12,45 23,66 24,-9 46,-21 66,-36 33,-25 59,-58 74,-98 15,-39 18,-79 11,-118 -4,-23 -12,-45 -23,-66zm-2556 -212c145,21 275,109 340,242 120,-235 424,-319 652,-191l53 29 -3 66c80,-14 163,-20 251,-20 87,1 171,10 250,24 -1,-23 -2,-46 -3,-70l53 -29c228,-128 531,-45 652,189 29,-60 72,-110 124,-150 62,-47 136,-78 215,-90l54 -7 35 41c53,59 88,131 102,207 14,75 8,153 -21,228 -16,41 -38,79 -65,112 28,-3 55,-4 83,-3 79,5 156,30 224,71l48 30 0 55c0,177 -106,329 -270,392 49,51 88,111 111,176l20 56 -40 44c-51,58 -119,101 -193,123 -54,16 -112,22 -171,16 25,104 31,211 4,308 -25,89 -76,166 -164,222 -10,45 -21,96 -32,150 -45,219 -100,488 -218,635 -2,32 -5,67 -8,101 -10,115 -21,228 59,273 144,83 273,151 423,223 451,215 827,395 827,1044 0,225 -254,370 -605,461 -465,121 -1113,159 -1495,159 -382,0 -1030,-38 -1495,-159 -351,-91 -605,-236 -605,-461 0,-649 376,-829 827,-1044 36,-17 428,-213 423,-223 80,-45 69,-158 59,-273 -3,-34 -6,-69 -8,-101 -118,-147 -173,-416 -218,-635 -11,-54 -22,-105 -32,-150 -88,-56 -139,-133 -164,-222 -27,-97 -21,-204 4,-308 -137,14 -271,-36 -363,-139l-39 -44 19 -56c24,-65 62,-125 111,-176 -164,-63 -270,-216 -270,-392l0 -55 48 -30c91,-56 200,-81 306,-68 -27,-33 -49,-71 -65,-112 -58,-150 -24,-315 81,-435l35 -41 54 7zm2080 362c-46,-130 -195,-197 -326,-163 46,131 195,197 326,163zm-88 210c-148,-8 -285,-79 -370,-198 -107,-32 -219,-47 -331,-48 -108,-2 -217,11 -322,40 -88,129 -232,200 -386,206 113,13 222,66 299,152l41 46 -22 57c-90,231 -357,338 -587,260 -10,-4 -20,-8 -30,-12 -14,62 -21,126 -22,189 0,76 8,153 27,229 4,17 4,34 -1,52 -26,87 -37,177 -17,250 14,49 44,91 99,119 26,12 47,35 55,65 15,53 29,125 45,202 43,207 95,463 188,561 21,18 34,45 34,75 0,42 4,83 7,122 8,88 16,175 2,253 1,377 272,718 591,1117 319,-399 590,-740 591,-1117 -14,-78 -6,-165 2,-253 3,-39 7,-80 7,-122 0,-26 10,-52 30,-71 95,-94 149,-355 192,-565 16,-77 30,-149 45,-202 7,-27 25,-50 52,-64 56,-27 88,-70 102,-120 20,-71 9,-159 -15,-246 -6,-17 -8,-37 -3,-56 17,-69 26,-138 27,-206 0,-72 -7,-142 -23,-211 -234,97 -520,-8 -615,-249l-22 -57c98,-110 181,-177 330,-198zm529 369c128,45 279,-10 316,-148 -129,-45 -279,10 -316,148zm-256 -71c-84,-109 -247,-129 -361,-57 85,109 247,129 361,57zm-207 2543c-77,355 -331,671 -619,1032 -118,146 -241,300 -361,469 77,2 150,3 214,3 372,0 1001,-36 1445,-152 264,-68 455,-157 455,-268 0,-523 -324,-678 -713,-864 -135,-64 -278,-132 -421,-220zm-1216 1490c104,-154 214,-298 322,-434 -242,-303 -554,-669 -638,-1056 -143,88 -286,156 -421,220 -389,186 -713,341 -713,864 0,111 191,200 455,268 294,77 668,118 995,138zm-777 -3561c-3,-48 -3,-97 1,-146 -61,20 -113,61 -148,115 44,26 96,37 147,31zm2453 -146c4,49 4,97 1,146 52,6 104,-4 148,-31 -35,-55 -87,-96 -149,-115zm-2198 -326c114,72 277,52 361,-57 -114,-72 -276,-52 -361,57zm-255 71c-38,-138 -188,-193 -317,-148 37,138 188,193 317,148zm440 -579c131,34 280,-32 326,-163 -131,-34 -280,33 -326,163zm-477 -150c-67,127 -3,269 128,318 67,-127 3,-269 -128,-318z"/>
</svg>