<?xml version="1.0" encoding="UTF-8"?>
<!DOCTYPE svg PUBLIC "-//W3C//DTD SVG 1.1//EN" "http://www.w3.org/Graphics/SVG/1.1/DTD/svg11.dtd">
<svg xmlns="http://www.w3.org/2000/svg" xml:space="preserve" width="580px" height="580px" shape-rendering="geometricPrecision" text-rendering="geometricPrecision" image-rendering="optimizeQuality" fill-rule="nonzero" clip-rule="nonzero" viewBox="0 0 5800 5800" xmlns:xlink="http://www.w3.org/1999/xlink">
	<title>caesar icon</title>
	<desc>caesar icon from the IconExperience.com I-Collection. Copyright by INCORS GmbH (www.incors.com).</desc>
	<path id="curve0"  d="M2900 5500c-382,0 -1030,-38 -1495,-159 -351,-91 -605,-236 -605,-461 0,-649 376,-829 827,-1044 145,-69 287,-138 423,-223 80,-45 69,-158 59,-273 -3,-34 -6,-69 -8,-101 -118,-147 -173,-416 -218,-635 -11,-54 -22,-105 -32,-150 -88,-56 -139,-133 -164,-222 -29,-105 -19,-222 10,-334 -18,-83 -27,-168 -26,-252 0,-28 2,-55 4,-83 55,41 117,73 183,96 329,112 708,-46 837,-376l67 -172 -120 -134c41,-37 76,-79 106,-124 71,-108 98,-215 103,-343 33,-1 66,-1 100,1 4,127 32,234 103,342 29,45 65,87 105,124l-120 134 67 172c129,329 507,488 837,376 66,-23 127,-55 182,-95 3,36 4,71 4,107 -1,76 -10,152 -26,227 54,204 41,432 -154,556 -10,45 -21,96 -32,150 -45,219 -100,488 -218,635 -2,32 -5,67 -8,101 -10,115 -21,228 59,273 144,83 273,151 423,223 451,215 827,395 827,1044 0,225 -254,370 -605,461 -465,121 -1113,159 -1495,159zm-1408 -3602c-63,-23 -119,-62 -164,-113l-39 -44 19 -56c24,-65 62,-125 111,-176 -163,-63 -270,-215 -270,-392l0 -55 48 -30c91,-56 200,-81 306,-68 -27,-33 -49,-71 -65,-112 -58,-150 -24,-315 81,-435l35 -41 54 7c145,21 275,109 340,242 7,-14 15,-28 24,-41 134,-205 416,-269 628,-150l53 29 -2 61c-9,248 -228,432 -472,429 -70,0 -139,-16 -201,-46 -7,30 -18,59 -32,87 185,-80 408,-38 544,113l41 46 -22 57c-90,231 -358,337 -587,260 -19,-7 -38,-15 -56,-23l-34 21c-105,64 -233,88 -354,60 -12,122 -8,250 14,370zm2174 1898c-77,355 -331,671 -619,1032 -118,146 -241,300 -361,469 77,2 150,3 214,3 372,0 1001,-36 1445,-152 264,-68 455,-157 455,-268 0,-523 -324,-678 -713,-864 -135,-64 -278,-132 -421,-220zm-1216 1490c104,-154 214,-298 322,-434 -242,-303 -554,-669 -638,-1056 -143,88 -286,156 -421,220 -389,186 -713,341 -713,864 0,111 191,200 455,268 294,77 668,118 995,138zm1858 -3387c13,-73 19,-152 20,-226 1,-49 -2,-97 -6,-145 -121,28 -248,4 -353,-60l-34 -21c-18,8 -37,16 -56,23 -230,78 -497,-29 -587,-260l-22 -57 41 -46c52,-58 120,-102 195,-128 113,-38 238,-33 347,15 -13,-28 -24,-57 -31,-86 -61,29 -130,45 -200,45 -244,3 -463,-181 -471,-429l-3 -61 53 -29c213,-120 494,-55 628,150 9,12 17,26 24,39 65,-132 194,-219 339,-240l54 -7 35 41c138,157 148,384 16,547 107,-13 216,12 307,68l48 30 0 55c0,177 -106,329 -270,392 49,51 88,111 111,176l20 56 -40 44c-45,51 -102,90 -165,114z"/>
</svg>