<?xml version="1.0" encoding="UTF-8"?>
<!DOCTYPE svg PUBLIC "-//W3C//DTD SVG 1.1//EN" "http://www.w3.org/Graphics/SVG/1.1/DTD/svg11.dtd">
<svg xmlns="http://www.w3.org/2000/svg" xml:space="preserve" width="580px" height="580px" shape-rendering="geometricPrecision" text-rendering="geometricPrecision" image-rendering="optimizeQuality" fill-rule="nonzero" clip-rule="nonzero" viewBox="0 0 5800 5800" xmlns:xlink="http://www.w3.org/1999/xlink">
	<title>cake2 icon</title>
	<desc>cake2 icon from the IconExperience.com I-Collection. Copyright by INCORS GmbH (www.incors.com).</desc>
	<path id="curve0"  d="M3800 5448c-281,34 -584,52 -900,52 -728,0 -1389,-97 -1869,-254 -514,-168 -831,-413 -831,-696l0 -377c154,139 391,261 689,359 517,169 1228,273 2011,273 315,0 619,-17 902,-48 0,230 -1,461 -2,691zm-3600 -1975c154,139 391,261 689,359 517,169 1228,273 2011,273 316,0 621,-17 905,-48l-2 499c-283,32 -586,49 -903,49 -763,0 -1452,-101 -1949,-263 -464,-152 -751,-348 -751,-552l0 -317zm0 -383l0 -322c154,139 391,261 689,359 517,169 1228,273 2011,273 317,0 622,-17 908,-49l-2 504c-284,33 -588,50 -906,50 -763,0 -1452,-101 -1949,-263 -464,-152 -751,-348 -751,-552zm2 -677c26,-267 338,-498 829,-659 480,-157 1141,-254 1869,-254 728,0 1389,97 1869,254 514,168 831,413 831,696l0 100c-820,0 -1639,0 -2459,0l607 607c-267,28 -552,43 -848,43 -763,0 -1452,-101 -1949,-263 -442,-145 -724,-330 -749,-524zm2553 96c-52,40 -101,75 -157,110 -100,63 -187,118 -187,209 0,160 227,200 350,200 122,0 350,-40 350,-200 0,-62 -34,-113 -102,-165 -76,-58 -170,-106 -254,-154zm-1086 -170c-53,41 -101,75 -157,110 -100,63 -188,118 -188,210 0,159 228,200 350,200 123,0 350,-41 350,-200 0,-63 -34,-114 -101,-165 -76,-58 -170,-107 -254,-155zm-505 154c49,-91 141,-149 241,-212 35,-22 71,-45 92,-60l79 -61c-7,-5 -14,-11 -21,-17 -76,-58 -170,-106 -254,-154 -53,40 -101,75 -158,110 -99,63 -187,118 -187,210 0,110 115,163 208,184zm384 -592c51,30 93,57 128,84 78,60 131,123 158,196 13,1 25,1 38,1 122,0 350,-40 350,-199 0,-63 -34,-114 -102,-166 -76,-57 -170,-106 -254,-154 -52,40 -101,75 -157,110 -66,42 -127,80 -161,128zm1486 -348c-52,40 -101,74 -157,110 -100,63 -188,118 -188,209 0,159 228,200 350,200 123,0 350,-41 350,-200 0,-62 -33,-113 -101,-165 -76,-58 -170,-107 -254,-154zm1086 169c-52,41 -101,75 -157,110 -100,63 -187,118 -187,210 0,159 227,199 350,199 122,0 350,-40 350,-199 0,-63 -34,-114 -102,-165 -76,-58 -170,-107 -254,-155zm1480 1028c0,717 0,1433 0,2150l-1599 0 7 -1766 -384 -384 1976 0z"/>
</svg>