<?xml version="1.0" encoding="UTF-8"?>
<!DOCTYPE svg PUBLIC "-//W3C//DTD SVG 1.1//EN" "http://www.w3.org/Graphics/SVG/1.1/DTD/svg11.dtd">
<svg xmlns="http://www.w3.org/2000/svg" xml:space="preserve" width="580px" height="580px" shape-rendering="geometricPrecision" text-rendering="geometricPrecision" image-rendering="optimizeQuality" fill-rule="nonzero" clip-rule="nonzero" viewBox="0 0 5800 5800" xmlns:xlink="http://www.w3.org/1999/xlink">
	<title>cake2 icon</title>
	<desc>cake2 icon from the IconExperience.com I-Collection. Copyright by INCORS GmbH (www.incors.com).</desc>
	<path id="curve0" d="M3009 2663c68,52 102,103 102,165 0,160 -228,200 -350,200 -123,0 -350,-40 -350,-200 0,-126 198,-207 292,-279l52 -40c84,48 178,96 254,154zm-2809 -216c2,-282 319,-526 831,-693 165,-54 352,-101 555,-139 -87,55 -167,108 -215,185l-86 -49 -157 119c-62,48 -136,86 -201,133 -330,130 -527,286 -527,447 0,187 265,366 692,506 461,151 1100,244 1808,244 196,0 391,-7 587,-22l-208 -208c40,-85 42,-188 7,-275l522 521c-2,495 -4,989 -6,1484l1598 0 0 -2150 -2216 0c-87,-82 -201,-141 -305,-200l2496 0c-69,-137 -275,-266 -576,-375 -123,-104 -256,-233 -392,-317l-7 -5c132,30 256,64 369,101 514,168 831,413 831,696 0,817 0,1633 0,2450l-1799 0c0,183 -1,366 -1,548 -281,34 -584,52 -900,52 -728,0 -1389,-97 -1869,-254 -514,-168 -831,-413 -831,-696 4,-701 0,-1402 0,-2103zm2327 -738c-72,3 -144,8 -214,13 -71,-73 -164,-127 -252,-177 222,-25 456,-40 698,-44 -97,61 -184,118 -232,208zm832 -196c219,13 428,34 625,63l-36 28c-66,49 -144,92 -212,141 -58,-6 -116,-12 -175,-17 -40,-92 -120,-160 -202,-215zm-2959 2343c1,186 265,365 692,505 461,151 1100,244 1808,244 244,0 480,-11 704,-32l1 -499c-224,20 -461,31 -705,31 -728,0 -1389,-97 -1869,-254 -271,-89 -487,-199 -631,-324l0 329zm3203 918c-224,20 -460,31 -703,31 -728,0 -1389,-97 -1869,-254 -271,-88 -487,-198 -631,-324l0 323c0,186 265,366 692,506 461,151 1100,244 1808,244 243,0 478,-11 701,-32l2 -494zm-3203 -1618c1,186 265,365 692,505 461,151 1100,244 1808,244 245,0 482,-11 706,-32l2 -505c-235,22 -472,32 -708,32 -728,0 -1389,-97 -1869,-254 -271,-89 -487,-199 -631,-324l0 334zm1720 -1339c68,52 102,103 102,166 0,159 -228,199 -350,199 -13,0 -25,0 -38,-1 -48,-130 -171,-212 -286,-280 53,-76 187,-138 266,-198l52 -40c84,48 178,97 254,154zm2254 60c68,51 102,102 102,165 0,159 -228,199 -350,199 -123,0 -350,-40 -350,-199 0,-127 198,-208 292,-280l52 -40c84,48 178,97 254,155zm-1086 -170c68,52 101,103 101,165 0,159 -227,200 -350,200 -122,0 -350,-41 -350,-200 0,-126 199,-208 293,-279l52 -40c84,47 178,96 254,154zm-1712 453c-58,44 -109,82 -171,121 -100,63 -192,121 -241,212 -93,-21 -208,-74 -208,-184 0,-92 88,-147 187,-210 37,-23 76,-47 106,-70l52 -40c90,51 196,104 275,171zm347 334c67,51 101,102 101,165 0,159 -227,200 -350,200 -122,0 -350,-41 -350,-200 0,-127 199,-208 293,-280l52 -40c84,48 178,97 254,155z"/>
</svg>