<?xml version="1.0" encoding="UTF-8"?>
<!DOCTYPE svg PUBLIC "-//W3C//DTD SVG 1.1//EN" "http://www.w3.org/Graphics/SVG/1.1/DTD/svg11.dtd">
<svg xmlns="http://www.w3.org/2000/svg" xml:space="preserve" width="580px" height="580px" shape-rendering="geometricPrecision" text-rendering="geometricPrecision" image-rendering="optimizeQuality" fill-rule="nonzero" clip-rule="nonzero" viewBox="0 0 5800 5800" xmlns:xlink="http://www.w3.org/1999/xlink">
	<title>cake icon</title>
	<desc>cake icon from the IconExperience.com I-Collection. Copyright by INCORS GmbH (www.incors.com).</desc>
	<path id="curve0"  d="M5500 4550c0,282 -306,527 -800,696 -463,157 -1099,254 -1800,254 -701,0 -1337,-97 -1800,-254 -494,-169 -800,-414 -800,-696l0 -372c149,136 375,256 658,353 499,169 1186,274 1942,274 756,0 1443,-105 1942,-274 283,-97 509,-217 658,-353l0 372zm-2745 -2041c-52,40 -101,75 -157,110 -100,63 -187,118 -187,209 0,160 227,200 350,200 122,0 350,-40 350,-200 0,-62 -34,-113 -102,-165 -76,-58 -170,-106 -254,-154zm1168 -110c-53,40 -101,74 -157,110 -100,62 -188,118 -188,209 0,159 228,200 350,200 123,0 350,-41 350,-200 0,-63 -34,-114 -101,-165 -76,-58 -170,-107 -254,-154zm-2254 -60c-53,41 -101,75 -157,110 -100,63 -188,118 -188,210 0,159 228,200 350,200 123,0 350,-41 350,-200 0,-63 -34,-114 -101,-165 -76,-58 -170,-107 -254,-155zm2502 -28c114,68 237,150 286,280 81,4 174,-5 250,-36 85,-33 137,-90 137,-163 0,-136 -195,-228 -298,-287l-57 -32 -53 40c-79,60 -212,121 -265,198zm-1271 883c-735,0 -1397,-111 -1875,-289 -398,-148 -661,-338 -715,-540 55,-247 346,-460 790,-611 463,-157 1099,-254 1800,-254 701,0 1337,97 1800,254 444,151 735,364 790,611 -54,202 -317,392 -715,540 -596,223 -1242,289 -1875,289zm973 -1008l34 -25 86 48c52,-82 138,-136 232,-195 62,-39 112,-76 170,-120 -6,-6 -13,-12 -21,-17 -76,-58 -170,-107 -254,-155 -52,41 -101,75 -157,110 -100,63 -187,118 -187,210 0,60 36,110 97,144zm-2515 -165l-57 -32c-53,40 -101,75 -158,110 -99,63 -187,118 -187,210 0,110 115,163 208,184 49,-91 141,-149 241,-212 62,-39 113,-77 171,-121 -62,-53 -147,-98 -218,-139zm190 -120c51,30 93,57 128,84 78,60 131,123 158,196 82,5 175,-5 251,-35 84,-34 137,-91 137,-163 0,-63 -34,-114 -102,-166 -76,-57 -170,-106 -254,-154 -52,40 -101,75 -157,110 -66,42 -127,80 -161,128zm1486 -348c-52,40 -101,74 -157,110 -100,63 -188,118 -188,209 0,159 228,200 350,200 123,0 350,-41 350,-200 0,-62 -33,-113 -101,-165 -76,-58 -170,-107 -254,-154zm-2734 2254l0 -328c149,136 374,255 657,351 499,170 1186,275 1943,275 757,0 1444,-105 1943,-275 283,-96 508,-215 657,-351l0 328c-18,199 -290,388 -722,535 -479,162 -1143,263 -1878,263 -735,0 -1399,-101 -1878,-263 -432,-147 -704,-336 -722,-535zm0 -688l0 -410c148,148 373,278 655,383 500,186 1188,302 1945,302 757,0 1445,-116 1945,-302 282,-105 507,-235 655,-383l0 411c-28,193 -298,378 -721,521 -479,163 -1143,264 -1879,264 -736,0 -1400,-101 -1879,-264 -423,-143 -693,-328 -721,-522z"/>
</svg>