<?xml version="1.0" encoding="UTF-8"?>
<!DOCTYPE svg PUBLIC "-//W3C//DTD SVG 1.1//EN" "http://www.w3.org/Graphics/SVG/1.1/DTD/svg11.dtd">
<svg xmlns="http://www.w3.org/2000/svg" xml:space="preserve" width="580px" height="580px" shape-rendering="geometricPrecision" text-rendering="geometricPrecision" image-rendering="optimizeQuality" fill-rule="nonzero" clip-rule="nonzero" viewBox="0 0 5800 5800" xmlns:xlink="http://www.w3.org/1999/xlink">
	<title>cake_slice icon</title>
	<desc>cake_slice icon from the IconExperience.com I-Collection. Copyright by INCORS GmbH (www.incors.com).</desc>
		<path id="curve28"  d="M500 4100l4800 0 0 -800 -4800 0 0 800zm4800 200l-4800 0 0 500c0,55 45,100 100,100l4600 0c55,0 100,-45 100,-100l0 -500zm-4661 -2173l2467 -832c-8,70 -8,140 0,210l-2356 795 4550 0c0,-232 -183,-453 -442,-628 22,-68 35,-139 40,-212 12,8 25,16 37,24 329,213 565,499 565,816l0 2500c0,165 -135,300 -300,300l-4600 0c-165,0 -300,-135 -300,-300l0 -2200c0,-217 133,-404 339,-473zm-123 373c-10,31 -16,65 -16,100l0 500 4800 0 0 -600 -4784 0zm3484 -1800c387,0 700,313 700,700 0,387 -313,700 -700,700 -387,0 -700,-313 -700,-700 0,-387 313,-700 700,-700zm0 200c-276,0 -500,224 -500,500 0,276 224,500 500,500 276,0 500,-224 500,-500 0,-276 -224,-500 -500,-500z"/>
</svg>