<?xml version="1.0" encoding="UTF-8"?>
<!DOCTYPE svg PUBLIC "-//W3C//DTD SVG 1.1//EN" "http://www.w3.org/Graphics/SVG/1.1/DTD/svg11.dtd">
<svg xmlns="http://www.w3.org/2000/svg" xml:space="preserve" width="580px" height="580px" shape-rendering="geometricPrecision" text-rendering="geometricPrecision" image-rendering="optimizeQuality" fill-rule="nonzero" clip-rule="nonzero" viewBox="0 0 5800 5800" xmlns:xlink="http://www.w3.org/1999/xlink">
	<title>cake icon</title>
	<desc>cake icon from the IconExperience.com I-Collection. Copyright by INCORS GmbH (www.incors.com).</desc>
	<path id="curve0" d="M5500 2447l0 2103c0,282 -306,527 -800,696 -463,157 -1099,254 -1800,254 -701,0 -1337,-97 -1800,-254 -494,-169 -800,-414 -800,-696l0 -2103c2,-281 308,-525 800,-693 140,-47 295,-89 463,-124 -78,50 -148,100 -192,170l-86 -49c-83,63 -160,124 -248,179 -74,47 -144,91 -196,148 -216,113 -341,241 -341,372 0,187 254,367 664,507 443,150 1056,243 1736,243 680,0 1293,-93 1736,-243 410,-140 664,-320 664,-507 0,-175 -223,-344 -588,-479 -16,-10 -32,-19 -49,-29 -24,-85 -80,-157 -168,-224 -18,-14 -38,-28 -60,-42 94,24 182,50 265,78 492,168 798,412 800,693zm-200 381c-139,123 -344,230 -600,318 -463,157 -1099,254 -1800,254 -701,0 -1337,-97 -1800,-254 -256,-88 -461,-195 -600,-318l0 328c1,186 254,366 664,505 443,151 1056,244 1736,244 680,0 1293,-93 1736,-244 410,-139 664,-319 664,-506l0 -327zm-2773 -1118c-72,3 -143,8 -212,14 -70,-73 -162,-126 -248,-176 219,-26 451,-42 692,-47 -97,61 -184,119 -232,209zm834 -196c216,14 422,37 616,68 -40,30 -78,55 -120,82 -45,28 -88,55 -127,85 -55,-7 -111,-13 -168,-19 -39,-92 -119,-161 -201,-216zm-2861 2342c1,186 254,366 664,506 443,150 1056,243 1736,243 680,0 1293,-93 1736,-243 410,-140 664,-320 664,-507l0 -322c-139,123 -344,230 -600,318 -463,157 -1099,254 -1800,254 -701,0 -1337,-97 -1800,-254 -256,-88 -461,-195 -600,-318l0 323zm4800 377c-139,123 -344,230 -600,318 -463,157 -1099,254 -1800,254 -701,0 -1337,-97 -1800,-254 -256,-88 -461,-195 -600,-318l0 317 0 0c0,187 254,367 664,507 443,150 1056,243 1736,243 680,0 1293,-93 1736,-243 410,-140 664,-320 664,-507l0 -317zm-3377 -2537c86,48 151,87 197,121 68,52 102,103 102,166 0,72 -53,129 -137,163 -57,22 -132,36 -213,36 -13,0 -25,0 -38,-1 -48,-130 -171,-212 -286,-280 34,-48 95,-86 161,-128 35,-22 73,-46 105,-70l52 -40 57 33zm2451 181c8,5 15,11 21,17 -58,44 -108,81 -170,120 -94,59 -180,113 -232,195l-86 -48 -34 25c-61,-34 -97,-84 -97,-144 0,-92 87,-147 187,-210 36,-23 75,-47 105,-70l52 -40c84,48 178,97 254,155zm-1086 -170c68,52 101,103 101,165 0,159 -227,200 -350,200 -122,0 -350,-41 -350,-200 0,-126 199,-208 293,-279l52 -40c84,47 178,96 254,154zm-1712 453c-58,44 -109,82 -171,121 -100,63 -192,121 -241,212 -93,-21 -208,-74 -208,-184 0,-92 88,-147 187,-210 37,-23 76,-47 106,-70l52 -40c90,51 197,105 275,171zm3166 67c68,52 102,103 102,165 0,73 -52,130 -137,163 -76,31 -169,40 -250,36 -49,-130 -172,-212 -286,-280 33,-48 94,-87 160,-128 37,-23 75,-48 105,-70l53 -40c83,47 178,96 253,154zm-2819 267c67,51 101,102 101,165 0,72 -52,129 -136,163 -57,23 -133,37 -214,37 -122,0 -350,-41 -350,-200 0,-92 88,-147 188,-210 36,-23 75,-47 105,-70l52 -40c84,48 178,97 254,155zm2254 59c67,51 101,102 101,165 0,72 -52,129 -136,163 -57,23 -132,37 -214,37 -122,0 -350,-41 -350,-200 0,-91 88,-147 188,-209 36,-23 75,-48 105,-71l52 -39c84,47 178,96 254,154zm-1168 110c68,52 102,103 102,165 0,73 -53,130 -137,164 -57,22 -132,36 -213,36 -123,0 -350,-40 -350,-200 0,-91 87,-146 187,-209 36,-23 75,-47 105,-70l52 -40c84,48 178,96 254,154z"/>
</svg>