<?xml version="1.0" encoding="utf-8"?>
<!-- Generator: Adobe Illustrator 21.1.0, SVG Export Plug-In . SVG Version: 6.00 Build 0)  -->
<svg version="1.1" id="Ebene_1" xmlns="http://www.w3.org/2000/svg" xmlns:xlink="http://www.w3.org/1999/xlink" x="0px" y="0px"
	 viewBox="0 0 580 580" style="enable-background:new 0 0 580 580;" xml:space="preserve">
<g id="column_x5F_basis">
	<path d="M36.7,17.9v460h146.6v-276h73.5v-24.1h80v24.1h19.9v-184H36.7z M136.8,457.9h-80v-80h80V457.9z M136.8,357.9h-80v-80h80
		V357.9z M136.8,257.9h-80v-80h80V257.9z M136.8,157.9h-80v-80h80V157.9z M336.8,157.9h-80v-80h80V157.9z M336.8,57.9h-280v-20h280
		V57.9z"/>
	<rect x="183.3" y="201.9" width="359.7" height="360.2"/>
</g>
<g id="column_x5F_calculated_x5F_selection_x5F_value_x5F_gi">
	<g>
		<path d="M223.3,241.9v320h320v-320L223.3,241.9L223.3,241.9z M523.3,541.9h-280v-280h280V541.9z"/>
	</g>
	<path d="M310.6,506.6l-28.7-86.2H270v-20h16.2c6.4,0,11.9,4.2,13.5,10.3l10.4,31.1l35.5-112.5c1.8-5.8,7.3-9.9,13.4-9.9h142v20
		H363.4L310.6,506.6z"/>
	<path d="M469.8,495.1L452,467.4c-5.7-8.4-10-14.9-14-21.3c-3.3,5.9-6.9,12-13.2,21.5l-16.7,27.6h-24.7l42.4-63.3L385,370.1h24.9
		l18.4,29.4c4,6.3,7.6,12,10.9,17.9c3.4-6.3,6.6-11.5,10.8-17.9l19-29.4h24.8L451.5,431l43.2,64.1H469.8z"/>
</g>
</svg>
