<?xml version="1.0" encoding="UTF-8"?>
<!DOCTYPE svg PUBLIC "-//W3C//DTD SVG 1.1//EN" "http://www.w3.org/Graphics/SVG/1.1/DTD/svg11.dtd">
<svg xmlns="http://www.w3.org/2000/svg" xml:space="preserve" width="580px" height="580px" shape-rendering="geometricPrecision" text-rendering="geometricPrecision" image-rendering="optimizeQuality" fill-rule="nonzero" clip-rule="nonzero" viewBox="0 0 5800 5800" xmlns:xlink="http://www.w3.org/1999/xlink">
	<title>calculator icon</title>
	<desc>calculator icon from the IconExperience.com I-Collection. Copyright by INCORS GmbH (www.incors.com).</desc>
		<path id="curve28" d="M3900 4100c221,0 400,179 400,400 0,220 -180,400 -400,400 -221,0 -400,-179 -400,-400 0,-220 180,-400 400,-400zm0 200c-111,0 -200,89 -200,200 0,110 90,200 200,200 111,0 200,-89 200,-200 0,-110 -90,-200 -200,-200zm-1000 -200c221,0 400,179 400,400 0,220 -180,400 -400,400 -220,0 -400,-180 -400,-400 0,-221 179,-400 400,-400zm0 200c-110,0 -200,90 -200,200 0,111 89,200 200,200 111,0 200,-89 200,-200 0,-110 -90,-200 -200,-200zm1000 -1200c221,0 400,179 400,400 0,220 -180,400 -400,400 -221,0 -400,-179 -400,-400 0,-220 180,-400 400,-400zm0 200c-111,0 -200,89 -200,200 0,110 90,200 200,200 111,0 200,-89 200,-200 0,-110 -90,-200 -200,-200zm-1000 -200c221,0 400,179 400,400 0,220 -180,400 -400,400 -220,0 -400,-180 -400,-400 0,-221 179,-400 400,-400zm0 200c-110,0 -200,90 -200,200 0,111 89,200 200,200 111,0 200,-89 200,-200 0,-110 -90,-200 -200,-200zm-1000 800c220,0 400,180 400,400 0,221 -179,400 -400,400 -220,0 -400,-180 -400,-400 0,-221 179,-400 400,-400zm0 200c-110,0 -200,90 -200,200 0,111 89,200 200,200 110,0 200,-90 200,-200 0,-111 -89,-200 -200,-200zm0 -1200c220,0 400,180 400,400 0,221 -179,400 -400,400 -220,0 -400,-180 -400,-400 0,-221 179,-400 400,-400zm0 200c-110,0 -200,90 -200,200 0,111 89,200 200,200 110,0 200,-90 200,-200 0,-111 -89,-200 -200,-200zm2000 -1200c220,0 400,180 400,400 0,221 -179,400 -400,400 -221,0 -400,-179 -400,-400 0,-221 179,-400 400,-400zm0 200c-110,0 -200,90 -200,200 0,111 89,200 200,200 110,0 200,-90 200,-200 0,-111 -89,-200 -200,-200zm-1000 -200c220,0 400,180 400,400 0,221 -179,400 -400,400 -221,0 -400,-179 -400,-400 0,-220 180,-400 400,-400zm0 200c-111,0 -200,89 -200,200 0,110 90,200 200,200 110,0 200,-90 200,-200 0,-111 -89,-200 -200,-200zm-1000 -200c221,0 400,179 400,400 0,220 -180,400 -400,400 -221,0 -400,-179 -400,-400 0,-220 180,-400 400,-400zm0 200c-111,0 -200,89 -200,200 0,110 90,200 200,200 111,0 200,-89 200,-200 0,-110 -90,-200 -200,-200zm2400 -1600l0 1000 -2800 0 0 -1000 2800 0zm-200 200l-2400 0 0 600 2400 0 0 -600zm600 -600l0 5200 -3600 0 0 -5200 3600 0zm-200 200l-3200 0 0 4800 3200 0 0 -4800z"/>
</svg>