<?xml version="1.0" encoding="utf-8"?>
<!-- Generator: Adobe Illustrator 19.2.1, SVG Export Plug-In . SVG Version: 6.00 Build 0)  -->
<svg version="1.1" id="Ebene_1" xmlns="http://www.w3.org/2000/svg" xmlns:xlink="http://www.w3.org/1999/xlink" x="0px" y="0px"
	 width="580px" height="580px" viewBox="0 0 580 580" style="enable-background:new 0 0 580 580;" xml:space="preserve">
<g>
	<path d="M75.9,310.5L165,45h82.2l47.2,151h21.5L264.1,34.9c-1.4-6.2-7-10.9-13.6-10.9H162c-5.8,0-11.3,3.6-13.2,9.5L56.3,301.3
		c-6.9,20.2-12,36.1-15.3,52.6c-3.4,16.7-4.9,33.6-4.9,55.5V474h21v-64.6c0-19.4,1.3-33.9,4-47.8c0.3-0.9,0.7-2.6,1.2-3.6H184v-20
		H67.8C71,326,74.3,314.8,75.9,310.5z"/>
	<path d="M224,236v320h320V236H224z M524,536H244V256h280V536z"/>
	<path d="M332.6,506.6L385.4,340H472v-20h-91c-6.1,0-11.6,3.8-13.4,9.6L332.1,442l-10.4-31.4c-1.7-6.1-7.1-10.6-13.5-10.6H292v20
		h11.8L332.6,506.6z"/>
</g>
</svg>
