<?xml version="1.0" encoding="utf-8"?>
<!-- Generator: Adobe Illustrator 27.5.0, SVG Export Plug-In . SVG Version: 6.00 Build 0)  -->
<svg version="1.1" id="Ebene_1" xmlns="http://www.w3.org/2000/svg" xmlns:xlink="http://www.w3.org/1999/xlink" x="0px" y="0px"
	 viewBox="0 0 580 580" style="enable-background:new 0 0 580 580;" xml:space="preserve">
<style type="text/css">

</style>
<g>
	<path class="st0" d="M480,65h-30V45c0-5.5-4.5-10-10-10s-10,4.5-10,10v20H150V45c0-5.5-4.5-10-10-10s-10,4.5-10,10v20h-30
		c-16.5,0-30,13.5-30,30c0,150,0,300,0,450h440c0-150,0-300,0-450C510,78.5,496.5,65,480,65z M490,525H90V183h400V525z M490,163H90
		V95c0-5.5,4.5-10,10-10h30v12.7c-6.2,3.6-10,10.1-10,17.3c0,11,9,20,20,20s20-9,20-20c0-7.2-3.8-13.8-10-17.3V85h280v12.7
		c-6.2,3.5-10,10.1-10,17.3c0,11,9,20,20,20s20-9,20-20c0-7.2-3.8-13.8-10-17.3V85h30c5.5,0,10,4.5,10,10V163z"/>
	<rect x="250" y="223.9" class="st0" width="80" height="60.6"/>
	<rect x="370" y="223.9" class="st0" width="80" height="60.6"/>
	<rect x="130" y="324.5" class="st0" width="80" height="60.6"/>
	<rect x="250" y="324.5" class="st0" width="80" height="60.6"/>
	<rect x="370" y="324.5" class="st0" width="80" height="60.6"/>
	<rect x="130" y="425.1" class="st0" width="80" height="60.6"/>
	<rect x="250" y="425.1" class="st0" width="80" height="60.6"/>
	<rect x="370" y="425.1" class="st0" width="80" height="60.6"/>
</g>
</svg>
