<?xml version="1.0" encoding="UTF-8"?>
<!DOCTYPE svg PUBLIC "-//W3C//DTD SVG 1.1//EN" "http://www.w3.org/Graphics/SVG/1.1/DTD/svg11.dtd">
<svg xmlns="http://www.w3.org/2000/svg" xml:space="preserve" width="580px" height="580px" shape-rendering="geometricPrecision" text-rendering="geometricPrecision" image-rendering="optimizeQuality" fill-rule="nonzero" clip-rule="nonzero" viewBox="0 0 5800 5800" xmlns:xlink="http://www.w3.org/1999/xlink">
	<title>calendar_clock icon</title>
	<desc>calendar_clock icon from the IconExperience.com I-Collection. Copyright by INCORS GmbH (www.incors.com).</desc>
		<path id="curve28"  d="M600 1900l300 0 0 327c-62,36 -100,101 -100,173 0,110 90,200 200,200 110,0 200,-90 200,-200 0,-72 -38,-138 -100,-173l0 -327 400 0 0 327c-62,36 -100,101 -100,173 0,110 90,200 200,200 110,0 200,-90 200,-200 0,-72 -38,-138 -100,-173l0 -327 400 0 0 327c-62,35 -100,101 -100,173 0,110 90,200 200,200 14,0 27,-1 40,-4 45,107 100,209 164,304l-2104 0 0 -700c0,-165 135,-300 300,-300zm1959 1200c245,273 571,471 941,555l0 1845 -3200 0 0 -2400 2259 0zm598 -2089l-142 142 693 693c-4,17 -7,35 -7,54 0,110 90,200 200,200 110,0 200,-90 200,-200 0,-17 -2,-33 -6,-49l425 -426 -141 -141 -424 423c-33,-9 -69,-9 -103,-1l-695 -695zm744 -711c884,0 1600,716 1600,1600 0,884 -716,1600 -1600,1600 -884,0 -1600,-716 -1600,-1600 0,-884 716,-1600 1600,-1600zm-3001 1400c0,-55 45,-100 100,-100 55,0 100,45 100,100l0 200 -200 0 0 -200zm600 200l0 -200c0,-55 45,-100 100,-100 55,0 100,45 100,100l0 200 -200 0zm-600 1600l0 200 200 0 0 1200 200 0 0 -1400 -400 0zm800 400l200 0c0,-110 90,-200 200,-200l400 0c110,0 200,90 200,200 0,91 -55,166 -142,192l-573 171c-170,52 -285,205 -285,383l0 254 1200 0 0 -200 -1000 0 0 -54c0,-90 55,-165 142,-191l573 -172c170,-51 285,-205 285,-383 0,-220 -180,-400 -400,-400l-400 0c-220,0 -400,180 -400,400z"/>
</svg>