<?xml version="1.0" encoding="UTF-8"?>
<!DOCTYPE svg PUBLIC "-//W3C//DTD SVG 1.1//EN" "http://www.w3.org/Graphics/SVG/1.1/DTD/svg11.dtd">
<svg xmlns="http://www.w3.org/2000/svg" xml:space="preserve" width="580px" height="580px" shape-rendering="geometricPrecision" text-rendering="geometricPrecision" image-rendering="optimizeQuality" fill-rule="nonzero" clip-rule="nonzero" viewBox="0 0 5800 5800" xmlns:xlink="http://www.w3.org/1999/xlink">
	<title>calendar_31 icon</title>
	<desc>calendar_31 icon from the IconExperience.com I-Collection. Copyright by INCORS GmbH (www.incors.com).</desc>
		<path id="curve28"  d="M1300 500c0,-55 45,-100 100,-100 55,0 100,45 100,100l0 200 400 0 0 -200c0,-55 45,-100 100,-100 55,0 100,45 100,100l0 200 400 0 0 -200c0,-55 45,-100 100,-100 55,0 100,45 100,100l0 200 400 0 0 -200c0,-55 45,-100 100,-100 55,0 100,45 100,100l0 200 400 0 0 -200c0,-55 45,-100 100,-100 55,0 100,45 100,100l0 200 400 0 0 -200c0,-55 45,-100 100,-100 55,0 100,45 100,100l0 200 300 0c165,0 300,135 300,300l0 1100 -4400 0 0 -1100c0,-165 135,-300 300,-300l300 0 0 -200zm3800 1800l0 3200 -4400 0 0 -3200 4400 0zm-2200 1900c0,165 -135,300 -300,300l-400 0c-165,0 -300,-135 -300,-300l-200 0c0,275 225,500 500,500l400 0c275,0 500,-225 500,-500 0,-158 -75,-306 -200,-400 125,-94 200,-242 200,-400 0,-275 -224,-500 -500,-500l-400 0c-275,0 -500,225 -500,500l200 0c0,-165 135,-300 300,-300l400 0c165,0 300,135 300,300 0,165 -135,300 -300,300l-200 0 0 200 200 0c165,0 300,135 300,300zm600 -1300l0 200 200 0 0 1600 200 0 0 -1800 -400 0zm-2000 -2200l-200 0 0 327c-60,34 -100,99 -100,173 0,110 90,200 200,200 110,0 200,-90 200,-200 0,-74 -40,-139 -100,-173l0 -327zm400 0l0 327c-60,34 -100,99 -100,173 0,110 90,200 200,200 110,0 200,-90 200,-200 0,-74 -40,-139 -100,-173l0 -327 -200 0zm600 0l0 327c-60,34 -100,99 -100,173 0,110 90,200 200,200 110,0 200,-90 200,-200 0,-74 -40,-139 -100,-173l0 -327 -200 0zm600 0l0 327c-60,34 -100,99 -100,173 0,110 90,200 200,200 110,0 200,-90 200,-200 0,-74 -40,-139 -100,-173l0 -327 -200 0zm600 0l0 327c-60,34 -100,99 -100,173 0,110 90,200 200,200 110,0 200,-90 200,-200 0,-74 -40,-139 -100,-173l0 -327 -200 0zm600 0l0 327c-60,34 -100,99 -100,173 0,110 90,200 200,200 110,0 200,-90 200,-200 0,-74 -40,-139 -100,-173l0 -327 -200 0z"/>
</svg>