<?xml version="1.0" encoding="UTF-8"?>
<!DOCTYPE svg PUBLIC "-//W3C//DTD SVG 1.1//EN" "http://www.w3.org/Graphics/SVG/1.1/DTD/svg11.dtd">
<svg xmlns="http://www.w3.org/2000/svg" xml:space="preserve" width="580px" height="580px" shape-rendering="geometricPrecision" text-rendering="geometricPrecision" image-rendering="optimizeQuality" fill-rule="nonzero" clip-rule="nonzero" viewBox="0 0 5800 5800" xmlns:xlink="http://www.w3.org/1999/xlink">
	<title>calendar_7 icon</title>
	<desc>calendar_7 icon from the IconExperience.com I-Collection. Copyright by INCORS GmbH (www.incors.com).</desc>
		<path id="curve28"  d="M1300 500c0,-55 45,-100 100,-100 55,0 100,45 100,100l0 200 400 0 0 -200c0,-55 45,-100 100,-100 55,0 100,45 100,100l0 200 400 0 0 -200c0,-55 45,-100 100,-100 55,0 100,45 100,100l0 200 400 0 0 -200c0,-55 45,-100 100,-100 55,0 100,45 100,100l0 200 400 0 0 -200c0,-55 45,-100 100,-100 55,0 100,45 100,100l0 200 400 0 0 -200c0,-55 45,-100 100,-100 55,0 100,45 100,100l0 200 300 0c165,0 300,135 300,300l0 1100 -4400 0 0 -1100c0,-165 135,-300 300,-300l300 0 0 -200zm3800 1800l0 3200 -4400 0 0 -3200 4400 0zm-3600 -1600l-200 0 0 327c-60,34 -100,99 -100,173 0,110 90,200 200,200 110,0 200,-90 200,-200 0,-74 -40,-139 -100,-173l0 -327zm400 0l0 327c-60,34 -100,99 -100,173 0,110 90,200 200,200 110,0 200,-90 200,-200 0,-74 -40,-139 -100,-173l0 -327 -200 0zm600 0l0 327c-60,34 -100,99 -100,173 0,110 90,200 200,200 110,0 200,-90 200,-200 0,-74 -40,-139 -100,-173l0 -327 -200 0zm600 0l0 327c-60,34 -100,99 -100,173 0,110 90,200 200,200 110,0 200,-90 200,-200 0,-74 -40,-139 -100,-173l0 -327 -200 0zm600 0l0 327c-60,34 -100,99 -100,173 0,110 90,200 200,200 110,0 200,-90 200,-200 0,-74 -40,-139 -100,-173l0 -327 -200 0zm600 0l0 327c-60,34 -100,99 -100,173 0,110 90,200 200,200 110,0 200,-90 200,-200 0,-74 -40,-139 -100,-173l0 -327 -200 0zm-2100 2200l0 200 1200 0 0 93c0,111 -37,204 -116,282l-507 500c-117,115 -177,261 -177,425l0 300 200 0 0 -300c0,-111 37,-204 116,-282l507 -500c117,-116 177,-261 177,-425l0 -293 -1400 0z"/>
</svg>