<?xml version="1.0" encoding="utf-8"?>
<!-- Generator: Adobe Illustrator 19.2.1, SVG Export Plug-In . SVG Version: 6.00 Build 0)  -->
<svg version="1.1" id="calendar_x5F_gi" xmlns="http://www.w3.org/2000/svg" xmlns:xlink="http://www.w3.org/1999/xlink" x="0px"
	 y="0px" width="580px" height="580px" viewBox="0 0 580 580" style="enable-background:new 0 0 580 580;" xml:space="preserve">
<title>address_book2 icon</title>
<desc>address_book2 icon from the IconExperience.com I-Collection. Copyright by INCORS GmbH (www.incors.com).</desc>
<title>address_book2 icon</title>
<desc>address_book2 icon from the IconExperience.com I-Collection. Copyright by INCORS GmbH (www.incors.com).</desc>
<title>address_book2 icon</title>
<desc>address_book2 icon from the IconExperience.com I-Collection. Copyright by INCORS GmbH (www.incors.com).</desc>
<g>
	<rect x="263" y="333" width="54" height="54"/>
	<rect x="263" y="420" width="54" height="54"/>
	<rect x="263" y="246" width="54" height="53"/>
	<rect x="187" y="246" width="54" height="53"/>
	<rect x="339" y="333" width="129" height="141"/>
	<rect x="339" y="246" width="54" height="53"/>
	<rect x="415" y="246" width="53" height="53"/>
	<rect x="187" y="333" width="54" height="54"/>
	<rect x="111" y="333" width="54" height="54"/>
	<rect x="111" y="420" width="54" height="54"/>
	<rect x="111" y="246" width="54" height="53"/>
	<rect x="187" y="420" width="54" height="54"/>
	<path d="M70,50v480h440V50H70z M490,510H90V210h400V510z M490,190H90V70h400V190z"/>
	<polygon points="410,80.2 410,180.2 470,130.2 	"/>
	<polygon points="170,80.2 110,130.2 170,180.2 	"/>
</g>
</svg>
