<?xml version="1.0" encoding="utf-8"?>
<!-- Generator: Adobe Illustrator 27.8.0, SVG Export Plug-In . SVG Version: 6.00 Build 0)  -->
<svg version="1.1"
	 id="Ebene_1" text-rendering="geometricPrecision" shape-rendering="geometricPrecision" image-rendering="optimizeQuality"
	 xmlns="http://www.w3.org/2000/svg" xmlns:xlink="http://www.w3.org/1999/xlink" x="0px" y="0px" viewBox="0 0 580 580"
	 style="enable-background:new 0 0 580 580;" xml:space="preserve">
<style type="text/css">
	.st0{display:none;}
</style>
<path id="curve29" d="M90,230v300h400V230H90z M130,50c0-5.5,4.5-10,10-10s10,4.5,10,10v20h40V50c0-5.5,4.5-10,10-10s10,4.5,10,10
	v20h40V50c0-5.5,4.5-10,10-10s10,4.5,10,10v20h40V50c0-5.5,4.5-10,10-10s10,4.5,10,10v20h40V50c0-5.5,4.5-10,10-10s10,4.5,10,10v20
	h40V50c0-5.5,4.5-10,10-10s10,4.5,10,10v20h30c16.5,0,30,13.5,30,30c0,150,0,300,0,450H70c0-150,0-300,0-450c0-16.5,13.5-30,30-30
	h30V50z M150,90v12.7c6.2,3.5,10,10.1,10,17.3c0,11-9,20-20,20s-20-9-20-20c0-7.2,3.8-13.7,10-17.3V90h-30c-5.5,0-10,4.5-10,10v110
	h400V100c0-5.5-4.5-10-10-10h-30v12.7c6.2,3.5,10,10.1,10,17.3c0,11-9,20-20,20s-20-9-20-20c0-7.2,3.8-13.8,10-17.3V90h-40v12.7
	c6.2,3.5,10,10.1,10,17.3c0,11-9,20-20,20s-20-9-20-20c0-7.2,3.8-13.7,10-17.3V90h-40v12.7c6.2,3.6,10,10.1,10,17.3c0,11-9,20-20,20
	s-20-9-20-20c0-7.2,3.8-13.8,10-17.3V90h-40v12.7c6.2,3.5,10,10.1,10,17.3c0,11-9,20-20,20s-20-9-20-20c0-7.2,3.8-13.8,10-17.3V90
	h-40v12.7c6.2,3.5,10,10.1,10,17.3c0,11-9,20-20,20s-20-9-20-20c0-7.2,3.8-13.7,10-17.3V90H150z"/>
<path id="curve28" class="st0" d="M170,290h40v180h-20V310h-20V290z M410,470H270v-20c0-46.7,34.7-56.9,68.7-66.8
	c25.9-7.6,51.3-15.1,51.3-43.2c0-16.5-13.5-30-30-30h-40c-16.5,0-30,13.5-30,30h-20c0-27.5,22.5-50,50-50h40c27.5,0,50,22.5,50,50
	c0,43.1-32.6,52.6-65.8,62.3c-26.9,7.9-54.2,15.9-54.2,47.7h120V470z"/>
</svg>
