<?xml version="1.0" encoding="UTF-8"?>
<!DOCTYPE svg PUBLIC "-//W3C//DTD SVG 1.1//EN" "http://www.w3.org/Graphics/SVG/1.1/DTD/svg11.dtd">
<svg xmlns="http://www.w3.org/2000/svg" xml:space="preserve" width="580px" height="580px" shape-rendering="geometricPrecision" text-rendering="geometricPrecision" image-rendering="optimizeQuality" fill-rule="nonzero" clip-rule="nonzero" viewBox="0 0 5800 5800" xmlns:xlink="http://www.w3.org/1999/xlink">
	<title>caliper icon</title>
	<desc>caliper icon from the IconExperience.com I-Collection. Copyright by INCORS GmbH (www.incors.com).</desc>
		<path id="curve28"  d="M4276 4005l-964 -675 -141 141c-51,50 -73,103 -95,156 -31,71 -61,143 -138,220 -1,0 -51,53 -51,53 -99,100 -238,190 -458,-29l-270 -271 1341 -1341 1608 1607 -832 139zm48 -210l368 -62 -1192 -1192 -1059 1059 130 129c92,93 141,64 175,30 2,0 51,-53 51,-54 50,-50 73,-103 95,-156 30,-71 61,-143 137,-220l259 -259 1036 725zm-2865 -895l500 -500 -100 -100c80,-80 161,-161 241,-241l100 100 300 -300 441 441 -1041 1041 -441 -441zm282 0l159 159 759 -759 -159 -159c-253,253 -506,506 -759,759zm-70 471l-1130 1129 459 459 1129 -1130 142 142 -1271 1270 -741 -741 1270 -1271 142 142zm2058 -1142l271 -270 1264 1263 126 -316 -770 -1445 -720 -720 -759 759 200 200 -370 371 -142 -142 230 -229 -200 -200 1041 -1041 880 880 830 1555 -274 684 -1336 -1337 -129 130 -142 -142z"/>
</svg>