<?xml version="1.0" encoding="UTF-8"?>
<!DOCTYPE svg PUBLIC "-//W3C//DTD SVG 1.1//EN" "http://www.w3.org/Graphics/SVG/1.1/DTD/svg11.dtd">
<svg xmlns="http://www.w3.org/2000/svg" xml:space="preserve" width="580px" height="580px" shape-rendering="geometricPrecision" text-rendering="geometricPrecision" image-rendering="optimizeQuality" fill-rule="nonzero" clip-rule="nonzero" viewBox="0 0 5800 5800" xmlns:xlink="http://www.w3.org/1999/xlink">
	<title>calibration_mark icon</title>
	<desc>calibration_mark icon from the IconExperience.com I-Collection. Copyright by INCORS GmbH (www.incors.com).</desc>
		<path id="curve28"  d="M3000 302c1356,51 2447,1142 2498,2498l-400 0c-51,-1136 -962,-2047 -2098,-2098l0 -400zm2498 2698c-51,1356 -1142,2447 -2498,2498l0 -400c1136,-51 2047,-962 2098,-2098l400 0zm-2698 2498c-1356,-51 -2447,-1142 -2498,-2498l400 0c51,1136 962,2047 2098,2098l0 400zm-2498 -2698c51,-1356 1142,-2447 2498,-2498l0 400c-1136,51 -2047,962 -2098,2098l-400 0zm2698 -1296c694,49 1247,602 1296,1296l-1296 0 0 -1296zm1300 1296l598 0c-51,-1025 -873,-1847 -1898,-1898l0 598 -200 0 0 -598c-1025,51 -1847,873 -1898,1898l598 0 0 200 -598 0c51,1025 873,1847 1898,1898l0 -598 200 0 0 598c1025,-51 1847,-873 1898,-1898l-598 0 0 -200zm-2796 0c49,-694 602,-1247 1296,-1296l0 1296 -1296 0zm1296 200l0 1296c-694,-49 -1247,-602 -1296,-1296l1296 0zm1496 0c-49,694 -602,1247 -1296,1296l0 -1296 1296 0z"/>
</svg>