<?xml version="1.0" encoding="UTF-8"?>
<!DOCTYPE svg PUBLIC "-//W3C//DTD SVG 1.1//EN" "http://www.w3.org/Graphics/SVG/1.1/DTD/svg11.dtd">
<svg xmlns="http://www.w3.org/2000/svg" xml:space="preserve" width="580px" height="580px" shape-rendering="geometricPrecision" text-rendering="geometricPrecision" image-rendering="optimizeQuality" fill-rule="nonzero" clip-rule="nonzero" viewBox="0 0 5800 5800" xmlns:xlink="http://www.w3.org/1999/xlink">
	<title>caliper icon</title>
	<desc>caliper icon from the IconExperience.com I-Collection. Copyright by INCORS GmbH (www.incors.com).</desc>
		<path id="curve28"  d="M4276 4005l-964 -675 -141 141c-51,50 -73,103 -95,156 -31,71 -61,143 -138,220 -8,0 -51,53 -51,53 -99,100 -238,190 -458,-29l-270 -271 1341 -1341 1608 1607 -832 139zm-276 -1764l-117 118 -383 -383 -300 300 -359 -359 218 -217 -200 -200 1041 -1041 880 880 830 1555 -274 684 -1336 -1337zm-1741 1742l-1259 1258 -741 -741 1258 -1259c247,248 494,495 742,742zm-800 -1083l500 -500 -100 -100 241 -241 100 100 300 -300 441 441 -1041 1041c-147,-147 -294,-294 -441,-441z"/>
</svg>