<?xml version="1.0" encoding="UTF-8"?>
<!DOCTYPE svg PUBLIC "-//W3C//DTD SVG 1.1//EN" "http://www.w3.org/Graphics/SVG/1.1/DTD/svg11.dtd">
<svg xmlns="http://www.w3.org/2000/svg" xml:space="preserve" width="580px" height="580px" shape-rendering="geometricPrecision" text-rendering="geometricPrecision" image-rendering="optimizeQuality" fill-rule="nonzero" clip-rule="nonzero" viewBox="0 0 5800 5800" xmlns:xlink="http://www.w3.org/1999/xlink">
	<title>can_closed icon</title>
	<desc>can_closed icon from the IconExperience.com I-Collection. Copyright by INCORS GmbH (www.incors.com).</desc>
	<path id="curve0"  d="M4100 1900l0 2800 -200 0 0 -2800 200 0zm500 2659c65,74 100,155 100,241 0,213 -216,395 -565,518 -688,243 -1782,243 -2470,0 -349,-123 -565,-305 -565,-518 0,-86 35,-167 100,-241l0 -3318c-65,-74 -100,-155 -100,-241 0,-213 216,-395 565,-518 318,-113 755,-182 1235,-182 480,0 917,69 1235,182 349,123 565,305 565,518 0,86 -35,167 -100,241l0 3318zm-3300 241c0,119 165,236 431,330 644,227 1694,227 2338,0 266,-94 431,-211 431,-330l-100 0 0 -3401c-76,44 -165,84 -265,119 -318,113 -755,182 -1235,182 -480,0 -917,-69 -1235,-182 -100,-35 -189,-75 -265,-119l0 3401 -100 0zm3200 -3800c0,-119 -165,-236 -431,-330 -297,-105 -711,-170 -1169,-170 -458,0 -872,65 -1169,170 -266,94 -431,211 -431,330 0,168 320,291 431,330 297,105 711,170 1169,170 458,0 872,-65 1169,-170 111,-39 431,-162 431,-330z"/>
</svg>