<?xml version="1.0" encoding="UTF-8"?>
<!DOCTYPE svg PUBLIC "-//W3C//DTD SVG 1.1//EN" "http://www.w3.org/Graphics/SVG/1.1/DTD/svg11.dtd">
<svg xmlns="http://www.w3.org/2000/svg" xml:space="preserve" width="580px" height="580px" shape-rendering="geometricPrecision" text-rendering="geometricPrecision" image-rendering="optimizeQuality" fill-rule="nonzero" clip-rule="nonzero" viewBox="0 0 5800 5800" xmlns:xlink="http://www.w3.org/1999/xlink">
	<title>can_open icon</title>
	<desc>can_open icon from the IconExperience.com I-Collection. Copyright by INCORS GmbH (www.incors.com).</desc>
	<path id="curve0"  d="M3980 707c369,21 700,84 955,174 49,17 165,62 165,119 0,13 -6,25 -18,39 -40,21 -84,41 -132,61 -26,-11 -53,-21 -81,-31 -644,-227 -1694,-227 -2338,0 -28,10 -55,20 -81,31 -48,-20 -92,-40 -132,-61 -12,-14 -18,-26 -18,-39 0,-57 116,-102 165,-119 255,-90 586,-153 955,-174 186,-9 374,-9 560,0zm955 -225c349,123 565,305 565,518 0,86 -35,167 -100,241l0 3318c65,74 100,155 100,241 0,213 -216,395 -565,518 -688,243 -1782,243 -2470,0 -349,-123 -565,-305 -565,-518 0,-86 35,-167 100,-241l0 -507c237,-220 454,-514 619,-858 201,-418 317,-859 268,-1325 -17,-165 -59,-328 -133,-473 620,152 1515,146 2115,-66 123,-43 431,-166 431,-330 0,-119 -165,-236 -431,-330 -644,-227 -1694,-227 -2338,0 -266,94 -431,211 -431,330 0,43 21,85 61,126 36,11 68,23 101,39 249,119 394,385 429,724 43,409 -75,852 -251,1219 -201,417 -482,754 -775,960 -309,217 -634,294 -902,178 -295,-125 -423,-435 -454,-735 -43,-409 75,-852 251,-1219 201,-417 482,-754 775,-960 194,-136 394,-217 582,-230 -11,-33 -17,-67 -17,-102 0,-213 216,-395 565,-518 688,-243 1782,-243 2470,0zm-35 1418l-200 60 0 2740 200 0 0 -2800z"/>
</svg>