<?xml version="1.0" encoding="UTF-8"?>
<!DOCTYPE svg PUBLIC "-//W3C//DTD SVG 1.1//EN" "http://www.w3.org/Graphics/SVG/1.1/DTD/svg11.dtd">
<svg xmlns="http://www.w3.org/2000/svg" xml:space="preserve" width="580px" height="580px" shape-rendering="geometricPrecision" text-rendering="geometricPrecision" image-rendering="optimizeQuality" fill-rule="nonzero" clip-rule="nonzero" viewBox="0 0 5800 5800" xmlns:xlink="http://www.w3.org/1999/xlink">
	<title>can_closed icon</title>
	<desc>can_closed icon from the IconExperience.com I-Collection. Copyright by INCORS GmbH (www.incors.com).</desc>
	<path id="curve0"  d="M4600 1505l0 3054c65,74 100,155 100,241 0,213 -216,395 -565,518 -688,243 -1782,243 -2470,0 -349,-123 -565,-305 -565,-518 0,-86 35,-167 100,-241l0 -3054c126,90 273,155 399,199 732,258 1870,258 2602,0 126,-44 273,-109 399,-199zm-700 495l0 2700 200 0 0 -2754 -200 54zm235 -1518c349,123 565,305 565,518 0,213 -216,395 -565,518 -688,243 -1782,243 -2470,0 -349,-123 -565,-305 -565,-518 0,-213 216,-395 565,-518 688,-243 1782,-243 2470,0z"/>
</svg>