<?xml version="1.0" encoding="UTF-8"?>
<!DOCTYPE svg PUBLIC "-//W3C//DTD SVG 1.1//EN" "http://www.w3.org/Graphics/SVG/1.1/DTD/svg11.dtd">
<svg xmlns="http://www.w3.org/2000/svg" xml:space="preserve" width="580px" height="580px" shape-rendering="geometricPrecision" text-rendering="geometricPrecision" image-rendering="optimizeQuality" fill-rule="nonzero" clip-rule="nonzero" viewBox="0 0 5800 5800" xmlns:xlink="http://www.w3.org/1999/xlink">
	<title>candle icon</title>
	<desc>candle icon from the IconExperience.com I-Collection. Copyright by INCORS GmbH (www.incors.com).</desc>
		<path id="curve28"  d="M3900 2900l0 2600 -2201 0 12 -939c-218,-4 -375,-164 -375,-382 0,-151 89,-268 183,-393 87,-116 181,-240 181,-386l0 -500c0,-110 90,-200 200,-200l800 0 0 -207c-344,-51 -600,-375 -600,-718 0,-243 109,-393 219,-547 114,-158 231,-320 183,-612l-26 -155 151 43c380,108 599,301 723,533 122,227 150,487 150,738 -1,337 -262,666 -600,717l0 208 800 0c110,0 200,90 200,200zm-1100 -600c274,0 500,-260 500,-525 0,-223 -22,-452 -125,-643 -85,-158 -227,-294 -462,-388 4,273 -115,439 -232,601 -91,126 -181,250 -181,430 0,273 219,525 500,525z"/>
</svg>