<?xml version="1.0" encoding="UTF-8"?>
<!DOCTYPE svg PUBLIC "-//W3C//DTD SVG 1.1//EN" "http://www.w3.org/Graphics/SVG/1.1/DTD/svg11.dtd">
<svg xmlns="http://www.w3.org/2000/svg" xml:space="preserve" width="580px" height="580px" shape-rendering="geometricPrecision" text-rendering="geometricPrecision" image-rendering="optimizeQuality" fill-rule="nonzero" clip-rule="nonzero" viewBox="0 0 5800 5800" xmlns:xlink="http://www.w3.org/1999/xlink">
	<title>candle_holder icon</title>
	<desc>candle_holder icon from the IconExperience.com I-Collection. Copyright by INCORS GmbH (www.incors.com).</desc>
		<path id="curve28" d="M4310 4199c1,-194 79,-368 204,-494 126,-127 299,-205 491,-205 192,0 366,79 491,205 126,127 204,302 204,495 0,193 -78,368 -204,495 -104,105 -242,177 -396,198l0 207c0,220 -180,400 -400,400l-3600 0c-220,0 -400,-180 -400,-400l0 -400 1202 0 9 -739c-218,-4 -375,-164 -375,-382 0,-151 89,-268 183,-393 87,-116 181,-240 181,-386l0 -500c0,-110 90,-200 200,-200l600 0 0 -208c-283,-48 -500,-311 -500,-597 0,-278 115,-420 221,-550 84,-104 161,-199 123,-380l-36 -171 166 56c245,83 427,218 547,392 126,182 184,404 179,655 -7,279 -222,545 -500,594l0 209 600 0c110,0 200,90 200,200l0 2400 195 0c165,-24 270,-74 330,-152 62,-80 85,-197 85,-349zm-1510 -2499c215,0 396,-197 400,-407 5,-209 -42,-392 -143,-537 -71,-104 -172,-190 -302,-256 -10,161 -92,262 -180,371 -84,103 -175,216 -175,424 0,216 181,405 400,405zm1710 2500c0,178 -28,363 -152,500l647 0c137,0 261,-56 350,-146 90,-90 145,-215 145,-354 0,-139 -55,-264 -145,-354 -89,-90 -213,-146 -350,-146 -137,0 -260,56 -350,146 -90,90 -145,215 -145,354zm-3610 700l0 200c0,110 90,200 200,200l3600 0c110,0 200,-90 200,-200l0 -200c-1333,0 -2667,0 -4000,0zm2600 -200l0 -2400 -1400 0 0 500c0,212 -115,364 -221,506 -74,98 -143,189 -143,273 0,140 121,215 243,172l135 -48 -13 997 1399 0z"/>
</svg>