<?xml version="1.0" encoding="UTF-8"?>
<!DOCTYPE svg PUBLIC "-//W3C//DTD SVG 1.1//EN" "http://www.w3.org/Graphics/SVG/1.1/DTD/svg11.dtd">
<svg xmlns="http://www.w3.org/2000/svg" xml:space="preserve" width="580px" height="580px" shape-rendering="geometricPrecision" text-rendering="geometricPrecision" image-rendering="optimizeQuality" fill-rule="nonzero" clip-rule="nonzero" viewBox="0 0 5800 5800" xmlns:xlink="http://www.w3.org/1999/xlink">
	<title>candle_holder icon</title>
	<desc>candle_holder icon from the IconExperience.com I-Collection. Copyright by INCORS GmbH (www.incors.com).</desc>
		<path id="curve28"  d="M4310 4199c2,-384 310,-699 695,-699 385,0 695,316 695,700 0,347 -256,646 -600,693l0 207c0,220 -180,400 -400,400l-3600 0c-220,0 -400,-180 -400,-400l0 -400 3195 0c165,-24 270,-74 330,-152 62,-80 85,-197 85,-349zm-1610 -2099l0 -208c-283,-48 -500,-311 -500,-597 0,-278 115,-420 221,-550 84,-104 161,-199 123,-380l-36 -171 166 56c245,83 427,218 547,392 126,182 184,404 179,655 -7,279 -222,545 -500,594l0 209 600 0c110,0 200,90 200,200l0 2200 -1797 0 8 -539c-218,-4 -375,-164 -375,-382 0,-151 89,-268 183,-393 87,-116 181,-240 181,-386l0 -500c0,-110 90,-200 200,-200l600 0zm100 -400c215,0 396,-197 400,-407 5,-209 -42,-392 -143,-537 -71,-104 -172,-190 -302,-256 -10,161 -92,262 -180,371 -84,103 -175,216 -175,424 0,216 181,405 400,405zm1710 2500c0,179 -28,363 -152,500l647 0c276,0 495,-225 495,-500 0,-275 -219,-500 -495,-500 -275,0 -495,225 -495,500z"/>
</svg>