<?xml version="1.0" encoding="UTF-8"?>
<!DOCTYPE svg PUBLIC "-//W3C//DTD SVG 1.1//EN" "http://www.w3.org/Graphics/SVG/1.1/DTD/svg11.dtd">
<svg xmlns="http://www.w3.org/2000/svg" xml:space="preserve" width="580px" height="580px" shape-rendering="geometricPrecision" text-rendering="geometricPrecision" image-rendering="optimizeQuality" fill-rule="nonzero" clip-rule="nonzero" viewBox="0 0 5800 5800" xmlns:xlink="http://www.w3.org/1999/xlink">
	<title>cannon icon</title>
	<desc>cannon icon from the IconExperience.com I-Collection. Copyright by INCORS GmbH (www.incors.com).</desc>
	<path id="curve0" d="M3000 2900c718,0 1300,582 1300,1300 0,718 -582,1300 -1300,1300 -718,0 -1300,-582 -1300,-1300 0,-718 582,-1300 1300,-1300zm568 2242l-458 -630c-71,25 -149,25 -220,0l-458 630c347,210 789,210 1136,0zm-1297 -118l460 -632c-43,-59 -64,-130 -62,-203l-740 -241c-92,393 39,807 342,1076zm-279 -1265l744 242c41,-55 99,-96 164,-116l0 -781c-400,36 -748,289 -908,655zm1108 -655l0 781c65,20 123,61 164,116l744 -242c-160,-366 -508,-619 -908,-655zm971 844l-740 241c2,72 -19,144 -62,203l460 632c303,-269 434,-682 342,-1076zm-3968 1428l100 -400c11,-46 52,-76 97,-76l800 0c40,0 70,-12 98,-40l274 -275c20,-19 45,-29 71,-29 15,63 34,124 57,184l-261 261c-65,64 -147,99 -239,99l-722 0 -50 200 1001 -1c33,0 104,-53 128,-75 74,-84 174,-175 255,-256 35,59 73,115 115,167l-225 225c-65,66 -179,138 -273,138l-1129 2c-65,0 -112,-62 -97,-124zm501 -2489c3,-19 6,-37 11,-55 74,-302 329,-528 639,-565l3999 -481c54,-7 104,32 111,87l161 983c8,53 -27,103 -78,113l-1295 270c-51,-61 -106,-117 -166,-169l1326 -277 -131 -798 -3903 470c-228,27 -415,193 -469,414 -35,142 -1,350 77,473 123,194 353,290 577,243l181 -37c-33,70 -62,144 -84,221l-56 12c-304,63 -619,-69 -786,-332 -10,-16 -20,-32 -28,-48 -105,78 -248,80 -355,4 -135,-97 -165,-284 -68,-419 76,-106 213,-151 337,-109zm-36 203c-45,-33 -107,-22 -140,23 -32,44 -21,108 23,140 45,32 108,21 140,-23 33,-45 22,-108 -23,-140z"/>
</svg>