<?xml version="1.0" encoding="utf-8"?>
<!-- Generator: Adobe Illustrator 19.2.1, SVG Export Plug-In . SVG Version: 6.00 Build 0)  -->
<svg version="1.1" id="Ebene_1" xmlns="http://www.w3.org/2000/svg" xmlns:xlink="http://www.w3.org/1999/xlink" x="0px" y="0px"
	 width="580px" height="580px" viewBox="0 0 580 580" style="enable-background:new 0 0 580 580;" xml:space="preserve">
<title>address_book2 icon</title>
<desc>address_book2 icon from the IconExperience.com I-Collection. Copyright by INCORS GmbH (www.incors.com).</desc>
<g>
	<polygon points="54,154 19,154 19,423 169,423 169,394 54,394 	"/>
	<path d="M312.5,213.5c-6.7-38.2-27.9-75.5-86.2-65.3c-24,4.2-45.7,14.9-59.7,27.9l11.9,21.5c11.9-11,29.4-19.8,47.2-22.9
		c39-6.8,48.3,20.8,51.1,36.5l0.7,3.9c-73.7,12.5-110.3,44.9-102.2,91c4.8,27.6,29.3,51.3,67.9,44.5c27.2-4.8,45.3-21.8,53.3-38.6
		l1.2-0.2l7,23.5l31.5-5.5c-4.6-12.6-8.3-28.6-11.2-45.1L312.5,213.5z M288.2,283.6c-2.7,17.1-15.7,35.6-40.5,40
		c-17.7,3.1-34.6-4.9-38.5-27.4c-6.5-37,35.3-51.3,73.2-57.1l5.8,33.1C288.9,275.7,288.8,279.8,288.2,283.6z"/>
	<path d="M559.7,245.5c6.2-31.8-12.4-67.7-61.8-77.4c-44.7-8.8-84.3,12-92.2,52.4c-4.3,22,3.5,46.4,29.2,65.2l0.2,1.3
		c-34,7.2-57.7,26.2-64.1,58.3c-7.3,37.3,18.6,75.4,72,85.9c48.7,9.6,92.6-12.8,101.3-57.1c6.1-31-9.1-57.2-38.5-76l0.2-1.2
		C540.3,288.2,555.4,267.1,559.7,245.5z M508.5,370.8c-5.2,26.3-29,41.6-60,35.5c-32.6-6.4-47.7-33-41.5-58.7
		c4.8-24.3,24.7-40.8,56.3-43.6C496,320.7,514.6,339.8,508.5,370.8z M478,281.3c-27.9-13.6-44.4-31.2-39.4-56.7
		c4.3-22,23.7-37.7,52.4-32.1c31,6.1,39,29.7,35,50.1C521.5,265.8,501.5,278.1,478,281.3z"/>
</g>
</svg>
