<?xml version="1.0" encoding="UTF-8"?>
<!DOCTYPE svg PUBLIC "-//W3C//DTD SVG 1.1//EN" "http://www.w3.org/Graphics/SVG/1.1/DTD/svg11.dtd">
<svg xmlns="http://www.w3.org/2000/svg" xml:space="preserve" width="580px" height="580px" shape-rendering="geometricPrecision" text-rendering="geometricPrecision" image-rendering="optimizeQuality" fill-rule="nonzero" clip-rule="nonzero" viewBox="0 0 5800 5800" xmlns:xlink="http://www.w3.org/1999/xlink">
	<title>car_sedan2 icon</title>
	<desc>car_sedan2 icon from the IconExperience.com I-Collection. Copyright by INCORS GmbH (www.incors.com).</desc>
		<path id="curve28"  d="M800 4600l-400 0c-55,0 -100,-45 -100,-100l0 -1100c0,-52 40,-96 92,-100l508 -72c50,-7 95,-22 136,-44 41,-23 78,-53 111,-92l328 -382c58,-69 127,-121 204,-156 77,-36 161,-54 251,-54l1182 0c75,0 145,12 212,37 65,25 126,62 183,112l640 559 874 195c51,11 161,39 260,92 117,62 219,159 219,305l0 700c0,55 -45,100 -100,100l-400 0 0 -200 300 0 0 -600c0,-54 -52,-97 -112,-129 -78,-42 -168,-65 -209,-74l-898 -199c-16,-3 -33,-11 -47,-23l-658 -576c-38,-34 -79,-59 -123,-75 -43,-16 -89,-24 -141,-24l-1182 0c-62,0 -118,12 -168,35 -51,23 -96,58 -136,104l-328 383c-49,57 -104,103 -166,137 -62,34 -130,56 -204,66l-428 62 0 913 300 0 0 200zm2600 0l-1000 0 0 -200 1000 0 0 200zm800 -700c166,0 316,67 424,176 109,108 176,258 176,424 0,331 -269,600 -600,600 -331,0 -600,-269 -600,-600 0,-331 269,-600 600,-600zm0 200c-221,0 -400,179 -400,400 0,221 179,400 400,400 221,0 400,-179 400,-400 0,-221 -179,-400 -400,-400zm-2600 -200c331,0 600,269 600,600 0,331 -269,600 -600,600 -331,0 -600,-269 -600,-600 0,-331 269,-600 600,-600zm0 200c-221,0 -400,179 -400,400 0,221 179,400 400,400 221,0 400,-179 400,-400 0,-221 -179,-400 -400,-400z"/>
</svg>