<?xml version="1.0" encoding="UTF-8"?>
<!DOCTYPE svg PUBLIC "-//W3C//DTD SVG 1.1//EN" "http://www.w3.org/Graphics/SVG/1.1/DTD/svg11.dtd">
<svg xmlns="http://www.w3.org/2000/svg" xml:space="preserve" width="580px" height="580px" shape-rendering="geometricPrecision" text-rendering="geometricPrecision" image-rendering="optimizeQuality" fill-rule="nonzero" clip-rule="nonzero" viewBox="0 0 5800 5800" xmlns:xlink="http://www.w3.org/1999/xlink">
	<title>car_sports icon</title>
	<desc>car_sports icon from the IconExperience.com I-Collection. Copyright by INCORS GmbH (www.incors.com).</desc>
		<path id="curve28"  d="M1500 5224l0 76c0,110 -90,200 -200,200l-800 0c-110,0 -200,-90 -200,-200l0 -452c92,155 223,252 400,252l634 0c17,0 31,2 40,6 1,0 115,108 126,118zm4000 -374l0 450c0,110 -90,200 -200,200l-800 0c-110,0 -200,-90 -200,-200l0 -76c24,-23 101,-108 126,-118 9,-4 23,-6 40,-6l634 0c175,0 306,-96 400,-250zm-3293 -650c-82,0 -152,43 -187,115 -35,72 -24,152 28,213l172 200c41,47 95,72 158,72l1044 0c63,0 117,-25 158,-72l172 -200c52,-61 63,-141 28,-213 -35,-72 -105,-115 -187,-115l-1386 0zm3160 -397c-454,18 -894,141 -1167,597l1162 0c35,-165 64,-436 5,-597zm-4931 0c-66,159 -29,433 6,597l1158 0c-273,-455 -711,-579 -1164,-597zm3822 -1484c269,184 562,610 713,900 168,61 334,153 453,293 107,124 176,284 176,488 0,224 -31,451 -93,616 -64,172 -166,284 -307,284l-734 0c-161,0 -246,121 -349,224 -115,116 -261,176 -424,176l-1586 0c-163,0 -309,-60 -424,-176 -103,-103 -188,-224 -349,-224l-734 0c-140,0 -239,-110 -302,-278 -62,-164 -93,-393 -98,-620 -4,-190 67,-351 178,-480 119,-139 285,-241 451,-303 148,-285 449,-725 716,-902 316,-210 975,-217 1355,-217 309,0 1030,0 1358,219zm-113 164c-275,-183 -954,-183 -1245,-183 -329,0 -973,3 -1245,183 -200,134 -438,465 -564,677 441,-73 1126,-110 1809,-110 683,0 1368,37 1809,110 -127,-213 -362,-542 -564,-677z"/>
</svg>