<?xml version="1.0" encoding="UTF-8"?>
<!DOCTYPE svg PUBLIC "-//W3C//DTD SVG 1.1//EN" "http://www.w3.org/Graphics/SVG/1.1/DTD/svg11.dtd">
<svg xmlns="http://www.w3.org/2000/svg" xml:space="preserve" width="580px" height="580px" shape-rendering="geometricPrecision" text-rendering="geometricPrecision" image-rendering="optimizeQuality" fill-rule="nonzero" clip-rule="nonzero" viewBox="0 0 5800 5800" xmlns:xlink="http://www.w3.org/1999/xlink">
	<title>car_compact2 icon</title>
	<desc>car_compact2 icon from the IconExperience.com I-Collection. Copyright by INCORS GmbH (www.incors.com).</desc>
		<path id="curve29"  d="M4994 4600c4,-33 6,-66 6,-100 0,-442 -358,-800 -800,-800 -442,0 -800,358 -800,800 0,34 2,67 6,100l-1012 0c4,-33 6,-66 6,-100 0,-442 -358,-800 -800,-800 -442,0 -800,358 -800,800 0,34 2,67 6,100l-306 0c-55,0 -100,-45 -100,-100l-78 -858c-8,-91 3,-178 32,-259 29,-81 76,-155 141,-219l688 -688c115,-116 261,-176 424,-176l1293 0c445,0 857,417 1118,681 51,51 96,97 130,128l776 194c180,45 318,121 413,217 109,108 163,240 163,380l0 600c0,55 -45,100 -100,100l-406 0z"/>
	<path id="curve28"  d="M4200 3900c331,0 600,269 600,600 0,331 -269,600 -600,600 -331,0 -600,-269 -600,-600 0,-331 269,-600 600,-600zm-2600 0c331,0 600,269 600,600 0,331 -269,600 -600,600 -331,0 -600,-269 -600,-600 0,-331 269,-600 600,-600z"/>
</svg>