<?xml version="1.0" encoding="UTF-8"?>
<!DOCTYPE svg PUBLIC "-//W3C//DTD SVG 1.1//EN" "http://www.w3.org/Graphics/SVG/1.1/DTD/svg11.dtd">
<svg xmlns="http://www.w3.org/2000/svg" xml:space="preserve" width="580px" height="580px" shape-rendering="geometricPrecision" text-rendering="geometricPrecision" image-rendering="optimizeQuality" fill-rule="nonzero" clip-rule="nonzero" viewBox="0 0 5800 5800" xmlns:xlink="http://www.w3.org/1999/xlink">
	<title>car_sports icon</title>
	<desc>car_sports icon from the IconExperience.com I-Collection. Copyright by INCORS GmbH (www.incors.com).</desc>
		<path id="curve28" d="M4258 2319c109,75 249,216 386,392 115,148 231,324 327,508 168,61 334,153 453,293 107,124 176,284 176,488 0,224 -31,451 -93,616 -64,172 -166,284 -307,284l-734 0c-43,0 -81,7 -116,22 -34,14 -66,36 -96,66l-137 136c-58,58 -122,102 -194,131 -72,30 -149,45 -230,45l-1586 0c-81,0 -158,-15 -230,-45 -72,-29 -136,-73 -194,-131l-137 -136c-29,-30 -62,-52 -96,-66 -35,-15 -73,-22 -116,-22l-734 0c-140,0 -239,-110 -302,-278 -62,-164 -93,-393 -98,-620 -4,-190 67,-351 178,-480 119,-139 285,-241 451,-303 95,-183 212,-360 327,-508 140,-180 282,-323 392,-397 323,-207 968,-214 1352,-214 309,0 1030,0 1358,219zm1242 2531l0 450c0,110 -90,200 -200,200l-800 0c-110,0 -200,-90 -200,-200l0 -76 95 -95c12,-12 22,-20 31,-23 20,-8 52,-6 74,-6l0 200 800 0 0 -249c80,-43 146,-112 200,-201zm-4000 374l0 76c0,110 -90,200 -200,200l-800 0c-110,0 -200,-90 -200,-200l0 -452c53,90 119,160 200,203 0,61 0,249 0,249l800 0 0 -200c22,0 55,-2 74,6 9,3 19,11 31,23l95 95zm-1012 -1519c197,12 392,44 573,115 244,95 462,258 625,529 28,47 12,108 -35,137 -16,9 -34,14 -51,14l-1133 0c18,58 67,200 133,200l734 0c68,0 132,12 192,37 60,25 114,62 162,109l136 137c40,40 83,69 129,88 47,19 98,29 154,29l1586 0c56,0 107,-10 154,-29 46,-19 89,-48 129,-88l136 -137c48,-47 102,-84 162,-109 60,-25 124,-37 192,-37l734 0c68,0 118,-142 136,-200l-1136 0c-17,0 -35,-5 -51,-14 -47,-29 -63,-90 -35,-137 163,-271 381,-434 625,-529 184,-72 381,-104 581,-115 -15,-23 -30,-44 -47,-64 -100,-117 -248,-194 -397,-244 -392,-98 -1183,-147 -1976,-147 -793,0 -1584,49 -1975,147 -147,50 -294,136 -395,254 -15,18 -29,36 -42,54zm-64 595l983 0c-120,-141 -262,-234 -418,-295 -179,-69 -379,-97 -582,-103 -6,31 -8,63 -7,96 2,104 10,207 24,302zm4969 -398c-204,6 -403,34 -582,103 -156,61 -298,154 -418,295l987 0c13,-94 20,-197 20,-300 0,-35 -3,-67 -7,-98zm-3186 198l1386 0c119,0 225,65 277,172 52,107 35,230 -43,321l-171 200c-60,70 -143,107 -234,107l-1044 0c-91,0 -174,-37 -234,-107l-171 -200c-78,-91 -95,-213 -43,-321 52,-107 158,-172 277,-172zm1386 200l-1386 0c-43,0 -78,20 -97,59 -18,36 -12,73 14,104l172 200c22,26 49,37 82,37l1044 0c33,0 60,-11 82,-37l172 -200c26,-31 32,-68 14,-104 -19,-39 -54,-59 -97,-59zm554 -1815c-277,-185 -956,-185 -1247,-185 -332,0 -966,3 -1242,181 -92,62 -217,189 -344,353 -77,99 -154,210 -223,326 441,-73 1126,-110 1809,-110 683,0 1368,37 1809,110 -69,-116 -146,-227 -223,-326 -125,-161 -248,-287 -339,-349z"/>
</svg>