<?xml version="1.0" encoding="UTF-8"?>
<!DOCTYPE svg PUBLIC "-//W3C//DTD SVG 1.1//EN" "http://www.w3.org/Graphics/SVG/1.1/DTD/svg11.dtd">
<svg xmlns="http://www.w3.org/2000/svg" xml:space="preserve" width="580px" height="580px" shape-rendering="geometricPrecision" text-rendering="geometricPrecision" image-rendering="optimizeQuality" fill-rule="nonzero" clip-rule="nonzero" viewBox="0 0 5800 5800" xmlns:xlink="http://www.w3.org/1999/xlink">
	<title>car_compact icon</title>
	<desc>car_compact icon from the IconExperience.com I-Collection. Copyright by INCORS GmbH (www.incors.com).</desc>
		<path id="curve28"  d="M4900 4900l0 400c0,110 -90,200 -200,200l-400 0c-110,0 -200,-90 -200,-200l0 -400 800 0zm-3200 0l0 400c0,110 -90,200 -200,200l-400 0c-110,0 -200,-90 -200,-200l0 -400 800 0zm1200 -3800c331,0 708,13 1027,104 652,186 1040,1033 1204,1839 63,309 93,613 93,870 -1,204 -18,787 -324,787l-4000 0c-322,0 -342,-569 -340,-788 1,-253 34,-551 99,-854 174,-813 577,-1672 1214,-1854 325,-93 690,-104 1027,-104zm1904 1571c4,-12 10,-23 17,-33 -184,-587 -496,-1113 -948,-1242 -300,-86 -661,-96 -973,-96 -317,0 -667,9 -973,96 -439,126 -756,652 -949,1242 8,9 14,21 18,33 110,370 1596,429 1904,429 308,0 1794,-59 1904,-429zm-3204 929c-220,0 -400,180 -400,400l0 200 800 0 0 -200c0,-220 -180,-400 -400,-400zm700 500l0 200 1200 0 0 -200 -1200 0zm1900 -500c-220,0 -400,180 -400,400l0 200 800 0 0 -200c0,-220 -180,-400 -400,-400z"/>
</svg>