<?xml version="1.0" encoding="UTF-8"?>
<!DOCTYPE svg PUBLIC "-//W3C//DTD SVG 1.1//EN" "http://www.w3.org/Graphics/SVG/1.1/DTD/svg11.dtd">
<svg xmlns="http://www.w3.org/2000/svg" xml:space="preserve" width="580px" height="580px" shape-rendering="geometricPrecision" text-rendering="geometricPrecision" image-rendering="optimizeQuality" fill-rule="nonzero" clip-rule="nonzero" viewBox="0 0 5800 5800" xmlns:xlink="http://www.w3.org/1999/xlink">
	<title>car_compact2 icon</title>
	<desc>car_compact2 icon from the IconExperience.com I-Collection. Copyright by INCORS GmbH (www.incors.com).</desc>
		<path id="curve28" d="M800 4600l-300 0c-55,0 -100,-45 -100,-100l-78 -858c-17,-182 44,-349 173,-478l688 -688c115,-116 261,-176 424,-176l1293 0c445,0 857,417 1118,681 51,51 96,97 130,128l776 194c180,45 318,121 413,217 109,108 163,240 163,380l0 600c0,55 -45,100 -100,100l-400 0 0 -200 300 0 0 -500c0,-86 -35,-169 -104,-239 -71,-71 -178,-128 -320,-164l-800 -200c-15,-4 -29,-11 -42,-22 -47,-42 -99,-94 -158,-154 -238,-241 -615,-621 -976,-621l-1293 0c-112,0 -203,38 -283,117l-688 688c-87,88 -127,196 -116,319l71 776 209 0 0 200zm2600 0l-1000 0 0 -200 1000 0 0 200zm800 -700c331,0 600,269 600,600 0,331 -269,600 -600,600 -331,0 -600,-269 -600,-600 0,-331 269,-600 600,-600zm0 200c-221,0 -400,179 -400,400 0,221 179,400 400,400 221,0 400,-179 400,-400 0,-221 -179,-400 -400,-400zm-2600 -200c331,0 600,269 600,600 0,331 -269,600 -600,600 -331,0 -600,-269 -600,-600 0,-331 269,-600 600,-600zm0 200c-221,0 -400,179 -400,400 0,221 179,400 400,400 221,0 400,-179 400,-400 0,-221 -179,-400 -400,-400z"/>
</svg>