<?xml version="1.0" encoding="UTF-8"?>
<!DOCTYPE svg PUBLIC "-//W3C//DTD SVG 1.1//EN" "http://www.w3.org/Graphics/SVG/1.1/DTD/svg11.dtd">
<svg xmlns="http://www.w3.org/2000/svg" xml:space="preserve" width="580px" height="580px" shape-rendering="geometricPrecision" text-rendering="geometricPrecision" image-rendering="optimizeQuality" fill-rule="nonzero" clip-rule="nonzero" viewBox="0 0 5800 5800" xmlns:xlink="http://www.w3.org/1999/xlink">
	<title>car_compact icon</title>
	<desc>car_compact icon from the IconExperience.com I-Collection. Copyright by INCORS GmbH (www.incors.com).</desc>
		<path id="curve28"  d="M4200 3500c276,0 500,224 500,500l0 200c0,55 -45,100 -100,100l-800 0c-55,0 -100,-45 -100,-100l0 -200c0,-276 225,-500 500,-500zm-2500 1400l0 400c0,110 -90,200 -200,200l-400 0c-110,0 -200,-90 -200,-200l0 -400 200 0 0 400 400 0 0 -400 200 0zm-800 -200c-105,0 -185,-63 -242,-174 -67,-134 -100,-352 -98,-614 1,-253 34,-551 99,-854 174,-813 577,-1672 1214,-1854 159,-46 332,-72 508,-86 174,-15 351,-18 519,-18 152,0 328,3 506,18 181,14 362,40 521,86 652,186 1040,1033 1204,1839 63,309 93,613 93,870 -1,266 -34,486 -99,619 -53,107 -128,168 -225,168 -1333,0 -2667,0 -4000,0zm4000 200l0 400c0,110 -90,200 -200,200l-400 0c-110,0 -200,-90 -200,-200l0 -400 200 0 0 400 400 0 0 -400 200 0zm-1509 -3583c-171,-14 -343,-17 -491,-17 -164,0 -336,3 -503,17 -164,14 -325,38 -470,79 -439,126 -756,652 -949,1242 8,9 14,21 18,33 30,101 190,189 427,260 376,113 926,169 1477,169 551,0 1101,-56 1477,-169 237,-71 397,-159 427,-260 4,-12 10,-23 17,-33 -184,-587 -496,-1113 -948,-1242 -145,-41 -314,-65 -482,-79zm-2486 1569c-19,71 -36,142 -51,213 -62,291 -94,575 -95,814 -2,231 24,418 77,523 21,41 43,64 64,64l4000 0c13,0 29,-20 46,-56 52,-105 78,-295 78,-531 1,-244 -28,-534 -89,-831 -13,-64 -27,-128 -43,-193 -100,96 -259,173 -458,233 -395,119 -966,178 -1534,178 -568,0 -1139,-59 -1534,-178 -201,-60 -361,-139 -461,-236zm695 614c276,0 500,224 500,500l0 200c0,55 -45,100 -100,100l-800 0c-55,0 -100,-45 -100,-100l0 -200c0,-276 224,-500 500,-500zm0 200c-165,0 -300,135 -300,300l0 100 600 0 0 -100c0,-165 -135,-300 -300,-300zm700 400l1200 0 0 200 -1200 0 0 -200zm1900 -400c-165,0 -300,135 -300,300l0 100 600 0 0 -100c0,-165 -135,-300 -300,-300z"/>
</svg>