<?xml version="1.0" encoding="UTF-8"?>
<!DOCTYPE svg PUBLIC "-//W3C//DTD SVG 1.1//EN" "http://www.w3.org/Graphics/SVG/1.1/DTD/svg11.dtd">
<svg xmlns="http://www.w3.org/2000/svg" xml:space="preserve" width="580px" height="580px" shape-rendering="geometricPrecision" text-rendering="geometricPrecision" image-rendering="optimizeQuality" fill-rule="nonzero" clip-rule="nonzero" viewBox="0 0 5800 5800" xmlns:xlink="http://www.w3.org/1999/xlink">
	<title>car_convertible2 icon</title>
	<desc>car_convertible2 icon from the IconExperience.com I-Collection. Copyright by INCORS GmbH (www.incors.com).</desc>
	<path id="curve0"  d="M1729 3371c-35,-36 -70,-71 -129,-71l-700 0c-135,0 -400,152 -400,300l0 800 300 0 0 200 -400 0c-55,0 -100,-45 -100,-100l0 -900c0,-265 357,-500 600,-500l700 0c141,0 206,65 271,129 35,36 70,71 129,71l1700 0 0 200 -1700 0c-141,0 -206,-65 -271,-129zm-129 529c331,0 600,269 600,600 0,331 -269,600 -600,600 -331,0 -600,-269 -600,-600 0,-331 269,-600 600,-600zm0 200c-221,0 -400,179 -400,400 0,221 179,400 400,400 221,0 400,-179 400,-400 0,-221 -179,-400 -400,-400zm2600 -200c331,0 600,269 600,600 0,331 -269,600 -600,600 -331,0 -600,-269 -600,-600 0,-331 269,-600 600,-600zm0 200c-221,0 -400,179 -400,400 0,221 179,400 400,400 221,0 400,-179 400,-400 0,-221 -179,-400 -400,-400zm-1100 -1800c153,0 301,39 405,158l649 752 867 193c200,44 479,155 479,397l0 700c0,55 -45,100 -100,100l-400 0 0 -200 300 0 0 -600c0,-115 -231,-183 -321,-203l-897 -199c-21,-4 -42,-15 -57,-33l-671 -776c-64,-73 -162,-89 -254,-89l0 -200zm300 2300l-1000 0 0 -200 1000 0 0 200z"/>
</svg>