<?xml version="1.0" encoding="UTF-8"?>
<!DOCTYPE svg PUBLIC "-//W3C//DTD SVG 1.1//EN" "http://www.w3.org/Graphics/SVG/1.1/DTD/svg11.dtd">
<svg xmlns="http://www.w3.org/2000/svg" xml:space="preserve" width="580px" height="580px" shape-rendering="geometricPrecision" text-rendering="geometricPrecision" image-rendering="optimizeQuality" fill-rule="nonzero" clip-rule="nonzero" viewBox="0 0 5800 5800" xmlns:xlink="http://www.w3.org/1999/xlink">
	<title>carabiner icon</title>
	<desc>carabiner icon from the IconExperience.com I-Collection. Copyright by INCORS GmbH (www.incors.com).</desc>
	<path id="curve0"  d="M3146 1367c-90,90 -155,215 -212,328l-740 1487c-154,309 -251,371 -494,526 -46,30 -93,60 -139,89 -121,76 -262,164 -349,251 -148,148 -148,392 0,540 149,149 391,149 540,0 87,-86 176,-228 251,-348 30,-47 60,-93 89,-140 155,-242 217,-340 526,-494l1487 -740c113,-56 239,-122 328,-211 354,-354 355,-934 1,-1288 -354,-354 -934,-354 -1288,0zm-203 2524l1340 -667c151,-75 301,-159 423,-277l-141 -141c-104,99 -243,175 -371,239l-1342 668c21,20 39,42 54,68 20,35 32,72 37,110zm62 -2665c431,-431 1139,-432 1570,0 381,381 431,990 120,1428l143 143c390,-518 337,-1254 -121,-1713 -512,-512 -1342,-512 -1854,0 -123,123 -210,278 -287,433l-740 1487c-109,219 -167,255 -321,350 -53,32 -105,65 -157,99 -146,93 -319,203 -429,312 -303,304 -303,802 0,1106 305,304 802,304 1106,0 110,-110 220,-282 313,-428 33,-53 66,-104 99,-157 79,-129 116,-190 254,-271 44,-29 59,-88 32,-134 -26,-45 -82,-63 -129,-40 -175,102 -231,189 -344,366 -29,46 -59,92 -88,139 -82,130 -178,283 -278,384 -226,225 -598,225 -823,-1 -226,-226 -226,-596 0,-823 100,-100 253,-196 383,-278 47,-29 93,-58 139,-88 209,-133 293,-186 422,-447l741 -1487c65,-131 144,-276 249,-380zm1853 -283c586,587 586,1550 -1,2136 -136,137 -312,238 -485,324l-1486 740c-169,84 -196,129 -269,247 -33,53 -67,106 -101,160 -98,155 -215,338 -339,462 -381,382 -1008,381 -1389,0 -382,-381 -382,-1007 0,-1388 124,-125 308,-242 463,-340 53,-34 106,-68 160,-101 118,-72 162,-99 246,-268l740 -1487c86,-172 188,-348 324,-485 590,-590 1547,-590 2137,0z"/>
</svg>