<?xml version="1.0" encoding="UTF-8"?>
<!DOCTYPE svg PUBLIC "-//W3C//DTD SVG 1.1//EN" "http://www.w3.org/Graphics/SVG/1.1/DTD/svg11.dtd">
<svg xmlns="http://www.w3.org/2000/svg" xml:space="preserve" width="580px" height="580px" shape-rendering="geometricPrecision" text-rendering="geometricPrecision" image-rendering="optimizeQuality" fill-rule="nonzero" clip-rule="nonzero" viewBox="0 0 5800 5800" xmlns:xlink="http://www.w3.org/1999/xlink">
	<title>carabiner icon</title>
	<desc>carabiner icon from the IconExperience.com I-Collection. Copyright by INCORS GmbH (www.incors.com).</desc>
	<path id="curve0"  d="M2833 3499l1272 -633c109,-55 229,-117 318,-202l424 425c-135,132 -306,230 -475,314l-1261 628c31,-218 -81,-433 -278,-532zm-2045 125c164,-164 420,-316 623,-441 118,-72 162,-99 246,-268l740 -1487c86,-172 188,-348 324,-485 590,-590 1547,-590 2137,0 535,536 589,1400 123,1996l-430 -429c236,-358 187,-839 -117,-1143 -354,-354 -934,-354 -1288,0 -90,90 -155,215 -212,328l-740 1487c-154,309 -251,371 -494,526 -155,99 -362,214 -488,340 -148,148 -148,392 0,540 149,149 391,149 540,0 87,-86 176,-228 251,-348 30,-47 60,-93 89,-140 139,-217 203,-318 436,-447 135,-33 277,27 346,148 69,118 52,269 -40,369 -124,68 -153,115 -217,220 -33,53 -67,106 -101,160 -98,155 -215,338 -339,462 -381,382 -1008,381 -1389,0 -382,-381 -382,-1007 0,-1388z"/>
</svg>