<?xml version="1.0" encoding="UTF-8"?>
<!DOCTYPE svg PUBLIC "-//W3C//DTD SVG 1.1//EN" "http://www.w3.org/Graphics/SVG/1.1/DTD/svg11.dtd">
<svg xmlns="http://www.w3.org/2000/svg" xml:space="preserve" width="580px" height="580px" shape-rendering="geometricPrecision" text-rendering="geometricPrecision" image-rendering="optimizeQuality" fill-rule="nonzero" clip-rule="nonzero" viewBox="0 0 5800 5800" xmlns:xlink="http://www.w3.org/1999/xlink">
	<title>card_terminal2 icon</title>
	<desc>card_terminal2 icon from the IconExperience.com I-Collection. Copyright by INCORS GmbH (www.incors.com).</desc>
		<path id="curve29" d="M2100 4500l600 0 0 800 1100 0c165,0 300,-135 300,-300l0 -500 200 0 0 500c0,275 -225,500 -500,500l-1800 0c-275,0 -500,-225 -500,-500l0 -500 200 0 0 500c0,165 135,300 300,300l100 0 0 -800z"/>
	<path id="curve28" d="M1900 900c221,0 400,179 400,400 0,220 -180,400 -400,400 -221,0 -400,-179 -400,-400 0,-220 180,-400 400,-400zm-600 -600l3200 0c220,0 400,180 400,400l0 3200c0,220 -180,400 -400,400l-3200 0c-220,0 -400,-180 -400,-400l0 -3200c0,-220 180,-400 400,-400zm3200 200l-3200 0c-111,0 -200,89 -200,200l0 3200c0,110 90,200 200,200l3200 0c110,0 200,-90 200,-200l0 -3200c0,-110 -90,-200 -200,-200zm-600 2400c221,0 400,179 400,400 0,220 -180,400 -400,400 -221,0 -400,-179 -400,-400 0,-220 180,-400 400,-400zm0 200c-111,0 -200,89 -200,200 0,110 90,200 200,200 111,0 200,-89 200,-200 0,-110 -90,-200 -200,-200zm-1000 -200c221,0 400,179 400,400 0,220 -180,400 -400,400 -220,0 -400,-180 -400,-400 0,-221 179,-400 400,-400zm0 200c-110,0 -200,90 -200,200 0,111 89,200 200,200 111,0 200,-89 200,-200 0,-110 -90,-200 -200,-200zm1000 -1200c220,0 400,180 400,400 0,221 -179,400 -400,400 -220,0 -400,-180 -400,-400 0,-221 179,-400 400,-400zm0 200c-110,0 -200,90 -200,200 0,111 89,200 200,200 110,0 200,-90 200,-200 0,-111 -89,-200 -200,-200zm-1000 -200c220,0 400,180 400,400 0,221 -179,400 -400,400 -221,0 -400,-179 -400,-400 0,-220 180,-400 400,-400zm0 200c-111,0 -200,89 -200,200 0,110 90,200 200,200 110,0 200,-90 200,-200 0,-111 -89,-200 -200,-200zm-1000 800c220,0 400,180 400,400 0,221 -179,400 -400,400 -220,0 -400,-180 -400,-400 0,-221 179,-400 400,-400zm0 200c-110,0 -200,90 -200,200 0,111 89,200 200,200 110,0 200,-90 200,-200 0,-111 -89,-200 -200,-200zm0 -1200c110,0 210,45 283,117 72,73 117,173 117,283 0,220 -180,400 -400,400 -221,0 -400,-179 -400,-400 0,-220 180,-400 400,-400zm0 200c-111,0 -200,89 -200,200 0,110 90,200 200,200 111,0 200,-89 200,-200 0,-110 -90,-200 -200,-200zm2000 -1200c220,0 400,180 400,400 0,221 -179,400 -400,400 -220,0 -400,-180 -400,-400 0,-221 179,-400 400,-400zm0 200c-110,0 -200,90 -200,200 0,111 89,200 200,200 110,0 200,-90 200,-200 0,-111 -89,-200 -200,-200zm-1000 -200c220,0 400,180 400,400 0,221 -179,400 -400,400 -221,0 -400,-179 -400,-400 0,-220 180,-400 400,-400zm0 200c-111,0 -200,89 -200,200 0,110 90,200 200,200 110,0 200,-90 200,-200 0,-111 -89,-200 -200,-200zm-1000 0c-111,0 -200,89 -200,200 0,110 90,200 200,200 111,0 200,-89 200,-200 0,-110 -90,-200 -200,-200z"/>
</svg>