<?xml version="1.0" encoding="UTF-8"?>
<!DOCTYPE svg PUBLIC "-//W3C//DTD SVG 1.1//EN" "http://www.w3.org/Graphics/SVG/1.1/DTD/svg11.dtd">
<svg xmlns="http://www.w3.org/2000/svg" xml:space="preserve" width="580px" height="580px" shape-rendering="geometricPrecision" text-rendering="geometricPrecision" image-rendering="optimizeQuality" fill-rule="nonzero" clip-rule="nonzero" viewBox="0 0 5800 5800" xmlns:xlink="http://www.w3.org/1999/xlink">
	<title>cargo_container icon</title>
	<desc>cargo_container icon from the IconExperience.com I-Collection. Copyright by INCORS GmbH (www.incors.com).</desc>
	<path id="curve0"  d="M5159 500l-2000 2000 -2800 0 2000 -2000 2800 0zm-1539 4195l200 -199 0 -1951 -200 199 0 1951zm400 -400l200 -199 0 -1951 -200 199 0 1951zm400 -400l200 -199 0 -1951 -200 199 0 1951zm400 -400l200 -199 0 -1951 -200 199 0 1951zm-2420 -595l-200 0 0 1000 -98 0c-55,0 -100,45 -100,100 0,55 45,100 100,100l98 0 0 1000 200 0 0 -1000 102 0c56,0 100,-45 100,-100 0,-55 -44,-100 -100,-100l-102 0 0 -1000zm-997 0l-199 0 0 1000 -102 0c-55,0 -100,45 -100,100 0,55 45,100 100,100l102 0 0 1000 199 0 0 -1000 99 0c56,0 100,-45 100,-100 0,-55 -44,-100 -100,-100l-99 0 0 -1000zm3897 -2259l0 2800 -2000 2000c0,-933 0,-1866 0,-2800 667,-666 1333,-1333 2000,-2000zm-2200 4859l-1200 0 0 -2800 1200 0 0 2800zm-1400 0l-1400 0 0 -2800 1400 0 0 2800z"/>
</svg>