<?xml version="1.0" encoding="UTF-8"?>
<!DOCTYPE svg PUBLIC "-//W3C//DTD SVG 1.1//EN" "http://www.w3.org/Graphics/SVG/1.1/DTD/svg11.dtd">
<svg xmlns="http://www.w3.org/2000/svg" xml:space="preserve" width="580px" height="580px" shape-rendering="geometricPrecision" text-rendering="geometricPrecision" image-rendering="optimizeQuality" fill-rule="nonzero" clip-rule="nonzero" viewBox="0 0 5800 5800" xmlns:xlink="http://www.w3.org/1999/xlink">
	<title>cargo_container icon</title>
	<desc>cargo_container icon from the IconExperience.com I-Collection. Copyright by INCORS GmbH (www.incors.com).</desc>
	<path id="curve0"  d="M2102 4089c-55,0 -100,-45 -100,-100 0,-55 45,-100 100,-100l98 0 0 -989 200 0 0 989 102 0c56,0 100,45 100,100 0,55 -44,100 -100,100l-102 0 0 1011 -200 0 0 -1011 -98 0zm-1461 -1589l2518 0 1800 -1800 -2518 0 -1800 1800zm2659 141c0,839 0,1679 0,2518 38,-39 1000,-1001 1000,-1001 267,-266 533,-533 800,-799 0,-839 0,-1679 0,-2518 -600,600 -1200,1200 -1800,1800zm200 2034l0 -1951 200 -199 0 1951 -200 199zm-400 625l0 -2600 -1200 0 0 2600 1200 0zm-1400 -2600l-1200 0 0 2600 1200 0 0 -2600zm3600 -2200l0 2941 -2059 2059 -2941 0 0 -2941 2059 -2059 2941 0zm-1400 3775l0 -1951 200 -199 0 1951 -200 199zm400 -400l0 -1951 200 -199 0 1951 -200 199zm400 -400l0 -1951 200 -199 0 1951 -200 199zm-3297 -569l0 983 99 0c56,0 100,45 100,100 0,55 -44,100 -100,100l-99 0 0 1017 -199 0 0 -1017 -102 0c-55,0 -100,-45 -100,-100 0,-55 45,-100 100,-100l102 0 0 -983 199 0z"/>
</svg>