<?xml version="1.0" encoding="UTF-8"?>
<!DOCTYPE svg PUBLIC "-//W3C//DTD SVG 1.1//EN" "http://www.w3.org/Graphics/SVG/1.1/DTD/svg11.dtd">
<svg xmlns="http://www.w3.org/2000/svg" xml:space="preserve" width="580px" height="580px" shape-rendering="geometricPrecision" text-rendering="geometricPrecision" image-rendering="optimizeQuality" fill-rule="nonzero" clip-rule="nonzero" viewBox="0 0 5800 5800" xmlns:xlink="http://www.w3.org/1999/xlink">
	<title>cash_register icon</title>
	<desc>cash_register icon from the IconExperience.com I-Collection. Copyright by INCORS GmbH (www.incors.com).</desc>
		<path id="curve30" d="M1300,2700 1300,900 2600,900 2600,2700 2400,2700 2400,1100 1500,1100 1500,2700z"/>
	<path id="curve29" d="M4900 3700c0,133 0,267 0,400 -133,0 -267,0 -400,0 0,-133 0,-267 0,-400 133,0 267,0 400,0zm-2100 -1333c118,42 200,156 200,283l0 150c0,165 -135,300 -300,300l-1500 0c-165,0 -300,-135 -300,-300l0 -150c0,-127 82,-240 200,-283 0,145 0,289 0,433 0,55 45,100 100,100l1500 0c55,0 100,-45 100,-100 0,-144 0,-289 0,-433zm2500 1733l-200 0 0 -2000c0,-110 -90,-200 -200,-200l-2100 0 0 -200 1200 0 0 -200 -1100 0 0 -1000 2400 0 0 1000 -1100 0 0 200 700 0c220,0 400,180 400,400l0 2000zm-4200 -2200l-200 0c-111,0 -200,89 -200,200l0 2000 -200 0 0 -2000c0,-220 180,-400 400,-400l200 0 0 200zm4400 2400l0 1200 -5200 0 0 -1200c1733,0 3467,0 5200,0zm-200 200l-4800 0 0 800 4800 0 0 -800zm-400 -2406l0 800 -1600 0 0 -800 1600 0zm-200 200l-1200 0 0 400 1200 0 0 -400zm400 -1594l-2000 0 0 600 2000 0 0 -600zm-1400 2400c0,133 0,267 0,400 -133,0 -267,0 -400,0 0,-133 0,-267 0,-400 133,0 267,0 400,0zm600 0c0,133 0,267 0,400 -133,0 -267,0 -400,0 0,-133 0,-267 0,-400 133,0 267,0 400,0zm600 0l0 400c-133,0 -267,0 -400,0 0,-133 0,-267 0,-400 133,0 267,0 400,0zm-1200 600c0,133 0,267 0,400 -133,0 -267,0 -400,0 0,-133 0,-267 0,-400 133,0 267,0 400,0zm600 0c0,133 0,267 0,400 -133,0 -267,0 -400,0 0,-133 0,-267 0,-400 133,0 267,0 400,0z"/>
</svg>