<?xml version="1.0" encoding="UTF-8"?>
<!DOCTYPE svg PUBLIC "-//W3C//DTD SVG 1.1//EN" "http://www.w3.org/Graphics/SVG/1.1/DTD/svg11.dtd">
<svg xmlns="http://www.w3.org/2000/svg" xml:space="preserve" width="580px" height="580px" shape-rendering="geometricPrecision" text-rendering="geometricPrecision" image-rendering="optimizeQuality" fill-rule="nonzero" clip-rule="nonzero" viewBox="0 0 5800 5800" xmlns:xlink="http://www.w3.org/1999/xlink">
	<title>cash_flow icon</title>
	<desc>cash_flow icon from the IconExperience.com I-Collection. Copyright by INCORS GmbH (www.incors.com).</desc>
	<path id="curve0" d="M4400 2200l0 2600 -4200 0 0 -2600 4200 0zm400 -400l0 2400 -200 0c0,-733 0,-1467 0,-2200l-3600 0 0 -200 3800 0zm400 -400l0 2200 -200 0 0 -2000c-1067,0 -2133,0 -3200,0l0 -200 3400 0zm400 -400l0 1900 -200 0 0 -1700 -2800 0 0 -200 3000 0zm-1891 1400c21,125 81,238 168,324 86,86 198,146 323,167l0 -491 -491 0zm491 693c-181,-23 -342,-106 -465,-228 -122,-123 -205,-284 -227,-465l-2415 0c-45,362 -331,648 -693,693l0 814c362,45 648,331 693,693l2415 0c45,-361 331,-647 692,-693l0 -814zm-3308 -693l-492 0 0 492c251,-43 449,-241 492,-492zm-492 1708l0 492 492 0c-43,-251 -241,-449 -492,-492zm3309 492l491 0 0 -491c-251,42 -449,240 -491,491zm-1409 -2001c223,0 425,103 570,269 143,163 231,386 231,632 0,246 -88,469 -231,632 -145,166 -347,269 -570,269 -223,0 -425,-103 -570,-269 -143,-163 -231,-386 -231,-632 0,-246 88,-469 231,-632 145,-166 347,-269 570,-269zm420 401c-108,-124 -257,-201 -420,-201 -163,0 -312,77 -420,201 -112,127 -181,304 -181,500 0,196 69,373 181,500 108,124 257,201 420,201 163,0 312,-77 420,-201 112,-127 181,-304 181,-500 0,-196 -69,-373 -181,-500z"/>
</svg>