<?xml version="1.0" encoding="UTF-8"?>
<!DOCTYPE svg PUBLIC "-//W3C//DTD SVG 1.1//EN" "http://www.w3.org/Graphics/SVG/1.1/DTD/svg11.dtd">
<svg xmlns="http://www.w3.org/2000/svg" xml:space="preserve" width="580px" height="580px" shape-rendering="geometricPrecision" text-rendering="geometricPrecision" image-rendering="optimizeQuality" fill-rule="nonzero" clip-rule="nonzero" viewBox="0 0 5800 5800" xmlns:xlink="http://www.w3.org/1999/xlink">
	<title>cash_flow icon</title>
	<desc>cash_flow icon from the IconExperience.com I-Collection. Copyright by INCORS GmbH (www.incors.com).</desc>
	<path id="curve0"  d="M4400 2200l0 2600 -4200 0 0 -2600 4200 0zm-892 200c45,361 331,647 692,693l0 -693 -692 0zm692 1507c-361,46 -647,332 -692,693l692 0 0 -693zm-3107 693c-45,-362 -331,-648 -693,-693l0 693 693 0zm-693 -1507c362,-45 648,-331 693,-693l-693 0 0 693zm1900 -494c-480,0 -801,449 -801,901 0,452 321,901 801,901 480,0 801,-449 801,-901 0,-452 -321,-901 -801,-901zm2500 -799l0 2400 -200 0c0,-733 0,-1467 0,-2200l-3600 0 0 -200 3800 0zm400 -400l0 2200 -200 0 0 -2000 -3200 0 0 -200 3400 0zm400 -400l0 1900 -200 0 0 -1700 -2800 0 0 -200 3000 0z"/>
</svg>