<?xml version="1.0" encoding="UTF-8"?>
<!DOCTYPE svg PUBLIC "-//W3C//DTD SVG 1.1//EN" "http://www.w3.org/Graphics/SVG/1.1/DTD/svg11.dtd">
<svg xmlns="http://www.w3.org/2000/svg" xml:space="preserve" width="580px" height="580px" shape-rendering="geometricPrecision" text-rendering="geometricPrecision" image-rendering="optimizeQuality" fill-rule="nonzero" clip-rule="nonzero" viewBox="0 0 5800 5800" xmlns:xlink="http://www.w3.org/1999/xlink">
	<title>cash_register icon</title>
	<desc>cash_register icon from the IconExperience.com I-Collection. Copyright by INCORS GmbH (www.incors.com).</desc>
		<path id="curve29"  d="M4900 3700c-133,0 -267,0 -400,0l0 400 -200 0 0 -400c-133,0 -267,0 -400,0l0 400 -200 0 0 -400c-133,0 -267,0 -400,0l0 400 -2800 0 0 -2000c0,-220 180,-400 400,-400l200 0 0 667c-118,43 -200,156 -200,283l0 150c0,165 135,300 300,300l1500 0c165,0 300,-135 300,-300l0 -150c0,-127 -82,-241 -200,-283l0 -667 1200 0 0 -200 -1100 0 0 -1000 2400 0 0 1000 -1100 0 0 200 700 0c220,0 400,180 400,400l-1 2000 -399 0 0 -400zm-1200 -600c-133,0 -267,0 -400,0 0,133 0,267 0,400 133,0 267,0 400,0 0,-133 0,-267 0,-400zm600 0c-133,0 -267,0 -400,0 0,133 0,267 0,400 133,0 267,0 400,0 0,-133 0,-267 0,-400zm600 0c-133,0 -267,0 -400,0 0,133 0,267 0,400 133,0 267,0 400,0l0 -400zm-1600 -1006l0 800 1600 0 0 -800 -1600 0zm1400 200l-1200 0 0 400 1200 0 0 -400zm-3400 606l0 -2000c433,0 867,0 1300,0l0 2000 -1300 0zm4200 1400c0,400 0,800 0,1200l-5200 0 0 -1200c1733,0 3467,0 5200,0zm-400 -3600l-2000 0 0 600 2000 0 0 -600z"/>
</svg>