<?xml version="1.0" encoding="UTF-8"?>
<!DOCTYPE svg PUBLIC "-//W3C//DTD SVG 1.1//EN" "http://www.w3.org/Graphics/SVG/1.1/DTD/svg11.dtd">
<svg xmlns="http://www.w3.org/2000/svg" xml:space="preserve" width="580px" height="580px" shape-rendering="geometricPrecision" text-rendering="geometricPrecision" image-rendering="optimizeQuality" fill-rule="nonzero" clip-rule="nonzero" viewBox="0 0 5800 5800" xmlns:xlink="http://www.w3.org/1999/xlink">
	<title>cask icon</title>
	<desc>cask icon from the IconExperience.com I-Collection. Copyright by INCORS GmbH (www.incors.com).</desc>
		<path id="curve28" d="M5306 2900c0,962 -314,1828 -880,2600l-3119 0c-522,-754 -807,-1579 -807,-2500 0,-1006 343,-1910 957,-2700l2969 0c566,772 880,1638 880,2600zm-488 -1500l-3789 0c-110,257 -194,525 -250,800l4266 0c-47,-274 -124,-542 -227,-800zm-85 -200c-113,-245 -250,-479 -408,-700l-2770 0c-167,220 -313,454 -434,700l3612 0zm-3989 1200c-29,196 -44,396 -44,600 0,135 7,268 20,400l4355 0c21,-164 31,-331 31,-500 0,-169 -10,-336 -31,-500l-4331 0zm1 1200c40,273 109,541 205,800l3868 0c103,-258 180,-526 227,-800l-4300 0zm284 1000c105,245 233,479 382,700l2914 0c158,-221 295,-455 408,-700l-3704 0zm1871 -1500c-110,0 -200,-90 -200,-200 0,-110 90,-200 200,-200 110,0 200,90 200,200 0,110 -90,200 -200,200z"/>
</svg>