<?xml version="1.0" encoding="UTF-8"?>
<!DOCTYPE svg PUBLIC "-//W3C//DTD SVG 1.1//EN" "http://www.w3.org/Graphics/SVG/1.1/DTD/svg11.dtd">
<svg xmlns="http://www.w3.org/2000/svg" xml:space="preserve" width="580px" height="580px" shape-rendering="geometricPrecision" text-rendering="geometricPrecision" image-rendering="optimizeQuality" fill-rule="nonzero" clip-rule="nonzero" viewBox="0 0 5800 5800" xmlns:xlink="http://www.w3.org/1999/xlink">
	<title>cask icon</title>
	<desc>cask icon from the IconExperience.com I-Collection. Copyright by INCORS GmbH (www.incors.com).</desc>
		<path id="curve28"  d="M2900 3100c110,0 200,-90 200,-200 0,-110 -90,-200 -200,-200 -110,0 -200,90 -200,200 0,110 90,200 200,200zm2051 -1900l-4051 0c152,-328 335,-615 557,-900l2969 0c210,287 383,573 525,900zm81 200c98,259 170,527 216,800l-4672 0c53,-274 132,-542 237,-800l4219 0zm244 1000c40,332 40,668 0,1000l-4757 0c-32,-333 -24,-669 24,-1000l4733 0zm-28 1200c-46,273 -118,541 -216,800l-4295 0c-90,-260 -156,-528 -195,-800l4706 0zm-297 1000c-142,327 -315,613 -525,900l-3119 0c-200,-288 -362,-575 -494,-900l4138 0z"/>
</svg>