<?xml version="1.0" encoding="UTF-8"?>
<!DOCTYPE svg PUBLIC "-//W3C//DTD SVG 1.1//EN" "http://www.w3.org/Graphics/SVG/1.1/DTD/svg11.dtd">
<svg xmlns="http://www.w3.org/2000/svg" xml:space="preserve" width="580px" height="580px" shape-rendering="geometricPrecision" text-rendering="geometricPrecision" image-rendering="optimizeQuality" fill-rule="nonzero" clip-rule="nonzero" viewBox="0 0 5800 5800" xmlns:xlink="http://www.w3.org/1999/xlink">
	<title>castle icon</title>
	<desc>castle icon from the IconExperience.com I-Collection. Copyright by INCORS GmbH (www.incors.com).</desc>
		<path id="curve29" d="M5333 1700l-533 -990 -533 990 1066 0zm-3800 0l-533 -990 -533 990 1066 0zm1667 600l0 400 200 0 0 -400 600 0 0 400 101 0 -1 -800c-73,0 -123,-82 -88,-147l700 -1299c36,-70 138,-73 176,-1l697 1294c41,65 -6,153 -85,153l-1 1301c0,271 -155,516 -399,632l0 1667 -4400 0 0 -1668c-243,-116 -398,-360 -398,-631l-2 -1301c-74,0 -124,-80 -88,-147l700 -1299c36,-70 138,-73 176,-1l697 1294c41,65 -6,153 -85,153l-1 800 101 0 0 -400 600 0 0 400 200 0 0 -400 600 0zm1101 901c1,275 224,499 500,499 275,0 499,-224 499,-499l0 -1301 -1000 0c0,434 1,867 1,1301zm-199 -301l-302 0 0 -400 -200 0 0 400 -600 0 0 -400 -200 0 0 400 -600 0 0 -400 -200 0 0 400 -301 0 0 301c0,386 -312,699 -698,699 -35,0 -68,-2 -101,-7l0 1407 1200 0 0 -800c0,-442 358,-800 800,-800 442,0 800,358 800,800l0 800 1200 0 0 -1407c-32,5 -66,7 -99,7 -387,0 -698,-313 -699,-699l0 -301zm-2602 -1000l-1000 0 1 1301c1,275 224,499 500,499 275,0 499,-224 499,-499 0,-434 0,-867 0,-1301zm1400 2000c-331,0 -600,269 -600,600l0 800 1200 0 0 -800c0,-331 -269,-600 -600,-600z"/>
</svg>