<?xml version="1.0" encoding="UTF-8"?>
<!DOCTYPE svg PUBLIC "-//W3C//DTD SVG 1.1//EN" "http://www.w3.org/Graphics/SVG/1.1/DTD/svg11.dtd">
<svg xmlns="http://www.w3.org/2000/svg" xml:space="preserve" width="580px" height="580px" shape-rendering="geometricPrecision" text-rendering="geometricPrecision" image-rendering="optimizeQuality" fill-rule="nonzero" clip-rule="nonzero" viewBox="0 0 5800 5800" xmlns:xlink="http://www.w3.org/1999/xlink">
	<title>castle icon</title>
	<desc>castle icon from the IconExperience.com I-Collection. Copyright by INCORS GmbH (www.incors.com).</desc>
		<path id="curve29"  d="M4888 453l697 1294c41,65 -6,153 -85,153l-1400 0c-74,0 -124,-80 -88,-147l700 -1299c36,-70 138,-73 176,-1zm612 1647l-1 1101c0,386 -312,699 -698,699 -387,0 -698,-313 -699,-699l-2 -1101 1400 0zm-1800 3400l1400 0 0 -1451c-95,33 -196,51 -299,51 -497,0 -898,-402 -899,-899l-1 -901 -501 0 0 400 -200 0 0 -400 -600 0 0 400 -200 0 0 -400 -501 0 0 901c0,497 -402,899 -898,899 -104,0 -206,-18 -301,-52l0 1452 1400 0 0 -1000c0,-442 358,-800 800,-800 442,0 800,358 800,800l0 1000zm-2000 -3400l-1 1101c0,386 -312,699 -698,699 -387,0 -698,-313 -699,-699l-2 -1101 1400 0zm-1400 -200c-74,0 -124,-80 -88,-147l700 -1299c36,-70 138,-73 176,-1l697 1294c41,66 -6,153 -85,153l-1400 0z"/>
</svg>