<?xml version="1.0" encoding="UTF-8"?>
<!DOCTYPE svg PUBLIC "-//W3C//DTD SVG 1.1//EN" "http://www.w3.org/Graphics/SVG/1.1/DTD/svg11.dtd">
<svg xmlns="http://www.w3.org/2000/svg" xml:space="preserve" width="580px" height="580px" shape-rendering="geometricPrecision" text-rendering="geometricPrecision" image-rendering="optimizeQuality" fill-rule="nonzero" clip-rule="nonzero" viewBox="0 0 5800 5800" xmlns:xlink="http://www.w3.org/1999/xlink">
	<title>cd icon</title>
	<desc>cd icon from the IconExperience.com I-Collection. Copyright by INCORS GmbH (www.incors.com).</desc>
		<path id="curve28" d="M2900 2359c299,0 541,242 541,541 0,299 -242,541 -541,541 -299,0 -541,-242 -541,-541 0,-299 242,-541 541,-541zm0 -2059c1436,0 2600,1164 2600,2600 0,1436 -1164,2600 -2600,2600 -1436,0 -2600,-1164 -2600,-2600 0,-1436 1164,-2600 2600,-2600zm2270 1820l-1186 463c30,101 45,207 45,317 0,624 -505,1129 -1129,1129 -131,0 -257,-22 -375,-63l-527 1159c279,113 583,175 902,175 1325,0 2400,-1075 2400,-2400 0,-273 -46,-536 -130,-780zm-1258 277l1186 -463c-224,-508 -620,-925 -1115,-1176l-527 1159c196,111 355,279 456,480zm-637 -563l527 -1159c-279,-113 -583,-175 -902,-175 -1325,0 -2400,1075 -2400,2400 0,273 46,536 130,780l1186 -463c-30,-101 -45,-207 -45,-317 0,-624 505,-1129 1129,-1129 131,0 257,22 375,63zm-1387 1569l-1186 463c224,508 620,925 1115,1176l527 -1159c-196,-111 -355,-279 -456,-480zm1012 -1432c-513,0 -929,416 -929,929 0,513 416,929 929,929 513,0 929,-416 929,-929 0,-513 -416,-929 -929,-929zm0 588c-188,0 -341,153 -341,341 0,188 153,341 341,341 188,0 341,-153 341,-341 0,-188 -153,-341 -341,-341z"/>
</svg>