<?xml version="1.0" encoding="UTF-8"?>
<!DOCTYPE svg PUBLIC "-//W3C//DTD SVG 1.1//EN" "http://www.w3.org/Graphics/SVG/1.1/DTD/svg11.dtd">
<svg xmlns="http://www.w3.org/2000/svg" xml:space="preserve" width="580px" height="580px" shape-rendering="geometricPrecision" text-rendering="geometricPrecision" image-rendering="optimizeQuality" fill-rule="nonzero" clip-rule="nonzero" viewBox="0 0 5800 5800" xmlns:xlink="http://www.w3.org/1999/xlink">
	<title>cd_burn icon</title>
	<desc>cd_burn icon from the IconExperience.com I-Collection. Copyright by INCORS GmbH (www.incors.com).</desc>
		<path id="curve29" d="M2900 300c1317,0 2428,986 2582,2292 -45,-13 -93,-15 -142,-6 -20,5 -40,10 -58,17 -21,-167 -59,-329 -112,-483l-1186 463c30,101 45,207 45,317 0,150 -29,293 -82,425l-4 10c-50,-34 -108,-65 -178,-93 41,-105 64,-221 64,-342 0,-513 -416,-929 -929,-929 -266,0 -518,113 -694,311 -26,-63 -59,-125 -100,-186 204,-201 485,-325 794,-325 131,0 257,22 375,63l527 -1159c-279,-113 -583,-175 -902,-175 -1016,0 -1920,640 -2261,1592 -51,3 -103,20 -149,51 -36,24 -70,50 -100,77 306,-1131 1335,-1920 2510,-1920zm0 2059c299,0 541,242 541,541 0,299 -242,541 -541,541 -299,0 -541,-242 -541,-541 0,-299 242,-541 541,-541zm0 200c-188,0 -341,153 -341,341 0,188 153,341 341,341 188,0 341,-153 341,-341 0,-188 -153,-341 -341,-341zm556 -642c196,111 355,279 456,480l1186 -463c-224,-508 -620,-925 -1115,-1176l-527 1159z"/>
	<path id="curve28" d="M2064 4068c61,-193 127,-401 520,-466l102 -18 13 104c18,142 67,242 133,304 71,68 165,93 259,84 118,-11 231,-76 307,-167 76,-92 121,-218 107,-368 -6,-61 -18,-125 -27,-186l153 50c369,123 369,360 369,583 0,143 0,278 216,314 107,17 196,-40 254,-125 31,-47 53,-101 62,-156 10,-59 6,-122 -21,-176 -222,-444 -332,-665 18,-1016l103 -102 59 133c48,107 98,188 149,241 36,38 91,83 147,59 49,-23 96,-94 127,-136 77,-104 163,-221 266,-242l118 -24c0,46 2,99 2,142 0,1436 -1164,2600 -2600,2600 -1171,0 -2200,-784 -2508,-1914 -110,-431 -228,-982 210,-1277l197 -134 -43 234c-15,79 0,167 39,244 48,95 132,176 240,196 65,12 139,3 220,-38 298,-149 161,-553 70,-822 -3,-9 -6,-17 -20,-57l-71 -215 206 92c363,161 632,444 647,857 13,334 -159,713 -427,914 -126,94 -185,217 -193,335 -6,71 7,140 33,200 26,58 65,109 115,144 68,49 158,70 261,44 124,-31 155,-129 188,-235zm191 60c-51,161 -98,311 -331,369 -166,41 -312,6 -426,-75 -78,-57 -140,-136 -181,-227 -39,-90 -57,-191 -50,-294 13,-172 97,-348 273,-481 217,-162 358,-477 348,-747 -9,-236 -125,-424 -313,-560 93,314 144,689 -230,876 -124,62 -241,76 -346,56 -170,-31 -306,-151 -382,-303 -19,-38 -34,-78 -45,-119 -154,259 -52,640 13,913 286,1042 1235,1764 2315,1764 1240,0 2277,-945 2390,-2178 -64,87 -120,174 -223,220 -140,62 -272,1 -372,-103 -39,-42 -78,-95 -115,-159 -129,198 -42,373 109,675 46,93 57,198 40,299 -14,83 -47,165 -94,235 -102,150 -268,240 -451,209 -384,-63 -384,-279 -384,-510 0,-115 0,-235 -97,-320 -14,145 -70,270 -152,368 -109,132 -270,222 -441,239 -150,14 -299,-28 -416,-138 -78,-75 -139,-179 -173,-316 -189,61 -229,188 -266,307z"/>
</svg>