<?xml version="1.0" encoding="UTF-8"?>
<!DOCTYPE svg PUBLIC "-//W3C//DTD SVG 1.1//EN" "http://www.w3.org/Graphics/SVG/1.1/DTD/svg11.dtd">
<svg xmlns="http://www.w3.org/2000/svg" xml:space="preserve" width="580px" height="580px" shape-rendering="geometricPrecision" text-rendering="geometricPrecision" image-rendering="optimizeQuality" fill-rule="nonzero" clip-rule="nonzero" viewBox="0 0 5800 5800" xmlns:xlink="http://www.w3.org/1999/xlink">
	<title>cd_burn icon</title>
	<desc>cd_burn icon from the IconExperience.com I-Collection. Copyright by INCORS GmbH (www.incors.com).</desc>
		<path id="curve29"  d="M4511 3845c-275,-551 -321,-676 121,-1118 57,129 163,395 296,436 41,13 74,-7 103,-35 21,-20 51,-61 83,-104 77,-104 163,-221 266,-242l118 -24c0,47 2,95 2,142 0,1436 -1164,2600 -2600,2600 -1171,0 -2200,-784 -2508,-1914 -110,-431 -228,-982 210,-1277l197 -134 -43 234c-51,274 210,546 499,402 298,-149 161,-553 70,-822 -31,-91 -61,-181 -91,-272l206 92c363,161 632,444 647,857 13,334 -159,713 -427,914 -219,164 -281,510 -45,679 202,145 380,29 449,-191 61,-193 127,-401 520,-466l102 -18 13 104c28,226 156,422 410,386 258,-37 420,-280 396,-533 -6,-61 -18,-125 -27,-186l153 50c369,123 369,360 369,583 0,143 0,278 216,314 227,37 387,-274 295,-457zm-1611 -1486c299,0 541,242 541,541 0,299 -242,541 -541,541 -299,0 -541,-242 -541,-541 0,-299 242,-541 541,-541zm0 200c-188,0 -341,153 -341,341 0,188 153,341 341,341 188,0 341,-153 341,-341 0,-188 -153,-341 -341,-341z"/>
	<path id="curve28"  d="M2900 300c1251,0 2296,884 2544,2061 -9,1 -18,3 -27,5l-118 24c-124,26 -222,85 -307,163 -56,-118 -158,-196 -287,-220 -21,-4 -43,-6 -63,-7l545 -213 -73 -186 -1202 470c29,60 54,122 72,186l370 -144 -5 5c-185,185 -368,389 -427,648 -30,-14 -60,-27 -93,-40 8,-50 12,-100 12,-152 0,-520 -421,-941 -941,-941 -202,0 -389,63 -542,172 -150,-306 -421,-539 -755,-688l-207 -91c-148,-66 -311,-40 -431,69 -102,93 -148,223 -127,355 -90,-10 -182,13 -263,68l-73 49c394,-936 1319,-1593 2398,-1593zm375 1534c63,23 124,50 181,83l535 -1176 -182 -82 -534 1175z"/>
</svg>