<?xml version="1.0" encoding="UTF-8"?>
<!DOCTYPE svg PUBLIC "-//W3C//DTD SVG 1.1//EN" "http://www.w3.org/Graphics/SVG/1.1/DTD/svg11.dtd">
<svg xmlns="http://www.w3.org/2000/svg" xml:space="preserve" width="580px" height="580px" shape-rendering="geometricPrecision" text-rendering="geometricPrecision" image-rendering="optimizeQuality" fill-rule="nonzero" clip-rule="nonzero" viewBox="0 0 5800 5800" xmlns:xlink="http://www.w3.org/1999/xlink">
	<title>cd_case icon</title>
	<desc>cd_case icon from the IconExperience.com I-Collection. Copyright by INCORS GmbH (www.incors.com).</desc>
		<path id="curve29"  d="M5700 500l0 4800 -5600 0 0 -4800 5600 0zm-4600 200l0 4400 4400 0 0 -4400 -4400 0zm-200 4400l0 -4400 -600 0 0 4400 600 0z"/>
	<path id="curve28"  d="M3300 2500c221,0 400,179 400,400 0,220 -180,400 -400,400 -221,0 -400,-179 -400,-400 0,-221 180,-400 400,-400zm0 -1600c1105,0 2000,895 2000,2000 0,1105 -895,2000 -2000,2000 -1105,0 -2000,-895 -2000,-2000 0,-1105 895,-2000 2000,-2000zm835 405l-416 914c119,73 217,176 284,299l935 -365c-166,-364 -450,-663 -803,-848zm-597 831l415 -914c-202,-79 -423,-122 -653,-122 -994,0 -1800,806 -1800,1800 0,196 31,385 89,562l935 -366c-16,-63 -24,-128 -24,-196 0,-442 358,-800 800,-800 83,0 163,13 238,36zm-941 1146l-935 365c166,364 450,663 803,848l416 -914c-119,-73 -217,-176 -284,-299zm465 382l-415 914c202,79 423,122 653,122 994,0 1800,-806 1800,-1800 0,-196 -31,-385 -89,-562l-935 366c16,63 24,128 24,196 0,442 -358,800 -800,800 -83,0 -163,-13 -238,-36zm238 -1364c-331,0 -600,269 -600,600 0,331 269,600 600,600 331,0 600,-269 600,-600 0,-331 -269,-600 -600,-600zm0 400c-111,0 -200,89 -200,200 0,111 89,200 200,200 111,0 200,-89 200,-200 0,-110 -90,-200 -200,-200z"/>
</svg>