<?xml version="1.0" encoding="UTF-8"?>
<!DOCTYPE svg PUBLIC "-//W3C//DTD SVG 1.1//EN" "http://www.w3.org/Graphics/SVG/1.1/DTD/svg11.dtd">
<svg xmlns="http://www.w3.org/2000/svg" xml:space="preserve" width="580px" height="580px" shape-rendering="geometricPrecision" text-rendering="geometricPrecision" image-rendering="optimizeQuality" fill-rule="nonzero" clip-rule="nonzero" viewBox="0 0 5800 5800" xmlns:xlink="http://www.w3.org/1999/xlink">
	<title>cd_case icon</title>
	<desc>cd_case icon from the IconExperience.com I-Collection. Copyright by INCORS GmbH (www.incors.com).</desc>
		<path id="curve29"  d="M900 5100l0 -4400 -600 0 0 4400 600 0zm2400 -4200c-1105,0 -2000,895 -2000,2000 0,1105 895,2000 2000,2000 1105,0 2000,-895 2000,-2000 0,-1105 -895,-2000 -2000,-2000zm2400 -400l0 4800 -5600 0 0 -4800 5600 0z"/>
	<path id="curve28"  d="M3300 2500c221,0 400,179 400,400 0,221 -179,400 -400,400 -221,0 -400,-179 -400,-400 0,-221 179,-400 400,-400zm0 -1400c230,0 451,43 653,122l-415 914c64,20 125,48 181,83l416 -914c353,185 637,484 803,848l-935 365c32,58 56,120 73,186l935 -365c58,176 89,365 89,561 0,994 -806,1800 -1800,1800 -230,0 -451,-43 -653,-122l415 -914c-64,-20 -125,-48 -181,-83l-416 914c-353,-185 -637,-484 -803,-848l0 0 935 -365c-32,-58 -56,-120 -73,-186l-935 365c-58,-176 -89,-365 -89,-561 0,-994 806,-1800 1800,-1800zm0 1200c-331,0 -600,269 -600,600 0,331 269,600 600,600 331,0 600,-269 600,-600 0,-331 -269,-600 -600,-600zm0 400c-110,0 -200,90 -200,200 0,110 90,200 200,200 110,0 200,-90 200,-200 0,-110 -90,-200 -200,-200z"/>
</svg>