<?xml version="1.0" encoding="UTF-8"?>
<!DOCTYPE svg PUBLIC "-//W3C//DTD SVG 1.1//EN" "http://www.w3.org/Graphics/SVG/1.1/DTD/svg11.dtd">
<svg xmlns="http://www.w3.org/2000/svg" xml:space="preserve" width="580px" height="580px" shape-rendering="geometricPrecision" text-rendering="geometricPrecision" image-rendering="optimizeQuality" fill-rule="nonzero" clip-rule="nonzero" viewBox="0 0 5800 5800" xmlns:xlink="http://www.w3.org/1999/xlink">
	<title>cd_drive icon</title>
	<desc>cd_drive icon from the IconExperience.com I-Collection. Copyright by INCORS GmbH (www.incors.com).</desc>
		<path id="curve28"  d="M3800 300c165,0 300,135 300,300l0 1140c-129,-26 -263,-40 -400,-40 -1105,0 -2000,895 -2000,2000 0,545 218,1039 572,1400l-1672 0c-165,0 -300,-135 -300,-300l0 -4200c0,-165 135,-300 300,-300l3200 0zm-2900 4000c-110,0 -200,90 -200,200 0,110 90,200 200,200 110,0 200,-90 200,-200 0,-110 -90,-200 -200,-200zm2600 -3600c-110,0 -200,90 -200,200 0,110 90,200 200,200 110,0 200,-90 200,-200 0,-110 -90,-200 -200,-200zm-2600 0c-110,0 -200,90 -200,200 0,110 90,200 200,200 110,0 200,-90 200,-200 0,-110 -90,-200 -200,-200zm2800 2600c-220,0 -400,180 -400,400 0,221 179,400 400,400 220,0 400,-180 400,-400 0,-221 -179,-400 -400,-400zm0 -1400c994,0 1800,806 1800,1800 0,994 -806,1800 -1800,1800 -994,0 -1800,-806 -1800,-1800 0,-994 806,-1800 1800,-1800zm0 1100c-387,0 -700,313 -700,700 0,387 313,700 700,700 387,0 700,-313 700,-700 0,-387 -313,-700 -700,-700zm200 700c0,111 -89,200 -200,200 -110,0 -200,-90 -200,-200 0,-111 89,-200 200,-200 110,0 200,89 200,200zm261 -773l310 -682 -182 -82 -310 681c64,21 125,49 182,83zm409 540l697 -272 -73 -186 -697 272c31,59 55,121 73,186zm-1331 1006l-310 682 182 82 310 -681c-64,-21 -125,-49 -182,-83zm-409 -540l-697 272 73 186 697 -272c-31,-59 -55,-121 -73,-186z"/>
</svg>