<?xml version="1.0" encoding="UTF-8"?>
<!DOCTYPE svg PUBLIC "-//W3C//DTD SVG 1.1//EN" "http://www.w3.org/Graphics/SVG/1.1/DTD/svg11.dtd">
<svg xmlns="http://www.w3.org/2000/svg" xml:space="preserve" width="580px" height="580px" shape-rendering="geometricPrecision" text-rendering="geometricPrecision" image-rendering="optimizeQuality" fill-rule="nonzero" clip-rule="nonzero" viewBox="0 0 5800 5800" xmlns:xlink="http://www.w3.org/1999/xlink">
	<title>cd_music icon</title>
	<desc>cd_music icon from the IconExperience.com I-Collection. Copyright by INCORS GmbH (www.incors.com).</desc>
		<path id="curve29" d="M2600 2100c113,0 216,37 300,100l0 400c0,-166 -134,-300 -300,-300 -166,0 -300,134 -300,300 0,166 134,300 300,300 166,0 300,-134 300,-300l0 400c-84,63 -187,100 -300,100 -276,0 -500,-224 -500,-500 0,-276 224,-500 500,-500zm0 -1800c818,0 1569,432 1983,1133l-208 45c-200,-317 -483,-575 -816,-747l-415 913c39,22 76,46 112,73l-101 21c-53,8 -102,30 -142,62 -124,-64 -264,-100 -413,-100 -249,0 -474,101 -636,264 -163,162 -264,387 -264,636 0,497 403,900 900,900 105,0 206,-18 300,-51l0 210c-95,27 -196,41 -300,41 -127,0 -249,-22 -363,-61l-238 524c-70,40 -134,85 -192,136 -113,100 -200,220 -252,350 -769,-392 -1255,-1182 -1255,-2049 0,-1270 1030,-2300 2300,-2300zm2299 2227c1,24 1,48 1,73 0,335 -72,653 -200,939 -11,1 -22,2 -33,4 -73,8 -144,22 -212,42 156,-294 245,-629 245,-985 0,-10 0,-20 0,-31l199 -42zm-1182 2084c-70,39 -143,74 -217,106l0 -219c70,-33 138,-71 204,-111 -3,24 -4,48 -4,73 0,24 2,54 7,90 3,21 6,41 10,61zm-33 -1824c-28,164 -92,315 -184,446l0 -407 184 -39zm-721 -1226l414 -912c-240,-96 -502,-149 -777,-149 -1160,0 -2100,940 -2100,2100 0,235 38,460 109,671l934 -365c-28,-97 -43,-200 -43,-306 0,-304 123,-579 322,-778 199,-199 474,-322 778,-322 127,0 249,22 363,61zm-1347 1531l-934 365c195,436 535,793 959,1012l415 -913c-189,-108 -343,-270 -440,-464z"/>
	<path id="curve28" d="M3300 2461l2000 -429 0 -343 -2000 426 0 346zm-811 1750c39,-5 75,-7 110,-7 181,0 344,51 467,138 11,8 22,17 33,26l1 -2333c0,-50 37,-92 85,-99l2194 -468c63,-14 121,34 121,97l0 2715c0,9 0,17 0,26 0,179 -91,350 -239,480 -141,125 -336,215 -550,238 -39,4 -75,6 -110,6 -181,0 -344,-50 -467,-137 -129,-92 -214,-222 -231,-377 -2,-19 -3,-38 -3,-56 0,-180 91,-350 239,-481 141,-125 336,-214 550,-238 39,-4 75,-6 110,-6 181,0 344,51 467,137 11,9 22,17 33,26l1 -1661 -2000 428 0 2110c0,180 -91,350 -239,481 -141,125 -336,214 -550,238 -39,4 -75,6 -110,6 -181,0 -344,-51 -467,-138 -129,-91 -214,-222 -231,-376 -23,-209 82,-401 236,-537 141,-126 336,-215 550,-238zm110 193c-30,0 -59,2 -88,5 -173,19 -328,90 -440,189 -107,94 -185,222 -169,366 10,95 64,177 147,236 90,63 212,100 352,100 30,0 59,-2 88,-5 173,-19 328,-89 440,-188 106,-94 171,-212 171,-332 -1,-114 -58,-206 -149,-270 -90,-64 -212,-101 -352,-101zm2200 -469c-30,0 -59,1 -88,5 -173,19 -328,89 -440,188 -106,94 -171,212 -171,332 0,13 1,24 2,35 10,95 64,177 147,235 90,63 212,100 352,100 30,0 59,-1 88,-4 173,-19 328,-90 440,-189 106,-94 171,-211 171,-331 0,-113 -58,-207 -149,-271 -90,-63 -212,-100 -352,-100z"/>
</svg>