<?xml version="1.0" encoding="UTF-8"?>
<!DOCTYPE svg PUBLIC "-//W3C//DTD SVG 1.1//EN" "http://www.w3.org/Graphics/SVG/1.1/DTD/svg11.dtd">
<svg xmlns="http://www.w3.org/2000/svg" xml:space="preserve" width="580px" height="580px" shape-rendering="geometricPrecision" text-rendering="geometricPrecision" image-rendering="optimizeQuality" fill-rule="nonzero" clip-rule="nonzero" viewBox="0 0 5800 5800" xmlns:xlink="http://www.w3.org/1999/xlink">
	<title>cd_music icon</title>
	<desc>cd_music icon from the IconExperience.com I-Collection. Copyright by INCORS GmbH (www.incors.com).</desc>
		<path id="curve28"  d="M2600 2100c113,0 216,37 300,100l0 400c0,-166 -134,-300 -300,-300 -166,0 -300,134 -300,300 0,166 134,300 300,300 83,0 158,-34 212,-88 54,-54 88,-129 88,-212l0 400c-84,63 -187,100 -300,100 -276,0 -500,-224 -500,-500 0,-276 224,-500 500,-500zm-971 2395c-32,48 -53,102 -74,154 -769,-392 -1255,-1182 -1255,-2049 0,-1270 1030,-2300 2300,-2300 818,0 1569,432 1983,1133l-1428 305c-10,2 -20,4 -31,6 -41,11 -79,31 -111,56 -124,-64 -264,-100 -413,-100 -497,0 -900,403 -900,900 0,497 403,900 900,900 105,0 206,-18 300,-51 0,199 0,398 0,597 -94,-27 -195,-42 -301,-42 -40,0 -84,3 -132,8 -169,19 -329,73 -468,151l238 -524c-63,-22 -124,-50 -181,-83l-427 939zm3270 -1968c1,24 1,48 1,73 0,335 -72,653 -200,939 -11,1 -22,2 -33,4 -469,51 -967,407 -967,917 0,24 2,54 7,90 3,21 6,41 10,61 -70,39 -143,74 -217,106l0 -1681c35,-71 61,-147 78,-226l1321 -283zm-1936 -966c63,22 124,50 181,83l427 -939 -182 -82 -426 938zm-1347 1531c-30,-59 -54,-121 -73,-186l-960 375 73 186 960 -375zm873 1119c39,-5 75,-7 110,-7 178,0 361,51 501,164l0 -2333c0,-50 37,-92 85,-99l2194 -468c63,-14 121,34 121,97l0 2715c0,426 -400,701 -789,744 -39,4 -75,6 -110,6 -315,0 -660,-171 -698,-514 -2,-19 -3,-38 -3,-56 0,-405 423,-679 789,-719 39,-4 75,-6 110,-6 178,0 362,50 501,164l0 -1662 -2000 428 0 2110c0,404 -423,678 -789,719 -39,4 -75,6 -110,6 -315,0 -660,-171 -698,-514 -2,-20 -3,-39 -3,-57 0,-404 423,-678 789,-718z"/>
</svg>