<?xml version="1.0" encoding="UTF-8"?>
<!DOCTYPE svg PUBLIC "-//W3C//DTD SVG 1.1//EN" "http://www.w3.org/Graphics/SVG/1.1/DTD/svg11.dtd">
<svg xmlns="http://www.w3.org/2000/svg" xml:space="preserve" width="580px" height="580px" shape-rendering="geometricPrecision" text-rendering="geometricPrecision" image-rendering="optimizeQuality" fill-rule="nonzero" clip-rule="nonzero" viewBox="0 0 5800 5800" xmlns:xlink="http://www.w3.org/1999/xlink">
	<title>cd_pirated icon</title>
	<desc>cd_pirated icon from the IconExperience.com I-Collection. Copyright by INCORS GmbH (www.incors.com).</desc>
		<path id="curve29" d="M2900 300c1436,0 2600,1164 2600,2600 0,1436 -1164,2600 -2600,2600 -1436,0 -2600,-1164 -2600,-2600 0,-1436 1164,-2600 2600,-2600zm2270 1820l-794 310c-10,-64 -24,-130 -44,-197l766 -299c-224,-508 -620,-925 -1115,-1176l-315 694c-58,-27 -120,-51 -187,-72l321 -705c-279,-113 -583,-175 -902,-175 -1325,0 -2400,1075 -2400,2400 0,273 46,536 130,780l849 -332c0,13 -1,26 -1,39 0,58 7,114 22,168l-798 311c224,508 620,925 1115,1176l283 -622c32,15 69,26 110,31 12,2 25,3 37,3 14,10 28,20 43,29l-292 642c279,113 583,175 902,175 1325,0 2400,-1075 2400,-2400 0,-273 -46,-536 -130,-780z"/>
	<path id="curve28" d="M2979 3223l162 350c17,36 12,76 -12,106 -24,30 -60,41 -95,29l-78 -28c-38,-14 -74,-14 -112,0l-78 28c-35,12 -71,1 -95,-29 -24,-30 -29,-70 -12,-106l162 -350c15,-33 45,-53 79,-53 34,0 64,20 79,53zm-1172 -556c0,86 13,166 34,242 22,78 51,152 82,219 13,29 12,61 -2,87 -29,62 -43,120 -43,172 0,47 12,89 34,124 22,35 56,64 100,85 51,25 118,39 197,39 56,0 100,45 100,100 0,5 0,11 -1,16l-31 247c-1,5 -1,11 -1,18 0,5 -1,33 6,26 36,-41 99,-45 140,-8 19,17 30,39 33,62 0,0 20,31 23,33 16,14 34,23 47,23 28,0 36,-6 48,-17 7,-5 14,-10 22,-14 40,-19 89,-10 119,25 7,9 13,19 17,29 0,0 12,20 13,19 6,4 17,6 30,6 8,0 16,-3 24,-6 5,-3 11,-5 17,-7 27,-44 85,-60 132,-35 19,11 33,26 42,44 5,-2 5,-7 13,-4 9,5 18,8 24,8 18,0 35,0 41,-19 16,-53 72,-82 125,-65 15,4 28,12 39,23 10,8 19,13 44,13 13,0 31,-9 47,-23 12,-10 22,-22 23,-33 7,-55 56,-94 111,-87 27,3 50,16 65,36 3,-16 4,-31 2,-47l-32 -251c-6,-55 33,-105 88,-111 83,-11 131,0 214,-40 85,-41 130,-110 130,-204 0,-55 -15,-115 -45,-179 -4,-8 -1,-85 -1,-85 31,-67 60,-141 82,-219 21,-76 34,-156 34,-242 0,-218 -58,-514 -286,-718 -164,-146 -418,-249 -807,-249 -467,0 -740,148 -896,342 -155,194 -197,438 -197,625zm-200 0c0,-221 52,-511 242,-749 190,-237 513,-418 1051,-418 444,0 742,124 940,301 282,252 353,606 353,866 0,104 -16,202 -42,295 -20,73 -47,143 -75,208 32,77 47,152 47,222 0,171 -90,310 -244,384 -52,24 -110,42 -176,51l18 147c8,58 1,119 -24,173 -25,57 -68,98 -131,106 -6,0 -12,1 -18,1 -24,0 -45,-2 -63,-7 -10,12 -22,24 -34,34 -52,44 -119,71 -176,71 -36,0 -62,-3 -84,-9 -7,7 -15,12 -23,18 -42,27 -91,39 -142,39 -42,0 -88,-15 -125,-36 -38,23 -82,36 -127,36 -60,0 -118,-17 -163,-57 -22,6 -49,9 -86,9 -57,0 -124,-27 -176,-71 -12,-10 -24,-22 -34,-34 -18,5 -39,7 -63,7 -6,0 -12,-1 -18,-1 -63,-8 -106,-50 -131,-106 -18,-39 -27,-87 -27,-131 0,-14 1,-28 3,-42l18 -147c-63,-9 -121,-27 -171,-51 -79,-38 -141,-92 -183,-158 -42,-67 -65,-145 -65,-231 0,-68 15,-141 46,-217 -28,-65 -55,-135 -75,-208 -26,-93 -42,-191 -42,-295zm799 -194c211,0 382,172 382,383 0,211 -171,382 -382,382 -212,0 -383,-171 -383,-382 0,-211 171,-383 383,-383zm988 0c212,0 383,172 383,383 0,211 -172,382 -383,382 -211,0 -382,-171 -382,-382 0,-211 171,-383 382,-383z"/>
</svg>