<?xml version="1.0" encoding="UTF-8"?>
<!DOCTYPE svg PUBLIC "-//W3C//DTD SVG 1.1//EN" "http://www.w3.org/Graphics/SVG/1.1/DTD/svg11.dtd">
<svg xmlns="http://www.w3.org/2000/svg" xml:space="preserve" width="580px" height="580px" shape-rendering="geometricPrecision" text-rendering="geometricPrecision" image-rendering="optimizeQuality" fill-rule="nonzero" clip-rule="nonzero" viewBox="0 0 5800 5800" xmlns:xlink="http://www.w3.org/1999/xlink">
	<title>cd_pirated icon</title>
	<desc>cd_pirated icon from the IconExperience.com I-Collection. Copyright by INCORS GmbH (www.incors.com).</desc>
		<path id="curve28"  d="M2406 2473c211,0 382,172 382,383 0,211 -171,382 -382,382 -212,0 -383,-171 -383,-382 0,-211 171,-383 383,-383zm494 -873c-1005,0 -1193,658 -1193,1067 0,189 60,358 126,503 -148,307 13,565 376,565l-31 251c-9,72 16,168 74,168 59,0 79,-18 104,-46 10,81 104,144 169,144 65,0 83,-16 113,-41 24,62 72,89 136,89 63,0 119,-48 125,-60 6,12 72,60 127,60 62,0 116,-25 136,-89 30,25 48,41 113,41 65,0 159,-63 169,-144 25,28 45,46 104,46 58,0 83,-96 74,-168l-31 -251c372,0 524,-258 376,-565 66,-145 126,-314 126,-503 0,-409 -188,-1067 -1193,-1067zm0 -1300c1436,0 2600,1164 2600,2600 0,1436 -1164,2600 -2600,2600 -1436,0 -2600,-1164 -2600,-2600 0,-1436 1164,-2600 2600,-2600zm79 2923l162 350c17,36 12,76 -12,106 -24,30 -60,41 -95,29l-78 -28c-38,-14 -74,-14 -112,0l-78 28c-35,12 -71,1 -95,-29 -24,-30 -29,-70 -12,-106l162 -350c15,-33 45,-53 79,-53 34,0 64,20 79,53zm415 -750c212,0 383,172 383,383 0,211 -172,382 -383,382 -211,0 -382,-171 -382,-382 0,-211 171,-383 382,-383zm233 -931l364 -801 -182 -82 -369 813c64,19 126,42 187,70zm653 926l907 -355 -73 -186 -875 342c19,65 32,132 41,199zm-2139 1861l-332 730 182 82 340 -748c-18,-12 -36,-25 -52,-40 -9,1 -18,1 -27,1 -42,0 -79,-9 -111,-25zm-557 -1022l-971 380 73 186 907 -355c-16,-69 -19,-140 -9,-211z"/>
</svg>