<?xml version="1.0" encoding="UTF-8"?>
<!DOCTYPE svg PUBLIC "-//W3C//DTD SVG 1.1//EN" "http://www.w3.org/Graphics/SVG/1.1/DTD/svg11.dtd">
<svg xmlns="http://www.w3.org/2000/svg" xml:space="preserve" width="580px" height="580px" shape-rendering="geometricPrecision" text-rendering="geometricPrecision" image-rendering="optimizeQuality" fill-rule="nonzero" clip-rule="nonzero" viewBox="0 0 5800 5800" xmlns:xlink="http://www.w3.org/1999/xlink">
	<title>cd icon</title>
	<desc>cd icon from the IconExperience.com I-Collection. Copyright by INCORS GmbH (www.incors.com).</desc>
		<path id="curve28"  d="M2900 2359c299,0 541,242 541,541 0,299 -242,541 -541,541 -299,0 -541,-242 -541,-541 0,-299 242,-541 541,-541zm0 200c-188,0 -341,153 -341,341 0,188 153,341 341,341 188,0 341,-153 341,-341 0,-188 -153,-341 -341,-341zm0 -2259c1436,0 2600,1164 2600,2600 0,1436 -1164,2600 -2600,2600 -1436,0 -2600,-1164 -2600,-2600 0,-1436 1164,-2600 2600,-2600zm375 1534c63,23 124,50 181,83l535 -1176 -182 -82 -534 1175zm637 563c29,60 54,122 72,186l1203 -470 -73 -186 -1202 470zm-1387 1569c-63,-23 -124,-50 -181,-83l-535 1176 182 82 534 -1175zm-637 -563c-29,-60 -54,-122 -72,-186l-1203 470 73 186 1202 -470zm1012 -1432c-513,0 -929,416 -929,929 0,513 416,929 929,929 513,0 929,-416 929,-929 0,-513 -416,-929 -929,-929z"/>
</svg>