<?xml version="1.0" encoding="UTF-8"?>
<!DOCTYPE svg PUBLIC "-//W3C//DTD SVG 1.1//EN" "http://www.w3.org/Graphics/SVG/1.1/DTD/svg11.dtd">
<svg xmlns="http://www.w3.org/2000/svg" xml:space="preserve" width="580px" height="580px" shape-rendering="geometricPrecision" text-rendering="geometricPrecision" image-rendering="optimizeQuality" fill-rule="nonzero" clip-rule="nonzero" viewBox="0 0 5800 5800" xmlns:xlink="http://www.w3.org/1999/xlink">
	<title>cd_window icon</title>
	<desc>cd_window icon from the IconExperience.com I-Collection. Copyright by INCORS GmbH (www.incors.com).</desc>
		<path id="curve29" d="M2600 2100c138,0 263,56 354,146 17,18 32,36 47,55 -267,0 -534,-1 -801,-1 94,-126 242,-200 400,-200zm0 -1800c1155,0 2132,858 2281,2001l-202 0c-18,-128 -48,-252 -88,-372l-934 365 -208 7c-126,-359 -466,-601 -849,-601 -497,0 -900,403 -900,900 0,39 2,77 7,115 -4,28 -7,56 -7,85l0 433c-31,-45 -60,-92 -84,-141l-934 365c204,456 567,826 1018,1041l0 219c-847,-360 -1400,-1192 -1400,-2117 0,-1270 1030,-2300 2300,-2300zm959 431l-415 913c189,108 343,270 440,464l934 -365c-195,-436 -535,-793 -959,-1012zm-596 830l414 -912c-240,-96 -502,-149 -777,-149 -1160,0 -2100,940 -2100,2100 0,235 38,460 109,671l934 -365c-28,-97 -43,-200 -43,-306 0,-607 493,-1100 1100,-1100 127,0 249,22 363,61z"/>
	<path id="curve28" d="M2100 3100l3200 0 0 -300c0,-55 -45,-100 -100,-100l-3000 0c-55,0 -100,45 -100,100l0 300zm3200 200l-3200 0 0 2000 3200 0 0 -2000zm-3100 -800l3000 0c165,0 300,135 300,300l0 2700 -3600 0 0 -2700c0,-165 135,-300 300,-300z"/>
</svg>