<?xml version="1.0" encoding="UTF-8"?>
<!DOCTYPE svg PUBLIC "-//W3C//DTD SVG 1.1//EN" "http://www.w3.org/Graphics/SVG/1.1/DTD/svg11.dtd">
<svg xmlns="http://www.w3.org/2000/svg" xml:space="preserve" width="580px" height="580px" shape-rendering="geometricPrecision" text-rendering="geometricPrecision" image-rendering="optimizeQuality" fill-rule="nonzero" clip-rule="nonzero" viewBox="0 0 5800 5800" xmlns:xlink="http://www.w3.org/1999/xlink">
	<title>cd_window icon</title>
	<desc>cd_window icon from the IconExperience.com I-Collection. Copyright by INCORS GmbH (www.incors.com).</desc>
		<path id="curve28"  d="M2200 2500l3000 0c165,0 300,135 300,300l0 100 -3600 0 0 -100c0,-165 135,-300 300,-300zm1384 -392c15,30 28,60 41,91l1 3 1 3 1 3 4 11 4 11 3 7c2,6 4,12 6,17l1 4c2,6 4,13 6,19l0 1 0 1c2,5 3,10 5,15l960 -375 -73 -186 -960 375zm-30 192l-105 0c-127,-359 -467,-600 -849,-600 -497,0 -900,403 -900,900 0,39 2,77 7,115 -4,28 -7,56 -7,85l0 236 0 197 0 1484c-847,-360 -1400,-1192 -1400,-2117 0,-1270 1030,-2300 2300,-2300 1155,0 2132,858 2281,2001l-1326 0 -1 -1zm-1938 792l0 -1 -2 -2c-2,-5 -4,-9 -6,-14l-1 -2 -1 -1 -1 -2 -1 -3 -2 -3 0 -1 -1 -2 -3 -6 0 -1 -1 -1 -1 -3 -1 -3 -1 -2 -1 -1 -1 -3 -1 -3 -1 -2 -1 -1 -1 -2 -2 -6 -1 -2 0 -1 -1 -3 -2 -3 -1 -2 0 -1 -1 -2 -1 -3 -1 -3 -1 -1 0 -2 -2 -3 -1 -3 0 -1 -1 -2 -1 -3 -1 -3 -1 -2 0 -1 -1 -3 -1 -2 -3 -6 -1 -3 -2 -6 -1 -3 -1 -3 -1 -3 0 0 -1 -3 -1 -3c-2,-6 -4,-12 -6,-18l-1 -3 -1 -6 -1 -3m3952 179l0 2400 -3600 0 0 -2400 3600 0zm-2900 -1000c158,0 306,75 401,201 -68,0 -801,1 -801,-1 94,-126 242,-200 400,-200zm363 -539c63,22 124,50 181,83l427 -939 -182 -82 -426 938zm-1420 1345l-960 375 73 186 960 -375"/>
</svg>