<?xml version="1.0" encoding="UTF-8"?>
<!DOCTYPE svg PUBLIC "-//W3C//DTD SVG 1.1//EN" "http://www.w3.org/Graphics/SVG/1.1/DTD/svg11.dtd">
<svg xmlns="http://www.w3.org/2000/svg" xml:space="preserve" width="580px" height="580px" shape-rendering="geometricPrecision" text-rendering="geometricPrecision" image-rendering="optimizeQuality" fill-rule="nonzero" clip-rule="nonzero" viewBox="0 0 5800 5800" xmlns:xlink="http://www.w3.org/1999/xlink">
	<title>central_bank_yuan icon</title>
	<desc>central_bank_yuan icon from the IconExperience.com I-Collection. Copyright by INCORS GmbH (www.incors.com).</desc>
	<path id="curve0"  d="M2000 1700c-165,0 -300,135 -300,300l0 100 -500 0c-276,0 -500,224 -500,500l0 2100 1700 0 0 -1200 1000 0 0 1200 1700 0 0 -2100c0,-276 -224,-500 -500,-500l-500 0 0 -100c0,-165 -135,-300 -300,-300l-199 0c109,0 199,-90 199,-200l0 -200 -200 0 0 200 -300 0 0 -800 450 0 0 -200 -1700 0 0 200 550 0 0 200c0,166 -67,316 -176,424 -108,109 -258,176 -424,176l0 200zm1299 0l-1299 0c220,0 421,-90 566,-234 144,-145 234,-345 234,-566l0 -200 300 0 0 800c0,110 90,200 199,200zm-1049 -1600l1300 0 0 200 -1300 0 0 -200zm2850 4800l400 0 0 600 -5200 0c0,-200 0,-400 0,-600l400 0c1467,0 2933,0 4400,0zm-2400 -2400l0 600 -200 0 0 -600 200 0zm600 0l0 600 -200 0 0 -600 200 0zm-1800 0l0 600 -200 0 0 -600 200 0zm600 0l0 600 -200 0 0 -600 200 0zm1800 0l0 600 -200 0 0 -600 200 0zm600 0l0 600 -200 0 0 -600 200 0zm-3000 1000l0 1000 -200 0 0 -1000 200 0zm600 0l0 1000 -200 0 0 -1000 200 0zm1800 0l0 1000 -200 0 0 -1000 200 0zm600 0l0 1000 -200 0 0 -1000 200 0z"/>
</svg>