<?xml version="1.0" encoding="UTF-8"?>
<!DOCTYPE svg PUBLIC "-//W3C//DTD SVG 1.1//EN" "http://www.w3.org/Graphics/SVG/1.1/DTD/svg11.dtd">
<svg xmlns="http://www.w3.org/2000/svg" xml:space="preserve" width="580px" height="580px" shape-rendering="geometricPrecision" text-rendering="geometricPrecision" image-rendering="optimizeQuality" fill-rule="nonzero" clip-rule="nonzero" viewBox="0 0 5800 5800" xmlns:xlink="http://www.w3.org/1999/xlink">
	<title>central_bank_yen icon</title>
	<desc>central_bank_yen icon from the IconExperience.com I-Collection. Copyright by INCORS GmbH (www.incors.com).</desc>
	<path id="curve0"  d="M2000 1700c-165,0 -300,135 -300,300l0 100 -500 0c-276,0 -500,224 -500,500l0 2100 1700 0 0 -1200 1000 0 0 1200 1700 0 0 -2100c0,-276 -224,-500 -500,-500l-500 0 0 -100c0,-165 -135,-300 -300,-300l-800 0 0 -200 400 0 0 -200 -400 0 0 -100 400 0 0 -200 -400 0 0 -64 414 -495c52,-63 86,-132 86,-215l0 -126 -200 0 0 126c0,34 -18,61 -39,87l-361 431 -361 -431c-21,-26 -39,-53 -39,-87l0 -126 -200 0 0 126c0,83 34,152 86,215l414 495 0 64 -400 0 0 200 400 0 0 100 -400 0 0 200 400 0 0 200 -800 0zm3100 3200l400 0 0 600 -5200 0c0,-200 0,-400 0,-600l400 0c1467,0 2933,0 4400,0zm-2400 -2400l0 600 -200 0 0 -600 200 0zm600 0l0 600 -200 0 0 -600 200 0zm-1800 0l0 600 -200 0 0 -600 200 0zm600 0l0 600 -200 0 0 -600 200 0zm1800 0l0 600 -200 0 0 -600 200 0zm600 0l0 600 -200 0 0 -600 200 0zm-3000 1000l0 1000 -200 0 0 -1000 200 0zm600 0l0 1000 -200 0 0 -1000 200 0zm1800 0l0 1000 -200 0 0 -1000 200 0zm600 0l0 1000 -200 0 0 -1000 200 0z"/>
</svg>