<?xml version="1.0" encoding="UTF-8"?>
<!DOCTYPE svg PUBLIC "-//W3C//DTD SVG 1.1//EN" "http://www.w3.org/Graphics/SVG/1.1/DTD/svg11.dtd">
<svg xmlns="http://www.w3.org/2000/svg" xml:space="preserve" width="580px" height="580px" shape-rendering="geometricPrecision" text-rendering="geometricPrecision" image-rendering="optimizeQuality" fill-rule="nonzero" clip-rule="nonzero" viewBox="0 0 5800 5800" xmlns:xlink="http://www.w3.org/1999/xlink">
	<title>central_bank_dollar icon</title>
	<desc>central_bank_dollar icon from the IconExperience.com I-Collection. Copyright by INCORS GmbH (www.incors.com).</desc>
		<path id="curve28"  d="M3000 100l0 100 100 0c220,0 400,180 400,400l-200 0c0,-111 -89,-200 -200,-200l-100 0 0 400 100 0c220,0 400,180 400,400 0,220 -180,400 -400,400l-100 0 0 100 800 0c165,0 300,135 300,300l0 100 500 0c276,0 500,224 500,500l0 2300 400 0c0,200 0,400 0,600l-5200 0c0,-200 0,-400 0,-600l400 0 0 -2300c0,-276 224,-500 500,-500l500 0 0 -100c0,-165 135,-300 300,-300l800 0 0 -100 -100 0c-220,0 -400,-180 -400,-400l200 0c0,110 90,200 200,200l100 0 0 -400 -100 0c-220,0 -400,-180 -400,-400 0,-220 180,-400 400,-400l100 0 0 -100 200 0zm-1800 2200c-165,0 -300,135 -300,300l0 2300 1500 0 0 -1300 0 -100 100 0 800 0 100 0 0 100 0 1300 1500 0 0 -2300c0,-165 -135,-300 -300,-300 -1133,0 -2267,0 -3400,0zm4100 2800c-1600,0 -3200,0 -4800,0l0 200 4800 0 0 -200zm-1500 -3200l-1800 0c-55,0 -100,45 -100,100l0 100 2000 0 0 -100c0,-55 -45,-100 -100,-100zm-1100 600l0 600 -200 0 0 -600 200 0zm600 0l0 600 -200 0 0 -600 200 0zm-1800 0l0 600 -200 0 0 -600 200 0zm600 0l0 600 -200 0 0 -600 200 0zm1800 0l0 600 -200 0 0 -600 200 0zm600 0l0 600 -200 0 0 -600 200 0zm-3000 1000l0 1000 -200 0 0 -1000 200 0zm600 0l0 1000 -200 0 0 -1000 200 0zm1800 0l0 1000 -200 0 0 -1000 200 0zm600 0l0 1000 -200 0 0 -1000 200 0zm-1300 200l-600 0 0 1200 600 0 0 -1200zm-200 -2700l0 400 100 0c110,0 200,-90 200,-200 0,-110 -90,-200 -200,-200l-100 0zm-200 -200l0 -400 -100 0c-110,0 -200,90 -200,200 0,110 90,200 200,200l100 0z"/>
</svg>