<?xml version="1.0" encoding="UTF-8"?>
<!DOCTYPE svg PUBLIC "-//W3C//DTD SVG 1.1//EN" "http://www.w3.org/Graphics/SVG/1.1/DTD/svg11.dtd">
<svg xmlns="http://www.w3.org/2000/svg" xml:space="preserve" width="580px" height="580px" shape-rendering="geometricPrecision" text-rendering="geometricPrecision" image-rendering="optimizeQuality" fill-rule="nonzero" clip-rule="nonzero" viewBox="0 0 5800 5800" xmlns:xlink="http://www.w3.org/1999/xlink">
	<title>central_bank_yuan icon</title>
	<desc>central_bank_yuan icon from the IconExperience.com I-Collection. Copyright by INCORS GmbH (www.incors.com).</desc>
	<path id="curve0"  d="M3800 1300l0 200c0,109 -89,199 -197,200l197 0c165,0 300,135 300,300l0 100 500 0c276,0 500,224 500,500l0 2300 400 0c0,200 0,400 0,600l-5200 0 0 -600 400 0 0 -2300c0,-138 56,-263 147,-353 90,-91 215,-147 353,-147l500 0 0 -100c0,-165 135,-300 300,-300l0 -200c331,0 600,-269 600,-600l0 -200 -550 0 0 -200 1700 0 0 200 -450 0 0 800 300 0 0 -200 200 0zm-2600 1000c-83,0 -158,34 -212,88 -54,54 -88,129 -88,212l0 2300 1500 0 0 -1400c333,0 667,0 1000,0l0 1400 1500 0 0 -2300c0,-165 -135,-300 -300,-300 -1133,0 -2267,0 -3400,0zm4100 2800c-1600,0 -3200,0 -4800,0l0 200 4800 0 0 -200zm-2003 -3400c-108,-1 -197,-91 -197,-200l0 -800 -300 0 0 200c0,441 -357,799 -798,800l1295 0zm503 200l-1800 0c-55,0 -100,45 -100,100l0 100 2000 0 0 -100c0,-55 -45,-100 -100,-100zm-1100 600l0 600 -200 0 0 -600 200 0zm600 0l0 600 -200 0 0 -600 200 0zm-1800 0l0 600 -200 0 0 -600 200 0zm600 0l0 600 -200 0 0 -600 200 0zm1800 0l0 600 -200 0 0 -600 200 0zm600 0l0 600 -200 0 0 -600 200 0zm-3000 1000l0 1000 -200 0 0 -1000 200 0zm600 0l0 1000 -200 0 0 -1000 200 0zm1800 0l0 1000 -200 0 0 -1000 200 0zm600 0l0 1000 -200 0 0 -1000 200 0zm-1300 200l-600 0 0 1200 600 0 0 -1200zm-950 -3600l1300 0 0 200 -1300 0 0 -200z"/>
</svg>