<?xml version="1.0" encoding="UTF-8"?>
<!DOCTYPE svg PUBLIC "-//W3C//DTD SVG 1.1//EN" "http://www.w3.org/Graphics/SVG/1.1/DTD/svg11.dtd">
<svg xmlns="http://www.w3.org/2000/svg" xml:space="preserve" width="580px" height="580px" shape-rendering="geometricPrecision" text-rendering="geometricPrecision" image-rendering="optimizeQuality" fill-rule="nonzero" clip-rule="nonzero" viewBox="0 0 5800 5800" xmlns:xlink="http://www.w3.org/1999/xlink">
	<title>central_bank_euro icon</title>
	<desc>central_bank_euro icon from the IconExperience.com I-Collection. Copyright by INCORS GmbH (www.incors.com).</desc>
		<path id="curve28"  d="M2100 1000l-67 200 267 0c0,276 225,500 500,500l-800 0c-165,0 -300,135 -300,300l0 100 -500 0c-276,0 -500,224 -500,500l0 2100 1700 0 0 -1200 1000 0 0 1200 1700 0 0 -2100c0,-276 -224,-500 -500,-500l-500 0 0 -100c0,-165 -135,-300 -300,-300l-800 0c83,0 161,-21 231,-57 71,-38 133,-92 179,-158l-163 -114c-28,40 -65,73 -108,95 -41,22 -89,34 -139,34l-200 0c-165,0 -300,-135 -300,-300l433 0 67 -200 -500 0 0 -100 533 0 67 -200 -600 0c0,-165 135,-300 300,-300l200 0c50,0 98,12 139,34 14,7 28,16 41,26l65 -195c-75,-42 -159,-65 -245,-65l-200 0c-276,0 -500,224 -500,500l-100 0 -67 200 167 0 0 100 -200 0zm3000 3900l400 0 0 600 -5200 0c0,-200 0,-400 0,-600l400 0c1467,0 2933,0 4400,0zm-2400 -2400l0 600 -200 0 0 -600 200 0zm600 0l0 600 -200 0 0 -600 200 0zm-1800 0l0 600 -200 0 0 -600 200 0zm600 0l0 600 -200 0 0 -600 200 0zm1800 0l0 600 -200 0 0 -600 200 0zm600 0l0 600 -200 0 0 -600 200 0zm-3000 1000l0 1000 -200 0 0 -1000 200 0zm600 0l0 1000 -200 0 0 -1000 200 0zm1800 0l0 1000 -200 0 0 -1000 200 0zm600 0l0 1000 -200 0 0 -1000 200 0z"/>
</svg>