<?xml version="1.0" encoding="UTF-8"?>
<!DOCTYPE svg PUBLIC "-//W3C//DTD SVG 1.1//EN" "http://www.w3.org/Graphics/SVG/1.1/DTD/svg11.dtd">
<svg xmlns="http://www.w3.org/2000/svg" xml:space="preserve" width="580px" height="580px" shape-rendering="geometricPrecision" text-rendering="geometricPrecision" image-rendering="optimizeQuality" fill-rule="nonzero" clip-rule="nonzero" viewBox="0 0 5800 5800" xmlns:xlink="http://www.w3.org/1999/xlink">
	<title>central_bank_pound icon</title>
	<desc>central_bank_pound icon from the IconExperience.com I-Collection. Copyright by INCORS GmbH (www.incors.com).</desc>
	<path id="curve0"  d="M2000 1700c-165,0 -300,135 -300,300l0 100 -500 0c-276,0 -500,224 -500,500l0 2100 1700 0 0 -1200 1000 0 0 1200 1700 0 0 -2100c0,-276 -224,-500 -500,-500l-500 0 0 -100c0,-165 -135,-300 -300,-300l-454 0c-77,0 -147,-25 -224,-52 -79,-28 -169,-60 -278,-60 -79,0 -126,18 -179,38 -154,58 -271,74 -437,74l-228 0zm1346 0l-1118 0 0 -200c7,0 48,-38 99,-94 47,-51 92,-114 116,-177 27,-73 45,-139 57,-201l-188 0 0 -200 214 0c2,-21 3,-42 5,-64 5,-75 11,-154 24,-243 35,-243 239,-421 485,-421 272,0 492,220 492,492l-200 0c0,-161 -131,-292 -292,-292 -147,0 -266,104 -287,249 -12,82 -18,157 -23,229 -1,17 -2,33 -4,50l426 0 0 200 -448 0c-14,82 -36,170 -75,271 -21,56 -52,110 -88,159 20,-6 37,-13 54,-19 72,-27 135,-51 249,-51 142,0 249,38 345,72 60,21 114,40 159,40 29,0 59,-7 85,-23 19,-12 36,-30 47,-56l184 78c-29,67 -74,115 -126,148 -57,36 -124,53 -192,53zm2154 3200l0 600 -5200 0c0,-200 0,-400 0,-600 1733,0 3467,0 5200,0zm-2800 -2400l0 600 -200 0 0 -600 200 0zm600 0l0 600 -200 0 0 -600 200 0zm-1800 0l0 600 -200 0 0 -600 200 0zm600 0l0 600 -200 0 0 -600 200 0zm1800 0l0 600 -200 0 0 -600 200 0zm600 0l0 600 -200 0 0 -600 200 0zm-3000 1000l0 1000 -200 0 0 -1000 200 0zm600 0l0 1000 -200 0 0 -1000 200 0zm1800 0l0 1000 -200 0 0 -1000 200 0zm600 0l0 1000 -200 0 0 -1000 200 0z"/>
</svg>