<?xml version="1.0" encoding="UTF-8"?>
<!DOCTYPE svg PUBLIC "-//W3C//DTD SVG 1.1//EN" "http://www.w3.org/Graphics/SVG/1.1/DTD/svg11.dtd">
<svg xmlns="http://www.w3.org/2000/svg" xml:space="preserve" width="580px" height="580px" shape-rendering="geometricPrecision" text-rendering="geometricPrecision" image-rendering="optimizeQuality" fill-rule="nonzero" clip-rule="nonzero" viewBox="0 0 5800 5800" xmlns:xlink="http://www.w3.org/1999/xlink">
	<title>central_bank_yen icon</title>
	<desc>central_bank_yen icon from the IconExperience.com I-Collection. Copyright by INCORS GmbH (www.incors.com).</desc>
	<path id="curve0" d="M2400 1300l400 0 0 -100 -400 0 0 -200 400 0 0 -64 -414 -495c-52,-63 -86,-132 -86,-215l0 -126 200 0 0 126c0,34 18,61 39,87l361 431 361 -431c21,-26 39,-53 39,-87l0 -126 200 0 0 126c0,83 -34,152 -86,215l-414 495 0 64 400 0 0 200 -400 0 0 100 400 0 0 200 -400 0 0 200 800 0c165,0 300,135 300,300l0 100 500 0c276,0 500,224 500,500l0 2300 400 0 0 600 -5200 0 0 -600 400 0 0 -2300c0,-276 224,-500 500,-500l500 0 0 -100c0,-165 135,-300 300,-300l800 0 0 -200 -400 0 0 -200zm-1200 1000c-165,0 -300,135 -300,300l0 2300 1500 0 0 -1400 1000 0 0 1400 1500 0 0 -2300c0,-165 -135,-300 -300,-300 -1133,0 -2267,0 -3400,0zm4100 2800c-1600,0 -3200,0 -4800,0l0 200 4800 0 0 -200zm-1500 -3200l-1800 0c-55,0 -100,45 -100,100l0 100 2000 0 0 -100c0,-55 -45,-100 -100,-100zm-1100 600l0 600 -200 0 0 -600 200 0zm600 0l0 600 -200 0 0 -600 200 0zm-1800 0l0 600 -200 0 0 -600 200 0zm600 0l0 600 -200 0 0 -600 200 0zm1800 0l0 600 -200 0 0 -600 200 0zm600 0l0 600 -200 0 0 -600 200 0zm-3000 1000l0 1000 -200 0 0 -1000 200 0zm600 0l0 1000 -200 0 0 -1000 200 0zm1800 0l0 1000 -200 0 0 -1000 200 0zm600 0l0 1000 -200 0 0 -1000 200 0zm-1300 200l-600 0 0 1200 600 0 0 -1200z"/>
</svg>