<?xml version="1.0" encoding="UTF-8"?>
<!DOCTYPE svg PUBLIC "-//W3C//DTD SVG 1.1//EN" "http://www.w3.org/Graphics/SVG/1.1/DTD/svg11.dtd">
<svg xmlns="http://www.w3.org/2000/svg" xml:space="preserve" width="580px" height="580px" shape-rendering="geometricPrecision" text-rendering="geometricPrecision" image-rendering="optimizeQuality" fill-rule="nonzero" clip-rule="nonzero" viewBox="0 0 5800 5800" xmlns:xlink="http://www.w3.org/1999/xlink">
	<title>central_bank_euro icon</title>
	<desc>central_bank_euro icon from the IconExperience.com I-Collection. Copyright by INCORS GmbH (www.incors.com).</desc>
		<path id="curve28"  d="M2100 1000l200 0 0 -100 -167 0 67 -200 100 0c0,-276 224,-500 500,-500l200 0c86,0 170,23 245,65l-65 195c-13,-10 -27,-19 -41,-26 -41,-22 -89,-34 -139,-34l-200 0c-165,0 -300,135 -300,300l600 0 -67 200 -533 0 0 100 500 0 -67 200 -433 0c0,165 135,300 300,300l200 0c50,0 98,-12 139,-34 43,-22 80,-55 108,-95l163 114c-46,66 -108,120 -179,158 -70,36 -148,57 -231,57l800 0c165,0 300,135 300,300l0 100 500 0c276,0 500,224 500,500l0 2300 400 0 0 600 -5200 0c0,-200 0,-400 0,-600l400 0 0 -2300c0,-276 224,-500 500,-500l500 0 0 -100c0,-165 135,-300 300,-300l800 0c-275,0 -500,-224 -500,-500l-267 0 67 -200zm2800 3900l0 -2300c0,-165 -135,-300 -300,-300 -1133,0 -2267,0 -3400,0 -165,0 -300,135 -300,300l0 2300 1500 0 0 -1400 1000 0 0 1400 1500 0zm400 200c-1600,0 -3200,0 -4800,0l0 200 4800 0 0 -200zm-2100 -1400l-600 0 0 1200 600 0 0 -1200zm600 -1800l-1800 0c-55,0 -100,45 -100,100l0 100 2000 0 0 -100c0,-55 -45,-100 -100,-100zm-1100 600l0 600 -200 0 0 -600 200 0zm600 0l0 600 -200 0 0 -600 200 0zm-1800 0l0 600 -200 0 0 -600 200 0zm600 0l0 600 -200 0 0 -600 200 0zm1800 0l0 600 -200 0 0 -600 200 0zm600 0l0 600 -200 0 0 -600 200 0zm-3000 1000l0 1000 -200 0 0 -1000 200 0zm600 0l0 1000 -200 0 0 -1000 200 0zm1800 0l0 1000 -200 0 0 -1000 200 0zm600 0l0 1000 -200 0 0 -1000 200 0z"/>
</svg>