<?xml version="1.0" encoding="UTF-8"?>
<!DOCTYPE svg PUBLIC "-//W3C//DTD SVG 1.1//EN" "http://www.w3.org/Graphics/SVG/1.1/DTD/svg11.dtd">
<svg xmlns="http://www.w3.org/2000/svg" xml:space="preserve" width="580px" height="580px" shape-rendering="geometricPrecision" text-rendering="geometricPrecision" image-rendering="optimizeQuality" fill-rule="nonzero" clip-rule="nonzero" viewBox="0 0 5800 5800" xmlns:xlink="http://www.w3.org/1999/xlink">
	<title>chainsaw icon</title>
	<desc>chainsaw icon from the IconExperience.com I-Collection. Copyright by INCORS GmbH (www.incors.com).</desc>
	<path id="curve0" d="M4100 3100c0,55 -45,100 -100,100 -55,0 -100,-45 -100,-100l0 -1000c0,-321 288,-544 596,-497 96,15 188,56 267,120l441 358c67,54 96,135 96,219l0 348 222 188c102,88 178,191 178,332l0 532c0,220 -180,400 -400,400l-1500 0c-165,0 -300,-135 -300,-300l0 -1400c0,-127 81,-240 200,-283 0,561 0,1122 0,1683 0,55 45,100 100,100l1500 0c110,0 200,-90 200,-200l0 -532c0,-77 -52,-133 -107,-180 -262,-223 -523,-445 -785,-668 -23,-19 -64,-20 -93,-20l-215 0 0 -200 215 0c82,0 158,14 222,69l363 309 0 -178c0,-22 -3,-49 -21,-64l-442 -359c-50,-41 -109,-67 -171,-76 -189,-29 -366,99 -366,299l0 1000zm-800 1059l-395 -198 0 200 -405 -202 0 202 -395 -197 0 197 -400 -200 0 200 -405 -202 0 202 -407 -203 -157 215 -210 -404 -253 82 68 -450 -253 -82 320 -324 -157 -216 449 -74 0 -266 405 202 0 -202 395 197 0 -197 400 200 0 -200 405 202 0 -202 395 197 0 -197 400 200 0 -200 200 100 0 361 -2300 0c-220,0 -400,180 -400,400 0,220 180,400 400,400l2300 0 0 459z"/>
</svg>