<?xml version="1.0" encoding="UTF-8"?>
<!DOCTYPE svg PUBLIC "-//W3C//DTD SVG 1.1//EN" "http://www.w3.org/Graphics/SVG/1.1/DTD/svg11.dtd">
<svg xmlns="http://www.w3.org/2000/svg" xml:space="preserve" width="580px" height="580px" shape-rendering="geometricPrecision" text-rendering="geometricPrecision" image-rendering="optimizeQuality" fill-rule="nonzero" clip-rule="nonzero" viewBox="0 0 5800 5800" xmlns:xlink="http://www.w3.org/1999/xlink">
	<title>chainsaw icon</title>
	<desc>chainsaw icon from the IconExperience.com I-Collection. Copyright by INCORS GmbH (www.incors.com).</desc>
	<path id="curve0"  d="M4300 2100l215 0c82,0 158,14 222,69l363 309 0 -178c0,-22 -3,-49 -21,-64l-442 -359c-99,-80 -233,-104 -352,-54 -116,48 -185,152 -185,277l0 1000c0,55 -45,100 -100,100 -55,0 -100,-45 -100,-100l0 -1000c0,-205 119,-383 309,-462 187,-77 397,-43 554,85l441 358c67,54 96,135 96,219l0 348 222 188c102,88 178,191 178,332l0 532c0,220 -180,400 -400,400l-1500 0c-165,0 -300,-135 -300,-300l0 -1400c0,-127 81,-240 200,-283l0 983c0,166 134,300 300,300 166,0 300,-134 300,-300l0 -1000zm-1000 2059l-395 -198 0 200 -405 -202 0 202 -395 -197 0 197 -400 -200 0 200 -405 -202 0 202 -407 -203 -157 215 -210 -404 -253 82 68 -450 -253 -82 320 -324 -157 -216 449 -74 0 -266 405 202 0 -202 395 197 0 -197 400 200 0 -200 405 202 0 -202 395 197 0 -197 400 200 0 -200 200 100 0 1620z"/>
</svg>