<?xml version="1.0" encoding="UTF-8"?>
<!DOCTYPE svg PUBLIC "-//W3C//DTD SVG 1.1//EN" "http://www.w3.org/Graphics/SVG/1.1/DTD/svg11.dtd">
<svg xmlns="http://www.w3.org/2000/svg" xml:space="preserve" width="580px" height="580px" shape-rendering="geometricPrecision" text-rendering="geometricPrecision" image-rendering="optimizeQuality" fill-rule="nonzero" clip-rule="nonzero" viewBox="0 0 5800 5800" xmlns:xlink="http://www.w3.org/1999/xlink">
	<title>chalk icon</title>
	<desc>chalk icon from the IconExperience.com I-Collection. Copyright by INCORS GmbH (www.incors.com).</desc>
	<path id="curve0"  d="M4944 856c146,146 254,306 310,446 66,165 63,313 -27,402 -968,969 -1934,1940 -2900,2910 -14,-39 -33,-81 -59,-135 -43,-89 -134,-194 -230,-274 -75,-62 -155,-111 -226,-131 -77,-125 -203,-226 -354,-229l-5 199c89,2 169,87 205,162l27 58 63 0c34,0 97,39 162,94 76,63 147,143 178,208 30,61 48,104 60,141 6,20 11,40 14,63 -94,81 -203,157 -320,215 -139,70 -290,115 -442,115 -13,0 -26,-3 -37,-8l-500 -199c-30,-13 -52,-38 -59,-67 -52,-158 -64,-337 -47,-513 19,-190 73,-378 152,-535 5,-10 11,-19 18,-26l3169 -3179c89,-90 237,-93 402,-27 140,56 300,164 446,310z"/>
</svg>