<?xml version="1.0" encoding="UTF-8"?>
<!DOCTYPE svg PUBLIC "-//W3C//DTD SVG 1.1//EN" "http://www.w3.org/Graphics/SVG/1.1/DTD/svg11.dtd">
<svg xmlns="http://www.w3.org/2000/svg" xml:space="preserve" width="580px" height="580px" shape-rendering="geometricPrecision" text-rendering="geometricPrecision" image-rendering="optimizeQuality" fill-rule="nonzero" clip-rule="nonzero" viewBox="0 0 5800 5800" xmlns:xlink="http://www.w3.org/1999/xlink">
	<title>chalk icon</title>
	<desc>chalk icon from the IconExperience.com I-Collection. Copyright by INCORS GmbH (www.incors.com).</desc>
	<path id="curve0"  d="M2271 4671c-223,222 -546,429 -871,429 -13,0 -26,-3 -37,-8l-500 -199c-30,-13 -52,-38 -59,-67 -52,-158 -64,-337 -47,-513 19,-190 73,-378 152,-535 5,-10 11,-19 18,-26l3169 -3179c89,-90 237,-93 402,-27 303,121 635,453 756,756 66,165 63,313 -27,402 -252,252 -2956,2964 -2956,2967zm-180 -105c-39,-86 -253,-303 -343,-303l-63 0 -27 -57c-36,-75 -116,-160 -205,-162l5 -199c152,3 278,105 355,229 155,46 335,212 422,350l2845 -2855c2,-2 4,-4 6,-6 27,-28 19,-97 -17,-187 -100,-250 -395,-545 -645,-645 -90,-36 -159,-44 -187,-17l-3157 3167c-64,133 -108,291 -124,451 -14,136 -7,273 25,393l438 175c247,-8 497,-169 672,-334z"/>
</svg>