<?xml version="1.0" encoding="UTF-8"?>
<!DOCTYPE svg PUBLIC "-//W3C//DTD SVG 1.1//EN" "http://www.w3.org/Graphics/SVG/1.1/DTD/svg11.dtd">
<svg xmlns="http://www.w3.org/2000/svg" xml:space="preserve" width="580px" height="580px" shape-rendering="geometricPrecision" text-rendering="geometricPrecision" image-rendering="optimizeQuality" fill-rule="nonzero" clip-rule="nonzero" viewBox="0 0 5800 5800" xmlns:xlink="http://www.w3.org/1999/xlink">
	<title>champagne_bottle icon</title>
	<desc>champagne_bottle icon from the IconExperience.com I-Collection. Copyright by INCORS GmbH (www.incors.com).</desc>
	<path id="curve0"  d="M3700 3700l0 1200 -1600 0 0 -1200 1600 0zm200 1600c55,0 100,-45 100,-100l0 -1400c0,-480 -200,-742 -395,-998 -205,-269 -405,-530 -405,-1002l0 -600c0,-55 45,-100 100,-100l0 0 0 0 0 0 0 0 0 0 0 0 0 -200 -800 0 0 200 0 0c55,0 100,45 100,100l0 600c0,472 -200,733 -405,1002 -195,256 -395,519 -395,998l0 1400c0,55 45,100 100,100l2000 0zm0 200l-2000 0c-165,0 -300,-135 -300,-300l0 -1400c0,-547 221,-837 436,-1119 185,-241 364,-476 364,-881l0 -527c-62,-36 -100,-100 -100,-173 0,-167 0,-333 0,-500 0,-276 224,-500 500,-500l200 0c276,0 500,224 500,500 0,167 0,333 0,500 0,72 -39,138 -100,173l0 527c0,405 179,640 364,881 215,283 436,572 436,1119l0 1400c0,165 -135,300 -300,300zm-600 -4800l0 -100c0,-165 -135,-300 -300,-300l-200 0c-165,0 -300,135 -300,300l0 100 800 0zm200 3200l-1200 0 0 800 1200 0 0 -800z"/>
</svg>