<?xml version="1.0" encoding="UTF-8"?>
<!DOCTYPE svg PUBLIC "-//W3C//DTD SVG 1.1//EN" "http://www.w3.org/Graphics/SVG/1.1/DTD/svg11.dtd">
<svg xmlns="http://www.w3.org/2000/svg" xml:space="preserve" width="580px" height="580px" shape-rendering="geometricPrecision" text-rendering="geometricPrecision" image-rendering="optimizeQuality" fill-rule="nonzero" clip-rule="nonzero" viewBox="0 0 5800 5800" xmlns:xlink="http://www.w3.org/1999/xlink">
	<title>champagne_glass icon</title>
	<desc>champagne_glass icon from the IconExperience.com I-Collection. Copyright by INCORS GmbH (www.incors.com).</desc>
		<path id="curve28" d="M2100 1500l1600 0 0 -1000 -1600 0 0 1000zm900 1990l0 1810 700 0 0 200 -1600 0 0 -200 700 0 0 -1810c-240,-47 -449,-259 -605,-554 -182,-343 -295,-804 -295,-1236l0 -1400 2000 0 0 1400c0,432 -113,893 -295,1236 -156,295 -365,507 -605,554zm700 -1790l-1600 0c0,401 104,827 271,1143 144,272 331,457 529,457 198,0 385,-185 529,-457 167,-316 271,-742 271,-1143z"/>
</svg>