<?xml version="1.0" encoding="UTF-8"?>
<!DOCTYPE svg PUBLIC "-//W3C//DTD SVG 1.1//EN" "http://www.w3.org/Graphics/SVG/1.1/DTD/svg11.dtd">
<svg xmlns="http://www.w3.org/2000/svg" xml:space="preserve" width="580px" height="580px" shape-rendering="geometricPrecision" text-rendering="geometricPrecision" image-rendering="optimizeQuality" fill-rule="nonzero" clip-rule="nonzero" viewBox="0 0 5800 5800" xmlns:xlink="http://www.w3.org/1999/xlink">
	<title>champagne_bottle icon</title>
	<desc>champagne_bottle icon from the IconExperience.com I-Collection. Copyright by INCORS GmbH (www.incors.com).</desc>
	<path id="curve0"  d="M3900 5500l-2000 0c-165,0 -300,-135 -300,-300l0 -1400c0,-547 221,-837 436,-1119 185,-241 364,-476 364,-881l0 -527c-62,-36 -100,-100 -100,-173l0 -200 1200 0 0 200c0,72 -39,138 -100,173l0 527c0,405 179,640 364,881 215,283 436,572 436,1119l0 1400c0,165 -135,300 -300,300zm-1600 -4800l0 -100c0,-276 224,-500 500,-500l200 0c276,0 500,224 500,500l0 100 -1200 0zm1400 3000l-1600 0 0 1200 1600 0 0 -1200zm-200 200l-1200 0 0 800 1200 0 0 -800z"/>
</svg>