<?xml version="1.0" encoding="UTF-8"?>
<!DOCTYPE svg PUBLIC "-//W3C//DTD SVG 1.1//EN" "http://www.w3.org/Graphics/SVG/1.1/DTD/svg11.dtd">
<svg xmlns="http://www.w3.org/2000/svg" xml:space="preserve" width="580px" height="580px" shape-rendering="geometricPrecision" text-rendering="geometricPrecision" image-rendering="optimizeQuality" fill-rule="nonzero" clip-rule="nonzero" viewBox="0 0 5800 5800" xmlns:xlink="http://www.w3.org/1999/xlink">
	<title>chart_bubble icon</title>
	<desc>chart_bubble icon from the IconExperience.com I-Collection. Copyright by INCORS GmbH (www.incors.com).</desc>
		<path id="curve29"  d="M300 700l4800 0 0 4800 -4800 0 0 -4800zm1300 3000c-331,0 -600,269 -600,600 0,331 269,600 600,600 331,0 600,-269 600,-600 0,-331 -269,-600 -600,-600zm0 200c-221,0 -400,179 -400,400 0,221 179,400 400,400 221,0 400,-179 400,-400 0,-221 -179,-400 -400,-400zm2600 -1700c-331,0 -600,269 -600,600 0,331 269,600 600,600 331,0 600,-269 600,-600 0,-331 -269,-600 -600,-600zm0 200c-221,0 -400,179 -400,400 0,221 179,400 400,400 221,0 400,-179 400,-400 0,-221 -179,-400 -400,-400zm200 1800c-220,0 -400,180 -400,400 0,221 179,400 400,400 220,0 400,-180 400,-400 0,-221 -179,-400 -400,-400zm0 200c-111,0 -200,89 -200,200 0,110 90,200 200,200 111,0 200,-89 200,-200 0,-110 -90,-200 -200,-200zm-3150 -3500c-248,0 -450,201 -450,450 0,248 202,450 450,450 249,0 450,-202 450,-450 0,-249 -201,-450 -450,-450zm0 200c-138,0 -250,112 -250,250 0,138 112,250 250,250 138,0 250,-112 250,-250 0,-138 -112,-250 -250,-250zm1150 500c-497,0 -900,403 -900,900 0,497 403,900 900,900 497,0 900,-403 900,-900 0,-497 -403,-900 -900,-900zm1350 -500c-193,0 -350,157 -350,350 0,193 157,350 350,350 193,0 350,-157 350,-350 0,-193 -157,-350 -350,-350zm-800 2700c-193,0 -350,157 -350,350 0,193 157,350 350,350 193,0 350,-157 350,-350 0,-193 -157,-350 -350,-350z"/>
</svg>