<?xml version="1.0" encoding="UTF-8"?>
<!DOCTYPE svg PUBLIC "-//W3C//DTD SVG 1.1//EN" "http://www.w3.org/Graphics/SVG/1.1/DTD/svg11.dtd">
<svg xmlns="http://www.w3.org/2000/svg" xml:space="preserve" width="580px" height="580px" shape-rendering="geometricPrecision" text-rendering="geometricPrecision" image-rendering="optimizeQuality" fill-rule="nonzero" clip-rule="nonzero" viewBox="0 0 5800 5800" xmlns:xlink="http://www.w3.org/1999/xlink">
	<title>chart_spline icon</title>
	<desc>chart_spline icon from the IconExperience.com I-Collection. Copyright by INCORS GmbH (www.incors.com).</desc>
		<path id="curve28"  d="M500 700l0 4600 4600 0 0 200 -4800 0 0 -4800 200 0zm200 2371c35,-105 66,-206 95,-301 133,-435 229,-750 531,-750 248,0 360,220 470,437 79,156 157,310 268,310 110,0 188,-154 268,-310 110,-217 221,-437 470,-437 225,0 333,108 440,217 77,78 154,156 298,156 106,0 189,-335 272,-670 101,-412 203,-823 466,-823 329,0 614,621 822,1111l0 505c-40,-84 -85,-190 -135,-310 -190,-453 -464,-1106 -687,-1106 -107,0 -190,335 -273,670 -101,412 -203,823 -465,823 -226,0 -333,-108 -440,-216 -78,-79 -155,-157 -298,-157 -126,0 -210,164 -292,326 -108,212 -214,421 -446,421 -233,0 -339,-209 -446,-421 -83,-162 -166,-326 -292,-326 -155,0 -233,255 -340,608 -72,235 -155,507 -286,782l0 -539zm0 1095c15,-12 29,-24 44,-35 150,-122 301,-244 582,-244 226,0 333,108 440,216 77,79 155,157 298,157 122,0 201,-159 279,-317 106,-215 212,-430 459,-430 226,0 333,109 440,217 77,78 154,157 298,157 122,0 201,-159 279,-318 106,-214 212,-429 459,-429 224,0 434,206 612,463 76,110 147,230 210,345l0 435c-91,-184 -223,-448 -374,-666 -145,-210 -304,-377 -448,-377 -123,0 -202,159 -280,317 -106,215 -212,430 -458,430 -226,0 -333,-109 -440,-217 -78,-78 -155,-157 -298,-157 -123,0 -201,159 -280,318 -106,214 -212,429 -458,429 -226,0 -333,-108 -440,-217 -78,-78 -155,-156 -298,-156 -211,0 -334,99 -457,198 -54,44 -107,87 -169,126l0 -245z"/>
</svg>