<?xml version="1.0" encoding="UTF-8"?>
<!DOCTYPE svg PUBLIC "-//W3C//DTD SVG 1.1//EN" "http://www.w3.org/Graphics/SVG/1.1/DTD/svg11.dtd">
<svg xmlns="http://www.w3.org/2000/svg" xml:space="preserve" width="580px" height="580px" shape-rendering="geometricPrecision" text-rendering="geometricPrecision" image-rendering="optimizeQuality" fill-rule="nonzero" clip-rule="nonzero" viewBox="0 0 5800 5800" xmlns:xlink="http://www.w3.org/1999/xlink">
	<title>chart_donut icon</title>
	<desc>chart_donut icon from the IconExperience.com I-Collection. Copyright by INCORS GmbH (www.incors.com).</desc>
		<path id="curve28"  d="M5492 3108c-101,1270 -1114,2283 -2384,2384l-108 8 0 -1501 84 -14c460,-77 824,-441 901,-901l14 -84 84 0 1309 0 108 0 -8 108zm-2892 2173l0 -1116c-585,-139 -1000,-663 -1000,-1265 0,-386 171,-750 466,-997l-499 -999c-668,447 -1067,1191 -1067,1996 0,1209 901,2232 2100,2381zm200 219l-108 -8c-1350,-107 -2392,-1238 -2392,-2592 0,-911 476,-1753 1255,-2225l92 -56 672 1343 -68 50c-284,208 -451,536 -451,888 0,536 387,996 916,1085l84 14 0 1501zm2692 -2808l8 108 -1501 0 -14 -84c-109,-651 -771,-1062 -1406,-869l-81 25 -671 -1343 100 -40c1615,-653 3426,448 3565,2203zm-211 508l-1116 0c-113,477 -488,852 -965,965l0 1116c1085,-135 1946,-996 2081,-2081z"/>
</svg>