<?xml version="1.0" encoding="UTF-8"?>
<!DOCTYPE svg PUBLIC "-//W3C//DTD SVG 1.1//EN" "http://www.w3.org/Graphics/SVG/1.1/DTD/svg11.dtd">
<svg xmlns="http://www.w3.org/2000/svg" xml:space="preserve" width="580px" height="580px" shape-rendering="geometricPrecision" text-rendering="geometricPrecision" image-rendering="optimizeQuality" fill-rule="nonzero" clip-rule="nonzero" viewBox="0 0 5800 5800" xmlns:xlink="http://www.w3.org/1999/xlink">
	<title>chart_funnel icon</title>
	<desc>chart_funnel icon from the IconExperience.com I-Collection. Copyright by INCORS GmbH (www.incors.com).</desc>
		<path id="curve28"  d="M5229 1204l-613 1361c-279,278 -1328,334 -1716,334 -388,0 -1437,-56 -1716,-334l-618 -1370c-17,-32 -28,-68 -28,-105 0,-189 284,-345 742,-444 416,-90 989,-146 1620,-146 631,0 1204,56 1620,146 458,99 742,255 742,444 0,36 -15,84 -33,114zm-766 1679l-420 841c-238,191 -843,220 -1146,220 -301,0 -902,-29 -1139,-219l-333 -665 -88 -177c458,179 1195,216 1563,216 368,0 1105,-37 1563,-216zm-568 1137l-208 415 0 818c-188,154 -549,167 -785,167 -235,0 -598,-13 -785,-167l-4 -817 -207 -415c311,104 723,123 991,123 269,0 685,-19 998,-124zm-508 403c-167,16 -334,21 -490,21 -154,0 -319,-5 -484,-21l3 649c151,44 379,48 486,48 108,0 334,-4 485,-48l0 -649zm-2360 -2936l401 891c272,168 1139,221 1472,221 333,0 1200,-53 1472,-221l400 -890c-553,174 -1298,211 -1872,211 -574,0 -1320,-37 -1873,-212zm3899 -387c-404,-253 -1562,-300 -2026,-300 -464,0 -1622,47 -2026,300l1 0c406,253 1560,299 2025,299 465,0 1619,-46 2025,-299l1 0z"/>
</svg>