<?xml version="1.0" encoding="UTF-8"?>
<!DOCTYPE svg PUBLIC "-//W3C//DTD SVG 1.1//EN" "http://www.w3.org/Graphics/SVG/1.1/DTD/svg11.dtd">
<svg xmlns="http://www.w3.org/2000/svg" xml:space="preserve" width="580px" height="580px" shape-rendering="geometricPrecision" text-rendering="geometricPrecision" image-rendering="optimizeQuality" fill-rule="nonzero" clip-rule="nonzero" viewBox="0 0 5800 5800" xmlns:xlink="http://www.w3.org/1999/xlink">
	<title>chart_spline icon</title>
	<desc>chart_spline icon from the IconExperience.com I-Collection. Copyright by INCORS GmbH (www.incors.com).</desc>
		<path id="curve28"  d="M300 700l4800 0 0 1311c-208,-490 -493,-1111 -822,-1111 -263,0 -365,411 -466,823 -83,335 -166,670 -272,670 -144,0 -221,-78 -298,-156 -107,-109 -215,-217 -440,-217 -249,0 -360,220 -470,437 -80,156 -158,310 -268,310 -111,0 -189,-154 -268,-310 -110,-217 -222,-437 -470,-437 -302,0 -398,315 -531,750 -29,95 -60,196 -95,301l0 539c131,-275 214,-547 286,-782 107,-353 185,-608 340,-608 126,0 209,164 292,326 107,212 213,421 446,421 232,0 338,-209 446,-421 82,-162 166,-326 292,-326 143,0 220,78 298,157 107,108 214,216 440,216 262,0 364,-411 465,-823 83,-335 166,-670 273,-670 223,0 497,653 687,1106 50,120 95,226 135,310l0 1432c-63,-115 -134,-235 -210,-345 -178,-257 -388,-463 -612,-463 -247,0 -353,215 -459,429 -78,159 -157,318 -279,318 -144,0 -221,-79 -298,-157 -107,-108 -214,-217 -440,-217 -247,0 -353,215 -459,430 -78,158 -157,317 -279,317 -143,0 -221,-78 -298,-157 -107,-108 -214,-216 -440,-216 -281,0 -432,122 -582,244 -15,11 -29,23 -44,35l0 245c62,-39 115,-82 169,-126 123,-99 246,-198 457,-198 143,0 220,78 298,156 107,109 214,217 440,217 246,0 352,-215 458,-429 79,-159 157,-318 280,-318 143,0 220,79 298,157 107,108 214,217 440,217 246,0 352,-215 458,-430 78,-158 157,-317 280,-317 144,0 303,167 448,377 151,218 283,482 374,666l0 1117 -4800 0 0 -4800z"/>
</svg>