<?xml version="1.0" encoding="UTF-8"?>
<!DOCTYPE svg PUBLIC "-//W3C//DTD SVG 1.1//EN" "http://www.w3.org/Graphics/SVG/1.1/DTD/svg11.dtd">
<svg xmlns="http://www.w3.org/2000/svg" xml:space="preserve" width="580px" height="580px" shape-rendering="geometricPrecision" text-rendering="geometricPrecision" image-rendering="optimizeQuality" fill-rule="nonzero" clip-rule="nonzero" viewBox="0 0 5800 5800" xmlns:xlink="http://www.w3.org/1999/xlink">
	<title>chart_funnel icon</title>
	<desc>chart_funnel icon from the IconExperience.com I-Collection. Copyright by INCORS GmbH (www.incors.com).</desc>
		<path id="curve28"  d="M4762 1840c-40,13 -80,24 -120,35 -119,32 -237,58 -348,79 -221,43 -445,73 -669,93 -242,21 -485,31 -725,31 -612,0 -1275,-58 -1862,-238l297 593c33,28 89,55 153,79 405,152 982,187 1412,187 430,0 1007,-35 1412,-187 64,-24 120,-51 153,-79l297 -593zm-506 1081l223 -70 -426 853 -27 34c-41,32 -100,59 -162,81 -87,30 -181,51 -235,62 -120,23 -243,39 -366,49 -124,10 -247,14 -366,14 -118,0 -241,-4 -364,-14 -122,-10 -245,-25 -364,-49 -54,-11 -147,-32 -233,-61 -62,-22 -121,-49 -162,-82l-26 -33 -427 -854 223 70c424,132 913,175 1356,175 443,0 932,-43 1356,-175zm-718 1368c-211,36 -427,52 -641,52 -211,0 -426,-15 -634,-51l49 99 3 755c115,40 234,57 354,67 78,6 156,9 233,9 76,0 155,-3 232,-9 120,-10 240,-27 353,-66l0 -755 51 -101zm-217 -171c126,-14 252,-36 374,-67l211 -54 -97 195 -122 243 0 818c-51,42 -76,61 -142,83 -196,67 -436,84 -643,84 -208,0 -448,-17 -644,-84 -65,-23 -91,-41 -141,-83l-4 -817 -121 -242 -97 -195 210 53c121,31 247,52 373,66 141,16 284,23 419,23 136,0 281,-7 424,-23zm1269 -2436c203,-55 383,-128 577,-206l-469 937 -63 126 -19 26c-53,54 -140,98 -234,133 -130,49 -281,84 -367,102 -183,37 -370,62 -556,77 -188,16 -376,22 -559,22 -183,0 -371,-6 -559,-22 -186,-15 -373,-40 -556,-77 -86,-18 -237,-53 -367,-102 -92,-34 -175,-74 -246,-144l-7 -15 -532 -1063c194,78 374,151 577,206 319,86 654,137 982,166 236,20 473,30 708,30 235,0 472,-10 708,-30 328,-29 663,-80 982,-166zm-1690 -1182c631,0 1204,56 1620,146 458,99 742,255 742,444 0,190 -284,346 -742,445 -416,90 -989,146 -1620,146 -631,0 -1204,-56 -1620,-146 -458,-99 -742,-255 -742,-445 0,-189 284,-345 742,-444 416,-90 989,-146 1620,-146zm1578 341c-402,-87 -960,-141 -1578,-141 -618,0 -1176,54 -1578,141 -361,78 -584,168 -584,249 0,82 223,171 584,250 402,87 960,141 1578,141 618,0 1176,-54 1578,-141 361,-79 584,-168 584,-250 0,-81 -223,-171 -584,-249z"/>
</svg>