<?xml version="1.0" encoding="UTF-8"?>
<!DOCTYPE svg PUBLIC "-//W3C//DTD SVG 1.1//EN" "http://www.w3.org/Graphics/SVG/1.1/DTD/svg11.dtd">
<svg xmlns="http://www.w3.org/2000/svg" xml:space="preserve" width="580px" height="580px" shape-rendering="geometricPrecision" text-rendering="geometricPrecision" image-rendering="optimizeQuality" fill-rule="nonzero" clip-rule="nonzero" viewBox="0 0 5800 5800" xmlns:xlink="http://www.w3.org/1999/xlink">
	<title>chart_column icon</title>
	<desc>chart_column icon from the IconExperience.com I-Collection. Copyright by INCORS GmbH (www.incors.com).</desc>
		<path id="curve28"  d="M700 2100l0 3000 800 0 0 -3000 -800 0zm-400 -1400l800 0 0 1200 600 0 0 3200c100,0 200,0 300,0l0 -4400 3100 0 0 4800 -4800 0 0 -4800zm600 1600l0 2600 400 0 0 -2600 -400 0zm1300 400l0 2400 800 0 0 -2400 -800 0zm200 200l0 2000 400 0 0 -2000 -400 0zm1300 200l0 2000 800 0 0 -2000 -800 0zm200 200l0 1600 400 0 0 -1600 -400 0zm800 -400l0 2200c100,0 200,0 300,0l0 -2800 -900 0 0 600 600 0zm-1500 -400l0 2600 300 0 0 -3600 -900 0 0 1000 600 0z"/>
</svg>