<?xml version="1.0" encoding="UTF-8"?>
<!DOCTYPE svg PUBLIC "-//W3C//DTD SVG 1.1//EN" "http://www.w3.org/Graphics/SVG/1.1/DTD/svg11.dtd">
<svg xmlns="http://www.w3.org/2000/svg" xml:space="preserve" width="580px" height="580px" shape-rendering="geometricPrecision" text-rendering="geometricPrecision" image-rendering="optimizeQuality" fill-rule="nonzero" clip-rule="nonzero" viewBox="0 0 5800 5800" xmlns:xlink="http://www.w3.org/1999/xlink">
	<title>chart_candlestick icon</title>
	<desc>chart_candlestick icon from the IconExperience.com I-Collection. Copyright by INCORS GmbH (www.incors.com).</desc>
		<path id="curve28"  d="M500 700l0 4600 4600 0 0 200 -4800 0 0 -4800 200 0zm3800 1400l0 -600 200 0 0 600 200 0 0 1800 -200 0 0 300 -200 0 0 -300 -200 0 0 -1800 200 0zm-2400 -600l0 -700 200 0 0 700 200 0 0 1500 -200 0 0 600 -200 0 0 -600 -200 0 0 -1500 200 0zm-800 800l0 -500 200 0 0 500 200 0 0 1900 -200 0 0 600 -200 0 0 -600 -200 0 0 -1900 200 0zm2600 500l0 500 200 0 0 900 -200 0 0 400 -200 0 0 -400 -200 0 0 -900 200 0 0 -500 200 0zm-800 -700l0 500 200 0 0 1200 -200 0 0 500 -200 0 0 -500 -200 0 0 -1200 200 0 0 -500 200 0zm-1600 400l-200 0 0 1500 200 0 0 -1500zm800 -800l-200 0 0 1100 200 0 0 -1100zm2400 600l-200 0 0 1400 200 0 0 -1400z"/>
</svg>