<?xml version="1.0" encoding="UTF-8"?>
<!DOCTYPE svg PUBLIC "-//W3C//DTD SVG 1.1//EN" "http://www.w3.org/Graphics/SVG/1.1/DTD/svg11.dtd">
<svg xmlns="http://www.w3.org/2000/svg" xml:space="preserve" width="580px" height="580px" shape-rendering="geometricPrecision" text-rendering="geometricPrecision" image-rendering="optimizeQuality" fill-rule="nonzero" clip-rule="nonzero" viewBox="0 0 5800 5800" xmlns:xlink="http://www.w3.org/1999/xlink">
	<title>chart_pie icon</title>
	<desc>chart_pie icon from the IconExperience.com I-Collection. Copyright by INCORS GmbH (www.incors.com).</desc>
		<path id="curve28"  d="M1827 529l100 -40c309,-125 640,-189 973,-189 1354,0 2485,1042 2592,2392l8 108 -2538 0 -1135 -2271zm973 4971l-108 -8c-1350,-107 -2392,-1238 -2392,-2592 0,-911 476,-1753 1255,-2225l92 -56 1153 2306 0 2575zm-300 -335l0 -2170 -971 -1941c-581,431 -929,1113 -929,1846 0,1124 812,2075 1900,2265zm2665 -1865l-1865 0 0 1865c950,-166 1699,-915 1865,-1865zm335 -300l-8 108c-101,1270 -1114,2283 -2384,2384l-108 8 0 -2500 2500 0z"/>
</svg>