<?xml version="1.0" encoding="UTF-8"?>
<!DOCTYPE svg PUBLIC "-//W3C//DTD SVG 1.1//EN" "http://www.w3.org/Graphics/SVG/1.1/DTD/svg11.dtd">
<svg xmlns="http://www.w3.org/2000/svg" xml:space="preserve" width="580px" height="580px" shape-rendering="geometricPrecision" text-rendering="geometricPrecision" image-rendering="optimizeQuality" fill-rule="nonzero" clip-rule="nonzero" viewBox="0 0 5800 5800" xmlns:xlink="http://www.w3.org/1999/xlink">
	<title>chart_gantt icon</title>
	<desc>chart_gantt icon from the IconExperience.com I-Collection. Copyright by INCORS GmbH (www.incors.com).</desc>
		<path id="curve28"  d="M300 700l4800 0 0 200 -4400 0 0 595 200 -165 0 -230 4000 0 0 241 200 200 0 559 -2800 0 0 200 2800 0 0 2000 -1200 0 0 200 1200 0 0 200 -1200 0 0 200 1200 0 0 600 -4800 0 0 -4800zm1400 2430l0 -230 2000 0 0 241 200 200 0 -641 -2400 0 0 595 200 -165zm1000 770l0 200 1200 0 0 -200 -1200 0zm-1200 -400l0 200 1200 0 0 -200 -1200 0zm-800 -1800l0 200 1600 0 0 -200 -1600 0z"/>
</svg>