<?xml version="1.0" encoding="UTF-8"?>
<!DOCTYPE svg PUBLIC "-//W3C//DTD SVG 1.1//EN" "http://www.w3.org/Graphics/SVG/1.1/DTD/svg11.dtd">
<svg xmlns="http://www.w3.org/2000/svg" xml:space="preserve" width="580px" height="580px" shape-rendering="geometricPrecision" text-rendering="geometricPrecision" image-rendering="optimizeQuality" fill-rule="nonzero" clip-rule="nonzero" viewBox="0 0 5800 5800" xmlns:xlink="http://www.w3.org/1999/xlink">
	<title>chart_column_stacked icon</title>
	<desc>chart_column_stacked icon from the IconExperience.com I-Collection. Copyright by INCORS GmbH (www.incors.com).</desc>
		<path id="curve28"  d="M500 700l0 4600 4600 0 0 200 -4800 0 0 -4800 200 0zm4500 2000l0 2400c-233,0 -467,0 -700,0l0 -2400c233,0 467,0 700,0zm-900 800l0 1600 -700 0 0 -1600c233,0 467,0 700,0zm-900 600l0 1000c-233,0 -467,0 -700,0l0 -1000c233,0 467,0 700,0zm-1500 -800l500 0 100 0 0 100 0 1700c-233,0 -467,0 -700,0l0 -1700 0 -100 100 0zm-300 400l0 1400c-233,0 -467,0 -700,0l0 -1400c233,0 467,0 700,0zm3600 -3000l0 1800c-233,0 -467,0 -700,0l0 -1800c233,0 467,0 700,0zm-200 200l-300 0 0 1400 300 0 0 -1400zm-700 -200l0 2600c-233,0 -467,0 -700,0l0 -2600c233,0 467,0 700,0zm-200 200l-300 0 0 2200 300 0 0 -2200zm-700 -200l0 3200c-233,0 -467,0 -700,0l0 -3200c233,0 467,0 700,0zm-200 200l-300 0 0 2800 300 0 0 -2800zm-700 -200l0 2300 0 100 -100 0 -500 0 -100 0 0 -100 0 -2300c233,0 467,0 700,0zm-200 200l-300 0 0 2000 300 0 0 -2000zm-700 -200l0 2800c-233,0 -467,0 -700,0l0 -2800c233,0 467,0 700,0zm-200 200l-300 0 0 2400 300 0 0 -2400z"/>
</svg>