<?xml version="1.0" encoding="UTF-8"?>
<!DOCTYPE svg PUBLIC "-//W3C//DTD SVG 1.1//EN" "http://www.w3.org/Graphics/SVG/1.1/DTD/svg11.dtd">
<svg xmlns="http://www.w3.org/2000/svg" xml:space="preserve" width="580px" height="580px" shape-rendering="geometricPrecision" text-rendering="geometricPrecision" image-rendering="optimizeQuality" fill-rule="nonzero" clip-rule="nonzero" viewBox="0 0 5800 5800" xmlns:xlink="http://www.w3.org/1999/xlink">
	<title>chart_bar icon</title>
	<desc>chart_bar icon from the IconExperience.com I-Collection. Copyright by INCORS GmbH (www.incors.com).</desc>
		<path id="curve28"  d="M500 700l0 4600 4600 0 0 200 -4800 0 0 -4800 200 0zm2400 4100l0 -600c200,0 400,0 600,0 0,300 0,600 0,900l-2800 0c0,-100 0,-200 0,-300l2200 0zm-200 -1000c0,267 0,533 0,800l-2000 0 0 -800 2000 0zm-200 200l-1600 0 0 400 1600 0 0 -400zm800 -700l0 -600c333,0 667,0 1000,0 0,300 0,600 0,900l-3600 0c0,-100 0,-200 0,-300l2600 0zm-200 -1000c0,267 0,533 0,800l-2400 0 0 -800 2400 0zm-200 200l-2000 0 0 400 2000 0 0 -400zm1000 -700l0 -600 1200 0c0,300 0,600 0,900l-4400 0c0,-100 0,-200 0,-300l3200 0zm-200 -1000c0,267 0,533 0,800l-3000 0c0,-267 0,-533 0,-800l3000 0zm-200 200l-2600 0 0 400 2600 0 0 -400z"/>
</svg>