<?xml version="1.0" encoding="UTF-8"?>
<!DOCTYPE svg PUBLIC "-//W3C//DTD SVG 1.1//EN" "http://www.w3.org/Graphics/SVG/1.1/DTD/svg11.dtd">
<svg xmlns="http://www.w3.org/2000/svg" xml:space="preserve" width="580px" height="580px" shape-rendering="geometricPrecision" text-rendering="geometricPrecision" image-rendering="optimizeQuality" fill-rule="nonzero" clip-rule="nonzero" viewBox="0 0 5800 5800" xmlns:xlink="http://www.w3.org/1999/xlink">
	<title>chart_candlestick icon</title>
	<desc>chart_candlestick icon from the IconExperience.com I-Collection. Copyright by INCORS GmbH (www.incors.com).</desc>
		<path id="curve28"  d="M300 700l4800 0 0 4800 -4800 0 0 -4800zm3400 2100l-200 0 0 500 -200 0 0 900 200 0 0 400 200 0 0 -400 200 0 0 -900 -200 0 0 -500zm-2600 -500l-200 0 0 1900 200 0 0 600 200 0 0 -600 200 0 0 -1900 -200 0 0 -500 -200 0 0 500zm200 200l-200 0 0 1500 200 0 0 -1500zm600 -1000l-200 0 0 1500 200 0 0 600 200 0 0 -600 200 0 0 -1500 -200 0 0 -700 -200 0 0 700zm200 200l-200 0 0 1100 200 0 0 -1100zm600 900l-200 0 0 1200 200 0 0 500 200 0 0 -500 200 0 0 -1200 -200 0 0 -500 -200 0 0 500zm1600 -500l-200 0 0 1800 200 0 0 300 200 0 0 -300 200 0 0 -1800 -200 0 0 -600 -200 0 0 600zm200 200l-200 0 0 1400 200 0 0 -1400z"/>
</svg>