<?xml version="1.0" encoding="UTF-8"?>
<!DOCTYPE svg PUBLIC "-//W3C//DTD SVG 1.1//EN" "http://www.w3.org/Graphics/SVG/1.1/DTD/svg11.dtd">
<svg xmlns="http://www.w3.org/2000/svg" xml:space="preserve" width="580px" height="580px" shape-rendering="geometricPrecision" text-rendering="geometricPrecision" image-rendering="optimizeQuality" fill-rule="nonzero" clip-rule="nonzero" viewBox="0 0 5800 5800" xmlns:xlink="http://www.w3.org/1999/xlink">
	<title>chart_line icon</title>
	<desc>chart_line icon from the IconExperience.com I-Collection. Copyright by INCORS GmbH (www.incors.com).</desc>
		<path id="curve28" d="M5100 1123l-695 1390 -522 -939 -539 1077 -560 -561 -561 1122 -588 -588 -588 588 -347 -691 0 -444 401 798 534 -534 534 534 560 -1122 561 561 584 -1167 521 940 705 -1410 0 446zm0 1808l-663 626 -532 -532 -561 1122 -560 -561 -561 1122 -588 -588 -558 558 -377 -350 0 -271 371 344 564 -564 534 534 560 -1122 561 561 561 -1122 590 590 659 -621 0 274zm-4600 -2231c0,1533 0,3067 0,4600l4600 0 0 200 -4800 0 0 -4800 200 0z"/>
</svg>