<?xml version="1.0" encoding="UTF-8"?>
<!DOCTYPE svg PUBLIC "-//W3C//DTD SVG 1.1//EN" "http://www.w3.org/Graphics/SVG/1.1/DTD/svg11.dtd">
<svg xmlns="http://www.w3.org/2000/svg" xml:space="preserve" width="580px" height="580px" shape-rendering="geometricPrecision" text-rendering="geometricPrecision" image-rendering="optimizeQuality" fill-rule="nonzero" clip-rule="nonzero" viewBox="0 0 5800 5800" xmlns:xlink="http://www.w3.org/1999/xlink">
	<title>chart_radar icon</title>
	<desc>chart_radar icon from the IconExperience.com I-Collection. Copyright by INCORS GmbH (www.incors.com).</desc>
		<path id="curve28" d="M2906 2298l623 -104 785 673 -328 1094 -1074 752 -1312 -547 0 -1298 560 -783 746 213zm1480 -873l317 1479 -431 1402 -544 -42 257 -181 143 11 369 -1198 -283 -1321 -1314 -469 -1318 471 -368 1287 286 229 0 254 -514 -411 432 -1513 1482 -529 1486 531zm-1284 2791l-228 -18 -828 -414 -146 -117 0 -254 254 203 772 386 434 33 -258 181zm-202 -3700l-1686 698 -698 1686 698 1686 1686 698 1686 -698 698 -1686 -698 -1686 -1686 -698zm0 -216l1838 762 762 1838 -762 1838 -1838 762 -1838 -762 -762 -1838 762 -1838 1838 -762zm571 2106l-577 96 -654 -187 -440 617 0 1102 1088 453 926 -649 272 -905 -615 -527z"/>
</svg>