<?xml version="1.0" encoding="UTF-8"?>
<!DOCTYPE svg PUBLIC "-//W3C//DTD SVG 1.1//EN" "http://www.w3.org/Graphics/SVG/1.1/DTD/svg11.dtd">
<svg xmlns="http://www.w3.org/2000/svg" xml:space="preserve" width="580px" height="580px" shape-rendering="geometricPrecision" text-rendering="geometricPrecision" image-rendering="optimizeQuality" fill-rule="nonzero" clip-rule="nonzero" viewBox="0 0 5800 5800" xmlns:xlink="http://www.w3.org/1999/xlink">
	<title>chart_radar icon</title>
	<desc>chart_radar icon from the IconExperience.com I-Collection. Copyright by INCORS GmbH (www.incors.com).</desc>
		<path id="curve28"  d="M2906 2298l-746 -213 -560 783 0 1298 1312 547 1074 -752 328 -1094 -785 -673 -623 104zm1480 -873l-1486 -531 -1482 529 -432 1513 514 411 0 -254 -286 -229 368 -1287 1318 -471 1314 469 283 1321 -369 1198 -143 -11 -257 181 544 42 431 -1402 -317 -1479zm-1284 2791l258 -181 -434 -33 -772 -386 -254 -203 0 254 146 117 828 414 228 18zm-202 -3916l1838 762 762 1838 -762 1838 -1838 762 -1838 -762 -762 -1838 762 -1838 1838 -762zm571 2106l615 527 -272 905 -926 649 -1088 -453 0 -1102 440 -617 654 187 577 -96z"/>
</svg>