<?xml version="1.0" encoding="UTF-8"?>
<!DOCTYPE svg PUBLIC "-//W3C//DTD SVG 1.1//EN" "http://www.w3.org/Graphics/SVG/1.1/DTD/svg11.dtd">
<svg xmlns="http://www.w3.org/2000/svg" xml:space="preserve" width="580px" height="580px" shape-rendering="geometricPrecision" text-rendering="geometricPrecision" image-rendering="optimizeQuality" fill-rule="nonzero" clip-rule="nonzero" viewBox="0 0 5800 5800" xmlns:xlink="http://www.w3.org/1999/xlink">
	<title>chart_line icon</title>
	<desc>chart_line icon from the IconExperience.com I-Collection. Copyright by INCORS GmbH (www.incors.com).</desc>
		<path id="curve28"  d="M300,700 5089,700 4395,2087 3874,1147 3290,2314 2729,1753 2169,2875 1635,2341 1101,2875 700,2077 700,2521 1047,3212 1635,2624 2223,3212 2784,2090 3344,2651 3883,1574 4405,2513 5100,1123 5100,2657 4441,3278 3851,2688 3290,3810 2729,3249 2169,4371 1635,3837 1071,4401 700,4057 700,4328 1077,4678 1635,4120 2223,4708 2784,3586 3344,4147 3905,3025 4437,3557 5100,2931 5100,5500 300,5500z"/>
</svg>