<?xml version="1.0" encoding="UTF-8"?>
<!DOCTYPE svg PUBLIC "-//W3C//DTD SVG 1.1//EN" "http://www.w3.org/Graphics/SVG/1.1/DTD/svg11.dtd">
<svg xmlns="http://www.w3.org/2000/svg" xml:space="preserve" width="580px" height="580px" shape-rendering="geometricPrecision" text-rendering="geometricPrecision" image-rendering="optimizeQuality" fill-rule="nonzero" clip-rule="nonzero" viewBox="0 0 5800 5800" xmlns:xlink="http://www.w3.org/1999/xlink">
	<title>chart_renko icon</title>
	<desc>chart_renko icon from the IconExperience.com I-Collection. Copyright by INCORS GmbH (www.incors.com).</desc>
		<path id="curve28"  d="M300 700l4800 0 0 4800 -4800 0 0 -4800zm1100 1800c-233,0 -467,0 -700,0l0 1000c233,0 467,0 700,0l0 -1000zm-200 200l-300 0 0 600 300 0 0 -600zm1100 800c-233,0 -467,0 -700,0l0 1000c233,0 467,0 700,0l0 -1000zm-200 200l-300 0 0 600 300 0 0 -600zm1100 -1200c-233,0 -467,0 -700,0l0 1000 700 0 0 -1000zm900 -1000c-233,0 -467,0 -700,0l0 1000c233,0 467,0 700,0l0 -1000zm900 1000c-233,0 -467,0 -700,0l0 1000c233,0 467,0 700,0l0 -1000zm-200 200l-300 0 0 600 300 0 0 -600z"/>
</svg>