<?xml version="1.0" encoding="UTF-8"?>
<!DOCTYPE svg PUBLIC "-//W3C//DTD SVG 1.1//EN" "http://www.w3.org/Graphics/SVG/1.1/DTD/svg11.dtd">
<svg xmlns="http://www.w3.org/2000/svg" xml:space="preserve" width="580px" height="580px" shape-rendering="geometricPrecision" text-rendering="geometricPrecision" image-rendering="optimizeQuality" fill-rule="nonzero" clip-rule="nonzero" viewBox="0 0 5800 5800" xmlns:xlink="http://www.w3.org/1999/xlink">
	<title>chart_donut icon</title>
	<desc>chart_donut icon from the IconExperience.com I-Collection. Copyright by INCORS GmbH (www.incors.com).</desc>
		<path id="curve28"  d="M2900 300c1354,0 2485,1042 2592,2392l8 108c-500,0 -1001,0 -1501,0l-14 -84c-89,-529 -549,-916 -1085,-916 -109,0 -218,16 -321,47l-81 25 -671 -1343 100 -40c309,-125 640,-189 973,-189zm2592 2808c-101,1270 -1114,2283 -2384,2384l-108 8 0 -1501 84 -14c460,-77 824,-441 901,-901l14 -84 1501 0 -8 108zm-327 192l-923 0c-134,451 -491,808 -942,942l0 923c950,-166 1699,-915 1865,-1865zm-2665 1865l0 -923c-587,-174 -1000,-717 -1000,-1342 0,-391 161,-758 442,-1021l-413 -825c-581,431 -929,1113 -929,1846 0,1124 812,2075 1900,2265zm300 335l-108 -8c-1350,-107 -2392,-1238 -2392,-2592 0,-911 476,-1753 1255,-2225l92 -56 672 1343 -68 50c-284,208 -451,536 -451,888 0,536 387,996 916,1085l84 14 0 1501z"/>
</svg>