<?xml version="1.0" encoding="UTF-8"?>
<!DOCTYPE svg PUBLIC "-//W3C//DTD SVG 1.1//EN" "http://www.w3.org/Graphics/SVG/1.1/DTD/svg11.dtd">
<svg xmlns="http://www.w3.org/2000/svg" xml:space="preserve" width="580px" height="580px" shape-rendering="geometricPrecision" text-rendering="geometricPrecision" image-rendering="optimizeQuality" fill-rule="nonzero" clip-rule="nonzero" viewBox="0 0 5800 5800" xmlns:xlink="http://www.w3.org/1999/xlink">
	<title>chart_bar icon</title>
	<desc>chart_bar icon from the IconExperience.com I-Collection. Copyright by INCORS GmbH (www.incors.com).</desc>
		<path id="curve28"  d="M3700 800l0 800 -3000 0 0 -800 3000 0zm-3400 -100l0 4800 4800 0 0 -3400 -4400 0 0 -300 3200 0 0 -600 1200 0 0 -500 -4800 0zm3200 300l-2600 0 0 400 2600 0 0 -400zm-400 1300l0 800 -2400 0 0 -800 2400 0zm-200 200l-2000 0 0 400 2000 0 0 -400zm400 800l0 -600 1000 0 0 900 -3600 0 0 -300 2600 0zm-600 500l0 800 -2000 0 0 -800 2000 0zm-200 200l-1600 0 0 400 1600 0 0 -400zm400 800l0 -600 600 0 0 900 -2800 0 0 -300 2200 0z"/>
</svg>