<?xml version="1.0" encoding="UTF-8"?>
<!DOCTYPE svg PUBLIC "-//W3C//DTD SVG 1.1//EN" "http://www.w3.org/Graphics/SVG/1.1/DTD/svg11.dtd">
<svg xmlns="http://www.w3.org/2000/svg" xml:space="preserve" width="580px" height="580px" shape-rendering="geometricPrecision" text-rendering="geometricPrecision" image-rendering="optimizeQuality" fill-rule="nonzero" clip-rule="nonzero" viewBox="0 0 5800 5800" xmlns:xlink="http://www.w3.org/1999/xlink">
	<title>chart_hi_lo icon</title>
	<desc>chart_hi_lo icon from the IconExperience.com I-Collection. Copyright by INCORS GmbH (www.incors.com).</desc>
		<path id="curve28"  d="M500 700l0 4600 4600 0 0 200 -4800 0 0 -4800 200 0zm4500 2800c0,200 0,400 0,600l-700 0c0,-200 0,-400 0,-600 200,0 500,0 700,0zm-900 0c0,367 0,733 0,1100 -233,0 -467,0 -700,0 0,-367 0,-733 0,-1100 233,0 467,0 700,0zm-900 600c0,233 0,467 0,700 -233,0 -467,0 -700,0 0,-233 0,-467 0,-700 233,0 467,0 700,0zm-900 -800l0 1100 -700 0 0 -1100 700 0zm-900 400c0,367 0,733 0,1100 -233,0 -467,0 -700,0 0,-367 0,-733 0,-1100 233,0 467,0 700,0zm3600 -3000l0 1600c-233,0 -467,0 -700,0l0 -1600c233,0 467,0 700,0zm-200 200l-300 0 0 1200 300 0 0 -1200zm-700 900l0 1300c-233,0 -467,0 -700,0l0 -1300c233,0 467,0 700,0zm-200 200l-300 0 0 900 300 0 0 -900zm-700 -1000l0 1900c-233,0 -467,0 -700,0l0 -1900 700 0zm-200 200l-300 0 0 1500 300 0 0 -1500zm-700 200l0 1200 -700 0 0 -1200 700 0zm-200 200l-300 0 0 800 300 0 0 -800zm-700 300c0,333 0,667 0,1000l-700 0c0,-333 0,-667 0,-1000l700 0zm-200 200l-300 0 0 600 300 0 0 -600z"/>
</svg>