<?xml version="1.0" encoding="UTF-8"?>
<!DOCTYPE svg PUBLIC "-//W3C//DTD SVG 1.1//EN" "http://www.w3.org/Graphics/SVG/1.1/DTD/svg11.dtd">
<svg xmlns="http://www.w3.org/2000/svg" xml:space="preserve" width="580px" height="580px" shape-rendering="geometricPrecision" text-rendering="geometricPrecision" image-rendering="optimizeQuality" fill-rule="nonzero" clip-rule="nonzero" viewBox="0 0 5800 5800" xmlns:xlink="http://www.w3.org/1999/xlink">
	<title>chart_area icon</title>
	<desc>chart_area icon from the IconExperience.com I-Collection. Copyright by INCORS GmbH (www.incors.com).</desc>
		<path id="curve28"  d="M300,700 5089,700 4395,2087 3874,1147 3290,2314 2729,1753 2169,2875 1635,2341 1101,2875 700,2077 700,2521 1047,3212 1635,2624 2223,3212 2784,2090 3344,2651 3883,1574 4405,2513 5100,1123 5100,2800 4439,3417 3878,2857 3317,3978 2757,3417 2196,4539 1635,3978 1074,4539 700,4165 700,5100 5100,5100 5100,5500 300,5500z"/>
</svg>