<?xml version="1.0" encoding="UTF-8"?>
<!DOCTYPE svg PUBLIC "-//W3C//DTD SVG 1.1//EN" "http://www.w3.org/Graphics/SVG/1.1/DTD/svg11.dtd">
<svg xmlns="http://www.w3.org/2000/svg" xml:space="preserve" width="580px" height="580px" shape-rendering="geometricPrecision" text-rendering="geometricPrecision" image-rendering="optimizeQuality" fill-rule="nonzero" clip-rule="nonzero" viewBox="0 0 5800 5800" xmlns:xlink="http://www.w3.org/1999/xlink">
	<title>chart_hi_lo icon</title>
	<desc>chart_hi_lo icon from the IconExperience.com I-Collection. Copyright by INCORS GmbH (www.incors.com).</desc>
		<path id="curve28"  d="M1400 1900l-700 0 0 1000 700 0 0 -1000zm-1100 -1200l4000 0 0 1600 700 0 0 -1600 100 0 0 4800 -4800 0 0 -4800zm900 1400l-300 0 0 600 300 0 0 -600zm1100 -700l-700 0 0 1200 700 0 0 -1200zm-200 200l-300 0 0 800 300 0 0 -800zm1100 -600l-700 0 0 1900 700 0 0 -1900zm-200 200l-300 0 0 1500 300 0 0 -1500zm1100 600l-700 0 0 1300 700 0 0 -1300zm-200 200l-300 0 0 900 300 0 0 -900zm900 -1100l-300 0 0 1200 300 0 0 -1200zm-3400 2800l-700 0 0 100 0 1000 700 0 0 -1100zm900 -400l-700 0 0 1100 700 0 0 -1100zm900 800l-700 0 0 700 700 0 0 -700zm900 -600l-700 0 0 1100 700 0 0 -1100zm900 0l-700 0 0 600 700 0 0 -600z"/>
</svg>