<?xml version="1.0" encoding="UTF-8"?>
<!DOCTYPE svg PUBLIC "-//W3C//DTD SVG 1.1//EN" "http://www.w3.org/Graphics/SVG/1.1/DTD/svg11.dtd">
<svg xmlns="http://www.w3.org/2000/svg" xml:space="preserve" width="580px" height="580px" shape-rendering="geometricPrecision" text-rendering="geometricPrecision" image-rendering="optimizeQuality" fill-rule="nonzero" clip-rule="nonzero" viewBox="0 0 5800 5800" xmlns:xlink="http://www.w3.org/1999/xlink">
	<title>chart_gantt icon</title>
	<desc>chart_gantt icon from the IconExperience.com I-Collection. Copyright by INCORS GmbH (www.incors.com).</desc>
		<path id="curve28"  d="M1700 3130l-200 165c0,-199 0,-397 0,-595l2400 0c0,214 0,428 0,641l-200 -200c0,-80 0,-161 0,-241l-2000 0c0,77 0,153 0,230zm-1200 -2430l0 4600 4600 0 0 200 -4800 0 0 -4800 200 0zm3400 4000l1200 0 0 200 -1200 0 0 -200zm0 -400l1200 0 0 200 -1200 0 0 -200zm-1200 -400l1200 0 0 200 -1200 0 0 -200zm-1200 -400l1200 0 0 200 -1200 0 0 -200zm800 -1400l2800 0 0 200 -2800 0 0 -200zm-1600 -400l1600 0 0 200 -1600 0 0 -200zm200 -370l-200 165c0,-199 0,-397 0,-595l4400 0c0,214 0,428 0,641l-200 -200c0,-80 0,-161 0,-241l-4000 0 0 230z"/>
</svg>