<?xml version="1.0" encoding="UTF-8"?>
<!DOCTYPE svg PUBLIC "-//W3C//DTD SVG 1.1//EN" "http://www.w3.org/Graphics/SVG/1.1/DTD/svg11.dtd">
<svg xmlns="http://www.w3.org/2000/svg" xml:space="preserve" width="580px" height="580px" shape-rendering="geometricPrecision" text-rendering="geometricPrecision" image-rendering="optimizeQuality" fill-rule="nonzero" clip-rule="nonzero" viewBox="0 0 5800 5800" xmlns:xlink="http://www.w3.org/1999/xlink">
	<title>chart_column_stacked icon</title>
	<desc>chart_column_stacked icon from the IconExperience.com I-Collection. Copyright by INCORS GmbH (www.incors.com).</desc>
		<path id="curve28"  d="M300 700l400 0 0 2800c233,0 467,0 700,0l0 -2800 200 0 0 2400c233,0 467,0 700,0l0 -2400 200 0 0 3200c233,0 467,0 700,0l0 -3200 200 0 0 2600c233,0 467,0 700,0l0 -2600 200 0 0 1800c233,0 467,0 700,0l0 -1800 100 0 0 4800 -4800 0 0 -4800zm900 200l-300 0 0 2400 300 0 0 -2400zm900 0l-300 0 0 2000 300 0 0 -2000zm900 0l-300 0 0 2800 300 0 0 -2800zm900 0l-300 0 0 2200 300 0 0 -2200zm900 0l-300 0 0 1400 300 0 0 -1400zm200 1800c-233,0 -467,0 -700,0l0 2400c233,0 467,0 700,0l0 -2400zm-3600 1000c-233,0 -467,0 -700,0l0 1400c233,0 467,0 700,0l0 -1400zm900 -400c-233,0 -467,0 -700,0l0 1800c233,0 467,0 700,0l0 -1800zm900 800c-233,0 -467,0 -700,0l0 1000c233,0 467,0 700,0l0 -1000zm900 -600c-233,0 -467,0 -700,0l0 1600 700 0 0 -1600z"/>
</svg>