<?xml version="1.0" encoding="UTF-8"?>
<!DOCTYPE svg PUBLIC "-//W3C//DTD SVG 1.1//EN" "http://www.w3.org/Graphics/SVG/1.1/DTD/svg11.dtd">
<svg xmlns="http://www.w3.org/2000/svg" xml:space="preserve" width="580px" height="580px" shape-rendering="geometricPrecision" text-rendering="geometricPrecision" image-rendering="optimizeQuality" fill-rule="nonzero" clip-rule="nonzero" viewBox="0 0 5800 5800" xmlns:xlink="http://www.w3.org/1999/xlink">
	<title>checkbook icon</title>
	<desc>checkbook icon from the IconExperience.com I-Collection. Copyright by INCORS GmbH (www.incors.com).</desc>
	<path id="curve0"  d="M3847 1207l682 683 38 -37c549,-548 642,-708 748,-893 15,-25 30,-52 56,-94 49,-80 35,-184 -31,-250l-149 -148c-66,-67 -169,-80 -249,-32 0,2 -85,50 -93,55 -105,61 -201,116 -360,249 -54,45 -125,66 -194,66l-188 0c-5,0 -43,2 -45,4l-905 906c24,31 36,69 36,106 0,97 -79,176 -176,176 -97,0 -176,-79 -176,-176 0,-45 17,-90 51,-124 86,-86 1029,-1029 1029,-1028 50,-50 118,-63 186,-63l188 0c20,0 51,-7 67,-20 173,-145 276,-204 387,-269 9,-5 89,-52 90,-52 159,-96 362,-72 494,60l148 149c132,132 157,334 60,494 -14,23 -34,58 -53,91 -114,197 -212,367 -781,934l-1224 1221c-257,256 -591,502 -876,658 -299,163 -563,226 -677,112l-107 -108c-117,-117 -52,-389 117,-697 153,-277 387,-595 636,-843l214 -215c62,47 134,72 208,76l-281 280c-134,135 -265,291 -379,449l539 538c164,-118 326,-253 465,-392l1046 -1042 -682 -682 141 -142zm-1623 1888c-40,61 -76,122 -109,181 -126,231 -195,415 -151,460l108 107c42,42 217,-24 439,-145 64,-35 131,-75 198,-118l-485 -485zm-1224 -195l757 0c-40,65 -78,132 -113,200l-670 0 -540 1800 4932 0 -540 -1800 -804 0 200 -200 578 0 0 -576 118 -118c29,-28 56,-55 82,-82l0 862 596 1985c19,65 -30,129 -96,129l-5200 0c-70,0 -117,-70 -94,-134l594 -1980 0 -2386c0,-55 45,-100 100,-100l2766 0 -200 200 -2466 0 0 2200zm3540 400c47,0 87,33 97,77l282 939c13,44 -6,90 -43,113l-355 252c-17,13 -38,19 -58,19l0 0 -3126 0c-25,0 -47,-9 -64,-23l-354 -251c-36,-26 -50,-70 -38,-110l283 -945c13,-43 53,-71 96,-71l295 0c-26,68 -47,135 -61,200l-160 0 -241 805 275 195 3064 0 275 -195 -241 -805 -848 0c69,-65 136,-133 203,-200l719 0zm-2641 796l-92 92c-53,53 -141,53 -195,0 -53,-54 -53,-142 0,-195l92 -92c65,65 130,130 195,195z"/>
</svg>