<?xml version="1.0" encoding="UTF-8"?>
<!DOCTYPE svg PUBLIC "-//W3C//DTD SVG 1.1//EN" "http://www.w3.org/Graphics/SVG/1.1/DTD/svg11.dtd">
<svg xmlns="http://www.w3.org/2000/svg" xml:space="preserve" width="580px" height="580px" shape-rendering="geometricPrecision" text-rendering="geometricPrecision" image-rendering="optimizeQuality" fill-rule="nonzero" clip-rule="nonzero" viewBox="0 0 5800 5800" xmlns:xlink="http://www.w3.org/1999/xlink">
	<title>checkbook icon</title>
	<desc>checkbook icon from the IconExperience.com I-Collection. Copyright by INCORS GmbH (www.incors.com).</desc>
	<path id="curve0"  d="M2892 1946c-68,-68 -68,-180 0,-248 86,-86 1029,-1029 1029,-1028 50,-50 118,-63 186,-63l188 0c20,0 51,-7 67,-20 173,-145 276,-204 387,-269 116,-67 196,-126 347,-108 87,11 171,50 237,116l148 149c132,132 157,334 60,494 -14,23 -34,58 -53,91 -219,379 -509,664 -817,971l-773 -773 457 -457c-19,3 -39,5 -60,5l-188 0c-17,0 -38,-2 -44,4 -302,302 -604,604 -906,906 53,69 46,169 -16,231 -68,68 -180,68 -249,-1zm391 142c84,-85 123,-203 106,-321l367 -367 773 772 -1046 1043c-139,138 -300,273 -463,393l-824 -824c115,-158 245,-313 380,-447l214 -215c149,113 360,99 493,-34zm-430 1636c-84,55 -167,106 -246,149 -299,163 -563,226 -677,112l-107 -108c-117,-117 -52,-389 117,-697 41,-74 88,-151 140,-230l773 774zm2181 -624l562 1871c19,65 -30,129 -96,129l-5200 0c-70,0 -117,-70 -94,-134l560 -1866 991 0c-37,68 -69,135 -95,200l-402 0c-43,0 -83,28 -96,71l-283 945 0 0c-12,40 2,84 38,110l354 251c17,14 39,23 64,23l3126 0c20,0 41,-6 58,-19l355 -252c37,-23 56,-69 43,-113l-282 -939c-10,-44 -50,-77 -97,-77l-860 0 200 -200 1154 0zm-2992 1136c184,16 417,-55 660,-188 247,-135 527,-333 769,-548l995 0 241 805 -275 195 -3064 0 -275 -195 241 -805 262 0c-22,90 -32,176 -26,253l-99 98c-132,132 -131,348 0,478 132,132 347,131 478,0l93 -93zm708 -2679c-105,106 -138,267 -82,405l-234 234c-207,207 -406,461 -560,704l-1074 0 0 -2300c0,-55 45,-100 100,-100l2912 0c-11,9 -22,18 -32,29l-1030 1028zm2250 425l0 918 -919 0c306,-305 617,-609 919,-918zm-3101 2114l-92 92c-53,53 -141,53 -195,0 -53,-54 -53,-142 0,-195l92 -92c65,65 130,130 195,195z"/>
</svg>