<?xml version="1.0" encoding="utf-8"?>
<!-- Generator: Adobe Illustrator 19.2.1, SVG Export Plug-In . SVG Version: 6.00 Build 0)  -->
<svg version="1.1" id="Ebene_1" xmlns="http://www.w3.org/2000/svg" xmlns:xlink="http://www.w3.org/1999/xlink" x="0px" y="0px"
	 width="580px" height="580px" viewBox="0 0 580 580" style="enable-background:new 0 0 580 580;" xml:space="preserve">
<g>
	<path d="M11,265h200V65H11V265z M31,86h160v160H31V86z"/>
	<path d="M259,115v100h310V115H259z M549,195H279v-60h270V195z"/>
	<polygon points="101.5,186.6 79.5,159.1 63.9,171.6 103.7,221.4 158.1,131.8 141,121.4 	"/>
	<path d="M11,515h200V315H11V515z M31,336h160v160H31V336z"/>
	<path d="M259,465h310V365H259V465z M279,385h270v60H279V385z"/>
	<polygon points="101.5,435.9 79.5,408.4 63.9,420.9 103.7,470.8 158.1,381.2 141,370.8 	"/>
</g>
</svg>
