<?xml version="1.0" encoding="UTF-8"?>
<!DOCTYPE svg PUBLIC "-//W3C//DTD SVG 1.1//EN" "http://www.w3.org/Graphics/SVG/1.1/DTD/svg11.dtd">
<svg xmlns="http://www.w3.org/2000/svg" xml:space="preserve" width="580px" height="580px" shape-rendering="geometricPrecision" text-rendering="geometricPrecision" image-rendering="optimizeQuality" fill-rule="nonzero" clip-rule="nonzero" viewBox="0 0 1024 1024" xmlns:xlink="http://www.w3.org/1999/xlink">
	<path d="M946.5,551.6l-92.6-446.4c-1.8-8.5-8-15.4-16.3-18.1c-8.3-2.6-17.3-0.5-23.7,5.4c-0.2,0.1-15.6,14.5-42.8,29
		c-24.7,13.2-64.4,29.4-113.8,31.5c-20.2,0.9-50.4-10.3-85.4-23.2c-69-25.4-163.4-60.2-273.1-36.2c-64.9,14.2-132.3,45-162.6,59.8
		l-1.6-7.3c-4.4-19-9.9-29.5-17.7-34.2c-5.1-3-11.2-3.5-18.7-1.5c-14.5,4-20.9,16.7-17.6,34.8l0,0.1l162.9,782
		c2.7,17.5,9,29.1,18.8,34.7c4.6,2.6,9.3,3.5,13.7,3.5c5.9,0,11.2-1.7,14.6-3.1c18.9-7.8,16.6-31,11.9-52.7l-49.6-225.6
		c22.4-12.7,100.2-54.2,196.8-74.3c64.1-13.3,111,1.6,165.4,19c39.7,12.7,84.8,27,141.2,31.4c7.4,0.6,14.5,0.8,21.3,0.8
		c62.9,0,103.4-22.6,127.1-42.7c28.8-24.4,39.4-50.4,40.5-53.3C947,560.8,947.4,556.1,946.5,551.6z M771.5,454.7l-32.8-144.2
		L839.1,270l30.6,147.5L771.5,454.7z M440,562.9c-6.2,1.3-12.3,2.7-18.3,4.1l-32.8-135.3c0,0-26.6,1.7-84,20
		c-11.9,3.8-55.9,19.5-85.7,30.2l-32.3-152.6c11.8-4.6,41.6-14.6,77.5-26.7c30.3-10.2,89.6-20.5,89.6-20.5L319,138.7
		c40.2-7.4,78.2-5.9,113.5,0.1l42.8,132.4l123.1,35.8l-32.5-128c35.4,12.9,66.3,23.3,93.4,22.2c17.3-0.7,33.6-2.9,48.8-6
		l29.7,114.1c-3.6,0.9-29.8,7.3-64.8,10c-32.9,2.5-74.6-12.3-74.6-12.3L635.1,451l-119.3-31.7l-41.2-148.2c0,0-42.4-5.8-77.4-0.8
		c-34.9,5-43.3,11.6-43.3,11.6l34.9,149.7c0,0,21-7.4,60.7-11.6c36.6-3.9,62.7,0.2,66.2,0.8l38.7,141.5
		C520.3,555.6,483.6,553.8,440,562.9z M760.1,612.4c-30.6-2.4-57.5-8-82.5-14.8l-41.7-145c4.7,0.8,47.3,7.8,72,8.6
		c42.8,1.4,61.9-5.1,63.6-5.7l36.8,155.2C794.3,613,778.3,613.8,760.1,612.4z"/>
</svg>
