<?xml version="1.0" encoding="UTF-8"?>
<!DOCTYPE svg PUBLIC "-//W3C//DTD SVG 1.1//EN" "http://www.w3.org/Graphics/SVG/1.1/DTD/svg11.dtd">
<svg xmlns="http://www.w3.org/2000/svg" xml:space="preserve" width="580px" height="580px" shape-rendering="geometricPrecision" text-rendering="geometricPrecision" image-rendering="optimizeQuality" fill-rule="nonzero" clip-rule="nonzero" viewBox="0 0 5800 5800" xmlns:xlink="http://www.w3.org/1999/xlink">
	<title>chess_piece_rook icon</title>
	<desc>chess_piece_rook icon from the IconExperience.com I-Collection. Copyright by INCORS GmbH (www.incors.com).</desc>
		<path id="curve28" d="M3600 2500c7,425 58,867 142,1238 83,367 197,659 329,791l29 30 0 141 200 0 0 800 -2800 0 0 -800 200 0 0 -141 29 -30c132,-132 246,-424 329,-791 84,-371 135,-813 142,-1238l-200 0c-165,0 -300,-135 -300,-300l0 -900 700 0 0 300 100 0 0 -300c267,0 533,0 800,0l0 300 100 0 0 -300c233,0 467,0 700,0l0 900c0,165 -135,300 -300,300l-200 0zm500 2400l-2400 0 0 400 2400 0 0 -400zm-300 -2600c55,0 100,-45 100,-100l0 -700 -300 0 0 300c-167,0 -333,0 -500,0l0 -300 -400 0 0 300c-167,0 -333,0 -500,0l0 -300 -300 0 0 700c0,55 45,100 100,100 0,1 1800,1 1800,0zm-399 200l-1002 0c-7,441 -59,898 -147,1282 -85,377 -206,688 -352,857l0 61 2000 0 0 -61c-146,-169 -267,-480 -352,-857 -88,-384 -140,-841 -147,-1282z"/>
</svg>