<?xml version="1.0" encoding="UTF-8"?>
<!DOCTYPE svg PUBLIC "-//W3C//DTD SVG 1.1//EN" "http://www.w3.org/Graphics/SVG/1.1/DTD/svg11.dtd">
<svg xmlns="http://www.w3.org/2000/svg" xml:space="preserve" width="580px" height="580px" shape-rendering="geometricPrecision" text-rendering="geometricPrecision" image-rendering="optimizeQuality" fill-rule="nonzero" clip-rule="nonzero" viewBox="0 0 5800 5800" xmlns:xlink="http://www.w3.org/1999/xlink">
	<title>chess_piece_queen icon</title>
	<desc>chess_piece_queen icon from the IconExperience.com I-Collection. Copyright by INCORS GmbH (www.incors.com).</desc>
		<path id="curve28"  d="M1700 4700l0 -141 29 -30c138,-137 278,-495 387,-929 102,-410 173,-882 182,-1300l-398 0 0 -600 162 0 -157 -469c-59,-179 27,-264 149,-305 63,-21 134,-25 190,-26 108,-156 311,-248 494,-283 -24,-33 -38,-73 -38,-117 0,-110 90,-200 200,-200 110,0 200,90 200,200 0,44 -14,84 -38,117 183,35 386,127 494,283 56,1 127,5 190,26 123,41 208,126 149,305l-157 469 162 0 0 600 -399 0c9,417 80,889 182,1299 109,434 250,793 388,930l29 30 0 141 300 0 0 800 -3000 0 0 -800 300 0zm2000 -2600l0 -200 -238 0 243 -731c11,-33 -2,-47 -21,-54 -49,-16 -122,-16 -168,-15l-77 0 -28 -55c-80,-161 -344,-245 -511,-245 -167,0 -431,84 -511,245l-28 55 -77 0c-46,-1 -119,-1 -168,15 -19,7 -32,21 -21,54l243 731 -238 0 0 200c533,0 1067,0 1600,0zm-399 200l-804 0c-9,435 -82,924 -188,1348 -109,439 -256,812 -409,991l0 61 2000 0 0 -61c-153,-179 -301,-553 -410,-992 -106,-423 -179,-913 -189,-1347zm899 2600c-867,0 -1733,0 -2600,0l0 400 2600 0 0 -400z"/>
</svg>