<?xml version="1.0" encoding="UTF-8"?>
<!DOCTYPE svg PUBLIC "-//W3C//DTD SVG 1.1//EN" "http://www.w3.org/Graphics/SVG/1.1/DTD/svg11.dtd">
<svg xmlns="http://www.w3.org/2000/svg" xml:space="preserve" width="580px" height="580px" shape-rendering="geometricPrecision" text-rendering="geometricPrecision" image-rendering="optimizeQuality" fill-rule="nonzero" clip-rule="nonzero" viewBox="0 0 5800 5800" xmlns:xlink="http://www.w3.org/1999/xlink">
	<title>chest_open icon</title>
	<desc>chest_open icon from the IconExperience.com I-Collection. Copyright by INCORS GmbH (www.incors.com).</desc>
	<path id="curve0"  d="M2600 2049l0 1637 374 187 1611 -805c-662,-339 -1324,-679 -1985,-1019zm-200 1537l0 -1575 -1575 788 680 340 0 -232 600 300 0 232 295 147zm2705 -2147c163,108 250,292 262,513 10,206 -46,446 -169,685 -32,62 -69,125 -110,187l-183 275 0 1662 -1901 951 -2498 -1282 -6 -1691 1744 -872 -1185 -610c75,-144 139,-239 226,-375 173,-270 419,-483 668,-604 260,-126 529,-155 735,-49 7,4 14,8 20,14l2263 1131c48,16 91,37 134,65zm-400 1791l-1600 800 0 1409 1600 -800 0 -1409zm-3200 131l-805 -402 4 1349 2201 1129 0 -1376 -800 -400 0 369c-200,-100 -400,-200 -600,-300l0 -369zm400 -31l-200 -100 0 377 200 100 0 -377zm-571 -2155l2140 1099 181 -223c209,-257 466,-475 717,-597 59,-28 117,-52 175,-69l-1991 -997c-142,-52 -329,-21 -516,70 -219,106 -435,293 -587,531l-119 186zm3660 430c-160,-108 -376,-49 -535,29 -225,109 -458,308 -649,543l-155 190 1116 572 151 -226c36,-54 69,-109 99,-167 106,-208 155,-412 146,-584 -8,-157 -66,-285 -173,-357z"/>
</svg>