<?xml version="1.0" encoding="UTF-8"?>
<!DOCTYPE svg PUBLIC "-//W3C//DTD SVG 1.1//EN" "http://www.w3.org/Graphics/SVG/1.1/DTD/svg11.dtd">
<svg xmlns="http://www.w3.org/2000/svg" xml:space="preserve" width="580px" height="580px" shape-rendering="geometricPrecision" text-rendering="geometricPrecision" image-rendering="optimizeQuality" fill-rule="nonzero" clip-rule="nonzero" viewBox="0 0 5800 5800" xmlns:xlink="http://www.w3.org/1999/xlink">
	<title>chest_out icon</title>
	<desc>chest_out icon from the IconExperience.com I-Collection. Copyright by INCORS GmbH (www.incors.com).</desc>
	<path id="curve0"  d="M2105 3661l800 400 -4 1598 -2395 -1229 -5 -1571 1004 502 0 369 600 300 0 -369zm-1005 -2520l0 859c0,275 225,500 500,500l500 0 0 200 -500 0c-386,0 -700,-314 -700,-700l0 -859 -529 530 -142 -142 771 -770 771 770 -142 142 -529 -530zm234 -331c167,-234 388,-419 611,-530 259,-130 525,-162 721,-61l2249 1124c-282,-11 -497,63 -734,221 -187,125 -370,295 -526,487l-310 382c-458,-235 -915,-471 -1373,-706 52,-111 32,-247 -60,-339l-578 -578zm4006 973c74,277 -10,594 -136,842 -81,162 -199,324 -299,474l0 1662 -1805 903 4 -1634 1698 -848 -1276 -656 284 -349c143,-177 311,-333 482,-447 155,-103 310,-170 449,-182 234,-21 486,-1 599,235zm-2366 2090l-374 -187 0 -1412 1761 906 -1387 693zm-574 -1701l0 428c0,166 -134,300 -300,300l-500 0c-281,0 -544,-131 -715,-354l-283 141 903 452 0 -232 600 300 0 232 295 147 0 -986c0,-166 -134,-300 -300,-300l-500 0c-53,0 -103,-14 -146,-38l568 -285 378 195zm-495 1158l-200 -100 0 377 200 100 0 -377z"/>
</svg>