<?xml version="1.0" encoding="UTF-8"?>
<!DOCTYPE svg PUBLIC "-//W3C//DTD SVG 1.1//EN" "http://www.w3.org/Graphics/SVG/1.1/DTD/svg11.dtd">
<svg xmlns="http://www.w3.org/2000/svg" xml:space="preserve" width="580px" height="580px" shape-rendering="geometricPrecision" text-rendering="geometricPrecision" image-rendering="optimizeQuality" fill-rule="nonzero" clip-rule="nonzero" viewBox="0 0 5800 5800" xmlns:xlink="http://www.w3.org/1999/xlink">
	<title>chest_open_full icon</title>
	<desc>chest_open_full icon from the IconExperience.com I-Collection. Copyright by INCORS GmbH (www.incors.com).</desc>
	<path id="curve0" d="M5104 1439c164,108 251,292 263,513 16,304 -112,621 -279,872l-183 275 0 1662 -1901 951 -2498 -1282 -6 -1691 1744 -872 -1185 -610 47 -91c36,-69 138,-220 179,-284 173,-270 419,-483 668,-604 260,-126 529,-155 735,-49 7,4 14,8 20,14l2263 1131c47,15 92,38 133,65zm-3236 1650l190 95c15,-21 34,-40 55,-58 -79,-10 -151,-33 -211,-65 -11,10 -22,19 -34,28zm237 572l0 369 -600 -300 0 -369 -805 -402 4 1349 2201 1129 0 -1376 -800 -400zm-600 -661l0 -93 143 72c36,-11 72,-28 102,-51 -35,-55 -51,-118 -42,-183 -55,-28 -128,-45 -208,-45 -92,0 -173,22 -230,58 -93,58 -93,126 0,184 68,43 155,58 235,58zm2228 -13c75,47 139,114 160,202 107,23 244,11 337,-47 43,-27 70,-60 70,-92 0,-32 -27,-65 -70,-92 -57,-36 -138,-58 -230,-58 -88,0 -202,23 -267,87zm129 400c-15,25 -34,48 -56,70l121 -61c-22,-2 -44,-5 -65,-9zm-379 208c-140,16 -298,-8 -419,-83 -29,-19 -56,-40 -78,-63 -36,19 -86,56 -86,101 0,32 27,65 70,92 57,36 138,58 230,58 89,0 227,-27 283,-105zm-497 272c-106,-34 -212,-101 -260,-204 -36,13 -75,22 -115,29l363 181 12 -6zm-265 -419c17,-41 43,-77 78,-110 -6,-28 -31,-56 -69,-80 -57,-36 -138,-58 -230,-58 -92,0 -173,22 -230,58 -93,58 -93,126 0,184 57,36 138,58 230,58 87,0 164,-20 221,-52zm1778 -424c3,30 0,60 -7,90l93 -46 -86 -44zm-712 -291c31,-10 64,-18 98,-24l-85 -44c-2,24 -6,46 -13,68zm-790 197c-11,-6 -22,-12 -33,-18 -38,-25 -71,-53 -97,-84 -48,-18 -105,-28 -167,-28 -92,0 -173,22 -230,58 -43,27 -70,60 -70,92 0,18 9,37 24,54 136,-14 287,9 405,80 38,-10 73,-24 101,-42 43,-27 70,-60 70,-92 0,-7 -1,-13 -3,-20zm102 -601c10,-3 19,-6 29,-8l-32 -17c1,8 2,17 3,25zm-898 602c8,-119 95,-209 197,-262 -53,-23 -119,-37 -192,-37 -92,0 -173,22 -230,58 -44,26 -70,59 -70,92 0,32 26,65 70,92 56,35 135,57 225,57zm228 -464c16,6 31,12 45,18 39,10 81,15 126,15 92,0 173,-22 230,-58 43,-27 70,-60 70,-92 0,-32 -27,-65 -70,-92 -57,-36 -138,-58 -230,-58 -92,0 -173,22 -230,58 -37,23 -83,64 -67,112 47,25 91,57 126,97zm-625 103c20,-18 42,-35 66,-50 4,-2 7,-4 11,-7 -41,10 -77,25 -107,43 10,4 20,9 30,14zm-304 -70c15,0 30,0 45,1 29,-43 69,-81 119,-113 88,-54 207,-88 336,-88 35,0 70,3 103,7 15,-88 74,-164 161,-219 68,-42 154,-72 250,-83l-50 -25 -1052 525c29,-3 58,-5 88,-5zm-497 388c-2,-13 -3,-25 -3,-38 0,-62 21,-119 59,-168l-234 117 178 89zm1553 -2499c-142,-53 -329,-22 -516,69 -219,106 -435,293 -587,531l-119 186 2140 1099 181 -223c209,-257 466,-475 717,-597 59,-28 117,-52 175,-69l-1991 -996zm2438 1216c-161,-107 -374,-49 -535,29 -225,109 -458,308 -649,543l-155 190 1116 572 151 -226c143,-214 259,-492 245,-751 -8,-157 -66,-285 -173,-357zm-1889 2425l0 1409 1600 -800 0 -1409 -1600 800zm425 -1472c-57,-36 -138,-58 -230,-58 -92,0 -173,22 -230,58 -93,58 -93,126 0,184 57,36 138,58 230,58 92,0 173,-22 230,-58 93,-58 93,-126 0,-184zm100 600c-57,-36 -138,-58 -230,-58 -92,0 -173,22 -230,58 -93,58 -93,126 0,184 57,36 138,58 230,58 92,0 173,-22 230,-58 93,-58 93,-126 0,-184zm-1725 172l-200 -100 0 377 200 100 0 -377z"/>
</svg>