<?xml version="1.0" encoding="UTF-8"?>
<!DOCTYPE svg PUBLIC "-//W3C//DTD SVG 1.1//EN" "http://www.w3.org/Graphics/SVG/1.1/DTD/svg11.dtd">
<svg xmlns="http://www.w3.org/2000/svg" xml:space="preserve" width="580px" height="580px" shape-rendering="geometricPrecision" text-rendering="geometricPrecision" image-rendering="optimizeQuality" fill-rule="nonzero" clip-rule="nonzero" viewBox="0 0 5800 5800" xmlns:xlink="http://www.w3.org/1999/xlink">
	<title>chest_into icon</title>
	<desc>chest_into icon from the IconExperience.com I-Collection. Copyright by INCORS GmbH (www.incors.com).</desc>
	<path id="curve0"  d="M1459 2400l-659 0c-386,0 -700,-314 -700,-700l0 -900 200 0 0 900c0,275 225,500 500,500l659 0 -530 -529 142 -142 770 771 -770 771 -142 -142 530 -529zm1141 -351l0 1637 374 187 1611 -805c-662,-339 -1324,-679 -1985,-1019zm-200 1537l0 -1575 -412 206c-22,-77 -58,-111 -113,-166l369 -184 -1185 -610c75,-144 139,-239 226,-375 173,-270 419,-483 668,-604 260,-126 529,-155 735,-49 7,4 14,8 20,14l2263 1131c48,16 91,37 134,65 163,108 250,292 262,513 10,206 -46,446 -169,685 -32,62 -69,125 -110,187l-183 275 0 1662 -1901 951 -2498 -1282 -6 -1691 278 -139c7,0 15,0 22,0l176 0 -188 188c-64,64 -91,139 -88,223l4 1297 2201 1129 0 -1376 -800 -400 0 369c-200,-100 -400,-200 -600,-300l0 -369 -295 -147 149 -148 146 73 0 -220 8 -8 592 296 0 232 295 147zm2305 -356l-1600 800 0 1409 1600 -800 0 -1409zm-2800 100l-200 -100 0 377 200 100 0 -377zm-571 -2155l2140 1099 181 -223c209,-257 466,-475 717,-597 59,-28 117,-52 175,-69l-1991 -997c-142,-52 -329,-21 -516,70 -219,106 -435,293 -587,531l-119 186zm3660 430c-160,-108 -376,-49 -535,29 -225,109 -458,308 -649,543l-155 190 1116 572 151 -226c36,-54 69,-109 99,-167 106,-208 155,-412 146,-584 -8,-157 -66,-285 -173,-357z"/>
</svg>