<?xml version="1.0" encoding="UTF-8"?>
<!DOCTYPE svg PUBLIC "-//W3C//DTD SVG 1.1//EN" "http://www.w3.org/Graphics/SVG/1.1/DTD/svg11.dtd">
<svg xmlns="http://www.w3.org/2000/svg" xml:space="preserve" width="580px" height="580px" shape-rendering="geometricPrecision" text-rendering="geometricPrecision" image-rendering="optimizeQuality" fill-rule="nonzero" clip-rule="nonzero" viewBox="0 0 5800 5800" xmlns:xlink="http://www.w3.org/1999/xlink">
	<title>chess_piece_queen icon</title>
	<desc>chess_piece_queen icon from the IconExperience.com I-Collection. Copyright by INCORS GmbH (www.incors.com).</desc>
		<path id="curve28"  d="M1756 4500c129,-154 258,-494 360,-900 86,-346 150,-736 173,-1100l1221 0c23,364 87,753 173,1099 102,406 232,746 361,901l-2288 0zm144 -2200c0,-200 0,-400 0,-600l162 0 -157 -469c-59,-179 27,-264 149,-305 63,-21 134,-25 190,-26 58,-84 145,-150 242,-199 80,-40 168,-68 252,-84 -24,-33 -38,-73 -38,-117 0,-110 90,-200 200,-200 110,0 200,90 200,200 0,44 -14,84 -38,117 84,16 172,44 252,84 97,49 184,115 242,199 56,1 127,5 190,26 123,41 208,126 149,305l-157 469 162 0c0,200 0,400 0,600l-2000 0zm2500 2400l0 800 -3000 0 0 -800 3000 0z"/>
</svg>