<?xml version="1.0" encoding="UTF-8"?>
<!DOCTYPE svg PUBLIC "-//W3C//DTD SVG 1.1//EN" "http://www.w3.org/Graphics/SVG/1.1/DTD/svg11.dtd">
<svg xmlns="http://www.w3.org/2000/svg" xml:space="preserve" width="580px" height="580px" shape-rendering="geometricPrecision" text-rendering="geometricPrecision" image-rendering="optimizeQuality" fill-rule="nonzero" clip-rule="nonzero" viewBox="0 0 5800 5800" xmlns:xlink="http://www.w3.org/1999/xlink">
	<title>chess_piece_knight icon</title>
	<desc>chess_piece_knight icon from the IconExperience.com I-Collection. Copyright by INCORS GmbH (www.incors.com).</desc>
		<path id="curve28" d="M1702 4552c5,-38 18,-71 52,-91 278,-167 523,-458 666,-782 130,-293 174,-611 79,-882l-500 803c-27,43 -69,69 -115,80 -45,10 -94,4 -135,-15l-514 -244c-37,-18 -67,-45 -86,-78 -20,-34 -28,-73 -24,-115l173 -1640c8,-72 -5,-136 -39,-200l-71 -135c-41,-66 6,-153 85,-153l1027 0c545,0 1002,119 1319,384 295,246 464,614 464,1123 0,375 -119,722 -159,1090 -30,269 -4,541 133,780 18,32 43,75 43,115l0 108 200 0 0 800 -2800 0 0 -800 200 0c0,-47 -3,-102 2,-148zm-2 348l0 400 2400 0 0 -400 -2400 0zm200 -295l0 95 2000 0 0 -108c0,-13 -9,-4 -16,-15 -158,-276 -193,-590 -159,-902 40,-358 158,-705 158,-1068 0,-444 -143,-762 -392,-970 -278,-233 -692,-337 -1191,-337l-861 0c50,98 69,199 58,308l-173 1634 512 243 603 -971c46,-73 156,-57 180,25l68 193c114,322 65,692 -84,1028 -151,343 -408,654 -703,845z"/>
</svg>