<?xml version="1.0" encoding="UTF-8"?>
<!DOCTYPE svg PUBLIC "-//W3C//DTD SVG 1.1//EN" "http://www.w3.org/Graphics/SVG/1.1/DTD/svg11.dtd">
<svg xmlns="http://www.w3.org/2000/svg" xml:space="preserve" width="580px" height="580px" shape-rendering="geometricPrecision" text-rendering="geometricPrecision" image-rendering="optimizeQuality" fill-rule="nonzero" clip-rule="nonzero" viewBox="0 0 5800 5800" xmlns:xlink="http://www.w3.org/1999/xlink">
	<title>chess_piece_rook icon</title>
	<desc>chess_piece_rook icon from the IconExperience.com I-Collection. Copyright by INCORS GmbH (www.incors.com).</desc>
		<path id="curve28"  d="M1998 2500c-164,-1 -298,-136 -298,-300l0 -900 600 0 0 300 200 0 0 -300c267,0 533,0 800,0l0 300 200 0 0 -300c233,0 367,0 600,0l0 900c0,164 -132,298 -296,300 -602,0 -1204,0 -1806,0zm1609 200c16,362 64,725 135,1038 78,341 181,619 302,762l-2288 0c121,-143 224,-421 302,-762 71,-313 119,-676 135,-1038l1414 0zm693 2000l0 800 -2800 0 0 -800 2800 0z"/>
</svg>