<?xml version="1.0" encoding="UTF-8"?>
<!DOCTYPE svg PUBLIC "-//W3C//DTD SVG 1.1//EN" "http://www.w3.org/Graphics/SVG/1.1/DTD/svg11.dtd">
<svg xmlns="http://www.w3.org/2000/svg" xml:space="preserve" width="580px" height="580px" shape-rendering="geometricPrecision" text-rendering="geometricPrecision" image-rendering="optimizeQuality" fill-rule="nonzero" clip-rule="nonzero" viewBox="0 0 5800 5800" xmlns:xlink="http://www.w3.org/1999/xlink">
	<title>chest icon</title>
	<desc>chest icon from the IconExperience.com I-Collection. Copyright by INCORS GmbH (www.incors.com).</desc>
	<path id="curve0"  d="M4263 1732l-1990 -996c-167,-75 -373,-23 -530,53 -431,207 -843,753 -843,1242l0 339 800 400 0 -231 600 300 0 231 800 400 0 -239c0,-566 457,-1182 957,-1422 70,-34 139,-60 206,-77zm-3563 299c0,-566 457,-1182 957,-1422 218,-105 483,-158 710,-49 4,2 8,4 11,7l2373 1186c21,9 41,19 60,31 195,116 281,328 288,547l1 2062 -1900 950 -2500 -1250 0 -2062zm4200 335c0,-463 -370,-563 -757,-377 -431,207 -843,753 -843,1242l0 239 1600 -800 0 -304zm-3200 627l-800 -400 0 1377 2200 1100 0 -1377 -800 -400 0 368 -600 -300 0 -368zm1600 700l0 1377 1600 -800 0 -1377 -1600 800zm-1200 -732l-200 -100 0 378 200 100 0 -378z"/>
</svg>