<?xml version="1.0" encoding="UTF-8"?>
<!DOCTYPE svg PUBLIC "-//W3C//DTD SVG 1.1//EN" "http://www.w3.org/Graphics/SVG/1.1/DTD/svg11.dtd">
<svg xmlns="http://www.w3.org/2000/svg" xml:space="preserve" width="580px" height="580px" shape-rendering="geometricPrecision" text-rendering="geometricPrecision" image-rendering="optimizeQuality" fill-rule="nonzero" clip-rule="nonzero" viewBox="0 0 5800 5800" xmlns:xlink="http://www.w3.org/1999/xlink">
	<title>chess_piece_bishop icon</title>
	<desc>chess_piece_bishop icon from the IconExperience.com I-Collection. Copyright by INCORS GmbH (www.incors.com).</desc>
		<path id="curve28" d="M2900 400c165,0 300,135 300,300 0,60 -18,116 -48,163 127,56 264,145 377,258 155,155 271,356 271,579 0,104 -18,204 -51,298 -12,35 -27,69 -43,102l194 0 0 600 -399 0c9,374 70,728 161,1029 110,366 260,652 409,800l29 30 0 141 200 0 0 800 -2800 0 0 -800 200 0 0 -141 29 -30c149,-148 299,-433 408,-799 91,-302 152,-656 161,-1030l-398 0 0 -600 194 0c-16,-33 -31,-67 -43,-102 -33,-94 -51,-194 -51,-298 0,-139 32,-271 89,-389 57,-120 140,-224 241,-307l170 0 0 624 100 34 0 -814 34 -9c-22,-41 -34,-89 -34,-139 0,-165 135,-300 300,-300zm1200 4500l-2400 0 0 400 2400 0 0 -400zm-1200 -3900c-35,0 -69,-6 -100,-17l0 955c-167,-55 -333,-111 -500,-166l0 -433c-11,18 -22,38 -32,58 -43,91 -68,194 -68,303 0,82 14,160 39,232 26,75 65,144 114,205l131 163 -384 0 0 200c533,0 1067,0 1600,0l0 -200 -384 0 131 -163c49,-61 88,-130 114,-205 25,-72 39,-150 39,-232 0,-163 -91,-316 -213,-437 -160,-161 -365,-263 -487,-263zm-403 1700c-9,396 -73,769 -168,1087 -113,375 -269,677 -429,853l0 60 2000 0 0 -60c-160,-176 -317,-478 -430,-853 -95,-318 -160,-692 -169,-1087l-804 0zm403 -2100c-56,0 -100,44 -100,100 0,55 45,100 100,100 55,0 100,-45 100,-100 0,-56 -44,-100 -100,-100z"/>
</svg>