<?xml version="1.0" encoding="UTF-8"?>
<!DOCTYPE svg PUBLIC "-//W3C//DTD SVG 1.1//EN" "http://www.w3.org/Graphics/SVG/1.1/DTD/svg11.dtd">
<svg xmlns="http://www.w3.org/2000/svg" xml:space="preserve" width="580px" height="580px" shape-rendering="geometricPrecision" text-rendering="geometricPrecision" image-rendering="optimizeQuality" fill-rule="nonzero" clip-rule="nonzero" viewBox="0 0 5800 5800" xmlns:xlink="http://www.w3.org/1999/xlink">
	<title>chess_piece_knight icon</title>
	<desc>chess_piece_knight icon from the IconExperience.com I-Collection. Copyright by INCORS GmbH (www.incors.com).</desc>
		<path id="curve28"  d="M1717 4500c8,-16 20,-29 37,-39 278,-167 523,-458 666,-782 130,-293 174,-611 79,-882l0 -1 -500 804c-52,84 -163,105 -250,65l-514 -244c-75,-35 -119,-110 -110,-193l173 -1640c4,-36 3,-70 -4,-103 -14,-76 -70,-163 -106,-232 -41,-66 6,-153 85,-153l1027 0c1000,0 1783,410 1783,1507 0,234 -44,452 -88,670 -52,261 -111,549 -69,815 22,146 74,279 144,408l-2353 0zm2583 200c0,267 0,533 0,800l-2800 0c0,-267 0,-533 0,-800l2800 0z"/>
</svg>