<?xml version="1.0" encoding="UTF-8"?>
<!DOCTYPE svg PUBLIC "-//W3C//DTD SVG 1.1//EN" "http://www.w3.org/Graphics/SVG/1.1/DTD/svg11.dtd">
<svg xmlns="http://www.w3.org/2000/svg" xml:space="preserve" width="580px" height="580px" shape-rendering="geometricPrecision" text-rendering="geometricPrecision" image-rendering="optimizeQuality" fill-rule="nonzero" clip-rule="nonzero" viewBox="0 0 5800 5800" xmlns:xlink="http://www.w3.org/1999/xlink">
	<title>chess_piece_king icon</title>
	<desc>chess_piece_king icon from the IconExperience.com I-Collection. Copyright by INCORS GmbH (www.incors.com).</desc>
		<path id="curve28"  d="M1756 4500c129,-154 258,-494 360,-900 86,-346 150,-736 173,-1100l1221 0c23,364 87,753 173,1099 102,406 232,746 361,901l-2288 0zm144 -2200l0 -600 153 0 -146 -363c-15,-38 -22,-74 -22,-108 0,-139 107,-228 226,-276 91,-36 198,-53 289,-53l300 0 0 -200 -200 0 0 -400 200 0 0 -200 400 0 0 200 200 0 0 400 -200 0 0 200 300 0c91,0 198,17 289,53 119,48 226,137 226,276 0,34 -7,70 -22,108l-146 363 153 0 0 600 -2000 0zm2500 2400l0 800 -3000 0c0,-267 0,-533 0,-800l3000 0z"/>
</svg>