<?xml version="1.0" encoding="UTF-8"?>
<!DOCTYPE svg PUBLIC "-//W3C//DTD SVG 1.1//EN" "http://www.w3.org/Graphics/SVG/1.1/DTD/svg11.dtd">
<svg xmlns="http://www.w3.org/2000/svg" xml:space="preserve" width="580px" height="580px" shape-rendering="geometricPrecision" text-rendering="geometricPrecision" image-rendering="optimizeQuality" fill-rule="nonzero" clip-rule="nonzero" viewBox="0 0 5800 5800" xmlns:xlink="http://www.w3.org/1999/xlink">
	<title>chess_piece_pawn icon</title>
	<desc>chess_piece_pawn icon from the IconExperience.com I-Collection. Copyright by INCORS GmbH (www.incors.com).</desc>
		<path id="curve28"  d="M1759 4500c18,-17 36,-35 54,-52 218,-211 420,-408 473,-948l1227 0c53,539 255,736 473,947 19,18 37,35 55,53l-2282 0zm141 -1200c0,-200 0,-400 0,-600l194 0c-62,-124 -94,-261 -94,-400 0,-497 403,-900 900,-900 497,0 900,403 900,900 0,139 -32,276 -94,400l194 0c0,200 0,400 0,600l-2000 0zm2400 1400l0 800 -2800 0 0 -800 2800 0z"/>
</svg>