<?xml version="1.0" encoding="UTF-8"?>
<!DOCTYPE svg PUBLIC "-//W3C//DTD SVG 1.1//EN" "http://www.w3.org/Graphics/SVG/1.1/DTD/svg11.dtd">
<svg xmlns="http://www.w3.org/2000/svg" xml:space="preserve" width="580px" height="580px" shape-rendering="geometricPrecision" text-rendering="geometricPrecision" image-rendering="optimizeQuality" fill-rule="nonzero" clip-rule="nonzero" viewBox="0 0 5800 5800" xmlns:xlink="http://www.w3.org/1999/xlink">
	<title>chess_piece_king icon</title>
	<desc>chess_piece_king icon from the IconExperience.com I-Collection. Copyright by INCORS GmbH (www.incors.com).</desc>
		<path id="curve28" d="M2500 300l200 0 0 -200c133,0 267,0 400,0l0 200 200 0c0,133 0,267 0,400l-200 0 0 200 300 0c91,0 198,17 289,53 58,24 111,56 151,97 47,49 75,108 75,179 0,34 -7,70 -22,108l-146 363 153 0 0 600 -399 0c9,417 80,889 182,1299 109,434 250,793 388,930l29 30 0 141 300 0 0 800 -3000 0 0 -800 300 0 0 -141 29 -30c138,-137 278,-495 387,-929 102,-410 173,-882 182,-1300l-398 0 0 -600 153 0 -146 -363c-15,-38 -22,-74 -22,-108 0,-71 28,-130 75,-179 40,-41 93,-73 151,-97 91,-36 198,-53 289,-53l300 0 0 -200 -200 0c0,-133 0,-267 0,-400zm-900 4600l0 400 2600 0 0 -400c-867,0 -1733,0 -2600,0zm500 -3000l0 200c533,0 1067,0 1600,0l0 -200 -247 0 54 -137 200 -500c6,-13 8,-24 8,-34 0,-15 -7,-29 -19,-41 -19,-19 -48,-36 -82,-49 -65,-27 -145,-39 -214,-39l-1000 0c-69,0 -149,12 -215,39 -34,13 -62,30 -81,49 -12,12 -19,26 -19,41 0,10 2,21 8,34l200 500 54 137 -247 0zm397 400c-9,435 -82,924 -188,1348 -109,439 -256,812 -409,991l0 61 2000 0 0 -61c-153,-179 -301,-553 -410,-992 -106,-423 -179,-913 -189,-1347l-804 0z"/>
</svg>