<?xml version="1.0" encoding="UTF-8"?>
<!DOCTYPE svg PUBLIC "-//W3C//DTD SVG 1.1//EN" "http://www.w3.org/Graphics/SVG/1.1/DTD/svg11.dtd">
<svg xmlns="http://www.w3.org/2000/svg" xml:space="preserve" width="580px" height="580px" shape-rendering="geometricPrecision" text-rendering="geometricPrecision" image-rendering="optimizeQuality" fill-rule="nonzero" clip-rule="nonzero" viewBox="0 0 5800 5800" xmlns:xlink="http://www.w3.org/1999/xlink">
	<title>chest_out icon</title>
	<desc>chest_out icon from the IconExperience.com I-Collection. Copyright by INCORS GmbH (www.incors.com).</desc>
	<path id="curve0"  d="M1100 1141l0 859c0,275 225,500 500,500l500 0 0 200 -500 0c-386,0 -700,-314 -700,-700l0 -859 -529 530 -142 -142 771 -770 771 770 -142 142 -529 -530zm1500 908l0 1637 374 187 1611 -805c-662,-339 -1324,-679 -1985,-1019zm-44 -1660c-142,-53 -329,-22 -516,69 -208,101 -412,274 -563,495l-143 -143c169,-236 392,-422 619,-532 260,-126 529,-155 735,-49 7,4 14,8 20,14l2263 1131c48,16 91,37 134,65 163,108 250,292 262,513 16,304 -112,621 -279,872l-183 275 0 1662 -1901 951 -2498 -1282 -6 -1691 385 -193c43,56 91,106 145,150l-205 103 680 340 0 -232 600 300 0 232 295 147 0 -986 0 -589 -577 289 -223 0c-53,0 -103,-14 -146,-38l790 -395 -272 -140c32,-69 36,-146 14,-217l1488 764 181 -223c209,-257 466,-475 717,-597 59,-28 117,-52 175,-69l-1991 -996zm2149 2841l-1600 800 0 1409 1600 -800 0 -1409zm-3200 131l-805 -402 4 1349 2201 1129 0 -1376 -800 -400 0 369 -600 -300 0 -369zm400 -31l-200 -100 0 377 200 100 0 -377zm3089 -1725c-162,-108 -375,-49 -535,29 -225,109 -458,308 -649,543l-155 190 1116 572 151 -226c143,-214 259,-492 245,-751 -8,-157 -66,-285 -173,-357z"/>
</svg>