<?xml version="1.0" encoding="UTF-8"?>
<!DOCTYPE svg PUBLIC "-//W3C//DTD SVG 1.1//EN" "http://www.w3.org/Graphics/SVG/1.1/DTD/svg11.dtd">
<svg xmlns="http://www.w3.org/2000/svg" xml:space="preserve" width="580px" height="580px" shape-rendering="geometricPrecision" text-rendering="geometricPrecision" image-rendering="optimizeQuality" fill-rule="nonzero" clip-rule="nonzero" viewBox="0 0 5800 5800" xmlns:xlink="http://www.w3.org/1999/xlink">
	<title>chest_open_full icon</title>
	<desc>chest_open_full icon from the IconExperience.com I-Collection. Copyright by INCORS GmbH (www.incors.com).</desc>
	<path id="curve0"  d="M2429 2467c16,6 31,12 45,18 39,10 81,15 126,15 92,0 173,-22 230,-58 15,-9 28,-19 38,-30l242 125c-14,6 -28,13 -40,21 -43,27 -70,60 -70,92 0,32 27,65 70,92 57,36 138,58 230,58 87,0 164,-20 221,-52l335 172c-43,13 -91,35 -123,67 75,47 139,114 160,202 113,24 269,11 361,-64l107 55 -434 216c-22,-2 -44,-5 -65,-9 -15,25 -34,48 -56,70l-820 410c-45,-14 -86,-33 -122,-55 -63,-40 -111,-91 -138,-149 -36,13 -75,22 -115,29l-506 -253 0 -232 -47 -23c15,-21 34,-40 55,-58 -79,-10 -151,-33 -211,-65 -11,10 -22,19 -34,28l-220 -110c36,-11 72,-28 102,-51 -35,-55 -51,-118 -42,-183 -55,-28 -128,-45 -208,-45 -92,0 -173,22 -230,58 -43,27 -70,60 -70,92 0,32 27,65 70,92 68,43 155,58 235,58l0 139 -502 -251c-19,-128 56,-234 161,-300 88,-54 207,-88 336,-88 15,0 30,0 45,1 29,-43 69,-81 119,-113 88,-54 207,-88 336,-88 35,0 70,3 103,7 14,-84 69,-157 150,-211l228 117c-42,10 -80,26 -111,45 -43,27 -70,60 -70,92 0,7 1,13 3,20 47,25 91,57 126,97zm1054 1128c-27,3 -55,5 -83,5 -129,0 -248,-34 -336,-88 -29,-19 -56,-40 -78,-63 -6,3 -11,6 -16,9 -43,27 -70,60 -70,92 0,32 27,65 70,92 57,36 138,58 230,58 92,0 173,-22 230,-58 23,-14 41,-30 53,-47zm-762 -147c17,-41 43,-77 78,-110 -6,-28 -31,-56 -69,-80 -57,-36 -138,-58 -230,-58 -92,0 -173,22 -230,58 -43,27 -70,60 -70,92 0,32 27,65 70,92 57,36 138,58 230,58 87,0 164,-20 221,-52zm276 -518c-49,-26 -95,-60 -130,-102 -48,-18 -105,-28 -167,-28 -92,0 -173,22 -230,58 -57,35 -98,87 -46,146 25,-3 50,-4 76,-4 126,0 242,32 329,84 38,-10 73,-24 101,-42 43,-27 70,-60 70,-92 0,-7 -1,-13 -3,-20zm-796 1c7,-98 68,-183 163,-243 11,-6 22,-13 34,-19 -123,-55 -308,-51 -422,21 -44,26 -70,59 -70,92 0,32 26,65 70,92 56,35 135,57 225,57zm-397 -361c20,-18 42,-35 66,-50 4,-2 7,-4 11,-7 -41,10 -77,25 -107,43 10,4 20,9 30,14zm1826 588c-57,-36 -138,-58 -230,-58 -92,0 -173,22 -230,58 -43,27 -70,60 -70,92 0,32 27,65 70,92 57,36 138,58 230,58 92,0 173,-22 230,-58 43,-27 70,-60 70,-92 0,-32 -27,-65 -70,-92zm-1525 503l800 400 -4 1598 -2395 -1229 -5 -1571 1004 502 0 369 600 300 0 -369zm-1046 -2404c85,-163 122,-211 226,-375 171,-268 415,-479 660,-602 259,-130 525,-162 721,-61l2249 1124c-282,-11 -497,63 -734,221 -187,125 -370,295 -526,487l-310 382c-762,-392 -1524,-784 -2286,-1176zm4281 526c74,277 -10,594 -136,842 -81,162 -199,324 -299,474l0 1662 -1805 903 4 -1634 1698 -848 -1276 -656 284 -349c143,-177 311,-333 482,-447 155,-103 310,-170 449,-182 234,-21 486,-1 599,235zm-4738 904l330 -164c-70,75 -115,165 -128,265l-202 -101zm752 -375l668 -335 37 19c-34,32 -63,67 -87,104 -157,5 -302,50 -413,119 -39,24 -75,52 -106,82 -34,2 -67,5 -99,11zm551 1018l-200 -100 0 377 200 100 0 -377z"/>
</svg>