<?xml version="1.0" encoding="UTF-8"?>
<!DOCTYPE svg PUBLIC "-//W3C//DTD SVG 1.1//EN" "http://www.w3.org/Graphics/SVG/1.1/DTD/svg11.dtd">
<svg xmlns="http://www.w3.org/2000/svg" xml:space="preserve" width="580px" height="580px" shape-rendering="geometricPrecision" text-rendering="geometricPrecision" image-rendering="optimizeQuality" fill-rule="nonzero" clip-rule="nonzero" viewBox="0 0 5800 5800" xmlns:xlink="http://www.w3.org/1999/xlink">
	<title>chocolate icon</title>
	<desc>chocolate icon from the IconExperience.com I-Collection. Copyright by INCORS GmbH (www.incors.com).</desc>
	<path id="curve0"  d="M1700 3400c0,-388 251,-734 619,-855 293,-97 481,-357 481,-665l0 -580 2700 0 0 3000 -3800 0 0 -900zm-1400 700l0 -400 700 0 0 600 -500 0c-110,0 -200,-90 -200,-200zm900 -400l300 0 0 600 -300 0 0 -600zm800 -1221l0 -379 552 0c-58,124 -166,212 -295,255 -92,30 -178,72 -257,124zm600 -579l-600 0 0 -600 600 0 0 580c0,7 0,13 0,20zm-1100 1600l-300 0 0 -600 421 0c-77,150 -121,320 -121,500l0 100zm253 -800l-553 0 0 -600 600 0 0 547c-16,17 -32,35 -47,53zm47 -800l-600 0 0 -600 600 0 0 600zm-800 1600l-700 0 0 -600 700 0 0 600zm0 -800l-700 0 0 -600 700 0 0 600zm0 -800l-700 0 0 -400c0,-110 90,-200 200,-200l500 0 0 600z"/>
</svg>