<?xml version="1.0" encoding="UTF-8"?>
<!DOCTYPE svg PUBLIC "-//W3C//DTD SVG 1.1//EN" "http://www.w3.org/Graphics/SVG/1.1/DTD/svg11.dtd">
<svg xmlns="http://www.w3.org/2000/svg" xml:space="preserve" width="580px" height="580px" shape-rendering="geometricPrecision" text-rendering="geometricPrecision" image-rendering="optimizeQuality" fill-rule="nonzero" clip-rule="nonzero" viewBox="0 0 5800 5800" xmlns:xlink="http://www.w3.org/1999/xlink">
	<title>christmas_ball icon</title>
	<desc>christmas_ball icon from the IconExperience.com I-Collection. Copyright by INCORS GmbH (www.incors.com).</desc>
	<path id="curve0" d="M3000 300l0 800 200 0c165,0 300,135 300,300l0 192c311,97 589,269 814,494 362,362 586,862 586,1414 0,1105 -895,2000 -2000,2000 -1105,0 -2000,-895 -2000,-2000 0,-875 569,-1647 1400,-1908l0 -192c0,-165 135,-300 300,-300l200 0 0 -800 200 0zm-365 2126c17,16 30,32 52,45 47,27 117,41 191,35 73,-7 148,-34 205,-90 33,-32 44,-59 70,-97 50,-72 126,-146 231,-181 108,-36 243,-30 402,63 4,2 42,26 42,26 104,69 210,113 294,124 35,4 63,3 81,-5 8,-3 14,-8 16,-17 4,-13 5,-30 1,-53 -15,-16 -31,-33 -47,-49 -190,-189 -421,-337 -680,-427l-193 0c0,-133 0,-267 0,-400 0,-55 -45,-100 -100,-100l-600 0c-55,0 -100,45 -100,100 0,133 0,267 0,400l-193 0c-329,115 -617,323 -831,598 -30,69 -36,141 -18,194 13,36 34,55 73,51 68,-6 165,-63 295,-201 -1,0 20,-21 22,-23 136,-133 278,-183 416,-174 135,10 261,77 371,181zm1083 -32c-11,-8 -22,-15 -33,-21 -101,-60 -179,-66 -238,-46 -56,18 -99,61 -128,104 -25,42 -62,93 -97,127 -93,92 -212,137 -327,147 -114,10 -227,-15 -309,-63 -40,-23 -56,-43 -88,-72 -77,-72 -162,-120 -248,-126 -83,-5 -172,29 -262,117 -120,118 -260,264 -439,281 -114,10 -210,-42 -261,-143 -120,241 -188,513 -188,801 0,994 806,1800 1800,1800 994,0 1800,-806 1800,-1800 0,-386 -122,-744 -329,-1037 -23,29 -54,52 -90,67 -53,22 -115,28 -183,20 -114,-15 -251,-70 -380,-156zm-1279 1745l-726 -548 910 20 297 -860 262 872 909 16 -748 519 265 870 -724 -551 -745 521 300 -859zm92 342l359 -251 348 265 -128 -418 360 -250 -438 -8 -126 -418 -142 413 -438 -10 349 264 -144 413z"/>
</svg>