<?xml version="1.0" encoding="UTF-8"?>
<!DOCTYPE svg PUBLIC "-//W3C//DTD SVG 1.1//EN" "http://www.w3.org/Graphics/SVG/1.1/DTD/svg11.dtd">
<svg xmlns="http://www.w3.org/2000/svg" xml:space="preserve" width="580px" height="580px" shape-rendering="geometricPrecision" text-rendering="geometricPrecision" image-rendering="optimizeQuality" fill-rule="nonzero" clip-rule="nonzero" viewBox="0 0 5800 5800" xmlns:xlink="http://www.w3.org/1999/xlink">
	<title>christmas_ball icon</title>
	<desc>christmas_ball icon from the IconExperience.com I-Collection. Copyright by INCORS GmbH (www.incors.com).</desc>
	<path id="curve0"  d="M3300 1400c0,-55 -45,-100 -100,-100l-600 0c-55,0 -100,45 -100,100 0,133 0,267 0,400l-193 0c-259,90 -490,238 -680,427 -54,54 -104,111 -151,171 -25,57 -51,191 10,236 11,7 26,11 45,9 118,-11 237,-145 317,-224 136,-133 278,-183 416,-174 153,11 290,97 395,204 50,51 153,63 219,57 107,-10 200,-61 254,-154 57,-97 143,-178 252,-214 108,-36 243,-30 402,63 109,64 202,133 336,150 24,3 88,10 97,-22 4,-13 5,-30 1,-53 -15,-16 -31,-33 -47,-49 -190,-189 -421,-337 -680,-427l-193 0c0,-133 0,-267 0,-400zm200 192c311,97 589,269 814,494 362,362 586,862 586,1414 0,1105 -895,2000 -2000,2000 -1105,0 -2000,-895 -2000,-2000 0,-875 569,-1647 1400,-1908l0 -192c0,-165 135,-300 300,-300l200 0 0 -800 200 0 0 800 200 0c165,0 300,135 300,300l0 192zm-1361 3406l745 -521 724 551 -265 -870 748 -519 -909 -16 -262 -872 -297 860 -910 -20 726 548 -300 859z"/>
</svg>