<?xml version="1.0" encoding="UTF-8"?>
<!DOCTYPE svg PUBLIC "-//W3C//DTD SVG 1.1//EN" "http://www.w3.org/Graphics/SVG/1.1/DTD/svg11.dtd">
<svg xmlns="http://www.w3.org/2000/svg" xml:space="preserve" width="580px" height="580px" shape-rendering="geometricPrecision" text-rendering="geometricPrecision" image-rendering="optimizeQuality" fill-rule="nonzero" clip-rule="nonzero" viewBox="0 0 5800 5800" xmlns:xlink="http://www.w3.org/1999/xlink">
	<title>church icon</title>
	<desc>church icon from the IconExperience.com I-Collection. Copyright by INCORS GmbH (www.incors.com).</desc>
	<path id="curve0"  d="M1100 5300l800 0 0 -1100c0,-263 -158,-499 -400,-600 -242,101 -400,337 -400,600l0 1100zm-800 200l0 -3024 1200 -2345 1200 2345 0 24 2045 0 755 863 0 2137c-1733,0 -3466,0 -5200,0zm3333 -1777l-33 -12 -33 12c-160,56 -267,208 -267,377l0 600c200,0 400,0 600,0l0 -600c0,-169 -107,-321 -267,-377zm-2633 -1623l0 200 400 0 0 800 200 0 0 -800 400 0 0 -200 -400 0 0 -400 -200 0 0 400 -400 0zm3633 1623l-33 -12 -33 12c-160,56 -267,208 -267,377l0 600c200,0 400,0 600,0l0 -600c0,-169 -107,-321 -267,-377z"/>
</svg>