<?xml version="1.0" encoding="UTF-8"?>
<!DOCTYPE svg PUBLIC "-//W3C//DTD SVG 1.1//EN" "http://www.w3.org/Graphics/SVG/1.1/DTD/svg11.dtd">
<svg xmlns="http://www.w3.org/2000/svg" xml:space="preserve" width="580px" height="580px" shape-rendering="geometricPrecision" text-rendering="geometricPrecision" image-rendering="optimizeQuality" fill-rule="nonzero" clip-rule="nonzero" viewBox="0 0 5800 5800" xmlns:xlink="http://www.w3.org/1999/xlink">
	<title>cigarette_pack icon</title>
	<desc>cigarette_pack icon from the IconExperience.com I-Collection. Copyright by INCORS GmbH (www.incors.com).</desc>
	<path id="curve0"  d="M4100 3500l0 1600 -2400 0 0 -1600 2400 0zm-1911 -1557c38,3 75,10 111,23l0 -757c0,-51 -116,-69 -157,-69 -37,-1 -143,12 -143,60l0 496c-60,-53 -127,-96 -200,-128l0 -359c0,-51 -116,-69 -157,-69 -37,-1 -143,12 -143,60l0 300c-66,-2 -134,0 -200,0l0 -300c0,-186 184,-260 344,-260 86,1 179,22 250,72 70,-52 164,-72 250,-72 86,1 179,22 250,72 70,-52 164,-72 250,-72 86,1 179,22 250,72 70,-52 164,-72 250,-72 53,1 106,9 156,26l0 -366c0,-186 184,-260 344,-260 161,1 356,81 356,269l0 352c46,-15 95,-21 144,-21 161,1 356,81 356,269l0 291c-66,0 -134,-2 -200,0l0 -291c0,-51 -116,-69 -157,-69 -37,-1 -143,12 -143,60l0 368c-73,32 -140,75 -200,128l0 -92c0,-26 -35,-47 -80,-59 -25,-6 -51,-10 -77,-10 -26,0 -52,3 -76,9 -38,10 -67,28 -67,51l0 595 -41 92c-30,68 -86,109 -159,117l0 -190c0,-51 -116,-69 -157,-69 -37,-1 -143,12 -143,60l0 200 -200 0 0 -191c0,-51 -116,-69 -157,-69 -37,-1 -143,12 -143,60l0 199c-73,-8 -129,-49 -159,-117l-136 -306c-5,-11 -10,-22 -16,-33zm-1089 -1643l2117 0c-52,53 -90,120 -107,200l-1810 0 0 333c-120,76 -200,197 -200,367 0,831 0,-708 0,-900zm2974 0l626 0 0 909c0,-168 -80,-290 -200,-368l0 -341 -312 0c-19,-80 -60,-147 -114,-200zm-274 1061l0 -752c0,-51 -116,-69 -157,-69 -37,-1 -143,12 -143,60l0 756c5,-2 11,-3 16,-5 40,-10 84,-15 128,-15 44,0 88,6 128,17 9,2 19,5 28,8zm-500 605l0 -757c0,-51 -116,-69 -157,-69 -37,-1 -143,12 -143,60l0 761c46,-15 95,-21 144,-21 53,1 106,9 156,26zm-500 0l0 -757c0,-51 -116,-69 -157,-69 -37,-1 -143,12 -143,60l0 761c47,-15 95,-21 144,-21 53,1 106,9 156,26zm-1325 -266c242,0 450,136 548,357l136 306c66,149 203,237 366,237l750 0c163,0 300,-88 366,-237l136 -306c98,-221 306,-357 548,-357l375 0 0 3800 -3600 0 0 -3800 375 0zm0 200l-175 0 0 3400 3200 0 0 -3400 -175 0c-163,0 -300,88 -366,237l-136 306c-98,221 -306,357 -548,357l-750 0c-242,0 -450,-136 -548,-357l-136 -306c-66,-149 -203,-237 -366,-237zm2425 1800l-2000 0 0 1200 2000 0 0 -1200z"/>
</svg>