<?xml version="1.0" encoding="UTF-8"?>
<!DOCTYPE svg PUBLIC "-//W3C//DTD SVG 1.1//EN" "http://www.w3.org/Graphics/SVG/1.1/DTD/svg11.dtd">
<svg xmlns="http://www.w3.org/2000/svg" xml:space="preserve" width="580px" height="580px" shape-rendering="geometricPrecision" text-rendering="geometricPrecision" image-rendering="optimizeQuality" fill-rule="nonzero" clip-rule="nonzero" viewBox="0 0 5800 5800" xmlns:xlink="http://www.w3.org/1999/xlink">
	<title>cigarette_pack_empty icon</title>
	<desc>cigarette_pack_empty icon from the IconExperience.com I-Collection. Copyright by INCORS GmbH (www.incors.com).</desc>
	<path id="curve0"  d="M1475 1700c242,0 450,136 548,357l136 306c66,149 203,237 366,237l750 0c163,0 300,-88 366,-237l136 -306c98,-221 306,-357 548,-357l375 0 0 3800 -3600 0 0 -3800 375 0zm225 1800l0 1600 2400 0 0 -1600 -2400 0zm2200 200l0 1200 -2000 0 0 -1200 2000 0zm-2800 -2200l0 -1200 3600 0 0 1200 -200 0 0 -1000 -3200 0 0 1000 -200 0zm375 0l2850 0c-321,0 -600,184 -730,476l-136 306c-34,77 -100,118 -184,118l-750 0c-84,0 -150,-41 -184,-118l-136 -306c-130,-292 -409,-476 -730,-476z"/>
</svg>