<?xml version="1.0" encoding="UTF-8"?>
<!DOCTYPE svg PUBLIC "-//W3C//DTD SVG 1.1//EN" "http://www.w3.org/Graphics/SVG/1.1/DTD/svg11.dtd">
<svg xmlns="http://www.w3.org/2000/svg" xml:space="preserve" width="580px" height="580px" shape-rendering="geometricPrecision" text-rendering="geometricPrecision" image-rendering="optimizeQuality" fill-rule="nonzero" clip-rule="nonzero" viewBox="0 0 5800 5800" xmlns:xlink="http://www.w3.org/1999/xlink">
	<title>cigarette_pack_empty icon</title>
	<desc>cigarette_pack_empty icon from the IconExperience.com I-Collection. Copyright by INCORS GmbH (www.incors.com).</desc>
	<path id="curve0"  d="M4100 3500l0 1600 -2400 0 0 -1600 2400 0zm-200 200l-2000 0 0 1200 2000 0 0 -1200zm-2425 -2000c242,0 450,136 548,357l136 306c66,149 203,237 366,237l750 0c163,0 300,-88 366,-237l136 -306c98,-221 306,-357 548,-357l375 0 0 3800 -3600 0 0 -3800 375 0zm0 200l-175 0 0 3400 3200 0 0 -3400 -175 0c-163,0 -300,88 -366,237l-136 306c-98,221 -306,357 -548,357l-750 0c-242,0 -450,-136 -548,-357l-136 -306c-66,-149 -203,-237 -366,-237zm-375 -400l0 -1200 3600 0 0 1200 -200 0 0 -1000 -3200 0 0 1000 -200 0zm2534 400l-1468 0c-43,-77 -98,-144 -161,-200l1790 0c-63,56 -118,123 -161,200z"/>
</svg>