<?xml version="1.0" encoding="UTF-8"?>
<!DOCTYPE svg PUBLIC "-//W3C//DTD SVG 1.1//EN" "http://www.w3.org/Graphics/SVG/1.1/DTD/svg11.dtd">
<svg xmlns="http://www.w3.org/2000/svg" xml:space="preserve" width="580px" height="580px" shape-rendering="geometricPrecision" text-rendering="geometricPrecision" image-rendering="optimizeQuality" fill-rule="nonzero" clip-rule="nonzero" viewBox="0 0 5800 5800" xmlns:xlink="http://www.w3.org/1999/xlink">
	<title>cigarette_pack icon</title>
	<desc>cigarette_pack icon from the IconExperience.com I-Collection. Copyright by INCORS GmbH (www.incors.com).</desc>
	<path id="curve0"  d="M1475 1700c242,0 450,136 548,357l136 306c66,149 203,237 366,237l750 0c163,0 300,-88 366,-237l136 -306c98,-221 306,-357 548,-357l375 0 0 3800 -3600 0 0 -3800 375 0zm225 1800l0 1600 2400 0 0 -1600 -2400 0zm2200 200l0 1200 -2000 0 0 -1200 2000 0zm-1711 -1757c38,3 75,10 111,23l0 -757c0,-51 -116,-69 -157,-69 -37,-1 -143,12 -143,60l0 496c-60,-53 -127,-96 -200,-128l0 -359c0,-51 -116,-69 -157,-69 -37,-1 -143,12 -143,60l0 300c-66,-2 -134,0 -200,0l0 -300c0,-186 184,-260 344,-260 86,1 179,22 250,72 70,-52 164,-72 250,-72 86,1 179,22 250,72 70,-52 164,-72 250,-72 86,1 179,22 250,72 70,-52 164,-72 250,-72 53,1 106,9 156,26l0 -366c0,-186 184,-260 344,-260 161,1 356,81 356,269l0 352c46,-15 95,-21 144,-21 161,1 356,81 356,269l0 291c-66,0 -134,-2 -200,0l0 -291c0,-51 -116,-69 -157,-69 -37,-1 -143,12 -143,60l0 368c-73,32 -140,75 -200,128l0 -92c0,-51 -116,-69 -157,-69 -37,0 -143,12 -143,60l0 595 -41 92c-30,68 -86,109 -159,117l0 -190c0,-51 -116,-69 -157,-69 -37,-1 -143,12 -143,60l0 200 -200 0 0 -191c0,-51 -116,-69 -157,-69 -37,-1 -143,12 -143,60l0 199c-73,-8 -129,-49 -159,-117l-136 -306c-5,-11 -10,-22 -16,-33zm-1089 -1643l2117 0c-73,74 -117,173 -117,300l0 142c-72,4 -140,18 -207,45 -80,-31 -163,-45 -249,-46 -86,0 -170,14 -251,46 -80,-31 -163,-45 -249,-46 -86,0 -170,14 -251,46 -80,-31 -163,-45 -249,-46 -276,-1 -544,152 -544,459 0,831 0,-708 0,-900zm2974 0l626 0 0 909c0,-286 -239,-445 -500,-465l0 -135c0,-130 -48,-233 -126,-309zm-274 1061l0 -752c0,-51 -116,-69 -157,-69 -37,-1 -143,12 -143,60l0 756c47,-14 95,-20 144,-20 53,0 106,8 156,25zm-500 605l0 -757c0,-51 -116,-69 -157,-69 -37,-1 -143,12 -143,60l0 761c46,-15 95,-21 144,-21 53,1 106,9 156,26zm-500 0l0 -757c0,-51 -116,-69 -157,-69 -37,-1 -143,12 -143,60l0 761c47,-15 95,-21 144,-21 53,1 106,9 156,26z"/>
</svg>