<?xml version="1.0" encoding="UTF-8"?>
<!DOCTYPE svg PUBLIC "-//W3C//DTD SVG 1.1//EN" "http://www.w3.org/Graphics/SVG/1.1/DTD/svg11.dtd">
<svg xmlns="http://www.w3.org/2000/svg" xml:space="preserve" width="580px" height="580px" shape-rendering="geometricPrecision" text-rendering="geometricPrecision" image-rendering="optimizeQuality" fill-rule="nonzero" clip-rule="nonzero" viewBox="0 0 5800 5800" xmlns:xlink="http://www.w3.org/1999/xlink">
	<title>cigarette icon</title>
	<desc>cigarette icon from the IconExperience.com I-Collection. Copyright by INCORS GmbH (www.incors.com).</desc>
		<path id="curve28"  d="M300 1689c0,147 128,235 256,323 172,118 344,236 344,488 0,131 -31,210 -82,327 37,-35 76,-68 114,-102 184,-159 368,-319 368,-625 0,-275 -242,-434 -499,-604 -339,-225 -701,-464 -701,-996l200 0c0,425 316,634 611,829 304,201 589,389 589,771 0,397 -219,587 -437,776 -182,158 -363,315 -363,613l-200 0c0,-436 77,-612 139,-752 33,-75 61,-138 61,-237 0,-148 -128,-235 -256,-323 -172,-118 -344,-236 -344,-488l200 0zm5200 2011l0 1000 -4400 0 0 -1000 4400 0zm-200 200l-1200 0 0 600 1200 0 0 -600zm-1400 0l-2600 0 0 600 2600 0 0 -600zm-3004 -200l0 1000 -200 0 0 -1000 200 0zm-400 0l0 1000 -200 0 0 -1000 200 0z"/>
</svg>