<?xml version="1.0" encoding="UTF-8"?>
<!DOCTYPE svg PUBLIC "-//W3C//DTD SVG 1.1//EN" "http://www.w3.org/Graphics/SVG/1.1/DTD/svg11.dtd">
<svg xmlns="http://www.w3.org/2000/svg" xml:space="preserve" width="580px" height="580px" shape-rendering="geometricPrecision" text-rendering="geometricPrecision" image-rendering="optimizeQuality" fill-rule="nonzero" clip-rule="nonzero" viewBox="0 0 5800 5800" xmlns:xlink="http://www.w3.org/1999/xlink">
	<title>circus icon</title>
	<desc>circus icon from the IconExperience.com I-Collection. Copyright by INCORS GmbH (www.incors.com).</desc>
	<path id="curve0"  d="M3705 317c63,42 125,83 195,83 77,0 116,-20 155,-39 61,-31 122,-61 245,-61 130,0 239,25 325,60 140,56 225,140 255,181l157 213 -258 -56c-10,-2 -25,-7 -43,-11 -85,-23 -252,-68 -391,2 -30,15 -70,41 -111,69 -103,68 -214,142 -334,142 -80,0 -136,-24 -197,-51 -54,-23 -113,-49 -203,-49 -59,0 -121,39 -186,79 -91,57 -187,117 -314,125l0 6c10,58 21,115 33,171 409,1132 1337,1641 2402,2049 44,16 69,60 64,105 -10,161 -83,310 -204,416 -5,567 8,1110 198,1614l51 135 -2044 0 0 -941c-166,61 -384,91 -600,91 -216,0 -434,-30 -600,-91l0 941 -2044 0 51 -135c190,-504 203,-1047 198,-1614 -123,-108 -196,-260 -204,-423 -2,-44 25,-83 64,-98 1065,-408 1993,-917 2402,-2049 12,-56 23,-113 33,-171l0 -710 100 0c81,0 139,-21 200,-42 82,-28 167,-58 300,-58 130,0 217,58 305,117zm-225 1971c233,369 570,725 965,922 43,21 56,59 55,103 7,215 185,386 400,386 187,0 349,-129 390,-311 -658,-257 -1319,-580 -1810,-1100zm20 1011c0,221 179,400 400,400 198,0 367,-146 396,-342 -543,-295 -969,-841 -1219,-1402 92,506 252,902 381,1223 12,29 23,57 35,85 4,12 7,24 7,36zm-200 19l-27 -66c-124,-308 -276,-683 -373,-1156 -97,473 -249,848 -373,1156l-27 66c10,213 186,381 400,381 214,0 390,-168 400,-381zm-1000 -19c0,-12 3,-24 7,-36 12,-28 23,-56 35,-85 129,-321 289,-717 381,-1223 -250,561 -676,1107 -1219,1402 29,196 198,342 396,342 221,0 400,-179 400,-400zm-945 -89c395,-197 731,-553 965,-922 -492,520 -1152,843 -1810,1100 41,182 203,311 390,311 215,0 393,-171 400,-386 -1,-44 12,-82 55,-103z"/>
</svg>