<?xml version="1.0" encoding="UTF-8"?>
<!DOCTYPE svg PUBLIC "-//W3C//DTD SVG 1.1//EN" "http://www.w3.org/Graphics/SVG/1.1/DTD/svg11.dtd">
<svg xmlns="http://www.w3.org/2000/svg" xml:space="preserve" width="580px" height="580px" shape-rendering="geometricPrecision" text-rendering="geometricPrecision" image-rendering="optimizeQuality" fill-rule="nonzero" clip-rule="nonzero" viewBox="0 0 5800 5800" xmlns:xlink="http://www.w3.org/1999/xlink">
	<title>circus icon</title>
	<desc>circus icon from the IconExperience.com I-Collection. Copyright by INCORS GmbH (www.incors.com).</desc>
	<path id="curve0" d="M4123 592c44,-30 86,-58 132,-81 8,-4 15,-7 22,-10 -62,3 -97,21 -132,38 -61,31 -122,61 -245,61 -129,0 -217,-58 -305,-117 -62,-41 -125,-83 -195,-83 -101,0 -169,24 -234,47 -53,18 -104,36 -166,45l0 310c77,-11 144,-52 208,-92 91,-56 177,-110 292,-110 130,0 210,35 282,66 41,18 78,34 118,34 61,0 145,-56 223,-108zm111 166c-103,68 -214,142 -334,142 -80,0 -136,-24 -197,-51 -54,-23 -113,-49 -203,-49 -59,0 -121,39 -186,79 -91,57 -187,117 -314,125 0,38 24,136 33,177 409,1132 1337,1641 2402,2049 44,16 69,60 64,105 -10,161 -83,310 -204,416 -5,567 8,1110 198,1614l51 135 -144 0 -1900 0 0 -941c-334,122 -867,122 -1200,0l0 941 -2044 0 51 -135c190,-504 203,-1047 198,-1614 -123,-108 -196,-260 -204,-423 -2,-44 25,-83 64,-98 1065,-408 1993,-917 2402,-2049 12,-56 23,-113 33,-171l0 -710 100 0c81,0 139,-21 200,-42 82,-28 167,-58 300,-58 130,0 217,58 305,117 63,42 125,83 195,83 77,0 116,-20 155,-39 61,-31 122,-61 245,-61 130,0 239,25 325,60 140,56 225,140 255,181l157 213c-99,-22 -202,-41 -301,-67 -85,-23 -252,-68 -391,2 -30,15 -70,41 -111,69zm-3529 3109c2,495 -19,974 -165,1433l1560 0 0 -1086 155 103c267,178 1023,177 1290,0l155 -104 0 1087 1560 0c-147,-459 -167,-938 -165,-1433 -61,21 -127,32 -195,32 -202,0 -389,-101 -500,-268 -111,167 -298,268 -500,268 -202,0 -389,-101 -500,-268 -112,168 -298,268 -500,268 -202,0 -389,-101 -500,-268 -111,167 -298,268 -500,268 -202,0 -389,-101 -500,-268 -111,167 -298,268 -500,268 -68,0 -134,-11 -195,-32zm3795 -554c7,215 185,386 400,386 187,0 349,-129 390,-311 -658,-257 -1319,-580 -1810,-1100 10,16 19,31 29,46 279,424 622,719 936,876 42,21 56,58 55,103zm-3200 -7c0,-44 20,-79 55,-96 314,-157 657,-452 936,-876 10,-15 19,-30 29,-46 -492,520 -1152,843 -1810,1100 41,182 203,311 390,311 215,0 393,-171 400,-393zm1000 -7c0,-12 3,-24 7,-36 12,-28 23,-56 35,-85 129,-321 289,-717 381,-1223 -78,177 -168,340 -266,488 -282,430 -628,738 -953,914 29,196 198,342 396,342 221,0 400,-179 400,-400zm200 19c10,213 186,381 400,381 214,0 390,-168 400,-381l-27 -66c-124,-308 -276,-683 -373,-1156 -97,473 -249,848 -373,1156l-27 66zm1000 -19c0,221 179,400 400,400 198,0 367,-146 396,-342 -325,-176 -671,-484 -953,-914 -98,-148 -188,-311 -266,-488 92,506 252,902 381,1223 12,29 23,57 35,85 4,12 7,24 7,36z"/>
</svg>