<?xml version="1.0" encoding="UTF-8"?>
<!DOCTYPE svg PUBLIC "-//W3C//DTD SVG 1.1//EN" "http://www.w3.org/Graphics/SVG/1.1/DTD/svg11.dtd">
<svg xmlns="http://www.w3.org/2000/svg" xml:space="preserve" width="580px" height="580px" shape-rendering="geometricPrecision" text-rendering="geometricPrecision" image-rendering="optimizeQuality" fill-rule="nonzero" clip-rule="nonzero" viewBox="0 0 5800 5800" xmlns:xlink="http://www.w3.org/1999/xlink">
	<title>clapperboard_closed icon</title>
	<desc>clapperboard_closed icon from the IconExperience.com I-Collection. Copyright by INCORS GmbH (www.incors.com).</desc>
		<path id="curve28"  d="M950 2500c-83,0 -150,67 -150,150 0,83 67,150 150,150 83,0 150,-67 150,-150 0,-83 -67,-150 -150,-150zm4150 600c0,800 0,1600 0,2400l-4400 0 0 -2400 -200 0c0,-533 0,-1067 0,-1600l4800 0c0,533 0,1067 0,1600l-200 0zm-3300 -900l800 0 -500 -500 -800 0 500 500zm1600 0l800 0 -500 -500 -800 0 500 500zm1600 0l100 0 0 -500 -600 0 500 500zm-3200 200l-500 500 800 0 500 -500 -800 0zm1600 0l-500 500 800 0 500 -500 -800 0zm1600 0l-500 500 600 0 0 -500 -100 0zm-3700 1300l0 200 3200 0 0 -200 -3200 0zm0 1000l0 200 3200 0 0 -200 -3200 0zm-350 -2900c-83,0 -150,67 -150,150 0,83 67,150 150,150 83,0 150,-67 150,-150 0,-83 -67,-150 -150,-150z"/>
</svg>