<?xml version="1.0" encoding="UTF-8"?>
<!DOCTYPE svg PUBLIC "-//W3C//DTD SVG 1.1//EN" "http://www.w3.org/Graphics/SVG/1.1/DTD/svg11.dtd">
<svg xmlns="http://www.w3.org/2000/svg" xml:space="preserve" width="580px" height="580px" shape-rendering="geometricPrecision" text-rendering="geometricPrecision" image-rendering="optimizeQuality" fill-rule="nonzero" clip-rule="nonzero" viewBox="0 0 5800 5800" xmlns:xlink="http://www.w3.org/1999/xlink">
	<title>clapperboard_closed icon</title>
	<desc>clapperboard_closed icon from the IconExperience.com I-Collection. Copyright by INCORS GmbH (www.incors.com).</desc>
		<path id="curve28"  d="M950 1800c83,0 150,67 150,150 0,83 -67,150 -150,150 -83,0 -150,-67 -150,-150 0,-83 67,-150 150,-150zm4150 1300l0 2400 -4400 0 0 -2400 -200 0c0,-533 0,-1067 0,-1600l4800 0c0,533 0,1067 0,1600l-200 0zm-4200 0l0 2200 4000 0 0 -2200 -4000 0zm3959 -700l-518 0 -500 500 518 0 500 -500zm-800 0l-518 0 -500 500 518 0 500 -500zm-800 0l-518 0 -500 500 518 0 500 -500zm-800 0l-518 0 -500 500 518 0 500 -500zm-800 0l-959 0 0 500 459 0 500 -500zm2982 500l459 0 0 -459 -459 459zm-3691 -400c83,0 150,67 150,150 0,83 -67,150 -150,150 -83,0 -150,-67 -150,-150 0,-83 67,-150 150,-150zm350 1200l3200 0 0 200 -3200 0 0 -200zm0 1000l3200 0 0 200 -3200 0 0 -200zm3800 -3000l-459 0 459 459 0 -459zm-741 0l-518 0 500 500 518 0 -500 -500zm-800 0l-518 0 500 500 518 0 -500 -500zm-800 0l-518 0 500 500 518 0 -500 -500zm-800 0l-518 0 500 500 518 0 -500 -500zm-800 0l-459 0 0 500 959 0 -500 -500z"/>
</svg>