<?xml version="1.0" encoding="UTF-8"?>
<!DOCTYPE svg PUBLIC "-//W3C//DTD SVG 1.1//EN" "http://www.w3.org/Graphics/SVG/1.1/DTD/svg11.dtd">
<svg xmlns="http://www.w3.org/2000/svg" xml:space="preserve" width="580px" height="580px" shape-rendering="geometricPrecision" text-rendering="geometricPrecision" image-rendering="optimizeQuality" fill-rule="nonzero" clip-rule="nonzero" viewBox="0 0 5800 5800" xmlns:xlink="http://www.w3.org/1999/xlink">
	<title>clapperboard icon</title>
	<desc>clapperboard icon from the IconExperience.com I-Collection. Copyright by INCORS GmbH (www.incors.com).</desc>
		<path id="curve28" d="M913 1713c79,-24 163,21 187,100 24,79 -21,163 -100,187 -79,24 -163,-21 -187,-100 -24,-79 21,-163 100,-187zm387 2987l3200 0 0 200 -3200 0 0 -200zm0 -1000l3200 0 0 200 -3200 0 0 -200zm-350 -1200c83,0 150,67 150,150 0,83 -67,150 -150,150 -83,0 -150,-67 -150,-150 0,-83 67,-150 150,-150zm423 -300l3927 0c0,300 0,600 0,900l-200 0 0 2400 -4400 0 0 -2400 -200 0 0 -900 91 0 -195 -643 4592 -1394c87,287 174,573 261,860l-3876 1177zm3527 900l-4000 0 0 2200 4000 0 0 -2200zm-4200 -700l0 500 459 0 500 -500 -959 0zm4155 -1989l-440 134 574 306 -134 -440zm-710 216l-495 150 624 334 496 -150 -625 -334zm-765 232l-496 151 625 333 496 -150 -625 -334zm-766 232l-495 151 624 334 496 -151 -625 -334zm-765 233l-496 150 625 334 496 -150 -625 -334zm-766 232l-439 134 146 479 918 -279 -625 -334zm4017 885l-459 459 459 0 0 -459zm-741 459l500 -500 -518 0 -500 500 518 0zm-300 -500l-518 0 -500 500 518 0 500 -500zm-800 0l-518 0 -500 500 518 0 500 -500zm-800 0l-518 0 -500 500 518 0 500 -500z"/>
</svg>