<?xml version="1.0" encoding="UTF-8"?>
<!DOCTYPE svg PUBLIC "-//W3C//DTD SVG 1.1//EN" "http://www.w3.org/Graphics/SVG/1.1/DTD/svg11.dtd">
<svg xmlns="http://www.w3.org/2000/svg" xml:space="preserve" width="580px" height="580px" shape-rendering="geometricPrecision" text-rendering="geometricPrecision" image-rendering="optimizeQuality" fill-rule="nonzero" clip-rule="nonzero" viewBox="0 0 5800 5800" xmlns:xlink="http://www.w3.org/1999/xlink">
	<title>cleaver icon</title>
	<desc>cleaver icon from the IconExperience.com I-Collection. Copyright by INCORS GmbH (www.incors.com).</desc>
	<path id="curve0"  d="M1327 3780c111,0 200,89 200,200 0,110 -89,200 -200,200 -110,0 -200,-90 -200,-200 0,-110 90,-200 200,-200zm1273 -1639l-1768 1768c-39,39 -39,103 0,141l1082 1080c379,-260 733,-555 1057,-881 324,-325 617,-680 877,-1061l-614 -613c-101,23 -207,-7 -280,-80l-354 -354zm805 323l700 699 -45 68c-278,417 -596,805 -948,1159 -352,354 -739,673 -1155,952l-68 46 -1198 -1196c-58,-59 -88,-135 -87,-212 0,-77 29,-153 87,-212l1787 -1787c-19,-69 1,-143 51,-193l1344 -1344c221,-221 580,-221 801,0 108,108 155,253 155,396 0,154 -57,308 -155,406 -76,76 -157,127 -239,157 -92,33 -184,40 -273,25 0,1 -664,664 -726,726 48,100 36,221 -31,310zm-734 -535l424 425c39,38 103,38 141,0 16,-16 25,-34 28,-54 4,-20 1,-41 -8,-60 -18,-39 -24,-80 -17,-120 7,-40 26,-78 56,-108l725 -725c23,-23 50,-39 80,-49 30,-9 61,-12 94,-7 57,10 115,6 173,-15 55,-20 111,-57 166,-112 61,-61 96,-161 96,-264 0,-94 -29,-187 -96,-254 -144,-144 -375,-144 -519,0 -121,121 -1339,1345 -1343,1343z"/>
</svg>