<?xml version="1.0" encoding="UTF-8"?>
<!DOCTYPE svg PUBLIC "-//W3C//DTD SVG 1.1//EN" "http://www.w3.org/Graphics/SVG/1.1/DTD/svg11.dtd">
<svg xmlns="http://www.w3.org/2000/svg" xml:space="preserve" width="580px" height="580px" shape-rendering="geometricPrecision" text-rendering="geometricPrecision" image-rendering="optimizeQuality" fill-rule="nonzero" clip-rule="nonzero" viewBox="0 0 5800 5800" xmlns:xlink="http://www.w3.org/1999/xlink">
	<title>cleaver icon</title>
	<desc>cleaver icon from the IconExperience.com I-Collection. Copyright by INCORS GmbH (www.incors.com).</desc>
	<path id="curve0"  d="M691 4192c-58,-59 -88,-135 -87,-212 0,-77 29,-153 87,-212l1635 -1636c17,29 37,56 62,80l424 424c185,185 485,195 682,23 9,-7 17,-14 25,-23 10,-9 19,-20 28,-30l558 557c-298,447 -613,846 -993,1227 -380,381 -777,698 -1223,998l-1198 -1196zm2745 -2038l723 -725c198,32 376,-44 515,-183 206,-206 207,-595 0,-802 -221,-221 -580,-221 -801,0l-1344 1344c-77,77 -77,205 0,283l425 424c116,116 308,116 424,0 89,-90 113,-227 58,-341z"/>
</svg>