<?xml version="1.0" encoding="UTF-8"?>
<!DOCTYPE svg PUBLIC "-//W3C//DTD SVG 1.1//EN" "http://www.w3.org/Graphics/SVG/1.1/DTD/svg11.dtd">
<svg xmlns="http://www.w3.org/2000/svg" xml:space="preserve" width="580px" height="580px" shape-rendering="geometricPrecision" text-rendering="geometricPrecision" image-rendering="optimizeQuality" fill-rule="nonzero" clip-rule="nonzero" viewBox="0 0 5800 5800" xmlns:xlink="http://www.w3.org/1999/xlink">
	<title>clef icon</title>
	<desc>clef icon from the IconExperience.com I-Collection. Copyright by INCORS GmbH (www.incors.com).</desc>
		<path id="curve28"  d="M3172 3469c6,-54 55,-94 110,-88 55,6 94,56 88,110 -12,110 -69,195 -150,253 -23,17 -48,31 -75,43l87 513c228,-60 431,-219 553,-420 120,-197 159,-435 57,-648 -133,-278 -538,-410 -822,-319 -6,2 -13,4 -21,7l111 657c33,-26 57,-62 62,-108zm-222 362c-73,2 -148,-10 -217,-36 -114,-44 -213,-129 -263,-257 -1,-5 -12,-33 -12,-36 -56,-175 -23,-337 67,-471 62,-92 149,-169 252,-228l-94 -561c-250,148 -495,318 -639,578 -142,256 -181,629 -69,902 173,422 619,636 1059,608l-84 -499zm-302 -389c2,8 5,16 8,24 28,70 84,118 149,143 36,13 74,21 112,22l-104 -614c-49,36 -91,78 -122,125 -58,85 -79,188 -43,300zm-315 1589c12,-89 67,-137 129,-154 44,-12 91,-6 130,13 43,22 78,61 89,111 13,58 -5,125 -76,186 -9,7 -18,13 -27,17 20,22 46,40 75,55 56,27 123,42 189,41 65,0 129,-16 181,-48 85,-53 140,-158 111,-330l-66 -395c-533,42 -1068,-221 -1277,-729 -136,-330 -93,-765 78,-1074 181,-329 483,-521 779,-692l-21 -122c-10,-61 -25,-133 -39,-205 -111,-553 -226,-1129 655,-1400l79 -25 39 74c595,1123 96,1441 -494,1781l99 586c378,-117 880,58 1056,426 131,274 88,580 -67,836 -151,251 -405,444 -690,514l66 393c45,267 -53,439 -204,532 -84,52 -183,76 -283,78 -98,1 -196,-21 -280,-62 -154,-77 -259,-218 -231,-407zm499 -3106c458,-268 815,-550 391,-1403 -622,229 -529,695 -439,1144 17,86 33,172 48,259z"/>
</svg>