<?xml version="1.0" encoding="UTF-8"?>
<!DOCTYPE svg PUBLIC "-//W3C//DTD SVG 1.1//EN" "http://www.w3.org/Graphics/SVG/1.1/DTD/svg11.dtd">
<svg xmlns="http://www.w3.org/2000/svg" xml:space="preserve" width="580px" height="580px" shape-rendering="geometricPrecision" text-rendering="geometricPrecision" image-rendering="optimizeQuality" fill-rule="nonzero" clip-rule="nonzero" viewBox="0 0 5800 5800" xmlns:xlink="http://www.w3.org/1999/xlink">
	<title>clef icon</title>
	<desc>clef icon from the IconExperience.com I-Collection. Copyright by INCORS GmbH (www.incors.com).</desc>
		<path id="curve28"  d="M3172 3469c6,-54 55,-94 110,-88 55,6 94,56 88,110 -12,110 -69,195 -150,253 -23,17 -48,31 -75,43l87 513c228,-60 431,-219 553,-420 120,-197 159,-435 57,-648 -133,-278 -538,-410 -822,-319 -6,2 -13,4 -21,7l111 657c33,-26 57,-62 62,-108zm-272 -3169c102,0 203,6 302,18 -837,276 -723,842 -614,1387 14,72 29,144 39,205l21 122c-296,171 -598,363 -779,692 -171,309 -214,744 -78,1074 209,508 744,771 1277,729l66 395c29,172 -26,277 -111,330 -52,32 -116,48 -181,48 -66,1 -133,-14 -189,-41 -29,-15 -55,-33 -75,-55 9,-4 18,-10 27,-17 71,-61 89,-128 76,-186 -11,-50 -46,-89 -89,-111 -39,-19 -86,-25 -130,-13 -62,17 -117,65 -129,154 -28,189 77,330 231,407 66,32 141,53 217,59 -1380,-62 -2481,-1201 -2481,-2597 0,-1436 1164,-2600 2600,-2600zm453 39c1220,215 2147,1280 2147,2561 0,1436 -1164,2600 -2600,2600 -16,0 -31,0 -47,-1 97,-2 193,-27 274,-77 151,-93 249,-265 204,-532l-66 -393c285,-70 539,-263 690,-514 155,-256 198,-562 67,-836 -176,-368 -678,-543 -1056,-426l-99 -586c590,-340 1089,-658 494,-1781l-8 -15zm-403 3492c-73,2 -148,-10 -217,-36 -114,-44 -213,-129 -263,-257 -1,-5 -12,-33 -12,-36 -56,-175 -23,-337 67,-471 62,-92 149,-169 252,-228l-94 -561c-250,148 -495,318 -639,578 -142,256 -181,629 -69,902 173,422 619,636 1059,608l-84 -499zm-302 -389c2,8 5,16 8,24 28,70 84,118 149,143 36,13 74,21 112,22l-104 -614c-49,36 -91,78 -122,125 -58,85 -79,188 -43,300zm184 -1517c458,-268 815,-550 391,-1403 -622,229 -529,695 -439,1144 17,86 33,172 48,259z"/>
</svg>