<?xml version="1.0" encoding="UTF-8"?>
<!DOCTYPE svg PUBLIC "-//W3C//DTD SVG 1.1//EN" "http://www.w3.org/Graphics/SVG/1.1/DTD/svg11.dtd">
<svg xmlns="http://www.w3.org/2000/svg" xml:space="preserve" width="580px" height="580px" shape-rendering="geometricPrecision" text-rendering="geometricPrecision" image-rendering="optimizeQuality" fill-rule="nonzero" clip-rule="nonzero" viewBox="0 0 5800 5800" xmlns:xlink="http://www.w3.org/1999/xlink">
	<title>client_network icon</title>
	<desc>client_network icon from the IconExperience.com I-Collection. Copyright by INCORS GmbH (www.incors.com).</desc>
		<path id="curve28"  d="M1000 2700l600 0 0 -400 -1300 0 0 -2000 2800 0 0 2000 -1300 0 0 400 600 0 0 200 -1400 0 0 -200zm4500 200l0 2000 -1300 0 0 400 600 0 0 200 -1400 0c0,-67 0,-133 0,-200l600 0 0 -400 -1300 0 0 -2000 2800 0zm-4200 200l0 1700c0,165 135,300 300,300l1600 0 0 200 -1600 0c-275,0 -500,-225 -500,-500l0 -1700 200 0z"/>
</svg>