<?xml version="1.0" encoding="UTF-8"?>
<!DOCTYPE svg PUBLIC "-//W3C//DTD SVG 1.1//EN" "http://www.w3.org/Graphics/SVG/1.1/DTD/svg11.dtd">
<svg xmlns="http://www.w3.org/2000/svg" xml:space="preserve" width="580px" height="580px" shape-rendering="geometricPrecision" text-rendering="geometricPrecision" image-rendering="optimizeQuality" fill-rule="nonzero" clip-rule="nonzero" viewBox="0 0 5800 5800" xmlns:xlink="http://www.w3.org/1999/xlink">
	<title>clients icon</title>
	<desc>clients icon from the IconExperience.com I-Collection. Copyright by INCORS GmbH (www.incors.com).</desc>
		<path id="curve28" d="M3400 300l0 1800 -1200 0 0 400 600 0 0 200 -1400 0 0 -200 600 0 0 -400 -1200 0 0 -1800 2600 0zm-200 200l-2200 0 0 1400 2200 0 0 -1400zm2500 1800l0 1800 -1200 0 0 400 600 0 0 200 -1400 0 0 -200 600 0 0 -400 -1200 0 0 -1800 2600 0zm-200 200l-2200 0 0 1400 2200 0 0 -1400zm-2600 600l0 1800 -1200 0 0 400 600 0 0 200 -1400 0 0 -200 600 0 0 -400 -1200 0 0 -1800 2600 0zm-200 200l-2200 0 0 1400 2200 0 0 -1400z"/>
</svg>