<?xml version="1.0" encoding="UTF-8"?>
<!DOCTYPE svg PUBLIC "-//W3C//DTD SVG 1.1//EN" "http://www.w3.org/Graphics/SVG/1.1/DTD/svg11.dtd">
<svg xmlns="http://www.w3.org/2000/svg" xml:space="preserve" width="580px" height="580px" shape-rendering="geometricPrecision" text-rendering="geometricPrecision" image-rendering="optimizeQuality" fill-rule="nonzero" clip-rule="nonzero" viewBox="0 0 5800 5800" xmlns:xlink="http://www.w3.org/1999/xlink">
	<title>clipboard_paste icon</title>
	<desc>clipboard_paste icon from the IconExperience.com I-Collection. Copyright by INCORS GmbH (www.incors.com).</desc>
		<path id="curve28"  d="M2500 4900l-1100 0c-165,0 -300,-135 -300,-300l0 -3600c0,-165 135,-300 300,-300l100 0 0 1000 2800 0 0 -1000 100 0c165,0 300,135 300,300l0 1100 -2200 0 0 2800zm800 -2000l0 200 1600 0 0 -200 -1600 0zm0 600l0 200 1600 0 0 -200 -1600 0zm0 600l0 200 1600 0 0 -200 -1600 0zm0 600l0 200 1600 0 0 -200 -1600 0zm-1000 -4300c0,-165 135,-300 300,-300l600 0c165,0 300,135 300,300l600 0 0 1100 -2400 0 0 -1100 600 0zm-400 200l0 700 2000 0 0 -700 -600 0 0 -200c0,-55 -45,-100 -100,-100l-600 0c-55,0 -100,45 -100,100l0 200 -600 0zm3600 1700l0 3200 -2800 0 0 -3200 2800 0z"/>
</svg>