<?xml version="1.0" encoding="UTF-8"?>
<!DOCTYPE svg PUBLIC "-//W3C//DTD SVG 1.1//EN" "http://www.w3.org/Graphics/SVG/1.1/DTD/svg11.dtd">
<svg xmlns="http://www.w3.org/2000/svg" xml:space="preserve" width="580px" height="580px" shape-rendering="geometricPrecision" text-rendering="geometricPrecision" image-rendering="optimizeQuality" fill-rule="nonzero" clip-rule="nonzero" viewBox="0 0 5800 5800" xmlns:xlink="http://www.w3.org/1999/xlink">
	<title>clipboard_checks icon</title>
	<desc>clipboard_checks icon from the IconExperience.com I-Collection. Copyright by INCORS GmbH (www.incors.com).</desc>
		<path id="curve28"  d="M1200 700l300 0 0 400 -200 0 0 3600 3200 0 0 -3600 -200 0 0 -400 300 0c165,0 300,135 300,300l0 4200c0,165 -135,300 -300,300l-3400 0c-165,0 -300,-135 -300,-300l0 -4200c0,-165 135,-300 300,-300zm971 2929l529 530 1129 -1130 142 142 -1271 1270 -671 -670 142 -142zm0 -1200l529 530 1129 -1130 142 142 -1271 1270 -671 -670 142 -142zm129 -2029c0,-165 135,-300 300,-300l600 0c165,0 300,135 300,300l600 0 0 1100 -2400 0 0 -1100 600 0zm-400 200l0 700 2000 0 0 -700 -600 0 0 -200c0,-55 -45,-100 -100,-100l-600 0c-55,0 -100,45 -100,100l0 200 -600 0z"/>
</svg>