<?xml version="1.0" encoding="UTF-8"?>
<!DOCTYPE svg PUBLIC "-//W3C//DTD SVG 1.1//EN" "http://www.w3.org/Graphics/SVG/1.1/DTD/svg11.dtd">
<svg xmlns="http://www.w3.org/2000/svg" xml:space="preserve" width="580px" height="580px" shape-rendering="geometricPrecision" text-rendering="geometricPrecision" image-rendering="optimizeQuality" fill-rule="nonzero" clip-rule="nonzero" viewBox="0 0 5800 5800" xmlns:xlink="http://www.w3.org/1999/xlink">
	<title>clipboard icon</title>
	<desc>clipboard icon from the IconExperience.com I-Collection. Copyright by INCORS GmbH (www.incors.com).</desc>
		<path id="curve28"  d="M1200 700l300 0 0 400 -200 0 0 3600 3200 0 0 -3600 -200 0 0 -400 300 0c80,0 155,32 212,88 54,55 88,130 88,212l0 4200c0,165 -135,300 -300,300l-3400 0c-165,0 -300,-135 -300,-300l0 -4200c0,-80 32,-155 88,-212 55,-54 130,-88 212,-88zm600 -300l500 0c0,-165 135,-300 300,-300l600 0c165,0 300,135 300,300l600 0 0 1100 -2400 0 0 -1000 0 -100 100 0zm100 200l0 700 2000 0 0 -700 -600 0 0 -200c0,-28 -11,-53 -29,-71 -19,-18 -44,-29 -71,-29l-600 0c-55,0 -100,45 -100,100l0 200 -600 0z"/>
</svg>