<?xml version="1.0" encoding="UTF-8"?>
<!DOCTYPE svg PUBLIC "-//W3C//DTD SVG 1.1//EN" "http://www.w3.org/Graphics/SVG/1.1/DTD/svg11.dtd">
<svg xmlns="http://www.w3.org/2000/svg" xml:space="preserve" width="580px" height="580px" shape-rendering="geometricPrecision" text-rendering="geometricPrecision" image-rendering="optimizeQuality" fill-rule="nonzero" clip-rule="nonzero" viewBox="0 0 5800 5800" xmlns:xlink="http://www.w3.org/1999/xlink">
	<title>clipboard_paste_no_format icon</title>
	<desc>clipboard_paste_no_format icon from the IconExperience.com I-Collection. Copyright by INCORS GmbH (www.incors.com).</desc>
		<path id="curve28"  d="M3500 4500l200 0 0 -300 800 0 0 300 200 0 0 -319c0,-135 -23,-259 -70,-386l-188 -500c-44,-118 -154,-195 -281,-195l-122 0c-127,0 -237,77 -281,195l-188 500c-47,127 -70,251 -70,386l0 319zm983 -500l-766 0c10,-44 23,-89 40,-135l188 -500c15,-41 50,-65 94,-65l122 0c44,0 79,24 94,65l188 500c17,46 30,91 40,135zm-1983 900l-1100 0c-165,0 -300,-135 -300,-300l0 -3600c0,-165 135,-300 300,-300l100 0 0 1000 2800 0 0 -1000 100 0c165,0 300,135 300,300l0 1100 -2200 0 0 2800zm-200 -4500c0,-165 135,-300 300,-300l600 0c165,0 300,135 300,300l600 0 0 1100 -2400 0 0 -1100 600 0zm-400 200l0 700 2000 0 0 -700 -600 0 0 -200c0,-55 -45,-100 -100,-100l-600 0c-55,0 -100,45 -100,100l0 200 -600 0zm3600 1700l0 3200 -2800 0 0 -3200 2800 0z"/>
</svg>