<?xml version="1.0" encoding="UTF-8"?>
<!DOCTYPE svg PUBLIC "-//W3C//DTD SVG 1.1//EN" "http://www.w3.org/Graphics/SVG/1.1/DTD/svg11.dtd">
<svg xmlns="http://www.w3.org/2000/svg" xml:space="preserve" width="580px" height="580px" shape-rendering="geometricPrecision" text-rendering="geometricPrecision" image-rendering="optimizeQuality" fill-rule="nonzero" clip-rule="nonzero" viewBox="0 0 5800 5800" xmlns:xlink="http://www.w3.org/1999/xlink">
	<title>clipboard_paste_no_format icon</title>
	<desc>clipboard_paste_no_format icon from the IconExperience.com I-Collection. Copyright by INCORS GmbH (www.incors.com).</desc>
		<path id="curve29"  d="M2300 400c0,-165 135,-300 300,-300l600 0c165,0 300,135 300,300l600 0 0 1100 -2400 0 0 -1100 600 0zm200 4500l-1100 0c-165,0 -300,-135 -300,-300l0 -3600c0,-165 135,-300 300,-300l100 0 0 200 -100 0c-55,0 -100,45 -100,100l0 3600c0,55 45,100 100,100l1100 0 0 200zm1800 -4200l100 0c165,0 300,135 300,300l0 1100 -200 0 0 -1100c0,-55 -45,-100 -100,-100l-100 0 0 -200zm-2400 -100l0 700 2000 0 0 -700 -600 0 0 -200c0,-55 -45,-100 -100,-100l-600 0c-55,0 -100,45 -100,100l0 200 -600 0z"/>
	<path id="curve28"  d="M3717 4000l766 0c-10,-44 -23,-89 -40,-135l-188 -500c-15,-41 -50,-65 -94,-65l-122 0c-44,0 -79,24 -94,65l-188 500c-17,46 -30,91 -40,135zm1783 -1700l0 3200 -2800 0 0 -3200 2800 0zm-200 200l-2400 0 0 2800 2400 0 0 -2800zm-800 1700l-800 0 0 300 -200 0 0 -319c0,-67 6,-131 17,-196 12,-63 29,-125 53,-190l188 -500c44,-118 154,-195 281,-195l122 0c127,0 237,77 281,195l188 500c24,65 41,127 53,190 11,65 17,129 17,196l0 319 -200 0 0 -300z"/>
</svg>