<?xml version="1.0" encoding="UTF-8"?>
<!DOCTYPE svg PUBLIC "-//W3C//DTD SVG 1.1//EN" "http://www.w3.org/Graphics/SVG/1.1/DTD/svg11.dtd">
<svg xmlns="http://www.w3.org/2000/svg" xml:space="preserve" width="580px" height="580px" shape-rendering="geometricPrecision" text-rendering="geometricPrecision" image-rendering="optimizeQuality" fill-rule="nonzero" clip-rule="nonzero" viewBox="0 0 5800 5800" xmlns:xlink="http://www.w3.org/1999/xlink">
	<title>clock_forward icon</title>
	<desc>clock_forward icon from the IconExperience.com I-Collection. Copyright by INCORS GmbH (www.incors.com).</desc>
		<path id="curve28" d="M3871 1671l-1178 1177c5,17 7,34 7,52 0,110 -90,200 -200,200 -110,0 -200,-90 -200,-200 0,-18 2,-35 7,-52l-878 -877 142 -142 877 878c17,-5 34,-7 52,-7 18,0 35,2 52,7l1177 -1178 142 142zm1700 1200l-971 970 -971 -970 142 -142 729 730 0 -559c0,-1105 -895,-2000 -2000,-2000 -1105,0 -2000,895 -2000,2000 0,1105 895,2000 2000,2000 575,0 1118,-244 1499,-675l149 132c-419,474 -1016,743 -1648,743 -1215,0 -2200,-985 -2200,-2200 0,-1215 985,-2200 2200,-2200 1215,0 2200,985 2200,2200l0 559 729 -730 142 142z"/>
</svg>