<?xml version="1.0" encoding="UTF-8"?>
<!DOCTYPE svg PUBLIC "-//W3C//DTD SVG 1.1//EN" "http://www.w3.org/Graphics/SVG/1.1/DTD/svg11.dtd">
<svg xmlns="http://www.w3.org/2000/svg" xml:space="preserve" width="580px" height="580px" shape-rendering="geometricPrecision" text-rendering="geometricPrecision" image-rendering="optimizeQuality" fill-rule="nonzero" clip-rule="nonzero" viewBox="0 0 5800 5800" xmlns:xlink="http://www.w3.org/1999/xlink">
	<title>clothes_pin icon</title>
	<desc>clothes_pin icon from the IconExperience.com I-Collection. Copyright by INCORS GmbH (www.incors.com).</desc>
	<path id="curve0"  d="M3174 2327c249,0 450,201 450,450 0,266 -231,475 -496,447l-1629 -24c-55,-1 -99,-46 -99,-101 1,-55 46,-99 101,-99l1295 20c-48,-74 -72,-159 -72,-243 0,-249 202,-450 450,-450zm-747 1286c-41,40 -89,66 -141,78 -52,11 -107,7 -160,-13 -65,-24 -138,-8 -187,41 -49,49 -65,122 -41,187 20,53 24,108 13,160 -11,52 -37,100 -77,140l-175 175c-118,118 -291,182 -465,182 -165,0 -333,-57 -458,-182l-180 -169 834 -834c33,13 69,20 106,21l1128 17 -197 197zm-468 -805l2685 -2684c74,-74 183,-76 260,-9 78,67 92,176 29,260l-1396 1862c-128,-86 -279,-121 -425,-107 -348,33 -608,336 -586,687l-567 -9zm277 2731c-155,-93 -253,-245 -293,-409 -39,-165 -19,-342 63,-482l125 -213c29,-49 69,-86 117,-110 47,-24 101,-35 157,-29 69,8 136,-26 171,-86 36,-60 32,-135 -8,-191 -32,-46 -50,-99 -52,-152 -2,-53 11,-107 40,-155l172 -295c148,3 299,10 446,10 167,0 333,-64 460,-191 263,-263 250,-698 -28,-945l1451 -1821c66,-82 174,-96 259,-38 84,58 110,164 57,254l-2926 4987 -211 -134zm938 -3013c-138,1 -250,112 -250,251 0,138 112,250 250,250 138,0 250,-112 250,-250 0,-138 -112,-251 -250,-251z"/>
</svg>