<?xml version="1.0" encoding="UTF-8"?>
<!DOCTYPE svg PUBLIC "-//W3C//DTD SVG 1.1//EN" "http://www.w3.org/Graphics/SVG/1.1/DTD/svg11.dtd">
<svg xmlns="http://www.w3.org/2000/svg" xml:space="preserve" width="580px" height="580px" shape-rendering="geometricPrecision" text-rendering="geometricPrecision" image-rendering="optimizeQuality" fill-rule="nonzero" clip-rule="nonzero" viewBox="0 0 5800 5800" xmlns:xlink="http://www.w3.org/1999/xlink">
	<title>clothes_pin icon</title>
	<desc>clothes_pin icon from the IconExperience.com I-Collection. Copyright by INCORS GmbH (www.incors.com).</desc>
	<path id="curve0" d="M2380 5394l1287 -2193c53,-61 92,-130 118,-202l1362 -2322 -1411 1772c-28,-47 -62,-92 -102,-132 -9,-9 -18,-18 -28,-26l1451 -1821c148,-185 436,12 316,216l-2926 4987 -211 -134c-294,-175 -403,-596 -230,-891l125 -213c57,-97 162,-150 274,-139 69,8 136,-26 171,-86 36,-60 32,-135 -8,-191 -65,-93 -70,-210 -12,-307l172 -295 233 4 -15 18 -219 373c-17,30 -16,63 4,92 85,120 92,280 17,407 -74,127 -216,199 -363,184 -35,-4 -65,11 -82,41l-125 212c-114,194 -46,480 139,606l63 40zm794 -3067c249,0 450,201 450,450 0,248 -201,450 -450,450l-1675 -27c-55,-1 -99,-46 -99,-101 1,-55 46,-99 101,-99l1295 20c-48,-74 -72,-159 -72,-243 0,-249 202,-450 450,-450zm0 199c-138,1 -250,112 -250,251 0,138 112,250 250,250 138,0 250,-112 250,-250 0,-138 -112,-251 -250,-251zm-2618 1686l834 -834c33,13 69,20 106,21l153 2 -806 806 35 32c166,166 475,165 640,0l174 -174c25,-24 32,-57 20,-89 -52,-138 -19,-294 86,-399 104,-104 260,-138 398,-86 32,12 65,5 89,-19l61 -60 278 4 -197 197c-81,80 -195,105 -301,65 -65,-24 -138,-8 -187,41 -49,49 -65,122 -41,187 40,106 16,220 -64,300l-175 175c-243,243 -680,243 -923,0l-180 -169zm1403 -1404l2685 -2684c167,-168 431,62 289,251l-1396 1862c-58,-38 -120,-67 -185,-85l1357 -1811 -1893 1893c-73,48 -136,111 -184,184l-394 394 -279 -4z"/>
</svg>