<?xml version="1.0" encoding="UTF-8"?>
<!DOCTYPE svg PUBLIC "-//W3C//DTD SVG 1.1//EN" "http://www.w3.org/Graphics/SVG/1.1/DTD/svg11.dtd">
<svg xmlns="http://www.w3.org/2000/svg" xml:space="preserve" width="580px" height="580px" shape-rendering="geometricPrecision" text-rendering="geometricPrecision" image-rendering="optimizeQuality" fill-rule="nonzero" clip-rule="nonzero" viewBox="0 0 5800 5800" xmlns:xlink="http://www.w3.org/1999/xlink">
	<title>cloud_dark icon</title>
	<desc>cloud_dark icon from the IconExperience.com I-Collection. Copyright by INCORS GmbH (www.incors.com).</desc>
		<path id="curve28"  d="M300 3565c0,-522 278,-903 767,-1077 -1,-6 -3,-67 -2,-67 0,-712 493,-1247 1201,-1314 52,-4 103,-7 152,-7 482,0 820,209 1112,578 346,-121 734,-77 1025,152 325,256 432,657 376,1056 377,173 569,448 569,869 0,528 -437,945 -961,945l-3085 0c-629,0 -1154,-501 -1154,-1135z"/>
</svg>