<?xml version="1.0" encoding="UTF-8"?>
<!DOCTYPE svg PUBLIC "-//W3C//DTD SVG 1.1//EN" "http://www.w3.org/Graphics/SVG/1.1/DTD/svg11.dtd">
<svg xmlns="http://www.w3.org/2000/svg" xml:space="preserve" width="580px" height="580px" shape-rendering="geometricPrecision" text-rendering="geometricPrecision" image-rendering="optimizeQuality" fill-rule="nonzero" clip-rule="nonzero" viewBox="0 0 5800 5800" xmlns:xlink="http://www.w3.org/1999/xlink">
	<title>cloud_upload icon</title>
	<desc>cloud_upload icon from the IconExperience.com I-Collection. Copyright by INCORS GmbH (www.incors.com).</desc>
		<path id="curve28"  d="M1454 3900c-629,0 -1154,-501 -1154,-1135 0,-522 278,-903 767,-1077 -35,-737 466,-1312 1199,-1381 52,-4 103,-7 152,-7 482,0 820,209 1112,578 346,-121 734,-77 1025,152 325,256 432,657 376,1056 377,173 569,448 569,869 0,528 -437,945 -961,945 -503,0 -375,-1 -1339,-1l0 -975 488 488c78,78 205,78 283,0l141 -141c78,-78 78,-205 0,-283l-1071 -1071c-77,-78 -205,-78 -282,0l-1071 1071c-78,78 -78,205 0,283l141 141c78,78 205,78 283,0l488 -488 0 976 -1146 0zm1346 1200l0 -2659 -829 830 -142 -142 1071 -1070 1071 1070 -142 142 -829 -830 0 2659 -200 0z"/>
</svg>