<?xml version="1.0" encoding="UTF-8"?>
<!DOCTYPE svg PUBLIC "-//W3C//DTD SVG 1.1//EN" "http://www.w3.org/Graphics/SVG/1.1/DTD/svg11.dtd">
<svg xmlns="http://www.w3.org/2000/svg" xml:space="preserve" width="580px" height="580px" shape-rendering="geometricPrecision" text-rendering="geometricPrecision" image-rendering="optimizeQuality" fill-rule="nonzero" clip-rule="nonzero" viewBox="0 0 5800 5800" xmlns:xlink="http://www.w3.org/1999/xlink">
	<title>cloud_flash icon</title>
	<desc>cloud_flash icon from the IconExperience.com I-Collection. Copyright by INCORS GmbH (www.incors.com).</desc>
		<path id="curve28"  d="M2171 4529l729 730 0 -1498 -800 400 0 -1461 200 0 0 1139 800 -400 0 1820 729 -730 142 142 -971 970 -971 -970 142 -142zm-717 -629c-629,0 -1154,-501 -1154,-1135 0,-522 278,-903 767,-1077 -35,-737 466,-1312 1199,-1381 52,-4 103,-7 152,-7 482,0 820,209 1112,578 346,-121 734,-77 1025,152 325,256 432,657 376,1056 377,173 569,448 569,869 0,528 -437,945 -961,945 -485,0 -383,-1 -1239,-1l0 -460c0,-72 -34,-133 -95,-170 -61,-38 -131,-41 -194,-9l-511 255 0 -815c0,-110 -90,-200 -200,-200l-200 0c-110,0 -200,90 -200,200l0 1200 -446 0z"/>
</svg>