<?xml version="1.0" encoding="UTF-8"?>
<!DOCTYPE svg PUBLIC "-//W3C//DTD SVG 1.1//EN" "http://www.w3.org/Graphics/SVG/1.1/DTD/svg11.dtd">
<svg xmlns="http://www.w3.org/2000/svg" xml:space="preserve" width="580px" height="580px" shape-rendering="geometricPrecision" text-rendering="geometricPrecision" image-rendering="optimizeQuality" fill-rule="nonzero" clip-rule="nonzero" viewBox="0 0 5800 5800" xmlns:xlink="http://www.w3.org/1999/xlink">
	<title>cloud_updown icon</title>
	<desc>cloud_updown icon from the IconExperience.com I-Collection. Copyright by INCORS GmbH (www.incors.com).</desc>
		<path id="curve29"  d="M500 2765c0,524 434,935 954,935l46 0 0 200 -46 0c-629,0 -1154,-501 -1154,-1135 0,-522 278,-903 767,-1077 -1,-6 -3,-67 -2,-67 0,-712 493,-1247 1201,-1314 52,-4 103,-7 152,-7 482,0 820,209 1112,578 346,-121 734,-77 1025,152 325,256 432,657 376,1056 377,173 569,448 569,869 0,528 -437,945 -961,945l-139 0 0 -200 139 0c414,0 761,-327 761,-745 0,-376 -178,-579 -517,-716l-77 -31 16 -80c66,-348 0,-713 -290,-941 -256,-201 -602,-222 -898,-97l-72 30 -46 -62c-260,-350 -549,-558 -998,-558 -49,0 -93,2 -134,6 -604,57 -1020,507 -1020,1115 1,0 6,117 7,128l7 82 -78 23c-443,133 -700,443 -700,911zm2900 1135l-900 0 0 -200 900 0 0 200z"/>
	<path id="curve28"  d="M1900 5100l0 -2659 -829 830 -142 -142 1071 -1070 1071 1070 -142 142 -829 -830 0 2659 -200 0zm1071 -971l829 830 0 -2659 200 0 0 2659 829 -830 142 142 -1071 1070 -1071 -1070 142 -142z"/>
</svg>