<?xml version="1.0" encoding="UTF-8" standalone="no"?>
<svg
   xml:space="preserve"
   width="580px"
   height="580px"
   shape-rendering="geometricPrecision"
   text-rendering="geometricPrecision"
   image-rendering="optimizeQuality"
   fill-rule="nonzero"
   clip-rule="nonzero"
   viewBox="0 0 5800 5800"
   version="1.1"
   id="svg1"
   sodipodi:docname="cloud_sleet.svg"
   inkscape:version="1.3 (0e150ed6c4, 2023-07-21)"
   xmlns:inkscape="http://www.inkscape.org/namespaces/inkscape"
   xmlns:sodipodi="http://sodipodi.sourceforge.net/DTD/sodipodi-0.dtd"
   xmlns="http://www.w3.org/2000/svg"
   xmlns:svg="http://www.w3.org/2000/svg"
   xmlns:rdf="http://www.w3.org/1999/02/22-rdf-syntax-ns#"
   xmlns:cc="http://creativecommons.org/ns#"
   xmlns:dc="http://purl.org/dc/elements/1.1/"><defs
   id="defs1" /><sodipodi:namedview
   id="namedview1"
   pagecolor="#ffffff"
   bordercolor="#000000"
   borderopacity="0.25"
   inkscape:showpageshadow="2"
   inkscape:pageopacity="0.0"
   inkscape:pagecheckerboard="0"
   inkscape:deskcolor="#d1d1d1"
   inkscape:zoom="1.3396552"
   inkscape:cx="290"
   inkscape:cy="349.71686"
   inkscape:window-width="1920"
   inkscape:window-height="991"
   inkscape:window-x="-9"
   inkscape:window-y="1341"
   inkscape:window-maximized="1"
   inkscape:current-layer="svg1" />&#10;	<title
   id="title1">cloud_rain icon</title>&#10;	<desc
   id="desc1">cloud_rain icon from the IconExperience.com I-Collection. Copyright by INCORS GmbH (www.incors.com).</desc>&#10;		<path
   id="curve29"
   d="M500 2765c0,348 194,659 498,822 -31,61 -54,124 -70,188 -382,-193 -628,-578 -628,-1010 0,-522 278,-903 767,-1077 -1,-6 -3,-67 -2,-67 0,-712 493,-1247 1201,-1314 52,-4 103,-7 152,-7 482,0 820,209 1112,578 346,-121 734,-77 1025,152 325,256 432,657 376,1056 377,173 569,448 569,869 0,465 -342,853 -796,931 -1,-67 -4,-135 -7,-202 347,-72 603,-371 603,-729 0,-376 -178,-579 -517,-716l-77 -31 16 -80c66,-348 0,-713 -290,-941 -256,-201 -602,-222 -898,-97l-72 30 -46 -62c-260,-350 -549,-558 -998,-558 -49,0 -93,2 -134,6 -604,57 -1020,507 -1020,1115 1,0 6,117 7,128l7 82 -78 23c-443,133 -700,443 -700,911z" />&#10;	<path
   id="curve28"
   style="stroke-width:0.750453"
   d="m 2144.7666,3258.0662 -125.332,82.5586 c -105.0632,69.0414 -197.3747,117.8269 -276.1719,159.1015 -142.5855,74.2946 -245.3882,128.3105 -307.6758,235.625 -103.5622,179.3576 -42.0336,409.0159 137.3243,512.5781 179.3577,103.5622 408.9964,42.0139 512.5586,-137.3437 62.2873,-107.3145 57.0469,-223.6419 50.2929,-384.2383 -3.7523,-89.3036 -7.5046,-193.6004 0,-318.9258 z m -162.8515,282.1679 c -0.7504,70.5426 2.2409,134.3443 4.4922,192.1289 6.0037,135.0812 9.7626,233.3917 -30.7618,303.1836 -62.2873,107.3144 -200.3615,144.8264 -307.6757,82.5391 -107.3145,-62.2876 -144.8462,-200.3614 -82.5586,-307.6758 40.5242,-70.5423 127.5728,-115.5753 246.8945,-178.6133 51.0305,-26.2656 108.0723,-56.2912 169.6094,-91.5625 z" /><path
   id="curve28-7"
   style="stroke-width:0.675873"
   d="m 2250.3121,4394.7748 -112.8762,74.3538 c -94.6219,62.1801 -177.7595,106.1171 -248.7258,143.2899 -128.4152,66.9112 -221.0012,115.5588 -277.0987,212.2083 -93.2699,161.5329 -37.8561,368.3674 123.677,461.6375 161.5329,93.2701 368.3499,37.8387 461.62,-123.6942 56.0971,-96.6495 51.3775,-201.4163 45.2948,-346.0525 -3.3796,-80.4285 -6.759,-174.36 0,-287.2305 z m -146.6671,254.1258 c -0.6758,63.532 2.0181,120.993 4.0459,173.0348 5.4069,121.6568 8.7923,210.1972 -27.7048,273.053 -56.0971,96.6493 -180.4493,130.4334 -277.0986,74.3363 -96.6495,-56.0975 -130.4512,-180.4493 -74.3537,-277.0987 36.4969,-63.5316 114.8944,-104.0893 222.3577,-160.8625 45.9592,-23.6553 97.3321,-50.697 152.7535,-82.4629 z" /><path
   id="curve28-7-4"
   style="stroke-width:0.750453"
   d="m 4421.2331,4097.0399 -125.332,82.5586 c -105.0632,69.0414 -197.3747,117.8269 -276.1719,159.1015 -142.5855,74.2946 -245.3882,128.3105 -307.6758,235.625 -103.5622,179.3576 -42.0336,409.0159 137.3243,512.5781 179.3577,103.5622 408.9964,42.0139 512.5586,-137.3437 62.2873,-107.3145 57.0469,-223.6419 50.2929,-384.2383 -3.7523,-89.3036 -7.5046,-193.6004 0,-318.9258 z m -162.8515,282.1679 c -0.7504,70.5426 2.2409,134.3443 4.4922,192.1289 6.0037,135.0812 9.7626,233.3917 -30.7618,303.1836 -62.2873,107.3144 -200.3615,144.8264 -307.6757,82.5391 -107.3145,-62.2876 -144.8462,-200.3614 -82.5586,-307.6758 40.5242,-70.5423 127.5728,-115.5753 246.8945,-178.6133 51.0305,-26.2656 108.0723,-56.2912 169.6094,-91.5625 z" />&#10;<path
   id="curve28-5"
   style="stroke-width:0.518153"
   d="m 2644.3572,3844.9041 c -53.8879,0 -98.4446,41.4481 -103.108,94.2997 -48.1881,-22.2805 -106.2264,-4.1424 -133.1703,41.9731 l -51.8155,89.64 c -14.5083,24.8713 -17.6078,51.3014 -10.3536,78.7634 6.2178,24.3532 20.2079,44.0423 40.4158,58.0325 -43.0065,30.5708 -57.0062,89.6391 -30.0622,136.2727 l 51.3044,89.6401 c 14.5081,24.8712 35.2349,40.9358 63.2151,48.19 24.3531,6.7359 48.1857,4.6573 70.4663,-5.7058 4.6634,52.8515 49.2201,94.3116 103.108,94.3116 h 103.631 c 53.8878,0 98.4566,-41.4601 103.12,-94.3116 48.1881,22.2804 106.2145,4.1543 133.1584,-41.9612 l 51.8155,-89.64 c 14.5081,-24.8714 17.6196,-51.3014 10.3654,-78.7635 -6.2177,-24.353 -20.2079,-44.0422 -40.4158,-58.0323 43.0065,-30.571 56.9942,-89.6391 30.0504,-136.2729 l -51.2925,-89.64 c -14.5083,-24.8714 -35.235,-40.9358 -63.2152,-48.19 -24.3531,-6.7359 -48.1857,-4.6691 -70.4662,5.6939 -4.6634,-52.8516 -49.2322,-94.2998 -103.12,-94.2997 z m 0,103.631 h 103.631 v 169.4376 l 146.6383,-84.4573 51.8155,89.117 -147.1494,84.9804 147.1494,84.9803 -51.8155,89.117 -146.6383,-84.4574 v 169.4377 h -103.631 v -169.4377 l -146.6383,84.4574 -51.8155,-89.117 147.1613,-84.9803 -147.1613,-84.9804 51.8155,-89.117 146.6383,84.4573 z" /><path
   id="curve28-5-2"
   style="stroke-width:0.851363"
   d="m 3608.2219,2995.3796 c -88.5418,0 -161.7518,68.1023 -169.4141,154.9414 -79.1765,-36.6086 -174.5377,-6.8063 -218.8086,68.9648 l -85.1367,147.2852 c -23.8382,40.8653 -28.9308,84.292 -17.0117,129.414 10.2164,40.0141 33.2031,72.3648 66.4062,95.3516 -70.6629,50.2302 -93.6654,147.2837 -49.3945,223.9062 l 84.2969,147.2852 c 23.838,40.8653 57.8936,67.2606 103.8671,79.1797 40.014,11.0677 79.1727,7.6523 115.7813,-9.375 7.6623,86.8389 80.8723,154.9609 169.4141,154.9609 h 170.2734 c 88.5416,0 161.7713,-68.122 169.4336,-154.9609 79.1766,36.6084 174.5183,6.8258 218.7891,-68.9453 l 85.1367,-147.2852 c 23.8379,-40.8655 28.9503,-84.2919 17.0312,-129.4141 -10.2163,-40.0139 -33.2032,-72.3647 -66.4062,-95.3515 70.6629,-50.2304 93.6456,-147.2836 49.375,-223.9063 l -84.2774,-147.2851 c -23.8382,-40.8655 -57.8936,-67.2606 -103.8672,-79.1797 -40.0139,-11.0677 -79.1726,-7.6718 -115.7812,9.3555 -7.6623,-86.8391 -80.892,-154.9415 -169.4336,-154.9414 z m 0,170.2734 h 170.2734 v 278.3984 l 240.9375,-138.7695 85.1367,146.4258 -241.7773,139.6289 241.7773,139.6289 -85.1367,146.4258 -240.9375,-138.7696 v 278.3985 h -170.2734 v -278.3985 l -240.9375,138.7696 -85.1368,-146.4258 241.7969,-139.6289 -241.7969,-139.6289 85.1368,-146.4258 240.9375,138.7695 z" /><path
   id="curve28-5-8"
   style="stroke-width:0.49084"
   d="m 3181.4717,4712.2393 c -51.0475,0 -93.2556,39.2633 -97.6732,89.3291 -45.648,-21.1061 -100.627,-3.9241 -126.1507,39.7606 l -49.0843,84.915 c -13.7435,23.5603 -16.6796,48.5973 -9.8078,74.6117 5.8901,23.0695 19.1427,41.7208 38.2855,54.9735 -40.7397,28.9595 -54.0014,84.9142 -28.4777,129.0897 l 48.6001,84.9151 c 13.7434,23.5603 33.3777,38.7781 59.883,45.6498 23.0695,6.3809 45.6458,4.4119 66.7519,-5.405 4.4176,50.0657 46.6257,89.3404 97.6732,89.3404 h 98.1685 c 51.0473,0 93.2668,-39.2747 97.6844,-89.3404 45.648,21.106 100.6158,3.9353 126.1395,-39.7493 l 49.0843,-84.9151 c 13.7433,-23.5604 16.6908,-48.5972 9.819,-74.6117 -5.89,-23.0694 -19.1428,-41.7208 -38.2854,-54.9735 40.7396,-28.9595 53.9899,-84.9141 28.4664,-129.0897 l -48.5889,-84.915 c -13.7435,-23.5604 -33.3777,-38.7781 -59.883,-45.6499 -23.0694,-6.3809 -45.6458,-4.423 -66.7519,5.3938 -4.4176,-50.0658 -46.6371,-89.3292 -97.6844,-89.3291 z m 0,98.1685 h 98.1685 v 160.5064 l 138.9089,-80.0054 49.0842,84.4195 -139.393,80.5009 139.393,80.501 -49.0842,84.4195 -138.9089,-80.0055 v 160.5064 h -98.1685 v -160.5064 l -138.9089,80.0055 -49.0843,-84.4195 139.4043,-80.501 -139.4043,-80.5009 49.0843,-84.4195 138.9089,80.0054 z" /><metadata
   id="metadata9"><rdf:RDF><cc:Work
       rdf:about=""><dc:title>cloud_rain icon</dc:title></cc:Work></rdf:RDF></metadata></svg>
