<?xml version="1.0" encoding="UTF-8"?>
<!DOCTYPE svg PUBLIC "-//W3C//DTD SVG 1.1//EN" "http://www.w3.org/Graphics/SVG/1.1/DTD/svg11.dtd">
<svg xmlns="http://www.w3.org/2000/svg" xml:space="preserve" width="580px" height="580px" shape-rendering="geometricPrecision" text-rendering="geometricPrecision" image-rendering="optimizeQuality" fill-rule="nonzero" clip-rule="nonzero" viewBox="0 0 5800 5800" xmlns:xlink="http://www.w3.org/1999/xlink">
	<title>cloud_rain icon</title>
	<desc>cloud_rain icon from the IconExperience.com I-Collection. Copyright by INCORS GmbH (www.incors.com).</desc>
		<path id="curve29"  d="M500 2765c0,348 194,659 498,822 -31,61 -54,124 -70,188 -382,-193 -628,-578 -628,-1010 0,-522 278,-903 767,-1077 -1,-6 -3,-67 -2,-67 0,-712 493,-1247 1201,-1314 52,-4 103,-7 152,-7 482,0 820,209 1112,578 346,-121 734,-77 1025,152 325,256 432,657 376,1056 377,173 569,448 569,869 0,465 -342,853 -796,931 -1,-67 -4,-135 -7,-202 347,-72 603,-371 603,-729 0,-376 -178,-579 -517,-716l-77 -31 16 -80c66,-348 0,-713 -290,-941 -256,-201 -602,-222 -898,-97l-72 30 -46 -62c-260,-350 -549,-558 -998,-558 -49,0 -93,2 -134,6 -604,57 -1020,507 -1020,1115 1,0 6,117 7,128l7 82 -78 23c-443,133 -700,443 -700,911z"/>
	<path id="curve28"  d="M3100 4313c-10,167 -5,306 0,425 9,214 16,369 -67,512 -138,239 -444,321 -683,183 -239,-138 -321,-444 -183,-683 83,-143 220,-215 410,-314 105,-55 228,-120 368,-212l167 -110 -12 199zm-199 433c-3,-77 -7,-162 -6,-256 -82,47 -158,87 -226,122 -159,84 -275,144 -329,238 -83,143 -33,327 110,410 143,83 327,33 410,-110 54,-93 49,-224 41,-404zm-601 -1440c-10,166 -5,306 0,425 9,214 16,369 -67,512 -138,239 -444,321 -683,183 -239,-138 -321,-444 -183,-683 83,-143 220,-215 410,-314 105,-55 228,-120 368,-212l167 -110 -12 199zm-199 433c-3,-77 -7,-162 -6,-257 -82,48 -158,87 -226,123 -159,84 -275,144 -329,238 -83,143 -33,327 110,410 143,83 327,33 410,-110 54,-93 49,-224 41,-404zm2199 -426c-10,167 -5,306 0,425 9,214 16,369 -67,512 -138,239 -444,321 -683,183 -239,-138 -321,-444 -183,-683 83,-143 220,-215 410,-314 105,-55 228,-120 368,-212l167 -110 -12 199zm-199 433c-3,-77 -7,-162 -6,-256 -82,47 -158,87 -226,122 -159,84 -275,144 -329,238 -83,143 -33,327 110,410 72,41 153,50 228,30 74,-20 141,-68 182,-140 54,-93 49,-224 41,-404z"/>
</svg>