<?xml version="1.0" encoding="UTF-8"?>
<!DOCTYPE svg PUBLIC "-//W3C//DTD SVG 1.1//EN" "http://www.w3.org/Graphics/SVG/1.1/DTD/svg11.dtd">
<svg xmlns="http://www.w3.org/2000/svg" xml:space="preserve" width="580px" height="580px" shape-rendering="geometricPrecision" text-rendering="geometricPrecision" image-rendering="optimizeQuality" fill-rule="nonzero" clip-rule="nonzero" viewBox="0 0 5800 5800" xmlns:xlink="http://www.w3.org/1999/xlink">
	<title>cloud_snow icon</title>
	<desc>cloud_snow icon from the IconExperience.com I-Collection. Copyright by INCORS GmbH (www.incors.com).</desc>
		<path id="curve29" d="M500 2765c0,524 434,935 954,935l367 0c-7,67 -3,134 12,200l-379 0c-629,0 -1154,-501 -1154,-1135 0,-522 278,-903 767,-1077 -1,-6 -3,-67 -2,-67 0,-712 493,-1247 1201,-1314 52,-4 103,-7 152,-7 482,0 820,209 1112,578 346,-121 734,-77 1025,152 325,256 432,657 376,1056 377,173 569,448 569,869 0,528 -437,945 -961,945l-571 0c15,-65 19,-133 12,-200l559 0c414,0 761,-327 761,-745 0,-376 -178,-579 -517,-716l-77 -31 16 -80c66,-348 0,-713 -290,-941 -256,-201 -602,-222 -898,-97l-72 30 -46 -62c-260,-350 -549,-558 -998,-558 -49,0 -93,2 -134,6 -604,57 -1020,507 -1020,1115 1,0 6,117 7,128l7 82 -78 23c-443,133 -700,443 -700,911z"/>
	<path id="curve28" d="M1999 4282c43,-20 89,-24 136,-11 54,14 94,45 122,93l99 173c52,90 25,204 -58,263 39,27 66,65 78,112 14,53 8,104 -20,152l-100 173c-52,89 -164,124 -257,81 -9,102 -95,182 -199,182l-200 0c-104,0 -190,-80 -199,-182 -43,20 -89,24 -136,11 -54,-14 -94,-45 -122,-93l-99 -173c-52,-90 -25,-204 58,-263 -39,-27 -66,-65 -78,-112 -14,-53 -8,-104 20,-152l100 -173c52,-89 164,-124 257,-81 9,-102 95,-182 199,-182l200 0c104,0 190,80 199,182zm-199 18l-200 0 0 327 -283 -163 -100 172 284 164 -284 164 100 172 283 -163 0 327 200 0 0 -327 283 163 100 -172 -284 -164 284 -164 -100 -172 -283 163 0 -327zm2599 -18c43,-20 89,-24 136,-11 54,14 94,45 122,93l99 173c52,90 25,204 -58,263 39,27 66,65 78,112 14,53 8,104 -20,152l-100 173c-52,89 -164,124 -257,81 -9,102 -95,182 -199,182l-200 0c-104,0 -190,-80 -199,-182 -43,20 -89,24 -136,11 -54,-14 -94,-45 -122,-93l-99 -173c-52,-90 -25,-204 58,-263 -39,-27 -66,-65 -78,-112 -14,-53 -8,-104 20,-152l100 -173c52,-89 164,-124 257,-81 9,-102 95,-182 199,-182l200 0c104,0 190,80 199,182zm-199 18l-200 0 0 327 -283 -163 -100 172 284 164 -284 164 100 172 283 -163 0 327 200 0 0 -327 283 163 100 -172 -284 -164 284 -164 -100 -172 -283 163 0 -327zm-1001 -1218c43,-20 89,-24 136,-11 54,14 94,45 122,93l99 173c52,90 25,204 -58,263 39,27 66,65 78,112 14,53 8,104 -20,152l-100 173c-52,89 -164,124 -257,81 -9,102 -95,182 -199,182l-200 0c-104,0 -190,-80 -199,-182 -43,20 -89,24 -136,11 -54,-14 -94,-45 -122,-93l-99 -173c-52,-90 -25,-204 58,-263 -39,-27 -66,-65 -78,-112 -14,-53 -8,-104 20,-152l100 -173c52,-89 164,-124 257,-81 9,-102 95,-182 199,-182l200 0c104,0 190,80 199,182zm-199 18l-200 0 0 327 -283 -163 -100 172 284 164 -284 164 100 172 283 -163 0 327 200 0 0 -327 283 163 100 -172 -284 -164 284 -164 -100 -172 -283 163 0 -327z"/>
</svg>