<?xml version="1.0" encoding="UTF-8" standalone="no"?>
<svg
   xml:space="preserve"
   width="580px"
   height="580px"
   shape-rendering="geometricPrecision"
   text-rendering="geometricPrecision"
   image-rendering="optimizeQuality"
   fill-rule="nonzero"
   clip-rule="nonzero"
   viewBox="0 0 5800 5800"
   version="1.1"
   id="svg1"
   sodipodi:docname="cloud_foggy.svg"
   inkscape:version="1.3 (0e150ed6c4, 2023-07-21)"
   xmlns:inkscape="http://www.inkscape.org/namespaces/inkscape"
   xmlns:sodipodi="http://sodipodi.sourceforge.net/DTD/sodipodi-0.dtd"
   xmlns="http://www.w3.org/2000/svg"
   xmlns:svg="http://www.w3.org/2000/svg"
   xmlns:rdf="http://www.w3.org/1999/02/22-rdf-syntax-ns#"
   xmlns:cc="http://creativecommons.org/ns#"
   xmlns:dc="http://purl.org/dc/elements/1.1/"><defs
   id="defs1"><clipPath
     clipPathUnits="userSpaceOnUse"
     id="clipPath22"><g
       inkscape:label="Clip"
       id="use22"><path
         id="path28"
         style="display:inline;fill:#000000"
         inkscape:label="path20"
         d="m 2408.2812,4454.1992 c -0.2965,0.1267 -0.6031,0.221 -0.8984,0.3516 -3.2626,1.6157 -6.3554,3.5581 -9.5703,5.2734 -2.2338,3.1175 -4.769,5.9402 -7.168,8.9063 l 0.5469,1.4257 z m -640.9374,443.2617 c 21.9593,18.3257 46.2825,34.1031 60.8203,38.711 3.6864,1.1685 12.5194,2.2347 23.8086,3.2422 -14.2187,-4.8226 -28.1463,-10.4237 -41.5039,-17.4219 -4.6174,-2.4512 -9.2763,-4.8273 -13.8477,-7.3633 -9.8894,-5.4861 -19.4686,-11.5328 -29.2773,-17.168 z m 63.789,204.5703 -5.0586,25.2344 30.332,7.5586 c -2.4471,-3.6017 -4.1232,-7.7998 -5.8007,-11.6992 -2.9962,-6.9643 -5.9108,-13.9661 -8.8477,-20.957 -3.2506,-0.1068 -6.5029,-0.2208 -9.7656,-0.1172 -0.3058,0.01 -0.5587,-0.024 -0.8594,-0.02 z m 670.1563,78.1641 c -55.895,0.015 -89.067,6.8108 -178.5938,29.2383 -194.9678,48.8408 -257.8402,49.4302 -454.5703,4.2383 -21.0288,-4.8307 -26.8818,-0.8977 -36.4648,24.4922 -11.3402,30.0429 -11.1192,30.342 35.039,45.3515 25.5522,8.3088 68.9649,19.542 96.4649,24.9805 86.8927,17.1843 248.4938,5.5268 355,-25.6055 119.3895,-34.8977 294.7721,-39.6832 398.9843,-10.8984 35.1953,9.7213 65.53,16.1497 67.4024,14.2773 1.8724,-1.8724 6.1209,-16.9713 9.4336,-33.5351 5.8745,-29.3721 4.5738,-30.5514 -52.4024,-47.8125 -33.9832,-10.2955 -106.7114,-19.8358 -173.8867,-22.8125 -26.6063,-1.179 -47.7751,-1.919 -66.4062,-1.9141 z" /></g></clipPath></defs><sodipodi:namedview
   id="namedview1"
   pagecolor="#ffffff"
   bordercolor="#000000"
   borderopacity="0.25"
   inkscape:showpageshadow="2"
   inkscape:pageopacity="0.0"
   inkscape:pagecheckerboard="0"
   inkscape:deskcolor="#d1d1d1"
   inkscape:zoom="1.3396552"
   inkscape:cx="311.27413"
   inkscape:cy="369.8713"
   inkscape:window-width="1920"
   inkscape:window-height="991"
   inkscape:window-x="-9"
   inkscape:window-y="1341"
   inkscape:window-maximized="1"
   inkscape:current-layer="svg1" />&#10;	<title
   id="title1">cloud icon</title>&#10;	<desc
   id="desc1">cloud icon from the IconExperience.com I-Collection. Copyright by INCORS GmbH (www.incors.com).</desc>&#10;		<path
   id="curve28"
   d="m 544.78764,2788.6808 c 0,524 434,935 954.00016,935 h 3085 c 414,0 761,-327 761,-745 0,-376 -178,-579 -517,-716 l -77,-31 16,-80 c 66,-348 0,-713 -290,-941 -256,-201 -602,-221.99998 -898,-97 l -72,30 -46,-62.9999 c -260,-349.00008 -549,-557.00008 -998,-557.00008 -49,0 -93,2 -134,6 -604,57 -1020,506.99998 -1020,1114.99998 1,0 6,117 7,128 l 7,82 -78,23 c -443.00016,133 -700.00016,443 -700.00016,911 z m -200,0 c 0,-522 278,-903 767.00016,-1077 -1,-6 -3,-67 -2,-67 0,-711.99998 493,-1246.99998 1201,-1313.99998 52,-4 103,-7 152,-7 482,0 820,209 1112,578 346,-121 734,-77 1025,152.00008 325,255.9999 432,656.9999 376,1055.9999 377,173 569,448 569,869 0,528 -437,945 -961,945 h -3085 c -629.00016,0 -1154.00016,-501 -1154.00016,-1135 z"
   style="display:inline"
   inkscape:label="curve28" />&#10;<path
   id="path21-1"
   style="display:inline;fill:#000000;stroke-width:3.54841;fill-opacity:1"
   inkscape:label="path20"
   d="m 3723.9044,4120.2211 c -213.199,0.049 -339.7275,22.4828 -681.2063,96.5174 -743.659,161.2255 -983.4764,163.1711 -1733.8574,13.9909 -80.2096,-15.9465 -102.5357,-2.9634 -139.0868,80.8502 -43.2547,99.1725 -42.4106,100.1608 133.6484,149.708 97.4633,27.4279 263.0513,64.5094 367.944,82.4623 331.4317,56.7265 947.8254,18.2443 1354.0685,-84.5254 455.3824,-115.1984 1124.3438,-130.9966 1521.8369,-35.9763 134.2446,32.0907 249.9496,53.3112 257.0914,47.1303 7.1418,-6.1809 23.3468,-56.0233 35.9824,-110.7014 22.4069,-96.9591 17.4457,-100.8521 -199.8773,-157.832 -129.6202,-33.9861 -407.0281,-65.4791 -663.2521,-75.3054 -101.4838,-3.892 -182.2287,-6.3348 -253.2917,-6.3186 z" /><path
   id="path21-1-6"
   style="display:inline;fill:#000000;stroke-width:3.54841"
   inkscape:label="path20"
   d="m 3787.0173,4697.1686 c -213.199,0.049 -339.7275,22.4828 -681.2063,96.5174 -743.659,161.2255 -983.4764,163.1711 -1733.8574,13.9909 -80.2096,-15.9465 -102.5357,-2.9634 -139.0868,80.8502 -43.2547,99.1725 -42.4106,100.1608 133.6484,149.708 97.4633,27.4279 263.0513,64.5094 367.944,82.4623 331.4317,56.7265 947.8254,18.2443 1354.0685,-84.5254 455.3824,-115.1984 1124.3438,-130.9966 1521.8369,-35.9763 134.2446,32.0907 249.9496,53.3112 257.0914,47.1303 7.1418,-6.1809 23.3468,-56.0233 35.9824,-110.7014 22.4069,-96.9591 17.4457,-100.8521 -199.8773,-157.832 -129.6202,-33.9861 -407.0281,-65.4791 -663.2521,-75.3054 -101.4838,-3.892 -182.2287,-6.3348 -253.2917,-6.3186 z" /><metadata
   id="metadata33"><rdf:RDF><cc:Work
       rdf:about=""><dc:title>cloud icon</dc:title></cc:Work></rdf:RDF></metadata></svg>
