<?xml version="1.0" encoding="UTF-8"?>
<!DOCTYPE svg PUBLIC "-//W3C//DTD SVG 1.1//EN" "http://www.w3.org/Graphics/SVG/1.1/DTD/svg11.dtd">
<svg xmlns="http://www.w3.org/2000/svg" xml:space="preserve" width="580px" height="580px" shape-rendering="geometricPrecision" text-rendering="geometricPrecision" image-rendering="optimizeQuality" fill-rule="nonzero" clip-rule="nonzero" viewBox="0 0 5800 5800" xmlns:xlink="http://www.w3.org/1999/xlink">
	<title>cloud_refresh icon</title>
	<desc>cloud_refresh icon from the IconExperience.com I-Collection. Copyright by INCORS GmbH (www.incors.com).</desc>
		<path id="curve28"  d="M3848 4900c-210,253 -519,400 -848,400 -303,0 -578,-124 -777,-323 -199,-199 -323,-474 -323,-777l0 -959 -629 630 -142 -142 871 -870 871 870 -142 142 -629 -630 0 959c0,248 101,473 264,636 169,169 397,264 636,264 213,0 410,-75 565,-200l283 0zm-977 -2871l629 630 0 -1259c0,-248 -101,-473 -264,-636 -163,-163 -388,-264 -636,-264 -35,0 -70,2 -104,6 -168,-26 -466,26 -628,74 202,-181 461,-280 732,-280 303,0 578,124 777,323 199,199 323,474 323,777l0 1259 629 -630 142 142 -871 870 -871 -870 142 -142zm-1417 2471c-629,0 -1154,-501 -1154,-1135 0,-522 278,-903 767,-1077 -35,-737 466,-1312 1199,-1381 52,-4 103,-7 152,-7 348,0 621,109 855,308 18,62 27,126 27,192l0 776 -288 -288c-78,-78 -205,-78 -283,0l-141 141c-78,78 -78,205 0,283l871 871c77,78 205,78 282,0l871 -871c78,-78 78,-205 0,-283l-141 -141c-78,-78 -205,-78 -283,0l-288 288 0 -763c234,-3 465,68 655,217 325,256 432,657 376,1056 377,173 569,448 569,869 0,528 -437,945 -961,945 -616,0 -286,-1 -2171,0 -44,-93 -68,-195 -68,-300l0 -476 288 288c78,78 205,78 283,0l141 -141c78,-78 78,-205 0,-283l-871 -871c-77,-78 -204,-78 -282,0l-871 871c-78,78 -78,205 0,283l141 141c78,78 205,78 283,0l288 -288 0 476c0,102 12,203 35,300l-281 0z"/>
</svg>