<?xml version="1.0" encoding="UTF-8"?>
<!DOCTYPE svg PUBLIC "-//W3C//DTD SVG 1.1//EN" "http://www.w3.org/Graphics/SVG/1.1/DTD/svg11.dtd">
<svg xmlns="http://www.w3.org/2000/svg" xml:space="preserve" width="580px" height="580px" shape-rendering="geometricPrecision" text-rendering="geometricPrecision" image-rendering="optimizeQuality" fill-rule="nonzero" clip-rule="nonzero" viewBox="0 0 5800 5800" xmlns:xlink="http://www.w3.org/1999/xlink">
	<title>cloud_moon icon</title>
	<desc>cloud_moon icon from the IconExperience.com I-Collection. Copyright by INCORS GmbH (www.incors.com).</desc>
		<path id="curve29" d="M4000 300c718,0 1300,582 1300,1300 0,499 -285,951 -731,1169 -7,-23 -15,-46 -24,-68 -15,-41 -33,-80 -53,-117 372,-186 608,-566 608,-984 0,-419 -237,-799 -610,-985 -489,71 -851,491 -851,985 0,149 33,291 91,417 -73,-15 -148,-23 -225,-24 -43,-123 -66,-255 -66,-393 0,-471 278,-898 706,-1091 -48,-6 -96,-9 -145,-9 -608,0 -1100,492 -1100,1100 0,39 2,77 6,115 -65,-43 -134,-81 -206,-112 0,-720 580,-1303 1300,-1303z"/>
	<path id="curve28" d="M500 4026c0,463 351,874 827,874l2716 0c378,0 657,-327 657,-695 0,-339 -142,-537 -450,-670l-78 -34 20 -82c77,-306 36,-636 -213,-851 -228,-196 -545,-219 -819,-112l-73 28 -45 -64c-219,-315 -466,-520 -866,-520 -35,0 -69,1 -102,4 -561,50 -901,499 -901,1045 0,40 2,81 5,121l7 79 -76 25c-403,129 -609,433 -609,852zm-200 0c0,-473 229,-844 674,-1016 -1,-20 -1,-41 -1,-61 0,-649 420,-1185 1083,-1244 40,-3 79,-5 120,-5 435,0 734,205 986,544 326,-103 685,-53 947,173 284,244 363,612 295,970 340,171 496,437 496,818 0,478 -369,895 -857,895l-2716 0c-585,0 -1027,-501 -1027,-1074z"/>
</svg>