<?xml version="1.0" encoding="UTF-8"?>
<!DOCTYPE svg PUBLIC "-//W3C//DTD SVG 1.1//EN" "http://www.w3.org/Graphics/SVG/1.1/DTD/svg11.dtd">
<svg xmlns="http://www.w3.org/2000/svg" xml:space="preserve" width="580px" height="580px" shape-rendering="geometricPrecision" text-rendering="geometricPrecision" image-rendering="optimizeQuality" fill-rule="nonzero" clip-rule="nonzero" viewBox="0 0 5800 5800" xmlns:xlink="http://www.w3.org/1999/xlink">
	<title>cloud_refresh icon</title>
	<desc>cloud_refresh icon from the IconExperience.com I-Collection. Copyright by INCORS GmbH (www.incors.com).</desc>
		<path id="curve29" d="M500 3365c0,524 434,935 954,935l150 0c4,68 14,135 28,200l-178 0c-629,0 -1154,-501 -1154,-1135 0,-522 278,-903 767,-1077 -1,-6 -3,-67 -2,-67 0,-712 493,-1247 1201,-1314 52,-4 103,-7 152,-7 251,0 482,57 695,190 55,91 87,197 87,310l0 10c-223,-211 -471,-310 -782,-310 -49,0 -93,2 -134,6 -604,57 -1020,507 -1020,1115 1,0 6,117 7,128l7 82 -78 23c-443,133 -700,443 -700,911zm3500 -1949c202,16 396,89 555,214 325,256 432,657 376,1056 377,173 569,448 569,869 0,528 -437,945 -961,945l-2058 0c-35,-61 -60,-128 -73,-200l2131 0c414,0 761,-327 761,-745 0,-376 -178,-579 -517,-716l-77 -31 16 -80c66,-348 0,-713 -290,-941 -125,-98 -275,-155 -432,-171l0 -200z"/>
	<path id="curve28" d="M3848 4900c-210,253 -519,400 -848,400 -303,0 -578,-124 -777,-323 -199,-199 -323,-474 -323,-777l0 -959 -629 630 -142 -142 871 -870 871 870 -142 142 -629 -630 0 959c0,248 101,473 264,636 169,169 397,264 636,264 213,0 410,-75 565,-200l283 0zm-977 -2871l629 630 0 -1259c0,-248 -101,-473 -264,-636 -163,-163 -388,-264 -636,-264 -35,0 -70,2 -104,6 -168,-26 -466,26 -628,74 202,-181 461,-280 732,-280 303,0 578,124 777,323 199,199 323,474 323,777l0 1259 629 -630 142 142 -871 870 -871 -870 142 -142z"/>
</svg>