<?xml version="1.0" encoding="UTF-8"?>
<!DOCTYPE svg PUBLIC "-//W3C//DTD SVG 1.1//EN" "http://www.w3.org/Graphics/SVG/1.1/DTD/svg11.dtd">
<svg xmlns="http://www.w3.org/2000/svg" xml:space="preserve" width="580px" height="580px" shape-rendering="geometricPrecision" text-rendering="geometricPrecision" image-rendering="optimizeQuality" fill-rule="nonzero" clip-rule="nonzero" viewBox="0 0 5800 5800" xmlns:xlink="http://www.w3.org/1999/xlink">
	<title>cloud_snow icon</title>
	<desc>cloud_snow icon from the IconExperience.com I-Collection. Copyright by INCORS GmbH (www.incors.com).</desc>
		<path id="curve28"  d="M1999 4282c43,-20 89,-24 136,-11 54,14 94,45 122,93l99 173c52,90 25,204 -58,263 39,27 66,65 78,112 14,53 8,104 -20,152l-100 173c-52,89 -164,124 -257,81 -9,102 -95,182 -199,182l-200 0c-104,0 -190,-80 -199,-182 -43,20 -89,24 -136,11 -54,-14 -94,-45 -122,-93l-99 -173c-52,-90 -25,-204 58,-263 -39,-27 -66,-65 -78,-112 -14,-53 -8,-104 20,-152l100 -173c52,-89 164,-124 257,-81 9,-102 95,-182 199,-182l200 0c104,0 190,80 199,182zm-199 18l-200 0 0 327 -283 -163 -100 172 284 164 -284 164 100 172 283 -163 0 327 200 0 0 -327 283 163 100 -172 -284 -164 284 -164 -100 -172 -283 163 0 -327zm2599 -18c43,-20 89,-24 136,-11 54,14 94,45 122,93l99 173c52,90 25,204 -58,263 39,27 66,65 78,112 14,53 8,104 -20,152l-100 173c-52,89 -164,124 -257,81 -9,102 -95,182 -199,182l-200 0c-104,0 -190,-80 -199,-182 -43,20 -89,24 -136,11 -54,-14 -94,-45 -122,-93l-99 -173c-52,-90 -25,-204 58,-263 -39,-27 -66,-65 -78,-112 -14,-53 -8,-104 20,-152l100 -173c52,-89 164,-124 257,-81 9,-102 95,-182 199,-182l200 0c104,0 190,80 199,182zm-199 18l-200 0 0 327 -283 -163 -100 172 284 164 -284 164 100 172 283 -163 0 327 200 0 0 -327 283 163 100 -172 -284 -164 284 -164 -100 -172 -283 163 0 -327zm-1001 -1218c43,-20 89,-24 136,-11 54,14 94,45 122,93l99 173c52,90 25,204 -58,263 39,27 66,65 78,112 14,53 8,104 -20,152l-100 173c-52,89 -164,124 -257,81 -9,102 -95,182 -199,182l-200 0c-104,0 -190,-80 -199,-182 -43,20 -89,24 -136,11 -54,-14 -94,-45 -122,-93l-99 -173c-52,-90 -25,-204 58,-263 -39,-27 -66,-65 -78,-112 -14,-53 -8,-104 20,-152l100 -173c52,-89 164,-124 257,-81 9,-102 95,-182 199,-182l200 0c104,0 190,80 199,182zm-199 18l-200 0 0 327 -283 -163 -100 172 284 164 -284 164 100 172 283 -163 0 327 200 0 0 -327 283 163 100 -172 -284 -164 284 -164 -100 -172 -283 163 0 -327zm-1546 800c-629,0 -1154,-501 -1154,-1135 0,-522 278,-903 767,-1077 -35,-737 466,-1312 1199,-1381 52,-4 103,-7 152,-7 482,0 820,209 1112,578 346,-121 734,-77 1025,152 325,256 432,657 376,1056 377,173 569,448 569,869 0,528 -437,945 -961,945 -373,0 -399,0 -779,-1 27,-76 31,-158 9,-239 -5,-21 -13,-42 -21,-61 50,-114 47,-248 -19,-362l-99 -173c-54,-93 -138,-158 -243,-187 -21,-5 -42,-9 -63,-12 -73,-100 -192,-165 -324,-165l-200 0c-132,0 -251,65 -324,166 -124,13 -239,83 -305,197l-100 173c-54,93 -68,199 -40,304 5,21 13,42 21,61 -41,93 -46,200 -11,299l-587 0z"/>
</svg>