<?xml version="1.0" encoding="UTF-8"?>
<!DOCTYPE svg PUBLIC "-//W3C//DTD SVG 1.1//EN" "http://www.w3.org/Graphics/SVG/1.1/DTD/svg11.dtd">
<svg xmlns="http://www.w3.org/2000/svg" xml:space="preserve" width="580px" height="580px" shape-rendering="geometricPrecision" text-rendering="geometricPrecision" image-rendering="optimizeQuality" fill-rule="nonzero" clip-rule="nonzero" viewBox="0 0 5800 5800" xmlns:xlink="http://www.w3.org/1999/xlink">
	<title>cloud_moon icon</title>
	<desc>cloud_moon icon from the IconExperience.com I-Collection. Copyright by INCORS GmbH (www.incors.com).</desc>
		<path id="curve28"  d="M300 4026c0,-473 229,-844 674,-1016 -1,-20 -1,-41 -1,-61 0,-649 420,-1185 1083,-1244 40,-3 79,-5 120,-5 435,0 734,205 986,544 326,-103 685,-53 947,173 284,244 363,612 295,970 340,171 496,437 496,818 0,478 -369,895 -857,895l-2716 0c-585,0 -1027,-501 -1027,-1074zm3205 -2033c-43,-123 -66,-255 -66,-393 0,-471 278,-898 706,-1091 -48,-6 -96,-9 -145,-9 -608,0 -1100,492 -1100,1100 0,39 2,77 6,115 -65,-44 -134,-82 -206,-113 0,-719 580,-1302 1300,-1302 718,0 1300,582 1300,1300 0,499 -284,951 -730,1169 -60,-190 -168,-364 -330,-503 -209,-180 -469,-269 -735,-273z"/>
</svg>