<?xml version="1.0" encoding="UTF-8"?>
<!DOCTYPE svg PUBLIC "-//W3C//DTD SVG 1.1//EN" "http://www.w3.org/Graphics/SVG/1.1/DTD/svg11.dtd">
<svg xmlns="http://www.w3.org/2000/svg" xml:space="preserve" width="580px" height="580px" shape-rendering="geometricPrecision" text-rendering="geometricPrecision" image-rendering="optimizeQuality" fill-rule="nonzero" clip-rule="nonzero" viewBox="0 0 5800 5800" xmlns:xlink="http://www.w3.org/1999/xlink">
	<title>cloud_hail icon</title>
	<desc>cloud_hail icon from the IconExperience.com I-Collection. Copyright by INCORS GmbH (www.incors.com).</desc>
		<path id="curve29"  d="M1454 3900c-629,0 -1154,-501 -1154,-1135 0,-522 278,-903 767,-1077 -35,-737 466,-1312 1199,-1381 52,-4 103,-7 152,-7 482,0 820,209 1112,578 346,-121 734,-77 1025,152 325,256 432,657 376,1056 377,173 569,448 569,869 0,528 -437,945 -961,945l-779 0 2 -1c73,-52 103,-143 74,-228 -93,-278 -187,-557 -281,-835 -28,-83 -102,-136 -189,-136 -301,0 -602,0 -903,0 -87,0 -161,53 -189,136 -94,278 -188,557 -282,835 -29,85 1,176 75,228l2 1 -615 0z"/>
	<path id="curve28"  d="M2914 4248c-244,-171 -488,-342 -732,-513 94,-278 187,-557 281,-835 301,0 602,0 903,0 93,278 187,557 281,835 -244,171 -488,342 -733,513zm-1200 1400c-244,-171 -488,-342 -732,-513 94,-278 187,-557 281,-835 301,0 602,0 903,0 93,278 187,557 281,835 -244,171 -488,342 -733,513zm2372 0c-245,-171 -489,-342 -733,-513 94,-278 188,-557 281,-835 301,0 602,0 903,0 94,278 187,557 281,835 -244,171 -488,342 -732,513z"/>
</svg>