<?xml version="1.0" encoding="UTF-8"?>
<!DOCTYPE svg PUBLIC "-//W3C//DTD SVG 1.1//EN" "http://www.w3.org/Graphics/SVG/1.1/DTD/svg11.dtd">
<svg xmlns="http://www.w3.org/2000/svg" xml:space="preserve" width="580px" height="580px" shape-rendering="geometricPrecision" text-rendering="geometricPrecision" image-rendering="optimizeQuality" fill-rule="nonzero" clip-rule="nonzero" viewBox="0 0 5800 5800" xmlns:xlink="http://www.w3.org/1999/xlink">
	<title>cloud_rain icon</title>
	<desc>cloud_rain icon from the IconExperience.com I-Collection. Copyright by INCORS GmbH (www.incors.com).</desc>
		<path id="curve29"  d="M3100 4313c-10,167 -5,306 0,425 9,214 16,369 -67,512 -138,239 -444,321 -683,183 -239,-138 -321,-444 -183,-683 83,-143 220,-215 410,-314 105,-55 228,-120 368,-212l167 -110 -12 199zm-800 -1007c-10,166 -5,306 0,425 9,214 16,369 -67,512 -138,239 -444,321 -683,183 -239,-138 -321,-444 -183,-683 83,-143 220,-215 410,-314 105,-55 228,-120 368,-212l167 -110 -12 199zm2000 7c-10,167 -5,306 0,425 9,214 16,369 -67,512 -138,239 -444,321 -683,183 -239,-138 -321,-444 -183,-683 83,-143 220,-215 410,-314 105,-55 228,-120 368,-212l167 -110 -12 199z"/>
	<path id="curve28"  d="M1115 3850c-468,-142 -815,-569 -815,-1085 0,-522 278,-903 767,-1077 -35,-737 466,-1312 1199,-1381 52,-4 103,-7 152,-7 482,0 820,209 1112,578 346,-121 734,-77 1025,152 325,256 432,657 376,1056 377,173 569,448 569,869 0,528 -437,945 -961,945l-34 0c0,-56 -2,-112 -5,-170 -5,-136 -9,-269 -1,-405l12 -199c5,-78 -32,-146 -99,-185 -68,-39 -146,-37 -211,6l-166 110c-114,75 -230,139 -351,202 -193,101 -376,195 -490,391 -46,79 -74,164 -86,249l-603 1c0,-58 -2,-117 -5,-177 -5,-136 -9,-269 -1,-405l12 -199c5,-78 -32,-147 -99,-185 -68,-39 -146,-37 -211,6l-166 110c-114,75 -230,138 -351,201 -193,102 -376,195 -490,392 -38,66 -64,136 -79,207z"/>
</svg>