<?xml version="1.0" encoding="UTF-8"?>
<!DOCTYPE svg PUBLIC "-//W3C//DTD SVG 1.1//EN" "http://www.w3.org/Graphics/SVG/1.1/DTD/svg11.dtd">
<svg xmlns="http://www.w3.org/2000/svg" xml:space="preserve" width="580px" height="580px" shape-rendering="geometricPrecision" text-rendering="geometricPrecision" image-rendering="optimizeQuality" fill-rule="nonzero" clip-rule="nonzero" viewBox="0 0 5800 5800" xmlns:xlink="http://www.w3.org/1999/xlink">
	<title>cloud_sun icon</title>
	<desc>cloud_sun icon from the IconExperience.com I-Collection. Copyright by INCORS GmbH (www.incors.com).</desc>
		<path id="curve29"  d="M4691 2338c-21,150 -66,282 -132,399 -5,-12 -9,-24 -14,-36 -27,-70 -60,-135 -98,-196 22,-61 38,-125 46,-193 63,-491 -287,-942 -778,-1005 -334,-43 -664,104 -855,379 -57,-35 -117,-66 -179,-91 230,-350 642,-539 1059,-486 596,77 1024,621 951,1229zm-1012 -1539l64 -496 197 25 -63 496 -198 -25zm-711 148l-193 -462 184 -76 193 461 -184 77zm-542 484l-398 -303 121 -159 398 303 -121 159zm1943 -405l303 -398 159 121 -303 398 -159 -121zm484 542l462 -193 76 184 -461 193 -77 -184zm148 711l496 64 -25 197 -496 -63 25 -198zm-227 690l398 303 -121 159 -398 -303 121 -159z"/>
	<path id="curve28"  d="M500 4026c0,463 351,874 827,874l2716 0c378,0 657,-327 657,-695 0,-339 -142,-537 -450,-670l-78 -34 20 -82c77,-306 36,-636 -213,-851 -228,-196 -545,-219 -819,-112l-73 28 -45 -64c-219,-315 -466,-520 -866,-520 -35,0 -69,1 -102,4 -561,50 -901,499 -901,1045 0,40 2,81 5,121l7 79 -76 25c-192,61 -348,166 -453,313 -100,140 -156,320 -156,539zm-200 0c0,-263 69,-482 194,-655 116,-163 281,-284 480,-361 -1,-20 -1,-41 -1,-61 0,-649 420,-1185 1083,-1244 40,-3 79,-5 120,-5 435,0 734,205 986,544 326,-103 685,-53 947,173 284,244 363,612 295,970 340,171 496,437 496,818 0,478 -369,895 -857,895l-2716 0c-585,0 -1027,-501 -1027,-1074z"/>
</svg>