<?xml version="1.0" encoding="UTF-8"?>
<!DOCTYPE svg PUBLIC "-//W3C//DTD SVG 1.1//EN" "http://www.w3.org/Graphics/SVG/1.1/DTD/svg11.dtd">
<svg xmlns="http://www.w3.org/2000/svg" xml:space="preserve" width="580px" height="580px" shape-rendering="geometricPrecision" text-rendering="geometricPrecision" image-rendering="optimizeQuality" fill-rule="nonzero" clip-rule="nonzero" viewBox="0 0 5800 5800" xmlns:xlink="http://www.w3.org/1999/xlink">
	<title>cloud_updown icon</title>
	<desc>cloud_updown icon from the IconExperience.com I-Collection. Copyright by INCORS GmbH (www.incors.com).</desc>
		<path id="curve28"  d="M1900 5100l0 -2659 -829 830 -142 -142 1071 -1070 1071 1070 -142 142 -829 -830 0 2659 -200 0zm1071 -971l829 830 0 -2659 200 0 0 2659 829 -830 142 142 -1071 1070 -1071 -1070 142 -142zm-1517 -229c-629,0 -1154,-501 -1154,-1135 0,-522 278,-903 767,-1077 -35,-737 466,-1312 1199,-1381 52,-4 103,-7 152,-7 482,0 820,209 1112,578 346,-121 734,-77 1025,152 325,256 432,657 376,1056 377,173 569,448 569,869 0,528 -437,945 -961,945 -157,0 -252,0 -339,0l0 -1600c0,-110 -90,-200 -200,-200l-200 0c-110,0 -200,90 -200,200l0 1599c-263,0 -657,0 -1300,1l0 -976 488 488c78,78 205,78 283,0l141 -141c78,-78 78,-205 0,-283l-1071 -1071c-77,-78 -205,-78 -282,0l-1071 1071c-78,78 -78,205 0,283l141 141c78,78 205,78 283,0l488 -488 0 976 -246 0z"/>
</svg>