<?xml version="1.0" encoding="UTF-8"?>
<!DOCTYPE svg PUBLIC "-//W3C//DTD SVG 1.1//EN" "http://www.w3.org/Graphics/SVG/1.1/DTD/svg11.dtd">
<svg xmlns="http://www.w3.org/2000/svg" xml:space="preserve" width="580px" height="580px" shape-rendering="geometricPrecision" text-rendering="geometricPrecision" image-rendering="optimizeQuality" fill-rule="nonzero" clip-rule="nonzero" viewBox="0 0 5800 5800" xmlns:xlink="http://www.w3.org/1999/xlink">
	<title>clown icon</title>
	<desc>clown icon from the IconExperience.com I-Collection. Copyright by INCORS GmbH (www.incors.com).</desc>
	<path id="curve0" d="M3200 1500c-55,0 -100,-45 -100,-100 0,-55 45,-100 100,-100l200 0 0 -200c0,-55 45,-100 100,-100 55,0 100,45 100,100l0 200 200 0c55,0 100,45 100,100 0,55 -45,100 -100,100l-200 0 0 200c0,55 -45,100 -100,100 -55,0 -100,-45 -100,-100l0 -200 -200 0zm-300 150c248,0 450,201 450,450 0,248 -202,450 -450,450 -248,0 -450,-202 -450,-450 0,-249 202,-450 450,-450zm-1986 -596c62,-224 276,-372 507,-352 129,11 242,72 321,162 13,-17 26,-33 40,-50 279,-337 684,-514 1118,-514 457,0 881,197 1158,564 79,-90 192,-151 321,-162 231,-20 445,128 507,352 168,27 298,166 313,336 14,166 -84,322 -239,381 0,222 -170,408 -391,427 -78,7 -153,-8 -219,-39 -23,127 -75,240 -164,305 -70,235 -226,589 -386,775 -2,42 -6,81 -10,118 -9,94 -18,174 56,220 124,65 207,106 339,156 173,67 342,132 469,257 111,111 196,248 254,395 61,156 92,324 92,484 0,228 -254,376 -605,469 -464,123 -1113,162 -1495,162 -382,0 -1031,-39 -1495,-162 -351,-93 -605,-241 -605,-469 0,-159 31,-328 92,-484 151,-385 353,-509 723,-652 127,-48 216,-88 335,-154 78,-46 69,-136 59,-238 -3,-33 -6,-68 -8,-101 -70,-81 -141,-201 -205,-328 -78,-155 -145,-324 -182,-448 -88,-65 -141,-178 -163,-305 -67,31 -142,46 -220,39 -221,-19 -391,-205 -391,-427 -155,-59 -253,-215 -239,-381 15,-170 145,-309 313,-336zm882 1321c31,115 98,289 178,448 64,127 134,244 197,307 19,19 29,45 29,70 0,44 4,84 8,123 9,91 17,176 -7,253 120,180 506,224 699,224 193,0 576,-44 697,-222 -23,-73 -14,-153 -5,-241 5,-44 9,-91 8,-135 0,-28 11,-54 29,-72 150,-151 320,-551 375,-755 7,-30 27,-52 52,-65 54,-28 86,-108 100,-203 5,-38 7,-78 7,-118 -32,-53 -52,-114 -58,-180 -2,-20 -6,-111 -3,-128 0,0 11,-115 11,-126 -100,-82 -162,-201 -174,-330 -5,-56 0,-110 14,-162 -27,-42 -56,-82 -89,-122 -242,-291 -590,-441 -964,-441 -374,0 -722,150 -964,441 -33,40 -62,80 -89,122 14,52 19,106 14,162 -12,129 -74,248 -174,330 0,43 3,84 11,126 3,16 -1,108 -3,128 -6,65 -26,126 -57,180 -1,39 1,79 6,118 14,96 47,177 101,204 26,13 44,37 51,64zm278 1361c-119,80 -254,132 -388,183 -314,121 -479,210 -608,539 -52,132 -78,275 -78,411 0,115 192,206 456,276 444,118 1073,155 1444,155 371,0 1000,-37 1444,-155 264,-70 456,-161 456,-276 0,-136 -26,-279 -78,-411 -48,-123 -118,-236 -209,-326 -97,-96 -246,-154 -399,-213 -134,-51 -268,-103 -388,-182 -186,205 -566,263 -826,263 -260,0 -640,-58 -826,-264zm-613 -2087c-22,-36 -30,-79 -19,-121 10,-41 37,-76 75,-97 83,-46 136,-129 144,-223 14,-156 -101,-293 -257,-307 -156,-14 -293,101 -307,257l-9 100 -99 -9c-96,-8 -180,62 -188,158 -9,96 61,180 157,189l115 10 -27 112c-3,13 -4,20 -5,33 -11,126 81,237 207,248 126,11 237,-81 248,-207 4,-52 -7,-100 -35,-143zm3242 -491c-14,-156 -151,-271 -307,-257 -78,7 -146,45 -192,100 -47,55 -72,129 -65,207 8,94 61,177 144,223 38,21 65,56 75,97 5,21 6,42 3,62 -8,47 -40,79 -52,127 -5,23 -7,48 -5,75 11,126 122,218 248,207 139,-12 234,-145 202,-281l-27 -112 115 -10c96,-9 166,-93 157,-189 -8,-96 -92,-166 -188,-158l-99 9 -9 -100zm-2503 -58c0,-55 45,-100 100,-100 55,0 100,45 100,100l0 200 200 0c55,0 100,45 100,100 0,55 -45,100 -100,100l-200 0 0 200c0,55 -45,100 -100,100 -55,0 -100,-45 -100,-100l0 -200 -200 0c-55,0 -100,-45 -100,-100 0,-55 45,-100 100,-100l200 0 0 -200z"/>
</svg>