<?xml version="1.0" encoding="UTF-8"?>
<!DOCTYPE svg PUBLIC "-//W3C//DTD SVG 1.1//EN" "http://www.w3.org/Graphics/SVG/1.1/DTD/svg11.dtd">
<svg xmlns="http://www.w3.org/2000/svg" xml:space="preserve" width="580px" height="580px" shape-rendering="geometricPrecision" text-rendering="geometricPrecision" image-rendering="optimizeQuality" fill-rule="nonzero" clip-rule="nonzero" viewBox="0 0 5800 5800" xmlns:xlink="http://www.w3.org/1999/xlink">
	<title>clown icon</title>
	<desc>clown icon from the IconExperience.com I-Collection. Copyright by INCORS GmbH (www.incors.com).</desc>
	<path id="curve0"  d="M4703 1158c-14,-156 -151,-271 -307,-257 -156,14 -271,151 -257,307 8,94 61,177 144,223 57,32 88,95 78,159 -12,75 -66,100 -57,202 11,126 122,218 248,207 139,-12 234,-145 202,-281l-27 -112 115 -10c96,-9 166,-93 157,-189 -8,-96 -92,-166 -188,-158l-99 9 -9 -100zm-1303 -58l0 200 -200 0c-55,0 -100,45 -100,100 0,55 45,100 100,100l200 0 0 200c0,55 45,100 100,100 55,0 100,-45 100,-100l0 -200 200 0c55,0 100,-45 100,-100 0,-55 -45,-100 -100,-100l-200 0 0 -200c0,-55 -45,-100 -100,-100 -55,0 -100,45 -100,100zm-1200 0l0 200 -200 0c-55,0 -100,45 -100,100 0,55 45,100 100,100l200 0 0 200c0,55 45,100 100,100 55,0 100,-45 100,-100l0 -200 200 0c55,0 100,-45 100,-100 0,-55 -45,-100 -100,-100l-200 0 0 -200c0,-55 -45,-100 -100,-100 -55,0 -100,45 -100,100zm-1286 -46c62,-224 276,-372 507,-352 129,11 242,72 321,162 277,-367 701,-564 1158,-564 457,0 881,197 1158,564 79,-90 192,-151 321,-162 231,-20 445,128 507,352 168,27 298,166 313,336 14,166 -84,322 -239,381 0,222 -170,408 -391,427 -78,7 -153,-8 -219,-39 -23,127 -75,240 -164,305 -37,123 -104,293 -182,449 -63,126 -134,245 -204,326 -2,41 -6,82 -10,122 -17,55 -55,113 -108,168 -203,211 -499,271 -782,271 -281,0 -580,-61 -783,-271 -50,-52 -87,-108 -105,-161 -4,-43 -9,-86 -11,-128 -70,-81 -141,-201 -205,-328 -78,-155 -145,-324 -182,-448 -88,-65 -141,-178 -163,-305 -67,31 -142,46 -220,39 -221,-19 -391,-205 -391,-427 -155,-59 -253,-215 -239,-381 15,-170 145,-309 313,-336zm1986 596c-248,0 -450,201 -450,450 0,248 202,450 450,450 248,0 450,-202 450,-450 0,-249 -202,-450 -450,-450zm984 1949c93,55 198,95 301,134 370,143 572,267 723,652 61,156 92,324 92,484 0,228 -254,376 -605,469 -464,123 -1113,162 -1495,162 -382,0 -1031,-39 -1495,-162 -351,-93 -605,-241 -605,-469 0,-159 31,-328 92,-484 151,-385 353,-509 723,-652 103,-39 208,-79 300,-133 230,299 624,400 985,400 363,0 753,-100 984,-401zm-2787 -2441l-9 100 -99 -9c-96,-8 -180,62 -188,158 -9,96 61,180 157,189l115 10 -27 112c-32,134 62,269 202,281 156,14 279,-131 243,-282 -12,-48 -44,-80 -52,-127 -10,-64 21,-127 78,-159 83,-46 136,-129 144,-223 14,-156 -101,-293 -257,-307 -156,-14 -293,101 -307,257z"/>
</svg>