<?xml version="1.0" encoding="UTF-8"?>
<!DOCTYPE svg PUBLIC "-//W3C//DTD SVG 1.1//EN" "http://www.w3.org/Graphics/SVG/1.1/DTD/svg11.dtd">
<svg xmlns="http://www.w3.org/2000/svg" xml:space="preserve" width="580px" height="580px" shape-rendering="geometricPrecision" text-rendering="geometricPrecision" image-rendering="optimizeQuality" fill-rule="nonzero" clip-rule="nonzero" viewBox="0 0 5800 5800" xmlns:xlink="http://www.w3.org/1999/xlink">
	<title>coathanger icon</title>
	<desc>coathanger icon from the IconExperience.com I-Collection. Copyright by INCORS GmbH (www.incors.com).</desc>
		<path id="curve28"  d="M513 3508l2187 -1129 0 -308c-295,-88 -500,-363 -500,-671 0,-387 313,-700 700,-700 387,0 700,313 700,700l-400 0c0,-166 -134,-300 -300,-300 -166,0 -300,134 -300,300 0,133 86,250 214,288 170,51 286,205 286,383l0 308 2187 1129c198,103 313,305 313,526l0 166c0,331 -269,600 -600,600l-4200 0c-331,0 -600,-269 -600,-600l0 -166c0,-221 115,-423 313,-526zm2387 -783l-2204 1138c-67,34 -96,98 -96,171l0 166c0,110 90,200 200,200l4200 0c110,0 200,-90 200,-200l0 -166c0,-73 -29,-137 -96,-171l-2204 -1138z"/>
</svg>