<?xml version="1.0" encoding="UTF-8"?>
<!DOCTYPE svg PUBLIC "-//W3C//DTD SVG 1.1//EN" "http://www.w3.org/Graphics/SVG/1.1/DTD/svg11.dtd">
<svg xmlns="http://www.w3.org/2000/svg" xml:space="preserve" width="580px" height="580px" shape-rendering="geometricPrecision" text-rendering="geometricPrecision" image-rendering="optimizeQuality" fill-rule="nonzero" clip-rule="nonzero" viewBox="0 0 5800 5800" xmlns:xlink="http://www.w3.org/1999/xlink">
	<title>coathanger icon</title>
	<desc>coathanger icon from the IconExperience.com I-Collection. Copyright by INCORS GmbH (www.incors.com).</desc>
		<path id="curve28"  d="M2800 2439l0 -368c0,-46 -27,-83 -71,-96 -254,-76 -429,-310 -429,-575 0,-331 269,-600 600,-600 331,0 600,269 600,600l-200 0c0,-221 -179,-400 -400,-400 -221,0 -400,179 -400,400 0,177 116,333 286,384 128,38 214,153 214,287l0 368 2241 1158c166,85 259,253 259,437l0 166c0,276 -224,500 -500,500l-4200 0c-276,0 -500,-224 -500,-500l0 -166c0,-184 93,-352 259,-437l2241 -1158zm100 173l-2250 1162c-100,52 -150,150 -150,260l0 166c0,165 135,300 300,300l4200 0c165,0 300,-135 300,-300l0 -166c0,-110 -50,-208 -150,-260l-2250 -1162z"/>
</svg>