<?xml version="1.0" encoding="UTF-8"?>
<!DOCTYPE svg PUBLIC "-//W3C//DTD SVG 1.1//EN" "http://www.w3.org/Graphics/SVG/1.1/DTD/svg11.dtd">
<svg xmlns="http://www.w3.org/2000/svg" xml:space="preserve" width="580px" height="580px" shape-rendering="geometricPrecision" text-rendering="geometricPrecision" image-rendering="optimizeQuality" fill-rule="nonzero" clip-rule="nonzero" viewBox="0 0 5800 5800" xmlns:xlink="http://www.w3.org/1999/xlink">
	<title>cocktail2 icon</title>
	<desc>cocktail2 icon from the IconExperience.com I-Collection. Copyright by INCORS GmbH (www.incors.com).</desc>
		<path id="curve28"  d="M2650 2200c248,0 450,202 450,450 0,216 -154,402 -366,442l166 167 1359 -1359 -2718 0 667 666c40,-212 226,-366 442,-366zm2721 -1129l-2371 2370 0 1859 1100 0 0 200 -2400 0 0 -200 1100 0 0 -1859 -2371 -2370 71 -171 4800 0 71 171zm-912 629l600 -600 -4318 0 600 600 3118 0zm-1809 700c-138,0 -250,112 -250,250 0,69 28,132 73,177 45,45 108,73 177,73 138,0 250,-112 250,-250 0,-138 -112,-250 -250,-250z"/>
</svg>