<?xml version="1.0" encoding="UTF-8"?>
<!DOCTYPE svg PUBLIC "-//W3C//DTD SVG 1.1//EN" "http://www.w3.org/Graphics/SVG/1.1/DTD/svg11.dtd">
<svg xmlns="http://www.w3.org/2000/svg" xml:space="preserve" width="580px" height="580px" shape-rendering="geometricPrecision" text-rendering="geometricPrecision" image-rendering="optimizeQuality" fill-rule="nonzero" clip-rule="nonzero" viewBox="0 0 5800 5800" xmlns:xlink="http://www.w3.org/1999/xlink">
	<title>cocktail2 icon</title>
	<desc>cocktail2 icon from the IconExperience.com I-Collection. Copyright by INCORS GmbH (www.incors.com).</desc>
		<path id="curve28"  d="M2800 5300l0 -1859 -2371 -2370 71 -171 4800 0 71 171c-791,790 -1581,1580 -2371,2370l0 1859 1100 0 0 200 -2400 0 0 -200 1100 0zm-1459 -3600l3118 0 600 -600 -4318 0 600 600zm1309 600c-193,0 -350,157 -350,350 0,193 157,350 350,350 193,0 350,-157 350,-350 0,-193 -157,-350 -350,-350z"/>
</svg>