<?xml version="1.0" encoding="UTF-8"?>
<!DOCTYPE svg PUBLIC "-//W3C//DTD SVG 1.1//EN" "http://www.w3.org/Graphics/SVG/1.1/DTD/svg11.dtd">
<svg xmlns="http://www.w3.org/2000/svg" xml:space="preserve" width="580px" height="580px" shape-rendering="geometricPrecision" text-rendering="geometricPrecision" image-rendering="optimizeQuality" fill-rule="nonzero" clip-rule="nonzero" viewBox="0 0 5800 5800" xmlns:xlink="http://www.w3.org/1999/xlink">
	<title>cocktail icon</title>
	<desc>cocktail icon from the IconExperience.com I-Collection. Copyright by INCORS GmbH (www.incors.com).</desc>
		<path id="curve28"  d="M4350 500c635,0 1150,515 1150,1150 0,635 -515,1150 -1150,1150 -155,0 -304,-31 -439,-87l156 -156c89,28 184,43 283,43 525,0 950,-425 950,-950 0,-525 -425,-950 -950,-950 -309,0 -596,149 -775,400l-235 0c201,-369 587,-600 1010,-600zm-3109 1600l2718 0 600 -600 -3918 0 600 600zm2518 200l-2318 0 1159 1159 1159 -1159zm1112 -829l-2171 2170 0 1659 1000 0 0 200 -2200 0 0 -200 1000 0 0 -1659 -2171 -2170 71 -171 4400 0 71 171z"/>
</svg>