<?xml version="1.0" encoding="UTF-8"?>
<!DOCTYPE svg PUBLIC "-//W3C//DTD SVG 1.1//EN" "http://www.w3.org/Graphics/SVG/1.1/DTD/svg11.dtd">
<svg xmlns="http://www.w3.org/2000/svg" xml:space="preserve" width="580px" height="580px" shape-rendering="geometricPrecision" text-rendering="geometricPrecision" image-rendering="optimizeQuality" fill-rule="nonzero" clip-rule="nonzero" viewBox="0 0 5800 5800" xmlns:xlink="http://www.w3.org/1999/xlink">
	<title>cocktail icon</title>
	<desc>cocktail icon from the IconExperience.com I-Collection. Copyright by INCORS GmbH (www.incors.com).</desc>
		<path id="curve28"  d="M4350 500c635,0 1150,515 1150,1150 0,635 -515,1150 -1150,1150 -230,0 -445,-68 -624,-184l-1026 1025 0 1659 1000 0 0 200 -2200 0 0 -200 1000 0 0 -1659 -1371 -1370 -800 -800 71 -171 2854 0c148,-464 583,-800 1096,-800zm-3109 1600l2718 0 600 -600 -3918 0 600 600z"/>
</svg>