<?xml version="1.0" encoding="UTF-8"?>
<!DOCTYPE svg PUBLIC "-//W3C//DTD SVG 1.1//EN" "http://www.w3.org/Graphics/SVG/1.1/DTD/svg11.dtd">
<svg xmlns="http://www.w3.org/2000/svg" xml:space="preserve" width="580px" height="580px" shape-rendering="geometricPrecision" text-rendering="geometricPrecision" image-rendering="optimizeQuality" fill-rule="nonzero" clip-rule="nonzero" viewBox="0 0 5800 5800" xmlns:xlink="http://www.w3.org/1999/xlink">
	<title>code_csharp icon</title>
	<desc>code_csharp icon from the IconExperience.com I-Collection. Copyright by INCORS GmbH (www.incors.com).</desc>
	<path id="curve0"  d="M4900 300l0 3400 -1134 0c-179,-308 -508,-500 -866,-500l-300 0c-265,0 -520,107 -707,293 -157,158 -263,368 -287,601l-103 0 0 200 97 0 0 200 -97 0 0 200 97 0 0 106c0,32 2,63 4,94l-701 0 0 200 741 0c48,155 132,293 243,406l-1387 0 0 -5200 4400 0zm-1500 3900c0,-275 -225,-500 -500,-500l-300 0c-138,0 -263,56 -353,147 -91,90 -147,215 -147,353l0 600c0,275 225,500 500,500l300 0c275,0 500,-225 500,-500l200 0c0,386 -314,700 -700,700l-300 0c-386,0 -700,-314 -700,-700l0 -600c0,-193 79,-368 205,-495 127,-126 302,-205 495,-205l300 0c386,0 700,314 700,700l-200 0zm400 500l239 0 109 -300 -148 0 0 -200 221 0 73 -200 212 0 -73 200 288 0 73 -200 212 0 -73 200 167 0 0 200 -239 0 -109 300 148 0 0 200 -221 0 -73 200 -212 0 73 -200 -288 0 -73 200 -212 0 73 -200 -167 0 0 -200zm452 0l287 0 109 -300 -287 0 -109 300zm648 600l0 200 -1287 0c59,-60 110,-127 153,-200l34 0 1100 0zm-2197 -2406l0 200 1197 0 0 -200 -1197 0zm997 -394l0 200 400 0 0 -200 -400 0zm-997 -6l0 200 797 0 0 -200 -797 0zm0 -400l0 200 1797 0 0 -200 -1797 0zm400 -400l0 200 600 0 0 -200 -600 0zm-1000 0l0 200 800 0 0 -200 -800 0zm-600 -400l0 200 800 0 0 -200 -800 0zm-600 -400l0 200 1800 0 0 -200 -1800 0z"/>
</svg>