<?xml version="1.0" encoding="UTF-8"?>
<!DOCTYPE svg PUBLIC "-//W3C//DTD SVG 1.1//EN" "http://www.w3.org/Graphics/SVG/1.1/DTD/svg11.dtd">
<svg xmlns="http://www.w3.org/2000/svg" xml:space="preserve" width="580px" height="580px" shape-rendering="geometricPrecision" text-rendering="geometricPrecision" image-rendering="optimizeQuality" fill-rule="nonzero" clip-rule="nonzero" viewBox="0 0 5800 5800" xmlns:xlink="http://www.w3.org/1999/xlink">
	<title>code_ruby icon</title>
	<desc>code_ruby icon from the IconExperience.com I-Collection. Copyright by INCORS GmbH (www.incors.com).</desc>
	<path id="curve0" d="M4845 4600c159,108 255,287 255,480l0 420 -200 0 0 -420c0,-209 -171,-380 -380,-380l-820 0 0 800 -200 0 0 -1900 0 -100 100 0 920 0c320,0 580,260 580,580l0 40c0,193 -96,372 -255,480zm-145 -1279l0 -2821 -4000 0 0 4800 2600 0 0 200 -2800 0 0 -5200 4400 0 0 3099c-62,-35 -129,-61 -200,-78zm-3797 -2427l1800 0 0 200 -1800 0 0 -200zm600 400l800 0 0 200 -800 0 0 -200zm600 400l800 0 0 200 -800 0 0 -200zm1000 0l600 0 0 200 -600 0 0 -200zm-400 400l1797 0 0 200 -1797 0 0 -200zm0 400l797 0 0 200 -797 0 0 -200zm997 6l400 0 0 200 -400 0 0 -200zm-997 394l1197 0 0 200 -1197 0 0 -200zm-600 400l797 0 0 200 -797 0 0 -200zm0 400l1197 0 0 200 -1197 0 0 -200zm-600 400l800 0 0 200 -800 0 0 -200zm-600 800l800 0 0 200 -800 0 0 -200zm600 -400l1200 0 0 200 -1200 0 0 -200zm2197 -794l0 800 820 0c209,0 380,-171 380,-380l0 -40c0,-209 -171,-380 -380,-380l-820 0z"/>
</svg>