<?xml version="1.0" encoding="UTF-8"?>
<!DOCTYPE svg PUBLIC "-//W3C//DTD SVG 1.1//EN" "http://www.w3.org/Graphics/SVG/1.1/DTD/svg11.dtd">
<svg xmlns="http://www.w3.org/2000/svg" xml:space="preserve" width="580px" height="580px" shape-rendering="geometricPrecision" text-rendering="geometricPrecision" image-rendering="optimizeQuality" fill-rule="nonzero" clip-rule="nonzero" viewBox="0 0 5800 5800" xmlns:xlink="http://www.w3.org/1999/xlink">
	<title>code icon</title>
	<desc>code icon from the IconExperience.com I-Collection. Copyright by INCORS GmbH (www.incors.com).</desc>
	<path id="curve0"  d="M5100 300l0 5200 -4400 0 0 -5200 4400 0zm-3397 4194l0 200 1200 0 0 -200 -1200 0zm-600 400l0 200 800 0 0 -200 -800 0zm600 -800l0 200 800 0 0 -200 -800 0zm2000 -400l0 200 600 0 0 -200 -600 0zm-1400 0l0 200 1200 0 0 -200 -1200 0zm0 -400l0 200 797 0 0 -200 -797 0zm600 -400l0 200 1197 0 0 -200 -1197 0zm997 -394l0 200 400 0 0 -200 -400 0zm-997 -6l0 200 797 0 0 -200 -797 0zm0 -400l0 200 1797 0 0 -200 -1797 0zm400 -400l0 200 600 0 0 -200 -600 0zm-1000 0l0 200 800 0 0 -200 -800 0zm-600 -400l0 200 800 0 0 -200 -800 0zm-600 -400l0 200 1800 0 0 -200 -1800 0z"/>
</svg>