<?xml version="1.0" encoding="UTF-8"?>
<!DOCTYPE svg PUBLIC "-//W3C//DTD SVG 1.1//EN" "http://www.w3.org/Graphics/SVG/1.1/DTD/svg11.dtd">
<svg xmlns="http://www.w3.org/2000/svg" xml:space="preserve" width="580px" height="580px" shape-rendering="geometricPrecision" text-rendering="geometricPrecision" image-rendering="optimizeQuality" fill-rule="nonzero" clip-rule="nonzero" viewBox="0 0 5800 5800" xmlns:xlink="http://www.w3.org/1999/xlink">
	<title>code_javascript icon</title>
	<desc>code_javascript icon from the IconExperience.com I-Collection. Copyright by INCORS GmbH (www.incors.com).</desc>
	<path id="curve0"  d="M5300 4050c0,-193 -157,-350 -350,-350l-600 0c-193,0 -350,158 -350,350 0,193 157,350 350,350l600 0c303,0 550,247 550,550 0,303 -247,550 -550,550l-600 0c-303,0 -550,-247 -550,-550l200 0c0,193 157,350 350,350l600 0c193,0 350,-157 350,-350 0,-193 -157,-350 -350,-350l-600 0c-303,0 -550,-247 -550,-550 0,-303 247,-550 550,-550l600 0c303,0 550,247 550,550l-200 0zm-3797 444l1200 0 0 200 -428 0c-47,-105 -152,-179 -275,-179 -123,0 -228,74 -275,179l-222 0 0 -200zm3397 -4194l0 3000 -200 0 0 -2800 -4000 0 0 4800 1148 0c51,75 113,143 184,200l-1532 0 0 -5200 4400 0zm-3997 594l1800 0 0 200 -1800 0 0 -200zm600 400l800 0 0 200 -800 0 0 -200zm600 400l800 0 0 200 -800 0 0 -200zm1000 0l600 0 0 200 -600 0 0 -200zm-400 400l1797 0 0 200 -1797 0 0 -200zm0 400l797 0 0 200 -797 0 0 -200zm997 6l400 0 0 200 -400 0 0 -200zm-997 394l1197 0 0 200 -1197 0 0 -200zm-600 400l797 0 0 200 -797 0 0 -200zm0 400l1097 0 0 200 -1097 0 0 -200zm-600 400l800 0 0 200 -800 0 0 -200zm-600 800l800 0 0 200 -800 0 0 -200zm1197 -79c0,274 231,485 500,485l300 0c269,0 500,-211 500,-485l0 -1315 200 0 0 1315c0,383 -321,685 -700,685l-300 0c-379,0 -700,-302 -700,-685l200 0z"/>
</svg>