<?xml version="1.0" encoding="UTF-8"?>
<!DOCTYPE svg PUBLIC "-//W3C//DTD SVG 1.1//EN" "http://www.w3.org/Graphics/SVG/1.1/DTD/svg11.dtd">
<svg xmlns="http://www.w3.org/2000/svg" xml:space="preserve" width="580px" height="580px" shape-rendering="geometricPrecision" text-rendering="geometricPrecision" image-rendering="optimizeQuality" fill-rule="nonzero" clip-rule="nonzero" viewBox="0 0 5800 5800" xmlns:xlink="http://www.w3.org/1999/xlink">
	<title>code icon</title>
	<desc>code icon from the IconExperience.com I-Collection. Copyright by INCORS GmbH (www.incors.com).</desc>
	<path id="curve0" d="M1703 4494l1200 0 0 200 -1200 0 0 -200zm-600 400l800 0 0 200 -800 0 0 -200zm600 -800l800 0 0 200 -800 0 0 -200zm2000 -400l600 0 0 200 -600 0 0 -200zm-1400 0l1200 0 0 200 -1200 0 0 -200zm0 -400l797 0 0 200 -797 0 0 -200zm600 -400l1197 0 0 200 -1197 0 0 -200zm997 -394l400 0 0 200 -400 0 0 -200zm-997 -6l797 0 0 200 -797 0 0 -200zm0 -400l1797 0 0 200 -1797 0 0 -200zm400 -400l600 0 0 200 -600 0 0 -200zm-1000 0l800 0 0 200 -800 0 0 -200zm-600 -400l800 0 0 200 -800 0 0 -200zm-600 -400l1800 0 0 200 -1800 0 0 -200zm3997 -594l0 5200 -4400 0 0 -5200 4400 0zm-200 200l-4000 0 0 4800 4000 0 0 -4800z"/>
</svg>