<?xml version="1.0" encoding="UTF-8"?>
<!DOCTYPE svg PUBLIC "-//W3C//DTD SVG 1.1//EN" "http://www.w3.org/Graphics/SVG/1.1/DTD/svg11.dtd">
<svg xmlns="http://www.w3.org/2000/svg" xml:space="preserve" width="580px" height="580px" shape-rendering="geometricPrecision" text-rendering="geometricPrecision" image-rendering="optimizeQuality" fill-rule="nonzero" clip-rule="nonzero" viewBox="0 0 5800 5800" xmlns:xlink="http://www.w3.org/1999/xlink">
	<title>code_c icon</title>
	<desc>code_c icon from the IconExperience.com I-Collection. Copyright by INCORS GmbH (www.incors.com).</desc>
	<path id="curve0"  d="M4900 4200c0,-275 -225,-500 -500,-500l-300 0c-275,0 -500,225 -500,500l0 600c0,275 225,500 500,500l300 0c275,0 500,-225 500,-500l200 0c0,386 -314,700 -700,700l-300 0c-386,0 -700,-314 -700,-700l0 -600c0,-386 314,-700 700,-700l300 0c386,0 700,314 700,700l-200 0zm-4400 -3900l0 5200 2887 0c-178,-180 -287,-428 -287,-700l0 -600c0,-107 17,-209 48,-306l-1045 0 0 -200 1135 0c179,-305 506,-494 862,-494l300 0c182,0 353,49 500,134l0 -3034 -4400 0zm1003 4194l1200 0 0 200 -1200 0 0 -200zm-600 400l800 0 0 200 -800 0 0 -200zm600 -800l800 0 0 200 -800 0 0 -200zm600 -800l797 0 0 200 -797 0 0 -200zm600 -400l1197 0 0 200 -1197 0 0 -200zm997 -394l400 0 0 200 -400 0 0 -200zm-997 -6l797 0 0 200 -797 0 0 -200zm0 -400l1797 0 0 200 -1797 0 0 -200zm400 -400l600 0 0 200 -600 0 0 -200zm-1000 0l800 0 0 200 -800 0 0 -200zm-600 -400l800 0 0 200 -800 0 0 -200zm-600 -400l1800 0 0 200 -1800 0 0 -200z"/>
</svg>