<?xml version="1.0" encoding="UTF-8"?>
<!DOCTYPE svg PUBLIC "-//W3C//DTD SVG 1.1//EN" "http://www.w3.org/Graphics/SVG/1.1/DTD/svg11.dtd">
<svg xmlns="http://www.w3.org/2000/svg" xml:space="preserve" width="580px" height="580px" shape-rendering="geometricPrecision" text-rendering="geometricPrecision" image-rendering="optimizeQuality" fill-rule="nonzero" clip-rule="nonzero" viewBox="0 0 5800 5800" xmlns:xlink="http://www.w3.org/1999/xlink">
	<title>codes_of_law icon</title>
	<desc>codes_of_law icon from the IconExperience.com I-Collection. Copyright by INCORS GmbH (www.incors.com).</desc>
	<path id="curve0" d="M1247 1353c90,91 215,147 353,147l3100 0c110,0 200,90 200,200l0 3800 -3300 0c-386,0 -700,-314 -700,-700l0 -3800c0,-386 314,-700 700,-700l3100 0c110,0 200,90 200,200 -1100,0 -2200,0 -3300,0 -275,0 -500,225 -500,500 0,133 53,259 147,353zm1037 1657c-116,96 -184,237 -184,388 0,275 224,502 500,502l600 0c116,0 224,33 316,90 116,-96 184,-237 184,-388 0,-275 -224,-502 -500,-502l-600 0c-116,0 -224,-33 -316,-90zm1383 1112c84,103 134,234 134,377 0,331 -270,601 -601,601l-600 0c-331,0 -600,-269 -600,-600l0 -63 200 0 0 63c0,221 179,400 400,400l600 0c221,0 401,-180 401,-401 0,-111 -45,-210 -117,-282 -73,-72 -173,-117 -284,-117l-600 0c-385,0 -700,-317 -700,-702 0,-200 85,-388 233,-521 -84,-102 -134,-233 -134,-376 0,-331 270,-601 601,-601l600 0c331,0 600,269 600,600l0 63 -200 0 0 -63c0,-221 -179,-400 -400,-400l-600 0c-221,0 -401,180 -401,401 0,222 180,399 401,399l600 0c385,0 700,317 700,702 0,199 -85,388 -233,520zm-2350 -3022l3383 0 0 200 -3115 0c-122,-6 -227,-85 -268,-200zm283 -400l3100 0 0 200 -3383 0c42,-120 156,-200 283,-200zm-500 789l0 3311c0,275 225,500 500,500l3100 0 0 -3600 -3100 0c-190,0 -366,-76 -500,-211z"/>
</svg>