<?xml version="1.0" encoding="UTF-8"?>
<!DOCTYPE svg PUBLIC "-//W3C//DTD SVG 1.1//EN" "http://www.w3.org/Graphics/SVG/1.1/DTD/svg11.dtd">
<svg xmlns="http://www.w3.org/2000/svg" xml:space="preserve" width="580px" height="580px" shape-rendering="geometricPrecision" text-rendering="geometricPrecision" image-rendering="optimizeQuality" fill-rule="nonzero" clip-rule="nonzero" viewBox="0 0 5800 5800" xmlns:xlink="http://www.w3.org/1999/xlink">
	<title>code_line icon</title>
	<desc>code_line icon from the IconExperience.com I-Collection. Copyright by INCORS GmbH (www.incors.com).</desc>
	<path id="curve0"  d="M700 300l0 5200 4400 0 0 -5200 -4400 0zm1003 4194l1200 0 0 200 -1200 0 0 -200zm-600 400l800 0 0 200 -800 0 0 -200zm600 -800l800 0 0 200 -800 0 0 -200zm2000 -400l600 0 0 200 -600 0 0 -200zm-1400 0l1200 0 0 200 -1200 0 0 -200zm0 -400l797 0 0 200 -797 0 0 -200zm600 -400l1197 0 0 200 -1197 0 0 -200zm-1803 -194c0,-200 0,-400 0,-600 1200,0 2400,-6 3600,-6l0 606c-1200,0 -2400,0 -3600,0zm2203 -1006l600 0 0 200 -600 0 0 -200zm-1000 0l800 0 0 200 -800 0 0 -200zm-600 -400l800 0 0 200 -800 0 0 -200zm-600 -400l1800 0 0 200 -1800 0 0 -200z"/>
</svg>