<?xml version="1.0" encoding="UTF-8"?>
<!DOCTYPE svg PUBLIC "-//W3C//DTD SVG 1.1//EN" "http://www.w3.org/Graphics/SVG/1.1/DTD/svg11.dtd">
<svg xmlns="http://www.w3.org/2000/svg" xml:space="preserve" width="580px" height="580px" shape-rendering="geometricPrecision" text-rendering="geometricPrecision" image-rendering="optimizeQuality" fill-rule="nonzero" clip-rule="nonzero" viewBox="0 0 5800 5800" xmlns:xlink="http://www.w3.org/1999/xlink">
	<title>code_php icon</title>
	<desc>code_php icon from the IconExperience.com I-Collection. Copyright by INCORS GmbH (www.incors.com).</desc>
	<path id="curve0"  d="M4300 5500l0 -1800 900 0c276,0 500,224 500,500 0,276 -224,500 -500,500l-700 0 0 800 -200 0zm-3800 -5200l0 5200 300 0 0 -2100 1303 0 0 -106 797 0 0 106 2000 0 0 -3100 -4400 0zm2203 2594l1197 0 0 200 -1197 0 0 -200zm997 -394l400 0 0 200 -400 0 0 -200zm-997 -6l797 0 0 200 -797 0 0 -200zm0 -400l1797 0 0 200 -1797 0 0 -200zm400 -400l600 0 0 200 -600 0 0 -200zm-1000 0l800 0 0 200 -800 0 0 -200zm-600 -400l800 0 0 200 -800 0 0 -200zm-600 -400l1800 0 0 200 -1800 0 0 -200zm1997 2806l0 800 1000 0 0 -800 200 0 0 1800 -200 0 0 -800 -1000 0 0 800 -200 0 0 -1800 200 0zm-1800 1800l0 -1800 900 0c276,0 500,224 500,500 0,276 -224,500 -500,500l-700 0 0 800 -200 0zm200 -1600l0 600 700 0c165,0 300,-135 300,-300 0,-165 -135,-300 -300,-300l-700 0zm3200 0l0 600 700 0c165,0 300,-135 300,-300 0,-165 -135,-300 -300,-300l-700 0z"/>
</svg>