<?xml version="1.0" encoding="UTF-8"?>
<!DOCTYPE svg PUBLIC "-//W3C//DTD SVG 1.1//EN" "http://www.w3.org/Graphics/SVG/1.1/DTD/svg11.dtd">
<svg xmlns="http://www.w3.org/2000/svg" xml:space="preserve" width="580px" height="580px" shape-rendering="geometricPrecision" text-rendering="geometricPrecision" image-rendering="optimizeQuality" fill-rule="nonzero" clip-rule="nonzero" viewBox="0 0 5800 5800" xmlns:xlink="http://www.w3.org/1999/xlink">
	<title>code_java icon</title>
	<desc>code_java icon from the IconExperience.com I-Collection. Copyright by INCORS GmbH (www.incors.com).</desc>
	<path id="curve0"  d="M3600 4815c0,274 231,485 500,485l300 0c269,0 500,-211 500,-485l0 -1315 200 0 0 1315c0,383 -321,685 -700,685l-300 0c-379,0 -700,-302 -700,-685l200 0zm-3100 -4515l0 5200 2884 0c-176,-178 -284,-419 -284,-685l0 -315 800 0 0 315c0,109 95,185 200,185l300 0c37,0 71,-9 100,-24l0 -1776 400 0 0 -2900 -4400 0zm1003 4200l1200 0 0 200 -1200 0 0 -200zm-600 400l800 0 0 200 -800 0 0 -200zm600 -800l800 0 0 200 -800 0 0 -200zm2000 -400l600 0 0 200 -600 0 0 -200zm-1400 0l1200 0 0 200 -1200 0 0 -200zm0 -400l797 0 0 200 -797 0 0 -200zm600 -400l1197 0 0 200 -1197 0 0 -200zm997 -394l400 0 0 200 -400 0 0 -200zm-997 -6l797 0 0 200 -797 0 0 -200zm0 -400l1797 0 0 200 -1797 0 0 -200zm400 -400l600 0 0 200 -600 0 0 -200zm-1000 0l800 0 0 200 -800 0 0 -200zm-600 -400l800 0 0 200 -800 0 0 -200zm-600 -400l1800 0 0 200 -1800 0 0 -200z"/>
</svg>