<?xml version="1.0" encoding="UTF-8"?>
<!DOCTYPE svg PUBLIC "-//W3C//DTD SVG 1.1//EN" "http://www.w3.org/Graphics/SVG/1.1/DTD/svg11.dtd">
<svg xmlns="http://www.w3.org/2000/svg" xml:space="preserve" width="580px" height="580px" shape-rendering="geometricPrecision" text-rendering="geometricPrecision" image-rendering="optimizeQuality" fill-rule="nonzero" clip-rule="nonzero" viewBox="0 0 5800 5800" xmlns:xlink="http://www.w3.org/1999/xlink">
	<title>code_csharp icon</title>
	<desc>code_csharp icon from the IconExperience.com I-Collection. Copyright by INCORS GmbH (www.incors.com).</desc>
	<path id="curve0"  d="M3400 4200l0 0c0,-138 -56,-263 -147,-353 -90,-91 -215,-147 -353,-147l-300 0c-275,0 -500,225 -500,500l0 600c0,275 225,500 500,500l300 0c275,0 500,-225 500,-500l200 0c0,386 -314,700 -700,700l-300 0c-386,0 -700,-314 -700,-700l0 -600c0,-386 314,-700 700,-700l300 0c193,0 368,79 495,205 126,127 205,302 205,495l0 0 -200 0zm1106 -200l-73 200 288 0 73 -200 212 0 -73 200 167 0 0 200 -239 0 -109 300 148 0 0 200 -221 0 -73 200 -212 0 73 -200 -288 0 -73 200 -212 0 73 -200 -167 0 0 -200 239 0 109 -300 -148 0 0 -200 221 0 73 -200 212 0zm194 -200l0 -3300 -4000 0 0 4800 1152 0c51,75 112,143 183,200l-1535 0 0 -5200 4400 0 0 3500 -200 0zm-3197 694l197 0 0 200 -197 0 0 -200zm3397 806l0 200 -1300 0 0 -135c17,-21 33,-43 48,-65 417,0 835,0 1252,0zm-3997 -4406l1800 0 0 200 -1800 0 0 -200zm600 400l800 0 0 200 -800 0 0 -200zm600 400l800 0 0 200 -800 0 0 -200zm1000 0l600 0 0 200 -600 0 0 -200zm-400 400l1797 0 0 200 -1797 0 0 -200zm0 400l797 0 0 200 -797 0 0 -200zm997 6l400 0 0 200 -400 0 0 -200zm-997 394l1197 0 0 200 -1197 0 0 -200zm-600 400l797 0 0 6 -300 0c-183,0 -354,55 -497,150l0 -156zm-600 800l203 0c-4,35 -6,70 -6,106l0 94 -197 0 0 -200zm-600 800l800 0 0 200 -800 0 0 -200zm3636 -194l109 -300 -287 0 -109 300 287 0z"/>
</svg>