<?xml version="1.0" encoding="UTF-8"?>
<!DOCTYPE svg PUBLIC "-//W3C//DTD SVG 1.1//EN" "http://www.w3.org/Graphics/SVG/1.1/DTD/svg11.dtd">
<svg xmlns="http://www.w3.org/2000/svg" xml:space="preserve" width="580px" height="580px" shape-rendering="geometricPrecision" text-rendering="geometricPrecision" image-rendering="optimizeQuality" fill-rule="nonzero" clip-rule="nonzero" viewBox="0 0 5800 5800" xmlns:xlink="http://www.w3.org/1999/xlink">
	<title>code_javascript icon</title>
	<desc>code_javascript icon from the IconExperience.com I-Collection. Copyright by INCORS GmbH (www.incors.com).</desc>
	<path id="curve0"  d="M4900 300l0 2800 -1400 0c-221,0 -400,179 -400,400l0 200 -997 0 0 200 997 0 0 915c0,109 -95,185 -200,185l-300 0c-105,0 -200,-76 -200,-185l0 -115 300 0 0 -200 -1200 0 0 200 100 0 0 115c0,27 1,53 3,79l-700 0 0 200 738 0c47,154 131,293 243,406l-1384 0 0 -5200 4400 0zm400 3750c0,-193 -157,-350 -350,-350l-600 0c-194,0 -350,156 -350,350 0,193 157,350 350,350l600 0c303,0 550,247 550,550 0,303 -247,550 -550,550l-600 0c-303,0 -550,-247 -550,-550l200 0c0,193 157,350 350,350l600 0c193,0 350,-157 350,-350 0,-193 -157,-350 -350,-350l-600 0c-303,0 -550,-247 -550,-550 0,-303 247,-550 550,-550l600 0c303,0 550,247 550,550l-200 0zm-3200 765c0,274 231,485 500,485l300 0c269,0 500,-211 500,-485l0 -1315 200 0 0 1315c0,383 -321,685 -700,685l-300 0c-379,0 -700,-302 -700,-685l200 0zm-600 -715l0 200 800 0 0 -200 -800 0zm603 -800l0 200 797 0 0 -200 -797 0zm597 -400l0 200 1200 0 0 -200 -1200 0zm1000 -400l0 200 400 0 0 -200 -400 0zm-997 -6l0 200 797 0 0 -200 -797 0zm0 -400l0 200 1797 0 0 -200 -1797 0zm400 -400l0 200 600 0 0 -200 -600 0zm-1000 0l0 200 800 0 0 -200 -800 0zm-600 -400l0 200 800 0 0 -200 -800 0zm-600 -400l0 200 1800 0 0 -200 -1800 0z"/>
</svg>