<?xml version="1.0" encoding="UTF-8"?>
<!DOCTYPE svg PUBLIC "-//W3C//DTD SVG 1.1//EN" "http://www.w3.org/Graphics/SVG/1.1/DTD/svg11.dtd">
<svg xmlns="http://www.w3.org/2000/svg" xml:space="preserve" width="580px" height="580px" shape-rendering="geometricPrecision" text-rendering="geometricPrecision" image-rendering="optimizeQuality" fill-rule="nonzero" clip-rule="nonzero" viewBox="0 0 5800 5800" xmlns:xlink="http://www.w3.org/1999/xlink">
	<title>code_cplusplus icon</title>
	<desc>code_cplusplus icon from the IconExperience.com I-Collection. Copyright by INCORS GmbH (www.incors.com).</desc>
	<path id="curve0" d="M5300 4100l0 300 300 0 0 200 -300 0 0 300 -200 0 0 -300 -300 0 0 -200 300 0 0 -300 200 0zm-1900 100c0,-275 -225,-500 -500,-500l-300 0c-275,0 -500,225 -500,500l0 600c0,275 225,500 500,500l300 0c275,0 500,-225 500,-500l200 0c0,386 -314,700 -700,700l-300 0c-386,0 -700,-314 -700,-700l0 -600c0,-386 314,-700 700,-700l300 0c386,0 700,314 700,700 0,0 -200,0 -200,0zm-1897 294l197 0 0 200 -197 0 0 -200zm3397 -4194c0,1300 0,2600 0,3900l-200 0 0 -3700 -4000 0 0 4800 1152 0c51,75 112,143 183,200l-1535 0 0 -5200 4400 0zm0 5200l-1300 0 0 -135c17,-21 33,-43 48,-65l1052 0 0 -500 200 0c0,233 0,467 0,700zm-3997 -4606l1800 0 0 200 -1800 0 0 -200zm600 400l800 0 0 200 -800 0 0 -200zm600 400l800 0 0 200 -800 0 0 -200zm1000 0l600 0 0 200 -600 0 0 -200zm-400 400l1797 0 0 200 -1797 0 0 -200zm0 400l797 0 0 200 -797 0 0 -200zm997 6l400 0 0 200 -400 0 0 -200zm-997 394l1197 0 0 200 -1197 0 0 -200zm-600 400l797 0 0 6 -300 0c-183,0 -354,55 -497,150l0 -156zm-600 800l203 0c-4,35 -6,70 -6,106l0 94 -197 0 0 -200zm-600 800l800 0 0 200 -800 0 0 -200zm2897 -494l300 0 0 -300 200 0 0 300 300 0 0 200 -300 0 0 300 -200 0 0 -300 -300 0 0 -200z"/>
</svg>