<?xml version="1.0" encoding="UTF-8"?>
<!DOCTYPE svg PUBLIC "-//W3C//DTD SVG 1.1//EN" "http://www.w3.org/Graphics/SVG/1.1/DTD/svg11.dtd">
<svg xmlns="http://www.w3.org/2000/svg" xml:space="preserve" width="580px" height="580px" shape-rendering="geometricPrecision" text-rendering="geometricPrecision" image-rendering="optimizeQuality" fill-rule="nonzero" clip-rule="nonzero" viewBox="0 0 5800 5800" xmlns:xlink="http://www.w3.org/1999/xlink">
	<title>code_beanshell icon</title>
	<desc>code_beanshell icon from the IconExperience.com I-Collection. Copyright by INCORS GmbH (www.incors.com).</desc>
	<path id="curve0"  d="M5051 3168c117,101 73,292 -76,333 -238,65 -455,179 -645,338 -104,86 -200,187 -293,305 -155,198 -337,359 -559,470 -161,80 -329,129 -507,152 -92,12 -179,-43 -209,-132 -228,-691 188,-1231 788,-1531 487,-244 1062,-317 1501,65zm-4551 -2868l0 5200 2502 0c-19,-15 -38,-31 -56,-47 -69,-61 -118,-137 -145,-222 -20,-62 -27,-127 -21,-193 -162,-58 -263,-180 -313,-344l-964 0 0 -200 917 0c-34,-204 -24,-405 31,-600l-348 0 0 -200 421 0c32,-69 69,-136 111,-200l-532 0 0 -200 688 0c64,-70 135,-136 215,-200l-303 0 0 -200 603 0c138,-77 285,-144 436,-194l-42 0 0 -200 400 0 0 116c272,-36 548,-7 800,105l0 -2421 -4400 0zm403 4594l800 0 0 200 -800 0 0 -200zm600 -800l800 0 0 200 -800 0 0 -200zm1200 -1600l797 0 0 200 -797 0 0 -200zm0 -400l1797 0 0 200 -1797 0 0 -200zm400 -400l600 0 0 200 -600 0 0 -200zm-1000 0l800 0 0 200 -800 0 0 -200zm-600 -400l800 0 0 200 -800 0 0 -200zm-600 -400l1800 0 0 200 -1800 0 0 -200zm4532 2864c102,304 84,605 -57,877 -133,257 -375,486 -728,662 -294,147 -570,212 -819,202 -265,-11 -498,-104 -687,-271 -118,-104 -69,-294 80,-333 115,-30 226,-71 333,-124 246,-124 454,-305 622,-522 82,-104 169,-196 262,-274 227,-192 490,-305 783,-347 93,-14 181,41 211,130z"/>
</svg>