<?xml version="1.0" encoding="UTF-8"?>
<!DOCTYPE svg PUBLIC "-//W3C//DTD SVG 1.1//EN" "http://www.w3.org/Graphics/SVG/1.1/DTD/svg11.dtd">
<svg xmlns="http://www.w3.org/2000/svg" xml:space="preserve" width="580px" height="580px" shape-rendering="geometricPrecision" text-rendering="geometricPrecision" image-rendering="optimizeQuality" fill-rule="nonzero" clip-rule="nonzero" viewBox="0 0 5800 5800" xmlns:xlink="http://www.w3.org/1999/xlink">
	<title>code_line icon</title>
	<desc>code_line icon from the IconExperience.com I-Collection. Copyright by INCORS GmbH (www.incors.com).</desc>
	<path id="curve0" d="M4700 2094l0 606c-1200,0 -2400,0 -3600,0l0 -600c1200,0 2400,-6 3600,-6zm400 -1794l0 5200 -4400 0 0 -5200 4400 0zm-200 200l-4000 0 0 4800 4000 0 0 -4800zm-3797 394l1800 0 0 200 -1800 0 0 -200zm600 400l800 0 0 200 -800 0 0 -200zm600 400l800 0 0 200 -800 0 0 -200zm1000 0l600 0 0 200 -600 0 0 -200zm-400 1200l1197 0 0 200 -1197 0 0 -200zm-600 400l797 0 0 200 -797 0 0 -200zm0 400l1200 0 0 200 -1200 0 0 -200zm1400 0l600 0 0 200 -600 0 0 -200zm-2000 400l800 0 0 200 -800 0 0 -200zm-600 800l800 0 0 200 -800 0 0 -200zm600 -400l1200 0 0 200 -1200 0 0 -200z"/>
</svg>