<?xml version="1.0" encoding="UTF-8"?>
<!DOCTYPE svg PUBLIC "-//W3C//DTD SVG 1.1//EN" "http://www.w3.org/Graphics/SVG/1.1/DTD/svg11.dtd">
<svg xmlns="http://www.w3.org/2000/svg" xml:space="preserve" width="580px" height="580px" shape-rendering="geometricPrecision" text-rendering="geometricPrecision" image-rendering="optimizeQuality" fill-rule="nonzero" clip-rule="nonzero" viewBox="0 0 5800 5800" xmlns:xlink="http://www.w3.org/1999/xlink">
	<title>codes_of_law icon</title>
	<desc>codes_of_law icon from the IconExperience.com I-Collection. Copyright by INCORS GmbH (www.incors.com).</desc>
	<path id="curve0"  d="M1100 1000c0,275 225,500 500,500l3100 0c110,0 200,90 200,200l0 3800 -3300 0c-386,0 -700,-314 -700,-700l0 -3800c0,-386 314,-700 700,-700l3100 0c110,0 200,90 200,200 -1100,0 -2200,0 -3300,0 -275,0 -500,225 -500,500zm500 -300l3100 0 0 200 -3383 0c42,-120 156,-200 283,-200zm-283 400l3383 0 0 200 -3115 0c-122,-6 -227,-85 -268,-200zm967 1910c-116,96 -184,237 -184,388 0,275 224,502 500,502l600 0c116,0 224,33 316,90 116,-96 184,-237 184,-388 0,-275 -224,-502 -500,-502l-600 0c-116,0 -224,-33 -316,-90zm1383 1112c148,-132 233,-321 233,-520 0,-385 -315,-702 -700,-702l-600 0c-221,0 -401,-177 -401,-399 0,-221 180,-401 401,-401l600 0c221,0 400,179 400,400l0 63 200 0 0 -63c0,-331 -269,-600 -600,-600l-600 0c-331,0 -601,270 -601,601 0,143 50,274 134,376 -148,133 -233,321 -233,521 0,385 315,702 700,702l600 0c111,0 211,45 284,117 72,72 117,171 117,282 0,221 -180,401 -401,401l-600 0c-221,0 -400,-179 -400,-400l0 -63 -200 0 0 63c0,331 269,600 600,600l600 0c331,0 601,-270 601,-601 0,-143 -50,-274 -134,-377z"/>
</svg>