<?xml version="1.0" encoding="UTF-8"?>
<!DOCTYPE svg PUBLIC "-//W3C//DTD SVG 1.1//EN" "http://www.w3.org/Graphics/SVG/1.1/DTD/svg11.dtd">
<svg xmlns="http://www.w3.org/2000/svg" xml:space="preserve" width="580px" height="580px" shape-rendering="geometricPrecision" text-rendering="geometricPrecision" image-rendering="optimizeQuality" fill-rule="nonzero" clip-rule="nonzero" viewBox="0 0 5800 5800" xmlns:xlink="http://www.w3.org/1999/xlink">
	<title>code_cplusplus icon</title>
	<desc>code_cplusplus icon from the IconExperience.com I-Collection. Copyright by INCORS GmbH (www.incors.com).</desc>
	<path id="curve0"  d="M5300 4100l0 300 300 0 0 200 -300 0 0 300 -200 0 0 -300 -300 0 0 -200 300 0 0 -300 200 0zm-1910 0c-47,-232 -253,-400 -490,-400l-300 0c-275,0 -500,225 -500,500l0 600c0,275 225,500 500,500l300 0c237,0 443,-168 490,-400l203 0c-50,343 -346,600 -693,600l-300 0c-386,0 -700,-314 -700,-700l0 -600c0,-386 314,-700 700,-700l300 0c347,0 643,257 693,600l-203 0zm410 -336l0 -64 800 0 0 400 300 0c0,-1267 0,-2533 0,-3800l-4400 0 0 5200 1387 0c-111,-113 -195,-251 -243,-406l-741 0 0 -200 701 0c-2,-31 -4,-62 -4,-94l0 -106 -97 0 0 -200 97 0 0 -200 -97 0 0 -200 103 0c53,-506 484,-894 994,-894l300 0c384,0 733,221 900,564zm1100 1736l-1287 0c76,-77 139,-166 187,-264l0 64 800 0 0 -400 300 0c0,200 0,400 0,600zm-2197 -2606l1197 0 0 200 -1197 0 0 -200zm997 -394l400 0 0 200 -400 0 0 -200zm-997 -6l797 0 0 200 -797 0 0 -200zm0 -400l1797 0 0 200 -1797 0 0 -200zm400 -400l600 0 0 200 -600 0 0 -200zm-1000 0l800 0 0 200 -800 0 0 -200zm-600 -400l800 0 0 200 -800 0 0 -200zm-600 -400l1800 0 0 200 -1800 0 0 -200zm2897 3506l300 0 0 -300 200 0 0 300 300 0 0 200 -300 0 0 300 -200 0 0 -300 -300 0 0 -200z"/>
</svg>