<?xml version="1.0" encoding="UTF-8"?>
<!DOCTYPE svg PUBLIC "-//W3C//DTD SVG 1.1//EN" "http://www.w3.org/Graphics/SVG/1.1/DTD/svg11.dtd">
<svg xmlns="http://www.w3.org/2000/svg" xml:space="preserve" width="580px" height="580px" shape-rendering="geometricPrecision" text-rendering="geometricPrecision" image-rendering="optimizeQuality" fill-rule="nonzero" clip-rule="nonzero" viewBox="0 0 5800 5800" xmlns:xlink="http://www.w3.org/1999/xlink">
	<title>code_beanshell icon</title>
	<desc>code_beanshell icon from the IconExperience.com I-Collection. Copyright by INCORS GmbH (www.incors.com).</desc>
	<path id="curve0"  d="M5051 3168c117,101 73,292 -76,333 -107,29 -214,70 -312,119 -118,59 -229,132 -333,219 -104,86 -200,187 -290,302 -2,2 -3,5 -5,6 -80,102 -166,192 -257,269 -93,78 -193,145 -300,198 -161,80 -329,129 -507,152 -92,12 -179,-43 -209,-132 -100,-302 -80,-602 62,-873 133,-256 375,-483 726,-658 293,-147 568,-211 816,-202 264,10 496,102 685,267zm-3548 1326l1018 0c12,67 29,134 51,200l-1069 0 0 -200zm3397 -4194l0 2530c-64,-31 -131,-56 -200,-76l0 -2254 -4000 0 0 4800 2244 0c51,78 152,151 230,200l-2674 0 0 -5200 4400 0zm0 5087l0 113 -211 0c72,-34 142,-72 211,-113zm-3997 -4493l1800 0 0 200 -1800 0 0 -200zm600 400l800 0 0 200 -800 0 0 -200zm600 400l800 0 0 200 -800 0 0 -200zm1000 0l600 0 0 200 -600 0 0 -200zm-400 400l1797 0 0 200 -1797 0 0 -200zm0 400l797 0 0 200 -797 0 0 -200zm997 6l400 0 0 200 -400 0 0 -200zm-997 394l820 0c-20,10 -41,20 -62,30 -104,53 -200,110 -288,170l-470 0 0 -200zm-600 400l797 0 0 30c-53,55 -102,112 -144,170l-653 0 0 -200zm0 400l531 0c-32,66 -59,133 -79,200l-452 0 0 -200zm-600 400l800 0 0 200 -800 0 0 -200zm-600 800l800 0 0 200 -800 0 0 -200zm3456 -1794c-216,-8 -458,50 -720,181 -312,156 -524,353 -639,572 -114,220 -130,465 -49,715 151,-21 302,-64 438,-132 91,-46 178,-103 260,-173 82,-68 158,-148 229,-238 1,-2 3,-4 4,-6 98,-126 205,-237 320,-333 115,-96 239,-178 372,-244 109,-55 220,-98 338,-131 -153,-130 -340,-203 -553,-211zm1076 658c102,304 84,605 -57,877 -133,257 -375,486 -728,662 -294,147 -570,212 -819,202 -265,-11 -498,-104 -687,-271 -117,-103 -71,-294 80,-333 115,-30 226,-71 333,-124 117,-59 228,-132 332,-219 105,-88 201,-188 290,-303 82,-104 169,-196 262,-274 93,-79 193,-145 300,-198 152,-77 314,-125 483,-149 93,-14 181,41 211,130zm-234 786c114,-221 129,-468 46,-718 -145,21 -286,63 -417,129 -91,45 -178,103 -260,172 -83,70 -161,152 -234,245 -98,126 -204,237 -319,333 -115,96 -239,177 -371,244 -116,57 -237,103 -362,136 153,132 341,206 555,214 216,9 459,-48 722,-180 313,-157 526,-355 640,-575z"/>
</svg>