<?xml version="1.0" encoding="UTF-8"?>
<!DOCTYPE svg PUBLIC "-//W3C//DTD SVG 1.1//EN" "http://www.w3.org/Graphics/SVG/1.1/DTD/svg11.dtd">
<svg xmlns="http://www.w3.org/2000/svg" xml:space="preserve" width="580px" height="580px" shape-rendering="geometricPrecision" text-rendering="geometricPrecision" image-rendering="optimizeQuality" fill-rule="nonzero" clip-rule="nonzero" viewBox="0 0 5800 5800" xmlns:xlink="http://www.w3.org/1999/xlink">
	<title>code_vbasic icon</title>
	<desc>code_vbasic icon from the IconExperience.com I-Collection. Copyright by INCORS GmbH (www.incors.com).</desc>
	<path id="curve0" d="M4100 4400l800 0c192,0 350,-173 350,-362 0,-191 -162,-338 -350,-338l-800 0 0 700zm-2597 94l381 0c22,68 49,134 74,200l-455 0 0 -200zm1018 0l182 0 0 200 -105 0 -77 -200zm2379 -4194l0 3000 -200 0 0 -2800 -4000 0 0 4800 1492 0c29,76 62,138 116,200l-1808 0 0 -5200 4400 0zm-3997 594l1800 0 0 200 -1800 0 0 -200zm600 400l800 0 0 200 -800 0 0 -200zm600 400l800 0 0 200 -800 0 0 -200zm1000 0l600 0 0 200 -600 0 0 -200zm-400 400l1797 0 0 200 -1797 0 0 -200zm0 400l797 0 0 200 -797 0 0 -200zm997 6l400 0 0 200 -400 0 0 -200zm-997 394l1197 0 0 200 -1197 0 0 -200zm-385 400l582 0 0 200 -500 0c-1,-77 -32,-147 -82,-200zm82 400l600 0 0 200 -600 0 0 -200zm-897 400l302 0c5,68 14,134 26,200l-328 0 0 -200zm-600 800l800 0 0 200 -800 0 0 -200zm1297 -1394l0 466c0,87 7,166 21,243 14,78 37,154 67,234l282 732c30,79 104,125 188,125l184 0c84,0 158,-46 188,-125l282 -732c30,-80 53,-156 67,-234 14,-77 21,-156 21,-243l0 -466 200 0 0 466c0,97 -8,188 -25,279 -17,89 -42,177 -78,269l-281 732c-60,157 -206,254 -374,254l-184 0c-168,0 -314,-97 -374,-254l-281 -732c-36,-92 -61,-180 -78,-269 -17,-91 -25,-182 -25,-279l0 -466 200 0zm3072 947c198,88 328,285 328,503 0,303 -247,550 -550,550 -383,0 -767,0 -1150,0l0 -2000 1000 0c298,0 550,238 550,538 0,149 -63,291 -164,395 -4,4 -9,9 -14,14zm-1172 853l950 0c193,0 350,-157 350,-350 0,-193 -157,-350 -350,-350l-950 0 0 700z"/>
</svg>