<?xml version="1.0" encoding="UTF-8"?>
<!DOCTYPE svg PUBLIC "-//W3C//DTD SVG 1.1//EN" "http://www.w3.org/Graphics/SVG/1.1/DTD/svg11.dtd">
<svg xmlns="http://www.w3.org/2000/svg" xml:space="preserve" width="580px" height="580px" shape-rendering="geometricPrecision" text-rendering="geometricPrecision" image-rendering="optimizeQuality" fill-rule="nonzero" clip-rule="nonzero" viewBox="0 0 5800 5800" xmlns:xlink="http://www.w3.org/1999/xlink">
	<title>coffee_machine icon</title>
	<desc>coffee_machine icon from the IconExperience.com I-Collection. Copyright by INCORS GmbH (www.incors.com).</desc>
		<path id="curve29"  d="M1700 300l2800 0c331,0 600,269 600,600l0 4600 -4000 0 0 -200c0,-331 269,-600 600,-600l2100 0c55,0 100,-45 100,-100l0 -2600c0,-55 -45,-100 -100,-100l-2100 0c-331,0 -600,-269 -600,-600l0 -400c0,-331 269,-600 600,-600zm2800 200l-2800 0c-220,0 -400,180 -400,400l0 400c0,220 180,400 400,400l2100 0c165,0 300,135 300,300l0 2600c0,165 -135,300 -300,300l-2100 0c-220,0 -400,180 -400,400l3600 0 0 -4400c0,-220 -180,-400 -400,-400zm-1200 1500l0 31c0,147 -106,271 -251,295l-349 59c-2,0 0,104 0,115l-400 0 0 -115c0,-1 -319,-54 -349,-59 -145,-24 -251,-148 -251,-295l0 -31 200 0 0 31c0,49 34,90 84,98l349 59c48,8 90,32 120,67 11,14 21,29 28,45l38 0c7,-16 17,-31 28,-45 30,-35 72,-59 120,-67l349 -59c50,-8 84,-49 84,-98l0 -31 200 0z"/>
	<path id="curve28"  d="M3700 3219c0,298 -57,530 -140,708 -100,217 -239,355 -360,431l0 142 -1300 0 0 -141c-87,-49 -167,-109 -237,-174 -75,-70 -137,-148 -182,-225 -33,-9 -74,-17 -120,-24 -72,-11 -154,-20 -241,-26 -119,-8 -224,-61 -299,-141 -75,-81 -121,-189 -121,-307l0 -12c0,-124 51,-237 132,-318 81,-81 194,-132 318,-132l150 0 0 -300 2400 0 0 519zm-200 0l0 -319 -2000 0 0 300 -350 0c-69,0 -131,28 -177,73 -45,46 -73,108 -73,177l0 12c0,66 25,126 67,171 42,44 100,74 166,78 95,7 183,16 258,27 75,12 140,26 190,43l39 14 19 36c35,71 91,143 161,209 71,66 155,126 245,171l55 28 0 61 900 0 0 -61 55 -28c100,-50 230,-164 324,-367 71,-154 121,-359 121,-625z"/>
</svg>