<?xml version="1.0" encoding="UTF-8"?>
<!DOCTYPE svg PUBLIC "-//W3C//DTD SVG 1.1//EN" "http://www.w3.org/Graphics/SVG/1.1/DTD/svg11.dtd">
<svg xmlns="http://www.w3.org/2000/svg" xml:space="preserve" width="580px" height="580px" shape-rendering="geometricPrecision" text-rendering="geometricPrecision" image-rendering="optimizeQuality" fill-rule="nonzero" clip-rule="nonzero" viewBox="0 0 5800 5800" xmlns:xlink="http://www.w3.org/1999/xlink">
	<title>coffee_beans icon</title>
	<desc>coffee_beans icon from the IconExperience.com I-Collection. Copyright by INCORS GmbH (www.incors.com).</desc>
		<path id="curve28"  d="M3372 3376c220,-219 449,-360 677,-426 241,-71 479,-57 699,34 33,14 60,35 80,62 64,87 42,210 -48,270 -194,129 -354,295 -477,494 -138,225 -187,463 -323,684 -105,171 -240,315 -404,430 -69,48 -143,91 -221,129 -82,40 -179,16 -234,-57 -177,-238 -255,-514 -207,-808 44,-271 194,-548 458,-812zm1902 27c184,244 258,521 213,810 -44,272 -194,551 -459,816 -221,220 -451,361 -679,427 -243,70 -482,55 -703,-38 -100,-42 -144,-159 -96,-257 27,-46 20,-45 67,-75 202,-131 368,-301 494,-506 139,-225 187,-462 324,-684 102,-167 235,-310 394,-423 66,-47 136,-89 210,-126 81,-41 180,-17 235,56zm-3624 -1303c316,0 582,64 793,181 224,123 385,305 478,532 58,142 -66,293 -217,259 -179,-36 -357,-41 -536,-16 -181,25 -361,81 -543,168 -217,105 -451,168 -692,168 -173,0 -342,-32 -505,-89 -86,-31 -139,-118 -126,-209 45,-308 200,-566 440,-741 257,-186 590,-253 908,-253zm1348 1398c-43,311 -190,566 -431,742 -227,166 -536,260 -917,260 -318,0 -585,-65 -797,-183 -225,-124 -386,-308 -478,-536 -40,-101 12,-217 115,-253 32,-11 67,-13 102,-6 113,24 225,36 341,36 268,0 520,-66 762,-182 194,-94 390,-148 586,-163 196,-14 392,11 588,77 89,30 142,116 129,208zm356 -3197c231,-8 486,51 756,185 326,162 551,372 675,607 131,251 150,528 57,808 -29,85 -112,137 -201,126 -164,-21 -322,-66 -470,-140 -208,-103 -379,-254 -521,-436 -157,-199 -345,-362 -572,-475 -91,-45 -186,-81 -284,-108 -34,-8 -65,-26 -89,-51 -74,-77 -68,-200 12,-270 176,-152 392,-237 637,-246zm-940 1602c-132,-252 -149,-530 -53,-811 29,-86 114,-137 203,-125 79,11 157,29 232,52 75,23 147,51 215,85 208,103 379,254 522,436 156,199 344,362 572,475 98,49 200,87 306,114 34,9 63,26 86,50 75,76 70,200 -10,270 -176,154 -392,240 -638,250 -231,9 -488,-50 -759,-185 -328,-163 -553,-373 -676,-611z"/>
</svg>