<?xml version="1.0" encoding="UTF-8"?>
<!DOCTYPE svg PUBLIC "-//W3C//DTD SVG 1.1//EN" "http://www.w3.org/Graphics/SVG/1.1/DTD/svg11.dtd">
<svg xmlns="http://www.w3.org/2000/svg" xml:space="preserve" width="580px" height="580px" shape-rendering="geometricPrecision" text-rendering="geometricPrecision" image-rendering="optimizeQuality" fill-rule="nonzero" clip-rule="nonzero" viewBox="0 0 5800 5800" xmlns:xlink="http://www.w3.org/1999/xlink">
	<title>coffee_bean icon</title>
	<desc>coffee_bean icon from the IconExperience.com I-Collection. Copyright by INCORS GmbH (www.incors.com).</desc>
		<path id="curve28" d="M1946 894c579,-307 1130,-419 1616,-389 555,35 1025,255 1357,586 76,76 105,183 78,288 -27,105 -104,185 -210,211 -282,69 -554,172 -811,307 -441,234 -817,556 -1137,938 -305,364 -667,673 -1087,895 -328,174 -680,289 -1045,349 -71,12 -139,-4 -196,-41 -55,-36 -98,-92 -119,-161 -163,-531 -112,-1124 178,-1675 260,-495 713,-957 1376,-1308zm1604 -190c-452,-28 -966,78 -1511,366 -625,331 -1050,763 -1293,1225 -264,503 -311,1042 -164,1524 13,41 49,71 93,63 345,-56 675,-164 984,-328 399,-211 738,-502 1027,-847 336,-401 734,-741 1197,-986 271,-144 559,-252 857,-324 71,-18 88,-115 38,-165 -299,-297 -724,-496 -1228,-528zm1858 1219c163,531 112,1124 -178,1675 -260,495 -713,957 -1376,1308 -579,307 -1130,419 -1616,389 -555,-35 -1025,-255 -1357,-586 -38,-38 -64,-83 -78,-133 -42,-159 50,-327 210,-366 282,-69 554,-172 811,-308 441,-233 817,-555 1137,-937 305,-364 667,-673 1087,-895 328,-174 680,-289 1045,-349 71,-12 139,4 196,41 55,36 98,92 119,161zm-354 1582c264,-503 311,-1042 164,-1524 -13,-41 -49,-71 -93,-63 -345,56 -675,164 -984,328 -399,211 -738,502 -1027,847 -336,401 -734,741 -1197,986 -271,144 -559,252 -857,324 -71,18 -88,115 -38,165 299,297 724,496 1228,528 452,28 966,-78 1511,-366 625,-331 1050,-763 1293,-1225z"/>
</svg>