<?xml version="1.0" encoding="UTF-8"?>
<!DOCTYPE svg PUBLIC "-//W3C//DTD SVG 1.1//EN" "http://www.w3.org/Graphics/SVG/1.1/DTD/svg11.dtd">
<svg xmlns="http://www.w3.org/2000/svg" xml:space="preserve" width="580px" height="580px" shape-rendering="geometricPrecision" text-rendering="geometricPrecision" image-rendering="optimizeQuality" fill-rule="nonzero" clip-rule="nonzero" viewBox="0 0 5800 5800" xmlns:xlink="http://www.w3.org/1999/xlink">
	<title>coffee_machine icon</title>
	<desc>coffee_machine icon from the IconExperience.com I-Collection. Copyright by INCORS GmbH (www.incors.com).</desc>
		<path id="curve28"  d="M1700 300l2800 0c331,0 600,269 600,600l0 4600 -4000 0 0 -200c0,-331 269,-600 600,-600l2100 0c55,0 100,-45 100,-100l0 -2600c0,-55 -45,-100 -100,-100l-2100 0c-331,0 -600,-269 -600,-600l0 -400c0,-331 269,-600 600,-600zm2000 2919c0,415 -127,904 -500,1139l0 142 -1300 0 0 -141c-164,-93 -324,-235 -419,-399 -113,-30 -245,-42 -361,-50 -245,-16 -420,-218 -420,-460 0,-248 202,-450 450,-450l150 0 0 -300 2400 0 0 519zm-200 0l0 -319 -2000 0 0 300 -350 0c-138,0 -250,112 -250,250 0,137 93,252 233,261 140,10 315,25 448,70l39 14c94,187 237,322 425,416l55 28 0 61 900 0 0 -61 55 -28c339,-169 445,-647 445,-992zm-200 -1219l0 31c0,147 -106,271 -251,295 -30,5 -349,58 -349,59l0 115c-133,0 -267,0 -400,0l0 -115c0,-1 -319,-54 -349,-59 -145,-24 -251,-148 -251,-295l0 -31c504,0 1096,0 1600,0z"/>
</svg>