<?xml version="1.0" encoding="UTF-8"?>
<!DOCTYPE svg PUBLIC "-//W3C//DTD SVG 1.1//EN" "http://www.w3.org/Graphics/SVG/1.1/DTD/svg11.dtd">
<svg xmlns="http://www.w3.org/2000/svg" xml:space="preserve" width="580px" height="580px" shape-rendering="geometricPrecision" text-rendering="geometricPrecision" image-rendering="optimizeQuality" fill-rule="nonzero" clip-rule="nonzero" viewBox="0 0 5800 5800" xmlns:xlink="http://www.w3.org/1999/xlink">
	<title>coffee_bean icon</title>
	<desc>coffee_bean icon from the IconExperience.com I-Collection. Copyright by INCORS GmbH (www.incors.com).</desc>
		<path id="curve28"  d="M1946 894c579,-307 1130,-419 1616,-389 555,35 1025,255 1357,586 116,115 117,306 3,423 -37,37 -82,63 -135,76 -282,69 -554,172 -811,307 -441,234 -817,556 -1137,938 -305,364 -667,673 -1087,895 -328,174 -680,289 -1045,349 -143,24 -274,-66 -315,-202 -163,-531 -112,-1124 178,-1675 260,-495 713,-957 1376,-1308zm3462 1029c163,531 112,1124 -178,1675 -260,495 -713,957 -1376,1308 -579,307 -1130,419 -1616,389 -555,-35 -1025,-255 -1357,-586 -116,-115 -117,-306 -3,-423 37,-37 82,-63 135,-76 282,-69 554,-172 811,-308 441,-233 817,-555 1137,-937 305,-364 667,-673 1087,-895 328,-174 680,-289 1045,-349 143,-24 274,66 315,202z"/>
</svg>