<?xml version="1.0" encoding="UTF-8"?>
<!DOCTYPE svg PUBLIC "-//W3C//DTD SVG 1.1//EN" "http://www.w3.org/Graphics/SVG/1.1/DTD/svg11.dtd">
<svg xmlns="http://www.w3.org/2000/svg" xml:space="preserve" width="580px" height="580px" shape-rendering="geometricPrecision" text-rendering="geometricPrecision" image-rendering="optimizeQuality" fill-rule="nonzero" clip-rule="nonzero" viewBox="0 0 5800 5800" xmlns:xlink="http://www.w3.org/1999/xlink">
	<title>coffee_beans icon</title>
	<desc>coffee_beans icon from the IconExperience.com I-Collection. Copyright by INCORS GmbH (www.incors.com).</desc>
		<path id="curve28" d="M4022 665c-240,-119 -463,-172 -660,-165 -190,7 -357,70 -494,181 47,14 94,30 140,47 321,122 587,331 799,601 66,84 137,158 213,222 185,155 398,245 636,277 72,-224 56,-444 -48,-642 -105,-199 -299,-379 -586,-521zm-668 -364c231,-8 486,51 756,185 326,162 551,372 675,607 131,251 150,528 57,808 -29,85 -112,137 -201,126 -85,-11 -167,-28 -244,-51 -187,-56 -355,-146 -505,-272 -86,-72 -167,-156 -242,-253 -189,-241 -426,-428 -712,-536 -47,-18 -99,-36 -148,-48 -33,-9 -62,-26 -85,-50 -74,-77 -69,-199 12,-270 176,-152 392,-237 637,-246zm-808 865c-74,225 -59,447 44,645 105,200 300,381 588,524 241,120 465,172 663,165 190,-8 357,-71 495,-184 -245,-67 -469,-184 -664,-347 -107,-88 -205,-191 -296,-306 -216,-275 -485,-445 -830,-497zm-132 737c-132,-252 -149,-530 -53,-811 14,-43 43,-77 79,-99 36,-22 79,-32 124,-26 400,57 719,254 969,573 82,105 171,197 266,276 180,149 386,255 612,313 68,18 118,69 134,137 8,34 7,68 -3,99 -10,32 -29,61 -55,84 -176,154 -392,240 -638,250 -231,9 -488,-50 -759,-185 -328,-163 -553,-373 -676,-611zm-764 197c530,0 1057,189 1271,713 27,66 17,138 -29,194 -46,56 -117,81 -188,65 -376,-75 -736,-13 -1079,152 -115,56 -230,97 -345,125 -117,29 -233,43 -347,43 -173,0 -342,-32 -505,-89 -43,-16 -78,-45 -101,-82 -22,-37 -31,-81 -25,-127 102,-701 693,-994 1348,-994zm0 200c-550,0 -1059,222 -1149,817 139,48 284,75 432,75 100,0 200,-12 300,-36 101,-25 203,-62 305,-111 379,-183 778,-251 1193,-170 -186,-435 -643,-575 -1081,-575zm1348 1198c-99,705 -690,1002 -1348,1002 -533,0 -1063,-192 -1275,-719 -13,-33 -17,-68 -11,-101 5,-34 19,-66 42,-93 23,-28 52,-48 84,-59 32,-11 67,-13 102,-6 113,24 225,36 341,36 128,0 255,-15 380,-45 127,-30 254,-76 382,-137 379,-183 772,-220 1174,-86 89,30 142,116 129,208zm-199 -21c-349,-115 -688,-80 -1018,78 -139,67 -280,118 -422,152 -143,34 -285,51 -426,51 -123,0 -247,-13 -367,-37 185,438 642,579 1084,579 552,0 1062,-224 1149,-823zm322 1519c-414,-556 -201,-1168 251,-1620 367,-366 866,-604 1376,-392 66,27 109,87 116,157 7,70 -25,136 -84,175 -88,59 -169,125 -244,200 -186,185 -315,407 -403,653 -42,119 -93,227 -153,325 -152,248 -364,433 -625,559 -41,20 -85,24 -127,14 -41,-11 -79,-35 -107,-71zm392 -1479c-377,377 -583,880 -237,1353 225,-110 402,-266 533,-480 54,-88 99,-183 136,-287 97,-274 244,-523 450,-729 79,-78 166,-150 258,-213 -427,-166 -839,56 -1140,356zm1761 -114c184,244 258,521 213,810 -44,272 -194,551 -459,816 -221,220 -451,361 -679,427 -243,70 -482,55 -703,-38 -32,-14 -59,-36 -79,-63 -20,-27 -33,-60 -36,-95 -6,-70 27,-136 86,-174 202,-131 368,-301 494,-506 67,-108 124,-228 170,-359 80,-224 197,-426 366,-595 115,-114 248,-207 392,-279 40,-20 85,-25 127,-15 42,10 80,34 108,71zm16 779c36,-230 -23,-454 -170,-652 -123,62 -234,140 -332,238 -146,146 -250,326 -319,520 -50,143 -113,275 -188,397 -139,224 -319,411 -539,557 174,69 361,77 551,22 196,-56 398,-181 594,-377 234,-233 366,-474 403,-705z"/>
</svg>