<?xml version="1.0" encoding="utf-8"?>
<!-- Generator: Adobe Illustrator 19.2.1, SVG Export Plug-In . SVG Version: 6.00 Build 0)  -->
<svg version="1.1" id="color_x5F_edit_x5F_gi" xmlns="http://www.w3.org/2000/svg" xmlns:xlink="http://www.w3.org/1999/xlink"
	 x="0px" y="0px" width="580px" height="580px" viewBox="0 0 580 580" style="enable-background:new 0 0 580 580;"
	 xml:space="preserve">
<title>address_book2 icon</title>
<desc>address_book2 icon from the IconExperience.com I-Collection. Copyright by INCORS GmbH (www.incors.com).</desc>
<title>address_book2 icon</title>
<desc>address_book2 icon from the IconExperience.com I-Collection. Copyright by INCORS GmbH (www.incors.com).</desc>
<title>address_book2 icon</title>
<desc>address_book2 icon from the IconExperience.com I-Collection. Copyright by INCORS GmbH (www.incors.com).</desc>
<path id="curve28_2_" d="M519.1,60.9c17.5,17.5,24.7,40.5,22.7,64.9c-2.1,25.6-14.6,51.1-32.7,69.3c-22.3,22.2-44.1,28-63,33.1
	c-22,5.8-39.1,10.3-44.2,51l-0.4,3.4L382,302.1L277.9,198l19.5-19.5l3.4-0.4c40.7-5.1,45.2-22.2,51-44.2c6.9-25.6,13.8-43.6,33.1-63
	c17.1-17,40.7-29,64.7-32.2C474.4,35.5,499.7,41.5,519.1,60.9z M289.1,235.1l-130,130c-13.4,13.4-18,27.2-22.6,41
	c-5.4,16.2-10.8,32.4-27.4,49l-13,12.9l15.9,15.9l12.9-13c16.6-16.6,32.8-22,49-27.4c13.8-4.6,27.6-9.2,41-22.6l130-130l14.2,14.2
	l-130,130c-16.6,16.6-32.8,22-49,27.4c-13.8,4.6-27.6,9.2-41,22.6l-57.1,57L37.9,498l57-57.1c13.4-13.4,18-27.2,22.6-41
	c5.4-16.2,10.8-32.4,27.4-49l130-130L289.1,235.1z"/>
</svg>
