<?xml version="1.0" encoding="utf-8"?>
<!-- Generator: Adobe Illustrator 19.2.1, SVG Export Plug-In . SVG Version: 6.00 Build 0)  -->
<svg version="1.1" id="Ebene_1" xmlns="http://www.w3.org/2000/svg" xmlns:xlink="http://www.w3.org/1999/xlink" x="0px" y="0px"
	 width="580px" height="580px" viewBox="0 0 580 580" style="enable-background:new 0 0 580 580;" xml:space="preserve">
<g>
	<g id="curve28_56_">
		<path d="M332.6,506.6l-28.7-86.2H292v-20h16.2c6.4,0,11.9,4.2,13.5,10.3l10.4,31.1l35.5-112.5c1.8-5.8,7.3-9.9,13.4-9.9h91v20
			h-86.6L332.6,506.6z"/>
	</g>
	<path d="M257,178h80v24h20V18H37v460h146V202h74V178z M337,158h-80V78h80V158z M137,458H57v-80h80V458z M137,358H57v-80h80V358z
		 M137,258H57v-80h80V258z M137,158H57V78h80V158z M57,58V38h280v20H57z"/>
	<path d="M223,242v320h320V242H223z M523,542H243V262h280V542z"/>
</g>
</svg>
