<?xml version="1.0" encoding="utf-8"?>
<!-- Generator: Adobe Illustrator 19.2.1, SVG Export Plug-In . SVG Version: 6.00 Build 0)  -->
<svg version="1.1" id="Ebene_1" xmlns="http://www.w3.org/2000/svg" xmlns:xlink="http://www.w3.org/1999/xlink" x="0px" y="0px"
	 width="580px" height="580px" viewBox="0 0 580 580" style="enable-background:new 0 0 580 580;" xml:space="preserve">
<g>
	<path d="M257,278h80v24h20V18H37v460h146V302h74V278z M337,258h-80v-80h80V258z M337,158h-80V78h80V158z M137,458H57v-80h80V458z
		 M137,358H57v-80h80V358z M137,258H57v-80h80V258z M137,158H57V78h80V158z M57,58V38h280v20H57z"/>
	<path d="M223,342v220h320V342H223z M523,542H243V362h280V542z"/>
	<polygon points="498,494 480,494 480,408 498,408 498,387 441,387 441,408 460,408 460,494 441,494 441,515 498,515 	"/>
	<path d="M269.2,510.6c4.9,4.6,11.9,7,20.4,7c9.1,0,16.4-3.2,22.4-9.5v7.9h18v-54.6c0-21.1-10.8-32.2-30.8-32.2
		c-10.7,0-20.5,2.6-28.7,7.9l-1.5,0.7v19.8l4.3-3.5c7.2-6.1,15.5-9.2,24.5-9.2c5.7,0,13.2,1.7,13.9,15.6l-21.6,3
		c-18.9,2.6-28.4,12.2-28.4,28.5C261.7,499.7,264.2,505.9,269.2,510.6z M283.2,482c2.7-1.9,6.9-3.2,12.4-4l16.4-2.3v5.1
		c0,6.2-1.9,11.1-5.6,15.1c-3.7,3.9-8.2,5.9-13.9,5.9c-4,0-7.1-1-9.4-3.1c-2.2-2-3.3-4.5-3.3-7.7C279.8,486.6,280.9,483.6,283.2,482
		z"/>
	<path d="M366,508.7c6,5.9,13,8.8,21.9,8.8c12,0,21.7-4.4,28.6-12.9c6.8-8.4,10.3-19.7,10.3-33.6c0-12.5-3.1-22.7-9.2-30.2
		c-6.3-7.7-15.2-11.6-26.1-11.6c-10.4,0-18.5,3.7-25.5,11.1V393h-17v123h17V508.7z M366,469.6c0-7.2,2.2-13,6.3-17.8
		c4.1-4.6,9.4-6.9,16.1-6.9c6.3,0,11.1,2.2,14.8,6.6c3.7,4.6,5.6,11,5.6,19.3c0,9.9-2,17.7-6.1,23.2c-3.9,5.3-9.2,7.9-16.2,7.9
		c-5.9,0-10.8-2-14.7-6.1c-3.9-4.1-5.9-9.1-5.9-15.1V469.6z"/>
</g>
</svg>
