<?xml version="1.0" encoding="utf-8"?>
<!-- Generator: Adobe Illustrator 19.2.1, SVG Export Plug-In . SVG Version: 6.00 Build 0)  -->
<svg version="1.1" id="Ebene_1" xmlns="http://www.w3.org/2000/svg" xmlns:xlink="http://www.w3.org/1999/xlink" x="0px" y="0px"
	 width="580px" height="580px" viewBox="0 0 580 580" style="enable-background:new 0 0 580 580;" xml:space="preserve">
<g>
	<path d="M257,178h80v36h20V18H37v460h146V214h74V178z M337,158h-80V78h80V158z M137,458H57v-80h80V458z M137,358H57v-80h80V358z
		 M137,258H57v-80h80V258z M137,158H57V78h80V158z M57,58V38h280v20H57z"/>
	<path d="M223,254v87v24v0V562h321V254H223z M524,542H244V365h280V542z M524,345H243v-71h281V345z"/>
	<polygon points="471,283 471,334.7 502,307.8 	"/>
	<polygon points="295,283 264,307.8 295,334.7 	"/>
	<rect x="264" y="386" width="32" height="32"/>
	<rect x="316" y="386" width="32" height="32"/>
	<rect x="368" y="386" width="32" height="32"/>
	<rect x="420" y="386" width="32" height="32"/>
	<rect x="472" y="386" width="32" height="32"/>
	<rect x="264" y="438" width="32" height="32"/>
	<rect x="316" y="438" width="32" height="32"/>
	<rect x="368" y="438" width="32" height="32"/>
	<rect x="264" y="490" width="32" height="32"/>
	<rect x="316" y="490" width="32" height="32"/>
	<rect x="368" y="490" width="32" height="32"/>
	<rect x="420" y="438" width="84" height="84"/>
</g>
</svg>
