<?xml version="1.0" encoding="utf-8"?>
<!-- Generator: Adobe Illustrator 19.2.1, SVG Export Plug-In . SVG Version: 6.00 Build 0)  -->
<svg version="1.1" id="Ebene_1" xmlns="http://www.w3.org/2000/svg" xmlns:xlink="http://www.w3.org/1999/xlink" x="0px" y="0px"
	 width="580px" height="580px" viewBox="0 0 580 580" style="enable-background:new 0 0 580 580;" xml:space="preserve">
<g>
	<path d="M257,403.8V378h80v43.2c1,1,2.5,2,3.8,3c2.8,2.3,6.1,5,9.1,8.3l7.1,1.3V18H37v460h116.8c3-18,11.5-34.8,24.8-48.1
		c16.7-16.7,39-26,62.8-26.1L257,403.8z M337,358h-80v-80h80V358z M337,258h-80v-80h80V258z M337,158h-80V78h80V158z M137,458H57
		v-80h80V458z M137,358H57v-80h80V358z M137,258H57v-80h80V258z M137,158H57V78h80V158z M57,58V38h280v20H57z"/>
	<path d="M290.2,502.2c0.1,5.5,2.8,9.8,6.3,9.8h137.7c3.5,0,6.2-4.7,6.3-10.2c-0.1-5.5-2.8-9.8-6.3-9.8H296.4
		C293,492,290.2,496.7,290.2,502.2z"/>
	<path d="M273.8,543H256c-22.8,0-41-19.1-41-42v-0.2c0-22.8,18.2-40.9,41-40.9h17.8c13.6,0,25.6,6,33.2,16h30.8
		c-6.9-22-27.5-38-51.8-38h-42.1c-30,0-54.9,24.5-54.9,54.5v15.7c0,30,24.9,53.8,54.9,53.8H286c23.7,0,43.9-15,51.3-35h-30.5
		C299.2,536,287.2,543,273.8,543z"/>
	<path d="M486.9,438h-42.1c-24.3,0-44.9,16-51.8,38h30.8c7.5-10,19.6-16,33.2-16h17.8c22.8,0,42.2,18,42.2,40.9v0.2
		c0,22.8-19.4,42-42.2,42H457c-13.5,0-25.4-7-33-16h-30.5c7.4,20,27.6,35,51.3,35h42.1c30,0,54.1-23.8,54.1-53.8v-15.7
		C541,462.5,516.9,438,486.9,438z"/>
</g>
</svg>
