<?xml version="1.0" encoding="utf-8"?>
<!-- Generator: Adobe Illustrator 19.2.1, SVG Export Plug-In . SVG Version: 6.00 Build 0)  -->
<svg version="1.1" id="Ebene_1" xmlns="http://www.w3.org/2000/svg" xmlns:xlink="http://www.w3.org/1999/xlink" x="0px" y="0px"
	 width="580px" height="580px" viewBox="0 0 580 580" style="enable-background:new 0 0 580 580;" xml:space="preserve">
<g>
	<path d="M257,397.8V378h19.8l20-20H257v-80h80v25.5l15.2-15.2l4.8-0.6V18H37v460h161.9c4.8-15,11.8-33.8,31.4-53.5L257,397.8z
		 M337,258h-80v-80h80V258z M337,158h-80V78h80V158z M137,458H57v-80h80V458z M137,358H57v-80h80V358z M137,258H57v-80h80V258z
		 M137,158H57V78h80V158z M57,58V38h280v20H57z"/>
	<path d="M336.9,485.6c-8.4,8.4-17.1,11.3-25.8,14.2c-10.2,3.4-20.4,6.8-30.9,17.3l-8.1,8.2l-10-10l8.2-8.1
		c10.5-10.5,13.9-20.7,17.3-30.9c2.9-8.7,5.8-17.4,14.2-25.8l82-82l-9-9l-82,82c-10.5,10.5-13.9,20.7-17.3,30.9
		c-2.9,8.7-5.8,17.4-14.2,25.8l-35.9,36l27.8,27.8l36-35.9c8.4-8.4,17.1-11.3,25.8-14.2c10.2-3.4,20.4-6.8,30.9-17.3l82-82l-9-9
		L336.9,485.6z"/>
	<path d="M528.7,258.6c-12.2-12.2-28.2-16-43.8-14c-15.1,2-30,9.6-40.8,20.3c-12.2,12.2-16.5,23.6-20.9,39.7
		c-3.7,13.9-6.5,24.6-32.2,27.9l-2.1,0.3l-12.3,12.3l65.6,65.6l12.3-12.3l0.3-2.1c3.2-25.7,14-28.5,27.9-32.2
		c11.9-3.2,25.7-6.9,39.7-20.9c11.4-11.5,19.3-27.5,20.6-43.7C544.3,284.2,539.7,269.7,528.7,258.6z"/>
</g>
</svg>
