<?xml version="1.0" encoding="utf-8"?>
<!-- Generator: Adobe Illustrator 19.2.1, SVG Export Plug-In . SVG Version: 6.00 Build 0)  -->
<svg version="1.1" id="Ebene_1" xmlns="http://www.w3.org/2000/svg" xmlns:xlink="http://www.w3.org/1999/xlink" x="0px" y="0px"
	 width="580px" height="580px" viewBox="0 0 580 580" style="enable-background:new 0 0 580 580;" xml:space="preserve">
<g>
	<path d="M257,178h80v24h20V18H37v460h146V202h74V178z M337,158h-80V78h80V158z M137,458H57v-80h80V458z M137,358H57v-80h80V358z
		 M137,258H57v-80h80V258z M137,158H57V78h80V158z M57,58V38h280v20H57z"/>
	<path d="M223,242v320h180.5c8.8,0,17.3-3.5,23.5-9.8L534,445.5c6.3-6.2,10-14.7,10-23.5V242H223z M444.6,504.6l-1-42.6l42.6,1
		L444.6,504.6z M523,420.2c0,10-10.3,20.8-20.3,20.8H424v76.2c0,10-12.3,24.8-22.3,24.8H243V262h280V420.2z"/>
	<rect x="271" y="290" width="223" height="20"/>
	<rect x="271" y="340" width="223" height="20"/>
	<rect x="271" y="390" width="223" height="20"/>
	<rect x="271" y="442" width="118" height="20"/>
	<rect x="271" y="492" width="118" height="20"/>
</g>
</svg>
