<?xml version="1.0" encoding="utf-8"?>
<!-- Generator: Adobe Illustrator 19.2.1, SVG Export Plug-In . SVG Version: 6.00 Build 0)  -->
<svg version="1.1" id="Ebene_1" xmlns="http://www.w3.org/2000/svg" xmlns:xlink="http://www.w3.org/1999/xlink" x="0px" y="0px"
	 width="580px" height="580px" viewBox="0 0 580 580" style="enable-background:new 0 0 580 580;" xml:space="preserve">
<path id="curve28_21_" d="M450,60v460H130V60H450z M430.1,500v-80h-80v80H430.1z M430.1,400v-80h-80v80H430.1z M430.1,300v-80h-80
	v80H430.1z M430.1,200v-80h-80v80H430.1z M230.1,500v-80h-80v80H230.1z M230.1,400v-80h-80v80H230.1z M230.1,300v-80h-80v80H230.1z
	 M230.1,200v-80h-80v80H230.1z M150.1,100h280V80h-280V100z"/>
</svg>
