<?xml version="1.0" encoding="utf-8"?>
<!-- Generator: Adobe Illustrator 19.2.1, SVG Export Plug-In . SVG Version: 6.00 Build 0)  -->
<svg version="1.1" id="Ebene_1" xmlns="http://www.w3.org/2000/svg" xmlns:xlink="http://www.w3.org/1999/xlink" x="0px" y="0px"
	 width="580px" height="580px" viewBox="0 0 580 580" style="enable-background:new 0 0 580 580;" xml:space="preserve">
<g>
	<path d="M257,244.7V178h80v28.1c6-1.5,13-2.7,20-3.5V18H37v460h159.9c-9.8-24-15.2-49.7-15.2-76.9C181.7,337.8,211,281.4,257,244.7
		z M337,158h-80V78h80V158z M57,38h280v20H57V38z M137,458H57v-80h80V458z M137,358H57v-80h80V358z M137,258H57v-80h80V258z
		 M137,158H57V78h80V158z"/>
	<path d="M383.6,242c-88.4,0-160,71.6-160,160s71.6,160,160,160s160-71.6,160-160S472,242,383.6,242z M383,542
		c-77.3,0-140-62.7-140-140s62.7-140,140-140s140,62.7,140,140S460.3,542,383,542z"/>
	<path d="M433.5,343.2l-38.1,36.6c-3.5-1.9-7.5-2.9-11.8-2.9c-3.5,0-6.9,0.7-9.9,2l-66.3-62.7l-13.7,14.5l66.3,62.7
		c-1,2.7-1.5,5.6-1.5,8.6c0,13.9,11.3,25.1,25.1,25.1s25.1-11.3,25.1-25.1c0-2.2-0.3-4.4-0.8-6.5l39.5-37.9L433.5,343.2z"/>
</g>
</svg>
