<?xml version="1.0" encoding="utf-8"?>
<!-- Generator: Adobe Illustrator 19.2.1, SVG Export Plug-In . SVG Version: 6.00 Build 0)  -->
<svg version="1.1" id="Ebene_1" xmlns="http://www.w3.org/2000/svg" xmlns:xlink="http://www.w3.org/1999/xlink" x="0px" y="0px"
	 width="580px" height="580px" viewBox="0 0 580 580" style="enable-background:new 0 0 580 580;" xml:space="preserve">
<g>
	<path d="M257,178h80v24h20V18H37v460h146V202h74V178z M337,158h-80V78h80V158z M137,458H57v-80h80V458z M137,358H57v-80h80V358z
		 M137,258H57v-80h80V258z M137,158H57V78h80V158z M57,58V38h280v20H57z"/>
	<path d="M223,242v320h320V242H223z M523,542H243V262h280V542z"/>
	<polygon points="456.2,425 310.7,425 383.5,497.7 	"/>
	<polygon points="383.5,306.3 310.7,379 456.2,379 	"/>
</g>
</svg>
