<?xml version="1.0" encoding="utf-8"?>
<!-- Generator: Adobe Illustrator 19.2.1, SVG Export Plug-In . SVG Version: 6.00 Build 0)  -->
<svg version="1.1" id="Ebene_1" xmlns="http://www.w3.org/2000/svg" xmlns:xlink="http://www.w3.org/1999/xlink" x="0px" y="0px"
	 width="580px" height="580px" viewBox="0 0 580 580" style="enable-background:new 0 0 580 580;" xml:space="preserve">
<g>
	<path d="M257,178h80v34h20V18H37v460h146V212h74V178z M337,158h-80V78h80V158z M137,458H57v-80h80V458z M137,358H57v-80h80V358z
		 M137,258H57v-80h80V258z M137,158H57V78h80V158z M57,58V38h280v20H57z"/>
	<path d="M223,252v310h284V364h38V252H223z M244,272h181v71H244V272z M488,542H243V364h245V542z M525,343h-79v-71h79V343z"/>
	<polygon points="513.3,296 461.2,296 488.3,327.2 	"/>
	<rect x="270" y="393" width="191" height="20"/>
	<rect x="270" y="443" width="191" height="20"/>
	<rect x="270" y="493" width="191" height="20"/>
</g>
</svg>
