<?xml version="1.0" encoding="utf-8"?>
<!-- Generator: Adobe Illustrator 19.2.1, SVG Export Plug-In . SVG Version: 6.00 Build 0)  -->
<svg version="1.1" id="Ebene_1" xmlns="http://www.w3.org/2000/svg" xmlns:xlink="http://www.w3.org/1999/xlink" x="0px" y="0px"
	 width="580px" height="580px" viewBox="0 0 580 580" style="enable-background:new 0 0 580 580;" xml:space="preserve">
<g>
	<path d="M257,278h80v24h20V18H37v460h146V302h74V278z M337,258h-80v-80h80V258z M337,158h-80V78h80V158z M137,458H57v-80h80V458z
		 M137,358H57v-80h80V358z M137,258H57v-80h80V258z M137,158H57V78h80V158z M57,58V38h280v20H57z"/>
	<path d="M223,342v220h320V342H223z M523,542H243V362h280V542z"/>
	<rect x="355" y="393" width="54" height="119"/>
	<rect x="437" y="393" width="31" height="119"/>
	<rect x="273" y="393" width="54" height="119"/>
</g>
</svg>
