<?xml version="1.0" encoding="utf-8"?>
<!-- Generator: Adobe Illustrator 19.2.1, SVG Export Plug-In . SVG Version: 6.00 Build 0)  -->
<svg version="1.1" id="Ebene_1" xmlns="http://www.w3.org/2000/svg" xmlns:xlink="http://www.w3.org/1999/xlink" x="0px" y="0px"
	 width="580px" height="580px" viewBox="0 0 580 580" style="enable-background:new 0 0 580 580;" xml:space="preserve">
<g>
	<path d="M257,178h80v24h20V18H37v460h146V202h74V178z M337,158h-80V78h80V158z M137,458H57v-80h80V458z M137,358H57v-80h80V358z
		 M137,258H57v-80h80V258z M137,158H57V78h80V158z M57,58V38h280v20H57z"/>
	<path d="M223,242v320h320V242H223z M523,262v186.5l-37.5-35.7l-56.7,48.3l-84.6-86.6L243,474.3V262H523z M243,542v-39.7l101-99.4
		l83.5,85.6l57.2-48.8l38.3,36.4V542H243z"/>
	<path d="M454.5,371.2c24,0,43.5-19.5,43.5-43.5s-19.5-43.5-43.5-43.5S411,303.7,411,327.7S430.5,371.2,454.5,371.2z"/>
</g>
</svg>
