<?xml version="1.0" encoding="utf-8"?>
<!-- Generator: Adobe Illustrator 19.2.1, SVG Export Plug-In . SVG Version: 6.00 Build 0)  -->
<svg version="1.1" id="Ebene_1" xmlns="http://www.w3.org/2000/svg" xmlns:xlink="http://www.w3.org/1999/xlink" x="0px" y="0px"
	 width="580px" height="580px" viewBox="0 0 580 580" style="enable-background:new 0 0 580 580;" xml:space="preserve">
<g>
	<path d="M337,202h20V18H37v460h209V230.3l11-10.7V178h80V202z M137,458H57v-80h80V458z M137,358H57v-80h80V358z M137,258H57v-80h80
		V258z M137,158H57V78h80V158z M57,58V38h280v20H57z M257,158V78h80v80H257z"/>
	<path d="M543,259.2c-5-5.6-10.6-11.2-16.2-16.2H304.3c-5.6,5-11.3,10.6-16.3,16.2v56.4l10.2,10.2L288,335.9v56.4l10.2,10.2
		L288,412.6v56.4l10.2,10.2L288,489.2v56.4l16.3,16.4h222.5l16.2-16.4v-56.4l-10.2-10.2l10.2-10.2v-56.4l-10.2-10.2l10.2-10.2v-56.4
		l-10.2-10.2l10.2-10.2V259.2z M519,535.4l-6.6,7.6H318.7l-6.7-7.6v-36l6.7-8.4h193.7l6.6,8.4V535.4z M519,460.7l-9.9,9.3H322
		l-10-9.3v-38l8.4-9.7h190.4l8.3,9.7V460.7z M519,384.1l-8.3,7.9H320.4l-8.4-7.9v-38l5.5-7.1h196.1l5.4,7.1V384.1z M519,309.4
		l-5.4,8.6H317.5l-5.5-8.6v-40c1-0.7,4.8-6.3,5.5-7.3h196.1c0.7,1,4.4,6.6,5.4,7.3V309.4z"/>
</g>
</svg>
