<?xml version="1.0" encoding="UTF-8"?>
<!DOCTYPE svg PUBLIC "-//W3C//DTD SVG 1.1//EN" "http://www.w3.org/Graphics/SVG/1.1/DTD/svg11.dtd">
<svg xmlns="http://www.w3.org/2000/svg" xml:space="preserve" width="580px" height="580px" shape-rendering="geometricPrecision" text-rendering="geometricPrecision" image-rendering="optimizeQuality" fill-rule="nonzero" clip-rule="nonzero" viewBox="0 0 5800 5800" xmlns:xlink="http://www.w3.org/1999/xlink">
	<title>comb icon</title>
	<desc>comb icon from the IconExperience.com I-Collection. Copyright by INCORS GmbH (www.incors.com).</desc>
		<path id="curve29"  d="M2167 3361l948 822 -822 -948c-59,-68 -110,-133 -133,-205 -29,-91 -16,-178 71,-265 87,-87 174,-100 265,-71 72,23 137,75 205,133l948 822 -822 -948c-59,-68 -110,-133 -133,-205 -29,-91 -16,-178 71,-265 87,-87 174,-100 265,-71 72,23 137,74 205,133l948 821 -822 -947c-58,-68 -110,-133 -133,-205 -29,-91 -16,-178 71,-265 87,-87 174,-100 265,-71 72,23 137,74 205,133l948 821 -822 -948c-58,-67 -109,-132 -133,-204 -29,-91 -16,-178 71,-265 87,-87 174,-100 265,-71 72,23 137,74 205,133l945 819c-99,-113 -182,-210 -263,-304 -266,-311 -507,-592 -1018,-1103 -183,-183 -478,-183 -660,0l-2670 2670c-182,181 -182,478 0,660 511,511 792,752 1103,1019 95,80 191,163 304,262l-819 -945c-59,-68 -110,-133 -133,-205 -29,-91 -16,-178 71,-265 87,-87 174,-100 265,-71 72,24 137,75 204,133l949 822 -822 -948c-59,-68 -110,-133 -133,-205 -29,-91 -16,-178 71,-265 87,-87 174,-100 265,-71 72,23 137,75 205,133zm1674 205c75,76 75,199 0,275 -76,75 -199,76 -275,0l-996 -863c-51,-44 -97,-82 -135,-94 -19,-6 -39,-1 -63,22 -23,24 -28,44 -22,63 12,38 50,84 94,135l863 996c75,76 75,199 0,275 -76,76 -199,76 -275,0l-996 -863c-51,-44 -97,-82 -135,-94 -19,-6 -39,-1 -63,22 -23,24 -28,44 -22,63 12,38 50,85 94,135l865 999c73,76 72,197 -2,272 -76,75 -199,76 -275,0l-996 -863c-51,-44 -97,-82 -135,-94 -19,-6 -39,-1 -63,22 -23,24 -28,44 -22,63 12,38 50,85 94,135l865 999c73,76 72,197 -2,272l0 0c-76,76 -199,76 -275,0 1,-1 -322,-279 -353,-306 -317,-271 -604,-517 -1116,-1029 -259,-259 -259,-684 0,-943l2670 -2670c260,-260 683,-260 943,0 512,512 758,799 1029,1116 26,30 305,354 306,353 76,76 75,199 0,275 9,9 -153,122 -275,0l-996 -863c-50,-44 -97,-82 -135,-94 -19,-6 -39,-1 -63,22 -23,24 -28,44 -22,63 12,38 50,84 94,135l863 996c76,75 75,199 0,274 -76,76 -199,77 -275,1l-996 -863c-50,-44 -97,-82 -135,-94 -19,-6 -39,-1 -63,22 -23,24 -28,44 -22,63 12,38 50,84 94,135l866 999c73,76 72,197 -3,272 -38,0 -145,130 -275,0l-996 -863c-51,-44 -97,-82 -135,-94 -19,-6 -39,-1 -63,22 -23,24 -28,44 -22,63 12,38 50,84 94,135l863 996z"/>
</svg>