<?xml version="1.0" encoding="UTF-8"?>
<!DOCTYPE svg PUBLIC "-//W3C//DTD SVG 1.1//EN" "http://www.w3.org/Graphics/SVG/1.1/DTD/svg11.dtd">
<svg xmlns="http://www.w3.org/2000/svg" xml:space="preserve" width="580px" height="580px" shape-rendering="geometricPrecision" text-rendering="geometricPrecision" image-rendering="optimizeQuality" fill-rule="nonzero" clip-rule="nonzero" viewBox="0 0 5800 5800" xmlns:xlink="http://www.w3.org/1999/xlink">
	<title>comb icon</title>
	<desc>comb icon from the IconExperience.com I-Collection. Copyright by INCORS GmbH (www.incors.com).</desc>
		<path id="curve29"  d="M2036 3512c-51,-44 -97,-82 -135,-94 -42,-13 -99,43 -85,85 12,38 50,85 94,135l865 999c73,76 72,197 -2,272 -76,75 -200,76 -275,0l-996 -863c-51,-44 -97,-82 -135,-94 -42,-13 -99,43 -85,85 12,38 50,85 94,135l865 999c73,76 72,197 -2,272 -76,76 -199,76 -275,0 1,-1 -322,-279 -353,-306 -317,-271 -604,-517 -1116,-1029 -259,-259 -259,-684 0,-943l2670 -2670c260,-260 683,-260 943,0 512,512 758,799 1029,1116 26,30 305,354 306,353 76,76 75,199 0,275 -116,116 -287,12 -275,0l-996 -863c-50,-44 -97,-82 -135,-94 -42,-14 -98,43 -85,85 12,38 50,84 94,135l863 996c76,75 75,199 0,274 -75,76 -199,76 -275,1l-996 -863c-50,-44 -97,-82 -135,-94 -42,-14 -98,43 -85,85 12,38 50,84 94,135l866 999c73,76 72,197 -3,272 -76,75 -199,75 -275,0l-996 -863c-51,-44 -97,-82 -135,-94 -42,-14 -99,43 -85,85 12,38 50,84 94,135l863 996c75,76 75,199 0,275 -76,75 -199,76 -275,0l-996 -863c-51,-44 -97,-82 -135,-94 -42,-14 -99,43 -85,85 12,38 50,84 94,135l863 996c38,38 57,88 57,137 0,50 -19,100 -57,138 -76,76 -199,76 -275,0l-996 -863z"/>
</svg>