<?xml version="1.0" encoding="UTF-8"?>
<!DOCTYPE svg PUBLIC "-//W3C//DTD SVG 1.1//EN" "http://www.w3.org/Graphics/SVG/1.1/DTD/svg11.dtd">
<svg xmlns="http://www.w3.org/2000/svg" xml:space="preserve" width="580px" height="580px" shape-rendering="geometricPrecision" text-rendering="geometricPrecision" image-rendering="optimizeQuality" fill-rule="nonzero" clip-rule="nonzero" viewBox="0 0 5800 5800" xmlns:xlink="http://www.w3.org/1999/xlink">
	<title>compass icon</title>
	<desc>compass icon from the IconExperience.com I-Collection. Copyright by INCORS GmbH (www.incors.com).</desc>
		<path id="curve29"  d="M4600 3161c0,-174 0,-348 0,-522 174,87 348,174 523,261 -175,87 -349,174 -523,261zm-1700 -2861c1436,0 2600,1164 2600,2600 0,1436 -1164,2600 -2600,2600 -1436,0 -2600,-1164 -2600,-2600 0,-1436 1164,-2600 2600,-2600zm0 200c-1326,0 -2400,1074 -2400,2400 0,1326 1074,2400 2400,2400 1326,0 2400,-1074 2400,-2400 0,-1326 -1074,-2400 -2400,-2400zm261 700c-174,0 -348,0 -522,0 87,-174 174,-348 261,-523 87,175 174,349 261,523zm-1961 1439c0,174 0,348 0,522 -174,-87 -348,-174 -523,-261l523 -261zm1439 1961c174,0 348,0 522,0 -87,174 -174,348 -261,523 -87,-175 -174,-349 -261,-523z"/>
	<path id="curve28"  d="M3542 2258l962 2246 -2246 -962 -962 -2246 2246 962zm-152 152l-1714 -734 734 1714 1714 734 -734 -1714zm-490 90c221,0 400,179 400,400 0,221 -179,400 -400,400 -221,0 -400,-179 -400,-400 0,-221 179,-400 400,-400zm0 200c-110,0 -200,90 -200,200 0,110 90,200 200,200 110,0 200,-90 200,-200 0,-110 -90,-200 -200,-200z"/>
</svg>