<?xml version="1.0" encoding="UTF-8"?>
<!DOCTYPE svg PUBLIC "-//W3C//DTD SVG 1.1//EN" "http://www.w3.org/Graphics/SVG/1.1/DTD/svg11.dtd">
<svg xmlns="http://www.w3.org/2000/svg" xml:space="preserve" width="580px" height="580px" shape-rendering="geometricPrecision" text-rendering="geometricPrecision" image-rendering="optimizeQuality" fill-rule="nonzero" clip-rule="nonzero" viewBox="0 0 5800 5800" xmlns:xlink="http://www.w3.org/1999/xlink">
	<title>compress icon</title>
	<desc>compress icon from the IconExperience.com I-Collection. Copyright by INCORS GmbH (www.incors.com).</desc>
		<path id="curve28"  d="M4000 4261l-600 300 0 -222 600 -300 0 222zm313 939l-1226 0c-45,175 -204,300 -387,300 -220,0 -400,-180 -400,-400 0,-221 179,-400 400,-400 183,0 342,124 387,300l590 0 323 -161 0 161 313 0c45,-175 204,-300 387,-300 221,0 400,179 400,400 0,220 -180,400 -400,400 -183,0 -342,-124 -387,-300zm-2813 -4900l2800 0c331,0 600,269 600,600l0 200 -2800 0 0 2000 2800 0 0 200c0,331 -269,600 -600,600 0,0 -345,0 -377,0l-523 261 0 -222 77 -39c-659,0 -1318,0 -1977,0 -331,0 -600,-269 -600,-600l0 -2400c0,-331 269,-600 600,-600zm2800 200l-2800 0c-220,0 -400,180 -400,400l0 2400c0,220 180,400 400,400l2800 0c220,0 400,-180 400,-400l-2800 0 0 -2400 2800 0c0,-220 -180,-400 -400,-400zm-300 4161l-600 300 0 -222 600 -300 0 222zm-1300 239c-110,0 -200,90 -200,200 0,111 89,200 200,200 111,0 200,-89 200,-200 0,-110 -90,-200 -200,-200zm2000 0c-111,0 -200,89 -200,200 0,110 90,200 200,200 111,0 200,-89 200,-200 0,-110 -90,-200 -200,-200zm200 -3700l0 1800 -2400 0 0 -1800 2400 0zm-200 200l-2000 0 0 1400 2000 0 0 -1400z"/>
</svg>