<?xml version="1.0" encoding="UTF-8"?>
<!DOCTYPE svg PUBLIC "-//W3C//DTD SVG 1.1//EN" "http://www.w3.org/Graphics/SVG/1.1/DTD/svg11.dtd">
<svg xmlns="http://www.w3.org/2000/svg" xml:space="preserve" width="580px" height="580px" shape-rendering="geometricPrecision" text-rendering="geometricPrecision" image-rendering="optimizeQuality" fill-rule="nonzero" clip-rule="nonzero" viewBox="0 0 5800 5800" xmlns:xlink="http://www.w3.org/1999/xlink">
	<title>compress2 icon</title>
	<desc>compress2 icon from the IconExperience.com I-Collection. Copyright by INCORS GmbH (www.incors.com).</desc>
		<path id="curve28"  d="M4000 4361l-77 39 390 0c45,-175 204,-300 387,-300 221,0 400,179 400,400 0,220 -180,400 -400,400 -183,0 -342,-124 -387,-300l-1226 0c-45,175 -204,300 -387,300 -220,0 -400,-180 -400,-400 0,-221 179,-400 400,-400 183,0 342,124 387,300l390 0 523 -261 0 222zm920 -3061c85,136 130,274 130,450 0,219 -69,380 -201,550l-849 0 0 61 -600 300 0 -222 277 -139 -1126 0c-132,-170 -201,-331 -201,-550 0,-176 45,-314 130,-450l2440 0zm-3420 -1000l2800 0c331,0 600,269 600,600l0 200 -2800 0 0 2000 1577 0 323 -161 0 161c300,0 600,0 900,0l0 200c0,331 -269,600 -600,600l-300 0 0 61 -600 300 0 -222 277 -139 -2177 0c-331,0 -600,-269 -600,-600l0 -2400c0,-331 269,-600 600,-600zm2500 2461l-600 300 0 -222 600 -300 0 222z"/>
</svg>