<?xml version="1.0" encoding="UTF-8"?>
<!DOCTYPE svg PUBLIC "-//W3C//DTD SVG 1.1//EN" "http://www.w3.org/Graphics/SVG/1.1/DTD/svg11.dtd">
<svg xmlns="http://www.w3.org/2000/svg" xml:space="preserve" width="580px" height="580px" shape-rendering="geometricPrecision" text-rendering="geometricPrecision" image-rendering="optimizeQuality" fill-rule="nonzero" clip-rule="nonzero" viewBox="0 0 5800 5800" xmlns:xlink="http://www.w3.org/1999/xlink">
	<title>compress2 icon</title>
	<desc>compress2 icon from the IconExperience.com I-Collection. Copyright by INCORS GmbH (www.incors.com).</desc>
		<path id="curve28" d="M4313 4600l-1226 0c-45,175 -204,300 -387,300 -220,0 -400,-180 -400,-400 0,-221 179,-400 400,-400 183,0 342,124 387,300 130,0 260,0 390,0l523 -261 0 222 -77 39c130,0 260,0 390,0 45,-175 204,-300 387,-300 221,0 400,179 400,400 0,220 -180,400 -400,400 -183,0 -342,-124 -387,-300zm-313 -2300l0 61 -600 300 0 -222 277 -139 -1126 0 -30 -39c-114,-146 -171,-329 -171,-511 0,-219 69,-380 201,-550l2298 0c132,170 201,331 201,550 0,182 -57,365 -171,511l-30 39 -849 0zm0 1661l-600 300 0 -222 277 -139c-725,0 -1451,0 -2177,0 -331,0 -600,-269 -600,-600l0 -2400c0,-331 269,-600 600,-600l2800 0c165,0 315,67 424,176 109,109 176,259 176,424l0 200 -2800 0 0 2000c526,0 1052,0 1577,0l323 -161 0 161c300,0 600,0 900,0l0 200c0,331 -269,600 -600,600 -100,0 -200,0 -300,0l0 61zm300 -3461l-2800 0c-220,0 -400,180 -400,400l0 2400c0,220 180,400 400,400l2800 0c220,0 400,-180 400,-400l-2800 0 0 -2400 2800 0c0,-110 -45,-210 -117,-283 -73,-72 -173,-117 -283,-117zm-300 2261l-600 300 0 -222 600 -300 0 222zm-1300 1539c-110,0 -200,90 -200,200 0,111 89,200 200,200 111,0 200,-89 200,-200 0,-110 -90,-200 -200,-200zm2000 0c-111,0 -200,89 -200,200 0,110 90,200 200,200 111,0 200,-89 200,-200 0,-110 -90,-200 -200,-200zm49 -2900l-2098 0c-67,103 -101,226 -101,350 0,124 34,247 101,350l2098 0c67,-103 101,-226 101,-350 0,-124 -34,-247 -101,-350z"/>
</svg>