<?xml version="1.0" encoding="UTF-8"?>
<!DOCTYPE svg PUBLIC "-//W3C//DTD SVG 1.1//EN" "http://www.w3.org/Graphics/SVG/1.1/DTD/svg11.dtd">
<svg xmlns="http://www.w3.org/2000/svg" xml:space="preserve" width="580px" height="580px" shape-rendering="geometricPrecision" text-rendering="geometricPrecision" image-rendering="optimizeQuality" fill-rule="nonzero" clip-rule="nonzero" viewBox="0 0 5800 5800" xmlns:xlink="http://www.w3.org/1999/xlink">
	<title>compass icon</title>
	<desc>compass icon from the IconExperience.com I-Collection. Copyright by INCORS GmbH (www.incors.com).</desc>
		<path id="curve28"  d="M5123 2900c-175,-87 -349,-174 -523,-261 0,174 0,348 0,522 174,-87 348,-174 523,-261zm-2223 2223c87,-175 174,-349 261,-523 -174,0 -348,0 -522,0 87,174 174,348 261,523zm-2223 -2223c175,87 349,174 523,261 0,-174 0,-348 0,-522 -174,87 -348,174 -523,261zm2223 -2223c-87,175 -174,349 -261,523 174,0 348,0 522,0 -87,-174 -174,-348 -261,-523zm0 1923c-166,0 -300,134 -300,300 0,166 134,300 300,300 166,0 300,-134 300,-300 0,-166 -134,-300 -300,-300zm0 -2300c718,0 1368,291 1838,762 471,470 762,1120 762,1838 0,718 -291,1368 -762,1838 -470,471 -1120,762 -1838,762 -718,0 -1368,-291 -1838,-762 -471,-470 -762,-1120 -762,-1838 0,-718 291,-1368 762,-1838 470,-471 1120,-762 1838,-762zm-1414 1186l848 1980 1980 848 -848 -1980 -1980 -848z"/>
</svg>