<?xml version="1.0" encoding="UTF-8"?>
<!DOCTYPE svg PUBLIC "-//W3C//DTD SVG 1.1//EN" "http://www.w3.org/Graphics/SVG/1.1/DTD/svg11.dtd">
<svg xmlns="http://www.w3.org/2000/svg" xml:space="preserve" width="580px" height="580px" shape-rendering="geometricPrecision" text-rendering="geometricPrecision" image-rendering="optimizeQuality" fill-rule="nonzero" clip-rule="nonzero" viewBox="0 0 5800 5800" xmlns:xlink="http://www.w3.org/1999/xlink">
	<title>compact_camera icon</title>
	<desc>compact_camera icon from the IconExperience.com I-Collection. Copyright by INCORS GmbH (www.incors.com).</desc>
		<path id="curve28" d="M3900 2100c442,0 800,358 800,800 0,442 -358,800 -800,800 -442,0 -800,-358 -800,-800 0,-442 358,-800 800,-800zm-3200 -1200l4400 0c331,0 600,269 600,600l0 2800c0,331 -269,600 -600,600l-4400 0c-331,0 -600,-269 -600,-600l0 -2800c0,-331 269,-600 600,-600zm4400 200l-4400 0c-220,0 -400,180 -400,400l0 2800c0,220 180,400 400,400l4400 0c220,0 400,-180 400,-400l0 -2800c0,-220 -180,-400 -400,-400zm-3200 300l0 700 -1300 0 0 -700 1300 0zm-200 200l-900 0 0 300 900 0 0 -300zm2200 100c663,0 1200,537 1200,1200 0,663 -537,1200 -1200,1200 -663,0 -1200,-537 -1200,-1200 0,-663 537,-1200 1200,-1200zm0 200c-552,0 -1000,448 -1000,1000 0,552 448,1000 1000,1000 552,0 1000,-448 1000,-1000 0,-552 -448,-1000 -1000,-1000zm0 400c-331,0 -600,269 -600,600 0,331 269,600 600,600 331,0 600,-269 600,-600 0,-331 -269,-600 -600,-600z"/>
</svg>