<?xml version="1.0" encoding="UTF-8"?>
<!DOCTYPE svg PUBLIC "-//W3C//DTD SVG 1.1//EN" "http://www.w3.org/Graphics/SVG/1.1/DTD/svg11.dtd">
<svg xmlns="http://www.w3.org/2000/svg" xml:space="preserve" width="580px" height="580px" shape-rendering="geometricPrecision" text-rendering="geometricPrecision" image-rendering="optimizeQuality" fill-rule="nonzero" clip-rule="nonzero" viewBox="0 0 5800 5800" xmlns:xlink="http://www.w3.org/1999/xlink">
	<title>compasses icon</title>
	<desc>compasses icon from the IconExperience.com I-Collection. Copyright by INCORS GmbH (www.incors.com).</desc>
		<path id="curve28"  d="M2700 829l0 -529 400 0 0 529c289,86 500,354 500,671 0,387 -313,700 -700,700 -387,0 -700,-313 -700,-700 0,-317 211,-585 500,-671zm358 1557l339 814 -297 0 0 -200 -400 0 0 200 -292 0 339 -813c-136,-23 -261,-77 -369,-154l-403 967 -475 0 0 400 309 0 -593 1423 -13 81 197 496 199 -459 642 -1541 459 0 0 200 400 0 0 -200 464 0 642 1541 194 459 202 -496 -13 -81 -593 -1423 304 0 0 -400 -470 0 -404 -969c-108,77 -233,131 -368,155z"/>
</svg>