<?xml version="1.0" encoding="utf-8"?>
<!-- Generator: Adobe Illustrator 23.0.3, SVG Export Plug-In . SVG Version: 6.00 Build 0)  -->
<svg version="1.1" id="Ebene_1" xmlns="http://www.w3.org/2000/svg" xmlns:xlink="http://www.w3.org/1999/xlink" x="0px" y="0px"
	 viewBox="0 0 580 580" style="enable-background:new 0 0 580 580;" xml:space="preserve">
<g>
	<path d="M180.6,221h-160c-5.5,0-10,4.5-10,10l0,120c0,5.5,4.5,10,10,10h160c5.5,0,10-4.5,10-10l0-120
		C190.6,225.5,186.1,221,180.6,221z"/>
	<path d="M559.2,221h-160c-5.5,0-10,4.5-10,10v120c0,5.5,4.5,10,10,10h160c5.5,0,10-4.5,10-10V231C569.2,225.5,564.7,221,559.2,221z
		 M549.2,341h-140V241h140V341z"/>
	<polygon points="277.4,248.2 310.6,281 310.6,282.2 231.3,282.2 231.3,302.2 309.3,302.2 278,334 292.2,348 348.8,290.6 291.4,234 
			"/>
</g>
</svg>
