<?xml version="1.0" encoding="utf-8"?>
<!-- Generator: Adobe Illustrator 19.2.1, SVG Export Plug-In . SVG Version: 6.00 Build 0)  -->
<svg version="1.1" id="Ebene_1" xmlns="http://www.w3.org/2000/svg" xmlns:xlink="http://www.w3.org/1999/xlink" x="0px" y="0px"
	 width="580px" height="580px" viewBox="0 0 580 580" style="enable-background:new 0 0 580 580;" xml:space="preserve">
<g>
	<path d="M234.8,56.4l28.5,42.1c3.8,5.6,10,8.6,16.7,8.3c3.8-0.2,7.4-0.3,10.8-0.3c3.4,0,7.1,0.1,10.9,0.4c6.7,0.4,13-2.6,16.8-8.1
		l29.1-41.9c2-2.9,5.4-4.1,8.8-3.1c5.8,1.7,11.5,3.6,17.3,5.7c5.6,2.1,11.2,4.4,16.8,6.9c3.3,1.5,5.1,4.5,4.7,8.1l-5.2,50.6
		c-0.7,6.7,2.1,13,7.5,17.1c2.8,2.1,5.6,4.3,8.5,6.8c2.9,2.4,5.5,4.8,8,7.3c5,4.7,12,6.4,18,4.6v0.1l49.2-13.4
		c3.5-1,6.9,0.2,8.9,3.3c3.3,4.9,6.5,10,9.6,15.4c3,5.3,5.8,10.7,8.4,16.1c1.6,3.2,0.9,6.9-1.6,9.3l-9.5,9.3h27.6
		c5.2-8,5.8-18.2,1.5-27.2c-3-6.1-6-11.9-9.1-17.4c-3.1-5.4-6.5-10.9-10.3-16.6c-6.7-10.1-18.9-14.7-30.6-11.5l-48.6,13.2
		c-2.8-2.7-5.7-5.3-8.6-7.7c-2.8-2.4-5.8-4.8-9-7.2l5.1-50.1c1.3-12-5.2-23.3-16.3-28.3c-6.1-2.7-12.1-5.2-18.1-7.4
		c-5.9-2.2-12.1-4.2-18.7-6.2c-11.6-3.4-23.8,0.9-30.7,10.9l-28.8,41.4c-3.6-0.2-7.4-0.3-11.5-0.3c-3.9-0.1-7.8,0-11.4,0.2
		l-28.2-41.6c-6.9-10-19-14.5-30.7-11.2c-6.3,1.7-12.5,3.7-18.8,6c-6.3,2.3-12.4,4.7-18.2,7.3c-11.1,4.8-17.7,16-16.6,28.1l4.6,50.2
		c-2.9,2.1-5.9,4.5-8.9,7c-3.1,2.6-5.9,5.1-8.5,7.5l-48.5-13.7c-11.6-3.4-23.8,1.1-30.6,11.1c-3.7,5.4-7.2,10.9-10.6,16.6
		c-3.3,5.8-6.4,11.5-9.3,17.4c-5.4,10.9-3.3,23.6,5.3,32.2l35.8,35.5c-0.9,3.6-1.6,7.3-2.3,11c-0.7,4-1.3,7.8-1.7,11.2L46.4,282
		c-11.1,4.9-17.6,16.1-16.4,28.2c0.6,6.8,1.5,13.3,2.6,19.5c1,6.4,2.3,12.7,4,19.4c2.8,11.8,12.7,20.2,24.8,21.3l50.2,4.2
		c1.6,3.3,3.4,6.6,5.3,9.9c1.8,3.2,3.8,6.4,5.8,9.6l-21.9,45.3c-5.3,11-3.1,23.7,5.6,32.1c4.6,4.6,9.4,9,14.5,13.4
		c5.2,4.3,10.3,8.4,15.5,12.2c9.7,7.2,23,7.3,32.9,0.4l14.7-10.3v-24.5l-26.2,18.4c-3,2.1-6.6,2.1-9.5-0.1
		c-5.2-3.8-10-7.6-14.4-11.3c-4.4-3.8-8.8-7.9-13.5-12.4c-2.5-2.5-3.1-6-1.6-9.2l22.2-45.8c3-6.1,2.5-12.9-1.2-18.6
		c-1.9-2.9-3.7-6-5.5-9.1c-1.7-3-3.4-6.2-5-9.4c-3-6-8.8-10-15.4-10.5L63,350.4c-3.5-0.3-6.2-2.5-7.1-6c-1.4-6-2.6-11.9-3.7-17.9
		c-1-6.1-1.8-12.1-2.4-18.2c-0.3-3.6,1.4-6.7,4.7-8.1l46.4-20.8c6.2-2.8,10.3-8.4,11.1-15.1c0.5-3.8,1-7.4,1.6-10.5
		c0.6-3.5,1.3-6.9,2.2-10.4c1.6-6.6-0.3-13.2-5.1-18l-36.1-35.8c-2.6-2.6-3.1-6.1-1.6-9.3c2.9-5.7,5.7-11,8.7-16.1
		c3-5.1,6.2-10.2,9.8-15.5c2.1-2.9,5.4-4.1,8.8-3.1l48.9,13.9c6.5,1.8,13.3,0.1,18.2-4.5c2.8-2.5,5.4-4.9,8-7.1
		c2.6-2.1,5.4-4.3,8.5-6.5c5.4-4.1,8.2-10.3,7.6-17l-4.6-50.8c-0.4-3.6,1.4-6.6,4.7-8.1c6-2.6,11.6-4.8,17-6.8
		c5.4-1.9,11.2-3.8,17.4-5.5C229.4,52.2,232.8,53.4,234.8,56.4z"/>
	<path d="M224,241v320h320V241H224z M524,541H244V261h280V541z"/>
	<polygon points="374,491 394,491 394,411 474,411 474,391 394,391 394,311 374,311 374,391 294,391 294,411 374,411 	"/>
</g>
</svg>
