<?xml version="1.0" encoding="utf-8"?>
<!-- Generator: Adobe Illustrator 19.2.1, SVG Export Plug-In . SVG Version: 6.00 Build 0)  -->
<svg version="1.1" id="Ebene_1" xmlns="http://www.w3.org/2000/svg" xmlns:xlink="http://www.w3.org/1999/xlink" x="0px" y="0px"
	 width="580px" height="580px" viewBox="0 0 580 580" style="enable-background:new 0 0 580 580;" xml:space="preserve">
<g>
	<path d="M393.5,258.4c2.2,4.1,4.1,7.7,5.9,11.3c1.1,2.2,1.9,4.5,2.6,6.9c21.9-11.8,36.7-35,36.7-61.6c0-38.7-31.3-70-70-70
		c-24.9,0-46.7,13-59.1,32.5c5.9,5.5,10.1,12.6,12.1,20.4c7-19.2,25.4-32.9,47-32.9c27.6,0,50,22.4,50,50
		C418.7,233.6,408.6,249.8,393.5,258.4z"/>
	<path d="M542.6,211.8l-30.9-14.2c-0.2-2.3-0.5-4.5-0.9-6.7c-0.4-2.2-0.8-4.4-1.3-6.7l24.4-23.6c7.1-6.9,8.9-17.2,4.6-26.2
		c-2.1-4.4-4.3-8.5-6.5-12.4c-2.2-3.9-4.7-7.8-7.5-12c-5.4-8.1-15.3-11.9-24.8-9.3l-32.8,8.9c-1.7-1.5-3.4-3-5-4.4
		c-1.7-1.4-3.4-2.8-5.3-4.2l3.5-33.8c1-9.8-4.3-19-13.2-23.1c-4.4-1.9-8.7-3.7-13.1-5.3c-4.1-1.6-8.6-3-13.4-4.4
		c-9.4-2.8-19.3,0.7-25,8.8l-19.4,28c-2.1-0.1-4.3-0.1-6.7-0.1c-2.3-0.1-4.5,0-6.6,0.1L343.6,43c-2.7-4-6.6-7-11-8.6
		c-4.3-1.6-9.1-1.8-13.9-0.5c-4.4,1.3-8.9,2.7-13.4,4.3c-4.7,1.7-9,3.4-13.2,5.3c-9,3.9-14.3,13-13.4,22.8l3.1,33.9
		c-1.7,1.3-3.4,2.7-5.1,4.1c-1.8,1.5-3.5,2.9-5,4.3L239,99.3c-9.5-2.7-19.4,1-25,9.1c-2.6,3.8-5.1,7.8-7.5,11.9
		c-2.4,4.2-4.7,8.3-6.8,12.5c-4.3,8.9-2.6,19.2,4.4,26.2l17.4,17.3l0.4-0.6c3.9-5.5,8.8-9.8,14.4-12.9l-18.1-18
		c-0.9-0.9-1.1-2-0.6-3.2c2-4,4-7.7,6.1-11.2c2-3.5,4.3-7,6.8-10.8c0.8-1.1,1.8-1.4,3.1-1.1l34.6,9.9c5.6,1.6,11.4,0.1,15.7-3.8
		c1.9-1.9,3.7-3.5,5.5-5c1.7-1.4,3.7-2.9,5.8-4.5c4.7-3.4,7.1-8.8,6.6-14.6l-3.3-36c-0.1-1.3,0.5-2.2,1.7-2.8
		c4.2-1.8,8.1-3.4,11.8-4.7c3.7-1.4,7.7-2.6,12.1-3.9c1.2-0.3,2.3,0.1,3.1,1.1L347.4,84c3.2,4.8,8.5,7.5,14.3,7.2
		c2.7-0.2,5.2-0.2,7.6-0.2c2.2,0,4.8,0.1,7.5,0.3c5.7,0.3,11.2-2.3,14.4-7l20.6-29.7c0.8-1,1.8-1.4,3.1-1.1c3.9,1.2,7.9,2.5,12,4
		c4,1.5,7.8,3.1,11.8,4.8c1.2,0.6,1.7,1.5,1.6,2.8l-3.7,35.8c-0.6,5.8,1.8,11.3,6.5,14.8c1.8,1.4,3.8,3,5.9,4.7
		c1.9,1.7,3.8,3.4,5.6,5.1c4.2,4,9.9,5.5,15.6,4l34.7-9.5c1.3-0.3,2.3,0,3.1,1.1c2.2,3.4,4.4,7,6.6,10.8c2.2,3.7,4.1,7.4,5.9,11.2
		c0.6,1.1,0.4,2.3-0.5,3.2l-25.9,25.1c-4.1,4-5.8,9.7-4.5,15.3c0.6,2.5,1.1,5,1.5,7.5c0.4,2.5,0.8,5,1,7.5
		c0.6,5.8,4.2,10.7,9.4,13.1l32.7,15.1c1.2,0.6,1.7,1.5,1.6,2.8c0,3.1-1.2,9.4-1.8,12.6c-0.7,3.8-1.6,7.8-2.8,12.4
		c-0.3,1.2-1.1,1.9-2.4,2l-35.9,2.6c-5.8,0.4-10.8,3.8-13.4,8.9c-1.2,2.4-2.4,4.6-3.6,6.6c-1.3,2.2-2.6,4.3-4.1,6.5
		c-3.2,4.8-3.7,10.7-1.2,16l15.3,32.6c0.6,1.1,0.4,2.2-0.6,3.1c-3,2.9-6.2,5.7-9.5,8.4c-3.4,2.9-6.7,5.4-10,7.8
		c-1.1,0.8-2.2,0.8-3.2,0l-29.3-21.1c-4.7-3.4-10.6-4.1-15.9-1.8c-2.3,1-4.7,1.9-7.1,2.7c-2.6,1-5.2,1.8-7.2,2.4v-0.1
		c-3,0.8-5.2,2.4-7.2,4.4c6.4,3.4,11.7,8.2,15.5,14c2-0.6,3.9-1.3,5.6-1.8c2.1-0.8,4.2-1.8,6.3-2.6l27.6,19.7h-0.1
		c8,6,18.7,5.9,26.6,0.2c4.1-2.9,7.8-5.7,11.2-8.5c3.4-2.8,6.9-5.9,10.5-9.3c7.1-6.8,9.1-17.2,4.9-26.2l-14.5-30.7
		c1.2-1.8,2.4-3.7,3.6-5.7c1.1-2,2.2-3.9,3.2-5.8l33.9-2.5c9.9-0.7,18-7.5,20.4-17c1.1-4.3,2.1-8.9,3-13.8c0.2-1.1,2-13.9,2-13.9
		C556.7,225.2,551.5,215.9,542.6,211.8z"/>
	<path d="M385.4,355.8l-30.9-14.2c-0.2-2.3-0.5-4.5-0.9-6.7c-0.4-2.2-0.8-4.4-1.3-6.7l24.4-23.6c7.1-6.9,8.9-17.2,4.6-26.2
		c-2.1-4.4-4.3-8.5-6.5-12.4c-2.2-3.9-4.7-7.8-7.5-12c-5.4-8.1-15.3-11.9-24.8-9.3l-32.8,8.9c-1.7-1.5-3.4-3-5-4.4
		c-1.7-1.4-3.4-2.8-5.3-4.2l3.5-33.8c1-9.8-4.3-19-13.2-23.1c-4.4-1.9-8.7-3.7-13.1-5.3c-4.1-1.6-8.6-3-13.4-4.4
		c-9.4-2.8-19.3,0.7-25,8.8l-19.4,28c-2.1-0.1-4.3-0.1-6.7-0.1c-2.3-0.1-4.5,0-6.6,0.1L186.4,187c-2.7-4-6.6-7-11-8.6
		c-4.3-1.6-9.1-1.8-13.9-0.5c-4.4,1.3-8.9,2.7-13.4,4.3c-4.7,1.7-9,3.4-13.2,5.3c-9,3.9-14.3,13-13.4,22.8l3.1,33.9
		c-1.7,1.3-3.4,2.7-5.1,4.1c-1.8,1.5-3.5,2.9-5,4.3l-32.7-9.3c-9.5-2.7-19.4,1-25,9.1c-2.6,3.8-5.1,7.8-7.5,11.9
		c-2.4,4.2-4.7,8.3-6.8,12.5c-4.3,8.9-2.6,19.2,4.4,26.2l24.2,24c-0.5,2.1-0.9,4.2-1.3,6.4c-0.4,2.3-0.8,4.4-1,6.4l-31,13.9
		c-9,4-14.3,13.1-13.4,22.9c0.5,4.9,1.1,9.6,1.9,14c0.7,4.6,1.7,9.2,2.9,14c2.3,9.5,10.3,16.4,20.1,17.3l33.9,2.8
		c1,1.9,2,3.8,3.1,5.7c1.1,1.8,2.2,3.7,3.4,5.5l-14.9,30.7c-4.3,8.9-2.5,19.2,4.6,26.1c3.3,3.2,6.7,6.4,10.5,9.5
		c3.7,3.2,7.4,6.2,11.1,8.9c7.8,5.8,18.5,5.9,26.5,0.2l27.8-19.6c1.8,0.8,3.9,1.6,6.1,2.5c2,0.7,4.1,1.4,6.1,2.1l8.3,33
		c2.4,9.5,10.6,16.4,20.4,17.1c4.5,0.4,9.1,0.5,14.1,0.6c4.8,0,9.4-0.1,14-0.4c9.9-0.6,18.1-7.3,20.6-16.9l8.7-32.8
		c2.3-0.7,4.4-1.4,6.2-2c2.1-0.8,4.2-1.8,6.3-2.6l27.6,19.7h-0.1c8,6,18.7,5.9,26.6,0.2c4.1-2.9,7.8-5.7,11.2-8.5
		c3.4-2.8,6.9-5.9,10.5-9.3c7.1-6.8,9.1-17.2,4.9-26.2l-14.5-30.7c1.2-1.8,2.4-3.7,3.6-5.7c1.1-2,2.2-3.9,3.2-5.8l33.9-2.5
		c9.9-0.7,18-7.5,20.4-17c1.1-4.3,2.1-8.9,3-13.8c0.2-1.1,2-13.9,2-13.9C399.5,369.2,394.3,359.9,385.4,355.8z M378.6,376.7
		c0,3.1-1.2,9.4-1.8,12.6c-0.7,3.8-1.6,7.8-2.8,12.4c-0.3,1.2-1.1,1.9-2.4,2l-35.9,2.6c-5.8,0.4-10.8,3.8-13.4,8.9
		c-1.2,2.4-2.4,4.6-3.6,6.6c-1.3,2.2-2.6,4.3-4.1,6.5c-3.2,4.8-3.7,10.7-1.2,16l15.3,32.6c0.6,1.1,0.4,2.2-0.6,3.1
		c-3,2.9-6.2,5.7-9.5,8.4c-3.4,2.9-6.7,5.4-10,7.8c-1.1,0.8-2.2,0.8-3.2,0l-29.3-21.1c-4.7-3.4-10.6-4.1-15.9-1.8
		c-2.3,1-4.6,1.9-7,2.7c-2.6,1-5.1,1.8-7.1,2.4v-0.1c-6,1.6-9.8,6-11.3,11.6l-9.2,34.7c-0.3,1.3-1.2,2-2.4,2.1
		c-4.6,0.3-8.8,0.4-12.8,0.4c-3.9-0.1-8.1-0.3-12.7-0.6c-1.4-0.1-2.2-0.8-2.5-2l-8.8-35c-1.4-5.6-5.5-10-11.1-11.6
		c-2.3-0.8-4.6-1.5-7-2.4c-2-0.8-4.3-1.7-6.9-2.8c-5.2-2.4-11.3-1.8-16,1.6L116,495c-1.1,0.8-2.2,0.8-3.2,0c-3.7-2.8-7.1-5.4-10-7.9
		c-3.1-2.6-6.2-5.4-9.4-8.6c-1-0.9-1.2-2.1-0.6-3.2l15.7-32.5c2.6-5.2,2.2-11.1-1-16c-1.3-2-2.6-4.1-3.8-6.3
		c-1.2-2.1-2.4-4.3-3.5-6.5c-2.5-5.2-7.5-8.6-13.3-9.1l-35.9-3c-1.3-0.1-2.2-0.8-2.5-2c-1-4.2-1.8-8.3-2.5-12.5
		c-0.8-4.3-1.3-8.5-1.7-12.7c-0.1-1.2,0.4-2.3,1.6-2.8l32.9-14.7c5.3-2.4,8.8-7.2,9.5-13c0.4-2.8,0.7-5.2,1.1-7.3
		c0.4-2.3,0.9-4.7,1.5-7.2c1.4-5.7-0.2-11.4-4.3-15.5L61,288.8c-0.9-0.9-1.1-2-0.6-3.2c2-4,4-7.7,6.1-11.2c2-3.5,4.3-7,6.8-10.8
		c0.8-1.1,1.8-1.4,3.1-1.1l34.6,9.9c5.6,1.6,11.4,0.1,15.7-3.8c1.9-1.9,3.7-3.5,5.5-5c1.7-1.4,3.7-2.9,5.8-4.5
		c4.7-3.4,7.1-8.8,6.6-14.6l-3.3-36c-0.1-1.3,0.5-2.2,1.7-2.8c4.2-1.8,8.1-3.4,11.8-4.7c3.7-1.4,7.7-2.6,12.1-3.9
		c1.2-0.3,2.3,0.1,3.1,1.1l20.2,29.8c3.2,4.8,8.5,7.5,14.3,7.2c2.7-0.2,5.2-0.2,7.6-0.2c2.2,0,4.8,0.1,7.5,0.3
		c5.7,0.3,11.2-2.3,14.4-7l20.6-29.7c0.8-1,1.8-1.4,3.1-1.1c3.9,1.2,7.9,2.5,12,4c4,1.5,7.8,3.1,11.8,4.8c1.2,0.6,1.7,1.5,1.6,2.8
		l-3.7,35.8c-0.6,5.8,1.8,11.3,6.5,14.8c1.8,1.4,3.8,3,5.9,4.7c1.9,1.7,3.8,3.4,5.6,5.1c4.2,4,9.9,5.5,15.6,4l34.7-9.5
		c1.3-0.3,2.3,0,3.1,1.1c2.2,3.4,4.4,7,6.6,10.8c2.2,3.7,4.1,7.4,5.9,11.2c0.6,1.1,0.4,2.3-0.5,3.2l-25.9,25.1
		c-4.1,4-5.8,9.7-4.5,15.3c0.6,2.5,1.1,5,1.5,7.5c0.4,2.5,0.8,5,1,7.5c0.6,5.8,4.2,10.7,9.4,13.1l32.7,15.1
		C378.2,374.5,378.7,375.4,378.6,376.7z"/>
	<path d="M211.5,289.1c-38.7,0-70,31.3-70,70s31.3,70,70,70s70-31.3,70-70S250.2,289.1,211.5,289.1z M211.5,409.1
		c-27.6,0-50-22.4-50-50c0-27.6,22.4-50,50-50s50,22.4,50,50C261.5,386.7,239.1,409.1,211.5,409.1z"/>
</g>
</svg>
