<?xml version="1.0" encoding="UTF-8"?>
<!DOCTYPE svg PUBLIC "-//W3C//DTD SVG 1.1//EN" "http://www.w3.org/Graphics/SVG/1.1/DTD/svg11.dtd">
<svg xmlns="http://www.w3.org/2000/svg" xml:space="preserve" width="580px" height="580px" shape-rendering="geometricPrecision" text-rendering="geometricPrecision" image-rendering="optimizeQuality" fill-rule="nonzero" clip-rule="nonzero" viewBox="0 0 5800 5800" xmlns:xlink="http://www.w3.org/1999/xlink">
	<title>console icon</title>
	<desc>console icon from the IconExperience.com I-Collection. Copyright by INCORS GmbH (www.incors.com).</desc>
		<path id="curve29" d="M600 700l4600 0c165,0 300,135 300,300l0 4100 -5200 0 0 -4100c0,-165 135,-300 300,-300zm-100 600l4800 0 0 -300c0,-55 -45,-100 -100,-100l-4600 0c-55,0 -100,45 -100,100l0 300zm4800 200l-4800 0 0 3400 4800 0 0 -3400z"/>
	<path id="curve28" d="M1700 2100c0,-110 -90,-200 -200,-200l-100 0 0 400 100 0c220,0 400,180 400,400 0,220 -180,400 -400,400l-100 0 0 100 -200 0 0 -100 -100 0c-220,0 -400,-180 -400,-400l200 0c0,111 89,200 200,200l100 0 0 -400 -100 0c-220,0 -400,-180 -400,-400 0,-220 180,-400 400,-400l100 0 0 -100 200 0 0 100 100 0c220,0 400,180 400,400l-200 0zm400 800l1000 0 0 200 -1000 0 0 -200zm-900 -1000l-100 0c-110,0 -200,90 -200,200 0,113 88,200 200,200l100 0 0 -400zm200 1000l100 0c110,0 200,-90 200,-200 0,-110 -90,-200 -200,-200l-100 0 0 400z"/>
</svg>