<?xml version="1.0" encoding="UTF-8"?>
<!DOCTYPE svg PUBLIC "-//W3C//DTD SVG 1.1//EN" "http://www.w3.org/Graphics/SVG/1.1/DTD/svg11.dtd">
<svg xmlns="http://www.w3.org/2000/svg" xml:space="preserve" width="580px" height="580px" shape-rendering="geometricPrecision" text-rendering="geometricPrecision" image-rendering="optimizeQuality" fill-rule="nonzero" clip-rule="nonzero" viewBox="0 0 5800 5800" xmlns:xlink="http://www.w3.org/1999/xlink">
	<title>construction_barrier icon</title>
	<desc>construction_barrier icon from the IconExperience.com I-Collection. Copyright by INCORS GmbH (www.incors.com).</desc>
		<path id="curve28" d="M1100 2500l0 -396 -800 0 0 -1200 5200 0c0,400 0,800 0,1200l-800 0 0 396 800 0 0 1200 -800 0 0 1600 400 0 0 200 -1000 0 0 -200 400 0 0 -229 -1600 -565 -1600 565 0 225 400 0 0 200 -1000 0 0 -200 400 0 0 -1596 -800 0 0 -1200 800 0zm59 -596l-659 -659 0 659 659 0zm-518 -800l800 800 718 0 -800 -800 -718 0zm659 1000l0 396 3200 0 0 -396 -3200 0zm4000 -1000l-659 0 659 658 0 -658zm-941 0l-718 0 800 800 718 0 -800 -800zm-1000 0l-718 0 800 800 718 0 -800 -800zm-1000 0l-718 0 800 800 718 0 -800 -800zm-1059 3755l1300 -459 -1300 -459 0 918zm0 -1130l1600 565 1600 -565 0 -29 -3200 0 0 29zm3200 1130l0 -918 -1300 459 1300 459zm141 -2159l659 659 0 -659 -659 0zm518 800l-800 -800 -718 0 800 800 718 0zm-1800 -800l-718 0 800 800 718 0 -800 -800zm-1000 0l-718 0 800 800 718 0 -800 -800zm-1000 0l-718 0 800 800 718 0 -800 -800zm-859 141l0 659 659 0 -659 -659z"/>
</svg>