<?xml version="1.0" encoding="UTF-8"?>
<!DOCTYPE svg PUBLIC "-//W3C//DTD SVG 1.1//EN" "http://www.w3.org/Graphics/SVG/1.1/DTD/svg11.dtd">
<svg xmlns="http://www.w3.org/2000/svg" xml:space="preserve" width="580px" height="580px" shape-rendering="geometricPrecision" text-rendering="geometricPrecision" image-rendering="optimizeQuality" fill-rule="nonzero" clip-rule="nonzero" viewBox="0 0 5800 5800" xmlns:xlink="http://www.w3.org/1999/xlink">
	<title>console_network icon</title>
	<desc>console_network icon from the IconExperience.com I-Collection. Copyright by INCORS GmbH (www.incors.com).</desc>
		<path id="curve28" d="M3000 5200l100 0 0 100 1000 0 0 200 -1000 0 0 100 -400 0 0 -100 -1000 0 0 -200 1000 0 0 -100 100 0 0 -500 -2500 0 0 -4100c0,-165 135,-300 300,-300l4600 0c165,0 300,135 300,300l0 4100 -2500 0 0 500zm2200 -4700l-4600 0c-55,0 -100,45 -100,100l0 300 4800 0 0 -300c0,-55 -45,-100 -100,-100zm-4700 600l0 3400 4800 0 0 -3400 -4800 0zm200 600c0,-220 180,-400 400,-400l100 0 0 -100 200 0 0 100 100 0c220,0 400,180 400,400l-200 0c0,-110 -90,-200 -200,-200l-100 0 0 400 100 0c110,0 210,45 283,117 75,76 117,177 117,283 0,220 -180,400 -400,400l-100 0 0 100 -200 0 0 -100 -100 0c-220,0 -400,-180 -400,-400l200 0c0,110 90,200 200,200l100 0 0 -400 -100 0c-220,0 -400,-180 -400,-400zm200 0c0,110 90,200 200,200l100 0 0 -400 -100 0c-110,0 -200,90 -200,200zm500 800l100 0c110,0 200,-90 200,-200 0,-55 -23,-105 -59,-141 -36,-37 -86,-59 -141,-59l-100 0 0 400zm700 0l1000 0 0 200 -1000 0 0 -200z"/>
</svg>