<?xml version="1.0" encoding="UTF-8"?>
<!DOCTYPE svg PUBLIC "-//W3C//DTD SVG 1.1//EN" "http://www.w3.org/Graphics/SVG/1.1/DTD/svg11.dtd">
<svg xmlns="http://www.w3.org/2000/svg" xml:space="preserve" width="580px" height="580px" shape-rendering="geometricPrecision" text-rendering="geometricPrecision" image-rendering="optimizeQuality" fill-rule="nonzero" clip-rule="nonzero" viewBox="0 0 5800 5800" xmlns:xlink="http://www.w3.org/1999/xlink">
	<title>console_network icon</title>
	<desc>console_network icon from the IconExperience.com I-Collection. Copyright by INCORS GmbH (www.incors.com).</desc>
		<path id="curve29"  d="M3000,4600 3000,5200 3100,5200 3100,5300 4100,5300 4100,5500 3100,5500 3100,5600 3000,5600 2800,5600 2700,5600 2700,5500 1700,5500 1700,5300 2700,5300 2700,5200 2800,5200 2800,4600z"/>
	<path id="curve28"  d="M600 300l4600 0c165,0 300,135 300,300l0 300 -5200 0 0 -300c0,-165 135,-300 300,-300zm4900 800l0 3600 -5200 0 0 -3600 5200 0zm-3800 600l200 0c0,-220 -180,-400 -400,-400l-100 0 0 -100 -200 0 0 100 -100 0c-220,0 -400,180 -400,400 0,220 180,400 400,400l100 0 0 400 -100 0c-111,0 -200,-89 -200,-200l-200 0c0,220 180,400 400,400l100 0 0 100 200 0 0 -100 100 0c220,0 400,-180 400,-400 0,-220 -180,-400 -400,-400l-100 0 0 -400 100 0c110,0 200,90 200,200zm-500 -200l-100 0c-110,0 -200,90 -200,200 0,110 90,200 200,200l100 0 0 -400zm300 600c110,0 200,90 200,200 0,110 -90,200 -200,200l-100 0 0 -400 100 0zm600 400l0 200 1000 0 0 -200 -1000 0z"/>
</svg>