<?xml version="1.0" encoding="UTF-8"?>
<!DOCTYPE svg PUBLIC "-//W3C//DTD SVG 1.1//EN" "http://www.w3.org/Graphics/SVG/1.1/DTD/svg11.dtd">
<svg xmlns="http://www.w3.org/2000/svg" xml:space="preserve" width="580px" height="580px" shape-rendering="geometricPrecision" text-rendering="geometricPrecision" image-rendering="optimizeQuality" fill-rule="nonzero" clip-rule="nonzero" viewBox="0 0 5800 5800" xmlns:xlink="http://www.w3.org/1999/xlink">
	<title>construction_barrier icon</title>
	<desc>construction_barrier icon from the IconExperience.com I-Collection. Copyright by INCORS GmbH (www.incors.com).</desc>
		<path id="curve28"  d="M5500 904l0 1200 -800 0 0 396 800 0 0 1200 -800 0 0 1600 400 0 0 200 -1000 0 0 -200 400 0 0 -229 -1600 -565 -1600 565 0 225 400 0 0 200 -1000 0 0 -200 400 0 0 -1596 -800 0 0 -1200 800 0 0 -396 -800 0 0 -1200 5200 0zm-1000 1200l-3200 0 0 396 3200 0 0 -396zm-3200 1596l0 29 1600 565 1600 -565 0 -29 -3200 0zm1300 700l-1300 -459 0 918 1300 -459zm600 0l1300 459 0 -918 -1300 459zm100 -900l1000 0 -800 -800 -1000 0 800 800zm-1800 -800l-1000 0 800 800 1000 0 -800 -800zm3800 800l0 -800 -800 0 800 800zm-2000 -1596l1000 0 -800 -800 -1000 0 800 800zm-1800 -800l-1000 0 800 800 1000 0 -800 -800zm3800 800l0 -800 -800 0 800 800z"/>
</svg>