<?xml version="1.0" encoding="UTF-8"?>
<!DOCTYPE svg PUBLIC "-//W3C//DTD SVG 1.1//EN" "http://www.w3.org/Graphics/SVG/1.1/DTD/svg11.dtd">
<svg xmlns="http://www.w3.org/2000/svg" xml:space="preserve" width="580px" height="580px" shape-rendering="geometricPrecision" text-rendering="geometricPrecision" image-rendering="optimizeQuality" fill-rule="nonzero" clip-rule="nonzero" viewBox="0 0 5800 5800" xmlns:xlink="http://www.w3.org/1999/xlink">
	<title>contrast_low icon</title>
	<desc>contrast_low icon from the IconExperience.com I-Collection. Copyright by INCORS GmbH (www.incors.com).</desc>
		<path id="curve28"  d="M2900 300c1436,0 2600,1164 2600,2600 0,1436 -1164,2600 -2600,2600 -1436,0 -2600,-1164 -2600,-2600 0,-1436 1164,-2600 2600,-2600zm1100 4700c18,0 36,2 54,5 277,-152 523,-359 720,-606 -155,-13 -274,-143 -274,-299 0,-165 135,-300 300,-300 107,0 205,57 259,149 154,-317 241,-673 241,-1049 0,-376 -87,-732 -241,-1049 -54,92 -152,149 -259,149 -166,0 -300,-134 -300,-300 0,-156 119,-286 274,-299 -196,-246 -440,-451 -716,-603 -19,3 -38,6 -58,6 -108,0 -208,-59 -261,-153 -261,-98 -544,-151 -839,-151 -1326,0 -2400,1074 -2400,2400 0,1325 1074,2400 2400,2400 296,0 580,-54 842,-152 53,-91 152,-148 258,-148zm800 -2000c166,0 300,134 300,300 0,165 -135,300 -300,300 -166,0 -300,-134 -300,-300 0,-165 135,-300 300,-300zm0 -816c165,0 300,134 300,300 0,165 -134,300 -300,300 -165,0 -300,-135 -300,-300 0,-166 134,-300 300,-300zm-800 2036c166,0 300,134 300,300 0,165 -135,300 -300,300 -166,0 -300,-134 -300,-300 0,-165 135,-300 300,-300zm0 -816c166,0 300,134 300,300 0,165 -135,300 -300,300 -166,0 -300,-135 -300,-300 0,-165 135,-300 300,-300zm0 -800c165,0 300,134 300,300 0,165 -135,300 -300,300 -166,0 -300,-135 -300,-300 0,-166 134,-300 300,-300zm0 -817c165,0 300,135 300,300 0,166 -134,300 -300,300 -165,0 -300,-135 -300,-300 0,-165 134,-300 300,-300zm0 -783c165,0 300,134 300,300 0,165 -134,300 -300,300 -165,0 -300,-135 -300,-300 0,-166 134,-300 300,-300zm-800 3612c166,0 300,135 300,300 0,166 -135,300 -300,300 -166,0 -300,-134 -300,-300 0,-165 135,-300 300,-300zm0 -816c166,0 300,134 300,300 0,165 -135,300 -300,300 -166,0 -300,-134 -300,-300 0,-165 135,-300 300,-300zm0 -800c166,0 300,134 300,300 0,165 -135,300 -300,300 -166,0 -300,-134 -300,-300 0,-165 135,-300 300,-300zm0 -816c165,0 300,134 300,300 0,165 -134,300 -300,300 -165,0 -300,-135 -300,-300 0,-166 134,-300 300,-300zm0 -784c165,0 300,135 300,300 0,166 -134,300 -300,300 -165,0 -300,-135 -300,-300 0,-166 134,-300 300,-300zm0 -800c165,0 300,135 300,300 0,166 -134,300 -300,300 -165,0 -300,-135 -300,-300 0,-166 134,-300 300,-300z"/>
</svg>