<?xml version="1.0" encoding="UTF-8"?>
<!DOCTYPE svg PUBLIC "-//W3C//DTD SVG 1.1//EN" "http://www.w3.org/Graphics/SVG/1.1/DTD/svg11.dtd">
<svg xmlns="http://www.w3.org/2000/svg" xml:space="preserve" width="580px" height="580px" shape-rendering="geometricPrecision" text-rendering="geometricPrecision" image-rendering="optimizeQuality" fill-rule="nonzero" clip-rule="nonzero" viewBox="0 0 5800 5800" xmlns:xlink="http://www.w3.org/1999/xlink">
	<title>control_tower icon</title>
	<desc>control_tower icon from the IconExperience.com I-Collection. Copyright by INCORS GmbH (www.incors.com).</desc>
	<path id="curve0"  d="M2900 200c367,0 700,38 943,98 78,20 148,43 208,68 265,33 505,76 712,128 517,129 837,325 837,556 0,106 -68,205 -191,294l-574 1843c-62,157 -313,291 -680,381 -335,81 -776,132 -1260,132 -483,0 -925,-51 -1259,-132 -366,-90 -616,-225 -675,-383l-566 -1838c-126,-89 -195,-189 -195,-297 0,-231 320,-427 837,-556 207,-52 447,-95 712,-128 60,-25 130,-48 208,-68 243,-60 576,-98 943,-98zm1399 403c26,206 -308,312 -456,349 -243,60 -576,98 -943,98 -367,0 -700,-38 -943,-98 -148,-37 -482,-143 -456,-349 -150,25 -289,53 -415,84 -424,106 -686,235 -686,363 0,128 262,257 686,363 463,115 1104,187 1814,187 710,0 1352,-72 1814,-187 424,-106 686,-235 686,-363 0,-128 -262,-257 -686,-363 -126,-31 -265,-59 -415,-84zm859 876c-114,47 -246,90 -395,127 -145,37 -306,69 -480,96l-130 782c230,-48 628,-151 792,-321l213 -684zm-1082 252c-327,40 -691,65 -1076,69l0 799c342,-4 662,-32 944,-77l132 -791zm-1276 69c-385,-4 -749,-29 -1076,-69l132 791c282,45 602,73 944,77l0 -799zm-1283 -98c-174,-27 -335,-59 -480,-96 -147,-36 -279,-79 -392,-126l211 683c163,170 561,273 792,321l-131 -782zm1383 3798c-259,0 -494,-31 -664,-79 -208,-60 -336,-157 -336,-278l0 -1319c65,10 131,20 200,28l0 1291c0,21 73,52 191,86 155,44 370,71 609,71 239,0 455,-27 609,-71 118,-34 191,-65 191,-86l0 -1292c69,-9 135,-18 200,-29l0 1321c0,121 -129,218 -336,278 -172,49 -406,79 -664,79zm1951 -3034c-224,113 -487,181 -734,228l-117 704c162,-33 582,-135 648,-280l203 -652zm-1060 970l118 -707c-276,41 -584,66 -909,70l0 701c287,-5 556,-27 791,-64zm-991 64l0 -701c-325,-4 -633,-29 -909,-70l118 709c236,36 504,58 791,62zm-1000 -100l-117 -706c-247,-47 -511,-115 -734,-228l200 650c54,147 492,251 651,284zm1995 -2908c-227,-57 -544,-92 -895,-92 -351,0 -668,35 -895,92 -188,47 -305,95 -305,133 0,38 117,86 305,133 228,57 544,92 895,92 351,0 668,-35 895,-92 188,-47 305,-95 305,-133 0,-38 -117,-86 -305,-133z"/>
</svg>