<?xml version="1.0" encoding="UTF-8"?>
<!DOCTYPE svg PUBLIC "-//W3C//DTD SVG 1.1//EN" "http://www.w3.org/Graphics/SVG/1.1/DTD/svg11.dtd">
<svg xmlns="http://www.w3.org/2000/svg" xml:space="preserve" width="580px" height="580px" shape-rendering="geometricPrecision" text-rendering="geometricPrecision" image-rendering="optimizeQuality" fill-rule="nonzero" clip-rule="nonzero" viewBox="0 0 5800 5800" xmlns:xlink="http://www.w3.org/1999/xlink">
	<title>container_ship icon</title>
	<desc>container_ship icon from the IconExperience.com I-Collection. Copyright by INCORS GmbH (www.incors.com).</desc>
	<path id="curve0"  d="M2751 2630c100,-40 211,-40 312,0l2140 864 -1 67c-1,223 -127,360 -277,524 -113,122 -241,261 -327,468l-9 8c-57,102 -150,178 -263,210 75,-412 280,-635 452,-822 103,-112 192,-209 218,-324l-1996 -805 0 1962c-32,7 -66,11 -100,11 -35,0 -68,-4 -100,-11l0 -1956 -1993 804c25,113 113,209 215,320 172,186 377,409 452,820 -111,-33 -204,-108 -260,-209l-18 -22c-86,-200 -211,-335 -320,-454 -151,-163 -276,-299 -276,-519l0 -68 2151 -868zm-451 -2330c400,0 800,0 1200,0l0 200 -500 0 0 500 500 0 0 300 800 0 0 400 700 0 0 1497 -200 -81 0 -416 -800 0 0 93 -200 -80 0 -13 -31 0 -496 -200 527 0 0 -600 -795 0 0 508c-68,-11 -137,-11 -205,2l0 -510 -795 0 0 600 536 0 -496 200 -40 0 0 16 -205 83 0 -99 -800 0 0 422 -200 81 0 -1503 700 0 0 -400 800 0 0 -300 500 0 0 -500 -500 0 0 -200zm1700 1600l0 600 800 0 0 -600c-267,0 -533,0 -800,0zm-2200 0c-267,0 -533,0 -800,0l0 600 800 0 0 -600zm-100 -200c800,0 1600,0 2400,0l0 -200c-800,0 -1600,0 -2400,0l0 200zm-1397 3289c235,0 449,-126 563,-332l87 -157 87 157c114,205 328,332 562,332 234,0 446,-124 561,-328l87 -156 87 156c114,205 328,332 563,332 235,0 451,-128 564,-334l87 -159 88 158c113,205 327,331 562,331 234,0 448,-126 562,-332l87 -157 88 157c113,206 327,332 562,332l0 200c-252,0 -490,-113 -650,-307 -160,194 -397,307 -649,307 -252,0 -489,-113 -649,-306 -160,196 -399,310 -652,310 -253,0 -490,-113 -651,-308 -160,192 -396,304 -647,304 -251,0 -489,-113 -649,-307 -160,194 -398,307 -650,307l0 -200zm2065 -1400c36,101 41,258 -80,302 -122,44 -219,-80 -256,-180 -36,-101 -41,-258 80,-302 123,-45 220,82 256,180zm1064 0c36,-98 133,-225 256,-180 121,44 116,201 80,302 -37,100 -134,224 -256,180 -121,-44 -116,-201 -80,-302zm-132 -2389l-800 0 0 100 800 0 0 -100z"/>
</svg>