<?xml version="1.0" encoding="UTF-8"?>
<!DOCTYPE svg PUBLIC "-//W3C//DTD SVG 1.1//EN" "http://www.w3.org/Graphics/SVG/1.1/DTD/svg11.dtd">
<svg xmlns="http://www.w3.org/2000/svg" xml:space="preserve" width="580px" height="580px" shape-rendering="geometricPrecision" text-rendering="geometricPrecision" image-rendering="optimizeQuality" fill-rule="nonzero" clip-rule="nonzero" viewBox="0 0 5800 5800" xmlns:xlink="http://www.w3.org/1999/xlink">
	<title>control_panel icon</title>
	<desc>control_panel icon from the IconExperience.com I-Collection. Copyright by INCORS GmbH (www.incors.com).</desc>
		<path id="curve28"  d="M4100 1300c552,0 1000,448 1000,1000 0,552 -448,1000 -1000,1000 -552,0 -1000,-448 -1000,-1000 0,-552 448,-1000 1000,-1000zm-3500 -600l4600 0c165,0 300,135 300,300l0 3800c0,165 -135,300 -300,300l-4600 0c-165,0 -300,-135 -300,-300l0 -3800c0,-165 135,-300 300,-300zm4600 200l-4600 0c-55,0 -100,45 -100,100l0 3800c0,55 45,100 100,100l4600 0c55,0 100,-45 100,-100l0 -3800c0,-55 -45,-100 -100,-100zm-3500 400c552,0 1000,448 1000,1000 0,552 -448,1000 -1000,1000 -552,0 -1000,-448 -1000,-1000 0,-552 448,-1000 1000,-1000zm0 200c-120,0 -234,26 -336,74l329 526c113,-4 207,87 207,200 0,110 -90,200 -200,200 -110,0 -200,-90 -200,-200 0,-34 8,-66 23,-94l-328 -526c-187,152 -295,379 -295,620 0,442 358,800 800,800 442,0 800,-358 800,-800 0,-442 -358,-800 -800,-800zm2501 627l539 -308c-152,-201 -387,-319 -640,-319 -442,0 -800,358 -800,800 0,442 358,800 800,800 442,0 800,-358 800,-800 0,-109 -22,-213 -61,-307l-539 308c0,110 -90,199 -200,199 -110,0 -200,-90 -200,-200 0,-110 90,-200 200,-200 37,0 71,10 101,27zm-2701 1573c220,0 400,180 400,400 0,221 -179,400 -400,400 -220,0 -400,-180 -400,-400 0,-221 179,-400 400,-400zm0 200c-110,0 -200,90 -200,200 0,111 89,200 200,200 110,0 200,-90 200,-200 0,-111 -89,-200 -200,-200zm1400 -200c221,0 400,179 400,400 0,220 -180,400 -400,400 -220,0 -400,-180 -400,-400 0,-221 179,-400 400,-400zm0 200c-110,0 -200,90 -200,200 0,111 89,200 200,200 111,0 200,-89 200,-200 0,-110 -90,-200 -200,-200zm1400 -200c221,0 400,179 400,400 0,220 -180,400 -400,400 -221,0 -400,-179 -400,-400 0,-220 180,-400 400,-400zm0 200c-266,0 -262,400 0,400 111,0 200,-89 200,-200 0,-110 -90,-200 -200,-200z"/>
</svg>