<?xml version="1.0" encoding="UTF-8"?>
<!DOCTYPE svg PUBLIC "-//W3C//DTD SVG 1.1//EN" "http://www.w3.org/Graphics/SVG/1.1/DTD/svg11.dtd">
<svg xmlns="http://www.w3.org/2000/svg" xml:space="preserve" width="580px" height="580px" shape-rendering="geometricPrecision" text-rendering="geometricPrecision" image-rendering="optimizeQuality" fill-rule="nonzero" clip-rule="nonzero" viewBox="0 0 5800 5800" xmlns:xlink="http://www.w3.org/1999/xlink">
	<title>control_panel2 icon</title>
	<desc>control_panel2 icon from the IconExperience.com I-Collection. Copyright by INCORS GmbH (www.incors.com).</desc>
		<path id="curve28" d="M4300 700l0 1800 -2800 0 0 -1800 2800 0zm-3100 -400l3400 0c165,0 300,135 300,300l0 4600c0,165 -135,300 -300,300l-3400 0c-165,0 -300,-135 -300,-300l0 -4600c0,-165 135,-300 300,-300zm3400 200l-3400 0c-55,0 -100,45 -100,100l0 4600c0,55 45,100 100,100l3400 0c55,0 100,-45 100,-100l0 -4600c0,-55 -45,-100 -100,-100zm-1700 2400c552,0 1000,448 1000,1000 0,552 -448,1000 -1000,1000 -552,0 -1000,-448 -1000,-1000 0,-552 448,-1000 1000,-1000zm0 200c-120,0 -234,26 -336,74l221 353 -170 106 -220 -353c-187,152 -295,379 -295,620 0,442 358,800 800,800 442,0 800,-358 800,-800 0,-442 -358,-800 -800,-800zm1200 -2200l-2400 0 0 1400 2400 0 0 -1400z"/>
</svg>