<?xml version="1.0" encoding="UTF-8"?>
<!DOCTYPE svg PUBLIC "-//W3C//DTD SVG 1.1//EN" "http://www.w3.org/Graphics/SVG/1.1/DTD/svg11.dtd">
<svg xmlns="http://www.w3.org/2000/svg" xml:space="preserve" width="580px" height="580px" shape-rendering="geometricPrecision" text-rendering="geometricPrecision" image-rendering="optimizeQuality" fill-rule="nonzero" clip-rule="nonzero" viewBox="0 0 5800 5800" xmlns:xlink="http://www.w3.org/1999/xlink">
	<title>contrast_low icon</title>
	<desc>contrast_low icon from the IconExperience.com I-Collection. Copyright by INCORS GmbH (www.incors.com).</desc>
		<path id="curve28"  d="M2900 300c1436,0 2600,1164 2600,2600 0,1436 -1164,2600 -2600,2600 -1436,0 -2600,-1164 -2600,-2600 0,-1436 1164,-2600 2600,-2600zm573 475c17,38 27,81 27,125 0,166 -134,300 -300,300 -165,0 -300,-135 -300,-300 0,-76 28,-146 75,-199 -25,-1 -50,-1 -75,-1 -1215,0 -2200,985 -2200,2200 0,1215 985,2200 2200,2200 21,0 41,0 62,-1 -39,-51 -62,-114 -62,-183 0,-165 135,-300 300,-300 166,0 300,135 300,300 0,38 -7,74 -19,107 175,-48 341,-117 495,-204 -155,-12 -276,-142 -276,-299 0,-165 135,-300 300,-300 166,0 300,134 300,300 0,31 -5,60 -13,88 59,-48 115,-99 169,-152 46,-46 90,-94 131,-144 -54,-55 -87,-129 -87,-212 0,-165 135,-300 300,-300 35,0 69,6 100,17 46,-99 84,-202 114,-308 -57,58 -132,91 -214,91 -166,0 -300,-134 -300,-300 0,-165 135,-300 300,-300 125,0 236,77 281,194 12,-97 19,-194 19,-294 0,-104 -7,-206 -21,-306 -45,114 -156,190 -279,190 -165,0 -300,-135 -300,-300 0,-166 134,-300 300,-300 81,0 154,32 208,84 -30,-98 -66,-193 -108,-285 -31,11 -65,17 -100,17 -165,0 -300,-135 -300,-300 0,-83 33,-157 87,-212 -41,-50 -85,-98 -131,-144 -58,-57 -118,-111 -182,-162 17,37 26,78 26,122 0,165 -134,300 -300,300 -165,0 -300,-135 -300,-300 0,-166 134,-300 300,-300 6,0 11,0 17,0 -168,-99 -351,-177 -544,-229zm527 2629c166,0 300,134 300,300 0,165 -135,300 -300,300 -166,0 -300,-135 -300,-300 0,-165 135,-300 300,-300zm0 -800c165,0 300,134 300,300 0,165 -135,300 -300,300 -166,0 -300,-135 -300,-300 0,-166 134,-300 300,-300zm0 -817c165,0 300,135 300,300 0,166 -134,300 -300,300 -165,0 -300,-135 -300,-300 0,-165 134,-300 300,-300zm-800 2013c166,0 300,134 300,300 0,165 -135,300 -300,300 -166,0 -300,-134 -300,-300 0,-165 135,-300 300,-300zm0 -800c166,0 300,134 300,300 0,165 -135,300 -300,300 -166,0 -300,-134 -300,-300 0,-165 135,-300 300,-300zm0 -816c165,0 300,134 300,300 0,165 -134,300 -300,300 -165,0 -300,-135 -300,-300 0,-166 134,-300 300,-300zm0 -784c387,0 401,600 0,600 -165,0 -300,-135 -300,-300 0,-166 134,-300 300,-300z"/>
</svg>