<?xml version="1.0" encoding="UTF-8"?>
<!DOCTYPE svg PUBLIC "-//W3C//DTD SVG 1.1//EN" "http://www.w3.org/Graphics/SVG/1.1/DTD/svg11.dtd">
<svg xmlns="http://www.w3.org/2000/svg" xml:space="preserve" width="580px" height="580px" shape-rendering="geometricPrecision" text-rendering="geometricPrecision" image-rendering="optimizeQuality" fill-rule="nonzero" clip-rule="nonzero" viewBox="0 0 5800 5800" xmlns:xlink="http://www.w3.org/1999/xlink">
	<title>container_ship icon</title>
	<desc>container_ship icon from the IconExperience.com I-Collection. Copyright by INCORS GmbH (www.incors.com).</desc>
	<path id="curve0"  d="M2300 300c400,0 800,0 1200,0l0 200 -500 0 0 500 500 0 0 300 800 0 0 200 -2800 0 0 -200 800 0 0 -300 500 0 0 -500 -500 0 0 -200zm2700 1400l0 800 -900 0 0 -800c300,0 600,0 900,0zm-1100 0l0 800 -627 0c-88,-35 -175,-77 -268,-92l0 -708 895 0zm-1095 0l0 709c-92,16 -178,56 -264,91l-641 0 0 -800 905 0zm-1105 0l0 800 -900 0 0 -800c300,0 600,0 900,0zm1732 1889c-20,56 -27,112 -21,158 8,69 42,123 101,144 122,44 219,-80 256,-180 20,-56 27,-112 21,-158 -8,-69 -42,-123 -101,-144 -123,-45 -220,82 -256,180zm-1064 0c-36,-98 -133,-225 -256,-180 -59,21 -93,75 -101,144 -6,46 1,102 21,158 37,100 134,224 256,180 59,-21 93,-75 101,-144 6,-46 -1,-102 -21,-158zm-2065 1400c235,0 449,-126 563,-332l87 -157 87 157c114,205 328,332 562,332 234,0 446,-124 561,-328l87 -156 87 156c114,205 328,332 563,332 235,0 451,-128 564,-334l87 -159 88 158c113,205 327,331 562,331 234,0 448,-126 562,-332l87 -157 88 157c113,206 327,332 562,332l0 511 -5200 0 3 -511zm2448 -2359c16,-6 32,-12 49,-16l0 2168c-122,-28 -228,-108 -289,-218l-86 -155c-36,-65 -100,-103 -174,-103 -75,0 -139,37 -175,102l-87 155c-80,142 -224,226 -387,226 -168,0 -328,-101 -406,-250 -86,-200 -211,-335 -320,-454 -151,-163 -276,-299 -276,-519l0 -68 2151 -868zm249 -19c21,4 43,11 63,19l2140 864 -1 67c-1,223 -127,360 -277,524 -113,122 -241,261 -327,468 -67,144 -242,236 -397,236 -163,0 -309,-85 -388,-228l-87 -157c-37,-65 -101,-103 -176,-103 -75,1 -139,39 -175,104l-86 158c-60,110 -167,191 -289,219l0 -2171zm2000 89l0 497 -900 -363 0 -134 900 0zm-4200 503l0 -503 900 0 0 139 -900 364zm1100 -444l0 -59 145 0 -145 59zm1869 -59l131 0 0 53 -131 -53z"/>
</svg>