<?xml version="1.0" encoding="UTF-8"?>
<!DOCTYPE svg PUBLIC "-//W3C//DTD SVG 1.1//EN" "http://www.w3.org/Graphics/SVG/1.1/DTD/svg11.dtd">
<svg xmlns="http://www.w3.org/2000/svg" xml:space="preserve" width="580px" height="580px" shape-rendering="geometricPrecision" text-rendering="geometricPrecision" image-rendering="optimizeQuality" fill-rule="nonzero" clip-rule="nonzero" viewBox="0 0 5800 5800" xmlns:xlink="http://www.w3.org/1999/xlink">
	<title>control_tower icon</title>
	<desc>control_tower icon from the IconExperience.com I-Collection. Copyright by INCORS GmbH (www.incors.com).</desc>
	<path id="curve0"  d="M2900 200c367,0 700,38 943,98 283,71 457,185 457,327 0,142 -174,256 -457,327 -243,60 -576,98 -943,98 -367,0 -700,-38 -943,-98 -283,-71 -457,-185 -457,-327 0,-142 175,-256 457,-327 243,-60 576,-98 943,-98zm1542 225c114,21 221,44 321,69 517,129 837,325 837,556 0,231 -320,427 -837,556 -479,120 -1137,194 -1863,194 -726,0 -1384,-74 -1863,-194 -517,-129 -837,-325 -837,-556 0,-231 320,-427 837,-556 100,-25 207,-48 321,-69 -38,61 -58,127 -58,200 0,246 232,427 608,520 259,65 610,105 992,105 382,0 733,-40 992,-105 376,-93 608,-274 608,-520 0,-73 -20,-139 -58,-200zm881 1195l-488 1567c-62,157 -313,291 -680,381 -335,81 -776,132 -1260,132 -483,0 -925,-51 -1259,-132 -366,-90 -616,-225 -675,-383l-481 -1563c321,157 719,235 1072,287l96 575c-231,-48 -629,-151 -792,-321l93 303c223,113 487,181 734,228l117 706c66,14 136,26 209,38l-118 -709c276,41 584,66 909,70l0 701c67,1 133,1 200,0l0 -701c325,-4 633,-29 909,-70l-118 707c73,-11 143,-24 209,-38l117 -704c247,-47 510,-115 734,-228l94 -303c-163,170 -562,273 -792,321l95 -575c354,-52 753,-131 1075,-289zm-1282 316l-97 586c-282,45 -602,73 -944,77l0 -599c370,-4 722,-26 1041,-64zm-1241 64l0 599c-342,-4 -662,-32 -944,-77l-97 -586c319,38 671,60 1041,64zm100 3500c-259,0 -494,-31 -664,-79 -208,-60 -336,-157 -336,-278l0 -1319c293,47 633,75 995,75 367,0 710,-28 1005,-77l0 1321c0,121 -129,218 -336,278 -172,49 -406,79 -664,79z"/>
</svg>