<?xml version="1.0" encoding="UTF-8"?>
<!DOCTYPE svg PUBLIC "-//W3C//DTD SVG 1.1//EN" "http://www.w3.org/Graphics/SVG/1.1/DTD/svg11.dtd">
<svg xmlns="http://www.w3.org/2000/svg" xml:space="preserve" width="580px" height="580px" shape-rendering="geometricPrecision" text-rendering="geometricPrecision" image-rendering="optimizeQuality" fill-rule="nonzero" clip-rule="nonzero" viewBox="0 0 5800 5800" xmlns:xlink="http://www.w3.org/1999/xlink">
	<title>contract icon</title>
	<desc>contract icon from the IconExperience.com I-Collection. Copyright by INCORS GmbH (www.incors.com).</desc>
	<path id="curve0"  d="M3439 2712c-85,90 -118,216 -88,336l-149 149c-204,204 -398,466 -524,696 -101,183 -159,362 -159,514 -43,48 -70,106 -79,166l-152 -25c-19,-5 -41,-4 -60,4l-65 -325c-7,-39 -37,-72 -78,-80 -55,-11 -107,24 -118,78l-66 331 -35 -31c-30,-26 -73,-33 -111,-14l-88 44 -70 -279c-24,-96 -160,-102 -192,-7l-91 275 -117 -468c-10,-38 -42,-69 -83,-75 -54,-8 -105,30 -113,85l-100 700c-8,54 30,105 85,113 55,8 105,-30 113,-85l28 -195 76 305c14,54 68,86 121,73 37,-9 64,-38 73,-73l89 -268 17 68c14,54 68,86 121,73 38,-10 122,-58 161,-78l114 101c42,36 105,32 141,-9 16,-19 20,-34 25,-56 12,59 57,101 120,88 20,-4 37,-14 51,-27l64 -64 175 28c57,107 168,174 290,174 73,0 147,-25 207,-74 152,5 332,-52 518,-154 312,-169 561,-381 810,-629l0 1403 -4000 0 0 -5200 2600 0c0,467 0,933 0,1400l1400 0 0 165c-25,15 -48,33 -70,55l-791 792zm147 136c263,-262 525,-525 788,-787 42,-43 100,-55 158,-55l159 -1c6,-2 18,-5 22,-9 135,-112 214,-158 300,-208 96,-56 160,-100 280,-85 72,8 141,40 195,95l114 114c109,108 129,276 50,407 -12,19 -36,49 -41,69 -165,286 -380,500 -613,732l-560 -559 359 -358 -287 4 -674 675c35,61 24,140 -26,190 -61,62 -162,62 -224,0 -61,-62 -61,-162 0,-224zm1270 413l-785 782c-100,101 -216,199 -335,287l-670 -669c86,-114 180,-226 278,-323l113 -113c68,62 155,93 241,93 92,0 184,-35 254,-105 71,-71 109,-169 104,-271l241 -240 559 559zm-1287 1186c-59,38 -118,74 -174,104 -200,110 -382,161 -491,117l-48 48c-25,25 -58,38 -91,38 -72,0 -130,-58 -130,-129 0,-33 13,-66 38,-91l53 -53c-34,-114 19,-295 127,-492 29,-52 62,-107 97,-162l619 620zm-525 -4134c59,16 111,48 153,90 0,3 998,999 1000,1000 42,42 74,94 90,153 -36,-34 -85,-56 -137,-56l-1050 0 0 -1050c0,-51 -21,-100 -56,-137z"/>
</svg>