<?xml version="1.0" encoding="UTF-8"?>
<!DOCTYPE svg PUBLIC "-//W3C//DTD SVG 1.1//EN" "http://www.w3.org/Graphics/SVG/1.1/DTD/svg11.dtd">
<svg xmlns="http://www.w3.org/2000/svg" xml:space="preserve" width="580px" height="580px" shape-rendering="geometricPrecision" text-rendering="geometricPrecision" image-rendering="optimizeQuality" fill-rule="nonzero" clip-rule="nonzero" viewBox="0 0 5800 5800" xmlns:xlink="http://www.w3.org/1999/xlink">
	<title>cookies icon</title>
	<desc>cookies icon from the IconExperience.com I-Collection. Copyright by INCORS GmbH (www.incors.com).</desc>
		<path id="curve28"  d="M1723 3100c-172,-4 -316,84 -323,201 -7,118 131,221 307,229l5 0c42,324 186,632 376,895 -53,-31 -120,-51 -195,-55 -176,-8 -325,82 -332,200 -7,119 131,221 307,229 176,9 325,-81 332,-200 0,-11 0,-21 -2,-32 237,285 540,527 867,703 -252,83 -534,130 -831,130 -780,0 -1934,-421 -1934,-1350 0,-793 879,-1233 1565,-1326 -70,118 -117,244 -142,376zm-613 699c-176,-8 -324,82 -331,200 -7,119 130,221 307,230 176,8 324,-82 331,-201 7,-118 -130,-221 -307,-229zm4274 6c359,874 -145,1587 -1079,1595 -914,7 -1940,-657 -2289,-1505 -359,-874 145,-1587 1079,-1595 914,-7 1940,657 2289,1505zm-1485 518c-148,-97 -321,-96 -387,3 -67,99 -1,257 147,354 148,96 321,95 387,-4 67,-98 1,-257 -147,-353zm994 -10c-148,-97 -321,-95 -387,3 -67,99 -1,257 147,354 147,96 321,95 387,-4 66,-98 1,-257 -147,-353zm-170 -990c-148,-97 -321,-95 -387,3 -67,99 -1,257 147,354 147,96 321,95 387,-4 66,-98 0,-257 -147,-353zm-820 180c-148,-97 -321,-95 -388,3 -66,99 0,257 148,354 147,96 321,95 387,-4 66,-98 0,-257 -147,-353zm-463 -778c-147,-96 -321,-95 -387,4 -66,98 0,256 147,353 148,97 321,95 388,-3 66,-99 0,-257 -148,-354zm-513 647c-148,-97 -321,-96 -387,3 -67,98 -1,257 147,353 147,97 321,96 387,-3 66,-98 1,-257 -147,-353z"/>
</svg>