<?xml version="1.0" encoding="UTF-8"?>
<!DOCTYPE svg PUBLIC "-//W3C//DTD SVG 1.1//EN" "http://www.w3.org/Graphics/SVG/1.1/DTD/svg11.dtd">
<svg xmlns="http://www.w3.org/2000/svg" xml:space="preserve" width="580px" height="580px" shape-rendering="geometricPrecision" text-rendering="geometricPrecision" image-rendering="optimizeQuality" fill-rule="nonzero" clip-rule="nonzero" viewBox="0 0 5800 5800" xmlns:xlink="http://www.w3.org/1999/xlink">
	<title>cook icon</title>
	<desc>cook icon from the IconExperience.com I-Collection. Copyright by INCORS GmbH (www.incors.com).</desc>
		<path id="curve28"  d="M3350 4900c83,0 150,67 150,150 0,83 -67,150 -150,150 -83,0 -150,-67 -150,-150 0,-83 67,-150 150,-150zm-957 -4263c-21,51 -79,76 -130,56 -51,-21 -76,-79 -56,-130 23,-56 52,-108 86,-154 -68,-5 -138,-7 -207,-4 -149,5 -378,39 -461,182 -55,96 -48,245 64,468l211 422 0 285c178,141 776,163 1000,163 224,0 821,-22 1000,-163l0 -281 207 -518c72,-178 55,-312 -14,-407 -106,-147 -324,-203 -496,-213 -38,-2 -76,-2 -114,0 82,83 153,188 209,318 21,51 -2,109 -53,131 -51,21 -109,-2 -131,-53 -109,-254 -321,-445 -607,-439 -219,4 -426,130 -508,337zm1277 3147c106,65 185,89 280,118 62,18 123,38 184,61 114,41 257,93 351,185 101,98 178,220 231,352 56,140 84,290 84,432 0,208 -232,342 -552,425 -419,109 -1004,143 -1348,143 -344,0 -929,-34 -1348,-143 -320,-83 -552,-217 -552,-425 0,-142 28,-292 84,-432 53,-132 130,-254 231,-352 94,-92 237,-144 351,-185 7,-3 13,-5 19,-8 63,-23 116,-39 165,-53 94,-28 173,-52 274,-115 15,-10 21,-13 29,-31 9,-21 14,-48 18,-79 9,-72 6,-160 2,-238 -1,-25 -2,-48 -2,-69 -129,-147 -174,-341 -224,-525 -82,-53 -140,-132 -174,-221 -38,-100 -44,-213 -20,-315 -18,-73 -32,-148 -43,-223 -21,-144 -27,-291 -10,-429l0 -134 -189 -378c-146,-293 -146,-506 -58,-658 123,-212 398,-273 625,-282 130,-5 267,8 393,31 126,-86 274,-133 426,-135 122,-3 244,23 354,76 114,-28 236,-39 357,-33 236,13 503,96 647,296 107,148 138,347 38,597l-193 482 -1 312c6,145 -11,303 -52,478 25,102 18,215 -20,315 -33,89 -91,168 -174,221 -50,186 -93,375 -223,524 0,30 -2,61 -3,93 -3,72 -6,150 2,216 4,29 9,85 41,106zm-210 -525c107,-105 151,-275 192,-434 8,-34 17,-66 18,-72 8,-30 30,-53 56,-65 55,-28 93,-78 115,-135 26,-68 28,-147 8,-216 -5,-17 -5,-35 -1,-51l0 0c26,-106 42,-205 49,-297 -223,91 -612,136 -997,136 -387,0 -779,-46 -1001,-138 2,24 5,47 9,71 11,77 26,154 44,228 5,19 4,38 -2,55 -19,68 -16,145 10,212 22,59 61,109 117,137 27,13 45,37 53,63 1,6 8,31 17,65 42,164 88,337 193,441 20,19 30,45 30,71 0,37 1,68 3,101 3,75 6,158 -1,237 69,102 208,102 348,102 36,0 72,21 89,55l62 125 58 0 58 -116c14,-37 50,-64 93,-64 83,0 166,0 231,-19 47,-13 87,-37 117,-82 -6,-70 -3,-145 0,-215 2,-44 3,-87 2,-122 0,-28 11,-54 30,-73zm106 695c-32,-19 -56,-42 -75,-68 -38,26 -80,45 -125,58 -73,20 -148,25 -225,26l-62 125c-17,34 -53,55 -89,55l-180 0c-43,0 -79,-27 -93,-64l-58 -116c-128,-2 -252,-11 -352,-83 -21,29 -47,52 -77,70 -124,77 -215,104 -323,136 -46,14 -96,29 -153,50 -7,2 -13,5 -20,7 -96,35 -216,79 -280,141 -80,78 -142,176 -185,283 -46,115 -69,239 -69,358 0,94 169,171 402,232 399,104 964,136 1298,136 334,0 899,-32 1298,-136 233,-61 402,-138 402,-232 0,-119 -23,-243 -69,-358 -43,-107 -105,-205 -185,-283 -64,-62 -184,-106 -280,-141 -58,-21 -115,-39 -173,-57 -109,-32 -200,-60 -327,-139zm-213 352c81,0 147,66 147,147 0,81 -66,147 -147,147 -81,0 -147,-66 -147,-147 0,-81 66,-147 147,-147zm-903 594c83,0 150,67 150,150 0,82 -67,149 -150,149 -82,0 -149,-67 -149,-149 0,-83 67,-150 149,-150zm-2 -594c81,0 147,66 147,147 0,81 -66,147 -147,147 -81,0 -147,-66 -147,-147 0,-81 66,-147 147,-147z"/>
</svg>