<?xml version="1.0" encoding="UTF-8"?>
<!DOCTYPE svg PUBLIC "-//W3C//DTD SVG 1.1//EN" "http://www.w3.org/Graphics/SVG/1.1/DTD/svg11.dtd">
<svg xmlns="http://www.w3.org/2000/svg" xml:space="preserve" width="580px" height="580px" shape-rendering="geometricPrecision" text-rendering="geometricPrecision" image-rendering="optimizeQuality" fill-rule="nonzero" clip-rule="nonzero" viewBox="0 0 5800 5800" xmlns:xlink="http://www.w3.org/1999/xlink">
	<title>cookies icon</title>
	<desc>cookies icon from the IconExperience.com I-Collection. Copyright by INCORS GmbH (www.incors.com).</desc>
		<path id="curve29" d="M1764 2943c-296,55 -561,162 -771,306 -304,207 -493,491 -493,801 0,310 189,594 493,801 316,216 755,349 1241,349 210,0 411,-25 597,-71 68,49 159,100 234,141 -252,83 -534,130 -831,130 -527,0 -1005,-147 -1353,-384 -359,-244 -581,-586 -581,-966 0,-380 222,-722 581,-966 264,-181 604,-309 984,-360 -42,70 -75,143 -101,219zm-654 856c177,8 314,111 307,229 -7,119 -155,209 -331,201 -177,-9 -314,-111 -307,-230 7,-118 155,-208 331,-200zm602 -269l-5 0c-176,-8 -314,-111 -307,-229 7,-117 151,-205 323,-201 -27,139 -30,283 -11,430zm181 840c75,4 142,24 195,55 35,48 71,95 110,142 2,11 2,21 2,32 -7,119 -156,209 -332,200 -176,-8 -314,-110 -307,-229 7,-118 156,-208 332,-200z"/>
	<path id="curve28" d="M3899 4323c148,96 214,255 147,353 -66,99 -239,100 -387,4 -148,-97 -214,-255 -147,-354 66,-99 239,-100 387,-3zm994 -10c148,96 213,255 147,353 -66,99 -240,100 -387,4 -148,-97 -214,-255 -147,-354 66,-98 239,-100 387,-3zm-170 -990c147,96 213,255 147,353 -66,99 -240,100 -387,4 -148,-97 -214,-255 -147,-354 66,-98 239,-100 387,-3zm-820 180c147,96 213,255 147,353 -66,99 -240,100 -387,4 -148,-97 -214,-255 -148,-354 67,-98 240,-100 388,-3zm-463 -778c148,97 214,255 148,354 -67,98 -240,100 -388,3 -147,-97 -213,-255 -147,-353 66,-99 240,-100 387,-4zm-513 647c148,96 213,255 147,353 -66,99 -240,100 -387,3 -148,-96 -214,-255 -147,-353 66,-99 239,-100 387,-3zm2457 433c359,874 -145,1587 -1079,1595 -913,7 -1939,-657 -2289,-1505 -359,-874 145,-1587 1079,-1595 913,-7 1939,657 2289,1505zm-2287 -1305c-793,6 -1202,577 -896,1319 318,773 1271,1388 2102,1381 793,-6 1202,-577 896,-1319 -318,-773 -1271,-1388 -2102,-1381z"/>
</svg>