<?xml version="1.0" encoding="UTF-8"?>
<!DOCTYPE svg PUBLIC "-//W3C//DTD SVG 1.1//EN" "http://www.w3.org/Graphics/SVG/1.1/DTD/svg11.dtd">
<svg xmlns="http://www.w3.org/2000/svg" xml:space="preserve" width="580px" height="580px" shape-rendering="geometricPrecision" text-rendering="geometricPrecision" image-rendering="optimizeQuality" fill-rule="nonzero" clip-rule="nonzero" viewBox="0 0 5800 5800" xmlns:xlink="http://www.w3.org/1999/xlink">
	<title>cook icon</title>
	<desc>cook icon from the IconExperience.com I-Collection. Copyright by INCORS GmbH (www.incors.com).</desc>
		<path id="curve28"  d="M3350 4900c83,0 150,67 150,150 0,83 -67,150 -150,150 -83,0 -150,-67 -150,-150 0,-83 67,-150 150,-150zm-957 -4263c-21,51 -79,76 -130,56 -51,-21 -76,-79 -56,-130 23,-56 52,-108 86,-154 -68,-5 -138,-7 -207,-4 -149,5 -378,39 -461,182 -55,96 -48,245 64,468l211 422 0 285c178,141 776,163 1000,163 224,0 821,-22 1000,-163l0 -281 207 -518c72,-178 55,-312 -14,-407 -106,-147 -324,-203 -496,-213 -38,-2 -76,-2 -114,0 82,83 153,188 209,318 21,51 -2,109 -53,131 -51,21 -109,-2 -131,-53 -109,-254 -321,-445 -607,-439 -219,4 -426,130 -508,337zm78 -401c126,-86 274,-133 426,-135 122,-3 244,23 354,76 114,-28 236,-39 357,-33 236,13 503,96 647,296 107,148 138,347 38,597l-193 482 -1 312c6,145 -11,303 -52,478 47,196 -19,424 -194,536 -50,186 -93,375 -223,524 0,30 -2,61 -3,93 -3,72 -6,150 2,216 5,39 8,85 44,107 143,90 288,114 442,170 127,48 271,97 370,193 101,98 178,220 231,352 56,140 84,290 84,432 0,208 -232,342 -552,425 -419,109 -1004,143 -1348,143 -344,0 -929,-34 -1348,-143 -320,-83 -552,-217 -552,-425 0,-142 28,-292 84,-432 53,-132 130,-254 231,-352 98,-96 244,-146 370,-193 153,-55 297,-80 439,-168 39,-26 41,-65 47,-110 9,-72 6,-160 2,-238 -1,-25 -2,-48 -2,-69 -129,-147 -174,-341 -224,-525 -174,-112 -240,-340 -194,-536 -18,-73 -32,-148 -43,-223 -21,-144 -27,-291 -10,-429l0 -134 -189 -378c-146,-293 -146,-506 -58,-658 123,-212 398,-273 625,-282 130,-5 267,8 393,31zm429 5064c334,0 899,-32 1298,-136 233,-61 402,-138 402,-232 0,-119 -23,-243 -69,-358 -43,-107 -105,-205 -185,-283 -64,-62 -184,-106 -280,-141 -177,-65 -332,-92 -499,-195 -31,-20 -54,-38 -76,-69 -102,71 -228,82 -350,84l-62 125c-17,34 -53,55 -89,55l-180 0c-43,0 -79,-27 -93,-64l-58 -116c-128,-2 -252,-11 -352,-83 -21,29 -47,52 -77,70 -163,100 -305,123 -476,186 -94,35 -229,78 -300,148 -80,78 -142,176 -185,283 -46,115 -69,239 -69,358 0,94 169,171 402,232 399,104 964,136 1298,136zm-452 -994c81,0 147,66 147,147 0,81 -66,147 -147,147 -81,0 -147,-66 -147,-147 0,-81 66,-147 147,-147zm2 594c83,0 150,67 150,150 0,82 -67,149 -150,149 -82,0 -149,-67 -149,-149 0,-83 67,-150 149,-150zm903 -594c81,0 147,66 147,147 0,81 -66,147 -147,147 -81,0 -147,-66 -147,-147 0,-81 66,-147 147,-147z"/>
</svg>