<?xml version="1.0" encoding="UTF-8"?>
<!DOCTYPE svg PUBLIC "-//W3C//DTD SVG 1.1//EN" "http://www.w3.org/Graphics/SVG/1.1/DTD/svg11.dtd">
<svg xmlns="http://www.w3.org/2000/svg" xml:space="preserve" width="580px" height="580px" shape-rendering="geometricPrecision" text-rendering="geometricPrecision" image-rendering="optimizeQuality" fill-rule="nonzero" clip-rule="nonzero" viewBox="0 0 5800 5800" xmlns:xlink="http://www.w3.org/1999/xlink">
	<title>cooling_tower icon</title>
	<desc>cooling_tower icon from the IconExperience.com I-Collection. Copyright by INCORS GmbH (www.incors.com).</desc>
		<path id="curve28"  d="M4500 700l0 100c0,747 25,1543 136,2323 112,779 309,1544 653,2232l72 145 -4922 0 72 -145c344,-688 541,-1453 653,-2232 111,-780 136,-1576 136,-2323l0 -100c1067,0 2133,0 3200,0zm-200 200l-2800 0c-2,724 -30,1492 -139,2252 -106,743 -289,1476 -602,2148l4282 0c-313,-672 -496,-1405 -602,-2148 -109,-760 -137,-1528 -139,-2252z"/>
</svg>