<?xml version="1.0" encoding="UTF-8"?>
<!DOCTYPE svg PUBLIC "-//W3C//DTD SVG 1.1//EN" "http://www.w3.org/Graphics/SVG/1.1/DTD/svg11.dtd">
<svg xmlns="http://www.w3.org/2000/svg" xml:space="preserve" width="580px" height="580px" shape-rendering="geometricPrecision" text-rendering="geometricPrecision" image-rendering="optimizeQuality" fill-rule="nonzero" clip-rule="nonzero" viewBox="0 0 5800 5800" xmlns:xlink="http://www.w3.org/1999/xlink">
	<title>cooling_tower_smoke icon</title>
	<desc>cooling_tower_smoke icon from the IconExperience.com I-Collection. Copyright by INCORS GmbH (www.incors.com).</desc>
		<path id="curve28"  d="M1900 3100l0 -600c800,0 1600,0 2400,0l0 600c0,442 24,786 109,1126 116,462 332,862 561,1274 -1247,0 -2493,0 -3740,0 229,-412 445,-812 561,-1274 85,-340 109,-684 109,-1126zm2282 -800l-200 0c-1,-26 -2,-52 -5,-77 -4,-30 -9,-60 -16,-89l-12 -53 38 -39c23,-24 44,-50 63,-78 19,-28 35,-57 49,-88l16 -33 33 -16c106,-48 195,-127 257,-223 60,-95 95,-207 95,-326 0,-168 -68,-319 -177,-429 -174,-173 -438,-224 -663,-130l-59 25 -47 -42c-143,-131 -328,-202 -522,-202 -155,0 -304,45 -433,131l-58 39 -56 -41c-58,-41 -123,-74 -191,-96 -67,-22 -138,-33 -212,-33 -106,0 -208,24 -299,68 -93,44 -175,109 -241,191l-63 79 -78 -66c-38,-31 -82,-57 -129,-74 -45,-16 -94,-25 -146,-25 -118,0 -224,47 -301,124 -77,78 -125,184 -125,302 0,98 33,189 89,261 57,73 138,128 231,152l48 12 19 45c41,94 108,174 192,229 81,53 179,85 285,85 94,0 155,-21 240,-57 25,9 49,19 75,27 27,8 54,14 82,21l21 38c26,49 59,93 97,132 39,40 82,74 130,102l57 33c-4,33 -9,66 -11,99 0,6 -1,13 -1,22l-200 0c0,-5 1,-10 1,-16 -43,-30 -82,-63 -119,-101 -40,-41 -76,-87 -107,-138l-8 -2 -12 -4c-33,12 -67,22 -101,29 -48,9 -97,15 -144,15 -145,0 -281,-44 -394,-119 -104,-68 -189,-162 -246,-273 -117,-39 -218,-113 -293,-209 -82,-106 -131,-239 -131,-383 0,-173 70,-330 183,-443 114,-113 270,-183 443,-183 74,0 147,13 214,38 38,14 75,31 110,52 71,-72 155,-131 247,-175 118,-57 249,-88 385,-88 93,0 185,15 273,43 66,21 130,51 190,87 147,-85 317,-130 487,-130 221,0 437,76 610,214 30,-10 62,-19 94,-25 52,-11 106,-16 160,-16 221,0 423,90 568,236 146,146 236,347 236,569 0,158 -46,307 -127,433 -76,119 -182,216 -308,282 -15,29 -32,56 -50,83 -15,22 -31,43 -49,64 4,20 7,40 9,60 4,34 6,67 7,100z"/>
</svg>