<?xml version="1.0" encoding="UTF-8"?>
<!DOCTYPE svg PUBLIC "-//W3C//DTD SVG 1.1//EN" "http://www.w3.org/Graphics/SVG/1.1/DTD/svg11.dtd">
<svg xmlns="http://www.w3.org/2000/svg" xml:space="preserve" width="580px" height="580px" shape-rendering="geometricPrecision" text-rendering="geometricPrecision" image-rendering="optimizeQuality" fill-rule="nonzero" clip-rule="nonzero" viewBox="0 0 5800 5800" xmlns:xlink="http://www.w3.org/1999/xlink">
	<title>cork_screwer icon</title>
	<desc>cork_screwer icon from the IconExperience.com I-Collection. Copyright by INCORS GmbH (www.incors.com).</desc>
	<path id="curve0" d="M2698 3881c0,25 -9,51 -28,71 -153,160 -485,30 -647,-57 -112,-60 -264,-176 -330,-289 -33,-57 -42,-126 7,-172 40,-38 103,-37 141,3 20,21 29,47 28,74 50,80 168,165 249,208 97,52 251,118 365,109 73,25 142,43 205,52l10 1zm2110 -296c45,32 105,27 145,-13l366 -366c39,-39 45,-99 13,-145 -354,-504 -748,-972 -1183,-1407 -434,-435 -905,-830 -1408,-1183 -45,-32 -105,-27 -145,13l-366 366c-39,39 -45,99 -13,145 706,1005 1585,1884 2591,2590zm-1478 -971l-345 345c-63,63 -20,134 24,205 83,137 167,275 0,449 -60,62 -163,87 -292,69 -101,-14 -223,-55 -354,-126 -106,-57 -196,-130 -256,-194 -34,-35 -59,-68 -75,-95 -33,-58 -41,-126 8,-173 39,-38 103,-36 141,4 19,20 28,47 27,74 9,15 24,33 43,53 48,50 119,109 206,155 110,59 209,93 288,104 63,9 106,6 120,-10 61,-63 17,-134 -26,-206 -85,-139 -169,-277 4,-450l345 -345c-414,-423 -794,-879 -1134,-1363 -88,-126 -74,-293 35,-402l366 -366c108,-108 276,-123 401,-35 512,360 992,763 1434,1205 441,441 847,924 1205,1434 88,126 74,293 -35,402l-366 366c-108,108 -276,122 -401,34 -484,-339 -941,-720 -1363,-1134zm-971 1606c0,26 -9,51 -28,71 -154,160 -485,30 -647,-57 -112,-60 -264,-176 -330,-289 -32,-56 -43,-125 7,-172 40,-38 103,-37 141,3 20,21 29,48 28,74 50,80 168,165 249,209 97,52 251,117 365,108 70,25 141,43 215,53zm-339 339c0,26 -9,51 -28,71 -60,63 -164,88 -293,69 -100,-14 -222,-55 -354,-126 -106,-56 -195,-130 -256,-194 -33,-35 -58,-68 -74,-95 -31,-52 -36,-103 -14,-144 6,-11 12,-20 21,-28 40,-38 103,-37 141,3 20,21 29,48 27,74 51,80 168,165 250,209 110,59 208,93 287,104 31,4 58,6 78,4 70,25 141,43 215,53zm-340 339c1,26 -8,51 -27,71 -154,160 -485,31 -647,-56 -113,-61 -265,-176 -331,-290 -30,-52 -36,-103 -14,-144 33,-61 114,-76 163,-24 19,20 29,47 27,73 51,81 168,165 249,209 97,52 252,117 366,108 73,26 142,43 205,52l9 1zm-794 176l-632 474 450 -600c54,44 115,88 182,126z"/>
</svg>