<?xml version="1.0" encoding="UTF-8"?>
<!DOCTYPE svg PUBLIC "-//W3C//DTD SVG 1.1//EN" "http://www.w3.org/Graphics/SVG/1.1/DTD/svg11.dtd">
<svg xmlns="http://www.w3.org/2000/svg" xml:space="preserve" width="580px" height="580px" shape-rendering="geometricPrecision" text-rendering="geometricPrecision" image-rendering="optimizeQuality" fill-rule="nonzero" clip-rule="nonzero" viewBox="0 0 5800 5800" xmlns:xlink="http://www.w3.org/1999/xlink">
	<title>cork_screwer icon</title>
	<desc>cork_screwer icon from the IconExperience.com I-Collection. Copyright by INCORS GmbH (www.incors.com).</desc>
	<path id="curve0"  d="M2018 3122c5,-10 12,-19 22,-28 39,-38 103,-36 141,4 19,20 28,47 27,74 9,15 24,33 43,53 48,50 119,109 206,155 110,59 209,93 288,104 63,9 106,6 120,-10 61,-63 17,-134 -26,-206 -85,-139 -169,-277 4,-450l345 -345c-414,-423 -794,-879 -1134,-1363 -88,-126 -74,-293 35,-402l366 -366c108,-108 276,-123 401,-35 512,360 992,763 1434,1205 441,441 847,924 1205,1434 88,126 74,293 -35,402l-366 366c-108,108 -276,122 -401,34 -484,-339 -941,-720 -1363,-1134l-345 345c-63,63 -20,134 24,205 83,137 167,275 0,449 -60,62 -163,87 -292,69 -101,-14 -223,-55 -354,-126 -106,-57 -196,-130 -256,-194 -34,-35 -59,-68 -75,-95 -30,-53 -36,-103 -14,-145zm680 759c0,25 -9,51 -28,71 -60,62 -163,88 -293,69 -100,-14 -222,-55 -354,-126 -106,-57 -195,-130 -256,-194 -33,-35 -58,-68 -74,-95 -31,-53 -36,-103 -14,-145 6,-10 12,-19 21,-27 40,-38 103,-37 141,3 20,21 29,47 28,74 9,15 24,33 43,53 47,50 119,109 206,155 110,60 209,93 288,104 31,5 57,6 77,5 70,24 141,43 215,53zm-339 339c0,26 -9,51 -28,71 -60,62 -163,88 -293,69 -100,-14 -222,-55 -354,-126 -106,-57 -195,-130 -256,-194 -33,-35 -58,-68 -74,-95 -31,-53 -36,-103 -14,-144 5,-11 12,-20 21,-28 40,-38 103,-37 141,3 20,21 29,48 28,74 9,15 24,33 43,53 47,51 119,109 206,156 110,59 208,92 287,104 32,4 58,5 78,4 70,25 141,43 215,53zm-339 339c0,26 -9,51 -28,71 -60,63 -164,88 -293,69 -100,-14 -222,-55 -354,-126 -106,-56 -195,-130 -256,-194 -33,-35 -58,-68 -74,-95 -31,-52 -36,-103 -14,-144 6,-11 12,-20 21,-28 40,-38 103,-37 141,3 20,21 29,48 27,74 10,15 24,33 43,54 48,50 120,108 207,155 110,59 208,93 287,104 31,4 58,6 78,4 70,25 141,43 215,53zm-340 339c1,26 -8,51 -27,71 -60,63 -164,88 -293,70 -101,-15 -222,-56 -354,-126 -106,-57 -196,-130 -256,-195 -33,-35 -59,-67 -75,-95 -30,-52 -36,-103 -14,-144 6,-10 13,-20 22,-28 40,-38 103,-36 141,4 19,20 29,47 27,73 10,15 24,34 43,54 48,50 119,108 206,155 111,59 209,93 288,104 31,4 57,6 78,4 70,25 141,43 214,53zm-794 176l-632 474 450 -600c54,44 115,88 182,126z"/>
</svg>