<?xml version="1.0" encoding="UTF-8"?>
<!DOCTYPE svg PUBLIC "-//W3C//DTD SVG 1.1//EN" "http://www.w3.org/Graphics/SVG/1.1/DTD/svg11.dtd">
<svg xmlns="http://www.w3.org/2000/svg" xml:space="preserve" width="580px" height="580px" shape-rendering="geometricPrecision" text-rendering="geometricPrecision" image-rendering="optimizeQuality" fill-rule="nonzero" clip-rule="nonzero" viewBox="0 0 5800 5800" xmlns:xlink="http://www.w3.org/1999/xlink">
	<title>correction_fluid icon</title>
	<desc>correction_fluid icon from the IconExperience.com I-Collection. Copyright by INCORS GmbH (www.incors.com).</desc>
		<path id="curve29"  d="M1200 2500l500 0 0 -800 1200 0 0 800 500 0c165,0 300,135 300,300l0 2400c0,165 -135,300 -300,300l-2200 0c-165,0 -300,-135 -300,-300l0 -2400c0,-165 135,-300 300,-300zm300 600l0 1200 1600 0 0 -1200 -1600 0zm1400 200l0 800 -1200 0 0 -800 1200 0z"/>
	<path id="curve28"  d="M4200 300l800 0c165,0 300,135 300,300l0 1700 -600 0 0 1391c21,90 48,173 76,256 62,186 124,372 124,653 0,55 -45,100 -100,100l-400 0c-55,0 -100,-45 -100,-100 0,-281 62,-467 124,-653 28,-83 55,-166 76,-256l0 -1391 -600 0 0 -1700c0,-165 135,-300 300,-300z"/>
</svg>