<?xml version="1.0" encoding="UTF-8"?>
<!DOCTYPE svg PUBLIC "-//W3C//DTD SVG 1.1//EN" "http://www.w3.org/Graphics/SVG/1.1/DTD/svg11.dtd">
<svg xmlns="http://www.w3.org/2000/svg" xml:space="preserve" width="580px" height="580px" shape-rendering="geometricPrecision" text-rendering="geometricPrecision" image-rendering="optimizeQuality" fill-rule="nonzero" clip-rule="nonzero" viewBox="0 0 5800 5800" xmlns:xlink="http://www.w3.org/1999/xlink">
	<title>correction_fluid icon</title>
	<desc>correction_fluid icon from the IconExperience.com I-Collection. Copyright by INCORS GmbH (www.incors.com).</desc>
		<path id="curve28"  d="M1200 2500l500 0 0 -800c400,0 800,0 1200,0l0 800 500 0c165,0 300,135 300,300l0 2400c0,165 -135,300 -300,300l-2200 0c-165,0 -300,-135 -300,-300l0 -2400c0,-165 135,-300 300,-300zm3500 1190c21,91 48,174 76,257 62,186 124,372 124,653 0,55 -45,100 -100,100l-400 0c-55,0 -100,-45 -100,-100 0,-281 62,-467 124,-653 28,-83 55,-166 76,-256l0 -1391 -600 0 0 -1700c0,-165 135,-300 300,-300l800 0c165,0 300,135 300,300l0 1700 -600 0 0 1390zm-3 810c-12,-181 -53,-318 -97,-452 -44,134 -85,271 -97,452l194 0zm303 -4000l-800 0c-55,0 -100,45 -100,100l0 1500 1000 0 0 -1500c0,-55 -45,-100 -100,-100zm-1900 2600l0 1200 -1600 0 0 -1200 1600 0zm-200 200l-1200 0 0 800 1200 0 0 -800zm-1700 -600c-55,0 -100,45 -100,100l0 2400c0,55 45,100 100,100l2200 0c55,0 100,-45 100,-100l0 -2400c0,-55 -45,-100 -100,-100l-700 0 0 -800 -800 0 0 800 -700 0z"/>
</svg>