<?xml version="1.0" encoding="UTF-8"?>
<!DOCTYPE svg PUBLIC "-//W3C//DTD SVG 1.1//EN" "http://www.w3.org/Graphics/SVG/1.1/DTD/svg11.dtd">
<svg xmlns="http://www.w3.org/2000/svg" xml:space="preserve" width="580px" height="580px" shape-rendering="geometricPrecision" text-rendering="geometricPrecision" image-rendering="optimizeQuality" fill-rule="nonzero" clip-rule="nonzero" viewBox="0 0 5800 5800" xmlns:xlink="http://www.w3.org/1999/xlink">
	<title>courthouse icon</title>
	<desc>courthouse icon from the IconExperience.com I-Collection. Copyright by INCORS GmbH (www.incors.com).</desc>
	<path id="curve0"  d="M500 4700l0 -200 4800 0 0 200 200 0c0,200 0,400 0,600l-5200 0 0 -600 200 0zm2400 -4409l2636 1160c-58,116 -116,233 -175,349l-261 0 0 300 -4400 0 0 -300 -261 0 -175 -349 2636 -1160zm0 666l1234 543 -2468 0 1234 -543zm0 -218l-1800 792c0,56 0,112 0,169l3600 0c0,-57 0,-113 0,-169l-1800 -792zm2000 1561c0,70 0,240 -187,287 72,570 85,1190 87,1713l-1000 0c1,-221 4,-462 13,-716 11,-332 33,-675 75,-999 -137,-39 -188,-151 -188,-285l1200 0zm-2800 0c0,70 0,240 -187,287 72,570 85,1190 87,1713l-1000 0c1,-221 4,-462 13,-716 11,-332 33,-675 75,-999 -137,-39 -188,-151 -188,-285l1200 0zm416 755c-49,49 -76,114 -76,184 0,143 116,261 260,261l400 0c66,0 129,16 184,45 49,-49 76,-114 76,-184 0,-143 -116,-261 -260,-261l-400 0c-66,0 -129,-16 -184,-45zm917 623c43,63 68,139 68,221 0,221 -180,401 -401,401l-400 0c-221,0 -400,-179 -400,-400l0 -38 200 0 0 38c0,110 90,200 200,200l400 0c110,0 201,-90 201,-201 0,-111 -90,-199 -201,-199l-400 0c-253,0 -460,-209 -460,-461 0,-119 46,-232 127,-317 -43,-63 -68,-139 -68,-221 0,-221 180,-401 401,-401l400 0c221,0 400,179 400,400l0 38 -200 0 0 -38c0,-110 -90,-200 -200,-200l-400 0c-110,0 -201,90 -201,201 0,55 23,105 59,141 36,36 86,58 142,58l400 0c253,0 460,209 460,461 0,118 -46,231 -127,317z"/>
</svg>