<?xml version="1.0" encoding="UTF-8"?>
<!DOCTYPE svg PUBLIC "-//W3C//DTD SVG 1.1//EN" "http://www.w3.org/Graphics/SVG/1.1/DTD/svg11.dtd">
<svg xmlns="http://www.w3.org/2000/svg" xml:space="preserve" width="580px" height="580px" shape-rendering="geometricPrecision" text-rendering="geometricPrecision" image-rendering="optimizeQuality" fill-rule="nonzero" clip-rule="nonzero" viewBox="0 0 5800 5800" xmlns:xlink="http://www.w3.org/1999/xlink">
	<title>courthouse icon</title>
	<desc>courthouse icon from the IconExperience.com I-Collection. Copyright by INCORS GmbH (www.incors.com).</desc>
	<path id="curve0"  d="M2516 3055c-49,49 -76,114 -76,184 0,143 116,261 260,261l400 0c66,0 129,16 184,45 49,-49 76,-114 76,-184 0,-143 -116,-261 -260,-261l-400 0c-66,0 -129,-16 -184,-45zm-2016 1645l0 -200 500 0c0,-636 7,-1284 88,-1915 -137,-39 -188,-151 -188,-285l0 -200 -200 0 0 -300 -261 0c-59,-116 -117,-233 -175,-349l2636 -1160 2636 1160 -175 349 -261 0 0 300 -200 0 0 200c0,70 0,240 -187,287 82,644 87,1353 87,1913l500 0 0 200 200 0 0 600 -5200 0 0 -600 200 0zm1500 -200l1800 0c0,-636 7,-1284 88,-1915 -137,-39 -188,-151 -188,-285l0 -200 -1600 0 0 200c0,70 0,240 -187,287 82,644 87,1353 87,1913zm-1500 400l0 200 4800 0 0 -200 -200 0 0 -200c-1467,0 -2933,0 -4400,0l0 200 -200 0zm2400 -4391l-2364 1040 25 51 339 0 0 300c1333,0 2667,0 4000,0l0 -300 339 0 25 -51 -2364 -1040zm0 448l-1234 543 2468 0 -1234 -543zm0 -218l1800 792c0,56 0,112 0,169l-3600 0c0,-57 0,-113 0,-169l1800 -792zm-1000 1561l0 -200 -800 0 0 200c0,78 17,100 100,100l115 0 -16 114c-94,653 -99,1327 -99,1986l600 0c0,-585 -5,-1332 -99,-1986l-16 -114 115 0c100,0 100,-73 100,-100zm2800 0l0 -200 -800 0 0 200c0,78 17,100 100,100l115 0 -16 114c-93,653 -99,1327 -99,1986l600 0c0,-585 -5,-1332 -99,-1986l-16 -114 115 0c100,0 100,-73 100,-100zm-1267 1378c43,63 68,139 68,221 0,221 -180,401 -401,401l-400 0c-221,0 -400,-179 -400,-400l0 -38 200 0 0 38c0,110 90,200 200,200l400 0c110,0 201,-90 201,-201 0,-111 -90,-199 -201,-199l-400 0c-253,0 -460,-209 -460,-461 0,-119 46,-232 127,-317 -43,-63 -68,-139 -68,-221 0,-221 180,-401 401,-401l400 0c221,0 400,179 400,400l0 38 -200 0 0 -38c0,-110 -90,-200 -200,-200l-400 0c-110,0 -201,90 -201,201 0,55 23,105 59,141 36,36 86,58 142,58l400 0c253,0 460,209 460,461 0,118 -46,231 -127,317z"/>
</svg>