<?xml version="1.0" encoding="UTF-8"?>
<!DOCTYPE svg PUBLIC "-//W3C//DTD SVG 1.1//EN" "http://www.w3.org/Graphics/SVG/1.1/DTD/svg11.dtd">
<svg xmlns="http://www.w3.org/2000/svg" xml:space="preserve" width="580px" height="580px" shape-rendering="geometricPrecision" text-rendering="geometricPrecision" image-rendering="optimizeQuality" fill-rule="nonzero" clip-rule="nonzero" viewBox="0 0 5800 5800" xmlns:xlink="http://www.w3.org/1999/xlink">
	<title>cow icon</title>
	<desc>cow icon from the IconExperience.com I-Collection. Copyright by INCORS GmbH (www.incors.com).</desc>
	<path id="curve0" d="M1808 4988c6,-14 13,-114 13,-219 0,-70 -4,-134 -15,-161 -3,-9 -12,-23 -23,-39 -35,-55 -79,-122 -83,-245l-16 -141c61,-5 126,-16 197,-32l18 152c3,70 15,101 52,159 15,23 29,44 40,72 22,55 30,145 30,235 0,127 -17,269 -31,300 -12,27 -24,31 10,31l101 0 0 200 -101 0c-201,0 -276,-123 -192,-312zm2692 312l-101 0c-201,0 -279,-118 -192,-304 6,-12 12,-106 12,-204 0,-65 -3,-125 -14,-149 -3,-8 -12,-21 -21,-35 -38,-55 -83,-121 -85,-245l199 -3c1,63 28,103 51,136 15,22 29,43 41,70 21,52 29,139 29,226 0,122 -17,258 -31,288 -7,15 -5,20 11,20l101 0 0 200zm500 0l-200 0c-205,0 -275,-126 -192,-312 5,-12 13,-114 13,-219 0,-79 5,-133 -38,-200 -35,-55 -79,-122 -83,-245l-44 -378c-13,-110 -95,-308 -189,-374 -33,-24 -72,-33 -119,-17 -34,11 -73,35 -117,74 -65,57 -132,105 -201,144 -1,41 4,67 18,105 68,160 314,196 462,137l74 185c-251,100 -609,20 -720,-247 -13,-26 -22,-62 -27,-91 -83,30 -166,49 -246,61 -320,45 -611,-37 -729,-104l98 -173c94,53 332,117 603,79 177,-25 367,-96 536,-245 65,-58 128,-94 186,-114 116,-39 215,-16 297,42 142,100 253,348 273,515l44 380 0 10c2,70 29,113 52,149 66,101 70,186 70,307 0,128 -17,270 -31,301 -8,16 -12,30 10,30l200 0 0 200zm-3417 -3126c-32,338 -287,533 -611,569 -61,71 -193,166 -280,193 -157,48 -279,13 -372,-51 -87,-60 -145,-143 -184,-207 -84,-139 -19,-237 64,-364 15,-21 30,-44 41,-62 40,-66 67,-139 83,-210 21,-92 25,-182 21,-252 -3,-56 -7,-111 -1,-167 -58,-27 -105,-73 -143,-127 -57,-84 -91,-193 -100,-283 -5,-38 12,-76 47,-98 197,-121 305,-77 434,-24 29,12 61,25 96,35 6,-6 13,-11 20,-17 70,-53 139,-84 203,-98 151,-34 261,12 379,107 35,27 69,59 99,93 120,-89 204,-140 468,1l58 31 -6 66c-11,131 -101,282 -197,368 -104,93 -269,111 -396,58l78 -185c56,24 137,21 184,-21 47,-42 95,-114 117,-174 -108,-44 -145,-15 -200,26 -51,37 -102,70 -154,104 -57,-87 -91,-144 -176,-212 -69,-56 -120,-88 -211,-68 -95,22 -195,117 -261,187 -57,62 -93,114 -104,133 -45,82 -40,164 -35,253 5,86 1,195 -25,309 -21,90 -55,183 -109,270 -17,28 -31,48 -43,67 -45,68 -79,120 -60,151 28,46 69,107 125,145 50,34 115,52 202,25 45,-13 175,-105 197,-146l27 -48 55 -4c241,-14 447,-134 471,-392l199 19zm-1178 -747c14,-24 54,-81 112,-147 -73,-30 -127,-54 -207,-24 12,44 30,90 56,127 12,18 25,33 39,44zm1803 3561c6,-14 13,-114 13,-219 0,-70 -4,-134 -15,-161 -3,-9 -12,-23 -23,-39 -35,-55 -79,-122 -83,-245 -16,-144 -32,-288 -50,-432 -538,192 -748,50 -844,-200 -44,-116 -57,-253 -70,-387 -13,-142 -27,-282 -78,-360l167 -109c78,118 94,282 109,450 12,120 23,242 59,335 57,150 207,226 624,70 -16,-68 -33,-116 -55,-153 -39,-65 -104,-104 -207,-162l99 -174c131,75 214,125 279,233 60,101 93,240 122,488l44 390c2,70 29,113 52,149 15,23 29,44 40,72 22,55 30,145 30,235 0,127 -17,269 -31,300 0,13 -30,31 10,31l216 0 0 200 -216 0c-201,0 -276,-123 -192,-312zm-221 -3457c179,0 345,42 494,79 106,27 203,51 281,54 384,16 714,-26 1011,-64 278,-35 527,-67 770,-48 664,53 957,515 957,1148l0 1400 -200 0 0 -1400c0,-527 -214,-904 -773,-948 -225,-18 -464,12 -729,46 -305,38 -644,82 -1043,65 -102,-4 -207,-30 -322,-59 -138,-35 -290,-73 -446,-73l0 -200z"/>
</svg>