<?xml version="1.0" encoding="UTF-8"?>
<!DOCTYPE svg PUBLIC "-//W3C//DTD SVG 1.1//EN" "http://www.w3.org/Graphics/SVG/1.1/DTD/svg11.dtd">
<svg xmlns="http://www.w3.org/2000/svg" xml:space="preserve" width="580px" height="580px" shape-rendering="geometricPrecision" text-rendering="geometricPrecision" image-rendering="optimizeQuality" fill-rule="nonzero" clip-rule="nonzero" viewBox="0 0 5800 5800" xmlns:xlink="http://www.w3.org/1999/xlink">
	<title>cpu2 icon</title>
	<desc>cpu2 icon from the IconExperience.com I-Collection. Copyright by INCORS GmbH (www.incors.com).</desc>
		<path id="curve28"  d="M2100 300l0 400 -200 0 0 -400 200 0zm3000 400l0 1200 400 0 0 200 -400 0 0 -200 -400 0 0 200 400 0 0 400 400 0 0 200 -400 0 0 -200 -400 0 0 200 400 0 0 400 400 0 0 200 -400 0 0 -200 -400 0 0 200 400 0 0 400 400 0 0 200 -400 0 0 -200 -400 0 0 200 400 0 0 1200 -1200 0 0 -400 -200 0 0 400 -400 0 0 -400 -200 0 0 400 -400 0 0 -400 -200 0 0 400 -400 0 0 -400 -200 0 0 400 -1200 0 0 -1200 -400 0 0 -200 400 0 0 -400 -400 0 0 -200 400 0 0 -400 -400 0 0 -200 400 0 0 -400 -400 0 0 -200 400 0 0 -1200 1200 0 0 400 200 0 0 -400 400 0 0 400 200 0 0 -400 400 0 0 400 200 0 0 -400 400 0 0 400 200 0 0 -400 1200 0zm-4400 3200l400 0 0 -200 -400 0 0 200zm0 -600l400 0 0 -200 -400 0 0 200zm0 -600l400 0 0 -200 -400 0 0 200zm0 -600l400 0 0 -200 -400 0 0 200zm1400 3000l0 400 -200 0 0 -400 200 0zm1800 0l0 400 -200 0 0 -400 200 0zm-600 0l0 400 -200 0 0 -400 200 0zm-600 0l0 400 -200 0 0 -400 200 0zm1200 -4800l0 400 -200 0 0 -400 200 0zm-600 0l0 400 -200 0 0 -400 200 0zm-600 0l0 400 -200 0 0 -400 200 0zm1400 1400l-2400 0 0 2400 641 0 200 -200 718 0 200 200 641 0 0 -2400zm-200 200l-2000 0 0 2000 359 0 200 -200 882 0 200 200 359 0 0 -2000z"/>
</svg>