<?xml version="1.0" encoding="UTF-8"?>
<!DOCTYPE svg PUBLIC "-//W3C//DTD SVG 1.1//EN" "http://www.w3.org/Graphics/SVG/1.1/DTD/svg11.dtd">
<svg xmlns="http://www.w3.org/2000/svg" xml:space="preserve" width="580px" height="580px" shape-rendering="geometricPrecision" text-rendering="geometricPrecision" image-rendering="optimizeQuality" fill-rule="nonzero" clip-rule="nonzero" viewBox="0 0 5800 5800" xmlns:xlink="http://www.w3.org/1999/xlink">
	<title>cpu_flash icon</title>
	<desc>cpu_flash icon from the IconExperience.com I-Collection. Copyright by INCORS GmbH (www.incors.com).</desc>
	<path id="curve0" d="M3229 1038l-547 1327 884 -176 -616 1463 361 -308 130 152 -833 709 -68 -1092 199 -12 29 469 468 -1112 -880 177 688 -1673 185 76zm1071 -738l0 400 300 0c165,0 300,135 300,300l0 300 -200 0 0 -300c0,-55 -45,-100 -100,-100l-300 0 0 600 300 0c165,0 300,135 300,300l0 300 -200 0 0 -300c0,-55 -45,-100 -100,-100l-300 0 0 600 300 0c165,0 300,135 300,300l0 300 -200 0 0 -300c0,-55 -45,-100 -100,-100l-300 0 0 600 300 0c165,0 300,135 300,300l0 300 -200 0 0 -300c0,-55 -45,-100 -100,-100l-300 0 0 600 300 0c165,0 300,135 300,300l0 300 -200 0 0 -300c0,-55 -45,-100 -100,-100l-300 0 0 600 300 0c165,0 300,135 300,300l0 300 -200 0 0 -300c0,-55 -45,-100 -100,-100l-300 0 0 600c-933,0 -1867,0 -2800,0l0 -600 -300 0c-55,0 -100,45 -100,100l0 300 -200 0 0 -300c0,-165 135,-300 300,-300l300 0 0 -600 -300 0c-55,0 -100,45 -100,100l0 300 -200 0 0 -300c0,-165 135,-300 300,-300l300 0 0 -600 -300 0c-55,0 -100,45 -100,100l0 300 -200 0 0 -300c0,-165 135,-300 300,-300l300 0 0 -600 -300 0c-55,0 -100,45 -100,100l0 300 -200 0 0 -300c0,-165 135,-300 300,-300l300 0 0 -600 -300 0c-55,0 -100,45 -100,100l0 300 -200 0 0 -300c0,-165 135,-300 300,-300l300 0 0 -600 -300 0c-55,0 -100,45 -100,100l0 300 -200 0 0 -300c0,-165 135,-300 300,-300l300 0 0 -400 2800 0zm-200 200l-2400 0 0 4800 500 0 0 -200c0,-387 313,-700 700,-700 387,0 700,313 700,700l0 200 500 0 0 -4800zm-1200 4100c-276,0 -500,224 -500,500l0 200 1000 0 0 -200c0,-276 -224,-500 -500,-500z"/>
</svg>