<?xml version="1.0" encoding="UTF-8"?>
<!DOCTYPE svg PUBLIC "-//W3C//DTD SVG 1.1//EN" "http://www.w3.org/Graphics/SVG/1.1/DTD/svg11.dtd">
<svg xmlns="http://www.w3.org/2000/svg" xml:space="preserve" width="580px" height="580px" shape-rendering="geometricPrecision" text-rendering="geometricPrecision" image-rendering="optimizeQuality" fill-rule="nonzero" clip-rule="nonzero" viewBox="0 0 5800 5800" xmlns:xlink="http://www.w3.org/1999/xlink">
	<title>crack icon</title>
	<desc>crack icon from the IconExperience.com I-Collection. Copyright by INCORS GmbH (www.incors.com).</desc>
		<path id="curve28" d="M2688 700l-547 1641 879 703 -357 891 195 260 -65 -261 511 -851 -701 -876 942 -1507 1555 0 0 4400c-1467,0 -2933,0 -4400,0l0 -4400 1988 0zm-276 200l-1512 0 0 4000 2238 0 -701 -935 343 -859 -871 -697 503 -1509zm828 4000l1660 0 0 -4000 -1245 0 -808 1293 699 874 -539 899 233 934z"/>
</svg>