<?xml version="1.0" encoding="UTF-8"?>
<!DOCTYPE svg PUBLIC "-//W3C//DTD SVG 1.1//EN" "http://www.w3.org/Graphics/SVG/1.1/DTD/svg11.dtd">
<svg xmlns="http://www.w3.org/2000/svg" xml:space="preserve" width="580px" height="580px" shape-rendering="geometricPrecision" text-rendering="geometricPrecision" image-rendering="optimizeQuality" fill-rule="nonzero" clip-rule="nonzero" viewBox="0 0 5800 5800" xmlns:xlink="http://www.w3.org/1999/xlink">
	<title>credit_cards icon</title>
	<desc>credit_cards icon from the IconExperience.com I-Collection. Copyright by INCORS GmbH (www.incors.com).</desc>
		<path id="curve28"  d="M5100 2300c220,0 400,180 400,400l0 2400c0,220 -180,400 -400,400l-3800 0c-220,0 -400,-180 -400,-400l0 -1400 2000 0 0 400 2000 0 0 -554c126,-113 200,-276 200,-446l0 -800zm-2200 2100l0 700 2000 0 0 -700 -2000 0zm1800 200l0 300 -1600 0 0 -300 1600 0zm-1900 -2900c-387,0 -700,313 -700,700 0,387 313,700 700,700 123,0 239,-32 340,-88 -149,-161 -240,-376 -240,-612 0,-236 91,-451 240,-612 -101,-56 -217,-88 -340,-88zm1000 0c-387,0 -700,313 -700,700 0,387 313,700 700,700 387,0 700,-313 700,-700 0,-387 -313,-700 -700,-700zm500 700c0,276 -224,500 -500,500 -276,0 -500,-224 -500,-500 0,-276 224,-500 500,-500 276,0 500,224 500,500zm-3600 -2100l3800 0c220,0 400,180 400,400l0 2400c0,220 -180,400 -400,400l-3800 0c-220,0 -400,-180 -400,-400l0 -2400c0,-220 180,-400 400,-400z"/>
</svg>