<?xml version="1.0" encoding="UTF-8"?>
<!DOCTYPE svg PUBLIC "-//W3C//DTD SVG 1.1//EN" "http://www.w3.org/Graphics/SVG/1.1/DTD/svg11.dtd">
<svg xmlns="http://www.w3.org/2000/svg" xml:space="preserve" width="580px" height="580px" shape-rendering="geometricPrecision" text-rendering="geometricPrecision" image-rendering="optimizeQuality" fill-rule="nonzero" clip-rule="nonzero" viewBox="0 0 5800 5800" xmlns:xlink="http://www.w3.org/1999/xlink">
	<title>credit_cards icon</title>
	<desc>credit_cards icon from the IconExperience.com I-Collection. Copyright by INCORS GmbH (www.incors.com).</desc>
		<path id="curve29"  d="M4900 3546l0 554 -2000 0 0 -400 1600 0c153,0 293,-58 400,-154zm200 -1246c220,0 400,180 400,400l0 2400c0,220 -180,400 -400,400l-3800 0c-220,0 -400,-180 -400,-400l0 -1400 200 0 0 1400c0,110 90,200 200,200l3800 0c110,0 200,-90 200,-200l0 -2400c0,-110 -90,-200 -200,-200m-200 1900l0 700 -2000 0 0 -700 2000 0zm-200 200l-1600 0 0 300 1600 0 0 -300z"/>
	<path id="curve28"  d="M3800 1700c387,0 700,313 700,700 0,387 -313,700 -700,700 -387,0 -700,-313 -700,-700 0,-387 313,-700 700,-700zm-1000 0c123,0 239,32 340,88 -149,161 -240,376 -240,612 0,236 91,451 240,612 -101,56 -217,88 -340,88 -387,0 -700,-313 -700,-700 0,-387 313,-700 700,-700zm-2100 -1400l3800 0c220,0 400,180 400,400l0 2400c0,220 -180,400 -400,400l-3800 0c-220,0 -400,-180 -400,-400l0 -2400c0,-220 180,-400 400,-400zm3800 200l-3800 0c-111,0 -200,89 -200,200l0 2400c0,110 90,200 200,200 1267,0 2533,0 3800,0 54,0 104,-21 142,-59 36,-36 58,-86 58,-141l0 -2400c0,-110 -90,-200 -200,-200zm-700 1400c-276,0 -500,224 -500,500 0,276 224,500 500,500 276,0 500,-224 500,-500 0,-276 -224,-500 -500,-500z"/>
</svg>