<?xml version="1.0" encoding="UTF-8"?>
<!DOCTYPE svg PUBLIC "-//W3C//DTD SVG 1.1//EN" "http://www.w3.org/Graphics/SVG/1.1/DTD/svg11.dtd">
<svg xmlns="http://www.w3.org/2000/svg" xml:space="preserve" width="580px" height="580px" shape-rendering="geometricPrecision" text-rendering="geometricPrecision" image-rendering="optimizeQuality" fill-rule="nonzero" clip-rule="nonzero" viewBox="0 0 5800 5800" xmlns:xlink="http://www.w3.org/1999/xlink">
	<title>credit_card icon</title>
	<desc>credit_card icon from the IconExperience.com I-Collection. Copyright by INCORS GmbH (www.incors.com).</desc>
		<path id="curve28" d="M700 1100l4400 0c220,0 400,180 400,400l0 2800c0,220 -180,400 -400,400l-4400 0c-220,0 -400,-180 -400,-400l0 -2800c0,-220 180,-400 400,-400zm4400 200l-4400 0c-111,0 -200,89 -200,200l0 2800c0,111 89,200 200,200l4400 0c111,0 200,-89 200,-200l0 -2800c0,-111 -89,-200 -200,-200zm-700 1600c387,0 700,313 700,700 0,387 -313,700 -700,700 -387,0 -700,-313 -700,-700 0,-387 313,-700 700,-700zm0 200c-276,0 -500,224 -500,500 0,276 224,500 500,500 276,0 500,-224 500,-500 0,-276 -224,-500 -500,-500zm-1000 -200c123,0 239,32 340,88 -149,161 -240,376 -240,612 0,236 91,451 240,612 -101,56 -217,88 -340,88 -387,0 -700,-313 -700,-700 0,-387 313,-700 700,-700z"/>
</svg>