<?xml version="1.0" encoding="UTF-8"?>
<!DOCTYPE svg PUBLIC "-//W3C//DTD SVG 1.1//EN" "http://www.w3.org/Graphics/SVG/1.1/DTD/svg11.dtd">
<svg xmlns="http://www.w3.org/2000/svg" xml:space="preserve" width="580px" height="580px" shape-rendering="geometricPrecision" text-rendering="geometricPrecision" image-rendering="optimizeQuality" fill-rule="nonzero" clip-rule="nonzero" viewBox="0 0 5800 5800" xmlns:xlink="http://www.w3.org/1999/xlink">
	<title>criminal icon</title>
	<desc>criminal icon from the IconExperience.com I-Collection. Copyright by INCORS GmbH (www.incors.com).</desc>
		<path id="curve28"  d="M4795 4726c-10,-157 -39,-291 -91,-404 -312,297 -1302,378 -1804,378 -502,0 -1492,-81 -1804,-378 -52,113 -81,247 -91,404 332,294 1369,374 1895,374 526,0 1563,-80 1895,-374zm-2495 -1626c0,100 -7,210 -39,311 -16,52 -38,101 -69,145 167,112 520,144 708,144 188,0 539,-32 707,-144 -32,-44 -54,-93 -69,-146 -30,-99 -35,-206 -38,-308 0,-28 11,-54 30,-73 106,-105 158,-330 201,-517 12,-55 24,-107 36,-150 8,-31 30,-55 58,-66 61,-33 100,-102 117,-182 19,-89 9,-188 -31,-269 -7,-14 -10,-27 -11,-40 -65,43 -122,96 -173,160 -90,112 -235,169 -376,169 -64,0 -127,-11 -186,-34 -88,-33 -177,-100 -265,-100 -89,0 -179,67 -268,100 -59,23 -122,34 -186,34 -141,0 -287,-57 -376,-169 -50,-63 -107,-116 -170,-158 -1,15 -6,30 -13,43 -38,79 -47,176 -29,264 17,82 58,152 122,184 28,14 46,37 53,64 13,45 24,95 36,148 45,189 98,417 201,519 20,19 30,45 30,71zm1523 632c-187,131 -672,168 -923,168 -251,0 -736,-37 -923,-168 -55,33 -96,57 -139,78 -62,31 -124,56 -231,95 -102,37 -187,80 -260,129 390,206 1143,266 1553,266 410,0 1163,-60 1553,-266 -73,-49 -158,-92 -260,-129 -107,-39 -169,-64 -231,-95 -43,-21 -84,-45 -139,-78zm-470 -2132c-167,0 -355,0 -355,160 0,140 200,240 400,240 200,0 209,-158 200,-240 -9,-82 -79,-160 -245,-160zm-908 0c-166,0 -236,78 -245,160 -9,82 0,240 200,240 200,0 400,-100 400,-240 0,-160 -189,-160 -355,-160zm1477 -100c-8,-191 -58,-399 -168,-575 -192,-307 -507,-425 -854,-425 -347,0 -662,118 -854,425 -110,176 -160,384 -168,575l2044 0zm-73 2013c94,59 148,91 202,119 55,27 112,49 211,85 279,103 463,246 580,441 114,192 158,429 158,722 0,225 -254,370 -605,461 -465,121 -1113,159 -1495,159 -382,0 -1030,-38 -1495,-159 -351,-91 -605,-236 -605,-461 0,-293 44,-530 158,-722 117,-195 301,-338 580,-441 99,-36 156,-58 211,-85 71,-36 133,-80 201,-119 63,-36 99,-94 120,-161 21,-66 28,-141 30,-214 -124,-148 -179,-384 -225,-583 -8,-36 -16,-70 -25,-102 -99,-66 -161,-176 -187,-298 -25,-120 -15,-254 33,-367 -12,-72 -19,-151 -19,-233 0,-237 57,-507 200,-736 229,-368 604,-519 1023,-519 419,0 793,151 1023,519 143,229 200,499 200,736 0,82 -7,161 -19,233 48,113 59,247 33,367 -25,122 -88,231 -187,298 -9,33 -17,67 -25,103 -45,197 -99,432 -224,581 2,75 8,151 28,216 20,65 54,121 120,160z"/>
</svg>