<?xml version="1.0" encoding="UTF-8"?>
<!DOCTYPE svg PUBLIC "-//W3C//DTD SVG 1.1//EN" "http://www.w3.org/Graphics/SVG/1.1/DTD/svg11.dtd">
<svg xmlns="http://www.w3.org/2000/svg" xml:space="preserve" width="580px" height="580px" shape-rendering="geometricPrecision" text-rendering="geometricPrecision" image-rendering="optimizeQuality" fill-rule="nonzero" clip-rule="nonzero" viewBox="0 0 5800 5800" xmlns:xlink="http://www.w3.org/1999/xlink">
	<title>criminal icon</title>
	<desc>criminal icon from the IconExperience.com I-Collection. Copyright by INCORS GmbH (www.incors.com).</desc>
		<path id="curve28"  d="M4795 4726c-332,294 -1369,374 -1895,374 -526,0 -1563,-80 -1895,-374 -3,49 -5,100 -5,154 0,111 191,200 455,268 444,116 1073,152 1445,152 372,0 1001,-36 1445,-152 264,-68 455,-157 455,-268 0,-54 -2,-105 -5,-154zm-2350 -3126c166,0 355,0 355,160 0,140 -200,240 -400,240 -200,0 -209,-158 -200,-240 9,-82 79,-160 245,-160zm908 0c-167,0 -355,0 -355,160 0,140 200,240 400,240 200,0 209,-158 200,-240 -9,-82 -79,-160 -245,-160zm-1161 1956c-60,87 -129,123 -215,176 187,131 672,168 923,168 251,0 736,-37 923,-168 -83,-51 -158,-91 -216,-176 -168,112 -519,144 -707,144 -188,0 -541,-32 -708,-144zm-845 478c-110,74 -194,168 -251,288 312,297 1302,378 1804,378 502,0 1492,-81 1804,-378 -57,-120 -141,-214 -251,-288 -390,206 -1143,266 -1553,266 -410,0 -1163,-60 -1553,-266zm349 -2246c-4,-24 -7,-47 -10,-72 42,11 72,1 113,34 106,49 196,121 271,215 89,112 235,169 376,169 64,0 127,-11 186,-34 89,-33 179,-100 268,-100 88,0 177,67 265,100 59,23 122,34 186,34 141,0 286,-57 376,-169 85,-106 189,-185 315,-233 28,-13 47,-8 73,-23 -3,27 -7,53 -11,79 91,216 52,527 -154,665 -9,33 -17,67 -25,103 -45,197 -99,432 -224,581 2,75 8,151 28,216 43,142 195,215 322,279 55,27 112,49 211,85 279,103 463,246 580,441 114,192 158,429 158,722 0,225 -254,370 -605,461 -465,121 -1113,159 -1495,159 -382,0 -1030,-38 -1495,-159 -351,-91 -605,-236 -605,-461 0,-293 44,-530 158,-722 117,-195 301,-338 580,-441 99,-36 156,-58 211,-85 128,-64 277,-137 321,-280 21,-66 28,-141 30,-214 -124,-148 -179,-384 -225,-583 -8,-36 -16,-70 -25,-102 -206,-138 -245,-449 -154,-665zm-18 -288c8,-224 67,-470 199,-681 145,-232 377,-421 724,-491 92,-18 191,-28 299,-28 108,0 207,10 299,28 347,70 579,259 724,491 132,211 191,457 199,681l-2444 0z"/>
</svg>