<?xml version="1.0" encoding="UTF-8"?>
<!DOCTYPE svg PUBLIC "-//W3C//DTD SVG 1.1//EN" "http://www.w3.org/Graphics/SVG/1.1/DTD/svg11.dtd">
<svg xmlns="http://www.w3.org/2000/svg" xml:space="preserve" width="580px" height="580px" shape-rendering="geometricPrecision" text-rendering="geometricPrecision" image-rendering="optimizeQuality" fill-rule="nonzero" clip-rule="nonzero" viewBox="0 0 5800 5800" xmlns:xlink="http://www.w3.org/1999/xlink">
	<title>crossbow icon</title>
	<desc>crossbow icon from the IconExperience.com I-Collection. Copyright by INCORS GmbH (www.incors.com).</desc>
	<path id="curve0"  d="M3250 1006l-250 -125 0 2546 2134 -1238c-484,-426 -1090,-665 -1734,-687l0 1449 -200 120 0 -1571 0 -400 104 0c847,0 1645,332 2244,931 49,45 40,125 -18,159l-2579 1496c-30,18 -69,19 -101,0l-2574 -1490c-61,-30 -75,-112 -27,-161 600,-600 1401,-935 2247,-935l104 0 0 1971 -200 -120 0 -1449c-645,22 -1249,264 -1733,690l2133 1235 0 -2546 -250 125c117,-291 233,-583 350,-875 117,292 233,584 350,875zm170 2631l80 557 0 1006c0,165 -135,300 -300,300l-600 0c-165,0 -300,-135 -300,-300l0 -1006 80 -557 366 220c100,59 221,54 313,-4l361 -216z"/>
</svg>