<?xml version="1.0" encoding="UTF-8"?>
<!DOCTYPE svg PUBLIC "-//W3C//DTD SVG 1.1//EN" "http://www.w3.org/Graphics/SVG/1.1/DTD/svg11.dtd">
<svg xmlns="http://www.w3.org/2000/svg" xml:space="preserve" width="580px" height="580px" shape-rendering="geometricPrecision" text-rendering="geometricPrecision" image-rendering="optimizeQuality" fill-rule="nonzero" clip-rule="nonzero" viewBox="0 0 5800 5800" xmlns:xlink="http://www.w3.org/1999/xlink">
	<title>crossbow icon</title>
	<desc>crossbow icon from the IconExperience.com I-Collection. Copyright by INCORS GmbH (www.incors.com).</desc>
	<path id="curve0"  d="M3250 1006l-250 -125 0 2546 2315 -1343c-527,-486 -1198,-759 -1915,-782l0 1649 -200 120 0 -1771 0 -200c18,0 200,-1 200,1 814,25 1572,354 2148,930 49,45 40,125 -18,159l-2579 1496c-30,18 -69,19 -101,0l-2574 -1490c-61,-30 -75,-112 -27,-161 576,-576 1337,-908 2151,-933 0,-3 182,-2 200,-2l0 1971 -200 -120 0 -1649c-717,23 -1387,299 -1915,784l2315 1341 0 -2546 -250 125 350 -875 350 875zm-685 2742l-65 458 0 994c0,55 45,100 100,100l600 0c55,0 100,-45 100,-100l0 -994 -65 -458 185 -111 80 557 0 1006c0,165 -135,300 -300,300l-600 0c-165,0 -300,-135 -300,-300l0 -1006 80 -557 185 111z"/>
</svg>