<?xml version="1.0" encoding="UTF-8"?>
<!DOCTYPE svg PUBLIC "-//W3C//DTD SVG 1.1//EN" "http://www.w3.org/Graphics/SVG/1.1/DTD/svg11.dtd">
<svg xmlns="http://www.w3.org/2000/svg" xml:space="preserve" width="580px" height="580px" shape-rendering="geometricPrecision" text-rendering="geometricPrecision" image-rendering="optimizeQuality" fill-rule="nonzero" clip-rule="nonzero" viewBox="0 0 5800 5800" xmlns:xlink="http://www.w3.org/1999/xlink">
	<title>crown icon</title>
	<desc>crown icon from the IconExperience.com I-Collection. Copyright by INCORS GmbH (www.incors.com).</desc>
		<path id="curve28"  d="M1476 4300l2848 0 520 -1857c-39,-19 -76,-41 -110,-67l-1068 992 -657 -1478c-35,7 -72,10 -109,10 -37,0 -74,-3 -109,-10l-657 1478 -1068 -992c-34,26 -71,48 -110,67l520 1857zm3561 -1803l-537 1916 0 887 -3200 0 0 -887 -537 -1916c-20,2 -42,3 -63,3 -331,0 -600,-269 -600,-600 0,-331 269,-600 600,-600 331,0 600,269 600,600 0,122 -36,235 -99,330l865 802 538 -1210c-188,-107 -304,-305 -304,-522 0,-331 269,-600 600,-600 331,0 600,269 600,600 0,217 -116,415 -304,522l538 1210 865 -802c-63,-95 -99,-208 -99,-330 0,-331 269,-600 600,-600 331,0 600,269 600,600 0,331 -269,600 -600,600 -21,0 -43,-1 -63,-3zm63 -997c-221,0 -400,179 -400,400 0,221 179,400 400,400 221,0 400,-179 400,-400 0,-221 -179,-400 -400,-400zm-2200 -600c-221,0 -400,179 -400,400 0,221 179,400 400,400 221,0 400,-179 400,-400 0,-221 -179,-400 -400,-400zm-2200 600c-221,0 -400,179 -400,400 0,221 179,400 400,400 221,0 400,-179 400,-400 0,-221 -179,-400 -400,-400zm3600 3000l-2800 0 0 600 2800 0 0 -600z"/>
</svg>