<?xml version="1.0" encoding="UTF-8"?>
<!DOCTYPE svg PUBLIC "-//W3C//DTD SVG 1.1//EN" "http://www.w3.org/Graphics/SVG/1.1/DTD/svg11.dtd">
<svg xmlns="http://www.w3.org/2000/svg" xml:space="preserve" width="580px" height="580px" shape-rendering="geometricPrecision" text-rendering="geometricPrecision" image-rendering="optimizeQuality" fill-rule="nonzero" clip-rule="nonzero" viewBox="0 0 5800 5800" xmlns:xlink="http://www.w3.org/1999/xlink">
	<title>cruise_ship icon</title>
	<desc>cruise_ship icon from the IconExperience.com I-Collection. Copyright by INCORS GmbH (www.incors.com).</desc>
	<path id="curve0"  d="M303 4989c235,0 449,-126 563,-332l87 -157 87 157c114,205 328,332 562,332 234,0 446,-124 561,-328l87 -156 87 156c114,205 328,332 563,332 235,0 451,-128 564,-334l87 -159 88 158c113,205 327,331 562,331 234,0 448,-126 562,-332l87 -157 88 157c113,206 327,332 562,332l0 511 -5200 0 3 -511zm3279 -4289l100 500 526 0c149,0 273,107 296,253l24 147 -3256 0 24 -147c23,-146 147,-253 296,-253l526 0 100 -500c455,0 909,0 1364,0zm-150 2439c36,-98 133,-225 256,-180 121,44 116,201 80,302 -37,100 -134,224 -256,180 -121,-44 -116,-201 -80,-302zm-1064 0c36,101 41,258 -80,302 -122,44 -219,-80 -256,-180 -36,-101 -41,-258 80,-302 123,-45 220,82 256,180zm143 1425c61,110 167,190 289,218l0 -2629 -2242 1082c184,302 346,597 488,923 55,127 104,287 168,403 79,142 226,228 388,228 163,0 307,-84 387,-226l87 -155c36,-65 100,-102 175,-102 74,0 138,38 174,103l86 155zm1302 -3c79,143 225,228 388,228 186,0 315,-96 402,-254 169,-463 385,-884 642,-1306l-2245 -1080 0 2633c122,-28 229,-109 289,-219l86 -158c36,-65 100,-103 175,-104 75,0 139,38 176,103l87 157zm763 -2661l32 200 -1237 0c-155,-75 -285,-158 -464,-159 -177,0 -309,84 -463,159l-1252 0 32 -200 3352 0zm80 500l57 350 -723 -350 666 0zm-3570 357l58 -357 680 0 -738 357z"/>
</svg>