<?xml version="1.0" encoding="UTF-8"?>
<!DOCTYPE svg PUBLIC "-//W3C//DTD SVG 1.1//EN" "http://www.w3.org/Graphics/SVG/1.1/DTD/svg11.dtd">
<svg xmlns="http://www.w3.org/2000/svg" xml:space="preserve" width="580px" height="580px" shape-rendering="geometricPrecision" text-rendering="geometricPrecision" image-rendering="optimizeQuality" fill-rule="nonzero" clip-rule="nonzero" viewBox="0 0 5800 5800" xmlns:xlink="http://www.w3.org/1999/xlink">
	<title>cruise_ship icon</title>
	<desc>cruise_ship icon from the IconExperience.com I-Collection. Copyright by INCORS GmbH (www.incors.com).</desc>
	<path id="curve0"  d="M2745 2175c52,-25 107,-38 162,-38 55,0 110,13 162,38l2176 1054c-259,425 -471,837 -642,1306 -68,123 -153,206 -291,240 158,-511 378,-1001 649,-1462l-1961 -950 0 2419c-32,7 -66,11 -100,11 -35,0 -68,-4 -100,-11l0 -2412 -1958 949c269,459 487,947 645,1455 -149,-39 -225,-127 -298,-259 -169,-459 -377,-863 -631,-1280l2187 -1060zm837 -1475l100 500 526 0c149,0 273,107 296,253l231 1438 -222 -125 -59 -366 -593 0 -533 -300 1078 0 -32 -200 -2948 0 -32 200 1091 0 -534 300 -605 0 -61 374 -221 125 232 -1446c23,-146 147,-253 296,-253l526 0 100 -500 1364 0zm-1990 700c-51,0 -91,35 -99,85l-19 115 2852 0 -19 -115c-8,-50 -48,-85 -99,-85 -872,0 -1744,0 -2616,0zm730 -200l1156 0 -60 -300 -1036 0 -60 300zm-2019 3789c235,0 449,-126 563,-332l87 -157 87 157c114,205 328,332 562,332 234,0 446,-124 561,-328l87 -156 87 156c114,205 328,332 563,332 235,0 451,-128 564,-334l87 -159 88 158c113,205 327,331 562,331 234,0 448,-126 562,-332l87 -157 88 157c113,206 327,332 562,332l0 200c-252,0 -490,-113 -650,-307 -160,194 -397,307 -649,307 -252,0 -489,-113 -649,-306 -63,76 -138,142 -223,192 -126,75 -273,118 -429,118 -253,0 -490,-113 -651,-308 -160,192 -396,304 -647,304 -251,0 -489,-113 -649,-307 -160,194 -398,307 -650,307l0 -200zm2065 -1850c36,101 41,258 -80,302 -122,44 -219,-80 -256,-180 -36,-101 -41,-258 80,-302 123,-45 220,82 256,180zm1064 0c36,-98 133,-225 256,-180 121,44 116,201 80,302 -37,100 -134,224 -256,180 -121,-44 -116,-201 -80,-302z"/>
</svg>