<?xml version="1.0" encoding="UTF-8"?>
<!DOCTYPE svg PUBLIC "-//W3C//DTD SVG 1.1//EN" "http://www.w3.org/Graphics/SVG/1.1/DTD/svg11.dtd">
<svg xmlns="http://www.w3.org/2000/svg" xml:space="preserve" width="580px" height="580px" shape-rendering="geometricPrecision" text-rendering="geometricPrecision" image-rendering="optimizeQuality" fill-rule="nonzero" clip-rule="nonzero" viewBox="0 0 5800 5800" xmlns:xlink="http://www.w3.org/1999/xlink">
	<title>crutch icon</title>
	<desc>crutch icon from the IconExperience.com I-Collection. Copyright by INCORS GmbH (www.incors.com).</desc>
	<path id="curve0"  d="M3261 1967l571 571 1104 -1102c-109,-79 -212,-167 -308,-263 -95,-95 -183,-198 -264,-309l-1103 1103zm-2714 2885l211 -52c34,-9 68,-8 100,0l1752 -1758c39,-39 102,-39 141,-1 39,39 40,102 1,141l-1753 1759c9,33 10,67 1,101l-54 216c-4,18 -13,34 -26,46l-283 283c-39,39 -102,39 -141,0l-283 -283c-39,-39 -39,-102 0,-141l283 -283c15,-15 33,-24 51,-28zm3777 -4628c72,-41 154,-50 228,-30 74,20 140,68 182,140 1,2 2,3 3,5 89,153 195,290 315,410 125,125 264,231 414,317 2,1 3,2 5,4 140,84 186,264 104,406 -85,143 -265,192 -409,109 -20,-12 -41,-24 -61,-36l-1132 1130c115,117 114,307 -2,422 -115,116 -306,117 -422,2l-243 243 -424 141 -697 698 -281 0 870 -872 424 -141 210 -210 -571 -571 -210 210 -142 424 -870 871 0 -282 696 -697 142 -425 243 -242c-114,-117 -113,-306 3,-421 115,-116 304,-117 421,-3l1131 -1131c-12,-20 -24,-40 -36,-61 -2,-2 -3,-5 -4,-7 -38,-70 -46,-149 -26,-221 19,-74 68,-140 139,-182zm100 173c-46,26 -63,86 -39,133l2 4c108,186 237,353 382,498 150,150 317,278 497,381 46,26 107,11 135,-34l3 -5c25,-46 10,-105 -35,-133 0,-1 -3,-2 -4,-2 -165,-94 -317,-212 -454,-349 -132,-131 -248,-282 -347,-451 -1,-2 -2,-3 -3,-5 -27,-48 -89,-64 -137,-37zm-594 2422l-848 -849c-39,-39 -103,-39 -142,0 -39,39 -39,103 0,141l849 849c38,39 102,39 141,0 39,-39 39,-103 0,-141zm-3212 2222l-193 192 142 142 192 -193 47 -189c-1,2 -170,43 -188,48z"/>
</svg>