<?xml version="1.0" encoding="UTF-8"?>
<!DOCTYPE svg PUBLIC "-//W3C//DTD SVG 1.1//EN" "http://www.w3.org/Graphics/SVG/1.1/DTD/svg11.dtd">
<svg xmlns="http://www.w3.org/2000/svg" xml:space="preserve" width="580px" height="580px" shape-rendering="geometricPrecision" text-rendering="geometricPrecision" image-rendering="optimizeQuality" fill-rule="nonzero" clip-rule="nonzero" viewBox="0 0 5800 5800" xmlns:xlink="http://www.w3.org/1999/xlink">
	<title>crutch icon</title>
	<desc>crutch icon from the IconExperience.com I-Collection. Copyright by INCORS GmbH (www.incors.com).</desc>
	<path id="curve0"  d="M4324 224c141,-81 338,-33 413,115 89,153 195,290 315,410 125,125 264,231 414,317 143,85 193,265 109,411 -85,142 -265,191 -409,108 -20,-12 -41,-24 -61,-36l-1132 1130c115,117 114,307 -2,422 -115,116 -306,117 -422,2l-243 243 -424 141 -712 713 -282 0 886 -887 424 -141 210 -210 -571 -571 -210 210 -142 424 -885 887 0 -283 711 -712 142 -425 243 -242c-114,-117 -113,-306 3,-421 115,-116 304,-117 421,-3l1131 -1131c-13,-21 -29,-46 -40,-68 -78,-143 -28,-321 113,-403zm-3777 4628l211 -52c34,-9 68,-8 100,0l1752 -1758c39,-39 102,-39 141,-1 39,39 40,102 1,141l-1753 1759c9,33 10,67 1,101l-54 216c-4,18 -13,34 -26,46l-283 283c-39,39 -102,39 -141,0l-283 -283c-39,-39 -39,-102 0,-141l283 -283c15,-15 33,-24 51,-28zm2714 -2885l571 571 1104 -1102c-220,-160 -412,-352 -572,-572l-1103 1103z"/>
</svg>