<?xml version="1.0" encoding="UTF-8"?>
<!DOCTYPE svg PUBLIC "-//W3C//DTD SVG 1.1//EN" "http://www.w3.org/Graphics/SVG/1.1/DTD/svg11.dtd">
<svg xmlns="http://www.w3.org/2000/svg" xml:space="preserve" width="580px" height="580px" shape-rendering="geometricPrecision" text-rendering="geometricPrecision" image-rendering="optimizeQuality" fill-rule="nonzero" clip-rule="nonzero" viewBox="0 0 5800 5800" xmlns:xlink="http://www.w3.org/1999/xlink">
	<title>crystal_ball icon</title>
	<desc>crystal_ball icon from the IconExperience.com I-Collection. Copyright by INCORS GmbH (www.incors.com).</desc>
	<path id="curve0" d="M838 5300l114 0c209,-253 519,-400 848,-400 329,0 639,147 848,400l504 0c209,-253 519,-400 848,-400 329,0 639,147 848,400l114 0 -325 -974c-560,182 -1148,274 -1737,274 -589,0 -1177,-92 -1737,-274l-325 974zm2062 -5000c1270,0 2300,1030 2300,2300 0,455 -132,879 -360,1236 -110,38 -220,77 -330,113 306,-365 490,-836 490,-1349 0,-1160 -940,-2100 -2100,-2100 -1160,0 -2100,940 -2100,2100 0,513 184,984 490,1349 -110,-36 -220,-75 -330,-113 -228,-357 -360,-781 -360,-1236 0,-1270 1030,-2300 2300,-2300zm0 500c994,0 1800,806 1800,1800l-200 0c0,-884 -716,-1600 -1600,-1600l0 -200zm-2338 4700l475 -1427c620,214 1207,327 1863,327 660,0 1241,-112 1863,-327l475 1427c-162,0 -325,0 -487,0l-31 -40c-171,-228 -435,-360 -720,-360 -285,0 -549,132 -720,360l-31 40 -698 0 -31 -40c-171,-228 -435,-360 -720,-360 -285,0 -549,132 -720,360l-31 40c-162,0 -325,0 -487,0z"/>
</svg>