<?xml version="1.0" encoding="UTF-8"?>
<!DOCTYPE svg PUBLIC "-//W3C//DTD SVG 1.1//EN" "http://www.w3.org/Graphics/SVG/1.1/DTD/svg11.dtd">
<svg xmlns="http://www.w3.org/2000/svg" xml:space="preserve" width="580px" height="580px" shape-rendering="geometricPrecision" text-rendering="geometricPrecision" image-rendering="optimizeQuality" fill-rule="nonzero" clip-rule="nonzero" viewBox="0 0 5800 5800" xmlns:xlink="http://www.w3.org/1999/xlink">
	<title>crystal_ball icon</title>
	<desc>crystal_ball icon from the IconExperience.com I-Collection. Copyright by INCORS GmbH (www.incors.com).</desc>
	<path id="curve0"  d="M2900 300c635,0 1210,257 1626,674 417,416 674,991 674,1626 0,455 -132,879 -360,1236 -670,231 -1220,364 -1940,364 -720,0 -1270,-133 -1940,-364 -228,-357 -360,-781 -360,-1236 0,-635 257,-1210 674,-1626 416,-417 991,-674 1626,-674zm0 500l0 200c884,0 1600,716 1600,1600l200 0c0,-994 -806,-1800 -1800,-1800zm-2338 4700l475 -1427c620,214 1207,327 1863,327 660,0 1241,-112 1863,-327l475 1427c-162,0 -325,0 -487,0l-31 -40c-171,-228 -435,-360 -720,-360 -285,0 -549,132 -720,360l-31 40 -698 0 -31 -40c-171,-228 -435,-360 -720,-360 -285,0 -549,132 -720,360l-31 40c-162,0 -325,0 -487,0z"/>
</svg>