<?xml version="1.0" encoding="UTF-8"?>
<!DOCTYPE svg PUBLIC "-//W3C//DTD SVG 1.1//EN" "http://www.w3.org/Graphics/SVG/1.1/DTD/svg11.dtd">
<svg xmlns="http://www.w3.org/2000/svg" xml:space="preserve" width="580px" height="580px" shape-rendering="geometricPrecision" text-rendering="geometricPrecision" image-rendering="optimizeQuality" fill-rule="nonzero" clip-rule="nonzero" viewBox="0 0 5800 5800" xmlns:xlink="http://www.w3.org/1999/xlink">
	<title>cube_molecule icon</title>
	<desc>cube_molecule icon from the IconExperience.com I-Collection. Copyright by INCORS GmbH (www.incors.com).</desc>
		<path id="curve28"  d="M1248 1611l363 -363c-70,-98 -111,-218 -111,-348 0,-331 269,-600 600,-600 293,0 543,212 592,500l1616 0c49,-288 299,-500 592,-500 331,0 600,269 600,600 0,293 -212,543 -500,592l0 1616c288,49 500,299 500,592 0,331 -269,600 -600,600 -130,0 -250,-41 -348,-111l-363 363c70,98 111,218 111,348 0,331 -269,600 -600,600 -293,0 -543,-212 -592,-500l-1616 0c-49,288 -299,500 -592,500 -331,0 -600,-269 -600,-600 0,-293 212,-543 500,-592l0 -1616c-288,-49 -500,-299 -500,-592 0,-331 269,-600 600,-600 130,0 250,41 348,111zm504 -222l-363 363c52,73 87,157 103,248l1616 0c49,-288 299,-500 592,-500 130,0 250,41 348,111l363 -363c-52,-73 -87,-157 -103,-248l-1616 0c-42,251 -241,450 -492,492l0 308 -200 0 0 -308c-91,-16 -175,-51 -248,-103zm-260 811c-42,251 -241,450 -492,492l0 1616c91,16 175,51 248,103l363 -363c-70,-98 -111,-218 -111,-348 0,-293 212,-543 500,-592l0 -708 200 0 0 708c251,42 450,241 492,492l708 0 0 200 -708 0c-49,288 -299,500 -592,500 -130,0 -250,-41 -348,-111l-363 363c52,73 87,157 103,248l1616 0c42,-251 241,-450 492,-492l0 -1616c-251,-42 -450,-241 -492,-492l-1616 0zm2508 1400l308 0c42,-251 241,-450 492,-492l0 -1616c-91,-16 -175,-51 -248,-103l-363 363c70,98 111,218 111,348 0,293 -212,543 -500,592l0 1616c91,16 175,51 248,103l363 -363c-52,-73 -87,-157 -103,-248l-308 0 0 -200zm900 -300c-221,0 -400,179 -400,400 0,221 179,400 400,400 221,0 400,-179 400,-400 0,-221 -179,-400 -400,-400zm0 -2800c-221,0 -400,179 -400,400 0,221 179,400 400,400 221,0 400,-179 400,-400 0,-221 -179,-400 -400,-400zm-2800 0c-221,0 -400,179 -400,400 0,221 179,400 400,400 221,0 400,-179 400,-400 0,-221 -179,-400 -400,-400zm0 2800c-221,0 -400,179 -400,400 0,221 179,400 400,400 221,0 400,-179 400,-400 0,-221 -179,-400 -400,-400zm1600 1200c-221,0 -400,179 -400,400 0,221 179,400 400,400 221,0 400,-179 400,-400 0,-221 -179,-400 -400,-400zm0 -2800c-221,0 -400,179 -400,400 0,221 179,400 400,400 221,0 400,-179 400,-400 0,-221 -179,-400 -400,-400zm-2800 2800c-221,0 -400,179 -400,400 0,221 179,400 400,400 221,0 400,-179 400,-400 0,-221 -179,-400 -400,-400zm0 -2800c-221,0 -400,179 -400,400 0,221 179,400 400,400 221,0 400,-179 400,-400 0,-221 -179,-400 -400,-400z"/>
</svg>