<?xml version="1.0" encoding="UTF-8"?>
<!DOCTYPE svg PUBLIC "-//W3C//DTD SVG 1.1//EN" "http://www.w3.org/Graphics/SVG/1.1/DTD/svg11.dtd">
<svg xmlns="http://www.w3.org/2000/svg" xml:space="preserve" width="580px" height="580px" shape-rendering="geometricPrecision" text-rendering="geometricPrecision" image-rendering="optimizeQuality" fill-rule="nonzero" clip-rule="nonzero" viewBox="0 0 5800 5800" xmlns:xlink="http://www.w3.org/1999/xlink">
	<title>cubes icon</title>
	<desc>cubes icon from the IconExperience.com I-Collection. Copyright by INCORS GmbH (www.incors.com).</desc>
		<path id="curve28"  d="M4100 1189l-1200 600 -1200 -600 1200 -600 1200 600zm100 172l0 1178 -1200 600 0 -1178 1200 -600zm123 1339l977 489 -1200 600 -977 -489 1200 -600zm1077 661l0 1400 -1200 600 0 -1400 1200 -600zm-1400 2000l-1000 -500 0 -1400 1000 500 0 1400zm-1200 -500l-1000 500 0 -1400 1000 -500 0 1400zm-1200 500l-1200 -600 0 -1400 1200 600 0 1400zm-1100 -2172l977 -489 1200 600 -977 489 -1200 -600zm1100 -650l0 -1178 1200 600 0 1178 -1200 -600z"/>
</svg>