<?xml version="1.0" encoding="UTF-8"?>
<!DOCTYPE svg PUBLIC "-//W3C//DTD SVG 1.1//EN" "http://www.w3.org/Graphics/SVG/1.1/DTD/svg11.dtd">
<svg xmlns="http://www.w3.org/2000/svg" xml:space="preserve" width="580px" height="580px" shape-rendering="geometricPrecision" text-rendering="geometricPrecision" image-rendering="optimizeQuality" fill-rule="nonzero" clip-rule="nonzero" viewBox="0 0 5800 5800" xmlns:xlink="http://www.w3.org/1999/xlink">
	<title>cube_molecule2 icon</title>
	<desc>cube_molecule2 icon from the IconExperience.com I-Collection. Copyright by INCORS GmbH (www.incors.com).</desc>
		<path id="curve28"  d="M4401 1934l-920 414c12,49 19,100 19,152 0,293 -212,543 -500,592l0 1416c163,28 307,121 399,258l920 -414c-12,-49 -19,-100 -19,-152 0,-52 7,-103 19,-152l-919 -414 0 -218 1001 450c92,-137 236,-230 399,-258l0 -1416c-163,-28 -307,-121 -399,-258zm-2001 1700l-919 414c12,49 19,100 19,152 0,52 -7,103 -19,152l920 414c92,-137 236,-230 399,-258l0 -1416c-288,-49 -500,-299 -500,-592 0,-52 7,-103 19,-152l-920 -414c-92,137 -236,230 -399,258l0 1416c163,28 307,121 399,258l1001 -450 0 218zm-1001 900c-112,166 -298,266 -499,266 -331,0 -600,-269 -600,-600 0,-293 212,-543 500,-592l0 -1416c-288,-49 -500,-299 -500,-592 0,-331 269,-600 600,-600 201,0 387,100 499,266l920 -414c-12,-49 -19,-100 -19,-152 0,-331 269,-600 600,-600 331,0 600,269 600,600 0,54 -7,106 -21,156l920 414c111,-168 298,-270 501,-270 331,0 600,269 600,600 0,293 -212,543 -500,592l0 1416c288,49 500,299 500,592 0,331 -269,600 -600,600 -201,0 -387,-100 -499,-266l-920 414c12,49 19,100 19,152 0,331 -269,600 -600,600 -331,0 -600,-269 -600,-600 0,-52 7,-103 19,-152l-920 -414zm82 -3086c12,49 19,100 19,152 0,52 -7,103 -19,152l920 414c112,-166 298,-266 499,-266 201,0 387,100 499,266l920 -414c-12,-49 -19,-100 -19,-152 0,-51 6,-100 18,-147l-922 -415c-92,134 -235,227 -396,254l0 213c-33,-3 -66,-5 -100,-5 -34,0 -67,2 -100,5l0 -213c-163,-28 -307,-121 -399,-258l-920 414zm-581 -248c-221,0 -400,179 -400,400 0,221 179,400 400,400 221,0 400,-179 400,-400 0,-221 -179,-400 -400,-400zm0 2600c-221,0 -400,179 -400,400 0,221 179,400 400,400 221,0 400,-179 400,-400 0,-221 -179,-400 -400,-400zm2000 -1700c-221,0 -400,179 -400,400 0,221 179,400 400,400 221,0 400,-179 400,-400 0,-221 -179,-400 -400,-400zm0 2600c-221,0 -400,179 -400,400 0,221 179,400 400,400 221,0 400,-179 400,-400 0,-221 -179,-400 -400,-400zm0 -4400c-221,0 -400,179 -400,400 0,221 179,400 400,400 221,0 400,-179 400,-400 0,-221 -179,-400 -400,-400zm2000 900c-221,0 -400,179 -400,400 0,221 179,400 400,400 221,0 400,-179 400,-400 0,-221 -179,-400 -400,-400zm0 2600c-221,0 -400,179 -400,400 0,221 179,400 400,400 221,0 400,-179 400,-400 0,-221 -179,-400 -400,-400z"/>
</svg>