<?xml version="1.0" encoding="UTF-8"?>
<!DOCTYPE svg PUBLIC "-//W3C//DTD SVG 1.1//EN" "http://www.w3.org/Graphics/SVG/1.1/DTD/svg11.dtd">
<svg xmlns="http://www.w3.org/2000/svg" xml:space="preserve" width="580px" height="580px" shape-rendering="geometricPrecision" text-rendering="geometricPrecision" image-rendering="optimizeQuality" fill-rule="nonzero" clip-rule="nonzero" viewBox="0 0 5800 5800" xmlns:xlink="http://www.w3.org/1999/xlink">
	<title>cubes icon</title>
	<desc>cubes icon from the IconExperience.com I-Collection. Copyright by INCORS GmbH (www.incors.com).</desc>
		<path id="curve28"  d="M2800 3139l0 -1178 -1000 -500 0 1178 1000 500zm-877 -1839l977 489 977 -489 -977 -489 -977 489zm2077 161l-1000 500 0 1178 1000 -500 0 -1178zm200 1178l1200 600 0 1522 -1300 650 -1200 -600 -1200 600 -1300 -650 0 -1522 1200 -600 0 -1400 1300 -650 1300 650 0 1400zm-1077 661l977 489 977 -489 -977 -489 -977 489zm2077 161l-1000 500 0 1178 1000 -500 0 -1178zm-1200 1678l0 -1178 -1000 -500 0 1178 1000 500zm-1200 -1678l-1000 500 0 1178 1000 -500 0 -1178zm-1200 1678l0 -1178 -1000 -500 0 1178 1000 500zm-877 -1839l977 489 977 -489 -977 -489 -977 489z"/>
</svg>