<?xml version="1.0" encoding="UTF-8"?>
<!DOCTYPE svg PUBLIC "-//W3C//DTD SVG 1.1//EN" "http://www.w3.org/Graphics/SVG/1.1/DTD/svg11.dtd">
<svg xmlns="http://www.w3.org/2000/svg" xml:space="preserve" width="580px" height="580px" shape-rendering="geometricPrecision" text-rendering="geometricPrecision" image-rendering="optimizeQuality" fill-rule="nonzero" clip-rule="nonzero" viewBox="0 0 5800 5800" xmlns:xlink="http://www.w3.org/1999/xlink">
	<title>cup icon</title>
	<desc>cup icon from the IconExperience.com I-Collection. Copyright by INCORS GmbH (www.incors.com).</desc>
		<path id="curve28" d="M4800 4700l100 0 0 100 0 144c0,69 -23,133 -63,185 -41,51 -97,89 -164,106 -65,16 -572,141 -574,143 0,0 1,111 1,122l-2600 0 0 -122 -573 -143c-67,-17 -124,-55 -164,-106 -40,-52 -63,-116 -63,-185l1 -244c1366,0 2733,0 4099,0zm-3103 -200c-181,-149 -314,-302 -408,-462 -135,-230 -189,-471 -189,-738l0 -900 3400 0 0 500 200 0c331,0 600,269 600,600 0,160 -63,293 -164,394 -107,107 -257,177 -420,204l-483 81c-77,119 -170,229 -279,321l-373 0c98,-42 188,-101 268,-173 92,-82 172,-181 238,-291l24 -39 45 -8 528 -87c122,-21 233,-72 310,-149 69,-69 106,-155 106,-253 0,-220 -180,-400 -400,-400l-400 0 0 -500 -3000 0 0 700c0,233 46,442 161,637 114,193 296,377 569,563l-333 0zm1863 -3916c-65,-29 -272,-49 -506,-49 -177,0 -366,13 -517,42 -127,25 -220,56 -237,93 1,49 178,82 358,116 269,50 542,102 542,327 0,154 -130,211 -260,269 -70,31 -140,62 -140,86 0,50 33,100 68,155 63,95 132,201 132,377l-200 0c0,-117 -52,-196 -99,-268 -53,-81 -101,-155 -101,-264 0,-154 130,-211 260,-269 70,-31 140,-62 140,-86 0,-60 -191,-96 -378,-131 -263,-50 -522,-98 -522,-312 0,-28 6,-54 17,-80 47,-106 194,-172 382,-209 165,-32 367,-46 555,-46 259,0 498,27 586,66l-80 183zm1140 4316c-1267,0 -2534,0 -3801,0l0 44c0,24 8,45 21,62 13,17 32,29 55,35l573 143c45,11 83,37 110,71 10,14 19,29 26,45l2232 0c7,-16 16,-31 26,-45 27,-34 65,-60 110,-71l572 -143c23,-6 43,-18 56,-35 13,-17 20,-38 20,-62l0 -44z"/>
</svg>