<?xml version="1.0" encoding="UTF-8"?>
<!DOCTYPE svg PUBLIC "-//W3C//DTD SVG 1.1//EN" "http://www.w3.org/Graphics/SVG/1.1/DTD/svg11.dtd">
<svg xmlns="http://www.w3.org/2000/svg" xml:space="preserve" width="580px" height="580px" shape-rendering="geometricPrecision" text-rendering="geometricPrecision" image-rendering="optimizeQuality" fill-rule="nonzero" clip-rule="nonzero" viewBox="0 0 5800 5800" xmlns:xlink="http://www.w3.org/1999/xlink">
	<title>cup icon</title>
	<desc>cup icon from the IconExperience.com I-Collection. Copyright by INCORS GmbH (www.incors.com).</desc>
		<path id="curve28"  d="M3560 584c-65,-29 -272,-49 -506,-49 -118,0 -702,23 -754,135 1,49 178,82 358,116 269,50 542,102 542,327 0,154 -130,211 -260,269 -70,31 -140,62 -140,86 0,126 200,260 200,532l-200 0c0,-225 -200,-317 -200,-532 0,-154 130,-211 260,-269 70,-31 140,-62 140,-86 0,-60 -191,-96 -378,-131 -263,-50 -522,-98 -522,-312 0,-28 6,-54 17,-80 106,-239 709,-255 937,-255 259,0 498,27 586,66l-80 183zm1740 2916c0,335 -275,547 -584,598l-483 81c-77,119 -170,229 -279,321l-2257 0c-181,-149 -314,-302 -408,-462 -135,-230 -189,-471 -189,-738l0 -900 3400 0 0 500 200 0c331,0 600,269 600,600zm-400 1200l0 244c0,138 -93,257 -227,291l-573 143c-1,0 0,111 0,122l-2600 0 0 -122 -573 -143c-134,-34 -227,-152 -227,-291l0 -136 0 -108 4200 0z"/>
</svg>