<?xml version="1.0" encoding="UTF-8"?>
<!DOCTYPE svg PUBLIC "-//W3C//DTD SVG 1.1//EN" "http://www.w3.org/Graphics/SVG/1.1/DTD/svg11.dtd">
<svg xmlns="http://www.w3.org/2000/svg" xml:space="preserve" width="580px" height="580px" shape-rendering="geometricPrecision" text-rendering="geometricPrecision" image-rendering="optimizeQuality" fill-rule="nonzero" clip-rule="nonzero" viewBox="0 0 5800 5800" xmlns:xlink="http://www.w3.org/1999/xlink">
	<title>currency_dollar icon</title>
	<desc>currency_dollar icon from the IconExperience.com I-Collection. Copyright by INCORS GmbH (www.incors.com).</desc>
	<path id="curve0"  d="M2900 300c1436,0 2600,1164 2600,2600 0,1436 -1164,2600 -2600,2600 -1436,0 -2600,-1164 -2600,-2600 0,-1436 1164,-2600 2600,-2600zm936 1909l200 0c0,-437 -354,-791 -791,-791l-245 0 0 -418 -200 0 0 418 -245 0c-437,0 -791,354 -791,791 0,437 354,791 791,791l245 0 0 1182 -245 0c-327,0 -591,-265 -591,-591l-200 0c0,437 354,791 791,791l245 0 0 418 200 0 0 -418 245 0c437,0 791,-354 791,-791 0,-437 -354,-791 -791,-791l-245 0 0 -1182 245 0c327,0 591,265 591,591zm-1036 -591l-245 0c-327,0 -591,265 -591,591 0,326 264,591 591,591l245 0 0 -1182zm200 2564l0 -1182 245 0c327,0 591,265 591,591 0,326 -264,591 -591,591l-245 0z"/>
</svg>