<?xml version="1.0" encoding="UTF-8"?>
<!DOCTYPE svg PUBLIC "-//W3C//DTD SVG 1.1//EN" "http://www.w3.org/Graphics/SVG/1.1/DTD/svg11.dtd">
<svg xmlns="http://www.w3.org/2000/svg" xml:space="preserve" width="580px" height="580px" shape-rendering="geometricPrecision" text-rendering="geometricPrecision" image-rendering="optimizeQuality" fill-rule="nonzero" clip-rule="nonzero" viewBox="0 0 5800 5800" xmlns:xlink="http://www.w3.org/1999/xlink">
	<title>currency_won icon</title>
	<desc>currency_won icon from the IconExperience.com I-Collection. Copyright by INCORS GmbH (www.incors.com).</desc>
	<path id="curve0"  d="M2900 300c1436,0 2600,1164 2600,2600 0,1436 -1164,2600 -2600,2600 -1436,0 -2600,-1164 -2600,-2600 0,-1436 1164,-2600 2600,-2600zm-1600 3400l0 200 482 0 214 641c31,95 118,158 218,158l65 0c105,0 197,-72 223,-175l154 -624 488 0 155 624c25,103 117,175 222,175l65 0c100,0 187,-63 218,-158l214 -641 482 0 0 -200 -415 0 103 -310c10,-30 19,-60 28,-90l284 0 0 -200 -236 0c25,-132 36,-265 36,-399l0 -1301 -200 0 0 1301c0,135 -11,267 -39,399l-910 0 -57 -232c-22,-89 -102,-152 -194,-152 -92,0 -172,63 -194,152l-57 232 -910 0c-28,-132 -39,-264 -39,-399l0 -1301 -200 0 0 1301c0,134 11,267 36,399l-236 0 0 200 284 0c9,30 18,60 28,90l103 310 -415 0zm625 0l575 0 99 -400 -807 0c3,9 6,18 9,28l124 372zm781 0l388 0 -99 -400 -190 0 -99 400zm594 0l575 0 124 -372c3,-10 6,-19 9,-28l-807 0 99 400zm508 200l-459 0 143 576c4,15 14,23 29,23l65 0c14,0 25,-7 29,-20l193 -579zm-1357 0l-459 0 193 579c4,13 15,20 29,20l65 0c15,0 25,-8 29,-23l143 -576zm449 -984l-46 184 92 0 -46 -184z"/>
</svg>