<?xml version="1.0" encoding="UTF-8"?>
<!DOCTYPE svg PUBLIC "-//W3C//DTD SVG 1.1//EN" "http://www.w3.org/Graphics/SVG/1.1/DTD/svg11.dtd">
<svg xmlns="http://www.w3.org/2000/svg" xml:space="preserve" width="580px" height="580px" shape-rendering="geometricPrecision" text-rendering="geometricPrecision" image-rendering="optimizeQuality" fill-rule="nonzero" clip-rule="nonzero" viewBox="0 0 5800 5800" xmlns:xlink="http://www.w3.org/1999/xlink">
	<title>currency_won icon</title>
	<desc>currency_won icon from the IconExperience.com I-Collection. Copyright by INCORS GmbH (www.incors.com).</desc>
	<path id="curve0"  d="M1700 1400l0 1301c0,135 11,267 39,399l910 0 57 -232c22,-89 102,-152 194,-152 92,0 172,63 194,152l57 232 910 0c28,-132 39,-264 39,-399l0 -1301 200 0 0 1301c0,134 -11,267 -36,399l236 0 0 200 -284 0c-9,30 -18,60 -28,90l-103 310 415 0 0 200 -482 0 -214 641c-31,95 -118,158 -218,158l-65 0c-52,0 -101,-18 -141,-49 -40,-31 -69,-74 -81,-126l-155 -624 -488 0 -154 624c-26,103 -118,175 -223,175l-65 0c-100,0 -187,-63 -218,-158l-214 -641 -482 0 0 -200 415 0 -103 -310c-10,-30 -19,-60 -28,-90l-284 0 0 -200 236 0c-25,-132 -36,-265 -36,-399l0 -1301 200 0zm1200 -1100c1436,0 2600,1164 2600,2600 0,1436 -1164,2600 -2600,2600 -1436,0 -2600,-1164 -2600,-2600 0,-1436 1164,-2600 2600,-2600zm0 200c-1325,0 -2400,1075 -2400,2400 0,1325 1075,2400 2400,2400 1325,0 2400,-1075 2400,-2400 0,-1325 -1075,-2400 -2400,-2400zm-1108 2800c43,134 89,267 133,400l575 0 99 -400 -807 0zm1409 0l99 400 575 0c44,-133 90,-266 133,-400l-807 0zm-347 -200l92 0 -46 -185 -46 185zm141 200l-190 0 -99 400 388 0 -99 -400zm-1003 600l193 579c4,13 15,20 29,20l65 0c15,0 25,-8 29,-23l143 -576 -459 0zm1357 0l143 576c2,7 6,13 11,17 4,4 11,6 18,6l65 0c14,0 25,-7 29,-20l193 -579 -459 0z"/>
</svg>