<?xml version="1.0" encoding="UTF-8"?>
<!DOCTYPE svg PUBLIC "-//W3C//DTD SVG 1.1//EN" "http://www.w3.org/Graphics/SVG/1.1/DTD/svg11.dtd">
<svg xmlns="http://www.w3.org/2000/svg" xml:space="preserve" width="580px" height="580px" shape-rendering="geometricPrecision" text-rendering="geometricPrecision" image-rendering="optimizeQuality" fill-rule="nonzero" clip-rule="nonzero" viewBox="0 0 5800 5800" xmlns:xlink="http://www.w3.org/1999/xlink">
	<title>currency_yuan icon</title>
	<desc>currency_yuan icon from the IconExperience.com I-Collection. Copyright by INCORS GmbH (www.incors.com).</desc>
	<path id="curve0"  d="M4500 3700l0 200c0,220 -180,400 -400,400l-600 0c-220,0 -400,-180 -400,-400l0 -1400 -400 0 0 400c0,772 -627,1400 -1400,1400l0 -200c663,0 1200,-537 1200,-1200l0 -400 -1200 0 0 -200 3200 0 0 200 -1200 0 0 1400c0,110 90,200 200,200l600 0c111,0 200,-89 200,-200l0 -200 200 0zm-1600 -3400c1436,0 2600,1164 2600,2600 0,1436 -1164,2600 -2600,2600 -1436,0 -2600,-1164 -2600,-2600 0,-1436 1164,-2600 2600,-2600zm0 200c-1325,0 -2400,1075 -2400,2400 0,1325 1075,2400 2400,2400 1325,0 2400,-1075 2400,-2400 0,-1325 -1075,-2400 -2400,-2400zm-1200 1000l2400 0 0 200 -2400 0 0 -200z"/>
</svg>