<?xml version="1.0" encoding="UTF-8"?>
<!DOCTYPE svg PUBLIC "-//W3C//DTD SVG 1.1//EN" "http://www.w3.org/Graphics/SVG/1.1/DTD/svg11.dtd">
<svg xmlns="http://www.w3.org/2000/svg" xml:space="preserve" width="580px" height="580px" shape-rendering="geometricPrecision" text-rendering="geometricPrecision" image-rendering="optimizeQuality" fill-rule="nonzero" clip-rule="nonzero" viewBox="0 0 5800 5800" xmlns:xlink="http://www.w3.org/1999/xlink">
	<title>currency_euro icon</title>
	<desc>currency_euro icon from the IconExperience.com I-Collection. Copyright by INCORS GmbH (www.incors.com).</desc>
	<path id="curve0"  d="M2900 300c1436,0 2600,1164 2600,2600 0,1436 -1164,2600 -2600,2600 -1436,0 -2600,-1164 -2600,-2600 0,-1436 1164,-2600 2600,-2600zm335 1008c-672,0 -1221,521 -1435,1129l-566 0 -56 200 564 0c-42,178 -57,364 -43,546l-676 0 -21 73 0 127 723 0c113,573 533,1054 1138,1107 36,3 72,5 108,5 388,0 754,-179 1032,-468l-64 -228c-239,290 -584,496 -968,496 -31,0 -61,-1 -91,-4 -500,-44 -845,-438 -950,-908l1250 0 56 -200 -1337 0c-15,-183 2,-369 48,-546l1444 0 56 -200 -1434 0c199,-499 662,-929 1222,-929 31,0 62,2 92,4 261,23 490,146 661,334l62 -220c-192,-176 -434,-289 -706,-313 -36,-3 -72,-5 -109,-5z"/>
</svg>