<?xml version="1.0" encoding="UTF-8"?>
<!DOCTYPE svg PUBLIC "-//W3C//DTD SVG 1.1//EN" "http://www.w3.org/Graphics/SVG/1.1/DTD/svg11.dtd">
<svg xmlns="http://www.w3.org/2000/svg" xml:space="preserve" width="580px" height="580px" shape-rendering="geometricPrecision" text-rendering="geometricPrecision" image-rendering="optimizeQuality" fill-rule="nonzero" clip-rule="nonzero" viewBox="0 0 5800 5800" xmlns:xlink="http://www.w3.org/1999/xlink">
	<title>currency_euro icon</title>
	<desc>currency_euro icon from the IconExperience.com I-Collection. Copyright by INCORS GmbH (www.incors.com).</desc>
	<path id="curve0" d="M2900 300c1436,0 2600,1164 2600,2600 0,1436 -1164,2600 -2600,2600 -1436,0 -2600,-1164 -2600,-2600 0,-1436 1164,-2600 2600,-2600zm335 1008c37,0 73,2 109,5 272,24 514,137 706,313l-62 220c-171,-188 -400,-311 -661,-334 -30,-2 -61,-4 -92,-4 -560,0 -1023,430 -1222,929l1434 0 -56 200 -1444 0c-46,177 -63,363 -48,546l1337 0 -56 200 -1250 0c105,470 450,864 950,908 30,3 60,4 91,4 384,0 729,-206 968,-496l64 228c-278,289 -644,468 -1032,468 -36,0 -72,-2 -108,-5 -605,-53 -1025,-534 -1138,-1107l-723 0 0 -127 21 -73 676 0c-14,-182 1,-368 43,-546l-564 0 56 -200 566 0c214,-608 763,-1129 1435,-1129zm-335 -808c-1325,0 -2400,1075 -2400,2400 0,1325 1075,2400 2400,2400 1325,0 2400,-1075 2400,-2400 0,-1325 -1075,-2400 -2400,-2400z"/>
</svg>