<?xml version="1.0" encoding="UTF-8"?>
<!DOCTYPE svg PUBLIC "-//W3C//DTD SVG 1.1//EN" "http://www.w3.org/Graphics/SVG/1.1/DTD/svg11.dtd">
<svg xmlns="http://www.w3.org/2000/svg" xml:space="preserve" width="580px" height="580px" shape-rendering="geometricPrecision" text-rendering="geometricPrecision" image-rendering="optimizeQuality" fill-rule="nonzero" clip-rule="nonzero" viewBox="0 0 5800 5800" xmlns:xlink="http://www.w3.org/1999/xlink">
	<title>cut icon</title>
	<desc>cut icon from the IconExperience.com I-Collection. Copyright by INCORS GmbH (www.incors.com).</desc>
		<path id="curve28"  d="M3226 3569l-1915 -2921c-114,107 -177,223 -200,339 -32,159 11,320 104,457l1356 1983 929 619 0 654c0,331 269,600 600,600 331,0 600,-269 600,-600 0,-331 -269,-600 -600,-600 -49,0 -91,7 -139,14l-735 -545zm-1518 1931c439,-4 797,-357 797,-794l-5 -553 220 -146 -181 -120 -239 160 5 659c0,328 -268,592 -598,594 -333,0 -602,-269 -602,-600 0,-331 269,-600 600,-600 49,0 91,7 139,14l489 -365 -46 -31 -83 -121 -413 308c-28,-3 -57,-5 -86,-5 -442,0 -800,358 -800,800 0,442 358,800 803,800zm1312 -2973l1427 -2170 85 63c209,157 321,341 359,528 42,215 -14,429 -137,608l-1205 1757 -27 -20 -98 -150 1165 -1699c94,-137 137,-298 106,-456 -24,-117 -87,-233 -201,-340l-1355 2060 -119 -181zm354 904l639 474c29,-3 58,-5 87,-5 442,0 800,358 800,800 0,442 -358,800 -800,800 -442,0 -800,-358 -800,-800l0 -546 -871 -581 -1378 -2017c-123,-179 -179,-394 -136,-608 37,-187 149,-371 358,-528l85 -64 2016 3075z"/>
</svg>