<?xml version="1.0" encoding="UTF-8"?>
<!DOCTYPE svg PUBLIC "-//W3C//DTD SVG 1.1//EN" "http://www.w3.org/Graphics/SVG/1.1/DTD/svg11.dtd">
<svg xmlns="http://www.w3.org/2000/svg" xml:space="preserve" width="580px" height="580px" shape-rendering="geometricPrecision" text-rendering="geometricPrecision" image-rendering="optimizeQuality" fill-rule="nonzero" clip-rule="nonzero" viewBox="0 0 5800 5800" xmlns:xlink="http://www.w3.org/1999/xlink">
	<title>cut icon</title>
	<desc>cut icon from the IconExperience.com I-Collection. Copyright by INCORS GmbH (www.incors.com).</desc>
		<path id="curve28"  d="M3374 3431l639 474c29,-3 58,-5 87,-5 442,0 800,358 800,800 0,442 -358,800 -800,800 -442,0 -800,-358 -800,-800l0 -546 -871 -581 -1378 -2017c-123,-179 -179,-394 -136,-608 37,-187 149,-371 358,-528l85 -64 2016 3075zm-1583 474l413 -308 83 121 433 289 -220 146 5 553c0,1053 -1600,1039 -1600,-6 0,-442 358,-800 800,-800 29,0 58,2 86,5zm1229 -1378l1427 -2170 85 63c209,157 321,341 359,528 42,215 -14,429 -137,608l-1205 1757 -27 -20 -502 -766z"/>
</svg>