<?xml version="1.0" encoding="UTF-8"?>
<!DOCTYPE svg PUBLIC "-//W3C//DTD SVG 1.1//EN" "http://www.w3.org/Graphics/SVG/1.1/DTD/svg11.dtd">
<svg xmlns="http://www.w3.org/2000/svg" xml:space="preserve" width="580px" height="580px" shape-rendering="geometricPrecision" text-rendering="geometricPrecision" image-rendering="optimizeQuality" fill-rule="nonzero" clip-rule="nonzero" viewBox="0 0 5800 5800" xmlns:xlink="http://www.w3.org/1999/xlink">
	<title>dart icon</title>
	<desc>dart icon from the IconExperience.com I-Collection. Copyright by INCORS GmbH (www.incors.com).</desc>
	<path id="curve0"  d="M3197 2078l-70 -628c-20,-186 40,-359 172,-491l421 -420c155,-155 367,-212 578,-156 212,56 367,211 425,422l58 214 214 58c211,58 366,213 422,425 56,211 -1,423 -156,578l-420 421c-132,132 -305,192 -491,172l-628 -70 -1085 1479c-256,-354 -565,-663 -919,-919l1479 -1085zm-686 2172c-199,253 -479,523 -803,587 -184,37 -346,-1 -475,-84l-933 747 745 -931c-84,-124 -125,-280 -93,-460 59,-330 341,-618 598,-821 372,260 702,590 961,962z"/>
</svg>