<?xml version="1.0" encoding="UTF-8"?>
<!DOCTYPE svg PUBLIC "-//W3C//DTD SVG 1.1//EN" "http://www.w3.org/Graphics/SVG/1.1/DTD/svg11.dtd">
<svg xmlns="http://www.w3.org/2000/svg" xml:space="preserve" width="580px" height="580px" shape-rendering="geometricPrecision" text-rendering="geometricPrecision" image-rendering="optimizeQuality" fill-rule="nonzero" clip-rule="nonzero" viewBox="0 0 5800 5800" xmlns:xlink="http://www.w3.org/1999/xlink">
	<title>data_scroll icon</title>
	<desc>data_scroll icon from the IconExperience.com I-Collection. Copyright by INCORS GmbH (www.incors.com).</desc>
		<path id="curve29"  d="M5000 1800c277,0 500,223 500,500 0,277 -223,500 -500,500l0 -200c166,0 300,-134 300,-300 0,-166 -134,-300 -300,-300 -59,-59 -300,117 -300,300l0 2700c0,166 -134,300 -300,300 -162,0 -281,-146 -281,-302 0,-27 10,-51 29,-71 119,-120 187,-278 106,-439 -70,-137 -206,-188 -353,-188l-2001 0 0 -2000c0,-276 224,-500 500,-500l2600 0zm-3400 3700c-277,0 -500,-223 -500,-500 0,-277 223,-500 500,-500l2300 0c82,0 145,20 174,79 30,58 13,125 -69,208 -56,57 -87,132 -87,212 0,279 230,508 482,501l-2800 0z"/>
	<path id="curve28"  d="M400 3600l1300 0 0 700 -100 0c-184,0 -359,71 -490,200l-610 0 -200 -200 0 -600 100 -100zm100 -3300l3000 0 200 200 0 600 -100 100 -3200 0 -100 -100 0 -600 200 -200zm-100 1100l3200 0 100 100 0 100 -1300 0c-186,0 -363,73 -495,205 -132,132 -205,309 -205,495l-1300 0 -100 -100 0 -700 100 -100zm0 1100l1300 0 0 900 -1300 0 -100 -100 0 -700 100 -100z"/>
</svg>