<?xml version="1.0" encoding="UTF-8"?>
<!DOCTYPE svg PUBLIC "-//W3C//DTD SVG 1.1//EN" "http://www.w3.org/Graphics/SVG/1.1/DTD/svg11.dtd">
<svg xmlns="http://www.w3.org/2000/svg" xml:space="preserve" width="580px" height="580px" shape-rendering="geometricPrecision" text-rendering="geometricPrecision" image-rendering="optimizeQuality" fill-rule="nonzero" clip-rule="nonzero" viewBox="0 0 5800 5800" xmlns:xlink="http://www.w3.org/1999/xlink">
	<title>data_shared icon</title>
	<desc>data_shared icon from the IconExperience.com I-Collection. Copyright by INCORS GmbH (www.incors.com).</desc>
		<path id="curve29" d="M5500 5700l-500 0c-165,0 -300,-135 -300,-300l0 -81 -982 179 -1018 2c-267,0 -610,-48 -851,-169l-1015 -508c-246,-123 -346,-422 -223,-668 123,-245 422,-345 668,-222l846 423c-16,-49 -25,-102 -25,-156 0,-138 56,-263 146,-354 91,-90 216,-146 354,-146l800 0c313,0 497,98 688,201 164,87 334,178 612,196l0 -97c0,-165 135,-300 300,-300l500 0 0 200 -500 0c-55,0 -100,45 -100,100l0 1400c0,55 45,100 100,100l500 0 0 200zm-800 -583l0 -820c-326,-17 -519,-121 -706,-221 -168,-89 -330,-176 -594,-176l-800 0c-83,0 -158,34 -212,88 -54,54 -88,129 -88,212 0,83 34,158 88,212 49,49 115,81 188,87 274,5 550,1 824,1 55,0 100,45 100,100 0,55 -45,100 -100,100 -292,0 -702,27 -1000,-11 -70,-9 -100,-23 -138,-42l-1072 -536c-148,-74 -327,-14 -401,134 -74,147 -14,327 134,400l1015 508c211,105 528,147 762,147l993 0 1007 -183z"/>
	<path id="curve28" d="M1142 3200l2715 -6 142 -142 0 -517 -142 -141 -2715 6 -142 141 0 518 142 141zm2799 -3006l258 258 0 683 -159 159 159 158 0 683 -159 159 159 158 0 683 -159 159 159 158 0 282c-66,-35 -132,-71 -200,-102l0 -97 -142 -141 -2715 6 -142 141 0 142c-56,5 -111,16 -163,34 -13,4 -25,8 -37,13l0 -271 159 -159 -159 -159 0 -682 159 -159 -159 -159 0 -682 159 -159 -159 -159 0 -682 258 -259 2883 -6zm-84 200l-2715 5 -142 142 0 518 142 141 2715 -6 142 -142 0 -517 -142 -141zm0 1000l-2715 6 -142 141 0 518 142 141 2715 -6 142 -142 0 -517 -142 -141z"/>
</svg>