<?xml version="1.0" encoding="utf-8"?>
<!-- Generator: Adobe Illustrator 24.1.2, SVG Export Plug-In . SVG Version: 6.00 Build 0)  -->
<svg version="1.1" id="band_x5F_control_x5F_gi" xmlns="http://www.w3.org/2000/svg" xmlns:xlink="http://www.w3.org/1999/xlink"
	 x="0px" y="0px" viewBox="0 0 580 580" style="enable-background:new 0 0 580 580;" xml:space="preserve">
<g>
	<path d="M50,78.6h80v40h20v-40h80v40h20v-40h80v40h20v-40h80v40h20v-100H30v360h80v-20H50v-80h60v-20H50v-80h60v-20H50V78.6z
		 M50,38.6h380v20H50V38.6z"/>
	<path d="M130,138.6v360h147.8v-20H250v-80h27.8v-20H250v-80h27.8v-20H250v-80h80v26.2h20v-26.2h80v26.2h20v-26.2h80v26.2h20v-86.2
		H130z M230,478.6h-80v-80h80V478.6z M230,378.6h-80v-80h80V378.6z M230,278.6h-80v-80h80V278.6z M530,178.6H150v-20h380V178.6z"/>
	<path d="M532.8,241.9H310.3c-5.6,5.5-11.1,11-16.5,16.5v56.4l10.2,10.2l-10.2,10.2v56.4l10.2,10.2l-10.2,10.2v56.4l10.2,10.2
		l-10.2,10.2v56.4l16.5,16.5h222.5l16.5-16.5v-56.4l-10.2-10.2l10.2-10.2v-56.4l-10.2-10.2l10.2-10.2v-56.4l-10.2-10.2l10.2-10.2
		v-56.4C543.9,252.9,538.4,247.4,532.8,241.9z M524.8,534.6l-6.4,7.2H324.7l-6.4-7.2v-36l6.4-8.4h193.7l6.4,8.4V534.6z M524.8,460
		l-9.7,9.7H328l-9.7-9.7v-38l8.1-10h190.4l8.1,10V460z M524.8,383.3l-8.1,8.1H326.4l-8.1-8.1v-38l5.2-7.2h196.1l5.2,7.2V383.3z
		 M524.8,308.6l-5.2,8.9H323.5l-5.2-8.9v-40c0.7-0.7,4.5-6.4,5.2-7.1h196.1c0.7,0.7,4.5,6.4,5.2,7.1V308.6z"/>
</g>
</svg>
