<?xml version="1.0" encoding="UTF-8"?>
<!DOCTYPE svg PUBLIC "-//W3C//DTD SVG 1.1//EN" "http://www.w3.org/Graphics/SVG/1.1/DTD/svg11.dtd">
<svg xmlns="http://www.w3.org/2000/svg" xml:space="preserve" width="580px" height="580px" shape-rendering="geometricPrecision" text-rendering="geometricPrecision" image-rendering="optimizeQuality" fill-rule="nonzero" clip-rule="nonzero" viewBox="0 0 5800 5800" xmlns:xlink="http://www.w3.org/1999/xlink">
	<title>data_copy icon</title>
	<desc>data_copy icon from the IconExperience.com I-Collection. Copyright by INCORS GmbH (www.incors.com).</desc>
		<path id="curve29" d="M841 3300l859 0 0 200 -859 0 -141 141 0 518 141 141 859 0 0 200 -941 0 -259 -259 0 -682 159 -159 -159 -159 0 -682 159 -159 -159 -159 0 -682 159 -159 -159 -159 0 -682c86,-87 172,-173 259,-259l2882 0c87,86 173,172 259,259l0 541 -200 0 0 -459 -141 -141 -2718 0 -141 141 0 518 141 141 859 0 0 200 -859 0 -141 141 0 518 141 141 859 0 0 200 -859 0 -141 141 0 518 141 141z"/>
	<path id="curve28" d="M5042 1300l258 259 0 682 -159 159 159 159 0 682 -159 159 159 159 0 682 -159 159 159 159 0 682 -258 259 -2883 6 -258 -258 0 -683 159 -159 -159 -158 0 -683 159 -159 -159 -158 0 -683 159 -159 -159 -158 0 -683 258 -258 2883 -7zm-84 3200l-2715 6 -142 142 0 517 142 141 2715 -6 142 -141 0 -518 -142 -141zm0 -1000l-2715 6 -142 142 0 517 142 141 2715 -6 142 -141 0 -518 -142 -141zm0 -1000l-2715 6 -142 142 0 517 142 141 2715 -6 142 -141 0 -518 -142 -141zm0 -1000l-2715 6 -142 142 0 517 142 141 2715 -6 142 -141 0 -518 -142 -141z"/>
</svg>