<?xml version="1.0" encoding="UTF-8"?>
<!DOCTYPE svg PUBLIC "-//W3C//DTD SVG 1.1//EN" "http://www.w3.org/Graphics/SVG/1.1/DTD/svg11.dtd">
<svg xmlns="http://www.w3.org/2000/svg" xml:space="preserve" width="580px" height="580px" shape-rendering="geometricPrecision" text-rendering="geometricPrecision" image-rendering="optimizeQuality" fill-rule="nonzero" clip-rule="nonzero" viewBox="0 0 5800 5800" xmlns:xlink="http://www.w3.org/1999/xlink">
	<title>data_scroll icon</title>
	<desc>data_scroll icon from the IconExperience.com I-Collection. Copyright by INCORS GmbH (www.incors.com).</desc>
		<path id="curve29" d="M642 3300l1058 -2 0 199 -1058 3 -142 141 0 518 142 141 958 0c-190,0 -362,76 -488,198l-554 2 -258 -259 0 -682 159 -159 -159 -159 0 -682 159 -159 -159 -159 0 -682 159 -159 -159 -159 0 -682 258 -259 2883 -6c86,86 172,172 258,258l0 683 -159 159 159 158 0 48 -235 0 -107 -106 -2715 6 -142 141 0 518 142 141 1058 -2 0 2 0 197 -1058 3 -142 141 0 518 142 141zm2715 -2806l-2715 6 -142 141 0 518 142 141 2715 -6 142 -142 0 -517 -142 -141z"/>
	<path id="curve28" d="M4200 5500l-2600 0c-276,0 -500,-224 -500,-500 0,-276 224,-500 500,-500l2300 0c96,0 156,27 173,102 12,54 -14,114 -86,187 -28,27 -50,60 -65,97 -14,34 -22,73 -22,114 0,166 134,300 300,300 166,0 300,-134 300,-300l0 -2700c0,-113 37,-216 100,-300l-2200 0c-166,0 -300,134 -300,300l0 2000 -200 0 0 -2000c0,-276 224,-500 500,-500l2600 0c276,0 500,224 500,500 0,276 -224,500 -500,500l0 -200c166,0 300,-134 300,-300 0,-166 -134,-300 -300,-300 -166,1 -300,133 -300,300l0 2700c0,276 -224,500 -500,500zm-2600 -200l2200 0c-63,-84 -100,-187 -100,-300 0,-67 13,-131 38,-190 16,-39 37,-76 62,-110l-2200 0c-166,0 -300,134 -300,300 0,166 134,300 300,300z"/>
</svg>