<?xml version="1.0" encoding="utf-8"?>
<!-- Generator: Adobe Illustrator 24.1.2, SVG Export Plug-In . SVG Version: 6.00 Build 0)  -->
<svg version="1.1" id="band_x5F_control_x5F_gi" xmlns="http://www.w3.org/2000/svg" xmlns:xlink="http://www.w3.org/1999/xlink"
	 x="0px" y="0px" viewBox="0 0 580 580" style="enable-background:new 0 0 580 580;" xml:space="preserve">
<g>
	<path d="M250.3,178.6h80v46.2h20v-46.2h80v46.2h20V18.6h-420v360h247.8v-20h-27.8v-80h27.8v-20h-27.8V178.6z M330.3,158.6h-80v-80
		h80V158.6z M430.3,158.6h-80v-80h80V158.6z M130.3,358.6h-80v-80h80V358.6z M130.3,258.6h-80v-80h80V258.6z M130.3,158.6h-80v-80
		h80V158.6z M230.3,358.6h-80v-80h80V358.6z M230.3,258.6h-80v-80h80V258.6z M230.3,158.6h-80v-80h80V158.6z M50.3,58.6v-20h380v20
		H50.3z"/>
	<path d="M549.7,258.4c-5.5-5.6-11-11.1-16.5-16.5H310.6c-5.6,5.5-11.1,11-16.5,16.5v56.4l10.2,10.2l-10.2,10.2v56.4l10.2,10.2
		l-10.2,10.2v56.4l10.2,10.2l-10.2,10.2v56.4l16.5,16.5h222.5l16.5-16.5v-56.4l-10.2-10.2l10.2-10.2v-56.4l-10.2-10.2l10.2-10.2
		v-56.4l-10.2-10.2l10.2-10.2V258.4z M525.1,534.6l-6.4,7.2H325.1l-6.4-7.2v-36l6.4-8.4h193.7l6.4,8.4V534.6z M525.1,460l-9.7,9.7
		H328.3l-9.7-9.7v-38l8.1-10h190.4l8.1,10V460z M525.1,383.3l-8.1,8.1H326.7l-8.1-8.1v-38l5.2-7.2H520l5.2,7.2V383.3z M525.1,308.6
		l-5.2,8.9H323.8l-5.2-8.9v-40c0.7-0.7,4.5-6.4,5.2-7.1H520c0.7,0.7,4.5,6.4,5.2,7.1V308.6z"/>
</g>
</svg>
