<?xml version="1.0" encoding="UTF-8"?>
<!DOCTYPE svg PUBLIC "-//W3C//DTD SVG 1.1//EN" "http://www.w3.org/Graphics/SVG/1.1/DTD/svg11.dtd">
<svg xmlns="http://www.w3.org/2000/svg" xml:space="preserve" width="580px" height="580px" shape-rendering="geometricPrecision" text-rendering="geometricPrecision" image-rendering="optimizeQuality" fill-rule="nonzero" clip-rule="nonzero" viewBox="0 0 5800 5800" xmlns:xlink="http://www.w3.org/1999/xlink">
	<title>data_cloud icon</title>
	<desc>data_cloud icon from the IconExperience.com I-Collection. Copyright by INCORS GmbH (www.incors.com).</desc>
		<path id="curve29" d="M1150 1900c111,-127 255,-224 424,-290 -1,-20 -1,-41 -1,-61 0,-649 420,-1185 1083,-1244 40,-3 79,-5 120,-5 435,0 734,205 986,544 326,-103 685,-53 947,173 284,244 363,612 295,970 340,171 496,436 496,818 0,478 -369,895 -857,895l-1336 0 0 -200 1336 0c378,0 657,-327 657,-695 0,-339 -142,-537 -450,-670l-78 -34 20 -82c77,-306 36,-636 -213,-851 -228,-196 -545,-219 -819,-112l-73 28 -45 -64c-219,-315 -466,-520 -866,-520 -35,0 -69,1 -102,4 -561,50 -901,499 -901,1045 0,68 7,133 12,200l-76 25c-97,31 -184,73 -261,126l-298 0z"/>
	<path id="curve28" d="M603 4500l2194 0 103 -101 0 -398 -103 -101 -2194 0 -103 101 0 398 103 101zm2275 -2400l222 219 0 562 -117 115 124 123 0 562 -124 123 117 115 0 562 -120 119 120 119 0 562 -222 219 -2356 0 -222 -219 0 -562 120 -119 -120 -119 0 -562 124 -123 -117 -115 0 -562 117 -115 -124 -123 0 -562 222 -219 2356 0zm-81 200l-2194 0 -103 101 0 398 103 101 2194 0 103 -101 0 -398 -103 -101zm7 800l-2194 0 -103 101 0 398 103 101 2194 0 103 -101 0 -398 -103 -101zm-7 1600l-2194 0 -103 101 0 398 103 101 2194 0 103 -101 0 -398 -103 -101z"/>
</svg>