<?xml version="1.0" encoding="UTF-8"?>
<!DOCTYPE svg PUBLIC "-//W3C//DTD SVG 1.1//EN" "http://www.w3.org/Graphics/SVG/1.1/DTD/svg11.dtd">
<svg xmlns="http://www.w3.org/2000/svg" xml:space="preserve" width="580px" height="580px" shape-rendering="geometricPrecision" text-rendering="geometricPrecision" image-rendering="optimizeQuality" fill-rule="nonzero" clip-rule="nonzero" viewBox="0 0 5800 5800" xmlns:xlink="http://www.w3.org/1999/xlink">
	<title>data_cloud icon</title>
	<desc>data_cloud icon from the IconExperience.com I-Collection. Copyright by INCORS GmbH (www.incors.com).</desc>
		<path id="curve28"  d="M3300 3660l0 -643 -117 -117 117 -117 0 -566 -317 -317 -1833 0c111,-127 255,-224 424,-290 -1,-20 -1,-41 -1,-61 0,-331 108,-627 296,-848 230,-269 557,-401 907,-401 435,0 734,205 986,544 326,-103 685,-53 947,173 284,244 363,612 295,970 340,171 496,436 496,818 0,478 -369,895 -857,895l-1336 0 -7 -40zm-3000 -1360l200 -200 2400 0 200 200 0 400 -100 100 -2600 0 -100 -100 0 -400zm0 2600l100 -100 2600 0 100 100 0 400 -200 200 -2400 0 -200 -200 0 -400zm0 -900l100 -100 2600 0 100 100 0 500 -100 100 -2600 0 -100 -100 0 -500zm0 -900l100 -100 2600 0 100 100 0 500 -100 100 -2600 0 -100 -100 0 -500z"/>
</svg>