<?xml version="1.0" encoding="UTF-8"?>
<!DOCTYPE svg PUBLIC "-//W3C//DTD SVG 1.1//EN" "http://www.w3.org/Graphics/SVG/1.1/DTD/svg11.dtd">
<svg xmlns="http://www.w3.org/2000/svg" xml:space="preserve" width="580px" height="580px" shape-rendering="geometricPrecision" text-rendering="geometricPrecision" image-rendering="optimizeQuality" fill-rule="nonzero" clip-rule="nonzero" viewBox="0 0 5800 5800" xmlns:xlink="http://www.w3.org/1999/xlink">
	<title>data icon</title>
	<desc>data icon from the IconExperience.com I-Collection. Copyright by INCORS GmbH (www.incors.com).</desc>
		<path id="curve28"  d="M1241 4100l3318 0 141 -141 0 -718 -141 -141 -3318 0 -141 141 0 718 141 141zm3400 -3600c87,86 173,172 259,259l0 882 -159 159 159 159 0 882 -159 159 159 159 0 882 -159 159 159 159 0 882 -259 259 -3482 0 -259 -259 0 -882 159 -159 -159 -159 0 -882 159 -159 -159 -159 0 -882 159 -159 -159 -159 0 -882c86,-87 172,-173 259,-259l3482 0zm-82 200l-3318 0 -141 141 0 718 141 141 3318 0 141 -141 0 -718 -141 -141zm0 1200l-3318 0 -141 141 0 718 141 141 3318 0 141 -141 0 -718 -141 -141zm0 2400l-3318 0 -141 141 0 718 141 141 3318 0 141 -141 0 -718 -141 -141z"/>
</svg>