<?xml version="1.0" encoding="UTF-8"?>
<!DOCTYPE svg PUBLIC "-//W3C//DTD SVG 1.1//EN" "http://www.w3.org/Graphics/SVG/1.1/DTD/svg11.dtd">
<svg xmlns="http://www.w3.org/2000/svg" xml:space="preserve" width="580px" height="580px" shape-rendering="geometricPrecision" text-rendering="geometricPrecision" image-rendering="optimizeQuality" fill-rule="nonzero" clip-rule="nonzero" viewBox="0 0 5800 5800" xmlns:xlink="http://www.w3.org/1999/xlink">
	<title>data_floppy_disk icon</title>
	<desc>data_floppy_disk icon from the IconExperience.com I-Collection. Copyright by INCORS GmbH (www.incors.com).</desc>
		<path id="curve29"  d="M5500 2300l0 3200 -2941 0 -259 -258 0 -2942 3200 0zm-2400 400l1600 0 0 200 -1600 0 0 -200zm200 2400l0 -600 400 0 0 200 -200 0 0 400 -200 0zm-400 -2600l0 900c0,55 45,100 100,100l1800 0c55,0 100,-45 100,-100l0 -900 -2000 0zm1600 1800l-1400 0 0 1000 1400 0 0 -1000z"/>
	<path id="curve28"  d="M300 500l200 -200 2400 0 200 200 0 400 -100 100 -2600 0 -100 -100 0 -400zm0 2600l100 -100 1700 0 0 700 -1600 0 -200 -200 0 -400zm0 -900l100 -100 1700 0 0 700 -1700 0 -100 -100 0 -500zm0 -900l100 -100 2600 0 100 100 0 500 -100 100 -2600 0 -100 -100 0 -500z"/>
</svg>