<?xml version="1.0" encoding="UTF-8"?>
<!DOCTYPE svg PUBLIC "-//W3C//DTD SVG 1.1//EN" "http://www.w3.org/Graphics/SVG/1.1/DTD/svg11.dtd">
<svg xmlns="http://www.w3.org/2000/svg" xml:space="preserve" width="580px" height="580px" shape-rendering="geometricPrecision" text-rendering="geometricPrecision" image-rendering="optimizeQuality" fill-rule="nonzero" clip-rule="nonzero" viewBox="0 0 5800 5800" xmlns:xlink="http://www.w3.org/1999/xlink">
	<title>data icon</title>
	<desc>data icon from the IconExperience.com I-Collection. Copyright by INCORS GmbH (www.incors.com).</desc>
		<path id="curve31"  d="M1100,500 4700,500 4900,700 4900,1500 4800,1600 1000,1600 900,1500 900,700z"/>
	<path id="curve30"  d="M1000,1800 4800,1800 4900,1900 4900,2800 4800,2900 1000,2900 900,2800 900,1900z"/>
	<path id="curve29"  d="M1000,4400 4800,4400 4900,4500 4900,5300 4700,5500 1100,5500 900,5300 900,4500z"/>
	<path id="curve28"  d="M1000,3100 4800,3100 4900,3200 4900,4100 4800,4200 1000,4200 900,4100 900,3200z"/>
</svg>