<?xml version="1.0" encoding="UTF-8"?>
<!DOCTYPE svg PUBLIC "-//W3C//DTD SVG 1.1//EN" "http://www.w3.org/Graphics/SVG/1.1/DTD/svg11.dtd">
<svg xmlns="http://www.w3.org/2000/svg" xml:space="preserve" width="580px" height="580px" shape-rendering="geometricPrecision" text-rendering="geometricPrecision" image-rendering="optimizeQuality" fill-rule="nonzero" clip-rule="nonzero" viewBox="0 0 5800 5800" xmlns:xlink="http://www.w3.org/1999/xlink">
	<title>data_network icon</title>
	<desc>data_network icon from the IconExperience.com I-Collection. Copyright by INCORS GmbH (www.incors.com).</desc>
		<path id="curve29"  d="M2900,5200 3000,5200 3000,5300 4000,5300 4000,5500 3000,5500 3000,5600 2900,5600 2700,5600 2600,5600 2600,5500 1600,5500 1600,5300 2600,5300 2600,5200 2700,5200 2700,4400 2900,4400z"/>
	<path id="curve28"  d="M1200 3600l3200 0 100 100 0 600 -200 200 -3000 0 -200 -200 0 -600 100 -100zm100 -3300l3000 0 200 200 0 600 -100 100 -3200 0 -100 -100 0 -600 200 -200zm-100 1100l3200 0 100 100 0 700 -100 100 -3200 0 -100 -100 0 -700 100 -100zm0 1100l3200 0 100 100 0 700 -100 100 -3200 0 -100 -100 0 -700 100 -100z"/>
</svg>