<?xml version="1.0" encoding="UTF-8"?>
<!DOCTYPE svg PUBLIC "-//W3C//DTD SVG 1.1//EN" "http://www.w3.org/Graphics/SVG/1.1/DTD/svg11.dtd">
<svg xmlns="http://www.w3.org/2000/svg" xml:space="preserve" width="580px" height="580px" shape-rendering="geometricPrecision" text-rendering="geometricPrecision" image-rendering="optimizeQuality" fill-rule="nonzero" clip-rule="nonzero" viewBox="0 0 5800 5800" xmlns:xlink="http://www.w3.org/1999/xlink">
	<title>data_table icon</title>
	<desc>data_table icon from the IconExperience.com I-Collection. Copyright by INCORS GmbH (www.incors.com).</desc>
	<path id="curve0" d="M2878 2100l222 219 0 562 -117 115 117 115 0 578 -117 115 117 115 0 562 -120 119 120 118 0 563c-74,73 -148,146 -222,219l-2356 0c-74,-73 -148,-146 -222,-219l0 -562 120 -119 -120 -119 0 -562 124 -123 -117 -115 0 -562 117 -115 -124 -123 0 -562 222 -219 2356 0zm2622 -1800l0 3600 -2200 0c0,-667 0,-1333 0,-2000 -667,0 -1333,0 -2000,0l0 -1600 4200 0zm-2000 1400l800 0 0 -800 -800 0 0 800zm1000 0l800 0 0 -800 -800 0 0 800zm800 200l-800 0 0 801 800 -1 0 -800zm-1000 0l-800 0 0 802 800 -1 0 -801zm1000 1000l-800 0 0 800 800 0 0 -800zm-1000 0l-800 1 0 799 800 0 0 -800zm-2000 -1200l0 -800 -800 0 0 800 800 0zm200 -800l0 800 800 0 0 -800 -800 0zm-1000 -200l3800 0 0 -200 -3800 0 0 200zm1297 3200l-2194 0 -103 101 0 398 103 101 2194 0 103 -101 0 -398 -103 -101zm0 800l-2194 0 -103 101 0 398 103 101 2194 0 103 -101 0 -398 -103 -101zm7 -1600l-2194 0 -103 101 0 398 103 101 2194 0 103 -101 0 -398 -103 -101zm-7 -800l-2194 0 -103 101 0 398 103 101 2194 0 103 -101 0 -398 -103 -101z"/>
</svg>