<?xml version="1.0" encoding="UTF-8"?>
<!DOCTYPE svg PUBLIC "-//W3C//DTD SVG 1.1//EN" "http://www.w3.org/Graphics/SVG/1.1/DTD/svg11.dtd">
<svg xmlns="http://www.w3.org/2000/svg" xml:space="preserve" width="580px" height="580px" shape-rendering="geometricPrecision" text-rendering="geometricPrecision" image-rendering="optimizeQuality" fill-rule="nonzero" clip-rule="nonzero" viewBox="0 0 5800 5800" xmlns:xlink="http://www.w3.org/1999/xlink">
	<title>data_table icon</title>
	<desc>data_table icon from the IconExperience.com I-Collection. Copyright by INCORS GmbH (www.incors.com).</desc>
	<path id="curve0"  d="M300 2300l200 -200 2400 0 200 200 0 400 -100 100 -2600 0 -100 -100 0 -400zm0 2600l100 -100 2600 0 100 100 0 400 -200 200 -2400 0 -200 -200 0 -400zm0 -900l100 -100 2600 0 100 100 0 500 -100 100 -2600 0 -100 -100 0 -500zm0 -900l100 -100 2600 0 100 100 0 500 -100 100 -2600 0 -100 -100 0 -500zm5200 -2800l0 3600 -2200 0c0,-667 0,-1333 0,-2000 -667,0 -1333,0 -2000,0l0 -1600 4200 0zm-2000 1400l800 0 0 -800 -800 0 0 800zm1000 0l800 0 0 -800 -800 0 0 800zm800 200l-800 0 0 801 800 -1 0 -800zm-1000 0l-800 0 0 802 800 -1 0 -801zm1000 1000l-800 0 0 800 800 0 0 -800zm-1000 0l-800 1 0 799 800 0 0 -800zm-2000 -1200l0 -800 -800 0 0 800 800 0zm200 -800l0 800 800 0 0 -800 -800 0z"/>
</svg>