<?xml version="1.0" encoding="UTF-8"?>
<!DOCTYPE svg PUBLIC "-//W3C//DTD SVG 1.1//EN" "http://www.w3.org/Graphics/SVG/1.1/DTD/svg11.dtd">
<svg xmlns="http://www.w3.org/2000/svg" xml:space="preserve" width="580px" height="580px" shape-rendering="geometricPrecision" text-rendering="geometricPrecision" image-rendering="optimizeQuality" fill-rule="nonzero" clip-rule="nonzero" viewBox="0 0 5800 5800" xmlns:xlink="http://www.w3.org/1999/xlink">
	<title>data_copy icon</title>
	<desc>data_copy icon from the IconExperience.com I-Collection. Copyright by INCORS GmbH (www.incors.com).</desc>
		<path id="curve29"  d="M2000 4600l3200 0 100 100 0 600 -200 200 -3000 0 -200 -200 0 -600 100 -100zm100 -3300l3000 0 200 200 0 600 -100 100 -3200 0 -100 -100 0 -600 200 -200zm-100 1100l3200 0 100 100 0 700 -100 100 -3200 0 -100 -100 0 -700 100 -100zm0 1100l3200 0 100 100 0 700 -100 100 -3200 0 -100 -100 0 -700 100 -100z"/>
	<path id="curve28"  d="M600 3600l1100 0 0 783 117 117 -1117 0 -200 -200 0 -600 100 -100zm100 -3300l3000 0 200 200 0 600 -1883 0 -100 100 -1317 0 -100 -100 0 -600 200 -200zm-100 1100l1117 0 -17 17 0 766 117 117 -1217 0 -100 -100 0 -700 100 -100zm0 1100l1100 0 0 783 117 117 -1217 0 -100 -100 0 -700 100 -100z"/>
</svg>