<?xml version="1.0" encoding="UTF-8"?>
<!DOCTYPE svg PUBLIC "-//W3C//DTD SVG 1.1//EN" "http://www.w3.org/Graphics/SVG/1.1/DTD/svg11.dtd">
<svg xmlns="http://www.w3.org/2000/svg" xml:space="preserve" width="580px" height="580px" shape-rendering="geometricPrecision" text-rendering="geometricPrecision" image-rendering="optimizeQuality" fill-rule="nonzero" clip-rule="nonzero" viewBox="0 0 5800 5800" xmlns:xlink="http://www.w3.org/1999/xlink">
	<title>data_network icon</title>
	<desc>data_network icon from the IconExperience.com I-Collection. Copyright by INCORS GmbH (www.incors.com).</desc>
		<path id="curve28" d="M2900 5200l100 0 0 100 1000 0 0 200 -1000 0 0 100c-133,0 -267,0 -400,0l0 -100 -1000 0 0 -200 1000 0 0 -100 100 0 0 -700 -1341 0 -259 -259 0 -682 159 -159 -159 -159 0 -682 159 -159 -159 -159 0 -682 159 -159 -159 -159 0 -682 259 -259 2882 0 259 259 0 682 -159 159 159 159 0 682 -159 159 130 129 29 30 0 41 0 641 -159 159 159 159 0 682 -259 259 -1341 0 0 700zm-1459 -3900l2718 0 141 -141 0 -518 -141 -141 -2718 0 -141 141 0 518 141 141zm0 1000l2718 0 141 -141 0 -518 -141 -141 -2718 0 -141 141 0 518 141 141zm0 1000l2718 0 141 -141 0 -518 -141 -141 -2718 0 -141 141 0 518 141 141zm2718 200l-2718 0 -141 141 0 518 141 141 2718 0 141 -141 0 -518 -141 -141z"/>
</svg>