<?xml version="1.0" encoding="UTF-8"?>
<svg enable-background="new 0 0 580 580" version="1.1" viewBox="0 0 580 580" xml:space="preserve" xmlns="http://www.w3.org/2000/svg">
<style type="text/css">
	.st43{fill:#CCCCCC;}
</style>
<g id="date_x5F_range_x5F_field_x5F_gi">
	<path class="st43" d="m460.9 119.5c53.1 53.1 78.4 127.8 68.6 202.2s-53.6 140-118.6 177.5l-120.7-209 170.7-170.7z"/>
	<path id="curve28_00000008128163003900927460000006895424656507340672_" d="m290 270c1.8 0 3.5 0.2 5.2 0.7l87.7-87.8 14.2 14.2-87.8 87.7c0.5 1.7 0.7 3.4 0.7 5.2 0 11-9 20-20 20s-20-9-20-20c0-1.8 0.2-3.5 0.7-5.2l-137.8-137.7 14.2-14.2 137.7 137.8c1.7-0.5 3.4-0.7 5.2-0.7zm0-240c143.6 0 260 116.4 260 260s-116.4 260-260 260-260-116.4-260-260 116.4-260 260-260zm0 20c-132.6 0-240 107.4-240 240s107.4 240 240 240 240-107.4 240-240-107.4-240-240-240z"/>
</g>
</svg>
