<?xml version="1.0" encoding="UTF-8" standalone="no"?>
<svg
   xml:space="preserve"
   width="580px"
   height="580px"
   shape-rendering="geometricPrecision"
   text-rendering="geometricPrecision"
   image-rendering="optimizeQuality"
   fill-rule="nonzero"
   clip-rule="nonzero"
   viewBox="0 0 5800 5800"
   version="1.1"
   id="svg7"
   sodipodi:docname="date_range_field_gi.svg"
   inkscape:version="1.1.2 (0a00cf5339, 2022-02-04, custom)"
   xmlns:inkscape="http://www.inkscape.org/namespaces/inkscape"
   xmlns:sodipodi="http://sodipodi.sourceforge.net/DTD/sodipodi-0.dtd"
   xmlns="http://www.w3.org/2000/svg"
   xmlns:svg="http://www.w3.org/2000/svg"
   xmlns:rdf="http://www.w3.org/1999/02/22-rdf-syntax-ns#"
   xmlns:cc="http://creativecommons.org/ns#"
   xmlns:dc="http://purl.org/dc/elements/1.1/"><defs
   id="defs11" /><sodipodi:namedview
   id="namedview9"
   pagecolor="#ffffff"
   bordercolor="#666666"
   borderopacity="1.0"
   inkscape:pageshadow="2"
   inkscape:pageopacity="0.0"
   inkscape:pagecheckerboard="0"
   showgrid="false"
   inkscape:snap-bbox="true"
   inkscape:snap-bbox-edge-midpoints="false"
   inkscape:snap-bbox-midpoints="true"
   inkscape:snap-others="false"
   inkscape:snap-nodes="false"
   inkscape:bbox-paths="false"
   inkscape:bbox-nodes="false"
   inkscape:zoom="1.5051724"
   inkscape:cx="98.659795"
   inkscape:cy="277.04468"
   inkscape:window-width="2560"
   inkscape:window-height="1577"
   inkscape:window-x="-8"
   inkscape:window-y="-8"
   inkscape:window-maximized="1"
   inkscape:current-layer="svg7" />
	<title
   id="title2">clock icon</title>
	<desc
   id="desc4">clock icon from the IconExperience.com I-Collection. Copyright by INCORS GmbH (www.incors.com).</desc>
		<path
   style="fill:#cccccc;stroke-width:20;stroke-linejoin:round"
   id="path852"
   sodipodi:type="arc"
   sodipodi:cx="2902.291"
   sodipodi:cy="2902.2681"
   sodipodi:rx="2413.9749"
   sodipodi:ry="2413.9749"
   sodipodi:start="5.4977871"
   sodipodi:end="1.0471976"
   sodipodi:arc-type="slice"
   d="M 4609.2289,1195.33 A 2413.9749,2413.9749 0 0 1 5295.614,3217.355 2413.9749,2413.9749 0 0 1 4109.2783,4992.8317 L 2902.291,2902.2681 Z" /><path
   id="curve28"
   
   d="M2900 2700c18,0 35,2 52,7l877 -878 142 142 -878 877c5,17 7,34 7,52 0,110 -90,200 -200,200 -110,0 -200,-90 -200,-200 0,-18 2,-35 7,-52l-1378 -1377 142 -142 1377 1378c17,-5 34,-7 52,-7zm0 -2400c1436,0 2600,1164 2600,2600 0,1436 -1164,2600 -2600,2600 -1436,0 -2600,-1164 -2600,-2600 0,-1436 1164,-2600 2600,-2600zm0 200c-1326,0 -2400,1074 -2400,2400 0,1326 1074,2400 2400,2400 1326,0 2400,-1074 2400,-2400 0,-1326 -1074,-2400 -2400,-2400z" />
<metadata
   id="metadata828"><rdf:RDF><cc:Work
       rdf:about=""><dc:title>clock icon</dc:title></cc:Work></rdf:RDF></metadata></svg>
