<?xml version="1.0" encoding="utf-8"?>
<!-- Generator: Adobe Illustrator 19.2.1, SVG Export Plug-In . SVG Version: 6.00 Build 0)  -->
<svg version="1.1" id="date_x5F_time_x5F_field_x5F_gi"
	 xmlns="http://www.w3.org/2000/svg" xmlns:xlink="http://www.w3.org/1999/xlink" x="0px" y="0px" width="580px" height="580px"
	 viewBox="0 0 580 580" style="enable-background:new 0 0 580 580;" xml:space="preserve">
<g>
	<polygon points="130,490 130,350 90,350 90,370 110,370 110,490 	"/>
	<path d="M193.9,452.6c2.4-3.3,6-5.8,10.3-7.1l57.3-17.2c8.5-2.6,15.6-7.7,20.7-14.4c5-6.7,7.8-15,7.8-23.9c0-11-4.5-21-11.7-28.3
		C271,354.5,261,350,250,350h-40c-22,0-40,18-40,40h20c0-11,9-20,20-20h40c5.5,0,10.5,2.2,14.1,5.9c3.7,3.6,5.9,8.6,5.9,14.1
		c0,4.6-1.4,8.7-3.9,12c-2.4,3.3-6,5.9-10.3,7.2l-57.3,17.1c-8.5,2.6-15.6,7.7-20.6,14.4c-5.1,6.8-7.9,15-7.9,23.9V490h120v-20H190
		v-5.4C190,460.1,191.4,455.9,193.9,452.6z"/>
	<path d="M330,530H50V310h205.9c-5.6-6.3-10.8-13-15.5-20H50v-70c0-5.5,4.5-10,10-10h30v12.7c-6.2,3.6-10,10.1-10,17.3
		c0,11,9,20,20,20s20-9,20-20c0-7.2-3.8-13.8-10-17.3V210h40v12.7c-6.2,3.6-10,10.1-10,17.3c0,11,9,20,20,20s20-9,20-20
		c0-7.2-3.8-13.8-10-17.3V210h40v12.7c-6.2,3.5-10,10.1-10,17.3c0,11,9,20,20,20c1.4,0,2.7-0.1,4-0.4c-8.9-21.4-14-44.9-14-69.6h-40
		v-20c0-5.5-4.5-10-10-10s-10,4.5-10,10v20h-40v-20c0-5.5-4.5-10-10-10s-10,4.5-10,10v20H60c-16.5,0-30,13.5-30,30
		c0,110,0,220,0,330h320V365.5c-6.8-1.5-13.5-3.5-20-5.8V530z"/>
	<path d="M437.9,128.4l-42.4,42.3c-1.7-0.4-3.5-0.7-5.4-0.7c-1.7,0-3.3,0.2-4.9,0.6l-69.5-69.5l-14.2,14.2l69.3,69.3
		c-0.4,1.7-0.7,3.5-0.7,5.4c0,11,9,20,20,20s20-9,20-20c0-1.7-0.2-3.3-0.6-4.9l42.5-42.6L437.9,128.4z"/>
	<path d="M390.1,30c-88.4,0-160,71.6-160,160s71.6,160,160,160s160-71.6,160-160S478.5,30,390.1,30z M390.1,330
		c-77.3,0-140-62.7-140-140s62.7-140,140-140s140,62.7,140,140S467.4,330,390.1,330z"/>
</g>
</svg>
