<?xml version="1.0" encoding="utf-8"?>
<!-- Generator: Adobe Illustrator 19.2.1, SVG Export Plug-In . SVG Version: 6.00 Build 0)  -->
<svg version="1.1" id="date_x5F_time_x5F_picker" xmlns="http://www.w3.org/2000/svg" xmlns:xlink="http://www.w3.org/1999/xlink"
	 x="0px" y="0px" width="580px" height="580px" viewBox="0 0 580 580" style="enable-background:new 0 0 580 580;"
	 xml:space="preserve">
<title>address_book2 icon</title>
<desc>address_book2 icon from the IconExperience.com I-Collection. Copyright by INCORS GmbH (www.incors.com).</desc>
<title>address_book2 icon</title>
<desc>address_book2 icon from the IconExperience.com I-Collection. Copyright by INCORS GmbH (www.incors.com).</desc>
<title>address_book2 icon</title>
<desc>address_book2 icon from the IconExperience.com I-Collection. Copyright by INCORS GmbH (www.incors.com).</desc>
<g>
	<rect x="296" y="246" width="53" height="53"/>
	<rect x="296" y="333" width="53" height="54"/>
	<rect x="296" y="420" width="53" height="54"/>
	<rect x="372" y="333" width="129" height="141"/>
	<rect x="448" y="246" width="53" height="53"/>
	<rect x="372" y="246" width="53" height="53"/>
	<rect x="220" y="246" width="53" height="53"/>
	<rect x="144" y="420" width="54" height="54"/>
	<rect x="144" y="333" width="54" height="54"/>
	<rect x="144" y="246" width="54" height="53"/>
	<rect x="220" y="333" width="53" height="54"/>
	<rect x="220" y="420" width="53" height="54"/>
	<path d="M37,50v160h66v320h440V50H37z M58,190V70h314v120H58z M523,510H123V210h400V510z M523,190H391V70h132V190z"/>
	<polygon points="506.9,109 406.9,109 456.9,169 	"/>
</g>
</svg>
