<?xml version="1.0" encoding="UTF-8"?>
<!DOCTYPE svg PUBLIC "-//W3C//DTD SVG 1.1//EN" "http://www.w3.org/Graphics/SVG/1.1/DTD/svg11.dtd">
<svg xmlns="http://www.w3.org/2000/svg" xml:space="preserve" width="580px" height="580px" shape-rendering="geometricPrecision" text-rendering="geometricPrecision" image-rendering="optimizeQuality" fill-rule="nonzero" clip-rule="nonzero" viewBox="0 0 5800 5800" xmlns:xlink="http://www.w3.org/1999/xlink">
	<title>debug icon</title>
	<desc>debug icon from the IconExperience.com I-Collection. Copyright by INCORS GmbH (www.incors.com).</desc>
		<path id="curve29"  d="M3155 1107c46,-5 95,-7 145,-7 509,0 963,273 1082,790 -90,97 -175,191 -273,279 -120,107 -258,184 -409,238l0 -607 -228 0c-49,-258 -160,-495 -317,-693zm-1229 2928l-221 166 -158 474c-18,52 -74,81 -126,64 -52,-18 -81,-74 -64,-126l168 -502c5,-19 17,-37 35,-51l214 -160 426 0 0 -228c322,-61 609,-218 831,-441 62,-61 118,-127 169,-198l0 1935c-514,-174 -1040,-410 -1274,-933zm2818 -196l296 221c18,14 30,32 35,51l168 502c17,52 -12,108 -64,126 -52,17 -108,-12 -126,-64l-158 -474 -221 -166c-234,523 -760,759 -1274,933l0 -2293c230,-17 457,-94 678,-232 133,-83 258,-208 364,-324 9,13 17,26 26,40l251 -251 79 -472c9,-55 60,-92 114,-82 55,9 91,60 82,114l-83 498c-2,22 -11,44 -28,61l-315 314c79,166 138,345 178,525l422 84c28,6 51,22 65,45l247 329c33,44 24,107 -20,140 -44,33 -107,24 -140,-20l-229 -305 -307 -62c34,250 27,518 -40,762zm-643 -2127c-32,-55 -71,-107 -116,-154 -121,-125 -292,-216 -513,-246 -13,28 -20,59 -20,90 0,77 39,157 101,223 57,60 134,111 220,139 88,29 192,36 275,-12 20,-11 38,-24 53,-40z"/>
	<path id="curve28"  d="M300 2000l204 0c48,-694 602,-1248 1296,-1296l0 -204 200 0 0 204c694,48 1248,602 1296,1296l204 0 0 200 -204 0c-48,694 -602,1248 -1296,1296l0 204 -200 0 0 -204c-694,-48 -1247,-602 -1296,-1296l-204 0 0 -200zm404 0l604 0c42,-251 241,-450 492,-492l0 -604c-583,48 -1048,513 -1096,1096zm604 200l-604 0c48,583 513,1048 1096,1096l0 -604c-251,-42 -450,-241 -492,-492zm1184 -200l604 0c-48,-583 -513,-1048 -1096,-1096l0 604c251,42 450,241 492,492zm604 200l-604 0c-42,251 -241,450 -492,492l0 604c583,-48 1048,-513 1096,-1096zm-1196 -500c-221,0 -400,179 -400,400 0,221 179,400 400,400 221,0 400,-179 400,-400 0,-221 -179,-400 -400,-400z"/>
</svg>