<?xml version="1.0" encoding="UTF-8"?>
<!DOCTYPE svg PUBLIC "-//W3C//DTD SVG 1.1//EN" "http://www.w3.org/Graphics/SVG/1.1/DTD/svg11.dtd">
<svg xmlns="http://www.w3.org/2000/svg" xml:space="preserve" width="580px" height="580px" shape-rendering="geometricPrecision" text-rendering="geometricPrecision" image-rendering="optimizeQuality" fill-rule="nonzero" clip-rule="nonzero" viewBox="0 0 5800 5800" xmlns:xlink="http://www.w3.org/1999/xlink">
	<title>debug icon</title>
	<desc>debug icon from the IconExperience.com I-Collection. Copyright by INCORS GmbH (www.incors.com).</desc>
		<path id="curve29"  d="M3400 2675l0 2082c328,-115 618,-248 830,-443 232,-215 374,-511 374,-954 0,-213 -41,-442 -106,-650 -53,-170 -122,-325 -199,-445 -246,235 -558,384 -899,410zm-200 2082l0 -1724c120,-167 209,-358 257,-565 235,-33 474,-141 652,-299 34,-30 66,-61 98,-92 -7,-128 -43,-253 -106,-365 -15,16 -33,29 -53,40 -39,23 -88,35 -140,35 -42,0 -88,-8 -135,-23 -86,-28 -163,-79 -220,-139 -62,-66 -101,-146 -101,-223 0,-17 2,-35 7,-53 3,-13 7,-26 13,-37 -62,-9 -123,-12 -186,-12 -39,-68 -83,-132 -131,-193 46,-5 95,-7 145,-7 366,0 642,127 827,318 175,180 268,414 280,653 20,27 41,56 61,88l251 -251 79 -472c9,-55 60,-92 114,-82 55,9 91,60 82,114l-83 498c-2,22 -11,44 -28,61l-315 314c46,96 86,200 121,310 22,70 41,142 57,215l422 84c28,6 51,22 65,45l247 329c33,44 24,107 -20,140 -44,33 -107,24 -140,-20l-229 -305 -307 -62c13,95 20,191 20,283 0,179 -21,337 -60,479l296 221c18,14 30,32 35,51l168 502c17,52 -12,108 -64,126 -52,17 -108,-12 -126,-64l-158 -474 -221 -166c-75,167 -180,307 -309,426 -266,245 -628,397 -1034,530 -21,7 -42,6 -62,0 -406,-133 -768,-285 -1034,-530 -129,-119 -234,-259 -309,-426l-221 166 -158 474c-18,52 -74,81 -126,64 -52,-18 -81,-74 -64,-126l168 -502c5,-19 17,-37 35,-51l214 -160 126 0 187 0c65,167 162,301 283,414 212,195 502,328 830,443zm729 -3251c-4,-4 -8,-7 -12,-10 -52,-42 -109,-78 -174,-107 -15,-3 -29,-5 -43,-5 -11,0 -48,1 -48,18 0,25 18,56 46,86 35,37 83,68 137,86 27,9 51,13 73,13 19,0 34,-3 43,-8 5,-3 5,-5 5,-10 0,-9 -2,-18 -6,-27 -5,-12 -12,-24 -21,-36z"/>
	<path id="curve28"  d="M300 2000l204 0c48,-694 602,-1248 1296,-1296l0 -204 200 0 0 204c694,48 1248,602 1296,1296l204 0 0 200 -204 0c-48,694 -602,1248 -1296,1296l0 204 -200 0 0 -204c-694,-48 -1247,-602 -1296,-1296l-204 0 0 -200zm404 0l604 0c42,-251 241,-450 492,-492l0 -604c-583,48 -1048,513 -1096,1096zm1296 -1096l0 604c251,42 450,241 492,492l604 0c-48,-583 -513,-1048 -1096,-1096zm1096 1296l-604 0c-42,251 -241,450 -492,492l0 604c583,-48 1048,-513 1096,-1096zm-1296 1096l0 -604c-251,-42 -450,-241 -492,-492l-604 0c48,583 513,1048 1096,1096zm100 -1596c-221,0 -400,179 -400,400 0,221 179,400 400,400 221,0 400,-179 400,-400 0,-221 -179,-400 -400,-400z"/>
</svg>