<?xml version="1.0" encoding="utf-8"?>
<!-- Generator: Adobe Illustrator 19.2.1, SVG Export Plug-In . SVG Version: 6.00 Build 0)  -->
<svg version="1.1" id="decimal_x5F_field_x5F_gi" xmlns="http://www.w3.org/2000/svg" xmlns:xlink="http://www.w3.org/1999/xlink"
	 x="0px" y="0px" width="580px" height="580px" viewBox="0 0 580 580" style="enable-background:new 0 0 580 580;"
	 xml:space="preserve">
<path id="curve0_2_" d="M61,326.8h108.2c-0.1-1.4-0.7-16.4-0.5-16.4c0-21.5,2.5-42.7,7.4-63.6H83.6l5.7-20h92.2
	C211.4,131.2,296,47,400.8,47c46.8,0,90,17.4,123.9,49.4l-6.2,22c-31-33-72.2-51.4-117.7-51.4c-93.7,0-169.6,75.1-198.2,159.8h227.7
	l-5.7,20H196.6c-5.1,20.6-7.9,42.3-7.9,63.6c0,0,0.5,15,0.6,16.4H402l-5.7,20H191.4c12.3,80.9,68.6,152,154.1,159.5
	C410,512,470,479.8,510.9,431.5l6.5,22.8c-44.9,47.7-107.2,77.8-173.5,72c-96-8.5-159.8-88.3-172.6-179.5H55.3L61,326.8z"/>
</svg>
