<?xml version="1.0" encoding="UTF-8"?>
<!DOCTYPE svg PUBLIC "-//W3C//DTD SVG 1.1//EN" "http://www.w3.org/Graphics/SVG/1.1/DTD/svg11.dtd">
<svg xmlns="http://www.w3.org/2000/svg" xml:space="preserve" width="580px" height="580px" shape-rendering="geometricPrecision" text-rendering="geometricPrecision" image-rendering="optimizeQuality" fill-rule="nonzero" clip-rule="nonzero" viewBox="0 0 5800 5800" xmlns:xlink="http://www.w3.org/1999/xlink">
	<title>deck_chair icon</title>
	<desc>deck_chair icon from the IconExperience.com I-Collection. Copyright by INCORS GmbH (www.incors.com).</desc>
	<path id="curve0"  d="M500 3700c1072,0 1722,-286 2101,-775 326,-420 459,-994 491,-1668l-870 1373 124 285c-48,51 -100,98 -156,142l-97 -224 -285 448c-93,40 -193,75 -302,104l1607 -2535c17,-30 50,-50 87,-50l1709 0 -1955 3082c-143,12 -294,18 -454,18l-2000 0c-13,0 -24,-3 -38,-8 -51,-21 -75,-79 -54,-130 16,-38 53,-62 92,-62zm3722 -1070l941 2164 275 114c51,21 75,79 54,130 -21,51 -79,75 -130,54l-2140 -886 -538 848c-29,46 -91,60 -138,30 -46,-29 -60,-91 -30,-138l29 -46 -1763 0 -98 154c-29,46 -91,60 -138,30 -46,-29 -60,-91 -30,-138l518 -817 -70 -29 522 0 966 400 -521 0 -709 -294 -313 494 1763 0 2444 -3854c29,-46 91,-60 138,-30 46,29 60,91 30,138l-1062 1676zm1067 -1311c-36,650 -171,1340 -621,1837l-221 -509 842 -1328zm-1106 2223c-126,71 -266,132 -420,183l297 -467 123 284zm-1081 1227l336 139c51,21 75,79 54,130 -21,51 -79,75 -130,54l-369 -152 109 -171zm228 -733l1567 648 -804 -1851 -763 1203z"/>
</svg>