<?xml version="1.0" encoding="UTF-8"?>
<!DOCTYPE svg PUBLIC "-//W3C//DTD SVG 1.1//EN" "http://www.w3.org/Graphics/SVG/1.1/DTD/svg11.dtd">
<svg xmlns="http://www.w3.org/2000/svg" xml:space="preserve" width="580px" height="580px" shape-rendering="geometricPrecision" text-rendering="geometricPrecision" image-rendering="optimizeQuality" fill-rule="nonzero" clip-rule="nonzero" viewBox="0 0 5800 5800" xmlns:xlink="http://www.w3.org/1999/xlink">
	<title>deck_chair icon</title>
	<desc>deck_chair icon from the IconExperience.com I-Collection. Copyright by INCORS GmbH (www.incors.com).</desc>
	<path id="curve0" d="M500 3700c1751,0 2510,-729 2592,-2443l-870 1373 124 285c-48,51 -100,98 -156,142l-97 -224 -285 448c-93,40 -193,75 -302,104l1607 -2535c17,-30 50,-50 87,-50l2000 0c55,0 100,45 100,100 0,771 -92,1658 -632,2256l-89 -204c379,-467 485,-1111 513,-1695l-870 1373 941 2164 275 114c51,21 75,79 54,130 -21,51 -79,75 -130,54l-2140 -886 -538 848c-29,46 -91,60 -138,30 -46,-29 -60,-91 -30,-138l29 -46 -1763 0 -98 154c-29,46 -91,60 -138,30 -46,-29 -60,-91 -30,-138l518 -817 -70 -29 522 0 966 400 -521 0 -709 -294 -313 494 1763 0 362 -571 -553 -229c-660,0 -1321,0 -1981,0 -70,0 -119,-72 -92,-138 16,-38 53,-62 92,-62zm2455 180l187 78 1876 -2958 -1719 0c-13,1165 -266,2265 -1463,2700l664 0c213,0 410,-11 591,-33l-136 213zm1228 -338c-126,71 -266,132 -420,183l182 -287c55,-25 108,-52 158,-81l80 185zm-1081 1227l336 139c51,21 75,79 54,130 -21,51 -79,75 -130,54l-362 -150 0 -13 102 -160zm228 -733l1567 648 -804 -1851 -763 1203z"/>
</svg>