<?xml version="1.0" encoding="utf-8"?>
<!-- Generator: Adobe Illustrator 21.0.2, SVG Export Plug-In . SVG Version: 6.00 Build 0)  -->
<svg version="1.1" id="Ebene_1" xmlns="http://www.w3.org/2000/svg" xmlns:xlink="http://www.w3.org/1999/xlink" x="0px" y="0px"
	 width="580px" height="580px" viewBox="0 0 580 580" style="enable-background:new 0 0 580 580;" xml:space="preserve">
<g>
	<path d="M466.6,322.3c-30.8,0-57.3,18.6-69,45.1v61c11.7,26.5,38.3,45,69,45c41.6,0,75.5-33.9,75.5-75.5S508.3,322.3,466.6,322.3z
		 M466.6,452.3c-30.1,0-54.5-24.4-54.5-54.5s24.4-54.5,54.5-54.5s54.5,24.4,54.5,54.5S496.7,452.3,466.6,452.3z"/>
	<path d="M113.7,169.3c38.1,0,69.6-28.3,74.8-65h91.9v97.4h21V83.3H188.4c-5.1-36.7-36.7-65-74.8-65c-41.6,0-75.5,33.9-75.5,75.5
		S72,169.3,113.7,169.3z M113.7,39.3c30.1,0,54.5,24.4,54.5,54.5s-24.4,54.5-54.5,54.5s-54.5-24.4-54.5-54.5S83.6,39.3,113.7,39.3z"
		/>
	<path d="M37.9,561.7h320v-320h-320V561.7z M57.9,261.7h280v280h-280V261.7z"/>
	<polygon points="271.1,315 198.2,388 125.3,315 111.1,329.2 184.1,402.1 111.1,475 125.3,489.2 198.2,416.2 271.1,489.2 285.3,475 
		212.3,402.1 285.3,329.2 	"/>
</g>
</svg>
