<?xml version="1.0" encoding="utf-8"?>
<!-- Generator: Adobe Illustrator 19.2.1, SVG Export Plug-In . SVG Version: 6.00 Build 0)  -->
<svg version="1.1" id="delete_x5F_gi" xmlns="http://www.w3.org/2000/svg" xmlns:xlink="http://www.w3.org/1999/xlink" x="0px"
	 y="0px" width="580px" height="580px" viewBox="0 0 580 580" style="enable-background:new 0 0 580 580;" xml:space="preserve">
<style type="text/css">
	.st0{display:none;}
</style>
<title>address_book2 icon</title>
<desc>address_book2 icon from the IconExperience.com I-Collection. Copyright by INCORS GmbH (www.incors.com).</desc>
<title>address_book2 icon</title>
<desc>address_book2 icon from the IconExperience.com I-Collection. Copyright by INCORS GmbH (www.incors.com).</desc>
<title>address_book2 icon</title>
<desc>address_book2 icon from the IconExperience.com I-Collection. Copyright by INCORS GmbH (www.incors.com).</desc>
<path id="curve28_9_" class="st0" d="M517.5,175.3c6.4,6.3,10.3,15.1,10.3,24.7v385h-400V65h265c9.6,0,18.4,3.9,24.7,10.3
	C417.5,75.6,507.8,165.5,517.5,175.3z M427.8,113.8V165H479L427.8,113.8z M392.8,85h-245v480h360V200c0-8.3-6.7-15-15-15h-85v-85
	C407.8,91.8,401,85,392.8,85z"/>
<path id="curve0_1_" d="M177.1,162.9l112.9,113l112.9-113l14.2,14.2L304.1,290l113,112.9l-14.2,14.2L290,304.1l-112.9,113
	l-14.2-14.2l113-112.9l-113-112.9L177.1,162.9z"/>
<g>
	<path d="M490,90v400H90V90H490 M510,70H70v440h440V70L510,70z"/>
</g>
</svg>
