<?xml version="1.0" encoding="utf-8"?>
<!-- Generator: Adobe Illustrator 19.2.1, SVG Export Plug-In . SVG Version: 6.00 Build 0)  -->
<svg version="1.1" id="Ebene_1" xmlns="http://www.w3.org/2000/svg" xmlns:xlink="http://www.w3.org/1999/xlink" x="0px" y="0px"
	 width="580px" height="580px" viewBox="0 0 580 580" style="enable-background:new 0 0 580 580;" xml:space="preserve">
<g>
	<path d="M57,38h245c8.2,0,15,6.7,15,14.9V138h85c8.3,0,15,6.6,15,14.9V202h20v-49.1c0-9.6-3.9-18.4-10.3-24.7l-100-100
		C320.4,21.9,311.5,18,302,18H37v520h146v-20H57V38z M337,66.7l51.2,51.3H337V66.7z"/>
	<path d="M223,242v320h320V242H223z M523,542H243V262h280V542z"/>
	<polygon points="310.5,489.4 383.4,416.4 456.3,489.4 470.5,475.2 397.5,402.3 470.5,329.4 456.3,315.2 383.4,388.2 310.5,315.2 
		296.3,329.4 369.3,402.3 296.3,475.2 	"/>
</g>
</svg>
