<?xml version="1.0" encoding="UTF-8"?>
<!DOCTYPE svg PUBLIC "-//W3C//DTD SVG 1.1//EN" "http://www.w3.org/Graphics/SVG/1.1/DTD/svg11.dtd">
<svg xmlns="http://www.w3.org/2000/svg" xml:space="preserve" width="580px" height="580px" shape-rendering="geometricPrecision" text-rendering="geometricPrecision" image-rendering="optimizeQuality" fill-rule="nonzero" clip-rule="nonzero" viewBox="0 0 5800 5800" xmlns:xlink="http://www.w3.org/1999/xlink">
	<title>delete icon</title>
	<desc>delete icon from the IconExperience.com I-Collection. Copyright by INCORS GmbH (www.incors.com).</desc>
		<path id="curve28"  d="M2051 1486l-565 565 848 849 -848 849 565 565 849 -848 849 848 565 -565 -848 -849 848 -849 -565 -565 -849 848 -849 -848zm849 -1186c718,0 1368,291 1838,762 471,470 762,1120 762,1838 0,718 -291,1368 -762,1838 -470,471 -1120,762 -1838,762 -718,0 -1368,-291 -1838,-762 -471,-470 -762,-1120 -762,-1838 0,-718 291,-1368 762,-1838 470,-471 1120,-762 1838,-762z"/>
</svg>