<?xml version="1.0" encoding="UTF-8"?>
<!DOCTYPE svg PUBLIC "-//W3C//DTD SVG 1.1//EN" "http://www.w3.org/Graphics/SVG/1.1/DTD/svg11.dtd">
<svg xmlns="http://www.w3.org/2000/svg" xml:space="preserve" width="580px" height="580px" shape-rendering="geometricPrecision" text-rendering="geometricPrecision" image-rendering="optimizeQuality" fill-rule="nonzero" clip-rule="nonzero" viewBox="0 0 5800 5800" xmlns:xlink="http://www.w3.org/1999/xlink">
	<title>delivery_man icon</title>
	<desc>delivery_man icon from the IconExperience.com I-Collection. Copyright by INCORS GmbH (www.incors.com).</desc>
	<path id="curve0"  d="M2350 2793l-563 256 -549 -250 562 -262 550 256zm-804 366l-588 267 -551 -239 592 -277 547 249zm1042 -255l612 286 -564 245 -608 -276 560 -255zm-199 638l-582 253 -602 -262 582 -265 602 274zm911 -178l0 1601 -1400 624 0 -1618 1400 -607zm-1600 601l0 1636 -1400 -637 0 -1607 1400 608zm3206 -2520c84,199 52,486 -135,615 -32,117 -86,285 -152,434 -45,104 -97,199 -152,267 2,66 7,132 24,189 19,65 47,103 105,139 87,56 189,95 289,133 154,59 304,117 417,229 99,98 175,220 226,352 54,139 82,288 82,430 0,208 -228,341 -541,424 -410,109 -982,143 -1319,143 -73,0 -158,-2 -250,-5l0 -200c92,3 177,5 250,5 326,0 878,-32 1268,-136 227,-60 392,-137 392,-231 0,-118 -23,-243 -68,-358 -42,-106 -102,-205 -181,-282 -83,-83 -214,-133 -347,-185 -120,-46 -226,-88 -335,-156 -169,177 -498,228 -729,228 -84,0 -169,-7 -250,-19l0 -161c0,-124 -75,-230 -183,-276l-294 -137 0 0c7,-41 10,-83 11,-125 -55,-68 -107,-164 -153,-268 -65,-149 -119,-317 -152,-434 -187,-129 -219,-417 -135,-615 0,-280 24,-583 181,-825 161,-247 451,-420 975,-420 524,0 814,173 975,420 157,242 181,545 181,825zm-276 4c-217,-113 -547,-169 -880,-169 -333,0 -663,56 -880,169l167 121c19,13 64,43 89,36 156,-49 388,-74 620,-74 230,0 464,24 627,73 26,8 70,-21 90,-35l167 -121zm-73 -721c-125,-193 -363,-328 -807,-328 -444,0 -682,135 -807,328 -98,151 -133,342 -144,535 249,-122 601,-183 951,-183 350,0 702,61 951,183 -11,-193 -46,-384 -144,-535z"/>
</svg>