<?xml version="1.0" encoding="UTF-8"?>
<!DOCTYPE svg PUBLIC "-//W3C//DTD SVG 1.1//EN" "http://www.w3.org/Graphics/SVG/1.1/DTD/svg11.dtd">
<svg xmlns="http://www.w3.org/2000/svg" xml:space="preserve" width="580px" height="580px" shape-rendering="geometricPrecision" text-rendering="geometricPrecision" image-rendering="optimizeQuality" fill-rule="nonzero" clip-rule="nonzero" viewBox="0 0 5800 5800" xmlns:xlink="http://www.w3.org/1999/xlink">
	<title>delivery_truck icon</title>
	<desc>delivery_truck icon from the IconExperience.com I-Collection. Copyright by INCORS GmbH (www.incors.com).</desc>
		<path id="curve28"  d="M800 4500l-400 0c-55,0 -100,-45 -100,-100l0 -3000c0,-55 45,-100 100,-100l3200 0c55,0 100,45 100,100l0 1800 -200 0 0 -1700 -3000 0 0 2800 300 0 0 200zm3100 -2200l1000 0c43,0 79,27 93,64l498 1095c1,3 9,41 9,41l0 900c0,55 -45,100 -100,100l-400 0 0 -200 300 0 0 -779 -464 -1021 -936 0 0 -200zm-500 2200l-1000 0 0 -200 1000 0 0 200zm800 -600c331,0 600,269 600,600 0,331 -269,600 -600,600 -331,0 -600,-269 -600,-600 0,-331 269,-600 600,-600zm0 200c-221,0 -400,179 -400,400 0,221 179,400 400,400 221,0 400,-179 400,-400 0,-221 -179,-400 -400,-400zm-2600 -200c331,0 600,269 600,600 0,331 -269,600 -600,600 -331,0 -600,-269 -600,-600 0,-331 269,-600 600,-600zm0 200c-221,0 -400,179 -400,400 0,221 179,400 400,400 221,0 400,-179 400,-400 0,-221 -179,-400 -400,-400z"/>
</svg>