<?xml version="1.0" encoding="UTF-8"?>
<!DOCTYPE svg PUBLIC "-//W3C//DTD SVG 1.1//EN" "http://www.w3.org/Graphics/SVG/1.1/DTD/svg11.dtd">
<svg xmlns="http://www.w3.org/2000/svg" xml:space="preserve" width="580px" height="580px" shape-rendering="geometricPrecision" text-rendering="geometricPrecision" image-rendering="optimizeQuality" fill-rule="nonzero" clip-rule="nonzero" viewBox="0 0 5800 5800" xmlns:xlink="http://www.w3.org/1999/xlink">
	<title>delivery_note icon</title>
	<desc>delivery_note icon from the IconExperience.com I-Collection. Copyright by INCORS GmbH (www.incors.com).</desc>
	<path id="curve0"  d="M3300 3316l0 1534c0,43 -27,79 -64,93l-1386 693 0 -1595 1450 -725zm-1650 2320l-1395 -697c-34,-17 -55,-53 -55,-89l0 -1534 1450 725 0 1595zm100 -1767l-580 -290 1411 -745 619 310 -1450 725zm-799 -400l-651 -325 1405 -703c30,-15 62,-14 90,0l568 284 -1412 744zm2949 -1769l1400 0 0 3800 -2732 0 757 -378c103,-48 174,-152 174,-272l0 -1595c0,-109 -61,-215 -165,-267l-1450 -725c-82,-41 -180,-44 -268,0l-316 158 0 -2121 2600 0c0,467 0,933 0,1400zm144 -1387c59,16 111,48 153,90 0,3 998,999 1000,1000 42,42 74,94 90,153 -36,-34 -85,-56 -137,-56l-1050 0 0 -1050c0,-51 -21,-100 -56,-137z"/>
</svg>