<?xml version="1.0" encoding="UTF-8"?>
<!DOCTYPE svg PUBLIC "-//W3C//DTD SVG 1.1//EN" "http://www.w3.org/Graphics/SVG/1.1/DTD/svg11.dtd">
<svg xmlns="http://www.w3.org/2000/svg" xml:space="preserve" width="580px" height="580px" shape-rendering="geometricPrecision" text-rendering="geometricPrecision" image-rendering="optimizeQuality" fill-rule="nonzero" clip-rule="nonzero" viewBox="0 0 5800 5800" xmlns:xlink="http://www.w3.org/1999/xlink">
	<title>delivery_note icon</title>
	<desc>delivery_note icon from the IconExperience.com I-Collection. Copyright by INCORS GmbH (www.incors.com).</desc>
	<path id="curve0"  d="M400 3416l0 1373 1250 625 0 -1373c-417,-208 -833,-416 -1250,-625zm3550 -3116c101,0 193,42 260,116l987 987c64,63 103,151 103,247l0 3850 -2732 0 400 -200 2132 0 0 -3650c0,-83 -67,-150 -150,-150l-850 0 0 -850c0,-82 -68,-150 -150,-150l-2450 0 0 1821 -200 100 0 -2121 2650 0zm350 488l0 512 512 0 -512 -512zm-3276 2717l1195 -629 -469 -235 -1227 614 501 250zm-760 -343l1441 -721c30,-15 62,-14 90,0l1450 725c33,16 54,52 55,89l0 1595c0,43 -27,79 -64,93l-1441 721c-30,15 -62,14 -90,0l-1450 -725c-34,-17 -55,-53 -55,-89l0 -1595c0,-43 27,-79 64,-93zm2713 93l-538 -269 -1196 629 507 254 1227 -614zm123 1534l0 -1373 -1250 625 0 1373 1250 -625z"/>
</svg>