<?xml version="1.0" encoding="UTF-8"?>
<!DOCTYPE svg PUBLIC "-//W3C//DTD SVG 1.1//EN" "http://www.w3.org/Graphics/SVG/1.1/DTD/svg11.dtd">
<svg xmlns="http://www.w3.org/2000/svg" xml:space="preserve" width="580px" height="580px" shape-rendering="geometricPrecision" text-rendering="geometricPrecision" image-rendering="optimizeQuality" fill-rule="nonzero" clip-rule="nonzero" viewBox="0 0 5800 5800" xmlns:xlink="http://www.w3.org/1999/xlink">
	<title>denture icon</title>
	<desc>denture icon from the IconExperience.com I-Collection. Copyright by INCORS GmbH (www.incors.com).</desc>
	<path id="curve0"  d="M2900 2632c-103,-145 -269,-232 -448,-232 -152,0 -289,61 -388,161l-4 4c-73,-161 -233,-265 -410,-265 -83,0 -161,23 -228,62 -88,-119 -235,-180 -382,-158 -65,-96 -173,-154 -290,-154 -133,0 -253,75 -313,193 -16,-41 -28,-83 -35,-127l-100 -600c-17,-97 30,-187 102,-250 70,-60 159,-82 248,-55 709,212 1506,389 2248,389 742,0 1539,-177 2248,-389 89,-27 178,-5 248,55 73,63 119,153 102,250l-100 600c-7,47 -17,93 -30,138 -57,-124 -181,-204 -318,-204 -117,0 -225,58 -290,154 -147,-22 -293,39 -382,158 -67,-39 -145,-62 -228,-62 -177,0 -337,104 -410,265 -104,-106 -243,-165 -392,-165 -151,0 -288,61 -387,161 -23,22 -43,46 -61,71zm700 978l0 189c0,165 -134,300 -300,300 -166,0 -300,-135 -300,-300l0 -235c162,99 422,107 600,46zm-600 -662c1,84 4,169 4,252 0,201 174,248 344,248 168,0 352,-47 352,-248 -1,-84 -4,-168 -4,-252 0,-192 -155,-348 -348,-348 -192,0 -348,156 -348,348zm-548 -348c-193,0 -348,156 -348,348l0 252c0,200 179,248 348,248 168,0 348,-48 348,-248l0 -249c-2,-194 -151,-351 -348,-351zm-252 1010l0 187c0,166 134,300 300,300 166,0 300,-134 300,-300l0 -231c-96,56 -217,82 -348,82 -91,0 -176,-12 -252,-38zm1701 -861l1 251c0,143 120,200 248,200 127,0 250,-57 250,-200 0,-84 -1,-167 -1,-251 0,-138 -111,-249 -249,-249 -138,0 -249,111 -249,249zm399 631l0 318c0,138 -112,249 -250,249 -137,0 -249,-110 -250,-248l0 -217c38,-43 66,-93 83,-153 120,74 282,89 417,51zm-2401 -631c0,-138 -111,-249 -249,-249 -138,0 -249,111 -249,249 0,84 1,167 1,251 0,143 120,200 248,200 127,0 250,-57 250,-200 0,-84 -1,-167 -1,-251zm-399 631l0 318c0,138 112,249 250,249 138,0 250,-111 250,-249l0 -219c-37,-42 -64,-92 -80,-151 -120,75 -284,90 -420,52zm3100 -380c0,24 -2,48 -6,70 31,19 67,30 106,30 110,0 200,-89 200,-200l0 -300c0,-111 -90,-200 -200,-200 -73,0 -139,39 -175,103 47,70 74,155 74,246 0,84 0,167 1,251zm-100 263l0 408c29,17 64,26 100,26 111,0 200,-89 200,-199l0 -211c-32,9 -65,13 -100,13 -69,0 -134,-17 -190,-48 -3,3 -7,7 -10,11zm599 -471c60,-21 101,-78 101,-142l0 -250c0,-83 -67,-150 -150,-150 -38,0 -73,14 -100,38 95,76 150,190 150,312l-1 192zm-4199 -192l0 300c0,111 90,200 200,200 40,0 76,-11 107,-31 -3,-22 -5,-45 -5,-69 1,0 -1,-230 -1,-251 0,-91 27,-176 74,-246 -36,-64 -102,-103 -175,-103 -110,0 -200,89 -200,200zm400 661l0 410c-29,17 -64,26 -100,26 -111,0 -200,-89 -200,-199l0 -211c98,26 202,13 291,-36 3,4 6,7 9,10zm-599 -469c-60,-21 -101,-78 -101,-142l0 -250c0,-83 67,-150 150,-150 38,0 73,14 100,38 -95,76 -150,190 -150,312l1 192zm4399 204l0 204c0,64 -40,121 -100,142l0 -178c41,-47 72,-103 88,-166 4,0 8,-1 12,-2zm-4400 0l0 204c0,64 40,121 100,142l0 -178c-41,-47 -72,-103 -88,-166 -4,0 -8,-1 -12,-2zm4600 709l0 -405c0,-15 -2,-29 -5,-43 -25,151 -146,269 -298,290 -31,256 -294,413 -533,327 -70,165 -233,274 -414,274 -118,0 -225,-46 -305,-120 -86,166 -257,271 -445,271 -158,0 -306,-75 -400,-201 -95,126 -242,199 -400,199 -187,0 -358,-104 -444,-270 -80,75 -188,121 -306,121 -181,0 -344,-109 -414,-274 -43,15 -88,23 -136,23 -202,0 -372,-151 -397,-350 -152,-21 -273,-139 -298,-290 -3,14 -5,28 -5,43l0 405c0,177 72,335 208,449 644,538 1362,746 2192,746 828,-1 1549,-208 2192,-746 136,-114 208,-272 208,-449z"/>
</svg>