<?xml version="1.0" encoding="UTF-8"?>
<!DOCTYPE svg PUBLIC "-//W3C//DTD SVG 1.1//EN" "http://www.w3.org/Graphics/SVG/1.1/DTD/svg11.dtd">
<svg xmlns="http://www.w3.org/2000/svg" xml:space="preserve" width="580px" height="580px" shape-rendering="geometricPrecision" text-rendering="geometricPrecision" image-rendering="optimizeQuality" fill-rule="nonzero" clip-rule="nonzero" viewBox="0 0 5800 5800" xmlns:xlink="http://www.w3.org/1999/xlink">
	<title>denture icon</title>
	<desc>denture icon from the IconExperience.com I-Collection. Copyright by INCORS GmbH (www.incors.com).</desc>
	<path id="curve0" d="M4900 2600c0,-111 -90,-200 -200,-200 -73,0 -139,39 -175,103 47,70 74,155 74,246 0,84 0,167 1,251 3,3 -4,62 -6,70 31,19 67,30 106,30 110,0 200,-89 200,-200l0 -300zm-2100 346c-1,-191 -157,-346 -348,-346 -193,0 -348,156 -348,348l0 252c0,200 179,248 348,248 168,0 348,-48 348,-248l0 -254zm100 -314c103,-145 269,-232 448,-232 152,0 289,61 388,161l4 4c73,-161 233,-265 410,-265 83,0 161,23 228,62 76,-102 195,-162 322,-162 20,0 40,1 60,4 65,-96 173,-154 290,-154 54,0 106,12 151,34l101 -600c1,-9 -1,-18 -4,-26 -10,-23 -38,-52 -63,-57 -9,-3 -19,-2 -30,1 -389,117 -814,223 -1239,297 -362,62 -725,101 -1066,101 -341,0 -704,-39 -1066,-101 -425,-74 -850,-180 -1239,-297 -11,-3 -21,-4 -30,-1 -25,5 -53,34 -63,57 -3,8 -5,16 -4,24l101 602c45,-22 97,-34 151,-34 117,0 225,58 290,154 20,-3 40,-4 60,-4 127,0 246,60 322,162 67,-39 145,-62 228,-62 177,0 337,104 410,265l4 -4c99,-100 236,-161 388,-161 179,0 345,87 448,232zm983 697c-17,60 -45,110 -83,153l0 217c0,69 28,130 73,175 45,46 108,73 177,73 138,0 250,-111 250,-249l0 -318c-47,13 -98,20 -150,20 -99,0 -192,-24 -267,-71zm-283 281c-76,26 -162,38 -252,38 -131,0 -253,-26 -348,-84l0 235c0,165 134,300 300,300 166,0 300,-135 300,-300l0 -189zm-800 -44c-96,56 -217,82 -348,82 -91,0 -176,-12 -252,-38l0 187c0,166 134,300 300,300 166,0 300,-134 300,-300l0 -231zm-800 -87c-37,-42 -64,-92 -80,-151 -76,47 -170,72 -270,72 -52,0 -103,-7 -150,-20l0 318c0,138 112,249 250,249 138,0 250,-111 250,-249l0 -219zm2510 -227c-3,3 -7,7 -10,11l0 408c29,17 64,26 100,26 111,0 200,-89 200,-199l0 -211c-32,9 -65,13 -100,13 -69,0 -134,-17 -190,-48zm-609 -503l1 251c0,143 120,200 248,200 127,0 250,-57 250,-200 1,0 -1,-230 -1,-251 0,-138 -111,-249 -249,-249 -138,0 -249,111 -249,249zm-2002 0c0,-138 -111,-249 -249,-249 -138,0 -249,111 -249,249 0,84 1,167 1,251 0,143 120,200 248,200 127,0 250,-57 250,-200 0,-84 -1,-167 -1,-251zm-599 512c-3,-3 -6,-6 -9,-10 -57,31 -122,49 -191,49 -35,0 -68,-4 -100,-13l0 211c0,110 89,199 200,199 36,0 71,-9 100,-26l0 -410zm-93 -192c-3,-22 -5,-45 -5,-69 1,0 -1,-230 -1,-251 0,-91 27,-176 74,-246 -36,-64 -102,-103 -175,-103 -110,0 -200,89 -200,200l0 300c0,56 23,105 59,142 36,36 86,58 141,58 40,0 76,-11 107,-31zm-507 -469c0,-122 55,-236 150,-312 -27,-24 -62,-38 -100,-38 -83,0 -150,67 -150,150l0 250c0,64 41,121 101,142l-1 -192zm4399 192c22,-8 41,-20 57,-36 27,-27 44,-65 44,-106l0 -250c0,-41 -17,-79 -44,-106 -27,-27 -65,-44 -106,-44 -38,0 -73,14 -100,38 12,9 22,19 33,29 72,72 117,172 117,283l-1 192zm-4299 372c-41,-47 -72,-103 -88,-166 -4,0 -8,-1 -12,-2l0 204c0,64 40,121 100,142l0 -178zm-499 -1650c-7,-50 1,-95 19,-136 35,-81 113,-152 201,-172 43,-10 87,-8 131,5 382,114 799,219 1216,291 351,61 702,98 1032,98 330,0 681,-37 1032,-98 417,-72 834,-177 1216,-291 44,-13 88,-15 131,-5 88,20 166,91 201,172 19,42 27,89 18,138l-100 600c-7,47 -17,93 -30,138 21,44 32,94 32,146l0 250c0,95 -38,182 -100,245l0 305c0,19 -2,38 -5,57 3,14 5,28 5,43l0 405c0,177 -72,335 -208,449 -643,538 -1364,745 -2192,746 -830,0 -1548,-208 -2192,-746 -136,-114 -208,-272 -208,-449l0 -405c0,-15 2,-29 5,-43 -3,-19 -5,-38 -5,-57l0 -305c-62,-63 -100,-150 -100,-245l0 -250c0,-56 13,-110 37,-157 -16,-41 -28,-83 -35,-127l-101 -602zm4799 1482c-4,1 -8,2 -12,2 -16,63 -47,119 -88,166l0 178c60,-21 100,-78 100,-142l0 -204zm-2200 1102c-95,126 -242,199 -400,199 -187,0 -358,-104 -444,-270 -80,75 -188,121 -306,121 -181,0 -344,-109 -414,-274 -43,15 -88,23 -136,23 -202,0 -372,-151 -397,-350 -36,-5 -71,-16 -103,-31l0 189c0,119 45,219 136,296 607,508 1282,700 2064,699 781,0 1457,-192 2064,-699 91,-77 136,-177 136,-296l0 -189c-32,15 -67,26 -103,31 -25,199 -195,350 -397,350 -48,0 -93,-8 -136,-23 -70,165 -233,274 -414,274 -118,0 -225,-46 -305,-120 -86,166 -257,271 -445,271 -158,0 -306,-75 -400,-201zm100 -1150c1,84 4,169 4,252 0,201 174,248 344,248 168,0 352,-47 352,-248 -1,-84 -4,-168 -4,-252 0,-192 -155,-348 -348,-348 -192,0 -348,156 -348,348z"/>
</svg>