<?xml version="1.0" encoding="utf-8"?>
<!-- Generator: Adobe Illustrator 19.2.1, SVG Export Plug-In . SVG Version: 6.00 Build 0)  -->
<svg version="1.1" id="designer_x5F_gi" xmlns="http://www.w3.org/2000/svg" xmlns:xlink="http://www.w3.org/1999/xlink" x="0px"
	 y="0px" width="580px" height="580px" viewBox="0 0 580 580" style="enable-background:new 0 0 580 580;" xml:space="preserve">
<style type="text/css">
	.st0{display:none;}
</style>
<title>address_book2 icon</title>
<desc>address_book2 icon from the IconExperience.com I-Collection. Copyright by INCORS GmbH (www.incors.com).</desc>
<title>address_book2 icon</title>
<desc>address_book2 icon from the IconExperience.com I-Collection. Copyright by INCORS GmbH (www.incors.com).</desc>
<title>address_book2 icon</title>
<desc>address_book2 icon from the IconExperience.com I-Collection. Copyright by INCORS GmbH (www.incors.com).</desc>
<path id="curve28_9_" class="st0" d="M517.5,175.3c6.4,6.3,10.3,15.1,10.3,24.7v385h-400V65h265c9.6,0,18.4,3.9,24.7,10.3
	C417.5,75.6,507.8,165.5,517.5,175.3z M427.8,113.8V165H479L427.8,113.8z M392.8,85h-245v480h360V200c0-8.3-6.7-15-15-15h-85v-85
	C407.8,91.8,401,85,392.8,85z"/>
<g>
	<path id="curve30" d="M90,70h400V50c20,0,40,0,60,0v450c0,16.5-13.5,30-30,30H60c-16.5,0-30-13.5-30-30V50c20,0,40,0,60,0V70z
		 M90,350h400v-37.1l20-20V370c-146.7,0-293.3,0-440,0v-73.4c4.8,7.7,10.5,14.9,16.8,21.2c1.1,1.1,2.1,2.1,3.2,3.1V350z M510,70
		c0,49.9,0,99.8,0,149.7l-20-20V130h-92.2c-3.4-2.2-6.8-4.1-10.4-5.9c-9.6-4.6-20-7.7-30.5-9c-9.5-1.2-19.3-0.9-29,0.9
		c-9.6,1.7-18.9,4.9-27.6,9.4c-2.5,1.2-4.8,2.8-6.8,4.6h-61.7c-3-1.7-6-3.4-9.1-4.9c-12.5-6-25.9-10-39.4-11.6l-14.9-1.8l-10.4,11
		l-6.8,7.3H90v64.4l-10.1,5.4l-9.9,5.3c0-45,0-90.1,0-135.1H50v430c0,5.5,4.5,10,10,10h460c5.5,0,10-4.5,10-10V266.3
		c0.9-3.2,1.4-6.6,1.4-10c0-3.3-0.5-6.7-1.4-10V70H510z M490,90H90v20h400V90z"/>
	<path id="curve29_1_" d="M443.5,229.3c-8.8-8.7-9.3-17.7-9.8-25.3c-0.1-2.2,0.3-3.7,0-4l-19.5-19.5c-0.3-0.3-1.7,0.1-3.9,0
		c-7.7-0.4-16.7-1-25.5-9.9c-4.3-4.3-9.3-7.9-14.7-10.5c-5.7-2.8-11.8-4.6-18-5.3c-6.6-0.9-13.2-0.6-19.6,0.9
		c4.7,2.5,9.2,5.3,13,7.9c7.5,5.2,15.9,12.3,21.9,20.9c5,7.2,8.4,15.4,8.3,24.5c0,5.1-1.1,9.8-3.1,14.1c-2,4.5-4.9,8.6-8.4,12.1
		l-49.4,49.3l-15.3-13L350,221c1.9-1.9,3.4-3.9,4.4-6.1c0.9-1.9,1.4-3.9,1.4-6c0-4.5-1.9-8.9-4.8-13c-4.4-6.3-10.9-11.8-16.9-15.9
		c-3.4-2.4-7.5-4.9-11.7-7.1c-3.7-1.9-7.5-3.7-11.3-5c-2.6-0.9-4.8-2.5-6.3-4.5c-1.6-2.1-2.6-4.6-2.8-7.4c-0.2-2.6,0.5-5.2,1.8-7.5
		c1.2-2.3,3.2-4.2,5.6-5.4c7-3.6,14.4-6.1,22.1-7.5c7.6-1.4,15.3-1.7,23-0.7c8.4,1.1,16.6,3.5,24.2,7.2c7.5,3.7,14.4,8.5,20.3,14.5
		c3.4,3.5,8.3,3.7,12.4,4c6.3,0.3,11.8,0.7,16.9,5.7l19.6,19.6c5,5.1,5.4,10.6,5.7,16.9c0.3,4.1,0.6,8.9,4,12.4c0,1,4.8,2.8,5.9,3
		c2.2,0.4,4.5,0.1,6.6-0.8l6.3-3l4.9,5l25.2,25.1c3.3,3.3,4.9,7.5,4.9,11.8c0,4.3-1.6,8.6-4.9,11.8l-39.1,39.1
		c-3.2,3.3-7.5,4.9-11.8,4.9c-4.2,0-8.5-1.6-11.7-4.9L418.7,282l-5-4.9l3-6.3c0.9-2.1,1.2-4.4,0.8-6.6c-0.3-2.2-1.4-4.2-3-5.9
		c-1.4-1.3-2.8-2.5-4.2-3.1c-1.1-0.5-2.2-0.8-3.5-0.7c-4.7,0.3-10.3,6.2-15.1,11c-1.5,1.6-2,2.1-2.5,2.6l-43.1,43.1l-15.3-13
		l44.3-44.2c2-2.1,2.2-2.3,2.3-2.4c7.2-7.3,15.7-16.1,28-17c4.8-0.4,9.3,0.6,13.4,2.6c3.7,1.7,7,4.2,9.8,7
		c4.7,4.7,7.5,10.5,8.6,16.5c0.7,3.8,0.6,7.7-0.1,11.5l18.5,18.5l34.4-34.4l-18.5-18.5c-3.8,0.7-7.7,0.8-11.5,0.1
		C454,236.9,448.2,234,443.5,229.3z"/>
	<path id="curve28_54_" d="M210.9,328.5c-2.6-3.1-26.9-0.6-39,0.6l-5.2,0.6c-13.5,1.1-25.3-0.8-36.3-5.3
		c-10.7-4.5-20.3-11.5-29.5-20.7c-9.1-9.1-16.5-20.3-21.7-32.4c-5.2-12-8.1-25-8.4-37.8l-0.1-6.1c8.4-4.5,16.8-9,25.2-13.5l46,46
		l43.4-13.1l15.5-46.4l-45.4-45.8l20.6-21.9l5,0.6c11.3,1.4,22.6,4.8,33,9.8s19.9,11.7,27.9,19.6c9.4,9.4,16.5,19.2,21,30.2
		c4.6,11.2,6.5,23.2,5.4,36.8c-0.5,6.7-0.1,17.8,1.3,28.2c0.9,7.1,2.3,13.6,4,17.7l63.8,54.4h-30.8L259,289.4l-2.3-3
		c-3.3-6.1-5.5-15.8-6.9-25.8c-1.6-11.9-2-24.7-1.4-32.4c0.8-10.4-0.5-19.5-3.9-27.7c-3.5-8.4-9.1-16.1-16.7-23.6
		c-6.3-6.4-14.1-11.8-22.5-15.8c-6.9-3.4-14.3-5.8-21.8-7.2l-0.3,0.4l33,33.3c2.3,2.3,3.8,5.1,4.5,8.1c0.8,3,0.6,6.2-0.4,9.4
		l-16.6,49.5c-0.9,2.7-2.3,5-4.2,6.8c-2,2-4.4,3.4-7.1,4.2L146,279.5c-6.1,1.8-12.5,0.2-17-4.3l-36.7-36.7l-1.2,0.6
		c0.9,8.2,3.1,16.6,6.5,24.4c4.2,9.8,10.1,18.8,17.3,26.1c7.5,7.4,15,12.9,23.2,16.3c8,3.4,16.8,4.7,26.9,3.9
		c0.3-0.1,4.9-0.5,4.9-0.5c15.1-1.5,45-4.6,55.4,5.4l17,15.3h-29.8L210.9,328.5z"/>
</g>
</svg>
