<?xml version="1.0" encoding="UTF-8"?>
<!DOCTYPE svg PUBLIC "-//W3C//DTD SVG 1.1//EN" "http://www.w3.org/Graphics/SVG/1.1/DTD/svg11.dtd">
<svg xmlns="http://www.w3.org/2000/svg" xml:space="preserve" width="580px" height="580px" shape-rendering="geometricPrecision" text-rendering="geometricPrecision" image-rendering="optimizeQuality" fill-rule="nonzero" clip-rule="nonzero" viewBox="0 0 5800 5800" xmlns:xlink="http://www.w3.org/1999/xlink">
	<title>desktop icon</title>
	<desc>desktop icon from the IconExperience.com I-Collection. Copyright by INCORS GmbH (www.incors.com).</desc>
		<path id="curve28"  d="M1800 1400l0 3000 2200 0 0 -1118 1041 -1041c78,-78 78,-204 0,-282l-500 -500c-78,-78 -204,-78 -282,0l-259 258 0 -317 -2200 0zm-1000 -700l4200 0c276,0 500,224 500,500l0 3400c0,276 -224,500 -500,500l-4200 0c-276,0 -500,-224 -500,-500l0 -3400c0,-276 224,-500 500,-500zm4200 200l-500 0 800 800 0 -500c0,-165 -135,-300 -300,-300zm-3700 0l-500 0c-165,0 -300,135 -300,300l0 500 800 -800zm-800 3200l0 500c0,165 135,300 300,300l500 0 -800 -800zm4000 800l500 0c165,0 300,-135 300,-300l0 -500 -800 800zm-29 -3371l500 500c39,39 39,103 0,142l-1601 1599c-9,10 -21,18 -35,23l-800 300c-22,8 -46,9 -70,0 -51,-19 -78,-76 -58,-128l297 -792c4,-16 13,-31 25,-44l1600 -1600c39,-39 103,-39 142,0z"/>
</svg>