<?xml version="1.0" encoding="UTF-8"?>
<!DOCTYPE svg PUBLIC "-//W3C//DTD SVG 1.1//EN" "http://www.w3.org/Graphics/SVG/1.1/DTD/svg11.dtd">
<svg xmlns="http://www.w3.org/2000/svg" xml:space="preserve" width="580px" height="580px" shape-rendering="geometricPrecision" text-rendering="geometricPrecision" image-rendering="optimizeQuality" fill-rule="nonzero" clip-rule="nonzero" viewBox="0 0 5800 5800" xmlns:xlink="http://www.w3.org/1999/xlink">
	<title>desktop icon</title>
	<desc>desktop icon from the IconExperience.com I-Collection. Copyright by INCORS GmbH (www.incors.com).</desc>
		<path id="curve28" d="M800 700l4200 0c276,0 500,224 500,500l0 3400c0,276 -224,500 -500,500l-4200 0c-276,0 -500,-224 -500,-500l0 -3400c0,-276 224,-500 500,-500zm3841 200l659 659 0 -359c0,-165 -135,-300 -300,-300l-359 0zm659 941l-941 -941 -2918 0 -941 941 0 2118 941 941 2918 0 941 -941 0 -2118zm0 2400l-659 659 359 0c165,0 300,-135 300,-300l0 -359zm-4141 659l-659 -659 0 359c0,165 135,300 300,300l359 0zm-659 -3341l659 -659 -359 0c-165,0 -300,135 -300,300l0 359zm3493 -259l-200 200 -1893 0 0 2800 2000 0 0 -493 200 -200 0 893 -2400 0 0 -3200 2293 0zm766 800l-359 -359 -1515 1515 -215 574 574 -215 1515 -1515zm-288 -571l500 500c39,39 39,103 0,142l-1601 1599c-9,10 -21,18 -35,23l-800 300c-22,8 -46,9 -70,0 -51,-19 -78,-76 -58,-128l297 -792c4,-16 13,-31 25,-44l1600 -1600c39,-39 103,-39 142,0z"/>
</svg>