<?xml version="1.0" encoding="UTF-8"?>
<!DOCTYPE svg PUBLIC "-//W3C//DTD SVG 1.1//EN" "http://www.w3.org/Graphics/SVG/1.1/DTD/svg11.dtd">
<svg xmlns="http://www.w3.org/2000/svg" xml:space="preserve" width="580px" height="580px" shape-rendering="geometricPrecision" text-rendering="geometricPrecision" image-rendering="optimizeQuality" fill-rule="nonzero" clip-rule="nonzero" viewBox="0 0 5800 5800" xmlns:xlink="http://www.w3.org/1999/xlink">
	<title>desk_lamp icon</title>
	<desc>desk_lamp icon from the IconExperience.com I-Collection. Copyright by INCORS GmbH (www.incors.com).</desc>
		<path id="curve28"  d="M500 2200c40,0 77,12 108,32l2468 -1280 -131 -412 1142 -365 260 814 1101 487 105 329 -865 276c42,290 -132,568 -411,657 -279,89 -582,-36 -715,-296l-866 276 -105 -328 614 -1036 -67 -209 -2438 1264c-1,29 -9,57 -22,82l1343 2059c87,-32 181,-50 279,-50 442,0 800,358 800,800l400 0 0 200c-800,0 -1600,0 -2400,0l0 -200 400 0c0,-263 128,-507 344,-657l-1333 -2043c-115,6 -211,-85 -211,-200 0,-110 90,-200 200,-200zm3458 -1775l-763 244 227 710 -613 1036 16 53 1716 -548 94 -31 668 -213 -17 -53 -1101 -488 -227 -710zm536 1718l-739 237c97,154 287,224 462,168 174,-56 288,-223 277,-405zm-2194 2557c-331,0 -600,269 -600,600l1200 0c0,-331 -269,-600 -600,-600z"/>
</svg>