<?xml version="1.0" encoding="UTF-8"?>
<!DOCTYPE svg PUBLIC "-//W3C//DTD SVG 1.1//EN" "http://www.w3.org/Graphics/SVG/1.1/DTD/svg11.dtd">
<svg xmlns="http://www.w3.org/2000/svg" xml:space="preserve" width="580px" height="580px" shape-rendering="geometricPrecision" text-rendering="geometricPrecision" image-rendering="optimizeQuality" fill-rule="nonzero" clip-rule="nonzero" viewBox="0 0 5800 5800" xmlns:xlink="http://www.w3.org/1999/xlink">
	<title>detergent icon</title>
	<desc>detergent icon from the IconExperience.com I-Collection. Copyright by INCORS GmbH (www.incors.com).</desc>
	<path id="curve0"  d="M1800 200l0 800 -600 0 0 -800 600 0zm690 1200c-95,0 -177,-67 -196,-160 -28,-140 -152,-240 -294,-240l0 -800 1400 0c606,0 1100,494 1100,1100l0 100 -2010 0zm410 400l0 -200 1000 0 0 286c0,200 72,496 273,587 327,149 527,460 527,819l0 1708c0,330 -270,600 -600,600l-1800 0c-331,0 -600,-269 -600,-600l0 -1503c0,-474 286,-879 733,-1037 280,-99 467,-363 467,-660zm-486 -207c-98,331 -279,633 -523,878l-142 -142c230,-229 396,-512 483,-824 53,44 113,74 182,88z"/>
</svg>