<?xml version="1.0" encoding="UTF-8"?>
<!DOCTYPE svg PUBLIC "-//W3C//DTD SVG 1.1//EN" "http://www.w3.org/Graphics/SVG/1.1/DTD/svg11.dtd">
<svg xmlns="http://www.w3.org/2000/svg" xml:space="preserve" width="580px" height="580px" shape-rendering="geometricPrecision" text-rendering="geometricPrecision" image-rendering="optimizeQuality" fill-rule="nonzero" clip-rule="nonzero" viewBox="0 0 5800 5800" xmlns:xlink="http://www.w3.org/1999/xlink">
	<title>devil icon</title>
	<desc>devil icon from the IconExperience.com I-Collection. Copyright by INCORS GmbH (www.incors.com).</desc>
		<path id="curve28"  d="M3430 3029c63,-62 125,-161 180,-269 71,-137 127,-287 157,-398 8,-30 29,-53 55,-65 69,-36 184,-146 273,-266 36,-48 66,-96 85,-137 -87,16 -219,50 -269,-49 -10,-21 -13,-44 -9,-64 34,-174 12,-371 -39,-538 -91,97 -205,157 -340,157 -231,0 -254,-600 -23,-600 37,0 72,-5 104,-13 -190,-199 -434,-287 -704,-287 -270,0 -514,88 -704,287 32,8 67,13 104,13 231,0 131,600 -100,600 -111,0 -203,-40 -277,-108 -40,153 -56,331 -25,488 6,29 -1,56 -17,78 -51,80 -155,58 -256,37l-1 0c21,41 52,89 87,137 91,122 206,235 270,266 27,14 45,37 52,64 30,112 87,261 157,397 55,110 118,209 180,270 20,19 30,45 30,71 11,0 -18,259 -22,282 14,55 22,97 22,118 0,135 66,368 154,616 109,310 251,640 346,850 95,-210 237,-540 346,-850 88,-248 154,-481 154,-616 0,-24 8,-67 21,-121 -15,-99 -19,-197 -21,-277 0,-28 11,-54 30,-73zm-2330 -329c0,-42 27,-81 69,-95 268,-89 457,-103 697,-105 -5,-16 -10,-32 -14,-47 -88,-59 -209,-178 -301,-302 -92,-123 -159,-258 -151,-359 8,-93 72,-117 161,-110 30,3 67,10 104,18 12,3 19,17 23,32 -4,-42 -6,-85 -6,-129 0,-163 31,-343 97,-516 -115,-248 -136,-600 -79,-887 75,157 167,365 314,490 230,-265 540,-390 886,-390 345,0 656,125 886,390 147,-125 239,-333 314,-490 53,267 17,592 -100,836 81,189 118,388 118,567 0,44 -2,87 -6,128 4,-14 11,-29 23,-31 30,-6 60,-11 82,-14 97,-12 170,6 182,102 13,104 -52,239 -144,362 -92,124 -216,244 -307,304 -4,15 -9,30 -14,46 95,1 184,4 276,13 129,13 258,39 412,89 45,11 78,50 78,98 0,253 -186,454 -359,640 -105,113 -203,219 -232,309 52,32 99,58 144,83 144,81 256,144 400,284 111,108 196,243 254,389 62,153 93,318 93,475 0,225 -254,370 -605,461 -465,121 -1113,159 -1495,159 -382,0 -1030,-38 -1495,-159 -351,-91 -605,-236 -605,-461 0,-157 31,-322 93,-476 58,-145 143,-280 254,-388 144,-140 256,-203 400,-284 44,-25 92,-51 144,-83 -29,-90 -127,-196 -232,-309 -173,-186 -359,-387 -359,-640z"/>
</svg>