<?xml version="1.0" encoding="UTF-8"?>
<!DOCTYPE svg PUBLIC "-//W3C//DTD SVG 1.1//EN" "http://www.w3.org/Graphics/SVG/1.1/DTD/svg11.dtd">
<svg xmlns="http://www.w3.org/2000/svg" xml:space="preserve" width="580px" height="580px" shape-rendering="geometricPrecision" text-rendering="geometricPrecision" image-rendering="optimizeQuality" fill-rule="nonzero" clip-rule="nonzero" viewBox="0 0 5800 5800" xmlns:xlink="http://www.w3.org/1999/xlink">
	<title>devil icon</title>
	<desc>devil icon from the IconExperience.com I-Collection. Copyright by INCORS GmbH (www.incors.com).</desc>
		<path id="curve28"  d="M4100 200c-115,240 -269,600 -600,600 -231,0 -208,600 23,600 462,0 677,-700 577,-1200zm-2412 1532c-18,-170 2,-348 47,-512 104,169 262,280 465,280 309,0 448,-616 214,-767 -34,-22 -73,-33 -114,-33 -84,0 -156,-32 -217,-83 224,-218 509,-317 817,-317 308,0 593,99 817,317 -61,51 -133,83 -217,83 -367,0 -339,800 23,800 233,0 410,-144 524,-339 58,181 85,381 65,570 13,-44 62,-39 105,-45 97,-12 170,6 182,102 27,217 -280,554 -451,666 -65,220 -193,511 -347,685 2,66 6,143 19,218 20,175 -129,668 -185,826 -103,292 -225,583 -353,866l-114 251c436,-5 953,-42 1376,-152 97,-25 456,-130 456,-268 0,-136 -28,-275 -78,-401 -115,-289 -306,-425 -567,-572 -97,-54 -191,-111 -285,-168l48 -151c46,-142 176,-276 276,-384 105,-113 260,-270 298,-433 -179,-51 -341,-67 -525,-70 25,-61 47,-123 67,-185 6,-4 12,-9 17,-13 201,7 379,36 571,99 45,11 78,50 78,98 0,253 -186,454 -359,640 -105,113 -203,219 -232,309 52,32 99,58 144,83 304,171 521,338 654,673 62,153 93,318 93,475 0,225 -254,370 -605,461 -466,119 -1016,159 -1495,159 -476,0 -1031,-40 -1495,-159 -351,-91 -605,-236 -605,-461 0,-157 31,-322 93,-476 133,-335 350,-501 654,-672 44,-25 92,-51 144,-83 -29,-90 -127,-196 -232,-309 -164,-177 -359,-383 -359,-640 0,-42 27,-81 69,-95 223,-74 392,-96 581,-102 5,4 11,8 16,12 20,62 42,125 67,186 -179,3 -345,18 -525,70 38,163 193,320 298,433 100,108 230,242 276,384l48 151c-94,57 -188,113 -285,168 -261,147 -452,283 -567,572 -50,126 -78,265 -78,401 0,138 359,243 456,268 423,110 940,147 1376,152l-114 -251c-128,-283 -250,-574 -353,-866 -54,-153 -205,-652 -186,-824 12,-61 17,-123 19,-180l0 -1 1 -8 0 -1 0 -3 0 0 0 -3 0 -1 0 -3 0 -1 0 -2 0 -2 0 -1 0 -3 0 0 0 -3 0 -1 1 -3 0 0 0 -3 0 0 0 -1c-154,-173 -283,-466 -348,-686 -166,-111 -469,-452 -452,-661 8,-93 72,-117 161,-110 43,4 113,3 127,50zm12 -1532c115,240 269,600 600,600 231,0 131,600 -100,600 -462,0 -600,-700 -500,-1200z"/>
</svg>