<?xml version="1.0" encoding="utf-8"?>
<!-- Generator: Adobe Illustrator 21.1.0, SVG Export Plug-In . SVG Version: 6.00 Build 0)  -->
<svg version="1.1"
	 id="Ebene_1" image-rendering="optimizeQuality" shape-rendering="geometricPrecision" text-rendering="geometricPrecision"
	 xmlns="http://www.w3.org/2000/svg" xmlns:xlink="http://www.w3.org/1999/xlink" x="0px" y="0px" width="580px" height="580px"
	 viewBox="0 0 580 580" style="enable-background:new 0 0 580 580;" xml:space="preserve">
<title>mouse_pointer icon</title>
<desc>mouse_pointer icon from the IconExperience.com I-Collection. Copyright by INCORS GmbH (www.incors.com).</desc>
<g>
	<rect x="219.4" y="182.5" width="30" height="20"/>
	<rect x="379.4" y="182.5" width="30" height="20"/>
	<rect x="419.4" y="182.5" width="30" height="20"/>
	<rect x="339.4" y="182.5" width="30" height="20"/>
	<rect x="259.4" y="182.5" width="30" height="20"/>
	<rect x="299.4" y="182.5" width="30" height="20"/>
	<polygon points="489.4,182.5 459.4,182.5 459.4,202.5 469.4,202.5 469.4,232 489.4,232 	"/>
	<rect x="469.4" y="242" width="20" height="30"/>
	<polygon points="469.4,413.5 481.7,428.5 485.8,428.5 489.4,428.5 489.4,402 469.4,402 	"/>
	<rect x="469.4" y="282" width="20" height="30"/>
	<rect x="469.4" y="322" width="20" height="30"/>
	<rect x="469.4" y="362" width="20" height="30"/>
	<path d="M90.6,413.7v10v4.8h20c3.1,0,5.2,0,5.2,0v-20h-5.2v-24.8h-20V413.7z"/>
	<rect x="90.6" y="343.7" width="20" height="30"/>
	<rect x="125.8" y="408.5" width="30" height="20"/>
	<rect x="179.4" y="182.5" width="30" height="20"/>
	<rect x="165.8" y="408.5" width="30" height="20"/>
	<rect x="245.8" y="408.5" width="30" height="20"/>
	<rect x="205.8" y="408.5" width="30" height="20"/>
	<polygon points="129.4,182.5 99.4,182.5 90.6,182.5 90.6,213.7 110.6,213.7 110.6,202.5 129.4,202.5 	"/>
	<rect x="139.4" y="182.5" width="30" height="20"/>
	<rect x="90.6" y="263.7" width="20" height="30"/>
	<rect x="90.6" y="223.7" width="20" height="30"/>
	<rect x="90.6" y="303.7" width="20" height="30"/>
	<path d="M466,442.3L309.8,256.2v243l43.3-27.5l20.8,57.2l62-22.6l-20.8-57.2L466,442.3z M385.9,503.2l-22.5-61.7l-33.6,21.3V311.1
		l97.5,116.2l-39.4,5.3l22.5,61.8L385.9,503.2z"/>
	<path d="M520,51.1H60c-16.5,0-30,13.5-30,30v410h259.5v-20H50v-331h480v331h-84.9l7.3,20H550v-410C550,64.6,536.5,51.1,520,51.1z
		 M530,120.1H50v-39c0-5.5,4.5-10,10-10h460c5.5,0,10,4.5,10,10V120.1z"/>
</g>
</svg>
