<?xml version="1.0" encoding="UTF-8"?>
<!DOCTYPE svg PUBLIC "-//W3C//DTD SVG 1.1//EN" "http://www.w3.org/Graphics/SVG/1.1/DTD/svg11.dtd">
<svg xmlns="http://www.w3.org/2000/svg" xml:space="preserve" width="580px" height="580px" shape-rendering="geometricPrecision" text-rendering="geometricPrecision" image-rendering="optimizeQuality" fill-rule="nonzero" clip-rule="nonzero" viewBox="0 0 5800 5800" xmlns:xlink="http://www.w3.org/1999/xlink">
	<title>diamond_ring icon</title>
	<desc>diamond_ring icon from the IconExperience.com I-Collection. Copyright by INCORS GmbH (www.incors.com).</desc>
		<path id="curve28"  d="M3748 1688c702,329 1152,1034 1152,1812 0,1105 -895,2000 -2000,2000 -1105,0 -2000,-895 -2000,-2000 0,-779 450,-1483 1152,-1812l674 623c-699,86 -1226,683 -1226,1389 0,773 627,1400 1400,1400 773,0 1400,-627 1400,-1400 0,-706 -527,-1303 -1226,-1389l674 -623zm-2048 -788l570 -570c18,-18 43,-30 71,-30l1118 0c25,0 51,10 70,29l571 571 -2400 0zm2391 200l-1123 1037c-37,35 -97,36 -136,0l-1123 -1037 2382 0z"/>
</svg>