<?xml version="1.0" encoding="UTF-8"?>
<!DOCTYPE svg PUBLIC "-//W3C//DTD SVG 1.1//EN" "http://www.w3.org/Graphics/SVG/1.1/DTD/svg11.dtd">
<svg xmlns="http://www.w3.org/2000/svg" xml:space="preserve" width="580px" height="580px" shape-rendering="geometricPrecision" text-rendering="geometricPrecision" image-rendering="optimizeQuality" fill-rule="nonzero" clip-rule="nonzero" viewBox="0 0 5800 5800" xmlns:xlink="http://www.w3.org/1999/xlink">
	<title>diamond_ring icon</title>
	<desc>diamond_ring icon from the IconExperience.com I-Collection. Copyright by INCORS GmbH (www.incors.com).</desc>
		<path id="curve29" d="M3748 1688c702,329 1152,1033 1152,1812 0,1105 -895,2000 -2000,2000 -1105,0 -2000,-895 -2000,-2000 0,-779 450,-1483 1152,-1812l160 148c-672,278 -1112,934 -1112,1664 0,986 793,1788 1779,1800 -875,-12 -1579,-725 -1579,-1600 0,-746 516,-1394 1241,-1560l185 171c-699,86 -1226,683 -1226,1389 0,773 627,1400 1400,1400 773,0 1400,-627 1400,-1400 0,-706 -527,-1303 -1226,-1389l185 -171c725,166 1241,814 1241,1560 0,875 -704,1588 -1579,1600 986,-12 1779,-814 1779,-1800 0,-730 -440,-1386 -1112,-1664l160 -148z"/>
	<path id="curve28" d="M2383 500l-400 400 1834 0 -400 -400 -1034 0zm-380 600l897 828 897 -828 -1794 0zm-329 -174l596 -596c18,-18 43,-30 71,-30l1118 0c25,0 51,10 70,29l597 598c40,41 40,104 -3,144l-1155 1066c-37,35 -97,36 -136,0l-1151 -1062c-46,-38 -49,-107 -7,-149z"/>
</svg>