<?xml version="1.0" encoding="UTF-8"?>
<!DOCTYPE svg PUBLIC "-//W3C//DTD SVG 1.1//EN" "http://www.w3.org/Graphics/SVG/1.1/DTD/svg11.dtd">
<svg xmlns="http://www.w3.org/2000/svg" xml:space="preserve" width="580px" height="580px" shape-rendering="geometricPrecision" text-rendering="geometricPrecision" image-rendering="optimizeQuality" fill-rule="nonzero" clip-rule="nonzero" viewBox="0 0 5800 5800" xmlns:xlink="http://www.w3.org/1999/xlink">
	<title>diamond icon</title>
	<desc>diamond icon from the IconExperience.com I-Collection. Copyright by INCORS GmbH (www.incors.com).</desc>
		<path id="curve28" d="M1452 500l2896 0 1178 1499 -2626 3466 -2626 -3466 1178 -1499zm96 200l-942 1200 1228 0 515 -1200 -801 0zm2704 0l-789 0 515 1200 1216 0 -942 -1200zm-1006 0l-680 0 -515 1200 1710 0 -515 -1200zm-108 4121l2061 -2721 -1211 0 -850 2721zm-2537 -2721l2086 2754 -860 -2754 -1226 0zm1435 0l871 2789 872 -2789 -1743 0z"/>
</svg>