<?xml version="1.0" encoding="UTF-8"?>
<!DOCTYPE svg PUBLIC "-//W3C//DTD SVG 1.1//EN" "http://www.w3.org/Graphics/SVG/1.1/DTD/svg11.dtd">
<svg xmlns="http://www.w3.org/2000/svg" xml:space="preserve" width="580px" height="580px" shape-rendering="geometricPrecision" text-rendering="geometricPrecision" image-rendering="optimizeQuality" fill-rule="nonzero" clip-rule="nonzero" viewBox="0 0 5800 5800" xmlns:xlink="http://www.w3.org/1999/xlink">
	<title>dice icon</title>
	<desc>dice icon from the IconExperience.com I-Collection. Copyright by INCORS GmbH (www.incors.com).</desc>
	<path id="curve0"  d="M2432 4694c34,-58 83,-108 138,-136 147,-74 284,23 284,183 0,63 -21,130 -55,187 -49,82 -137,161 -238,161 -116,0 -184,-99 -184,-208 0,-63 21,-130 55,-187zm2262 -2726c-83,-48 -161,-137 -161,-238 0,-69 38,-128 99,-160 93,-46 210,-20 296,31 82,49 161,137 161,238 0,69 -38,129 -100,160 -92,47 -210,20 -295,-31zm-2221 -1345l-320 639 -297 149 555 -1111 2250 0 950 1900 -950 1900 -361 0 0 -200 239 0 800 -1600 -1039 0 0 -11 -166 -83 -211 -106 1416 0 -800 -1600 -1905 0 637 1274 -297 -148 -501 -1003zm2085 1947c28,-55 78,-104 136,-138 57,-34 124,-55 187,-55 41,0 78,9 108,24 31,16 56,38 73,65 17,28 27,60 27,95 0,32 -8,65 -26,99 -28,56 -78,105 -135,139 -57,34 -124,55 -187,55 -41,0 -78,-9 -109,-25 -31,-15 -55,-37 -72,-65 -18,-28 -27,-60 -27,-94 0,-32 8,-66 25,-100zm-258 789c65,-18 137,-19 198,11 101,52 123,163 74,260 -50,99 -164,171 -272,189l0 -460zm-1243 -2360c-82,-49 -161,-137 -161,-238 0,-116 99,-184 208,-184 63,0 130,21 187,55 58,34 108,83 136,138 49,97 27,208 -74,259 -93,47 -210,21 -296,-30zm819 485c-83,-49 -162,-138 -162,-239 0,-116 100,-183 208,-183 63,0 130,20 187,54 58,34 108,83 136,139 49,97 27,208 -74,259 -93,47 -210,20 -295,-30zm-99 989l-1577 -789 -1577 789 1577 788 1577 -788zm-3277 161l0 1905 1600 800 0 -1905 -1600 -800zm1800 2705l1600 -800 0 -1905 -1600 800 0 1905zm1800 -2928l0 2189 0 61 -55 28 -1845 922 -1900 -950 0 -2250 1900 -950 1900 950zm-1900 -136c99,0 231,33 279,129 47,94 -9,183 -96,227 -106,53 -260,53 -366,0 -87,-44 -143,-133 -96,-227 48,-96 180,-129 279,-129zm-1340 646c56,29 105,78 139,136 51,86 77,203 31,296 -32,61 -91,99 -160,99 -101,0 -190,-79 -238,-161 -34,-57 -55,-124 -55,-187 0,-41 9,-78 24,-108 52,-102 164,-123 259,-75zm485 819c56,28 105,78 139,136 50,85 77,202 30,295 -51,101 -162,123 -259,74 -112,-57 -193,-198 -193,-323 0,-160 136,-257 283,-182zm485 -327c112,57 193,197 193,322 0,109 -68,208 -184,208 -101,0 -189,-78 -238,-161 -51,-85 -77,-203 -30,-295 51,-101 162,-123 259,-74zm0 1145c55,28 104,78 138,136 34,57 55,124 55,187 0,109 -68,208 -184,208 -101,0 -189,-79 -238,-161 -51,-86 -77,-203 -30,-296 51,-101 162,-123 259,-74zm-970 -491c56,28 105,78 139,136 51,85 77,203 31,295 -51,100 -162,124 -260,74 -55,-28 -104,-78 -138,-136 -51,-85 -78,-202 -31,-295 51,-101 162,-123 259,-74zm2680 -1146c146,-74 283,23 283,183 0,63 -21,130 -55,187 -48,82 -137,161 -238,161 -116,0 -184,-99 -184,-208 0,-125 81,-266 194,-323zm-624 955c34,-58 83,-108 139,-136 147,-75 283,22 283,182 0,63 -20,130 -54,187 -49,83 -138,162 -238,162 -117,0 -184,-100 -184,-208 0,-64 20,-130 54,-187z"/>
</svg>