<?xml version="1.0" encoding="UTF-8"?>
<!DOCTYPE svg PUBLIC "-//W3C//DTD SVG 1.1//EN" "http://www.w3.org/Graphics/SVG/1.1/DTD/svg11.dtd">
<svg xmlns="http://www.w3.org/2000/svg" xml:space="preserve" width="580px" height="580px" shape-rendering="geometricPrecision" text-rendering="geometricPrecision" image-rendering="optimizeQuality" fill-rule="nonzero" clip-rule="nonzero" viewBox="0 0 5800 5800" xmlns:xlink="http://www.w3.org/1999/xlink">
	<title>dice icon</title>
	<desc>dice icon from the IconExperience.com I-Collection. Copyright by INCORS GmbH (www.incors.com).</desc>
	<path id="curve0"  d="M2200 1461l-1800 900 1800 900 1800 -900 -1800 -900zm570 3117c116,0 184,99 184,208 0,151 -129,348 -293,348 -116,0 -184,-99 -184,-208 0,-151 129,-348 293,-348zm482 -831c116,0 184,99 184,208 0,151 -129,348 -293,348 -116,0 -184,-99 -184,-208 0,-151 129,-348 293,-348zm499 -829c117,0 184,99 184,208 0,151 -128,348 -293,348 -116,0 -184,-100 -184,-208 0,-151 129,-348 293,-348zm-2971 1194c113,57 194,198 194,323 0,108 -68,208 -184,208 -164,0 -293,-197 -293,-349 0,-160 137,-256 283,-182zm970 491c112,57 193,198 193,323 0,109 -68,208 -184,208 -164,0 -293,-197 -293,-348 0,-160 137,-257 284,-183zm0 -1145c112,57 193,197 193,322 0,109 -68,208 -184,208 -164,0 -293,-197 -293,-348 0,-160 137,-257 284,-182zm-485 327c112,57 193,198 193,323 0,160 -136,257 -283,182 -313,-158 -212,-658 90,-505zm-485 -819c113,57 194,198 194,323 0,109 -68,208 -184,208 -32,0 -66,-8 -100,-25 -112,-57 -193,-198 -193,-323 0,-160 137,-257 283,-183zm1424 -794c118,0 296,54 296,198 0,144 -178,198 -296,198 -117,0 -296,-54 -296,-198 0,-144 179,-198 296,-198zm1896 362l-1800 900 0 2127 1800 -900 0 -2127zm-2000 3027l0 -2127 -1800 -900 0 2127 1800 900zm-244 -4150l344 -172 774 387 -613 -1226 -505 1011zm2444 889l1261 0 -900 1800 -361 0 0 -184c130,-27 283,-142 283,-286 0,-150 -153,-205 -283,-175l0 -982 0 -173zm380 -620c0,-116 100,-184 208,-184 151,0 348,129 348,293 0,116 -99,184 -208,184 -151,0 -348,-129 -348,-293zm-818 -485c0,-116 99,-183 208,-183 151,0 348,128 348,293 0,116 -99,183 -208,183 -151,0 -348,-128 -348,-293zm-818 -484c0,-116 99,-184 208,-184 125,0 265,81 322,193 75,147 -22,284 -182,284 -151,0 -348,-129 -348,-293zm1499 1959c-74,147 22,284 182,284 125,0 266,-81 323,-194 75,-146 -22,-283 -182,-283 -125,0 -266,81 -323,193zm-2009 -2370l737 1474 652 326 1638 0 -900 -1800 -2127 0z"/>
</svg>