<?xml version="1.0" encoding="UTF-8"?>
<!DOCTYPE svg PUBLIC "-//W3C//DTD SVG 1.1//EN" "http://www.w3.org/Graphics/SVG/1.1/DTD/svg11.dtd">
<svg xmlns="http://www.w3.org/2000/svg" xml:space="preserve" width="580px" height="580px" shape-rendering="geometricPrecision" text-rendering="geometricPrecision" image-rendering="optimizeQuality" fill-rule="nonzero" clip-rule="nonzero" viewBox="0 0 5800 5800" xmlns:xlink="http://www.w3.org/1999/xlink">
	<title>dictation_microphone icon</title>
	<desc>dictation_microphone icon from the IconExperience.com I-Collection. Copyright by INCORS GmbH (www.incors.com).</desc>
	<path id="curve0"  d="M1900 600c0,-220 180,-400 400,-400l1200 0c220,0 400,180 400,400l0 4000c0,552 -448,1000 -1000,1000 -552,0 -1000,-448 -1000,-1000l0 -4000zm929 3629l347 -346c-79,-52 -174,-83 -276,-83 -276,0 -500,224 -500,500 0,276 224,500 500,500 276,0 500,-224 500,-500 0,-102 -31,-197 -83,-276l-346 347 -142 -142zm-29 -2229c-165,0 -300,135 -300,300l0 800c0,165 135,300 300,300l200 0c165,0 300,-135 300,-300l0 -800c0,-165 -135,-300 -300,-300l-200 0zm200 200c55,0 100,45 100,100l0 200 -400 0 0 -200c0,-55 45,-100 100,-100l200 0zm-300 500l400 0 0 400c0,55 -45,100 -100,100l-200 0c-55,0 -100,-45 -100,-100l0 -400zm-200 -1750c-83,0 -150,67 -150,150 0,82 67,150 150,150 82,0 150,-68 150,-150 0,-82 -67,-150 -150,-150zm600 -350c-83,0 -150,67 -150,150 0,82 68,150 150,150 82,0 150,-67 150,-150 0,-83 -67,-150 -150,-150zm-400 0c-83,0 -150,67 -150,150 0,83 67,150 150,150 82,0 150,-68 150,-150 0,-82 -67,-150 -150,-150zm600 350c-83,0 -150,67 -150,150 0,82 68,150 150,150 82,0 150,-67 150,-150 0,-83 -67,-150 -150,-150zm-403 0c-82,0 -150,67 -150,150 0,82 68,150 150,150 83,0 150,-67 150,-150 0,-83 -67,-150 -150,-150zm204 350c-82,0 -150,67 -150,150 0,82 68,150 150,150 83,0 150,-67 150,-150 0,-83 -67,-150 -150,-150zm-402 0c-83,0 -150,67 -150,150 0,83 67,150 150,150 82,0 150,-68 150,-150 0,-82 -68,-150 -150,-150z"/>
</svg>