<?xml version="1.0" encoding="UTF-8"?>
<!DOCTYPE svg PUBLIC "-//W3C//DTD SVG 1.1//EN" "http://www.w3.org/Graphics/SVG/1.1/DTD/svg11.dtd">
<svg xmlns="http://www.w3.org/2000/svg" xml:space="preserve" width="580px" height="580px" shape-rendering="geometricPrecision" text-rendering="geometricPrecision" image-rendering="optimizeQuality" fill-rule="nonzero" clip-rule="nonzero" viewBox="0 0 5800 5800" xmlns:xlink="http://www.w3.org/1999/xlink">
	<title>dictionary icon</title>
	<desc>dictionary icon from the IconExperience.com I-Collection. Copyright by INCORS GmbH (www.incors.com).</desc>
		<path id="curve28"  d="M1700 3700l0 -100c0,-68 5,-132 16,-196 11,-63 29,-126 55,-192l336 -849c16,-39 53,-63 93,-63l200 0c44,0 81,28 94,67l335 845c24,61 44,127 55,192 11,64 16,128 16,196l0 100 -200 0 0 -100c0,-58 -4,-110 -13,-162 -2,-13 -5,-25 -8,-38l-758 0c-3,13 -6,25 -8,38 -9,51 -13,104 -13,162l0 100 -200 0zm-600 -2700c0,275 225,500 500,500l3100 0c110,0 200,90 200,200l0 3800 -3300 0c-386,0 -700,-314 -700,-700l0 -3800c0,-386 314,-700 700,-700l3100 0c110,0 200,90 200,200 -1100,0 -2200,0 -3300,0 -275,0 -500,225 -500,500zm0 489l0 3311c0,275 225,500 500,500l3100 0 0 -3600 -3100 0c-190,0 -366,-76 -500,-211zm2000 1811l1200 0 0 159c0,53 -21,104 -59,141l-900 900 959 0 0 200 -1200 0 0 -159c0,-26 5,-51 15,-76 10,-25 25,-46 44,-65l900 -900 -959 0 0 -200zm-1500 -2600l3100 0 0 200 -3383 0c42,-120 156,-200 283,-200zm-283 400l3383 0 0 200 -3115 0c-122,-6 -227,-85 -268,-200zm1292 2100l-277 -700 -64 0 -277 700 618 0z"/>
</svg>