<?xml version="1.0" encoding="UTF-8"?>
<!DOCTYPE svg PUBLIC "-//W3C//DTD SVG 1.1//EN" "http://www.w3.org/Graphics/SVG/1.1/DTD/svg11.dtd">
<svg xmlns="http://www.w3.org/2000/svg" xml:space="preserve" width="580px" height="580px" shape-rendering="geometricPrecision" text-rendering="geometricPrecision" image-rendering="optimizeQuality" fill-rule="nonzero" clip-rule="nonzero" viewBox="0 0 5800 5800" xmlns:xlink="http://www.w3.org/1999/xlink">
	<title>dictation_microphone icon</title>
	<desc>dictation_microphone icon from the IconExperience.com I-Collection. Copyright by INCORS GmbH (www.incors.com).</desc>
	<path id="curve0" d="M2699 1300c82,0 150,68 150,150 0,82 -68,150 -150,150 -83,0 -150,-67 -150,-150 0,-41 16,-79 44,-106 27,-27 64,-44 106,-44zm1 1200l400 0 0 -200c0,-55 -45,-100 -100,-100l-200 0c-55,0 -100,45 -100,100l0 200zm400 200l-400 0 0 400c0,55 45,100 100,100l200 0c55,0 100,-45 100,-100l0 -400zm-300 -700l200 0c165,0 300,135 300,300l0 800c0,165 -135,300 -300,300l-200 0c-165,0 -300,-135 -300,-300l0 -800c0,-165 135,-300 300,-300zm29 2229l274 -274c-59,-35 -129,-55 -203,-55 -221,0 -400,179 -400,400 0,221 179,400 400,400 221,0 400,-179 400,-400 0,-74 -20,-144 -55,-203l-274 274 -142 -142zm-929 -3629c0,-107 43,-208 118,-283 73,-72 172,-117 282,-117l1200 0c220,0 400,180 400,400l0 4000c0,552 -448,1000 -1000,1000 -552,0 -1000,-448 -1000,-1000l0 -4000zm200 4000c0,442 358,800 800,800 442,0 800,-358 800,-800l0 -4000c0,-110 -90,-200 -200,-200l-1200 0c-111,0 -200,89 -200,200l0 4000zm800 -900c331,0 600,269 600,600 0,331 -269,600 -600,600 -331,0 -600,-269 -600,-600 0,-331 269,-600 600,-600zm-400 -2750c83,0 150,68 150,150 0,82 -68,150 -150,150 -83,0 -150,-68 -150,-150 0,-83 67,-150 150,-150zm600 -350c41,0 79,17 106,44 27,27 44,65 44,106 0,83 -68,150 -150,150 -82,0 -150,-68 -150,-150 0,-83 67,-150 150,-150zm-400 0c83,0 150,68 150,150 0,82 -68,150 -150,150 -83,0 -150,-67 -150,-150 0,-83 67,-150 150,-150zm600 350c41,0 79,17 106,44 27,27 44,65 44,106 0,83 -68,150 -150,150 -82,0 -150,-68 -150,-150 0,-83 67,-150 150,-150zm-403 0c42,0 79,17 106,44 28,27 44,65 44,106 0,83 -67,150 -150,150 -82,0 -150,-68 -150,-150 0,-83 68,-150 150,-150zm204 350c83,0 150,67 150,150 0,83 -67,150 -150,150 -82,0 -150,-68 -150,-150 0,-83 68,-150 150,-150z"/>
</svg>