<?xml version="1.0" encoding="UTF-8"?>
<!DOCTYPE svg PUBLIC "-//W3C//DTD SVG 1.1//EN" "http://www.w3.org/Graphics/SVG/1.1/DTD/svg11.dtd">
<svg xmlns="http://www.w3.org/2000/svg" xml:space="preserve" width="580px" height="580px" shape-rendering="geometricPrecision" text-rendering="geometricPrecision" image-rendering="optimizeQuality" fill-rule="nonzero" clip-rule="nonzero" viewBox="0 0 5800 5800" xmlns:xlink="http://www.w3.org/1999/xlink">
	<title>die icon</title>
	<desc>die icon from the IconExperience.com I-Collection. Copyright by INCORS GmbH (www.incors.com).</desc>
		<path id="curve28" d="M4977 1600l-1977 -989 -1977 989 1977 989 1977 -989zm-2077 1161l-2000 -1000 0 2378 2000 1000 0 -2378zm200 2378l2000 -1000 0 -2378 -2000 1000 0 2378zm2200 -3600l0 2722 -2300 1150 -2300 -1150 0 -2722 2300 -1150 2300 1150zm-3947 2029c-39,-19 -76,-28 -112,-28 -130,0 -203,111 -203,232 0,73 25,150 64,217 40,67 97,125 161,157 38,20 76,29 111,29 38,0 73,-10 104,-30 30,-19 54,-46 72,-79 17,-35 27,-76 27,-123 0,-73 -24,-151 -64,-217 -39,-67 -96,-125 -160,-158zm1073 572c-130,0 -203,111 -203,232 0,144 95,309 224,375 39,19 77,28 112,28 38,0 73,-10 104,-29 30,-19 54,-46 71,-80 18,-35 28,-76 28,-123 0,-172 -148,-403 -336,-403zm0 -1400c-130,0 -203,111 -203,232 0,172 148,403 336,403 131,0 203,-112 203,-232 0,-172 -148,-403 -336,-403zm-481 428c-38,-19 -76,-28 -112,-28 -129,0 -202,111 -202,232 0,172 148,403 336,403 129,0 202,-111 202,-232 0,-144 -94,-309 -224,-375zm-704 -1028c-130,0 -203,111 -203,232 0,172 148,403 336,403 130,0 203,-112 203,-232 0,-173 -148,-403 -336,-403zm2590 1403c0,121 73,232 202,232 188,0 336,-231 336,-403 0,-121 -73,-232 -202,-232 -188,0 -336,231 -336,403zm656 -1217c-73,122 -108,330 35,419 31,20 66,30 104,30 115,0 216,-92 272,-186 39,-67 64,-144 64,-217 0,-121 -73,-232 -203,-232 -36,0 -73,9 -112,28 -64,33 -121,91 -160,158zm-1249 2217c0,121 73,232 203,232 188,0 336,-231 336,-403 0,-121 -73,-232 -203,-232 -188,0 -336,231 -336,403zm-559 -3017c-52,104 11,200 107,248 62,30 139,46 214,46 130,0 339,-58 339,-220 0,-162 -208,-220 -339,-220 -112,0 -267,37 -321,146z"/>
</svg>