<?xml version="1.0" encoding="UTF-8"?>
<!DOCTYPE svg PUBLIC "-//W3C//DTD SVG 1.1//EN" "http://www.w3.org/Graphics/SVG/1.1/DTD/svg11.dtd">
<svg xmlns="http://www.w3.org/2000/svg" xml:space="preserve" width="580px" height="580px" shape-rendering="geometricPrecision" text-rendering="geometricPrecision" image-rendering="optimizeQuality" fill-rule="nonzero" clip-rule="nonzero" viewBox="0 0 5800 5800" xmlns:xlink="http://www.w3.org/1999/xlink">
	<title>disability icon</title>
	<desc>disability icon from the IconExperience.com I-Collection. Copyright by INCORS GmbH (www.incors.com).</desc>
		<path id="curve28" d="M2300 2900c718,0 1300,582 1300,1300 0,718 -582,1300 -1300,1300 -718,0 -1300,-582 -1300,-1300 0,-288 94,-555 253,-771l98 214c-96,163 -151,354 -151,557 0,608 492,1100 1100,1100 608,0 1100,-492 1100,-1100 0,-608 -492,-1100 -1100,-1100 -175,0 -340,41 -487,113l-84 -181c172,-85 366,-132 571,-132zm-255 -656l-634 353c-46,26 -65,82 -43,130l523 1131 -182 84 -522 -1132c-66,-142 -11,-311 127,-387l703 -391 -17 -128 0 -119c-348,-71 -600,-378 -600,-735 0,-414 336,-750 750,-750 414,0 750,336 750,750 0,395 -306,722 -700,748l0 98 107 804c-66,0 -133,4 -199,12l-63 -468zm1455 1056l263 0c126,0 234,75 279,193l415 1077 406 -163 74 186 -594 237 -487 -1266c-15,-40 -51,-64 -93,-64l-136 0c-37,-70 -80,-137 -127,-200zm-1350 -2800c-304,0 -550,246 -550,550 0,304 246,550 550,550 304,0 550,-246 550,-550 0,-304 -246,-550 -550,-550z"/>
</svg>