<?xml version="1.0" encoding="UTF-8"?>
<!DOCTYPE svg PUBLIC "-//W3C//DTD SVG 1.1//EN" "http://www.w3.org/Graphics/SVG/1.1/DTD/svg11.dtd">
<svg xmlns="http://www.w3.org/2000/svg" xml:space="preserve" width="580px" height="580px" shape-rendering="geometricPrecision" text-rendering="geometricPrecision" image-rendering="optimizeQuality" fill-rule="nonzero" clip-rule="nonzero" viewBox="0 0 5800 5800" xmlns:xlink="http://www.w3.org/1999/xlink">
	<title>disinfection icon</title>
	<desc>disinfection icon from the IconExperience.com I-Collection. Copyright by INCORS GmbH (www.incors.com).</desc>
	<path id="curve0"  d="M2700 1100l-1300 0c-55,0 -100,45 -100,100l0 300 -200 0 0 -300c0,-165 135,-300 300,-300l1300 0 0 -100c0,-165 135,-300 300,-300l400 0c165,0 300,135 300,300l0 500 200 0 0 600 200 0c220,0 400,180 400,400l0 2800c0,220 -180,400 -400,400l-2200 0c-220,0 -400,-180 -400,-400l0 -2234c0,-136 51,-258 146,-354l466 -466c96,-95 218,-146 354,-146l34 0 0 -600 200 0 0 -200zm1000 400l-1000 0 0 400 1000 0 0 -400zm-1234 600c-85,0 -153,28 -212,88l-466 466c-60,59 -88,127 -88,212l0 2234c0,110 90,200 200,200l2200 0c110,0 200,-90 200,-200l0 -2800c0,-110 -90,-200 -200,-200 -544,-1 -1091,-6 -1634,0zm934 -1400l-400 0c-55,0 -100,45 -100,100l0 500 600 0 0 -500c0,-55 -45,-100 -100,-100z"/>
</svg>