<?xml version="1.0" encoding="UTF-8"?>
<!DOCTYPE svg PUBLIC "-//W3C//DTD SVG 1.1//EN" "http://www.w3.org/Graphics/SVG/1.1/DTD/svg11.dtd">
<svg xmlns="http://www.w3.org/2000/svg" xml:space="preserve" width="580px" height="580px" shape-rendering="geometricPrecision" text-rendering="geometricPrecision" image-rendering="optimizeQuality" fill-rule="nonzero" clip-rule="nonzero" viewBox="0 0 5800 5800" xmlns:xlink="http://www.w3.org/1999/xlink">
	<title>diving_mask icon</title>
	<desc>diving_mask icon from the IconExperience.com I-Collection. Copyright by INCORS GmbH (www.incors.com).</desc>
	<path id="curve0"  d="M5593 2060l-43 647c-33,484 -399,893 -900,893l-434 0c-300,0 -556,-181 -658,-463l-120 -332c-22,-62 -74,-105 -141,-105 -67,0 -118,43 -140,105l-120 332c-102,282 -359,463 -658,463l-434 0c-501,0 -867,-409 -900,-893l-43 -648c-1,-23 -2,-43 -2,-61 0,-498 403,-898 900,-898l2795 0c498,0 900,401 900,898 0,18 -1,39 -2,62zm-443 590l-200 0c0,221 -179,400 -400,400l0 200c331,0 600,-269 600,-600zm-2579 979l170 171c373,0 745,0 1118,0l170 -171 142 142 -230 229 -344 0c-52,898 -797,1600 -1697,1600 -939,0 -1700,-761 -1700,-1700l0 -3700c200,0 400,0 600,0l0 3700c0,608 492,1100 1100,1100 569,0 1045,-434 1096,-1000l-337 0 -230 -229 142 -142z"/>
</svg>