<?xml version="1.0" encoding="UTF-8"?>
<!DOCTYPE svg PUBLIC "-//W3C//DTD SVG 1.1//EN" "http://www.w3.org/Graphics/SVG/1.1/DTD/svg11.dtd">
<svg xmlns="http://www.w3.org/2000/svg" xml:space="preserve" width="580px" height="580px" shape-rendering="geometricPrecision" text-rendering="geometricPrecision" image-rendering="optimizeQuality" fill-rule="nonzero" clip-rule="nonzero" viewBox="0 0 5800 5800" xmlns:xlink="http://www.w3.org/1999/xlink">
	<title>diving_mask icon</title>
	<desc>diving_mask icon from the IconExperience.com I-Collection. Copyright by INCORS GmbH (www.incors.com).</desc>
	<path id="curve0"  d="M5150 2650c0,331 -269,600 -600,600l0 -200c221,0 400,-179 400,-400l200 0zm-1853 50c-67,0 -118,43 -140,105l-120 332c-102,282 -359,463 -658,463l-434 0c-501,0 -867,-409 -900,-893l-43 -649c-1,-22 -2,-42 -2,-60 0,-473 366,-864 838,-896 22,-1 43,-2 62,-2l2795 0c19,0 40,1 62,2 472,32 838,423 838,896 0,21 -1,41 -2,62l-43 647c-33,484 -399,893 -900,893l-434 0c-300,0 -556,-181 -658,-463l-120 -332c-22,-62 -74,-105 -141,-105zm0 -200c151,0 278,97 329,237l120 333c73,203 255,330 470,330l434 0c394,0 675,-328 700,-707l44 -646c1,-15 1,-31 1,-49 0,-370 -283,-672 -652,-697 -14,-1 -30,-1 -48,-1l-2795 0c-18,0 -34,0 -49,1 -369,25 -651,327 -651,697 0,17 0,33 1,47l43 648c26,379 306,707 701,707l434 0c215,0 397,-127 470,-330l120 -333c51,-140 178,-237 328,-237zm-101 1500c-51,676 -617,1200 -1296,1200 -718,0 -1300,-582 -1300,-1300l0 -3500 -200 0 0 3500c0,828 672,1500 1500,1500 790,0 1445,-613 1497,-1400l-201 0zm401 0c-52,898 -797,1600 -1697,1600 -939,0 -1700,-761 -1700,-1700l0 -3700 600 0 0 3700c0,608 492,1100 1100,1100 569,0 1045,-434 1096,-1000l-337 0 -230 -229 142 -142 170 171 1118 0 170 -171 142 142 -230 229 -344 0z"/>
</svg>