<?xml version="1.0" encoding="UTF-8"?>
<!DOCTYPE svg PUBLIC "-//W3C//DTD SVG 1.1//EN" "http://www.w3.org/Graphics/SVG/1.1/DTD/svg11.dtd">
<svg xmlns="http://www.w3.org/2000/svg" xml:space="preserve" width="580px" height="580px" shape-rendering="geometricPrecision" text-rendering="geometricPrecision" image-rendering="optimizeQuality" fill-rule="nonzero" clip-rule="nonzero" viewBox="0 0 5800 5800" xmlns:xlink="http://www.w3.org/1999/xlink">
	<title>dna icon</title>
	<desc>dna icon from the IconExperience.com I-Collection. Copyright by INCORS GmbH (www.incors.com).</desc>
		<path id="curve29"  d="M982 5500c0,-406 183,-723 484,-986 358,-314 872,-532 1317,-691 259,-92 474,-182 650,-272 164,-84 293,-167 392,-251l-1249 0c130,57 277,115 441,173 20,8 41,15 61,23 -108,45 -229,92 -361,139 -261,93 -490,188 -691,287 -209,-106 -416,-231 -592,-386 -169,-147 -289,-301 -368,-465 -79,-165 -116,-339 -116,-521 0,-183 37,-356 117,-522 79,-164 200,-318 370,-466 363,-315 883,-531 1332,-689 165,-58 313,-115 445,-173l-1237 0c68,57 150,114 248,170 -318,137 -573,279 -776,428 -302,-262 -499,-589 -499,-998 1283,0 2567,0 3850,0 -77,256 -237,464 -437,638 -363,315 -883,531 -1332,689 -326,114 -711,265 -990,473l1055 0c-125,-51 -250,-96 -376,-141 112,-47 238,-95 377,-144 258,-91 486,-184 685,-279 204,103 407,225 581,376 302,263 487,580 487,988 0,406 -183,723 -484,986 -358,314 -872,532 -1317,691 -253,90 -510,192 -745,323l1631 0c-89,-127 -240,-232 -371,-311 314,-135 569,-275 772,-424 299,263 482,580 482,985 0,118 -17,237 -49,350l-898 0c56,-56 99,-124 124,-200l-2161 0c-34,63 -52,128 -52,200l-800 0zm3068 -2600c0,-170 -103,-296 -227,-400l-2070 0c-19,161 54,290 166,400l2131 0z"/>
</svg>