<?xml version="1.0" encoding="UTF-8"?>
<!DOCTYPE svg PUBLIC "-//W3C//DTD SVG 1.1//EN" "http://www.w3.org/Graphics/SVG/1.1/DTD/svg11.dtd">
<svg xmlns="http://www.w3.org/2000/svg" xml:space="preserve" width="580px" height="580px" shape-rendering="geometricPrecision" text-rendering="geometricPrecision" image-rendering="optimizeQuality" fill-rule="nonzero" clip-rule="nonzero" viewBox="0 0 5800 5800" xmlns:xlink="http://www.w3.org/1999/xlink">
	<title>doctor icon</title>
	<desc>doctor icon from the IconExperience.com I-Collection. Copyright by INCORS GmbH (www.incors.com).</desc>
		<path id="curve28"  d="M2900 100c387,0 700,313 700,700 0,387 -313,700 -700,700 -387,0 -700,-313 -700,-700 0,-387 313,-700 700,-700zm965 3792c-7,172 -131,347 -274,549 -168,236 -366,514 -389,852 358,-15 804,-57 1143,-145 264,-68 455,-157 455,-268 0,-134 -26,-273 -78,-402 -47,-120 -117,-231 -208,-319 -96,-93 -363,-178 -508,-222 -49,-14 -95,-28 -141,-45zm-1267 1401c-23,-338 -221,-616 -389,-852 -143,-202 -267,-377 -274,-549 -46,17 -92,31 -141,45 -145,44 -412,129 -508,222 -91,88 -160,199 -208,319 -52,129 -78,269 -78,402 0,111 191,200 455,268 339,88 786,130 1143,145zm-399 -1543l291 297 122 -162c-122,-65 -263,-105 -378,-175 -10,14 -21,28 -35,40zm989 135l123 163 294 -294c-16,-13 -29,-28 -40,-44 -115,70 -256,110 -377,175zm-1084 -665c-1,-28 -3,-56 -3,-80 -137,-154 -191,-360 -242,-556 -1,-6 -3,-14 -8,-30 -193,-122 -266,-374 -215,-589 -51,-218 -79,-451 -57,-665l697 0c152,190 380,300 624,300 244,0 472,-110 624,-300l684 0c28,195 15,415 -44,665 51,216 -21,467 -215,589 -5,17 -7,27 -10,37 -49,191 -102,394 -239,548 0,35 -2,70 -3,107 -3,76 -12,252 22,331 32,75 275,148 344,169 186,56 462,146 590,270 111,108 196,243 254,389 62,153 93,318 93,475 0,225 -254,370 -605,461 -465,121 -1113,159 -1495,159 -382,0 -1030,-38 -1495,-159 -351,-91 -605,-236 -605,-461 0,-157 31,-322 93,-476 58,-145 143,-280 254,-388 128,-124 404,-214 590,-270 68,-21 311,-94 343,-169 38,-85 27,-274 24,-357zm-454 -2220c41,-102 100,-194 181,-272 92,-88 193,-155 314,-194 -52,149 -59,313 -20,466l-475 0zm1972 -545c229,114 403,310 503,545l-450 0c46,-181 28,-376 -53,-545zm-460 4286c79,-153 177,-290 266,-416 80,-112 153,-214 194,-306l-333 333 -185 -248c-40,37 -80,72 -104,96 85,170 134,358 162,541zm-524 0c28,-183 77,-371 162,-541l-100 -100 -190 253 -337 -345c41,95 116,200 199,317 89,126 187,263 266,416zm262 -4061c66,0 120,54 120,120 0,66 -54,120 -120,120 -66,0 -120,-54 -120,-120 0,-66 54,-120 120,-120zm0 -380c-276,0 -500,224 -500,500 0,276 224,500 500,500 276,0 500,-224 500,-500 0,-276 -224,-500 -500,-500z"/>
</svg>