<?xml version="1.0" encoding="UTF-8"?>
<!DOCTYPE svg PUBLIC "-//W3C//DTD SVG 1.1//EN" "http://www.w3.org/Graphics/SVG/1.1/DTD/svg11.dtd">
<svg xmlns="http://www.w3.org/2000/svg" xml:space="preserve" width="580px" height="580px" shape-rendering="geometricPrecision" text-rendering="geometricPrecision" image-rendering="optimizeQuality" fill-rule="nonzero" clip-rule="nonzero" viewBox="0 0 5800 5800" xmlns:xlink="http://www.w3.org/1999/xlink">
	<title>doctor icon</title>
	<desc>doctor icon from the IconExperience.com I-Collection. Copyright by INCORS GmbH (www.incors.com).</desc>
		<path id="curve28" d="M1871 1000l358 0c-19,-63 -29,-131 -29,-200 0,-26 1,-51 4,-76 -91,31 -166,82 -235,148 -39,38 -72,81 -98,128zm1029 -320c66,0 120,54 120,120 0,66 -54,120 -120,120 -66,0 -120,-54 -120,-120 0,-66 54,-120 120,-120zm630 2349c121,-119 170,-309 216,-488 9,-36 18,-71 21,-79 8,-30 29,-53 56,-65 63,-33 108,-90 133,-156 29,-78 32,-168 9,-247 -5,-18 -5,-35 -1,-52l0 0c61,-247 74,-459 42,-642l-616 0c-126,124 -299,200 -490,200 -191,0 -364,-76 -490,-200l-631 0c-24,202 5,430 57,642 5,19 4,39 -2,56 -22,78 -18,166 11,243 25,67 71,125 136,157 27,14 45,37 52,64l19 72c48,183 99,377 218,495 20,19 30,45 30,71 0,41 1,75 3,112 4,92 8,195 -3,290 4,31 94,69 204,115 131,54 280,116 396,228 116,-112 265,-174 396,-228 109,-46 199,-83 204,-114 -10,-85 -6,-178 -2,-265 2,-49 3,-97 2,-136 0,-28 11,-54 30,-73zm41 -2029l332 0c-74,-136 -182,-259 -317,-338 9,45 14,91 14,138 0,69 -10,137 -29,200zm-103 -609c157,54 299,134 403,238 163,164 272,355 322,583 47,217 39,465 -29,753 27,113 20,237 -22,346 -37,98 -101,185 -193,243 -5,17 -7,27 -10,37 -49,191 -102,394 -239,548 0,35 -2,70 -3,107 -3,79 -7,164 2,238 5,32 7,62 20,93 8,20 16,27 34,38 115,72 205,99 310,131 69,21 136,43 204,67 126,46 283,104 386,203 111,108 196,243 254,389 62,153 93,318 93,475 0,225 -254,370 -605,461 -465,121 -1113,159 -1495,159 -382,0 -1030,-38 -1495,-159 -351,-91 -605,-236 -605,-461 0,-157 31,-322 93,-476 58,-145 143,-280 254,-388 106,-102 265,-159 402,-209 57,-24 128,-43 188,-61 104,-32 193,-58 307,-129 55,-37 46,-80 58,-138 9,-79 5,-174 2,-259 -1,-28 -3,-56 -3,-80 -137,-154 -191,-360 -242,-556 -1,-6 -3,-14 -8,-30 -92,-58 -156,-145 -193,-243 -41,-109 -48,-234 -22,-346 -55,-234 -83,-485 -52,-712 28,-203 103,-387 247,-525 122,-117 256,-191 423,-222 6,-5 11,-10 18,-15 117,-239 360,-391 628,-391 226,0 436,108 568,291zm-568 -91c-276,0 -500,224 -500,500 0,276 224,500 500,500 276,0 500,-224 500,-500 0,-276 -224,-500 -500,-500zm302 4993c358,-15 804,-57 1143,-145 264,-68 455,-157 455,-268 0,-134 -26,-273 -78,-402 -47,-120 -117,-231 -208,-319 -72,-70 -207,-119 -315,-158 -64,-23 -127,-44 -193,-64 -49,-14 -95,-28 -141,-45 -7,172 -131,347 -274,549 -168,236 -366,514 -389,852zm403 -1539c-16,-14 -29,-28 -40,-44 -54,33 -121,61 -193,91 -59,25 -123,51 -184,84l123 163 294 -294zm-1371 -44c-10,14 -21,28 -35,40l291 297 122 -162c-61,-33 -125,-59 -184,-84 -72,-30 -139,-58 -194,-91zm-299 182c-46,17 -92,31 -141,45 -65,20 -129,40 -193,64 -108,39 -243,88 -315,158 -91,88 -160,199 -208,319 -52,129 -78,269 -78,402 0,111 191,200 455,268 339,88 786,130 1143,145 -23,-338 -221,-616 -389,-852 -143,-202 -267,-377 -274,-549zm1169 212c-40,37 -80,72 -104,96 85,170 134,358 162,541 79,-153 177,-290 266,-416 40,-56 78,-110 112,-161l15 -78 -266 266 -185 -248zm-466 637c28,-183 77,-371 162,-541l-100 -100 -190 253 -337 -345c28,65 72,135 124,210 23,35 49,70 75,107 89,126 187,263 266,416z"/>
</svg>