<?xml version="1.0" encoding="UTF-8"?>
<!DOCTYPE svg PUBLIC "-//W3C//DTD SVG 1.1//EN" "http://www.w3.org/Graphics/SVG/1.1/DTD/svg11.dtd">
<svg xmlns="http://www.w3.org/2000/svg" xml:space="preserve" width="580px" height="580px" shape-rendering="geometricPrecision" text-rendering="geometricPrecision" image-rendering="optimizeQuality" fill-rule="nonzero" clip-rule="nonzero" viewBox="0 0 5800 5800" xmlns:xlink="http://www.w3.org/1999/xlink">
	<title>documents_empty icon</title>
	<desc>documents_empty icon from the IconExperience.com I-Collection. Copyright by INCORS GmbH (www.incors.com).</desc>
		<path id="curve29"  d="M4224 301c73,6 139,38 188,87 0,0 733,734 800,800 49,50 81,115 87,188 -53,-47 -123,-76 -199,-76l-800 0 0 -800c0,-76 -29,-146 -76,-199zm1076 1199l0 3000 -1400 0 0 -2100c0,-133 -53,-259 -147,-353l-802 -802c-94,-93 -219,-145 -351,-145l-500 0 0 -800 2000 0 0 1200 1200 0z"/>
	<path id="curve28"  d="M2624 1301c73,6 139,38 188,87 0,0 733,734 800,800 49,50 81,115 87,188 -53,-47 -123,-76 -199,-76l-800 0 0 -800c0,-76 -29,-146 -76,-199zm1076 1199l0 3000 -3200 0 0 -4200 2000 0 0 1200 1200 0z"/>
</svg>