<?xml version="1.0" encoding="UTF-8"?>
<!DOCTYPE svg PUBLIC "-//W3C//DTD SVG 1.1//EN" "http://www.w3.org/Graphics/SVG/1.1/DTD/svg11.dtd">
<svg xmlns="http://www.w3.org/2000/svg" xml:space="preserve" width="580px" height="580px" shape-rendering="geometricPrecision" text-rendering="geometricPrecision" image-rendering="optimizeQuality" fill-rule="nonzero" clip-rule="nonzero" viewBox="0 0 5800 5800" xmlns:xlink="http://www.w3.org/1999/xlink">
	<title>document_heart icon</title>
	<desc>document_heart icon from the IconExperience.com I-Collection. Copyright by INCORS GmbH (www.incors.com).</desc>
		<path id="curve29" d="M2300 2100c142,0 277,38 393,104 78,44 148,100 207,167 59,-67 129,-123 207,-167 116,-66 251,-104 393,-104 442,0 800,358 800,800 0,669 -495,1021 -907,1313 -172,123 -329,234 -413,347l-80 106 -80 -106c-84,-113 -241,-224 -413,-347 -412,-292 -907,-644 -907,-1313 0,-442 358,-800 800,-800zm295 277c-87,-49 -187,-77 -295,-77 -331,0 -600,269 -600,600 0,567 449,886 822,1151 144,102 277,197 378,298 101,-101 234,-196 378,-298 373,-265 822,-584 822,-1151 0,-331 -269,-600 -600,-600 -108,0 -208,28 -295,77 -90,51 -166,125 -219,214l-86 142 -86 -142c-53,-89 -129,-163 -219,-214z"/>
	<path id="curve28" d="M4797 1403c64,63 103,151 103,247l0 3850 -4000 0 0 -5200 2650 0c96,0 184,39 247,103 0,3 903,902 1000,1000zm-897 -615l0 512 512 0 -512 -512zm-350 -288l-2450 0 0 4800 3600 0 0 -3650c0,-83 -67,-150 -150,-150l-850 0 0 -850c0,-82 -68,-150 -150,-150z"/>
</svg>