<?xml version="1.0" encoding="UTF-8"?>
<!DOCTYPE svg PUBLIC "-//W3C//DTD SVG 1.1//EN" "http://www.w3.org/Graphics/SVG/1.1/DTD/svg11.dtd">
<svg xmlns="http://www.w3.org/2000/svg" xml:space="preserve" width="580px" height="580px" shape-rendering="geometricPrecision" text-rendering="geometricPrecision" image-rendering="optimizeQuality" fill-rule="nonzero" clip-rule="nonzero" viewBox="0 0 5800 5800" xmlns:xlink="http://www.w3.org/1999/xlink">
	<title>document_zip icon</title>
	<desc>document_zip icon from the IconExperience.com I-Collection. Copyright by INCORS GmbH (www.incors.com).</desc>
		<path id="curve29"  d="M3500 300l0 1400 1400 0 0 900 -264 0c-43,0 -85,10 -124,28l-423 193c-114,45 -189,156 -189,279l0 0 0 -100c0,-55 -45,-100 -100,-100 -55,0 -100,45 -100,100l0 100c-67,0 -133,0 -200,0l0 -100c0,-55 -45,-100 -100,-100 -55,0 -100,45 -100,100l0 100c-67,0 -133,0 -200,0l0 -100c0,-55 -45,-100 -100,-100 -55,0 -100,45 -100,100l0 100c-67,0 -133,0 -200,0l0 -100c0,-55 -45,-100 -100,-100 -55,0 -100,45 -100,100l0 100c-67,0 -133,0 -200,0l0 -100c0,-55 -45,-100 -100,-100 -55,0 -100,45 -100,100l0 100c-67,0 -133,0 -200,0l0 -100c0,-55 -45,-100 -100,-100 -55,0 -100,45 -100,100l0 100c-67,0 -133,0 -200,0l0 -100c0,-55 -45,-100 -100,-100 -55,0 -100,45 -100,100l0 100 -300 0 0 200 500 0 0 100c0,55 45,100 100,100 55,0 100,-45 100,-100l0 -100 200 0 0 100c0,55 45,100 100,100 55,0 100,-45 100,-100l0 -100 200 0 0 100c0,55 45,100 100,100 55,0 100,-45 100,-100l0 -100 200 0 0 100c0,55 45,100 100,100 55,0 100,-45 100,-100l0 -100 200 0 0 100c0,55 45,100 100,100 55,0 100,-45 100,-100l0 -100 200 0 0 100c0,55 45,100 100,100 55,0 100,-45 100,-100l0 -100 200 0c0,134 83,229 175,272l423 194c43,22 90,34 138,34l264 0 0 1700 -4000 0 0 -5200 2600 0zm144 13c59,16 111,48 153,90 0,3 998,999 1000,1000 42,42 74,94 90,153 -36,-34 -85,-56 -137,-56l-1050 0 0 -1050c0,-51 -21,-100 -56,-137z"/>
	<path id="curve28"  d="M5400 2800c55,0 100,45 100,100l0 600c0,55 -45,100 -100,100l-764 0c-18,0 -34,-5 -49,-13l-428 -196c-37,-17 -59,-53 -59,-91l0 0 0 -200c0,-43 28,-80 66,-94l429 -197c13,-6 28,-9 41,-9l764 0zm-500 200c-55,0 -102,20 -141,59 -78,77 -78,205 0,282 39,39 86,59 141,59l400 0 0 -400 -400 0z"/>
</svg>