<?xml version="1.0" encoding="utf-8"?>
<!-- Generator: Adobe Illustrator 20.1.0, SVG Export Plug-In . SVG Version: 6.00 Build 0)  -->
<svg version="1.1" id="Ebene_1" xmlns="http://www.w3.org/2000/svg" xmlns:xlink="http://www.w3.org/1999/xlink" x="0px" y="0px"
	 width="580px" height="580px" viewBox="0 0 580 580" style="enable-background:new 0 0 580 580;" xml:space="preserve">
<g>
	<path d="M479.2,140.3l-99.8-99.5c-6.3-6.4-14.9-9.8-24.5-9.8H89v520h400V165C489,155.4,485.6,146.6,479.2,140.3z M389,78.8
		l52.2,52.2H389V78.8z M469,531H109V51h246c8.2,0,14,5.8,14,14v86h86c8.3,0,14,5.7,14,14V531z"/>
	<path d="M369,280c0-44.2-35.8-80-80-80s-80,35.8-80,80v41h-20v160h200V321h-20V280z M229,280c0-33.1,26.9-60,60-60s60,26.9,60,60
		v41H229V280z M369,461H209V341h160V461z"/>
	<path d="M304,385c0-8.2-6.8-15-15-15s-15,6.8-15,15v46c10,0,20,0,30,0V385z"/>
</g>
</svg>
