<?xml version="1.0" encoding="UTF-8"?>
<!DOCTYPE svg PUBLIC "-//W3C//DTD SVG 1.1//EN" "http://www.w3.org/Graphics/SVG/1.1/DTD/svg11.dtd">
<svg xmlns="http://www.w3.org/2000/svg" xml:space="preserve" width="580px" height="580px" shape-rendering="geometricPrecision" text-rendering="geometricPrecision" image-rendering="optimizeQuality" fill-rule="nonzero" clip-rule="nonzero" viewBox="0 0 5800 5800" xmlns:xlink="http://www.w3.org/1999/xlink">
	<title>documents_exchange icon</title>
	<desc>documents_exchange icon from the IconExperience.com I-Collection. Copyright by INCORS GmbH (www.incors.com).</desc>
		<path id="curve30" d="M4625 402l778 777c62,57 97,137 97,221l0 2676 -200 -200 0 -2476c0,-55 -45,-100 -100,-100l-700 0 0 -700c0,-55 -45,-100 -100,-100 -633,0 -1267,0 -1900,0l0 -200 1900 0c87,0 168,37 225,102zm-1925 698l0 700 -200 -200 0 -500 200 0zm2341 0l-341 -341 0 341 341 0z"/>
	<path id="curve29" d="M2425 1802l778 777c62,57 97,137 97,221l0 1901 -200 0 0 -1901c0,-55 -45,-100 -100,-100l-700 0 0 -700c0,-55 -45,-100 -100,-100l-276 0 200 -200 76 0c87,0 168,37 225,102zm875 3497l0 201 -3000 0 0 -3776 200 200 0 3376c933,0 1868,-1 2800,-1zm-459 -2799l-341 -341 0 341 341 0z"/>
	<path id="curve28" d="M3829 4229l771 -770 771 770 -142 142 -529 -530 0 359c0,496 -404,900 -900,900l-1100 0 0 -200 1100 0c385,0 700,-315 700,-700l0 -359 -529 530 -142 -142zm-729 -3329l-1100 0c-385,0 -700,315 -700,700l0 359 529 -530 142 142 -771 770 -771 -770 142 -142 529 530 0 -359c0,-496 404,-900 900,-900l1100 0 0 200z"/>
</svg>