<?xml version="1.0" encoding="UTF-8"?>
<!DOCTYPE svg PUBLIC "-//W3C//DTD SVG 1.1//EN" "http://www.w3.org/Graphics/SVG/1.1/DTD/svg11.dtd">
<svg xmlns="http://www.w3.org/2000/svg" xml:space="preserve" width="580px" height="580px" shape-rendering="geometricPrecision" text-rendering="geometricPrecision" image-rendering="optimizeQuality" fill-rule="nonzero" clip-rule="nonzero" viewBox="0 0 5800 5800" xmlns:xlink="http://www.w3.org/1999/xlink">
	<title>document_pulse icon</title>
	<desc>document_pulse icon from the IconExperience.com I-Collection. Copyright by INCORS GmbH (www.incors.com).</desc>
		<path id="curve28"  d="M4111 3252l248 248 541 0 0 -200 -459 0 -352 -352 -272 363 -324 -648 -268 625 -342 -1367 -300 1700 -252 -1007 -358 718 -260 -261 -343 229 -470 0 0 -3000 2600 0 0 1400 1400 0 0 3800 -4000 0 0 -2000 530 0 257 -171 340 339 241 -482 349 1393 300 -1700 258 1033 332 -775 276 552m-139 -3376c59,16 111,48 153,90 0,3 998,999 1000,1000 42,42 74,94 90,153 -36,-34 -85,-56 -137,-56l-1050 0 0 -1050c0,-51 -21,-100 -56,-137z"/>
</svg>