<?xml version="1.0" encoding="UTF-8"?>
<!DOCTYPE svg PUBLIC "-//W3C//DTD SVG 1.1//EN" "http://www.w3.org/Graphics/SVG/1.1/DTD/svg11.dtd">
<svg xmlns="http://www.w3.org/2000/svg" xml:space="preserve" width="580px" height="580px" shape-rendering="geometricPrecision" text-rendering="geometricPrecision" image-rendering="optimizeQuality" fill-rule="nonzero" clip-rule="nonzero" viewBox="0 0 5800 5800" xmlns:xlink="http://www.w3.org/1999/xlink">
	<title>document_cup icon</title>
	<desc>document_cup icon from the IconExperience.com I-Collection. Copyright by INCORS GmbH (www.incors.com).</desc>
		<path id="curve28"  d="M3500 1700l1400 0 0 3800 -4000 0 0 -5200 2600 0c0,467 0,933 0,1400zm-1173 2400l1169 0c96,-59 177,-141 239,-234l246 -41c192,-32 359,-167 359,-374 0,-206 -169,-375 -375,-375l-65 0 0 -276 -2000 0 0 541c0,155 32,295 110,429 68,116 170,224 317,330zm1772 200l-2397 0c8,88 71,161 157,183l281 70 0 78 1520 0 0 -78 281 -70c86,-21 149,-95 158,-183zm-862 -2448l90 -178c-55,-28 -195,-47 -343,-47 -153,0 -469,16 -547,171 -12,23 -19,48 -19,75 0,162 159,196 320,231 85,18 171,37 171,45 0,6 -27,7 -54,21 -82,41 -164,83 -164,199 0,141 109,203 109,331l200 0c0,-117 -40,-187 -76,-250 -17,-30 -33,-58 -33,-81 0,-6 27,-7 54,-21 82,-41 164,-83 164,-199 0,-170 -166,-205 -330,-241 -62,-13 -124,-26 -149,-32 18,-8 49,-17 89,-25 77,-17 173,-24 265,-24 121,0 224,10 253,25zm407 -1539c59,16 111,48 153,90 0,3 998,999 1000,1000 42,42 74,94 90,153 -36,-34 -85,-56 -137,-56l-1050 0 0 -1050c0,-51 -21,-100 -56,-137z"/>
</svg>