<?xml version="1.0" encoding="UTF-8"?>
<!DOCTYPE svg PUBLIC "-//W3C//DTD SVG 1.1//EN" "http://www.w3.org/Graphics/SVG/1.1/DTD/svg11.dtd">
<svg xmlns="http://www.w3.org/2000/svg" xml:space="preserve" width="580px" height="580px" shape-rendering="geometricPrecision" text-rendering="geometricPrecision" image-rendering="optimizeQuality" fill-rule="nonzero" clip-rule="nonzero" viewBox="0 0 5800 5800" xmlns:xlink="http://www.w3.org/1999/xlink">
	<title>document_attachment icon</title>
	<desc>document_attachment icon from the IconExperience.com I-Collection. Copyright by INCORS GmbH (www.incors.com).</desc>
		<path id="curve28"  d="M3500 1700l1400 0 0 3800 -4000 0 0 -2300c0,166 134,300 300,300l175 0 520 1020 2134 -1088 -1087 -2134c-681,347 -1361,694 -2042,1040l0 -2038 2600 0c0,467 0,933 0,1400zm144 -1387c59,16 111,48 153,90 0,3 998,999 1000,1000 42,42 74,94 90,153 -36,-34 -85,-56 -137,-56l-1050 0 0 -1050c0,-51 -21,-100 -56,-137zm-2942 2734l-2 500c-60,-50 -118,-134 -149,-205 -33,-74 -51,-156 -51,-242 0,-331 269,-600 600,-600l1200 0c220,0 400,180 400,400 0,220 -180,400 -400,400l-1100 0c-55,0 -100,-45 -100,-100 0,-55 45,-100 100,-100l1100 0c110,0 200,-90 200,-200 0,-110 -90,-200 -200,-200l-1200 0c-201,0 -370,149 -398,347z"/>
</svg>