<?xml version="1.0" encoding="UTF-8"?>
<!DOCTYPE svg PUBLIC "-//W3C//DTD SVG 1.1//EN" "http://www.w3.org/Graphics/SVG/1.1/DTD/svg11.dtd">
<svg xmlns="http://www.w3.org/2000/svg" xml:space="preserve" width="580px" height="580px" shape-rendering="geometricPrecision" text-rendering="geometricPrecision" image-rendering="optimizeQuality" fill-rule="nonzero" clip-rule="nonzero" viewBox="0 0 5800 5800" xmlns:xlink="http://www.w3.org/1999/xlink">
	<title>document_gear icon</title>
	<desc>document_gear icon from the IconExperience.com I-Collection. Copyright by INCORS GmbH (www.incors.com).</desc>
		<path id="curve28"  d="M3500 1700l1400 0 0 3800 -4000 0 0 -5200 2600 0c0,467 0,933 0,1400zm-601 1338c253,0 457,205 457,458 0,252 -204,457 -457,457 -253,0 -457,-205 -457,-457 0,-253 204,-458 457,-458zm745 -2725c59,16 111,48 153,90 0,3 998,999 1000,1000 42,42 74,94 90,153 -36,-34 -85,-56 -137,-56l-1050 0 0 -1050c0,-51 -21,-100 -56,-137zm-156 2396c-14,-10 -20,-26 -19,-42l27 -263c5,-41 -17,-78 -54,-95 -61,-27 -120,-49 -184,-68 -39,-11 -80,3 -103,37l-151 217c-9,14 -24,21 -41,20 -40,-3 -79,-3 -119,-1 -17,1 -32,-6 -41,-20l-148 -218c-23,-34 -63,-49 -103,-38 -64,18 -123,40 -185,67 -37,16 -59,53 -55,93l24 264c1,17 -5,32 -19,42 -31,23 -62,48 -90,75 -12,11 -29,15 -45,11l-254 -72c-39,-12 -79,3 -102,37 -38,55 -70,110 -100,170 -18,37 -11,79 18,108l188 186c12,12 16,28 12,44 -9,38 -16,76 -21,115 -2,17 -11,30 -27,37l-241 108c-37,17 -58,53 -55,94 7,67 18,129 33,195 10,39 43,67 83,71l264 22c16,1 30,11 38,26 17,34 36,68 57,101 10,14 11,31 3,46l-115 237c-18,37 -10,79 19,108 48,47 96,88 150,128 33,24 76,24 109,1l216 -152c13,-10 30,-12 45,-5 36,16 73,30 110,41 17,5 28,17 32,33l65 257c10,39 42,67 83,70 67,5 130,5 197,1 41,-2 74,-30 84,-69l67 -255c5,-16 16,-28 33,-33 38,-11 75,-24 111,-40 16,-6 32,-4 46,5l214 155c33,24 76,24 109,0 54,-39 103,-79 151,-125 30,-28 38,-70 20,-107l-112 -239c-7,-15 -6,-32 3,-46 23,-33 43,-67 61,-103 8,-15 22,-24 38,-25l264 -19c41,-3 73,-31 83,-70 17,-65 28,-127 35,-193 5,-41 -16,-78 -53,-95l-240 -111c-15,-7 -25,-20 -27,-37 -4,-40 -10,-79 -20,-118 -3,-17 1,-33 13,-44l190 -184c29,-29 37,-71 19,-108 -29,-60 -60,-114 -97,-170 -23,-34 -63,-49 -103,-38l-254 69c-17,5 -33,1 -45,-11 -29,-28 -59,-53 -91,-77z"/>
</svg>