<?xml version="1.0" encoding="UTF-8"?>
<!DOCTYPE svg PUBLIC "-//W3C//DTD SVG 1.1//EN" "http://www.w3.org/Graphics/SVG/1.1/DTD/svg11.dtd">
<svg xmlns="http://www.w3.org/2000/svg" xml:space="preserve" width="580px" height="580px" shape-rendering="geometricPrecision" text-rendering="geometricPrecision" image-rendering="optimizeQuality" fill-rule="nonzero" clip-rule="nonzero" viewBox="0 0 5800 5800" xmlns:xlink="http://www.w3.org/1999/xlink">
	<title>document_zip icon</title>
	<desc>document_zip icon from the IconExperience.com I-Collection. Copyright by INCORS GmbH (www.incors.com).</desc>
		<path id="curve28" d="M3797 403c3,2 903,902 1000,1000 64,63 103,151 103,247l0 950 -200 0 0 -950c0,-83 -67,-150 -150,-150l-850 0 0 -850c0,-82 -68,-150 -150,-150l-2450 0 0 2600 200 0 0 -100c0,-55 45,-100 100,-100 55,0 100,45 100,100l0 100c67,0 133,0 200,0l0 -100c0,-55 45,-100 100,-100 55,0 100,45 100,100l0 100c67,0 133,0 200,0l0 -100c0,-55 45,-100 100,-100 55,0 100,45 100,100l0 100c67,0 133,0 200,0l0 -100c0,-55 45,-100 100,-100 55,0 100,45 100,100l0 100c67,0 133,0 200,0l0 -100c0,-55 45,-100 100,-100 55,0 100,45 100,100l0 100c67,0 133,0 200,0l0 -100c0,-55 45,-100 100,-100 55,0 100,45 100,100l0 100c67,0 133,0 200,0l0 -100c0,-55 45,-100 100,-100 55,0 100,45 100,100l0 100c67,0 133,0 200,0 0,-43 28,-80 66,-94l429 -197c13,-6 28,-9 41,-9l764 0c55,0 100,45 100,100l0 600c0,55 -45,100 -100,100l-764 0c-18,0 -34,-5 -49,-13l-428 -196c-37,-17 -59,-53 -59,-91l0 100c0,55 -45,100 -100,100 -55,0 -100,-45 -100,-100l0 -100 -200 0 0 100c0,55 -45,100 -100,100 -55,0 -100,-45 -100,-100l0 -100 -200 0 0 100c0,55 -45,100 -100,100 -55,0 -100,-45 -100,-100l0 -100 -200 0 0 100c0,55 -45,100 -100,100 -55,0 -100,-45 -100,-100l0 -100 -200 0 0 100c0,55 -45,100 -100,100 -55,0 -100,-45 -100,-100l0 -100 -200 0 0 100c0,55 -45,100 -100,100 -55,0 -100,-45 -100,-100l0 -100 -200 0 0 100c0,55 -45,100 -100,100 -55,0 -100,-45 -100,-100l0 -100 -400 0 0 2000 3600 0 0 -1500 200 0 0 1700 -4000 0 0 -5200 2650 0c96,0 186,38 247,103zm103 385l0 512 512 0 -512 -512zm1000 2212c-111,0 -200,89 -200,200 0,111 89,200 200,200l400 0 0 -400 -400 0z"/>
</svg>