<?xml version="1.0" encoding="UTF-8"?>
<!DOCTYPE svg PUBLIC "-//W3C//DTD SVG 1.1//EN" "http://www.w3.org/Graphics/SVG/1.1/DTD/svg11.dtd">
<svg xmlns="http://www.w3.org/2000/svg" xml:space="preserve" width="580px" height="580px" shape-rendering="geometricPrecision" text-rendering="geometricPrecision" image-rendering="optimizeQuality" fill-rule="nonzero" clip-rule="nonzero" viewBox="0 0 5800 5800" xmlns:xlink="http://www.w3.org/1999/xlink">
	<title>document_zoom_in icon</title>
	<desc>document_zoom_in icon from the IconExperience.com I-Collection. Copyright by INCORS GmbH (www.incors.com).</desc>
	<path id="curve0"  d="M3500 1700l1400 0 0 3800 -4000 0 0 -5200 2600 0c0,467 0,933 0,1400zm-1800 1150l0 200 550 0 0 550 200 0 0 -550 550 0 0 -200 -550 0 0 -550 -200 0 0 550 -550 0zm1345 1305l1000 1000 510 -510 -1000 -1000 -510 510zm510 -227l717 717 -227 227 -717 -717 227 -227zm-1943 -1716c-408,408 -408,1077 0,1485 380,380 994,410 1409,69l149 149 141 -142 -148 -148c344,-415 315,-1031 -66,-1413 -408,-408 -1077,-408 -1485,0zm1344 142c330,330 330,872 0,1202 -330,330 -872,330 -1202,0 -331,-330 -331,-872 0,-1202 330,-331 872,-331 1202,0zm688 -2041c59,16 111,48 153,90 0,3 998,999 1000,1000 42,42 74,94 90,153 -36,-34 -85,-56 -137,-56l-1050 0 0 -1050c0,-51 -21,-100 -56,-137z"/>
</svg>