<?xml version="1.0" encoding="UTF-8"?>
<!DOCTYPE svg PUBLIC "-//W3C//DTD SVG 1.1//EN" "http://www.w3.org/Graphics/SVG/1.1/DTD/svg11.dtd">
<svg xmlns="http://www.w3.org/2000/svg" xml:space="preserve" width="580px" height="580px" shape-rendering="geometricPrecision" text-rendering="geometricPrecision" image-rendering="optimizeQuality" fill-rule="nonzero" clip-rule="nonzero" viewBox="0 0 5800 5800" xmlns:xlink="http://www.w3.org/1999/xlink">
	<title>document_music icon</title>
	<desc>document_music icon from the IconExperience.com I-Collection. Copyright by INCORS GmbH (www.incors.com).</desc>
		<path id="curve28"  d="M3500 1700l1400 0 0 3800 -4000 0 0 -5200 2600 0c0,467 0,933 0,1400zm400 728l0 1163c-90,-58 -204,-91 -329,-91 -26,0 -53,2 -82,5 -280,31 -589,245 -589,551 0,15 1,30 3,46 29,261 284,398 526,398 26,0 53,-2 82,-5 247,-28 511,-192 575,-445 19,-32 14,-71 14,-108l0 -2142c0,-64 -61,-113 -124,-97l-1595 399c-46,8 -81,49 -81,98l0 1791c-90,-57 -204,-91 -329,-91 -26,0 -53,2 -82,5 -280,31 -589,245 -589,551 0,15 1,30 3,46 29,261 284,398 526,398 26,0 53,-2 82,-5 247,-28 511,-192 575,-445 19,-32 14,-71 14,-108l0 -1564 1400 -350zm-256 -2115c59,16 111,48 153,90 0,3 998,999 1000,1000 42,42 74,94 90,153 -36,-34 -85,-56 -137,-56l-1050 0 0 -1050c0,-51 -21,-100 -56,-137z"/>
</svg>