<?xml version="1.0" encoding="UTF-8"?>
<!DOCTYPE svg PUBLIC "-//W3C//DTD SVG 1.1//EN" "http://www.w3.org/Graphics/SVG/1.1/DTD/svg11.dtd">
<svg xmlns="http://www.w3.org/2000/svg" xml:space="preserve" width="580px" height="580px" shape-rendering="geometricPrecision" text-rendering="geometricPrecision" image-rendering="optimizeQuality" fill-rule="nonzero" clip-rule="nonzero" viewBox="0 0 5800 5800" xmlns:xlink="http://www.w3.org/1999/xlink">
	<title>document_gear icon</title>
	<desc>document_gear icon from the IconExperience.com I-Collection. Copyright by INCORS GmbH (www.incors.com).</desc>
		<path id="curve29"  d="M3572 2647c9,8 19,16 27,23 9,7 18,15 27,23l226 -62c40,-10 81,-8 119,6 37,14 69,39 92,74 21,31 40,61 56,89 16,29 32,60 49,93 18,38 23,79 16,117 -7,39 -26,76 -56,105l-168 163c2,12 5,24 7,36 2,12 3,23 5,35l213 98c37,18 67,46 87,81 20,34 28,75 24,116 -4,33 -9,68 -16,104 -6,37 -14,71 -22,102 -10,41 -32,76 -63,101 -30,25 -68,41 -110,44l-234 17c-6,10 -12,21 -18,31 -6,10 -12,21 -18,30l100 212c17,37 22,78 15,118 16,3 -46,94 -57,104 -27,26 -53,49 -78,70 -25,21 -53,42 -84,64 -34,25 -73,37 -112,37 -40,0 -79,-13 -113,-37l-190 -137c-12,4 -23,8 -34,12 -10,4 -21,7 -33,11l-59 226c-11,41 -34,75 -64,100 -31,26 -69,41 -111,44 -34,2 -69,3 -105,3 -38,-1 -72,-2 -105,-5 -42,-3 -80,-19 -110,-44 -31,-26 -53,-61 -63,-101l-58 -228c-10,-4 -21,-7 -32,-11 -11,-5 -22,-9 -32,-13l-191 135c-34,24 -74,36 -113,36 -40,-1 -80,-13 -113,-38 -27,-20 -54,-41 -83,-66 -28,-24 -54,-47 -78,-71 -30,-29 -49,-66 -56,-105 -6,-39 -1,-79 17,-117l103 -211c-6,-10 -12,-20 -18,-30 -5,-9 -11,-19 -16,-29l-234 -20c-42,-3 -79,-19 -110,-45 -30,-26 -52,-61 -61,-102 -9,-36 -16,-70 -22,-104 -6,-33 -10,-67 -14,-105 -4,-41 5,-81 25,-115 20,-34 50,-62 89,-79l213 -96c2,-10 4,-22 6,-33 2,-12 4,-23 7,-34l-167 -166c-30,-29 -49,-66 -55,-105 -6,-39 -1,-80 18,-117 15,-31 32,-62 50,-93 18,-32 37,-61 56,-89 24,-35 57,-60 94,-73 27,-10 100,-23 123,-3l221 63c17,-15 35,-30 53,-44l-21 -235c-4,-41 5,-81 25,-115 20,-34 51,-62 89,-79 30,-13 63,-26 98,-39 35,-12 68,-23 100,-32 41,-11 82,-9 119,4 37,14 70,39 93,74l132 194c11,-1 23,-1 35,-1 12,0 24,1 35,1l134 -193c23,-33 57,-59 94,-72 37,-14 78,-15 119,-3 36,10 69,21 99,32 33,12 65,26 98,40 38,18 68,46 88,80 20,35 29,75 25,116l-24 233zm-102 175c-15,-13 -29,-24 -42,-34 -21,-15 -36,-35 -47,-58 -9,-23 -13,-48 -11,-74l27 -257c-27,-12 -54,-23 -80,-33 -29,-11 -56,-20 -82,-28l-149 214c-14,21 -34,38 -56,48 -23,11 -48,16 -73,15 -21,-2 -38,-2 -54,-2 -16,-1 -34,0 -53,1 -26,1 -51,-4 -73,-15 -23,-11 -42,-27 -56,-49l-146 -215c-30,9 -58,18 -83,27 -24,9 -51,19 -81,32l24 259c2,26 -2,51 -12,73 -10,23 -26,43 -47,58 -16,12 -30,23 -41,33 -12,10 -25,21 -40,35 -19,17 -41,29 -66,35 -24,6 -49,6 -74,-1l-250 -71c-17,26 -32,50 -46,74 -14,23 -28,49 -41,76l184 183c18,18 31,40 38,64 7,24 7,49 1,74 -4,18 -8,35 -11,52 -2,14 -5,31 -7,52 -3,25 -13,49 -28,69 -15,20 -34,36 -58,47l-237 106c3,28 7,57 12,87 5,29 11,57 17,85l259 21c8,1 76,18 70,25 21,14 38,34 49,56 8,16 16,32 25,47 9,15 18,30 27,45 14,21 22,45 24,70 1,25 -4,50 -15,73l-113 234c22,22 44,41 64,59 20,17 43,34 68,54l212 -150c21,-15 45,-23 70,-26 25,-2 50,1 74,12 18,8 35,15 49,20 16,6 33,12 49,17 25,7 47,21 64,39 17,18 30,40 36,65l63 252c32,2 61,3 87,3 27,1 56,0 87,-2l66 -250c6,-25 19,-47 36,-65 18,-18 41,-32 65,-39 14,-4 31,-9 51,-16 17,-6 34,-13 49,-19 24,-11 49,-14 74,-12 24,3 48,12 69,28l211 152c22,-16 45,-34 68,-54 23,-19 44,-38 65,-57l-110 -234c-11,-24 -16,-49 -14,-74 2,-24 10,-48 25,-70 10,-15 20,-31 28,-46 9,-14 17,-30 26,-47 12,-23 29,-42 50,-56 20,-14 44,-22 70,-24l259 -18c8,-32 14,-60 18,-85 5,-26 9,-54 13,-85l-236 -109c-19,-9 -35,-21 -49,-37 -3,-3 -6,-7 -8,-10 -15,-21 -24,-44 -27,-70 -3,-35 -9,-73 -18,-107 -2,-8 -6,-77 2,-74 7,-24 20,-46 39,-64l186 -181c-12,-25 -26,-50 -41,-76 -15,-26 -30,-51 -45,-73l-250 68c-25,7 -50,7 -74,1 -25,-7 -47,-19 -66,-37 -13,-12 -26,-24 -40,-36zm-571 116c154,0 293,63 394,164 101,101 163,240 163,394 0,154 -62,293 -163,394 -101,101 -240,163 -394,163 -154,0 -293,-62 -394,-163 -101,-101 -163,-240 -163,-394 0,-154 62,-293 163,-394 101,-101 240,-164 394,-164zm253 305c-65,-65 -154,-105 -253,-105 -99,0 -188,40 -253,105 -64,65 -104,154 -104,253 0,99 40,188 104,253 65,64 154,104 253,104 99,0 188,-40 253,-104 64,-65 104,-154 104,-253 0,-99 -40,-188 -104,-253z"/>
	<path id="curve28"  d="M4797 1403c64,63 103,151 103,247l0 3850 -4000 0 0 -5200 2650 0c96,0 184,39 247,103 0,3 903,902 1000,1000zm-897 -615l0 512 512 0 -512 -512zm-350 -288l-2450 0 0 4800 3600 0 0 -3650c0,-83 -67,-150 -150,-150l-850 0 0 -850c0,-82 -68,-150 -150,-150z"/>
</svg>