<?xml version="1.0" encoding="UTF-8"?>
<!DOCTYPE svg PUBLIC "-//W3C//DTD SVG 1.1//EN" "http://www.w3.org/Graphics/SVG/1.1/DTD/svg11.dtd">
<svg xmlns="http://www.w3.org/2000/svg" xml:space="preserve" width="580px" height="580px" shape-rendering="geometricPrecision" text-rendering="geometricPrecision" image-rendering="optimizeQuality" fill-rule="nonzero" clip-rule="nonzero" viewBox="0 0 5800 5800" xmlns:xlink="http://www.w3.org/1999/xlink">
	<title>document_stop icon</title>
	<desc>document_stop icon from the IconExperience.com I-Collection. Copyright by INCORS GmbH (www.incors.com).</desc>
	<path id="curve0"  d="M3500 1700l1400 0 0 3800 -4000 0 0 -5200 2600 0c0,467 0,933 0,1400zm-1180 400l-820 820c0,386 0,773 0,1160l820 820c386,0 773,0 1160,0l820 -820c0,-386 0,-773 0,-1160l-820 -820c-386,0 -773,0 -1160,0zm1077 200l703 703c0,332 0,662 0,994l-703 703c-332,0 -662,0 -994,0l-703 -703c0,-332 0,-662 0,-994l703 -703c332,0 662,0 994,0zm247 -1987c59,16 111,48 153,90 0,3 998,999 1000,1000 42,42 74,94 90,153 -36,-34 -85,-56 -137,-56l-1050 0 0 -1050c0,-51 -21,-100 -56,-137z"/>
</svg>