<?xml version="1.0" encoding="UTF-8"?>
<!DOCTYPE svg PUBLIC "-//W3C//DTD SVG 1.1//EN" "http://www.w3.org/Graphics/SVG/1.1/DTD/svg11.dtd">
<svg xmlns="http://www.w3.org/2000/svg" xml:space="preserve" width="580px" height="580px" shape-rendering="geometricPrecision" text-rendering="geometricPrecision" image-rendering="optimizeQuality" fill-rule="nonzero" clip-rule="nonzero" viewBox="0 0 5800 5800" xmlns:xlink="http://www.w3.org/1999/xlink">
	<title>document_stop icon</title>
	<desc>document_stop icon from the IconExperience.com I-Collection. Copyright by INCORS GmbH (www.incors.com).</desc>
	<path id="curve0"  d="M3480 2100l820 820c0,387 0,774 0,1160l-820 820c-387,0 -774,0 -1160,0l-820 -820c0,-387 0,-774 0,-1160l820 -820c387,0 774,0 1160,0zm70 -1800c96,0 184,39 247,103 0,3 998,999 1000,1000 64,63 103,151 103,247l0 3850 -4000 0 0 -5200 2650 0zm350 488l0 512 512 0 -512 -512zm-350 -288l-2450 0 0 4800 3600 0 0 -3650c0,-83 -67,-150 -150,-150l-850 0 0 -850c0,-82 -68,-150 -150,-150zm-1147 1800l-703 703c0,332 0,662 0,994l703 703c332,0 662,0 994,0l703 -703c0,-332 0,-662 0,-994l-703 -703c-332,0 -662,0 -994,0z"/>
</svg>