<?xml version="1.0" encoding="UTF-8"?>
<!DOCTYPE svg PUBLIC "-//W3C//DTD SVG 1.1//EN" "http://www.w3.org/Graphics/SVG/1.1/DTD/svg11.dtd">
<svg xmlns="http://www.w3.org/2000/svg" xml:space="preserve" width="580px" height="580px" shape-rendering="geometricPrecision" text-rendering="geometricPrecision" image-rendering="optimizeQuality" fill-rule="nonzero" clip-rule="nonzero" viewBox="0 0 5800 5800" xmlns:xlink="http://www.w3.org/1999/xlink">
	<title>document_center_vertical icon</title>
	<desc>document_center_vertical icon from the IconExperience.com I-Collection. Copyright by INCORS GmbH (www.incors.com).</desc>
		<path id="curve28"  d="M3500 1700l1400 0 0 900 -1200 0 0 -600 -1800 0 0 600 -1000 0 0 -2300 2600 0c0,467 0,933 0,1400zm1400 1500l0 2300 -4000 0 0 -2300 1000 0 0 600 1800 0 0 -600 1200 0zm-1256 -2887c59,16 111,48 153,90 0,3 998,999 1000,1000 42,42 74,94 90,153 -36,-34 -85,-56 -137,-56l-1050 0 0 -1050c0,-51 -21,-100 -56,-137zm-144 1887l0 600 2000 0 0 200 -2000 0 0 600 -1400 0 0 -600 -1800 0 0 -200 1800 0 0 -600 1400 0z"/>
</svg>