<?xml version="1.0" encoding="UTF-8"?>
<!DOCTYPE svg PUBLIC "-//W3C//DTD SVG 1.1//EN" "http://www.w3.org/Graphics/SVG/1.1/DTD/svg11.dtd">
<svg xmlns="http://www.w3.org/2000/svg" xml:space="preserve" width="580px" height="580px" shape-rendering="geometricPrecision" text-rendering="geometricPrecision" image-rendering="optimizeQuality" fill-rule="nonzero" clip-rule="nonzero" viewBox="0 0 5800 5800" xmlns:xlink="http://www.w3.org/1999/xlink">
	<title>document_cup icon</title>
	<desc>document_cup icon from the IconExperience.com I-Collection. Copyright by INCORS GmbH (www.incors.com).</desc>
		<path id="curve29"  d="M3237 1852c-29,-15 -132,-25 -253,-25 -92,0 -188,7 -265,24 -40,8 -71,17 -89,25 25,6 87,19 149,32 164,36 330,71 330,241 0,116 -82,158 -164,199 -27,14 -54,15 -54,21 0,23 16,51 33,81 36,63 76,133 76,250l-200 0c0,-65 -26,-110 -49,-151 -32,-54 -60,-104 -60,-180 0,-116 82,-158 164,-199 27,-14 54,-15 54,-21 0,-8 -86,-27 -171,-45 -161,-35 -320,-69 -320,-231 0,-27 7,-52 19,-75 37,-74 127,-118 240,-142 93,-20 204,-29 307,-29 148,0 288,19 343,47l-90 178zm-905 2252c-150,-107 -253,-217 -322,-334 -78,-134 -110,-274 -110,-429l0 -541 2000 0 0 276 65 0c206,0 375,169 375,375 0,207 -167,342 -359,374l-246 41c-63,94 -145,177 -241,235l606 -1 0 179c0,97 -66,181 -159,204l-281 70 0 78 -1520 0 0 -78 -281 -70c-94,-23 -158,-107 -158,-204l-1 -174 632 -1zm1518 196l-1885 4 258 64c34,9 63,29 84,55 2,3 4,5 6,8l1175 0c1,-3 3,-5 5,-8 21,-26 50,-46 85,-55l272 -68zm-150 -1300l-1600 0 0 341c0,121 24,228 82,329 61,104 161,203 313,305l45 29 0 64 720 0 0 -78 63 -25c115,-46 203,-137 266,-241l24 -40 45 -7 291 -49c93,-15 191,-71 191,-177 0,-97 -78,-175 -175,-175l-265 0 0 -276z"/>
	<path id="curve28"  d="M4797 1403c64,63 103,151 103,247l0 3850 -4000 0 0 -5200 2650 0c96,0 184,39 247,103 0,3 903,902 1000,1000zm-897 -615l0 512 512 0 -512 -512zm-350 -288l-2450 0 0 4800 3600 0 0 -3650c0,-83 -67,-150 -150,-150l-850 0 0 -850c0,-82 -68,-150 -150,-150z"/>
</svg>