<?xml version="1.0" encoding="UTF-8"?>
<!DOCTYPE svg PUBLIC "-//W3C//DTD SVG 1.1//EN" "http://www.w3.org/Graphics/SVG/1.1/DTD/svg11.dtd">
<svg xmlns="http://www.w3.org/2000/svg" xml:space="preserve" width="580px" height="580px" shape-rendering="geometricPrecision" text-rendering="geometricPrecision" image-rendering="optimizeQuality" fill-rule="nonzero" clip-rule="nonzero" viewBox="0 0 5800 5800" xmlns:xlink="http://www.w3.org/1999/xlink">
	<title>document_size icon</title>
	<desc>document_size icon from the IconExperience.com I-Collection. Copyright by INCORS GmbH (www.incors.com).</desc>
		<path id="curve28"  d="M3500 300l0 1400 1400 0 0 3800 -4000 0 0 -5200 2600 0zm144 13c59,16 111,48 153,90 0,3 998,999 1000,1000 42,42 74,94 90,153 -36,-34 -85,-56 -137,-56l-1050 0 0 -1050c0,-51 -21,-100 -56,-137zm-415 858l142 -142 -471 -470 -471 470 142 142 329 -330 329 330zm-658 3458l-142 142 471 470 471 -470 -142 -142 -329 330 -329 -330zm1458 -1400l142 142 470 -471 -470 -471 -142 142 330 329 -330 329zm-2258 -658l-142 -142 -470 471 470 471 142 -142 -330 -329 330 -329z"/>
</svg>