<?xml version="1.0" encoding="UTF-8"?>
<!DOCTYPE svg PUBLIC "-//W3C//DTD SVG 1.1//EN" "http://www.w3.org/Graphics/SVG/1.1/DTD/svg11.dtd">
<svg xmlns="http://www.w3.org/2000/svg" xml:space="preserve" width="580px" height="580px" shape-rendering="geometricPrecision" text-rendering="geometricPrecision" image-rendering="optimizeQuality" fill-rule="nonzero" clip-rule="nonzero" viewBox="0 0 5800 5800" xmlns:xlink="http://www.w3.org/1999/xlink">
	<title>document_center_vertical icon</title>
	<desc>document_center_vertical icon from the IconExperience.com I-Collection. Copyright by INCORS GmbH (www.incors.com).</desc>
		<path id="curve29"  d="M4797 1403c64,63 103,151 103,247l0 950 -200 0 0 -950c0,-83 -67,-150 -150,-150l-850 0 0 -850c0,-82 -68,-150 -150,-150l-2450 0 0 2100 -200 0 0 -2300 2650 0c96,0 184,39 247,103 0,3 903,902 1000,1000zm103 1797l0 2300 -4000 0 0 -2300 200 0 0 2100 3600 0 0 -2100 200 0zm-1000 -2412l0 512 512 0 -512 -512z"/>
	<path id="curve28"  d="M3500 2200l0 600 2000 0 0 200 -2000 0 0 600 -1400 0 0 -600 -1800 0 0 -200 1800 0 0 -600c467,0 933,0 1400,0zm-200 200l-1000 0 0 1000 1000 0 0 -1000z"/>
</svg>