<?xml version="1.0" encoding="UTF-8"?>
<!DOCTYPE svg PUBLIC "-//W3C//DTD SVG 1.1//EN" "http://www.w3.org/Graphics/SVG/1.1/DTD/svg11.dtd">
<svg xmlns="http://www.w3.org/2000/svg" xml:space="preserve" width="580px" height="580px" shape-rendering="geometricPrecision" text-rendering="geometricPrecision" image-rendering="optimizeQuality" fill-rule="nonzero" clip-rule="nonzero" viewBox="0 0 5800 5800" xmlns:xlink="http://www.w3.org/1999/xlink">
	<title>document_orientation_landscape icon</title>
	<desc>document_orientation_landscape icon from the IconExperience.com I-Collection. Copyright by INCORS GmbH (www.incors.com).</desc>
		<path id="curve28"  d="M4244 913c59,16 111,48 153,90 0,3 998,999 1000,1000 42,42 74,94 90,153 -36,-34 -85,-56 -137,-56l-1050 0 0 -1050c0,-51 -21,-100 -56,-137zm1256 1387l0 2600 -5200 0 0 -4000 3800 0 0 1400 1400 0zm-3000 400l0 200 2400 0 0 -200 -2400 0zm-1600 1200l0 200 3400 0 0 -200 -3400 0zm0 -600l0 200 4000 0 0 -200 -4000 0zm1600 -1200l0 200 1400 0 0 -200 -1400 0zm-1309 300l277 -700 64 0 277 700 -618 0zm688 200c3,13 6,25 8,38 9,51 13,104 13,162l0 100 200 0 0 -100c0,-68 -5,-132 -16,-196 -11,-65 -31,-131 -55,-192l-335 -845c-13,-39 -50,-67 -94,-67l-200 0c-40,0 -77,24 -93,63l-336 849c-26,66 -44,129 -55,192 -11,64 -16,128 -16,196l0 100 200 0 0 -100c0,-58 4,-111 13,-162 2,-13 5,-25 8,-38l758 0z"/>
</svg>