<?xml version="1.0" encoding="UTF-8"?>
<!DOCTYPE svg PUBLIC "-//W3C//DTD SVG 1.1//EN" "http://www.w3.org/Graphics/SVG/1.1/DTD/svg11.dtd">
<svg xmlns="http://www.w3.org/2000/svg" xml:space="preserve" width="580px" height="580px" shape-rendering="geometricPrecision" text-rendering="geometricPrecision" image-rendering="optimizeQuality" fill-rule="nonzero" clip-rule="nonzero" viewBox="0 0 5800 5800" xmlns:xlink="http://www.w3.org/1999/xlink">
	<title>document_orientation_portrait icon</title>
	<desc>document_orientation_portrait icon from the IconExperience.com I-Collection. Copyright by INCORS GmbH (www.incors.com).</desc>
		<path id="curve28"  d="M3500 1700l1400 0 0 3800 -4000 0 0 -5200 2600 0c0,467 0,933 0,1400zm-200 0l0 -200 -300 0 0 200 300 0zm-1509 100l277 -700 64 0 277 700 -618 0zm688 200c3,13 6,25 8,38 9,52 13,105 13,162l0 100 200 0 0 -100c0,-137 -20,-260 -71,-388l-335 -845c-13,-39 -50,-67 -94,-67l-200 0c-40,0 -77,24 -93,63l-336 849c-51,128 -71,250 -71,388l0 100 200 0 0 -100c0,-58 4,-111 13,-162 2,-13 5,-25 8,-38l758 0zm521 100l0 200 1300 0 0 -200 -1300 0zm-1500 600l0 200 2800 0 0 -200 -2800 0zm0 600l0 200 2800 0 0 -200 -2800 0zm0 600l0 200 2800 0 0 -200 -2800 0zm0 600l0 200 2000 0 0 -200 -2000 0zm2144 -4187c59,16 111,48 153,90 0,3 998,999 1000,1000 42,42 74,94 90,153 -36,-34 -85,-56 -137,-56l-1050 0 0 -1050c0,-51 -21,-100 -56,-137z"/>
</svg>