<?xml version="1.0" encoding="UTF-8"?>
<!DOCTYPE svg PUBLIC "-//W3C//DTD SVG 1.1//EN" "http://www.w3.org/Graphics/SVG/1.1/DTD/svg11.dtd">
<svg xmlns="http://www.w3.org/2000/svg" xml:space="preserve" width="580px" height="580px" shape-rendering="geometricPrecision" text-rendering="geometricPrecision" image-rendering="optimizeQuality" fill-rule="nonzero" clip-rule="nonzero" viewBox="0 0 5800 5800" xmlns:xlink="http://www.w3.org/1999/xlink">
	<title>document_orientation_portrait icon</title>
	<desc>document_orientation_portrait icon from the IconExperience.com I-Collection. Copyright by INCORS GmbH (www.incors.com).</desc>
		<path id="curve28"  d="M4797 1403c64,63 103,151 103,247l0 3850 -4000 0 0 -5200 2650 0c96,0 184,39 247,103 0,3 903,902 1000,1000zm-897 -615l0 512 512 0 -512 -512zm-350 -288l-2450 0 0 4800 3600 0 0 -3650c0,-83 -67,-150 -150,-150l-850 0 0 -850c0,-82 -68,-150 -150,-150zm-1759 1300l618 0 -277 -700 -64 0 -277 700zm1209 -300l500 0 0 200 -500 0 0 -200zm-1500 3000l2000 0 0 200 -2000 0 0 -200zm0 -600l2800 0 0 200 -2800 0 0 -200zm0 -600l2800 0 0 200 -2800 0 0 -200zm0 -600l2800 0 0 200 -2800 0 0 -200zm1500 -600l1300 0 0 200 -1300 0 0 -200zm-521 -100l-758 0c-3,13 -6,25 -8,38 -9,51 -13,104 -13,162l0 100 -200 0 0 -100c0,-68 5,-132 16,-196 11,-63 29,-126 55,-192l336 -849c16,-39 53,-63 93,-63l200 0c44,0 81,28 94,67l335 845c24,61 44,127 55,192 11,64 16,128 16,196l0 100 -200 0 0 -100c0,-57 -4,-110 -13,-162 -2,-13 -5,-25 -8,-38z"/>
</svg>