<?xml version="1.0" encoding="UTF-8"?>
<!DOCTYPE svg PUBLIC "-//W3C//DTD SVG 1.1//EN" "http://www.w3.org/Graphics/SVG/1.1/DTD/svg11.dtd">
<svg xmlns="http://www.w3.org/2000/svg" xml:space="preserve" width="580px" height="580px" shape-rendering="geometricPrecision" text-rendering="geometricPrecision" image-rendering="optimizeQuality" fill-rule="nonzero" clip-rule="nonzero" viewBox="0 0 5800 5800" xmlns:xlink="http://www.w3.org/1999/xlink">
	<title>documents_exchange icon</title>
	<desc>documents_exchange icon from the IconExperience.com I-Collection. Copyright by INCORS GmbH (www.incors.com).</desc>
		<path id="curve30"  d="M4424 301c73,6 139,38 188,87 0,0 732,732 800,800 49,49 81,115 87,188 -53,-47 -123,-76 -199,-76l-800 0 0 -800c0,-76 -29,-146 -76,-199zm1076 1199l0 2576 -900 -900 -622 622 -478 -9 0 -1189 -1000 -1000 0 -500 800 0 0 -600 -800 0 0 -200 1800 0 0 0 0 1200 1200 0 0 0z"/>
	<path id="curve29"  d="M2224 1701c73,6 139,38 188,87 0,0 732,732 800,800 49,49 81,115 87,188 -53,-47 -123,-76 -199,-76l-800 0 0 -800c0,-76 -29,-146 -76,-199zm1076 1199l0 1801 -800 0 0 598 800 0 0 201 -3000 0 0 -3776 900 900 900 -900 0 1176 1200 0 0 0z"/>
	<path id="curve28"  d="M2700 4900l1100 0c385,0 700,-315 700,-700l0 -359 -529 530 -142 -142 771 -770 771 770 -142 142 -529 -530 0 359c0,496 -404,900 -900,900l-1100 0 0 -200zm400 -4000l-1100 0c-385,0 -700,315 -700,700l0 359 529 -530 142 142 -771 770 -771 -770 142 -142 529 530 0 -359c0,-496 404,-900 900,-900l1100 0 0 200z"/>
</svg>