<?xml version="1.0" encoding="UTF-8"?>
<!DOCTYPE svg PUBLIC "-//W3C//DTD SVG 1.1//EN" "http://www.w3.org/Graphics/SVG/1.1/DTD/svg11.dtd">
<svg xmlns="http://www.w3.org/2000/svg" xml:space="preserve" width="580px" height="580px" shape-rendering="geometricPrecision" text-rendering="geometricPrecision" image-rendering="optimizeQuality" fill-rule="nonzero" clip-rule="nonzero" viewBox="0 0 5800 5800" xmlns:xlink="http://www.w3.org/1999/xlink">
	<title>document_center_horizontal icon</title>
	<desc>document_center_horizontal icon from the IconExperience.com I-Collection. Copyright by INCORS GmbH (www.incors.com).</desc>
		<path id="curve28"  d="M2700 2200l0 -2100 200 0 0 2100 600 0 0 1400 -600 0 0 2100 -200 0 0 -2100 -600 0 0 -1400 600 0zm800 -500l1400 0 0 3800 -1800 0 0 -1700 600 0 0 -1800 -600 0 0 -1700 400 0c0,467 0,933 0,1400zm-1000 3800l-1600 0 0 -5200 1600 0 0 1700 -600 0 0 1800 600 0 0 1700zm1144 -5187c59,16 111,48 153,90 0,3 998,999 1000,1000 42,42 74,94 90,153 -36,-34 -85,-56 -137,-56l-1050 0 0 -1050c0,-51 -21,-100 -56,-137z"/>
</svg>