<?xml version="1.0" encoding="UTF-8"?>
<!DOCTYPE svg PUBLIC "-//W3C//DTD SVG 1.1//EN" "http://www.w3.org/Graphics/SVG/1.1/DTD/svg11.dtd">
<svg xmlns="http://www.w3.org/2000/svg" xml:space="preserve" width="580px" height="580px" shape-rendering="geometricPrecision" text-rendering="geometricPrecision" image-rendering="optimizeQuality" fill-rule="nonzero" clip-rule="nonzero" viewBox="0 0 5800 5800" xmlns:xlink="http://www.w3.org/1999/xlink">
	<title>document_attachment icon</title>
	<desc>document_attachment icon from the IconExperience.com I-Collection. Copyright by INCORS GmbH (www.incors.com).</desc>
		<path id="curve30"  d="M4797 1403c64,63 103,151 103,247l0 3850 -4000 0 0 -2300c0,131 83,242 200,283l0 1817 3600 0 0 -3650c0,-83 -67,-150 -150,-150l-850 0 0 -850c0,-82 -68,-150 -150,-150l-2450 0 0 1512 -200 102 0 -1814 2650 0c96,0 184,39 247,103 0,3 903,902 1000,1000zm-897 -615l0 512 512 0 -512 -512z"/>
	<path id="curve29"  d="M1375 3500l225 0 382 751 1778 -906 -906 -1778 -1439 733 -315 0c-53,0 -104,5 -154,15l1996 -1017 1087 2134 -2134 1088 -520 -1020z"/>
	<path id="curve28"  d="M1200 3300c-55,0 -100,-45 -100,-100 0,-55 45,-100 100,-100l1100 0c110,0 200,-90 200,-200 0,-110 -90,-200 -200,-200l-1200 0c-110,0 -210,45 -283,117 -60,61 -102,141 -114,230l-3 500c-126,-104 -200,-286 -200,-447 0,-166 67,-316 176,-424 108,-109 258,-176 424,-176l1200 0c220,0 400,180 400,400 0,220 -180,400 -400,400l-1100 0z"/>
</svg>