<?xml version="1.0" encoding="UTF-8"?>
<!DOCTYPE svg PUBLIC "-//W3C//DTD SVG 1.1//EN" "http://www.w3.org/Graphics/SVG/1.1/DTD/svg11.dtd">
<svg xmlns="http://www.w3.org/2000/svg" xml:space="preserve" width="580px" height="580px" shape-rendering="geometricPrecision" text-rendering="geometricPrecision" image-rendering="optimizeQuality" fill-rule="nonzero" clip-rule="nonzero" viewBox="0 0 5800 5800" xmlns:xlink="http://www.w3.org/1999/xlink">
	<title>document_selection icon</title>
	<desc>document_selection icon from the IconExperience.com I-Collection. Copyright by INCORS GmbH (www.incors.com).</desc>
		<path id="curve28"  d="M3500 300l0 1400 1400 0 0 3800 -4000 0 0 -5200 2600 0zm144 13c59,16 111,48 153,90 0,3 998,999 1000,1000 42,42 74,94 90,153 -36,-34 -85,-56 -137,-56l-1050 0 0 -1050c0,-51 -21,-100 -56,-137zm-2144 2187l200 0 0 -200 200 0 0 -200 -400 0 0 400zm800 -400l0 200 400 0 0 -200 -400 0zm800 0l0 200 400 0 0 -200 -400 0zm800 0l0 200 200 0 0 200 200 0 0 -400 -400 0zm400 800l-200 0 0 400 200 0 0 -400zm0 800l-200 0 0 400 200 0 0 -400zm0 800l-200 0 0 200 -200 0 0 200 400 0 0 -400zm-800 400l0 -200 -400 0 0 200 400 0zm-800 0l0 -200 -400 0 0 200 400 0zm-800 0l0 -200 -200 0 0 -200 -200 0 0 400 400 0zm-400 -800l200 0 0 -400 -200 0 0 400zm0 -800l200 0 0 -400 -200 0 0 400z"/>
</svg>