<?xml version="1.0" encoding="UTF-8"?>
<!DOCTYPE svg PUBLIC "-//W3C//DTD SVG 1.1//EN" "http://www.w3.org/Graphics/SVG/1.1/DTD/svg11.dtd">
<svg xmlns="http://www.w3.org/2000/svg" xml:space="preserve" width="580px" height="580px" shape-rendering="geometricPrecision" text-rendering="geometricPrecision" image-rendering="optimizeQuality" fill-rule="nonzero" clip-rule="nonzero" viewBox="0 0 5800 5800" xmlns:xlink="http://www.w3.org/1999/xlink">
	<title>document_zoom_out icon</title>
	<desc>document_zoom_out icon from the IconExperience.com I-Collection. Copyright by INCORS GmbH (www.incors.com).</desc>
	<path id="curve0"  d="M1700 2850l1300 0 0 200 -1300 0 0 -200zm1850 -2550c96,0 184,39 247,103 0,2 914,914 1000,1000 64,63 103,151 103,247l0 3850 -4000 0 0 -5200 2650 0zm350 488l0 512 512 0 -512 -512zm-350 -288l-2450 0 0 4800 3600 0 0 -3650c0,-83 -67,-150 -150,-150l-850 0 0 -850c0,-82 -68,-150 -150,-150zm-1195 1405c579,0 1050,470 1050,1050 0,254 -91,488 -242,670l148 148 -141 142 -149 -149c-181,149 -413,239 -666,239 -580,0 -1050,-471 -1050,-1050 0,-580 470,-1050 1050,-1050zm0 200c-470,0 -850,380 -850,850 0,469 380,850 850,850 469,0 850,-381 850,-850 0,-470 -381,-850 -850,-850zm1200 1540l1000 1000 -510 510 -1000 -1000 510 -510zm0 283l-227 227 717 717 227 -227 -717 -717z"/>
</svg>