<?xml version="1.0" encoding="UTF-8"?>
<!DOCTYPE svg PUBLIC "-//W3C//DTD SVG 1.1//EN" "http://www.w3.org/Graphics/SVG/1.1/DTD/svg11.dtd">
<svg xmlns="http://www.w3.org/2000/svg" xml:space="preserve" width="580px" height="580px" shape-rendering="geometricPrecision" text-rendering="geometricPrecision" image-rendering="optimizeQuality" fill-rule="nonzero" clip-rule="nonzero" viewBox="0 0 5800 5800" xmlns:xlink="http://www.w3.org/1999/xlink">
	<title>document_pinned icon</title>
	<desc>document_pinned icon from the IconExperience.com I-Collection. Copyright by INCORS GmbH (www.incors.com).</desc>
		<path id="curve28"  d="M4900 2100l0 3400 -3800 0 0 -3606c33,4 66,6 100,6 213,0 408,-74 562,-197l267 268c39,39 103,39 142,0 39,-39 39,-103 0,-142l-268 -267c123,-154 197,-350 197,-562 0,-105 -18,-206 -51,-300l1451 0 0 1400 1400 0zm-3700 -1800c387,0 700,313 700,700 0,387 -313,700 -700,700 -387,0 -700,-313 -700,-700 0,-387 313,-700 700,-700zm3597 1503c42,41 73,93 90,151 -54,-34 -118,-54 -187,-54l-1000 0 0 -1000c0,-68 -20,-132 -54,-187 58,17 109,48 151,90 1,0 915,915 1000,1000z"/>
</svg>