<?xml version="1.0" encoding="UTF-8"?>
<!DOCTYPE svg PUBLIC "-//W3C//DTD SVG 1.1//EN" "http://www.w3.org/Graphics/SVG/1.1/DTD/svg11.dtd">
<svg xmlns="http://www.w3.org/2000/svg" xml:space="preserve" width="580px" height="580px" shape-rendering="geometricPrecision" text-rendering="geometricPrecision" image-rendering="optimizeQuality" fill-rule="nonzero" clip-rule="nonzero" viewBox="0 0 5800 5800" xmlns:xlink="http://www.w3.org/1999/xlink">
	<title>dog icon</title>
	<desc>dog icon from the IconExperience.com I-Collection. Copyright by INCORS GmbH (www.incors.com).</desc>
	<path id="curve0" d="M2074 1312c-25,-71 -52,-125 -79,-152 -43,-43 -161,-60 -294,-60 -180,0 -374,34 -464,79 -58,29 -82,61 -108,94 -53,69 -106,139 -293,201 -84,28 -148,46 -201,60 -91,26 -135,19 -135,29 0,97 4,192 29,267 20,60 55,108 117,132 45,18 153,22 265,26 146,5 353,-2 464,108l201 502c67,166 72,261 80,396 5,104 13,234 56,448 23,114 81,176 153,252 97,103 216,228 327,503l194 483 7 37c0,87 -67,159 -132,227 -32,34 -62,59 -62,63 0,52 42,93 94,93l135 0c48,0 81,-34 93,-78l57 -212 -100 -516c-30,-151 -8,-224 22,-326 31,-108 74,-255 54,-634l199 -10c22,412 -26,578 -62,700 -22,74 -38,127 -17,232l110 561 -70 257c-36,131 -149,226 -286,226l-135 0c-161,0 -294,-132 -294,-293 0,-75 57,-136 117,-200 30,-32 62,-65 73,-82l-183 -454c-96,-239 -200,-349 -285,-439 -95,-100 -170,-180 -205,-351 -28,-141 -59,-331 -59,-476 -7,-115 -11,-197 -66,-333l-183 -456c-134,-57 -461,-2 -633,-68 -128,-49 -199,-141 -236,-256 -33,-100 -39,-215 -39,-329 0,-141 91,-167 281,-221 56,-15 123,-34 192,-57 128,-43 163,-88 198,-133 39,-52 79,-103 177,-152 114,-57 345,-100 553,-100 179,0 349,33 435,119 67,67 116,184 172,321 117,284 277,669 664,669 527,0 1407,0 1803,394 270,269 356,547 356,926 0,142 91,305 180,462 104,187 206,369 185,551l-77 697c-17,149 -142,261 -292,261l-118 0c-175,0 -294,-139 -294,-310 0,-77 59,-135 120,-195 36,-35 74,-72 74,-78l0 -290c0,-63 -45,-80 -136,-116 -56,-21 -122,-47 -196,-84 -167,-83 -266,-230 -360,-370 -112,-168 -215,-322 -436,-251 -103,33 -191,67 -274,99 -187,72 -347,133 -656,178l-29 -198c287,-42 437,-99 614,-167 81,-31 169,-64 284,-102 363,-117 507,97 663,330 79,118 162,242 283,302 71,36 130,58 179,78 176,68 264,102 264,301l0 290c0,90 -69,157 -134,221 -31,30 -60,46 -60,52 0,60 28,110 94,110l118 0c48,0 88,-35 93,-83l78 -697c13,-119 -73,-272 -162,-431 -101,-180 -205,-366 -205,-560 0,-325 -65,-554 -297,-785 -341,-339 -1207,-335 -1662,-335 -399,0 -603,-268 -739,-544 -46,102 -115,189 -194,268 -72,71 -173,97 -272,78 -79,-15 -167,-59 -253,-146 -38,-38 -76,-84 -113,-141l165 -110c30,44 60,81 89,110 56,56 106,83 149,91 34,7 69,1 94,-24 41,-40 104,-108 146,-194 39,-79 60,-176 30,-285zm2603 -347c220,73 427,201 558,369 138,178 180,388 109,603 -48,143 -147,294 -314,449 -42,-50 -89,-101 -136,-145 140,-131 223,-253 261,-366 50,-153 19,-293 -78,-419 -105,-136 -278,-241 -462,-302l62 -189zm-2780 4335l-89 0c-81,0 -154,-33 -208,-86 -64,-64 -86,-136 -86,-224 0,-77 59,-135 120,-195 33,-32 67,-65 73,-75l-94 -466c-12,-62 -28,-169 -44,-292 147,155 202,258 279,451l60 296c0,12 0,22 -2,34 -39,45 -71,94 -90,153 -14,14 -28,28 -43,42 -30,30 -59,46 -59,52 0,34 1,57 27,83 18,17 42,27 67,27 14,74 45,142 89,200zm2716 0l-186 0c-175,0 -294,-139 -294,-310 0,-77 59,-135 120,-195 36,-35 74,-72 74,-78l1 -290c0,-44 -6,-91 -16,-138 67,58 135,99 215,136l0 292c0,90 -69,157 -134,221 -31,30 -60,46 -60,52 0,60 28,110 94,110l97 0c14,74 45,141 89,200z"/>
</svg>