<?xml version="1.0" encoding="UTF-8"?>
<!DOCTYPE svg PUBLIC "-//W3C//DTD SVG 1.1//EN" "http://www.w3.org/Graphics/SVG/1.1/DTD/svg11.dtd">
<svg xmlns="http://www.w3.org/2000/svg" xml:space="preserve" width="580px" height="580px" shape-rendering="geometricPrecision" text-rendering="geometricPrecision" image-rendering="optimizeQuality" fill-rule="nonzero" clip-rule="nonzero" viewBox="0 0 5800 5800" xmlns:xlink="http://www.w3.org/1999/xlink">
	<title>dog icon</title>
	<desc>dog icon from the IconExperience.com I-Collection. Copyright by INCORS GmbH (www.incors.com).</desc>
	<path id="curve0"  d="M1457 3005c-7,-115 -11,-197 -66,-333l-183 -456c-44,-19 -177,-24 -304,-29 -129,-5 -253,-9 -329,-39 -128,-49 -199,-141 -236,-256 -33,-100 -39,-215 -39,-329 0,-141 91,-167 281,-221 56,-15 123,-34 192,-57 128,-43 163,-88 198,-133 39,-52 79,-103 177,-152 114,-57 345,-100 553,-100 179,0 349,33 435,119 23,23 44,52 64,85 -3,46 -51,191 -89,305 -34,102 -53,184 -118,274 -33,45 -68,82 -95,108 -25,25 -60,31 -94,24 -97,-18 -185,-123 -238,-201l-165 110c37,57 75,103 113,141 86,87 174,131 253,146 99,19 200,-7 272,-78 98,-98 183,-212 223,-346 21,-67 44,-133 66,-200 115,277 277,622 644,622 370,0 727,11 1036,63 449,76 829,253 1020,687 64,146 103,328 103,570 0,142 91,305 180,462 104,187 206,369 185,551l-77 697c-9,75 -44,140 -96,187 -53,46 -122,74 -196,74l-118 0c-161,0 -294,-132 -294,-293 0,-100 53,-146 120,-212 36,-35 74,-72 74,-78l0 -290c0,-63 -45,-80 -136,-116 -56,-21 -122,-47 -196,-84 -167,-83 -266,-230 -360,-370 -112,-168 -215,-322 -436,-251 -103,33 -191,67 -274,99 -170,65 -317,121 -574,165 30,-183 30,-372 20,-557l-200 10c9,162 11,329 -13,489 -14,90 -41,170 -62,258 -14,53 -20,104 -4,186l110 561 -70 257c-36,131 -149,226 -286,226l-135 0c-161,0 -294,-132 -294,-293 0,-75 57,-136 117,-200 30,-32 62,-65 73,-82l-183 -454c-96,-239 -200,-349 -285,-439 -95,-100 -170,-180 -205,-351 -46,-230 -53,-367 -59,-476zm3220 -2040c299,99 621,319 689,646 63,306 -122,577 -336,775 -42,-50 -89,-101 -136,-145 158,-147 324,-359 276,-590 -51,-252 -330,-423 -555,-497l62 -189zm-2780 4335l-89 0c-161,0 -294,-132 -294,-293l0 -17c0,-77 59,-135 120,-195 33,-32 67,-65 73,-75l-94 -466c-12,-62 -28,-169 -44,-292 118,124 187,221 252,383l137 341c-83,88 -159,176 -159,321 0,109 36,211 98,293zm2812 -659c-16,16 -45,43 -61,59 -93,96 -133,171 -133,307 0,109 36,210 98,293l-186 0c-161,0 -294,-132 -294,-293 0,-100 53,-146 120,-212 36,-35 74,-73 74,-79l0 -289c0,-44 -5,-91 -15,-139 50,44 369,235 397,212l0 141z"/>
</svg>