<?xml version="1.0" encoding="UTF-8"?>
<!DOCTYPE svg PUBLIC "-//W3C//DTD SVG 1.1//EN" "http://www.w3.org/Graphics/SVG/1.1/DTD/svg11.dtd">
<svg xmlns="http://www.w3.org/2000/svg" xml:space="preserve" width="580px" height="580px" shape-rendering="geometricPrecision" text-rendering="geometricPrecision" image-rendering="optimizeQuality" fill-rule="nonzero" clip-rule="nonzero" viewBox="0 0 5800 5800" xmlns:xlink="http://www.w3.org/1999/xlink">
	<title>dome_camera icon</title>
	<desc>dome_camera icon from the IconExperience.com I-Collection. Copyright by INCORS GmbH (www.incors.com).</desc>
		<path id="curve28"  d="M5500 500l0 1200c0,220 -180,400 -400,400l-4400 0c-220,0 -400,-180 -400,-400l0 -1200 5200 0zm-400 1800l-4400 0 0 400c0,1215 985,2200 2200,2200 1215,0 2200,-985 2200,-2200l0 -400zm-2200 200c552,0 1000,448 1000,1000 0,552 -448,1000 -1000,1000 -552,0 -1000,-448 -1000,-1000 0,-552 448,-1000 1000,-1000zm0 200c-442,0 -800,358 -800,800 0,442 358,800 800,800 442,0 800,-358 800,-800 0,-442 -358,-800 -800,-800zm0 200c331,0 600,269 600,600 0,331 -269,600 -600,600 -331,0 -600,-269 -600,-600 0,-331 269,-600 600,-600zm0 200c-221,0 -400,179 -400,400 0,221 179,400 400,400 221,0 400,-179 400,-400 0,-221 -179,-400 -400,-400z"/>
</svg>