<?xml version="1.0" encoding="UTF-8"?>
<!DOCTYPE svg PUBLIC "-//W3C//DTD SVG 1.1//EN" "http://www.w3.org/Graphics/SVG/1.1/DTD/svg11.dtd">
<svg xmlns="http://www.w3.org/2000/svg" xml:space="preserve" width="580px" height="580px" shape-rendering="geometricPrecision" text-rendering="geometricPrecision" image-rendering="optimizeQuality" fill-rule="nonzero" clip-rule="nonzero" viewBox="0 0 5800 5800" xmlns:xlink="http://www.w3.org/1999/xlink">
	<title>door_exit icon</title>
	<desc>door_exit icon from the IconExperience.com I-Collection. Copyright by INCORS GmbH (www.incors.com).</desc>
		<path id="curve28"  d="M1500 5300l0 -1076 400 -400 0 1476 800 0 0 200 -1600 0 0 -200 400 0zm400 -3324l0 -1076 800 0 0 -400 -1200 0 0 1076 400 400zm3000 -1276l-255 0 -640 -200 1095 0 0 4800 400 0 0 200 -600 0 0 -4800zm-2000 -336l1800 563 0 4556 -1800 337 0 -5456zm650 2736l187 0 0 -200c-137,0 -274,0 -412,0 -69,0 -125,90 -125,200 0,110 56,200 125,200l103 0c63,-10 122,-96 122,-200zm-2279 -1471l1270 1271 -1270 1271 -142 -142 1030 -1029 -2059 0 0 -200 2059 0 -1030 -1029 142 -142z"/>
</svg>