<?xml version="1.0" encoding="UTF-8"?>
<!DOCTYPE svg PUBLIC "-//W3C//DTD SVG 1.1//EN" "http://www.w3.org/Graphics/SVG/1.1/DTD/svg11.dtd">
<svg xmlns="http://www.w3.org/2000/svg" xml:space="preserve" width="580px" height="580px" shape-rendering="geometricPrecision" text-rendering="geometricPrecision" image-rendering="optimizeQuality" fill-rule="nonzero" clip-rule="nonzero" viewBox="0 0 5800 5800" xmlns:xlink="http://www.w3.org/1999/xlink">
	<title>door_open icon</title>
	<desc>door_open icon from the IconExperience.com I-Collection. Copyright by INCORS GmbH (www.incors.com).</desc>
		<path id="curve28"  d="M2400 367l1900 558 0 4559 -1900 335 0 -5452zm650 2733l188 0 0 -200c-138,0 -275,0 -413,0 -69,0 -125,90 -125,200 0,110 56,200 125,200l103 0c63,-10 122,-96 122,-200zm-2350 2200l400 0 0 -4800 1100 0 0 400 -700 0 0 4400 700 0 0 200 -1500 0 0 -200zm2862 -4800l1138 0 0 4800 400 0 0 200 -600 0 0 -4800 -258 0 -680 -200z"/>
</svg>