<?xml version="1.0" encoding="UTF-8"?>
<!DOCTYPE svg PUBLIC "-//W3C//DTD SVG 1.1//EN" "http://www.w3.org/Graphics/SVG/1.1/DTD/svg11.dtd">
<svg xmlns="http://www.w3.org/2000/svg" xml:space="preserve" width="580px" height="580px" shape-rendering="geometricPrecision" text-rendering="geometricPrecision" image-rendering="optimizeQuality" fill-rule="nonzero" clip-rule="nonzero" viewBox="0 0 5800 5800" xmlns:xlink="http://www.w3.org/1999/xlink">
	<title>door_open icon</title>
	<desc>door_open icon from the IconExperience.com I-Collection. Copyright by INCORS GmbH (www.incors.com).</desc>
		<path id="curve28" d="M2400 5500l-1700 0 0 -200 400 0 0 -4800 1300 0 0 -133 453 133 1847 0 0 4800 400 0 0 200 -892 0 -1808 319 0 -319zm0 -200l0 -4200 -700 0 0 4200 700 0zm0 -4400l0 -200 -1100 0 0 4600 200 0 0 -4400 900 0zm1134 -200l680 200 86 0 0 4400 200 0 0 -4600 -966 0zm-484 2400c0,104 -59,190 -122,200l-103 0c-69,0 -125,-90 -125,-200 0,-110 56,-200 125,-200 138,0 275,0 413,0l0 200 -188 0zm-450 -2467l0 4948 1500 -265 0 -4241 -1500 -442z"/>
</svg>