<?xml version="1.0" encoding="UTF-8"?>
<!DOCTYPE svg PUBLIC "-//W3C//DTD SVG 1.1//EN" "http://www.w3.org/Graphics/SVG/1.1/DTD/svg11.dtd">
<svg xmlns="http://www.w3.org/2000/svg" xml:space="preserve" width="580px" height="580px" shape-rendering="geometricPrecision" text-rendering="geometricPrecision" image-rendering="optimizeQuality" fill-rule="nonzero" clip-rule="nonzero" viewBox="0 0 5800 5800" xmlns:xlink="http://www.w3.org/1999/xlink">
	<title>dot_matrix icon</title>
	<desc>dot_matrix icon from the IconExperience.com I-Collection. Copyright by INCORS GmbH (www.incors.com).</desc>
		<path id="curve28"  d="M900 900l0 400 400 0 0 -400 -400 0zm600 0l0 400 400 0 0 -400 -400 0zm0 600l0 400 400 0 0 -400 -400 0zm600 0l0 400 400 0 0 -400 -400 0zm1800 1196l0 400 400 0 0 -400 -400 0zm600 0l0 400 400 0 0 -400 -400 0zm-1200 604l0 400 400 0 0 -400 -400 0zm600 0l0 400 400 0 0 -400 -400 0zm-3000 0l0 400 400 0 0 -400 -400 0zm600 0l0 400 400 0 0 -400 -400 0zm600 1200l0 400 400 0 0 -400 -400 0zm600 0l0 400 400 0 0 -400 -400 0zm1200 0l0 400 400 0 0 -400 -400 0zm600 0l0 400 400 0 0 -400 -400 0zm0 -3604l0 400 400 0 0 -400 -400 0zm0 604l0 400 400 0 0 -400 -400 0zm-1200 0l0 400 400 0 0 -400 -400 0zm0 604l0 400 400 0 0 -400 -400 0zm-1200 -4l0 400 400 0 0 -400 -400 0zm0 600l0 400 400 0 0 -400 -400 0zm600 -1800l0 400 400 0 0 -400 -400 0zm-1800 1200l0 400 400 0 0 -400 -400 0zm600 1800l0 400 400 0 0 -400 -400 0zm-600 600l0 400 400 0 0 -400 -400 0zm1800 -600l0 400 400 0 0 -400 -400 0zm1800 0l0 400 400 0 0 -400 -400 0zm800 -3400l0 4800 -4800 0 0 -4800 4800 0z"/>
</svg>