<?xml version="1.0" encoding="UTF-8"?>
<!DOCTYPE svg PUBLIC "-//W3C//DTD SVG 1.1//EN" "http://www.w3.org/Graphics/SVG/1.1/DTD/svg11.dtd">
<svg xmlns="http://www.w3.org/2000/svg" xml:space="preserve" width="580px" height="580px" shape-rendering="geometricPrecision" text-rendering="geometricPrecision" image-rendering="optimizeQuality" fill-rule="nonzero" clip-rule="nonzero" viewBox="0 0 5800 5800" xmlns:xlink="http://www.w3.org/1999/xlink">
	<title>dot_matrix icon</title>
	<desc>dot_matrix icon from the IconExperience.com I-Collection. Copyright by INCORS GmbH (www.incors.com).</desc>
		<path id="curve28"  d="M900 900l400 0 0 400 -400 0 0 -400zm600 0l400 0 0 400 -400 0 0 -400zm0 600l400 0 0 400 -400 0 0 -400zm600 0l400 0 0 400 -400 0 0 -400zm1800 1196l400 0 0 400 -400 0 0 -400zm600 0l400 0 0 400 -400 0 0 -400zm-1200 604l400 0 0 400 -400 0 0 -400zm600 0l400 0 0 400 -400 0 0 -400zm-3000 0l400 0 0 400 -400 0 0 -400zm600 0l400 0 0 400 -400 0 0 -400zm600 1200l400 0 0 400 -400 0 0 -400zm600 0l400 0 0 400 -400 0 0 -400zm1200 0l400 0 0 400 -400 0 0 -400zm600 0l400 0 0 400 -400 0 0 -400zm0 -3604l400 0 0 400 -400 0 0 -400zm0 604l400 0 0 400 -400 0 0 -400zm-1200 0l400 0 0 400 -400 0 0 -400zm0 604l400 0 0 400 -400 0 0 -400zm-1200 -4l400 0 0 400 -400 0 0 -400zm0 600l400 0 0 400 -400 0 0 -400zm600 -1800l400 0 0 400 -400 0 0 -400zm-1800 1200l400 0 0 400 -400 0 0 -400zm600 1800l400 0 0 400 -400 0 0 -400zm-600 600l400 0 0 400 -400 0 0 -400zm1800 -600l400 0 0 400 -400 0 0 -400zm1800 0l400 0 0 400 -400 0 0 -400zm800 -3400l0 4800 -4800 0 0 -4800 4800 0zm-200 200l-4400 0 0 4400 4400 0 0 -4400z"/>
</svg>