<?xml version="1.0" encoding="utf-8"?>
<!-- Generator: Adobe Illustrator 19.2.1, SVG Export Plug-In . SVG Version: 6.00 Build 0)  -->
<svg version="1.1" id="Ebene_1" xmlns="http://www.w3.org/2000/svg" xmlns:xlink="http://www.w3.org/1999/xlink" x="0px" y="0px"
	 width="580px" height="580px" viewBox="0 0 580 580" style="enable-background:new 0 0 580 580;" xml:space="preserve">
<g>
	<path d="M92,389.8H64.8V184.1c-2.1,2.1-5.2,4.5-9.2,7.2c-4,2.7-8.6,5.4-13.6,8.1c-5,2.7-10.4,5.1-15.9,7.5
		c-5.6,2.3-11,4.2-16.4,5.5v-27.6c6-1.7,12.3-3.9,19-6.7c6.7-2.8,13.3-6,19.8-9.5s12.6-7.1,18.3-11c5.8-3.8,10.7-7.6,14.9-11.2H92
		V389.8z"/>
	<path d="M207.6,351.9L181,433.6h-19.4l19.4-81.7H207.6z"/>
	<path d="M357,214.1c0-7.3-1.1-13.7-3.4-19.1c-2.3-5.4-5.4-9.9-9.3-13.5c-3.9-3.6-8.5-6.3-13.9-8.1c-5.3-1.8-11.1-2.7-17.3-2.7
		c-5.3,0-10.5,0.7-15.6,2.2c-5.1,1.4-10,3.4-14.9,6c-4.8,2.5-9.5,5.6-13.9,9.1c-4.5,3.5-8.7,7.5-12.5,11.8v-29.2
		c7.6-7.4,16.2-13.1,25.6-17c9.5-3.9,21-5.9,34.6-5.9c9.7,0,18.8,1.4,27.1,4.2s15.5,6.9,21.6,12.4c6.1,5.4,10.9,12.1,14.4,20.1
		s5.2,17.1,5.2,27.4c0,9.4-1.1,17.9-3.2,25.6s-5.4,14.8-9.8,21.6c-4.4,6.8-9.9,13.2-16.5,19.4c-6.6,6.2-14.4,12.5-23.4,18.9
		c-11.2,8-20.4,14.8-27.6,20.4c-7.3,5.6-13,10.9-17.3,15.9c-4.3,4.9-7.3,9.9-9,14.8c-1.7,4.9-2.6,10.6-2.6,17h118.5v24.4H246.9V378
		c0-10.2,1.1-19.1,3.3-26.9c2.2-7.7,5.9-15.1,11-22.1c5.1-7,11.8-13.9,20-20.9c8.2-7,18.3-14.8,30.3-23.6
		c8.6-6.2,15.9-12.1,21.7-17.8s10.5-11.3,14-16.9c3.5-5.6,6.1-11.4,7.6-17.2S357,220.7,357,214.1z"/>
	<path d="M570.3,322.4c0,10.7-2,20.5-6.1,29.3c-4,8.8-9.7,16.3-17.1,22.6c-7.4,6.3-16.2,11.1-26.5,14.5s-21.6,5.1-34,5.1
		c-22.7,0-40.7-4.3-54.1-12.9v-29.2c16,12.6,34.4,18.9,55.1,18.9c8.3,0,15.8-1.1,22.5-3.2c6.7-2.1,12.5-5.1,17.3-9.1
		s8.5-8.8,11.1-14.4c2.6-5.6,3.9-12,3.9-19.1c0-31.1-22.1-46.7-66.4-46.7h-19.8v-23.1H475c39.2,0,58.8-14.6,58.8-43.8
		c0-27-14.9-40.5-44.8-40.5c-16.8,0-32.6,5.6-47.3,16.9v-26.4c15.2-9.1,33.2-13.6,54.1-13.6c10,0,19,1.4,27.1,4.2
		c8.1,2.8,15,6.6,20.8,11.6c5.8,5,10.2,11,13.4,17.9s4.7,14.7,4.7,23.1c0,31.3-15.8,51.5-47.5,60.4v0.7c8.1,0.9,15.5,2.9,22.4,5.9
		c6.9,3,12.8,7,17.8,11.9c5,4.9,8.9,10.6,11.7,17.2C568.9,307.1,570.3,314.4,570.3,322.4z"/>
</g>
</svg>
