<?xml version="1.0" encoding="UTF-8"?>
<!DOCTYPE svg PUBLIC "-//W3C//DTD SVG 1.1//EN" "http://www.w3.org/Graphics/SVG/1.1/DTD/svg11.dtd">
<svg xmlns="http://www.w3.org/2000/svg" xml:space="preserve" width="580px" height="580px" shape-rendering="geometricPrecision" text-rendering="geometricPrecision" image-rendering="optimizeQuality" fill-rule="nonzero" clip-rule="nonzero" viewBox="0 0 5800 5800" xmlns:xlink="http://www.w3.org/1999/xlink">
	<title>download icon</title>
	<desc>download icon from the IconExperience.com I-Collection. Copyright by INCORS GmbH (www.incors.com).</desc>
		<path id="curve28"  d="M3000 3300l0 1959 829 -830 142 142 -1071 1070 -1071 -1070 142 -142 829 830 0 -1959 200 0zm-100 -3000c1105,0 2000,895 2000,2000 0,1003 -738,1833 -1700,1978l0 -978c0,-110 -90,-200 -200,-200l-200 0c-110,0 -200,90 -200,200l0 978c-962,-145 -1700,-975 -1700,-1978 0,-1105 895,-2000 2000,-2000zm123 1327c-15,28 -108,88 -154,153 -33,46 -61,103 -65,164 -3,40 -25,227 -22,241 29,146 162,286 301,341 69,28 197,-37 285,-66 97,-34 103,4 144,76 72,126 53,10 86,188 11,62 93,175 91,245 -2,108 -44,128 -57,222 -1,11 117,393 132,411 72,91 280,-128 385,-286 17,-26 180,-312 183,-321 68,-204 -105,-150 197,-538 99,-127 -69,-201 -1,-292 10,-14 74,-19 102,-66 21,-35 30,-85 41,-122 -103,-568 -473,-1044 -975,-1292 -37,17 -76,59 -107,74 -48,23 -139,34 -166,88 -33,67 67,132 5,173 -52,35 -70,72 -105,82 -85,24 -157,-19 -245,51 -92,74 -90,243 -20,277 72,35 178,53 225,-16 28,-41 97,-126 133,-143 74,-35 121,30 170,55 94,48 174,74 158,115 -30,78 83,21 72,-22 -11,-39 -89,-50 -143,-122 -17,-22 87,-42 122,7 32,46 76,134 101,162 30,34 235,-12 322,82 36,39 18,120 -29,144 -79,39 -122,9 -212,-7 -17,-3 -137,2 -154,0 -147,-25 -88,-182 -231,-231 -28,-10 -159,-7 -212,11 -228,81 -230,-61 -357,162zm43 -1119c-55,-5 -110,-8 -166,-8 -215,0 -422,38 -613,107 21,3 37,8 44,18 27,36 -110,271 -17,249 59,-13 147,-103 249,-147 100,-43 190,-20 289,-56 134,-49 159,-129 199,-153 6,-3 11,-7 15,-10zm-1076 239c-393,230 -691,606 -820,1054 38,-27 87,-59 133,-91 67,-47 100,-197 134,-223 88,-70 165,-160 283,-176 34,-5 14,-122 66,-150 86,-46 92,118 192,11 47,-50 -53,-201 -43,-250 22,-108 132,-105 129,-140 0,-2 -40,-16 -74,-35zm-881 1369c-5,50 -8,101 -9,153 57,82 104,167 102,189 -9,86 1,183 18,287 18,113 123,257 221,368 46,52 35,235 72,334 115,139 251,261 403,360 -27,-128 54,-151 45,-260 -10,-114 52,-179 164,-226 69,-29 13,-156 32,-230 26,-98 109,-152 61,-245 -22,-42 -271,-117 -361,-171 -115,-69 37,-88 -240,-234 -68,-36 -115,-133 -229,-168 -71,-22 -122,56 -185,0 -18,-17 -63,-79 -94,-157z"/>
</svg>