<?xml version="1.0" encoding="UTF-8"?>
<!DOCTYPE svg PUBLIC "-//W3C//DTD SVG 1.1//EN" "http://www.w3.org/Graphics/SVG/1.1/DTD/svg11.dtd">
<svg xmlns="http://www.w3.org/2000/svg" xml:space="preserve" width="580px" height="580px" shape-rendering="geometricPrecision" text-rendering="geometricPrecision" image-rendering="optimizeQuality" fill-rule="nonzero" clip-rule="nonzero" viewBox="0 0 5800 5800" xmlns:xlink="http://www.w3.org/1999/xlink">
	<title>dram icon</title>
	<desc>dram icon from the IconExperience.com I-Collection. Copyright by INCORS GmbH (www.incors.com).</desc>
		<path id="curve28"  d="M5700 1500l0 600 -100 0c-56,0 -100,44 -100,100 0,56 44,100 100,100l100 0 0 2000 -3400 0 0 -300c0,-110 -90,-200 -200,-200 -110,0 -200,90 -200,200l0 300 -1800 0 0 -2000 100 0c56,0 100,-44 100,-100 0,-55 -45,-100 -100,-100l-100 0 0 -600 5600 0zm-5000 2200l-200 0 0 500 200 0 0 -500zm400 0l-200 0 0 500 200 0 0 -500zm400 0l-200 0 0 500 200 0 0 -500zm1400 0l-200 0 0 500 200 0 0 -500zm400 0l-200 0 0 500 200 0 0 -500zm400 0l-200 0 0 500 200 0 0 -500zm400 0l-200 0 0 500 200 0 0 -500zm400 0l-200 0 0 500 200 0 0 -500zm400 0l-200 0 0 500 200 0 0 -500zm400 0l-200 0 0 500 200 0 0 -500zm-4600 -1800l0 200 -100 0 0 200 100 0 0 200 -100 0 0 200 100 0 0 200 -100 0 0 200 100 0 0 200c267,0 533,0 800,0l0 -200 100 0 0 -200 -100 0 0 -200 100 0 0 -200 -100 0 0 -200 100 0 0 -200 -100 0 0 -200c-267,0 -533,0 -800,0zm600 200c0,333 0,667 0,1000l-400 0c0,-333 0,-667 0,-1000l400 0zm600 -200l0 200 -100 0 0 200 100 0 0 200 -100 0 0 200 100 0 0 200 -100 0 0 200 100 0 0 200c267,0 533,0 800,0l0 -200 100 0 0 -200 -100 0 0 -200 100 0 0 -200 -100 0 0 -200 100 0 0 -200 -100 0 0 -200c-267,0 -533,0 -800,0zm600 200c0,333 0,667 0,1000l-400 0c0,-333 0,-667 0,-1000l400 0zm600 -200l0 200 -100 0 0 200 100 0 0 200 -100 0 0 200 100 0 0 200 -100 0 0 200 100 0 0 200c267,0 533,0 800,0l0 -200 100 0 0 -200 -100 0 0 -200 100 0 0 -200 -100 0 0 -200 100 0 0 -200 -100 0 0 -200c-267,0 -533,0 -800,0zm600 200c0,333 0,667 0,1000l-400 0c0,-333 0,-667 0,-1000l400 0zm600 -200l0 200 -100 0 0 200 100 0 0 200 -100 0 0 200 100 0 0 200 -100 0 0 200 100 0 0 200c267,0 533,0 800,0l0 -200 100 0 0 -200 -100 0 0 -200 100 0 0 -200 -100 0 0 -200 100 0 0 -200 -100 0 0 -200c-267,0 -533,0 -800,0zm600 200c0,333 0,667 0,1000l-400 0c0,-333 0,-667 0,-1000l400 0z"/>
</svg>