<?xml version="1.0" encoding="UTF-8"?>
<!DOCTYPE svg PUBLIC "-//W3C//DTD SVG 1.1//EN" "http://www.w3.org/Graphics/SVG/1.1/DTD/svg11.dtd">
<svg xmlns="http://www.w3.org/2000/svg" xml:space="preserve" width="580px" height="580px" shape-rendering="geometricPrecision" text-rendering="geometricPrecision" image-rendering="optimizeQuality" fill-rule="nonzero" clip-rule="nonzero" viewBox="0 0 5800 5800" xmlns:xlink="http://www.w3.org/1999/xlink">
	<title>dram icon</title>
	<desc>dram icon from the IconExperience.com I-Collection. Copyright by INCORS GmbH (www.incors.com).</desc>
		<path id="curve28" d="M5700 1500l0 600 -100 0c-56,0 -100,44 -100,100 0,56 44,100 100,100l100 0 0 2000 -3400 0 0 -300c0,-110 -90,-200 -200,-200 -110,0 -200,90 -200,200l0 300 -1800 0 0 -2000 100 0c56,0 100,-44 100,-100 0,-55 -45,-100 -100,-100l-100 0 0 -600 5600 0zm-400 2200l0 400 200 0 0 -1617c-119,-42 -200,-155 -200,-283 0,-128 81,-241 200,-283l0 -217 -5200 0 0 217c120,42 200,156 200,283 0,128 -81,241 -200,283l0 1617 200 0 0 -400 200 0 0 400 200 0 0 -400 200 0 0 400 200 0 0 -400 200 0 0 400 200 0 0 -100c0,-220 180,-400 400,-400 220,0 400,180 400,400l0 100 200 0 0 -400 200 0 0 400 200 0 0 -400 200 0 0 400 200 0 0 -400 200 0 0 400 200 0 0 -400 200 0 0 400 200 0 0 -400 200 0 0 400 200 0 0 -400 200 0 0 400 200 0 0 -400 200 0zm-3800 -1800l0 200 100 0 0 200 -100 0 0 200 100 0 0 200 -100 0 0 200 100 0 0 200 -100 0 0 200c-267,0 -533,0 -800,0l0 -200 -100 0 0 -200 100 0 0 -200 -100 0 0 -200 100 0 0 -200 -100 0 0 -200 100 0 0 -200 800 0zm-200 200l-400 0c0,333 0,667 0,1000l400 0c0,-333 0,-667 0,-1000zm1400 -200l0 200 100 0 0 200 -100 0 0 200 100 0 0 200 -100 0 0 200 100 0 0 200 -100 0 0 200c-267,0 -533,0 -800,0l0 -200 -100 0 0 -200 100 0 0 -200 -100 0 0 -200 100 0 0 -200 -100 0 0 -200 100 0 0 -200c267,0 533,0 800,0zm-200 200l-400 0c0,333 0,667 0,1000l400 0c0,-333 0,-667 0,-1000zm1400 -200l0 200 100 0 0 200 -100 0 0 200 100 0 0 200 -100 0 0 200 100 0 0 200 -100 0 0 200 -800 0 0 -200 -100 0 0 -200 100 0 0 -200 -100 0 0 -200 100 0 0 -200 -100 0 0 -200 100 0 0 -200 800 0zm-200 200l-400 0c0,333 0,667 0,1000l400 0c0,-333 0,-667 0,-1000zm1400 -200l0 200 100 0 0 200 -100 0 0 200 100 0 0 200 -100 0 0 200 100 0 0 200 -100 0 0 200c-267,0 -533,0 -800,0l0 -200 -100 0 0 -200 100 0 0 -200 -100 0 0 -200 100 0 0 -200 -100 0 0 -200 100 0 0 -200 800 0zm-200 200l-400 0c0,333 0,667 0,1000l400 0c0,-333 0,-667 0,-1000z"/>
</svg>