<?xml version="1.0" encoding="UTF-8"?>
<!DOCTYPE svg PUBLIC "-//W3C//DTD SVG 1.1//EN" "http://www.w3.org/Graphics/SVG/1.1/DTD/svg11.dtd">
<svg xmlns="http://www.w3.org/2000/svg" xml:space="preserve" width="580px" height="580px" shape-rendering="geometricPrecision" text-rendering="geometricPrecision" image-rendering="optimizeQuality" fill-rule="nonzero" clip-rule="nonzero" viewBox="0 0 5800 5800" xmlns:xlink="http://www.w3.org/1999/xlink">
	<title>drink icon</title>
	<desc>drink icon from the IconExperience.com I-Collection. Copyright by INCORS GmbH (www.incors.com).</desc>
		<path id="curve28" d="M3000 1500l0 -647c0,-308 234,-570 544,-599 96,-9 194,6 289,46l1206 508 -78 184 -1206 -508c-64,-27 -129,-37 -193,-31 -207,19 -362,195 -362,400l0 647 -200 0zm-1586 700l-114 0 0 -500 3600 0c0,167 0,333 0,500l-114 0 -500 3300 -2372 0 -500 -3300zm86 -300l0 100 86 0 500 3300 2028 0 487 -3215 13 -85 86 0 0 -100 -3200 0z"/>
</svg>