<?xml version="1.0" encoding="UTF-8"?>
<!DOCTYPE svg PUBLIC "-//W3C//DTD SVG 1.1//EN" "http://www.w3.org/Graphics/SVG/1.1/DTD/svg11.dtd">
<svg xmlns="http://www.w3.org/2000/svg" xml:space="preserve" width="580px" height="580px" shape-rendering="geometricPrecision" text-rendering="geometricPrecision" image-rendering="optimizeQuality" fill-rule="nonzero" clip-rule="nonzero" viewBox="0 0 5800 5800" xmlns:xlink="http://www.w3.org/1999/xlink">
	<title>drop_down_list icon</title>
	<desc>drop_down_list icon from the IconExperience.com I-Collection. Copyright by INCORS GmbH (www.incors.com).</desc>
		<path id="curve28"  d="M300 2300l3800 0 0 -1000 -3800 0 0 1000zm4000 200l0 2400 -4200 0c0,-1267 0,-2533 0,-3800l5600 0 0 1400 -1400 0zm100 -1000l500 600 500 -600 -1000 0zm-3700 2600l0 200 3000 0 0 -200 -3000 0zm0 -600l0 200 3000 0 0 -200 -3000 0zm0 -600l0 200 3000 0 0 -200 -3000 0z"/>
</svg>