<?xml version="1.0" encoding="UTF-8"?>
<!DOCTYPE svg PUBLIC "-//W3C//DTD SVG 1.1//EN" "http://www.w3.org/Graphics/SVG/1.1/DTD/svg11.dtd">
<svg xmlns="http://www.w3.org/2000/svg" xml:space="preserve" width="580px" height="580px" shape-rendering="geometricPrecision" text-rendering="geometricPrecision" image-rendering="optimizeQuality" fill-rule="nonzero" clip-rule="nonzero" viewBox="0 0 5800 5800" xmlns:xlink="http://www.w3.org/1999/xlink">
	<title>drop icon</title>
	<desc>drop icon from the IconExperience.com I-Collection. Copyright by INCORS GmbH (www.incors.com).</desc>
		<path id="curve28"  d="M4100 3700c0,663 -537,1200 -1200,1200l0 -200c552,0 1000,-448 1000,-1000l200 0zm-1113 -3250c262,459 534,859 782,1222 518,761 931,1367 931,2028 0,994 -806,1800 -1800,1800 -994,0 -1800,-806 -1800,-1800 0,-660 413,-1267 931,-2028 248,-363 520,-763 782,-1222l87 -151 87 151zm617 1335c-224,-328 -467,-685 -704,-1086 -237,401 -480,758 -704,1086 -498,732 -896,1315 -896,1915 0,884 716,1600 1600,1600 884,0 1600,-716 1600,-1600 0,-600 -398,-1183 -896,-1915z"/>
</svg>