<?xml version="1.0" encoding="UTF-8"?>
<!DOCTYPE svg PUBLIC "-//W3C//DTD SVG 1.1//EN" "http://www.w3.org/Graphics/SVG/1.1/DTD/svg11.dtd">
<svg xmlns="http://www.w3.org/2000/svg" xml:space="preserve" width="580px" height="580px" shape-rendering="geometricPrecision" text-rendering="geometricPrecision" image-rendering="optimizeQuality" fill-rule="nonzero" clip-rule="nonzero" viewBox="0 0 5800 5800" xmlns:xlink="http://www.w3.org/1999/xlink">
	<title>drum icon</title>
	<desc>drum icon from the IconExperience.com I-Collection. Copyright by INCORS GmbH (www.incors.com).</desc>
	<path id="curve0"  d="M4025 1375c138,0 250,112 250,250 0,137 -113,250 -250,250 -129,0 -238,-100 -249,-228l-3406 -1100c-53,-17 -82,-73 -65,-125 17,-53 73,-81 125,-65l3409 1101c48,-53 115,-83 186,-83zm1345 -918c52,-16 108,12 125,65 17,52 -12,108 -65,125l-1726 558 -325 -105 1991 -643zm-2640 1062l-706 228c-11,128 -120,228 -249,228 -137,0 -250,-113 -250,-250 0,-138 113,-250 250,-250 71,0 138,30 186,83l445 -144 324 105zm-683 1581l-547 1251 -547 -1251 1094 0zm-1312 0l612 1400 -647 0 0 -1400 35 0zm918 1400l547 -1251 547 1251 -1094 0zm1400 0l547 -1251 547 1251 -1094 0zm1400 0l612 -1400 35 0 0 1400 -647 0zm394 -1400l-547 1251 -547 -1251 1094 0zm-1400 0l-547 1251 -547 -1251 1094 0zm-2947 -200l0 -800 4800 0 0 800 -4800 0zm4800 1800l0 800 -4800 0 0 -800 4800 0z"/>
</svg>