<?xml version="1.0" encoding="UTF-8"?>
<!DOCTYPE svg PUBLIC "-//W3C//DTD SVG 1.1//EN" "http://www.w3.org/Graphics/SVG/1.1/DTD/svg11.dtd">
<svg xmlns="http://www.w3.org/2000/svg" xml:space="preserve" width="580px" height="580px" shape-rendering="geometricPrecision" text-rendering="geometricPrecision" image-rendering="optimizeQuality" fill-rule="nonzero" clip-rule="nonzero" viewBox="0 0 5800 5800" xmlns:xlink="http://www.w3.org/1999/xlink">
	<title>dude2 icon</title>
	<desc>dude2 icon from the IconExperience.com I-Collection. Copyright by INCORS GmbH (www.incors.com).</desc>
		<path id="curve28" d="M3850 3579c104,66 220,110 335,154 173,67 342,132 469,257 111,111 196,248 254,395 61,156 92,324 92,484 0,228 -254,376 -605,469 -464,123 -1113,162 -1495,162 -382,0 -1031,-39 -1495,-162 -351,-93 -605,-241 -605,-469 0,-159 31,-328 92,-484 58,-147 143,-285 254,-395 127,-125 296,-190 469,-257 115,-44 231,-88 333,-153 65,-38 101,-98 122,-167 21,-67 28,-145 30,-220 -63,-76 -122,-186 -175,-305 -74,-171 -137,-363 -174,-496 -96,-65 -158,-172 -186,-292 -28,-125 -18,-266 31,-386 -7,-47 -11,-95 -11,-143 0,-81 11,-163 32,-244 23,-137 62,-282 126,-418 67,-145 163,-279 295,-383 104,-82 233,-139 382,-175 143,-35 305,-51 480,-51 187,0 347,11 487,44 147,34 271,92 378,185 123,105 218,245 288,395 36,78 66,159 89,239 18,-6 37,-10 55,-15 291,-70 592,-23 854,131 47,28 63,90 35,137 -14,23 -35,39 -60,46 -106,30 -192,78 -267,132 85,92 154,209 221,347 24,50 3,110 -46,133 -12,6 -25,9 -37,10 -294,21 -500,24 -657,-12 -1,9 -3,19 -5,28 -28,120 -90,227 -186,292 -37,132 -99,325 -174,496 -52,118 -111,228 -174,304 2,77 8,155 28,223 20,66 54,124 121,164zm-1550 -424c0,102 -7,213 -39,317 -13,41 -29,81 -50,117 30,40 77,74 136,104 143,71 347,107 553,107 206,0 410,-36 553,-107 58,-29 105,-63 135,-102 -21,-38 -38,-78 -50,-120 -30,-101 -35,-210 -38,-314 0,-28 11,-54 29,-72 56,-56 112,-160 163,-277 79,-178 142,-382 175,-507 7,-29 27,-52 53,-64 61,-32 102,-101 120,-181 22,-94 12,-201 -29,-286 -5,-10 -8,-20 -10,-31 -10,3 -21,6 -32,9 -233,52 -652,79 -1069,78 -418,0 -837,-26 -1069,-78 -11,-3 -22,-6 -32,-9 -2,13 -6,26 -13,37 -39,84 -47,188 -26,280 18,81 59,150 122,181 26,14 44,37 51,64 34,126 98,330 175,507 52,118 108,222 163,277 19,19 29,45 29,70zm-226 581c-2,2 -21,14 -20,14 -114,72 -242,121 -368,169 -153,59 -302,117 -399,213 -91,89 -161,203 -209,326 -52,132 -78,275 -78,411 0,115 192,206 456,276 444,118 1073,155 1444,155 371,0 1000,-37 1444,-155 264,-70 456,-161 456,-276 0,-136 -26,-279 -78,-411 -48,-123 -118,-236 -209,-326 -97,-96 -246,-154 -399,-213 -135,-52 -267,-102 -388,-183 -48,53 -111,98 -184,135 -172,86 -408,129 -642,129 -234,0 -470,-43 -642,-129 -73,-37 -136,-82 -184,-135zm2141 -1991c100,-36 177,-103 259,-175 81,-71 167,-146 277,-209 -164,-53 -338,-60 -508,-19 -18,4 -35,9 -53,14 17,71 25,144 25,215 0,48 -4,96 -11,143 4,10 8,21 11,31zm389 -24c-73,64 -143,126 -222,173 92,9 206,8 348,1 -39,-68 -80,-126 -126,-174zm-1704 -94c405,0 808,-25 1025,-74 26,-5 46,-18 60,-35 11,-15 17,-33 15,-52 -14,-139 -56,-304 -128,-458 -59,-126 -137,-242 -237,-329 -81,-69 -177,-113 -293,-141 -123,-28 -269,-38 -442,-38 -162,0 -308,14 -434,44 -120,30 -223,75 -304,139 -106,83 -184,192 -239,310 -72,154 -108,323 -123,473 -2,19 4,37 15,52 14,17 34,30 60,35 218,49 620,74 1025,74z"/>
</svg>