<?xml version="1.0" encoding="UTF-8"?>
<!DOCTYPE svg PUBLIC "-//W3C//DTD SVG 1.1//EN" "http://www.w3.org/Graphics/SVG/1.1/DTD/svg11.dtd">
<svg xmlns="http://www.w3.org/2000/svg" xml:space="preserve" width="580px" height="580px" shape-rendering="geometricPrecision" text-rendering="geometricPrecision" image-rendering="optimizeQuality" fill-rule="nonzero" clip-rule="nonzero" viewBox="0 0 5800 5800" xmlns:xlink="http://www.w3.org/1999/xlink">
	<title>dude5 icon</title>
	<desc>dude5 icon from the IconExperience.com I-Collection. Copyright by INCORS GmbH (www.incors.com).</desc>
		<path id="curve28"  d="M1862 1154c230,64 632,96 1038,96 401,0 800,-31 1031,-94 -17,-50 -36,-100 -59,-148 -213,-456 -517,-508 -972,-508 -421,0 -780,73 -977,493 -24,52 -45,106 -61,161zm3046 3231c61,156 92,324 92,484 0,228 -254,376 -605,469 -464,123 -1113,162 -1495,162 -382,0 -1031,-39 -1495,-162 -351,-93 -605,-241 -605,-469 0,-159 31,-328 92,-484 136,-346 320,-498 660,-624 96,-35 196,-72 296,-136 65,-38 101,-98 122,-167 21,-68 28,-146 30,-222 -116,-151 -171,-439 -215,-671 -12,-65 -24,-125 -35,-174 -184,-125 -232,-389 -181,-594 -46,-24 -78,-60 -67,-117l100 -500c7,-36 33,-64 66,-75 20,-66 45,-132 75,-196 232,-496 654,-609 1157,-609 536,0 903,91 1153,624 27,59 51,119 71,179 37,10 66,40 74,78l100 499c11,57 -21,93 -67,117 51,205 3,469 -181,594 -11,48 -22,108 -34,172 -43,231 -97,520 -215,673 2,77 8,156 28,224 31,103 67,122 144,182 61,65 166,101 277,140 347,120 520,250 658,603zm-2904 -626c-104,84 -258,144 -382,190 -287,106 -429,215 -544,509 -52,132 -78,275 -78,411 0,115 192,206 456,276 444,118 1073,155 1444,155 371,0 1000,-37 1444,-155 264,-70 456,-161 456,-276 0,-136 -26,-279 -78,-411 -116,-296 -247,-387 -537,-488 -180,-62 -242,-94 -389,-210 -32,28 -69,53 -110,76 -194,109 -491,164 -786,164 -295,0 -592,-55 -786,-164 -41,-23 -78,-48 -110,-77zm896 -2309c-434,0 -871,-38 -1125,-115l-62 309c196,71 689,106 1187,106 498,0 991,-35 1187,-106l-62 -309c-254,77 -691,115 -1125,115z"/>
</svg>