<?xml version="1.0" encoding="UTF-8"?>
<!DOCTYPE svg PUBLIC "-//W3C//DTD SVG 1.1//EN" "http://www.w3.org/Graphics/SVG/1.1/DTD/svg11.dtd">
<svg xmlns="http://www.w3.org/2000/svg" xml:space="preserve" width="580px" height="580px" shape-rendering="geometricPrecision" text-rendering="geometricPrecision" image-rendering="optimizeQuality" fill-rule="nonzero" clip-rule="nonzero" viewBox="0 0 5800 5800" xmlns:xlink="http://www.w3.org/1999/xlink">
	<title>dude4 icon</title>
	<desc>dude4 icon from the IconExperience.com I-Collection. Copyright by INCORS GmbH (www.incors.com).</desc>
		<path id="curve28"  d="M1933 2301c34,126 98,330 175,507 52,118 108,222 163,277 19,19 29,45 29,70 0,102 -7,213 -39,317 -13,41 -29,81 -50,117 30,40 77,74 136,104 143,71 347,107 553,107 206,0 410,-36 553,-107 58,-29 105,-63 135,-102 -21,-38 -38,-78 -50,-120 -30,-101 -35,-210 -38,-314 0,-28 11,-54 29,-72 56,-56 112,-160 163,-277 79,-178 142,-382 175,-507 7,-29 27,-52 53,-64 61,-32 102,-101 120,-181 14,-61 15,-128 2,-191l-206 151c-30,21 -69,46 -116,63 -52,19 -112,27 -173,9 -165,-50 -408,-75 -651,-75 -245,0 -485,25 -642,74 -62,20 -122,12 -175,-8 -45,-17 -85,-42 -115,-63l-206 -151c-13,63 -12,130 2,191 18,81 59,150 122,181 26,14 44,37 51,64zm2267 -598c53,124 64,269 35,397 -28,120 -90,227 -186,292 -37,132 -99,325 -174,496 -52,118 -111,228 -174,304 2,77 8,155 28,223 20,66 54,124 121,164 104,66 220,110 335,154 173,67 342,132 469,257 111,111 196,248 254,395 61,156 92,324 92,484 0,228 -254,376 -605,469 -464,123 -1113,162 -1495,162 -382,0 -1031,-39 -1495,-162 -351,-93 -605,-241 -605,-469 0,-159 31,-328 92,-484 58,-147 143,-285 254,-395 127,-125 296,-190 469,-257 115,-44 231,-88 333,-153 65,-38 101,-98 122,-167 21,-67 28,-145 30,-220 -63,-76 -122,-186 -175,-305 -74,-171 -137,-363 -174,-496 -96,-65 -158,-172 -186,-292 -29,-128 -18,-273 35,-397 0,-318 27,-660 204,-932 180,-277 506,-471 1096,-471 590,0 916,194 1096,471 177,272 204,614 204,932zm-2325 1l206 150c19,13 43,29 67,38 17,6 33,9 47,5 176,-56 438,-84 701,-84 260,0 524,28 708,83 15,5 32,2 48,-5 24,-8 48,-23 67,-37l206 -150c-248,-136 -635,-204 -1025,-204 -390,0 -777,68 -1025,204zm460 2201c-150,142 -277,209 -392,269 -99,52 -187,98 -268,191 -175,202 -176,492 -175,791 440,109 1041,144 1400,144 359,0 960,-35 1400,-144 1,-299 0,-589 -175,-791 -81,-93 -169,-139 -268,-191 -115,-60 -242,-127 -392,-269 -163,63 -365,95 -565,95 -200,0 -402,-32 -565,-95zm1391 -169c-22,25 -47,47 -75,68 112,95 209,147 299,194 116,61 220,115 325,237 211,242 224,547 225,863 180,-62 300,-138 300,-229 0,-136 -26,-279 -78,-411 -48,-123 -118,-236 -209,-326 -97,-96 -246,-154 -399,-213 -134,-51 -269,-103 -388,-183zm-2426 1362c1,-316 14,-621 225,-863 105,-122 209,-176 325,-237 90,-47 187,-99 299,-194 -28,-21 -53,-43 -75,-68 -118,80 -255,132 -388,183 -153,59 -302,117 -399,213 -91,89 -161,203 -209,326 -52,132 -78,275 -78,411 0,91 120,167 300,229zm2529 -4219c-145,-223 -419,-379 -929,-379 -510,0 -784,156 -929,379 -117,180 -156,409 -167,638 282,-145 690,-217 1096,-217 406,0 814,72 1096,217 -11,-229 -50,-458 -167,-638z"/>
</svg>