<?xml version="1.0" encoding="UTF-8"?>
<!DOCTYPE svg PUBLIC "-//W3C//DTD SVG 1.1//EN" "http://www.w3.org/Graphics/SVG/1.1/DTD/svg11.dtd">
<svg xmlns="http://www.w3.org/2000/svg" xml:space="preserve" width="580px" height="580px" shape-rendering="geometricPrecision" text-rendering="geometricPrecision" image-rendering="optimizeQuality" fill-rule="nonzero" clip-rule="nonzero" viewBox="0 0 5800 5800" xmlns:xlink="http://www.w3.org/1999/xlink">
	<title>dude4 icon</title>
	<desc>dude4 icon from the IconExperience.com I-Collection. Copyright by INCORS GmbH (www.incors.com).</desc>
		<path id="curve28"  d="M1948 3580c65,-38 101,-98 122,-167 21,-67 28,-145 30,-220 -158,-190 -283,-565 -349,-801 -172,-117 -226,-355 -191,-550 8,-47 21,-93 40,-139 0,-318 27,-660 204,-932 180,-277 506,-471 1096,-471 590,0 916,194 1096,471 177,272 204,614 204,932 19,46 32,92 41,139 34,196 -20,433 -192,550 -66,238 -189,609 -348,800 2,77 8,155 28,223 23,77 56,123 125,166 100,64 216,108 331,152 370,143 572,267 723,652 61,156 92,324 92,484 0,228 -254,376 -605,469 -464,123 -1113,162 -1495,162 -382,0 -1031,-39 -1495,-162 -351,-93 -605,-241 -605,-469 0,-159 31,-328 92,-484 151,-385 353,-509 723,-652 115,-44 231,-88 333,-153zm1703 224c112,95 209,147 299,194 116,61 220,115 325,237 211,242 224,547 225,863 180,-62 300,-138 300,-229 0,-136 -26,-279 -78,-411 -129,-329 -294,-418 -608,-539 -126,-48 -254,-97 -368,-169 -6,-5 -13,-9 -20,-14 -22,25 -47,47 -75,68zm649 1352c1,-299 0,-589 -175,-791 -81,-93 -169,-139 -268,-191 -115,-60 -242,-127 -392,-269 -163,63 -365,95 -565,95 -200,0 -402,-32 -565,-95 -150,142 -277,209 -392,269 -99,52 -187,98 -268,191 -175,202 -176,492 -175,791 440,109 1041,144 1400,144 359,0 960,-35 1400,-144zm-3000 -58c1,-316 14,-621 225,-863 105,-122 209,-176 325,-237 90,-47 187,-99 299,-194 -28,-21 -53,-43 -75,-68 -2,2 -21,14 -20,14 -114,72 -242,121 -368,169 -314,121 -479,210 -608,539 -52,132 -78,275 -78,411 0,91 120,167 300,229zm2529 -4219c-145,-223 -419,-379 -929,-379 -510,0 -784,156 -929,379 -117,180 -156,409 -167,638 282,-145 690,-217 1096,-217 406,0 814,72 1096,217 -11,-229 -50,-458 -167,-638zm96 825c-248,-136 -635,-204 -1025,-204 -390,0 -777,68 -1025,204l206 150c27,19 80,53 114,43 176,-56 438,-84 701,-84 260,0 524,28 708,83 36,11 87,-22 115,-42l206 -150z"/>
</svg>