<?xml version="1.0" encoding="UTF-8"?>
<!DOCTYPE svg PUBLIC "-//W3C//DTD SVG 1.1//EN" "http://www.w3.org/Graphics/SVG/1.1/DTD/svg11.dtd">
<svg xmlns="http://www.w3.org/2000/svg" xml:space="preserve" width="580px" height="580px" shape-rendering="geometricPrecision" text-rendering="geometricPrecision" image-rendering="optimizeQuality" fill-rule="nonzero" clip-rule="nonzero" viewBox="0 0 5800 5800" xmlns:xlink="http://www.w3.org/1999/xlink">
	<title>dude6 icon</title>
	<desc>dude6 icon from the IconExperience.com I-Collection. Copyright by INCORS GmbH (www.incors.com).</desc>
		<path id="curve28"  d="M1500 1100l207 0c79,-541 706,-800 1193,-800 487,0 1114,259 1193,800l207 0c220,0 400,180 400,400l0 600c0,220 -180,400 -400,400l-300 0c-55,0 -100,-45 -100,-100l0 -1200c0,-477 -599,-700 -1000,-700 -401,0 -1000,223 -1000,700l0 1200c0,55 -45,100 -100,100l-300 0c-220,0 -400,-180 -400,-400l0 -600c0,-220 180,-400 400,-400zm2200 1300c0,166 134,300 300,300l45 0c-9,48 -20,94 -33,138 -44,146 -110,272 -184,366 23,7 44,23 58,45 1,2 11,27 11,27l93 372c87,50 174,82 258,113 144,54 279,104 406,229 111,111 196,248 254,395 61,156 92,324 92,484 0,228 -254,376 -605,469 -464,123 -1113,162 -1495,162 -382,0 -1031,-39 -1495,-162 -351,-93 -605,-241 -605,-469 0,-159 31,-328 92,-484 58,-147 143,-285 254,-395 127,-125 262,-175 406,-229 84,-31 171,-63 258,-113l93 -372c9,-36 36,-62 69,-72 -73,-94 -139,-221 -183,-367 -13,-44 -24,-90 -34,-137l45 0c166,0 300,-134 300,-300 -1,0 -1,-93 -1,-228 30,18 64,28 101,28l400 0c83,0 155,-49 185,-126l110 -274 10 0 110 274c30,76 103,126 185,126l400 0c37,0 71,-10 101,-27 0,134 0,227 -1,227zm-1600 -1200c0,-351 523,-500 800,-500 277,0 800,149 800,500 0,33 0,304 0,304 -13,-3 -26,-4 -40,-4l-580 0c-68,0 -127,32 -165,88 -3,4 -5,8 -8,12l-14 0c-2,-4 -5,-8 -7,-12 -19,-27 -43,-50 -72,-65 -29,-15 -60,-23 -94,-23l-580 0c-14,0 -27,1 -40,4 0,0 0,-271 0,-304zm1789 2620c-263,137 -627,205 -989,205 -362,0 -726,-68 -989,-205 -101,59 -197,94 -289,129 -124,46 -240,89 -335,183 -91,89 -161,203 -209,326 -52,132 -78,275 -78,411 0,115 192,206 456,276 444,118 1073,155 1444,155 371,0 1000,-37 1444,-155 264,-70 456,-161 456,-276 0,-136 -26,-279 -78,-411 -48,-123 -118,-236 -209,-326 -95,-94 -211,-137 -335,-183 -92,-35 -188,-70 -289,-129zm-989 -195c-294,0 -588,-59 -834,-177l-51 202c233,117 558,175 885,175 327,0 652,-58 885,-175l-51 -202c-246,118 -540,177 -834,177z"/>
</svg>