<?xml version="1.0" encoding="UTF-8"?>
<!DOCTYPE svg PUBLIC "-//W3C//DTD SVG 1.1//EN" "http://www.w3.org/Graphics/SVG/1.1/DTD/svg11.dtd">
<svg xmlns="http://www.w3.org/2000/svg" xml:space="preserve" width="580px" height="580px" shape-rendering="geometricPrecision" text-rendering="geometricPrecision" image-rendering="optimizeQuality" fill-rule="nonzero" clip-rule="nonzero" viewBox="0 0 5800 5800" xmlns:xlink="http://www.w3.org/1999/xlink">
	<title>dude1 icon</title>
	<desc>dude1 icon from the IconExperience.com I-Collection. Copyright by INCORS GmbH (www.incors.com).</desc>
		<path id="curve28"  d="M2895 1800l10 0 110 274c30,76 103,126 185,126l400 0c95,0 177,-67 196,-161l60 -300c6,-30 5,-59 -2,-88 -22,-88 -103,-151 -194,-151l-580 0c-34,0 -65,8 -94,23 -33,18 -60,45 -79,77l-7 0 -7 0c-19,-32 -46,-60 -79,-77 -29,-15 -60,-23 -94,-23l-580 0c-91,0 -172,63 -194,151 0,35 -11,45 -2,88l60 300c19,93 101,161 196,161l400 0c82,0 155,-50 185,-126l110 -274zm999 2102c-40,335 -269,621 -534,952 -110,137 -227,283 -338,445 376,-7 924,-47 1323,-151 264,-68 455,-157 455,-268 0,-134 -26,-273 -78,-402 -47,-120 -117,-231 -208,-319 -72,-70 -207,-119 -315,-158 -64,-24 -128,-44 -193,-64 -39,-11 -75,-22 -112,-35zm-949 -3113c-28,14 -60,15 -90,0 -92,-46 -182,-83 -271,-101 -84,-17 -169,-17 -257,8 -410,117 -455,477 -506,889 -26,208 -53,427 -126,646 -30,90 -75,175 -121,262 -107,204 -222,421 -87,658 79,138 233,205 370,264 140,61 265,115 328,232 29,47 14,109 -32,138 -18,11 -36,21 -53,31 8,304 233,585 495,913 100,124 204,255 305,395 101,-140 205,-271 305,-395 262,-328 487,-609 495,-913 -18,-10 -38,-21 -55,-33 -46,-30 -59,-93 -28,-138 111,-167 241,-205 373,-244 115,-33 232,-67 321,-246 114,-227 21,-413 -74,-602 -53,-106 -106,-212 -134,-330 -43,-181 -59,-366 -73,-545 -36,-439 -70,-843 -557,-982 -88,-25 -173,-25 -256,-8 -89,18 -180,55 -272,101zm-167 4510c-111,-162 -228,-308 -338,-445 -265,-331 -494,-617 -534,-952 -37,13 -73,24 -112,35 -65,20 -129,40 -193,64 -108,39 -243,88 -315,158 -91,88 -160,199 -208,319 -52,129 -78,269 -78,402 0,111 191,200 455,268 399,104 947,144 1323,151zm-78 -2799l400 0c353,0 500,481 500,717 0,233 -140,583 -560,583l-280 0c-420,0 -560,-350 -560,-583 0,-236 147,-717 500,-717zm-427 -1996c120,-34 236,-35 350,-11 94,18 185,53 277,96 92,-43 184,-78 278,-96 114,-23 229,-23 349,11 621,177 660,647 702,1158 14,172 28,348 68,515 24,98 71,193 118,286 117,235 232,465 74,782 -128,256 -287,302 -444,348 -64,19 -129,37 -185,80 69,32 132,52 203,73 69,21 136,42 204,67 126,46 283,104 386,203 111,108 196,243 254,389 62,153 93,318 93,475 0,225 -254,370 -605,461 -465,121 -1113,159 -1495,159 -382,0 -1030,-38 -1495,-159 -351,-91 -605,-236 -605,-461 0,-157 31,-322 93,-476 58,-145 143,-280 254,-388 103,-99 260,-157 386,-203 68,-24 135,-46 204,-67 70,-21 132,-40 200,-71 -43,-27 -99,-51 -159,-77 -166,-72 -353,-153 -465,-349 -189,-331 -47,-599 85,-849 42,-81 84,-160 107,-231 66,-197 92,-409 117,-608 60,-482 113,-903 651,-1057zm527 2196c-153,0 -200,31 -200,147 0,24 21,44 53,51 50,10 444,10 494,0 32,-7 53,-27 53,-51 0,-116 -47,-147 -200,-147l-200 0z"/>
</svg>