<?xml version="1.0" encoding="UTF-8"?>
<!DOCTYPE svg PUBLIC "-//W3C//DTD SVG 1.1//EN" "http://www.w3.org/Graphics/SVG/1.1/DTD/svg11.dtd">
<svg xmlns="http://www.w3.org/2000/svg" xml:space="preserve" width="580px" height="580px" shape-rendering="geometricPrecision" text-rendering="geometricPrecision" image-rendering="optimizeQuality" fill-rule="nonzero" clip-rule="nonzero" viewBox="0 0 5800 5800" xmlns:xlink="http://www.w3.org/1999/xlink">
	<title>dude3 icon</title>
	<desc>dude3 icon from the IconExperience.com I-Collection. Copyright by INCORS GmbH (www.incors.com).</desc>
		<path id="curve28"  d="M1900 500c68,-406 1917,-403 2000,0l112 547c500,100 488,53 488,253 0,200 -720,300 -1600,300 -838,0 -1600,-100 -1600,-300 0,-200 0,-100 500,-200l100 -600zm1190 1200l520 0c91,0 165,67 185,154 6,27 6,55 1,83l-54 300c-16,91 -91,163 -186,163l-358 0c-83,0 -150,-53 -177,-129l-98 -271 -47 0 -99 272c-32,86 -93,128 -177,128l-353 0c-95,0 -171,-71 -188,-162l-55 -300c-5,-29 -5,-58 1,-85 20,-87 97,-153 187,-153l516 0c70,0 132,39 166,100l52 0c34,-61 93,-100 164,-100zm-290 1100l200 0c153,0 200,31 200,147 0,24 -21,44 -53,51 -50,10 -444,10 -494,0 -32,-7 -53,-27 -53,-51 0,-116 47,-147 200,-147zm-900 900c-644,325 -1200,400 -1200,1219 0,155 171,258 425,327 463,207 1273,254 1775,254 502,0 1312,-47 1775,-254 254,-69 425,-172 425,-327 0,-828 -594,-911 -1201,-1217 -49,-28 -98,-57 -146,-87 -82,-51 -71,-170 -62,-258 4,-39 7,-78 9,-119 120,-149 174,-418 218,-635 11,-54 21,-104 32,-149 87,-56 139,-133 163,-222 30,-104 20,-221 -10,-334 24,-106 29,-202 21,-288 -29,5 -55,10 -77,14 -171,29 -346,46 -519,57 -209,14 -419,19 -628,19 -203,0 -407,-6 -610,-19 -174,-11 -349,-28 -521,-57 -24,-4 -52,-9 -84,-15 -12,95 -9,192 12,289 -29,112 -39,229 -10,334 25,89 76,166 164,222 10,45 21,96 32,150 45,219 100,488 218,635 2,32 5,67 8,101 10,115 21,228 -59,273 -14,8 -123,72 -150,87zm800 -1100l400 0c252,0 300,296 300,441 0,144 -100,459 -400,459l-200 0c-300,0 -400,-315 -400,-459 0,-145 48,-441 300,-441zm-402 2675c-16,-307 -94,-1012 -290,-1406l8 -4 366 481c59,78 191,70 241,-15l111 -190c93,41 202,45 299,13l149 184c54,79 178,84 236,8l366 -480 7 4c-195,394 -273,1098 -289,1405 -225,18 -438,25 -602,25 -164,0 -377,-7 -602,-25zm1315 -1513l-311 407 -99 -122 377 -307 -14 -18c13,14 29,27 47,40zm-1398 -22l355 284 -79 136 -303 -398c10,-7 19,-15 27,-22z"/>
</svg>