<?xml version="1.0" encoding="UTF-8"?>
<!DOCTYPE svg PUBLIC "-//W3C//DTD SVG 1.1//EN" "http://www.w3.org/Graphics/SVG/1.1/DTD/svg11.dtd">
<svg xmlns="http://www.w3.org/2000/svg" xml:space="preserve" width="580px" height="580px" shape-rendering="geometricPrecision" text-rendering="geometricPrecision" image-rendering="optimizeQuality" fill-rule="nonzero" clip-rule="nonzero" viewBox="0 0 5800 5800" xmlns:xlink="http://www.w3.org/1999/xlink">
	<title>dude2 icon</title>
	<desc>dude2 icon from the IconExperience.com I-Collection. Copyright by INCORS GmbH (www.incors.com).</desc>
		<path id="curve28"  d="M3726 3736c-186,206 -566,264 -826,264 -260,0 -640,-58 -826,-264 -119,80 -255,132 -388,183 -314,121 -479,210 -608,539 -52,132 -78,275 -78,411 0,115 192,206 456,276 444,118 1073,155 1444,155 371,0 1000,-37 1444,-155 264,-70 456,-161 456,-276 0,-136 -26,-279 -78,-411 -129,-329 -294,-418 -608,-539 -134,-51 -269,-103 -388,-183zm-339 -3392c327,76 526,281 666,580 36,78 66,159 89,239 18,-6 37,-10 55,-15 291,-70 592,-23 854,131 47,28 63,90 35,137 -14,23 -35,39 -60,46 -106,30 -192,78 -267,132 85,92 154,209 221,347 31,64 -13,139 -83,143 -294,21 -500,24 -657,-12 -22,125 -84,247 -191,320 -66,238 -189,609 -348,800 2,77 8,155 28,223 22,73 67,130 125,166 100,64 216,108 331,152 370,143 572,267 723,652 61,156 92,324 92,484 0,228 -254,376 -605,469 -464,123 -1113,162 -1495,162 -382,0 -1031,-39 -1495,-162 -351,-93 -605,-241 -605,-469 0,-159 31,-328 92,-484 151,-385 353,-509 723,-652 114,-43 232,-89 335,-154 63,-37 99,-97 120,-166 21,-67 28,-145 30,-220 -158,-190 -283,-565 -349,-801 -208,-141 -245,-459 -155,-678 -7,-47 -11,-95 -11,-143 0,-81 11,-163 32,-244 23,-137 62,-282 126,-418 141,-302 354,-480 677,-558 272,-67 694,-71 967,-7zm828 1401c100,-36 177,-103 259,-175 81,-71 167,-146 277,-209 -184,-59 -377,-60 -561,-5 27,118 33,239 14,358 4,10 8,21 11,31zm389 -24c-73,64 -143,126 -222,173 92,9 206,8 348,1 -39,-68 -80,-126 -126,-174zm-1262 -1183c-240,-56 -636,-52 -876,6 -262,64 -428,204 -543,449 -72,154 -108,323 -123,473 -5,46 33,78 75,87 218,49 620,74 1025,74 310,0 723,-6 1025,-74 42,-9 80,-41 75,-87 -14,-139 -56,-304 -128,-458 -113,-242 -264,-407 -530,-470z"/>
</svg>