<?xml version="1.0" encoding="UTF-8"?>
<!DOCTYPE svg PUBLIC "-//W3C//DTD SVG 1.1//EN" "http://www.w3.org/Graphics/SVG/1.1/DTD/svg11.dtd">
<svg xmlns="http://www.w3.org/2000/svg" xml:space="preserve" width="580px" height="580px" shape-rendering="geometricPrecision" text-rendering="geometricPrecision" image-rendering="optimizeQuality" fill-rule="nonzero" clip-rule="nonzero" viewBox="0 0 5800 5800" xmlns:xlink="http://www.w3.org/1999/xlink">
	<title>dude1 icon</title>
	<desc>dude1 icon from the IconExperience.com I-Collection. Copyright by INCORS GmbH (www.incors.com).</desc>
		<path id="curve28"  d="M2273 504c221,-63 425,-10 627,85 201,-95 407,-148 627,-85 621,177 660,647 702,1158 27,327 39,507 186,801 117,235 232,465 74,782 -128,256 -287,302 -444,348 -93,27 -340,148 -346,250 -19,293 -239,567 -494,886 -100,124 -204,255 -305,395 -101,-140 -205,-271 -305,-395 -267,-334 -495,-619 -495,-929 0,-83 -244,-168 -322,-202 -166,-72 -353,-153 -465,-349 -189,-331 -47,-599 85,-849 155,-296 183,-508 224,-839 60,-482 113,-903 651,-1057zm1656 3198c44,17 87,30 134,44 184,55 462,146 590,270 111,108 196,243 254,389 62,153 93,318 93,475 0,225 -254,370 -605,461 -465,121 -1113,159 -1495,159 -382,0 -1030,-38 -1495,-159 -351,-91 -605,-236 -605,-461 0,-157 31,-322 93,-476 58,-145 143,-280 254,-388 128,-124 406,-215 590,-270 54,-16 104,-31 156,-52 1,35 7,67 7,106 0,380 249,690 540,1054 122,153 253,316 376,500 39,61 129,61 168,0 123,-184 254,-347 376,-500 277,-346 515,-643 538,-999 2,-31 16,-107 31,-153zm-1034 -1902l10 0 110 274c30,76 103,126 185,126l400 0c95,0 177,-67 196,-161l60 -300c6,-30 5,-59 -2,-88 -22,-88 -103,-151 -194,-151l-580 0c-73,0 -136,37 -173,100l-7 0 -7 0c-37,-63 -100,-100 -173,-100l-580 0c-91,0 -172,63 -194,151 0,35 -11,45 -2,88l60 300c19,93 101,161 196,161l400 0c82,0 155,-50 185,-126l110 -274zm-195 700c-353,0 -500,481 -500,717 0,233 140,583 560,583l280 0c420,0 560,-350 560,-583 0,-236 -147,-717 -500,-717l-400 0zm100 200c-153,0 -200,31 -200,147 0,24 21,44 53,51 50,10 444,10 494,0 32,-7 53,-27 53,-51 0,-116 -47,-147 -200,-147l-200 0z"/>
</svg>