<?xml version="1.0" encoding="UTF-8"?>
<!DOCTYPE svg PUBLIC "-//W3C//DTD SVG 1.1//EN" "http://www.w3.org/Graphics/SVG/1.1/DTD/svg11.dtd">
<svg xmlns="http://www.w3.org/2000/svg" xml:space="preserve" width="580px" height="580px" shape-rendering="geometricPrecision" text-rendering="geometricPrecision" image-rendering="optimizeQuality" fill-rule="nonzero" clip-rule="nonzero" viewBox="0 0 5800 5800" xmlns:xlink="http://www.w3.org/1999/xlink">
	<title>dude6 icon</title>
	<desc>dude6 icon from the IconExperience.com I-Collection. Copyright by INCORS GmbH (www.incors.com).</desc>
		<path id="curve28" d="M2140 1500l580 0c34,0 65,8 94,23 29,15 53,38 72,65 2,4 5,8 7,12l14 0c3,-4 5,-8 8,-12 38,-56 97,-88 165,-88l580 0c92,0 168,61 193,148 8,32 9,61 3,91l-60 300c-19,94 -101,161 -196,161l-400 0c-82,0 -155,-50 -185,-126l-110 -274 -10 0 -110 274c-30,77 -102,126 -185,126l-400 0c-95,0 -177,-68 -196,-161l-60 -300c-6,-29 -3,-58 2,-87 7,-51 62,-111 109,-133 26,-13 55,-19 85,-19zm2160 -200l-200 0 0 1000 200 0c110,0 200,-90 200,-200l0 -600c0,-111 -89,-200 -200,-200zm-403 1976l93 372c87,50 174,82 258,113 144,54 279,104 406,229 111,111 196,248 254,395 61,156 92,324 92,484 0,228 -254,376 -605,469 -464,123 -1113,162 -1495,162 -382,0 -1031,-39 -1495,-162 -351,-93 -605,-241 -605,-469 0,-159 31,-328 92,-484 58,-147 143,-285 254,-395 127,-125 262,-175 406,-229 84,-31 171,-63 258,-113l93 -372c9,-36 36,-62 69,-72 -111,-142 -183,-327 -217,-504l45 0c55,0 107,-15 151,-41 30,161 104,354 220,471 19,19 29,45 29,70 1,0 -2,82 -2,89 208,91 455,136 702,136 248,0 495,-45 704,-136 -2,-29 -3,-58 -4,-87 0,-28 11,-54 29,-72 117,-118 190,-308 221,-470 44,25 95,40 150,40l45 0c-33,178 -105,362 -217,504 23,7 44,23 58,45 5,8 8,18 11,27zm-1986 544c-101,59 -197,94 -289,129 -124,46 -240,89 -335,183 -91,89 -161,203 -209,326 -52,132 -78,275 -78,411 0,115 192,206 456,276 444,118 1073,155 1444,155 371,0 1000,-37 1444,-155 264,-70 456,-161 456,-276 0,-136 -26,-279 -78,-411 -48,-123 -118,-236 -209,-326 -95,-94 -211,-137 -335,-183 -92,-35 -188,-70 -289,-129 -263,137 -627,205 -989,205 -362,0 -726,-68 -989,-205zm-204 -2720c31,-214 162,-405 357,-547 215,-156 511,-253 836,-253 325,0 621,97 836,253 195,142 326,333 357,547l207 0c220,0 400,180 400,400l0 600c0,220 -180,400 -400,400l-300 0c-55,0 -100,-45 -100,-100l0 -1200c0,-187 -107,-359 -281,-485 -183,-133 -437,-215 -719,-215 -282,0 -536,82 -719,215 -174,126 -281,298 -281,485l0 1200c0,55 -45,100 -100,100l-300 0c-220,0 -400,-180 -400,-400l0 -600c0,-220 180,-400 400,-400l207 0zm-7 200l-200 0c-111,0 -200,89 -200,200l0 600c0,110 90,200 200,200l200 0 0 -1000zm1200 2325c-294,0 -588,-59 -834,-177l-51 202c233,117 558,175 885,175 327,0 652,-58 885,-175l-51 -202c-246,118 -540,177 -834,177z"/>
</svg>