<?xml version="1.0" encoding="UTF-8"?>
<!DOCTYPE svg PUBLIC "-//W3C//DTD SVG 1.1//EN" "http://www.w3.org/Graphics/SVG/1.1/DTD/svg11.dtd">
<svg xmlns="http://www.w3.org/2000/svg" xml:space="preserve" width="580px" height="580px" shape-rendering="geometricPrecision" text-rendering="geometricPrecision" image-rendering="optimizeQuality" fill-rule="nonzero" clip-rule="nonzero" viewBox="0 0 5800 5800" xmlns:xlink="http://www.w3.org/1999/xlink">
	<title>dude5 icon</title>
	<desc>dude5 icon from the IconExperience.com I-Collection. Copyright by INCORS GmbH (www.incors.com).</desc>
		<path id="curve28" d="M1862 1154c230,64 632,96 1038,96 401,0 800,-31 1031,-94 -17,-50 -36,-100 -59,-148 -59,-126 -137,-242 -237,-329 -81,-69 -177,-113 -293,-141 -123,-28 -269,-38 -442,-38 -162,0 -308,14 -434,44 -120,30 -223,75 -304,139 -106,83 -184,192 -239,310 -24,52 -45,106 -61,161zm2336 26l100 500c9,44 -13,88 -50,108 -6,3 -11,6 -17,9 25,99 26,206 4,303 -27,119 -89,226 -185,291 -11,48 -22,108 -34,172 -43,231 -97,520 -215,673 2,77 8,156 28,224 20,66 54,123 121,164 102,65 202,102 298,137 144,54 279,104 406,229 111,111 196,248 254,395 61,156 92,324 92,484 0,228 -254,376 -605,469 -464,123 -1113,162 -1495,162 -382,0 -1031,-39 -1495,-162 -351,-93 -605,-241 -605,-469 0,-159 31,-328 92,-484 58,-147 143,-285 254,-395 127,-125 262,-175 406,-229 96,-35 196,-72 296,-136 65,-38 101,-98 122,-167 21,-68 28,-146 30,-222 -116,-151 -171,-439 -215,-671 -12,-65 -24,-125 -35,-174 -96,-65 -157,-172 -185,-291 -22,-97 -21,-204 4,-303 -9,-4 -17,-9 -24,-14 -35,-23 -51,-64 -43,-103l100 -500c7,-36 33,-64 66,-75 20,-66 45,-132 75,-196 67,-145 163,-279 295,-383 104,-82 233,-139 382,-175 143,-35 305,-51 480,-51 187,0 347,11 487,44 147,34 271,92 378,185 123,105 218,245 288,395 27,59 51,119 71,179 38,10 65,39 74,77zm-2265 1121c16,61 32,140 48,228 43,224 97,507 190,601 19,19 29,45 29,70 0,102 -7,213 -39,317 -9,29 -20,58 -33,85 22,21 50,41 83,60 164,92 425,138 689,138 264,0 525,-46 689,-138 32,-18 60,-38 82,-59 -13,-28 -24,-57 -33,-87 -30,-101 -35,-210 -38,-314 0,-28 11,-54 29,-72 96,-97 149,-380 191,-603 16,-87 31,-166 47,-226 7,-29 27,-52 53,-64 61,-32 102,-101 120,-181 15,-63 15,-132 1,-196 -267,60 -706,90 -1141,90 -435,0 -873,-30 -1141,-90 -14,64 -13,133 1,196 18,81 59,150 122,181 26,14 44,37 51,64zm-311 1648c-124,46 -240,89 -335,183 -91,89 -161,203 -209,326 -52,132 -78,275 -78,411 0,115 192,206 456,276 444,118 1073,155 1444,155 371,0 1000,-37 1444,-155 264,-70 456,-161 456,-276 0,-136 -26,-279 -78,-411 -48,-123 -118,-236 -209,-326 -95,-94 -211,-137 -335,-183 -126,-47 -276,-105 -382,-189 -32,28 -69,53 -110,76 -194,109 -491,164 -786,164 -273,0 -681,-51 -896,-241 -104,84 -257,143 -382,190zm1278 -2499c-434,0 -871,-38 -1125,-115l-62 309c196,71 689,106 1187,106 498,0 991,-35 1187,-106l-62 -309c-254,77 -691,115 -1125,115z"/>
</svg>