<?xml version="1.0" encoding="UTF-8"?>
<!DOCTYPE svg PUBLIC "-//W3C//DTD SVG 1.1//EN" "http://www.w3.org/Graphics/SVG/1.1/DTD/svg11.dtd">
<svg xmlns="http://www.w3.org/2000/svg" xml:space="preserve" width="580px" height="580px" shape-rendering="geometricPrecision" text-rendering="geometricPrecision" image-rendering="optimizeQuality" fill-rule="nonzero" clip-rule="nonzero" viewBox="0 0 5800 5800" xmlns:xlink="http://www.w3.org/1999/xlink">
	<title>dude3 icon</title>
	<desc>dude3 icon from the IconExperience.com I-Collection. Copyright by INCORS GmbH (www.incors.com).</desc>
		<path id="curve28"  d="M2700 2600l400 0c252,0 300,296 300,441 0,144 -100,459 -400,459l-200 0c-300,0 -400,-315 -400,-459 0,-145 48,-441 300,-441zm-510 -900l520 0c71,0 130,39 164,100l52 0c34,-61 93,-100 164,-100l520 0c91,0 165,67 185,154 6,27 6,55 1,83l-54 300c-16,91 -91,163 -186,163l-358 0c-83,0 -150,-53 -177,-129l-98 -271 -46 0 -98 271c-27,76 -94,129 -177,129l-358 0c-95,0 -170,-72 -186,-163l-54 -300c-5,-28 -5,-56 1,-83 20,-87 94,-154 185,-154zm1560 1913c51,32 100,61 149,88 645,324 1201,399 1201,1218 0,155 -171,258 -425,327 -83,37 -177,69 -280,95 -465,121 -1113,159 -1495,159 -382,0 -1030,-38 -1495,-159 -103,-26 -197,-58 -280,-95 -253,-69 -425,-172 -425,-327 0,-819 556,-894 1200,-1219 2,3 133,-77 150,-87 80,-45 69,-158 59,-273 -3,-34 -6,-69 -8,-101 -118,-147 -173,-416 -218,-635 -11,-54 -22,-105 -32,-150 -88,-56 -139,-133 -164,-222 -29,-105 -19,-222 10,-334 -28,-131 -24,-262 5,-388 -247,-50 -402,-120 -402,-210 0,-200 0,-100 500,-200l100 -600c68,-406 1917,-403 2000,0l112 547c500,100 488,53 488,253 0,91 -148,161 -392,210 26,112 28,239 -5,388 30,113 40,230 10,334 -24,89 -76,166 -163,222 -11,45 -21,95 -32,149 -44,217 -98,486 -218,635 -2,41 -5,80 -9,119 -11,107 -21,209 59,256zm153 -1737c31,-127 28,-236 1,-332 -275,37 -624,56 -1004,56 -367,0 -720,-19 -1001,-58 -26,110 -29,223 -2,334 5,19 3,39 -3,56 -24,87 -35,175 -15,246 44,154 125,25 199,386 43,210 97,471 192,565 20,19 30,45 30,71 0,42 4,83 7,122 8,82 15,164 3,238l447 358c54,38 66,57 143,57 68,0 90,-16 139,-54l449 -365c-10,-68 -3,-142 4,-217 5,-47 9,-94 8,-137 0,-28 11,-54 30,-73 98,-97 151,-358 193,-565 15,-79 30,-150 44,-202 8,-30 29,-53 56,-65 54,-28 85,-70 98,-119 20,-72 9,-162 -17,-250 -5,-18 -5,-35 -1,-52zm-1103 924c-153,0 -200,31 -200,147 0,24 21,44 53,51 50,10 444,10 494,0 32,-7 53,-27 53,-51 0,-116 -47,-147 -200,-147l-200 0zm377 1530l-111 -189c-51,23 -109,34 -166,34 -57,0 -115,-11 -166,-34l-111 190c-13,22 -32,39 -53,50 -39,21 -87,25 -128,10 -23,-9 -44,-24 -60,-45l-366 -481 -8 4c196,394 274,1099 290,1406 225,18 438,25 602,25 164,0 377,-7 602,-25 16,-307 94,-1011 289,-1405l-7 -4 -366 480c-16,21 -37,36 -60,45 -41,15 -89,11 -128,-10 -21,-11 -39,-28 -53,-51zm436 -568c-12,-8 -22,-16 -32,-25l-352 286 80 137 304 -398zm-1398 -22c-8,7 -17,15 -27,22l303 398 79 -136 -355 -284z"/>
</svg>