<?xml version="1.0" encoding="UTF-8"?>
<!DOCTYPE svg PUBLIC "-//W3C//DTD SVG 1.1//EN" "http://www.w3.org/Graphics/SVG/1.1/DTD/svg11.dtd">
<svg xmlns="http://www.w3.org/2000/svg" xml:space="preserve" width="580px" height="580px" shape-rendering="geometricPrecision" text-rendering="geometricPrecision" image-rendering="optimizeQuality" fill-rule="nonzero" clip-rule="nonzero" viewBox="0 0 5800 5800" xmlns:xlink="http://www.w3.org/1999/xlink">
	<title>dug_well icon</title>
	<desc>dug_well icon from the IconExperience.com I-Collection. Copyright by INCORS GmbH (www.incors.com).</desc>
	<path id="curve0" d="M3300 600c0,-55 45,-100 100,-100 55,0 100,45 100,100l0 800c0,55 -45,100 -100,100 -55,0 -100,-45 -100,-100l0 -800zm1200 500l0 -200 -800 0 0 -200 800 0 0 -200c200,0 400,0 600,0 0,1434 0,2866 0,4300 0,238 -245,415 -645,529 -392,112 -944,171 -1555,171 -611,0 -1163,-59 -1555,-171 -400,-114 -645,-291 -645,-529 1,0 0,-3942 0,-4300 200,0 400,0 600,0l0 200 1200 0 0 200 -1200 0 0 200 1200 0 0 200 -1200 0 0 1600 -200 0c0,-733 0,-1466 0,-2200l-200 0 0 2300c0,134 190,249 499,337 374,107 908,163 1501,163 593,0 1127,-56 1501,-163 309,-88 499,-203 499,-337l0 -2300 -200 0c0,734 0,1466 0,2200l-200 0 0 -1600 -800 0 0 -200 800 0zm-1600 1600c349,0 665,20 890,57 254,43 410,123 410,243 0,120 -156,200 -410,243 -225,37 -541,57 -890,57 -309,0 -581,-6 -890,-57 -254,-43 -410,-123 -410,-243 0,-120 156,-200 410,-243 182,-30 422,-49 690,-55l0 -2102c0,-55 45,-100 100,-100 55,0 100,45 100,100l0 2100zm1500 -37c-331,-95 -788,-150 -1300,-161l0 -200c503,11 957,63 1300,154l0 207zm-1900 -154c-431,20 -812,72 -1100,154l0 -207c297,-78 677,-128 1100,-147l0 200zm-1600 822l0 1469c0,134 190,249 499,337 374,107 908,163 1501,163 593,0 1127,-56 1501,-163 309,-88 499,-203 499,-337l0 -1468c-110,79 -261,145 -445,197 -392,112 -944,171 -1555,171 -611,0 -1163,-59 -1555,-171 -184,-52 -336,-118 -445,-198zm2100 -2731c0,-55 45,-100 100,-100 55,0 100,45 100,100l0 800c0,55 -45,100 -100,100 -55,0 -100,-45 -100,-100l0 -800z"/>
</svg>