<?xml version="1.0" encoding="UTF-8"?>
<!DOCTYPE svg PUBLIC "-//W3C//DTD SVG 1.1//EN" "http://www.w3.org/Graphics/SVG/1.1/DTD/svg11.dtd">
<svg xmlns="http://www.w3.org/2000/svg" xml:space="preserve" width="580px" height="580px" shape-rendering="geometricPrecision" text-rendering="geometricPrecision" image-rendering="optimizeQuality" fill-rule="nonzero" clip-rule="nonzero" viewBox="0 0 5800 5800" xmlns:xlink="http://www.w3.org/1999/xlink">
	<title>dug_well icon</title>
	<desc>dug_well icon from the IconExperience.com I-Collection. Copyright by INCORS GmbH (www.incors.com).</desc>
	<path id="curve0"  d="M3300 600c0,-55 45,-100 100,-100 55,0 100,45 100,100l0 800c0,55 -45,100 -100,100 -55,0 -100,-45 -100,-100l0 -800zm-600 0c0,-55 45,-100 100,-100 55,0 100,45 100,100l0 2500c-68,0 -135,-1 -200,-2l0 -2498zm300 2101c309,3 586,22 790,56 254,43 410,123 410,243 0,120 -156,200 -410,243 -225,37 -541,57 -890,57 -349,0 -665,-20 -890,-57 -254,-43 -410,-123 -410,-243 0,-120 156,-200 410,-243 159,-26 362,-44 590,-52l0 -400c-463,15 -880,66 -1200,151l0 444 -100 0c0,-533 0,-1067 0,-1600l1200 0 0 -600 -1200 0 0 -200c-200,0 -400,0 -600,0 0,851 0,1701 0,2552 9,148 217,273 554,369 410,117 995,179 1646,179 651,0 1236,-62 1646,-179 338,-96 547,-222 554,-371 0,-850 0,-1700 0,-2550 -200,0 -400,0 -600,0l0 200 -800 0 0 600 800 0c0,534 0,1067 0,1600l-100 0 0 -444c-365,-97 -857,-150 -1400,-155l0 400zm2100 687c0,470 0,941 0,1412 0,238 -245,415 -645,529 -392,112 -944,171 -1555,171 -611,0 -1163,-59 -1555,-171 -400,-114 -645,-291 -645,-529 0,0 0,-632 0,-1412 120,90 290,166 499,225 429,123 1033,187 1701,187 668,0 1272,-64 1701,-187 209,-59 379,-135 499,-225zm-2100 -2788c0,-55 45,-100 100,-100 55,0 100,45 100,100l0 800c0,55 -45,100 -100,100 -55,0 -100,-45 -100,-100l0 -800z"/>
</svg>