<?xml version="1.0" encoding="UTF-8"?>
<!DOCTYPE svg PUBLIC "-//W3C//DTD SVG 1.1//EN" "http://www.w3.org/Graphics/SVG/1.1/DTD/svg11.dtd">
<svg xmlns="http://www.w3.org/2000/svg" xml:space="preserve" width="580px" height="580px" shape-rendering="geometricPrecision" text-rendering="geometricPrecision" image-rendering="optimizeQuality" fill-rule="nonzero" clip-rule="nonzero" viewBox="0 0 5800 5800" xmlns:xlink="http://www.w3.org/1999/xlink">
	<title>dumbbell icon</title>
	<desc>dumbbell icon from the IconExperience.com I-Collection. Copyright by INCORS GmbH (www.incors.com).</desc>
		<path id="curve28"  d="M3600 2500c0,267 0,533 0,800l-1400 0c0,-267 0,-533 0,-800l1400 0zm2100 0c0,267 0,533 0,800 -100,0 -200,0 -300,0 0,-267 0,-533 0,-800 100,0 200,0 300,0zm-800 -400l400 0 0 1600 -400 0 0 399 -409 1 11 400 -802 0 0 -3200 600 0 0 1200 200 0 0 -800 200 0 0 1000 200 0 0 -600zm-3800 -400l200 0 0 800 200 0 0 -1200 600 0 0 3200c-267,0 -535,0 -802,0l11 -400 -409 -1 0 -399 -400 0 0 -1600 400 0 0 600 200 0 0 -1000zm-700 800c0,267 0,533 0,800 -100,0 -200,0 -300,0 0,-267 0,-533 0,-800 100,0 200,0 300,0z"/>
</svg>