<?xml version="1.0" encoding="UTF-8"?>
<!DOCTYPE svg PUBLIC "-//W3C//DTD SVG 1.1//EN" "http://www.w3.org/Graphics/SVG/1.1/DTD/svg11.dtd">
<svg xmlns="http://www.w3.org/2000/svg" xml:space="preserve" width="580px" height="580px" shape-rendering="geometricPrecision" text-rendering="geometricPrecision" image-rendering="optimizeQuality" fill-rule="nonzero" clip-rule="nonzero" viewBox="0 0 5800 5800" xmlns:xlink="http://www.w3.org/1999/xlink">
	<title>dumbbell icon</title>
	<desc>dumbbell icon from the IconExperience.com I-Collection. Copyright by INCORS GmbH (www.incors.com).</desc>
		<path id="curve28" d="M4900 2300l0 400 -200 0c0,-267 0,-533 0,-800l-200 0 0 600 -200 0c0,-333 0,-667 0,-1000l-400 0c0,933 0,1867 0,2800l398 0 -11 -398 413 -1 0 -401 400 0 0 -1200 -200 0zm-2800 200l1600 0 0 -1200 800 0 0 400 400 0 0 400 400 0 0 400 400 0 0 800 -400 0 0 400 -400 0 0 399 -409 1 11 400c-267,0 -535,0 -802,0l0 -1200 -1600 0 0 1200 -802 0 11 -400 -409 -1 0 -399 -400 0 0 -400 -400 0 0 -800 400 0 0 -400 400 0 0 -400 400 0 0 -400 800 0 0 1200zm1600 200l-1600 0 0 400 1600 0 0 -400zm-2800 -400l-200 0c0,400 0,800 0,1200l400 0 0 401 413 1 -11 398 398 0c0,-933 0,-1867 0,-2800l-400 0c0,333 0,667 0,1000l-200 0 0 -600 -200 0c0,267 0,533 0,800l-200 0 0 -400zm-400 400l-200 0 0 400 200 0 0 -400zm5000 0l-200 0 0 400 200 0 0 -400z"/>
</svg>