<?xml version="1.0" encoding="UTF-8"?>
<!DOCTYPE svg PUBLIC "-//W3C//DTD SVG 1.1//EN" "http://www.w3.org/Graphics/SVG/1.1/DTD/svg11.dtd">
<svg xmlns="http://www.w3.org/2000/svg" xml:space="preserve" width="580px" height="580px" shape-rendering="geometricPrecision" text-rendering="geometricPrecision" image-rendering="optimizeQuality" fill-rule="nonzero" clip-rule="nonzero" viewBox="0 0 5800 5800" xmlns:xlink="http://www.w3.org/1999/xlink">
	<title>dump_truck icon</title>
	<desc>dump_truck icon from the IconExperience.com I-Collection. Copyright by INCORS GmbH (www.incors.com).</desc>
		<path id="curve28" d="M3000 4200l700 0 0 -1500c0,-55 45,-100 100,-100l900 0c33,0 63,16 81,42l698 897c14,18 21,40 21,61l0 800 -200 0 0 -766 -649 -834 -751 0 0 1500c0,55 -45,100 -100,100l-800 0 0 -200zm-333 -2000c69,0 124,-18 180,-60l187 -140c88,-66 188,-100 299,-100l667 0c55,0 100,45 100,100l0 300c0,55 -45,100 -100,100l-200 0c-165,0 -300,135 -300,300l0 1000c0,55 -45,100 -100,100l-2515 0c-78,0 -144,40 -179,110l-17 35c-17,34 -53,55 -89,55l-300 0c-55,0 -100,-45 -100,-100 0,-17 4,-33 12,-47l697 -1593c16,-37 53,-60 91,-60l1667 0zm0 200l-1602 0 -612 1400 86 0c34,-59 81,-107 136,-141 62,-38 134,-59 210,-59l2415 0 0 -900c0,-276 224,-500 500,-500l100 0 0 -100 -567 0c-69,0 -124,18 -180,60l-187 140c-88,66 -188,100 -299,100zm1883 1600c304,0 550,246 550,550 0,304 -246,550 -550,550 -304,0 -550,-246 -550,-550 0,-304 246,-550 550,-550zm0 200c-193,0 -350,157 -350,350 0,193 157,350 350,350 193,0 350,-157 350,-350 0,-193 -157,-350 -350,-350zm-2200 -200c304,0 550,246 550,550 0,304 -246,550 -550,550 -304,0 -550,-246 -550,-550 0,-304 246,-550 550,-550zm0 200c-193,0 -350,157 -350,350 0,193 157,350 350,350 193,0 350,-157 350,-350 0,-193 -157,-350 -350,-350zm-1200 -200c304,0 550,246 550,550 0,304 -246,550 -550,550 -304,0 -550,-246 -550,-550 0,-304 246,-550 550,-550zm0 200c-193,0 -350,157 -350,350 0,193 157,350 350,350 193,0 350,-157 350,-350 0,-193 -157,-350 -350,-350z"/>
</svg>