<?xml version="1.0" encoding="UTF-8"?>
<!DOCTYPE svg PUBLIC "-//W3C//DTD SVG 1.1//EN" "http://www.w3.org/Graphics/SVG/1.1/DTD/svg11.dtd">
<svg xmlns="http://www.w3.org/2000/svg" xml:space="preserve" width="580px" height="580px" shape-rendering="geometricPrecision" text-rendering="geometricPrecision" image-rendering="optimizeQuality" fill-rule="nonzero" clip-rule="nonzero" viewBox="0 0 5800 5800" xmlns:xlink="http://www.w3.org/1999/xlink">
	<title>dynamite icon</title>
	<desc>dynamite icon from the IconExperience.com I-Collection. Copyright by INCORS GmbH (www.incors.com).</desc>
		<path id="curve28" d="M2064 3900l2836 0c99,0 194,-81 266,-212 83,-149 134,-356 134,-588 0,-232 -51,-439 -134,-588 -72,-131 -167,-212 -266,-212l-2836 0c28,35 53,73 77,115 98,177 159,420 159,685 0,265 -61,508 -159,685 -24,42 -49,80 -77,115zm-1600 -2597c179,45 334,172 446,332 119,169 190,377 190,565 0,137 -55,261 -144,351 -67,67 -152,116 -249,137 13,74 43,152 102,211 60,59 152,101 291,101l411 0c7,-32 17,-61 29,-86 35,-70 91,-114 160,-114 68,0 125,44 160,114 25,50 40,116 40,186 0,70 -15,136 -40,186 -35,70 -92,114 -160,114 -69,0 -125,-44 -160,-114 -12,-25 -22,-54 -29,-86l-411 0c-199,0 -338,-66 -432,-160 -101,-100 -147,-232 -162,-349 -102,-20 -192,-69 -262,-140 -89,-90 -144,-214 -144,-351 0,-219 80,-332 155,-439 63,-88 121,-171 87,-341l-31 -155 153 38zm283 446c-54,-78 -120,-145 -194,-192 -8,140 -70,228 -135,319 -57,82 -118,168 -118,324 0,82 33,157 86,211 53,54 126,87 206,89l3 0 0 0 5 0 5 0 0 0 3 0c80,-2 153,-35 206,-89 53,-54 86,-129 86,-211 0,-149 -58,-315 -153,-451zm953 351l3200 0c177,0 332,120 441,315 98,177 159,420 159,685 0,265 -61,508 -159,685 -109,195 -264,315 -441,315l-3200 0c-177,0 -332,-120 -441,-315 -59,-108 -105,-239 -132,-385l203 0c23,110 59,207 104,288 72,131 167,212 266,212 99,0 194,-81 266,-212 83,-149 134,-356 134,-588 0,-232 -51,-439 -134,-588 -72,-131 -167,-212 -266,-212 -99,0 -194,81 -266,212 -45,80 -81,178 -104,288l-203 0c27,-146 73,-277 132,-385 109,-195 264,-315 441,-315z"/>
</svg>