<?xml version="1.0" encoding="UTF-8"?>
<!DOCTYPE svg PUBLIC "-//W3C//DTD SVG 1.1//EN" "http://www.w3.org/Graphics/SVG/1.1/DTD/svg11.dtd">
<svg xmlns="http://www.w3.org/2000/svg" xml:space="preserve" width="580px" height="580px" shape-rendering="geometricPrecision" text-rendering="geometricPrecision" image-rendering="optimizeQuality" fill-rule="nonzero" clip-rule="nonzero" viewBox="0 0 5800 5800" xmlns:xlink="http://www.w3.org/1999/xlink">
	<title>dynamite icon</title>
	<desc>dynamite icon from the IconExperience.com I-Collection. Copyright by INCORS GmbH (www.incors.com).</desc>
		<path id="curve28"  d="M900 2200c0,-149 -58,-315 -153,-451 -54,-78 -120,-145 -194,-192 -8,140 -70,228 -135,319 -57,82 -118,168 -118,324 0,199 150,298 300,297 150,-1 300,-101 300,-297zm-193 488c37,213 181,312 393,312l411 0c20,-94 80,-200 189,-200 146,0 200,180 200,300 0,120 -54,300 -200,300 -109,0 -169,-106 -189,-200l-411 0c-324,0 -553,-185 -594,-509 -235,-45 -406,-251 -406,-491 0,-219 80,-332 155,-439 63,-88 121,-171 87,-341l-31 -155 153 38c179,45 334,172 446,332 119,169 190,377 190,565 0,235 -164,438 -393,488zm993 -588l3200 0c444,0 600,650 600,1000 0,350 -156,1000 -600,1000l-3200 0c-342,0 -520,-413 -573,-700l203 0c37,173 159,500 370,500 301,0 400,-581 400,-800 0,-219 -99,-800 -400,-800 -211,0 -333,327 -370,500l-203 0c53,-287 231,-700 573,-700z"/>
</svg>