<?xml version="1.0" encoding="UTF-8"?>
<!DOCTYPE svg PUBLIC "-//W3C//DTD SVG 1.1//EN" "http://www.w3.org/Graphics/SVG/1.1/DTD/svg11.dtd">
<svg xmlns="http://www.w3.org/2000/svg" xml:space="preserve" width="580px" height="580px" shape-rendering="geometricPrecision" text-rendering="geometricPrecision" image-rendering="optimizeQuality" fill-rule="nonzero" clip-rule="nonzero" viewBox="0 0 5800 5800" xmlns:xlink="http://www.w3.org/1999/xlink">
	<title>ear icon</title>
	<desc>ear icon from the IconExperience.com I-Collection. Copyright by INCORS GmbH (www.incors.com).</desc>
		<path id="curve28"  d="M1700 4700c0,331 269,600 600,600 331,0 600,-269 600,-600 0,-485 359,-745 764,-1039 482,-348 1036,-750 1036,-1661 0,-828 -672,-1500 -1500,-1500 -828,0 -1500,672 -1500,1500l-200 0c0,-939 761,-1700 1700,-1700 939,0 1700,761 1700,1700 0,1013 -599,1447 -1118,1823 -362,262 -682,494 -682,877 0,442 -358,800 -800,800 -442,0 -800,-358 -800,-800l200 0zm2200 -2600c0,-400 -300,-700 -700,-700 -400,0 -700,300 -700,700l0 107c344,49 600,345 600,693 0,387 -313,700 -700,700l0 -200c276,0 500,-224 500,-500 0,-276 -224,-500 -500,-500l-100 0 0 -300c0,-511 389,-900 900,-900 511,0 900,389 900,900l-200 0z"/>
</svg>