<?xml version="1.0" encoding="UTF-8"?>
<!DOCTYPE svg PUBLIC "-//W3C//DTD SVG 1.1//EN" "http://www.w3.org/Graphics/SVG/1.1/DTD/svg11.dtd">
<svg xmlns="http://www.w3.org/2000/svg" xml:space="preserve" width="580px" height="580px" shape-rendering="geometricPrecision" text-rendering="geometricPrecision" image-rendering="optimizeQuality" fill-rule="nonzero" clip-rule="nonzero" viewBox="0 0 5800 5800" xmlns:xlink="http://www.w3.org/1999/xlink">
	<title>ear icon</title>
	<desc>ear icon from the IconExperience.com I-Collection. Copyright by INCORS GmbH (www.incors.com).</desc>
		<path id="curve28"  d="M2900 300c1436,0 2600,1164 2600,2600 0,1436 -1164,2600 -2600,2600 -1436,0 -2600,-1164 -2600,-2600 0,-1436 1164,-2600 2600,-2600zm-1000 4200l-200 0c0,393 307,700 700,700 393,0 700,-307 700,-700 0,-328 281,-526 600,-749 465,-326 1000,-701 1000,-1595 0,-834 -679,-1456 -1500,-1456 -828,0 -1500,672 -1500,1500l200 0c0,-718 582,-1300 1300,-1300 712,0 1300,532 1300,1256 0,791 -489,1134 -914,1432 -364,255 -686,481 -686,912 0,283 -217,500 -500,500 -283,0 -500,-217 -500,-500zm1900 -2200l200 0c0,-454 -346,-800 -800,-800 -454,0 -800,346 -800,800l0 300 100 0c235,0 400,165 400,400 0,235 -165,400 -400,400l0 200c345,0 600,-255 600,-600 0,-303 -199,-547 -500,-593l0 -107c0,-343 257,-600 600,-600 344,0 600,257 600,600z"/>
</svg>