<?xml version="1.0" encoding="UTF-8"?>
<!DOCTYPE svg PUBLIC "-//W3C//DTD SVG 1.1//EN" "http://www.w3.org/Graphics/SVG/1.1/DTD/svg11.dtd">
<svg xmlns="http://www.w3.org/2000/svg" xml:space="preserve" width="580px" height="580px" shape-rendering="geometricPrecision" text-rendering="geometricPrecision" image-rendering="optimizeQuality" fill-rule="nonzero" clip-rule="nonzero" viewBox="0 0 5800 5800" xmlns:xlink="http://www.w3.org/1999/xlink">
	<title>earth icon</title>
	<desc>earth icon from the IconExperience.com I-Collection. Copyright by INCORS GmbH (www.incors.com).</desc>
		<path id="curve28"  d="M5500 2900c0,1436 -1164,2600 -2600,2600 -1436,0 -2600,-1164 -2600,-2600 0,-1436 1164,-2600 2600,-2600 1427,0 2600,1157 2600,2600zm-2483 -899c49,-87 87,-137 121,-165 -19,-6 -37,-14 -54,-22 -19,-9 -35,-23 -49,-39 -28,-36 -44,-88 -46,-144 -1,-53 9,-111 34,-162 18,-38 44,-72 77,-98l0 0c86,-69 158,-68 232,-67 35,0 71,0 105,-9 13,-4 27,-18 44,-35 20,-19 44,-42 78,-65 8,-5 -1,-24 -10,-46 -21,-46 -44,-98 -13,-160l0 0c34,-68 111,-94 179,-116 23,-7 44,-14 59,-21 14,-7 32,-22 51,-37 40,-32 82,-66 128,-73 -11,-5 -21,-10 -32,-15 -227,-107 -473,-179 -733,-210l0 4c2,22 -4,43 -18,63 5,4 -43,40 -48,43 -9,5 -22,20 -37,38 -42,49 -100,116 -230,164 -68,25 -129,30 -191,36 -61,5 -122,10 -182,36 -62,27 -122,69 -174,106 -59,41 -110,77 -158,88 -60,14 -90,-10 -101,-57 -11,-47 13,-118 36,-187 17,-49 35,-93 36,-98 -21,-15 -103,-6 -190,11 -83,16 -165,41 -206,62 24,17 63,34 86,44 23,10 52,23 52,53 5,50 -28,67 -72,90 -35,17 -84,42 -96,105 -3,11 12,51 29,94 34,91 72,193 14,256 -106,113 -159,65 -213,15 -15,-15 -31,-29 -49,-19 -16,8 -23,49 -29,84 -9,58 -17,108 -74,115 -105,15 -187,85 -269,156l0 0c-24,21 -48,42 -75,63 -8,6 -24,42 -42,84 -33,74 -72,163 -134,207 -33,23 -64,44 -93,64 -76,52 -144,97 -151,111 -33,68 -32,146 -14,220 31,127 105,235 132,259 34,30 59,2 83,2 41,-14 84,-28 139,-11 103,31 165,93 221,149 30,29 57,57 85,72 240,127 255,193 268,249 4,17 7,33 47,57 46,27 131,61 214,94 125,51 248,100 273,148 54,103 16,171 -27,249 -18,32 -37,67 -47,105 -8,28 -3,70 0,111 9,93 18,184 -72,222 -65,27 -114,58 -145,98 -29,37 -42,84 -37,145 7,77 -15,124 -36,172 -29,62 -57,124 28,302 348,197 751,309 1179,309 1326,0 2400,-1074 2400,-2400 0,-142 -12,-280 -35,-414 -9,-10 -8,-19 -11,-18 -4,1 -5,29 -14,64 -11,44 -24,93 -48,132 -33,55 -87,75 -124,90 -9,3 -7,-6 -11,0 -23,30 -6,67 13,106 37,77 76,161 -13,275 -246,316 -238,390 -228,473 6,54 13,110 -20,211 -4,10 -63,117 -123,221 -54,96 -109,192 -121,208 -75,114 -191,251 -297,336 -43,35 -86,61 -125,75 -48,17 -93,17 -130,-9 -11,-7 -20,-15 -29,-26 -12,-16 -49,-121 -86,-237 -48,-149 -97,-321 -95,-336 8,-60 24,-98 39,-136 17,-39 33,-77 34,-145 1,-42 -31,-108 -61,-169 -25,-51 -49,-100 -57,-141 -22,-121 -22,-121 -26,-125 -14,-10 -79,-103 -79,-103 -3,-5 -10,-19 -17,-31 -27,-49 -39,-71 -112,-46 -25,8 -51,18 -77,28 -111,43 -239,93 -328,57 -99,-40 -197,-110 -274,-197 -73,-83 -128,-181 -148,-282 -4,-19 8,-128 17,-218 3,-32 11,-78 11,-109 3,-42 13,-82 28,-120 18,-43 41,-83 66,-119 38,-53 95,-102 141,-141 29,-25 53,-45 57,-53zm-2517 899c0,592 215,1134 570,1553 -6,-12 -12,-23 -16,-34 -26,-64 -36,-150 -46,-233 -10,-87 -20,-171 -43,-197 -72,-82 -147,-177 -204,-272 -47,-79 -83,-159 -94,-231 -12,-70 -21,-136 -25,-199 -5,-65 -6,-127 0,-187 2,-13 -38,-82 -90,-162 -27,-42 -52,-110 -52,-38zm2928 -1109c24,-5 50,-13 80,-23 36,-13 94,-21 150,-24 66,-3 133,0 158,9 111,38 144,112 175,183 23,53 45,103 117,115 7,1 47,0 88,-1 48,-1 97,-2 113,1 30,5 57,12 81,18 60,15 103,26 163,-4l0 -1c3,-1 7,-4 10,-6l0 0c11,-11 20,-28 23,-46 4,-17 3,-34 -3,-47 -2,-3 -4,-6 -6,-8 -57,-62 -174,-67 -263,-70 -71,-3 -128,-6 -157,-39 -9,-10 -18,-23 -29,-39 -11,21 -29,39 -49,52 -17,11 -36,19 -54,21 -29,5 -56,-3 -72,-29l-1 0c-13,-20 -16,-49 -1,-87 0,-1 -45,-21 -108,-51 -24,-12 -50,-24 -74,-36 -19,-10 -37,-23 -55,-37 -37,-27 -77,-56 -122,-35 -14,7 -36,28 -60,54 -36,39 -73,87 -93,115 -3,5 -7,10 -11,15z"/>
</svg>