<?xml version="1.0" encoding="UTF-8"?>
<!DOCTYPE svg PUBLIC "-//W3C//DTD SVG 1.1//EN" "http://www.w3.org/Graphics/SVG/1.1/DTD/svg11.dtd">
<svg xmlns="http://www.w3.org/2000/svg" xml:space="preserve" width="580px" height="580px" shape-rendering="geometricPrecision" text-rendering="geometricPrecision" image-rendering="optimizeQuality" fill-rule="nonzero" clip-rule="nonzero" viewBox="0 0 5800 5800" xmlns:xlink="http://www.w3.org/1999/xlink">
	<title>earth_location icon</title>
	<desc>earth_location icon from the IconExperience.com I-Collection. Copyright by INCORS GmbH (www.incors.com).</desc>
		<path id="curve29" d="M4622 2719c51,186 78,381 78,581 0,1215 -985,2200 -2200,2200 -1215,0 -2200,-985 -2200,-2200 0,-607 246,-1158 644,-1556 399,-398 949,-644 1556,-644 481,0 946,156 1329,447l-241 241c-117,117 -117,307 0,424 117,117 307,117 424,0l241 -241c169,223 295,478 369,748zm-1853 -318c-38,-6 -75,-18 -105,-33 -85,-41 -76,-184 -43,-255 41,-92 121,-132 220,-132 39,-1 77,2 116,-8 25,-7 79,-67 109,-87 46,-31 -52,-102 -12,-181 34,-69 129,-76 190,-106 43,-21 94,-85 148,-90 -14,-7 -27,-13 -41,-20 -195,-91 -407,-153 -630,-177 -2,21 -15,41 -46,60 -73,43 -78,116 -220,168 -105,38 -214,17 -315,61 -87,37 -202,145 -275,162 -16,3 -33,3 -46,-9 -52,-48 57,-235 44,-271 -21,-28 -167,-2 -197,4 -6,2 -14,4 -24,6 -51,24 -101,51 -150,79 32,24 113,46 115,69 5,60 -119,49 -141,158 -4,20 28,97 36,118 16,45 45,124 6,165 -119,126 -144,-46 -215,-8 -48,26 -19,157 -79,166 -122,17 -207,115 -299,187 -39,31 -66,188 -147,245 -31,21 -197,128 -212,154 -9,39 -17,79 -24,119 0,11 1,23 2,35 10,77 67,223 126,275 57,50 114,-28 195,-3 132,40 161,135 253,184 57,30 139,75 181,125 24,29 26,45 35,79 16,60 171,110 224,131 44,18 204,75 225,116 58,113 -38,180 -65,282 -19,75 45,226 -47,264 -105,45 -177,106 -166,227 8,104 -60,151 -55,244 2,34 12,72 26,109 302,182 656,287 1034,287 1105,0 2000,-895 2000,-2000 0,-129 -12,-254 -35,-375 -14,30 -41,136 -59,166 -35,59 -77,48 -112,73 -62,84 115,173 1,320 -82,105 -213,259 -198,402 12,109 4,148 -48,241 -22,40 -44,79 -67,119 -68,120 -119,212 -210,317 -54,62 -255,284 -344,172 -18,-23 -151,-442 -148,-465 12,-89 60,-143 62,-239 1,-76 -85,-185 -100,-265 -12,-64 -4,-86 -46,-133 -71,-78 -54,-182 -179,-140 -85,29 -240,107 -325,72 -156,-62 -308,-219 -341,-386 -8,-38 20,-213 24,-269 5,-69 36,-134 75,-189 41,-59 147,-129 167,-165 33,-58 80,-143 152,-155zm598 -199c24,28 52,47 83,66 55,33 108,77 38,133 -50,41 -113,27 -85,-46 10,-26 -140,-89 -163,-100 -54,-29 -100,-93 -168,-61 -37,18 -113,114 -137,150 -21,31 -52,48 -86,56 59,1 114,-11 169,-30 48,-17 197,-29 245,-13 163,56 103,227 248,251 50,8 118,-9 168,0 81,15 140,50 219,10 39,-20 57,-92 27,-125 -91,-98 -309,-41 -353,-91 -23,-27 -47,-72 -65,-104 -11,-19 -38,-69 -54,-82 -16,-14 -63,-22 -86,-14zm-2373 2414c-10,-17 -18,-33 -24,-48 -21,-50 -28,-114 -35,-167 -5,-45 -15,-167 -44,-200 -93,-106 -223,-274 -245,-412 -17,-103 -31,-214 -21,-318 1,-33 -98,-181 -124,-219 -1,16 -1,32 -1,48 0,504 187,965 494,1316z"/>
	<path id="curve28" d="M4693 314c438,0 793,355 793,793 0,438 -355,793 -793,793 -183,0 -351,-62 -486,-166l-336 337c-39,39 -103,39 -142,0 -39,-39 -39,-103 0,-142l337 -336c-104,-135 -166,-303 -166,-486 0,-438 355,-793 793,-793zm0 200c-328,0 -593,265 -593,593 0,328 265,593 593,593 328,0 593,-265 593,-593 0,-328 -265,-593 -593,-593z"/>
</svg>