<?xml version="1.0" encoding="UTF-8"?>
<!DOCTYPE svg PUBLIC "-//W3C//DTD SVG 1.1//EN" "http://www.w3.org/Graphics/SVG/1.1/DTD/svg11.dtd">
<svg xmlns="http://www.w3.org/2000/svg" xml:space="preserve" width="580px" height="580px" shape-rendering="geometricPrecision" text-rendering="geometricPrecision" image-rendering="optimizeQuality" fill-rule="nonzero" clip-rule="nonzero" viewBox="0 0 5800 5800" xmlns:xlink="http://www.w3.org/1999/xlink">
	<title>earth_link icon</title>
	<desc>earth_link icon from the IconExperience.com I-Collection. Copyright by INCORS GmbH (www.incors.com).</desc>
		<path id="curve29"  d="M5100 2700c0,357 -78,695 -218,1000l-222 0c154,-300 240,-640 240,-1000 0,-152 -15,-300 -44,-442 -1,0 -3,0 -4,1 -38,11 -41,131 -83,200 -34,56 -110,63 -122,79 -81,110 120,198 2,350 -362,464 -155,400 -237,643 -1,6 -48,89 -98,176 -228,29 -432,133 -587,288 -22,22 -42,45 -62,68 -43,-134 -90,-290 -89,-298 15,-112 65,-136 68,-264 2,-85 -96,-219 -109,-294 -40,-213 -16,-74 -103,-225 -49,-86 -56,-131 -173,-91 -104,36 -257,113 -341,79 -165,-66 -325,-232 -360,-407 -3,-18 23,-241 27,-289 5,-72 39,-140 78,-196 55,-77 166,-149 185,-182 151,-268 154,-97 426,-194 64,-23 220,-26 254,-14 171,59 100,247 276,276 20,3 163,-4 184,0 108,19 159,56 253,8 57,-28 78,-125 36,-171 -105,-113 -349,-57 -386,-99 -30,-33 -82,-138 -121,-193 -41,-59 -166,-35 -146,-8 65,85 159,99 171,146 13,51 -121,119 -85,26 19,-49 -78,-80 -189,-138 -59,-30 -116,-108 -204,-66 -43,21 -126,123 -159,171 -56,83 -183,61 -269,19 -84,-40 -86,-242 24,-330 105,-84 191,-33 293,-62 42,-11 63,-56 126,-98 74,-49 -46,-127 -6,-206 32,-65 141,-78 198,-106 54,-27 129,-124 188,-89 81,48 155,105 236,154 54,33 101,60 148,77 -140,-115 -295,-213 -460,-291 -221,-104 -462,-172 -717,-197 2,21 -8,41 -38,58 -49,29 -78,124 -238,183 -119,43 -227,16 -345,67 -123,52 -228,159 -298,176 -112,25 52,-255 20,-298 -23,-31 -115,-27 -211,-9 -82,36 -162,78 -238,124 33,36 129,69 129,73 4,42 -128,38 -154,166 -12,59 108,240 52,300 -120,128 -127,-68 -230,-13 -63,34 -38,173 -79,179 -141,20 -233,127 -339,210 -41,32 -80,211 -160,267 -85,60 -181,119 -221,157 -18,68 -32,138 -43,209 21,145 113,280 144,307 76,68 137,-25 222,1 136,42 192,157 273,200 332,175 150,198 288,280 108,65 405,155 431,205 58,112 -42,176 -72,293 -14,51 3,123 3,182 -81,45 -155,102 -220,167 -170,170 -280,400 -293,656 -629,-452 -1002,-1174 -1002,-1951 0,-1325 1075,-2400 2400,-2400 1338,0 2400,1088 2400,2400zm-3883 1625c-79,-92 -147,-182 -173,-245 -48,-115 -33,-344 -90,-408 -117,-133 -242,-305 -263,-440 -20,-124 -33,-240 -22,-343 3,-33 -81,-175 -167,-289 -1,33 -2,66 -2,100 0,608 246,1158 644,1556 24,23 48,47 73,69z"/>
	<path id="curve28"  d="M4332 4700c55,0 100,45 100,100 0,55 -45,100 -100,100l-1467 0c-55,0 -100,-45 -100,-100 0,-55 45,-100 100,-100l1467 0zm-1001 400c-87,238 -315,400 -570,400l-455 0c-334,0 -606,-272 -606,-606l0 -188c0,-334 272,-606 606,-606l455 0c255,0 483,161 570,400l-221 0c-73,-123 -205,-200 -349,-200l-455 0c-223,0 -406,183 -406,406l0 188c0,223 183,406 406,406l455 0c144,0 276,-77 349,-200l221 0zm2168 -394l0 188c0,334 -272,606 -606,606l-455 0c-167,0 -318,-68 -428,-178 -62,-62 -111,-138 -142,-222l221 0c73,123 205,200 349,200l455 0c223,0 406,-183 406,-406l0 -188c0,-223 -183,-406 -406,-406l-455 0c-144,0 -276,77 -349,200l-221 0c87,-239 315,-400 570,-400l455 0c334,0 606,272 606,606z"/>
</svg>