<?xml version="1.0" encoding="UTF-8"?>
<!DOCTYPE svg PUBLIC "-//W3C//DTD SVG 1.1//EN" "http://www.w3.org/Graphics/SVG/1.1/DTD/svg11.dtd">
<svg xmlns="http://www.w3.org/2000/svg" xml:space="preserve" width="580px" height="580px" shape-rendering="geometricPrecision" text-rendering="geometricPrecision" image-rendering="optimizeQuality" fill-rule="nonzero" clip-rule="nonzero" viewBox="0 0 5800 5800" xmlns:xlink="http://www.w3.org/1999/xlink">
	<title>earth2 icon</title>
	<desc>earth2 icon from the IconExperience.com I-Collection. Copyright by INCORS GmbH (www.incors.com).</desc>
		<path id="curve28"  d="M2900 300c1436,0 2600,1164 2600,2600 0,1436 -1164,2600 -2600,2600 -1436,0 -2600,-1164 -2600,-2600 0,-1436 1164,-2600 2600,-2600zm986 411c-74,39 -98,86 -186,115 -78,25 -165,54 -209,141 -41,71 -18,135 12,203 1,1 -52,50 -57,55l-22 22c-28,7 -60,7 -91,7 -83,-1 -164,-2 -264,78 -19,0 -81,95 -91,115 -51,106 -58,263 19,359 15,20 34,36 55,48 -23,31 -49,71 -78,123l-47 39c-48,41 -108,92 -149,151 -48,68 -103,179 -103,263 -1,20 -6,61 -11,108 -9,94 -21,206 -16,233 22,109 81,216 160,305 82,93 186,168 292,210 108,43 245,-10 365,-56 25,-10 50,-19 75,-28 33,-11 39,0 52,23 30,54 60,109 108,149 9,7 -10,-8 9,95 16,88 119,239 117,300 -1,97 -59,172 -73,276 -3,20 48,203 98,357 38,121 78,232 94,253 54,68 135,79 215,51 163,-58 355,-292 447,-430 12,-17 68,-114 123,-211 60,-107 122,-217 126,-230 37,-112 30,-174 23,-233 -9,-72 -16,-136 218,-437 107,-138 61,-236 18,-326 -8,-17 -15,-32 -18,-43 43,-17 99,-42 138,-106 9,-15 44,-105 45,-104 -12,-91 -29,-180 -51,-267 -75,26 -94,26 -134,175 -8,33 -18,71 -32,93 -14,23 -90,29 -126,78 -77,102 -41,177 -2,259 17,37 37,78 5,119 -285,366 -273,467 -260,583 5,38 10,78 -13,146 -19,56 -183,328 -226,394 -69,103 -172,226 -266,301 -29,23 -56,41 -78,49 -10,-29 -32,-98 -57,-175 -42,-133 -90,-267 -89,-270 14,-110 72,-158 75,-299 2,-137 -102,-235 -121,-339 -32,-175 -35,-177 -78,-213 -22,-18 -46,-64 -60,-90 -68,-125 -99,-182 -291,-117 -23,8 -53,19 -83,31 -85,33 -184,71 -218,57 -79,-31 -156,-87 -218,-157 -56,-64 -98,-138 -113,-213 0,-1 10,-93 19,-173 1,-7 10,-114 11,-114 9,-118 99,-205 183,-276 40,-34 73,-63 90,-93 72,-126 93,-126 137,-124 61,2 142,5 273,-42 23,-8 66,-13 109,-15 49,-3 92,-3 102,1 48,16 67,60 86,102 40,90 78,176 230,201 19,4 66,3 115,2 71,-2 87,-3 155,14 90,23 155,39 266,-16 13,26 104,-113 113,-156 13,-65 0,-137 -46,-187 -99,-106 -252,-113 -367,-118 -35,-1 -38,27 -51,12 -11,-13 -34,-52 -57,-92 -22,-39 -46,-79 -67,-109 -51,-73 -148,-89 -215,-79 -44,6 -87,25 -112,64 -5,-3 -11,-7 -16,-12 -72,-52 -149,-108 -274,-49 -33,15 -70,49 -106,87 -40,44 -83,99 -106,133 -7,11 -22,16 -40,17 -39,3 -86,-10 -124,-29 -25,-32 -11,-112 6,-146 33,-68 104,-82 173,-81 46,0 92,1 146,-14 50,-14 76,-40 109,-72 15,-15 33,-32 56,-48 113,-75 80,-148 43,-230 -7,-17 -16,-31 -16,-33l1 0c6,-12 52,-27 92,-40 71,-24 97,-37 157,-84 22,-18 15,-55 31,-46 87,51 168,114 254,167 69,42 130,76 194,97 55,18 109,27 168,25l1 -1c-197,-191 -427,-348 -681,-463zm-2087 4322c-114,-207 -87,-266 -61,-324 24,-53 48,-106 41,-196 -9,-110 59,-155 152,-193 123,-52 113,-161 102,-273 -9,-94 -6,-104 40,-187 50,-90 94,-170 28,-296 -33,-64 -165,-117 -298,-171 -82,-33 -165,-66 -207,-91 -22,-13 -23,-19 -25,-25 -14,-66 -32,-145 -293,-283 -21,-11 -46,-36 -73,-63 -60,-59 -127,-126 -241,-161 -71,-22 -122,-5 -170,12 -5,0 -30,12 -34,8 -23,-21 -89,-117 -117,-234 -15,-63 -17,-130 11,-186 1,-2 63,-44 134,-91 29,-20 59,-41 94,-65 74,-52 116,-148 151,-228 15,-36 26,-64 27,-65 7,-5 77,-63 77,-65 76,-65 152,-130 243,-143 93,-13 104,-79 117,-157 2,-12 1,-23 0,-31 71,65 141,122 277,-23 80,-85 36,-203 -4,-307 -13,-37 -27,-64 -27,-67 9,-39 45,-58 71,-71 61,-31 106,-55 99,-138 0,-43 -26,-68 -62,-85 57,-16 182,-45 233,-45 2,14 -34,12 -46,46 -25,75 -52,154 -38,214 18,77 66,117 161,95 57,-14 112,-52 175,-96 129,-91 173,-120 332,-134 65,-5 130,-11 204,-38 143,-52 205,-126 251,-179 30,-35 63,-48 88,-84 19,-22 28,-61 27,-89 -77,-11 -155,-18 -234,-22 27,22 -5,33 -33,65 -96,114 -178,136 -320,148 -72,7 -145,13 -228,48 -71,31 -133,73 -188,112 27,-81 47,-157 6,-212 -19,-25 -45,-40 -74,-49 -209,67 -406,162 -586,281 6,-1 39,40 47,46 -35,32 -66,77 -80,147 -11,54 11,113 36,177 0,2 58,122 43,108 -54,-50 -110,-102 -222,-41 -80,43 -94,123 -105,192 32,5 3,0 4,1 -122,30 -210,105 -297,180 0,0 -64,54 -70,59 -38,30 -61,82 -87,142 -25,57 -55,125 -83,145 -14,10 -138,99 -146,95 -86,260 -126,530 -120,804 11,17 92,143 92,145 -14,132 3,268 24,398 30,185 190,392 311,529 18,20 40,261 52,318 216,288 496,526 819,693zm1761 -3328c30,-5 63,-9 95,-10 15,-1 30,-2 45,-2 -20,-14 -64,-51 -87,-41 -12,6 -42,40 -53,53zm483 225c16,34 33,65 73,72 3,0 41,-1 79,-2 89,-2 122,-1 208,21 48,12 83,21 126,0l0 0 1 0 1 -1 0 0 -1 0c3,-3 6,-10 7,-18 2,-6 2,-11 1,-14 -44,-44 -148,-48 -226,-52 -79,-3 -143,-6 -186,-48 -24,20 -53,35 -83,42zm486 91l1 0 0 -1 -1 1 0 0zm0 0c0,0 0,0 0,0l0 0zm-3465 1052c-43,-43 -92,-92 -159,-112 -9,-3 -47,9 -47,10 -34,12 -67,23 -102,23 24,52 38,95 35,121 -11,112 5,237 23,347 22,137 173,326 263,428 97,110 61,341 115,472 39,95 184,260 321,404 5,-55 24,-97 43,-139 14,-29 27,-59 24,-98 -17,-200 98,-320 273,-394 12,-5 -15,-32 -18,-69 -13,-136 -2,-184 64,-303 22,-40 42,-76 26,-107 -1,-2 -97,-38 -197,-78 -88,-35 -178,-71 -235,-105 -95,-57 -105,-101 -116,-152 -6,-25 -12,-55 -192,-150 -47,-25 -82,-60 -121,-98z"/>
</svg>