<?xml version="1.0" encoding="UTF-8"?>
<!DOCTYPE svg PUBLIC "-//W3C//DTD SVG 1.1//EN" "http://www.w3.org/Graphics/SVG/1.1/DTD/svg11.dtd">
<svg xmlns="http://www.w3.org/2000/svg" xml:space="preserve" width="580px" height="580px" shape-rendering="geometricPrecision" text-rendering="geometricPrecision" image-rendering="optimizeQuality" fill-rule="nonzero" clip-rule="nonzero" viewBox="0 0 5800 5800" xmlns:xlink="http://www.w3.org/1999/xlink">
	<title>earth_music icon</title>
	<desc>earth_music icon from the IconExperience.com I-Collection. Copyright by INCORS GmbH (www.incors.com).</desc>
		<path id="curve29"  d="M4295 1495l-554 118c-93,-72 -278,-26 -319,-72 -22,-25 -45,-68 -62,-98 -29,-49 -57,-114 -128,-92 22,25 48,42 76,60 26,15 59,32 67,63 7,26 -11,51 -30,67 -49,40 -111,25 -84,-46 8,-22 -137,-85 -154,-93 -51,-27 -94,-88 -158,-58 -78,37 -113,165 -197,192 50,-1 96,-12 144,-28 46,-17 189,-28 234,-13 125,44 114,157 175,211l-150 32c-144,22 -255,146 -255,297l-4 544c-81,28 -228,102 -310,69 -149,-60 -293,-209 -325,-369 -8,-37 18,-202 22,-256 5,-66 35,-128 72,-181 15,-21 33,-40 52,-58 19,-19 97,-82 107,-99 30,-52 73,-129 135,-146 -32,-6 -63,-17 -90,-30 -82,-39 -73,-176 -42,-245 40,-87 117,-126 211,-126 38,-1 74,2 110,-8 23,-6 75,-64 103,-82 42,-28 -50,-96 -12,-172 33,-66 123,-72 182,-101 36,-18 79,-68 124,-82 -9,-5 -18,-9 -27,-13 -183,-87 -383,-144 -593,-168 -4,18 -17,35 -43,50 -70,41 -74,111 -210,161 -112,41 -218,12 -334,74 -64,34 -166,123 -227,137 -16,4 -32,3 -45,-8 -33,-31 0,-116 12,-152 6,-16 33,-93 29,-106 -19,-26 -158,-1 -185,5l-8 2c-52,23 -102,49 -151,78 33,21 103,43 105,64 5,59 -113,47 -135,150 -3,19 27,92 34,112 33,90 19,237 -93,200 -43,-14 -62,-73 -106,-49 -44,24 -17,150 -75,158 -116,16 -197,109 -284,178 -37,28 -63,178 -140,232 -29,21 -189,124 -201,147 -2,5 -5,11 -7,17 -6,23 -11,46 -15,70 -2,19 -1,38 2,58 7,58 29,116 56,168 14,25 41,72 63,91 52,47 107,-27 184,-3 58,18 102,50 145,91 88,84 210,135 269,204 23,28 25,43 34,76 6,23 23,35 44,48 49,29 114,53 167,74 43,18 194,72 215,112 56,108 -36,172 -61,269 -19,72 43,215 -46,253 -99,41 -167,99 -157,213 4,49 -7,83 -27,126 -17,37 -28,64 -26,106 2,37 15,77 31,115 143,86 299,153 463,198 -30,22 -58,45 -85,68 -31,28 -61,57 -88,88 -847,-290 -1419,-1088 -1419,-1987 0,-1160 940,-2100 2100,-2100 807,0 1546,464 1895,1195zm194 1119c-66,652 -434,1233 -989,1575l0 -240c427,-303 712,-770 782,-1290l207 -45zm-486 105c-24,37 -46,75 -61,112 -18,43 -22,73 -17,119 18,166 -33,208 -110,344 -65,114 -113,201 -200,302 -21,24 -65,72 -115,115l0 -885 503 -107zm-3018 949c-16,-25 -29,-48 -37,-69 -20,-47 -27,-108 -33,-159 -5,-42 -14,-158 -41,-189 -89,-100 -213,-260 -234,-393 -16,-98 -30,-203 -20,-302 0,-31 -91,-168 -111,-197l-8 -12c-1,18 -1,35 -1,53 0,487 183,931 485,1268z"/>
	<path id="curve28"  d="M3300 2461l2000 -429 0 -343 -2000 426 0 346zm-811 1750c39,-5 75,-7 110,-7 181,0 344,51 467,138 11,8 23,17 34,26l0 -2333c0,-50 37,-92 85,-99l2194 -468c54,-12 107,23 119,77 0,1 2,20 2,20 0,914 0,1827 0,2741 0,179 -91,350 -239,480 -141,125 -336,215 -550,238 -39,4 -75,6 -110,6 -181,0 -344,-50 -467,-137 -129,-92 -214,-222 -231,-377 -2,-19 -3,-38 -3,-56 0,-180 91,-350 239,-481 141,-125 336,-214 550,-238 39,-4 75,-6 110,-6 181,0 344,51 467,137 11,9 23,18 34,27l0 -1662 -2000 428 0 2110c0,180 -91,350 -239,481 -141,125 -336,214 -550,238 -39,4 -75,6 -110,6 -181,0 -344,-51 -467,-138 -129,-91 -214,-222 -231,-376 -2,-20 -3,-39 -3,-57 0,-179 91,-350 239,-480 141,-126 336,-215 550,-238zm110 193c-30,0 -59,2 -88,5 -173,19 -328,90 -440,189 -106,93 -171,211 -171,331 0,13 1,25 2,35 10,95 64,177 147,236 90,63 212,100 352,100 30,0 59,-2 88,-5 173,-19 328,-89 440,-188 106,-94 171,-212 171,-332 0,-12 0,-23 -2,-35 -10,-95 -64,-177 -147,-235 -90,-64 -212,-101 -352,-101zm2200 -469c-30,0 -59,1 -88,5 -173,19 -328,89 -440,188 -106,94 -171,212 -171,332 0,13 1,24 2,35 10,95 64,177 147,235 90,63 212,100 352,100 30,0 59,-1 88,-4 173,-19 328,-90 440,-189 106,-94 171,-211 171,-331 0,-13 -1,-25 -2,-35 -10,-96 -64,-177 -147,-236 -90,-63 -212,-100 -352,-100z"/>
</svg>