<?xml version="1.0" encoding="UTF-8"?>
<!DOCTYPE svg PUBLIC "-//W3C//DTD SVG 1.1//EN" "http://www.w3.org/Graphics/SVG/1.1/DTD/svg11.dtd">
<svg xmlns="http://www.w3.org/2000/svg" xml:space="preserve" width="580px" height="580px" shape-rendering="geometricPrecision" text-rendering="geometricPrecision" image-rendering="optimizeQuality" fill-rule="nonzero" clip-rule="nonzero" viewBox="0 0 5800 5800" xmlns:xlink="http://www.w3.org/1999/xlink">
	<title>earth icon</title>
	<desc>earth icon from the IconExperience.com I-Collection. Copyright by INCORS GmbH (www.incors.com).</desc>
		<path id="curve28"  d="M2900 300c1436,0 2600,1164 2600,2600 0,1436 -1164,2600 -2600,2600 -1436,0 -2600,-1164 -2600,-2600 0,-1436 1164,-2600 2600,-2600zm160 1726c-20,36 -141,114 -200,198 -43,60 -80,134 -85,213 -4,52 -33,295 -29,314 38,190 212,371 391,443 91,36 257,-48 371,-86 126,-44 134,5 188,99 94,164 69,12 111,244 15,81 121,227 119,319 -3,140 -58,166 -74,288 -2,15 152,511 171,535 94,118 364,-167 501,-372 22,-34 233,-406 237,-417 89,-265 -136,-196 257,-700 129,-165 -90,-261 -1,-380 13,-18 95,-25 132,-86 45,-75 48,-205 90,-218 4,-1 8,-1 13,0 -110,-543 -404,-1019 -813,-1361 -58,-18 -116,-50 -183,-91 -87,-54 -168,-116 -256,-168 -64,-38 -145,68 -204,96 -62,31 -180,45 -216,116 -43,86 87,171 7,224 -68,46 -91,94 -136,107 -112,31 -206,-25 -320,67 -119,95 -117,315 -26,359 94,45 232,69 293,-21 36,-52 125,-164 173,-186 96,-45 158,39 221,72 122,63 226,96 206,150 -40,101 107,27 92,-29 -13,-51 -115,-66 -185,-158 -22,-30 113,-56 158,8 43,60 99,174 131,210 40,46 306,-15 420,108 46,50 22,156 -39,186 -102,51 -158,12 -275,-9 -23,-4 -178,4 -200,0 -191,-32 -114,-236 -300,-300 -37,-13 -207,-9 -276,15 -296,105 -299,-80 -464,211zm77 -1514c-78,-8 -157,-12 -237,-12 -359,0 -700,79 -1006,221 116,-26 239,-36 267,1 35,48 -143,352 -22,324 76,-17 190,-134 324,-191 129,-55 246,-25 375,-73 174,-63 206,-167 259,-198 36,-22 46,-46 40,-72zm-1470 328c-538,323 -939,851 -1095,1476 33,-40 149,-111 252,-183 87,-62 130,-256 174,-291 115,-90 215,-207 368,-228 44,-6 18,-158 86,-194 112,-61 119,152 250,13 61,-65 -69,-261 -56,-325 28,-139 171,-136 167,-181 0,-4 -117,-44 -146,-87zm-1133 1658c-16,92 -26,186 -31,282 96,126 193,289 189,325 -11,112 2,238 24,373 24,147 159,334 287,478 61,70 45,319 97,444 33,81 128,200 234,319 98,84 203,161 314,229 -98,-249 45,-263 31,-427 -12,-148 68,-233 213,-294 90,-37 17,-202 43,-299 32,-126 141,-197 78,-318 -28,-54 -351,-153 -468,-223 -150,-89 47,-114 -313,-304 -88,-47 -149,-172 -297,-218 -92,-28 -159,73 -241,-1 -36,-31 -149,-196 -160,-366z"/>
</svg>