<?xml version="1.0" encoding="UTF-8"?>
<!DOCTYPE svg PUBLIC "-//W3C//DTD SVG 1.1//EN" "http://www.w3.org/Graphics/SVG/1.1/DTD/svg11.dtd">
<svg xmlns="http://www.w3.org/2000/svg" xml:space="preserve" width="580px" height="580px" shape-rendering="geometricPrecision" text-rendering="geometricPrecision" image-rendering="optimizeQuality" fill-rule="nonzero" clip-rule="nonzero" viewBox="0 0 5800 5800" xmlns:xlink="http://www.w3.org/1999/xlink">
	<title>earth2 icon</title>
	<desc>earth2 icon from the IconExperience.com I-Collection. Copyright by INCORS GmbH (www.incors.com).</desc>
		<path id="curve28" d="M5408 2213c60,220 92,450 92,687 0,1436 -1164,2600 -2600,2600 -1436,0 -2600,-1164 -2600,-2600 0,-1218 843,-2258 1999,-2530 197,-47 399,-70 601,-70l0 0 1 0 0 0 1 0 1 0 1 0 1 0 0 0 1 0 1 0 1 0c392,1 764,89 1098,247 689,324 1202,935 1402,1666zm-2434 -236c29,-52 55,-92 78,-123 -21,-12 -40,-28 -55,-48 -36,-44 -56,-107 -58,-174 -1,-60 11,-126 39,-185 21,-44 51,-84 91,-115l0 0c100,-80 181,-79 264,-78 31,0 63,0 91,-7l22 -22c12,-12 57,-45 59,-56 -1,1 -2,1 -2,1 -25,-57 -53,-120 -12,-203l0 0c44,-87 131,-116 209,-141 20,-7 40,-13 52,-19 9,-5 25,-18 42,-31 29,-23 60,-48 93,-65 -203,-91 -420,-155 -649,-187 1,31 -8,61 -27,89l0 0c-15,21 -36,40 -64,57 -2,1 -12,13 -24,27 -46,53 -108,127 -251,179 -74,27 -139,33 -204,38 -57,5 -114,10 -166,33 -57,24 -115,65 -166,101 -63,44 -118,82 -175,96 -95,22 -143,-18 -161,-95 -14,-60 13,-139 38,-214 12,-34 48,-32 46,-46 -15,0 -76,11 -143,24 -31,6 -62,13 -90,21 35,16 58,34 62,84l0 1c7,83 -38,107 -99,138 -26,13 -62,32 -71,71 0,3 14,30 27,67 40,104 84,222 4,307 -136,145 -206,88 -277,23 1,8 2,19 0,31 -13,78 -24,144 -117,157 -91,13 -167,78 -243,143 0,2 -70,60 -77,65 -1,1 -12,29 -27,65 -35,80 -77,176 -151,228 -35,24 -65,45 -94,65 -71,47 -133,89 -134,91 -28,56 -26,123 -11,186 28,117 94,213 117,234 4,4 29,-8 34,-8 48,-17 99,-34 170,-12 114,35 181,102 241,161 27,27 52,52 73,63 261,138 279,217 293,283 2,6 3,12 25,25 42,25 125,58 207,91 133,54 265,107 298,171 66,126 22,206 -28,296 -16,30 -34,61 -42,93 -5,20 -1,57 2,94 11,112 21,221 -102,273 -58,24 -101,50 -125,82 -22,28 -31,63 -27,111 7,90 -17,143 -41,196 -26,58 -53,117 61,324 330,171 704,267 1101,267 1326,0 2400,-1074 2400,-2400 0,-107 -7,-211 -20,-314l-2 -3c-10,36 -23,74 -43,107 -39,64 -95,89 -138,106 3,11 10,26 18,43 43,90 89,188 -18,326 -234,301 -227,365 -218,437 7,59 14,121 -23,233 -4,13 -66,123 -126,230 -55,97 -111,194 -123,211 -78,117 -198,259 -308,347 -47,38 -95,67 -139,83 -63,23 -123,21 -175,-14 -15,-10 -28,-22 -40,-37 -16,-21 -56,-132 -94,-253 -50,-154 -101,-337 -98,-357 9,-68 26,-109 43,-149 15,-35 29,-69 30,-127 1,-30 -28,-90 -56,-146 -27,-55 -52,-107 -61,-154 -19,-103 0,-88 -9,-95 -17,-14 -44,-36 -91,-118l-17 -31c-13,-23 -19,-34 -52,-23 -25,9 -50,18 -75,28 -120,46 -257,99 -365,56 -106,-42 -210,-117 -292,-210 -79,-89 -138,-196 -160,-305 -5,-27 7,-139 16,-233 4,-32 11,-77 11,-108 3,-47 15,-92 32,-134 19,-48 44,-91 71,-129 41,-59 101,-110 149,-151l47 -39zm310 -26c-44,-2 -65,-2 -137,124 -17,30 -50,59 -90,93 -40,33 -89,75 -116,114 -19,27 -36,57 -49,88 -9,24 -16,49 -18,74l0 0c-1,19 -6,63 -11,114 -9,80 -19,172 -19,173 15,75 57,149 113,213 62,70 139,126 218,157 34,14 133,-24 218,-57 30,-12 60,-23 83,-31 192,-65 223,-8 291,117 3,4 16,27 16,27 28,50 38,58 44,63 43,36 46,38 78,213 4,21 23,61 44,103 38,76 78,159 77,236 -2,98 -24,149 -45,201 -13,29 -25,58 -30,98 -1,3 47,137 89,270 25,77 47,146 57,175 22,-8 49,-26 78,-49 94,-75 197,-198 266,-301 9,-15 62,-107 115,-200 56,-98 111,-193 111,-194 23,-68 18,-108 13,-146 -13,-116 -25,-217 260,-583 32,-41 12,-82 -5,-119 -39,-82 -75,-157 2,-259 22,-30 46,-39 77,-51 18,-7 43,-17 49,-27 14,-22 24,-60 32,-93 21,-78 39,-146 115,-169 5,-2 10,-3 15,-4 -46,-188 -114,-367 -202,-534 -119,-228 -274,-435 -457,-612 -59,2 -113,-7 -168,-25 -64,-21 -125,-55 -194,-97 -42,-26 -82,-53 -121,-80 -45,-31 -90,-62 -133,-87 -16,-9 -9,28 -31,46 -26,21 -51,41 -79,54 -24,12 -50,20 -78,30 -40,13 -86,28 -92,40l-1 0c0,2 9,16 16,33 37,82 70,155 -43,230 -23,16 -41,33 -56,48 -33,32 -59,58 -109,72 -54,15 -100,14 -146,14 -7,0 -156,11 -137,34 -15,12 -27,28 -36,47 -14,29 -20,62 -19,93 0,24 5,43 13,53 38,19 85,32 124,29 18,-1 33,-6 40,-17 23,-34 66,-89 106,-133 36,-38 73,-72 106,-87 125,-59 202,-3 274,49 5,5 11,9 16,12 1,-1 5,-8 6,-7 14,-20 34,-35 58,-44 14,-6 31,-11 48,-13 67,-10 164,6 215,79 21,30 45,70 67,109 23,40 46,79 57,92 13,15 16,-13 51,-12 115,5 268,12 367,118 12,13 22,28 29,43 22,44 27,96 17,144 -10,47 -34,93 -69,125 0,2 -43,34 -44,31 -111,55 -176,39 -266,16 -21,-5 -45,-11 -71,-16 -4,0 -44,1 -84,2 -49,1 -96,2 -115,-2 -152,-25 -190,-111 -230,-201 -19,-42 -38,-86 -86,-102 -10,-4 -53,-4 -102,-1 -43,2 -86,7 -109,15 -131,47 -212,44 -273,42zm276 -246c30,-5 63,-9 95,-10 15,-1 30,-2 45,-2l-15 -11c-26,-18 -53,-38 -72,-30 -12,6 -42,40 -53,53zm483 225c16,34 33,65 73,72 3,0 41,-1 79,-2 51,-1 103,-2 122,2 32,5 60,12 86,19 48,12 83,21 126,0l0 0 1 0 1 -1 0 0 -1 0c3,-3 6,-10 7,-18 2,-6 2,-11 1,-14 -44,-44 -148,-48 -226,-52 -79,-3 -143,-6 -186,-48 -7,5 -13,10 -20,15 -19,12 -41,22 -63,27zm486 91l1 0 0 -1 -1 1 0 0zm0 0c0,0 0,0 0,0l0 0zm-3549 2319c-10,-48 -16,-98 -21,-148 -10,-79 -18,-156 -31,-170 -74,-84 -151,-182 -210,-280 -50,-84 -88,-169 -101,-249 -11,-71 -20,-139 -25,-202 -5,-68 -6,-133 1,-196 0,-1 -36,-58 -83,-130l-9 -16c10,521 187,1002 479,1391zm84 -1267c-43,-43 -92,-92 -159,-112 -8,-3 -28,4 -47,10 3,6 -90,23 -102,23 24,52 38,95 35,121 -5,49 -4,103 0,161 5,61 13,123 23,186 9,52 37,114 75,178 52,86 121,174 188,250 55,62 67,168 80,279 8,74 17,149 35,193 39,95 184,260 321,404 5,-55 24,-97 43,-139 14,-29 27,-59 24,-98 -9,-100 16,-181 68,-248 48,-63 118,-109 205,-146 12,-5 -15,-32 -18,-69 -6,-54 -11,-109 3,-163 15,-56 39,-99 61,-140 22,-40 42,-76 26,-107 -1,-2 -97,-38 -197,-78 -88,-35 -178,-71 -235,-105 -95,-57 -105,-101 -116,-152 -6,-25 -12,-55 -192,-150 -47,-25 -82,-60 -121,-98zm236 -1549c11,-69 25,-149 105,-192 112,-61 168,-9 222,41 1,1 -3,-3 2,-8 6,-6 -27,-50 -45,-100 -25,-64 -47,-123 -36,-177 14,-70 45,-115 80,-147 -7,-6 -14,-12 -21,-18 -9,-9 -18,-19 -25,-28 -106,70 -206,148 -299,233 -300,275 -529,624 -658,1020 16,-12 33,-23 51,-35 31,-21 64,-43 91,-62 28,-20 58,-88 83,-145 26,-60 49,-112 87,-142 21,-17 45,-38 70,-59l0 0c87,-75 175,-150 297,-180l-4 -1zm867 -910c24,8 45,18 60,33 5,5 10,11 14,16 41,55 21,131 -6,212 55,-39 117,-81 188,-112 83,-35 156,-41 228,-48 52,-4 104,-9 152,-26 94,-35 137,-85 168,-122 17,-19 31,-36 49,-51 -5,-4 -10,-9 -16,-14 -284,-12 -566,25 -837,112z"/>
</svg>