<?xml version="1.0" encoding="UTF-8"?>
<!DOCTYPE svg PUBLIC "-//W3C//DTD SVG 1.1//EN" "http://www.w3.org/Graphics/SVG/1.1/DTD/svg11.dtd">
<svg xmlns="http://www.w3.org/2000/svg" xml:space="preserve" width="580px" height="580px" shape-rendering="geometricPrecision" text-rendering="geometricPrecision" image-rendering="optimizeQuality" fill-rule="nonzero" clip-rule="nonzero" viewBox="0 0 5800 5800" xmlns:xlink="http://www.w3.org/1999/xlink">
	<title>earth_network icon</title>
	<desc>earth_network icon from the IconExperience.com I-Collection. Copyright by INCORS GmbH (www.incors.com).</desc>
		<path id="curve28"  d="M5300 2500c0,1176 -926,2145 -2100,2198l0 502 100 0 0 100 1000 0 0 200 -1000 0 0 100c-133,0 -267,0 -400,0l0 -100 -1000 0 0 -200 1000 0 0 -100 100 0 0 -502c-1174,-53 -2100,-1022 -2100,-2198 0,-1215 985,-2200 2200,-2200 334,0 652,75 936,209 773,364 1264,1141 1264,1991zm-1931 -909c-38,-6 -75,-18 -105,-33 -85,-41 -76,-184 -43,-255 41,-92 121,-132 220,-132 39,-1 77,2 116,-8 25,-7 79,-67 109,-87 46,-31 -52,-102 -12,-181 34,-69 129,-76 190,-106 39,-19 85,-73 133,-87 -8,-4 -17,-9 -26,-13 -195,-92 -408,-153 -632,-177 -4,17 -17,34 -44,50 -73,43 -78,116 -220,168 -104,38 -214,17 -315,61 -86,37 -202,145 -275,162 -16,3 -33,3 -45,-9 -53,-48 56,-235 43,-271 -18,-25 -132,-8 -180,1 -63,28 -124,59 -183,94 36,21 106,42 107,63 5,60 -119,49 -141,158 -4,20 28,97 36,118 16,45 45,124 6,165 -119,126 -144,-46 -215,-8 -48,26 -19,157 -79,166 -122,17 -207,115 -299,187 -39,31 -66,188 -147,245 -29,20 -179,117 -208,149 -11,44 -20,87 -28,132 0,9 1,18 2,27 10,77 67,223 126,275 57,50 114,-28 195,-3 132,40 161,135 253,184 57,30 139,75 181,125 24,29 26,45 35,79 16,60 171,110 224,131 44,18 204,76 225,116 59,113 -38,180 -65,282 -19,75 45,226 -47,264 -105,45 -177,106 -166,227 8,104 -60,151 -55,244 2,38 15,81 32,122 300,180 652,284 1028,284 1105,0 2000,-895 2000,-2000 0,-131 -12,-259 -36,-382 -14,34 -40,134 -58,163 -35,59 -77,48 -112,73 -62,84 115,173 1,320 -82,105 -213,259 -198,402 12,109 4,148 -48,241 -22,40 -44,79 -67,119 -68,120 -119,212 -210,317 -54,62 -255,284 -344,172 -18,-23 -151,-442 -148,-465 12,-89 60,-143 62,-239 1,-76 -85,-185 -100,-265 -11,-64 -4,-86 -46,-133 -71,-78 -54,-182 -179,-140 -85,29 -239,107 -325,72 -156,-62 -307,-219 -341,-386 -7,-38 20,-213 24,-269 5,-69 36,-134 75,-189 42,-59 147,-129 167,-165 32,-55 78,-139 146,-154 2,-1 4,-1 6,-1zm598 -199c24,28 52,47 83,66 55,33 108,77 38,133 -50,41 -113,27 -85,-46 10,-26 -140,-89 -163,-100 -54,-29 -99,-93 -168,-61 -37,18 -113,114 -137,150 -21,31 -52,48 -85,56 4,0 8,0 12,0 54,-1 105,-12 156,-30 48,-17 197,-29 245,-13 163,56 103,227 248,251 50,8 118,-9 169,0 81,15 139,50 218,10 39,-20 57,-92 27,-125 -91,-98 -309,-41 -353,-91 -23,-27 -47,-72 -65,-104 -11,-19 -38,-69 -54,-82 -16,-14 -63,-22 -86,-14zm-2351 2449c-20,-30 -36,-58 -46,-83 -21,-50 -28,-114 -35,-167 -5,-45 -14,-167 -44,-200 -93,-106 -223,-274 -245,-412 -17,-103 -31,-214 -21,-318 1,-32 -96,-179 -117,-208l-7 -11c-1,20 -1,39 -1,58 0,516 195,986 516,1341z"/>
</svg>