<?xml version="1.0" encoding="UTF-8"?>
<!DOCTYPE svg PUBLIC "-//W3C//DTD SVG 1.1//EN" "http://www.w3.org/Graphics/SVG/1.1/DTD/svg11.dtd">
<svg xmlns="http://www.w3.org/2000/svg" xml:space="preserve" width="580px" height="580px" shape-rendering="geometricPrecision" text-rendering="geometricPrecision" image-rendering="optimizeQuality" fill-rule="nonzero" clip-rule="nonzero" viewBox="0 0 5800 5800" xmlns:xlink="http://www.w3.org/1999/xlink">
	<title>earth_music icon</title>
	<desc>earth_music icon from the IconExperience.com I-Collection. Copyright by INCORS GmbH (www.incors.com).</desc>
		<path id="curve28"  d="M2489 4211c39,-5 75,-7 110,-7 181,0 344,51 467,138 11,8 23,17 34,26l0 -2333c0,-50 37,-92 85,-99l2194 -468c63,-14 121,34 121,97l0 2715c0,426 -400,701 -789,744 -39,4 -75,6 -110,6 -315,0 -660,-171 -698,-514 -2,-19 -3,-38 -3,-56 0,-405 423,-679 789,-719 39,-4 75,-6 110,-6 181,0 344,51 467,137 11,9 23,18 34,27l0 -1662 -2000 428 0 2110c0,404 -423,678 -789,719 -39,4 -75,6 -110,6 -315,0 -660,-171 -698,-514 -2,-20 -3,-39 -3,-57 0,-404 423,-678 789,-718zm-89 -3911c836,0 1557,488 1895,1194l-202 44c-184,-362 -481,-657 -844,-838 -43,11 -89,64 -125,82 -50,24 -146,36 -174,93 -35,70 70,138 5,181 -55,37 -74,76 -110,86 -90,25 -166,-20 -258,54 -97,77 -95,255 -21,290 75,37 187,56 236,-16 29,-43 102,-133 140,-151 77,-36 127,32 179,59 98,50 182,77 166,120 -32,82 86,22 74,-23 -10,-41 -93,-53 -149,-128 -18,-23 91,-44 128,7 34,49 80,140 106,170 31,36 237,-10 332,81l-493 105c-52,-60 -47,-160 -158,-198 -30,-11 -167,-8 -223,12 -239,85 -241,-65 -374,170 -17,29 -114,92 -162,160 -35,49 -65,109 -69,172 -3,42 -26,238 -23,254 30,153 171,299 316,357 73,30 207,-38 299,-69 3,-1 6,-2 9,-3l0 1481c-97,-28 -199,-42 -301,-42 -326,0 -663,137 -881,383 -825,-283 -1418,-1066 -1418,-1987 0,-1160 940,-2100 2100,-2100zm2089 2315c-68,666 -447,1240 -989,1574l0 -477c77,-66 157,-164 212,-245 18,-27 188,-328 191,-337 61,-182 -61,-169 96,-410l490 -105zm-2089 -2115c-236,0 -461,43 -669,121 35,1 61,6 72,20 28,38 -116,284 -18,262 62,-14 154,-108 262,-155 104,-44 199,-20 303,-58 140,-52 166,-136 209,-161 11,-6 19,-13 24,-20 -60,-6 -121,-9 -183,-9zm-1030 3497c-37,-147 54,-169 44,-288 -10,-119 55,-188 172,-237 73,-30 14,-163 34,-242 27,-102 115,-159 64,-257 -23,-43 -284,-123 -379,-179 -121,-73 39,-93 -252,-246 -72,-38 -121,-139 -240,-176 -75,-23 -128,58 -195,-1 -21,-18 -74,-93 -106,-185 -6,55 -10,111 -11,167 63,91 118,188 116,213 -10,90 1,192 19,301 19,119 129,270 232,386 49,56 36,257 78,359 4,8 8,17 13,26 119,138 257,259 411,359zm-799 -2112c41,-30 99,-67 152,-105 71,-49 105,-206 141,-234 93,-73 173,-167 297,-185 36,-5 14,-127 69,-157 91,-48 97,124 202,11 50,-52 -56,-211 -45,-262 23,-113 139,-110 135,-147 0,-2 -51,-20 -87,-43 -416,246 -731,646 -864,1122z"/>
</svg>