<?xml version="1.0" encoding="UTF-8"?>
<!DOCTYPE svg PUBLIC "-//W3C//DTD SVG 1.1//EN" "http://www.w3.org/Graphics/SVG/1.1/DTD/svg11.dtd">
<svg xmlns="http://www.w3.org/2000/svg" xml:space="preserve" width="580px" height="580px" shape-rendering="geometricPrecision" text-rendering="geometricPrecision" image-rendering="optimizeQuality" fill-rule="nonzero" clip-rule="nonzero" viewBox="0 0 5800 5800" xmlns:xlink="http://www.w3.org/1999/xlink">
	<title>earth_link icon</title>
	<desc>earth_link icon from the IconExperience.com I-Collection. Copyright by INCORS GmbH (www.incors.com).</desc>
		<path id="curve28"  d="M2700 300c1325,0 2400,1075 2400,2400 0,437 -117,847 -321,1200l-341 0c-88,0 -174,14 -254,41 5,-7 10,-15 15,-22 20,-31 216,-374 219,-385 82,-244 -126,-180 237,-646 119,-152 -83,-240 -1,-350 12,-17 88,-23 122,-80 41,-67 44,-182 80,-199 -105,-512 -387,-960 -780,-1275 -39,-17 -79,-40 -124,-68 -81,-49 -155,-107 -237,-154 -59,-35 -134,62 -188,89 -57,28 -166,41 -199,106 -40,80 80,158 6,207 -63,42 -84,87 -126,99 -102,28 -189,-23 -295,61 -110,88 -108,291 -23,332 86,41 214,64 270,-19 33,-49 116,-151 159,-172 89,-42 146,36 205,67 112,57 208,88 189,137 -36,94 99,26 86,-26 -13,-47 -107,-61 -171,-146 -21,-27 104,-51 146,8 39,55 91,160 121,194 37,41 282,-14 387,99 43,47 21,144 -36,172 -94,47 -146,11 -254,-8 -20,-4 -164,3 -184,0 -177,-30 -106,-219 -277,-277 -35,-12 -191,-9 -255,14 -273,97 -276,-74 -428,194 -19,33 -130,105 -185,183 -39,56 -74,124 -79,197 -3,48 -30,272 -26,289 35,176 195,343 361,409 84,34 237,-44 342,-79 117,-40 124,4 174,91 86,152 63,12 102,226 14,75 112,210 110,294 -2,129 -53,154 -68,266 -2,13 140,471 158,494 5,7 11,12 18,16 -30,48 -55,99 -75,153l-24 68 -113 0 -24 -68c-116,-318 -419,-532 -758,-532l-455 0c-380,0 -700,265 -784,620 -40,-164 62,-189 51,-323 -11,-137 63,-216 196,-272 84,-35 17,-186 40,-276 30,-117 131,-182 72,-294 -26,-50 -324,-141 -432,-205 -138,-83 44,-106 -289,-281 -81,-43 -138,-159 -274,-201 -85,-26 -146,67 -222,-1 -30,-26 -115,-148 -141,-284 -11,74 -18,149 -21,226 84,113 163,249 160,280 -11,104 2,220 22,344 22,136 147,309 265,442 56,64 42,294 89,410 22,52 72,122 133,197 105,101 220,192 344,271 -10,50 -15,101 -15,153l0 73c-717,-415 -1200,-1191 -1200,-2079 0,-1325 1075,-2400 2400,-2400zm1632 4400c55,0 100,45 100,100 0,55 -45,100 -100,100l-1467 0c-55,0 -100,-45 -100,-100 0,-55 45,-100 100,-100l1467 0zm1167 6l0 188c0,334 -272,606 -606,606l-455 0c-255,0 -483,-162 -570,-400l221 0c73,123 205,200 349,200l455 0c223,0 406,-183 406,-406l0 -188c0,-223 -183,-406 -406,-406l-455 0c-144,0 -276,77 -349,200l-221 0c87,-239 315,-400 570,-400l455 0c334,0 606,272 606,606zm-2168 394c-87,238 -315,400 -570,400l-455 0c-334,0 -606,-272 -606,-606l0 -188c0,-334 272,-606 606,-606l455 0c255,0 483,161 570,400l-221 0c-73,-123 -205,-200 -349,-200l-455 0c-223,0 -406,183 -406,406l0 188c0,223 183,406 406,406l455 0c144,0 276,-77 349,-200l221 0zm-631 -4600c-307,0 -598,63 -863,176 84,-13 160,-13 180,14 33,44 -131,325 -20,299 71,-16 176,-124 299,-177 119,-51 228,-23 347,-67 160,-59 190,-154 239,-183 26,-15 37,-33 38,-51 -72,-7 -146,-11 -220,-11zm-2128 1640c45,-38 132,-92 212,-148 80,-57 119,-236 161,-268 106,-84 198,-191 339,-211 41,-6 17,-146 79,-179 104,-56 111,140 231,12 57,-60 -64,-241 -52,-300 27,-129 159,-125 155,-167 0,-4 -88,-34 -125,-68 -487,291 -852,766 -1000,1329z"/>
</svg>