<?xml version="1.0" encoding="UTF-8"?>
<!DOCTYPE svg PUBLIC "-//W3C//DTD SVG 1.1//EN" "http://www.w3.org/Graphics/SVG/1.1/DTD/svg11.dtd">
<svg xmlns="http://www.w3.org/2000/svg" xml:space="preserve" width="580px" height="580px" shape-rendering="geometricPrecision" text-rendering="geometricPrecision" image-rendering="optimizeQuality" fill-rule="nonzero" clip-rule="nonzero" viewBox="0 0 5800 5800" xmlns:xlink="http://www.w3.org/1999/xlink">
	<title>earth_location icon</title>
	<desc>earth_location icon from the IconExperience.com I-Collection. Copyright by INCORS GmbH (www.incors.com).</desc>
		<path id="curve28"  d="M4693 314c438,0 793,355 793,793 0,438 -355,793 -793,793 -183,0 -351,-62 -486,-166l-336 337c-39,39 -103,39 -142,0 -39,-39 -39,-103 0,-142l337 -336c-104,-135 -166,-303 -166,-486 0,-438 355,-793 793,-793zm-2193 786c481,0 926,155 1288,417 8,16 15,32 23,47l-125 126c-53,-39 -119,-78 -175,-116 -35,-20 -70,-39 -105,-58 -50,1 -106,68 -148,89 -52,25 -153,37 -182,97 -37,73 73,145 5,190 -57,39 -77,80 -115,90 -94,27 -174,-21 -270,57 -102,81 -100,267 -22,304 79,38 196,59 248,-18 30,-44 106,-138 145,-157 82,-39 134,33 188,61 103,53 191,81 174,126 -33,86 90,23 78,-24 -11,-43 -98,-56 -157,-134 -18,-25 96,-47 134,7 36,51 84,147 111,178 34,38 259,-13 355,91 39,43 19,132 -32,158 -87,43 -134,10 -233,-8 -19,-3 -151,3 -170,0 -162,-27 -96,-200 -253,-254 -32,-11 -175,-8 -234,13 -250,89 -253,-68 -392,178 -17,31 -120,97 -170,168 -36,51 -67,114 -72,180 -3,45 -28,250 -24,266 32,161 179,314 331,375 76,30 217,-41 313,-73 107,-37 114,4 159,84 80,138 59,10 95,206 12,69 102,193 100,270 -2,118 -49,141 -62,244 -2,12 128,432 144,453 80,99 308,-142 424,-315 19,-29 198,-343 201,-353 75,-225 -115,-166 217,-592 109,-140 -76,-221 -1,-322 11,-15 81,-21 112,-72 31,-52 39,-133 59,-169 -58,-293 -180,-564 -352,-796l126 -125c15,8 31,15 47,23 262,362 417,807 417,1288 0,1215 -985,2200 -2200,2200 -1215,0 -2200,-985 -2200,-2200 0,-1215 985,-2200 2200,-2200zm0 200c-258,0 -504,49 -731,138 51,-4 92,1 105,19 30,40 -120,298 -18,275 65,-15 161,-114 274,-162 109,-47 208,-22 317,-62 147,-54 175,-142 219,-168 16,-9 27,-20 32,-30 -65,-7 -131,-10 -198,-10zm-1075 3686c-49,-166 53,-187 42,-314 -10,-126 57,-197 180,-249 76,-32 15,-171 36,-253 28,-107 120,-167 66,-269 -23,-46 -297,-129 -396,-189 -126,-75 40,-96 -264,-257 -75,-40 -127,-146 -252,-184 -78,-24 -134,61 -204,-1 -23,-21 -86,-110 -118,-217 -7,61 -12,123 -14,185 71,99 133,209 131,236 -10,95 1,201 20,315 20,125 135,283 243,405 52,59 38,269 82,375 9,22 23,47 41,74 119,132 256,247 407,343zm-854 -2216c44,-34 111,-76 172,-119 74,-52 110,-216 148,-246 97,-76 181,-175 311,-193 38,-5 15,-134 73,-165 95,-51 101,130 211,12 52,-55 -58,-221 -47,-275 24,-118 145,-115 142,-153 -1,-3 -63,-25 -101,-52 -439,261 -770,686 -909,1191z"/>
</svg>