<?xml version="1.0" encoding="UTF-8"?>
<!DOCTYPE svg PUBLIC "-//W3C//DTD SVG 1.1//EN" "http://www.w3.org/Graphics/SVG/1.1/DTD/svg11.dtd">
<svg xmlns="http://www.w3.org/2000/svg" xml:space="preserve" width="580px" height="580px" shape-rendering="geometricPrecision" text-rendering="geometricPrecision" image-rendering="optimizeQuality" fill-rule="nonzero" clip-rule="nonzero" viewBox="0 0 5800 5800" xmlns:xlink="http://www.w3.org/1999/xlink">
	<title>easel icon</title>
	<desc>easel icon from the IconExperience.com I-Collection. Copyright by INCORS GmbH (www.incors.com).</desc>
	<path id="curve0"  d="M1500 3900l2800 0 0 200 -2800 0 0 -200zm1100 -2900l600 0 0 100c0,110 -90,200 -200,200l-200 0c-110,0 -200,-90 -200,-200l0 -100zm-777 3900l977 0 0 -600 200 0 0 600 977 0 -188 -600 209 0 375 1200 -209 0 -125 -400 -2278 0 -125 400 -209 0 375 -1200 209 0 -188 600zm-323 -1200l0 -2600 900 0c0,73 20,141 54,200l-754 0 0 2400 -200 0zm2600 0l0 -2400 -754 0c34,-59 54,-127 54,-200l900 0 0 2600 -200 0zm-1300 -2900l0 -700 200 0 0 700 -200 0z"/>
</svg>