<?xml version="1.0" encoding="UTF-8"?>
<!DOCTYPE svg PUBLIC "-//W3C//DTD SVG 1.1//EN" "http://www.w3.org/Graphics/SVG/1.1/DTD/svg11.dtd">
<svg xmlns="http://www.w3.org/2000/svg" xml:space="preserve" width="580px" height="580px" shape-rendering="geometricPrecision" text-rendering="geometricPrecision" image-rendering="optimizeQuality" fill-rule="nonzero" clip-rule="nonzero" viewBox="0 0 5800 5800" xmlns:xlink="http://www.w3.org/1999/xlink">
	<title>easel_empty icon</title>
	<desc>easel_empty icon from the IconExperience.com I-Collection. Copyright by INCORS GmbH (www.incors.com).</desc>
	<path id="curve0"  d="M1500 3850l2800 0 0 300 -2800 0 0 -300zm1100 -2850l600 0 0 100c0,110 -90,200 -200,200l-200 0c-110,0 -200,-90 -200,-200l0 -100zm-709 3850l859 0 0 -500 300 0 0 500 859 0 -156 -500 313 0 360 1150 -314 0 -109 -350 -2205 0 -110 350 -314 0 360 -1150 314 0 -157 500zm859 -1200l0 -1548 -484 1548 -314 0 683 -2185c51,22 106,35 165,35l200 0c59,0 114,-13 165,-35l683 2185 -314 0 -484 -1548 0 1548 -300 0zm0 -2850l0 -700 300 0 0 700 -300 0z"/>
</svg>