<?xml version="1.0" encoding="UTF-8"?>
<!DOCTYPE svg PUBLIC "-//W3C//DTD SVG 1.1//EN" "http://www.w3.org/Graphics/SVG/1.1/DTD/svg11.dtd">
<svg xmlns="http://www.w3.org/2000/svg" xml:space="preserve" width="580px" height="580px" shape-rendering="geometricPrecision" text-rendering="geometricPrecision" image-rendering="optimizeQuality" fill-rule="nonzero" clip-rule="nonzero" viewBox="0 0 5800 5800" xmlns:xlink="http://www.w3.org/1999/xlink">
	<title>edit icon</title>
	<desc>edit icon from the IconExperience.com I-Collection. Copyright by INCORS GmbH (www.incors.com).</desc>
		<path id="curve29"  d="M1100 1500l0 200 2800 0 0 -200 -2800 0zm0 800l0 200 2030 0 -600 600 -1430 0 0 200 1293 0 -225 600 -1068 0 0 200 993 0 -74 195c-58,155 21,328 176,386 68,25 142,25 210,0l1033 -388c40,-15 77,-38 107,-69l125 -124 230 0 0 -200 -30 0 630 -630 0 2230 -4000 0 0 -5000 4000 0 0 630 -1170 1170 -2230 0zm0 2400l0 200 2800 0 0 -200 -2800 0zm3001 -3875l0 -527c0,-55 -45,-100 -100,-100 -55,0 -100,45 -100,100l0 527c-62,35 -100,101 -100,173 0,110 90,200 200,200 111,0 200,-90 200,-200 0,-72 -38,-138 -100,-173zm-3200 -527l0 527c-62,35 -100,101 -100,173 0,110 90,200 200,200 111,0 200,-90 200,-200 0,-72 -38,-138 -100,-173l0 -527c0,-55 -45,-100 -100,-100 -55,0 -100,45 -100,100zm600 0l0 527c-62,35 -100,101 -100,173 0,110 90,200 200,200 111,0 200,-90 200,-200 0,-72 -38,-138 -100,-173l0 -527c0,-55 -45,-100 -100,-100 -55,0 -100,45 -100,100zm600 0l0 527c-62,35 -100,101 -100,173 0,110 90,200 200,200 111,0 200,-90 200,-200 0,-72 -38,-138 -100,-173l0 -527c0,-55 -45,-100 -100,-100 -55,0 -100,45 -100,100zm600 0l0 527c-62,35 -100,101 -100,173 0,110 90,200 200,200 111,0 200,-90 200,-200 0,-72 -38,-138 -100,-173l0 -527c0,-55 -45,-100 -100,-100 -55,0 -100,45 -100,100zm600 0l0 527c-62,35 -100,101 -100,173 0,110 90,200 200,200 111,0 200,-90 200,-200 0,-72 -38,-138 -100,-173l0 -527c0,-55 -45,-100 -100,-100 -55,0 -100,45 -100,100z"/>
	<path id="curve28"  d="M2773 3423l-221 588 137 137 588 -221 -504 -504zm2052 -2194l646 646c39,39 39,102 0,142l-2067 2066c-10,10 -22,18 -36,23l-1033 387c-22,8 -46,9 -70,0 -51,-19 -78,-76 -58,-128l384 -1025c5,-16 13,-31 26,-44l2066 -2067c39,-39 103,-39 142,0z"/>
</svg>