<?xml version="1.0" encoding="UTF-8"?>
<!DOCTYPE svg PUBLIC "-//W3C//DTD SVG 1.1//EN" "http://www.w3.org/Graphics/SVG/1.1/DTD/svg11.dtd">
<svg xmlns="http://www.w3.org/2000/svg" xml:space="preserve" width="580px" height="580px" shape-rendering="geometricPrecision" text-rendering="geometricPrecision" image-rendering="optimizeQuality" fill-rule="nonzero" clip-rule="nonzero" viewBox="0 0 5800 5800" xmlns:xlink="http://www.w3.org/1999/xlink">
	<title>electric_iron icon</title>
	<desc>electric_iron icon from the IconExperience.com I-Collection. Copyright by INCORS GmbH (www.incors.com).</desc>
		<path id="curve28"  d="M2545 1041l1659 59c162,6 296,135 296,300l0 200c0,165 -135,300 -300,300l-1300 0c-220,0 -400,180 -400,400l0 200 -1440 0 554 -950c195,-335 544,-523 931,-509zm255 1259l900 0c55,0 100,45 100,100l0 128c-133,-19 -267,-28 -400,-28l-700 0 0 -100c0,-55 45,-100 100,-100zm-2500 2000l5200 0 0 200 -5200 0 0 -200zm3100 -1600c546,0 1046,167 1419,409 418,272 681,644 681,991l-5200 0 0 -162c0,-111 28,-212 86,-308l558 -930 2456 0z"/>
</svg>