<?xml version="1.0" encoding="UTF-8"?>
<!DOCTYPE svg PUBLIC "-//W3C//DTD SVG 1.1//EN" "http://www.w3.org/Graphics/SVG/1.1/DTD/svg11.dtd">
<svg xmlns="http://www.w3.org/2000/svg" xml:space="preserve" width="580px" height="580px" shape-rendering="geometricPrecision" text-rendering="geometricPrecision" image-rendering="optimizeQuality" fill-rule="nonzero" clip-rule="nonzero" viewBox="0 0 5800 5800" xmlns:xlink="http://www.w3.org/1999/xlink">
	<title>electric_iron icon</title>
	<desc>electric_iron icon from the IconExperience.com I-Collection. Copyright by INCORS GmbH (www.incors.com).</desc>
		<path id="curve28" d="M2800 2300l900 0c55,0 100,45 100,100l0 330c388,58 739,197 1019,379 418,272 681,644 681,991l0 100 -5200 0 0 -262c0,-111 28,-212 86,-308l1228 -2080c195,-335 544,-523 931,-509l1659 59c162,6 296,135 296,300l0 200c0,165 -135,300 -300,300l-1300 0c-220,0 -400,180 -400,400l0 400 200 0 0 -300c0,-55 45,-100 100,-100zm-2500 2000l5200 0 0 200 -5200 0 0 -200zm3100 -1400c-781,0 -1562,0 -2344,0l-499 832c-58,97 -57,163 -57,268l4791 0c-47,-251 -261,-516 -581,-724 -343,-223 -804,-376 -1310,-376zm796 -1600l-1658 -60c-313,-11 -594,139 -752,410l-612 1050 1126 0 0 -400c0,-330 270,-600 600,-600l1300 0c55,0 100,-45 100,-100l0 -200c0,-57 -48,-98 -104,-100zm-596 1200l-700 0 0 200 500 0 200 0 0 -200z"/>
</svg>