<?xml version="1.0" encoding="UTF-8"?>
<!DOCTYPE svg PUBLIC "-//W3C//DTD SVG 1.1//EN" "http://www.w3.org/Graphics/SVG/1.1/DTD/svg11.dtd">
<svg xmlns="http://www.w3.org/2000/svg" xml:space="preserve" width="580px" height="580px" shape-rendering="geometricPrecision" text-rendering="geometricPrecision" image-rendering="optimizeQuality" fill-rule="nonzero" clip-rule="nonzero" viewBox="0 0 5800 5800" xmlns:xlink="http://www.w3.org/1999/xlink">
	<title>elements_hierarchy icon</title>
	<desc>elements_hierarchy icon from the IconExperience.com I-Collection. Copyright by INCORS GmbH (www.incors.com).</desc>
		<path id="curve28"  d="M1000 3300l0 -600 1800 0 0 -400 -600 0c-55,0 -100,-45 -100,-100l0 -1000c0,-55 45,-100 100,-100l1400 0c55,0 100,45 100,100l0 1000c0,55 -45,100 -100,100l-600 0 0 400 1800 0 0 600 600 0c55,0 100,45 100,100l0 1000c0,55 -45,100 -100,100l-1400 0c-55,0 -100,-45 -100,-100l0 -1000c0,-55 45,-100 100,-100l600 0 0 -400 -1600 0 0 400 600 0c55,0 100,45 100,100l0 1000c0,55 -45,100 -100,100l-1400 0c-55,0 -100,-45 -100,-100l0 -1000c0,-55 45,-100 100,-100l600 0 0 -400 -1600 0 0 400 600 0c55,0 100,45 100,100l0 1000c0,55 -45,100 -100,100l-1400 0c-55,0 -100,-45 -100,-100l0 -1000c0,-55 45,-100 100,-100l600 0zm700 200l-1200 0 0 800 1200 0 0 -800zm3600 0l-1200 0 0 800 1200 0 0 -800zm-1800 0l-1200 0 0 800 1200 0 0 -800zm0 -2200l-1200 0 0 800 1200 0 0 -800z"/>
</svg>