<?xml version="1.0" encoding="UTF-8"?>
<!DOCTYPE svg PUBLIC "-//W3C//DTD SVG 1.1//EN" "http://www.w3.org/Graphics/SVG/1.1/DTD/svg11.dtd">
<svg xmlns="http://www.w3.org/2000/svg" xml:space="preserve" width="580px" height="580px" shape-rendering="geometricPrecision" text-rendering="geometricPrecision" image-rendering="optimizeQuality" fill-rule="nonzero" clip-rule="nonzero" viewBox="0 0 5800 5800" xmlns:xlink="http://www.w3.org/1999/xlink">
	<title>elements_tree icon</title>
	<desc>elements_tree icon from the IconExperience.com I-Collection. Copyright by INCORS GmbH (www.incors.com).</desc>
		<path id="curve28" d="M2100 2900l0 1600 600 0 0 -500c0,-55 45,-100 100,-100l1600 0c55,0 100,45 100,100l0 1200c0,55 -45,100 -100,100l-1600 0c-55,0 -100,-45 -100,-100l0 -500 -800 0c0,-1000 0,-2000 0,-3000l-700 0c-55,0 -100,-45 -100,-100l0 -1200c0,-55 45,-100 100,-100l1600 0c55,0 100,45 100,100l0 1200c0,55 -45,100 -100,100l-700 0 0 1000 600 0 0 -500c0,-55 45,-100 100,-100l1600 0c55,0 100,45 100,100l0 1200c0,55 -45,100 -100,100l-1600 0c-55,0 -100,-45 -100,-100l0 -500 -600 0zm600 -2400l-1400 0 0 1000 1400 0 0 -1000zm1600 1800l-1400 0 0 1000 1400 0 0 -1000zm0 1800l-1400 0 0 1000 1400 0 0 -1000z"/>
</svg>