<?xml version="1.0" encoding="UTF-8"?>
<!DOCTYPE svg PUBLIC "-//W3C//DTD SVG 1.1//EN" "http://www.w3.org/Graphics/SVG/1.1/DTD/svg11.dtd">
<svg xmlns="http://www.w3.org/2000/svg" xml:space="preserve" width="580px" height="580px" shape-rendering="geometricPrecision" text-rendering="geometricPrecision" image-rendering="optimizeQuality" fill-rule="nonzero" clip-rule="nonzero" viewBox="0 0 5800 5800" xmlns:xlink="http://www.w3.org/1999/xlink">
	<title>elements4 icon</title>
	<desc>elements4 icon from the IconExperience.com I-Collection. Copyright by INCORS GmbH (www.incors.com).</desc>
		<path id="curve28"  d="M400 900l2200 0c55,0 100,45 100,100l0 1600c0,55 -45,100 -100,100l-2200 0c-55,0 -100,-45 -100,-100l0 -1600c0,-55 45,-100 100,-100zm0 2200l2200 0c55,0 100,45 100,100l0 1600c0,55 -45,100 -100,100l-2200 0c-55,0 -100,-45 -100,-100l0 -1600c0,-55 45,-100 100,-100zm2800 -2200l2200 0c55,0 100,45 100,100l0 1600c0,55 -45,100 -100,100l-2200 0c-55,0 -100,-45 -100,-100l0 -1600c0,-55 45,-100 100,-100zm0 2200l2200 0c55,0 100,45 100,100l0 1600c0,55 -45,100 -100,100l-2200 0c-55,0 -100,-45 -100,-100l0 -1600c0,-55 45,-100 100,-100z"/>
</svg>