<?xml version="1.0" encoding="UTF-8"?>
<!DOCTYPE svg PUBLIC "-//W3C//DTD SVG 1.1//EN" "http://www.w3.org/Graphics/SVG/1.1/DTD/svg11.dtd">
<svg xmlns="http://www.w3.org/2000/svg" xml:space="preserve" width="580px" height="580px" shape-rendering="geometricPrecision" text-rendering="geometricPrecision" image-rendering="optimizeQuality" fill-rule="nonzero" clip-rule="nonzero" viewBox="0 0 5800 5800" xmlns:xlink="http://www.w3.org/1999/xlink">
	<title>elements_branch icon</title>
	<desc>elements_branch icon from the IconExperience.com I-Collection. Copyright by INCORS GmbH (www.incors.com).</desc>
		<path id="curve28" d="M3400 3300l2000 0c55,0 100,45 100,100l0 1400c0,55 -45,100 -100,100l-2000 0c-55,0 -100,-45 -100,-100l0 -664 -800 -960 0 424c0,55 -45,100 -100,100l-2000 0c-55,0 -100,-45 -100,-100l0 -1400c0,-55 45,-100 100,-100l2000 0c55,0 100,45 100,100l0 424 800 -960 0 -664c0,-55 45,-100 100,-100l2000 0c55,0 100,45 100,100l0 1400c0,55 -45,100 -100,100l-2000 0c-55,0 -100,-45 -100,-100l0 -424 -770 924 770 924 0 -424c0,-55 45,-100 100,-100zm-1100 -1000l-1800 0 0 1200 1800 0 0 -1200zm3000 -1200l-1800 0 0 1200 1800 0 0 -1200zm0 2400l-1800 0 0 1200 1800 0 0 -1200z"/>
</svg>