<?xml version="1.0" encoding="UTF-8"?>
<!DOCTYPE svg PUBLIC "-//W3C//DTD SVG 1.1//EN" "http://www.w3.org/Graphics/SVG/1.1/DTD/svg11.dtd">
<svg xmlns="http://www.w3.org/2000/svg" xml:space="preserve" width="580px" height="580px" shape-rendering="geometricPrecision" text-rendering="geometricPrecision" image-rendering="optimizeQuality" fill-rule="nonzero" clip-rule="nonzero" viewBox="0 0 5800 5800" xmlns:xlink="http://www.w3.org/1999/xlink">
	<title>elements_selection icon</title>
	<desc>elements_selection icon from the IconExperience.com I-Collection. Copyright by INCORS GmbH (www.incors.com).</desc>
		<path id="curve28"  d="M500 500l4800 0 0 4800 -4800 0 0 -4800zm900 2000c-55,0 -100,45 -100,100l0 1600c0,55 45,100 100,100l2200 0c55,0 100,-45 100,-100l0 -1600c0,-55 -45,-100 -100,-100l-2200 0zm2100 200l0 1400 -2000 0 0 -1400 2000 0zm-1300 -1200c-55,0 -100,45 -100,100l0 700 200 0 0 -600 2000 0 0 1400 -400 0 0 200 500 0c55,0 100,-45 100,-100l0 -1600c0,-55 -45,-100 -100,-100l-2200 0zm-1500 -400l200 0 0 -200 200 0 0 -200 -400 0 0 400zm800 -400l0 200 400 0 0 -200 -400 0zm800 0l0 200 400 0 0 -200 -400 0zm800 0l0 200 400 0 0 -200 -400 0zm800 0l0 200 400 0 0 -200 -400 0zm800 0l0 200 200 0 0 200 200 0 0 -400 -400 0zm400 800l-200 0 0 400 200 0 0 -400zm0 800l-200 0 0 400 200 0 0 -400zm0 800l-200 0 0 400 200 0 0 -400zm0 800l-200 0 0 400 200 0 0 -400zm0 800l-200 0 0 200 -200 0 0 200 400 0 0 -400zm-800 400l0 -200 -400 0 0 200 400 0zm-800 0l0 -200 -400 0 0 200 400 0zm-800 0l0 -200 -400 0 0 200 400 0zm-800 0l0 -200 -400 0 0 200 400 0zm-800 0l0 -200 -200 0 0 -200 -200 0 0 400 400 0zm-400 -800l200 0 0 -400 -200 0 0 400zm0 -800l200 0 0 -400 -200 0 0 400zm0 -800l200 0 0 -400 -200 0 0 400zm0 -800l200 0 0 -400 -200 0 0 400z"/>
</svg>