<?xml version="1.0" encoding="UTF-8"?>
<!DOCTYPE svg PUBLIC "-//W3C//DTD SVG 1.1//EN" "http://www.w3.org/Graphics/SVG/1.1/DTD/svg11.dtd">
<svg xmlns="http://www.w3.org/2000/svg" xml:space="preserve" width="580px" height="580px" shape-rendering="geometricPrecision" text-rendering="geometricPrecision" image-rendering="optimizeQuality" fill-rule="nonzero" clip-rule="nonzero" viewBox="0 0 5800 5800" xmlns:xlink="http://www.w3.org/1999/xlink">
	<title>emergency_stop_button icon</title>
	<desc>emergency_stop_button icon from the IconExperience.com I-Collection. Copyright by INCORS GmbH (www.incors.com).</desc>
		<path id="curve28" d="M3700 1900l0 -200 -1600 0 0 200c533,0 1067,0 1600,0zm-2400 -491c0,-202 189,-356 487,-457 288,-98 689,-152 1113,-152 426,0 826,53 1114,151 298,101 486,256 486,458l0 291 -600 0 0 400 -200 0 0 400 1300 0c165,0 300,135 300,300l0 2200c0,165 -135,300 -300,300l-4200 0c-165,0 -300,-135 -300,-300l0 -2200c0,-165 135,-300 300,-300l1300 0 0 -400 -200 0 0 -400 -600 0 0 -291zm200 0l0 91c933,0 1867,0 2800,0l0 -91c0,-103 -135,-196 -350,-269 -267,-90 -644,-140 -1050,-140 -403,0 -781,50 -1049,141 -215,73 -351,165 -351,268zm3500 1291c-1400,0 -2800,0 -4200,0 -55,0 -100,45 -100,100l0 700 4400 0 0 -700c0,-55 -45,-100 -100,-100zm-4300 1000l0 1300c0,55 45,100 100,100l4200 0c55,0 100,-45 100,-100l0 -1300 -4400 0zm2800 -1600l-1200 0 0 400 1200 0 0 -400z"/>
</svg>