<?xml version="1.0" encoding="UTF-8"?>
<!DOCTYPE svg PUBLIC "-//W3C//DTD SVG 1.1//EN" "http://www.w3.org/Graphics/SVG/1.1/DTD/svg11.dtd">
<svg xmlns="http://www.w3.org/2000/svg" xml:space="preserve" width="580px" height="580px" shape-rendering="geometricPrecision" text-rendering="geometricPrecision" image-rendering="optimizeQuality" fill-rule="nonzero" clip-rule="nonzero" viewBox="0 0 5800 5800" xmlns:xlink="http://www.w3.org/1999/xlink">
	<title>emoticon_kiss icon</title>
	<desc>emoticon_kiss icon from the IconExperience.com I-Collection. Copyright by INCORS GmbH (www.incors.com).</desc>
		<path id="curve28"  d="M2900 300c1436,0 2600,1164 2600,2600 0,1436 -1164,2600 -2600,2600 -1436,0 -2600,-1164 -2600,-2600 0,-1436 1164,-2600 2600,-2600zm0 4200c-308,0 -385,-169 -483,-383 -29,-63 -60,-130 -102,-198l-49 -78 75 -55c66,-48 86,-74 112,-108 20,-28 43,-59 82,-100 110,-117 205,-83 301,-49 24,9 48,17 64,17 16,0 40,-8 64,-17 96,-34 191,-68 301,49 39,41 62,72 82,100 26,34 46,60 112,108l75 55 -49 78c-42,68 -73,135 -102,198 -98,214 -175,383 -483,383zm-302 -466c68,149 122,266 302,266 180,0 234,-117 302,-266 21,-45 43,-94 69,-143 -38,-34 -58,-61 -83,-94 -16,-22 -35,-47 -68,-82 -21,-22 -55,-10 -89,2 -41,15 -82,29 -131,29 -49,0 -90,-14 -131,-29 -34,-12 -68,-24 -89,-2 -33,35 -52,60 -68,82 -25,33 -45,60 -83,94 26,49 48,98 69,143zm1102 -2134c221,0 400,179 400,400 0,221 -179,400 -400,400 -220,0 -400,-180 -400,-400 0,-221 179,-400 400,-400zm-1600 0c221,0 400,179 400,400 0,220 -180,400 -400,400 -221,0 -400,-179 -400,-400 0,-221 179,-400 400,-400zm800 -1400c-1326,0 -2400,1074 -2400,2400 0,1326 1074,2400 2400,2400 1326,0 2400,-1074 2400,-2400 0,-1326 -1074,-2400 -2400,-2400z"/>
</svg>