<?xml version="1.0" encoding="UTF-8"?>
<!DOCTYPE svg PUBLIC "-//W3C//DTD SVG 1.1//EN" "http://www.w3.org/Graphics/SVG/1.1/DTD/svg11.dtd">
<svg xmlns="http://www.w3.org/2000/svg" xml:space="preserve" width="580px" height="580px" shape-rendering="geometricPrecision" text-rendering="geometricPrecision" image-rendering="optimizeQuality" fill-rule="nonzero" clip-rule="nonzero" viewBox="0 0 5800 5800" xmlns:xlink="http://www.w3.org/1999/xlink">
	<title>emoticon_blink icon</title>
	<desc>emoticon_blink icon from the IconExperience.com I-Collection. Copyright by INCORS GmbH (www.incors.com).</desc>
		<path id="curve28"  d="M2900 300c1436,0 2600,1164 2600,2600 0,1436 -1164,2600 -2600,2600 -1436,0 -2600,-1164 -2600,-2600 0,-1436 1164,-2600 2600,-2600zm800 1600c-221,0 -400,179 -400,400 0,220 180,400 400,400 221,0 400,-179 400,-400 0,-221 -179,-400 -400,-400zm686 1826l-174 -97c-266,477 -766,771 -1312,771 -546,0 -1046,-294 -1312,-771l-174 97c300,539 868,874 1486,874 618,0 1186,-335 1486,-874zm-2686 -1826c-55,0 -100,45 -100,100l0 100c0,31 15,62 42,81l694 496c64,53 164,9 164,-77l0 -500c0,-49 -36,-92 -86,-99l-714 -101z"/>
</svg>