<?xml version="1.0" encoding="UTF-8"?>
<!DOCTYPE svg PUBLIC "-//W3C//DTD SVG 1.1//EN" "http://www.w3.org/Graphics/SVG/1.1/DTD/svg11.dtd">
<svg xmlns="http://www.w3.org/2000/svg" xml:space="preserve" width="580px" height="580px" shape-rendering="geometricPrecision" text-rendering="geometricPrecision" image-rendering="optimizeQuality" fill-rule="nonzero" clip-rule="nonzero" viewBox="0 0 5800 5800" xmlns:xlink="http://www.w3.org/1999/xlink">
	<title>emoticon_clown icon</title>
	<desc>emoticon_clown icon from the IconExperience.com I-Collection. Copyright by INCORS GmbH (www.incors.com).</desc>
		<path id="curve28"  d="M2900 300c1436,0 2600,1164 2600,2600 0,1436 -1164,2600 -2600,2600 -1436,0 -2600,-1164 -2600,-2600 0,-1436 1164,-2600 2600,-2600zm0 2000c-442,0 -800,358 -800,800 0,442 358,800 800,800 442,0 800,-358 800,-800 0,-442 -358,-800 -800,-800zm1486 1426l-174 -97c-266,477 -766,771 -1312,771 -546,0 -1046,-294 -1312,-771l-174 97c300,539 868,874 1486,874 618,0 1186,-335 1486,-874zm-486 -2009l0 -217 -200 0 0 217c-85,30 -153,98 -183,183l-217 0 0 200 217 0c31,85 98,153 183,183l0 317 200 0 0 -317c85,-30 153,-98 183,-183l217 0 0 -200 -217 0c-30,-85 -98,-153 -183,-183zm-1800 0l0 -217 -200 0 0 217c-85,30 -153,98 -183,183l-217 0 0 200 217 0c30,85 98,153 183,183l0 317 200 0 0 -317c85,-30 152,-98 183,-183l217 0 0 -200 -217 0c-30,-85 -98,-153 -183,-183z"/>
</svg>