<?xml version="1.0" encoding="UTF-8"?>
<!DOCTYPE svg PUBLIC "-//W3C//DTD SVG 1.1//EN" "http://www.w3.org/Graphics/SVG/1.1/DTD/svg11.dtd">
<svg xmlns="http://www.w3.org/2000/svg" xml:space="preserve" width="580px" height="580px" shape-rendering="geometricPrecision" text-rendering="geometricPrecision" image-rendering="optimizeQuality" fill-rule="nonzero" clip-rule="nonzero" viewBox="0 0 5800 5800" xmlns:xlink="http://www.w3.org/1999/xlink">
	<title>emoticon_surprised icon</title>
	<desc>emoticon_surprised icon from the IconExperience.com I-Collection. Copyright by INCORS GmbH (www.incors.com).</desc>
		<path id="curve28"  d="M2900 300c1436,0 2600,1164 2600,2600 0,1436 -1164,2600 -2600,2600 -1436,0 -2600,-1164 -2600,-2600 0,-1436 1164,-2600 2600,-2600zm-692 4307c-190,-126 -308,-306 -308,-507 0,-201 118,-381 308,-507 179,-119 424,-193 692,-193 268,0 513,74 692,193 190,126 308,306 308,507 0,201 -118,381 -308,507 -179,119 -424,193 -692,193 -268,0 -513,-74 -692,-193zm111 -166c147,98 353,159 581,159 228,0 434,-61 581,-159 135,-90 219,-211 219,-341 0,-130 -84,-251 -219,-341 -147,-98 -353,-159 -581,-159 -228,0 -434,61 -581,159 -135,90 -219,211 -219,341 0,130 84,251 219,341zm1381 -2541c221,0 400,179 400,400 0,221 -179,400 -400,400 -220,0 -400,-180 -400,-400 0,-221 179,-400 400,-400zm-1600 0c221,0 400,179 400,400 0,220 -180,400 -400,400 -110,0 -210,-45 -283,-117 -72,-73 -117,-173 -117,-283 0,-221 179,-400 400,-400zm800 -1400c-1326,0 -2400,1074 -2400,2400 0,1326 1074,2400 2400,2400 1326,0 2400,-1074 2400,-2400 0,-1326 -1074,-2400 -2400,-2400z"/>
</svg>