<?xml version="1.0" encoding="UTF-8"?>
<!DOCTYPE svg PUBLIC "-//W3C//DTD SVG 1.1//EN" "http://www.w3.org/Graphics/SVG/1.1/DTD/svg11.dtd">
<svg xmlns="http://www.w3.org/2000/svg" xml:space="preserve" width="580px" height="580px" shape-rendering="geometricPrecision" text-rendering="geometricPrecision" image-rendering="optimizeQuality" fill-rule="nonzero" clip-rule="nonzero" viewBox="0 0 5800 5800" xmlns:xlink="http://www.w3.org/1999/xlink">
	<title>emoticon_cry icon</title>
	<desc>emoticon_cry icon from the IconExperience.com I-Collection. Copyright by INCORS GmbH (www.incors.com).</desc>
		<path id="curve28"  d="M3820 2802c-61,-13 -120,34 -120,98l0 100c0,31 15,62 42,81l694 496c17,14 40,23 64,23 55,0 100,-45 100,-100l0 -500c0,-49 -36,-92 -86,-99l-694 -99zm-920 -2502c1436,0 2600,1164 2600,2600 0,1436 -1164,2600 -2600,2600 -1436,0 -2600,-1164 -2600,-2600 0,-1436 1164,-2600 2600,-2600zm-800 1600c-221,0 -400,179 -400,400 0,221 179,400 400,400 220,0 400,-180 400,-400 0,-221 -179,-400 -400,-400zm1600 0c-221,0 -400,179 -400,400 0,221 180,400 400,400 221,0 400,-179 400,-400 0,-221 -179,-400 -400,-400zm512 2571l174 -97c-300,-539 -868,-874 -1486,-874 -618,0 -1186,335 -1486,874l174 97c266,-477 766,-771 1312,-771 546,0 1046,294 1312,771z"/>
</svg>