<?xml version="1.0" encoding="UTF-8"?>
<!DOCTYPE svg PUBLIC "-//W3C//DTD SVG 1.1//EN" "http://www.w3.org/Graphics/SVG/1.1/DTD/svg11.dtd">
<svg xmlns="http://www.w3.org/2000/svg" xml:space="preserve" width="580px" height="580px" shape-rendering="geometricPrecision" text-rendering="geometricPrecision" image-rendering="optimizeQuality" fill-rule="nonzero" clip-rule="nonzero" viewBox="0 0 5800 5800" xmlns:xlink="http://www.w3.org/1999/xlink">
	<title>emoticon_kiss icon</title>
	<desc>emoticon_kiss icon from the IconExperience.com I-Collection. Copyright by INCORS GmbH (www.incors.com).</desc>
		<path id="curve28"  d="M2900 300c1436,0 2600,1164 2600,2600 0,1436 -1164,2600 -2600,2600 -1436,0 -2600,-1164 -2600,-2600 0,-1436 1164,-2600 2600,-2600zm-800 1600c-221,0 -400,179 -400,400 0,221 179,400 400,400 220,0 400,-180 400,-400 0,-221 -179,-400 -400,-400zm1600 0c-221,0 -400,179 -400,400 0,220 180,400 400,400 221,0 400,-179 400,-400 0,-221 -179,-400 -400,-400zm-800 2600c308,0 385,-169 483,-383 29,-63 60,-130 102,-198l49 -78 -75 -55c-91,-66 -121,-131 -194,-208 -110,-117 -205,-83 -301,-49 -63,22 -65,22 -128,0 -96,-34 -191,-68 -301,49 -73,77 -103,142 -194,208l-75 55 49 78c42,68 73,135 102,198 98,214 175,383 483,383zm-302 -466c-21,-45 -43,-94 -69,-143 59,-53 98,-119 151,-176 21,-22 55,-10 89,2 109,39 153,39 262,0 34,-12 68,-24 89,-2 53,57 92,123 151,176 -26,49 -48,98 -69,143 -68,149 -122,266 -302,266 -180,0 -234,-117 -302,-266z"/>
</svg>