<?xml version="1.0" encoding="UTF-8"?>
<!DOCTYPE svg PUBLIC "-//W3C//DTD SVG 1.1//EN" "http://www.w3.org/Graphics/SVG/1.1/DTD/svg11.dtd">
<svg xmlns="http://www.w3.org/2000/svg" xml:space="preserve" width="580px" height="580px" shape-rendering="geometricPrecision" text-rendering="geometricPrecision" image-rendering="optimizeQuality" fill-rule="nonzero" clip-rule="nonzero" viewBox="0 0 5800 5800" xmlns:xlink="http://www.w3.org/1999/xlink">
	<title>emoticon_angry icon</title>
	<desc>emoticon_angry icon from the IconExperience.com I-Collection. Copyright by INCORS GmbH (www.incors.com).</desc>
		<path id="curve28"  d="M2900 300c1436,0 2600,1164 2600,2600 0,1436 -1164,2600 -2600,2600 -1436,0 -2600,-1164 -2600,-2600 0,-1436 1164,-2600 2600,-2600zm-958 2368c-146,-63 -242,-208 -242,-368 0,-160 96,-305 242,-368l-287 -143 90 -178 1155 578 1155 -578 90 178 -287 143c146,63 242,208 242,368 0,160 -96,305 -242,368l287 143 -90 178 -1155 -578 -1155 578 -90 -178 287 -143zm2270 1803c-266,-477 -766,-771 -1312,-771 -546,0 -1046,294 -1312,771l-174 -97c300,-539 868,-874 1486,-874 618,0 1186,335 1486,874l-174 97zm-1312 -3971c-1326,0 -2400,1074 -2400,2400 0,1326 1074,2400 2400,2400 1326,0 2400,-1074 2400,-2400 0,-1326 -1074,-2400 -2400,-2400z"/>
</svg>