<?xml version="1.0" encoding="UTF-8"?>
<!DOCTYPE svg PUBLIC "-//W3C//DTD SVG 1.1//EN" "http://www.w3.org/Graphics/SVG/1.1/DTD/svg11.dtd">
<svg xmlns="http://www.w3.org/2000/svg" xml:space="preserve" width="580px" height="580px" shape-rendering="geometricPrecision" text-rendering="geometricPrecision" image-rendering="optimizeQuality" fill-rule="nonzero" clip-rule="nonzero" viewBox="0 0 5800 5800" xmlns:xlink="http://www.w3.org/1999/xlink">
	<title>emoticon_cool icon</title>
	<desc>emoticon_cool icon from the IconExperience.com I-Collection. Copyright by INCORS GmbH (www.incors.com).</desc>
		<path id="curve28"  d="M2900 300c718,0 1368,291 1838,762 471,470 762,1120 762,1838 0,1436 -1164,2600 -2600,2600 -1436,0 -2600,-1164 -2600,-2600 0,-718 291,-1368 762,-1838 470,-471 1120,-762 1838,-762zm1486 3426l-174 -97c-266,477 -766,771 -1312,771 -546,0 -1046,-294 -1312,-771l-174 97c300,539 868,874 1486,874 618,0 1186,-335 1486,-874zm-2886 -2026l0 700c0,387 336,700 750,700 278,0 520,-141 650,-351 130,210 372,351 650,351 414,0 750,-313 750,-700l0 -700c-933,0 -1867,0 -2800,0z"/>
</svg>