<?xml version="1.0" encoding="UTF-8"?>
<!DOCTYPE svg PUBLIC "-//W3C//DTD SVG 1.1//EN" "http://www.w3.org/Graphics/SVG/1.1/DTD/svg11.dtd">
<svg xmlns="http://www.w3.org/2000/svg" xml:space="preserve" width="580px" height="580px" shape-rendering="geometricPrecision" text-rendering="geometricPrecision" image-rendering="optimizeQuality" fill-rule="nonzero" clip-rule="nonzero" viewBox="0 0 5800 5800" xmlns:xlink="http://www.w3.org/1999/xlink">
	<title>engineer icon</title>
	<desc>engineer icon from the IconExperience.com I-Collection. Copyright by INCORS GmbH (www.incors.com).</desc>
		<path id="curve29"  d="M3680 3884l-383 479 -193 -259c-40,37 -80,72 -104,96 178,356 198,791 200,1093 358,-14 805,-56 1145,-145 264,-68 455,-157 455,-268 0,-260 -101,-462 -286,-641 -96,-93 -363,-178 -508,-222 -110,-33 -204,-61 -326,-133zm-1080 1409c2,-302 22,-737 200,-1093l-100 -100 -197 263 -383 -479c-122,72 -216,100 -326,133 -145,44 -412,129 -508,222 -185,179 -286,381 -286,641 0,111 191,200 455,268 340,89 787,131 1145,145zm-330 -1540l227 284 144 -191c-122,-29 -243,-80 -342,-158 -7,22 -17,44 -29,65zm889 93l144 191 226 -282c-13,-21 -23,-43 -30,-66 -99,77 -218,128 -340,157zm1020 -1601c11,190 -66,386 -230,489 -5,17 -7,27 -10,37 -49,191 -102,394 -240,549 -1,40 -4,79 -8,117 -9,88 -20,207 62,258 115,72 205,99 310,131 184,55 462,146 590,270 223,217 347,470 347,784 0,225 -254,370 -605,461 -465,121 -1113,159 -1495,159 -382,0 -1030,-38 -1495,-159 -351,-91 -605,-236 -605,-461 0,-314 124,-567 347,-784 128,-124 406,-215 590,-270 122,-37 208,-72 313,-133 80,-45 69,-158 59,-273 -3,-33 -6,-67 -8,-100 -137,-153 -191,-360 -242,-556 -1,-6 -3,-14 -8,-30 -163,-103 -241,-300 -229,-488l265 265c54,56 132,89 213,89l1600 0c80,0 156,-32 212,-88l267 -267z"/>
	<path id="curve28"  d="M2702 230c64,-20 131,-30 198,-30 68,0 137,10 203,31l-3 869 200 0 2 -753c265,66 486,202 644,408 158,206 250,480 254,822l89 178c20,40 11,86 -19,115l-499 501c-20,19 -45,29 -71,29l-1600 0c-28,0 -54,-12 -72,-30l-499 -499c-33,-34 -38,-85 -14,-124l85 -170c4,-342 96,-616 254,-822 159,-207 381,-343 648,-409l-2 754 200 0 2 -870z"/>
</svg>