<?xml version="1.0" encoding="UTF-8"?>
<!DOCTYPE svg PUBLIC "-//W3C//DTD SVG 1.1//EN" "http://www.w3.org/Graphics/SVG/1.1/DTD/svg11.dtd">
<svg xmlns="http://www.w3.org/2000/svg" xml:space="preserve" width="580px" height="580px" shape-rendering="geometricPrecision" text-rendering="geometricPrecision" image-rendering="optimizeQuality" fill-rule="nonzero" clip-rule="nonzero" viewBox="0 0 5800 5800" xmlns:xlink="http://www.w3.org/1999/xlink">
	<title>envelope2 icon</title>
	<desc>envelope2 icon from the IconExperience.com I-Collection. Copyright by INCORS GmbH (www.incors.com).</desc>
		<path id="curve28"  d="M4900 300l0 259 -683 682c-40,41 -84,59 -141,59l-2352 0c-57,0 -101,-18 -141,-59l-683 -682 0 -259 4000 0zm0 541l0 4318 -659 -659 -1241 0 0 -3000 1076 0c111,0 204,-39 283,-117l541 -542zm-141 4459l-3755 0 540 -600 2615 0 600 600zm-3859 -183l0 -4276 541 542c77,76 175,117 283,117l1076 0 0 3000 -1344 0 -556 617z"/>
</svg>