<?xml version="1.0" encoding="UTF-8"?>
<!DOCTYPE svg PUBLIC "-//W3C//DTD SVG 1.1//EN" "http://www.w3.org/Graphics/SVG/1.1/DTD/svg11.dtd">
<svg xmlns="http://www.w3.org/2000/svg" xml:space="preserve" width="580px" height="580px" shape-rendering="geometricPrecision" text-rendering="geometricPrecision" image-rendering="optimizeQuality" fill-rule="nonzero" clip-rule="nonzero" viewBox="0 0 5800 5800" xmlns:xlink="http://www.w3.org/1999/xlink">
	<title>envelope2 icon</title>
	<desc>envelope2 icon from the IconExperience.com I-Collection. Copyright by INCORS GmbH (www.incors.com).</desc>
		<path id="curve28" d="M4900 300l0 5000 -4000 0 0 -5000 4000 0zm-1900 1200l0 3000 1241 0 459 459 0 -3918 -341 342c-77,76 -175,117 -283,117l-1076 0zm1559 3600l-400 -400 -2615 0 -360 400 3375 0zm-3459 -205l356 -395 1344 0 0 -3000 -1076 0c-108,0 -206,-41 -283,-117l-341 -342 0 3854zm0 -4136l483 482c40,41 84,59 141,59l2352 0c57,0 101,-18 141,-59l483 -482 0 -259 -3600 0 0 259z"/>
</svg>