<?xml version="1.0" encoding="UTF-8"?>
<!DOCTYPE svg PUBLIC "-//W3C//DTD SVG 1.1//EN" "http://www.w3.org/Graphics/SVG/1.1/DTD/svg11.dtd">
<svg xmlns="http://www.w3.org/2000/svg" xml:space="preserve" width="580px" height="580px" shape-rendering="geometricPrecision" text-rendering="geometricPrecision" image-rendering="optimizeQuality" fill-rule="nonzero" clip-rule="nonzero" viewBox="0 0 5800 5800" xmlns:xlink="http://www.w3.org/1999/xlink">
	<title>environment icon</title>
	<desc>environment icon from the IconExperience.com I-Collection. Copyright by INCORS GmbH (www.incors.com).</desc>
		<path id="curve28"  d="M2900 300c1436,0 2600,1164 2600,2600 0,1436 -1164,2600 -2600,2600 -1436,0 -2600,-1164 -2600,-2600 0,-1436 1164,-2600 2600,-2600zm-1908 3696l753 0c-83,-300 -132,-638 -140,-996l-903 0c16,362 120,700 290,996zm-290 -1196l903 0c8,-358 57,-696 140,-996l-753 0c-170,296 -274,634 -290,996zm420 -1196l684 0c100,-292 251,-594 470,-814 -463,137 -869,424 -1154,814zm2402 -814c219,220 370,522 470,814l684 0c-285,-390 -691,-677 -1154,-814zm1284 1014l-753 0c83,300 132,638 140,996l903 0c-16,-362 -120,-700 -290,-996zm290 1196l-903 0c-8,358 -57,696 -140,996l753 0c170,-296 274,-634 290,-996zm-420 1196l-684 0c-100,292 -251,594 -470,814 463,-137 869,-424 1154,-814zm-2402 814c-219,-220 -370,-522 -470,-814l-684 0c285,390 691,677 1154,814zm624 -4510c-663,0 -1263,269 -1697,703 -434,434 -703,1034 -703,1697 0,663 269,1263 703,1697 434,434 1034,703 1697,703 663,0 1263,-269 1697,-703 434,-434 703,-1034 703,-1697 0,-663 -269,-1263 -703,-1697 -434,-434 -1034,-703 -1697,-703zm-948 3496l848 0 0 -996 -995 0c8,361 61,700 147,996zm-147 -1196l995 0 0 -996 -848 0c-86,296 -139,635 -147,996zm213 -1196l782 0 0 -895c-391,75 -653,546 -782,895zm982 -895l0 895 782 0c-129,-349 -391,-820 -782,-895zm848 1095l-848 0 0 996 995 0c-8,-361 -61,-700 -147,-996zm147 1196l-995 0 0 996 848 0c86,-296 139,-635 147,-996zm-213 1196l-782 0 0 894c391,-74 653,-545 782,-894zm-982 894l0 -894 -782 0c129,349 391,820 782,894z"/>
</svg>