<?xml version="1.0" encoding="UTF-8"?>
<!DOCTYPE svg PUBLIC "-//W3C//DTD SVG 1.1//EN" "http://www.w3.org/Graphics/SVG/1.1/DTD/svg11.dtd">
<svg xmlns="http://www.w3.org/2000/svg" xml:space="preserve" width="580px" height="580px" shape-rendering="geometricPrecision" text-rendering="geometricPrecision" image-rendering="optimizeQuality" fill-rule="nonzero" clip-rule="nonzero" viewBox="0 0 5800 5800" xmlns:xlink="http://www.w3.org/1999/xlink">
	<title>environment_network icon</title>
	<desc>environment_network icon from the IconExperience.com I-Collection. Copyright by INCORS GmbH (www.incors.com).</desc>
	<path id="curve0"  d="M1363 3492l671 0c-73,-270 -117,-572 -125,-892l-807 0c16,324 109,627 261,892zm1837 1206l0 502 100 0 0 100 1000 0 0 200 -1000 0 0 100 -400 0 0 -100 -1000 0 0 -200 1000 0 0 -100 100 0 0 -502c-1174,-53 -2100,-1022 -2100,-2198 0,-1215 985,-2200 2200,-2200 1215,0 2200,985 2200,2200 0,1176 -926,2145 -2100,2198zm-2098 -2298l807 0c8,-320 52,-622 125,-892l-671 0c-152,265 -245,568 -261,892zm392 -1092l601 0c88,-256 219,-519 406,-717 -403,127 -756,379 -1007,717zm2205 -717c187,199 318,461 406,717l601 0c-251,-338 -604,-590 -1007,-717zm1138 917l-671 0c73,270 117,572 125,892l807 0c-16,-324 -109,-627 -261,-892zm261 1092l-807 0c-8,320 -52,622 -125,892l671 0c152,-265 245,-568 261,-892zm-392 1092l-601 0c-88,256 -219,518 -406,717 403,-127 756,-379 1007,-717zm-2205 717c-187,-199 -318,-461 -406,-717l-601 0c251,338 604,590 1007,717zm-260 -917l759 0 0 -892 -891 0c8,323 55,626 132,892zm-132 -1092l891 0 0 -892 -759 0c-77,266 -124,569 -132,892zm198 -1092l693 0 0 -797c-345,72 -576,487 -693,797zm893 -797l0 797 693 0c-117,-310 -348,-725 -693,-797zm759 997l-759 0 0 892 891 0c-8,-323 -55,-626 -132,-892zm132 1092l-891 0 0 892 759 0c77,-266 124,-569 132,-892zm-198 1092l-693 0 0 797c345,-72 576,-487 693,-797zm-893 797l0 -797 -693 0c117,310 348,725 693,797z"/>
</svg>