<?xml version="1.0" encoding="UTF-8"?>
<!DOCTYPE svg PUBLIC "-//W3C//DTD SVG 1.1//EN" "http://www.w3.org/Graphics/SVG/1.1/DTD/svg11.dtd">
<svg xmlns="http://www.w3.org/2000/svg" xml:space="preserve" width="580px" height="580px" shape-rendering="geometricPrecision" text-rendering="geometricPrecision" image-rendering="optimizeQuality" fill-rule="nonzero" clip-rule="nonzero" viewBox="0 0 5800 5800" xmlns:xlink="http://www.w3.org/1999/xlink">
	<title>environment icon</title>
	<desc>environment icon from the IconExperience.com I-Collection. Copyright by INCORS GmbH (www.incors.com).</desc>
		<path id="curve28"  d="M2900 300c1436,0 2600,1164 2600,2600 0,1436 -1164,2600 -2600,2600 -1436,0 -2600,-1164 -2600,-2600 0,-1436 1164,-2600 2600,-2600zm647 288c135,129 257,298 361,498 65,126 124,265 175,414l767 0c-318,-442 -778,-765 -1303,-912zm1751 2212c-16,-400 -131,-774 -319,-1100l-835 0c92,331 147,704 155,1100l999 0zm-448 1500l-767 0c-51,149 -110,288 -175,414 -104,200 -226,368 -361,498 525,-147 985,-470 1303,-912zm129 -200c188,-326 303,-700 319,-1100l-999 0c-8,396 -63,769 -155,1100l835 0zm-2726 1112c-135,-130 -257,-298 -361,-498 -65,-126 -124,-265 -175,-414l-767 0c318,442 778,765 1303,912zm-1751 -2212c16,400 131,774 319,1100l835 0c-92,-331 -147,-704 -155,-1100l-999 0zm448 -1500l767 0c51,-149 110,-288 175,-414 104,-200 226,-369 361,-498 -525,147 -985,470 -1303,912zm-129 200c-188,326 -303,700 -319,1100l999 0c8,-396 63,-769 155,-1100l-835 0zm2910 -522c-195,-375 -451,-621 -731,-669l0 991 871 0c-42,-115 -89,-223 -140,-322zm368 1622c-8,-399 -66,-774 -162,-1100l-937 0 0 1100 1099 0zm-368 1822c51,-99 98,-207 140,-322l-871 0 0 991c280,-48 536,-294 731,-669zm206 -522c96,-326 154,-701 162,-1100l-1099 0 0 1100 937 0zm-1868 522c195,375 451,621 731,669l0 -991 -871 0c42,115 89,223 140,322zm-368 -1622c8,399 66,774 162,1100l937 0 0 -1100 -1099 0zm368 -1822c-51,99 -98,207 -140,322l871 0 0 -991c-280,48 -536,294 -731,669zm-206 522c-96,326 -154,701 -162,1100l1099 0 0 -1100 -937 0z"/>
</svg>