<?xml version="1.0" encoding="UTF-8"?>
<!DOCTYPE svg PUBLIC "-//W3C//DTD SVG 1.1//EN" "http://www.w3.org/Graphics/SVG/1.1/DTD/svg11.dtd">
<svg xmlns="http://www.w3.org/2000/svg" xml:space="preserve" width="580px" height="580px" shape-rendering="geometricPrecision" text-rendering="geometricPrecision" image-rendering="optimizeQuality" fill-rule="nonzero" clip-rule="nonzero" viewBox="0 0 5800 5800" xmlns:xlink="http://www.w3.org/1999/xlink">
	<title>environment_network icon</title>
	<desc>environment_network icon from the IconExperience.com I-Collection. Copyright by INCORS GmbH (www.incors.com).</desc>
	<path id="curve0"  d="M3200 4698l0 502 100 0 0 100 1000 0 0 200 -1000 0 0 100 -400 0 0 -100 -1000 0 0 -200 1000 0 0 -100 100 0 0 -502c-1174,-53 -2100,-1022 -2100,-2198 0,-1215 985,-2200 2200,-2200 1215,0 2200,985 2200,2200 0,607 -246,1157 -644,1556 -377,376 -888,616 -1456,642zm-100 -4198c-1105,0 -2000,895 -2000,2000 0,1105 895,2000 2000,2000 552,0 1052,-224 1414,-586 362,-362 586,-862 586,-1414 0,-1105 -895,-2000 -2000,-2000zm573 293c343,115 643,332 861,619l-518 0c-77,-221 -187,-443 -343,-619zm404 819l589 0c133,235 216,503 231,788l-710 0c-8,-282 -46,-549 -110,-788zm110 988l710 0c-15,285 -98,553 -231,788l-589 0c64,-239 102,-506 110,-788zm-171 988l518 0c-49,65 -103,127 -161,185 -195,194 -433,344 -700,434 156,-176 266,-399 343,-619zm-1489 619c-343,-115 -643,-332 -861,-619l518 0c77,220 187,443 343,619zm-404 -819l-589 0c-133,-235 -216,-503 -231,-788l710 0c8,282 46,549 110,788zm-110 -988l-710 0c15,-285 98,-553 231,-788l589 0c-64,239 -102,506 -110,788zm171 -988l-518 0c218,-287 518,-504 861,-619 -156,176 -266,399 -343,619zm1619 0l-603 0 0 -700c298,71 500,430 603,700zm-803 -700l0 700 -603 0c103,-270 305,-629 603,-700zm-670 900l670 0 0 788 -787 0c8,-285 50,-553 117,-788zm-117 988l787 0 0 788 -670 0c-67,-235 -109,-503 -117,-788zm184 988l603 0 0 700c-298,-71 -500,-430 -603,-700zm803 700l0 -700 603 0c-103,270 -305,629 -603,700zm670 -900l-670 0 0 -788 787 0c-8,285 -50,553 -117,788zm117 -988l-787 0 0 -788 670 0c67,235 109,503 117,788z"/>
</svg>