<?xml version="1.0" encoding="UTF-8"?>
<!DOCTYPE svg PUBLIC "-//W3C//DTD SVG 1.1//EN" "http://www.w3.org/Graphics/SVG/1.1/DTD/svg11.dtd">
<svg xmlns="http://www.w3.org/2000/svg" xml:space="preserve" width="580px" height="580px" shape-rendering="geometricPrecision" text-rendering="geometricPrecision" image-rendering="optimizeQuality" fill-rule="nonzero" clip-rule="nonzero" viewBox="0 0 5800 5800" xmlns:xlink="http://www.w3.org/1999/xlink">
	<title>equalizer icon</title>
	<desc>equalizer icon from the IconExperience.com I-Collection. Copyright by INCORS GmbH (www.incors.com).</desc>
		<path id="curve29"  d="M4700 300l0 2200 -200 0 0 -2200 200 0zm0 3600l0 1600 -200 0 0 -1600 200 0zm-1700 -3600l0 600 -200 0 0 -600 200 0zm0 2000l0 3200 -200 0 0 -3200 200 0zm-1700 -2000l0 3000 -200 0 0 -3000 200 0zm0 4400l0 800 -200 0 0 -800 200 0z"/>
	<path id="curve28"  d="M4000 2700l1200 0c55,0 100,45 100,100l0 800c0,55 -45,100 -100,100l-1200 0c-55,0 -100,-45 -100,-100l0 -800c0,-55 45,-100 100,-100zm-3400 800l1200 0c55,0 100,45 100,100l0 800c0,55 -45,100 -100,100l-1200 0c-55,0 -100,-45 -100,-100l0 -800c0,-55 45,-100 100,-100zm1100 200l-1000 0 0 200 1000 0 0 -200zm-1000 400l0 200 1000 0 0 -200 -1000 0zm1600 -3000l1200 0c55,0 100,45 100,100l0 800c0,55 -45,100 -100,100l-1200 0c-55,0 -100,-45 -100,-100l0 -800c0,-55 45,-100 100,-100zm1100 200l-1000 0 0 200 1000 0 0 -200zm-1000 400l0 200 1000 0 0 -200 -1000 0zm1700 1400l1000 0 0 -200 -1000 0 0 200zm1000 200l-1000 0 0 200 1000 0 0 -200z"/>
</svg>