<?xml version="1.0" encoding="UTF-8"?>
<!DOCTYPE svg PUBLIC "-//W3C//DTD SVG 1.1//EN" "http://www.w3.org/Graphics/SVG/1.1/DTD/svg11.dtd">
<svg xmlns="http://www.w3.org/2000/svg" xml:space="preserve" width="580px" height="580px" shape-rendering="geometricPrecision" text-rendering="geometricPrecision" image-rendering="optimizeQuality" fill-rule="nonzero" clip-rule="nonzero" viewBox="0 0 5800 5800" xmlns:xlink="http://www.w3.org/1999/xlink">
	<title>equalizer icon</title>
	<desc>equalizer icon from the IconExperience.com I-Collection. Copyright by INCORS GmbH (www.incors.com).</desc>
		<path id="curve28"  d="M4700 300l0 2200 -200 0 0 -2200 200 0zm-700 2400l1200 0c55,0 100,45 100,100l0 300 -1400 0 0 -300c0,-55 45,-100 100,-100zm1300 600l0 300c0,55 -45,100 -100,100l-1200 0c-55,0 -100,-45 -100,-100l0 -300 1400 0zm-3000 -2200l1200 0c55,0 100,45 100,100l0 300 -1400 0 0 -300c0,-55 45,-100 100,-100zm1300 600l0 300c0,55 -45,100 -100,100l-1200 0c-55,0 -100,-45 -100,-100l0 -300 1400 0zm-3000 1800l1200 0c55,0 100,45 100,100l0 300 -1400 0 0 -300c0,-55 45,-100 100,-100zm1300 600l0 300c0,55 -45,100 -100,100l-1200 0c-55,0 -100,-45 -100,-100l0 -300 1400 0zm2800 -200l0 1600 -200 0 0 -1600 200 0zm-1700 -3600l0 600 -200 0 0 -600 200 0zm0 2000l0 3200 -200 0 0 -3200 200 0zm-1700 -2000l0 3000 -200 0 0 -3000 200 0zm0 4400l0 800 -200 0 0 -800 200 0z"/>
</svg>