<?xml version="1.0" encoding="UTF-8"?>
<!DOCTYPE svg PUBLIC "-//W3C//DTD SVG 1.1//EN" "http://www.w3.org/Graphics/SVG/1.1/DTD/svg11.dtd">
<svg xmlns="http://www.w3.org/2000/svg" xml:space="preserve" width="580px" height="580px" shape-rendering="geometricPrecision" text-rendering="geometricPrecision" image-rendering="optimizeQuality" fill-rule="nonzero" clip-rule="nonzero" viewBox="0 0 5800 5800" xmlns:xlink="http://www.w3.org/1999/xlink">
	<title>erase icon</title>
	<desc>erase icon from the IconExperience.com I-Collection. Copyright by INCORS GmbH (www.incors.com).</desc>
		<path id="curve28"  d="M300 3700l2973 0c-423,352 -935,1009 -1274,1689 -18,36 -27,74 -27,111l-1672 0 0 -1800zm5200 68l0 1732 -1183 0c470,-428 926,-1158 1183,-1732zm-2211 1732l-545 0c296,-561 703,-1081 1039,-1365 -41,86 -104,197 -169,313 -154,273 -429,729 -325,1052zm888 -1458l-2279 -2248c-77,-76 -78,-204 -2,-281l985 -997c77,-78 203,-79 281,-2l2278 2247c78,77 79,205 2,283l-983 996c-77,78 -204,79 -282,2zm-572 -844c61,61 711,702 712,702l983 -996c1,-1 -652,-645 -712,-703l-983 997z"/>
</svg>