<?xml version="1.0" encoding="UTF-8"?>
<!DOCTYPE svg PUBLIC "-//W3C//DTD SVG 1.1//EN" "http://www.w3.org/Graphics/SVG/1.1/DTD/svg11.dtd">
<svg xmlns="http://www.w3.org/2000/svg" xml:space="preserve" width="580px" height="580px" shape-rendering="geometricPrecision" text-rendering="geometricPrecision" image-rendering="optimizeQuality" fill-rule="nonzero" clip-rule="nonzero" viewBox="0 0 5800 5800" xmlns:xlink="http://www.w3.org/1999/xlink">
	<title>escalator_up icon</title>
	<desc>escalator_up icon from the IconExperience.com I-Collection. Copyright by INCORS GmbH (www.incors.com).</desc>
		<path id="curve28"  d="M4700 1900c442,0 800,358 800,800 0,442 -358,800 -800,800l-393 0c-112,0 -203,38 -283,117l-1560 1561c-213,212 -477,322 -778,322l-586 0c-442,0 -800,-358 -800,-800 0,-442 358,-800 800,-800l393 0c112,0 203,-38 283,-117l1560 -1561c213,-212 477,-322 778,-322l586 0zm0 200l-586 0c-250,0 -460,87 -636,264l-1561 1560c-115,116 -261,176 -424,176l-393 0c-331,0 -600,269 -600,600 0,331 269,600 600,600l586 0c250,0 460,-87 636,-264l1561 -1560c115,-116 261,-176 424,-176l393 0c331,0 600,-269 600,-600 0,-331 -269,-600 -600,-600zm-3200 -1400l1400 0 0 1400 -200 0 0 -1059 -1729 1730 -142 -142 1730 -1729 -1059 0 0 -200z"/>
</svg>