<?xml version="1.0" encoding="UTF-8"?>
<!DOCTYPE svg PUBLIC "-//W3C//DTD SVG 1.1//EN" "http://www.w3.org/Graphics/SVG/1.1/DTD/svg11.dtd">
<svg xmlns="http://www.w3.org/2000/svg" xml:space="preserve" width="580px" height="580px" shape-rendering="geometricPrecision" text-rendering="geometricPrecision" image-rendering="optimizeQuality" fill-rule="nonzero" clip-rule="nonzero" viewBox="0 0 5800 5800" xmlns:xlink="http://www.w3.org/1999/xlink">
	<title>excavator icon</title>
	<desc>excavator icon from the IconExperience.com I-Collection. Copyright by INCORS GmbH (www.incors.com).</desc>
		<path id="curve28"  d="M300 3971l0 -771c0,-276 224,-500 500,-500l500 0 0 -1400 1364 0 636 1379 0 477 -573 344 -627 0 0 -200 573 0 427 -256 0 -323 -564 -1221 -1036 0 0 1400 -700 0c-165,0 -300,135 -300,300l0 608c-61,35 -116,78 -165,127 -12,11 -24,24 -35,36zm4766 -1039l-334 1168 168 0c298,0 541,-184 586,-482 46,-309 -145,-562 -420,-686zm-541 1168l371 -1301 -275 -1011 -640 -105c-75,-8 -146,69 -214,144l-425 466 -91 -197 369 -403c102,-112 209,-228 384,-208l775 127 303 1112c390,148 666,497 602,924 -60,394 -387,652 -784,652l-600 0 0 -200 225 0zm-3625 -200l2400 0c331,0 600,269 600,600 0,331 -269,600 -600,600l-2400 0c-331,0 -600,-269 -600,-600 0,-331 269,-600 600,-600zm2400 200l-2400 0c-220,0 -400,180 -400,400 0,220 180,400 400,400l2400 0c220,0 400,-180 400,-400 0,-220 -180,-400 -400,-400z"/>
</svg>