<?xml version="1.0" encoding="UTF-8"?>
<!DOCTYPE svg PUBLIC "-//W3C//DTD SVG 1.1//EN" "http://www.w3.org/Graphics/SVG/1.1/DTD/svg11.dtd">
<svg xmlns="http://www.w3.org/2000/svg" xml:space="preserve" width="580px" height="580px" shape-rendering="geometricPrecision" text-rendering="geometricPrecision" image-rendering="optimizeQuality" fill-rule="nonzero" clip-rule="nonzero" viewBox="0 0 5800 5800" xmlns:xlink="http://www.w3.org/1999/xlink">
	<title>excavator icon</title>
	<desc>excavator icon from the IconExperience.com I-Collection. Copyright by INCORS GmbH (www.incors.com).</desc>
		<path id="curve30"  d="M3251 2096l369 -403c102,-112 209,-228 384,-208l775 127 303 1112c390,148 666,497 602,924 -60,394 -387,652 -784,652l-600 0 0 -200 225 0 371 -1301 -275 -1011 -640 -105c-75,-8 -144,68 -212,143l-427 467 -91 -197z"/>
	<path id="curve29"  d="M1300 2700l0 -1400 1364 0 636 1379 0 477 -573 344 0 200 -1827 0c-221,0 -421,90 -565,235 -12,11 -24,24 -35,36l0 -771c0,-276 224,-500 500,-500l500 0z"/>
	<path id="curve28"  d="M900 3900l2400 0c331,0 600,269 600,600 0,331 -269,600 -600,600l-2400 0c-331,0 -600,-269 -600,-600 0,-331 269,-600 600,-600z"/>
</svg>