<?xml version="1.0" encoding="UTF-8"?>
<!DOCTYPE svg PUBLIC "-//W3C//DTD SVG 1.1//EN" "http://www.w3.org/Graphics/SVG/1.1/DTD/svg11.dtd">
<svg xmlns="http://www.w3.org/2000/svg" xml:space="preserve" width="580px" height="580px" shape-rendering="geometricPrecision" text-rendering="geometricPrecision" image-rendering="optimizeQuality" fill-rule="nonzero" clip-rule="nonzero" viewBox="0 0 5800 5800" xmlns:xlink="http://www.w3.org/1999/xlink">
	<title>explosion icon</title>
	<desc>explosion icon from the IconExperience.com I-Collection. Copyright by INCORS GmbH (www.incors.com).</desc>
		<path id="curve29"  d="M1069 3951l315 -115 182 282 218 83 266 11 275 476 -77 176 231 150 -77 87c-229,256 -555,402 -899,402 -664,0 -1203,-538 -1203,-1203 0,-300 112,-589 314,-810l100 -110 258 539 97 32zm234 127l-231 84c-81,-27 -162,-54 -244,-81l-161 -336c-110,165 -167,356 -167,555 0,554 449,1003 1003,1003 247,0 482,-88 666,-252l-173 -112 106 -239 -170 -294 -189 -7 -309 -117 -131 -204zm214 -3210c-48,382 -95,765 -143,1147 -158,-158 -316,-316 -474,-474 0,-173 0,-346 0,-519 206,-51 411,-103 617,-154zm-234 264l-183 46 0 281 126 126 57 -453zm3617 2596l0 702 -277 416 -700 -560 977 -558zm-200 344l-423 242 300 240 123 -184 0 -298zm-2584 -729c104,157 208,313 313,470 -72,72 -144,144 -216,216 -157,-105 -313,-209 -470,-313 124,-125 248,-249 373,-373zm-32 314l-27 27 82 55 -55 -82zm2399 -2481l135 945c-279,-47 -557,-93 -836,-140l132 -663c190,-47 380,-94 569,-142zm-166 248l-231 58 -68 337 364 60 -65 -455zm-1917 238c0,126 0,253 0,379l-343 344 -183 -548c175,-58 351,-117 526,-175zm-200 276l-74 25 17 52 57 -56 0 -21z"/>
	<path id="curve28"  d="M5369 5595l-2684 -895 1437 0 250 200 -457 0 1516 505 -62 190zm-408 -895l439 0 0 200 -573 0 134 -200zm-3562 -4289l-33 289 -207 51 42 -362 198 22zm-198 1715l-162 1404 -835 -3104 192 -52 304 1128 0 122 45 45 216 801 60 -525 180 181zm1690 -1686l-434 993 -255 85 507 -1158 182 80zm-961 2196l-390 892 137 -1652 39 118 214 642zm-237 -948l107 -1296 200 16 -101 1211 -206 69zm3182 -1223l-450 520 -337 84 637 -734 150 130zm-1292 1492l-1216 1403 -156 -235 1198 -2764 182 78 -1042 2406 1113 -1284 -79 396zm1863 432l-2769 1435 -96 -144 1409 -1461 239 39 -1035 1074 2160 -1121 92 178zm-721 -933l603 -625 144 138 -711 738 -36 -251zm684 2644l-309 26 0 -200 291 -26 18 200zm-1838 159l-1010 88 2796 -1337 86 180 -1804 863 341 -30 -409 236z"/>
</svg>