<?xml version="1.0" encoding="utf-8"?>
<!-- Generator: Adobe Illustrator 19.2.1, SVG Export Plug-In . SVG Version: 6.00 Build 0)  -->
<svg version="1.1" id="Ebene_1" xmlns="http://www.w3.org/2000/svg" xmlns:xlink="http://www.w3.org/1999/xlink" x="0px" y="0px"
	 width="580px" height="580px" viewBox="0 0 580 580" style="enable-background:new 0 0 580 580;" xml:space="preserve">
<style type="text/css">
	.st0{display:none;}
</style>
<path id="curve28_9_" class="st0" d="M397.5,140.3c6.4,6.3,10.3,15.1,10.3,24.7v385H7.8V30h265c9.6,0,18.4,3.9,24.7,10.3
	C297.5,40.6,387.8,130.5,397.5,140.3z M307.8,78.8V130H359L307.8,78.8z M272.8,50h-245v480h360V165c0-8.3-6.7-15-15-15h-85V65
	C287.8,56.8,281,50,272.8,50z"/>
<g>
	<path d="M390,385.9L375.8,400H44l-14-14.1v-71.8L44,300h178v-20H44l-14-14.1v-71.8L44,180h331.8l14.2,14.1V240h20v-54.1L394.1,170
		l15.9-15.9V65.9c-9-8.7-17.3-17.3-26-25.9H35.8C27.1,48.6,18,57.2,10,65.9v88.2L25.9,170L10,185.9v88.2L25.9,290L10,305.9v88.2
		L25.9,410L10,425.9v88.2L35.8,540H384l26-25.9v-88.2L394.1,410l15.9-15.9V340h-20V385.9z M30,74.1L44,60h331.8L390,74.1v71.8
		L375.8,160H44l-14-14.1V74.1z M390,505.9L375.8,520H44l-14-14.1v-71.8L44,420h331.8l14.2,14.1V505.9z"/>
	<polygon points="563.1,282.9 492.6,212.5 478.5,226.5 532,280 266,280 266,300 531.7,300 478.5,353.3 492.6,367.5 563.1,297.1 
		570.1,290 	"/>
</g>
</svg>
