<?xml version="1.0" encoding="UTF-8"?>
<!DOCTYPE svg PUBLIC "-//W3C//DTD SVG 1.1//EN" "http://www.w3.org/Graphics/SVG/1.1/DTD/svg11.dtd">
<svg xmlns="http://www.w3.org/2000/svg" xml:space="preserve" width="580px" height="580px" shape-rendering="geometricPrecision" text-rendering="geometricPrecision" image-rendering="optimizeQuality" fill-rule="nonzero" clip-rule="nonzero" viewBox="0 0 5800 5800" xmlns:xlink="http://www.w3.org/1999/xlink">
	<title>eye icon</title>
	<desc>eye icon from the IconExperience.com I-Collection. Copyright by INCORS GmbH (www.incors.com).</desc>
		<path id="curve28"  d="M5477 2936c-196,510 -570,945 -1023,1255 -469,321 -1024,509 -1554,509 -530,0 -1085,-188 -1554,-509 -453,-310 -827,-745 -1023,-1255 -9,-23 -9,-49 0,-72 197,-511 571,-945 1023,-1255 469,-321 1025,-509 1554,-509 529,0 1085,188 1554,509 453,310 827,745 1023,1255 9,24 9,49 0,72zm-1135 -1162c-438,-299 -953,-474 -1442,-474 -489,0 -1004,175 -1442,474 -410,281 -751,671 -935,1126 184,455 525,845 935,1126 438,299 953,474 1442,474 489,0 1004,-175 1442,-474 410,-281 750,-670 934,-1126 -184,-456 -524,-845 -934,-1126zm-1442 -274c773,0 1400,627 1400,1400 0,773 -627,1400 -1400,1400 -773,0 -1400,-627 -1400,-1400 0,-773 627,-1400 1400,-1400zm0 200c-663,0 -1200,537 -1200,1200 0,663 537,1200 1200,1200 663,0 1200,-537 1200,-1200 0,-663 -537,-1200 -1200,-1200zm0 700c276,0 500,224 500,500 0,276 -224,500 -500,500 -276,0 -500,-224 -500,-500 0,-276 224,-500 500,-500z"/>
</svg>