<?xml version="1.0" encoding="UTF-8"?>
<!DOCTYPE svg PUBLIC "-//W3C//DTD SVG 1.1//EN" "http://www.w3.org/Graphics/SVG/1.1/DTD/svg11.dtd">
<svg xmlns="http://www.w3.org/2000/svg" xml:space="preserve" width="580px" height="580px" shape-rendering="geometricPrecision" text-rendering="geometricPrecision" image-rendering="optimizeQuality" fill-rule="nonzero" clip-rule="nonzero" viewBox="0 0 5800 5800" xmlns:xlink="http://www.w3.org/1999/xlink">
	<title>eye_scan icon</title>
	<desc>eye_scan icon from the IconExperience.com I-Collection. Copyright by INCORS GmbH (www.incors.com).</desc>
		<path id="curve28"  d="M323 2864c387,-1006 1501,-1764 2577,-1764 1076,0 2191,758 2577,1764 3,7 0,72 0,72 -386,1006 -1501,1764 -2577,1764 -1077,0 -2190,-757 -2577,-1764 -9,-24 -8,-49 0,-72zm2677 -564l-200 0 0 500 -500 0 0 200 500 0 0 500 200 0 0 -500 500 0 0 -200 -500 0 0 -500zm2300 2400l0 600 -600 0 0 -200 400 0 0 -400 200 0zm-4600 0l0 400 400 0 0 200 -600 0 0 -600 200 0zm-200 -3600l0 -600 600 0 0 200 -400 0 0 400 -200 0zm4600 0l0 -400 -400 0 0 -200 600 0 0 600 -200 0zm-2200 500c-718,0 -1300,582 -1300,1300 0,718 582,1300 1300,1300 718,0 1300,-582 1300,-1300 0,-718 -582,-1300 -1300,-1300z"/>
</svg>