<?xml version="1.0" encoding="UTF-8"?>
<!DOCTYPE svg PUBLIC "-//W3C//DTD SVG 1.1//EN" "http://www.w3.org/Graphics/SVG/1.1/DTD/svg11.dtd">
<svg xmlns="http://www.w3.org/2000/svg" xml:space="preserve" width="580px" height="580px" shape-rendering="geometricPrecision" text-rendering="geometricPrecision" image-rendering="optimizeQuality" fill-rule="nonzero" clip-rule="nonzero" viewBox="0 0 5800 5800" xmlns:xlink="http://www.w3.org/1999/xlink">
	<title>eye_blind icon</title>
	<desc>eye_blind icon from the IconExperience.com I-Collection. Copyright by INCORS GmbH (www.incors.com).</desc>
		<path id="curve28"  d="M2900 1100c1076,0 2191,758 2577,1764 9,24 9,49 0,72 -386,1006 -1500,1764 -2577,1764 -1077,0 -2190,-757 -2577,-1764 -9,-23 -8,-49 0,-72 387,-1007 1501,-1764 2577,-1764zm0 400c-773,0 -1400,627 -1400,1400 0,773 627,1400 1400,1400 773,0 1400,-627 1400,-1400 0,-773 -627,-1400 -1400,-1400zm720 440l-1589 1787c-205,-215 -331,-506 -331,-827 0,-663 537,-1200 1200,-1200 270,0 519,89 720,240zm480 960c0,-321 -126,-612 -331,-827l-1589 1787c201,151 450,240 720,240 663,0 1200,-537 1200,-1200z"/>
</svg>