<?xml version="1.0" encoding="UTF-8"?>
<!DOCTYPE svg PUBLIC "-//W3C//DTD SVG 1.1//EN" "http://www.w3.org/Graphics/SVG/1.1/DTD/svg11.dtd">
<svg xmlns="http://www.w3.org/2000/svg" xml:space="preserve" width="580px" height="580px" shape-rendering="geometricPrecision" text-rendering="geometricPrecision" image-rendering="optimizeQuality" fill-rule="nonzero" clip-rule="nonzero" viewBox="0 0 5800 5800" xmlns:xlink="http://www.w3.org/1999/xlink">
	<title>eye_scan icon</title>
	<desc>eye_scan icon from the IconExperience.com I-Collection. Copyright by INCORS GmbH (www.incors.com).</desc>
		<path id="curve28"  d="M2300 2800l500 0 0 -500 200 0 0 500 500 0 0 200 -500 0 0 500 -200 0 0 -500 -500 0 0 -200zm600 -1700c529,0 1085,188 1554,509 453,310 827,745 1023,1255 3,7 0,72 0,72 -196,510 -570,945 -1023,1255 -469,321 -1024,509 -1554,509 -530,0 -1085,-188 -1554,-509 -453,-310 -827,-745 -1023,-1255 -4,-10 0,-74 0,-72 209,-522 561,-938 1023,-1255 469,-321 1025,-509 1554,-509zm1442 674c-438,-299 -953,-474 -1442,-474 -489,0 -1004,175 -1442,474 -410,281 -751,671 -935,1126 184,455 525,845 935,1126 438,299 953,474 1442,474 489,0 1004,-175 1442,-474 410,-281 750,-670 934,-1126 -184,-456 -524,-845 -934,-1126zm-1442 -274c773,0 1400,627 1400,1400 0,773 -627,1400 -1400,1400 -773,0 -1400,-627 -1400,-1400 0,-773 627,-1400 1400,-1400zm0 200c-663,0 -1200,537 -1200,1200 0,663 537,1200 1200,1200 663,0 1200,-537 1200,-1200 0,-663 -537,-1200 -1200,-1200zm-2400 -600l0 -600 600 0 0 200 -400 0 0 400 -200 0zm4600 0l0 -400 -400 0 0 -200 600 0 0 600 -200 0zm200 3600l0 600 -600 0 0 -200 400 0 0 -400 200 0zm-4600 0l0 400 400 0 0 200 -600 0 0 -600 200 0z"/>
</svg>