<?xml version="1.0" encoding="UTF-8"?>
<!DOCTYPE svg PUBLIC "-//W3C//DTD SVG 1.1//EN" "http://www.w3.org/Graphics/SVG/1.1/DTD/svg11.dtd">
<svg xmlns="http://www.w3.org/2000/svg" xml:space="preserve" width="580px" height="580px" shape-rendering="geometricPrecision" text-rendering="geometricPrecision" image-rendering="optimizeQuality" fill-rule="nonzero" clip-rule="nonzero" viewBox="0 0 5800 5800" xmlns:xlink="http://www.w3.org/1999/xlink">
	<title>eyeglasses icon</title>
	<desc>eyeglasses icon from the IconExperience.com I-Collection. Copyright by INCORS GmbH (www.incors.com).</desc>
		<path id="curve28" d="M4700 2100l-800 0c-187,0 -348,36 -458,102 -89,54 -142,129 -142,222l0 401 190 403c67,141 136,264 221,349 77,77 169,123 289,123l700 0c65,0 166,-51 253,-125 76,-65 137,-143 149,-214l98 -625 0 -312c0,-78 -56,-149 -133,-204 -108,-76 -253,-120 -367,-120zm-3600 -200l800 0c223,0 420,46 561,131 50,30 92,64 127,103 40,44 90,66 149,66l326 0c59,0 109,-22 149,-66 35,-39 77,-73 127,-103 141,-85 338,-131 561,-131l800 0c150,0 341,58 482,157 61,43 114,94 152,153 38,58 98,90 167,90l199 0 0 300 -106 0c-99,0 -182,71 -198,169l-98 623c-19,122 -108,243 -216,335 -121,102 -271,173 -382,173l-700 0c-180,0 -317,-69 -430,-182 -105,-105 -185,-246 -260,-405l-141 -298c-34,-72 -102,-115 -181,-115l-176 0c-79,0 -147,43 -181,115l-141 298c-75,159 -155,300 -260,405 -113,113 -250,182 -430,182l-700 0c-111,0 -261,-71 -382,-173 -108,-92 -197,-213 -216,-335l-98 -623c-16,-98 -99,-169 -198,-169l-106 0 0 -300 199 0c69,0 129,-32 167,-90 38,-59 91,-110 152,-153 141,-99 332,-157 482,-157zm800 200l-800 0c-114,0 -259,44 -367,120 -77,55 -133,126 -133,204l0 312 98 625c12,71 73,149 149,214 87,74 188,125 253,125l700 0c120,0 212,-46 289,-123 85,-85 154,-208 221,-349l190 -403 0 -401c0,-93 -53,-168 -142,-222 -110,-66 -271,-102 -458,-102z"/>
</svg>