<?xml version="1.0" encoding="UTF-8"?>
<!DOCTYPE svg PUBLIC "-//W3C//DTD SVG 1.1//EN" "http://www.w3.org/Graphics/SVG/1.1/DTD/svg11.dtd">
<svg xmlns="http://www.w3.org/2000/svg" xml:space="preserve" width="580px" height="580px" shape-rendering="geometricPrecision" text-rendering="geometricPrecision" image-rendering="optimizeQuality" fill-rule="nonzero" clip-rule="nonzero" viewBox="0 0 5800 5800" xmlns:xlink="http://www.w3.org/1999/xlink">
	<title>eyeglasses icon</title>
	<desc>eyeglasses icon from the IconExperience.com I-Collection. Copyright by INCORS GmbH (www.incors.com).</desc>
		<path id="curve28"  d="M1100 1900l800 0c223,0 420,46 561,131 50,30 92,64 127,103 40,44 90,66 149,66l326 0c59,0 109,-22 149,-66 35,-39 77,-73 127,-103 141,-85 338,-131 561,-131l800 0c221,0 508,119 634,310 38,58 98,90 167,90l199 0 0 300 -106 0c-99,0 -182,71 -198,169l-98 623c-37,236 -364,508 -598,508l-700 0c-180,0 -317,-69 -430,-182 -105,-105 -185,-246 -260,-405l-141 -298c-34,-72 -102,-115 -181,-115l-176 0c-79,0 -147,43 -181,115l-141 298c-75,159 -155,300 -260,405 -113,113 -250,182 -430,182l-700 0c-234,0 -561,-272 -598,-508l-98 -623c-16,-98 -99,-169 -198,-169l-106 0 0 -300 199 0c69,0 129,-32 167,-90 126,-191 413,-310 634,-310zm2300 903l181 382c51,108 116,237 201,322 62,61 130,93 218,93l700 0c85,0 289,-165 303,-254l97 -618 0 -304c0,-134 -299,-224 -400,-224l-800 0c-130,0 -293,19 -406,88 -51,30 -94,73 -94,136l0 379zm-2700 -75l97 618c14,89 218,254 303,254l700 0c88,0 156,-32 218,-93 85,-85 150,-214 201,-322l181 -382 0 -379c0,-63 -43,-106 -94,-136 -113,-69 -276,-88 -406,-88l-800 0c-101,0 -400,90 -400,224l0 304z"/>
</svg>