<?xml version="1.0" encoding="UTF-8"?>
<!DOCTYPE svg PUBLIC "-//W3C//DTD SVG 1.1//EN" "http://www.w3.org/Graphics/SVG/1.1/DTD/svg11.dtd">
<svg xmlns="http://www.w3.org/2000/svg" xml:space="preserve" width="580px" height="580px" shape-rendering="geometricPrecision" text-rendering="geometricPrecision" image-rendering="optimizeQuality" fill-rule="nonzero" clip-rule="nonzero" viewBox="0 0 5800 5800" xmlns:xlink="http://www.w3.org/1999/xlink">
	<title>face_scan icon</title>
	<desc>face_scan icon from the IconExperience.com I-Collection. Copyright by INCORS GmbH (www.incors.com).</desc>
		<path id="curve28" d="M2129 4296c47,-28 79,-91 103,-168 36,-119 47,-264 49,-367 -158,-174 -340,-493 -413,-717 -91,-57 -155,-143 -192,-240 -42,-111 -48,-237 -19,-350l-39 -591c-1,-62 3,-118 12,-172 81,-494 544,-782 1019,-790 134,-3 288,16 411,70 41,18 78,39 119,64 89,-33 180,-44 269,-35 282,26 536,237 658,486 57,117 87,245 76,372l-39 596c29,113 23,239 -18,350 -37,97 -101,183 -193,240 -73,225 -255,543 -414,718 3,86 10,197 32,301 22,102 57,194 118,231 180,112 370,185 568,258 135,49 290,106 391,204 45,44 86,92 122,144l-261 -1c-71,-68 -203,-117 -320,-159 -211,-77 -412,-156 -603,-275 -117,-71 -178,-211 -210,-361 -29,-135 -35,-281 -38,-378 0,-29 11,-55 30,-74 146,-144 351,-503 405,-701 8,-30 29,-53 56,-65 62,-32 105,-88 130,-152 29,-77 32,-165 9,-243 -3,-11 -4,-23 -4,-34l40 -614c8,-92 -14,-184 -56,-270 -91,-185 -286,-355 -497,-375 -72,-7 -146,5 -216,39 -32,16 -69,12 -98,-6 -52,-33 -94,-59 -136,-77 -96,-43 -224,-56 -328,-54 -376,7 -761,227 -825,623 -7,42 -10,85 -10,130l40 604c1,14 -1,27 -6,39 -20,76 -17,162 12,237 25,66 69,123 133,155 27,13 45,37 52,63 54,198 258,556 404,700 20,20 30,46 30,71 0,115 -11,304 -60,464 -37,121 -96,227 -191,281 -186,116 -383,194 -588,269 -122,45 -226,99 -311,164l-284 0c20,-25 41,-49 64,-71 118,-119 272,-211 462,-281 192,-70 378,-142 555,-252zm-1029 804l0 200c-167,0 -403,0 -600,0l0 -600 200 0 0 400c133,0 267,0 400,0zm4000 0l0 -400 200 0 0 600c-200,0 -400,0 -600,0l0 -200c133,0 267,0 400,0zm-4600 -4000l0 -600 600 0 0 200 -400 0 0 400 -200 0zm4600 0l0 -400 -400 0 0 -200 600 0 0 600 -200 0z"/>
</svg>