<?xml version="1.0" encoding="UTF-8"?>
<!DOCTYPE svg PUBLIC "-//W3C//DTD SVG 1.1//EN" "http://www.w3.org/Graphics/SVG/1.1/DTD/svg11.dtd">
<svg xmlns="http://www.w3.org/2000/svg" xml:space="preserve" width="580px" height="580px" shape-rendering="geometricPrecision" text-rendering="geometricPrecision" image-rendering="optimizeQuality" fill-rule="nonzero" clip-rule="nonzero" viewBox="0 0 5800 5800" xmlns:xlink="http://www.w3.org/1999/xlink">
	<title>factory icon</title>
	<desc>factory icon from the IconExperience.com I-Collection. Copyright by INCORS GmbH (www.incors.com).</desc>
		<path id="curve28"  d="M4893 500l200 3000 407 0 0 2000 -5200 0 0 -2056 1200 -720 0 600 1000 -600 0 600 1000 -600 0 776 407 0 200 -3000c262,0 524,0 786,0zm-1593 3200l0 -624 -1000 600 0 -600 -1000 600 0 -600 -800 480 0 1744 4800 0 0 -1600c-667,0 -1333,0 -2000,0zm1407 -3000l-414 0 -186 2800 786 0 -186 -2800z"/>
</svg>