<?xml version="1.0" encoding="UTF-8"?>
<!DOCTYPE svg PUBLIC "-//W3C//DTD SVG 1.1//EN" "http://www.w3.org/Graphics/SVG/1.1/DTD/svg11.dtd">
<svg xmlns="http://www.w3.org/2000/svg" xml:space="preserve" width="580px" height="580px" shape-rendering="geometricPrecision" text-rendering="geometricPrecision" image-rendering="optimizeQuality" fill-rule="nonzero" clip-rule="nonzero" viewBox="0 0 5800 5800" xmlns:xlink="http://www.w3.org/1999/xlink">
	<title>fan icon</title>
	<desc>fan icon from the IconExperience.com I-Collection. Copyright by INCORS GmbH (www.incors.com).</desc>
	<path id="curve0" d="M2900 2500c220,0 400,180 400,400 0,221 -179,400 -400,400 -221,0 -400,-179 -400,-400 0,-221 180,-400 400,-400zm0 -2200c1436,0 2600,1164 2600,2600 0,1436 -1164,2600 -2600,2600 -1436,0 -2600,-1164 -2600,-2600 0,-1436 1164,-2600 2600,-2600zm-353 3575c1,-181 10,-337 26,-472 57,37 122,65 191,81 -11,114 -17,244 -18,392 -1,299 135,551 404,691 272,141 622,135 889,-16 317,-179 557,-462 410,-841 -82,-212 -281,-241 -488,-270 -198,-29 -402,-58 -559,-211 40,-62 70,-132 85,-206 120,164 314,192 502,219 266,38 521,75 646,396 185,476 -91,856 -498,1087 -324,183 -747,191 -1078,19 -336,-174 -514,-494 -512,-869zm-47 -528c-202,22 -323,176 -441,326 -165,210 -325,413 -666,361 -505,-78 -695,-507 -692,-975 3,-374 208,-742 523,-943 318,-204 686,-198 1008,-10 156,91 287,177 396,259 -65,33 -117,74 -165,126 -93,-67 -203,-137 -331,-212 -258,-151 -546,-159 -801,4 -257,165 -428,472 -430,777 -3,365 121,715 522,777 226,35 350,-124 479,-288 124,-157 251,-319 462,-379 34,67 80,127 136,177zm212 -1017c83,-186 10,-368 -61,-545 -99,-248 -195,-488 21,-757 320,-399 786,-349 1190,-112 322,190 539,551 556,925 17,377 -172,692 -497,878 -157,89 -297,160 -422,213 4,-69 -5,-140 -25,-207 104,-47 219,-106 348,-180 261,-149 410,-392 396,-696 -13,-304 -194,-606 -457,-761 -314,-184 -680,-251 -934,65 -143,178 -68,365 10,558 74,186 151,377 97,590 -75,-4 -150,5 -222,29zm188 -1830c-1325,0 -2400,1074 -2400,2400 0,1325 1075,2400 2400,2400 1326,0 2400,-1075 2400,-2400 0,-1326 -1074,-2400 -2400,-2400zm0 2200c-111,0 -200,89 -200,200 0,110 90,200 200,200 111,0 200,-89 200,-200 0,-111 -89,-200 -200,-200z"/>
</svg>