<?xml version="1.0" encoding="UTF-8"?>
<!DOCTYPE svg PUBLIC "-//W3C//DTD SVG 1.1//EN" "http://www.w3.org/Graphics/SVG/1.1/DTD/svg11.dtd">
<svg xmlns="http://www.w3.org/2000/svg" xml:space="preserve" width="580px" height="580px" shape-rendering="geometricPrecision" text-rendering="geometricPrecision" image-rendering="optimizeQuality" fill-rule="nonzero" clip-rule="nonzero" viewBox="0 0 5800 5800" xmlns:xlink="http://www.w3.org/1999/xlink">
	<title>fan icon</title>
	<desc>fan icon from the IconExperience.com I-Collection. Copyright by INCORS GmbH (www.incors.com).</desc>
	<path id="curve0"  d="M2900 300c718,0 1368,291 1838,762 471,470 762,1120 762,1838 0,1436 -1164,2600 -2600,2600 -1436,0 -2600,-1164 -2600,-2600 0,-718 291,-1368 762,-1838 470,-471 1120,-762 1838,-762zm0 2200c-220,0 -400,179 -400,400 0,221 179,400 400,400 221,0 400,-179 400,-400 0,-220 -180,-400 -400,-400zm34 -199c54,-213 -23,-404 -97,-590 -78,-193 -153,-380 -10,-558 254,-316 620,-249 934,-65 263,155 444,457 457,761 14,304 -135,547 -396,696 -129,74 -244,133 -348,180 20,67 29,138 25,207 125,-53 265,-124 422,-213 325,-186 514,-501 497,-878 -17,-374 -234,-735 -556,-925 -404,-237 -870,-287 -1190,112 -216,269 -120,509 -21,757 71,177 144,359 61,545 72,-24 147,-33 222,-29zm553 722c-15,74 -45,144 -85,206 157,153 361,182 559,211 207,29 406,58 488,270 65,167 56,317 -6,449 -145,306 -536,511 -868,510 -463,-2 -831,-308 -829,-793 1,-148 7,-278 18,-392 -69,-16 -134,-44 -191,-81 -16,135 -25,291 -26,472 -3,597 454,990 1028,993 409,2 870,-247 1048,-624 85,-180 99,-384 12,-606 -125,-321 -380,-358 -646,-396 -188,-27 -382,-55 -502,-219zm-987 324c-56,-50 -102,-110 -136,-177 -211,60 -338,222 -462,379 -129,164 -253,323 -479,288 -401,-62 -525,-412 -522,-777 1,-160 48,-320 130,-460 236,-404 685,-564 1101,-321 128,75 238,145 331,212 48,-52 100,-93 165,-126 -109,-82 -240,-168 -396,-259 -511,-298 -1082,-105 -1374,394 -98,168 -155,362 -157,559 -3,468 187,897 692,975 341,52 501,-151 666,-361 118,-150 239,-304 441,-326z"/>
</svg>