<?xml version="1.0" encoding="UTF-8"?>
<!DOCTYPE svg PUBLIC "-//W3C//DTD SVG 1.1//EN" "http://www.w3.org/Graphics/SVG/1.1/DTD/svg11.dtd">
<svg xmlns="http://www.w3.org/2000/svg" xml:space="preserve" width="580px" height="580px" shape-rendering="geometricPrecision" text-rendering="geometricPrecision" image-rendering="optimizeQuality" fill-rule="nonzero" clip-rule="nonzero" viewBox="0 0 5800 5800" xmlns:xlink="http://www.w3.org/1999/xlink">
	<title>fancy_cake icon</title>
	<desc>fancy_cake icon from the IconExperience.com I-Collection. Copyright by INCORS GmbH (www.incors.com).</desc>
	<path id="curve0" d="M4662 971c24,46 36,87 36,131 0,106 -82,193 -187,199 50,5 89,48 89,99l0 1200c0,55 -45,100 -100,100 -55,0 -100,-45 -100,-100l0 -1200c0,-51 39,-93 89,-99 -106,-5 -189,-93 -189,-199 0,-65 33,-117 71,-177 44,-69 79,-141 117,-213l94 134c35,50 61,89 80,125zm-4262 1629c1,172 264,339 691,470 461,142 1100,230 1809,230 709,0 1348,-88 1809,-230 427,-131 691,-298 691,-470 0,-160 -227,-315 -601,-441l0 -210c496,158 801,387 801,651l0 2100c0,270 -318,503 -832,661 -480,148 -1141,239 -1868,239 -727,0 -1388,-91 -1868,-239 -514,-158 -832,-391 -832,-661l0 -2100c0,-264 305,-493 801,-651l0 210c-374,126 -601,281 -601,441zm3801 -591c-65,-12 -133,-23 -202,-33l0 -202c69,10 136,20 202,32l0 203zm-800 -94c-66,-4 -134,-7 -202,-10 0,-44 3,-94 -2,-138 17,-18 32,-39 45,-60 53,2 107,5 159,8l0 200zm-1802 -109c66,-12 133,-22 202,-32l0 202c-69,10 -137,21 -202,33l0 -203zm800 -91c52,-3 104,-6 157,-8 14,22 29,43 47,63 -5,42 -2,92 -2,135 -68,3 -136,6 -202,10l0 -200zm-1999 2985c0,172 264,339 691,470 461,142 1100,230 1809,230 709,0 1348,-88 1809,-230 427,-131 691,-298 691,-470l0 -532c-45,77 -92,138 -141,177 -167,136 -306,44 -436,-42 -55,-36 -107,-70 -125,-62 -41,18 -99,123 -158,232 -90,165 -185,338 -330,371 -134,32 -226,-57 -330,-159 -93,-89 -200,-193 -336,-166 -117,24 -178,117 -237,207 -91,140 -178,274 -407,274 -229,0 -316,-134 -407,-274 -59,-90 -120,-183 -237,-207 -136,-27 -244,77 -336,166 -104,102 -196,191 -330,159 -145,-33 -240,-206 -330,-371 -59,-109 -117,-214 -158,-232 -18,-8 -70,26 -125,62 -130,86 -269,178 -436,42 -49,-39 -96,-100 -141,-177l0 532zm5000 -1746c-144,119 -361,223 -632,307 -480,148 -1141,239 -1868,239 -727,0 -1388,-91 -1868,-239 -271,-84 -488,-188 -632,-307l0 729c47,125 94,237 142,328 44,86 86,149 124,180 54,43 130,-7 201,-54 101,-67 198,-131 316,-79 102,46 176,180 252,320 69,126 142,258 200,272 28,7 83,-47 146,-107 127,-124 275,-267 513,-220 200,40 285,170 366,295 61,93 119,182 240,182 121,0 179,-89 240,-182 81,-125 166,-255 366,-295 238,-47 386,96 513,220 63,60 118,114 146,107 58,-14 131,-146 200,-272 76,-140 150,-274 252,-320 118,-52 214,12 316,79 71,47 147,97 201,54 38,-31 80,-94 124,-180 48,-91 95,-203 142,-328l0 -729zm-3138 -2386c24,46 36,87 36,131 0,110 -89,199 -199,199 -110,0 -199,-89 -199,-199 0,-65 33,-117 71,-177 44,-69 79,-141 117,-213l94 134c35,49 61,89 80,125zm800 803c24,46 36,87 36,131 0,106 -82,193 -187,199 50,5 89,48 89,99l0 1200c0,55 -45,100 -100,100 -55,0 -100,-45 -100,-100l0 -1200c0,-51 39,-93 89,-99 -106,-5 -189,-93 -189,-199 0,-65 33,-117 71,-177 44,-69 79,-141 117,-213l94 134c35,50 61,89 80,125zm-1600 -400c24,46 36,87 36,131 0,106 -82,193 -187,199 50,5 89,48 89,99l0 1200c0,55 -45,100 -100,100 -55,0 -100,-45 -100,-100l0 -1200c0,-51 39,-93 89,-99 -106,-5 -189,-93 -189,-199 0,-65 33,-117 71,-177 44,-69 79,-141 117,-213l94 134c35,50 61,89 80,125zm2400 -400c24,46 36,87 36,131 0,106 -82,193 -187,199 50,5 89,48 89,99l0 1200c0,55 -45,100 -100,100 -55,0 -100,-45 -100,-100l0 -1200c0,-51 39,-93 89,-99 -106,-5 -189,-93 -189,-199 0,-65 33,-117 71,-177 44,-69 79,-141 117,-213l94 134c35,50 61,89 80,125zm-1862 429c0,-55 45,-100 100,-100 55,0 100,45 100,100l0 1200c0,55 -45,100 -100,100 -55,0 -100,-45 -100,-100l0 -1200z"/>
</svg>