<?xml version="1.0" encoding="UTF-8"?>
<!DOCTYPE svg PUBLIC "-//W3C//DTD SVG 1.1//EN" "http://www.w3.org/Graphics/SVG/1.1/DTD/svg11.dtd">
<svg xmlns="http://www.w3.org/2000/svg" xml:space="preserve" width="580px" height="580px" shape-rendering="geometricPrecision" text-rendering="geometricPrecision" image-rendering="optimizeQuality" fill-rule="nonzero" clip-rule="nonzero" viewBox="0 0 5800 5800" xmlns:xlink="http://www.w3.org/1999/xlink">
	<title>fancy_cake icon</title>
	<desc>fancy_cake icon from the IconExperience.com I-Collection. Copyright by INCORS GmbH (www.incors.com).</desc>
	<path id="curve0"  d="M4400 1400c0,-51 39,-93 89,-99 -106,-5 -189,-93 -189,-199 0,-91 71,-167 112,-245l76 -145 94 134c52,74 116,161 116,256 0,106 -82,193 -187,199 50,5 89,48 89,99l0 1200c0,55 -45,100 -100,100 -55,0 -100,-45 -100,-100l0 -1200zm-4200 1200c0,-264 305,-493 801,-651l0 651c0,165 134,299 299,299 165,0 299,-134 299,-299l0 -794c66,-12 133,-22 202,-32l0 426c0,165 134,299 299,299 165,0 299,-134 299,-299l0 -485c66,-4 134,-7 202,-10l0 1295c0,165 134,299 299,299 165,0 299,-134 299,-299l0 -1295c68,3 136,6 202,10l0 485c0,165 134,299 299,299 165,0 299,-134 299,-299l0 -426c69,10 136,20 202,32l0 794c0,165 134,299 299,299 165,0 299,-134 299,-299l0 -651c496,158 801,387 801,651 0,362 -552,575 -832,661 -480,148 -1141,239 -1868,239 -512,0 -992,-45 -1398,-124 -566,-101 -983,-263 -1137,-453 -107,-99 -165,-208 -165,-323zm5400 418l0 439c-37,8 -69,27 -98,54 -33,32 -84,110 -95,154 -50,133 -99,251 -149,346 -44,86 -86,149 -124,180 -54,43 -130,-7 -201,-54 -102,-67 -198,-131 -316,-79 -102,46 -176,180 -252,320 -69,126 -142,258 -200,272 -28,7 -83,-47 -146,-107 -127,-124 -275,-267 -513,-220 -200,40 -285,170 -366,295 -61,93 -119,182 -240,182 -121,0 -179,-89 -240,-182 -81,-125 -166,-255 -366,-295 -238,-47 -386,96 -513,220 -63,60 -118,114 -146,107 -58,-14 -131,-146 -200,-272 -76,-140 -150,-274 -252,-320 -118,-52 -215,12 -316,79 -71,47 -147,97 -201,54 -38,-31 -80,-94 -124,-180 -49,-94 -98,-210 -146,-340 -27,-87 -102,-194 -196,-214l0 -450c326,394 1411,684 2700,684 755,0 1440,-95 1938,-248 360,-111 627,-256 762,-425zm0 701l0 893 0 88c0,270 -318,503 -832,661 -480,148 -1141,239 -1868,239 -727,0 -1388,-91 -1868,-239 -514,-158 -832,-391 -832,-661l0 -981c2,8 6,15 9,22 52,140 104,264 155,362 57,109 115,192 177,242 167,136 306,44 436,-42 55,-36 107,-70 125,-62 41,18 99,123 158,232 90,165 185,338 330,371 134,32 226,-57 330,-159 92,-89 200,-193 336,-166 117,24 178,117 237,207 91,140 178,274 407,274 229,0 316,-134 407,-274 59,-90 120,-183 237,-207 136,-27 243,77 336,166 104,102 196,191 330,159 145,-33 240,-206 330,-371 59,-109 117,-214 158,-232 18,-8 70,26 125,62 130,86 269,178 436,42 62,-50 120,-133 177,-242 51,-99 104,-224 157,-367 0,0 6,-15 7,-17zm-3418 -3276c52,74 116,160 116,256 0,110 -89,199 -199,199 -110,0 -199,-89 -199,-199 0,-92 71,-167 112,-245l76 -145 94 134zm800 803c52,74 116,161 116,256 0,106 -82,193 -187,199 50,5 89,48 89,99l0 1200c0,55 -45,100 -100,100 -55,0 -100,-45 -100,-100l0 -1200c0,-51 39,-93 89,-99 -106,-5 -189,-93 -189,-199 0,-91 71,-167 112,-245l76 -145 94 134zm-1600 -400c52,74 116,161 116,256 0,106 -82,193 -187,199 50,5 89,48 89,99l0 1200c0,55 -45,100 -100,100 -55,0 -100,-45 -100,-100l0 -1200c0,-51 39,-93 89,-99 -106,-5 -189,-93 -189,-199 0,-91 71,-167 112,-245l76 -145 94 134zm2400 -400c52,74 116,161 116,256 0,106 -82,193 -187,199 50,5 89,48 89,99l0 1200c0,55 -45,100 -100,100 -55,0 -100,-45 -100,-100l0 -1200c0,-51 39,-93 89,-99 -106,-5 -189,-93 -189,-199 0,-91 71,-167 112,-245l76 -145 94 134zm-1782 554c0,-55 45,-100 100,-100 55,0 100,45 100,100l0 1200c0,55 -45,100 -100,100 -55,0 -100,-45 -100,-100l0 -1200z"/>
</svg>