<?xml version="1.0" encoding="UTF-8"?>
<!DOCTYPE svg PUBLIC "-//W3C//DTD SVG 1.1//EN" "http://www.w3.org/Graphics/SVG/1.1/DTD/svg11.dtd">
<svg xmlns="http://www.w3.org/2000/svg" xml:space="preserve" width="580px" height="580px" shape-rendering="geometricPrecision" text-rendering="geometricPrecision" image-rendering="optimizeQuality" fill-rule="nonzero" clip-rule="nonzero" viewBox="0 0 5800 5800" xmlns:xlink="http://www.w3.org/1999/xlink">
	<title>fax_machine icon</title>
	<desc>fax_machine icon from the IconExperience.com I-Collection. Copyright by INCORS GmbH (www.incors.com).</desc>
		<path id="curve28"  d="M1784 1900l3284 0c238,0 432,194 432,432l0 2736c0,238 -194,432 -432,432l-3448 0c14,-12 28,-25 41,-38 159,-159 239,-379 239,-661l-1 -101c0,-370 -137,-520 -257,-651 -22,-24 -42,-45 -42,-49l0 -800c0,-26 24,-7 52,-46 111,-152 247,-339 247,-654l0 -100c0,-197 -39,-364 -115,-500zm716 400l0 800 2200 0 0 -800 -2200 0zm1600 2200l0 400 600 0 0 -400 -600 0zm-800 0l0 400 600 0 0 -400 -600 0zm-800 0l0 400 600 0 0 -400 -600 0zm1600 -600l0 400 600 0 0 -400 -600 0zm-800 0l0 400 600 0 0 -400 -600 0zm-800 0l0 400 600 0 0 -400 -600 0zm1600 -600l0 400 600 0 0 -400 -600 0zm-800 0l0 400 600 0 0 -400 -600 0zm-800 0l0 400 600 0 0 -400 -600 0zm-1500 -1600c456,0 699,245 700,700l0 100c0,249 -116,408 -210,537 -49,67 -90,124 -90,163l0 800c0,80 45,129 95,184 95,104 204,223 205,516l0 101c0,455 -245,698 -699,699 -448,0 -701,-258 -701,-700l0 -100c0,-300 113,-425 209,-532 49,-54 91,-101 91,-168l0 -800c0,-80 -45,-129 -95,-184 -95,-104 -205,-223 -205,-516l0 -100c0,-455 245,-700 700,-700zm900 -200l2600 0 0 200 -2600 0 0 -200zm0 -400l2600 0 0 200 -2600 0 0 -200zm0 -400l2600 0 0 200 -2600 0 0 -200zm-600 836l0 -1236 3800 0 0 1400 -200 0 0 -1200 -3400 0 0 1115c-61,-34 -127,-60 -200,-79z"/>
</svg>