<?xml version="1.0" encoding="UTF-8"?>
<!DOCTYPE svg PUBLIC "-//W3C//DTD SVG 1.1//EN" "http://www.w3.org/Graphics/SVG/1.1/DTD/svg11.dtd">
<svg xmlns="http://www.w3.org/2000/svg" xml:space="preserve" width="580px" height="580px" shape-rendering="geometricPrecision" text-rendering="geometricPrecision" image-rendering="optimizeQuality" fill-rule="nonzero" clip-rule="nonzero" viewBox="0 0 5800 5800" xmlns:xlink="http://www.w3.org/1999/xlink">
	<title>fax_machine icon</title>
	<desc>fax_machine icon from the IconExperience.com I-Collection. Copyright by INCORS GmbH (www.incors.com).</desc>
		<path id="curve29" d="M5068 2100l-3204 0c-19,-70 -45,-137 -80,-200l3284 0c238,0 432,194 432,432l0 2736c0,238 -194,432 -432,432l-3447 0c14,-12 28,-25 41,-38 49,-49 90,-104 123,-162l3283 0c128,0 232,-104 232,-232l0 -2736c0,-128 -104,-232 -232,-232zm-468 200l100 0 0 700 0 100 -100 0 -2000 0 -100 0 0 -100 0 -700 2100 0zm-500 2200l600 0 0 400 -600 0 0 -400zm-800 0l600 0 0 400 -600 0 0 -400zm-800 0l600 0 0 400 -600 0 0 -400zm1600 -600l600 0 0 400 -600 0 0 -400zm-800 0l600 0 0 400 -600 0 0 -400zm-800 0l600 0 0 400 -600 0 0 -400zm1600 -600l600 0 0 400 -600 0 0 -400zm-800 0l600 0 0 400 -600 0 0 -400zm-800 0l600 0 0 400 -600 0 0 -400zm2000 -800l-1800 0 0 400 1800 0 0 -400zm-3500 3000c-227,0 -401,-60 -521,-179 -119,-120 -179,-293 -179,-521l0 -100c0,-300 113,-425 209,-532 49,-54 91,-101 91,-168l0 -800c0,-80 -45,-129 -95,-184 -95,-104 -205,-223 -205,-516l0 -100c0,-456 245,-699 700,-700 456,0 699,245 700,700l0 100c0,249 -116,408 -210,537 -49,67 -90,124 -90,163l0 800c0,80 45,129 95,184 95,104 204,223 205,516l0 101c0,227 -60,400 -180,520 -119,119 -292,178 -520,179zm-14 -200c147,0 296,-23 393,-121 98,-98 122,-244 121,-377l0 -101c-1,-179 -36,-255 -153,-382 -87,-96 -147,-182 -147,-319l0 -800c0,-108 68,-197 128,-281 99,-135 172,-244 172,-419l0 -100c-1,-329 -141,-491 -471,-500 -353,1 -531,127 -529,499l0 100c1,179 36,255 152,382 88,96 148,182 148,319l0 800c0,128 -61,212 -142,302 -119,132 -158,212 -158,398l0 100c0,132 23,282 121,379 90,91 225,117 365,121z"/>
	<path id="curve28" d="M1900 1500l2600 0 0 200 -2600 0 0 -200zm0 -400l2600 0 0 200 -2600 0 0 -200zm-600 436l0 -1236 3800 0 0 1400 -200 0 0 -1200 -3400 0 0 1115c-63,-35 -130,-61 -200,-79zm600 -836l2600 0 0 200 -2600 0 0 -200z"/>
</svg>