<?xml version="1.0" encoding="UTF-8"?>
<!DOCTYPE svg PUBLIC "-//W3C//DTD SVG 1.1//EN" "http://www.w3.org/Graphics/SVG/1.1/DTD/svg11.dtd">
<svg xmlns="http://www.w3.org/2000/svg" xml:space="preserve" width="580px" height="580px" shape-rendering="geometricPrecision" text-rendering="geometricPrecision" image-rendering="optimizeQuality" fill-rule="nonzero" clip-rule="nonzero" viewBox="0 0 5800 5800" xmlns:xlink="http://www.w3.org/1999/xlink">
	<title>feeding_bottle icon</title>
	<desc>feeding_bottle icon from the IconExperience.com I-Collection. Copyright by INCORS GmbH (www.incors.com).</desc>
		<path id="curve28"  d="M2300 4500l0 -400 400 0 0 -200 -400 0 0 -400 400 0 0 -200 -400 0 0 -400 400 0 0 -200 -400 0 0 -200 -200 0 0 2400 200 0 0 -200 400 0 0 -200 -400 0zm1640 -2450c217,95 360,311 360,550l0 2300c0,331 -269,600 -600,600l-1600 0c-331,0 -600,-269 -600,-600l0 -2300c0,-239 143,-455 360,-550l2080 0zm-1678 -665c19,-8 51,-17 90,-28 63,-17 148,-41 203,-69 0,-2 45,-13 43,-69 -3,-72 -60,-167 -103,-225 -61,-85 -95,-189 -95,-294 0,-276 224,-500 500,-500 276,0 500,224 500,500 0,105 -34,208 -95,294 -43,58 -100,153 -103,225 0,23 6,44 26,59 47,34 162,63 220,79 39,11 71,20 90,28 115,48 205,115 268,203 53,74 84,161 92,262l-1996 0c8,-101 39,-188 92,-262 63,-88 153,-155 268,-203z"/>
</svg>