<?xml version="1.0" encoding="UTF-8"?>
<!DOCTYPE svg PUBLIC "-//W3C//DTD SVG 1.1//EN" "http://www.w3.org/Graphics/SVG/1.1/DTD/svg11.dtd">
<svg xmlns="http://www.w3.org/2000/svg" xml:space="preserve" width="580px" height="580px" shape-rendering="geometricPrecision" text-rendering="geometricPrecision" image-rendering="optimizeQuality" fill-rule="nonzero" clip-rule="nonzero" viewBox="0 0 5800 5800" xmlns:xlink="http://www.w3.org/1999/xlink">
	<title>feeding_bottle icon</title>
	<desc>feeding_bottle icon from the IconExperience.com I-Collection. Copyright by INCORS GmbH (www.incors.com).</desc>
		<path id="curve28"  d="M2300 2500l0 200 400 0 0 200 -400 0 0 400 400 0 0 200 -400 0 0 400 400 0 0 200 -400 0 0 400 400 0 0 200 -400 0 0 200 -200 0 0 -2400 200 0zm255 -1212c29,-15 44,-32 43,-69 -2,-37 -18,-81 -38,-121 -45,-89 -103,-143 -135,-244 -16,-49 -25,-101 -25,-154 0,-276 224,-500 500,-500 276,0 500,224 500,500 0,53 -9,105 -25,154 -32,101 -90,155 -135,244 -20,40 -36,84 -38,121 0,23 6,44 26,59 47,34 162,63 220,79 144,40 269,106 358,231 61,86 94,190 94,312l0 134c239,85 400,312 400,566l0 2300c0,331 -269,600 -600,600l-1600 0c-331,0 -600,-269 -600,-600l0 -2300c0,-254 161,-481 400,-566l0 -134c0,-122 33,-226 94,-312 89,-126 214,-191 358,-231 63,-17 148,-41 203,-69zm-455 912c-220,0 -400,180 -400,400l0 2300c0,220 180,400 400,400l1600 0c220,0 400,-180 400,-400l0 -2300c0,-220 -180,-400 -400,-400l-1600 0zm544 -734c-74,37 -169,64 -239,83 -98,28 -187,69 -248,155 -37,52 -57,117 -57,196l0 100 1600 0 0 -100c0,-79 -20,-144 -57,-196 -61,-86 -150,-127 -248,-155 -86,-24 -212,-57 -284,-110 -83,-60 -111,-140 -108,-226 3,-71 28,-143 59,-204 36,-73 100,-145 124,-216 9,-29 14,-60 14,-93 0,-166 -134,-300 -300,-300 -166,0 -300,134 -300,300 0,33 5,64 14,93 24,71 88,143 124,216 31,61 56,133 59,204 4,116 -53,204 -153,253z"/>
</svg>