<?xml version="1.0" encoding="UTF-8"?>
<!DOCTYPE svg PUBLIC "-//W3C//DTD SVG 1.1//EN" "http://www.w3.org/Graphics/SVG/1.1/DTD/svg11.dtd">
<svg xmlns="http://www.w3.org/2000/svg" xml:space="preserve" width="580px" height="580px" shape-rendering="geometricPrecision" text-rendering="geometricPrecision" image-rendering="optimizeQuality" fill-rule="nonzero" clip-rule="nonzero" viewBox="0 0 5800 5800" xmlns:xlink="http://www.w3.org/1999/xlink">
	<title>fence icon</title>
	<desc>fence icon from the IconExperience.com I-Collection. Copyright by INCORS GmbH (www.incors.com).</desc>
		<path id="curve28"  d="M4330 1428l299 -299c39,-39 103,-39 142,0l300 300c19,20 29,45 29,71l0 800 400 0 0 200 -400 0 0 200 400 0 0 200 -400 0 0 1000 400 0 0 200 -400 0 0 200 400 0 0 200 -400 0 0 900c0,55 -45,100 -100,100l-600 0c-55,0 -100,-45 -100,-100l0 -900 -400 0 0 900c0,55 -45,100 -100,100l-600 0c-55,0 -100,-45 -100,-100l0 -900 -400 0 0 900c0,55 -45,100 -100,100l-600 0c-55,0 -100,-45 -100,-100l0 -900 -400 0 0 900c0,55 -45,100 -100,100l-600 0c-55,0 -100,-45 -100,-100l0 -900 -400 0 0 -200 400 0 0 -200 -400 0 0 -200 400 0 0 -1000 -400 0 0 -200 400 0 0 -200 -400 0 0 -200 400 0 0 -800c0,-28 12,-54 30,-72l299 -299c39,-39 103,-39 142,0l300 300c19,20 29,45 29,71l0 800 400 0 0 -800c0,-28 12,-54 30,-72l299 -299c39,-39 103,-39 142,0l300 300c19,20 29,45 29,71l0 800 400 0 0 -800c0,-28 12,-54 30,-72l299 -299c39,-39 103,-39 142,0l300 300c19,20 29,45 29,71l0 800 400 0 0 -800c0,-28 12,-54 30,-72zm-30 2872l0 -200 -400 0 0 200 400 0zm0 -400l0 -1000 -400 0 0 1000 400 0zm0 -1200l0 -200 -400 0 0 200 400 0zm-2400 -200l-400 0 0 200 400 0 0 -200zm1200 0l-400 0 0 200 400 0 0 -200zm-1600 1800l400 0 0 -200 -400 0 0 200zm1200 0l400 0 0 -200 -400 0 0 200zm-1200 -400l400 0 0 -1000 -400 0 0 1000zm1200 0l400 0 0 -1000 -400 0 0 1000zm-1600 -2559l-200 200 0 3759 400 0 0 -3759 -200 -200zm1200 0l-200 200 0 3759 400 0 0 -3759 -200 -200zm1200 0l-200 200 0 3759 400 0 0 -3759 -200 -200zm1200 0l-200 200 0 3759 400 0 0 -3759 -200 -200z"/>
</svg>