<?xml version="1.0" encoding="UTF-8"?>
<!DOCTYPE svg PUBLIC "-//W3C//DTD SVG 1.1//EN" "http://www.w3.org/Graphics/SVG/1.1/DTD/svg11.dtd">
<svg xmlns="http://www.w3.org/2000/svg" xml:space="preserve" width="580px" height="580px" shape-rendering="geometricPrecision" text-rendering="geometricPrecision" image-rendering="optimizeQuality" fill-rule="nonzero" clip-rule="nonzero" viewBox="0 0 5800 5800" xmlns:xlink="http://www.w3.org/1999/xlink">
	<title>fence icon</title>
	<desc>fence icon from the IconExperience.com I-Collection. Copyright by INCORS GmbH (www.incors.com).</desc>
		<path id="curve28"  d="M5500 4500c-133,0 -267,0 -400,0l0 900c0,55 -45,100 -100,100l-600 0c-55,0 -100,-45 -100,-100l0 -900 -400 0 0 900c0,55 -45,100 -100,100l-600 0c-55,0 -100,-45 -100,-100l0 -900 -400 0 0 900c0,55 -45,100 -100,100l-600 0c-55,0 -100,-45 -100,-100l0 -900 -400 0 0 900c0,55 -45,100 -100,100l-600 0c-55,0 -100,-45 -100,-100l0 -900c-133,0 -267,0 -400,0 0,-200 0,-400 0,-600l300 0 100 0 0 -1000c-133,0 -267,0 -400,0 0,-200 0,-400 0,-600l400 0 0 -800c0,-28 12,-54 30,-72l299 -299c39,-39 103,-39 142,0l300 300c19,20 29,45 29,71l0 800c133,0 267,0 400,0l0 -800c0,-28 12,-54 30,-72l299 -299c39,-39 103,-39 142,0l300 300c19,20 29,45 29,71l0 800c133,0 267,0 400,0l0 -800c0,-28 12,-54 30,-72l299 -299c39,-39 103,-39 142,0l300 300c19,20 29,45 29,71l0 800c133,0 267,0 400,0l0 -800c0,-28 12,-54 30,-72l299 -299c39,-39 103,-39 142,0l300 300c19,20 29,45 29,71l0 800c133,0 267,0 400,0 0,200 0,400 0,600 -133,0 -267,0 -400,0l0 1000c133,0 267,0 400,0 0,200 0,400 0,600zm-4000 -600c133,0 267,0 400,0l0 -1000c-133,0 -267,0 -400,0l0 1000zm1200 0c133,0 267,0 400,0l0 -1000c-133,0 -267,0 -400,0l0 1000zm1200 0c133,0 267,0 400,0l0 -1000c-133,0 -267,0 -400,0l0 1000z"/>
</svg>