<?xml version="1.0" encoding="utf-8"?>
<!-- Generator: Adobe Illustrator 23.0.3, SVG Export Plug-In . SVG Version: 6.00 Build 0)  -->
<svg version="1.1" id="Ebene_1" xmlns="http://www.w3.org/2000/svg" xmlns:xlink="http://www.w3.org/1999/xlink" x="0px" y="0px"
	 viewBox="0 0 580 580" style="enable-background:new 0 0 580 580;" xml:space="preserve">
<title>address_book2 icon</title>
<desc>address_book2 icon from the IconExperience.com I-Collection. Copyright by INCORS GmbH (www.incors.com).</desc>
<title>address_book2 icon</title>
<desc>address_book2 icon from the IconExperience.com I-Collection. Copyright by INCORS GmbH (www.incors.com).</desc>
<g>
	<path d="M10,98.5v250h211.3c-0.1-2.3-0.2-4.6-0.2-7c0-4.4,0.2-8.7,0.5-13H30v-210h520v210h-9.4c0.3,4.3,0.5,8.6,0.5,13
		c0,2.3-0.1,4.7-0.2,7h29v-250H10z"/>
	<path d="M381.1,201.5c-77.3,0-140,62.7-140,140s62.7,140,140,140s140-62.7,140-140S458.4,201.5,381.1,201.5z M381.1,461.5
		c-66.3,0-120-53.7-120-120s53.7-120,120-120s120,53.7,120,120S447.4,461.5,381.1,461.5z"/>
	<path d="M381.4,291.5c-27.6,0-50,22.4-50,50s22.4,50,50,50c27.6,0,50-22.4,50-50S409,291.5,381.4,291.5z M381.4,371.5
		c-16.6,0-30-13.4-30-30s13.4-30,30-30c16.6,0,30,13.4,30,30S398,371.5,381.4,371.5z"/>
	<path d="M381.4,246.5c-52.5,0-95,42.5-95,95s42.5,95,95,95s95-42.5,95-95S433.9,246.5,381.4,246.5z M381.4,416.5
		c-41.4,0-75-33.6-75-75s33.6-75,75-75c41.4,0,75,33.6,75,75S422.8,416.5,381.4,416.5z"/>
</g>
</svg>
