<?xml version="1.0" encoding="utf-8"?>
<!-- Generator: Adobe Illustrator 23.0.3, SVG Export Plug-In . SVG Version: 6.00 Build 0)  -->
<svg version="1.1" id="Ebene_1" xmlns="http://www.w3.org/2000/svg" xmlns:xlink="http://www.w3.org/1999/xlink" x="0px" y="0px"
	 viewBox="0 0 580 580" style="enable-background:new 0 0 580 580;" xml:space="preserve">
<style type="text/css">
	.st0{display:none;}
	.st1{display:inline;}
</style>
<title>address_book2 icon</title>
<desc>address_book2 icon from the IconExperience.com I-Collection. Copyright by INCORS GmbH (www.incors.com).</desc>
<title>address_book2 icon</title>
<desc>address_book2 icon from the IconExperience.com I-Collection. Copyright by INCORS GmbH (www.incors.com).</desc>
<title>address_book2 icon</title>
<desc>address_book2 icon from the IconExperience.com I-Collection. Copyright by INCORS GmbH (www.incors.com).</desc>
<g class="st0">
	<path class="st1" d="M190.7,388.3h-24v-23.4h-0.6c-10.5,18-25.8,27-46.1,27c-14.9,0-26.6-4-35.1-11.9c-8.4-7.9-12.7-18.4-12.7-31.5
		c0-28,16.5-44.3,49.5-48.9l45-6.3c0-25.5-10.3-38.2-30.9-38.2c-18.1,0-34.4,6.2-48.9,18.5v-24.6c14.7-9.4,31.7-14.1,51-14.1
		c35.3,0,52.9,18.7,52.9,56V388.3z M166.7,312.4l-36.2,5c-11.1,1.6-19.5,4.3-25.2,8.3c-5.7,4-8.5,11-8.5,21c0,7.3,2.6,13.3,7.8,17.9
		c5.2,4.6,12.2,7,20.9,7c11.9,0,21.8-4.2,29.5-12.5s11.6-18.9,11.6-31.7V312.4z"/>
	<path class="st1" d="M260.6,366.6H260v21.7h-24V166.2h24v98.4h0.6c11.8-19.9,29.1-29.9,51.9-29.9c19.2,0,34.3,6.7,45.2,20.1
		c10.9,13.4,16.3,31.4,16.3,54c0,25.1-6.1,45.2-18.3,60.3c-12.2,15.1-28.9,22.6-50.1,22.6C285.7,391.8,270.7,383.4,260.6,366.6z
		 M260,306.1V327c0,12.4,4,22.9,12.1,31.6s18.3,13,30.7,13c14.5,0,26-5.6,34.2-16.7c8.3-11.1,12.4-26.6,12.4-46.4
		c0-16.7-3.9-29.8-11.6-39.3c-7.7-9.5-18.2-14.2-31.3-14.2c-14,0-25.2,4.9-33.7,14.6C264.2,279.3,260,291.5,260,306.1z"/>
</g>
<path class="st0" d="M10,104v350h560V104H10z M550,434H30V124h520V434z"/>
<g>
	<path d="M10,94.6v250h222.3l20-20H30v-210h520v59l10.4,10.4c3.7,3.7,6.9,7.8,9.6,12.2V94.6H10z"/>
	<path d="M550,288v36.6h-36.6l-20,20H570v-79.2c-2.7,4.3-5.8,8.4-9.6,12.2L550,288z"/>
	<path d="M534.6,212.2L498,175.6c-10-10.1-26.6-10.1-36.6,0L257.9,379l-18.8,51.8l-3.5,9.5l-10.1,27.8c-1.7,4.8-0.6,10,3,13.5
		c3.6,3.6,8.8,4.8,13.5,3l27.8-10.1l9.5-3.5l51.8-18.8l203.4-203.5C544.7,238.7,544.7,222.3,534.6,212.2z M263.9,455.6l-8.2-8.1
		l19.6-53.9l41.8,41.8L263.9,455.6z M334.2,422l-44.8-44.6L422.8,244l44.8,44.8L334.2,422z M517.4,239.2l-36.7,35.3l-45-44.5
		l36.7-36.3c4-3.8,10.5-3.8,14.5,0l30.5,31.5C521.4,229.2,521.4,235.3,517.4,239.2z"/>
</g>
<title>address_book2 icon</title>
<desc>address_book2 icon from the IconExperience.com I-Collection. Copyright by INCORS GmbH (www.incors.com).</desc>
</svg>
