<?xml version="1.0" encoding="UTF-8"?>
<!DOCTYPE svg PUBLIC "-//W3C//DTD SVG 1.1//EN" "http://www.w3.org/Graphics/SVG/1.1/DTD/svg11.dtd">
<svg xmlns="http://www.w3.org/2000/svg" xml:space="preserve" width="580px" height="580px" shape-rendering="geometricPrecision" text-rendering="geometricPrecision" image-rendering="optimizeQuality" fill-rule="nonzero" clip-rule="nonzero" viewBox="0 0 5800 5800" xmlns:xlink="http://www.w3.org/1999/xlink">
	<title>film icon</title>
	<desc>film icon from the IconExperience.com I-Collection. Copyright by INCORS GmbH (www.incors.com).</desc>
		<path id="curve28" d="M1100 300l0 5200 -200 0 0 -5200 200 0zm3800 0l0 5200 -200 0 0 -5200 200 0zm-2900 800l1800 0c165,0 300,135 300,300l0 1200c0,165 -135,300 -300,300l-1800 0c-165,0 -300,-135 -300,-300l0 -1200c0,-165 135,-300 300,-300zm1800 200l-1800 0c-55,0 -100,45 -100,100l0 1200c0,55 45,100 100,100l1800 0c55,0 100,-45 100,-100l0 -1200c0,-55 -45,-100 -100,-100zm300 -1000l0 300c0,165 -135,300 -300,300l-1800 0c-165,0 -300,-135 -300,-300l0 -300 200 0 0 300c0,55 45,100 100,100l1800 0c55,0 100,-45 100,-100l0 -300 200 0zm-2100 2800l1800 0c165,0 300,135 300,300l0 1200c0,165 -135,300 -300,300l-1800 0c-165,0 -300,-135 -300,-300l0 -1200c0,-165 135,-300 300,-300zm1800 200l-1800 0c-55,0 -100,45 -100,100l0 1200c0,55 45,100 100,100l1800 0c55,0 100,-45 100,-100l0 -1200c0,-55 -45,-100 -100,-100zm-2500 -3000l200 0 0 200 -200 0 0 -200zm0 400l200 0 0 200 -200 0 0 -200zm0 400l200 0 0 200 -200 0 0 -200zm0 400l200 0 0 200 -200 0 0 -200zm0 400l200 0 0 200 -200 0 0 -200zm400 3600l0 -100c0,-165 135,-300 300,-300l1800 0c165,0 300,135 300,300l0 100 -200 0 0 -100c0,-55 -45,-100 -100,-100l-1800 0c-55,0 -100,45 -100,100l0 100 -200 0zm-400 -3200l200 0 0 200 -200 0 0 -200zm0 400l200 0 0 200 -200 0 0 -200zm0 400l200 0 0 200 -200 0 0 -200zm0 400l200 0 0 200 -200 0 0 -200zm0 400l200 0 0 200 -200 0 0 -200zm0 400l200 0 0 200 -200 0 0 -200zm0 400l200 0 0 200 -200 0 0 -200zm0 400l200 0 0 200 -200 0 0 -200zm3000 -4800l200 0 0 200 -200 0 0 -200zm0 400l200 0 0 200 -200 0 0 -200zm0 400l200 0 0 200 -200 0 0 -200zm0 400l200 0 0 200 -200 0 0 -200zm0 400l200 0 0 200 -200 0 0 -200zm0 400l200 0 0 200 -200 0 0 -200zm0 400l200 0 0 200 -200 0 0 -200zm0 400l200 0 0 200 -200 0 0 -200zm0 400l200 0 0 200 -200 0 0 -200zm0 400l200 0 0 200 -200 0 0 -200zm0 400l200 0 0 200 -200 0 0 -200zm0 400l200 0 0 200 -200 0 0 -200zm0 400l200 0 0 200 -200 0 0 -200z"/>
</svg>