<?xml version="1.0" encoding="UTF-8"?>
<!DOCTYPE svg PUBLIC "-//W3C//DTD SVG 1.1//EN" "http://www.w3.org/Graphics/SVG/1.1/DTD/svg11.dtd">
<svg xmlns="http://www.w3.org/2000/svg" xml:space="preserve" width="580px" height="580px" shape-rendering="geometricPrecision" text-rendering="geometricPrecision" image-rendering="optimizeQuality" fill-rule="nonzero" clip-rule="nonzero" viewBox="0 0 5800 5800" xmlns:xlink="http://www.w3.org/1999/xlink">
	<title>film_cartridge icon</title>
	<desc>film_cartridge icon from the IconExperience.com I-Collection. Copyright by INCORS GmbH (www.incors.com).</desc>
		<path id="curve28"  d="M500 4500l0 -2800 -200 0 0 -600 800 0 0 -300c367,0 733,0 1100,0l0 300 900 0c0,200 0,400 0,600l-200 0 0 2800 200 0c0,200 0,400 0,600l-2800 0c0,-200 0,-400 0,-600l200 0zm2600 -2600l2200 0c220,0 400,180 400,400l0 600c0,220 -180,400 -400,400l-700 0c-55,0 -100,45 -100,100l0 500c0,220 -180,400 -400,400l-1000 0 0 -400 200 0 0 -200 -200 0 0 -1200 200 0 0 -200 -200 0 0 -400zm400 400l0 200 200 0 0 -200 -200 0zm400 0l0 200 200 0 0 -200 -200 0zm400 0l0 200 200 0 0 -200 -200 0zm400 0l0 200 200 0 0 -200 -200 0zm-1200 1400l0 200 200 0 0 -200 -200 0zm400 0l0 200 200 0 0 -200 -200 0zm1200 -1400l0 200 200 0 0 -200 -200 0z"/>
</svg>