<?xml version="1.0" encoding="UTF-8"?>
<!DOCTYPE svg PUBLIC "-//W3C//DTD SVG 1.1//EN" "http://www.w3.org/Graphics/SVG/1.1/DTD/svg11.dtd">
<svg xmlns="http://www.w3.org/2000/svg" xml:space="preserve" width="580px" height="580px" shape-rendering="geometricPrecision" text-rendering="geometricPrecision" image-rendering="optimizeQuality" fill-rule="nonzero" clip-rule="nonzero" viewBox="0 0 5800 5800" xmlns:xlink="http://www.w3.org/1999/xlink">
	<title>film_cartridge icon</title>
	<desc>film_cartridge icon from the IconExperience.com I-Collection. Copyright by INCORS GmbH (www.incors.com).</desc>
		<path id="curve29"  d="M5100 2300l200 0 0 200 -200 0 0 -200zm-2000 -400l2200 0c220,0 400,180 400,400l0 600c0,220 -180,400 -400,400l-700 0c-55,0 -100,45 -100,100l0 500c0,220 -180,400 -400,400l-1000 0 0 -200 1000 0c110,0 200,-90 200,-200l0 -500c0,-165 135,-300 300,-300l700 0c110,0 200,-90 200,-200l0 -600c0,-110 -90,-200 -200,-200l-2200 0 0 -200zm0 400l200 0 0 200 -200 0 0 -200zm400 0l200 0 0 200 -200 0 0 -200zm400 0l200 0 0 200 -200 0 0 -200zm400 0l200 0 0 200 -200 0 0 -200zm400 0l200 0 0 200 -200 0 0 -200zm-1600 1400l200 0 0 200 -200 0 0 -200zm400 0l200 0 0 200 -200 0 0 -200zm400 0l200 0 0 200 -200 0 0 -200z"/>
	<path id="curve28"  d="M1100 1100l0 -300 1100 0 0 300 900 0 0 600 -200 0c0,933 0,1867 0,2800l200 0c0,200 0,400 0,600l-2800 0c0,-200 0,-400 0,-600l200 0 0 -2800 -200 0 0 -600 800 0zm-600 200l0 200 2400 0 0 -200 -900 0 0 -300 -700 0 0 300 -800 0zm0 3400l0 200 2400 0 0 -200 -2400 0zm2200 -3000l-2000 0 0 2800 2000 0c0,-933 0,-1867 0,-2800z"/>
</svg>