<?xml version="1.0" encoding="UTF-8"?>
<!DOCTYPE svg PUBLIC "-//W3C//DTD SVG 1.1//EN" "http://www.w3.org/Graphics/SVG/1.1/DTD/svg11.dtd">
<svg xmlns="http://www.w3.org/2000/svg" xml:space="preserve" width="580px" height="580px" shape-rendering="geometricPrecision" text-rendering="geometricPrecision" image-rendering="optimizeQuality" fill-rule="nonzero" clip-rule="nonzero" viewBox="0 0 5800 5800" xmlns:xlink="http://www.w3.org/1999/xlink">
	<title>filter_and_sort icon</title>
	<desc>filter_and_sort icon from the IconExperience.com I-Collection. Copyright by INCORS GmbH (www.incors.com).</desc>
		<path id="curve29"  d="M2900 300c531,0 1013,46 1364,119 167,36 636,150 636,381l0 500c0,149 -61,282 -175,379l-1155 991c-48,40 -70,90 -70,152l0 662c0,200 -312,453 -606,573 -77,32 -153,55 -222,67 -181,31 -372,-18 -372,-240l0 -1062c0,-62 -23,-112 -70,-152l-1155 -991c-114,-97 -175,-230 -175,-379l0 -500c5,-234 464,-344 636,-381 351,-73 833,-119 1364,-119zm1800 737c-108,57 -256,106 -436,143 -351,74 -833,120 -1364,120 -531,0 -1013,-46 -1364,-120 -180,-37 -328,-86 -436,-143l0 263c0,92 34,168 105,228l1155 990c91,78 140,184 140,304l0 1062c0,25 10,38 25,43 28,9 68,8 115,0 55,-10 116,-28 179,-54 233,-95 481,-271 481,-389l0 -662c0,-119 49,-226 140,-304l1155 -990c71,-60 105,-136 105,-228l0 -263zm-477 -422c-337,-71 -804,-115 -1323,-115 -519,0 -986,44 -1323,115 -295,62 -477,128 -477,185 0,57 182,123 477,185 337,71 804,115 1323,115 519,0 986,-44 1323,-115 295,-62 477,-128 477,-185 0,-57 -182,-123 -477,-185z"/>
	<path id="curve28"  d="M1700 3800l0 1459 729 -730 142 142 -900 900 -71 70 -71 -70 -900 -900 142 -142 729 730 0 -1459 200 0zm2400 1700l0 -1459 -729 730 -142 -142 900 -900 71 -70 71 70 900 900 -142 142 -729 -730 0 1459 -200 0z"/>
</svg>