<?xml version="1.0" encoding="UTF-8"?>
<!DOCTYPE svg PUBLIC "-//W3C//DTD SVG 1.1//EN" "http://www.w3.org/Graphics/SVG/1.1/DTD/svg11.dtd">
<svg xmlns="http://www.w3.org/2000/svg" xml:space="preserve" width="580px" height="580px" shape-rendering="geometricPrecision" text-rendering="geometricPrecision" image-rendering="optimizeQuality" fill-rule="nonzero" clip-rule="nonzero" viewBox="0 0 5800 5800" xmlns:xlink="http://www.w3.org/1999/xlink">
	<title>filter_and_sort icon</title>
	<desc>filter_and_sort icon from the IconExperience.com I-Collection. Copyright by INCORS GmbH (www.incors.com).</desc>
		<path id="curve30"  d="M4100,5500 4100,4041 3371,4771 3229,4629 4200,3659 5171,4629 5029,4771 4300,4041 4300,5500z"/>
	<path id="curve29"  d="M1700,3800 1700,5259 2429,4529 2571,4671 1600,5641 629,4671 771,4529 1500,5259 1500,3800z"/>
	<path id="curve28"  d="M2900 300c531,0 1013,46 1364,119 388,82 630,214 636,375l0 506c0,149 -61,282 -175,379l-1155 991c-48,40 -70,90 -70,152l0 662c0,200 -312,453 -606,573 -124,51 -297,102 -428,61 -103,-32 -166,-106 -166,-234l0 -1062c0,-62 -23,-112 -70,-152l-1155 -991c-114,-97 -175,-230 -175,-379l0 -504c4,-163 247,-294 636,-377 351,-73 833,-119 1364,-119zm1323 315c-337,-71 -804,-115 -1323,-115 -519,0 -986,44 -1323,115 -295,62 -477,128 -477,185 0,57 182,123 477,185 337,71 804,115 1323,115 519,0 986,-44 1323,-115 295,-62 477,-128 477,-185 0,-57 -182,-123 -477,-185z"/>
</svg>