<?xml version="1.0" encoding="UTF-8"?>
<!DOCTYPE svg PUBLIC "-//W3C//DTD SVG 1.1//EN" "http://www.w3.org/Graphics/SVG/1.1/DTD/svg11.dtd">
<svg xmlns="http://www.w3.org/2000/svg" xml:space="preserve" width="580px" height="580px" shape-rendering="geometricPrecision" text-rendering="geometricPrecision" image-rendering="optimizeQuality" fill-rule="nonzero" clip-rule="nonzero" viewBox="0 0 5800 5800" xmlns:xlink="http://www.w3.org/1999/xlink">
	<title>find_again icon</title>
	<desc>find_again icon from the IconExperience.com I-Collection. Copyright by INCORS GmbH (www.incors.com).</desc>
		<path id="curve28" d="M700 1400c0,-606 494,-1100 1100,-1100l100 0c606,0 1100,494 1100,1100l0 1959 829 -830 142 142 -1071 1070 -1071 -1070 142 -142 829 830 0 -1959c0,-496 -404,-900 -900,-900l-100 0c-496,0 -900,404 -900,900l-200 0zm2200 3300c-86,0 -172,-19 -250,-55 -152,522 -607,855 -1150,855 -646,0 -1200,-553 -1200,-1200 0,-110 14,-223 46,-328l481 -1561c72,-234 281,-462 492,-581l137 -382c80,-223 315,-348 544,-348 148,0 290,54 400,153l0 395c-29,-110 -54,-182 -147,-258 -69,-56 -157,-90 -253,-90 -144,0 -305,72 -356,215l-164 456c-199,100 -395,280 -463,498l-480 1561c-28,88 -37,178 -37,270 0,537 464,1000 1000,1000 503,0 900,-333 986,-829l29 -169 132 108c72,59 160,90 253,90 93,0 181,-31 253,-90l132 -108 29 169c86,496 483,829 986,829 536,0 1000,-463 1000,-1000 0,-92 -9,-182 -37,-270l-480 -1561c-68,-218 -264,-398 -463,-498l-164 -456c-51,-143 -212,-215 -356,-215 -96,0 -184,34 -253,90 -93,76 -118,148 -147,259l0 -396c110,-99 252,-153 400,-153 229,0 464,125 544,348l137 382c211,119 420,347 492,581l481 1561c32,105 46,218 46,328 0,647 -554,1200 -1200,1200 -543,0 -998,-333 -1150,-855 -78,36 -164,55 -250,55zm1400 400c-442,0 -800,-358 -800,-800 0,-442 358,-800 800,-800 442,0 800,358 800,800 0,442 -358,800 -800,800zm0 -200c331,0 600,-269 600,-600 0,-331 -269,-600 -600,-600 -331,0 -600,269 -600,600 0,331 269,600 600,600zm-2800 200c-442,0 -800,-358 -800,-800 0,-442 358,-800 800,-800 442,0 800,358 800,800 0,442 -358,800 -800,800zm0 -200c331,0 600,-269 600,-600 0,-331 -269,-600 -600,-600 -331,0 -600,269 -600,600 0,331 269,600 600,600z"/>
</svg>