<?xml version="1.0" encoding="UTF-8"?>
<!DOCTYPE svg PUBLIC "-//W3C//DTD SVG 1.1//EN" "http://www.w3.org/Graphics/SVG/1.1/DTD/svg11.dtd">
<svg xmlns="http://www.w3.org/2000/svg" xml:space="preserve" width="580px" height="580px" shape-rendering="geometricPrecision" text-rendering="geometricPrecision" image-rendering="optimizeQuality" fill-rule="nonzero" clip-rule="nonzero" viewBox="0 0 5800 5800" xmlns:xlink="http://www.w3.org/1999/xlink">
	<title>find_replace icon</title>
	<desc>find_replace icon from the IconExperience.com I-Collection. Copyright by INCORS GmbH (www.incors.com).</desc>
		<path id="curve28"  d="M2000 300c287,0 558,71 796,197l-149 149c-196,-93 -415,-146 -647,-146 -828,0 -1500,672 -1500,1500 0,828 672,1500 1500,1500 790,0 1445,-613 1497,-1400l200 0c-23,392 -178,748 -422,1024l314 314 -141 141 -313 -313c-301,270 -699,434 -1135,434 -939,0 -1700,-761 -1700,-1700 0,-939 761,-1700 1700,-1700zm1985 3001l1556 1556 -684 684 -1556 -1556 684 -684zm0 283l-401 401 1273 1274 402 -402 -1274 -1273zm215 -2684c496,0 900,404 900,900l0 300 -200 0 0 -300c0,-385 -315,-700 -700,-700l-959 0 530 529 -142 142 -770 -771 770 -771 142 142 -530 529 959 0zm-3300 2800l0 300c0,385 315,700 700,700l959 0 -530 -529 142 -142 770 771 -770 771 -142 -142 530 -529 -959 0c-496,0 -900,-404 -900,-900l0 -300 200 0z"/>
</svg>