<?xml version="1.0" encoding="UTF-8"?>
<!DOCTYPE svg PUBLIC "-//W3C//DTD SVG 1.1//EN" "http://www.w3.org/Graphics/SVG/1.1/DTD/svg11.dtd">
<svg xmlns="http://www.w3.org/2000/svg" xml:space="preserve" width="580px" height="580px" shape-rendering="geometricPrecision" text-rendering="geometricPrecision" image-rendering="optimizeQuality" fill-rule="nonzero" clip-rule="nonzero" viewBox="0 0 5800 5800" xmlns:xlink="http://www.w3.org/1999/xlink">
	<title>find_text icon</title>
	<desc>find_text icon from the IconExperience.com I-Collection. Copyright by INCORS GmbH (www.incors.com).</desc>
		<path id="curve29" d="M700 5500l0 -100c0,-68 5,-132 16,-196 11,-63 29,-126 55,-192l336 -849c16,-39 53,-63 93,-63l200 0c44,0 81,28 94,67 101,254 264,603 338,853 25,63 41,123 52,184 11,64 16,128 16,196l0 100 -200 0 0 -100c0,-58 -4,-110 -13,-162 -2,-13 -5,-25 -8,-38l-758 0c-3,13 -6,25 -8,38 -9,51 -13,104 -13,162l0 100 -200 0zm909 -500l-277 -700 -64 0 -277 700 618 0zm691 500l0 -1400 700 0c220,0 400,180 400,400 0,94 -33,185 -94,257 120,73 194,202 194,343 0,220 -180,400 -400,400 -267,0 -533,0 -800,0zm200 -600l0 400 600 0c110,0 200,-90 200,-200 0,-110 -90,-200 -200,-200l-600 0zm0 -600l0 400 500 0c111,0 200,-89 200,-200 0,-110 -90,-200 -200,-200l-500 0zm2600 300l-200 0c0,-165 -135,-300 -300,-300l-200 0c-165,0 -300,135 -300,300l0 400c0,165 135,300 300,300l200 0c165,0 300,-135 300,-300l200 0c0,275 -224,500 -500,500l-200 0c-276,0 -500,-225 -500,-500l0 -400c0,-275 225,-500 500,-500l200 0c276,0 500,224 500,500z"/>
	<path id="curve28" d="M5164 2196l-380 -754c-62,-163 -264,-316 -421,-380l-38 -15 -166 -375c-54,-122 -238,-168 -359,-168 -157,0 -351,81 -393,248l-50 148 -49 143 -112 -100c-82,-73 -196,-108 -304,-108 -107,0 -211,31 -294,99l-112 92 -46 -137 -47 -137c-42,-167 -236,-248 -393,-248 -121,0 -305,46 -359,168l-166 375 -38 15c-166,68 -345,229 -426,389l-400 790c-73,143 -111,296 -111,459 0,552 448,1000 1000,1000 219,0 421,-70 586,-189 169,-123 298,-297 365,-499l51 -157 115 118c76,78 177,121 286,121 107,0 207,-41 283,-117l114 -113 51 153c67,201 196,374 365,495 164,118 366,188 584,188 276,0 526,-112 707,-293 323,-322 385,-820 157,-1211zm179 -90l64 129c187,449 88,967 -258,1314 -218,217 -518,351 -849,351 -261,0 -503,-84 -700,-226 -166,-119 -300,-280 -387,-467 -93,57 -201,87 -310,87 -110,0 -220,-32 -314,-90 -87,187 -221,349 -386,468 -198,144 -441,228 -703,228 -663,0 -1200,-537 -1200,-1200 0,-194 46,-377 133,-548l400 -790c97,-192 296,-377 491,-468l135 -302c88,-200 336,-288 541,-288 250,0 519,140 586,395l2 5c94,-46 199,-69 304,-69 109,0 221,27 318,77l4 -13c67,-255 336,-395 586,-395 205,0 453,88 541,288l135 302c194,89 415,270 494,473l373 739zm-1043 1394c-442,0 -800,-358 -800,-800 0,-442 358,-800 800,-800 442,0 800,358 800,800 0,442 -358,800 -800,800zm0 -200c331,0 600,-269 600,-600 0,-331 -269,-600 -600,-600 -331,0 -600,269 -600,600 0,331 269,600 600,600zm-2800 200c-442,0 -800,-358 -800,-800 0,-442 358,-800 800,-800 442,0 800,358 800,800 0,442 -358,800 -800,800zm0 -200c331,0 600,-269 600,-600 0,-331 -269,-600 -600,-600 -331,0 -600,269 -600,600 0,331 269,600 600,600z"/>
</svg>