<?xml version="1.0" encoding="UTF-8"?>
<!DOCTYPE svg PUBLIC "-//W3C//DTD SVG 1.1//EN" "http://www.w3.org/Graphics/SVG/1.1/DTD/svg11.dtd">
<svg xmlns="http://www.w3.org/2000/svg" xml:space="preserve" width="580px" height="580px" shape-rendering="geometricPrecision" text-rendering="geometricPrecision" image-rendering="optimizeQuality" fill-rule="nonzero" clip-rule="nonzero" viewBox="0 0 5800 5800" xmlns:xlink="http://www.w3.org/1999/xlink">
	<title>find_text icon</title>
	<desc>find_text icon from the IconExperience.com I-Collection. Copyright by INCORS GmbH (www.incors.com).</desc>
		<path id="curve28"  d="M991 5000l618 0 -277 -700 -64 0 -277 700zm688 200l-758 0c-15,66 -21,132 -21,200l0 100 -200 0 0 -100c0,-68 5,-132 16,-196 11,-63 29,-126 55,-192l336 -849c16,-39 53,-63 93,-63l200 0c44,0 81,28 94,67l335 845c24,61 44,127 55,192 11,64 16,128 16,196l0 100 -200 0 0 -100c0,-68 -6,-134 -21,-200zm3221 -600c0,-165 -135,-300 -300,-300l-200 0c-165,0 -300,135 -300,300l0 400c0,165 135,300 300,300l200 0c165,0 300,-135 300,-300l200 0c0,275 -224,500 -500,500l-200 0c-276,0 -500,-225 -500,-500l0 -400c0,-275 225,-500 500,-500l200 0c276,0 500,224 500,500l-200 0zm-1400 500c0,220 -180,400 -400,400 -267,0 -533,0 -800,0l0 -1400 700 0c220,0 400,180 400,400 0,98 -36,187 -94,257 120,72 194,202 194,343zm-200 0c0,-110 -90,-200 -200,-200l-600 0 0 400 600 0c110,0 200,-90 200,-200zm-100 -600c0,-110 -90,-200 -200,-200l-500 0 0 400 500 0c111,0 200,-89 200,-200zm10 -3788c46,-137 94,-218 219,-300 102,-68 231,-108 371,-108 116,0 231,26 326,74 97,50 175,122 215,214l135 302c101,46 202,114 288,192 92,84 167,182 206,281l373 739c414,832 -94,1794 -1043,1794 -467,0 -890,-271 -1087,-693 -93,57 -201,87 -310,87 -110,0 -220,-32 -314,-90 -197,424 -621,696 -1089,696 -663,0 -1200,-537 -1200,-1200 0,-187 44,-373 128,-540l405 -798c49,-98 129,-200 225,-287 80,-73 172,-137 266,-181l135 -302c40,-92 118,-164 215,-214 95,-48 210,-74 326,-74 140,0 269,40 371,108 107,70 185,171 216,290 25,-10 52,-21 79,-30 69,-23 145,-37 226,-37 81,0 162,15 235,42 29,10 57,22 83,35zm-1710 2788c442,0 800,-358 800,-800 0,-442 -358,-800 -800,-800 -442,0 -800,358 -800,800 0,442 358,800 800,800zm2800 0c442,0 800,-358 800,-800 0,-442 -358,-800 -800,-800 -442,0 -800,358 -800,800 0,442 358,800 800,800z"/>
</svg>