<?xml version="1.0" encoding="UTF-8"?>
<!DOCTYPE svg PUBLIC "-//W3C//DTD SVG 1.1//EN" "http://www.w3.org/Graphics/SVG/1.1/DTD/svg11.dtd">
<svg xmlns="http://www.w3.org/2000/svg" xml:space="preserve" width="580px" height="580px" shape-rendering="geometricPrecision" text-rendering="geometricPrecision" image-rendering="optimizeQuality" fill-rule="nonzero" clip-rule="nonzero" viewBox="0 0 5800 5800" xmlns:xlink="http://www.w3.org/1999/xlink">
	<title>find_again icon</title>
	<desc>find_again icon from the IconExperience.com I-Collection. Copyright by INCORS GmbH (www.incors.com).</desc>
		<path id="curve28"  d="M700 1400c0,-606 494,-1100 1100,-1100l100 0c606,0 1100,494 1100,1100l0 1959 829 -830 142 142 -1071 1070 -1071 -1070 142 -142 829 830 0 -1959c0,-496 -404,-900 -900,-900l-100 0c-496,0 -900,404 -900,900l-200 0zm800 3700c442,0 800,-358 800,-800 0,-442 -358,-800 -800,-800 -442,0 -800,358 -800,800 0,442 358,800 800,800zm2800 0c442,0 800,-358 800,-800 0,-442 -358,-800 -800,-800 -442,0 -800,358 -800,800 0,442 358,800 800,800zm-1400 -400c-86,0 -172,-19 -250,-55 -152,522 -607,855 -1150,855 -646,0 -1200,-553 -1200,-1200 0,-54 3,-110 11,-166 7,-56 19,-110 35,-162l481 -1561c37,-121 111,-240 202,-343 85,-97 188,-180 290,-238l137 -382c80,-223 315,-348 544,-348 333,0 521,222 600,521l0 1255 -488 -488c-78,-78 -205,-78 -283,0l-141 141c-78,78 -78,205 0,283l1071 1071c77,78 205,78 282,0l1071 -1071c78,-78 78,-205 0,-283l-141 -141c-78,-78 -205,-78 -283,0l-488 488 13 -1300c58,-277 304,-476 587,-476 229,0 464,125 544,348l137 382c102,58 205,141 290,238 91,103 165,222 202,343l481 1561c16,52 28,106 35,162 8,56 11,112 11,166 0,647 -554,1200 -1200,1200 -543,0 -998,-333 -1150,-855"/>
</svg>