<?xml version="1.0" encoding="UTF-8"?>
<!DOCTYPE svg PUBLIC "-//W3C//DTD SVG 1.1//EN" "http://www.w3.org/Graphics/SVG/1.1/DTD/svg11.dtd">
<svg xmlns="http://www.w3.org/2000/svg" xml:space="preserve" width="580px" height="580px" shape-rendering="geometricPrecision" text-rendering="geometricPrecision" image-rendering="optimizeQuality" fill-rule="nonzero" clip-rule="nonzero" viewBox="0 0 5800 5800" xmlns:xlink="http://www.w3.org/1999/xlink">
	<title>fingerprint_scan icon</title>
	<desc>fingerprint_scan icon from the IconExperience.com I-Collection. Copyright by INCORS GmbH (www.incors.com).</desc>
		<path id="curve29"  d="M2500 4100c0,-55 45,-100 100,-100 55,0 100,45 100,100 0,427 -110,842 -282,1231 64,19 131,35 199,46l9 -22c170,-400 274,-819 274,-1255 0,-166 -134,-300 -300,-300 -166,0 -300,134 -300,300 0,372 -99,734 -249,1072 58,34 118,64 179,91 165,-370 270,-756 270,-1163zm400 -3900c1401,0 2200,1439 2200,2700 0,1248 -792,2700 -2200,2700 -1401,0 -2200,-1438 -2200,-2700 0,-1247 795,-2700 2200,-2700zm0 200c-41,0 -82,1 -123,4 235,12 465,45 687,98 18,4 35,9 52,13 -188,-74 -393,-115 -616,-115zm-883 248c-131,81 -252,179 -361,290 306,-92 625,-138 944,-138 680,0 1339,208 1894,599 -90,-153 -194,-296 -313,-422 -491,-250 -1030,-377 -1581,-377 -195,0 -390,16 -583,48zm-608 589c-68,98 -129,202 -184,310 423,-229 894,-347 1375,-347 862,0 1672,381 2224,1040 -33,-144 -76,-286 -129,-425 -575,-526 -1316,-815 -2095,-815 -410,0 -812,79 -1191,237zm-322 627c-39,107 -72,216 -99,326 452,-382 1020,-590 1612,-590 584,0 1121,201 1547,537 322,254 580,586 746,966 4,-68 7,-136 7,-203 0,-76 -3,-153 -10,-230 -494,-790 -1357,-1270 -2290,-1270 -541,0 -1065,160 -1513,464zm-162 660c-15,116 -23,231 -25,344 396,-545 1025,-868 1700,-868 1112,0 2034,870 2097,1979 55,-145 100,-294 133,-445 -259,-1019 -1178,-1734 -2230,-1734 -637,0 -1239,261 -1675,724zm-7 692c13,122 34,244 63,365 225,-701 880,-1181 1619,-1181 938,0 1700,762 1700,1700 0,216 -17,433 -51,647 89,-104 169,-217 240,-337 4,-49 6,-95 8,-138 2,-52 3,-109 3,-172 0,-1049 -851,-1900 -1900,-1900 -707,0 -1353,391 -1682,1016zm186 766c49,126 106,249 171,365 16,-82 25,-163 25,-247 0,-718 582,-1300 1300,-1300 718,0 1300,582 1300,1300 0,363 -54,723 -152,1073 89,-52 172,-111 251,-177 66,-295 101,-594 101,-896 0,-828 -672,-1500 -1500,-1500 -782,0 -1435,602 -1496,1382zm317 598c47,66 96,129 148,188 79,-214 131,-439 131,-668 0,-497 403,-900 900,-900 497,0 900,403 900,900 0,432 -85,855 -232,1260 81,-18 160,-41 236,-70 126,-385 196,-785 196,-1190 0,-607 -493,-1100 -1100,-1100 -607,0 -1100,493 -1100,1100 0,90 -10,181 -26,271 -14,71 -31,141 -53,209zm301 346c51,48 105,93 161,134l7 -17c1,-2 2,-4 2,-5 126,-298 208,-613 208,-938 0,-276 224,-500 500,-500 276,0 500,224 500,500 0,449 -105,885 -276,1298 73,3 145,2 218,-4 162,-414 258,-848 258,-1294 0,-386 -314,-700 -700,-700 -386,0 -700,314 -700,700 0,286 -71,563 -178,826z"/>
	<path id="curve28"  d="M700 4700l0 400 400 0 0 200 -600 0 0 -600 200 0zm-200 -3600l0 -600 600 0 0 200 -400 0 0 400 -200 0zm4600 0l0 -400 -400 0 0 -200 600 0 0 600 -200 0zm200 3600l0 600 -600 0 0 -200 400 0 0 -400 200 0z"/>
</svg>