<?xml version="1.0" encoding="UTF-8"?>
<!DOCTYPE svg PUBLIC "-//W3C//DTD SVG 1.1//EN" "http://www.w3.org/Graphics/SVG/1.1/DTD/svg11.dtd">
<svg xmlns="http://www.w3.org/2000/svg" xml:space="preserve" width="580px" height="580px" shape-rendering="geometricPrecision" text-rendering="geometricPrecision" image-rendering="optimizeQuality" fill-rule="nonzero" clip-rule="nonzero" viewBox="0 0 5800 5800" xmlns:xlink="http://www.w3.org/1999/xlink">
	<title>fingerprint_scan icon</title>
	<desc>fingerprint_scan icon from the IconExperience.com I-Collection. Copyright by INCORS GmbH (www.incors.com).</desc>
		<path id="curve28"  d="M2017 5247c-23,50 -82,71 -132,48 -50,-23 -71,-83 -48,-133 87,-187 160,-381 206,-583 37,-156 57,-316 57,-479 0,-276 224,-500 500,-500 276,0 500,224 500,500 0,231 -28,459 -78,682 -58,256 -146,506 -253,745 -23,50 -82,72 -132,49 -51,-22 -73,-81 -50,-132 102,-227 185,-461 240,-705 47,-208 73,-421 73,-639 0,-166 -134,-300 -300,-300 -166,0 -300,134 -300,300 0,178 -22,352 -62,524 -50,215 -127,423 -221,623zm-320 -261c-22,50 -81,74 -131,52 -51,-21 -75,-80 -53,-130 110,-258 187,-526 187,-808 0,-497 403,-900 900,-900 497,0 900,403 900,900 0,247 -28,490 -79,728 -50,238 -124,470 -216,696 -21,51 -79,76 -130,55 -51,-20 -76,-79 -55,-130 88,-216 158,-437 206,-662 48,-224 74,-454 74,-687 0,-386 -314,-700 -700,-700 -386,0 -700,314 -700,700 0,310 -82,603 -203,886zm-292 -355c-17,52 -74,80 -126,63 -52,-18 -80,-74 -63,-126 51,-151 84,-308 84,-468 0,-718 582,-1300 1300,-1300 718,0 1300,582 1300,1300 0,221 -20,440 -57,656 -37,214 -92,425 -162,633 -17,53 -74,81 -126,63 -52,-17 -80,-74 -63,-126 66,-197 118,-399 154,-604 35,-204 54,-411 54,-622 0,-607 -493,-1100 -1100,-1100 -607,0 -1100,493 -1100,1100 0,180 -38,360 -95,531zm-303 -611c-3,55 -50,97 -105,94 -55,-3 -97,-50 -94,-105 47,-901 795,-1609 1697,-1609 938,0 1700,762 1700,1700 0,161 -10,321 -28,480 -19,163 -47,324 -84,484 -12,53 -65,87 -119,75 -54,-13 -87,-66 -75,-120 35,-152 62,-305 80,-461 17,-151 26,-303 26,-458 0,-828 -672,-1500 -1500,-1500 -796,0 -1456,624 -1498,1420zm-199 -775c-25,49 -85,69 -134,44 -49,-25 -69,-85 -44,-134 176,-348 446,-641 776,-844 320,-197 697,-311 1099,-311 1159,0 2100,941 2100,2100 0,119 -5,239 -14,358 -5,55 -53,96 -108,92 -55,-5 -96,-53 -91,-108 9,-114 13,-227 13,-342 0,-1049 -851,-1900 -1900,-1900 -365,0 -705,103 -994,280 -299,185 -544,450 -703,765zm-2 -695c-37,41 -100,44 -141,7 -41,-37 -44,-100 -7,-141 475,-521 1142,-816 1847,-816 1155,0 2165,797 2432,1921 13,54 -20,108 -74,120 -54,13 -108,-20 -120,-74 -246,-1036 -1174,-1767 -2238,-1767 -649,0 -1262,271 -1699,750zm151 -662c-45,32 -108,21 -139,-24 -32,-45 -21,-107 24,-139 489,-343 1066,-525 1663,-525 1012,0 1946,526 2475,1389 28,47 14,108 -33,137 -47,29 -109,14 -138,-33 -492,-804 -1362,-1293 -2304,-1293 -555,0 -1093,169 -1548,488zm328 -638c-50,21 -109,-3 -130,-53 -22,-51 2,-110 52,-131 410,-176 853,-266 1298,-266 842,0 1647,320 2260,897 40,37 42,101 4,141 -38,40 -101,42 -141,4 -577,-543 -1330,-842 -2123,-842 -421,0 -833,84 -1220,250zm637 -602c-54,9 -106,-27 -115,-82 -9,-54 28,-105 82,-114 204,-35 410,-52 616,-52 584,0 1159,138 1679,403 49,25 69,85 44,134 -25,49 -85,69 -134,44 -494,-253 -1035,-381 -1589,-381 -195,0 -390,16 -583,48zm483 3452c0,-55 45,-100 100,-100 55,0 100,45 100,100 0,202 -24,413 -78,636 -53,221 -134,451 -248,693 -24,49 -83,71 -133,47 -50,-23 -71,-83 -48,-133 109,-230 186,-447 235,-653 49,-205 72,-401 72,-590zm-1800 600l0 400 400 0 0 200 -600 0 0 -600 200 0zm4600 0l0 600 -600 0 0 -200 400 0 0 -400 200 0zm-200 -3600l0 -400 -400 0 0 -200 600 0 0 600 -200 0zm-4600 0l0 -600 600 0 0 200 -400 0 0 400 -200 0z"/>
</svg>