<?xml version="1.0" encoding="UTF-8"?>
<!DOCTYPE svg PUBLIC "-//W3C//DTD SVG 1.1//EN" "http://www.w3.org/Graphics/SVG/1.1/DTD/svg11.dtd">
<svg xmlns="http://www.w3.org/2000/svg" xml:space="preserve" width="580px" height="580px" shape-rendering="geometricPrecision" text-rendering="geometricPrecision" image-rendering="optimizeQuality" fill-rule="nonzero" clip-rule="nonzero" viewBox="0 0 5800 5800" xmlns:xlink="http://www.w3.org/1999/xlink">
	<title>firewall2 icon</title>
	<desc>firewall2 icon from the IconExperience.com I-Collection. Copyright by INCORS GmbH (www.incors.com).</desc>
		<path id="curve29" d="M2045 411c491,252 415,608 344,944 -9,45 -19,88 -24,119 -48,262 32,452 151,550 52,42 111,66 169,70 54,3 108,-13 153,-50 102,-82 167,-266 129,-576l-36 -297 208 217c152,158 290,417 390,695 74,205 129,421 155,617l-202 0c-25,-174 -74,-366 -140,-549 -50,-137 -108,-267 -172,-380 -25,204 -104,345 -207,429 -86,69 -187,99 -289,93 -100,-6 -199,-45 -284,-115 -169,-137 -284,-396 -221,-739 9,-49 17,-87 25,-125 44,-208 90,-425 -65,-597 0,270 -156,372 -337,491 -100,66 -211,138 -291,259 -178,265 -141,477 -110,660 36,206 67,384 -120,575 -59,61 -124,95 -190,105 -83,14 -163,-10 -233,-61 -62,-44 -116,-111 -159,-192 -32,-60 -58,-129 -75,-203 -17,37 -33,76 -46,115 -45,136 -68,287 -68,464 0,389 150,824 450,1137 247,257 597,433 1050,433 34,0 67,-1 100,-3l0 200c-33,2 -66,3 -100,3 -514,0 -912,-201 -1194,-495 -337,-352 -506,-839 -506,-1275 0,-198 26,-370 79,-527 53,-158 132,-299 237,-434l223 -288 -45 361c-19,155 12,307 71,419 29,54 63,97 100,124 28,20 57,30 84,25 25,-3 51,-19 80,-48 115,-118 92,-249 66,-401 -38,-220 -82,-473 140,-805 104,-155 232,-239 348,-315 163,-107 297,-195 220,-518l-50 -210 192 98zm-29 1260c0,428 245,685 491,943 28,28 55,57 82,86l-275 0c-209,-220 -408,-448 -475,-782 -156,272 -23,564 96,827 130,286 247,545 62,770 -50,61 -115,104 -188,128 -83,27 -176,30 -270,9 -90,-21 -182,-65 -264,-132 -47,-39 -91,-85 -130,-139 -5,33 -7,66 -7,98 0,135 41,261 115,369 75,110 183,202 316,265 125,59 271,93 431,93 34,0 68,-1 100,-4l0 201c-33,2 -66,3 -100,3 -190,0 -366,-41 -517,-113 -164,-78 -300,-193 -395,-332 -96,-141 -150,-306 -150,-482 0,-131 30,-268 95,-405l107 -225 78 237c41,124 107,217 184,280 57,47 120,77 181,91 58,13 115,12 164,-4 38,-13 71,-34 96,-64 106,-129 13,-334 -90,-562 -173,-382 -370,-815 96,-1230l167 -148 0 222z"/>
	<path id="curve28" d="M5500 2900l0 2600 -3200 0 0 -2600 3200 0zm-3000 800l600 0 0 -600 -600 0 0 600zm800 0l1400 0 0 -600 -1400 0 0 600zm1600 0l400 0 0 -600 -400 0 0 600zm400 200l-1200 0 0 600 1200 0 0 -600zm-1400 0c-467,0 -933,0 -1400,0l0 600 1400 0 0 -600zm1400 800l-600 0 0 600 600 0 0 -600zm-800 0l-1400 0 0 600 1400 0 0 -600zm-1600 0l-400 0 0 600 400 0 0 -600z"/>
</svg>