<?xml version="1.0" encoding="UTF-8"?>
<!DOCTYPE svg PUBLIC "-//W3C//DTD SVG 1.1//EN" "http://www.w3.org/Graphics/SVG/1.1/DTD/svg11.dtd">
<svg xmlns="http://www.w3.org/2000/svg" xml:space="preserve" width="580px" height="580px" shape-rendering="geometricPrecision" text-rendering="geometricPrecision" image-rendering="optimizeQuality" fill-rule="nonzero" clip-rule="nonzero" viewBox="0 0 5800 5800" xmlns:xlink="http://www.w3.org/1999/xlink">
	<title>firefighter icon</title>
	<desc>firefighter icon from the IconExperience.com I-Collection. Copyright by INCORS GmbH (www.incors.com).</desc>
	<path id="curve0"  d="M2700 230c65,-20 133,-30 200,-30 67,0 135,10 200,30l0 1070c0,110 -90,200 -200,200 -110,0 -200,-90 -200,-200l0 -1070zm600 117c266,66 488,202 646,408 158,206 250,480 254,822l89 178c22,45 8,97 -30,125l-250 201c-184,146 -390,219 -625,219l-968 0c-117,0 -227,-18 -332,-55 -103,-36 -200,-91 -293,-164l-253 -203c-37,-30 -48,-81 -27,-123l0 0 89 -178c4,-342 96,-616 254,-822 158,-206 380,-342 646,-408l0 953c0,220 180,400 400,400 220,0 400,-180 400,-400l0 -953zm699 2997c58,-120 93,-247 125,-371 209,-173 292,-462 240,-725l23 -215c6,-4 11,-9 17,-14 36,82 69,166 99,242 21,55 41,106 55,139 61,144 121,430 148,702 24,237 23,468 -23,598 -21,57 -59,111 -110,145l-2 2c-96,-56 -192,-105 -256,-129 -48,-18 -86,-32 -116,-43 -9,-127 -99,-257 -200,-331zm201 545l46 16c67,25 176,83 279,147 99,60 194,127 245,177 230,224 230,527 230,820l0 31 0 0c0,225 -254,370 -605,461 -465,121 -1113,159 -1495,159 -382,0 -1030,-38 -1495,-159 -351,-91 -605,-236 -605,-461 4,-308 -11,-618 230,-851 51,-50 146,-117 245,-177 103,-64 212,-122 279,-147l46 -16 0 166c0,193 157,361 410,476 230,105 544,169 890,169 346,0 660,-64 890,-169 253,-115 410,-283 410,-476l0 -166zm-2599 -214c-139,53 -240,95 -372,172 -4,-3 -7,-5 -10,-8 -46,-35 -82,-82 -102,-139 -46,-130 -47,-361 -23,-598 27,-272 87,-558 148,-702 53,-127 99,-256 155,-382 5,5 10,10 16,15l23 215c-28,142 -16,297 35,434 43,111 111,213 206,291 32,124 68,251 125,371 -103,73 -192,203 -201,331zm449 -300c-100,-144 -147,-322 -191,-491 -1,-6 -3,-14 -8,-30 -92,-58 -156,-145 -193,-243 -42,-111 -49,-239 -20,-353l-5 -50c123,99 235,173 386,226 126,44 258,66 397,66l968 0c312,0 544,-100 783,-292l-5 50c55,218 -17,473 -213,596 -5,17 -7,27 -10,37 -43,166 -88,341 -190,486 -252,143 -559,223 -849,223 -291,0 -596,-81 -850,-225zm1849 145c-291,180 -657,280 -999,280 -343,0 -707,-102 -999,-281 -47,38 -101,114 -101,175l0 361c0,107 112,212 292,294 205,93 491,151 808,151 317,0 603,-58 807,-151 181,-82 293,-187 293,-294l0 -361c0,-61 -55,-136 -101,-174z"/>
</svg>