<?xml version="1.0" encoding="UTF-8"?>
<!DOCTYPE svg PUBLIC "-//W3C//DTD SVG 1.1//EN" "http://www.w3.org/Graphics/SVG/1.1/DTD/svg11.dtd">
<svg xmlns="http://www.w3.org/2000/svg" xml:space="preserve" width="580px" height="580px" shape-rendering="geometricPrecision" text-rendering="geometricPrecision" image-rendering="optimizeQuality" fill-rule="nonzero" clip-rule="nonzero" viewBox="0 0 5800 5800" xmlns:xlink="http://www.w3.org/1999/xlink">
	<title>fire icon</title>
	<desc>fire icon from the IconExperience.com I-Collection. Copyright by INCORS GmbH (www.incors.com).</desc>
		<path id="curve28" d="M2946 411c569,294 481,712 398,1107 -11,51 -22,101 -29,143 -58,321 40,555 187,676 65,53 138,83 210,87 69,4 137,-16 194,-63 127,-102 207,-328 161,-706l-36 -299 208 219c178,187 341,494 460,824 123,344 201,716 201,1005 0,516 -199,1093 -596,1510 -331,349 -800,586 -1404,586 -604,0 -1073,-237 -1404,-586 -397,-417 -596,-994 -596,-1510 0,-234 31,-437 93,-623 62,-187 155,-354 278,-514l223 -290 -45 363c-23,191 15,378 88,514 35,67 78,120 124,154 37,27 76,39 113,33 33,-5 68,-25 105,-63 143,-147 115,-309 83,-496 -44,-259 -96,-558 164,-948 121,-181 271,-281 407,-371 200,-132 365,-241 270,-640l-51 -211 194 99zm202 1066c57,-268 116,-549 -115,-765 18,348 -169,472 -390,618 -120,79 -253,167 -351,314 -215,324 -171,581 -133,804 41,241 77,448 -138,670 -68,70 -141,108 -215,120 -93,15 -182,-11 -262,-69 -71,-51 -134,-128 -184,-222 -45,-85 -79,-185 -99,-293 -31,61 -57,124 -79,189 -55,164 -82,347 -82,561 0,470 180,994 540,1373 296,311 716,523 1260,523 544,0 964,-212 1260,-523 360,-379 540,-903 540,-1373 0,-268 -73,-615 -189,-938 -66,-184 -147,-360 -235,-508 -20,271 -116,454 -244,558 -98,80 -214,114 -331,107 -114,-6 -228,-52 -326,-132 -196,-160 -329,-463 -256,-865 9,-55 19,-101 29,-149zm-248 423c0,519 294,829 589,1140 253,267 508,535 608,936 12,50 19,103 19,157 0,187 -74,397 -219,576 -143,178 -356,327 -637,397 -110,28 -230,43 -360,43 -221,0 -424,-47 -600,-131 -194,-91 -354,-227 -466,-391 -113,-165 -177,-360 -177,-567 0,-153 35,-314 111,-474l108 -227 77 238c51,153 133,268 228,346 70,57 146,93 221,110 71,17 142,15 202,-5 49,-16 92,-44 124,-83 133,-164 20,-414 -104,-692 -203,-451 -433,-961 110,-1447l166 -149 0 223zm444 1277c-276,-291 -552,-582 -625,-1036 -231,345 -64,717 87,1050 151,337 288,641 76,900 -57,70 -132,119 -216,147 -95,31 -201,34 -308,10 -104,-24 -209,-74 -303,-151 -67,-54 -129,-122 -181,-204 -11,57 -17,113 -17,167 0,166 51,322 142,455 92,135 224,247 386,323 150,71 324,111 515,111 114,0 218,-13 312,-37 235,-58 412,-182 529,-328 116,-143 175,-307 175,-451 0,-38 -4,-75 -13,-109 -87,-350 -323,-599 -559,-847z"/>
</svg>