<?xml version="1.0" encoding="UTF-8"?>
<!DOCTYPE svg PUBLIC "-//W3C//DTD SVG 1.1//EN" "http://www.w3.org/Graphics/SVG/1.1/DTD/svg11.dtd">
<svg xmlns="http://www.w3.org/2000/svg" xml:space="preserve" width="580px" height="580px" shape-rendering="geometricPrecision" text-rendering="geometricPrecision" image-rendering="optimizeQuality" fill-rule="nonzero" clip-rule="nonzero" viewBox="0 0 5800 5800" xmlns:xlink="http://www.w3.org/1999/xlink">
	<title>firewall2 icon</title>
	<desc>firewall2 icon from the IconExperience.com I-Collection. Copyright by INCORS GmbH (www.incors.com).</desc>
		<path id="curve29"  d="M2045 411c491,252 415,608 344,944 -49,230 -79,501 127,669 94,76 223,101 322,20 215,-173 124,-622 93,-873 302,315 441,477 598,912 74,205 129,421 155,617l-1095 0c-27,-29 -54,-58 -82,-86 -418,-438 -491,-574 -491,-1165 -547,486 -570,702 -263,1378 103,228 196,433 90,562 -62,76 -169,89 -260,68 -290,-66 -360,-355 -441,-600 -106,211 -204,375 -204,622 0,176 54,341 150,482 204,298 558,445 912,445 34,0 67,-1 100,-3l0 294c-33,2 -66,3 -100,3 -514,0 -912,-201 -1194,-495 -337,-352 -506,-839 -506,-1275 0,-589 209,-823 539,-1249l-45 361c-21,167 23,435 171,543 63,45 112,30 164,-23 115,-118 92,-249 66,-401 -38,-220 -82,-473 140,-805 104,-155 232,-239 348,-315 163,-107 297,-195 220,-518l-50 -210 192 98zm269 2289l-214 0 0 1502c-32,3 -66,4 -100,4 -287,0 -581,-115 -747,-358 -95,-139 -133,-302 -108,-467 95,132 234,234 394,271 167,38 346,0 458,-137 185,-225 68,-484 -62,-770 -119,-263 -252,-555 -96,-827 67,334 266,562 475,782z"/>
	<path id="curve28"  d="M5500 2900l0 2600 -3200 0 0 -2600 3200 0zm-200 800l-400 0 0 -600 -200 0 0 600 -1400 0 0 -600 -200 0 0 600 -600 0 0 200c467,0 933,0 1400,0l0 600 -1400 0 0 200 400 0 0 600 200 0 0 -600 1400 0 0 600 200 0 0 -600 600 0 0 -200 -1200 0 0 -600 1200 0 0 -200z"/>
</svg>