<?xml version="1.0" encoding="UTF-8"?>
<!DOCTYPE svg PUBLIC "-//W3C//DTD SVG 1.1//EN" "http://www.w3.org/Graphics/SVG/1.1/DTD/svg11.dtd">
<svg xmlns="http://www.w3.org/2000/svg" xml:space="preserve" width="580px" height="580px" shape-rendering="geometricPrecision" text-rendering="geometricPrecision" image-rendering="optimizeQuality" fill-rule="nonzero" clip-rule="nonzero" viewBox="0 0 5800 5800" xmlns:xlink="http://www.w3.org/1999/xlink">
	<title>fire_extinguisher icon</title>
	<desc>fire_extinguisher icon from the IconExperience.com I-Collection. Copyright by INCORS GmbH (www.incors.com).</desc>
		<path id="curve28"  d="M3000 300l1209 0c125,0 236,42 330,125l227 200 -132 150 -227 -200c-57,-51 -121,-75 -198,-75l-197 0 -456 114 875 291 -62 190 -1098 -366c-50,104 -155,171 -271,171 -166,0 -300,-134 -300,-300 0,-165 135,-300 300,-300zm0 200c-56,0 -100,44 -100,100 0,55 45,100 100,100 55,0 100,-45 100,-100 0,-56 -44,-100 -100,-100zm-600 200l110 0c46,228 248,400 490,400 130,0 252,-50 343,-136l357 118 0 269c127,46 242,119 336,213 163,163 264,388 264,636l0 3000c0,165 -135,300 -300,300l-1600 0c-165,0 -300,-135 -300,-300l0 -100c-200,0 -400,0 -600,0l0 -1113 103 -411 19 -76 78 0 0 -400c0,-262 -100,-481 -198,-694 -102,-223 -202,-441 -202,-706 0,-555 345,-900 900,-900l100 0c0,-55 45,-100 100,-100zm300 652l0 -252 -300 0c-55,0 -100,-45 -100,-100l-100 0c-444,0 -700,256 -700,700 0,223 90,420 183,623 107,234 217,473 217,777l0 400 78 0 19 76 100 400 3 12 0 -1788c0,-248 101,-473 264,-636 94,-94 208,-167 336,-212zm-200 1448l0 1100 1400 0 0 -1100 -1400 0zm1200 200l0 700 -1000 0 0 -700 1000 0z"/>
</svg>