<?xml version="1.0" encoding="UTF-8"?>
<!DOCTYPE svg PUBLIC "-//W3C//DTD SVG 1.1//EN" "http://www.w3.org/Graphics/SVG/1.1/DTD/svg11.dtd">
<svg xmlns="http://www.w3.org/2000/svg" xml:space="preserve" width="580px" height="580px" shape-rendering="geometricPrecision" text-rendering="geometricPrecision" image-rendering="optimizeQuality" fill-rule="nonzero" clip-rule="nonzero" viewBox="0 0 5800 5800" xmlns:xlink="http://www.w3.org/1999/xlink">
	<title>fire icon</title>
	<desc>fire icon from the IconExperience.com I-Collection. Copyright by INCORS GmbH (www.incors.com).</desc>
		<path id="curve28"  d="M3344 1518c-66,311 -72,881 368,906 475,27 356,-761 319,-1068 339,357 492,556 668,1043 123,344 201,716 201,1005 0,516 -199,1093 -596,1510 -331,349 -800,586 -1404,586 -604,0 -1073,-237 -1404,-586 -397,-417 -596,-994 -596,-1510 0,-655 209,-927 594,-1427 -39,317 -133,814 167,1031 82,59 151,39 218,-30 143,-147 115,-309 83,-496 -44,-259 -96,-558 164,-948 121,-181 271,-281 407,-371 402,-266 317,-441 219,-851 625,322 742,492 592,1206zm145 1522c-474,-501 -589,-678 -589,-1363 -626,560 -618,838 -276,1596 124,278 237,528 104,692 -79,96 -211,115 -326,88 -347,-79 -432,-405 -526,-694 -113,238 -219,425 -219,701 0,425 266,780 643,958 176,84 379,131 600,131 381,0 752,-136 997,-440 145,-179 219,-389 219,-576 0,-413 -360,-812 -627,-1093zm-145 137c223,234 572,612 572,956 0,144 -59,308 -175,451 -206,256 -521,365 -841,365 -191,0 -365,-40 -515,-111 -307,-145 -528,-430 -528,-778 0,-54 6,-110 17,-167 111,173 281,309 484,355 191,44 397,0 524,-157 212,-259 75,-563 -76,-900 -151,-333 -318,-705 -87,-1050 73,454 349,745 625,1036z"/>
</svg>