<?xml version="1.0" encoding="UTF-8"?>
<!DOCTYPE svg PUBLIC "-//W3C//DTD SVG 1.1//EN" "http://www.w3.org/Graphics/SVG/1.1/DTD/svg11.dtd">
<svg xmlns="http://www.w3.org/2000/svg" xml:space="preserve" width="580px" height="580px" shape-rendering="geometricPrecision" text-rendering="geometricPrecision" image-rendering="optimizeQuality" fill-rule="nonzero" clip-rule="nonzero" viewBox="0 0 5800 5800" xmlns:xlink="http://www.w3.org/1999/xlink">
	<title>fire_hydrant icon</title>
	<desc>fire_hydrant icon from the IconExperience.com I-Collection. Copyright by INCORS GmbH (www.incors.com).</desc>
	<path id="curve0"  d="M2900 500c105,0 205,16 300,46l0 -246 -600 0 0 246c95,-30 195,-46 300,-46zm1800 1800l-200 0 0 1000 200 0c111,0 200,-89 200,-200l0 -600c0,-111 -89,-200 -200,-200zm-1300 -1666c76,44 145,97 207,159 186,186 243,359 293,606l50 -1c193,0 350,157 350,350 0,177 -133,326 -307,347l28 205 279 0c0,-110 90,-200 200,-200l200 0c220,0 400,180 400,400l0 600c0,220 -180,400 -400,400l-200 0c-110,0 -200,-90 -200,-200l-146 0 135 1014c124,39 211,154 211,286l0 700 200 0 0 200c-1200,0 -2400,0 -3600,0l0 -200 200 0 0 -700c0,-131 87,-248 211,-286l135 -1014 -146 0c0,110 -90,200 -200,200l-200 0c-220,0 -400,-180 -400,-400l0 -600c0,-220 180,-400 400,-400l200 0c110,0 200,90 200,200l279 0 27 -202c-174,-22 -306,-171 -306,-347 0,-193 156,-350 349,-350 16,-1 33,0 50,0l21 -101c57,-282 234,-525 483,-668l-3 -332c0,-110 90,-200 200,-200l600 0c110,0 200,90 200,200l0 334zm-1393 1466l-26 200 172 0 -27 200 -626 0 0 600 546 0 -27 200 -172 0 -133 1000 172 0 114 0 1800 0 114 0 172 0 -133 -1000 -172 0 -27 -200 546 0 0 -600 -626 0 -27 -200 172 0 -26 -202 -1786 2zm1687 -701c-23,-181 -106,-342 -228,-465 -145,-144 -345,-234 -566,-234 -403,0 -744,301 -794,701l1588 -2zm506 3101l-2600 0c-55,0 -100,45 -100,100l0 700 2800 0 0 -700c0,-55 -45,-100 -100,-100zm-2350 -2599l2100 -3c83,0 150,-67 150,-150 0,-83 -67,-150 -150,-150 -700,0 -1400,3 -2100,3 -83,0 -150,67 -150,150 0,83 67,150 150,150zm-550 399l-200 0c-111,0 -200,89 -200,200l0 600c0,111 89,200 200,200l200 0 0 -1000z"/>
</svg>