<?xml version="1.0" encoding="UTF-8"?>
<!DOCTYPE svg PUBLIC "-//W3C//DTD SVG 1.1//EN" "http://www.w3.org/Graphics/SVG/1.1/DTD/svg11.dtd">
<svg xmlns="http://www.w3.org/2000/svg" xml:space="preserve" width="580px" height="580px" shape-rendering="geometricPrecision" text-rendering="geometricPrecision" image-rendering="optimizeQuality" fill-rule="nonzero" clip-rule="nonzero" viewBox="0 0 5800 5800" xmlns:xlink="http://www.w3.org/1999/xlink">
	<title>firewall icon</title>
	<desc>firewall icon from the IconExperience.com I-Collection. Copyright by INCORS GmbH (www.incors.com).</desc>
		<path id="curve29"  d="M4707 2500c0,67 -3,134 -9,200l-200 0c6,-66 9,-133 9,-200 0,-131 -12,-259 -36,-382 -14,34 -40,134 -57,163 -36,59 -78,48 -112,73 -63,84 115,173 0,320l-20 26 -1154 0c-19,-25 -47,-36 -103,-17 -14,5 -29,11 -45,17l-384 0c-115,-78 -212,-201 -238,-331 -7,-38 20,-213 24,-269 5,-69 36,-134 75,-189 42,-59 147,-129 168,-165 31,-55 78,-139 146,-154 2,-1 4,-1 5,-1 -37,-6 -74,-18 -105,-33 -85,-41 -75,-184 -43,-255 41,-92 122,-132 220,-132 40,-1 78,2 117,-8 24,-7 78,-67 108,-87 47,-31 -52,-102 -12,-181 35,-69 129,-76 191,-106 38,-19 84,-73 133,-87 -9,-4 -18,-9 -27,-13 -195,-92 -407,-153 -631,-177 -5,17 -18,34 -44,50 -74,43 -78,116 -221,168 -104,38 -213,17 -314,61 -87,37 -203,145 -276,162 -15,3 -32,3 -45,-9 -53,-48 57,-235 43,-271 -18,-25 -132,-8 -180,1 -63,28 -123,59 -182,94 35,21 105,42 107,63 5,60 -119,49 -141,158 -5,20 27,97 35,118 16,45 45,124 7,165 -119,126 -144,-46 -215,-8 -48,26 -20,157 -79,166 -123,17 -208,115 -300,187 -39,31 -66,188 -147,245 -29,20 -179,117 -207,149 -11,44 -21,87 -29,132 1,9 1,18 3,27 9,77 67,223 126,275 56,50 114,-28 195,-3 131,40 161,135 253,184 57,30 138,75 180,125 25,29 27,45 36,79 15,60 171,110 224,131 44,18 203,76 224,116 59,113 -38,180 -64,282 -20,75 45,226 -48,264 -105,45 -176,106 -166,227 9,104 -60,151 -55,244 2,38 15,81 32,122 189,113 398,196 621,242l0 204c-444,-83 -841,-299 -1148,-606 -398,-398 -645,-949 -645,-1556 0,-1215 985,-2200 2200,-2200 1208,0 2200,979 2200,2200zm-1332 -1108c23,28 51,47 83,66 55,33 108,77 38,133 -50,41 -113,27 -85,-46 10,-26 -141,-89 -163,-100 -55,-29 -100,-93 -169,-61 -37,18 -112,114 -136,150 -22,31 -52,48 -86,56 4,0 8,0 13,0 54,-1 104,-12 155,-30 48,-17 198,-29 245,-13 163,56 104,227 249,251 49,8 117,-9 168,0 81,15 139,50 219,10 39,-20 57,-92 26,-125 -90,-98 -308,-41 -352,-91 -24,-27 -48,-72 -66,-104 -11,-19 -38,-69 -53,-82 -17,-14 -63,-22 -86,-14zm-2351 2449c-21,-30 -37,-58 -47,-83 -20,-50 -28,-114 -34,-167 -6,-45 -15,-167 -44,-200 -93,-106 -224,-274 -246,-412 -17,-103 -31,-214 -20,-318 0,-32 -97,-179 -117,-208l-8 -11c0,20 -1,39 -1,58 0,516 196,986 517,1341z"/>
	<path id="curve28"  d="M5500 2900l0 2600 -3200 0 0 -2600 3200 0zm-2400 1800l0 600 1400 0 0 -600 -1400 0zm-200 600l0 -600 -400 0 0 600 400 0zm1800 -600l0 600 600 0 0 -600 -600 0zm-2200 -1000l600 0 0 -600 -600 0 0 600zm800 -600l0 600 1400 0 0 -600 -1400 0zm1600 0l0 600 400 0 0 -600 -400 0zm400 800l-1200 0 0 600 1200 0 0 -600zm-2800 600l1400 0 0 -600c-467,0 -933,0 -1400,0l0 600z"/>
</svg>