<?xml version="1.0" encoding="UTF-8"?>
<!DOCTYPE svg PUBLIC "-//W3C//DTD SVG 1.1//EN" "http://www.w3.org/Graphics/SVG/1.1/DTD/svg11.dtd">
<svg xmlns="http://www.w3.org/2000/svg" xml:space="preserve" width="580px" height="580px" shape-rendering="geometricPrecision" text-rendering="geometricPrecision" image-rendering="optimizeQuality" fill-rule="nonzero" clip-rule="nonzero" viewBox="0 0 5800 5800" xmlns:xlink="http://www.w3.org/1999/xlink">
	<title>fire_truck icon</title>
	<desc>fire_truck icon from the IconExperience.com I-Collection. Copyright by INCORS GmbH (www.incors.com).</desc>
	<path id="curve0"  d="M4550 4000c304,0 550,246 550,550 0,304 -246,550 -550,550 -304,0 -550,-246 -550,-550 0,-304 246,-550 550,-550zm946 -2344l116 791 -3351 491c-43,-143 -122,-271 -225,-374 -162,-163 -387,-264 -636,-264 -241,0 -460,95 -621,249l-41 6 20 14c-47,48 -88,100 -123,157l-176 -131 -79 12 58 396 87 -13c-16,66 -25,135 -25,206l-132 19 -98 15 -15 -99 -101 -693c1781,-261 3562,-521 5342,-782zm-3571 725l408 303 303 -407 -711 104zm1188 -174l407 303 303 -407 -710 104zm1187 -174l407 303 303 -407 -710 104zm989 -145l-338 454 435 -64 -58 -396 -39 6zm-814 524l-408 -304 -303 408 711 -104zm-1187 174l-408 -304 -303 408 711 -104zm-2588 1314l0 -700c0,-387 313,-700 700,-700 387,0 700,313 700,700l0 700 -200 0 0 -700c0,-276 -224,-500 -500,-500 -276,0 -500,224 -500,500l0 700 -200 0zm2100 300l800 0 0 -1200c0,-55 45,-100 100,-100 333,0 667,0 1000,0 28,0 52,12 70,30l701 699c4,5 29,71 29,71l0 700 -200 0 0 -659 -642 -641 -858 0 0 1200c0,55 -45,100 -100,100l-900 0 0 -200zm-1850 -200c304,0 550,246 550,550 0,304 -246,550 -550,550 -304,0 -550,-246 -550,-550 0,-304 246,-550 550,-550zm0 200c-193,0 -350,157 -350,350 0,193 157,350 350,350 193,0 350,-157 350,-350 0,-193 -157,-350 -350,-350zm1200 -200c304,0 550,246 550,550 0,304 -246,550 -550,550 -304,0 -550,-246 -550,-550 0,-304 246,-550 550,-550zm0 200c-193,0 -350,157 -350,350 0,193 157,350 350,350 193,0 350,-157 350,-350 0,-193 -157,-350 -350,-350zm2400 0c-193,0 -350,157 -350,350 0,193 157,350 350,350 193,0 350,-157 350,-350 0,-193 -157,-350 -350,-350z"/>
</svg>