<?xml version="1.0" encoding="UTF-8"?>
<!DOCTYPE svg PUBLIC "-//W3C//DTD SVG 1.1//EN" "http://www.w3.org/Graphics/SVG/1.1/DTD/svg11.dtd">
<svg xmlns="http://www.w3.org/2000/svg" xml:space="preserve" width="580px" height="580px" shape-rendering="geometricPrecision" text-rendering="geometricPrecision" image-rendering="optimizeQuality" fill-rule="nonzero" clip-rule="nonzero" viewBox="0 0 5800 5800" xmlns:xlink="http://www.w3.org/1999/xlink">
	<title>fire_extinguisher icon</title>
	<desc>fire_extinguisher icon from the IconExperience.com I-Collection. Copyright by INCORS GmbH (www.incors.com).</desc>
		<path id="curve28" d="M3000 300l1209 0c125,0 236,42 330,125l227 200 -132 150 -227 -200c-57,-51 -121,-75 -198,-75l-197 0 -456 114 875 291 -62 190 -669 -224 0 480c358,127 600,467 600,849l0 3000c0,165 -135,300 -300,300l-1600 0c-165,0 -300,-135 -300,-300l0 -100c-200,0 -400,0 -600,0l0 -1113 122 -487 78 0 0 -400c0,-262 -100,-481 -198,-694 -102,-223 -202,-441 -202,-706 0,-555 345,-900 900,-900l100 0c0,-55 45,-100 100,-100l300 0 0 -100c0,-165 135,-300 300,-300zm500 505l-229 -76c-50,104 -155,171 -271,171 -35,0 -69,-6 -100,-17l0 417c200,0 400,0 600,0l0 -495zm-800 295l-300 0c-55,0 -100,-45 -100,-100l-100 0c-444,0 -700,256 -700,700 0,223 90,420 183,623 107,234 217,473 217,777l0 400 78 0 119 476 3 12 0 -1788c0,-382 242,-721 600,-848l0 -252zm-922 2600l-78 313 0 887 200 0 0 -888 -78 -312 -44 0zm2122 -900l0 1100 -1400 0 0 -1100 1400 0zm-200 200l-1000 0 0 700 1000 0 0 -700zm-300 -1500l-400 0c-385,0 -700,315 -700,700l0 3000c0,55 45,100 100,100l1600 0c55,0 100,-45 100,-100l0 -3000c0,-385 -315,-700 -700,-700zm-400 -1000c-56,0 -100,44 -100,100 0,55 45,100 100,100 55,0 100,-45 100,-100 0,-56 -44,-100 -100,-100z"/>
</svg>