<?xml version="1.0" encoding="UTF-8"?>
<!DOCTYPE svg PUBLIC "-//W3C//DTD SVG 1.1//EN" "http://www.w3.org/Graphics/SVG/1.1/DTD/svg11.dtd">
<svg xmlns="http://www.w3.org/2000/svg" xml:space="preserve" width="580px" height="580px" shape-rendering="geometricPrecision" text-rendering="geometricPrecision" image-rendering="optimizeQuality" fill-rule="nonzero" clip-rule="nonzero" viewBox="0 0 5800 5800" xmlns:xlink="http://www.w3.org/1999/xlink">
	<title>fire_truck icon</title>
	<desc>fire_truck icon from the IconExperience.com I-Collection. Copyright by INCORS GmbH (www.incors.com).</desc>
	<path id="curve0"  d="M2814 4200l786 0 0 -1200c0,-55 45,-100 100,-100 333,0 667,0 1000,0 7,0 71,29 71,29l700 700c19,20 29,45 29,71l0 700 -215 0c-71,-348 -378,-600 -735,-600 -356,0 -664,251 -735,600l-930 0c-14,-71 -39,-138 -71,-200zm2682 -2544l116 791 -3351 491c-115,-378 -464,-638 -861,-638 -241,0 -460,95 -621,249l-41 6 20 14c-47,48 -88,100 -123,157l-176 -131 -79 12 58 396 87 -13c-16,66 -25,135 -25,206l-230 34 -116 -792c1781,-261 3562,-521 5342,-782zm-3571 725l408 303 303 -407 -711 104zm1188 -174l407 303 303 -407 -710 104zm1187 -174l407 303 303 -407 -710 104zm989 -145l-338 454 435 -64 -58 -396 -39 6zm-814 524l-408 -304 -303 408 711 -104zm-1187 174l-408 -304 -303 408 711 -104zm-1738 1514c-21,-28 -45,-55 -70,-80 -135,-136 -323,-220 -530,-220 -88,0 -172,15 -250,43l0 -643c0,-387 313,-700 700,-700 387,0 700,313 700,700l0 602c-187,12 -356,93 -480,218 -25,25 -49,52 -70,80zm3000 -100c304,0 550,246 550,550 0,304 -246,550 -550,550 -304,0 -550,-246 -550,-550 0,-304 246,-550 550,-550zm-2400 0c304,0 550,246 550,550 0,304 -246,550 -550,550 -304,0 -550,-246 -550,-550 0,-304 246,-550 550,-550zm-1200 0c304,0 550,246 550,550 0,304 -246,550 -550,550 -304,0 -550,-246 -550,-550 0,-304 246,-550 550,-550z"/>
</svg>