<?xml version="1.0" encoding="UTF-8"?>
<!DOCTYPE svg PUBLIC "-//W3C//DTD SVG 1.1//EN" "http://www.w3.org/Graphics/SVG/1.1/DTD/svg11.dtd">
<svg xmlns="http://www.w3.org/2000/svg" xml:space="preserve" width="580px" height="580px" shape-rendering="geometricPrecision" text-rendering="geometricPrecision" image-rendering="optimizeQuality" fill-rule="nonzero" clip-rule="nonzero" viewBox="0 0 5800 5800" xmlns:xlink="http://www.w3.org/1999/xlink">
	<title>firefighter icon</title>
	<desc>firefighter icon from the IconExperience.com I-Collection. Copyright by INCORS GmbH (www.incors.com).</desc>
	<path id="curve0"  d="M3947 3312c73,39 133,98 176,161 45,67 77,145 77,227l200 0c44,0 80,-25 94,-67 36,-100 35,-300 14,-511 -25,-255 -79,-517 -133,-645 -64,-151 -118,-305 -188,-453l-25 234c29,115 23,242 -20,353 -37,98 -101,185 -193,243 -5,17 -7,27 -10,37 -43,166 -88,341 -190,486 34,-20 66,-39 94,-59 32,-22 72,-23 104,-6zm-2436 -1557l89 -178c7,-605 300,-1085 908,-1232 10,-21 26,-39 46,-49 105,-64 226,-96 346,-96 123,0 247,33 353,100 18,11 31,27 38,45 609,147 902,627 909,1232l89 178c8,17 12,35 10,52 108,189 175,394 259,593 61,144 121,430 148,702 24,237 23,468 -23,598 -43,121 -155,200 -283,200l-169 0c153,56 422,216 539,329 230,224 230,527 230,820l0 31c0,225 -254,370 -605,461 -465,121 -1113,159 -1495,159 -382,0 -1030,-38 -1495,-159 -351,-91 -606,-236 -606,-461l1 -31c0,-293 0,-597 230,-820 109,-106 381,-271 524,-324l15 -5 -169 0c-128,0 -240,-79 -283,-200 -46,-130 -47,-361 -23,-598 27,-272 87,-558 148,-702 84,-199 151,-404 259,-593 -1,-18 2,-35 10,-52zm2451 500l16 -151c-83,62 -170,109 -262,141 -105,37 -215,55 -332,55l-968 0c-117,0 -227,-18 -332,-55 -92,-32 -179,-79 -262,-141l16 151c2,15 0,30 -4,43 -22,78 -18,166 11,243 25,67 71,125 136,157 27,14 45,37 52,64l0 0 19 72c48,183 99,377 218,495 20,19 30,45 30,71 1,0 -2,81 -3,89 36,13 72,26 110,37 149,45 316,74 493,74 178,0 347,-29 498,-74 36,-11 72,-23 106,-36 -2,-28 -3,-57 -4,-88 0,-28 11,-54 30,-73l0 0c121,-119 170,-309 216,-488 9,-36 19,-71 21,-79 8,-30 29,-53 56,-65 63,-33 108,-90 133,-156 29,-78 32,-168 9,-247 -4,-13 -5,-26 -3,-39zm235 1846c-23,174 -174,324 -407,430 -230,105 -544,169 -890,169 -346,0 -660,-64 -890,-169 -233,-106 -384,-256 -407,-430 -120,50 -342,182 -433,270 -180,175 -173,476 -170,709 0,111 191,200 455,268 444,116 1073,152 1445,152 372,0 1001,-36 1445,-152 264,-68 455,-157 455,-268 3,-233 10,-534 -170,-709 -91,-88 -313,-220 -433,-270zm-2241 -784c28,20 60,39 94,58 -100,-144 -147,-322 -191,-491 -1,-6 -3,-14 -8,-30 -92,-58 -156,-145 -193,-243 -42,-111 -49,-239 -20,-353l-25 -234c-70,148 -124,302 -188,453 -54,128 -108,390 -133,645 -21,211 -22,411 14,511 14,42 50,67 94,67l200 0 0 -6c0,-153 122,-313 254,-382 33,-18 72,-15 102,5zm2002 268c-16,-24 -36,-46 -59,-65 -119,73 -271,145 -444,197 -168,50 -356,83 -555,83 -197,0 -384,-33 -550,-83 -176,-52 -330,-125 -449,-198 -47,38 -101,114 -101,175l0 361c0,107 112,212 292,294 205,93 491,151 808,151 317,0 603,-58 807,-151 181,-82 293,-187 293,-294l0 -361c0,-30 -15,-70 -42,-109zm-1058 -1885c-220,0 -400,-180 -400,-400l0 -747c-495,146 -700,553 -700,1047 0,15 -4,30 -11,45l-64 128 191 152c74,59 151,103 234,132 82,29 170,43 266,43l968 0c96,0 184,-14 266,-43 83,-29 160,-73 234,-132l191 -152 -60 -120c-9,-15 -15,-34 -15,-53 0,-494 -205,-901 -700,-1047l0 747c0,220 -180,400 -400,400zm0 -200c110,0 200,-90 200,-200l0 -856c-62,-29 -131,-44 -200,-44 -69,0 -138,15 -200,44l0 856c0,110 90,200 200,200z"/>
</svg>