<?xml version="1.0" encoding="UTF-8"?>
<!DOCTYPE svg PUBLIC "-//W3C//DTD SVG 1.1//EN" "http://www.w3.org/Graphics/SVG/1.1/DTD/svg11.dtd">
<svg xmlns="http://www.w3.org/2000/svg" xml:space="preserve" width="580px" height="580px" shape-rendering="geometricPrecision" text-rendering="geometricPrecision" image-rendering="optimizeQuality" fill-rule="nonzero" clip-rule="nonzero" viewBox="0 0 5800 5800" xmlns:xlink="http://www.w3.org/1999/xlink">
	<title>fire_hydrant icon</title>
	<desc>fire_hydrant icon from the IconExperience.com I-Collection. Copyright by INCORS GmbH (www.incors.com).</desc>
	<path id="curve0"  d="M3400 634c76,44 145,97 207,159 186,186 243,359 293,606l50 -1c193,0 350,157 350,350 0,98 -41,188 -107,252l-2588 0c-65,-64 -105,-153 -105,-249 0,-193 156,-350 349,-350 16,-1 33,0 50,0l21 -101c57,-282 234,-525 483,-668l-3 -332c0,-110 90,-200 200,-200l600 0c110,0 200,90 200,200l0 334zm607 1566l14 100 279 0 0 -1 0 1002 0 -1 -146 0 107 800 -2722 0 107 -800 -146 0 0 1 0 -1001 0 0 279 0 14 -100 2214 0zm280 2100l2 14c124,39 211,154 211,286l0 700 200 0 0 200c-1200,0 -2400,0 -3600,0l0 -200 200 0 0 -700c0,-131 87,-248 211,-286l2 -14 2774 0zm213 -2200l200 0c220,0 400,180 400,400l0 600c0,220 -180,400 -400,400l-200 0 0 -1400zm-3200 1400l-200 0c-220,0 -400,-180 -400,-400l0 -600c0,-220 180,-400 400,-400l200 0 0 0 0 1400z"/>
</svg>