<?xml version="1.0" encoding="UTF-8"?>
<!DOCTYPE svg PUBLIC "-//W3C//DTD SVG 1.1//EN" "http://www.w3.org/Graphics/SVG/1.1/DTD/svg11.dtd">
<svg xmlns="http://www.w3.org/2000/svg" xml:space="preserve" width="580px" height="580px" shape-rendering="geometricPrecision" text-rendering="geometricPrecision" image-rendering="optimizeQuality" fill-rule="nonzero" clip-rule="nonzero" viewBox="0 0 5800 5800" xmlns:xlink="http://www.w3.org/1999/xlink">
	<title>first_aid_box icon</title>
	<desc>first_aid_box icon from the IconExperience.com I-Collection. Copyright by INCORS GmbH (www.incors.com).</desc>
	<path id="curve0" d="M1700 2947l500 250 0 -557 200 100 0 557 500 250 0 223 -500 -250 0 530 -200 -100 0 -530 -500 -250 0 -223zm3400 1653c0,43 -27,79 -64,93l-1391 696c-30,15 -62,14 -90,0l-2600 -1300c-34,-17 -55,-53 -55,-89l0 -2700c0,-43 27,-79 64,-93l1391 -696c30,-15 62,-14 90,0l2600 1300c8,4 17,10 24,17l0 0c2,2 3,4 5,5l0 0 1 2 1 0 0 1 1 1 1 1 1 1 1 1 0 1 1 1 1 1 1 1 0 1 1 2 0 0 1 2 1 0 1 2 0 0 1 2 0 0 1 2 0 0 0 1 1 1 0 0 0 0 1 2 0 1 0 0 1 1 0 1 0 0c4,9 6,18 7,27l0 0 0 0 0 3 0 0 0 1 0 1 0 0 0 0 0 1 1 1 0 0 0 1 0 0 0 1 0 1 0 0 0 0 0 1 0 2700zm-3877 -3300l2377 1189 1177 -589 -2377 -1189 -1177 589zm3677 3239l0 -2478 -1200 600 0 2478 1200 -600zm-1400 -1878l-2400 -1200 0 2478 2400 1200 0 -2478z"/>
</svg>