<?xml version="1.0" encoding="UTF-8"?>
<!DOCTYPE svg PUBLIC "-//W3C//DTD SVG 1.1//EN" "http://www.w3.org/Graphics/SVG/1.1/DTD/svg11.dtd">
<svg xmlns="http://www.w3.org/2000/svg" xml:space="preserve" width="580px" height="580px" shape-rendering="geometricPrecision" text-rendering="geometricPrecision" image-rendering="optimizeQuality" fill-rule="nonzero" clip-rule="nonzero" viewBox="0 0 5800 5800" xmlns:xlink="http://www.w3.org/1999/xlink">
	<title>fish_bowl icon</title>
	<desc>fish_bowl icon from the IconExperience.com I-Collection. Copyright by INCORS GmbH (www.incors.com).</desc>
		<path id="curve28" d="M3458 3180c165,0 169,125 174,261 2,53 4,111 16,112 54,2 55,1 55,0 17,-90 35,-187 314,-187 378,0 491,91 491,228 0,84 -53,164 -110,249 -32,48 -90,130 -95,188 -1,24 50,92 101,161 72,96 145,193 145,288 0,122 -86,203 -346,203 -424,0 -492,-188 -543,-325 -9,-26 -14,-47 -15,-47 -132,0 -152,144 -168,264 -22,159 -41,294 -205,294l-372 0c-111,0 -148,-72 -186,-145 -11,-22 -20,-43 -21,-43 -200,-43 -413,-136 -570,-254 -152,-114 -254,-253 -254,-402 0,-145 101,-285 256,-401 151,-114 358,-208 567,-255 15,-4 70,-37 127,-71 95,-57 196,-119 267,-118l372 0zm1132 -2056c578,496 910,1214 910,1976 0,1042 -622,1983 -1580,2392l-19 8 -2002 0 -19 -8c-958,-409 -1580,-1350 -1580,-2392 0,-762 332,-1480 910,-1976l29 -24 3322 0 29 24zm491 973c-141,-306 -344,-577 -593,-797l-3176 0c-249,220 -452,491 -593,797l4362 0zm-4445 203c-88,250 -136,519 -136,800 0,955 564,1817 1439,2200l1922 0c427,-187 789,-494 1044,-879 249,-379 395,-833 395,-1321 0,-281 -48,-550 -136,-800l-4528 0zm864 1400c55,0 100,45 100,100 0,55 -45,100 -100,100 -55,0 -100,-45 -100,-100 0,-55 45,-100 100,-100zm-100 -600c110,0 200,90 200,200 0,110 -90,200 -200,200 -110,0 -200,-90 -200,-200 0,-110 90,-200 200,-200zm300 -700c166,0 300,134 300,300 0,165 -135,300 -300,300 -166,0 -300,-134 -300,-300 0,-165 135,-300 300,-300zm0 200c-56,0 -100,44 -100,100 0,55 45,100 100,100 27,0 52,-10 71,-29 18,-18 29,-43 29,-71 0,-55 -45,-100 -100,-100zm1733 848c-1,-35 53,-68 25,-68l-372 0c-27,0 -136,72 -163,89 -72,43 -139,84 -187,94 -182,42 -362,123 -492,220 -106,79 -175,166 -175,242 0,79 70,165 174,243 133,100 318,180 492,217 90,20 124,84 156,148 10,18 -1,36 9,36l372 0c10,0 -2,-56 7,-122 28,-197 61,-436 366,-436 137,0 166,79 203,179 30,82 71,193 355,193 109,0 146,-1 146,-3 0,-30 -52,-100 -104,-169 -61,-81 -146,-186 -142,-292 7,-104 70,-198 129,-287 40,-58 76,-113 76,-138 0,-17 -67,-28 -291,-28 -114,0 -116,12 -118,23 -17,89 -32,171 -258,163 -197,-7 -203,-162 -208,-304z"/>
</svg>