<?xml version="1.0" encoding="UTF-8"?>
<!DOCTYPE svg PUBLIC "-//W3C//DTD SVG 1.1//EN" "http://www.w3.org/Graphics/SVG/1.1/DTD/svg11.dtd">
<svg xmlns="http://www.w3.org/2000/svg" xml:space="preserve" width="580px" height="580px" shape-rendering="geometricPrecision" text-rendering="geometricPrecision" image-rendering="optimizeQuality" fill-rule="nonzero" clip-rule="nonzero" viewBox="0 0 5800 5800" xmlns:xlink="http://www.w3.org/1999/xlink">
	<title>fit_to_size icon</title>
	<desc>fit_to_size icon from the IconExperience.com I-Collection. Copyright by INCORS GmbH (www.incors.com).</desc>
		<path id="curve28" d="M300 700l400 0 0 -400 200 0 0 400 4000 0 0 -400 200 0 0 400 400 0 0 200 -400 0 0 4000 400 0 0 200 -400 0 0 400 -200 0 0 -400 -4000 0 0 400 -200 0 0 -400 -400 0 0 -200 400 0 0 -4000 -400 0 0 -200zm4600 200l-4000 0 0 4000 4000 0 0 -4000zm-2671 729l671 -670 671 670 -142 142 -529 -530 -529 530 -142 -142zm1942 600l670 671 -670 671 -142 -142 530 -529 -530 -529 142 -142zm-600 1942l-671 670 -671 -670 142 -142 529 530 529 -530 142 142zm-1942 -600l-670 -671 670 -671 142 142 -530 529 530 529 -142 142z"/>
</svg>