<?xml version="1.0" encoding="UTF-8"?>
<!DOCTYPE svg PUBLIC "-//W3C//DTD SVG 1.1//EN" "http://www.w3.org/Graphics/SVG/1.1/DTD/svg11.dtd">
<svg xmlns="http://www.w3.org/2000/svg" xml:space="preserve" width="580px" height="580px" shape-rendering="geometricPrecision" text-rendering="geometricPrecision" image-rendering="optimizeQuality" fill-rule="nonzero" clip-rule="nonzero" viewBox="0 0 5800 5800" xmlns:xlink="http://www.w3.org/1999/xlink">
	<title>flame icon</title>
	<desc>flame icon from the IconExperience.com I-Collection. Copyright by INCORS GmbH (www.incors.com).</desc>
		<path id="curve28"  d="M2334 305c677,209 1304,698 1756,1321 441,607 717,1344 710,2075 -5,491 -223,943 -570,1272 -343,324 -813,527 -1330,527 -503,0 -988,-202 -1342,-536 -339,-320 -558,-762 -558,-1264 0,-803 440,-1269 834,-1688 424,-449 791,-837 384,-1563l-123 -218 239 74zm1466 4328c0,-366 -178,-533 -355,-699 -193,-181 -383,-360 -218,-905l66 -216 -203 97c-331,157 -602,359 -791,619 -192,263 -299,582 -299,971 0,272 101,516 260,694l0 0c165,185 394,297 640,297 244,0 473,-92 638,-249 160,-152 261,-363 262,-609zm-399 464c122,-115 199,-276 199,-464 1,-280 -146,-417 -291,-554 -210,-196 -417,-391 -327,-888 -214,125 -391,275 -523,455 -166,229 -259,509 -259,854 0,222 81,419 208,561l0 0c129,143 305,230 492,230 193,0 372,-72 501,-194z"/>
</svg>