<?xml version="1.0" encoding="UTF-8"?>
<!DOCTYPE svg PUBLIC "-//W3C//DTD SVG 1.1//EN" "http://www.w3.org/Graphics/SVG/1.1/DTD/svg11.dtd">
<svg xmlns="http://www.w3.org/2000/svg" xml:space="preserve" width="580px" height="580px" shape-rendering="geometricPrecision" text-rendering="geometricPrecision" image-rendering="optimizeQuality" fill-rule="nonzero" clip-rule="nonzero" viewBox="0 0 5800 5800" xmlns:xlink="http://www.w3.org/1999/xlink">
	<title>flame icon</title>
	<desc>flame icon from the IconExperience.com I-Collection. Copyright by INCORS GmbH (www.incors.com).</desc>
		<path id="curve28" d="M2334 305c677,209 1304,698 1756,1321 441,607 717,1344 710,2075 -11,1018 -904,1799 -1900,1799 -992,0 -1900,-780 -1900,-1800 0,-803 440,-1269 834,-1688 424,-449 791,-837 384,-1563l-123 -218 239 74zm1466 4328c-1,195 -64,368 -170,507 562,-259 964,-811 970,-1441 7,-685 -254,-1381 -672,-1956 -376,-519 -878,-939 -1426,-1166 292,709 -89,1113 -522,1572 -369,391 -780,826 -780,1551 0,664 438,1222 1038,1468 -147,-175 -238,-408 -238,-668 0,-389 107,-708 299,-971 189,-260 460,-462 791,-619l203 -97 -66 216c-165,545 25,724 218,905 177,166 355,333 355,699zm-200 0c1,-280 -146,-417 -291,-554 -210,-196 -417,-391 -327,-888 -214,125 -391,275 -523,455 -166,229 -259,509 -259,854 0,391 280,791 700,791 375,0 700,-271 700,-658z"/>
</svg>