<?xml version="1.0" encoding="UTF-8"?>
<!DOCTYPE svg PUBLIC "-//W3C//DTD SVG 1.1//EN" "http://www.w3.org/Graphics/SVG/1.1/DTD/svg11.dtd">
<svg xmlns="http://www.w3.org/2000/svg" xml:space="preserve" width="580px" height="580px" shape-rendering="geometricPrecision" text-rendering="geometricPrecision" image-rendering="optimizeQuality" fill-rule="nonzero" clip-rule="nonzero" viewBox="0 0 5800 5800" xmlns:xlink="http://www.w3.org/1999/xlink">
	<title>flashlight icon</title>
	<desc>flashlight icon from the IconExperience.com I-Collection. Copyright by INCORS GmbH (www.incors.com).</desc>
		<path id="curve29"  d="M2427 3870l0 -400c0,-30 -8,-50 -29,-71l-1921 -1922c-117,-116 -117,-307 0,-424l565 -565c117,-117 308,-117 425,0l1921 1921c21,21 42,29 71,29l400 0c80,0 155,31 212,88l578 578 -524 524c58,153 26,333 -97,456 -122,122 -303,154 -456,96l-479 480 -578 -578c-57,-58 -88,-131 -88,-212zm171 -1611c-193,0 -350,157 -350,350 0,193 157,350 350,350 193,0 350,-157 350,-350 0,-193 -157,-350 -350,-350z"/>
	<path id="curve28"  d="M3700 4800l0 500 -200 0 0 -500 200 0zm1100 -1300l500 0 0 200 -500 0 0 -200zm-53 467l462 191 -76 185 -462 -192 76 -184zm-228 411l354 353 -142 142 -353 -354 141 -141zm-368 293l192 462 -185 75 -191 -461 184 -76z"/>
</svg>