<?xml version="1.0" encoding="UTF-8"?>
<!DOCTYPE svg PUBLIC "-//W3C//DTD SVG 1.1//EN" "http://www.w3.org/Graphics/SVG/1.1/DTD/svg11.dtd">
<svg xmlns="http://www.w3.org/2000/svg" xml:space="preserve" width="580px" height="580px" shape-rendering="geometricPrecision" text-rendering="geometricPrecision" image-rendering="optimizeQuality" fill-rule="nonzero" clip-rule="nonzero" viewBox="0 0 5800 5800" xmlns:xlink="http://www.w3.org/1999/xlink">
	<title>flashlight icon</title>
	<desc>flashlight icon from the IconExperience.com I-Collection. Copyright by INCORS GmbH (www.incors.com).</desc>
		<path id="curve29"  d="M2598 2259c193,0 350,157 350,350 0,193 -157,350 -350,350 -193,0 -350,-157 -350,-350 0,-193 157,-350 350,-350zm1527 1369c18,47 28,99 28,153 0,237 -191,428 -427,428 -54,0 -106,-10 -154,-28l-479 479 -578 -578c-57,-58 -88,-131 -88,-212l0 -400c0,-30 -8,-50 -29,-71l-1921 -1922c-117,-116 -117,-307 0,-424l565 -565c117,-117 308,-117 425,0l1921 1921c21,21 42,29 71,29l400 0c80,0 155,31 212,88l578 578 -524 524zm-1498 -158l0 400c0,28 9,50 29,70l437 437 1273 -1273 -437 -436c-20,-21 -41,-30 -70,-30l-400 0c-81,0 -155,-30 -212,-88l-1922 -1921c-38,-39 -103,-39 -141,0l-566 566c-38,38 -39,103 0,141l1921 1922c58,57 88,131 88,212zm-29 -1011c-83,0 -150,67 -150,150 0,83 67,150 150,150 83,0 150,-67 150,-150 0,-83 -67,-150 -150,-150z"/>
	<path id="curve28"  d="M3700 4800l0 500 -200 0 0 -500 200 0zm1100 -1300l500 0 0 200 -500 0 0 -200zm-53 467l462 191 -76 185 -462 -192 76 -184zm-228 411l354 353 -142 142 -353 -354 141 -141zm-368 293l192 462 -185 75 -191 -461 184 -76z"/>
</svg>