<?xml version="1.0" encoding="UTF-8"?>
<!DOCTYPE svg PUBLIC "-//W3C//DTD SVG 1.1//EN" "http://www.w3.org/Graphics/SVG/1.1/DTD/svg11.dtd">
<svg xmlns="http://www.w3.org/2000/svg" xml:space="preserve" width="580px" height="580px" shape-rendering="geometricPrecision" text-rendering="geometricPrecision" image-rendering="optimizeQuality" fill-rule="nonzero" clip-rule="nonzero" viewBox="0 0 5800 5800" xmlns:xlink="http://www.w3.org/1999/xlink">
	<title>floppy_disks icon</title>
	<desc>floppy_disks icon from the IconExperience.com I-Collection. Copyright by INCORS GmbH (www.incors.com).</desc>
		<path id="curve28"  d="M5500 300l0 3600 -1400 0 0 -200 400 0 0 -1200 -400 0 0 -600 400 0c110,0 200,-90 200,-200l0 -1200 -2000 -15 0 1215 -800 0 0 -1400 3600 0zm-4000 4800l200 0 0 -600 400 0 0 -200 -600 0 0 800zm-200 -2800l0 200 1600 0 0 -200 -1600 0zm2600 -400l0 3600 -3341 0 -259 -259 0 -3341 3600 0zm-2600 2200l0 1200 1600 0 0 -1200 -1600 0zm-200 -2000l0 1200c0,110 90,200 200,200l1600 0c110,0 200,-90 200,-200l0 -1200 -2000 0zm1800 -1400l1600 0 0 200 -1600 0 0 -200z"/>
</svg>