<?xml version="1.0" encoding="UTF-8"?>
<!DOCTYPE svg PUBLIC "-//W3C//DTD SVG 1.1//EN" "http://www.w3.org/Graphics/SVG/1.1/DTD/svg11.dtd">
<svg xmlns="http://www.w3.org/2000/svg" xml:space="preserve" width="580px" height="580px" shape-rendering="geometricPrecision" text-rendering="geometricPrecision" image-rendering="optimizeQuality" fill-rule="nonzero" clip-rule="nonzero" viewBox="0 0 5800 5800" xmlns:xlink="http://www.w3.org/1999/xlink">
	<title>floppy_disk_window icon</title>
	<desc>floppy_disk_window icon from the IconExperience.com I-Collection. Copyright by INCORS GmbH (www.incors.com).</desc>
		<path id="curve28"  d="M3900 300l0 2001 -1700 -1c-158,0 -305,76 -399,200l-502 0 1 1200 400 0 0 200 -1141 0 -259 -259 0 -3341 3600 0zm-1700 2200l3000 0c165,0 300,135 300,300l0 100 -3600 0 0 -100c0,-165 135,-300 300,-300zm3300 600l0 2400 -3600 0 0 -2400 3600 0zm-3790 -400c-7,33 -10,66 -10,100l0 700 -200 0 0 -800 210 0zm-410 -2000l0 200 1600 0 0 -200 -1600 0zm-200 -200l0 1200c0,110 90,200 200,200l1600 0c110,0 200,-90 200,-200l0 -1200 -2000 0z"/>
</svg>