<?xml version="1.0" encoding="UTF-8"?>
<!DOCTYPE svg PUBLIC "-//W3C//DTD SVG 1.1//EN" "http://www.w3.org/Graphics/SVG/1.1/DTD/svg11.dtd">
<svg xmlns="http://www.w3.org/2000/svg" xml:space="preserve" width="580px" height="580px" shape-rendering="geometricPrecision" text-rendering="geometricPrecision" image-rendering="optimizeQuality" fill-rule="nonzero" clip-rule="nonzero" viewBox="0 0 5800 5800" xmlns:xlink="http://www.w3.org/1999/xlink">
	<title>floppy_disk icon</title>
	<desc>floppy_disk icon from the IconExperience.com I-Collection. Copyright by INCORS GmbH (www.incors.com).</desc>
		<path id="curve28"  d="M2000 4900l0 -1200 800 0 0 200 -600 0 0 1000 -200 0zm3300 -4400l0 4800c-1480,0 -2961,0 -4441,0l-359 -359 0 -4441c1600,0 3200,0 4800,0zm-200 200l-600 0 0 1700c0,275 -224,500 -500,500l-2200 0c-276,0 -500,-225 -500,-500l0 -1700 -600 0 0 4159 241 241 559 0 0 -1800 2800 0 0 1800 800 0 0 -4400zm-800 0l-2800 0 0 1700c0,165 135,300 300,300l2200 0c165,0 300,-135 300,-300l0 -1700zm-2400 200l2000 0 0 200 -2000 0 0 -200zm2200 2600l-2400 0 0 1600 2400 0 0 -1600z"/>
</svg>