<?xml version="1.0" encoding="UTF-8"?>
<!DOCTYPE svg PUBLIC "-//W3C//DTD SVG 1.1//EN" "http://www.w3.org/Graphics/SVG/1.1/DTD/svg11.dtd">
<svg xmlns="http://www.w3.org/2000/svg" xml:space="preserve" width="580px" height="580px" shape-rendering="geometricPrecision" text-rendering="geometricPrecision" image-rendering="optimizeQuality" fill-rule="nonzero" clip-rule="nonzero" viewBox="0 0 5800 5800" xmlns:xlink="http://www.w3.org/1999/xlink">
	<title>floppy_disk_window icon</title>
	<desc>floppy_disk_window icon from the IconExperience.com I-Collection. Copyright by INCORS GmbH (www.incors.com).</desc>
		<path id="curve29" d="M3900 300l0 2001 -200 0 0 -1801 -400 0 0 1300c0,165 -135,300 -300,300l-1800 0c-165,0 -300,-135 -300,-300l0 -1300 -400 0 0 3059 141 141 459 0 0 -1400 1100 0c-158,0 -305,76 -399,200l-501 0 0 1200 400 0 0 200 -1141 0 -259 -259 0 -3341 3600 0zm-2200 3200l-200 0 0 -800 210 0c-7,32 -10,66 -10,100l0 700zm-400 -2800l1600 0 0 200 -1600 0 0 -200zm-200 -200l0 1300c0,55 45,100 100,100l1800 0c55,0 100,-45 100,-100l0 -1300 -2000 0z"/>
	<path id="curve28" d="M2100 3100l3200 0 0 -300c0,-55 -45,-100 -100,-100l-3000 0c-55,0 -100,45 -100,100l0 300zm3200 200l-3200 0 0 2000 3200 0 0 -2000zm-3100 -800l3000 0c165,0 300,135 300,300l0 400 0 2300 -3600 0 0 -2300 0 -400c0,-165 135,-300 300,-300z"/>
</svg>