<?xml version="1.0" encoding="UTF-8"?>
<!DOCTYPE svg PUBLIC "-//W3C//DTD SVG 1.1//EN" "http://www.w3.org/Graphics/SVG/1.1/DTD/svg11.dtd">
<svg xmlns="http://www.w3.org/2000/svg" xml:space="preserve" width="580px" height="580px" shape-rendering="geometricPrecision" text-rendering="geometricPrecision" image-rendering="optimizeQuality" fill-rule="nonzero" clip-rule="nonzero" viewBox="0 0 5800 5800" xmlns:xlink="http://www.w3.org/1999/xlink">
	<title>floppy_disk icon</title>
	<desc>floppy_disk icon from the IconExperience.com I-Collection. Copyright by INCORS GmbH (www.incors.com).</desc>
		<path id="curve28"  d="M5300 500l0 4800 -4441 0 -359 -359 0 -4441 4800 0zm-3300 4400l200 0 0 -1000 600 0 0 -200 -800 0 0 1200zm-100 -4000l0 200 2000 0 0 -200 -2000 0zm-200 2600l0 1600 2400 0 0 -1600 -2400 0zm-200 -2800l0 1600c0,220 180,400 400,400l2000 0c220,0 400,-180 400,-400l0 -1600 -2800 0z"/>
</svg>