<?xml version="1.0" encoding="UTF-8"?>
<!DOCTYPE svg PUBLIC "-//W3C//DTD SVG 1.1//EN" "http://www.w3.org/Graphics/SVG/1.1/DTD/svg11.dtd">
<svg xmlns="http://www.w3.org/2000/svg" xml:space="preserve" width="580px" height="580px" shape-rendering="geometricPrecision" text-rendering="geometricPrecision" image-rendering="optimizeQuality" fill-rule="nonzero" clip-rule="nonzero" viewBox="0 0 5800 5800" xmlns:xlink="http://www.w3.org/1999/xlink">
	<title>floppy_drive icon</title>
	<desc>floppy_drive icon from the IconExperience.com I-Collection. Copyright by INCORS GmbH (www.incors.com).</desc>
		<path id="curve29" d="M3800 300c165,0 300,135 300,300l0 1500 -200 0 0 -1500c0,-55 -45,-100 -100,-100l-3200 0c-55,0 -100,45 -100,100l0 4200c0,55 45,100 100,100l1500 0 0 200 -1500 0c-165,0 -300,-135 -300,-300l0 -4200c0,-165 135,-300 300,-300l3200 0zm-2900 400c110,0 200,90 200,200 0,110 -90,200 -200,200 -110,0 -200,-90 -200,-200 0,-110 90,-200 200,-200zm2600 0c110,0 200,90 200,200 0,110 -90,200 -200,200 -110,0 -200,-90 -200,-200 0,-110 90,-200 200,-200zm-2600 3600c110,0 200,90 200,200 0,110 -90,200 -200,200 -110,0 -200,-90 -200,-200 0,-110 90,-200 200,-200z"/>
	<path id="curve28" d="M3300 5100l0 -600 400 0 0 200 -200 0 0 400 -200 0zm2200 -2800l0 3200c-981,0 -1961,0 -2941,0l-259 -258 0 -2942c1067,0 2133,0 3200,0zm-200 200l-200 0 0 1100c0,165 -135,300 -300,300l-1800 0c-165,0 -300,-135 -300,-300l0 -1100 -200 0 0 2658 141 142 259 0 0 -1100 0 -100 100 0 1600 0 100 0 0 100 0 1100 600 0 0 -2800zm-2200 2800l1400 0 0 -1000 -1400 0 0 1000zm1800 -2800l-2000 0 0 1100c0,55 45,100 100,100l1800 0c55,0 100,-45 100,-100l0 -1100zm-1800 200l1600 0 0 200 -1600 0 0 -200z"/>
</svg>