<?xml version="1.0" encoding="UTF-8"?>
<!DOCTYPE svg PUBLIC "-//W3C//DTD SVG 1.1//EN" "http://www.w3.org/Graphics/SVG/1.1/DTD/svg11.dtd">
<svg xmlns="http://www.w3.org/2000/svg" xml:space="preserve" width="580px" height="580px" shape-rendering="geometricPrecision" text-rendering="geometricPrecision" image-rendering="optimizeQuality" fill-rule="nonzero" clip-rule="nonzero" viewBox="0 0 5800 5800" xmlns:xlink="http://www.w3.org/1999/xlink">
	<title>floppy_disks icon</title>
	<desc>floppy_disks icon from the IconExperience.com I-Collection. Copyright by INCORS GmbH (www.incors.com).</desc>
		<path id="curve29"  d="M5500 300l0 3600 -1400 0 0 -200 400 0 0 -1200 -400 0 0 -200 600 0 0 1400 600 0 0 -3200 -400 0 0 1300c0,165 -135,300 -300,300l-500 0 0 -200 500 0c55,0 100,-45 100,-100l0 -1300 -2000 0 0 1215 -200 0 0 -1215 -400 0 0 1215 -200 0 0 -1415 3600 0zm-2600 400l1600 0 0 200 -1600 0 0 -200z"/>
	<path id="curve28"  d="M1500 5100l0 -800 600 0 0 200 -400 0 0 600 -200 0zm2400 -3200l0 3600c-1114,0 -2228,0 -3341,0l-259 -259 0 -3341 3600 0zm-200 200l-400 0 0 1300c0,165 -135,300 -300,300l-1800 0c-165,0 -300,-135 -300,-300l0 -1300 -400 0 0 3059 141 141 459 0 0 -1400 2000 0 0 1400 600 0 0 -3200zm-600 0l-2000 0 0 1300c0,55 45,100 100,100l1800 0c55,0 100,-45 100,-100l0 -1300zm-1800 3200l1600 0 0 -1200 -1600 0 0 1200zm0 -3000l1600 0 0 200 -1600 0 0 -200z"/>
</svg>