<?xml version="1.0" encoding="UTF-8"?>
<!DOCTYPE svg PUBLIC "-//W3C//DTD SVG 1.1//EN" "http://www.w3.org/Graphics/SVG/1.1/DTD/svg11.dtd">
<svg xmlns="http://www.w3.org/2000/svg" xml:space="preserve" width="580px" height="580px" shape-rendering="geometricPrecision" text-rendering="geometricPrecision" image-rendering="optimizeQuality" fill-rule="nonzero" clip-rule="nonzero" viewBox="0 0 5800 5800" xmlns:xlink="http://www.w3.org/1999/xlink">
	<title>floppy_drive icon</title>
	<desc>floppy_drive icon from the IconExperience.com I-Collection. Copyright by INCORS GmbH (www.incors.com).</desc>
		<path id="curve28"  d="M900 4300c-110,0 -200,90 -200,200 0,110 90,200 200,200 110,0 200,-90 200,-200 0,-110 -90,-200 -200,-200zm2400 800l200 0 0 -400 200 0 0 -200 -400 0 0 600zm-200 -2400l0 200 1600 0 0 -200 -1600 0zm2400 -400l0 3200 -2941 0 -259 -258 0 -2942 3200 0zm-2600 200l0 1100c0,55 45,100 100,100 600,0 1200,0 1800,0 55,0 100,-45 100,-100l0 -1100 -2000 0zm1600 1800l-1400 0 0 1000 1400 0 0 -1000zm-1000 -3600c-110,0 -200,90 -200,200 0,110 90,200 200,200 110,0 200,-90 200,-200 0,-110 -90,-200 -200,-200zm-2600 0c-110,0 -200,90 -200,200 0,110 90,200 200,200 110,0 200,-90 200,-200 0,-110 -90,-200 -200,-200zm2900 -400c165,0 300,135 300,300l0 1500 -2000 0 0 3000 -1500 0c-165,0 -300,-135 -300,-300l0 -4200c0,-165 135,-300 300,-300l3200 0z"/>
</svg>