<?xml version="1.0" encoding="UTF-8"?>
<!DOCTYPE svg PUBLIC "-//W3C//DTD SVG 1.1//EN" "http://www.w3.org/Graphics/SVG/1.1/DTD/svg11.dtd">
<svg xmlns="http://www.w3.org/2000/svg" xml:space="preserve" width="580px" height="580px" shape-rendering="geometricPrecision" text-rendering="geometricPrecision" image-rendering="optimizeQuality" fill-rule="nonzero" clip-rule="nonzero" viewBox="0 0 5800 5800" xmlns:xlink="http://www.w3.org/1999/xlink">
	<title>flower icon</title>
	<desc>flower icon from the IconExperience.com I-Collection. Copyright by INCORS GmbH (www.incors.com).</desc>
		<path id="curve28"  d="M3530 2123c157,-248 379,-503 856,-657 245,-80 515,-109 707,96 94,99 110,231 129,378 26,211 55,297 157,483 71,129 135,246 118,381 -36,280 -270,415 -516,494 -514,167 -856,67 -1142,-54 40,-107 61,-223 61,-344 0,-303 -136,-587 -370,-777zm293 1162c303,69 641,189 959,627 151,209 262,456 127,703 -66,119 -186,176 -321,239 -191,90 -265,144 -410,298 -101,109 -192,205 -326,231 -277,52 -478,-130 -629,-338 -332,-457 -329,-827 -297,-1145 395,-10 746,-252 897,-615zm-949 615c32,318 35,688 -297,1145 -151,208 -352,390 -629,338 -134,-26 -225,-122 -326,-231 -145,-154 -219,-208 -410,-298 -135,-63 -255,-120 -321,-239 -135,-247 -24,-494 127,-703 318,-438 656,-558 959,-627 151,363 502,605 897,615zm-913 -656c-286,121 -628,221 -1142,54 -246,-79 -480,-214 -516,-494 -17,-135 47,-252 118,-381 102,-186 131,-272 157,-483 19,-147 35,-279 129,-378 192,-205 462,-176 707,-96 477,154 699,409 856,657 -234,190 -370,474 -370,777 0,121 21,237 61,344zm335 -1141c-187,-226 -360,-516 -360,-1017 0,-258 57,-523 311,-643 123,-58 254,-33 399,-6 208,40 300,40 508,0 145,-27 276,-52 399,6 254,120 311,385 311,643 0,501 -173,791 -360,1017 -168,-127 -377,-203 -604,-203 -227,0 -436,76 -604,203zm604 -3c-442,0 -800,358 -800,800 0,442 358,800 800,800 442,0 800,-358 800,-800 0,-442 -358,-800 -800,-800z"/>
</svg>