<?xml version="1.0" encoding="UTF-8"?>
<!DOCTYPE svg PUBLIC "-//W3C//DTD SVG 1.1//EN" "http://www.w3.org/Graphics/SVG/1.1/DTD/svg11.dtd">
<svg xmlns="http://www.w3.org/2000/svg" xml:space="preserve" width="580px" height="580px" shape-rendering="geometricPrecision" text-rendering="geometricPrecision" image-rendering="optimizeQuality" fill-rule="nonzero" clip-rule="nonzero" viewBox="0 0 5800 5800" xmlns:xlink="http://www.w3.org/1999/xlink">
	<title>flower icon</title>
	<desc>flower icon from the IconExperience.com I-Collection. Copyright by INCORS GmbH (www.incors.com).</desc>
		<path id="curve28"  d="M2900 1900c154,0 301,35 431,97 172,-203 333,-463 333,-911 0,-146 -21,-251 -58,-326 -32,-66 -80,-109 -138,-137 -65,-30 -165,-11 -278,11 -90,17 -187,35 -290,35 -103,0 -200,-18 -290,-35 -113,-22 -213,-41 -278,-11 -58,28 -106,71 -138,137 -37,75 -58,180 -58,326 0,448 161,708 333,911 130,-62 277,-97 431,-97zm604 203c8,6 17,13 26,20 157,-248 379,-503 856,-657 169,-56 306,-71 418,-54 122,18 215,71 289,150 94,99 110,231 129,378 10,82 21,169 48,251 26,82 69,159 109,232 71,129 135,246 118,381 -14,108 -57,206 -146,292 -81,79 -200,147 -370,202 -514,167 -856,67 -1142,-54 -5,14 -10,27 -16,41 303,69 641,189 959,627 105,145 161,270 180,382 21,121 -1,226 -53,321 -66,119 -186,176 -321,239 -74,35 -153,72 -223,124 -70,50 -130,114 -187,174 -101,109 -192,205 -326,231 -107,20 -213,9 -322,-49 -101,-53 -202,-145 -307,-289 -332,-457 -329,-827 -297,-1145 -9,0 -17,0 -26,0 -9,0 -17,0 -26,0 32,318 35,688 -297,1145 -105,144 -206,236 -307,289 -109,58 -215,69 -322,49 -134,-26 -225,-122 -326,-231 -57,-60 -117,-124 -187,-174 -70,-52 -149,-89 -223,-124 -135,-63 -255,-120 -321,-239 -52,-95 -74,-200 -53,-321 19,-112 75,-237 180,-382 318,-438 656,-558 959,-627 -6,-14 -11,-27 -16,-41 -286,121 -628,221 -1142,54 -170,-55 -289,-123 -370,-202 -89,-86 -132,-184 -146,-292 -17,-135 47,-252 118,-381 40,-73 83,-150 109,-232 27,-82 38,-169 48,-251 19,-147 35,-279 129,-378 74,-79 167,-132 289,-150 112,-17 249,-2 418,54 477,154 699,409 856,657 9,-7 18,-14 26,-20 -187,-226 -360,-516 -360,-1017 0,-178 28,-312 79,-414 54,-111 134,-183 232,-229 123,-58 254,-33 399,-6 81,16 167,32 254,32 87,0 173,-16 254,-32 145,-27 276,-52 399,6 98,46 178,118 232,229 51,102 79,236 79,414 0,501 -173,791 -360,1017zm171 165c141,172 225,392 225,632 0,50 -4,100 -11,148 260,112 569,210 1031,60 139,-45 232,-97 292,-155 53,-52 79,-110 87,-174 9,-70 -40,-160 -95,-260 -44,-81 -92,-167 -124,-266 -32,-98 -44,-196 -56,-288 -14,-113 -27,-214 -76,-266 -44,-47 -99,-79 -172,-90 -83,-12 -190,1 -328,46 -435,142 -632,382 -773,613zm49 1199c-141,204 -353,350 -595,407 -31,294 -49,635 255,1054 86,118 165,191 239,230 65,34 128,41 192,29 70,-13 140,-88 218,-171 63,-67 130,-139 214,-200 84,-61 173,-103 257,-142 103,-49 195,-92 230,-155 31,-57 44,-119 31,-192 -14,-82 -59,-179 -145,-297 -295,-406 -614,-502 -896,-563zm-1053 407c-242,-57 -454,-203 -595,-407 -282,61 -601,157 -896,563 -86,118 -131,215 -145,297 -13,73 0,135 31,192 35,63 127,106 230,155 84,39 173,81 257,142 84,61 151,133 214,200 78,83 148,158 218,171 64,12 127,5 192,-29 74,-39 153,-112 239,-230 304,-419 286,-760 255,-1054zm-760 -826c-7,-48 -11,-98 -11,-148 0,-240 84,-460 225,-632 -141,-231 -338,-471 -773,-613 -138,-45 -245,-58 -328,-46 -73,11 -128,43 -172,90 -49,52 -62,153 -76,266 -12,92 -24,190 -56,288 -32,99 -80,185 -124,266 -55,100 -104,190 -95,260 8,64 34,122 87,174 60,58 153,110 292,155 462,150 771,52 1031,-60zm989 -948c-442,0 -800,358 -800,800 0,442 358,800 800,800 442,0 800,-358 800,-800 0,-442 -358,-800 -800,-800z"/>
</svg>