<?xml version="1.0" encoding="UTF-8"?>
<!DOCTYPE svg PUBLIC "-//W3C//DTD SVG 1.1//EN" "http://www.w3.org/Graphics/SVG/1.1/DTD/svg11.dtd">
<svg xmlns="http://www.w3.org/2000/svg" xml:space="preserve" width="580px" height="580px" shape-rendering="geometricPrecision" text-rendering="geometricPrecision" image-rendering="optimizeQuality" fill-rule="nonzero" clip-rule="nonzero" viewBox="0 0 5800 5800" xmlns:xlink="http://www.w3.org/1999/xlink">
	<title>folder3_document icon</title>
	<desc>folder3_document icon from the IconExperience.com I-Collection. Copyright by INCORS GmbH (www.incors.com).</desc>
	<path id="curve0"  d="M4424 2101c73,6 139,38 188,87 267,267 533,533 800,800 49,49 81,115 87,188 -53,-47 -123,-76 -199,-76l-800 0 0 -800c0,-76 -29,-146 -76,-199zm1076 1199l0 2200 -2000 0 0 -3400 800 0 0 1200 1200 0zm-4600 -3000l4000 0 0 1342 -300 300c-63,-27 -131,-42 -200,-42l-41 0 342 -342 0 -1058 -3801 0c-110,0 -200,89 -200,200l0 18c0,120 60,242 179,282l2421 829 0 3916 -2500 -952c-192,-73 -300,-265 -300,-466l0 -3627c0,-220 180,-400 400,-400z"/>
</svg>