<?xml version="1.0" encoding="UTF-8"?>
<!DOCTYPE svg PUBLIC "-//W3C//DTD SVG 1.1//EN" "http://www.w3.org/Graphics/SVG/1.1/DTD/svg11.dtd">
<svg xmlns="http://www.w3.org/2000/svg" xml:space="preserve" width="580px" height="580px" shape-rendering="geometricPrecision" text-rendering="geometricPrecision" image-rendering="optimizeQuality" fill-rule="nonzero" clip-rule="nonzero" viewBox="0 0 5800 5800" xmlns:xlink="http://www.w3.org/1999/xlink">
	<title>folder_document icon</title>
	<desc>folder_document icon from the IconExperience.com I-Collection. Copyright by INCORS GmbH (www.incors.com).</desc>
		<path id="curve28"  d="M5747 2500l-1054 2683c-77,194 -257,317 -466,317l-3727 0c-220,0 -400,-180 -400,-400l0 -4200 1000 0 0 -600 2200 0 0 1400 1400 0 0 600 -3111 0 -489 1368 0 -2568 -800 0 0 4000c0,111 89,200 200,200 140,0 252,-62 301,-199l929 -2601 4017 0zm-2301 -2187c58,17 110,48 151,90 97,96 999,1000 1000,1000 42,41 73,93 90,151 -54,-34 -118,-54 -187,-54l-1000 0 0 -1000c0,-68 -20,-133 -54,-187z"/>
</svg>