<?xml version="1.0" encoding="utf-8"?>
<!-- Generator: Adobe Illustrator 23.0.3, SVG Export Plug-In . SVG Version: 6.00 Build 0)  -->
<svg version="1.1" id="Ebene_1" xmlns="http://www.w3.org/2000/svg" xmlns:xlink="http://www.w3.org/1999/xlink" x="0px" y="0px"
	 viewBox="0 0 580 580" style="enable-background:new 0 0 580 580;" xml:space="preserve">
<g>
	<path d="M247.5,459.4H114.6c3.4-5.9,5.4-12.7,5.4-20v-260h380v138.3c6.1-0.7,12.3,0,18.2,2.2l0.2,0.1c0.6,0.2,1.1,0.5,1.7,0.7
		V159.4H100v280c0,11-9,20-20,20c-11.1,0-20-8.9-20-20v-400h155.9l60,60H460v40h20v-60H284.1l-60-60H40v420c0,22,18,40,40,40h176.5
		c-4-4.7-6.8-10.3-8.1-16.3C248.1,461.9,247.8,460.7,247.5,459.4z"/>
	<path d="M541.3,427.7c-2-3.5-5-6.3-8.7-8l-21.3-9.9c-0.2-1.1-0.3-2.3-0.5-3.5c-0.2-1.2-0.4-2.4-0.7-3.5l16.8-16.4
		c3-2.9,4.9-6.5,5.6-10.4c0.7-3.9,0.2-8-1.6-11.8c-1.6-3.3-3.3-6.4-4.9-9.3c-1.6-2.8-3.5-5.7-5.6-8.9c-2.3-3.5-5.5-6-9.2-7.4
		c-3.8-1.4-7.9-1.6-11.9-0.5l-22.6,6.1c-0.9-0.8-1.8-1.6-2.7-2.3c-0.8-0.7-1.8-1.5-2.7-2.2l2.4-23.4c0.4-4.1-0.5-8.1-2.5-11.6
		c-2-3.4-5-6.2-8.8-7.9c-3.3-1.5-6.5-2.8-9.8-4c-3-1.2-6.3-2.3-9.9-3.3c-4.1-1.2-8.2-1-11.9,0.3c-3.7,1.3-7.1,3.9-9.4,7.2L408,316.3
		c-1.1,0-2.3,0-3.5,0c-1.2-0.1-2.4,0-3.5,0l-13.2-19.4c-2.3-3.5-5.6-6-9.3-7.4c-3.7-1.3-7.8-1.5-11.9-0.4c-3.2,0.9-6.5,2-10,3.2
		c-3.5,1.3-6.8,2.6-9.8,3.9c-3.8,1.7-6.9,4.5-8.9,7.9c-2,3.4-2.9,7.4-2.5,11.6l2.1,23.4c-0.9,0.7-1.7,1.4-2.7,2.2
		c-0.9,0.7-1.8,1.5-2.6,2.2l-22.6-6.4c-4-1.2-8.1-1-11.8,0.4c-3.7,1.3-7,3.8-9.4,7.3c-1.9,2.8-3.8,5.8-5.6,8.9
		c-1.8,3.1-3.5,6.2-5,9.3c-1.9,3.8-2.4,7.8-1.8,11.7c0.7,3.9,2.5,7.6,5.5,10.6l16.7,16.5c-0.3,1.1-0.5,2.2-0.7,3.4s-0.4,2.3-0.6,3.3
		l-21.3,9.6c-3.9,1.7-6.9,4.5-8.9,7.9c-2,3.4-2.9,7.4-2.5,11.6c0.4,3.7,0.8,7.2,1.4,10.5c0.6,3.3,1.3,6.7,2.2,10.3
		c0.9,4.1,3.1,7.6,6.1,10.2c3.1,2.6,6.9,4.2,11,4.6l23.4,1.9c0.5,1,1.1,2,1.6,3c0.6,0.9,1.2,1.9,1.8,2.9l-10.3,21.1
		c-1.8,3.8-2.3,7.9-1.7,11.7c0.3,1.5,4.4,11.8,5.6,10.5c5,4.9,10.5,9.6,16.1,13.7c3.4,2.5,7.3,3.8,11.3,3.8c3.9,0,7.9-1.1,11.3-3.5
		l19.1-13.5c1,0.4,2.1,0.8,3.2,1.2c1.1,0.4,2.2,0.8,3.2,1.1l5.8,22.8c1,4,3.2,7.5,6.3,10.1c3,2.5,6.8,4.1,11,4.5
		c3.3,0.2,6.7,0.3,10.5,0.4c3.6,0,7.1-0.1,10.5-0.3c4.2-0.3,8-1.8,11.1-4.3c3-2.6,5.3-6,6.4-10.1l5.9-22.6c1.2-0.4,2.3-0.7,3.3-1.1
		c1.1-0.4,2.3-0.8,3.4-1.2l19,13.7c3.4,2.5,7.3,3.7,11.3,3.7c3.9,0,7.8-1.2,11.2-3.7c3.1-2.2,5.9-4.3,8.4-6.4c2.5-2.1,5.1-4.4,7.8-7
		c2.9-2.7,4.9-6.4,5.7-10.4c0.7-3.9,0.2-8-1.5-11.8l-10-21.1c0.6-1,1.2-2,1.8-3.1c0.7-1,1.2-2,1.8-3l23.4-1.7c4.2-0.3,8-1.9,11-4.5
		c3.1-2.5,5.3-6,6.3-10c0.8-3.2,1.6-6.6,2.2-10.3c0.7-3.6,1.2-7,1.6-10.4C544.1,435.2,543.3,431.2,541.3,427.7z M522.5,446.2
		c-0.4,2.4-1,5.2-1.8,8.4l-25.9,1.8c-2.5,0.2-4.9,1.1-7,2.4c-2.1,1.4-3.8,3.3-5,5.6c-0.8,1.6-1.6,3.2-2.5,4.7
		c-0.9,1.5-1.9,3.1-2.9,4.6c-1.5,2.2-2.3,4.6-2.5,7.1c-0.2,2.4,0.3,4.9,1.4,7.3l11,23.4c-2.1,2-4.2,3.9-6.5,5.8
		c-2.3,1.9-4.6,3.7-6.8,5.3l-21-15.2c-2.1-1.5-4.5-2.5-7-2.7c-2.5-0.3-5,0.1-7.4,1.1c-1.5,0.6-3.2,1.3-4.9,1.9
		c-2,0.7-3.7,1.3-5.1,1.7c-2.5,0.7-4.7,2-6.4,3.8c-1.8,1.8-3,4-3.7,6.5l-6.6,25c-3.1,0.2-6,0.3-8.7,0.3c-2.6-0.1-5.5-0.2-8.7-0.4
		l-6.3-25.2c-0.6-2.5-1.9-4.7-3.6-6.5c-1.7-1.8-3.9-3.1-6.4-3.9c-1.6-0.5-3.3-1.1-4.9-1.7c-1.4-0.5-3.1-1.2-4.9-2
		c-2.4-1-4.9-1.4-7.4-1.2c-2.5,0.3-4.9,1.2-7,2.6l-21.2,15c-2.5-1.9-4.8-3.7-6.8-5.4c-2-1.7-4.1-3.7-6.4-5.9l11.3-23.4
		c1.1-2.3,1.6-4.8,1.5-7.3c-0.2-2.4-1-4.8-2.4-7c-0.9-1.5-1.8-3-2.7-4.5c-0.9-1.5-1.7-3-2.5-4.6c-1.1-2.3-2.8-4.2-4.9-5.7
		c-2.1-1.4-4.5-2.2-7-2.5l-25.9-2.1c-1.3-5.7-2.3-11.4-2.9-17.2l23.7-10.6c2.4-1.1,4.4-2.7,5.8-4.7c1.5-2,2.5-4.4,2.8-6.9
		c0.2-2.1,0.5-3.8,0.7-5.2c0.3-1.7,0.7-3.4,1.1-5.1c0.6-2.6,0.6-5.1-0.1-7.5c-0.7-2.3-2-4.5-3.8-6.4l-18.4-18.3
		c1.3-2.7,2.7-5.3,4.1-7.6c1.4-2.4,2.9-4.8,4.7-7.4l24.9,7.1c2.5,0.7,5,0.7,7.5,0.2c2.4-0.6,4.6-1.8,6.5-3.6c1.5-1.4,2.8-2.5,4-3.5
		c1.1-1,2.5-2.1,4.1-3.2c2.3-1.7,4.2-4.1,5.1-6.8c0.7-2,1-4.1,0.8-6.4l-2.3-25.9c2.9-1.2,5.6-2.3,8-3.2c2.5-0.9,5.3-1.8,8.3-2.6
		l14.6,21.4c1.4,2.2,3.3,3.8,5.6,4.9c2.2,1.1,4.7,1.7,7.3,1.5c1.9-0.1,3.7-0.1,5.3-0.1c1.6,0,3.4,0.1,5.4,0.2c2.5,0.1,5-0.4,7.3-1.4
		c2.2-1.1,4.2-2.8,5.6-4.9l14.9-21.3c2.6,0.7,5.3,1.7,8.2,2.7c2.6,1,5.3,2.1,8,3.3l-2.7,25.8c-0.2,2.5,0.2,5,1.2,7.3
		s2.5,4.3,4.6,5.8c1.3,1,2.7,2.1,4.2,3.4c1.4,1.2,2.7,2.4,4,3.6c1.9,1.8,4.1,3.1,6.6,3.7c2.4,0.6,4.9,0.6,7.4-0.1l25-6.8
		c1.5,2.3,3,4.7,4.5,7.3c1.5,2.6,2.9,5.1,4.1,7.7l-18.6,18c-1.9,1.8-3.2,4-3.9,6.4c-0.7,2.4-0.7,5-0.2,7.4c0.5,1.8,0.8,3.6,1.1,5.3
		c0.3,1.8,0.5,3.6,0.7,5.4c0.3,2.5,1.2,4.9,2.7,7c1.5,2,3.4,3.6,5.8,4.7l23.5,10.9C523.4,440.7,523,443.5,522.5,446.2z"/>
	<path d="M404,374.5c-13.8,0-26.3,5.6-35.4,14.6c-9,9.1-14.6,21.6-14.6,35.4s5.6,26.3,14.6,35.4c9.1,9,21.6,14.6,35.4,14.6
		s26.3-5.6,35.4-14.6c9-9.1,14.6-21.6,14.6-35.4s-5.6-26.3-14.6-35.4C430.3,380.1,417.8,374.5,404,374.5z M425.2,445.7
		c-5.4,5.4-12.9,8.8-21.2,8.8s-15.8-3.4-21.2-8.8c-5.4-5.4-8.8-12.9-8.8-21.2s3.4-15.8,8.8-21.2c5.4-5.4,12.9-8.8,21.2-8.8
		s15.8,3.4,21.2,8.8c5.4,5.4,8.8,12.9,8.8,21.2S430.6,440.3,425.2,445.7z"/>
</g>
</svg>
