<?xml version="1.0" encoding="UTF-8"?>
<!DOCTYPE svg PUBLIC "-//W3C//DTD SVG 1.1//EN" "http://www.w3.org/Graphics/SVG/1.1/DTD/svg11.dtd">
<svg xmlns="http://www.w3.org/2000/svg" xml:space="preserve" width="580px" height="580px" shape-rendering="geometricPrecision" text-rendering="geometricPrecision" image-rendering="optimizeQuality" fill-rule="nonzero" clip-rule="nonzero" viewBox="0 0 5800 5800" xmlns:xlink="http://www.w3.org/1999/xlink">
	<title>folder_window icon</title>
	<desc>folder_window icon from the IconExperience.com I-Collection. Copyright by INCORS GmbH (www.incors.com).</desc>
		<path id="curve29" d="M700 4900c-220,0 -400,-180 -400,-400l0 -4200 1841 0 600 600 1959 0 0 600 -200 0 0 -400 -1841 0 -600 -600 -1559 0 0 4000c0,111 89,200 200,200 110,0 200,-90 200,-200l0 -2800 4200 0 0 600 -200 0 0 -400 -3800 0 0 2600c0,73 -20,141 -54,200l654 0 0 200 -1000 0z"/>
	<path id="curve28" d="M2100 3100l3200 0 0 -300c0,-55 -45,-100 -100,-100l-3000 0c-55,0 -100,45 -100,100l0 300zm3200 200l-3200 0 0 2000 3200 0 0 -2000zm-3100 -800l3000 0c165,0 300,135 300,300l0 2700 -3600 0 0 -2700c0,-165 135,-300 300,-300z"/>
</svg>