<?xml version="1.0" encoding="UTF-8"?>
<!DOCTYPE svg PUBLIC "-//W3C//DTD SVG 1.1//EN" "http://www.w3.org/Graphics/SVG/1.1/DTD/svg11.dtd">
<svg xmlns="http://www.w3.org/2000/svg" xml:space="preserve" width="580px" height="580px" shape-rendering="geometricPrecision" text-rendering="geometricPrecision" image-rendering="optimizeQuality" fill-rule="nonzero" clip-rule="nonzero" viewBox="0 0 5800 5800" xmlns:xlink="http://www.w3.org/1999/xlink">
	<title>folder_zip icon</title>
	<desc>folder_zip icon from the IconExperience.com I-Collection. Copyright by INCORS GmbH (www.incors.com).</desc>
		<path id="curve28"  d="M900 5100c-111,0 -200,-89 -200,-200l0 -4000 1559 0 600 600 1841 0 0 400 200 0 0 -600 -1959 0 -600 -600 -1841 0 0 4200c0,220 180,400 400,400l4000 0c220,0 400,-180 400,-400l0 -700 -464 0c-48,0 -95,-12 -138,-34l-423 -194c-39,-18 -74,-44 -101,-75 -43,-12 -74,-51 -74,-97l0 -100 -200 0 0 100c0,55 -45,100 -100,100 -55,0 -100,-45 -100,-100l0 -100 -200 0 0 100c0,55 -45,100 -100,100 -55,0 -100,-45 -100,-100l0 -100 -200 0 0 100c0,55 -45,100 -100,100 -55,0 -100,-45 -100,-100l0 -100 -200 0 0 100c0,55 -45,100 -100,100 -55,0 -100,-45 -100,-100l0 -100 -200 0 0 100c0,55 -45,100 -100,100 -55,0 -100,-45 -100,-100l0 -100 -200 0 0 100c0,55 -45,100 -100,100 -55,0 -100,-45 -100,-100l0 -100 -400 0 0 -200 200 0 0 -100c0,-55 45,-100 100,-100 55,0 100,45 100,100l0 100c67,0 133,0 200,0l0 -100c0,-55 45,-100 100,-100 55,0 100,45 100,100l0 100c67,0 133,0 200,0l0 -100c0,-55 45,-100 100,-100 55,0 100,45 100,100l0 100c67,0 133,0 200,0l0 -100c0,-55 45,-100 100,-100 55,0 100,45 100,100l0 100c67,0 133,0 200,0l0 -100c0,-55 45,-100 100,-100 55,0 100,45 100,100l0 100c67,0 133,0 200,0l0 -100c0,-55 45,-100 100,-100 55,0 100,45 100,100l0 100c67,0 133,0 200,0l0 -100c0,-55 45,-100 100,-100 55,0 100,45 100,100l0 100c0,-123 75,-234 189,-279l423 -193c39,-18 81,-28 124,-28l464 0 0 -900 -4200 0 0 2800c0,110 -90,200 -200,200zm4700 -1900c55,0 100,45 100,100l0 600c0,55 -45,100 -100,100l-764 0c-18,0 -34,-5 -49,-13l-428 -196c-37,-17 -59,-53 -59,-91l0 -200c0,-43 28,-80 66,-94l429 -197c13,-6 28,-9 41,-9l764 0zm-500 200c-55,0 -102,20 -141,59 -78,77 -78,205 0,282 39,39 86,59 141,59l400 0 0 -400 -400 0z"/>
</svg>