<?xml version="1.0" encoding="UTF-8"?>
<!DOCTYPE svg PUBLIC "-//W3C//DTD SVG 1.1//EN" "http://www.w3.org/Graphics/SVG/1.1/DTD/svg11.dtd">
<svg xmlns="http://www.w3.org/2000/svg" xml:space="preserve" width="580px" height="580px" shape-rendering="geometricPrecision" text-rendering="geometricPrecision" image-rendering="optimizeQuality" fill-rule="nonzero" clip-rule="nonzero" viewBox="0 0 5800 5800" xmlns:xlink="http://www.w3.org/1999/xlink">
	<title>folder_window icon</title>
	<desc>folder_window icon from the IconExperience.com I-Collection. Copyright by INCORS GmbH (www.incors.com).</desc>
		<path id="curve29"  d="M5100 1700l0 600 -2867 0c-293,0 -533,252 -533,560l0 2040 -1000 0c-220,0 -400,-180 -400,-400l0 -4200 1841 0 600 600 1959 0 0 600 -200 0 0 -400 -1841 0 -600 -600 -1559 0 0 4000c0,111 89,200 200,200 110,0 200,-90 200,-200l0 -2800 4200 0z"/>
	<path id="curve28"  d="M2200 2500l3000 0c165,0 300,135 300,300l0 100 -3600 0 0 -100c0,-165 135,-300 300,-300zm3300 600l0 2400 -3600 0 0 -2400 3600 0z"/>
</svg>