<?xml version="1.0" encoding="UTF-8"?>
<!DOCTYPE svg PUBLIC "-//W3C//DTD SVG 1.1//EN" "http://www.w3.org/Graphics/SVG/1.1/DTD/svg11.dtd">
<svg xmlns="http://www.w3.org/2000/svg" xml:space="preserve" width="580px" height="580px" shape-rendering="geometricPrecision" text-rendering="geometricPrecision" image-rendering="optimizeQuality" fill-rule="nonzero" clip-rule="nonzero" viewBox="0 0 5800 5800" xmlns:xlink="http://www.w3.org/1999/xlink">
	<title>folder icon</title>
	<desc>folder icon from the IconExperience.com I-Collection. Copyright by INCORS GmbH (www.incors.com).</desc>
		<path id="curve28" d="M5100 2300l-3800 0 0 2600c0,73 -20,141 -54,200l3654 0c111,0 200,-89 200,-200l0 -2600zm-4200 3000c-220,0 -400,-180 -400,-400l0 -4200 1841 0 600 600 1959 0 0 600 -200 0 0 -400 -1841 0 -600 -600 -1559 0 0 4000c0,111 89,200 200,200 110,0 200,-90 200,-200l0 -2800 4200 0 0 2800c0,220 -180,400 -400,400l-4000 0z"/>
</svg>