<?xml version="1.0" encoding="UTF-8"?>
<!DOCTYPE svg PUBLIC "-//W3C//DTD SVG 1.1//EN" "http://www.w3.org/Graphics/SVG/1.1/DTD/svg11.dtd">
<svg xmlns="http://www.w3.org/2000/svg" xml:space="preserve" width="580px" height="580px" shape-rendering="geometricPrecision" text-rendering="geometricPrecision" image-rendering="optimizeQuality" fill-rule="nonzero" clip-rule="nonzero" viewBox="0 0 5800 5800" xmlns:xlink="http://www.w3.org/1999/xlink">
	<title>folder_shared icon</title>
	<desc>folder_shared icon from the IconExperience.com I-Collection. Copyright by INCORS GmbH (www.incors.com).</desc>
		<path id="curve29" d="M4300 1700l-3200 0 0 1982c-68,-4 -135,2 -200,17l0 -2199 3600 0 0 2300c0,21 -2,41 -5,61 -72,-20 -136,-46 -195,-75l0 -2086zm-3764 2214c-23,-32 -36,-71 -36,-114l0 -3300 1559 0 599 600 1242 0 0 200 200 0 0 -400 -1358 0 -601 -600 -1841 0 0 3500c0,110 44,211 123,288 29,-64 67,-122 113,-174z"/>
	<path id="curve28" d="M5500 5700l-500 0c-165,0 -300,-135 -300,-300l0 -81 -982 179 -1018 2c-156,0 -316,-16 -462,-45 -148,-29 -284,-71 -389,-124l-1015 -508c-246,-123 -346,-422 -223,-668 123,-245 422,-345 668,-222l846 423c-16,-49 -25,-102 -25,-156 0,-276 224,-500 500,-500l800 0c313,0 497,98 688,201 164,87 334,178 612,196l0 -97c0,-165 135,-300 300,-300l500 0 0 200 -500 0c-55,0 -100,45 -100,100l0 1400c0,55 45,100 100,100l500 0 0 200zm-800 -583l0 -820c-326,-17 -519,-121 -706,-221 -168,-89 -330,-176 -594,-176l-800 0c-166,0 -300,134 -300,300 0,83 34,158 88,212 49,49 115,81 188,87 274,5 550,1 824,1 55,0 100,45 100,100 0,55 -45,100 -100,100l-837 -1c-73,-2 -124,-5 -163,-10 -70,-9 -100,-23 -138,-42l-1072 -536c-148,-74 -327,-14 -401,134 -74,147 -14,327 134,400l1015 508c87,44 205,80 338,106 134,26 280,41 424,41l993 0 1007 -183z"/>
</svg>