<?xml version="1.0" encoding="utf-8"?>
<!-- Generator: Adobe Illustrator 23.0.2, SVG Export Plug-In . SVG Version: 6.00 Build 0)  -->
<svg version="1.1" id="tab_x5F_container_x5F_gi" xmlns="http://www.w3.org/2000/svg" xmlns:xlink="http://www.w3.org/1999/xlink"
	 x="0px" y="0px" viewBox="0 0 580 580" style="enable-background:new 0 0 580 580;" xml:space="preserve">
<g>
	<path d="M119,439.3v-260h380v22.5h20v-42.5H99v280c0,11-9,20-20,20c-11.1,0-20-8.9-20-20v-400h155.9l60,60H459v40h20v-60H283.1
		l-60-60H39v420c0,22,18,40,40,40h103v-20h-68.5C117,453.4,119,446.6,119,439.3z"/>
	<rect x="301" y="280.7" width="160" height="20"/>
	<path d="M221,240.7v294.2l25.9,25.8c98,0,196,0,294.1,0v-320C434.3,240.7,327.7,240.7,221,240.7z M281,260.7h200v110
		c0,5.5-4.5,10-10,10H291c-5.5,0-10-4.5-10-10V260.7z M441,540.7H301v-100h140V540.7z M521,540.7h-60v-110v-10h-10H291h-10v10v110
		h-25.9L241,526.5V260.7h20v110c0,16.5,13.5,30,30,30h180c16.5,0,30-13.5,30-30v-110h20V540.7z"/>
	<polygon points="341,480.7 361,480.7 361,460.7 321,460.7 321,520.7 341,520.7 	"/>
</g>
</svg>
