<?xml version="1.0" encoding="UTF-8"?>
<!DOCTYPE svg PUBLIC "-//W3C//DTD SVG 1.1//EN" "http://www.w3.org/Graphics/SVG/1.1/DTD/svg11.dtd">
<svg xmlns="http://www.w3.org/2000/svg" xml:space="preserve" width="580px" height="580px" shape-rendering="geometricPrecision" text-rendering="geometricPrecision" image-rendering="optimizeQuality" fill-rule="nonzero" clip-rule="nonzero" viewBox="0 0 5800 5800" xmlns:xlink="http://www.w3.org/1999/xlink">
	<title>folder_music icon</title>
	<desc>folder_music icon from the IconExperience.com I-Collection. Copyright by INCORS GmbH (www.incors.com).</desc>
		<path id="curve29"  d="M700 4500c110,0 200,-90 200,-200l0 -2600 2432 0 -184 39c-143,25 -248,150 -248,296l0 2011c-97,-28 -199,-42 -301,-42 -44,0 -88,3 -132,8 -363,40 -754,267 -904,610 -11,26 -21,52 -29,78l-834 0c-220,0 -400,-180 -400,-400l0 -4000 1841 0 600 600 1759 0 0 347 -200 43 0 -190 -1641 0 -600 -600 -1559 0 0 3800c0,111 89,200 200,200z"/>
	<path id="curve28"  d="M5300 2237l-2000 428 0 2110c0,404 -423,678 -789,719 -39,4 -75,6 -110,6 -315,0 -660,-171 -698,-514 -47,-429 403,-733 786,-775 39,-5 75,-7 110,-7 178,0 361,51 501,164l0 -2333c0,-50 37,-92 85,-99l2194 -468c54,-12 107,23 119,77 0,920 2,1840 2,2761 0,404 -423,678 -789,718 -39,4 -75,6 -110,6 -315,0 -660,-171 -698,-514 -47,-429 403,-733 786,-775 39,-4 75,-6 110,-6 178,0 362,50 501,164l0 -1662z"/>
</svg>