<?xml version="1.0" encoding="utf-8"?>
<!-- Generator: Adobe Illustrator 23.0.2, SVG Export Plug-In . SVG Version: 6.00 Build 0)  -->
<svg version="1.1" id="tab_x5F_container_x5F_gi" xmlns="http://www.w3.org/2000/svg" xmlns:xlink="http://www.w3.org/1999/xlink"
	 x="0px" y="0px" viewBox="0 0 580 580" style="enable-background:new 0 0 580 580;" xml:space="preserve">
<g>
	<path d="M118.9,438.6v-260h380V201h20v-42.4h-420v280c0,11-9,20-20,20c-11.1,0-20-8.9-20-20v-400h155.9l60,60h184.1v40h20v-60H283
		l-60-60H38.9v420c0,22,18,40,40,40h103v-20h-68.5C116.9,452.7,118.9,445.9,118.9,438.6z"/>
	<path d="M533.5,288.2L497,251.6c-10-10.1-26.6-10.1-36.6,0L256.9,455l-18.8,51.8l-3.5,9.5L224.5,544c-1.7,4.8-0.6,10,3,13.5
		c3.6,3.6,8.8,4.8,13.5,3l27.8-10.1l9.5-3.5l51.8-18.8l203.4-203.5C543.6,314.7,543.6,298.3,533.5,288.2z M262.8,531.5l-8.2-8.1
		l19.6-53.9l41.8,41.8L262.8,531.5z M333.2,497.9l-44.8-44.6L421.7,320l44.8,44.8L333.2,497.9z M516.3,315.1l-36.7,35.3l-45-44.5
		l36.7-36.3c4-3.8,10.5-3.8,14.5,0l30.5,31.5C520.3,305.1,520.3,311.3,516.3,315.1z"/>
</g>
</svg>
