<?xml version="1.0" encoding="UTF-8"?>
<!DOCTYPE svg PUBLIC "-//W3C//DTD SVG 1.1//EN" "http://www.w3.org/Graphics/SVG/1.1/DTD/svg11.dtd">
<svg xmlns="http://www.w3.org/2000/svg" xml:space="preserve" width="580px" height="580px" shape-rendering="geometricPrecision" text-rendering="geometricPrecision" image-rendering="optimizeQuality" fill-rule="nonzero" clip-rule="nonzero" viewBox="0 0 5800 5800" xmlns:xlink="http://www.w3.org/1999/xlink">
	<title>folder3_mail icon</title>
	<desc>folder3_mail icon from the IconExperience.com I-Collection. Copyright by INCORS GmbH (www.incors.com).</desc>
	<path id="curve0"  d="M700 300l4000 0 0 1342 -400 399 0 459 -200 0 0 -541 401 -401 0 -1058 -3801 0c-110,0 -200,89 -200,200l0 18c0,120 60,242 179,282l2421 829 0 3916 -2500 -952c-192,-73 -300,-265 -300,-466l0 -3627c0,-220 180,-400 400,-400zm2600 2400l2200 0 0 88 -1836 1529c-37,31 -91,31 -128,0l-236 -197 0 -1420zm2200 253l0 2506 -1316 -1316 1244 -1036c46,-39 72,-94 72,-154zm-241 2547l-1959 0 0 -1120 108 90c112,93 272,93 384,0l238 -199 1229 1229z"/>
</svg>