<?xml version="1.0" encoding="UTF-8"?>
<!DOCTYPE svg PUBLIC "-//W3C//DTD SVG 1.1//EN" "http://www.w3.org/Graphics/SVG/1.1/DTD/svg11.dtd">
<svg xmlns="http://www.w3.org/2000/svg" xml:space="preserve" width="580px" height="580px" shape-rendering="geometricPrecision" text-rendering="geometricPrecision" image-rendering="optimizeQuality" fill-rule="nonzero" clip-rule="nonzero" viewBox="0 0 5800 5800" xmlns:xlink="http://www.w3.org/1999/xlink">
	<title>folder_out icon</title>
	<desc>folder_out icon from the IconExperience.com I-Collection. Copyright by INCORS GmbH (www.incors.com).</desc>
		<path id="curve29"  d="M5747 2300l-1054 2683c-77,194 -257,317 -466,317l-3727 0c-220,0 -400,-180 -400,-400l0 -4200 1841 0 600 600 1959 0 0 800 -200 0 0 -600 -1500 0 -341 0 -600 -600 -1559 0 0 4000c0,126 98,200 218,200 130,0 239,-76 283,-199l929 -2601 1353 0c11,32 17,65 17,100l0 1276 -629 -630 -425 425 1354 1353 1354 -1353 -425 -425 -629 630 0 -1276c0,-34 -2,-67 -6,-100l2053 0z"/>
	<path id="curve28"  d="M2471 3329l829 830 0 -1759c0,-138 -56,-263 -147,-353 -90,-91 -215,-147 -353,-147l-489 0c126,-124 299,-200 489,-200l0 0c193,0 368,79 495,205 126,127 205,302 205,495l0 1759 829 -830 142 142 -1071 1070 -1071 -1070 142 -142z"/>
</svg>