<?xml version="1.0" encoding="UTF-8"?>
<!DOCTYPE svg PUBLIC "-//W3C//DTD SVG 1.1//EN" "http://www.w3.org/Graphics/SVG/1.1/DTD/svg11.dtd">
<svg xmlns="http://www.w3.org/2000/svg" xml:space="preserve" width="580px" height="580px" shape-rendering="geometricPrecision" text-rendering="geometricPrecision" image-rendering="optimizeQuality" fill-rule="nonzero" clip-rule="nonzero" viewBox="0 0 5800 5800" xmlns:xlink="http://www.w3.org/1999/xlink">
	<title>folder_movie icon</title>
	<desc>folder_movie icon from the IconExperience.com I-Collection. Copyright by INCORS GmbH (www.incors.com).</desc>
	<path id="curve0"  d="M4165 2781c150,35 289,100 410,188 123,89 227,202 307,333 14,23 22,48 25,74 2,26 -1,52 -10,77 -10,25 -24,48 -43,66 -19,18 -41,32 -67,40l-495 161c-44,-65 -76,-116 -142,-164 -66,-48 -125,-63 -200,-85l0 -520c0,-54 24,-103 67,-137 42,-33 96,-46 148,-33zm535 -881l-3600 0 0 2400c0,73 -20,141 -54,200l946 0c21,68 46,135 74,200l-1366 0c-220,0 -400,-180 -400,-400l0 -4000 1841 0 600 600 1759 0 0 600 -200 0 0 -400 -1641 0 -600 -600 -1559 0 0 3800c0,111 89,200 200,200 53,0 104,-21 141,-59 37,-36 59,-86 59,-141l0 -2500 0 -100 100 0c1300,0 2600,0 3900,0l0 467c-65,-37 -131,-70 -200,-100l0 -167zm-800 400c884,0 1600,716 1600,1600 0,884 -716,1600 -1600,1600 -884,0 -1600,-716 -1600,-1600 0,-884 716,-1600 1600,-1600zm0 200c-773,0 -1400,627 -1400,1400 0,773 627,1400 1400,1400 773,0 1400,-627 1400,-1400 0,-773 -627,-1400 -1400,-1400zm558 631c-92,-67 -196,-118 -308,-148l0 344c42,18 81,41 117,67 37,27 70,57 100,91l328 -106c-63,-96 -144,-181 -237,-248zm592 769c0,140 -25,274 -71,399 -48,129 -119,247 -207,350 -53,62 -142,79 -215,40 -23,-12 -43,-30 -59,-51l-305 -421 45 -59c28,-36 50,-77 65,-122 28,-82 22,-140 21,-221l494 -161c34,-11 45,-7 78,-7 26,4 50,13 72,28 23,15 41,34 55,57 28,48 27,113 27,168zm-200 -39l-1 -7 -327 106c-5,49 -15,95 -30,140 -14,41 -32,80 -53,116l202 279c63,-79 114,-168 150,-265 38,-103 59,-214 59,-330 0,-19 0,-31 0,-39zm-507 1100c-282,118 -604,118 -886,0 -50,-21 -86,-62 -101,-114 -7,2 -5,-72 -4,-78 -9,-2 26,-65 31,-72l306 -421c77,28 128,49 211,49 25,0 52,-6 72,-6 48,-8 94,-27 139,-43l306 421c5,7 39,70 31,72 9,52 -6,107 -41,147 -18,19 -39,35 -64,45zm-106 -172l-202 -279c-45,10 -90,15 -135,15 -45,0 -90,-5 -135,-15l-202 279c216,81 458,81 674,0zm-1209 -140c-180,-209 -278,-473 -278,-749 0,-31 1,-63 4,-93 6,-83 70,-149 151,-160 25,-3 52,-1 77,7l494 161c-1,81 -7,139 21,221 15,45 37,86 65,122l45 59 -305 421c-16,21 -36,39 -59,51 -23,13 -49,19 -76,21 -53,2 -104,-20 -139,-61zm131 -154l202 -279c-21,-36 -39,-75 -53,-116 -15,-45 -25,-91 -30,-140l-327 -106c-11,232 63,460 208,641zm-241 -1193c80,-131 184,-244 307,-333 121,-88 260,-153 410,-188 26,-6 52,-6 78,-1 25,6 49,17 70,34 22,17 38,38 50,61 11,24 17,49 17,76l0 520c-75,22 -134,37 -200,85 -66,48 -98,99 -142,164l-495 -161c-51,-17 -91,-55 -110,-106 -19,-50 -13,-106 15,-151zm424 -171c-93,67 -174,152 -237,248l328 106c30,-34 63,-64 100,-91 36,-26 75,-49 117,-67l0 -344c-112,30 -216,81 -308,148z"/>
</svg>