<?xml version="1.0" encoding="UTF-8"?>
<!DOCTYPE svg PUBLIC "-//W3C//DTD SVG 1.1//EN" "http://www.w3.org/Graphics/SVG/1.1/DTD/svg11.dtd">
<svg xmlns="http://www.w3.org/2000/svg" xml:space="preserve" width="580px" height="580px" shape-rendering="geometricPrecision" text-rendering="geometricPrecision" image-rendering="optimizeQuality" fill-rule="nonzero" clip-rule="nonzero" viewBox="0 0 5800 5800" xmlns:xlink="http://www.w3.org/1999/xlink">
	<title>folder3_document icon</title>
	<desc>folder3_document icon from the IconExperience.com I-Collection. Copyright by INCORS GmbH (www.incors.com).</desc>
	<path id="curve0"  d="M3100 5455l0 -3484 -2286 -782c-41,-14 -80,-34 -114,-59l0 3197c0,118 56,236 171,279l2229 849zm1300 -3155l-900 0 0 -200 900 0c87,1 168,37 226,103l778 777c62,58 95,135 96,220l0 2300 -2000 0 0 -200 1800 0 0 -2100 0 0 0 0 0 -1 0 0 0 0 0 -1 0 -1 0 0 0 0 0 -1 0 0 0 -1 0 0 0 0 0 -1 0 0 0 -1 0 0 0 -1c-4,-52 -48,-92 -100,-92l-700 0 0 -700c0,-55 -45,-100 -100,-100zm300 259l0 341 341 0 -341 -341zm-4200 -1859c0,-220 180,-400 400,-400l4000 0 0 1342 -300 300c-63,-27 -131,-42 -200,-42l-42 0 342 -342 0 -1058 -3800 0c-111,0 -200,89 -200,200 0,127 48,256 179,300l2421 829 0 3916 -2500 -952c-192,-73 -300,-265 -300,-466l0 -3627z"/>
</svg>