<?xml version="1.0" encoding="UTF-8"?>
<!DOCTYPE svg PUBLIC "-//W3C//DTD SVG 1.1//EN" "http://www.w3.org/Graphics/SVG/1.1/DTD/svg11.dtd">
<svg xmlns="http://www.w3.org/2000/svg" xml:space="preserve" width="580px" height="580px" shape-rendering="geometricPrecision" text-rendering="geometricPrecision" image-rendering="optimizeQuality" fill-rule="nonzero" clip-rule="nonzero" viewBox="0 0 5800 5800" xmlns:xlink="http://www.w3.org/1999/xlink">
	<title>folder3 icon</title>
	<desc>folder3 icon from the IconExperience.com I-Collection. Copyright by INCORS GmbH (www.incors.com).</desc>
	<path id="curve0" d="M3300 5455l0 -3484 -2286 -782c-41,-14 -80,-34 -114,-59l0 3197c0,118 56,236 171,279l2229 849zm-2600 -4755c0,-220 180,-400 400,-400l4000 0 0 1342 -400 399 0 2559 -1000 0 0 -200 800 0 0 -2441 400 -401 0 -1058 -3800 0c-111,0 -200,89 -200,200l0 18c0,68 18,131 51,181 31,47 74,83 128,101l2421 829 0 3916 -2500 -952c-192,-73 -300,-265 -300,-466l0 -3627z"/>
</svg>