<?xml version="1.0" encoding="UTF-8"?>
<!DOCTYPE svg PUBLIC "-//W3C//DTD SVG 1.1//EN" "http://www.w3.org/Graphics/SVG/1.1/DTD/svg11.dtd">
<svg xmlns="http://www.w3.org/2000/svg" xml:space="preserve" width="580px" height="580px" shape-rendering="geometricPrecision" text-rendering="geometricPrecision" image-rendering="optimizeQuality" fill-rule="nonzero" clip-rule="nonzero" viewBox="0 0 5800 5800" xmlns:xlink="http://www.w3.org/1999/xlink">
	<title>folder_document2 icon</title>
	<desc>folder_document2 icon from the IconExperience.com I-Collection. Copyright by INCORS GmbH (www.incors.com).</desc>
		<path id="curve29" d="M2300 2300l-1200 0 0 2400c0,73 -20,141 -54,200l1254 0 0 200 -1600 0c-220,0 -400,-180 -400,-400l0 -4000 1841 0 600 600 1759 0 0 200 -1841 0 -600 -600 -1559 0 0 3800c0,111 89,200 200,200 110,0 200,-90 200,-200l0 -2600 1400 0 0 200z"/>
	<path id="curve28" d="M5412 2788c54,54 88,129 88,212l0 2500 -2800 0 0 -3600 1700 0c83,0 158,34 212,88 267,267 533,533 800,800zm-371 -88l-341 -341 0 341 341 0zm-641 -600l-1500 0 0 3200 2400 0 0 -2300c0,-55 -45,-100 -100,-100l-700 0 0 -700c0,-55 -45,-100 -100,-100z"/>
</svg>