<?xml version="1.0" encoding="UTF-8"?>
<!DOCTYPE svg PUBLIC "-//W3C//DTD SVG 1.1//EN" "http://www.w3.org/Graphics/SVG/1.1/DTD/svg11.dtd">
<svg xmlns="http://www.w3.org/2000/svg" xml:space="preserve" width="580px" height="580px" shape-rendering="geometricPrecision" text-rendering="geometricPrecision" image-rendering="optimizeQuality" fill-rule="nonzero" clip-rule="nonzero" viewBox="0 0 5800 5800" xmlns:xlink="http://www.w3.org/1999/xlink">
	<title>folders2 icon</title>
	<desc>folders2 icon from the IconExperience.com I-Collection. Copyright by INCORS GmbH (www.incors.com).</desc>
		<path id="curve28" d="M3300 900l0 73 1346 -286 957 4499 -1565 332 -738 -3471 0 3453c-1000,0 -2000,0 -3000,0l0 -4600c1000,0 2000,0 3000,0zm1038 261l374 1760 -782 167 -374 -1761 782 -166zm-154 237l-391 83 291 1370 392 -83 -292 -1370zm605 2445c185,121 237,368 117,553 -120,185 -368,238 -553,118 -186,-121 -238,-368 -117,-553 120,-186 367,-238 553,-118zm-109 167c-93,-60 -217,-33 -277,59 -60,93 -34,217 59,278 92,60 217,33 277,-59 60,-93 33,-217 -59,-278zm-1581 -2910l-1199 0 0 4200 1200 0 -1 -4200zm1394 -177l-1175 250 874 4109 1174 -250 -873 -4109zm-1993 2977c220,0 400,180 400,400 0,221 -179,400 -400,400 -220,0 -400,-180 -400,-400 0,-221 179,-400 400,-400zm0 200c-110,0 -200,90 -200,200 0,111 89,200 200,200 110,0 200,-90 200,-200 0,-111 -89,-200 -200,-200zm400 -2800l0 1800c-267,0 -533,0 -800,0l0 -1800 800 0zm-200 200l-400 0 0 1400 400 0 0 -1400zm-1000 -400l-1200 0 0 4200 1200 0 0 -4200zm-600 2800c220,0 400,180 400,400 0,221 -179,400 -400,400 -220,0 -400,-180 -400,-400 0,-221 179,-400 400,-400zm0 200c-110,0 -200,90 -200,200 0,111 89,200 200,200 110,0 200,-90 200,-200 0,-111 -89,-200 -200,-200zm400 -2800l0 1800c-267,0 -533,0 -800,0l0 -1800 800 0zm-200 200l-400 0 0 1400 400 0 0 -1400z"/>
</svg>