<?xml version="1.0" encoding="UTF-8"?>
<!DOCTYPE svg PUBLIC "-//W3C//DTD SVG 1.1//EN" "http://www.w3.org/Graphics/SVG/1.1/DTD/svg11.dtd">
<svg xmlns="http://www.w3.org/2000/svg" xml:space="preserve" width="580px" height="580px" shape-rendering="geometricPrecision" text-rendering="geometricPrecision" image-rendering="optimizeQuality" fill-rule="nonzero" clip-rule="nonzero" viewBox="0 0 5800 5800" xmlns:xlink="http://www.w3.org/1999/xlink">
	<title>folder_cubes icon</title>
	<desc>folder_cubes icon from the IconExperience.com I-Collection. Copyright by INCORS GmbH (www.incors.com).</desc>
	<path id="curve0"  d="M900 5100c110,0 200,-90 200,-200l0 -2700 0 -100 100 0 2651 0 -1101 551 0 875 -750 375 0 1399 -1100 0c-220,0 -400,-180 -400,-400l0 -4200 1841 0 600 600 1959 0 0 600 -200 0 0 -400 -1841 0 -600 -600 -1559 0 0 4000c0,111 89,200 200,200zm3750 -2315l-750 375 -750 -375 750 -375 750 375zm100 172l0 653 -750 375 0 -653 750 -375zm125 815l525 263 -750 375 -526 -264 751 -374zm-325 810l0 875 -550 -275 0 -875 550 275zm200 0l750 -375 0 875 -750 375 0 -875zm-950 -1250l0 653 -750 -375 0 -653 750 375zm0 976l0 874 -550 275 0 -875 550 -274zm-650 102l-750 -375 527 -264 750 375 -527 264zm-100 1047l-750 -375 0 -875 750 375 0 875zm899 -3357l1351 0 0 1551 -250 -125 0 -875 -1101 -551z"/>
</svg>