<?xml version="1.0" encoding="UTF-8"?>
<!DOCTYPE svg PUBLIC "-//W3C//DTD SVG 1.1//EN" "http://www.w3.org/Graphics/SVG/1.1/DTD/svg11.dtd">
<svg xmlns="http://www.w3.org/2000/svg" xml:space="preserve" width="580px" height="580px" shape-rendering="geometricPrecision" text-rendering="geometricPrecision" image-rendering="optimizeQuality" fill-rule="nonzero" clip-rule="nonzero" viewBox="0 0 5800 5800" xmlns:xlink="http://www.w3.org/1999/xlink">
	<title>folder_shared icon</title>
	<desc>folder_shared icon from the IconExperience.com I-Collection. Copyright by INCORS GmbH (www.incors.com).</desc>
		<path id="curve29"  d="M417 4082c-72,-72 -117,-172 -117,-282l0 -3500 1841 0 601 600 1358 0 0 400 -200 0 0 -200 -1242 0 -599 -600 -1559 0 0 3300c0,42 13,81 35,114 -16,18 -117,169 -118,168zm4083 -2582l4 2364c-116,-31 -214,-82 -322,-140 -268,-143 -469,-224 -782,-224l-800 0c-328,0 -603,226 -679,530l-553 -276c-149,-75 -313,-91 -464,-57l-4 -2197 3600 0z"/>
	<path id="curve28"  d="M4500 5356l-782 142 -18 2 -1000 0c-267,0 -610,-48 -851,-169l-1015 -508c-246,-123 -346,-422 -223,-668 123,-245 422,-345 668,-222l623 311c24,312 280,556 598,556l800 0c110,0 200,-90 200,-200l0 0 -1000 0c-211,0 -382,-162 -399,-369 -1,-10 -1,-21 -1,-31 0,-276 224,-500 500,-500l800 0c313,0 497,98 688,201 120,64 244,130 412,168l0 1287zm200 -1356c0,-165 135,-300 300,-300l500 0c0,708 0,1701 0,2000l-500 0c-165,0 -300,-135 -300,-300 0,-467 0,-933 0,-1400z"/>
</svg>