<?xml version="1.0" encoding="UTF-8"?>
<!DOCTYPE svg PUBLIC "-//W3C//DTD SVG 1.1//EN" "http://www.w3.org/Graphics/SVG/1.1/DTD/svg11.dtd">
<svg xmlns="http://www.w3.org/2000/svg" xml:space="preserve" width="580px" height="580px" shape-rendering="geometricPrecision" text-rendering="geometricPrecision" image-rendering="optimizeQuality" fill-rule="nonzero" clip-rule="nonzero" viewBox="0 0 5800 5800" xmlns:xlink="http://www.w3.org/1999/xlink">
	<title>folder_into icon</title>
	<desc>folder_into icon from the IconExperience.com I-Collection. Copyright by INCORS GmbH (www.incors.com).</desc>
		<path id="curve29"  d="M5747 2500l-1054 2683c-77,194 -257,317 -466,317l-3727 0c-220,0 -400,-180 -400,-400l0 -4200 1600 0 0 200 -1400 0 0 4000c0,126 98,200 218,200 130,0 239,-76 283,-199l929 -2601 2570 0 0 800 600 0 0 -800 847 0z"/>
	<path id="curve28"  d="M4500 3100l0 -1569c0,-625 -753,-936 -1195,-495l-864 864 1259 0 0 200 -1600 0 0 -1600 200 0 0 1259 864 -864c567,-567 1536,-165 1536,636l0 1569 -200 0z"/>
</svg>