<?xml version="1.0" encoding="UTF-8"?>
<!DOCTYPE svg PUBLIC "-//W3C//DTD SVG 1.1//EN" "http://www.w3.org/Graphics/SVG/1.1/DTD/svg11.dtd">
<svg xmlns="http://www.w3.org/2000/svg" xml:space="preserve" width="580px" height="580px" shape-rendering="geometricPrecision" text-rendering="geometricPrecision" image-rendering="optimizeQuality" fill-rule="nonzero" clip-rule="nonzero" viewBox="0 0 5800 5800" xmlns:xlink="http://www.w3.org/1999/xlink">
	<title>folder_music icon</title>
	<desc>folder_music icon from the IconExperience.com I-Collection. Copyright by INCORS GmbH (www.incors.com).</desc>
		<path id="curve29"  d="M2718 1900l-1618 0 0 2400c0,73 -20,141 -54,200l357 0c-32,64 -57,131 -74,200l-629 0c-220,0 -400,-180 -400,-400l0 -4000 1841 0 600 600 1759 0 0 347 -200 43 0 -190 -1641 0 -600 -600 -1559 0 0 3800c0,111 89,200 200,200 53,0 104,-21 141,-59 37,-36 59,-86 59,-141l0 -2600 1929 0c-51,56 -90,125 -111,200z"/>
	<path id="curve28"  d="M3300 2461l2000 -429 0 -343 -2000 426 0 346zm-811 1750c39,-5 75,-7 110,-7 181,0 344,51 467,138 11,8 23,17 34,26l0 -2333c0,-50 37,-92 85,-99l2194 -468c63,-14 121,34 121,97 0,914 0,1827 0,2741 0,179 -91,350 -239,480 -141,125 -336,215 -550,238 -39,4 -75,6 -110,6 -181,0 -344,-50 -467,-137 -129,-92 -214,-222 -231,-377 -2,-19 -3,-38 -3,-56 0,-180 91,-350 239,-481 141,-125 336,-214 550,-238 39,-4 75,-6 110,-6 181,0 344,51 467,137 11,9 23,18 34,27l0 -1662 -2000 428 0 2109c0,190 -100,358 -239,482 -141,125 -336,214 -550,238 -39,4 -75,6 -110,6 -181,0 -344,-51 -467,-138 -129,-91 -214,-222 -231,-376 -2,-20 -3,-39 -3,-57 0,-179 91,-350 239,-480 141,-126 336,-215 550,-238zm110 193c-30,0 -59,2 -88,5 -173,19 -328,90 -440,189 -106,93 -171,211 -171,331 0,113 58,206 149,271 90,63 212,100 352,100 30,0 59,-2 88,-5 173,-19 328,-89 440,-188 96,-86 171,-202 171,-334 -1,-112 -59,-204 -149,-268 -90,-64 -212,-101 -352,-101zm2200 -469c-30,0 -59,1 -88,5 -173,19 -328,89 -440,188 -106,94 -171,212 -171,332 0,113 58,206 149,270 90,63 212,100 352,100 30,0 59,-1 88,-4 173,-19 328,-90 440,-189 106,-94 171,-211 171,-331 0,-113 -58,-207 -149,-271 -90,-63 -212,-100 -352,-100z"/>
</svg>