<?xml version="1.0" encoding="UTF-8"?>
<!DOCTYPE svg PUBLIC "-//W3C//DTD SVG 1.1//EN" "http://www.w3.org/Graphics/SVG/1.1/DTD/svg11.dtd">
<svg xmlns="http://www.w3.org/2000/svg" xml:space="preserve" width="580px" height="580px" shape-rendering="geometricPrecision" text-rendering="geometricPrecision" image-rendering="optimizeQuality" fill-rule="nonzero" clip-rule="nonzero" viewBox="0 0 5800 5800" xmlns:xlink="http://www.w3.org/1999/xlink">
	<title>folders icon</title>
	<desc>folders icon from the IconExperience.com I-Collection. Copyright by INCORS GmbH (www.incors.com).</desc>
		<path id="curve29"  d="M1100 1300l0 -1000 1841 0 601 600 1558 0 0 400 -200 0 0 -200 -1442 0 -599 -600 -1559 0 0 800 -200 0zm4200 400l-2593 0 -199 -200 2992 0 0 2204c0,213 -171,391 -384,399l4 -200c102,-11 180,-97 180,-199l0 -2004z"/>
	<path id="curve28"  d="M4500 3100l-3400 0 0 2000c0,73 -20,141 -54,200l3254 0c111,0 200,-89 200,-200l0 -2000zm-3798 2400l0 0 -1 0 0 0 0 0 0 0 -1 0 0 0 0 0c-220,0 -400,-180 -400,-400l0 -3400 1841 0 601 600 1558 0 0 400 -200 0 0 -200 -1442 0 -599 -600 -1559 0 0 3200c0,111 89,200 200,200 55,0 105,-23 141,-59 37,-36 59,-86 59,-141l0 -2200 3800 0 0 2200c0,220 -180,400 -400,400 -1199,0 -2399,0 -3598,0z"/>
</svg>