<?xml version="1.0" encoding="UTF-8"?>
<!DOCTYPE svg PUBLIC "-//W3C//DTD SVG 1.1//EN" "http://www.w3.org/Graphics/SVG/1.1/DTD/svg11.dtd">
<svg xmlns="http://www.w3.org/2000/svg" xml:space="preserve" width="580px" height="580px" shape-rendering="geometricPrecision" text-rendering="geometricPrecision" image-rendering="optimizeQuality" fill-rule="nonzero" clip-rule="nonzero" viewBox="0 0 5800 5800" xmlns:xlink="http://www.w3.org/1999/xlink">
	<title>folder3_music icon</title>
	<desc>folder3_music icon from the IconExperience.com I-Collection. Copyright by INCORS GmbH (www.incors.com).</desc>
	<path id="curve0"  d="M2989 4306c33,-4 65,-6 96,-6 150,0 295,41 415,132l0 -2017 2000 -333c0,783 0,1565 0,2348 0,362 -353,625 -689,664 -33,4 -65,6 -96,6 -287,0 -576,-166 -611,-471 -3,-20 -4,-40 -4,-59 0,-362 353,-625 689,-664 33,-4 65,-6 96,-6 150,0 295,41 415,132l0 -1214 -1600 267c0,581 0,1163 0,1745 0,362 -353,625 -689,664 -33,4 -65,6 -96,6 -287,0 -576,-166 -611,-471 -3,-20 -4,-40 -4,-59 0,-362 353,-625 689,-664zm-2089 -4006l4000 0 0 1342 -400 399 0 5 -200 34 0 -121 401 -401 0 -1058 -3801 0c-110,0 -200,89 -200,200l0 18c0,120 60,242 179,282l2421 829c0,765 0,1530 0,2295 -68,-16 -140,-24 -215,-24 -477,0 -985,361 -985,870 0,124 34,249 98,355l-1398 -532c-192,-73 -300,-265 -300,-466l0 -3627c0,-220 180,-400 400,-400z"/>
</svg>