<?xml version="1.0" encoding="UTF-8"?>
<!DOCTYPE svg PUBLIC "-//W3C//DTD SVG 1.1//EN" "http://www.w3.org/Graphics/SVG/1.1/DTD/svg11.dtd">
<svg xmlns="http://www.w3.org/2000/svg" xml:space="preserve" width="580px" height="580px" shape-rendering="geometricPrecision" text-rendering="geometricPrecision" image-rendering="optimizeQuality" fill-rule="nonzero" clip-rule="nonzero" viewBox="0 0 5800 5800" xmlns:xlink="http://www.w3.org/1999/xlink">
	<title>folder3_mail icon</title>
	<desc>folder3_mail icon from the IconExperience.com I-Collection. Copyright by INCORS GmbH (www.incors.com).</desc>
	<path id="curve0" d="M2900 5455l0 -3484 -2286 -782c-41,-14 -80,-34 -114,-59l0 3197c0,118 56,236 171,279l2229 849zm2159 -155l-1029 -1029 -238 199c-112,93 -272,93 -384,0l-108 -90 0 -260 236 197c37,31 91,31 128,0l1636 -1363 0 -54 -2000 0 0 -200 2200 0c0,933 0,1867 0,2800l-2200 0 0 -200 1759 0zm-875 -1157l1116 1116 0 -2046 -1116 930zm-3884 -3443c0,-220 180,-400 400,-400l4000 0 0 1342 -400 399 0 459 -200 0 0 -541 400 -401 0 -1058 -3800 0c-111,0 -200,89 -200,200l0 18c0,120 60,242 179,282l2421 829 0 3916 -2500 -952c-192,-73 -300,-265 -300,-466l0 -3627z"/>
</svg>