<?xml version="1.0" encoding="UTF-8"?>
<!DOCTYPE svg PUBLIC "-//W3C//DTD SVG 1.1//EN" "http://www.w3.org/Graphics/SVG/1.1/DTD/svg11.dtd">
<svg xmlns="http://www.w3.org/2000/svg" xml:space="preserve" width="580px" height="580px" shape-rendering="geometricPrecision" text-rendering="geometricPrecision" image-rendering="optimizeQuality" fill-rule="nonzero" clip-rule="nonzero" viewBox="0 0 5800 5800" xmlns:xlink="http://www.w3.org/1999/xlink">
	<title>folder3_movie icon</title>
	<desc>folder3_movie icon from the IconExperience.com I-Collection. Copyright by INCORS GmbH (www.incors.com).</desc>
	<path id="curve0"  d="M2900 5455l0 -3484 -2286 -782c-41,-14 -80,-34 -114,-59l0 3197c0,118 56,236 171,279l2229 849zm1265 -2674c299,70 557,259 717,521 59,96 12,222 -95,257l-495 161c-112,-163 -153,-193 -342,-249l0 -520c0,-112 106,-196 215,-170zm-3865 -2081c0,-220 180,-400 400,-400l4000 0 0 1342 -400 399 0 104c-65,-15 -132,-26 -200,-34l0 -152 400 -401 0 -1058 -3800 0c-111,0 -200,89 -200,200l0 18c0,68 18,131 51,181 31,47 74,83 128,101l2421 829 0 3916 -2500 -952c-192,-73 -300,-265 -300,-466l0 -3609 0 -18zm3600 1600c884,0 1600,716 1600,1600 0,884 -716,1600 -1600,1600 -212,0 -415,-41 -600,-116l0 -219c182,87 385,135 600,135 773,0 1400,-627 1400,-1400 0,-773 -627,-1400 -1400,-1400 -215,0 -418,48 -600,135l0 -219c185,-75 388,-116 600,-116zm250 683l0 344c83,36 157,90 217,158l328 -106c-127,-194 -322,-335 -545,-396zm896 824c25,306 -73,608 -274,842 -73,85 -208,80 -274,-11l-305 -421c46,-60 85,-106 110,-181 28,-82 22,-140 21,-221l494 -161c107,-34 219,39 228,153zm-197 47l-327 106c-9,91 -37,178 -83,256l202 279c145,-181 219,-410 208,-641zm-506 1107c-282,118 -604,118 -886,0 -105,-44 -140,-173 -74,-264l306 -421c186,66 236,66 422,0l306 421c66,91 31,220 -74,264zm-106 -172l-202 -279c-90,20 -180,20 -270,0l-202 279c216,81 458,81 674,0zm-937 -1031l176 57c-4,205 13,248 131,402l-307 423 0 -339 61 -85c-26,-44 -47,-92 -61,-141l0 -317zm0 -839c102,-63 215,-110 335,-138 109,-26 215,58 215,170l0 520c-189,56 -230,86 -342,249l-208 -68 0 -210 133 43c60,-68 134,-122 217,-158l0 -344c-128,35 -247,96 -350,180l0 -244z"/>
</svg>