<?xml version="1.0" encoding="utf-8"?>
<!-- Generator: Adobe Illustrator 23.0.2, SVG Export Plug-In . SVG Version: 6.00 Build 0)  -->
<svg version="1.1" id="tab_x5F_container_x5F_gi" xmlns="http://www.w3.org/2000/svg" xmlns:xlink="http://www.w3.org/1999/xlink"
	 x="0px" y="0px" viewBox="0 0 580 580" style="enable-background:new 0 0 580 580;" xml:space="preserve">
<g>
	<path d="M118.5,438.8v-260h380v22.4h20v-42.4h-420v280c0,11-9,20-20,20c-11.1,0-20-8.9-20-20v-400h155.9l60,60h184.1v40h20v-60
		H282.6l-60-60H38.5v420c0,22,18,40,40,40h103v-20h-68.5C116.5,452.9,118.5,446.1,118.5,438.8z"/>
	<polygon points="371.9,491.1 391.9,491.1 391.9,411.1 471.9,411.1 471.9,391.1 391.9,391.1 391.9,311.1 371.9,311.1 371.9,391.1 
		291.9,391.1 291.9,411.1 371.9,411.1 	"/>
	<path d="M221.5,241.2v320h320v-320H221.5z M521.5,541.2h-280v-280h280V541.2z"/>
</g>
</svg>
