<?xml version="1.0" encoding="UTF-8"?>
<!DOCTYPE svg PUBLIC "-//W3C//DTD SVG 1.1//EN" "http://www.w3.org/Graphics/SVG/1.1/DTD/svg11.dtd">
<svg xmlns="http://www.w3.org/2000/svg" xml:space="preserve" width="580px" height="580px" shape-rendering="geometricPrecision" text-rendering="geometricPrecision" image-rendering="optimizeQuality" fill-rule="nonzero" clip-rule="nonzero" viewBox="0 0 5800 5800" xmlns:xlink="http://www.w3.org/1999/xlink">
	<title>folder_document2 icon</title>
	<desc>folder_document2 icon from the IconExperience.com I-Collection. Copyright by INCORS GmbH (www.incors.com).</desc>
		<path id="curve29"  d="M2500 2100l0 3000 -1800 0c-220,0 -400,-180 -400,-400l0 -4000 1841 0 600 600 1759 0 0 400 -200 0 0 -200 -1641 0 -600 -600 -1559 0 0 3800c0,181 218,265 341,141 37,-36 59,-86 59,-141l0 -2600 1600 0z"/>
	<path id="curve28"  d="M4424 1901c73,6 139,38 188,87 267,267 533,533 800,800 49,49 81,115 87,188 -53,-47 -123,-76 -199,-76l-800 0 0 -800c0,-76 -29,-146 -76,-199zm1076 1199l0 2400 -2800 0 0 -3600 1600 0 0 1200 1200 0z"/>
</svg>