<?xml version="1.0" encoding="UTF-8"?>
<!DOCTYPE svg PUBLIC "-//W3C//DTD SVG 1.1//EN" "http://www.w3.org/Graphics/SVG/1.1/DTD/svg11.dtd">
<svg xmlns="http://www.w3.org/2000/svg" xml:space="preserve" width="580px" height="580px" shape-rendering="geometricPrecision" text-rendering="geometricPrecision" image-rendering="optimizeQuality" fill-rule="nonzero" clip-rule="nonzero" viewBox="0 0 5800 5800" xmlns:xlink="http://www.w3.org/1999/xlink">
	<title>folders icon</title>
	<desc>folders icon from the IconExperience.com I-Collection. Copyright by INCORS GmbH (www.incors.com).</desc>
		<path id="curve28"  d="M5500 1500l0 2204c0,223 -179,396 -400,396l-200 0 0 -1400 -400 0 0 -600 -1670 2 -600 -599 3270 -3zm-4400 1l0 -1201 1841 0 601 600 1558 0 0 400 -200 0 0 -200 -1442 0 -599 -600 -1559 0 0 1001 -200 0zm3600 1399l0 2200c0,220 -180,400 -400,400l-3598 0 0 0 -1 0 0 0 0 0 0 0 -1 0 0 0 0 0c-220,0 -400,-180 -400,-400l0 -3400 1841 0 601 600 1558 0 0 400 -200 0 0 -200 -1442 0 -599 -600 -1559 0 0 3200c0,111 89,200 200,200 110,0 200,-90 200,-200l0 -2200 3800 0z"/>
</svg>