<?xml version="1.0" encoding="UTF-8"?>
<!DOCTYPE svg PUBLIC "-//W3C//DTD SVG 1.1//EN" "http://www.w3.org/Graphics/SVG/1.1/DTD/svg11.dtd">
<svg xmlns="http://www.w3.org/2000/svg" xml:space="preserve" width="580px" height="580px" shape-rendering="geometricPrecision" text-rendering="geometricPrecision" image-rendering="optimizeQuality" fill-rule="nonzero" clip-rule="nonzero" viewBox="0 0 5800 5800" xmlns:xlink="http://www.w3.org/1999/xlink">
	<title>folder3_movie icon</title>
	<desc>folder3_movie icon from the IconExperience.com I-Collection. Copyright by INCORS GmbH (www.incors.com).</desc>
	<path id="curve0"  d="M700 300l4000 0 0 1342 -400 399 0 104c-65,-15 -132,-26 -200,-34l0 -152 401 -401 0 -1058 -3801 0c-110,0 -200,89 -200,200l0 18c0,120 60,242 179,282l2421 829 0 3916 -2500 -952c-192,-73 -300,-265 -300,-466l0 -3627c0,-220 180,-400 400,-400zm3200 2000c884,0 1600,716 1600,1600 0,884 -716,1600 -1600,1600 -212,0 -415,-41 -600,-116l0 -829 245 -337c-42,-55 -72,-99 -95,-166 -26,-75 -26,-129 -24,-201l-126 -41 0 -210 188 61c40,-59 74,-103 133,-146 59,-43 111,-61 179,-81l0 -483c0,-80 -75,-140 -154,-122 -125,30 -242,81 -346,149l0 -562c185,-75 388,-116 600,-116zm254 529c-79,-18 -154,42 -154,122l0 483c153,45 221,95 312,227l459 -150c77,-25 111,-114 68,-183 -76,-125 -176,-233 -293,-319 -116,-84 -249,-146 -392,-180zm842 982c-6,-82 -86,-134 -163,-109l-459 149c2,72 2,126 -24,201 -23,67 -53,111 -95,166l284 390c47,66 143,70 195,8 85,-98 152,-211 198,-334 56,-151 77,-311 64,-471zm-672 1104c75,-31 100,-124 53,-189l-284 -390c-70,24 -119,39 -193,39 -74,0 -123,-15 -193,-39l-284 390c-47,65 -22,158 53,189 135,56 278,85 424,85 146,0 289,-29 424,-85z"/>
</svg>