<?xml version="1.0" encoding="UTF-8"?>
<!DOCTYPE svg PUBLIC "-//W3C//DTD SVG 1.1//EN" "http://www.w3.org/Graphics/SVG/1.1/DTD/svg11.dtd">
<svg xmlns="http://www.w3.org/2000/svg" xml:space="preserve" width="580px" height="580px" shape-rendering="geometricPrecision" text-rendering="geometricPrecision" image-rendering="optimizeQuality" fill-rule="nonzero" clip-rule="nonzero" viewBox="0 0 5800 5800" xmlns:xlink="http://www.w3.org/1999/xlink">
	<title>folding_rule icon</title>
	<desc>folding_rule icon from the IconExperience.com I-Collection. Copyright by INCORS GmbH (www.incors.com).</desc>
		<path id="curve28"  d="M4947 407l587 125c54,11 88,64 77,118l-938 4413 25 116c11,53 -22,106 -75,118l-10 48c-12,54 -65,89 -119,77l-230 -49 -230 49c-54,12 -107,-23 -119,-77l-10 -48c-52,-12 -86,-65 -74,-118l24 -116 -497 -2342 -492 2311 32 147c11,54 -23,107 -77,119l-12 2 -9 45c-12,54 -65,89 -119,77l-223 -47 -224 47c-54,12 -107,-23 -119,-77l-9 -45 -12 -2c-54,-12 -88,-65 -77,-119l32 -147 -491 -2311 -558 2624c-12,54 -65,89 -119,77l-587 -124c-54,-12 -88,-65 -77,-119l932 -4381 -32 -148c-11,-54 23,-107 77,-118l12 -2 9 -46c12,-54 65,-88 119,-77l224 48 223 -48c54,-11 107,23 119,77l9 46 12 2c54,11 88,64 77,118l-32 148 492 2311 491 -2311 -32 -148c-11,-54 24,-107 77,-118l12 -2 9 -46c12,-54 65,-88 119,-77l224 48 223 -48c54,-11 107,23 119,77l9 46 12 2c54,11 88,64 77,118l-32 148 498 2342 565 -2656c11,-54 64,-88 118,-77zm-990 4176l205 -963 -637 -2997 -391 84 823 3876zm-1444 190c54,12 88,65 77,119 -12,54 -65,88 -119,77 -54,-12 -89,-65 -77,-119 11,-54 65,-88 119,-77zm-1800 0c54,12 88,65 77,119 -12,54 -65,88 -119,77 -54,-12 -89,-65 -77,-119 11,-54 65,-88 119,-77zm2338 -3495l-817 3845 391 83 631 -2965 -205 -963zm-695 2311l-631 -2966 -391 84 817 3845 205 -963zm-1105 -2311l-817 3845 391 83 631 -2965 -205 -963zm320 -417c-54,11 -89,64 -77,118 11,54 65,89 119,77 54,-11 88,-64 77,-118 -12,-54 -65,-89 -119,-77zm1800 0c-54,11 -89,64 -77,118 11,54 65,89 119,77 54,-11 88,-64 77,-118 -12,-54 -65,-89 -119,-77zm2024 -154l-392 -84 -956 4500 391 83 957 -4499zm-1069 4066c54,12 88,65 77,119 -12,54 -65,88 -119,77 -54,-12 -88,-65 -77,-119 12,-54 65,-88 119,-77zm831 -3912c54,11 89,64 77,118 -11,54 -64,89 -118,77 -54,-11 -89,-64 -77,-118 11,-54 64,-89 118,-77z"/>
</svg>