<?xml version="1.0" encoding="UTF-8"?>
<!DOCTYPE svg PUBLIC "-//W3C//DTD SVG 1.1//EN" "http://www.w3.org/Graphics/SVG/1.1/DTD/svg11.dtd">
<svg xmlns="http://www.w3.org/2000/svg" xml:space="preserve" width="580px" height="580px" shape-rendering="geometricPrecision" text-rendering="geometricPrecision" image-rendering="optimizeQuality" fill-rule="nonzero" clip-rule="nonzero" viewBox="0 0 5800 5800" xmlns:xlink="http://www.w3.org/1999/xlink">
	<title>folders2 icon</title>
	<desc>folders2 icon from the IconExperience.com I-Collection. Copyright by INCORS GmbH (www.incors.com).</desc>
		<path id="curve29"  d="M3300 3009l0 2491c-1000,0 -2000,0 -3000,0l0 -4600 2552 0 448 2109zm-2600 -1709l0 1800 800 0 0 -1800 -800 0zm600 200l0 1400 -400 0 0 -1400 400 0zm-200 2400c-221,0 -400,179 -400,400 0,220 180,400 400,400 221,0 400,-179 400,-400 0,-220 -180,-400 -400,-400zm200 400c0,110 -90,200 -200,200 -111,0 -200,-89 -200,-200 0,-110 90,-200 200,-200 111,0 200,89 200,200zm800 -3000l0 1800 800 0 0 -1800 -800 0zm600 200l0 1400 -400 0 0 -1400 400 0zm-200 2400c-221,0 -400,179 -400,400 0,220 180,400 400,400 221,0 400,-179 400,-400 0,-220 -180,-400 -400,-400zm200 400c0,110 -90,200 -200,200 -111,0 -200,-89 -200,-200 0,-110 90,-200 200,-200 111,0 200,89 200,200z"/>
	<path id="curve28"  d="M3556 1327l374 1761 782 -167 -374 -1760 -782 166zm628 71l292 1370 -392 83 -291 -1370 391 -83zm462 -711l957 4499 -1565 332 -956 -4499 1564 -332zm-158 3100c-219,47 -351,257 -308,475 46,215 258,353 474,308 215,-46 354,-259 308,-475 -47,-218 -257,-350 -474,-308zm279 350c23,108 -46,214 -155,237 -108,23 -213,-45 -237,-153 -22,-109 45,-215 154,-238 108,-23 215,45 238,154z"/>
</svg>