<?xml version="1.0" encoding="utf-8"?>
<!-- Generator: Adobe Illustrator 23.0.2, SVG Export Plug-In . SVG Version: 6.00 Build 0)  -->
<svg version="1.1" id="tab_x5F_container_x5F_gi" xmlns="http://www.w3.org/2000/svg" xmlns:xlink="http://www.w3.org/1999/xlink"
	 x="0px" y="0px" viewBox="0 0 580 580" style="enable-background:new 0 0 580 580;" xml:space="preserve">
<g>
	<path d="M118.6,438.9v-260h380v22.4h20v-42.4h-420v280c0,11-9,20-20,20c-11.1,0-20-8.9-20-20v-400h155.9l60,60h184.1v40h20v-60
		H282.7l-60-60H38.6v420c0,22,18,40,40,40h201.6v-20h-167C116.6,453,118.6,446.2,118.6,438.9z"/>
	<path d="M442,452.9c0-9.4-7.8-17.2-17.2-17.2s-17.2,7.8-17.2,17.2v51.6c11.5,0,22.9,0,34.4,0V452.9z"/>
	<path d="M518.5,377.8v-45.8c0-50.6-41-91.7-91.7-91.7s-91.7,41-91.7,91.7v45.8h-22.9v183.3h229.1V377.8H518.5z M358.1,331.9
		c0-37.9,30.8-68.7,68.7-68.7c37.9,0,68.7,30.8,68.7,68.7v45.8H358.1V331.9z M518.5,538.2H335.2V400.7h183.3V538.2z"/>
</g>
</svg>
