<?xml version="1.0" encoding="UTF-8"?>
<!DOCTYPE svg PUBLIC "-//W3C//DTD SVG 1.1//EN" "http://www.w3.org/Graphics/SVG/1.1/DTD/svg11.dtd">
<svg xmlns="http://www.w3.org/2000/svg" xml:space="preserve" width="580px" height="580px" shape-rendering="geometricPrecision" text-rendering="geometricPrecision" image-rendering="optimizeQuality" fill-rule="nonzero" clip-rule="nonzero" viewBox="0 0 5800 5800" xmlns:xlink="http://www.w3.org/1999/xlink">
	<title>folder3_music icon</title>
	<desc>folder3_music icon from the IconExperience.com I-Collection. Copyright by INCORS GmbH (www.incors.com).</desc>
	<path id="curve0" d="M3700 2882l1600 -267 0 -297 -1600 266 0 298zm-3000 -2182l0 18c0,68 18,131 51,181 31,47 74,83 128,101l2421 829c0,765 0,1530 0,2295 -64,-15 -131,-23 -200,-24l0 -2129 -2286 -782c-41,-14 -80,-34 -114,-59l0 3197c0,118 56,236 171,279l1238 472c14,90 44,173 89,247l-1398 -532c-192,-73 -300,-265 -300,-466l0 -3609 0 -18c0,-220 180,-400 400,-400l4000 0 0 1342 -400 399 0 5 -200 34 0 -121 400 -401 0 -1058 -3800 0c-111,0 -200,89 -200,200zm2289 3606c33,-4 65,-6 96,-6 150,0 295,41 415,132l0 -2017 2000 -333c0,783 0,1565 0,2348 0,362 -353,625 -689,664 -33,4 -65,6 -96,6 -287,0 -576,-166 -611,-471 -3,-20 -4,-40 -4,-59 0,-362 353,-625 689,-664 33,-4 65,-6 96,-6 150,0 295,41 415,132l0 -1214 -1600 267c0,581 0,1163 0,1745 0,362 -353,625 -689,664 -33,4 -65,6 -96,6 -287,0 -576,-166 -611,-471 -3,-20 -4,-40 -4,-59 0,-362 353,-625 689,-664zm96 194c-25,0 -49,1 -74,4 -231,27 -511,208 -511,466 0,13 1,25 2,36 23,201 230,294 413,294 25,0 49,-1 74,-4 231,-27 511,-208 511,-466 0,-13 -1,-25 -2,-36 -23,-201 -230,-294 -413,-294zm1800 -400c-25,0 -49,1 -74,4 -231,27 -511,208 -511,466 0,13 1,25 2,36 23,201 230,294 413,294 25,0 49,-1 74,-4 231,-27 511,-208 511,-466 0,-13 -1,-25 -2,-36 -23,-201 -230,-294 -413,-294z"/>
</svg>