<?xml version="1.0" encoding="UTF-8"?>
<!DOCTYPE svg PUBLIC "-//W3C//DTD SVG 1.1//EN" "http://www.w3.org/Graphics/SVG/1.1/DTD/svg11.dtd">
<svg xmlns="http://www.w3.org/2000/svg" xml:space="preserve" width="580px" height="580px" shape-rendering="geometricPrecision" text-rendering="geometricPrecision" image-rendering="optimizeQuality" fill-rule="nonzero" clip-rule="nonzero" viewBox="0 0 5800 5800" xmlns:xlink="http://www.w3.org/1999/xlink">
	<title>folder_cubes icon</title>
	<desc>folder_cubes icon from the IconExperience.com I-Collection. Copyright by INCORS GmbH (www.incors.com).</desc>
	<path id="curve0"  d="M3800 3985l0 -653 -550 -275 0 653 550 275zm-2900 1315c-220,0 -400,-180 -400,-400l0 -4200 1841 0 600 600 1959 0 0 600 -200 0 0 -400 -1841 0 -600 -600 -1559 0 0 4000c0,111 89,200 200,200 110,0 200,-90 200,-200l0 -2800 4200 0 0 1551 -200 -100 0 -1251 -3800 0 0 2600c0,73 -20,141 -54,200l754 0 0 200 -1100 0zm2473 -2404l527 264 527 -264 -527 -264 -527 264zm1177 161l-550 275 0 653 265 -133 285 -142 0 -653zm200 653l750 375 0 997 -850 425 -750 -375 -750 375 -850 -425 0 -997 750 -375 0 -875 850 -425 850 425 0 875zm-627 436l527 264 527 -264 -527 -264 -527 264zm1177 161l-550 275 0 653 550 -275 0 -653zm-750 928l0 -653 -550 -275 0 653 550 275zm-750 -928l-550 275 0 653 550 -275 0 -653zm-750 928l0 -653 -550 -275 0 653 550 275zm-427 -1089l527 264 527 -264 -527 -264 -527 264z"/>
</svg>