<?xml version="1.0" encoding="utf-8"?>
<!-- Generator: Adobe Illustrator 23.0.2, SVG Export Plug-In . SVG Version: 6.00 Build 0)  -->
<svg version="1.1" id="folder_x5F_template_x5F_gi" xmlns="http://www.w3.org/2000/svg" xmlns:xlink="http://www.w3.org/1999/xlink"
	 x="0px" y="0px" viewBox="0 0 580 580" style="enable-background:new 0 0 580 580;" xml:space="preserve">
<g>
	<path d="M120,439.4v-260h380v22.5h20v-42.5H100v280c0,11-9,20-20,20c-11.1,0-20-8.9-20-20v-400h155.9l60,60H460v40h20v-60H284.1
		l-60-60H40v420c0,22,18,40,40,40h103.3v-20h-68.7C118,453.5,120,446.7,120,439.4z"/>
	<rect x="271.4" y="448.2" width="223" height="20"/>
	<rect x="271.4" y="492.2" width="223" height="20"/>
	<path d="M371.8,289.4h-100v55h100V289.4z M351.8,324.4h-61v-15h61V324.4z"/>
	<path d="M494,289.4H394v55h100V289.4z M474,324.4h-61v-15h61V324.4z"/>
	<path d="M494.4,410.9v-41.6h-223v54h223V410.9z M474.4,403.3h-183v-14h183V403.3z"/>
	<path d="M223,241.9v320h320v-320H223z M523,541.9H243v-280h280V541.9z"/>
</g>
</svg>
