<?xml version="1.0" encoding="utf-8"?>
<!-- Generator: Adobe Illustrator 27.6.1, SVG Export Plug-In . SVG Version: 6.00 Build 0)  -->
<svg version="1.1" id="Ebene_1" xmlns="http://www.w3.org/2000/svg" xmlns:xlink="http://www.w3.org/1999/xlink" x="0px" y="0px"
	 viewBox="0 0 580 580" style="enable-background:new 0 0 580 580;" xml:space="preserve">
<style type="text/css">

</style>
<g>
	<path class="st0" d="M470,110v128.1c7.8,6.5,14.6,14.1,20,22.4V110c0-16.5-13.5-30-30-30h-30v20h30C465.5,100,470,104.5,470,110z"
		/>
	<path class="st0" d="M130,120v380h92.5c1.2-6.8,3-13.5,5.3-20H150c0-113.3,0-246.7,0-360H130z"/>
	<path class="st0" d="M120,540c-5.5,0-10-4.5-10-10V110c0-5.5,4.5-10,10-10h30V80h-30c-16.5,0-30,13.5-30,30v420
		c0,16.5,13.5,30,30,30h115.3c-5.1-6.1-8.9-12.8-11.4-20H120z"/>
	<path class="st0" d="M450,120h-20c0,31.7,0,64.9,0,98.9c6.9,1.4,13.6,3.6,20,6.6V120z"/>
	<path class="st0" d="M410,50h-60c0-16.5-13.5-30-30-30h-60c-16.5,0-30,13.5-30,30h-60v110h240V50z M390,140H190V70h60
		c0-9-4-30,10-30h60c5.5,0,10,4.5,10,10v20h60V140z"/>
	<path class="st0" d="M505.1,491.6c-3.6-8.9-8.8-17.2-15.6-23.8c-6.6-6.4-16.1-9.9-23.7-12.7c-4-1.4-7.9-2.7-12-3.9
		c-5.8-1.8-10.7-3.2-16.8-7.1c-3.2-1.8-4.4-5.8-5.1-9.2c-1-4.2-1.4-8.9-1.6-13.1c3.8-4.5,7.3-10.2,10.3-16.1c3.7-7.4,6.9-15.3,9-22
		c5.4-3.8,9.2-9.2,11.5-15.2c2.7-7,3.1-15,1.4-22.3l2.2-34c0.4-9-0.9-15.9-4.9-24c-3.8-7.9-9.8-15.1-16.8-20.5
		c-7.3-5.6-15.9-9.3-24.9-10.2c-5.2-0.5-10.4,0-15.6,1.7c-1.9-1.2-3.8-2.1-5.8-3c-3.5-1.6-7.3-2.7-12.3-3.5c-4.4-0.7-8.9-1-13.4-1
		c-29.8,0.6-58.5,18.8-63.6,49.7c-0.5,3.4-0.9,7.6-0.7,11.1l2.2,33.7c-1.7,7.3-1.2,15.3,1.4,22.3c2.3,6,6.1,11.4,11.5,15.2
		c2.1,6.7,5.3,14.6,9,22c3.1,5.9,6.6,11.6,10.3,16.1c-0.1,4.1-0.5,8.8-1.6,13.2c-1,4-1.9,7-5.4,9.3c-6,3.7-10.8,5.2-16.5,6.9
		c-4,1.2-8,2.4-12,3.9c-7.6,2.8-17.1,6.3-23.7,12.7c-6.8,6.6-12,14.8-15.6,23.7c-3.7,9.4-5.6,19.4-5.6,29c0,15.3,16,24.9,38,30.6
		c27.1,7,64.8,9.3,87,9.3c22.2,0,59.9-2.3,87-9.3c22-5.7,38-15.3,38-30.6C510.7,510.9,508.8,500.9,505.1,491.6z M467.7,531.8
		c-25.1,6.5-60.8,8.6-82,8.6c-21.2,0-56.9-2.1-82-8.6c-13.3-3.5-23-7.4-23-11.3c0-7.2,1.4-14.7,4.2-21.6c2.5-6.4,6.2-12.2,10.9-16.8
		c3.5-3.4,10.8-6.1,16.6-8.2c3.6-1.3,7.3-2.5,10.9-3.6c7.1-2.1,13.1-3.9,21.4-9c7.7-4.4,11.9-12.5,14.2-21.5
		c0.4-1.8,3.4-21.7,2.3-21.7c0-2.6-1-5.2-3-7.1c-3.2-3.2-6.5-8.5-9.6-14.4c-3.8-7.6-7-15.9-8.6-22c-0.8-2.7-2.6-5.1-5.3-6.4
		c-2.7-1.3-4.6-3.8-5.7-6.7c-1.3-3.6-1.5-7.6-0.6-11.1c0.4-1.2,0.6-2.5,0.5-3.9l-2.3-35.3c-0.2,0,0.4-6.1,0.5-6.6
		c3.5-21.1,24.3-32.6,44.2-32.9c3.3-0.1,6.6,0.1,9.9,0.7c3.1,0.5,5.4,1.1,7.5,2.1c0.8,0.3,7.4,4.2,7.4,4.2c2.8,1.8,6.5,2.1,9.8,0.5
		c3.3-1.6,6.9-2.2,10.4-1.8c5,0.4,10.1,2.7,14.5,6.1c4.7,3.6,8.6,8.3,11.2,13.5c2.3,4.7,3.1,8.7,2.8,13.9l-2.3,35.6
		c-0.1,1.1,0,2.3,0.4,3.4c1.1,3.7,0.9,7.9-0.5,11.6c-1,2.8-2.9,5.2-5.4,6.6c-2.7,1.2-4.8,3.5-5.6,6.5c-1.6,6.1-4.7,14.4-8.6,22
		c-3,5.9-6.4,11.2-9.6,14.4c-1.9,1.9-3,4.5-3,7.3c0.2,6,0.5,13.8,2.2,21.2c2.1,8.9,6.2,17.1,14.3,21.8c8.3,5.1,14.3,6.9,21.4,9
		c3.7,1.1,7.3,2.3,10.9,3.6c5.8,2.1,13.1,4.8,16.6,8.2c4.7,4.6,8.4,10.4,10.9,16.8c2.8,6.9,4.2,14.4,4.2,21.6
		C490.7,524.4,481,528.3,467.7,531.8z"/>
</g>
</svg>
