<?xml version="1.0" encoding="utf-8"?>
<!-- Generator: Adobe Illustrator 27.6.1, SVG Export Plug-In . SVG Version: 6.00 Build 0)  -->
<svg version="1.1" id="Ebene_1" xmlns="http://www.w3.org/2000/svg" xmlns:xlink="http://www.w3.org/1999/xlink" x="0px" y="0px"
	 viewBox="0 0 580 580" style="enable-background:new 0 0 580 580;" xml:space="preserve">
<style type="text/css">
	
</style>
<g>
	<path class="st0" d="M110,530V110c0-5.5,4.5-10,10-10h30V80h-30c-16.5,0-30,13.5-30,30v420c0,16.5,13.5,30,30,30h70.7v-20H120
		C114.5,540,110,535.5,110,530z"/>
	<path class="st0" d="M150,120h-20v380h60.7v-20H150C150,366.7,150,233.3,150,120z"/>
	<path class="st0" d="M470,110v210.4h20V110c0-16.5-13.5-30-30-30h-30v20h30C465.5,100,470,104.5,470,110z"/>
	<path class="st0" d="M450,120h-20c0,62.9,0,132,0,200.4h20V120z"/>
	<path class="st0" d="M410,50h-60c0-16.5-13.5-30-30-30h-60c-16.5,0-30,13.5-30,30h-60v110h240V50z M390,140H190V70h60
		c0-9-4-30,10-30h60c5.5,0,10,4.5,10,10v20h60V140z"/>
	<rect x="230.3" y="480" class="st0" width="280" height="20"/>
	<rect x="230.3" y="540" class="st0" width="280" height="20"/>
	<rect x="230.3" y="360" class="st0" width="280" height="20"/>
	<rect x="230.3" y="420" class="st0" width="280" height="20"/>
</g>
</svg>
