<?xml version="1.0" encoding="utf-8"?>
<!-- Generator: Adobe Illustrator 26.3.1, SVG Export Plug-In . SVG Version: 6.00 Build 0)  -->
<svg version="1.1" id="band_x5F_control_x5F_gi" xmlns="http://www.w3.org/2000/svg" xmlns:xlink="http://www.w3.org/1999/xlink"
	 x="0px" y="0px" viewBox="0 0 580 580" style="enable-background:new 0 0 580 580;" xml:space="preserve">
<g>
	<path class="st0" d="M150,120h-20v380h320V120h-20c0,113.3,0,246.7,0,360H150C150,366.7,150,233.3,150,120z"/>
	<path class="st0" d="M410,50h-60c0-16.5-13.5-30-30-30h-60c-16.5,0-30,13.5-30,30h-60v110h240V50z M390,140H190V70h60
		c0-9-4-30,10-30h60c5.5,0,10,4.5,10,10v20h60V140z"/>
	<path class="st0" d="M460,80h-30v20h30c5.5,0,10,4.5,10,10v420c0,5.5-4.5,10-10,10H120c-5.5,0-10-4.5-10-10V110c0-5.5,4.5-10,10-10
		h30V80h-30c-16.5,0-30,13.5-30,30v420c0,16.5,13.5,30,30,30h340c16.5,0,30-13.5,30-30V110C490,93.5,476.5,80,460,80z"/>
	<path class="st0" d="M306,280.5v-80.8c-10.7,0-21.4,0-32,0v80.1l8.7,96.1c5,0,9.9,0,15-0.1L306,280.5z"/>
	<rect x="274" y="408" class="st0" width="32" height="32"/>
</g>
</svg>
