<?xml version="1.0" encoding="UTF-8"?>
<!DOCTYPE svg PUBLIC "-//W3C//DTD SVG 1.1//EN" "http://www.w3.org/Graphics/SVG/1.1/DTD/svg11.dtd">
<svg xmlns="http://www.w3.org/2000/svg" xml:space="preserve" width="580px" height="580px" shape-rendering="geometricPrecision" text-rendering="geometricPrecision" image-rendering="optimizeQuality" fill-rule="nonzero" clip-rule="nonzero" viewBox="0 0 5800 5800" xmlns:xlink="http://www.w3.org/1999/xlink">
	<title>font_style_strikethrough icon</title>
	<desc>font_style_strikethrough icon from the IconExperience.com I-Collection. Copyright by INCORS GmbH (www.incors.com).</desc>
		<path id="curve28"  d="M2900 300c1436,0 2600,1164 2600,2600 0,1436 -1164,2600 -2600,2600 -1436,0 -2600,-1164 -2600,-2600 0,-1436 1164,-2600 2600,-2600zm797 2400l201 0c-26,-335 -307,-600 -648,-600l-700 0c-358,0 -650,292 -650,650 0,174 69,333 182,450l-582 0 0 200c583,0 1167,0 1750,0 248,0 450,202 450,450 0,248 -202,450 -450,450l-700 0c-231,0 -422,-176 -447,-400l-201 0c26,335 307,600 648,600l700 0c358,0 650,-292 650,-650 0,-174 -69,-333 -182,-450l582 0 0 -200 -1752 0c-247,-1 -448,-203 -448,-450 0,-248 202,-450 450,-450l700 0c231,0 422,176 447,400z"/>
</svg>