<?xml version="1.0" encoding="UTF-8"?>
<!DOCTYPE svg PUBLIC "-//W3C//DTD SVG 1.1//EN" "http://www.w3.org/Graphics/SVG/1.1/DTD/svg11.dtd">
<svg xmlns="http://www.w3.org/2000/svg" xml:space="preserve" width="580px" height="580px" shape-rendering="geometricPrecision" text-rendering="geometricPrecision" image-rendering="optimizeQuality" fill-rule="nonzero" clip-rule="nonzero" viewBox="0 0 5800 5800" xmlns:xlink="http://www.w3.org/1999/xlink">
	<title>font_style_superscript icon</title>
	<desc>font_style_superscript icon from the IconExperience.com I-Collection. Copyright by INCORS GmbH (www.incors.com).</desc>
		<path id="curve28"  d="M2900 300c1436,0 2600,1164 2600,2600 0,1436 -1164,2600 -2600,2600 -1436,0 -2600,-1164 -2600,-2600 0,-1436 1164,-2600 2600,-2600zm429 3329l142 142 429 -430 0 1159 200 0 0 -1159 429 430 142 -142 -671 -670 -671 670zm171 -1779l200 0c0,-38 20,-73 52,-100 37,-31 89,-50 148,-50l200 0c85,0 200,51 200,150 0,76 -88,123 -149,146l-373 144c-145,55 -278,164 -278,332l0 228 1000 0 0 -200 -800 0 0 -28c0,-76 89,-123 149,-146l373 -144c145,-55 278,-164 278,-332 0,-212 -202,-350 -400,-350l-200 0c-107,0 -204,37 -276,97 -76,64 -124,153 -124,253zm-2114 250l-252 0 959 1243 -893 1157 252 0 767 -994 768 994 252 0 -894 -1157 960 -1243 -252 0 -834 1080 -833 -1080z"/>
</svg>