<?xml version="1.0" encoding="UTF-8"?>
<!DOCTYPE svg PUBLIC "-//W3C//DTD SVG 1.1//EN" "http://www.w3.org/Graphics/SVG/1.1/DTD/svg11.dtd">
<svg xmlns="http://www.w3.org/2000/svg" xml:space="preserve" width="580px" height="580px" shape-rendering="geometricPrecision" text-rendering="geometricPrecision" image-rendering="optimizeQuality" fill-rule="nonzero" clip-rule="nonzero" viewBox="0 0 5800 5800" xmlns:xlink="http://www.w3.org/1999/xlink">
	<title>font_style_strikethrough icon</title>
	<desc>font_style_strikethrough icon from the IconExperience.com I-Collection. Copyright by INCORS GmbH (www.incors.com).</desc>
		<path id="curve28" d="M1700 4000c0,385 315,700 700,700l1000 0c386,0 699,-314 699,-700 0,-385 -311,-698 -695,-700l-2304 0 0 -200 735 0c-25,-20 -48,-41 -71,-64 -572,-572 -152,-1536 636,-1536l1000 0c496,0 900,404 900,900l-200 0c0,-385 -315,-700 -700,-700l-1000 0c-612,0 -940,749 -495,1195 127,126 302,205 495,205l2300 0 0 200 -735 0c212,172 333,427 333,700 0,497 -401,900 -898,900l-1000 0c-496,0 -900,-404 -900,-900l200 0z"/>
</svg>