<?xml version="1.0" encoding="UTF-8"?>
<!DOCTYPE svg PUBLIC "-//W3C//DTD SVG 1.1//EN" "http://www.w3.org/Graphics/SVG/1.1/DTD/svg11.dtd">
<svg xmlns="http://www.w3.org/2000/svg" xml:space="preserve" width="580px" height="580px" shape-rendering="geometricPrecision" text-rendering="geometricPrecision" image-rendering="optimizeQuality" fill-rule="nonzero" clip-rule="nonzero" viewBox="0 0 5800 5800" xmlns:xlink="http://www.w3.org/1999/xlink">
	<title>font icon</title>
	<desc>font icon from the IconExperience.com I-Collection. Copyright by INCORS GmbH (www.incors.com).</desc>
		<path id="curve28"  d="M2900 300c1436,0 2600,1164 2600,2600 0,1436 -1164,2600 -2600,2600 -1436,0 -2600,-1164 -2600,-2600 0,-1436 1164,-2600 2600,-2600zm-454 4200l-246 0 0 200 700 0 0 -200 -218 0 318 -500 1100 0 0 500 -200 0 0 200 600 0 0 -200 -200 0 0 -2200 -454 0 -1400 2200zm1654 -700l-973 0 827 -1300 146 0 0 1300zm-3000 -400l200 0 0 -300c0,-84 4,-144 14,-200l1372 0c10,56 14,116 14,200l0 300 200 0 0 -300c0,-218 -31,-331 -106,-534l-499 -1396c-12,-41 -50,-70 -95,-70l-400 0c-41,0 -80,26 -94,66l-502 1405c-77,215 -104,292 -104,529l0 300zm1529 -700l-1258 0c6,-19 14,-40 21,-62l478 -1338 260 0 476 1334c8,22 16,44 23,66z"/>
</svg>