<?xml version="1.0" encoding="UTF-8"?>
<!DOCTYPE svg PUBLIC "-//W3C//DTD SVG 1.1//EN" "http://www.w3.org/Graphics/SVG/1.1/DTD/svg11.dtd">
<svg xmlns="http://www.w3.org/2000/svg" xml:space="preserve" width="580px" height="580px" shape-rendering="geometricPrecision" text-rendering="geometricPrecision" image-rendering="optimizeQuality" fill-rule="nonzero" clip-rule="nonzero" viewBox="0 0 5800 5800" xmlns:xlink="http://www.w3.org/1999/xlink">
	<title>font_style_superscript icon</title>
	<desc>font_style_superscript icon from the IconExperience.com I-Collection. Copyright by INCORS GmbH (www.incors.com).</desc>
		<path id="curve30"  d="M1147,1700 2300,3194 3453,1700 3705,1700 2426,3357 3772,5100 3520,5100 2300,3520 1080,5100 828,5100 2174,3357 895,1700z"/>
	<path id="curve29"  d="M4100 1700c0,-220 180,-400 400,-400l400 0c220,0 400,180 400,400 0,178 -115,332 -285,383l-573 172c-43,13 -79,38 -103,71 -25,33 -39,75 -39,120l0 54 1000 0 0 200 -1200 0 0 -254c0,-89 28,-171 78,-239 51,-67 122,-118 207,-144l573 -171c87,-26 142,-101 142,-192 0,-110 -90,-200 -200,-200l-400 0c-110,0 -200,90 -200,200l-200 0z"/>
	<path id="curve28"  d="M4029,3729 4700,3059 5371,3729 5229,3871 4800,3441 4800,5100 4600,5100 4600,3441 4171,3871z"/>
</svg>