<?xml version="1.0" encoding="UTF-8"?>
<!DOCTYPE svg PUBLIC "-//W3C//DTD SVG 1.1//EN" "http://www.w3.org/Graphics/SVG/1.1/DTD/svg11.dtd">
<svg xmlns="http://www.w3.org/2000/svg" xml:space="preserve" width="580px" height="580px" shape-rendering="geometricPrecision" text-rendering="geometricPrecision" image-rendering="optimizeQuality" fill-rule="nonzero" clip-rule="nonzero" viewBox="0 0 5800 5800" xmlns:xlink="http://www.w3.org/1999/xlink">
	<title>font_style_bold icon</title>
	<desc>font_style_bold icon from the IconExperience.com I-Collection. Copyright by INCORS GmbH (www.incors.com).</desc>
		<path id="curve28" d="M1700 1700l1100 0c468,0 893,191 1201,499 320,319 499,749 499,1201 0,937 -763,1700 -1700,1700 -500,0 -1000,0 -1500,0l0 -3200 0 -1600 400 0 0 1400zm1100 400l-1100 0 0 2600 1100 0c716,0 1300,-584 1300,-1300 0,-358 -146,-683 -382,-918 -235,-236 -560,-382 -918,-382z"/>
</svg>