<?xml version="1.0" encoding="UTF-8"?>
<!DOCTYPE svg PUBLIC "-//W3C//DTD SVG 1.1//EN" "http://www.w3.org/Graphics/SVG/1.1/DTD/svg11.dtd">
<svg xmlns="http://www.w3.org/2000/svg" xml:space="preserve" width="580px" height="580px" shape-rendering="geometricPrecision" text-rendering="geometricPrecision" image-rendering="optimizeQuality" fill-rule="nonzero" clip-rule="nonzero" viewBox="0 0 5800 5800" xmlns:xlink="http://www.w3.org/1999/xlink">
	<title>font icon</title>
	<desc>font icon from the IconExperience.com I-Collection. Copyright by INCORS GmbH (www.incors.com).</desc>
		<path id="curve28"  d="M3350 4165l1350 0 0 -1865 -166 0 -1184 1865zm-2650 -465l0 -459c0,-156 11,-276 35,-395 24,-117 60,-230 109,-374l658 -1904c14,-42 53,-68 94,-68l629 0c47,0 87,33 97,77l610 1897c16,48 30,90 43,131 73,215 125,369 125,636l0 459 -200 0 0 -459c0,-135 -16,-239 -42,-341l-1930 0c-19,99 -28,203 -28,341l0 459 -200 0zm2097 -1000l-11 -32c-14,-42 -29,-86 -44,-133l-590 -1835 -485 0 -634 1837c-21,59 -39,113 -54,163l1818 0zm1903 1665l-1477 0 -466 735 343 0 0 200 -980 0 0 -200 400 0 1905 -3000c158,0 317,0 475,0l0 3000 400 0 0 200 -994 0 0 -200 394 0 0 -735z"/>
</svg>