<?xml version="1.0" encoding="UTF-8"?>
<!DOCTYPE svg PUBLIC "-//W3C//DTD SVG 1.1//EN" "http://www.w3.org/Graphics/SVG/1.1/DTD/svg11.dtd">
<svg xmlns="http://www.w3.org/2000/svg" xml:space="preserve" width="580px" height="580px" shape-rendering="geometricPrecision" text-rendering="geometricPrecision" image-rendering="optimizeQuality" fill-rule="nonzero" clip-rule="nonzero" viewBox="0 0 5800 5800" xmlns:xlink="http://www.w3.org/1999/xlink">
	<title>font_style_underline icon</title>
	<desc>font_style_underline icon from the IconExperience.com I-Collection. Copyright by INCORS GmbH (www.incors.com).</desc>
		<path id="curve28" d="M1300 5300l3200 0 0 200 -3200 0 0 -200zm3200 -3600l0 1800c0,441 -180,841 -469,1131 -290,289 -690,469 -1131,469 -426,0 -830,-169 -1131,-469 -289,-290 -469,-690 -469,-1131l0 -1800 200 0 0 1800c0,385 157,735 411,989 263,263 617,411 989,411 385,0 735,-157 989,-411 254,-254 411,-604 411,-989l0 -1800 200 0z"/>
</svg>