<?xml version="1.0" encoding="UTF-8"?>
<!DOCTYPE svg PUBLIC "-//W3C//DTD SVG 1.1//EN" "http://www.w3.org/Graphics/SVG/1.1/DTD/svg11.dtd">
<svg xmlns="http://www.w3.org/2000/svg" xml:space="preserve" width="580px" height="580px" shape-rendering="geometricPrecision" text-rendering="geometricPrecision" image-rendering="optimizeQuality" fill-rule="nonzero" clip-rule="nonzero" viewBox="0 0 5800 5800" xmlns:xlink="http://www.w3.org/1999/xlink">
	<title>football icon</title>
	<desc>football icon from the IconExperience.com I-Collection. Copyright by INCORS GmbH (www.incors.com).</desc>
		<path id="curve28"  d="M3571 1829l-142 142 130 129 -263 262 -125 -125 -142 141 126 126 -259 258 -120 -120 -142 141 121 121 -257 257 -132 -132 -141 142 131 131 -258 259 -132 -132 -141 142 131 131 -127 127 142 142 127 -127 127 127 141 -142 -127 -127 259 -258 127 127 141 -142 -127 -127 257 -257 138 138 142 -141 -138 -138 258 -259 133 133 142 -141 -133 -133 262 -263 129 130 142 -142 -130 -129 130 -129 -142 -142 -129 130 -129 -130zm-1393 3649c-664,74 -1199,-61 -1354,-216l-286 -286c-153,-153 -287,-688 -215,-1353l1855 1855zm-1696 -2596c163,-497 448,-1018 915,-1485 467,-467 988,-752 1486,-915l2437 2427c-161,500 -448,1025 -917,1494 -419,419 -922,731 -1486,914l-2435 -2435zm3141 -2559c665,-72 1200,62 1353,215l286 286c153,153 287,688 215,1353l-1854 -1854z"/>
</svg>