<?xml version="1.0" encoding="UTF-8"?>
<!DOCTYPE svg PUBLIC "-//W3C//DTD SVG 1.1//EN" "http://www.w3.org/Graphics/SVG/1.1/DTD/svg11.dtd">
<svg xmlns="http://www.w3.org/2000/svg" xml:space="preserve" width="580px" height="580px" shape-rendering="geometricPrecision" text-rendering="geometricPrecision" image-rendering="optimizeQuality" fill-rule="nonzero" clip-rule="nonzero" viewBox="0 0 5800 5800" xmlns:xlink="http://www.w3.org/1999/xlink">
	<title>football icon</title>
	<desc>football icon from the IconExperience.com I-Collection. Copyright by INCORS GmbH (www.incors.com).</desc>
		<path id="curve28" d="M3571 1829l129 130 129 -130 142 142 -130 129 130 129 -142 142 -129 -130 -262 263 133 133 -142 141 -133 -133 -258 259 138 138 -142 141 -138 -138 -257 257 127 127 -141 142 -127 -127 -259 258 127 127 -141 142 -127 -127 -127 127 -142 -142 127 -127 -131 -131 141 -142 132 132 258 -259 -131 -131 141 -142 132 132 257 -257 -121 -121 142 -141 120 120 259 -258 -126 -126 142 -141 125 125 263 -262 -130 -129 142 -142zm-2606 3292c103,103 440,191 894,179l-1361 -1361c-12,453 77,791 181,896l286 286zm1160 162c26,-2 53,-5 80,-9 142,-18 290,-46 442,-85l-2036 -2036c-2,10 -5,21 -8,32 -42,170 -71,334 -87,489l1609 1609zm741 -159c529,-174 1002,-469 1396,-862 438,-439 708,-929 862,-1396l-2190 -2190c-467,154 -957,424 -1396,862 -438,439 -708,929 -862,1396l2190 2190zm2323 -2477c44,-171 76,-346 95,-521l-1610 -1610c-175,19 -350,51 -521,95l2036 2036zm113 -786c12,-453 -77,-791 -181,-896l-286 -286c-105,-104 -443,-193 -896,-181l1363 1363zm-3072 3611c-687,87 -1247,-51 -1406,-210l-286 -286c-189,-189 -349,-960 -129,-1840 143,-570 441,-1192 988,-1739 547,-547 1169,-845 1739,-988 880,-220 1651,-60 1840,129l286 286c189,189 349,960 129,1840 -143,570 -441,1192 -988,1739 -589,589 -1347,965 -2173,1069z"/>
</svg>