<?xml version="1.0" encoding="UTF-8"?>
<!DOCTYPE svg PUBLIC "-//W3C//DTD SVG 1.1//EN" "http://www.w3.org/Graphics/SVG/1.1/DTD/svg11.dtd">
<svg xmlns="http://www.w3.org/2000/svg" xml:space="preserve" width="580px" height="580px" shape-rendering="geometricPrecision" text-rendering="geometricPrecision" image-rendering="optimizeQuality" fill-rule="nonzero" clip-rule="nonzero" viewBox="0 0 5800 5800" xmlns:xlink="http://www.w3.org/1999/xlink">
	<title>fork_lift icon</title>
	<desc>fork_lift icon from the IconExperience.com I-Collection. Copyright by INCORS GmbH (www.incors.com).</desc>
	<path id="curve0"  d="M5500 5300l-1100 0c-165,0 -300,-135 -300,-300l0 -4300 200 0 0 4300c0,55 45,100 100,100l1100 0 0 200zm-3149 -200l-858 0c5,-33 7,-66 7,-100 0,-387 -313,-700 -700,-700 -190,0 -367,75 -500,210l0 -710c0,-386 314,-700 700,-700l500 0 0 -1600 1308 0c338,0 595,240 685,555l407 1431 0 748c-171,-211 -427,-334 -700,-334 -497,0 -900,403 -900,900 0,105 18,206 51,300zm-451 -1751l467 351 1333 0 -1 -200 -396 -1391c-65,-230 -246,-412 -495,-412l-908 4 0 1648zm-1100 1151c276,0 500,224 500,500 0,276 -224,500 -500,500 -276,0 -500,-224 -500,-500 0,-276 224,-500 500,-500zm2400 -400c387,0 700,313 700,700 0,387 -313,700 -700,700 -387,0 -700,-313 -700,-700 0,-387 313,-700 700,-700z"/>
</svg>