<?xml version="1.0" encoding="UTF-8"?>
<!DOCTYPE svg PUBLIC "-//W3C//DTD SVG 1.1//EN" "http://www.w3.org/Graphics/SVG/1.1/DTD/svg11.dtd">
<svg xmlns="http://www.w3.org/2000/svg" xml:space="preserve" width="580px" height="580px" shape-rendering="geometricPrecision" text-rendering="geometricPrecision" image-rendering="optimizeQuality" fill-rule="nonzero" clip-rule="nonzero" viewBox="0 0 5800 5800" xmlns:xlink="http://www.w3.org/1999/xlink">
	<title>fork_lift icon</title>
	<desc>fork_lift icon from the IconExperience.com I-Collection. Copyright by INCORS GmbH (www.incors.com).</desc>
	<path id="curve0"  d="M3300 3700l-933 0 -467 -351 0 -1249 200 0 0 1150 333 250 867 0 0 200zm-1807 1200l813 0c7,69 23,136 45,200l-858 0c9,-66 9,-134 0,-200zm-1193 -390l0 -710c0,-386 314,-700 700,-700l500 0 0 -1600 1308 0c338,0 595,240 685,555l407 1430 0 749c-57,-70 -125,-132 -200,-182l0 -537 -400 -1405c-65,-230 -243,-410 -492,-410l-1108 0 0 1600 -700 0c-275,0 -500,225 -500,500l0 567c-75,36 -141,84 -200,143zm500 -10c276,0 500,224 500,500 0,276 -224,500 -500,500 -276,0 -500,-224 -500,-500 0,-276 224,-500 500,-500zm0 200c-166,0 -300,134 -300,300 0,166 134,300 300,300 166,0 300,-134 300,-300 0,-166 -134,-300 -300,-300zm2400 -600c387,0 700,313 700,700 0,387 -313,700 -700,700 -387,0 -700,-313 -700,-700 0,-387 313,-700 700,-700zm0 200c-276,0 -500,224 -500,500 0,276 224,500 500,500 276,0 500,-224 500,-500 0,-276 -224,-500 -500,-500zm2300 1000l-1100 0c-165,0 -300,-135 -300,-300l0 -4300 200 0 0 4300c0,55 45,100 100,100l1100 0 0 200z"/>
</svg>