<?xml version="1.0" encoding="UTF-8"?>
<!DOCTYPE svg PUBLIC "-//W3C//DTD SVG 1.1//EN" "http://www.w3.org/Graphics/SVG/1.1/DTD/svg11.dtd">
<svg xmlns="http://www.w3.org/2000/svg" xml:space="preserve" width="580px" height="580px" shape-rendering="geometricPrecision" text-rendering="geometricPrecision" image-rendering="optimizeQuality" fill-rule="nonzero" clip-rule="nonzero" viewBox="0 0 5800 5800" xmlns:xlink="http://www.w3.org/1999/xlink">
	<title>form icon</title>
	<desc>form icon from the IconExperience.com I-Collection. Copyright by INCORS GmbH (www.incors.com).</desc>
	<path id="curve0"  d="M1300 700l0 200 3200 0 0 -200 -3200 0zm0 3200l0 200 3200 0 0 -200 -3200 0zm0 400l0 800 3200 0 0 -800 -3200 0zm3000 200l0 400 -2800 0 0 -400 2800 0zm-3000 -1000l0 200 1400 0 0 -200 -1400 0zm0 -400l0 200 1400 0 0 -200 -1400 0zm1600 0l0 600 1600 0c0,-200 0,-400 0,-600l-1600 0zm1400 200l0 200 -1200 0 0 -200 1200 0zm-1400 -2000c0,200 0,400 0,600l1600 0 0 -600 -1600 0zm1400 200l0 200 -1200 0 0 -200 1200 0zm-3000 600l0 800 3200 0 0 -800 -3200 0zm3000 200l0 400 -2800 0 0 -400 2800 0zm-3000 -600l0 200 1400 0 0 -200 -1400 0zm0 -400l0 200 1400 0 0 -200 -1400 0zm3600 -1100l0 5400 -4000 0 0 -5400 4000 0z"/>
</svg>