<?xml version="1.0" encoding="UTF-8"?>
<!DOCTYPE svg PUBLIC "-//W3C//DTD SVG 1.1//EN" "http://www.w3.org/Graphics/SVG/1.1/DTD/svg11.dtd">
<svg xmlns="http://www.w3.org/2000/svg" xml:space="preserve" width="580px" height="580px" shape-rendering="geometricPrecision" text-rendering="geometricPrecision" image-rendering="optimizeQuality" fill-rule="nonzero" clip-rule="nonzero" viewBox="0 0 5800 5800" xmlns:xlink="http://www.w3.org/1999/xlink">
	<title>formula icon</title>
	<desc>formula icon from the IconExperience.com I-Collection. Copyright by INCORS GmbH (www.incors.com).</desc>
		<path id="curve29"  d="M5100 2300l-356 0 -824 916 441 884 339 0 0 200 -400 0c-36,0 -72,-21 -89,-55l-435 -870 -802 892c-5,5 -74,33 -74,33l-400 0 0 -200 356 0 824 -916 -441 -884 -339 0 0 -200 400 0c43,0 79,27 93,64l431 861 798 -888c18,-22 47,-37 78,-37l400 0 0 200z"/>
	<path id="curve28"  d="M300 2900l400 0c48,0 87,33 97,78l500 1499 1108 -3507c13,-43 53,-70 95,-70l3000 0 0 200 -2927 0 -1178 3730c-9,29 -32,54 -64,65 -52,17 -108,-12 -126,-64l-577 -1731 -328 0 0 -200z"/>
</svg>