<?xml version="1.0" encoding="utf-8"?>
<!-- Generator: Adobe Illustrator 20.0.0, SVG Export Plug-In . SVG Version: 6.00 Build 0)  -->
<svg version="1.1" id="form_x5F_in_x5F_dialog_x5F_gi"
	 xmlns="http://www.w3.org/2000/svg" xmlns:xlink="http://www.w3.org/1999/xlink" x="0px" y="0px" width="580px" height="580px"
	 viewBox="0 0 580 580" style="enable-background:new 0 0 580 580;" xml:space="preserve">
<path id="curve28_70_" d="M490,201.3v104.3H285V201.3H490z M245,201.3v247.3H90V201.3H245z M490,344.3v104.3H285V344.3H490z
	 M470,221.3H305v64.3h165V221.3z M225,222.4H110v207.3h115V222.4z M470,364.3H305v64.3h165V364.3z M60,70h460c16.5,0,30,13.5,30,30
	v410H30V100C30,83.5,43.5,70,60,70z M50,139h480v-39c0-5.5-4.5-10-10-10H60c-5.5,0-10,4.5-10,10V139z M530,159H50v331h480V159z"/>
</svg>
