<?xml version="1.0" encoding="UTF-8"?>
<!DOCTYPE svg PUBLIC "-//W3C//DTD SVG 1.1//EN" "http://www.w3.org/Graphics/SVG/1.1/DTD/svg11.dtd">
<svg xmlns="http://www.w3.org/2000/svg" xml:space="preserve" width="580px" height="580px" shape-rendering="geometricPrecision" text-rendering="geometricPrecision" image-rendering="optimizeQuality" fill-rule="nonzero" clip-rule="nonzero" viewBox="0 0 5800 5800" xmlns:xlink="http://www.w3.org/1999/xlink">
	<title>formula icon</title>
	<desc>formula icon from the IconExperience.com I-Collection. Copyright by INCORS GmbH (www.incors.com).</desc>
		<path id="curve28"  d="M2900 300c1436,0 2600,1164 2600,2600 0,1436 -1164,2600 -2600,2600 -1436,0 -2600,-1164 -2600,-2600 0,-1436 1164,-2600 2600,-2600zm1500 2200l0 -200 -300 0c-31,0 -59,14 -77,37l-601 643 -330 -619c-15,-36 -51,-61 -92,-61l-300 0 0 200 240 0 339 634 -622 666 -257 0 0 200 300 0c27,0 53,-11 73,-32l605 -648 334 627c18,33 52,53 88,53l300 0 0 -200 -240 0 -339 -634 622 -666 257 0zm-3700 400l0 200 232 0 475 1236c20,51 77,77 129,57 29,-11 50,-36 59,-64l878 -2829 2227 0 0 -200 -2300 0c-43,0 -82,28 -95,71l-815 2625 -394 -1022c-11,-43 -50,-74 -96,-74l-300 0z"/>
</svg>