<?xml version="1.0" encoding="UTF-8"?>
<!DOCTYPE svg PUBLIC "-//W3C//DTD SVG 1.1//EN" "http://www.w3.org/Graphics/SVG/1.1/DTD/svg11.dtd">
<svg xmlns="http://www.w3.org/2000/svg" xml:space="preserve" width="580px" height="580px" shape-rendering="geometricPrecision" text-rendering="geometricPrecision" image-rendering="optimizeQuality" fill-rule="nonzero" clip-rule="nonzero" viewBox="0 0 5800 5800" xmlns:xlink="http://www.w3.org/1999/xlink">
	<title>form icon</title>
	<desc>form icon from the IconExperience.com I-Collection. Copyright by INCORS GmbH (www.incors.com).</desc>
	<path id="curve0"  d="M1300 700l3200 0 0 200 -3200 0 0 -200zm3600 -500l0 5400 -4000 0 0 -5400 4000 0zm-200 200l-3600 0 0 5000 3600 0 0 -5000zm-3400 900l1400 0 0 200 -1400 0 0 -200zm0 400l1400 0 0 200 -1400 0 0 -200zm3200 400l0 700 0 100 -3200 0 0 -800 3200 0zm-200 200l-2800 0 0 400 2800 0 0 -400zm200 -1000c0,200 0,400 0,600l-1600 0 0 -600 1600 0zm-200 200l-1200 0 0 200 1200 0 0 -200zm-1300 1600l1500 0c0,200 0,400 0,600l-1500 0 -100 0 0 -100 0 -400 0 -100 100 0zm1300 200l-1200 0 0 200 1200 0 0 -200zm-3000 -200l1400 0 0 200 -1400 0 0 -200zm0 400l1400 0 0 200 -1400 0 0 -200zm3200 800l0 800 -3200 0c0,-267 0,-533 0,-800l3200 0zm-200 200l-2800 0 0 400 2800 0 0 -400zm-3000 -600l3200 0 0 200 -3200 0 0 -200z"/>
</svg>