<?xml version="1.0" encoding="UTF-8"?>
<!DOCTYPE svg PUBLIC "-//W3C//DTD SVG 1.1//EN" "http://www.w3.org/Graphics/SVG/1.1/DTD/svg11.dtd">
<svg xmlns="http://www.w3.org/2000/svg" xml:space="preserve" width="580px" height="580px" shape-rendering="geometricPrecision" text-rendering="geometricPrecision" image-rendering="optimizeQuality" fill-rule="nonzero" clip-rule="nonzero" viewBox="0 0 5800 5800" xmlns:xlink="http://www.w3.org/1999/xlink">
	<title>fortress_tower icon</title>
	<desc>fortress_tower icon from the IconExperience.com I-Collection. Copyright by INCORS GmbH (www.incors.com).</desc>
		<path id="curve28"  d="M1500 300l0 600 200 0 0 -600 1000 0 0 600 400 0 0 -600 1000 0 0 600 200 0 0 -600 600 0 0 1641 -400 400 0 3159 -900 0 0 -800c0,-548 -136,-746 -674,-890l-26 -7 -26 7c-538,144 -674,342 -674,890l0 800 -900 0 0 -100 0 -3059 -400 -400 0 -1641 600 0z"/>
</svg>