<?xml version="1.0" encoding="UTF-8"?>
<!DOCTYPE svg PUBLIC "-//W3C//DTD SVG 1.1//EN" "http://www.w3.org/Graphics/SVG/1.1/DTD/svg11.dtd">
<svg xmlns="http://www.w3.org/2000/svg" xml:space="preserve" width="580px" height="580px" shape-rendering="geometricPrecision" text-rendering="geometricPrecision" image-rendering="optimizeQuality" fill-rule="nonzero" clip-rule="nonzero" viewBox="0 0 5800 5800" xmlns:xlink="http://www.w3.org/1999/xlink">
	<title>fortress_tower icon</title>
	<desc>fortress_tower icon from the IconExperience.com I-Collection. Copyright by INCORS GmbH (www.incors.com).</desc>
		<path id="curve28"  d="M1500 300l0 600 200 0 0 -600c333,0 667,0 1000,0l0 600 400 0 0 -600c333,0 667,0 1000,0l0 600 200 0 0 -600 600 0 0 1641 -400 400 0 3159c-1067,0 -2133,0 -3200,0l0 -3159 -400 -400 0 -1641c200,0 400,0 600,0zm1900 5000l0 -600c0,-222 -19,-370 -90,-469 -69,-96 -195,-161 -410,-221 -215,60 -341,125 -410,221 -71,99 -90,247 -90,469l0 600 1000 0zm-2100 -4800l-200 0 0 1359 400 400 0 3041 700 0 0 -600c0,-263 27,-444 128,-585 131,-183 364,-256 572,-312 208,56 441,129 572,312 101,141 128,322 128,585l0 600 700 0 0 -3041 400 -400 0 -1359 -200 0 0 600 -600 0 0 -600 -600 0 0 600 -800 0 0 -600 -600 0 0 600c-200,0 -400,0 -600,0l0 -600z"/>
</svg>