<?xml version="1.0" encoding="UTF-8"?>
<!DOCTYPE svg PUBLIC "-//W3C//DTD SVG 1.1//EN" "http://www.w3.org/Graphics/SVG/1.1/DTD/svg11.dtd">
<svg xmlns="http://www.w3.org/2000/svg" xml:space="preserve" width="580px" height="580px" shape-rendering="geometricPrecision" text-rendering="geometricPrecision" image-rendering="optimizeQuality" fill-rule="nonzero" clip-rule="nonzero" viewBox="0 0 5800 5800" xmlns:xlink="http://www.w3.org/1999/xlink">
	<title>fountain_pen icon</title>
	<desc>fountain_pen icon from the IconExperience.com I-Collection. Copyright by INCORS GmbH (www.incors.com).</desc>
	<path id="curve0" d="M981 4552c75,-74 196,-74 270,0 74,74 74,195 0,270 -47,47 -115,66 -179,50l-162 162 15 -6c171,-68 353,-100 534,-96 10,-222 102,-433 260,-591l122 -122 -263 -263 -122 122c-158,158 -369,250 -591,260 4,181 -28,363 -96,534 -5,12 -10,24 -15,35l177 -176c-16,-64 3,-132 50,-179zm1001 -191l-122 122c-124,124 -196,288 -202,463 -4,106 -92,189 -198,186 -320,-9 -624,112 -851,339l-136 136c-95,-94 -189,-188 -283,-283l136 -136c227,-227 348,-531 339,-851 -3,-106 80,-194 186,-198 175,-6 339,-78 463,-202l122 -122c-103,-106 -108,-274 -12,-386 164,-191 322,-369 512,-574 564,-606 1160,-1186 1777,-1737 354,-315 701,-609 982,-824 114,-88 274,-77 376,24l414 414c101,102 112,262 24,376 -215,281 -509,628 -825,982 -550,617 -1131,1213 -1736,1777 -205,190 -383,348 -574,512 -113,97 -283,91 -388,-15l-4 -3zm155 -1429l734 734c585,-549 1145,-1127 1680,-1725l-689 -689c-598,534 -1176,1096 -1725,1680zm-136 147c-154,168 -288,320 -425,479 -30,35 -28,86 4,118l547 547c32,32 83,34 117,4 160,-137 312,-271 480,-425l-723 -723zm2682 -1288c254,-290 488,-569 668,-804 27,-35 23,-82 -8,-114l-413 -413c-32,-31 -79,-35 -114,-8 -235,180 -514,414 -804,668l671 671z"/>
</svg>