<?xml version="1.0" encoding="UTF-8"?>
<!DOCTYPE svg PUBLIC "-//W3C//DTD SVG 1.1//EN" "http://www.w3.org/Graphics/SVG/1.1/DTD/svg11.dtd">
<svg xmlns="http://www.w3.org/2000/svg" xml:space="preserve" width="580px" height="580px" shape-rendering="geometricPrecision" text-rendering="geometricPrecision" image-rendering="optimizeQuality" fill-rule="nonzero" clip-rule="nonzero" viewBox="0 0 5800 5800" xmlns:xlink="http://www.w3.org/1999/xlink">
	<title>fountain_pen icon</title>
	<desc>fountain_pen icon from the IconExperience.com I-Collection. Copyright by INCORS GmbH (www.incors.com).</desc>
	<path id="curve0"  d="M1982 4361l-122 122c-124,124 -196,288 -202,463 -4,106 -92,189 -198,186 -320,-9 -624,112 -851,339l-136 136 -103 -103 651 -652c75,43 169,30 230,-30 74,-75 74,-196 0,-270 -74,-74 -195,-74 -270,0 -60,61 -73,155 -30,230l-652 651 -109 -109 136 -136c227,-227 348,-531 339,-851 -3,-106 80,-194 186,-198 175,-6 339,-78 463,-202l122 -122c-103,-106 -108,-274 -12,-386 142,-165 278,-320 436,-491l1005 1005c-171,157 -326,294 -491,436 -113,97 -283,91 -388,-15l-4 -3zm14 -1570c546,-582 1122,-1141 1717,-1673l8 -7 971 971 -8 8c-531,595 -1090,1171 -1672,1717l-1016 -1016zm1875 -1812c298,-262 585,-502 824,-685 114,-88 274,-77 376,24l414 414c101,102 112,262 24,376 -183,239 -423,526 -685,824l-953 -953z"/>
</svg>