<?xml version="1.0" encoding="UTF-8"?>
<!DOCTYPE svg PUBLIC "-//W3C//DTD SVG 1.1//EN" "http://www.w3.org/Graphics/SVG/1.1/DTD/svg11.dtd">
<svg xmlns="http://www.w3.org/2000/svg" xml:space="preserve" width="580px" height="580px" shape-rendering="geometricPrecision" text-rendering="geometricPrecision" image-rendering="optimizeQuality" fill-rule="nonzero" clip-rule="nonzero" viewBox="0 0 5800 5800" xmlns:xlink="http://www.w3.org/1999/xlink">
	<title>fried_egg_bacon icon</title>
	<desc>fried_egg_bacon icon from the IconExperience.com I-Collection. Copyright by INCORS GmbH (www.incors.com).</desc>
		<path id="curve29" d="M3800 3900c0,331 -269,600 -600,600l0 -200c221,0 400,-179 400,-400l200 0zm756 -2140c553,296 944,822 944,1469 0,225 -52,459 -157,669 -98,195 -241,369 -430,499 -176,121 -324,279 -471,435 -317,339 -626,668 -1213,668 -447,0 -892,-237 -1218,-617 -289,-337 -486,-788 -509,-1286 71,-34 136,-74 198,-118 0,7 0,14 0,21 0,487 184,928 462,1253 289,337 679,547 1067,547 501,0 781,-298 1068,-605 154,-164 309,-330 504,-463 159,-109 281,-258 364,-424 90,-180 135,-382 135,-579 0,-544 -318,-990 -774,-1257 26,-68 36,-140 30,-212zm-1356 1140c552,0 1000,448 1000,1000 0,552 -448,1000 -1000,1000 -552,0 -1000,-448 -1000,-1000 0,-552 448,-1000 1000,-1000zm0 200c-442,0 -800,358 -800,800 0,442 358,800 800,800 442,0 800,-358 800,-800 0,-442 -358,-800 -800,-800z"/>
	<path id="curve28" d="M2597 1354c89,-43 132,-108 175,-174 57,-88 115,-176 254,-244 128,-63 272,-77 415,-92 44,-4 88,-8 134,-15 46,-6 62,-53 72,-80 14,-41 25,-71 69,-92l0 0c77,-36 126,-3 193,137l419 881c86,180 -29,385 -222,412 -45,6 -93,11 -141,16 -125,12 -251,24 -348,72 -88,43 -131,109 -174,174 -57,88 -115,177 -254,245 -122,60 -347,116 -571,172 -43,11 -533,134 -533,158 -96,47 -186,127 -280,210 -116,103 -237,210 -391,283 -149,71 -273,130 -391,136 -139,6 -249,-56 -334,-237l-431 -905c-36,-75 -7,-169 69,-205 18,-9 38,-13 57,-12 43,3 84,8 127,13 131,15 276,32 384,-20 97,-48 184,-139 270,-230 99,-104 198,-208 328,-272 124,-61 348,-117 572,-173 214,-53 428,-107 532,-158zm-1805 1714c156,0 332,4 475,-66 147,-72 254,-183 361,-295 83,-86 165,-171 249,-212 98,-48 310,-102 522,-156 233,-59 467,-118 600,-183 164,-80 230,-180 297,-281 36,-54 73,-109 140,-142 56,-27 141,-35 230,-44 131,-13 268,-26 405,-90l-172 -361c-78,35 -176,45 -270,54 -128,12 -250,24 -368,82 -164,80 -231,180 -298,281 -36,54 -72,109 -139,142 -98,47 -310,101 -522,155 -233,59 -467,118 -600,183 -146,72 -254,184 -361,295 -82,86 -164,171 -249,213 -57,28 -179,27 -294,27 -67,-1 -132,-1 -193,4l187 394zm-292 -1671l0 -1003c0,-82 67,-155 150,-155 7,0 61,8 57,14 37,21 73,43 109,66 112,71 235,148 355,147 109,-1 226,-47 344,-92 134,-51 268,-103 412,-104 137,-2 364,44 590,90 217,43 433,87 549,86 99,-1 166,-42 232,-83 91,-54 181,-109 335,-111 144,-2 279,47 414,96 38,14 77,27 127,43 45,15 80,-20 100,-41 31,-31 53,-53 102,-53 85,0 115,51 115,206l0 976c0,21 -2,41 -6,61l-194 -408 0 -232c-38,-1 -78,-8 -119,-19 -42,-88 -87,-199 -139,-279 -72,-111 -194,-175 -329,-150 -109,21 -186,92 -229,188 -187,21 -358,28 -537,116 -82,40 -144,86 -199,141 -63,-12 -130,-26 -197,-39 -234,-46 -468,-93 -619,-91 -166,1 -310,56 -454,110 -111,43 -223,85 -315,86 -62,0 -173,-53 -277,-103 -61,-29 -120,-58 -177,-80l0 438c141,67 297,145 457,143 165,-2 309,-56 453,-110 112,-43 224,-85 316,-86 88,-1 256,30 436,65 -117,35 -252,65 -346,88 -190,48 -436,102 -611,187 -146,72 -256,179 -367,295 -327,-2 -541,-27 -538,-403z"/>
</svg>