<?xml version="1.0" encoding="UTF-8"?>
<!DOCTYPE svg PUBLIC "-//W3C//DTD SVG 1.1//EN" "http://www.w3.org/Graphics/SVG/1.1/DTD/svg11.dtd">
<svg xmlns="http://www.w3.org/2000/svg" xml:space="preserve" width="580px" height="580px" shape-rendering="geometricPrecision" text-rendering="geometricPrecision" image-rendering="optimizeQuality" fill-rule="nonzero" clip-rule="nonzero" viewBox="0 0 5800 5800" xmlns:xlink="http://www.w3.org/1999/xlink">
	<title>fried_egg icon</title>
	<desc>fried_egg icon from the IconExperience.com I-Collection. Copyright by INCORS GmbH (www.incors.com).</desc>
		<path id="curve28" d="M3100 3100c0,442 -358,800 -800,800l0 -200c331,0 600,-269 600,-600l200 0zm-800 -1200c663,0 1200,537 1200,1200 0,663 -537,1200 -1200,1200 -663,0 -1200,-537 -1200,-1200 0,-663 537,-1200 1200,-1200zm0 200c-552,0 -1000,448 -1000,1000 0,552 448,1000 1000,1000 552,0 1000,-448 1000,-1000 0,-552 -448,-1000 -1000,-1000zm600 -1800c1277,0 2600,865 2600,2243 0,293 -68,595 -204,866 -126,252 -310,478 -554,645 -235,161 -431,370 -625,577 -413,440 -815,869 -1574,869 -579,0 -1155,-307 -1579,-801 -400,-467 -664,-1101 -664,-1799 0,-1575 1026,-2600 2600,-2600zm0 200c-1463,0 -2400,936 -2400,2400 0,648 245,1236 616,1669 386,451 907,731 1427,731 673,0 1046,-397 1429,-806 201,-214 404,-432 657,-605 215,-147 378,-346 489,-569 122,-242 182,-513 182,-777 0,-1265 -1234,-2043 -2400,-2043z"/>
</svg>