<?xml version="1.0" encoding="UTF-8"?>
<!DOCTYPE svg PUBLIC "-//W3C//DTD SVG 1.1//EN" "http://www.w3.org/Graphics/SVG/1.1/DTD/svg11.dtd">
<svg xmlns="http://www.w3.org/2000/svg" xml:space="preserve" width="580px" height="580px" shape-rendering="geometricPrecision" text-rendering="geometricPrecision" image-rendering="optimizeQuality" fill-rule="nonzero" clip-rule="nonzero" viewBox="0 0 5800 5800" xmlns:xlink="http://www.w3.org/1999/xlink">
	<title>fried_egg icon</title>
	<desc>fried_egg icon from the IconExperience.com I-Collection. Copyright by INCORS GmbH (www.incors.com).</desc>
		<path id="curve29"  d="M2900 300c919,0 1882,439 2344,1262 169,302 256,635 256,981 0,587 -267,1174 -758,1511 -451,309 -751,787 -1190,1111 -305,225 -628,335 -1009,335 -601,0 -1157,-326 -1548,-766 -447,-503 -695,-1161 -695,-1834 0,-640 176,-1277 599,-1770 506,-591 1239,-830 2001,-830zm-600 1500c-718,0 -1300,582 -1300,1300 0,718 582,1300 1300,1300 718,0 1300,-582 1300,-1300 0,-718 -582,-1300 -1300,-1300z"/>
	<path id="curve28"  d="M2300 2000c608,0 1100,492 1100,1100 0,608 -492,1100 -1100,1100 -608,0 -1100,-492 -1100,-1100 0,-608 492,-1100 1100,-1100zm800 1100l-200 0c0,331 -269,600 -600,600l0 200c442,0 800,-358 800,-800z"/>
</svg>