<?xml version="1.0" encoding="UTF-8"?>
<!DOCTYPE svg PUBLIC "-//W3C//DTD SVG 1.1//EN" "http://www.w3.org/Graphics/SVG/1.1/DTD/svg11.dtd">
<svg xmlns="http://www.w3.org/2000/svg" xml:space="preserve" width="580px" height="580px" shape-rendering="geometricPrecision" text-rendering="geometricPrecision" image-rendering="optimizeQuality" fill-rule="nonzero" clip-rule="nonzero" viewBox="0 0 5800 5800" xmlns:xlink="http://www.w3.org/1999/xlink">
	<title>fried_egg_bacon icon</title>
	<desc>fried_egg_bacon icon from the IconExperience.com I-Collection. Copyright by INCORS GmbH (www.incors.com).</desc>
		<path id="curve31"  d="M500 1397l0 -1003c0,-56 30,-108 80,-136 23,-13 50,-19 70,-19 54,0 125,54 166,80 112,71 235,148 355,147 109,-1 226,-47 344,-92 134,-51 268,-103 412,-104 137,-2 364,44 590,90 217,43 433,87 549,86 99,-1 166,-42 232,-83 91,-54 181,-109 335,-111 144,-2 279,47 414,96 94,34 150,80 227,2 31,-31 53,-53 102,-53 85,0 115,51 115,206l0 976c0,21 -2,41 -6,61l-194 -408 0 -232c-38,-1 -78,-8 -119,-19l-83 -173c-17,-36 -35,-73 -56,-106 -72,-111 -194,-175 -329,-150 -109,21 -186,92 -229,188 -187,21 -358,28 -537,116 -82,40 -144,86 -199,141 -63,-12 -130,-26 -197,-39 -234,-46 -468,-93 -619,-91 -291,3 -539,193 -769,196 -62,0 -173,-53 -277,-103 -61,-29 -120,-58 -177,-80l3 439c145,70 298,144 454,142 290,-3 538,-193 769,-196 88,-1 256,30 436,65 -117,35 -252,65 -346,88 -190,48 -436,102 -611,187 -146,72 -256,179 -367,295 -327,-2 -541,-27 -538,-403z"/>
	<path id="curve30"  d="M2597 1355c89,-44 132,-109 175,-175 178,-273 354,-305 669,-336 44,-4 88,-8 134,-15 83,-11 57,-132 141,-172 77,-36 126,-3 193,137l419 881c62,128 22,282 -96,363 -78,54 -176,56 -267,65 -247,24 -379,28 -522,246 -201,308 -481,331 -825,417 -418,104 -508,98 -813,368 -191,169 -519,407 -782,419 -139,6 -249,-56 -334,-237l-431 -905c-24,-52 -20,-111 13,-157 60,-85 152,-57 240,-47 131,15 276,32 384,-20 97,-48 184,-139 270,-230 99,-104 198,-208 328,-272 124,-61 348,-117 572,-173 214,-53 428,-106 532,-157zm-1800 1713c161,1 332,2 470,-66 260,-127 401,-405 610,-507 98,-48 310,-102 522,-156 378,-95 671,-123 897,-464 36,-54 73,-109 140,-142 153,-75 416,-32 635,-134l-172 -361c-187,85 -425,32 -638,136 -164,80 -231,180 -298,281 -141,212 -421,236 -661,297 -233,59 -467,118 -600,183 -259,127 -400,405 -610,508 -89,43 -364,21 -487,31l192 394z"/>
	<path id="curve29"  d="M4585 1776c119,66 230,143 331,229 356,306 584,730 584,1224 0,225 -52,459 -157,669 -98,195 -241,369 -430,499 -176,121 -324,279 -471,435 -317,339 -626,668 -1213,668 -447,0 -892,-237 -1218,-617 -289,-337 -486,-788 -509,-1286l0 0c167,-80 298,-192 435,-313 183,-162 208,-184 427,-245 79,-23 160,-43 240,-64 -303,196 -504,537 -504,925 0,608 492,1100 1100,1100 608,0 1100,-492 1100,-1100 0,-602 -483,-1090 -1083,-1100 21,-8 41,-17 60,-27 163,-79 223,-146 334,-314 101,-155 196,-140 374,-157 134,-14 245,-19 361,-99 134,-93 215,-251 211,-414l28 -13z"/>
	<path id="curve28"  d="M3800 3900l-200 0c0,221 -179,400 -400,400l0 200c331,0 600,-269 600,-600zm-600 -900c497,0 900,403 900,900 0,497 -403,900 -900,900 -497,0 -900,-403 -900,-900 0,-497 403,-900 900,-900z"/>
</svg>