<?xml version="1.0" encoding="UTF-8"?>
<!DOCTYPE svg PUBLIC "-//W3C//DTD SVG 1.1//EN" "http://www.w3.org/Graphics/SVG/1.1/DTD/svg11.dtd">
<svg xmlns="http://www.w3.org/2000/svg" xml:space="preserve" width="580px" height="580px" shape-rendering="geometricPrecision" text-rendering="geometricPrecision" image-rendering="optimizeQuality" fill-rule="nonzero" clip-rule="nonzero" viewBox="0 0 5800 5800" xmlns:xlink="http://www.w3.org/1999/xlink">
	<title>front icon</title>
	<desc>front icon from the IconExperience.com I-Collection. Copyright by INCORS GmbH (www.incors.com).</desc>
		<path id="curve28" d="M4700 1100l0 3600 -3600 0 0 -3600 3600 0zm-200 200l-3200 0 0 3200 3200 0 0 -3200zm-1200 -600l0 -400 2200 0 0 2200 -400 0 0 -200 200 0 0 -1800 -1800 0 0 200 -200 0zm-800 4400l0 400 -2200 0 0 -2200 400 0 0 200 -200 0 0 1800 1800 0 0 -200 200 0z"/>
</svg>