<?xml version="1.0" encoding="UTF-8"?>
<!DOCTYPE svg PUBLIC "-//W3C//DTD SVG 1.1//EN" "http://www.w3.org/Graphics/SVG/1.1/DTD/svg11.dtd">
<svg xmlns="http://www.w3.org/2000/svg" xml:space="preserve" width="580px" height="580px" shape-rendering="geometricPrecision" text-rendering="geometricPrecision" image-rendering="optimizeQuality" fill-rule="nonzero" clip-rule="nonzero" viewBox="0 0 5800 5800" xmlns:xlink="http://www.w3.org/1999/xlink">
	<title>fuel_dispenser icon</title>
	<desc>fuel_dispenser icon from the IconExperience.com I-Collection. Copyright by INCORS GmbH (www.incors.com).</desc>
		<path id="curve28"  d="M4900 1977l200 257 0 325 -141 -142c-41,-40 -59,-84 -59,-141l0 -299zm0 2723c-110,0 -200,-90 -200,-200l0 -800c0,-220 -180,-400 -400,-400l0 -2400c0,-331 -269,-600 -600,-600l-1600 0c-331,0 -600,269 -600,600l0 4400 -400 0 0 200c1200,0 2400,0 3600,0l0 -200 -400 0 0 -1800c110,0 200,90 200,200l0 800c0,220 180,400 400,400 220,0 400,-180 400,-400l0 -2300c0,-24 -9,-47 -23,-64l-698 -897 -158 122 279 359 0 556c0,108 41,206 117,283l283 282 0 1659c0,111 -89,200 -200,200zm-2600 -3200l0 200 1200 0 0 -200 -1200 0zm-300 -300l1800 0 0 1400 -1800 0 0 -1400z"/>
</svg>