<?xml version="1.0" encoding="UTF-8"?>
<!DOCTYPE svg PUBLIC "-//W3C//DTD SVG 1.1//EN" "http://www.w3.org/Graphics/SVG/1.1/DTD/svg11.dtd">
<svg xmlns="http://www.w3.org/2000/svg" xml:space="preserve" width="580px" height="580px" shape-rendering="geometricPrecision" text-rendering="geometricPrecision" image-rendering="optimizeQuality" fill-rule="nonzero" clip-rule="nonzero" viewBox="0 0 5800 5800" xmlns:xlink="http://www.w3.org/1999/xlink">
	<title>fuel_dispenser icon</title>
	<desc>fuel_dispenser icon from the IconExperience.com I-Collection. Copyright by INCORS GmbH (www.incors.com).</desc>
		<path id="curve28"  d="M4900 1977l0 299c0,57 18,101 59,141l141 142 0 -325 -200 -257zm-2800 -1677l1600 0c331,0 600,269 600,600l0 2400c220,0 400,180 400,400l0 800c0,110 90,200 200,200 111,0 200,-89 200,-200l0 -1659 -283 -282c-76,-77 -117,-175 -117,-283l0 -556 -279 -359 158 -122 698 897c14,17 23,40 23,64l0 2300c0,220 -180,400 -400,400 -220,0 -400,-180 -400,-400l0 -800c0,-110 -90,-200 -200,-200l0 1800 400 0 0 200c-1200,0 -2400,0 -3600,0l0 -200 400 0 0 -4400c0,-331 269,-600 600,-600zm1600 200l-1600 0c-220,0 -400,180 -400,400l0 4400 2400 0 0 -4400c0,-220 -180,-400 -400,-400zm200 600l0 1600 -2000 0 0 -1600 2000 0zm-200 200l-1600 0 0 1200 1600 0 0 -1200zm-1400 200l1200 0 0 200 -1200 0 0 -200z"/>
</svg>