<?xml version="1.0" encoding="utf-8"?>
<!-- Generator: Adobe Illustrator 24.0.1, SVG Export Plug-In . SVG Version: 6.00 Build 0)  -->
<svg version="1.1"
	 id="Ebene_1" text-rendering="geometricPrecision" shape-rendering="geometricPrecision" image-rendering="optimizeQuality"
	 xmlns="http://www.w3.org/2000/svg" xmlns:xlink="http://www.w3.org/1999/xlink" x="0px" y="0px" viewBox="0 0 580 580"
	 style="enable-background:new 0 0 580 580;" xml:space="preserve">
<style type="text/css">
	.st0{stroke:#000000;stroke-miterlimit:10;}
</style>
<title>funnel icon</title>
<desc>funnel icon from the IconExperience.com I-Collection. Copyright by INCORS GmbH (www.incors.com).</desc>
<path id="curve28" class="st0" d="M530,109.4v66.4c0,18.6-7.5,35.1-21.6,47.3L360.6,360.2c-6.7,6.2-10.6,13.4-10.6,22.7V470
	c0,32.8-50.4,72.3-81.7,78.9c-21.7,4.6-38.3-5-38.3-28.9V380.3c0-9.1-3.4-16.5-10.3-22.4l-148-134.8C57.9,210.6,50,194.5,50,175.8
	v-66.1c0.5-19.2,29.2-34.8,75.3-44.8C167.5,55.7,225.8,50,290,50s122.5,5.7,164.7,14.9C500.8,74.9,529.4,90.5,530,109.4z
	 M450.5,84.4C409.6,75.5,352.8,70,290,70s-119.6,5.5-160.5,14.4C92.7,92.4,70,101.6,70,110s22.7,17.6,59.5,25.6
	c40.9,8.9,97.7,14.4,160.5,14.4s119.6-5.5,160.5-14.4c36.8-8,59.5-17.2,59.5-25.6S487.3,92.4,450.5,84.4z"/>
</svg>
