<?xml version="1.0" encoding="UTF-8"?>
<!DOCTYPE svg PUBLIC "-//W3C//DTD SVG 1.1//EN" "http://www.w3.org/Graphics/SVG/1.1/DTD/svg11.dtd">
<svg xmlns="http://www.w3.org/2000/svg" xml:space="preserve" width="580px" height="580px" shape-rendering="geometricPrecision" text-rendering="geometricPrecision" image-rendering="optimizeQuality" fill-rule="nonzero" clip-rule="nonzero" viewBox="0 0 5800 5800" xmlns:xlink="http://www.w3.org/1999/xlink">
	<title>gallows icon</title>
	<desc>gallows icon from the IconExperience.com I-Collection. Copyright by INCORS GmbH (www.incors.com).</desc>
	<path id="curve0" d="M2100 1984c35,94 98,172 161,249 120,146 239,291 239,567 0,276 -224,500 -500,500 -276,0 -500,-224 -500,-500 0,-276 119,-421 239,-567 63,-77 126,-155 161,-249l0 -1084 -400 0 0 -600 2800 0 0 3756 1000 900 0 544c-867,0 -1733,0 -2600,0l0 -544 1000 -900 0 -2015 -1141 -1141 -459 0 0 1084zm2200 2340l0 976 800 0 0 -256 -800 -720zm-600 976l0 -976 -800 720 0 256 800 0zm0 -3541l0 -218 -641 -641 -218 0 859 859zm0 -500l0 -359 -359 0 359 359zm400 4041l0 -4800 -2400 0 0 200 2200 0 0 4600 200 0zm-1993 -2941c-37,-45 -74,-89 -107,-139 -33,50 -70,94 -107,139 -96,118 -193,237 -193,441 0,166 134,300 300,300 166,0 300,-134 300,-300 0,-204 -97,-323 -193,-441z"/>
</svg>