<?xml version="1.0" encoding="UTF-8"?>
<!DOCTYPE svg PUBLIC "-//W3C//DTD SVG 1.1//EN" "http://www.w3.org/Graphics/SVG/1.1/DTD/svg11.dtd">
<svg xmlns="http://www.w3.org/2000/svg" xml:space="preserve" width="580px" height="580px" shape-rendering="geometricPrecision" text-rendering="geometricPrecision" image-rendering="optimizeQuality" fill-rule="nonzero" clip-rule="nonzero" viewBox="0 0 5800 5800" xmlns:xlink="http://www.w3.org/1999/xlink">
	<title>gambling_chip icon</title>
	<desc>gambling_chip icon from the IconExperience.com I-Collection. Copyright by INCORS GmbH (www.incors.com).</desc>
		<path id="curve28"  d="M2900 300c1436,0 2600,1164 2600,2600 0,1436 -1164,2600 -2600,2600 -1436,0 -2600,-1164 -2600,-2600 0,-1436 1164,-2600 2600,-2600zm1881 1110l-560 407c-49,32 -61,100 -24,146 192,265 297,579 303,905 0,55 47,99 102,98l697 -13c1,-18 1,-35 1,-53 0,-563 -194,-1081 -519,-1490zm118 2819l-561 -407c-46,-38 -114,-27 -147,23 -192,263 -458,460 -766,567 -52,18 -80,75 -62,127l229 660c535,-161 998,-506 1307,-970zm-2493 193c-310,-101 -580,-291 -777,-550 -32,-49 -98,-61 -145,-26l-556 422c318,458 787,794 1326,944l216 -664c17,-53 -12,-109 -64,-126zm-1904 -1422l698 0c55,0 100,-45 100,-100 0,-332 99,-643 287,-915 32,-45 21,-108 -25,-139l-572 -399c-307,403 -490,907 -490,1453 0,33 1,67 2,100zm1562 -2350l214 658c15,58 77,90 133,68 311,-99 642,-102 954,-8 52,16 108,-13 124,-66l203 -668c-524,-183 -1108,-178 -1628,16zm236 1850l-200 0 0 800 200 0 0 -800zm200 400c0,171 96,400 300,400 204,0 300,-229 300,-400 0,-174 -97,-400 -300,-400 -201,0 -300,226 -300,400zm300 200c-71,0 -100,-149 -100,-200 0,-52 29,-200 100,-200 74,0 100,156 100,200 0,52 -28,200 -100,200zm1000 -200c0,-174 -97,-400 -300,-400 -201,0 -300,226 -300,400 0,174 98,400 300,400 201,0 300,-226 300,-400zm-200 0c0,-51 -29,-200 -100,-200 -71,0 -100,148 -100,200 0,51 29,200 100,200 72,0 100,-148 100,-200zm-700 -1400c-773,0 -1400,627 -1400,1400 0,773 627,1400 1400,1400 773,0 1400,-627 1400,-1400 0,-773 -627,-1400 -1400,-1400zm1200 1400c0,663 -537,1200 -1200,1200 -663,0 -1200,-537 -1200,-1200 0,-663 537,-1200 1200,-1200 663,0 1200,537 1200,1200z"/>
</svg>