<?xml version="1.0" encoding="UTF-8"?>
<!DOCTYPE svg PUBLIC "-//W3C//DTD SVG 1.1//EN" "http://www.w3.org/Graphics/SVG/1.1/DTD/svg11.dtd">
<svg xmlns="http://www.w3.org/2000/svg" xml:space="preserve" width="580px" height="580px" shape-rendering="geometricPrecision" text-rendering="geometricPrecision" image-rendering="optimizeQuality" fill-rule="nonzero" clip-rule="nonzero" viewBox="0 0 5800 5800" xmlns:xlink="http://www.w3.org/1999/xlink">
	<title>gambling_chips icon</title>
	<desc>gambling_chips icon from the IconExperience.com I-Collection. Copyright by INCORS GmbH (www.incors.com).</desc>
		<path id="curve28"  d="M4906 2888c315,285 494,687 494,1112 0,828 -672,1500 -1500,1500 -492,0 -948,-239 -1229,-640 195,-116 364,-271 498,-453l146 -105c159,218 222,264 479,347l-200 615c200,48 412,48 612,0l-200 -615c257,-83 320,-129 479,-347l80 58 442 321c106,-171 173,-369 189,-581l-646 0c0,-272 -22,-343 -183,-563l81 -59 442 -321c-37,-44 -78,-85 -120,-123 48,-46 94,-95 136,-146zm-3106 -988c828,0 1500,672 1500,1500 0,828 -672,1500 -1500,1500 -828,0 -1500,-672 -1500,-1500 0,-828 672,-1500 1500,-1500zm496 298l-200 614c-258,-83 -334,-83 -592,0l-200 -614c-190,79 -360,202 -494,359l523 380c-161,220 -183,291 -183,563l-646 0c16,212 83,410 189,581l522 -379c159,218 222,264 479,347l-31 95 -169 520c200,48 412,48 612,0l-200 -615c257,-83 320,-129 479,-347l522 379c106,-171 173,-369 189,-581l-646 0c0,-272 -22,-343 -183,-563l523 -380c-134,-157 -303,-280 -494,-359zm1304 -1898c828,0 1500,672 1500,1500 0,414 -168,789 -439,1061 -272,271 -647,439 -1061,439 -35,0 -69,-1 -103,-4 -4,-68 -13,-136 -25,-202 145,14 292,4 434,-30l-200 -615c257,-83 320,-129 479,-347l522 379c106,-171 173,-369 189,-581l-646 0c0,-272 -22,-343 -183,-563l81 -59 442 -321c-134,-157 -303,-280 -494,-359l-200 614c-258,-83 -334,-83 -592,0l-200 -614c-190,79 -360,202 -494,359l523 380c-161,220 -183,291 -183,563l-350 0c-153,-82 -321,-142 -498,-173 38,-799 698,-1427 1498,-1427zm-650 1848l65 -46c159,218 222,264 479,347l-109 336c-95,-245 -245,-462 -435,-637z"/>
</svg>