<?xml version="1.0" encoding="UTF-8"?>
<!DOCTYPE svg PUBLIC "-//W3C//DTD SVG 1.1//EN" "http://www.w3.org/Graphics/SVG/1.1/DTD/svg11.dtd">
<svg xmlns="http://www.w3.org/2000/svg" xml:space="preserve" width="580px" height="580px" shape-rendering="geometricPrecision" text-rendering="geometricPrecision" image-rendering="optimizeQuality" fill-rule="nonzero" clip-rule="nonzero" viewBox="0 0 5800 5800" xmlns:xlink="http://www.w3.org/1999/xlink">
	<title>gambling_chips2 icon</title>
	<desc>gambling_chips2 icon from the IconExperience.com I-Collection. Copyright by INCORS GmbH (www.incors.com).</desc>
	<path id="curve0" d="M1500 2700c670,4 1196,528 1200,1200 0,658 -527,1200 -1200,1200 -676,0 -1200,-544 -1200,-1200 4,-660 522,-1196 1200,-1200zm4000 1500c0,155 -136,287 -356,375 -183,74 -430,120 -702,125 19,-66 34,-133 44,-202 229,-8 433,-47 584,-108 142,-57 230,-124 230,-190l0 -303c-45,29 -98,55 -156,78 -173,70 -404,115 -658,124 -10,-68 -25,-135 -44,-199 247,-5 468,-46 628,-110 142,-57 230,-125 230,-190l0 -303c-45,29 -98,55 -156,78 -192,77 -456,125 -744,125 -52,0 -104,-2 -154,-5 -57,-80 -122,-154 -193,-221 107,17 224,26 347,26 264,0 501,-42 670,-110 142,-57 230,-125 230,-190l0 -303c-45,29 -98,55 -156,78 -192,77 -456,125 -744,125 -288,0 -552,-48 -744,-125 -58,-23 -111,-49 -156,-78l0 261c-65,-19 -132,-34 -200,-44l0 -1114c0,-155 136,-288 356,-375 192,-77 456,-125 744,-125 288,0 552,48 744,125 220,87 356,220 356,375l0 2400zm-1200 100c0,658 -528,1200 -1200,1200 -320,0 -616,-119 -849,-351 -13,-14 -27,-28 -40,-43 58,-34 114,-73 166,-115 91,95 200,172 321,225l96 -298c-69,-35 -132,-81 -187,-137l-50 37c59,-68 111,-141 156,-218 60,77 143,135 236,166l95 30 -31 95 -126 386c140,31 286,31 426,0l-157 -481c85,-27 157,-46 232,-100 75,-54 114,-116 167,-189l409 297c70,-121 117,-258 131,-404l-506 0c0,-238 -11,-276 -152,-469l409 -297c-95,-107 -212,-192 -344,-250l-156 481c-146,-47 -244,-81 -397,-31l-50 17c-9,-249 -82,-482 -204,-681l11 -4c128,-44 259,-65 394,-66 670,4 1196,530 1200,1200zm-987 -977c-140,-31 -286,-31 -426,0l97 298c81,-13 151,-13 232,0l97 -298zm189 1893c132,-58 249,-144 344,-250l-253 -185c-54,56 -118,102 -187,137l96 298zm593 -1016c-14,-146 -61,-283 -131,-404l-254 184c37,69 61,143 72,220l313 0zm-2395 -1686l0 -1714c0,-155 136,-288 356,-375 192,-77 456,-125 744,-125 289,0 552,48 744,125 220,87 356,220 356,375l0 354c-70,15 -137,34 -200,56l0 -113c-45,29 -98,55 -156,78 -192,77 -455,125 -744,125 -288,0 -552,-48 -744,-125 -58,-23 -111,-49 -156,-78l0 303c0,65 88,133 230,190 169,68 406,110 670,110 113,0 220,-8 320,-22 -13,40 -20,80 -20,122l0 82c-95,12 -196,18 -300,18 -288,0 -552,-48 -744,-125 -58,-23 -111,-49 -156,-78l0 303c0,65 88,133 230,190 169,68 406,110 670,110 105,0 206,-7 300,-19l0 201c-95,12 -196,18 -300,18 -288,0 -552,-48 -744,-125 -58,-23 -111,-49 -156,-78l0 261c-65,-19 -132,-34 -200,-44zm753 360c107,17 224,26 347,26 105,0 206,-7 300,-19l0 19 0 0c-186,0 -364,36 -526,102 -38,-45 -78,-88 -121,-128zm1017 -2264c-169,-68 -406,-110 -670,-110 -264,0 -501,42 -670,110 -142,57 -230,124 -230,190 0,65 88,133 230,190 169,68 406,110 670,110 264,0 501,-42 670,-110 142,-57 230,-125 230,-190 0,-66 -88,-133 -230,-190zm30 1487l0 303c0,65 88,133 230,190 169,68 406,110 670,110 264,0 501,-42 670,-110 142,-57 230,-125 230,-190l0 -303c-45,29 -98,55 -156,78 -192,77 -456,125 -744,125 -288,0 -552,-48 -744,-125 -58,-23 -111,-49 -156,-78zm1570 -487c-169,-68 -406,-110 -670,-110 -264,0 -501,42 -670,110 -142,57 -230,124 -230,190 0,65 88,133 230,190 169,68 406,110 670,110 264,0 501,-42 670,-110 142,-57 230,-125 230,-190 0,-66 -88,-133 -230,-190zm-3168 1374l-156 481 -95 -31c-98,-31 -204,-31 -302,0l-95 31 -156 -481c-132,58 -249,143 -344,250l409 297c-141,193 -152,231 -152,469l-506 0c14,146 61,283 131,404l409 -297c140,192 173,216 399,289l-157 481c69,15 140,23 213,23 73,0 144,-8 213,-23l-157 -481 95 -30c98,-32 185,-95 245,-178l59 -81 409 297c70,-121 117,-258 131,-404l-506 0c0,-238 -11,-276 -152,-469l409 -297c-95,-106 -212,-192 -344,-250zm-189 -61c-140,-31 -286,-31 -426,0l97 298c80,-13 152,-13 232,0l97 -298zm-1077 473c-70,121 -117,258 -131,404l313 0c6,-39 15,-76 27,-113 12,-37 27,-73 45,-107l-254 -184zm118 1170c95,106 213,192 344,250l96 -298c-69,-35 -132,-81 -187,-137l-253 185zm1148 250c115,-51 218,-122 305,-209 14,-13 27,-27 39,-41l-253 -185c-54,56 -118,102 -187,137l96 298zm593 -1016c-14,-146 -61,-283 -131,-404l-254 184c37,69 61,143 72,220l313 0z"/>
</svg>