<?xml version="1.0" encoding="UTF-8"?>
<!DOCTYPE svg PUBLIC "-//W3C//DTD SVG 1.1//EN" "http://www.w3.org/Graphics/SVG/1.1/DTD/svg11.dtd">
<svg xmlns="http://www.w3.org/2000/svg" xml:space="preserve" width="580px" height="580px" shape-rendering="geometricPrecision" text-rendering="geometricPrecision" image-rendering="optimizeQuality" fill-rule="nonzero" clip-rule="nonzero" viewBox="0 0 5800 5800" xmlns:xlink="http://www.w3.org/1999/xlink">
	<title>gambling_chips icon</title>
	<desc>gambling_chips icon from the IconExperience.com I-Collection. Copyright by INCORS GmbH (www.incors.com).</desc>
		<path id="curve30"  d="M4906 2888c315,285 494,687 494,1112 0,828 -672,1500 -1500,1500 -492,0 -948,-239 -1229,-640 195,-116 364,-271 498,-453l146 -105c64,88 112,158 203,224 91,66 173,90 276,123l-200 615c98,23 201,36 306,36 105,0 208,-13 306,-36l-200 -615c103,-33 185,-57 276,-123 91,-66 139,-136 203,-224l522 379c106,-171 173,-369 189,-581l-646 0c0,-108 3,-195 -31,-301 -35,-107 -87,-174 -152,-262l523 -380c-37,-43 -78,-85 -120,-123 48,-46 94,-95 136,-146zm-1996 1955c134,157 304,280 494,359l140 -430c-50,-23 -98,-52 -143,-84 -45,-33 -87,-70 -125,-111l-366 266zm1486 359c190,-79 360,-202 494,-359l-366 -266c-38,41 -80,78 -125,111 -45,32 -92,60 -143,84l140 430zm800 -1302c-16,-212 -83,-410 -189,-581l-366 266c28,48 50,99 67,152 17,53 29,107 36,163l452 0z"/>
	<path id="curve29"  d="M3600 300c828,0 1500,672 1500,1500 0,828 -672,1500 -1500,1500 -35,0 -69,-1 -103,-4 -4,-68 -13,-136 -25,-202 42,4 85,6 128,6 105,0 208,-13 306,-36l-200 -615c103,-33 185,-57 276,-123 91,-66 139,-136 203,-224l522 379c106,-171 173,-369 189,-581l-646 0c0,-108 3,-195 -31,-301 -35,-107 -87,-174 -152,-262l523 -380c-134,-157 -303,-280 -494,-359l-200 614c-104,-34 -182,-62 -296,-62 -114,0 -192,28 -296,62l-200 -614c-159,66 -303,162 -423,283 -25,24 -48,50 -71,76l442 321 81 59c-65,88 -117,155 -152,262 -34,106 -31,193 -31,301l-350 0c-153,-82 -321,-142 -498,-173 38,-799 698,-1427 1498,-1427zm-650 1848l65 -46c64,88 112,158 203,224 91,66 173,90 276,123l-109 336c-95,-245 -245,-462 -435,-637zm956 -1612c-200,-48 -412,-48 -612,0l140 431c55,-11 111,-17 166,-17 55,0 111,6 166,17l140 -431zm-1413 583c-106,171 -173,369 -189,581l452 0c7,-56 19,-110 36,-163 17,-53 39,-104 67,-152l-366 -266zm1603 1883c159,-66 303,-163 423,-283 25,-24 48,-50 71,-76l-366 -266c-38,41 -80,78 -125,111 -45,32 -92,60 -143,84l140 430zm800 -1302c-16,-212 -83,-410 -189,-581l-366 266c28,48 50,99 67,152 17,53 29,107 36,163l452 0z"/>
	<path id="curve28"  d="M1800 1900c828,0 1500,672 1500,1500 0,828 -672,1500 -1500,1500 -828,0 -1500,-672 -1500,-1500 0,-828 672,-1500 1500,-1500zm496 298l-200 614c-107,-34 -181,-62 -296,-62 -115,0 -189,28 -296,62l-200 -614c-190,79 -360,202 -494,359l442 321 81 59c-65,88 -117,155 -152,262 -34,106 -31,193 -31,301l-646 0c16,212 83,410 189,581l522 -379c64,88 112,158 203,224 91,66 173,90 276,123l-200 615c98,23 201,36 306,36 105,0 208,-13 306,-36l-200 -615c103,-33 185,-57 276,-123 91,-66 139,-136 203,-224l522 379c106,-171 173,-369 189,-581l-646 0c0,-108 3,-195 -31,-301 -35,-107 -87,-174 -152,-262l523 -380c-134,-157 -303,-280 -494,-359zm-190 -62c-200,-48 -412,-48 -612,0l140 431c55,-11 111,-17 166,-17 55,0 111,6 166,17l140 -431zm-1413 583c-106,171 -173,369 -189,581l452 0c7,-56 19,-110 36,-163 17,-53 39,-104 67,-152l-366 -266zm117 1524c134,157 304,280 494,359l140 -430c-50,-23 -98,-52 -143,-84 -45,-33 -87,-70 -125,-111l-366 266zm1486 359c190,-79 360,-202 494,-359l-366 -266c-38,41 -80,78 -125,111 -45,32 -92,60 -143,84l140 430zm800 -1302c-16,-212 -83,-410 -189,-581l-366 266c28,48 50,99 67,152 17,53 29,107 36,163l452 0z"/>
</svg>