<?xml version="1.0" encoding="UTF-8"?>
<!DOCTYPE svg PUBLIC "-//W3C//DTD SVG 1.1//EN" "http://www.w3.org/Graphics/SVG/1.1/DTD/svg11.dtd">
<svg xmlns="http://www.w3.org/2000/svg" xml:space="preserve" width="580px" height="580px" shape-rendering="geometricPrecision" text-rendering="geometricPrecision" image-rendering="optimizeQuality" fill-rule="nonzero" clip-rule="nonzero" viewBox="0 0 5800 5800" xmlns:xlink="http://www.w3.org/1999/xlink">
	<title>gambling_chips2 icon</title>
	<desc>gambling_chips2 icon from the IconExperience.com I-Collection. Copyright by INCORS GmbH (www.incors.com).</desc>
	<path id="curve0"  d="M1500 2700c663,0 1200,537 1200,1200 0,663 -537,1200 -1200,1200 -663,0 -1200,-537 -1200,-1200 0,-663 537,-1200 1200,-1200zm1800 214l0 -118 4 4c75,63 169,117 278,161 215,86 505,139 818,139 313,0 603,-53 818,-139 109,-44 203,-98 278,-161l4 -3 0 203c0,155 -136,287 -356,375 -192,77 -456,125 -744,125 -52,0 -104,-2 -154,-5 -217,-308 -556,-525 -946,-581zm-200 186c663,0 1200,537 1200,1200 0,663 -537,1200 -1200,1200 -340,0 -661,-142 -889,-394 208,-123 381,-297 502,-506 95,122 191,151 331,196l-157 481c140,31 286,31 426,0l-157 -481c226,-73 259,-97 399,-289l409 297c70,-121 117,-258 131,-404l-506 0c0,-238 -11,-276 -152,-469l409 -297c-95,-107 -212,-192 -344,-250l-156 481c-192,-62 -251,-78 -447,-14 -9,-249 -82,-482 -204,-681 126,-45 263,-70 405,-70zm1300 -1800c288,0 552,48 744,125 220,87 356,220 356,375 0,155 -136,287 -356,375 -192,77 -456,125 -744,125 -288,0 -552,-48 -744,-125 -220,-88 -356,-220 -356,-375 0,-155 136,-288 356,-375 192,-77 456,-125 744,-125zm-1100 1100l0 -100 0 -104 4 4c75,63 169,117 278,161 215,86 505,139 818,139 313,0 603,-53 818,-139 109,-44 203,-98 278,-161l4 -5 0 205c0,155 -136,287 -356,375 -192,77 -456,125 -744,125 -288,0 -552,-48 -744,-125 -220,-88 -356,-220 -356,-375zm1065 1300c12,0 23,0 35,0 313,0 603,-53 818,-139 109,-44 203,-98 278,-161l4 -4 0 104 0 100c0,155 -136,287 -356,375 -173,70 -404,115 -658,124 -21,-141 -62,-275 -121,-399zm1135 297l0 203c0,155 -136,287 -356,375 -183,74 -430,120 -702,125 38,-127 60,-270 58,-402 275,-10 526,-61 718,-137 111,-45 206,-100 282,-164zm-2700 -3697c289,0 552,48 744,125 220,87 356,220 356,375 0,155 -136,287 -356,375 -192,77 -455,125 -744,125 -288,0 -552,-48 -744,-125 -220,-88 -356,-220 -356,-375 0,-155 136,-288 356,-375 192,-77 456,-125 744,-125zm-1100 1497l4 3c75,63 169,117 278,161 215,86 505,139 818,139 103,0 204,-6 300,-17l0 399c-95,12 -196,18 -300,18 -288,0 -552,-48 -744,-125 -220,-88 -356,-220 -356,-375l0 -203zm0 717l0 -117c76,64 171,119 282,164 215,86 505,139 818,139 103,0 204,-6 300,-17l0 17 0 200c-186,0 -363,36 -526,102 -216,-258 -524,-438 -874,-488zm0 -1318l4 4c75,63 169,117 278,161 215,86 505,139 818,139 153,0 301,-13 437,-36 -87,95 -135,205 -137,329l0 89c-95,12 -196,18 -300,18 -288,0 -552,-48 -744,-125 -220,-88 -356,-220 -356,-375l0 -204zm202 1788l-156 481c-224,-73 -268,-73 -492,0l-156 -481c-132,58 -249,143 -344,250l409 297c-141,193 -152,231 -152,469l-506 0c14,146 61,283 131,404l409 -297c140,192 173,216 399,289l-157 481c140,31 286,31 426,0l-157 -481c226,-73 259,-97 399,-289l409 297c70,-121 117,-258 131,-404l-506 0c0,-238 -11,-276 -152,-469l409 -297c-95,-106 -212,-192 -344,-250z"/>
</svg>