<?xml version="1.0" encoding="UTF-8"?>
<!DOCTYPE svg PUBLIC "-//W3C//DTD SVG 1.1//EN" "http://www.w3.org/Graphics/SVG/1.1/DTD/svg11.dtd">
<svg xmlns="http://www.w3.org/2000/svg" xml:space="preserve" width="580px" height="580px" shape-rendering="geometricPrecision" text-rendering="geometricPrecision" image-rendering="optimizeQuality" fill-rule="nonzero" clip-rule="nonzero" viewBox="0 0 5800 5800" xmlns:xlink="http://www.w3.org/1999/xlink">
	<title>gambling_chip icon</title>
	<desc>gambling_chip icon from the IconExperience.com I-Collection. Copyright by INCORS GmbH (www.incors.com).</desc>
		<path id="curve28"  d="M2900 300c1436,0 2600,1164 2600,2600 0,1436 -1164,2600 -2600,2600 -1436,0 -2600,-1164 -2600,-2600 0,-1436 1164,-2600 2600,-2600zm-1317 1691c-90,130 -161,274 -210,429 -49,155 -73,317 -73,480 0,55 -45,100 -100,100l-698 0c19,470 174,905 426,1268l556 -422c44,-33 107,-24 140,20 97,128 214,243 348,338 129,92 274,166 434,218 52,17 81,73 64,126l-216 664c205,57 422,88 646,88 240,0 473,-35 692,-101l-229 -660c-18,-52 10,-109 62,-127 151,-52 296,-128 428,-226 126,-94 241,-207 338,-341 18,-28 49,-46 84,-46 24,0 46,9 63,23l561 407c244,-367 390,-805 400,-1276l-697 13c-55,1 -101,-42 -102,-98 -3,-160 -30,-322 -83,-478 -49,-148 -122,-292 -220,-427 -37,-46 -25,-114 24,-146l560 -407c-282,-356 -660,-626 -1089,-776l-203 668c-16,53 -72,82 -124,66 -154,-46 -316,-70 -481,-69 -156,2 -315,27 -473,77 -56,22 -118,-10 -133,-68l-214 -658c-426,158 -799,436 -1074,797l572 399c48,33 57,100 21,145zm3316 -420l-486 353c82,128 147,264 194,403 48,143 77,290 88,438l601 -12c-26,-424 -163,-830 -397,-1182zm-118 2819l-486 -353c-96,118 -205,221 -323,309 -121,90 -252,163 -389,219l197 569c393,-156 739,-412 1001,-744zm-2717 760l186 -572c-142,-55 -274,-126 -394,-211 -123,-88 -233,-190 -329,-303l-479 363c214,258 479,470 779,620 77,38 156,73 237,103zm-1562 -2350l601 0c8,-152 35,-299 79,-439 46,-144 109,-280 187,-407l-494 -343c-228,358 -355,765 -373,1189zm3222 368c-54,81 -133,132 -224,132 -92,0 -186,-60 -230,-141 -43,-69 -70,-160 -70,-259 0,-103 29,-197 76,-268 54,-81 133,-132 224,-132 92,0 186,60 230,141 43,69 70,160 70,259 0,103 -29,197 -76,268zm-282 -425c-26,39 -42,94 -42,157 0,60 14,113 40,154 20,29 40,46 60,46 20,0 40,-18 58,-44 26,-38 42,-93 42,-156 0,-60 -14,-113 -40,-154 -20,-29 -40,-46 -60,-46 -20,0 -40,17 -58,43zm-417 425c-55,81 -134,132 -225,132 -92,0 -186,-60 -230,-141 -43,-69 -70,-160 -70,-259 0,-103 29,-197 76,-268 54,-81 133,-132 224,-132 91,0 170,51 225,132 51,77 75,176 75,268 0,103 -29,197 -75,268zm-285 -114c20,29 40,46 60,46 20,0 40,-17 58,-43 26,-39 42,-94 42,-157 0,-54 -11,-111 -42,-157 -18,-26 -38,-43 -58,-43 -32,0 -58,43 -59,43 -25,39 -41,94 -41,157 0,60 14,113 40,154zm-440 -554l0 800 -200 0 0 -800 200 0zm600 -1000c773,0 1400,627 1400,1400 0,773 -627,1400 -1400,1400 -773,0 -1400,-627 -1400,-1400 0,-773 627,-1400 1400,-1400zm0 200c-663,0 -1200,537 -1200,1200 0,663 537,1200 1200,1200 663,0 1200,-537 1200,-1200 0,-663 -537,-1200 -1200,-1200zm594 -1126c-190,-48 -389,-74 -594,-74 -219,0 -435,29 -646,88l186 572c147,-39 296,-58 443,-60 151,-1 300,16 443,51l168 -577z"/>
</svg>