<?xml version="1.0" encoding="UTF-8"?>
<!DOCTYPE svg PUBLIC "-//W3C//DTD SVG 1.1//EN" "http://www.w3.org/Graphics/SVG/1.1/DTD/svg11.dtd">
<svg xmlns="http://www.w3.org/2000/svg" xml:space="preserve" width="580px" height="580px" shape-rendering="geometricPrecision" text-rendering="geometricPrecision" image-rendering="optimizeQuality" fill-rule="nonzero" clip-rule="nonzero" viewBox="0 0 5800 5800" xmlns:xlink="http://www.w3.org/1999/xlink">
	<title>gamepad icon</title>
	<desc>gamepad icon from the IconExperience.com I-Collection. Copyright by INCORS GmbH (www.incors.com).</desc>
		<path id="curve28" d="M4200 2800c165,0 300,135 300,300 0,165 -135,300 -300,300 -166,0 -300,-134 -300,-300 0,-165 135,-300 300,-300zm0 200c-56,0 -100,44 -100,100 0,55 45,100 100,100 55,0 100,-44 100,-100 0,-55 -44,-100 -100,-100zm500 -800c166,0 300,134 300,300 0,165 -135,300 -300,300 -165,0 -300,-135 -300,-300 0,-165 135,-300 300,-300zm0 200c-56,0 -100,44 -100,100 0,56 44,100 100,100 55,0 100,-44 100,-100 0,-55 -45,-100 -100,-100zm-1000 -200c166,0 300,134 300,300 0,83 -34,158 -88,212 -56,56 -133,88 -212,88 -165,0 -300,-135 -300,-300 0,-165 135,-300 300,-300zm0 200c-56,0 -100,44 -100,100 0,56 44,100 100,100 55,0 100,-44 100,-100 0,-55 -45,-100 -100,-100zm500 -800c166,0 300,134 300,300 0,165 -135,300 -300,300 -165,0 -300,-135 -300,-300 0,-165 135,-300 300,-300zm0 200c-56,0 -100,44 -100,100 0,56 44,100 100,100 55,0 100,-44 100,-100 0,-55 -45,-100 -100,-100zm-2500 -100c442,0 800,358 800,800 0,442 -358,800 -800,800 -442,0 -800,-358 -800,-800 0,-442 358,-800 800,-800zm0 200c-331,0 -600,269 -600,600 0,331 269,600 600,600 331,0 600,-269 600,-600 0,-331 -269,-600 -600,-600zm2450 -800c765,0 1350,650 1350,1400 0,551 -25,1132 -114,1579 -97,486 -276,821 -586,821 -459,0 -630,-340 -782,-641 -95,-189 -180,-359 -318,-359 -58,0 -149,34 -252,72 -159,59 -345,128 -548,128 -176,0 -360,-65 -522,-123 -114,-41 -216,-77 -278,-77 -157,0 -244,177 -339,372 -146,298 -307,628 -761,628 -310,0 -489,-335 -586,-821 -89,-447 -114,-1028 -114,-1579 0,-750 585,-1400 1350,-1400 398,0 583,60 756,116 134,43 260,84 494,84 234,0 360,-41 494,-84 173,-56 358,-116 756,-116zm0 200c-368,0 -538,55 -695,106 -151,48 -292,94 -555,94 -263,0 -404,-46 -555,-94 -157,-51 -327,-106 -695,-106 -655,0 -1150,559 -1150,1200 0,540 25,1109 111,1540 78,391 199,660 389,660 330,0 462,-271 582,-516 124,-253 237,-484 518,-484 96,0 213,42 344,88 147,53 313,112 456,112 167,0 335,-62 478,-116 122,-45 228,-84 322,-84 260,0 372,222 496,470 126,249 267,530 604,530 190,0 311,-269 389,-660 86,-431 111,-1000 111,-1540 0,-641 -495,-1200 -1150,-1200z"/>
</svg>