<?xml version="1.0" encoding="UTF-8"?>
<!DOCTYPE svg PUBLIC "-//W3C//DTD SVG 1.1//EN" "http://www.w3.org/Graphics/SVG/1.1/DTD/svg11.dtd">
<svg xmlns="http://www.w3.org/2000/svg" xml:space="preserve" width="580px" height="580px" shape-rendering="geometricPrecision" text-rendering="geometricPrecision" image-rendering="optimizeQuality" fill-rule="nonzero" clip-rule="nonzero" viewBox="0 0 5800 5800" xmlns:xlink="http://www.w3.org/1999/xlink">
	<title>gamepad icon</title>
	<desc>gamepad icon from the IconExperience.com I-Collection. Copyright by INCORS GmbH (www.incors.com).</desc>
		<path id="curve28"  d="M4150 1100c379,0 712,159 953,409 248,258 397,613 397,991 0,551 -25,1132 -114,1579 -97,486 -276,821 -586,821 -459,0 -630,-340 -782,-641 -95,-189 -180,-359 -318,-359 -58,0 -149,34 -252,72 -159,59 -345,128 -548,128 -176,0 -360,-65 -522,-123 -114,-41 -216,-77 -278,-77 -157,0 -244,177 -339,372 -146,298 -307,628 -761,628 -310,0 -489,-335 -586,-821 -89,-447 -114,-1028 -114,-1579 0,-378 149,-733 397,-991 241,-250 574,-409 953,-409 398,0 583,60 756,116 134,43 260,84 494,84 234,0 360,-41 494,-84 173,-56 358,-116 756,-116zm50 1700c-165,0 -300,135 -300,300 0,166 134,300 300,300 165,0 300,-135 300,-300 0,-165 -135,-300 -300,-300zm500 -600c-165,0 -300,135 -300,300 0,165 135,300 300,300 165,0 300,-135 300,-300 0,-166 -134,-300 -300,-300zm-1000 0c-165,0 -300,135 -300,300 0,165 135,300 300,300 165,0 300,-135 300,-300 0,-166 -134,-300 -300,-300zm500 -600c-165,0 -300,135 -300,300 0,165 135,300 300,300 79,0 151,-31 205,-82 3,-2 5,-4 7,-6 54,-54 88,-129 88,-212 0,-166 -134,-300 -300,-300zm-2500 100c-442,0 -800,358 -800,800 0,442 358,800 800,800 442,0 800,-358 800,-800 0,-442 -358,-800 -800,-800z"/>
</svg>