<?xml version="1.0" encoding="UTF-8"?>
<!DOCTYPE svg PUBLIC "-//W3C//DTD SVG 1.1//EN" "http://www.w3.org/Graphics/SVG/1.1/DTD/svg11.dtd">
<svg xmlns="http://www.w3.org/2000/svg" xml:space="preserve" width="580px" height="580px" shape-rendering="geometricPrecision" text-rendering="geometricPrecision" image-rendering="optimizeQuality" fill-rule="nonzero" clip-rule="nonzero" viewBox="0 0 5800 5800" xmlns:xlink="http://www.w3.org/1999/xlink">
	<title>garbage_make_empty icon</title>
	<desc>garbage_make_empty icon from the IconExperience.com I-Collection. Copyright by INCORS GmbH (www.incors.com).</desc>
	<path id="curve0"  d="M563 2487c-106,-127 -89,-316 38,-423 122,-102 304,-90 413,27l3053 -1973 1629 1940 -2474 2665c95,124 78,303 -40,407l-2 2 -3 2 -1 0 0 0 0 0 0 0c-127,107 -316,90 -422,-37l-2191 -2610zm2197 316l-285 -25 -17 199 610 54 53 -611 -199 -17 -24 281c-221,-304 -171,-728 113,-973l-152 -107c-331,316 -374,833 -99,1199zm617 -1444l164 -235 -163 -114 -351 502 501 351 114 -163 -231 -162c373,-38 716,214 787,584l168 -78c-109,-448 -536,-739 -989,-685zm942 1256l121 260 182 -85 -259 -555 -556 259 85 181 255 -119c-152,341 -543,512 -899,389l-16 185c442,128 908,-94 1087,-515zm-1552 2740l-543 161c-87,-126 -174,-253 -261,-379 -107,137 -214,274 -321,410 -210,-76 -420,-153 -630,-229l-59 182c-222,0 -443,0 -665,0 -68,-211 -137,-422 -205,-633 179,-130 358,-260 538,-390 102,74 205,149 307,223l7 -201c251,-71 501,-143 751,-215 117,173 234,346 351,519l100 -130 131 156 -145 189 183 266 275 -82c55,66 105,114 186,153zm-1847 -398l0 -16 -299 -218 -304 221 116 356 375 0 112 -343zm682 -441l-472 135 -18 491 462 168 303 -387 -275 -407z"/>
</svg>