<?xml version="1.0" encoding="UTF-8"?>
<!DOCTYPE svg PUBLIC "-//W3C//DTD SVG 1.1//EN" "http://www.w3.org/Graphics/SVG/1.1/DTD/svg11.dtd">
<svg xmlns="http://www.w3.org/2000/svg" xml:space="preserve" width="580px" height="580px" shape-rendering="geometricPrecision" text-rendering="geometricPrecision" image-rendering="optimizeQuality" fill-rule="nonzero" clip-rule="nonzero" viewBox="0 0 5800 5800" xmlns:xlink="http://www.w3.org/1999/xlink">
	<title>garbage2 icon</title>
	<desc>garbage2 icon from the IconExperience.com I-Collection. Copyright by INCORS GmbH (www.incors.com).</desc>
	<path id="curve0"  d="M1000 900l3800 0c165,0 300,135 300,300 0,165 -135,300 -300,300l-12 0 -500 4000c-925,0 -1851,0 -2776,0l-275 -2200 -225 -1800 -12 0c-165,0 -300,-135 -300,-300 0,-165 135,-300 300,-300zm438 2400l2924 0 225 -1800 -3374 0 225 1800zm3362 -2200l-3800 0c-55,0 -100,45 -100,100 0,55 45,100 100,100l3800 0c55,0 100,-45 100,-100 0,-55 -45,-100 -100,-100z"/>
</svg>