<?xml version="1.0" encoding="UTF-8"?>
<!DOCTYPE svg PUBLIC "-//W3C//DTD SVG 1.1//EN" "http://www.w3.org/Graphics/SVG/1.1/DTD/svg11.dtd">
<svg xmlns="http://www.w3.org/2000/svg" xml:space="preserve" width="580px" height="580px" shape-rendering="geometricPrecision" text-rendering="geometricPrecision" image-rendering="optimizeQuality" fill-rule="nonzero" clip-rule="nonzero" viewBox="0 0 5800 5800" xmlns:xlink="http://www.w3.org/1999/xlink">
	<title>garbage_container icon</title>
	<desc>garbage_container icon from the IconExperience.com I-Collection. Copyright by INCORS GmbH (www.incors.com).</desc>
		<path id="curve29"  d="M4300 1693l0 2582c-137,-109 -311,-175 -500,-175 -442,0 -800,358 -800,800 0,239 105,453 271,600l-1471 0c-165,0 -300,-135 -300,-300l0 -1646c0,-48 -4,-91 -12,-133 -8,-42 -20,-84 -38,-127l-285 -714c-23,-56 -39,-109 -49,-164 -11,-55 -16,-111 -16,-170l0 -746 2611 0c130,128 306,200 489,200 34,0 67,-2 100,-7zm-500 2607c331,0 600,269 600,600 0,331 -269,600 -600,600 -331,0 -600,-269 -600,-600 0,-331 269,-600 600,-600z"/>
	<path id="curve28"  d="M3800 1300l-2900 0c0,-167 0,-333 0,-500 0,-165 135,-300 300,-300l417 0c43,-119 156,-200 283,-200l1700 0c127,0 240,81 283,200l317 0c276,0 500,224 500,500 0,276 -224,500 -500,500 -157,0 -305,-75 -400,-200z"/>
</svg>