<?xml version="1.0" encoding="UTF-8"?>
<!DOCTYPE svg PUBLIC "-//W3C//DTD SVG 1.1//EN" "http://www.w3.org/Graphics/SVG/1.1/DTD/svg11.dtd">
<svg xmlns="http://www.w3.org/2000/svg" xml:space="preserve" width="580px" height="580px" shape-rendering="geometricPrecision" text-rendering="geometricPrecision" image-rendering="optimizeQuality" fill-rule="nonzero" clip-rule="nonzero" viewBox="0 0 5800 5800" xmlns:xlink="http://www.w3.org/1999/xlink">
	<title>garbage_full icon</title>
	<desc>garbage_full icon from the IconExperience.com I-Collection. Copyright by INCORS GmbH (www.incors.com).</desc>
		<path id="curve28"  d="M4788 1500l-500 4000 -2776 0 -500 -4000 -12 0c-165,0 -300,-135 -300,-300 0,-165 135,-300 300,-300l3800 0c165,0 300,135 300,300 0,165 -135,300 -300,300l-12 0zm-1847 1001l230 -230 -142 -142 -470 471 470 471 142 -142 -228 -228c419,22 751,366 757,787l198 -53c-33,-510 -447,-914 -957,-934zm804 1534l84 314 193 -52 -172 -643 -643 173 52 193 312 -84c-148,227 -399,364 -671,364 -141,0 -274,-37 -390,-101l-53 198c134,66 284,103 443,103 344,0 662,-176 845,-465zm-1731 -70l-314 -85 -52 193 643 173 172 -643 -193 -52 -83 312c-56,-109 -87,-232 -87,-363 0,-282 148,-542 389,-687l-145 -144c-277,185 -444,496 -444,831 0,168 41,326 114,465zm-776 -2265l3324 0 25 -200 -3374 0 25 200zm3562 -600l-3800 0c-55,0 -100,45 -100,100 0,55 45,100 100,100l3800 0c55,0 100,-45 100,-100 0,-56 -44,-100 -100,-100z"/>
</svg>