<?xml version="1.0" encoding="UTF-8"?>
<!DOCTYPE svg PUBLIC "-//W3C//DTD SVG 1.1//EN" "http://www.w3.org/Graphics/SVG/1.1/DTD/svg11.dtd">
<svg xmlns="http://www.w3.org/2000/svg" xml:space="preserve" width="580px" height="580px" shape-rendering="geometricPrecision" text-rendering="geometricPrecision" image-rendering="optimizeQuality" fill-rule="nonzero" clip-rule="nonzero" viewBox="0 0 5800 5800" xmlns:xlink="http://www.w3.org/1999/xlink">
	<title>garbage_half_full icon</title>
	<desc>garbage_half_full icon from the IconExperience.com I-Collection. Copyright by INCORS GmbH (www.incors.com).</desc>
		<path id="curve28"  d="M1000 900l3800 0c165,0 300,135 300,300 0,175 -140,300 -312,300l-500 4000 -2776 0 -500 -4000c-172,0 -312,-125 -312,-300 0,-165 135,-300 300,-300zm2171 1371l-230 230c459,18 848,349 939,799l482 0 225 -1800 -3374 0 225 1800 482 0c52,-258 206,-485 424,-631l145 144c-180,108 -311,283 -364,487l1550 0c-87,-337 -384,-581 -732,-599l228 228 -142 142 -470 -471 470 -471 142 142zm709 1029l-205 0c55,216 -41,205 223,135 -3,-46 -9,-91 -18,-135zm-1755 0l-205 0c-46,225 -13,461 94,665l-314 -85 -52 193 643 173 172 -643 -193 -52 -83 312c-88,-173 -110,-375 -62,-563zm1620 735l84 314 193 -52 -172 -643 -643 173 52 193 312 -84c-226,348 -690,470 -1061,263l-53 198c461,228 1018,64 1288,-362z"/>
</svg>