<?xml version="1.0" encoding="UTF-8"?>
<!DOCTYPE svg PUBLIC "-//W3C//DTD SVG 1.1//EN" "http://www.w3.org/Graphics/SVG/1.1/DTD/svg11.dtd">
<svg xmlns="http://www.w3.org/2000/svg" xml:space="preserve" width="580px" height="580px" shape-rendering="geometricPrecision" text-rendering="geometricPrecision" image-rendering="optimizeQuality" fill-rule="nonzero" clip-rule="nonzero" viewBox="0 0 5800 5800" xmlns:xlink="http://www.w3.org/1999/xlink">
	<title>garbage_overflow icon</title>
	<desc>garbage_overflow icon from the IconExperience.com I-Collection. Copyright by INCORS GmbH (www.incors.com).</desc>
		<path id="curve29"  d="M679 4519l210 153 211 153 59 42 -23 69 -80 248 -81 247 -22 69 -72 0 -260 0 -260 0 -73 0 -22 -69 -81 -247 -80 -248 -22 -69 58 -42 211 -153 210 -153 59 -42 58 42zm93 315l-151 -111 -152 111 -152 110 58 178 58 178 188 0 187 0 58 -178 58 -178 -152 -110zm1991 -3926l0 2 -200 0 -14 -196 -405 -100 -184 296 -235 0 34 -55 -2 -44 -337 -97 -133 196 -241 0 289 -428 557 159 158 -255 372 92 3 -79 751 -215 165 245 23 -29 572 202 67 -205 634 0c55,171 111,342 166,513l-3 0 -207 0 -101 -313 -344 0 -102 313 -313 0 0 -5 5 -161 -304 -107 -196 255 12 18 -242 0 -17 -24 222 -290 -121 -180 -425 122 0 0 70 17 26 353z"/>
	<path id="curve28"  d="M4788 1500l-500 4000 -2776 0 -500 -4000c-172,0 -312,-125 -312,-300 0,-165 135,-300 300,-300l3800 0c165,0 300,135 300,300 0,175 -140,300 -312,300zm-959 2849l193 -52 -172 -643 -643 173 52 193 312 -84c-148,227 -399,364 -671,364 -141,0 -274,-37 -390,-101l-53 198c134,66 284,103 443,103 344,0 662,-176 845,-465l84 314zm-2129 -469l-52 193 643 173 172 -643 -193 -52 -83 312c-56,-109 -87,-232 -87,-363 0,-282 148,-542 389,-687l-145 -144c-277,185 -444,496 -444,831 0,168 41,326 114,465l-314 -85zm1471 -1609l-142 -142 -470 471 470 471 142 -142 -228 -228c204,11 387,98 523,233 142,142 231,338 234,554l198 -53c-16,-250 -124,-475 -291,-642 -172,-172 -406,-282 -666,-292l230 -230z"/>
</svg>