<?xml version="1.0" encoding="UTF-8"?>
<!DOCTYPE svg PUBLIC "-//W3C//DTD SVG 1.1//EN" "http://www.w3.org/Graphics/SVG/1.1/DTD/svg11.dtd">
<svg xmlns="http://www.w3.org/2000/svg" xml:space="preserve" width="580px" height="580px" shape-rendering="geometricPrecision" text-rendering="geometricPrecision" image-rendering="optimizeQuality" fill-rule="nonzero" clip-rule="nonzero" viewBox="0 0 5800 5800" xmlns:xlink="http://www.w3.org/1999/xlink">
	<title>garbage_container icon</title>
	<desc>garbage_container icon from the IconExperience.com I-Collection. Copyright by INCORS GmbH (www.incors.com).</desc>
		<path id="curve29" d="M3800 4300c331,0 600,269 600,600 0,331 -269,600 -600,600 -331,0 -600,-269 -600,-600 0,-331 269,-600 600,-600zm0 200c-221,0 -400,179 -400,400 0,221 179,400 400,400 221,0 400,-179 400,-400 0,-221 -179,-400 -400,-400zm500 -2800l0 2575c-60,-48 -127,-87 -200,-117l0 -2458 200 0zm-1029 3800l-1471 0c-165,0 -300,-135 -300,-300l0 -1646c0,-48 -4,-91 -12,-133 -8,-42 -20,-84 -38,-127l-285 -714c-44,-109 -65,-216 -65,-334l0 -746 200 0 0 746c0,93 15,174 50,260l285 714c23,56 39,109 49,164 11,55 16,111 16,170l0 1646c0,55 45,100 100,100l1307 0c44,75 99,143 164,200z"/>
	<path id="curve28" d="M4200 1300c166,0 300,-134 300,-300 0,-166 -134,-300 -300,-300l-500 0 0 -100c0,-55 -45,-100 -100,-100l-1700 0c-55,0 -100,45 -100,100l0 100 -600 0c-55,0 -100,45 -100,100 0,100 0,200 0,300l2811 0c69,119 140,200 289,200zm-400 0l-2900 0c0,-167 0,-333 0,-500 0,-165 135,-300 300,-300l417 0c43,-119 156,-200 283,-200l1700 0c127,0 240,81 283,200l317 0c276,0 500,224 500,500 0,276 -224,500 -500,500 -157,0 -305,-75 -400,-200z"/>
</svg>