<?xml version="1.0" encoding="UTF-8"?>
<!DOCTYPE svg PUBLIC "-//W3C//DTD SVG 1.1//EN" "http://www.w3.org/Graphics/SVG/1.1/DTD/svg11.dtd">
<svg xmlns="http://www.w3.org/2000/svg" xml:space="preserve" width="580px" height="580px" shape-rendering="geometricPrecision" text-rendering="geometricPrecision" image-rendering="optimizeQuality" fill-rule="nonzero" clip-rule="nonzero" viewBox="0 0 5800 5800" xmlns:xlink="http://www.w3.org/1999/xlink">
	<title>garbage_half_full icon</title>
	<desc>garbage_half_full icon from the IconExperience.com I-Collection. Copyright by INCORS GmbH (www.incors.com).</desc>
		<path id="curve28"  d="M1000 900l3800 0c165,0 300,135 300,300 0,165 -135,300 -300,300l-12 0 -500 4000 -2776 0 -500 -4000 -12 0c-165,0 -300,-135 -300,-300 0,-165 135,-300 300,-300zm2171 1371l-230 230c260,10 494,120 666,292 136,136 233,311 273,507l482 0 225 -1800 -3374 0 225 1800 482 0c52,-258 206,-485 424,-631l145 144c-180,108 -311,283 -364,487l1550 0c-36,-141 -110,-266 -209,-366 -136,-135 -319,-222 -523,-233l228 228 -142 142 -470 -471 470 -471 142 142zm709 1029l-205 0c15,60 24,123 25,188l198 -53c-3,-46 -9,-91 -18,-135zm-135 735l84 314 97 -26 96 -26 -172 -643 -643 173 26 96 26 97 312 -84c-147,226 -398,364 -671,364 -141,0 -274,-37 -390,-101l-53 198c134,66 284,103 443,103 345,0 662,-177 845,-465zm-1825 -735c-13,65 -20,132 -20,200 0,162 39,321 114,465l-314 -85 -52 193 643 173 172 -643 -193 -52 -83 312c-58,-113 -87,-237 -87,-363 0,-69 9,-136 25,-200l-205 0zm2880 -2200l-3800 0c-55,0 -100,45 -100,100 0,55 45,100 100,100l3800 0c55,0 100,-45 100,-100 0,-55 -45,-100 -100,-100z"/>
</svg>