<?xml version="1.0" encoding="UTF-8"?>
<!DOCTYPE svg PUBLIC "-//W3C//DTD SVG 1.1//EN" "http://www.w3.org/Graphics/SVG/1.1/DTD/svg11.dtd">
<svg xmlns="http://www.w3.org/2000/svg" xml:space="preserve" width="580px" height="580px" shape-rendering="geometricPrecision" text-rendering="geometricPrecision" image-rendering="optimizeQuality" fill-rule="nonzero" clip-rule="nonzero" viewBox="0 0 5800 5800" xmlns:xlink="http://www.w3.org/1999/xlink">
	<title>garbage_can icon</title>
	<desc>garbage_can icon from the IconExperience.com I-Collection. Copyright by INCORS GmbH (www.incors.com).</desc>
		<path id="curve28"  d="M1000 900l1100 0 0 -400c0,-110 90,-200 200,-200l1200 0c110,0 200,90 200,200l0 400 1100 0c165,0 300,135 300,300l0 500 -4400 0 0 -500c0,-165 135,-300 300,-300zm3292 1100c-112,0 -192,92 -200,200l-192 2600c-8,110 90,200 200,200 112,0 192,-92 200,-200l192 -2600c8,-110 -90,-200 -200,-200zm-2784 0c-110,0 -208,90 -200,200l192 2600c8,108 88,200 200,200 110,0 208,-90 200,-200l-192 -2600c-8,-108 -88,-200 -200,-200zm1860 12c-111,0 -197,91 -200,200l-68 2588c-3,110 90,200 200,200 111,0 197,-91 200,-200l68 -2588c3,-110 -90,-200 -200,-200zm-936 0c-110,0 -203,90 -200,200l68 2588c3,109 89,200 200,200 110,0 203,-90 200,-200l-68 -2588c-3,-109 -89,-200 -200,-200zm2452 -212l-284 3418c-13,158 -140,282 -300,282l-2800 0c-160,0 -287,-124 -300,-282l-284 -3418 3968 0zm-2584 -900l1200 0 0 -400c0,0 0,0 0,0l0 0 0 0c0,0 0,0 0,0l-1200 0 0 400zm1200 -400l0 0 0 0 0 0 0 0z"/>
</svg>