<?xml version="1.0" encoding="UTF-8"?>
<!DOCTYPE svg PUBLIC "-//W3C//DTD SVG 1.1//EN" "http://www.w3.org/Graphics/SVG/1.1/DTD/svg11.dtd">
<svg xmlns="http://www.w3.org/2000/svg" xml:space="preserve" width="580px" height="580px" shape-rendering="geometricPrecision" text-rendering="geometricPrecision" image-rendering="optimizeQuality" fill-rule="nonzero" clip-rule="nonzero" viewBox="0 0 5800 5800" xmlns:xlink="http://www.w3.org/1999/xlink">
	<title>garbage_overflow icon</title>
	<desc>garbage_overflow icon from the IconExperience.com I-Collection. Copyright by INCORS GmbH (www.incors.com).</desc>
		<path id="curve28" d="M1159 4867c-69,211 -138,422 -206,633 -222,0 -443,0 -665,0 -68,-211 -137,-422 -205,-633 179,-130 358,-260 538,-390 179,130 358,260 538,390zm-159 -3967l53 0 282 -418c186,53 371,106 557,159l158 -255 372 92 3 -79c250,-72 501,-143 751,-215l165 245 23 -29c190,68 381,135 572,202l67 -205c211,0 422,0 634,0l163 503c165,0 300,135 300,300 0,175 -140,300 -312,300l-500 4000 -2776 0 -500 -4000c-172,0 -312,-125 -312,-300 0,-165 135,-300 300,-300zm294 0l437 0 28 -45 -2 -44 -337 -97 -126 186zm672 0l596 0 -13 -186 -405 -100 -178 286zm796 0l239 0 -10 -14c74,-97 148,-193 222,-290l-121 -180 -425 122 70 17 25 345zm481 0l491 0 4 -156 -304 -107 -196 255 5 8zm806 0l541 0 -98 -303 -344 0 -99 303zm-1108 1601l230 -230 -142 -142 -470 471 470 471 142 -142 -228 -228c419,22 751,366 757,787l198 -53c-33,-510 -447,-914 -957,-934zm804 1534l84 314 193 -52 -172 -643 -643 173 52 193 312 -84c-148,227 -399,364 -671,364 -141,0 -274,-37 -390,-101l-53 198c134,66 284,103 443,103 344,0 662,-176 845,-465zm-1731 -70l-314 -85 -52 193 643 173 172 -643 -193 -52 -83 312c-56,-109 -87,-232 -87,-363 0,-282 148,-542 389,-687l-145 -144c-277,185 -444,496 -444,831 0,168 41,326 114,465zm2786 -2865l-3800 0c-55,0 -100,45 -100,100 0,55 45,100 100,100l3800 0c55,0 100,-45 100,-100 0,-55 -45,-100 -100,-100zm-4179 3623l-304 221 116 356 375 0 116 -356 -303 -221z"/>
</svg>