<?xml version="1.0" encoding="UTF-8"?>
<!DOCTYPE svg PUBLIC "-//W3C//DTD SVG 1.1//EN" "http://www.w3.org/Graphics/SVG/1.1/DTD/svg11.dtd">
<svg xmlns="http://www.w3.org/2000/svg" xml:space="preserve" width="580px" height="580px" shape-rendering="geometricPrecision" text-rendering="geometricPrecision" image-rendering="optimizeQuality" fill-rule="nonzero" clip-rule="nonzero" viewBox="0 0 5800 5800" xmlns:xlink="http://www.w3.org/1999/xlink">
	<title>garbage_make_empty icon</title>
	<desc>garbage_make_empty icon from the IconExperience.com I-Collection. Copyright by INCORS GmbH (www.incors.com).</desc>
	<path id="curve0" d="M563 2487c-106,-127 -89,-316 38,-423 122,-102 304,-90 413,27l3053 -1973 1629 1940 -2474 2665c95,124 78,303 -40,407l-2 2 -3 2 -1 0 0 0 0 0 0 0c-127,107 -316,90 -422,-37l-2191 -2610zm580 -242l1950 2323 2336 -2517 -1401 -1670 -2885 1864zm894 2558l100 -130 131 156 -145 189 183 266 275 -82 20 23c47,57 104,100 166,130l-26 8 -517 153c-87,-126 -174,-253 -261,-379 -107,137 -214,274 -321,410 -210,-76 -420,-153 -630,-229l-59 182c-222,0 -443,0 -665,0 -68,-211 -137,-422 -205,-633 179,-130 358,-260 538,-390l268 195 39 28 7 -201 751 -215 351 519zm1504 -3679l-164 235c62,-7 125,-8 188,-3 387,34 710,311 801,688l-168 78c-61,-317 -326,-557 -649,-585 -46,-4 -92,-4 -138,1l231 162 -114 163 -501 -351 351 -502 163 114zm899 1751l-121 -260c-153,360 -521,581 -912,547 -59,-5 -118,-16 -175,-32l16 -185c57,19 115,31 174,37 308,27 600,-145 725,-426l-255 119 -85 -181 556 -259 259 555 -182 85zm-1965 -97l285 25c-138,-184 -196,-407 -178,-623 19,-213 112,-419 277,-576l152 107c-148,128 -232,303 -248,485 -15,168 29,342 135,488l24 -281 199 17 -53 611 -610 -54 17 -199zm-1555 2163l-299 -218 -304 221 116 356 375 0 112 -359zm682 -425l-472 135 -18 491 462 168 303 -387 -275 -407zm-886 -2157l2191 2610c35,42 99,47 141,12 42,-35 47,-99 13,-140l-2191 -2611c-35,-42 -100,-47 -141,-12 -42,35 -48,99 -13,141z"/>
</svg>