<?xml version="1.0" encoding="UTF-8"?>
<!DOCTYPE svg PUBLIC "-//W3C//DTD SVG 1.1//EN" "http://www.w3.org/Graphics/SVG/1.1/DTD/svg11.dtd">
<svg xmlns="http://www.w3.org/2000/svg" xml:space="preserve" width="580px" height="580px" shape-rendering="geometricPrecision" text-rendering="geometricPrecision" image-rendering="optimizeQuality" fill-rule="nonzero" clip-rule="nonzero" viewBox="0 0 5800 5800" xmlns:xlink="http://www.w3.org/1999/xlink">
	<title>gas_cylinder icon</title>
	<desc>gas_cylinder icon from the IconExperience.com I-Collection. Copyright by INCORS GmbH (www.incors.com).</desc>
	<path id="curve0" d="M4408 4778c60,59 92,138 92,222l0 400 0 100 -100 0 -3100 0 0 -500c0,-84 32,-163 92,-222 44,-44 44,-118 0,-162 -60,-60 -92,-137 -92,-222l0 -649c-59,-61 -100,-160 -100,-245 0,-85 42,-184 101,-246l3 -367c5,-628 423,-1153 996,-1375l0 -912c0,-165 135,-300 300,-300l600 0c165,0 300,135 300,300l0 912c573,222 991,747 996,1375l3 367c59,62 101,161 101,246 0,85 -41,184 -100,245l0 649c0,85 -32,162 -92,222 -22,22 -33,51 -33,81 0,30 11,59 33,81zm-141 141c-62,-61 -92,-142 -92,-222 0,-80 30,-161 92,-222 23,-23 33,-48 33,-81l0 -749 47 -29c29,-19 53,-82 53,-116 0,-34 -25,-97 -54,-116l-45 -29 -4 -466c-5,-544 -371,-996 -865,-1189l-1064 0c-494,193 -860,645 -865,1189l-4 466 -45 29c-29,19 -54,82 -54,116 0,34 24,97 53,116l47 29 0 749c0,33 10,58 33,81 122,122 122,322 0,444 -23,24 -33,48 -33,81l0 300 2800 0 0 -300c0,-33 -10,-57 -33,-81zm-1067 -4419l-600 0c-55,0 -100,45 -100,100l0 900 800 0 0 -900c0,-55 -45,-100 -100,-100z"/>
</svg>