<?xml version="1.0" encoding="UTF-8"?>
<!DOCTYPE svg PUBLIC "-//W3C//DTD SVG 1.1//EN" "http://www.w3.org/Graphics/SVG/1.1/DTD/svg11.dtd">
<svg xmlns="http://www.w3.org/2000/svg" xml:space="preserve" width="580px" height="580px" shape-rendering="geometricPrecision" text-rendering="geometricPrecision" image-rendering="optimizeQuality" fill-rule="nonzero" clip-rule="nonzero" viewBox="0 0 5800 5800" xmlns:xlink="http://www.w3.org/1999/xlink">
	<title>gas_cylinder icon</title>
	<desc>gas_cylinder icon from the IconExperience.com I-Collection. Copyright by INCORS GmbH (www.incors.com).</desc>
	<path id="curve0"  d="M4408 4778c60,59 92,138 92,222l0 500 -3200 0 0 -500c0,-84 32,-163 92,-222 44,-44 44,-118 0,-162 -60,-60 -92,-137 -92,-222l0 -649c-59,-61 -100,-160 -100,-245 0,-85 42,-184 101,-246l3 -367c4,-552 329,-1029 806,-1287l1580 0c477,258 802,735 806,1287l3 367c59,62 101,161 101,246 0,85 -41,184 -100,245l0 649c0,85 -32,162 -92,222 -44,44 -44,118 0,162zm-2108 -3378l0 -800c0,-165 135,-300 300,-300l600 0c165,0 300,135 300,300l0 800 -1200 0z"/>
</svg>