<?xml version="1.0" encoding="UTF-8"?>
<!DOCTYPE svg PUBLIC "-//W3C//DTD SVG 1.1//EN" "http://www.w3.org/Graphics/SVG/1.1/DTD/svg11.dtd">
<svg xmlns="http://www.w3.org/2000/svg" xml:space="preserve" width="580px" height="580px" shape-rendering="geometricPrecision" text-rendering="geometricPrecision" image-rendering="optimizeQuality" fill-rule="nonzero" clip-rule="nonzero" viewBox="0 0 5800 5800" xmlns:xlink="http://www.w3.org/1999/xlink">
	<title>gauntlet icon</title>
	<desc>gauntlet icon from the IconExperience.com I-Collection. Copyright by INCORS GmbH (www.incors.com).</desc>
	<path id="curve0"  d="M4600 2800l0 -315c-125,-73 -304,-109 -446,-66l0 -295c140,-36 311,-32 446,17l0 -209c-142,-38 -301,-42 -446,-13l0 -295c140,-36 311,-32 446,17l0 -209c-142,-38 -301,-42 -446,-13l0 -474c295,-143 646,71 646,405 0,483 0,967 0,1450 0,480 -92,722 -175,941 -105,276 -195,513 -28,1237 15,62 -34,122 -97,122 -403,0 -821,290 -1114,493 -46,32 -90,62 -131,90 -34,23 -78,22 -110,0 0,1 -106,-72 -114,-78 -295,-203 -732,-505 -1231,-505 -73,0 -120,-75 -92,-140 193,-585 21,-775 -179,-996 -203,-223 -429,-473 -429,-1064l0 -1100c0,-115 204,-159 291,-159 72,0 142,18 207,47 134,95 202,282 202,412l0 257c-160,-43 -340,-43 -500,0l0 208c150,-54 350,-54 500,0l0 220c-11,1 -22,3 -32,5 -211,42 -370,267 -430,464 38,159 101,278 172,378 -27,-162 2,-306 58,-419 44,-88 136,-207 239,-227 17,-3 32,-3 44,1 14,8 31,13 49,13 55,0 100,-45 100,-100 0,-83 0,-167 0,-250 0,-215 251,-333 405,-182 93,91 244,69 308,-45 96,-172 342,-160 424,19 55,121 208,155 308,67 122,-108 306,-60 372,83 27,58 75,98 137,112 62,13 124,-3 171,-45 43,-38 98,-59 155,-59 84,0 177,25 244,73 45,32 76,75 76,127zm-2600 -527c132,-88 301,-97 442,-23l0 -427c-138,-35 -308,-31 -442,17l0 -208c142,-38 298,-42 442,-14l0 -495c-138,-35 -308,-31 -442,17l0 -208c142,-38 298,-42 442,-14l0 -575c-295,-139 -642,75 -642,407l0 832c129,133 200,334 200,518l0 173zm642 -71l0 -436c171,-86 436,-88 609,-4l0 492c-156,-182 -426,-206 -609,-52zm808 75l0 -452c156,-41 360,-33 504,39l0 570c-114,-159 -318,-226 -504,-157zm-808 -2055c169,-159 436,-162 609,-7l0 632c-190,-64 -420,-63 -609,3l0 -628zm808 125c166,-83 368,-54 504,72l0 554c-157,-53 -340,-62 -504,-28l0 -598zm-808 1203c189,-66 419,-67 609,-3l0 -485c-172,-84 -439,-83 -609,4l0 484zm808 70c163,-34 347,-25 504,28l0 -459c-144,-72 -348,-80 -504,-39l0 470z"/>
</svg>