<?xml version="1.0" encoding="UTF-8"?>
<!DOCTYPE svg PUBLIC "-//W3C//DTD SVG 1.1//EN" "http://www.w3.org/Graphics/SVG/1.1/DTD/svg11.dtd">
<svg xmlns="http://www.w3.org/2000/svg" xml:space="preserve" width="580px" height="580px" shape-rendering="geometricPrecision" text-rendering="geometricPrecision" image-rendering="optimizeQuality" fill-rule="nonzero" clip-rule="nonzero" viewBox="0 0 5800 5800" xmlns:xlink="http://www.w3.org/1999/xlink">
	<title>gauntlet icon</title>
	<desc>gauntlet icon from the IconExperience.com I-Collection. Copyright by INCORS GmbH (www.incors.com).</desc>
	<path id="curve0" d="M1338 3254c60,-194 218,-422 430,-464 10,-2 21,-4 32,-5 0,-73 0,-146 0,-219 -150,-55 -350,-55 -500,-1l0 335c0,137 14,253 38,354zm1362 -2422c160,-43 340,-43 500,0 0,-24 1,-282 0,-282 0,-138 -112,-250 -250,-250 -138,0 -250,112 -250,250 0,94 0,188 0,282zm0 208l0 492c160,-43 340,-43 500,0l0 -492c-150,-54 -350,-54 -500,0zm0 700l0 420c159,-94 359,-76 500,43l0 -463c-150,-54 -350,-54 -500,0zm-200 547l0 -447c-150,-54 -350,-54 -500,0l0 433c152,-102 353,-96 500,14zm0 -655l0 -492c-150,-54 -350,-54 -500,0l0 492c160,-43 340,-43 500,0zm0 -700l0 -182c0,-138 -112,-250 -250,-250 -138,0 -250,112 -250,250l0 182c160,-43 340,-43 500,0zm900 -182l0 207c80,-21 165,-32 250,-32 85,0 170,11 250,32l0 -207c0,-138 -112,-250 -250,-250 -138,0 -250,112 -250,250zm0 415l0 467c160,-43 340,-43 500,0l0 -282 0 -50 0 -135c-75,-26 -162,-40 -250,-40 -88,0 -175,14 -250,40zm0 675l0 459c62,-32 130,-49 200,-49 87,0 168,26 236,71 23,15 44,32 64,50l0 -531c-150,-54 -350,-54 -500,0zm700 -490l0 82c160,-43 341,-43 500,0l0 -82c0,-138 -112,-250 -250,-250 -138,0 -250,112 -250,250zm0 290l0 292c80,-21 165,-32 250,-32 85,0 171,11 250,32l0 -291c-150,-55 -350,-55 -500,-1zm0 500l0 260c0,16 -4,31 -10,44 12,-6 24,-11 37,-16 48,-18 99,-28 153,-28 106,0 225,29 320,85l0 -344c-75,-27 -162,-41 -250,-41 -88,0 -175,14 -250,40zm-2800 217c160,-43 341,-43 500,0l0 -57c0,-158 -102,-321 -234,-404 -80,-50 -176,-74 -266,-37l0 498zm3200 2743c-403,0 -821,290 -1114,493 -46,32 -90,62 -131,90 -34,23 -78,22 -110,0 0,1 -106,-72 -114,-78 -295,-203 -732,-505 -1231,-505 -73,0 -120,-75 -92,-140 193,-585 21,-775 -179,-996 -203,-223 -429,-473 -429,-1064l0 -1100c0,-36 19,-67 47,-85 78,-51 161,-74 244,-74 156,0 303,81 409,191l0 -1082c0,-248 202,-450 450,-450 105,0 201,36 277,96 65,-178 234,-296 423,-296 189,0 358,118 423,296 76,-60 172,-96 277,-96 248,0 450,201 450,450l0 226c72,-48 158,-76 250,-76 248,0 450,202 450,450 -1,0 0,1329 0,1450 0,480 -92,722 -175,941 -105,276 -195,513 -28,1237 15,63 -33,121 -97,122zm-1135 -2548c-30,8 -60,8 -91,2 -62,-14 -110,-54 -137,-112 -81,-177 -321,-191 -421,-24 -27,56 -85,95 -146,104 -62,9 -121,-10 -165,-54 -94,-92 -243,-90 -334,4 -44,45 -71,108 -71,178 0,83 0,167 0,250 0,55 -45,100 -100,100 -17,0 -32,-4 -46,-12 -12,-5 -29,-6 -47,-2 -37,7 -79,30 -119,66 -158,141 -212,376 -178,580 53,74 111,137 166,198 228,252 426,471 257,1076 493,44 873,304 1267,574 354,-243 740,-524 1177,-573 -145,-694 -49,-946 61,-1236 77,-203 162,-426 162,-871 0,-140 -209,-200 -320,-200 -57,0 -112,21 -155,59 -47,42 -109,58 -171,45 -62,-14 -110,-54 -137,-112 -20,-43 -51,-79 -89,-104 -62,-40 -141,-49 -210,-23 -62,24 -89,70 -153,87z"/>
</svg>