<?xml version="1.0" encoding="UTF-8"?>
<!DOCTYPE svg PUBLIC "-//W3C//DTD SVG 1.1//EN" "http://www.w3.org/Graphics/SVG/1.1/DTD/svg11.dtd">
<svg xmlns="http://www.w3.org/2000/svg" xml:space="preserve" width="580px" height="580px" shape-rendering="geometricPrecision" text-rendering="geometricPrecision" image-rendering="optimizeQuality" fill-rule="nonzero" clip-rule="nonzero" viewBox="0 0 5800 5800" xmlns:xlink="http://www.w3.org/1999/xlink">
	<title>gauze_bandage icon</title>
	<desc>gauze_bandage icon from the IconExperience.com I-Collection. Copyright by INCORS GmbH (www.incors.com).</desc>
		<path id="curve29" d="M3000 4500c1154,0 2100,-679 2100,-1900 0,-939 -761,-1700 -1700,-1700 -939,0 -1700,761 -1700,1700 0,828 672,1500 1500,1500 828,0 1500,-672 1500,-1500 0,-718 -582,-1300 -1300,-1300 -718,0 -1300,582 -1300,1300 0,608 492,1100 1100,1100 608,0 1100,-492 1100,-1100 0,-497 -403,-900 -900,-900 -497,0 -900,403 -900,900 0,387 313,700 700,700 387,0 700,-313 700,-700 0,-276 -224,-500 -500,-500 -276,0 -500,224 -500,500 0,166 134,300 300,300 166,0 300,-134 300,-300 0,-56 -44,-100 -100,-100 -56,0 -100,44 -100,100 0,55 -45,100 -100,100 -55,0 -100,-45 -100,-100 0,-165 135,-300 300,-300 165,0 300,135 300,300 0,276 -224,500 -500,500 -276,0 -500,-224 -500,-500 0,-387 313,-700 700,-700 387,0 700,313 700,700 0,497 -403,900 -900,900 -497,0 -900,-403 -900,-900 0,-607 493,-1100 1100,-1100 607,0 1100,493 1100,1100 0,718 -582,1300 -1300,1300 -718,0 -1300,-582 -1300,-1300 0,-828 672,-1500 1500,-1500 828,0 1500,672 1500,1500 0,939 -761,1700 -1700,1700 -939,0 -1700,-761 -1700,-1700 0,-1049 851,-1900 1900,-1900 1049,0 1900,851 1900,1900 0,1332 -1034,2100 -2300,2100l-2700 0 0 -2600 1060 0c-16,66 -29,132 -39,200l-821 0 0 2200c833,0 1667,0 2500,0z"/>
</svg>