<?xml version="1.0" encoding="UTF-8"?>
<!DOCTYPE svg PUBLIC "-//W3C//DTD SVG 1.1//EN" "http://www.w3.org/Graphics/SVG/1.1/DTD/svg11.dtd">
<svg xmlns="http://www.w3.org/2000/svg" xml:space="preserve" width="580px" height="580px" shape-rendering="geometricPrecision" text-rendering="geometricPrecision" image-rendering="optimizeQuality" fill-rule="nonzero" clip-rule="nonzero" viewBox="0 0 5800 5800" xmlns:xlink="http://www.w3.org/1999/xlink">
	<title>gearwheel icon</title>
	<desc>gearwheel icon from the IconExperience.com I-Collection. Copyright by INCORS GmbH (www.incors.com).</desc>
		<path id="curve28"  d="M4098 1295c62,46 120,96 176,149l486 -132c117,-32 239,14 306,115 73,109 137,221 194,339 53,110 31,237 -57,322l-361 350c18,76 31,153 39,230l456 210c110,51 174,165 161,285 -14,129 -38,259 -70,385 -30,118 -129,201 -251,210l-502 36c-35,69 -74,135 -117,199l214 455c52,110 28,237 -60,321 -49,47 -98,90 -146,131 -48,39 -100,79 -156,119 -98,71 -228,71 -326,0l-408 -295c-71,30 -143,55 -216,77l-129 485c-31,118 -131,201 -253,208 -130,8 -262,7 -392,-3 -121,-9 -221,-93 -250,-210l-123 -488c-72,-23 -144,-49 -213,-79l-410 290c-99,69 -230,68 -327,-4 -106,-78 -207,-164 -300,-256 -87,-84 -109,-211 -56,-321l219 -453c-41,-63 -78,-128 -111,-195l-502 -42c-121,-11 -220,-95 -248,-213 -32,-129 -53,-257 -66,-389 -12,-121 53,-233 164,-282l459 -206c9,-74 22,-149 40,-222l-358 -355c-86,-86 -107,-213 -53,-322 29,-59 60,-116 93,-174 34,-57 69,-112 106,-166 68,-100 190,-145 306,-111l485 137c55,-51 114,-100 174,-145l-46 -502c-11,-121 55,-233 166,-281 119,-53 244,-98 370,-133 117,-33 238,12 307,112l282 416c76,-4 153,-3 229,1l288 -414c69,-100 191,-143 307,-109 127,37 248,82 368,136 111,50 176,163 163,283l-51 501zm-1198 693c-497,0 -900,403 -900,900 0,497 403,900 900,900 497,0 900,-403 900,-900 0,-497 -403,-900 -900,-900z"/>
</svg>