<?xml version="1.0" encoding="UTF-8"?>
<!DOCTYPE svg PUBLIC "-//W3C//DTD SVG 1.1//EN" "http://www.w3.org/Graphics/SVG/1.1/DTD/svg11.dtd">
<svg xmlns="http://www.w3.org/2000/svg" xml:space="preserve" width="580px" height="580px" shape-rendering="geometricPrecision" text-rendering="geometricPrecision" image-rendering="optimizeQuality" fill-rule="nonzero" clip-rule="nonzero" viewBox="0 0 5800 5800" xmlns:xlink="http://www.w3.org/1999/xlink">
	<title>gearwheels icon</title>
	<desc>gearwheels icon from the IconExperience.com I-Collection. Copyright by INCORS GmbH (www.incors.com).</desc>
		<path id="curve28"  d="M2300 3000c-331,0 -600,269 -600,600 0,331 269,600 600,600 331,0 600,-269 600,-600 0,-331 -269,-600 -600,-600zm2447 -1028l42 273c13,89 -32,174 -111,215 -71,36 -146,68 -221,93 -85,30 -176,2 -231,-69l-169 -222c-43,-2 -86,-7 -129,-16l-216 173c-15,12 -32,22 -49,29 78,-2 152,36 195,101 53,79 99,159 140,244 43,90 25,193 -46,262l-244 236c10,44 17,89 22,134l309 142c89,41 141,134 130,231 0,0 -44,254 -50,277 -24,95 -105,163 -204,170l-339 25c-21,39 -44,78 -68,115l145 307c42,90 22,194 -49,262 -69,65 -140,124 -217,179 -79,57 -186,57 -266,0l1 0 -276 -199c-41,17 -82,31 -125,44l-87 328c-25,96 -107,163 -206,169 -93,6 -188,5 -281,-2 -98,-7 -180,-76 -204,-171l-83 -330c-41,-13 -82,-29 -122,-46l-278 196c-80,57 -187,56 -265,-2 -76,-56 -149,-118 -216,-184 -71,-69 -89,-172 -46,-261l149 -307c-23,-36 -45,-74 -65,-112l-339 -28c-98,-9 -178,-78 -201,-173 -23,-93 -38,-185 -48,-280 -9,-98 44,-189 134,-229l310 -139c5,-43 13,-86 23,-128l-242 -240c-70,-70 -87,-173 -44,-262 21,-42 44,-83 68,-125 24,-41 49,-81 75,-119 56,-81 155,-118 250,-91l327 93c32,-29 66,-57 101,-84l-31 -339c-9,-98 44,-189 134,-228 42,-19 85,-36 132,-53 45,-16 90,-30 134,-43 95,-27 194,10 249,91l191 282c44,-2 89,-2 133,0l194 -280c57,-81 156,-116 250,-88 48,14 93,28 134,44 44,16 87,34 131,53 76,35 127,107 133,191 2,-10 6,-20 10,-30l106 -257c-19,-38 -37,-79 -50,-119l-257 -101c-84,-33 -136,-114 -131,-203 4,-81 14,-159 29,-238 18,-88 88,-154 176,-165l276 -37c24,-36 50,-70 79,-103l-42 -273c-13,-89 32,-175 112,-215 35,-18 70,-35 108,-51 13,-5 105,-43 112,-43 85,-29 176,-1 231,70l169 222c43,2 86,7 129,16l216 -173c70,-56 166,-60 241,-11 67,43 131,91 191,144 68,59 90,152 55,235l-106 257c20,39 36,78 50,119l257 101c84,33 136,114 131,203 -4,81 -14,159 -29,238 -18,88 -88,154 -176,165l-276 37c-24,36 -50,70 -79,103zm-1166 492c-38,-1 -76,-12 -110,-34 -67,-44 -131,-91 -191,-144 -34,-29 -56,-67 -66,-109 -2,-6 -3,-12 -4,-19l-31 301c36,27 70,56 103,86l299 -81zm519 -1464c-221,0 -400,179 -400,400 0,221 179,400 400,400 221,0 400,-179 400,-400 0,-221 -179,-400 -400,-400z"/>
</svg>