<?xml version="1.0" encoding="UTF-8"?>
<!DOCTYPE svg PUBLIC "-//W3C//DTD SVG 1.1//EN" "http://www.w3.org/Graphics/SVG/1.1/DTD/svg11.dtd">
<svg xmlns="http://www.w3.org/2000/svg" xml:space="preserve" width="580px" height="580px" shape-rendering="geometricPrecision" text-rendering="geometricPrecision" image-rendering="optimizeQuality" fill-rule="nonzero" clip-rule="nonzero" viewBox="0 0 5800 5800" xmlns:xlink="http://www.w3.org/1999/xlink">
	<title>geiger_counter icon</title>
	<desc>geiger_counter icon from the IconExperience.com I-Collection. Copyright by INCORS GmbH (www.incors.com).</desc>
	<path id="curve0"  d="M800 3500l0 1000c0,221 179,400 400,400 221,0 400,-179 400,-400l0 -2100c0,-331 269,-600 600,-600l100 0 0 -1100 3200 0 0 4400 -3200 0 0 -3100 -100 0c-220,0 -400,180 -400,400l0 2100c0,331 -269,600 -600,600 -331,0 -600,-269 -600,-600l0 -1000c-165,0 -300,-135 -300,-300l0 -2300c267,0 533,0 800,0l0 2300c0,165 -135,300 -300,300zm2100 -2200l0 1000 2000 0 0 -1000 -2000 0zm1800 200l0 600 -700 0 0 -300c0,-55 -45,-100 -100,-100 -55,0 -100,45 -100,100l0 300 -700 0 0 -600 1600 0zm-1000 2039c0,101 82,183 182,183 101,0 183,-83 183,-183 0,-100 -82,-182 -183,-182 -100,0 -182,82 -182,182zm343 -288c90,51 154,142 166,249l691 0c0,-370 -201,-694 -501,-867l-356 618zm33 554c-106,78 -250,84 -362,17l-314 544c307,178 693,178 1000,0l-324 -561zm-521 -305c14,-117 90,-216 194,-262l-349 -604c-299,173 -500,496 -500,866l655 0z"/>
</svg>