<?xml version="1.0" encoding="UTF-8"?>
<!DOCTYPE svg PUBLIC "-//W3C//DTD SVG 1.1//EN" "http://www.w3.org/Graphics/SVG/1.1/DTD/svg11.dtd">
<svg xmlns="http://www.w3.org/2000/svg" xml:space="preserve" width="580px" height="580px" shape-rendering="geometricPrecision" text-rendering="geometricPrecision" image-rendering="optimizeQuality" fill-rule="nonzero" clip-rule="nonzero" viewBox="0 0 5800 5800" xmlns:xlink="http://www.w3.org/1999/xlink">
	<title>geiger_counter icon</title>
	<desc>geiger_counter icon from the IconExperience.com I-Collection. Copyright by INCORS GmbH (www.incors.com).</desc>
	<path id="curve0"  d="M4399 2633c300,173 501,497 501,867l-691 0c-12,-107 -76,-198 -166,-249l356 -618zm-599 -833c0,-55 45,-100 100,-100 55,0 100,45 100,100l0 300 700 0 0 -600 -1600 0 0 600 700 0 0 -300zm1100 -500l0 1000 -1000 0 -1000 0 0 -1000 2000 0zm-4100 2200l0 1000c0,221 179,400 400,400 221,0 400,-179 400,-400l0 -2100c0,-331 269,-600 600,-600l100 0 0 -1100 3200 0c0,1467 0,2933 0,4400l-3200 0 0 -3100 -100 0c-220,0 -400,180 -400,400l0 2100c0,331 -269,600 -600,600 -331,0 -600,-269 -600,-600l0 -1000c-165,0 -300,-135 -300,-300l0 -2300c267,0 533,0 800,0l0 2300c0,165 -135,300 -300,300zm3082 -143c101,0 183,82 183,182 0,100 -82,183 -183,183 -100,0 -182,-82 -182,-183 0,-100 82,-182 182,-182zm1418 -2457l-2800 0 0 900 0 200 0 2900 2800 0 0 -4000zm-4400 200l-400 0 0 2100c0,55 45,100 100,100l200 0c55,0 100,-45 100,-100l0 -2100zm3500 3266c-307,178 -693,178 -1000,0l314 -544c112,67 256,61 362,-17l324 561zm-1500 -866c0,-370 201,-693 500,-866l349 604c-104,46 -180,145 -194,262l-655 0z"/>
</svg>