<?xml version="1.0" encoding="UTF-8"?>
<!DOCTYPE svg PUBLIC "-//W3C//DTD SVG 1.1//EN" "http://www.w3.org/Graphics/SVG/1.1/DTD/svg11.dtd">
<svg xmlns="http://www.w3.org/2000/svg" xml:space="preserve" width="580px" height="580px" shape-rendering="geometricPrecision" text-rendering="geometricPrecision" image-rendering="optimizeQuality" fill-rule="nonzero" clip-rule="nonzero" viewBox="0 0 5800 5800" xmlns:xlink="http://www.w3.org/1999/xlink">
	<title>genius icon</title>
	<desc>genius icon from the IconExperience.com I-Collection. Copyright by INCORS GmbH (www.incors.com).</desc>
		<path id="curve28"  d="M2184 3776l231 438c0,0 0,0 0,0l142 -189 -373 -249zm1216 -776c100,-100 100,-300 -100,-400 -200,-100 -600,-100 -800,0 -200,100 -200,300 -100,400 200,-100 800,-100 1000,0zm-1102 2275c104,9 207,14 302,18 3,-284 23,-639 200,-993l-115 -115 -111 148c-88,118 -267,104 -336,-26l-216 -409c185,399 261,1077 276,1377zm1467 -1349l-203 382c-68,129 -248,144 -336,26l-108 -144c-43,42 -92,84 -118,110 177,354 197,709 200,993 95,-4 198,-9 302,-18 15,-293 87,-948 263,-1349zm-146 -152l-376 251 142 189c1,1 211,-395 234,-440zm-1204 440c0,0 0,0 0,0 0,0 0,0 0,0l0 0m0 0l0 0m0 0l0 0m1435 -601c108,68 213,127 312,183 471,265 838,471 838,1084 0,225 -254,370 -605,461 -465,121 -1113,159 -1495,159 -382,0 -1030,-38 -1495,-159 -351,-91 -605,-236 -605,-461 0,-665 335,-836 777,-1061 116,-60 241,-124 370,-204 78,-44 72,-101 63,-178 -4,-31 -7,-64 -9,-100 -34,-47 -57,-107 -81,-171 -55,-144 -123,-323 -400,-268 -49,10 -98,-18 -115,-66 -39,-115 43,-221 120,-323 26,-33 51,-66 65,-87 -102,-114 -211,-99 -340,-36 -57,33 -131,3 -147,-62 -18,-75 19,-228 100,-362 40,-66 90,-130 150,-182 -50,-59 -121,-119 -377,-183 0,0 -99,-59 -69,-134 92,-229 250,-342 379,-435 124,-88 208,-148 41,-360 -11,-12 -20,-27 -24,-44 -13,-53 19,-108 73,-121 327,-82 422,-62 583,-30 126,26 273,39 251,-143 -10,-82 -37,-230 90,-230 277,0 391,120 484,220 31,32 58,61 86,73 60,-48 140,-93 225,-127 100,-40 209,-66 305,-66 0,0 34,6 37,7 51,21 76,79 56,130 -27,67 -34,91 -30,92 38,16 130,3 231,-10 217,-29 464,-62 589,126 29,43 19,103 -23,135 -51,38 -84,30 -77,38 11,16 65,40 129,70 182,84 427,197 486,492 10,51 -20,101 -70,116 -168,50 -165,180 -131,295 17,55 40,111 60,156 34,80 60,140 33,197 -23,44 -74,66 -121,51 -168,-56 -237,-33 -256,25 -36,105 11,302 47,456 10,41 45,210 38,244 -11,54 -63,89 -118,78 -225,-45 -251,79 -277,197 -22,103 -43,203 -124,270 -6,13 -12,25 -18,38 -38,76 -84,166 -11,210z"/>
</svg>