<?xml version="1.0" encoding="UTF-8"?>
<!DOCTYPE svg PUBLIC "-//W3C//DTD SVG 1.1//EN" "http://www.w3.org/Graphics/SVG/1.1/DTD/svg11.dtd">
<svg xmlns="http://www.w3.org/2000/svg" xml:space="preserve" width="580px" height="580px" shape-rendering="geometricPrecision" text-rendering="geometricPrecision" image-rendering="optimizeQuality" fill-rule="nonzero" clip-rule="nonzero" viewBox="0 0 5800 5800" xmlns:xlink="http://www.w3.org/1999/xlink">
	<title>genius icon</title>
	<desc>genius icon from the IconExperience.com I-Collection. Copyright by INCORS GmbH (www.incors.com).</desc>
		<path id="curve28"  d="M2184 3776l231 438c5,-3 127,-169 142,-189l-373 -249zm934 414c-43,42 -92,84 -118,110 177,354 197,709 200,993 95,-4 198,-9 302,-18 15,-293 87,-948 263,-1349l-203 382c-14,27 -34,49 -57,66 -31,23 -67,37 -104,40 -37,2 -75,-5 -109,-23 -25,-13 -47,-32 -66,-57l-108 -144zm-518 1103c3,-284 23,-639 200,-993l-115 -115 -111 148c-18,25 -41,44 -66,58 -34,18 -72,25 -109,22 -37,-3 -73,-16 -104,-39 -23,-18 -43,-40 -57,-67l-216 -409c185,399 261,1077 276,1377 104,9 207,14 302,18zm800 -2293c-200,-100 -800,-100 -1000,0 -100,-100 -100,-300 100,-400 200,-100 600,-100 800,0 200,100 200,300 100,400zm829 -2031c-89,-41 -163,-75 -206,-132 -53,-71 -56,-143 20,-229 -83,-24 -209,-7 -324,8 -127,17 -244,33 -330,-1 -83,-33 -130,-93 -122,-196 -33,9 -66,20 -98,32 -82,33 -156,77 -198,120 -20,19 -45,29 -71,29 -126,0 -188,-66 -261,-143 -52,-56 -113,-121 -230,-146 21,172 32,280 -278,384 -15,4 -30,6 -45,4 0,3 -151,-27 -167,-30 -107,-22 -178,-37 -350,-4 176,281 34,383 -166,526 -86,61 -186,133 -259,246 251,78 316,159 382,241 13,17 27,34 44,51 39,39 40,102 1,141 -9,9 -20,16 -31,21 -66,35 -123,102 -166,173 -17,29 -32,57 -44,84 55,-11 108,-13 160,-4 109,18 205,81 290,197 13,18 20,39 20,59 0,79 -57,153 -116,231 -14,18 -28,36 -41,54 308,0 393,225 463,410 23,59 43,112 65,134 19,20 29,45 29,71 0,0 7,105 8,115 6,52 11,99 9,143l538 359 68 45c24,9 50,13 77,13 27,0 53,-4 77,-13l68 -45 554 -370c6,-79 47,-159 84,-233 10,-20 19,-39 26,-54 8,-18 21,-33 36,-43 33,-22 48,-92 63,-163 40,-186 82,-380 372,-370 -4,-19 -9,-41 -14,-63 -42,-177 -96,-404 -42,-564 43,-130 138,-211 323,-193 -14,-36 -29,-75 -41,-117 -55,-185 -62,-394 170,-506 -68,-143 -226,-216 -347,-272zm-844 3245l234 -440 -376 251 142 189zm15 -4014c12,0 25,3 37,7 51,21 76,79 56,130 -27,67 -34,91 -30,92 38,16 130,3 231,-10 217,-29 464,-62 589,126 29,43 19,103 -23,135 -51,38 -84,30 -77,38 11,16 65,40 129,70 182,84 427,197 486,492 10,51 -20,101 -70,116 -168,50 -165,180 -131,295 17,55 40,111 60,156 34,80 60,140 33,196 -22,45 -73,67 -121,52 -168,-56 -237,-33 -256,25 -36,105 11,302 47,456 22,91 40,169 40,224 -6,64 -53,111 -120,98 -225,-45 -251,79 -277,197 -22,103 -43,203 -124,270 -6,13 -12,25 -18,38 -38,76 -84,166 -11,210 108,68 213,127 312,183 471,265 838,471 838,1084 0,225 -254,370 -605,461 -465,121 -1113,159 -1495,159 -382,0 -1030,-38 -1495,-159 -351,-91 -605,-236 -605,-461 0,-665 335,-836 777,-1061 116,-60 241,-124 370,-204 78,-44 72,-101 63,-178 -4,-31 -7,-64 -9,-100 -34,-47 -57,-107 -81,-171 -55,-144 -123,-323 -400,-268 -49,10 -98,-18 -115,-66 -39,-115 43,-221 120,-323 26,-33 51,-66 65,-87 -43,-48 -87,-74 -133,-82 -59,-10 -128,8 -207,46 -8,5 -17,9 -26,11 -54,13 -108,-20 -121,-73 -18,-75 19,-228 100,-362 40,-66 90,-130 150,-182 -113,-134 -245,-129 -390,-187 -51,-21 -76,-79 -56,-130 92,-229 250,-342 379,-435 124,-88 208,-148 41,-360 -11,-12 -20,-27 -24,-44 -13,-53 19,-108 73,-121 327,-82 422,-62 583,-30 37,8 79,17 132,25 133,-49 128,-96 119,-168 -5,-38 -10,-80 -10,-130 0,-55 45,-100 100,-100 277,0 391,120 484,220 31,32 58,61 86,73 60,-48 140,-93 225,-127 100,-40 209,-66 305,-66z"/>
</svg>