<?xml version="1.0" encoding="UTF-8"?>
<!DOCTYPE svg PUBLIC "-//W3C//DTD SVG 1.1//EN" "http://www.w3.org/Graphics/SVG/1.1/DTD/svg11.dtd">
<svg xmlns="http://www.w3.org/2000/svg" xml:space="preserve" width="580px" height="580px" shape-rendering="geometricPrecision" text-rendering="geometricPrecision" image-rendering="optimizeQuality" fill-rule="nonzero" clip-rule="nonzero" viewBox="0 0 5800 5800" xmlns:xlink="http://www.w3.org/1999/xlink">
	<title>ghost icon</title>
	<desc>ghost icon from the IconExperience.com I-Collection. Copyright by INCORS GmbH (www.incors.com).</desc>
	<path id="curve0" d="M3413 1396c-188,-92 -413,-83 -413,319 0,352 232,685 465,685 232,0 246,-342 235,-548 -11,-206 -100,-365 -287,-456zm-1026 0c188,-92 413,-37 413,365 0,351 -232,639 -465,639 -232,0 -246,-342 -235,-548 11,-206 100,-365 287,-456zm-687 304c0,419 56,670 108,902 48,212 92,410 92,698 0,367 -301,606 -503,767 -46,36 -86,68 -111,92 -91,88 -160,199 -208,319 -52,129 -78,269 -78,402 0,111 191,200 455,268 444,116 1073,152 1445,152 372,0 1001,-36 1445,-152 264,-68 455,-157 455,-268 0,-134 -26,-273 -78,-402 -47,-120 -117,-231 -208,-319 -24,-23 -63,-54 -108,-89 -201,-160 -506,-402 -506,-770 0,-288 44,-486 92,-698 52,-232 108,-483 108,-902 0,-753 -443,-1200 -1200,-1200 -757,0 -1200,447 -1200,1200zm-87 945c-54,-244 -113,-507 -113,-945 0,-865 532,-1400 1400,-1400 868,0 1400,535 1400,1400 0,438 -59,701 -113,945 -45,199 -87,386 -87,655 0,272 260,478 430,613 49,39 91,72 123,103 111,108 196,243 254,389 62,153 93,318 93,475 0,225 -254,370 -605,461 -465,121 -1113,159 -1495,159 -382,0 -1030,-38 -1495,-159 -351,-91 -605,-236 -605,-461 0,-157 31,-322 93,-476 58,-145 143,-280 254,-388 34,-32 77,-67 126,-106 171,-136 427,-339 427,-610 0,-269 -42,-456 -87,-655z"/>
</svg>