<?xml version="1.0" encoding="utf-8"?>
<!-- Generator: Adobe Illustrator 25.4.1, SVG Export Plug-In . SVG Version: 6.00 Build 0)  -->
<svg version="1.1"
	 id="Ebene_1" image-rendering="optimizeQuality" text-rendering="geometricPrecision" shape-rendering="geometricPrecision"
	 xmlns="http://www.w3.org/2000/svg" xmlns:xlink="http://www.w3.org/1999/xlink" x="0px" y="0px" viewBox="0 0 580 580"
	 style="enable-background:new 0 0 580 580;" xml:space="preserve">
<desc>arrow_circle2 icon from the IconExperience.com I-Collection. Copyright by INCORS GmbH (www.incors.com).</desc>
<path id="curve28" d="M137.5,521.5l-21.3-121.2l121.2-21.4l3.5,19.8L153.3,414l29.4,20.6c81.4,57,193.7,37.2,250.7-44.2
	c33.3-47.6,41.7-107.8,22.5-162.7l18.8-6.5c21.2,60.7,12,127.9-24.9,180.7c-63.3,90.4-188,112.5-278.5,49.1l-29.4-20.6l15.5,87.7
	L137.5,521.5z M442.5,58.5l21.3,121.2l-121.2,21.4l-3.5-19.8l87.7-15.4l-29.4-20.6c-81.4-57-193.7-37.2-250.7,44.2
	c-33.3,47.6-41.7,107.8-22.5,162.7l-18.8,6.5c-21.2-60.7-12-127.9,24.9-180.7C193.6,87.7,318.4,65.7,408.8,129l29.4,20.6L422.7,62
	L442.5,58.5z"/>
</svg>
