<?xml version="1.0" encoding="UTF-8" standalone="no"?>
<svg
   xml:space="preserve"
   width="580"
   height="580"
   shape-rendering="geometricPrecision"
   text-rendering="geometricPrecision"
   image-rendering="optimizeQuality"
   fill-rule="nonzero"
   clip-rule="nonzero"
   viewBox="0 0 5800 5800"
   version="1.1"
   id="svg1"
   xmlns="http://www.w3.org/2000/svg"
   xmlns:svg="http://www.w3.org/2000/svg"
   xmlns:rdf="http://www.w3.org/1999/02/22-rdf-syntax-ns#"
   xmlns:cc="http://creativecommons.org/ns#"
   xmlns:dc="http://purl.org/dc/elements/1.1/"><defs
   id="defs1" />
	<title
   id="title1">phone_conference icon</title>
	<desc
   id="desc1">phone_conference icon from the IconExperience.com I-Collection. Copyright by INCORS GmbH (www.incors.com).</desc>
	
<metadata
   id="metadata1"><rdf:RDF><cc:Work
       rdf:about=""><dc:title>phone_conference icon</dc:title></cc:Work></rdf:RDF></metadata><g
   id="g2"
   style="display:inline"><path
     id="path2-7"
     style="clip-rule:nonzero;display:inline;fill-rule:nonzero;image-rendering:optimizeQuality;shape-rendering:geometricPrecision;text-rendering:geometricPrecision"
     d="m 2776.3735,4167.3979 -104,-133 c -27,-35 -147,-122 -187,-79 l -742,648 c -57,50 -46,124 -3,180 l 113,144 c 95,122 243,236 404,310 141,66 289,100 412,77 68,-12 133,-37 190,-74 480,-305 983,-787 1416,-1329 433,-543 796,-1145 995,-1690 24,-67 35,-139 34,-210 -2,-132 -62,-278 -152,-410 -101,-149 -237,-278 -371,-351 l -159,-87 c -60,-32 -126,-28 -161,36 l -475,876 c -10,19 -5,45 8,72 22,47 64,89 103,111 l 147,80 c 151,83 253,259 216,432 -60,282 -236,603 -459,882 -228,286 -507,531 -763,651 -80,37 -168,38 -250,13 -81,-25 -157,-78 -212,-149 z m 157,-122 c 48,62 143,113 221,76 228,-106 481,-330 691,-593 205,-257 366,-548 420,-799 18,-87 -43,-176 -117,-216 l -146,-80 c -73,-40 -148,-116 -188,-200 -39,-80 -48,-170 -4,-252 l 476,-877 c 88,-162.00003 273,-202.00003 431,-116.00003 l 159,87.00003 c 161,88 322,240 441,414 110,162 184,346 187,519 1,96 -14,191 -47,281 -206,566 -580,1188 -1026,1746 -446,558 -966,1056 -1465,1373 -79,51 -168,85 -261,102 -166,31 -356,-10 -532,-91 -188,-88 -363,-223 -477,-370 l -113,-143 c -109,-141 -109,-332 29,-453 63,-55 752,-658 753,-657 141,-111 345,-21 450,99 41,46 80,101 118,150 z M 2470.2929,330 l -141.9921,142.01172 1030,1029.00388 H 310 v 200 h 3048.3008 l -1030,1028.9844 141.9921,142.0117 1270,-1270.9961 z" /></g></svg>
