<?xml version="1.0" encoding="UTF-8"?>
<svg enable-background="new 0 0 580 580" version="1.1" viewBox="0 0 580 580" xml:space="preserve" xmlns="http://www.w3.org/2000/svg">
<g id="gi_x5F_magic_x5F_pencil">
	<path id="curve29_00000065797220689681491420000017907031959454645926_" d="m169.3 105.8 86.7-0.2-70.3 50.9 27 82.4-70.1-51.1-70.1 51.1 27-82.4-70.3-50.9 86.7 0.2 26.7-82.6 26.7 82.6zm-26.7-17.6-12.1 37.6-39.6-0.1 32.1 23.2-12.3 37.6 31.9-23.3 31.9 23.3-12.3-37.6 32.1-23.2-39.6 0.1-12.1-37.6z"/>
	<g transform="translate(-1184.2 229.53)">
		<path d="m1667-160.1 56.5 56.5c15.6 15.6 15.6 41 0 56.6l-314.3 314.4-80 29-14.7 5.4-42.9 15.6c-7.3 2.7-15.4 0.9-20.9-4.7-5.6-5.5-7.4-13.5-4.7-20.9l15.6-42.9 5.4-14.7 29-80 314.4-314.3c15.5-15.6 41.1-15.6 56.6 0zm-384.5 409.9 31.1 31.1 71.9-26.1-76.9-76.9-26.1 71.9zm309-220.7-174.4 174.4-14.2-14.2 174.4-174.4 14.2 14.2zm-30.6-111.5 84.9 84.9 63.6-63.7c7.8-7.8 7.8-20.4 0-28.2l-56.6-56.6c-7.7-7.7-20.5-7.7-28.2 0l-63.7 63.6zm70.7 99-84.8-84.8-228 228 84.8 84.8 228-228z"/>
	</g>
</g>
</svg>
