<?xml version="1.0" encoding="UTF-8"?>
<svg id="part_description" xmlns="http://www.w3.org/2000/svg" viewBox="0 0 580 580">
  <path d="M535.4,363.3c-4-2.1-8.4-3.2-13-3.2-5.7,0-11.5,1.6-16.7,5.3-3.2,2.3-6.5,4.1-10,5.2-3.2,1.1-6.7,1.7-10.3,1.7-12,0-23.1-6.7-31.2-17.6-8.8-11.7-14.2-28-14.2-46.2s5.4-34.6,14.2-46.3c8.1-10.9,19.2-17.6,31.2-17.6,3.6,0,7.1.6,10.3,1.7,3.5,1.1,6.8,2.9,10,5.2,5.3,3.7,11.1,5.4,16.9,5.3,4.5,0,9-1.2,12.9-3.2,9.6-4.9,15.3-14.5,15.2-25.3l-.9-78.3h-72.81c-.07,6.96-1.17,13.67-3.14,20h56.35l.6,58.4c0,3.2-1.7,6-4.5,7.5-1.2.6-2.6,1-3.9,1-1.6,0-3.4-.5-5-1.7-4.7-3.3-9.9-6-15.3-7.8-5.4-1.8-11-2.8-16.7-2.8-18.6,0-35.3,9.8-47.1,25.7-11.3,15-18.3,35.6-18.3,58.2s7,43.1,18.3,58.2c11.8,15.8,28.5,25.6,47.1,25.6,5.7,0,11.3-1,16.7-2.8,5.4-1.8,10.6-4.4,15.3-7.8,1.6-1.2,3.3-1.7,4.9-1.7,1.4,0,2.7.4,3.9,1,2.9,1.5,4.6,4.3,4.6,7.5l-.7,141.5h-105.4c-3.2,0-6.1-1.7-7.6-4.5,0-.3-.9-2.5-.9-4,0-1.6.5-3.3,1.6-4.9,3.4-4.7,6.1-9.8,7.9-15.3,1.8-5.4,2.8-11,2.8-16.7,0-18.6-9.8-35.2-25.7-47.1-15-11.3-35.6-18.3-58.2-18.3s-43.1,7-58.2,18.3c-15.8,11.9-25.6,28.5-25.6,47.1,0,5.7.9,11.3,2.7,16.7,1.9,5.5,4.5,10.6,7.9,15.3,1.9,2.6,2.2,6,.7,8.9-1.5,2.8-4.4,4.5-7.6,4.5h-94.5v-120c0-11.3-6.2-21.8-16-27.4-4.1-2.3-8.7-3.6-13.3-3.6-5.1,0-10.2,1.5-15,4.9-3.2,2.3-6.5,4.1-10,5.2-3.2,1.1-6.7,1.7-10.3,1.7-12,0-23.1-6.8-31.2-17.6-8.8-11.7-14.2-28.1-14.2-46.3s5.4-34.5,14.2-46.2c8.1-10.9,19.2-17.6,31.2-17.6,3.6,0,7.1.6,10.3,1.6,3.5,1.2,6.8,3,10,5.2,5.8,4.2,12.2,6.1,18.3,6.1,4.1,0,8.2-.9,11.7-2.6,9.2-4.4,14.3-13.3,14.3-23.4v-30.8h-20v30.8c0,2.3-.7,4.3-2.9,5.4-.8.4-1.9.6-3.1.6-2.1,0-4.4-.7-6.6-2.3-4.7-3.4-9.9-6-15.3-7.9-5.4-1.8-11-2.7-16.7-2.7-18.6,0-35.3,9.8-47.1,25.6-11.3,15.1-18.3,35.7-18.3,58.2s7,43.2,18.3,58.2c11.8,15.9,28.5,25.7,47.1,25.7,5.7,0,11.3-1,16.7-2.8,5.4-1.8,10.6-4.5,15.3-7.9,1.1-.7,2.2-1.1,3.3-1.1,1.2,0,2.4.4,3.6,1,3.4,1.9,5.7,6.1,5.7,10v140h114.5c10.8,0,20.4-5.9,25.3-15.5,4.9-9.6,4.1-20.8-2.2-29.5-2.2-3.2-4-6.6-5.2-10-1.1-3.3-1.6-6.8-1.6-10.4,0-12,6.7-23,17.6-31.2,11.7-8.7,28-14.2,46.2-14.2s34.6,5.5,46.3,14.2c10.8,8.2,17.6,19.2,17.6,31.2,0,3.6-.6,7.1-1.7,10.4-1.2,3.4-2.9,6.8-5.2,10-3.7,5.1-5.4,10.9-5.4,16.5.1,4.6,1.2,9.1,3.2,13,5,9.6,14.5,15.5,25.3,15.5h125.2l.1-10,.7-151.4c.1-10.8-5.7-20.4-15.3-25.3ZM17,199.2v-10c0-6.8.5-13.2,1.6-19.6,1.1-6.3,2.9-12.6,5.5-19.2l33.6-84.9c1.6-3.9,5.3-6.3,9.3-6.3h20c4.4,0,8.1,2.8,9.4,6.7,10.1,25.4,26.4,60.3,33.8,85.3,2.5,6.3,4.1,12.3,5.2,18.4,1.1,6.4,1.6,12.8,1.6,19.6v10h-20v-10c0-5.8-.4-11-1.3-16.2-.2-1.3-.5-2.5-.8-3.8H39.1c-.3,1.3-.6,2.5-.8,3.8-.9,5.1-1.3,10.4-1.3,16.2v10h-20ZM107.9,149.2l-27.7-70h-6.4l-27.7,70h61.8ZM177,199.2V59.2h70c22,0,40,18,40,40,0,9.4-3.3,18.5-9.4,25.7,12,7.3,19.4,20.2,19.4,34.3,0,22-18,40-40,40h-80ZM197,139.2v40h60c11,0,20-9,20-20s-9-20-20-20h-60ZM197,79.2v40h50c11.1,0,20-8.9,20-20s-9-20-20-20h-50ZM457,109.2h-20c0-16.5-13.5-30-30-30h-20c-16.5,0-30,13.5-30,30v40c0,16.5,13.5,30,30,30h20c16.5,0,30-13.5,30-30h20c0,27.5-22.4,50-50,50h-20c-27.6,0-50-22.5-50-50v-40c0-27.5,22.5-50,50-50h20c27.6,0,50,22.4,50,50Z"/>
</svg>