<?xml version="1.0" encoding="UTF-8"?>
<svg id="part_price" xmlns="http://www.w3.org/2000/svg" viewBox="0 0 580 580">
  <path d="M535.4,363.3c-4-2.1-8.4-3.2-13-3.2-5.7,0-11.5,1.6-16.7,5.3-3.2,2.3-6.5,4.1-10,5.2-3.2,1.1-6.7,1.7-10.3,1.7-12,0-23.1-6.7-31.2-17.6-8.8-11.7-14.2-28-14.2-46.2s5.4-34.6,14.2-46.3c8.1-10.9,19.2-17.6,31.2-17.6,3.6,0,7.1.6,10.3,1.7,3.5,1.1,6.8,2.9,10,5.2,5.3,3.7,11.1,5.4,16.9,5.3,4.5,0,9-1.2,12.9-3.2,9.6-4.9,15.3-14.5,15.2-25.3l-.9-78.3h-143.5c-3.2,0-6.1-1.7-7.6-4.5,0-.3-.9-2.5-.9-4,0-1.6.5-3.3,1.6-4.9,3.3-4.7,6-9.8,7.8-15.3,1.8-5.4,2.8-11,2.8-16.7,0-18.6-9.8-35.2-25.7-47.1-15-11.3-35.6-18.3-58.1-18.3s-43.2,7-58.2,18.3c-15.9,11.9-25.7,28.5-25.7,47.1,0,5.7,1,11.3,2.8,16.7,1.8,5.5,4.5,10.6,7.8,15.3,1.2,1.6,1.7,3.3,1.7,4.9,0,1.4-.4,2.7-1,3.9,0,2.4-5.3,4.6-7.5,4.6h-12.84c.11,1.7.17,3.43.17,5.16v14.84h12.67c10.8,0,20.3-5.9,25.2-15.5,1.4.7,3.3-11.5,3.3-13,0-5.6-1.7-11.4-5.4-16.5-2.3-3.2-4.1-6.6-5.2-10-1.1-3.3-1.7-6.8-1.7-10.4,0-12,6.7-23,17.6-31.2,11.7-8.7,28-14.2,46.3-14.2s34.5,5.5,46.2,14.2c10.9,8.2,17.6,19.2,17.6,31.2,0,3.6-.6,7.1-1.7,10.4-1.1,3.4-2.9,6.8-5.2,10-3.7,5.1-5.3,10.9-5.3,16.5,0,1.5,1.9,13.7,3.2,13,4.9,9.6,14.4,15.5,25.3,15.5h123.9l.6,58.4c0,3.2-1.7,6-4.5,7.5-1.2.6-2.6,1-3.9,1-1.6,0-3.4-.5-5-1.7-4.7-3.3-9.9-6-15.3-7.8-5.4-1.8-11-2.8-16.7-2.8-18.6,0-35.3,9.8-47.1,25.7-11.3,15-18.3,35.6-18.3,58.2s7,43.1,18.3,58.2c11.8,15.8,28.5,25.6,47.1,25.6,5.7,0,11.3-1,16.7-2.8,5.4-1.8,10.6-4.4,15.3-7.8,1.6-1.2,3.3-1.7,4.9-1.7,1.4,0,2.7.4,3.9,1,2.9,1.5,4.6,4.3,4.6,7.5l-.7,141.5h-105.4c-3.2,0-6.1-1.7-7.6-4.5,0-.3-.9-2.5-.9-4,0-1.6.5-3.3,1.6-4.9,3.4-4.7,6.1-9.8,7.9-15.3,1.8-5.4,2.8-11,2.8-16.7,0-18.6-9.8-35.2-25.7-47.1-15-11.3-35.6-18.3-58.2-18.3s-43.1,7-58.2,18.3c-15.8,11.9-25.6,28.5-25.6,47.1,0,5.7.9,11.3,2.7,16.7,1.9,5.5,4.5,10.6,7.9,15.3,1.9,2.6,2.2,6,.7,8.9-1.5,2.8-4.4,4.5-7.6,4.5h-94.5v-120c0-11.3-6.2-21.8-16-27.4-4.1-2.3-8.7-3.6-13.3-3.6-5.1,0-10.2,1.5-15,4.9-3.2,2.3-6.5,4.1-10,5.2-3.2,1.1-6.7,1.7-10.3,1.7-12,0-23.1-6.8-31.2-17.6-8.8-11.7-14.2-28.1-14.2-46.3,0-.32,0-.65.01-.97-7.06-4.78-13.28-10.72-18.4-17.53-1.05,5.96-1.61,12.15-1.61,18.5,0,22.6,7,43.2,18.3,58.2,11.8,15.9,28.5,25.7,47.1,25.7,5.7,0,11.3-1,16.7-2.8,5.4-1.8,10.6-4.5,15.3-7.9,1.1-.7,2.2-1.1,3.3-1.1,1.2,0,2.4.4,3.6,1,3.4,1.9,5.7,6.1,5.7,10v140h114.5c10.8,0,20.4-5.9,25.3-15.5,4.9-9.6,4.1-20.8-2.2-29.5-2.2-3.2-4-6.6-5.2-10-1.1-3.3-1.6-6.8-1.6-10.4,0-12,6.7-23,17.6-31.2,11.7-8.7,28-14.2,46.2-14.2s34.6,5.5,46.3,14.2c10.8,8.2,17.6,19.2,17.6,31.2,0,3.6-.6,7.1-1.7,10.4-1.2,3.4-2.9,6.8-5.2,10-3.7,5.1-5.4,10.9-5.4,16.5.1,4.6,1.2,9.1,3.2,13,5,9.6,14.5,15.5,25.3,15.5h125.2l.1-10,.7-151.4c.1-10.8-5.7-20.4-15.3-25.3ZM133.67,39.2v34h19.93c35.54,0,64.33,28.79,64.33,64.33h-16.27c0-26.51-21.47-48.07-48.07-48.07h-19.93v96.13h19.93c17.81,0,33.91,7.24,45.54,18.87s18.79,27.73,18.79,45.46c0,35.54-28.79,64.33-64.33,64.33h-19.93v34h-16.27v-34h-19.93c-35.54,0-64.33-28.79-64.33-64.33h16.27c0,26.51,21.47,48.07,48.07,48.07h19.93v-96.13h-19.93c-35.54,0-64.33-28.79-64.33-64.33s28.79-64.33,64.33-64.33h19.93v-34h16.27ZM133.67,201.86v96.13h19.93c26.59,0,48.07-21.55,48.07-48.07,0-13.26-5.37-25.29-14.07-34s-20.66-14.07-34-14.07h-19.93ZM117.4,185.59v-96.13h-19.93c-26.59,0-48.07,21.55-48.07,48.07s21.47,48.07,48.07,48.07h19.93Z"/>
</svg>