<?xml version="1.0" encoding="UTF-8"?>
<svg id="gi_wipe_all" xmlns="http://www.w3.org/2000/svg" viewBox="0 0 580 580">
  <g id="Ebene_3" data-name="Ebene 3">
    <path d="M394.07,202.67l-58.47-33.8,61.51-106.61c3.15-5.43,8.15-9.35,14.24-10.98s12.39-.76,17.82,2.39l17.61,10.22c5.43,3.15,9.35,8.26,10.98,14.35,1.63,6.09.76,12.5-2.39,17.93l-61.4,106.39h0l.11.11ZM364.51,161.26l21.84,12.61,50.86-88.14c.43-.76.43-1.41.22-1.96s-.43-1.09-1.2-1.52l-17.61-10.22c-.65-.43-1.3-.33-1.74-.22-.43.11-.98.43-1.41,1.09l-50.97,88.25h0v.11Z"/>
    <path d="M351.25,531.41l-58.25-16.52c-29.45-8.37-58.03-20.11-84.88-34.99l-61.51-34.12,16.3-27.93-21.84,20.65-85.75-72.38,71.62-49.56c10.98-7.61,20.87-16.74,29.34-27.06l52.6-63.9,196.92,115.2-29.23,62.6c-7.61,16.3-12.72,33.69-15.11,51.51l-10.22,76.51h0ZM175.74,437.74l42.6,23.69c25.43,14.13,52.38,25.21,80.31,33.15l34.78,9.89,6.96-52.27c2.72-20,8.37-39.45,16.95-57.71l21.08-45.21-164.75-96.4-41.19,49.99c-9.78,11.85-21.08,22.28-33.69,30.97l-48.9,33.8,50.21,42.28,56.29-53.25c4.24-4.02,10.65-4.24,15.11-.65,4.56,3.59,5.76,9.89,2.83,14.89l-38.91,66.62h0l.33.22Z"/>
    <path d="M413.3,320.69l-189.42-109.33,35.75-61.95,189.42,109.33-35.75,61.95ZM252.68,203.65l152.8,88.25,14.67-25.32-152.8-88.25-14.56,25.32h-.11Z"/>
  </g>
</svg>