<?xml version="1.0" encoding="UTF-8"?>
<!DOCTYPE svg PUBLIC "-//W3C//DTD SVG 1.1//EN" "http://www.w3.org/Graphics/SVG/1.1/DTD/svg11.dtd">
<svg xmlns="http://www.w3.org/2000/svg" xml:space="preserve" width="580px" height="580px" shape-rendering="geometricPrecision" text-rendering="geometricPrecision" image-rendering="optimizeQuality" fill-rule="nonzero" clip-rule="nonzero" viewBox="0 0 5800 5800" xmlns:xlink="http://www.w3.org/1999/xlink">
	<title>gift icon</title>
	<desc>gift icon from the IconExperience.com I-Collection. Copyright by INCORS GmbH (www.incors.com).</desc>
		<path id="curve28"  d="M1134 1700c246,173 857,208 1166,232l0 768 -1800 0 0 -1000 634 0zm1378 148c-180,-13 -360,-27 -539,-45 -868,-88 -897,-205 -999,-626 -12,-51 -26,-108 -45,-176 -59,-209 -38,-353 38,-444 164,-193 504,-81 698,2 364,156 799,467 1074,775 99,-44 214,-45 314,-4 275,-306 708,-615 1070,-771 194,-83 535,-195 698,-2 77,91 98,235 39,444 -19,68 -33,125 -45,176 -102,418 -131,536 -982,624 -182,19 -363,33 -545,46 -17,32 -50,53 -88,53l-600 0c-38,0 -71,-21 -88,-52zm1652 -551c-252,69 -560,209 -813,345 431,-32 711,-62 896,-104 166,-38 244,-84 288,-152 17,-79 11,-120 -79,-129 -75,-8 -176,8 -292,40zm-1715 346c-255,-137 -565,-277 -820,-346 -118,-32 -220,-48 -295,-40 -90,9 -98,49 -81,129 44,68 123,114 289,152 186,43 470,72 907,105zm-149 1257l0 2600 -1800 0 0 -2600 1800 0zm200 -927c29,17 64,27 100,27l600 0c36,0 71,-10 100,-27l0 3527 -800 0 0 -3527zm2155 -273l645 0 0 1000 -1800 0 0 -769c303,-24 903,-54 1155,-231zm645 1200l0 2600 -1800 0 0 -2600 1800 0z"/>
</svg>