<?xml version="1.0" encoding="UTF-8"?>
<!DOCTYPE svg PUBLIC "-//W3C//DTD SVG 1.1//EN" "http://www.w3.org/Graphics/SVG/1.1/DTD/svg11.dtd">
<svg xmlns="http://www.w3.org/2000/svg" xml:space="preserve" width="580px" height="580px" shape-rendering="geometricPrecision" text-rendering="geometricPrecision" image-rendering="optimizeQuality" fill-rule="nonzero" clip-rule="nonzero" viewBox="0 0 5800 5800" xmlns:xlink="http://www.w3.org/1999/xlink">
	<title>gift icon</title>
	<desc>gift icon from the IconExperience.com I-Collection. Copyright by INCORS GmbH (www.incors.com).</desc>
		<path id="curve28"  d="M2500 1900l0 3400 800 0 0 -3400c-267,0 -533,0 -800,0zm66 -420c6,-9 12,-18 19,-26 -250,-278 -656,-565 -998,-711 -121,-52 -232,-85 -322,-92 -212,-16 -190,134 -144,296 15,55 29,109 41,159 46,-29 103,-45 170,-49 105,-8 238,15 384,57 269,78 589,225 850,366zm173 -146c49,-22 104,-34 161,-34 54,0 106,11 153,30 275,-306 708,-615 1070,-771 141,-60 274,-98 386,-107 363,-27 436,245 351,549 -19,68 -33,125 -45,176 -70,286 -105,431 -393,523l878 0 0 3800c-1600,0 -3200,0 -4800,0l0 -3800 866 0c-287,-92 -323,-237 -392,-523 -12,-51 -26,-108 -45,-176 -85,-304 -12,-576 351,-549 112,9 244,47 385,107 364,156 799,467 1074,775zm471 113c8,11 16,21 24,32 259,-140 576,-287 843,-365 144,-42 276,-65 381,-57 67,4 124,20 169,48 12,-49 25,-103 41,-158 45,-162 67,-312 -144,-296 -90,7 -201,40 -322,92 -339,145 -741,428 -992,704zm290 453l0 800 1600 0 0 -800 -1600 0zm0 1000l0 2400 1600 0 0 -2400 -1600 0zm-1200 2400l0 -2400 -1600 0 0 2400 1600 0zm0 -2600l0 -800 -1600 0 0 800 1600 0zm150 -1057c-244,-131 -540,-265 -790,-337 -123,-36 -233,-56 -315,-50 -86,6 -108,31 -95,113 103,161 347,210 1200,274zm2088 -274c5,-30 5,-54 -1,-71 -8,-26 -42,-39 -92,-42 -81,-6 -190,14 -313,50 -247,72 -539,206 -782,336 844,-63 1086,-113 1188,-273zm-1838 331l400 0c0,-111 -89,-200 -200,-200 -111,0 -200,89 -200,200z"/>
</svg>