<?xml version="1.0" encoding="UTF-8"?>
<!DOCTYPE svg PUBLIC "-//W3C//DTD SVG 1.1//EN" "http://www.w3.org/Graphics/SVG/1.1/DTD/svg11.dtd">
<svg xmlns="http://www.w3.org/2000/svg" xml:space="preserve" width="580px" height="580px" shape-rendering="geometricPrecision" text-rendering="geometricPrecision" image-rendering="optimizeQuality" fill-rule="nonzero" clip-rule="nonzero" viewBox="0 0 5800 5800" xmlns:xlink="http://www.w3.org/1999/xlink">
	<title>girl icon</title>
	<desc>girl icon from the IconExperience.com I-Collection. Copyright by INCORS GmbH (www.incors.com).</desc>
		<path id="curve28"  d="M4160 1300c-110,0 -180,134 -155,300 25,166 134,300 245,300 110,0 180,-134 155,-300 -25,-166 -134,-300 -245,-300zm-2088 2118c-111,-130 -196,-289 -254,-449 -257,-156 -250,-468 -243,-768 2,-69 3,-138 1,-202 180,-18 294,-222 318,-384 17,-116 -3,-259 -87,-344 117,-196 381,-313 597,-333 145,-13 298,11 496,59 198,-48 351,-72 497,-59 213,20 476,140 601,328 -89,85 -109,231 -92,349 24,163 140,369 323,384 -6,76 -4,157 -3,238 6,290 11,579 -244,731 -97,291 -205,575 -567,702 59,138 281,253 455,343 212,110 408,233 530,451 71,129 100,270 100,436 0,191 -204,340 -504,440 -304,102 -715,160 -1096,160 -381,0 -792,-58 -1096,-160 -300,-100 -504,-249 -504,-440 0,-166 29,-307 100,-436 122,-218 319,-341 530,-451 177,-92 404,-209 458,-350 -123,-57 -228,-143 -316,-245zm-750 -1583c-19,55 -36,118 -54,181 -50,178 -102,359 -197,455 -31,30 -77,37 -116,18 -125,-63 -246,-264 -302,-504 -54,-228 -54,-499 53,-720 11,-27 32,-49 59,-59 118,-57 265,-84 414,-39 82,24 163,71 239,145 -66,77 -108,182 -122,273 -12,80 -6,172 26,250zm3046 -538c63,-58 136,-98 211,-121 128,-40 265,-34 375,-1 32,10 62,22 91,36 18,9 34,24 44,44 110,221 114,494 58,730 -55,233 -170,430 -292,498 -39,26 -91,22 -126,-12 -95,-96 -147,-277 -197,-455 -18,-63 -35,-126 -54,-181 32,-78 38,-170 26,-250 -15,-97 -61,-209 -136,-288zm-2728 3c110,0 180,134 155,300 -25,166 -134,300 -245,300 -110,0 -180,-134 -155,-300 25,-166 134,-300 245,-300z"/>
</svg>