<?xml version="1.0" encoding="UTF-8"?>
<!DOCTYPE svg PUBLIC "-//W3C//DTD SVG 1.1//EN" "http://www.w3.org/Graphics/SVG/1.1/DTD/svg11.dtd">
<svg xmlns="http://www.w3.org/2000/svg" xml:space="preserve" width="580px" height="580px" shape-rendering="geometricPrecision" text-rendering="geometricPrecision" image-rendering="optimizeQuality" fill-rule="nonzero" clip-rule="nonzero" viewBox="0 0 5800 5800" xmlns:xlink="http://www.w3.org/1999/xlink">
	<title>girl icon</title>
	<desc>girl icon from the IconExperience.com I-Collection. Copyright by INCORS GmbH (www.incors.com).</desc>
		<path id="curve28" d="M1071 2471c95,-96 147,-277 197,-455 36,-126 71,-251 116,-318 2,-4 4,-6 7,-10 6,123 69,212 159,212 6,0 12,0 18,-1 12,88 10,194 7,302 -7,300 -14,612 243,768 58,160 143,319 254,449 88,102 193,188 316,245 -54,141 -281,258 -458,350 -71,37 -135,70 -185,104 -164,109 -274,220 -345,347 -71,129 -100,270 -100,436 0,191 204,340 504,440 304,102 715,160 1096,160 381,0 792,-58 1096,-160 300,-100 504,-249 504,-440 0,-166 -29,-307 -100,-436 -71,-127 -181,-238 -345,-347 -57,-39 -123,-72 -185,-104 -174,-90 -396,-205 -455,-343 362,-127 470,-411 567,-702 255,-152 250,-441 244,-731 -2,-118 -4,-236 15,-337 3,0 6,0 9,0 90,0 153,-89 159,-212 1,1 8,9 8,10 44,67 79,192 115,318 50,178 102,359 197,455 35,34 87,38 126,12 122,-68 237,-265 292,-498 55,-231 54,-506 -58,-730 -10,-19 -25,-34 -44,-44 -29,-14 -59,-26 -91,-36 -110,-33 -247,-39 -375,1 -104,32 -202,95 -277,197 -42,-46 -92,-73 -142,-73 -43,0 -80,21 -108,56 -49,-86 -102,-176 -199,-240 -165,-109 -303,-164 -456,-178 -146,-13 -299,11 -497,59 -198,-48 -351,-72 -496,-59 -156,14 -295,69 -459,179 -91,60 -143,156 -190,249 -28,-41 -68,-66 -115,-66 -56,0 -111,34 -155,88 -93,-121 -199,-189 -306,-221 -149,-45 -296,-18 -414,39 -27,10 -48,32 -59,59 -107,221 -107,492 -53,720 56,240 177,441 302,504 40,20 86,11 116,-18zm777 -856c27,-41 50,-87 73,-134 39,-78 80,-162 134,-198 136,-90 247,-135 366,-146 124,-12 264,12 454,60 15,4 32,4 49,0 190,-48 331,-72 455,-60 118,10 228,55 364,145 59,39 101,112 140,181 41,71 80,140 133,189 11,43 29,84 50,119 -45,141 -42,306 -39,469 5,241 9,481 -172,571 -14,7 -27,18 -37,33l0 0 -1 1 -1 1 0 1 -1 2 0 0 -2 2 0 0c0,1 -1,3 -2,4l0 0 0 0c-2,5 -4,9 -6,14 -90,272 -181,545 -525,633 -45,9 -80,49 -80,98 0,290 329,461 578,591 55,28 114,58 167,92 136,91 226,180 280,278 54,96 75,205 75,339 0,91 -148,179 -366,251 -283,95 -672,149 -1034,149 -362,0 -751,-54 -1034,-149 -218,-72 -366,-160 -366,-251 0,-134 21,-243 75,-339 54,-98 144,-187 280,-278 40,-26 100,-58 167,-92 249,-130 578,-301 578,-591 0,-42 -27,-81 -69,-95 -119,-39 -222,-118 -307,-217 -103,-120 -179,-269 -229,-419 -8,-24 -26,-46 -50,-58 -183,-91 -177,-354 -171,-606 4,-162 8,-320 -31,-449 8,-15 15,-30 21,-45 31,-25 58,-58 84,-96zm2735 -28c-34,-50 -70,-87 -112,-107 47,-58 106,-94 168,-114 87,-27 181,-22 258,1 4,6 18,7 29,9 73,172 70,382 27,564 -31,131 -80,244 -132,312 -36,-76 -67,-183 -97,-289 -40,-143 -80,-284 -141,-376zm-3272 -97c-37,23 -70,61 -94,97 -61,92 -101,233 -141,376 -30,106 -61,213 -97,289 -52,-68 -101,-181 -132,-312 -43,-182 -46,-393 28,-565 74,-30 161,-43 246,-17 65,19 129,61 190,132z"/>
</svg>