<?xml version="1.0" encoding="UTF-8"?>
<!DOCTYPE svg PUBLIC "-//W3C//DTD SVG 1.1//EN" "http://www.w3.org/Graphics/SVG/1.1/DTD/svg11.dtd">
<svg xmlns="http://www.w3.org/2000/svg" xml:space="preserve" width="580px" height="580px" shape-rendering="geometricPrecision" text-rendering="geometricPrecision" image-rendering="optimizeQuality" fill-rule="nonzero" clip-rule="nonzero" viewBox="0 0 5800 5800" xmlns:xlink="http://www.w3.org/1999/xlink">
	<title>glass_cracked icon</title>
	<desc>glass_cracked icon from the IconExperience.com I-Collection. Copyright by INCORS GmbH (www.incors.com).</desc>
		<path id="curve28"  d="M4100 500l-753 0 -240 600 208 518 -790 948 168 -842 -296 -395 76 -829 -773 0 0 858c0,697 406,1549 1200,1549 794,0 1200,-850 1200,-1547l0 -860zm-888 -200c363,0 725,0 1088,0l0 1060c0,771 -448,1677 -1300,1743l0 2197 1100 0 0 200 -2400 0 0 -200 1100 0 0 -2197c-853,-66 -1300,-974 -1300,-1745l0 -1058c397,0 794,0 1191,0 -29,324 -59,647 -88,971l303 404c-13,73 -29,141 -36,215l215 -308 -192 -482c106,-267 213,-533 319,-800z"/>
</svg>