<?xml version="1.0" encoding="UTF-8"?>
<!DOCTYPE svg PUBLIC "-//W3C//DTD SVG 1.1//EN" "http://www.w3.org/Graphics/SVG/1.1/DTD/svg11.dtd">
<svg xmlns="http://www.w3.org/2000/svg" xml:space="preserve" width="580px" height="580px" shape-rendering="geometricPrecision" text-rendering="geometricPrecision" image-rendering="optimizeQuality" fill-rule="nonzero" clip-rule="nonzero" viewBox="0 0 5800 5800" xmlns:xlink="http://www.w3.org/1999/xlink">
	<title>glass_fork icon</title>
	<desc>glass_fork icon from the IconExperience.com I-Collection. Copyright by INCORS GmbH (www.incors.com).</desc>
		<path id="curve28"  d="M5100 400c0,-55 45,-100 100,-100 55,0 100,45 100,100l0 1100c0,267 -151,465 -400,552l0 948c0,41 39,89 78,137 61,76 122,152 122,263l0 1600c0,275 -225,500 -500,500 -275,0 -500,-225 -500,-500l0 -1600c0,-111 61,-187 122,-262 39,-49 78,-97 78,-138l0 -948c-249,-87 -400,-285 -400,-552l0 -1100c0,-55 45,-100 100,-100 55,0 100,45 100,100l0 1001c0,55 45,100 100,100 55,0 100,-45 100,-100l0 -1001c0,-55 45,-100 100,-100 55,0 100,45 100,100l0 1001c-1,55 45,100 100,100 55,0 100,-45 100,-100l2 -1001c0,-55 45,-100 100,-100 56,0 100,45 100,100 0,333 -2,671 -2,1001 0,31 45,100 100,100 55,0 99,-45 100,-100l0 -1001zm-3200 2107l0 200c674,0 1000,-768 1000,-1347l0 -460 -200 0 0 460c0,462 -247,1147 -800,1147zm1200 2993l-2400 0 0 -200 1100 0 0 -2197c-376,-29 -673,-222 -889,-495 -272,-345 -411,-820 -411,-1250l0 -1058 2800 0 0 1060c0,771 -448,1677 -1300,1743l0 2197 1100 0 0 200z"/>
</svg>