<?xml version="1.0" encoding="UTF-8"?>
<!DOCTYPE svg PUBLIC "-//W3C//DTD SVG 1.1//EN" "http://www.w3.org/Graphics/SVG/1.1/DTD/svg11.dtd">
<svg xmlns="http://www.w3.org/2000/svg" xml:space="preserve" width="580px" height="580px" shape-rendering="geometricPrecision" text-rendering="geometricPrecision" image-rendering="optimizeQuality" fill-rule="nonzero" clip-rule="nonzero" viewBox="0 0 5800 5800" xmlns:xlink="http://www.w3.org/1999/xlink">
	<title>globe icon</title>
	<desc>globe icon from the IconExperience.com I-Collection. Copyright by INCORS GmbH (www.incors.com).</desc>
		<path id="curve29"  d="M3886 346l-81 185c791,385 1295,1187 1295,2069 0,1231 -971,2245 -2200,2298l0 402 1200 0 0 200 -2600 0 0 -200 1200 0 0 -402c-224,-10 -441,-52 -645,-121 -26,-9 -52,-19 -78,-29l-80 185 -183 -79 80 -185c-143,-70 -278,-154 -403,-251l122 -158c112,87 233,163 361,226l120 -277c59,30 120,56 182,80l-119 276c20,8 41,15 62,23 214,72 442,112 681,112 1160,0 2100,-940 2100,-2100 0,-803 -456,-1532 -1174,-1886l-120 277c-59,-30 -120,-56 -182,-80l119 -276c-107,-41 -219,-73 -335,-95l39 -197c129,26 255,62 376,109l80 -185 183 79z"/>
	<path id="curve28"  d="M3555 856c963,417 1405,1536 989,2499 -417,963 -1536,1405 -2499,989 -963,-417 -1405,-1536 -989,-2499 417,-963 1536,-1405 2499,-989zm-80 184c-181,-79 -368,-123 -554,-136 8,7 13,14 15,21 10,42 -198,195 -109,211 57,10 167,-35 273,-34 103,0 173,54 273,60 134,7 152,-48 233,-59 -42,-22 -86,-44 -131,-63zm616 453c-37,4 -79,22 -108,23 -51,3 -135,-22 -179,15 -54,45 9,140 -61,152 -58,11 -88,37 -122,32 -83,-11 -130,-76 -233,-48 -108,30 -171,178 -122,234 49,57 135,114 202,71 40,-25 132,-73 170,-75 78,-2 95,73 128,113 63,77 123,130 94,160 -55,56 64,49 71,8 5,-39 -59,-78 -79,-161 -6,-26 92,-4 104,52 11,53 16,145 27,179 14,42 209,79 250,194 16,47 -30,111 -80,114 -84,4 -109,-38 -182,-86 -14,-9 -120,-50 -134,-58 -119,-77 -8,-192 -114,-289 -21,-19 -136,-66 -189,-69 -230,-16 -178,-141 -373,6 -24,18 -127,36 -192,75 -46,28 -92,67 -119,118 -17,34 -107,189 -110,202 -30,139 34,311 134,411 50,50 186,43 274,50 97,7 88,42 97,121 15,137 42,28 3,196 -13,59 15,187 -12,248 -43,93 -87,95 -134,172 -5,9 -46,386 -40,409 29,106 292,-7 444,-105 24,-16 274,-204 280,-211 136,-152 -35,-170 375,-394 134,-74 16,-202 110,-256 14,-8 71,11 113,-19 25,-18 47,-47 67,-72 133,-540 -10,-1103 -360,-1512zm-2715 2036c28,-107 103,-101 135,-196 34,-103 113,-137 228,-135 71,0 70,-131 115,-189 59,-75 152,-91 145,-190 -3,-45 -191,-205 -249,-286 -75,-103 65,-62 -122,-295 -45,-56 -50,-158 -136,-232 -54,-45 -127,3 -161,-70 -9,-19 -23,-80 -23,-151 -22,41 -43,83 -62,126 16,87 23,168 14,186 -41,72 -68,160 -93,257 -26,105 10,270 54,404 19,57 -45,193 -60,292 46,169 119,331 215,479zm120 -2020c41,-8 89,-17 134,-26 77,-16 162,-134 201,-144 104,-27 205,-77 314,-47 31,9 57,-100 113,-105 93,-8 36,137 164,82 60,-26 30,-196 57,-235 60,-85 154,-41 165,-73 1,-1 -23,-24 -44,-49 -425,50 -823,261 -1104,597z"/>
</svg>