<?xml version="1.0" encoding="UTF-8"?>
<!DOCTYPE svg PUBLIC "-//W3C//DTD SVG 1.1//EN" "http://www.w3.org/Graphics/SVG/1.1/DTD/svg11.dtd">
<svg xmlns="http://www.w3.org/2000/svg" xml:space="preserve" width="580px" height="580px" shape-rendering="geometricPrecision" text-rendering="geometricPrecision" image-rendering="optimizeQuality" fill-rule="nonzero" clip-rule="nonzero" viewBox="0 0 5800 5800" xmlns:xlink="http://www.w3.org/1999/xlink">
	<title>globe icon</title>
	<desc>globe icon from the IconExperience.com I-Collection. Copyright by INCORS GmbH (www.incors.com).</desc>
		<path id="curve29" d="M1500 5300l1200 0 0 -402c-224,-10 -441,-52 -645,-121 -26,-9 -52,-19 -78,-29l-80 185 -183 -79 80 -185c-143,-70 -278,-154 -403,-251l122 -158c112,87 233,163 361,226l120 -277c59,30 120,56 182,80l-119 276c20,8 41,15 62,23 214,72 442,112 681,112 1160,0 2100,-940 2100,-2100 0,-803 -456,-1532 -1174,-1886l-120 277c-59,-30 -120,-56 -182,-80l119 -276c-107,-41 -219,-73 -335,-95l39 -197c129,26 255,62 376,109l80 -185 183 79 -81 185c791,385 1295,1187 1295,2069 0,1231 -971,2245 -2200,2298l0 402 1200 0 0 200 -2600 0 0 -200z"/>
	<path id="curve28" d="M3555 857c482,209 833,593 1012,1045 627,1586 -999,3101 -2522,2441 -964,-418 -1405,-1535 -988,-2498 418,-964 1535,-1405 2498,-988zm-239 1140c-28,-17 -53,-40 -71,-62 -53,-61 3,-169 52,-214 64,-58 140,-62 217,-29 31,14 60,29 94,33 22,4 85,-25 115,-31 47,-8 -6,-97 52,-145 50,-43 126,-16 185,-19 40,-1 101,-34 145,-20 -125,-151 -279,-282 -456,-384 -8,17 -26,30 -57,33 -73,9 -101,65 -230,57 -95,-5 -173,-58 -267,-59 -80,0 -208,45 -270,33 -14,-2 -27,-8 -33,-22 -25,-55 124,-164 126,-197 -8,-33 -150,-63 -193,-70 -43,2 -86,6 -129,11 15,29 75,76 68,96 -16,48 -109,-2 -164,76 -10,14 -11,85 -12,104 -3,41 -7,112 -51,131 -136,59 -97,-85 -166,-79 -46,4 -68,117 -117,103 -102,-28 -202,20 -299,45 -40,11 -115,125 -198,142 -31,6 -194,33 -217,49 -25,33 -58,72 -70,113 -19,63 -23,197 5,258 27,58 99,16 154,63 89,77 80,161 136,230 34,43 82,106 98,160 10,31 6,44 1,74 -8,52 97,143 131,178 29,29 134,128 137,167 7,108 -91,128 -146,198 -41,53 -42,193 -127,192 -97,-1 -174,22 -208,121 -28,84 -98,98 -125,172 -8,22 -13,49 -15,76 174,247 415,450 712,579 861,373 1864,-22 2237,-883 40,-93 72,-188 94,-283 -25,27 -70,84 -91,98 -48,34 -77,12 -113,20 -77,44 32,174 -107,250 -101,55 -256,131 -292,248 -27,90 -47,117 -119,172 -31,24 -62,47 -93,71 -94,70 -165,125 -272,177 -63,30 -296,135 -328,17 -6,-23 32,-397 42,-414 40,-66 96,-91 130,-166 27,-59 -4,-174 12,-241 12,-54 26,-69 9,-120 -29,-85 19,-161 -93,-170 -76,-6 -223,2 -279,-54 -101,-101 -166,-276 -135,-418 6,-32 87,-160 109,-203 27,-52 74,-92 123,-122 53,-32 159,-51 187,-72 46,-35 111,-85 172,-70zm535 48c9,29 25,53 43,79 32,44 58,97 -16,117 -52,15 -97,-17 -50,-65 16,-17 -80,-117 -94,-134 -33,-40 -46,-106 -111,-104 -35,1 -127,51 -158,70 -27,18 -57,21 -86,15 45,21 93,31 142,34 43,3 164,44 196,73 109,99 4,213 109,281 36,23 95,33 132,57 58,39 92,86 168,82 37,-2 76,-53 63,-89 -38,-107 -227,-137 -245,-191 -9,-29 -13,-72 -16,-103 -2,-19 -6,-67 -14,-83 -8,-17 -42,-39 -63,-39zm-2679 1045c-1,-51 15,-102 30,-150 11,-37 45,-136 33,-172 -37,-114 -82,-289 -52,-406 22,-86 48,-178 92,-255 11,-25 -15,-173 -21,-203 -4,-16 -10,9 -14,19 -166,384 -180,795 -68,1167z"/>
</svg>