<?xml version="1.0" encoding="UTF-8"?>
<!DOCTYPE svg PUBLIC "-//W3C//DTD SVG 1.1//EN" "http://www.w3.org/Graphics/SVG/1.1/DTD/svg11.dtd">
<svg xmlns="http://www.w3.org/2000/svg" xml:space="preserve" width="580px" height="580px" shape-rendering="geometricPrecision" text-rendering="geometricPrecision" image-rendering="optimizeQuality" fill-rule="nonzero" clip-rule="nonzero" viewBox="0 0 5800 5800" xmlns:xlink="http://www.w3.org/1999/xlink">
	<title>goal_ball icon</title>
	<desc>goal_ball icon from the IconExperience.com I-Collection. Copyright by INCORS GmbH (www.incors.com).</desc>
		<path id="curve28" d="M4000 4200c331,0 600,269 600,600 0,331 -269,600 -600,600 -331,0 -600,-269 -600,-600 0,-331 269,-600 600,-600zm0 200c-221,0 -400,179 -400,400 0,221 179,400 400,400 221,0 400,-179 400,-400 0,-221 -179,-400 -400,-400zm1100 500l200 0 0 -3600 -4800 0 0 3600 200 0 0 -3400 4400 0 0 3400zm-200 200l0 -3400 -4000 0 0 3400c-200,0 -400,0 -600,0l0 -4000 5200 0 0 4000c-200,0 -400,0 -600,0zm-3600 -554l0 -424 -200 40 0 -204 200 -40 0 -418 -200 0 0 -200 200 0 0 -436 -200 -88 0 -218 200 89 0 -406 -200 -200 0 -141 141 0 200 200 383 0 -120 -200 232 0 120 200 422 0 -40 -200 204 0 40 200 436 0 40 -200 204 0 -40 200 422 0 120 -200 232 0 -120 200 383 0 200 -200 141 0 0 141 -200 200 0 406 200 -89 0 218 -200 88 0 436 200 0 0 200 -200 0 0 418 200 40 0 204 -200 -40 0 54c-137,-110 -311,-176 -500,-176 -141,0 -273,36 -387,100l-313 0 0 312c-48,88 -81,185 -94,288l-1776 0 -330 220 0 -240 200 -134zm200 -2246l0 400 400 0 0 -400 -400 0zm0 600l0 400 400 0 0 -400 -400 0zm0 600l0 400 400 0 0 -400 -400 0zm0 600l0 400 400 0 0 -400 -400 0zm2800 -1800l-400 0 0 400 400 0 0 -400zm-600 0l-400 0 0 400 400 0 0 -400zm-600 0l-400 0 0 400 400 0 0 -400zm-600 0l-400 0 0 400 400 0 0 -400zm1800 1600l0 -400 -400 0 0 400 400 0zm0 -600l0 -400 -400 0 0 400 400 0zm-600 600l0 -400 -400 0 0 400 400 0zm0 -600l0 -400 -400 0 0 400 400 0zm-600 1200l0 -400 -400 0 0 400 400 0zm0 -600l0 -400 -400 0 0 400 400 0zm0 -600l0 -400 -400 0 0 400 400 0zm-600 1200l0 -400 -400 0 0 400 400 0zm0 -600l0 -400 -400 0 0 400 400 0zm0 -600l0 -400 -400 0 0 400 400 0z"/>
</svg>