<?xml version="1.0" encoding="UTF-8"?>
<!DOCTYPE svg PUBLIC "-//W3C//DTD SVG 1.1//EN" "http://www.w3.org/Graphics/SVG/1.1/DTD/svg11.dtd">
<svg xmlns="http://www.w3.org/2000/svg" xml:space="preserve" width="580px" height="580px" shape-rendering="geometricPrecision" text-rendering="geometricPrecision" image-rendering="optimizeQuality" fill-rule="nonzero" clip-rule="nonzero" viewBox="0 0 5800 5800" xmlns:xlink="http://www.w3.org/1999/xlink">
	<title>goal_ball icon</title>
	<desc>goal_ball icon from the IconExperience.com I-Collection. Copyright by INCORS GmbH (www.incors.com).</desc>
		<path id="curve28"  d="M4900 5100l0 -3400 -4000 0 0 3400c-200,0 -400,0 -600,0l0 -4000 5200 0 0 4000c-200,0 -400,0 -600,0zm-3400 -600l400 0 0 -400 -400 0 0 400zm400 -600l0 -400 -400 0 0 400 400 0zm200 0l400 0 0 -400 -400 0 0 400zm600 0l400 0 0 -400 -400 0 0 400zm600 0l400 0 0 -400 -400 0 0 400zm600 0l400 0 0 -400 -400 0 0 400zm-287 200l-313 0 0 312c-48,88 -81,185 -94,288l-1776 0 -330 220 0 -240 200 -134 0 -424 -200 40 0 -204 200 -40 0 -418 -200 0 0 -200 200 0 0 -436 -200 -88 0 -218 200 89 0 -406 -200 -200 0 -141 141 0 200 200 383 0 -120 -200 232 0 120 200 422 0 -40 -200 204 0 40 200 436 0 40 -200 204 0 -40 200 422 0 120 -200 232 0 -120 200 383 0 200 -200 141 0 0 141 -200 200 0 406 200 -89 0 218 -200 88 0 436 200 0 0 200 -200 0 0 418 200 40 0 204 -200 -40 0 54c-137,-110 -311,-176 -500,-176 -141,0 -273,36 -387,100zm-513 0l-400 0 0 400 400 0 0 -400zm-600 0l-400 0 0 400 400 0 0 -400zm200 -1800l0 400 400 0 0 -400 -400 0zm0 600l0 400 400 0 0 -400 -400 0zm-200 400l0 -400 -400 0 0 400 400 0zm0 -600l0 -400 -400 0 0 400 400 0zm-600 600l0 -400 -400 0 0 400 400 0zm1400 0l400 0 0 -400 -400 0 0 400zm600 0l400 0 0 -400 -400 0 0 400zm-2000 -600l0 -400 -400 0 0 400 400 0zm1400 0l400 0 0 -400 -400 0 0 400zm600 0l400 0 0 -400 -400 0 0 400zm100 1500c331,0 600,269 600,600 0,331 -269,600 -600,600 -331,0 -600,-269 -600,-600 0,-331 269,-600 600,-600z"/>
</svg>