<?xml version="1.0" encoding="UTF-8"?>
<!DOCTYPE svg PUBLIC "-//W3C//DTD SVG 1.1//EN" "http://www.w3.org/Graphics/SVG/1.1/DTD/svg11.dtd">
<svg xmlns="http://www.w3.org/2000/svg" xml:space="preserve" width="580px" height="580px" shape-rendering="geometricPrecision" text-rendering="geometricPrecision" image-rendering="optimizeQuality" fill-rule="nonzero" clip-rule="nonzero" viewBox="0 0 5800 5800" xmlns:xlink="http://www.w3.org/1999/xlink">
	<title>goblet icon</title>
	<desc>goblet icon from the IconExperience.com I-Collection. Copyright by INCORS GmbH (www.incors.com).</desc>
		<path id="curve28"  d="M3082 2678l47 194c637,-155 971,-861 971,-1472l0 -500 -200 0 0 500c0,516 -274,1146 -818,1278zm1418 -1278c0,774 -423,1602 -1200,1840l0 413c127,114 200,277 200,447 0,170 -73,333 -200,447l0 371 1000 200c0,127 0,255 0,382l-2800 0c0,-127 0,-255 0,-382l1000 -200 0 -371c-127,-114 -200,-277 -200,-447 0,-170 73,-333 200,-447l0 -413c-777,-238 -1200,-1066 -1200,-1840l0 -1100 3200 0 0 1100z"/>
</svg>