<?xml version="1.0" encoding="UTF-8"?>
<!DOCTYPE svg PUBLIC "-//W3C//DTD SVG 1.1//EN" "http://www.w3.org/Graphics/SVG/1.1/DTD/svg11.dtd">
<svg xmlns="http://www.w3.org/2000/svg" xml:space="preserve" width="580px" height="580px" shape-rendering="geometricPrecision" text-rendering="geometricPrecision" image-rendering="optimizeQuality" fill-rule="nonzero" clip-rule="nonzero" viewBox="0 0 5800 5800" xmlns:xlink="http://www.w3.org/1999/xlink">
	<title>gold_bars icon</title>
	<desc>gold_bars icon from the IconExperience.com I-Collection. Copyright by INCORS GmbH (www.incors.com).</desc>
	<path id="curve0"  d="M4724 2400l234 0 -1300 1300 -234 0 1300 -1300zm-4166 1300l598 -598 -229 574c-4,8 -7,16 -10,24l-359 0zm1599 400l-197 492 -98 -492 295 0zm-339 800l-1618 0c-55,0 -100,-45 -100,-100 0,-16 4,-31 10,-44l343 -856 464 0c41,116 152,200 283,200l458 0 160 800zm-260 -2200l1271 -1271c22,-21 51,-31 80,-29l1049 0 -1300 1300 -1100 0zm2583 -1200l530 529c39,39 39,103 0,142l-1662 1662 -200 -1000 1332 -1333zm-1323 2400l-1618 0c-55,0 -100,-45 -100,-100 0,-16 4,-31 10,-44l343 -856 1165 0 200 1000zm991 -67l1332 -1333 530 529c39,39 39,103 0,142l-1662 1662 -200 -1000zm9 1067l-1618 0c-55,0 -100,-45 -100,-100 0,-16 4,-31 10,-44l263 -656 527 0c20,0 39,-2 59,-6 58,-11 111,-40 153,-82l113 -112 393 0 200 1000z"/>
</svg>