<?xml version="1.0" encoding="UTF-8"?>
<!DOCTYPE svg PUBLIC "-//W3C//DTD SVG 1.1//EN" "http://www.w3.org/Graphics/SVG/1.1/DTD/svg11.dtd">
<svg xmlns="http://www.w3.org/2000/svg" xml:space="preserve" width="580px" height="580px" shape-rendering="geometricPrecision" text-rendering="geometricPrecision" image-rendering="optimizeQuality" fill-rule="nonzero" clip-rule="nonzero" viewBox="0 0 5800 5800" xmlns:xlink="http://www.w3.org/1999/xlink">
	<title>gold_bar icon</title>
	<desc>gold_bar icon from the IconExperience.com I-Collection. Copyright by INCORS GmbH (www.incors.com).</desc>
	<path id="curve0" d="M4691 1351l-2085 2084 165 1153 2496 -2496 -576 -741zm-2233 1949l2001 -2000 -1417 0 -2001 2000 1417 0zm-1729 29l2200 -2200c22,-21 51,-31 80,-29l1691 0c32,0 60,15 79,39l700 900c31,40 27,97 -8,132l-2700 2700c-21,20 -49,31 -78,29l-2293 0c-67,0 -114,-64 -96,-127l400 -1400c5,-17 14,-32 25,-44zm1684 171l-1538 0 -343 1200 2053 0 -172 -1200z"/>
</svg>