<?xml version="1.0" encoding="UTF-8"?>
<!DOCTYPE svg PUBLIC "-//W3C//DTD SVG 1.1//EN" "http://www.w3.org/Graphics/SVG/1.1/DTD/svg11.dtd">
<svg xmlns="http://www.w3.org/2000/svg" xml:space="preserve" width="580px" height="580px" shape-rendering="geometricPrecision" text-rendering="geometricPrecision" image-rendering="optimizeQuality" fill-rule="nonzero" clip-rule="nonzero" viewBox="0 0 5800 5800" xmlns:xlink="http://www.w3.org/1999/xlink">
	<title>goldfish icon</title>
	<desc>goldfish icon from the IconExperience.com I-Collection. Copyright by INCORS GmbH (www.incors.com).</desc>
		<path id="curve28"  d="M1499 2896c-111,0 -200,90 -200,200 0,110 89,200 200,200 110,0 200,-90 200,-200 0,-110 -90,-200 -200,-200zm1685 -1333c482,207 488,551 492,793 2,84 3,144 24,144 55,0 125,0 189,-11 133,-23 170,-88 253,-185 178,-210 341,-404 958,-404 239,0 400,31 400,300 0,183 -139,410 -274,632 -113,184 -223,365 -226,471 -3,91 108,258 222,431 125,189 255,385 277,553 28,213 -223,313 -399,313 -524,0 -793,-334 -972,-556 -66,-82 -116,-144 -128,-144 -65,0 -108,33 -178,86 -75,57 -174,132 -344,217 -65,33 -47,141 -29,252 11,63 21,128 21,189 0,198 -83,356 -470,356 -472,0 -598,-42 -946,-337 -140,-119 -290,-247 -375,-265 -365,-79 -700,-185 -947,-336 -266,-162 -432,-376 -432,-662 0,-269 144,-557 399,-795 225,-210 537,-382 911,-466 16,-29 28,-66 39,-97 69,-191 170,-474 533,-540 107,-19 277,-19 445,-9 253,15 514,52 557,70z"/>
</svg>