<?xml version="1.0" encoding="UTF-8"?>
<!DOCTYPE svg PUBLIC "-//W3C//DTD SVG 1.1//EN" "http://www.w3.org/Graphics/SVG/1.1/DTD/svg11.dtd">
<svg xmlns="http://www.w3.org/2000/svg" xml:space="preserve" width="580px" height="580px" shape-rendering="geometricPrecision" text-rendering="geometricPrecision" image-rendering="optimizeQuality" fill-rule="nonzero" clip-rule="nonzero" viewBox="0 0 5800 5800" xmlns:xlink="http://www.w3.org/1999/xlink">
	<title>gold_bars icon</title>
	<desc>gold_bars icon from the IconExperience.com I-Collection. Copyright by INCORS GmbH (www.incors.com).</desc>
	<path id="curve0"  d="M2829 1429c22,-21 51,-31 80,-29l1091 0c27,0 52,12 70,30l601 599c39,39 39,103 0,142l-230 229 559 0c28,0 52,12 70,30l601 599c39,39 39,103 0,142l-1700 1700c-19,19 -44,29 -71,29l-1700 0c-55,0 -100,-45 -100,-100 0,-16 4,-31 10,-44l17 -41 -156 156c-19,19 -44,29 -71,29l-1700 0c-55,0 -100,-45 -100,-100 0,-16 4,-31 10,-44l397 -993c6,-13 13,-24 22,-34l2300 -2300zm-868 3168l354 -354 138 -343 -631 0 139 697zm-343 -697c-317,0 -634,0 -951,0l-320 800 1431 0 -160 -800zm-485 -200l194 -485 -486 485 292 0zm214 0l1431 0 -160 -800 -951 0 -320 800zm2614 897l1498 -1497 -459 -459 -1191 1192 152 764zm-302 -897l1100 -1100 -517 0 -1101 1100 518 0zm-992 200l-320 800 1431 0 -160 -800 -951 0zm294 -303l1498 -1497 -459 -459 -1191 1192 152 764zm-302 -897l1100 -1100 -817 0 -1101 1100 818 0z"/>
</svg>