<?xml version="1.0" encoding="UTF-8"?>
<!DOCTYPE svg PUBLIC "-//W3C//DTD SVG 1.1//EN" "http://www.w3.org/Graphics/SVG/1.1/DTD/svg11.dtd">
<svg xmlns="http://www.w3.org/2000/svg" xml:space="preserve" width="580px" height="580px" shape-rendering="geometricPrecision" text-rendering="geometricPrecision" image-rendering="optimizeQuality" fill-rule="nonzero" clip-rule="nonzero" viewBox="0 0 5800 5800" xmlns:xlink="http://www.w3.org/1999/xlink">
	<title>golf_club_putter icon</title>
	<desc>golf_club_putter icon from the IconExperience.com I-Collection. Copyright by INCORS GmbH (www.incors.com).</desc>
		<path id="curve28"  d="M4012 2243l-1109 2177 -179 -91 1110 -2177 -80 -40 31 -83 299 -809 389 -762c49,-98 170,-137 268,-87l179 90c98,50 137,171 87,269l-388 761 -479 719 -49 73 -79 -40zm-1412 3257l-1217 0c-81,0 -155,-31 -212,-88l-175 -174c-63,-64 -94,-147 -86,-237 7,-90 51,-167 125,-219 69,-50 119,-82 209,-82l1056 0c7,0 26,-22 33,-46l143 -275 538 274 -220 383c79,39 148,71 190,159 42,90 15,182 -67,237 -59,40 -159,68 -317,68z"/>
</svg>