<?xml version="1.0" encoding="UTF-8"?>
<!DOCTYPE svg PUBLIC "-//W3C//DTD SVG 1.1//EN" "http://www.w3.org/Graphics/SVG/1.1/DTD/svg11.dtd">
<svg xmlns="http://www.w3.org/2000/svg" xml:space="preserve" width="580px" height="580px" shape-rendering="geometricPrecision" text-rendering="geometricPrecision" image-rendering="optimizeQuality" fill-rule="nonzero" clip-rule="nonzero" viewBox="0 0 5800 5800" xmlns:xlink="http://www.w3.org/1999/xlink">
	<title>golf_ball icon</title>
	<desc>golf_ball icon from the IconExperience.com I-Collection. Copyright by INCORS GmbH (www.incors.com).</desc>
		<path id="curve28"  d="M5485 2606c160,1424 -869,2713 -2293,2873 -1424,160 -2714,-869 -2874,-2293 -160,-1424 870,-2713 2293,-2873 1424,-160 2714,869 2874,2293zm-761 -1272l101 404 -389 5 -374 -373 0 -397 401 101c-310,-266 -680,-448 -1080,-529l-390 55 -171 -103c-330,12 -655,90 -953,232l-168 253 -373 199 -51 -51c-49,45 -96,92 -142,141l53 53 -201 371 -252 169c-145,303 -221,627 -232,952l103 172 -56 388c80,392 258,766 529,1082l-100 -401 396 0 374 373 -6 389 -403 -100c317,271 697,455 1106,534l372 -53 158 95c339,-11 673,-93 977,-241l157 -236 373 -199 44 44c48,-45 95,-93 141,-142l-44 -44 196 -365 239 -164c152,-310 231,-643 241,-977l-95 -159 53 -370c-77,-402 -257,-786 -534,-1108zm-438 542l-119 593 -449 112 -494 -493 113 -450 592 -118 357 356zm-1007 -430l-454 -341 206 -308 423 -61 408 175 0 418 -583 117zm1608 490l182 416 -60 423 -309 206 -340 -454 117 -585 410 -6zm-1857 105l-664 178 -404 -404 230 -459 476 -119 474 355 -112 449zm-891 -878l-228 -137 204 -305 488 -122 228 137 -203 305 -489 122zm-372 598l-454 227 -135 -226 210 -387 379 -203 226 136 -226 453zm458 599l-178 665 -407 101 -42 11 -356 -475 119 -475 460 -230 404 403zm-1179 262l-305 204 -137 -228 122 -489 306 -203 136 228 -122 488zm2997 2006l-225 -136 226 -453 454 -227 135 226 -207 382 -383 208zm-452 -1183l180 -671 442 -111 356 475 -119 475 -460 230 -399 -398zm1174 -267l305 -204 137 228 -122 489 -306 203 -136 -228 122 -488zm-1557 2023l-228 -137 203 -305 489 -122 228 137 -204 305 -488 122zm-65 -638l-474 -355 110 -443 671 -179 399 399 -230 459 -476 119zm-1618 -639l119 -593 449 -112 494 493 -113 450 -592 118 -357 -356zm1007 430l454 341 -206 308 -423 61 -416 -182 6 -411 585 -117zm-1615 -497l-175 -409 60 -423 309 -206 340 454 -116 584 -418 0zm1500 -1445l-179 669 491 491 669 -179 180 -669 -491 -491 -670 179z"/>
</svg>