<?xml version="1.0" encoding="UTF-8"?>
<!DOCTYPE svg PUBLIC "-//W3C//DTD SVG 1.1//EN" "http://www.w3.org/Graphics/SVG/1.1/DTD/svg11.dtd">
<svg xmlns="http://www.w3.org/2000/svg" xml:space="preserve" width="580px" height="580px" shape-rendering="geometricPrecision" text-rendering="geometricPrecision" image-rendering="optimizeQuality" fill-rule="nonzero" clip-rule="nonzero" viewBox="0 0 5800 5800" xmlns:xlink="http://www.w3.org/1999/xlink">
	<title>golf_club_iron icon</title>
	<desc>golf_club_iron icon from the IconExperience.com I-Collection. Copyright by INCORS GmbH (www.incors.com).</desc>
		<path id="curve28"  d="M1561 4345l721 257c38,14 79,-1 98,-37l95 -187c178,91 356,182 534,273l-317 623c-32,63 -95,119 -166,159 -73,41 -157,67 -226,67l-923 0c-191,0 -357,-102 -445,-271 -87,-170 -73,-364 38,-519l160 -224c99,-139 269,-199 431,-141zm654 446l-721 -258c-77,-27 -155,3 -202,68l-160 225c-67,94 -75,208 -22,311 53,104 150,163 267,163l923 0c36,0 84,-16 128,-41 39,-22 72,-49 86,-75l227 -446 -179 -91c-66,131 -208,194 -347,144zm1797 -2548l-1109 2177 -179 -91 1110 -2177 -80 -40 31 -83 299 -809 389 -762c49,-98 170,-137 268,-87l179 90c98,50 137,171 87,269l-386 758 -481 722 -49 73 -79 -40zm639 -1694l-384 752 -264 714 20 10 422 -631 384 -754 -178 -91z"/>
</svg>