<?xml version="1.0" encoding="UTF-8"?>
<!DOCTYPE svg PUBLIC "-//W3C//DTD SVG 1.1//EN" "http://www.w3.org/Graphics/SVG/1.1/DTD/svg11.dtd">
<svg xmlns="http://www.w3.org/2000/svg" xml:space="preserve" width="580px" height="580px" shape-rendering="geometricPrecision" text-rendering="geometricPrecision" image-rendering="optimizeQuality" fill-rule="nonzero" clip-rule="nonzero" viewBox="0 0 5800 5800" xmlns:xlink="http://www.w3.org/1999/xlink">
	<title>golf_club_wood icon</title>
	<desc>golf_club_wood icon from the IconExperience.com I-Collection. Copyright by INCORS GmbH (www.incors.com).</desc>
		<path id="curve28"  d="M2903 4420l-179 -91 1110 -2177 -80 -40 330 -892 389 -762c49,-98 170,-137 268,-87l179 90c98,50 137,171 87,269l-388 761 -528 792 -79 -40 -1109 2177zm-258 815c-84,131 -212,198 -387,232 -157,30 -349,33 -583,33l-175 0c-252,0 -453,-138 -584,-347 -64,-100 -106,-169 -114,-252 -19,-182 198,-391 338,-485 101,-67 221,-116 360,-116 337,0 544,165 691,281 37,29 69,54 93,70 14,8 23,9 31,-3l172 -279 530 289 -372 577z"/>
</svg>