<?xml version="1.0" encoding="UTF-8"?>
<!DOCTYPE svg PUBLIC "-//W3C//DTD SVG 1.1//EN" "http://www.w3.org/Graphics/SVG/1.1/DTD/svg11.dtd">
<svg xmlns="http://www.w3.org/2000/svg" xml:space="preserve" width="580px" height="580px" shape-rendering="geometricPrecision" text-rendering="geometricPrecision" image-rendering="optimizeQuality" fill-rule="nonzero" clip-rule="nonzero" viewBox="0 0 5800 5800" xmlns:xlink="http://www.w3.org/1999/xlink">
	<title>golf_flag icon</title>
	<desc>golf_flag icon from the IconExperience.com I-Collection. Copyright by INCORS GmbH (www.incors.com).</desc>
		<path id="curve28"  d="M2500 300l0 4800 -200 0 0 -4800 200 0zm200 4000c291,0 557,60 752,157 215,108 348,264 348,443 0,179 -133,335 -348,443 -195,97 -461,157 -752,157 -291,0 -557,-60 -752,-157 -215,-108 -348,-264 -348,-443 0,-179 133,-335 348,-443 47,-23 98,-44 152,-63l0 213c-22,9 -43,19 -63,29 -146,73 -237,167 -237,264 0,97 91,191 237,265 168,83 402,135 663,135 261,0 495,-52 663,-135 146,-74 237,-168 237,-265 0,-97 -91,-191 -237,-264 -168,-84 -402,-136 -663,-136l0 -200zm0 -3946c417,-143 768,-72 1120,-2 359,72 719,144 1140,-43l140 -62 0 153 0 1700 0 65 -61 26c-476,208 -865,129 -1254,50 -344,-70 -688,-140 -1085,16l0 -212c418,-143 771,-71 1124,0 341,70 682,139 1076,-12l0 -1487c-417,143 -768,72 -1120,2 -342,-68 -685,-137 -1080,18l0 -212z"/>
</svg>