<?xml version="1.0" encoding="UTF-8"?>
<!DOCTYPE svg PUBLIC "-//W3C//DTD SVG 1.1//EN" "http://www.w3.org/Graphics/SVG/1.1/DTD/svg11.dtd">
<svg xmlns="http://www.w3.org/2000/svg" xml:space="preserve" width="580px" height="580px" shape-rendering="geometricPrecision" text-rendering="geometricPrecision" image-rendering="optimizeQuality" fill-rule="nonzero" clip-rule="nonzero" viewBox="0 0 5800 5800" xmlns:xlink="http://www.w3.org/1999/xlink">
	<title>golf_club_iron icon</title>
	<desc>golf_club_iron icon from the IconExperience.com I-Collection. Copyright by INCORS GmbH (www.incors.com).</desc>
		<path id="curve28"  d="M2903 4420l-179 -91 1110 -2177 -80 -40 31 -83 299 -809 389 -762c49,-98 170,-137 268,-87l179 90c98,50 137,171 87,269l-388 761 -479 719 -49 73 -79 -40 -1109 2177zm-1342 -75l721 257c38,14 79,-1 98,-37l95 -187c178,91 356,182 534,273l-317 623c-64,125 -254,226 -392,226l-923 0c-191,0 -357,-102 -445,-271 -87,-170 -73,-364 38,-519l160 -224c99,-139 269,-199 431,-141z"/>
</svg>