<?xml version="1.0" encoding="UTF-8"?>
<!DOCTYPE svg PUBLIC "-//W3C//DTD SVG 1.1//EN" "http://www.w3.org/Graphics/SVG/1.1/DTD/svg11.dtd">
<svg xmlns="http://www.w3.org/2000/svg" xml:space="preserve" width="580px" height="580px" shape-rendering="geometricPrecision" text-rendering="geometricPrecision" image-rendering="optimizeQuality" fill-rule="nonzero" clip-rule="nonzero" viewBox="0 0 5800 5800" xmlns:xlink="http://www.w3.org/1999/xlink">
	<title>golf_flag icon</title>
	<desc>golf_flag icon from the IconExperience.com I-Collection. Copyright by INCORS GmbH (www.incors.com).</desc>
		<path id="curve28"  d="M2500 300l0 4989c68,8 135,11 200,11l0 -1000c291,0 557,60 752,157 215,108 348,264 348,443 0,179 -133,335 -348,443 -195,97 -461,157 -752,157 -291,0 -557,-60 -752,-157 -215,-108 -348,-264 -348,-443 0,-179 133,-335 348,-443 47,-23 98,-44 152,-63l0 606 0 192c63,27 131,48 200,64l0 -156 0 -4800 200 0zm200 54c417,-143 768,-72 1120,-2 547,110 766,123 1280,-105l0 1918c-499,217 -799,180 -1315,76 -344,-70 -688,-140 -1085,16l0 -1903z"/>
</svg>