<?xml version="1.0" encoding="UTF-8"?>
<!DOCTYPE svg PUBLIC "-//W3C//DTD SVG 1.1//EN" "http://www.w3.org/Graphics/SVG/1.1/DTD/svg11.dtd">
<svg xmlns="http://www.w3.org/2000/svg" xml:space="preserve" width="580px" height="580px" shape-rendering="geometricPrecision" text-rendering="geometricPrecision" image-rendering="optimizeQuality" fill-rule="nonzero" clip-rule="nonzero" viewBox="0 0 5800 5800" xmlns:xlink="http://www.w3.org/1999/xlink">
	<title>golf_club_putter icon</title>
	<desc>golf_club_putter icon from the IconExperience.com I-Collection. Copyright by INCORS GmbH (www.incors.com).</desc>
		<path id="curve28" d="M4012 2243l-1109 2177 -179 -91 1110 -2177 -80 -40 31 -83 299 -809 389 -762c49,-98 170,-137 268,-87l179 90c98,50 137,171 87,269l-386 758 -481 722 -49 73 -79 -40zm639 -1694l-384 752 -264 714 20 10 422 -631 384 -754 -178 -91zm-2051 4951l-1217 0c-81,0 -155,-31 -212,-88l-175 -174c-63,-64 -94,-147 -86,-237 10,-119 68,-179 160,-245 26,-18 53,-32 83,-42 -2,-5 84,-14 91,-14 92,0 1055,2 1057,0 5,-4 31,-46 32,-46l143 -275c179,91 359,183 538,274l-220 383 59 29c90,45 170,148 146,253 -37,163 -266,182 -399,182zm-1217 -200l1217 0c106,0 168,-11 198,-28 -8,-12 -20,-22 -33,-28l-249 -123 220 -385 -175 -89 -56 107c-20,35 -39,66 -67,92 -36,34 -79,54 -138,54l-1056 0c-23,0 -38,5 -58,18 -23,17 -51,33 -65,58 -7,11 -11,25 -12,41 -3,32 6,57 29,79l174 175c21,21 41,29 71,29z"/>
</svg>