<?xml version="1.0" encoding="UTF-8"?>
<!DOCTYPE svg PUBLIC "-//W3C//DTD SVG 1.1//EN" "http://www.w3.org/Graphics/SVG/1.1/DTD/svg11.dtd">
<svg xmlns="http://www.w3.org/2000/svg" xml:space="preserve" width="580px" height="580px" shape-rendering="geometricPrecision" text-rendering="geometricPrecision" image-rendering="optimizeQuality" fill-rule="nonzero" clip-rule="nonzero" viewBox="0 0 5800 5800" xmlns:xlink="http://www.w3.org/1999/xlink">
	<title>golf_club_wood icon</title>
	<desc>golf_club_wood icon from the IconExperience.com I-Collection. Copyright by INCORS GmbH (www.incors.com).</desc>
		<path id="curve28"  d="M2645 5235c-84,131 -212,198 -387,232 -157,30 -349,33 -583,33l-175 0c-252,0 -453,-138 -584,-347 -64,-100 -106,-169 -114,-252 -9,-88 22,-168 111,-274 149,-179 344,-327 587,-327 337,0 544,165 691,281 37,29 69,54 93,70 14,8 23,9 31,-3l172 -279c177,96 353,193 530,289l-372 577zm-424 36c120,-23 206,-65 256,-144l256 -397 -175 -96 -73 118c-91,148 -185,142 -305,68 -37,-23 -73,-51 -113,-83 -124,-98 -299,-237 -567,-237 -180,0 -325,124 -434,255 -50,60 -69,97 -66,127 4,36 36,88 84,165 95,150 233,253 416,253l175 0c224,0 408,-2 546,-29zm1791 -3028l-1109 2177 -179 -91 1110 -2177 -80 -40 31 -83 299 -809 389 -762c49,-98 170,-137 268,-87l179 90c98,50 137,171 87,269l-386 758 -481 722 -49 73 -79 -40zm639 -1694l-384 752 -264 714 20 10 422 -631 384 -754 -178 -91z"/>
</svg>