<?xml version="1.0" encoding="UTF-8"?>
<!DOCTYPE svg PUBLIC "-//W3C//DTD SVG 1.1//EN" "http://www.w3.org/Graphics/SVG/1.1/DTD/svg11.dtd">
<svg xmlns="http://www.w3.org/2000/svg" xml:space="preserve" width="580px" height="580px" shape-rendering="geometricPrecision" text-rendering="geometricPrecision" image-rendering="optimizeQuality" fill-rule="nonzero" clip-rule="nonzero" viewBox="0 0 5800 5800" xmlns:xlink="http://www.w3.org/1999/xlink">
	<title>gps icon</title>
	<desc>gps icon from the IconExperience.com I-Collection. Copyright by INCORS GmbH (www.incors.com).</desc>
	<path id="curve0"  d="M4241 4700l-400 400c-113,0 -227,0 -341,0 0,-267 0,-533 0,-800l341 0 400 400zm-2341 -1823l222 -443 330 -245 -146 -389 -311 -104 -95 12 0 -202 114 -14 306 102 164 -494 210 0 -206 618 158 421 291 67 216 121 157 -471 472 -756 118 0 0 188 -410 656 -160 482 34 19 536 112 0 203 -607 -126 -55 -30 -326 325 163 571 -207 0 -180 -629 369 -369 -194 -108 -269 -62 -316 234 -378 757 0 -446zm2800 -2577l0 5200 -3600 0 0 -5200 3600 0zm-200 200l-3200 0c0,1600 0,3200 0,4800l3200 0 0 -4800zm-200 200l0 3200 -2800 0 0 -3200 2800 0zm-200 200l-2400 0 0 2800 2400 0 0 -2800zm-800 3400l0 800 -800 0 0 -800 800 0zm-200 200l-400 0 0 400 400 0 0 -400zm-1059 0l-200 200 200 200 59 0 0 -400 -59 0zm-82 -200l341 0 0 800 -341 0 -400 -400 400 -400zm2000 400l-200 -200 -59 0 0 400 59 0 200 -200z"/>
</svg>