<?xml version="1.0" encoding="UTF-8"?>
<!DOCTYPE svg PUBLIC "-//W3C//DTD SVG 1.1//EN" "http://www.w3.org/Graphics/SVG/1.1/DTD/svg11.dtd">
<svg xmlns="http://www.w3.org/2000/svg" xml:space="preserve" width="580px" height="580px" shape-rendering="geometricPrecision" text-rendering="geometricPrecision" image-rendering="optimizeQuality" fill-rule="nonzero" clip-rule="nonzero" viewBox="0 0 5800 5800" xmlns:xlink="http://www.w3.org/1999/xlink">
	<title>gps icon</title>
	<desc>gps icon from the IconExperience.com I-Collection. Copyright by INCORS GmbH (www.incors.com).</desc>
	<path id="curve0"  d="M4700 300l0 5200 -3600 0 0 -5200 3600 0zm-859 4000l-341 0 0 800 341 0 330 -329 70 -71 -70 -71 -330 -329zm-2282 400l400 400 341 0 0 -800 -341 0 -400 400zm941 -400l0 800 800 0 0 -800 -800 0zm-1000 -3600l0 3200 2800 0 0 -3200 -2800 0zm2600 200l0 2800 -2400 0 0 -2800 2400 0zm-200 388l0 -188 -118 0 -472 756 -157 471 -216 -121 -291 -67 -158 -421 206 -618 -210 0 -164 494 -306 -102 -114 14 0 202 95 -12 311 104 146 389 -330 245 -222 443 0 446 378 -757 316 -234 269 62 194 108 -369 369 180 629 207 0 -163 -571 326 -325 55 30 607 126 0 -203 -536 -112 -34 -19 160 -482 410 -656z"/>
</svg>