<?xml version="1.0" encoding="UTF-8"?>
<!DOCTYPE svg PUBLIC "-//W3C//DTD SVG 1.1//EN" "http://www.w3.org/Graphics/SVG/1.1/DTD/svg11.dtd">
<svg xmlns="http://www.w3.org/2000/svg" xml:space="preserve" width="580px" height="580px" shape-rendering="geometricPrecision" text-rendering="geometricPrecision" image-rendering="optimizeQuality" fill-rule="nonzero" clip-rule="nonzero" viewBox="0 0 5800 5800" xmlns:xlink="http://www.w3.org/1999/xlink">
	<title>graduate icon</title>
	<desc>graduate icon from the IconExperience.com I-Collection. Copyright by INCORS GmbH (www.incors.com).</desc>
		<path id="curve28"  d="M3530 3129c121,-119 170,-309 216,-488 9,-36 18,-71 21,-79 8,-30 29,-53 56,-65 63,-33 108,-90 133,-156 29,-78 32,-168 9,-247 -5,-18 -5,-35 -1,-52 23,-95 35,-189 39,-279 4,-77 3,-151 -1,-220 -107,-36 -274,-58 -470,-41 -184,15 -388,64 -587,163l-45 22 -45 -22c-200,-100 -404,-149 -587,-164 -196,-16 -363,5 -470,42 -3,82 -4,159 0,235 4,86 15,172 38,264 5,19 4,39 -2,56 -22,78 -18,166 11,243 25,67 71,125 136,157 27,14 45,37 52,64l19 72c48,183 99,377 218,495 20,19 30,45 30,71 0,42 4,83 7,122 17,179 33,356 -157,465 -15,8 -29,17 -44,26 12,99 55,217 194,287 447,224 531,855 600,1200 60,-299 221,-1010 600,-1200 139,-70 182,-188 194,-287 -16,-10 -33,-19 -49,-29 -185,-110 -169,-273 -153,-445 5,-47 9,-94 8,-137 0,-28 11,-54 30,-73zm216 483c116,72 212,102 317,134 55,16 114,34 183,59l21 8c126,46 283,104 386,203 111,108 196,243 254,389 62,153 93,318 93,475 0,225 -254,370 -605,461 -465,121 -1113,159 -1495,159 -382,0 -1030,-38 -1495,-159 -351,-91 -605,-236 -605,-461 0,-157 31,-322 93,-476 58,-145 143,-280 254,-388 103,-99 260,-157 386,-203 68,-25 135,-46 204,-67 104,-32 199,-62 313,-133 80,-45 69,-158 59,-273 -3,-33 -6,-67 -8,-100 -137,-153 -191,-360 -242,-556 -1,-6 -3,-14 -8,-30 -92,-58 -156,-145 -193,-243 -41,-109 -48,-234 -22,-346 -22,-96 -33,-186 -38,-276 -5,-93 -2,-185 2,-284l0 -29c0,-182 53,-381 168,-557l-853 -194c-24,-5 -39,-25 -39,-49 0,-24 15,-43 39,-49l1919 -436c45,-10 87,-10 132,0l1021 232 523 54c73,7 119,45 149,99l226 51c24,6 39,25 39,49 0,24 -15,44 -39,49l-185 42 0 271c97,40 161,135 161,241 0,87 -42,165 -112,214 25,183 48,382 67,579 27,284 44,563 44,788l0 100c-173,0 -347,0 -520,0l0 -100c0,-225 17,-504 44,-788 19,-197 42,-396 68,-580 -69,-48 -112,-129 -112,-213 0,-105 64,-200 160,-240l0 -227 -472 108c117,176 172,374 172,556l0 25c5,83 7,174 2,272 -4,94 -16,192 -38,292 27,113 20,237 -22,346 -37,98 -101,185 -193,243 -5,17 -7,27 -10,37 -49,191 -102,394 -240,549 -1,40 -4,79 -8,117 -11,107 -21,209 55,255z"/>
</svg>