<?xml version="1.0" encoding="UTF-8"?>
<!DOCTYPE svg PUBLIC "-//W3C//DTD SVG 1.1//EN" "http://www.w3.org/Graphics/SVG/1.1/DTD/svg11.dtd">
<svg xmlns="http://www.w3.org/2000/svg" xml:space="preserve" width="580px" height="580px" shape-rendering="geometricPrecision" text-rendering="geometricPrecision" image-rendering="optimizeQuality" fill-rule="nonzero" clip-rule="nonzero" viewBox="0 0 5800 5800" xmlns:xlink="http://www.w3.org/1999/xlink">
	<title>graduation_hat icon</title>
	<desc>graduation_hat icon from the IconExperience.com I-Collection. Copyright by INCORS GmbH (www.incors.com).</desc>
		<path id="curve28"  d="M2900 1200c70,0 136,15 186,40 44,22 77,52 96,88l1559 156 117 -39 -1958 -542 -1958 542 1958 650 1377 -457 -1137 -114c-16,14 -34,26 -54,36 -50,25 -116,40 -186,40 -70,0 -136,-15 -186,-40 -70,-35 -114,-92 -114,-160 0,-69 44,-125 114,-160 50,-25 116,-40 186,-40zm-1600 1704c0,-380 109,-740 349,-1014l-1391 -462 2642 -731 2642 731 -514 170c45,52 72,119 72,193l0 526c119,42 201,155 201,283 0,106 -56,203 -146,257 34,240 65,502 89,763 35,362 56,716 56,1080 -200,0 -400,0 -600,0 0,-364 21,-718 56,-1080 24,-261 56,-524 89,-764 -89,-54 -144,-151 -144,-256 0,-127 80,-240 199,-283l0 -526c0,-57 -47,-96 -100,-101l-37 -4 -612 204c239,274 349,634 349,1014l0 152 -15 23c-78,128 -195,236 -338,324 -323,198 -786,297 -1247,297 -461,0 -924,-99 -1247,-297 -152,-94 -259,-195 -353,-348l0 -151zm558 -945c-247,240 -358,581 -358,945l0 94c61,90 149,168 257,235 291,178 716,267 1143,267 427,0 852,-89 1143,-267 108,-67 196,-145 257,-235l0 -94c0,-363 -111,-705 -358,-945l-1042 346 -1042 -346z"/>
</svg>