<?xml version="1.0" encoding="UTF-8"?>
<!DOCTYPE svg PUBLIC "-//W3C//DTD SVG 1.1//EN" "http://www.w3.org/Graphics/SVG/1.1/DTD/svg11.dtd">
<svg xmlns="http://www.w3.org/2000/svg" xml:space="preserve" width="580px" height="580px" shape-rendering="geometricPrecision" text-rendering="geometricPrecision" image-rendering="optimizeQuality" fill-rule="nonzero" clip-rule="nonzero" viewBox="0 0 5800 5800" xmlns:xlink="http://www.w3.org/1999/xlink">
	<title>graduation_hat2 icon</title>
	<desc>graduation_hat2 icon from the IconExperience.com I-Collection. Copyright by INCORS GmbH (www.incors.com).</desc>
		<path id="curve29" d="M1300 2504c0,-380 109,-740 349,-1014l-1391 -462 2642 -731 2642 731 -514 170c45,52 72,119 72,193l0 126c119,42 201,155 201,283 0,101 -51,195 -135,250 29,177 56,366 78,553 34,286 56,568 56,797l0 100c-200,0 -400,0 -600,0l0 -100c0,-229 22,-511 56,-797 22,-187 49,-377 78,-554 -83,-55 -133,-148 -133,-249 0,-127 80,-240 199,-283l0 -126c0,-57 -47,-96 -100,-101l-37 -4 -612 204c239,274 349,634 349,1014l0 152c-94,152 -201,254 -353,347 -323,198 -786,297 -1247,297 -461,0 -924,-99 -1247,-297 -152,-94 -259,-195 -353,-348l0 -151zm1600 -1704c70,0 136,15 186,40 44,22 77,52 96,88l1559 156 117 -39 -1958 -542 -1958 542 1958 650 1377 -457 -1137 -114c-16,14 -34,26 -54,36 -50,25 -116,40 -186,40 -70,0 -136,-15 -186,-40 -70,-35 -114,-92 -114,-160 0,-69 44,-125 114,-160 50,-25 116,-40 186,-40zm-1042 759c-247,240 -358,581 -358,945l0 94c61,90 149,168 257,235 291,178 716,267 1143,267 427,0 852,-89 1143,-267 108,-67 196,-145 257,-235l0 -94c0,-363 -111,-704 -358,-945l-1042 346 -1042 -346z"/>
	<path id="curve28" d="M2550 4100c138,0 250,112 250,250 0,138 -112,250 -250,250 -138,0 -250,-113 -250,-250 0,-138 112,-250 250,-250zm850 996c-21,-44 -43,-89 -67,-134 -11,-22 -22,-44 -34,-65l1235 1c-78,-92 -131,-208 -148,-339 -21,-204 17,-397 133,-568 23,-34 48,-65 76,-94l-1293 -1c-10,-19 -22,-38 -35,-56 -52,-69 -117,-113 -188,-143l1914 1c53,-4 100,35 106,88 6,55 -33,104 -88,111 -139,18 -248,90 -327,206 -84,123 -120,285 -99,432 14,113 67,210 143,276 72,63 170,100 266,87 93,-12 172,-64 226,-139 60,-85 85,-197 70,-299 -8,-67 -39,-124 -84,-163 -41,-36 -96,-57 -151,-50 -53,7 -97,36 -128,79 -35,50 -50,116 -41,176 4,29 26,65 59,63 34,-5 47,-37 45,-68 -7,-57 28,-109 87,-115 57,-7 104,34 111,90 15,139 -79,282 -224,292 -142,12 -259,-101 -276,-238 -12,-113 10,-222 77,-316 62,-87 166,-155 275,-162 111,-11 216,28 298,99 79,70 136,172 151,289 15,159 -13,306 -107,438 -85,120 -213,203 -364,222 -40,4 -76,5 -116,1l-1502 -1zm-2500 -1c-368,0 -600,-359 -600,-700 0,-341 232,-700 600,-700l1111 1c-32,32 -61,66 -87,102 -23,31 -44,64 -62,97l-962 0c-256,0 -400,271 -400,500 0,229 144,500 400,500l892 1c-24,46 -48,93 -70,139 -9,20 -18,40 -27,60l-795 0zm1297 -112c-35,65 -76,143 -114,222 -4,10 -9,20 -14,30 44,-9 79,-10 115,-7 46,5 89,19 141,52 13,9 15,-154 16,-175 1,-26 3,-51 4,-74 -24,-3 -48,-8 -71,-15 -28,-9 -54,-20 -77,-33zm493 -1c12,65 26,145 43,228 4,19 7,39 11,58 42,-37 80,-58 117,-70 51,-16 92,-15 145,0 -9,-18 -18,-36 -27,-53 -39,-75 -79,-148 -114,-206 -40,11 -75,19 -110,27 -24,6 -50,12 -59,14l-6 2zm358 -126c35,59 72,127 108,197 53,104 103,210 136,289l91 219 -220 -89c-26,-10 -57,-23 -86,-34 -94,-39 -135,-56 -154,-50 -13,4 -29,14 -51,34 -28,25 -62,63 -104,119l-128 169 -49 -206c-16,-69 -36,-162 -54,-256l-3 -15c-6,96 -13,192 -22,266l-27 201 -143 -143c-55,-55 -94,-89 -125,-109 -22,-14 -38,-20 -53,-21 -18,-2 -39,0 -69,7 -38,8 -89,25 -164,49l-186 61 60 -186c22,-70 58,-154 98,-238 47,-100 102,-203 147,-281 -31,-48 -52,-102 -75,-160 -7,-19 -25,-41 -42,-62 -9,-12 -19,-23 -27,-35 -36,-49 -57,-103 -63,-159 -6,-56 3,-114 28,-169 18,-40 42,-67 66,-95 16,-18 32,-36 40,-54 30,-61 64,-129 108,-190 50,-68 111,-128 191,-163 124,-54 241,-10 349,31 26,10 52,20 74,26 20,6 53,12 90,18 114,20 252,44 318,132 25,34 39,75 47,116 7,34 10,67 12,93 1,5 2,20 3,35 3,38 6,79 14,109 21,78 32,170 22,258 -10,78 -36,154 -87,217 -24,28 -46,51 -70,69zm-891 -665c-20,42 -45,71 -69,99 -15,17 -29,34 -36,47 -9,21 -13,43 -11,64 3,22 11,43 26,63 6,9 14,19 21,28 27,34 55,68 73,115 23,58 44,110 72,147 23,32 54,56 102,72 23,7 47,10 72,10 27,0 56,-3 84,-8 28,-6 60,-15 91,-24 20,-5 40,-11 66,-18 31,-7 46,-11 62,-14 40,-10 81,-19 114,-29 33,-9 60,-18 82,-31 20,-12 38,-28 58,-52 24,-29 37,-69 42,-113 7,-61 -1,-127 -16,-183 -13,-49 -17,-99 -20,-147 -1,-8 -1,-16 -3,-33 -2,-20 -4,-46 -9,-70 -3,-16 -7,-30 -10,-35 -18,-24 -114,-41 -193,-55 -42,-7 -80,-14 -112,-23 -30,-9 -59,-20 -88,-31 -72,-27 -149,-57 -200,-35 -41,18 -77,55 -108,97 -36,50 -65,108 -90,159z"/>
</svg>