<?xml version="1.0" encoding="UTF-8"?>
<!DOCTYPE svg PUBLIC "-//W3C//DTD SVG 1.1//EN" "http://www.w3.org/Graphics/SVG/1.1/DTD/svg11.dtd">
<svg xmlns="http://www.w3.org/2000/svg" xml:space="preserve" width="580px" height="580px" shape-rendering="geometricPrecision" text-rendering="geometricPrecision" image-rendering="optimizeQuality" fill-rule="nonzero" clip-rule="nonzero" viewBox="0 0 5800 5800" xmlns:xlink="http://www.w3.org/1999/xlink">
	<title>graduation_hat2 icon</title>
	<desc>graduation_hat2 icon from the IconExperience.com I-Collection. Copyright by INCORS GmbH (www.incors.com).</desc>
		<path id="curve28"  d="M4989 4492c-6,-55 33,-104 88,-110 59,-7 108,37 111,96 7,68 -12,133 -48,184 -41,57 -105,97 -176,102 -68,6 -134,-18 -184,-62 -53,-47 -88,-116 -93,-187 -12,-114 19,-221 78,-305 62,-87 166,-155 275,-162 111,-11 216,28 298,99 79,70 136,172 151,289 15,159 -13,306 -107,438 -85,120 -213,203 -364,222 -40,4 -76,5 -116,1l-1502 -1c-21,-43 -43,-89 -67,-134 -13,-26 -26,-52 -40,-77 64,-89 98,-189 110,-291 14,-116 -1,-235 -27,-333 -4,-13 -6,-43 -8,-72 -1,-23 -2,-32 -2,-38 -3,-31 -7,-72 -16,-115 -32,-160 -120,-275 -271,-339l1914 1c53,-4 100,35 106,88 6,55 -33,104 -88,111 -139,18 -248,90 -327,206 -78,114 -117,263 -101,418 15,115 56,212 145,290 71,63 163,97 258,88 98,-13 176,-59 234,-140 60,-85 85,-197 70,-299 -8,-67 -39,-124 -84,-163 -40,-36 -92,-55 -145,-51 -57,8 -100,33 -134,80 -32,45 -48,104 -42,168 3,23 8,42 26,58 10,9 22,14 34,13 15,-2 24,-7 32,-19 12,-16 14,-35 12,-54zm-4731 -3464l2642 -731 2642 731 -2642 877 -2642 -877zm1899 3163c-20,42 -45,71 -69,99 -15,17 -29,34 -36,47 -19,44 -14,88 15,127 6,9 14,19 21,28 27,34 55,68 73,115 23,58 44,110 72,147 23,32 54,56 102,72 49,16 106,11 156,2 53,-10 105,-29 157,-42 31,-7 46,-11 62,-14 40,-10 81,-19 114,-29 62,-17 98,-32 140,-83 24,-29 37,-69 42,-113 7,-61 -1,-127 -16,-183 -13,-49 -17,-99 -20,-147 -2,-30 -9,-121 -22,-138 -18,-24 -114,-41 -193,-55 -42,-7 -80,-14 -112,-23 -30,-9 -59,-20 -88,-31 -72,-27 -149,-57 -200,-35 -41,18 -77,55 -108,97 -36,50 -65,108 -90,159zm393 -91c138,0 250,112 250,250 0,138 -112,250 -250,250 -138,0 -250,-113 -250,-250 0,-138 112,-250 250,-250zm498 756c35,59 72,127 108,197 53,104 103,210 136,289l91 219 -220 -89c-26,-10 -57,-23 -86,-34 -94,-39 -135,-56 -154,-50 -13,4 -29,14 -51,34 -28,25 -62,63 -104,119l-128 169c-37,-154 -73,-306 -103,-462l-3 -15c-9,161 -28,309 -49,467l-143 -143c-55,-55 -94,-89 -125,-109 -43,-28 -72,-26 -122,-14 -38,8 -89,25 -164,49l-186 61 60 -186c22,-70 58,-154 98,-238 47,-100 102,-203 147,-281 -31,-48 -52,-102 -75,-160 -7,-19 -25,-41 -42,-62 -9,-12 -19,-23 -27,-35 -36,-49 -57,-103 -63,-159 -6,-56 3,-114 28,-169 29,-62 82,-99 106,-149 30,-61 64,-129 108,-190 50,-68 111,-128 191,-163 124,-54 241,-10 349,31 26,10 52,20 74,26 20,6 53,12 90,18 114,20 252,44 318,132 25,34 39,75 47,116 9,42 12,85 15,128 3,38 6,79 14,109 21,78 32,170 22,258 -10,78 -36,154 -87,217 -24,28 -46,51 -70,69zm-1224 -20c-35,63 -70,133 -102,199 -9,20 -18,40 -28,60l-794 0c-368,0 -600,-359 -600,-700 0,-341 232,-700 600,-700l1111 1c-95,93 -156,204 -213,323 -4,8 -4,1 -12,10 -33,38 -66,76 -96,142 -41,89 -55,182 -46,273 10,91 44,179 101,256 10,14 21,28 32,42 25,31 30,56 47,94zm-524 -2332c0,-306 71,-599 224,-845l1376 457 1376 -457c153,246 224,539 224,845l0 152c-312,508 -1051,644 -1600,644 -550,0 -1288,-136 -1600,-645l0 -151zm1882 -1576c-50,-95 -183,-128 -282,-128 -120,0 -300,54 -300,200 0,146 180,200 300,200 81,0 177,-21 240,-76l1660 166c53,5 100,44 100,101l0 126c-119,43 -199,156 -199,283 0,101 50,194 133,249 -29,177 -56,367 -78,554 -34,286 -56,568 -56,797l0 100c200,0 400,0 600,0l0 -100c0,-229 -22,-511 -56,-797 -22,-187 -49,-376 -78,-553 84,-55 135,-149 135,-250 0,-128 -82,-241 -201,-283l0 -126c0,-160 -125,-284 -281,-299l-1637 -164z"/>
</svg>