<?xml version="1.0" encoding="UTF-8"?>
<!DOCTYPE svg PUBLIC "-//W3C//DTD SVG 1.1//EN" "http://www.w3.org/Graphics/SVG/1.1/DTD/svg11.dtd">
<svg xmlns="http://www.w3.org/2000/svg" xml:space="preserve" width="580px" height="580px" shape-rendering="geometricPrecision" text-rendering="geometricPrecision" image-rendering="optimizeQuality" fill-rule="nonzero" clip-rule="nonzero" viewBox="0 0 5800 5800" xmlns:xlink="http://www.w3.org/1999/xlink">
	<title>graduation_hat icon</title>
	<desc>graduation_hat icon from the IconExperience.com I-Collection. Copyright by INCORS GmbH (www.incors.com).</desc>
		<path id="curve28"  d="M258 1428l2642 -731 2642 731 -2642 877 -2642 -877zm1042 1476c0,-306 71,-599 224,-845l1376 457 1376 -457c153,246 224,539 224,845l0 152c-312,508 -1051,644 -1600,644 -549,0 -1288,-136 -1600,-645l0 -151zm1600 -1704c-120,0 -300,54 -300,200 0,146 180,200 300,200 81,0 177,-21 240,-76l1660 166c53,5 100,44 100,101l0 526c-119,43 -199,156 -199,283 0,105 55,202 144,256 -33,240 -65,503 -89,764 -34,353 -56,700 -56,980l0 100c200,0 400,0 600,0l0 -100c0,-280 -22,-627 -56,-980 -24,-261 -55,-523 -89,-763 90,-54 146,-151 146,-257 0,-127 -82,-241 -201,-283l0 -526c0,-160 -125,-284 -281,-299l-1637 -164c-50,-95 -183,-128 -282,-128z"/>
</svg>