<?xml version="1.0" encoding="UTF-8"?>
<!DOCTYPE svg PUBLIC "-//W3C//DTD SVG 1.1//EN" "http://www.w3.org/Graphics/SVG/1.1/DTD/svg11.dtd">
<svg xmlns="http://www.w3.org/2000/svg" xml:space="preserve" width="580px" height="580px" shape-rendering="geometricPrecision" text-rendering="geometricPrecision" image-rendering="optimizeQuality" fill-rule="nonzero" clip-rule="nonzero" viewBox="0 0 5800 5800" xmlns:xlink="http://www.w3.org/1999/xlink">
	<title>graduate icon</title>
	<desc>graduate icon from the IconExperience.com I-Collection. Copyright by INCORS GmbH (www.incors.com).</desc>
		<path id="curve28"  d="M4395 5341c-426,111 -1007,152 -1395,158l0 -189c30,-148 83,-390 173,-614 87,-220 208,-425 372,-507 172,-86 241,-309 286,-529 81,40 152,62 232,86 186,56 462,146 590,270 111,108 196,243 254,389 62,153 93,318 93,475 0,225 -254,370 -605,461zm-1595 158c-388,-6 -969,-47 -1395,-158 -351,-91 -605,-236 -605,-461 0,-157 31,-322 93,-476 58,-145 143,-280 254,-388 131,-127 408,-216 590,-270 80,-24 151,-46 232,-86 45,220 114,443 286,529 383,191 472,740 545,1120l0 190zm-699 -2259c-145,-163 -195,-381 -250,-586 -193,-122 -266,-374 -215,-589 -16,-71 -26,-139 -32,-206l230 -115c300,-150 780,24 1066,167 285,-142 767,-316 1066,-167l230 115c-6,67 -17,136 -32,206 51,216 -21,467 -215,589 -55,207 -103,421 -250,586 -2,80 -22,156 -36,235 -39,217 -85,475 -208,536 -215,108 -365,353 -467,611 -31,77 -57,155 -80,230 -84,-324 -232,-675 -563,-841 -123,-61 -169,-319 -208,-535 -15,-81 -32,-154 -36,-236zm-501 -1764c0,-182 53,-381 168,-557l-853 -194c-24,-5 -39,-25 -39,-49 0,-24 15,-43 39,-49l1919 -436c45,-10 87,-10 132,0l1021 232 523 54c73,7 119,45 149,99l226 51c24,6 39,25 39,49 0,24 -15,44 -39,49l-185 42 0 9 0 262c97,40 161,135 161,241 0,87 -42,165 -112,214 25,183 48,382 67,579 27,284 44,563 44,788l0 100 -100 0 -320 0 -100 0 0 -100c0,-225 17,-504 44,-788 18,-187 41,-387 68,-580 -69,-48 -112,-129 -112,-213 0,-105 64,-200 160,-240l0 -227 -472 108c117,176 172,374 172,556l0 161 -145 -72c-319,-160 -849,-31 -1155,122 -307,-153 -834,-283 -1155,-122l-145 72 0 -161z"/>
</svg>