<?xml version="1.0" encoding="UTF-8"?>
<!DOCTYPE svg PUBLIC "-//W3C//DTD SVG 1.1//EN" "http://www.w3.org/Graphics/SVG/1.1/DTD/svg11.dtd">
<svg xmlns="http://www.w3.org/2000/svg" xml:space="preserve" width="580px" height="580px" shape-rendering="geometricPrecision" text-rendering="geometricPrecision" image-rendering="optimizeQuality" fill-rule="nonzero" clip-rule="nonzero" viewBox="0 0 5800 5800" xmlns:xlink="http://www.w3.org/1999/xlink">
	<title>grand_piano icon</title>
	<desc>grand_piano icon from the IconExperience.com I-Collection. Copyright by INCORS GmbH (www.incors.com).</desc>
	<path id="curve0"  d="M500 1724c0,-785 641,-1418 1424,-1424 642,-2 1208,417 1386,1036 240,832 758,1174 1195,1462 434,287 795,525 795,1102 0,533 0,1067 0,1600l-4800 0 0 -1000 0 -2776zm1000 2976l0 400 -200 0 0 -400 -200 0 0 400 -200 0 0 -400 -200 0 0 600 4400 0 0 -600 -200 0 0 400 -200 0 0 -400 -200 0 0 400 -200 0 0 -400 -400 0 0 400 -200 0 0 -400 -200 0 0 400 -200 0 0 -400 -400 0 0 400 -200 0 0 -400 -200 0 0 400 -200 0 0 -400 -200 0 0 400 -200 0 0 -400 -400 0zm-800 -200l4400 0 0 -600c0,-469 -320,-681 -705,-935 -465,-307 -1015,-671 -1276,-1575 -154,-532 -643,-893 -1194,-890 -674,4 -1225,549 -1225,1224l0 2776z"/>
</svg>