<?xml version="1.0" encoding="UTF-8"?>
<!DOCTYPE svg PUBLIC "-//W3C//DTD SVG 1.1//EN" "http://www.w3.org/Graphics/SVG/1.1/DTD/svg11.dtd">
<svg xmlns="http://www.w3.org/2000/svg" xml:space="preserve" width="580px" height="580px" shape-rendering="geometricPrecision" text-rendering="geometricPrecision" image-rendering="optimizeQuality" fill-rule="nonzero" clip-rule="nonzero" viewBox="0 0 5800 5800" xmlns:xlink="http://www.w3.org/1999/xlink">
	<title>grand_piano icon</title>
	<desc>grand_piano icon from the IconExperience.com I-Collection. Copyright by INCORS GmbH (www.incors.com).</desc>
	<path id="curve0"  d="M5300 5500l-4800 0c0,-1258 3,-2517 0,-3776 0,-785 641,-1419 1424,-1424 642,-3 1208,417 1386,1036 240,832 758,1174 1195,1462 434,287 795,525 795,1102 0,533 0,1067 0,1600zm-3800 -800l0 400 -200 0 0 -400 -200 0 0 400 -200 0 0 -400 -200 0 0 600 4400 0 0 -600 -200 0 0 400 -200 0 0 -400 -200 0 0 400 -200 0 0 -400 -400 0 0 400 -200 0 0 -400 -200 0 0 400 -200 0 0 -400 -400 0 0 400 -200 0 0 -400 -200 0 0 400 -200 0 0 -400 -200 0 0 400 -200 0 0 -400 -400 0z"/>
</svg>