<?xml version="1.0" encoding="UTF-8"?>
<!DOCTYPE svg PUBLIC "-//W3C//DTD SVG 1.1//EN" "http://www.w3.org/Graphics/SVG/1.1/DTD/svg11.dtd">
<svg xmlns="http://www.w3.org/2000/svg" xml:space="preserve" width="580px" height="580px" shape-rendering="geometricPrecision" text-rendering="geometricPrecision" image-rendering="optimizeQuality" fill-rule="nonzero" clip-rule="nonzero" viewBox="0 0 5800 5800" xmlns:xlink="http://www.w3.org/1999/xlink">
	<title>graph_star icon</title>
	<desc>graph_star icon from the IconExperience.com I-Collection. Copyright by INCORS GmbH (www.incors.com).</desc>
		<path id="curve28"  d="M3972 4046l-354 -200c40,-52 75,-110 103,-170l349 197c-38,54 -72,112 -98,173zm-2242 -173l354 -200c27,61 62,118 102,171l-358 202c-26,-61 -59,-119 -98,-173zm1070 -1467l0 -512c33,4 66,6 100,6 34,0 67,-2 100,-6l0 511c-32,-3 -64,-5 -97,-5 -35,0 -69,2 -103,6zm100 -2106c387,0 700,313 700,700 0,387 -313,700 -700,700 -387,0 -700,-313 -700,-700 0,-387 313,-700 700,-700zm-1900 3400c387,0 700,313 700,700 0,387 -313,700 -700,700 -387,0 -700,-313 -700,-700 0,-387 313,-700 700,-700zm3800 0c387,0 700,313 700,700 0,387 -313,700 -700,700 -387,0 -700,-313 -700,-700 0,-387 313,-700 700,-700zm-1897 -1100c386,0 700,313 700,700 0,387 -314,700 -700,700 -387,0 -700,-313 -700,-700 0,-387 313,-700 700,-700z"/>
</svg>