<?xml version="1.0" encoding="UTF-8"?>
<!DOCTYPE svg PUBLIC "-//W3C//DTD SVG 1.1//EN" "http://www.w3.org/Graphics/SVG/1.1/DTD/svg11.dtd">
<svg xmlns="http://www.w3.org/2000/svg" xml:space="preserve" width="580px" height="580px" shape-rendering="geometricPrecision" text-rendering="geometricPrecision" image-rendering="optimizeQuality" fill-rule="nonzero" clip-rule="nonzero" viewBox="0 0 5800 5800" xmlns:xlink="http://www.w3.org/1999/xlink">
	<title>graph_connection_directed icon</title>
	<desc>graph_connection_directed icon from the IconExperience.com I-Collection. Copyright by INCORS GmbH (www.incors.com).</desc>
		<path id="curve28"  d="M1900 2800l1659 0 -630 -629 142 -142 870 871 -870 871 -142 -142 630 -629 -1659 0 0 -200zm2900 -600c387,0 700,313 700,700 0,387 -313,700 -700,700 -387,0 -700,-313 -700,-700 0,-387 313,-700 700,-700zm-3800 0c387,0 700,313 700,700 0,387 -313,700 -700,700 -387,0 -700,-313 -700,-700 0,-387 313,-700 700,-700z"/>
</svg>