<?xml version="1.0" encoding="UTF-8"?>
<!DOCTYPE svg PUBLIC "-//W3C//DTD SVG 1.1//EN" "http://www.w3.org/Graphics/SVG/1.1/DTD/svg11.dtd">
<svg xmlns="http://www.w3.org/2000/svg" xml:space="preserve" width="580px" height="580px" shape-rendering="geometricPrecision" text-rendering="geometricPrecision" image-rendering="optimizeQuality" fill-rule="nonzero" clip-rule="nonzero" viewBox="0 0 5800 5800" xmlns:xlink="http://www.w3.org/1999/xlink">
	<title>graph_fork icon</title>
	<desc>graph_fork icon from the IconExperience.com I-Collection. Copyright by INCORS GmbH (www.incors.com).</desc>
		<path id="curve28" d="M3701 2900c483,202 799,674 799,1200l0 959 629 -630 142 142c-291,290 -581,580 -871,870 -290,-290 -580,-580 -871,-870l142 -142 629 630 0 -959c0,-608 -492,-1100 -1100,-1100l-1300 0 0 -200 1300 0c608,0 1100,-492 1100,-1100l0 -959 -629 630 -142 -142 871 -870 871 870 -142 142 -629 -630 0 959c0,526 -316,998 -799,1200zm-2701 -700c387,0 700,313 700,700 0,387 -313,700 -700,700 -387,0 -700,-313 -700,-700 0,-387 313,-700 700,-700zm0 200c-276,0 -500,224 -500,500 0,276 224,500 500,500 276,0 500,-224 500,-500 0,-276 -224,-500 -500,-500z"/>
</svg>