<?xml version="1.0" encoding="UTF-8"?>
<!DOCTYPE svg PUBLIC "-//W3C//DTD SVG 1.1//EN" "http://www.w3.org/Graphics/SVG/1.1/DTD/svg11.dtd">
<svg xmlns="http://www.w3.org/2000/svg" xml:space="preserve" width="580px" height="580px" shape-rendering="geometricPrecision" text-rendering="geometricPrecision" image-rendering="optimizeQuality" fill-rule="nonzero" clip-rule="nonzero" viewBox="0 0 5800 5800" xmlns:xlink="http://www.w3.org/1999/xlink">
	<title>graph_fork2 icon</title>
	<desc>graph_fork2 icon from the IconExperience.com I-Collection. Copyright by INCORS GmbH (www.incors.com).</desc>
		<path id="curve28"  d="M4959 1700l-959 0c-370,0 -662,264 -801,590 -112,260 -300,483 -555,607 258,125 443,352 555,613 139,326 432,590 801,590l959 0 -630 -629 142 -142 870 871 -870 871 -142 -142 630 -629 -959 0c-449,0 -814,-312 -985,-712 -143,-335 -422,-588 -801,-588 0,0 -288,0 -314,0l0 -200 300 0c379,0 671,-251 815,-588 171,-400 536,-712 985,-712l959 0 -630 -629 142 -142 870 871 -870 871 -142 -142 630 -629zm-3959 500c387,0 700,313 700,700 0,387 -313,700 -700,700 -387,0 -700,-313 -700,-700 0,-387 313,-700 700,-700z"/>
</svg>