<?xml version="1.0" encoding="UTF-8"?>
<!DOCTYPE svg PUBLIC "-//W3C//DTD SVG 1.1//EN" "http://www.w3.org/Graphics/SVG/1.1/DTD/svg11.dtd">
<svg xmlns="http://www.w3.org/2000/svg" xml:space="preserve" width="580px" height="580px" shape-rendering="geometricPrecision" text-rendering="geometricPrecision" image-rendering="optimizeQuality" fill-rule="nonzero" clip-rule="nonzero" viewBox="0 0 5800 5800" xmlns:xlink="http://www.w3.org/1999/xlink">
	<title>graphics_tablet icon</title>
	<desc>graphics_tablet icon from the IconExperience.com I-Collection. Copyright by INCORS GmbH (www.incors.com).</desc>
	<path id="curve0"  d="M5192 184c39,-39 102,-39 141,0l283 283c39,39 39,102 0,141l-2185 2186c-16,15 -35,24 -56,28l-354 76c-72,15 -135,-51 -118,-121l76 -358c5,-19 14,-36 28,-50l2185 -2185zm-4792 516l3993 0 -600 600 -3093 0 0 3200 4400 0 0 -3093 559 -559c26,45 41,97 41,152l0 3800c0,165 -135,300 -300,300l-5000 0c-165,0 -300,-135 -300,-300l0 -3800c0,-165 135,-300 300,-300zm3193 800l-2693 0 0 2800 4000 0 0 -2693 -1328 1328c-47,47 -105,75 -166,84l-344 74c-162,34 -321,-69 -355,-231 -9,-44 -8,-89 1,-130l76 -354c13,-59 42,-110 81,-150l728 -728z"/>
</svg>