<?xml version="1.0" encoding="UTF-8"?>
<!DOCTYPE svg PUBLIC "-//W3C//DTD SVG 1.1//EN" "http://www.w3.org/Graphics/SVG/1.1/DTD/svg11.dtd">
<svg xmlns="http://www.w3.org/2000/svg" xml:space="preserve" width="580px" height="580px" shape-rendering="geometricPrecision" text-rendering="geometricPrecision" image-rendering="optimizeQuality" fill-rule="nonzero" clip-rule="nonzero" viewBox="0 0 5800 5800" xmlns:xlink="http://www.w3.org/1999/xlink">
	<title>grenade icon</title>
	<desc>grenade icon from the IconExperience.com I-Collection. Copyright by INCORS GmbH (www.incors.com).</desc>
	<path id="curve0"  d="M3401 900c607,1 1099,492 1099,1100 0,607 -493,1100 -1100,1100 -607,0 -1100,-493 -1100,-1100 0,-607 493,-1100 1101,-1100zm1624 3848c-44,101 -161,148 -262,105 -102,-44 -149,-161 -105,-263 80,-185 141,-380 182,-578 57,-281 71,-577 54,-874 -20,-341 -82,-681 -168,-1000 -9,-32 -18,-65 -27,-96 12,-366 -127,-711 -388,-969 -88,-164 -198,-373 -411,-373 -167,0 -333,0 -500,0 -445,0 -857,227 -1096,600l-204 0 0 -700c0,-165 135,-300 300,-300l1500 0c316,0 531,191 686,449 93,156 197,360 295,602 338,828 530,1858 349,2741 -46,225 -114,445 -205,656zm-441 -1148c59,0 106,52 99,111 -11,107 -29,212 -52,315 -23,102 -51,202 -85,299 -11,43 -50,75 -97,75l-145 0c-29,68 -60,135 -94,200l60 0c75,0 125,81 88,148 -151,274 -347,518 -583,723 -18,18 -43,29 -71,29l-1608 0c-23,0 -46,-8 -65,-24 -237,-205 -434,-448 -586,-722 -41,-66 5,-154 85,-154l60 0c-34,-65 -65,-132 -94,-200l-145 0c-41,0 -80,-26 -94,-67 -70,-199 -117,-406 -140,-615 -11,-61 36,-118 99,-118l91 0c-4,-66 -7,-133 -7,-200l-97 0c-57,0 -103,-48 -100,-105 11,-212 53,-420 121,-621 11,-43 50,-74 97,-74l144 0c28,-69 58,-134 91,-200l-61 0c-74,0 -124,-80 -88,-147 138,-259 316,-501 515,-716 19,-23 47,-37 78,-37l200 0c-65,154 -100,323 -100,500 0,718 582,1300 1300,1300 478,0 914,-261 1142,-678 14,12 26,27 32,46 35,102 63,207 84,314 20,99 33,201 38,305 8,60 -38,113 -99,113l-97 0c0,67 -3,134 -7,200l91 0zm-784 -2100c27,0 53,11 73,32 59,64 118,131 174,201 34,83 53,173 53,267 0,387 -313,700 -700,700 -387,0 -700,-313 -700,-700 0,-190 75,-367 210,-500l890 0zm-400 -400c-497,0 -900,403 -900,900 0,497 403,900 900,900 497,0 900,-403 900,-900 0,-497 -403,-900 -900,-900z"/>
</svg>