<?xml version="1.0" encoding="UTF-8"?>
<!DOCTYPE svg PUBLIC "-//W3C//DTD SVG 1.1//EN" "http://www.w3.org/Graphics/SVG/1.1/DTD/svg11.dtd">
<svg xmlns="http://www.w3.org/2000/svg" xml:space="preserve" width="580px" height="580px" shape-rendering="geometricPrecision" text-rendering="geometricPrecision" image-rendering="optimizeQuality" fill-rule="nonzero" clip-rule="nonzero" viewBox="0 0 5800 5800" xmlns:xlink="http://www.w3.org/1999/xlink">
	<title>grenade icon</title>
	<desc>grenade icon from the IconExperience.com I-Collection. Copyright by INCORS GmbH (www.incors.com).</desc>
	<path id="curve0"  d="M3394 910c605,0 1095,491 1095,1095 0,605 -490,1095 -1095,1095 -605,0 -1095,-490 -1095,-1095 0,-604 490,-1095 1095,-1095zm564 3732c73,-121 134,-246 185,-378 15,-39 53,-64 93,-64l141 0c42,-131 73,-264 94,-400l-88 0c-63,0 -109,-56 -99,-117 11,-93 16,-185 16,-278 0,-34 -1,-66 -3,-100 -3,-56 43,-105 100,-105l92 0c-14,-133 -41,-264 -80,-391 48,-60 90,-124 126,-192 18,12 32,29 39,51 68,201 111,407 122,619 8,60 -38,113 -99,113l-97 0c0,67 -3,134 -7,200l91 0c59,0 106,52 99,111 -22,209 -68,415 -137,614 -11,43 -50,75 -97,75l-145 0c-29,68 -60,135 -94,200l60 0c75,0 125,81 88,148 -151,274 -347,518 -583,723 -18,18 -43,29 -71,29l-1608 0c-23,0 -46,-8 -65,-24 -237,-205 -434,-448 -586,-722 -41,-66 5,-154 85,-154l60 0c-34,-65 -65,-132 -94,-200l-145 0c-41,0 -80,-26 -94,-67 -70,-199 -117,-406 -140,-615 -11,-61 36,-118 99,-118l91 0c-4,-66 -7,-133 -7,-200 -33,0 -69,1 -102,0 -55,-3 -98,-50 -95,-105 11,-212 53,-420 121,-621 11,-43 50,-74 97,-74l144 0c28,-69 58,-134 91,-200l-61 0c-16,0 -32,-4 -47,-12 -48,-26 -67,-86 -41,-135 138,-259 316,-501 515,-716 19,-23 47,-37 78,-37l201 0c-27,64 -49,131 -66,200l-91 0c-141,155 -268,322 -377,500l57 0c55,0 100,45 100,100 0,20 -6,38 -15,53 -72,122 -133,249 -183,382 -15,40 -53,65 -93,65l-140 0c-40,130 -68,264 -82,400l92 0c55,0 100,45 100,100 0,34 -3,70 -3,105 0,95 5,189 16,284 7,59 -39,111 -99,111l-88 0c21,136 52,269 94,400l141 0c44,0 82,29 95,69 51,133 113,258 187,379 29,47 14,108 -33,137 -17,10 -35,15 -52,15l-55 0c119,184 263,354 427,500l1534 0c164,-146 308,-316 427,-500l-55 0c-55,0 -100,-45 -100,-100 0,-22 7,-42 19,-58zm35 -2285l-3 -7c-36,-61 2,-138 71,-149 -16,55 -39,107 -68,156zm87 -241c-26,-40 -53,-79 -81,-117 -76,-106 -158,-205 -243,-299l-986 0c36,-75 86,-143 147,-200l883 0c27,0 53,11 73,32 48,52 96,106 143,163 47,93 73,198 73,310 0,38 -3,75 -9,111zm-680 -1816l500 0c316,0 531,191 686,449 174,290 380,744 526,1286 111,414 188,881 188,1370l0 0c0,231 -24,462 -70,687 -46,227 -115,446 -205,656 -22,51 -80,74 -131,52 -51,-21 -74,-80 -53,-131 86,-198 151,-405 194,-617 43,-210 65,-427 65,-647l0 0c0,-468 -73,-918 -181,-1318 -140,-524 -338,-959 -505,-1236 -117,-196 -271,-351 -514,-351l-217 0c11,31 17,65 17,100l0 147c-65,-16 -132,-27 -200,-32l0 -115c0,-55 -45,-100 -100,-100l-1000 0c-55,0 -100,45 -100,100l0 500 168 0c-60,61 -113,128 -160,200l-208 0 0 -700c0,-165 135,-300 300,-300l1000 0zm-6 810c-494,0 -895,401 -895,895 0,494 401,895 895,895 494,0 895,-401 895,-895 0,-494 -401,-895 -895,-895z"/>
</svg>