<?xml version="1.0" encoding="utf-8"?>
<!-- Generator: Adobe Illustrator 20.1.0, SVG Export Plug-In . SVG Version: 6.00 Build 0)  -->
<svg version="1.1" id="Ebene_1" xmlns="http://www.w3.org/2000/svg" xmlns:xlink="http://www.w3.org/1999/xlink" x="0px" y="0px"
	 width="580px" height="580px" viewBox="0 0 580 580" style="enable-background:new 0 0 580 580;" xml:space="preserve">
<g>
	<path d="M130,100h180v80h20v-80h180v80h20V40H10v460h200v-20h-80V200h80v-20h-80V100z M110,480H30v-80h80V480z M110,380H30v-80h80
		V380z M110,280H30v-80h80V280z M110,180H30v-80h80V180z M30,80V60h480v20H30z"/>
	<polygon points="370,460 390,460 390,440 350,440 350,500 370,500 	"/>
	<path d="M250,220v294l25.6,26c98,0,196.4,0,294.4,0V220C463,220,356,220,250,220z M310,240h200v109.8c0,5.5-4.8,10.2-10.3,10.2
		h-180c-5.5,0-9.7-4.7-9.7-10.2V240z M470,520H330V420h140V520z M550,520h-60V409.8V400h-10.3h-160H310v9.8V520h-26.2L270,505.6V240
		h20v109.8c0,16.5,13.2,30.2,29.7,30.2h180c16.5,0,30.3-13.7,30.3-30.2V240h20V520z"/>
	<rect x="330" y="260" width="160" height="20"/>
</g>
</svg>
