<?xml version="1.0" encoding="utf-8"?>
<!-- Generator: Adobe Illustrator 19.2.1, SVG Export Plug-In . SVG Version: 6.00 Build 0)  -->
<svg version="1.1" id="grid_x5F_multiple_x5F_gi" xmlns="http://www.w3.org/2000/svg" xmlns:xlink="http://www.w3.org/1999/xlink"
	 x="0px" y="0px" width="580px" height="580px" viewBox="0 0 580 580" style="enable-background:new 0 0 580 580;"
	 xml:space="preserve">
<g>
	<path d="M550,120"/>
	<g>
		<path d="M250,120V70c0-16.5-13.5-30-30-30H60c-16.5,0-30,13.5-30,30v70v400h520V120L250,120z M130,520H50v-80h80V520z M130,420H50
			v-80h80V420z M130,320H50v-80h80V320z M130,220H50v-80h80V220z M230,520h-80v-80h80V520z M230,420h-80v-80h80V420z M230,320h-80
			v-80h80V320z M230,220h-80v-80h80V220z M330,520h-80v-80h80V520z M330,420h-80v-80h80V420z M330,320h-80v-80h80V320z M330,220h-80
			v-80h80V220z M430,520h-80v-80h80V520z M430,420h-80v-80h80V420z M430,320h-80v-80h80V320z M430,220h-80v-80h80V220z M530,520h-80
			v-80h80V520z M530,420h-80v-80h80V420z M530,320h-80v-80h80V320z M530,220h-80v-80h40h40V220z"/>
		<path d="M320,60c5.5,0,10,4.5,10,10v30h20V70c0-16.5-13.5-30-30-30h-60c4.4,5.8,7.5,12.6,9,20H320z"/>
		<path d="M420,60c5.5,0,10,4.5,10,10v30h20V70c0-16.5-13.5-30-30-30h-60c4.4,5.8,7.5,12.6,9,20H420z"/>
	</g>
</g>
</svg>
