<?xml version="1.0" encoding="utf-8"?>
<!-- Generator: Adobe Illustrator 23.0.3, SVG Export Plug-In . SVG Version: 6.00 Build 0)  -->
<svg version="1.1" id="Ebene_1" xmlns="http://www.w3.org/2000/svg" xmlns:xlink="http://www.w3.org/1999/xlink" x="0px" y="0px"
	 viewBox="0 0 580 580" style="enable-background:new 0 0 580 580;" xml:space="preserve">
<path d="M29.6,60.1v460h520v-460H29.6z M529.6,205.9H382.2V80.1h147.3V205.9z M215.7,352.6V225.9h146.6v126.7H215.7z M362.2,372.6
	v127.6H215.7V372.6H362.2z M195.7,352.6H49.6V225.9h146.1V352.6z M215.7,205.9V80.1h146.6v125.8H215.7z M382.2,225.9h147.3v126.7
	H382.2V225.9z M195.7,80.1v125.8H49.6V80.1H195.7z M49.6,372.6h146.1v127.6H49.6V372.6z M382.2,500.1V372.6h147.3v127.6H382.2z"/>
</svg>
