<?xml version="1.0" encoding="utf-8"?>
<!-- Generator: Adobe Illustrator 20.1.0, SVG Export Plug-In . SVG Version: 6.00 Build 0)  -->
<svg version="1.1" id="Ebene_1" xmlns="http://www.w3.org/2000/svg" xmlns:xlink="http://www.w3.org/1999/xlink" x="0px" y="0px"
	 width="580px" height="580px" viewBox="0 0 580 580" style="enable-background:new 0 0 580 580;" xml:space="preserve">
<path d="M210,480h-80V200h80v-20h-80v-80h180v80h20v-80h180v80h20V40H10v460h200V480z M30,60h480v20H30V60z M110,480H30v-80h80V480z
	 M110,380H30v-80h80V380z M110,280H30v-80h80V280z M110,180H30v-80h80V180z"/>
<path d="M10,40"/>
<g>
	<path d="M249.7,219.6v320h320v-320H249.7z M549.7,519.6h-280v-280h280V519.6z"/>
	<polygon points="336.8,466.7 409.7,393.7 482.6,466.7 496.8,452.5 423.8,379.6 496.8,306.7 482.6,292.5 409.7,365.5 336.8,292.5 
		322.6,306.7 395.6,379.6 322.6,452.5 	"/>
</g>
</svg>
