<?xml version="1.0" encoding="utf-8"?>
<!-- Generator: Adobe Illustrator 19.2.1, SVG Export Plug-In . SVG Version: 6.00 Build 0)  -->
<svg version="1.1" id="Ebene_1" xmlns="http://www.w3.org/2000/svg" xmlns:xlink="http://www.w3.org/1999/xlink" x="0px" y="0px"
	 width="580px" height="580px" viewBox="0 0 580 580" style="enable-background:new 0 0 580 580;" xml:space="preserve">
<g>
	<path d="M310,180h20v-80h80v80h20v-80h80v80h20V40H10v460h200v-20h-80v-80h80v-20h-80v-80h80v-20h-80v-80h80v-20h-80v-80h80v80h20
		v-80h80V180z M110,480H30v-80h80V480z M110,380H30v-80h80V380z M110,280H30v-80h80V280z M110,180H30v-80h80V180z M30,80V60h480v20
		H30z"/>
	<path d="M250,220v320h320V220H250z M550,520H270V240h280V520z"/>
	<path d="M346.9,435c18.2,12.3,39.6,19.5,60.1,19.5s42-7.2,60.1-19.5c17.5-11.9,32-28.5,39.6-48c0.3-0.9,0.3-1.8,0-2.8
		c-7.6-19.5-22.1-36.2-39.6-48c-18.2-12.3-39.7-19.5-60.1-19.5s-42,7.2-60.1,19.5c-17.5,11.9-32,28.5-39.6,48
		c-0.3,0.9-0.3,1.9,0,2.8C314.9,406.5,329.4,423.2,346.9,435z M358.5,347.7c14.7-10.1,32.1-16,48.5-16s33.8,5.9,48.5,16
		c13.8,9.5,25.2,22.6,31.4,37.9c-6.2,15.4-17.6,28.4-31.4,37.9c-14.7,10.1-32.1,16-48.5,16s-33.8-5.9-48.5-16
		c-13.8-9.5-25.3-22.6-31.5-37.9C333.2,370.3,344.7,357.2,358.5,347.7z"/>
	<circle cx="407.1" cy="385.9" r="10"/>
	<path d="M407.1,426.8c22.6,0,40.9-18.3,40.9-40.9S429.6,345,407.1,345s-40.9,18.3-40.9,40.9S384.5,426.8,407.1,426.8z M407.1,360
		c14.3,0,25.9,11.6,25.9,25.9s-11.6,25.9-25.9,25.9s-25.9-11.6-25.9-25.9S392.8,360,407.1,360z"/>
</g>
</svg>
