<?xml version="1.0" encoding="utf-8"?>
<!-- Generator: Adobe Illustrator 20.1.0, SVG Export Plug-In . SVG Version: 6.00 Build 0)  -->
<svg version="1.1" id="Ebene_1" xmlns="http://www.w3.org/2000/svg" xmlns:xlink="http://www.w3.org/1999/xlink" x="0px" y="0px"
	 width="580px" height="580px" viewBox="0 0 580 580" style="enable-background:new 0 0 580 580;" xml:space="preserve">
<path d="M290,290"/>
<path id="curve28_85_" d="M550,60v460H30V60H550z M530,500V220H350v280H530z M530,200v-80H350v80H530z M330,500V220H150v280H330z
	 M330,200v-80H150v80H330z M130,500v-80H50v80H130z M130,400v-80H50v80H130z M130,300v-80H50v80H130z M130,200v-80H50v80H130z
	 M50,100h480V80H50V100z"/>
</svg>
