<?xml version="1.0" encoding="utf-8"?>
<!-- Generator: Adobe Illustrator 21.1.0, SVG Export Plug-In . SVG Version: 6.00 Build 0)  -->
<svg version="1.1"
	 id="Ebene_1" image-rendering="optimizeQuality" shape-rendering="geometricPrecision" text-rendering="geometricPrecision"
	 xmlns="http://www.w3.org/2000/svg" xmlns:xlink="http://www.w3.org/1999/xlink" x="0px" y="0px" width="580px" height="580px"
	 viewBox="0 0 580 580" style="enable-background:new 0 0 580 580;" xml:space="preserve">
<g>
	<path d="M310,179.8h20v-79.6h80v79.6h20v-79.6h80v79.6h20V40.2H10v460h199.7v-20H130v-80h79.7v-20H130v-80h79.7v-20H130v-80h79.7
		v-20H130v-80h80v79.6h20v-79.6h80V179.8z M110,480.2H30v-80h80V480.2z M110,380.2H30v-80h80V380.2z M110,280.2H30v-80h80V280.2z
		 M110,180.2H30v-80h80V180.2z M30,80.2v-20h480v20H30z"/>
	<path d="M250,219.8v320h320v-320H250z M550,519.8H270v-280h280V519.8z"/>
	<path d="M348.5,499.1h123.1c3.4-0.7,6-3.7,6-7.4v-90.1c0-4.1-3.4-7.5-7.5-7.5H420v-28.3h51.6c3.4-0.7,6-3.7,6-7.4v-90.1
		c0-4.1-3.4-7.5-7.5-7.5H350c-4.1,0-7.5,3.4-7.5,7.5v37.5v15v37.5c0,3.6,2.6,6.6,6,7.4H400v28.3H350c-4.1,0-7.5,3.4-7.5,7.5v37.5v15
		v37.5C342.5,495.3,345,498.3,348.5,499.1z M362.5,280.4h95.1v64.9h-95.1V280.4z M362.5,413.7h95.1v64.9h-95.1V413.7z"/>
</g>
</svg>
