<?xml version="1.0" encoding="UTF-8"?>
<svg enable-background="new 0 0 580 580" version="1.1" viewBox="0 0 580 580" xml:space="preserve" xmlns="http://www.w3.org/2000/svg">
<g id="group_x5F_container_x5F_gi">
	<g transform="matrix(.84321 0 0 .84321 43.349 43.349)">
		<path id="path2_00000049938400066096880560000007850037198952137873_" d="M60,300v220h220V300H60z M260,500H80V320h180V500z"/>
		<path d="M300,300v220h220V300H300z M500,500H320V320h180V500z"/>
		<path d="M60,60v220h220V60H60z M260,260H80V80h180V260z"/>
		<path d="M300,60v220h220V60H300z M500,260H320V80h180V260z"/>
		<path d="M19,19.8v11.9V566h545.4V19.8H19z M42.7,43.5h498v498.8h-498V43.5z"/>
	</g>
</g>
</svg>
