<?xml version="1.0" encoding="utf-8"?>
<!-- Generator: Adobe Illustrator 21.1.0, SVG Export Plug-In . SVG Version: 6.00 Build 0)  -->
<svg version="1.1"
	 id="Ebene_1" image-rendering="optimizeQuality" shape-rendering="geometricPrecision" text-rendering="geometricPrecision"
	 xmlns="http://www.w3.org/2000/svg" xmlns:xlink="http://www.w3.org/1999/xlink" x="0px" y="0px" width="580px" height="580px"
	 viewBox="0 0 580 580" style="enable-background:new 0 0 580 580;" xml:space="preserve">
<g>
	<rect x="129.2" y="181" width="320.8" height="20"/>
	<rect x="129.2" y="111" width="320.8" height="20"/>
	<polygon points="90,71.8 490,71.8 490,201.9 510,201.9 510,50 70,50 70,530 183.3,530 183.3,508.2 90,508.2 	"/>
	<path d="M223.3,561.3h152.4V408.9H223.3V561.3z M244.3,429.9h110.4v110.4H244.3V429.9z"/>
	<path d="M389.6,561.3H542V408.9H389.6V561.3z M410.6,429.9H521v110.4H410.6V429.9z"/>
	<path d="M223.3,395h152.4V242.6H223.3V395z M244.3,263.6h110.4V374H244.3V263.6z"/>
	<path d="M389.6,242.6V395H542V242.6H389.6z M521,374H410.6V263.6H521V374z"/>
	<rect x="129.2" y="251" width="54.1" height="20"/>
	<rect x="129.2" y="391" width="54.1" height="20"/>
	<rect x="129.2" y="461" width="54.1" height="20"/>
	<rect x="129.2" y="321" width="54.1" height="20"/>
</g>
</svg>
