<?xml version="1.0" encoding="utf-8"?>
<!-- Generator: Adobe Illustrator 19.2.1, SVG Export Plug-In . SVG Version: 6.00 Build 0)  -->
<svg version="1.1" id="group_x5F_additional_x5F_gi"
	 xmlns="http://www.w3.org/2000/svg" xmlns:xlink="http://www.w3.org/1999/xlink" x="0px" y="0px" width="580px" height="580px"
	 viewBox="0 0 580 580" style="enable-background:new 0 0 580 580;" xml:space="preserve">
<g>
	<g>
		<path d="M30,119.9v160h160v-160H30z M170,259.9H50v-120h120V259.9z"/>
		<path d="M210,119.9v160h160v-160H210z M350,259.9H230v-120h120V259.9z"/>
		<path d="M390,119.9v160h160v-160H390z M530,259.9H410v-120h120V259.9z"/>
	</g>
	<g>
		<path d="M30,300.1v160h160v-160H30z M170,440.1H50v-120h120V440.1z"/>
		<path d="M210,300.1v160h160v-160H210z M350,440.1H230v-120h120V440.1z"/>
		<path d="M390,300.1v160h160v-160H390z M530,440.1H410v-120h120V440.1z"/>
	</g>
</g>
</svg>
