<?xml version="1.0" encoding="UTF-8"?>
<!DOCTYPE svg PUBLIC "-//W3C//DTD SVG 1.1//EN" "http://www.w3.org/Graphics/SVG/1.1/DTD/svg11.dtd">
<svg xmlns="http://www.w3.org/2000/svg" xml:space="preserve" width="580px" height="580px" shape-rendering="geometricPrecision" text-rendering="geometricPrecision" image-rendering="optimizeQuality" fill-rule="nonzero" clip-rule="nonzero" viewBox="0 0 5800 5800" xmlns:xlink="http://www.w3.org/1999/xlink">
	<title>guard icon</title>
	<desc>guard icon from the IconExperience.com I-Collection. Copyright by INCORS GmbH (www.incors.com).</desc>
		<path id="curve28" d="M2153 2941c11,42 14,54 18,66 11,46 25,99 40,153 218,160 454,240 689,240 236,0 472,-80 690,-241 14,-52 27,-102 38,-146 6,-22 11,-43 19,-72 7,-29 27,-52 53,-65 43,-22 71,-71 84,-128 16,-71 9,-151 -22,-214 -4,-9 -7,-18 -8,-27 -55,-13 -118,-26 -186,-38 -225,-41 -493,-69 -668,-69 -165,0 -386,25 -590,62 -96,17 -187,37 -267,58 -2,7 -5,14 -8,20 -29,62 -35,139 -19,207 13,59 42,108 86,130 26,14 44,37 51,64zm948 2159c55,0 100,45 100,100 0,55 -45,100 -100,100 -55,0 -100,-45 -100,-100 0,-55 45,-100 100,-100zm0 -300c55,0 100,45 100,100 0,55 -45,100 -100,100 -55,0 -100,-45 -100,-100 0,-55 45,-100 100,-100zm0 -304c55,0 100,45 100,100 0,55 -45,100 -100,100 -55,0 -100,-45 -100,-100 0,-55 45,-100 100,-100zm328 -966c18,-18 35,-42 50,-70 -187,93 -383,140 -579,140 -196,0 -391,-47 -579,-140 16,28 32,52 50,70 19,19 29,45 29,70 0,82 -6,172 -32,258 104,77 253,141 432,142 0,300 200,300 200,0 142,-30 316,-77 430,-146 -24,-82 -28,-169 -30,-252 0,-28 11,-54 29,-72zm280 388c80,51 182,93 285,135 160,66 321,132 425,235 91,90 160,201 206,321 50,126 75,262 75,391 0,192 -221,311 -523,383 -403,96 -970,121 -1277,121 -307,0 -874,-25 -1277,-121 -302,-72 -523,-191 -523,-383 0,-129 25,-265 75,-392 46,-119 115,-231 206,-320 104,-103 265,-169 425,-235 103,-42 205,-84 284,-134 46,-27 72,-70 88,-120 15,-50 20,-107 22,-163 -70,-89 -123,-226 -163,-359 -33,-27 -44,-71 -31,-109 -11,-39 -20,-77 -29,-112l-7 -26c-77,-55 -127,-142 -149,-239 -14,-61 -16,-128 -8,-192 -41,5 -82,-15 -102,-54 -7,-15 -11,-30 -11,-45 0,-189 -31,-393 -63,-600 -69,-449 -141,-915 74,-1345 63,-125 240,-246 471,-330 208,-75 463,-125 718,-125 255,0 510,50 718,125 231,84 408,205 471,330 204,409 136,881 71,1337 -30,211 -60,417 -60,608 0,55 -45,100 -100,100 -4,0 -9,0 -13,-1 9,65 6,131 -8,192 -22,97 -72,184 -149,239l-8 31c-8,33 -18,70 -28,107 13,38 2,81 -30,108 -40,133 -92,270 -163,360 2,57 7,115 21,164 14,48 39,89 87,118zm-105 170c-174,141 -372,211 -704,212l0 0 0 1004 0 0c298,0 846,-24 1230,-115 214,-51 370,-114 370,-189 0,-106 -20,-216 -60,-319 -38,-95 -91,-182 -161,-251 -76,-75 -219,-134 -361,-192 -112,-46 -224,-92 -314,-150zm-1409 1c-90,57 -201,103 -313,149 -142,58 -285,117 -361,192 -69,69 -123,156 -160,251 -41,103 -61,213 -61,319 0,75 156,138 370,189 309,73 724,103 1030,112l0 -1010c-222,-24 -371,-91 -505,-202z"/>
</svg>