<?xml version="1.0" encoding="UTF-8"?>
<!DOCTYPE svg PUBLIC "-//W3C//DTD SVG 1.1//EN" "http://www.w3.org/Graphics/SVG/1.1/DTD/svg11.dtd">
<svg xmlns="http://www.w3.org/2000/svg" xml:space="preserve" width="580px" height="580px" shape-rendering="geometricPrecision" text-rendering="geometricPrecision" image-rendering="optimizeQuality" fill-rule="nonzero" clip-rule="nonzero" viewBox="0 0 5800 5800" xmlns:xlink="http://www.w3.org/1999/xlink">
	<title>guard icon</title>
	<desc>guard icon from the IconExperience.com I-Collection. Copyright by INCORS GmbH (www.incors.com).</desc>
		<path id="curve28"  d="M2900 100c255,0 510,50 718,125 231,84 408,205 471,330 204,409 136,881 71,1337 -30,211 -60,417 -60,608 0,55 -45,100 -100,100 -28,0 -53,-11 -71,-30 -99,-97 -866,-170 -1029,-170 -262,0 -825,74 -1055,189 -50,25 -109,5 -134,-44 -2,-4 -11,-45 -11,-45 0,-189 -31,-393 -63,-600 -69,-449 -141,-915 74,-1345 63,-125 240,-246 471,-330 208,-75 463,-125 718,-125zm201 5000c55,0 100,45 100,100 0,55 -45,100 -100,100 -55,0 -100,-45 -100,-100 0,-55 45,-100 100,-100zm-201 -800l0 1004 0 0c298,0 846,-24 1230,-115 214,-51 370,-114 370,-189 0,-106 -20,-216 -60,-319 -38,-95 -91,-182 -161,-251 -76,-75 -219,-134 -361,-192 -112,-46 -224,-92 -313,-149 -18,-16 -37,-29 -55,-40 -61,-53 -98,-120 -119,-193l-1 -2c-114,69 -288,116 -430,146 0,300 -200,300 -200,0 -179,-1 -328,-65 -432,-142 -29,93 -81,175 -172,230 -81,57 -221,111 -314,150 -142,58 -285,117 -361,192 -69,69 -123,156 -160,251 -41,103 -61,213 -61,319 0,75 156,138 370,189 309,73 724,103 1030,112l0 -1010c61,6 127,9 200,9l0 0zm-1082 -1523c-5,-25 -8,-51 -9,-78 27,-1 54,-8 80,-21 230,-115 790,-178 1011,-178 140,0 819,61 963,145 35,33 80,53 128,55 -1,26 -4,52 -9,77l-352 351c-203,161 -440,264 -706,272l-1 0 -11 0 0 0 -12 0 -12 0 0 0c-268,-4 -509,-106 -718,-272l-352 -351zm1946 500c-40,133 -92,269 -163,359 2,57 7,115 21,164 14,48 39,89 83,116 2,1 5,3 7,4 77,49 179,91 282,133 160,66 321,132 425,235 91,90 160,201 206,321 50,126 75,262 75,391 0,192 -221,311 -523,383 -403,96 -970,121 -1277,121 -307,0 -874,-25 -1277,-121 -302,-72 -523,-191 -523,-383 0,-129 25,-265 75,-392 46,-119 115,-231 206,-320 104,-103 265,-169 425,-235 103,-42 205,-84 282,-133 49,-29 73,-68 90,-121 15,-50 20,-107 22,-163 -70,-89 -123,-226 -163,-359l1 1c265,198 524,322 862,322 317,-2 608,-121 854,-316m-653 1516c55,0 100,45 100,100 0,55 -45,100 -100,100 -55,0 -100,-45 -100,-100 0,-55 45,-100 100,-100zm0 -304c55,0 100,45 100,100 0,55 -45,100 -100,100 -55,0 -100,-45 -100,-100 0,-55 45,-100 100,-100z"/>
</svg>