<?xml version="1.0" encoding="UTF-8"?>
<!DOCTYPE svg PUBLIC "-//W3C//DTD SVG 1.1//EN" "http://www.w3.org/Graphics/SVG/1.1/DTD/svg11.dtd">
<svg xmlns="http://www.w3.org/2000/svg" xml:space="preserve" width="580px" height="580px" shape-rendering="geometricPrecision" text-rendering="geometricPrecision" image-rendering="optimizeQuality" fill-rule="nonzero" clip-rule="nonzero" viewBox="0 0 5800 5800" xmlns:xlink="http://www.w3.org/1999/xlink">
	<title>guillotine icon</title>
	<desc>guillotine icon from the IconExperience.com I-Collection. Copyright by INCORS GmbH (www.incors.com).</desc>
	<path id="curve0"  d="M2900 4200c166,0 300,134 300,300 0,165 -135,300 -300,300 -165,0 -300,-135 -300,-300 0,-166 134,-300 300,-300zm-800 -3400l0 3000 1600 0 0 -3000 -700 0 0 200 600 0 0 1274 -1400 -817 0 -457 600 0 0 -200 -700 0zm0 4400l0 300c-200,0 -400,0 -600,0l0 -4700 -200 0 0 -600c1067,0 2133,0 3200,0l0 600 -200 0 0 4700c-200,0 -400,0 -600,0l0 -300 -1600 0zm-400 -4400l0 4500 200 0 0 -4500 -200 0zm2200 0l0 4500 200 0 0 -4500 -200 0zm400 -400l-2800 0 0 200 2800 0 0 -200zm-900 800l-1000 0 0 143 1000 583 0 -726zm300 2800l-1600 0 0 1000 1600 0 0 -1000z"/>
</svg>