<?xml version="1.0" encoding="UTF-8"?>
<!DOCTYPE svg PUBLIC "-//W3C//DTD SVG 1.1//EN" "http://www.w3.org/Graphics/SVG/1.1/DTD/svg11.dtd">
<svg xmlns="http://www.w3.org/2000/svg" xml:space="preserve" width="580px" height="580px" shape-rendering="geometricPrecision" text-rendering="geometricPrecision" image-rendering="optimizeQuality" fill-rule="nonzero" clip-rule="nonzero" viewBox="0 0 5800 5800" xmlns:xlink="http://www.w3.org/1999/xlink">
	<title>guillotine icon</title>
	<desc>guillotine icon from the IconExperience.com I-Collection. Copyright by INCORS GmbH (www.incors.com).</desc>
	<path id="curve0"  d="M2300 3800l1200 0 0 1400 -1200 0 0 -1400zm1400 -3000l-700 0 0 200 600 0 0 1274 -1400 -817c0,-152 0,-305 0,-457l600 0 0 -200 -700 0c0,1567 0,3133 0,4700l-600 0 0 -4700 -200 0 0 -600c1067,0 2133,0 3200,0 0,200 0,400 0,600l-200 0 0 4700c-200,0 -400,0 -600,0 0,-1567 0,-3133 0,-4700zm-800 3400c-166,0 -300,134 -300,300 0,165 135,300 300,300 165,0 300,-135 300,-300 0,-166 -134,-300 -300,-300z"/>
</svg>