<?xml version="1.0" encoding="UTF-8"?>
<!DOCTYPE svg PUBLIC "-//W3C//DTD SVG 1.1//EN" "http://www.w3.org/Graphics/SVG/1.1/DTD/svg11.dtd">
<svg xmlns="http://www.w3.org/2000/svg" xml:space="preserve" width="580px" height="580px" shape-rendering="geometricPrecision" text-rendering="geometricPrecision" image-rendering="optimizeQuality" fill-rule="nonzero" clip-rule="nonzero" viewBox="0 0 5800 5800" xmlns:xlink="http://www.w3.org/1999/xlink">
	<title>guitar icon</title>
	<desc>guitar icon from the IconExperience.com I-Collection. Copyright by INCORS GmbH (www.incors.com).</desc>
	<path id="curve0"  d="M2110 3340c193,0 350,157 350,350 0,193 -157,350 -350,350 -193,0 -350,-157 -350,-350 0,-193 157,-350 350,-350zm360 -169l-140 -142 561 -557c-102,-81 -211,-150 -321,-179 -128,-34 -264,-10 -402,128 -82,81 -107,159 -131,232 -30,90 -58,176 -150,268 -67,67 -151,113 -243,134 -91,21 -174,35 -253,48 -255,44 -478,82 -686,289 -344,345 -319,816 -92,1223 65,116 147,225 247,325 100,100 209,182 325,247 407,227 878,252 1223,-92 207,-208 245,-431 289,-686 13,-79 27,-162 48,-253 21,-92 67,-176 134,-243 92,-92 178,-120 268,-150 73,-24 151,-49 232,-131 137,-137 162,-273 129,-401 -29,-110 -99,-220 -180,-323l-557 562 -142 -140c684,-689 1367,-1378 2050,-2067l282 -141 371 -371 -44 -130 -109 -109 -130 -44 -371 371 -141 282c-689,683 -1378,1366 -2067,2050zm999 -405c102,126 193,266 232,415 50,194 17,396 -180,593 -115,114 -216,148 -313,179 -66,22 -129,43 -188,101 -40,40 -68,90 -80,145 -19,81 -33,164 -47,244 -49,288 -92,541 -344,793 -409,409 -974,397 -1461,125 -133,-74 -258,-168 -369,-280 -112,-111 -206,-236 -280,-369 -272,-487 -284,-1052 125,-1461 252,-252 505,-295 793,-344 80,-14 163,-28 244,-47 55,-12 105,-40 145,-80 58,-59 79,-122 101,-188 31,-97 65,-198 179,-313 198,-198 401,-231 595,-179 149,39 288,129 413,231l1340 -1329 142 -283 478 -479c98,33 196,66 294,98 58,58 116,116 174,174 32,98 65,196 98,294l-479 478 -283 142 -1329 1340zm-2283 1282c-39,-39 -39,-103 0,-142 40,-39 103,-39 142,0l566 566c39,39 39,102 0,142 -39,39 -103,39 -142,0l-566 -566z"/>
</svg>