<?xml version="1.0" encoding="UTF-8"?>
<!DOCTYPE svg PUBLIC "-//W3C//DTD SVG 1.1//EN" "http://www.w3.org/Graphics/SVG/1.1/DTD/svg11.dtd">
<svg xmlns="http://www.w3.org/2000/svg" xml:space="preserve" width="580px" height="580px" shape-rendering="geometricPrecision" text-rendering="geometricPrecision" image-rendering="optimizeQuality" fill-rule="nonzero" clip-rule="nonzero" viewBox="0 0 5800 5800" xmlns:xlink="http://www.w3.org/1999/xlink">
	<title>guitar icon</title>
	<desc>guitar icon from the IconExperience.com I-Collection. Copyright by INCORS GmbH (www.incors.com).</desc>
	<path id="curve0"  d="M2330 3029l2044 -2027 142 -283 478 -479 294 98 174 174 98 294 -479 478 -283 142 -2027 2044 70 71 690 -695c75,104 139,217 170,335 50,194 17,396 -180,593 -115,114 -216,148 -313,179 -66,22 -129,43 -188,101 -40,40 -68,90 -80,145 -19,81 -33,164 -47,244 -49,288 -92,541 -344,793 -135,135 -299,230 -475,280 -341,97 -684,14 -986,-155 -133,-74 -258,-168 -369,-280 -112,-111 -206,-236 -280,-369 -169,-302 -252,-645 -155,-986 50,-176 145,-340 280,-475 252,-252 505,-295 793,-344 80,-14 163,-28 244,-47 55,-12 105,-40 145,-80 58,-59 79,-122 101,-188 31,-97 65,-198 179,-313 198,-198 401,-231 595,-179 118,31 230,94 333,169l-695 690 71 70zm-1144 1019l566 566c39,39 103,39 142,0 39,-40 39,-103 0,-142l-566 -566c-39,-39 -102,-39 -142,0 -39,39 -39,103 0,142zm574 -358c0,193 157,350 350,350 193,0 350,-157 350,-350 0,-193 -157,-350 -350,-350 -193,0 -350,157 -350,350z"/>
</svg>