<?xml version="1.0" encoding="UTF-8"?>
<!DOCTYPE svg PUBLIC "-//W3C//DTD SVG 1.1//EN" "http://www.w3.org/Graphics/SVG/1.1/DTD/svg11.dtd">
<svg xmlns="http://www.w3.org/2000/svg" xml:space="preserve" width="580px" height="580px" shape-rendering="geometricPrecision" text-rendering="geometricPrecision" image-rendering="optimizeQuality" fill-rule="nonzero" clip-rule="nonzero" viewBox="0 0 5800 5800" xmlns:xlink="http://www.w3.org/1999/xlink">
	<title>gun icon</title>
	<desc>gun icon from the IconExperience.com I-Collection. Copyright by INCORS GmbH (www.incors.com).</desc>
		<path id="curve28"  d="M5297 2513c-27,-334 -209,-583 -438,-813l-300 0c-38,-37 -74,-75 -110,-114 -35,40 -70,77 -108,114l-3241 0 0 -200 -200 0 0 200 -200 0 0 200 -200 0 0 200 200 0 0 600c0,0 0,0 0,0l0 0 0 0 0 0 0 0 0 0 0 0 2367 0c292,0 575,183 631,482l323 1718 1278 0 -298 -1986c-27,-193 115,-355 296,-401zm-1667 1387l-530 0c-442,0 -800,-358 -800,-800l0 -201 -1600 1c-110,0 -200,-90 -200,-200l0 -400 -200 0 0 -600 200 0c0,-110 90,-200 200,-200 0,-110 90,-200 200,-200l200 0c110,0 200,90 200,200l2958 0c4,-5 54,-58 54,-60 49,-57 74,-86 136,-86 60,0 87,30 142,90 14,15 30,33 52,56l299 0 29 29c276,272 494,570 526,968 8,98 -56,186 -151,210 -80,20 -159,89 -146,179l300 2000c16,114 -86,216 -199,214l-1300 0c-87,0 -160,-63 -172,-149l-198 -1051zm-1130 -1001l0 201c0,331 269,600 600,600l493 0 -91 -482c-38,-203 -240,-319 -435,-319l-567 0zm-1800 -199l0 0 0 0 0 0zm500 -300c-55,0 -100,-45 -100,-100 0,-55 45,-100 100,-100l2300 0c55,0 100,45 100,100 0,55 -45,100 -100,100l-2300 0z"/>
</svg>