<?xml version="1.0" encoding="UTF-8"?>
<!DOCTYPE svg PUBLIC "-//W3C//DTD SVG 1.1//EN" "http://www.w3.org/Graphics/SVG/1.1/DTD/svg11.dtd">
<svg xmlns="http://www.w3.org/2000/svg" xml:space="preserve" width="580px" height="580px" shape-rendering="geometricPrecision" text-rendering="geometricPrecision" image-rendering="optimizeQuality" fill-rule="nonzero" clip-rule="nonzero" viewBox="0 0 5800 5800" xmlns:xlink="http://www.w3.org/1999/xlink">
	<title>gun icon</title>
	<desc>gun icon from the IconExperience.com I-Collection. Copyright by INCORS GmbH (www.incors.com).</desc>
		<path id="curve28"  d="M3630 3900l-530 0c-442,0 -800,-358 -800,-800l0 -201 -1600 1c-110,0 -200,-90 -200,-200l0 -400 -200 0 0 -600 200 0c0,-110 90,-200 200,-200 0,-110 90,-200 200,-200l200 0c110,0 200,90 200,200l2958 0c4,-5 54,-58 54,-60 107,-123 171,-113 278,4 14,15 30,33 52,56l299 0 29 29c135,133 256,272 350,429 95,160 160,336 176,539 8,98 -56,186 -151,210 -80,20 -159,89 -146,179l300 2000c0,3 2,30 1,30 -4,103 -98,186 -200,184l-1300 0c-87,0 -160,-63 -172,-149l-198 -1051zm-1130 -1001l0 201c0,166 67,316 176,424 108,109 258,176 424,176l493 0 -91 -482c-38,-203 -240,-319 -435,-319l-567 0zm-1300 -499l2300 0c55,0 100,-45 100,-100 0,-55 -45,-100 -100,-100l-2300 0c-55,0 -100,45 -100,100 0,55 45,100 100,100z"/>
</svg>