<?xml version="1.0" encoding="UTF-8"?>
<!DOCTYPE svg PUBLIC "-//W3C//DTD SVG 1.1//EN" "http://www.w3.org/Graphics/SVG/1.1/DTD/svg11.dtd">
<svg xmlns="http://www.w3.org/2000/svg" xml:space="preserve" width="580px" height="580px" shape-rendering="geometricPrecision" text-rendering="geometricPrecision" image-rendering="optimizeQuality" fill-rule="nonzero" clip-rule="nonzero" viewBox="0 0 5800 5800" xmlns:xlink="http://www.w3.org/1999/xlink">
	<title>hair_dryer icon</title>
	<desc>hair_dryer icon from the IconExperience.com I-Collection. Copyright by INCORS GmbH (www.incors.com).</desc>
	<path id="curve0"  d="M5654 2047c0,396 -215,741 -575,909 -44,21 -74,50 -93,95l-571 1303c-158,363 -478,491 -766,481 -159,-5 -335,-55 -458,-159 -125,-105 -180,-248 -113,-402l567 -1294 -1345 -125 0 -1648 2209 -167c32,-3 63,-4 92,-4 544,0 1008,372 1050,928 2,28 3,56 3,83zm-5454 557c107,39 209,-30 300,-82 282,-162 384,-162 666,0 220,125 248,125 468,0 157,-90 285,-160 466,-99l0 217c-156,-77 -222,-28 -367,55 -282,162 -384,162 -666,0 -219,-126 -248,-126 -467,0 -126,72 -251,143 -400,115l0 -206zm0 -1000c107,39 209,-30 300,-82 282,-162 384,-162 666,0 220,125 248,125 468,0 157,-90 285,-160 466,-99l0 217c-156,-77 -222,-28 -367,55 -282,162 -384,162 -666,0 -219,-126 -248,-126 -467,0 -126,72 -251,143 -400,115l0 -206zm0 500c107,39 209,-30 300,-82 282,-162 384,-162 666,0 220,125 248,125 468,0 157,-90 285,-160 466,-99l0 217c-156,-77 -222,-28 -367,55 -282,162 -384,162 -666,0 -219,-126 -248,-126 -467,0 -126,72 -251,143 -400,115l0 -206zm5254 -57c0,-24 0,-47 -2,-68 -34,-452 -411,-743 -851,-743 -27,0 -52,1 -77,3l-2024 154 0 1281 1167 108c133,12 216,150 162,273l-568 1299c-26,61 1,121 58,169 89,75 223,109 337,113 216,7 457,-89 577,-362l570 -1303c39,-89 104,-155 191,-196 291,-136 460,-408 460,-728z"/>
</svg>