<?xml version="1.0" encoding="UTF-8"?>
<!DOCTYPE svg PUBLIC "-//W3C//DTD SVG 1.1//EN" "http://www.w3.org/Graphics/SVG/1.1/DTD/svg11.dtd">
<svg xmlns="http://www.w3.org/2000/svg" xml:space="preserve" width="580px" height="580px" shape-rendering="geometricPrecision" text-rendering="geometricPrecision" image-rendering="optimizeQuality" fill-rule="nonzero" clip-rule="nonzero" viewBox="0 0 5800 5800" xmlns:xlink="http://www.w3.org/1999/xlink">
	<title>hair_dryer icon</title>
	<desc>hair_dryer icon from the IconExperience.com I-Collection. Copyright by INCORS GmbH (www.incors.com).</desc>
	<path id="curve0"  d="M5502 2587c-102,161 -249,288 -423,369 -44,21 -74,50 -93,95l-571 1303c-175,402 -612,576 -1018,435 -216,-75 -428,-266 -319,-515l567 -1294 -1345 -125 0 -1648 2209 -167c290,-22 581,60 804,250 190,163 317,396 338,674 17,219 -31,436 -149,623zm-5302 17c23,8 45,13 67,13 159,0 344,-217 566,-217 223,0 408,217 567,217 159,0 344,-217 567,-217 46,0 90,9 133,23l0 217c-48,-23 -93,-40 -133,-40 -160,0 -344,217 -567,217 -223,0 -407,-217 -567,-217 -159,0 -344,217 -566,217 -23,0 -45,-3 -67,-7l0 -206zm0 -500c23,8 45,13 67,13 159,0 344,-217 566,-217 223,0 408,217 567,217 159,0 344,-217 567,-217 46,0 90,9 133,23l0 217c-48,-23 -93,-40 -133,-40 -160,0 -344,217 -567,217 -223,0 -407,-217 -567,-217 -159,0 -344,217 -566,217 -23,0 -45,-3 -67,-7l0 -206zm0 -500c23,8 45,13 67,13 159,0 344,-217 566,-217 223,0 408,217 567,217 159,0 344,-217 567,-217 46,0 90,9 133,23l0 217c-48,-23 -93,-40 -133,-40 -160,0 -344,217 -567,217 -223,0 -407,-217 -567,-217 -159,0 -344,217 -566,217 -23,0 -45,-3 -67,-7l0 -206z"/>
</svg>