<?xml version="1.0" encoding="UTF-8"?>
<!DOCTYPE svg PUBLIC "-//W3C//DTD SVG 1.1//EN" "http://www.w3.org/Graphics/SVG/1.1/DTD/svg11.dtd">
<svg xmlns="http://www.w3.org/2000/svg" xml:space="preserve" width="580px" height="580px" shape-rendering="geometricPrecision" text-rendering="geometricPrecision" image-rendering="optimizeQuality" fill-rule="nonzero" clip-rule="nonzero" viewBox="0 0 5800 5800" xmlns:xlink="http://www.w3.org/1999/xlink">
	<title>hamburger icon</title>
	<desc>hamburger icon from the IconExperience.com I-Collection. Copyright by INCORS GmbH (www.incors.com).</desc>
		<path id="curve28"  d="M2200 4896c-166,0 -300,-134 -300,-300l0 -96 -200 0 0 300c0,166 -134,300 -300,300 -165,0 -300,-135 -300,-300l0 -300 -300 0c-55,0 -100,45 -100,100l0 500c0,111 89,200 200,200l4000 0c111,0 200,-89 200,-200l0 -500c0,-55 -45,-100 -100,-100l-2500 0 0 96c0,166 -135,300 -300,300zm0 -200c55,1 100,-45 100,-100l0 -296 2700 0c165,0 300,135 300,300l0 500c0,220 -180,400 -400,400l-4000 0c-220,0 -400,-180 -400,-400l0 -500c0,-165 135,-300 300,-300l500 0 0 500c0,55 44,100 100,100 55,0 100,-45 100,-100l0 -500 600 0 0 296c0,55 45,100 100,100zm2700 -1696c331,0 600,269 600,600 0,331 -269,600 -600,600l-4000 0c-331,0 -600,-269 -600,-600 0,-331 269,-600 600,-600l4000 0zm0 200l-4000 0c-221,0 -400,179 -400,400 0,221 179,400 400,400l4000 0c221,0 400,-179 400,-400 0,-221 -179,-400 -400,-400zm-2000 -2700c655,0 1249,176 1681,462 444,293 719,702 719,1157l0 169c0,112 -87,212 -202,212l-4396 0c-57,0 -109,-25 -146,-66 -34,-38 -56,-90 -56,-146l0 -169c0,-455 275,-864 719,-1157 432,-286 1026,-462 1681,-462zm1571 628c-400,-264 -956,-428 -1571,-428 -615,0 -1171,164 -1571,428 -389,257 -629,607 -629,991l0 181c702,0 4400,0 4400,0l0 -181c0,-384 -240,-734 -629,-991zm-4042 1701l188 -188c78,-78 181,-117 283,-117 102,0 205,39 283,117l76 76c38,39 90,58 141,58 51,0 103,-19 141,-58l76 -76c78,-78 181,-117 283,-117 102,0 205,39 283,117l76 76c38,39 90,58 141,58 51,0 103,-19 141,-58l76 -76c78,-78 181,-117 283,-117 102,0 205,39 283,117l76 76c38,39 90,58 141,58 51,0 103,-19 141,-58l76 -76c78,-78 181,-117 283,-117 102,0 205,39 283,117l76 76c38,39 90,58 141,58 51,0 103,-19 141,-58l76 -76c78,-78 181,-117 283,-117 102,0 205,39 283,117l188 188 -142 142 -188 -188c-38,-39 -90,-59 -141,-59 -51,0 -103,20 -141,59l-76 76c-78,78 -181,116 -283,116 -102,0 -205,-38 -283,-116l-76 -76c-38,-39 -90,-59 -141,-59 -51,0 -103,20 -141,59l-76 76c-78,78 -181,116 -283,116 -102,0 -205,-38 -283,-116l-76 -76c-38,-39 -90,-59 -141,-59 -51,0 -103,20 -141,59l-76 76c-78,78 -181,116 -283,116 -102,0 -205,-38 -283,-116l-76 -76c-38,-39 -90,-59 -141,-59 -51,0 -103,20 -141,59l-76 76c-78,78 -181,116 -283,116 -102,0 -205,-38 -283,-116l-76 -76c-38,-39 -90,-59 -141,-59 -51,0 -103,20 -141,59l-188 188 -142 -142z"/>
</svg>