<?xml version="1.0" encoding="UTF-8"?>
<!DOCTYPE svg PUBLIC "-//W3C//DTD SVG 1.1//EN" "http://www.w3.org/Graphics/SVG/1.1/DTD/svg11.dtd">
<svg xmlns="http://www.w3.org/2000/svg" xml:space="preserve" width="580px" height="580px" shape-rendering="geometricPrecision" text-rendering="geometricPrecision" image-rendering="optimizeQuality" fill-rule="nonzero" clip-rule="nonzero" viewBox="0 0 5800 5800" xmlns:xlink="http://www.w3.org/1999/xlink">
	<title>hamburger icon</title>
	<desc>hamburger icon from the IconExperience.com I-Collection. Copyright by INCORS GmbH (www.incors.com).</desc>
		<path id="curve28"  d="M1700 4300l200 0 0 296c0,165 135,300 300,300 166,0 300,-134 300,-300l0 -296 2500 0c165,0 300,135 300,300l0 500c0,220 -180,400 -400,400l-4000 0c-220,0 -400,-180 -400,-400l0 -500c0,-165 135,-300 300,-300l300 0 0 500c0,165 135,300 300,300 166,0 300,-134 300,-300l0 -500zm3200 -1300c331,0 600,269 600,600 0,331 -269,600 -600,600l-4000 0c-331,0 -600,-269 -600,-600 0,-331 269,-600 600,-600l4000 0zm-4471 -171l188 -188c155,-155 411,-155 566,0l76 76c77,78 205,78 282,0l76 -76c155,-155 411,-155 566,0l76 76c77,78 205,78 282,0l76 -76c155,-155 411,-155 566,0l76 76c77,78 205,78 282,0l76 -76c155,-155 411,-155 566,0l76 76c77,78 205,78 282,0l76 -76c155,-155 411,-155 566,0l188 188 -142 142 -188 -188c-77,-78 -205,-78 -282,0l-76 76c-155,155 -411,155 -566,0l-76 -76c-77,-78 -205,-78 -282,0l-76 76c-155,155 -411,155 -566,0l-76 -76c-77,-78 -205,-78 -282,0l-76 76c-155,155 -411,155 -566,0l-76 -76c-77,-78 -205,-78 -282,0l-76 76c-155,155 -411,155 -566,0l-76 -76c-77,-78 -205,-78 -282,0l-188 188 -142 -142zm2471 -2329c655,0 1249,176 1681,462 444,293 719,702 719,1157l0 169c0,112 -87,212 -202,212l-4396 0c-115,0 -202,-100 -202,-212l0 -169c0,-455 275,-864 719,-1157 432,-286 1026,-462 1681,-462z"/>
</svg>