<?xml version="1.0" encoding="UTF-8"?>
<!DOCTYPE svg PUBLIC "-//W3C//DTD SVG 1.1//EN" "http://www.w3.org/Graphics/SVG/1.1/DTD/svg11.dtd">
<svg xmlns="http://www.w3.org/2000/svg" xml:space="preserve" width="580px" height="580px" shape-rendering="geometricPrecision" text-rendering="geometricPrecision" image-rendering="optimizeQuality" fill-rule="nonzero" clip-rule="nonzero" viewBox="0 0 5800 5800" xmlns:xlink="http://www.w3.org/1999/xlink">
	<title>hammer2 icon</title>
	<desc>hammer2 icon from the IconExperience.com I-Collection. Copyright by INCORS GmbH (www.incors.com).</desc>
	<path id="curve0"  d="M3630 574l445 444 30 -30c116,-116 308,-116 424,0l283 283c116,116 116,308 0,424l-30 30 444 445c119,118 119,314 0,432l-910 910c-115,115 -318,121 -432,0l-1596 -1596c-119,-118 -119,-314 0,-432l910 -910c118,-119 313,-118 432,0zm-415 2552l-2086 2086c-114,114 -300,117 -418,6 -39,-32 -86,-85 -123,-123 -117,-117 -117,-307 0,-424l2086 -2086 541 541z"/>
</svg>