<?xml version="1.0" encoding="UTF-8"?>
<!DOCTYPE svg PUBLIC "-//W3C//DTD SVG 1.1//EN" "http://www.w3.org/Graphics/SVG/1.1/DTD/svg11.dtd">
<svg xmlns="http://www.w3.org/2000/svg" xml:space="preserve" width="580px" height="580px" shape-rendering="geometricPrecision" text-rendering="geometricPrecision" image-rendering="optimizeQuality" fill-rule="nonzero" clip-rule="nonzero" viewBox="0 0 5800 5800" xmlns:xlink="http://www.w3.org/1999/xlink">
	<title>hammer icon</title>
	<desc>hammer icon from the IconExperience.com I-Collection. Copyright by INCORS GmbH (www.incors.com).</desc>
		<path id="curve28" d="M2803 3286c317,-317 641,-633 953,-954 96,-98 210,-215 366,-227 258,-18 461,253 397,500l304 304 540 -539 -304 -304c-135,35 -278,-4 -377,-103 -112,-112 -119,-230 -125,-329 -3,-40 -5,-74 -12,-82l-274 -274c-7,-7 -41,-9 -80,-11 -101,-6 -219,-12 -332,-127 -127,-130 -302,-211 -482,-233 -132,-17 -263,-2 -389,43 93,42 185,95 269,153 102,71 216,167 297,283 105,150 147,330 70,502 -27,59 -65,111 -111,157l-974 975 264 266zm-405 -408l974 -974c30,-30 54,-63 70,-98 48,-107 13,-214 -52,-306 -64,-93 -160,-173 -246,-233 -101,-70 -218,-134 -333,-174 -29,-10 -53,-28 -70,-50 -36,-48 -41,-113 -11,-165 14,-25 35,-46 62,-60 188,-96 400,-136 609,-110 225,28 442,130 600,292 59,60 136,64 200,68 81,5 151,9 211,69l274 274c61,60 65,130 70,211 4,65 8,141 67,200 58,57 146,73 220,39l63 -30 402 402c75,75 75,199 0,274l-548 548c-75,75 -198,75 -274,0l-401 -402 29 -64c59,-125 -45,-294 -178,-284 -80,5 -165,93 -237,166 -313,322 -637,639 -955,957l137 138 -1932 1905c-122,121 -314,75 -492,-48 -123,-85 -242,-205 -322,-330 -111,-172 -145,-351 -24,-465l1971 -1867 116 117zm-1388 2451l1788 -1765 -521 -525 -1829 1733c-36,34 -5,120 55,213 66,104 165,204 267,274 102,70 200,109 240,70z"/>
</svg>