<?xml version="1.0" encoding="UTF-8"?>
<!DOCTYPE svg PUBLIC "-//W3C//DTD SVG 1.1//EN" "http://www.w3.org/Graphics/SVG/1.1/DTD/svg11.dtd">
<svg xmlns="http://www.w3.org/2000/svg" xml:space="preserve" width="580px" height="580px" shape-rendering="geometricPrecision" text-rendering="geometricPrecision" image-rendering="optimizeQuality" fill-rule="nonzero" clip-rule="nonzero" viewBox="0 0 5800 5800" xmlns:xlink="http://www.w3.org/1999/xlink">
	<title>hammer icon</title>
	<desc>hammer icon from the IconExperience.com I-Collection. Copyright by INCORS GmbH (www.incors.com).</desc>
		<path id="curve28"  d="M2539 2736l833 -832c54,-54 92,-121 92,-199 1,-71 -29,-141 -74,-205 -64,-93 -160,-173 -246,-233 -50,-34 -108,-70 -169,-102 -53,-28 -109,-53 -164,-72 -57,-20 -96,-71 -100,-131 -4,-60 28,-116 81,-144 95,-48 195,-82 298,-101 218,-39 440,-8 639,88 100,49 193,115 272,195 59,60 136,64 200,68 81,5 151,9 211,69l274 274c61,60 65,130 70,211 4,65 8,141 67,200 30,29 66,47 103,54 73,12 118,-16 180,-45l402 402c75,75 75,199 0,274l-548 548c-75,75 -198,75 -274,0l-401 -402c29,-62 57,-107 44,-180 -11,-66 -63,-127 -123,-155 -129,-61 -260,108 -341,189l-780 779 -546 -550zm-1390 2735c-122,121 -314,75 -492,-48 -123,-85 -242,-205 -322,-330 -111,-172 -145,-351 -24,-465l1971 -1867 799 805 -1932 1905z"/>
</svg>