<?xml version="1.0" encoding="UTF-8"?>
<!DOCTYPE svg PUBLIC "-//W3C//DTD SVG 1.1//EN" "http://www.w3.org/Graphics/SVG/1.1/DTD/svg11.dtd">
<svg xmlns="http://www.w3.org/2000/svg" xml:space="preserve" width="580px" height="580px" shape-rendering="geometricPrecision" text-rendering="geometricPrecision" image-rendering="optimizeQuality" fill-rule="nonzero" clip-rule="nonzero" viewBox="0 0 5800 5800" xmlns:xlink="http://www.w3.org/1999/xlink">
	<title>hammer2 icon</title>
	<desc>hammer2 icon from the IconExperience.com I-Collection. Copyright by INCORS GmbH (www.incors.com).</desc>
	<path id="curve0"  d="M4075 1018l30 -30c116,-116 308,-116 424,0l283 283c116,116 116,308 0,424l-30 30 444 445c119,118 119,314 0,432l-910 910c-119,119 -313,119 -432,0l-1596 -1596c-119,-118 -119,-314 0,-432l916 -916c120,-113 310,-110 426,6l445 444zm-1260 1708l-2086 2086c-39,39 -39,103 0,142 39,39 84,80 121,121 39,35 100,33 138,-4l2086 -2086 141 141 -2086 2086c-114,114 -300,117 -418,6 -39,-32 -86,-85 -123,-123 -117,-117 -117,-307 0,-424l2086 -2086 141 141zm1401 -1566l424 424 31 -30c38,-39 38,-103 0,-142l-283 -283c-39,-38 -103,-38 -142,0l-30 31zm354 636c-91,-90 -1081,-1081 -1081,-1081 -40,-39 -105,-41 -146,-3 -276,304 -619,619 -914,913 -41,41 -41,109 0,150l1596 1596c41,41 109,41 150,0l910 -910c41,-41 41,-109 0,-150l-515 -515z"/>
</svg>