<?xml version="1.0" encoding="UTF-8"?>
<!DOCTYPE svg PUBLIC "-//W3C//DTD SVG 1.1//EN" "http://www.w3.org/Graphics/SVG/1.1/DTD/svg11.dtd">
<svg xmlns="http://www.w3.org/2000/svg" xml:space="preserve" width="580px" height="580px" shape-rendering="geometricPrecision" text-rendering="geometricPrecision" image-rendering="optimizeQuality" fill-rule="nonzero" clip-rule="nonzero" viewBox="0 0 5800 5800" xmlns:xlink="http://www.w3.org/1999/xlink">
	<title>hand_count_zero icon</title>
	<desc>hand_count_zero icon from the IconExperience.com I-Collection. Copyright by INCORS GmbH (www.incors.com).</desc>
		<path id="curve29"  d="M1700 5500l0 -300c0,-275 225,-500 500,-500l1800 0c275,0 500,225 500,500l0 300c-246,0 -2104,0 -2800,0z"/>
	<path id="curve28"  d="M2100 4500l0 -100c0,-64 -122,-134 -256,-211 -224,-129 -378,-223 -477,-472 -50,-126 -67,-250 -67,-317l0 -200c0,-213 75,-378 201,-496 0,233 -1,364 -1,597 0,111 90,200 200,199l0 -1336c0,-394 370,-680 752,-580l1601 336c264,75 447,304 447,580l0 600c0,185 -49,345 -151,499 -77,115 -180,249 -220,382 -20,64 -29,131 -29,203l0 316 -2000 0z"/>
</svg>