<?xml version="1.0" encoding="UTF-8"?>
<!DOCTYPE svg PUBLIC "-//W3C//DTD SVG 1.1//EN" "http://www.w3.org/Graphics/SVG/1.1/DTD/svg11.dtd">
<svg xmlns="http://www.w3.org/2000/svg" xml:space="preserve" width="580px" height="580px" shape-rendering="geometricPrecision" text-rendering="geometricPrecision" image-rendering="optimizeQuality" fill-rule="nonzero" clip-rule="nonzero" viewBox="0 0 5800 5800" xmlns:xlink="http://www.w3.org/1999/xlink">
	<title>hand_thumb_down icon</title>
	<desc>hand_thumb_down icon from the IconExperience.com I-Collection. Copyright by INCORS GmbH (www.incors.com).</desc>
		<path id="curve29"  d="M5500 4100l-300 0c-275,0 -500,-225 -500,-500l0 -1800c0,-275 225,-500 500,-500l300 0c0,235 0,2565 0,2800z"/>
	<path id="curve28"  d="M4500 3700l-200 0c-77,0 -133,90 -191,183 -41,65 -83,132 -138,188l-400 400c-78,77 -139,191 -184,310 -58,156 -87,317 -87,419 0,55 -45,100 -100,100 -261,0 -496,-102 -622,-342 -106,-200 -113,-469 -19,-675l85 -183 -580 0c-96,0 -185,-21 -266,-61 -164,-81 -289,-244 -324,-424 -18,-88 -14,-180 12,-273l433 -1589c72,-267 303,-453 581,-453l600 0c185,0 345,49 499,151 118,79 246,179 382,220 64,20 131,29 203,29l316 0 0 2000z"/>
</svg>