<?xml version="1.0" encoding="UTF-8"?>
<!DOCTYPE svg PUBLIC "-//W3C//DTD SVG 1.1//EN" "http://www.w3.org/Graphics/SVG/1.1/DTD/svg11.dtd">
<svg xmlns="http://www.w3.org/2000/svg" xml:space="preserve" width="580px" height="580px" shape-rendering="geometricPrecision" text-rendering="geometricPrecision" image-rendering="optimizeQuality" fill-rule="nonzero" clip-rule="nonzero" viewBox="0 0 5800 5800" xmlns:xlink="http://www.w3.org/1999/xlink">
	<title>hand_four icon</title>
	<desc>hand_four icon from the IconExperience.com I-Collection. Copyright by INCORS GmbH (www.incors.com).</desc>
		<path id="curve28"  d="M1900 5500l0 -300c0,-275 225,-500 500,-500l1800 0c275,0 500,225 500,500l0 300 -200 0 0 -300c0,-165 -135,-300 -300,-300l-1800 0c-165,0 -300,135 -300,300l0 300 -200 0zm2203 -4550c62,14 113,54 144,106 32,52 45,116 30,179l-247 1039 165 45c171,47 305,181 305,365l0 485c0,69 -9,132 -28,190 -41,128 -142,252 -219,362 -102,145 -153,301 -153,479l0 300 200 0 0 -300c0,-138 37,-252 116,-365 92,-132 197,-260 246,-415 26,-81 38,-164 38,-251l0 -485c0,-265 -183,-476 -431,-551l202 -852c28,-116 5,-233 -53,-329 -58,-95 -152,-168 -268,-196 -116,-28 -233,-5 -327,54 -94,58 -167,152 -195,268l-192 809 -113 -1192c0,-103 -78,-229 -155,-293 -86,-72 -198,-111 -317,-100 -118,12 -221,71 -292,158 -71,86 -110,199 -98,318l112 1190 -389 -867c-49,-109 -138,-187 -241,-227 -103,-39 -221,-40 -330,9 -219,99 -316,360 -219,578l530 1180c9,22 12,44 8,64 -3,20 -13,40 -30,56 -16,17 -35,27 -54,31 -20,3 -41,1 -62,-8 -45,-21 -93,-35 -138,-48 -4,-1 -32,-10 -34,-10 -168,-51 -360,-84 -528,-36 -180,52 -327,188 -382,474 -6,29 -5,58 2,85 7,27 20,52 38,75 18,23 40,41 64,54 25,13 52,20 81,22 95,5 210,19 326,58 113,38 228,100 329,200 223,256 520,423 647,494 23,13 22,2 30,12 31,37 76,86 76,136l0 200 200 0 0 -200c0,-126 -94,-232 -120,-261l0 0 -2 -2 0 -1c-16,-19 -43,-34 -87,-58 -118,-67 -396,-223 -596,-454l-5 -5c-126,-126 -269,-203 -409,-250 -136,-46 -269,-63 -378,-69 38,-195 130,-286 241,-318 124,-35 277,-8 415,34l0 0c27,9 30,10 35,11 40,12 83,25 114,39 59,26 121,33 180,22 59,-11 114,-41 160,-87 90,-92 114,-223 61,-341l-530 -1180c-52,-118 0,-261 118,-315 58,-26 122,-26 178,-4 56,21 104,64 130,122l574 1279c0,19 43,54 60,62 27,12 56,16 86,8 30,-8 54,-26 71,-50 16,-24 24,-52 21,-83l-155 -1640c-6,-64 15,-126 54,-173 38,-47 94,-79 157,-85 127,-12 243,86 255,213l155 1643c3,31 16,57 37,78 20,20 48,33 79,35 61,4 115,-36 130,-96l296 -1250c15,-62 55,-113 106,-145 51,-31 113,-44 175,-29z"/>
</svg>