<?xml version="1.0" encoding="UTF-8"?>
<!DOCTYPE svg PUBLIC "-//W3C//DTD SVG 1.1//EN" "http://www.w3.org/Graphics/SVG/1.1/DTD/svg11.dtd">
<svg xmlns="http://www.w3.org/2000/svg" xml:space="preserve" width="580px" height="580px" shape-rendering="geometricPrecision" text-rendering="geometricPrecision" image-rendering="optimizeQuality" fill-rule="nonzero" clip-rule="nonzero" viewBox="0 0 5800 5800" xmlns:xlink="http://www.w3.org/1999/xlink">
	<title>hand_point_up2 icon</title>
	<desc>hand_point_up2 icon from the IconExperience.com I-Collection. Copyright by INCORS GmbH (www.incors.com).</desc>
		<path id="curve28" d="M3700 4500l0 -100c0,-192 123,-298 278,-432 47,-41 97,-85 151,-139 55,-54 93,-121 119,-186 39,-98 52,-192 52,-243l0 -200c0,-358 -275,-500 -600,-500l-683 0c-64,0 -109,55 -98,118 21,121 61,246 136,338 71,85 179,144 345,144l200 0 0 200 -200 0c-234,0 -392,-88 -499,-217 -102,-123 -152,-280 -179,-431 -33,-184 109,-352 295,-352l683 0c438,0 800,229 800,700l0 200c0,67 -16,191 -67,317 -35,88 -87,179 -162,254 -54,53 -110,102 -163,147 -116,102 -208,181 -208,282l0 100 -200 0zm-2049 -901c-102,-154 -151,-314 -151,-499l0 -510c0,-278 187,-505 451,-581l1349 -384 0 -825c0,-275 225,-500 500,-500 275,0 500,225 500,500l0 1655c-62,-38 -129,-69 -200,-93l0 -1562c0,-165 -135,-300 -300,-300 -165,0 -300,135 -300,300l0 900c0,47 -33,87 -77,97l-1417 404c-179,52 -306,200 -306,389l0 510c0,144 37,268 117,388 93,139 197,274 246,435 25,83 37,169 37,261l0 316 -200 0 0 -316c0,-72 -9,-139 -29,-203 -40,-134 -143,-267 -220,-382zm2449 1901l0 -300c0,-165 -135,-300 -300,-300l-1800 0c-165,0 -300,135 -300,300l0 300 -200 0 0 -300c0,-275 225,-500 500,-500l1800 0c275,0 500,225 500,500l0 300 -200 0z"/>
</svg>