<?xml version="1.0" encoding="UTF-8"?>
<!DOCTYPE svg PUBLIC "-//W3C//DTD SVG 1.1//EN" "http://www.w3.org/Graphics/SVG/1.1/DTD/svg11.dtd">
<svg xmlns="http://www.w3.org/2000/svg" xml:space="preserve" width="580px" height="580px" shape-rendering="geometricPrecision" text-rendering="geometricPrecision" image-rendering="optimizeQuality" fill-rule="nonzero" clip-rule="nonzero" viewBox="0 0 5800 5800" xmlns:xlink="http://www.w3.org/1999/xlink">
	<title>handheld_device icon</title>
	<desc>handheld_device icon from the IconExperience.com I-Collection. Copyright by INCORS GmbH (www.incors.com).</desc>
	<path id="curve0"  d="M1600 300l2600 0c275,0 500,225 500,500l0 4200c0,275 -225,500 -500,500l-2600 0c-275,0 -500,-225 -500,-500l0 -4200c0,-275 225,-500 500,-500zm1503 3555l365 -365c-193,-114 -330,-190 -568,-190 -238,0 -375,76 -568,190l365 365c124,-73 282,-73 406,0zm141 142c74,124 74,282 1,406l365 365c114,-193 190,-330 190,-568 0,-238 -76,-375 -190,-568l-366 365zm-141 548c-124,73 -282,73 -406,0l-365 365c193,114 330,190 568,190 238,0 375,-76 568,-190l-365 -365zm-548 -142c-73,-124 -73,-282 1,-406l-366 -365c-114,193 -190,330 -190,568 0,238 76,375 190,568l365 -365zm-955 -3603l0 2200 2600 0 0 -2200 -2600 0z"/>
</svg>