<?xml version="1.0" encoding="UTF-8"?>
<!DOCTYPE svg PUBLIC "-//W3C//DTD SVG 1.1//EN" "http://www.w3.org/Graphics/SVG/1.1/DTD/svg11.dtd">
<svg xmlns="http://www.w3.org/2000/svg" xml:space="preserve" width="580px" height="580px" shape-rendering="geometricPrecision" text-rendering="geometricPrecision" image-rendering="optimizeQuality" fill-rule="nonzero" clip-rule="nonzero" viewBox="0 0 5800 5800" xmlns:xlink="http://www.w3.org/1999/xlink">
	<title>hand_truck_suitcase icon</title>
	<desc>hand_truck_suitcase icon from the IconExperience.com I-Collection. Copyright by INCORS GmbH (www.incors.com).</desc>
		<path id="curve29"  d="M4400 4100c386,0 700,313 700,700 0,387 -314,700 -700,700 -387,0 -700,-313 -700,-700 0,-387 313,-700 700,-700zm-2500 1200l1400 0 0 -3817c0,-81 31,-155 88,-212l683 -683c57,-57 131,-88 212,-88l617 0 0 200 -617 0c-29,0 -50,8 -71,29l-682 683c-21,21 -30,41 -30,71l0 676 1024 1024c116,115 176,261 176,424l0 344c-63,-22 -130,-38 -200,-45l0 -299c0,-112 -38,-203 -117,-283l-883 -883c0,1020 0,2039 0,3059l-1600 0 0 -200z"/>
	<path id="curve28"  d="M1300 2100l1400 0c220,0 400,180 400,400l0 200 -2200 0 0 -200c0,-220 180,-400 400,-400zm-400 2000l-200 0c-110,0 -200,-90 -200,-200l0 -600c0,-110 90,-200 200,-200l200 0 0 -200 2200 0 0 1400 -2200 0 0 -200zm0 -800l-200 0 0 600 200 0 0 -600zm2200 1200l0 200c0,220 -180,400 -400,400l-1400 0c-220,0 -400,-180 -400,-400l0 -200 2200 0z"/>
</svg>