<?xml version="1.0" encoding="UTF-8"?>
<!DOCTYPE svg PUBLIC "-//W3C//DTD SVG 1.1//EN" "http://www.w3.org/Graphics/SVG/1.1/DTD/svg11.dtd">
<svg xmlns="http://www.w3.org/2000/svg" xml:space="preserve" width="580px" height="580px" shape-rendering="geometricPrecision" text-rendering="geometricPrecision" image-rendering="optimizeQuality" fill-rule="nonzero" clip-rule="nonzero" viewBox="0 0 5800 5800" xmlns:xlink="http://www.w3.org/1999/xlink">
	<title>hand_count_one icon</title>
	<desc>hand_count_one icon from the IconExperience.com I-Collection. Copyright by INCORS GmbH (www.incors.com).</desc>
		<path id="curve28"  d="M1900 5500l0 -300c0,-275 225,-500 500,-500l1800 0c275,0 500,225 500,500l0 300 -200 0 0 -300c0,-165 -135,-300 -300,-300l-1800 0c-165,0 -300,135 -300,300l0 300 -200 0zm-1200 -2300c0,-131 25,-242 68,-334 62,-135 160,-228 274,-288 110,-59 236,-85 356,-85 115,0 227,24 319,66l183 85 0 -580c0,-400 376,-682 758,-578l1589 433c267,72 453,303 453,581l0 600c0,92 -12,178 -37,261 -49,160 -154,298 -245,435 -81,121 -118,243 -118,388l0 316 -200 0 0 -316c0,-182 50,-347 151,-499 76,-114 180,-248 220,-382 20,-63 29,-130 29,-203l0 -600c0,-188 -125,-340 -305,-389l-1590 -433c-255,-70 -505,118 -505,386l0 730c5,74 -73,129 -142,97l-325 -150c-65,-31 -148,-48 -235,-48 -90,0 -182,19 -263,61 -78,41 -144,104 -186,195 -21,45 -36,98 -43,158 112,13 250,44 383,94 143,54 283,130 382,228l400 400c40,41 97,76 152,111 141,88 277,173 277,360l0 200 -200 0 0 -200c0,-77 -90,-133 -183,-191 -65,-41 -132,-83 -188,-138l-400 -400c-77,-78 -191,-139 -310,-184 -156,-58 -317,-87 -419,-87 -55,0 -100,-45 -100,-100z"/>
</svg>