<?xml version="1.0" encoding="UTF-8"?>
<!DOCTYPE svg PUBLIC "-//W3C//DTD SVG 1.1//EN" "http://www.w3.org/Graphics/SVG/1.1/DTD/svg11.dtd">
<svg xmlns="http://www.w3.org/2000/svg" xml:space="preserve" width="580px" height="580px" shape-rendering="geometricPrecision" text-rendering="geometricPrecision" image-rendering="optimizeQuality" fill-rule="nonzero" clip-rule="nonzero" viewBox="0 0 5800 5800" xmlns:xlink="http://www.w3.org/1999/xlink">
	<title>hand_truck_box icon</title>
	<desc>hand_truck_box icon from the IconExperience.com I-Collection. Copyright by INCORS GmbH (www.incors.com).</desc>
		<path id="curve29" d="M1900 5300l1400 0 0 -3817c0,-81 31,-155 88,-212l683 -683c57,-57 131,-88 212,-88l617 0 0 200 -617 0c-29,0 -50,8 -70,29l-683 683c-21,21 -30,41 -30,71l0 676 1025 1024c115,115 175,261 175,424l0 344c-63,-22 -130,-38 -200,-45l0 -299c0,-112 -37,-203 -117,-283l-883 -883 0 3059 -1600 0 0 -200zm2500 -1200c387,0 700,313 700,700 0,387 -313,700 -700,700 -387,0 -700,-313 -700,-700 0,-387 313,-700 700,-700zm0 200c-276,0 -500,224 -500,500 0,276 224,500 500,500 276,0 500,-224 500,-500 0,-276 -224,-500 -500,-500z"/>
	<path id="curve28" d="M3100 2500l0 2600 -2200 0 0 -2600c733,0 1467,0 2200,0zm-800 200l0 600c-200,0 -400,0 -600,0l0 -600 -600 0 0 2200 1800 0 0 -2200 -600 0zm-200 0l-200 0 0 400 200 0 0 -400z"/>
</svg>