<?xml version="1.0" encoding="UTF-8"?>
<!DOCTYPE svg PUBLIC "-//W3C//DTD SVG 1.1//EN" "http://www.w3.org/Graphics/SVG/1.1/DTD/svg11.dtd">
<svg xmlns="http://www.w3.org/2000/svg" xml:space="preserve" width="580px" height="580px" shape-rendering="geometricPrecision" text-rendering="geometricPrecision" image-rendering="optimizeQuality" fill-rule="nonzero" clip-rule="nonzero" viewBox="0 0 5800 5800" xmlns:xlink="http://www.w3.org/1999/xlink">
	<title>hand_point_right2 icon</title>
	<desc>hand_point_right2 icon from the IconExperience.com I-Collection. Copyright by INCORS GmbH (www.incors.com).</desc>
		<path id="curve28" d="M300 1500l300 0c275,0 500,225 500,500l0 1800c0,275 -225,500 -500,500l-300 0 0 -200 300 0c165,0 300,-135 300,-300l0 -1800c0,-165 -135,-300 -300,-300l-300 0 0 -200zm1000 400l100 0c101,0 180,-92 282,-208 45,-53 94,-109 147,-163 139,-138 377,-229 571,-229l200 0c471,0 700,362 700,800l0 683c0,45 -9,87 -28,127 -57,123 -191,192 -324,168 -151,-27 -308,-77 -431,-179 -129,-107 -217,-265 -217,-499l0 -200 200 0 0 200c0,166 59,274 144,345 92,75 217,115 338,136 63,11 118,-34 118,-98l0 -683c0,-325 -142,-600 -500,-600l-200 0c-143,0 -327,68 -429,171 -54,54 -98,104 -139,151 -134,155 -240,278 -432,278l-100 0 0 -200zm2045 -400l1655 0c275,0 500,225 500,500 0,275 -225,500 -500,500l-825 0 -384 1349c-76,264 -303,451 -581,451l-510 0c-92,0 -178,-12 -261,-37 -138,-42 -324,-161 -440,-249 -119,-78 -241,-114 -383,-114l-316 0 0 -200 316 0c184,0 346,49 499,151 114,76 248,180 382,220 63,20 130,29 203,29l510 0c189,0 337,-127 389,-306l404 -1417c10,-44 50,-77 97,-77l900 0c165,0 300,-135 300,-300 0,-165 -135,-300 -300,-300l-1562 0c-24,-71 -55,-138 -93,-200z"/>
</svg>