<?xml version="1.0" encoding="UTF-8"?>
<!DOCTYPE svg PUBLIC "-//W3C//DTD SVG 1.1//EN" "http://www.w3.org/Graphics/SVG/1.1/DTD/svg11.dtd">
<svg xmlns="http://www.w3.org/2000/svg" xml:space="preserve" width="580px" height="580px" shape-rendering="geometricPrecision" text-rendering="geometricPrecision" image-rendering="optimizeQuality" fill-rule="nonzero" clip-rule="nonzero" viewBox="0 0 5800 5800" xmlns:xlink="http://www.w3.org/1999/xlink">
	<title>hand_drill icon</title>
	<desc>hand_drill icon from the IconExperience.com I-Collection. Copyright by INCORS GmbH (www.incors.com).</desc>
	<path id="curve0" d="M2301 5400l0 -118 400 115 0 3 -200 200 -200 -200zm113 -1700c45,-176 205,-300 387,-300l1400 0c72,0 138,-38 174,-100l214 0c-46,175 -205,300 -388,300l-1400 0c-71,0 -137,38 -173,100l-214 0zm1712 -500c-42,-145 -77,-281 -99,-432 -32,-226 -34,-456 -7,-683 16,-133 44,-256 76,-385 270,0 540,0 811,0 32,129 59,252 75,385 28,227 25,457 -7,683 -21,151 -56,287 -98,432l-751 0zm249 -1600c-36,-62 -102,-100 -174,-100l-1400 0c-182,0 -342,-124 -387,-300l214 0c36,62 102,100 173,100l1400 0c183,0 342,125 388,300l-214 0zm-3074 -500l0 -221 16 -25c257,-407 703,-654 1184,-654 482,0 928,247 1185,654l15 25 0 221c-800,0 -1600,0 -2400,0zm1700 2700l0 459 -120 541 -760 0 -120 -541 0 -459c334,0 667,0 1000,0zm-200 200l-600 0 0 241 80 359 440 0 80 -359 0 -241zm1983 -1891c-9,-71 -20,-141 -35,-209l-496 0c-14,68 -26,138 -34,209 -26,209 -24,423 6,632 13,88 30,175 52,259l449 0c22,-84 39,-171 52,-259 29,-209 31,-423 6,-632zm-1308 -1209c-226,-315 -587,-500 -975,-500 -388,0 -749,185 -975,500l1950 0zm-1175 4175l0 -193 400 115 0 192 -400 -114z"/>
</svg>