<?xml version="1.0" encoding="UTF-8"?>
<!DOCTYPE svg PUBLIC "-//W3C//DTD SVG 1.1//EN" "http://www.w3.org/Graphics/SVG/1.1/DTD/svg11.dtd">
<svg xmlns="http://www.w3.org/2000/svg" xml:space="preserve" width="580px" height="580px" shape-rendering="geometricPrecision" text-rendering="geometricPrecision" image-rendering="optimizeQuality" fill-rule="nonzero" clip-rule="nonzero" viewBox="0 0 5800 5800" xmlns:xlink="http://www.w3.org/1999/xlink">
	<title>hand_gun icon</title>
	<desc>hand_gun icon from the IconExperience.com I-Collection. Copyright by INCORS GmbH (www.incors.com).</desc>
		<path id="curve28" d="M3200 500c55,0 100,45 100,100 0,102 29,263 87,419 45,119 106,233 184,310l400 400c55,56 97,123 138,188 58,93 114,183 191,183l200 0 0 200 -200 0c-187,0 -272,-136 -360,-277 -35,-55 -70,-112 -111,-152l-400 -400c-98,-99 -174,-239 -228,-382 -50,-133 -81,-271 -94,-384 -53,7 -100,19 -141,35 -94,38 -158,101 -198,176 -43,77 -61,169 -61,259 0,87 17,172 46,242l140 345c26,67 -23,138 -93,138l-1800 0c-165,0 -300,135 -300,300 0,31 4,60 13,87 8,28 21,55 38,80 36,55 11,128 -50,150 -120,42 -201,156 -201,283 0,165 135,300 300,300l1071 0c47,0 87,33 97,77l233 817c52,179 200,306 389,306l510 0c144,0 269,-37 388,-117 138,-93 275,-197 435,-246 83,-25 169,-37 261,-37l316 0 0 200 -316 0c-72,0 -139,9 -203,29 -134,40 -266,143 -382,220 -154,102 -314,151 -499,151l-510 0c-278,0 -505,-187 -581,-451l-213 -749 -996 0c-276,0 -500,-224 -500,-500 0,-172 89,-331 233,-422 -4,-11 -8,-22 -11,-33 -15,-47 -22,-96 -22,-145 0,-275 225,-500 500,-500l1652 0 -85 -208c-37,-91 -59,-203 -59,-317 -1,-120 25,-245 85,-355 61,-113 158,-208 298,-265 86,-35 189,-55 309,-55zm2300 1400l-300 0c-165,0 -300,135 -300,300l0 1800c0,165 135,300 300,300l300 0 0 200 -300 0c-275,0 -500,-225 -500,-500l0 -1800c0,-275 225,-500 500,-500l300 0 0 200z"/>
</svg>