<?xml version="1.0" encoding="UTF-8"?>
<!DOCTYPE svg PUBLIC "-//W3C//DTD SVG 1.1//EN" "http://www.w3.org/Graphics/SVG/1.1/DTD/svg11.dtd">
<svg xmlns="http://www.w3.org/2000/svg" xml:space="preserve" width="580px" height="580px" shape-rendering="geometricPrecision" text-rendering="geometricPrecision" image-rendering="optimizeQuality" fill-rule="nonzero" clip-rule="nonzero" viewBox="0 0 5800 5800" xmlns:xlink="http://www.w3.org/1999/xlink">
	<title>hand_truck_bag icon</title>
	<desc>hand_truck_bag icon from the IconExperience.com I-Collection. Copyright by INCORS GmbH (www.incors.com).</desc>
	<path id="curve0"  d="M3700 2159l1024 1024c58,58 101,122 131,194 30,72 45,149 45,230l0 344c-64,-22 -131,-38 -200,-45l0 -299c0,-56 -10,-107 -29,-154 -19,-46 -49,-89 -88,-129l-883 -883 0 3059 -1600 0 0 -200 1400 0 0 -3817c0,-81 31,-155 88,-212l682 -683c58,-57 132,-88 213,-88l617 0 0 200 -617 0c-30,0 -50,8 -71,29l-683 683c-21,21 -29,41 -29,71l0 676zm899 1941c387,0 700,313 700,700 0,387 -313,700 -700,700 -386,0 -700,-313 -700,-700 0,-387 314,-700 700,-700zm-3956 -2811c-99,-173 26,-389 225,-389l2263 0c220,0 340,257 200,426l-151 181c15,34 27,70 36,108 211,980 218,2004 21,2987l136 226c71,119 -15,272 -155,272l-2437 0c-139,0 -226,-153 -154,-272l135 -226c-197,-983 -189,-2007 22,-2987 4,-18 9,-36 15,-53l-156 -273zm232 978c-8,66 -16,133 -22,199 763,98 1530,98 2293,0 -8,-85 -7,-81 -22,-199 -746,97 -1502,97 -2249,0zm2292 1316c4,-67 7,-134 9,-202 -780,105 -1572,105 -2353,0 2,68 5,135 9,202 776,102 1559,102 2335,0z"/>
</svg>