<?xml version="1.0" encoding="UTF-8"?>
<!DOCTYPE svg PUBLIC "-//W3C//DTD SVG 1.1//EN" "http://www.w3.org/Graphics/SVG/1.1/DTD/svg11.dtd">
<svg xmlns="http://www.w3.org/2000/svg" xml:space="preserve" width="580px" height="580px" shape-rendering="geometricPrecision" text-rendering="geometricPrecision" image-rendering="optimizeQuality" fill-rule="nonzero" clip-rule="nonzero" viewBox="0 0 5800 5800" xmlns:xlink="http://www.w3.org/1999/xlink">
	<title>hand_money icon</title>
	<desc>hand_money icon from the IconExperience.com I-Collection. Copyright by INCORS GmbH (www.incors.com).</desc>
	<path id="curve0"  d="M5500 2500l-500 0c-165,0 -300,-135 -300,-300l0 -1600c0,-166 134,-300 300,-300l500 0 0 2200zm-3059 -600c-134,81 -237,205 -293,350 -124,51 -233,139 -322,252 -140,180 -226,427 -226,698 0,271 86,518 226,698 145,186 348,302 574,302 226,0 429,-116 574,-302 140,-180 226,-427 226,-698 0,-30 -1,-59 -3,-88l538 -158c85,-25 153,-66 219,-123l169 -145c56,23 115,39 177,47l0 -199 157 -134 43 0 0 2100 -4200 0 0 -2600 2141 0zm-121 737c-76,-265 79,-542 343,-617l479 -137 83 -103 -231 -77 -21 4 -1373 -6 0 -101c0,-158 75,-304 201,-399l772 -579c91,-78 207,-122 327,-122l1000 0c32,0 67,4 98,10l502 100c0,552 0,1032 0,1590l-117 0 -559 479c-43,38 -105,78 -161,94l-727 208c-132,37 -267,18 -379,-45 -112,-62 -200,-167 -237,-299zm-1389 -537c-41,217 -214,390 -431,431l0 202c328,-44 589,-305 633,-633l-202 0zm3369 1567c-328,44 -589,305 -633,633l202 0c41,-217 214,-390 431,-431l0 -202zm-3167 633c-44,-328 -305,-589 -633,-633l0 202c217,41 390,214 431,431l202 0z"/>
</svg>