<?xml version="1.0" encoding="UTF-8"?>
<!DOCTYPE svg PUBLIC "-//W3C//DTD SVG 1.1//EN" "http://www.w3.org/Graphics/SVG/1.1/DTD/svg11.dtd">
<svg xmlns="http://www.w3.org/2000/svg" xml:space="preserve" width="580px" height="580px" shape-rendering="geometricPrecision" text-rendering="geometricPrecision" image-rendering="optimizeQuality" fill-rule="nonzero" clip-rule="nonzero" viewBox="0 0 5800 5800" xmlns:xlink="http://www.w3.org/1999/xlink">
	<title>hand_count_three icon</title>
	<desc>hand_count_three icon from the IconExperience.com I-Collection. Copyright by INCORS GmbH (www.incors.com).</desc>
		<path id="curve28" d="M2100 2800c0,70 -71,119 -138,93l-345 -140c-151,-62 -356,-65 -501,15 -75,40 -138,104 -176,198 -16,41 -28,88 -35,141 113,13 251,44 384,94 143,54 283,130 382,228l400 400c40,41 97,76 152,111 141,88 277,173 277,360l0 200 -200 0 0 -200c0,-77 -90,-133 -183,-191 -65,-41 -132,-83 -188,-138l-400 -400c-77,-78 -191,-139 -310,-184 -156,-58 -317,-87 -419,-87 -54,0 -100,-100 -100,-100 0,-120 20,-223 55,-309 57,-140 152,-237 265,-298 199,-108 465,-110 672,-26l208 85 0 -1652c0,-275 225,-500 500,-500 60,0 121,12 178,33 91,-144 250,-233 422,-233 276,0 500,224 500,500l0 996 749 213c264,76 451,303 451,581l0 510c0,92 -12,178 -37,261 -25,82 -63,161 -114,238 -130,195 -249,330 -249,585l0 316 -200 0 0 -316c0,-310 128,-463 283,-696 40,-59 69,-120 88,-185 20,-63 29,-130 29,-203l0 -510c0,-189 -127,-337 -306,-389l-817 -233c-44,-10 -77,-50 -77,-97l0 -1071c0,-165 -135,-300 -300,-300 -127,0 -241,81 -283,201 -3,8 -7,15 -12,22 -30,46 -92,58 -138,28 -50,-34 -106,-51 -167,-51 -165,0 -300,135 -300,300l0 1800zm-200 2700l0 -300c0,-275 225,-500 500,-500l1800 0c275,0 500,225 500,500l0 300 -200 0 0 -300c0,-165 -135,-300 -300,-300l-1800 0c-165,0 -300,135 -300,300l0 300 -200 0z"/>
</svg>