<?xml version="1.0" encoding="UTF-8"?>
<!DOCTYPE svg PUBLIC "-//W3C//DTD SVG 1.1//EN" "http://www.w3.org/Graphics/SVG/1.1/DTD/svg11.dtd">
<svg xmlns="http://www.w3.org/2000/svg" xml:space="preserve" width="580px" height="580px" shape-rendering="geometricPrecision" text-rendering="geometricPrecision" image-rendering="optimizeQuality" fill-rule="nonzero" clip-rule="nonzero" viewBox="0 0 5800 5800" xmlns:xlink="http://www.w3.org/1999/xlink">
	<title>hand_point_up2 icon</title>
	<desc>hand_point_up2 icon from the IconExperience.com I-Collection. Copyright by INCORS GmbH (www.incors.com).</desc>
		<path id="curve29"  d="M1500 5500l0 -300c0,-275 225,-500 500,-500l1800 0c275,0 500,225 500,500l0 300c-429,0 -1903,0 -2800,0z"/>
	<path id="curve28"  d="M1900 4500l0 -316c0,-72 -9,-139 -29,-203 -18,-62 -47,-121 -85,-180 -88,-116 -207,-302 -249,-440 -25,-83 -37,-169 -37,-261l0 -510c0,-278 187,-505 451,-581l1349 -384 0 -825c0,-275 225,-500 500,-500 275,0 500,225 500,500l0 1655c-168,-103 -374,-155 -600,-155l-683 0c-309,0 -546,282 -492,587 85,474 362,813 875,813l200 0 0 -200 -200 0c-412,0 -611,-271 -678,-648 -33,-184 109,-352 295,-352l683 0c438,0 800,229 800,700l0 200c0,67 -16,191 -67,317 -75,188 -178,274 -325,401 -116,102 -208,181 -208,282l0 100c-662,0 -1333,0 -2000,0z"/>
</svg>