<?xml version="1.0" encoding="UTF-8"?>
<!DOCTYPE svg PUBLIC "-//W3C//DTD SVG 1.1//EN" "http://www.w3.org/Graphics/SVG/1.1/DTD/svg11.dtd">
<svg xmlns="http://www.w3.org/2000/svg" xml:space="preserve" width="580px" height="580px" shape-rendering="geometricPrecision" text-rendering="geometricPrecision" image-rendering="optimizeQuality" fill-rule="nonzero" clip-rule="nonzero" viewBox="0 0 5800 5800" xmlns:xlink="http://www.w3.org/1999/xlink">
	<title>handcuffs icon</title>
	<desc>handcuffs icon from the IconExperience.com I-Collection. Copyright by INCORS GmbH (www.incors.com).</desc>
	<path id="curve0"  d="M3400 2887l0 -287c0,-125 79,-237 195,-281 -80,-186 -52,-403 75,-562 -40,-46 -74,-97 -101,-153 -26,8 -53,13 -81,17 23,123 -33,248 -141,312l-247 147c3,236 -53,469 -164,677 -300,566 -953,858 -1579,700 -749,-190 -1204,-951 -1014,-1700 159,-627 726,-1062 1367,-1057 235,2 468,63 673,178l247 -147c108,-65 245,-55 342,24 205,-284 620,-307 855,-47 108,-68 236,-108 373,-108 387,0 700,313 700,700 0,229 -112,442 -299,574 64,140 65,304 4,445 116,44 195,156 195,281l0 287c432,251 700,713 700,1213 0,773 -627,1400 -1400,1400 -773,0 -1400,-627 -1400,-1400 0,-500 268,-962 700,-1213zm700 413c-442,0 -800,358 -800,800 0,442 358,800 800,800 442,0 800,-358 800,-800 0,-442 -358,-800 -800,-800zm-287 -1000l574 0c69,-98 82,-226 36,-336 -201,67 -424,39 -602,-75 -91,120 -94,287 -8,411zm-1426 -610c-226,-379 -717,-504 -1096,-277 -380,226 -504,717 -278,1096 226,380 717,504 1097,278 379,-226 504,-717 277,-1097zm712 -758l294 493c39,3 79,-1 116,-11 -34,-207 26,-419 166,-577 -170,-182 -473,-133 -576,95zm650 583c19,40 43,78 72,111 214,-126 489,-92 666,83 134,-93 213,-245 213,-409 0,-276 -224,-500 -500,-500 -99,0 -191,29 -269,78 88,229 15,489 -182,637zm-49 -232c52,-69 74,-153 67,-234 -40,69 -64,149 -67,234zm572 512c-80,-45 -175,-57 -263,-33 83,34 174,46 263,33z"/>
</svg>