<?xml version="1.0" encoding="UTF-8"?>
<!DOCTYPE svg PUBLIC "-//W3C//DTD SVG 1.1//EN" "http://www.w3.org/Graphics/SVG/1.1/DTD/svg11.dtd">
<svg xmlns="http://www.w3.org/2000/svg" xml:space="preserve" width="580px" height="580px" shape-rendering="geometricPrecision" text-rendering="geometricPrecision" image-rendering="optimizeQuality" fill-rule="nonzero" clip-rule="nonzero" viewBox="0 0 5800 5800" xmlns:xlink="http://www.w3.org/1999/xlink">
	<title>handbag icon</title>
	<desc>handbag icon from the IconExperience.com I-Collection. Copyright by INCORS GmbH (www.incors.com).</desc>
		<path id="curve28" d="M1208 5500c-282,0 -529,-119 -705,-341 -175,-221 -235,-488 -171,-763l363 -1555c74,-320 353,-541 681,-541l124 0 0 200 -124 0c-236,0 -433,156 -487,386l-363 1555c-50,216 -5,420 134,594 138,174 326,265 548,265l3390 0c223,0 411,-91 549,-265 138,-174 184,-378 133,-594l-363 -1555c-53,-230 -251,-386 -487,-386l-130 0 0 -200 130 0c329,0 607,221 682,541l363 1555c64,275 4,542 -172,763 -175,222 -422,341 -705,341l-3390 0zm492 -2483l0 -1094c0,-663 537,-1200 1200,-1200 663,0 1200,537 1200,1200l0 1094c118,42 200,155 200,283 0,166 -134,300 -300,300 -166,0 -300,-134 -300,-300 0,-128 82,-241 200,-283l0 -1094c0,-552 -448,-1000 -1000,-1000 -552,0 -1000,448 -1000,1000l0 1094c119,42 200,155 200,283 0,166 -134,300 -300,300 -165,0 -300,-135 -300,-300 0,-127 80,-241 200,-283zm400 -717l1600 0 0 200 -1600 0 0 -200z"/>
</svg>