<?xml version="1.0" encoding="UTF-8"?>
<!DOCTYPE svg PUBLIC "-//W3C//DTD SVG 1.1//EN" "http://www.w3.org/Graphics/SVG/1.1/DTD/svg11.dtd">
<svg xmlns="http://www.w3.org/2000/svg" xml:space="preserve" width="580px" height="580px" shape-rendering="geometricPrecision" text-rendering="geometricPrecision" image-rendering="optimizeQuality" fill-rule="nonzero" clip-rule="nonzero" viewBox="0 0 5800 5800" xmlns:xlink="http://www.w3.org/1999/xlink">
	<title>hand_paper icon</title>
	<desc>hand_paper icon from the IconExperience.com I-Collection. Copyright by INCORS GmbH (www.incors.com).</desc>
	<path id="curve0"  d="M5500 2500l-500 0c-165,0 -300,-135 -300,-300l0 -1600c0,-165 135,-300 300,-300l500 0 0 2200zm-3059 -600c-270,162 -400,488 -313,792 105,369 493,586 863,481l744 -219c85,-25 153,-66 219,-123l503 -431 43 0 0 2700 -4200 0 0 -3200 2141 0zm2059 300l-117 0 -559 479c-43,38 -105,78 -161,94l-727 208c-264,75 -541,-80 -616,-344 -76,-265 79,-542 343,-617l479 -137 83 -103 -252 -73 -1373 -6 0 -101c0,-158 75,-304 201,-399l772 -579c91,-78 207,-122 327,-122l1000 0c32,0 67,4 98,10l502 100 0 1590z"/>
</svg>