<?xml version="1.0" encoding="UTF-8"?>
<!DOCTYPE svg PUBLIC "-//W3C//DTD SVG 1.1//EN" "http://www.w3.org/Graphics/SVG/1.1/DTD/svg11.dtd">
<svg xmlns="http://www.w3.org/2000/svg" xml:space="preserve" width="580px" height="580px" shape-rendering="geometricPrecision" text-rendering="geometricPrecision" image-rendering="optimizeQuality" fill-rule="nonzero" clip-rule="nonzero" viewBox="0 0 5800 5800" xmlns:xlink="http://www.w3.org/1999/xlink">
	<title>hand_count_one icon</title>
	<desc>hand_count_one icon from the IconExperience.com I-Collection. Copyright by INCORS GmbH (www.incors.com).</desc>
		<path id="curve29"  d="M1900 5500l0 -300c0,-275 225,-500 500,-500l1800 0c275,0 500,225 500,500l0 300c-235,0 -2565,0 -2800,0z"/>
	<path id="curve28"  d="M2300 4500l0 -200c0,-77 -90,-133 -183,-191 -65,-41 -132,-83 -188,-138l-400 -400c-77,-78 -191,-139 -310,-184 -156,-58 -317,-87 -419,-87 -55,0 -100,-45 -100,-100 0,-261 102,-496 342,-622 200,-106 469,-113 675,-19l183 85 0 -580c0,-96 21,-185 61,-266 81,-164 244,-289 424,-324 88,-18 180,-14 273,12l1589 433c267,72 453,303 453,581l0 600c0,185 -49,345 -151,499 -79,118 -179,246 -220,382 -20,64 -29,131 -29,203l0 316 -2000 0z"/>
</svg>