<?xml version="1.0" encoding="UTF-8"?>
<!DOCTYPE svg PUBLIC "-//W3C//DTD SVG 1.1//EN" "http://www.w3.org/Graphics/SVG/1.1/DTD/svg11.dtd">
<svg xmlns="http://www.w3.org/2000/svg" xml:space="preserve" width="580px" height="580px" shape-rendering="geometricPrecision" text-rendering="geometricPrecision" image-rendering="optimizeQuality" fill-rule="nonzero" clip-rule="nonzero" viewBox="0 0 5800 5800" xmlns:xlink="http://www.w3.org/1999/xlink">
	<title>handsaw icon</title>
	<desc>handsaw icon from the IconExperience.com I-Collection. Copyright by INCORS GmbH (www.incors.com).</desc>
	<path id="curve0"  d="M4563 2100c147,0 271,106 296,251l133 800c22,133 -47,265 -170,322 -53,24 -96,27 -153,27 -147,0 -271,-106 -295,-251l-134 -800c-22,-132 47,-265 170,-322 54,-25 96,-27 153,-27zm-4063 978l11 -23 41 -82 500 200 100 -200 500 200 100 -200 500 200 100 -200 500 200 100 -200 500 200 100 -200 170 68c-14,-34 -22,-70 -22,-108l0 -833 -3100 0c-55,0 -100,45 -100,100l0 878zm3384 243l-236 -94 -100 200 -500 -200 -100 200 -500 -200 -100 200 -500 -200 -100 200 -500 -200 -100 200 -500 -200 -121 241 -98 -97c-129,-130 -129,-164 -129,-271l0 -900c0,-165 135,-300 300,-300l3117 0c43,-119 156,-200 283,-200l960 0c149,0 275,109 297,256l240 1599c27,182 -113,345 -297,345l-800 0c-48,0 -93,-11 -134,-31 -40,-20 -88,-59 -111,-98l-271 -450zm1076 -1421l-960 0c-55,0 -100,45 -100,100l0 933c0,26 13,48 26,69l397 662c20,25 45,36 77,36l800 0c62,0 108,-54 99,-115l-240 -1600c-8,-50 -49,-85 -99,-85zm-397 400c-24,0 -47,-2 -69,9 -42,19 -64,63 -57,107l134 800c8,50 49,84 98,84 24,0 47,2 70,-9 41,-19 63,-63 56,-107l-133 -800c-9,-50 -49,-84 -99,-84z"/>
</svg>