<?xml version="1.0" encoding="UTF-8"?>
<!DOCTYPE svg PUBLIC "-//W3C//DTD SVG 1.1//EN" "http://www.w3.org/Graphics/SVG/1.1/DTD/svg11.dtd">
<svg xmlns="http://www.w3.org/2000/svg" xml:space="preserve" width="580px" height="580px" shape-rendering="geometricPrecision" text-rendering="geometricPrecision" image-rendering="optimizeQuality" fill-rule="nonzero" clip-rule="nonzero" viewBox="0 0 5800 5800" xmlns:xlink="http://www.w3.org/1999/xlink">
	<title>hand_stop2 icon</title>
	<desc>hand_stop2 icon from the IconExperience.com I-Collection. Copyright by INCORS GmbH (www.incors.com).</desc>
		<path id="curve28" d="M1375 2508c114,0 226,22 317,59l208 85 0 -1652c0,-275 225,-500 500,-500 49,0 98,7 145,22 11,3 22,7 33,11 91,-144 250,-233 422,-233 138,0 271,58 365,159 72,-39 153,-59 235,-59 275,0 500,225 500,500l0 110c32,-6 66,-10 100,-10 138,0 263,56 353,147 91,90 147,215 147,353l0 1530c0,65 -6,127 -19,187 -12,59 -32,118 -59,178l-262 590c-21,47 -36,92 -46,139 -9,46 -14,94 -14,146l0 230 -200 0 0 -230c0,-65 6,-126 19,-187 13,-59 32,-118 59,-178l262 -590c21,-47 36,-92 46,-139 9,-46 14,-94 14,-146l0 -1530c0,-82 -34,-157 -88,-212 -55,-54 -130,-88 -212,-88 -51,0 -100,13 -145,37 -15,11 -35,17 -55,17 -55,0 -100,-45 -100,-100l0 -254c0,-165 -135,-300 -300,-300 -70,0 -136,24 -190,68 -5,4 -10,8 -16,12 -47,28 -108,13 -137,-34 -55,-91 -151,-146 -257,-146 -127,0 -241,81 -283,201 -3,8 -7,15 -12,22 -30,46 -92,58 -138,28 -25,-17 -52,-30 -80,-38 -27,-9 -56,-13 -87,-13 -165,0 -300,135 -300,300l0 1800c0,0 -6,35 -7,37 -21,52 -79,76 -131,56l-345 -140c-70,-29 -155,-46 -242,-46 -90,0 -182,18 -259,61 -75,40 -138,104 -176,198 -16,41 -28,88 -35,141 113,13 251,44 384,94 143,54 283,130 382,228l400 400c40,41 97,76 152,111 54,33 199,118 216,192l57 240c9,29 4,95 4,128l-200 0 0 -89 -49 -207c-34,-33 -84,-64 -134,-95 -65,-41 -132,-83 -188,-138l-400 -400c-77,-78 -191,-139 -310,-184 -156,-58 -317,-87 -419,-87 -55,0 -100,-45 -100,-100 0,-120 20,-223 55,-309 57,-140 152,-237 265,-298 110,-60 235,-86 355,-85zm525 2992l0 -300c0,-275 225,-500 500,-500l1800 0c275,0 500,225 500,500l0 300 -200 0 0 -300c0,-165 -135,-300 -300,-300l-1800 0c-165,0 -300,135 -300,300l0 300 -200 0z"/>
</svg>