<?xml version="1.0" encoding="UTF-8"?>
<!DOCTYPE svg PUBLIC "-//W3C//DTD SVG 1.1//EN" "http://www.w3.org/Graphics/SVG/1.1/DTD/svg11.dtd">
<svg xmlns="http://www.w3.org/2000/svg" xml:space="preserve" width="580px" height="580px" shape-rendering="geometricPrecision" text-rendering="geometricPrecision" image-rendering="optimizeQuality" fill-rule="nonzero" clip-rule="nonzero" viewBox="0 0 5800 5800" xmlns:xlink="http://www.w3.org/1999/xlink">
	<title>hand_count_four icon</title>
	<desc>hand_count_four icon from the IconExperience.com I-Collection. Copyright by INCORS GmbH (www.incors.com).</desc>
		<path id="curve29"  d="M2300 4507c-2,-63 0,-142 0,-207 0,-77 -90,-133 -183,-191 -65,-41 -132,-83 -188,-138l-400 -400c-158,-158 -510,-271 -729,-271 -55,0 -100,-45 -100,-100 0,-120 20,-223 55,-309 105,-259 351,-384 620,-384 114,0 226,23 317,60l208 85 0 -1652c0,-275 225,-500 500,-500 60,0 121,12 178,33 91,-144 250,-233 422,-233 138,0 271,58 365,159 72,-39 153,-59 235,-59 275,0 500,225 500,500l0 1067 149 42c264,76 451,303 451,581l0 510c0,185 -49,345 -151,499 -39,58 -98,155 -136,203 -77,119 -113,241 -113,382 0,101 7,225 0,323l-2000 0z"/>
	<path id="curve28"  d="M1900 5500l0 -300c0,-275 225,-500 500,-500l1800 0c275,0 500,225 500,500l0 300 -2800 0z"/>
</svg>