<?xml version="1.0" encoding="UTF-8"?>
<!DOCTYPE svg PUBLIC "-//W3C//DTD SVG 1.1//EN" "http://www.w3.org/Graphics/SVG/1.1/DTD/svg11.dtd">
<svg xmlns="http://www.w3.org/2000/svg" xml:space="preserve" width="580px" height="580px" shape-rendering="geometricPrecision" text-rendering="geometricPrecision" image-rendering="optimizeQuality" fill-rule="nonzero" clip-rule="nonzero" viewBox="0 0 5800 5800" xmlns:xlink="http://www.w3.org/1999/xlink">
	<title>hand_gun icon</title>
	<desc>hand_gun icon from the IconExperience.com I-Collection. Copyright by INCORS GmbH (www.incors.com).</desc>
		<path id="curve29"  d="M5500 4500l-300 0c-275,0 -500,-225 -500,-500l0 -1800c0,-275 225,-500 500,-500l300 0c0,235 0,2565 0,2800z"/>
	<path id="curve28"  d="M4500 4100l-316 0c-72,0 -139,9 -203,29 -134,40 -266,143 -382,220 -153,102 -314,151 -499,151l-510 0c-278,0 -505,-187 -581,-451l-213 -749 -996 0c-276,0 -500,-224 -500,-500 0,-172 89,-331 233,-422 -21,-57 -33,-118 -33,-178 0,-275 225,-500 500,-500l1652 0c-74,-183 -144,-319 -144,-525 0,-120 25,-245 85,-355 125,-230 356,-320 607,-320 55,0 100,45 100,100 0,102 29,263 87,419 45,119 106,233 184,310l400 400c55,56 97,123 138,188 58,93 114,183 191,183l200 0c0,666 0,-247 0,2000z"/>
</svg>