<?xml version="1.0" encoding="UTF-8"?>
<!DOCTYPE svg PUBLIC "-//W3C//DTD SVG 1.1//EN" "http://www.w3.org/Graphics/SVG/1.1/DTD/svg11.dtd">
<svg xmlns="http://www.w3.org/2000/svg" xml:space="preserve" width="580px" height="580px" shape-rendering="geometricPrecision" text-rendering="geometricPrecision" image-rendering="optimizeQuality" fill-rule="nonzero" clip-rule="nonzero" viewBox="0 0 5800 5800" xmlns:xlink="http://www.w3.org/1999/xlink">
	<title>hand_thumb_down icon</title>
	<desc>hand_thumb_down icon from the IconExperience.com I-Collection. Copyright by INCORS GmbH (www.incors.com).</desc>
		<path id="curve28" d="M3799 1584c121,80 243,116 385,116l316 0 0 200 -316 0c-182,0 -341,-48 -496,-149 -117,-78 -251,-182 -385,-222 -63,-20 -130,-29 -203,-29l-600 0c-188,0 -340,125 -389,305l-433 1590c-17,62 -20,123 -8,182 11,59 37,115 76,166 79,103 188,157 318,157l730 0c16,-1 32,2 48,9 50,23 72,83 49,133l-150 325c-31,65 -48,148 -48,235 0,188 79,367 256,449 45,21 98,36 158,43 13,-112 44,-250 94,-383 54,-143 130,-283 228,-382l400 -400c41,-40 76,-97 111,-152 88,-141 173,-277 360,-277l200 0 0 200 -200 0c-77,0 -133,90 -191,183 -41,65 -83,132 -138,188l-400 400c-78,77 -139,191 -184,310 -58,156 -87,317 -87,419 0,55 -45,100 -100,100 -131,0 -242,-25 -334,-68 -249,-114 -373,-364 -373,-630 0,-115 24,-227 66,-319l85 -183 -580 0c-192,0 -360,-84 -477,-236 -58,-76 -96,-160 -113,-249 -18,-88 -14,-180 12,-273l433 -1589c72,-267 303,-453 581,-453l600 0c92,0 178,12 261,37 160,49 298,154 438,247zm1701 -84l-300 0c-165,0 -300,135 -300,300l0 1800c0,165 135,300 300,300l300 0 0 200 -300 0c-275,0 -500,-225 -500,-500l0 -1800c0,-275 225,-500 500,-500l300 0 0 200z"/>
</svg>