<?xml version="1.0" encoding="UTF-8"?>
<!DOCTYPE svg PUBLIC "-//W3C//DTD SVG 1.1//EN" "http://www.w3.org/Graphics/SVG/1.1/DTD/svg11.dtd">
<svg xmlns="http://www.w3.org/2000/svg" xml:space="preserve" width="580px" height="580px" shape-rendering="geometricPrecision" text-rendering="geometricPrecision" image-rendering="optimizeQuality" fill-rule="nonzero" clip-rule="nonzero" viewBox="0 0 5800 5800" xmlns:xlink="http://www.w3.org/1999/xlink">
	<title>handbag icon</title>
	<desc>handbag icon from the IconExperience.com I-Collection. Copyright by INCORS GmbH (www.incors.com).</desc>
		<path id="curve29"  d="M1208 5500c-282,0 -529,-119 -705,-341 -175,-221 -235,-488 -171,-763l363 -1555c74,-320 353,-541 681,-541l124 0 0 600c-121,91 -200,236 -200,400 0,276 224,500 500,500 276,0 500,-224 500,-500 0,-164 -79,-309 -200,-400l0 -600 1600 0 0 600c-121,91 -200,236 -200,400 0,276 224,500 500,500 276,0 500,-224 500,-500 0,-164 -79,-309 -200,-400l0 -600 130 0c329,0 607,221 682,541l363 1555c64,275 4,542 -172,763 -175,222 -422,341 -705,341l-3390 0z"/>
	<path id="curve28"  d="M1700 3017l0 -1094c0,-331 134,-631 351,-848 218,-218 518,-352 849,-352 331,0 631,134 849,352 217,217 351,517 351,848l0 1094c116,41 200,152 200,283 0,166 -134,300 -300,300 -166,0 -300,-134 -300,-300 0,-131 84,-242 200,-283l0 -1094c0,-276 -112,-526 -293,-707 -181,-181 -431,-293 -707,-293 -276,0 -526,112 -707,293 -181,181 -293,431 -293,707l0 1094c117,41 200,152 200,283 0,166 -134,300 -300,300 -166,0 -300,-134 -300,-300 0,-131 83,-242 200,-283z"/>
</svg>