<?xml version="1.0" encoding="UTF-8"?>
<!DOCTYPE svg PUBLIC "-//W3C//DTD SVG 1.1//EN" "http://www.w3.org/Graphics/SVG/1.1/DTD/svg11.dtd">
<svg xmlns="http://www.w3.org/2000/svg" xml:space="preserve" width="580px" height="580px" shape-rendering="geometricPrecision" text-rendering="geometricPrecision" image-rendering="optimizeQuality" fill-rule="nonzero" clip-rule="nonzero" viewBox="0 0 5800 5800" xmlns:xlink="http://www.w3.org/1999/xlink">
	<title>hand_pump icon</title>
	<desc>hand_pump icon from the IconExperience.com I-Collection. Copyright by INCORS GmbH (www.incors.com).</desc>
	<path id="curve0"  d="M3500 550c-193,-1 -351,157 -351,350l-298 0c0,-360 289,-649 649,-650 311,0 512,137 658,375 130,210 209,499 288,842l300 1300c58,249 287,483 554,483l0 300c-406,0 -757,-331 -846,-717l-300 -1300c-72,-314 -143,-576 -251,-751 -91,-147 -214,-232 -403,-232zm-1900 1550l0 400c-233,0 -467,0 -700,0l0 -600c0,-276 224,-500 500,-500 367,0 733,0 1100,0l0 -100 -300 0 0 -200c467,0 933,0 1400,0l0 3000 -1400 0 0 -1900 300 0 0 -100 -900 0zm2000 2200c165,0 300,135 300,300l0 700 200 0 0 200c-800,0 -1600,0 -2400,0l0 -200 200 0 0 -700c0,-165 135,-300 300,-300l1400 0z"/>
</svg>