<?xml version="1.0" encoding="UTF-8"?>
<!DOCTYPE svg PUBLIC "-//W3C//DTD SVG 1.1//EN" "http://www.w3.org/Graphics/SVG/1.1/DTD/svg11.dtd">
<svg xmlns="http://www.w3.org/2000/svg" xml:space="preserve" width="580px" height="580px" shape-rendering="geometricPrecision" text-rendering="geometricPrecision" image-rendering="optimizeQuality" fill-rule="nonzero" clip-rule="nonzero" viewBox="0 0 5800 5800" xmlns:xlink="http://www.w3.org/1999/xlink">
	<title>handcuffs icon</title>
	<desc>handcuffs icon from the IconExperience.com I-Collection. Copyright by INCORS GmbH (www.incors.com).</desc>
	<path id="curve0" d="M2573 2320c-122,482 -612,774 -1093,652 -482,-122 -774,-611 -652,-1093 122,-481 611,-773 1093,-652 481,122 773,612 652,1093zm1527 880c497,0 900,403 900,900 0,497 -403,900 -900,900 -497,0 -900,-403 -900,-900 0,-497 403,-900 900,-900zm0 200c-387,0 -700,313 -700,700 0,387 313,700 700,700 387,0 700,-313 700,-700 0,-387 -313,-700 -700,-700zm-700 -513l0 -287c0,-125 79,-237 195,-281 -80,-186 -52,-403 75,-562 -40,-46 -74,-97 -101,-153 -26,8 -53,13 -81,17 23,123 -33,248 -141,312l-247 147c3,236 -53,469 -164,677 -300,566 -953,858 -1579,700 -749,-190 -1204,-951 -1014,-1700 159,-627 726,-1062 1367,-1057 235,2 468,63 673,178l247 -147c108,-65 245,-55 342,24 92,-128 234,-210 391,-226 175,-18 347,50 464,179 108,-68 236,-108 373,-108 387,0 700,313 700,700 0,229 -112,442 -299,574 64,140 65,304 4,445 116,44 195,156 195,281l0 287c432,251 700,713 700,1213 0,773 -627,1400 -1400,1400 -773,0 -1400,-627 -1400,-1400 0,-500 268,-962 700,-1213zm413 -587l574 0c69,-98 82,-226 36,-336 -201,67 -424,39 -602,-75 -91,120 -94,287 -8,411zm841 735c-32,-17 -54,-50 -54,-88l0 -347c0,-55 -45,-100 -100,-100l-800 0c-55,0 -100,45 -100,100l0 338c3,39 -17,78 -54,97 -398,208 -646,616 -646,1065 0,663 537,1200 1200,1200 663,0 1200,-537 1200,-1200 0,-449 -248,-857 -646,-1065zm-1261 -1610c39,3 79,-1 116,-11 -6,-37 -9,-75 -9,-114 0,-177 66,-339 175,-463 -10,-10 -19,-19 -30,-28 -86,-61 -153,-93 -262,-81 -123,12 -233,92 -284,204l294 493zm356 90c19,40 43,78 72,111 214,-126 489,-92 666,83 134,-93 213,-245 213,-409 0,-276 -224,-500 -500,-500 -99,0 -191,29 -269,78 18,46 29,94 34,143 20,192 -64,379 -216,494zm-49 -232c52,-69 74,-153 67,-234 -40,69 -64,149 -67,234zm572 512c-80,-45 -175,-57 -263,-33 83,34 174,46 263,33zm-1373 235c-2,-36 15,-71 48,-91l298 -177c47,-28 63,-91 35,-138l-410 -687c-28,-47 -90,-63 -137,-35l-298 177c-31,19 -71,20 -104,0 -187,-116 -403,-178 -623,-180 -549,-4 -1035,369 -1171,906 -163,642 226,1295 868,1458 538,136 1097,-114 1355,-599 103,-194 151,-414 139,-634zm-520 242c95,-375 -131,-756 -507,-851 -375,-95 -755,132 -850,507 -95,375 131,756 506,850 375,95 756,-131 851,-506z"/>
</svg>