<?xml version="1.0" encoding="UTF-8"?>
<!DOCTYPE svg PUBLIC "-//W3C//DTD SVG 1.1//EN" "http://www.w3.org/Graphics/SVG/1.1/DTD/svg11.dtd">
<svg xmlns="http://www.w3.org/2000/svg" xml:space="preserve" width="580px" height="580px" shape-rendering="geometricPrecision" text-rendering="geometricPrecision" image-rendering="optimizeQuality" fill-rule="nonzero" clip-rule="nonzero" viewBox="0 0 5800 5800" xmlns:xlink="http://www.w3.org/1999/xlink">
	<title>hand_fist2 icon</title>
	<desc>hand_fist2 icon from the IconExperience.com I-Collection. Copyright by INCORS GmbH (www.incors.com).</desc>
		<path id="curve28"  d="M2100 4500l0 -100c0,-101 -92,-180 -208,-282 -147,-127 -250,-213 -325,-401 -76,-190 -67,-323 -67,-517 0,-471 362,-700 800,-700l683 0c186,0 328,168 295,352 -27,151 -77,308 -179,431 -107,129 -265,217 -499,217l-200 0 0 -200 200 0c166,0 274,-59 345,-144 75,-92 115,-217 136,-338 11,-62 -34,-118 -98,-118l-683 0c-325,0 -600,142 -600,500 0,164 -12,283 52,443 60,150 152,223 270,325 155,134 278,240 278,432l0 100 -200 0zm-400 -2045l0 -391c0,-287 204,-535 485,-590 86,-17 176,-14 267,10l1590 333c123,26 256,118 333,217 79,101 125,228 125,366l0 700c0,92 -12,178 -37,261 -25,83 -63,162 -114,238 -77,116 -180,248 -220,382 -20,64 -29,131 -29,203l0 316 -200 0 0 -316c0,-92 12,-178 37,-261 49,-160 153,-297 245,-435 41,-60 70,-121 89,-185 20,-63 29,-130 29,-203l0 -700c0,-93 -30,-177 -82,-244 -53,-67 -129,-118 -218,-144l-1589 -333c-71,-15 -115,-24 -188,-9 -189,37 -323,203 -323,394l0 298c-71,24 -138,55 -200,93zm0 3045l0 -300c0,-275 225,-500 500,-500l1800 0c275,0 500,225 500,500l0 300 -200 0 0 -300c0,-165 -135,-300 -300,-300l-1800 0c-165,0 -300,135 -300,300l0 300 -200 0z"/>
</svg>