<?xml version="1.0" encoding="UTF-8"?>
<!DOCTYPE svg PUBLIC "-//W3C//DTD SVG 1.1//EN" "http://www.w3.org/Graphics/SVG/1.1/DTD/svg11.dtd">
<svg xmlns="http://www.w3.org/2000/svg" xml:space="preserve" width="580px" height="580px" shape-rendering="geometricPrecision" text-rendering="geometricPrecision" image-rendering="optimizeQuality" fill-rule="nonzero" clip-rule="nonzero" viewBox="0 0 5800 5800" xmlns:xlink="http://www.w3.org/1999/xlink">
	<title>hand_money icon</title>
	<desc>hand_money icon from the IconExperience.com I-Collection. Copyright by INCORS GmbH (www.incors.com).</desc>
	<path id="curve0" d="M5500 2500l-500 0c-165,0 -300,-135 -300,-300l0 -1600c0,-165 135,-300 300,-300l500 0 0 200 -500 0c-55,0 -100,45 -100,100l0 1600c0,55 45,100 100,100l500 0 0 200zm-3059 -600c-86,51 -158,120 -214,200l-1094 0c-44,328 -305,589 -633,633l0 934c328,44 589,305 633,633l2534 0c44,-328 305,-589 633,-633l0 -934c-62,-8 -121,-24 -177,-47l334 -286 43 0 0 2100 -4200 0 0 -2600 2141 0zm540 -398c16,-3 33,-2 50,3l328 110 64 -78c34,-43 97,-49 140,-14 42,34 49,97 14,140l-296 365c-13,18 -32,32 -55,38l-508 146c-159,45 -252,211 -206,370 45,159 211,252 370,207l727 -208c29,-9 63,-34 86,-53l581 -499c18,-18 43,-29 71,-29l153 0 0 200 -117 0 -559 479c-43,38 -105,78 -161,94l-727 208c-264,75 -541,-80 -616,-344 -76,-265 79,-542 343,-617l479 -137 83 -103 -231 -77 -21 4 -573 -2c-2,-49 31,-93 80,-103l501 -100zm-1381 199l0 -101c0,-158 75,-304 201,-399l772 -579c91,-78 207,-122 327,-122l1000 0c32,0 67,4 98,10l502 100 0 204 -541 -108c-21,-4 -38,-6 -59,-6l-1000 0c-88,0 -137,28 -204,79l-776 582c-76,57 -120,144 -120,239l0 102 -200 -1zm-669 399l-431 0 0 431c217,-41 390,-214 431,-431zm-431 1769l0 431 431 0c-41,-217 -214,-390 -431,-431zm3369 431l431 0 0 -431c-217,41 -390,214 -431,431zm-672 -1188c2,29 3,58 3,88 0,459 -287,1000 -800,1000 -513,0 -800,-541 -800,-1000 0,-376 181,-798 548,-950 -32,81 -48,169 -47,257 -207,160 -301,440 -301,693 0,344 204,800 600,800 396,0 600,-456 600,-800 0,-10 0,-20 0,-30l197 -58z"/>
</svg>