<?xml version="1.0" encoding="UTF-8"?>
<!DOCTYPE svg PUBLIC "-//W3C//DTD SVG 1.1//EN" "http://www.w3.org/Graphics/SVG/1.1/DTD/svg11.dtd">
<svg xmlns="http://www.w3.org/2000/svg" xml:space="preserve" width="580px" height="580px" shape-rendering="geometricPrecision" text-rendering="geometricPrecision" image-rendering="optimizeQuality" fill-rule="nonzero" clip-rule="nonzero" viewBox="0 0 5800 5800" xmlns:xlink="http://www.w3.org/1999/xlink">
	<title>hand_stop2 icon</title>
	<desc>hand_stop2 icon from the IconExperience.com I-Collection. Copyright by INCORS GmbH (www.incors.com).</desc>
		<path id="curve29"  d="M1900 5500l0 -300c0,-275 225,-500 500,-500l1800 0c275,0 500,225 500,500l0 300c-246,0 -2104,0 -2800,0z"/>
	<path id="curve28"  d="M2300 4500l0 -89 -49 -207c-34,-33 -84,-64 -134,-95 -65,-41 -132,-83 -188,-138l-400 -400c-158,-158 -510,-271 -729,-271 -55,0 -100,-45 -100,-100 0,-105 16,-211 55,-309 105,-259 351,-384 620,-384 107,0 219,20 317,60l208 85 0 -1652c0,-275 225,-500 500,-500 60,0 121,12 178,33 91,-144 250,-233 422,-233 138,0 271,58 365,159 72,-39 153,-59 235,-59 275,0 500,225 500,500l0 110c32,-6 66,-10 100,-10 275,0 500,225 500,500l0 1530c0,131 -25,246 -78,365l-262 590c-42,93 -60,183 -60,285l0 230 -2000 0z"/>
</svg>