<?xml version="1.0" encoding="UTF-8"?>
<!DOCTYPE svg PUBLIC "-//W3C//DTD SVG 1.1//EN" "http://www.w3.org/Graphics/SVG/1.1/DTD/svg11.dtd">
<svg xmlns="http://www.w3.org/2000/svg" xml:space="preserve" width="580px" height="580px" shape-rendering="geometricPrecision" text-rendering="geometricPrecision" image-rendering="optimizeQuality" fill-rule="nonzero" clip-rule="nonzero" viewBox="0 0 5800 5800" xmlns:xlink="http://www.w3.org/1999/xlink">
	<title>handshake icon</title>
	<desc>handshake icon from the IconExperience.com I-Collection. Copyright by INCORS GmbH (www.incors.com).</desc>
		<path id="curve28"  d="M2113 1856l175 133c0,0 56,4 68,6 -41,26 -81,55 -119,88l-489 414c-159,136 -200,399 -46,555 295,296 741,391 1077,107l75 -64c171,110 381,145 586,119 20,25 42,55 54,72 58,75 114,151 179,221 100,109 220,206 365,250 114,34 230,31 343,-7l121 -41 2 -20c14,49 21,101 21,153 1,134 -43,282 -150,369 -282,231 -564,462 -845,692 -207,170 -628,170 -852,8l-1 0c-17,-12 -32,-25 -47,-39l-464 -450 -188 -181 -1 -1 -1 0 -19 -19c-16,-15 -32,-30 -47,-45 -52,-50 -100,-99 -141,-157 -28,-40 -52,-82 -72,-131l-85 -211c-21,-53 -53,-98 -91,-139l0 0 -1 -1c-39,-42 -85,-81 -136,-122l-1 -1 -18 -14 -4 -3 1 0 -9 -7c-75,-60 -151,-121 -226,-181l915 -1232c28,-39 52,-79 71,-121zm1607 169l-65 45c-61,41 -116,78 -185,73l-734 -54c-139,-10 -257,51 -369,146l-489 415c-72,61 -103,191 -34,261 264,265 589,278 805,95l205 -174c146,168 391,228 646,168 150,70 400,700 817,560 10,-85 14,-236 46,-261l187 -154 -830 -1120zm-1265 2955c-25,2 -50,3 -74,2 -146,-3 -292,-57 -395,-160l-657 -651c-119,-120 -179,-243 -179,-371 0,-86 27,-170 81,-252 20,17 2,3 11,9 72,57 157,124 185,194l85 211c73,181 183,286 308,404l635 614z"/>
	<path id="curve27"  d="M82 3006l228 169c212,157 513,112 670,-100l902 -1217c157,-212 112,-512 -100,-669l-228 -169 -1472 1986zm5577 20l-228 169c-212,157 -512,113 -669,-99l-902 -1217c-157,-212 -113,-512 100,-670l228 -169 1471 1986z"/>
</svg>