<?xml version="1.0" encoding="UTF-8"?>
<!DOCTYPE svg PUBLIC "-//W3C//DTD SVG 1.1//EN" "http://www.w3.org/Graphics/SVG/1.1/DTD/svg11.dtd">
<svg xmlns="http://www.w3.org/2000/svg" xml:space="preserve" width="580px" height="580px" shape-rendering="geometricPrecision" text-rendering="geometricPrecision" image-rendering="optimizeQuality" fill-rule="nonzero" clip-rule="nonzero" viewBox="0 0 5800 5800" xmlns:xlink="http://www.w3.org/1999/xlink">
	<title>hand_pump icon</title>
	<desc>hand_pump icon from the IconExperience.com I-Collection. Copyright by INCORS GmbH (www.incors.com).</desc>
	<path id="curve0"  d="M3500 500c-220,0 -400,180 -400,400l0 0 -200 0c0,-332 268,-600 600,-600 278,0 471,116 616,351 125,205 203,489 281,827l300 1300c63,272 313,522 603,522l0 200c-383,0 -714,-315 -797,-678l-300 -1300c-74,-319 -146,-585 -258,-766 -104,-170 -243,-256 -445,-256zm-1000 1600l-100 0 0 2200 1000 0 0 -3000 -1000 0 0 100 100 0 0 200c-367,0 -733,0 -1100,0 -165,0 -300,135 -300,300l0 400 300 0 0 -400c367,0 733,0 1100,0l0 200zm-300 0l-600 0 0 400c-233,0 -467,0 -700,0l0 -600c0,-276 224,-500 500,-500l800 0 0 -300c467,0 933,0 1400,0l0 3200c165,0 300,135 300,300l0 700 200 0 0 200c-800,0 -1600,0 -2400,0l0 -200 200 0 0 -700c0,-165 135,-300 300,-300l0 -2200zm1500 3200l0 -700c0,-55 -45,-100 -100,-100l-1400 0c-55,0 -100,45 -100,100l0 700 1600 0z"/>
</svg>