<?xml version="1.0" encoding="UTF-8"?>
<!DOCTYPE svg PUBLIC "-//W3C//DTD SVG 1.1//EN" "http://www.w3.org/Graphics/SVG/1.1/DTD/svg11.dtd">
<svg xmlns="http://www.w3.org/2000/svg" xml:space="preserve" width="580px" height="580px" shape-rendering="geometricPrecision" text-rendering="geometricPrecision" image-rendering="optimizeQuality" fill-rule="nonzero" clip-rule="nonzero" viewBox="0 0 5800 5800" xmlns:xlink="http://www.w3.org/1999/xlink">
	<title>hand_offer icon</title>
	<desc>hand_offer icon from the IconExperience.com I-Collection. Copyright by INCORS GmbH (www.incors.com).</desc>
		<path id="curve29"  d="M4500 3719l-1000 181 -1100 0c-267,0 -610,-48 -851,-169l-1015 -508c-246,-123 -346,-422 -223,-668 123,-245 422,-345 668,-222l545 272c83,42 164,69 250,83 102,186 300,312 526,312l800 0c110,0 200,-90 200,-200l-1000 0c-220,0 -400,-180 -400,-400 0,-276 224,-500 500,-500l800 0c313,0 497,98 688,201 164,87 334,178 612,196 0,474 0,948 0,1422z"/>
	<path id="curve28"  d="M5500 4100l-500 0c-165,0 -300,-135 -300,-300l0 -1600c0,-165 135,-300 300,-300l500 0c0,67 0,2133 0,2200z"/>
</svg>