<?xml version="1.0" encoding="UTF-8"?>
<!DOCTYPE svg PUBLIC "-//W3C//DTD SVG 1.1//EN" "http://www.w3.org/Graphics/SVG/1.1/DTD/svg11.dtd">
<svg xmlns="http://www.w3.org/2000/svg" xml:space="preserve" width="580px" height="580px" shape-rendering="geometricPrecision" text-rendering="geometricPrecision" image-rendering="optimizeQuality" fill-rule="nonzero" clip-rule="nonzero" viewBox="0 0 5800 5800" xmlns:xlink="http://www.w3.org/1999/xlink">
	<title>hand_thumb_up icon</title>
	<desc>hand_thumb_up icon from the IconExperience.com I-Collection. Copyright by INCORS GmbH (www.incors.com).</desc>
		<path id="curve28" d="M3799 4216c-140,93 -278,198 -438,247 -83,25 -169,37 -261,37l-600 0c-278,0 -509,-186 -581,-453l-433 -1589c-104,-380 178,-759 578,-758l580 0 -85 -183c-42,-92 -66,-204 -66,-319 0,-120 26,-246 85,-356 60,-114 153,-212 288,-274 92,-43 203,-68 334,-68 55,0 100,45 100,100 0,102 29,263 87,419 45,119 106,233 184,310l400 400c55,56 97,123 138,188 58,93 114,183 191,183l200 0 0 200 -200 0c-187,0 -272,-136 -360,-277 -35,-55 -70,-112 -111,-152l-400 -400c-98,-99 -174,-239 -228,-382 -50,-133 -81,-271 -94,-383 -60,7 -113,22 -158,43 -91,42 -154,108 -195,186 -42,81 -61,173 -61,263 0,87 17,170 48,235l150 325c23,50 1,110 -49,133 -16,7 -32,10 -48,9l-730 0c-268,0 -455,251 -386,505l433 1590c49,180 200,305 389,305l600 0c73,0 140,-9 203,-29 134,-40 268,-144 385,-222 155,-101 314,-149 496,-149l316 0 0 200 -316 0c-142,0 -264,36 -385,116zm1701 -2316l-300 0c-83,0 -158,34 -212,88 -54,54 -88,129 -88,212l0 1800c0,82 34,157 88,212 55,54 130,88 212,88l300 0 0 200 -300 0c-138,0 -263,-56 -353,-147 -91,-90 -147,-215 -147,-353l0 -1800c0,-138 56,-263 147,-353 90,-91 215,-147 353,-147l300 0 0 200z"/>
</svg>