<?xml version="1.0" encoding="UTF-8"?>
<!DOCTYPE svg PUBLIC "-//W3C//DTD SVG 1.1//EN" "http://www.w3.org/Graphics/SVG/1.1/DTD/svg11.dtd">
<svg xmlns="http://www.w3.org/2000/svg" xml:space="preserve" width="580px" height="580px" shape-rendering="geometricPrecision" text-rendering="geometricPrecision" image-rendering="optimizeQuality" fill-rule="nonzero" clip-rule="nonzero" viewBox="0 0 5800 5800" xmlns:xlink="http://www.w3.org/1999/xlink">
	<title>hand_four icon</title>
	<desc>hand_four icon from the IconExperience.com I-Collection. Copyright by INCORS GmbH (www.incors.com).</desc>
		<path id="curve29"  d="M1900 5500l0 -300c0,-275 225,-500 500,-500l1800 0c275,0 500,225 500,500l0 300c-235,0 -2565,0 -2800,0z"/>
	<path id="curve28"  d="M2297 4500l0 -200c0,-75 -53,-118 -106,-148 -127,-71 -424,-238 -647,-494 -101,-100 -216,-162 -329,-200 -116,-39 -231,-53 -326,-58 -58,-3 -109,-30 -145,-76 -37,-46 -51,-102 -40,-160 55,-286 202,-422 382,-474 168,-48 360,-15 528,36 18,0 153,49 172,58 42,18 84,10 116,-23 33,-33 41,-77 22,-120l-530 -1180c-98,-219 1,-479 220,-578 217,-97 472,2 570,218l389 867 -112 -1190c-23,-236 154,-454 391,-476 237,-22 449,157 471,393l113 1192 192 -809c56,-231 290,-377 522,-322 232,56 376,294 321,525l-202 852c248,75 431,286 431,551l0 485c0,87 -12,170 -38,251 -25,79 -63,154 -115,228 -77,110 -178,233 -219,361 -19,59 -28,122 -28,191l0 300c-67,0 -1936,0 -2003,0z"/>
</svg>