<?xml version="1.0" encoding="UTF-8"?>
<!DOCTYPE svg PUBLIC "-//W3C//DTD SVG 1.1//EN" "http://www.w3.org/Graphics/SVG/1.1/DTD/svg11.dtd">
<svg xmlns="http://www.w3.org/2000/svg" xml:space="preserve" width="580px" height="580px" shape-rendering="geometricPrecision" text-rendering="geometricPrecision" image-rendering="optimizeQuality" fill-rule="nonzero" clip-rule="nonzero" viewBox="0 0 5800 5800" xmlns:xlink="http://www.w3.org/1999/xlink">
	<title>hand_point_right icon</title>
	<desc>hand_point_right icon from the IconExperience.com I-Collection. Copyright by INCORS GmbH (www.incors.com).</desc>
		<path id="curve28"  d="M3093 1175c0,-90 -18,-182 -61,-259 -40,-75 -104,-138 -198,-176 -41,-16 -88,-28 -141,-35 -13,113 -44,251 -94,384 -54,143 -130,283 -228,382l-400 400c-41,40 -76,97 -110,152 -89,141 -174,277 -361,277l-200 0 0 -200 200 0c77,0 133,-90 191,-183 41,-65 83,-132 138,-188l400 -400c78,-77 139,-191 184,-310 58,-156 87,-317 87,-419 0,-55 45,-100 100,-100 120,0 223,20 309,55 140,57 237,152 298,265 60,110 86,235 85,355 0,114 -22,226 -59,317l-85 208 1852 0c275,0 500,225 500,500 0,275 -225,500 -500,500l-825 0 -384 1349c-76,264 -303,451 -581,451l-510 0c-92,0 -178,-12 -261,-37 -138,-42 -324,-161 -440,-249 -119,-78 -241,-114 -383,-114l-316 0 0 -200 316 0c184,0 346,49 499,151 114,76 248,180 382,220 63,20 130,29 203,29l510 0c189,0 337,-127 389,-306l404 -1417c10,-44 50,-77 97,-77l900 0c165,0 300,-135 300,-300 0,-165 -135,-300 -300,-300l-1992 0c-73,5 -129,-68 -101,-138l140 -345c29,-70 46,-155 46,-242zm-2793 525l300 0c275,0 500,225 500,500l0 1800c0,275 -225,500 -500,500l-300 0 0 -200 300 0c165,0 300,-135 300,-300l0 -1800c0,-165 -135,-300 -300,-300l-300 0 0 -200z"/>
</svg>