<?xml version="1.0" encoding="UTF-8"?>
<!DOCTYPE svg PUBLIC "-//W3C//DTD SVG 1.1//EN" "http://www.w3.org/Graphics/SVG/1.1/DTD/svg11.dtd">
<svg xmlns="http://www.w3.org/2000/svg" xml:space="preserve" width="580px" height="580px" shape-rendering="geometricPrecision" text-rendering="geometricPrecision" image-rendering="optimizeQuality" fill-rule="nonzero" clip-rule="nonzero" viewBox="0 0 5800 5800" xmlns:xlink="http://www.w3.org/1999/xlink">
	<title>hand_point_left icon</title>
	<desc>hand_point_left icon from the IconExperience.com I-Collection. Copyright by INCORS GmbH (www.incors.com).</desc>
		<path id="curve29"  d="M5500 1700l-300 0c-275,0 -500,225 -500,500l0 1800c0,275 225,500 500,500l300 0c0,-235 0,-2565 0,-2800z"/>
	<path id="curve28"  d="M4500 2100l-200 0c-77,0 -133,-90 -191,-183 -41,-65 -83,-132 -138,-188l-400 -400c-158,-158 -271,-510 -271,-729 0,-55 -45,-100 -100,-100 -120,0 -223,20 -309,55 -259,105 -384,350 -384,620 0,107 20,219 60,317l85 208 -1852 0c-275,0 -500,225 -500,500 0,275 225,500 500,500l825 0 384 1349c76,264 303,451 581,451l510 0c92,0 178,-12 261,-37 133,-41 331,-164 441,-250 119,-77 241,-113 382,-113l316 0c0,-452 0,-1933 0,-2000z"/>
</svg>