<?xml version="1.0" encoding="UTF-8"?>
<!DOCTYPE svg PUBLIC "-//W3C//DTD SVG 1.1//EN" "http://www.w3.org/Graphics/SVG/1.1/DTD/svg11.dtd">
<svg xmlns="http://www.w3.org/2000/svg" xml:space="preserve" width="580px" height="580px" shape-rendering="geometricPrecision" text-rendering="geometricPrecision" image-rendering="optimizeQuality" fill-rule="nonzero" clip-rule="nonzero" viewBox="0 0 5800 5800" xmlns:xlink="http://www.w3.org/1999/xlink">
	<title>hand_fist2 icon</title>
	<desc>hand_fist2 icon from the IconExperience.com I-Collection. Copyright by INCORS GmbH (www.incors.com).</desc>
		<path id="curve29"  d="M1700 5500l0 -300c0,-275 225,-500 500,-500l1800 0c275,0 500,225 500,500l0 300c-235,0 -2565,0 -2800,0z"/>
	<path id="curve28"  d="M2100 4500l0 -100c0,-101 -92,-180 -208,-282 -147,-127 -250,-213 -325,-401 -50,-126 -67,-250 -67,-317l0 -200c0,-224 83,-395 221,-514 145,-124 348,-186 579,-186l683 0c90,0 172,39 230,108 58,69 81,155 65,244 -27,151 -77,308 -179,431 -107,129 -265,217 -499,217l-200 0 100 200 100 0c303,0 510,-117 652,-289 129,-155 191,-345 223,-524 26,-146 -14,-294 -109,-408 -95,-113 -236,-179 -383,-179l-683 0c-226,0 -432,52 -600,155l0 -391c0,-96 21,-185 61,-266 81,-164 244,-289 424,-324 86,-17 176,-14 267,10l1590 333c264,55 458,316 458,583l0 700c0,184 -49,346 -151,499 -77,116 -180,248 -220,382 -20,64 -29,131 -29,203l0 316c-667,0 -1333,0 -2000,0z"/>
</svg>