<?xml version="1.0" encoding="UTF-8"?>
<!DOCTYPE svg PUBLIC "-//W3C//DTD SVG 1.1//EN" "http://www.w3.org/Graphics/SVG/1.1/DTD/svg11.dtd">
<svg xmlns="http://www.w3.org/2000/svg" xml:space="preserve" width="580px" height="580px" shape-rendering="geometricPrecision" text-rendering="geometricPrecision" image-rendering="optimizeQuality" fill-rule="nonzero" clip-rule="nonzero" viewBox="0 0 5800 5800" xmlns:xlink="http://www.w3.org/1999/xlink">
	<title>hand_point_left icon</title>
	<desc>hand_point_left icon from the IconExperience.com I-Collection. Copyright by INCORS GmbH (www.incors.com).</desc>
		<path id="curve28" d="M3599 4349c-154,102 -314,151 -499,151l-510 0c-278,0 -505,-187 -581,-451l-384 -1349 -825 0c-275,0 -500,-225 -500,-500 0,-275 225,-500 500,-500l1852 0 -85 -208c-37,-92 -60,-203 -60,-317 0,-270 125,-515 384,-620 86,-35 189,-55 309,-55 7,7 100,4 100,100 0,102 29,263 87,419 45,119 106,233 184,310l400 400c55,56 97,123 138,188 58,93 114,183 191,183l200 0 0 200 -200 0c-187,0 -272,-136 -361,-277 -34,-55 -69,-112 -110,-152l-400 -400c-98,-99 -174,-239 -228,-382 -50,-133 -81,-271 -94,-384 -53,7 -100,19 -141,35 -183,75 -259,247 -259,435 0,88 17,173 46,242l140 345c28,70 -28,143 -101,138l-1992 0c-165,0 -300,135 -300,300 0,165 135,300 300,300l900 0c47,0 87,33 97,77l404 1417c52,179 200,306 389,306l510 0c144,0 268,-37 388,-117 139,-93 274,-197 435,-246 83,-25 169,-37 261,-37l316 0 0 200 -316 0c-72,0 -139,9 -203,29 -134,40 -267,143 -382,220zm1901 -2449l-300 0c-165,0 -300,135 -300,300l0 1800c0,165 135,300 300,300l300 0 0 200 -300 0c-275,0 -500,-225 -500,-500l0 -1800c0,-275 225,-500 500,-500l300 0 0 200z"/>
</svg>