<?xml version="1.0" encoding="UTF-8"?>
<!DOCTYPE svg PUBLIC "-//W3C//DTD SVG 1.1//EN" "http://www.w3.org/Graphics/SVG/1.1/DTD/svg11.dtd">
<svg xmlns="http://www.w3.org/2000/svg" xml:space="preserve" width="580px" height="580px" shape-rendering="geometricPrecision" text-rendering="geometricPrecision" image-rendering="optimizeQuality" fill-rule="nonzero" clip-rule="nonzero" viewBox="0 0 5800 5800" xmlns:xlink="http://www.w3.org/1999/xlink">
	<title>hand_truck_bag icon</title>
	<desc>hand_truck_bag icon from the IconExperience.com I-Collection. Copyright by INCORS GmbH (www.incors.com).</desc>
	<path id="curve0"  d="M875 2267c373,49 749,73 1125,73 376,0 751,-24 1124,-73 -26,-206 -60,-410 -104,-611 -15,-70 -52,-129 -104,-170 -51,-42 -117,-66 -189,-66l0 -200c118,0 228,41 314,110 6,5 11,9 16,13l120 -144c34,-40 6,-99 -46,-99l-2263 0c-47,0 -75,49 -52,90l102 177c94,-95 221,-147 355,-147l0 200c-144,0 -263,96 -294,236 -43,201 -78,405 -104,611zm2362 2335l136 226c71,119 -15,272 -155,272l-2437 0c-139,0 -226,-153 -154,-272l135 -226c-43,-215 -76,-434 -100,-657 -28,-259 -42,-521 -42,-785 0,-262 14,-521 41,-779 28,-260 69,-516 123,-766 4,-18 9,-36 15,-53l-156 -273c-99,-173 26,-389 225,-389l2263 0c220,0 340,257 200,426l-151 181c15,34 27,70 36,108 54,250 95,506 122,766 28,258 42,517 42,779 0,264 -15,526 -42,785 -24,223 -58,442 -101,657zm-2378 226l-43 72 2368 0 -44 -72c-29,20 -65,32 -103,32l-77 0 0 -200 61 0c52,-242 92,-487 118,-736 12,-113 22,-226 28,-341 -386,51 -777,77 -1167,77 -390,0 -781,-26 -1168,-77 7,115 16,228 28,341 27,249 67,494 119,736l61 0 0 200 -78 0c-37,0 -73,-12 -103,-32zm2841 -2669l1024 1024c115,115 176,261 176,424l0 344c-64,-22 -131,-38 -200,-45l0 -299c0,-112 -38,-203 -117,-283l-883 -883 0 3059 -1600 0 0 -200 1400 0 0 -3817c0,-81 31,-155 88,-212l682 -683c58,-57 132,-88 213,-88l617 0 0 200 -617 0c-30,0 -50,8 -71,29l-683 683c-21,21 -29,41 -29,71l0 676zm899 1941c387,0 700,313 700,700 0,387 -313,700 -700,700 -386,0 -700,-313 -700,-700 0,-387 314,-700 700,-700zm0 200c-276,0 -500,224 -500,500 0,276 224,500 500,500 276,0 500,-224 500,-500 0,-276 -224,-500 -500,-500zm-1453 -1834c-380,49 -763,74 -1146,74 -383,0 -767,-25 -1147,-74 -22,227 -33,459 -33,694 0,74 1,147 3,221 390,52 783,79 1177,79 393,0 786,-27 1176,-79 3,-74 4,-147 4,-221 0,-235 -12,-467 -34,-694z"/>
</svg>