<?xml version="1.0" encoding="UTF-8"?>
<!DOCTYPE svg PUBLIC "-//W3C//DTD SVG 1.1//EN" "http://www.w3.org/Graphics/SVG/1.1/DTD/svg11.dtd">
<svg xmlns="http://www.w3.org/2000/svg" xml:space="preserve" width="580px" height="580px" shape-rendering="geometricPrecision" text-rendering="geometricPrecision" image-rendering="optimizeQuality" fill-rule="nonzero" clip-rule="nonzero" viewBox="0 0 5800 5800" xmlns:xlink="http://www.w3.org/1999/xlink">
	<title>hand_spread icon</title>
	<desc>hand_spread icon from the IconExperience.com I-Collection. Copyright by INCORS GmbH (www.incors.com).</desc>
		<path id="curve29"  d="M1900 5500l0 -300c0,-275 225,-500 500,-500l1800 0c275,0 500,225 500,500l0 300c-235,0 -2565,0 -2800,0z"/>
	<path id="curve28"  d="M2297 4500l0 -200c0,-67 -55,-119 -106,-148 -127,-71 -424,-238 -647,-494 -101,-100 -216,-162 -329,-200 -116,-39 -231,-53 -326,-58 -58,-3 -109,-30 -145,-76 -37,-46 -51,-102 -40,-160 55,-286 202,-422 382,-474 187,-53 381,-8 562,46 45,13 93,27 138,48 42,18 84,10 116,-23 34,-34 41,-76 22,-120l-530 -1180c-48,-109 -48,-228 -9,-333 84,-225 332,-340 558,-254 103,40 192,118 241,227l389 867 -112 -1190c-12,-119 27,-232 98,-318 252,-309 625,-77 609,-58 85,71 144,175 155,293l113 1192 192 -809c28,-116 101,-210 195,-268 205,-128 469,-64 595,142 58,96 81,213 53,329l-202 849 264 -413c114,-180 394,-208 568,-97 200,129 259,401 132,602l-733 1210c-62,99 -109,238 -142,386 -41,189 -59,391 -59,547l0 135 -2002 0z"/>
</svg>