<?xml version="1.0" encoding="UTF-8"?>
<!DOCTYPE svg PUBLIC "-//W3C//DTD SVG 1.1//EN" "http://www.w3.org/Graphics/SVG/1.1/DTD/svg11.dtd">
<svg xmlns="http://www.w3.org/2000/svg" xml:space="preserve" width="580px" height="580px" shape-rendering="geometricPrecision" text-rendering="geometricPrecision" image-rendering="optimizeQuality" fill-rule="nonzero" clip-rule="nonzero" viewBox="0 0 5800 5800" xmlns:xlink="http://www.w3.org/1999/xlink">
	<title>hand_count_zero icon</title>
	<desc>hand_count_zero icon from the IconExperience.com I-Collection. Copyright by INCORS GmbH (www.incors.com).</desc>
		<path id="curve28"  d="M4183 3488c38,-57 68,-118 88,-185 20,-63 29,-130 29,-203l0 -600c0,-187 -123,-337 -300,-388l-1589 -333c7,-32 -511,-57 -511,385l0 1036 -200 0 0 -1036c0,-398 372,-680 752,-580l1590 333c264,55 458,316 458,583l0 600c0,92 -12,178 -37,261 -25,82 -63,161 -114,238 -77,116 -180,248 -220,382 -20,64 -29,131 -29,203l0 316 -200 0 0 -316c0,-92 12,-178 37,-261 49,-160 153,-297 246,-435zm-2483 2012l0 -300c0,-275 225,-500 500,-500l1800 0c275,0 500,225 500,500l0 300 -200 0 0 -300c0,-165 -135,-300 -300,-300l-1800 0c-165,0 -300,135 -300,300l0 300 -200 0zm400 -1000l0 -100c0,-64 -122,-134 -256,-211 -111,-64 -228,-131 -315,-218 -138,-139 -229,-377 -229,-571l0 -200c0,-213 75,-378 201,-496 0,232 -1,464 -1,696 0,143 68,327 171,429 70,71 174,131 272,187 186,107 357,205 357,384l0 100 -200 0z"/>
</svg>