<?xml version="1.0" encoding="UTF-8"?>
<!DOCTYPE svg PUBLIC "-//W3C//DTD SVG 1.1//EN" "http://www.w3.org/Graphics/SVG/1.1/DTD/svg11.dtd">
<svg xmlns="http://www.w3.org/2000/svg" xml:space="preserve" width="580px" height="580px" shape-rendering="geometricPrecision" text-rendering="geometricPrecision" image-rendering="optimizeQuality" fill-rule="nonzero" clip-rule="nonzero" viewBox="0 0 5800 5800" xmlns:xlink="http://www.w3.org/1999/xlink">
	<title>hand_point_up icon</title>
	<desc>hand_point_up icon from the IconExperience.com I-Collection. Copyright by INCORS GmbH (www.incors.com).</desc>
		<path id="curve28" d="M700 3200c0,-120 20,-223 55,-309 57,-140 152,-237 265,-298 199,-108 465,-110 672,-26l208 85 0 -1852c0,-275 225,-500 500,-500 275,0 500,225 500,500l0 825 1349 384c264,76 451,303 451,581l0 510c0,185 -49,345 -151,499 -77,116 -180,248 -220,382 -20,64 -29,131 -29,203l0 316 -200 0 0 -316c0,-92 12,-178 37,-261 49,-160 153,-297 246,-435 80,-120 117,-244 117,-388l0 -510c0,-189 -127,-337 -306,-389l-1417 -404c-44,-10 -77,-50 -77,-97l0 -900c0,-165 -135,-300 -300,-300 -165,0 -300,135 -300,300l0 1992c1,15 -1,31 -7,45 -21,52 -79,76 -131,56l-345 -140c-151,-62 -356,-65 -501,15 -75,40 -138,104 -176,198 -16,41 -28,88 -35,141 113,13 251,44 384,94 143,54 283,130 382,228l400 400c40,41 97,76 152,111 141,88 277,173 277,360l0 200 -200 0 0 -200c0,-77 -90,-133 -183,-191 -65,-41 -132,-83 -188,-138l-400 -400c-77,-78 -191,-139 -310,-184 -156,-58 -317,-87 -419,-87 -55,0 -100,-45 -100,-100zm1200 2300l0 -300c0,-275 225,-500 500,-500l1800 0c275,0 500,225 500,500l0 300 -200 0 0 -300c0,-165 -135,-300 -300,-300l-1800 0c-165,0 -300,135 -300,300l0 300 -200 0z"/>
</svg>