<?xml version="1.0" encoding="UTF-8"?>
<!DOCTYPE svg PUBLIC "-//W3C//DTD SVG 1.1//EN" "http://www.w3.org/Graphics/SVG/1.1/DTD/svg11.dtd">
<svg xmlns="http://www.w3.org/2000/svg" xml:space="preserve" width="580px" height="580px" shape-rendering="geometricPrecision" text-rendering="geometricPrecision" image-rendering="optimizeQuality" fill-rule="nonzero" clip-rule="nonzero" viewBox="0 0 5800 5800" xmlns:xlink="http://www.w3.org/1999/xlink">
	<title>hand_thumb_up icon</title>
	<desc>hand_thumb_up icon from the IconExperience.com I-Collection. Copyright by INCORS GmbH (www.incors.com).</desc>
		<path id="curve29"  d="M5500 4500l-300 0c-275,0 -500,-225 -500,-500l0 -1800c0,-275 225,-500 500,-500l300 0c0,696 0,2554 0,2800z"/>
	<path id="curve28"  d="M4500 4100l-316 0c-72,0 -139,9 -203,29 -134,40 -267,143 -382,220 -74,49 -153,88 -238,114 -83,25 -169,37 -261,37l-600 0c-278,0 -509,-186 -581,-453l-433 -1589c-51,-186 -16,-369 101,-522 117,-152 285,-236 477,-236l580 0 -85 -183c-94,-205 -86,-476 19,-675 126,-240 361,-342 622,-342 55,0 100,45 100,100 0,219 113,571 271,729l400 400c55,56 97,123 138,188 58,93 114,183 191,183l200 0 0 2000z"/>
</svg>