<?xml version="1.0" encoding="UTF-8"?>
<!DOCTYPE svg PUBLIC "-//W3C//DTD SVG 1.1//EN" "http://www.w3.org/Graphics/SVG/1.1/DTD/svg11.dtd">
<svg xmlns="http://www.w3.org/2000/svg" xml:space="preserve" width="580px" height="580px" shape-rendering="geometricPrecision" text-rendering="geometricPrecision" image-rendering="optimizeQuality" fill-rule="nonzero" clip-rule="nonzero" viewBox="0 0 5800 5800" xmlns:xlink="http://www.w3.org/1999/xlink">
	<title>hand_drill icon</title>
	<desc>hand_drill icon from the IconExperience.com I-Collection. Copyright by INCORS GmbH (www.incors.com).</desc>
	<path id="curve0"  d="M3176 374c225,124 389,289 525,505 0,73 0,147 0,221 -800,0 -1600,0 -2400,0 0,-74 0,-148 0,-221 136,-216 300,-381 525,-505 201,-111 431,-174 675,-174 245,0 475,63 675,174zm-548 826c36,62 102,100 173,100l1400 0c183,0 342,125 388,300l-214 0c-36,-62 -102,-100 -174,-100l-1400 0c-182,0 -342,-124 -387,-300l214 0zm2279 500c59,239 94,452 94,700 0,283 -45,529 -124,800l-751 0c-79,-272 -125,-516 -125,-800 0,-248 36,-461 95,-700 270,0 540,0 811,0zm-318 1600c-46,175 -205,300 -388,300l-1400 0c-71,0 -137,38 -173,100l-214 0c45,-176 205,-300 387,-300l1400 0c72,0 138,-38 174,-100l214 0zm-1588 500l0 459 -120 541 -760 0 -120 -541 0 -459 1000 0zm-700 1600l0 -118 400 115 0 3 -200 200 -200 -200zm0 -325l0 -193 400 115 0 192 -400 -114z"/>
</svg>