<?xml version="1.0" encoding="UTF-8"?>
<!DOCTYPE svg PUBLIC "-//W3C//DTD SVG 1.1//EN" "http://www.w3.org/Graphics/SVG/1.1/DTD/svg11.dtd">
<svg xmlns="http://www.w3.org/2000/svg" xml:space="preserve" width="580px" height="580px" shape-rendering="geometricPrecision" text-rendering="geometricPrecision" image-rendering="optimizeQuality" fill-rule="nonzero" clip-rule="nonzero" viewBox="0 0 5800 5800" xmlns:xlink="http://www.w3.org/1999/xlink">
	<title>hand_offer icon</title>
	<desc>hand_offer icon from the IconExperience.com I-Collection. Copyright by INCORS GmbH (www.incors.com).</desc>
		<path id="curve28"  d="M5500 4100l-500 0c-165,0 -300,-135 -300,-300 0,-533 0,-1067 0,-1600 0,-165 135,-300 300,-300l500 0 0 200 -500 0c-55,0 -100,45 -100,100l0 1600c0,55 45,100 100,100l500 0 0 200zm-1000 -1603c-326,-17 -519,-121 -706,-221 -168,-89 -330,-176 -594,-176l-800 0c-166,0 -300,134 -300,300 0,166 134,300 300,300l800 0c55,0 100,45 100,100 0,55 -45,100 -100,100 -424,0 -849,0 -1273,0 -178,0 -333,-37 -492,-117l-545 -272c-148,-74 -327,-14 -401,134 -74,147 -14,327 134,400l1015 508c211,105 528,147 762,147l1091 0 1009 -183 0 202 -982 179 -18 2 -1100 0c-267,0 -610,-48 -851,-169l-1015 -508c-246,-123 -346,-422 -223,-668 123,-245 422,-345 668,-222l545 272c130,66 257,95 403,95l73 0c-63,-83 -100,-187 -100,-300 0,-276 224,-500 500,-500l800 0c313,0 497,98 688,201 164,87 334,178 612,196l0 200z"/>
</svg>