<?xml version="1.0" encoding="UTF-8"?>
<!DOCTYPE svg PUBLIC "-//W3C//DTD SVG 1.1//EN" "http://www.w3.org/Graphics/SVG/1.1/DTD/svg11.dtd">
<svg xmlns="http://www.w3.org/2000/svg" xml:space="preserve" width="580px" height="580px" shape-rendering="geometricPrecision" text-rendering="geometricPrecision" image-rendering="optimizeQuality" fill-rule="nonzero" clip-rule="nonzero" viewBox="0 0 5800 5800" xmlns:xlink="http://www.w3.org/1999/xlink">
	<title>hand_touch icon</title>
	<desc>hand_touch icon from the IconExperience.com I-Collection. Copyright by INCORS GmbH (www.incors.com).</desc>
		<path id="curve30"  d="M2503 750c525,0 950,425 950,950 0,258 -103,491 -269,662l-84 -21 0 -187c96,-126 153,-283 153,-454 0,-414 -336,-750 -750,-750 -414,0 -750,336 -750,750 0,168 55,323 148,448l0 287c-221,-181 -348,-449 -348,-735 0,-525 425,-950 950,-950zm0 450c213,0 402,135 472,336 -9,-13 -19,-25 -29,-36 -7,-8 -14,-16 -22,-24 -109,-109 -259,-176 -424,-176 -182,0 -350,82 -464,222 73,-194 259,-322 467,-322zm-3 -900c773,0 1400,627 1400,1400 0,289 -88,558 -238,782l-209 -53c155,-202 247,-455 247,-729 0,-663 -537,-1200 -1200,-1200 -663,0 -1200,537 -1200,1200 0,431 230,826 601,1040l0 226c-488,-232 -801,-723 -801,-1266 0,-773 627,-1400 1400,-1400z"/>
	<path id="curve29"  d="M2100 5500l0 -300c0,-165 135,-300 300,-300l1600 0c165,0 300,135 300,300l0 300c-193,0 -2007,0 -2200,0z"/>
	<path id="curve28"  d="M2400 4700l0 -175c0,-44 -61,-82 -125,-122 -51,-32 -102,-64 -146,-107l-300 -300c-114,-115 -370,-196 -529,-196 -55,0 -100,-45 -100,-100 0,-93 16,-173 43,-241 83,-204 276,-303 489,-303 88,0 175,17 247,46l121 50 0 -1352c0,-220 180,-400 400,-400 220,0 400,180 400,400l0 597 1040 260c213,53 360,241 360,461l0 382c0,72 -9,139 -29,203 -37,123 -117,227 -187,333 -58,87 -84,173 -84,277l0 287 -1600 0z"/>
</svg>