<?xml version="1.0" encoding="UTF-8"?>
<!DOCTYPE svg PUBLIC "-//W3C//DTD SVG 1.1//EN" "http://www.w3.org/Graphics/SVG/1.1/DTD/svg11.dtd">
<svg xmlns="http://www.w3.org/2000/svg" xml:space="preserve" width="580px" height="580px" shape-rendering="geometricPrecision" text-rendering="geometricPrecision" image-rendering="optimizeQuality" fill-rule="nonzero" clip-rule="nonzero" viewBox="0 0 5800 5800" xmlns:xlink="http://www.w3.org/1999/xlink">
	<title>hand_point_right2 icon</title>
	<desc>hand_point_right2 icon from the IconExperience.com I-Collection. Copyright by INCORS GmbH (www.incors.com).</desc>
		<path id="curve29"  d="M300 4300l300 0c275,0 500,-225 500,-500l0 -1800c0,-275 -225,-500 -500,-500l-300 0c0,429 0,1903 0,2800z"/>
	<path id="curve28"  d="M1300 3900l316 0c142,0 264,36 383,114 116,88 302,207 440,249 83,25 169,37 261,37l510 0c278,0 505,-187 581,-451l384 -1349 825 0c275,0 500,-225 500,-500 0,-275 -225,-500 -500,-500l-1655 0c103,168 155,374 155,600l0 683c0,309 -282,546 -587,492 -474,-85 -813,-362 -813,-875l0 -200 200 0 0 200c0,412 271,611 648,678 184,33 352,-109 352,-295l0 -683c0,-438 -229,-800 -700,-800l-200 0c-67,0 -191,16 -317,67 -188,75 -274,178 -401,325 -102,116 -181,208 -282,208l-100 0c0,662 0,1333 0,2000z"/>
</svg>