<?xml version="1.0" encoding="UTF-8"?>
<!DOCTYPE svg PUBLIC "-//W3C//DTD SVG 1.1//EN" "http://www.w3.org/Graphics/SVG/1.1/DTD/svg11.dtd">
<svg xmlns="http://www.w3.org/2000/svg" xml:space="preserve" width="580px" height="580px" shape-rendering="geometricPrecision" text-rendering="geometricPrecision" image-rendering="optimizeQuality" fill-rule="nonzero" clip-rule="nonzero" viewBox="0 0 5800 5800" xmlns:xlink="http://www.w3.org/1999/xlink">
	<title>hand_point_left2 icon</title>
	<desc>hand_point_left2 icon from the IconExperience.com I-Collection. Copyright by INCORS GmbH (www.incors.com).</desc>
		<path id="curve28"  d="M4500 2100l-100 0c-192,0 -298,-123 -432,-278 -41,-47 -85,-97 -139,-151 -102,-103 -286,-171 -429,-171l-200 0c-358,0 -500,275 -500,600l0 683c0,16 3,31 8,42 12,25 39,48 66,55 13,4 28,4 44,1 121,-21 246,-61 338,-136 85,-71 144,-179 144,-345l0 -200 200 0 0 200c0,234 -88,392 -217,499 -123,102 -280,152 -431,179 -44,8 -87,6 -129,-5 -42,-11 -81,-31 -115,-60 -35,-29 -62,-64 -80,-103 -19,-40 -28,-82 -28,-127l0 -683c0,-438 229,-800 700,-800l200 0c194,0 432,91 571,229 53,54 102,110 147,163 102,116 181,208 282,208l100 0 0 200zm-901 2049c-77,51 -156,89 -238,114 -83,25 -169,37 -261,37l-510 0c-278,0 -505,-187 -581,-451l-384 -1349 -825 0c-275,0 -500,-225 -500,-500 0,-275 225,-500 500,-500l1655 0c-38,62 -69,129 -93,200l-1562 0c-165,0 -300,135 -300,300 0,165 135,300 300,300l900 0c47,0 87,33 97,77l404 1417c52,179 200,306 389,306l510 0c73,0 140,-9 203,-29 65,-19 126,-48 185,-88 139,-93 274,-197 435,-246 83,-25 169,-37 261,-37l316 0 0 200 -316 0c-72,0 -139,9 -203,29 -134,40 -267,143 -382,220zm1901 -2449l-300 0c-165,0 -300,135 -300,300l0 1800c0,165 135,300 300,300l300 0 0 200 -300 0c-275,0 -500,-225 -500,-500l0 -1800c0,-275 225,-500 500,-500l300 0 0 200z"/>
</svg>