<?xml version="1.0" encoding="UTF-8"?>
<!DOCTYPE svg PUBLIC "-//W3C//DTD SVG 1.1//EN" "http://www.w3.org/Graphics/SVG/1.1/DTD/svg11.dtd">
<svg xmlns="http://www.w3.org/2000/svg" xml:space="preserve" width="580px" height="580px" shape-rendering="geometricPrecision" text-rendering="geometricPrecision" image-rendering="optimizeQuality" fill-rule="nonzero" clip-rule="nonzero" viewBox="0 0 5800 5800" xmlns:xlink="http://www.w3.org/1999/xlink">
	<title>handsaw icon</title>
	<desc>handsaw icon from the IconExperience.com I-Collection. Copyright by INCORS GmbH (www.incors.com).</desc>
	<path id="curve0"  d="M5497 3555c27,185 -116,345 -297,345l-800 0c-92,0 -197,-49 -245,-129l-401 -667c-32,-53 -54,-107 -54,-171l0 -933c0,-165 135,-300 300,-300l960 0c149,0 275,109 297,256l240 1599zm-740 -1384c-90,-77 -239,-94 -347,-44 -123,57 -192,189 -170,322l134 800c24,145 148,251 295,251 57,0 100,-3 153,-27 123,-57 192,-190 170,-322l-133 -800c-13,-73 -50,-136 -102,-180zm-4109 1056l-121 241c-123,-123 -227,-179 -227,-368l0 -900c0,-165 135,-300 300,-300l2910 0c-7,33 -10,66 -10,100l0 933c0,101 32,189 83,274l41 68 -76 152 -500 -200 -100 200 -500 -200 -100 200 -500 -200 -100 200 -500 -200 -100 200 -500 -200z"/>
</svg>