<?xml version="1.0" encoding="UTF-8"?>
<!DOCTYPE svg PUBLIC "-//W3C//DTD SVG 1.1//EN" "http://www.w3.org/Graphics/SVG/1.1/DTD/svg11.dtd">
<svg xmlns="http://www.w3.org/2000/svg" xml:space="preserve" width="580px" height="580px" shape-rendering="geometricPrecision" text-rendering="geometricPrecision" image-rendering="optimizeQuality" fill-rule="nonzero" clip-rule="nonzero" viewBox="0 0 5800 5800" xmlns:xlink="http://www.w3.org/1999/xlink">
	<title>hard_drive_network icon</title>
	<desc>hard_drive_network icon from the IconExperience.com I-Collection. Copyright by INCORS GmbH (www.incors.com).</desc>
		<path id="curve31"  d="M3000,5200 3100,5200 3100,5300 4100,5300 4100,5500 3100,5500 3100,5600 3000,5600 2800,5600 2700,5600 2700,5500 1700,5500 1700,5300 2700,5300 2700,5200 2800,5200 2800,4500 3000,4500z"/>
	<path id="curve30"  d="M3011 3058l1070 540c23,12 59,31 80,47 77,58 125,141 141,229 35,199 -99,390 -298,425 -89,16 -185,-2 -267,-57 -23,-15 -52,-46 -74,-66l-867 -811c-72,-67 -85,-169 -29,-249 56,-80 157,-102 244,-58z"/>
	<path id="curve29"  d="M2900 1700c331,0 600,269 600,600 0,331 -269,600 -600,600 -331,0 -600,-269 -600,-600 0,-331 269,-600 600,-600zm0 200c-221,0 -400,179 -400,400 0,221 179,400 400,400 221,0 400,-179 400,-400 0,-221 -179,-400 -400,-400zm0 250c83,0 150,67 150,150 0,83 -67,150 -150,150 -83,0 -150,-67 -150,-150 0,-83 67,-150 150,-150z"/>
	<path id="curve28"  d="M1650 4000c-83,0 -150,67 -150,150 0,83 67,150 150,150 83,0 150,-67 150,-150 0,-83 -67,-150 -150,-150zm2500 -3300c-83,0 -150,67 -150,150 0,83 67,150 150,150 83,0 150,-67 150,-150 0,-83 -67,-150 -150,-150zm-2500 0c-83,0 -150,67 -150,150 0,83 67,150 150,150 83,0 150,-67 150,-150 0,-83 -67,-150 -150,-150zm-207 -400l2914 0c189,0 343,154 343,343l0 3714c0,189 -154,343 -343,343l-2914 0c-189,0 -343,-154 -343,-343l0 -3714c0,-189 154,-343 343,-343zm1457 600c-773,0 -1400,627 -1400,1400 0,758 603,1378 1361,1399l665 623c31,29 53,54 90,80 256,180 610,117 789,-139 179,-256 117,-610 -139,-790 -31,-21 -62,-37 -95,-54l-273 -137c249,-253 402,-600 402,-982 0,-773 -627,-1400 -1400,-1400z"/>
</svg>