<?xml version="1.0" encoding="UTF-8"?>
<!DOCTYPE svg PUBLIC "-//W3C//DTD SVG 1.1//EN" "http://www.w3.org/Graphics/SVG/1.1/DTD/svg11.dtd">
<svg xmlns="http://www.w3.org/2000/svg" xml:space="preserve" width="580px" height="580px" shape-rendering="geometricPrecision" text-rendering="geometricPrecision" image-rendering="optimizeQuality" fill-rule="nonzero" clip-rule="nonzero" viewBox="0 0 5800 5800" xmlns:xlink="http://www.w3.org/1999/xlink">
	<title>hard_drive icon</title>
	<desc>hard_drive icon from the IconExperience.com I-Collection. Copyright by INCORS GmbH (www.incors.com).</desc>
		<path id="curve28"  d="M4157 4384l-1208 -611c0,0 895,837 979,916 0,0 47,48 53,51 90,64 216,42 279,-49 63,-90 41,-216 -49,-279 -16,-11 -36,-20 -54,-28zm-1257 -1884c110,0 200,90 200,200 0,110 -90,200 -200,200 -110,0 -200,-90 -200,-200 0,-110 90,-200 200,-200zm-1800 -2200l3600 0c220,0 400,180 400,400l0 4400c0,220 -180,400 -400,400l-3600 0c-220,0 -400,-180 -400,-400l0 -4400c0,-220 180,-400 400,-400zm3600 200l-3600 0c-110,0 -200,90 -200,200l0 4400c0,110 90,200 200,200l3600 0c110,0 200,-90 200,-200l0 -4400c0,-110 -90,-200 -200,-200zm-3400 200c110,0 200,90 200,200 0,110 -90,200 -200,200 -110,0 -200,-90 -200,-200 0,-110 90,-200 200,-200zm3200 0c110,0 200,90 200,200 0,110 -90,200 -200,200 -110,0 -200,-90 -200,-200 0,-110 90,-200 200,-200zm-3200 4000c110,0 200,90 200,200 0,110 -90,200 -200,200 -110,0 -200,-90 -200,-200 0,-110 90,-200 200,-200zm1600 -3800c994,0 1800,806 1800,1800 0,487 -194,929 -508,1253l-188 -95c9,-9 18,-18 27,-27 290,-289 469,-689 469,-1131 0,-884 -716,-1600 -1600,-1600 -884,0 -1600,716 -1600,1600 0,884 716,1600 1600,1600 9,0 18,0 26,0l200 186c-74,9 -150,14 -226,14 -994,0 -1800,-806 -1800,-1800 0,-994 806,-1800 1800,-1800zm0 1100c387,0 700,313 700,700 0,332 -233,618 -557,685 -76,-17 -153,-14 -224,10 -352,-40 -619,-340 -619,-695 0,-387 313,-700 700,-700zm0 200c-276,0 -500,224 -500,500 0,276 224,500 500,500 276,0 500,-224 500,-500 0,-276 -224,-500 -500,-500zm144 1398l1203 607c27,14 53,27 78,44 181,127 225,375 98,556 -127,182 -375,226 -556,99 -30,-21 -49,-45 -75,-70l-975 -910c-76,-72 -90,-180 -31,-265 59,-84 166,-108 258,-61z"/>
</svg>