<?xml version="1.0" encoding="UTF-8"?>
<!DOCTYPE svg PUBLIC "-//W3C//DTD SVG 1.1//EN" "http://www.w3.org/Graphics/SVG/1.1/DTD/svg11.dtd">
<svg xmlns="http://www.w3.org/2000/svg" xml:space="preserve" width="580px" height="580px" shape-rendering="geometricPrecision" text-rendering="geometricPrecision" image-rendering="optimizeQuality" fill-rule="nonzero" clip-rule="nonzero" viewBox="0 0 5800 5800" xmlns:xlink="http://www.w3.org/1999/xlink">
	<title>hard_drive icon</title>
	<desc>hard_drive icon from the IconExperience.com I-Collection. Copyright by INCORS GmbH (www.incors.com).</desc>
		<path id="curve28"  d="M3044 3598l1203 607c112,57 218,164 243,302 17,100 -4,208 -67,298 -63,91 -157,148 -258,165 -163,29 -262,-32 -373,-135l-975 -911c-76,-72 -90,-180 -31,-265 59,-84 166,-108 258,-61zm-144 -1598c387,0 700,313 700,700 0,387 -313,700 -700,700 -387,0 -700,-313 -700,-700 0,-387 313,-700 700,-700zm0 200c-276,0 -500,224 -500,500 0,276 224,500 500,500 276,0 500,-224 500,-500 0,-276 -224,-500 -500,-500zm0 300c110,0 200,90 200,200 0,110 -90,200 -200,200 -110,0 -200,-90 -200,-200 0,-110 90,-200 200,-200zm-1800 -2200l3600 0c220,0 400,180 400,400l0 4400c0,220 -180,400 -400,400l-3600 0c-220,0 -400,-180 -400,-400l0 -4400c0,-220 180,-400 400,-400zm1800 600c-994,0 -1800,806 -1800,1800 0,994 806,1800 1800,1800 76,0 152,-5 226,-14l529 495c33,32 57,59 96,87 272,190 646,124 836,-147 190,-272 124,-646 -147,-836 -33,-23 -67,-40 -102,-58l-146 -74c314,-324 508,-766 508,-1253 0,-994 -806,-1800 -1800,-1800zm-1600 3800c-110,0 -200,90 -200,200 0,110 90,200 200,200 110,0 200,-90 200,-200 0,-110 -90,-200 -200,-200zm3200 -4000c-110,0 -200,90 -200,200 0,110 90,200 200,200 110,0 200,-90 200,-200 0,-110 -90,-200 -200,-200zm-3200 0c-110,0 -200,90 -200,200 0,110 90,200 200,200 110,0 200,-90 200,-200 0,-110 -90,-200 -200,-200z"/>
</svg>