<?xml version="1.0" encoding="UTF-8"?>
<!DOCTYPE svg PUBLIC "-//W3C//DTD SVG 1.1//EN" "http://www.w3.org/Graphics/SVG/1.1/DTD/svg11.dtd">
<svg xmlns="http://www.w3.org/2000/svg" xml:space="preserve" width="580px" height="580px" shape-rendering="geometricPrecision" text-rendering="geometricPrecision" image-rendering="optimizeQuality" fill-rule="nonzero" clip-rule="nonzero" viewBox="0 0 5800 5800" xmlns:xlink="http://www.w3.org/1999/xlink">
	<title>hard_drive_network icon</title>
	<desc>hard_drive_network icon from the IconExperience.com I-Collection. Copyright by INCORS GmbH (www.incors.com).</desc>
		<path id="curve28" d="M2900 2150c83,0 150,67 150,150 0,83 -67,150 -150,150 -83,0 -150,-67 -150,-150 0,-83 67,-150 150,-150zm0 -1250c773,0 1400,627 1400,1400 0,382 -153,729 -402,982l-189 -96c250,-228 391,-547 391,-886 0,-663 -537,-1200 -1200,-1200 -663,0 -1200,537 -1200,1200 0,555 381,1037 918,1167 13,15 26,30 42,45l201 187c-758,-21 -1361,-641 -1361,-1399 0,-773 627,-1400 1400,-1400zm-1457 -600l2914 0c189,0 343,154 343,343l0 3714c0,189 -154,343 -343,343l-1357 0 0 500 100 0 0 100 1000 0 0 200 -1000 0 0 100c-133,0 -267,0 -400,0l0 -100 -1000 0 0 -200 1000 0 0 -100 100 0 0 -500 -1357 0c-189,0 -343,-154 -343,-343l0 -3714c0,-189 154,-343 343,-343zm2914 200l-2914 0c-79,0 -143,64 -143,143l0 3714c0,79 64,143 143,143l1357 0 200 0 1357 0c79,0 143,-64 143,-143l0 -3714c0,-79 -64,-143 -143,-143zm-366 3276l-1007 -508 815 762c15,13 30,34 46,45 70,49 179,36 229,-36 54,-80 43,-182 -37,-238 -11,-8 -26,-15 -38,-21l-8 -4zm-980 -718l1070 540c24,13 47,24 70,40 169,118 208,354 83,520 -118,155 -334,193 -497,84 -19,-9 -56,-50 -74,-66l-867 -811c-72,-67 -85,-169 -29,-249 56,-80 157,-102 244,-58zm-1361 -2358c83,0 150,67 150,150 0,83 -67,150 -150,150 -83,0 -150,-67 -150,-150 0,-83 67,-150 150,-150zm2500 0c83,0 150,67 150,150 0,83 -67,150 -150,150 -83,0 -150,-67 -150,-150 0,-83 67,-150 150,-150zm-1250 1000c331,0 600,269 600,600 0,331 -269,600 -600,600 -331,0 -600,-269 -600,-600 0,-331 269,-600 600,-600zm0 200c-221,0 -400,179 -400,400 0,221 179,400 400,400 221,0 400,-179 400,-400 0,-221 -179,-400 -400,-400zm-1250 2100c83,0 150,67 150,150 0,83 -67,150 -150,150 -83,0 -150,-67 -150,-150 0,-83 67,-150 150,-150z"/>
</svg>