<?xml version="1.0" encoding="UTF-8"?>
<!DOCTYPE svg PUBLIC "-//W3C//DTD SVG 1.1//EN" "http://www.w3.org/Graphics/SVG/1.1/DTD/svg11.dtd">
<svg xmlns="http://www.w3.org/2000/svg" xml:space="preserve" width="580px" height="580px" shape-rendering="geometricPrecision" text-rendering="geometricPrecision" image-rendering="optimizeQuality" fill-rule="nonzero" clip-rule="nonzero" viewBox="0 0 5800 5800" xmlns:xlink="http://www.w3.org/1999/xlink">
	<title>hardhat icon</title>
	<desc>hardhat icon from the IconExperience.com I-Collection. Copyright by INCORS GmbH (www.incors.com).</desc>
	<path id="curve0"  d="M2249 515c195,-119 423,-178 651,-178 228,0 456,59 652,177 31,19 48,52 48,86l0 1600 -200 0 0 -1542c-153,-81 -326,-121 -500,-121 -174,0 -348,40 -500,121l0 1542 -200 0 0 -1600c0,-36 20,-68 49,-85zm-1557 2538c0,15 -3,30 -11,45l-160 320 765 764c79,79 171,117 283,117l2662 0c113,0 204,-38 283,-117l765 -764 -156 -312c-10,-15 -15,-34 -15,-53 0,-943 -380,-1746 -1308,-2068l0 -210c1039,328 1501,1204 1508,2255l181 363c20,39 11,86 -19,115l-814 816c-116,115 -262,175 -425,175l-2662 0c-163,0 -309,-60 -425,-175l-815 -816c-33,-33 -38,-85 -14,-123l177 -355c7,-1052 469,-1928 1509,-2255l0 210c-928,321 -1309,1124 -1309,2068z"/>
</svg>