<?xml version="1.0" encoding="UTF-8"?>
<!DOCTYPE svg PUBLIC "-//W3C//DTD SVG 1.1//EN" "http://www.w3.org/Graphics/SVG/1.1/DTD/svg11.dtd">
<svg xmlns="http://www.w3.org/2000/svg" xml:space="preserve" width="580px" height="580px" shape-rendering="geometricPrecision" text-rendering="geometricPrecision" image-rendering="optimizeQuality" fill-rule="nonzero" clip-rule="nonzero" viewBox="0 0 5800 5800" xmlns:xlink="http://www.w3.org/1999/xlink">
	<title>hardhat icon</title>
	<desc>hardhat icon from the IconExperience.com I-Collection. Copyright by INCORS GmbH (www.incors.com).</desc>
	<path id="curve0"  d="M2249 515c195,-119 423,-178 651,-178 228,0 456,59 652,177 31,19 48,52 48,86l0 1600 200 0 0 -1425c423,134 778,370 1038,708 296,385 466,901 470,1547l181 363c20,39 11,86 -19,115l1 0 -815 816c-116,115 -262,175 -425,175l-2662 0c-163,0 -309,-60 -425,-175l-815 -816c-33,-33 -38,-85 -14,-123l177 -355c4,-646 174,-1162 470,-1547 260,-339 616,-575 1039,-708l0 1425 199 0c0,-533 0,-1067 0,-1600 0,-36 20,-68 49,-85z"/>
</svg>