<?xml version="1.0" encoding="UTF-8"?>
<!DOCTYPE svg PUBLIC "-//W3C//DTD SVG 1.1//EN" "http://www.w3.org/Graphics/SVG/1.1/DTD/svg11.dtd">
<svg xmlns="http://www.w3.org/2000/svg" xml:space="preserve" width="580px" height="580px" shape-rendering="geometricPrecision" text-rendering="geometricPrecision" image-rendering="optimizeQuality" fill-rule="nonzero" clip-rule="nonzero" viewBox="0 0 5800 5800" xmlns:xlink="http://www.w3.org/1999/xlink">
	<title>hat icon</title>
	<desc>hat icon from the IconExperience.com I-Collection. Copyright by INCORS GmbH (www.incors.com).</desc>
		<path id="curve28" d="M2900 3000c-297,0 -594,-34 -835,-102 -31,-9 -62,-18 -91,-29 -106,-36 -199,-80 -274,-133l0 164c0,116 135,211 338,280 233,80 546,120 862,120 336,0 672,-45 908,-136 177,-68 292,-157 292,-264l0 -164c-62,43 -136,81 -221,114 -37,14 -78,28 -120,40 -245,73 -553,110 -859,110zm1600 -719c46,-5 91,-11 134,-17 137,-20 262,-45 346,-62 127,-25 228,-19 307,11 63,23 111,61 147,109 34,46 56,99 68,158 32,161 -12,368 -77,539 -133,354 -444,703 -930,946 -408,204 -940,335 -1595,335 -655,0 -1187,-131 -1595,-335 -486,-243 -797,-592 -930,-946 -65,-171 -109,-378 -77,-539 12,-59 34,-112 68,-158 36,-48 84,-86 147,-109 79,-30 180,-36 307,-11 95,19 220,44 353,63 41,6 84,12 127,17l0 201c-53,-6 -105,-13 -155,-20 -144,-21 -269,-46 -365,-65 -88,-18 -152,-15 -197,1 -25,10 -43,24 -57,42 -15,21 -26,48 -32,78 -24,121 14,287 68,430 117,311 394,619 832,838 381,190 883,313 1506,313 623,0 1125,-123 1506,-313 438,-219 715,-527 832,-838 54,-143 92,-309 68,-430 -6,-30 -17,-57 -32,-78 -14,-18 -32,-32 -57,-42 -45,-16 -109,-19 -197,-1 -86,17 -211,42 -357,64 -52,7 -107,14 -163,20l0 -201zm-1910 -1126c88,23 174,45 310,45 136,0 222,-22 310,-45 105,-27 213,-55 390,-55 216,0 380,152 494,364 137,253 206,598 206,843l0 593c0,203 -166,352 -421,450 -259,100 -620,150 -979,150 -336,0 -672,-44 -926,-131 -284,-97 -474,-252 -474,-469 0,0 0,-544 0,-593 0,-245 69,-590 206,-843 114,-212 278,-364 494,-364 177,0 285,28 390,55zm670 193c-102,26 -202,52 -360,52 -158,0 -258,-26 -360,-52 -92,-24 -186,-48 -340,-48 -129,0 -237,109 -318,259 -121,223 -182,530 -182,748l0 93c0,150 222,241 338,280 233,80 546,120 862,120 336,0 672,-45 908,-136 177,-68 292,-157 292,-264l0 -93c0,-218 -61,-525 -182,-748 -81,-150 -189,-259 -318,-259 -154,0 -248,24 -340,48z"/>
</svg>