<?xml version="1.0" encoding="UTF-8"?>
<!DOCTYPE svg PUBLIC "-//W3C//DTD SVG 1.1//EN" "http://www.w3.org/Graphics/SVG/1.1/DTD/svg11.dtd">
<svg xmlns="http://www.w3.org/2000/svg" xml:space="preserve" width="580px" height="580px" shape-rendering="geometricPrecision" text-rendering="geometricPrecision" image-rendering="optimizeQuality" fill-rule="nonzero" clip-rule="nonzero" viewBox="0 0 5800 5800" xmlns:xlink="http://www.w3.org/1999/xlink">
	<title>hat2 icon</title>
	<desc>hat2 icon from the IconExperience.com I-Collection. Copyright by INCORS GmbH (www.incors.com).</desc>
		<path id="curve28" d="M3210 1155c105,-27 213,-55 390,-55 216,0 380,152 494,364 136,250 204,590 206,834 114,-5 229,-19 334,-34 137,-20 262,-45 346,-62 163,-33 347,-24 454,120 34,46 56,99 68,158 32,161 -12,368 -77,539 -133,354 -444,703 -930,946 -408,204 -940,335 -1595,335 -655,0 -1187,-131 -1595,-335 -486,-243 -797,-592 -930,-946 -65,-171 -109,-378 -77,-539 12,-59 34,-112 68,-158 107,-144 291,-153 454,-120 95,19 220,44 353,63 104,16 215,28 327,33 2,-244 70,-584 206,-834 114,-212 278,-364 494,-364 177,0 285,28 390,55 88,23 174,45 310,45 136,0 222,-22 310,-45zm-310 1645c-248,0 -1400,-65 -1400,-400l0 500c0,217 190,372 474,469 254,87 590,131 926,131 359,0 720,-50 979,-150 255,-98 421,-247 421,-450l0 -500c0,339 -1175,400 -1400,400z"/>
</svg>