<?xml version="1.0" encoding="UTF-8"?>
<!DOCTYPE svg PUBLIC "-//W3C//DTD SVG 1.1//EN" "http://www.w3.org/Graphics/SVG/1.1/DTD/svg11.dtd">
<svg xmlns="http://www.w3.org/2000/svg" xml:space="preserve" width="580px" height="580px" shape-rendering="geometricPrecision" text-rendering="geometricPrecision" image-rendering="optimizeQuality" fill-rule="nonzero" clip-rule="nonzero" viewBox="0 0 5800 5800" xmlns:xlink="http://www.w3.org/1999/xlink">
	<title>hat2 icon</title>
	<desc>hat2 icon from the IconExperience.com I-Collection. Copyright by INCORS GmbH (www.incors.com).</desc>
		<path id="curve29"  d="M1400 2492c-209,-16 -414,-53 -620,-94 -124,-25 -256,-29 -286,121 -24,121 14,287 68,430 117,311 394,619 832,838 381,190 883,313 1506,313 623,0 1125,-123 1506,-313 438,-219 715,-527 832,-838 54,-143 92,-309 68,-430 -30,-150 -162,-146 -286,-121 -206,41 -411,77 -620,94l0 -201c196,-16 388,-51 580,-89 239,-48 468,9 522,278 32,161 -12,368 -77,539 -133,354 -444,703 -930,946 -408,204 -940,335 -1595,335 -655,0 -1187,-131 -1595,-335 -486,-243 -797,-592 -930,-946 -65,-171 -109,-378 -77,-539 54,-269 284,-326 522,-278 192,39 384,74 580,90l0 200zm2800 508l-2600 0 -100 -100 0 -593c0,-245 69,-590 206,-843 114,-212 278,-364 494,-364 177,0 285,28 390,55l0 0c88,23 174,45 310,45 136,0 222,-22 310,-45l0 0c105,-27 213,-55 390,-55 216,0 380,152 494,364 137,253 206,598 206,843l0 593 -100 100zm-2500 -200l2400 0 0 -493c0,-218 -61,-525 -182,-748 -81,-150 -189,-259 -318,-259 -154,0 -248,24 -340,48l-1 0c-101,26 -201,52 -359,52 -158,0 -258,-26 -359,-52l-1 0c-92,-24 -186,-48 -340,-48 -129,0 -237,109 -318,259 -121,223 -182,530 -182,748l0 493z"/>
	<path id="curve28"  d="M4300 2400l0 500c0,203 -166,352 -421,450 -293,113 -666,150 -979,150 -335,0 -672,-44 -926,-131 -284,-97 -474,-252 -474,-469l0 -500c0,335 1152,400 1399,400 248,0 1401,-65 1401,-400z"/>
</svg>