<?xml version="1.0" encoding="UTF-8"?>
<!DOCTYPE svg PUBLIC "-//W3C//DTD SVG 1.1//EN" "http://www.w3.org/Graphics/SVG/1.1/DTD/svg11.dtd">
<svg xmlns="http://www.w3.org/2000/svg" xml:space="preserve" width="580px" height="580px" shape-rendering="geometricPrecision" text-rendering="geometricPrecision" image-rendering="optimizeQuality" fill-rule="nonzero" clip-rule="nonzero" viewBox="0 0 5800 5800" xmlns:xlink="http://www.w3.org/1999/xlink">
	<title>hat icon</title>
	<desc>hat icon from the IconExperience.com I-Collection. Copyright by INCORS GmbH (www.incors.com).</desc>
		<path id="curve28"  d="M2900 3500c359,0 720,-50 979,-150 255,-98 421,-247 421,-450l0 -602c229,-11 456,-51 680,-96 127,-25 228,-19 307,11 121,45 190,144 215,267 32,161 -12,368 -77,539 -361,961 -1602,1281 -2525,1281 -923,0 -2164,-320 -2525,-1281 -65,-171 -109,-378 -77,-539 25,-123 94,-222 215,-267 79,-30 180,-36 307,-11 225,45 450,86 680,96l0 -2 0 604c0,217 190,372 474,469 254,87 590,131 926,131zm310 -2345c105,-27 213,-55 390,-55 216,0 380,152 494,364 122,225 190,524 204,759 -27,137 -272,577 -1398,577 -1126,0 -1371,-440 -1398,-577 14,-235 82,-534 204,-759 114,-212 278,-364 494,-364 177,0 285,28 390,55 232,60 388,60 620,0z"/>
</svg>