<?xml version="1.0" encoding="UTF-8"?>
<!DOCTYPE svg PUBLIC "-//W3C//DTD SVG 1.1//EN" "http://www.w3.org/Graphics/SVG/1.1/DTD/svg11.dtd">
<svg xmlns="http://www.w3.org/2000/svg" xml:space="preserve" width="580px" height="580px" shape-rendering="geometricPrecision" text-rendering="geometricPrecision" image-rendering="optimizeQuality" fill-rule="nonzero" clip-rule="nonzero" viewBox="0 0 5800 5800" xmlns:xlink="http://www.w3.org/1999/xlink">
	<title>headset icon</title>
	<desc>headset icon from the IconExperience.com I-Collection. Copyright by INCORS GmbH (www.incors.com).</desc>
		<path id="curve28"  d="M4800 2300l-200 0c-55,0 -100,45 -100,100l0 1800c0,55 45,100 100,100l200 0c276,0 500,-224 500,-500l0 -1000c0,-276 -224,-500 -500,-500zm-105 2200c-40,395 -304,600 -695,600l-312 0c-25,101 -86,191 -172,261 -108,86 -255,139 -416,139 -161,0 -308,-53 -416,-139 -114,-92 -184,-219 -184,-361 0,-142 70,-269 184,-361 108,-86 255,-139 416,-139 161,0 308,53 416,139 86,70 147,160 172,261l312 0c286,0 466,-127 496,-419 -117,-43 -196,-155 -196,-281l0 -1800c0,-165 135,-300 300,-300l200 0c387,0 700,313 700,700l0 1000c0,387 -313,700 -700,700l-105 0zm-3771 -2597c158,-953 1027,-1603 1976,-1603 949,0 1818,650 1976,1603 -25,-2 -51,-3 -76,-3l-128 0c-158,-840 -933,-1400 -1772,-1400 -839,0 -1614,560 -1772,1400l-128 0c-25,0 -51,1 -76,3zm76 197l200 0c165,0 300,135 300,300l0 1800c0,165 -135,300 -300,300l-200 0c-387,0 -700,-313 -700,-700l0 -1000c0,-387 313,-700 700,-700zm200 200l-200 0c-276,0 -500,224 -500,500l0 1000c0,276 224,500 500,500l200 0c55,0 100,-45 100,-100l0 -1800c0,-55 -45,-100 -100,-100zm2191 2495c-73,-59 -176,-95 -291,-95 -115,0 -218,36 -291,95 -68,54 -109,126 -109,205 0,79 41,151 109,205 73,59 176,95 291,95 115,0 218,-36 291,-95 68,-54 109,-126 109,-205 0,-79 -41,-151 -109,-205z"/>
</svg>