<?xml version="1.0" encoding="UTF-8"?>
<!DOCTYPE svg PUBLIC "-//W3C//DTD SVG 1.1//EN" "http://www.w3.org/Graphics/SVG/1.1/DTD/svg11.dtd">
<svg xmlns="http://www.w3.org/2000/svg" xml:space="preserve" width="580px" height="580px" shape-rendering="geometricPrecision" text-rendering="geometricPrecision" image-rendering="optimizeQuality" fill-rule="nonzero" clip-rule="nonzero" viewBox="0 0 5800 5800" xmlns:xlink="http://www.w3.org/1999/xlink">
	<title>headstone icon</title>
	<desc>headstone icon from the IconExperience.com I-Collection. Copyright by INCORS GmbH (www.incors.com).</desc>
	<path id="curve0" d="M3000 1500l0 1000 -200 0 0 -1000 200 0zm-1700 1859l0 -2659c0,-110 90,-200 200,-200l405 0c301,-200 648,-300 995,-300 347,0 694,100 995,300l405 0c110,0 200,90 200,200l0 2659 400 400 0 1741 -4000 0 0 -1741 400 -400zm-200 482l0 1459 3600 0 0 -1459 -400 -400c0,-913 0,-1827 0,-2741 0,0 -409,0 -466,0l-26 -18c-272,-188 -590,-282 -908,-282 -318,0 -636,94 -908,282l-26 18 -466 0 0 2741 -400 400zm695 -1341l0 -1000 400 0c171,0 310,139 310,310 0,109 -56,207 -147,263 91,92 147,217 147,357l0 70 -200 0 0 -70c0,-174 -139,-305 -310,-310l0 380 -200 0zm200 -800l0 220 200 0c61,0 110,-49 110,-110 0,-60 -50,-110 -110,-110l-200 0zm1300 800l0 -1000 400 0c171,0 310,139 310,310 0,170 -139,310 -310,310l-200 0 0 380 -200 0zm200 -800l0 220 200 0c61,0 110,-49 110,-110 0,-60 -50,-110 -110,-110l-200 0z"/>
</svg>