<?xml version="1.0" encoding="UTF-8"?>
<!DOCTYPE svg PUBLIC "-//W3C//DTD SVG 1.1//EN" "http://www.w3.org/Graphics/SVG/1.1/DTD/svg11.dtd">
<svg xmlns="http://www.w3.org/2000/svg" xml:space="preserve" width="580px" height="580px" shape-rendering="geometricPrecision" text-rendering="geometricPrecision" image-rendering="optimizeQuality" fill-rule="nonzero" clip-rule="nonzero" viewBox="0 0 5800 5800" xmlns:xlink="http://www.w3.org/1999/xlink">
	<title>headstone icon</title>
	<desc>headstone icon from the IconExperience.com I-Collection. Copyright by INCORS GmbH (www.incors.com).</desc>
	<path id="curve0"  d="M1300 3359l0 -2659c0,-110 90,-200 200,-200l405 0c301,-200 648,-300 995,-300 347,0 694,100 995,300l405 0c110,0 200,90 200,200l0 2659 400 400 0 1741 -4000 0 0 -1741 400 -400zm1700 -1859l-200 0 0 1000 200 0 0 -1000zm-1205 1000l200 0 0 -380c171,5 310,136 310,310l0 70 200 0 0 -70c0,-140 -56,-265 -147,-357 91,-56 147,-154 147,-263 0,-171 -139,-310 -310,-310l-400 0 0 1000zm200 -800l0 220 200 0c61,0 110,-49 110,-110 0,-60 -50,-110 -110,-110l-200 0zm1300 800l200 0 0 -380 200 0c171,0 310,-140 310,-310 0,-171 -139,-310 -310,-310l-400 0 0 1000zm200 -800l0 220 200 0c61,0 110,-49 110,-110 0,-60 -50,-110 -110,-110l-200 0z"/>
</svg>