<?xml version="1.0" encoding="UTF-8"?>
<!DOCTYPE svg PUBLIC "-//W3C//DTD SVG 1.1//EN" "http://www.w3.org/Graphics/SVG/1.1/DTD/svg11.dtd">
<svg xmlns="http://www.w3.org/2000/svg" xml:space="preserve" width="580px" height="580px" shape-rendering="geometricPrecision" text-rendering="geometricPrecision" image-rendering="optimizeQuality" fill-rule="nonzero" clip-rule="nonzero" viewBox="0 0 5800 5800" xmlns:xlink="http://www.w3.org/1999/xlink">
	<title>headphones icon</title>
	<desc>headphones icon from the IconExperience.com I-Collection. Copyright by INCORS GmbH (www.incors.com).</desc>
		<path id="curve28" d="M4800 2300l-200 0c-55,0 -100,45 -100,100l0 1800c0,55 45,100 100,100l200 0c276,0 500,-224 500,-500l0 -1000c0,-276 -224,-500 -500,-500zm-200 -200l200 0c387,0 700,313 700,700l0 1000c0,387 -313,700 -700,700l-200 0c-165,0 -300,-135 -300,-300l0 -1800c0,-165 135,-300 300,-300zm-3600 0l200 0c165,0 300,135 300,300l0 1800c0,165 -135,300 -300,300l-200 0c-387,0 -700,-313 -700,-700l0 -1000c0,-387 313,-700 700,-700zm200 200l-200 0c-276,0 -500,224 -500,500l0 1000c0,276 224,500 500,500l200 0c55,0 100,-45 100,-100l0 -1800c0,-55 -45,-100 -100,-100zm-276 -397c158,-953 1027,-1603 1976,-1603 949,0 1818,650 1976,1603 -25,-2 -51,-3 -76,-3l-128 0c-158,-840 -933,-1400 -1772,-1400 -839,0 -1614,560 -1772,1400l-128 0c-26,0 -51,1 -76,3z"/>
</svg>