<?xml version="1.0" encoding="UTF-8"?>
<!DOCTYPE svg PUBLIC "-//W3C//DTD SVG 1.1//EN" "http://www.w3.org/Graphics/SVG/1.1/DTD/svg11.dtd">
<svg xmlns="http://www.w3.org/2000/svg" xml:space="preserve" width="580px" height="580px" shape-rendering="geometricPrecision" text-rendering="geometricPrecision" image-rendering="optimizeQuality" fill-rule="nonzero" clip-rule="nonzero" viewBox="0 0 5800 5800" xmlns:xlink="http://www.w3.org/1999/xlink">
	<title>headset icon</title>
	<desc>headset icon from the IconExperience.com I-Collection. Copyright by INCORS GmbH (www.incors.com).</desc>
		<path id="curve28"  d="M924 1903c158,-953 1027,-1603 1976,-1603 949,0 1818,650 1976,1603 -67,-5 -137,-3 -204,-3 -158,-840 -933,-1400 -1772,-1400 -839,0 -1614,560 -1772,1400 -67,0 -137,-2 -204,3zm3676 197l200 0c387,0 700,313 700,700l0 1000c0,387 -313,700 -700,700l-105 0c-40,395 -304,600 -695,600l-312 0c-63,258 -337,400 -588,400 -285,0 -600,-188 -600,-500 0,-312 315,-500 600,-500 251,0 525,142 588,400l312 0c286,0 466,-127 496,-419 -117,-43 -196,-155 -196,-281l0 -1800c0,-165 135,-300 300,-300zm-3600 0l200 0c165,0 300,135 300,300l0 1800c0,165 -135,300 -300,300l-200 0c-387,0 -700,-313 -700,-700l0 -1000c0,-387 313,-700 700,-700z"/>
</svg>