<?xml version="1.0" encoding="UTF-8"?>
<!DOCTYPE svg PUBLIC "-//W3C//DTD SVG 1.1//EN" "http://www.w3.org/Graphics/SVG/1.1/DTD/svg11.dtd">
<svg xmlns="http://www.w3.org/2000/svg" xml:space="preserve" width="580px" height="580px" shape-rendering="geometricPrecision" text-rendering="geometricPrecision" image-rendering="optimizeQuality" fill-rule="nonzero" clip-rule="nonzero" viewBox="0 0 5800 5800" xmlns:xlink="http://www.w3.org/1999/xlink">
	<title>heart icon</title>
	<desc>heart icon from the IconExperience.com I-Collection. Copyright by INCORS GmbH (www.incors.com).</desc>
		<path id="curve28"  d="M5300 2010c0,335 -60,586 -158,801 -96,214 -227,386 -372,570 -254,324 -573,580 -895,839 -319,257 -641,516 -896,842l-79 100 -79 -100c-255,-326 -577,-585 -896,-842 -322,-259 -641,-515 -895,-839 -145,-184 -276,-356 -372,-570 -98,-215 -158,-466 -158,-801 0,-733 620,-1318 1346,-1318 235,0 456,60 649,166 157,87 294,204 405,343 111,-139 248,-256 405,-343 193,-106 414,-166 649,-166 726,0 1346,585 1346,1318zm-340 719c87,-190 140,-415 140,-719 0,-622 -530,-1118 -1146,-1118 -201,0 -389,51 -553,141 -170,94 -313,230 -417,394l-84 133 -84 -133c-104,-164 -247,-300 -417,-394 -164,-90 -352,-141 -553,-141 -616,0 -1146,496 -1146,1118 0,304 53,529 140,719 87,192 210,355 347,529 241,306 550,555 863,807 297,239 596,480 850,777 254,-297 553,-538 850,-777 313,-252 622,-501 863,-807 137,-174 260,-337 347,-529z"/>
</svg>