<?xml version="1.0" encoding="UTF-8"?>
<!DOCTYPE svg PUBLIC "-//W3C//DTD SVG 1.1//EN" "http://www.w3.org/Graphics/SVG/1.1/DTD/svg11.dtd">
<svg xmlns="http://www.w3.org/2000/svg" xml:space="preserve" width="580px" height="580px" shape-rendering="geometricPrecision" text-rendering="geometricPrecision" image-rendering="optimizeQuality" fill-rule="nonzero" clip-rule="nonzero" viewBox="0 0 5800 5800" xmlns:xlink="http://www.w3.org/1999/xlink">
	<title>heart icon</title>
	<desc>heart icon from the IconExperience.com I-Collection. Copyright by INCORS GmbH (www.incors.com).</desc>
		<path id="curve28"  d="M5300 2010c0,596 -174,918 -530,1371 -254,324 -573,580 -895,839 -319,257 -641,516 -896,842l-79 100 -79 -100c-255,-326 -577,-585 -896,-842 -322,-259 -641,-515 -895,-839 -356,-453 -530,-775 -530,-1371 0,-733 620,-1318 1346,-1318 412,0 798,187 1054,509 256,-322 642,-509 1054,-509 726,0 1346,585 1346,1318z"/>
</svg>