<?xml version="1.0" encoding="UTF-8"?>
<!DOCTYPE svg PUBLIC "-//W3C//DTD SVG 1.1//EN" "http://www.w3.org/Graphics/SVG/1.1/DTD/svg11.dtd">
<svg xmlns="http://www.w3.org/2000/svg" xml:space="preserve" width="580px" height="580px" shape-rendering="geometricPrecision" text-rendering="geometricPrecision" image-rendering="optimizeQuality" fill-rule="nonzero" clip-rule="nonzero" viewBox="0 0 5800 5800" xmlns:xlink="http://www.w3.org/1999/xlink">
	<title>heartbeat icon</title>
	<desc>heartbeat icon from the IconExperience.com I-Collection. Copyright by INCORS GmbH (www.incors.com).</desc>
		<path id="curve28"  d="M5300 2010c0,272 -33,503 -100,690l-207 -5 -521 -391 -325 325 -467 -699 -308 539 -437 -1310c256,-297 626,-467 1019,-467 726,0 1346,585 1346,1318zm-5000 890l577 0 434 -217 364 274 455 -682 353 1060 400 -1700 441 1322 370 -647 422 633 374 -375 441 331 569 1 0 200 -631 1 -359 -269 -426 425 -377 -567 -431 753 -359 -1078 -400 1700 -447 -1340 -345 518 -436 -326 -366 183 -623 0 0 -200zm4530 404c-19,25 -40,51 -60,77 -254,324 -573,580 -895,839 -319,257 -641,516 -896,842l-79 100 -79 -100c-82,-105 -171,-202 -264,-295l393 -1670 278 834 492 -861 333 501 475 -475 279 209 23 -1zm-2299 1437c-190,-186 -399,-354 -606,-521 -322,-259 -641,-515 -895,-839 -22,-27 -43,-54 -64,-81l302 -149 506 379 236 -354 521 1565zm-1919 -2041c-70,-190 -112,-411 -112,-690 0,-733 620,-1318 1346,-1318 362,0 706,144 959,402l-355 1509 -260 -779 -564 846 -294 -221 -503 251 -217 0z"/>
</svg>