<?xml version="1.0" encoding="UTF-8"?>
<!DOCTYPE svg PUBLIC "-//W3C//DTD SVG 1.1//EN" "http://www.w3.org/Graphics/SVG/1.1/DTD/svg11.dtd">
<svg xmlns="http://www.w3.org/2000/svg" xml:space="preserve" width="580px" height="580px" shape-rendering="geometricPrecision" text-rendering="geometricPrecision" image-rendering="optimizeQuality" fill-rule="nonzero" clip-rule="nonzero" viewBox="0 0 5800 5800" xmlns:xlink="http://www.w3.org/1999/xlink">
	<title>heartbeat icon</title>
	<desc>heartbeat icon from the IconExperience.com I-Collection. Copyright by INCORS GmbH (www.incors.com).</desc>
		<path id="curve29" d="M5300 2010c0,272 -40,488 -107,675l-201 11 -13 -10c75,-181 121,-395 121,-676 0,-622 -530,-1118 -1146,-1118 -201,0 -389,51 -553,141 -170,94 -313,230 -417,394l-84 133 -84 -133c-104,-164 -247,-300 -417,-394 -164,-90 -352,-141 -553,-141 -616,0 -1146,496 -1146,1118 0,289 48,507 127,691l-215 0c-70,-190 -112,-411 -112,-691 0,-733 620,-1318 1346,-1318 235,0 456,60 649,166 157,87 294,204 405,343 111,-139 248,-256 405,-343 193,-106 414,-166 649,-166 726,0 1346,585 1346,1318zm-469 1293c-20,26 -40,52 -61,78 -254,324 -573,580 -895,839 -319,257 -641,516 -896,842l-79 100 -79 -100c-255,-326 -577,-585 -896,-842 -322,-259 -641,-515 -895,-839 -22,-27 -43,-55 -64,-82l4 0 179 -90c13,16 25,33 38,49 241,306 550,555 863,807 297,239 596,480 850,777 254,-297 553,-538 850,-777 313,-252 622,-501 863,-807 17,-21 33,-42 49,-63l59 44 87 65 23 -1z"/>
	<path id="curve28" d="M300,2900 877,2900 1311,2683 1675,2957 2130,2275 2483,3335 2883,1635 3324,2957 3694,2310 4116,2943 4490,2568 4931,2899 5495,2869 5505,3069 4869,3101 4510,2832 4084,3257 3707,2690 3276,3443 2917,2365 2517,4065 2070,2725 1725,3243 1289,2917 923,3100 300,3100z"/>
</svg>