<?xml version="1.0" encoding="UTF-8"?>
<!DOCTYPE svg PUBLIC "-//W3C//DTD SVG 1.1//EN" "http://www.w3.org/Graphics/SVG/1.1/DTD/svg11.dtd">
<svg xmlns="http://www.w3.org/2000/svg" xml:space="preserve" width="580px" height="580px" shape-rendering="geometricPrecision" text-rendering="geometricPrecision" image-rendering="optimizeQuality" fill-rule="nonzero" clip-rule="nonzero" viewBox="0 0 5800 5800" xmlns:xlink="http://www.w3.org/1999/xlink">
	<title>helicopter icon</title>
	<desc>helicopter icon from the IconExperience.com I-Collection. Copyright by INCORS GmbH (www.incors.com).</desc>
	<path id="curve0"  d="M5296 3392c-26,-342 -177,-651 -407,-881 -230,-230 -539,-381 -881,-407 -59,-4 -108,41 -108,100l0 796c0,276 224,500 500,500l796 0c59,0 104,-49 100,-108zm-2796 1308l900 0 0 -304c33,3 66,4 100,4l100 0 0 300 800 0 0 -300 200 0 0 300 600 0c58,0 112,-12 162,-34 51,-23 97,-56 134,-97l148 134c-56,62 -125,112 -202,146 -74,33 -156,51 -242,51l-2700 0 0 -200zm3000 -3600c55,0 100,45 100,100 0,55 -45,100 -100,100l-2000 0 0 400 -200 0 0 -400 -2000 0c-55,0 -100,-45 -100,-100 0,-55 45,-100 100,-100 1400,0 2800,0 4200,0zm-4700 400c191,0 364,76 490,200l-490 0c-219,0 -400,181 -400,400l0 159c0,190 138,356 324,392l507 100c-119,93 -268,149 -431,149 -193,0 -368,-78 -495,-205 -127,-127 -205,-302 -205,-495 0,-193 78,-368 205,-495 127,-127 302,-205 495,-205zm-35 956c-96,-19 -165,-101 -165,-197l0 -159c0,-110 90,-200 200,-200l3100 0c441,0 841,180 1131,469 289,290 469,690 469,1131 0,220 -90,420 -235,565 -145,145 -345,235 -565,235l-1200 0c-606,0 -1100,-494 -1100,-1100l0 -300c0,-25 -8,-47 -21,-64 -13,-16 -32,-28 -54,-33l-1560 -347z"/>
</svg>