<?xml version="1.0" encoding="UTF-8"?>
<!DOCTYPE svg PUBLIC "-//W3C//DTD SVG 1.1//EN" "http://www.w3.org/Graphics/SVG/1.1/DTD/svg11.dtd">
<svg xmlns="http://www.w3.org/2000/svg" xml:space="preserve" width="580px" height="580px" shape-rendering="geometricPrecision" text-rendering="geometricPrecision" image-rendering="optimizeQuality" fill-rule="nonzero" clip-rule="nonzero" viewBox="0 0 5800 5800" xmlns:xlink="http://www.w3.org/1999/xlink">
	<title>helicopter icon</title>
	<desc>helicopter icon from the IconExperience.com I-Collection. Copyright by INCORS GmbH (www.incors.com).</desc>
	<path id="curve0" d="M4700 4100c330,0 600,-270 600,-600 0,-771 -629,-1400 -1400,-1400l-3100 0 0 159 1568 349c137,31 232,152 232,292l0 300c0,496 404,900 900,900 100,0 1200,1 1200,0zm-3900 -2600c191,0 364,76 490,200l-490 0c-276,0 -500,224 -500,500 0,276 224,500 500,500 38,0 74,-4 109,-12l322 63c-119,93 -268,149 -431,149 -387,0 -700,-313 -700,-700 0,-387 313,-700 700,-700zm-38 955c-93,-18 -162,-100 -162,-196l0 -159c0,-110 90,-200 200,-200l2500 0 0 -600 -2000 0c-55,0 -100,-45 -100,-100 0,-55 45,-100 100,-100 1400,0 2800,0 4200,0 55,0 100,45 100,100 0,55 -45,100 -100,100l-2000 0 0 600 400 0c881,0 1600,719 1600,1600 0,441 -359,800 -800,800l-100 0 0 400 600 0c113,0 220,-47 296,-131l148 134c-114,125 -275,197 -444,197l-2700 0 0 -200 900 0 0 -405c-564,-51 -1000,-528 -1000,-1095l0 -300c0,-47 -29,-87 -75,-97l-1563 -348zm2838 1845l0 400 800 0 0 -400 -800 0zm500 -2000l0 700c0,165 135,300 300,300l700 0 0 200 -700 0c-276,0 -500,-224 -500,-500l0 -700 200 0z"/>
</svg>