<?xml version="1.0" encoding="UTF-8"?>
<!DOCTYPE svg PUBLIC "-//W3C//DTD SVG 1.1//EN" "http://www.w3.org/Graphics/SVG/1.1/DTD/svg11.dtd">
<svg xmlns="http://www.w3.org/2000/svg" xml:space="preserve" width="580px" height="580px" shape-rendering="geometricPrecision" text-rendering="geometricPrecision" image-rendering="optimizeQuality" fill-rule="nonzero" clip-rule="nonzero" viewBox="0 0 5800 5800" xmlns:xlink="http://www.w3.org/1999/xlink">
	<title>helmet icon</title>
	<desc>helmet icon from the IconExperience.com I-Collection. Copyright by INCORS GmbH (www.incors.com).</desc>
	<path id="curve0" d="M2700 5200c0,165 -135,300 -300,300l-2100 0 0 -371c390,-431 600,-946 600,-1529l0 -1300c0,-994 806,-1800 1800,-1800l400 0c994,0 1800,806 1800,1800l0 1300c0,583 210,1098 600,1529l0 371 -2100 0c-165,0 -300,-135 -300,-300l0 -1700c0,-331 269,-600 600,-600l400 0 0 -400 -2400 0 0 400 400 0c331,0 600,269 600,600l0 1700zm-200 0l0 -1700c0,-220 -180,-400 -400,-400l-600 0 0 -800 2800 0 0 800 -600 0c-220,0 -400,180 -400,400l0 1700c0,55 45,100 100,100l1900 0 0 -96c-390,-445 -600,-1013 -600,-1604l0 -1300c0,-884 -716,-1600 -1600,-1600l-400 0c-884,0 -1600,716 -1600,1600l0 1300c0,591 -210,1159 -600,1604l0 96 1900 0c55,0 100,-45 100,-100z"/>
</svg>