<?xml version="1.0" encoding="UTF-8"?>
<!DOCTYPE svg PUBLIC "-//W3C//DTD SVG 1.1//EN" "http://www.w3.org/Graphics/SVG/1.1/DTD/svg11.dtd">
<svg xmlns="http://www.w3.org/2000/svg" xml:space="preserve" width="580px" height="580px" shape-rendering="geometricPrecision" text-rendering="geometricPrecision" image-rendering="optimizeQuality" fill-rule="nonzero" clip-rule="nonzero" viewBox="0 0 5800 5800" xmlns:xlink="http://www.w3.org/1999/xlink">
	<title>help_earth icon</title>
	<desc>help_earth icon from the IconExperience.com I-Collection. Copyright by INCORS GmbH (www.incors.com).</desc>
	<path id="curve0"  d="M2000 2100c939,0 1700,761 1700,1700 0,939 -761,1700 -1700,1700 -939,0 -1700,-761 -1700,-1700 0,-939 761,-1700 1700,-1700zm-100 2700l0 200 200 0 0 -200 -200 0zm900 -1346c0,-461 -394,-681 -811,-681 -417,0 -789,229 -789,681l200 0c0,-338 285,-481 589,-481 304,0 611,136 611,481 0,260 -184,360 -350,449 -183,99 -350,189 -350,422l0 275 200 0 0 -275c0,-114 116,-177 244,-246 216,-116 456,-246 456,-625zm2691 -1160c0,968 -696,1798 -1647,1965 37,-147 56,-301 56,-459 0,-1049 -851,-1900 -1900,-1900 -163,0 -320,20 -471,59 162,-957 994,-1660 1967,-1660 1102,0 1995,893 1995,1995zm-3737 -436c25,-28 161,-116 187,-134 73,-52 98,-193 133,-221 82,-65 159,-153 269,-168 55,-8 29,-127 71,-150 42,-22 60,33 101,46 106,35 119,-104 88,-189 -7,-19 -36,-88 -32,-106 20,-98 132,-87 127,-142 -2,-19 -61,-39 -94,-58 -423,243 -732,648 -850,1122zm1010 -1204c43,-8 145,-23 161,-2 4,13 -22,86 -28,101 -11,34 -43,115 -11,144 12,11 28,11 43,8 57,-13 154,-98 215,-130 110,-59 210,-32 316,-71 129,-47 133,-113 199,-151 23,-14 35,-28 40,-43 -67,-7 -134,-11 -203,-11 -260,0 -508,55 -732,155zm1517 25c-41,16 -79,59 -111,75 -56,27 -141,33 -173,96 -36,72 52,136 12,163 -27,17 -76,72 -98,78 -34,9 -68,7 -104,7 -89,0 -162,37 -200,120 -29,65 -38,195 40,232 25,12 55,23 85,28 -59,16 -100,89 -128,139 -9,16 -83,75 -102,93 -17,17 -34,35 -48,55 -36,50 -64,109 -68,171 -4,52 -29,209 -22,243 30,152 168,293 309,350 77,31 216,-39 294,-65 109,-37 100,64 177,143 7,6 21,92 23,101 13,72 91,171 90,238 -2,89 -45,133 -56,215 -3,22 117,400 134,420 81,103 263,-97 312,-154 83,-95 128,-178 190,-286 73,-129 121,-169 104,-326 -5,-43 0,-72 17,-113 34,-83 105,-177 161,-247 103,-133 -56,-214 -1,-288 117,-78 136,-150 145,-191 -101,-564 -468,-1047 -982,-1297zm4 621c20,24 45,40 72,56 24,15 56,32 63,61 6,25 -10,48 -29,63 -46,38 -105,24 -79,-44 8,-21 -130,-80 -146,-88 -48,-25 -89,-83 -150,-54 -74,35 -107,156 -186,181 47,-1 91,-11 136,-27 44,-15 179,-26 222,-11 148,51 94,205 223,226 18,3 54,0 73,0 21,-1 59,-3 79,0 72,13 125,44 196,9 34,-17 50,-81 23,-110 -81,-88 -277,-35 -317,-82 -22,-24 -43,-65 -59,-93 -27,-46 -54,-108 -121,-87z"/>
</svg>