<?xml version="1.0" encoding="UTF-8"?>
<!DOCTYPE svg PUBLIC "-//W3C//DTD SVG 1.1//EN" "http://www.w3.org/Graphics/SVG/1.1/DTD/svg11.dtd">
<svg xmlns="http://www.w3.org/2000/svg" xml:space="preserve" width="580px" height="580px" shape-rendering="geometricPrecision" text-rendering="geometricPrecision" image-rendering="optimizeQuality" fill-rule="nonzero" clip-rule="nonzero" viewBox="0 0 5800 5800" xmlns:xlink="http://www.w3.org/1999/xlink">
	<title>help_earth icon</title>
	<desc>help_earth icon from the IconExperience.com I-Collection. Copyright by INCORS GmbH (www.incors.com).</desc>
	<path id="curve0"  d="M1900 4800l200 0 0 200 -200 0 0 -200zm3591 -2506c0,968 -696,1798 -1647,1965 17,-69 31,-140 40,-212 821,-180 1407,-910 1407,-1753 0,-109 -9,-216 -28,-319 -9,40 -27,113 -145,192 -55,74 104,155 1,288 -56,70 -127,164 -161,247 -17,41 -22,70 -17,113 17,157 -31,197 -104,326 -62,108 -107,191 -190,286 -49,57 -231,257 -312,154 -17,-20 -137,-398 -134,-420 11,-82 54,-126 56,-215 1,-67 -77,-166 -90,-238 -2,-9 -16,-95 -23,-101 -77,-79 -68,-180 -177,-143 -78,26 -217,96 -294,65 -141,-57 -279,-198 -309,-350 -7,-34 18,-191 22,-243 4,-62 32,-121 68,-171 14,-20 31,-38 48,-55 19,-18 93,-77 102,-93 28,-50 69,-123 128,-139 -30,-5 -60,-16 -85,-28 -78,-37 -69,-167 -40,-232 38,-83 111,-120 200,-120 36,0 70,2 104,-7 22,-6 71,-61 98,-78 40,-27 -48,-91 -12,-163 32,-63 117,-69 173,-96 32,-16 70,-59 111,-75 -7,-4 -14,-7 -21,-10 -173,-82 -362,-137 -561,-159 -5,15 -17,29 -40,43 -66,38 -70,104 -199,151 -106,39 -206,12 -316,71 -61,32 -158,117 -215,130 -15,3 -31,3 -43,-8 -32,-29 0,-110 11,-144 6,-15 32,-88 28,-101 -16,-21 -118,-6 -161,2 -55,25 -108,52 -160,82 33,19 92,39 94,58 5,55 -107,44 -127,142 -4,18 25,87 32,106 31,85 18,224 -88,189 -41,-13 -59,-68 -101,-46 -42,23 -16,142 -71,150 -110,15 -187,103 -269,168 -35,28 -60,169 -133,221 -26,18 -162,106 -187,134 -5,20 -9,40 -13,60 -72,9 -143,23 -212,41 162,-957 994,-1660 1967,-1660 1095,0 1995,888 1995,1995zm-1206 -994c20,24 45,40 72,56 24,15 56,32 63,61 6,25 -10,48 -29,63 -46,38 -105,24 -79,-44 8,-21 -130,-80 -146,-88 -48,-25 -89,-83 -150,-54 -74,35 -107,156 -186,181 47,-1 91,-11 136,-27 44,-15 179,-26 222,-11 148,51 94,205 223,226 18,3 54,0 73,0 21,-1 59,-3 79,0 72,13 125,44 196,9 34,-17 50,-81 23,-110 -81,-88 -277,-35 -317,-82 -22,-24 -43,-65 -59,-93 -27,-46 -54,-108 -121,-87zm-2285 800c939,0 1700,761 1700,1700 0,939 -761,1700 -1700,1700 -939,0 -1700,-761 -1700,-1700 0,-939 761,-1700 1700,-1700zm0 200c-828,0 -1500,672 -1500,1500 0,828 672,1500 1500,1500 828,0 1500,-672 1500,-1500 0,-828 -672,-1500 -1500,-1500zm800 1154c0,379 -240,509 -456,625 -128,69 -244,132 -244,246l0 275 -200 0 0 -275c0,-233 167,-323 350,-422 166,-89 350,-189 350,-449 0,-345 -307,-481 -611,-481 -304,0 -589,143 -589,481l-200 0c0,-452 372,-681 789,-681 417,0 811,220 811,681z"/>
</svg>