<?xml version="1.0" encoding="utf-8"?>
<!-- Generator: Adobe Illustrator 21.1.0, SVG Export Plug-In . SVG Version: 6.00 Build 0)  -->
<svg version="1.1" id="band_x5F_control_x5F_gi" xmlns="http://www.w3.org/2000/svg" xmlns:xlink="http://www.w3.org/1999/xlink"
	 x="0px" y="0px" width="580px" height="580px" viewBox="0 0 580 580" style="enable-background:new 0 0 580 580;"
	 xml:space="preserve">
<g>
	<path d="M57.6,38.4h245c8.2,0,15,6.8,15,15v85h85c8.3,0,15,6.7,15,15v48.9h20v-48.9c0-9.6-3.9-18.4-10.3-24.7l-100-100
		c-6.3-6.4-15.1-10.3-24.7-10.3h-265v520h146.1v-20H57.6V38.4z M337.6,67.2l51.2,51.2h-51.2V67.2z"/>
	<path d="M382.4,241.6c-88.4,0-160,71.6-160,160s71.6,160,160,160s160-71.6,160-160S470.8,241.6,382.4,241.6z M382.4,541.6
		c-77.3,0-140-62.7-140-140s62.7-140,140-140s140,62.7,140,140S459.7,541.6,382.4,541.6z"/>
	<path d="M430.2,340l-36.7,36.7c-3.4-1.5-7.1-2.4-11.1-2.4c-3.8,0-7.4,0.8-10.6,2.2L308,312.7l-14.2,14.2l63.7,63.6
		c-1.5,3.4-2.4,7.1-2.4,11.1c0,15.1,12.2,27.3,27.3,27.3c15.1,0,27.3-12.2,27.3-27.3c0-3.8-0.8-7.4-2.2-10.6l36.9-36.9L430.2,340z"
		/>
</g>
</svg>
