<?xml version="1.0" encoding="UTF-8"?>
<!DOCTYPE svg PUBLIC "-//W3C//DTD SVG 1.1//EN" "http://www.w3.org/Graphics/SVG/1.1/DTD/svg11.dtd">
<svg xmlns="http://www.w3.org/2000/svg" xml:space="preserve" width="580px" height="580px" shape-rendering="geometricPrecision" text-rendering="geometricPrecision" image-rendering="optimizeQuality" fill-rule="nonzero" clip-rule="nonzero" viewBox="0 0 5800 5800" xmlns:xlink="http://www.w3.org/1999/xlink">
	<title>history2 icon</title>
	<desc>history2 icon from the IconExperience.com I-Collection. Copyright by INCORS GmbH (www.incors.com).</desc>
		<path id="curve29" d="M1700 3900l2200 0 0 200 -2200 0 0 -200zm703 -3000c-43,64 -81,131 -116,200l-1396 0 0 200 136 0c35,-62 101,-100 173,-100 110,0 200,90 200,200 0,110 -90,200 -200,200 -72,0 -137,-38 -173,-100l-136 0 0 400 136 0c36,-62 101,-100 173,-100 110,0 200,90 200,200 0,110 -90,200 -200,200 -72,0 -138,-38 -173,-100l-136 0 0 400 136 0c35,-62 101,-100 173,-100 110,0 200,90 200,200 0,110 -90,200 -200,200 -72,0 -137,-38 -173,-100l-136 0 0 400 136 0c35,-62 101,-100 173,-100 110,0 200,90 200,200 0,110 -90,200 -200,200 -72,0 -137,-38 -173,-100l-136 0 0 400 136 0c35,-62 101,-100 173,-100 110,0 200,90 200,200 0,110 -90,200 -200,200 -72,0 -137,-38 -173,-100l-136 0 0 400 136 0c35,-62 101,-100 173,-100 110,0 200,90 200,200 0,110 -90,200 -200,200 -72,0 -137,-38 -173,-100l-136 0 0 400 136 0c35,-62 101,-100 173,-100 110,0 200,90 200,200 0,110 -90,200 -200,200 -72,0 -137,-38 -173,-100l-136 0 0 211 3409 0 0 -1656c68,-15 135,-35 200,-58l0 1914 -3809 0 0 -411 -191 0c-55,0 -100,-45 -100,-100 0,-55 45,-100 100,-100l191 0 0 -400 -191 0c-55,0 -100,-45 -100,-100 0,-55 45,-100 100,-100l191 0 0 -400 -191 0c-55,0 -100,-45 -100,-100 0,-55 45,-100 100,-100l191 0 0 -400 -191 0c-55,0 -100,-45 -100,-100 0,-55 45,-100 100,-100l191 0 0 -400 -191 0c-55,0 -100,-45 -100,-100 0,-55 45,-100 100,-100l191 0 0 -400 -191 0c-55,0 -100,-45 -100,-100 0,-55 45,-100 100,-100l191 0 0 -400 -191 0c-55,0 -100,-45 -100,-100 0,-55 45,-100 100,-100l191 0 0 -400 1712 0zm-703 600l445 0c-15,65 -26,132 -34,200l-411 0 0 -200zm0 800l445 0c15,68 35,135 58,200l-503 0 0 -200zm0 800l858 0c65,72 135,139 211,200l-1069 0 0 -200zm0 1600l2200 0 0 200 -2200 0 0 -200z"/>
	<path id="curve28" d="M3900 1700c19,0 37,3 54,7l424 -423 141 141 -425 426c4,16 6,32 6,49 0,110 -90,200 -200,200 -110,0 -200,-90 -200,-200 0,-19 3,-37 7,-54l-693 -693 142 -142 695 695c16,-4 32,-6 49,-6zm0 -1400c884,0 1600,716 1600,1600 0,884 -716,1600 -1600,1600 -884,0 -1600,-716 -1600,-1600 0,-884 716,-1600 1600,-1600zm0 200c-773,0 -1400,627 -1400,1400 0,773 627,1400 1400,1400 773,0 1400,-627 1400,-1400 0,-773 -627,-1400 -1400,-1400z"/>
</svg>