<?xml version="1.0" encoding="UTF-8"?>
<!DOCTYPE svg PUBLIC "-//W3C//DTD SVG 1.1//EN" "http://www.w3.org/Graphics/SVG/1.1/DTD/svg11.dtd">
<svg xmlns="http://www.w3.org/2000/svg" xml:space="preserve" width="580px" height="580px" shape-rendering="geometricPrecision" text-rendering="geometricPrecision" image-rendering="optimizeQuality" fill-rule="nonzero" clip-rule="nonzero" viewBox="0 0 5800 5800" xmlns:xlink="http://www.w3.org/1999/xlink">
	<title>history2 icon</title>
	<desc>history2 icon from the IconExperience.com I-Collection. Copyright by INCORS GmbH (www.incors.com).</desc>
		<path id="curve28"  d="M3900 300c884,0 1600,716 1600,1600 0,884 -716,1600 -1600,1600 -884,0 -1600,-716 -1600,-1600 0,-884 716,-1600 1600,-1600zm54 1407c-33,-9 -69,-9 -103,-1l-695 -695 -142 142 693 693c-4,17 -7,35 -7,54 0,110 90,200 200,200 110,0 200,-90 200,-200 0,-17 -2,-33 -6,-49l425 -426 -141 -141 -424 423zm-2254 2193l0 200 2200 0 0 -200 -2200 0zm703 -3000c-120,180 -209,382 -258,600l-445 0 0 200 411 0c-7,66 -11,132 -11,200 0,137 15,271 45,400l-445 0 0 200 503 0c79,224 201,427 356,600l-859 0 0 200 1069 0c309,250 702,400 1131,400 210,0 412,-36 600,-103l0 1914 -3809 0 0 -4611 1712 0zm-703 3800l0 200 2200 0 0 -200 -2200 0zm-673 -400l-527 0c-55,0 -100,45 -100,100 0,55 45,100 100,100l527 0c36,62 101,100 173,100 110,0 200,-90 200,-200 0,-110 -90,-200 -200,-200 -72,0 -138,38 -173,100zm-527 -400l527 0c36,62 101,100 173,100 110,0 200,-90 200,-200 0,-110 -90,-200 -200,-200 -72,0 -138,38 -173,100l-527 0c-55,0 -100,45 -100,100 0,55 45,100 100,100zm0 -600l527 0c36,62 101,100 173,100 110,0 200,-90 200,-200 0,-110 -90,-200 -200,-200 -72,0 -138,38 -173,100l-527 0c-55,0 -100,45 -100,100 0,55 45,100 100,100zm0 -600l527 0c36,62 101,100 173,100 110,0 200,-90 200,-200 0,-110 -90,-200 -200,-200 -72,0 -138,38 -173,100l-527 0c-55,0 -100,45 -100,100 0,55 45,100 100,100zm0 -600l527 0c35,62 101,100 173,100 110,0 200,-90 200,-200 0,-110 -90,-200 -200,-200 -72,0 -137,38 -173,100l-527 0c-55,0 -100,45 -100,100 0,55 45,100 100,100zm0 -600l527 0c36,62 101,100 173,100 110,0 200,-90 200,-200 0,-110 -90,-200 -200,-200 -72,0 -138,38 -173,100l-527 0c-55,0 -100,45 -100,100 0,55 45,100 100,100zm0 3600l527 0c36,62 101,100 173,100 110,0 200,-90 200,-200 0,-110 -90,-200 -200,-200 -72,0 -138,38 -173,100l-527 0c-55,0 -100,45 -100,100 0,55 45,100 100,100z"/>
</svg>