<?xml version="1.0" encoding="UTF-8"?>
<!DOCTYPE svg PUBLIC "-//W3C//DTD SVG 1.1//EN" "http://www.w3.org/Graphics/SVG/1.1/DTD/svg11.dtd">
<svg xmlns="http://www.w3.org/2000/svg" xml:space="preserve" width="580px" height="580px" shape-rendering="geometricPrecision" text-rendering="geometricPrecision" image-rendering="optimizeQuality" fill-rule="nonzero" clip-rule="nonzero" viewBox="0 0 5800 5800" xmlns:xlink="http://www.w3.org/1999/xlink">
	<title>history icon</title>
	<desc>history icon from the IconExperience.com I-Collection. Copyright by INCORS GmbH (www.incors.com).</desc>
		<path id="curve29" d="M1900 4300l0 -600c68,0 134,-4 200,-11l0 611 -200 0zm1755 -2800c449,0 897,0 1345,0 277,0 500,223 500,500 0,277 -223,500 -500,500l0 -200c166,0 300,-134 300,-300 0,-166 -134,-300 -300,-300 -166,0 -300,134 -300,300l0 3000c0,277 -223,500 -500,500l-2600 0c-277,0 -500,-223 -500,-500 0,-277 223,-500 500,-500l2300 0c82,0 145,20 174,79 30,58 13,125 -69,208 -56,57 -87,132 -87,212 0,163 113,301 282,301 166,0 300,-134 300,-300l0 -3000c0,-113 37,-217 100,-300l-911 0c-8,-68 -19,-134 -34,-200zm-2055 3800l2212 0c-59,-84 -94,-189 -94,-301 0,-108 36,-213 100,-299l-2218 0c-166,0 -300,134 -300,300 0,166 134,300 300,300z"/>
	<path id="curve28" d="M1900 1627c40,0 77,9 111,24l367 -367 142 141 -369 369c14,32 22,68 22,106 0,151 -122,273 -273,273 -151,0 -273,-122 -273,-273 0,-40 9,-77 24,-111l-637 -636 142 -142 638 638c32,-14 68,-22 106,-22zm0 -1327c884,0 1600,716 1600,1600 0,884 -716,1600 -1600,1600 -884,0 -1600,-716 -1600,-1600 0,-884 716,-1600 1600,-1600zm0 200c-773,0 -1400,627 -1400,1400 0,773 627,1400 1400,1400 773,0 1400,-627 1400,-1400 0,-773 -627,-1400 -1400,-1400z"/>
</svg>