<?xml version="1.0" encoding="UTF-8"?>
<!DOCTYPE svg PUBLIC "-//W3C//DTD SVG 1.1//EN" "http://www.w3.org/Graphics/SVG/1.1/DTD/svg11.dtd">
<svg xmlns="http://www.w3.org/2000/svg" xml:space="preserve" width="580px" height="580px" shape-rendering="geometricPrecision" text-rendering="geometricPrecision" image-rendering="optimizeQuality" fill-rule="nonzero" clip-rule="nonzero" viewBox="0 0 5800 5800" xmlns:xlink="http://www.w3.org/1999/xlink">
	<title>history icon</title>
	<desc>history icon from the IconExperience.com I-Collection. Copyright by INCORS GmbH (www.incors.com).</desc>
		<path id="curve28"  d="M1600 5500c-277,0 -500,-223 -500,-500 0,-277 223,-500 500,-500l2300 0c82,0 145,20 174,79 30,58 13,125 -69,208 -56,57 -87,132 -87,212 0,279 230,508 482,501l-2800 0zm2055 -4000c119,0 1342,-2 1345,0 277,0 500,223 500,500 0,277 -223,500 -500,500l0 -200c166,0 300,-134 300,-300 0,-265 -323,-402 -512,-212 -55,54 -88,129 -88,212l-1 3000c0,166 -134,300 -299,300 -163,0 -282,-145 -282,-301 0,-28 10,-52 29,-72 119,-119 187,-277 106,-438 -69,-138 -206,-189 -353,-189l-2000 0 0 -600c994,0 1800,-806 1800,-1800 0,-137 -15,-271 -45,-400zm-1755 -1200c884,0 1600,716 1600,1600 0,884 -716,1600 -1600,1600 -884,0 -1600,-716 -1600,-1600 0,-884 716,-1600 1600,-1600zm-744 711l-142 142 637 636c-15,34 -24,71 -24,111 0,151 122,273 273,273 151,0 273,-122 273,-273 0,-38 -8,-74 -22,-106l369 -369 -142 -141 -367 367c-68,-31 -148,-31 -217,-2l-638 -638z"/>
</svg>