<?xml version="1.0" encoding="UTF-8"?>
<!DOCTYPE svg PUBLIC "-//W3C//DTD SVG 1.1//EN" "http://www.w3.org/Graphics/SVG/1.1/DTD/svg11.dtd">
<svg xmlns="http://www.w3.org/2000/svg" xml:space="preserve" width="580px" height="580px" shape-rendering="geometricPrecision" text-rendering="geometricPrecision" image-rendering="optimizeQuality" fill-rule="nonzero" clip-rule="nonzero" viewBox="0 0 5800 5800" xmlns:xlink="http://www.w3.org/1999/xlink">
	<title>hockey_stick icon</title>
	<desc>hockey_stick icon from the IconExperience.com I-Collection. Copyright by INCORS GmbH (www.incors.com).</desc>
	<path id="curve0" d="M1779 5499c-106,0 -1273,1 -1273,1 -143,0 -241,-147 -184,-279l136 -318c80,-186 257,-303 460,-303 203,0 1886,0 1886,0 67,0 138,14 171,-58l1916 -4113c48,-101 167,-142 266,-97l181 85c99,46 143,165 97,265l-2116 4529c-84,179 -255,289 -453,289l-1087 -1zm-990 -199l254 -501 -125 1c-124,0 -227,67 -276,181l-137 319 284 0zm1914 -501l-255 501 418 0c120,0 221,-64 272,-173l2116 -4529 -181 -84 0 -1 0 0 -1 0c1,0 1,0 0,1l-1916 4112c-49,107 -154,174 -272,174l-181 -1zm2369 -4286l0 0 0 0 0 0c0,0 0,0 0,0zm-4060 4787l1213 0 254 -500 -1212 0 -255 500z"/>
</svg>