<?xml version="1.0" encoding="UTF-8"?>
<!DOCTYPE svg PUBLIC "-//W3C//DTD SVG 1.1//EN" "http://www.w3.org/Graphics/SVG/1.1/DTD/svg11.dtd">
<svg xmlns="http://www.w3.org/2000/svg" xml:space="preserve" width="580px" height="580px" shape-rendering="geometricPrecision" text-rendering="geometricPrecision" image-rendering="optimizeQuality" fill-rule="nonzero" clip-rule="nonzero" viewBox="0 0 5800 5800" xmlns:xlink="http://www.w3.org/1999/xlink">
	<title>hockey_stick icon</title>
	<desc>hockey_stick icon from the IconExperience.com I-Collection. Copyright by INCORS GmbH (www.incors.com).</desc>
	<path id="curve0"  d="M2975 4542l1916 -4113c47,-100 166,-143 266,-97l181 85c99,46 143,165 97,265l-2116 4529c-84,179 -255,289 -453,289l-519 0 457 -900 80 0c42,0 73,-20 91,-58zm-851 958l-1213 -1 457 -899 1212 0 -456 900zm-1436 -1l-182 1c-143,0 -241,-147 -184,-279l136 -318c80,-186 257,-303 460,-303l226 0 -456 899z"/>
</svg>