<?xml version="1.0" encoding="UTF-8"?>
<!DOCTYPE svg PUBLIC "-//W3C//DTD SVG 1.1//EN" "http://www.w3.org/Graphics/SVG/1.1/DTD/svg11.dtd">
<svg xmlns="http://www.w3.org/2000/svg" xml:space="preserve" width="580px" height="580px" shape-rendering="geometricPrecision" text-rendering="geometricPrecision" image-rendering="optimizeQuality" fill-rule="nonzero" clip-rule="nonzero" viewBox="0 0 5800 5800" xmlns:xlink="http://www.w3.org/1999/xlink">
	<title>hockey_puck icon</title>
	<desc>hockey_puck icon from the IconExperience.com I-Collection. Copyright by INCORS GmbH (www.incors.com).</desc>
	<path id="curve0"  d="M4705 1400c491,197 795,479 795,800 0,321 -304,603 -795,800 -1003,401 -2607,401 -3610,0 -491,-197 -795,-479 -795,-800 0,-321 304,-603 795,-800 1003,-401 2607,-401 3610,0zm795 1311l0 1089c0,321 -304,603 -795,800 -1003,401 -2607,401 -3610,0 -491,-197 -795,-479 -795,-800l0 -1089c186,219 471,374 721,474 1051,421 2707,421 3758,0 250,-100 535,-255 721,-474z"/>
</svg>