<?xml version="1.0" encoding="UTF-8"?>
<!DOCTYPE svg PUBLIC "-//W3C//DTD SVG 1.1//EN" "http://www.w3.org/Graphics/SVG/1.1/DTD/svg11.dtd">
<svg xmlns="http://www.w3.org/2000/svg" xml:space="preserve" width="580px" height="580px" shape-rendering="geometricPrecision" text-rendering="geometricPrecision" image-rendering="optimizeQuality" fill-rule="nonzero" clip-rule="nonzero" viewBox="0 0 5800 5800" xmlns:xlink="http://www.w3.org/1999/xlink">
	<title>hockey_puck icon</title>
	<desc>hockey_puck icon from the IconExperience.com I-Collection. Copyright by INCORS GmbH (www.incors.com).</desc>
	<path id="curve0"  d="M5500 3800c0,321 -304,603 -795,800 -464,185 -1102,300 -1805,300 -703,0 -1341,-115 -1805,-300 -491,-197 -795,-479 -795,-800 0,-533 0,-1067 0,-1600 0,-321 304,-603 795,-800 464,-185 1102,-300 1805,-300 703,0 1341,115 1805,300 491,197 795,479 795,800 0,134 -1,1600 0,1600zm-563 -2065c41,68 63,140 63,215 0,253 -249,473 -651,624 -373,139 -885,226 -1449,226 -564,0 -1076,-87 -1449,-226 -402,-151 -651,-371 -651,-624 0,-75 22,-147 63,-215 -230,138 -363,298 -363,465 0,231 256,449 669,615 441,176 1053,285 1731,285 678,0 1290,-109 1731,-285 413,-166 669,-384 669,-615 0,-167 -133,-327 -363,-465zm-4437 898l0 1167c0,231 256,449 669,615 441,176 1053,285 1731,285 678,0 1290,-109 1731,-285 413,-166 669,-384 669,-615l0 -1167c-137,141 -341,265 -595,367 -464,185 -1102,300 -1805,300 -703,0 -1341,-115 -1805,-300 -254,-102 -458,-226 -595,-367zm3779 -1120c-351,-132 -838,-213 -1379,-213 -541,0 -1028,81 -1379,213 -322,121 -521,276 -521,437 0,161 199,316 521,437 351,132 838,213 1379,213 541,0 1028,-81 1379,-213 322,-121 521,-276 521,-437 0,-161 -199,-316 -521,-437z"/>
</svg>