<?xml version="1.0" encoding="UTF-8"?>
<!DOCTYPE svg PUBLIC "-//W3C//DTD SVG 1.1//EN" "http://www.w3.org/Graphics/SVG/1.1/DTD/svg11.dtd">
<svg xmlns="http://www.w3.org/2000/svg" xml:space="preserve" width="580px" height="580px" shape-rendering="geometricPrecision" text-rendering="geometricPrecision" image-rendering="optimizeQuality" fill-rule="nonzero" clip-rule="nonzero" viewBox="0 0 5800 5800" xmlns:xlink="http://www.w3.org/1999/xlink">
	<title>hole_punch icon</title>
	<desc>hole_punch icon from the IconExperience.com I-Collection. Copyright by INCORS GmbH (www.incors.com).</desc>
		<path id="curve28"  d="M5064 4020c-75,51 -166,80 -264,80l-1300 0 0 200 1456 0c128,0 229,82 281,196l263 583 0 21 0 200 -5200 0 0 -221 263 -583c52,-114 153,-196 281,-196l202 0 516 -879c138,-233 334,-428 569,-563 114,-65 238,-117 368,-151 53,54 103,113 149,171 -150,28 -290,81 -418,154 -205,117 -376,287 -496,490l-457 778 2023 0 0 -400 1276 0 488 120zm-4332 -2289l1544 380c360,89 590,396 806,673 143,184 323,416 537,469l1545 380c120,30 136,-98 136,-186l0 -543c0,-408 -214,-688 -611,-785l-3089 -761c-113,-28 -232,-29 -346,-7 -186,35 -424,154 -527,318 -23,36 -39,51 5,62zm1497 574l-1545 -380c-24,-6 -55,-16 -83,-31 -87,-47 -117,-126 -93,-220 71,-272 457,-472 709,-519 142,-27 289,-26 431,9l3089 761c486,120 763,479 763,979l0 543c0,155 -51,329 -217,378 -53,16 -113,15 -167,2l-1544 -381c-282,-69 -486,-332 -647,-540 -181,-233 -395,-527 -696,-601zm2727 2195l-4112 0c-49,0 -80,36 -99,78l-235 522 4780 0 -235 -522c-19,-42 -50,-78 -99,-78z"/>
</svg>