<?xml version="1.0" encoding="UTF-8"?>
<!DOCTYPE svg PUBLIC "-//W3C//DTD SVG 1.1//EN" "http://www.w3.org/Graphics/SVG/1.1/DTD/svg11.dtd">
<svg xmlns="http://www.w3.org/2000/svg" xml:space="preserve" width="580px" height="580px" shape-rendering="geometricPrecision" text-rendering="geometricPrecision" image-rendering="optimizeQuality" fill-rule="nonzero" clip-rule="nonzero" viewBox="0 0 5800 5800" xmlns:xlink="http://www.w3.org/1999/xlink">
	<title>hole_punch icon</title>
	<desc>hole_punch icon from the IconExperience.com I-Collection. Copyright by INCORS GmbH (www.incors.com).</desc>
		<path id="curve29"  d="M844 4300l202 0 516 -879c207,-351 544,-609 937,-714 53,54 103,113 149,171 -382,72 -716,308 -914,644l-457 778 2023 0 0 -400 1276 0 488 120c-75,51 -166,80 -264,80l-1300 0 0 200 1456 0c128,0 229,82 281,196l263 583 0 221 -5200 0 0 -221 263 -583c52,-114 153,-196 281,-196z"/>
	<path id="curve28"  d="M2229 2305l-1545 -380c-126,-32 -212,-111 -176,-251 11,-42 33,-82 50,-110 30,-47 66,-90 106,-129 44,-43 93,-81 142,-113 123,-82 264,-140 411,-167 142,-27 289,-26 431,9l3089 761c486,120 763,479 763,979l0 543c0,192 -82,389 -300,390 -29,0 -57,-4 -84,-10l-1544 -381c-279,-68 -480,-324 -647,-539 -161,-207 -340,-452 -579,-561 -38,-17 -77,-31 -117,-41z"/>
</svg>