<?xml version="1.0" encoding="UTF-8"?>
<!DOCTYPE svg PUBLIC "-//W3C//DTD SVG 1.1//EN" "http://www.w3.org/Graphics/SVG/1.1/DTD/svg11.dtd">
<svg xmlns="http://www.w3.org/2000/svg" xml:space="preserve" width="580px" height="580px" shape-rendering="geometricPrecision" text-rendering="geometricPrecision" image-rendering="optimizeQuality" fill-rule="nonzero" clip-rule="nonzero" viewBox="0 0 5800 5800" xmlns:xlink="http://www.w3.org/1999/xlink">
	<title>holmes icon</title>
	<desc>holmes icon from the IconExperience.com I-Collection. Copyright by INCORS GmbH (www.incors.com).</desc>
		<path id="curve28"  d="M4700 3700c0,300 -300,500 -500,500 -460,0 -699,-373 -700,-800 0,-225 -160,-300 -400,-300 -55,0 -100,-45 -100,-100 0,-55 45,-100 100,-100 360,0 600,125 600,500 0,100 0,200 100,200 100,0 100,-100 100,-200 0,-200 800,-200 800,0 0,137 0,100 0,300zm-1035 -2906c137,209 223,455 234,663 97,24 234,67 283,159 2,0 20,1 20,0 -52,-320 -287,-626 -537,-822zm30 624c-22,-201 -124,-437 -275,-621 -141,-173 -323,-297 -520,-297 -197,0 -379,124 -520,297 -148,180 -248,409 -274,607 214,-25 468,-39 722,-39 311,-1 624,17 867,53zm-1792 17c16,-225 118,-488 274,-703 -273,184 -495,468 -563,793 83,-47 195,-72 289,-90zm2281 375c-71,246 -373,290 -732,290 -183,0 -365,-11 -548,-11 -169,0 -339,7 -509,7 -417,0 -803,-42 -881,-303 -70,-33 -114,-103 -114,-181 0,-316 278,-727 511,-927 176,-151 384,-266 605,-329 -11,-18 -16,-37 -16,-56 0,-110 179,-200 400,-200 221,0 400,90 400,200 0,22 -7,42 -20,62 207,66 402,182 570,326 251,215 525,589 551,928 0,98 -71,181 -168,197 -25,4 -31,9 -49,-3zm-2432 -130c-22,9 -40,18 -51,26 20,165 343,190 694,190 170,0 340,-7 509,-7 183,0 365,11 548,11 291,0 532,-28 547,-194 -14,-10 -36,-21 -65,-31 -208,-75 -657,-112 -1106,-111 -444,1 -881,40 -1076,116zm3046 3220l-98 0 0 113c55,-35 89,-72 98,-113zm-621 -2755c9,90 -3,183 -35,266 -37,98 -101,185 -193,243 -36,134 -67,267 -126,393 -41,-80 -98,-145 -169,-198 -143,-106 -333,-149 -554,-149 -166,0 -300,134 -300,300 0,166 134,300 300,300 114,0 178,-10 201,105 0,128 18,245 49,351 -97,32 -203,53 -311,63l179 239 190 -152c30,62 65,119 106,170l-252 202c-43,34 -105,27 -140,-16l-222 -296 -220 294c-33,44 -96,53 -140,20 -2,-2 -4,-4 -6,-5l-496 -397c-5,-4 -9,-8 -13,-12 55,123 167,226 290,340 255,236 552,510 582,1094l3 0 3 0c30,-584 327,-858 582,-1094 27,-25 53,-49 78,-73 65,68 138,124 219,167l-105 0c-18,17 -37,35 -56,53 -40,36 -81,74 -121,114l0 233 400 0 0 -349c63,22 130,37 200,44l0 305 400 0 0 -381c70,-36 137,-84 195,-142 18,-18 35,-37 51,-57 67,86 121,183 161,285 62,153 93,318 93,475 0,225 -254,370 -605,461 -465,121 -1113,159 -1495,159 -382,0 -1030,-38 -1495,-159 -351,-91 -605,-236 -605,-461 0,-157 31,-322 93,-476 58,-145 143,-280 254,-388 128,-124 404,-214 590,-270 122,-37 208,-72 313,-133 80,-45 69,-158 59,-273 -3,-33 -6,-67 -8,-100 -137,-153 -191,-360 -242,-556 -1,-6 -3,-14 -8,-30 -92,-58 -156,-145 -193,-243 -28,-73 -40,-153 -37,-232 233,110 546,117 774,117 170,0 340,-7 509,-7 183,0 365,11 548,11 236,0 528,-17 725,-155zm-3162 2555l85 0 0 -274c-8,17 -15,34 -22,52 -29,72 -50,147 -63,222zm285 0l400 0 0 -400 -400 0 0 400zm600 0l400 0 0 -233c-40,-40 -81,-78 -121,-114 -19,-18 -38,-36 -56,-53l-223 0 0 400zm708 200l-108 0 0 389c68,3 134,6 197,8 -10,-155 -42,-285 -89,-397zm-308 0l-400 0 0 333c133,18 269,32 400,43l0 -376zm-600 0l-400 0 0 203c48,16 100,31 155,45 77,20 159,38 245,53l0 -301zm-600 0l-98 0c9,41 43,78 98,113l0 -113zm268 -800l332 0 0 -134c-107,35 -240,82 -332,134zm532 0l34 0c-12,-15 -23,-31 -34,-47l0 47zm300 -347l382 305 179 -239c-181,-16 -356,-64 -493,-143 -16,27 -39,53 -68,77zm2300 1350l0 -203 -400 0 0 301c86,-15 168,-33 245,-53 55,-14 107,-29 155,-45zm-600 130l0 -333 -400 0 0 376c131,-11 267,-25 400,-43zm-600 56l0 -389 -108 0c-47,112 -79,242 -89,397 63,-2 129,-5 197,-8zm1400 -863l0 274 85 0c-13,-75 -34,-150 -63,-222 -7,-17 -14,-35 -22,-52z"/>
</svg>