<?xml version="1.0" encoding="UTF-8"?>
<!DOCTYPE svg PUBLIC "-//W3C//DTD SVG 1.1//EN" "http://www.w3.org/Graphics/SVG/1.1/DTD/svg11.dtd">
<svg xmlns="http://www.w3.org/2000/svg" xml:space="preserve" width="580px" height="580px" shape-rendering="geometricPrecision" text-rendering="geometricPrecision" image-rendering="optimizeQuality" fill-rule="nonzero" clip-rule="nonzero" viewBox="0 0 5800 5800" xmlns:xlink="http://www.w3.org/1999/xlink">
	<title>holmes icon</title>
	<desc>holmes icon from the IconExperience.com I-Collection. Copyright by INCORS GmbH (www.incors.com).</desc>
		<path id="curve28" d="M4798 4900l-98 0 0 113c55,-35 89,-72 98,-113zm-3783 -200l85 0 0 -274c-8,17 -15,34 -22,52 -29,72 -50,147 -63,222zm353 -600l332 0 0 -134c-33,11 -66,23 -99,35 -75,27 -162,59 -233,99zm1172 180l-502 -402c-5,-4 -9,-8 -13,-12 55,123 167,226 290,340 255,236 552,510 584,1094l4 0c30,-584 327,-858 582,-1094 27,-25 53,-49 78,-73 65,68 138,124 219,167l-105 0c-59,56 -118,111 -177,167l0 56 0 177 400 0 0 -349c63,22 130,37 200,44l0 305 400 0 0 -381c70,-36 137,-84 195,-142 18,-18 35,-37 51,-57 67,86 121,183 161,285 62,153 93,318 93,475 0,225 -254,370 -605,461 -465,121 -1113,159 -1495,159 -382,0 -1030,-38 -1495,-159 -351,-91 -605,-236 -605,-461 0,-157 31,-322 93,-476 58,-145 143,-280 254,-388 103,-99 260,-157 386,-203 68,-25 135,-46 204,-67 127,-38 198,-66 313,-133 80,-45 69,-158 59,-273 -3,-33 -6,-67 -8,-100 -137,-153 -191,-360 -242,-556 -1,-6 -3,-14 -8,-30 -92,-58 -156,-145 -193,-243 -41,-109 -48,-234 -22,-346 -9,-43 -17,-84 -23,-125 -47,-39 -81,-87 -99,-147 -25,-12 -46,-28 -64,-49 -38,-42 -56,-100 -49,-156 42,-349 237,-670 510,-903 176,-151 384,-266 605,-329 -11,-18 -16,-37 -16,-56 0,-110 179,-200 400,-200 221,0 400,90 400,200 0,22 -7,42 -20,62 207,66 402,182 570,326 287,246 497,578 548,896 2,13 3,23 3,32 0,48 -17,93 -48,130 -29,35 -71,59 -120,67 -11,2 -22,3 -33,3 -6,80 -17,164 -36,249 27,113 20,237 -22,346 -37,98 -101,185 -193,243 -5,17 -7,27 -10,37 -31,119 -63,242 -116,356 -36,-70 -84,-128 -143,-177 26,-74 46,-153 66,-229 9,-36 18,-71 21,-79 8,-30 29,-53 56,-65 63,-33 108,-90 133,-156 29,-78 32,-168 9,-247 -5,-18 -5,-35 -1,-52l2 -9c-134,53 -316,67 -514,67 -77,0 -175,-3 -274,-6 -86,-2 -172,-5 -274,-5 -97,0 -169,2 -242,3 0,1 -242,4 -267,4 -204,0 -401,-10 -558,-51 4,18 2,36 -3,53 -22,78 -18,166 11,243 25,67 71,125 136,157 27,14 45,39 52,65l19 71c48,183 99,377 218,495 20,19 30,45 30,71 0,0 6,112 7,122 5,50 9,99 9,147 10,7 20,14 30,20 138,91 345,136 554,136 145,0 289,-22 410,-65 8,69 22,134 40,196 -97,32 -203,53 -311,63l179 239 190 -152c30,62 65,119 106,170l-252 202c-43,34 -105,27 -140,-16l-222 -296 -220 294c-33,44 -96,53 -140,20zm157 1017c-2,-35 -6,-69 -10,-101 -15,-112 -43,-209 -79,-296l-108 0 0 389c68,3 134,6 197,8zm-397 -21l0 -376 -400 0 0 333c133,18 269,32 400,43zm-600 -75l0 -301 -400 0 0 203c48,16 100,31 155,45 77,20 159,38 245,53zm-600 -188l0 -113 -98 0c9,41 43,78 98,113zm3400 90l0 -203 -400 0 0 301c86,-15 168,-33 245,-53 55,-14 107,-29 155,-45zm-600 130l0 -333 -400 0 0 376c131,-11 267,-25 400,-43zm-600 56l0 -389 -108 0c-37,88 -65,188 -80,303 -4,30 -7,61 -9,94 63,-2 129,-5 197,-8zm1400 -863l0 274 85 0c-13,-75 -34,-150 -63,-222 -7,-17 -14,-35 -22,-52zm-2432 -750c-16,27 -39,53 -68,77l382 305 179 -239c-181,-16 -356,-64 -493,-143zm1908 -2060c3,0 26,1 26,0 -44,-272 -229,-560 -481,-777 -19,-15 -37,-30 -56,-45 139,212 225,461 234,671 136,38 235,89 277,151zm-1999 -883c-47,31 -93,66 -136,103 -218,187 -378,435 -431,705 71,-41 171,-75 292,-101 16,-226 118,-491 275,-707zm-71 672c72,-9 147,-17 226,-23 165,-12 342,-18 518,-18 176,0 353,6 518,18 117,9 228,21 327,38 -2,-20 -5,-40 -8,-60 -34,-188 -130,-396 -267,-563 -116,-143 -261,-252 -419,-286l-101 -11 -1 0 -1 0 -2 0 -1 0 -1 0 0 0c-24,0 -47,2 -70,6 -168,27 -321,141 -444,291 -138,168 -234,379 -267,567 -3,14 -5,28 -7,41zm240 176c-363,27 -646,66 -646,108 0,181 333,207 695,207 265,0 523,-9 789,-1 85,3 169,5 268,5 301,0 548,-30 548,-211 0,-42 -283,-81 -646,-108 -157,-11 -330,-17 -504,-17 -174,0 -347,6 -504,17zm1154 1820c0,-215 -145,-293 -365,-300 -12,-1 -23,-1 -35,-1 -55,0 -100,-45 -100,-100 0,-55 45,-100 100,-100 360,0 600,125 600,500 0,100 0,200 100,200 100,0 100,-100 100,-200 0,-200 800,-200 800,0 0,137 0,100 0,300 0,300 -300,500 -500,500 -399,0 -699,-299 -700,-799zm-1600 652l0 47 34 0c-12,-15 -23,-31 -34,-47zm223 247l-223 0 0 400 400 0 0 -200 0 -33c-13,-13 -26,-26 -39,-39 -46,-43 -92,-85 -138,-128zm-823 400l400 0 0 -400 -400 0 0 400z"/>
</svg>