<?xml version="1.0" encoding="UTF-8"?>
<!DOCTYPE svg PUBLIC "-//W3C//DTD SVG 1.1//EN" "http://www.w3.org/Graphics/SVG/1.1/DTD/svg11.dtd">
<svg xmlns="http://www.w3.org/2000/svg" xml:space="preserve" width="580px" height="580px" shape-rendering="geometricPrecision" text-rendering="geometricPrecision" image-rendering="optimizeQuality" fill-rule="nonzero" clip-rule="nonzero" viewBox="0 0 5800 5800" xmlns:xlink="http://www.w3.org/1999/xlink">
	<title>home_lock icon</title>
	<desc>home_lock icon from the IconExperience.com I-Collection. Copyright by INCORS GmbH (www.incors.com).</desc>
		<path id="curve28"  d="M2900 3800c-82,0 -150,68 -150,150l0 450c100,0 200,0 300,0l0 -450c0,-82 -68,-150 -150,-150zm-2871 -571l2871 -2870 2871 2870 -142 142 -529 -530 0 2659 -4400 0 0 -2659 -529 530 -142 -142zm3871 1671l0 -1600 -200 0 0 -400c0,-442 -358,-800 -800,-800 -442,0 -800,358 -800,800l0 400 -200 0 0 1600 2000 0zm-1600 -1600l0 -400c0,-331 269,-600 600,-600 331,0 600,269 600,600l0 400 -1200 0z"/>
</svg>