<?xml version="1.0" encoding="UTF-8"?>
<!DOCTYPE svg PUBLIC "-//W3C//DTD SVG 1.1//EN" "http://www.w3.org/Graphics/SVG/1.1/DTD/svg11.dtd">
<svg xmlns="http://www.w3.org/2000/svg" xml:space="preserve" width="580px" height="580px" shape-rendering="geometricPrecision" text-rendering="geometricPrecision" image-rendering="optimizeQuality" fill-rule="nonzero" clip-rule="nonzero" viewBox="0 0 5800 5800" xmlns:xlink="http://www.w3.org/1999/xlink">
	<title>home icon</title>
	<desc>home icon from the IconExperience.com I-Collection. Copyright by INCORS GmbH (www.incors.com).</desc>
		<path id="curve28"  d="M4300 3100l-1000 0 0 2400 1000 0 0 -2400zm-3000 1000l1400 0 0 -1200 -1400 0 0 1200zm-600 1400l0 -2659 -529 530 -142 -142 2871 -2870 2871 2870 -142 142 -529 -530 0 2659 -600 0 0 -2600 -1400 0 0 2600 -2400 0zm800 -2400l1000 0 0 800 -1000 0 0 -800z"/>
</svg>