<?xml version="1.0" encoding="UTF-8"?>
<!DOCTYPE svg PUBLIC "-//W3C//DTD SVG 1.1//EN" "http://www.w3.org/Graphics/SVG/1.1/DTD/svg11.dtd">
<svg xmlns="http://www.w3.org/2000/svg" xml:space="preserve" width="580px" height="580px" shape-rendering="geometricPrecision" text-rendering="geometricPrecision" image-rendering="optimizeQuality" fill-rule="nonzero" clip-rule="nonzero" viewBox="0 0 5800 5800" xmlns:xlink="http://www.w3.org/1999/xlink">
	<title>home_water icon</title>
	<desc>home_water icon from the IconExperience.com I-Collection. Copyright by INCORS GmbH (www.incors.com).</desc>
		<path id="curve29" d="M5100 2841l0 1002 -200 -360 0 -842 -2000 -2000 -2000 2000 0 848 -200 360 0 -1008 -529 530 -142 -142 2871 -2870 2871 2870 -142 142 -529 -530zm-800 1241l0 -982 -1000 0 0 747c-49,90 -106,155 -200,202l0 -1149 1400 0 0 1078c-57,52 -125,87 -200,104zm-1600 -1182l0 1150c-93,-47 -150,-112 -200,-202l0 -748 -1000 0 0 800 468 0c-84,123 -217,193 -366,193 -113,0 -219,-41 -302,-118l0 -1075 1400 0z"/>
	<path id="curve28" d="M303 4293c235,0 449,-126 563,-332l87 -157 87 157c114,205 328,332 562,332 234,0 446,-124 561,-328l87 -156 87 156c114,205 328,332 563,332 235,0 451,-128 564,-334l87 -159 88 158c113,205 327,331 562,331 234,0 448,-126 562,-332l87 -157 88 157c113,206 327,332 562,332l0 200c-252,0 -490,-113 -650,-307 -160,194 -397,307 -649,307 -252,0 -489,-113 -649,-306 -160,196 -399,310 -652,310 -253,0 -490,-113 -651,-308 -160,192 -396,304 -647,304 -251,0 -489,-113 -649,-307 -160,194 -398,307 -650,307l0 -200z"/>
</svg>