<?xml version="1.0" encoding="UTF-8"?>
<!DOCTYPE svg PUBLIC "-//W3C//DTD SVG 1.1//EN" "http://www.w3.org/Graphics/SVG/1.1/DTD/svg11.dtd">
<svg xmlns="http://www.w3.org/2000/svg" xml:space="preserve" width="580px" height="580px" shape-rendering="geometricPrecision" text-rendering="geometricPrecision" image-rendering="optimizeQuality" fill-rule="nonzero" clip-rule="nonzero" viewBox="0 0 5800 5800" xmlns:xlink="http://www.w3.org/1999/xlink">
	<title>home_fire icon</title>
	<desc>home_fire icon from the IconExperience.com I-Collection. Copyright by INCORS GmbH (www.incors.com).</desc>
		<path id="curve29"  d="M5100 2841l0 2659 -4400 0 0 -2659 -529 530 -142 -142 2871 -2870 2871 2870 -142 142 -529 -530zm-4200 -200l0 2659 4000 0 0 -2659 -2000 -2000 -2000 2000z"/>
	<path id="curve28"  d="M2946 1211c446,230 377,555 313,863 -8,38 -16,77 -22,107 -42,232 28,401 133,487 45,37 96,58 144,60 47,3 92,-10 131,-42 89,-72 146,-235 112,-511l-36 -299 208 219c137,144 261,379 352,631 94,262 154,546 154,767 0,395 -153,837 -457,1157 -255,268 -614,450 -1078,450 -464,0 -823,-182 -1078,-450 -304,-320 -457,-762 -457,-1157 0,-363 95,-626 286,-873l223 -290 -45 363c-17,138 11,274 63,373 25,47 55,85 87,108 23,16 46,24 67,21 20,-3 42,-16 65,-41 100,-102 80,-219 57,-354 -35,-199 -74,-430 127,-733 94,-141 209,-217 314,-287 144,-94 262,-172 194,-457l-51 -211 194 99zm118 822c37,-176 75,-359 -38,-508 -10,226 -148,317 -306,422 -89,59 -187,123 -258,230 -158,237 -126,426 -97,590 32,188 60,351 -111,527 -55,56 -115,88 -176,98 -77,12 -151,-9 -216,-57 -57,-40 -107,-101 -146,-176 -25,-47 -46,-100 -61,-156 -60,141 -90,300 -90,490 0,349 134,738 401,1019 220,231 531,388 934,388 403,0 714,-157 934,-388 267,-281 401,-670 401,-1019 0,-200 -55,-459 -141,-700 -41,-112 -88,-219 -139,-315 -26,172 -96,291 -185,363 -79,64 -172,92 -266,87 -92,-6 -183,-42 -260,-105 -155,-127 -260,-363 -203,-677 8,-43 15,-78 23,-113zm-140 324c0,382 219,613 438,844 194,204 388,409 465,718 11,40 16,82 16,125 0,146 -58,310 -171,450 -111,138 -277,254 -494,308 -85,21 -178,33 -278,33 -170,0 -328,-37 -464,-101 -150,-71 -274,-176 -361,-304 -88,-129 -138,-280 -138,-442 0,-119 27,-244 86,-369l108 -226 77 238c37,111 96,194 164,250 50,40 104,66 157,78 50,12 98,11 140,-3 33,-11 61,-29 82,-55 91,-112 9,-295 -82,-497 -157,-348 -334,-742 89,-1121l166 -149 0 223zm294 981c-198,-209 -396,-417 -466,-729 -116,235 -3,486 99,713 118,261 224,497 55,705 -47,57 -107,97 -175,119 -76,24 -161,27 -246,8 -82,-19 -164,-58 -238,-119 -38,-31 -74,-67 -107,-109 -2,21 -3,42 -3,62 0,121 37,234 103,330 67,98 163,180 281,236 110,51 239,81 379,81 84,0 160,-10 230,-27 171,-43 300,-133 386,-239 84,-104 127,-222 127,-325 0,-28 -3,-54 -9,-77 -65,-258 -241,-444 -416,-629z"/>
</svg>