<?xml version="1.0" encoding="UTF-8"?>
<!DOCTYPE svg PUBLIC "-//W3C//DTD SVG 1.1//EN" "http://www.w3.org/Graphics/SVG/1.1/DTD/svg11.dtd">
<svg xmlns="http://www.w3.org/2000/svg" xml:space="preserve" width="580px" height="580px" shape-rendering="geometricPrecision" text-rendering="geometricPrecision" image-rendering="optimizeQuality" fill-rule="nonzero" clip-rule="nonzero" viewBox="0 0 5800 5800" xmlns:xlink="http://www.w3.org/1999/xlink">
	<title>home_fire icon</title>
	<desc>home_fire icon from the IconExperience.com I-Collection. Copyright by INCORS GmbH (www.incors.com).</desc>
		<path id="curve28"  d="M5100 2841l0 2659 -4400 0 0 -2659 -529 530 -142 -142 2871 -2870 2871 2870 -142 142 -529 -530zm-2200 -1541c130,548 -290,474 -522,822 -339,510 92,806 -195,1102 -227,234 -502,-148 -453,-544 -177,229 -265,475 -265,813 0,681 479,1507 1435,1507 956,0 1435,-826 1435,-1507 0,-412 -218,-1056 -479,-1330 120,987 -858,781 -717,0 55,-301 191,-641 -239,-863zm-76 1057c0,755 746,944 907,1586 75,302 -210,792 -831,792 -621,0 -1043,-530 -786,-1073 134,411 549,504 714,302 309,-378 -642,-1035 -4,-1607z"/>
</svg>