<?xml version="1.0" encoding="UTF-8"?>
<!DOCTYPE svg PUBLIC "-//W3C//DTD SVG 1.1//EN" "http://www.w3.org/Graphics/SVG/1.1/DTD/svg11.dtd">
<svg xmlns="http://www.w3.org/2000/svg" xml:space="preserve" width="580px" height="580px" shape-rendering="geometricPrecision" text-rendering="geometricPrecision" image-rendering="optimizeQuality" fill-rule="nonzero" clip-rule="nonzero" viewBox="0 0 5800 5800" xmlns:xlink="http://www.w3.org/1999/xlink">
	<title>home_water icon</title>
	<desc>home_water icon from the IconExperience.com I-Collection. Copyright by INCORS GmbH (www.incors.com).</desc>
		<path id="curve29"  d="M4300 4082l0 -982 -1000 0 0 747c64,-109 97,-243 250,-243 219,-1 207,299 427,428 68,40 145,61 224,61 33,0 67,-4 99,-11zm-2800 -982l1000 0 0 748c-64,-108 -97,-239 -249,-239 -167,-1 -205,178 -284,291l-467 0 0 -800zm-1471 129l2871 -2870 2871 2870 -142 142 -529 -530 0 1003c-64,-109 -98,-240 -250,-240 -193,0 -214,244 -350,372l0 -1076c-467,0 -933,0 -1400,0l0 1149c-62,32 -130,48 -200,48 -70,0 -138,-16 -200,-47l0 -1150c-467,0 -933,0 -1400,0l0 1073c-133,-127 -154,-369 -347,-369 -154,0 -188,136 -253,245l0 -1008 -529 530 -142 -142z"/>
	<path id="curve28"  d="M303 4293c120,0 231,-32 326,-89 174,-102 232,-234 324,-400 92,166 149,297 324,400 95,56 206,89 325,89 119,0 230,-32 325,-87 173,-102 231,-233 323,-397 92,166 149,297 324,399 95,57 206,89 326,89 119,0 231,-33 327,-90 176,-104 232,-235 324,-403 92,166 149,298 324,401 95,56 206,88 326,88 119,0 231,-32 326,-89 174,-102 231,-234 323,-400 92,166 150,298 324,400 95,57 207,89 326,89l0 1207 -5200 0 3 -1207z"/>
</svg>