<?xml version="1.0" encoding="UTF-8"?>
<!DOCTYPE svg PUBLIC "-//W3C//DTD SVG 1.1//EN" "http://www.w3.org/Graphics/SVG/1.1/DTD/svg11.dtd">
<svg xmlns="http://www.w3.org/2000/svg" xml:space="preserve" width="580px" height="580px" shape-rendering="geometricPrecision" text-rendering="geometricPrecision" image-rendering="optimizeQuality" fill-rule="nonzero" clip-rule="nonzero" viewBox="0 0 5800 5800" xmlns:xlink="http://www.w3.org/1999/xlink">
	<title>horse icon</title>
	<desc>horse icon from the IconExperience.com I-Collection. Copyright by INCORS GmbH (www.incors.com).</desc>
	<path id="curve0" d="M2400 3200c0,138 47,205 100,282 92,132 200,287 200,718l0 500c0,71 -42,122 -93,184 -48,58 -107,130 -107,216l400 0 0 200 -600 0 0 -200c0,-156 85,-260 153,-342 26,-32 47,-58 47,-58l0 -500c0,-369 -88,-495 -164,-604 -72,-104 -136,-196 -136,-396l200 0zm-1344 -1318c-33,23 -57,60 -80,97 -55,85 -108,168 -257,201 -116,25 -269,-51 -386,-168 -41,-41 -79,-88 -110,-139 -32,-52 -57,-107 -69,-162 -22,-103 -4,-202 75,-282 7,7 267,-315 301,-360 48,-63 90,-118 196,-236 43,-48 97,-99 150,-149 45,-42 89,-84 124,-122l0 -262 0 -122 637 129c37,15 78,28 121,42 158,51 343,111 513,280 203,204 354,476 480,703 114,205 205,368 249,368l300 0c122,0 210,-18 308,-38 141,-29 302,-62 592,-62 678,0 1300,359 1300,1100l0 1500 -200 0 0 -1500c0,-628 -535,-900 -1100,-900 -273,0 -422,31 -552,57 -110,23 -209,43 -348,43l-300 0c-161,0 -277,-208 -423,-471 -120,-216 -263,-473 -448,-658 -136,-136 -295,-188 -432,-232 -43,-14 -85,-27 -124,-42l-373 -75 0 214c-60,71 -120,130 -187,193 -49,47 -99,94 -139,138 -102,113 -140,164 -185,223 -103,134 -211,252 -318,381 -25,24 -30,60 -21,98 7,32 22,66 43,100 21,35 50,70 82,102 73,73 155,124 201,114 69,-15 100,-64 132,-113 34,-54 68,-108 135,-154l150 -105 26 -18 35 0c267,2 475,4 551,-226l190 62c-120,358 -380,366 -714,364l-125 87zm2044 1618c180,0 384,-44 600,-121 241,-86 495,-212 749,-365l134 -80 16 156c31,299 161,512 261,674 78,127 140,228 140,336l0 500c0,130 -58,218 -117,305l0 0c-42,63 -83,125 -83,195l300 0 0 200 -500 0 0 -200c0,-130 58,-217 117,-305l0 0c41,-63 83,-125 83,-195l0 -500c0,-52 -49,-131 -110,-231 -93,-152 -211,-343 -266,-609 -223,126 -445,232 -657,307 -237,85 -463,133 -667,133l0 -200zm-1411 -1645c228,457 211,849 211,1345 0,120 35,219 75,330 58,163 125,351 125,670l0 500c0,71 -42,122 -93,184 -48,58 -107,131 -107,216l200 0 0 200 -400 0 0 -200c0,-157 85,-260 153,-342 26,-32 47,-58 47,-58l0 -500c0,-285 -61,-456 -114,-604 -45,-128 -86,-242 -86,-396 0,-452 19,-840 -189,-1255l178 -90zm2609 1729c43,254 34,475 1,655 -50,276 -159,463 -228,532 -48,47 -94,93 -124,144 -28,47 -47,105 -47,185l300 0 0 200 -500 0 0 -200c0,-120 30,-211 76,-288 44,-73 98,-127 153,-183 51,-50 132,-196 174,-425 29,-160 37,-358 -1,-588l196 -32z"/>
</svg>