<?xml version="1.0" encoding="UTF-8"?>
<!DOCTYPE svg PUBLIC "-//W3C//DTD SVG 1.1//EN" "http://www.w3.org/Graphics/SVG/1.1/DTD/svg11.dtd">
<svg xmlns="http://www.w3.org/2000/svg" xml:space="preserve" width="580px" height="580px" shape-rendering="geometricPrecision" text-rendering="geometricPrecision" image-rendering="optimizeQuality" fill-rule="nonzero" clip-rule="nonzero" viewBox="0 0 5800 5800" xmlns:xlink="http://www.w3.org/1999/xlink">
	<title>horse icon</title>
	<desc>horse icon from the IconExperience.com I-Collection. Copyright by INCORS GmbH (www.incors.com).</desc>
	<path id="curve0"  d="M1510 1942c63,-26 120,-59 172,-102 117,-97 186,-227 209,-399 -121,348 -379,356 -710,354l-125 87c-33,23 -57,60 -80,97 -55,85 -108,168 -257,201 -116,25 -269,-51 -386,-168 -41,-41 -79,-88 -110,-139 -32,-52 -57,-107 -69,-162 -22,-103 -4,-202 75,-282 184,-206 247,-289 301,-360 48,-63 90,-118 196,-236 86,-95 187,-177 274,-271l0 -384 627 126c44,17 87,31 131,45 158,51 343,111 513,280 203,204 354,476 480,703 114,205 205,368 249,368l300 0c122,0 210,-18 308,-38 141,-29 302,-62 592,-62 346,0 693,95 942,303 217,180 358,443 358,797l0 1500 -102 0c4,166 2,334 2,500 0,71 -42,122 -93,184 -48,58 -107,131 -107,216l0 200c-200,0 -400,0 -600,0l0 -200c0,-130 58,-217 117,-305 41,-63 83,-125 83,-195l0 -500c0,-52 -49,-131 -110,-231 -93,-152 -211,-343 -266,-609 -223,126 -445,232 -657,307 -237,85 -463,133 -667,133 0,334 0,667 0,1000 0,71 -42,122 -93,184 -48,58 -107,131 -107,216l0 200c-200,0 -400,0 -600,0l0 -200c0,-156 85,-260 153,-342 26,-32 47,-58 47,-58l0 -500c0,-369 -88,-495 -164,-604 -60,-87 -114,-164 -131,-303l-4 201c-2,122 23,166 61,230 14,24 38,66 38,476l0 431c-89,108 -200,243 -200,469l0 200 -400 0 0 -200c0,-157 85,-260 153,-342 26,-32 47,-58 47,-58l0 -500c0,-285 -61,-456 -114,-604 -45,-128 -86,-242 -86,-396 0,-585 0,-877 -190,-1258zm3090 2615c-46,103 -95,176 -133,214 -103,103 -171,173 -171,329l4 200c-200,0 -400,0 -600,0l0 -200c0,-213 87,-328 229,-471 51,-50 132,-196 174,-425 28,-154 36,-341 3,-559 65,-29 130,-60 195,-93 65,172 148,307 218,421 45,74 81,122 81,127l0 457z"/>
</svg>