<?xml version="1.0" encoding="UTF-8"?>
<!DOCTYPE svg PUBLIC "-//W3C//DTD SVG 1.1//EN" "http://www.w3.org/Graphics/SVG/1.1/DTD/svg11.dtd">
<svg xmlns="http://www.w3.org/2000/svg" xml:space="preserve" width="580px" height="580px" shape-rendering="geometricPrecision" text-rendering="geometricPrecision" image-rendering="optimizeQuality" fill-rule="nonzero" clip-rule="nonzero" viewBox="0 0 5800 5800" xmlns:xlink="http://www.w3.org/1999/xlink">
	<title>hospital icon</title>
	<desc>hospital icon from the IconExperience.com I-Collection. Copyright by INCORS GmbH (www.incors.com).</desc>
		<path id="curve28"  d="M0 5300l300 0 0 -3800 800 0 0 3800 200 0 0 -5000 3200 0 0 5000 200 0 0 -3800 800 0 0 3800 300 0 0 200 -2400 0 0 -1500 -1000 0 0 1500 -2400 0 0 -200zm2100 -3200l600 0 0 600 400 0 0 -600 600 0 0 -400 -600 0 0 -600 -400 0 0 600 -600 0 0 400z"/>
</svg>