<?xml version="1.0" encoding="UTF-8"?>
<!DOCTYPE svg PUBLIC "-//W3C//DTD SVG 1.1//EN" "http://www.w3.org/Graphics/SVG/1.1/DTD/svg11.dtd">
<svg xmlns="http://www.w3.org/2000/svg" xml:space="preserve" width="580px" height="580px" shape-rendering="geometricPrecision" text-rendering="geometricPrecision" image-rendering="optimizeQuality" fill-rule="nonzero" clip-rule="nonzero" viewBox="0 0 5800 5800" xmlns:xlink="http://www.w3.org/1999/xlink">
	<title>hot_air_balloon icon</title>
	<desc>hot_air_balloon icon from the IconExperience.com I-Collection. Copyright by INCORS GmbH (www.incors.com).</desc>
	<path id="curve0"  d="M3325 145c880,191 1528,953 1573,1855l-799 0c-17,-618 -223,-1486 -774,-1855zm1573 2055c-18,360 -131,696 -315,981l-983 1645 0 574c0,165 -135,300 -300,300l-800 0c-165,0 -300,-135 -300,-300l0 -573 -990 -1657c-185,-292 -291,-625 -308,-970l799 0c16,608 212,1473 746,1848 -233,-54 -451,-148 -645,-276l554 928 1087 0 554 -928c-201,133 -429,230 -672,283 551,-369 757,-1237 774,-1855l799 0zm-3996 -200c44,-891 678,-1648 1545,-1848 -534,375 -730,1240 -746,1848l-799 0zm2098 1985l0 -1785 899 0c-14,495 -133,940 -317,1265 -156,278 -359,466 -582,520zm0 -1985l0 -1785c223,54 426,242 583,520 183,325 301,770 316,1265l-899 0zm-200 1990l0 -1790 -899 0c14,495 129,940 309,1266 158,288 364,480 590,524zm0 -1990l0 -1790c-226,44 -432,236 -590,524 -180,326 -295,771 -309,1266l899 0z"/>
</svg>