<?xml version="1.0" encoding="UTF-8"?>
<!DOCTYPE svg PUBLIC "-//W3C//DTD SVG 1.1//EN" "http://www.w3.org/Graphics/SVG/1.1/DTD/svg11.dtd">
<svg xmlns="http://www.w3.org/2000/svg" xml:space="preserve" width="580px" height="580px" shape-rendering="geometricPrecision" text-rendering="geometricPrecision" image-rendering="optimizeQuality" fill-rule="nonzero" clip-rule="nonzero" viewBox="0 0 5800 5800" xmlns:xlink="http://www.w3.org/1999/xlink">
	<title>hot_air_balloon icon</title>
	<desc>hot_air_balloon icon from the IconExperience.com I-Collection. Copyright by INCORS GmbH (www.incors.com).</desc>
	<path id="curve0" d="M1103 2000l598 0c15,-503 140,-957 335,-1293 61,-106 130,-201 204,-282 -652,257 -1099,872 -1137,1575zm799 0l898 0 0 -1691c-227,42 -433,224 -591,497 -178,308 -293,727 -307,1194zm1098 0l898 0c-14,-467 -132,-885 -315,-1193 -156,-263 -359,-442 -583,-492l0 1685zm0 200l0 1685c224,-50 427,-229 583,-492 183,-308 301,-726 315,-1193l-898 0zm-760 1575c-74,-81 -143,-176 -204,-282 -195,-336 -320,-790 -335,-1293l-598 0c16,302 104,576 259,835 75,123 164,237 265,338 173,173 381,311 613,402zm560 116l0 -1691 -898 0c14,467 129,886 307,1193 158,274 364,456 591,498zm-444 809l1087 0 554 -928c-315,207 -692,328 -1097,328 -406,0 -783,-121 -1098,-328l554 928zm1244 126l0 574c0,165 -135,300 -300,300l-800 0c-165,0 -300,-135 -300,-300l0 -573 -990 -1657c-203,-320 -310,-690 -310,-1070 0,-1105 895,-2000 2000,-2000 1104,0 1999,894 2000,1997 0,387 -108,759 -317,1084l-983 1645zm-200 74l-1000 0 0 500c0,55 45,100 100,100l800 0c55,0 100,-45 100,-100l0 -500zm1024 -1842l43 -72c133,-234 215,-501 230,-786l-598 0c-16,503 -144,958 -344,1294 -65,110 -138,207 -217,289 241,-91 456,-232 635,-410 95,-95 179,-201 251,-315zm-886 -2641c79,82 152,179 217,289 200,336 328,791 344,1294l598 0c-39,-711 -495,-1332 -1159,-1583z"/>
</svg>