<?xml version="1.0" encoding="UTF-8"?>
<!DOCTYPE svg PUBLIC "-//W3C//DTD SVG 1.1//EN" "http://www.w3.org/Graphics/SVG/1.1/DTD/svg11.dtd">
<svg xmlns="http://www.w3.org/2000/svg" xml:space="preserve" width="580px" height="580px" shape-rendering="geometricPrecision" text-rendering="geometricPrecision" image-rendering="optimizeQuality" fill-rule="nonzero" clip-rule="nonzero" viewBox="0 0 5800 5800" xmlns:xlink="http://www.w3.org/1999/xlink">
	<title>hotel icon</title>
	<desc>hotel icon from the IconExperience.com I-Collection. Copyright by INCORS GmbH (www.incors.com).</desc>
	<path id="curve0"  d="M4300 4900l0 -1200 800 0 0 200 -600 0 0 1000 -200 0zm-4000 600l0 -4000 5200 0 0 4000c-1733,0 -3467,0 -5200,0zm200 -200l1600 0 0 -1600 1600 0 0 1600 1600 0 0 -3600 -4800 0 0 3600zm0 -5000l0 450 500 0 0 -450 200 0 0 1100 -200 0 0 -450 -500 0 0 450 -200 0 0 -1100 200 0zm1620 413c0,-120 -102,-213 -220,-213l-100 0c-118,0 -220,93 -220,213l0 274c0,120 102,213 220,213l100 0c118,0 220,-93 220,-213l0 -274zm200 0l0 274c0,231 -192,413 -420,413l-100 0c-228,0 -420,-183 -420,-413l0 -274c0,-231 192,-413 420,-413l100 0c228,0 420,183 420,413zm680 -213l0 900 -200 0 0 -900 -350 0 0 -200 900 0 0 200 -350 0zm1400 0l-600 0 0 250 400 0 0 200 -400 0 0 250 600 0 0 200 -800 0 0 -1100 800 0 0 200zm400 -200l0 900 700 0 0 200 -900 0 0 -1100 200 0zm-1300 3600l-1200 0 0 1400 1200 0 0 -1400zm-2800 -600l0 -1200 800 0 0 200 -600 0 0 1000 -200 0zm0 1600l0 -1200 800 0 0 200 -600 0 0 1000 -200 0zm1200 -1600l0 -1200 800 0 0 200 -600 0 0 1000 -200 0zm1200 0l0 -1200 800 0 0 200 -600 0 0 1000 -200 0zm1200 0l0 -1200 800 0 0 200 -600 0 0 1000 -200 0z"/>
</svg>