<?xml version="1.0" encoding="UTF-8"?>
<!DOCTYPE svg PUBLIC "-//W3C//DTD SVG 1.1//EN" "http://www.w3.org/Graphics/SVG/1.1/DTD/svg11.dtd">
<svg xmlns="http://www.w3.org/2000/svg" xml:space="preserve" width="580px" height="580px" shape-rendering="geometricPrecision" text-rendering="geometricPrecision" image-rendering="optimizeQuality" fill-rule="nonzero" clip-rule="nonzero" viewBox="0 0 5800 5800" xmlns:xlink="http://www.w3.org/1999/xlink">
	<title>houses icon</title>
	<desc>houses icon from the IconExperience.com I-Collection. Copyright by INCORS GmbH (www.incors.com).</desc>
	<path id="curve0"  d="M4700 3823l0 1077 600 0 0 -1278 -399 401 -201 -200zm-1400 1477l600 0 0 -1600 -600 0 0 1600zm-1600 -1800l0 1000 1200 0 0 -1000 -1200 0zm1000 200l0 600 -800 0 0 -600 800 0zm-1870 -171l2070 -2057 2070 2057 -140 142 -330 -328 0 1957 -400 0 0 -1800 -1000 0 0 1800 -1800 0 0 -1957 -330 328 -140 -142zm4470 46l0 -534 329 330 142 -142 -1971 -1970 -415 414 1915 1902zm-4200 925l-600 0 0 -878 399 401 201 -200 0 677zm-600 -924l0 -835 -329 330 -142 -142 1871 -1870 566 563 -1966 1954z"/>
</svg>