<?xml version="1.0" encoding="UTF-8"?>
<!DOCTYPE svg PUBLIC "-//W3C//DTD SVG 1.1//EN" "http://www.w3.org/Graphics/SVG/1.1/DTD/svg11.dtd">
<svg xmlns="http://www.w3.org/2000/svg" xml:space="preserve" width="580px" height="580px" shape-rendering="geometricPrecision" text-rendering="geometricPrecision" image-rendering="optimizeQuality" fill-rule="nonzero" clip-rule="nonzero" viewBox="0 0 5800 5800" xmlns:xlink="http://www.w3.org/1999/xlink">
	<title>house_framework icon</title>
	<desc>house_framework icon from the IconExperience.com I-Collection. Copyright by INCORS GmbH (www.incors.com).</desc>
	<path id="curve0"  d="M2700 5500l0 -1400c-333,0 -667,0 -1000,0l0 1400 -900 0c-55,0 -100,-45 -100,-100 0,-586 0,-1173 0,-1759l-129 130 -142 -142c1067,-1066 2134,-2133 3200,-3200 39,-39 103,-39 142,0 566,567 1133,1134 1700,1700l-142 142 -129 -130 0 1759c0,26 -10,51 -29,71l-1500 1500c-20,19 -45,29 -71,29l-900 0zm-200 0l-600 0 0 -1200 600 0 0 1200zm2500 -3359l-259 259 230 229 -142 142 -129 -130 0 1518 300 -300 0 -1718zm-500 2217l0 -1717 -259 259 230 229 -142 142 -129 -130 0 1518 300 -301zm-500 501l0 -1718 -259 259 230 229 -142 142 -129 -130 0 1518 300 -300zm459 -2459l-1259 -1259 -359 359 1259 1259 359 -359zm-1118 -1400l1259 1259 359 -359 -1259 -1259 -359 359zm618 1900l-1259 -1259 -359 359 1259 1259 359 -359z"/>
</svg>