<?xml version="1.0" encoding="UTF-8"?>
<!DOCTYPE svg PUBLIC "-//W3C//DTD SVG 1.1//EN" "http://www.w3.org/Graphics/SVG/1.1/DTD/svg11.dtd">
<svg xmlns="http://www.w3.org/2000/svg" xml:space="preserve" width="580px" height="580px" shape-rendering="geometricPrecision" text-rendering="geometricPrecision" image-rendering="optimizeQuality" fill-rule="nonzero" clip-rule="nonzero" viewBox="0 0 5800 5800" xmlns:xlink="http://www.w3.org/1999/xlink">
	<title>houses icon</title>
	<desc>houses icon from the IconExperience.com I-Collection. Copyright by INCORS GmbH (www.incors.com).</desc>
	<path id="curve0" d="M4700 4700l400 0 0 -1018 153 -154 -153 -151 0 -535 -1300 -1301 -272 273 -142 -141 414 -414 1971 1970 -142 142 -329 -330 0 1859 -600 0 0 -200zm-800 400l0 -1400 -600 0 0 1400 600 0zm-800 0l0 -1600 1000 0 0 1600 200 0 0 -1956 -1400 -1391 -1400 1391 0 1956 1600 0zm-200 -1600l0 1000 -1200 0 0 -1000 1200 0zm-200 200l-800 0 0 600 800 0 0 -600zm-1870 -171l2070 -2057 2070 2057 -140 142 -330 -328 0 1957c-1067,0 -2133,0 -3200,0l0 -1957 -330 328 -140 -142zm270 971l-600 0 0 -1759 -329 330 -142 -142 1871 -1870 566 563 -142 140 -424 -421 -1200 1200 0 835 -153 152 153 155 0 617 400 0 0 200z"/>
</svg>