<?xml version="1.0" encoding="UTF-8"?>
<!DOCTYPE svg PUBLIC "-//W3C//DTD SVG 1.1//EN" "http://www.w3.org/Graphics/SVG/1.1/DTD/svg11.dtd">
<svg xmlns="http://www.w3.org/2000/svg" xml:space="preserve" width="580px" height="580px" shape-rendering="geometricPrecision" text-rendering="geometricPrecision" image-rendering="optimizeQuality" fill-rule="nonzero" clip-rule="nonzero" viewBox="0 0 5800 5800" xmlns:xlink="http://www.w3.org/1999/xlink">
	<title>house_framework icon</title>
	<desc>house_framework icon from the IconExperience.com I-Collection. Copyright by INCORS GmbH (www.incors.com).</desc>
	<path id="curve0"  d="M700 3641l-129 130 -142 -142 1700 -1700 1500 -1500c39,-39 103,-39 142,0 566,567 1133,1134 1700,1700l-142 142 -129 -130 0 1759c0,26 -10,51 -29,71l-1499 1499c-18,18 -44,30 -72,30 -967,0 -1933,0 -2900,0 0,-620 0,-1239 0,-1859zm200 1659l800 0 0 -1200c333,0 667,0 1000,0l0 1200 800 0 0 -1800 -2600 0 0 1800zm2800 -141l300 -300 0 -1718 -259 259 230 229 -142 142 -129 -130 0 1518zm-341 -1859l-1159 -1159 -1159 1159 2318 0zm-1018 -1300l1259 1259 359 -359 -1259 -1259 -359 359zm500 -500l1259 1259 359 -359 -1259 -1259 -359 359zm500 -500l1259 1259 359 -359 -1259 -1259 -359 359zm900 1900l230 229 -142 142 -129 -130 0 1518 300 -301 0 -1717 -259 259zm500 -500l230 229 -142 142 -129 -130 0 1518 300 -300 0 -1718 -259 259zm-2841 2900l600 0 0 -1000 -600 0 0 1000z"/>
</svg>