<?xml version="1.0" encoding="utf-8"?>
<!-- Generator: Adobe Illustrator 19.2.1, SVG Export Plug-In . SVG Version: 6.00 Build 0)  -->
<svg version="1.1" id="HTML-editor_x5F_gi" xmlns="http://www.w3.org/2000/svg" xmlns:xlink="http://www.w3.org/1999/xlink" x="0px"
	 y="0px" width="580px" height="580px" viewBox="0 0 580 580" style="enable-background:new 0 0 580 580;" xml:space="preserve">
<title>address_book2 icon</title>
<desc>address_book2 icon from the IconExperience.com I-Collection. Copyright by INCORS GmbH (www.incors.com).</desc>
<title>address_book2 icon</title>
<desc>address_book2 icon from the IconExperience.com I-Collection. Copyright by INCORS GmbH (www.incors.com).</desc>
<title>address_book2 icon</title>
<desc>address_book2 icon from the IconExperience.com I-Collection. Copyright by INCORS GmbH (www.incors.com).</desc>
<g>
	<rect x="351" y="240" width="146" height="20"/>
	<rect x="351" y="160" width="146" height="20"/>
	<rect x="351" y="80" width="146" height="20"/>
	<polygon points="57,420 303.8,420 316.5,400 57,400 	"/>
	<polygon points="367.6,320 57,320 57,340 354.9,340 	"/>
	<polygon points="57,500 216.8,500 229.5,480 57,480 	"/>
	<path d="M496,486V277c-11,0-21.8,0-32.8,0L330.5,486H303v14h68v-14h-24l32.5-51H482v51h-27v14h69v-14H496z M482,421h-93.7l82.5-130
		H482V421z"/>
	<path d="M231.8,261H295V81h-63.2h-15H56v105.8V261h160.8H231.8z M232,96h48v150h-48v-59.2V96z M71,96h146v91H71V96z M71,246v-44
		h146v44H71z"/>
</g>
</svg>
