<?xml version="1.0" encoding="UTF-8"?>
<!DOCTYPE svg PUBLIC "-//W3C//DTD SVG 1.1//EN" "http://www.w3.org/Graphics/SVG/1.1/DTD/svg11.dtd">
<svg xmlns="http://www.w3.org/2000/svg" xml:space="preserve" width="580px" height="580px" shape-rendering="geometricPrecision" text-rendering="geometricPrecision" image-rendering="optimizeQuality" fill-rule="nonzero" clip-rule="nonzero" viewBox="0 0 5800 5800" xmlns:xlink="http://www.w3.org/1999/xlink">
	<title>i-beams icon</title>
	<desc>i-beams icon from the IconExperience.com I-Collection. Copyright by INCORS GmbH (www.incors.com).</desc>
	<path id="curve0"  d="M329 4129l1230 -1229 141 0 0 125 -521 573c-177,195 -35,502 221,501l279 1 -200 200 -379 0 0 1000 200 0 0 -800 1000 0 0 179 -821 821 -1079 0c-85,0 -133,-102 -74,-167l374 -412 0 379 200 0c0,-333 0,-667 0,-1000l-500 0c-88,0 -134,-107 -71,-171zm1000 -1600l2199 -2199c18,-18 44,-30 72,-30l1200 0c88,0 134,107 71,171l-2199 2199c-18,18 -44,30 -72,30 -167,0 -333,0 -500,0l0 1000 200 0 0 -800 300 0 124 0 88 -88 1488 -1488 0 176 500 0c88,0 134,107 71,171l-2199 2199c-18,18 -44,30 -72,30l-1200 0c-85,0 -133,-102 -74,-167l374 -412 0 379 200 0c0,-333 0,-667 0,-1000l-500 0c-88,0 -134,-107 -71,-171zm671 1771c-79,0 -128,-88 -83,-155l44 -45 639 0c84,0 159,-34 213,-89l2111 -2111 476 0c88,0 134,107 71,171l-2199 2199c-18,18 -44,30 -72,30 -167,0 -333,0 -500,0l0 1000 200 0 0 -800 424 0 1576 -1576 0 176 491 0c92,-7 146,104 80,171l-2199 2199c-18,18 -44,30 -72,30l-1200 0c-79,0 -128,-88 -83,-155l383 -384 0 339 200 0 0 -1000c-42,0 -500,0 -500,0z"/>
</svg>