<?xml version="1.0" encoding="UTF-8"?>
<!DOCTYPE svg PUBLIC "-//W3C//DTD SVG 1.1//EN" "http://www.w3.org/Graphics/SVG/1.1/DTD/svg11.dtd">
<svg xmlns="http://www.w3.org/2000/svg" xml:space="preserve" width="580px" height="580px" shape-rendering="geometricPrecision" text-rendering="geometricPrecision" image-rendering="optimizeQuality" fill-rule="nonzero" clip-rule="nonzero" viewBox="0 0 5800 5800" xmlns:xlink="http://www.w3.org/1999/xlink">
	<title>i-beam icon</title>
	<desc>i-beam icon from the IconExperience.com I-Collection. Copyright by INCORS GmbH (www.incors.com).</desc>
	<path id="curve0"  d="M429 3729l3199 -3199c18,-18 44,-30 72,-30l1800 0c88,0 134,107 71,171l-3199 3199c-18,18 -44,30 -72,30l-700 0c0,467 0,933 0,1400l200 0 0 -1200 624 0 2276 -2276 0 276 800 0c88,0 134,107 71,171l-3199 3199c-18,18 -44,30 -72,30l-1800 0c-88,0 -134,-107 -71,-171l671 -670 0 641 200 0c0,-467 0,-933 0,-1400l-800 0c-88,0 -134,-107 -71,-171z"/>
</svg>