<?xml version="1.0" encoding="UTF-8"?>
<!DOCTYPE svg PUBLIC "-//W3C//DTD SVG 1.1//EN" "http://www.w3.org/Graphics/SVG/1.1/DTD/svg11.dtd">
<svg xmlns="http://www.w3.org/2000/svg" xml:space="preserve" width="580px" height="580px" shape-rendering="geometricPrecision" text-rendering="geometricPrecision" image-rendering="optimizeQuality" fill-rule="nonzero" clip-rule="nonzero" viewBox="0 0 5800 5800" xmlns:xlink="http://www.w3.org/1999/xlink">
	<title>i-beams icon</title>
	<desc>i-beams icon from the IconExperience.com I-Collection. Copyright by INCORS GmbH (www.incors.com).</desc>
	<path id="curve0" d="M3641 500l-2000 2000 918 0 2000 -2000 -918 0zm-1541 2200l0 859 2200 -2200 0 141 500 0c88,0 134,107 71,171l-2199 2199c-18,18 -44,30 -72,30l-1200 0c-85,0 -133,-102 -74,-167l374 -412 0 297 -74 82c91,0 183,0 274,0l0 -302 0 -297 0 -401 -500 0c-26,0 -51,-10 -71,-29 -39,-39 -39,-103 0,-142l2199 -2199c18,-18 44,-30 72,-30l1200 0c88,0 134,107 71,171l-2199 2199c-18,18 -44,30 -72,30l-500 0zm2141 -1000l-2000 2000 318 0 2000 -2000 -318 0zm-1082 2400l2000 -2000 -435 0 200 -200 476 0c88,0 134,107 71,171l-2199 2199c-18,18 -44,30 -72,30l-500 0 0 859 2200 -2200 0 141 500 0c88,0 134,107 71,171l-2199 2199c-18,18 -44,30 -72,30l-1200 0c-85,0 -133,-102 -74,-167l374 -412 0 297 -74 82c91,0 183,0 274,0 0,-333 0,-667 0,-1000l-500 0c-88,0 -134,-107 -71,-171l30 -29c400,0 800,0 1200,0zm-859 741l-628 629c-18,18 -44,30 -72,30l-1200 0c-85,0 -133,-102 -74,-167l374 -412 0 297 -74 82 274 0c0,-333 0,-667 0,-1000l-500 0c-88,0 -134,-107 -71,-171l1230 -1229 141 0 0 125 -167 184 -892 891c359,0 718,0 1076,0 -16,45 -20,92 -14,139 -32,31 -54,61 -103,61l-500 0 0 859 719 -720c54,41 117,61 181,61l41 0 -800 800 318 0 741 -741 0 282zm2541 -1541l-2000 2000 318 0 2000 -2000 -318 0z"/>
</svg>