<?xml version="1.0" encoding="UTF-8"?>
<!DOCTYPE svg PUBLIC "-//W3C//DTD SVG 1.1//EN" "http://www.w3.org/Graphics/SVG/1.1/DTD/svg11.dtd">
<svg xmlns="http://www.w3.org/2000/svg" xml:space="preserve" width="580px" height="580px" shape-rendering="geometricPrecision" text-rendering="geometricPrecision" image-rendering="optimizeQuality" fill-rule="nonzero" clip-rule="nonzero" viewBox="0 0 5800 5800" xmlns:xlink="http://www.w3.org/1999/xlink">
	<title>ice_cream icon</title>
	<desc>ice_cream icon from the IconExperience.com I-Collection. Copyright by INCORS GmbH (www.incors.com).</desc>
		<path id="curve28"  d="M4100 1500l0 2200c0,331 -269,600 -600,600l-1200 0c-331,0 -600,-269 -600,-600l0 -2200c0,-663 537,-1200 1200,-1200 663,0 1200,537 1200,1200zm-1500 3000l600 0 0 800c0,165 -135,300 -300,300 -165,0 -300,-135 -300,-300l0 -800zm-500 -1000l200 0 0 -2000c0,-331 269,-600 600,-600l0 -200c-442,0 -800,358 -800,800l0 2000z"/>
</svg>