<?xml version="1.0" encoding="UTF-8"?>
<!DOCTYPE svg PUBLIC "-//W3C//DTD SVG 1.1//EN" "http://www.w3.org/Graphics/SVG/1.1/DTD/svg11.dtd">
<svg xmlns="http://www.w3.org/2000/svg" xml:space="preserve" width="580px" height="580px" shape-rendering="geometricPrecision" text-rendering="geometricPrecision" image-rendering="optimizeQuality" fill-rule="nonzero" clip-rule="nonzero" viewBox="0 0 5800 5800" xmlns:xlink="http://www.w3.org/1999/xlink">
	<title>ice_cream2 icon</title>
	<desc>ice_cream2 icon from the IconExperience.com I-Collection. Copyright by INCORS GmbH (www.incors.com).</desc>
		<path id="curve28"  d="M3600 1300c442,0 800,358 800,800 0,442 -358,800 -800,800 -442,0 -800,-358 -800,-800 0,-442 358,-800 800,-800zm-700 -1000c442,0 800,358 800,800 0,8 -84,0 -100,0 -16,0 -100,8 -100,0 0,-331 -269,-600 -600,-600 -331,0 -600,269 -600,600 0,254 160,481 399,565 -29,60 -52,123 -68,188 -318,-113 -531,-414 -531,-753 0,-442 358,-800 800,-800zm-786 2796l786 2156 786 -2156c79,-7 156,-23 229,-47l-850 2332c-25,71 -89,119 -165,119 -76,0 -140,-48 -165,-119l-850 -2332c73,24 150,41 229,47zm657 -436l-5 6c-145,144 -345,234 -566,234 -442,0 -800,-358 -800,-800 0,-339 213,-640 531,-754 16,66 39,129 68,188 -239,85 -399,312 -399,566 0,331 269,600 600,600 185,0 357,-84 471,-229 27,67 61,130 100,189zm829 -1160c-331,0 -600,269 -600,600 0,331 269,600 600,600 331,0 600,-269 600,-600 0,-331 -269,-600 -600,-600z"/>
</svg>