<?xml version="1.0" encoding="UTF-8"?>
<!DOCTYPE svg PUBLIC "-//W3C//DTD SVG 1.1//EN" "http://www.w3.org/Graphics/SVG/1.1/DTD/svg11.dtd">
<svg xmlns="http://www.w3.org/2000/svg" xml:space="preserve" width="580px" height="580px" shape-rendering="geometricPrecision" text-rendering="geometricPrecision" image-rendering="optimizeQuality" fill-rule="nonzero" clip-rule="nonzero" viewBox="0 0 5800 5800" xmlns:xlink="http://www.w3.org/1999/xlink">
	<title>ice_cream2 icon</title>
	<desc>ice_cream2 icon from the IconExperience.com I-Collection. Copyright by INCORS GmbH (www.incors.com).</desc>
		<path id="curve28"  d="M3915 3049l-850 2332c-25,71 -89,119 -165,119 -76,0 -140,-48 -165,-119l-850 -2332c355,118 746,27 1015,-235 268,263 661,353 1015,235zm-1314 -995c-10,216 49,427 170,606 -152,154 -354,240 -571,240 -442,0 -800,-358 -800,-800 0,-339 213,-640 531,-754 85,337 341,606 670,708zm999 -754c442,0 800,358 800,800 0,442 -358,800 -800,800 -442,0 -800,-358 -800,-800 0,-442 358,-800 800,-800zm-700 -1000c443,0 803,361 800,805 -492,-49 -947,268 -1069,748 -318,-113 -531,-414 -531,-753 0,-442 358,-800 800,-800z"/>
</svg>