<?xml version="1.0" encoding="UTF-8"?>
<!DOCTYPE svg PUBLIC "-//W3C//DTD SVG 1.1//EN" "http://www.w3.org/Graphics/SVG/1.1/DTD/svg11.dtd">
<svg xmlns="http://www.w3.org/2000/svg" xml:space="preserve" width="580px" height="580px" shape-rendering="geometricPrecision" text-rendering="geometricPrecision" image-rendering="optimizeQuality" fill-rule="nonzero" clip-rule="nonzero" viewBox="0 0 5800 5800" xmlns:xlink="http://www.w3.org/1999/xlink">
	<title>ice_cream icon</title>
	<desc>ice_cream icon from the IconExperience.com I-Collection. Copyright by INCORS GmbH (www.incors.com).</desc>
		<path id="curve28" d="M2918 5698c-114,0 -212,-44 -284,-116 -72,-72 -117,-172 -119,-282l-15 -798 200 -4 14 799c1,56 24,106 61,143 36,36 85,58 140,58 54,0 104,-20 143,-59 35,-34 57,-82 57,-136l-15 -801 200 -4 15 805c0,109 -45,207 -117,278 -71,70 -169,115 -280,117zm1182 -4198l0 2200c0,331 -269,600 -600,600l-1200 0c-331,0 -600,-269 -600,-600l0 -2200c0,-663 537,-1200 1200,-1200 663,0 1200,537 1200,1200zm-200 2200l0 -2200c0,-552 -448,-1000 -1000,-1000 -552,0 -1000,448 -1000,1000l0 2200c0,220 180,400 400,400l1200 0c220,0 400,-180 400,-400zm-1800 -200l0 -2000c0,-442 358,-800 800,-800l0 200c-331,0 -600,269 -600,600l0 2000 -200 0z"/>
</svg>