<?xml version="1.0" encoding="UTF-8"?>
<!DOCTYPE svg PUBLIC "-//W3C//DTD SVG 1.1//EN" "http://www.w3.org/Graphics/SVG/1.1/DTD/svg11.dtd">
<svg xmlns="http://www.w3.org/2000/svg" xml:space="preserve" width="580px" height="580px" shape-rendering="geometricPrecision" text-rendering="geometricPrecision" image-rendering="optimizeQuality" fill-rule="nonzero" clip-rule="nonzero" viewBox="0 0 5800 5800" xmlns:xlink="http://www.w3.org/1999/xlink">
	<title>icecube icon</title>
	<desc>icecube icon from the IconExperience.com I-Collection. Copyright by INCORS GmbH (www.incors.com).</desc>
	<path id="curve0"  d="M3600 2000c0,-111 -89,-200 -200,-200l-500 0c-55,0 -100,-45 -100,-100 0,-55 45,-100 100,-100l676 0c57,0 101,-18 141,-59l212 -212c39,-39 103,-39 142,0 39,39 39,103 0,142l-125 124c-98,99 -146,213 -146,354l0 651c0,55 -45,100 -100,100 -55,0 -100,-45 -100,-100l0 -600zm-2481 1700c-74,0 -148,-5 -219,-16 -127,-18 -226,-52 -291,-94 -86,-56 -139,-148 -91,-248 17,-35 46,-69 88,-98 86,-61 225,-104 380,-127 37,-5 75,-9 114,-12l0 200c-29,3 -58,6 -86,10 -126,18 -234,50 -293,92 -13,9 -16,8 -4,16 42,27 113,50 212,64 55,8 113,12 171,13 0,70 3,131 19,200zm3858 282c-20,30 -47,52 -95,93 -28,23 9,-9 -41,36 -31,28 -14,37 11,47 98,42 235,77 322,98 119,29 215,68 284,113 59,40 100,85 122,135 27,60 26,123 -4,186 -17,35 -44,70 -80,102 -94,84 -249,146 -423,177 -167,30 -355,33 -525,2 -161,-29 -268,-112 -383,-200 -39,-29 -78,-60 -120,-88 -127,-85 -298,-106 -417,-83 -34,6 -61,16 -80,28 -6,4 -10,4 -10,5 0,1 4,7 14,19 56,68 89,131 104,190 26,103 0,187 -61,255 -145,164 -490,203 -695,203 -210,0 -448,-53 -600,-132 -116,-61 -234,-169 -178,-313 19,-48 59,-95 123,-138 86,-58 128,-102 134,-137 -14,-17 -40,-29 -75,-40 -143,-41 -386,-28 -627,62 -290,110 -602,218 -916,161 -121,-22 -218,-59 -288,-105 -58,-38 -100,-84 -123,-136 -51,-112 -3,-219 84,-297 159,-142 476,-213 797,-266 28,42 59,80 94,116 22,21 45,42 70,61 -336,51 -688,114 -829,239 -15,14 -45,42 -34,66 7,16 24,33 51,50 49,32 121,59 214,76 273,50 558,-58 810,-151 282,-106 575,-119 752,-67 70,20 126,51 164,92 49,52 69,115 52,188 -19,79 -87,166 -220,254 -28,19 -43,33 -47,44 0,1 2,1 4,5 15,19 43,40 80,59 125,66 326,109 508,109 134,0 451,-28 546,-135 17,-20 24,-44 17,-74 -8,-31 -29,-68 -66,-114 -50,-62 -66,-124 -55,-181 23,-118 143,-172 249,-192 162,-31 392,-2 564,113 48,31 90,64 131,96 95,73 185,141 298,162 146,27 309,24 454,-2 139,-25 258,-71 325,-130 17,-15 28,-28 33,-40 4,-7 4,-13 2,-18 -7,-15 -24,-32 -50,-49 -50,-34 -125,-63 -221,-86 -93,-23 -241,-61 -353,-108 -185,-79 -290,-183 -140,-317 50,-44 90,-78 120,-103 20,-17 35,-30 45,-38 19,-17 6,-5 4,-30 0,-11 -1,-24 -3,-49 -12,-248 200,-356 373,-444 69,-35 127,-57 127,-61 0,-75 -245,-91 -451,-97 21,-64 35,-130 43,-197 279,10 608,51 608,294 0,119 -109,174 -237,239 -121,62 -269,137 -263,256 0,11 1,29 3,44 5,64 7,94 -26,143zm-3108 -82l1600 0c194,0 357,-67 495,-205l331 -331c138,-138 205,-301 205,-495l0 -1600c0,-203 -166,-369 -369,-369l-1600 0c-194,0 -357,67 -495,205l-331 331c-138,138 -205,301 -205,495l0 1600c0,203 166,369 369,369zm0 200c-314,0 -569,-256 -569,-569l0 -1600c0,-245 90,-462 264,-636l331 -331c174,-174 391,-264 636,-264l1600 0c314,0 569,255 569,569l0 1600c0,245 -90,462 -264,636l-331 331c-174,174 -391,264 -636,264l-1600 0z"/>
</svg>