<?xml version="1.0" encoding="UTF-8"?>
<!DOCTYPE svg PUBLIC "-//W3C//DTD SVG 1.1//EN" "http://www.w3.org/Graphics/SVG/1.1/DTD/svg11.dtd">
<svg xmlns="http://www.w3.org/2000/svg" xml:space="preserve" width="580px" height="580px" shape-rendering="geometricPrecision" text-rendering="geometricPrecision" image-rendering="optimizeQuality" fill-rule="nonzero" clip-rule="nonzero" viewBox="0 0 5800 5800" xmlns:xlink="http://www.w3.org/1999/xlink">
	<title>icecube icon</title>
	<desc>icecube icon from the IconExperience.com I-Collection. Copyright by INCORS GmbH (www.incors.com).</desc>
	<path id="curve0"  d="M5174 4256c119,29 215,68 284,113 111,74 181,190 118,321 -81,168 -335,249 -503,279 -167,30 -355,33 -525,2 -216,-39 -333,-174 -503,-288 -127,-85 -298,-106 -417,-83 -34,6 -61,16 -80,28 -6,4 -10,4 -10,5 0,1 4,7 14,19 56,68 89,131 104,190 52,202 -101,324 -273,385 -314,111 -788,96 -1083,-59 -63,-33 -115,-73 -147,-117 -96,-129 -27,-255 92,-334 86,-58 128,-102 135,-134 1,-2 0,-4 -2,-6 -13,-14 -39,-26 -74,-37 -143,-41 -386,-28 -627,62 -290,110 -602,218 -916,161 -121,-22 -218,-59 -288,-105 -110,-72 -180,-190 -124,-320 110,-255 643,-339 882,-379 143,213 381,341 638,341l1600 0c148,0 288,-27 420,-82 133,-55 253,-135 357,-240l332 -332c105,-104 185,-224 240,-357 37,-90 62,-185 74,-283 279,10 608,51 608,294 0,119 -109,174 -237,239 -121,62 -269,137 -263,256 0,11 1,29 3,44 4,60 6,89 -21,135 -20,34 -47,56 -100,101 -25,21 -49,41 -74,63 42,21 99,43 159,62 77,24 152,43 207,56zm-738 -751l-331 331c-174,174 -391,264 -636,264l-1600 0c-314,0 -569,-255 -569,-569l0 -1600c0,-245 90,-462 264,-636l331 -331c174,-174 391,-264 636,-264l1600 0c314,0 569,255 569,569l0 1600c0,245 -90,462 -264,636zm-636 -905c0,-217 0,-434 0,-651 0,-139 47,-253 144,-352l127 -126c39,-39 39,-103 0,-142 -39,-39 -103,-39 -142,0l-212 212c-40,41 -84,59 -141,59 -226,0 -451,0 -676,0 -55,0 -100,45 -100,100 0,55 45,100 100,100l500 0c111,0 200,89 200,200l0 600c0,55 45,100 100,100 55,0 100,-45 100,-100zm-2681 1100c-74,0 -148,-5 -219,-16 -125,-18 -325,-65 -384,-194 -45,-99 9,-189 90,-246 127,-90 337,-127 494,-139l0 426c0,58 6,115 19,169z"/>
</svg>