<?xml version="1.0" encoding="UTF-8"?>
<!DOCTYPE svg PUBLIC "-//W3C//DTD SVG 1.1//EN" "http://www.w3.org/Graphics/SVG/1.1/DTD/svg11.dtd">
<svg xmlns="http://www.w3.org/2000/svg" xml:space="preserve" width="580px" height="580px" shape-rendering="geometricPrecision" text-rendering="geometricPrecision" image-rendering="optimizeQuality" fill-rule="nonzero" clip-rule="nonzero" viewBox="0 0 5800 5800" xmlns:xlink="http://www.w3.org/1999/xlink">
	<title>id_cards icon</title>
	<desc>id_cards icon from the IconExperience.com I-Collection. Copyright by INCORS GmbH (www.incors.com).</desc>
		<path id="curve28"  d="M1800 500l3200 0c276,0 500,224 500,500l0 2200c0,276 -224,500 -500,500l-300 0 0 -500 400 0 0 -2000 -1600 0 0 700 -2200 0 0 -900c0,-276 224,-500 500,-500zm3100 900l-1200 0 0 500 240 0c3,-174 181,-270 345,-244 42,7 63,18 97,40 132,-63 291,83 278,212l-12 183c16,53 0,117 -48,148 63,106 100,229 100,361l0 94c35,12 79,28 105,53 62,59 95,149 95,232l0 -1579zm-3000 100l0 200 1200 0 0 -200 -1200 0zm-1100 600l3200 0c276,0 500,224 500,500l0 2200c0,276 -224,500 -500,500l-3200 0c-276,0 -500,-224 -500,-500l0 -2200c0,-276 224,-500 500,-500zm3300 700l-1600 0 0 2000 1600 0 0 -2000zm-200 200l0 1600 -10 0c-14,-57 -42,-112 -85,-153 -28,-27 -75,-43 -112,-56 -61,-22 -97,-24 -153,-58 -55,-31 -59,-122 -60,-178 48,-46 92,-147 109,-210 57,-27 76,-98 59,-154l12 -183c13,-129 -146,-275 -278,-212 -34,-22 -55,-33 -97,-40 -168,-26 -349,74 -345,254l12 181c-17,56 3,127 59,154 17,64 62,165 109,210 0,55 -7,148 -60,178 -56,34 -92,36 -153,58 -37,13 -84,29 -112,56 -43,41 -71,96 -85,153l-10 0 0 -1600 1200 0zm-3000 1300l0 200 857 0 0 -200 -857 0zm0 -600l0 200 1200 0 0 -200 -1200 0zm0 -600l0 200 1200 0 0 -200 -1200 0z"/>
</svg>