<?xml version="1.0" encoding="UTF-8"?>
<!DOCTYPE svg PUBLIC "-//W3C//DTD SVG 1.1//EN" "http://www.w3.org/Graphics/SVG/1.1/DTD/svg11.dtd">
<svg xmlns="http://www.w3.org/2000/svg" xml:space="preserve" width="580px" height="580px" shape-rendering="geometricPrecision" text-rendering="geometricPrecision" image-rendering="optimizeQuality" fill-rule="nonzero" clip-rule="nonzero" viewBox="0 0 5800 5800" xmlns:xlink="http://www.w3.org/1999/xlink">
	<title>id_card icon</title>
	<desc>id_card icon from the IconExperience.com I-Collection. Copyright by INCORS GmbH (www.incors.com).</desc>
		<path id="curve28"  d="M700 1300l4400 0c220,0 400,180 400,400l0 3000c0,220 -180,400 -400,400l-4400 0c-220,0 -400,-180 -400,-400l0 -3000c0,-220 180,-400 400,-400zm2400 800l0 2600 2000 0 0 -2600 -2000 0zm1800 200l0 1999c-17,-27 -38,-53 -61,-75 -41,-40 -110,-64 -163,-83 -91,-33 -143,-36 -225,-87 -80,-46 -85,-181 -88,-264 71,-69 135,-219 160,-312 83,-41 111,-146 87,-230l17 -271c18,-192 -214,-410 -406,-315 -51,-33 -81,-49 -143,-60 -245,-40 -510,109 -505,377l17 269c-24,83 5,189 87,230 26,94 91,245 160,312 0,81 -11,220 -88,264 -82,51 -134,54 -225,87 -53,19 -122,43 -163,83 -23,22 -44,48 -61,75l0 -1999 1600 0zm-4000 200l0 200 1798 0 0 -200 -1798 0zm2 597l0 200 1798 0 0 -200 -1798 0zm0 603l0 200 1198 0 0 -200 -1198 0z"/>
</svg>