<?xml version="1.0" encoding="UTF-8"?>
<!DOCTYPE svg PUBLIC "-//W3C//DTD SVG 1.1//EN" "http://www.w3.org/Graphics/SVG/1.1/DTD/svg11.dtd">
<svg xmlns="http://www.w3.org/2000/svg" xml:space="preserve" width="580px" height="580px" shape-rendering="geometricPrecision" text-rendering="geometricPrecision" image-rendering="optimizeQuality" fill-rule="nonzero" clip-rule="nonzero" viewBox="0 0 5800 5800" xmlns:xlink="http://www.w3.org/1999/xlink">
	<title>igloo icon</title>
	<desc>igloo icon from the IconExperience.com I-Collection. Copyright by INCORS GmbH (www.incors.com).</desc>
	<path id="curve0"  d="M3600 5100l500 0 0 -600c0,-663 -537,-1200 -1200,-1200 -663,0 -1200,537 -1200,1200l0 600 500 0 0 -600c0,-387 313,-700 700,-700 387,0 700,313 700,700l0 600zm-3300 200l0 -1400c0,-1436 1164,-2600 2600,-2600 1436,0 2600,1164 2600,2600l0 1400c-700,0 -1400,0 -2100,0l0 -800c0,-276 -224,-500 -500,-500 -276,0 -500,224 -500,500l0 800c-700,0 -1400,0 -2100,0zm4000 -200l1000 0 0 -1200c0,-1326 -1074,-2400 -2400,-2400 -1326,0 -2400,1074 -2400,2400l0 1200 1000 0 0 -600c0,-773 627,-1400 1400,-1400 773,0 1400,627 1400,1400l0 600z"/>
</svg>