<?xml version="1.0" encoding="UTF-8"?>
<!DOCTYPE svg PUBLIC "-//W3C//DTD SVG 1.1//EN" "http://www.w3.org/Graphics/SVG/1.1/DTD/svg11.dtd">
<svg xmlns="http://www.w3.org/2000/svg" xml:space="preserve" width="580px" height="580px" shape-rendering="geometricPrecision" text-rendering="geometricPrecision" image-rendering="optimizeQuality" fill-rule="nonzero" clip-rule="nonzero" viewBox="0 0 5800 5800" xmlns:xlink="http://www.w3.org/1999/xlink">
	<title>igloo icon</title>
	<desc>igloo icon from the IconExperience.com I-Collection. Copyright by INCORS GmbH (www.incors.com).</desc>
	<path id="curve0"  d="M3500 4500c0,-331 -269,-600 -600,-600 -331,0 -600,269 -600,600 0,267 0,533 0,800l-800 0 0 -800c0,-773 627,-1400 1400,-1400 773,0 1400,627 1400,1400l0 800 -800 0c0,-267 0,-533 0,-800zm-600 -1600c-884,0 -1600,716 -1600,1600l0 800 -1000 0 0 -1400c0,-1436 1164,-2600 2600,-2600 1436,0 2600,1164 2600,2600l0 1400 -1000 0 0 -800c0,-884 -716,-1600 -1600,-1600z"/>
</svg>