<?xml version="1.0" encoding="utf-8"?>
<!-- Generator: Adobe Illustrator 19.2.1, SVG Export Plug-In . SVG Version: 6.00 Build 0)  -->
<svg version="1.1" id="Ebene_1" xmlns="http://www.w3.org/2000/svg" xmlns:xlink="http://www.w3.org/1999/xlink" x="0px" y="0px"
	 width="580px" height="580px" viewBox="0 0 580 580" style="enable-background:new 0 0 580 580;" xml:space="preserve">
<g>
	<path d="M390,385.9L376.4,400H44.6L30,385.9v-71.8L44.6,300H222v-20H44.6L30,265.9v-71.8L44.6,180h331.8l13.6,14.1V240h20v-54.1
		L394.1,170l15.9-15.9V65.9c-8-8.7-16.7-17.3-25.4-25.9H36.4C27.7,48.6,19,57.2,10,65.9v88.2L25.9,170L10,185.9v88.2L25.9,290
		L10,305.9v88.2L25.9,410L10,425.9v88.2L36.4,540h348.2l25.4-25.9v-88.2L394.1,410l15.9-15.9V340h-20V385.9z M30,74.1L44.6,60h331.8
		L390,74.1v71.8L376.4,160H44.6L30,145.9V74.1z M390,505.9L376.4,520H44.6L30,505.9v-71.8L44.6,420h331.8l13.6,14.1V505.9z"/>
	<polygon points="303.7,280 357.2,226.5 343.1,212.5 272.6,282.9 265.6,290 272.6,297.1 343.1,367.5 357.2,353.3 304,300 569,300 
		569,280 	"/>
</g>
</svg>
