<?xml version="1.0" encoding="UTF-8"?>
<!DOCTYPE svg PUBLIC "-//W3C//DTD SVG 1.1//EN" "http://www.w3.org/Graphics/SVG/1.1/DTD/svg11.dtd">
<svg xmlns="http://www.w3.org/2000/svg" xml:space="preserve" width="580px" height="580px" shape-rendering="geometricPrecision" text-rendering="geometricPrecision" image-rendering="optimizeQuality" fill-rule="nonzero" clip-rule="nonzero" viewBox="0 0 5800 5800" xmlns:xlink="http://www.w3.org/1999/xlink">
	<title>inbox icon</title>
	<desc>inbox icon from the IconExperience.com I-Collection. Copyright by INCORS GmbH (www.incors.com).</desc>
		<path id="curve28"  d="M5500 5100l-5200 0 0 -2400 313 0c218,0 408,110 518,298l353 605c111,191 297,297 518,297l1796 0c221,0 407,-106 518,-297l353 -605c110,-188 300,-298 518,-298l313 0 0 2400zm-1357 -1598c-75,128 -196,198 -345,198l-1796 0c-149,0 -270,-70 -345,-198l2486 0zm-2721 -402l2956 0 -117 200 -2722 0 -117 -200z"/>
</svg>