<?xml version="1.0" encoding="UTF-8"?>
<!DOCTYPE svg PUBLIC "-//W3C//DTD SVG 1.1//EN" "http://www.w3.org/Graphics/SVG/1.1/DTD/svg11.dtd">
<svg xmlns="http://www.w3.org/2000/svg" xml:space="preserve" width="580px" height="580px" shape-rendering="geometricPrecision" text-rendering="geometricPrecision" image-rendering="optimizeQuality" fill-rule="nonzero" clip-rule="nonzero" viewBox="0 0 5800 5800" xmlns:xlink="http://www.w3.org/1999/xlink">
	<title>inbox icon</title>
	<desc>inbox icon from the IconExperience.com I-Collection. Copyright by INCORS GmbH (www.incors.com).</desc>
		<path id="curve28"  d="M5300 4900l0 -2000 -113 0c-148,0 -271,70 -345,198l-353 605c-73,126 -173,225 -292,293 -118,68 -254,104 -399,104l-1796 0c-145,0 -281,-36 -399,-104 -119,-68 -219,-167 -292,-293l-353 -605c-74,-128 -197,-198 -345,-198l-113 0 0 2000 4800 0zm200 200l-5200 0 0 -2400 313 0c218,0 408,110 518,298l353 605c55,95 130,170 218,220 87,50 189,77 300,77l1796 0c111,0 213,-27 300,-77 88,-50 163,-125 218,-220l353 -605c110,-188 300,-298 518,-298l313 0 0 2400zm-4078 -2000l2956 0 -117 200 -2722 0 -117 -200zm2721 402c-75,128 -196,198 -345,198l-1796 0c-149,0 -270,-70 -345,-198l2486 0z"/>
</svg>