<?xml version="1.0" encoding="UTF-8"?>
<!DOCTYPE svg PUBLIC "-//W3C//DTD SVG 1.1//EN" "http://www.w3.org/Graphics/SVG/1.1/DTD/svg11.dtd">
<svg xmlns="http://www.w3.org/2000/svg" xml:space="preserve" width="580px" height="580px" shape-rendering="geometricPrecision" text-rendering="geometricPrecision" image-rendering="optimizeQuality" fill-rule="nonzero" clip-rule="nonzero" viewBox="0 0 5800 5800" xmlns:xlink="http://www.w3.org/1999/xlink">
	<title>index2 icon</title>
	<desc>index2 icon from the IconExperience.com I-Collection. Copyright by INCORS GmbH (www.incors.com).</desc>
		<path id="curve29"  d="M2680 3700l0 1200 -200 0 0 -1220c65,12 132,19 200,20zm300 -2367l841 -1094 158 122 -794 1032 1012 -925 134 147 -961 878 1157 -734 107 168 -1098 698 1265 -522 76 184 -1204 497 1339 -295 43 194 -1272 281 1370 -58 8 199 -1301 55 1358 180 -26 198 -1289 -171 1305 413 -60 191 -1241 -393 1214 633 -92 177 -1155 -603 1087 836 -122 158 -1032 -794 925 1012 -147 134 -878 -961 734 1157 -168 107 -698 -1098 522 1265 -184 76 -497 -1204 295 1339 -194 43 -281 -1272 56 1317 -199 0 -53 -1249c497,-146 860,-606 860,-1151 0,-566 -392,-1041 -920,-1167zm-544 2338l-106 1229 -200 0 110 -1291c63,26 128,47 196,62zm-201 -64l-279 1293 -8 0 -188 -41 275 -1269 55 -56c47,27 95,52 145,73zm-230 12l-455 1117 -34 -14c-51,-57 -87,-115 -104,-176l217 -534c93,-110 198,-215 286,-303l90 -90zm-1165 575l-133 -120 927 -1023c10,20 21,39 32,59l-175 175c-227,227 -472,479 -602,778 -20,44 -36,88 -49,131zm793 -1145l-1047 812 -122 -158 1090 -846c21,67 47,131 79,192zm-80 -194l-1171 618 -93 -176 1221 -644c8,69 23,137 43,202zm-44 -204l-1261 405 -61 -190 1314 -422c-1,18 -1,37 -1,56 0,51 3,101 9,151zm1454 1020l0 1229 -200 0 0 -1202c69,-3 135,-13 200,-27z"/>
	<path id="curve28"  d="M4700 5100c55,0 100,45 100,100 0,55 -45,100 -100,100l-2800 0c-238,0 -468,-95 -636,-264 -306,-305 -316,-608 -192,-893 116,-266 350,-506 561,-717l996 -997c39,-39 103,-39 142,0 39,39 39,103 0,142l-997 996c-198,199 -418,424 -519,655 -93,213 -83,440 150,673 133,133 308,205 495,205l2800 0zm-2000 -3600c552,0 1000,448 1000,1000 0,552 -448,1000 -1000,1000 -167,0 -324,-41 -463,-113l675 -675c117,-117 117,-307 0,-424 -117,-117 -307,-117 -424,0l-675 675c-72,-139 -113,-296 -113,-463 0,-552 448,-1000 1000,-1000z"/>
</svg>