<?xml version="1.0" encoding="UTF-8"?>
<!DOCTYPE svg PUBLIC "-//W3C//DTD SVG 1.1//EN" "http://www.w3.org/Graphics/SVG/1.1/DTD/svg11.dtd">
<svg xmlns="http://www.w3.org/2000/svg" xml:space="preserve" width="580px" height="580px" shape-rendering="geometricPrecision" text-rendering="geometricPrecision" image-rendering="optimizeQuality" fill-rule="nonzero" clip-rule="nonzero" viewBox="0 0 5800 5800" xmlns:xlink="http://www.w3.org/1999/xlink">
	<title>index icon</title>
	<desc>index icon from the IconExperience.com I-Collection. Copyright by INCORS GmbH (www.incors.com).</desc>
		<path id="curve29" d="M814 5300l-244 -1602c-152,-15 -270,-145 -270,-298l0 -400c0,-165 135,-300 300,-300l4600 0c165,0 300,135 300,300l0 400c0,153 -118,283 -269,298l-245 1602 -4172 0zm172 -200l3828 0 245 -1600 141 0c55,0 100,-45 100,-100l0 -400c0,-55 -45,-100 -100,-100l-4600 0c-55,0 -100,45 -100,100l0 400c0,55 45,100 100,100l141 0 13 85 232 1515z"/>
	<path id="curve28" d="M1500 1300l0 -100c0,-165 135,-300 300,-300l600 0c-44,58 -75,126 -90,200l-510 0c-55,0 -100,45 -100,100l0 100 -200 0zm1000 0l0 -100c0,-165 135,-300 300,-300l600 0c-44,58 -75,126 -90,200l-510 0c-55,0 -100,45 -100,100l0 100 -200 0zm-1600 1200l0 -1000 2600 0 0 -300c0,-165 135,-300 300,-300l800 0c165,0 300,135 300,300l0 1300 -200 0 0 -1300c0,-55 -45,-100 -100,-100l-800 0c-55,0 -100,45 -100,100l0 500 -2600 0 0 800 -200 0z"/>
</svg>