<?xml version="1.0" encoding="UTF-8"?>
<!DOCTYPE svg PUBLIC "-//W3C//DTD SVG 1.1//EN" "http://www.w3.org/Graphics/SVG/1.1/DTD/svg11.dtd">
<svg xmlns="http://www.w3.org/2000/svg" xml:space="preserve" width="580px" height="580px" shape-rendering="geometricPrecision" text-rendering="geometricPrecision" image-rendering="optimizeQuality" fill-rule="nonzero" clip-rule="nonzero" viewBox="0 0 5800 5800" xmlns:xlink="http://www.w3.org/1999/xlink">
	<title>indent_decrease icon</title>
	<desc>indent_decrease icon from the IconExperience.com I-Collection. Copyright by INCORS GmbH (www.incors.com).</desc>
		<path id="curve30"  d="M2700,2900 641,2900 1371,3629 1229,3771 259,2800 1229,1829 1371,1971 641,2700 2700,2700z"/>
	<path id="curve29"  d="M5500 4500c0,133 0,267 0,400l-4600 0c0,-133 0,-267 0,-400l4600 0zm0 -3800c0,133 0,267 0,400l-4600 0c0,-133 0,-267 0,-400l4600 0z"/>
	<path id="curve28"  d="M3100 2100l2400 0 0 200 -2400 0 0 -200zm0 600l2400 0 0 200 -2400 0 0 -200zm0 600l2400 0 0 200 -2400 0 0 -200zm0 -1800l2400 0 0 200 -2400 0 0 -200zm0 2400l1600 0 0 200 -1600 0 0 -200z"/>
</svg>