<?xml version="1.0" encoding="UTF-8"?>
<!DOCTYPE svg PUBLIC "-//W3C//DTD SVG 1.1//EN" "http://www.w3.org/Graphics/SVG/1.1/DTD/svg11.dtd">
<svg xmlns="http://www.w3.org/2000/svg" xml:space="preserve" width="580px" height="580px" shape-rendering="geometricPrecision" text-rendering="geometricPrecision" image-rendering="optimizeQuality" fill-rule="nonzero" clip-rule="nonzero" viewBox="0 0 5800 5800" xmlns:xlink="http://www.w3.org/1999/xlink">
	<title>industrial_robot icon</title>
	<desc>industrial_robot icon from the IconExperience.com I-Collection. Copyright by INCORS GmbH (www.incors.com).</desc>
	<path id="curve0" d="M661 2405l1107 -1107c-21,94 -23,192 -4,287l-961 961c-136,136 -136,359 0,495 135,136 359,136 495,0l846 -846 124 158 -825 825c37,78 57,164 57,255l0 267 -56 0c31,118 25,240 -13,350 -44,127 -131,239 -252,314 -47,28 -109,14 -137,-34 -29,-47 -14,-108 33,-137 80,-49 138,-124 167,-209 30,-84 31,-179 -1,-268 -2,-6 -4,-11 -5,-16l-672 0c-1,5 -3,10 -5,15 -32,90 -31,184 -1,269 29,85 87,159 168,209 47,29 61,91 33,138 -29,47 -91,61 -138,32 -121,-74 -207,-186 -252,-313 -38,-111 -44,-232 -13,-350l-56 0 0 -267c0,-183 83,-356 227,-469 -64,-197 -12,-413 134,-559zm2239 1695l200 0 0 -300c0,-112 19,-221 53,-321l156 198c-6,40 -9,81 -9,123l0 300 1600 0 0 -300c0,-35 -2,-70 -7,-104 60,-69 111,-145 151,-227 36,103 56,215 56,331l0 300 200 0c165,0 300,135 300,300l0 1100 -3000 0 0 -1100c0,-165 135,-300 300,-300zm-1624 -805c-226,101 -494,38 -651,-152 -3,2 -5,5 -8,8 -72,72 -117,172 -117,282l0 67 800 0 0 -67c0,-48 -9,-95 -24,-138zm1624 1005c-55,0 -100,45 -100,100l0 900 2600 0 0 -900c0,-55 -45,-100 -100,-100 -800,0 -1600,0 -2400,0zm1802 -692c-350,350 -934,330 -1244,-64l-835 -1063 -557 -708c-184,-234 -139,-531 67,-734 203,-205 500,-250 733,-67l708 557 1063 835c393,309 417,893 65,1244zm-2428 -2428c-134,132 -172,316 -51,469l557 709 835 1062c236,301 680,313 946,47 267,-267 252,-710 -47,-945l-1063 -836 -708 -557c-154,-120 -337,-83 -469,51z"/>
</svg>