<?xml version="1.0" encoding="UTF-8"?>
<!DOCTYPE svg PUBLIC "-//W3C//DTD SVG 1.1//EN" "http://www.w3.org/Graphics/SVG/1.1/DTD/svg11.dtd">
<svg xmlns="http://www.w3.org/2000/svg" xml:space="preserve" width="580px" height="580px" shape-rendering="geometricPrecision" text-rendering="geometricPrecision" image-rendering="optimizeQuality" fill-rule="nonzero" clip-rule="nonzero" viewBox="0 0 5800 5800" xmlns:xlink="http://www.w3.org/1999/xlink">
	<title>industrial_robot icon</title>
	<desc>industrial_robot icon from the IconExperience.com I-Collection. Copyright by INCORS GmbH (www.incors.com).</desc>
	<path id="curve0"  d="M661 2405l1107 -1107c-47,215 5,425 141,598l359 457 -829 829c-214,214 -564,214 -778,0 -214,-213 -214,-564 0,-777zm2239 1695l200 0 0 -300c0,-112 19,-221 53,-321l148 188c353,448 1003,516 1448,166 125,-98 225,-221 295,-364 36,103 56,215 56,331l0 300 200 0c165,0 300,135 300,300l0 1100 -3000 0 0 -1100c0,-165 135,-300 300,-300zm-1401 -706c1,13 1,26 1,39l0 267 -56 0c31,118 25,240 -13,350 -44,127 -131,239 -252,314 -47,28 -109,14 -137,-34 -29,-47 -14,-108 33,-137 80,-49 138,-124 167,-209 30,-84 31,-179 -1,-268 -2,-6 -4,-11 -5,-16l-672 0c-1,5 -3,10 -5,15 -32,90 -31,184 -1,269 29,85 87,159 168,209 47,29 61,91 33,138 -29,47 -91,61 -138,32 -121,-74 -207,-186 -252,-313 -38,-111 -44,-232 -13,-350l-56 0 0 -267c0,-109 30,-212 81,-301 35,69 81,134 139,192 146,146 338,219 530,219 158,0 316,-50 449,-149zm3126 282c-358,282 -882,229 -1167,-132l-1392 -1771c-184,-234 -139,-531 67,-734 203,-205 500,-250 733,-67l1771 1392c27,21 51,43 74,66 353,353 305,939 -86,1246z"/>
</svg>