<?xml version="1.0" encoding="UTF-8"?>
<!DOCTYPE svg PUBLIC "-//W3C//DTD SVG 1.1//EN" "http://www.w3.org/Graphics/SVG/1.1/DTD/svg11.dtd">
<svg xmlns="http://www.w3.org/2000/svg" xml:space="preserve" width="580px" height="580px" shape-rendering="geometricPrecision" text-rendering="geometricPrecision" image-rendering="optimizeQuality" fill-rule="nonzero" clip-rule="nonzero" viewBox="0 0 5800 5800" xmlns:xlink="http://www.w3.org/1999/xlink">
	<title>industrial_machine icon</title>
	<desc>industrial_machine icon from the IconExperience.com I-Collection. Copyright by INCORS GmbH (www.incors.com).</desc>
	<path id="curve0"  d="M959 2100l1800 -1800 2600 0 -1800 1800 -2600 0zm2141 600l-195 0 0 600 -250 0 0 -600 -230 0 0 600 -250 0 0 -600 -230 0 0 600 -250 0 0 -600 -195 0 0 676 -600 600 0 -1676 2600 0 0 2600 -1176 0 776 -776c0,-474 0,-949 0,-1424zm-200 1341l-800 800 0 659 -200 0 0 -459 -29 30c-20,19 -45,29 -71,29l-900 0 0 400 -200 0 0 -400 -400 0c-90,0 -133,-110 -70,-172 443,-443 886,-885 1329,-1328l1341 0 0 441zm2156 -1556c28,-28 44,-67 44,-106l0 -931c0,-106 -130,-160 -205,-83l-752 761c-27,28 -43,65 -43,105l0 921c0,105 129,160 204,84l752 -751zm-756 473l600 -600 0 -715 -600 608 0 707zm1200 -2517l0 2600 -1800 1800 0 -2600 1800 -1800z"/>
</svg>