<?xml version="1.0" encoding="UTF-8"?>
<!DOCTYPE svg PUBLIC "-//W3C//DTD SVG 1.1//EN" "http://www.w3.org/Graphics/SVG/1.1/DTD/svg11.dtd">
<svg xmlns="http://www.w3.org/2000/svg" xml:space="preserve" width="580px" height="580px" shape-rendering="geometricPrecision" text-rendering="geometricPrecision" image-rendering="optimizeQuality" fill-rule="nonzero" clip-rule="nonzero" viewBox="0 0 5800 5800" xmlns:xlink="http://www.w3.org/1999/xlink">
	<title>industrial_machine icon</title>
	<desc>industrial_machine icon from the IconExperience.com I-Collection. Copyright by INCORS GmbH (www.incors.com).</desc>
	<path id="curve0" d="M5056 2485l-752 751c-76,76 -204,21 -204,-84l0 -921c0,-40 16,-77 43,-105l752 -761c75,-77 205,-23 205,83l0 931c0,39 -16,78 -44,106zm-4156 2615l0 400 -200 0 0 -400 -400 0c-90,0 -133,-110 -70,-172 424,-423 847,-846 1270,-1269l0 -959 195 0 0 600 250 0 0 -600 230 0 0 600 250 0 0 -600 230 0 0 600 250 0 0 -600 195 0c0,380 0,761 0,1141 -333,334 -667,667 -1000,1000l0 659 -200 0 0 -459 -29 30c-20,19 -45,29 -71,29l-900 0zm1859 -4800l2741 0 0 2741 -1859 1859 -1317 0 200 -200 976 0 0 -2400 -2400 0 0 1476 -200 200 0 -1817 1859 -1859zm-1518 1800l2318 0 1600 -1600 -2318 0 -1600 1600zm2459 141l0 2318 1600 -1600 0 -2318 -1600 1600zm-841 1559l-1218 0 -1100 1100 1218 0 1100 -1100zm1441 -842l600 -600 0 -715 -600 608 0 707z"/>
</svg>