<?xml version="1.0" encoding="utf-8"?>
<!-- Generator: Adobe Illustrator 22.0.0, SVG Export Plug-In . SVG Version: 6.00 Build 0)  -->
<svg version="1.1" id="Ebene_1" xmlns="http://www.w3.org/2000/svg" xmlns:xlink="http://www.w3.org/1999/xlink" x="0px" y="0px"
	 viewBox="0 0 580 580" style="enable-background:new 0 0 580 580;" xml:space="preserve">
<style type="text/css">
	.st0{enable-background:new    ;}
</style>
<g id="inform_x5F_gi">
	<g id="Blase_groß">
		<path d="M231.7,19.4C124.7,19.4,38,87.1,38,170.7c0,45.3,25.5,86,65.9,113.7l-45,37.6h156.2h16.6c107,0,193.7-67.7,193.7-151.3
			S338.7,19.4,231.7,19.4z M231.7,302h-16.6H113.9l22.9-19.2l-21.7-14.9C78.8,243,58,207.5,58,170.7c0-72.4,77.9-131.3,173.7-131.3
			s173.7,58.9,173.7,131.3S327.4,302,231.7,302z"/>
		<path d="M203.7,247c0-15.9,11.1-27.3,27-27.3c15.9,0,26.4,11.4,26.7,27.3c0,15.6-10.5,27.3-26.7,27.3S203.7,262.6,203.7,247z
			 M213.6,204.7l-6.9-135.9h47.7l-6.6,135.9H213.6z"/>
	</g>
	<g id="Blase_klein">
		<path d="M543.7,440.7c0-66.9-69.3-121-154.9-121s-154.9,54.2-154.9,121s69.3,121,154.9,121h13.3h125l-36-30.1
			C523.3,509.5,543.7,477,543.7,440.7z M471.9,541.8H402h-13.3c-36.9,0-71.5-11.1-97.2-31.2c-24.3-19-37.7-43.8-37.7-69.8
			s13.4-50.9,37.7-69.8c25.8-20.1,60.3-31.2,97.3-31.2s71.5,11.1,97.3,31.2c24.3,19,37.7,43.8,37.7,69.8c0,28.1-16,55.2-44,74.4
			L458,530.1L471.9,541.8z"/>
		<g class="st0">
			<path d="M389.6,526c-8.6,0-14.2-6.5-14.2-14.9c0-8.6,5.5-14.9,14.2-14.9c8.2,0,14.2,6.2,14.2,14.9C403.7,519.5,398,526,389.6,526
				z M381.4,476.8l-3.4-115.2h23l-3.4,115.2H381.4z"/>
		</g>
	</g>
</g>
</svg>
