<?xml version="1.0" encoding="UTF-8"?>
<!DOCTYPE svg PUBLIC "-//W3C//DTD SVG 1.1//EN" "http://www.w3.org/Graphics/SVG/1.1/DTD/svg11.dtd">
<svg xmlns="http://www.w3.org/2000/svg" xml:space="preserve" width="580px" height="580px" shape-rendering="geometricPrecision" text-rendering="geometricPrecision" image-rendering="optimizeQuality" fill-rule="nonzero" clip-rule="nonzero" viewBox="0 0 5800 5800" xmlns:xlink="http://www.w3.org/1999/xlink">
	<title>infusion_drip icon</title>
	<desc>infusion_drip icon from the IconExperience.com I-Collection. Copyright by INCORS GmbH (www.incors.com).</desc>
	<path id="curve0"  d="M1500 300l527 0c72,0 138,24 193,70l160 134c3,3 5,6 8,8l240 240c-104,47 -227,29 -315,-44l-221 -185c-20,-17 -39,-23 -65,-23l-527 0 0 -200zm1200 4400c0,72 -38,137 -100,173l0 627 -200 0 0 -627c-62,-35 -100,-101 -100,-173l-100 0c-110,0 -200,-90 -200,-200l0 -200c0,-59 26,-113 70,-152l0 -48c0,-66 -54,-120 -120,-120 -179,0 -342,-73 -459,-191 -118,-117 -191,-280 -191,-459l0 -2090c0,-116 95,-210 210,-210l119 0c1,-2 3,-3 5,-5l362 -322 154 130 -221 197 1260 0 -660 -659c-39,-39 -39,-103 0,-142 39,-39 103,-39 142,0l800 801 19 0c116,0 210,94 210,210l0 2090c0,179 -73,342 -191,459 -117,118 -280,191 -459,191 -66,0 -120,54 -120,120l0 49c44,37 70,92 70,151l0 200c0,110 -90,200 -200,200l-100 0zm-1167 -1200l767 0 0 -200 -800 0 0 30c0,60 12,117 33,170zm-33 -600l800 0 0 -200 -800 0 0 200zm0 -600l800 0 0 -200 -800 0 0 200zm0 -600l800 0 0 -200 -800 0 0 200zm1524 -1400l1576 0c165,0 300,135 300,300l0 4900 -200 0 0 -4900c0,-55 -45,-100 -100,-100l-1376 0 -200 -200z"/>
</svg>