<?xml version="1.0" encoding="UTF-8"?>
<!DOCTYPE svg PUBLIC "-//W3C//DTD SVG 1.1//EN" "http://www.w3.org/Graphics/SVG/1.1/DTD/svg11.dtd">
<svg xmlns="http://www.w3.org/2000/svg" xml:space="preserve" width="580px" height="580px" shape-rendering="geometricPrecision" text-rendering="geometricPrecision" image-rendering="optimizeQuality" fill-rule="nonzero" clip-rule="nonzero" viewBox="0 0 5800 5800" xmlns:xlink="http://www.w3.org/1999/xlink">
	<title>infusion_drip icon</title>
	<desc>infusion_drip icon from the IconExperience.com I-Collection. Copyright by INCORS GmbH (www.incors.com).</desc>
	<path id="curve0" d="M1500 300l527 0c72,0 138,24 193,70l160 134 248 248c-38,17 -79,26 -120,26 -69,1 -138,-22 -195,-70l-221 -185c-20,-17 -39,-23 -65,-23l-527 0 0 -200zm10 730l119 0 367 -327 154 130 -221 197 1260 0 -660 -659c-39,-39 -39,-103 0,-142 39,-39 103,-39 142,0l800 801 19 0c116,0 210,94 210,210l0 2090c0,358 -292,650 -650,650 -66,0 -120,54 -120,120l0 49c44,37 70,92 70,151l0 200c0,110 -90,200 -200,200l-100 0c0,72 -38,137 -100,173l0 627 -200 0 0 -627c-62,-35 -100,-101 -100,-173l-100 0c-110,0 -200,-90 -200,-200l0 -200c0,-59 26,-113 70,-152l0 -48c0,-66 -54,-120 -120,-120 -358,0 -650,-292 -650,-650l0 -2090c0,-116 95,-210 210,-210zm1290 3280l-600 0 0 190 600 0 0 -190zm224 -4010l1576 0c165,0 300,135 300,300l0 4900 -200 0 0 -4900c0,-55 -45,-100 -100,-100l-1376 0 -200 -200zm-754 3800l462 0c0,-176 142,-320 318,-320 248,0 450,-202 450,-450l0 -2090c0,-5 -5,-10 -10,-10l-1980 0c-6,0 -10,4 -10,10l0 260 800 0 0 200 -800 0 0 400 800 0 0 200 -800 0 0 400 800 0 0 200 -800 0 0 400 800 0 0 200 -767 0c70,168 234,280 417,280 176,0 320,144 320,320z"/>
</svg>