<?xml version="1.0" encoding="UTF-8"?>
<!DOCTYPE svg PUBLIC "-//W3C//DTD SVG 1.1//EN" "http://www.w3.org/Graphics/SVG/1.1/DTD/svg11.dtd">
<svg xmlns="http://www.w3.org/2000/svg" xml:space="preserve" width="580px" height="580px" shape-rendering="geometricPrecision" text-rendering="geometricPrecision" image-rendering="optimizeQuality" fill-rule="nonzero" clip-rule="nonzero" viewBox="0 0 5800 5800" xmlns:xlink="http://www.w3.org/1999/xlink">
	<title>injection icon</title>
	<desc>injection icon from the IconExperience.com I-Collection. Copyright by INCORS GmbH (www.incors.com).</desc>
	<path id="curve0"  d="M5239 1268l-996 996 -141 -142 990 -990 -424 -424 -990 990 -142 -141 996 -996 -216 -216 141 -142 1132 1132 -142 141 -208 -208zm-3683 3117l-1113 1114 215 -499 757 -757 -283 -283c-77,-77 -78,-204 0,-282l1980 -1980 -424 -424 141 -142c613,613 1226,1226 1839,1839l-142 141 -424 -424 -1980 1980c-78,78 -205,77 -282,0l-284 -283zm2405 -1839l-707 -707 -1980 1980c0,0 706,707 707,707 0,0 258,-258 283,-283l-354 -353 141 -141 354 353 283 -283 -354 -353 142 -142 353 354 283 -283 -353 -354 141 -141 354 354 282 -283 -353 -354 141 -141 354 353 283 -283z"/>
</svg>