<?xml version="1.0" encoding="UTF-8"?>
<!DOCTYPE svg PUBLIC "-//W3C//DTD SVG 1.1//EN" "http://www.w3.org/Graphics/SVG/1.1/DTD/svg11.dtd">
<svg xmlns="http://www.w3.org/2000/svg" xml:space="preserve" width="580px" height="580px" shape-rendering="geometricPrecision" text-rendering="geometricPrecision" image-rendering="optimizeQuality" fill-rule="nonzero" clip-rule="nonzero" viewBox="0 0 5800 5800" xmlns:xlink="http://www.w3.org/1999/xlink">
	<title>injection icon</title>
	<desc>injection icon from the IconExperience.com I-Collection. Copyright by INCORS GmbH (www.incors.com).</desc>
	<path id="curve0"  d="M1556 4385l-1113 1114 215 -499 757 -757 -283 -283c-77,-77 -78,-204 0,-282l1980 -1980 -424 -424 141 -142c613,613 1226,1226 1839,1839l-142 141 -424 -424 -1980 1980c-78,78 -205,77 -282,0l-284 -283zm2122 -1556l-354 -353 -141 141 353 354 142 -142zm-424 425l-354 -354 -141 141 353 354 142 -141zm-425 424l-353 -354 -142 142 354 353 141 -141zm-424 424l-354 -353 -141 141 354 353 141 -141zm1131 -2545l996 -996 -216 -216 141 -142 1132 1132 -142 141 -208 -208 -996 996 -707 -707z"/>
</svg>