<?xml version="1.0" encoding="UTF-8"?>
<!DOCTYPE svg PUBLIC "-//W3C//DTD SVG 1.1//EN" "http://www.w3.org/Graphics/SVG/1.1/DTD/svg11.dtd">
<svg xmlns="http://www.w3.org/2000/svg" xml:space="preserve" width="580px" height="580px" shape-rendering="geometricPrecision" text-rendering="geometricPrecision" image-rendering="optimizeQuality" fill-rule="nonzero" clip-rule="nonzero" viewBox="0 0 5800 5800" xmlns:xlink="http://www.w3.org/1999/xlink">
	<title>inkpot icon</title>
	<desc>inkpot icon from the IconExperience.com I-Collection. Copyright by INCORS GmbH (www.incors.com).</desc>
	<path id="curve0"  d="M2400 3300l1000 0c165,0 300,135 300,300 0,72 -26,138 -69,190 476,204 669,317 669,910l0 500c0,165 -135,300 -300,300l-2200 0c-165,0 -300,-135 -300,-300l0 -500c0,-589 214,-715 669,-910 -43,-52 -69,-118 -69,-190 0,-165 135,-300 300,-300zm523 -202c-321,-182 -310,-621 -218,-929 21,-71 47,-137 76,-194 288,-582 665,-1116 1115,-1584 226,-235 593,-255 844,-47 250,208 298,574 108,839 -345,482 -657,982 -898,1525 -136,309 -507,506 -839,455 116,-349 260,-684 431,-1003 217,-405 477,-785 773,-1132 36,-42 31,-105 -11,-141 -42,-36 -105,-31 -141,11 -305,358 -573,749 -797,1168 -176,329 -325,674 -443,1032z"/>
</svg>