<?xml version="1.0" encoding="UTF-8"?>
<!DOCTYPE svg PUBLIC "-//W3C//DTD SVG 1.1//EN" "http://www.w3.org/Graphics/SVG/1.1/DTD/svg11.dtd">
<svg xmlns="http://www.w3.org/2000/svg" xml:space="preserve" width="580px" height="580px" shape-rendering="geometricPrecision" text-rendering="geometricPrecision" image-rendering="optimizeQuality" fill-rule="nonzero" clip-rule="nonzero" viewBox="0 0 5800 5800" xmlns:xlink="http://www.w3.org/1999/xlink">
	<title>inkpot icon</title>
	<desc>inkpot icon from the IconExperience.com I-Collection. Copyright by INCORS GmbH (www.incors.com).</desc>
	<path id="curve0"  d="M2400 3300l459 0c261,-882 707,-1702 1304,-2402 36,-42 99,-47 141,-11 42,36 47,99 11,141 -567,664 -992,1437 -1247,2272l332 0c165,0 300,135 300,300 0,72 -26,138 -69,190 476,204 669,317 669,910l0 500c0,165 -135,300 -300,300l-2200 0c-165,0 -300,-135 -300,-300l0 -500c0,-589 214,-715 669,-910 -43,-52 -69,-118 -69,-190 0,-165 135,-300 300,-300zm980 600l-960 0 -86 36c-432,184 -634,270 -634,764l0 500c0,55 45,100 100,100l2200 0c55,0 100,-45 100,-100l0 -500c0,-494 -180,-571 -629,-761l-91 -39zm-619 -948c-152,-218 -128,-542 -56,-783 21,-71 47,-137 76,-194 144,-292 310,-571 496,-834 187,-266 394,-516 619,-750 226,-235 593,-255 844,-47 250,208 298,574 108,839 -179,250 -345,499 -494,749 -150,251 -285,509 -404,776 -111,251 -361,416 -628,454 26,-74 53,-149 81,-222 157,-51 297,-159 365,-312 120,-272 259,-537 415,-798 156,-262 325,-515 502,-763 130,-181 98,-428 -73,-570 -170,-141 -419,-127 -572,32 -218,226 -418,469 -600,727 -180,255 -341,525 -481,807 -23,47 -45,102 -63,163 -42,140 -65,310 -35,456 -35,89 -68,179 -100,270zm639 548l-1000 0c-55,0 -100,45 -100,100 0,55 45,100 100,100l1000 0c55,0 100,-45 100,-100 0,-55 -45,-100 -100,-100z"/>
</svg>