<?xml version="1.0" encoding="utf-8"?>
<!-- Generator: Adobe Illustrator 20.1.0, SVG Export Plug-In . SVG Version: 6.00 Build 0)  -->
<svg version="1.1" id="Ebene_1" xmlns="http://www.w3.org/2000/svg" xmlns:xlink="http://www.w3.org/1999/xlink" x="0px" y="0px"
	 width="580px" height="580px" viewBox="0 0 580 580" style="enable-background:new 0 0 580 580;" xml:space="preserve">
<path id="curve28_84_" d="M170,490l0.1-21.1c5.9-50.8,40.3-63.3,71-74.4c20.5-7.4,38.9-14.1,38.9-34.5v-80c0-9.9-4.2-19.1-10.6-27.2
	c-8.4-10.6-20.5-19.3-32.7-25.3c-9.9-4.9-21.5-13-30.6-21.1c-9.3-8.3-16.5-17.2-18-24.3l-2.7-12.1c69.7,0,139.5,0,209.2,0l-2.7,12.1
	c-1.5,7.1-8.7,16-18,24.3c-9.1,8.1-20.7,16.2-30.6,21.1c-12.2,6-24.3,14.7-32.7,25.3c-6.4,8.1-10.6,17.3-10.6,27.2v80
	c0,20.4,18.4,27.1,38.9,34.5c30.7,11.1,65.1,23.6,71,74.4L410,490h20l-0.2-30c-0.3-56.1-33.6-107-85.4-129
	c-16.2-6.9-24.2-24.1-24.2-41s8-34.1,24.3-41c51.8-21.9,85.5-72.7,85.5-129V90H150v30c0,56.3,33.7,107.1,85.5,129
	c16.3,6.9,24.2,24.1,24.2,41c0,16.8-8,34-24.2,40.9c-51.9,21.8-86.1,72.6-85.8,129.1l0.2,30H170z M110,510v20h360v-20
	C350,510,230,510,110,510z M130,490l-0.2-30c-0.4-64.5,38.6-122.5,98-147.5c8.5-3.6,11.9-13.9,11.9-22.5s-3.4-19-11.9-22.6
	c-59.3-25-97.8-83.1-97.8-147.4V90H90V30h400c0,20,0,40,0,60h-40v30c0,64.3-38.5,122.4-97.8,147.4c-8.6,3.6-12.1,13.9-12.1,22.6
	c0,8.7,3.5,19,12.1,22.7c59.2,25.1,97.1,83.1,97.5,147.3l0.2,30H490c0,20,0,40,0,60H90c0-20,0-40,0-60H130z M110,70h360V50H110V70z"
	/>
</svg>
