<?xml version="1.0" encoding="UTF-8"?>
<!DOCTYPE svg PUBLIC "-//W3C//DTD SVG 1.1//EN" "http://www.w3.org/Graphics/SVG/1.1/DTD/svg11.dtd">
<svg xmlns="http://www.w3.org/2000/svg" xml:space="preserve" width="580px" height="580px" shape-rendering="geometricPrecision" text-rendering="geometricPrecision" image-rendering="optimizeQuality" fill-rule="nonzero" clip-rule="nonzero" viewBox="0 0 5800 5800" xmlns:xlink="http://www.w3.org/1999/xlink">
	<title>install icon</title>
	<desc>install icon from the IconExperience.com I-Collection. Copyright by INCORS GmbH (www.incors.com).</desc>
		<path id="curve28"  d="M300 1700l1659 0 -630 -629 142 -142 870 871 -870 871 -142 -142 630 -629 -1659 0 0 -200zm4826 3800l-4452 0c-36,0 -70,-9 -100,-27 -30,-17 -55,-42 -73,-74 -18,-31 -27,-65 -27,-99 0,-36 9,-70 27,-101l555 -950c27,-47 65,-84 109,-109 45,-26 96,-40 150,-40l3170 0c54,0 105,14 150,40 45,25 82,62 109,109l555 950c18,31 27,65 27,101 0,34 -9,68 -27,99 -18,32 -43,57 -73,74 -30,18 -64,27 -100,27zm-4426 -5200l4400 0 0 3000 -2100 0 0 400 900 0 0 200 -2000 0 0 -200 900 0 0 -400 -2100 0 0 -1200 776 0 -288 288c-78,78 -78,205 0,283l141 141c78,78 205,78 283,0l871 -871c78,-77 78,-205 0,-282l-871 -871c-78,-78 -205,-78 -283,0l-141 141c-78,78 -78,205 0,283l288 288 -776 0 0 -1200zm500 4600l0 200 500 0 0 -200 -500 0zm2900 0l0 200 500 0 0 -200 -500 0zm-2700 -400l0 200 400 0 0 -200 -400 0zm600 0l0 200 200 0 0 -200 -200 0zm400 0l0 200 200 0 0 -200 -200 0zm400 0l0 200 200 0 0 -200 -200 0zm400 0l0 200 200 0 0 -200 -200 0zm400 0l0 200 200 0 0 -200 -200 0zm400 0l0 200 400 0 0 -200 -400 0zm-2100 400l0 200 2000 0 0 -200 -2000 0z"/>
</svg>