<?xml version="1.0" encoding="utf-8"?>
<!-- Generator: Adobe Illustrator 19.2.1, SVG Export Plug-In . SVG Version: 6.00 Build 0)  -->
<svg version="1.1" id="Ebene_1" xmlns="http://www.w3.org/2000/svg" xmlns:xlink="http://www.w3.org/1999/xlink" x="0px" y="0px"
	 width="580px" height="580px" viewBox="0 0 580 580" style="enable-background:new 0 0 580 580;" xml:space="preserve">
<g>
	<path d="M123.1,331.9H16.5v-25.2h106.6V331.9z"/>
	<path d="M289.7,430.7h-32v-242c-2.5,2.5-6.1,5.3-10.8,8.5c-4.8,3.2-10.1,6.3-16,9.5c-5.9,3.1-12.2,6.1-18.8,8.8
		c-6.6,2.7-13,4.9-19.2,6.4v-32.4c7-2,14.5-4.6,22.4-7.9c7.9-3.3,15.6-7,23.2-11.1s14.8-8.4,21.6-12.9c6.8-4.5,12.6-8.9,17.6-13.2
		h12.1V430.7z"/>
	<path d="M563.5,341.9c0,13.7-2.2,26.2-6.6,37.7c-4.4,11.5-10.5,21.4-18.4,29.7c-7.8,8.3-17.1,14.8-27.9,19.4
		c-10.8,4.6-22.5,6.9-35.2,6.9c-14.1,0-26.7-2.9-37.8-8.8s-20.6-14.3-28.3-25.3c-7.7-11-13.6-24.4-17.7-40.3
		c-4-15.9-6.1-33.8-6.1-53.7c0-24.3,2.7-46.5,8.1-66.3c5.4-19.9,13.1-36.8,23-51c10-14.1,22-25,36-32.7
		c14.1-7.7,29.8-11.5,47.1-11.5c19.3,0,34.8,2.7,46.5,8v30.3c-14.5-7.4-29.7-11.1-45.7-11.1c-12.5,0-23.8,2.8-33.8,8.4
		c-10,5.6-18.6,13.5-25.8,23.7c-7.2,10.2-12.7,22.6-16.5,37c-3.8,14.5-5.8,30.5-5.8,48.2h0.8c12.9-23.3,34.2-35,63.9-35
		c12.2,0,23.3,2.1,33.1,6.3c9.8,4.2,18.2,10.1,25.2,17.7c7,7.6,12.3,16.7,16.1,27.2C561.6,317.2,563.5,329,563.5,341.9z M530.7,346
		c0-9.8-1.2-18.6-3.7-26.4c-2.5-7.8-6-14.5-10.6-19.9c-4.6-5.5-10.3-9.7-17.1-12.6c-6.8-2.9-14.5-4.4-23-4.4
		c-7.9,0-15.3,1.5-22.1,4.5c-6.8,3-12.6,7.1-17.6,12.2c-5,5.1-8.8,11.1-11.6,18c-2.8,6.8-4.2,14.1-4.2,21.8c0,9.6,1.4,18.7,4.1,27.1
		s6.6,15.7,11.5,22c4.9,6.3,10.8,11.2,17.7,14.7c6.8,3.6,14.4,5.4,22.8,5.4c8.1,0,15.4-1.5,22.1-4.6c6.6-3.1,12.3-7.3,17-12.8
		s8.3-12,10.9-19.6C529.4,363.6,530.7,355.2,530.7,346z"/>
</g>
</svg>
