<?xml version="1.0" encoding="UTF-8"?>
<!DOCTYPE svg PUBLIC "-//W3C//DTD SVG 1.1//EN" "http://www.w3.org/Graphics/SVG/1.1/DTD/svg11.dtd">
<svg xmlns="http://www.w3.org/2000/svg" xml:space="preserve" width="580px" height="580px" shape-rendering="geometricPrecision" text-rendering="geometricPrecision" image-rendering="optimizeQuality" fill-rule="nonzero" clip-rule="nonzero" viewBox="0 0 5800 5800" xmlns:xlink="http://www.w3.org/1999/xlink">
	<title>invoice_euro icon</title>
	<desc>invoice_euro icon from the IconExperience.com I-Collection. Copyright by INCORS GmbH (www.incors.com).</desc>
		<path id="curve28"  d="M1509 3614l365 0c-4,-71 -3,-142 4,-212 6,-69 16,-136 31,-202l-283 0 57 -200 287 0c72,-190 180,-361 313,-500 225,-234 522,-379 836,-379 30,0 59,2 89,4 220,20 416,111 573,254l-63 221c-134,-156 -317,-257 -527,-276 -24,-2 -47,-3 -72,-3 -258,0 -504,122 -692,318 -98,102 -181,225 -242,361l1098 0 -57 200 -1111 0c-19,71 -32,144 -38,219 -6,65 -7,130 -2,195l1034 0 -56 200 -947 0c36,146 100,277 186,384 136,168 326,278 546,298 23,2 47,3 71,3 259,0 504,-121 693,-317 25,-27 49,-54 72,-83l65 228c-225,230 -518,372 -830,372 -29,0 -59,-1 -88,-4 -276,-24 -515,-162 -684,-372 -114,-141 -196,-315 -236,-509l-448 0 56 -200zm2041 -3314c96,0 184,39 247,103 0,2 1000,1000 1000,1000 64,63 103,151 103,247l0 3850 -4000 0 0 -5200 2650 0zm350 488l0 512 512 0 -512 -512zm-350 -288l-2450 0 0 4800 3600 0 0 -3650c0,-83 -67,-150 -150,-150l-850 0 0 -850c0,-82 -68,-150 -150,-150z"/>
</svg>