<?xml version="1.0" encoding="UTF-8"?>
<!DOCTYPE svg PUBLIC "-//W3C//DTD SVG 1.1//EN" "http://www.w3.org/Graphics/SVG/1.1/DTD/svg11.dtd">
<svg xmlns="http://www.w3.org/2000/svg" xml:space="preserve" width="580px" height="580px" shape-rendering="geometricPrecision" text-rendering="geometricPrecision" image-rendering="optimizeQuality" fill-rule="nonzero" clip-rule="nonzero" viewBox="0 0 5800 5800" xmlns:xlink="http://www.w3.org/1999/xlink">
	<title>invoice_dollar icon</title>
	<desc>invoice_dollar icon from the IconExperience.com I-Collection. Copyright by INCORS GmbH (www.incors.com).</desc>
		<path id="curve28"  d="M3550 300c96,0 184,39 247,103 0,2 1000,1000 1000,1000 64,63 103,151 103,247l0 3850 -4000 0 0 -5200 2650 0zm350 3700c0,387 -313,700 -700,700l-200 0 0 200 -200 0 0 -200 -200 0c-387,0 -700,-313 -700,-700l200 0c0,276 224,500 500,500l200 0 0 -1000 -200 0c-387,0 -700,-313 -700,-700 0,-387 313,-700 700,-700l200 0 0 -208 200 0 0 208 200 0c387,0 700,313 700,700l-200 0c0,-276 -224,-500 -500,-500l-200 0 0 1000 200 0c387,0 700,313 700,700zm-200 0c0,-276 -224,-500 -500,-500l-200 0 0 1000 200 0c276,0 500,-224 500,-500zm-900 -700l0 -1000 -200 0c-276,0 -500,224 -500,500 0,276 224,500 500,500l200 0zm1100 -2512l0 512 512 0 -512 -512zm-350 -288l-2450 0 0 4800 3600 0 0 -3650c0,-83 -67,-150 -150,-150l-850 0 0 -850c0,-82 -68,-150 -150,-150z"/>
</svg>