<?xml version="1.0" encoding="UTF-8"?>
<!DOCTYPE svg PUBLIC "-//W3C//DTD SVG 1.1//EN" "http://www.w3.org/Graphics/SVG/1.1/DTD/svg11.dtd">
<svg xmlns="http://www.w3.org/2000/svg" xml:space="preserve" width="580px" height="580px" shape-rendering="geometricPrecision" text-rendering="geometricPrecision" image-rendering="optimizeQuality" fill-rule="nonzero" clip-rule="nonzero" viewBox="0 0 5800 5800" xmlns:xlink="http://www.w3.org/1999/xlink">
	<title>invoice_dollar icon</title>
	<desc>invoice_dollar icon from the IconExperience.com I-Collection. Copyright by INCORS GmbH (www.incors.com).</desc>
		<path id="curve28"  d="M3500 300l0 1400 1400 0 0 3800 -4000 0 0 -5200 2600 0zm-500 1592l-200 0 0 208 -200 0c-387,0 -700,313 -700,700 0,387 313,700 700,700l200 0 0 1000 -200 0c-276,0 -500,-224 -500,-500l-200 0c0,387 313,700 700,700l200 0 0 200 200 0 0 -200 200 0c387,0 700,-313 700,-700 0,-387 -313,-700 -700,-700l-200 0 0 -1000 200 0c276,0 500,224 500,500l200 0c0,-387 -313,-700 -700,-700l-200 0 0 -208zm0 1608l0 1000 200 0c276,0 500,-224 500,-500 0,-276 -224,-500 -500,-500l-200 0zm-200 -200l0 -1000 -200 0c-276,0 -500,224 -500,500 0,276 224,500 500,500l200 0zm844 -2987c59,16 111,48 153,90 0,3 998,999 1000,1000 42,42 74,94 90,153 -36,-34 -85,-56 -137,-56l-1050 0 0 -1050c0,-51 -21,-100 -56,-137z"/>
</svg>