<?xml version="1.0" encoding="UTF-8"?>
<!DOCTYPE svg PUBLIC "-//W3C//DTD SVG 1.1//EN" "http://www.w3.org/Graphics/SVG/1.1/DTD/svg11.dtd">
<svg xmlns="http://www.w3.org/2000/svg" xml:space="preserve" width="580px" height="580px" shape-rendering="geometricPrecision" text-rendering="geometricPrecision" image-rendering="optimizeQuality" fill-rule="nonzero" clip-rule="nonzero" viewBox="0 0 5800 5800" xmlns:xlink="http://www.w3.org/1999/xlink">
	<title>invoice_euro icon</title>
	<desc>invoice_euro icon from the IconExperience.com I-Collection. Copyright by INCORS GmbH (www.incors.com).</desc>
		<path id="curve28"  d="M3500 300l0 1400 1400 0 0 3800 -4000 0 0 -5200 2600 0zm144 13c59,16 111,48 153,90 0,3 998,999 1000,1000 42,42 74,94 90,153 -36,-34 -85,-56 -137,-56l-1050 0 0 -1050c0,-51 -21,-100 -56,-137zm-2135 3301l-56 200 448 0c40,194 122,368 236,509 169,210 408,348 684,372 29,3 59,4 88,4 312,0 605,-142 830,-372l-65 -228c-23,29 -47,56 -72,83 -189,196 -434,317 -693,317 -24,0 -48,-1 -71,-3 -220,-20 -410,-130 -546,-298 -86,-107 -150,-238 -186,-384l947 0 56 -200 -1034 0c-5,-65 -4,-130 2,-195 6,-75 19,-148 38,-219l1111 0 57 -200 -1098 0c61,-136 144,-259 242,-361 188,-196 434,-318 692,-318 25,0 48,1 72,3 210,19 393,120 527,276l63 -221c-157,-143 -353,-234 -573,-254 -30,-2 -59,-4 -89,-4 -314,0 -611,145 -836,379 -133,139 -241,310 -313,500l-287 0 -57 200 283 0c-15,66 -25,133 -31,202 -7,70 -8,141 -4,212l-365 0z"/>
</svg>