<?xml version="1.0" encoding="UTF-8"?>
<!DOCTYPE svg PUBLIC "-//W3C//DTD SVG 1.1//EN" "http://www.w3.org/Graphics/SVG/1.1/DTD/svg11.dtd">
<svg xmlns="http://www.w3.org/2000/svg" xml:space="preserve" width="580px" height="580px" shape-rendering="geometricPrecision" text-rendering="geometricPrecision" image-rendering="optimizeQuality" fill-rule="nonzero" clip-rule="nonzero" viewBox="0 0 5800 5800" xmlns:xlink="http://www.w3.org/1999/xlink">
	<title>jackhammer icon</title>
	<desc>jackhammer icon from the IconExperience.com I-Collection. Copyright by INCORS GmbH (www.incors.com).</desc>
		<path id="curve28"  d="M3300 2699l0 801 -300 0 0 1088 100 400 0 512c-134,0 -266,0 -400,0l3 -512 97 -399 0 -1089 -300 0 0 -802c-97,-13 -206,-94 -200,-201l0 -214c-119,-43 -200,-156 -200,-283l0 -700 -200 0 0 -200 -700 0c-55,0 -100,-45 -100,-100 0,-55 45,-100 100,-100l700 0 0 -200 200 0 0 -100c0,-165 135,-300 300,-300l200 0 0 600 200 0 0 -600 200 0 0 600 200 0 0 -600 200 0c165,0 300,135 300,300l0 100 200 0 0 200 700 0c55,0 100,45 100,100 0,55 -45,100 -100,100l-700 0 0 200 -200 0 0 700c0,127 -81,240 -200,283l0 217c0,105 -103,185 -200,199z"/>
</svg>