<?xml version="1.0" encoding="UTF-8"?>
<!DOCTYPE svg PUBLIC "-//W3C//DTD SVG 1.1//EN" "http://www.w3.org/Graphics/SVG/1.1/DTD/svg11.dtd">
<svg xmlns="http://www.w3.org/2000/svg" xml:space="preserve" width="580px" height="580px" shape-rendering="geometricPrecision" text-rendering="geometricPrecision" image-rendering="optimizeQuality" fill-rule="nonzero" clip-rule="nonzero" viewBox="0 0 5800 5800" xmlns:xlink="http://www.w3.org/1999/xlink">
	<title>jackhammer icon</title>
	<desc>jackhammer icon from the IconExperience.com I-Collection. Copyright by INCORS GmbH (www.incors.com).</desc>
		<path id="curve28"  d="M2700 5500l3 -512 97 -399 0 -1089 -300 0 0 -802c0,0 1,0 0,0 -97,-13 -206,-94 -200,-201l0 -214c-119,-43 -200,-156 -200,-283l0 -700 -200 0 0 -200 -700 0c-55,0 -100,-45 -100,-100 0,-55 45,-100 100,-100l700 0 0 -200 200 0 0 -100c0,-165 135,-300 300,-300l1000 0c83,0 158,34 212,88 54,54 88,129 88,212l0 100 200 0 0 200 700 0c55,0 100,45 100,100 0,55 -45,100 -100,100l-700 0 0 200 -200 0 0 700c0,83 -34,158 -88,212 -31,31 -69,56 -112,71l0 217c0,105 -103,185 -200,198 -1,0 0,0 0,0l0 802 -300 0 0 1088 100 400 0 512c-134,0 -266,0 -400,0zm-300 -3400l100 0 0 389c8,6 18,10 26,11 50,7 93,31 124,67 31,35 50,81 50,131l0 602 400 0 0 -602c0,-50 19,-96 50,-131 31,-36 74,-60 124,-67 8,-1 18,-5 26,-12l0 -388 100 0c55,0 100,-45 100,-100l0 -900 200 0 0 -200 -200 0 0 -300c0,-27 -11,-52 -29,-71 -19,-18 -44,-29 -71,-29l-200 0 0 400 -200 0 0 -400 -200 0 0 400 -200 0 0 -400 -200 0c-55,0 -100,45 -100,100l0 300 -200 0 0 200 200 0 0 900c0,55 45,100 100,100z"/>
</svg>