<?xml version="1.0" encoding="UTF-8"?>
<!DOCTYPE svg PUBLIC "-//W3C//DTD SVG 1.1//EN" "http://www.w3.org/Graphics/SVG/1.1/DTD/svg11.dtd">
<svg xmlns="http://www.w3.org/2000/svg" xml:space="preserve" width="580px" height="580px" shape-rendering="geometricPrecision" text-rendering="geometricPrecision" image-rendering="optimizeQuality" fill-rule="nonzero" clip-rule="nonzero" viewBox="0 0 5800 5800" xmlns:xlink="http://www.w3.org/1999/xlink">
	<title>jar icon</title>
	<desc>jar icon from the IconExperience.com I-Collection. Copyright by INCORS GmbH (www.incors.com).</desc>
		<path id="curve28"  d="M1550 300l2700 0c137,0 250,113 250,250l0 300c0,137 -113,250 -250,250l-150 0 0 107c0,51 35,92 86,99 293,43 514,297 514,594l0 3000c0,331 -269,600 -600,600l-2400 0c-331,0 -600,-269 -600,-600l0 -3000c0,-297 221,-551 514,-594 51,-7 86,-48 86,-99l0 -107 -150 0c-137,0 -250,-113 -250,-250l0 -300c0,-137 113,-250 250,-250zm2700 200l-2700 0c-28,0 -50,22 -50,50l0 300c0,28 22,50 50,50l2700 0c28,0 50,-22 50,-50l0 -300c0,-28 -22,-50 -50,-50zm-350 600l-2000 0 0 107c0,150 -110,276 -257,297 -197,28 -343,198 -343,396l0 3000c0,220 180,400 400,400l2400 0c220,0 400,-180 400,-400l0 -3000c0,-198 -146,-368 -343,-396 -147,-21 -257,-147 -257,-297l0 -107zm200 1000l0 1800 -2400 0 0 -1800 2400 0zm-200 200l-2000 0 0 1400 2000 0 0 -1400z"/>
</svg>