<?xml version="1.0" encoding="UTF-8"?>
<!DOCTYPE svg PUBLIC "-//W3C//DTD SVG 1.1//EN" "http://www.w3.org/Graphics/SVG/1.1/DTD/svg11.dtd">
<svg xmlns="http://www.w3.org/2000/svg" xml:space="preserve" width="580px" height="580px" shape-rendering="geometricPrecision" text-rendering="geometricPrecision" image-rendering="optimizeQuality" fill-rule="nonzero" clip-rule="nonzero" viewBox="0 0 5800 5800" xmlns:xlink="http://www.w3.org/1999/xlink">
	<title>jar_earth icon</title>
	<desc>jar_earth icon from the IconExperience.com I-Collection. Copyright by INCORS GmbH (www.incors.com).</desc>
		<path id="curve28"  d="M1550 300l2700 0c137,0 250,113 250,250l0 300c0,137 -113,250 -250,250l-2700 0c-137,0 -250,-113 -250,-250l0 -300c0,-137 113,-250 250,-250zm2751 3400c0,-768 -624,-1400 -1401,-1400 -773,0 -1400,627 -1400,1400 0,774 627,1401 1400,1401 774,0 1401,-627 1401,-1401zm-1243 -544c-21,-4 -41,-11 -57,-19 -52,-25 -46,-111 -27,-155 25,-55 74,-79 133,-80 24,0 47,2 70,-4 14,-4 47,-40 65,-52 26,-18 -32,-60 -8,-108 21,-42 77,-46 114,-64 24,-11 51,-44 80,-52 -5,-3 -11,-6 -17,-9 -116,-54 -242,-91 -375,-105 -2,11 -10,22 -27,32 -44,26 -47,69 -133,101 -70,26 -137,8 -210,47 -40,21 -105,77 -143,86 -10,3 -20,2 -28,-5 -21,-19 0,-73 7,-96 4,-10 21,-59 19,-67 -12,-16 -100,0 -117,3 -3,1 -6,2 -10,3 -31,14 -62,30 -91,47 20,14 66,28 67,41 3,37 -72,30 -85,95 -2,12 17,58 21,70 21,57 12,150 -58,126 -28,-8 -39,-45 -67,-30 -28,15 -11,94 -48,99 -73,10 -124,69 -179,112 -23,18 -39,113 -88,147 -18,13 -119,78 -126,92 -9,17 -13,36 -14,55 -1,12 -1,24 1,37 4,36 18,73 35,106 9,16 26,45 40,57 33,30 68,-17 116,-2 37,11 64,32 91,58 55,52 133,84 170,128 14,17 16,27 21,48 4,15 15,22 28,30 31,18 72,34 106,47 26,11 122,45 135,70 35,68 -23,109 -39,170 -12,45 28,136 -29,159 -62,27 -105,63 -99,135 3,31 -4,52 -17,79 -10,24 -17,40 -16,67 2,25 11,54 23,80 178,105 386,166 608,166 663,0 1201,-538 1201,-1201 0,-78 -7,-154 -21,-228 -8,21 -6,79 -101,141 -37,50 69,104 1,192 -37,47 -84,109 -107,165 -12,27 -15,46 -12,75 12,104 -20,131 -69,216 -41,72 -71,127 -126,191 -33,38 -154,171 -208,102 -11,-13 -91,-265 -89,-279 7,-55 36,-84 37,-143 1,-45 -51,-111 -59,-158 -1,-7 -11,-63 -15,-68 -52,-52 -46,-120 -119,-95 -51,18 -143,64 -195,43 -94,-37 -185,-132 -205,-232 -5,-23 12,-128 14,-162 3,-41 22,-80 45,-114 10,-13 21,-25 33,-36 12,-12 61,-52 67,-62 19,-33 46,-82 86,-92zm-1357 505c-1,13 -1,26 -1,39 0,319 124,609 327,824 -19,-26 -33,-50 -42,-70 -12,-30 -17,-68 -20,-100 -4,-27 -9,-100 -26,-120 -56,-63 -135,-164 -148,-247 -10,-62 -18,-128 -12,-191 0,-19 -58,-106 -70,-123l-8 -12zm1724 -624c14,16 30,27 48,38 16,9 37,20 42,40 4,16 -7,32 -19,42 -31,25 -70,15 -53,-29 6,-14 -86,-54 -97,-59 -32,-17 -59,-55 -100,-36 -49,23 -71,104 -124,120 32,0 61,-7 91,-17 29,-11 119,-18 147,-8 99,34 63,136 149,150 12,2 36,1 48,0 14,0 40,-2 53,1 48,8 83,29 130,5 23,-11 34,-53 16,-73 -54,-58 -184,-23 -211,-54 -14,-16 -29,-43 -40,-62 -17,-31 -36,-72 -80,-58zm675 -1837c0,55 29,98 86,106 293,43 514,297 514,594l0 3000c0,331 -269,600 -600,600l-2400 0c-331,0 -600,-269 -600,-600l0 -3000c0,-297 221,-551 514,-594 57,-8 86,-51 86,-106l2400 0z"/>
</svg>