<?xml version="1.0" encoding="UTF-8"?>
<!DOCTYPE svg PUBLIC "-//W3C//DTD SVG 1.1//EN" "http://www.w3.org/Graphics/SVG/1.1/DTD/svg11.dtd">
<svg xmlns="http://www.w3.org/2000/svg" xml:space="preserve" width="580px" height="580px" shape-rendering="geometricPrecision" text-rendering="geometricPrecision" image-rendering="optimizeQuality" fill-rule="nonzero" clip-rule="nonzero" viewBox="0 0 5800 5800" xmlns:xlink="http://www.w3.org/1999/xlink">
	<title>jar icon</title>
	<desc>jar icon from the IconExperience.com I-Collection. Copyright by INCORS GmbH (www.incors.com).</desc>
		<path id="curve28"  d="M1550 300l2700 0c137,0 250,113 250,250l0 300c0,137 -113,250 -250,250l-2700 0c-137,0 -250,-113 -250,-250l0 -300c0,-137 113,-250 250,-250zm150 5200c-331,0 -600,-269 -600,-600l0 -3000c0,-297 221,-551 514,-594 57,-8 86,-51 86,-106l2400 0c0,55 29,98 86,106 293,43 514,297 514,594l0 3000c0,331 -269,600 -600,600l-2400 0zm0 -3400l0 1800 2400 0 0 -1800 -2400 0zm2200 200l0 1400 -2000 0 0 -1400 2000 0z"/>
</svg>