<?xml version="1.0" encoding="UTF-8"?>
<!DOCTYPE svg PUBLIC "-//W3C//DTD SVG 1.1//EN" "http://www.w3.org/Graphics/SVG/1.1/DTD/svg11.dtd">
<svg xmlns="http://www.w3.org/2000/svg" xml:space="preserve" width="580px" height="580px" shape-rendering="geometricPrecision" text-rendering="geometricPrecision" image-rendering="optimizeQuality" fill-rule="nonzero" clip-rule="nonzero" viewBox="0 0 5800 5800" xmlns:xlink="http://www.w3.org/1999/xlink">
	<title>jar_cookies icon</title>
	<desc>jar_cookies icon from the IconExperience.com I-Collection. Copyright by INCORS GmbH (www.incors.com).</desc>
		<path id="curve28"  d="M1700 5500c-331,0 -600,-269 -600,-600l0 -3000c0,-297 221,-551 514,-594 51,-7 86,-48 86,-99l0 -107 -150 0c-137,0 -250,-113 -250,-250l0 -300c0,-137 113,-250 250,-250l2700 0c137,0 250,113 250,250l0 300c0,137 -113,250 -250,250l-150 0 0 107c0,51 35,92 86,99 293,43 514,297 514,594l0 3000c0,331 -269,600 -600,600l-2400 0zm1279 -533c-131,41 -276,64 -429,64 -283,0 -540,-78 -728,-205 -199,-135 -322,-324 -322,-537 0,-213 123,-403 322,-537 161,-109 373,-182 609,-201 -17,66 -26,134 -28,204 -183,20 -345,79 -469,162 -145,98 -234,230 -234,372 0,142 89,273 234,371 156,106 374,171 616,171 91,0 179,-9 261,-26 52,57 108,112 168,162zm1338 -569c4,240 -81,450 -255,572 -192,129 -414,125 -624,44 -212,-81 -424,-247 -586,-478 -162,-232 -245,-488 -249,-714 -4,-240 81,-450 255,-572 174,-122 400,-130 624,-44 209,80 419,243 580,471 143,166 252,501 255,721zm-369 408c118,-86 173,-233 170,-405 -4,-223 -92,-420 -213,-602 -139,-198 -317,-339 -494,-407 -163,-62 -323,-60 -439,21 -116,82 -173,231 -170,406 3,188 75,404 213,602 139,198 317,339 494,406 160,62 317,61 439,-21zm302 -3906c28,0 50,-22 50,-50l0 -300c0,-28 -22,-50 -50,-50l-2700 0c-28,0 -50,22 -50,50l0 300c0,28 22,50 50,50l2700 0zm-2550 4400l2400 0c220,0 400,-180 400,-400l0 -3000c0,-198 -146,-368 -343,-396 -147,-21 -257,-147 -257,-297l0 -107 -2000 0 0 107c0,150 -110,276 -257,297 -197,28 -343,198 -343,396l0 3000c0,220 180,400 400,400z"/>
</svg>