<?xml version="1.0" encoding="UTF-8"?>
<!DOCTYPE svg PUBLIC "-//W3C//DTD SVG 1.1//EN" "http://www.w3.org/Graphics/SVG/1.1/DTD/svg11.dtd">
<svg xmlns="http://www.w3.org/2000/svg" xml:space="preserve" width="580px" height="580px" shape-rendering="geometricPrecision" text-rendering="geometricPrecision" image-rendering="optimizeQuality" fill-rule="nonzero" clip-rule="nonzero" viewBox="0 0 5800 5800" xmlns:xlink="http://www.w3.org/1999/xlink">
	<title>jar_coffee_bean icon</title>
	<desc>jar_coffee_bean icon from the IconExperience.com I-Collection. Copyright by INCORS GmbH (www.incors.com).</desc>
		<path id="curve28" d="M1550 300l2700 0c137,0 250,113 250,250l0 300c0,137 -113,250 -250,250l-150 0 0 107c0,51 35,92 86,99 293,43 514,297 514,594l0 3000c0,331 -269,600 -600,600l-2400 0c-331,0 -600,-269 -600,-600l0 -3000c0,-297 221,-551 514,-594 51,-7 86,-48 86,-99l0 -107 -150 0c-137,0 -250,-113 -250,-250l0 -300c0,-137 113,-250 250,-250zm2700 200l-2700 0c-28,0 -50,22 -50,50l0 300c0,28 22,50 50,50l2700 0c28,0 50,-22 50,-50l0 -300c0,-28 -22,-50 -50,-50zm-350 600l-2000 0 0 107c0,150 -110,276 -257,297 -197,28 -343,198 -343,396l0 3000c0,220 180,400 400,400l2400 0c220,0 400,-180 400,-400l0 -3000c0,-198 -146,-368 -343,-396 -147,-21 -257,-147 -257,-297l0 -107zm-539 1788c-262,-130 -504,-187 -720,-179 -212,8 -399,79 -552,208 56,15 111,34 167,55 197,75 379,181 542,317 115,95 221,205 319,330 72,92 150,173 233,243 140,117 297,202 472,254 73,22 149,38 228,48 81,-246 64,-489 -50,-708 -115,-217 -327,-413 -639,-568zm-727 -378c248,-10 523,54 815,199 352,175 594,400 727,654 142,269 161,567 61,869 -29,88 -115,142 -208,131 -92,-12 -180,-31 -263,-55 -202,-60 -383,-158 -544,-293 -93,-78 -180,-169 -262,-273 -89,-114 -186,-214 -290,-300 -145,-121 -308,-217 -485,-284 -13,-5 -160,-51 -160,-51 -69,-19 -122,-73 -138,-144 -16,-70 7,-141 62,-189 189,-163 421,-255 685,-264zm-881 919c-83,249 -69,493 46,712 114,218 327,415 640,571 263,130 506,188 722,179 214,-8 401,-81 554,-211 -61,-16 -120,-35 -179,-57 -202,-75 -387,-183 -553,-321 -115,-96 -221,-206 -319,-331 -73,-92 -150,-173 -233,-242 -137,-115 -291,-200 -462,-252 -69,-21 -141,-37 -216,-48zm-131 804c-141,-271 -159,-570 -57,-873 30,-88 119,-142 211,-129 86,12 169,31 250,55 198,61 375,157 533,290 93,77 180,168 262,272 89,114 186,215 290,301 147,122 315,220 495,287 55,21 112,39 170,54 35,9 66,26 90,51 50,50 68,127 47,194 -11,33 -30,63 -57,86 -190,166 -422,259 -687,269 -249,10 -525,-54 -818,-199 -353,-176 -595,-402 -729,-658z"/>
</svg>