<?xml version="1.0" encoding="UTF-8"?>
<!DOCTYPE svg PUBLIC "-//W3C//DTD SVG 1.1//EN" "http://www.w3.org/Graphics/SVG/1.1/DTD/svg11.dtd">
<svg xmlns="http://www.w3.org/2000/svg" xml:space="preserve" width="580px" height="580px" shape-rendering="geometricPrecision" text-rendering="geometricPrecision" image-rendering="optimizeQuality" fill-rule="nonzero" clip-rule="nonzero" viewBox="0 0 5800 5800" xmlns:xlink="http://www.w3.org/1999/xlink">
	<title>jar_coffee_bean icon</title>
	<desc>jar_coffee_bean icon from the IconExperience.com I-Collection. Copyright by INCORS GmbH (www.incors.com).</desc>
		<path id="curve28"  d="M1550 300l2700 0c137,0 250,113 250,250l0 300c0,137 -113,250 -250,250l-2700 0c-137,0 -250,-113 -250,-250l0 -300c0,-137 113,-250 250,-250zm150 5200c-331,0 -600,-269 -600,-600l0 -3000c0,-297 221,-551 514,-594 51,-7 86,-48 86,-99l2400 -7c0,55 29,98 86,106 293,43 514,297 514,594l0 3000c0,331 -269,600 -600,600l-2400 0zm2300 -2044c114,219 131,462 50,708 -153,-20 -301,-62 -439,-131 -92,-45 -179,-102 -261,-171 -83,-70 -161,-151 -233,-243 -98,-125 -204,-235 -319,-330 -116,-97 -240,-177 -372,-243 -107,-53 -221,-97 -337,-129 153,-129 340,-200 552,-208 481,-18 1132,317 1359,747zm-1366 -946c-264,9 -496,101 -685,264 -27,24 -47,54 -58,86 -34,106 28,218 134,247 0,0 283,103 313,118 118,59 229,131 332,217 104,86 201,186 290,300 82,104 169,195 262,273 94,78 194,144 300,197 160,79 330,128 507,151 93,11 179,-43 208,-131 100,-302 81,-600 -61,-869 -262,-498 -984,-874 -1542,-853zm-881 919c146,22 285,62 417,128 92,46 179,103 261,172 83,69 160,150 233,242 98,125 204,235 319,331 116,96 240,177 372,243 58,28 118,55 181,78 59,22 118,41 179,57 -153,130 -340,203 -554,211 -482,19 -1137,-318 -1362,-750 -115,-219 -129,-463 -46,-712zm-131 804c262,502 987,879 1547,857 265,-10 497,-103 687,-269 27,-23 46,-53 57,-86 33,-106 -30,-218 -137,-245 -115,-30 -226,-71 -333,-124 -119,-59 -229,-132 -332,-217 -104,-86 -201,-187 -290,-301 -82,-104 -169,-195 -262,-272 -94,-79 -194,-145 -300,-198 -151,-75 -316,-123 -483,-147 -92,-13 -181,41 -211,129 -102,303 -84,602 57,873z"/>
</svg>