<?xml version="1.0" encoding="UTF-8"?>
<!DOCTYPE svg PUBLIC "-//W3C//DTD SVG 1.1//EN" "http://www.w3.org/Graphics/SVG/1.1/DTD/svg11.dtd">
<svg xmlns="http://www.w3.org/2000/svg" xml:space="preserve" width="580px" height="580px" shape-rendering="geometricPrecision" text-rendering="geometricPrecision" image-rendering="optimizeQuality" fill-rule="nonzero" clip-rule="nonzero" viewBox="0 0 5800 5800" xmlns:xlink="http://www.w3.org/1999/xlink">
	<title>jar_cookies icon</title>
	<desc>jar_cookies icon from the IconExperience.com I-Collection. Copyright by INCORS GmbH (www.incors.com).</desc>
		<path id="curve28"  d="M1700 5500c-331,0 -600,-269 -600,-600l0 -3000c0,-297 221,-551 514,-594 57,-8 86,-51 86,-106l2400 0c0,55 29,98 86,106 293,43 514,297 514,594l0 3000c0,331 -269,600 -600,600l-2400 0zm2367 -1817c-252,-355 -794,-723 -1209,-433 -417,292 -253,933 -6,1286 250,356 784,722 1210,434 414,-290 253,-928 5,-1287zm-119 1123c-322,215 -758,-134 -933,-385 -176,-251 -357,-787 -43,-1008 309,-216 764,132 933,386 175,250 355,778 43,1007zm-969 161c-60,-50 -116,-105 -168,-162 -82,17 -170,26 -261,26 -307,0 -850,-158 -850,-542 0,-331 426,-503 703,-534 2,-70 11,-138 28,-204 -400,32 -931,272 -931,738 0,509 620,742 1050,742 153,0 298,-23 429,-64zm-1429 -4667l2700 0c137,0 250,113 250,250l0 300c0,137 -113,250 -250,250l-2700 0c-137,0 -250,-113 -250,-250l0 -300c0,-137 113,-250 250,-250z"/>
</svg>