<?xml version="1.0" encoding="UTF-8"?>
<!DOCTYPE svg PUBLIC "-//W3C//DTD SVG 1.1//EN" "http://www.w3.org/Graphics/SVG/1.1/DTD/svg11.dtd">
<svg xmlns="http://www.w3.org/2000/svg" xml:space="preserve" width="580px" height="580px" shape-rendering="geometricPrecision" text-rendering="geometricPrecision" image-rendering="optimizeQuality" fill-rule="nonzero" clip-rule="nonzero" viewBox="0 0 5800 5800" xmlns:xlink="http://www.w3.org/1999/xlink">
	<title>jerrycan icon</title>
	<desc>jerrycan icon from the IconExperience.com I-Collection. Copyright by INCORS GmbH (www.incors.com).</desc>
		<path id="curve28" d="M4584 1135l-75 220 185 60c124,41 206,155 206,285l0 3500c0,165 -135,300 -300,300l-3400 0c-165,0 -300,-135 -300,-300 0,-1422 0,-2843 0,-4265 0,-138 98,-245 227,-282l1218 -349c192,-55 356,77 438,241l192 382c43,-10 86,-13 129,-10 57,3 113,17 168,35l321 105 72 -214 -209 -67 160 -532 1345 429 -161 532 -216 -70zm-3484 556l1688 -692 -183 -365c-37,-73 -113,-164 -205,-138l-1218 349c-43,12 -82,41 -82,90l0 756zm1532 1209l860 0 327 -458c32,-45 94,-55 139,-23 45,32 55,94 23,139l-481 674 0 860 458 327c45,32 55,94 23,139 -32,45 -94,55 -139,23l-674 -481 -860 0 -327 458c-32,45 -94,55 -139,23 -45,-32 -55,-94 -23,-139l481 -674 0 -860 -458 -327c-45,-32 -55,-94 -23,-139 32,-45 94,-55 139,-23l674 481zm668 200l-800 0 0 800 800 0 0 -800zm-90 -1958c-41,-13 -81,-24 -119,-26 -33,-2 -66,1 -97,14l-1894 777 0 3293c0,55 45,100 100,100l3400 0c55,0 100,-45 100,-100l0 -3500c0,-45 -25,-81 -68,-95 -475,-155 -949,-309 -1422,-463zm573 -24l81 27 457 144 137 -404 210 67 45 -149 -964 -307 -45 150 119 39 97 31 -33 96 -104 306z"/>
</svg>