<?xml version="1.0" encoding="UTF-8"?>
<!DOCTYPE svg PUBLIC "-//W3C//DTD SVG 1.1//EN" "http://www.w3.org/Graphics/SVG/1.1/DTD/svg11.dtd">
<svg xmlns="http://www.w3.org/2000/svg" xml:space="preserve" width="580px" height="580px" shape-rendering="geometricPrecision" text-rendering="geometricPrecision" image-rendering="optimizeQuality" fill-rule="nonzero" clip-rule="nonzero" viewBox="0 0 5800 5800" xmlns:xlink="http://www.w3.org/1999/xlink">
	<title>jerrycan icon</title>
	<desc>jerrycan icon from the IconExperience.com I-Collection. Copyright by INCORS GmbH (www.incors.com).</desc>
		<path id="curve28"  d="M4694 1415c124,41 206,155 206,285l0 3500c0,165 -135,300 -300,300l-3400 0c-165,0 -300,-135 -300,-300 0,-1422 0,-2843 0,-4265 0,-138 98,-245 227,-282l1218 -349c192,-55 356,77 438,241l192 382c43,-10 86,-13 129,-10 57,3 113,17 168,35l321 105 72 -214 -209 -67 160 -532 1345 429 -161 532 -216 -70 -75 220 185 60zm-2062 1485l-674 -481c-45,-32 -107,-22 -139,23 -32,45 -22,107 23,139l458 327 0 860 -481 674c-32,45 -22,107 23,139 45,32 107,22 139,-23l327 -458 860 0 674 481c45,32 107,22 139,-23 32,-45 22,-107 -23,-139l-458 -327 0 -860 481 -674c32,-45 22,-107 -23,-139 -45,-32 -107,-22 -139,23l-327 458 -860 0zm668 200l-800 0 0 800 800 0 0 -800zm-2200 -1409l1688 -692 -183 -365c-37,-73 -113,-164 -205,-138l-1218 349c-43,12 -82,41 -82,90l0 756z"/>
</svg>