<?xml version="1.0" encoding="UTF-8"?>
<!DOCTYPE svg PUBLIC "-//W3C//DTD SVG 1.1//EN" "http://www.w3.org/Graphics/SVG/1.1/DTD/svg11.dtd">
<svg xmlns="http://www.w3.org/2000/svg" xml:space="preserve" width="580px" height="580px" shape-rendering="geometricPrecision" text-rendering="geometricPrecision" image-rendering="optimizeQuality" fill-rule="nonzero" clip-rule="nonzero" viewBox="0 0 5800 5800" xmlns:xlink="http://www.w3.org/1999/xlink">
	<title>joystick icon</title>
	<desc>joystick icon from the IconExperience.com I-Collection. Copyright by INCORS GmbH (www.incors.com).</desc>
		<path id="curve28"  d="M2900 300c552,0 1000,448 1000,1000 0,513 -390,944 -900,995l0 1805 300 0 0 -200c0,-110 90,-200 200,-200l800 0c110,0 200,90 200,200l0 200 100 0c165,0 300,135 300,300l0 800c0,165 -135,300 -300,300l-3400 0c-165,0 -300,-135 -300,-300l0 -800c0,-165 135,-300 300,-300l100 0 0 -200c0,-110 90,-200 200,-200l800 0c110,0 200,90 200,200l0 200 300 0 0 -1805c-510,-51 -900,-482 -900,-995 0,-552 448,-1000 1000,-1000zm600 1000l-200 0c0,221 -179,400 -400,400l0 200c331,0 600,-269 600,-600z"/>
</svg>