<?xml version="1.0" encoding="UTF-8"?>
<!DOCTYPE svg PUBLIC "-//W3C//DTD SVG 1.1//EN" "http://www.w3.org/Graphics/SVG/1.1/DTD/svg11.dtd">
<svg xmlns="http://www.w3.org/2000/svg" xml:space="preserve" width="580px" height="580px" shape-rendering="geometricPrecision" text-rendering="geometricPrecision" image-rendering="optimizeQuality" fill-rule="nonzero" clip-rule="nonzero" viewBox="0 0 5800 5800" xmlns:xlink="http://www.w3.org/1999/xlink">
	<title>joystick icon</title>
	<desc>joystick icon from the IconExperience.com I-Collection. Copyright by INCORS GmbH (www.incors.com).</desc>
		<path id="curve28" d="M1200 4100l100 0 0 -200c0,-110 90,-200 200,-200l800 0c110,0 200,90 200,200l0 200 300 0 0 -1805c-510,-51 -900,-482 -900,-995 0,-552 448,-1000 1000,-1000 552,0 1000,448 1000,1000 0,513 -390,944 -900,995l0 1805 300 0 0 -200c0,-110 90,-200 200,-200l800 0c110,0 200,90 200,200l0 200 100 0c165,0 300,135 300,300l0 800c0,165 -135,300 -300,300l-3400 0c-165,0 -300,-135 -300,-300l0 -800c0,-165 135,-300 300,-300zm2300 -2800c0,331 -269,600 -600,600l0 -200c221,0 400,-179 400,-400l200 0zm-2000 2800l800 0 0 -200 0 0 0 0 0 0 -800 0 0 200zm2000 0l800 0 0 -200 0 0 0 0 0 0 -800 0 0 200zm-2300 200c-55,0 -100,45 -100,100l0 800c0,55 45,100 100,100l3400 0c55,0 100,-45 100,-100l0 -800c0,-55 -45,-100 -100,-100 -1133,0 -2267,0 -3400,0zm1700 -3800c-442,0 -800,358 -800,800 0,442 358,800 800,800 442,0 800,-358 800,-800 0,-442 -358,-800 -800,-800zm-600 3400c0,0 0,0 0,0l0 0zm0 0l0 0 0 0zm2000 0c0,0 0,0 0,0l0 0zm0 0l0 0 0 0z"/>
</svg>