<?xml version="1.0" encoding="UTF-8"?>
<!DOCTYPE svg PUBLIC "-//W3C//DTD SVG 1.1//EN" "http://www.w3.org/Graphics/SVG/1.1/DTD/svg11.dtd">
<svg xmlns="http://www.w3.org/2000/svg" xml:space="preserve" width="580px" height="580px" shape-rendering="geometricPrecision" text-rendering="geometricPrecision" image-rendering="optimizeQuality" fill-rule="nonzero" clip-rule="nonzero" viewBox="0 0 5800 5800" xmlns:xlink="http://www.w3.org/1999/xlink">
	<title>judge icon</title>
	<desc>judge icon from the IconExperience.com I-Collection. Copyright by INCORS GmbH (www.incors.com).</desc>
	<path id="curve0" d="M564 3329c-40,-87 -30,-185 25,-263l121 -173 122 -173c55,-79 142,-122 238,-114 24,2 48,-10 61,-29 14,-20 17,-45 7,-67 -20,-43 -28,-89 -23,-135 4,-45 20,-89 48,-128l20 -29c4,-6 8,-12 12,-17 83,-108 236,-138 352,-65 6,4 12,8 17,12l708 496c120,84 146,249 63,369l-26 36c-55,79 -143,122 -239,114 -23,-2 -47,10 -60,29 -14,20 -17,45 -7,67 26,58 31,122 14,183l110 77c84,59 135,111 186,163 44,46 89,91 157,139 54,38 120,69 187,101 71,34 143,69 214,118l1042 729c110,77 136,228 59,338l-65 94c-77,110 -228,136 -338,59l-1041 -729c-70,-49 -127,-105 -185,-161 -52,-51 -104,-103 -159,-141 -67,-47 -126,-74 -184,-100 -66,-30 -132,-60 -217,-119l-110 -77c-51,37 -113,54 -176,49 -12,-1 -23,2 -34,7 -22,10 -37,31 -39,55 -1,12 1,23 6,34 39,87 29,185 -26,263l-25 37c-84,119 -248,151 -368,67l-716 -501c-120,-84 -146,-249 -63,-368l26 -37c55,-79 142,-121 239,-114 23,2 47,-10 60,-29 14,-20 17,-45 7,-67zm-64 2171l0 -200c0,-220 180,-400 400,-400l800 0c220,0 400,180 400,400l0 200 -200 0 0 -200c0,-110 -90,-200 -200,-200l-800 0c-110,0 -200,90 -200,200l0 200 -200 0zm2200 -2004c0,-6 1,-12 2,-17 9,-79 5,-174 2,-259 -2,-28 -3,-56 -3,-80 -53,-59 -93,-126 -126,-197 10,-53 10,-107 2,-159 -20,-119 -85,-229 -191,-303l-58 -41c-29,-39 -53,-83 -70,-129 -41,-109 -49,-234 -22,-346 -55,-234 -83,-485 -52,-712 28,-203 103,-387 247,-525 121,-117 256,-191 423,-222 177,-155 482,-221 789,-200 313,21 634,130 827,323 164,164 273,355 323,583 46,217 38,465 -30,753 52,216 -21,467 -214,589 -55,207 -103,420 -249,585 -1,35 -2,70 -3,107 -4,79 -7,164 2,238 7,49 7,102 54,131 115,72 204,99 310,131 69,21 136,43 204,67 126,46 283,104 386,203 111,108 196,243 254,389 62,153 93,318 93,475 0,225 -255,370 -606,461 -355,93 -819,137 -1188,152 103,-23 198,-84 264,-178l66 -94c141,-201 92,-474 -109,-615l-131 -91c102,-154 252,-332 326,-496l-333 333 -186 -248c-39,37 -80,72 -103,96 25,50 46,101 65,153l-527 -369 74 -99c-61,-33 -125,-59 -184,-84 -73,-30 -140,-58 -194,-91 -10,14 -22,28 -35,40l36 37c-31,-16 -62,-31 -93,-46 -60,-29 -121,-58 -158,-83l-5 -4c25,-13 47,-27 71,-41 14,-8 24,-20 30,-36 10,-22 16,-50 20,-81zm939 2002c-50,2 -96,2 -139,2 -306,0 -783,-24 -1200,-96l0 -104c0,-165 -67,-315 -176,-424 -109,-109 -259,-176 -424,-176l-287 0c5,-32 11,-64 18,-95 61,-44 95,-90 137,-150 47,-68 75,-144 83,-223 2,-23 3,-46 1,-69l17 10c102,71 175,105 249,138 51,23 102,46 152,81 40,28 87,74 133,120 63,61 126,123 211,182l1041 730c57,39 120,64 184,74zm-739 -2398c0,41 1,75 3,112 4,92 8,195 -3,290 3,31 94,69 204,115 131,54 280,116 396,228 115,-112 265,-174 396,-228 108,-46 199,-83 204,-114 -10,-85 -6,-178 -3,-265 2,-49 4,-97 3,-136 0,-28 11,-54 30,-73 141,-139 186,-380 236,-567 9,-30 30,-53 56,-65 141,-73 185,-260 143,-403 -5,-18 -5,-35 -1,-52 65,-267 75,-494 33,-688 -41,-188 -131,-347 -268,-483 -158,-158 -430,-248 -699,-266 -269,-18 -529,36 -660,166 -17,17 -39,27 -61,29 -136,20 -241,77 -340,172 -108,104 -165,247 -187,408 -29,207 0,443 54,662 5,19 3,39 -2,56 -22,78 -19,166 11,243 25,67 71,125 136,157 27,14 45,37 52,64l0 0 19 72c48,183 99,377 218,495 20,19 30,45 30,71zm1304 654c-15,-14 -28,-28 -39,-44 -54,33 -121,61 -193,91 -59,25 -123,51 -184,84l122 163 294 -294zm-2290 -141l-115 165 98 68c68,48 126,74 185,101 66,30 132,59 216,119 70,49 128,105 185,161 52,51 104,102 159,141l1041 729c19,13 47,8 61,-10l65 -94c13,-19 9,-47 -10,-60l-1042 -730c-54,-37 -120,-69 -186,-101 -72,-34 -144,-68 -215,-118 -85,-59 -135,-111 -186,-163 -45,-46 -90,-91 -158,-139l-98 -69zm-1168 -366c39,86 29,186 -25,263 -55,78 -145,122 -239,114 -25,-2 -46,9 -61,29l-25 37c-20,28 -16,70 13,91l716 501c29,21 70,11 90,-18l26 -37c15,-21 17,-43 7,-66 -19,-42 -27,-89 -23,-135 9,-94 68,-177 152,-218 42,-20 89,-28 135,-25 25,2 46,-8 60,-29l243 -346c14,-21 17,-43 6,-66 -39,-86 -28,-187 25,-264 55,-78 145,-121 240,-114 24,2 46,-9 60,-29l25 -36c20,-29 16,-71 -13,-92l-716 -501c-29,-20 -70,-10 -90,18l-26 37c-15,21 -17,43 -7,67 40,83 28,188 -25,263 -54,78 -144,122 -239,114 -25,-2 -46,9 -60,29l-121 173 -122 173c-14,21 -17,43 -6,67z"/>
</svg>