<?xml version="1.0" encoding="UTF-8"?>
<!DOCTYPE svg PUBLIC "-//W3C//DTD SVG 1.1//EN" "http://www.w3.org/Graphics/SVG/1.1/DTD/svg11.dtd">
<svg xmlns="http://www.w3.org/2000/svg" xml:space="preserve" width="580px" height="580px" shape-rendering="geometricPrecision" text-rendering="geometricPrecision" image-rendering="optimizeQuality" fill-rule="nonzero" clip-rule="nonzero" viewBox="0 0 5800 5800" xmlns:xlink="http://www.w3.org/1999/xlink">
	<title>key icon</title>
	<desc>key icon from the IconExperience.com I-Collection. Copyright by INCORS GmbH (www.incors.com).</desc>
		<path id="curve28"  d="M1974 4191l425 425 -849 848 -424 -424 -142 141 -565 -565 2365 -2366c-165,-264 -249,-556 -246,-832 3,-302 108,-586 320,-797 247,-247 590,-349 945,-314 349,34 710,200 1000,490 290,290 456,651 490,1000 35,355 -67,698 -314,945 -211,212 -495,317 -797,320 -276,3 -568,-81 -832,-246l-1376 1375zm1838 -3283c192,36 396,143 566,314 171,170 278,374 314,566 82,442 -224,748 -666,666 -414,-76 -803,-466 -880,-880 -82,-442 224,-748 666,-666zm-36 196c-303,-56 -490,131 -434,434 61,331 389,659 720,720 303,56 490,-131 434,-434 -29,-153 -117,-319 -259,-461 -142,-142 -308,-230 -461,-259zm-2085 3936l-282 -283 141 -141 283 283 283 -283 -425 -425 1634 -1633 69 48c247,172 526,259 787,257 250,-3 484,-89 657,-263 203,-202 286,-487 257,-784 -30,-304 -177,-621 -434,-877 -256,-257 -573,-404 -877,-434 -297,-29 -582,54 -784,257 -174,173 -260,407 -263,657 -2,261 85,540 257,787l48 69 -2341 2341 283 283 71 -71 71 -71 70 71 354 353 141 -141z"/>
</svg>