<?xml version="1.0" encoding="UTF-8"?>
<!DOCTYPE svg PUBLIC "-//W3C//DTD SVG 1.1//EN" "http://www.w3.org/Graphics/SVG/1.1/DTD/svg11.dtd">
<svg xmlns="http://www.w3.org/2000/svg" xml:space="preserve" width="580px" height="580px" shape-rendering="geometricPrecision" text-rendering="geometricPrecision" image-rendering="optimizeQuality" fill-rule="nonzero" clip-rule="nonzero" viewBox="0 0 5800 5800" xmlns:xlink="http://www.w3.org/1999/xlink">
	<title>key2 icon</title>
	<desc>key2 icon from the IconExperience.com I-Collection. Copyright by INCORS GmbH (www.incors.com).</desc>
		<path id="curve6" d="M2713 2635l-1913 1923 0 273 491 165 103 -103 0 -241c0,-207 169,-376 376,-376l121 0 0 -123c0,-207 169,-377 376,-377l121 0 0 -123c0,-207 169,-377 376,-377l238 0 174 -174 141 141 -232 233 -321 0c-98,0 -176,80 -176,177l0 322 -321 1c-98,0 -176,79 -176,177l0 323 -321 0c-98,0 -176,79 -176,176l0 323 -172 173c-48,48 -114,64 -179,42l-523 -175c-96,-32 -138,-167 -120,-167l0 -299c-25,0 34,-108 52,-125l1919 -1929 142 140zm881 -1886l-989 994c-58,59 -58,159 0,218l1243 1249c58,58 154,60 213,1 0,0 912,-916 995,-1000 59,-59 59,-159 0,-218l-1244 -1250c-67,-67 -151,-52 -218,6zm1603 1104c137,137 137,362 0,499l-995 1000c-134,133 -351,136 -488,6l-1250 -1256c-136,-137 -136,-362 0,-499l989 -994c137,-137 352,-148 494,-13l1250 1257zm-1793 -305c-29,29 -29,80 0,109l746 749c29,30 77,30 106,1 0,0 228,-229 249,-250 30,-30 30,-80 0,-109l-745 -750c-30,-28 -76,-30 -107,0 -11,20 -215,216 -249,250zm612 1007l-753 -757c-107,-108 -107,-283 0,-391l249 -251c105,-103 274,-106 382,-6l753 757c107,107 107,283 0,390l-250 251c-104,104 -273,107 -381,7z"/>
</svg>