<?xml version="1.0" encoding="UTF-8"?>
<!DOCTYPE svg PUBLIC "-//W3C//DTD SVG 1.1//EN" "http://www.w3.org/Graphics/SVG/1.1/DTD/svg11.dtd">
<svg xmlns="http://www.w3.org/2000/svg" xml:space="preserve" width="580px" height="580px" shape-rendering="geometricPrecision" text-rendering="geometricPrecision" image-rendering="optimizeQuality" fill-rule="nonzero" clip-rule="nonzero" viewBox="0 0 5800 5800" xmlns:xlink="http://www.w3.org/1999/xlink">
	<title>key3 icon</title>
	<desc>key3 icon from the IconExperience.com I-Collection. Copyright by INCORS GmbH (www.incors.com).</desc>
		<path id="curve28"  d="M3995 299c828,0 1500,672 1500,1500 0,829 -672,1500 -1500,1500 -188,0 -374,-35 -549,-104l-305 305 -241 0c-97,0 -200,103 -200,200l0 300 -300 0c-97,0 -200,103 -200,200l0 300 -300 0c-97,0 -200,103 -200,200l0 345 -181 157c-48,47 -113,61 -176,40l-522 -175c-62,0 -121,-106 -121,-167l0 -300c0,-53 21,-159 59,-198l1906 -1908c-111,-214 -170,-454 -170,-695 0,-828 672,-1500 1500,-1500zm305 701c-276,0 -500,224 -500,500 0,276 224,500 500,500 276,0 500,-224 500,-500 0,-276 -224,-500 -500,-500z"/>
</svg>