<?xml version="1.0" encoding="UTF-8"?>
<!DOCTYPE svg PUBLIC "-//W3C//DTD SVG 1.1//EN" "http://www.w3.org/Graphics/SVG/1.1/DTD/svg11.dtd">
<svg xmlns="http://www.w3.org/2000/svg" xml:space="preserve" width="580px" height="580px" shape-rendering="geometricPrecision" text-rendering="geometricPrecision" image-rendering="optimizeQuality" fill-rule="nonzero" clip-rule="nonzero" viewBox="0 0 5800 5800" xmlns:xlink="http://www.w3.org/1999/xlink">
	<title>key icon</title>
	<desc>key icon from the IconExperience.com I-Collection. Copyright by INCORS GmbH (www.incors.com).</desc>
		<path id="curve28"  d="M1974 4191l425 425 -425 424 -424 -424 -141 141 424 424 -283 283 -424 -424 -142 141 -565 -565 2365 -2366c-312,-497 -368,-1188 74,-1629 553,-553 1441,-328 1945,176 504,504 729,1392 176,1945 -441,442 -1132,386 -1629,74l-1376 1375zm1379 -3076c-215,215 -135,643 177,955 312,312 740,392 955,177 214,-215 135,-642 -177,-955 -313,-312 -740,-391 -955,-177z"/>
</svg>