<?xml version="1.0" encoding="UTF-8"?>
<!DOCTYPE svg PUBLIC "-//W3C//DTD SVG 1.1//EN" "http://www.w3.org/Graphics/SVG/1.1/DTD/svg11.dtd">
<svg xmlns="http://www.w3.org/2000/svg" xml:space="preserve" width="580px" height="580px" shape-rendering="geometricPrecision" text-rendering="geometricPrecision" image-rendering="optimizeQuality" fill-rule="nonzero" clip-rule="nonzero" viewBox="0 0 5800 5800" xmlns:xlink="http://www.w3.org/1999/xlink">
	<title>keyboard_key_w icon</title>
	<desc>keyboard_key_w icon from the IconExperience.com I-Collection. Copyright by INCORS GmbH (www.incors.com).</desc>
		<path id="curve28"  d="M1500 500l2800 0c551,0 1000,449 1000,1000l0 2800c0,551 -449,1000 -1000,1000l-2800 0c-551,0 -1000,-449 -1000,-1000l0 -2800c0,-551 449,-1000 1000,-1000zm400 1000l-200 0 0 570c0,100 15,190 47,284l147 443c21,61 77,103 142,103l25 0c69,0 128,-47 145,-114l94 -374 100 388c-10,-21 27,100 139,100l25 0c65,0 122,-42 142,-103l147 -443c32,-94 47,-185 47,-284l0 -570 -200 0 0 570c0,79 -11,147 -36,222l-107 323 -129 -515 -256 0 -129 515 -107 -323c-26,-76 -36,-142 -36,-222l0 -570zm2200 -400c220,0 400,180 400,400l0 2400c0,220 -180,400 -400,400l-2400 0c-220,0 -400,-180 -400,-400l0 -2400c0,-220 180,-400 400,-400l2400 0zm-2400 -200c-331,0 -600,269 -600,600l0 2400c0,331 269,600 600,600l2400 0c331,0 600,-269 600,-600l0 -2400c0,-331 -269,-600 -600,-600l-2400 0z"/>
</svg>