<?xml version="1.0" encoding="UTF-8"?>
<!DOCTYPE svg PUBLIC "-//W3C//DTD SVG 1.1//EN" "http://www.w3.org/Graphics/SVG/1.1/DTD/svg11.dtd">
<svg xmlns="http://www.w3.org/2000/svg" xml:space="preserve" width="580px" height="580px" shape-rendering="geometricPrecision" text-rendering="geometricPrecision" image-rendering="optimizeQuality" fill-rule="nonzero" clip-rule="nonzero" viewBox="0 0 5800 5800" xmlns:xlink="http://www.w3.org/1999/xlink">
	<title>keyboard_key_speaker icon</title>
	<desc>keyboard_key_speaker icon from the IconExperience.com I-Collection. Copyright by INCORS GmbH (www.incors.com).</desc>
		<path id="curve28"  d="M2501 4796c-121,0 -200,-79 -200,-200l0 -1000c0,-122 78,-200 200,-200l0 -99 599 0 0 1599 -599 0 0 -100zm799 -1640l583 -583c57,-57 124,-81 187,-81 118,0 231,88 231,212l0 2784c0,125 -114,212 -231,212 -63,0 -130,-24 -187,-81l-583 -582 0 -1881zm1201 138c305,153 499,465 499,806 0,340 -191,650 -494,803l-6 -11 0 -217c188,-131 300,-345 300,-575 0,-230 -111,-443 -300,-575l0 -228 1 -3zm-1 -536c593,177 1000,723 1000,1342 0,618 -407,1164 -998,1341l-2 -5 0 -204c480,-170 800,-623 800,-1132 0,-508 -321,-963 -800,-1132l0 -210zm-3200 -2458l2800 0c551,0 1000,449 1000,1000l0 1551c-189,-152 -371,-234 -600,-302l0 -1249c0,-331 -269,-600 -600,-600l-2400 0c-331,0 -600,269 -600,600l0 2400c0,331 269,600 600,600l600 0 0 400c0,220 179,399 399,400l-1199 0c-551,0 -1000,-449 -1000,-1000l0 -2800c0,-551 449,-1000 1000,-1000zm2600 600l-2400 0c-220,0 -400,180 -400,400l0 2400c0,220 180,400 400,400l600 0 0 -600c0,-221 179,-400 400,-400l577 -3 664 -665c88,-89 204,-140 329,-140 83,0 162,24 230,64l0 -1056c0,-220 -180,-400 -400,-400zm-2109 1300l618 0 -277 -700 -64 0 -277 700zm688 200l-758 0c-3,13 -6,25 -8,38 -9,51 -13,104 -13,162l0 100 -200 0 0 -100c0,-138 20,-260 71,-388l336 -849c16,-39 53,-63 93,-63l200 0c44,0 81,28 94,67l338 853c41,118 68,236 68,380l0 100 -200 0 0 -100c0,-57 -4,-111 -13,-162 -2,-13 -5,-25 -8,-38z"/>
</svg>