<?xml version="1.0" encoding="UTF-8"?>
<!DOCTYPE svg PUBLIC "-//W3C//DTD SVG 1.1//EN" "http://www.w3.org/Graphics/SVG/1.1/DTD/svg11.dtd">
<svg xmlns="http://www.w3.org/2000/svg" xml:space="preserve" width="580px" height="580px" shape-rendering="geometricPrecision" text-rendering="geometricPrecision" image-rendering="optimizeQuality" fill-rule="nonzero" clip-rule="nonzero" viewBox="0 0 5800 5800" xmlns:xlink="http://www.w3.org/1999/xlink">
	<title>keyboard_key_v icon</title>
	<desc>keyboard_key_v icon from the IconExperience.com I-Collection. Copyright by INCORS GmbH (www.incors.com).</desc>
		<path id="curve28"  d="M1500 500l2800 0c551,0 1000,449 1000,1000l0 2800c0,551 -449,1000 -1000,1000l-2800 0c-551,0 -1000,-449 -1000,-1000l0 -2800c0,-551 449,-1000 1000,-1000zm2600 600c220,0 400,180 400,400l0 2400c0,220 -180,400 -400,400l-2400 0c-220,0 -400,-180 -400,-400l0 -2400c0,-220 180,-400 400,-400l2400 0zm-2400 -200c-331,0 -600,269 -600,600l0 2400c0,331 269,600 600,600l2400 0c331,0 600,-269 600,-600l0 -2400c0,-331 -269,-600 -600,-600l-2400 0zm200 600l-200 0 0 319c0,135 23,259 70,386l188 500c44,118 154,195 281,195l122 0c127,0 237,-77 281,-195l188 -500c47,-127 70,-251 70,-386l0 -319 -200 0 0 319c0,113 -17,210 -57,316l-188 500c-15,41 -50,65 -94,65l-122 0c-44,0 -79,-24 -94,-65l-188 -500c-40,-106 -57,-203 -57,-316l0 -319z"/>
</svg>