<?xml version="1.0" encoding="UTF-8"?>
<!DOCTYPE svg PUBLIC "-//W3C//DTD SVG 1.1//EN" "http://www.w3.org/Graphics/SVG/1.1/DTD/svg11.dtd">
<svg xmlns="http://www.w3.org/2000/svg" xml:space="preserve" width="580px" height="580px" shape-rendering="geometricPrecision" text-rendering="geometricPrecision" image-rendering="optimizeQuality" fill-rule="nonzero" clip-rule="nonzero" viewBox="0 0 5800 5800" xmlns:xlink="http://www.w3.org/1999/xlink">
	<title>keyboard_key_8 icon</title>
	<desc>keyboard_key_8 icon from the IconExperience.com I-Collection. Copyright by INCORS GmbH (www.incors.com).</desc>
		<path id="curve28" d="M2100 2100l400 0c55,0 105,-22 141,-59 38,-37 59,-88 59,-141 0,-110 -90,-200 -200,-200l-400 0c-111,0 -200,89 -200,200 0,110 90,200 200,200zm-600 -1600l2800 0c551,0 1000,449 1000,1000l0 2800c0,551 -449,1000 -1000,1000l-2800 0c-551,0 -1000,-449 -1000,-1000l0 -2800c0,-551 449,-1000 1000,-1000zm2800 200l-2800 0c-441,0 -800,359 -800,800l0 2800c0,441 359,800 800,800l2800 0c441,0 800,-359 800,-800l0 -2800c0,-441 -359,-800 -800,-800zm-200 400l-2400 0c-220,0 -400,180 -400,400l0 2400c0,220 180,400 400,400l2400 0c220,0 400,-180 400,-400l0 -2400c0,-220 -180,-400 -400,-400zm-2400 -200l2400 0c331,0 600,269 600,600l0 2400c0,331 -269,600 -600,600l-2400 0c-331,0 -600,-269 -600,-600l0 -2400c0,-331 269,-600 600,-600zm1064 1300c87,77 136,184 136,300 0,220 -180,400 -400,400l-400 0c-220,0 -400,-180 -400,-400 0,-116 50,-224 136,-300 -86,-75 -136,-186 -136,-300 0,-220 180,-400 400,-400l400 0c220,0 400,180 400,400 0,106 -42,207 -117,283 -6,6 -13,12 -19,17zm-264 100l-400 0c-111,0 -200,89 -200,200 0,110 90,200 200,200l400 0c110,0 200,-90 200,-200 0,-110 -90,-200 -200,-200z"/>
</svg>