<?xml version="1.0" encoding="UTF-8"?>
<!DOCTYPE svg PUBLIC "-//W3C//DTD SVG 1.1//EN" "http://www.w3.org/Graphics/SVG/1.1/DTD/svg11.dtd">
<svg xmlns="http://www.w3.org/2000/svg" xml:space="preserve" width="580px" height="580px" shape-rendering="geometricPrecision" text-rendering="geometricPrecision" image-rendering="optimizeQuality" fill-rule="nonzero" clip-rule="nonzero" viewBox="0 0 5800 5800" xmlns:xlink="http://www.w3.org/1999/xlink">
	<title>keyboard_key_n icon</title>
	<desc>keyboard_key_n icon from the IconExperience.com I-Collection. Copyright by INCORS GmbH (www.incors.com).</desc>
		<path id="curve28"  d="M1500 500l2800 0c551,0 1000,449 1000,1000l0 2800c0,275 -112,525 -293,707 -182,181 -432,293 -707,293l-2800 0c-275,0 -525,-112 -707,-293 -181,-182 -293,-432 -293,-707l0 -2800c0,-551 449,-1000 1000,-1000zm2600 600c220,0 400,180 400,400l0 2400c0,110 -45,210 -117,283 -73,72 -173,117 -283,117l-2400 0c-110,0 -210,-45 -283,-117 -72,-73 -117,-173 -117,-283l0 -2400c0,-220 180,-400 400,-400l2400 0zm-2400 -200c-331,0 -600,269 -600,600l0 2400c0,165 67,315 176,424 109,109 259,176 424,176l2400 0c165,0 315,-67 424,-176 109,-109 176,-259 176,-424l0 -2400c0,-331 -269,-600 -600,-600l-2400 0zm0 2000l200 0 0 -1120 746 1120c85,0 170,0 254,0l0 -1400 -200 0 0 1120 -746 -1120c-85,0 -169,0 -254,0l0 1400z"/>
</svg>