<?xml version="1.0" encoding="UTF-8"?>
<!DOCTYPE svg PUBLIC "-//W3C//DTD SVG 1.1//EN" "http://www.w3.org/Graphics/SVG/1.1/DTD/svg11.dtd">
<svg xmlns="http://www.w3.org/2000/svg" xml:space="preserve" width="580px" height="580px" shape-rendering="geometricPrecision" text-rendering="geometricPrecision" image-rendering="optimizeQuality" fill-rule="nonzero" clip-rule="nonzero" viewBox="0 0 5800 5800" xmlns:xlink="http://www.w3.org/1999/xlink">
	<title>keyboard_key_enter icon</title>
	<desc>keyboard_key_enter icon from the IconExperience.com I-Collection. Copyright by INCORS GmbH (www.incors.com).</desc>
		<path id="curve28"  d="M2383 2224l-424 -424 424 -424 141 141 -183 183 659 0c55,0 100,-45 100,-100l0 -200 200 0 0 200c0,165 -135,300 -300,300l-659 0 183 183 -141 141zm-483 -1724l2200 0c551,0 1000,449 1000,1000l0 2800c0,551 -449,1000 -1000,1000l-1400 0c-551,0 -1000,-449 -1000,-1000l0 -500c0,-55 -45,-100 -100,-100l-200 0c-276,0 -500,-224 -500,-500l0 -1700c0,-551 449,-1000 1000,-1000zm2200 200l-2200 0c-441,0 -800,359 -800,800l0 1700c0,165 135,300 300,300l200 0c165,0 300,135 300,300l0 500c0,440 360,800 800,800l1400 0c440,0 800,-360 800,-800l0 -2800c0,-440 -360,-800 -800,-800zm-200 400l-1800 0c-220,0 -400,180 -400,400l0 1200c0,110 90,200 200,200l300 0c165,0 300,135 300,300l0 700c0,220 180,400 400,400l1000 0c220,0 400,-180 400,-400l0 -2400c0,-220 -180,-400 -400,-400zm-1800 -200l1800 0c331,0 600,269 600,600l0 2400c0,331 -269,600 -600,600l-1000 0c-330,0 -600,-270 -600,-600l0 -700c0,-55 -45,-100 -100,-100l-300 0c-220,0 -400,-180 -400,-400l0 -1200c0,-330 270,-600 600,-600z"/>
</svg>