<?xml version="1.0" encoding="UTF-8"?>
<!DOCTYPE svg PUBLIC "-//W3C//DTD SVG 1.1//EN" "http://www.w3.org/Graphics/SVG/1.1/DTD/svg11.dtd">
<svg xmlns="http://www.w3.org/2000/svg" xml:space="preserve" width="580px" height="580px" shape-rendering="geometricPrecision" text-rendering="geometricPrecision" image-rendering="optimizeQuality" fill-rule="nonzero" clip-rule="nonzero" viewBox="0 0 5800 5800" xmlns:xlink="http://www.w3.org/1999/xlink">
	<title>keyboard icon</title>
	<desc>keyboard icon from the IconExperience.com I-Collection. Copyright by INCORS GmbH (www.incors.com).</desc>
		<path id="curve29"  d="M5600 2400l0 2200 -5400 0 0 -2200 5400 0zm-900 900c-133,0 -267,0 -400,0 0,133 0,267 0,400 133,0 267,0 400,0 0,-133 0,-267 0,-400zm-200 -600c-133,0 -267,0 -400,0 0,133 0,267 0,400 133,0 267,0 400,0 0,-133 0,-267 0,-400zm800 0l-600 0c0,133 0,267 0,400l200 0 0 600c133,0 267,0 400,0l0 -1000zm-1200 600c-133,0 -267,0 -400,0l0 400c133,0 267,0 400,0l0 -400zm-600 0c-133,0 -267,0 -400,0 0,133 0,267 0,400 133,0 267,0 400,0l0 -300 0 -100zm-600 0c-133,0 -267,0 -400,0 0,133 0,267 0,400 133,0 267,0 400,0 0,-133 0,-267 0,-400zm-600 0c-133,0 -267,0 -400,0 0,133 0,267 0,400 133,0 267,0 400,0 0,-133 0,-267 0,-400zm-600 0c-133,0 -267,0 -400,0 0,133 0,267 0,400 133,0 267,0 400,0 0,-133 0,-267 0,-400zm3600 600c-267,0 -533,0 -800,0 0,133 0,267 0,400 267,0 533,0 800,0 0,-133 0,-267 0,-400zm-3700 0l-100 0c0,133 0,267 0,400l2800 0c0,-133 0,-267 0,-400l-2700 0zm2300 -1200c-133,0 -267,0 -400,0 0,133 0,267 0,400 133,0 267,0 400,0 0,-133 0,-267 0,-400zm-600 0c-133,0 -267,0 -400,0 0,133 0,267 0,400 133,0 267,0 400,0 0,-133 0,-267 0,-400zm-600 0c-133,0 -267,0 -400,0 0,133 0,267 0,400 133,0 267,0 400,0 0,-133 0,-267 0,-400zm-600 0c-133,0 -267,0 -400,0 0,133 0,267 0,400 133,0 267,0 400,0 0,-133 0,-267 0,-400zm-600 0c-133,0 -267,0 -400,0 0,133 0,267 0,400 133,0 267,0 400,0 0,-133 0,-267 0,-400zm-200 1200c-267,0 -533,0 -800,0 0,133 0,267 0,400l800 0c0,-133 0,-267 0,-400zm-200 -600c-200,0 -400,0 -600,0 0,133 0,267 0,400 200,0 400,0 600,0 0,-133 0,-267 0,-400zm-200 -600c-133,0 -267,0 -400,0 0,133 0,267 0,400 133,0 267,0 400,0 0,-133 0,-267 0,-400z"/>
	<path id="curve28"  d="M2850 500c0,-83 67,-150 150,-150 83,0 150,67 150,150 0,470 -380,849 -850,849l-400 1c-304,0 -550,246 -550,550l0 400 -300 0 0 -400c0,-469 381,-850 850,-850l400 1c303,0 550,-248 550,-551z"/>
</svg>