<?xml version="1.0" encoding="UTF-8"?>
<!DOCTYPE svg PUBLIC "-//W3C//DTD SVG 1.1//EN" "http://www.w3.org/Graphics/SVG/1.1/DTD/svg11.dtd">
<svg xmlns="http://www.w3.org/2000/svg" xml:space="preserve" width="580px" height="580px" shape-rendering="geometricPrecision" text-rendering="geometricPrecision" image-rendering="optimizeQuality" fill-rule="nonzero" clip-rule="nonzero" viewBox="0 0 5800 5800" xmlns:xlink="http://www.w3.org/1999/xlink">
	<title>keyboard_key_speaker icon</title>
	<desc>keyboard_key_speaker icon from the IconExperience.com I-Collection. Copyright by INCORS GmbH (www.incors.com).</desc>
		<path id="curve29"  d="M1300 300l2800 0c551,0 1000,449 1000,1000l0 1551c-63,-51 -130,-96 -200,-137l0 -1414c0,-441 -359,-800 -800,-800l-2800 0c-440,0 -800,359 -800,800l0 2800c0,441 360,800 800,800l854 0c69,119 198,200 345,200l-1199 0c-551,0 -1000,-449 -1000,-1000l0 -2800c0,-551 449,-1000 1000,-1000zm200 400l2400 0c331,0 600,269 600,600l0 1000 -200 0 0 -1000c0,-220 -180,-400 -400,-400l-2400 0c-220,0 -400,180 -400,400l0 2400c0,220 180,400 400,400l600 0 0 200 -600 0c-331,0 -600,-269 -600,-600l0 -2400c0,-331 269,-600 600,-600zm291 1500l618 0 -277 -700 -64 0 -277 700zm840 16c26,67 42,127 53,188 11,64 16,128 16,196l0 100 -200 0 0 -100c0,-57 -4,-111 -13,-162 -2,-13 -5,-25 -8,-38l-758 0c-3,13 -6,25 -8,38 -9,51 -13,104 -13,162l0 100 -200 0 0 -100c0,-68 5,-132 16,-196 11,-63 29,-126 55,-192l336 -849c16,-39 53,-63 93,-63l200 0c44,0 81,28 94,67l337 849z"/>
	<path id="curve28"  d="M2501 4796c-121,0 -200,-79 -200,-200l0 -1000c0,-60 18,-109 54,-145 37,-37 85,-55 146,-55l0 -99 658 0 724 -724c57,-57 124,-81 187,-81 62,0 126,25 170,69 33,34 55,76 60,123l0 2824c-5,47 -27,90 -60,123 -44,44 -108,69 -170,69 -63,0 -130,-24 -187,-81l-724 -723 -658 0 0 -100zm1999 -2038c593,177 1000,723 1000,1342 0,618 -407,1164 -998,1341l-2 -209c478,-169 800,-621 800,-1132 0,-510 -323,-964 -800,-1132l0 -210zm1 536c305,153 499,465 499,806 0,340 -191,650 -494,803l-6 -11 0 -217c186,-130 300,-344 300,-575 0,-232 -113,-445 -300,-575l1 -231zm-1201 145l0 1315 724 724c16,16 32,22 46,22 6,0 31,-6 31,-12l0 -2784c0,-6 -25,-12 -31,-12 -14,0 -30,7 -46,22l-724 725zm-200 1258l0 -1201 -399 0 0 100 -200 0 0 1000 200 0 0 101 399 0z"/>
</svg>