<?xml version="1.0" encoding="UTF-8"?>
<!DOCTYPE svg PUBLIC "-//W3C//DTD SVG 1.1//EN" "http://www.w3.org/Graphics/SVG/1.1/DTD/svg11.dtd">
<svg xmlns="http://www.w3.org/2000/svg" xml:space="preserve" width="580px" height="580px" shape-rendering="geometricPrecision" text-rendering="geometricPrecision" image-rendering="optimizeQuality" fill-rule="nonzero" clip-rule="nonzero" viewBox="0 0 5800 5800" xmlns:xlink="http://www.w3.org/1999/xlink">
	<title>keyboard_wireless icon</title>
	<desc>keyboard_wireless icon from the IconExperience.com I-Collection. Copyright by INCORS GmbH (www.incors.com).</desc>
		<path id="curve29"  d="M5500 2500l0 2000 -5200 0 0 -2000 5200 0zm-800 800c-133,0 -267,0 -400,0 0,133 0,267 0,400 133,0 267,0 400,0 0,-133 0,-267 0,-400zm-200 -600c-133,0 -267,0 -400,0 0,133 0,267 0,400 133,0 267,0 400,0 0,-133 0,-267 0,-400zm800 0c-200,0 -400,0 -600,0 0,133 0,267 0,400l200 0 0 600c133,0 267,0 400,0 0,-333 0,-667 0,-1000zm-1200 600c-133,0 -267,0 -400,0 0,133 0,267 0,400 133,0 267,0 400,0 0,-133 0,-267 0,-400zm-600 0c-133,0 -267,0 -400,0 0,133 0,267 0,400 133,0 267,0 400,0 0,-133 0,-267 0,-400zm-600 0c-133,0 -267,0 -400,0 0,133 0,267 0,400 133,0 267,0 400,0 0,-133 0,-267 0,-400zm-600 0c-133,0 -267,0 -400,0 0,133 0,267 0,400 133,0 267,0 400,0 0,-133 0,-267 0,-400zm-600 0c-133,0 -267,0 -400,0 0,133 0,267 0,400 133,0 267,0 400,0 0,-133 0,-267 0,-400zm3600 600c-267,0 -533,0 -800,0 0,133 0,267 0,400 267,0 533,0 800,0 0,-133 0,-267 0,-400zm-1000 0l-2800 0c0,133 0,267 0,400l2800 0c0,-133 0,-267 0,-400zm-400 -1200c-133,0 -267,0 -400,0 0,133 0,267 0,400 133,0 267,0 400,0 0,-133 0,-267 0,-400zm-600 0c-133,0 -267,0 -400,0 0,133 0,267 0,400 133,0 267,0 400,0 0,-133 0,-267 0,-400zm-600 0c-133,0 -267,0 -400,0 0,133 0,267 0,400 133,0 267,0 400,0 0,-133 0,-267 0,-400zm-600 0c-133,0 -267,0 -400,0 0,133 0,267 0,400 133,0 267,0 400,0 0,-133 0,-267 0,-400zm-600 0c-133,0 -267,0 -400,0 0,133 0,267 0,400 133,0 267,0 400,0 0,-133 0,-267 0,-400zm-200 1200c-267,0 -533,0 -800,0 0,133 0,267 0,400 267,0 533,0 800,0 0,-133 0,-267 0,-400zm-200 -600c-200,0 -400,0 -600,0 0,133 0,267 0,400 200,0 400,0 600,0 0,-133 0,-267 0,-400zm-200 -600c-133,0 -267,0 -400,0 0,133 0,267 0,400 133,0 267,0 400,0 0,-133 0,-267 0,-400z"/>
	<path id="curve28"  d="M2592 1339c-283,-283 -660,-439 -1061,-439 -400,0 -777,156 -1060,439l-142 -141c319,-319 751,-498 1202,-498 452,0 883,179 1202,498l-141 141zm-1834 283c206,-206 486,-322 778,-322 291,0 571,116 777,322l-141 142c-170,-171 -396,-264 -636,-264 -241,0 -467,93 -637,264l-141 -142zm425 424c93,-93 220,-146 353,-146 132,0 259,53 353,146l-141 142c-57,-57 -132,-88 -212,-88 -81,0 -156,31 -213,88l-140 -142z"/>
</svg>