<?xml version="1.0" encoding="UTF-8"?>
<!DOCTYPE svg PUBLIC "-//W3C//DTD SVG 1.1//EN" "http://www.w3.org/Graphics/SVG/1.1/DTD/svg11.dtd">
<svg xmlns="http://www.w3.org/2000/svg" xml:space="preserve" width="580px" height="580px" shape-rendering="geometricPrecision" text-rendering="geometricPrecision" image-rendering="optimizeQuality" fill-rule="nonzero" clip-rule="nonzero" viewBox="0 0 5800 5800" xmlns:xlink="http://www.w3.org/1999/xlink">
	<title>keyboard_key_clock icon</title>
	<desc>keyboard_key_clock icon from the IconExperience.com I-Collection. Copyright by INCORS GmbH (www.incors.com).</desc>
		<path id="curve29"  d="M1500 2700l0 -100c0,-68 5,-132 16,-196 11,-63 29,-126 55,-192l336 -849c16,-39 53,-63 93,-63l200 0c44,0 81,28 94,67l335 845c24,61 44,127 55,192 11,64 16,128 16,196l0 100 -200 0 0 -100c0,-57 -4,-111 -13,-162 -2,-13 -5,-25 -8,-38l-758 0c-3,13 -6,25 -8,38 -9,51 -13,104 -13,162l0 100 -200 0zm909 -500l-277 -700 -64 0 -277 700 618 0zm-1109 -1900l2800 0c551,0 1000,449 1000,1000l0 1258c-63,-56 -130,-108 -200,-155l0 -1103c0,-441 -359,-800 -800,-800l-2800 0c-440,0 -800,359 -800,800l0 2800c0,441 360,800 800,800l1103 0c47,70 99,137 155,200l-1258 0c-551,0 -1000,-449 -1000,-1000l0 -2800c0,-551 449,-1000 1000,-1000zm200 400l2400 0c331,0 600,269 600,600l0 903c-65,-23 -132,-43 -200,-58l0 -845c0,-220 -180,-400 -400,-400l-2400 0c-220,0 -400,180 -400,400l0 2400c0,220 180,400 400,400l611 0c8,68 19,135 34,200l-645 0c-331,0 -600,-269 -600,-600l0 -2400c0,-331 269,-600 600,-600z"/>
	<path id="curve28"  d="M3900 2300c884,0 1600,716 1600,1600 0,884 -716,1600 -1600,1600 -884,0 -1600,-716 -1600,-1600 0,-884 716,-1600 1600,-1600zm0 1400c19,0 37,3 54,7l424 -423 142 141 -426 426c4,16 6,32 6,49 0,110 -90,200 -200,200 -110,0 -200,-90 -200,-200 0,-19 3,-37 8,-54l-694 -693 142 -142 695 695c16,-4 32,-6 49,-6zm0 -1200c-773,0 -1400,627 -1400,1400 0,773 627,1400 1400,1400 773,0 1400,-627 1400,-1400 0,-773 -627,-1400 -1400,-1400z"/>
</svg>