<?xml version="1.0" encoding="UTF-8"?>
<!DOCTYPE svg PUBLIC "-//W3C//DTD SVG 1.1//EN" "http://www.w3.org/Graphics/SVG/1.1/DTD/svg11.dtd">
<svg xmlns="http://www.w3.org/2000/svg" xml:space="preserve" width="580px" height="580px" shape-rendering="geometricPrecision" text-rendering="geometricPrecision" image-rendering="optimizeQuality" fill-rule="nonzero" clip-rule="nonzero" viewBox="0 0 5800 5800" xmlns:xlink="http://www.w3.org/1999/xlink">
	<title>keyboard_key_b icon</title>
	<desc>keyboard_key_b icon from the IconExperience.com I-Collection. Copyright by INCORS GmbH (www.incors.com).</desc>
		<path id="curve28" d="M1900 2100l500 0c110,0 200,-90 200,-200 0,-110 -90,-200 -200,-200l-500 0 0 400zm-400 -1600l2800 0c551,0 1000,449 1000,1000l0 2800c0,551 -449,1000 -1000,1000l-2800 0c-551,0 -1000,-449 -1000,-1000l0 -2800c0,-551 449,-1000 1000,-1000zm2800 200l-2800 0c-441,0 -800,359 -800,800l0 2800c0,441 359,800 800,800l2800 0c441,0 800,-359 800,-800l0 -2800c0,-441 -359,-800 -800,-800zm-2600 200l2400 0c331,0 600,269 600,600l0 2400c0,331 -269,600 -600,600l-2400 0c-331,0 -600,-269 -600,-600l0 -2400c0,-331 269,-600 600,-600zm2400 200l-2400 0c-220,0 -400,180 -400,400l0 2400c0,220 180,400 400,400l2400 0c220,0 400,-180 400,-400l0 -2400c0,-220 -180,-400 -400,-400zm-1200 1400c0,220 -180,400 -400,400 -267,0 -533,0 -800,0l0 -700 0 -700 700 0c220,0 400,180 400,400 0,98 -35,188 -94,257 119,73 194,201 194,343zm-1000 200l600 0c110,0 200,-90 200,-200 0,-110 -90,-200 -200,-200l-600 0 0 400z"/>
</svg>