<?xml version="1.0" encoding="UTF-8"?>
<!DOCTYPE svg PUBLIC "-//W3C//DTD SVG 1.1//EN" "http://www.w3.org/Graphics/SVG/1.1/DTD/svg11.dtd">
<svg xmlns="http://www.w3.org/2000/svg" xml:space="preserve" width="580px" height="580px" shape-rendering="geometricPrecision" text-rendering="geometricPrecision" image-rendering="optimizeQuality" fill-rule="nonzero" clip-rule="nonzero" viewBox="0 0 5800 5800" xmlns:xlink="http://www.w3.org/1999/xlink">
	<title>keyboard_key_shift icon</title>
	<desc>keyboard_key_shift icon from the IconExperience.com I-Collection. Copyright by INCORS GmbH (www.incors.com).</desc>
		<path id="curve28"  d="M4500 1100c551,0 1000,449 1000,1000l0 1600c0,551 -449,1000 -1000,1000l-3200 0c-551,0 -1000,-449 -1000,-1000l0 -1600c0,-551 449,-1000 1000,-1000l3200 0zm-200 600c220,0 400,180 400,400l0 1200c0,220 -180,400 -400,400l-2800 0c-220,0 -400,-180 -400,-400l0 -1200c0,-220 180,-400 400,-400l2800 0zm-2800 -200c-331,0 -600,269 -600,600l0 1200c0,331 269,600 600,600l2800 0c331,0 600,-269 600,-600l0 -1200c0,-331 -269,-600 -600,-600l-2800 0zm864 1105l141 -141 -505 -505 -505 505 141 141 264 -264 0 859 200 0 0 -859 264 264z"/>
</svg>