<?xml version="1.0" encoding="UTF-8"?>
<!DOCTYPE svg PUBLIC "-//W3C//DTD SVG 1.1//EN" "http://www.w3.org/Graphics/SVG/1.1/DTD/svg11.dtd">
<svg xmlns="http://www.w3.org/2000/svg" xml:space="preserve" width="580px" height="580px" shape-rendering="geometricPrecision" text-rendering="geometricPrecision" image-rendering="optimizeQuality" fill-rule="nonzero" clip-rule="nonzero" viewBox="0 0 5800 5800" xmlns:xlink="http://www.w3.org/1999/xlink">
	<title>keyboard_key_shift icon</title>
	<desc>keyboard_key_shift icon from the IconExperience.com I-Collection. Copyright by INCORS GmbH (www.incors.com).</desc>
		<path id="curve28" d="M2364 2605l-264 -264 0 859 -200 0 0 -859 -264 264 -141 -141 505 -505 505 505 -141 141zm2136 -1505c551,0 1000,449 1000,1000l0 1600c0,551 -449,1000 -1000,1000l-3200 0c-551,0 -1000,-449 -1000,-1000l0 -1600c0,-551 449,-1000 1000,-1000l3200 0zm-3200 200c-440,0 -800,359 -800,800l0 1600c0,440 360,800 800,800l3200 0c440,0 800,-360 800,-800l0 -1600c0,-440 -360,-800 -800,-800l-3200 0zm3000 400l-2800 0c-220,0 -400,180 -400,400l0 1200c0,220 180,400 400,400l2800 0c220,0 400,-180 400,-400l0 -1200c0,-220 -180,-400 -400,-400zm-2800 -200l2800 0c331,0 600,269 600,600l0 1200c0,331 -269,600 -600,600l-2800 0c-331,0 -600,-269 -600,-600l0 -1200c0,-331 269,-600 600,-600z"/>
</svg>