<?xml version="1.0" encoding="UTF-8"?>
<!DOCTYPE svg PUBLIC "-//W3C//DTD SVG 1.1//EN" "http://www.w3.org/Graphics/SVG/1.1/DTD/svg11.dtd">
<svg xmlns="http://www.w3.org/2000/svg" xml:space="preserve" width="580px" height="580px" shape-rendering="geometricPrecision" text-rendering="geometricPrecision" image-rendering="optimizeQuality" fill-rule="nonzero" clip-rule="nonzero" viewBox="0 0 5800 5800" xmlns:xlink="http://www.w3.org/1999/xlink">
	<title>keyboard icon</title>
	<desc>keyboard icon from the IconExperience.com I-Collection. Copyright by INCORS GmbH (www.incors.com).</desc>
		<path id="curve28" d="M3000 400c55,0 100,45 100,100 0,442 -358,800 -800,800l-400 0c-331,0 -600,269 -600,600l0 400 -200 0 0 -400c0,-442 358,-800 800,-800l400 0c331,0 600,-269 600,-600 0,-55 45,-100 100,-100zm2500 2100l0 2000 -5200 0 0 -2000 5200 0zm-800 800c-133,0 -267,0 -400,0 0,133 0,267 0,400 133,0 267,0 400,0 0,-133 0,-267 0,-400zm-200 -600c-133,0 -267,0 -400,0 0,133 0,267 0,400 133,0 267,0 400,0 0,-133 0,-267 0,-400zm800 0c-200,0 -400,0 -600,0 0,133 0,267 0,400l200 0 0 600c133,0 267,0 400,0 0,-333 0,-667 0,-1000zm-1200 600c-133,0 -267,0 -400,0 0,133 0,267 0,400 133,0 267,0 400,0 0,-133 0,-267 0,-400zm-600 0c-133,0 -267,0 -400,0 0,133 0,267 0,400 133,0 267,0 400,0 0,-133 0,-267 0,-400zm-600 0c-133,0 -267,0 -400,0 0,133 0,267 0,400 133,0 267,0 400,0 0,-133 0,-267 0,-400zm-600 0c-133,0 -267,0 -400,0 0,133 0,267 0,400 133,0 267,0 400,0 0,-133 0,-267 0,-400zm-600 0c-133,0 -267,0 -400,0 0,133 0,267 0,400 133,0 267,0 400,0 0,-133 0,-267 0,-400zm3600 600c-267,0 -533,0 -800,0 0,133 0,267 0,400 267,0 533,0 800,0 0,-133 0,-267 0,-400zm-1000 0l-2800 0c0,133 0,267 0,400l2800 0c0,-133 0,-267 0,-400zm-400 -1200c-133,0 -267,0 -400,0 0,133 0,267 0,400 133,0 267,0 400,0 0,-133 0,-267 0,-400zm-600 0c-133,0 -267,0 -400,0 0,133 0,267 0,400 133,0 267,0 400,0 0,-133 0,-267 0,-400zm-600 0c-133,0 -267,0 -400,0 0,133 0,267 0,400 133,0 267,0 400,0 0,-133 0,-267 0,-400zm-600 0c-133,0 -267,0 -400,0 0,133 0,267 0,400 133,0 267,0 400,0 0,-133 0,-267 0,-400zm-600 0c-133,0 -267,0 -400,0 0,133 0,267 0,400 133,0 267,0 400,0 0,-133 0,-267 0,-400zm-200 1200c-267,0 -533,0 -800,0 0,133 0,267 0,400 267,0 533,0 800,0 0,-133 0,-267 0,-400zm-200 -600c-200,0 -400,0 -600,0 0,133 0,267 0,400 200,0 400,0 600,0 0,-133 0,-267 0,-400zm-200 -600c-133,0 -267,0 -400,0 0,133 0,267 0,400 133,0 267,0 400,0 0,-133 0,-267 0,-400z"/>
</svg>