<?xml version="1.0" encoding="UTF-8"?>
<!DOCTYPE svg PUBLIC "-//W3C//DTD SVG 1.1//EN" "http://www.w3.org/Graphics/SVG/1.1/DTD/svg11.dtd">
<svg xmlns="http://www.w3.org/2000/svg" xml:space="preserve" width="580px" height="580px" shape-rendering="geometricPrecision" text-rendering="geometricPrecision" image-rendering="optimizeQuality" fill-rule="nonzero" clip-rule="nonzero" viewBox="0 0 5800 5800" xmlns:xlink="http://www.w3.org/1999/xlink">
	<title>keypad icon</title>
	<desc>keypad icon from the IconExperience.com I-Collection. Copyright by INCORS GmbH (www.incors.com).</desc>
		<path id="curve28"  d="M1300 500l3600 0c220,0 400,180 400,400l0 4200c0,220 -180,400 -400,400l-3600 0c-220,0 -400,-180 -400,-400l0 -4200c0,-220 180,-400 400,-400zm1600 3700c-165,0 -300,135 -300,300l0 300c0,165 135,300 300,300l300 0c165,0 300,-135 300,-300l0 -300c0,-165 -135,-300 -300,-300l-300 0zm-1100 0c-165,0 -300,135 -300,300l0 300c0,165 135,300 300,300l300 0c165,0 300,-135 300,-300l0 -300c0,-165 -135,-300 -300,-300l-300 0zm2200 -1100c-165,0 -300,135 -300,300l0 1400c0,165 135,300 300,300l300 0c165,0 300,-135 300,-300l0 -1400c0,-165 -135,-300 -300,-300l-300 0zm-1100 0c-165,0 -300,135 -300,300l0 300c0,165 135,300 300,300l300 0c165,0 300,-135 300,-300l0 -300c0,-165 -135,-300 -300,-300l-300 0zm-1100 0c-165,0 -300,135 -300,300l0 300c0,165 135,300 300,300l300 0c165,0 300,-135 300,-300l0 -300c0,-165 -135,-300 -300,-300l-300 0zm2200 -1100c-165,0 -300,135 -300,300l0 300c0,165 135,300 300,300l300 0c165,0 300,-135 300,-300l0 -300c0,-165 -135,-300 -300,-300l-300 0zm-1100 0c-165,0 -300,135 -300,300l0 300c0,165 135,300 300,300l300 0c165,0 300,-135 300,-300l0 -300c0,-165 -135,-300 -300,-300l-300 0zm-1100 0c-165,0 -300,135 -300,300l0 300c0,165 135,300 300,300l300 0c165,0 300,-135 300,-300l0 -300c0,-165 -135,-300 -300,-300l-300 0zm2200 -1100c-165,0 -300,135 -300,300l0 300c0,165 135,300 300,300l300 0c165,0 300,-135 300,-300l0 -300c0,-165 -135,-300 -300,-300l-300 0zm-1100 0c-165,0 -300,135 -300,300l0 300c0,165 135,300 300,300l300 0c165,0 300,-135 300,-300l0 -300c0,-165 -135,-300 -300,-300l-300 0zm-1100 0c-165,0 -300,135 -300,300l0 300c0,165 135,300 300,300l300 0c165,0 300,-135 300,-300l0 -300c0,-165 -135,-300 -300,-300l-300 0z"/>
</svg>