<?xml version="1.0" encoding="UTF-8"?>
<!DOCTYPE svg PUBLIC "-//W3C//DTD SVG 1.1//EN" "http://www.w3.org/Graphics/SVG/1.1/DTD/svg11.dtd">
<svg xmlns="http://www.w3.org/2000/svg" xml:space="preserve" width="580px" height="580px" shape-rendering="geometricPrecision" text-rendering="geometricPrecision" image-rendering="optimizeQuality" fill-rule="nonzero" clip-rule="nonzero" viewBox="0 0 5800 5800" xmlns:xlink="http://www.w3.org/1999/xlink">
	<title>keypad icon</title>
	<desc>keypad icon from the IconExperience.com I-Collection. Copyright by INCORS GmbH (www.incors.com).</desc>
		<path id="curve28"  d="M2900 4200l300 0c165,0 300,135 300,300l0 300c0,165 -135,300 -300,300l-300 0c-165,0 -300,-135 -300,-300l0 -300c0,-165 135,-300 300,-300zm300 200l-300 0c-55,0 -100,45 -100,100l0 300c0,55 45,100 100,100l300 0c55,0 100,-45 100,-100l0 -300c0,-55 -45,-100 -100,-100zm-1400 -200l300 0c165,0 300,135 300,300l0 300c0,165 -135,300 -300,300l-300 0c-165,0 -300,-135 -300,-300l0 -300c0,-165 135,-300 300,-300zm300 200l-300 0c-55,0 -100,45 -100,100l0 300c0,55 45,100 100,100l300 0c55,0 100,-45 100,-100l0 -300c0,-55 -45,-100 -100,-100zm1900 -1300l300 0c165,0 300,135 300,300l0 1400c0,165 -135,300 -300,300l-300 0c-165,0 -300,-135 -300,-300l0 -1400c0,-165 135,-300 300,-300zm300 200l-300 0c-55,0 -100,45 -100,100l0 1400c0,55 45,100 100,100l300 0c55,0 100,-45 100,-100l0 -1400c0,-55 -45,-100 -100,-100zm-1400 -200l300 0c165,0 300,135 300,300l0 300c0,165 -135,300 -300,300l-300 0c-165,0 -300,-135 -300,-300l0 -300c0,-165 135,-300 300,-300zm300 200l-300 0c-55,0 -100,45 -100,100l0 300c0,55 45,100 100,100l300 0c55,0 100,-45 100,-100l0 -300c0,-55 -45,-100 -100,-100zm-1400 -200l300 0c165,0 300,135 300,300l0 300c0,165 -135,300 -300,300l-300 0c-165,0 -300,-135 -300,-300l0 -300c0,-165 135,-300 300,-300zm300 200l-300 0c-55,0 -100,45 -100,100l0 300c0,55 45,100 100,100l300 0c55,0 100,-45 100,-100l0 -300c0,-55 -45,-100 -100,-100zm1900 -1300l300 0c165,0 300,135 300,300l0 300c0,165 -135,300 -300,300l-300 0c-165,0 -300,-135 -300,-300l0 -300c0,-165 135,-300 300,-300zm300 200l-300 0c-55,0 -100,45 -100,100l0 300c0,55 45,100 100,100l300 0c55,0 100,-45 100,-100l0 -300c0,-55 -45,-100 -100,-100zm-1400 -200l300 0c165,0 300,135 300,300l0 300c0,165 -135,300 -300,300l-300 0c-165,0 -300,-135 -300,-300l0 -300c0,-165 135,-300 300,-300zm300 200l-300 0c-55,0 -100,45 -100,100l0 300c0,55 45,100 100,100l300 0c55,0 100,-45 100,-100l0 -300c0,-55 -45,-100 -100,-100zm-1400 -200l300 0c165,0 300,135 300,300l0 300c0,165 -135,300 -300,300l-300 0c-165,0 -300,-135 -300,-300l0 -300c0,-165 135,-300 300,-300zm300 200l-300 0c-55,0 -100,45 -100,100l0 300c0,55 45,100 100,100l300 0c55,0 100,-45 100,-100l0 -300c0,-55 -45,-100 -100,-100zm1900 -1300l300 0c165,0 300,135 300,300l0 300c0,165 -135,300 -300,300l-300 0c-165,0 -300,-135 -300,-300l0 -300c0,-165 135,-300 300,-300zm300 200l-300 0c-55,0 -100,45 -100,100l0 300c0,55 45,100 100,100l300 0c55,0 100,-45 100,-100l0 -300c0,-55 -45,-100 -100,-100zm-1400 -200l300 0c165,0 300,135 300,300l0 300c0,165 -135,300 -300,300l-300 0c-165,0 -300,-135 -300,-300l0 -300c0,-165 135,-300 300,-300zm300 200l-300 0c-55,0 -100,45 -100,100l0 300c0,55 45,100 100,100l300 0c55,0 100,-45 100,-100l0 -300c0,-55 -45,-100 -100,-100zm-1400 -200l300 0c165,0 300,135 300,300l0 300c0,165 -135,300 -300,300l-300 0c-165,0 -300,-135 -300,-300l0 -300c0,-165 135,-300 300,-300zm300 200l-300 0c-55,0 -100,45 -100,100l0 300c0,55 45,100 100,100l300 0c55,0 100,-45 100,-100l0 -300c0,-55 -45,-100 -100,-100zm-800 -600l3600 0c220,0 400,180 400,400l0 4200c0,220 -180,400 -400,400l-3600 0c-220,0 -400,-180 -400,-400l0 -4200c0,-220 180,-400 400,-400zm3600 200l-3600 0c-111,0 -200,89 -200,200l0 4200c0,110 90,200 200,200l3600 0c110,0 200,-90 200,-200l0 -4200c0,-110 -90,-200 -200,-200z"/>
</svg>