<?xml version="1.0" encoding="UTF-8"?>
<!DOCTYPE svg PUBLIC "-//W3C//DTD SVG 1.1//EN" "http://www.w3.org/Graphics/SVG/1.1/DTD/svg11.dtd">
<svg xmlns="http://www.w3.org/2000/svg" xml:space="preserve" width="580px" height="580px" shape-rendering="geometricPrecision" text-rendering="geometricPrecision" image-rendering="optimizeQuality" fill-rule="nonzero" clip-rule="nonzero" viewBox="0 0 5800 5800" xmlns:xlink="http://www.w3.org/1999/xlink">
	<title>keys icon</title>
	<desc>keys icon from the IconExperience.com I-Collection. Copyright by INCORS GmbH (www.incors.com).</desc>
		<path id="curve30"  d="M3800 300c718,0 1300,582 1300,1300 0,718 -582,1300 -1300,1300 -72,0 -143,-6 -212,-17 -53,-18 -88,-49 -88,-83 0,-55 90,-100 200,-100l100 0c608,0 1100,-492 1100,-1100 0,-608 -492,-1100 -1100,-1100 -410,0 -784,228 -974,589 -98,14 -193,58 -269,130 167,-546 672,-919 1243,-919z"/>
	<path id="curve29"  d="M895 4660c-31,-14 -54,-38 -70,-66 -16,-29 -25,-64 -25,-94l0 -442 1459 -1458 -188 -188c-59,-59 -88,-135 -88,-212 0,-77 29,-154 88,-212l617 -617c58,-59 135,-88 212,-88 77,0 154,29 212,88l351 351c-154,28 -301,84 -434,166l-23 -23c-30,-30 -68,-44 -106,-44 -38,0 -77,14 -106,44l-29 29c-30,29 -44,68 -44,106 0,42 16,78 46,108 -169,191 -267,432 -267,692 0,238 83,463 230,648 24,30 50,59 77,87l-66 65 -254 0c-28,0 -49,8 -62,23 -16,17 -25,44 -25,77l0 300 -300 0c-61,0 -100,39 -100,100l0 300 -300 0c-61,0 -100,39 -100,100l0 241 -180 181 -525 -262z"/>
	<path id="curve28"  d="M4100 5300l0 200c-267,0 -533,0 -800,0l0 -1875c-166,-66 -309,-170 -414,-302 -117,-147 -186,-328 -186,-523 0,-251 114,-477 297,-640 181,-161 429,-260 703,-260 274,0 522,99 703,260 19,17 38,35 56,53 -8,8 -15,16 -23,23 -122,122 -273,205 -438,242 -83,-49 -187,-78 -298,-78 -230,0 -500,143 -500,400 0,257 270,400 500,400 128,0 261,-40 361,-123 232,-40 450,-135 639,-277 0,195 -69,376 -186,523 -105,132 -248,236 -414,302l0 675 400 0 0 400 -500 0 0 200 500 0 0 400 -400 0z"/>
</svg>