<?xml version="1.0" encoding="UTF-8"?>
<!DOCTYPE svg PUBLIC "-//W3C//DTD SVG 1.1//EN" "http://www.w3.org/Graphics/SVG/1.1/DTD/svg11.dtd">
<svg xmlns="http://www.w3.org/2000/svg" xml:space="preserve" width="580px" height="580px" shape-rendering="geometricPrecision" text-rendering="geometricPrecision" image-rendering="optimizeQuality" fill-rule="nonzero" clip-rule="nonzero" viewBox="0 0 5800 5800" xmlns:xlink="http://www.w3.org/1999/xlink">
	<title>kidney_dish icon</title>
	<desc>kidney_dish icon from the IconExperience.com I-Collection. Copyright by INCORS GmbH (www.incors.com).</desc>
	<path id="curve0"  d="M5600 2749l0 451c0,773 -627,1400 -1400,1400 -207,0 -400,-40 -603,-82 -214,-45 -438,-91 -697,-91 -259,0 -483,46 -697,91 -203,42 -396,82 -603,82 -773,0 -1400,-627 -1400,-1400l0 -451c0,322 160,612 418,821 253,204 600,330 982,330 207,0 400,-40 603,-82 214,-45 438,-91 697,-91 259,0 483,46 697,91 203,42 396,82 603,82 382,0 729,-126 982,-330 258,-209 418,-499 418,-821zm-4483 -175c-41,37 -104,34 -141,-7 -37,-41 -34,-104 7,-141 189,-170 474,-295 786,-379 374,-101 791,-147 1131,-147 55,0 100,45 100,100 0,55 -45,100 -100,100 -326,0 -724,43 -1079,139 -286,78 -542,188 -704,335zm3940 840c212,-171 343,-407 343,-665 0,-376 -270,-655 -651,-852 -541,-281 -1297,-397 -1849,-397 -943,0 -2500,334 -2500,1249 0,258 131,494 343,665 218,177 521,286 857,286 189,0 371,-38 563,-78 224,-46 460,-95 737,-95 277,0 513,49 737,95 192,40 374,78 563,78 336,0 638,-109 857,-286z"/>
</svg>