<?xml version="1.0" encoding="UTF-8"?>
<!DOCTYPE svg PUBLIC "-//W3C//DTD SVG 1.1//EN" "http://www.w3.org/Graphics/SVG/1.1/DTD/svg11.dtd">
<svg xmlns="http://www.w3.org/2000/svg" xml:space="preserve" width="580px" height="580px" shape-rendering="geometricPrecision" text-rendering="geometricPrecision" image-rendering="optimizeQuality" fill-rule="nonzero" clip-rule="nonzero" viewBox="0 0 5800 5800" xmlns:xlink="http://www.w3.org/1999/xlink">
	<title>knife_fork icon</title>
	<desc>knife_fork icon from the IconExperience.com I-Collection. Copyright by INCORS GmbH (www.incors.com).</desc>
		<path id="curve29" d="M3600 3100l300 0 0 1900c0,165 135,300 300,300 165,0 300,-135 300,-300l0 -4300c0,-111 -89,-200 -200,-200 -178,0 -402,111 -568,332 -136,182 -232,437 -232,768l0 1400c0,55 45,100 100,100zm0 200c-165,0 -300,-135 -300,-300l0 -1400c0,-378 112,-674 272,-887 207,-275 494,-413 728,-413 220,0 400,180 400,400l0 4300c0,275 -225,500 -500,500 -275,0 -500,-225 -500,-500l0 -1700 -100 0z"/>
	<path id="curve28" d="M2300 400c0,-55 45,-100 100,-100 55,0 100,45 100,100l0 1100c0,267 -151,465 -400,552l0 948c0,41 39,89 78,137 61,76 122,152 122,263l0 1600c0,275 -225,500 -500,500 -275,0 -500,-225 -500,-500l0 -1600c0,-111 61,-187 122,-262 39,-49 78,-97 78,-138l0 -948c-249,-87 -400,-285 -400,-552l0 -1100c0,-55 45,-100 100,-100 63,0 92,44 100,100l0 1100c0,204 123,330 315,378 48,8 85,49 85,99l0 1023c0,111 -61,187 -122,263 -39,48 -78,96 -78,137l0 1600c0,165 135,300 300,300 165,0 300,-135 300,-300l0 -1600c0,-41 -39,-89 -78,-137 -61,-76 -122,-152 -122,-263l0 -1023c0,-45 31,-86 77,-97 195,-47 323,-173 323,-380 0,-367 0,-733 0,-1100zm-800 0c0,-55 45,-100 100,-100 55,0 100,45 100,100 0,367 0,733 0,1100 0,55 -45,100 -100,100 -55,0 -100,-45 -100,-100l0 -1100zm402 0c0,-55 45,-100 100,-100 69,0 100,53 100,116l0 1084c0,55 -44,100 -100,100 -55,0 -100,-45 -100,-100l0 -1100z"/>
</svg>