<?xml version="1.0" encoding="UTF-8"?>
<!DOCTYPE svg PUBLIC "-//W3C//DTD SVG 1.1//EN" "http://www.w3.org/Graphics/SVG/1.1/DTD/svg11.dtd">
<svg xmlns="http://www.w3.org/2000/svg" xml:space="preserve" width="580px" height="580px" shape-rendering="geometricPrecision" text-rendering="geometricPrecision" image-rendering="optimizeQuality" fill-rule="nonzero" clip-rule="nonzero" viewBox="0 0 5800 5800" xmlns:xlink="http://www.w3.org/1999/xlink">
	<title>knife icon</title>
	<desc>knife icon from the IconExperience.com I-Collection. Copyright by INCORS GmbH (www.incors.com).</desc>
		<path id="curve28" d="M3734 2875c-23,5 -46,8 -68,8 -65,0 -130,-21 -184,-64l-2 -1 -1 -1 -2 -2 0 0 -3 -1 0 -1 -2 -1 -1 -2 -1 0 -2 -2 -1 0 -2 -3 0 0 -2 -2 -1 0 -1 -2 -2 -1 -1 -1 -1 -1 -1 -1 -2 -2 0 0 -352 -352c-253,264 -470,518 -704,790 -81,94 -163,190 -256,296 -242,279 -540,657 -794,1045 -158,241 -298,485 -395,709 546,-79 1093,-378 1602,-754 561,-416 1076,-926 1491,-1342l-312 -312zm1595 -1735c0,155 -57,308 -155,406 -76,76 -157,127 -239,157 -92,33 -184,40 -273,25 0,0 0,0 -1,1l-725 725c27,56 35,119 25,180 -8,46 -27,91 -56,130l293 293c70,73 69,190 -2,262 -421,422 -945,943 -1523,1370 -585,433 -1224,768 -1867,811l-151 10 51 -143c99,-279 273,-594 475,-902 258,-395 563,-781 811,-1066 84,-97 170,-197 254,-296 242,-282 467,-544 732,-819 -5,-18 -7,-36 -7,-55 0,-51 19,-102 58,-141l1344 -1344c110,-110 255,-166 401,-166 317,0 555,246 555,562m-200 0c0,-206 -149,-362 -355,-362 -94,0 -188,36 -260,108l-1343 1343 0 0c0,0 0,0 0,0l0 0 0 1 424 424 0 0 1 1 0 0 0 0 1 1 0 0 1 1 0 0 1 0 0 0 0 1 1 0 0 1 1 0 0 1 1 0 1 1 0 0 1 1 0 0c18,14 40,21 62,21 48,0 90,-35 98,-83 4,-20 1,-41 -8,-60 -18,-39 -24,-80 -17,-120 6,-37 23,-71 49,-100 2,-3 5,-5 7,-8l725 -725c23,-23 50,-39 80,-49 30,-9 61,-12 93,-7 58,10 116,6 174,-15 55,-20 111,-57 166,-112 61,-61 97,-161 96,-264zm-1958 1089l0 0 0 0zm1490 -501c0,0 0,0 0,0l0 0 0 0 0 0zm0 0c0,0 0,0 0,0l0 0z"/>
</svg>