<?xml version="1.0" encoding="UTF-8"?>
<!DOCTYPE svg PUBLIC "-//W3C//DTD SVG 1.1//EN" "http://www.w3.org/Graphics/SVG/1.1/DTD/svg11.dtd">
<svg xmlns="http://www.w3.org/2000/svg" xml:space="preserve" width="580px" height="580px" shape-rendering="geometricPrecision" text-rendering="geometricPrecision" image-rendering="optimizeQuality" fill-rule="nonzero" clip-rule="nonzero" viewBox="0 0 5800 5800" xmlns:xlink="http://www.w3.org/1999/xlink">
	<title>knife_fork_spoon icon</title>
	<desc>knife_fork_spoon icon from the IconExperience.com I-Collection. Copyright by INCORS GmbH (www.incors.com).</desc>
		<path id="curve28"  d="M4300 3283c-119,-42 -200,-156 -200,-283l0 -1400c0,-396 79,-701 203,-915 150,-257 366,-385 597,-385 220,0 400,180 400,400l0 4300c0,275 -225,500 -500,500 -275,0 -500,-225 -500,-500l0 -1717zm-700 -2883c0,-55 45,-100 100,-100 55,0 100,45 100,100l0 1100c0,267 -151,465 -400,552l0 948c0,41 39,89 78,137 61,76 122,152 122,263l0 1600c0,275 -225,500 -500,500 -275,0 -500,-225 -500,-500l0 -1600c0,-111 61,-187 122,-262 39,-49 78,-97 78,-138l0 -948c-249,-87 -400,-285 -400,-552l0 -1100c0,-55 45,-100 100,-100 55,0 100,45 100,100l0 1001c0,55 45,100 100,100 55,0 100,-45 100,-100l0 -1001c0,-55 45,-100 100,-100 55,0 100,45 100,100l0 1001c-1,55 45,100 100,100 55,0 100,-45 100,-100l2 -1001c0,-55 45,-100 100,-100 56,0 100,45 100,100 0,333 -2,671 -2,1001 0,31 45,100 100,100 55,0 99,-45 100,-100l0 -1001zm-2200 -100c199,0 377,104 504,274 121,161 196,382 196,626 0,340 -98,711 -400,906l0 894c0,41 39,89 78,137 61,76 122,152 122,263l0 1600c0,275 -225,500 -500,500 -275,0 -500,-225 -500,-500l0 -1600c0,-111 61,-187 122,-262 39,-49 78,-97 78,-138l0 -894c-302,-195 -400,-566 -400,-906 0,-244 75,-465 196,-626 127,-170 305,-274 504,-274z"/>
</svg>