<?xml version="1.0" encoding="UTF-8"?>
<!DOCTYPE svg PUBLIC "-//W3C//DTD SVG 1.1//EN" "http://www.w3.org/Graphics/SVG/1.1/DTD/svg11.dtd">
<svg xmlns="http://www.w3.org/2000/svg" xml:space="preserve" width="580px" height="580px" shape-rendering="geometricPrecision" text-rendering="geometricPrecision" image-rendering="optimizeQuality" fill-rule="nonzero" clip-rule="nonzero" viewBox="0 0 5800 5800" xmlns:xlink="http://www.w3.org/1999/xlink">
	<title>knife_fork icon</title>
	<desc>knife_fork icon from the IconExperience.com I-Collection. Copyright by INCORS GmbH (www.incors.com).</desc>
		<path id="curve28"  d="M2300 400c0,-55 45,-100 100,-100 55,0 100,45 100,100l0 1100c0,267 -151,465 -400,552l0 948c0,41 39,89 78,137 61,76 122,152 122,263l0 1600c0,275 -225,500 -500,500 -275,0 -500,-225 -500,-500l0 -1600c0,-111 61,-187 122,-262 39,-49 78,-97 78,-138l0 -948c-249,-87 -400,-285 -400,-552l0 -1100c0,-55 45,-100 100,-100 55,0 100,45 100,100l0 1001c0,55 45,100 100,100 55,0 100,-45 100,-100l0 -1001c0,-55 45,-100 100,-100 55,0 100,45 100,100l0 1001c-1,55 45,100 100,100 55,0 100,-45 100,-100l2 -1001c0,-55 45,-100 100,-100 56,0 100,45 100,100 0,333 -2,671 -2,1001 0,31 45,100 100,100 55,0 99,-45 100,-100l0 -1001zm1300 2900c-165,0 -300,-135 -300,-300l0 -1400c0,-378 112,-674 272,-887 207,-275 494,-413 728,-413 220,0 400,180 400,400l0 4300c0,275 -225,500 -500,500 -275,0 -500,-225 -500,-500l0 -1700 -100 0z"/>
</svg>