<?xml version="1.0" encoding="UTF-8"?>
<!DOCTYPE svg PUBLIC "-//W3C//DTD SVG 1.1//EN" "http://www.w3.org/Graphics/SVG/1.1/DTD/svg11.dtd">
<svg xmlns="http://www.w3.org/2000/svg" xml:space="preserve" width="580px" height="580px" shape-rendering="geometricPrecision" text-rendering="geometricPrecision" image-rendering="optimizeQuality" fill-rule="nonzero" clip-rule="nonzero" viewBox="0 0 5800 5800" xmlns:xlink="http://www.w3.org/1999/xlink">
	<title>knife icon</title>
	<desc>knife icon from the IconExperience.com I-Collection. Copyright by INCORS GmbH (www.incors.com).</desc>
		<path id="curve29"  d="M2673 4689c-585,433 -1224,768 -1867,811l-151 10 51 -143c99,-279 273,-594 475,-902 258,-395 563,-781 811,-1066 84,-97 170,-197 254,-296 196,-228 381,-443 585,-663 12,20 27,39 43,57l438 439c189,189 496,195 692,14 16,-13 31,-28 44,-43l150 150c70,73 69,190 -2,262 -421,422 -945,943 -1523,1370z"/>
	<path id="curve28"  d="M3871 2801c-117,111 -303,108 -417,-6l-432 -432c-71,-78 -68,-200 7,-275l1344 -1344c220,-220 581,-220 801,0 207,207 206,596 0,802 -139,139 -315,214 -512,182l-726 726c53,111 32,267 -65,347z"/>
</svg>