<?xml version="1.0" encoding="UTF-8"?>
<!DOCTYPE svg PUBLIC "-//W3C//DTD SVG 1.1//EN" "http://www.w3.org/Graphics/SVG/1.1/DTD/svg11.dtd">
<svg xmlns="http://www.w3.org/2000/svg" xml:space="preserve" width="580px" height="580px" shape-rendering="geometricPrecision" text-rendering="geometricPrecision" image-rendering="optimizeQuality" fill-rule="nonzero" clip-rule="nonzero" viewBox="0 0 5800 5800" xmlns:xlink="http://www.w3.org/1999/xlink">
	<title>knife_fork_spoon icon</title>
	<desc>knife_fork_spoon icon from the IconExperience.com I-Collection. Copyright by INCORS GmbH (www.incors.com).</desc>
		<path id="curve30"  d="M4300 3283c-119,-42 -200,-156 -200,-283l0 -1400c0,-396 79,-701 203,-915 150,-257 366,-385 597,-385 220,0 400,180 400,400l0 4300c0,275 -225,500 -500,500 -275,0 -500,-225 -500,-500l0 -1717zm100 -183l100 0 0 100 0 1800c0,165 135,300 300,300 165,0 300,-135 300,-300l0 -4300c0,-111 -89,-200 -200,-200 -160,0 -313,95 -424,285 -108,185 -176,456 -176,815l0 1400c0,55 45,100 100,100z"/>
	<path id="curve29"  d="M3600 400c0,-55 45,-100 100,-100 55,0 100,45 100,100l0 1100c0,267 -151,465 -400,552l0 948c0,41 39,89 78,137 61,76 122,152 122,263l0 1600c0,275 -225,500 -500,500 -275,0 -500,-225 -500,-500l0 -1600c0,-111 61,-187 122,-262 39,-49 78,-97 78,-138l0 -948c-249,-87 -400,-285 -400,-552l0 -1100c0,-55 45,-100 100,-100 55,0 100,45 100,100l0 1100c0,204 123,330 315,378 48,8 85,49 85,99l0 1023c0,111 -61,187 -122,263 -39,48 -78,96 -78,137l0 1600c0,83 34,158 88,212 54,54 129,88 212,88 83,0 158,-34 212,-88 54,-54 88,-129 88,-212l0 -1600c0,-41 -39,-89 -78,-137 -61,-76 -122,-152 -122,-263l0 -1023c0,0 49,-90 77,-97 195,-47 323,-173 323,-380 0,-367 0,-733 0,-1100zm-800 0c0,-55 45,-100 100,-100 55,0 100,45 100,100 0,367 0,733 0,1100 0,55 -45,100 -100,100 -55,0 -100,-45 -100,-100l0 -1100zm402 0c0,-55 45,-100 100,-100 56,0 100,45 100,100 0,367 0,733 0,1100 0,55 -44,100 -100,100 -55,0 -100,-45 -100,-100l0 -1100z"/>
	<path id="curve28"  d="M1745 694c-90,-120 -212,-194 -345,-194 -133,0 -255,74 -345,194 -96,127 -155,306 -155,506 0,197 34,358 93,483 61,128 147,219 248,274 35,16 59,51 59,92l0 951c0,111 -61,187 -122,263 -39,48 -78,96 -78,137l0 1600c0,165 135,300 300,300 165,0 300,-135 300,-300l0 -1600c0,-41 -39,-89 -78,-137 -61,-76 -122,-152 -122,-263l0 -951c0,-36 20,-71 53,-89 103,-54 192,-146 253,-277 59,-125 94,-286 94,-483 0,-200 -59,-379 -155,-506zm-345 -394c199,0 377,104 504,274 121,161 196,382 196,626 0,227 -42,417 -113,568 -70,150 -170,262 -287,338l0 894c0,41 39,89 78,137 61,76 122,152 122,263l0 1600c0,275 -225,500 -500,500 -275,0 -500,-225 -500,-500l0 -1600c0,-111 61,-187 122,-262 39,-49 78,-97 78,-138l0 -894c-117,-76 -217,-188 -287,-338 -71,-151 -113,-341 -113,-568 0,-244 75,-465 196,-626 127,-170 305,-274 504,-274z"/>
</svg>