<?xml version="1.0" encoding="UTF-8"?>
<!DOCTYPE svg PUBLIC "-//W3C//DTD SVG 1.1//EN" "http://www.w3.org/Graphics/SVG/1.1/DTD/svg11.dtd">
<svg xmlns="http://www.w3.org/2000/svg" xml:space="preserve" width="580px" height="580px" shape-rendering="geometricPrecision" text-rendering="geometricPrecision" image-rendering="optimizeQuality" fill-rule="nonzero" clip-rule="nonzero" viewBox="0 0 5800 5800" xmlns:xlink="http://www.w3.org/1999/xlink">
	<title>knot icon</title>
	<desc>knot icon from the IconExperience.com I-Collection. Copyright by INCORS GmbH (www.incors.com).</desc>
		<path id="curve28"  d="M2701 3454c8,-164 59,-292 134,-397 79,-109 178,-184 281,-250 85,-53 -1,2 80,-49 231,-144 404,-253 404,-458 0,-124 -45,-270 -135,-375 -63,-74 -152,-125 -265,-125l0 -400c245,0 434,109 568,266 155,180 232,427 232,634 0,424 -255,584 -593,795 -29,19 61,-38 -77,50 -68,43 -131,90 -171,145 -35,48 -57,111 -59,199 -137,16 -271,25 -399,-35zm399 -1554c36,157 163,271 274,380 38,37 75,74 110,112 -3,9 -8,17 -13,26 -46,75 -180,164 -292,233 -27,-29 -56,-58 -85,-86 -192,-190 -394,-389 -394,-765l0 -1500 400 0 0 1500 0 100zm-200 2100c-312,0 -591,-151 -791,-396 -191,-233 -309,-553 -309,-904 0,-351 118,-671 309,-904 133,-163 301,-284 491,-347l0 351c0,26 1,55 3,86 -68,41 -131,97 -185,163 -135,165 -218,395 -218,651 0,256 83,486 218,651 126,154 297,249 482,249l150 5c167,0 294,-58 384,-142 101,-95 167,-232 166,-372 131,-88 249,-179 338,-293 43,95 62,198 62,302 0,215 -98,470 -293,653 -158,149 -377,252 -660,252l-147 -5zm-200 1500l0 -1418c131,24 268,21 400,10l0 1408 -400 0z"/>
</svg>