<?xml version="1.0" encoding="UTF-8"?>
<!DOCTYPE svg PUBLIC "-//W3C//DTD SVG 1.1//EN" "http://www.w3.org/Graphics/SVG/1.1/DTD/svg11.dtd">
<svg xmlns="http://www.w3.org/2000/svg" xml:space="preserve" width="580px" height="580px" shape-rendering="geometricPrecision" text-rendering="geometricPrecision" image-rendering="optimizeQuality" fill-rule="nonzero" clip-rule="nonzero" viewBox="0 0 5800 5800" xmlns:xlink="http://www.w3.org/1999/xlink">
	<title>knot icon</title>
	<desc>knot icon from the IconExperience.com I-Collection. Copyright by INCORS GmbH (www.incors.com).</desc>
		<path id="curve28" d="M2800 3500c0,-164 45,-286 116,-384 69,-96 159,-164 254,-224 29,-19 26,-16 79,-50 257,-161 451,-282 451,-542 0,-145 -53,-316 -159,-440 -81,-94 -195,-160 -341,-160l0 -200c212,0 376,95 493,231 138,161 207,382 207,569 0,370 -234,516 -545,711 -2,1 4,-3 -78,49 -78,50 -150,103 -199,172 -48,66 -78,151 -78,268l-200 0zm200 -3200l0 1500c0,252 156,405 304,551 41,41 82,81 120,123 -42,41 -100,83 -159,122 -32,-34 -66,-68 -101,-103 -178,-175 -364,-358 -364,-693l0 -1500 200 0zm864 2581c4,10 7,21 10,32 17,57 26,119 26,187 0,190 -87,417 -261,581 -141,132 -337,224 -589,224l-150 -5c-280,0 -532,-137 -714,-359 -177,-216 -286,-514 -286,-841 0,-327 109,-625 286,-841 114,-139 255,-245 414,-304l0 218c-97,50 -185,122 -259,212 -149,182 -241,435 -241,715 0,280 92,533 241,715 144,176 342,285 559,285l150 5c195,0 346,-70 452,-170 132,-124 198,-293 198,-435 0,-27 -2,-52 -5,-75 61,-45 118,-92 169,-144zm-1064 2619l0 -1404c33,2 66,4 100,4 33,0 66,-1 100,-2l0 1402 -200 0z"/>
</svg>