<?xml version="1.0" encoding="utf-8"?>
<!-- Generator: Adobe Illustrator 19.2.1, SVG Export Plug-In . SVG Version: 6.00 Build 0)  -->
<svg version="1.1" id="label_x5F_gi" xmlns="http://www.w3.org/2000/svg" xmlns:xlink="http://www.w3.org/1999/xlink" x="0px"
	 y="0px" width="580px" height="580px" viewBox="0 0 580 580" style="enable-background:new 0 0 580 580;" xml:space="preserve">
<title>address_book2 icon</title>
<desc>address_book2 icon from the IconExperience.com I-Collection. Copyright by INCORS GmbH (www.incors.com).</desc>
<title>address_book2 icon</title>
<desc>address_book2 icon from the IconExperience.com I-Collection. Copyright by INCORS GmbH (www.incors.com).</desc>
<title>address_book2 icon</title>
<desc>address_book2 icon from the IconExperience.com I-Collection. Copyright by INCORS GmbH (www.incors.com).</desc>
<path d="M290,290"/>
<path d="M441.2,361c-1.8-5.8-3.8-11.7-6-18.4L349.3,75.8c-1.4-6.2-7-10.8-13.6-10.8h-88.5c-5.8,0-11.3,3.7-13.2,9.6l-92.5,267.8
	c-6.9,20.2-12,36.1-15.3,52.6c-3.4,16.7-4.9,33.6-4.9,55.5V515h21.1v-64.5c0-19.4,1.3-34,3.9-48c0.3-0.9,0.6-2.1,1.1-3.8h283.2
	l1.2,3.8c3.7,14.3,5.9,29,5.9,48V515h21.1v-64.5C458.8,412.9,451.4,391.3,441.2,361z M153,378.7c3.2-11.3,6.5-23,8.1-27.3
	l89.2-265.3h82.2l83,265c2.1,6.6,4.2,12.8,6.2,18.7l2.8,8.9H153z"/>
</svg>
