<?xml version="1.0" encoding="UTF-8"?>
<!DOCTYPE svg PUBLIC "-//W3C//DTD SVG 1.1//EN" "http://www.w3.org/Graphics/SVG/1.1/DTD/svg11.dtd">
<svg xmlns="http://www.w3.org/2000/svg" xml:space="preserve" width="580px" height="580px" shape-rendering="geometricPrecision" text-rendering="geometricPrecision" image-rendering="optimizeQuality" fill-rule="nonzero" clip-rule="nonzero" viewBox="0 0 5800 5800" xmlns:xlink="http://www.w3.org/1999/xlink">
	<title>ladder icon</title>
	<desc>ladder icon from the IconExperience.com I-Collection. Copyright by INCORS GmbH (www.incors.com).</desc>
	<path id="curve0"  d="M2384 900l1299 0 35 -200c200,0 399,0 598,0l-832 4800c-200,0 -400,0 -601,0l105 -600 -1300 0 -104 600c-234,0 -467,0 -700,0l832 -4800c234,0 469,0 703,0l-35 200zm-358 600l-35 200c518,0 1036,0 1553,0l105 -600 -1300 0 -69 400 -254 0zm-174 1000l-34 200c517,0 1035,0 1552,0l140 -800 -1300 0 -104 600 -254 0zm-173 1000l-35 200c518,0 1035,0 1553,0l139 -800 -1300 0 -104 600 -253 0zm-174 1000l-34 200c517,0 1034,0 1552,0l139 -800 -1300 0 -104 600 -253 0zm2845 -2843l669 3843 -203 0 -567 -3259 101 -584z"/>
</svg>