<?xml version="1.0" encoding="UTF-8"?>
<!DOCTYPE svg PUBLIC "-//W3C//DTD SVG 1.1//EN" "http://www.w3.org/Graphics/SVG/1.1/DTD/svg11.dtd">
<svg xmlns="http://www.w3.org/2000/svg" xml:space="preserve" width="580px" height="580px" shape-rendering="geometricPrecision" text-rendering="geometricPrecision" image-rendering="optimizeQuality" fill-rule="nonzero" clip-rule="nonzero" viewBox="0 0 5800 5800" xmlns:xlink="http://www.w3.org/1999/xlink">
	<title>ladder icon</title>
	<desc>ladder icon from the IconExperience.com I-Collection. Copyright by INCORS GmbH (www.incors.com).</desc>
	<path id="curve0"  d="M3121 5300l195 0 763 -4400 -193 0 -765 4400zm1229 -3643l669 3843 -203 0 -567 -3259 101 -584zm-3229 3643l295 0 70 -400 -98 0 35 -200c533,0 1066,0 1600,0l139 -800 -1300 0 -104 600 -203 0 105 -600 -98 0 34 -200c534,0 1067,0 1601,0l139 -800 -1300 0 -104 600 -203 0 104 -600 -98 0 35 -200c533,0 1067,0 1600,0l140 -800 -1300 0 -104 600 -203 0 104 -600 -99 0 35 -200c534,0 1068,0 1601,0l105 -600 -1300 0 -69 400 -203 0 104 -600 -297 0c-254,1466 -509,2934 -763,4400zm-237 200l832 -4800 703 0 -35 200 1299 0 35 -200c200,0 399,0 598,0l-832 4800c-200,0 -400,0 -601,0l105 -600 -1300 0 -104 600c-234,0 -467,0 -700,0z"/>
</svg>