<?xml version="1.0" encoding="UTF-8"?>
<!DOCTYPE svg PUBLIC "-//W3C//DTD SVG 1.1//EN" "http://www.w3.org/Graphics/SVG/1.1/DTD/svg11.dtd">
<svg xmlns="http://www.w3.org/2000/svg" xml:space="preserve" width="580px" height="580px" shape-rendering="geometricPrecision" text-rendering="geometricPrecision" image-rendering="optimizeQuality" fill-rule="nonzero" clip-rule="nonzero" viewBox="0 0 5800 5800" xmlns:xlink="http://www.w3.org/1999/xlink">
	<title>lantern_on icon</title>
	<desc>lantern_on icon from the IconExperience.com I-Collection. Copyright by INCORS GmbH (www.incors.com).</desc>
	<path id="curve0"  d="M1900 734l0 -134c0,-165 135,-300 300,-300l1400 0c165,0 300,135 300,300l0 134 1200 500c0,155 0,311 0,466l-600 0 0 2766 400 499 0 535 -1000 0 0 -359 -241 -241 -1518 0 -241 241 0 359 -1000 0 0 -534 400 -500 0 -2766 -600 0c0,-155 0,-311 0,-466l1200 -500zm2200 966c-800,0 -1600,0 -2400,0l0 2800 2400 0 0 -2800zm-200 200l0 2400 -483 0c174,-154 272,-374 272,-607 0,-219 -32,-398 -97,-564 -136,-345 -461,-716 -773,-913l-203 -128 52 233c58,259 -87,440 -245,638 -99,124 -186,234 -246,384 -132,330 -64,717 206,957l-483 0 0 -2400 2000 0zm-842 1857c-66,-92 -135,-189 -168,-338 -57,62 -107,126 -148,194 -71,119 -113,252 -113,413 0,158 104,274 265,274 160,0 277,-113 277,-274 0,-111 -55,-187 -113,-269zm-628 300c-135,-184 -151,-432 -68,-641 50,-124 133,-228 216,-332 145,-182 281,-351 301,-578 207,172 429,447 527,696 55,142 83,297 83,491 0,138 -45,264 -119,365 10,-176 -52,-281 -150,-418 -74,-104 -156,-218 -148,-437l7 -233 -173 156c-134,119 -251,243 -336,386 -96,161 -150,356 -140,545z"/>
</svg>