<?xml version="1.0" encoding="UTF-8"?>
<!DOCTYPE svg PUBLIC "-//W3C//DTD SVG 1.1//EN" "http://www.w3.org/Graphics/SVG/1.1/DTD/svg11.dtd">
<svg xmlns="http://www.w3.org/2000/svg" xml:space="preserve" width="580px" height="580px" shape-rendering="geometricPrecision" text-rendering="geometricPrecision" image-rendering="optimizeQuality" fill-rule="nonzero" clip-rule="nonzero" viewBox="0 0 5800 5800" xmlns:xlink="http://www.w3.org/1999/xlink">
	<title>lantern icon</title>
	<desc>lantern icon from the IconExperience.com I-Collection. Copyright by INCORS GmbH (www.incors.com).</desc>
	<path id="curve0"  d="M4900 1500l0 -134 -1200 -500 0 -266c0,-55 -45,-100 -100,-100l-1400 0c-55,0 -100,45 -100,100l0 266 -1200 500 0 134c1333,0 2667,0 4000,0zm-800 200l0 2800 -2400 0 0 -2800 -200 0 0 2834 -400 500 0 266 600 0 0 -241 359 -359 1682 0 359 359 0 241 600 0 0 -265 -400 -501 0 -2834 -200 0zm-2200 -966l0 -134c0,-165 135,-300 300,-300l1400 0c165,0 300,135 300,300l0 134 1200 500 0 466 -600 0 0 2766 400 499 0 535 -1000 0 0 -359 -241 -241 -1518 0 -241 241 0 359 -1000 0 0 -534 400 -500 0 -2766 -600 0 0 -466 1200 -500zm2000 966l-2000 0 0 2600 2000 0 0 -2600z"/>
</svg>