<?xml version="1.0" encoding="UTF-8"?>
<!DOCTYPE svg PUBLIC "-//W3C//DTD SVG 1.1//EN" "http://www.w3.org/Graphics/SVG/1.1/DTD/svg11.dtd">
<svg xmlns="http://www.w3.org/2000/svg" xml:space="preserve" width="580px" height="580px" shape-rendering="geometricPrecision" text-rendering="geometricPrecision" image-rendering="optimizeQuality" fill-rule="nonzero" clip-rule="nonzero" viewBox="0 0 5800 5800" xmlns:xlink="http://www.w3.org/1999/xlink">
	<title>lantern_on icon</title>
	<desc>lantern_on icon from the IconExperience.com I-Collection. Copyright by INCORS GmbH (www.incors.com).</desc>
	<path id="curve0"  d="M4900 1500l0 -134 -1200 -500 0 -266c0,-55 -45,-100 -100,-100l-1400 0c-55,0 -100,45 -100,100l0 266 -1200 500 0 134c1333,0 2667,0 4000,0zm-1828 1703c-8,219 74,333 148,437 98,137 160,242 150,418 74,-101 119,-227 119,-365 0,-194 -28,-349 -83,-491 -57,-143 -143,-276 -261,-424 -79,-99 -168,-191 -266,-272 -20,227 -156,396 -301,578 -83,104 -166,208 -216,332 -33,83 -51,173 -51,277 0,138 45,263 119,364 -10,-189 44,-384 140,-545 85,-143 202,-267 336,-386l173 -156 -7 233zm-14 554c-66,-92 -135,-189 -168,-338 -162,176 -261,361 -261,607 0,158 104,274 265,274 160,0 277,-113 277,-274 0,-111 -55,-187 -113,-269zm-635 -798c158,-198 303,-379 245,-638l-52 -233c162,102 313,191 457,322 81,74 158,156 228,243 130,163 226,312 291,476 65,166 97,345 97,564 0,222 -88,421 -229,567 -14,14 -28,27 -43,40l483 0 0 -2600 -2000 0 0 2600 483 0c-14,-13 -29,-27 -42,-41 -142,-145 -230,-344 -230,-566 0,-129 24,-243 66,-350 60,-150 147,-260 246,-384zm1677 -1259l0 2800 -2400 0 0 -2800 -200 0 0 2834 -400 500 0 266 600 0 0 -241 359 -359 1682 0 359 359 0 241 600 0 0 -265 -400 -501 0 -2834 -200 0zm-2200 -966l0 -134c0,-165 135,-300 300,-300l1400 0c165,0 300,135 300,300l0 134 1200 500 0 466 -600 0 0 2766 400 499 0 535 -1000 0 0 -359 -241 -241 -1518 0 -241 241 0 359 -1000 0 0 -534 400 -500 0 -2766 -600 0 0 -466 1200 -500z"/>
</svg>