<?xml version="1.0" encoding="UTF-8"?>
<!DOCTYPE svg PUBLIC "-//W3C//DTD SVG 1.1//EN" "http://www.w3.org/Graphics/SVG/1.1/DTD/svg11.dtd">
<svg xmlns="http://www.w3.org/2000/svg" xml:space="preserve" width="580px" height="580px" shape-rendering="geometricPrecision" text-rendering="geometricPrecision" image-rendering="optimizeQuality" fill-rule="nonzero" clip-rule="nonzero" viewBox="0 0 5800 5800" xmlns:xlink="http://www.w3.org/1999/xlink">
	<title>laptop icon</title>
	<desc>laptop icon from the IconExperience.com I-Collection. Copyright by INCORS GmbH (www.incors.com).</desc>
		<path id="curve28"  d="M500 3900l0 -2900c0,-165 135,-300 300,-300l4200 0c165,0 300,135 300,300l0 2900 -200 0 0 -2900c0,-55 -45,-100 -100,-100l-4200 0c-55,0 -100,45 -100,100l0 2900 -200 0zm4400 -2800l0 2800 -4000 0 0 -2800 4000 0zm-200 200l-3600 0 0 2400 3600 0 0 -2400zm1000 2800l0 500c0,275 -225,500 -500,500l-4600 0c-276,0 -500,-224 -500,-500l0 -500 5600 0zm-200 200l-5200 0 0 300c0,165 135,300 300,300l4600 0c165,0 300,-135 300,-300l0 -300zm-3000 400c-55,0 -100,-45 -100,-100 0,-55 45,-100 100,-100l800 0c55,0 100,45 100,100 0,55 -45,100 -100,100l-800 0z"/>
</svg>