<?xml version="1.0" encoding="UTF-8"?>
<!DOCTYPE svg PUBLIC "-//W3C//DTD SVG 1.1//EN" "http://www.w3.org/Graphics/SVG/1.1/DTD/svg11.dtd">
<svg xmlns="http://www.w3.org/2000/svg" xml:space="preserve" width="580px" height="580px" shape-rendering="geometricPrecision" text-rendering="geometricPrecision" image-rendering="optimizeQuality" fill-rule="nonzero" clip-rule="nonzero" viewBox="0 0 5800 5800" xmlns:xlink="http://www.w3.org/1999/xlink">
	<title>laser_pointer icon</title>
	<desc>laser_pointer icon from the IconExperience.com I-Collection. Copyright by INCORS GmbH (www.incors.com).</desc>
		<path id="curve28"  d="M2097 3502c111,0 200,90 200,200 0,111 -89,200 -200,200 -110,0 -200,-89 -200,-200 0,-110 90,-200 200,-200zm1017 32l-1980 1980 -848 -848 1980 -1980 848 848zm-283 0l-565 -565 -1697 1697 565 565 1697 -1697zm1324 -2437l-250 -251c-39,-39 -39,-102 0,-141 39,-39 102,-39 141,0l251 250c32,-18 66,-33 103,-42l0 -363c0,-55 45,-100 100,-100 55,0 100,45 100,100l0 363c37,9 71,24 103,43l251 -251c39,-39 102,-39 141,0 39,39 39,102 0,141l-251 251c19,32 34,66 43,103l363 0c55,0 100,45 100,100 0,55 -45,100 -100,100l-363 0c-9,37 -24,71 -42,103l250 251c39,39 39,102 0,141 -39,39 -102,39 -141,0l-251 -250c-32,18 -66,33 -103,42l0 363c0,55 -45,100 -100,100 -55,0 -100,-45 -100,-100l0 -363c-37,-9 -71,-24 -103,-42l-1426 1426 -142 -142 1426 -1426c-18,-32 -33,-66 -42,-103l-363 0c-55,0 -100,-45 -100,-100 0,-55 45,-100 100,-100l363 0c9,-37 24,-71 42,-103z"/>
</svg>