<?xml version="1.0" encoding="UTF-8"?>
<!DOCTYPE svg PUBLIC "-//W3C//DTD SVG 1.1//EN" "http://www.w3.org/Graphics/SVG/1.1/DTD/svg11.dtd">
<svg xmlns="http://www.w3.org/2000/svg" xml:space="preserve" width="580px" height="580px" shape-rendering="geometricPrecision" text-rendering="geometricPrecision" image-rendering="optimizeQuality" fill-rule="nonzero" clip-rule="nonzero" viewBox="0 0 5800 5800" xmlns:xlink="http://www.w3.org/1999/xlink">
	<title>laundry_machine icon</title>
	<desc>laundry_machine icon from the IconExperience.com I-Collection. Copyright by INCORS GmbH (www.incors.com).</desc>
	<path id="curve0"  d="M3700 650c110,0 200,90 200,200 0,110 -90,200 -200,200 -110,0 -200,-90 -200,-200 0,-110 90,-200 200,-200zm1100 -350l-2500 0 0 900 2500 0 0 -900zm-2700 0l-1100 0 0 900 1100 0 0 -900zm-1100 1100l0 4100 3800 0 0 -4100 -3800 0zm3300 2000c0,773 -627,1400 -1400,1400 -773,0 -1400,-627 -1400,-1400 0,-773 627,-1400 1400,-1400 773,0 1400,627 1400,1400zm-1400 -1200c-663,0 -1200,537 -1200,1200 0,663 537,1200 1200,1200 663,0 1200,-537 1200,-1200 0,-663 -537,-1200 -1200,-1200zm1000 1200c0,552 -448,1000 -1000,1000 -552,0 -1000,-448 -1000,-1000 0,-552 448,-1000 1000,-1000 552,0 1000,448 1000,1000zm-200 0c0,-442 -358,-800 -800,-800 -442,0 -800,358 -800,800 0,442 358,800 800,800 442,0 800,-358 800,-800zm500 -2750c110,0 200,90 200,200 0,110 -90,200 -200,200 -110,0 -200,-90 -200,-200 0,-110 90,-200 200,-200z"/>
</svg>