<?xml version="1.0" encoding="UTF-8"?>
<!DOCTYPE svg PUBLIC "-//W3C//DTD SVG 1.1//EN" "http://www.w3.org/Graphics/SVG/1.1/DTD/svg11.dtd">
<svg xmlns="http://www.w3.org/2000/svg" xml:space="preserve" width="580px" height="580px" shape-rendering="geometricPrecision" text-rendering="geometricPrecision" image-rendering="optimizeQuality" fill-rule="nonzero" clip-rule="nonzero" viewBox="0 0 5800 5800" xmlns:xlink="http://www.w3.org/1999/xlink">
	<title>laurel_wreath icon</title>
	<desc>laurel_wreath icon from the IconExperience.com I-Collection. Copyright by INCORS GmbH (www.incors.com).</desc>
	<path id="curve0"  d="M1563 1145c61,-198 217,-348 412,-414 219,-74 465,-36 648,107l48 38 -11 59c-44,228 -212,405 -429,479 -194,66 -410,43 -585,-64 -73,83 -139,172 -199,265 -16,35 -36,68 -58,100 268,-123 596,-63 795,158l41 45 -22 58c-84,215 -282,363 -508,400 -182,30 -369,-12 -518,-120 -12,52 -28,150 -39,238 1,44 -3,87 -12,130 -1,5 -1,10 -1,14 155,-158 382,-226 600,-191l56 10 21 53c83,214 36,450 -117,620 -119,133 -287,209 -463,220 37,117 86,230 143,338 39,-179 159,-330 320,-416 100,-54 214,-83 329,-83l56 0 29 47c120,195 120,437 0,631 -90,145 -234,246 -398,288 33,36 68,71 105,105 423,395 1009,640 1657,640 212,0 421,-25 626,-78l49 193c-219,56 -448,85 -675,85 -674,0 -1287,-246 -1742,-648 -103,154 -267,255 -449,285 -227,37 -464,-39 -619,-211l-41 -46 22 -58c84,-215 282,-362 508,-400 65,-10 129,-12 191,-5 -25,-35 -48,-71 -71,-107 -210,86 -452,65 -642,-60 -191,-124 -304,-339 -283,-569l6 -58 54 -24c181,-78 389,-77 568,5 -12,-48 -18,-98 -17,-147 -10,-64 -17,-129 -21,-195 -217,-11 -421,-122 -536,-309 -121,-196 -121,-435 0,-631l29 -47 56 0c203,0 401,88 528,248 28,-98 62,-194 102,-288 -83,-38 -157,-92 -217,-159 -73,-81 -125,-181 -147,-294 -42,-226 50,-450 229,-591l43 -34 51 18c208,71 372,237 423,453 24,-28 49,-56 75,-83zm2675 -3c26,28 52,56 76,85 51,-216 215,-381 423,-452l51 -18 42 34c180,141 272,365 229,591 -38,203 -176,367 -362,452l3 7c39,91 71,184 98,279 128,-158 324,-245 527,-245l55 0 29 47c121,196 121,435 0,631 -115,186 -316,297 -533,309 -5,73 -13,146 -24,217 -1,43 -7,85 -17,126 179,-83 388,-85 570,-6l54 24 5 58c22,230 -91,445 -282,569 -190,125 -431,146 -641,60 -22,36 -46,72 -70,107 293,-31 586,128 695,405l22 58 -41 46c-288,320 -826,287 -1066,-72 -93,82 -193,157 -298,225 -150,21 -302,26 -453,17 291,-126 555,-309 772,-540 -166,-42 -311,-143 -401,-289 -120,-194 -120,-436 0,-631l29 -47 56 0c304,0 586,200 650,504 25,-47 48,-95 70,-143 4,-13 10,-25 15,-37 23,-53 43,-108 61,-163 -294,-16 -558,-218 -614,-514 -21,-109 -10,-222 30,-326l21 -53 56 -10c220,-35 448,34 604,195 -16,-62 -20,-122 -16,-185 -9,-69 -21,-137 -37,-203 -149,109 -338,152 -521,122 -226,-37 -424,-185 -508,-400l-22 -58 41 -45c199,-222 529,-281 798,-157 -25,-34 -46,-71 -63,-109 -58,-90 -123,-177 -194,-258 -175,108 -392,131 -587,65 -217,-74 -385,-251 -428,-479l-11 -59 48 -38c183,-143 429,-181 648,-107 194,66 349,215 411,411zm-1836 3957c-248,6 -497,-23 -737,-84l49 -193c77,19 155,36 234,48 143,89 295,166 454,229z"/>
</svg>