<?xml version="1.0" encoding="UTF-8"?>
<!DOCTYPE svg PUBLIC "-//W3C//DTD SVG 1.1//EN" "http://www.w3.org/Graphics/SVG/1.1/DTD/svg11.dtd">
<svg xmlns="http://www.w3.org/2000/svg" xml:space="preserve" width="580px" height="580px" shape-rendering="geometricPrecision" text-rendering="geometricPrecision" image-rendering="optimizeQuality" fill-rule="nonzero" clip-rule="nonzero" viewBox="0 0 5800 5800" xmlns:xlink="http://www.w3.org/1999/xlink">
	<title>laurel_wreath icon</title>
	<desc>laurel_wreath icon from the IconExperience.com I-Collection. Copyright by INCORS GmbH (www.incors.com).</desc>
	<path id="curve0"  d="M1563 1145c61,-198 217,-348 412,-414 219,-74 465,-36 648,107l48 38 -11 59c-44,228 -212,405 -429,479 -194,66 -410,43 -585,-64 -73,83 -139,172 -199,265 -16,35 -36,68 -58,100 54,-25 113,-43 176,-54 227,-37 464,39 619,212l41 45 -22 58c-84,215 -282,363 -508,400 -182,30 -369,-12 -518,-120 -17,72 -30,145 -39,220 0,2 0,24 1,24 0,42 -5,84 -14,125l0 13c74,-75 164,-130 261,-163 142,-48 251,-42 395,-18 51,132 78,233 51,379 -20,105 -69,207 -147,294 -78,87 -175,148 -280,184 -59,20 -121,32 -183,36 37,117 86,230 143,338 14,-65 40,-128 77,-189 122,-197 342,-310 572,-310l56 0 29 47c120,195 120,437 0,631 -90,145 -234,246 -398,288 455,485 1099,745 1762,745 212,0 421,-25 626,-78l49 193c-219,56 -448,85 -675,85 -674,0 -1287,-246 -1742,-648 -103,154 -267,255 -449,285 -227,37 -464,-39 -619,-211l-41 -46 22 -58c84,-215 282,-362 508,-400 65,-10 129,-12 191,-5 -25,-35 -48,-71 -71,-107 -210,86 -452,65 -642,-60 -191,-124 -304,-339 -283,-569l6 -58 54 -24c181,-78 389,-77 568,5 -12,-48 -18,-98 -17,-147 -10,-64 -17,-129 -21,-195 -217,-11 -421,-122 -536,-309 -121,-196 -121,-435 0,-631l29 -47 56 0c203,0 401,88 528,248 27,-96 60,-190 99,-282l3 -6c-186,-85 -325,-250 -364,-453 -42,-226 50,-450 229,-591l43 -34 51 18c208,71 372,237 423,453 24,-28 49,-56 75,-83zm3839 2457c-50,94 -121,184 -220,248 -190,125 -431,146 -641,60 -22,36 -46,72 -70,107 61,-7 123,-5 187,5 226,38 424,185 508,400l22 58 -41 46c-155,172 -392,248 -619,211 -182,-30 -345,-130 -447,-283 -93,82 -193,157 -298,225 -148,21 -303,26 -453,17 250,-108 475,-257 668,-436 36,-34 71,-69 104,-104 -166,-42 -311,-143 -401,-289 -61,-99 -90,-208 -90,-315 0,-147 45,-243 119,-363 262,0 485,79 628,310 38,62 64,127 78,194 25,-47 48,-95 70,-143 4,-13 10,-25 15,-37 23,-53 43,-108 61,-163 -178,-10 -347,-87 -467,-220 -78,-87 -127,-189 -147,-294 -27,-146 0,-247 51,-379l56 -10c220,-35 448,34 604,195 -12,-47 -18,-94 -18,-142 0,0 2,-39 2,-43 -9,-69 -21,-137 -37,-203 -149,109 -338,152 -521,122 -226,-37 -424,-185 -508,-400l-22 -58 41 -45c155,-173 392,-249 619,-212 64,11 124,30 179,55 -25,-34 -46,-71 -63,-109 -58,-90 -123,-177 -194,-258 -175,108 -392,131 -587,65 -217,-74 -385,-251 -428,-479l-11 -59 48 -38c183,-143 429,-181 648,-107 194,66 349,215 411,411 26,28 52,56 76,85 51,-216 215,-381 423,-452l51 -18 42 34c180,141 272,365 229,591 -38,203 -176,367 -362,452l3 7c39,91 71,184 98,279 128,-158 324,-245 527,-245l55 0 29 47c121,196 121,435 0,631 -115,186 -316,297 -533,309 -5,73 -13,146 -24,217 -1,43 -7,85 -17,126 75,-34 154,-55 235,-61 151,-13 255,20 389,79 13,143 11,246 -57,379zm-812 -1984c9,11 19,22 29,32 124,-58 218,-169 244,-305 25,-133 -19,-265 -114,-360 -124,59 -218,169 -244,305 -14,76 -6,150 20,217 11,27 48,81 65,111zm274 833c6,54 11,108 14,162 4,16 10,32 17,47 140,-16 270,-91 345,-212 70,-113 79,-249 26,-370 -198,23 -376,168 -402,373zm-158 1138c-23,55 -38,91 -42,153 138,40 288,20 408,-59 112,-72 186,-189 195,-322 -58,-17 -120,-23 -182,-18 -79,6 -157,32 -226,77 -69,45 -120,103 -153,169zm-71 -438c6,-30 12,-61 18,-92 -1,-23 -3,-46 -7,-69 -14,-70 -46,-138 -100,-198 -95,-106 -237,-160 -379,-154 -29,130 8,260 96,359 94,104 232,158 372,154zm-2233 1948c-135,3 -269,-4 -403,-21 -114,-14 -226,-35 -334,-63l49 -193c77,19 155,36 234,48 143,89 295,166 454,229zm-1254 -2057c6,36 13,73 20,109 139,3 275,-51 369,-154 53,-59 86,-128 99,-198 10,-53 9,-108 -3,-161 -62,-3 -125,6 -183,26 -147,50 -266,171 -296,326 -3,17 -5,34 -6,52zm-222 -444c3,-44 7,-88 12,-132 -6,-60 -25,-120 -60,-176 -74,-121 -205,-196 -344,-212 -53,121 -44,257 26,370 75,121 205,196 345,212 9,-20 16,-41 21,-62zm291 -987c5,-9 60,-105 60,-105 26,-66 34,-140 20,-216 -26,-136 -120,-246 -244,-305 -95,95 -140,227 -115,360 26,136 121,247 244,305 13,-12 25,-25 35,-39zm2825 -425c-46,-128 -152,-223 -279,-266 -80,-27 -164,-33 -242,-20 -59,10 -115,30 -166,59 18,50 46,97 83,138 50,56 117,101 196,128 135,46 285,32 408,-39zm488 890c-70,-119 -192,-196 -327,-218 -139,-23 -283,13 -392,103 70,119 191,196 326,218 139,23 284,-13 393,-103zm-315 1898c53,-121 44,-257 -26,-370 -75,-121 -206,-196 -345,-212 -23,51 -34,105 -34,160 0,71 19,144 60,210 75,121 206,196 345,212zm18 348c70,119 192,196 327,218 139,23 283,-13 392,-103 -70,-119 -192,-195 -326,-218 -139,-22 -284,13 -393,103zm-2962 -2246c108,90 253,126 392,103 135,-22 256,-99 326,-218 -109,-90 -253,-126 -392,-103 -135,22 -257,99 -326,218zm314 1898c139,-16 270,-91 345,-212 69,-113 80,-249 26,-370 -139,16 -270,91 -345,212 -70,113 -79,249 -26,370zm-448 -232c-8,-133 -83,-249 -194,-322 -120,-79 -271,-99 -408,-59 8,133 83,250 194,322 120,79 271,99 408,59zm430 580c-109,-90 -254,-125 -392,-103 -135,23 -257,99 -327,218 109,90 253,126 392,103 135,-22 257,-99 327,-218zm193 -3136c123,71 273,85 407,39 128,-43 234,-138 280,-266 -123,-71 -273,-85 -408,-39 -128,43 -233,138 -279,266z"/>
</svg>