<?xml version="1.0" encoding="UTF-8"?>
<!DOCTYPE svg PUBLIC "-//W3C//DTD SVG 1.1//EN" "http://www.w3.org/Graphics/SVG/1.1/DTD/svg11.dtd">
<svg xmlns="http://www.w3.org/2000/svg" xml:space="preserve" width="580px" height="580px" shape-rendering="geometricPrecision" text-rendering="geometricPrecision" image-rendering="optimizeQuality" fill-rule="nonzero" clip-rule="nonzero" viewBox="0 0 5800 5800" xmlns:xlink="http://www.w3.org/1999/xlink">
	<title>layout_northwest icon</title>
	<desc>layout_northwest icon from the IconExperience.com I-Collection. Copyright by INCORS GmbH (www.incors.com).</desc>
		<path id="curve28" d="M900 3500l1200 0 0 -1200 -1200 0 0 1200zm1400 0l1200 0 0 -1200 -1200 0 0 1200zm1400 0l1200 0 0 -1200 -1200 0 0 1200zm1200 200l-1200 0 0 1200 1200 0 0 -1200zm-1400 0l-1200 0 0 1200 1200 0 0 -1200zm-1400 0l-1200 0 0 1200 1200 0 0 -1200zm1600 -2800l0 1200 1200 0 0 -1200 -1200 0zm-200 1200l0 -1200 -1200 0 0 1200 1200 0zm-3200 2800l400 0 0 -4000 -400 0 0 -200 400 0 0 -400 200 0 0 400 4000 0 0 -400 200 0 0 400 400 0 0 200 -400 0 0 4000 400 0 0 200 -400 0 0 400 -200 0 0 -400 -4000 0 0 400 -200 0 0 -400 -400 0 0 -200z"/>
</svg>