<?xml version="1.0" encoding="utf-8"?>
<!-- Generator: Adobe Illustrator 19.2.1, SVG Export Plug-In . SVG Version: 6.00 Build 0)  -->
<svg version="1.1" id="layout_x5F_left_x5F_gi" xmlns="http://www.w3.org/2000/svg" xmlns:xlink="http://www.w3.org/1999/xlink"
	 x="0px" y="0px" width="580px" height="580px" viewBox="0 0 580 580" style="enable-background:new 0 0 580 580;"
	 xml:space="preserve">
<title>address_book2 icon</title>
<desc>address_book2 icon from the IconExperience.com I-Collection. Copyright by INCORS GmbH (www.incors.com).</desc>
<title>address_book2 icon</title>
<desc>address_book2 icon from the IconExperience.com I-Collection. Copyright by INCORS GmbH (www.incors.com).</desc>
<title>address_book2 icon</title>
<desc>address_book2 icon from the IconExperience.com I-Collection. Copyright by INCORS GmbH (www.incors.com).</desc>
<g>
	<path d="M470,371.2H110v49h360V371.2z M450,400.2H130v-9h320V400.2z"/>
	<path d="M470,91.8H110v82.9h360V91.8z M450,154.7H130v-42.9h320V154.7z"/>
	<path d="M300,351.3h170V193.7H300V351.3z M320,214.2h130v117.6H320V214.2z"/>
	<path d="M470,438.6H110v49h360V438.6z M450,467.6H130v-9h320V467.6z"/>
	<path d="M70,50v480h440V50H70z M490,508.2H90V71.8h400V508.2z"/>
	<path d="M280,193.7H110v157.6h170V193.7z"/>
</g>
</svg>
