<?xml version="1.0" encoding="UTF-8"?>
<!DOCTYPE svg PUBLIC "-//W3C//DTD SVG 1.1//EN" "http://www.w3.org/Graphics/SVG/1.1/DTD/svg11.dtd">
<svg xmlns="http://www.w3.org/2000/svg" xml:space="preserve" width="580px" height="580px" shape-rendering="geometricPrecision" text-rendering="geometricPrecision" image-rendering="optimizeQuality" fill-rule="nonzero" clip-rule="nonzero" viewBox="0 0 5800 5800" xmlns:xlink="http://www.w3.org/1999/xlink">
	<title>layout_west icon</title>
	<desc>layout_west icon from the IconExperience.com I-Collection. Copyright by INCORS GmbH (www.incors.com).</desc>
		<path id="curve28"  d="M300 4800l300 0 0 -3800 -300 0 0 -400 300 0 0 -300 400 0 0 300 3800 0 0 -300 400 0 0 300 300 0 0 400 -300 0 0 3800 300 0 0 400 -300 0 0 300 -400 0 0 -300 -3800 0 0 300 -400 0 0 -300 -300 0 0 -400zm700 -2700l1100 0 0 -1100 -1100 0 0 1100zm1100 2700l0 -1100 -1100 0 0 1100 1100 0zm1600 -3800l0 1100 1100 0 0 -1100 -1100 0zm1100 1300l-1100 0 0 1200 1100 0 0 -1200zm0 1400l-1100 0 0 1100 1100 0 0 -1100zm-1300 1100l0 -1100 -1200 0 0 1100 1200 0zm-1200 -3800l0 1100 1200 0 0 -1100 -1200 0zm0 2500l1200 0 0 -1200 -1200 0 0 1200z"/>
</svg>