<?xml version="1.0" encoding="UTF-8"?>
<!DOCTYPE svg PUBLIC "-//W3C//DTD SVG 1.1//EN" "http://www.w3.org/Graphics/SVG/1.1/DTD/svg11.dtd">
<svg xmlns="http://www.w3.org/2000/svg" xml:space="preserve" width="580px" height="580px" shape-rendering="geometricPrecision" text-rendering="geometricPrecision" image-rendering="optimizeQuality" fill-rule="nonzero" clip-rule="nonzero" viewBox="0 0 5800 5800" xmlns:xlink="http://www.w3.org/1999/xlink">
	<title>layout_northeast icon</title>
	<desc>layout_northeast icon from the IconExperience.com I-Collection. Copyright by INCORS GmbH (www.incors.com).</desc>
		<path id="curve28" d="M900 2100l1200 0 0 -1200 -1200 0 0 1200zm4000 -1400l0 -400 200 0 0 400 400 0 0 200 -400 0 0 1300 0 2700 400 0 0 200 -400 0 0 400 -200 0 0 -400 -4000 0 0 400 -200 0 0 -400 -400 0 0 -200 400 0 0 -4000 -400 0 0 -200 400 0 0 -400 200 0 0 400 4000 0zm0 1600l-1200 0 0 1200 1200 0 0 -1200zm-1400 -200l0 -1200 -1200 0 0 1200 1200 0zm-2600 1400l1200 0 0 -1200 -1200 0 0 1200zm1400 0l1200 0 0 -1200 -1200 0 0 1200zm2600 200l-1200 0 0 1200 1200 0 0 -1200zm-1400 0l-1200 0 0 1200 1200 0 0 -1200zm-1400 0l-1200 0 0 1200 1200 0 0 -1200z"/>
</svg>