<?xml version="1.0" encoding="utf-8"?>
<!-- Generator: Adobe Illustrator 19.2.1, SVG Export Plug-In . SVG Version: 6.00 Build 0)  -->
<svg version="1.1" id="layout_x5F_right_x5F_gi" xmlns="http://www.w3.org/2000/svg" xmlns:xlink="http://www.w3.org/1999/xlink"
	 x="0px" y="0px" width="580px" height="580px" viewBox="0 0 580 580" style="enable-background:new 0 0 580 580;"
	 xml:space="preserve">
<title>address_book2 icon</title>
<desc>address_book2 icon from the IconExperience.com I-Collection. Copyright by INCORS GmbH (www.incors.com).</desc>
<title>address_book2 icon</title>
<desc>address_book2 icon from the IconExperience.com I-Collection. Copyright by INCORS GmbH (www.incors.com).</desc>
<title>address_book2 icon</title>
<desc>address_book2 icon from the IconExperience.com I-Collection. Copyright by INCORS GmbH (www.incors.com).</desc>
<g>
	<path d="M470,371H110v49h360V371z M450,400H130v-9h320V400z"/>
	<path d="M470,92H110v83h360V92z M450,155H130v-43h320V155z"/>
	<rect x="300" y="194" width="170" height="157"/>
	<path d="M470,439H110v49h360V439z M450,468H130v-9h320V468z"/>
	<path d="M70,50v480h440V50H70z M490,508H90V72h400V508z"/>
	<path d="M280,194H110v157h170V194z M260,332H130V214h130V332z"/>
</g>
</svg>
