<?xml version="1.0" encoding="UTF-8"?>
<!DOCTYPE svg PUBLIC "-//W3C//DTD SVG 1.1//EN" "http://www.w3.org/Graphics/SVG/1.1/DTD/svg11.dtd">
<svg xmlns="http://www.w3.org/2000/svg" xml:space="preserve" width="580px" height="580px" shape-rendering="geometricPrecision" text-rendering="geometricPrecision" image-rendering="optimizeQuality" fill-rule="nonzero" clip-rule="nonzero" viewBox="0 0 5800 5800" xmlns:xlink="http://www.w3.org/1999/xlink">
	<title>layout_vertical icon</title>
	<desc>layout_vertical icon from the IconExperience.com I-Collection. Copyright by INCORS GmbH (www.incors.com).</desc>
		<path id="curve28"  d="M4900 700l0 -400 200 0 0 400 400 0 0 200 -400 0 0 4000 400 0 0 200 -400 0 0 400 -200 0 0 -400 -4000 0 0 400 -200 0 0 -400 -400 0 0 -200 400 0 0 -4000 -400 0 0 -200 400 0 0 -400 200 0 0 400c1333,0 2667,0 4000,0zm-1200 200l0 1200 1200 0 0 -1200 -1200 0zm0 1400l0 1200 1200 0 0 -1200 -1200 0zm0 1400l0 1200 1200 0 0 -1200 -1200 0zm-1600 1200l0 -1200 -1200 0 0 1200 1200 0zm0 -1400l0 -1200 -1200 0 0 1200 1200 0zm0 -1400l0 -1200 -1200 0 0 1200 1200 0z"/>
</svg>