<?xml version="1.0" encoding="UTF-8"?>
<!DOCTYPE svg PUBLIC "-//W3C//DTD SVG 1.1//EN" "http://www.w3.org/Graphics/SVG/1.1/DTD/svg11.dtd">
<svg xmlns="http://www.w3.org/2000/svg" xml:space="preserve" width="580px" height="580px" shape-rendering="geometricPrecision" text-rendering="geometricPrecision" image-rendering="optimizeQuality" fill-rule="nonzero" clip-rule="nonzero" viewBox="0 0 5800 5800" xmlns:xlink="http://www.w3.org/1999/xlink">
	<title>leaf icon</title>
	<desc>leaf icon from the IconExperience.com I-Collection. Copyright by INCORS GmbH (www.incors.com).</desc>
		<path id="curve28"  d="M4107 2163c-259,619 -1077,805 -1833,1097 -331,127 -683,263 -1038,443 -160,81 -324,176 -479,289 -79,-109 -132,-234 -168,-363 -92,-332 -87,-817 31,-1141 342,-939 1203,-1127 2072,-1318 92,-20 184,-40 256,-56l129 -30c643,-146 1263,-286 1746,-755l109 -107 54 143c298,795 408,1707 223,2525 -159,708 -539,1346 -1205,1775 -427,285 -1090,461 -1600,442 -437,-17 -864,-160 -1196,-504l0 0c-184,238 -308,534 -308,897l-200 0c0,-425 150,-769 369,-1044 215,-271 497,-473 766,-623 217,-120 436,-229 647,-335 735,-367 1379,-689 1625,-1335z"/>
</svg>