<?xml version="1.0" encoding="UTF-8"?>
<!DOCTYPE svg PUBLIC "-//W3C//DTD SVG 1.1//EN" "http://www.w3.org/Graphics/SVG/1.1/DTD/svg11.dtd">
<svg xmlns="http://www.w3.org/2000/svg" xml:space="preserve" width="580px" height="580px" shape-rendering="geometricPrecision" text-rendering="geometricPrecision" image-rendering="optimizeQuality" fill-rule="nonzero" clip-rule="nonzero" viewBox="0 0 5800 5800" xmlns:xlink="http://www.w3.org/1999/xlink">
	<title>leaf icon</title>
	<desc>leaf icon from the IconExperience.com I-Collection. Copyright by INCORS GmbH (www.incors.com).</desc>
		<path id="curve28"  d="M3897 4497c617,-399 969,-991 1118,-1651 165,-731 81,-1545 -166,-2272 -502,426 -1104,563 -1728,705 -129,29 -257,58 -386,86 -816,179 -1623,356 -1927,1191 -44,120 -77,304 -83,506 -6,232 24,497 129,707 28,54 60,104 98,148l-151 131c-49,-57 -90,-121 -125,-189 -121,-240 -157,-536 -150,-801 6,-225 44,-433 94,-570 342,-939 1203,-1127 2072,-1318 129,-28 257,-57 385,-86 643,-146 1263,-286 1746,-755l109 -107 54 143c298,795 408,1707 223,2525 -159,708 -539,1346 -1205,1775 -427,285 -1090,461 -1600,442 -437,-17 -864,-160 -1196,-504 -184,238 -308,534 -308,897l-200 0c0,-425 150,-769 369,-1044 215,-271 497,-473 766,-623 217,-120 436,-229 647,-335 735,-367 1379,-689 1625,-1334l186 72c-273,716 -950,1055 -1722,1440 -207,104 -422,211 -639,332 -204,113 -416,259 -593,443 294,312 678,441 1072,457 544,20 1107,-174 1486,-411z"/>
</svg>