<?xml version="1.0" encoding="UTF-8"?>
<!DOCTYPE svg PUBLIC "-//W3C//DTD SVG 1.1//EN" "http://www.w3.org/Graphics/SVG/1.1/DTD/svg11.dtd">
<svg xmlns="http://www.w3.org/2000/svg" xml:space="preserve" width="580px" height="580px" shape-rendering="geometricPrecision" text-rendering="geometricPrecision" image-rendering="optimizeQuality" fill-rule="nonzero" clip-rule="nonzero" viewBox="0 0 5800 5800" xmlns:xlink="http://www.w3.org/1999/xlink">
	<title>lectern icon</title>
	<desc>lectern icon from the IconExperience.com I-Collection. Copyright by INCORS GmbH (www.incors.com).</desc>
		<path id="curve28" d="M3000 300c132,0 254,41 343,108 68,51 118,117 141,192l216 0c497,0 800,303 800,800l0 300 400 0 0 500c0,165 -135,300 -300,300l-1100 0 0 1459 800 800 0 741 -2800 0 0 -741 800 -800 0 -1459 -1100 0c-165,0 -300,-135 -300,-300l0 -500 3400 0 0 -300c0,-386 -214,-600 -600,-600l-216 0c-23,75 -73,141 -141,192 -89,67 -211,108 -343,108 -132,0 -253,-41 -343,-108 -97,-73 -157,-176 -157,-292 0,-116 60,-219 157,-292 90,-67 211,-108 343,-108zm300 2200l-800 0 0 1541 -800 800 0 459 2400 0 0 -459 -800 -800 0 -1541zm1400 -600l-3600 0 0 300c0,55 45,100 100,100 1133,0 2267,0 3400,0 55,0 100,-45 100,-100l0 -300zm-1477 -1332c-56,-42 -134,-68 -223,-68 -89,0 -167,26 -223,68 -48,35 -77,82 -77,132 0,50 29,97 77,132 56,42 134,68 223,68 89,0 167,-26 223,-68 48,-35 77,-82 77,-132 0,-50 -29,-97 -77,-132z"/>
</svg>