<?xml version="1.0" encoding="UTF-8"?>
<!DOCTYPE svg PUBLIC "-//W3C//DTD SVG 1.1//EN" "http://www.w3.org/Graphics/SVG/1.1/DTD/svg11.dtd">
<svg xmlns="http://www.w3.org/2000/svg" xml:space="preserve" width="580px" height="580px" shape-rendering="geometricPrecision" text-rendering="geometricPrecision" image-rendering="optimizeQuality" fill-rule="nonzero" clip-rule="nonzero" viewBox="0 0 5800 5800" xmlns:xlink="http://www.w3.org/1999/xlink">
	<title>lecture icon</title>
	<desc>lecture icon from the IconExperience.com I-Collection. Copyright by INCORS GmbH (www.incors.com).</desc>
		<path id="curve29"  d="M1753 1809c-18,-73 -32,-148 -43,-223 -32,-227 -30,-460 44,-654 97,-257 294,-399 560,-446 162,-140 438,-199 716,-181 284,19 575,119 751,294 148,149 247,323 292,530 43,196 35,420 -26,680 47,196 -19,424 -194,536 -50,186 -93,376 -223,525 -3,110 -54,355 43,415 103,64 182,88 277,117 169,50 418,132 535,246 174,169 279,412 307,652l-792 0c0,-24 -1,-50 -4,-78 -31,-333 -279,-608 -621,-624 -55,-115 -203,-198 -377,-198 -220,0 -400,134 -400,300 0,166 180,300 400,300 175,0 324,-84 378,-201 237,17 400,212 422,441 1,17 2,37 2,60l-2792 0c28,-240 133,-483 307,-652 122,-118 368,-196 535,-246 94,-28 173,-52 274,-115 100,-67 52,-302 47,-417 -125,-143 -175,-345 -224,-525 -174,-112 -240,-340 -194,-536z"/>
	<path id="curve28"  d="M5300 4500l0 1000 -4800 0 0 -1000c1982,0 3158,0 4800,0z"/>
</svg>