<?xml version="1.0" encoding="UTF-8"?>
<!DOCTYPE svg PUBLIC "-//W3C//DTD SVG 1.1//EN" "http://www.w3.org/Graphics/SVG/1.1/DTD/svg11.dtd">
<svg xmlns="http://www.w3.org/2000/svg" xml:space="preserve" width="580px" height="580px" shape-rendering="geometricPrecision" text-rendering="geometricPrecision" image-rendering="optimizeQuality" fill-rule="nonzero" clip-rule="nonzero" viewBox="0 0 5800 5800" xmlns:xlink="http://www.w3.org/1999/xlink">
	<title>lecture icon</title>
	<desc>lecture icon from the IconExperience.com I-Collection. Copyright by INCORS GmbH (www.incors.com).</desc>
		<path id="curve29"  d="M2998 3400c174,0 322,83 377,198 144,7 286,65 399,166 118,107 204,262 222,458 3,28 4,54 4,78l0 200 1300 0 0 1000 -200 0 0 -800 -4400 0 0 800 -200 0 0 -1000 3300 0 0 -200c0,-23 -1,-43 -2,-60 -14,-141 -74,-252 -158,-328 -75,-67 -169,-106 -264,-113 -54,117 -203,201 -378,201 -220,0 -400,-134 -400,-300 0,-166 180,-300 400,-300z"/>
	<path id="curve28"  d="M2130 2253c1,6 8,31 17,66 42,163 88,336 193,440 20,19 30,45 30,71 0,0 6,105 6,115 15,187 32,410 -146,512l0 0c-124,77 -215,104 -323,136 -58,18 -116,36 -173,57 -96,35 -216,79 -280,141 -80,78 -142,176 -185,283 -29,73 -49,149 -60,226l-201 0c12,-101 37,-203 76,-300 53,-132 130,-254 231,-352 94,-92 237,-144 351,-185 61,-23 122,-43 184,-61 94,-28 173,-52 274,-115 2,-1 4,-2 6,-4 69,-39 57,-194 47,-324 -2,-31 -5,-61 -6,-89 -123,-140 -171,-326 -217,-501 -2,-6 -3,-10 -7,-24 -82,-53 -140,-132 -174,-221 -38,-100 -44,-213 -20,-315 -18,-73 -32,-148 -43,-223 -32,-227 -30,-460 44,-654 78,-206 230,-367 496,-432 21,-5 42,-10 64,-14 162,-140 438,-199 716,-181 514,34 930,303 1043,824 43,196 35,420 -26,680 25,102 18,215 -20,315 -33,89 -91,168 -174,221 -4,13 -6,22 -8,30 -45,171 -92,354 -215,495 -1,35 -4,71 -7,108 -10,124 -22,263 47,306 106,65 185,89 280,118 62,18 123,38 184,61 114,41 257,93 351,185 174,169 279,412 307,652l-201 0c-27,-187 -109,-377 -245,-509 -64,-62 -184,-106 -280,-141 -58,-21 -115,-39 -173,-57 -109,-32 -200,-60 -327,-139 -174,-104 -157,-309 -143,-491 4,-50 8,-97 7,-131 0,-28 11,-54 30,-73 107,-105 151,-275 192,-434 8,-34 17,-66 18,-72 8,-30 30,-53 56,-65 55,-28 93,-77 115,-134 26,-69 28,-147 8,-217 -5,-17 -5,-35 -1,-51 59,-240 67,-442 30,-615 -94,-433 -438,-638 -862,-667 -239,-16 -470,32 -585,147 -18,17 -40,27 -62,29 -25,3 -49,8 -72,14 -191,47 -301,161 -357,308 -60,159 -61,358 -32,556 11,77 26,154 44,228 5,19 4,38 -2,55 -19,68 -16,145 10,212 22,59 61,109 117,137 27,13 45,37 53,63z"/>
</svg>