<?xml version="1.0" encoding="UTF-8"?>
<!DOCTYPE svg PUBLIC "-//W3C//DTD SVG 1.1//EN" "http://www.w3.org/Graphics/SVG/1.1/DTD/svg11.dtd">
<svg xmlns="http://www.w3.org/2000/svg" xml:space="preserve" width="580px" height="580px" shape-rendering="geometricPrecision" text-rendering="geometricPrecision" image-rendering="optimizeQuality" fill-rule="nonzero" clip-rule="nonzero" viewBox="0 0 5800 5800" xmlns:xlink="http://www.w3.org/1999/xlink">
	<title>led icon</title>
	<desc>led icon from the IconExperience.com I-Collection. Copyright by INCORS GmbH (www.incors.com).</desc>
		<path id="curve28"  d="M1300 2900l0 -1000c0,-884 716,-1600 1600,-1600 884,0 1600,716 1600,1600l0 1000 -400 0 0 -1000c0,-482 -289,-918 -733,-1105l-77 183c370,157 610,520 610,922l0 1000 -2600 0zm3600 200l0 1000 -4000 0 0 -1000c1333,0 2667,0 4000,0zm-1000 1200l0 1100c0,55 -45,100 -100,100 -55,0 -100,-45 -100,-100l0 -1100 200 0zm-1800 0l0 900c0,55 -45,100 -100,100 -55,0 -100,-45 -100,-100l0 -900 200 0z"/>
</svg>