<?xml version="1.0" encoding="UTF-8"?>
<!DOCTYPE svg PUBLIC "-//W3C//DTD SVG 1.1//EN" "http://www.w3.org/Graphics/SVG/1.1/DTD/svg11.dtd">
<svg xmlns="http://www.w3.org/2000/svg" xml:space="preserve" width="580px" height="580px" shape-rendering="geometricPrecision" text-rendering="geometricPrecision" image-rendering="optimizeQuality" fill-rule="nonzero" clip-rule="nonzero" viewBox="0 0 5800 5800" xmlns:xlink="http://www.w3.org/1999/xlink">
	<title>lemon icon</title>
	<desc>lemon icon from the IconExperience.com I-Collection. Copyright by INCORS GmbH (www.incors.com).</desc>
		<path id="curve28"  d="M2900 1100c451,0 905,117 1290,354 355,219 617,511 774,899l376 250c103,68 160,174 160,297 0,123 -57,229 -160,297l-376 250c-157,388 -419,680 -774,899 -385,237 -839,354 -1290,354 -451,0 -905,-117 -1290,-354 -355,-219 -617,-511 -774,-899l-376 -250c-103,-68 -160,-174 -160,-297 0,-123 57,-229 160,-297l376 -250c157,-388 419,-680 774,-899 385,-237 839,-354 1290,-354zm0 3000l0 200c703,0 1438,-339 1703,-1027l-186 -71c-234,609 -898,898 -1517,898z"/>
</svg>