<?xml version="1.0" encoding="UTF-8"?>
<!DOCTYPE svg PUBLIC "-//W3C//DTD SVG 1.1//EN" "http://www.w3.org/Graphics/SVG/1.1/DTD/svg11.dtd">
<svg xmlns="http://www.w3.org/2000/svg" xml:space="preserve" width="580px" height="580px" shape-rendering="geometricPrecision" text-rendering="geometricPrecision" image-rendering="optimizeQuality" fill-rule="nonzero" clip-rule="nonzero" viewBox="0 0 5800 5800" xmlns:xlink="http://www.w3.org/1999/xlink">
	<title>lemonade_glass icon</title>
	<desc>lemonade_glass icon from the IconExperience.com I-Collection. Copyright by INCORS GmbH (www.incors.com).</desc>
	<path id="curve0"  d="M3210 1300c74,-571 563,-1000 1140,-1000 635,0 1150,515 1150,1150 0,635 -515,1150 -1150,1150 -10,0 -19,0 -29,0l-435 2900 -1972 0 -630 -4200 1926 0zm-826 3800l202 0 -330 -2200 -202 0 330 2200zm-420 -2800l-90 -600 202 0 90 600 -202 0zm-180 -1200l-35 -234c-23,-152 -120,-267 -259,-327 -141,-62 -289,-50 -419,34l-817 527 -108 -168 818 -527c186,-120 403,-138 606,-49 203,89 343,260 376,481l40 263 -202 0zm-118 1400l2468 0 150 -1000 -2768 0 150 1000z"/>
</svg>