<?xml version="1.0" encoding="UTF-8"?>
<!DOCTYPE svg PUBLIC "-//W3C//DTD SVG 1.1//EN" "http://www.w3.org/Graphics/SVG/1.1/DTD/svg11.dtd">
<svg xmlns="http://www.w3.org/2000/svg" xml:space="preserve" width="580px" height="580px" shape-rendering="geometricPrecision" text-rendering="geometricPrecision" image-rendering="optimizeQuality" fill-rule="nonzero" clip-rule="nonzero" viewBox="0 0 5800 5800" xmlns:xlink="http://www.w3.org/1999/xlink">
	<title>lemon icon</title>
	<desc>lemon icon from the IconExperience.com I-Collection. Copyright by INCORS GmbH (www.incors.com).</desc>
		<path id="curve28" d="M2900 4100c618,0 1283,-290 1517,-898l186 71c-265,688 -1000,1027 -1703,1027l0 -200zm0 -2800c-787,0 -1595,387 -1890,1154l-12 31 -428 284c-47,32 -70,75 -70,131 0,56 23,99 70,131l428 284 12 31c295,767 1103,1154 1890,1154 787,0 1595,-387 1890,-1154l12 -31 428 -284c47,-32 70,-75 70,-131 0,-56 -23,-99 -70,-131l-428 -284 -12 -31c-295,-767 -1103,-1154 -1890,-1154zm0 -200c858,0 1731,427 2064,1253l376 250c103,68 160,174 160,297 0,123 -57,229 -160,297l-376 250c-333,826 -1206,1253 -2064,1253 -858,0 -1731,-427 -2064,-1253l-376 -250c-103,-68 -160,-174 -160,-297 0,-123 57,-229 160,-297l376 -250c333,-826 1206,-1253 2064,-1253z"/>
</svg>