<?xml version="1.0" encoding="UTF-8"?>
<!DOCTYPE svg PUBLIC "-//W3C//DTD SVG 1.1//EN" "http://www.w3.org/Graphics/SVG/1.1/DTD/svg11.dtd">
<svg xmlns="http://www.w3.org/2000/svg" xml:space="preserve" width="580px" height="580px" shape-rendering="geometricPrecision" text-rendering="geometricPrecision" image-rendering="optimizeQuality" fill-rule="nonzero" clip-rule="nonzero" viewBox="0 0 5800 5800" xmlns:xlink="http://www.w3.org/1999/xlink">
	<title>lemonade_glass icon</title>
	<desc>lemonade_glass icon from the IconExperience.com I-Collection. Copyright by INCORS GmbH (www.incors.com).</desc>
	<path id="curve0"  d="M4516 1300l-630 4200 -1972 0 -630 -4200 3232 0zm-2132 3800l-330 -2200 202 0 330 2200 -202 0zm-420 -2800l-90 -600 202 0 90 600 -202 0zm-180 -1200l-35 -234c-23,-152 -120,-267 -259,-327 -141,-62 -289,-50 -419,34l-817 527 -108 -168 818 -527c186,-120 403,-138 606,-49 203,89 343,260 376,481l40 263 -202 0zm2566 -800c635,0 1150,515 1150,1150 0,568 -415,1051 -975,1137l31 -209c434,-97 744,-483 744,-928 0,-525 -425,-950 -950,-950 -391,0 -740,239 -883,600l-213 0c152,-475 595,-800 1096,-800zm-2684 2200l2468 0 150 -1000 -2768 0 150 1000zm2438 200l-2408 0 390 2600 1628 0 390 -2600z"/>
</svg>