<?xml version="1.0" encoding="utf-8"?>
<!-- Generator: Adobe Illustrator 26.5.0, SVG Export Plug-In . SVG Version: 6.00 Build 0)  -->
<svg version="1.1" id="Ebene_1" xmlns="http://www.w3.org/2000/svg" xmlns:xlink="http://www.w3.org/1999/xlink" x="0px" y="0px"
	 viewBox="0 0 580 580" style="enable-background:new 0 0 580 580;" xml:space="preserve">
<style type="text/css">
	.st0{fill:black;}
</style>
<g>
	<path class="st0" d="M30,110v360h520V110H30z M530,450H50V130h480V450z"/>
	<rect x="90.1" y="269" class="st0" width="240" height="20"/>
	<rect x="90.1" y="389" class="st0" width="240" height="20"/>
	<rect x="90.1" y="329" class="st0" width="240" height="20"/>
	<path class="st0" d="M441.8,251.7c4.5,0,8.3,2.8,9.8,6.8h17.1c1.4-4.1,5.3-7,9.9-7s8.4,2.9,9.9,7h19.4v-12.3
		c-4.5-1.2-7.8-5.3-7.8-10.1s3.3-9,7.8-10.1v-12.7c-4.5-1.2-7.8-5.3-7.8-10.1s3.3-9,7.8-10.1v-10.7c-4.5-1.2-7.8-5.3-7.8-10.1
		s3.3-9,7.8-10.1v-11.4h-19.1c-1.1,4.6-5.3,8-10.2,8s-9.1-3.4-10.2-8h-15.6c-1.1,4.6-5.3,8-10.2,8s-9.1-3.4-10.2-8h-20.5V162
		c4.2,1.4,7.2,5.3,7.2,10s-3,8.6-7.2,10V193c4.2,1.4,7.2,5.3,7.2,10s-3,8.6-7.2,10V226c4.2,1.4,7.2,5.3,7.2,10s-3,8.6-7.2,10v12.5
		h20C433.5,254.5,437.3,251.7,441.8,251.7z M431.9,170.5h56v68h-56V170.5z"/>
</g>
</svg>
