<?xml version="1.0" encoding="utf-8"?>
<!-- Generator: Adobe Illustrator 23.0.0, SVG Export Plug-In . SVG Version: 6.00 Build 0)  -->
<svg version="1.1" id="Ebene_1" xmlns="http://www.w3.org/2000/svg" xmlns:xlink="http://www.w3.org/1999/xlink" x="0px" y="0px"
	 viewBox="0 0 580 580" style="enable-background:new 0 0 580 580;" xml:space="preserve">
<style type="text/css">
	.st0{fill:#020202;}
</style>
<g>
	<polygon class="st0" points="97.7,29.4 512.6,29.4 512.6,274.2 499.7,274.2 499.7,276.3 531,276.3 531,11 79.3,11 79.3,50.6 
		97.7,50.6 	"/>
	<polygon class="st0" points="66.4,69 481.3,69 481.3,276.3 499.7,276.3 499.7,274.2 499.7,50.6 97.7,50.6 79.3,50.6 48,50.6 
		48,93.8 66.4,93.8 	"/>
	<polygon class="st0" points="34.2,357 34.2,112.2 449.1,112.2 449.1,276.3 467.5,276.3 467.5,93.8 66.4,93.8 48,93.8 15.8,93.8 
		15.8,375.5 278.5,375.5 278.5,357 	"/>
	<rect x="92.6" y="243.3" class="st0" width="184.1" height="18.4"/>
	<rect x="92.6" y="278.3" class="st0" width="184.1" height="18.4"/>
	<rect x="92.6" y="314.2" class="st0" width="184.1" height="18.4"/>
	<path class="st0" d="M396.2,142.8c-4.5,0-8.4-3.1-9.4-7.4h-14.4c-1,4.2-4.9,7.4-9.4,7.4s-8.4-3.1-9.4-7.4h-18.9V146
		c3.9,1.3,6.6,4.9,6.6,9.2c0,4.2-2.8,7.9-6.6,9.2v10.2c3.9,1.3,6.6,4.9,6.6,9.2c0,4.2-2.8,7.9-6.6,9.2v12.1c3.9,1.3,6.6,4.9,6.6,9.2
		c0,4.2-2.8,7.9-6.6,9.2V235h19.1c1.3-3.8,4.9-6.4,9.1-6.4s7.7,2.7,9.1,6.4h14.9c1.3-3.8,4.9-6.4,9.1-6.4c4.2,0,7.7,2.7,9.1,6.4
		h17.9v-11.4c-4.1-1.5-7.2-5.2-7.2-9.7s3-8.2,7.2-9.3v-11.7c-4.1-1.1-7.2-4.9-7.2-9.3c0-4.5,3-8.2,7.2-9.3v-9.8
		c-4.1-1.1-7.2-4.9-7.2-9.3c0-4.5,3-8.2,7.2-9.3v-10.5h-17.6C404.5,139.7,400.7,142.8,396.2,142.8z M404.7,216.2h-51.5v-62.6h51.5
		V216.2z"/>
	<path class="st0" d="M557.4,276.3H531h-31.3h-18.4h-13.8h-18.4h-1.6h-16.5h-21.5h-38.1h-21.5h-38.7h-21.5h-0.8
		c-4.9,0-9.1,3.3-10.4,7.9V357v18.4v151.9h-0.4v28.2c0,5.9,4.8,10.8,10.8,10.8h268.5c5.9,0,10.8-4.8,10.8-10.8V287.1
		C568.1,281.1,563.3,276.3,557.4,276.3z M546.6,544.8h-247V375.5V357v-59.2h149.4h18.4h13.8h18.4h46.9V544.8z"/>
	<path class="st0" d="M406.1,496.9c2,2.2,4.9,3.3,7.8,3.3c0.5,0,0.9-0.1,1.4-0.1c3.4-0.5,6.4-2.5,8-5.5l74.8-136.4
		c2.8-5.2,1-11.8-4.2-14.6s-11.8-1-14.6,4.2l-67.6,123.5l-46.2-48.8c-4.1-4.3-10.9-4.5-15.2-0.4c-4.3,4.1-4.5,10.9-0.4,15.2
		L406.1,496.9z"/>
</g>
</svg>
