<?xml version="1.0" encoding="utf-8"?>
<!-- Generator: Adobe Illustrator 22.0.0, SVG Export Plug-In . SVG Version: 6.00 Build 0)  -->
<svg version="1.1" id="Ebene_1" xmlns="http://www.w3.org/2000/svg" xmlns:xlink="http://www.w3.org/1999/xlink" x="0px" y="0px"
	 viewBox="0 0 580 580" style="enable-background:new 0 0 580 580;" xml:space="preserve">
<g id="letters_x5F_2__x5F_gi">
	<g>
		<polygon points="79.8,124.6 79.8,167.6 99.8,167.6 99.8,144.6 550.6,144.6 550.6,410.6 536.6,410.6 536.6,430.6 570.6,430.6 
			570.6,124.6 		"/>
	</g>
	<g>
		<polygon points="45.8,167.6 45.8,214.6 65.8,214.6 65.8,187.6 516.6,187.6 516.6,453.6 501.6,453.6 501.6,473.6 536.6,473.6 
			536.6,167.6 		"/>
	</g>
	<g id="Brief_1">
		<path d="M10.8,214.6v306h490.8v-306L10.8,214.6L10.8,214.6z M481.6,500.6H30.8v-266h450.8L481.6,500.6L481.6,500.6z"/>
		<rect x="94.2" y="377" width="200" height="20"/>
		<rect x="94.2" y="415" width="200" height="20"/>
		<rect x="94.2" y="454" width="200" height="20"/>
		<path d="M445.6,345.1c0-4.9,3.3-8.9,7.8-10.1v-12.7c-4.5-1.2-7.8-5.3-7.8-10.1c0-4.9,3.3-8.9,7.8-10.1v-10.7
			c-4.5-1.2-7.8-5.3-7.8-10.1c0-4.9,3.3-8.9,7.8-10.1v-11.4h-19.1c-1.1,4.6-5.3,8-10.2,8s-9.1-3.4-10.2-8h-15.6
			c-1.1,4.6-5.3,8-10.2,8s-9.1-3.4-10.2-8h-20.5v11.5c4.2,1.4,7.2,5.3,7.2,10c0,4.6-3,8.6-7.2,10v11.1c4.2,1.4,7.2,5.3,7.2,10
			c0,4.6-3,8.6-7.2,10v13.1c4.2,1.4,7.2,5.3,7.2,10c0,4.6-3,8.6-7.2,10v12.5h20.8c1.4-4.1,5.3-7,9.9-7c4.6,0,8.4,2.9,9.9,7h16.2
			c1.4-4.1,5.3-7,9.9-7c4.6,0,8.4,2.9,9.9,7h19.4v-12.4C448.9,354,445.6,350,445.6,345.1z M433.4,347.6h-56v-68h56V347.6z"/>
	</g>
</g>
</svg>
