<?xml version="1.0" encoding="UTF-8"?>
<!DOCTYPE svg PUBLIC "-//W3C//DTD SVG 1.1//EN" "http://www.w3.org/Graphics/SVG/1.1/DTD/svg11.dtd">
<svg xmlns="http://www.w3.org/2000/svg" xml:space="preserve" width="580px" height="580px" shape-rendering="geometricPrecision" text-rendering="geometricPrecision" image-rendering="optimizeQuality" fill-rule="nonzero" clip-rule="nonzero" viewBox="0 0 5800 5800" xmlns:xlink="http://www.w3.org/1999/xlink">
	<title>lifebelt icon</title>
	<desc>lifebelt icon from the IconExperience.com I-Collection. Copyright by INCORS GmbH (www.incors.com).</desc>
		<path id="curve28" d="M2900 500c1325,0 2400,1075 2400,2400 0,1325 -1075,2400 -2400,2400 -1325,0 -2400,-1075 -2400,-2400 0,-1325 1075,-2400 2400,-2400zm0 1200c183,0 356,41 512,114l501 -868c-303,-157 -648,-246 -1013,-246 -365,0 -710,89 -1013,246l501 868c156,-73 329,-114 512,-114zm684 214c118,82 220,184 302,302l868 -501c-172,-268 -401,-497 -669,-669l-501 868zm402 474c73,156 114,329 114,512 0,183 -41,356 -114,512l868 501c157,-303 246,-648 246,-1013 0,-365 -89,-710 -246,-1013l-868 501zm-100 1196c-82,118 -184,220 -302,302l501 868c268,-172 497,-401 669,-669l-868 -501zm-474 402c-156,73 -329,114 -512,114 -183,0 -356,-41 -512,-114l-501 868c303,157 648,246 1013,246 365,0 710,-89 1013,-246l-501 -868zm-1196 -100c-118,-82 -220,-184 -302,-302l-868 501c172,268 401,497 669,669l501 -868zm-402 -474c-73,-156 -114,-329 -114,-512 0,-183 41,-356 114,-512l-868 -501c-157,303 -246,648 -246,1013 0,365 89,710 246,1013l868 -501zm100 -1196c82,-118 184,-220 302,-302l-501 -868c-268,172 -497,401 -669,669l868 501zm986 -316c-552,0 -1000,448 -1000,1000 0,552 448,1000 1000,1000 552,0 1000,-448 1000,-1000 0,-552 -448,-1000 -1000,-1000z"/>
</svg>