<?xml version="1.0" encoding="UTF-8"?>
<!DOCTYPE svg PUBLIC "-//W3C//DTD SVG 1.1//EN" "http://www.w3.org/Graphics/SVG/1.1/DTD/svg11.dtd">
<svg xmlns="http://www.w3.org/2000/svg" xml:space="preserve" width="580px" height="580px" shape-rendering="geometricPrecision" text-rendering="geometricPrecision" image-rendering="optimizeQuality" fill-rule="nonzero" clip-rule="nonzero" viewBox="0 0 5800 5800" xmlns:xlink="http://www.w3.org/1999/xlink">
	<title>lightbulb_on icon</title>
	<desc>lightbulb_on icon from the IconExperience.com I-Collection. Copyright by INCORS GmbH (www.incors.com).</desc>
		<path id="curve28"  d="M1900 4754c0,-286 0,-571 0,-856 0,-226 -143,-434 -304,-670 -231,-336 -496,-724 -496,-1320 0,-1169 966,-1700 1806,-1700 999,0 1794,674 1794,1700 0,594 -263,981 -493,1319 -163,238 -307,450 -307,681 0,282 0,564 0,846 0,136 -43,231 -107,302 -62,68 -139,108 -214,137l-204 79c-42,148 -200,228 -346,228l-258 0c-93,0 -179,-31 -243,-80 -50,-39 -87,-90 -103,-148l-204 -79c-75,-29 -152,-69 -214,-137 -64,-71 -107,-166 -107,-302zm2605 -4231l351 -294 128 153 -351 295 -128 -154zm-3338 148l-351 -294 128 -154 351 295 -128 153zm128 2600l-351 294 -128 -153 351 -294 128 153zm-381 -591l-430 156 -68 -187 430 -157 68 188zm-156 -686l-458 0 0 -200 458 0 0 200zm88 -698l-430 -156 68 -188 430 157 -68 187zm3787 1827l351 295 -128 153 -351 -294 128 -154zm321 -625l430 157 -68 187 -430 -157 68 -187zm88 -698l458 0 0 200 -458 0 0 -200zm-156 -685l430 -157 68 187 -430 157 -68 -187zm-2786 3639c0,80 22,132 55,168 35,39 87,65 138,85l257 100 64 25 0 68c0,22 14,45 37,62 30,24 73,38 120,38l258 0c54,0 157,-31 157,-100l0 -68 64 -25 257 -100c51,-20 103,-46 138,-85 33,-36 55,-88 55,-168l0 -526c-47,26 -102,49 -161,70 -185,65 -425,110 -639,110 -214,0 -454,-45 -639,-110 -59,-21 -114,-44 -161,-70l0 526zm806 -4346c-747,0 -1606,469 -1606,1500 0,535 247,895 461,1208 180,263 339,495 339,782l0 95c0,25 94,70 227,117 165,58 380,98 573,98 193,0 408,-40 573,-98 133,-47 227,-92 227,-117l0 -85c0,-292 161,-528 342,-794 213,-314 458,-673 458,-1206 0,-916 -705,-1500 -1594,-1500z"/>
</svg>