<?xml version="1.0" encoding="UTF-8"?>
<!DOCTYPE svg PUBLIC "-//W3C//DTD SVG 1.1//EN" "http://www.w3.org/Graphics/SVG/1.1/DTD/svg11.dtd">
<svg xmlns="http://www.w3.org/2000/svg" xml:space="preserve" width="580px" height="580px" shape-rendering="geometricPrecision" text-rendering="geometricPrecision" image-rendering="optimizeQuality" fill-rule="nonzero" clip-rule="nonzero" viewBox="0 0 5800 5800" xmlns:xlink="http://www.w3.org/1999/xlink">
	<title>lightbulb_off icon</title>
	<desc>lightbulb_off icon from the IconExperience.com I-Collection. Copyright by INCORS GmbH (www.incors.com).</desc>
		<path id="curve28" d="M3900 4754c0,136 -43,231 -107,302 -62,68 -139,108 -214,137l-204 79c-42,148 -200,228 -346,228l-258 0c-146,0 -304,-80 -346,-228l-204 -79c-75,-29 -152,-69 -214,-137 -64,-71 -107,-166 -107,-302 0,-254 0,-507 0,-761l0 -95c0,-226 -143,-434 -304,-670 -231,-336 -496,-724 -496,-1320 0,-1169 966,-1700 1806,-1700 999,0 1794,674 1794,1700 0,594 -263,981 -493,1319 -163,238 -307,450 -307,681l0 85c0,254 0,507 0,761zm-800 -854l0 -100c0,-255 155,-541 321,-849 182,-336 379,-700 379,-1043l100 0 100 0c0,393 -210,780 -403,1137 -154,285 -297,549 -297,755l0 100c-67,0 -133,0 -200,0zm-1000 328l0 526c0,80 22,132 55,168 35,39 87,65 138,85l257 100 64 25 0 68c0,22 14,45 37,62 30,24 73,38 120,38l258 0c47,0 90,-14 120,-38 23,-17 37,-40 37,-62l0 -68 64 -25 257 -100c51,-20 103,-46 138,-85 33,-36 55,-88 55,-168l0 -526c-47,26 -102,49 -161,70 -185,65 -425,110 -639,110 -214,0 -454,-45 -639,-110 -59,-21 -114,-44 -161,-70zm806 -3820c-747,0 -1606,469 -1606,1500 0,535 247,895 461,1208 180,263 339,495 339,782l0 95c0,25 94,70 227,117 165,58 380,98 573,98 193,0 408,-40 573,-98 133,-47 227,-92 227,-117l0 -85c0,-292 161,-528 342,-794 213,-314 458,-673 458,-1206 0,-916 -705,-1500 -1594,-1500z"/>
</svg>