<?xml version="1.0" encoding="UTF-8"?>
<!DOCTYPE svg PUBLIC "-//W3C//DTD SVG 1.1//EN" "http://www.w3.org/Graphics/SVG/1.1/DTD/svg11.dtd">
<svg xmlns="http://www.w3.org/2000/svg" xml:space="preserve" width="580px" height="580px" shape-rendering="geometricPrecision" text-rendering="geometricPrecision" image-rendering="optimizeQuality" fill-rule="nonzero" clip-rule="nonzero" viewBox="0 0 5800 5800" xmlns:xlink="http://www.w3.org/1999/xlink">
	<title>lighthouse icon</title>
	<desc>lighthouse icon from the IconExperience.com I-Collection. Copyright by INCORS GmbH (www.incors.com).</desc>
		<path id="curve28"  d="M300 5300l408 0 397 -4561 795 -454 795 454c8,87 15,174 23,261l-142 39c-58,-26 -110,-39 -173,-39 -219,0 -397,178 -397,397 0,219 178,397 397,397 57,0 113,-12 165,-36l221 62 303 3480 2408 0 0 200c-1733,0 -3467,0 -5200,0l0 -200zm670 -700l1860 0 -69 -800 -1722 0 -69 800zm1721 -1600l-70 -800 -1442 0 -70 800 1582 0zm2781 -604l-3100 -900c-96,-28 -94,-165 1,-192l3099 -900 56 192 -2771 804 2771 804 -56 192z"/>
</svg>