<?xml version="1.0" encoding="UTF-8"?>
<!DOCTYPE svg PUBLIC "-//W3C//DTD SVG 1.1//EN" "http://www.w3.org/Graphics/SVG/1.1/DTD/svg11.dtd">
<svg xmlns="http://www.w3.org/2000/svg" xml:space="preserve" width="580px" height="580px" shape-rendering="geometricPrecision" text-rendering="geometricPrecision" image-rendering="optimizeQuality" fill-rule="nonzero" clip-rule="nonzero" viewBox="0 0 5800 5800" xmlns:xlink="http://www.w3.org/1999/xlink">
	<title>lightbulb_on icon</title>
	<desc>lightbulb_on icon from the IconExperience.com I-Collection. Copyright by INCORS GmbH (www.incors.com).</desc>
		<path id="curve28"  d="M3900 4126l0 628c0,227 -118,360 -321,439l-204 79c-42,148 -200,228 -346,228l-258 0c-146,0 -304,-80 -346,-228l-204 -79c-203,-79 -321,-212 -321,-439l0 -628c265,203 677,274 1000,274 323,0 735,-71 1000,-274zm-2733 -3455l-351 -294 128 -154 351 295 -128 153zm3338 -148l351 -294 128 153 -351 295 -128 -154zm128 2600l351 295 -128 153 -351 -294 128 -154zm321 -625l430 157 -68 187 -430 -157 68 -187zm88 -698l458 0 0 200 -458 0 0 -200zm-156 -685l430 -157 68 187 -430 157 -68 -187zm-3591 2156l-351 294 -128 -153 351 -294 128 153zm-381 -591l-430 156 -68 -187 430 -157 68 188zm-156 -686l-458 0 0 -200 458 0 0 200zm88 -698l-430 -156 68 -188 430 157 -68 187zm1045 2504c-33,-189 -157,-370 -295,-572 -231,-336 -496,-724 -496,-1320 0,-1169 966,-1700 1806,-1700 457,0 948,158 1300,491 296,279 494,679 494,1209 0,594 -263,981 -493,1319 -133,195 -254,372 -294,557l0 0c-63,322 -755,416 -1013,416 -262,0 -922,-90 -1009,-400z"/>
</svg>