<?xml version="1.0" encoding="UTF-8"?>
<!DOCTYPE svg PUBLIC "-//W3C//DTD SVG 1.1//EN" "http://www.w3.org/Graphics/SVG/1.1/DTD/svg11.dtd">
<svg xmlns="http://www.w3.org/2000/svg" xml:space="preserve" width="580px" height="580px" shape-rendering="geometricPrecision" text-rendering="geometricPrecision" image-rendering="optimizeQuality" fill-rule="nonzero" clip-rule="nonzero" viewBox="0 0 5800 5800" xmlns:xlink="http://www.w3.org/1999/xlink">
	<title>lightbulb_off icon</title>
	<desc>lightbulb_off icon from the IconExperience.com I-Collection. Copyright by INCORS GmbH (www.incors.com).</desc>
		<path id="curve28"  d="M3900 4126l0 628c0,227 -118,360 -321,439l-204 79c-42,148 -200,228 -346,228l-258 0c-146,0 -304,-80 -346,-228l-204 -79c-203,-79 -321,-212 -321,-439l0 -628c265,203 677,274 1000,274 323,0 735,-71 1000,-274zm-800 -226l200 0 0 -100c0,-206 143,-470 297,-755 193,-357 403,-744 403,-1137l-200 0c0,343 -197,707 -379,1043 -166,308 -321,594 -321,849l0 100zm-1209 -100c-33,-189 -157,-370 -295,-572 -231,-336 -496,-724 -496,-1320 0,-1169 966,-1700 1806,-1700 457,0 948,158 1300,491 296,279 494,679 494,1209 0,594 -263,981 -493,1319 -133,195 -254,372 -294,557l0 0c-63,322 -755,416 -1013,416 -262,0 -922,-90 -1009,-400z"/>
</svg>