<?xml version="1.0" encoding="UTF-8"?>
<!DOCTYPE svg PUBLIC "-//W3C//DTD SVG 1.1//EN" "http://www.w3.org/Graphics/SVG/1.1/DTD/svg11.dtd">
<svg xmlns="http://www.w3.org/2000/svg" xml:space="preserve" width="580px" height="580px" shape-rendering="geometricPrecision" text-rendering="geometricPrecision" image-rendering="optimizeQuality" fill-rule="nonzero" clip-rule="nonzero" viewBox="0 0 5800 5800" xmlns:xlink="http://www.w3.org/1999/xlink">
	<title>lighthouse icon</title>
	<desc>lighthouse icon from the IconExperience.com I-Collection. Copyright by INCORS GmbH (www.incors.com).</desc>
		<path id="curve28" d="M300 5500l0 -200 408 0 397 -4561 795 -454 795 454 23 261 -147 37c-55,-25 -108,-37 -168,-37 -219,0 -397,178 -397,397 0,219 178,397 397,397 57,0 113,-12 165,-36l221 62 303 3480 2408 0 0 200c-1733,0 -3467,0 -5200,0zm679 -1000l1842 0 -52 -600 -1738 0 -52 600zm1860 200l-1878 0 -52 600 1982 0 -52 -600zm2633 -2304l-3100 -900c-53,-16 -83,-71 -68,-124 10,-34 37,-59 69,-68l3099 -900 56 192 -2771 804 2771 804 -56 192zm-4285 -296l1426 0 -12 -140c-7,2 -13,4 -19,6 -57,18 -117,28 -179,28 -330,0 -597,-267 -597,-597 0,-328 265,-595 593,-597l-499 -285 -605 346 -108 1239zm1443 200l-1460 0 -52 600 1564 0 -52 -600zm70 800l-1600 0 -52 600 1704 0 -52 -600z"/>
</svg>