<?xml version="1.0" encoding="UTF-8"?>
<!DOCTYPE svg PUBLIC "-//W3C//DTD SVG 1.1//EN" "http://www.w3.org/Graphics/SVG/1.1/DTD/svg11.dtd">
<svg xmlns="http://www.w3.org/2000/svg" xml:space="preserve" width="580px" height="580px" shape-rendering="geometricPrecision" text-rendering="geometricPrecision" image-rendering="optimizeQuality" fill-rule="nonzero" clip-rule="nonzero" viewBox="0 0 5800 5800" xmlns:xlink="http://www.w3.org/1999/xlink">
	<title>line_spacing_text icon</title>
	<desc>line_spacing_text icon from the IconExperience.com I-Collection. Copyright by INCORS GmbH (www.incors.com).</desc>
		<path id="curve30"  d="M300 650l3400 0 0 300 -3400 0 0 -300zm0 800l3400 0 0 300 -3400 0 0 -300zm0 800l3400 0 0 300 -3400 0 0 -300zm0 800l3400 0 0 300 -3400 0 0 -300zm0 800l3400 0 0 300 -3400 0 0 -300zm-6 803l2400 0 0 300 -2400 0 0 -300z"/>
	<path id="curve29"  d="M3900 2250l1600 0 0 300 -1600 0 0 -300zm0 800l1600 0 0 300 -1600 0 0 -300z"/>
	<path id="curve28"  d="M4551 4900l-2 -1097 -239 239 -212 -212 601 -601 601 601 -212 212 -241 -240 2 1098 -298 0zm299 -4200l0 1095 238 -238 212 212 -601 601 -601 -601 212 -212 240 240 0 -1097 300 0z"/>
</svg>