<?xml version="1.0" encoding="UTF-8"?>
<!DOCTYPE svg PUBLIC "-//W3C//DTD SVG 1.1//EN" "http://www.w3.org/Graphics/SVG/1.1/DTD/svg11.dtd">
<svg xmlns="http://www.w3.org/2000/svg" xml:space="preserve" width="580px" height="580px" shape-rendering="geometricPrecision" text-rendering="geometricPrecision" image-rendering="optimizeQuality" fill-rule="nonzero" clip-rule="nonzero" viewBox="0 0 5800 5800" xmlns:xlink="http://www.w3.org/1999/xlink">
	<title>line_spacing_paragraph icon</title>
	<desc>line_spacing_paragraph icon from the IconExperience.com I-Collection. Copyright by INCORS GmbH (www.incors.com).</desc>
		<path id="curve30"  d="M300 450l3400 0 0 300 -3400 0 0 -300zm0 800l3400 0 0 300 -3400 0 0 -300zm0 800l2200 0 0 300 -2200 0 0 -300zm0 1400l3400 0 0 300 -3400 0 0 -300zm0 800l3400 0 0 300 -3400 0 0 -300zm0 800l1600 0 0 300 -1600 0 0 -300z"/>
	<path id="curve29"  d="M3900 2050l1600 0 0 300 -1600 0 0 -300zm0 1400l1600 0 0 300 -1600 0 0 -300z"/>
	<path id="curve28"  d="M4850 500l0 1095 238 -238 212 212 -601 601 -601 -601 212 -212 240 241 0 -1098 300 0zm-299 4800l-2 -1096 -239 238 -212 -212 601 -601 601 601 -212 212 -241 -240 2 1098 -298 0z"/>
</svg>