<?xml version="1.0" encoding="UTF-8"?>
<!DOCTYPE svg PUBLIC "-//W3C//DTD SVG 1.1//EN" "http://www.w3.org/Graphics/SVG/1.1/DTD/svg11.dtd">
<svg xmlns="http://www.w3.org/2000/svg" xml:space="preserve" width="580px" height="580px" shape-rendering="geometricPrecision" text-rendering="geometricPrecision" image-rendering="optimizeQuality" fill-rule="nonzero" clip-rule="nonzero" viewBox="0 0 5800 5800" xmlns:xlink="http://www.w3.org/1999/xlink">
	<title>line_spacing_paragraph icon</title>
	<desc>line_spacing_paragraph icon from the IconExperience.com I-Collection. Copyright by INCORS GmbH (www.incors.com).</desc>
		<path id="curve28"  d="M3900 3700l0 -200 1600 0 0 200 -1600 0zm799 0l565 566 -141 141 -326 -326 3 1219 -200 0 -2 -1217 -324 324 -141 -141 566 -566zm-4399 -3200l3400 0 0 200 -3400 0 0 -200zm0 800l3400 0 0 200 -3400 0 0 -200zm0 800l2200 0 0 200 -2200 0 0 -200zm0 1400l3400 0 0 200 -3400 0 0 -200zm0 800l3400 0 0 200 -3400 0 0 -200zm0 800l1600 0 0 200 -1600 0 0 -200zm3600 -3000l1600 0 0 200 -1600 0 0 -200zm900 -1600l0 1216 323 -323 141 141 -565 566 -566 -566 141 -141 326 325 0 -1218 200 0z"/>
</svg>