<?xml version="1.0" encoding="utf-8"?>
<!-- Generator: Adobe Illustrator 20.1.0, SVG Export Plug-In . SVG Version: 6.00 Build 0)  -->
<svg version="1.1" id="Ebene_1" xmlns="http://www.w3.org/2000/svg" xmlns:xlink="http://www.w3.org/1999/xlink" x="0px" y="0px"
	 width="580px" height="580px" viewBox="0 0 580 580" style="enable-background:new 0 0 580 580;" xml:space="preserve">
<g>
	<path d="M415.6,209.7l15.5,0l20-20l-35.5,0.1c-41,0.1-76.7,30-84.3,70.2l20.5,0C359,230.8,385.6,209.8,415.6,209.7z"/>
	<path d="M169.8,290.2c0.1,5.6,4.5,10,10.1,10l160.9-0.3l20.1-20.1l-181.1,0.3C174.3,280.1,169.9,284.6,169.8,290.2z"/>
	<path d="M164.4,370.2l-68.3,0.1c-36,0.1-65.9-29.6-66-65.7l-0.1-28.3c-0.1-36.1,29.7-66,65.7-66l68.3-0.1c30-0.1,56.7,20.9,64,49.8
		l20.4,0c-7.6-40.2-43.5-69.9-84.5-69.9l-68.3,0.1c-47,0.2-85.8,39.1-85.7,86l0.1,28.4c0.1,47,39,85.7,86,85.7l68.3-0.1
		c40.9-0.1,76.7-30,84.2-70.2l-20.4,0.1C221,349.1,194.4,370.1,164.4,370.2z"/>
	<path d="M561.6,249l-36.6-36.6c-10-10.1-26.6-10.1-36.6,0L285,415.8l-18.8,51.8l-3.5,9.5l-10.1,27.8c-1.7,4.8-0.6,10,3,13.5
		c3.6,3.6,8.8,4.8,13.5,3l27.8-10.1l9.5-3.5l51.8-18.8l203.4-203.5C571.7,275.5,571.7,259.1,561.6,249z M290.9,492.3l-8.2-8.1
		l19.6-53.9l41.8,41.8L290.9,492.3z M361.3,458.7l-44.8-44.6l133.4-133.4l44.8,44.8L361.3,458.7z M544.4,276l-36.7,35.3l-45-44.5
		l36.7-36.3c4-3.8,10.5-3.8,14.5,0l30.5,31.5C548.4,265.9,548.4,272.1,544.4,276z"/>
</g>
</svg>
