<?xml version="1.0" encoding="UTF-8"?>
<!DOCTYPE svg PUBLIC "-//W3C//DTD SVG 1.1//EN" "http://www.w3.org/Graphics/SVG/1.1/DTD/svg11.dtd">
<svg xmlns="http://www.w3.org/2000/svg" xml:space="preserve" width="580px" height="580px" shape-rendering="geometricPrecision" text-rendering="geometricPrecision" image-rendering="optimizeQuality" fill-rule="nonzero" clip-rule="nonzero" viewBox="0 0 5800 5800" xmlns:xlink="http://www.w3.org/1999/xlink">
	<title>link icon</title>
	<desc>link icon from the IconExperience.com I-Collection. Copyright by INCORS GmbH (www.incors.com).</desc>
		<path id="curve28" d="M3607 2051c39,-39 102,-39 142,0 39,40 39,103 0,142l-1556 1556c-39,39 -102,39 -142,0 -39,-40 -39,-103 0,-142l1556 -1556zm-787 1353c231,338 188,802 -101,1092l-483 483c-333,332 -882,332 -1214,0l-201 -201c-332,-332 -332,-881 0,-1214l483 -483c290,-289 754,-332 1092,-101l-145 144c-256,-153 -593,-113 -805,99l-483 483c-255,254 -255,676 0,931l200 200c255,255 677,255 931,0l483 -483c212,-212 252,-549 99,-805l144 -145zm1960 -2584l200 200c332,333 332,882 0,1214l-483 483c-290,290 -754,332 -1092,102l145 -145c257,154 593,114 806,-98l482 -483c255,-255 255,-677 0,-931l-200 -200c-254,-255 -676,-255 -931,0l-483 482c-212,213 -252,549 -98,806l-145 145c-230,-338 -188,-802 102,-1092l483 -483c332,-332 881,-332 1214,0z"/>
</svg>