<?xml version="1.0" encoding="UTF-8"?>
<!DOCTYPE svg PUBLIC "-//W3C//DTD SVG 1.1//EN" "http://www.w3.org/Graphics/SVG/1.1/DTD/svg11.dtd">
<svg xmlns="http://www.w3.org/2000/svg" xml:space="preserve" width="580px" height="580px" shape-rendering="geometricPrecision" text-rendering="geometricPrecision" image-rendering="optimizeQuality" fill-rule="nonzero" clip-rule="nonzero" viewBox="0 0 5800 5800" xmlns:xlink="http://www.w3.org/1999/xlink">
	<title>link icon</title>
	<desc>link icon from the IconExperience.com I-Collection. Copyright by INCORS GmbH (www.incors.com).</desc>
		<path id="curve28"  d="M4851 749l200 200c371,372 371,985 0,1356l-483 483c-329,328 -857,372 -1234,103l289 -290c216,116 488,78 662,-96l483 -483c216,-216 216,-574 0,-790l-200 -200c-216,-216 -574,-216 -790,0l-483 483c-174,174 -212,446 -96,662l-290 289c-269,-377 -225,-905 103,-1234l483 -483c371,-371 984,-371 1356,0zm-1959 2583c269,378 226,906 -103,1234l-483 483c-371,371 -984,371 -1355,0l-200 -200c-371,-371 -371,-984 0,-1355l483 -483c328,-329 856,-372 1234,-103l-290 290c-216,-117 -487,-78 -662,96l-482 482c-216,216 -216,574 0,790l200 200c216,216 574,216 790,0l482 -482c174,-175 213,-446 96,-662l290 -290zm644 -1351c78,-78 205,-78 283,0 78,78 78,205 0,283l-1555 1555c-78,78 -205,78 -283,0 -78,-78 -78,-205 0,-283l1555 -1555z"/>
</svg>