<?xml version="1.0" encoding="utf-8"?>
<!-- Generator: Adobe Illustrator 19.2.1, SVG Export Plug-In . SVG Version: 6.00 Build 0)  -->
<svg version="1.1" id="link_x5F_gi" xmlns="http://www.w3.org/2000/svg" xmlns:xlink="http://www.w3.org/1999/xlink" x="0px"
	 y="0px" width="580px" height="580px" viewBox="0 0 580 580" style="enable-background:new 0 0 580 580;" xml:space="preserve">
<title>address_book2 icon</title>
<desc>address_book2 icon from the IconExperience.com I-Collection. Copyright by INCORS GmbH (www.incors.com).</desc>
<title>address_book2 icon</title>
<desc>address_book2 icon from the IconExperience.com I-Collection. Copyright by INCORS GmbH (www.incors.com).</desc>
<title>address_book2 icon</title>
<desc>address_book2 icon from the IconExperience.com I-Collection. Copyright by INCORS GmbH (www.incors.com).</desc>
<path id="curve28" d="M399.9,279.7c5.5,0,10,4.4,10.1,10c-0.1,5.6-4.5,10-10,10.1l-220.1,0.4c-5.5,0-10-4.4-10.1-10
	c0.1-5.6,4.5-10,10-10.1L399.9,279.7z M248.7,320c-7.5,40.2-43.3,70.1-84.2,70.2l-68.3,0.1c-47,0-85.9-38.7-86-85.7l-0.1-28.4
	c-0.1-47,38.7-85.8,85.7-86l68.3-0.1c40.9,0,76.8,29.7,84.5,69.9l-20.4,0c-7.3-28.9-34-49.9-64-49.8l-68.3,0.1
	c-36,0-65.8,29.9-65.7,66l0.1,28.3c0.1,36.1,30,65.8,66,65.7l68.3-0.1c30-0.1,56.6-21.1,63.8-50L248.7,320z M569.9,275.3l0.1,28.3
	c0,47-38.7,85.9-85.7,86l-68.3,0.1c-41,0.1-76.8-29.7-84.6-69.8l20.5,0c7.3,29,34,49.9,64,49.9l68.2-0.2c36.1-0.1,65.8-30,65.7-66
	l-0.1-28.3c0-36-29.9-65.8-66-65.7l-68.2,0.1c-30.1,0.1-56.6,21.1-63.8,50.2l-20.5,0c7.6-40.2,43.3-70.1,84.3-70.2l68.3-0.1
	C530.8,189.5,569.7,228.3,569.9,275.3z"/>
</svg>
