<?xml version="1.0" encoding="UTF-8"?>
<!DOCTYPE svg PUBLIC "-//W3C//DTD SVG 1.1//EN" "http://www.w3.org/Graphics/SVG/1.1/DTD/svg11.dtd">
<svg xmlns="http://www.w3.org/2000/svg" xml:space="preserve" width="580px" height="580px" shape-rendering="geometricPrecision" text-rendering="geometricPrecision" image-rendering="optimizeQuality" fill-rule="nonzero" clip-rule="nonzero" viewBox="0 0 5800 5800" xmlns:xlink="http://www.w3.org/1999/xlink">
	<title>link_broken icon</title>
	<desc>link_broken icon from the IconExperience.com I-Collection. Copyright by INCORS GmbH (www.incors.com).</desc>
		<path id="curve28"  d="M2892 3332c269,378 226,906 -103,1234l-483 483c-371,371 -984,371 -1355,0l-200 -200c-371,-371 -371,-984 0,-1355l483 -483c328,-329 856,-372 1234,-103l-290 290c-216,-117 -487,-78 -662,96l-482 482c-216,216 -216,574 0,790l200 200c216,216 574,216 790,0l482 -482c174,-175 213,-446 96,-662l290 -290zm1408 -432l600 0 0 200 -600 0 0 -200zm-193 666l424 424 -141 141 -424 -424 141 -141zm-607 334l0 600 -200 0 0 -600 200 0zm0 -1900c0,-110 90,-200 200,-200 110,0 200,90 200,200l0 800 -400 0 0 -800zm59 -1800l282 0c528,0 959,431 959,959l0 682c0,430 -289,808 -700,923l0 -428c183,-97 300,-286 300,-495l0 -682c0,-307 -252,-559 -559,-559l-282 0c-307,0 -559,252 -559,559l0 682c0,209 117,398 300,495l0 428c-411,-115 -700,-493 -700,-923l0 -682c0,-528 431,-959 959,-959zm-1318 3641c-78,79 -204,79 -282,0 -79,-78 -79,-204 0,-282l650 -650 282 282 -650 650z"/>
</svg>