<?xml version="1.0" encoding="UTF-8"?>
<!DOCTYPE svg PUBLIC "-//W3C//DTD SVG 1.1//EN" "http://www.w3.org/Graphics/SVG/1.1/DTD/svg11.dtd">
<svg xmlns="http://www.w3.org/2000/svg" xml:space="preserve" width="580px" height="580px" shape-rendering="geometricPrecision" text-rendering="geometricPrecision" image-rendering="optimizeQuality" fill-rule="nonzero" clip-rule="nonzero" viewBox="0 0 5800 5800" xmlns:xlink="http://www.w3.org/1999/xlink">
	<title>lipstick icon</title>
	<desc>lipstick icon from the IconExperience.com I-Collection. Copyright by INCORS GmbH (www.incors.com).</desc>
	<path id="curve0" d="M3300 1931l0 1147c-66,9 -133,14 -200,17l0 -1145c67,-4 134,-10 200,-19zm600 3469c0,108 -131,192 -342,239 -171,38 -403,61 -658,61 -255,0 -487,-23 -658,-61 -211,-47 -342,-131 -342,-239l0 -2200c0,-81 74,-149 200,-197l0 -1503c0,-80 75,-143 200,-185l0 -115c0,-211 27,-397 84,-557 57,-163 146,-299 269,-406 76,-73 167,-108 275,-108 284,0 515,261 562,527 9,48 11,80 10,129l0 530c125,42 200,105 200,185l0 1503c126,48 200,116 200,197l0 2200zm-1600 -2153c154,33 365,53 600,53 235,0 446,-20 600,-53l0 -1563c-175,59 -418,72 -600,72 -182,0 -425,-13 -600,-72l0 1563zm200 -1720c138,22 278,29 418,29 127,-1 256,-9 382,-29l0 -369c-63,40 -138,60 -213,60 -250,0 -462,-207 -538,-434 -33,121 -49,260 -49,416l0 327zm428 -1198c-65,0 -122,26 -162,81 -51,69 -59,163 -44,246 30,169 179,362 365,362 65,0 122,-27 162,-81 33,-44 51,-104 51,-173 0,-24 -2,-48 -7,-73 -30,-170 -179,-362 -365,-362zm572 3325l0 1588c-66,16 -133,27 -200,36l0 -1597c67,-6 134,-15 200,-27zm200 1746l0 -2003c-42,16 -89,30 -142,42 -171,38 -403,61 -658,61 -255,0 -487,-23 -658,-61 -53,-12 -100,-26 -142,-42l0 2003c6,3 76,20 185,44 155,35 373,56 615,56 242,0 460,-21 615,-56 110,-24 180,-41 185,-44z"/>
</svg>