<?xml version="1.0" encoding="UTF-8"?>
<!DOCTYPE svg PUBLIC "-//W3C//DTD SVG 1.1//EN" "http://www.w3.org/Graphics/SVG/1.1/DTD/svg11.dtd">
<svg xmlns="http://www.w3.org/2000/svg" xml:space="preserve" width="580px" height="580px" shape-rendering="geometricPrecision" text-rendering="geometricPrecision" image-rendering="optimizeQuality" fill-rule="nonzero" clip-rule="nonzero" viewBox="0 0 5800 5800" xmlns:xlink="http://www.w3.org/1999/xlink">
	<title>lipstick icon</title>
	<desc>lipstick icon from the IconExperience.com I-Collection. Copyright by INCORS GmbH (www.incors.com).</desc>
	<path id="curve0"  d="M3300 1931c-66,9 -133,15 -200,19l0 1145c67,-3 134,-8 200,-17l0 -1147zm400 -431c0,562 0,1124 0,1686 0,2 -71,33 -185,58 -119,26 -242,41 -362,48 -277,18 -613,9 -868,-48 -114,-25 -185,-56 -185,-58l2 -1664c16,85 121,150 282,185 290,65 743,65 1032,0 176,-39 284,-111 284,-207zm-400 3778c68,-9 134,-20 200,-36l0 -1588c-66,12 -133,21 -200,27l0 1597zm600 -2078l0 2200c0,108 -131,192 -342,239 -171,38 -403,61 -658,61 -255,0 -487,-23 -658,-61 -211,-47 -342,-131 -342,-239l0 -2200c0,108 131,192 342,239 368,81 948,81 1316,0 211,-47 342,-131 342,-239zm-1600 -1738c0,-310 -14,-610 116,-901 -2,48 2,98 10,148 57,314 327,609 661,609 184,0 325,-87 413,-217l0 360c0,10 -48,34 -127,52 -119,26 -286,43 -473,43 -187,0 -354,-17 -473,-43 -72,-16 -119,-42 -127,-51zm628 -1233c212,0 420,199 464,444 44,246 -93,445 -305,445 -212,0 -420,-199 -464,-445 -44,-245 93,-444 305,-444z"/>
</svg>