<?xml version="1.0" encoding="UTF-8"?>
<!DOCTYPE svg PUBLIC "-//W3C//DTD SVG 1.1//EN" "http://www.w3.org/Graphics/SVG/1.1/DTD/svg11.dtd">
<svg xmlns="http://www.w3.org/2000/svg" xml:space="preserve" width="580px" height="580px" shape-rendering="geometricPrecision" text-rendering="geometricPrecision" image-rendering="optimizeQuality" fill-rule="nonzero" clip-rule="nonzero" viewBox="0 0 5800 5800" xmlns:xlink="http://www.w3.org/1999/xlink">
	<title>list_style_numbered icon</title>
	<desc>list_style_numbered icon from the IconExperience.com I-Collection. Copyright by INCORS GmbH (www.incors.com).</desc>
		<path id="curve29"  d="M1900 5050l2400 0 0 300 -2400 0 0 -300zm0 -800l3600 0 0 300 -3600 0 0 -300zm0 -800l3600 0 0 300 -3600 0 0 -300zm0 -1196l1600 0 0 300 -1600 0 0 -300zm0 -804l3600 0 0 300 -3600 0 0 -300zm0 -800l3600 0 0 300 -3600 0 0 -300z"/>
	<path id="curve28"  d="M700 3800c0,-165 135,-300 300,-300l200 0c165,0 300,135 300,300 0,148 -74,266 -198,335l-297 165 495 0 0 200 -800 0 0 -141c0,-73 39,-139 103,-175l387 -215c60,-42 110,-90 110,-169 0,-55 -45,-100 -100,-100l-200 0c-55,0 -100,45 -100,100l-200 0zm200 -2300l200 0 0 -600 -200 0 0 -200 400 0 0 800 200 0 0 200 -600 0 0 -200z"/>
</svg>