<?xml version="1.0" encoding="UTF-8"?>
<!DOCTYPE svg PUBLIC "-//W3C//DTD SVG 1.1//EN" "http://www.w3.org/Graphics/SVG/1.1/DTD/svg11.dtd">
<svg xmlns="http://www.w3.org/2000/svg" xml:space="preserve" width="580px" height="580px" shape-rendering="geometricPrecision" text-rendering="geometricPrecision" image-rendering="optimizeQuality" fill-rule="nonzero" clip-rule="nonzero" viewBox="0 0 5800 5800" xmlns:xlink="http://www.w3.org/1999/xlink">
	<title>lock3 icon</title>
	<desc>lock3 icon from the IconExperience.com I-Collection. Copyright by INCORS GmbH (www.incors.com).</desc>
		<path id="curve28"  d="M1500 2303l0 -603c0,-773 627,-1400 1400,-1400 773,0 1400,627 1400,1400l0 603c-63,-61 -129,-118 -200,-171l0 -432c0,-663 -537,-1200 -1200,-1200 -663,0 -1200,537 -1200,1200l0 432c-71,52 -137,110 -200,171zm1400 -403c994,0 1800,806 1800,1800 0,994 -806,1800 -1800,1800 -994,0 -1800,-806 -1800,-1800 0,-994 806,-1800 1800,-1800zm100 1310c232,47 400,252 400,490 0,276 -224,500 -500,500 -276,0 -500,-224 -500,-500 0,-238 168,-443 400,-490l0 -210 200 0 0 210zm-100 190c-166,0 -300,134 -300,300 0,166 134,300 300,300 166,0 300,-134 300,-300 0,-166 -134,-300 -300,-300zm0 -1100c-773,0 -1400,627 -1400,1400 0,773 627,1400 1400,1400 773,0 1400,-627 1400,-1400 0,-773 -627,-1400 -1400,-1400zm684 414l-110 191 -173 -99 111 -192c-127,-59 -266,-98 -412,-110l0 221 -200 0 0 -221c-146,12 -285,50 -412,110l111 192 -173 99 -110 -191c-118,82 -220,184 -302,302l192 110 -100 173 -192 -111c-60,127 -98,266 -110,412l221 0 0 200 -221 0c12,146 51,285 110,412l192 -111 99 173 -191 110c82,118 184,220 302,302l110 -191 173 99 -111 192c127,60 266,98 412,110l0 -221 200 0 0 221c146,-12 285,-51 412,-110l-111 -192 173 -99 110 191c118,-82 220,-184 302,-302l-191 -110 99 -173 192 111c59,-127 98,-266 110,-412l-221 0 0 -200 221 0c-12,-146 -51,-285 -110,-412l-192 111 -99 -173 191 -110c-82,-118 -184,-220 -302,-302z"/>
</svg>