<?xml version="1.0" encoding="UTF-8"?>
<!DOCTYPE svg PUBLIC "-//W3C//DTD SVG 1.1//EN" "http://www.w3.org/Graphics/SVG/1.1/DTD/svg11.dtd">
<svg xmlns="http://www.w3.org/2000/svg" xml:space="preserve" width="580px" height="580px" shape-rendering="geometricPrecision" text-rendering="geometricPrecision" image-rendering="optimizeQuality" fill-rule="nonzero" clip-rule="nonzero" viewBox="0 0 5800 5800" xmlns:xlink="http://www.w3.org/1999/xlink">
	<title>lock icon</title>
	<desc>lock icon from the IconExperience.com I-Collection. Copyright by INCORS GmbH (www.incors.com).</desc>
		<path id="curve28"  d="M1500 2500l0 -800c0,-773 627,-1400 1400,-1400 773,0 1400,627 1400,1400l0 800 -200 0 0 -800c0,-663 -537,-1200 -1200,-1200 -663,0 -1200,537 -1200,1200l0 800 -200 0zm-100 200l3000 0c165,0 300,135 300,300l0 2200c0,165 -135,300 -300,300l-3000 0c-165,0 -300,-135 -300,-300l0 -2200c0,-165 135,-300 300,-300zm1700 1522c63,-57 99,-137 99,-222 0,-165 -134,-299 -299,-299 -165,0 -299,134 -299,299 0,85 36,165 99,222l0 478c133,0 267,0 400,0l0 -478z"/>
</svg>