<?xml version="1.0" encoding="UTF-8"?>
<!DOCTYPE svg PUBLIC "-//W3C//DTD SVG 1.1//EN" "http://www.w3.org/Graphics/SVG/1.1/DTD/svg11.dtd">
<svg xmlns="http://www.w3.org/2000/svg" xml:space="preserve" width="580px" height="580px" shape-rendering="geometricPrecision" text-rendering="geometricPrecision" image-rendering="optimizeQuality" fill-rule="nonzero" clip-rule="nonzero" viewBox="0 0 5800 5800" xmlns:xlink="http://www.w3.org/1999/xlink">
	<title>lock3 icon</title>
	<desc>lock3 icon from the IconExperience.com I-Collection. Copyright by INCORS GmbH (www.incors.com).</desc>
		<path id="curve28" d="M3000 3000l0 210c232,47 400,252 400,490 0,276 -224,500 -500,500 -276,0 -500,-224 -500,-500 0,-238 168,-443 400,-490l0 -210 200 0zm-1500 -697l0 -603c0,-387 157,-737 410,-990 253,-253 603,-410 990,-410 387,0 737,157 990,410 253,253 410,603 410,990l0 603c-63,-61 -129,-118 -200,-171l0 -432c0,-331 -134,-631 -351,-849 -218,-217 -518,-351 -849,-351 -331,0 -631,134 -849,351 -217,218 -351,518 -351,849l0 432c-71,52 -137,110 -200,171zm1400 -403c994,0 1800,806 1800,1800 0,994 -806,1800 -1800,1800 -994,0 -1800,-806 -1800,-1800 0,-994 806,-1800 1800,-1800zm0 200c-884,0 -1600,716 -1600,1600 0,884 716,1600 1600,1600 884,0 1600,-716 1600,-1600 0,-884 -716,-1600 -1600,-1600zm0 200c773,0 1400,627 1400,1400 0,773 -627,1400 -1400,1400 -773,0 -1400,-627 -1400,-1400 0,-773 627,-1400 1400,-1400zm684 414l-110 191 -173 -99 111 -192c-127,-59 -266,-98 -412,-110l0 221 -200 0 0 -221c-146,12 -285,51 -412,110l111 192 -173 99 -110 -191c-118,82 -220,184 -302,302l192 110 -100 173 -192 -111c-60,127 -98,266 -110,412l221 0 0 200 -221 0c12,146 51,285 110,412l192 -111 99 173 -191 110c82,118 184,220 302,302l110 -191 173 99 -111 192c127,59 266,98 412,110l0 -221 200 0 0 221c146,-12 285,-51 412,-110l-111 -192 173 -99 110 191c118,-82 220,-184 302,-302l-191 -110 99 -173 192 111c59,-127 98,-266 110,-412l-221 0 0 -200 221 0c-12,-146 -51,-285 -110,-412l-192 111 -99 -173 191 -110c-82,-118 -184,-220 -302,-302zm-684 686c-166,0 -300,134 -300,300 0,166 134,300 300,300 166,0 300,-134 300,-300 0,-166 -134,-300 -300,-300z"/>
</svg>