<?xml version="1.0" encoding="UTF-8"?>
<!DOCTYPE svg PUBLIC "-//W3C//DTD SVG 1.1//EN" "http://www.w3.org/Graphics/SVG/1.1/DTD/svg11.dtd">
<svg xmlns="http://www.w3.org/2000/svg" xml:space="preserve" width="580px" height="580px" shape-rendering="geometricPrecision" text-rendering="geometricPrecision" image-rendering="optimizeQuality" fill-rule="nonzero" clip-rule="nonzero" viewBox="0 0 5800 5800" xmlns:xlink="http://www.w3.org/1999/xlink">
	<title>lock2 icon</title>
	<desc>lock2 icon from the IconExperience.com I-Collection. Copyright by INCORS GmbH (www.incors.com).</desc>
		<path id="curve28"  d="M1500 2303l0 -603c0,-773 627,-1400 1400,-1400 773,0 1400,627 1400,1400l0 603c-63,-61 -129,-118 -200,-171l0 -432c0,-663 -537,-1200 -1200,-1200 -663,0 -1200,537 -1200,1200l0 432c-71,52 -137,110 -200,171zm1400 -403c994,0 1800,806 1800,1800 0,994 -806,1800 -1800,1800 -994,0 -1800,-806 -1800,-1800 0,-994 806,-1800 1800,-1800zm200 1921c63,-57 99,-137 99,-222 0,-164 -134,-298 -299,-298 -165,0 -299,134 -299,298 0,85 36,165 99,222l0 478 400 0 0 -478zm-200 -1521c-773,0 -1400,627 -1400,1400 0,773 627,1400 1400,1400 773,0 1400,-627 1400,-1400 0,-773 -627,-1400 -1400,-1400zm1200 1400c0,663 -537,1200 -1200,1200 -663,0 -1200,-537 -1200,-1200 0,-663 537,-1200 1200,-1200 663,0 1200,537 1200,1200z"/>
</svg>