<?xml version="1.0" encoding="UTF-8"?>
<!DOCTYPE svg PUBLIC "-//W3C//DTD SVG 1.1//EN" "http://www.w3.org/Graphics/SVG/1.1/DTD/svg11.dtd">
<svg xmlns="http://www.w3.org/2000/svg" xml:space="preserve" width="580px" height="580px" shape-rendering="geometricPrecision" text-rendering="geometricPrecision" image-rendering="optimizeQuality" fill-rule="nonzero" clip-rule="nonzero" viewBox="0 0 5800 5800" xmlns:xlink="http://www.w3.org/1999/xlink">
	<title>log icon</title>
	<desc>log icon from the IconExperience.com I-Collection. Copyright by INCORS GmbH (www.incors.com).</desc>
	<path id="curve0"  d="M1129 4529c39,-39 103,-39 142,0 39,39 39,103 0,142 -39,39 -103,39 -142,0 -39,-39 -39,-103 0,-142zm1037 -471l2930 -2929c3,22 4,44 4,66 0,126 -48,253 -145,349l-2705 2705c-22,-65 -50,-129 -84,-191zm-1860 537c0,-231 88,-461 263,-637 24,-24 50,-46 76,-68l3328 -3328c175,-174 404,-262 633,-262 494,0 894,401 894,895 0,228 -87,457 -262,632l-3328 3328c-21,27 -44,52 -68,76 -176,176 -406,264 -636,264 -497,0 -901,-403 -900,-900zm814 -896c28,-3 57,-4 85,-4 498,0 900,403 900,900 0,28 -1,57 -4,86l2996 -2995c135,-136 203,-314 203,-491 0,-384 -311,-695 -694,-695 -178,0 -356,68 -491,204l-2995 2995zm-615 896c1,386 314,700 701,700 177,0 354,-67 490,-201 27,-25 48,-49 64,-72 97,-125 145,-276 145,-427 0,-387 -313,-700 -700,-700 -150,0 -301,48 -427,145 -24,21 -48,43 -72,64 -134,136 -201,314 -201,491zm700 -495c274,0 495,222 495,495 0,273 -221,494 -495,494 -273,0 -494,-221 -494,-494 0,-273 221,-495 494,-495zm-294 495c0,163 132,294 294,294 163,0 295,-131 295,-294 0,-163 -132,-295 -295,-295 -162,0 -294,132 -294,295z"/>
</svg>