<?xml version="1.0" encoding="UTF-8"?>
<!DOCTYPE svg PUBLIC "-//W3C//DTD SVG 1.1//EN" "http://www.w3.org/Graphics/SVG/1.1/DTD/svg11.dtd">
<svg xmlns="http://www.w3.org/2000/svg" xml:space="preserve" width="580px" height="580px" shape-rendering="geometricPrecision" text-rendering="geometricPrecision" image-rendering="optimizeQuality" fill-rule="nonzero" clip-rule="nonzero" viewBox="0 0 5800 5800" xmlns:xlink="http://www.w3.org/1999/xlink">
	<title>log_out icon</title>
	<desc>log_out icon from the IconExperience.com I-Collection. Copyright by INCORS GmbH (www.incors.com).</desc>
		<path id="curve29"  d="M5100 3700l0 600 -400 0 0 -600 -200 0 0 600 -600 0 0 -600 -1487 0c-149,479 -525,803 -1038,803 -286,0 -560,-141 -760,-367 -191,-216 -315,-512 -315,-836 0,-591 453,-1197 1075,-1197 512,0 885,320 1037,797l2888 0 0 800 -200 0zm-3700 -1000c-276,0 -500,269 -500,600 0,331 224,600 500,600 276,0 500,-269 500,-600 0,-331 -224,-600 -500,-600z"/>
	<path id="curve28"  d="M3029,2429 3659,1800 3029,1171 3171,1029 3800,1659 4429,1029 4571,1171 3941,1800 4571,2429 4429,2571 3800,1941 3171,2571z"/>
</svg>