<?xml version="1.0" encoding="UTF-8"?>
<!DOCTYPE svg PUBLIC "-//W3C//DTD SVG 1.1//EN" "http://www.w3.org/Graphics/SVG/1.1/DTD/svg11.dtd">
<svg xmlns="http://www.w3.org/2000/svg" xml:space="preserve" width="580px" height="580px" shape-rendering="geometricPrecision" text-rendering="geometricPrecision" image-rendering="optimizeQuality" fill-rule="nonzero" clip-rule="nonzero" viewBox="0 0 5800 5800" xmlns:xlink="http://www.w3.org/1999/xlink">
	<title>log_in icon</title>
	<desc>log_in icon from the IconExperience.com I-Collection. Copyright by INCORS GmbH (www.incors.com).</desc>
		<path id="curve28" d="M4371 1029l770 771 -770 771 -142 -142 530 -529 -2459 0 0 -200 2459 0 -530 -529 142 -142zm-2971 1571c169,0 321,81 430,212 105,126 170,299 170,488 0,189 -65,362 -170,488 -109,131 -261,212 -430,212 -169,0 -321,-81 -430,-212 -105,-126 -170,-299 -170,-488 0,-189 65,-362 170,-488 109,-131 261,-212 430,-212zm3700 1100l0 600c-400,0 -800,0 -1200,0l0 -600 -1487 0c-71,228 -195,424 -365,567 -178,148 -405,236 -673,236 -286,0 -560,-141 -760,-367 -191,-216 -315,-512 -315,-836 0,-324 124,-618 315,-833 200,-225 474,-364 760,-364 268,0 494,86 671,233 170,141 294,337 366,564l2888 0 0 800 -200 0zm-200 400l0 -600 200 0 0 -400 -2840 0 -20 -75c-56,-218 -166,-406 -321,-535 -143,-118 -326,-187 -544,-187 -227,0 -448,113 -611,297 -160,180 -264,427 -264,700 0,274 104,522 264,704 163,184 384,299 611,299 219,0 403,-71 545,-190 156,-129 265,-318 321,-538l19 -75 1840 0 0 600 400 0 0 -400 200 0 0 400 200 0zm-3223 -1161c-72,-86 -170,-139 -277,-139 -107,0 -205,53 -277,139 -76,92 -123,219 -123,361 0,142 47,269 123,361 72,86 170,139 277,139 107,0 205,-53 277,-139 76,-92 123,-219 123,-361 0,-142 -47,-269 -123,-361z"/>
</svg>