<?xml version="1.0" encoding="UTF-8"?>
<!DOCTYPE svg PUBLIC "-//W3C//DTD SVG 1.1//EN" "http://www.w3.org/Graphics/SVG/1.1/DTD/svg11.dtd">
<svg xmlns="http://www.w3.org/2000/svg" xml:space="preserve" width="580px" height="580px" shape-rendering="geometricPrecision" text-rendering="geometricPrecision" image-rendering="optimizeQuality" fill-rule="nonzero" clip-rule="nonzero" viewBox="0 0 5800 5800" xmlns:xlink="http://www.w3.org/1999/xlink">
	<title>log icon</title>
	<desc>log icon from the IconExperience.com I-Collection. Copyright by INCORS GmbH (www.incors.com).</desc>
	<path id="curve0"  d="M2017 4205c32,66 55,135 69,205l2869 -2866c97,-96 145,-223 145,-349 0,-22 -1,-44 -4,-66l-3079 3076zm-886 322c40,-37 101,-36 140,2 38,38 39,100 2,139 -38,42 -104,42 -144,3 -40,-40 -38,-104 2,-144zm-626 68c0,386 314,700 701,700 378,0 699,-318 699,-700 0,-387 -313,-700 -700,-700 -150,0 -301,48 -427,145 -172,150 -273,318 -273,555zm-199 0c0,-276 124,-533 339,-705l3328 -3328c175,-174 404,-262 633,-262 494,0 894,401 894,895 0,228 -87,457 -262,632l-3328 3328c-171,215 -429,340 -704,340 -498,0 -901,-403 -900,-900zm899 -495c274,0 495,222 495,495 0,273 -221,494 -495,494 -273,0 -494,-221 -494,-494 0,-273 221,-495 494,-495zm-294 495c0,163 132,294 294,294 163,0 295,-131 295,-294 0,-163 -132,-295 -295,-295 -162,0 -294,132 -294,295z"/>
</svg>