<?xml version="1.0" encoding="UTF-8"?>
<!DOCTYPE svg PUBLIC "-//W3C//DTD SVG 1.1//EN" "http://www.w3.org/Graphics/SVG/1.1/DTD/svg11.dtd">
<svg xmlns="http://www.w3.org/2000/svg" xml:space="preserve" width="580px" height="580px" shape-rendering="geometricPrecision" text-rendering="geometricPrecision" image-rendering="optimizeQuality" fill-rule="nonzero" clip-rule="nonzero" viewBox="0 0 5800 5800" xmlns:xlink="http://www.w3.org/1999/xlink">
	<title>log_in icon</title>
	<desc>log_in icon from the IconExperience.com I-Collection. Copyright by INCORS GmbH (www.incors.com).</desc>
		<path id="curve28"  d="M5100 3700l0 600 -400 0 0 -600 -200 0 0 600 -600 0 0 -600 -1487 0c-149,479 -525,803 -1038,803 -623,0 -1075,-613 -1075,-1203 0,-591 453,-1197 1075,-1197 512,0 885,320 1037,797l2888 0 0 800 -200 0zm-3700 -1000c-276,0 -500,269 -500,600 0,331 224,600 500,600 276,0 500,-269 500,-600 0,-331 -224,-600 -500,-600zm2971 -1671l770 771 -770 771 -142 -142 530 -529 -2459 0 0 -200 2459 0 -530 -529 142 -142z"/>
</svg>