<?xml version="1.0" encoding="UTF-8"?>
<!DOCTYPE svg PUBLIC "-//W3C//DTD SVG 1.1//EN" "http://www.w3.org/Graphics/SVG/1.1/DTD/svg11.dtd">
<svg xmlns="http://www.w3.org/2000/svg" xml:space="preserve" width="580px" height="580px" shape-rendering="geometricPrecision" text-rendering="geometricPrecision" image-rendering="optimizeQuality" fill-rule="nonzero" clip-rule="nonzero" viewBox="0 0 5800 5800" xmlns:xlink="http://www.w3.org/1999/xlink">
	<title>logic_and icon</title>
	<desc>logic_and icon from the IconExperience.com I-Collection. Copyright by INCORS GmbH (www.incors.com).</desc>
		<path id="curve28"  d="M2100 1100c287,0 559,67 800,187 241,-120 513,-187 800,-187 994,0 1800,806 1800,1800 0,994 -806,1800 -1800,1800 -287,0 -559,-67 -800,-187 -241,120 -513,187 -800,187 -994,0 -1800,-806 -1800,-1800 0,-994 806,-1800 1800,-1800zm341 2413c-90,-185 -141,-393 -141,-613 0,-220 51,-428 141,-613 115,-235 257,-380 459,-538 66,51 131,102 190,161 273,273 410,632 410,990 0,358 -137,717 -410,990 -59,59 -124,110 -190,161 -202,-158 -344,-303 -459,-538zm671 -2102c493,336 788,890 788,1489 0,599 -295,1153 -788,1489 182,71 380,111 588,111 884,0 1600,-716 1600,-1600 0,-884 -716,-1600 -1600,-1600 -208,0 -406,40 -588,111zm-424 2978c-493,-336 -788,-890 -788,-1489 0,-599 295,-1153 788,-1489 -182,-72 -380,-111 -588,-111 -884,0 -1600,716 -1600,1600 0,884 716,1600 1600,1600 208,0 406,-40 588,-111zm212 -2875c-494,286 -800,812 -800,1386 0,574 306,1100 800,1386 494,-286 800,-812 800,-1386 0,-574 -306,-1100 -800,-1386z"/>
</svg>