<?xml version="1.0" encoding="UTF-8"?>
<!DOCTYPE svg PUBLIC "-//W3C//DTD SVG 1.1//EN" "http://www.w3.org/Graphics/SVG/1.1/DTD/svg11.dtd">
<svg xmlns="http://www.w3.org/2000/svg" xml:space="preserve" width="580px" height="580px" shape-rendering="geometricPrecision" text-rendering="geometricPrecision" image-rendering="optimizeQuality" fill-rule="nonzero" clip-rule="nonzero" viewBox="0 0 5800 5800" xmlns:xlink="http://www.w3.org/1999/xlink">
	<title>logic_and icon</title>
	<desc>logic_and icon from the IconExperience.com I-Collection. Copyright by INCORS GmbH (www.incors.com).</desc>
		<path id="curve28"  d="M2300 2900c0,-433 198,-837 539,-1103l61 -48 61 48c341,267 539,669 539,1103 0,493 -223,856 -600,1151 -378,-296 -600,-661 -600,-1151zm-200 -1800c287,0 559,67 800,187 241,-120 513,-187 800,-187 994,0 1800,806 1800,1800 0,994 -806,1800 -1800,1800 -287,0 -559,-67 -800,-187 -241,120 -513,187 -800,187 -994,0 -1800,-806 -1800,-1800 0,-994 806,-1800 1800,-1800zm1012 311c493,336 788,890 788,1489 0,599 -295,1153 -788,1489 182,71 380,111 588,111 884,0 1600,-716 1600,-1600 0,-884 -716,-1600 -1600,-1600 -208,0 -406,40 -588,111zm-212 103c-494,286 -800,812 -800,1386 0,574 306,1100 800,1386 494,-286 800,-812 800,-1386 0,-574 -306,-1100 -800,-1386zm-212 -103c-182,-72 -380,-111 -588,-111 -884,0 -1600,716 -1600,1600 0,884 716,1600 1600,1600 208,0 406,-40 588,-111 -493,-336 -788,-890 -788,-1489 0,-599 295,-1153 788,-1489z"/>
</svg>