<?xml version="1.0" encoding="UTF-8"?>
<!DOCTYPE svg PUBLIC "-//W3C//DTD SVG 1.1//EN" "http://www.w3.org/Graphics/SVG/1.1/DTD/svg11.dtd">
<svg xmlns="http://www.w3.org/2000/svg" xml:space="preserve" width="580px" height="580px" shape-rendering="geometricPrecision" text-rendering="geometricPrecision" image-rendering="optimizeQuality" fill-rule="nonzero" clip-rule="nonzero" viewBox="0 0 5800 5800" xmlns:xlink="http://www.w3.org/1999/xlink">
	<title>logic_or icon</title>
	<desc>logic_or icon from the IconExperience.com I-Collection. Copyright by INCORS GmbH (www.incors.com).</desc>
		<path id="curve28"  d="M2046 1501l216 -8 -134 170c-279,355 -428,785 -428,1237 0,452 149,882 428,1237l134 170 -216 -8c-747,-29 -1346,-643 -1346,-1399 0,-756 599,-1370 1346,-1399zm1708 0c751,29 1346,647 1346,1399 0,752 -595,1370 -1346,1399l-216 8 134 -170c279,-355 428,-785 428,-1237 0,-452 -149,-882 -428,-1237l-134 -170 216 8zm-915 2502c-168,-131 -304,-298 -398,-490 -90,-185 -141,-393 -141,-613 0,-220 51,-428 141,-613 94,-192 230,-360 398,-490l61 -48 61 48c341,267 539,669 539,1103 0,507 -227,859 -600,1151l-61 -48zm861 -2903c994,0 1800,806 1800,1800 0,994 -806,1800 -1800,1800 -287,0 -559,-67 -800,-187 -241,120 -513,187 -800,187 -994,0 -1800,-806 -1800,-1800 0,-994 806,-1800 1800,-1800 287,0 559,67 800,187 241,-120 513,-187 800,-187zm-1012 3289c-493,-336 -788,-890 -788,-1489 0,-599 295,-1153 788,-1489 -182,-72 -380,-111 -588,-111 -884,0 -1600,716 -1600,1600 0,884 716,1600 1600,1600 208,0 406,-40 588,-111zm1012 -3089c-208,0 -406,40 -588,111 493,336 788,890 788,1489 0,599 -295,1153 -788,1489 182,71 380,111 588,111 884,0 1600,-716 1600,-1600 0,-884 -716,-1600 -1600,-1600zm-800 214c-494,286 -800,812 -800,1386 0,574 306,1100 800,1386 494,-286 800,-812 800,-1386 0,-574 -306,-1100 -800,-1386z"/>
</svg>