<?xml version="1.0" encoding="UTF-8"?>
<!DOCTYPE svg PUBLIC "-//W3C//DTD SVG 1.1//EN" "http://www.w3.org/Graphics/SVG/1.1/DTD/svg11.dtd">
<svg xmlns="http://www.w3.org/2000/svg" xml:space="preserve" width="580px" height="580px" shape-rendering="geometricPrecision" text-rendering="geometricPrecision" image-rendering="optimizeQuality" fill-rule="nonzero" clip-rule="nonzero" viewBox="0 0 5800 5800" xmlns:xlink="http://www.w3.org/1999/xlink">
	<title>logs icon</title>
	<desc>logs icon from the IconExperience.com I-Collection. Copyright by INCORS GmbH (www.incors.com).</desc>
	<path id="curve0"  d="M3473 4493l1514 -1514c98,-101 136,-247 99,-383l-1697 1698c38,63 65,130 84,199zm-2560 -194c220,0 400,180 400,400 0,221 -179,400 -400,400 -220,0 -400,-179 -400,-400 0,-221 179,-400 400,-400zm0 200c-110,0 -200,90 -200,200 0,111 89,200 200,200 110,0 200,-89 200,-200 0,-111 -89,-200 -200,-200zm1779 -200c221,0 400,179 400,400 0,221 -179,400 -400,400 -220,0 -400,-179 -400,-400 0,-221 179,-400 400,-400zm0 200c-110,0 -200,90 -200,200 0,111 89,200 200,200 111,0 200,-89 200,-200 0,-110 -89,-200 -200,-200zm-892 -1699c220,0 400,180 400,400 0,221 -179,400 -400,400 -220,0 -400,-180 -400,-400 0,-221 179,-400 400,-400zm0 200c-110,0 -200,90 -200,200 0,111 89,200 200,200 110,0 200,-90 200,-200 0,-111 -89,-200 -200,-200zm2000 -2600c442,1 800,358 800,800 0,205 -78,409 -234,566l-2000 2000c-151,150 -351,233 -566,234 -442,0 -800,-358 -800,-800l0 -10 0 0 0 -9 0 0 1 -10 0 0 0 -9 0 0 0 -10 0 0 1 -9 0 -1c15,-192 93,-368 232,-508 667,-666 1334,-1333 2000,-2000 157,-156 361,-234 566,-234zm-2000 2200c-331,0 -600,269 -600,600 0,331 269,600 600,600 331,0 600,-269 600,-600 0,-331 -269,-600 -600,-600zm2285 -1119c100,-101 138,-249 102,-385l-1698 1698c37,62 65,129 84,199l1512 -1512zm-819 3785c-153,150 -351,234 -566,234 -442,0 -800,-358 -800,-800 0,-205 78,-409 234,-566l2000 -2000c157,-156 361,-234 566,-234 442,0 800,358 800,800 0,205 -78,409 -234,566m-2566 834c-331,0 -600,269 -600,600 0,331 269,600 600,600 331,0 600,-269 600,-600 0,-331 -269,-600 -600,-600zm-1181 1107c-152,185 -378,293 -619,293 -442,0 -800,-358 -800,-800 0,-216 84,-412 234,-566l545 -544c161,381 542,624 955,609 -136,235 -168,514 -97,770l-218 238zm-619 -1107c-331,0 -600,269 -600,600 0,331 269,600 600,600 331,0 600,-269 600,-600 0,-331 -269,-600 -600,-600z"/>
</svg>