<?xml version="1.0" encoding="UTF-8"?>
<!DOCTYPE svg PUBLIC "-//W3C//DTD SVG 1.1//EN" "http://www.w3.org/Graphics/SVG/1.1/DTD/svg11.dtd">
<svg xmlns="http://www.w3.org/2000/svg" xml:space="preserve" width="580px" height="580px" shape-rendering="geometricPrecision" text-rendering="geometricPrecision" image-rendering="optimizeQuality" fill-rule="nonzero" clip-rule="nonzero" viewBox="0 0 5800 5800" xmlns:xlink="http://www.w3.org/1999/xlink">
	<title>logs icon</title>
	<desc>logs icon from the IconExperience.com I-Collection. Copyright by INCORS GmbH (www.incors.com).</desc>
	<path id="curve0" d="M913 4299c220,0 400,180 400,400 0,221 -179,400 -400,400 -220,0 -400,-179 -400,-400 0,-221 179,-400 400,-400zm2887 -3699c-154,0 -307,59 -424,176l-1626 1626c17,-1 33,-2 50,-2 442,0 800,358 800,800 0,17 -1,33 -2,50l1626 -1626c35,-35 65,-73 89,-113l0 0c4,-6 8,-13 11,-19l0 0 4 -6 0 -1 3 -6 0 0 4 -7 0 0 3 -6 0 0 3 -7 0 0 3 -6 0 0 3 -7 0 0 3 -7 0 0 3 -6 0 -1 3 -6 0 0 3 -7 0 0c2,-5 3,-9 5,-14l0 0 2 -7 0 0c6,-15 47,-198 34,-198 0,-331 -268,-600 -600,-600zm0 -200c442,0 800,358 800,800 0,205 -78,409 -234,566l-2002 2001c-156,155 -360,233 -564,233 -442,0 -800,-358 -800,-800 0,-216 84,-412 234,-566l2000 -2000c157,-156 361,-234 566,-234zm334 1734c157,-156 361,-234 566,-234 442,0 800,358 800,800 0,205 -78,409 -234,566l-2002 2001c-156,155 -360,233 -564,233 -442,0 -800,-358 -800,-800 0,-205 78,-409 234,-566l2000 -2000zm-636 2616l1626 -1626c113,-112 176,-264 176,-424 0,-327 -264,-600 -600,-600 -154,0 -307,59 -424,176l-1626 1626c17,-1 33,-2 50,-2 442,0 800,358 800,800 0,17 -1,33 -2,50zm36 -601l1552 -1553c10,34 14,69 14,104 0,101 -38,201 -113,279l-1356 1356c-25,-65 -57,-127 -97,-186zm-1834 565c1,85 14,171 37,255l-218 238c-152,186 -378,293 -619,293 -442,0 -800,-358 -800,-800 0,-466 481,-813 779,-1110 27,63 60,124 101,182l-130 130c17,-1 33,-2 50,-2 442,0 800,358 800,800 0,5 0,9 0,14zm2500 -3514c0,102 -38,203 -115,281l-1354 1354c-25,-65 -57,-127 -97,-186l1553 -1553c9,34 13,69 13,104zm-2700 3500c0,-331 -269,-600 -600,-600 -331,0 -600,269 -600,600 0,331 269,600 600,600 332,0 600,-269 600,-600zm1200 -600c-331,0 -600,269 -600,600 0,331 269,600 600,600 331,0 600,-269 600,-600 0,-331 -269,-600 -600,-600zm-900 -1500c-331,0 -600,269 -600,600 0,331 269,600 600,600 331,0 600,-269 600,-600 0,-331 -269,-600 -600,-600zm0 200c220,0 400,180 400,400 0,221 -179,400 -400,400 -220,0 -400,-180 -400,-400 0,-221 179,-400 400,-400zm0 200c-110,0 -200,90 -200,200 0,111 89,200 200,200 110,0 200,-90 200,-200 0,-111 -89,-200 -200,-200zm892 1299c221,0 400,179 400,400 0,221 -179,400 -400,400 -220,0 -400,-179 -400,-400 0,-221 179,-400 400,-400zm0 200c-110,0 -200,90 -200,200 0,111 89,200 200,200 111,0 200,-89 200,-200 0,-110 -89,-200 -200,-200zm-1779 0c-110,0 -200,90 -200,200 0,111 89,200 200,200 110,0 200,-89 200,-200 0,-111 -89,-200 -200,-200z"/>
</svg>