<?xml version="1.0" encoding="UTF-8"?>
<!DOCTYPE svg PUBLIC "-//W3C//DTD SVG 1.1//EN" "http://www.w3.org/Graphics/SVG/1.1/DTD/svg11.dtd">
<svg xmlns="http://www.w3.org/2000/svg" xml:space="preserve" width="580px" height="580px" shape-rendering="geometricPrecision" text-rendering="geometricPrecision" image-rendering="optimizeQuality" fill-rule="nonzero" clip-rule="nonzero" viewBox="0 0 5800 5800" xmlns:xlink="http://www.w3.org/1999/xlink">
	<title>lollipop icon</title>
	<desc>lollipop icon from the IconExperience.com I-Collection. Copyright by INCORS GmbH (www.incors.com).</desc>
		<path id="curve28"  d="M4464 1334c184,432 175,897 13,1301 -247,613 -825,1024 -1477,1062l0 1803 -200 0 0 -1803c-184,-11 -365,-52 -535,-120 -871,-351 -1292,-1341 -942,-2212 351,-871 1341,-1292 2212,-942 403,163 745,479 929,911zm-1675 648c-21,-51 3,-110 53,-131 51,-22 110,2 131,53 32,74 29,155 -2,225 -29,68 -85,127 -160,159 -75,32 -156,32 -226,6 -72,-27 -132,-81 -164,-155 -52,-123 -47,-256 3,-372 50,-114 143,-212 269,-266 126,-53 261,-53 378,-10 122,46 219,136 270,256 73,171 66,356 -4,518 -150,346 -554,518 -907,387 -166,-62 -304,-185 -377,-356 -94,-219 -85,-458 5,-665 90,-206 259,-382 486,-479 217,-93 461,-101 682,-19 516,192 686,785 477,1268 -235,544 -874,816 -1429,609 -170,-63 -322,-168 -438,-309 -171,-205 -236,-431 -236,-701 0,-359 146,-684 381,-919 57,-58 120,-110 187,-156 99,-66 206,-119 319,-158 130,-43 269,-67 413,-67 359,0 684,146 919,381 143,142 252,317 316,513 91,317 61,649 -66,943 -62,142 -140,273 -250,382 -235,235 -560,381 -919,381 -122,0 -240,-17 -351,-48 235,15 461,-27 630,-99 315,-134 571,-380 707,-695 128,-296 141,-635 9,-947l-1 -1c-112,-263 -326,-453 -582,-548 -258,-96 -558,-96 -838,24 -267,113 -483,321 -599,588 -206,476 -41,1060 469,1249 455,170 983,-55 1176,-501 58,-134 82,-280 66,-425 -8,-71 -25,-142 -52,-211l-16 -37c-18,-39 -40,-76 -65,-109 -76,-102 -179,-177 -296,-220 -354,-132 -766,43 -916,390 -69,159 -76,341 -5,508 51,118 148,204 263,247 253,94 548,-31 655,-279 49,-113 54,-242 4,-360 -30,-70 -85,-122 -156,-148 -71,-26 -153,-26 -231,7 -77,33 -134,92 -164,161 -29,67 -32,144 -2,215 9,22 27,38 49,46 24,9 52,8 78,-3 27,-11 47,-31 57,-54 9,-22 10,-46 0,-68zm-240 1477c799,189 1623,-296 1813,-1121 56,-241 53,-497 -18,-747 -147,-520 -569,-929 -1106,-1053 -241,-56 -497,-53 -747,18 -402,114 -741,392 -931,770 -169,334 -206,722 -103,1083 70,250 204,473 382,652 193,192 437,332 710,398z"/>
</svg>