<?xml version="1.0" encoding="UTF-8"?>
<!DOCTYPE svg PUBLIC "-//W3C//DTD SVG 1.1//EN" "http://www.w3.org/Graphics/SVG/1.1/DTD/svg11.dtd">
<svg xmlns="http://www.w3.org/2000/svg" xml:space="preserve" width="580px" height="580px" shape-rendering="geometricPrecision" text-rendering="geometricPrecision" image-rendering="optimizeQuality" fill-rule="nonzero" clip-rule="nonzero" viewBox="0 0 5800 5800" xmlns:xlink="http://www.w3.org/1999/xlink">
	<title>loudspeaker_network icon</title>
	<desc>loudspeaker_network icon from the IconExperience.com I-Collection. Copyright by INCORS GmbH (www.incors.com).</desc>
		<path id="curve28"  d="M1300 1801l0 -200 600 0 0 1999 -600 -1 0 -199 -100 0c-165,0 -300,-134 -300,-300l0 -1000c0,-165 135,-299 300,-299l100 0zm1600 3399l100 0 0 100 1000 0 0 200 -1000 0 0 100c-133,0 -267,0 -400,0l0 -100 -1000 0 0 -200 1000 0 0 -100 100 0 0 -900 -600 -569 0 -2261 1177 -1104c36,-35 81,-57 128,-65 151,-26 292,91 292,247l3 3352 -3 752c-1,156 -141,273 -292,247 -47,-8 -92,-30 -128,-65l-377 -353 0 719zm1100 -3250c225,139 363,384 363,650 0,266 -138,511 -363,650l0 -254c101,-101 163,-241 163,-396 0,-155 -62,-295 -163,-396l0 -254zm0 -620c553,174 931,688 931,1270 0,582 -378,1096 -931,1270l0 -211c439,-166 731,-587 731,-1059 0,-472 -292,-893 -731,-1059l0 -211zm0 -588c873,187 1500,962 1500,1858 0,896 -627,1671 -1500,1858l0 -205c761,-184 1300,-867 1300,-1653 0,-786 -539,-1469 -1300,-1653l0 -205z"/>
</svg>