<?xml version="1.0" encoding="UTF-8"?>
<!DOCTYPE svg PUBLIC "-//W3C//DTD SVG 1.1//EN" "http://www.w3.org/Graphics/SVG/1.1/DTD/svg11.dtd">
<svg xmlns="http://www.w3.org/2000/svg" xml:space="preserve" width="580px" height="580px" shape-rendering="geometricPrecision" text-rendering="geometricPrecision" image-rendering="optimizeQuality" fill-rule="nonzero" clip-rule="nonzero" viewBox="0 0 5800 5800" xmlns:xlink="http://www.w3.org/1999/xlink">
	<title>loudspeaker icon</title>
	<desc>loudspeaker icon from the IconExperience.com I-Collection. Copyright by INCORS GmbH (www.incors.com).</desc>
		<path id="curve28"  d="M900 1900l0 -200 800 0 0 2400 -800 0 0 -200 -100 0c-165,0 -300,-135 -300,-300l0 -1400c0,-165 135,-300 300,-300l100 0zm1000 -331l1179 -1105c74,-69 177,-87 270,-47 92,40 151,129 151,229l0 4508c0,155 -141,273 -293,247 -47,-9 -91,-30 -128,-65l-1179 -1105 0 -2662z"/>
</svg>