<?xml version="1.0" encoding="UTF-8"?>
<!DOCTYPE svg PUBLIC "-//W3C//DTD SVG 1.1//EN" "http://www.w3.org/Graphics/SVG/1.1/DTD/svg11.dtd">
<svg xmlns="http://www.w3.org/2000/svg" xml:space="preserve" width="580px" height="580px" shape-rendering="geometricPrecision" text-rendering="geometricPrecision" image-rendering="optimizeQuality" fill-rule="nonzero" clip-rule="nonzero" viewBox="0 0 5800 5800" xmlns:xlink="http://www.w3.org/1999/xlink">
	<title>loudspeaker_box icon</title>
	<desc>loudspeaker_box icon from the IconExperience.com I-Collection. Copyright by INCORS GmbH (www.incors.com).</desc>
		<path id="curve28"  d="M4700 300l0 5200 -3600 0 0 -5200 3600 0zm-1800 500c-387,0 -700,313 -700,700 0,387 313,700 700,700 387,0 700,-313 700,-700 0,-387 -313,-700 -700,-700zm2 1800c-662,0 -1199,537 -1199,1200 0,663 537,1200 1199,1200 663,0 1200,-537 1200,-1200 0,-663 -537,-1200 -1200,-1200zm0 600c332,0 600,269 600,600 0,331 -268,600 -600,600 -331,0 -600,-269 -600,-600 0,-331 269,-600 600,-600zm-2 -2000c166,0 300,134 300,300 0,166 -134,300 -300,300 -166,0 -300,-134 -300,-300 0,-166 134,-300 300,-300z"/>
</svg>