<?xml version="1.0" encoding="UTF-8"?>
<!DOCTYPE svg PUBLIC "-//W3C//DTD SVG 1.1//EN" "http://www.w3.org/Graphics/SVG/1.1/DTD/svg11.dtd">
<svg xmlns="http://www.w3.org/2000/svg" xml:space="preserve" width="580px" height="580px" shape-rendering="geometricPrecision" text-rendering="geometricPrecision" image-rendering="optimizeQuality" fill-rule="nonzero" clip-rule="nonzero" viewBox="0 0 5800 5800" xmlns:xlink="http://www.w3.org/1999/xlink">
	<title>loudspeaker_box icon</title>
	<desc>loudspeaker_box icon from the IconExperience.com I-Collection. Copyright by INCORS GmbH (www.incors.com).</desc>
		<path id="curve28" d="M2900 1100c221,0 400,179 400,400 0,221 -179,400 -400,400 -221,0 -400,-179 -400,-400 0,-221 179,-400 400,-400zm0 200c-110,0 -200,90 -200,200 0,110 90,200 200,200 110,0 200,-90 200,-200 0,-110 -90,-200 -200,-200zm2 1800c387,0 700,313 700,700 0,387 -313,700 -700,700 -386,0 -700,-313 -700,-700 0,-387 314,-700 700,-700zm0 200c-276,0 -500,224 -500,500 0,276 224,500 500,500 277,0 500,-224 500,-500 0,-276 -223,-500 -500,-500zm0 -800c718,0 1300,582 1300,1300 0,718 -582,1300 -1300,1300 -717,0 -1300,-582 -1300,-1300 0,-718 583,-1300 1300,-1300zm0 200c-607,0 -1099,492 -1099,1100 0,608 492,1100 1099,1100 608,0 1100,-492 1100,-1100 0,-608 -492,-1100 -1100,-1100zm-2 -2000c442,0 800,358 800,800 0,442 -358,800 -800,800 -442,0 -800,-358 -800,-800 0,-442 358,-800 800,-800zm0 200c-331,0 -600,269 -600,600 0,331 269,600 600,600 331,0 600,-269 600,-600 0,-331 -269,-600 -600,-600zm1800 -600l0 5200 -3600 0 0 -5200 3600 0zm-200 200l-3200 0 0 4800 3200 0 0 -4800z"/>
</svg>