<?xml version="1.0" encoding="UTF-8"?>
<!DOCTYPE svg PUBLIC "-//W3C//DTD SVG 1.1//EN" "http://www.w3.org/Graphics/SVG/1.1/DTD/svg11.dtd">
<svg xmlns="http://www.w3.org/2000/svg" xml:space="preserve" width="580px" height="580px" shape-rendering="geometricPrecision" text-rendering="geometricPrecision" image-rendering="optimizeQuality" fill-rule="nonzero" clip-rule="nonzero" viewBox="0 0 5800 5800" xmlns:xlink="http://www.w3.org/1999/xlink">
	<title>loudspeaker4 icon</title>
	<desc>loudspeaker4 icon from the IconExperience.com I-Collection. Copyright by INCORS GmbH (www.incors.com).</desc>
		<path id="curve28"  d="M900 1900l0 -200 800 0 0 2400 -800 0 0 -200 -100 0c-165,0 -300,-135 -300,-300l0 -1400c0,-165 135,-300 300,-300l100 0zm1000 -331l1179 -1105c74,-69 177,-87 270,-47 92,40 151,129 151,229l0 4508c0,155 -141,273 -293,247 -47,-9 -91,-30 -128,-65l-1179 -1105 0 -2662zm1900 -647c976,147 1700,989 1700,1978 0,989 -724,1831 -1700,1978l0 -203c865,-145 1500,-896 1500,-1775 0,-879 -636,-1630 -1500,-1775l0 -203zm0 610c641,140 1100,710 1100,1368 0,658 -459,1228 -1100,1368l0 -206c529,-136 900,-614 900,-1162 0,-548 -371,-1026 -900,-1162l0 -206zm0 626c301,122 500,415 500,742 0,327 -199,620 -500,742l0 -222c185,-108 300,-305 300,-520 0,-215 -115,-413 -300,-520l0 -222z"/>
</svg>