<?xml version="1.0" encoding="UTF-8"?>
<!DOCTYPE svg PUBLIC "-//W3C//DTD SVG 1.1//EN" "http://www.w3.org/Graphics/SVG/1.1/DTD/svg11.dtd">
<svg xmlns="http://www.w3.org/2000/svg" xml:space="preserve" width="580px" height="580px" shape-rendering="geometricPrecision" text-rendering="geometricPrecision" image-rendering="optimizeQuality" fill-rule="nonzero" clip-rule="nonzero" viewBox="0 0 5800 5800" xmlns:xlink="http://www.w3.org/1999/xlink">
	<title>loudspeaker_network icon</title>
	<desc>loudspeaker_network icon from the IconExperience.com I-Collection. Copyright by INCORS GmbH (www.incors.com).</desc>
		<path id="curve28"  d="M4000 742c873,187 1500,962 1500,1858 0,896 -627,1671 -1500,1858l0 -205c761,-184 1300,-867 1300,-1653 0,-786 -539,-1469 -1300,-1653l0 -205zm-1100 4458l100 0 0 100 1000 0 0 200 -1000 0 0 100c-133,0 -267,0 -400,0l0 -100 -1000 0 0 -200 1000 0 0 -100 100 0 0 -900 7 0 -747 -700 -660 -1 0 -199 -100 0c-165,0 -300,-134 -300,-300l0 -1000c0,-82 34,-157 89,-212 54,-54 128,-87 211,-87l100 0 0 -200 660 0 1317 -1235c36,-35 81,-57 128,-65 151,-26 292,91 292,247l3 3352 -3 752c-1,156 -141,273 -292,247 -47,-8 -92,-30 -128,-65l-377 -353 0 719zm-800 -3456l0 1713 1313 1232c8,7 17,12 25,13 31,6 60,-18 60,-50l2 -752 -2 -3352c0,-33 -29,-56 -60,-50 -8,1 -17,6 -25,13l-1313 1233zm-200 1656l0 -1600 -400 0 0 200 -300 0c-27,0 -53,11 -71,30 -18,18 -29,42 -29,70l0 1000c0,55 45,100 100,100l300 0 0 200 400 0zm2100 -1450c225,139 363,384 363,650 0,266 -138,511 -363,650l0 -254c101,-101 163,-241 163,-396 0,-155 -62,-295 -163,-396l0 -254zm0 -620c553,174 931,688 931,1270 0,582 -378,1096 -931,1270l0 -211c439,-166 731,-587 731,-1059 0,-472 -292,-893 -731,-1059l0 -211z"/>
</svg>