<?xml version="1.0" encoding="UTF-8"?>
<!DOCTYPE svg PUBLIC "-//W3C//DTD SVG 1.1//EN" "http://www.w3.org/Graphics/SVG/1.1/DTD/svg11.dtd">
<svg xmlns="http://www.w3.org/2000/svg" xml:space="preserve" width="580px" height="580px" shape-rendering="geometricPrecision" text-rendering="geometricPrecision" image-rendering="optimizeQuality" fill-rule="nonzero" clip-rule="nonzero" viewBox="0 0 5800 5800" xmlns:xlink="http://www.w3.org/1999/xlink">
	<title>magazine_folder icon</title>
	<desc>magazine_folder icon from the IconExperience.com I-Collection. Copyright by INCORS GmbH (www.incors.com).</desc>
		<path id="curve29" d="M4900 300l0 1200 -200 0 0 -1000 -3000 0 0 3200 -200 0 0 -3200 -400 0 0 3200 -200 0 0 -3400 4000 0zm-800 800l0 403c-71,5 -138,17 -200,35l0 -238 -1400 0 0 1000 652 0c-31,66 -61,133 -90,200l-662 0 -100 0 0 -100 0 -1300 1800 0z"/>
	<path id="curve28" d="M1983 3900c720,0 966,-600 1194,-1156 222,-540 429,-1044 1006,-1044l917 0 0 3800 -4400 0 0 -1600 1283 0zm1379 -1080c-253,616 -526,1280 -1379,1280l-1083 0 0 1200 4000 0 0 -3400 -717 0c-443,0 -626,444 -821,920z"/>
</svg>