<?xml version="1.0" encoding="UTF-8"?>
<!DOCTYPE svg PUBLIC "-//W3C//DTD SVG 1.1//EN" "http://www.w3.org/Graphics/SVG/1.1/DTD/svg11.dtd">
<svg xmlns="http://www.w3.org/2000/svg" xml:space="preserve" width="580px" height="580px" shape-rendering="geometricPrecision" text-rendering="geometricPrecision" image-rendering="optimizeQuality" fill-rule="nonzero" clip-rule="nonzero" viewBox="0 0 5800 5800" xmlns:xlink="http://www.w3.org/1999/xlink">
	<title>magazine_folder icon</title>
	<desc>magazine_folder icon from the IconExperience.com I-Collection. Copyright by INCORS GmbH (www.incors.com).</desc>
		<path id="curve29"  d="M1500 300l0 3400 -600 0 0 -3400 600 0zm200 3400l0 -3400 3200 0 0 1200 -800 0 0 -400 -1800 0 0 1400 762 0c-53,125 -103,250 -154,369 -95,221 -217,482 -399,645 -151,136 -325,186 -526,186l-283 0zm2200 -2400l-1400 0 0 1000 652 0c166,-346 381,-657 748,-762l0 -238z"/>
	<path id="curve28"  d="M1983 3900c720,0 966,-600 1194,-1156 222,-540 429,-1044 1006,-1044l917 0 0 3800 -4400 0 0 -1600 1283 0z"/>
</svg>