<?xml version="1.0" encoding="UTF-8"?>
<!DOCTYPE svg PUBLIC "-//W3C//DTD SVG 1.1//EN" "http://www.w3.org/Graphics/SVG/1.1/DTD/svg11.dtd">
<svg xmlns="http://www.w3.org/2000/svg" xml:space="preserve" width="580px" height="580px" shape-rendering="geometricPrecision" text-rendering="geometricPrecision" image-rendering="optimizeQuality" fill-rule="nonzero" clip-rule="nonzero" viewBox="0 0 5800 5800" xmlns:xlink="http://www.w3.org/1999/xlink">
	<title>magician icon</title>
	<desc>magician icon from the IconExperience.com I-Collection. Copyright by INCORS GmbH (www.incors.com).</desc>
		<path id="curve28" d="M1547 1984l-55 -84c-30,-46 -17,-108 29,-138l167 -110c47,-30 109,-17 139,29l54 84c10,15 13,18 19,35l2000 0c3,-2 50,-78 56,-88 29,-46 91,-60 138,-31l168 106c47,29 61,91 31,138l-53 84c-37,59 -86,106 -144,139 -58,33 -123,51 -193,52l-2005 0c-88,0 -161,-30 -225,-77 -52,-40 -92,-88 -126,-139zm339 -484c-30,-407 -104,-620 -148,-1009 -6,-50 7,-96 40,-134 32,-37 74,-57 122,-57l2000 0c48,0 90,20 122,57 33,38 46,84 40,134 -44,389 -118,602 -148,1009l-2028 0zm1866 963c5,-20 12,-41 19,-63l214 0c-11,29 -23,58 -32,87 21,97 15,203 -19,297 -31,84 -84,159 -159,211l-7 26c-40,162 -83,335 -196,469 -1,33 -3,67 -6,102 -9,117 -20,250 41,286 94,61 166,83 251,110 57,18 112,36 168,58 69,26 149,56 221,99 63,30 124,65 168,110 188,190 285,481 285,746 0,107 -109,193 -277,260 -82,46 -182,84 -295,114 -381,103 -914,136 -1228,136 -314,0 -847,-33 -1228,-136 -113,-30 -213,-68 -295,-114 -168,-67 -277,-153 -277,-260 0,-265 97,-556 285,-746 44,-45 105,-80 168,-110 70,-42 148,-72 216,-97 53,-24 117,-43 173,-60 85,-27 157,-49 251,-110 61,-36 50,-182 41,-304 -2,-29 -5,-57 -6,-83 -112,-134 -156,-309 -197,-476l-6 -20c-75,-52 -128,-127 -158,-211 -35,-95 -41,-202 -19,-299 -6,-23 -11,-47 -15,-70l-3 -15 204 0c4,21 9,42 14,63 4,18 3,36 -2,53 -18,64 -15,136 8,200 20,54 54,100 104,126 27,14 45,39 51,67 11,40 13,49 15,58 39,154 80,318 175,415 19,19 28,44 28,70 0,32 3,69 6,108 13,176 29,387 -133,486 1,3 -89,52 -98,57 161,328 281,898 322,1195 141,9 271,13 376,13 105,0 235,-4 376,-13 41,-297 161,-867 322,-1195 -9,-5 -94,-55 -94,-54 -166,-99 -151,-297 -137,-472 3,-47 7,-91 6,-123 -1,-28 10,-53 28,-72 96,-99 136,-259 173,-409 5,-18 10,-37 18,-68 7,-28 26,-51 50,-63 50,-26 85,-72 104,-126 24,-64 26,-138 8,-203 -5,-17 -5,-34 -2,-50zm-852 1585c43,0 83,17 112,46l271 -94c26,-9 52,-5 74,12 22,16 34,40 34,69l0 274c0,29 -12,53 -34,70 -22,16 -48,20 -74,11l-271 -94c-29,29 -69,46 -112,46 -43,0 -83,-17 -112,-46l-271 94c-26,9 -52,5 -74,-11 -22,-17 -34,-41 -34,-70l0 -274c0,-28 12,-53 34,-69 22,-17 48,-21 74,-12l271 94c29,-29 69,-46 112,-46z"/>
</svg>