<?xml version="1.0" encoding="UTF-8"?>
<!DOCTYPE svg PUBLIC "-//W3C//DTD SVG 1.1//EN" "http://www.w3.org/Graphics/SVG/1.1/DTD/svg11.dtd">
<svg xmlns="http://www.w3.org/2000/svg" xml:space="preserve" width="580px" height="580px" shape-rendering="geometricPrecision" text-rendering="geometricPrecision" image-rendering="optimizeQuality" fill-rule="nonzero" clip-rule="nonzero" viewBox="0 0 5800 5800" xmlns:xlink="http://www.w3.org/1999/xlink">
	<title>magician icon</title>
	<desc>magician icon from the IconExperience.com I-Collection. Copyright by INCORS GmbH (www.incors.com).</desc>
		<path id="curve28"  d="M1547 1984l-55 -84c-30,-46 -17,-108 29,-138l167 -110c47,-30 109,-17 139,29l54 84c10,15 13,18 19,35l2000 0c3,-2 50,-78 56,-88 29,-46 91,-60 138,-31l168 106c47,29 61,91 31,138l-53 84c-74,117 -197,190 -337,191l-2005 0c-155,-1 -270,-92 -351,-216zm2438 416l-3 6c-11,29 -22,58 -29,81 40,184 -18,399 -178,508l-7 26c-40,162 -83,335 -196,469 -1,33 -3,67 -6,102 -9,117 -20,250 39,285 83,54 160,82 253,111 119,37 286,96 389,157 63,30 124,65 168,110 188,190 285,481 285,746 0,107 -109,193 -277,260 -82,46 -182,84 -295,114 -381,103 -914,136 -1228,136 -314,0 -847,-33 -1228,-136 -113,-30 -213,-68 -295,-114 -168,-67 -277,-153 -277,-260 0,-265 97,-556 285,-746 44,-45 105,-80 168,-110 103,-62 270,-120 389,-157 85,-27 157,-49 249,-109 72,-40 48,-236 43,-305 -2,-29 -5,-57 -6,-83 -112,-134 -156,-309 -197,-476l-6 -20c-160,-110 -218,-327 -177,-510 -6,-23 -11,-47 -15,-70l-3 -15 2155 0zm-625 1375c-141,69 -304,100 -460,100 -157,0 -320,-32 -461,-101 -14,190 -90,255 -237,329 161,328 281,898 322,1195 141,9 271,13 376,13 105,0 235,-4 376,-13 41,-297 161,-867 322,-1195 -146,-74 -227,-139 -238,-328zm-1474 -2275c-30,-407 -104,-620 -148,-1009 -12,-99 60,-191 162,-191l2000 0c102,0 174,92 162,191 -44,389 -118,602 -148,1009l-2028 0zm1014 2548c43,0 83,17 112,46l271 -94c55,-19 108,24 108,81l0 274c0,57 -53,100 -108,81l-271 -94c-29,29 -69,46 -112,46 -43,0 -83,-17 -112,-46l-271 94c-55,19 -108,-24 -108,-81l0 -274c0,-57 53,-100 108,-81l271 94c29,-29 69,-46 112,-46z"/>
</svg>