<?xml version="1.0" encoding="UTF-8"?>
<!DOCTYPE svg PUBLIC "-//W3C//DTD SVG 1.1//EN" "http://www.w3.org/Graphics/SVG/1.1/DTD/svg11.dtd">
<svg xmlns="http://www.w3.org/2000/svg" xml:space="preserve" width="580px" height="580px" shape-rendering="geometricPrecision" text-rendering="geometricPrecision" image-rendering="optimizeQuality" fill-rule="nonzero" clip-rule="nonzero" viewBox="0 0 5800 5800" xmlns:xlink="http://www.w3.org/1999/xlink">
	<title>magnet icon</title>
	<desc>magnet icon from the IconExperience.com I-Collection. Copyright by INCORS GmbH (www.incors.com).</desc>
		<path id="curve28"  d="M2100 2700c0,600 0,1200 0,1800l-1600 0 0 -1800c0,-663 269,-1263 703,-1697 434,-434 1034,-703 1697,-703 663,0 1263,269 1697,703 434,434 703,1034 703,1697l0 1800 -1600 0 0 -1800c0,-442 -358,-800 -800,-800 -442,0 -800,358 -800,800zm0 2000l0 800c-534,0 -1067,0 -1600,0l0 -800 1600 0zm3200 0l0 800 -1600 0 0 -800 1600 0z"/>
</svg>