<?xml version="1.0" encoding="UTF-8"?>
<!DOCTYPE svg PUBLIC "-//W3C//DTD SVG 1.1//EN" "http://www.w3.org/Graphics/SVG/1.1/DTD/svg11.dtd">
<svg xmlns="http://www.w3.org/2000/svg" xml:space="preserve" width="580px" height="580px" shape-rendering="geometricPrecision" text-rendering="geometricPrecision" image-rendering="optimizeQuality" fill-rule="nonzero" clip-rule="nonzero" viewBox="0 0 5800 5800" xmlns:xlink="http://www.w3.org/1999/xlink">
	<title>magnet icon</title>
	<desc>magnet icon from the IconExperience.com I-Collection. Copyright by INCORS GmbH (www.incors.com).</desc>
		<path id="curve28"  d="M700 4500l1200 0c0,-600 0,-1200 0,-1800 0,-552 448,-1000 1000,-1000 552,0 1000,448 1000,1000l0 1800 1200 0 0 -1800c0,-1215 -985,-2200 -2200,-2200 -1215,0 -2200,985 -2200,2200l0 1800zm1200 200l-1200 0 0 600 1200 0 0 -600zm3200 0l-1200 0 0 600 1200 0 0 -600zm-3000 -2000c0,933 0,1867 0,2800l-1600 0 0 -2800c0,-1325 1075,-2400 2400,-2400 1325,0 2400,1075 2400,2400l0 2800 -1600 0 0 -2800c0,-442 -358,-800 -800,-800 -442,0 -800,358 -800,800z"/>
</svg>