<?xml version="1.0" encoding="UTF-8"?>
<!DOCTYPE svg PUBLIC "-//W3C//DTD SVG 1.1//EN" "http://www.w3.org/Graphics/SVG/1.1/DTD/svg11.dtd">
<svg xmlns="http://www.w3.org/2000/svg" xml:space="preserve" width="580px" height="580px" shape-rendering="geometricPrecision" text-rendering="geometricPrecision" image-rendering="optimizeQuality" fill-rule="nonzero" clip-rule="nonzero" viewBox="0 0 5800 5800" xmlns:xlink="http://www.w3.org/1999/xlink">
	<title>mail_cloud icon</title>
	<desc>mail_cloud icon from the IconExperience.com I-Collection. Copyright by INCORS GmbH (www.incors.com).</desc>
		<path id="curve28"  d="M4499 2700l0 109 -2013 1647c-51,42 -120,42 -171,0l-2014 -1647 -1 -109 4199 0zm0 302l0 2278 -1454 -1023 1363 -1115c49,-40 70,-83 91,-140zm-34 2498l-4130 0 1581 -1112 273 223c124,101 299,101 423,0l273 -223 1580 1112zm-4165 -219l0 -2282c25,59 39,98 91,142l1365 1116 -1456 1024zm4400 -2781l-3794 0c18,-208 84,-384 188,-529 116,-163 281,-284 480,-361 -1,-20 -1,-41 -1,-61 0,-649 420,-1185 1083,-1244 40,-3 79,-5 120,-5 435,0 734,205 986,544 326,-103 685,-53 947,173 284,244 363,612 295,970 340,171 496,436 496,818 0,456 -337,861 -800,893l0 -1198z"/>
</svg>