<?xml version="1.0" encoding="utf-8"?>
<!-- Generator: Adobe Illustrator 19.2.1, SVG Export Plug-In . SVG Version: 6.00 Build 0)  -->
<svg version="1.1" id="Ebene_1" xmlns="http://www.w3.org/2000/svg" xmlns:xlink="http://www.w3.org/1999/xlink" x="0px" y="0px"
	 width="580px" height="580px" viewBox="0 0 580 580" style="enable-background:new 0 0 580 580;" xml:space="preserve">
<g>
	<path d="M30,108V98h480v8.7c0,2.7-1.2,4.7-3.3,6.4L346.8,242h31.8L510,135.9V242h20V78H10c0,113,0,227,0,340h201v-20H39.4
		l169.9-117.5l1.7,1.4v-25.5L32.9,112.9C31.3,111.6,30,110.1,30,108z M30,380.6V136.1l163.3,131.4L30,380.6z"/>
	<path d="M251,282v220h320V282H251z M551,482H271V302h280V482z"/>
	<rect x="383" y="333" width="53" height="119"/>
	<rect x="464" y="333" width="32" height="119"/>
	<rect x="301" y="333" width="53" height="119"/>
</g>
</svg>
