<?xml version="1.0" encoding="UTF-8"?>
<!DOCTYPE svg PUBLIC "-//W3C//DTD SVG 1.1//EN" "http://www.w3.org/Graphics/SVG/1.1/DTD/svg11.dtd">
<svg xmlns="http://www.w3.org/2000/svg" xml:space="preserve" width="580px" height="580px" shape-rendering="geometricPrecision" text-rendering="geometricPrecision" image-rendering="optimizeQuality" fill-rule="nonzero" clip-rule="nonzero" viewBox="0 0 5800 5800" xmlns:xlink="http://www.w3.org/1999/xlink">
	<title>mail_earth icon</title>
	<desc>mail_earth icon from the IconExperience.com I-Collection. Copyright by INCORS GmbH (www.incors.com).</desc>
		<path id="curve29" d="M4181 5300l-1296 -912 -273 223c-62,51 -137,76 -212,76 -74,0 -149,-25 -211,-76l-273 -223 -1296 912 3561 0zm-3681 -160l1256 -883 -1256 -1027 0 1910zm1 -2240l0 51c0,16 6,26 18,36l1796 1469c26,21 56,31 85,31 30,0 60,-10 86,-31l1796 -1469c9,-7 15,-15 17,-26l0 -61 -3798 0zm3998 2600l-4199 0 0 -2800 4199 0c0,933 0,1867 0,2800zm-200 -2269l-1254 1026 1254 882 0 -1908z"/>
	<path id="curve28" d="M5421 1767c46,169 70,345 70,527 0,650 -310,1227 -791,1591l0 -259c22,-20 44,-41 66,-63 325,-324 525,-773 525,-1269 0,-109 -9,-216 -28,-319 -9,40 -27,113 -145,192 -55,74 104,155 1,288 -56,70 -127,164 -161,247 -17,41 -22,70 -17,113 17,157 -31,197 -104,326 -47,83 -85,150 -137,220l0 -761c0,-55 -45,-100 -100,-100l-527 0c-23,-36 -47,-56 -106,-36 -27,9 -60,23 -96,36l-258 0c-118,-68 -223,-191 -249,-321 -7,-34 18,-191 22,-243 4,-62 32,-121 68,-171 14,-20 31,-38 48,-55 19,-18 93,-77 102,-93 28,-50 69,-123 128,-139 -30,-5 -60,-16 -85,-28 -78,-37 -69,-167 -40,-232 38,-83 111,-120 200,-120 36,0 70,2 104,-7 22,-6 71,-61 98,-78 40,-27 -48,-91 -12,-163 32,-63 117,-69 173,-96 32,-16 70,-59 111,-75 -7,-4 -14,-7 -21,-10 -173,-82 -362,-137 -561,-159 -5,15 -17,29 -40,43 -66,38 -70,104 -199,151 -106,39 -206,12 -316,71 -61,32 -158,117 -215,130 -15,3 -31,3 -43,-8 -32,-29 0,-110 11,-144 6,-15 32,-88 28,-101 -16,-21 -118,-6 -161,2 -55,25 -108,52 -160,82 33,19 92,39 94,58 5,55 -107,44 -127,142 -4,18 25,87 32,106 31,85 18,224 -88,189 -41,-13 -59,-68 -101,-46 -42,23 -16,142 -71,150 -110,15 -187,103 -269,168 -35,28 -60,169 -133,221 -26,18 -162,106 -187,134 -9,39 -18,77 -25,117 1,8 1,17 2,25 7,55 28,110 54,159 13,24 39,69 59,87 50,44 102,-26 175,-3 55,17 96,47 137,86 74,70 173,116 233,171l-582 0c0,-20 1,-39 3,-58 0,-30 -87,-160 -105,-186l-3 -5c-1,14 -1,29 -1,43 0,70 4,138 12,206l-202 0c-6,-68 -10,-136 -10,-206 0,-1102 893,-1995 1995,-1995 303,0 591,68 849,189 529,249 922,718 1076,1279zm-1136 -467c20,24 45,40 72,56 24,15 56,32 63,61 6,25 -10,48 -29,63 -46,38 -105,24 -79,-44 8,-21 -130,-80 -146,-88 -48,-25 -89,-83 -150,-54 -74,35 -107,156 -186,181 47,-1 91,-11 136,-27 44,-15 179,-26 222,-11 148,51 94,205 223,226 18,3 54,0 73,0 21,-1 59,-3 79,0 72,13 125,44 196,9 34,-17 50,-81 23,-110 -81,-88 -277,-35 -317,-82 -22,-24 -43,-65 -59,-93 -27,-46 -54,-108 -121,-87z"/>
</svg>