<?xml version="1.0" encoding="UTF-8"?>
<!DOCTYPE svg PUBLIC "-//W3C//DTD SVG 1.1//EN" "http://www.w3.org/Graphics/SVG/1.1/DTD/svg11.dtd">
<svg xmlns="http://www.w3.org/2000/svg" xml:space="preserve" width="580px" height="580px" shape-rendering="geometricPrecision" text-rendering="geometricPrecision" image-rendering="optimizeQuality" fill-rule="nonzero" clip-rule="nonzero" viewBox="0 0 5800 5800" xmlns:xlink="http://www.w3.org/1999/xlink">
	<title>mail_write icon</title>
	<desc>mail_write icon from the IconExperience.com I-Collection. Copyright by INCORS GmbH (www.incors.com).</desc>
		<path id="curve30" d="M5300 2031c0,-21 -11,-35 -28,-47l-307 -225 143 -142 282 206c68,50 110,123 110,208 0,1156 -1,2313 -1,3469l-5200 0c1,-1156 1,-2312 1,-3469 0,-85 42,-158 110,-208l490 -358 0 247 -372 272c-17,12 -28,26 -28,47l0 186c0,27 10,45 31,62l1885 1518 141 -98c208,-144 475,-144 683,0l143 98 1886 -1518c21,-17 31,-35 31,-62l0 -186zm-4801 479l0 2616 1746 -1211 -1746 -1405zm3055 1406l1745 1209 1 -2615 -1746 1406zm-2956 1384l4604 0 -2075 -1437c-140,-97 -316,-97 -456,0l-2073 1437zm3131 -4445l-702 -514c-75,-54 -179,-54 -254,0l-764 559 -337 0 983 -720c145,-106 345,-106 490,0l727 532 -143 143z"/>
	<path id="curve29" d="M1100 2481l0 -1281 0 -100 100 0 2284 0 -200 200 -1984 0 0 1342 -200 -161zm3600 -457l0 457 -200 161 0 -418 200 -200z"/>
	<path id="curve28" d="M2752 2765l137 137 588 -221 1782 -1781 -505 -504 -1781 1781 -221 588zm2073 -2582l646 646c39,39 39,103 0,142l-1867 1866c-10,10 -22,18 -36,23l-1033 388c-22,8 -46,8 -70,0 -51,-20 -78,-77 -58,-129l384 -1025c5,-16 13,-31 26,-44l1866 -1867c40,-39 103,-39 142,0z"/>
</svg>