<?xml version="1.0" encoding="UTF-8"?>
<!DOCTYPE svg PUBLIC "-//W3C//DTD SVG 1.1//EN" "http://www.w3.org/Graphics/SVG/1.1/DTD/svg11.dtd">
<svg xmlns="http://www.w3.org/2000/svg" xml:space="preserve" width="580px" height="580px" shape-rendering="geometricPrecision" text-rendering="geometricPrecision" image-rendering="optimizeQuality" fill-rule="nonzero" clip-rule="nonzero" viewBox="0 0 5800 5800" xmlns:xlink="http://www.w3.org/1999/xlink">
	<title>mail_open2 icon</title>
	<desc>mail_open2 icon from the IconExperience.com I-Collection. Copyright by INCORS GmbH (www.incors.com).</desc>
		<path id="curve28"  d="M3383 3797l1886 -1518c21,-17 31,-34 31,-62 0,-33 5,-189 -5,-209 -16,-28 -343,-258 -395,-296l0 -247 490 358c68,50 110,123 110,208l-1 3232 -2116 -1466zm408 -2897l-764 -559c-75,-54 -179,-54 -254,0l-764 559 -337 0 983 -720c145,-106 345,-106 490,0l983 720 -337 0zm-2891 812l-372 272c-17,12 -28,26 -28,47l0 186c0,25 12,47 31,62l1885 1518 -2117 1467c1,-1077 1,-2155 1,-3233 0,-85 42,-158 110,-208l490 -358 0 247zm4590 3788l-5180 0 2361 -1637c140,-97 316,-97 456,0l2363 1637zm-4390 -3020l0 -1380 3600 0 0 1380 -1489 1199c-193,-118 -430,-119 -623,-1l-1488 -1198z"/>
</svg>