<?xml version="1.0" encoding="UTF-8"?>
<!DOCTYPE svg PUBLIC "-//W3C//DTD SVG 1.1//EN" "http://www.w3.org/Graphics/SVG/1.1/DTD/svg11.dtd">
<svg xmlns="http://www.w3.org/2000/svg" xml:space="preserve" width="580px" height="580px" shape-rendering="geometricPrecision" text-rendering="geometricPrecision" image-rendering="optimizeQuality" fill-rule="nonzero" clip-rule="nonzero" viewBox="0 0 5800 5800" xmlns:xlink="http://www.w3.org/1999/xlink">
	<title>mail_cloud icon</title>
	<desc>mail_cloud icon from the IconExperience.com I-Collection. Copyright by INCORS GmbH (www.incors.com).</desc>
		<path id="curve29" d="M4700 3497c353,-32 600,-346 600,-692 0,-339 -142,-537 -450,-670l-78 -34 20 -82c77,-306 36,-636 -213,-851 -228,-196 -545,-219 -819,-112l-73 28 -45 -64c-219,-315 -466,-520 -866,-520 -35,0 -69,1 -102,4 -561,50 -901,499 -901,1045 0,40 2,81 5,121l7 79 -76 25c-349,112 -563,360 -602,726l-201 0c38,-422 272,-737 668,-890 -1,-20 -1,-41 -1,-61 0,-649 420,-1185 1083,-1244 40,-3 79,-5 120,-5 435,0 734,205 986,544 326,-103 685,-53 947,173 284,244 363,612 295,970 340,171 496,436 496,818 0,456 -337,861 -800,893l0 -201z"/>
	<path id="curve28" d="M4181 5300l-1296 -912 -273 223c-124,101 -299,101 -423,0l-273 -223 -1296 912 3561 0zm-3681 -160l1256 -883 -1256 -1027 0 1910zm1 -2240l0 51c0,16 6,26 18,36l1796 1469c51,42 120,42 171,0l1796 -1469c9,-7 15,-15 17,-26l0 -61 -3798 0zm3998 2600l-4199 0 0 -2800 4199 0c0,933 0,1867 0,2800zm-200 -2269l-1254 1026 1254 882 0 -1908z"/>
</svg>