<?xml version="1.0" encoding="UTF-8"?>
<!DOCTYPE svg PUBLIC "-//W3C//DTD SVG 1.1//EN" "http://www.w3.org/Graphics/SVG/1.1/DTD/svg11.dtd">
<svg xmlns="http://www.w3.org/2000/svg" xml:space="preserve" width="580px" height="580px" shape-rendering="geometricPrecision" text-rendering="geometricPrecision" image-rendering="optimizeQuality" fill-rule="nonzero" clip-rule="nonzero" viewBox="0 0 5800 5800" xmlns:xlink="http://www.w3.org/1999/xlink">
	<title>mail_into icon</title>
	<desc>mail_into icon from the IconExperience.com I-Collection. Copyright by INCORS GmbH (www.incors.com).</desc>
		<path id="curve29"  d="M3383 3797l1886 -1518c21,-17 31,-34 31,-62l0 -186c0,-21 -11,-35 -28,-47l-1872 -1370 0 -247 1990 1456c68,50 110,123 110,208l-1 3232 -2116 -1466zm-983 -3183l-1872 1370c-17,12 -28,26 -28,47l0 186c0,25 12,47 31,62l1885 1518 -171 118 -1946 1349c1,-1077 1,-2155 1,-3233 0,-85 42,-158 110,-208l1990 -1456 0 247zm3090 4886l-5180 0 2361 -1637c140,-97 316,-97 456,0l2363 1637z"/>
	<path id="curve28"  d="M3871,2171 2900,3142 1929,2171 2071,2029 2800,2759 2800,300 3000,300 3000,2759 3729,2029z"/>
</svg>