<?xml version="1.0" encoding="UTF-8"?>
<!DOCTYPE svg PUBLIC "-//W3C//DTD SVG 1.1//EN" "http://www.w3.org/Graphics/SVG/1.1/DTD/svg11.dtd">
<svg xmlns="http://www.w3.org/2000/svg" xml:space="preserve" width="580px" height="580px" shape-rendering="geometricPrecision" text-rendering="geometricPrecision" image-rendering="optimizeQuality" fill-rule="nonzero" clip-rule="nonzero" viewBox="0 0 5800 5800" xmlns:xlink="http://www.w3.org/1999/xlink">
	<title>mail_sealed icon</title>
	<desc>mail_sealed icon from the IconExperience.com I-Collection. Copyright by INCORS GmbH (www.incors.com).</desc>
		<path id="curve28" d="M2266 2879c-28,59 -64,101 -100,141 -25,30 -51,59 -63,87 -20,43 -27,87 -23,130 5,43 22,86 50,124 12,16 24,31 36,46 39,49 79,99 105,165 37,94 71,178 118,242 43,58 100,104 188,132 41,13 85,19 129,19 47,0 95,-5 142,-14 47,-9 97,-23 147,-38 31,-9 63,-18 101,-27 42,-10 69,-17 96,-23 62,-15 125,-30 179,-45 57,-16 102,-31 141,-54 37,-22 70,-51 106,-94 45,-55 69,-128 78,-205 13,-103 -1,-213 -27,-307 -19,-71 -24,-147 -29,-218 -1,-15 -2,-29 -4,-53 -3,-33 -7,-75 -15,-115 -6,-33 -15,-62 -26,-77 -42,-56 -203,-84 -336,-107 -64,-11 -122,-22 -169,-35 -45,-14 -88,-30 -133,-47 -122,-47 -254,-97 -354,-53 -75,33 -138,96 -191,169 -59,81 -106,174 -146,257zm3233 -1579c0,1132 0,2267 0,3400l-5200 0 0 -3400 5200 0zm-297 3200l-1144 -792c24,-68 39,-138 47,-210l1194 827 0 -2445 -1252 1008c-1,-12 -2,-24 -3,-34 -5,-66 -13,-133 -29,-197l1254 -1009c16,-13 27,-28 30,-49l0 -99 -4799 0 0 86c0,3 3,34 7,33 5,10 13,20 24,29l1358 1093 -2 3c-35,41 -69,80 -99,126 -7,10 -13,20 -18,31l-1271 -1023 0 2448 1243 -861c20,46 45,91 76,133 7,9 18,22 29,37l-1249 865 4604 0zm-2302 -1850c304,0 550,246 550,550 0,304 -246,550 -550,550 -304,0 -550,-246 -550,-550 0,-304 246,-550 550,-550zm0 200c-193,0 -350,157 -350,350 0,193 157,350 350,350 193,0 350,-157 350,-350 0,-193 -157,-350 -350,-350zm-884 40c27,-31 54,-63 70,-97 45,-93 97,-196 164,-288 72,-99 161,-186 274,-235 173,-76 345,-11 503,49 42,16 82,31 119,42 35,10 88,20 146,30 169,29 373,64 462,184 33,44 52,101 63,158 10,49 15,99 18,138 1,11 3,33 4,55 5,62 9,128 23,180 31,115 48,252 33,382 -13,112 -51,220 -123,309 -52,63 -102,106 -159,140 -55,32 -114,53 -188,73 -67,19 -127,33 -188,47 -36,9 -72,17 -93,23 -28,6 -61,16 -94,26 -52,14 -104,29 -166,41 -58,11 -118,18 -179,17 -64,0 -128,-8 -189,-28 -134,-43 -221,-113 -288,-204 -62,-84 -101,-181 -143,-288 -15,-37 -45,-75 -75,-112 -14,-17 -28,-35 -41,-53 -49,-67 -79,-143 -87,-221 -8,-78 4,-157 39,-234 25,-54 60,-94 95,-134z"/>
</svg>