<?xml version="1.0" encoding="utf-8"?>
<!-- Generator: Adobe Illustrator 20.1.0, SVG Export Plug-In . SVG Version: 6.00 Build 0)  -->
<svg version="1.1" id="Ebene_1" xmlns="http://www.w3.org/2000/svg" xmlns:xlink="http://www.w3.org/1999/xlink" x="0px" y="0px"
	 width="580px" height="580px" viewBox="0 0 580 580" style="enable-background:new 0 0 580 580;" xml:space="preserve">
<g>
	<path d="M344.3,351.2h-1.2C325.6,397.7,297,421,257.3,421c-27.3,0-49-9.8-64.9-29.4c-15.9-19.6-23.9-45.8-23.9-78.7
		c0-44.3,11.1-81.3,33.4-110.9s51.6-44.4,87.9-44.4c15.2,0,28.6,3.9,40.1,11.7c11.5,7.8,19.1,16.9,22.9,27.2h1.2
		c0.8-11.9,1.8-23.5,2.9-34.9h25.8l-14.9,171.1c0,42.4,14.9,63.6,44.8,63.6c24.2,0,44.2-12.2,59.9-36.6
		c15.7-24.4,23.6-55.9,23.6-94.3c0-58.4-17.7-105-53-139.7c-35.4-34.8-84.9-52.1-148.5-52.1c-62.1,0-112.7,21.3-151.9,63.9
		c-39.2,42.6-58.7,95.3-58.7,158.2c0,63.9,18.6,115,56,153.4c37.3,38.4,88.1,57.6,152.3,57.6c48.6,0,90.2-8.6,124.8-25.8V508
		c-38.3,15.4-80.9,23.1-127.7,23.1c-70.5,0-127.1-21.8-169.6-65.3c-42.6-43.6-63.9-100.3-63.9-170.2c0-70.1,23-128.8,69-175.9
		s103.6-70.8,172.7-70.8C366,48.9,421,69,462.3,109.2c41.3,40.2,62,91.3,62,153.2c0,46.3-10.5,84.3-31.5,114
		c-21,29.7-47.2,44.5-78.7,44.5C370.7,421,347.5,397.7,344.3,351.2z M288.7,181.9c-28.1,0-50.5,11.7-67.1,35.2
		c-16.6,23.4-24.9,54.6-24.9,93.5c0,26.4,5.6,47.3,16.8,62.7c11.2,15.4,26.8,23.1,46.7,23.1c26.6,0,47.7-13.6,63.4-40.7
		c15.7-27.1,23.6-61.8,23.6-104c0-22.9-5.2-40.2-15.7-52C321.2,187.8,306.8,181.9,288.7,181.9z"/>
</g>
</svg>
