<?xml version="1.0" encoding="utf-8"?>
<!-- Generator: Adobe Illustrator 19.2.1, SVG Export Plug-In . SVG Version: 6.00 Build 0)  -->
<svg version="1.1" id="mail_x5F_into_x5F_gi" xmlns="http://www.w3.org/2000/svg" xmlns:xlink="http://www.w3.org/1999/xlink"
	 x="0px" y="0px" width="580px" height="580px" viewBox="0 0 580 580" style="enable-background:new 0 0 580 580;"
	 xml:space="preserve">
<title>address_book2 icon</title>
<desc>address_book2 icon from the IconExperience.com I-Collection. Copyright by INCORS GmbH (www.incors.com).</desc>
<title>address_book2 icon</title>
<desc>address_book2 icon from the IconExperience.com I-Collection. Copyright by INCORS GmbH (www.incors.com).</desc>
<title>address_book2 icon</title>
<desc>address_book2 icon from the IconExperience.com I-Collection. Copyright by INCORS GmbH (www.incors.com).</desc>
<path id="curve28_69_" d="M530,510V310h-11.3c-14.8,0-27.1,7-34.5,19.8l-35.3,60.5c-14.7,25.1-40,39.7-69.1,39.7H200.2
	c-29.1,0-54.4-14.6-69.1-39.7l-35.3-60.5C88.4,317,76.1,310,61.3,310H50v200H530z M550,530H30V290h31.3c21.8,0,40.8,11,51.8,29.8
	l35.3,60.5c11.1,19.1,29.7,29.7,51.8,29.7h179.6c22.1,0,40.7-10.6,51.8-29.7l35.3-60.5c11-18.8,30-29.8,51.8-29.8H550V530z
	 M142.2,330h295.6l-11.7,20H153.9L142.2,330z M165.6,370h248.8c-7.6,13-19.5,20-34.6,20H200.2C185.1,390,173.2,383,165.6,370z
	 M280,255.9V50h20v205.9l81.9-82l14.2,14.2L290,294.1l-106.1-106l14.2-14.2L280,255.9z"/>
</svg>
