<?xml version="1.0" encoding="utf-8"?>
<!-- Generator: Adobe Illustrator 21.1.0, SVG Export Plug-In . SVG Version: 6.00 Build 0)  -->
<svg version="1.1" id="Ebene_1" xmlns="http://www.w3.org/2000/svg" xmlns:xlink="http://www.w3.org/1999/xlink" x="0px" y="0px"
	 width="580px" height="580px" viewBox="0 0 580 580" style="enable-background:new 0 0 580 580;" xml:space="preserve">
<g>
	<path d="M503.5,249.1v-70c0-49.6-40.4-90-90-90h-55.9l53-52.9L396.4,22l-77,77.1l77,77.1l14.2-14.2l-53-52.9h55.9
		c38.5,0,70,31.5,70,70v70H503.5z"/>
	<path d="M550.8,269.1H239.2c2.1,0.8,4.1,1.7,6.2,2.6c7.5,3.4,13.6,8.9,17.8,16l0.1,0.2c0.2,0.4,0.4,0.8,0.6,1.1h261.3l-158,131.7
		c-3.7,3.1-9.1,3.1-12.8,0l-36-30c-0.9,1.1-1.9,2.1-2.9,3.1l-0.5,0.5l0.7,0.3c7.4,3.4,13.5,9,17.6,16.2c3.9,6.8,5.6,14.5,5,22.5
		l3.2,2.7c11.2,9.3,27.2,9.3,38.4,0l18.5-15.5l116.9,108.5H293.7c-1.2,1.5-2.4,2.9-3.8,4.2c-2.7,2.6-5.6,5.2-8.7,7.8
		c-2.7,2.3-5.7,4.6-9.6,7.3c-0.3,0.2-0.7,0.5-1,0.7h280.2C550.8,455.8,550.8,362.5,550.8,269.1z M414,407.7l116.8-97.3v205.8
		L414,407.7z"/>
	<path d="M205.9,543.3l5.9-22.6c1.2-0.4,2.3-0.7,3.3-1.1c1.1-0.4,2.3-0.8,3.4-1.2l19,13.7c3.4,2.5,7.3,3.7,11.3,3.7
		c3.9,0,7.8-1.2,11.2-3.7c3.1-2.2,5.9-4.3,8.4-6.4c2.5-2.1,5.1-4.4,7.8-7c2.9-2.7,4.9-6.4,5.7-10.4c0.7-3.9,0.2-8-1.5-11.8l-10-21.1
		c0.6-1,1.2-2,1.8-3.1c0.7-1,1.2-2,1.8-3l23.4-1.7c4.2-0.3,8-1.9,11-4.5c3.1-2.5,5.3-6,6.3-10c0.8-3.2,1.6-6.6,2.2-10.3
		c0.7-3.6,1.2-7,1.6-10.4c0.4-4.1-0.4-8.1-2.4-11.6s-5-6.3-8.7-8l-21.3-9.9c-0.2-1.1-0.3-2.3-0.5-3.5c-0.2-1.2-0.4-2.4-0.7-3.5
		l16.8-16.4c3-2.9,4.9-6.5,5.6-10.4c0.7-3.9,0.2-8-1.6-11.8c-1.6-3.3-3.3-6.4-4.9-9.3c-1.6-2.8-3.5-5.7-5.6-8.9
		c-2.3-3.5-5.5-6-9.2-7.4c-3.8-1.4-7.9-1.6-11.9-0.5l-22.6,6.1c-0.9-0.8-1.8-1.6-2.7-2.3c-0.8-0.7-1.8-1.5-2.7-2.2l2.4-23.4
		c0.4-4.1-0.5-8.1-2.5-11.6c-2-3.4-5-6.2-8.8-7.9c-3.3-1.5-6.5-2.8-9.8-4c-3-1.2-6.3-2.3-9.9-3.3c-4.1-1.2-8.2-1-11.9,0.3
		c-3.7,1.3-7.1,3.9-9.4,7.2l-13.4,19.3c-1.1,0-2.3,0-3.5,0c-1.2-0.1-2.4,0-3.5,0L162.6,290c-2.3-3.5-5.6-6-9.3-7.4
		c-3.7-1.3-7.8-1.5-11.9-0.4c-3.2,0.9-6.5,2-10,3.2c-3.5,1.3-6.8,2.6-9.8,3.9c-3.8,1.7-6.9,4.5-8.9,7.9c-2,3.4-2.9,7.4-2.5,11.6
		l2.1,23.4c-0.9,0.7-1.7,1.4-2.7,2.2c-0.9,0.7-1.8,1.5-2.6,2.2l-22.6-6.4c-4-1.2-8.1-1-11.8,0.4c-3.7,1.3-7,3.8-9.4,7.3
		c-1.9,2.8-3.8,5.8-5.6,8.9c-1.8,3.1-3.5,6.2-5,9.3c-1.9,3.8-2.4,7.8-1.8,11.7c0.7,3.9,2.5,7.6,5.5,10.6L73,394.9
		c-0.3,1.1-0.5,2.2-0.7,3.4c-0.2,1.2-0.4,2.3-0.6,3.3l-21.3,9.6c-3.9,1.7-6.9,4.5-8.9,7.9c-2,3.4-2.9,7.4-2.5,11.6
		c0.4,3.7,0.8,7.2,1.4,10.5c0.6,3.3,1.3,6.7,2.2,10.3c0.9,4.1,3.1,7.6,6.1,10.2c3.1,2.6,6.9,4.2,11,4.6l23.4,1.9c0.5,1,1.1,2,1.6,3
		c0.6,0.9,1.2,1.9,1.8,2.9l-10.3,21.1c-1.8,3.8-2.3,7.9-1.7,11.7c0.3,1.5,4.4,11.8,5.6,10.5c5,4.9,10.5,9.6,16.1,13.7
		c3.4,2.5,7.3,3.8,11.3,3.8c3.9,0,7.9-1.1,11.3-3.5l19.1-13.5c1,0.4,2.1,0.8,3.2,1.2c1.1,0.4,2.2,0.8,3.2,1.1l5.8,22.8
		c1,4,3.2,7.5,6.3,10.1c3,2.5,6.8,4.1,11,4.5c3.3,0.2,6.7,0.3,10.5,0.4c3.6,0,7.1-0.1,10.5-0.3c4.2-0.3,8-1.8,11.1-4.3
		C202.5,550.8,204.8,547.4,205.9,543.3z M148.1,500.4c-1.4-0.5-3.1-1.2-4.9-2c-2.4-1-4.9-1.4-7.4-1.2c-2.5,0.3-4.9,1.2-7,2.6
		l-21.2,15c-2.5-1.9-4.8-3.7-6.8-5.4c-2-1.7-4.1-3.7-6.4-5.9l11.3-23.4c1.1-2.3,1.6-4.8,1.5-7.3c-0.2-2.4-1-4.8-2.4-7
		c-0.9-1.5-1.8-3-2.7-4.5c-0.9-1.5-1.7-3-2.5-4.6c-1.1-2.3-2.8-4.2-4.9-5.7c-2.1-1.4-4.5-2.2-7-2.5l-25.9-2.1
		c-1.3-5.7-2.3-11.4-2.9-17.2l23.7-10.6c2.4-1.1,4.4-2.7,5.8-4.7c1.5-2,2.5-4.4,2.8-6.9c0.2-2.1,0.5-3.8,0.7-5.2
		c0.3-1.7,0.7-3.4,1.1-5.1c0.6-2.6,0.6-5.1-0.1-7.5c-0.7-2.3-2-4.5-3.8-6.4l-18.4-18.3c1.3-2.7,2.7-5.3,4.1-7.6
		c1.4-2.4,2.9-4.8,4.7-7.4l24.9,7.1c2.5,0.7,5,0.7,7.5,0.2c2.4-0.6,4.6-1.8,6.5-3.6c1.5-1.4,2.8-2.5,4-3.5c1.1-1,2.5-2.1,4.1-3.2
		c2.3-1.7,4.2-4.1,5.1-6.8c0.7-2,1-4.1,0.8-6.4l-2.3-25.9c2.9-1.2,5.6-2.3,8-3.2c2.5-0.9,5.3-1.8,8.3-2.6L161,323
		c1.4,2.2,3.3,3.8,5.6,4.9c2.2,1.1,4.7,1.7,7.3,1.5c1.9-0.1,3.7-0.1,5.3-0.1s3.4,0.1,5.4,0.2c2.5,0.1,5-0.4,7.3-1.4
		c2.2-1.1,4.2-2.8,5.6-4.9l14.9-21.3c2.6,0.7,5.3,1.7,8.2,2.7c2.6,1,5.3,2.1,8,3.3l-2.7,25.8c-0.2,2.5,0.2,5,1.2,7.3
		s2.5,4.3,4.6,5.8c1.3,1,2.7,2.1,4.2,3.4c1.4,1.2,2.7,2.4,4,3.6c1.9,1.8,4.1,3.1,6.6,3.7c2.4,0.6,4.9,0.6,7.4-0.1l25-6.8
		c1.5,2.3,3,4.7,4.5,7.3c1.5,2.6,2.9,5.1,4.1,7.7l-18.6,18c-1.9,1.8-3.2,4-3.9,6.4c-0.7,2.4-0.7,5-0.2,7.4c0.5,1.8,0.8,3.6,1.1,5.3
		c0.3,1.8,0.5,3.6,0.7,5.4c0.3,2.5,1.2,4.9,2.7,7c1.5,2,3.4,3.6,5.8,4.7l23.5,10.9c-0.4,3.1-0.8,5.9-1.3,8.6c-0.4,2.4-1,5.2-1.8,8.4
		l-25.9,1.8c-2.5,0.2-4.9,1.1-7,2.4c-2.1,1.4-3.8,3.3-5,5.6c-0.8,1.6-1.6,3.2-2.5,4.7c-0.9,1.5-1.9,3.1-2.9,4.6
		c-1.5,2.2-2.3,4.6-2.5,7.1c-0.2,2.4,0.3,4.9,1.4,7.3l11,23.4c-2.1,2-4.2,3.9-6.5,5.8c-2.3,1.9-4.6,3.7-6.8,5.3l-21-15.2
		c-2.1-1.5-4.5-2.5-7-2.7c-2.5-0.3-5,0.1-7.4,1.1c-1.5,0.6-3.2,1.3-4.9,1.9c-2,0.7-3.7,1.3-5.1,1.7c-2.5,0.7-4.7,2-6.4,3.8
		c-1.8,1.8-3,4-3.7,6.5l-6.6,25c-3.1,0.2-6,0.3-8.7,0.3c-2.6-0.1-5.5-0.2-8.7-0.4l-6.3-25.2c-0.6-2.5-1.9-4.7-3.6-6.5
		s-3.9-3.1-6.4-3.9C151.4,501.6,149.7,501,148.1,500.4z"/>
	<path d="M214.2,453c9-9.1,14.6-21.6,14.6-35.4s-5.6-26.3-14.6-35.4c-9.1-9-21.6-14.6-35.4-14.6c-13.8,0-26.3,5.6-35.4,14.6
		c-9,9.1-14.6,21.6-14.6,35.4s5.6,26.3,14.6,35.4c9.1,9,21.6,14.6,35.4,14.6C192.6,467.6,205.1,462,214.2,453z M148.8,417.6
		c0-8.3,3.4-15.8,8.8-21.2c5.4-5.4,12.9-8.8,21.2-8.8c8.3,0,15.8,3.4,21.2,8.8c5.4,5.4,8.8,12.9,8.8,21.2s-3.4,15.8-8.8,21.2
		c-5.4,5.4-12.9,8.8-21.2,8.8c-8.3,0-15.8-3.4-21.2-8.8C152.2,433.4,148.8,425.9,148.8,417.6z"/>
	<path d="M200,196.1c11.2,9.3,27.2,9.3,38.4,0l18.5-15.5l72.8,67.5H359l-86.6-80.4l47.1-39.2l-14.1-14.2l-79.8,66.5
		c-3.7,3.1-9.1,3.1-12.8,0L54.8,49.1h287.4l20-20H29.2c0,93.3,0,186.7,0,280h60.9c-0.4-7,1.1-13.9,4.2-20H65.3l116.2-108.5
		L200,196.1z M49.2,276.8V70.4L166,167.7L49.2,276.8z"/>
</g>
</svg>
