<?xml version="1.0" encoding="UTF-8"?>
<!DOCTYPE svg PUBLIC "-//W3C//DTD SVG 1.1//EN" "http://www.w3.org/Graphics/SVG/1.1/DTD/svg11.dtd">
<svg xmlns="http://www.w3.org/2000/svg" xml:space="preserve" width="580px" height="580px" shape-rendering="geometricPrecision" text-rendering="geometricPrecision" image-rendering="optimizeQuality" fill-rule="nonzero" clip-rule="nonzero" viewBox="0 0 5800 5800" xmlns:xlink="http://www.w3.org/1999/xlink">
	<title>mail_bug icon</title>
	<desc>mail_bug icon from the IconExperience.com I-Collection. Copyright by INCORS GmbH (www.incors.com).</desc>
		<path id="curve29"  d="M3443 2381l-558 -393 -273 223c-124,101 -299,101 -423,0l-273 -223 -1296 912 1701 0 36 200 -2057 0 0 -2800 4199 0 0 2149c-61,-34 -128,-63 -200,-85l0 -1533 -1254 1026 656 461c-93,12 -179,34 -258,63zm-2943 359l1256 -883 -1256 -1027 0 1910zm1 -2240l0 51c0,16 6,26 18,36l1796 1469c51,42 120,42 171,0l1796 -1469c9,-7 15,-15 17,-26l0 -61 -3798 0z"/>
	<path id="curve28"  d="M3996 3742l0 1519c254,-85 477,-183 641,-324 182,-157 293,-375 293,-700 0,-158 -32,-328 -83,-482 -40,-119 -91,-227 -147,-313 -11,9 -22,18 -33,28 -43,36 -88,69 -135,96 -174,102 -354,160 -536,176zm-200 1519l0 -1520c-183,-16 -364,-75 -539,-177 -58,-34 -113,-78 -164,-122 -57,86 -107,195 -147,313 -52,154 -84,324 -84,482 0,325 112,543 294,700 164,141 387,239 640,324zm-949 -1788l-240 -224c-16,-16 -26,-35 -30,-56l-68 -381c-10,-54 27,-106 81,-115 54,-10 106,27 116,81l62 348 182 171c11,-16 23,-31 34,-46 33,-488 456,-746 912,-746 456,0 880,258 912,746 12,15 23,30 35,46l182 -171 62 -348c10,-54 61,-91 116,-81 54,9 90,61 81,115l-68 381c-4,21 -14,40 -30,56l-240 224c34,68 64,142 90,219 16,48 31,99 43,149l328 62c25,4 45,17 60,35l203 254c35,43 28,106 -15,140 -43,35 -106,28 -140,-15l-181 -225 -215 -40c7,62 11,124 11,185 0,130 -15,246 -43,350l223 157c18,13 31,30 37,49l136 380c19,52 -9,109 -61,128 -52,18 -109,-9 -127,-61l-125 -351 -157 -110c-61,120 -145,222 -246,309 -217,187 -512,303 -842,404 -19,6 -39,6 -58,0 -296,-94 -602,-198 -842,-404 -101,-87 -184,-189 -245,-309l-157 110 -125 351c-19,52 -76,79 -128,61 -52,-19 -79,-76 -61,-128l136 -380c7,-19 19,-36 37,-49l224 -157c-29,-104 -44,-220 -44,-350 0,-61 4,-123 12,-185l-216 40 -180 225c-35,43 -98,50 -140,15 -43,-34 -50,-97 -16,-140l204 -254c14,-18 35,-31 59,-35l328 -62c13,-50 28,-101 44,-149 26,-77 56,-151 90,-219zm337 -218c54,50 110,99 174,136 177,103 358,155 538,156 179,0 360,-51 536,-153 38,-22 73,-49 107,-77 22,-18 46,-40 70,-61 -31,-376 -368,-551 -713,-551 -344,0 -681,175 -712,550z"/>
</svg>