<?xml version="1.0" encoding="utf-8"?>
<!-- Generator: Adobe Illustrator 21.1.0, SVG Export Plug-In . SVG Version: 6.00 Build 0)  -->
<svg version="1.1" id="mail_x5F_to_x5F_user_x5F_gi"
	 xmlns="http://www.w3.org/2000/svg" xmlns:xlink="http://www.w3.org/1999/xlink" x="0px" y="0px" viewBox="0 0 580 580"
	 style="enable-background:new 0 0 580 580;" xml:space="preserve">
<path d="M131,307.4c-16.9-1.2-35.3-3.5-50-7.4c-13.3-3.5-23-7.4-23-11.3c0-7.2,1.4-14.7,4.2-21.6c2.5-6.4,6.2-12.2,10.9-16.8
	c3.5-3.4,10.8-6.1,16.6-8.2c3.6-1.3,7.3-2.5,10.9-3.6c7.1-2.1,13.1-3.9,21.4-9c7.7-4.4,11.9-12.5,14.2-21.5
	c0.4-1.8,3.4-21.7,2.3-21.7c0-2.6-1-5.2-3-7.1c-3.2-3.2-6.5-8.5-9.6-14.4c-3.8-7.6-7-15.9-8.6-22c-0.8-2.7-2.6-5.1-5.3-6.4
	c-2.7-1.3-4.6-3.8-5.7-6.7c-1.3-3.6-1.5-7.6-0.6-11.1c0.4-1.2,0.6-2.5,0.5-3.9l-2.3-35.3c-0.2,0,0.4-6.1,0.5-6.6
	c3.5-21.1,24.3-32.6,44.2-32.9c3.3-0.1,6.6,0.1,9.9,0.7c3.1,0.5,5.4,1.1,7.5,2.1c0.8,0.3,7.4,4.2,7.4,4.2c2.8,1.8,6.5,2.1,9.8,0.5
	c3.3-1.6,6.9-2.2,10.4-1.8c5,0.4,10.1,2.7,14.5,6.1c4.7,3.6,8.6,8.3,11.2,13.5c2.3,4.7,3.1,8.7,2.8,13.9l-2.3,35.6
	c-0.1,1.1,0,2.3,0.4,3.4c1.1,3.7,0.9,7.9-0.5,11.6c-1,2.8-2.9,5.2-5.4,6.6c-2.7,1.2-4.8,3.5-5.6,6.5c-1.6,6.1-4.7,14.4-8.6,22
	c-3,5.9-6.4,11.2-9.6,14.4c-1.9,1.9-3,4.5-3,7.3c0.2,6,0.5,13.8,2.2,21.2c2,8.6,5.9,16.5,13.5,21.3h53.5c-4.6-2.4-9.4-4.1-13.6-5.7
	c-4-1.4-7.9-2.7-12-3.9c-5.8-1.8-10.7-3.2-16.8-7.1c-3.2-1.8-4.4-5.8-5.1-9.2c-1-4.2-1.4-8.9-1.6-13.1c3.8-4.5,7.3-10.2,10.3-16.1
	c3.7-7.4,6.9-15.3,9-22c5.4-3.8,9.2-9.2,11.5-15.2c2.7-7,3.1-15,1.4-22.3l2.2-34c0.4-9-0.9-15.9-4.9-24c-3.8-7.9-9.8-15.1-16.8-20.5
	c-7.3-5.6-15.9-9.3-24.9-10.2c-5.2-0.5-10.4,0-15.6,1.7c-1.9-1.2-3.8-2.1-5.8-3c-3.5-1.6-7.3-2.7-12.3-3.5c-4.4-0.7-8.9-1-13.4-1
	c-29.8,0.6-58.5,18.8-63.6,49.7c-0.5,3.4-0.9,7.6-0.7,11.1l2.2,33.7c-1.7,7.3-1.2,15.3,1.4,22.3c2.3,6,6.1,11.4,11.5,15.2
	c2.1,6.7,5.3,14.6,9,22c3.1,5.9,6.6,11.6,10.3,16.1c-0.1,4.1-0.5,8.8-1.6,13.2c-1,4-1.9,7-5.4,9.3c-6,3.7-10.8,5.2-16.5,6.9
	c-4,1.2-8,2.4-12,3.9c-7.6,2.8-17.1,6.3-23.7,12.7c-6.8,6.6-12,14.8-15.6,23.7c-3.7,9.4-5.6,19.4-5.6,29c0,15.3,16,24.9,38,30.6
	c16.4,4.2,36.6,6.7,55,8.1V307.4z"/>
<path id="curve28_114_" d="M514.6,530L397.7,421.5L379.2,437c-11.2,9.3-27.2,9.3-38.4,0l-18.5-15.5L206.1,530H514.6z M190,517.7
	l116.8-109.1L190,311.3V517.7z M170,270h380c0,93.4,0,186.7,0,280H170C170,456.7,170,363.3,170,270z M530,311.3l-116.8,97.3
	L530,517.1V311.3z M524.4,290H195.6l158,131.7c3.7,3.1,9.1,3.1,12.8,0L524.4,290z"/>
<g>
	<path d="M482.7,250v-70c0-38.5-31.5-70-70-70h-55.9l53,52.9l-14.2,14.2l-77-77.1l77-77.1l14.2,14.2l-53,52.9h55.9
		c49.6,0,90,40.4,90,90v70H482.7z"/>
</g>
</svg>
