<?xml version="1.0" encoding="UTF-8"?>
<!DOCTYPE svg PUBLIC "-//W3C//DTD SVG 1.1//EN" "http://www.w3.org/Graphics/SVG/1.1/DTD/svg11.dtd">
<svg xmlns="http://www.w3.org/2000/svg" xml:space="preserve" width="580px" height="580px" shape-rendering="geometricPrecision" text-rendering="geometricPrecision" image-rendering="optimizeQuality" fill-rule="nonzero" clip-rule="nonzero" viewBox="0 0 5800 5800" xmlns:xlink="http://www.w3.org/1999/xlink">
	<title>mail_forward icon</title>
	<desc>mail_forward icon from the IconExperience.com I-Collection. Copyright by INCORS GmbH (www.incors.com).</desc>
		<path id="curve29"  d="M300 1062l-1 -162 5200 0 0 163 -2476 1993c-73,59 -173,59 -246,0l-2477 -1994zm2848 2149l356 -287 1986 1376 -665 0 -554 -555 -425 424 131 131 -3667 0 1986 -1376 356 287c147,118 349,118 496,0zm-2842 -1968c13,64 49,119 100,160l1728 1391 -1835 1271 0 -2828 7 6zm5193 -4l0 2825 -1833 -1270 1729 -1392c56,-46 84,-96 104,-163z"/>
	<path id="curve28"  d="M4271,4028 5041,4799 4271,5570 4129,5428 4657,4900 1900,4900 1900,4700 4660,4700 4129,4169z"/>
</svg>