<?xml version="1.0" encoding="UTF-8"?>
<!DOCTYPE svg PUBLIC "-//W3C//DTD SVG 1.1//EN" "http://www.w3.org/Graphics/SVG/1.1/DTD/svg11.dtd">
<svg xmlns="http://www.w3.org/2000/svg" xml:space="preserve" width="580px" height="580px" shape-rendering="geometricPrecision" text-rendering="geometricPrecision" image-rendering="optimizeQuality" fill-rule="nonzero" clip-rule="nonzero" viewBox="0 0 5800 5800" xmlns:xlink="http://www.w3.org/1999/xlink">
	<title>mailbox_full icon</title>
	<desc>mailbox_full icon from the IconExperience.com I-Collection. Copyright by INCORS GmbH (www.incors.com).</desc>
		<path id="curve29"  d="M1600 1500l1300 0 0 200 -607 0c377,238 607,652 607,1100l0 1900 2400 0 0 -1900c0,-235 -74,-454 -200,-633l0 -305c256,246 400,583 400,938l0 2100c-1733,0 -3466,0 -5200,0l0 -2100c0,-679 524,-1245 1200,-1296l100 -4zm-1100 1300l0 1900 2200 0 0 -1900c0,-608 -492,-1100 -1100,-1100 -608,0 -1100,492 -1100,1100zm600 1700l0 -1500 0 -100 100 0 1300 0 0 200 -1200 0 0 1400 -200 0z"/>
	<path id="curve28"  d="M3300 2100l0 620c31,-12 65,-18 100,-18 165,0 300,135 300,300 0,166 -135,300 -300,300 -166,0 -300,-134 -300,-300 0,-700 0,-1401 0,-2102l1800 0 0 1200 -1600 0zm1400 -1000l-1400 0 0 800 1400 0 0 -800zm-1300 1802c-55,0 -100,45 -100,100 0,56 45,100 100,100 56,0 100,-44 100,-100 0,-55 -44,-100 -100,-100z"/>
</svg>