<?xml version="1.0" encoding="UTF-8"?>
<!DOCTYPE svg PUBLIC "-//W3C//DTD SVG 1.1//EN" "http://www.w3.org/Graphics/SVG/1.1/DTD/svg11.dtd">
<svg xmlns="http://www.w3.org/2000/svg" xml:space="preserve" width="580px" height="580px" shape-rendering="geometricPrecision" text-rendering="geometricPrecision" image-rendering="optimizeQuality" fill-rule="nonzero" clip-rule="nonzero" viewBox="0 0 5800 5800" xmlns:xlink="http://www.w3.org/1999/xlink">
	<title>mail_write icon</title>
	<desc>mail_write icon from the IconExperience.com I-Collection. Copyright by INCORS GmbH (www.incors.com).</desc>
		<path id="curve30"  d="M3383 3797l1886 -1518c21,-17 31,-34 31,-62l0 -186c0,-21 -11,-35 -28,-47l-307 -225 143 -142 282 206c68,50 110,123 110,208l-1 3232 -2116 -1466zm346 -2942l-702 -514c-75,-54 -179,-54 -254,0l-764 559 -337 0 983 -720c145,-106 345,-106 490,0l727 532 -143 143zm-2829 857l-372 272c-17,12 -28,26 -28,47l0 186c0,25 12,47 31,62l1885 1518 -2117 1467 1 -2576c0,-219 0,-438 0,-657 0,-85 42,-158 110,-208l490 -358 0 247zm4590 3788l-5180 0 2361 -1637c140,-97 316,-97 456,0l2363 1637z"/>
	<path id="curve29"  d="M1100 2481l0 -1381 2384 0 -200 200 -1984 0 0 1342 -200 -161zm3600 -457l0 457 -200 161 0 -418 200 -200z"/>
	<path id="curve28"  d="M2752 2765l137 137 588 -221 -504 -504 -221 588zm2073 -2582l646 646c39,39 39,103 0,142l-1867 1866c-10,10 -22,18 -36,23l-1033 388c-79,29 -158,-48 -128,-129l384 -1025c5,-16 13,-31 26,-44l1866 -1867c40,-39 103,-39 142,0z"/>
</svg>