<?xml version="1.0" encoding="UTF-8"?>
<!DOCTYPE svg PUBLIC "-//W3C//DTD SVG 1.1//EN" "http://www.w3.org/Graphics/SVG/1.1/DTD/svg11.dtd">
<svg xmlns="http://www.w3.org/2000/svg" xml:space="preserve" width="580px" height="580px" shape-rendering="geometricPrecision" text-rendering="geometricPrecision" image-rendering="optimizeQuality" fill-rule="nonzero" clip-rule="nonzero" viewBox="0 0 5800 5800" xmlns:xlink="http://www.w3.org/1999/xlink">
	<title>mailbox_empty icon</title>
	<desc>mailbox_empty icon from the IconExperience.com I-Collection. Copyright by INCORS GmbH (www.incors.com).</desc>
		<path id="curve29" d="M300 2800c0,-679 524,-1245 1200,-1296l100 -4 2600 0c603,0 1127,415 1265,1000l-206 0c-134,-472 -566,-800 -1059,-800l-1907 0c377,238 607,652 607,1100l0 1900c867,0 1733,0 2600,0l0 200c-1733,0 -3466,0 -5200,0l0 -2100zm200 0l0 1900 2200 0 0 -1900c0,-608 -492,-1100 -1100,-1100 -608,0 -1100,492 -1100,1100z"/>
	<path id="curve28" d="M4300 2900l-618 0c12,32 18,66 18,102 0,83 -34,158 -88,212l0 1c-55,54 -129,87 -212,87 -83,0 -158,-33 -212,-87 -54,-55 -88,-130 -88,-213 0,-82 34,-157 88,-212 54,-54 129,-88 212,-88l0 -2 900 0 100 0 1000 0 100 0 0 100 0 1600 0 100 -100 0 -1000 0 -100 0 0 -100 0 -1500zm-829 32c-18,-18 -43,-30 -71,-30 -28,0 -53,12 -71,30 -18,18 -29,43 -29,70 0,28 11,53 29,71 18,18 43,29 71,29 28,0 53,-11 71,-29 18,-18 29,-43 29,-71 0,-27 -11,-52 -29,-70zm1829 1368l0 -1400 -800 0 0 1400 800 0z"/>
</svg>