<?xml version="1.0" encoding="UTF-8"?>
<!DOCTYPE svg PUBLIC "-//W3C//DTD SVG 1.1//EN" "http://www.w3.org/Graphics/SVG/1.1/DTD/svg11.dtd">
<svg xmlns="http://www.w3.org/2000/svg" xml:space="preserve" width="580px" height="580px" shape-rendering="geometricPrecision" text-rendering="geometricPrecision" image-rendering="optimizeQuality" fill-rule="nonzero" clip-rule="nonzero" viewBox="0 0 5800 5800" xmlns:xlink="http://www.w3.org/1999/xlink">
	<title>mail_earth icon</title>
	<desc>mail_earth icon from the IconExperience.com I-Collection. Copyright by INCORS GmbH (www.incors.com).</desc>
		<path id="curve29"  d="M4499 2700l0 109 -2013 1647c-51,42 -120,42 -171,0l-2014 -1647 -1 -109 4199 0zm0 302l0 2278 -1454 -1023 1363 -1115c49,-40 70,-83 91,-140zm-34 2498l-4130 0 1581 -1112 273 223c124,101 299,101 423,0l273 -223 1580 1112zm-4165 -219l0 -2282c25,59 39,98 91,142l1365 1116 -1456 1024z"/>
	<path id="curve28"  d="M3500 300c1105,0 2000,895 2000,2000 0,654 -314,1235 -800,1600l0 -516c18,-23 35,-46 49,-68 17,-26 180,-312 183,-321 68,-204 -105,-150 197,-538 99,-127 -69,-201 -1,-292 10,-14 74,-19 102,-66 21,-35 30,-85 41,-122 -103,-568 -473,-1044 -975,-1292 -37,17 -76,59 -107,74 -48,23 -139,34 -166,88 -33,67 67,132 5,173 -52,35 -70,72 -105,82 -85,24 -157,-19 -245,52 -92,73 -90,242 -20,276 72,35 178,53 225,-16 28,-41 97,-126 133,-143 74,-35 121,30 170,55 94,48 174,74 158,115 -30,78 83,21 71,-22 -10,-39 -88,-50 -142,-122 -17,-22 87,-42 122,7 32,46 76,134 101,162 30,34 235,-12 322,82 36,39 18,120 -29,144 -79,39 -122,9 -212,-7 -17,-3 -137,2 -154,0 -147,-25 -88,-182 -231,-231 -28,-10 -159,-7 -212,11 -228,81 -230,-61 -357,162 -15,28 -108,88 -154,153 -33,46 -61,103 -65,164 -3,40 -25,227 -22,241 25,127 129,249 246,315l-1311 0c-25,-17 -57,-37 -100,-59 -68,-36 -115,-133 -229,-168 -71,-22 -122,56 -185,0 -18,-17 -63,-79 -94,-157 -5,50 -8,101 -9,153 57,82 104,167 102,189 -2,14 -3,28 -3,42l-289 0c-7,-66 -10,-133 -10,-200 0,-1105 895,-2000 2000,-2000zm0 200c-215,0 -422,38 -613,107 21,3 37,8 44,18 27,36 -110,271 -17,249 59,-13 147,-103 249,-147 100,-43 190,-20 289,-56 134,-49 159,-129 199,-153 6,-3 11,-7 15,-10 -55,-5 -110,-8 -166,-8zm-910 247c-393,230 -691,606 -820,1054 38,-27 87,-59 133,-91 67,-47 100,-197 134,-223 88,-70 165,-160 283,-176 34,-5 14,-122 66,-150 86,-46 92,118 192,11 47,-50 -53,-201 -43,-250 22,-108 132,-105 129,-140 0,-2 -40,-16 -74,-35zm1270 1753c38,-14 76,-29 108,-40 79,-27 98,-8 124,40l-232 0z"/>
</svg>