<?xml version="1.0" encoding="UTF-8"?>
<!DOCTYPE svg PUBLIC "-//W3C//DTD SVG 1.1//EN" "http://www.w3.org/Graphics/SVG/1.1/DTD/svg11.dtd">
<svg xmlns="http://www.w3.org/2000/svg" xml:space="preserve" width="580px" height="580px" shape-rendering="geometricPrecision" text-rendering="geometricPrecision" image-rendering="optimizeQuality" fill-rule="nonzero" clip-rule="nonzero" viewBox="0 0 5800 5800" xmlns:xlink="http://www.w3.org/1999/xlink">
	<title>mail_attachment icon</title>
	<desc>mail_attachment icon from the IconExperience.com I-Collection. Copyright by INCORS GmbH (www.incors.com).</desc>
		<path id="curve29"  d="M300 1462l-1 -162 3280 0c52,0 100,21 136,55l-1746 889 485 952 -2154 -1734zm4052 -162l1147 0 0 163 -1057 850 -65 -128 0 -685c0,-69 -9,-136 -25,-200zm-369 2356l1507 1044 -5180 0 1986 -1376 356 287c7,6 14,12 22,17l281 552 1028 -524zm-3677 -2013c13,64 49,119 100,160l1728 1391 -1835 1271 0 -2828 7 6zm5193 -4l0 2824 -1314 -910 706 -359 -356 -699 860 -693c56,-46 84,-96 104,-163z"/>
	<path id="curve28"  d="M3377 2100l0 600c0,166 134,300 300,300 166,0 300,-134 300,-300l0 -1200c0,-221 -179,-400 -400,-400l-447 0c114,-127 276,-200 447,-200 331,0 600,269 600,600l0 1200c0,276 -224,500 -500,500 -276,0 -500,-224 -500,-500l0 -600 200 0z"/>
</svg>