<?xml version="1.0" encoding="UTF-8"?>
<!DOCTYPE svg PUBLIC "-//W3C//DTD SVG 1.1//EN" "http://www.w3.org/Graphics/SVG/1.1/DTD/svg11.dtd">
<svg xmlns="http://www.w3.org/2000/svg" xml:space="preserve" width="580px" height="580px" shape-rendering="geometricPrecision" text-rendering="geometricPrecision" image-rendering="optimizeQuality" fill-rule="nonzero" clip-rule="nonzero" viewBox="0 0 5800 5800" xmlns:xlink="http://www.w3.org/1999/xlink">
	<title>mail_virus icon</title>
	<desc>mail_virus icon from the IconExperience.com I-Collection. Copyright by INCORS GmbH (www.incors.com).</desc>
		<path id="curve29"  d="M4500 300l0 109 -2014 1647c-51,42 -119,42 -170,0l-2014 -1647 -1 -109 4199 0zm0 302l0 1598c0,-331 -269,-600 -600,-600 -244,0 -454,146 -548,355 -74,-34 -157,-54 -244,-55l-62 -43 1363 -1115c49,-40 70,-83 91,-140zm-2692 2498l-1472 0 1581 -1112 272 223c106,86 249,99 366,38 -23,50 -40,104 -48,160 -35,-6 -71,-9 -107,-9 -331,0 -600,269 -600,600 0,34 3,67 8,100zm-1507 -219l0 -2282c25,59 38,98 91,142l1364 1116 -1455 1024z"/>
	<path id="curve28"  d="M3900 1800c221,0 400,179 400,400 0,204 -154,375 -356,398l-6 42c43,12 85,27 125,45 74,-115 201,-185 337,-185 221,0 400,179 400,400 0,136 -70,263 -185,337 11,24 20,49 29,74l56 -14c2,-224 178,-397 400,-397 221,0 400,179 400,400 0,221 -179,400 -400,400 -147,0 -282,-81 -352,-209l-58 14c21,149 9,303 -34,447 43,17 141,-152 344,-152 221,0 400,179 400,400 0,221 -179,400 -400,400 -221,0 -400,-179 -400,-400 0,-18 1,-36 4,-54l-23 -9c-53,99 -121,191 -204,270 187,37 323,202 323,393 0,221 -179,400 -400,400 -221,0 -400,-179 -400,-400 0,-48 8,-94 24,-136 -131,35 -269,45 -404,28l-18 63c123,72 198,203 198,345 0,221 -179,400 -400,400 -221,0 -400,-179 -400,-400 0,-221 179,-400 400,-400 3,0 7,0 10,0l15 -51c-131,-43 -251,-111 -354,-198l-106 85c22,50 35,105 35,164 0,221 -179,400 -400,400 -221,0 -400,-179 -400,-400 0,-221 179,-400 400,-400 90,0 173,30 240,80l91 -72c-115,-144 -193,-318 -220,-508l-24 0c-45,176 -204,300 -387,300 -221,0 -400,-179 -400,-400 0,-198 146,-366 341,-396 -9,-6 -16,-14 -24,-21 -72,-73 -117,-173 -117,-283 0,-221 179,-400 400,-400 221,0 400,179 400,400 0,12 -1,24 -2,36 44,-61 94,-116 149,-166 -148,-62 -247,-208 -247,-370 0,-221 179,-400 400,-400 221,0 400,179 400,400 0,39 -6,77 -16,113 85,-13 172,-17 257,-9l5 -35c-148,-62 -246,-207 -246,-369 0,-221 179,-400 400,-400zm-1299 1800c5,-103 25,-201 57,-294 -56,47 -124,78 -199,90 62,52 130,204 142,204z"/>
</svg>