<?xml version="1.0" encoding="UTF-8"?>
<!DOCTYPE svg PUBLIC "-//W3C//DTD SVG 1.1//EN" "http://www.w3.org/Graphics/SVG/1.1/DTD/svg11.dtd">
<svg xmlns="http://www.w3.org/2000/svg" xml:space="preserve" width="580px" height="580px" shape-rendering="geometricPrecision" text-rendering="geometricPrecision" image-rendering="optimizeQuality" fill-rule="nonzero" clip-rule="nonzero" viewBox="0 0 5800 5800" xmlns:xlink="http://www.w3.org/1999/xlink">
	<title>mail_filter icon</title>
	<desc>mail_filter icon from the IconExperience.com I-Collection. Copyright by INCORS GmbH (www.incors.com).</desc>
		<path id="curve29"  d="M4499 300l0 1826c-65,-6 -131,-11 -200,-15l0 -1280 -1254 1026 370 260c-106,8 -208,18 -304,30l-226 -159 -273 223c-124,101 -299,101 -423,0l-273 -223 -1296 912 1481 0 0 200 -1801 0 0 -2800 4199 0zm-3999 2440l1256 -883 -1256 -1027 0 1910zm1 -2240l0 51c0,16 6,26 18,36l1796 1469c51,42 120,42 171,0l1796 -1469c9,-7 15,-15 17,-26l0 -61 -3798 0z"/>
	<path id="curve28"  d="M5500 2730l0 433c0,134 -54,252 -155,339l-989 875c-37,33 -56,74 -56,123l0 500c0,170 -179,358 -358,446 -50,25 -101,43 -150,52 -56,9 -110,6 -156,-12 -83,-34 -136,-106 -136,-230l0 -756c0,-49 -18,-90 -55,-122 -333,-289 -661,-585 -991,-877 -100,-88 -154,-204 -154,-338 0,-143 -5,-296 0,-438 4,-142 201,-256 518,-326 278,-61 661,-99 1082,-99 421,0 804,38 1082,99 147,32 518,130 518,331zm-200 226c-84,41 -191,77 -318,104 -278,61 -661,99 -1082,99 -421,0 -804,-38 -1082,-99 -127,-27 -234,-63 -318,-104l0 207c0,76 29,139 86,189l989 875c82,71 125,165 125,273l0 756c0,28 4,42 11,44 10,5 27,4 48,1 29,-5 61,-17 95,-34 123,-60 246,-175 246,-267l0 -500c0,-107 44,-201 124,-272 330,-292 658,-588 991,-877 57,-49 85,-112 85,-188l0 -207zm-360 -362c-265,-58 -633,-94 -1040,-94 -407,0 -775,36 -1040,94 -222,49 -360,98 -360,136 0,37 138,86 360,135 265,58 633,94 1040,94 407,0 775,-36 1040,-94 222,-49 360,-98 360,-135 0,-38 -138,-87 -360,-136z"/>
</svg>