<?xml version="1.0" encoding="UTF-8"?>
<!DOCTYPE svg PUBLIC "-//W3C//DTD SVG 1.1//EN" "http://www.w3.org/Graphics/SVG/1.1/DTD/svg11.dtd">
<svg xmlns="http://www.w3.org/2000/svg" xml:space="preserve" width="580px" height="580px" shape-rendering="geometricPrecision" text-rendering="geometricPrecision" image-rendering="optimizeQuality" fill-rule="nonzero" clip-rule="nonzero" viewBox="0 0 5800 5800" xmlns:xlink="http://www.w3.org/1999/xlink">
	<title>mail_virus icon</title>
	<desc>mail_virus icon from the IconExperience.com I-Collection. Copyright by INCORS GmbH (www.incors.com).</desc>
		<path id="curve29" d="M1808 3100l-1508 0 0 -2800 4199 0 0 1869c-8,-161 -80,-310 -200,-417l0 -921 -1254 1026 62 43 -7 0c-234,0 -448,139 -545,349 -119,63 -262,47 -366,-38l-273 -223 -1296 912 1188 0c-11,66 -11,134 0,200zm-1308 -360l1256 -883 -1256 -1027 0 1910zm1 -2240l0 51c0,16 6,26 18,36l1796 1469c51,42 120,42 171,0l1796 -1469c9,-7 15,-15 17,-26l0 -61 -3798 0z"/>
	<path id="curve28" d="M3900 1800c221,0 400,179 400,400 0,204 -154,375 -356,398l-6 42c43,12 85,27 125,45 74,-115 201,-185 337,-185 221,0 400,179 400,400 0,136 -70,263 -185,337 11,24 20,49 29,74l56 -14c2,-224 178,-397 400,-397 221,0 400,179 400,400 0,221 -179,400 -400,400 -147,0 -282,-81 -352,-209l-58 14c21,149 9,303 -34,447 43,17 141,-152 344,-152 221,0 400,179 400,400 0,221 -179,400 -400,400 -221,0 -400,-179 -400,-400 0,-18 1,-36 4,-54l-23 -9c-53,99 -121,191 -204,270 187,37 323,202 323,393 0,221 -179,400 -400,400 -221,0 -400,-179 -400,-400 0,-48 8,-94 24,-136 -131,35 -269,45 -404,28l-18 63c123,72 198,203 198,345 0,221 -179,400 -400,400 -221,0 -400,-179 -400,-400 0,-221 179,-400 400,-400 3,0 7,0 10,0l15 -51c-131,-43 -251,-111 -354,-198l-106 85c22,50 35,105 35,164 0,221 -179,400 -400,400 -221,0 -400,-179 -400,-400 0,-221 179,-400 400,-400 90,0 173,30 240,80l91 -72c-115,-144 -193,-318 -220,-508l-24 0c-45,176 -204,300 -387,300 -221,0 -400,-179 -400,-400 0,-198 146,-366 341,-396 -9,-6 -16,-14 -24,-21 -72,-73 -117,-173 -117,-283 0,-221 179,-400 400,-400 221,0 400,179 400,400 0,12 -1,24 -2,36 44,-61 94,-116 149,-166 -148,-62 -247,-208 -247,-370 0,-221 179,-400 400,-400 221,0 400,179 400,400 0,39 -6,77 -16,113 85,-13 172,-17 257,-9l5 -35c-148,-62 -246,-207 -246,-369 0,-221 179,-400 400,-400zm9 1040l-10 74c-8,55 -58,93 -113,85 -55,-8 -93,-58 -85,-113l12 -84c-300,-22 -589,115 -761,363l93 46c49,25 69,84 44,134 -25,49 -84,69 -134,44l-97 -49c-32,82 -51,169 -57,260l99 0c55,0 100,45 100,100 0,55 -45,100 -100,100l-87 0c55,305 273,558 567,656l24 -83c15,-53 70,-84 123,-69 53,15 84,70 69,123l-20 70c125,11 251,-6 369,-50l-128 -192c-31,-45 -18,-108 28,-138 45,-31 108,-18 138,28l141 211c264,-178 406,-486 371,-802l-171 43c-53,13 -107,-19 -121,-73 -13,-53 19,-108 73,-121l173 -43c-89,-247 -290,-440 -540,-520zm330 -59c110,74 206,170 280,280 52,-38 81,-97 81,-161 0,-110 -90,-200 -200,-200 -64,0 -123,29 -161,81zm-1638 819c5,-103 25,-201 57,-294 -56,47 -124,78 -199,90 62,52 130,204 142,204zm1699 1000c-111,0 -200,89 -200,200 0,111 89,200 200,200 111,0 200,-89 200,-200 0,-110 -90,-200 -200,-200zm-1000 300c-111,0 -200,89 -200,200 0,111 89,200 200,200 111,0 200,-89 200,-200 0,-110 -90,-200 -200,-200zm-800 -400c-111,0 -200,89 -200,200 0,110 90,200 200,200 111,0 200,-89 200,-200 0,-110 -90,-200 -200,-200zm-300 -1000c-111,0 -200,89 -200,200 0,110 90,200 200,200 111,0 200,-89 200,-200 0,-110 -90,-200 -200,-200zm200 -700c-114,0 -200,88 -200,200 0,110 90,200 200,200 111,0 200,-89 200,-200 0,-111 -90,-200 -200,-200zm2600 1200c-111,0 -200,89 -200,200 0,111 89,200 200,200 111,0 200,-89 200,-200 0,-110 -90,-200 -200,-200zm100 -900c-111,0 -200,89 -200,200 0,111 89,200 200,200 111,0 200,-89 200,-200 0,-110 -90,-200 -200,-200zm-2000 -800c-111,0 -200,89 -200,200 0,111 89,200 200,200 111,0 200,-89 200,-200 0,-110 -90,-200 -200,-200zm800 -300c-111,0 -200,89 -200,200 0,111 89,200 200,200 111,0 200,-89 200,-200 0,-110 -90,-200 -200,-200z"/>
</svg>