<?xml version="1.0" encoding="utf-8"?>
<!-- Generator: Adobe Illustrator 21.1.0, SVG Export Plug-In . SVG Version: 6.00 Build 0)  -->
<svg version="1.1"
	 id="Ebene_1" image-rendering="optimizeQuality" text-rendering="geometricPrecision" shape-rendering="geometricPrecision"
	 xmlns="http://www.w3.org/2000/svg" xmlns:xlink="http://www.w3.org/1999/xlink" x="0px" y="0px" width="580px" height="580px"
	 viewBox="0 0 580 580" style="enable-background:new 0 0 580 580;" xml:space="preserve">
<g>
	<path d="M409.8,162.9l-53-52.9h55.9c38.5,0,70,31.5,70,70v70h20v-70c0-49.6-40.4-90-90-90h-55.9l53-52.9l-14.2-14.2l-77,77.1
		l77,77.1L409.8,162.9z"/>
	<path d="M185.1,402.9l-14.2,14.2l53,52.9H168c-38.5,0-70-31.5-70-70v-70H78v70c0,49.6,40.4,90,90,90h55.9l-53,52.9l14.2,14.2
		l77-77.1L185.1,402.9z"/>
	<rect x="190" y="70" width="80" height="40"/>
	<polygon points="270,210 270,150 70,150 70,210 90,210 90,170 250,170 250,210 	"/>
	<polygon points="90,250 270,250 270,230 70,230 70,290 90,290 	"/>
	<path d="M50,410V60c0-5.5,4.5-10,10-10h220c5.5,0,10,4.5,10,10v189h20V119.7l-5.5-5.5L290.4,100l14.1-14.1l5.5-5.5V60
		c0-16.5-13.5-30-30-30H60c-16.5,0-30,13.5-30,30v370h32.2c-1.8-6.4-3.1-13.1-3.7-20H50z"/>
	<path d="M522.7,270h-20h-20h-20H170c0,39.9,0,79.8,0,119.7l1-1l14.2-14.2l4.9,4.9v-68.2l116.8,97.3L261.4,451l14.1,14.2l46.8-43.7
		l18.5,15.5c11.2,9.3,27.2,9.3,38.4,0l18.5-15.5L514.6,530H240.4l-20,20H550c0-93.3,0-186.6,0-280H522.7z M366.4,421.7
		c-3.7,3.1-9.1,3.1-12.8,0L195.6,290h328.8L366.4,421.7z M530,517.1L413.2,408.6L530,311.3V517.1z"/>
</g>
</svg>
