<?xml version="1.0" encoding="UTF-8"?>
<!DOCTYPE svg PUBLIC "-//W3C//DTD SVG 1.1//EN" "http://www.w3.org/Graphics/SVG/1.1/DTD/svg11.dtd">
<svg xmlns="http://www.w3.org/2000/svg" xml:space="preserve" width="580px" height="580px" shape-rendering="geometricPrecision" text-rendering="geometricPrecision" image-rendering="optimizeQuality" fill-rule="nonzero" clip-rule="nonzero" viewBox="0 0 5800 5800" xmlns:xlink="http://www.w3.org/1999/xlink">
	<title>mailbox_full icon</title>
	<desc>mailbox_full icon from the IconExperience.com I-Collection. Copyright by INCORS GmbH (www.incors.com).</desc>
		<path id="curve28"  d="M1100 4500l0 -1600 1400 0 0 1600 -1400 0zm3800 -3600l0 1200 -1600 0 0 620c31,-12 65,-18 100,-18 165,0 300,135 300,300 0,166 -135,300 -300,300 -166,0 -300,-134 -300,-300 0,-700 0,-1401 0,-2102l1800 0zm-3300 600l1300 0 0 1502c0,276 224,500 500,500 276,0 500,-224 500,-500 0,-237 -168,-442 -400,-489l0 -213 1600 0 0 -438c256,246 400,583 400,938l0 2100c-1733,0 -3466,0 -5200,0l0 -2100c0,-680 524,-1245 1201,-1296l99 -4zm-29 200c-596,16 -1071,504 -1071,1100l0 1900 2200 0 0 -1900c0,-619 -511,-1115 -1129,-1100z"/>
</svg>