<?xml version="1.0" encoding="UTF-8"?>
<!DOCTYPE svg PUBLIC "-//W3C//DTD SVG 1.1//EN" "http://www.w3.org/Graphics/SVG/1.1/DTD/svg11.dtd">
<svg xmlns="http://www.w3.org/2000/svg" xml:space="preserve" width="580px" height="580px" shape-rendering="geometricPrecision" text-rendering="geometricPrecision" image-rendering="optimizeQuality" fill-rule="nonzero" clip-rule="nonzero" viewBox="0 0 5800 5800" xmlns:xlink="http://www.w3.org/1999/xlink">
	<title>mail2 icon</title>
	<desc>mail2 icon from the IconExperience.com I-Collection. Copyright by INCORS GmbH (www.incors.com).</desc>
	<path id="curve0" d="M3500 4300l-2400 0 0 -200 2400 0 0 200zm-2400 -1400l2400 0 0 200 -2400 0 0 -200zm2400 800l-2400 0 0 -200 2400 0 0 200zm1600 -2000l0 1200 -1000 0 0 -1200 1000 0zm-200 200l-600 0 0 800 600 0 0 -800zm599 -600l0 3600 -5200 0 0 -3600 5200 0zm-200 200l-4800 0 0 3200 4800 0 0 -3200z"/>
</svg>