<?xml version="1.0" encoding="utf-8"?>
<!-- Generator: Adobe Illustrator 21.1.0, SVG Export Plug-In . SVG Version: 6.00 Build 0)  -->
<svg version="1.1"
	 id="Ebene_1" image-rendering="optimizeQuality" shape-rendering="geometricPrecision" text-rendering="geometricPrecision"
	 xmlns="http://www.w3.org/2000/svg" xmlns:xlink="http://www.w3.org/1999/xlink" x="0px" y="0px" width="580px" height="580px"
	 viewBox="0 0 580 580" style="enable-background:new 0 0 580 580;" xml:space="preserve">
<g>
	<path d="M185.6,402.9l-14.2,14.2l53,52.9h-55.9c-38.5,0-70-31.5-70-70v-70h-20v70c0,49.6,40.4,90,90,90h55.9l-53,52.9l14.2,14.2
		l77-77.1L185.6,402.9z"/>
	<path d="M410.3,162.9l-53-52.9h55.9c38.5,0,70,31.5,70,70v70h20v-70c0-49.6-40.4-90-90-90h-55.9l53-52.9l-14.2-14.2l-77,77.1
		l77,77.1L410.3,162.9z"/>
	<path d="M523.2,270h-20h-20h-20H170.5c0,39.9,0,79.8,0,119.7l1-1l14.2-14.2l4.9,4.9v-68.2l116.8,97.3L261.9,451l14.1,14.2
		l46.8-43.7l18.5,15.5c11.2,9.3,27.2,9.3,38.4,0l18.5-15.5L515.1,530H240.9l-20,20h329.5c0-93.3,0-186.6,0-280H523.2z M366.9,421.7
		c-3.7,3.1-9.1,3.1-12.8,0L196.1,290h328.8L366.9,421.7z M530.5,517.1L413.7,408.6l116.8-97.3V517.1z"/>
	<path d="M113.5,229.5c7.7-4.4,11.9-12.5,14.2-21.5c0.4-1.8,3.4-21.7,2.3-21.7c0-2.6-1-5.2-3-7.1c-3.2-3.2-6.5-8.5-9.6-14.4
		c-3.8-7.6-7-15.9-8.6-22c-0.8-2.7-2.6-5.1-5.3-6.4c-2.7-1.3-4.6-3.8-5.7-6.7c-1.3-3.6-1.5-7.6-0.6-11.1c0.4-1.2,0.6-2.5,0.5-3.9
		l-2.3-35.3c-0.2,0,0.4-6.1,0.5-6.6c3.5-21.1,24.3-32.6,44.2-32.9c3.3-0.1,6.6,0.1,9.9,0.7c3.1,0.5,5.4,1.1,7.5,2.1
		c0.8,0.3,7.4,4.2,7.4,4.2c2.8,1.8,6.5,2.1,9.8,0.5s6.9-2.2,10.4-1.8c5,0.4,10.1,2.7,14.5,6.1c4.7,3.6,8.6,8.3,11.2,13.5
		c2.3,4.7,3.1,8.7,2.8,13.9l-2.3,35.6c-0.1,1.1,0,2.3,0.4,3.4c1.1,3.7,0.9,7.9-0.5,11.6c-1,2.8-2.9,5.2-5.4,6.6
		c-2.7,1.2-4.8,3.5-5.6,6.5c-1.6,6.1-4.7,14.4-8.6,22c-3,5.9-6.4,11.2-9.6,14.4c-1.9,1.9-3,4.5-3,7.3c0.2,6,0.5,13.8,2.2,21.2
		c2.1,8.9,6.2,17.1,14.3,21.8c8.3,5.1,14.3,6.9,21.4,9c3.7,1.1,7.3,2.3,10.9,3.6c5,1.8,11.2,4.1,15,6.9h25.7
		c-2.9-4.8-6.3-9.2-10.2-13c-6.6-6.4-16.1-9.9-23.7-12.7c-4-1.4-7.9-2.7-12-3.9c-5.8-1.8-10.7-3.2-16.8-7.1
		c-3.2-1.8-4.4-5.8-5.1-9.2c-1-4.2-1.4-8.9-1.6-13.1c3.8-4.5,7.3-10.2,10.3-16.1c3.7-7.4,6.9-15.3,9-22c5.4-3.8,9.2-9.2,11.5-15.2
		c2.7-7,3.1-15,1.4-22.3l2.2-34c0.4-9-0.9-15.9-4.9-24c-3.8-7.9-9.8-15.1-16.8-20.5c-7.3-5.6-15.9-9.3-24.9-10.2
		c-5.2-0.5-10.4,0-15.6,1.7c-1.9-1.2-3.8-2.1-5.8-3c-3.5-1.6-7.3-2.7-12.3-3.5c-4.4-0.7-8.9-1-13.4-1C110,20.5,81.3,38.7,76.2,69.6
		c-0.5,3.4-0.9,7.6-0.7,11.1l2.2,33.7c-1.7,7.3-1.2,15.3,1.4,22.3c2.3,6,6.1,11.4,11.5,15.2c2.1,6.7,5.3,14.6,9,22
		c3.1,5.9,6.6,11.6,10.3,16.1c-0.1,4.1-0.5,8.8-1.6,13.2c-1,4-1.9,7-5.4,9.3c-6,3.7-10.8,5.2-16.5,6.9c-4,1.2-8,2.4-12,3.9
		c-7.6,2.8-17.1,6.3-23.7,12.7c-6.8,6.6-12,14.8-15.6,23.7c-3.7,9.4-5.6,19.4-5.6,29c0,10.7,7.8,18.6,20,24.3c0,0-0.3-8.1-1-17.8
		c-0.9-12.9,4.5-25.3,5.2-28.1c0.8-2.7,6.2-12.2,10.9-16.8c3.5-3.4,10.8-6.1,16.6-8.2c3.6-1.3,7.3-2.5,10.9-3.6
		C99.2,236.4,105.2,234.6,113.5,229.5z"/>
</g>
</svg>
