<?xml version="1.0" encoding="utf-8"?>
<!-- Generator: Adobe Illustrator 19.2.1, SVG Export Plug-In . SVG Version: 6.00 Build 0)  -->
<svg version="1.1" id="Ebene_1" xmlns="http://www.w3.org/2000/svg" xmlns:xlink="http://www.w3.org/1999/xlink" x="0px" y="0px"
	 width="580px" height="580px" viewBox="0 0 580 580" style="enable-background:new 0 0 580 580;" xml:space="preserve">
<g>
	<path d="M30,108V98h480v8.7c0,2.7-1.2,4.5-3.3,6.2L336.2,250H368l142-114.1V250h20V78H10c0,113,0,227,0,340h200v-20H39.4L209,280.5
		l1,1v-25.5l-177.3-143C31.1,111.6,30,110.1,30,108z M30,380.6V136.1l163.3,131.4L30,380.6z"/>
	<path d="M250,282v220h320V282H250z M343.7,398c-7,6.5-16.5,10-28.2,10H307v36h-19V340h30c11.3,0,20.2,2.7,26.6,8.4
		c6.5,5.8,9.9,14,9.9,24.3C354.5,382.9,350.9,391.4,343.7,398z M442.3,429.4c-10.2,9.7-23.8,14.6-40.6,14.6H372V340h30.7
		c17.9,0,31.7,4.2,40.9,12.6c9.3,8.6,14,21.3,14,38.1C457.6,406.7,452.5,419.6,442.3,429.4z M533,358h-38v25h35v18h-35v43h-19V340
		h57V358z"/>
	<path d="M402.4,358H391v68h10.8c11.5,0,20.4-3.2,26.6-9.1c6.2-6,9.3-14.5,9.3-25.9C437.7,368.5,426.5,358,402.4,358z"/>
	<path d="M316.1,358H307v31h7.7c6.7,0,11.8-1.3,15.1-4.2c3.2-2.8,4.7-6.6,4.7-11.9C334.5,365.9,332.4,358,316.1,358z"/>
</g>
</svg>
