<?xml version="1.0" encoding="UTF-8"?>
<!DOCTYPE svg PUBLIC "-//W3C//DTD SVG 1.1//EN" "http://www.w3.org/Graphics/SVG/1.1/DTD/svg11.dtd">
<svg xmlns="http://www.w3.org/2000/svg" xml:space="preserve" width="580px" height="580px" shape-rendering="geometricPrecision" text-rendering="geometricPrecision" image-rendering="optimizeQuality" fill-rule="nonzero" clip-rule="nonzero" viewBox="0 0 5800 5800" xmlns:xlink="http://www.w3.org/1999/xlink">
	<title>mailbox_empty icon</title>
	<desc>mailbox_empty icon from the IconExperience.com I-Collection. Copyright by INCORS GmbH (www.incors.com).</desc>
		<path id="curve28"  d="M3682 2900c12,32 18,66 18,102 0,166 -135,300 -300,300 -166,0 -300,-134 -300,-300 0,-165 134,-300 300,-300 0,-4 1863,-2 2100,-2l0 1800c-400,0 -800,0 -1200,0l0 -1600 -618 0zm-3382 -100c0,-680 524,-1245 1201,-1296l99 -4 2600 0c603,0 1127,415 1265,1000 -688,0 -1377,0 -2065,2 -276,0 -500,224 -500,500 0,276 224,500 500,500 238,0 444,-169 490,-402l210 0 0 1600 1400 0 0 200 -5200 0 0 -2100zm1271 -1100c-596,16 -1071,504 -1071,1100l0 1900 2200 0 0 -1900c0,-619 -511,-1115 -1129,-1100z"/>
</svg>