<?xml version="1.0" encoding="UTF-8"?>
<!DOCTYPE svg PUBLIC "-//W3C//DTD SVG 1.1//EN" "http://www.w3.org/Graphics/SVG/1.1/DTD/svg11.dtd">
<svg xmlns="http://www.w3.org/2000/svg" xml:space="preserve" width="580px" height="580px" shape-rendering="geometricPrecision" text-rendering="geometricPrecision" image-rendering="optimizeQuality" fill-rule="nonzero" clip-rule="nonzero" viewBox="0 0 5800 5800" xmlns:xlink="http://www.w3.org/1999/xlink">
	<title>mail_filter icon</title>
	<desc>mail_filter icon from the IconExperience.com I-Collection. Copyright by INCORS GmbH (www.incors.com).</desc>
		<path id="curve28"  d="M4499 300l0 109 -2013 1647c-51,42 -120,42 -171,0l-2014 -1647 -1 -109 4199 0zm1001 2424c7,139 0,298 0,439 0,134 -54,252 -155,339l-989 875c-37,33 -56,74 -56,123l0 500c0,170 -179,358 -358,446 -91,45 -208,79 -306,40 -83,-34 -136,-106 -136,-230l0 -756c0,-49 -18,-90 -55,-122 -333,-289 -661,-585 -991,-877 -50,-44 -89,-95 -115,-152 -26,-57 -39,-119 -39,-186 0,-143 -5,-296 0,-438 4,-142 201,-256 518,-326 278,-61 661,-99 1082,-99 421,0 804,38 1082,99 316,69 513,183 518,325zm-560 -130c-265,-58 -633,-94 -1040,-94 -407,0 -775,36 -1040,94 -222,49 -360,98 -360,136 0,37 138,86 360,135 265,58 633,94 1040,94 407,0 775,-36 1040,-94 222,-49 360,-98 360,-135 0,-38 -138,-87 -360,-136zm-441 -1992l0 1524c-185,-17 -388,-26 -599,-26 -169,0 -331,6 -485,17l-370 -260 1363 -1115c49,-40 70,-83 91,-140zm-2398 2498l-1766 0 1581 -1112 273 223c124,101 299,101 423,0l273 -223 226 159c-122,15 -235,35 -335,57 -418,91 -676,274 -676,526l1 370zm-1801 -219l0 -2282c25,59 39,98 91,142l1365 1116 -1456 1024z"/>
</svg>