<?xml version="1.0" encoding="utf-8"?>
<!-- Generator: Adobe Illustrator 19.2.1, SVG Export Plug-In . SVG Version: 6.00 Build 0)  -->
<svg version="1.1" id="Ebene_1" xmlns="http://www.w3.org/2000/svg" xmlns:xlink="http://www.w3.org/1999/xlink" x="0px" y="0px"
	 width="580px" height="580px" viewBox="0 0 580 580" style="enable-background:new 0 0 580 580;" xml:space="preserve">
<g>
	<polygon points="490.2,418 530,418 530,372.1 487.1,414.8 	"/>
	<path d="M244.8,309.2c14.7,11.8,34.9,11.8,49.6,0l35.6-28.7l17.8,12.3l14.3-14.3l-15.8-11L510,135.9v28.8c7,0.6,13,2.3,20,5V78H10
		c0,113,0,227,0,340h226.9l5.1-14.1l2.1-5.9H39.4l169.8-117.5L244.8,309.2z M30,98h480v8.7c0,2.7-1.2,4.5-3.3,6.2L282,293.7
		c-7.3,5.9-17.3,5.9-24.6,0L32.9,112.9c-1.6-1.3-2.9-2.8-2.9-4.9V98z M30,380.6V136.1l163.3,131.4L30,380.6z"/>
	<path d="M561.6,249l-36.6-36.6c-10-10.1-26.6-10.1-36.6,0L285,415.8l-18.8,51.8l-3.5,9.5l-10.1,27.8c-1.7,4.8-0.6,10,3,13.5
		c3.6,3.6,8.8,4.8,13.5,3l27.8-10.1l9.5-3.5l51.8-18.8l203.4-203.5C571.7,275.5,571.7,259.1,561.6,249z M290.9,492.3l-8.2-8.1
		l19.6-53.9l41.8,41.8L290.9,492.3z M361.3,458.7l-44.8-44.6l133.4-133.4l44.8,44.8L361.3,458.7z M544.4,276l-36.7,35.3l-45-44.5
		l36.7-36.3c4-3.8,10.5-3.8,14.5,0l30.5,31.5C548.4,265.9,548.4,272.1,544.4,276z"/>
</g>
</svg>
