<?xml version="1.0" encoding="UTF-8"?>
<!DOCTYPE svg PUBLIC "-//W3C//DTD SVG 1.1//EN" "http://www.w3.org/Graphics/SVG/1.1/DTD/svg11.dtd">
<svg xmlns="http://www.w3.org/2000/svg" xml:space="preserve" width="580px" height="580px" shape-rendering="geometricPrecision" text-rendering="geometricPrecision" image-rendering="optimizeQuality" fill-rule="nonzero" clip-rule="nonzero" viewBox="0 0 5800 5800" xmlns:xlink="http://www.w3.org/1999/xlink">
	<title>mail_sealed icon</title>
	<desc>mail_sealed icon from the IconExperience.com I-Collection. Copyright by INCORS GmbH (www.incors.com).</desc>
		<path id="curve28"  d="M300 1462l-1 -162 5200 0 0 163 -1484 1194c-17,-72 -45,-141 -91,-202 -111,-149 -296,-205 -470,-240 -75,-15 -169,-25 -241,-46 -207,-61 -343,-154 -581,-130 -62,7 -122,22 -179,47 -266,117 -417,369 -537,620 -5,10 -18,26 -27,35l-1589 -1279zm3758 2246l1432 992 -5180 0 1538 -1065c24,29 52,64 61,83 113,290 237,506 555,609 152,49 312,46 467,17 93,-18 180,-48 271,-70 95,-24 191,-44 286,-71 191,-53 321,-124 449,-279 53,-66 93,-139 121,-216zm-3752 -2065c13,64 49,119 100,160l0 1 1364 1097c-8,13 -15,26 -21,40 -78,171 -79,358 -7,524l-1443 1000 0 -2828 7 6zm5193 -4l0 2824 -1394 -965c16,-149 -2,-302 -39,-444 -13,-46 -16,-112 -19,-166l1348 -1086c56,-46 84,-96 104,-163zm-3483 1251c27,-31 54,-63 70,-97 45,-93 97,-196 164,-288 72,-99 161,-186 274,-235 173,-76 345,-11 503,49 99,37 161,54 265,72 169,29 373,64 462,184 33,44 52,101 63,158 10,49 15,99 18,138 1,11 3,33 4,55 5,62 9,128 23,180 31,115 48,252 33,382 -13,112 -51,220 -123,309 -102,123 -196,171 -347,213 -125,35 -251,60 -375,96 -52,14 -104,29 -166,41 -121,23 -250,27 -368,-11 -134,-43 -221,-113 -288,-204 -62,-84 -101,-181 -143,-288 -22,-57 -78,-114 -116,-165 -49,-67 -79,-143 -87,-221 -8,-78 4,-157 39,-234 25,-54 60,-94 95,-134zm884 -240c-304,0 -550,246 -550,550 0,304 246,550 550,550 304,0 550,-246 550,-550 0,-304 -246,-550 -550,-550zm0 200c-193,0 -350,157 -350,350 0,193 157,350 350,350 193,0 350,-157 350,-350 0,-193 -157,-350 -350,-350z"/>
</svg>