<?xml version="1.0" encoding="UTF-8"?>
<!DOCTYPE svg PUBLIC "-//W3C//DTD SVG 1.1//EN" "http://www.w3.org/Graphics/SVG/1.1/DTD/svg11.dtd">
<svg xmlns="http://www.w3.org/2000/svg" xml:space="preserve" width="580px" height="580px" shape-rendering="geometricPrecision" text-rendering="geometricPrecision" image-rendering="optimizeQuality" fill-rule="nonzero" clip-rule="nonzero" viewBox="0 0 5800 5800" xmlns:xlink="http://www.w3.org/1999/xlink">
	<title>mail_exchange icon</title>
	<desc>mail_exchange icon from the IconExperience.com I-Collection. Copyright by INCORS GmbH (www.incors.com).</desc>
		<path id="curve31"  d="M5500 300l0 109 -2014 1647c-51,42 -119,42 -170,0l-907 -741 115 -115 -900 -900 3876 0zm0 302l0 2278 -1454 -1023 1363 -1115c49,-40 69,-83 91,-140zm-34 2498l-66 0 -700 0 0 -539 766 539zm-3278 -600l728 -512 273 223c124,101 299,101 424,0l272 -223 728 512 -2425 0zm79 -1043l489 400 -914 643 -142 0 0 -476 567 -567z"/>
	<path id="curve30"  d="M4499 2700l0 109 -2013 1647c-51,42 -120,42 -171,0l-2014 -1647 -1 -109 4199 0zm0 302l0 375 -1117 1117 -337 -237 1363 -1115c49,-40 70,-83 91,-140zm-323 2498l-3776 0 -65 0 1581 -1112 273 223c124,101 299,101 423,0l273 -223 603 424 688 688zm-3876 -219l0 -2282c25,59 39,98 91,142l1365 1116 -1456 1024z"/>
	<path id="curve29"  d="M4471 3971l-530 529 459 0c385,0 700,-315 700,-700l0 -500 200 0 0 500c0,496 -404,900 -900,900l-459 0 530 529 -142 142 -770 -771 770 -771 142 142z"/>
	<path id="curve28"  d="M1329 1829l530 -529 -459 0c-385,0 -700,315 -700,700l0 500 -200 0 0 -500c0,-496 404,-900 900,-900l459 0 -530 -529 142 -142 770 771 -770 771 -142 -142z"/>
</svg>