<?xml version="1.0" encoding="utf-8"?>
<!-- Generator: Adobe Illustrator 19.2.1, SVG Export Plug-In . SVG Version: 6.00 Build 0)  -->
<svg version="1.1" id="mail_x5F_out_x5F_gi" xmlns="http://www.w3.org/2000/svg" xmlns:xlink="http://www.w3.org/1999/xlink"
	 x="0px" y="0px" width="580px" height="580px" viewBox="0 0 580 580" style="enable-background:new 0 0 580 580;"
	 xml:space="preserve">
<title>address_book2 icon</title>
<desc>address_book2 icon from the IconExperience.com I-Collection. Copyright by INCORS GmbH (www.incors.com).</desc>
<title>address_book2 icon</title>
<desc>address_book2 icon from the IconExperience.com I-Collection. Copyright by INCORS GmbH (www.incors.com).</desc>
<title>address_book2 icon</title>
<desc>address_book2 icon from the IconExperience.com I-Collection. Copyright by INCORS GmbH (www.incors.com).</desc>
<g>
	<path id="curve28_67_" d="M530,512V312h-11.3c-14.8,0-27.1,7-34.5,19.8l-35.3,60.5c-7.3,12.6-17.3,22.5-29.2,29.3
		c-11.8,6.8-25.4,10.4-39.9,10.4H200.2c-14.5,0-28.1-3.6-39.9-10.4c-11.9-6.8-21.9-16.7-29.2-29.3l-35.3-60.5
		C88.4,319,76.1,312,61.3,312H50v200H530z M550,532H30V292h31.3c21.8,0,40.8,11,51.8,29.8l35.3,60.5c5.5,9.5,13,17,21.8,22
		c8.7,5,18.9,7.7,30,7.7h179.6c11.1,0,21.3-2.7,30-7.7c8.8-5,16.3-12.5,21.8-22l35.3-60.5c11-18.8,30-29.8,51.8-29.8H550V532z
		 M142.2,332h295.6l-11.7,20H153.9L142.2,332z M414.3,372.3c-7.5,12.8-19.6,19.8-34.5,19.8H200.2c-14.9,0-27-7-34.5-19.8H414.3z
		 M299,86.1V292h-20V86.1l-81.9,82l-14.2-14.2L289,47.9l106.1,106l-14.2,14.2L299,86.1z"/>
</g>
</svg>
