<?xml version="1.0" encoding="utf-8"?>
<!-- Generator: Adobe Illustrator 19.2.1, SVG Export Plug-In . SVG Version: 6.00 Build 0)  -->
<svg version="1.1" id="Ebene_1" xmlns="http://www.w3.org/2000/svg" xmlns:xlink="http://www.w3.org/1999/xlink" x="0px" y="0px"
	 width="580px" height="580px" viewBox="0 0 580 580" style="enable-background:new 0 0 580 580;" xml:space="preserve">
<g>
	<path d="M39.4,398l169.8-117.5l5.6,4.5c2-6.8,4.3-13.5,6.9-19.9L32.9,112.9c-1.6-1.3-2.9-2.8-2.9-4.9V98h480v8.7
		c0,2.7-1.2,4.5-3.3,6.2l-43.9,35.2c7.5,2.2,15,4.8,22.2,7.8l25-20.1v32.7c7,4.2,13,8.7,20,13.7V78H10c0,113,0,227,0,340h212.8
		c-2.7-6-5.1-13-7.2-20H39.4z M30,136.1l163.3,131.4L30,380.6V136.1z"/>
	<path d="M409.1,181.3c-88.4,0-160,71.6-160,160s71.6,160,160,160s160-71.6,160-160S497.5,181.3,409.1,181.3z M408.5,481.3
		c-77.3,0-140-62.7-140-140s62.7-140,140-140s140,62.7,140,140S485.8,481.3,408.5,481.3z"/>
	<polygon points="470.6,268.1 412.7,326.1 354.8,268.1 340.6,282.3 398.6,340.2 340.6,398.1 354.8,412.3 412.7,354.3 470.6,412.3 
		484.8,398.1 426.9,340.2 484.8,282.3 	"/>
</g>
</svg>
