<?xml version="1.0" encoding="UTF-8"?>
<!DOCTYPE svg PUBLIC "-//W3C//DTD SVG 1.1//EN" "http://www.w3.org/Graphics/SVG/1.1/DTD/svg11.dtd">
<svg xmlns="http://www.w3.org/2000/svg" xml:space="preserve" width="580px" height="580px" shape-rendering="geometricPrecision" text-rendering="geometricPrecision" image-rendering="optimizeQuality" fill-rule="nonzero" clip-rule="nonzero" viewBox="0 0 5800 5800" xmlns:xlink="http://www.w3.org/1999/xlink">
	<title>mail_bug icon</title>
	<desc>mail_bug icon from the IconExperience.com I-Collection. Copyright by INCORS GmbH (www.incors.com).</desc>
		<path id="curve29"  d="M4499 300l0 109 -2013 1647c-51,42 -120,42 -171,0l-2014 -1647 -1 -109 4199 0zm0 302l0 1847c-238,-131 -530,-168 -798,-131l-656 -461 1363 -1115c49,-40 70,-83 91,-140zm-2142 2498l-2022 0 1581 -1112 273 223c124,101 299,101 423,0l273 -223 558 393c-221,81 -409,229 -528,433l-13 -70c-28,-163 -183,-273 -346,-244 -164,28 -273,184 -244,347l45 253zm-2057 -219l0 -2282c25,59 39,98 91,142l1365 1116 -1456 1024z"/>
	<path id="curve28"  d="M2780 4779l-157 110 -125 351c-19,52 -76,79 -128,61 -52,-19 -79,-76 -61,-128l136 -380c7,-19 19,-36 37,-49l224 -157c-47,-171 -54,-359 -32,-535l-216 40 -180 225c-35,43 -98,50 -140,15 -43,-34 -50,-97 -16,-140l204 -254c14,-18 35,-31 59,-35l328 -62c32,-126 76,-251 134,-368l-240 -224c-16,-16 -26,-35 -30,-56l-68 -381c-10,-54 27,-106 81,-115 54,-10 106,27 116,81l62 348 246 231c12,11 21,25 26,39 200,194 465,321 760,345l0 1730c-395,-126 -822,-302 -1020,-692zm2166 -1306c58,117 102,242 133,368l328 62c25,4 45,17 60,35l203 254c35,43 28,106 -15,140 -43,35 -106,28 -140,-15l-181 -225 -215 -40c21,176 15,364 -32,535l223 157c5,3 37,49 38,49l135 380c19,52 -9,109 -61,128 -52,18 -109,-9 -127,-61l-125 -351 -157 -110c-197,388 -620,564 -1013,690l0 -1728c290,-23 551,-146 750,-335 4,-18 14,-35 28,-49l247 -231 62 -348c10,-54 61,-91 116,-81 54,9 90,61 81,115l-68 381c-4,21 -14,40 -30,56l-240 224zm-1924 -415c126,-379 492,-553 874,-553 386,0 754,177 877,561 -41,64 -88,123 -141,176 -187,187 -446,303 -732,303 -286,0 -545,-116 -732,-303 -55,-55 -104,-117 -146,-184z"/>
</svg>