<?xml version="1.0" encoding="UTF-8"?>
<!DOCTYPE svg PUBLIC "-//W3C//DTD SVG 1.1//EN" "http://www.w3.org/Graphics/SVG/1.1/DTD/svg11.dtd">
<svg xmlns="http://www.w3.org/2000/svg" xml:space="preserve" width="580px" height="580px" shape-rendering="geometricPrecision" text-rendering="geometricPrecision" image-rendering="optimizeQuality" fill-rule="nonzero" clip-rule="nonzero" viewBox="0 0 5800 5800" xmlns:xlink="http://www.w3.org/1999/xlink">
	<title>mail_exchange icon</title>
	<desc>mail_exchange icon from the IconExperience.com I-Collection. Copyright by INCORS GmbH (www.incors.com).</desc>
		<path id="curve30"  d="M5181 2900l-1296 -912 -273 223c-124,101 -299,101 -423,0l-273 -223 -728 512 -347 0 915 -643 -333 -273 31 -30 111 -112 750 614c51,42 120,42 171,0l1796 -1469c9,-7 15,-15 17,-26l0 -61 -3192 0 -200 -200 3592 0c0,933 0,1867 0,2800l-799 0 0 -200 481 0zm118 -2069l-1254 1026 1254 882 0 -1908z"/>
	<path id="curve29"  d="M3073 4520l-188 -132 -273 223c-124,101 -299,101 -423,0l-273 -223 -1296 912 3073 0 200 200 -3593 0 0 -2800 4199 0 0 800 -200 0 0 -269 -1254 1026 171 120 -143 143zm-2573 620l1256 -883 -1256 -1027 0 1910zm1 -2240l0 51c0,16 6,26 18,36l1796 1469c51,42 120,42 171,0l1796 -1469c7,-5 11,-11 14,-17 2,-3 3,-6 3,-9l0 -61 -3798 0z"/>
	<path id="curve28"  d="M5300 3300l0 500c0,496 -404,900 -900,900l-459 0 530 529 -142 142 -770 -771 770 -771 142 142 -530 529 459 0c385,0 700,-315 700,-700l0 -500 200 0zm-4800 -800l0 -500c0,-496 404,-900 900,-900l459 0 -530 -529 142 -142 770 771 -770 771 -142 -142 530 -529 -459 0c-385,0 -700,315 -700,700l0 500 -200 0z"/>
</svg>