<?xml version="1.0" encoding="UTF-8"?>
<!DOCTYPE svg PUBLIC "-//W3C//DTD SVG 1.1//EN" "http://www.w3.org/Graphics/SVG/1.1/DTD/svg11.dtd">
<svg xmlns="http://www.w3.org/2000/svg" xml:space="preserve" width="580px" height="580px" shape-rendering="geometricPrecision" text-rendering="geometricPrecision" image-rendering="optimizeQuality" fill-rule="nonzero" clip-rule="nonzero" viewBox="0 0 5800 5800" xmlns:xlink="http://www.w3.org/1999/xlink">
	<title>mail_reply_all icon</title>
	<desc>mail_reply_all icon from the IconExperience.com I-Collection. Copyright by INCORS GmbH (www.incors.com).</desc>
		<path id="curve28" d="M5499 900c0,1130 0,2268 0,3400l-2042 0c28,-64 42,-132 42,-200l1703 0 -1698 -1176 -356 287c-147,118 -349,118 -496,0l-356 -287 -1698 1176 296 0 -200 200 -395 0 0 -3400 5200 0zm-1833 1894l1633 1131 0 -2445 -1633 1314zm-3167 1132l1635 -1132 -1635 -1316 0 2448zm1 -2826l0 86c0,3 3,34 7,33 5,10 13,20 24,29l2246 1808c73,59 173,59 246,0l2246 -1808c16,-13 27,-28 30,-49l0 -99 -4799 0zm1400 3800l-757 0 528 528 -142 142 -700 -700 -70 -71 70 -71 700 -700 142 141 -531 531 760 0 0 200zm2000 0l-1357 0 532 533 -141 141 -705 -704 -70 -71 70 -71 705 -704 141 141 -535 535 1360 0 0 200z"/>
</svg>