<?xml version="1.0" encoding="UTF-8"?>
<!DOCTYPE svg PUBLIC "-//W3C//DTD SVG 1.1//EN" "http://www.w3.org/Graphics/SVG/1.1/DTD/svg11.dtd">
<svg xmlns="http://www.w3.org/2000/svg" xml:space="preserve" width="580px" height="580px" shape-rendering="geometricPrecision" text-rendering="geometricPrecision" image-rendering="optimizeQuality" fill-rule="nonzero" clip-rule="nonzero" viewBox="0 0 5800 5800" xmlns:xlink="http://www.w3.org/1999/xlink">
	<title>mail_attachment icon</title>
	<desc>mail_attachment icon from the IconExperience.com I-Collection. Copyright by INCORS GmbH (www.incors.com).</desc>
		<path id="curve30"  d="M5499 1300c0,1133 0,2267 0,3400l-5200 0 0 -3400 3083 0 -393 200 -2489 0 0 86c0,27 10,45 31,62l1542 1241 222 436 -1697 1175 4604 0 -1032 -715 202 -102 927 642 0 -2445 -605 487 -93 -182 668 -537c16,-13 27,-28 30,-49l0 -99 -922 0c0,-67 -8,-135 -25,-200l1147 0zm-5000 3026l1635 -1132 -1635 -1316 0 2448z"/>
	<path id="curve29"  d="M3715 1355c38,36 62,88 62,145l0 47 -1539 785 805 1579 1579 -805 -245 -481 0 -440 514 1009 -1936 986 -986 -1936 1746 -889z"/>
	<path id="curve28"  d="M3377 2100l0 600c0,166 134,300 300,300 166,0 300,-134 300,-300l0 -1200c0,-221 -179,-400 -400,-400l-447 0c114,-127 276,-200 447,-200 331,0 600,269 600,600l0 1200c0,276 -224,500 -500,500 -276,0 -500,-224 -500,-500l0 -600 200 0z"/>
</svg>