<?xml version="1.0" encoding="UTF-8"?>
<!DOCTYPE svg PUBLIC "-//W3C//DTD SVG 1.1//EN" "http://www.w3.org/Graphics/SVG/1.1/DTD/svg11.dtd">
<svg xmlns="http://www.w3.org/2000/svg" xml:space="preserve" width="580px" height="580px" shape-rendering="geometricPrecision" text-rendering="geometricPrecision" image-rendering="optimizeQuality" fill-rule="nonzero" clip-rule="nonzero" viewBox="0 0 5800 5800" xmlns:xlink="http://www.w3.org/1999/xlink">
	<title>mail_into icon</title>
	<desc>mail_into icon from the IconExperience.com I-Collection. Copyright by INCORS GmbH (www.incors.com).</desc>
		<path id="curve28"  d="M5500 2031c0,1157 -1,2313 -1,3469l-5200 0c1,-1156 1,-2312 1,-3469 0,-85 42,-158 110,-208l1990 -1456 0 247 -1872 1370c-17,12 -28,26 -28,47l0 186c0,27 10,45 31,62l1885 1518 141 -98c208,-144 475,-144 683,0l143 98 1886 -1518c21,-17 31,-35 31,-62l0 -186c0,-21 -11,-35 -28,-47l-1872 -1370 0 -247 1990 1456c68,50 110,123 110,208zm-298 3269l-2075 -1437c-140,-97 -316,-97 -456,0l-2073 1437 4604 0zm-4703 -174l1746 -1211 -1746 -1405 0 2616zm3055 -1210l1745 1209 1 -2615 -1746 1406zm317 -1745l-971 971 -971 -971 142 -142 729 730 0 -2459 200 0 0 2459 729 -730 142 142z"/>
</svg>