<?xml version="1.0" encoding="UTF-8"?>
<!DOCTYPE svg PUBLIC "-//W3C//DTD SVG 1.1//EN" "http://www.w3.org/Graphics/SVG/1.1/DTD/svg11.dtd">
<svg xmlns="http://www.w3.org/2000/svg" xml:space="preserve" width="580px" height="580px" shape-rendering="geometricPrecision" text-rendering="geometricPrecision" image-rendering="optimizeQuality" fill-rule="nonzero" clip-rule="nonzero" viewBox="0 0 5800 5800" xmlns:xlink="http://www.w3.org/1999/xlink">
	<title>maneki_neko icon</title>
	<desc>maneki_neko icon from the IconExperience.com I-Collection. Copyright by INCORS GmbH (www.incors.com).</desc>
	<path id="curve0" d="M3750 1100c17,0 33,0 50,0 220,0 400,180 400,400l-200 0c0,-25 -5,-49 -13,-71 -34,101 -129,171 -237,171 -78,0 -153,-38 -200,-100l-150 0c0,-110 45,-210 117,-283 62,-61 144,-117 233,-117zm1350 2099c0,130 -52,259 -132,361 -38,-58 -83,-110 -134,-156 41,-62 66,-133 66,-205 -1,-201 -197,-400 -399,-399l-369 2c-201,1 -365,163 -365,365 0,138 112,250 250,250l350 0c138,0 250,-112 250,-250l200 0c0,135 -61,262 -165,347 156,113 248,293 248,486l0 868c63,95 100,209 100,332l0 100c0,110 -90,200 -200,200l-1000 0c-83,0 -158,-53 -187,-130 -224,139 -498,168 -746,78l-101 -37c-37,55 -99,89 -166,89l-1000 0c-110,0 -200,-90 -200,-200l0 -100c0,-122 37,-237 100,-332l0 -868c0,-331 269,-600 600,-600 124,0 238,37 334,101 83,-214 243,-376 437,-467 199,-92 433,-110 655,-29l58 21c64,-249 289,-422 547,-424l370 -2c312,-1 597,288 599,599zm-1528 35l-114 -42c-170,-61 -349,-48 -502,23 -153,72 -279,201 -341,370l-276 759c-123,339 54,719 393,843l203 74c339,123 719,-54 843,-393l276 -759c60,-166 49,-342 -18,-492l-19 0c-223,0 -412,-163 -445,-383zm671 937l-160 440c38,-7 77,-11 117,-11l200 0c109,0 212,29 300,81l0 -681c0,-180 -120,-337 -292,-385 -14,1 -27,2 -41,2l-117 0c57,174 60,369 -7,554zm-249 687l-29 78c-38,105 -95,198 -165,277l0 87 1000 0 0 -100c0,-220 -180,-400 -400,-400l-200 0c-75,0 -146,21 -206,58zm-1484 442c-185,-113 -319,-292 -378,-500l-132 0c-110,0 -210,45 -283,117 -72,73 -117,173 -117,283l0 100 910 0zm-409 -700c-4,-107 12,-217 51,-324l210 -578c-70,-61 -162,-98 -262,-98 -221,0 -400,179 -400,400l0 681c88,-52 191,-81 300,-81l101 0zm-487 -1235c-9,-56 -12,-110 -14,-170 -482,-57 -886,-605 -899,-1072l-1 -23 0 -900c2,-326 303,-500 600,-500l300 0c308,0 500,192 500,500 0,255 -245,500 -500,500l-200 0c-251,0 -417,-188 -417,-433l200 0c0,135 76,233 217,233l200 0c145,0 300,-155 300,-300 0,-197 -104,-300 -300,-300l-300 0c-182,0 -399,89 -400,300l0 900c0,388 368,900 783,900 39,0 78,-1 117,-2 0,85 -2,174 3,259 -68,27 -132,64 -189,108zm1832 -2730l13 3c62,-139 157,-256 263,-346 145,-122 315,-192 453,-192 158,0 255,129 306,266 40,107 59,241 59,374 0,108 -13,217 -38,314 98,151 98,349 98,546 0,334 -141,613 -393,807 -243,187 -587,293 -1007,293 -445,0 -785,-102 -1019,-282 -187,-144 -305,-335 -354,-561 66,-25 128,-60 184,-103 32,207 129,380 292,506 199,153 498,240 897,240 375,0 677,-91 885,-251 202,-155 315,-379 315,-649 0,-182 0,-364 -84,-463 -23,-27 -29,-64 -19,-95 29,-89 43,-196 43,-302 0,-112 -15,-221 -47,-306 -17,-48 -56,-134 -118,-134 -93,0 -215,53 -325,146 -99,83 -186,196 -230,331 -14,42 -53,68 -95,68 -44,0 -83,-6 -125,-16 -38,-10 -84,-20 -200,-20 -116,0 -162,10 -200,20 -37,9 -70,16 -125,16 -46,0 -84,-30 -96,-72 -45,-132 -131,-245 -229,-327 -110,-93 -232,-146 -325,-146 -62,0 -101,86 -118,134 -24,63 -38,139 -45,219 -53,-45 -116,-82 -188,-108 10,-64 25,-125 45,-179 51,-137 148,-266 306,-266 138,0 308,70 453,192 106,90 201,207 263,346l12 -3c50,-12 110,-26 247,-26 137,0 197,14 246,26zm-1246 865c0,-220 180,-400 400,-400 17,0 33,0 50,0 89,0 171,56 233,117 72,73 117,173 117,283l-150 0c-47,62 -121,100 -200,100 -108,0 -203,-70 -237,-171 -8,22 -13,46 -13,71l-200 0zm1000 100c110,0 200,67 200,150 0,55 -40,104 -100,130l0 59 145 72c49,25 69,84 44,134 -25,49 -84,69 -134,44l-155 -78 -155 78c-50,25 -109,5 -134,-44 -25,-50 -5,-109 44,-134l145 -72 0 -59c-60,-26 -100,-75 -100,-130 0,-83 90,-150 200,-150z"/>
</svg>