<?xml version="1.0" encoding="UTF-8"?>
<!DOCTYPE svg PUBLIC "-//W3C//DTD SVG 1.1//EN" "http://www.w3.org/Graphics/SVG/1.1/DTD/svg11.dtd">
<svg xmlns="http://www.w3.org/2000/svg" xml:space="preserve" width="580px" height="580px" shape-rendering="geometricPrecision" text-rendering="geometricPrecision" image-rendering="optimizeQuality" fill-rule="nonzero" clip-rule="nonzero" viewBox="0 0 5800 5800" xmlns:xlink="http://www.w3.org/1999/xlink">
	<title>maneki_neko icon</title>
	<desc>maneki_neko icon from the IconExperience.com I-Collection. Copyright by INCORS GmbH (www.incors.com).</desc>
	<path id="curve0"  d="M4815 3200c-8,111 -56,211 -130,285 -82,81 -194,132 -318,132l-350 0c-248,0 -450,-199 -450,-453 3,-312 252,-560 564,-562l370 -2c312,-1 599,289 599,600 -1,131 -51,257 -132,360 -38,-58 -83,-110 -134,-156 41,-62 66,-133 66,-204l-85 0zm-1615 -1600c-110,0 -200,67 -200,150 0,55 40,104 100,130l0 59 -145 72c-49,25 -69,84 -44,134 25,49 84,69 134,44l155 -78 155 78c50,25 109,5 134,-44 25,-50 5,-109 -44,-134l-145 -72 0 -59c60,-26 100,-75 100,-130 0,-83 -90,-150 -200,-150zm200 -100l150 0c47,62 122,100 200,100 108,0 203,-70 237,-171 8,22 13,46 13,71l200 0c0,-220 -180,-400 -400,-400 -17,0 -33,0 -50,0 -89,0 -171,56 -233,117 -72,73 -117,173 -117,283zm890 2313c10,118 -4,240 -47,358 -71,241 -190,524 -278,765 -161,443 -655,674 -1098,512l-203 -74c-443,-161 -674,-655 -512,-1098l276 -759c143,-394 554,-627 965,-549 -17,64 -26,130 -26,199 0,319 233,592 548,641 109,17 260,6 375,5zm501 -158c69,97 109,217 109,345l0 576c-158,-127 -328,-176 -527,-176 20,-55 45,-116 62,-172 49,-141 66,-285 55,-426 110,-20 216,-74 301,-147zm-491 945l100 0c331,0 600,269 600,600l0 100c0,110 -90,200 -200,200l-1021 -1c166,-120 299,-289 374,-495l147 -404zm-2800 -24l0 -576c0,-166 67,-316 176,-424 151,-151 370,-210 576,-157 -102,257 -193,529 -288,789 -23,65 -40,131 -51,197 -155,16 -297,78 -413,171zm2047 -1902c-109,17 -225,26 -347,26 -591,0 -1232,-197 -1373,-843 170,-65 314,-195 397,-357l176 0c0,-25 5,-49 13,-71 34,101 129,171 237,171 79,0 153,-38 200,-100l150 0c0,-110 -45,-210 -117,-283 -62,-61 -144,-117 -233,-117 -17,0 -33,0 -50,0 -116,0 -225,50 -301,137 1,-12 1,-25 1,-37 0,-293 -145,-553 -426,-655 25,-163 96,-375 268,-432 26,-8 54,-13 83,-13 138,0 308,70 453,192 106,90 201,207 263,346 92,-22 162,-29 259,-29 96,0 168,7 259,29 62,-139 157,-256 263,-346 145,-122 315,-192 453,-192 29,0 57,5 83,13 228,76 282,420 282,627 0,108 -13,217 -38,314 98,151 98,349 98,546 0,331 -138,608 -387,802 -22,0 -48,0 -82,0 -226,0 -438,99 -584,272zm-2554 -1308l-93 0 0 282c17,23 35,46 55,66 110,117 263,186 445,186 76,0 157,3 232,-1 125,570 582,871 1131,966 -167,83 -313,210 -418,373 -248,-80 -524,-32 -731,127 -9,-56 -12,-110 -14,-170 -482,-57 -886,-605 -899,-1072l-1 -923c2,-326 303,-500 600,-500l300 0c308,0 500,192 500,500 0,255 -245,500 -500,500l-200 0c-124,0 -227,-46 -301,-123 -53,-56 -90,-129 -106,-211zm1465 4134l-858 0c-110,0 -200,-90 -200,-200l0 -100c0,-293 213,-544 501,-592 14,374 226,715 557,892z"/>
</svg>