<?xml version="1.0" encoding="UTF-8"?>
<!DOCTYPE svg PUBLIC "-//W3C//DTD SVG 1.1//EN" "http://www.w3.org/Graphics/SVG/1.1/DTD/svg11.dtd">
<svg xmlns="http://www.w3.org/2000/svg" xml:space="preserve" width="580px" height="580px" shape-rendering="geometricPrecision" text-rendering="geometricPrecision" image-rendering="optimizeQuality" fill-rule="nonzero" clip-rule="nonzero" viewBox="0 0 5800 5800" xmlns:xlink="http://www.w3.org/1999/xlink">
	<title>map icon</title>
	<desc>map icon from the IconExperience.com I-Collection. Copyright by INCORS GmbH (www.incors.com).</desc>
		<path id="curve28" d="M532 4828l1472 -693 86 -1463 -1300 693 -258 1463zm1671 -688l1388 694 -87 -1571 -1213 -606 -88 1483zm7 -3174l86 1471 1214 607 86 -1385 -1386 -693zm-113 1476l-88 -1489 -1497 705 263 1489 1322 -705zm1694 2405l1501 -707 -175 -1495 -1414 619 88 1583zm5 -3182l-86 1378 1398 -611 172 -1465 -1484 698zm-1697 2646l-1831 861 331 -1874 -311 -1756 1813 -853 1600 800 1819 -856 -219 1867 207 1760 -1809 851 -1600 -800z"/>
</svg>