<?xml version="1.0" encoding="UTF-8"?>
<!DOCTYPE svg PUBLIC "-//W3C//DTD SVG 1.1//EN" "http://www.w3.org/Graphics/SVG/1.1/DTD/svg11.dtd">
<svg xmlns="http://www.w3.org/2000/svg" xml:space="preserve" width="580px" height="580px" shape-rendering="geometricPrecision" text-rendering="geometricPrecision" image-rendering="optimizeQuality" fill-rule="nonzero" clip-rule="nonzero" viewBox="0 0 5800 5800" xmlns:xlink="http://www.w3.org/1999/xlink">
	<title>map_route icon</title>
	<desc>map_route icon from the IconExperience.com I-Collection. Copyright by INCORS GmbH (www.incors.com).</desc>
		<path id="curve28"  d="M2099 4311l-1831 861 331 -1874 -311 -1756 1813 -853 1600 800 1819 -856 -219 1867 207 1760 -1809 851 -1600 -800zm2443 -865c-27,45 -42,98 -42,154 0,165 135,300 300,300 165,0 300,-135 300,-300 0,-165 -135,-300 -300,-300 -37,0 -72,7 -105,19l-637 -766c26,-45 42,-97 42,-153 0,-165 -135,-300 -300,-300 -165,0 -300,135 -300,300 0,18 2,36 5,54l-909 519c-53,-46 -121,-73 -196,-73 -46,0 -90,11 -129,29l-800 -800c18,-39 29,-83 29,-129 0,-165 -135,-300 -300,-300 -165,0 -300,135 -300,300 0,165 135,300 300,300 46,0 90,-11 129,-29l800 800c-18,39 -29,83 -29,129 0,165 135,300 300,300 165,0 300,-135 300,-300 0,-18 -2,-36 -5,-54l909 -519c53,46 121,73 196,73 37,0 72,-7 105,-19l637 765z"/>
</svg>