<?xml version="1.0" encoding="UTF-8"?>
<!DOCTYPE svg PUBLIC "-//W3C//DTD SVG 1.1//EN" "http://www.w3.org/Graphics/SVG/1.1/DTD/svg11.dtd">
<svg xmlns="http://www.w3.org/2000/svg" xml:space="preserve" width="580px" height="580px" shape-rendering="geometricPrecision" text-rendering="geometricPrecision" image-rendering="optimizeQuality" fill-rule="nonzero" clip-rule="nonzero" viewBox="0 0 5800 5800" xmlns:xlink="http://www.w3.org/1999/xlink">
	<title>map_location2 icon</title>
	<desc>map_location2 icon from the IconExperience.com I-Collection. Copyright by INCORS GmbH (www.incors.com).</desc>
		<path id="curve29"  d="M532 4828l1569 -739 1600 800 1591 -749 -193 -1640 181 -1533 -602 283c-12,-67 -29,-133 -51,-197l893 -420 -219 1867 207 1760 -1809 851 -1600 -800 -1831 861 331 -1874 -311 -1756 1813 -853 43 22c-52,75 -96,156 -133,241l-1499 706 289 1639 -269 1531z"/>
	<path id="curve28"  d="M3300 800c387,0 700,313 700,700 0,387 -313,700 -700,700 -387,0 -700,-313 -700,-700 0,-387 313,-700 700,-700zm0 200c-276,0 -500,224 -500,500 0,276 224,500 500,500 276,0 500,-224 500,-500 0,-276 -224,-500 -500,-500zm0 -700c663,0 1200,537 1200,1200 0,239 -83,557 -217,756 -55,81 -123,181 -189,278 -254,372 -473,694 -707,1114l-87 157 -87 -157c-234,-420 -453,-742 -707,-1114 -66,-97 -135,-198 -189,-278 -134,-199 -217,-517 -217,-756 0,-663 537,-1200 1200,-1200zm0 200c-552,0 -1000,448 -1000,1000 0,199 71,478 183,644 76,114 133,197 188,278 224,329 422,619 629,976 207,-357 405,-647 629,-976 55,-81 112,-165 188,-278 112,-166 183,-445 183,-644 0,-552 -448,-1000 -1000,-1000z"/>
</svg>