<?xml version="1.0" encoding="UTF-8"?>
<!DOCTYPE svg PUBLIC "-//W3C//DTD SVG 1.1//EN" "http://www.w3.org/Graphics/SVG/1.1/DTD/svg11.dtd">
<svg xmlns="http://www.w3.org/2000/svg" xml:space="preserve" width="580px" height="580px" shape-rendering="geometricPrecision" text-rendering="geometricPrecision" image-rendering="optimizeQuality" fill-rule="nonzero" clip-rule="nonzero" viewBox="0 0 5800 5800" xmlns:xlink="http://www.w3.org/1999/xlink">
	<title>map_roads icon</title>
	<desc>map_roads icon from the IconExperience.com I-Collection. Copyright by INCORS GmbH (www.incors.com).</desc>
		<path id="curve28"  d="M2099 4311l-1831 861 331 -1874 -311 -1756 1813 -853 1600 800 1819 -856 -219 1867 207 1760 -1809 851 -1600 -800zm-1174 111l272 -128 478 -1116 735 -275 552 92 499 333 -370 556 168 561 245 122 -195 -651 345 -516 926 0 446 191 -26 -228 -380 -163 -779 0 456 -455 94 -1139 -208 98 -80 951 -516 516 -549 -366 -565 -94 -267 -713 231 -695 -180 -89 -220 660 -528 -176 -770 96 35 197 717 -89 532 177 249 663 -747 280 -600 1400z"/>
</svg>