<?xml version="1.0" encoding="UTF-8"?>
<!DOCTYPE svg PUBLIC "-//W3C//DTD SVG 1.1//EN" "http://www.w3.org/Graphics/SVG/1.1/DTD/svg11.dtd">
<svg xmlns="http://www.w3.org/2000/svg" xml:space="preserve" width="580px" height="580px" shape-rendering="geometricPrecision" text-rendering="geometricPrecision" image-rendering="optimizeQuality" fill-rule="nonzero" clip-rule="nonzero" viewBox="0 0 5800 5800" xmlns:xlink="http://www.w3.org/1999/xlink">
	<title>map_roads icon</title>
	<desc>map_roads icon from the IconExperience.com I-Collection. Copyright by INCORS GmbH (www.incors.com).</desc>
		<path id="curve28"  d="M925 4422l600 -1400 747 -280 -249 -663 -532 -177 -717 89 -35 -197 770 -96 528 176 220 -660 180 89 -231 695 267 713 565 94 549 366 516 -516 80 -951 208 -98 -94 1139 -456 455 779 0 380 163 26 228 -446 -191 -926 0 -345 516 195 651 -245 -122 -168 -561 370 -556 -499 -333 -552 -92 -735 275 -478 1116 -272 128zm-393 406l1569 -739 1600 800 1591 -749 -193 -1640 181 -1533 -1581 744 -1600 -800 -1587 747 289 1639 -269 1531zm1567 -517l-1831 861 331 -1874 -311 -1756 1813 -853 1600 800 1819 -856 -219 1867 207 1760 -1809 851 -1600 -800z"/>
</svg>