<?xml version="1.0" encoding="UTF-8"?>
<!DOCTYPE svg PUBLIC "-//W3C//DTD SVG 1.1//EN" "http://www.w3.org/Graphics/SVG/1.1/DTD/svg11.dtd">
<svg xmlns="http://www.w3.org/2000/svg" xml:space="preserve" width="580px" height="580px" shape-rendering="geometricPrecision" text-rendering="geometricPrecision" image-rendering="optimizeQuality" fill-rule="nonzero" clip-rule="nonzero" viewBox="0 0 5800 5800" xmlns:xlink="http://www.w3.org/1999/xlink">
	<title>map_location icon</title>
	<desc>map_location icon from the IconExperience.com I-Collection. Copyright by INCORS GmbH (www.incors.com).</desc>
		<path id="curve29"  d="M2099 4311l-1831 861 331 -1874 -311 -1756 1813 -853 1195 598c1,1 3,2 4,4 0,3 0,6 0,9 0,295 107,566 284,775l-455 454c-39,39 -39,103 0,142 39,39 103,39 142,0l454 -455c209,177 480,284 775,284 328,0 625,-131 841,-344l-40 344 207 1760 -1809 851 -1600 -800z"/>
	<path id="curve28"  d="M4500 300c552,0 1000,448 1000,1000 0,552 -448,1000 -1000,1000 -552,0 -1000,-448 -1000,-1000 0,-552 448,-1000 1000,-1000zm600 1000l-200 0c0,221 -179,400 -400,400l0 200c331,0 600,-269 600,-600z"/>
</svg>