<?xml version="1.0" encoding="UTF-8"?>
<!DOCTYPE svg PUBLIC "-//W3C//DTD SVG 1.1//EN" "http://www.w3.org/Graphics/SVG/1.1/DTD/svg11.dtd">
<svg xmlns="http://www.w3.org/2000/svg" xml:space="preserve" width="580px" height="580px" shape-rendering="geometricPrecision" text-rendering="geometricPrecision" image-rendering="optimizeQuality" fill-rule="nonzero" clip-rule="nonzero" viewBox="0 0 5800 5800" xmlns:xlink="http://www.w3.org/1999/xlink">
	<title>map icon</title>
	<desc>map icon from the IconExperience.com I-Collection. Copyright by INCORS GmbH (www.incors.com).</desc>
		<path id="curve28"  d="M1991 4362l-1723 810 298 -1687 1524 -813 -99 1690zm300 -1705l1213 606 100 1800 -1413 -706 100 -1700zm1412 607l1605 -702 200 1698 -1705 802 -100 -1798zm-3114 -18l-301 -1704 1708 -804 101 1704 -1508 804zm1607 -2509l1414 707 -100 1600 -1214 -607 -100 -1700zm1614 701l1710 -805 -200 1706 -1610 704 100 -1605z"/>
</svg>