<?xml version="1.0" encoding="UTF-8"?>
<!DOCTYPE svg PUBLIC "-//W3C//DTD SVG 1.1//EN" "http://www.w3.org/Graphics/SVG/1.1/DTD/svg11.dtd">
<svg xmlns="http://www.w3.org/2000/svg" xml:space="preserve" width="580px" height="580px" shape-rendering="geometricPrecision" text-rendering="geometricPrecision" image-rendering="optimizeQuality" fill-rule="nonzero" clip-rule="nonzero" viewBox="0 0 5800 5800" xmlns:xlink="http://www.w3.org/1999/xlink">
	<title>map_route icon</title>
	<desc>map_route icon from the IconExperience.com I-Collection. Copyright by INCORS GmbH (www.incors.com).</desc>
		<path id="curve28"  d="M532 4828l1569 -739 1600 800 1591 -749 -193 -1640 181 -1533 -1581 744 -1600 -800 -1587 747 289 1639 -269 1531zm4268 -1528c165,0 300,135 300,300 0,165 -135,300 -300,300 -165,0 -300,-135 -300,-300 0,-56 15,-109 42,-154l-637 -765c-33,12 -68,19 -105,19 -75,0 -143,-27 -196,-73l-909 519c3,18 5,36 5,54 0,165 -135,300 -300,300 -165,0 -300,-135 -300,-300 0,-46 11,-90 29,-129l-800 -800c-39,18 -83,29 -129,29 -165,0 -300,-135 -300,-300 0,-165 135,-300 300,-300 165,0 300,135 300,300 0,46 -11,90 -29,129l800 800c39,-18 83,-29 129,-29 75,0 143,27 196,73l909 -519c-3,-18 -5,-36 -5,-54 0,-165 135,-300 300,-300 165,0 300,135 300,300 0,56 -16,108 -42,153l637 766c33,-12 68,-19 105,-19zm-2701 1011l-1831 861 331 -1874 -311 -1756 1813 -853 1600 800 1819 -856 -219 1867 207 1760 -1809 851 -1600 -800z"/>
</svg>