<?xml version="1.0" encoding="UTF-8"?>
<!DOCTYPE svg PUBLIC "-//W3C//DTD SVG 1.1//EN" "http://www.w3.org/Graphics/SVG/1.1/DTD/svg11.dtd">
<svg xmlns="http://www.w3.org/2000/svg" xml:space="preserve" width="580px" height="580px" shape-rendering="geometricPrecision" text-rendering="geometricPrecision" image-rendering="optimizeQuality" fill-rule="nonzero" clip-rule="nonzero" viewBox="0 0 5800 5800" xmlns:xlink="http://www.w3.org/1999/xlink">
	<title>map_location icon</title>
	<desc>map_location icon from the IconExperience.com I-Collection. Copyright by INCORS GmbH (www.incors.com).</desc>
		<path id="curve29" d="M532 4828l1569 -739 1600 800 1591 -749 -193 -1640 21 -175c81,-49 155,-108 222,-174l-41 349 207 1760 -1809 851 -1600 -800 -1831 861 331 -1874 -311 -1756 1813 -853 1195 598c0,4 0,9 0,13 0,75 7,148 20,219l-1217 -608 -1587 747 289 1639 -269 1531z"/>
	<path id="curve28" d="M3865 2076l-594 595c-39,39 -103,39 -142,0 -39,-39 -39,-103 0,-142l594 -594c-142,-173 -227,-394 -227,-635 0,-552 448,-1000 1000,-1000 552,0 1000,448 1000,1000 0,552 -448,1000 -1000,1000 -239,0 -459,-84 -631,-224zm1235 -776c0,331 -269,600 -600,600l0 -200c221,0 400,-179 400,-400l200 0zm-604 -800c-442,0 -800,358 -800,800 0,221 89,421 234,566 145,144 345,234 566,234 442,0 800,-358 800,-800 0,-442 -358,-800 -800,-800z"/>
</svg>