<?xml version="1.0" encoding="UTF-8"?>
<!DOCTYPE svg PUBLIC "-//W3C//DTD SVG 1.1//EN" "http://www.w3.org/Graphics/SVG/1.1/DTD/svg11.dtd">
<svg xmlns="http://www.w3.org/2000/svg" xml:space="preserve" width="580px" height="580px" shape-rendering="geometricPrecision" text-rendering="geometricPrecision" image-rendering="optimizeQuality" fill-rule="nonzero" clip-rule="nonzero" viewBox="0 0 5800 5800" xmlns:xlink="http://www.w3.org/1999/xlink">
	<title>marionette icon</title>
	<desc>marionette icon from the IconExperience.com I-Collection. Copyright by INCORS GmbH (www.incors.com).</desc>
		<path id="curve28" d="M3247 793l1506 -400 154 579 -406 108 -1 820 -200 0 2 -767 -323 86 248 144 -301 518 -626 -364 0 383 -200 0 0 -448 -600 160 0 1804 222 -278c7,-8 14,-15 22,-21 69,-132 205,-217 356,-217l100 0c-220,0 -400,-180 -400,-400 0,-221 179,-400 400,-400 220,0 400,180 400,400 0,221 -179,400 -400,400l100 0c132,0 255,65 330,174l486 -243 188 -658c15,-53 70,-84 123,-69 53,15 84,70 69,123l-200 700c-8,26 -25,49 -51,62l-547 273c1,13 2,25 2,38l0 700c0,142 -101,265 -239,294 21,18 34,45 34,75l0 1100c0,55 -44,100 -100,100 -55,0 -100,-45 -100,-100l0 -1100c0,-27 11,-51 28,-69l-323 0c0,31 -15,61 -42,81l-458 330 0 489c0,55 -45,100 -100,100 -55,0 -100,-45 -100,-100l0 -540c0,-31 15,-61 42,-81l475 -342c-73,-57 -117,-143 -117,-237l0 -516 -200 250 0 566 -200 0 0 -482 -484 80c-54,9 -105,-27 -114,-82 -9,-54 27,-105 82,-114l516 -86 0 -1951 -400 106 0 1729 -200 0 0 -1676 -368 98 -154 -579 1122 -299 0 -108 -436 -254 301 -518 1082 629zm53 2307l-200 0c-110,0 -200,90 -200,200l0 700c0,28 11,52 29,71 18,18 43,29 71,29l400 0c55,0 100,-45 100,-100l0 -700c0,-110 -90,-200 -200,-200zm-100 -800c-110,0 -200,90 -200,200 0,111 89,200 200,200 110,0 200,-90 200,-200 0,-111 -89,-200 -200,-200zm-700 -1102l0 207 689 -183 665 387 101 -174 -492 -286 1200 -319 -51 -193 -1394 370 -981 -571 -101 174 809 470 -445 118zm-200 260l0 -207 -878 233 52 194 826 -220z"/>
</svg>