<?xml version="1.0" encoding="UTF-8"?>
<!DOCTYPE svg PUBLIC "-//W3C//DTD SVG 1.1//EN" "http://www.w3.org/Graphics/SVG/1.1/DTD/svg11.dtd">
<svg xmlns="http://www.w3.org/2000/svg" xml:space="preserve" width="580px" height="580px" shape-rendering="geometricPrecision" text-rendering="geometricPrecision" image-rendering="optimizeQuality" fill-rule="nonzero" clip-rule="nonzero" viewBox="0 0 5800 5800" xmlns:xlink="http://www.w3.org/1999/xlink">
	<title>market_stand icon</title>
	<desc>market_stand icon from the IconExperience.com I-Collection. Copyright by INCORS GmbH (www.incors.com).</desc>
		<path id="curve29"  d="M500 5500l0 -2507c118,68 254,107 400,107 184,0 360,-63 500,-175 140,112 316,175 500,175 184,0 360,-63 500,-175 140,112 316,175 500,175 184,0 360,-63 500,-175 140,112 316,175 500,175 185,0 360,-63 500,-175 140,112 316,175 500,175l200 -25 0 2425 -400 0 0 -1000 -1400 0 0 -598 -600 0 0 -400 -1200 0 0 998 -400 0 0 1000 -600 0zm4000 0l-3200 0 0 -800 3200 0 0 800zm-401 -2200c-331,0 -599,268 -599,599 0,330 268,599 599,599 330,0 599,-269 599,-599 0,-331 -269,-599 -599,-599zm0 200c-220,0 -399,178 -399,399 0,220 178,399 399,399 220,0 399,-179 399,-399 0,-221 -179,-399 -399,-399zm-1599 402l0 -200 -800 0 0 798 400 0 0 -598 400 0zm-200 598l800 0 0 -398 -800 0 0 398z"/>
	<path id="curve28"  d="M5500 2300c0,331 -269,600 -600,600 -202,0 -389,-101 -500,-268 -111,167 -298,268 -500,268 -202,0 -389,-101 -500,-268 -111,167 -298,268 -500,268 -202,0 -389,-101 -500,-268 -111,167 -298,268 -500,268 -202,0 -389,-101 -500,-268 -111,167 -298,268 -500,268 -331,0 -600,-269 -600,-600l0 -200 25 -65 805 -935 3540 0 830 963 0 237zm-1200 0l0 -176 -426 -824 -511 0 137 792 0 226c9,213 186,382 400,382 221,0 400,-179 400,-400zm-2000 0l0 -208 137 -792 -511 0 -426 824 0 176c0,221 179,400 400,400 221,0 400,-179 400,-400z"/>
</svg>