<?xml version="1.0" encoding="UTF-8"?>
<!DOCTYPE svg PUBLIC "-//W3C//DTD SVG 1.1//EN" "http://www.w3.org/Graphics/SVG/1.1/DTD/svg11.dtd">
<svg xmlns="http://www.w3.org/2000/svg" xml:space="preserve" width="580px" height="580px" shape-rendering="geometricPrecision" text-rendering="geometricPrecision" image-rendering="optimizeQuality" fill-rule="nonzero" clip-rule="nonzero" viewBox="0 0 5800 5800" xmlns:xlink="http://www.w3.org/1999/xlink">
	<title>marker icon</title>
	<desc>marker icon from the IconExperience.com I-Collection. Copyright by INCORS GmbH (www.incors.com).</desc>
		<path id="curve28"  d="M1000 4741l-552 557 617 0c102,0 104,-2 114,-13l181 -184 -360 -360zm-703 426l562 -567 -107 -107 360 -360c35,-35 40,-91 13,-132 -107,-162 -87,-361 51,-498l2727 -2719c159,-158 407,-158 566,0l848 849c158,158 158,407 0,565l-2727 2719c-138,137 -336,158 -498,51 -42,-27 -97,-22 -132,13l-360 360 -99 -99 -179 182c-60,63 -72,74 -257,74l-635 0c-37,0 -70,-6 -100,-22 -110,-61 -120,-221 -33,-309zm4030 -4242c-81,-80 -202,-80 -283,0l-2242 2236 1132 1131 2242 -2236c83,-82 81,-200 0,-282l-849 -849zm-1878 3851l343 -342 -1132 -1132 -343 342c-71,71 -81,164 -26,247 80,120 64,281 -38,383l-219 219 566 566 219 -219c101,-102 263,-118 383,-38 83,55 177,44 247,-26z"/>
</svg>