<?xml version="1.0" encoding="UTF-8"?>
<!DOCTYPE svg PUBLIC "-//W3C//DTD SVG 1.1//EN" "http://www.w3.org/Graphics/SVG/1.1/DTD/svg11.dtd">
<svg xmlns="http://www.w3.org/2000/svg" xml:space="preserve" width="580px" height="580px" shape-rendering="geometricPrecision" text-rendering="geometricPrecision" image-rendering="optimizeQuality" fill-rule="nonzero" clip-rule="nonzero" viewBox="0 0 5800 5800" xmlns:xlink="http://www.w3.org/1999/xlink">
	<title>mask icon</title>
	<desc>mask icon from the IconExperience.com I-Collection. Copyright by INCORS GmbH (www.incors.com).</desc>
		<path id="curve28" d="M2900 2900c-278,0 -379,129 -589,262 -161,102 -336,138 -525,138 -403,0 -764,-193 -1030,-480 -282,-306 -456,-719 -456,-1120 0,-538 803,-599 1200,-600 272,0 522,54 764,107 217,47 429,93 636,93 207,0 419,-46 637,-93 241,-53 491,-107 763,-107 397,1 1200,63 1200,600 0,401 -174,814 -456,1120 -266,287 -627,480 -1030,480 -189,0 -364,-36 -525,-138 -210,-133 -311,-262 -589,-262zm0 -200c341,0 442,132 696,293 131,83 266,107 418,107 343,0 653,-167 883,-416 249,-269 403,-633 403,-984 0,-367 -741,-400 -1000,-400 -248,-1 -488,52 -721,102 -229,50 -451,98 -679,98 -228,0 -450,-48 -679,-98 -233,-50 -473,-103 -721,-102 -259,0 -1000,33 -1000,400 0,351 154,715 403,984 230,249 540,416 883,416 152,0 287,-24 418,-107 254,-161 355,-293 696,-293zm-1100 -1000c181,0 347,38 469,99 143,71 231,177 231,301 0,124 -88,230 -231,301 -122,61 -288,99 -469,99 -181,0 -347,-38 -469,-99 -143,-71 -231,-177 -231,-301 0,-124 88,-230 231,-301 122,-61 288,-99 469,-99zm380 277c-95,-48 -229,-77 -380,-77 -151,0 -285,29 -380,77 -74,37 -120,81 -120,123 0,42 46,86 120,123 95,48 229,77 380,77 151,0 285,-29 380,-77 74,-37 120,-81 120,-123 0,-42 -46,-86 -120,-123zm2920 1070l0 2053 -200 0 0 -1890c70,-49 137,-104 200,-163zm-1100 -1347c181,0 347,38 469,99 143,71 231,177 231,301 0,124 -88,230 -231,301 -122,61 -288,99 -469,99 -181,0 -347,-38 -469,-99 -143,-71 -231,-177 -231,-301 0,-124 88,-230 231,-301 122,-61 288,-99 469,-99zm380 277c-95,-48 -229,-77 -380,-77 -151,0 -285,29 -380,77 -74,37 -120,81 -120,123 0,42 46,86 120,123 95,48 229,77 380,77 151,0 285,-29 380,-77 74,-37 120,-81 120,-123 0,-42 -46,-86 -120,-123z"/>
</svg>