<?xml version="1.0" encoding="UTF-8"?>
<!DOCTYPE svg PUBLIC "-//W3C//DTD SVG 1.1//EN" "http://www.w3.org/Graphics/SVG/1.1/DTD/svg11.dtd">
<svg xmlns="http://www.w3.org/2000/svg" xml:space="preserve" width="580px" height="580px" shape-rendering="geometricPrecision" text-rendering="geometricPrecision" image-rendering="optimizeQuality" fill-rule="nonzero" clip-rule="nonzero" viewBox="0 0 5800 5800" xmlns:xlink="http://www.w3.org/1999/xlink">
	<title>mask icon</title>
	<desc>mask icon from the IconExperience.com I-Collection. Copyright by INCORS GmbH (www.incors.com).</desc>
		<path id="curve28"  d="M5100 3047l0 2053 -200 0 0 -1890c70,-49 137,-104 200,-163zm-2200 -147c-214,0 -317,72 -450,167 -132,93 -233,164 -395,203 -87,22 -176,30 -269,30 -403,0 -764,-193 -1030,-480 -282,-306 -456,-719 -456,-1120 0,-284 224,-436 497,-516 245,-71 531,-84 703,-84 488,0 937,200 1400,200 463,0 912,-200 1400,-200 172,0 458,13 703,84 273,80 497,232 497,516 0,401 -174,814 -456,1120 -266,287 -627,480 -1030,480 -93,0 -182,-8 -269,-30 -162,-39 -263,-110 -395,-203 -133,-95 -236,-167 -450,-167zm-1100 -1100c-331,0 -600,134 -600,300 0,166 269,300 600,300 331,0 600,-134 600,-300 0,-166 -269,-300 -600,-300zm2200 0c-331,0 -600,134 -600,300 0,166 269,300 600,300 331,0 600,-134 600,-300 0,-166 -269,-300 -600,-300z"/>
</svg>