<?xml version="1.0" encoding="UTF-8"?>
<!DOCTYPE svg PUBLIC "-//W3C//DTD SVG 1.1//EN" "http://www.w3.org/Graphics/SVG/1.1/DTD/svg11.dtd">
<svg xmlns="http://www.w3.org/2000/svg" xml:space="preserve" width="580px" height="580px" shape-rendering="geometricPrecision" text-rendering="geometricPrecision" image-rendering="optimizeQuality" fill-rule="nonzero" clip-rule="nonzero" viewBox="0 0 5800 5800" xmlns:xlink="http://www.w3.org/1999/xlink">
	<title>masks icon</title>
	<desc>masks icon from the IconExperience.com I-Collection. Copyright by INCORS GmbH (www.incors.com).</desc>
		<path id="curve28"  d="M4714 327l358 720c102,203 199,419 276,636 78,221 133,443 148,657 41,595 -236,1134 -572,1604 -457,-13 -908,-75 -1315,-298l293 -588 -1341 -670c-134,-264 -263,-529 -395,-793l2548 -1268zm-1080 2820l-359 719c-102,204 -215,411 -342,604 -130,194 -274,372 -436,512 -451,392 -1046,494 -1624,509 -336,-472 -609,-1008 -569,-1604 15,-218 69,-437 147,-655 76,-216 175,-429 279,-637l359 -719 2545 1271zm-1533 297l179 89c44,-88 158,-126 246,-82 88,44 126,158 82,246l179 89c93,-186 14,-421 -172,-514 -186,-93 -421,-14 -514,172zm-5 937l-154 -127c-119,144 -322,187 -488,104 -166,-83 -253,-269 -211,-449l-195 -45c-63,269 69,549 317,673 249,124 553,60 731,-156zm-1009 -1444l179 89c44,-88 158,-126 246,-82 88,44 126,158 82,246l179 90c93,-186 14,-422 -172,-515 -186,-93 -421,-14 -514,172zm2020 -960l-179 89c96,192 322,260 514,173 187,-93 266,-328 173,-515l-179 90c44,88 6,201 -82,245 -88,45 -203,6 -247,-82zm1016 -505l-179 89c92,186 328,265 514,172 186,-92 265,-328 172,-514l-179 89c44,89 6,202 -82,246 -89,44 -203,6 -246,-82zm695 1363l155 -126c-177,-216 -481,-281 -731,-157 -248,124 -380,403 -317,673l194 -45c-42,-181 46,-366 212,-449 167,-83 369,-40 487,104z"/>
</svg>