<?xml version="1.0" encoding="UTF-8"?>
<!DOCTYPE svg PUBLIC "-//W3C//DTD SVG 1.1//EN" "http://www.w3.org/Graphics/SVG/1.1/DTD/svg11.dtd">
<svg xmlns="http://www.w3.org/2000/svg" xml:space="preserve" width="580px" height="580px" shape-rendering="geometricPrecision" text-rendering="geometricPrecision" image-rendering="optimizeQuality" fill-rule="nonzero" clip-rule="nonzero" viewBox="0 0 5800 5800" xmlns:xlink="http://www.w3.org/1999/xlink">
	<title>masks icon</title>
	<desc>masks icon from the IconExperience.com I-Collection. Copyright by INCORS GmbH (www.incors.com).</desc>
		<path id="curve29"  d="M4714 327l358 720c102,203 199,419 276,636 186,529 213,962 8,1494 -101,262 -246,506 -401,723l-31 44 -53 -2c-268,-7 -550,-39 -817,-116 -154,-44 -304,-103 -445,-180l89 -179c129,71 268,126 410,167 234,67 479,98 715,107 135,-194 259,-409 347,-636 188,-487 160,-872 -10,-1355 -73,-208 -168,-416 -267,-614l-269 -541 -2190 1090 269 541c53,107 108,213 166,315l-308 -153c-134,-263 -264,-529 -395,-793l2548 -1268zm-1607 1650l-179 89c96,192 322,260 514,173 187,-93 266,-328 173,-515l-179 90c44,88 6,201 -82,245 -88,45 -203,6 -247,-82zm1016 -505l-179 89c92,186 328,265 514,172 186,-92 265,-328 172,-514l-179 89c44,89 6,202 -82,246 -89,44 -203,6 -246,-82zm695 1363l155 -126c-177,-216 -481,-281 -731,-157 -248,124 -380,403 -317,673l194 -45c-42,-181 46,-366 212,-449 167,-83 369,-40 487,104z"/>
	<path id="curve28"  d="M2096 4381c-178,216 -482,280 -731,156 -248,-124 -380,-404 -317,-673l195 45c-42,180 45,366 211,449 166,83 369,40 488,-104l154 127zm5 -937c93,-186 328,-265 514,-172 186,93 265,328 172,514l-179 -89c44,-88 6,-202 -82,-246 -88,-44 -202,-6 -246,82l-179 -89zm-1014 -507c93,-186 328,-265 514,-172 186,93 265,329 172,515l-179 -90c44,-88 6,-202 -82,-246 -88,-44 -202,-6 -246,82l-179 -89zm2547 210l-359 719c-102,204 -215,411 -342,604 -310,466 -640,748 -1189,904 -268,77 -550,109 -818,116l-53 1 -31 -43c-155,-218 -298,-462 -398,-723 -203,-528 -179,-969 7,-1493 76,-216 175,-429 279,-637l359 -719 2545 1271zm-268 90l-2188 -1093 -270 540c-101,203 -196,409 -269,614 -170,479 -195,873 -10,1356 87,225 210,440 345,635 236,-9 481,-40 716,-107 502,-143 793,-396 1076,-823 122,-183 231,-384 330,-582l270 -540z"/>
</svg>