<?xml version="1.0" encoding="UTF-8"?>
<!DOCTYPE svg PUBLIC "-//W3C//DTD SVG 1.1//EN" "http://www.w3.org/Graphics/SVG/1.1/DTD/svg11.dtd">
<svg xmlns="http://www.w3.org/2000/svg" xml:space="preserve" width="580px" height="580px" shape-rendering="geometricPrecision" text-rendering="geometricPrecision" image-rendering="optimizeQuality" fill-rule="nonzero" clip-rule="nonzero" viewBox="0 0 1024 1024" xmlns:xlink="http://www.w3.org/1999/xlink">
	<path d="M935.6,68.2h-844c-13.3,0-24,10.7-24,24v844c0,13.3,10.7,24,24,24h844c13.3,0,24-10.7,24-24v-844C959.6,78.9,948.9,68.2,935.6,68.2z M911.6,912.2h-796v-796h796V912.2z"/>
	<rect x="230" y="555.3" transform="matrix(0.5876 -0.8092 0.8092 0.5876 -389.0738 457.2008)" width="48" height="110"/>
	<polygon class="st0" points="525.8,697.6 485.5,671.5 451.6,724.1 369.2,664.3 341,703.1 466.1,790 			"/>
	<rect x="518.6" y="555.6" transform="matrix(0.543 -0.8398 0.8398 0.543 -224.5957 746.5513)" width="110" height="48"/>
	<rect x="714" y="253.3" transform="matrix(0.543 -0.8398 0.8398 0.543 118.6079 772.5293)" width="110" height="48"/>
	<rect x="616.3" y="404.5" transform="matrix(0.543 -0.8398 0.8398 0.543 -52.9939 759.5403)" width="110" height="48"/>
</svg>
