<?xml version="1.0" encoding="UTF-8"?>
<!DOCTYPE svg PUBLIC "-//W3C//DTD SVG 1.1//EN" "http://www.w3.org/Graphics/SVG/1.1/DTD/svg11.dtd">
<svg xmlns="http://www.w3.org/2000/svg" xml:space="preserve" width="580px" height="580px" shape-rendering="geometricPrecision" text-rendering="geometricPrecision" image-rendering="optimizeQuality" fill-rule="nonzero" clip-rule="nonzero" viewBox="0 0 1024 1024" xmlns:xlink="http://www.w3.org/1999/xlink">
	<path d="M998,502h-84V53c0-10.5-8.5-19-19-19H215.3c-10.5,0-19,8.5-19,19v85h-69.3c-10.5,0-19,8.5-19,19v88.9H29
		c-10.5,0-19,8.5-19,19v493.5c0,10.5,8.5,19,19,19h476V995c0,10.5,8.5,19,19,19h474c10.5,0,19-8.5,19-19V521
		C1017,510.5,1008.5,502,998,502z M234.3,72H876v430h-50.3V157c0-10.5-8.5-19-19-19H234.3V72z M146.1,176h641.6V502h-60.1V264.8
		c0-10.5-8.5-19-19-19H146.1V176z M505,521v13l-55.5-53.7l240.2-165V502H524C513.5,502,505,510.5,505,521z M668.4,283.8L369.8,489
		L72.6,283.8H668.4z M48,313l238.3,164.5L48,708.4V313z M70.7,739.3l247.5-239.8l40.8,28.2c3.2,2.2,7,3.4,10.8,3.4
		c3.8,0,7.5-1.1,10.8-3.3l37-25.4l87.5,84.6v152.4H70.7z M979,976H543V540h436V976z"/>
	<path d="M635.6,775.5h111.3v111.3c0,10.5,8.5,19,19,19s19-8.5,19-19V775.5h111.3c10.5,0,19-8.5,19-19s-8.5-19-19-19
		H784.9V626.2c0-10.5-8.5-19-19-19s-19,8.5-19,19v111.3H635.6c-10.5,0-19,8.5-19,19S625.1,775.5,635.6,775.5z"/>
</svg>
