<?xml version="1.0" encoding="UTF-8"?>
<!DOCTYPE svg PUBLIC "-//W3C//DTD SVG 1.1//EN" "http://www.w3.org/Graphics/SVG/1.1/DTD/svg11.dtd">
<svg xmlns="http://www.w3.org/2000/svg" xml:space="preserve" width="580px" height="580px" shape-rendering="geometricPrecision" text-rendering="geometricPrecision" image-rendering="optimizeQuality" fill-rule="nonzero" clip-rule="nonzero" viewBox="0 0 1024 1024" xmlns:xlink="http://www.w3.org/1999/xlink">
	<path d="M932.5,172.7L786.3,17.8c-3.8-4-9-6.3-14.5-6.3H347.2c-11,0-20,9-20,20v92.6h-98.3c-11,0-20,9-20,20v91.4
		h-99.4c-11,0-20,9-20,20v741.6c0,11,9,20,20,20h570.8c11,0,20-9,20-20v-91.4h99.4c11,0,20-9,20-20v-92.6h98.3c11,0,20-9,20-20
		V186.4C937.9,181.3,936,176.4,932.5,172.7z M787.7,77.5l87.1,92.3h-87.1V77.5z M660.2,977.2H129.5V275.5H510v138.4
		c0,11,9,20,20,20h130.2V977.2z M550,393.9v-92.3l87.1,92.3H550z M779.6,865.7h-79.4V410.4c0-5.1-2-10-5.5-13.7L548.6,241.8
		c-3.8-4-9-6.3-14.5-6.3H248.9v-71.4h380.5v138.4c0,11,9,20,20,20h130.2V865.7z M669.4,282.4v-92.3l87.1,92.3H669.4z M897.9,753.1
		h-78.3V299c0-5.1-2-10-5.5-13.7L668,130.4c-3.8-4-9-6.3-14.5-6.3H367.2V51.5h380.5v138.4c0,11,9,20,20,20h130.2V753.1z"/>
	<rect x="195" y="842.6" width="257.5" height="40.4"/>
	<rect x="415.4" y="569.6" width="181.6" height="40.4"/>
	<rect x="195" y="706.1" width="402" height="40.4"/>
	<path d="M211.7,619.8c2.2,0.8,4.5,1.2,6.7,1.2c8.2,0,15.9-5.1,18.8-13.3l4.3-12.1h92.3c0.4,0,0.7,0,1.1-0.1l4.8,12.5
		c3.9,10.3,15.5,15.5,25.8,11.6c10.3-3.9,15.5-15.5,11.6-25.8l-72.3-190.1c-3-7.8-10.4-12.9-18.7-12.9c-0.1,0-0.1,0-0.2,0
		c-8.4,0.1-15.8,5.4-18.6,13.3l-67.7,190.1C195.9,604.6,201.3,616.1,211.7,619.8z M286.8,468.8l33,86.8h-63.9L286.8,468.8z"/>
</svg>
