<?xml version="1.0" encoding="UTF-8"?>
<!DOCTYPE svg PUBLIC "-//W3C//DTD SVG 1.1//EN" "http://www.w3.org/Graphics/SVG/1.1/DTD/svg11.dtd">
<svg xmlns="http://www.w3.org/2000/svg" xml:space="preserve" width="580px" height="580px" shape-rendering="geometricPrecision" text-rendering="geometricPrecision" image-rendering="optimizeQuality" fill-rule="nonzero" clip-rule="nonzero" viewBox="0 0 1024 1024" xmlns:xlink="http://www.w3.org/1999/xlink">
	<path class="st0" d="M449.7,796.1c4.6,5,11,7.9,17.8,7.9c0.8,0,1.6,0,2.3-0.1c7.5-0.7,14.3-5,18.2-11.5l331.7-549.9
		c6.8-11.4,3.2-26.1-8.2-32.9c-11.3-6.8-26.1-3.2-32.9,8.2L463.5,740L265.8,522.3c-8.9-9.8-24.1-10.5-33.9-1.6
		c-9.8,8.9-10.5,24.1-1.6,33.9L449.7,796.1z"/>
	<path class="st0" d="M935.6,68.2h-844c-13.3,0-24,10.7-24,24v844c0,13.3,10.7,24,24,24h844c13.3,0,24-10.7,24-24v-844
		C959.6,78.9,948.9,68.2,935.6,68.2z M911.6,912.2h-796v-796h796V912.2z"/>
</svg>
