<?xml version="1.0" encoding="UTF-8"?>
<!DOCTYPE svg PUBLIC "-//W3C//DTD SVG 1.1//EN" "http://www.w3.org/Graphics/SVG/1.1/DTD/svg11.dtd">
<svg xmlns="http://www.w3.org/2000/svg" xml:space="preserve" width="580px" height="580px" shape-rendering="geometricPrecision" text-rendering="geometricPrecision" image-rendering="optimizeQuality" fill-rule="nonzero" clip-rule="nonzero" viewBox="0 0 1024 1024" xmlns:xlink="http://www.w3.org/1999/xlink">
	<path d="M477.5,495.3H257.1v-38h220.4V495.3z M103.7,593.8h373.8v-38H103.7V593.8z M477.5,654.3H103.7v38h373.8V654.3
		z M340.3,753.2H103.7v38h236.7V753.2z"/>
	<path d="M114.2,502.2c2.1,0.8,4.3,1.1,6.4,1.1c7.8,0,15.1-4.9,17.9-12.6l2-5.7h61l2.3,6c3.7,9.8,14.7,14.7,24.5,11
		c9.8-3.7,14.7-14.7,11-24.5l-52.1-137.1c-2.8-7.4-9.9-12.2-17.8-12.2c-0.1,0-0.1,0-0.2,0c-8,0.1-15,5.1-17.7,12.6L102.7,478
		C99.2,487.9,104.3,498.7,114.2,502.2z M170,402.2l17.1,44.9h-33L170,402.2z"/>
	<path d="M998,502H775V164c0-4.8-1.9-9.5-5.2-13L639.7,13.1c-3.6-3.8-8.6-6-13.8-6H248c-10.5,0-19,8.5-19,19v81.2
		h-86.3c-10.5,0-19,8.5-19,19v80.2H36.5c-10.5,0-19,8.5-19,19v660.1c0,10.5,8.5,19,19,19H505V995c0,10.5,8.5,19,19,19h474
		c10.5,0,19-8.5,19-19V521C1017,510.5,1008.5,502,998,502z M641.3,70.1l73.6,77.9h-73.6V70.1z M267,45.1h336.3V167
		c0,10.5,8.5,19,19,19H737v316h-67.3V264.2c0-4.8-1.9-9.5-5.2-13L534.4,113.3c-3.6-3.8-8.6-6-13.8-6H267V45.1z M609.6,248.2H536
		v-77.9L609.6,248.2z M161.8,145.3H498v121.9c0,10.5,8.5,19,19,19h114.7V502h-68.3V363.3c0-4.8-1.9-9.5-5.2-13L428.2,212.5
		c-3.6-3.8-8.6-6-13.8-6H161.8V145.3z M503.3,347.4h-73.6v-77.9L503.3,347.4z M55.5,866.6V244.5h336.3v121.9c0,10.5,8.5,19,19,19
		h114.7V502H524c-10.5,0-19,8.5-19,19v345.6H55.5z M979,976H543V540h436V976z"/>
	<path d="M635.6,775.5h111.3v111.3c0,10.5,8.5,19,19,19s19-8.5,19-19V775.5h111.3c10.5,0,19-8.5,19-19s-8.5-19-19-19
		H784.9V626.2c0-10.5-8.5-19-19-19s-19,8.5-19,19v111.3H635.6c-10.5,0-19,8.5-19,19S625.1,775.5,635.6,775.5z"/>
</svg>
