<?xml version="1.0" encoding="UTF-8"?>
<!DOCTYPE svg PUBLIC "-//W3C//DTD SVG 1.1//EN" "http://www.w3.org/Graphics/SVG/1.1/DTD/svg11.dtd">
<svg xmlns="http://www.w3.org/2000/svg" xml:space="preserve" width="580px" height="580px" shape-rendering="geometricPrecision" text-rendering="geometricPrecision" image-rendering="optimizeQuality" fill-rule="nonzero" clip-rule="nonzero" viewBox="0 0 5800 5800" xmlns:xlink="http://www.w3.org/1999/xlink">
	<title>matryoshka icon</title>
	<desc>matryoshka icon from the IconExperience.com I-Collection. Copyright by INCORS GmbH (www.incors.com).</desc>
	<path id="curve0" d="M3900 1562c-1,199 -29,389 -136,560 -90,142 -220,252 -397,377 -97,68 -226,109 -360,123 169,707 774,1206 1493,1272 -1,-225 -28,-443 -80,-651 -55,-218 -135,-425 -238,-617 -78,-146 -94,-303 -44,-461 41,-134 62,-274 62,-415 0,-725 -561,-1350 -1300,-1350 -739,0 -1300,625 -1300,1350 0,141 21,281 62,415 50,158 34,315 -44,461 -103,192 -183,399 -238,617 -52,208 -80,426 -80,651 719,-65 1324,-564 1493,-1272 -134,-14 -263,-55 -360,-123 -177,-125 -307,-235 -397,-377 -107,-171 -135,-361 -136,-560 0,-512 500,-960 1000,-962 500,2 1000,450 1000,962zm685 3147c-77,267 -191,517 -336,745l-30 46 -2638 0 -30 -46c-145,-228 -259,-478 -336,-745 -75,-257 -115,-529 -115,-809 0,-243 30,-480 87,-706 58,-232 144,-454 256,-661 53,-100 62,-201 29,-309 -48,-153 -72,-313 -72,-474 0,-834 652,-1550 1500,-1550 848,0 1500,716 1500,1550 0,161 -24,321 -72,474 -33,108 -24,209 29,309 112,207 198,429 256,661 57,226 87,463 87,706 0,275 -38,545 -115,809zm-92 -616c-705,-60 -1324,-497 -1593,-1154 -269,658 -887,1095 -1593,1155 13,193 47,381 99,560 67,229 163,446 285,646l2418 0c122,-200 218,-417 285,-646 52,-179 86,-367 99,-561zm-793 -2531c0,-401 -410,-761 -800,-762 -390,1 -800,361 -800,762 1,158 19,317 105,453 72,115 186,210 343,321 88,61 219,92 352,92 133,0 264,-31 352,-92 157,-111 271,-206 343,-321 70,-112 104,-253 105,-453zm-771 -381c172,-172 452,-172 625,0l-142 141c-94,-94 -247,-94 -341,0l-142 -141zm-683 0c172,-172 453,-172 625,0l-142 141c-93,-94 -247,-94 -341,0l-142 -141zm443 635c64,-40 138,-60 211,-60 73,0 146,20 210,59l95 59 -68 87c-57,73 -145,115 -237,116 -94,0 -179,-42 -236,-115l-69 -88 94 -58z"/>
</svg>