<?xml version="1.0" encoding="UTF-8"?>
<!DOCTYPE svg PUBLIC "-//W3C//DTD SVG 1.1//EN" "http://www.w3.org/Graphics/SVG/1.1/DTD/svg11.dtd">
<svg xmlns="http://www.w3.org/2000/svg" xml:space="preserve" width="580px" height="580px" shape-rendering="geometricPrecision" text-rendering="geometricPrecision" image-rendering="optimizeQuality" fill-rule="nonzero" clip-rule="nonzero" viewBox="0 0 5800 5800" xmlns:xlink="http://www.w3.org/1999/xlink">
	<title>matryoshka icon</title>
	<desc>matryoshka icon from the IconExperience.com I-Collection. Copyright by INCORS GmbH (www.incors.com).</desc>
	<path id="curve0"  d="M1551 5454c-259,-407 -411,-873 -444,-1354 32,0 74,3 104,-1 743,-27 1407,-470 1689,-1160 282,689 946,1132 1688,1160 30,4 74,1 105,1 -33,481 -185,947 -444,1354l-30 46 -2638 0 -30 -46zm-451 -1554c0,-478 117,-946 343,-1367 53,-100 62,-201 29,-309 -48,-153 -72,-313 -72,-474 0,-834 652,-1550 1500,-1550 848,0 1500,716 1500,1550 0,161 -24,321 -72,474 -33,108 -24,209 29,309 226,421 343,889 343,1367 -34,0 -71,-1 -104,0 -699,-27 -1309,-460 -1539,-1108 -34,-96 -57,-168 -57,-269 117,-13 227,-48 309,-106 335,-235 489,-411 491,-852 2,-477 -477,-865 -900,-865 -423,0 -902,388 -900,865 2,441 156,617 491,852 82,58 192,93 309,106 0,101 -24,175 -58,272 -230,646 -839,1079 -1536,1105 -34,-2 -72,0 -106,0zm1829 -2719c172,-172 452,-172 625,0l-142 141c-94,-94 -247,-94 -341,0l-142 -141zm-683 0c172,-172 453,-172 625,0l-142 141c-93,-94 -247,-94 -341,0l-142 -141zm654 575c130,0 202,54 305,118l-68 87c-57,73 -145,115 -237,116 -94,0 -179,-42 -236,-115l-69 -88c104,-64 174,-118 305,-118z"/>
</svg>