<?xml version="1.0" encoding="UTF-8"?>
<!DOCTYPE svg PUBLIC "-//W3C//DTD SVG 1.1//EN" "http://www.w3.org/Graphics/SVG/1.1/DTD/svg11.dtd">
<svg xmlns="http://www.w3.org/2000/svg" xml:space="preserve" width="580px" height="580px" shape-rendering="geometricPrecision" text-rendering="geometricPrecision" image-rendering="optimizeQuality" fill-rule="nonzero" clip-rule="nonzero" viewBox="0 0 5800 5800" xmlns:xlink="http://www.w3.org/1999/xlink">
	<title>maximize icon</title>
	<desc>maximize icon from the IconExperience.com I-Collection. Copyright by INCORS GmbH (www.incors.com).</desc>
		<path id="curve28"  d="M5300 500l0 4800 -2800 0 0 -200 2600 0 0 -4400 -4400 0 0 2600 -200 0 0 -2800 4800 0zm-3341 3200l2400 -2400 -1059 0 0 -200 1400 0 0 1400 -200 0 0 -1059 -2400 2400 0 1459 -1600 0 0 -1600 1459 0zm-59 200l-1200 0 0 1200 1200 0 0 -1200z"/>
</svg>