<?xml version="1.0" encoding="UTF-8"?>
<!DOCTYPE svg PUBLIC "-//W3C//DTD SVG 1.1//EN" "http://www.w3.org/Graphics/SVG/1.1/DTD/svg11.dtd">
<svg xmlns="http://www.w3.org/2000/svg" xml:space="preserve" width="580px" height="580px" shape-rendering="geometricPrecision" text-rendering="geometricPrecision" image-rendering="optimizeQuality" fill-rule="nonzero" clip-rule="nonzero" viewBox="0 0 5800 5800" xmlns:xlink="http://www.w3.org/1999/xlink">
	<title>mda icon</title>
	<desc>mda icon from the IconExperience.com I-Collection. Copyright by INCORS GmbH (www.incors.com).</desc>
	<path id="curve0"  d="M5300 3400l0 1800c0,165 -135,300 -300,300l-4200 0c-165,0 -300,-135 -300,-300l0 -1800c84,63 188,100 300,100l4200 0c112,0 216,-37 300,-100zm-4200 -2700l0 2200 3600 0 0 -2200 -3600 0zm3400 200l0 1800 -3200 0 0 -1800 3200 0zm-3700 -600l4200 0c162,0 300,129 300,293l0 2414c0,164 -138,293 -300,293l-4200 0c-162,0 -300,-129 -300,-293l0 -2414c0,-164 138,-293 300,-293zm3300 4000c0,133 0,267 0,400 133,0 267,0 400,0 0,-133 0,-267 0,-400 -133,0 -267,0 -400,0zm-200 -600c0,133 0,267 0,400 133,0 267,0 400,0 0,-133 0,-267 0,-400 -133,0 -267,0 -400,0zm600 0c0,133 0,267 0,400l200 0 0 600c133,0 267,0 400,0l0 -1000c-200,0 -400,0 -600,0zm-1000 600c0,133 0,267 0,400 133,0 267,0 400,0 0,-133 0,-267 0,-400 -133,0 -267,0 -400,0zm-600 0c0,133 0,267 0,400 133,0 267,0 400,0 0,-133 0,-267 0,-400 -133,0 -267,0 -400,0zm-600 0c0,133 0,267 0,400 133,0 267,0 400,0 0,-133 0,-267 0,-400 -133,0 -267,0 -400,0zm-600 0c0,133 0,267 0,400 133,0 267,0 400,0 0,-133 0,-267 0,-400 -133,0 -267,0 -400,0zm2600 600c0,133 0,267 0,400l800 0c0,-133 0,-267 0,-400l-800 0zm-2700 0c0,133 0,267 0,400l2500 0c0,-133 0,-267 0,-400l-2500 0zm1700 -1200c0,133 0,267 0,400 133,0 267,0 400,0 0,-133 0,-267 0,-400 -133,0 -267,0 -400,0zm-600 0c0,133 0,267 0,400 133,0 267,0 400,0 0,-133 0,-267 0,-400 -133,0 -267,0 -400,0zm-600 0c0,133 0,267 0,400 133,0 267,0 400,0 0,-133 0,-267 0,-400 -133,0 -267,0 -400,0zm-600 0c0,133 0,267 0,400 133,0 267,0 400,0 0,-133 0,-267 0,-400 -133,0 -267,0 -400,0zm-800 0c0,133 0,267 0,400 200,0 400,0 600,0 0,-133 0,-267 0,-400 -200,0 -400,0 -600,0zm0 1200c0,133 0,267 0,400 233,0 467,0 700,0 0,-133 0,-267 0,-400 -233,0 -467,0 -700,0zm0 -600c0,133 0,267 0,400 267,0 533,0 800,0 0,-133 0,-267 0,-400 -267,0 -533,0 -800,0z"/>
</svg>