<?xml version="1.0" encoding="UTF-8"?>
<!DOCTYPE svg PUBLIC "-//W3C//DTD SVG 1.1//EN" "http://www.w3.org/Graphics/SVG/1.1/DTD/svg11.dtd">
<svg xmlns="http://www.w3.org/2000/svg" xml:space="preserve" width="580px" height="580px" shape-rendering="geometricPrecision" text-rendering="geometricPrecision" image-rendering="optimizeQuality" fill-rule="nonzero" clip-rule="nonzero" viewBox="0 0 5800 5800" xmlns:xlink="http://www.w3.org/1999/xlink">
	<title>measuring_cup icon</title>
	<desc>measuring_cup icon from the IconExperience.com I-Collection. Copyright by INCORS GmbH (www.incors.com).</desc>
	<path id="curve0"  d="M4800 4300l-500 0 0 400c0,220 -180,400 -400,400 0,110 -90,200 -200,200l-2200 0c-110,0 -200,-90 -200,-200 -220,0 -400,-180 -400,-400l0 -2782 -394 -1084c-87,-240 66,-334 294,-334l3200 0c165,0 300,135 300,300l0 500 500 0c386,0 700,314 700,700l0 1600c0,386 -314,700 -700,700zm-2500 -2800l0 -200 -600 0 0 3400 600 0 0 -200 -400 0 0 -600 400 0 0 -200 -400 0 0 -600 400 0 0 -200 -400 0 0 -600 400 0 0 -200 -400 0 0 -600 400 0zm2300 400l-300 0 0 1800 300 0c165,0 300,-135 300,-300l0 -1200c0,-165 -135,-300 -300,-300z"/>
</svg>