<?xml version="1.0" encoding="UTF-8"?>
<!DOCTYPE svg PUBLIC "-//W3C//DTD SVG 1.1//EN" "http://www.w3.org/Graphics/SVG/1.1/DTD/svg11.dtd">
<svg xmlns="http://www.w3.org/2000/svg" xml:space="preserve" width="580px" height="580px" shape-rendering="geometricPrecision" text-rendering="geometricPrecision" image-rendering="optimizeQuality" fill-rule="nonzero" clip-rule="nonzero" viewBox="0 0 5800 5800" xmlns:xlink="http://www.w3.org/1999/xlink">
	<title>medal2 icon</title>
	<desc>medal2 icon from the IconExperience.com I-Collection. Copyright by INCORS GmbH (www.incors.com).</desc>
		<path id="curve28"  d="M3101 1801l357 1104 1127 0c91,0 204,51 234,144 29,88 -2,182 -77,236l-940 681 361 1102c29,88 -2,183 -77,237 -74,54 -174,54 -248,0l-938 -684 -938 684c-74,54 -174,54 -248,0 -75,-54 -106,-149 -77,-237l361 -1102 -940 -681c-75,-54 -106,-148 -77,-236 28,-89 112,-144 204,-144l1157 0 357 -1104c28,-88 109,-147 201,-147 92,0 173,59 201,147zm-801 -701l0 1284 -103 321 -334 0 -587 -588c-116,-115 -176,-261 -176,-424l0 -593 1200 0zm-1200 -200l0 -600 3600 0 0 600 -3600 0zm3600 200l0 593c0,163 -60,309 -176,424l-587 588 -334 0 -103 -321 0 -1284 1200 0z"/>
</svg>