<?xml version="1.0" encoding="UTF-8"?>
<!DOCTYPE svg PUBLIC "-//W3C//DTD SVG 1.1//EN" "http://www.w3.org/Graphics/SVG/1.1/DTD/svg11.dtd">
<svg xmlns="http://www.w3.org/2000/svg" xml:space="preserve" width="580px" height="580px" shape-rendering="geometricPrecision" text-rendering="geometricPrecision" image-rendering="optimizeQuality" fill-rule="nonzero" clip-rule="nonzero" viewBox="0 0 5800 5800" xmlns:xlink="http://www.w3.org/1999/xlink">
	<title>medal2 icon</title>
	<desc>medal2 icon from the IconExperience.com I-Collection. Copyright by INCORS GmbH (www.incors.com).</desc>
		<path id="curve28"  d="M3101 1801l357 1104 1127 0c91,0 204,51 234,144 29,88 -2,182 -77,236l-940 681 361 1102c29,88 -2,183 -77,237 -74,54 -174,54 -248,0l-938 -684 -938 684c-74,54 -174,54 -248,0 -75,-54 -106,-149 -77,-237l361 -1102 -940 -681c-75,-54 -106,-148 -77,-236 28,-89 112,-144 204,-144l1157 0 357 -1104c28,-88 109,-147 201,-147 92,0 173,59 201,147zm-190 61c-2,-7 -5,-8 -11,-8 -6,0 -9,2 -11,8l-402 1243 -1302 0c-5,0 -10,1 -12,3 -6,4 -3,12 2,16l1058 765 -406 1241c-2,6 -1,10 4,14 5,3 9,4 14,0l996 -727 59 -43 59 43 996 727c5,4 9,3 14,0 5,-4 6,-8 4,-14l-383 -1172 -23 -69 59 -42 999 -723c13,-10 -33,-19 -40,-19l-1272 0 -402 -1243zm-411 -762l0 664 -200 620 0 -1284 -1000 0 0 593c0,112 38,203 117,283l729 729 -283 0 -587 -588c-116,-115 -176,-261 -176,-424 0,-464 0,-929 0,-1393l3600 0c0,464 0,929 0,1393 0,163 -60,309 -176,424l-587 588 -283 0 729 -729c79,-80 117,-171 117,-283l0 -593 -1000 0 0 1284 -200 -619 0 -665 -800 0zm-1200 -200l3200 0 0 -400 -3200 0 0 400z"/>
</svg>