<?xml version="1.0" encoding="UTF-8"?>
<!DOCTYPE svg PUBLIC "-//W3C//DTD SVG 1.1//EN" "http://www.w3.org/Graphics/SVG/1.1/DTD/svg11.dtd">
<svg xmlns="http://www.w3.org/2000/svg" xml:space="preserve" width="580px" height="580px" shape-rendering="geometricPrecision" text-rendering="geometricPrecision" image-rendering="optimizeQuality" fill-rule="nonzero" clip-rule="nonzero" viewBox="0 0 5800 5800" xmlns:xlink="http://www.w3.org/1999/xlink">
	<title>medal icon</title>
	<desc>medal icon from the IconExperience.com I-Collection. Copyright by INCORS GmbH (www.incors.com).</desc>
		<path id="curve28" d="M4500 1100l-1000 0 0 1309c-65,-24 -132,-45 -200,-62l0 -1247 -800 0 0 1247c-68,17 -135,38 -200,62l0 -1309 -1000 0 0 593c0,112 38,203 117,283l582 582c-57,36 -112,75 -165,118l-558 -559c-116,-115 -176,-261 -176,-424l0 -593 0 -100 0 -700 3600 0 0 700 0 100 0 593c0,163 -60,309 -176,424l-558 559c-53,-43 -108,-82 -165,-118l582 -582c79,-80 117,-171 117,-283l0 -593zm-3200 -200l3200 0 0 -400 -3200 0 0 400zm1600 1600c828,0 1500,672 1500,1500 0,828 -672,1500 -1500,1500 -828,0 -1500,-672 -1500,-1500 0,-828 672,-1500 1500,-1500zm0 200c-718,0 -1300,582 -1300,1300 0,718 582,1300 1300,1300 718,0 1300,-582 1300,-1300 0,-718 -582,-1300 -1300,-1300z"/>
</svg>