<?xml version="1.0" encoding="UTF-8"?>
<!DOCTYPE svg PUBLIC "-//W3C//DTD SVG 1.1//EN" "http://www.w3.org/Graphics/SVG/1.1/DTD/svg11.dtd">
<svg xmlns="http://www.w3.org/2000/svg" xml:space="preserve" width="580px" height="580px" shape-rendering="geometricPrecision" text-rendering="geometricPrecision" image-rendering="optimizeQuality" fill-rule="nonzero" clip-rule="nonzero" viewBox="0 0 5800 5800" xmlns:xlink="http://www.w3.org/1999/xlink">
	<title>media_eject icon</title>
	<desc>media_eject icon from the IconExperience.com I-Collection. Copyright by INCORS GmbH (www.incors.com).</desc>
		<path id="curve28" d="M3175 806l1832 1902c64,66 93,161 93,254 0,96 -32,203 -103,271 -43,42 -98,67 -163,67l-3868 0c-65,0 -120,-25 -163,-67 -71,-68 -103,-175 -103,-271 0,-93 29,-188 93,-254l1832 -1902c2,-3 5,-6 7,-8 70,-67 173,-98 268,-98 99,0 206,33 275,106zm1689 2040l-1835 -1904c-28,-28 -78,-42 -129,-42 -51,0 -101,14 -129,42l-1835 1904c-24,26 -36,70 -36,116 0,40 11,98 41,127 7,7 16,11 25,11l3868 0c9,0 18,-4 25,-11 30,-29 41,-87 41,-127 0,-46 -12,-90 -36,-116zm-3764 854l3600 0c220,0 400,180 400,400l0 600c0,220 -180,400 -400,400l-3600 0c-220,0 -400,-180 -400,-400l0 -600c0,-220 180,-400 400,-400zm3600 200l-3600 0c-110,0 -200,90 -200,200l0 600c0,110 90,200 200,200l3600 0c110,0 200,-90 200,-200l0 -600c0,-110 -90,-200 -200,-200z"/>
</svg>