<?xml version="1.0" encoding="UTF-8"?>
<!DOCTYPE svg PUBLIC "-//W3C//DTD SVG 1.1//EN" "http://www.w3.org/Graphics/SVG/1.1/DTD/svg11.dtd">
<svg xmlns="http://www.w3.org/2000/svg" xml:space="preserve" width="580px" height="580px" shape-rendering="geometricPrecision" text-rendering="geometricPrecision" image-rendering="optimizeQuality" fill-rule="nonzero" clip-rule="nonzero" viewBox="0 0 5800 5800" xmlns:xlink="http://www.w3.org/1999/xlink">
	<title>media_fast_forward icon</title>
	<desc>media_fast_forward icon from the IconExperience.com I-Collection. Copyright by INCORS GmbH (www.incors.com).</desc>
		<path id="curve28"  d="M2875 3165l-1577 1831c-164,191 -598,105 -598,-167l0 -3858c0,-272 433,-358 598,-167l1577 1831c123,143 123,387 0,530zm-1728 1701l1578 -1832c57,-66 57,-202 0,-268l-1578 -1832c-54,-62 -247,-30 -247,37l0 3858c0,64 192,101 247,37zm4125 -1701l-1578 1831c-164,191 -598,105 -598,-167l0 -3858c0,-270 432,-360 598,-167l1578 1831c122,143 122,387 0,530zm-1728 1701l1577 -1832c57,-66 57,-202 0,-268l-1577 -1832c-54,-62 -248,-29 -248,37l0 3858c0,65 193,101 248,37z"/>
</svg>