<?xml version="1.0" encoding="UTF-8"?>
<!DOCTYPE svg PUBLIC "-//W3C//DTD SVG 1.1//EN" "http://www.w3.org/Graphics/SVG/1.1/DTD/svg11.dtd">
<svg xmlns="http://www.w3.org/2000/svg" xml:space="preserve" width="580px" height="580px" shape-rendering="geometricPrecision" text-rendering="geometricPrecision" image-rendering="optimizeQuality" fill-rule="nonzero" clip-rule="nonzero" viewBox="0 0 5800 5800" xmlns:xlink="http://www.w3.org/1999/xlink">
	<title>media_step_forward icon</title>
	<desc>media_step_forward icon from the IconExperience.com I-Collection. Copyright by INCORS GmbH (www.incors.com).</desc>
		<path id="curve28"  d="M700 4700l0 -3600c0,-220 180,-400 400,-400l600 0c220,0 400,180 400,400l0 3600c0,220 -180,400 -400,400l-600 0c-220,0 -400,-180 -400,-400zm200 -3600l0 3600c0,110 90,200 200,200l600 0c110,0 200,-90 200,-200l0 -3600c0,-110 -90,-200 -200,-200l-600 0c-110,0 -200,90 -200,200zm3956 1668l-1902 -1832c-52,-49 -192,-48 -243,5 -7,7 -11,16 -11,25l0 3868c0,71 193,88 254,30l1902 -1832 2 -3c28,-28 42,-78 42,-129l0 0c0,-51 -14,-100 -42,-129l-2 -3zm-1764 -1975l1902 1832c3,2 6,5 8,7 65,68 98,169 98,268l0 0c0,99 -33,200 -98,268 -2,2 -5,5 -8,7l-1902 1832c-133,128 -398,122 -525,-10 -42,-43 -67,-98 -67,-163l0 -3868c0,-65 25,-120 67,-163 128,-133 393,-137 525,-10z"/>
</svg>