<?xml version="1.0" encoding="UTF-8"?>
<!DOCTYPE svg PUBLIC "-//W3C//DTD SVG 1.1//EN" "http://www.w3.org/Graphics/SVG/1.1/DTD/svg11.dtd">
<svg xmlns="http://www.w3.org/2000/svg" xml:space="preserve" width="580px" height="580px" shape-rendering="geometricPrecision" text-rendering="geometricPrecision" image-rendering="optimizeQuality" fill-rule="nonzero" clip-rule="nonzero" viewBox="0 0 5800 5800" xmlns:xlink="http://www.w3.org/1999/xlink">
	<title>media_end icon</title>
	<desc>media_end icon from the IconExperience.com I-Collection. Copyright by INCORS GmbH (www.incors.com).</desc>
		<path id="curve28"  d="M5100 1100l0 3600c0,220 -180,400 -400,400l-600 0c-220,0 -400,-180 -400,-400l0 -3600c0,-220 180,-400 400,-400l600 0c110,0 210,45 283,117 72,73 117,173 117,283zm-200 3600l0 -3600c0,-55 -22,-105 -59,-141 -36,-37 -86,-59 -141,-59l-600 0c-110,0 -200,90 -200,200l0 3600c0,110 90,200 200,200l600 0c110,0 200,-90 200,-200zm-1706 -1525l-1902 1832c-177,171 -592,98 -592,-173l0 -3868c0,-272 416,-343 592,-173l1902 1832c141,134 141,416 0,550zm-2040 1689l1904 -1835c56,-57 56,-201 0,-258l-1904 -1835c-60,-57 -254,-41 -254,30l0 3868c0,71 193,88 254,30z"/>
</svg>