<?xml version="1.0" encoding="UTF-8"?>
<!DOCTYPE svg PUBLIC "-//W3C//DTD SVG 1.1//EN" "http://www.w3.org/Graphics/SVG/1.1/DTD/svg11.dtd">
<svg xmlns="http://www.w3.org/2000/svg" xml:space="preserve" width="580px" height="580px" shape-rendering="geometricPrecision" text-rendering="geometricPrecision" image-rendering="optimizeQuality" fill-rule="nonzero" clip-rule="nonzero" viewBox="0 0 5800 5800" xmlns:xlink="http://www.w3.org/1999/xlink">
	<title>media_step_back icon</title>
	<desc>media_step_back icon from the IconExperience.com I-Collection. Copyright by INCORS GmbH (www.incors.com).</desc>
		<path id="curve28"  d="M806 2625l1902 -1832c101,-98 269,-114 398,-69 108,38 194,122 194,242l0 3868c0,120 -86,204 -194,242 -129,45 -297,29 -398,-69l-1902 -1832c-141,-134 -141,-416 0,-550zm4294 -1525l0 3600c0,220 -180,400 -400,400l-600 0c0,27 -400,-44 -400,-400l0 -3600c0,-220 180,-400 400,-400l600 0c220,0 400,180 400,400z"/>
</svg>