<?xml version="1.0" encoding="UTF-8"?>
<!DOCTYPE svg PUBLIC "-//W3C//DTD SVG 1.1//EN" "http://www.w3.org/Graphics/SVG/1.1/DTD/svg11.dtd">
<svg xmlns="http://www.w3.org/2000/svg" xml:space="preserve" width="580px" height="580px" shape-rendering="geometricPrecision" text-rendering="geometricPrecision" image-rendering="optimizeQuality" fill-rule="nonzero" clip-rule="nonzero" viewBox="0 0 5800 5800" xmlns:xlink="http://www.w3.org/1999/xlink">
	<title>media_rewind icon</title>
	<desc>media_rewind icon from the IconExperience.com I-Collection. Copyright by INCORS GmbH (www.incors.com).</desc>
		<path id="curve28" d="M728 2635l1578 -1831c164,-191 598,-105 598,167l0 3858c0,272 -434,358 -598,167l-1578 -1831c-122,-143 -122,-387 0,-530zm1728 -1701l-1577 1832c-57,66 -57,202 0,268l1577 1832c56,64 248,27 248,-37l0 -3858c0,-62 -191,-102 -248,-37zm669 1701l1577 -1831c166,-193 598,-103 598,167l0 3858c0,271 -433,359 -598,167l-1577 -1831c-123,-143 -123,-387 0,-530zm1728 -1701l-1578 1832c-57,66 -57,202 0,268l1578 1832c56,65 247,26 247,-37l0 -3858c0,-67 -193,-99 -247,-37z"/>
</svg>