<?xml version="1.0" encoding="UTF-8"?>
<!DOCTYPE svg PUBLIC "-//W3C//DTD SVG 1.1//EN" "http://www.w3.org/Graphics/SVG/1.1/DTD/svg11.dtd">
<svg xmlns="http://www.w3.org/2000/svg" xml:space="preserve" width="580px" height="580px" shape-rendering="geometricPrecision" text-rendering="geometricPrecision" image-rendering="optimizeQuality" fill-rule="nonzero" clip-rule="nonzero" viewBox="0 0 5800 5800" xmlns:xlink="http://www.w3.org/1999/xlink">
	<title>media_eject icon</title>
	<desc>media_eject icon from the IconExperience.com I-Collection. Copyright by INCORS GmbH (www.incors.com).</desc>
		<path id="curve28"  d="M1100 3700l3600 0c220,0 400,180 400,400l0 600c0,220 -180,400 -400,400l-3600 0c-220,0 -400,-180 -400,-400l0 -600c0,-220 180,-400 400,-400zm2075 -2894l1832 1902c64,66 93,161 93,254 0,156 -88,338 -266,338l-3868 0c-178,0 -266,-182 -266,-338 0,-93 29,-188 93,-254l1832 -1902c134,-141 416,-141 550,0z"/>
</svg>