<?xml version="1.0" encoding="UTF-8"?>
<!DOCTYPE svg PUBLIC "-//W3C//DTD SVG 1.1//EN" "http://www.w3.org/Graphics/SVG/1.1/DTD/svg11.dtd">
<svg xmlns="http://www.w3.org/2000/svg" xml:space="preserve" width="580px" height="580px" shape-rendering="geometricPrecision" text-rendering="geometricPrecision" image-rendering="optimizeQuality" fill-rule="nonzero" clip-rule="nonzero" viewBox="0 0 5800 5800" xmlns:xlink="http://www.w3.org/1999/xlink">
	<title>media_record icon</title>
	<desc>media_record icon from the IconExperience.com I-Collection. Copyright by INCORS GmbH (www.incors.com).</desc>
		<path id="curve28" d="M2900 1600c718,0 1300,582 1300,1300 0,718 -582,1300 -1300,1300 -718,0 -1300,-582 -1300,-1300 0,-718 582,-1300 1300,-1300zm0 200c-608,0 -1100,492 -1100,1100 0,608 492,1100 1100,1100 608,0 1100,-492 1100,-1100 0,-608 -492,-1100 -1100,-1100zm-1800 -1100l3600 0c220,0 400,180 400,400l0 3600c0,220 -180,400 -400,400l-3600 0c-220,0 -400,-180 -400,-400l0 -3600c0,-220 180,-400 400,-400zm3600 200l-3600 0c-111,0 -200,89 -200,200l0 3600c0,111 89,200 200,200l3600 0c111,0 200,-89 200,-200l0 -3600c0,-111 -89,-200 -200,-200z"/>
</svg>