<?xml version="1.0" encoding="UTF-8"?>
<!DOCTYPE svg PUBLIC "-//W3C//DTD SVG 1.1//EN" "http://www.w3.org/Graphics/SVG/1.1/DTD/svg11.dtd">
<svg xmlns="http://www.w3.org/2000/svg" xml:space="preserve" width="580px" height="580px" shape-rendering="geometricPrecision" text-rendering="geometricPrecision" image-rendering="optimizeQuality" fill-rule="nonzero" clip-rule="nonzero" viewBox="0 0 5800 5800" xmlns:xlink="http://www.w3.org/1999/xlink">
	<title>media_beginning icon</title>
	<desc>media_beginning icon from the IconExperience.com I-Collection. Copyright by INCORS GmbH (www.incors.com).</desc>
		<path id="curve28" d="M2606 2625l1902 -1832c133,-128 398,-122 525,10 42,43 67,98 67,163l0 3868c0,65 -25,120 -67,163 -68,71 -175,103 -271,103 -93,0 -188,-29 -254,-93l-1902 -1832c-141,-134 -141,-416 0,-550zm2040 -1689l-1902 1832c-59,59 -59,205 0,264l1902 1832c26,24 70,36 116,36 40,0 98,-11 127,-41 7,-7 11,-16 11,-25l0 -3868c0,-9 -4,-18 -11,-25 -50,-52 -190,-56 -243,-5zm-3946 3764l0 -3600c0,-220 180,-400 400,-400l600 0c220,0 400,180 400,400l0 3600c0,220 -180,400 -400,400l-600 0c-220,0 -400,-180 -400,-400zm200 -3600l0 3600c0,110 90,200 200,200l600 0c110,0 200,-90 200,-200l0 -3600c0,-110 -90,-200 -200,-200l-600 0c-110,0 -200,90 -200,200z"/>
</svg>