<?xml version="1.0" encoding="UTF-8"?>
<!DOCTYPE svg PUBLIC "-//W3C//DTD SVG 1.1//EN" "http://www.w3.org/Graphics/SVG/1.1/DTD/svg11.dtd">
<svg xmlns="http://www.w3.org/2000/svg" xml:space="preserve" width="580px" height="580px" shape-rendering="geometricPrecision" text-rendering="geometricPrecision" image-rendering="optimizeQuality" fill-rule="nonzero" clip-rule="nonzero" viewBox="0 0 5800 5800" xmlns:xlink="http://www.w3.org/1999/xlink">
	<title>media_step_back icon</title>
	<desc>media_step_back icon from the IconExperience.com I-Collection. Copyright by INCORS GmbH (www.incors.com).</desc>
		<path id="curve28" d="M806 2625l1902 -1832c177,-171 592,-98 592,173l0 3868c0,271 -415,344 -592,173l-1902 -1832c-141,-134 -141,-416 0,-550zm2040 -1689l-1902 1832c-58,58 -59,202 -2,261l1904 1835c59,56 254,41 254,-30l0 -3868c0,-73 -195,-86 -254,-30zm2054 3764l0 -3600c0,-110 -90,-200 -200,-200l-600 0c-110,0 -200,90 -200,200l0 3600c0,110 90,200 200,200l600 0c110,0 200,-90 200,-200zm200 -3600l0 3600c0,220 -180,400 -400,400l-600 0c-220,0 -400,-180 -400,-400l0 -3600c0,-355 400,-427 400,-400l600 0c220,0 400,180 400,400z"/>
</svg>