<?xml version="1.0" encoding="UTF-8"?>
<!DOCTYPE svg PUBLIC "-//W3C//DTD SVG 1.1//EN" "http://www.w3.org/Graphics/SVG/1.1/DTD/svg11.dtd">
<svg xmlns="http://www.w3.org/2000/svg" xml:space="preserve" width="580px" height="580px" shape-rendering="geometricPrecision" text-rendering="geometricPrecision" image-rendering="optimizeQuality" fill-rule="nonzero" clip-rule="nonzero" viewBox="0 0 5800 5800" xmlns:xlink="http://www.w3.org/1999/xlink">
	<title>media_rewind icon</title>
	<desc>media_rewind icon from the IconExperience.com I-Collection. Copyright by INCORS GmbH (www.incors.com).</desc>
		<path id="curve28"  d="M3125 2635l1577 -1831c61,-72 157,-104 253,-104 157,0 345,92 345,271l0 3858c0,179 -187,271 -345,271 -96,0 -192,-32 -253,-104l-1577 -1831c-123,-143 -123,-387 0,-530zm-2397 0l1578 -1831c61,-72 157,-104 253,-104 158,0 345,92 345,271l0 3858c0,180 -189,271 -345,271 -96,0 -192,-32 -253,-104l-1578 -1831c-122,-143 -122,-387 0,-530z"/>
</svg>