<?xml version="1.0" encoding="UTF-8"?>
<!DOCTYPE svg PUBLIC "-//W3C//DTD SVG 1.1//EN" "http://www.w3.org/Graphics/SVG/1.1/DTD/svg11.dtd">
<svg xmlns="http://www.w3.org/2000/svg" xml:space="preserve" width="580px" height="580px" shape-rendering="geometricPrecision" text-rendering="geometricPrecision" image-rendering="optimizeQuality" fill-rule="nonzero" clip-rule="nonzero" viewBox="0 0 5800 5800" xmlns:xlink="http://www.w3.org/1999/xlink">
	<title>megaphone icon</title>
	<desc>megaphone icon from the IconExperience.com I-Collection. Copyright by INCORS GmbH (www.incors.com).</desc>
		<path id="curve28" d="M2611 3700l-97 195c-53,105 -12,187 70,351l305 609c40,81 59,159 59,232 0,157 -84,292 -224,362 -65,33 -141,51 -224,51l-300 0c-123,0 -217,-28 -299,-90 -77,-59 -136,-146 -192,-269l-478 -1046c-31,-67 -31,-121 -31,-183l0 -212 200 0 0 200 0 0c0,0 7,101 12,112l479 1047c42,92 83,155 131,192 44,34 101,49 178,49l300 0c52,0 98,-10 135,-29 130,-65 135,-208 76,-326l-305 -610c-111,-223 -167,-335 -70,-530l53 -105 222 0zm2089 723c0,-1282 0,-2564 0,-3846 -235,326 -543,597 -899,791 -387,212 -832,332 -1301,332l-1400 0c-110,0 -200,90 -200,200l0 200 -300 0c-55,0 -100,45 -100,100l0 600c0,55 45,100 100,100l300 0 0 200c0,110 90,200 200,200l1400 0c469,0 914,120 1301,332 356,194 664,465 899,791zm400 -2553c242,117 400,360 400,630 0,271 -158,515 -400,631l0 -233c125,-95 200,-240 200,-398 0,-157 -75,-302 -200,-397l0 -233zm-200 2630c0,110 -90,200 -200,200l-54 0 -30 -46c-225,-353 -540,-645 -910,-847 -358,-196 -770,-307 -1206,-307l-1400 0c-220,0 -400,-180 -400,-400l-100 0c-165,0 -300,-135 -300,-300l0 -600c0,-165 135,-300 300,-300l100 0c0,-220 180,-400 400,-400l1400 0c436,0 848,-111 1206,-307 370,-202 685,-494 910,-847l30 -46 54 0c110,0 200,90 200,200 0,1333 0,2667 0,4000zm-3700 -1600l1300 0c714,0 1408,246 1963,695l-126 155c-519,-421 -1169,-650 -1837,-650l-1300 0 0 -200z"/>
</svg>