<?xml version="1.0" encoding="UTF-8"?>
<!DOCTYPE svg PUBLIC "-//W3C//DTD SVG 1.1//EN" "http://www.w3.org/Graphics/SVG/1.1/DTD/svg11.dtd">
<svg xmlns="http://www.w3.org/2000/svg" xml:space="preserve" width="580px" height="580px" shape-rendering="geometricPrecision" text-rendering="geometricPrecision" image-rendering="optimizeQuality" fill-rule="nonzero" clip-rule="nonzero" viewBox="0 0 5800 5800" xmlns:xlink="http://www.w3.org/1999/xlink">
	<title>megaphone icon</title>
	<desc>megaphone icon from the IconExperience.com I-Collection. Copyright by INCORS GmbH (www.incors.com).</desc>
		<path id="curve28"  d="M4900 500l0 4000c0,110 -90,200 -200,200l-54 0 -30 -46c-461,-721 -1262,-1154 -2116,-1154l-1400 0c-220,0 -400,-180 -400,-400l-100 0c-165,0 -300,-135 -300,-300l0 -600c0,-165 135,-300 300,-300l100 0c0,-220 180,-400 400,-400l1400 0c854,0 1655,-433 2116,-1154l30 -46 54 0c110,0 200,90 200,200zm-3700 2400l0 200 1300 0c668,0 1318,229 1837,650l126 -155c-555,-449 -1249,-695 -1963,-695l-1300 0zm3900 -1030c242,117 400,360 400,630 0,271 -158,515 -400,631l0 -1261zm-2489 1830l-97 195c-53,105 -12,187 70,351l305 609c71,142 85,308 -1,447 -83,134 -234,198 -388,198l-300 0c-123,0 -217,-28 -299,-90 -77,-59 -136,-146 -192,-269l-478 -1046c-31,-67 -31,-121 -31,-183l0 -212 1411 0z"/>
</svg>