<?xml version="1.0" encoding="UTF-8"?>
<!DOCTYPE svg PUBLIC "-//W3C//DTD SVG 1.1//EN" "http://www.w3.org/Graphics/SVG/1.1/DTD/svg11.dtd">
<svg xmlns="http://www.w3.org/2000/svg" xml:space="preserve" width="580px" height="580px" shape-rendering="geometricPrecision" text-rendering="geometricPrecision" image-rendering="optimizeQuality" fill-rule="nonzero" clip-rule="nonzero" viewBox="0 0 5800 5800" xmlns:xlink="http://www.w3.org/1999/xlink">
	<title>memory icon</title>
	<desc>memory icon from the IconExperience.com I-Collection. Copyright by INCORS GmbH (www.incors.com).</desc>
	<path id="curve0" d="M3600 1435l-600 300 0 737 600 -300 0 -737zm-1400 737l600 300 0 -737 -600 -300 0 737zm800 623l0 710 600 300 0 -710 -600 -300zm-1800 710l0 -933 800 -400 0 -933 900 -450 900 450 0 933 800 400 0 933 800 400 0 1056 -900 450 -800 -400 -800 400 -800 -400 -800 400 -900 -450 0 -1056 800 -400zm1477 -872l-577 -288 -577 288 577 289 577 -289zm-1277 162l0 710 600 300 0 -710 -600 -300zm1400 710l0 -710 -600 300 0 710 600 -300zm1000 623l0 711 600 300 0 -711 -600 -300zm-323 -161l-577 -289 -115 58 -462 231 577 288 577 -288zm-1277 872l600 300 0 -711 -600 -300 0 711zm800 300l600 -300 0 -711 -600 300 0 711zm-1123 -1172l-577 -289 -577 289 577 288 577 -288zm-1277 161l0 711 600 300 0 -711 -600 -300zm800 1011l600 -300 0 -711 -600 300 0 711zm1723 -2506l577 289 577 -289 -577 -288 -577 288zm1277 162l-600 300 0 710 600 -300 0 -710zm200 2344l600 -300 0 -711 -600 300 0 711zm477 -1172l-577 -289 -115 58 -462 231 577 288 577 -288zm-2728 -2680l551 275 551 -275 -551 -276 -551 276z"/>
</svg>