<?xml version="1.0" encoding="UTF-8"?>
<!DOCTYPE svg PUBLIC "-//W3C//DTD SVG 1.1//EN" "http://www.w3.org/Graphics/SVG/1.1/DTD/svg11.dtd">
<svg xmlns="http://www.w3.org/2000/svg" xml:space="preserve" width="580px" height="580px" shape-rendering="geometricPrecision" text-rendering="geometricPrecision" image-rendering="optimizeQuality" fill-rule="nonzero" clip-rule="nonzero" viewBox="0 0 5800 5800" xmlns:xlink="http://www.w3.org/1999/xlink">
	<title>memory_stick icon</title>
	<desc>memory_stick icon from the IconExperience.com I-Collection. Copyright by INCORS GmbH (www.incors.com).</desc>
		<path id="curve28"  d="M3900 4090l0 1110c0,165 -135,300 -300,300l-1400 0c-165,0 -300,-135 -300,-300l0 -1110c33,7 66,10 100,10l1800 0c34,0 67,-3 100,-10zm-400 410c-167,0 -333,0 -500,0 0,133 0,267 0,400 167,0 333,0 500,0 0,-133 0,-267 0,-400zm-700 0c-167,0 -333,0 -500,0l0 400c167,0 333,0 500,0 0,-133 0,-267 0,-400zm-200 -4200l600 0c496,0 900,404 900,900l0 2400c0,165 -135,300 -300,300l-1800 0c-165,0 -300,-135 -300,-300l0 -2400c0,-496 404,-900 900,-900zm100 500l0 800 400 0 0 -800 -400 0z"/>
</svg>