<?xml version="1.0" encoding="UTF-8"?>
<!DOCTYPE svg PUBLIC "-//W3C//DTD SVG 1.1//EN" "http://www.w3.org/Graphics/SVG/1.1/DTD/svg11.dtd">
<svg xmlns="http://www.w3.org/2000/svg" xml:space="preserve" width="580px" height="580px" shape-rendering="geometricPrecision" text-rendering="geometricPrecision" image-rendering="optimizeQuality" fill-rule="nonzero" clip-rule="nonzero" viewBox="0 0 5800 5800" xmlns:xlink="http://www.w3.org/1999/xlink">
	<title>memory_stick icon</title>
	<desc>memory_stick icon from the IconExperience.com I-Collection. Copyright by INCORS GmbH (www.incors.com).</desc>
		<path id="curve28" d="M3900 3883l0 1317c0,165 -135,300 -300,300l-1400 0c-165,0 -300,-135 -300,-300l0 -1317c-119,-43 -200,-156 -200,-283l0 -2400c0,-496 404,-900 900,-900l600 0c496,0 900,404 900,900l0 2400c0,127 -82,240 -200,283zm-700 -3183c0,333 0,667 0,1000 -200,0 -400,0 -600,0 0,-333 0,-667 0,-1000 200,0 400,0 600,0zm-200 200l-200 0 0 600 200 0 0 -600zm200 -400l-600 0c-385,0 -700,315 -700,700l0 2400c0,55 45,100 100,100l1800 0c55,0 100,-45 100,-100l0 -2400c0,-385 -315,-700 -700,-700zm-400 4400c-167,0 -333,0 -500,0 0,-133 0,-267 0,-400 167,0 333,0 500,0 0,133 0,267 0,400zm700 0c-167,0 -333,0 -500,0 0,-133 0,-267 0,-400 167,0 333,0 500,0 0,133 0,267 0,400zm200 300l0 -1300 -1600 0 0 1300c0,55 45,100 100,100l1400 0c55,0 100,-45 100,-100z"/>
</svg>