<?xml version="1.0" encoding="UTF-8"?>
<!DOCTYPE svg PUBLIC "-//W3C//DTD SVG 1.1//EN" "http://www.w3.org/Graphics/SVG/1.1/DTD/svg11.dtd">
<svg xmlns="http://www.w3.org/2000/svg" xml:space="preserve" width="580px" height="580px" shape-rendering="geometricPrecision" text-rendering="geometricPrecision" image-rendering="optimizeQuality" fill-rule="nonzero" clip-rule="nonzero" viewBox="0 0 5800 5800" xmlns:xlink="http://www.w3.org/1999/xlink">
	<title>memory icon</title>
	<desc>memory icon from the IconExperience.com I-Collection. Copyright by INCORS GmbH (www.incors.com).</desc>
	<path id="curve0"  d="M3800 2174l-801 402 1 -738 800 -400 0 736zm-900 -509l-877 -438 877 -438 877 438 -877 438zm1124 620l573 285 -897 449 -571 -286 895 -448zm-1224 -447l0 737 -800 -395 0 -742 800 400zm199 1053l601 300 0 718 -601 -301 0 -717zm-99 891l572 285 -577 289 -573 -286 578 -288zm900 449l600 301 0 830 -600 -301 0 -830zm-200 830l-600 300 0 -835 600 -300 0 835zm-1401 -1153l1 -710 600 -300 0 711 -601 299zm-99 -883l-902 -452 576 -288 903 452 -577 288zm-100 173l0 607 -800 -400 0 -607 800 400zm200 1033l600 300 0 830 -600 -300 0 -830zm-200 830l-600 301 0 -833 600 -299 0 831zm-704 -704l-900 -451 681 -339 902 450 -683 340zm3199 -1l-577 -289 903 -451 577 289 -903 451zm-695 -1165l800 -400 0 713 -800 400c0,-238 0,-475 0,-713zm1600 935l0 835 -800 401 0 -835 800 -401zm-4200 1236l-800 -401 0 -830 800 401 0 830z"/>
</svg>