<?xml version="1.0" encoding="UTF-8"?>
<!DOCTYPE svg PUBLIC "-//W3C//DTD SVG 1.1//EN" "http://www.w3.org/Graphics/SVG/1.1/DTD/svg11.dtd">
<svg xmlns="http://www.w3.org/2000/svg" xml:space="preserve" width="580px" height="580px" shape-rendering="geometricPrecision" text-rendering="geometricPrecision" image-rendering="optimizeQuality" fill-rule="nonzero" clip-rule="nonzero" viewBox="0 0 5800 5800" xmlns:xlink="http://www.w3.org/1999/xlink">
	<title>menora icon</title>
	<desc>menora icon from the IconExperience.com I-Collection. Copyright by INCORS GmbH (www.incors.com).</desc>
	<path id="curve0"  d="M3000 1383l0 934c288,-49 500,-299 500,-592l0 -342c-119,-42 -200,-155 -200,-283l0 -500 600 0 0 500c0,127 -82,241 -200,283l0 342c0,403 -301,744 -700,794l0 414c676,-52 1200,-617 1200,-1296l0 -254c-119,-42 -200,-155 -200,-283l0 -500c200,0 400,0 600,0l0 500c0,127 -82,241 -200,283l0 254c0,789 -613,1445 -1400,1496l0 405c1064,-52 1900,-932 1900,-1997l0 -158c-119,-43 -200,-155 -200,-283l0 -500c200,0 400,0 600,0l0 500c0,127 -81,240 -200,283l0 158c0,1176 -926,2145 -2100,2198l0 1561 1700 0 0 200 -3600 0 0 -200 1700 0 0 -1561c-1174,-53 -2100,-1022 -2100,-2198l0 -158c-119,-43 -200,-155 -200,-283l0 -500 600 0 0 500c0,127 -81,240 -200,283l0 158c0,1065 836,1945 1900,1997l0 -405c-787,-51 -1400,-707 -1400,-1496l0 -254c-119,-43 -200,-155 -200,-283l0 -500 600 0 0 500c0,127 -81,240 -200,283l0 254c0,679 524,1244 1200,1296l0 -414c-399,-50 -700,-391 -700,-794l0 -342c-119,-43 -200,-155 -200,-283l0 -500 600 0 0 500c0,127 -81,240 -200,283l0 342c0,293 212,543 500,592l0 -934c-119,-43 -200,-155 -200,-283l0 -500c200,0 400,0 600,0l0 500c0,127 -81,240 -200,283zm2100 -583l-200 0 0 300c0,55 45,100 100,100 55,0 100,-45 100,-100l0 -300zm-700 0l-200 0 0 300c0,55 45,100 100,100 55,0 100,-45 100,-100l0 -300zm-700 0l-200 0 0 300c0,55 45,100 100,100 55,0 100,-45 100,-100l0 -300zm-700 0l-200 0 0 300c0,55 45,100 100,100 55,0 100,-45 100,-100l0 -300zm-700 0l-200 0 0 300c0,55 45,100 100,100 55,0 100,-45 100,-100l0 -300zm-700 0l-200 0 0 300c0,55 45,100 100,100 55,0 100,-45 100,-100l0 -300zm-700 0l-200 0 0 300c0,55 45,100 100,100 55,0 100,-45 100,-100l0 -300z"/>
</svg>