<?xml version="1.0" encoding="UTF-8"?>
<!DOCTYPE svg PUBLIC "-//W3C//DTD SVG 1.1//EN" "http://www.w3.org/Graphics/SVG/1.1/DTD/svg11.dtd">
<svg xmlns="http://www.w3.org/2000/svg" xml:space="preserve" width="580px" height="580px" shape-rendering="geometricPrecision" text-rendering="geometricPrecision" image-rendering="optimizeQuality" fill-rule="nonzero" clip-rule="nonzero" viewBox="0 0 5800 5800" xmlns:xlink="http://www.w3.org/1999/xlink">
	<title>messages icon</title>
	<desc>messages icon from the IconExperience.com I-Collection. Copyright by INCORS GmbH (www.incors.com).</desc>
		<path id="curve28"  d="M5030 4563c-12,148 -73,298 -174,426 -104,133 -250,243 -432,306l-172 59 43 -177c21,-88 26,-162 -7,-205 -36,-48 -123,-76 -288,-76 -409,0 -780,-132 -1051,-344 -277,-217 -449,-520 -449,-854 0,-335 172,-637 449,-855 271,-212 642,-343 1051,-343 409,0 781,131 1051,342 278,217 449,518 449,853 0,177 -48,344 -135,496 -80,141 -195,267 -335,372zm-4086 -1574c-101,-128 -162,-278 -174,-426 -140,-105 -255,-231 -335,-372 -87,-152 -135,-319 -135,-496 0,-335 172,-636 449,-853 270,-211 642,-342 1051,-342 409,0 781,131 1051,343 277,218 449,520 449,855 0,334 -172,637 -449,854 -270,212 -642,344 -1051,344 -165,0 -251,28 -288,76 -33,43 -28,116 -7,205l43 177 -172 -59c-182,-63 -328,-173 -432,-306z"/>
</svg>