<?xml version="1.0" encoding="UTF-8"?>
<!DOCTYPE svg PUBLIC "-//W3C//DTD SVG 1.1//EN" "http://www.w3.org/Graphics/SVG/1.1/DTD/svg11.dtd">
<svg xmlns="http://www.w3.org/2000/svg" xml:space="preserve" width="580px" height="580px" shape-rendering="geometricPrecision" text-rendering="geometricPrecision" image-rendering="optimizeQuality" fill-rule="nonzero" clip-rule="nonzero" viewBox="0 0 5800 5800" xmlns:xlink="http://www.w3.org/1999/xlink">
	<title>message icon</title>
	<desc>message icon from the IconExperience.com I-Collection. Copyright by INCORS GmbH (www.incors.com).</desc>
		<path id="curve28"  d="M4664 4160c-14,251 -119,510 -298,732 -176,217 -426,400 -735,503l-172 57 44 -176c43,-172 49,-319 -26,-414 -80,-101 -255,-162 -577,-162 -712,0 -1358,-221 -1827,-578 -478,-363 -773,-866 -773,-1422 0,-556 295,-1059 773,-1422 469,-357 1115,-578 1827,-578 713,0 1359,220 1828,575 477,362 772,864 772,1420 0,293 -82,572 -231,823 -144,244 -351,462 -605,642zm-2964 -2260l0 200 2400 0 0 -200 -2400 0zm0 700l0 200 2400 0 0 -200 -2400 0zm0 700l0 200 2400 0 0 -200 -2400 0z"/>
</svg>