<?xml version="1.0" encoding="UTF-8"?>
<!DOCTYPE svg PUBLIC "-//W3C//DTD SVG 1.1//EN" "http://www.w3.org/Graphics/SVG/1.1/DTD/svg11.dtd">
<svg xmlns="http://www.w3.org/2000/svg" xml:space="preserve" width="580px" height="580px" shape-rendering="geometricPrecision" text-rendering="geometricPrecision" image-rendering="optimizeQuality" fill-rule="nonzero" clip-rule="nonzero" viewBox="0 0 5800 5800" xmlns:xlink="http://www.w3.org/1999/xlink">
	<title>microscope icon</title>
	<desc>microscope icon from the IconExperience.com I-Collection. Copyright by INCORS GmbH (www.incors.com).</desc>
		<path id="curve28"  d="M1600 3500l1400 0 0 200 -1400 0 0 -200zm2115 -834c281,-90 485,-354 485,-666 0,-90 -17,-175 -48,-254 465,293 748,802 748,1354 0,573 -305,1099 -800,1386l0 214 100 0c276,0 500,224 500,500l0 300 -3600 0 0 -300c0,-276 224,-500 500,-500l1100 0 0 -700 400 0c55,0 100,-45 100,-100l0 -200 100 0c331,0 600,-269 600,-600 0,-164 -67,-320 -185,-434zm-215 -1166c276,0 500,224 500,500 0,276 -224,500 -500,500 -276,0 -500,-224 -500,-500 0,-276 224,-500 500,-500zm-600 -1000l0 300 -200 0 0 259 200 200 0 1082 -200 200 0 500 -159 159 -282 0 -159 -159 0 -500 -200 -200 0 -1082 200 -200 0 -259 -200 0 0 -300c0,-110 90,-200 200,-200l600 0c110,0 200,90 200,200z"/>
</svg>