<?xml version="1.0" encoding="UTF-8"?>
<!DOCTYPE svg PUBLIC "-//W3C//DTD SVG 1.1//EN" "http://www.w3.org/Graphics/SVG/1.1/DTD/svg11.dtd">
<svg xmlns="http://www.w3.org/2000/svg" xml:space="preserve" width="580px" height="580px" shape-rendering="geometricPrecision" text-rendering="geometricPrecision" image-rendering="optimizeQuality" fill-rule="nonzero" clip-rule="nonzero" viewBox="0 0 5800 5800" xmlns:xlink="http://www.w3.org/1999/xlink">
	<title>microscope icon</title>
	<desc>microscope icon from the IconExperience.com I-Collection. Copyright by INCORS GmbH (www.incors.com).</desc>
		<path id="curve28"  d="M2900 500l0 300 -200 0 0 259 200 200 0 1082 -200 200 0 500 -159 159c-94,0 -188,0 -282,0l-159 -159 0 -500 -200 -200 0 -1082 200 -200 0 -259 -200 0 0 -300c0,-110 90,-200 200,-200l600 0c110,0 200,90 200,200zm1002 2073c123,141 198,325 198,527 0,403 -301,744 -700,794l0 6c0,165 -135,300 -300,300l-200 0 0 700 -1300 0c-165,0 -300,135 -300,300l0 100 3200 0 0 -100c0,-83 -34,-158 -88,-212 -54,-54 -129,-88 -212,-88l-300 0 0 -533 54 -28c459,-243 746,-719 746,-1239 0,-416 -183,-806 -501,-1073 4,-96 -12,-191 -47,-281 465,293 748,802 748,1354 0,573 -305,1099 -800,1386l0 214 100 0c138,0 263,56 353,147 91,90 147,215 147,353l0 300 -3600 0 0 -300c0,-276 224,-500 500,-500l1100 0 0 -700 400 0c55,0 100,-45 100,-100l0 -200 100 0c331,0 600,-269 600,-600 0,-166 -67,-316 -176,-424 -3,-3 -6,-7 -9,-10 67,-21 130,-53 187,-93zm-2302 927l1400 0 0 200 -1400 0 0 -200zm1900 -2000c276,0 500,224 500,500 0,276 -224,500 -500,500 -276,0 -500,-224 -500,-500 0,-276 224,-500 500,-500zm0 200c-166,0 -300,134 -300,300 0,166 134,300 300,300 166,0 300,-134 300,-300 0,-166 -134,-300 -300,-300zm-800 -1100l0 -100 -600 0 0 100 200 0 0 541 -200 200 0 918 200 200 0 500 41 41 118 0 41 -41 0 -500 200 -200 0 -918 -200 -200 0 -541 200 0zm0 -100l0 0 0 0 0 0 0 0 0 0zm-600 0l0 0 0 0 0 0 0 0 0 0zm0 0c0,0 0,0 0,0l0 0 0 0zm0 0l0 0 0 0c0,0 0,0 0,0zm600 0l0 0m0 0c0,0 0,0 0,0m0 0l0 0 0 0c0,0 0,0 0,0zm0 0l0 0"/>
</svg>