<?xml version="1.0" encoding="UTF-8"?>
<!DOCTYPE svg PUBLIC "-//W3C//DTD SVG 1.1//EN" "http://www.w3.org/Graphics/SVG/1.1/DTD/svg11.dtd">
<svg xmlns="http://www.w3.org/2000/svg" xml:space="preserve" width="580px" height="580px" shape-rendering="geometricPrecision" text-rendering="geometricPrecision" image-rendering="optimizeQuality" fill-rule="nonzero" clip-rule="nonzero" viewBox="0 0 5800 5800" xmlns:xlink="http://www.w3.org/1999/xlink">
	<title>microphone2 icon</title>
	<desc>microphone2 icon from the IconExperience.com I-Collection. Copyright by INCORS GmbH (www.incors.com).</desc>
	<path id="curve0" d="M1300 4100c18,0 35,2 52,7l212 -212c-48,-64 -84,-133 -106,-198 -38,-113 -32,-220 25,-287l1442 -1664c-16,-79 -25,-162 -25,-246 0,-663 537,-1200 1200,-1200 663,0 1200,537 1200,1200 0,663 -537,1200 -1200,1200 -84,0 -167,-9 -246,-25l-1665 1442c-66,57 -173,62 -286,25 -65,-22 -134,-58 -198,-106l-212 212c5,17 7,34 7,52 0,110 -90,200 -200,200 -110,0 -200,-90 -200,-200 0,-110 90,-200 200,-200zm1696 -2130l-1362 1571c-9,10 -3,46 13,93 47,142 177,272 319,319 47,16 83,22 93,13l1571 -1362c-285,-121 -513,-349 -634,-634zm-2096 2330c0,221 180,401 401,400l0 200c-332,0 -601,-268 -601,-600l200 0zm401 1000c-553,0 -1001,-447 -1001,-1000l200 0c-1,442 359,801 801,800l0 200zm2799 -4800c-552,0 -1000,448 -1000,1000 0,552 448,1000 1000,1000 552,0 1000,-448 1000,-1000 0,-552 -448,-1000 -1000,-1000z"/>
</svg>