<?xml version="1.0" encoding="UTF-8"?>
<!DOCTYPE svg PUBLIC "-//W3C//DTD SVG 1.1//EN" "http://www.w3.org/Graphics/SVG/1.1/DTD/svg11.dtd">
<svg xmlns="http://www.w3.org/2000/svg" xml:space="preserve" width="580px" height="580px" shape-rendering="geometricPrecision" text-rendering="geometricPrecision" image-rendering="optimizeQuality" fill-rule="nonzero" clip-rule="nonzero" viewBox="0 0 5800 5800" xmlns:xlink="http://www.w3.org/1999/xlink">
	<title>microphone icon</title>
	<desc>microphone icon from the IconExperience.com I-Collection. Copyright by INCORS GmbH (www.incors.com).</desc>
		<path id="curve28"  d="M3697 5050l86 -76c97,-86 148,-212 147,-342 -2,-280 -230,-510 -511,-512 -121,0 -242,44 -333,134 -205,206 -410,411 -615,617 -137,136 -316,205 -495,205 -387,0 -700,-314 -700,-700 0,-133 37,-266 113,-382 31,44 64,84 99,118 13,13 27,26 41,39 -35,70 -53,147 -53,225 0,276 224,500 500,500 128,0 256,-49 353,-147 206,-205 411,-411 616,-616 130,-130 302,-193 475,-192 391,2 706,320 709,710 1,190 -72,366 -214,492l-86 76 -132 -149zm403 -4750c663,0 1200,537 1200,1200 0,663 -537,1200 -1200,1200 -663,0 -1200,-537 -1200,-1200 0,-663 537,-1200 1200,-1200zm-429 2533l-1482 1284c-66,57 -173,62 -286,25 -92,-31 -193,-91 -274,-171 -80,-81 -140,-182 -171,-274 -38,-113 -32,-220 25,-287l1284 -1481c138,428 476,766 904,904z"/>
</svg>