<?xml version="1.0" encoding="UTF-8"?>
<!DOCTYPE svg PUBLIC "-//W3C//DTD SVG 1.1//EN" "http://www.w3.org/Graphics/SVG/1.1/DTD/svg11.dtd">
<svg xmlns="http://www.w3.org/2000/svg" xml:space="preserve" width="580px" height="580px" shape-rendering="geometricPrecision" text-rendering="geometricPrecision" image-rendering="optimizeQuality" fill-rule="nonzero" clip-rule="nonzero" viewBox="0 0 5800 5800" xmlns:xlink="http://www.w3.org/1999/xlink">
	<title>microwave_oven icon</title>
	<desc>microwave_oven icon from the IconExperience.com I-Collection. Copyright by INCORS GmbH (www.incors.com).</desc>
	<path id="curve0"  d="M5100 3400l0 700 -1000 0 0 -700 1000 0zm-4800 -2000l0 3700 1400 0 0 -300c0,-55 45,-100 100,-100l2200 0c55,0 100,45 100,100l0 300 1400 0 0 -3700c0,-165 -135,-300 -300,-300l-4600 0c-165,0 -300,135 -300,300zm3600 300l0 2400 -3200 0 0 -2400 3200 0zm-200 200l-2800 0 0 2000 2800 0 0 -2000zm1400 -200c0,467 0,933 0,1400l-1000 0c0,-467 0,-933 0,-1400 333,0 667,0 1000,0zm-200 200l-200 0 0 200 200 0 0 -200zm-400 0l-200 0 0 200 200 0 0 -200zm-200 800l0 200 200 0 0 -200 -200 0zm400 200l200 0 0 -200 -200 0 0 200zm0 -600l0 200 200 0 0 -200 -200 0zm-200 200l0 -200 -200 0 0 200 200 0zm400 1100l-600 0 0 300 600 0 0 -300z"/>
</svg>