<?xml version="1.0" encoding="UTF-8"?>
<!DOCTYPE svg PUBLIC "-//W3C//DTD SVG 1.1//EN" "http://www.w3.org/Graphics/SVG/1.1/DTD/svg11.dtd">
<svg xmlns="http://www.w3.org/2000/svg" xml:space="preserve" width="580px" height="580px" shape-rendering="geometricPrecision" text-rendering="geometricPrecision" image-rendering="optimizeQuality" fill-rule="nonzero" clip-rule="nonzero" viewBox="0 0 5800 5800" xmlns:xlink="http://www.w3.org/1999/xlink">
	<title>milk icon</title>
	<desc>milk icon from the IconExperience.com I-Collection. Copyright by INCORS GmbH (www.incors.com).</desc>
	<path id="curve0" d="M3900 200l0 477 400 800 0 3264 -859 859c-647,0 -1294,0 -1941,0l0 -3817 400 -1100 0 -483 2000 0zm-85 752l-315 865 0 3442 600 -600 0 -3136 -285 -571zm-515 4448l0 -3500 -1600 0 0 3500 1600 0zm-1558 -3700l1588 0 328 -900 -1588 0 -328 900zm1958 -1300l-1600 0 0 200 1600 0 0 -200z"/>
</svg>