<?xml version="1.0" encoding="UTF-8"?>
<!DOCTYPE svg PUBLIC "-//W3C//DTD SVG 1.1//EN" "http://www.w3.org/Graphics/SVG/1.1/DTD/svg11.dtd">
<svg xmlns="http://www.w3.org/2000/svg" xml:space="preserve" width="580px" height="580px" shape-rendering="geometricPrecision" text-rendering="geometricPrecision" image-rendering="optimizeQuality" fill-rule="nonzero" clip-rule="nonzero" viewBox="0 0 5800 5800" xmlns:xlink="http://www.w3.org/1999/xlink">
	<title>minibus icon</title>
	<desc>minibus icon from the IconExperience.com I-Collection. Copyright by INCORS GmbH (www.incors.com).</desc>
		<path id="curve28" d="M2100 3100l-900 0c-55,0 -100,-45 -100,-100l0 -1100 200 0 0 1000 800 0 0 200zm1200 0l-900 0c-55,0 -100,-45 -100,-100l0 -1100 200 0 0 1000 800 0 0 200zm1400 0l-1100 0c-55,0 -100,-45 -100,-100l0 -1100 200 0 0 1000 1000 0 0 200zm-3900 1400l-400 0c-55,0 -100,-45 -100,-100l0 -2800c0,-55 45,-100 100,-100l3900 0c41,0 75,24 91,59l687 1275 382 286c26,20 40,50 40,80l0 1200c0,55 -45,100 -100,100l-400 0 0 -200 300 0 0 -1050 -355 -267c-13,-8 -25,-21 -33,-36l-671 -1247 -3741 0 0 2600 300 0 0 200zm2600 0l-1000 0 0 -200 1000 0 0 200zm800 -600c331,0 600,269 600,600 0,331 -269,600 -600,600 -331,0 -600,-269 -600,-600 0,-331 269,-600 600,-600zm0 200c-221,0 -400,179 -400,400 0,221 179,400 400,400 221,0 400,-179 400,-400 0,-221 -179,-400 -400,-400zm-2600 -200c331,0 600,269 600,600 0,331 -269,600 -600,600 -331,0 -600,-269 -600,-600 0,-331 269,-600 600,-600zm0 200c-221,0 -400,179 -400,400 0,221 179,400 400,400 221,0 400,-179 400,-400 0,-221 -179,-400 -400,-400z"/>
</svg>