<?xml version="1.0" encoding="UTF-8"?>
<!DOCTYPE svg PUBLIC "-//W3C//DTD SVG 1.1//EN" "http://www.w3.org/Graphics/SVG/1.1/DTD/svg11.dtd">
<svg xmlns="http://www.w3.org/2000/svg" xml:space="preserve" width="580px" height="580px" shape-rendering="geometricPrecision" text-rendering="geometricPrecision" image-rendering="optimizeQuality" fill-rule="nonzero" clip-rule="nonzero" viewBox="0 0 5800 5800" xmlns:xlink="http://www.w3.org/1999/xlink">
	<title>minibus icon</title>
	<desc>minibus icon from the IconExperience.com I-Collection. Copyright by INCORS GmbH (www.incors.com).</desc>
		<path id="curve29"  d="M4200 3900c331,0 600,269 600,600 0,331 -269,600 -600,600 -331,0 -600,-269 -600,-600 0,-331 269,-600 600,-600zm-2600 0c331,0 600,269 600,600 0,331 -269,600 -600,600 -331,0 -600,-269 -600,-600 0,-331 269,-600 600,-600z"/>
	<path id="curve28"  d="M5078 2834l382 286c26,20 40,50 40,80l0 1200c0,55 -45,100 -100,100l-400 0c0,-442 -358,-800 -800,-800 -442,0 -800,358 -800,800l-1000 0c0,-442 -358,-800 -800,-800 -442,0 -800,358 -800,800l-400 0c-55,0 -100,-45 -100,-100l0 -2800c0,-55 45,-100 100,-100l3900 0c41,0 75,24 91,59l687 1275zm-166 266l0 -153 -564 -1047 -748 0c-55,0 -100,45 -100,100l0 1000c0,55 45,100 100,100l1312 0zm-2512 -1200c-55,0 -100,45 -100,100l0 1000c0,55 45,100 100,100 267,0 533,0 800,0 55,0 100,-45 100,-100l0 -1000c0,-55 -45,-100 -100,-100l-800 0zm-1200 0c-55,0 -100,45 -100,100l0 1000c0,55 45,100 100,100l791 0c59,5 109,-41 109,-100l0 -1000c0,-55 -45,-100 -100,-100l-800 0z"/>
</svg>