<?xml version="1.0" encoding="UTF-8"?>
<!DOCTYPE svg PUBLIC "-//W3C//DTD SVG 1.1//EN" "http://www.w3.org/Graphics/SVG/1.1/DTD/svg11.dtd">
<svg xmlns="http://www.w3.org/2000/svg" xml:space="preserve" width="580px" height="580px" shape-rendering="geometricPrecision" text-rendering="geometricPrecision" image-rendering="optimizeQuality" fill-rule="nonzero" clip-rule="nonzero" viewBox="0 0 5800 5800" xmlns:xlink="http://www.w3.org/1999/xlink">
	<title>mirror_vertically icon</title>
	<desc>mirror_vertically icon from the IconExperience.com I-Collection. Copyright by INCORS GmbH (www.incors.com).</desc>
		<path id="curve28"  d="M1500 2500l0 -100c0,-297 132,-578 361,-768 49,-41 39,-77 39,-132l0 -200c0,-552 448,-1000 1000,-1000 552,0 1000,448 1000,1000l0 200c0,55 -10,91 39,132 229,190 361,471 361,768l0 100c-708,0 -1853,0 -2800,0zm2800 800l0 100c0,297 -132,578 -361,768 -49,41 -39,77 -39,132l0 200c0,552 -448,1000 -1000,1000 -552,0 -1000,-448 -1000,-1000l0 -200c0,-55 10,-91 -39,-132 -229,-190 -361,-471 -361,-768l0 -100 400 0 0 100c0,179 80,347 217,461 152,127 183,247 183,439l0 200c0,331 269,600 600,600 331,0 600,-269 600,-600l0 -200c0,-192 31,-312 183,-439 137,-114 217,-282 217,-461l0 -100 400 0zm-2200 0l1600 0 0 100c0,120 -52,231 -144,308 -199,166 -256,339 -256,592l0 200c0,221 -179,400 -400,400 -221,0 -400,-179 -400,-400l0 -200c0,-253 -57,-426 -256,-592 -92,-77 -144,-188 -144,-308l0 -100zm-1800 -500l5200 0 0 200 -5200 0 0 -200z"/>
</svg>