<?xml version="1.0" encoding="UTF-8"?>
<!DOCTYPE svg PUBLIC "-//W3C//DTD SVG 1.1//EN" "http://www.w3.org/Graphics/SVG/1.1/DTD/svg11.dtd">
<svg xmlns="http://www.w3.org/2000/svg" xml:space="preserve" width="580px" height="580px" shape-rendering="geometricPrecision" text-rendering="geometricPrecision" image-rendering="optimizeQuality" fill-rule="nonzero" clip-rule="nonzero" viewBox="0 0 5800 5800" xmlns:xlink="http://www.w3.org/1999/xlink">
	<title>mirror_vertically icon</title>
	<desc>mirror_vertically icon from the IconExperience.com I-Collection. Copyright by INCORS GmbH (www.incors.com).</desc>
		<path id="curve28" d="M300 2800l5200 0 0 200 -5200 0 0 -200zm1400 500l0 100c0,239 104,462 288,615 116,97 114,177 112,262l0 223c0,442 358,800 800,800 442,0 800,-358 800,-800l0 -223c-2,-85 -4,-165 112,-262 184,-153 288,-376 288,-615l0 -100 200 0 0 100c0,297 -132,578 -361,768 -41,35 -41,69 -40,105 2,75 1,151 1,227 0,552 -448,1000 -1000,1000 -552,0 -1000,-448 -1000,-1000 0,-76 -1,-152 1,-227 1,-36 1,-70 -40,-105 -229,-190 -361,-471 -361,-768l0 -100 200 0zm2200 0l0 100c0,179 -80,347 -217,461 -75,63 -121,124 -147,192 -27,69 -36,150 -36,247l0 200c0,331 -269,600 -600,600 -331,0 -600,-269 -600,-600l0 -200c0,-97 -9,-178 -36,-247 -26,-68 -72,-129 -147,-192 -137,-114 -217,-282 -217,-461l0 -100 200 0 0 100c0,120 52,231 144,308 103,86 167,173 206,272 38,97 50,200 50,320l0 200c0,221 179,400 400,400 221,0 400,-179 400,-400l0 -200c0,-120 12,-223 50,-320 39,-99 103,-186 206,-272 92,-77 144,-188 144,-308l0 -100 200 0zm-2400 -800l0 -100c0,-297 132,-578 361,-768 41,-35 41,-69 40,-105 -2,-75 -1,-151 -1,-227 0,-552 448,-1000 1000,-1000 552,0 1000,448 1000,1000 0,76 1,152 -1,227 -1,36 -1,70 40,105 229,190 361,471 361,768l0 100 -200 0 0 -100c0,-239 -104,-462 -288,-615 -116,-97 -114,-177 -112,-262l0 -223c0,-442 -358,-800 -800,-800 -442,0 -800,358 -800,800l0 223c2,85 4,165 -112,262 -184,153 -288,376 -288,615l0 100 -200 0z"/>
</svg>