<?xml version="1.0" encoding="UTF-8"?>
<!DOCTYPE svg PUBLIC "-//W3C//DTD SVG 1.1//EN" "http://www.w3.org/Graphics/SVG/1.1/DTD/svg11.dtd">
<svg xmlns="http://www.w3.org/2000/svg" xml:space="preserve" width="580px" height="580px" shape-rendering="geometricPrecision" text-rendering="geometricPrecision" image-rendering="optimizeQuality" fill-rule="nonzero" clip-rule="nonzero" viewBox="0 0 5800 5800" xmlns:xlink="http://www.w3.org/1999/xlink">
	<title>mirror_horizontally icon</title>
	<desc>mirror_horizontally icon from the IconExperience.com I-Collection. Copyright by INCORS GmbH (www.incors.com).</desc>
		<path id="curve28"  d="M2500 4300l-100 0c-297,0 -578,-132 -768,-361 -41,-49 -77,-39 -132,-39l-200 0c-552,0 -1000,-448 -1000,-1000 0,-552 448,-1000 1000,-1000l200 0c55,0 91,10 132,-39 190,-229 471,-361 768,-361l100 0c0,708 0,1853 0,2800zm800 -2800l100 0c297,0 578,132 768,361 41,49 77,39 132,39l200 0c552,0 1000,448 1000,1000 0,552 -448,1000 -1000,1000l-200 0c-55,0 -91,-10 -132,39 -190,229 -471,361 -768,361l-100 0 0 -400 100 0c179,0 347,-80 461,-217 127,-152 247,-183 439,-183l200 0c331,0 600,-269 600,-600 0,-331 -269,-600 -600,-600l-200 0c-192,0 -312,-31 -439,-183 -114,-137 -282,-217 -461,-217l-100 0 0 -400zm0 2200l0 -1600 100 0c120,0 231,52 308,144 166,199 339,256 592,256l200 0c221,0 400,179 400,400 0,221 -179,400 -400,400l-200 0c-253,0 -426,57 -592,256 -77,92 -188,144 -308,144l-100 0zm-500 1800l0 -5200 200 0 0 5200 -200 0z"/>
</svg>