<?xml version="1.0" encoding="UTF-8"?>
<!DOCTYPE svg PUBLIC "-//W3C//DTD SVG 1.1//EN" "http://www.w3.org/Graphics/SVG/1.1/DTD/svg11.dtd">
<svg xmlns="http://www.w3.org/2000/svg" xml:space="preserve" width="580px" height="580px" shape-rendering="geometricPrecision" text-rendering="geometricPrecision" image-rendering="optimizeQuality" fill-rule="nonzero" clip-rule="nonzero" viewBox="0 0 5800 5800" xmlns:xlink="http://www.w3.org/1999/xlink">
	<title>mirror_horizontally icon</title>
	<desc>mirror_horizontally icon from the IconExperience.com I-Collection. Copyright by INCORS GmbH (www.incors.com).</desc>
		<path id="curve28"  d="M2800 5500l0 -5200 200 0 0 5200 -200 0zm500 -1400l100 0c239,0 462,-104 615,-288 97,-116 177,-114 262,-112l223 0c442,0 800,-358 800,-800 0,-442 -358,-800 -800,-800l-223 0c-85,2 -165,4 -262,-112 -153,-184 -376,-288 -615,-288l-100 0 0 -200 100 0c297,0 578,132 768,361 35,41 69,41 105,40 75,-2 151,-1 227,-1 552,0 1000,448 1000,1000 0,552 -448,1000 -1000,1000 -76,0 -152,1 -227,-1 -36,-1 -70,-1 -105,40 -190,229 -471,361 -768,361l-100 0 0 -200zm0 -2200l100 0c179,0 347,80 461,217 63,75 124,121 192,147 69,27 150,36 247,36l200 0c331,0 600,269 600,600 0,331 -269,600 -600,600l-200 0c-97,0 -178,9 -247,36 -68,26 -129,72 -192,147 -114,137 -282,217 -461,217l-100 0 0 -200 100 0c120,0 231,-52 308,-144 86,-103 173,-167 272,-206 97,-38 200,-50 320,-50l200 0c221,0 400,-179 400,-400 0,-221 -179,-400 -400,-400l-200 0c-120,0 -223,-12 -320,-50 -99,-39 -186,-103 -272,-206 -77,-92 -188,-144 -308,-144l-100 0 0 -200zm-800 2400l-100 0c-297,0 -578,-132 -768,-361 -35,-41 -69,-41 -105,-40 -75,2 -151,1 -227,1 -552,0 -1000,-448 -1000,-1000 0,-552 448,-1000 1000,-1000 76,0 152,-1 227,1 36,1 70,1 105,-40 190,-229 471,-361 768,-361l100 0 0 200 -100 0c-239,0 -462,104 -615,288 -97,116 -177,114 -262,112l-223 0c-442,0 -800,358 -800,800 0,442 358,800 800,800l223 0c85,-2 165,-4 262,112 153,184 376,288 615,288l100 0 0 200z"/>
</svg>