<?xml version="1.0" encoding="UTF-8"?>
<!DOCTYPE svg PUBLIC "-//W3C//DTD SVG 1.1//EN" "http://www.w3.org/Graphics/SVG/1.1/DTD/svg11.dtd">
<svg xmlns="http://www.w3.org/2000/svg" xml:space="preserve" width="580px" height="580px" shape-rendering="geometricPrecision" text-rendering="geometricPrecision" image-rendering="optimizeQuality" fill-rule="nonzero" clip-rule="nonzero" viewBox="0 0 5800 5800" xmlns:xlink="http://www.w3.org/1999/xlink">
	<title>missile icon</title>
	<desc>missile icon from the IconExperience.com I-Collection. Copyright by INCORS GmbH (www.incors.com).</desc>
		<path id="curve28"  d="M1400 3500c-179,0 -401,-78 -596,-175 -276,-138 -504,-336 -504,-425 0,-89 228,-287 504,-425 195,-97 417,-175 596,-175l0 1200zm2165 -1800l535 0 0 400 -1229 0 521 -345c53,-35 110,-55 173,-55zm535 2000l0 400 -535 0c-63,0 -120,-20 -173,-55l-520 -345 1228 0zm-2300 -1400l2758 0 501 -500c147,0 294,0 441,0l0 2200c-147,0 -294,0 -441,0l-500 -500 -2759 0 0 -1200z"/>
</svg>