<?xml version="1.0" encoding="UTF-8"?>
<!DOCTYPE svg PUBLIC "-//W3C//DTD SVG 1.1//EN" "http://www.w3.org/Graphics/SVG/1.1/DTD/svg11.dtd">
<svg xmlns="http://www.w3.org/2000/svg" xml:space="preserve" width="580px" height="580px" shape-rendering="geometricPrecision" text-rendering="geometricPrecision" image-rendering="optimizeQuality" fill-rule="nonzero" clip-rule="nonzero" viewBox="0 0 5800 5800" xmlns:xlink="http://www.w3.org/1999/xlink">
	<title>missile2 icon</title>
	<desc>missile2 icon from the IconExperience.com I-Collection. Copyright by INCORS GmbH (www.incors.com).</desc>
		<path id="curve28" d="M4300 3300l0 200 -585 0 600 200 785 0 0 -600 200 0 0 -400 -200 0 0 -600 -785 0 -600 200 585 0 0 200c-800,0 -1600,0 -2400,0l0 800c800,0 1600,0 2400,0zm-2900 200c-179,0 -401,-78 -596,-175 -276,-138 -504,-336 -504,-425 0,-89 228,-287 504,-425 195,-97 417,-175 596,-175 0,1 1545,0 1685,0l1200 -400 1015 0 0 600 200 0 0 800 -200 0 0 600 -1015 0 -1200 -400 -1685 0zm-507 -353c134,67 280,123 407,144l0 -782c-127,21 -273,77 -407,144 -215,108 -393,221 -393,247 0,26 178,139 393,247zm607 153l200 0 0 -800 -200 0 0 800z"/>
</svg>