<?xml version="1.0" encoding="UTF-8"?>
<!DOCTYPE svg PUBLIC "-//W3C//DTD SVG 1.1//EN" "http://www.w3.org/Graphics/SVG/1.1/DTD/svg11.dtd">
<svg xmlns="http://www.w3.org/2000/svg" xml:space="preserve" width="580px" height="580px" shape-rendering="geometricPrecision" text-rendering="geometricPrecision" image-rendering="optimizeQuality" fill-rule="nonzero" clip-rule="nonzero" viewBox="0 0 5800 5800" xmlns:xlink="http://www.w3.org/1999/xlink">
	<title>mobile_phone icon</title>
	<desc>mobile_phone icon from the IconExperience.com I-Collection. Copyright by INCORS GmbH (www.incors.com).</desc>
	<path id="curve0"  d="M1800 300l2200 0c275,0 500,225 500,500l0 4200c0,275 -225,500 -500,500l-2200 0c-275,0 -500,-225 -500,-500l0 -4200c0,-275 225,-500 500,-500zm1700 4400c-55,0 -100,45 -100,100l0 200c0,55 45,100 100,100l400 0c55,0 100,-45 100,-100l0 -200c0,-55 -45,-100 -100,-100l-400 0zm0 -600c-55,0 -100,45 -100,100l0 200c0,55 45,100 100,100l400 0c55,0 100,-45 100,-100l0 -200c0,-55 -45,-100 -100,-100l-400 0zm0 -600c-55,0 -100,45 -100,100l0 200c0,55 45,100 100,100l400 0c55,0 100,-45 100,-100l0 -200c0,-55 -45,-100 -100,-100l-400 0zm0 -600c-55,0 -100,45 -100,100l0 200c0,55 45,100 100,100l400 0c55,0 100,-45 100,-100l0 -200c0,-55 -45,-100 -100,-100l-400 0zm-800 1800c-55,0 -100,45 -100,100l0 200c0,55 45,100 100,100l400 0c55,0 100,-45 100,-100l0 -200c0,-55 -45,-100 -100,-100l-400 0zm0 -600c-55,0 -100,45 -100,100l0 200c0,55 45,100 100,100l400 0c55,0 100,-45 100,-100l0 -200c0,-55 -45,-100 -100,-100l-400 0zm0 -600c-55,0 -100,45 -100,100l0 200c0,55 45,100 100,100l400 0c55,0 100,-45 100,-100l0 -200c0,-55 -45,-100 -100,-100l-400 0zm0 -800c-55,0 -100,45 -100,100l0 400c0,55 45,100 100,100l400 0c55,0 100,-45 100,-100l0 -400c0,-55 -45,-100 -100,-100l-400 0zm100 200l200 0 0 200 -200 0 0 -200zm-900 1800c-55,0 -100,45 -100,100l0 200c0,55 45,100 100,100l400 0c55,0 100,-45 100,-100l0 -200c0,-55 -45,-100 -100,-100l-400 0zm0 -600c-55,0 -100,45 -100,100l0 200c0,55 45,100 100,100l400 0c55,0 100,-45 100,-100l0 -200c0,-55 -45,-100 -100,-100l-400 0zm0 -600c-55,0 -100,45 -100,100l0 200c0,55 45,100 100,100l400 0c55,0 100,-45 100,-100l0 -200c0,-55 -45,-100 -100,-100l-400 0zm0 -600c-55,0 -100,45 -100,100l0 200c0,55 45,100 100,100l400 0c55,0 100,-45 100,-100l0 -200c0,-55 -45,-100 -100,-100l-400 0zm2100 -2200l-2200 0 0 1800 2200 0 0 -1800zm-200 200l0 1400 -1800 0 0 -1400 1800 0z"/>
</svg>