<?xml version="1.0" encoding="UTF-8"?>
<!DOCTYPE svg PUBLIC "-//W3C//DTD SVG 1.1//EN" "http://www.w3.org/Graphics/SVG/1.1/DTD/svg11.dtd">
<svg xmlns="http://www.w3.org/2000/svg" xml:space="preserve" width="580px" height="580px" shape-rendering="geometricPrecision" text-rendering="geometricPrecision" image-rendering="optimizeQuality" fill-rule="nonzero" clip-rule="nonzero" viewBox="0 0 5800 5800" xmlns:xlink="http://www.w3.org/1999/xlink">
	<title>mobile_crane icon</title>
	<desc>mobile_crane icon from the IconExperience.com I-Collection. Copyright by INCORS GmbH (www.incors.com).</desc>
		<path id="curve28" d="M800 3900c275,0 499,223 500,498 1,-275 225,-498 500,-498 276,0 500,224 500,500 0,276 -224,500 -500,500 -275,0 -499,-223 -500,-498 -1,275 -225,498 -500,498 -138,0 -263,-56 -354,-146 -90,-91 -146,-216 -146,-354 0,-276 224,-500 500,-500zm2875 -2135l-1689 1591 -91 275c-14,42 -53,69 -95,69l-1400 0c-55,0 -100,-45 -100,-100l0 -800c0,-55 45,-100 100,-100l400 0 0 -500c0,-55 45,-100 100,-100l700 0c43,0 79,27 93,64l56 111 3616 -1368c66,-25 135,24 135,93l0 816c20,14 37,33 50,55l95 165c15,27 23,56 23,85 0,60 -33,117 -85,147 1,1 -31,14 -34,15 87,41 144,129 144,226 0,138 -113,250 -250,250 -138,0 -250,-112 -250,-250l200 0c0,28 22,50 50,50 28,0 50,-22 50,-50 0,-28 -22,-50 -50,-50l-142 -1 0 -167c-91,-4 -164,-80 -164,-170 0,-29 8,-58 24,-85l95 -165c11,-20 26,-37 44,-50l0 -677 -1625 621zm-1782 1243c-118,-236 -236,-472 -354,-708l-539 0 0 500c0,55 -45,100 -100,100l-400 0 0 600 1228 0c55,-164 110,-328 165,-492zm204 -30l1104 -1039 -1363 515 251 501c4,8 6,15 8,23zm403 1322l800 0 0 -1500c0,-55 45,-100 100,-100l1100 0c41,0 76,24 91,59l496 893c9,15 13,32 13,48l0 800 -200 0 0 -775 -458 -825 -942 0 0 1500c0,55 -45,100 -100,100l-900 0 0 -200zm1700 -400c276,0 500,224 500,500 0,276 -224,500 -500,500 -276,0 -500,-224 -500,-500 0,-276 224,-500 500,-500zm0 200c-166,0 -300,134 -300,300 0,166 134,300 300,300 166,0 300,-134 300,-300 0,-166 -134,-300 -300,-300zm-2400 0c-166,0 -300,134 -300,300 0,166 134,300 300,300 166,0 300,-134 300,-300 0,-166 -134,-300 -300,-300zm-1000 0c-166,0 -300,134 -300,300 0,83 34,158 88,212 54,54 129,88 212,88 166,0 300,-134 300,-300 0,-166 -134,-300 -300,-300z"/>
</svg>