<?xml version="1.0" encoding="UTF-8"?>
<!DOCTYPE svg PUBLIC "-//W3C//DTD SVG 1.1//EN" "http://www.w3.org/Graphics/SVG/1.1/DTD/svg11.dtd">
<svg xmlns="http://www.w3.org/2000/svg" xml:space="preserve" width="580px" height="580px" shape-rendering="geometricPrecision" text-rendering="geometricPrecision" image-rendering="optimizeQuality" fill-rule="nonzero" clip-rule="nonzero" viewBox="0 0 5800 5800" xmlns:xlink="http://www.w3.org/1999/xlink">
	<title>mobile_phone icon</title>
	<desc>mobile_phone icon from the IconExperience.com I-Collection. Copyright by INCORS GmbH (www.incors.com).</desc>
	<path id="curve0"  d="M1800 300l2200 0c275,0 500,225 500,500l0 4200c0,275 -225,500 -500,500l-2200 0c-275,0 -500,-225 -500,-500l0 -4200c0,-275 225,-500 500,-500zm1700 4400l400 0c55,0 100,45 100,100l0 200c0,55 -45,100 -100,100l-400 0c-55,0 -100,-45 -100,-100l0 -200c0,-55 45,-100 100,-100zm0 -600l400 0c55,0 100,45 100,100l0 200c0,55 -45,100 -100,100l-400 0c-55,0 -100,-45 -100,-100l0 -200c0,-55 45,-100 100,-100zm0 -600l400 0c55,0 100,45 100,100l0 200c0,55 -45,100 -100,100l-400 0c-55,0 -100,-45 -100,-100l0 -200c0,-55 45,-100 100,-100zm0 -600l400 0c55,0 100,45 100,100l0 200c0,55 -45,100 -100,100l-400 0c-55,0 -100,-45 -100,-100l0 -200c0,-55 45,-100 100,-100zm-800 1800l400 0c55,0 100,45 100,100l0 200c0,55 -45,100 -100,100l-400 0c-55,0 -100,-45 -100,-100l0 -200c0,-55 45,-100 100,-100zm0 -600l400 0c55,0 100,45 100,100l0 200c0,55 -45,100 -100,100l-400 0c-55,0 -100,-45 -100,-100l0 -200c0,-55 45,-100 100,-100zm0 -600l400 0c55,0 100,45 100,100l0 200c0,55 -45,100 -100,100l-400 0c-55,0 -100,-45 -100,-100l0 -200c0,-55 45,-100 100,-100zm0 -800l400 0c55,0 100,45 100,100l0 400c0,55 -45,100 -100,100l-400 0c-55,0 -100,-45 -100,-100l0 -400c0,-55 45,-100 100,-100zm100 200l0 200 200 0 0 -200 -200 0zm-900 1800l400 0c55,0 100,45 100,100l0 200c0,55 -45,100 -100,100l-400 0c-55,0 -100,-45 -100,-100l0 -200c0,-55 45,-100 100,-100zm0 -600l400 0c55,0 100,45 100,100l0 200c0,55 -45,100 -100,100l-400 0c-55,0 -100,-45 -100,-100l0 -200c0,-55 45,-100 100,-100zm0 -600l400 0c55,0 100,45 100,100l0 200c0,55 -45,100 -100,100l-400 0c-55,0 -100,-45 -100,-100l0 -200c0,-55 45,-100 100,-100zm0 -600l400 0c55,0 100,45 100,100l0 200c0,55 -45,100 -100,100l-400 0c-55,0 -100,-45 -100,-100l0 -200c0,-55 45,-100 100,-100zm2200 -2200l0 1800 -2400 0 0 -1800 2400 0zm-200 200l-2000 0 0 1400 2000 0 0 -1400zm100 -400l-2200 0c-165,0 -300,135 -300,300l0 4200c0,165 135,300 300,300l2200 0c165,0 300,-135 300,-300l0 -4200c0,-165 -135,-300 -300,-300z"/>
</svg>