<?xml version="1.0" encoding="UTF-8"?>
<!DOCTYPE svg PUBLIC "-//W3C//DTD SVG 1.1//EN" "http://www.w3.org/Graphics/SVG/1.1/DTD/svg11.dtd">
<svg xmlns="http://www.w3.org/2000/svg" xml:space="preserve" width="580px" height="580px" shape-rendering="geometricPrecision" text-rendering="geometricPrecision" image-rendering="optimizeQuality" fill-rule="nonzero" clip-rule="nonzero" viewBox="0 0 5800 5800" xmlns:xlink="http://www.w3.org/1999/xlink">
	<title>mobilephone2 icon</title>
	<desc>mobilephone2 icon from the IconExperience.com I-Collection. Copyright by INCORS GmbH (www.incors.com).</desc>
	<path id="curve0" d="M2200 200l1400 0c165,0 300,135 300,300l0 2100c0,165 -135,300 -300,300l-100 0 0 200 -1200 0 0 -200 -100 0c-165,0 -300,-135 -300,-300l0 -2100c0,-165 135,-300 300,-300zm-100 3100c533,0 1067,0 1600,0l0 -210c74,-15 142,-46 200,-90 0,733 0,1467 0,2200 0,165 -135,300 -300,300l-1400 0c-165,0 -300,-135 -300,-300 0,-733 0,-1467 0,-2200 58,44 126,75 200,90l0 210zm1400 -2700l0 1900 -1200 0 0 -1900 1200 0zm-1400 4200l400 0 0 -300 -400 0 0 300zm600 0l400 0 0 -300 -400 0 0 300zm600 0l400 0 0 -300 -400 0 0 300zm400 200l-400 0 0 300 300 0c55,0 100,-45 100,-100l0 -200zm-600 0l-400 0 0 300 400 0 0 -300zm-600 0l-400 0 0 200c0,54 47,100 100,100l300 0 0 -300zm-400 -700l400 0 0 -300 -400 0 0 300zm600 0l400 0 0 -300 -400 0 0 300zm600 0l400 0 0 -300 -400 0 0 300zm-1200 -500l400 0 0 -300 -400 0 0 300zm600 0l400 0 0 -300 -400 0 0 300zm600 0l400 0 0 -300 -400 0 0 300zm300 -3400l-1400 0c-55,0 -100,45 -100,100l0 2100c0,55 45,100 100,100l300 0 0 200 800 0 0 -200 300 0c55,0 100,-45 100,-100l0 -2100c0,-55 -45,-100 -100,-100z"/>
</svg>