<?xml version="1.0" encoding="UTF-8"?>
<!DOCTYPE svg PUBLIC "-//W3C//DTD SVG 1.1//EN" "http://www.w3.org/Graphics/SVG/1.1/DTD/svg11.dtd">
<svg xmlns="http://www.w3.org/2000/svg" xml:space="preserve" width="580px" height="580px" shape-rendering="geometricPrecision" text-rendering="geometricPrecision" image-rendering="optimizeQuality" fill-rule="nonzero" clip-rule="nonzero" viewBox="0 0 5800 5800" xmlns:xlink="http://www.w3.org/1999/xlink">
	<title>mobile_crane icon</title>
	<desc>mobile_crane icon from the IconExperience.com I-Collection. Copyright by INCORS GmbH (www.incors.com).</desc>
		<path id="curve31"  d="M2500 4300l800 0 0 -1500c0,-55 45,-100 100,-100l1100 0c41,0 76,24 91,59l496 893c2,3 13,48 13,48l0 800 -207 0c5,-33 7,-66 7,-100 0,-387 -313,-700 -700,-700 -387,0 -700,313 -700,700 0,34 2,67 7,100l-1007 0 0 -200z"/>
	<path id="curve30"  d="M4200 3900c276,0 500,224 500,500 0,276 -224,500 -500,500 -276,0 -500,-224 -500,-500 0,-276 224,-500 500,-500zm-2400 0c276,0 500,224 500,500 0,276 -224,500 -500,500 -275,0 -499,-223 -500,-498 -1,275 -225,498 -500,498 -276,0 -500,-224 -500,-500 0,-276 224,-500 500,-500 275,0 499,223 500,498 1,-275 225,-498 500,-498z"/>
	<path id="curve29"  d="M900 2100l700 0c43,0 79,27 93,64l396 791c12,25 14,53 5,77l-199 599c-14,42 -53,69 -95,69l0 0 -1400 0c-55,0 -100,-45 -100,-100l0 -800c0,-55 45,-100 100,-100l400 0 0 -500c0,-55 45,-100 100,-100z"/>
	<path id="curve28"  d="M3682 1757l-1714 1616c-40,37 -103,35 -141,-5 -37,-40 -35,-103 5,-141l1369 -1288 -1466 554c-51,20 -109,-6 -128,-58 -20,-51 6,-109 58,-128l3700 -1400c51,-20 109,6 128,58 5,11 7,23 7,35l0 816c20,14 37,33 50,55l95 165c15,27 23,56 23,85 0,29 -7,58 -23,85 -15,26 -36,47 -62,62 1,1 -31,14 -34,15 87,41 144,129 144,226 0,138 -113,250 -250,250 -138,0 -250,-112 -250,-250l200 0c0,14 5,26 14,35 9,9 22,15 36,15 28,0 50,-22 50,-50 0,-28 -22,-50 -50,-50l-142 -1 0 -167c-59,-3 -111,-35 -140,-85 -16,-27 -24,-56 -24,-85 0,-29 8,-58 24,-85l95 -165c11,-20 26,-37 44,-50l0 -677 -1618 613z"/>
</svg>