<?xml version="1.0" encoding="UTF-8"?>
<!DOCTYPE svg PUBLIC "-//W3C//DTD SVG 1.1//EN" "http://www.w3.org/Graphics/SVG/1.1/DTD/svg11.dtd">
<svg xmlns="http://www.w3.org/2000/svg" xml:space="preserve" width="580px" height="580px" shape-rendering="geometricPrecision" text-rendering="geometricPrecision" image-rendering="optimizeQuality" fill-rule="nonzero" clip-rule="nonzero" viewBox="0 0 5800 5800" xmlns:xlink="http://www.w3.org/1999/xlink">
	<title>modem_earth icon</title>
	<desc>modem_earth icon from the IconExperience.com I-Collection. Copyright by INCORS GmbH (www.incors.com).</desc>
		<path id="curve29"  d="M5491 2400c0,567 -225,1082 -591,1460l0 -305c245,-320 391,-721 391,-1155 0,-120 -11,-237 -32,-350 -10,38 -18,123 -157,216 -58,78 110,163 1,303 -58,75 -133,174 -170,262 -18,43 -23,73 -17,119 18,166 -33,208 -110,344l-4 6 -665 0c15,-78 55,-124 56,-212 2,-71 -80,-176 -94,-251 -2,-10 -17,-100 -24,-107 -81,-83 -73,-190 -188,-151 -81,28 -228,102 -310,69 -149,-60 -293,-209 -325,-369 -8,-37 18,-202 22,-256 5,-66 35,-128 72,-181 15,-21 33,-40 52,-58 19,-19 97,-82 107,-99 30,-52 73,-129 135,-146 -32,-6 -63,-17 -90,-30 -82,-39 -73,-176 -42,-245 40,-87 117,-126 211,-126 38,-1 74,2 110,-8 23,-6 75,-64 103,-82 42,-28 -50,-96 -12,-172 33,-66 123,-72 182,-101 36,-18 79,-68 124,-82 -9,-5 -18,-9 -27,-13 -183,-87 -383,-144 -593,-168 -4,18 -17,35 -43,50 -70,41 -74,111 -210,161 -112,41 -218,12 -334,74 -64,34 -167,123 -227,137 -16,4 -32,3 -45,-8 -33,-31 0,-116 12,-152 6,-16 33,-93 29,-106 -19,-26 -158,-1 -185,5l-8 2c-52,23 -102,49 -151,78 33,21 103,43 105,64 5,59 -113,47 -135,150 -3,19 27,92 34,112 33,90 19,237 -93,200 -43,-14 -62,-73 -106,-49 -44,24 -17,150 -75,158 -116,16 -197,109 -284,178 -37,28 -63,178 -140,232 -29,21 -189,124 -201,147 -2,5 -5,11 -7,17 -6,23 -11,46 -15,70 -2,19 -1,38 2,58 7,58 29,116 56,168 13,25 41,72 63,91 52,47 107,-27 184,-3 58,18 102,50 145,91 87,84 210,135 269,204 23,28 25,43 34,76 6,23 23,35 44,48 49,29 114,53 167,74 43,18 194,72 215,112 56,108 -36,172 -61,269 -6,22 -4,50 -2,80l-758 0c-5,-21 -12,-39 -20,-49 -89,-100 -213,-260 -234,-393 -16,-98 -30,-203 -20,-302 0,-31 -91,-168 -111,-197l-8 -12c-1,18 -1,35 -1,53 0,326 82,632 226,900l-224 0c-129,-273 -202,-578 -202,-900 0,-1160 940,-2100 2100,-2100 1167,0 2100,949 2100,2100zm-1268 -1049c22,25 48,42 76,60 26,15 59,32 67,63 7,26 -11,51 -30,67 -49,40 -111,25 -84,-46 8,-22 -137,-85 -154,-93 -51,-27 -94,-88 -158,-58 -78,37 -113,165 -197,192 50,-1 96,-12 144,-28 46,-17 188,-28 234,-13 156,54 100,216 236,239 18,3 56,0 76,0 22,-1 63,-4 84,0 76,14 131,47 206,9 36,-17 53,-85 25,-115 -86,-93 -292,-38 -335,-87 -22,-25 -45,-68 -62,-98 -29,-49 -57,-114 -128,-92z"/>
	<path id="curve28"  d="M4100 3900c0,133 0,267 0,400 -333,0 -667,0 -1000,0 0,-133 0,-267 0,-400 333,0 667,0 1000,0zm-3000 -400l0 400 200 0 0 -400 200 0 0 400 200 0 0 -400 200 0 0 400 200 0 0 -300 0 -100 100 0 2500 0 0 2000 -4400 0 0 -2000 800 0zm-200 200l-400 0 0 1600 4000 0 0 -1600 -2200 0 0 400 -1400 0 0 -400z"/>
</svg>