<?xml version="1.0" encoding="UTF-8"?>
<!DOCTYPE svg PUBLIC "-//W3C//DTD SVG 1.1//EN" "http://www.w3.org/Graphics/SVG/1.1/DTD/svg11.dtd">
<svg xmlns="http://www.w3.org/2000/svg" xml:space="preserve" width="580px" height="580px" shape-rendering="geometricPrecision" text-rendering="geometricPrecision" image-rendering="optimizeQuality" fill-rule="nonzero" clip-rule="nonzero" viewBox="0 0 5800 5800" xmlns:xlink="http://www.w3.org/1999/xlink">
	<title>modem_earth icon</title>
	<desc>modem_earth icon from the IconExperience.com I-Collection. Copyright by INCORS GmbH (www.incors.com).</desc>
		<path id="curve29"  d="M1900 3500l0 400 200 0 0 -400 2600 0 0 2000 -4400 0 0 -2000 800 0 0 400 200 0 0 -400 200 0 0 400 200 0 0 -400 200 0zm1200 400l0 400 1000 0 0 -400 -1000 0z"/>
	<path id="curve28"  d="M3400 300c1160,0 2100,940 2100,2100 0,572 -229,1091 -600,1469l0 -569 -92 0c47,-82 94,-165 95,-170 72,-214 -110,-158 208,-565 104,-134 -73,-211 -1,-307 10,-14 77,-20 107,-69 26,-43 34,-109 49,-147 -112,-589 -497,-1082 -1017,-1342 -43,11 -89,64 -125,82 -50,24 -146,36 -174,93 -35,70 70,138 5,181 -55,37 -74,76 -110,86 -90,25 -166,-20 -258,54 -97,77 -95,255 -21,290 75,37 187,56 236,-16 29,-43 102,-133 140,-151 77,-36 127,32 179,59 98,50 182,77 166,120 -32,82 86,22 74,-23 -10,-41 -93,-53 -149,-128 -18,-23 91,-44 128,7 34,49 80,140 106,170 32,36 246,-12 338,87 38,40 19,126 -31,150 -83,42 -128,10 -222,-7 -18,-3 -144,3 -162,0 -154,-26 -92,-191 -242,-242 -30,-11 -167,-8 -223,12 -239,85 -241,-65 -374,170 -17,29 -114,92 -162,160 -35,49 -65,109 -69,172 -3,42 -26,238 -23,254 30,153 171,299 316,357 73,30 207,-38 299,-69 102,-35 109,4 152,80 76,132 55,10 90,197 12,66 97,184 96,258 -2,98 -36,127 -53,197l-1559 0c-2,-25 -2,-49 3,-70 27,-102 115,-159 64,-257 -23,-43 -284,-123 -379,-179 -121,-73 39,-93 -252,-246 -72,-38 -121,-139 -240,-176 -75,-23 -128,58 -195,-1 -21,-18 -74,-93 -106,-185 -6,55 -10,111 -11,167 63,91 118,188 116,213 -10,90 1,192 19,301 19,119 129,270 232,386 9,11 16,27 22,47l-388 0c-129,-273 -202,-578 -202,-900 0,-1160 940,-2100 2100,-2100zm183 209c-60,-6 -121,-9 -183,-9 -236,0 -461,43 -669,121 35,1 61,6 72,20 28,38 -116,284 -18,262 62,-14 154,-108 262,-155 104,-44 199,-20 303,-58 140,-52 166,-136 209,-161 11,-6 19,-13 24,-20zm-1148 254c-416,246 -731,646 -864,1122 41,-30 99,-67 152,-105 71,-49 105,-206 141,-234 93,-73 173,-167 297,-185 36,-5 14,-127 69,-157 91,-48 97,124 202,11 50,-52 -56,-211 -45,-262 23,-113 139,-110 135,-147 0,-2 -51,-20 -87,-43z"/>
</svg>