<?xml version="1.0" encoding="UTF-8"?>
<!DOCTYPE svg PUBLIC "-//W3C//DTD SVG 1.1//EN" "http://www.w3.org/Graphics/SVG/1.1/DTD/svg11.dtd">
<svg xmlns="http://www.w3.org/2000/svg" xml:space="preserve" width="580px" height="580px" shape-rendering="geometricPrecision" text-rendering="geometricPrecision" image-rendering="optimizeQuality" fill-rule="nonzero" clip-rule="nonzero" viewBox="0 0 5800 5800" xmlns:xlink="http://www.w3.org/1999/xlink">
	<title>modem icon</title>
	<desc>modem icon from the IconExperience.com I-Collection. Copyright by INCORS GmbH (www.incors.com).</desc>
		<path id="curve28"  d="M2500 2700l0 600 200 0 0 -600 2800 0 0 2200 -5200 0 0 -2200 1000 0 0 600 200 0 0 -600 200 0 0 600 200 0 0 -600 200 0 0 600 200 0 0 -600 200 0zm-1400 200l-600 0 0 1800 4800 0 0 -1800 -2400 0 0 600 -1800 0 0 -600zm3800 200c0,133 0,267 0,400 -333,0 -667,0 -1000,0 0,-133 0,-267 0,-400 333,0 667,0 1000,0z"/>
</svg>