<?xml version="1.0" encoding="UTF-8"?>
<!DOCTYPE svg PUBLIC "-//W3C//DTD SVG 1.1//EN" "http://www.w3.org/Graphics/SVG/1.1/DTD/svg11.dtd">
<svg xmlns="http://www.w3.org/2000/svg" xml:space="preserve" width="580px" height="580px" shape-rendering="geometricPrecision" text-rendering="geometricPrecision" image-rendering="optimizeQuality" fill-rule="nonzero" clip-rule="nonzero" viewBox="0 0 5800 5800" xmlns:xlink="http://www.w3.org/1999/xlink">
	<title>molecule_h2o icon</title>
	<desc>molecule_h2o icon from the IconExperience.com I-Collection. Copyright by INCORS GmbH (www.incors.com).</desc>
		<path id="curve30"  d="M2300 500c245,0 479,44 696,124 -52,38 -99,78 -148,119l-28 66c-116,273 -176,566 -176,862 0,860 500,1639 1278,1999 -376,521 -977,830 -1622,830 -1105,0 -2000,-895 -2000,-2000 0,-1105 895,-2000 2000,-2000z"/>
	<path id="curve29"  d="M4009 3489c-349,-161 -643,-419 -849,-739 -200,-311 -316,-682 -316,-1079 0,-268 55,-536 160,-783 2,-4 28,-38 28,-38 270,-226 610,-350 963,-350 829,0 1501,672 1501,1501 0,804 -635,1466 -1439,1499 -17,0 -34,-4 -48,-11zm1091 -1489l-200 0c0,362 -216,689 -549,830l77 183c407,-172 672,-571 672,-1013z"/>
	<path id="curve28"  d="M3686 4209c-103,739 -738,1291 -1486,1291 -825,0 -1495,-666 -1500,-1490 15,15 29,31 44,46 414,413 971,644 1556,644 185,0 367,-23 543,-68l-3 1c-81,82 -179,150 -289,197l77 183c204,-86 372,-229 489,-405 18,-28 35,-57 51,-86 185,-79 359,-185 518,-313z"/>
</svg>