<?xml version="1.0" encoding="UTF-8"?>
<!DOCTYPE svg PUBLIC "-//W3C//DTD SVG 1.1//EN" "http://www.w3.org/Graphics/SVG/1.1/DTD/svg11.dtd">
<svg xmlns="http://www.w3.org/2000/svg" xml:space="preserve" width="580px" height="580px" shape-rendering="geometricPrecision" text-rendering="geometricPrecision" image-rendering="optimizeQuality" fill-rule="nonzero" clip-rule="nonzero" viewBox="0 0 5800 5800" xmlns:xlink="http://www.w3.org/1999/xlink">
	<title>molecule_h2o icon</title>
	<desc>molecule_h2o icon from the IconExperience.com I-Collection. Copyright by INCORS GmbH (www.incors.com).</desc>
		<path id="curve28" d="M5100 2000c0,442 -265,841 -672,1013l-77 -183c333,-141 549,-468 549,-830l200 0zm-2800 -1500c245,0 479,44 696,124 -52,38 -99,78 -148,119l-16 37c-168,-52 -347,-80 -532,-80 -994,0 -1800,806 -1800,1800 0,994 806,1800 1800,1800 570,0 1102,-268 1443,-723 58,33 118,64 179,93 -376,521 -977,830 -1622,830 -1105,0 -2000,-895 -2000,-2000 0,-1105 895,-2000 2000,-2000zm868 4022c-16,29 -33,58 -51,86 -117,176 -285,319 -489,405l-77 -183c110,-47 208,-115 289,-197 113,-29 223,-66 328,-111zm518 -313c-103,739 -738,1291 -1486,1291 -825,0 -1495,-666 -1500,-1490 68,72 140,139 217,201 102,627 646,1089 1283,1089 573,0 1077,-375 1244,-920 84,-52 165,-109 242,-171zm-654 -3359c270,-226 610,-350 963,-350 829,0 1501,672 1501,1501 0,804 -635,1466 -1439,1499 -17,0 -34,-4 -48,-11 -349,-161 -643,-419 -849,-739 -200,-311 -316,-682 -316,-1079 0,-268 55,-536 160,-783 6,-15 16,-28 28,-38zm296 1793c182,282 440,511 745,656 687,-40 1223,-611 1223,-1298 0,-719 -583,-1301 -1301,-1301 -299,0 -584,100 -817,288 -89,218 -134,448 -134,683 0,358 105,692 284,972z"/>
</svg>