<?xml version="1.0" encoding="UTF-8"?>
<!DOCTYPE svg PUBLIC "-//W3C//DTD SVG 1.1//EN" "http://www.w3.org/Graphics/SVG/1.1/DTD/svg11.dtd">
<svg xmlns="http://www.w3.org/2000/svg" xml:space="preserve" width="580px" height="580px" shape-rendering="geometricPrecision" text-rendering="geometricPrecision" image-rendering="optimizeQuality" fill-rule="nonzero" clip-rule="nonzero" viewBox="0 0 5800 5800" xmlns:xlink="http://www.w3.org/1999/xlink">
	<title>money_euro icon</title>
	<desc>money_euro icon from the IconExperience.com I-Collection. Copyright by INCORS GmbH (www.incors.com).</desc>
		<path id="curve28"  d="M2085 2977l163 0c0,-50 4,-100 11,-150l-132 0 57 -200 130 0c116,-291 386,-530 710,-530 131,0 257,41 363,118l-60 211c-81,-83 -187,-129 -303,-129 -212,0 -394,149 -490,330l605 0 -57 200 -620 0c-10,50 -14,99 -14,150l592 0 -57 200 -501 0c64,186 217,322 419,322 160,0 305,-86 406,-206l63 221c-133,115 -296,185 -469,185 -314,0 -553,-226 -627,-522l-246 0 57 -200zm3415 -1677l0 3200 -5200 0 0 -3200 5200 0zm-2600 400c-663,0 -1200,537 -1200,1200 0,663 537,1200 1200,1200 663,0 1200,-537 1200,-1200 0,-663 -537,-1200 -1200,-1200zm1606 -200c46,416 378,748 794,794l0 -794 -794 0zm794 2006c-416,46 -748,378 -794,794l794 0 0 -794zm-4006 794c-46,-416 -378,-748 -794,-794l0 794 794 0zm-794 -2006c416,-46 748,-378 794,-794l-794 0 0 794z"/>
</svg>