<?xml version="1.0" encoding="UTF-8"?>
<!DOCTYPE svg PUBLIC "-//W3C//DTD SVG 1.1//EN" "http://www.w3.org/Graphics/SVG/1.1/DTD/svg11.dtd">
<svg xmlns="http://www.w3.org/2000/svg" xml:space="preserve" width="580px" height="580px" shape-rendering="geometricPrecision" text-rendering="geometricPrecision" image-rendering="optimizeQuality" fill-rule="nonzero" clip-rule="nonzero" viewBox="0 0 5800 5800" xmlns:xlink="http://www.w3.org/1999/xlink">
	<title>money_coins2 icon</title>
	<desc>money_coins2 icon from the IconExperience.com I-Collection. Copyright by INCORS GmbH (www.incors.com).</desc>
		<path id="curve30"  d="M2500 4400c0,276 -492,500 -1100,500 -608,0 -1100,-224 -1100,-500l0 -221c281,239 745,321 1100,321 355,0 819,-82 1100,-321l0 221zm-1100 -2300c608,0 1100,224 1100,500 0,276 -492,500 -1100,500 -608,0 -1100,-224 -1100,-500 0,-276 492,-500 1100,-500zm-1100 1700l0 -221c281,239 745,321 1100,321 355,0 819,-82 1100,-321l0 221c0,385 -828,500 -1100,500 -272,0 -1100,-115 -1100,-500zm0 -600l0 -221c281,239 745,321 1100,321 355,0 819,-82 1100,-321l0 221c0,385 -828,500 -1100,500 -272,0 -1100,-115 -1100,-500z"/>
	<path id="curve29"  d="M5500 4400c0,276 -492,500 -1100,500 -608,0 -1100,-224 -1100,-500l0 -221c281,239 745,321 1100,321 355,0 819,-82 1100,-321l0 221zm0 600c0,276 -492,500 -1100,500 -608,0 -1100,-224 -1100,-500l0 -221c281,239 745,321 1100,321 355,0 819,-82 1100,-321l0 221zm-1100 -2900c608,0 1100,224 1100,500 0,276 -492,500 -1100,500 -608,0 -1100,-224 -1100,-500 0,-276 492,-500 1100,-500zm-1100 1700l0 -221c281,239 745,321 1100,321 355,0 819,-82 1100,-321l0 221c0,385 -828,500 -1100,500 -272,0 -1100,-115 -1100,-500zm0 -600l0 -221c281,239 745,321 1100,321 355,0 819,-82 1100,-321l0 221c0,385 -828,500 -1100,500 -272,0 -1100,-115 -1100,-500z"/>
	<path id="curve28"  d="M3100 3298c-143,-6 -278,-24 -400,-53l0 -397c135,29 272,45 400,50l0 400zm0 1200c-143,-6 -278,-24 -400,-53l0 -397c135,29 272,45 400,50l0 400zm-400 -1050c135,29 272,45 400,50l0 398c-109,-7 -254,-26 -400,-60l0 -388zm500 -2948c608,0 1100,224 1100,500 0,276 -492,500 -1100,500 -608,0 -1100,-224 -1100,-500 0,-276 492,-500 1100,-500zm-1100 1510l0 -31c25,22 52,42 80,61 -26,-10 -52,-20 -80,-30zm313 151c251,101 545,139 787,139 8,0 17,0 25,0 -80,91 -125,193 -125,300l0 96c-109,-7 -254,-26 -400,-60l0 -36c0,-166 -107,-319 -287,-439zm-313 -561l0 -221c281,239 745,321 1100,321 355,0 819,-82 1100,-321l0 221c0,147 -120,254 -284,331 -167,28 -320,73 -451,132 -147,26 -282,37 -365,37 -272,0 -1100,-115 -1100,-500z"/>
</svg>