<?xml version="1.0" encoding="UTF-8"?>
<!DOCTYPE svg PUBLIC "-//W3C//DTD SVG 1.1//EN" "http://www.w3.org/Graphics/SVG/1.1/DTD/svg11.dtd">
<svg xmlns="http://www.w3.org/2000/svg" xml:space="preserve" width="580px" height="580px" shape-rendering="geometricPrecision" text-rendering="geometricPrecision" image-rendering="optimizeQuality" fill-rule="nonzero" clip-rule="nonzero" viewBox="0 0 5800 5800" xmlns:xlink="http://www.w3.org/1999/xlink">
	<title>money_bill_fire icon</title>
	<desc>money_bill_fire icon from the IconExperience.com I-Collection. Copyright by INCORS GmbH (www.incors.com).</desc>
		<path id="curve29"  d="M5500 3668l0 1632 -5200 0 0 -3200 2451 0c-66,140 -111,288 -134,449 -469,165 -717,677 -717,1151 0,571 375,1200 1000,1200 413,0 738,-292 892,-656 133,34 274,52 411,53 515,-5 1000,-244 1297,-629zm-200 638c-416,46 -748,378 -794,794l794 0 0 -794zm-4006 794c-46,-416 -378,-748 -794,-794l0 794 794 0zm-794 -2006c416,-46 748,-378 794,-794l-794 0 0 794z"/>
	<path id="curve28"  d="M4238 4096c-362,19 -764,-140 -1027,-385 -254,-235 -411,-560 -411,-921 0,-214 42,-401 119,-576 110,-249 275,-437 452,-637 310,-351 595,-673 478,-1143l-55 -226 202 115c162,93 319,202 467,324 151,124 292,261 421,407 241,273 419,522 538,796 131,302 178,612 178,940 0,362 -157,686 -411,922 -244,227 -580,371 -951,384zm-49 -199c174,0 331,-59 442,-161 104,-96 169,-231 169,-393 0,-217 -109,-359 -228,-512 -141,-183 -294,-381 -329,-722 -166,150 -310,306 -420,477 -139,217 -223,462 -223,757 0,164 61,301 162,397 115,109 271,157 427,157z"/>
</svg>