<?xml version="1.0" encoding="UTF-8"?>
<!DOCTYPE svg PUBLIC "-//W3C//DTD SVG 1.1//EN" "http://www.w3.org/Graphics/SVG/1.1/DTD/svg11.dtd">
<svg xmlns="http://www.w3.org/2000/svg" xml:space="preserve" width="580px" height="580px" shape-rendering="geometricPrecision" text-rendering="geometricPrecision" image-rendering="optimizeQuality" fill-rule="nonzero" clip-rule="nonzero" viewBox="0 0 5800 5800" xmlns:xlink="http://www.w3.org/1999/xlink">
	<title>moneybag_euro icon</title>
	<desc>moneybag_euro icon from the IconExperience.com I-Collection. Copyright by INCORS GmbH (www.incors.com).</desc>
		<path id="curve28"  d="M1824 4100l300 0c-1,-38 1,-75 4,-113 3,-29 6,-58 11,-87l-258 0 56 -200 258 0c50,-129 124,-245 215,-339 157,-164 365,-265 586,-265 21,0 42,0 62,2 149,13 281,72 389,165l-63 221c-85,-106 -205,-174 -343,-187 -14,-1 -29,-1 -45,-1 -164,0 -321,77 -442,203 -56,58 -104,126 -141,201l710 0 -57 200 -723 0c-7,34 -13,69 -16,104 -3,32 -4,64 -3,96l686 0 -57 200 -596 0c24,77 61,147 108,205 86,107 206,176 345,189 14,1 29,2 45,2 164,0 321,-78 442,-204 21,-22 42,-46 60,-71l65 229c-155,152 -355,246 -567,246 -21,0 -42,-1 -62,-3 -196,-17 -364,-114 -483,-263 -75,-92 -130,-205 -160,-330l-382 0 56 -200zm1472 -2600c-19,-261 -113,-441 -246,-562 -198,-180 -488,-238 -750,-238 -64,0 -122,27 -166,71 -26,25 -46,56 -60,90 -14,34 -22,73 -22,114 0,83 35,175 119,259 43,43 93,80 138,113 69,51 131,95 164,153l823 0zm-796 200l0 200 800 0 0 -200 -800 0zm1929 3480c72,-251 72,-609 71,-890l0 -55c0,-272 -48,-513 -142,-732 -95,-220 -238,-421 -429,-612 -30,-29 -49,-47 -70,-68 -191,-185 -559,-543 -559,-723l-800 0c0,180 -368,538 -559,723 -21,21 -40,39 -70,68 -191,191 -334,392 -429,612 -94,219 -142,460 -142,732l0 55c-1,281 -1,639 71,890 11,40 29,74 54,95 19,16 44,25 75,25l2800 0c75,0 111,-54 129,-120zm192 54c-44,154 -154,266 -321,266l-2800 0c-167,0 -277,-112 -321,-266 -79,-274 -79,-650 -79,-944l0 -55c0,-300 53,-566 159,-811 105,-245 262,-465 471,-674 6,-6 36,-35 72,-70 170,-165 498,-483 498,-580l0 -100 0 -400c0,-12 -49,-49 -109,-92 -52,-38 -110,-80 -162,-132 -125,-126 -177,-268 -177,-401 0,-67 13,-131 37,-190 25,-59 60,-112 104,-156 79,-80 187,-129 307,-129 203,0 423,32 618,118 71,-34 146,-60 224,-79 117,-27 238,-39 358,-39 120,0 228,49 307,129 44,44 79,97 104,156 24,59 37,123 37,190 0,133 -52,275 -177,401 -52,52 -110,94 -162,132 -59,43 -109,79 -109,92l0 400 0 100c0,97 328,415 498,580 36,35 66,64 72,70 209,209 366,429 471,674 106,245 159,511 159,811l0 55c0,294 0,670 -79,944zm-1436 -4444c145,132 253,315 295,565l11 -8c45,-33 95,-70 138,-113 84,-84 119,-176 119,-259 0,-41 -8,-80 -22,-114 -14,-34 -34,-65 -60,-90 -44,-44 -102,-71 -166,-71 -108,0 -214,10 -312,33 -18,5 -36,9 -54,15 17,13 34,27 51,42z"/>
</svg>