<?xml version="1.0" encoding="UTF-8"?>
<!DOCTYPE svg PUBLIC "-//W3C//DTD SVG 1.1//EN" "http://www.w3.org/Graphics/SVG/1.1/DTD/svg11.dtd">
<svg xmlns="http://www.w3.org/2000/svg" xml:space="preserve" width="580px" height="580px" shape-rendering="geometricPrecision" text-rendering="geometricPrecision" image-rendering="optimizeQuality" fill-rule="nonzero" clip-rule="nonzero" viewBox="0 0 5800 5800" xmlns:xlink="http://www.w3.org/1999/xlink">
	<title>money_bills icon</title>
	<desc>money_bills icon from the IconExperience.com I-Collection. Copyright by INCORS GmbH (www.incors.com).</desc>
		<path id="curve28"  d="M5499 501l0 2598 -301 0 0 -200 101 0 0 -692c-35,4 -68,11 -101,19l0 -825 -1081 0c-126,-287 -393,-501 -717,-501 -324,0 -591,214 -717,501l-1382 0 0 -900 4198 0zm-892 200c45,361 331,646 692,692l0 -692 -692 0zm-3106 692c362,-45 648,-331 693,-692l-693 0 0 692zm3498 208l0 2598 -300 0 0 -200 100 0 0 -692c-35,4 -68,11 -100,19l0 -825 -1082 0c-127,-287 -393,-501 -717,-501 -324,0 -590,214 -717,501l-1382 0 0 -900 4198 0zm-892 200c45,361 331,646 692,692l0 -692 -692 0zm-3106 692c362,-45 648,-331 693,-692l-693 0 0 692zm3498 207l0 2599 -4197 0 0 -2599 4197 0zm-892 200c46,361 331,647 692,693l0 -693 -692 0zm692 1506c-361,46 -646,332 -692,693l692 0 0 -693zm-3104 693c-46,-362 -332,-647 -693,-693l0 693 693 0zm-693 -1506c361,-45 647,-331 693,-693l-693 0 0 693zm1899 -493c-480,0 -800,447 -800,900 0,452 320,900 800,900 479,0 800,-448 800,-900 0,-452 -321,-900 -800,-900z"/>
</svg>