<?xml version="1.0" encoding="UTF-8"?>
<!DOCTYPE svg PUBLIC "-//W3C//DTD SVG 1.1//EN" "http://www.w3.org/Graphics/SVG/1.1/DTD/svg11.dtd">
<svg xmlns="http://www.w3.org/2000/svg" xml:space="preserve" width="580px" height="580px" shape-rendering="geometricPrecision" text-rendering="geometricPrecision" image-rendering="optimizeQuality" fill-rule="nonzero" clip-rule="nonzero" viewBox="0 0 5800 5800" xmlns:xlink="http://www.w3.org/1999/xlink">
	<title>money_dollar icon</title>
	<desc>money_dollar icon from the IconExperience.com I-Collection. Copyright by INCORS GmbH (www.incors.com).</desc>
		<path id="curve28"  d="M3501 3249c-1,243 -188,452 -434,452l-67 0 0 99 -200 0 0 -99 -67 0c-246,0 -433,-209 -433,-450l200 0c0,131 97,250 233,250l67 0 0 -501 -67 0c-120,0 -229,-51 -308,-134 -77,-81 -125,-193 -125,-317 0,-241 187,-450 433,-450l67 0 0 -99 200 0 0 99 67 0c246,0 433,209 433,450l-200 0c0,-131 -97,-250 -233,-250l-67 0 0 501 67 0c120,0 229,51 308,134 77,81 127,191 126,315zm-201 2c0,-70 -26,-134 -70,-180 -42,-44 -100,-71 -163,-71l-67 0 0 501 67 0c136,0 233,-119 233,-250zm-500 -451l0 -501 -67 0c-136,0 -233,119 -233,250 0,71 27,134 70,180 42,44 100,71 163,71l67 0zm2700 -1500l0 3200 -5200 0 0 -3200 5200 0zm-793 200c44,306 287,549 593,593l0 -593 -593 0zm593 794c-416,-46 -748,-378 -794,-794l-3212 0c-46,416 -378,748 -794,794l0 1212c416,46 748,378 794,794l3212 0c46,-416 378,-748 794,-794l0 -1212zm-4207 -794l-593 0 0 593c306,-44 549,-287 593,-593zm-593 2207l0 593 593 0c-44,-306 -287,-549 -593,-593zm4207 593l593 0 0 -593c-306,44 -549,287 -593,593zm-1807 -2600c663,0 1200,537 1200,1200 0,663 -537,1200 -1200,1200 -663,0 -1200,-537 -1200,-1200 0,-663 537,-1200 1200,-1200zm0 200c-552,0 -1000,448 -1000,1000 0,552 448,1000 1000,1000 552,0 1000,-448 1000,-1000 0,-552 -448,-1000 -1000,-1000z"/>
</svg>