<?xml version="1.0" encoding="UTF-8"?>
<!DOCTYPE svg PUBLIC "-//W3C//DTD SVG 1.1//EN" "http://www.w3.org/Graphics/SVG/1.1/DTD/svg11.dtd">
<svg xmlns="http://www.w3.org/2000/svg" xml:space="preserve" width="580px" height="580px" shape-rendering="geometricPrecision" text-rendering="geometricPrecision" image-rendering="optimizeQuality" fill-rule="nonzero" clip-rule="nonzero" viewBox="0 0 5800 5800" xmlns:xlink="http://www.w3.org/1999/xlink">
	<title>money2 icon</title>
	<desc>money2 icon from the IconExperience.com I-Collection. Copyright by INCORS GmbH (www.incors.com).</desc>
		<path id="curve29"  d="M5500 1100l0 3200 -1204 0c-5,-68 -16,-135 -31,-200l241 0c46,-416 378,-748 794,-794l0 -1212c-416,-46 -748,-378 -794,-794l-3212 0c-46,416 -378,748 -794,794l0 768c-76,73 -143,155 -200,245l0 -2007 5200 0zm-793 200c44,306 287,549 593,593l0 -593 -593 0zm-3614 0l-593 0 0 593c306,-44 549,-287 593,-593zm3614 2800l593 0 0 -593c-306,44 -549,287 -593,593zm-2607 -1398c-62,-37 -128,-72 -197,-101 20,-288 124,-548 283,-742 182,-222 434,-359 714,-359 280,0 532,137 714,359 177,216 286,514 286,841 0,234 -56,452 -152,637 -54,-39 -112,-73 -172,-103 79,-154 124,-337 124,-534 0,-280 -92,-533 -241,-715 -144,-176 -342,-285 -559,-285 -217,0 -415,109 -559,285 -149,182 -241,435 -241,717z"/>
	<path id="curve28"  d="M2900 4900l0 -700 -100 0 0 -200 300 0 0 900 -200 0zm-1600 -600l0 -700 -100 0 0 -200 300 0 0 900 -200 0zm100 -1600c401,0 769,218 962,567 -58,33 -114,70 -166,112 -156,-294 -461,-479 -796,-479 -497,0 -900,403 -900,900 0,497 403,900 900,900 114,0 222,-21 322,-59 13,66 30,131 53,194 -117,42 -243,65 -375,65 -607,0 -1100,-493 -1100,-1100 0,-607 493,-1100 1100,-1100zm1600 600c607,0 1100,493 1100,1100 0,607 -493,1100 -1100,1100 -607,0 -1100,-493 -1100,-1100 0,-607 493,-1100 1100,-1100zm0 200c-497,0 -900,403 -900,900 0,497 403,900 900,900 497,0 900,-403 900,-900 0,-497 -403,-900 -900,-900z"/>
</svg>