<?xml version="1.0" encoding="UTF-8"?>
<!DOCTYPE svg PUBLIC "-//W3C//DTD SVG 1.1//EN" "http://www.w3.org/Graphics/SVG/1.1/DTD/svg11.dtd">
<svg xmlns="http://www.w3.org/2000/svg" xml:space="preserve" width="580px" height="580px" shape-rendering="geometricPrecision" text-rendering="geometricPrecision" image-rendering="optimizeQuality" fill-rule="nonzero" clip-rule="nonzero" viewBox="0 0 5800 5800" xmlns:xlink="http://www.w3.org/1999/xlink">
	<title>money_refund icon</title>
	<desc>money_refund icon from the IconExperience.com I-Collection. Copyright by INCORS GmbH (www.incors.com).</desc>
		<path id="curve29" d="M5500 2100l0 3200 -5200 0 0 -3200 482 0 200 200 -482 0 0 593c272,-39 498,-238 573,-502l157 157c-126,299 -406,510 -730,546l0 1212c416,46 748,378 794,794l3212 0c46,-416 378,-748 794,-794l0 -1212c-416,-46 -748,-378 -794,-794l-1882 0 200 -200 2676 0zm-793 200c44,306 287,549 593,593l0 -593 -593 0zm-4207 2207l0 593 593 0c-44,-306 -287,-549 -593,-593zm4207 593l593 0 0 -593c-306,44 -549,287 -593,593zm-1807 -2600c280,0 532,137 714,359 177,216 286,514 286,841 0,327 -109,625 -286,841 -182,222 -434,359 -714,359 -280,0 -532,-137 -714,-359 -177,-216 -286,-514 -286,-841 0,-327 109,-625 286,-841 182,-222 434,-359 714,-359zm559 485c-144,-176 -342,-285 -559,-285 -217,0 -415,109 -559,285 -149,182 -241,435 -241,715 0,280 92,533 241,715 144,176 342,285 559,285 217,0 415,-109 559,-285 149,-182 241,-435 241,-715 0,-280 -92,-533 -241,-715z"/>
	<path id="curve28" d="M3100 301c771,1 1397,630 1399,1399l1 200 -200 0 0 -200c-2,-660 -540,-1198 -1202,-1198 -659,2 -1197,537 -1197,1194l1 477 630 -630 142 142 -871 870 -871 -870 142 -142 629 630 -2 -477c0,-771 631,-1394 1399,-1395z"/>
</svg>