<?xml version="1.0" encoding="UTF-8"?>
<!DOCTYPE svg PUBLIC "-//W3C//DTD SVG 1.1//EN" "http://www.w3.org/Graphics/SVG/1.1/DTD/svg11.dtd">
<svg xmlns="http://www.w3.org/2000/svg" xml:space="preserve" width="580px" height="580px" shape-rendering="geometricPrecision" text-rendering="geometricPrecision" image-rendering="optimizeQuality" fill-rule="nonzero" clip-rule="nonzero" viewBox="0 0 5800 5800" xmlns:xlink="http://www.w3.org/1999/xlink">
	<title>money2 icon</title>
	<desc>money2 icon from the IconExperience.com I-Collection. Copyright by INCORS GmbH (www.incors.com).</desc>
		<path id="curve30"  d="M5500 1100l0 3200 -1204 0c-30,-398 -240,-746 -548,-963 96,-185 152,-403 152,-637 0,-571 -375,-1200 -1000,-1200 -587,0 -960,562 -997,1101 -154,-65 -325,-101 -503,-101 -463,0 -870,242 -1100,607l0 -2007 5200 0zm-994 200c46,416 378,748 794,794l0 -794 -794 0zm794 2006c-416,46 -748,378 -794,794l794 0 0 -794zm-4800 -1212c416,-46 748,-378 794,-794l-794 0 0 794z"/>
	<path id="curve29"  d="M1300 4300l200 0 0 -900 -300 0 0 200 100 0 0 700zm100 -1600c401,0 769,218 962,567 -103,58 -198,130 -281,214 -235,235 -381,560 -381,919 0,152 26,299 74,435 -116,42 -243,65 -374,65 -607,0 -1100,-493 -1100,-1100 0,-607 493,-1100 1100,-1100z"/>
	<path id="curve28"  d="M2900 4900l200 0 0 -900 -300 0 0 200 100 0 0 700zm100 -1600c607,0 1100,493 1100,1100 0,607 -493,1100 -1100,1100 -607,0 -1100,-493 -1100,-1100 0,-607 493,-1100 1100,-1100z"/>
</svg>