<?xml version="1.0" encoding="UTF-8"?>
<!DOCTYPE svg PUBLIC "-//W3C//DTD SVG 1.1//EN" "http://www.w3.org/Graphics/SVG/1.1/DTD/svg11.dtd">
<svg xmlns="http://www.w3.org/2000/svg" xml:space="preserve" width="580px" height="580px" shape-rendering="geometricPrecision" text-rendering="geometricPrecision" image-rendering="optimizeQuality" fill-rule="nonzero" clip-rule="nonzero" viewBox="0 0 5800 5800" xmlns:xlink="http://www.w3.org/1999/xlink">
	<title>money_bill_cut icon</title>
	<desc>money_bill_cut icon from the IconExperience.com I-Collection. Copyright by INCORS GmbH (www.incors.com).</desc>
		<path id="curve28"  d="M5278 5517l-2832 -759 3219 -684 -387 1443zm65 -1012c-414,-63 -821,172 -973,562l767 205 206 -767zm157 -3205l0 1818 -2712 1382 -2488 0 0 -3200 5200 0zm-994 200c46,416 378,748 794,794l0 -794 -794 0zm-3212 2800c-46,-416 -378,-748 -794,-794l0 794 794 0zm-794 -2006c416,-46 748,-378 794,-794l-794 0 0 794zm2400 -594c-625,0 -1000,629 -1000,1200 0,571 375,1200 1000,1200 625,0 1000,-629 1000,-1200 0,-571 -375,-1200 -1000,-1200z"/>
</svg>