<?xml version="1.0" encoding="UTF-8"?>
<!DOCTYPE svg PUBLIC "-//W3C//DTD SVG 1.1//EN" "http://www.w3.org/Graphics/SVG/1.1/DTD/svg11.dtd">
<svg xmlns="http://www.w3.org/2000/svg" xml:space="preserve" width="580px" height="580px" shape-rendering="geometricPrecision" text-rendering="geometricPrecision" image-rendering="optimizeQuality" fill-rule="nonzero" clip-rule="nonzero" viewBox="0 0 5800 5800" xmlns:xlink="http://www.w3.org/1999/xlink">
	<title>money_bill_cut icon</title>
	<desc>money_bill_cut icon from the IconExperience.com I-Collection. Copyright by INCORS GmbH (www.incors.com).</desc>
		<path id="curve28" d="M5278 5517l-2832 -759 3219 -684 -387 1443zm222 -4217l0 1818 -2712 1382 -2488 0 0 -3200 5200 0zm-200 200l-593 0c44,306 287,549 593,593l0 -593zm-794 0l-3212 0c-46,416 -378,748 -794,794l0 1212c416,46 748,378 794,794l1446 0 2560 -1304 0 -702c-416,-46 -748,-378 -794,-794zm-3413 0l-593 0 0 593c306,-44 549,-287 593,-593zm-593 2207l0 593 593 0c-44,-306 -287,-549 -593,-593zm2400 -2007c280,0 532,137 714,359 177,216 286,514 286,841 0,327 -109,625 -286,841 -182,222 -434,359 -714,359 -280,0 -532,-137 -714,-359 -177,-216 -286,-514 -286,-841 0,-327 109,-625 286,-841 182,-222 434,-359 714,-359zm559 485c-144,-176 -342,-285 -559,-285 -217,0 -415,109 -559,285 -149,182 -241,435 -241,715 0,280 92,533 241,715 144,176 342,285 559,285 217,0 415,-109 559,-285 149,-182 241,-435 241,-715 0,-280 -92,-533 -241,-715zm1831 2514c-307,-36 -604,135 -726,420l573 153 153 -573zm-920 368c152,-390 559,-625 973,-562l44 -168 -2086 443 1069 287z"/>
</svg>