<?xml version="1.0" encoding="UTF-8"?>
<!DOCTYPE svg PUBLIC "-//W3C//DTD SVG 1.1//EN" "http://www.w3.org/Graphics/SVG/1.1/DTD/svg11.dtd">
<svg xmlns="http://www.w3.org/2000/svg" xml:space="preserve" width="580px" height="580px" shape-rendering="geometricPrecision" text-rendering="geometricPrecision" image-rendering="optimizeQuality" fill-rule="nonzero" clip-rule="nonzero" viewBox="0 0 5800 5800" xmlns:xlink="http://www.w3.org/1999/xlink">
	<title>moneybag icon</title>
	<desc>moneybag icon from the IconExperience.com I-Collection. Copyright by INCORS GmbH (www.incors.com).</desc>
		<path id="curve28"  d="M3296 1500c-2,-40 -7,-78 -13,-114 -37,-209 -132,-385 -307,-507 -193,-134 -445,-179 -676,-179 -147,0 -248,135 -248,275 0,83 35,175 119,259 43,43 93,80 138,113 69,51 131,95 164,153l823 0zm-796 200l0 200 800 0 0 -200 -800 0zm1929 3480c80,-278 73,-654 71,-945 0,-272 -48,-513 -142,-732 -118,-272 -289,-476 -499,-680 -191,-185 -559,-543 -559,-723l-800 0c0,180 -368,538 -559,723 -423,410 -641,815 -641,1412 -2,291 -9,667 71,945 18,66 54,120 129,120l2800 0c75,0 111,-54 129,-120zm192 54c-44,154 -154,266 -321,266l-2800 0c-167,0 -277,-112 -321,-266 -89,-306 -77,-680 -79,-999 0,-653 240,-1107 702,-1555 170,-165 498,-483 498,-580l0 -500c0,-12 -49,-49 -109,-92 -52,-38 -110,-80 -162,-132 -125,-126 -177,-268 -177,-401 0,-251 191,-475 448,-475 203,0 423,32 618,118 179,-87 385,-118 582,-118 185,0 341,117 411,285 24,59 37,123 37,190 0,133 -52,275 -177,401 -52,52 -110,94 -162,132 -59,43 -109,79 -109,92l0 500c0,97 328,415 498,580 230,223 414,445 543,744 106,245 159,511 159,811 -2,319 10,693 -79,999zm-1141 -3879c52,-38 104,-75 149,-121 84,-84 119,-176 119,-259 0,-41 -8,-80 -22,-114 -38,-92 -124,-161 -226,-161 -123,0 -248,12 -366,48 195,153 305,363 346,607z"/>
</svg>