<?xml version="1.0" encoding="UTF-8"?>
<!DOCTYPE svg PUBLIC "-//W3C//DTD SVG 1.1//EN" "http://www.w3.org/Graphics/SVG/1.1/DTD/svg11.dtd">
<svg xmlns="http://www.w3.org/2000/svg" xml:space="preserve" width="580px" height="580px" shape-rendering="geometricPrecision" text-rendering="geometricPrecision" image-rendering="optimizeQuality" fill-rule="nonzero" clip-rule="nonzero" viewBox="0 0 5800 5800" xmlns:xlink="http://www.w3.org/1999/xlink">
	<title>money_euro icon</title>
	<desc>money_euro icon from the IconExperience.com I-Collection. Copyright by INCORS GmbH (www.incors.com).</desc>
		<path id="curve28" d="M5500 1300l0 3200 -5200 0 0 -3200 5200 0zm-3415 1677l163 0c0,-29 1,-58 4,-87 2,-21 4,-42 7,-63l-132 0 57 -200 130 0c116,-291 386,-530 710,-530 19,0 38,1 56,3 115,10 219,51 307,115l-60 211c-70,-71 -161,-118 -264,-127 -13,-1 -25,-2 -39,-2 -212,0 -394,149 -490,330l605 0 -57 200 -620 0c-5,26 -9,53 -11,80 -2,23 -3,47 -3,70l592 0 -57 200 -501 0c58,170 195,304 380,320 13,1 26,2 39,2 140,0 275,-67 378,-174 10,-11 19,-21 28,-32l63 221c-133,115 -296,185 -469,185 -19,0 -37,-1 -56,-3 -291,-25 -502,-245 -571,-519l-246 0 57 -200zm2622 -1477c44,306 287,549 593,593l0 -593 -593 0zm593 794c-416,-46 -748,-378 -794,-794l-3212 0c-46,416 -378,748 -794,794l0 1212c416,46 748,378 794,794l3212 0c46,-416 378,-748 794,-794l0 -1212zm-4207 -794l-593 0 0 593c306,-44 549,-287 593,-593zm-593 2207l0 593 593 0c-44,-306 -287,-549 -593,-593zm4207 593l593 0 0 -593c-306,44 -549,287 -593,593zm-1807 -2600c663,0 1200,537 1200,1200 0,663 -537,1200 -1200,1200 -663,0 -1200,-537 -1200,-1200 0,-663 537,-1200 1200,-1200zm0 200c-552,0 -1000,448 -1000,1000 0,552 448,1000 1000,1000 552,0 1000,-448 1000,-1000 0,-552 -448,-1000 -1000,-1000z"/>
</svg>