<?xml version="1.0" encoding="UTF-8"?>
<!DOCTYPE svg PUBLIC "-//W3C//DTD SVG 1.1//EN" "http://www.w3.org/Graphics/SVG/1.1/DTD/svg11.dtd">
<svg xmlns="http://www.w3.org/2000/svg" xml:space="preserve" width="580px" height="580px" shape-rendering="geometricPrecision" text-rendering="geometricPrecision" image-rendering="optimizeQuality" fill-rule="nonzero" clip-rule="nonzero" viewBox="0 0 5800 5800" xmlns:xlink="http://www.w3.org/1999/xlink">
	<title>money_coins2 icon</title>
	<desc>money_coins2 icon from the IconExperience.com I-Collection. Copyright by INCORS GmbH (www.incors.com).</desc>
		<path id="curve30" d="M3200 500c288,0 552,48 744,125 220,87 356,220 356,375l0 902c-29,1 -209,15 -249,24 -194,29 -370,81 -517,152 -105,14 -217,22 -334,22 -288,0 -552,-48 -744,-125 -58,-23 -111,-49 -156,-78l0 198c-61,-32 -128,-60 -200,-85l0 -1010c0,-155 136,-288 356,-375 192,-77 456,-125 744,-125zm-537 1934c130,36 284,59 451,64 -9,34 -14,68 -14,102l0 98c-143,-5 -279,-23 -400,-49l0 -49c0,-57 -13,-113 -37,-166zm37 610c118,29 254,48 400,54l0 200c-143,-5 -279,-23 -400,-49l0 -205zm0 600c118,29 254,48 400,54l0 200c-143,-5 -279,-23 -400,-49l0 -205zm0 600c118,29 254,48 400,54l0 200c-144,-5 -280,-23 -402,-50 1,-16 2,-32 2,-48l0 -156zm1400 -2947c-45,29 -98,55 -156,78 -192,77 -456,125 -744,125 -288,0 -552,-48 -744,-125 -58,-23 -111,-49 -156,-78l0 303c0,65 88,133 230,190 169,68 406,110 670,110 264,0 501,-42 670,-110 142,-57 230,-125 230,-190l0 -303zm-230 -487c-169,-68 -406,-110 -670,-110 -264,0 -501,42 -670,110 -142,57 -230,124 -230,190 0,65 88,133 230,190 169,68 406,110 670,110 264,0 501,-42 670,-110 142,-57 230,-125 230,-190 0,-66 -88,-133 -230,-190z"/>
	<path id="curve29" d="M4400 2100c288,0 552,48 744,125 220,87 356,220 356,375l0 2400c0,155 -136,288 -356,375 -192,77 -456,125 -744,125 -288,0 -552,-48 -744,-125 -220,-87 -356,-220 -356,-375 0,-800 0,-1600 0,-2400 0,-155 136,-288 356,-375 192,-77 456,-125 744,-125zm900 797c-45,29 -98,55 -156,78 -192,77 -456,125 -744,125 -288,0 -552,-48 -744,-125 -58,-23 -111,-49 -156,-78l0 303c0,65 88,133 230,190 169,68 406,110 670,110 264,0 501,-42 670,-110 142,-57 230,-125 230,-190l0 -303zm-1800 600l0 303c0,65 88,133 230,190 169,68 406,110 670,110 264,0 501,-42 670,-110 142,-57 230,-125 230,-190l0 -303c-45,29 -98,55 -156,78 -192,77 -456,125 -744,125 -288,0 -552,-48 -744,-125 -58,-23 -111,-49 -156,-78zm0 600l0 303c0,66 88,133 230,190 169,68 406,110 670,110 264,0 501,-42 670,-110 142,-57 230,-124 230,-190l0 -303c-45,29 -98,55 -156,78 -192,77 -456,125 -744,125 -288,0 -552,-48 -744,-125 -58,-23 -111,-49 -156,-78zm0 600l0 303c0,66 88,133 230,190 169,68 406,110 670,110 264,0 501,-42 670,-110 142,-57 230,-124 230,-190l0 -303c-45,29 -98,55 -156,78 -192,77 -456,125 -744,125 -288,0 -552,-48 -744,-125 -58,-23 -111,-49 -156,-78zm1570 -2287c-169,-68 -406,-110 -670,-110 -264,0 -501,42 -670,110 -142,57 -230,124 -230,190 0,66 88,133 230,190 169,68 406,110 670,110 264,0 501,-42 670,-110 142,-57 230,-124 230,-190 0,-66 -88,-133 -230,-190z"/>
	<path id="curve28" d="M1400 2100c288,0 552,48 744,125 220,87 356,220 356,375 0,150 -1,1800 0,1800 0,155 -136,288 -356,375 -192,77 -456,125 -744,125 -288,0 -552,-48 -744,-125 -220,-87 -356,-220 -356,-375 1,0 0,-1630 0,-1800 0,-155 136,-288 356,-375 192,-77 455,-125 744,-125zm900 797c-45,29 -98,55 -156,78 -192,77 -456,125 -744,125 -289,0 -552,-48 -744,-125 -59,-23 -111,-49 -156,-78l0 303c0,65 88,133 230,190 169,68 406,110 670,110 264,0 501,-42 670,-110 142,-57 230,-125 230,-190l0 -303zm-1800 600l0 303c0,65 88,133 230,190 169,68 406,110 670,110 264,0 501,-42 670,-110 142,-57 230,-125 230,-190l0 -303c-45,29 -98,55 -156,78 -192,77 -456,125 -744,125 -289,0 -552,-48 -744,-125 -59,-23 -111,-49 -156,-78zm0 600l0 303c0,66 88,133 230,190 169,68 406,110 670,110 264,0 501,-42 670,-110 142,-57 230,-124 230,-190l0 -303c-45,29 -98,55 -156,78 -192,77 -456,125 -744,125 -289,0 -552,-48 -744,-125 -59,-23 -111,-49 -156,-78zm1570 -1687c-169,-68 -406,-110 -670,-110 -264,0 -501,42 -670,110 -142,57 -230,124 -230,190 0,66 88,133 230,190 169,68 406,110 670,110 264,0 501,-42 670,-110 142,-57 230,-124 230,-190 0,-66 -88,-133 -230,-190z"/>
</svg>