<?xml version="1.0" encoding="UTF-8"?>
<!DOCTYPE svg PUBLIC "-//W3C//DTD SVG 1.1//EN" "http://www.w3.org/Graphics/SVG/1.1/DTD/svg11.dtd">
<svg xmlns="http://www.w3.org/2000/svg" xml:space="preserve" width="580px" height="580px" shape-rendering="geometricPrecision" text-rendering="geometricPrecision" image-rendering="optimizeQuality" fill-rule="nonzero" clip-rule="nonzero" viewBox="0 0 5800 5800" xmlns:xlink="http://www.w3.org/1999/xlink">
	<title>money_coins icon</title>
	<desc>money_coins icon from the IconExperience.com I-Collection. Copyright by INCORS GmbH (www.incors.com).</desc>
		<path id="curve30"  d="M2600 300c714,0 1329,504 1470,1202 -23,-1 -46,-2 -70,-2 -522,0 -989,235 -1300,605l0 -805 -400 0 0 200 200 0 0 899c-7,14 -14,28 -21,42 -208,-91 -438,-141 -679,-141 -202,0 -396,35 -575,100 -80,-184 -125,-387 -125,-600 0,-828 672,-1500 1500,-1500z"/>
	<path id="curve29"  d="M4000 1700c828,0 1500,672 1500,1500 0,828 -672,1500 -1500,1500 -213,0 -416,-45 -600,-125 65,-179 100,-373 100,-575 0,-626 -339,-1174 -843,-1468 253,-509 772,-832 1343,-832zm-100 2130l200 0 0 -1130 -400 0 0 200 200 0 0 930z"/>
	<path id="curve28"  d="M1800 2500c828,0 1500,672 1500,1500 0,828 -672,1500 -1500,1500 -828,0 -1500,-672 -1500,-1500 0,-828 672,-1500 1500,-1500zm-100 2130l200 0 0 -1126 -397 -14 -6 200 203 6 0 934z"/>
</svg>