<?xml version="1.0" encoding="UTF-8"?>
<!DOCTYPE svg PUBLIC "-//W3C//DTD SVG 1.1//EN" "http://www.w3.org/Graphics/SVG/1.1/DTD/svg11.dtd">
<svg xmlns="http://www.w3.org/2000/svg" xml:space="preserve" width="580px" height="580px" shape-rendering="geometricPrecision" text-rendering="geometricPrecision" image-rendering="optimizeQuality" fill-rule="nonzero" clip-rule="nonzero" viewBox="0 0 5800 5800" xmlns:xlink="http://www.w3.org/1999/xlink">
	<title>moneybag icon</title>
	<desc>moneybag icon from the IconExperience.com I-Collection. Copyright by INCORS GmbH (www.incors.com).</desc>
		<path id="curve28"  d="M3176 532c106,-23 216,-32 324,-32 257,0 448,224 448,475 0,197 -107,351 -255,469 -37,-421 -229,-724 -517,-912zm-996 968c-49,-36 -102,-76 -151,-124 -125,-126 -177,-268 -177,-401 0,-67 13,-131 37,-190 70,-168 226,-285 411,-285 648,0 1154,308 1197,1000l-1317 0zm2441 3734c-44,154 -154,266 -321,266l-2800 0c-167,0 -277,-112 -321,-266 -89,-306 -77,-680 -79,-999 0,-300 53,-566 159,-811 129,-299 313,-521 543,-744 170,-165 498,-483 498,-580l1200 0c0,97 328,415 498,580 230,223 414,445 543,744 106,245 159,511 159,811 -2,319 10,693 -79,999zm-1121 -3534l-1200 0 0 200 1200 0 0 -200z"/>
</svg>