<?xml version="1.0" encoding="UTF-8"?>
<!DOCTYPE svg PUBLIC "-//W3C//DTD SVG 1.1//EN" "http://www.w3.org/Graphics/SVG/1.1/DTD/svg11.dtd">
<svg xmlns="http://www.w3.org/2000/svg" xml:space="preserve" width="580px" height="580px" shape-rendering="geometricPrecision" text-rendering="geometricPrecision" image-rendering="optimizeQuality" fill-rule="nonzero" clip-rule="nonzero" viewBox="0 0 5800 5800" xmlns:xlink="http://www.w3.org/1999/xlink">
	<title>money_dollar icon</title>
	<desc>money_dollar icon from the IconExperience.com I-Collection. Copyright by INCORS GmbH (www.incors.com).</desc>
		<path id="curve28"  d="M5500 1300l0 3200 -5200 0 0 -3200 5200 0zm-2600 400c-663,0 -1200,537 -1200,1200 0,663 537,1200 1200,1200 663,0 1200,-537 1200,-1200 0,-663 -537,-1200 -1200,-1200zm1606 -200c46,416 378,748 794,794l0 -794 -794 0zm794 2006c-416,46 -748,378 -794,794l794 0 0 -794zm-4006 794c-46,-416 -378,-748 -794,-794l0 794 794 0zm-794 -2006c416,-46 748,-378 794,-794l-794 0 0 794zm2500 -294l0 99 67 0c246,0 433,209 433,450l-200 0c0,-131 -97,-250 -233,-250l-67 0 0 501 67 0c246,0 433,210 433,451 0,241 -187,450 -433,450l-67 0 0 99 -200 0 0 -99 -67 0c-246,0 -433,-209 -433,-450l200 0c0,131 97,250 233,250l67 0 0 -501 -67 0c-246,0 -433,-210 -433,-451 0,-241 187,-450 433,-450l67 0 0 -99 200 0zm0 1000l0 501 67 0c135,0 233,-119 233,-250 0,-131 -98,-251 -233,-251l-67 0zm-200 -200l0 -501 -67 0c-136,0 -233,119 -233,250 0,132 97,251 233,251l67 0z"/>
</svg>