<?xml version="1.0" encoding="UTF-8"?>
<!DOCTYPE svg PUBLIC "-//W3C//DTD SVG 1.1//EN" "http://www.w3.org/Graphics/SVG/1.1/DTD/svg11.dtd">
<svg xmlns="http://www.w3.org/2000/svg" xml:space="preserve" width="580px" height="580px" shape-rendering="geometricPrecision" text-rendering="geometricPrecision" image-rendering="optimizeQuality" fill-rule="nonzero" clip-rule="nonzero" viewBox="0 0 5800 5800" xmlns:xlink="http://www.w3.org/1999/xlink">
	<title>moneybag_coins icon</title>
	<desc>moneybag_coins icon from the IconExperience.com I-Collection. Copyright by INCORS GmbH (www.incors.com).</desc>
		<path id="curve28"  d="M2800 3300c-607,0 -1100,493 -1100,1100 0,607 493,1100 1100,1100 607,0 1100,-493 1100,-1100 0,-607 -493,-1100 -1100,-1100zm376 -2768c106,-23 216,-32 324,-32 257,0 448,224 448,475 0,197 -107,351 -255,469 -37,-421 -229,-724 -517,-912zm-996 968c-49,-36 -102,-76 -151,-124 -125,-126 -177,-268 -177,-401 0,-67 13,-131 37,-190 70,-168 226,-285 411,-285 648,0 1154,308 1197,1000l-1317 0zm520 3400l0 -800 -100 0 0 -200 300 0 0 1000 -200 0zm-1300 -2200c371,0 713,185 917,493 -479,191 -817,660 -817,1207 0,171 33,334 93,483 -63,11 -127,17 -193,17 -607,0 -1100,-493 -1100,-1100 0,-607 493,-1100 1100,-1100zm-100 1600l200 0 0 -1000 -300 0 0 200 100 0 0 800zm807 1200l-607 0c-167,0 -277,-112 -321,-266 -15,-51 -27,-105 -37,-160 194,39 352,30 544,-4 104,174 249,322 421,430zm2514 -266c-44,154 -154,266 -321,266l-807 0c365,-230 607,-637 607,-1100 0,-718 -582,-1300 -1300,-1300 -97,0 -192,11 -284,31l-32 -49c-147,-222 -356,-390 -595,-487 175,-172 411,-413 411,-495l1200 0c0,97 328,415 498,580 230,223 414,445 543,744 106,245 159,511 159,811 -2,319 10,693 -79,999zm-1121 -3534l-1200 0 0 200 1200 0 0 -200z"/>
</svg>