<?xml version="1.0" encoding="UTF-8"?>
<!DOCTYPE svg PUBLIC "-//W3C//DTD SVG 1.1//EN" "http://www.w3.org/Graphics/SVG/1.1/DTD/svg11.dtd">
<svg xmlns="http://www.w3.org/2000/svg" xml:space="preserve" width="580px" height="580px" shape-rendering="geometricPrecision" text-rendering="geometricPrecision" image-rendering="optimizeQuality" fill-rule="nonzero" clip-rule="nonzero" viewBox="0 0 5800 5800" xmlns:xlink="http://www.w3.org/1999/xlink">
	<title>money_interest icon</title>
	<desc>money_interest icon from the IconExperience.com I-Collection. Copyright by INCORS GmbH (www.incors.com).</desc>
	<path id="curve0" d="M904 1700c330,0 600,269 600,600l0 300c0,331 -270,600 -600,600 -331,0 -600,-269 -600,-600l0 -300c0,-331 269,-600 600,-600zm4596 -600l0 2600 -2583 0c-81,-82 -173,-149 -278,-200l1967 0c45,-362 332,-649 694,-694l0 -812c-362,-45 -649,-332 -694,-694l-2412 0c-31,243 -172,459 -381,585 -27,-61 -61,-119 -101,-173 148,-90 251,-240 280,-412l-492 0 0 198c-62,-46 -129,-85 -200,-116l0 -282 4200 0zm-200 200l-492 0c42,251 241,450 492,492l0 -492zm-492 2200l492 0 0 -492c-251,42 -450,241 -492,492zm-1408 -2000c469,0 750,472 750,900 0,428 -281,900 -750,900 -469,0 -750,-472 -750,-900 0,-428 281,-900 750,-900zm0 200c-355,0 -550,385 -550,700 0,315 195,700 550,700 355,0 550,-385 550,-700 0,-315 -195,-700 -550,-700zm-1196 2100c330,0 600,269 600,600l0 300c0,331 -270,600 -600,600 -331,0 -600,-269 -600,-600l0 -300c0,-331 269,-600 600,-600zm0 200c-220,0 -400,180 -400,400l0 300c0,220 180,400 400,400 220,0 400,-180 400,-400l0 -300c0,-220 -180,-400 -400,-400zm-1896 1300l2099 -3500 232 0 -2098 3500 -233 0zm596 -3400c-220,0 -400,180 -400,400l0 300c0,220 180,400 400,400 220,0 400,-180 400,-400l0 -300c0,-220 -180,-400 -400,-400z"/>
</svg>