<?xml version="1.0" encoding="UTF-8"?>
<!DOCTYPE svg PUBLIC "-//W3C//DTD SVG 1.1//EN" "http://www.w3.org/Graphics/SVG/1.1/DTD/svg11.dtd">
<svg xmlns="http://www.w3.org/2000/svg" xml:space="preserve" width="580px" height="580px" shape-rendering="geometricPrecision" text-rendering="geometricPrecision" image-rendering="optimizeQuality" fill-rule="nonzero" clip-rule="nonzero" viewBox="0 0 5800 5800" xmlns:xlink="http://www.w3.org/1999/xlink">
	<title>money_refund icon</title>
	<desc>money_refund icon from the IconExperience.com I-Collection. Copyright by INCORS GmbH (www.incors.com).</desc>
		<path id="curve28"  d="M1265 2300l-200 -200 -765 0 0 3200 5200 0 0 -3200c-986,0 -1972,0 -2959,0l-596 597c-78,78 -205,78 -283,0l-371 -371c-57,405 -384,723 -791,768l0 -794 765 0zm3241 0l794 0 0 794c-416,-46 -748,-378 -794,-794zm794 2006l0 794 -794 0c46,-416 378,-748 794,-794zm-4006 794l-794 0 0 -794c416,46 748,378 794,794zm1606 -2600c625,0 1000,629 1000,1200 0,571 -375,1200 -1000,1200 -625,0 -1000,-629 -1000,-1200 0,-571 375,-1200 1000,-1200zm200 -2198c771,0 1397,629 1399,1398l1 200 -200 0 0 -200c-2,-715 -528,-1142 -1205,-1199 -656,3 -1194,538 -1194,1195l1 477 630 -630 142 142 -871 870 -871 -870 142 -142 629 630 -2 -477c0,-771 631,-1392 1399,-1394z"/>
</svg>