<?xml version="1.0" encoding="UTF-8"?>
<!DOCTYPE svg PUBLIC "-//W3C//DTD SVG 1.1//EN" "http://www.w3.org/Graphics/SVG/1.1/DTD/svg11.dtd">
<svg xmlns="http://www.w3.org/2000/svg" xml:space="preserve" width="580px" height="580px" shape-rendering="geometricPrecision" text-rendering="geometricPrecision" image-rendering="optimizeQuality" fill-rule="nonzero" clip-rule="nonzero" viewBox="0 0 5800 5800" xmlns:xlink="http://www.w3.org/1999/xlink">
	<title>money_bills icon</title>
	<desc>money_bills icon from the IconExperience.com I-Collection. Copyright by INCORS GmbH (www.incors.com).</desc>
		<path id="curve28" d="M4499 2700l0 2599 -4197 0 0 -2599 4197 0zm500 -1099l0 2598 -300 0 0 -200 100 0 0 -492c-35,6 -68,15 -100,26l0 -208c32,-9 65,-15 100,-19l0 -814c-362,-45 -648,-330 -694,-691l-2413 0c-45,360 -330,645 -691,691l0 9 -200 0 0 -900 4198 0zm500 -1100l0 2598 -301 0 0 -200 101 0 0 -492c-35,6 -69,15 -101,26l0 -208c33,-8 66,-15 101,-19l0 -814c-362,-45 -648,-330 -694,-691l-2413 0c-45,360 -330,645 -691,691l0 9 -200 0 0 -900 4198 0zm-692 200c43,250 241,448 492,490l0 -490 -492 0zm-2816 0l-490 0 0 490c250,-43 447,-240 490,-490zm1409 199c223,0 425,103 570,269 59,68 109,146 147,232l-224 0c-21,-36 -46,-70 -73,-101 -108,-124 -257,-200 -420,-200 -163,0 -312,76 -420,200 -27,31 -52,65 -73,101l-224 0c38,-86 88,-164 147,-232 145,-166 347,-269 570,-269zm907 901c43,250 241,448 492,490l0 -490 -492 0zm-2816 0l-490 0 0 490c125,-22 237,-82 323,-168 86,-85 146,-197 167,-322zm1409 199c223,0 425,103 570,269 59,67 109,146 147,232l-224 0c-22,-36 -46,-70 -73,-101 -108,-124 -257,-200 -420,-200 -163,0 -312,76 -420,200 -27,31 -51,65 -73,101l-224 0c38,-86 88,-165 147,-232 145,-166 347,-269 570,-269zm909 900c42,251 240,449 490,491l0 -491 -490 0zm490 693c-361,-46 -646,-332 -692,-693l-2412 0c-46,362 -332,648 -693,693l0 813c361,46 647,331 693,693l2412 0c46,-361 331,-647 692,-693l0 -813zm-3306 -693l-491 0 0 492c251,-43 449,-241 491,-492zm-491 1708l0 491 491 0c-42,-251 -240,-449 -491,-491zm3307 491l490 0 0 -491c-250,42 -448,240 -490,491zm-1408 -1999c223,0 424,102 570,268 142,163 230,386 230,632 0,245 -88,468 -230,631 -146,166 -347,269 -570,269 -224,0 -425,-103 -570,-269 -142,-163 -230,-386 -230,-631 0,-246 88,-469 230,-632 145,-166 346,-268 570,-268zm420 400c-108,-124 -257,-200 -420,-200 -164,0 -312,76 -420,200 -111,127 -180,303 -180,500 0,196 69,373 180,500 108,123 256,200 420,200 163,0 312,-77 420,-200 111,-127 180,-304 180,-500 0,-197 -69,-373 -180,-500z"/>
</svg>