<?xml version="1.0" encoding="UTF-8"?>
<!DOCTYPE svg PUBLIC "-//W3C//DTD SVG 1.1//EN" "http://www.w3.org/Graphics/SVG/1.1/DTD/svg11.dtd">
<svg xmlns="http://www.w3.org/2000/svg" xml:space="preserve" width="580px" height="580px" shape-rendering="geometricPrecision" text-rendering="geometricPrecision" image-rendering="optimizeQuality" fill-rule="nonzero" clip-rule="nonzero" viewBox="0 0 5800 5800" xmlns:xlink="http://www.w3.org/1999/xlink">
	<title>moneybag_coins icon</title>
	<desc>moneybag_coins icon from the IconExperience.com I-Collection. Copyright by INCORS GmbH (www.incors.com).</desc>
		<path id="curve29" d="M2473 1500l823 0c-2,-40 -7,-78 -13,-114 -37,-209 -132,-385 -307,-507 -193,-134 -445,-179 -676,-179 -147,0 -248,135 -248,275 0,83 35,175 119,259 43,43 93,80 138,113 69,51 131,95 164,153zm2148 3734c-44,154 -154,266 -321,266l-807 0c90,-57 172,-124 245,-200l562 0c75,0 111,-54 129,-120 72,-251 72,-609 71,-890 -2,-285 -28,-521 -142,-787 -118,-272 -289,-476 -499,-680 -191,-185 -559,-543 -559,-723l-800 0c0,143 -232,398 -423,590 -60,-37 -123,-68 -188,-95 175,-172 411,-413 411,-495l0 -500c0,-12 -49,-49 -109,-92 -52,-38 -110,-80 -162,-132 -125,-126 -177,-268 -177,-401 0,-251 191,-475 448,-475 203,0 423,32 618,118 71,-34 146,-60 224,-79 117,-27 238,-39 358,-39 185,0 341,117 411,285 87,210 17,433 -140,591 -52,52 -110,94 -162,132 -59,43 -109,79 -109,92l0 500c0,97 328,415 498,580 230,223 414,445 543,744 123,285 161,558 159,866 0,294 0,670 -79,944zm-3442 0c-15,-50 -27,-104 -36,-159 67,13 137,21 208,24 6,28 12,55 20,81 18,66 54,120 129,120l362 0c73,76 155,143 245,200l-607 0c-167,0 -277,-112 -321,-266zm2121 -3334l0 -200 -800 0 0 200 800 0zm-115 -1110c145,132 253,315 295,565l11 -8c45,-33 95,-70 138,-113 99,-99 153,-239 97,-373 -38,-92 -124,-161 -226,-161 -108,0 -214,10 -312,33 -18,5 -36,9 -54,15 17,13 34,27 51,42z"/>
	<path id="curve28" d="M2700 4900l0 -800 -100 0 0 -200 300 0 0 1000 -200 0zm100 -1600c607,0 1100,493 1100,1100 0,607 -493,1100 -1100,1100 -607,0 -1100,-493 -1100,-1100 0,-607 493,-1100 1100,-1100zm0 200c-497,0 -900,403 -900,900 0,497 403,900 900,900 497,0 900,-403 900,-900 0,-497 -403,-900 -900,-900zm-1500 800l0 -800 -100 0 0 -200 300 0 0 1000 -200 0zm100 -1600c371,0 713,185 917,493 -63,25 -123,55 -181,89 -169,-239 -442,-382 -736,-382 -497,0 -900,403 -900,900 0,497 403,900 900,900 45,0 89,-3 133,-10 15,67 35,131 60,193 -63,11 -127,17 -193,17 -607,0 -1100,-493 -1100,-1100 0,-607 493,-1100 1100,-1100z"/>
</svg>