<?xml version="1.0" encoding="UTF-8"?>
<!DOCTYPE svg PUBLIC "-//W3C//DTD SVG 1.1//EN" "http://www.w3.org/Graphics/SVG/1.1/DTD/svg11.dtd">
<svg xmlns="http://www.w3.org/2000/svg" xml:space="preserve" width="580px" height="580px" shape-rendering="geometricPrecision" text-rendering="geometricPrecision" image-rendering="optimizeQuality" fill-rule="nonzero" clip-rule="nonzero" viewBox="0 0 5800 5800" xmlns:xlink="http://www.w3.org/1999/xlink">
	<title>money_coins icon</title>
	<desc>money_coins icon from the IconExperience.com I-Collection. Copyright by INCORS GmbH (www.incors.com).</desc>
		<path id="curve30"  d="M2500 2399l0 -899 -200 0 0 -200 400 0 0 805c-76,90 -143,189 -200,294zm100 -2099c714,0 1329,504 1470,1202 -23,-1 -46,-2 -70,-2 -45,0 -89,2 -134,5 -136,-587 -661,-1005 -1266,-1005 -718,0 -1300,582 -1300,1300 0,194 42,378 119,543 -67,15 -131,34 -194,57 -80,-184 -125,-387 -125,-600 0,-828 672,-1500 1500,-1500z"/>
	<path id="curve29"  d="M4000 1700c828,0 1500,672 1500,1500 0,828 -672,1500 -1500,1500 -213,0 -416,-45 -600,-125 23,-63 42,-127 57,-194 165,77 349,119 543,119 718,0 1300,-582 1300,-1300 0,-718 -582,-1300 -1300,-1300 -504,0 -960,290 -1175,744 -54,-41 -110,-78 -168,-112 253,-509 772,-832 1343,-832zm-100 2130l0 -930 -200 0 0 -200 400 0 0 1130 -200 0z"/>
	<path id="curve28"  d="M1700 4630l0 -934 -203 -6 6 -200 397 14 0 1126 -200 0zm100 -2130c828,0 1500,672 1500,1500 0,828 -672,1500 -1500,1500 -828,0 -1500,-672 -1500,-1500 0,-828 672,-1500 1500,-1500zm0 200c-718,0 -1300,582 -1300,1300 0,718 582,1300 1300,1300 718,0 1300,-582 1300,-1300 0,-718 -582,-1300 -1300,-1300z"/>
</svg>