<?xml version="1.0" encoding="UTF-8"?>
<!DOCTYPE svg PUBLIC "-//W3C//DTD SVG 1.1//EN" "http://www.w3.org/Graphics/SVG/1.1/DTD/svg11.dtd">
<svg xmlns="http://www.w3.org/2000/svg" xml:space="preserve" width="580px" height="580px" shape-rendering="geometricPrecision" text-rendering="geometricPrecision" image-rendering="optimizeQuality" fill-rule="nonzero" clip-rule="nonzero" viewBox="0 0 5800 5800" xmlns:xlink="http://www.w3.org/1999/xlink">
	<title>money_interest icon</title>
	<desc>money_interest icon from the IconExperience.com I-Collection. Copyright by INCORS GmbH (www.incors.com).</desc>
	<path id="curve0"  d="M904 2100c-110,0 -200,90 -200,200l0 300c0,258 400,266 400,0l0 -300c0,-110 -90,-200 -200,-200zm396 -1000l0 282c71,30 138,69 200,115l0 -197 694 0c-10,81 -33,158 -65,230 31,-20 67,-30 107,-30l696 0c65,0 122,29 159,79 94,-51 199,-79 309,-79 211,0 401,104 537,271 132,162 213,385 213,629 0,244 -81,467 -213,629 -136,167 -326,271 -537,271 -211,0 -401,-104 -537,-271 -105,-130 -179,-299 -204,-486l-515 859c291,-18 569,90 774,298l2582 0 0 -2600 -4200 0zm660 671c-44,43 -93,82 -146,114 12,25 22,51 32,77l114 -191zm3340 -471l0 694c-362,-45 -649,-332 -694,-694l694 0zm-694 2200c45,-362 332,-649 694,-694l0 694 -694 0zm-2402 300c331,0 600,269 600,600l0 300c0,331 -269,600 -600,600 -330,0 -600,-269 -600,-600l0 -300c0,-331 270,-600 600,-600zm0 400c-110,0 -200,90 -200,200l0 300c0,110 90,200 200,200 110,0 200,-90 200,-200l0 -300c0,-110 -90,-200 -200,-200zm87 -2400l465 0 -2099 3500 -465 0 2099 -3500zm-1387 -100c331,0 600,269 600,600l0 300c0,331 -269,600 -600,600 -330,0 -600,-269 -600,-600l0 -300c0,-331 270,-600 600,-600z"/>
</svg>