<?xml version="1.0" encoding="UTF-8"?>
<!DOCTYPE svg PUBLIC "-//W3C//DTD SVG 1.1//EN" "http://www.w3.org/Graphics/SVG/1.1/DTD/svg11.dtd">
<svg xmlns="http://www.w3.org/2000/svg" xml:space="preserve" width="580px" height="580px" shape-rendering="geometricPrecision" text-rendering="geometricPrecision" image-rendering="optimizeQuality" fill-rule="nonzero" clip-rule="nonzero" viewBox="0 0 5800 5800" xmlns:xlink="http://www.w3.org/1999/xlink">
	<title>monitor_size icon</title>
	<desc>monitor_size icon from the IconExperience.com I-Collection. Copyright by INCORS GmbH (www.incors.com).</desc>
		<path id="curve28"  d="M3000 4500l0 800 1100 0 0 200 -2400 0 0 -200 1100 0 0 -800 200 0zm2500 -4000l0 3800 -5200 0 0 -3800 5200 0zm-4329 1671l-142 -142 -470 471 470 471 142 -142 -330 -329 330 -329zm3458 658l142 142 470 -471 -470 -471 -142 142 330 329 -330 329zm-2058 600l-142 142 471 470 471 -470 -142 -142 -329 330 -329 -330zm658 -2058l142 -142 -471 -470 -471 470 142 142 329 -330 329 330z"/>
</svg>