<?xml version="1.0" encoding="UTF-8"?>
<!DOCTYPE svg PUBLIC "-//W3C//DTD SVG 1.1//EN" "http://www.w3.org/Graphics/SVG/1.1/DTD/svg11.dtd">
<svg xmlns="http://www.w3.org/2000/svg" xml:space="preserve" width="580px" height="580px" shape-rendering="geometricPrecision" text-rendering="geometricPrecision" image-rendering="optimizeQuality" fill-rule="nonzero" clip-rule="nonzero" viewBox="0 0 5800 5800" xmlns:xlink="http://www.w3.org/1999/xlink">
	<title>monitor_sleep icon</title>
	<desc>monitor_sleep icon from the IconExperience.com I-Collection. Copyright by INCORS GmbH (www.incors.com).</desc>
		<path id="curve28"  d="M3000 4500l0 800 1100 0 0 200 -2400 0 0 -200 1100 0 0 -800 200 0zm6 -604c187,0 472,-52 636,-142l278 -152 -315 -35c-597,-65 -1047,-571 -1047,-1171 0,-600 450,-1105 1047,-1171l315 -35 -278 -152c-166,-91 -448,-142 -636,-142 -829,0 -1506,675 -1506,1504 0,823 684,1496 1506,1496zm2494 -3396l0 3800 -5200 0 0 -3800 5200 0z"/>
</svg>