<?xml version="1.0" encoding="UTF-8"?>
<!DOCTYPE svg PUBLIC "-//W3C//DTD SVG 1.1//EN" "http://www.w3.org/Graphics/SVG/1.1/DTD/svg11.dtd">
<svg xmlns="http://www.w3.org/2000/svg" xml:space="preserve" width="580px" height="580px" shape-rendering="geometricPrecision" text-rendering="geometricPrecision" image-rendering="optimizeQuality" fill-rule="nonzero" clip-rule="nonzero" viewBox="0 0 5800 5800" xmlns:xlink="http://www.w3.org/1999/xlink">
	<title>monitor_brush icon</title>
	<desc>monitor_brush icon from the IconExperience.com I-Collection. Copyright by INCORS GmbH (www.incors.com).</desc>
	<path id="curve0" d="M5358 331c-8,-7 -21,-8 -30,-2 -698,504 -1377,1056 -1986,1665 -29,29 -55,62 -81,94 28,17 55,36 81,56 57,43 112,93 163,150 39,42 73,85 104,128 8,11 15,22 23,33l14 -12c7,-6 75,-66 75,-69 609,-609 1162,-1289 1666,-1986 6,-10 5,-22 -3,-30 -9,-9 -17,-18 -26,-27zm-2307 2375c115,127 165,264 165,394 0,361 -358,600 -695,600l-953 0c74,-74 146,-149 223,-220 78,-72 193,-178 230,-294 11,-35 20,-72 29,-109 37,-155 73,-286 195,-397 223,-202 560,-216 779,-2 8,8 17,17 27,28zm-157 -240c-51,-21 -75,-79 -54,-130 22,-51 80,-75 131,-54 118,49 221,123 307,218 66,72 123,154 164,242 24,50 3,109 -47,133 -50,23 -110,2 -133,-48 -34,-71 -79,-135 -132,-193 -65,-73 -145,-130 -236,-168zm106 2034l0 800 1100 0 0 200 -2400 0 0 -200 1100 0 0 -800 200 0zm1439 -4000c-82,65 -166,131 -250,200l-3689 0 0 3400 4800 0 0 -2930c69,-90 136,-177 200,-263l0 3293 0 100 -100 0 -5100 0 0 -3800 4139 0zm-1423 2600c0,-84 -34,-173 -113,-260 -5,-6 -10,-12 -18,-19 -79,-77 -172,-104 -262,-98 -92,6 -180,47 -244,104 -84,76 -110,190 -135,296 -11,43 -21,85 -33,124 -32,98 -93,183 -157,253l467 0c225,0 495,-151 495,-400zm2509 -2883c78,77 88,198 23,287 -506,702 -1062,1387 -1674,2000 -31,31 -65,62 -98,90 -29,26 -64,54 -104,86 -6,5 -12,9 -19,13 -49,26 -109,8 -135,-41 -101,-187 -257,-348 -447,-443 -7,-3 -14,-6 -20,-11 -44,-33 -53,-96 -20,-140 50,-67 111,-146 170,-205 615,-616 1305,-1176 2011,-1685 89,-65 209,-55 286,22 9,9 19,18 27,27z"/>
</svg>