<?xml version="1.0" encoding="UTF-8"?>
<!DOCTYPE svg PUBLIC "-//W3C//DTD SVG 1.1//EN" "http://www.w3.org/Graphics/SVG/1.1/DTD/svg11.dtd">
<svg xmlns="http://www.w3.org/2000/svg" xml:space="preserve" width="580px" height="580px" shape-rendering="geometricPrecision" text-rendering="geometricPrecision" image-rendering="optimizeQuality" fill-rule="nonzero" clip-rule="nonzero" viewBox="0 0 5800 5800" xmlns:xlink="http://www.w3.org/1999/xlink">
	<title>monitor_brush icon</title>
	<desc>monitor_brush icon from the IconExperience.com I-Collection. Copyright by INCORS GmbH (www.incors.com).</desc>
	<path id="curve0"  d="M5525 217c78,77 88,198 23,287 -239,331 -525,707 -843,1087 -261,311 -544,626 -842,924 0,0 -174,151 -191,165 -48,42 -124,29 -154,-28 -44,-81 -98,-156 -160,-224 -81,-90 -180,-165 -287,-219 -59,-25 -79,-99 -40,-151 48,-63 113,-148 170,-205 331,-332 685,-646 1032,-931 344,-284 680,-539 979,-754 44,-33 97,-46 147,-42 75,6 116,40 166,91zm-2525 4283l0 800 1100 0 0 200 -2400 0 0 -200 1100 0 0 -800 200 0zm416 -1423c7,226 -95,433 -260,583 -162,146 -388,240 -635,240l-1435 -1c188,-188 375,-385 570,-565 62,-58 154,-142 175,-209 10,-30 18,-62 25,-95 49,-203 98,-355 256,-498 142,-129 334,-206 525,-209 4,-22 10,-43 19,-64 31,-74 88,-129 156,-159 3,-57 23,-114 60,-162 52,-70 125,-165 187,-226 333,-333 693,-652 1047,-944 112,-93 224,-182 333,-268l-4139 0 0 3800 5200 0 0 -3393c-194,259 -410,536 -642,812 -266,317 -553,637 -854,938 0,-1 -90,82 -98,89 -28,23 -62,51 -102,83 -49,43 -112,70 -177,74 -28,65 -78,120 -147,152 -21,10 -43,18 -64,22zm-522 -611c-51,-21 -75,-79 -54,-130 22,-51 80,-75 131,-54 118,49 221,123 307,218 66,72 123,154 164,242 24,50 3,109 -47,133 -50,23 -110,2 -133,-48 -34,-71 -79,-135 -132,-193 -65,-73 -145,-130 -236,-168zm157 240c115,127 165,264 165,394 0,160 -76,306 -194,412 -126,115 -305,188 -501,188l-953 0c74,-74 146,-149 223,-220 78,-72 193,-178 230,-294 11,-35 20,-72 29,-109 38,-156 74,-287 195,-397 95,-86 227,-147 365,-156 173,-12 325,55 441,182z"/>
</svg>