<?xml version="1.0" encoding="utf-8"?>
<!-- Generator: Adobe Illustrator 19.2.1, SVG Export Plug-In . SVG Version: 6.00 Build 0)  -->
<svg version="1.1" id="Ebene_1" xmlns="http://www.w3.org/2000/svg" xmlns:xlink="http://www.w3.org/1999/xlink" x="0px" y="0px"
	 width="580px" height="580px" viewBox="0 0 580 580" style="enable-background:new 0 0 580 580;" xml:space="preserve">
<g>
	<rect x="111" y="333" width="54" height="54"/>
	<rect x="111" y="420" width="54" height="54"/>
	<rect x="111" y="246" width="54" height="53"/>
	<polygon points="408,171.1 456,131.1 408,91.1 	"/>
	<polygon points="172,171.1 172,91.1 124,131.1 	"/>
	<path d="M90,210h400h20V50H70v480h113v-20H90V210z M90,70h400v120H90V70z"/>
	<path d="M223,249v313h320V249H223z M523,542H243V269h280V542z"/>
	<path d="M366.5,485.4c11.8-9.6,17.7-22.3,17.7-38c0-11.4-3.7-20.9-11-28.5c-7.3-7.6-17.3-12-29.9-13.2v-0.5
		c23.4-6.6,35.2-21.4,35.2-44.4c0-12.2-4.7-22.2-14-30c-9.4-7.8-21.8-11.7-37.4-11.7c-16.2,0-30.2,3.3-42.1,10v25.1
		c10.3-8.4,21.4-12.6,33.1-12.6c21,0,31.5,8.6,31.5,25.9c0,18.7-13.5,28.1-40.4,28.1h-12.9v22.7h13.5c30.4,0,45.5,9.9,45.5,29.8
		c0,9-3.5,16.2-10.4,21.5c-7,5.3-16.3,7.9-27.9,7.9c-14.3,0-27.2-4.5-38.6-13.5v26.6c10.3,6.3,24.2,9.4,41.5,9.4
		C339.2,499.8,354.7,495,366.5,485.4z"/>
	<path d="M448.9,352.6v144.3h28.3V318h-12c-4.6,3.3-9.1,6.3-13.5,8.9c-4.4,2.6-8.7,5-12.9,7.1c-4.3,2.1-8.6,4-13,5.7
		s-9,3.3-13.7,4.9v24.2c7.6-2,14.3-4.2,20.2-6.8C438.3,359.4,443.8,356.3,448.9,352.6z"/>
</g>
</svg>
