<?xml version="1.0" encoding="UTF-8"?>
<!DOCTYPE svg PUBLIC "-//W3C//DTD SVG 1.1//EN" "http://www.w3.org/Graphics/SVG/1.1/DTD/svg11.dtd">
<svg xmlns="http://www.w3.org/2000/svg" xml:space="preserve" width="580px" height="580px" shape-rendering="geometricPrecision" text-rendering="geometricPrecision" image-rendering="optimizeQuality" fill-rule="nonzero" clip-rule="nonzero" viewBox="0 0 5800 5800" xmlns:xlink="http://www.w3.org/1999/xlink">
	<title>moon icon</title>
	<desc>moon icon from the IconExperience.com I-Collection. Copyright by INCORS GmbH (www.incors.com).</desc>
		<path id="curve28" d="M4171 3518c-4,-17 -50,-57 -74,-51 -49,13 -139,72 -157,103 -18,30 -11,55 -11,90 -20,154 18,100 110,84 129,-7 169,-88 132,-226zm-1049 -783c-93,12 -128,60 -121,97 7,38 26,78 125,66 96,-11 115,-61 107,-99 -7,-38 -42,-73 -111,-64zm1126 360c-21,148 34,222 94,228 59,5 101,8 125,-148 24,-153 60,-293 0,-299 -59,-5 -203,109 -219,219zm589 -394c-26,410 116,455 263,599 53,52 167,12 151,-424 -26,-696 -166,-559 -239,-574 -73,-15 -155,92 -175,399zm-269 854c-37,158 58,238 161,244 104,6 219,-7 262,-175 41,-163 -73,-218 -176,-223 -103,-6 -220,35 -247,154zm-531 482c-22,11 -45,12 -67,2 -22,-11 -36,-30 -40,-53 -12,-73 -57,-100 -99,-104 -58,-5 -123,32 -138,139 -19,131 24,202 76,217 27,9 46,30 50,58 2,13 7,25 14,36 48,71 195,108 387,0 187,-105 205,-253 158,-324 -46,-69 -209,-44 -341,29zm-1493 -1740c-31,131 48,197 133,202 85,5 181,-6 216,-144 34,-135 -60,-180 -145,-185 -85,-4 -181,30 -204,127zm685 2257c-106,14 -147,68 -139,112 9,44 31,89 144,76 111,-14 133,-71 124,-114 -8,-44 -49,-84 -129,-74zm-584 -578c-128,17 -176,81 -166,133 10,52 36,106 171,90 132,-15 158,-84 148,-135 -10,-52 -58,-101 -153,-88zm-837 -2363c-170,55 -301,124 -287,196 14,73 50,148 239,126 183,-22 254,-154 240,-226 -14,-72 -65,-137 -192,-96zm82 446c-140,81 -188,171 -152,227 37,55 153,84 303,0 146,-82 160,-198 123,-254 -36,-56 -170,-34 -274,27zm-985 -231c-22,130 34,196 94,201 60,5 127,-5 152,-144 25,-135 -42,-180 -102,-185 -60,-4 -128,30 -144,128zm554 -786c-95,68 -127,186 -97,224 30,37 100,-10 202,-81 100,-68 92,-135 62,-172 -30,-38 -95,-21 -167,29zm2841 1158c-127,-370 -236,-382 -400,-300 -200,100 -134,236 -100,600 29,313 281,321 400,300 188,-34 180,-367 100,-600zm-1577 -690c-267,-50 -347,106 -347,189 0,83 75,174 289,190 209,15 309,-115 309,-198 0,-84 -103,-154 -251,-181zm-1124 -628c24,5 35,24 62,30 29,10 72,7 83,48 9,33 3,113 2,139 -4,53 -24,76 -69,105 -221,155 -56,120 -309,187 -65,17 -103,-26 -120,-91 -21,-82 30,-121 55,-189l1 -4c-64,57 -125,118 -183,182 4,49 -23,87 -81,94 -30,37 -59,74 -86,113 21,9 45,51 95,74 18,4 47,14 59,28 19,4 46,6 64,10 78,-3 238,7 303,-10 49,-13 32,-43 110,-46 118,-3 145,19 251,-75 57,-50 53,-31 131,-34 45,5 79,-30 90,11 15,57 7,94 22,151 48,14 68,26 109,-20 64,-168 155,-254 372,-246 56,12 135,-83 119,-145 -37,-7 -131,0 -142,-41 -22,-82 54,-127 119,-145 147,-38 10,172 159,142 66,-17 41,-11 97,1 57,19 120,-6 142,76 6,24 -85,75 -110,81 -24,6 -116,22 -28,60 184,32 284,132 264,306 -10,29 -21,154 45,137 41,-11 28,-60 109,-82 77,-20 170,-50 218,30 33,62 97,71 76,-11 -11,-41 -26,-63 9,-98 137,-90 84,-63 240,-81 191,-6 84,-48 149,-65 33,-9 62,1 70,34 22,82 -73,89 102,121 82,14 87,65 127,151 65,148 36,104 132,139 189,110 89,270 109,347 9,33 41,88 59,159 43,-2 68,26 111,23 47,-55 22,-84 44,-133 34,-35 81,-57 66,-114 -6,-24 -62,-71 -77,-128 -30,-114 88,-163 -38,-208 -123,-38 -203,-209 -80,-171 110,50 134,174 159,203 20,12 39,16 61,36 36,34 100,148 158,133 59,-16 79,-91 71,-156 -208,-478 -560,-862 -990,-1113 -782,-456 -1753,-434 -2511,55zm-719 722c-18,28 -36,57 -53,86 -309,531 -417,1179 -248,1820 336,1282 1650,2048 2931,1711 641,-168 1153,-581 1463,-1111 115,-198 203,-413 258,-637 -11,0 -21,1 -32,1 -26,34 -62,130 -84,180 -46,90 -92,181 -171,245 -47,41 -103,81 -158,129 -103,106 -78,3 -205,220 -52,101 -60,68 -158,129 -111,73 -266,183 -397,218 -57,15 -67,-26 -94,-63 -80,30 -40,81 -130,104 -74,20 -38,-42 -48,-83 -13,-49 -63,-71 -90,-108 -47,-48 -17,-100 -77,-93 -75,11 -112,38 -158,94 -87,102 89,108 29,246 -15,44 -88,81 -130,104 -58,41 -92,15 -159,24 -27,-2 -59,7 -94,7 -143,-49 -106,-152 -138,-225 -38,-58 -11,-42 -24,-90 -154,-56 -119,110 -119,110 5,121 -117,153 -106,63 0,-35 24,-42 36,-62 48,-83 -66,-53 -35,-201 -58,-19 -98,-9 -154,-20 -74,-16 -68,-26 -122,-64 -55,-47 -59,-28 -105,-104 -32,-52 -118,-117 -68,-191 20,-23 20,-23 61,-34 47,-21 55,-58 89,-93 30,-52 18,-66 37,-123 0,-35 8,-37 8,-72 15,-109 73,-20 114,-30 74,-20 67,-44 105,-98 30,-51 78,-38 135,-53 24,-6 53,-31 85,-40 49,-12 127,-15 77,-72 -116,-132 -46,-76 -80,-206 -13,-49 -85,-91 -138,-95 -43,3 -219,32 -158,-133 62,-130 140,-2 279,-38 57,-15 101,-114 86,-171 -19,-39 -42,-59 -65,-79 -87,-100 -100,-18 -236,-69 -56,-12 -97,-1 -130,-62 -23,-20 -50,-57 -56,-81 -7,-25 19,-93 6,-142 -11,-41 -19,-38 -11,-75 3,-54 16,-74 -22,-117 180,-47 111,-143 5,-115 -49,13 -32,44 -22,85 7,24 13,14 -7,37 -18,31 -47,55 -73,89 -40,44 -72,78 -117,118 -48,53 -94,68 -161,86 -102,44 -98,60 -221,23 -29,-10 -169,-78 -200,35 -2,27 0,70 -32,78 -25,7 -95,-27 -101,-52 -9,-33 20,-57 29,-86 10,-29 4,-54 12,-90 19,-58 35,-97 43,-169 9,-98 -40,-86 -106,-103 -53,-4 -85,-56 -148,-66 -53,35 -25,56 -114,100 -59,41 -11,90 -93,111 -40,11 -67,9 -100,18 -196,52 -177,-15 -235,1 -49,13 -43,37 -90,58 -13,-49 33,-174 67,-209 15,-13 23,-15 43,-38 70,-132 -22,-247 9,-299 24,-41 56,-50 64,-87 14,-32 8,-59 2,-81zm-225 -15c723,-1240 2316,-1658 3556,-934 574,335 1021,890 1203,1584 183,695 67,1397 -269,1972 -335,574 -890,1021 -1584,1203 -1389,365 -2810,-464 -3175,-1853 -183,-695 -67,-1397 269,-1972zm596 985c9,32 -5,45 -15,74 -16,74 26,167 -129,208 -57,15 -130,-62 -134,-78 -17,-66 118,-84 139,-168 34,-105 137,-44 139,-36zm2414 -1482c-106,98 -70,-34 -255,-72 -185,-39 -110,2 -258,-151 10,-29 24,-76 56,-84 107,-28 197,18 268,86 43,67 132,150 189,221zm849 476c31,116 -200,60 -295,-62 -31,-56 -85,-122 -143,-146 -80,-17 -123,-95 -174,-94 -45,-6 -89,23 -102,-26 -15,-57 98,-25 116,-22 51,-4 76,-11 121,-5 84,21 62,71 167,104 95,28 89,38 167,105 39,30 131,100 143,146zm198 1484c-90,-11 -121,102 -117,118 19,74 120,126 127,-15 -1,-35 1,-62 -10,-103zm-1617 1089c-8,-33 -35,-69 -68,-61 -123,32 -2,193 -141,229 12,-55 -34,-96 -83,-83 -57,15 -102,141 94,89 35,70 86,65 115,75 7,59 -20,57 28,106 43,-3 137,-10 120,-75 -17,-66 -99,-44 -112,-93 -19,-74 67,-114 47,-187zm363 -183c-28,-106 -152,-12 -126,86 13,49 154,21 126,-86zm41 -2132c-6,-25 -35,-35 -59,-28 -57,15 -55,58 -110,81 -112,38 -59,42 -116,57 -49,12 -87,-65 -185,127 -98,191 -13,283 -8,299 6,24 14,153 43,198 10,6 27,37 37,43 25,28 13,14 50,22 279,66 21,-119 83,-249 54,-93 122,-32 159,-25 183,7 171,-149 59,-173 -115,-39 -146,39 -212,21 -58,-19 -106,-138 -49,-153 90,-23 117,48 248,14 4,-19 -3,-43 -1,-70 -3,-112 89,-58 61,-164zm506 1325c-8,-29 -101,-104 -133,-140 -67,-23 -106,28 -181,-57 -120,-91 -41,-24 -105,-103 -112,-45 -185,-153 -277,-24 -10,29 -14,48 -32,79 -38,53 -100,52 -97,130 46,40 74,15 124,72 -22,50 -43,38 -65,87 55,108 171,16 186,108 7,26 1,40 -20,58 -77,38 -96,-1 -236,97 -83,48 -63,25 -145,47 -24,6 -26,33 -42,72 -36,62 -37,27 -87,101 -54,93 -177,56 -147,170 12,49 118,-14 141,-28 14,-13 228,-60 256,-120 14,-13 10,-64 20,-92 -1,-66 119,-93 188,-15 41,24 59,-7 153,-14 70,-1 86,-40 149,-31 35,0 132,36 117,-22 -22,-81 -48,-48 -56,-81 -18,-65 67,-44 132,-61 41,-10 170,-185 157,-233z"/>
</svg>