<?xml version="1.0" encoding="UTF-8"?>
<!DOCTYPE svg PUBLIC "-//W3C//DTD SVG 1.1//EN" "http://www.w3.org/Graphics/SVG/1.1/DTD/svg11.dtd">
<svg xmlns="http://www.w3.org/2000/svg" xml:space="preserve" width="580px" height="580px" shape-rendering="geometricPrecision" text-rendering="geometricPrecision" image-rendering="optimizeQuality" fill-rule="nonzero" clip-rule="nonzero" viewBox="0 0 5800 5800" xmlns:xlink="http://www.w3.org/1999/xlink">
	<title>moon_half icon</title>
	<desc>moon_half icon from the IconExperience.com I-Collection. Copyright by INCORS GmbH (www.incors.com).</desc>
		<path id="curve28"  d="M5500 2900c0,1428 -1157,2600 -2600,2600 -1436,0 -2600,-1164 -2600,-2600 0,-1436 1164,-2600 2600,-2600 1443,0 2600,1172 2600,2600zm-1616 2190c-521,-51 -989,-284 -1340,-634 -854,-855 -854,-2257 0,-3112 351,-350 819,-583 1340,-634 -300,-135 -633,-210 -984,-210 -1326,0 -2400,1074 -2400,2400 0,1326 1074,2400 2400,2400 351,0 684,-75 984,-210zm216 -4190c-552,0 -1052,224 -1414,586 -362,362 -586,862 -586,1414 0,552 224,1052 586,1414 362,362 862,586 1414,586 45,0 89,-1 133,-4 668,-447 1067,-1192 1067,-1996 0,-804 -399,-1549 -1067,-1996 -42,-3 -91,-4 -133,-4z"/>
</svg>