<?xml version="1.0" encoding="UTF-8"?>
<!DOCTYPE svg PUBLIC "-//W3C//DTD SVG 1.1//EN" "http://www.w3.org/Graphics/SVG/1.1/DTD/svg11.dtd">
<svg xmlns="http://www.w3.org/2000/svg" xml:space="preserve" width="580px" height="580px" shape-rendering="geometricPrecision" text-rendering="geometricPrecision" image-rendering="optimizeQuality" fill-rule="nonzero" clip-rule="nonzero" viewBox="0 0 5800 5800" xmlns:xlink="http://www.w3.org/1999/xlink">
	<title>moon_half icon</title>
	<desc>moon_half icon from the IconExperience.com I-Collection. Copyright by INCORS GmbH (www.incors.com).</desc>
		<path id="curve28"  d="M5188 1665c199,367 312,788 312,1235 0,447 -113,868 -312,1235 -455,840 -1330,1365 -2288,1365 -718,0 -1368,-291 -1838,-762 -471,-470 -762,-1120 -762,-1838 0,-718 291,-1368 762,-1838 470,-471 1120,-762 1838,-762 958,0 1833,525 2288,1365zm-1150 3234c179,-102 344,-228 488,-373 417,-416 674,-991 674,-1626 0,-635 -257,-1210 -674,-1626 -144,-145 -309,-271 -488,-373 -528,16 -1004,236 -1352,585 -362,362 -586,862 -586,1414 0,552 224,1052 586,1414 348,349 824,569 1352,585z"/>
</svg>