<?xml version="1.0" encoding="UTF-8"?>
<!DOCTYPE svg PUBLIC "-//W3C//DTD SVG 1.1//EN" "http://www.w3.org/Graphics/SVG/1.1/DTD/svg11.dtd">
<svg xmlns="http://www.w3.org/2000/svg" xml:space="preserve" width="580px" height="580px" shape-rendering="geometricPrecision" text-rendering="geometricPrecision" image-rendering="optimizeQuality" fill-rule="nonzero" clip-rule="nonzero" viewBox="0 0 5800 5800" xmlns:xlink="http://www.w3.org/1999/xlink">
	<title>mosque icon</title>
	<desc>mosque icon from the IconExperience.com I-Collection. Copyright by INCORS GmbH (www.incors.com).</desc>
	<path id="curve0"  d="M2900 704c23,0 46,2 68,5 -177,28 -313,182 -313,368 0,205 167,372 373,372 185,0 339,-136 367,-313 3,22 5,45 5,68 0,242 -172,444 -400,490l0 110c504,35 949,341 1165,796l-2530 0c216,-455 661,-761 1165,-796l0 -110c-228,-46 -400,-248 -400,-490 0,-276 224,-500 500,-500zm1600 1596l-200 0c0,-200 0,-400 0,-600l272 0 328 -1312 328 1312 272 0c0,200 0,400 0,600l-200 0 0 3200 -800 0c0,-1067 0,-2133 0,-3200zm-200 3200l-800 0 0 -986c0,-354 -252,-660 -600,-727 -348,67 -600,373 -600,727l0 986 -800 0 0 -2700 2800 0 0 2700zm-3000 0c-267,0 -533,0 -800,0l0 -3200 -200 0c0,-200 0,-400 0,-600l272 0 328 -1312 328 1312 272 0 0 600 -200 0c0,1067 0,2133 0,3200z"/>
</svg>