<?xml version="1.0" encoding="UTF-8"?>
<!DOCTYPE svg PUBLIC "-//W3C//DTD SVG 1.1//EN" "http://www.w3.org/Graphics/SVG/1.1/DTD/svg11.dtd">
<svg xmlns="http://www.w3.org/2000/svg" xml:space="preserve" width="580px" height="580px" shape-rendering="geometricPrecision" text-rendering="geometricPrecision" image-rendering="optimizeQuality" fill-rule="nonzero" clip-rule="nonzero" viewBox="0 0 5800 5800" xmlns:xlink="http://www.w3.org/1999/xlink">
	<title>mosquito icon</title>
	<desc>mosquito icon from the IconExperience.com I-Collection. Copyright by INCORS GmbH (www.incors.com).</desc>
		<path id="curve31"  d="M5029 1529c39,-39 103,-39 142,0 39,39 39,103 0,142l-600 600c-20,19 -45,29 -71,29l-261 0c-212,-89 -436,-153 -663,-182 -2,-6 -3,-12 -5,-18l888 0 570 -571zm-805 -1194c36,-42 99,-47 141,-11 42,36 47,99 11,141l-576 672 0 463c0,28 -12,54 -30,72l-269 269c-10,-17 -21,-33 -32,-49 20,-62 31,-126 31,-192 0,-13 0,-27 -1,-40l101 -101 0 -459c0,-23 8,-46 24,-65l600 -700zm96 4671c36,42 30,105 -12,140 -42,36 -105,30 -141,-12l-644 -770c-15,-19 -23,-41 -23,-64l0 -365c33,-99 57,-204 73,-309 41,48 83,95 127,141l0 497 620 742zm-3691 -3335c-39,-39 -39,-103 0,-142 39,-39 103,-39 142,0l570 571 888 0c-2,6 -3,12 -5,18 -227,29 -450,93 -663,182l-261 0c-26,0 -51,-10 -71,-29l-600 -600zm695 -1206c-36,-42 -31,-105 11,-141 42,-36 105,-31 141,11l600 700c16,19 24,42 24,65l0 459 203 203c5,44 14,88 28,130 -26,36 -48,74 -66,114l-335 -334c-18,-18 -30,-44 -30,-72l0 -463 -576 -672zm309 4669c-36,42 -99,48 -141,12 -42,-35 -48,-98 -12,-140l620 -742 0 -496c44,-46 86,-93 127,-142 16,106 40,210 73,309l0 365c0,23 -8,45 -23,64l-644 770z"/>
	<path id="curve30"  d="M3275 3965c-89,207 -221,335 -375,335 -154,0 -286,-128 -375,-335 -64,-150 -108,-346 -121,-562 166,-215 326,-388 496,-591 170,203 330,375 496,590 -13,217 -57,413 -121,563zm-834 -1864c31,-68 73,-126 128,-176l1 0c-45,-66 -70,-145 -70,-225 0,-171 110,-324 272,-379l128 -1027 128 1027c162,55 272,208 272,379 0,80 -25,159 -70,225l1 0c55,50 97,108 128,176 -45,-1 -90,-1 -135,0 -130,5 -246,64 -324,157 -78,-93 -194,-152 -323,-157 -45,-1 -90,-1 -136,0z"/>
	<path id="curve29"  d="M1712 3864c-131,109 -293,155 -450,141 -338,-29 -589,-328 -560,-667 15,-164 92,-311 218,-418 252,-211 526,-370 801,-475 288,-109 578,-160 849,-150 98,3 179,62 214,153 35,90 15,190 -54,258 -165,166 -344,396 -487,581 -51,67 -98,127 -137,176 -118,146 -251,280 -394,401z"/>
	<path id="curve28"  d="M4538 4005c-156,14 -319,-32 -449,-141 -143,-121 -276,-255 -394,-401 -39,-49 -86,-109 -137,-176 -144,-185 -322,-415 -488,-581 -68,-68 -89,-168 -54,-258 36,-91 117,-150 215,-153 271,-10 561,41 849,150 288,110 565,276 801,475 130,110 204,261 217,418 30,339 -221,638 -560,667z"/>
</svg>