<?xml version="1.0" encoding="UTF-8"?>
<!DOCTYPE svg PUBLIC "-//W3C//DTD SVG 1.1//EN" "http://www.w3.org/Graphics/SVG/1.1/DTD/svg11.dtd">
<svg xmlns="http://www.w3.org/2000/svg" xml:space="preserve" width="580px" height="580px" shape-rendering="geometricPrecision" text-rendering="geometricPrecision" image-rendering="optimizeQuality" fill-rule="nonzero" clip-rule="nonzero" viewBox="0 0 5800 5800" xmlns:xlink="http://www.w3.org/1999/xlink">
	<title>mosque icon</title>
	<desc>mosque icon from the IconExperience.com I-Collection. Copyright by INCORS GmbH (www.incors.com).</desc>
	<path id="curve0" d="M2900 704c23,0 46,2 68,5 -177,28 -313,182 -313,368 0,205 167,372 373,372 185,0 339,-136 367,-313 3,22 5,45 5,68 0,242 -172,444 -400,490l0 110c543,38 1014,389 1208,896l292 0 0 -400 -200 0 0 -600 272 0 328 -1312 328 1312 272 0 0 600 -200 0 0 3200c-600,0 -1200,0 -1800,0l0 -986c0,-354 -252,-660 -600,-727 -348,67 -600,373 -600,727l0 986c-600,0 -1200,0 -1800,0l0 -3200 -200 0 0 -600 272 0 328 -1312 328 1312 272 0 0 600 -200 0 0 400 292 0c194,-507 665,-858 1208,-896l0 -110c-228,-46 -400,-248 -400,-490 0,-276 224,-500 500,-500zm1800 1596l0 3000 400 0 0 -3000 -400 0zm-200 3000l0 -2400 -3200 0 0 2400 800 0 0 -786c0,-472 338,-851 800,-929 462,78 800,457 800,929l0 786 800 0zm-3722 -3600l244 0 -122 -488 -122 488zm322 600l-400 0 0 3000 400 0 0 -3000zm709 400l2182 0c-195,-426 -620,-700 -1091,-700 -471,0 -896,274 -1091,700zm-509 -800l-800 0 0 200 800 0 0 -200zm3722 -200l-122 -488 -122 488 244 0zm278 200l-800 0 0 200 800 0 0 -200z"/>
</svg>