<?xml version="1.0" encoding="UTF-8"?>
<!DOCTYPE svg PUBLIC "-//W3C//DTD SVG 1.1//EN" "http://www.w3.org/Graphics/SVG/1.1/DTD/svg11.dtd">
<svg xmlns="http://www.w3.org/2000/svg" xml:space="preserve" width="580px" height="580px" shape-rendering="geometricPrecision" text-rendering="geometricPrecision" image-rendering="optimizeQuality" fill-rule="nonzero" clip-rule="nonzero" viewBox="0 0 5800 5800" xmlns:xlink="http://www.w3.org/1999/xlink">
	<title>motor_scooter icon</title>
	<desc>motor_scooter icon from the IconExperience.com I-Collection. Copyright by INCORS GmbH (www.incors.com).</desc>
		<path id="curve28" d="M3200 1500c-55,0 -100,-45 -100,-100 0,-55 45,-100 100,-100l600 0c296,0 543,220 728,515 212,340 344,786 368,1091 112,15 236,56 332,133 101,81 172,198 172,361 0,55 -45,100 -100,100l-500 0c-306,0 -527,94 -670,267 -157,188 -230,472 -230,833 0,55 -45,100 -100,100l-1500 0c-28,0 -54,-12 -72,-30l-369 -370 -1659 0c-55,0 -100,-45 -100,-100 0,-391 0,-1141 600,-1431 0,-130 1,-260 1,-390 11,-151 133,-279 287,-279 0,-1 1300,92 1419,100 160,12 293,135 293,300l0 100c0,138 -96,259 -229,291 -60,166 -91,375 -91,566 0,121 12,232 37,317 10,31 41,126 83,126l500 0c106,0 209,-45 303,-121 156,-124 289,-328 385,-558 96,-233 153,-489 153,-715 0,-182 -37,-342 -119,-444 -14,-18 -21,-40 -21,-62l-1 -500 -500 0zm2198 2200c126,148 202,340 202,550 0,469 -381,850 -850,850 -252,0 -488,-110 -650,-302l0 -198c0,-81 4,-156 12,-227 58,305 326,527 638,527 359,0 650,-291 650,-650 0,-224 -115,-431 -303,-550l301 0zm-3509 913c-141,297 -439,487 -769,487 -374,0 -704,-244 -813,-600l213 0c100,242 337,400 600,400 263,0 499,-158 600,-400l56 0 113 113zm1539 -678c-130,103 -274,165 -428,165l-500 0c-31,0 -61,-6 -89,-18 -87,-38 -148,-129 -185,-251 -31,-105 -46,-235 -46,-374 0,-183 26,-384 78,-557l-1344 0c-563,170 -610,808 -614,1200l1600 0c26,0 51,10 71,29l370 371 1361 0c13,-361 102,-653 275,-861 182,-219 454,-339 823,-339l382 0c-16,-44 -44,-79 -78,-106 -85,-68 -207,-94 -304,-94 -55,0 -100,-45 -100,-100 0,-272 -126,-734 -342,-1079 -127,-203 -283,-363 -458,-408l0 455c97,139 141,329 141,538 0,251 -62,535 -169,791 -107,258 -261,491 -444,638zm-1035 -1535l-1405 -101c-49,0 -85,48 -88,94 0,0 0,281 0,307l1500 0c55,0 100,-45 100,-100l0 -100c0,-59 -52,-96 -107,-100z"/>
</svg>