<?xml version="1.0" encoding="UTF-8"?>
<!DOCTYPE svg PUBLIC "-//W3C//DTD SVG 1.1//EN" "http://www.w3.org/Graphics/SVG/1.1/DTD/svg11.dtd">
<svg xmlns="http://www.w3.org/2000/svg" xml:space="preserve" width="580px" height="580px" shape-rendering="geometricPrecision" text-rendering="geometricPrecision" image-rendering="optimizeQuality" fill-rule="nonzero" clip-rule="nonzero" viewBox="0 0 5800 5800" xmlns:xlink="http://www.w3.org/1999/xlink">
	<title>motor_scooter icon</title>
	<desc>motor_scooter icon from the IconExperience.com I-Collection. Copyright by INCORS GmbH (www.incors.com).</desc>
		<path id="curve28"  d="M1007 2100l1400 100c160,12 293,135 293,300l0 100c0,165 -135,300 -300,300l-1600 0c-55,0 -100,-45 -100,-100l0 -400c0,-165 138,-312 307,-300zm4391 1600c126,148 202,340 202,550 0,469 -381,850 -850,850 -252,0 -488,-110 -650,-302l0 -198c0,-315 58,-556 183,-706 104,-125 274,-194 517,-194l598 0zm-2198 -2200c-55,0 -100,-45 -100,-100 0,-55 45,-100 100,-100l600 0c296,0 543,220 728,515 212,340 344,786 368,1091 112,15 236,56 332,133 101,81 172,198 172,361 0,55 -45,100 -100,100l-500 0c-306,0 -527,94 -670,267 -157,188 -230,472 -230,833 0,55 -45,100 -100,100l-1500 0c-28,0 -54,-12 -72,-30l-369 -370 -1659 0c-55,0 -100,-45 -100,-100 0,-345 0,-970 413,-1311 38,122 152,211 287,211l1600 0c5,0 10,0 14,0 -23,116 -34,240 -34,357 0,85 17,402 109,441 14,6 456,2 511,2 106,0 209,-45 303,-121 332,-265 538,-856 538,-1273 0,-182 -37,-342 -119,-444 -14,-18 -21,-40 -21,-62l-1 -500 -500 0zm-1424 3000l113 113c-141,297 -439,487 -769,487 -374,0 -704,-244 -813,-600l1469 0z"/>
</svg>