<?xml version="1.0" encoding="UTF-8"?>
<!DOCTYPE svg PUBLIC "-//W3C//DTD SVG 1.1//EN" "http://www.w3.org/Graphics/SVG/1.1/DTD/svg11.dtd">
<svg xmlns="http://www.w3.org/2000/svg" xml:space="preserve" width="580px" height="580px" shape-rendering="geometricPrecision" text-rendering="geometricPrecision" image-rendering="optimizeQuality" fill-rule="nonzero" clip-rule="nonzero" viewBox="0 0 5800 5800" xmlns:xlink="http://www.w3.org/1999/xlink">
	<title>motorcyclist icon</title>
	<desc>motorcyclist icon from the IconExperience.com I-Collection. Copyright by INCORS GmbH (www.incors.com).</desc>
		<path id="curve28"  d="M3239 2881c-111,12 -225,19 -339,19 -114,0 -227,-7 -339,-20 17,245 29,485 35,710 55,32 108,58 156,77 58,22 108,33 148,33 40,0 90,-11 148,-33 48,-19 101,-45 156,-77 6,-225 18,-465 35,-709zm-836 -1323c160,24 328,36 497,36 169,0 337,-12 497,-36 71,-400 161,-749 273,-984 -230,-135 -508,-174 -770,-174 -262,0 -540,39 -770,174 112,235 202,584 273,984zm716 2296c-81,30 -155,46 -219,46 -64,0 -138,-16 -219,-46 -331,-127 -663,-457 -855,-730 -243,-348 -426,-799 -426,-1324 0,-916 377,-1536 1344,-1595 52,-3 104,-5 156,-5 52,0 104,1 156,5 967,59 1344,679 1344,1595 0,525 -183,976 -426,1324 -191,272 -525,604 -855,730zm994 -1465c58,-193 87,-387 87,-589 0,-97 -4,-194 -15,-291 -319,190 -804,285 -1285,285 -481,0 -966,-95 -1285,-285 -11,97 -15,194 -15,291 0,180 23,356 70,530 300,276 836,370 1230,370 372,0 906,-88 1213,-311zm840 1626c347,231 347,558 347,885 0,223 -289,363 -684,449 -508,110 -1206,145 -1616,150l0 -1099 -100 0c-143,0 -288,-37 -421,-94 -134,-57 -256,-133 -355,-211l163 -237c231,157 454,242 616,242 257,-3 673,-220 1023,-600 9,5 18,10 27,15 144,90 308,162 470,232 183,80 365,159 530,268zm-4108 2c161,-107 340,-185 522,-264 161,-70 325,-141 477,-236 9,-6 20,-12 30,-17 82,89 167,169 254,239l-270 389 66 59c122,109 290,223 477,303 126,53 261,92 399,105l0 904c-411,-5 -1108,-40 -1616,-150 -395,-86 -684,-226 -684,-449 0,-327 0,-654 345,-883z"/>
</svg>