<?xml version="1.0" encoding="UTF-8"?>
<!DOCTYPE svg PUBLIC "-//W3C//DTD SVG 1.1//EN" "http://www.w3.org/Graphics/SVG/1.1/DTD/svg11.dtd">
<svg xmlns="http://www.w3.org/2000/svg" xml:space="preserve" width="580px" height="580px" shape-rendering="geometricPrecision" text-rendering="geometricPrecision" image-rendering="optimizeQuality" fill-rule="nonzero" clip-rule="nonzero" viewBox="0 0 5800 5800" xmlns:xlink="http://www.w3.org/1999/xlink">
	<title>motorcycle_helmet icon</title>
	<desc>motorcycle_helmet icon from the IconExperience.com I-Collection. Copyright by INCORS GmbH (www.incors.com).</desc>
	<path id="curve0"  d="M2900 300c745,0 1270,213 1611,603 338,388 489,945 489,1640 0,740 -258,1376 -601,1867 -482,688 -1142,1090 -1499,1090 -357,0 -1017,-402 -1499,-1090 -343,-491 -601,-1127 -601,-1867 0,-695 151,-1252 489,-1640 341,-390 866,-603 1611,-603zm531 3738c-174,22 -353,33 -531,33 -178,0 -357,-11 -531,-34 28,375 46,744 54,1087 88,54 173,96 251,126 87,33 164,50 226,50 62,0 139,-17 226,-50 78,-30 163,-72 251,-126 8,-343 26,-711 54,-1086zm-1277 -1804c239,38 492,57 746,57 254,0 507,-19 746,-57 105,-600 241,-1122 409,-1460 -341,-212 -760,-274 -1155,-274 -395,0 -814,62 -1155,274 168,338 304,860 409,1460zm1780 1503c299,-81 557,-194 736,-327 41,-134 73,-272 95,-414 23,-144 35,-295 35,-453 0,-163 -9,-326 -29,-487 -447,290 -1161,435 -1871,435 -710,0 -1424,-145 -1871,-435 -20,161 -29,324 -29,487 0,141 10,276 28,406 18,129 44,253 77,374 180,169 433,300 725,392 326,104 699,156 1070,156 358,0 718,-49 1034,-134z"/>
</svg>