<?xml version="1.0" encoding="UTF-8"?>
<!DOCTYPE svg PUBLIC "-//W3C//DTD SVG 1.1//EN" "http://www.w3.org/Graphics/SVG/1.1/DTD/svg11.dtd">
<svg xmlns="http://www.w3.org/2000/svg" xml:space="preserve" width="580px" height="580px" shape-rendering="geometricPrecision" text-rendering="geometricPrecision" image-rendering="optimizeQuality" fill-rule="nonzero" clip-rule="nonzero" viewBox="0 0 5800 5800" xmlns:xlink="http://www.w3.org/1999/xlink">
	<title>motorbike icon</title>
	<desc>motorbike icon from the IconExperience.com I-Collection. Copyright by INCORS GmbH (www.incors.com).</desc>
		<path id="curve30"  d="M2056 3698l-511 -511 -876 -292c-173,-58 -291,-218 -342,-372 -20,-61 -31,-121 -31,-175 0,-51 13,-126 47,-166 36,-52 87,-82 157,-82 277,0 555,30 803,107 206,63 391,158 537,293l409 0c112,-146 272,-245 499,-309 218,-60 497,-87 861,-91 22,70 32,142 32,213 0,90 -17,173 -49,241 -38,84 -95,146 -192,146 -645,0 -1098,426 -1300,886 -16,37 -31,74 -44,112z"/>
	<path id="curve29"  d="M3400 2900c74,0 140,-19 195,-52 76,-46 137,-120 179,-210 44,-95 67,-207 67,-325 0,-155 -40,-318 -127,-462 -40,-68 16,-156 86,-151 1069,0 1247,278 1439,577 23,35 61,80 61,123l0 500c0,28 -12,54 -30,72l-170 169c-95,-27 -196,-41 -300,-41 -607,0 -1100,493 -1100,1100 0,180 43,350 120,500l-1120 0c-257,0 -415,-135 -484,-335 -34,-100 -44,-215 -31,-337 12,-118 45,-242 98,-362 175,-398 564,-766 1117,-766z"/>
	<path id="curve28"  d="M1000 3300c497,0 900,403 900,900 0,497 -403,900 -900,900 -497,0 -900,-403 -900,-900 0,-497 403,-900 900,-900zm3800 0c497,0 900,403 900,900 0,497 -403,900 -900,900 -497,0 -900,-403 -900,-900 0,-497 403,-900 900,-900z"/>
</svg>