<?xml version="1.0" encoding="UTF-8"?>
<!DOCTYPE svg PUBLIC "-//W3C//DTD SVG 1.1//EN" "http://www.w3.org/Graphics/SVG/1.1/DTD/svg11.dtd">
<svg xmlns="http://www.w3.org/2000/svg" xml:space="preserve" width="580px" height="580px" shape-rendering="geometricPrecision" text-rendering="geometricPrecision" image-rendering="optimizeQuality" fill-rule="nonzero" clip-rule="nonzero" viewBox="0 0 5800 5800" xmlns:xlink="http://www.w3.org/1999/xlink">
	<title>motorcyclist icon</title>
	<desc>motorcyclist icon from the IconExperience.com I-Collection. Copyright by INCORS GmbH (www.incors.com).</desc>
		<path id="curve28"  d="M4953 4015c347,231 347,558 347,885 0,223 -289,363 -684,449 -508,110 -1205,145 -1616,150l0 -1099 -100 0c-143,0 -288,-37 -421,-94 -134,-57 -256,-133 -355,-211l163 -236c231,156 454,241 613,241 254,0 673,-218 1026,-600 9,5 18,10 27,15 144,90 308,162 470,232 183,80 365,159 530,268zm-4108 2c161,-107 340,-185 522,-264 161,-70 325,-141 477,-236 9,-6 20,-12 30,-17 82,89 167,169 254,239l-270 389c172,154 327,270 543,362 126,53 261,92 399,105l0 904c-411,-5 -1108,-40 -1616,-150 -395,-86 -684,-226 -684,-449 0,-327 0,-654 345,-883zm2394 -1136c-225,25 -453,26 -678,-1 17,245 29,485 35,710 82,48 208,110 304,110 96,0 222,-62 304,-110 6,-225 18,-465 35,-709zm-1837 -1185c14,-445 123,-806 348,-1064 220,-251 545,-400 994,-427 104,-7 208,-7 311,0 380,25 738,133 995,427 287,329 361,809 349,1233 -6,210 -41,415 -105,615 -77,241 -190,457 -320,644 -181,258 -398,460 -601,593 -83,84 -347,183 -473,183 -124,0 -393,-101 -474,-184 -203,-133 -419,-334 -600,-592 -296,-424 -441,-911 -424,-1428zm1001 -138c160,24 328,36 497,36 169,0 337,-12 497,-36 71,-400 161,-749 273,-984 -230,-135 -508,-174 -770,-174 -262,0 -540,39 -770,174 112,235 202,584 273,984zm1710 831c87,-290 105,-580 72,-880 -319,190 -804,285 -1285,285 -481,0 -966,-95 -1285,-285 -30,277 -18,551 55,821 300,276 836,370 1230,370 372,0 906,-88 1213,-311z"/>
</svg>