<?xml version="1.0" encoding="UTF-8"?>
<!DOCTYPE svg PUBLIC "-//W3C//DTD SVG 1.1//EN" "http://www.w3.org/Graphics/SVG/1.1/DTD/svg11.dtd">
<svg xmlns="http://www.w3.org/2000/svg" xml:space="preserve" width="580px" height="580px" shape-rendering="geometricPrecision" text-rendering="geometricPrecision" image-rendering="optimizeQuality" fill-rule="nonzero" clip-rule="nonzero" viewBox="0 0 5800 5800" xmlns:xlink="http://www.w3.org/1999/xlink">
	<title>motorbike icon</title>
	<desc>motorbike icon from the IconExperience.com I-Collection. Copyright by INCORS GmbH (www.incors.com).</desc>
		<path id="curve28"  d="M4800 3300c497,0 900,403 900,900 0,497 -403,900 -900,900 -497,0 -900,-403 -900,-900 0,-497 403,-900 900,-900zm0 200c-387,0 -700,313 -700,700 0,387 313,700 700,700 387,0 700,-313 700,-700 0,-387 -313,-700 -700,-700zm-1400 -600c310,0 441,-321 441,-587 0,-155 -40,-318 -127,-462 -28,-47 -12,-108 35,-137 4,-2 51,-14 51,-14 1069,0 1247,278 1439,577 16,25 33,52 44,68 11,17 17,36 17,55l0 500c0,28 -12,54 -30,72l-170 169c-78,-22 -159,-35 -243,-40l243 -242 0 -430c-11,-17 -20,-31 -29,-45 -152,-236 -293,-456 -1109,-482 53,135 79,275 79,411 0,379 -215,787 -641,787 -461,0 -787,310 -934,645 -71,163 -120,382 -61,555 41,119 137,200 295,200l1041 0c20,70 47,137 79,200l-1120 0c-257,0 -415,-135 -484,-335 -76,-222 -25,-489 67,-699 175,-398 564,-766 1117,-766zm-1344 798l-511 -511 -876 -292c-173,-58 -291,-218 -342,-372 -20,-61 -31,-121 -31,-175 1,-125 63,-248 204,-248 277,0 555,30 803,107 206,63 391,158 537,293l409 0c112,-146 272,-245 499,-309 218,-60 497,-87 861,-91 20,66 31,134 32,200 -362,3 -635,27 -839,84 -200,55 -332,142 -418,270 -18,28 -49,46 -84,46l-500 0c-26,0 -51,-10 -71,-29 -127,-127 -294,-215 -484,-274 -226,-69 -483,-97 -742,-97 -18,38 0,123 13,160 34,104 109,210 215,245l892 298c17,4 34,13 48,26l470 471c-33,64 -61,130 -85,198zm-1056 -398c497,0 900,403 900,900 0,497 -403,900 -900,900 -497,0 -900,-403 -900,-900 0,-497 403,-900 900,-900zm0 200c-387,0 -700,313 -700,700 0,387 313,700 700,700 387,0 700,-313 700,-700 0,-387 -313,-700 -700,-700z"/>
</svg>