<?xml version="1.0" encoding="UTF-8"?>
<!DOCTYPE svg PUBLIC "-//W3C//DTD SVG 1.1//EN" "http://www.w3.org/Graphics/SVG/1.1/DTD/svg11.dtd">
<svg xmlns="http://www.w3.org/2000/svg" xml:space="preserve" width="580px" height="580px" shape-rendering="geometricPrecision" text-rendering="geometricPrecision" image-rendering="optimizeQuality" fill-rule="nonzero" clip-rule="nonzero" viewBox="0 0 5800 5800" xmlns:xlink="http://www.w3.org/1999/xlink">
	<title>mouse2_right_button icon</title>
	<desc>mouse2_right_button icon from the IconExperience.com I-Collection. Copyright by INCORS GmbH (www.incors.com).</desc>
		<path id="curve28"  d="M2900 900c110,0 200,90 200,200l0 600c0,110 -90,200 -200,200 -110,0 -200,-90 -200,-200l0 -600c0,-110 90,-200 200,-200zm346 0l254 0c334,0 600,266 600,600l0 400 -200 0 0 -400c0,-224 -176,-400 -400,-400l-200 0c0,-73 -20,-141 -54,-200zm-946 -400l1200 0c552,0 1000,448 1000,1000l0 2300c0,884 -716,1600 -1600,1600 -884,0 -1600,-716 -1600,-1600l0 -2300c0,-552 448,-1000 1000,-1000zm1200 200c-400,0 -800,0 -1200,0 -442,0 -800,358 -800,800l0 600c933,0 1867,0 2800,0l0 -600c0,-442 -358,-800 -800,-800zm-2000 1600l0 1500c0,773 627,1400 1400,1400 773,0 1400,-627 1400,-1400l0 -1500 -2800 0z"/>
</svg>