<?xml version="1.0" encoding="UTF-8"?>
<!DOCTYPE svg PUBLIC "-//W3C//DTD SVG 1.1//EN" "http://www.w3.org/Graphics/SVG/1.1/DTD/svg11.dtd">
<svg xmlns="http://www.w3.org/2000/svg" xml:space="preserve" width="580px" height="580px" shape-rendering="geometricPrecision" text-rendering="geometricPrecision" image-rendering="optimizeQuality" fill-rule="nonzero" clip-rule="nonzero" viewBox="0 0 5800 5800" xmlns:xlink="http://www.w3.org/1999/xlink">
	<title>mousetrap icon</title>
	<desc>mousetrap icon from the IconExperience.com I-Collection. Copyright by INCORS GmbH (www.incors.com).</desc>
	<path id="curve0" d="M2617 4317c-39,39 -102,39 -141,0 -39,-39 -39,-102 0,-141 233,-233 615,-233 848,0 39,39 39,102 0,141 -39,39 -102,39 -141,0 -156,-155 -410,-155 -566,0zm583 -1717c0,-55 45,-100 100,-100 55,0 100,45 100,100l0 600c0,55 -45,100 -100,100 -55,0 -100,-45 -100,-100l0 -600zm-600 900l0 200 -300 0 0 1400 1200 0 0 -1400 -300 0 0 -200 500 0 0 1800 -1600 0 0 -1800 500 0zm12 -3200c-30,53 -48,111 -48,165 -8,12 -15,23 -22,35l-1242 0 0 4600 600 0 0 200 -800 0 0 -5000 1512 0zm571 0l1517 0 0 5000 -800 0 0 -200 600 0 0 -4600 -1303 0c3,-34 3,-66 3,-100 0,-35 -6,-69 -17,-100zm-1583 2623c-63,-57 -100,-137 -100,-223l0 -1500c0,-276 225,-500 500,-500l468 0c-11,66 -11,134 0,200l-468 0c-165,0 -300,135 -300,300l0 1500c0,55 45,100 100,100 0,133 0,267 0,400 0,55 -45,100 -100,100 -55,0 -100,-45 -100,-100l0 -277zm1526 -2223l674 0c275,0 500,225 500,500l0 1500c0,82 -34,157 -88,212 -2,1 -10,10 -12,12l0 276c0,55 -45,100 -100,100 -55,0 -100,-45 -100,-100 0,-134 0,-266 0,-400 55,0 100,-45 100,-100l0 -1500c0,-165 -135,-300 -300,-300l-674 0c-36,-63 -36,-137 0,-200zm-326 -400c0,-55 45,-100 100,-100 55,0 100,45 100,100l0 139c0,97 -43,159 -88,223 -31,45 -53,81 -53,138 0,57 23,95 53,138 45,64 88,126 88,223l0 2645c-66,-8 -134,-8 -200,0l0 -2645c0,-36 -25,-71 -51,-109 -56,-81 -90,-150 -90,-252 0,-77 23,-154 69,-222 25,-38 72,-92 72,-139l0 -139zm200 4127l0 173c0,55 -45,100 -100,100 -55,0 -100,-45 -100,-100l0 -173c61,-36 139,-36 200,0zm-600 -1827c0,-55 45,-100 100,-100 55,0 100,45 100,100l0 600c0,55 -45,100 -100,100 -55,0 -100,-45 -100,-100l0 -600zm-400 0c0,-55 45,-100 100,-100 55,0 100,45 100,100l0 600c0,55 -45,100 -100,100 -55,0 -100,-45 -100,-100l0 -600zm1600 0c0,-55 45,-100 100,-100 55,0 100,45 100,100l0 600c0,55 -45,100 -100,100 -55,0 -100,-45 -100,-100l0 -600z"/>
</svg>