<?xml version="1.0" encoding="UTF-8"?>
<!DOCTYPE svg PUBLIC "-//W3C//DTD SVG 1.1//EN" "http://www.w3.org/Graphics/SVG/1.1/DTD/svg11.dtd">
<svg xmlns="http://www.w3.org/2000/svg" xml:space="preserve" width="580px" height="580px" shape-rendering="geometricPrecision" text-rendering="geometricPrecision" image-rendering="optimizeQuality" fill-rule="nonzero" clip-rule="nonzero" viewBox="0 0 5800 5800" xmlns:xlink="http://www.w3.org/1999/xlink">
	<title>mouse_right_button icon</title>
	<desc>mouse_right_button icon from the IconExperience.com I-Collection. Copyright by INCORS GmbH (www.incors.com).</desc>
		<path id="curve28"  d="M2300 500l500 0 0 1600 -1500 0 0 -600c0,-552 448,-1000 1000,-1000zm700 0l500 0c552,0 1000,448 1000,1000l0 600 -1500 0 0 -1600zm1500 1800l0 1500c0,884 -716,1600 -1600,1600 -884,0 -1600,-716 -1600,-1600l0 -1500 3200 0zm-1300 -1400l0 200 300 0c224,0 400,176 400,400l0 400 200 0 0 -400c0,-334 -266,-600 -600,-600l-300 0z"/>
</svg>