<?xml version="1.0" encoding="UTF-8"?>
<!DOCTYPE svg PUBLIC "-//W3C//DTD SVG 1.1//EN" "http://www.w3.org/Graphics/SVG/1.1/DTD/svg11.dtd">
<svg xmlns="http://www.w3.org/2000/svg" xml:space="preserve" width="580px" height="580px" shape-rendering="geometricPrecision" text-rendering="geometricPrecision" image-rendering="optimizeQuality" fill-rule="nonzero" clip-rule="nonzero" viewBox="0 0 5800 5800" xmlns:xlink="http://www.w3.org/1999/xlink">
	<title>mouse2_left_button icon</title>
	<desc>mouse2_left_button icon from the IconExperience.com I-Collection. Copyright by INCORS GmbH (www.incors.com).</desc>
		<path id="curve28"  d="M2300 500l1200 0c552,0 1000,448 1000,1000l0 2300c0,884 -716,1600 -1600,1600 -884,0 -1600,-716 -1600,-1600l0 -2300c0,-552 448,-1000 1000,-1000zm600 400c-110,0 -200,90 -200,200l0 600c0,110 90,200 200,200 110,0 200,-90 200,-200l0 -600c0,-110 -90,-200 -200,-200zm-1400 1200l0 200 2800 0 0 -200c-933,0 -1867,0 -2800,0zm1000 -1000c0,-70 19,-139 54,-200l-254 0c-334,0 -600,266 -600,600l0 400 200 0 0 -400c0,-224 176,-400 400,-400l200 0z"/>
</svg>