<?xml version="1.0" encoding="UTF-8"?>
<!DOCTYPE svg PUBLIC "-//W3C//DTD SVG 1.1//EN" "http://www.w3.org/Graphics/SVG/1.1/DTD/svg11.dtd">
<svg xmlns="http://www.w3.org/2000/svg" xml:space="preserve" width="580px" height="580px" shape-rendering="geometricPrecision" text-rendering="geometricPrecision" image-rendering="optimizeQuality" fill-rule="nonzero" clip-rule="nonzero" viewBox="0 0 5800 5800" xmlns:xlink="http://www.w3.org/1999/xlink">
	<title>mousetrap icon</title>
	<desc>mousetrap icon from the IconExperience.com I-Collection. Copyright by INCORS GmbH (www.incors.com).</desc>
	<path id="curve0"  d="M2800 300l0 139c0,36 -25,71 -51,109 -120,171 -120,333 0,504 26,38 51,73 51,109l0 2645c66,-8 134,-8 200,0l0 -2645c0,-97 -43,-159 -88,-223 -71,-102 -70,-174 0,-276 45,-64 88,-126 88,-223l0 -139 1700 0 0 5000 -1000 0 0 -1800 -500 0 0 200 300 0 0 1600 -1200 0 0 -1600 300 0 0 -200 -500 0 0 1800 -1000 0 0 -5000 1700 0zm-183 4017c156,-155 410,-155 566,0 39,39 102,39 141,0 39,-39 39,-102 0,-141 -233,-233 -615,-233 -848,0 -39,39 -39,102 0,141 39,39 102,39 141,0zm383 110c-61,-36 -139,-36 -200,0l0 173c0,55 45,100 100,100 55,0 100,-45 100,-100l0 -173zm200 -1827l0 600c0,55 45,100 100,100 55,0 100,-45 100,-100l0 -600c0,-55 -45,-100 -100,-100 -55,0 -100,45 -100,100zm400 0l0 600c0,55 45,100 100,100 55,0 100,-45 100,-100l0 -600c0,-55 -45,-100 -100,-100 -55,0 -100,45 -100,100zm-1600 0l0 600c0,55 45,100 100,100 55,0 100,-45 100,-100l0 -600c0,-55 -45,-100 -100,-100 -55,0 -100,45 -100,100zm400 0l0 600c0,55 45,100 100,100 55,0 100,-45 100,-100l0 -600c0,-55 -45,-100 -100,-100 -55,0 -100,45 -100,100zm726 -1900c-36,63 -36,137 0,200l674 0c165,0 300,135 300,300l0 1500c0,55 -45,100 -100,100 0,134 0,266 0,400 0,55 45,100 100,100 55,0 100,-45 100,-100l0 -276c63,-57 100,-139 100,-224l0 -1500c0,-275 -225,-500 -500,-500l-674 0zm-658 200c-11,-66 -11,-134 0,-200l-468 0c-275,0 -500,224 -500,500l0 1500c0,86 37,166 100,223l0 277c0,55 45,100 100,100 55,0 100,-45 100,-100 0,-133 0,-267 0,-400 -55,0 -100,-45 -100,-100l0 -1500c0,-165 135,-300 300,-300l468 0z"/>
</svg>