<?xml version="1.0" encoding="UTF-8"?>
<!DOCTYPE svg PUBLIC "-//W3C//DTD SVG 1.1//EN" "http://www.w3.org/Graphics/SVG/1.1/DTD/svg11.dtd">
<svg xmlns="http://www.w3.org/2000/svg" xml:space="preserve" width="580px" height="580px" shape-rendering="geometricPrecision" text-rendering="geometricPrecision" image-rendering="optimizeQuality" fill-rule="nonzero" clip-rule="nonzero" viewBox="0 0 5800 5800" xmlns:xlink="http://www.w3.org/1999/xlink">
	<title>mouse icon</title>
	<desc>mouse icon from the IconExperience.com I-Collection. Copyright by INCORS GmbH (www.incors.com).</desc>
		<path id="curve28" d="M2300 500l1200 0c552,0 1000,448 1000,1000l0 2300c0,884 -716,1600 -1600,1600 -884,0 -1600,-716 -1600,-1600l0 -2300c0,-552 448,-1000 1000,-1000zm700 200l0 1400 1300 0 0 -600c0,-442 -358,-800 -800,-800l-500 0zm-200 1400l0 -1400 -500 0c-442,0 -800,358 -800,800l0 600 1300 0zm1500 200l-2800 0 0 1500c0,773 627,1400 1400,1400 773,0 1400,-627 1400,-1400l0 -1500z"/>
</svg>