<?xml version="1.0" encoding="UTF-8"?>
<!DOCTYPE svg PUBLIC "-//W3C//DTD SVG 1.1//EN" "http://www.w3.org/Graphics/SVG/1.1/DTD/svg11.dtd">
<svg xmlns="http://www.w3.org/2000/svg" xml:space="preserve" width="580px" height="580px" shape-rendering="geometricPrecision" text-rendering="geometricPrecision" image-rendering="optimizeQuality" fill-rule="nonzero" clip-rule="nonzero" viewBox="0 0 5800 5800" xmlns:xlink="http://www.w3.org/1999/xlink">
	<title>movie_camera icon</title>
	<desc>movie_camera icon from the IconExperience.com I-Collection. Copyright by INCORS GmbH (www.incors.com).</desc>
		<path id="curve28"  d="M5042 4781l-674 -481 -68 0 0 -1200 68 0 674 -481c126,-90 202,-116 356,-119l102 -2 0 2404 -102 -2c-154,-3 -230,-29 -356,-119zm-942 -481c0,220 -180,400 -400,400l0 100c0,165 -135,300 -300,300l-1400 0c-165,0 -300,-135 -300,-300l0 -100c-220,0 -400,-180 -400,-400l-205 0c-24,115 -126,200 -245,200l-350 0 0 -1200 350 0c119,0 221,85 245,200l205 0 0 -400c0,-76 22,-148 59,-208 -603,-71 -1059,-584 -1059,-1192 0,-663 537,-1200 1200,-1200 368,0 715,169 943,458 40,51 92,76 157,76 65,0 117,-25 157,-76 228,-289 575,-458 943,-458 663,0 1200,537 1200,1200 0,541 -362,1015 -882,1157 51,68 82,152 82,243l0 1200zm-400 -2900c-165,0 -300,135 -300,300 0,166 134,300 300,300 165,0 300,-135 300,-300 0,-165 -135,-300 -300,-300zm-2200 0c-165,0 -300,135 -300,300 0,166 134,300 300,300 165,0 300,-135 300,-300 0,-166 -134,-300 -300,-300z"/>
</svg>