<?xml version="1.0" encoding="UTF-8"?>
<!DOCTYPE svg PUBLIC "-//W3C//DTD SVG 1.1//EN" "http://www.w3.org/Graphics/SVG/1.1/DTD/svg11.dtd">
<svg xmlns="http://www.w3.org/2000/svg" xml:space="preserve" width="580px" height="580px" shape-rendering="geometricPrecision" text-rendering="geometricPrecision" image-rendering="optimizeQuality" fill-rule="nonzero" clip-rule="nonzero" viewBox="0 0 5800 5800" xmlns:xlink="http://www.w3.org/1999/xlink">
	<title>moving_truck icon</title>
	<desc>moving_truck icon from the IconExperience.com I-Collection. Copyright by INCORS GmbH (www.incors.com).</desc>
		<path id="curve29"  d="M3900 2100l1000 0c46,0 85,31 96,74l497 1290c1,4 7,36 7,36l0 900c0,55 -45,100 -100,100l-400 0c0,-442 -358,-800 -800,-800 -106,0 -207,21 -300,58l0 -1658zm-200 1776c-183,146 -300,371 -300,624l-1000 0c0,-442 -358,-800 -800,-800 -442,0 -800,358 -800,800l-400 0c-55,0 -100,-45 -100,-100l0 -3000c0,-55 45,-100 100,-100l3200 0c55,0 100,45 100,100l0 2476zm-1800 -1576l0 200 859 0 -330 329 142 142 570 -571 -570 -571 -142 142 330 329 -859 0zm200 800l0 -200 -859 0 330 -329 -142 -142 -570 571 570 571 142 -142 -330 -329 859 0z"/>
	<path id="curve28"  d="M4200 3900c331,0 600,269 600,600 0,331 -269,600 -600,600 -331,0 -600,-269 -600,-600 0,-331 269,-600 600,-600zm-2600 0c331,0 600,269 600,600 0,331 -269,600 -600,600 -331,0 -600,-269 -600,-600 0,-331 269,-600 600,-600z"/>
</svg>