<?xml version="1.0" encoding="UTF-8"?>
<!DOCTYPE svg PUBLIC "-//W3C//DTD SVG 1.1//EN" "http://www.w3.org/Graphics/SVG/1.1/DTD/svg11.dtd">
<svg xmlns="http://www.w3.org/2000/svg" xml:space="preserve" width="580px" height="580px" shape-rendering="geometricPrecision" text-rendering="geometricPrecision" image-rendering="optimizeQuality" fill-rule="nonzero" clip-rule="nonzero" viewBox="0 0 5800 5800" xmlns:xlink="http://www.w3.org/1999/xlink">
	<title>movies icon</title>
	<desc>movies icon from the IconExperience.com I-Collection. Copyright by INCORS GmbH (www.incors.com).</desc>
		<path id="curve29"  d="M3400 300c580,0 1105,235 1485,615 380,380 615,905 615,1485 0,580 -235,1105 -615,1485 -94,94 -196,178 -306,253 105,-311 142,-643 109,-970 160,-268 232,-578 207,-889 -5,-62 -37,-116 -88,-151 -52,-34 -114,-43 -173,-24l-275 90c-37,-59 -76,-117 -118,-173l331 -107c59,-19 104,-63 126,-121 21,-58 15,-121 -17,-173 -209,-342 -545,-588 -935,-680 -60,-14 -121,0 -170,38 -48,39 -76,95 -76,157l0 245c-65,-36 -132,-68 -200,-97l0 -148c0,-62 -28,-118 -76,-157 -49,-38 -110,-52 -170,-38 -151,36 -293,94 -422,172 -327,-33 -659,4 -970,109 75,-110 159,-212 253,-306 380,-380 905,-615 1485,-615z"/>
	<path id="curve28"  d="M2400 1300c1160,0 2100,940 2100,2100 0,1160 -940,2100 -2100,2100 -1160,0 -2100,-940 -2100,-2100 0,-1160 940,-2100 2100,-2100zm346 640c-60,-14 -121,0 -170,38 -48,39 -76,95 -76,157l0 668c228,68 301,121 436,317l636 -206c59,-19 104,-63 126,-121 21,-58 15,-121 -17,-173 -209,-342 -545,-588 -935,-680zm1149 1339c-5,-62 -37,-116 -88,-151 -52,-34 -114,-43 -173,-24l-635 207c4,245 -24,325 -167,513l392 540c37,50 92,80 154,82 62,3 119,-22 160,-69 261,-304 389,-698 357,-1098zm-917 1505c57,-23 99,-71 115,-130 17,-59 6,-122 -30,-171l-393 -542c-224,79 -316,79 -540,0l-393 542c-36,49 -47,112 -30,171 16,59 58,107 115,130 367,154 789,154 1156,0zm-1716 -407c41,47 98,72 160,69 62,-2 117,-32 154,-82l392 -540c-146,-192 -171,-273 -167,-513l-635 -207c-59,-19 -121,-10 -173,24 -51,35 -83,89 -88,151 -32,400 96,794 357,1098zm-143 -1757c-32,52 -38,115 -17,173 22,58 67,102 126,121l636 206c135,-196 208,-249 436,-317l0 -668c0,-62 -28,-118 -76,-157 -49,-38 -110,-52 -170,-38 -389,92 -726,338 -935,680z"/>
</svg>