<?xml version="1.0" encoding="UTF-8"?>
<!DOCTYPE svg PUBLIC "-//W3C//DTD SVG 1.1//EN" "http://www.w3.org/Graphics/SVG/1.1/DTD/svg11.dtd">
<svg xmlns="http://www.w3.org/2000/svg" xml:space="preserve" width="580px" height="580px" shape-rendering="geometricPrecision" text-rendering="geometricPrecision" image-rendering="optimizeQuality" fill-rule="nonzero" clip-rule="nonzero" viewBox="0 0 5800 5800" xmlns:xlink="http://www.w3.org/1999/xlink">
	<title>movie icon</title>
	<desc>movie icon from the IconExperience.com I-Collection. Copyright by INCORS GmbH (www.incors.com).</desc>
		<path id="curve29"  d="M4681 3300l819 0c0,600 0,1200 0,1800l-2161 0c561,-251 1003,-721 1218,-1300l143 0 0 -200 -79 0c26,-98 46,-198 60,-300zm-581 1300l0 200 200 0 0 -200 -200 0zm400 0l0 200 200 0 0 -200 -200 0zm400 0l0 200 200 0 0 -200 -200 0zm0 -1000l0 200 200 0 0 -200 -200 0z"/>
	<path id="curve28"  d="M2400 900c580,0 1105,235 1485,615 380,380 615,905 615,1485 0,580 -235,1105 -615,1485 -380,380 -905,615 -1485,615 -580,0 -1105,-235 -1485,-615 -380,-380 -615,-905 -615,-1485 0,-580 235,-1105 615,-1485 380,-380 905,-615 1485,-615zm346 640c-60,-14 -121,0 -170,38 -48,39 -76,95 -76,157l0 668c229,69 301,121 436,317l636 -206c59,-19 104,-63 126,-121 21,-58 15,-121 -17,-173 -209,-342 -545,-588 -935,-680zm1061 1188c-52,-34 -114,-43 -173,-24l-635 207c4,220 -14,312 -167,513l392 540c37,50 92,80 154,82 62,3 119,-22 160,-69 248,-289 376,-657 360,-1038 -3,-89 -11,-157 -91,-211zm-829 1656c57,-23 99,-71 115,-130 17,-59 6,-122 -30,-171l-393 -542c-227,80 -313,80 -540,0l-393 542c-36,49 -47,112 -30,171 16,59 58,107 115,130 368,154 788,154 1156,0zm-1716 -407c41,47 98,72 160,69 62,-2 117,-32 154,-82l392 -540c-153,-201 -171,-293 -167,-513l-635 -207c-59,-19 -121,-10 -173,24 -51,35 -83,89 -88,151 -32,400 96,794 357,1098zm-143 -1757c-32,52 -38,115 -17,173 22,58 67,102 126,121l636 206c135,-196 207,-248 436,-317l0 -668c0,-62 -28,-118 -76,-157 -49,-38 -110,-52 -170,-38 -389,92 -726,338 -935,680z"/>
</svg>