<?xml version="1.0" encoding="UTF-8"?>
<!DOCTYPE svg PUBLIC "-//W3C//DTD SVG 1.1//EN" "http://www.w3.org/Graphics/SVG/1.1/DTD/svg11.dtd">
<svg xmlns="http://www.w3.org/2000/svg" xml:space="preserve" width="580px" height="580px" shape-rendering="geometricPrecision" text-rendering="geometricPrecision" image-rendering="optimizeQuality" fill-rule="nonzero" clip-rule="nonzero" viewBox="0 0 5800 5800" xmlns:xlink="http://www.w3.org/1999/xlink">
	<title>movie_camera icon</title>
	<desc>movie_camera icon from the IconExperience.com I-Collection. Copyright by INCORS GmbH (www.incors.com).</desc>
		<path id="curve28"  d="M3700 2700c552,0 1000,-448 1000,-1000 0,-552 -448,-1000 -1000,-1000 -308,0 -595,140 -786,381 -77,99 -189,153 -314,153 -125,0 -237,-54 -314,-153 -191,-241 -478,-381 -786,-381 -552,0 -1000,448 -1000,1000 0,552 448,1000 1000,1000 733,0 1467,0 2200,0zm-2000 200c-110,0 -200,90 -200,200l0 600 -600 0 0 -150c0,-28 -22,-50 -50,-50l-150 0 0 800 150 0c28,0 50,-22 50,-50l0 -150 600 0 0 200c0,110 90,200 200,200l200 0 0 300c0,55 45,100 100,100l1400 0c55,0 100,-45 100,-100l0 -300 200 0c110,0 200,-90 200,-200l0 -200 400 0 0 -800 -400 0 0 -200c0,-110 -90,-200 -200,-200l-2000 0zm2800 1249l658 470c44,31 88,61 142,73l0 -1984c-54,12 -98,42 -142,73l-658 470 0 898zm542 632l-674 -481 -268 0c0,220 -180,400 -400,400l0 100c0,165 -135,300 -300,300l-1400 0c-165,0 -300,-135 -300,-300l0 -100c-220,0 -400,-180 -400,-400l-205 0c-24,115 -126,200 -245,200l-350 0 0 -1200 350 0c119,0 221,85 245,200l205 0 0 -400c0,-76 22,-148 59,-208 -603,-71 -1059,-584 -1059,-1192 0,-663 537,-1200 1200,-1200 368,0 715,169 943,458 40,51 92,76 157,76 65,0 117,-25 157,-76 228,-289 575,-458 943,-458 663,0 1200,537 1200,1200 0,541 -362,1015 -882,1157 51,68 82,152 82,243l268 0 674 -481c126,-90 202,-116 356,-119l102 -2 0 2404 -102 -2c-154,-3 -230,-29 -356,-119zm-1342 -3381c165,0 300,135 300,300 0,165 -135,300 -300,300 -166,0 -300,-134 -300,-300 0,-165 135,-300 300,-300zm-2200 0c166,0 300,134 300,300 0,165 -135,300 -300,300 -166,0 -300,-134 -300,-300 0,-165 135,-300 300,-300z"/>
</svg>