<?xml version="1.0" encoding="UTF-8"?>
<!DOCTYPE svg PUBLIC "-//W3C//DTD SVG 1.1//EN" "http://www.w3.org/Graphics/SVG/1.1/DTD/svg11.dtd">
<svg xmlns="http://www.w3.org/2000/svg" xml:space="preserve" width="580px" height="580px" shape-rendering="geometricPrecision" text-rendering="geometricPrecision" image-rendering="optimizeQuality" fill-rule="nonzero" clip-rule="nonzero" viewBox="0 0 5800 5800" xmlns:xlink="http://www.w3.org/1999/xlink">
	<title>movies icon</title>
	<desc>movies icon from the IconExperience.com I-Collection. Copyright by INCORS GmbH (www.incors.com).</desc>
		<path id="curve29"  d="M2632 1112c131,-78 273,-136 422,-171 91,-22 185,22 226,107 13,27 20,56 20,87l0 148c-65,-28 -132,-53 -200,-74l0 -74c-43,10 -85,22 -127,37 -111,-28 -224,-49 -341,-60zm1114 -172c196,47 377,131 535,246 160,116 296,264 400,434 49,80 36,183 -32,248 -22,21 -47,36 -77,46l-331 107c-43,-57 -88,-112 -136,-165l406 -132c-90,-147 -208,-275 -348,-376 -136,-100 -293,-173 -463,-213l0 368c-64,-45 -131,-86 -200,-123l0 -245c0,-31 7,-60 20,-87 40,-84 135,-129 226,-108zm1149 1338c17,200 -8,399 -68,584 -35,107 -81,209 -139,306 -11,-117 -32,-231 -60,-341 3,-9 6,-17 9,-26 52,-161 73,-333 59,-506l-238 77c-31,-61 -64,-121 -100,-178l276 -90c29,-9 59,-12 89,-8 92,13 164,89 172,182zm-1495 -1978c1160,0 2100,940 2100,2100 0,699 -345,1347 -921,1738 35,-103 62,-209 82,-317 407,-362 639,-876 639,-1421 0,-1049 -851,-1900 -1900,-1900 -545,0 -1059,232 -1421,639 -108,20 -214,47 -317,82 391,-576 1039,-921 1738,-921z"/>
	<path id="curve28"  d="M1119 2620c104,-172 241,-318 398,-433 161,-116 343,-200 537,-246 91,-22 185,22 226,107 13,27 20,56 20,87l0 668c-96,29 -169,50 -253,112 -84,61 -127,123 -183,206l-636 -207c-30,-10 -55,-25 -77,-46 -67,-64 -81,-168 -32,-248zm516 -271c-137,99 -255,226 -345,374l497 163c42,-51 90,-95 142,-133 53,-38 111,-70 171,-94l0 -524c-168,40 -326,113 -465,214zm1111 -409c196,47 377,131 535,246 160,116 296,264 400,434 49,80 36,183 -32,248 -22,21 -47,36 -77,46l-636 206c-57,-82 -99,-144 -183,-206 -85,-61 -157,-82 -253,-111l0 -668c0,-31 7,-60 20,-87 40,-84 135,-129 226,-108zm417 408c-136,-100 -293,-173 -463,-213l0 523c61,25 118,57 170,95 52,38 100,83 142,133l499 -162c-90,-147 -208,-275 -348,-376zm732 930c17,200 -8,399 -68,584 -61,189 -160,364 -289,515 -61,71 -163,91 -246,47 -26,-15 -49,-34 -67,-59l-393 -541c61,-80 107,-140 139,-239 32,-99 30,-174 27,-274l636 -207c29,-9 59,-12 89,-8 92,13 164,89 172,182zm-258 523c52,-161 73,-333 59,-506l-498 161c-5,65 -17,129 -37,191 -20,62 -48,121 -83,177l308 423c113,-131 198,-283 251,-446zm-659 983c-185,78 -382,116 -577,116 -198,0 -395,-39 -579,-116 -86,-36 -136,-127 -120,-219 5,-30 17,-58 35,-83l393 -540c95,33 166,58 270,58 104,0 175,-25 270,-59l393 541c18,25 30,53 35,82 16,92 -34,184 -120,220zm-577 -84c169,0 339,-33 500,-100l-308 -424c-63,16 -128,24 -192,24 -66,0 -131,-8 -194,-24l-308 424c159,66 330,100 502,100zm-1139 -322c-131,-153 -228,-328 -288,-513 -61,-189 -85,-388 -69,-587 8,-93 79,-169 172,-182 29,-4 59,-1 89,8l636 207c-3,100 -5,175 27,275 32,99 79,158 139,238l-393 541c-18,25 -40,44 -67,59 -82,43 -185,24 -246,-46zm-98 -575c52,161 136,312 249,444l308 -423c-34,-56 -62,-115 -82,-176 -20,-62 -32,-127 -37,-192l-498 -162c-14,172 7,345 60,509zm1236 -2503c1160,0 2100,940 2100,2100 0,1160 -940,2100 -2100,2100 -1160,0 -2100,-940 -2100,-2100 0,-1160 940,-2100 2100,-2100zm0 200c-1049,0 -1900,851 -1900,1900 0,1049 851,1900 1900,1900 1049,0 1900,-851 1900,-1900 0,-1049 -851,-1900 -1900,-1900z"/>
</svg>