<?xml version="1.0" encoding="UTF-8"?><svg id="MSFormLetter_60x60px" xmlns="http://www.w3.org/2000/svg" viewBox="0 0 915.08 920.1"><defs><style>.cls-1{fill:none;stroke:#000000;stroke-linejoin:round;stroke-width:48px;}.cls-2{fill:#000000;stroke-width:0px;}</style></defs><polygon class="cls-1" points="28.27 117.67 28.27 792.32 513.27 882.07 513.27 27.92 28.27 117.67"/><polyline class="cls-1" points="537.07 120.77 876.27 120.77 876.27 779.95 537.07 779.95"/><line class="cls-1" x1="525.77" y1="259" x2="763.27" y2="259"/><line class="cls-1" x1="525.77" y1="389.66" x2="763.27" y2="389.66"/><line class="cls-1" x1="525.77" y1="520.33" x2="763.27" y2="520.33"/><line class="cls-1" x1="525.77" y1="651" x2="763.27" y2="651"/><path class="cls-2" d="m172.17,596.68l-62.02-283.37h49.24l24.06,128.65c6.39,34.48,12.4,70.63,16.54,98.8h.75c4.14-29.85,11.28-63.49,18.42-99.22l27.44-128.23h48.49l25.18,130.33c6.01,33.63,11.65,65.17,15.41,95.86h.75c4.51-31.11,10.52-63.49,17.29-98.38l26.31-127.81h46.99l-68.41,283.37h-49.24l-26.31-133.28c-6.39-32.37-10.9-59.28-14.28-89.97h-.75c-4.14,30.27-9.02,57.6-16.54,89.97l-29.32,133.28h-49.99Z"/></svg>