<?xml version="1.0" encoding="UTF-8"?>
<!DOCTYPE svg PUBLIC "-//W3C//DTD SVG 1.1//EN" "http://www.w3.org/Graphics/SVG/1.1/DTD/svg11.dtd">
<svg xmlns="http://www.w3.org/2000/svg" xml:space="preserve" width="580px" height="580px" shape-rendering="geometricPrecision" text-rendering="geometricPrecision" image-rendering="optimizeQuality" fill-rule="nonzero" clip-rule="nonzero" viewBox="0 0 5800 5800" xmlns:xlink="http://www.w3.org/1999/xlink">
	<title>mug_tea icon</title>
	<desc>mug_tea icon from the IconExperience.com I-Collection. Copyright by INCORS GmbH (www.incors.com).</desc>
		<path id="curve29"  d="M4800 4300l-500 0 0 400c0,220 -180,400 -400,400 0,110 -90,200 -200,200l-2600 0c-110,0 -200,-90 -200,-200 -220,0 -400,-180 -400,-400l0 -3900c0,-165 135,-300 300,-300l1900 0 0 200 -1900 0c-55,0 -100,45 -100,100l0 3900c0,110 90,200 200,200l200 0 0 200c0,0 0,0 0,0l0 0 0 0c0,0 0,0 0,0l2600 0c0,0 0,0 0,0l0 0 0 0c0,0 0,0 0,0l0 -200 200 0c110,0 200,-90 200,-200l0 -600 700 0c275,0 500,-225 500,-500l0 -1600c0,-275 -225,-500 -500,-500l-700 0 0 -700c0,-55 -45,-100 -100,-100l-700 0 0 -200 700 0c165,0 300,135 300,300l0 500 500 0c386,0 700,314 700,700l0 1600c0,386 -314,700 -700,700zm-200 -2400c165,0 300,135 300,300l0 1200c0,165 -135,300 -300,300l-500 0 0 -1800 500 0zm-300 200l0 1400 300 0c55,0 100,-45 100,-100l0 -1200c0,-55 -45,-100 -100,-100l-300 0zm-600 3000l0 0 0 0 0 0 0 0zm-2600 0l0 0 0 0 0 0 0 0z"/>
	<path id="curve28"  d="M2330 2728l570 -570 0 -1658c0,-55 45,-100 100,-100 55,0 100,45 100,100l0 1658 571 571c21,22 31,51 29,80l0 991c0,55 -45,100 -100,100l-1200 0c-55,0 -100,-45 -100,-100l0 -1000c0,-28 12,-54 30,-72zm670 -387l-500 500 0 859 1000 0 0 -858 -500 -501z"/>
</svg>