<?xml version="1.0" encoding="UTF-8"?>
<!DOCTYPE svg PUBLIC "-//W3C//DTD SVG 1.1//EN" "http://www.w3.org/Graphics/SVG/1.1/DTD/svg11.dtd">
<svg xmlns="http://www.w3.org/2000/svg" xml:space="preserve" width="580px" height="580px" shape-rendering="geometricPrecision" text-rendering="geometricPrecision" image-rendering="optimizeQuality" fill-rule="nonzero" clip-rule="nonzero" viewBox="0 0 5800 5800" xmlns:xlink="http://www.w3.org/1999/xlink">
	<title>mug icon</title>
	<desc>mug icon from the IconExperience.com I-Collection. Copyright by INCORS GmbH (www.incors.com).</desc>
		<path id="curve28"  d="M4800 4300l-500 0 0 400c36,0 -61,400 -400,400 0,55 -22,105 -59,141 -36,37 -86,59 -141,59l-2600 0c-55,0 -105,-22 -141,-59 -37,-36 -59,-86 -59,-141 -220,0 -400,-180 -400,-400l0 -3900c0,-165 135,-300 300,-300l1900 0 600 0 700 0c165,0 300,135 300,300l0 500 500 0c386,0 700,314 700,700l0 1600c0,386 -314,700 -700,700zm-500 -601l300 1c165,0 300,-135 300,-300l0 -1200c0,-165 -135,-300 -300,-300l-300 0 0 1799z"/>
</svg>