<?xml version="1.0" encoding="UTF-8"?>
<!DOCTYPE svg PUBLIC "-//W3C//DTD SVG 1.1//EN" "http://www.w3.org/Graphics/SVG/1.1/DTD/svg11.dtd">
<svg xmlns="http://www.w3.org/2000/svg" xml:space="preserve" width="580px" height="580px" shape-rendering="geometricPrecision" text-rendering="geometricPrecision" image-rendering="optimizeQuality" fill-rule="nonzero" clip-rule="nonzero" viewBox="0 0 5800 5800" xmlns:xlink="http://www.w3.org/1999/xlink">
	<title>multimeter_analog icon</title>
	<desc>multimeter_analog icon from the IconExperience.com I-Collection. Copyright by INCORS GmbH (www.incors.com).</desc>
	<path id="curve0"  d="M4700 300l0 5200 -3600 0 0 -5200 3600 0zm-3000 593l0 1407 2400 0 0 -1407 -2400 0zm1487 537c-518,-138 -1064,117 -1287,609l0 -374c342,-414 905,-575 1413,-406l-126 171zm713 229l0 369c-66,-142 -162,-268 -280,-370l83 -190c72,57 138,121 197,191zm-688 434l-265 0 655 -890 -390 890zm382 1234l-623 624 -142 -142 622 -621c-353,-274 -863,-249 -1187,76 -352,351 -352,921 0,1272 351,352 921,352 1272,0 331,-331 351,-855 58,-1209zm-2094 -2627l0 1800 2800 0 0 -1800 -2800 0z"/>
</svg>