<?xml version="1.0" encoding="UTF-8"?>
<!DOCTYPE svg PUBLIC "-//W3C//DTD SVG 1.1//EN" "http://www.w3.org/Graphics/SVG/1.1/DTD/svg11.dtd">
<svg xmlns="http://www.w3.org/2000/svg" xml:space="preserve" width="580px" height="580px" shape-rendering="geometricPrecision" text-rendering="geometricPrecision" image-rendering="optimizeQuality" fill-rule="nonzero" clip-rule="nonzero" viewBox="0 0 5800 5800" xmlns:xlink="http://www.w3.org/1999/xlink">
	<title>multimeter icon</title>
	<desc>multimeter icon from the IconExperience.com I-Collection. Copyright by INCORS GmbH (www.incors.com).</desc>
	<path id="curve0" d="M3300 1000l600 0 0 600 -400 0 0 200 400 0 0 200 -600 0 0 -600 400 0 0 -200 -400 0 0 -200zm1400 -800l0 5400 -3600 0 0 -5400 3600 0zm-200 200l-3200 0 0 5000 3200 0 0 -5000zm-200 200l0 1800 -2800 0 0 -1800 2800 0zm-200 200l-2400 0 0 1400 2400 0 0 -1400zm100 1800c0,200 0,400 0,600 -867,0 -1733,0 -2600,0 0,-200 0,-400 0,-600 867,0 1733,0 2600,0zm-200 200l-600 0 0 200 600 0 0 -200zm-1600 0l-600 0 0 200 600 0 0 -200zm800 0l-600 0 0 200 600 0 0 -200zm650 1450c0,525 -425,950 -950,950 -525,0 -950,-425 -950,-950 0,-525 425,-950 950,-950 525,0 950,425 950,950zm-200 0c0,-161 -51,-321 -154,-455l-525 526 -142 -142 526 -525c-134,-103 -294,-154 -455,-154 -414,0 -750,336 -750,750 0,414 336,750 750,750 414,0 750,-336 750,-750zm-950 -3250l0 400 200 0 0 -400 200 0 0 1000 -200 0 0 -400 -400 0 0 -600 200 0z"/>
</svg>