<?xml version="1.0" encoding="UTF-8"?>
<!DOCTYPE svg PUBLIC "-//W3C//DTD SVG 1.1//EN" "http://www.w3.org/Graphics/SVG/1.1/DTD/svg11.dtd">
<svg xmlns="http://www.w3.org/2000/svg" xml:space="preserve" width="580px" height="580px" shape-rendering="geometricPrecision" text-rendering="geometricPrecision" image-rendering="optimizeQuality" fill-rule="nonzero" clip-rule="nonzero" viewBox="0 0 5800 5800" xmlns:xlink="http://www.w3.org/1999/xlink">
	<title>multimeter_analog icon</title>
	<desc>multimeter_analog icon from the IconExperience.com I-Collection. Copyright by INCORS GmbH (www.incors.com).</desc>
	<path id="curve0" d="M2947 2093l655 -890 -390 890 -265 0zm1153 200l0 -1400 -2400 0 0 1400c800,0 1600,0 2400,0zm-200 -265c-66,-142 -162,-268 -280,-370l83 -190c72,57 138,121 197,191l0 369zm-2000 -363c247,-299 613,-472 1003,-472 143,0 281,23 410,66l-126 171c-91,-24 -186,-37 -284,-37 -434,0 -825,253 -1003,646l0 -374zm2800 -1365l0 5200 -3600 0 0 -5200 3600 0zm-200 200l-3200 0 0 4800 3200 0 0 -4800zm-3000 1993l0 -1800 2800 0 0 1800c-933,0 -1867,0 -2800,0zm2400 1407c0,552 -448,1000 -1000,1000 -552,0 -1000,-448 -1000,-1000 0,-552 448,-1000 1000,-1000 552,0 1000,448 1000,1000zm-200 0c0,-178 -59,-356 -177,-502l-552 553 -142 -142 550 -550c-141,-106 -310,-159 -479,-159 -442,0 -800,358 -800,800 0,442 358,800 800,800 442,0 800,-358 800,-800z"/>
</svg>