<?xml version="1.0" encoding="UTF-8"?>
<!DOCTYPE svg PUBLIC "-//W3C//DTD SVG 1.1//EN" "http://www.w3.org/Graphics/SVG/1.1/DTD/svg11.dtd">
<svg xmlns="http://www.w3.org/2000/svg" xml:space="preserve" width="580px" height="580px" shape-rendering="geometricPrecision" text-rendering="geometricPrecision" image-rendering="optimizeQuality" fill-rule="nonzero" clip-rule="nonzero" viewBox="0 0 5800 5800" xmlns:xlink="http://www.w3.org/1999/xlink">
	<title>mushroom icon</title>
	<desc>mushroom icon from the IconExperience.com I-Collection. Copyright by INCORS GmbH (www.incors.com).</desc>
		<path id="curve28" d="M2900 589c1125,0 2074,847 2198,1966 5,45 1,88 -13,129 -41,128 -162,216 -296,216l-3778 0c-90,0 -171,-37 -231,-104 -61,-67 -88,-151 -78,-241 124,-1119 1073,-1966 2198,-1966zm0 4309c215,0 401,-153 400,-376l0 0 0 0 0 -1 0 0 0 -9 0 0 0 -10 199 -4 1 11 0 1 0 11 0 0 0 1 0 0c0,331 -276,577 -600,578l0 -202zm1000 -378c0,555 -453,978 -1001,978 -552,0 -999,-447 -999,-999 0,-236 55,-417 109,-595 40,-133 80,-264 91,-411l30 -393 201 0 -32 408c-13,169 -56,311 -99,454 -50,164 -100,330 -100,537 0,441 358,799 799,799 438,0 801,-333 801,-778 -1,-212 -52,-384 -102,-552 -44,-146 -87,-289 -100,-459l-31 -409 200 0 31 394c11,148 51,281 91,417 54,181 109,366 111,609zm-1000 -3731c-1024,0 -1887,769 -1999,1788 -2,17 -1,32 4,46 15,47 57,77 106,77l3778 0c17,0 32,-3 45,-9 45,-20 71,-66 65,-114 -112,-1019 -975,-1788 -1999,-1788z"/>
</svg>