<?xml version="1.0" encoding="UTF-8"?>
<!DOCTYPE svg PUBLIC "-//W3C//DTD SVG 1.1//EN" "http://www.w3.org/Graphics/SVG/1.1/DTD/svg11.dtd">
<svg xmlns="http://www.w3.org/2000/svg" xml:space="preserve" width="580px" height="580px" shape-rendering="geometricPrecision" text-rendering="geometricPrecision" image-rendering="optimizeQuality" fill-rule="nonzero" clip-rule="nonzero" viewBox="0 0 5800 5800" xmlns:xlink="http://www.w3.org/1999/xlink">
	<title>music icon</title>
	<desc>music icon from the IconExperience.com I-Collection. Copyright by INCORS GmbH (www.incors.com).</desc>
		<path id="curve28"  d="M1489 3908c49,-5 95,-8 139,-8 241,0 495,73 672,244l0 -3044c0,-50 35,-91 85,-99l2788 -597c63,-18 127,29 127,96 0,1167 0,2334 0,3502 0,504 -535,840 -989,890 -49,5 -95,8 -139,8 -388,0 -821,-207 -868,-633 -3,-24 -4,-47 -4,-69 0,-504 535,-840 989,-890 49,-5 95,-8 139,-8 241,0 495,73 672,244l0 -2220 -2600 557 0 2721c0,504 -535,840 -989,890 -49,5 -95,8 -139,8 -389,0 -821,-207 -868,-633 -3,-24 -4,-47 -4,-69 0,-504 535,-840 989,-890z"/>
</svg>