<?xml version="1.0" encoding="UTF-8"?>
<!DOCTYPE svg PUBLIC "-//W3C//DTD SVG 1.1//EN" "http://www.w3.org/Graphics/SVG/1.1/DTD/svg11.dtd">
<svg xmlns="http://www.w3.org/2000/svg" xml:space="preserve" width="580px" height="580px" shape-rendering="geometricPrecision" text-rendering="geometricPrecision" image-rendering="optimizeQuality" fill-rule="nonzero" clip-rule="nonzero" viewBox="0 0 5800 5800" xmlns:xlink="http://www.w3.org/1999/xlink">
	<title>nail icon</title>
	<desc>nail icon from the IconExperience.com I-Collection. Copyright by INCORS GmbH (www.incors.com).</desc>
		<path id="curve28" d="M4807 986c307,307 524,649 626,955 109,328 88,619 -89,796 -177,177 -468,198 -796,89 -306,-102 -648,-319 -955,-626 -307,-307 -524,-649 -626,-955 -109,-328 -88,-619 89,-796 177,-177 468,-198 796,-89 306,102 648,319 955,626zm437 1018c-93,-277 -293,-591 -578,-877 -286,-286 -600,-485 -877,-578 -255,-85 -472,-78 -591,42 -120,119 -127,336 -42,591 93,277 293,591 578,877 286,285 600,485 877,578 255,85 472,78 591,-42 120,-119 127,-336 42,-591zm-1493 603l-1949 1950 -1132 566 566 -1132 1950 -1949c41,53 84,104 128,154l-1916 1916 -282 565 565 -282 1916 -1916c50,44 101,87 154,128z"/>
</svg>