<?xml version="1.0" encoding="UTF-8"?>
<!DOCTYPE svg PUBLIC "-//W3C//DTD SVG 1.1//EN" "http://www.w3.org/Graphics/SVG/1.1/DTD/svg11.dtd">
<svg xmlns="http://www.w3.org/2000/svg" xml:space="preserve" width="580px" height="580px" shape-rendering="geometricPrecision" text-rendering="geometricPrecision" image-rendering="optimizeQuality" fill-rule="nonzero" clip-rule="nonzero" viewBox="0 0 5800 5800" xmlns:xlink="http://www.w3.org/1999/xlink">
	<title>nav_refresh icon</title>
	<desc>nav_refresh icon from the IconExperience.com I-Collection. Copyright by INCORS GmbH (www.incors.com).</desc>
		<path id="curve28"  d="M2900 300c1436,0 2600,1164 2600,2600 0,1436 -1164,2600 -2600,2600 -1436,0 -2600,-1164 -2600,-2600 0,-1436 1164,-2600 2600,-2600zm170 807l-142 142 451 451 -1279 0c-440,0 -800,360 -800,800l0 800c0,305 174,582 445,717l152 -153c-237,-86 -397,-311 -397,-564l0 -800c0,-330 270,-600 600,-600l1280 0 -452 452 142 141 693 -693 -693 -693zm988 678l-151 152c234,87 393,312 393,563l0 800c0,330 -270,600 -600,600l-1280 0 452 -451 -142 -142 -692 693 692 693 142 -142 -452 -451 1280 0c440,0 800,-360 800,-800l0 -800c0,-303 -173,-579 -442,-715z"/>
</svg>