<?xml version="1.0" encoding="UTF-8"?>
<!DOCTYPE svg PUBLIC "-//W3C//DTD SVG 1.1//EN" "http://www.w3.org/Graphics/SVG/1.1/DTD/svg11.dtd">
<svg xmlns="http://www.w3.org/2000/svg" xml:space="preserve" width="580px" height="580px" shape-rendering="geometricPrecision" text-rendering="geometricPrecision" image-rendering="optimizeQuality" fill-rule="nonzero" clip-rule="nonzero" viewBox="0 0 5800 5800" xmlns:xlink="http://www.w3.org/1999/xlink">
	<title>network_node2 icon</title>
	<desc>network_node2 icon from the IconExperience.com I-Collection. Copyright by INCORS GmbH (www.incors.com).</desc>
		<path id="curve28" d="M2600 2100l200 0 0 -1200 200 0 0 1200 200 0c55,0 100,45 100,100l0 607c122,71 222,171 293,293l607 0c55,0 100,45 100,100l0 200 1197 0 0 200 -1197 0 0 200c0,55 -45,100 -100,100l-607 0c-144,247 -407,400 -693,400 -286,0 -549,-153 -693,-400l-607 0c-55,0 -100,-45 -100,-100l0 -200 -1203 0 0 -200 1203 0 0 -200c0,-55 45,-100 100,-100l607 0c71,-122 171,-222 293,-293l0 -607c0,-55 45,-100 100,-100zm500 200l-400 0 0 567c0,38 -21,74 -57,91 -122,58 -223,158 -283,279 -14,37 -50,63 -93,63l-567 0 0 400 567 0c38,0 74,21 91,57 99,210 310,343 542,343 230,0 439,-130 540,-337 14,-37 50,-63 93,-63l567 0 0 -400 -567 0c-38,0 -74,-21 -91,-57 -58,-122 -158,-223 -279,-283 -37,-14 -63,-50 -63,-93l0 -567z"/>
</svg>