<?xml version="1.0" encoding="utf-8"?>
<!-- Generator: Adobe Illustrator 19.2.1, SVG Export Plug-In . SVG Version: 6.00 Build 0)  -->
<svg version="1.1" id="Ebene_1" xmlns="http://www.w3.org/2000/svg" xmlns:xlink="http://www.w3.org/1999/xlink" x="0px" y="0px"
	 width="580px" height="580px" viewBox="0 0 580 580" style="enable-background:new 0 0 580 580;" xml:space="preserve">
<g>
	<path d="M57,38h245c8.2,0,15,6.7,15,14.9V138h85c8.3,0,15,6.6,15,14.9V202h20v-49.1c0-9.6-3.9-18.4-10.3-24.7l-100-100
		C320.4,21.9,311.5,18,302,18H37v520h146v-20H57V38z M337,66.7l51.2,51.3H337V66.7z"/>
	<path d="M223,242v320h320V242H223z M523,542H243V262h280V542z"/>
	<polygon points="373,492 393,492 393,412 473,412 473,392 393,392 393,312 373,312 373,392 293,392 293,412 373,412 	"/>
	<path d="M184.5,70H98.3c-3,0-5.3,2.1-5.3,5V102v10.8v26.9c0,2.6,1.7,4.3,4.2,5.3H131v19H98.3c-3,0-5.3,2.1-5.3,5.1V196v10.8v26.9
		c0,2.6,1.7,5.2,4.2,5.2h88.4c2.4,0,4.4-2.7,4.4-5.2v-64.7c0-3-2.6-5.1-5.5-5.1H151v-19h34.6c2.4-1,4.4-2.7,4.4-5.3V75
		C190,72.1,187.4,70,184.5,70z M170,219h-57v-35h57V219z M170,125h-57V90h57V125z"/>
</g>
</svg>
