<?xml version="1.0" encoding="utf-8"?>
<!-- Generator: Adobe Illustrator 19.2.1, SVG Export Plug-In . SVG Version: 6.00 Build 0)  -->
<svg version="1.1" id="Ebene_1" xmlns="http://www.w3.org/2000/svg" xmlns:xlink="http://www.w3.org/1999/xlink" x="0px" y="0px"
	 width="580px" height="580px" viewBox="0 0 580 580" style="enable-background:new 0 0 580 580;" xml:space="preserve">
<g>
	<path d="M57,38h245c8.2,0,15,6.7,15,14.9V138h85c8.3,0,15,6.6,15,14.9V202h20v-49.1c0-9.6-3.9-18.4-10.3-24.7l-100-100
		C320.4,21.9,311.5,18,302,18H37v520h146v-20H57V38z M337,66.7l51.2,51.3H337V66.7z"/>
	<rect x="97" y="249" width="20" height="40"/>
	<rect x="177" y="169" width="40" height="20"/>
	<rect x="257" y="169" width="40" height="20"/>
	<polygon points="377,202 377,169 337,169 337,189 357,189 357,202 	"/>
	<polygon points="137,169 97,169 97,209 117,209 117,189 137,189 	"/>
	<rect x="97" y="329" width="20" height="40"/>
	<polygon points="97,449 137,449 137,429 117,429 117,409 97,409 	"/>
	<path d="M223,242v320h320V242H223z M523,542H243V262h280V542z"/>
	<polygon points="373,492 393,492 393,412 473,412 473,392 393,392 393,312 373,312 373,392 293,392 293,412 373,412 	"/>
</g>
</svg>
