<?xml version="1.0" encoding="utf-8"?>
<!-- Generator: Adobe Illustrator 20.0.0, SVG Export Plug-In . SVG Version: 6.00 Build 0)  -->
<svg version="1.1" id="Ebene_1" xmlns="http://www.w3.org/2000/svg" xmlns:xlink="http://www.w3.org/1999/xlink" x="0px" y="0px"
	 width="580px" height="580px" viewBox="0 0 580 580" style="enable-background:new 0 0 580 580;" xml:space="preserve">
<g>
	<rect x="111" y="333" width="54" height="54"/>
	<rect x="111" y="420" width="54" height="54"/>
	<rect x="111" y="246" width="54" height="53"/>
	<polygon points="408,171.1 456,131.1 408,91.1 	"/>
	<polygon points="172,171.1 172,91.1 124,131.1 	"/>
	<path d="M90,510V210h400v31.9c7,4.5,13.7,9.5,20,14.9V50H70v480h170.6c-5.5-6.3-10.6-13-15.3-20H90z M90,70h400v120H90V70z"/>
	<path d="M384,242.7c-88.4,0-160,71.6-160,160s71.6,160,160,160s160-71.6,160-160S472.4,242.7,384,242.7z M384,542.7
		c-77.3,0-140-62.7-140-140s62.7-140,140-140s140,62.7,140,140S461.3,542.7,384,542.7z"/>
	<path d="M431.8,341.1l-42.4,42.3c-1.7-0.4-3.5-0.7-5.4-0.7c-1.7,0-3.3,0.2-4.9,0.6l-69.5-69.5L295.4,328l69.3,69.3
		c-0.4,1.7-0.7,3.5-0.7,5.4c0,11,9,20,20,20s20-9,20-20c0-1.7-0.2-3.3-0.6-4.9l42.5-42.6L431.8,341.1z"/>
</g>
</svg>
