<?xml version="1.0" encoding="UTF-8"?>
<!DOCTYPE svg PUBLIC "-//W3C//DTD SVG 1.1//EN" "http://www.w3.org/Graphics/SVG/1.1/DTD/svg11.dtd">
<svg xmlns="http://www.w3.org/2000/svg" xml:space="preserve" width="580px" height="580px" shape-rendering="geometricPrecision" text-rendering="geometricPrecision" image-rendering="optimizeQuality" fill-rule="nonzero" clip-rule="nonzero" viewBox="0 0 5800 5800" xmlns:xlink="http://www.w3.org/1999/xlink">
	<title>newspaper icon</title>
	<desc>newspaper icon from the IconExperience.com I-Collection. Copyright by INCORS GmbH (www.incors.com).</desc>
		<path id="curve28"  d="M700 800c0,-55 45,-100 100,-100 55,0 100,45 100,100l0 3800c0,55 -45,100 -100,100 -55,0 -100,-45 -100,-100l0 -3800zm4203 1700l-1600 0 0 1400 1600 0 0 -1400zm-4103 2600c-38,0 -71,-3 -100,-10 -232,-47 -400,-253 -400,-490l0 -3600c0,-55 45,-100 100,-100 55,0 100,45 100,100l0 3600c0,394 600,395 600,0l0 -3900 4400 0 0 3900c0,276 -224,500 -500,500l-4200 0zm906 -3800l0 200 3194 0 0 -200 -3194 0zm0 600l0 200 3194 0 0 -200 -3194 0zm-3 600l0 200 1200 0 0 -200 -1200 0zm3 600l0 200 1197 0 0 -200 -1197 0zm0 600l0 200 1197 0 0 -200 -1197 0zm0 600l0 200 3194 0 0 -200 -3194 0z"/>
</svg>