<?xml version="1.0" encoding="UTF-8"?>
<!DOCTYPE svg PUBLIC "-//W3C//DTD SVG 1.1//EN" "http://www.w3.org/Graphics/SVG/1.1/DTD/svg11.dtd">
<svg xmlns="http://www.w3.org/2000/svg" xml:space="preserve" width="580px" height="580px" shape-rendering="geometricPrecision" text-rendering="geometricPrecision" image-rendering="optimizeQuality" fill-rule="nonzero" clip-rule="nonzero" viewBox="0 0 5800 5800" xmlns:xlink="http://www.w3.org/1999/xlink">
	<title>newtons_cradle icon</title>
	<desc>newtons_cradle icon from the IconExperience.com I-Collection. Copyright by INCORS GmbH (www.incors.com).</desc>
		<path id="curve31"  d="M1100,900 5300,900 5300,1100 1100,1100z"/>
	<path id="curve30"  d="M4700 3106c399,50 700,391 700,794 0,442 -358,800 -800,800 -442,0 -800,-358 -800,-800 0,-403 301,-744 700,-794l0 -1806 200 0 0 1806z"/>
	<path id="curve29"  d="M3300 3106c399,50 700,391 700,794 0,442 -358,800 -800,800 -442,0 -800,-358 -800,-800 0,-403 301,-744 700,-794l0 -1806 200 0 0 1806z"/>
	<path id="curve28"  d="M900 2900c66,0 131,8 192,23l624 -1623 214 0 -652 1695c259,139 422,409 422,705 0,442 -358,800 -800,800 -442,0 -800,-358 -800,-800 0,-442 358,-800 800,-800z"/>
</svg>