<?xml version="1.0" encoding="UTF-8"?>
<!DOCTYPE svg PUBLIC "-//W3C//DTD SVG 1.1//EN" "http://www.w3.org/Graphics/SVG/1.1/DTD/svg11.dtd">
<svg xmlns="http://www.w3.org/2000/svg" xml:space="preserve" width="580px" height="580px" shape-rendering="geometricPrecision" text-rendering="geometricPrecision" image-rendering="optimizeQuality" fill-rule="nonzero" clip-rule="nonzero" viewBox="0 0 5800 5800" xmlns:xlink="http://www.w3.org/1999/xlink">
	<title>newtons_cradle icon</title>
	<desc>newtons_cradle icon from the IconExperience.com I-Collection. Copyright by INCORS GmbH (www.incors.com).</desc>
		<path id="curve28"  d="M1930 1300l-652 1695c259,139 422,409 422,705 0,442 -358,800 -800,800 -442,0 -800,-358 -800,-800 0,-442 358,-800 800,-800 66,0 131,8 192,23l624 -1623 214 0zm-830 -200l0 -200 4200 0 0 200c-1400,0 -2800,0 -4200,0zm3600 2006c399,50 700,391 700,794 0,442 -358,800 -800,800 -292,0 -559,-158 -700,-412 -141,254 -408,412 -700,412 -442,0 -800,-358 -800,-800 0,-403 301,-744 700,-794l0 -1806 200 0 0 1806c254,32 476,184 600,406 124,-222 346,-374 600,-406l0 -1806 200 0 0 1806zm-100 194c-331,0 -600,269 -600,600 0,331 269,600 600,600 331,0 600,-269 600,-600 0,-331 -269,-600 -600,-600zm-1400 0c-331,0 -600,269 -600,600 0,331 269,600 600,600 331,0 600,-269 600,-600 0,-331 -269,-600 -600,-600zm-2300 -200c-331,0 -600,269 -600,600 0,331 269,600 600,600 331,0 600,-269 600,-600 0,-331 -269,-600 -600,-600z"/>
</svg>