<?xml version="1.0" encoding="UTF-8"?>
<!DOCTYPE svg PUBLIC "-//W3C//DTD SVG 1.1//EN" "http://www.w3.org/Graphics/SVG/1.1/DTD/svg11.dtd">
<svg xmlns="http://www.w3.org/2000/svg" xml:space="preserve" width="580px" height="580px" shape-rendering="geometricPrecision" text-rendering="geometricPrecision" image-rendering="optimizeQuality" fill-rule="nonzero" clip-rule="nonzero" viewBox="0 0 5800 5800" xmlns:xlink="http://www.w3.org/1999/xlink">
	<title>nonprofit icon</title>
	<desc>nonprofit icon from the IconExperience.com I-Collection. Copyright by INCORS GmbH (www.incors.com).</desc>
	<path id="curve0"  d="M2900 300c1436,0 2600,1164 2600,2600 0,1436 -1164,2600 -2600,2600 -1436,0 -2600,-1164 -2600,-2600 0,-1436 1164,-2600 2600,-2600zm-1625 834l3391 3391c394,-428 634,-998 634,-1625 0,-1326 -1074,-2400 -2400,-2400 -627,0 -1197,240 -1625,634zm3250 3532l-3391 -3391c-394,428 -634,998 -634,1625 0,1326 1074,2400 2400,2400 627,0 1197,-240 1625,-634zm-635 -2416c0,-333 -315,-550 -627,-550l-263 0 0 876 -200 -200 0 -676 -263 0c-122,0 -235,30 -330,82l-146 -145c135,-86 299,-137 476,-137l263 0 0 -300 200 0 0 300 263 0c422,0 827,307 827,750l-200 0zm-665 550l38 0c422,0 827,307 827,750 0,36 -3,72 -9,107l-200 -201c-43,-217 -224,-375 -432,-432l-224 -224zm514 1363c-135,86 -299,137 -476,137l-263 0 0 300 -200 0 0 -300 -263 0c-422,0 -827,-307 -827,-750l200 0c0,333 315,550 627,550l263 0 0 -876 200 200 0 676 263 0c122,0 235,-30 330,-82l146 145zm-1164 -1163l-38 0c-226,0 -431,-83 -580,-216 -153,-136 -247,-325 -247,-534 0,-36 3,-72 9,-107l200 201c22,112 83,213 170,291 72,65 162,113 262,141l224 224z"/>
</svg>