<?xml version="1.0" encoding="UTF-8"?>
<!DOCTYPE svg PUBLIC "-//W3C//DTD SVG 1.1//EN" "http://www.w3.org/Graphics/SVG/1.1/DTD/svg11.dtd">
<svg xmlns="http://www.w3.org/2000/svg" xml:space="preserve" width="580px" height="580px" shape-rendering="geometricPrecision" text-rendering="geometricPrecision" image-rendering="optimizeQuality" fill-rule="nonzero" clip-rule="nonzero" viewBox="0 0 5800 5800" xmlns:xlink="http://www.w3.org/1999/xlink">
	<title>nonprofit icon</title>
	<desc>nonprofit icon from the IconExperience.com I-Collection. Copyright by INCORS GmbH (www.incors.com).</desc>
	<path id="curve0"  d="M2900 300c1436,0 2600,1164 2600,2600 0,1436 -1164,2600 -2600,2600 -1436,0 -2600,-1164 -2600,-2600 0,-1436 1164,-2600 2600,-2600zm0 300c-1270,0 -2300,1030 -2300,2300 0,1270 1030,2300 2300,2300 1270,0 2300,-1030 2300,-2300 0,-1270 -1030,-2300 -2300,-2300zm2100 2300c0,544 -207,1040 -546,1413l-2967 -2967c373,-339 869,-546 1413,-546 1160,0 2100,940 2100,2100zm-3654 -1413l2967 2967c-373,339 -869,546 -1413,546 -1160,0 -2100,-940 -2100,-2100 0,-544 207,-1040 546,-1413zm715 150l146 145c95,-52 208,-82 330,-82l263 0 0 676 200 200 0 -876 263 0c312,0 627,217 627,550l200 0c0,-443 -405,-750 -827,-750l-263 0 0 -300 -200 0 0 300 -263 0c-177,0 -341,51 -476,137zm1202 1163l-38 0 224 224c208,57 389,215 432,432l200 201c6,-35 9,-71 9,-107 0,-443 -405,-750 -827,-750zm476 1363l-146 -145c-95,52 -208,82 -330,82l-263 0 0 -676 -200 -200 0 876 -263 0c-176,0 -334,-63 -448,-165 -110,-99 -179,-235 -179,-385l-200 0c0,443 405,750 827,750l263 0 0 300 200 0 0 -300 263 0c177,0 341,-51 476,-137zm-1164 -1163l-224 -224c-208,-57 -389,-215 -432,-432l-200 -201c-6,35 -9,71 -9,107 0,443 405,750 827,750l38 0z"/>
</svg>