<?xml version="1.0" encoding="UTF-8"?>
<!DOCTYPE svg PUBLIC "-//W3C//DTD SVG 1.1//EN" "http://www.w3.org/Graphics/SVG/1.1/DTD/svg11.dtd">
<svg xmlns="http://www.w3.org/2000/svg" xml:space="preserve" width="580px" height="580px" shape-rendering="geometricPrecision" text-rendering="geometricPrecision" image-rendering="optimizeQuality" fill-rule="nonzero" clip-rule="nonzero" viewBox="0 0 5800 5800" xmlns:xlink="http://www.w3.org/1999/xlink">
	<title>nose icon</title>
	<desc>nose icon from the IconExperience.com I-Collection. Copyright by INCORS GmbH (www.incors.com).</desc>
		<path id="curve28"  d="M3127 470l-1274 2546c-46,93 -108,198 -172,287 -57,80 -118,150 -176,193 -256,190 -405,486 -405,804 0,552 448,1000 1000,1000 364,0 529,-56 681,-107 143,-48 275,-93 519,-93 377,0 487,74 582,137 50,34 94,63 218,63 387,0 700,-313 700,-700 0,-387 -313,-700 -700,-700l0 -200c497,0 900,403 900,900 0,497 -403,900 -900,900 -183,0 -251,-45 -329,-97 -71,-48 -154,-103 -471,-103 -214,0 -330,39 -456,82 -167,56 -349,118 -744,118 -663,0 -1200,-537 -1200,-1200 0,-381 180,-737 486,-964 39,-29 86,-84 133,-149 59,-83 115,-178 156,-260l1273 -2547 179 90z"/>
</svg>