<?xml version="1.0" encoding="UTF-8"?>
<!DOCTYPE svg PUBLIC "-//W3C//DTD SVG 1.1//EN" "http://www.w3.org/Graphics/SVG/1.1/DTD/svg11.dtd">
<svg xmlns="http://www.w3.org/2000/svg" xml:space="preserve" width="580px" height="580px" shape-rendering="geometricPrecision" text-rendering="geometricPrecision" image-rendering="optimizeQuality" fill-rule="nonzero" clip-rule="nonzero" viewBox="0 0 5800 5800" xmlns:xlink="http://www.w3.org/1999/xlink">
	<title>note_pinned icon</title>
	<desc>note_pinned icon from the IconExperience.com I-Collection. Copyright by INCORS GmbH (www.incors.com).</desc>
		<path id="curve29" d="M3700 4724l1024 -1024 -1024 0 0 1024zm1453 -1171l-1600 1600c-93,94 -221,147 -353,147l-2700 0 0 -3551c62,41 129,75 200,100l0 3251 2500 0c165,0 300,-135 300,-300l0 -1300 1300 0c165,0 300,-135 300,-300l0 -2500 -3255 0c-26,-71 -61,-139 -104,-200l3559 0 0 2700c0,132 -53,260 -147,353z"/>
	<path id="curve28" d="M1000 514c-274,0 -500,217 -500,493 0,276 226,493 500,493 274,0 500,-217 500,-493 0,-276 -226,-493 -500,-493zm971 1315c39,39 39,103 0,142 -39,39 -103,39 -142,0l-409 -410c-117,87 -263,139 -420,139 -383,0 -700,-308 -700,-693 0,-385 317,-693 700,-693 383,0 700,308 700,693 0,155 -51,298 -138,413l409 409z"/>
</svg>