<?xml version="1.0" encoding="UTF-8"?>
<!DOCTYPE svg PUBLIC "-//W3C//DTD SVG 1.1//EN" "http://www.w3.org/Graphics/SVG/1.1/DTD/svg11.dtd">
<svg xmlns="http://www.w3.org/2000/svg" xml:space="preserve" width="580px" height="580px" shape-rendering="geometricPrecision" text-rendering="geometricPrecision" image-rendering="optimizeQuality" fill-rule="nonzero" clip-rule="nonzero" viewBox="0 0 5800 5800" xmlns:xlink="http://www.w3.org/1999/xlink">
	<title>note_block icon</title>
	<desc>note_block icon from the IconExperience.com I-Collection. Copyright by INCORS GmbH (www.incors.com).</desc>
		<path id="curve29" d="M1799 2100l2201 0c-27,64 -49,131 -65,200l-2071 0c-17,-69 -39,-136 -65,-200zm97 400l2008 0c-3,33 -4,66 -4,100l0 100 -1999 0 0 -86c0,-38 -2,-76 -5,-114zm5 400l1999 0 0 200 -1999 0 0 -200zm0 400l1999 0 0 200 -1999 0 0 -200zm-1 400l2000 0 0 200 -2000 0 0 -200zm0 400l2000 0 0 200 -2000 0 0 -200zm2714 -2661c-33,-48 -65,-97 -97,-147 -127,-200 -240,-411 -338,-631 -414,404 -902,731 -1442,961 -325,138 -670,241 -1028,303 -39,-64 -83,-125 -132,-181 378,-57 741,-161 1082,-306 561,-239 1064,-588 1481,-1021l106 -110 58 141c106,257 234,504 382,737 38,60 77,119 118,177 -66,21 -129,47 -190,77z"/>
	<path id="curve28" d="M600 1500c616,0 1100,502 1101,1114l-1 1886 2400 0 0 -1900c0,-608 492,-1100 1100,-1100l300 0 0 4000 -5200 0 0 -4000 300 0zm0 200l-100 0 0 3600 4800 0 0 -3600 -100 0c-497,0 -900,403 -900,900l0 2100 -2800 0 2 -2086c-1,-502 -396,-914 -902,-914z"/>
</svg>