<?xml version="1.0" encoding="UTF-8"?>
<!DOCTYPE svg PUBLIC "-//W3C//DTD SVG 1.1//EN" "http://www.w3.org/Graphics/SVG/1.1/DTD/svg11.dtd">
<svg xmlns="http://www.w3.org/2000/svg" xml:space="preserve" width="580px" height="580px" shape-rendering="geometricPrecision" text-rendering="geometricPrecision" image-rendering="optimizeQuality" fill-rule="nonzero" clip-rule="nonzero" viewBox="0 0 5800 5800" xmlns:xlink="http://www.w3.org/1999/xlink">
	<title>note_text icon</title>
	<desc>note_text icon from the IconExperience.com I-Collection. Copyright by INCORS GmbH (www.incors.com).</desc>
		<path id="curve28"  d="M5153 3553l-1600 1600c-34,34 -72,63 -114,86 40,-74 61,-155 61,-239l0 -1500 1500 0c84,0 166,-21 239,-61 -23,42 -52,81 -86,114zm-1853 1447c0,165 -135,300 -300,300l-2500 0 0 -4800 4800 0 0 2500c0,165 -135,300 -300,300l-1700 0c0,567 0,1133 0,1700zm-200 -300l0 -200 -2000 0 0 200 2000 0zm0 -800l0 -200 -2000 0 0 200 2000 0zm-2000 -1000l0 200 3600 0 0 -200 -3600 0zm0 -800l0 200 3600 0 0 -200 -3600 0zm0 -800l0 200 3600 0 0 -200 -3600 0z"/>
</svg>