<?xml version="1.0" encoding="UTF-8"?>
<!DOCTYPE svg PUBLIC "-//W3C//DTD SVG 1.1//EN" "http://www.w3.org/Graphics/SVG/1.1/DTD/svg11.dtd">
<svg xmlns="http://www.w3.org/2000/svg" xml:space="preserve" width="580px" height="580px" shape-rendering="geometricPrecision" text-rendering="geometricPrecision" image-rendering="optimizeQuality" fill-rule="nonzero" clip-rule="nonzero" viewBox="0 0 5800 5800" xmlns:xlink="http://www.w3.org/1999/xlink">
	<title>notebook3 icon</title>
	<desc>notebook3 icon from the IconExperience.com I-Collection. Copyright by INCORS GmbH (www.incors.com).</desc>
		<path id="curve28"  d="M5100 300l0 5200 -4000 0 0 -5200 4000 0zm-3673 4000l-527 0c-55,0 -100,45 -100,100 0,55 45,100 100,100l527 0c36,62 101,100 173,100 110,0 200,-90 200,-200 0,-110 -90,-200 -200,-200 -72,0 -138,38 -173,100zm-527 -400l527 0c36,62 101,100 173,100 110,0 200,-90 200,-200 0,-110 -90,-200 -200,-200 -72,0 -138,38 -173,100l-527 0c-55,0 -100,45 -100,100 0,55 45,100 100,100zm0 -600l527 0c36,62 101,100 173,100 110,0 200,-90 200,-200 0,-110 -90,-200 -200,-200 -72,0 -138,38 -173,100l-527 0c-55,0 -100,45 -100,100 0,55 45,100 100,100zm0 -600l527 0c36,62 101,100 173,100 110,0 200,-90 200,-200 0,-110 -90,-200 -200,-200 -72,0 -138,38 -173,100l-527 0c-55,0 -100,45 -100,100 0,55 45,100 100,100zm0 -600l527 0c35,62 101,100 173,100 110,0 200,-90 200,-200 0,-110 -90,-200 -200,-200 -72,0 -137,38 -173,100l-527 0c-55,0 -100,45 -100,100 0,55 45,100 100,100zm0 -600l527 0c36,62 101,100 173,100 110,0 200,-90 200,-200 0,-110 -90,-200 -200,-200 -72,0 -138,38 -173,100l-527 0c-55,0 -100,45 -100,100 0,55 45,100 100,100zm0 -600l527 0c36,62 101,100 173,100 110,0 200,-90 200,-200 0,-110 -90,-200 -200,-200 -72,0 -137,38 -173,100l-527 0c-55,0 -100,45 -100,100 0,55 45,100 100,100zm0 4200l527 0c36,62 101,100 173,100 110,0 200,-90 200,-200 0,-110 -90,-200 -200,-200 -72,0 -138,38 -173,100l-527 0c-55,0 -100,45 -100,100 0,55 45,100 100,100zm1200 -800l0 200 2400 0 0 -200 -2400 0zm0 -800l0 200 2400 0 0 -200 -2400 0zm0 -800l0 200 2400 0 0 -200 -2400 0zm0 -800l0 200 2400 0 0 -200 -2400 0zm0 -800l0 200 2400 0 0 -200 -2400 0z"/>
</svg>