<?xml version="1.0" encoding="UTF-8"?>
<!DOCTYPE svg PUBLIC "-//W3C//DTD SVG 1.1//EN" "http://www.w3.org/Graphics/SVG/1.1/DTD/svg11.dtd">
<svg xmlns="http://www.w3.org/2000/svg" xml:space="preserve" width="580px" height="580px" shape-rendering="geometricPrecision" text-rendering="geometricPrecision" image-rendering="optimizeQuality" fill-rule="nonzero" clip-rule="nonzero" viewBox="0 0 5800 5800" xmlns:xlink="http://www.w3.org/1999/xlink">
	<title>note icon</title>
	<desc>note icon from the IconExperience.com I-Collection. Copyright by INCORS GmbH (www.incors.com).</desc>
		<path id="curve28" d="M3700 4724l1024 -1024 -1024 0 0 1024zm1453 -1171l-1600 1600c-93,94 -221,147 -353,147l-2700 0 0 -4800 4800 0 0 2700c0,132 -53,260 -147,353zm-4453 1547l2500 0c166,0 300,-136 300,-300l0 -1300 1300 0c165,0 300,-135 300,-300l0 -2500 -4400 0 0 4400z"/>
</svg>