<?xml version="1.0" encoding="UTF-8"?>
<!DOCTYPE svg PUBLIC "-//W3C//DTD SVG 1.1//EN" "http://www.w3.org/Graphics/SVG/1.1/DTD/svg11.dtd">
<svg xmlns="http://www.w3.org/2000/svg" xml:space="preserve" width="580px" height="580px" shape-rendering="geometricPrecision" text-rendering="geometricPrecision" image-rendering="optimizeQuality" fill-rule="nonzero" clip-rule="nonzero" viewBox="0 0 5800 5800" xmlns:xlink="http://www.w3.org/1999/xlink">
	<title>notebook2 icon</title>
	<desc>notebook2 icon from the IconExperience.com I-Collection. Copyright by INCORS GmbH (www.incors.com).</desc>
		<path id="curve28" d="M5100 300l0 5200 -4000 0 0 -400 -200 0c-55,0 -100,-45 -100,-100 0,-55 45,-100 100,-100l200 0 0 -400 -200 0c-55,0 -100,-45 -100,-100 0,-55 45,-100 100,-100l200 0 0 -400 -200 0c-55,0 -100,-45 -100,-100 0,-55 45,-100 100,-100l200 0 0 -400 -200 0c-55,0 -100,-45 -100,-100 0,-55 45,-100 100,-100l200 0 0 -400 -200 0c-55,0 -100,-45 -100,-100 0,-55 45,-100 100,-100l200 0 0 -400 -200 0c-55,0 -100,-45 -100,-100 0,-55 45,-100 100,-100l200 0 0 -400 -200 0c-55,0 -100,-45 -100,-100 0,-55 45,-100 100,-100l200 0 0 -400 -200 0c-55,0 -100,-45 -100,-100 0,-55 45,-100 100,-100l200 0 0 -400 4000 0zm-800 1000l0 1400 -2000 0 0 -1400 2000 0zm-200 200l-1600 0 0 1000 1600 0 0 -1000zm-2800 2200l127 0c35,-62 101,-100 173,-100 110,0 200,90 200,200 0,110 -90,200 -200,200 -72,0 -137,-38 -173,-100l-127 0 0 400 127 0c35,-62 101,-100 173,-100 110,0 200,90 200,200 0,110 -90,200 -200,200 -72,0 -137,-38 -173,-100l-127 0 0 400 127 0c35,-62 101,-100 173,-100 110,0 200,90 200,200 0,110 -90,200 -200,200 -72,0 -137,-38 -173,-100l-127 0 0 200 3600 0 0 -4800 -3600 0 0 200 127 0c36,-62 101,-100 173,-100 110,0 200,90 200,200 0,110 -90,200 -200,200 -72,0 -137,-38 -173,-100l-127 0 0 400 127 0c35,-62 101,-100 173,-100 110,0 200,90 200,200 0,110 -90,200 -200,200 -72,0 -137,-38 -173,-100l-127 0 0 400 127 0c36,-62 101,-100 173,-100 110,0 200,90 200,200 0,110 -90,200 -200,200 -72,0 -138,-38 -173,-100l-127 0 0 400 127 0c35,-62 101,-100 173,-100 110,0 200,90 200,200 0,110 -90,200 -200,200 -72,0 -137,-38 -173,-100l-127 0 0 400 127 0c35,-62 101,-100 173,-100 110,0 200,90 200,200 0,110 -90,200 -200,200 -72,0 -137,-38 -173,-100l-127 0 0 400z"/>
</svg>