<?xml version="1.0" encoding="UTF-8"?>
<!DOCTYPE svg PUBLIC "-//W3C//DTD SVG 1.1//EN" "http://www.w3.org/Graphics/SVG/1.1/DTD/svg11.dtd">
<svg xmlns="http://www.w3.org/2000/svg" xml:space="preserve" width="580px" height="580px" shape-rendering="geometricPrecision" text-rendering="geometricPrecision" image-rendering="optimizeQuality" fill-rule="nonzero" clip-rule="nonzero" viewBox="0 0 5800 5800" xmlns:xlink="http://www.w3.org/1999/xlink">
	<title>notebook icon</title>
	<desc>notebook icon from the IconExperience.com I-Collection. Copyright by INCORS GmbH (www.incors.com).</desc>
		<path id="curve28"  d="M1500 4700l0 200 2800 0 0 -200 -2800 0zm0 -800l0 200 2800 0 0 -200 -2800 0zm0 -800l0 200 2800 0 0 -200 -2800 0zm0 -800l0 200 2800 0 0 -200 -2800 0zm0 -800l0 200 2800 0 0 -200 -2800 0zm3001 -675l0 -527c0,-55 -45,-100 -100,-100 -55,0 -100,45 -100,100l0 527c-62,35 -100,101 -100,173 0,110 90,200 200,200 111,0 200,-90 200,-200 0,-72 -38,-138 -100,-173zm-3200 -527l0 527c-62,35 -100,101 -100,173 0,110 90,200 200,200 111,0 200,-90 200,-200 0,-72 -38,-138 -100,-173l0 -527c0,-55 -45,-100 -100,-100 -55,0 -100,45 -100,100zm600 0l0 527c-62,35 -100,101 -100,173 0,110 90,200 200,200 111,0 200,-90 200,-200 0,-72 -38,-138 -100,-173l0 -527c0,-55 -45,-100 -100,-100 -55,0 -100,45 -100,100zm600 0l0 527c-62,35 -100,101 -100,173 0,110 90,200 200,200 111,0 200,-90 200,-200 0,-72 -38,-138 -100,-173l0 -527c0,-55 -45,-100 -100,-100 -55,0 -100,45 -100,100zm600 0l0 527c-62,35 -100,101 -100,173 0,110 90,200 200,200 111,0 200,-90 200,-200 0,-72 -38,-138 -100,-173l0 -527c0,-55 -45,-100 -100,-100 -55,0 -100,45 -100,100zm600 0l0 527c-62,35 -100,101 -100,173 0,110 90,200 200,200 111,0 200,-90 200,-200 0,-72 -38,-138 -100,-173l0 -527c0,-55 -45,-100 -100,-100 -55,0 -100,45 -100,100zm1199 202l0 5000 -4000 0 0 -5000 4000 0z"/>
</svg>