<?xml version="1.0" encoding="utf-8"?>
<!-- Generator: Adobe Illustrator 19.2.1, SVG Export Plug-In . SVG Version: 6.00 Build 0)  -->
<svg version="1.1" id="Ebene_1" xmlns="http://www.w3.org/2000/svg" xmlns:xlink="http://www.w3.org/1999/xlink" x="0px" y="0px"
	 width="580px" height="580px" viewBox="0 0 580 580" style="enable-background:new 0 0 580 580;" xml:space="preserve">
<g>
	<path d="M569.9,275.4c-0.1-47-39-85.8-86-85.7l-68.3,0.1c-41,0.1-76.7,30-84.3,70.1l20.5,0c7.2-29.1,33.8-50,63.8-50.2l68.2,0
		c36.1-0.1,65.9,29.7,65.9,65.7l0,28.3c0.1,34.7-27.6,63.8-62,65.8l17.4,17.4c36.9-9.6,64.7-43.5,64.7-83.3L569.9,275.4z"/>
	<path d="M331.4,319.9c4.1,21.2,16,39.6,32.4,52.1l14.3-14.3c-12.7-8.9-22.2-22.2-26.2-37.8L331.4,319.9z"/>
	<path d="M410,289.8c-0.1-5.6-4.5-10-10.1-10l-220.1,0.3c-5.5,0-10,4.5-10,10.1c0.1,5.6,4.5,10,10.1,10l220.1-0.3
		C405.5,299.8,409.9,295.4,410,289.8z"/>
	<path d="M248.6,320l-20.4,0.1c-7.2,28.9-33.9,50-63.8,50l-68.3,0.1c-36,0.1-65.9-29.7-65.9-65.7l0-28.3
		c-0.1-36.1,29.7-65.9,65.7-65.9l68.3-0.1c30,0,56.7,20.9,64,49.8l20.4,0c-7.6-40.2-43.5-69.9-84.5-69.9l-68.3,0.1
		c-47,0.1-85.8,39-85.7,86l0,28.4c0.1,47,38.9,85.7,86,85.7l68.3-0.1C205.3,390.1,241.1,360.3,248.6,320z"/>
	<polygon points="412.9,379.7 466,433 190,433 190,453 465.7,453 412.9,505.6 427.1,519.6 504.1,442.5 427.1,365.5 	"/>
</g>
</svg>
