<?xml version="1.0" encoding="UTF-8"?>
<!DOCTYPE svg PUBLIC "-//W3C//DTD SVG 1.1//EN" "http://www.w3.org/Graphics/SVG/1.1/DTD/svg11.dtd">
<svg xmlns="http://www.w3.org/2000/svg" xml:space="preserve" width="580px" height="580px" shape-rendering="geometricPrecision" text-rendering="geometricPrecision" image-rendering="optimizeQuality" fill-rule="nonzero" clip-rule="nonzero" viewBox="0 0 5800 5800" xmlns:xlink="http://www.w3.org/1999/xlink">
	<title>numeric_keypad icon</title>
	<desc>numeric_keypad icon from the IconExperience.com I-Collection. Copyright by INCORS GmbH (www.incors.com).</desc>
		<path id="curve28"  d="M3300 3900l0 800 -800 0 0 -800 800 0zm-200 200l-400 0 0 400 400 0 0 -400zm1200 -1200l0 800 -800 0 0 -800 800 0zm-200 200l-400 0 0 400 400 0 0 -400zm-800 -200l0 800 -800 0 0 -800 800 0zm-200 200l-400 0 0 400 400 0 0 -400zm-804 -200l0 800 -800 0 0 -800 800 0zm-200 200l-400 0 0 400 400 0 0 -400zm2204 -1200l0 800c-267,0 -533,0 -800,0l0 -800c267,0 533,0 800,0zm-200 200l-400 0 0 400 400 0 0 -400zm-800 -200l0 800c-267,0 -533,0 -800,0l0 -800 800 0zm-200 200l-400 0 0 400 400 0 0 -400zm-804 -200l0 800c-266,0 -533,0 -800,0 0,-267 0,-533 0,-800 267,0 534,0 800,0zm-200 200l-400 0 0 400 400 0 0 -400zm2204 -1200l0 800c-267,0 -533,0 -800,0l0 -800c267,0 533,0 800,0zm-200 200l-400 0 0 400 400 0 0 -400zm-800 -200l0 800 -800 0 0 -800c267,0 533,0 800,0zm-200 200l-400 0 0 400 400 0 0 -400zm1400 4400l-3200 0c-220,0 -400,-180 -400,-400l0 -4400c0,-220 180,-400 400,-400l3200 0c220,0 400,180 400,400l0 4400c0,220 -180,400 -400,400zm-3200 -200l3200 0c110,0 200,-90 200,-200l0 -4400c0,-110 -90,-200 -200,-200l-3200 0c-110,0 -200,90 -200,200l0 4400c0,110 90,200 200,200zm996 -4400l0 800c-266,0 -533,0 -800,0l0 -800c267,0 534,0 800,0zm-200 200l-400 0 0 400 400 0 0 -400z"/>
</svg>