<?xml version="1.0" encoding="UTF-8"?>
<!DOCTYPE svg PUBLIC "-//W3C//DTD SVG 1.1//EN" "http://www.w3.org/Graphics/SVG/1.1/DTD/svg11.dtd">
<svg xmlns="http://www.w3.org/2000/svg" xml:space="preserve" width="580px" height="580px" shape-rendering="geometricPrecision" text-rendering="geometricPrecision" image-rendering="optimizeQuality" fill-rule="nonzero" clip-rule="nonzero" viewBox="0 0 5800 5800" xmlns:xlink="http://www.w3.org/1999/xlink">
	<title>numeric_keypad icon</title>
	<desc>numeric_keypad icon from the IconExperience.com I-Collection. Copyright by INCORS GmbH (www.incors.com).</desc>
		<path id="curve28"  d="M4500 5500l-3200 0c-220,0 -400,-180 -400,-400l0 -4400c0,-220 180,-400 400,-400l3200 0c220,0 400,180 400,400l0 4400c0,220 -180,400 -400,400zm-2000 -1600c0,267 0,533 0,800 267,0 533,0 800,0 0,-267 0,-533 0,-800 -267,0 -533,0 -800,0zm1000 -1000c0,267 0,533 0,800 267,0 533,0 800,0 0,-267 0,-533 0,-800 -267,0 -533,0 -800,0zm-1000 0c0,267 0,533 0,800 267,0 533,0 800,0 0,-267 0,-533 0,-800 -267,0 -533,0 -800,0zm-1004 0c0,267 0,533 0,800 267,0 534,0 800,0 0,-267 0,-533 0,-800 -266,0 -533,0 -800,0zm2004 -1000c0,267 0,533 0,800 267,0 533,0 800,0 0,-267 0,-533 0,-800l-800 0zm-1000 0c0,267 0,533 0,800 267,0 533,0 800,0 0,-267 0,-533 0,-800 -267,0 -533,0 -800,0zm-1004 0c0,267 0,533 0,800 267,0 534,0 800,0 0,-267 0,-533 0,-800 -266,0 -533,0 -800,0zm2004 -1000c0,267 0,533 0,800 267,0 533,0 800,0 0,-267 0,-533 0,-800l-800 0zm-1000 0l0 800c267,0 533,0 800,0 0,-267 0,-533 0,-800 -267,0 -533,0 -800,0zm-1004 0l0 800c267,0 534,0 800,0l0 -800c-266,0 -533,0 -800,0z"/>
</svg>