<?xml version="1.0" encoding="UTF-8"?>
<!DOCTYPE svg PUBLIC "-//W3C//DTD SVG 1.1//EN" "http://www.w3.org/Graphics/SVG/1.1/DTD/svg11.dtd">
<svg xmlns="http://www.w3.org/2000/svg" xml:space="preserve" width="580px" height="580px" shape-rendering="geometricPrecision" text-rendering="geometricPrecision" image-rendering="optimizeQuality" fill-rule="nonzero" clip-rule="nonzero" viewBox="0 0 5800 5800" xmlns:xlink="http://www.w3.org/1999/xlink">
	<title>nut_and_bolt icon</title>
	<desc>nut_and_bolt icon from the IconExperience.com I-Collection. Copyright by INCORS GmbH (www.incors.com).</desc>
	<path id="curve0"  d="M3702 3099c442,0 800,358 800,800 0,442 -358,800 -800,800 -442,0 -800,-358 -800,-800 0,-442 358,-800 800,-800zm0 200c-332,0 -600,268 -600,600 0,331 268,600 600,600 331,0 600,-269 600,-600 0,-332 -269,-600 -600,-600zm921 -999c308,533 616,1066 924,1600 -308,533 -616,1067 -924,1600 -615,0 -1231,0 -1847,0 -308,-534 -615,-1067 -923,-1600l924 -1600 1846 0zm-1732 200l-808 1400c270,467 539,933 809,1400 539,0 1077,0 1617,0 269,-467 538,-933 808,-1400 -269,-467 -539,-933 -808,-1400l-1618 0zm-1391 -2000l0 500 400 0 0 -500 700 0c275,0 500,225 500,500l0 700 -600 0 0 681 -268 465 -1132 -404 0 388 946 337 -102 176 -844 -301 0 388 659 235 -102 176 -557 -199 0 388 753 269 155 267 -908 -324 0 317 141 141 844 0c38,67 76,133 115,200l-1000 0c-28,0 -54,-12 -72,-30l-199 -199c-19,-20 -29,-45 -29,-71l0 -2900 -600 0 0 -700c0,-275 225,-500 500,-500l700 0zm-400 1730l1200 428 0 -958 -1200 0 0 530zm1800 -730l0 -500c0,-165 -135,-300 -300,-300l-500 0 0 500c-267,0 -533,0 -800,0l0 -500 -500 0c-165,0 -300,135 -300,300l0 500c800,0 1600,0 2400,0z"/>
</svg>