<?xml version="1.0" encoding="UTF-8"?>
<!DOCTYPE svg PUBLIC "-//W3C//DTD SVG 1.1//EN" "http://www.w3.org/Graphics/SVG/1.1/DTD/svg11.dtd">
<svg xmlns="http://www.w3.org/2000/svg" xml:space="preserve" width="580px" height="580px" shape-rendering="geometricPrecision" text-rendering="geometricPrecision" image-rendering="optimizeQuality" fill-rule="nonzero" clip-rule="nonzero" viewBox="0 0 5800 5800" xmlns:xlink="http://www.w3.org/1999/xlink">
	<title>nut_and_bolt icon</title>
	<desc>nut_and_bolt icon from the IconExperience.com I-Collection. Copyright by INCORS GmbH (www.incors.com).</desc>
	<path id="curve0"  d="M3702 3099c-442,0 -800,358 -800,800 0,442 358,800 800,800 442,0 800,-358 800,-800 0,-442 -358,-800 -800,-800zm921 -799c308,533 616,1066 924,1600 -308,533 -616,1067 -924,1600 -615,0 -1231,0 -1847,0 -308,-534 -615,-1067 -923,-1600l924 -1600 1846 0zm-3123 -1800l0 500 400 0 0 -500 700 0c275,0 500,225 500,500l0 700c-933,0 -1866,0 -2800,0l0 -700c0,-275 225,-500 500,-500l700 0zm1000 1400l0 481 -167 289 -1433 -512 0 -258 1600 0zm-454 1267l-1146 -409 0 -388 1332 476 -186 321zm-287 498l-859 -307 0 -388 1044 373 -185 322zm94 633l-953 -340 0 -388 757 271 -34 59 230 398zm347 602l0 0 -1000 0c-28,0 -54,-12 -72,-30l-199 -199c-19,-20 -29,-45 -29,-71l0 -430 1107 396 193 334z"/>
</svg>