<?xml version="1.0" encoding="UTF-8"?>
<!DOCTYPE svg PUBLIC "-//W3C//DTD SVG 1.1//EN" "http://www.w3.org/Graphics/SVG/1.1/DTD/svg11.dtd">
<svg xmlns="http://www.w3.org/2000/svg" xml:space="preserve" width="580px" height="580px" shape-rendering="geometricPrecision" text-rendering="geometricPrecision" image-rendering="optimizeQuality" fill-rule="nonzero" clip-rule="nonzero" viewBox="0 0 5800 5800" xmlns:xlink="http://www.w3.org/1999/xlink">
	<title>objects_transform2 icon</title>
	<desc>objects_transform2 icon from the IconExperience.com I-Collection. Copyright by INCORS GmbH (www.incors.com).</desc>
		<path id="curve30"  d="M5531 3050c0,403 -1156,450 -1431,450 -139,0 -273,-6 -400,-16l0 -914 -636 -271 1036 -1908 1418 2611 13 23 0 25zm-1164 -1615l-185 72 581 1493 185 -71 -581 -1494z"/>
	<path id="curve29"  d="M3384 2652l-1385 612 -1399 -605 1400 -595 1384 588zm116 167l0 957 -824 824 123 123 -699 314 0 -1599 1400 -619zm-1600 2218l-1400 -630 0 -1575 1400 606 0 1599z"/>
	<path id="curve28"  d="M4700 3664l0 136c0,496 -404,900 -900,900l-459 0 530 529 -142 142 -770 -771 770 -771 142 142 -530 529 459 0c385,0 700,-315 700,-700l0 -115c69,-6 136,-13 200,-21z"/>
</svg>