<?xml version="1.0" encoding="UTF-8"?>
<!DOCTYPE svg PUBLIC "-//W3C//DTD SVG 1.1//EN" "http://www.w3.org/Graphics/SVG/1.1/DTD/svg11.dtd">
<svg xmlns="http://www.w3.org/2000/svg" xml:space="preserve" width="580px" height="580px" shape-rendering="geometricPrecision" text-rendering="geometricPrecision" image-rendering="optimizeQuality" fill-rule="nonzero" clip-rule="nonzero" viewBox="0 0 5800 5800" xmlns:xlink="http://www.w3.org/1999/xlink">
	<title>object_cylinder icon</title>
	<desc>object_cylinder icon from the IconExperience.com I-Collection. Copyright by INCORS GmbH (www.incors.com).</desc>
		<path id="curve28"  d="M2900 500c401,0 1810,60 1984,513 -199,394 -1604,487 -1984,487 -380,0 -1785,-93 -1984,-487 174,-453 1583,-513 1984,-513zm2000 776l0 3424c0,532 -1639,600 -2000,600 -361,0 -2000,-68 -2000,-600l0 -3424c458,345 1454,424 2000,424 546,0 1542,-79 2000,-424zm-600 624l-200 0 0 2700 200 0 0 -2700z"/>
</svg>