<?xml version="1.0" encoding="UTF-8"?>
<!DOCTYPE svg PUBLIC "-//W3C//DTD SVG 1.1//EN" "http://www.w3.org/Graphics/SVG/1.1/DTD/svg11.dtd">
<svg xmlns="http://www.w3.org/2000/svg" xml:space="preserve" width="580px" height="580px" shape-rendering="geometricPrecision" text-rendering="geometricPrecision" image-rendering="optimizeQuality" fill-rule="nonzero" clip-rule="nonzero" viewBox="0 0 5800 5800" xmlns:xlink="http://www.w3.org/1999/xlink">
	<title>object_cone icon</title>
	<desc>object_cone icon from the IconExperience.com I-Collection. Copyright by INCORS GmbH (www.incors.com).</desc>
		<path id="curve28"  d="M3293 2065l900 2400 -186 70 -900 -2400 186 -70zm1798 2485c0,205 -281,410 -730,549 -383,120 -897,201 -1461,201 -532,0 -1020,-75 -1395,-184 -440,-129 -735,-315 -787,-498 -20,-73 -16,-81 17,-141l2165 -3986 2191 4034 0 25zm-790 359c342,-106 563,-232 588,-339l-1989 -3661 -1988 3659c38,116 280,249 648,356 358,105 826,176 1340,176 543,0 1036,-78 1401,-191z"/>
</svg>