<?xml version="1.0" encoding="UTF-8"?>
<!DOCTYPE svg PUBLIC "-//W3C//DTD SVG 1.1//EN" "http://www.w3.org/Graphics/SVG/1.1/DTD/svg11.dtd">
<svg xmlns="http://www.w3.org/2000/svg" xml:space="preserve" width="580px" height="580px" shape-rendering="geometricPrecision" text-rendering="geometricPrecision" image-rendering="optimizeQuality" fill-rule="nonzero" clip-rule="nonzero" viewBox="0 0 5800 5800" xmlns:xlink="http://www.w3.org/1999/xlink">
	<title>object_alignment_center icon</title>
	<desc>object_alignment_center icon from the IconExperience.com I-Collection. Copyright by INCORS GmbH (www.incors.com).</desc>
		<path id="curve29"  d="M1900 4900l0 -4000 2000 0 0 4000 -2000 0zm1400 -3400l-800 0 0 2800 800 0 0 -2800zm-200 200l-400 0 0 2400 400 0 0 -2400z"/>
	<path id="curve28"  d="M900 2800l800 0 0 200 -800 0 0 -200zm3200 0l800 0 0 200 -800 0 0 -200zm-1300 2700l0 -400 200 0 0 400 -200 0zm0 -4800l0 -400 200 0 0 400 -200 0z"/>
</svg>