<?xml version="1.0" encoding="UTF-8"?>
<!DOCTYPE svg PUBLIC "-//W3C//DTD SVG 1.1//EN" "http://www.w3.org/Graphics/SVG/1.1/DTD/svg11.dtd">
<svg xmlns="http://www.w3.org/2000/svg" xml:space="preserve" width="580px" height="580px" shape-rendering="geometricPrecision" text-rendering="geometricPrecision" image-rendering="optimizeQuality" fill-rule="nonzero" clip-rule="nonzero" viewBox="0 0 5800 5800" xmlns:xlink="http://www.w3.org/1999/xlink">
	<title>objects2 icon</title>
	<desc>objects2 icon from the IconExperience.com I-Collection. Copyright by INCORS GmbH (www.incors.com).</desc>
		<path id="curve28"  d="M4000 1300c718,0 1300,582 1300,1300 0,718 -582,1300 -1300,1300 -103,0 -203,-12 -299,-35l0 -1262 -940 -399c172,-537 673,-904 1239,-904zm900 1300l-200 0c0,387 -313,700 -700,700l0 200c497,0 900,-403 900,-900zm-1515 85l-1385 612 -1399 -605 1400 -594 1384 587zm116 167l0 1588 -1400 631 0 -1600 1400 -619zm-1600 2219l-1400 -631 0 -1574 1400 605 0 1600z"/>
</svg>