<?xml version="1.0" encoding="UTF-8"?>
<!DOCTYPE svg PUBLIC "-//W3C//DTD SVG 1.1//EN" "http://www.w3.org/Graphics/SVG/1.1/DTD/svg11.dtd">
<svg xmlns="http://www.w3.org/2000/svg" xml:space="preserve" width="580px" height="580px" shape-rendering="geometricPrecision" text-rendering="geometricPrecision" image-rendering="optimizeQuality" fill-rule="nonzero" clip-rule="nonzero" viewBox="0 0 5800 5800" xmlns:xlink="http://www.w3.org/1999/xlink">
	<title>objects4 icon</title>
	<desc>objects4 icon from the IconExperience.com I-Collection. Copyright by INCORS GmbH (www.incors.com).</desc>
		<path id="curve28"  d="M5331 4250c0,403 -1156,450 -1431,450 -295,0 -1325,-47 -1423,-397 -17,-61 -14,-67 13,-117l1410 -2595 1431 2634 0 25zm-1164 -1615l-185 72 581 1493 185 -71 -581 -1494zm-2167 -1335c614,0 1144,430 1272,1028l-808 1487c-144,55 -300,85 -464,85 -718,0 -1300,-582 -1300,-1300 0,-718 582,-1300 1300,-1300zm900 1300l-200 0c0,387 -313,700 -700,700l0 200c497,0 900,-403 900,-900z"/>
</svg>