<?xml version="1.0" encoding="UTF-8"?>
<!DOCTYPE svg PUBLIC "-//W3C//DTD SVG 1.1//EN" "http://www.w3.org/Graphics/SVG/1.1/DTD/svg11.dtd">
<svg xmlns="http://www.w3.org/2000/svg" xml:space="preserve" width="580px" height="580px" shape-rendering="geometricPrecision" text-rendering="geometricPrecision" image-rendering="optimizeQuality" fill-rule="nonzero" clip-rule="nonzero" viewBox="0 0 5800 5800" xmlns:xlink="http://www.w3.org/1999/xlink">
	<title>objects icon</title>
	<desc>objects icon from the IconExperience.com I-Collection. Copyright by INCORS GmbH (www.incors.com).</desc>
		<path id="curve28"  d="M2400 900c607,0 1134,421 1268,1011l-423 778 -71 -31c81,-136 126,-293 126,-458l-200 0c0,138 -40,269 -111,380l-1189 -505 -689 293c-7,-55 -11,-111 -11,-168 0,-718 582,-1300 1300,-1300zm3100 3350c0,403 -1156,450 -1431,450 -202,0 -395,-12 -569,-33l0 -1870 -70 -30 639 -1176 1431 2634 0 25zm-1163 -1615l-186 72 581 1493 186 -71 -581 -1494zm-1153 244l-1385 612 -1399 -605 1400 -594 1384 587zm-1484 786l0 1599 -1400 -630 0 -1574 1400 605zm1600 -619l0 1588 -1400 630 0 -1599 1400 -619z"/>
</svg>