<?xml version="1.0" encoding="UTF-8"?>
<!DOCTYPE svg PUBLIC "-//W3C//DTD SVG 1.1//EN" "http://www.w3.org/Graphics/SVG/1.1/DTD/svg11.dtd">
<svg xmlns="http://www.w3.org/2000/svg" xml:space="preserve" width="580px" height="580px" shape-rendering="geometricPrecision" text-rendering="geometricPrecision" image-rendering="optimizeQuality" fill-rule="nonzero" clip-rule="nonzero" viewBox="0 0 5800 5800" xmlns:xlink="http://www.w3.org/1999/xlink">
	<title>objects4 icon</title>
	<desc>objects4 icon from the IconExperience.com I-Collection. Copyright by INCORS GmbH (www.incors.com).</desc>
		<path id="curve29"  d="M2900 2600c0,497 -403,900 -900,900l0 -200c387,0 700,-313 700,-700l200 0zm-900 -1300c614,0 1144,430 1272,1028l-173 318c1,-15 1,-31 1,-46 0,-608 -492,-1100 -1100,-1100 -608,0 -1100,492 -1100,1100 0,608 492,1100 1100,1100 237,0 457,-75 637,-203l-173 318c-144,55 -300,85 -464,85 -718,0 -1300,-582 -1300,-1300 0,-718 582,-1300 1300,-1300z"/>
	<path id="curve28"  d="M4167 2635l581 1494 -185 71 -581 -1493 185 -72zm1164 1615c0,148 -178,268 -465,344 -249,65 -590,106 -966,106 -357,0 -683,-37 -928,-97 -275,-67 -459,-172 -495,-300 -17,-61 -14,-68 13,-118l1410 -2594 1431 2634 0 25zm-515 151c172,-45 286,-93 310,-135l-1226 -2257 -1225 2254c32,50 157,101 344,147 229,56 539,90 881,90 359,0 683,-38 916,-99z"/>
</svg>