<?xml version="1.0" encoding="UTF-8"?>
<!DOCTYPE svg PUBLIC "-//W3C//DTD SVG 1.1//EN" "http://www.w3.org/Graphics/SVG/1.1/DTD/svg11.dtd">
<svg xmlns="http://www.w3.org/2000/svg" xml:space="preserve" width="580px" height="580px" shape-rendering="geometricPrecision" text-rendering="geometricPrecision" image-rendering="optimizeQuality" fill-rule="nonzero" clip-rule="nonzero" viewBox="0 0 5800 5800" xmlns:xlink="http://www.w3.org/1999/xlink">
	<title>object_ball icon</title>
	<desc>object_ball icon from the IconExperience.com I-Collection. Copyright by INCORS GmbH (www.incors.com).</desc>
		<path id="curve28"  d="M2900 700c1215,0 2200,985 2200,2200 0,1215 -985,2200 -2200,2200 -1215,0 -2200,-985 -2200,-2200 0,-1215 985,-2200 2200,-2200zm0 200c-1105,0 -2000,895 -2000,2000 0,1105 895,2000 2000,2000 1105,0 2000,-895 2000,-2000 0,-1105 -895,-2000 -2000,-2000zm1600 2000c0,884 -716,1600 -1600,1600l0 -200c773,0 1400,-627 1400,-1400l200 0z"/>
</svg>