<?xml version="1.0" encoding="UTF-8"?>
<!DOCTYPE svg PUBLIC "-//W3C//DTD SVG 1.1//EN" "http://www.w3.org/Graphics/SVG/1.1/DTD/svg11.dtd">
<svg xmlns="http://www.w3.org/2000/svg" xml:space="preserve" width="580px" height="580px" shape-rendering="geometricPrecision" text-rendering="geometricPrecision" image-rendering="optimizeQuality" fill-rule="nonzero" clip-rule="nonzero" viewBox="0 0 5800 5800" xmlns:xlink="http://www.w3.org/1999/xlink">
	<title>objects_exchange icon</title>
	<desc>objects_exchange icon from the IconExperience.com I-Collection. Copyright by INCORS GmbH (www.incors.com).</desc>
		<path id="curve30"  d="M4367 1435l581 1494 -185 71 -581 -1493 185 -72zm1164 1615c0,148 -178,268 -465,344 -249,65 -590,106 -966,106 -139,0 -273,-6 -400,-16l0 -200c126,10 260,16 400,16 359,0 683,-38 916,-99 172,-45 286,-93 310,-135l-1226 -2257 -852 1568 -184 -78 1036 -1908 1431 2634 0 25z"/>
	<path id="curve29"  d="M3133 2762l-1133 -481 -1147 487 1146 496 1134 -502zm-1033 676l0 1380 650 -292 -74 74 123 123 -799 359 -1500 -675 0 -1706 1500 -637 1500 637 0 1075 -200 200 0 -1069 -1200 531zm-1400 -519l0 1359 1200 540 0 -1380 -1200 -519z"/>
	<path id="curve28"  d="M3871 3971l-530 529 459 0c385,0 700,-315 700,-700l0 -115c69,-6 136,-13 200,-21l0 136c0,496 -404,900 -900,900l-459 0 530 529 -142 142 -770 -771 770 -771 142 142zm-2371 -1911l0 -60c0,-496 404,-900 900,-900l459 0 -530 -529 142 -142 770 771 -770 771 -142 -142 530 -529 -459 0c-375,0 -687,300 -700,675l-200 85z"/>
</svg>