<?xml version="1.0" encoding="UTF-8"?>
<!DOCTYPE svg PUBLIC "-//W3C//DTD SVG 1.1//EN" "http://www.w3.org/Graphics/SVG/1.1/DTD/svg11.dtd">
<svg xmlns="http://www.w3.org/2000/svg" xml:space="preserve" width="580px" height="580px" shape-rendering="geometricPrecision" text-rendering="geometricPrecision" image-rendering="optimizeQuality" fill-rule="nonzero" clip-rule="nonzero" viewBox="0 0 5800 5800" xmlns:xlink="http://www.w3.org/1999/xlink">
	<title>object_alignment_left icon</title>
	<desc>object_alignment_left icon from the IconExperience.com I-Collection. Copyright by INCORS GmbH (www.incors.com).</desc>
		<path id="curve28" d="M700 1300l0 1300 4400 0 0 -1300 -4400 0zm-200 -200l4800 0 0 1700 -4800 0 0 -1700zm3200 3600l-3200 0 0 -1700 3200 0 0 1700zm-200 -200l0 -1300 -2800 0 0 1300 2800 0zm-2800 -4200l0 600 -200 0 0 -600 200 0zm0 4600l0 600 -200 0 0 -600 200 0z"/>
</svg>