<?xml version="1.0" encoding="UTF-8"?>
<!DOCTYPE svg PUBLIC "-//W3C//DTD SVG 1.1//EN" "http://www.w3.org/Graphics/SVG/1.1/DTD/svg11.dtd">
<svg xmlns="http://www.w3.org/2000/svg" xml:space="preserve" width="580px" height="580px" shape-rendering="geometricPrecision" text-rendering="geometricPrecision" image-rendering="optimizeQuality" fill-rule="nonzero" clip-rule="nonzero" viewBox="0 0 5800 5800" xmlns:xlink="http://www.w3.org/1999/xlink">
	<title>object_alignment_horizontal icon</title>
	<desc>object_alignment_horizontal icon from the IconExperience.com I-Collection. Copyright by INCORS GmbH (www.incors.com).</desc>
		<path id="curve28"  d="M3000 300l0 600 -200 0 0 -600 200 0zm0 4600l0 600 -200 0 0 -600 200 0zm-1500 -1700l0 1300 2800 0 0 -1300 -2800 0zm-200 -200l3200 0 0 1700 -3200 0 0 -1700zm4000 -200l-4800 0 0 -1700 4800 0 0 1700zm-200 -200l0 -1300 -4400 0 0 1300 4400 0z"/>
</svg>