<?xml version="1.0" encoding="UTF-8"?>
<!DOCTYPE svg PUBLIC "-//W3C//DTD SVG 1.1//EN" "http://www.w3.org/Graphics/SVG/1.1/DTD/svg11.dtd">
<svg xmlns="http://www.w3.org/2000/svg" xml:space="preserve" width="580px" height="580px" shape-rendering="geometricPrecision" text-rendering="geometricPrecision" image-rendering="optimizeQuality" fill-rule="nonzero" clip-rule="nonzero" viewBox="0 0 5800 5800" xmlns:xlink="http://www.w3.org/1999/xlink">
	<title>object_alignment_vertical icon</title>
	<desc>object_alignment_vertical icon from the IconExperience.com I-Collection. Copyright by INCORS GmbH (www.incors.com).</desc>
		<path id="curve28" d="M2800 500l0 4800 -1700 0 0 -4800 1700 0zm-200 200l-1300 0 0 4400 1300 0 0 -4400zm600 3600l1300 0 0 -2800 -1300 0 0 2800zm-200 200l0 -3200 1700 0 0 3200 -1700 0zm-2700 -1700l600 0 0 200 -600 0 0 -200zm4600 0l600 0 0 200 -600 0 0 -200z"/>
</svg>