<?xml version="1.0" encoding="UTF-8"?>
<!DOCTYPE svg PUBLIC "-//W3C//DTD SVG 1.1//EN" "http://www.w3.org/Graphics/SVG/1.1/DTD/svg11.dtd">
<svg xmlns="http://www.w3.org/2000/svg" xml:space="preserve" width="580px" height="580px" shape-rendering="geometricPrecision" text-rendering="geometricPrecision" image-rendering="optimizeQuality" fill-rule="nonzero" clip-rule="nonzero" viewBox="0 0 5800 5800" xmlns:xlink="http://www.w3.org/1999/xlink">
	<title>objects icon</title>
	<desc>objects icon from the IconExperience.com I-Collection. Copyright by INCORS GmbH (www.incors.com).</desc>
		<path id="curve30" d="M3300 2200c0,165 -45,322 -126,458l-185 -78c71,-111 111,-242 111,-380l200 0zm-900 -1300c607,0 1134,421 1268,1011l-168 309c0,-7 0,-13 0,-20 0,-608 -492,-1100 -1100,-1100 -608,0 -1100,492 -1100,1100 0,29 1,57 3,86l-192 82c-7,-55 -11,-111 -11,-168 0,-718 582,-1300 1300,-1300z"/>
	<path id="curve29" d="M4337 2635l581 1494 -186 71 -581 -1493 186 -72zm1163 1615c0,148 -177,268 -464,344 -249,65 -591,106 -967,106 -202,0 -395,-12 -569,-33l0 -201c171,22 364,34 569,34 360,0 683,-38 916,-99 172,-45 286,-93 310,-135l-1226 -2257 -569 1047 0 -259 -70 -30 639 -1176 1431 2634 0 25z"/>
	<path id="curve28" d="M2933 2990l-1133 -482 -1147 487 1146 496 1134 -501zm-2433 156l0 1359 1200 541 0 -1381 -1200 -519zm1400 1900l1200 -541 0 -1371 -1200 531 0 1381zm1400 -2117l0 1705 -1500 675 -1500 -675 0 -1705 1500 -637 1500 637z"/>
</svg>