<?xml version="1.0" encoding="UTF-8"?>
<!DOCTYPE svg PUBLIC "-//W3C//DTD SVG 1.1//EN" "http://www.w3.org/Graphics/SVG/1.1/DTD/svg11.dtd">
<svg xmlns="http://www.w3.org/2000/svg" xml:space="preserve" width="580px" height="580px" shape-rendering="geometricPrecision" text-rendering="geometricPrecision" image-rendering="optimizeQuality" fill-rule="nonzero" clip-rule="nonzero" viewBox="0 0 5800 5800" xmlns:xlink="http://www.w3.org/1999/xlink">
	<title>object_cylinder icon</title>
	<desc>object_cylinder icon from the IconExperience.com I-Collection. Copyright by INCORS GmbH (www.incors.com).</desc>
		<path id="curve28"  d="M4300 1900l0 2700 -200 0 0 -2700 200 0zm-1400 -1400c260,0 509,14 737,39 238,26 452,64 632,111 185,49 336,108 441,174 122,78 190,171 190,276l0 3600c0,189 -241,347 -631,450 -352,93 -836,150 -1369,150 -533,0 -1017,-57 -1369,-150 -390,-103 -631,-261 -631,-450 0,-4 0,-8 1,-11 0,-1197 -1,-2393 -1,-3589 0,-105 68,-198 190,-276 105,-66 256,-125 441,-174 180,-47 394,-85 632,-111 228,-25 477,-39 737,-39zm1800 881c-104,65 -251,122 -431,169 -180,47 -394,85 -632,111 -228,25 -477,39 -737,39 -260,0 -509,-14 -737,-39 -238,-26 -452,-64 -632,-111 -180,-47 -327,-104 -431,-169l0 3313c0,2 0,4 0,6 0,87 184,179 482,257 335,88 801,143 1318,143 517,0 983,-55 1318,-143 284,-75 465,-162 481,-245l1 -3331zm-1084 -644c-219,-24 -461,-37 -716,-37 -255,0 -497,13 -716,37 -227,25 -432,61 -602,106 -165,43 -297,94 -385,150 -62,40 -97,77 -97,107 0,31 35,67 97,107 88,56 220,107 385,150 170,45 375,81 602,106 219,24 461,37 716,37 255,0 497,-13 716,-37 227,-25 432,-61 602,-106 165,-43 297,-94 385,-150 62,-40 97,-76 97,-107 0,-30 -35,-67 -97,-107 -88,-56 -220,-107 -385,-150 -170,-45 -375,-81 -602,-106z"/>
</svg>