<?xml version="1.0" encoding="UTF-8"?>
<!DOCTYPE svg PUBLIC "-//W3C//DTD SVG 1.1//EN" "http://www.w3.org/Graphics/SVG/1.1/DTD/svg11.dtd">
<svg xmlns="http://www.w3.org/2000/svg" xml:space="preserve" width="580px" height="580px" shape-rendering="geometricPrecision" text-rendering="geometricPrecision" image-rendering="optimizeQuality" fill-rule="nonzero" clip-rule="nonzero" viewBox="0 0 5800 5800" xmlns:xlink="http://www.w3.org/1999/xlink">
	<title>objects2 icon</title>
	<desc>objects2 icon from the IconExperience.com I-Collection. Copyright by INCORS GmbH (www.incors.com).</desc>
		<path id="curve29" d="M4900 2600c0,497 -403,900 -900,900l0 -200c387,0 700,-313 700,-700l200 0zm-900 -1300c718,0 1300,582 1300,1300 0,718 -582,1300 -1300,1300 -103,0 -203,-12 -299,-35l0 -206c95,27 195,41 299,41 608,0 1100,-492 1100,-1100 0,-608 -492,-1100 -1100,-1100 -486,0 -914,319 -1053,783l-186 -79c172,-537 673,-904 1239,-904z"/>
	<path id="curve28" d="M3134 2796l-1133 -481 -1147 487 1146 495 1134 -501zm-1033 675l0 1381 1200 -540 0 -1371 -1200 530zm-1400 -519l0 1360 1200 540 0 -1381 -1200 -519zm2800 -217l0 1705 -1500 676 -1500 -676 0 -1705 1500 -637 1500 637z"/>
</svg>