<?xml version="1.0" encoding="UTF-8"?>
<!DOCTYPE svg PUBLIC "-//W3C//DTD SVG 1.1//EN" "http://www.w3.org/Graphics/SVG/1.1/DTD/svg11.dtd">
<svg xmlns="http://www.w3.org/2000/svg" xml:space="preserve" width="580px" height="580px" shape-rendering="geometricPrecision" text-rendering="geometricPrecision" image-rendering="optimizeQuality" fill-rule="nonzero" clip-rule="nonzero" viewBox="0 0 5800 5800" xmlns:xlink="http://www.w3.org/1999/xlink">
	<title>odometer icon</title>
	<desc>odometer icon from the IconExperience.com I-Collection. Copyright by INCORS GmbH (www.incors.com).</desc>
		<path id="curve28"  d="M700 1500l4400 0c220,0 400,180 400,400l0 2000c0,220 -180,400 -400,400l-4400 0c-220,0 -400,-180 -400,-400l0 -2000c0,-220 180,-400 400,-400zm3100 200l0 2400 1300 0c110,0 200,-90 200,-200l0 -2000c0,-110 -90,-200 -200,-200l-1300 0zm-200 2400l0 -2400 -2900 0c-110,0 -200,90 -200,200l0 2000c0,110 90,200 200,200l2900 0zm1300 -1400c0,-121 -79,-200 -200,-200l-200 0c-121,0 -200,79 -200,200l0 400c0,121 79,200 200,200l200 0c121,0 200,-79 200,-200l0 -400zm200 0l0 400c0,231 -169,400 -400,400l-200 0c-231,0 -400,-169 -400,-400l0 -400c0,-231 169,-400 400,-400l200 0c231,0 400,169 400,400zm-2000 0c0,-121 -79,-200 -200,-200l-200 0c-121,0 -200,79 -200,200l0 400c0,121 79,200 200,200l200 0c121,0 200,-79 200,-200l0 -400zm200 0l0 400c0,231 -169,400 -400,400l-200 0c-231,0 -400,-169 -400,-400l0 -400c0,-231 169,-400 400,-400l200 0c231,0 400,169 400,400zm-1600 0c0,-121 -79,-200 -200,-200l-200 0c-121,0 -200,79 -200,200l0 400c0,121 79,200 200,200l200 0c121,0 200,-79 200,-200l0 -400zm200 0l0 400c0,231 -169,400 -400,400l-200 0c-231,0 -400,-169 -400,-400l0 -400c0,-231 169,-400 400,-400l200 0c231,0 400,169 400,400z"/>
</svg>