<?xml version="1.0" encoding="UTF-8"?>
<!DOCTYPE svg PUBLIC "-//W3C//DTD SVG 1.1//EN" "http://www.w3.org/Graphics/SVG/1.1/DTD/svg11.dtd">
<svg xmlns="http://www.w3.org/2000/svg" xml:space="preserve" width="580px" height="580px" shape-rendering="geometricPrecision" text-rendering="geometricPrecision" image-rendering="optimizeQuality" fill-rule="nonzero" clip-rule="nonzero" viewBox="0 0 5800 5800" xmlns:xlink="http://www.w3.org/1999/xlink">
	<title>office_building icon</title>
	<desc>office_building icon from the IconExperience.com I-Collection. Copyright by INCORS GmbH (www.incors.com).</desc>
		<path id="curve28"  d="M5500 2700l0 2800 -1100 0 0 -1100 0 -100 -100 0 -1000 0 -100 0 0 100 0 1100 -1100 0 0 -2800 3400 0zm-1300 2800l-800 0 0 -1000 800 0 0 1000zm-3500 -400l200 0 0 -600 400 0 0 -200 -600 0 0 800zm0 -1200l200 0 0 -600 400 0 0 -200 -600 0 0 800zm800 -1200l200 0 0 -600 400 0 0 -200 -600 0 0 800zm-800 0l200 0 0 -600 400 0 0 -200 -600 0 0 800zm1800 1200l200 0 0 -600 400 0 0 -200 -600 0 0 800zm1000 0l200 0 0 -600 400 0 0 -200 -600 0 0 800zm1000 0l200 0 0 -600 400 0 0 -200 -600 0 0 800zm-1200 -3600l0 2200 -800 0 0 -400 400 0 0 -200 -600 0 0 600 -400 0 0 600 -400 0 0 800 200 0 0 -600 200 0 0 1000 -400 0 0 800 200 0 0 -600 200 0 0 1000 -1600 0 0 -5200 3000 0zm-1000 1200l200 0 0 -600 400 0 0 -200 -600 0 0 800zm-800 0l200 0 0 -600 400 0 0 -200 -600 0 0 800zm-800 0l200 0 0 -600 400 0 0 -200 -600 0 0 800z"/>
</svg>