<?xml version="1.0" encoding="UTF-8"?>
<!DOCTYPE svg PUBLIC "-//W3C//DTD SVG 1.1//EN" "http://www.w3.org/Graphics/SVG/1.1/DTD/svg11.dtd">
<svg xmlns="http://www.w3.org/2000/svg" xml:space="preserve" width="580px" height="580px" shape-rendering="geometricPrecision" text-rendering="geometricPrecision" image-rendering="optimizeQuality" fill-rule="nonzero" clip-rule="nonzero" viewBox="0 0 5800 5800" xmlns:xlink="http://www.w3.org/1999/xlink">
	<title>office_chair icon</title>
	<desc>office_chair icon from the IconExperience.com I-Collection. Copyright by INCORS GmbH (www.incors.com).</desc>
		<path id="curve28" d="M4100 5100c110,0 200,90 200,200 0,110 -90,200 -200,200 -110,0 -200,-90 -200,-200 0,-110 90,-200 200,-200zm600 -2800l-100 0c-55,0 -100,45 -100,100l0 900c0,336 -264,600 -600,600l-2000 0c-336,0 -600,-264 -600,-600l0 -900c0,-55 -45,-100 -100,-100l-100 0 0 -200 100 0c165,0 300,135 300,300l0 900c0,226 174,400 400,400l2000 0c226,0 400,-174 400,-400l0 -900c0,-165 135,-300 300,-300l100 0 0 200zm-2000 -2000l400 0c631,0 1100,469 1100,1100 0,189 -5,371 -42,557l-224 1108c-28,139 -163,247 -306,234 -86,-12 -159,-27 -231,-42 -136,-29 -273,-57 -497,-57 -224,0 -361,28 -497,57 -78,16 -165,36 -245,43 -140,0 -264,-96 -292,-235l-224 -1108c-37,-186 -42,-368 -42,-557 0,-631 469,-1100 1100,-1100zm400 200l-400 0c-520,0 -900,380 -900,900 0,175 3,345 38,518l223 1108c9,45 49,72 93,74 75,-11 142,-24 208,-38 148,-31 296,-62 538,-62 242,0 390,31 538,62 66,14 133,27 208,38 44,-2 84,-29 93,-74l223 -1108c35,-173 38,-343 38,-518 0,-520 -380,-900 -900,-900zm-100 3500l0 222 1200 300 0 478 -200 0 0 -322 -1000 -250 0 572 -200 0 0 -572 -1000 250 0 322 -200 0 0 -478 1200 -300 0 -222 200 0zm-100 1100c110,0 200,90 200,200 0,110 -90,200 -200,200 -110,0 -200,-90 -200,-200 0,-110 90,-200 200,-200zm-1200 0c110,0 200,90 200,200 0,110 -90,200 -200,200 -110,0 -200,-90 -200,-200 0,-110 90,-200 200,-200z"/>
</svg>