<?xml version="1.0" encoding="UTF-8"?>
<!DOCTYPE svg PUBLIC "-//W3C//DTD SVG 1.1//EN" "http://www.w3.org/Graphics/SVG/1.1/DTD/svg11.dtd">
<svg xmlns="http://www.w3.org/2000/svg" xml:space="preserve" width="580px" height="580px" shape-rendering="geometricPrecision" text-rendering="geometricPrecision" image-rendering="optimizeQuality" fill-rule="nonzero" clip-rule="nonzero" viewBox="0 0 5800 5800" xmlns:xlink="http://www.w3.org/1999/xlink">
	<title>office_building2 icon</title>
	<desc>office_building2 icon from the IconExperience.com I-Collection. Copyright by INCORS GmbH (www.incors.com).</desc>
		<path id="curve28"  d="M1700 5300l800 0 0 -800 -800 0 0 800zm1000 0l100 0 2300 0 0 -2400 -2000 0 0 -2400 -2000 0 0 4800 400 0 0 -1000 1200 0 0 1000zm-1800 200l0 -5200 2400 0 0 2400 2000 0 0 2800c-1467,0 -2933,0 -4400,0zm400 -3800l0 -800 600 0 0 200 -400 0 0 600 -200 0zm1000 0l0 -800 600 0 0 200 -400 0 0 600 -200 0zm-1000 1100l0 -800 600 0 0 200 -400 0 0 600 -200 0zm1000 0l0 -800 600 0 0 200 -400 0 0 600 -200 0zm-1000 1100l0 -800 600 0 0 200 -400 0 0 600 -200 0zm1000 0l0 -800 600 0 0 200 -400 0 0 600 -200 0zm1000 0l0 -800 600 0 0 200 -400 0 0 600 -200 0zm1000 0l0 -800 600 0 0 200 -400 0 0 600 -200 0zm-1000 1100l0 -800 600 0 0 200 -400 0 0 600 -200 0zm1000 0l0 -800 600 0 0 200 -400 0 0 600 -200 0z"/>
</svg>