<?xml version="1.0" encoding="UTF-8"?>
<!DOCTYPE svg PUBLIC "-//W3C//DTD SVG 1.1//EN" "http://www.w3.org/Graphics/SVG/1.1/DTD/svg11.dtd">
<svg xmlns="http://www.w3.org/2000/svg" xml:space="preserve" width="580px" height="580px" shape-rendering="geometricPrecision" text-rendering="geometricPrecision" image-rendering="optimizeQuality" fill-rule="nonzero" clip-rule="nonzero" viewBox="0 0 5800 5800" xmlns:xlink="http://www.w3.org/1999/xlink">
	<title>office_building2 icon</title>
	<desc>office_building2 icon from the IconExperience.com I-Collection. Copyright by INCORS GmbH (www.incors.com).</desc>
		<path id="curve28"  d="M1500 5500l-600 0 0 -5200 2400 0 0 2400 2000 0 0 2800 -2600 0 0 -1200 -1200 0 0 1200zm1000 -1000l-800 0 0 1000 800 0 0 -1000zm1800 500l200 0 0 -600 400 0 0 -200 -600 0 0 800zm-1000 0l200 0 0 -600 400 0 0 -200 -600 0 0 800zm1000 -1100l200 0 0 -600 400 0 0 -200 -600 0 0 800zm-1000 0l200 0 0 -600 400 0 0 -200 -600 0 0 800zm-1000 0l200 0 0 -600 400 0 0 -200 -600 0 0 800zm-1000 0l200 0 0 -600 400 0 0 -200 -600 0 0 800zm1000 -1100l200 0 0 -600 400 0 0 -200 -600 0 0 800zm-1000 0l200 0 0 -600 400 0 0 -200 -600 0 0 800zm1000 -1100l200 0 0 -600 400 0 0 -200 -600 0 0 800zm-1000 0l200 0 0 -600 400 0 0 -200 -600 0 0 800z"/>
</svg>