<?xml version="1.0" encoding="UTF-8"?>
<!DOCTYPE svg PUBLIC "-//W3C//DTD SVG 1.1//EN" "http://www.w3.org/Graphics/SVG/1.1/DTD/svg11.dtd">
<svg xmlns="http://www.w3.org/2000/svg" xml:space="preserve" width="580px" height="580px" shape-rendering="geometricPrecision" text-rendering="geometricPrecision" image-rendering="optimizeQuality" fill-rule="nonzero" clip-rule="nonzero" viewBox="0 0 5800 5800" xmlns:xlink="http://www.w3.org/1999/xlink">
	<title>office_chair icon</title>
	<desc>office_chair icon from the IconExperience.com I-Collection. Copyright by INCORS GmbH (www.incors.com).</desc>
		<path id="curve28"  d="M4700 2300l-100 0c-55,0 -100,45 -100,100l0 900c0,336 -264,600 -600,600l-2000 0c-336,0 -600,-264 -600,-600l0 -900c0,-55 -45,-100 -100,-100l-100 0 0 -200 100 0c165,0 300,135 300,300l0 900c0,226 174,400 400,400l2000 0c226,0 400,-174 400,-400l0 -900c0,-165 135,-300 300,-300l100 0 0 200zm-600 2800c110,0 200,90 200,200 0,110 -90,200 -200,200 -110,0 -200,-90 -200,-200 0,-110 90,-200 200,-200zm-2400 0c110,0 200,90 200,200 0,110 -90,200 -200,200 -110,0 -200,-90 -200,-200 0,-110 90,-200 200,-200zm1200 0c110,0 200,90 200,200 0,110 -90,200 -200,200 -110,0 -200,-90 -200,-200 0,-110 90,-200 200,-200zm100 -1100l0 222 1200 300 0 478 -200 0 0 -322 -1000 -250 0 572 -200 0 0 -572 -1000 250 0 322 -200 0 0 -478 1200 -300 0 -222 200 0zm-300 -3700l400 0c631,0 1100,469 1100,1100 0,92 -1,181 -6,275 -6,91 -17,184 -36,282l-224 1108c-28,139 -163,247 -306,234 -86,-12 -159,-27 -231,-42 -136,-29 -273,-57 -497,-57 -224,0 -361,28 -497,57 -72,15 -145,30 -231,42 -143,13 -278,-95 -306,-234l-224 -1108c-19,-98 -30,-191 -36,-282 -5,-94 -6,-183 -6,-275 0,-631 469,-1100 1100,-1100z"/>
</svg>