<?xml version="1.0" encoding="utf-8"?>
<!-- Generator: Adobe Illustrator 19.2.1, SVG Export Plug-In . SVG Version: 6.00 Build 0)  -->
<svg version="1.1" id="offline_x5F_client_x5F_configuration_x5F_gi"
	 xmlns="http://www.w3.org/2000/svg" xmlns:xlink="http://www.w3.org/1999/xlink" x="0px" y="0px" width="580px" height="580px"
	 viewBox="0 0 580 580" style="enable-background:new 0 0 580 580;" xml:space="preserve">
<style type="text/css">
	.st0{display:none;}
</style>
<title>address_book2 icon</title>
<desc>address_book2 icon from the IconExperience.com I-Collection. Copyright by INCORS GmbH (www.incors.com).</desc>
<title>address_book2 icon</title>
<desc>address_book2 icon from the IconExperience.com I-Collection. Copyright by INCORS GmbH (www.incors.com).</desc>
<title>address_book2 icon</title>
<desc>address_book2 icon from the IconExperience.com I-Collection. Copyright by INCORS GmbH (www.incors.com).</desc>
<path id="curve28_9_" class="st0" d="M517.5,175.3c6.4,6.3,10.3,15.1,10.3,24.7v385h-400V65h265c9.6,0,18.4,3.9,24.7,10.3
	C417.5,75.6,507.8,165.5,517.5,175.3z M427.8,113.8V165H479L427.8,113.8z M392.8,85h-245v480h360V200c0-8.3-6.7-15-15-15h-85v-85
	C407.8,91.8,401,85,392.8,85z"/>
<g>
	<polygon points="270,187 270,127 70,127 70,187 90,187 90,147 250,147 250,187 	"/>
	<rect x="190" y="47" width="80" height="40"/>
	<polygon points="70,267 90,267 90,227 190,227 190,207 70,207 	"/>
	<path d="M50,382.6c-3.9-5-6.5-10.9-7.6-17.3l-0.1-0.5c-1.2-8.1,0-16.3,3.6-23.6c1.2-2.4,2.5-5,4.1-7.8V37c0-5.5,4.5-10,10-10h220
		c5.5,0,10,4.5,10,10v150h20V37c0-16.5-13.5-30-30-30H60C43.5,7,30,20.5,30,37v370h3.4c0.6-1.4,1.3-2.7,2.1-4.1
		c4.2-7.1,10.3-12.6,17.8-15.9L50,382.6z"/>
	<path d="M281.6,469.3c0.6-1,1.2-2,1.8-3.1c0.7-1,1.2-2,1.8-3l23.4-1.7c4.2-0.3,8-1.9,11-4.5c3.1-2.5,5.3-6,6.3-10
		c0.8-3.2,1.6-6.6,2.2-10.3c0.7-3.6,1.2-7,1.6-10.4c0.4-4.1-0.4-8.1-2.4-11.6s-5-6.3-8.7-8l-21.3-9.9c-0.2-1.1-0.3-2.3-0.5-3.5
		c-0.2-1.2-0.4-2.4-0.7-3.5l16.8-16.4c3-2.9,4.9-6.5,5.6-10.4s0.2-8-1.6-11.8c-1.6-3.3-3.3-6.4-4.9-9.3c-1.6-2.8-3.5-5.7-5.6-8.9
		c-2.3-3.5-5.5-6-9.2-7.4c-3.8-1.4-7.9-1.6-11.9-0.5l-22.6,6.1c-0.9-0.8-1.8-1.6-2.7-2.3c-0.8-0.7-1.8-1.5-2.7-2.2l2.4-23.4
		c0.4-4.1-0.5-8.1-2.5-11.6c-2-3.4-5-6.2-8.8-7.9c-3.3-1.5-6.5-2.8-9.8-4c-3-1.2-6.3-2.3-9.9-3.3c-4.1-1.2-8.2-1-11.9,0.3
		c-3.7,1.3-7.1,3.8-9.4,7.1L194,303c-1.1,0-2.3,0-3.5,0s-2.4,0.1-3.5,0.1l-13.2-19.3c-2.3-3.5-5.6-6-9.3-7.4
		c-3.7-1.3-7.8-1.5-11.9-0.4c-3.2,0.9-6.5,2-10,3.2c-3.5,1.3-6.8,2.6-9.8,3.9c-3.8,1.7-6.9,4.5-8.9,7.9c-2,3.4-2.9,7.4-2.5,11.6
		l2.1,23.4c-0.9,0.7-1.7,1.4-2.7,2.2c-0.9,0.7-1.8,1.5-2.6,2.2l-22.6-6.4c-4-1.2-8.1-1-11.8,0.4c-3.7,1.3-7,3.8-9.4,7.3
		c-1.9,2.8-3.8,5.8-5.6,8.9c-1.8,3.1-3.5,6.2-5,9.3c-1.9,3.8-2.4,7.8-1.8,11.7c0.7,3.9,2.5,7.6,5.5,10.6l16.7,16.5
		c-0.3,1.1-0.5,2.2-0.7,3.4s-0.4,2.3-0.6,3.3l-21.3,9.6c-3.9,1.7-6.9,4.5-8.9,7.9s-2.9,7.4-2.5,11.6c0.4,3.7,0.8,7.2,1.4,10.5
		c0.6,3.3,1.3,6.7,2.2,10.3c0.9,4.1,3.1,7.6,6.1,10.2c3.1,2.6,6.9,4.2,11,4.6l23.4,1.9c0.5,1,1.1,2,1.6,3c0.6,0.9,1.2,1.9,1.8,2.9
		l-10.3,21.1c-1.8,3.8-2.3,7.9-1.7,11.7c0.3,1.5,4.4,11.8,5.6,10.5c5,4.9,10.5,9.6,16.1,13.7c3.4,2.5,7.3,3.8,11.3,3.8
		c3.9,0,7.9-1.1,11.3-3.5l19.1-13.5c1,0.4,2.1,0.8,3.2,1.2c1.1,0.4,2.2,0.8,3.2,1.1l5.8,22.8c1,4,3.2,7.5,6.3,10.1
		c3,2.5,6.8,4.1,11,4.5c3.3,0.2,6.7,0.3,10.5,0.4c3.6,0,7.1-0.1,10.5-0.3c4.2-0.3,8-1.8,11.1-4.3c3-2.6,5.3-6,6.4-10.1l5.9-22.6
		c1.2-0.4,2.3-0.7,3.3-1.1c1.1-0.4,2.3-0.8,3.4-1.2l19,13.7c3.4,2.5,7.3,3.7,11.3,3.7c3.9,0,7.8-1.2,11.2-3.7
		c3.1-2.2,5.9-4.3,8.4-6.4c2.5-2.1,5.1-4.4,7.8-7c2.9-2.7,4.9-6.4,5.7-10.4c0.7-3.9,0.2-8-1.5-11.8L281.6,469.3z M273.8,445.8
		c-2.1,1.4-3.8,3.3-5,5.6c-0.8,1.6-1.6,3.2-2.5,4.7c-0.9,1.5-1.9,3.1-2.9,4.6c-1.5,2.2-2.3,4.6-2.5,7.1c-0.2,2.4,0.3,4.9,1.4,7.3
		l11,23.4c-2.1,2-4.2,3.9-6.5,5.8c-2.3,1.9-4.6,3.7-6.8,5.3l-21-15.2c-2.1-1.5-4.5-2.5-7-2.7c-2.5-0.3-5,0.1-7.4,1.1
		c-1.5,0.6-3.2,1.3-4.9,1.9c-2,0.7-3.7,1.3-5.1,1.7c-2.5,0.7-4.7,2-6.4,3.8c-1.8,1.8-3,4-3.7,6.5l-6.6,25c-3.1,0.2-6,0.3-8.7,0.3
		c-2.6-0.1-5.5-0.2-8.7-0.4l-6.3-25.2c-0.6-2.5-1.9-4.7-3.6-6.5c-1.7-1.8-3.9-3.1-6.4-3.9c-1.6-0.5-3.3-1.1-4.9-1.7
		c-1.4-0.5-3.1-1.2-4.9-2c-2.4-1-4.9-1.4-7.4-1.2c-2.5,0.3-4.9,1.2-7,2.6l-21.2,15c-2.5-1.9-4.8-3.7-6.8-5.4s-4.1-3.7-6.4-5.9
		l11.3-23.4c1.1-2.3,1.6-4.8,1.5-7.3c-0.2-2.4-1-4.8-2.4-7c-0.9-1.5-1.8-3-2.7-4.5c-0.9-1.5-1.7-3-2.5-4.6c-1.1-2.3-2.8-4.2-4.9-5.7
		c-2.1-1.4-4.5-2.2-7-2.5L73,440.3c-1.3-5.7-2.3-11.4-2.9-17.2l23.7-10.6c2.4-1.1,4.4-2.7,5.8-4.7c1.5-2,2.5-4.4,2.8-6.9
		c0.2-2.1,0.5-3.8,0.7-5.2c0.3-1.7,0.7-3.4,1.1-5.1c0.6-2.6,0.6-5.1-0.1-7.5c-0.7-2.3-2-4.5-3.8-6.4l-18.4-18.3
		c1.3-2.7,2.7-5.3,4.1-7.6c1.4-2.4,2.9-4.8,4.7-7.4l24.9,7.1c2.5,0.7,5,0.7,7.5,0.2c2.4-0.6,4.6-1.8,6.5-3.6c1.5-1.4,2.8-2.5,4-3.5
		c1.1-1,2.5-2.1,4.1-3.2c2.3-1.7,4.2-4.1,5.1-6.8c0.7-2,1-4.1,0.8-6.4l-2.3-25.9c2.9-1.2,5.6-2.3,8-3.2c2.5-0.9,5.3-1.8,8.3-2.6
		l14.6,21.4c1.4,2.2,3.3,3.8,5.6,4.9c2.2,1.1,4.7,1.7,7.3,1.5c1.9-0.1,3.7-0.1,5.3-0.1c1.6,0,3.4,0.1,5.4,0.2c2.5,0.1,5-0.4,7.3-1.4
		c2.2-1.1,4.2-2.8,5.6-4.9l14.9-21.3c2.6,0.7,5.3,1.7,8.2,2.7c2.6,1,5.3,2.1,8,3.3l-2.7,25.8c-0.2,2.5,0.2,5,1.2,7.3
		c1,2.3,2.5,4.3,4.6,5.8c1.3,1,2.7,2.1,4.2,3.4c1.4,1.2,2.7,2.4,4,3.6c1.9,1.8,4.1,3.1,6.6,3.7c2.4,0.6,4.9,0.6,7.4-0.1l25-6.8
		c1.5,2.3,3,4.7,4.5,7.3c1.5,2.6,2.9,5.1,4.1,7.7l-18.6,18c-1.9,1.8-3.2,4-3.9,6.4c-0.7,2.4-0.7,5-0.2,7.4c0.5,1.8,0.8,3.6,1.1,5.3
		c0.3,1.8,0.5,3.6,0.7,5.4c0.3,2.5,1.2,4.9,2.7,7c1.5,2,3.4,3.6,5.8,4.7l23.5,10.9c-0.4,3.1-0.8,5.9-1.3,8.6c-0.4,2.4-1,5.2-1.8,8.4
		l-25.9,1.8C278.3,443.6,275.9,444.5,273.8,445.8z"/>
	<path d="M190,361.5c-13.8,0-26.3,5.6-35.4,14.6c-9,9.1-14.6,21.6-14.6,35.4s5.6,26.3,14.6,35.4c9.1,9,21.6,14.6,35.4,14.6
		s26.3-5.6,35.4-14.6c9-9.1,14.6-21.6,14.6-35.4s-5.6-26.3-14.6-35.4C216.3,367.1,203.8,361.5,190,361.5z M211.2,432.7
		c-5.4,5.4-12.9,8.8-21.2,8.8s-15.8-3.4-21.2-8.8c-5.4-5.4-8.8-12.9-8.8-21.2s3.4-15.8,8.8-21.2c5.4-5.4,12.9-8.8,21.2-8.8
		s15.8,3.4,21.2,8.8c5.4,5.4,8.8,12.9,8.8,21.2S216.6,427.3,211.2,432.7z"/>
	<path d="M550,467V207H210v51.1c0.1,0,0.1-0.1,0.2-0.1c6.4-2.2,13.2-2.8,19.8-1.6V227h299.9c0,73.3,0.1,146.7,0.1,220H346.5
		c-0.4,1.7-0.8,3.4-1.2,4.9c-1.4,5.6-4,10.7-7.5,15.1H360v40h-47.4c-1.7,7.7-5.6,14.7-11.2,20H450v-20h-70v-40H550z"/>
</g>
</svg>
