<?xml version="1.0" encoding="UTF-8"?>
<!DOCTYPE svg PUBLIC "-//W3C//DTD SVG 1.1//EN" "http://www.w3.org/Graphics/SVG/1.1/DTD/svg11.dtd">
<svg xmlns="http://www.w3.org/2000/svg" xml:space="preserve" width="580px" height="580px" shape-rendering="geometricPrecision" text-rendering="geometricPrecision" image-rendering="optimizeQuality" fill-rule="nonzero" clip-rule="nonzero" viewBox="0 0 5800 5800" xmlns:xlink="http://www.w3.org/1999/xlink">
	<title>oil_platform icon</title>
	<desc>oil_platform icon from the IconExperience.com I-Collection. Copyright by INCORS GmbH (www.incors.com).</desc>
	<path id="curve0" d="M1700 3100l234 0 169 -2444 397 -397 397 397 169 2444 234 0 0 -600 400 0 0 -600c600,0 1200,0 1800,0l0 200 -400 0 0 1400 200 0 0 200c-467,0 -933,0 -1400,0l0 1258c-100,-76 -141,-171 -200,-277l0 -981 0 0c-533,0 -1067,0 -1600,0l0 987 -68 121c-34,61 -79,112 -132,153l0 -1261c-467,0 -933,0 -1400,0l0 -200 200 0 0 -1400 1000 0 0 1000zm435 0l265 0 0 -2200 200 0 0 2200 265 0 -162 -2356 -203 -203 -203 203 -162 2356zm1365 0l0 100 0 300 1000 0 0 -800 -1000 0 0 400zm-2000 400c0,-400 0,-800 0,-1200l-600 0 0 1200 600 0zm3400 -1400l-1000 0 0 400 800 0 0 1000 200 0 0 -1400zm-4597 3109c235,0 449,-126 563,-331l87 -157 87 157c114,205 328,331 562,331 234,0 446,-124 561,-328l87 -156 87 157c114,205 328,331 563,331 235,0 451,-128 564,-334l87 -158 88 158c113,205 327,330 562,330 234,0 448,-126 562,-331l87 -157 88 157c113,205 327,331 562,331l0 200c-252,0 -490,-112 -650,-306 -160,194 -397,306 -649,306 -252,0 -489,-112 -649,-305 -160,196 -399,309 -652,309 -253,0 -490,-112 -651,-307 -160,192 -396,303 -647,303 -251,0 -489,-113 -649,-306 -160,194 -398,306 -650,306l0 -200zm2997 -1909l-1600 0 0 200 1600 0 0 -200z"/>
</svg>