<?xml version="1.0" encoding="UTF-8"?>
<!DOCTYPE svg PUBLIC "-//W3C//DTD SVG 1.1//EN" "http://www.w3.org/Graphics/SVG/1.1/DTD/svg11.dtd">
<svg xmlns="http://www.w3.org/2000/svg" xml:space="preserve" width="580px" height="580px" shape-rendering="geometricPrecision" text-rendering="geometricPrecision" image-rendering="optimizeQuality" fill-rule="nonzero" clip-rule="nonzero" viewBox="0 0 5800 5800" xmlns:xlink="http://www.w3.org/1999/xlink">
	<title>oil_pump icon</title>
	<desc>oil_pump icon from the IconExperience.com I-Collection. Copyright by INCORS GmbH (www.incors.com).</desc>
	<path id="curve0" d="M2820 2923l648 231 -368 -972 -280 741zm-1406 -227l200 347 939 -542 -112 294 -728 420 200 347 -1125 650 -500 -866 1126 -650zm3779 -1605c228,395 333,846 301,1301l-199 -14c27,-381 -51,-761 -226,-1100l-1547 893 -71 -189 1518 -876c-207,-322 -495,-579 -839,-746l88 -180c409,200 748,517 975,911zm-1614 2356l-886 316 1162 414 -276 -730zm387 1023l-2002 713 -119 317 -214 0 1469 -3882 1469 3882 -213 0 -390 -1030zm-1909 468l1670 -595 -1273 -454 -397 1049zm508 -1342l775 -276 -591 -210 -184 486zm-1224 -627l-780 450 300 520 780 -450 -300 -520z"/>
</svg>