<?xml version="1.0" encoding="UTF-8"?>
<!DOCTYPE svg PUBLIC "-//W3C//DTD SVG 1.1//EN" "http://www.w3.org/Graphics/SVG/1.1/DTD/svg11.dtd">
<svg xmlns="http://www.w3.org/2000/svg" xml:space="preserve" width="580px" height="580px" shape-rendering="geometricPrecision" text-rendering="geometricPrecision" image-rendering="optimizeQuality" fill-rule="nonzero" clip-rule="nonzero" viewBox="0 0 5800 5800" xmlns:xlink="http://www.w3.org/1999/xlink">
	<title>oil_platform icon</title>
	<desc>oil_platform icon from the IconExperience.com I-Collection. Copyright by INCORS GmbH (www.incors.com).</desc>
	<path id="curve0"  d="M3500 3100l0 400 200 0 0 -600 -400 0 0 -400 1400 0 0 1000 200 0 0 -1200 -1200 0 0 -400c600,0 1200,0 1800,0l0 200 -400 0 0 1400 200 0 0 200 -200 0c-1533,0 -3067,0 -4600,0l0 -200 200 0 0 -1400c333,0 667,0 1000,0l0 800 -400 0 0 600 200 0 0 -400 2000 0zm400 800l0 1058c-105,-81 -156,-197 -219,-310 -13,-24 -33,-45 -59,-59 -72,-39 -163,-12 -202,60l-87 159c-87,158 -253,255 -433,255 -181,0 -344,-95 -432,-254l-82 -148c-13,-27 -34,-50 -62,-66 -72,-41 -164,-15 -204,57 -63,113 -115,229 -220,309l0 -1061 2000 0zm-1952 -1000l155 -2244 397 -397 397 397 155 2244 -452 0 0 -2000 -200 0 0 2000 -452 0zm-1645 2309c235,0 449,-126 563,-331l87 -157 87 157c114,205 328,331 562,331 234,0 446,-124 561,-328l87 -156 87 157c114,205 328,331 563,331 235,0 451,-128 564,-334l87 -158 88 158c113,205 327,330 562,330 234,0 448,-126 562,-331l87 -157 88 157c113,205 327,331 562,331l0 291 -5200 0 3 -291z"/>
</svg>