<?xml version="1.0" encoding="UTF-8"?>
<!DOCTYPE svg PUBLIC "-//W3C//DTD SVG 1.1//EN" "http://www.w3.org/Graphics/SVG/1.1/DTD/svg11.dtd">
<svg xmlns="http://www.w3.org/2000/svg" xml:space="preserve" width="580px" height="580px" shape-rendering="geometricPrecision" text-rendering="geometricPrecision" image-rendering="optimizeQuality" fill-rule="nonzero" clip-rule="nonzero" viewBox="0 0 5800 5800" xmlns:xlink="http://www.w3.org/1999/xlink">
	<title>orange icon</title>
	<desc>orange icon from the IconExperience.com I-Collection. Copyright by INCORS GmbH (www.incors.com).</desc>
	<path id="curve0"  d="M3906 2329l-89 181 -89 -181c-40,-80 -119,-138 -208,-150l-200 -29 145 -142c65,-63 94,-155 79,-244l-34 -199 179 94c79,42 177,42 256,0l179 -94 -34 199c-15,89 14,181 79,244l145 142 -200 29c-89,13 -168,70 -208,150zm-1006 -1829c1381,0 2500,1119 2500,2500 0,1381 -1119,2500 -2500,2500 -1381,0 -2500,-1119 -2500,-2500 0,-1381 1119,-2500 2500,-2500zm0 200c-1270,0 -2300,1030 -2300,2300 0,1270 1030,2300 2300,2300 1270,0 2300,-1030 2300,-2300 0,-1270 -1030,-2300 -2300,-2300z"/>
</svg>