<?xml version="1.0" encoding="UTF-8" standalone="no"?>
<!-- Generator: Adobe Illustrator 27.8.0, SVG Export Plug-In . SVG Version: 6.00 Build 0)  -->

<svg
   version="1.1"
   x="0px"
   y="0px"
   viewBox="0 0 1024 1024"
   enable-background="new 0 0 1024 1024"
   xml:space="preserve"
   id="svg46"
   sodipodi:docname="grid_pa_final_black_2.svg"
   inkscape:version="1.4 (86a8ad7, 2024-10-11)"
   xmlns:inkscape="http://www.inkscape.org/namespaces/inkscape"
   xmlns:sodipodi="http://sodipodi.sourceforge.net/DTD/sodipodi-0.dtd"
   xmlns="http://www.w3.org/2000/svg"
   xmlns:svg="http://www.w3.org/2000/svg"><defs
   id="defs46" /><sodipodi:namedview
   id="namedview46"
   pagecolor="#ffffff"
   bordercolor="#000000"
   borderopacity="0.25"
   inkscape:showpageshadow="2"
   inkscape:pageopacity="0.0"
   inkscape:pagecheckerboard="0"
   inkscape:deskcolor="#d1d1d1"
   inkscape:zoom="0.75488281"
   inkscape:cx="511.33765"
   inkscape:cy="510.67529"
   inkscape:window-width="1920"
   inkscape:window-height="991"
   inkscape:window-x="-9"
   inkscape:window-y="1341"
   inkscape:window-maximized="1"
   inkscape:current-layer="svg46" />







<g
   inkscape:groupmode="layer"
   id="layer1"
   inkscape:label="Layer 1"><path
     id="path45"
     d="M 407.2,390.3 V 939.7 H 956.6 V 390.3 Z m 515,515 H 441.5 V 424.6 H 922.2 Z M 235.5,939.7 H 63.8 V 287.3 h 171.7 v 34.3 H 98.1 v 171.7 h 137.4 v 34.3 H 98.1 v 171.7 h 137.4 v 34.3 H 98.1 v 171.7 h 137.4 z m 0,-858.5 V 252.9 H 63.8 V 81.2 Z m 68.6,34.4 V 253 H 269.8 V 81.2 H 922.2 V 252.9 H 887.9 V 115.6 H 716.2 V 253 H 681.9 V 115.6 H 510.2 V 253 H 475.9 V 115.6 Z m 0,583.7 h 68.7 v 34.3 h -68.7 v 171.7 h 68.7 v 34.3 h -103 V 287.3 H 922.2 V 356 H 887.9 V 321.7 H 716.2 V 356 H 681.9 V 321.7 H 510.2 V 356 H 475.9 V 321.7 H 304.1 v 171.7 h 68.7 v 34.3 h -68.7 z m 510.60001,74.90001 h 46.8 v 45.6 h -46.8 z M 767.9,515.6 v 43.5 c -28.2,-26.9 -66.7,-43.5 -109.3,-43.5 -86.2,0 -156.1,68.1 -156.1,152.1 0,84 69.9,152.1 156.1,152.1 43.7,0 83.1,-17.5 111.5,-45.6 h 44.7 V 515.6 Z M 658.6,774.2 c -60.4,0 -109.3,-47.7 -109.3,-106.5 0,-58.8 48.9,-106.5 109.3,-106.5 60.4,0 109.3,47.7 109.3,106.5 0,58.9 -49,106.5 -109.3,106.5 z" /></g></svg>
