<?xml version="1.0" encoding="UTF-8"?>
<!DOCTYPE svg PUBLIC "-//W3C//DTD SVG 1.1//EN" "http://www.w3.org/Graphics/SVG/1.1/DTD/svg11.dtd">
<svg xmlns="http://www.w3.org/2000/svg" xml:space="preserve" width="580px" height="580px" shape-rendering="geometricPrecision" text-rendering="geometricPrecision" image-rendering="optimizeQuality" fill-rule="nonzero" clip-rule="nonzero" viewBox="0 0 5800 5800" xmlns:xlink="http://www.w3.org/1999/xlink">
	<title>pacemaker icon</title>
	<desc>pacemaker icon from the IconExperience.com I-Collection. Copyright by INCORS GmbH (www.incors.com).</desc>
		<path id="curve28"  d="M5100 1100c110,0 200,-90 200,-200 0,-111 -89,-200 -200,-200l-2800 0c-331,0 -600,269 -600,600l0 1050c154,53 293,146 400,270 176,-203 431,-320 700,-320 500,0 927,404 927,909 0,403 -118,624 -359,931 -171,218 -384,391 -599,565 -210,171 -422,343 -590,557l-79 100 -79 -100c-168,-214 -380,-386 -590,-557 -215,-174 -428,-347 -599,-565 -241,-307 -359,-528 -359,-931 0,-505 427,-909 927,-909 34,0 67,2 100,5l0 -1005c0,-442 358,-800 800,-800l2800 0c220,0 400,180 400,400 0,221 -179,400 -400,400l0 400c0,331 -269,600 -600,600 -331,0 -600,-269 -600,-600l0 -600c400,0 800,0 1200,0z"/>
</svg>