<?xml version="1.0" encoding="UTF-8"?>
<!DOCTYPE svg PUBLIC "-//W3C//DTD SVG 1.1//EN" "http://www.w3.org/Graphics/SVG/1.1/DTD/svg11.dtd">
<svg xmlns="http://www.w3.org/2000/svg" xml:space="preserve" width="580px" height="580px" shape-rendering="geometricPrecision" text-rendering="geometricPrecision" image-rendering="optimizeQuality" fill-rule="nonzero" clip-rule="nonzero" viewBox="0 0 5800 5800" xmlns:xlink="http://www.w3.org/1999/xlink">
	<title>pacemaker icon</title>
	<desc>pacemaker icon from the IconExperience.com I-Collection. Copyright by INCORS GmbH (www.incors.com).</desc>
		<path id="curve29"  d="M5100 1100c110,0 200,-90 200,-200 0,-111 -89,-200 -200,-200l-2800 0c-331,0 -600,269 -600,600l0 1100 -200 0 0 -1100c0,-442 358,-800 800,-800l2800 0c220,0 400,180 400,400 0,221 -179,400 -400,400l0 400c0,331 -269,600 -600,600 -331,0 -600,-269 -600,-600l0 -600c400,0 800,0 1200,0zm-200 200l-800 0 0 400c0,221 179,400 400,400 221,0 400,-179 400,-400l0 -400z"/>
	<path id="curve28"  d="M3727 3209c0,228 -41,399 -107,546 -66,145 -154,261 -252,385 -171,218 -384,391 -599,565 -210,171 -422,343 -590,557l-79 100 -79 -100c-168,-214 -380,-386 -590,-557 -215,-174 -428,-347 -599,-565 -98,-124 -186,-240 -252,-385 -66,-147 -107,-318 -107,-546 0,-505 427,-909 927,-909 270,0 524,117 700,320 176,-203 431,-320 700,-320 500,0 927,404 927,909zm-289 464c55,-123 89,-267 89,-464 0,-395 -337,-709 -727,-709 -250,0 -482,128 -616,339l-84 134 -84 -134c-134,-211 -366,-339 -616,-339 -390,0 -727,313 -727,709 0,197 34,341 89,464 57,124 137,230 227,344 158,201 362,366 568,533 188,153 379,308 543,494 164,-186 355,-341 543,-494 206,-167 410,-332 568,-533 90,-114 170,-220 227,-344z"/>
</svg>