<?xml version="1.0" encoding="UTF-8"?>
<!DOCTYPE svg PUBLIC "-//W3C//DTD SVG 1.1//EN" "http://www.w3.org/Graphics/SVG/1.1/DTD/svg11.dtd">
<svg xmlns="http://www.w3.org/2000/svg" xml:space="preserve" width="580px" height="580px" shape-rendering="geometricPrecision" text-rendering="geometricPrecision" image-rendering="optimizeQuality" fill-rule="nonzero" clip-rule="nonzero" viewBox="0 0 5800 5800" xmlns:xlink="http://www.w3.org/1999/xlink">
	<title>pacifier icon</title>
	<desc>pacifier icon from the IconExperience.com I-Collection. Copyright by INCORS GmbH (www.incors.com).</desc>
	<path id="curve0" d="M3383 3455c-78,82 -201,237 -295,393 -64,107 -114,210 -121,281 -26,274 -146,529 -341,723 -461,461 -1217,461 -1678,0 -464,-463 -464,-1215 0,-1678 194,-195 449,-315 723,-341 71,-7 174,-57 281,-121 156,-94 311,-217 393,-295 148,-141 369,-99 579,32 167,105 322,260 427,427 131,210 173,431 32,579zm-1889 -1276c159,92 312,190 459,295 -59,40 -122,79 -185,113 -121,-82 -245,-161 -374,-235 -160,-93 -268,-242 -312,-407 -44,-163 -26,-342 62,-500 1,-2 6,-11 8,-15 185,-313 587,-422 904,-245 8,4 15,9 23,13 263,153 511,319 744,498 483,370 911,798 1281,1281 182,238 352,491 506,758 185,321 75,731 -246,916 -321,185 -731,75 -916,-245 -74,-129 -153,-253 -235,-374 13,-25 29,-53 46,-81 22,-35 44,-70 67,-104 105,147 203,300 295,459 129,224 416,302 642,173 221,-128 307,-422 174,-644 -150,-260 -314,-506 -492,-737 -357,-467 -776,-886 -1243,-1243 -232,-178 -478,-343 -736,-492 -11,-6 -21,-12 -32,-17 -220,-105 -499,-22 -617,197 -61,110 -73,236 -42,350 31,117 106,222 219,286zm4006 -379c0,630 -394,1193 -984,1409 -39,-58 -78,-115 -118,-171 536,-172 902,-672 902,-1238 0,-718 -582,-1300 -1300,-1300 -566,0 -1066,366 -1238,902 -56,-40 -113,-79 -171,-118 216,-590 779,-984 1409,-984 828,0 1500,672 1500,1500zm-2979 2213c0,406 -329,734 -734,734l0 -200c295,0 534,-239 534,-534l200 0zm396 -268c101,-168 235,-337 322,-428 65,-68 28,-200 -57,-335 -86,-138 -226,-278 -364,-364 -135,-85 -267,-122 -335,-57 -91,87 -260,221 -427,322 -129,78 -261,138 -366,148 -228,22 -439,123 -601,284 -386,386 -386,1010 0,1396 383,383 1012,383 1396,0 161,-162 262,-373 284,-601 10,-105 70,-237 148,-365z"/>
</svg>