<?xml version="1.0" encoding="UTF-8"?>
<!DOCTYPE svg PUBLIC "-//W3C//DTD SVG 1.1//EN" "http://www.w3.org/Graphics/SVG/1.1/DTD/svg11.dtd">
<svg xmlns="http://www.w3.org/2000/svg" xml:space="preserve" width="580px" height="580px" shape-rendering="geometricPrecision" text-rendering="geometricPrecision" image-rendering="optimizeQuality" fill-rule="nonzero" clip-rule="nonzero" viewBox="0 0 5800 5800" xmlns:xlink="http://www.w3.org/1999/xlink">
	<title>pacifier icon</title>
	<desc>pacifier icon from the IconExperience.com I-Collection. Copyright by INCORS GmbH (www.incors.com).</desc>
	<path id="curve0"  d="M3383 3455c-124,131 -398,493 -416,674 -26,274 -146,529 -341,723 -461,461 -1217,461 -1678,0 -464,-463 -464,-1215 0,-1678 194,-195 449,-315 723,-341 181,-18 543,-292 674,-416 240,-228 628,34 816,222 188,188 451,576 222,816zm-862 558l-200 0c0,295 -239,534 -534,534l0 200c405,0 734,-328 734,-734zm1843 638c-321,185 -731,75 -916,-245 -74,-129 -153,-253 -235,-374 80,-150 198,-317 315,-440 320,-336 46,-822 -226,-1094 -272,-272 -758,-546 -1094,-226 -123,117 -290,235 -440,315 -121,-82 -245,-161 -374,-235 -317,-184 -429,-587 -250,-907 2,-5 5,-10 8,-15 93,-157 240,-263 404,-307 163,-43 342,-26 500,62 5,3 10,5 15,8 524,304 1007,673 1435,1101 429,429 800,915 1104,1441 89,152 113,338 67,509 -44,166 -152,314 -313,407zm1136 -2851c0,630 -394,1193 -984,1409 -39,-58 -78,-115 -118,-171 536,-172 902,-672 902,-1238 0,-718 -582,-1300 -1300,-1300 -566,0 -1066,366 -1238,902 -56,-40 -113,-79 -171,-118 216,-590 779,-984 1409,-984 828,0 1500,672 1500,1500z"/>
</svg>