<?xml version="1.0" encoding="UTF-8"?>
<!DOCTYPE svg PUBLIC "-//W3C//DTD SVG 1.1//EN" "http://www.w3.org/Graphics/SVG/1.1/DTD/svg11.dtd">
<svg xmlns="http://www.w3.org/2000/svg" xml:space="preserve" width="580px" height="580px" shape-rendering="geometricPrecision" text-rendering="geometricPrecision" image-rendering="optimizeQuality" fill-rule="nonzero" clip-rule="nonzero" viewBox="0 0 5800 5800" xmlns:xlink="http://www.w3.org/1999/xlink">
	<title>package icon</title>
	<desc>package icon from the IconExperience.com I-Collection. Copyright by INCORS GmbH (www.incors.com).</desc>
		<path id="curve28" d="M2141 1100l859 390 859 -390 -859 -390 -859 390zm1959 110l-859 390 857 390 859 -391 -857 -389zm1200 326l0 2628 -2300 1046 -2300 -1046 0 -2628 2300 -1046c767,349 1533,697 2300,1046zm-200 218l-2000 909 0 2282 2000 -909 0 -2282zm-2200 3191l0 -2281 -2000 -909 0 2281 2000 909zm-1859 -3345l859 390 859 -390 -859 -390 -859 390zm1964 892l-3 -4 855 -389 -857 -389 -859 390 864 392z"/>
</svg>