<?xml version="1.0" encoding="UTF-8"?>
<!DOCTYPE svg PUBLIC "-//W3C//DTD SVG 1.1//EN" "http://www.w3.org/Graphics/SVG/1.1/DTD/svg11.dtd">
<svg xmlns="http://www.w3.org/2000/svg" xml:space="preserve" width="580px" height="580px" shape-rendering="geometricPrecision" text-rendering="geometricPrecision" image-rendering="optimizeQuality" fill-rule="nonzero" clip-rule="nonzero" viewBox="0 0 5800 5800" xmlns:xlink="http://www.w3.org/1999/xlink">
	<title>packaging_tape icon</title>
	<desc>packaging_tape icon from the IconExperience.com I-Collection. Copyright by INCORS GmbH (www.incors.com).</desc>
	<path id="curve0"  d="M4080 1242c-388,-377 -890,-561 -1392,-556 -1107,10 -2017,903 -1995,2019 9,483 192,966 540,1349 -89,-243 -133,-499 -133,-754 0,-1215 985,-2200 2200,-2200 265,0 529,47 780,142zm160 -122c642,652 1260,1128 1260,2180 0,1215 -985,2200 -2200,2200l-2241 0 -800 -800 1050 0 199 200 -767 0 400 400 1241 0c-250,-115 -475,-276 -666,-474 -185,-186 -370,-373 -556,-558 -430,-431 -656,-995 -666,-1559 -24,-1229 974,-2211 2192,-2222 563,-5 1125,203 1554,633zm-939 806c774,0 1401,627 1401,1401 0,774 -627,1401 -1401,1401 -774,0 -1401,-627 -1401,-1401 0,-774 627,-1401 1401,-1401zm0 200c-663,0 -1201,538 -1201,1201 0,663 538,1201 1201,1201 663,0 1201,-538 1201,-1201 0,-663 -538,-1201 -1201,-1201zm-2001 1174c0,1105 895,2000 2000,2000 1105,0 2000,-895 2000,-2000 0,-1105 -895,-2000 -2000,-2000 -1105,0 -2000,895 -2000,2000z"/>
</svg>