<?xml version="1.0" encoding="UTF-8"?>
<!DOCTYPE svg PUBLIC "-//W3C//DTD SVG 1.1//EN" "http://www.w3.org/Graphics/SVG/1.1/DTD/svg11.dtd">
<svg xmlns="http://www.w3.org/2000/svg" xml:space="preserve" width="580px" height="580px" shape-rendering="geometricPrecision" text-rendering="geometricPrecision" image-rendering="optimizeQuality" fill-rule="nonzero" clip-rule="nonzero" viewBox="0 0 5800 5800" xmlns:xlink="http://www.w3.org/1999/xlink">
	<title>packaging_paper icon</title>
	<desc>packaging_paper icon from the IconExperience.com I-Collection. Copyright by INCORS GmbH (www.incors.com).</desc>
	<path id="curve0" d="M4700 3600c0,-55 45,-100 100,-100 55,0 100,45 100,100 0,56 44,100 100,100 56,0 100,-44 100,-100 0,-166 -134,-300 -300,-300 -166,0 -300,134 -300,300 0,276 224,500 500,500 276,0 500,-224 500,-500 0,-193 -78,-368 -205,-495 -127,-127 -302,-205 -495,-205 -366,0 -513,239 -694,532 -129,209 -274,443 -516,651 -169,145 -364,217 -586,217l-1304 0c-28,0 -52,-12 -70,-30l-1501 -1499c-66,-67 -12,-178 80,-171l1285 0c174,0 323,-56 456,-169 219,-188 355,-408 476,-605 213,-345 387,-627 864,-627 236,0 463,94 631,259l1498 1488c180,171 281,406 281,654 0,387 -313,700 -700,700 -387,0 -700,-313 -700,-700 0,-276 224,-500 500,-500 276,0 500,224 500,500 0,165 -135,300 -300,300 -165,0 -300,-135 -300,-300zm100 -900c31,0 62,2 92,5l-1111 -1105c-132,-130 -306,-201 -491,-201 -366,0 -514,239 -694,532 -130,210 -274,443 -517,652 -169,145 -362,216 -585,216l-1053 0 1301 1301 1262 0c175,0 323,-55 456,-168 220,-189 355,-408 477,-605 212,-345 386,-627 863,-627z"/>
</svg>