<?xml version="1.0" encoding="UTF-8"?>
<!DOCTYPE svg PUBLIC "-//W3C//DTD SVG 1.1//EN" "http://www.w3.org/Graphics/SVG/1.1/DTD/svg11.dtd">
<svg xmlns="http://www.w3.org/2000/svg" xml:space="preserve" width="580px" height="580px" shape-rendering="geometricPrecision" text-rendering="geometricPrecision" image-rendering="optimizeQuality" fill-rule="nonzero" clip-rule="nonzero" viewBox="0 0 5800 5800" xmlns:xlink="http://www.w3.org/1999/xlink">
	<title>packaging_tape icon</title>
	<desc>packaging_tape icon from the IconExperience.com I-Collection. Copyright by INCORS GmbH (www.incors.com).</desc>
	<path id="curve0"  d="M3187 5497l2 3 -189 0 -1941 0 -30 -29 -770 -771 1331 0c-143,-144 -286,-289 -430,-432 -430,-431 -656,-995 -666,-1559 -24,-1229 974,-2211 2192,-2222 563,-5 1125,203 1554,633l601 610c-427,-420 -984,-630 -1541,-630 -1215,0 -2200,985 -2200,2200 0,1172 919,2137 2087,2197zm1315 -2170c0,663 -538,1201 -1201,1201 -663,0 -1201,-538 -1201,-1201 0,-663 538,-1201 1201,-1201 663,0 1201,538 1201,1201zm-3202 -27c0,1105 895,2000 2000,2000 1105,0 2000,-895 2000,-2000 0,-1105 -895,-2000 -2000,-2000 -1105,0 -2000,895 -2000,2000z"/>
</svg>