<?xml version="1.0" encoding="UTF-8"?>
<!DOCTYPE svg PUBLIC "-//W3C//DTD SVG 1.1//EN" "http://www.w3.org/Graphics/SVG/1.1/DTD/svg11.dtd">
<svg xmlns="http://www.w3.org/2000/svg" xml:space="preserve" width="580px" height="580px" shape-rendering="geometricPrecision" text-rendering="geometricPrecision" image-rendering="optimizeQuality" fill-rule="nonzero" clip-rule="nonzero" viewBox="0 0 5800 5800" xmlns:xlink="http://www.w3.org/1999/xlink">
	<title>pager icon</title>
	<desc>pager icon from the IconExperience.com I-Collection. Copyright by INCORS GmbH (www.incors.com).</desc>
		<path id="curve28" d="M3077 3850l-577 -289 0 578 577 -289zm446 0l-1223 611 0 -1222 1223 611zm-2200 0l577 289 0 -578 -577 289zm-446 0l1223 -611 0 1222 -1223 -611zm3423 -550c331,0 600,269 600,600 0,331 -269,600 -600,600 -331,0 -600,-269 -600,-600 0,-331 269,-600 600,-600zm0 200c-221,0 -400,179 -400,400 0,221 179,400 400,400 221,0 400,-179 400,-400 0,-221 -179,-400 -400,-400zm600 -2200l0 1800 -4000 0 0 -1800 4000 0zm-200 200l-3600 0 0 1400 3600 0 0 -1400zm-3800 -800l4000 0c330,0 600,270 600,600l0 3000c0,330 -270,600 -600,600l-4000 0c-330,0 -600,-270 -600,-600l0 -3000c0,-330 270,-600 600,-600zm4000 200l-4000 0c-220,0 -400,180 -400,400l0 3000c0,220 180,400 400,400l4000 0c220,0 400,-180 400,-400l0 -3000c0,-220 -180,-400 -400,-400z"/>
</svg>