<?xml version="1.0" encoding="UTF-8"?>
<!DOCTYPE svg PUBLIC "-//W3C//DTD SVG 1.1//EN" "http://www.w3.org/Graphics/SVG/1.1/DTD/svg11.dtd">
<svg xmlns="http://www.w3.org/2000/svg" xml:space="preserve" width="580px" height="580px" shape-rendering="geometricPrecision" text-rendering="geometricPrecision" image-rendering="optimizeQuality" fill-rule="nonzero" clip-rule="nonzero" viewBox="0 0 5800 5800" xmlns:xlink="http://www.w3.org/1999/xlink">
	<title>pager icon</title>
	<desc>pager icon from the IconExperience.com I-Collection. Copyright by INCORS GmbH (www.incors.com).</desc>
		<path id="curve28"  d="M900 700l4000 0c330,0 600,270 600,600l0 3000c0,330 -270,600 -600,600l-4000 0c-330,0 -600,-270 -600,-600l0 -3000c0,-330 270,-600 600,-600zm100 700l0 1600 3800 0 0 -1600 -3800 0zm3300 2000c-276,0 -500,224 -500,500 0,276 224,500 500,500 276,0 500,-224 500,-500 0,-276 -224,-500 -500,-500zm-3200 450l900 450 0 -900 -900 450zm2200 0l-900 -450 0 900 900 -450z"/>
</svg>