<?xml version="1.0" encoding="UTF-8"?>
<!DOCTYPE svg PUBLIC "-//W3C//DTD SVG 1.1//EN" "http://www.w3.org/Graphics/SVG/1.1/DTD/svg11.dtd">
<svg xmlns="http://www.w3.org/2000/svg" xml:space="preserve" width="580px" height="580px" shape-rendering="geometricPrecision" text-rendering="geometricPrecision" image-rendering="optimizeQuality" fill-rule="nonzero" clip-rule="nonzero" viewBox="0 0 5800 5800" xmlns:xlink="http://www.w3.org/1999/xlink">
	<title>pagoda icon</title>
	<desc>pagoda icon from the IconExperience.com I-Collection. Copyright by INCORS GmbH (www.incors.com).</desc>
	<path id="curve0"  d="M1775 926c193,43 378,-4 526,-134l599 -524 599 524c148,130 333,177 526,134l675 -150 0 465 -559 559 -311 0 77 51c142,95 297,124 463,87l730 -162 0 465 -559 559 -311 0 77 51c142,95 297,124 463,87l730 -162 0 465 -559 559 -441 0 0 1700 -1200 0 0 -1200 -800 0 0 1200 -1200 0 0 -1700 -441 0 -559 -559 0 -465 730 162c166,37 321,8 463,-87l77 -51 -311 0 -559 -559 0 -465 730 162c166,37 321,8 463,-87l77 -51 -311 0 -559 -559 0 -465 675 150zm2525 2874l-2800 0 0 1500 800 0 0 -1200 1200 0 0 1200 800 0 0 -1500zm-430 -1000l-1940 0 -326 217c-188,125 -397,164 -617,115l-487 -108 0 135 441 441 3918 0 441 -441 0 -135 -487 108c-219,49 -429,10 -617,-115l-326 -217zm-400 -1000l-1140 0 -326 217c-188,125 -397,164 -617,115l-487 -108 0 135 441 441c1039,0 2079,0 3118,0l441 -441 0 -135 -487 108c-220,49 -429,10 -617,-115l-326 -217zm589 -200l441 -441 0 -135 -432 96c-257,57 -503,-5 -700,-178l-468 -410 -468 410c-197,173 -443,235 -700,178l-432 -96 0 135 441 441c773,0 1545,0 2318,0z"/>
</svg>