<?xml version="1.0" encoding="UTF-8"?>
<!DOCTYPE svg PUBLIC "-//W3C//DTD SVG 1.1//EN" "http://www.w3.org/Graphics/SVG/1.1/DTD/svg11.dtd">
<svg xmlns="http://www.w3.org/2000/svg" xml:space="preserve" width="580px" height="580px" shape-rendering="geometricPrecision" text-rendering="geometricPrecision" image-rendering="optimizeQuality" fill-rule="nonzero" clip-rule="nonzero" viewBox="0 0 5800 5800" xmlns:xlink="http://www.w3.org/1999/xlink">
	<title>pagoda icon</title>
	<desc>pagoda icon from the IconExperience.com I-Collection. Copyright by INCORS GmbH (www.incors.com).</desc>
	<path id="curve0"  d="M1775 926c97,21 191,20 280,-2 89,-23 172,-67 246,-132l599 -524 599 524c74,65 157,109 246,132 89,22 183,23 280,2l675 -150 0 465 -359 359 -2882 0 -359 -359 0 -465 675 150zm2055 874c99,66 173,120 299,144 77,14 158,12 241,-6l730 -162c0,155 0,310 0,465l-359 359 -3682 0 -359 -359c0,-155 0,-310 0,-465l730 162c83,18 164,20 241,6 126,-24 200,-78 299,-144l1860 0zm400 1000c99,66 173,121 299,144 77,14 158,12 241,-6l730 -162 0 465 -359 359 -4482 0 -359 -359c0,-155 0,-310 0,-465l730 162c83,18 164,20 241,6 126,-23 200,-78 299,-144l2660 0zm270 1000l0 1700 -1200 0 0 -1200 -800 0 0 1200 -1200 0 0 -1700 3200 0z"/>
</svg>