<?xml version="1.0" encoding="UTF-8"?>
<!DOCTYPE svg PUBLIC "-//W3C//DTD SVG 1.1//EN" "http://www.w3.org/Graphics/SVG/1.1/DTD/svg11.dtd">
<svg xmlns="http://www.w3.org/2000/svg" xml:space="preserve" width="580px" height="580px" shape-rendering="geometricPrecision" text-rendering="geometricPrecision" image-rendering="optimizeQuality" fill-rule="nonzero" clip-rule="nonzero" viewBox="0 0 5800 5800" xmlns:xlink="http://www.w3.org/1999/xlink">
	<title>paint_roller icon</title>
	<desc>paint_roller icon from the IconExperience.com I-Collection. Copyright by INCORS GmbH (www.incors.com).</desc>
		<path id="curve28"  d="M2800 3100l0 -100c0,-275 225,-500 500,-500l1500 0c165,0 300,-135 300,-300l0 -700c0,-55 -45,-100 -100,-100l0 -200c165,0 300,135 300,300l0 700c0,276 -224,500 -500,500l-1500 0c-165,0 -300,135 -300,300l0 100 400 0 0 2400 -1000 0 0 -2400 400 0zm-1500 -2600l3200 0c220,0 400,180 400,400l0 800c0,220 -180,400 -400,400l-3200 0c-220,0 -400,-180 -400,-400l0 -800c0,-220 180,-400 400,-400zm3200 200l-3200 0c-110,0 -200,90 -200,200l0 800c0,110 90,200 200,200l3200 0c110,0 200,-90 200,-200l0 -800c0,-110 -90,-200 -200,-200zm-1300 2600l-600 0 0 2000 600 0 0 -2000z"/>
</svg>