<?xml version="1.0" encoding="UTF-8"?>
<!DOCTYPE svg PUBLIC "-//W3C//DTD SVG 1.1//EN" "http://www.w3.org/Graphics/SVG/1.1/DTD/svg11.dtd">
<svg xmlns="http://www.w3.org/2000/svg" xml:space="preserve" width="580px" height="580px" shape-rendering="geometricPrecision" text-rendering="geometricPrecision" image-rendering="optimizeQuality" fill-rule="nonzero" clip-rule="nonzero" viewBox="0 0 5800 5800" xmlns:xlink="http://www.w3.org/1999/xlink">
	<title>paint_bucket icon</title>
	<desc>paint_bucket icon from the IconExperience.com I-Collection. Copyright by INCORS GmbH (www.incors.com).</desc>
		<path id="curve29" d="M5100 1500l0 4000 -4400 0 0 -2805c59,45 127,78 200,94l0 2511 4000 0 0 -3800 200 0z"/>
	<path id="curve28" d="M4000 2000c-308,0 -400,226 -400,500l0 300c0,110 -90,200 -200,200 -350,0 -52,-500 -400,-500 -110,0 -200,90 -200,200l-1 1700c0,110 -90,200 -200,200 -111,0 -200,-90 -200,-200l1 -900c0,-200 0,-400 -200,-400 -200,0 -100,400 -400,400 -400,0 0,-900 -800,-900 -200,0 -300,-190 -300,-300l0 -1000 -200 0c-110,0 -200,-90 -200,-200l0 -200c0,-110 90,-200 200,-200l4800 0c110,0 200,90 200,200l0 200c0,110 -90,200 -200,200l-600 0c-500,0 -200,700 -700,700z"/>
</svg>