<?xml version="1.0" encoding="UTF-8"?>
<!DOCTYPE svg PUBLIC "-//W3C//DTD SVG 1.1//EN" "http://www.w3.org/Graphics/SVG/1.1/DTD/svg11.dtd">
<svg xmlns="http://www.w3.org/2000/svg" xml:space="preserve" width="580px" height="580px" shape-rendering="geometricPrecision" text-rendering="geometricPrecision" image-rendering="optimizeQuality" fill-rule="nonzero" clip-rule="nonzero" viewBox="0 0 5800 5800" xmlns:xlink="http://www.w3.org/1999/xlink">
	<title>painters_palette_empty icon</title>
	<desc>painters_palette_empty icon from the IconExperience.com I-Collection. Copyright by INCORS GmbH (www.incors.com).</desc>
		<path id="curve28"  d="M1088 2918c-238,-67 -450,-141 -548,-390 -104,-261 17,-521 133,-753 178,-358 427,-672 731,-917 578,-466 1319,-651 2049,-514 688,130 1254,509 1573,1141 343,676 356,1499 82,2200 -283,724 -839,1273 -1555,1568 -628,259 -1500,337 -2154,131 -334,-106 -631,-295 -820,-617 -129,-221 -91,-499 94,-676 155,-149 343,-265 524,-377 174,-107 415,-256 415,-442 0,-246 -336,-302 -524,-354zm1612 -718c-276,0 -500,224 -500,500 0,276 224,500 500,500 276,0 500,-224 500,-500 0,-276 -224,-500 -500,-500z"/>
</svg>