<?xml version="1.0" encoding="UTF-8"?>
<!DOCTYPE svg PUBLIC "-//W3C//DTD SVG 1.1//EN" "http://www.w3.org/Graphics/SVG/1.1/DTD/svg11.dtd">
<svg xmlns="http://www.w3.org/2000/svg" xml:space="preserve" width="580px" height="580px" shape-rendering="geometricPrecision" text-rendering="geometricPrecision" image-rendering="optimizeQuality" fill-rule="nonzero" clip-rule="nonzero" viewBox="0 0 5800 5800" xmlns:xlink="http://www.w3.org/1999/xlink">
	<title>painting_landscape icon</title>
	<desc>painting_landscape icon from the IconExperience.com I-Collection. Copyright by INCORS GmbH (www.incors.com).</desc>
		<path id="curve28"  d="M800 700c187,0 381,52 575,104 181,48 362,96 525,96 161,0 316,-48 471,-95 170,-53 340,-105 529,-105 187,0 381,52 575,104 181,48 362,96 525,96 161,0 316,-48 471,-95 170,-53 340,-105 529,-105 138,0 263,56 353,147 91,90 147,215 147,353 0,159 -54,298 -107,436 -46,120 -93,240 -93,364 0,127 47,273 95,420 52,162 105,324 105,480 0,156 -53,318 -105,480 -48,147 -95,293 -95,420 0,124 47,244 93,364 53,138 107,277 107,436 0,138 -56,263 -147,353 -90,91 -215,147 -353,147 -189,0 -359,-52 -529,-105 -155,-47 -310,-95 -471,-95 -163,0 -344,48 -525,96 -194,52 -388,104 -575,104 -187,0 -381,-52 -575,-104 -181,-48 -362,-96 -525,-96 -161,0 -316,48 -471,95 -170,53 -340,105 -529,105 -138,0 -263,-56 -353,-147 -91,-90 -147,-215 -147,-353 0,-159 54,-298 107,-436 47,-120 93,-240 93,-364 0,-127 -47,-273 -95,-420 -52,-162 -105,-324 -105,-480 0,-156 53,-318 105,-480 48,-147 95,-293 95,-420 0,-124 -46,-244 -93,-364 -53,-138 -107,-277 -107,-436 0,-138 56,-263 147,-353 90,-91 215,-147 353,-147zm301 2501c210,-156 447,-296 717,-301 203,-3 379,86 549,171 7,0 358,171 418,197 -7,6 -15,11 -22,17 -52,42 -104,83 -157,121 -22,-10 -330,-154 -328,-157 -148,-74 -302,-152 -457,-149 -269,4 -518,193 -720,353l-1 305c225,79 480,143 719,142 421,-1 752,-203 1070,-459 127,-102 246,-213 366,-325 109,-102 220,-200 331,-300 161,-144 345,-310 580,-316 162,-3 303,66 423,165 40,32 76,67 111,104l0 -1269 -3597 0 -2 1701zm3599 -119c-68,-91 -147,-189 -237,-263 -87,-72 -186,-122 -293,-119 -160,3 -315,143 -450,264 -110,99 -220,197 -329,298 -122,114 -244,227 -377,335 -357,287 -724,501 -1195,503 -242,0 -490,-56 -719,-132l0 332 3600 0 0 -1218zm200 -1782l0 3200 -4000 0 4 -3200 3996 0zm-2200 400c331,0 600,269 600,600 0,331 -269,600 -600,600 -331,0 -600,-269 -600,-600 0,-331 269,-600 600,-600zm0 200c-221,0 -400,179 -400,400 0,221 179,400 400,400 221,0 400,-179 400,-400 0,-221 -179,-400 -400,-400zm-1375 -904c-181,-48 -362,-96 -525,-96 -83,0 -158,34 -212,88 -54,54 -88,129 -88,212 0,124 46,244 93,364 53,138 107,277 107,436 0,156 -53,318 -105,480 -48,147 -95,293 -95,420 0,127 47,273 95,420 52,162 105,324 105,480 0,159 -54,298 -107,436 -47,120 -93,240 -93,364 0,83 34,158 88,212 54,54 129,88 212,88 161,0 316,-48 471,-95 170,-53 340,-105 529,-105 187,0 381,52 575,104 181,48 362,96 525,96 163,0 344,-48 525,-96 194,-52 388,-104 575,-104 189,0 359,52 529,105 155,47 310,95 471,95 83,0 158,-34 212,-88 54,-54 88,-129 88,-212 0,-124 -46,-244 -93,-364 -53,-138 -107,-277 -107,-436 0,-156 53,-318 105,-480 48,-147 95,-293 95,-420 0,-127 -47,-273 -95,-420 -52,-162 -105,-324 -105,-480 0,-159 54,-298 107,-436 47,-120 93,-240 93,-364 0,-83 -34,-158 -88,-212 -54,-54 -129,-88 -212,-88 -161,0 -316,48 -471,95 -170,53 -340,105 -529,105 -187,0 -381,-52 -575,-104 -181,-48 -362,-96 -525,-96 -161,0 -316,48 -471,95 -170,53 -340,105 -529,105 -187,0 -381,-52 -575,-104z"/>
</svg>