<?xml version="1.0" encoding="UTF-8"?>
<!DOCTYPE svg PUBLIC "-//W3C//DTD SVG 1.1//EN" "http://www.w3.org/Graphics/SVG/1.1/DTD/svg11.dtd">
<svg xmlns="http://www.w3.org/2000/svg" xml:space="preserve" width="580px" height="580px" shape-rendering="geometricPrecision" text-rendering="geometricPrecision" image-rendering="optimizeQuality" fill-rule="nonzero" clip-rule="nonzero" viewBox="0 0 5800 5800" xmlns:xlink="http://www.w3.org/1999/xlink">
	<title>painters_palette_brush icon</title>
	<desc>painters_palette_brush icon from the IconExperience.com I-Collection. Copyright by INCORS GmbH (www.incors.com).</desc>
		<path id="curve28"  d="M1044 2707c-135,-38 -256,-69 -366,-164 -60,-51 -109,-116 -141,-197 -96,-241 15,-480 122,-695 321,-646 899,-1136 1608,-1295 610,-137 1278,-20 1793,338 255,178 451,420 589,692 11,22 22,44 32,67 -316,235 -654,499 -994,783 -369,309 -741,644 -1091,994 -38,37 -84,89 -115,132 -79,97 -166,185 -160,321 -81,26 -151,86 -186,170 -14,35 -21,71 -22,106 -30,-1 -60,0 -90,2 -479,32 -715,351 -819,785 -11,48 -23,107 -45,150 -237,-104 -444,-264 -585,-505 -61,-102 -82,-218 -66,-329 31,-223 192,-349 364,-470 87,-61 178,-118 269,-173 157,-97 375,-232 375,-397 0,-52 -8,-97 -47,-136 -81,-82 -269,-135 -425,-179zm2144 1830c51,2 104,-10 152,-36 21,-11 40,-24 57,-39 78,-62 161,-129 231,-199 351,-351 685,-723 994,-1092 84,-100 166,-199 246,-299 -30,182 -77,359 -144,531 -127,326 -322,625 -570,872 -248,247 -539,434 -855,564 -126,52 -255,95 -388,129 15,-73 19,-147 12,-221 123,-9 228,-92 265,-210zm-1618 -2428c318,-107 141,-134 273,-183 141,-52 30,-163 127,-248 146,-128 2,-368 -181,-295 -60,24 -137,-5 -219,-5 -92,0 -243,130 -205,224 34,85 22,141 -69,233 -92,91 0,365 274,274zm1128 -1267c-87,0 -208,101 -277,-8 -23,-35 -49,-69 -95,-69 -44,0 -81,27 -94,64 -22,67 -113,67 -113,191 0,81 58,150 138,172 32,9 56,31 65,60 25,74 99,128 187,128 61,0 116,-26 152,-67 29,-34 80,-43 121,-23 18,9 40,15 68,15 80,0 146,-60 146,-135 0,-44 -24,-83 -59,-108 -23,-15 -36,-37 -39,-62 -11,-91 -100,-158 -200,-158zm1174 1079c97,0 175,-80 175,-179 0,-20 -3,-40 -9,-59 -7,-20 -7,-39 0,-60 6,-18 9,-38 9,-59 0,-79 -49,-146 -117,-170 -100,-37 -14,-191 -146,-191 -45,0 -80,-11 -97,-60 -24,-70 -89,-120 -166,-120 -96,0 -177,81 -175,180 6,226 -175,177 -175,361 0,99 78,180 175,180 118,0 241,-100 286,-25 52,87 65,202 240,202zm-1355 122c-252,0 -456,205 -456,457 0,252 204,457 456,457 253,0 457,-205 457,-457 0,-252 -204,-457 -457,-457zm2881 -613c100,100 146,219 55,345 -278,386 -612,824 -984,1268 -304,363 -634,730 -982,1078 -68,68 -147,132 -223,191 -48,43 -123,30 -154,-27 -51,-96 -116,-185 -189,-266 -96,-106 -213,-195 -341,-258 -58,-26 -78,-100 -39,-152 35,-46 71,-93 108,-137 38,-47 69,-81 88,-100 348,-348 715,-678 1078,-982 444,-373 882,-706 1269,-985 97,-70 229,-60 314,25zm-3024 2630c-51,-21 -75,-79 -54,-130 21,-51 79,-75 130,-54 136,56 255,142 353,250 76,84 141,178 189,279 24,50 3,110 -47,133 -50,24 -110,2 -133,-48 -40,-84 -93,-160 -156,-230 -79,-86 -174,-155 -282,-200zm164 307c131,145 188,301 188,449 0,413 -410,684 -795,684l-1072 0c77,-77 152,-154 231,-228 93,-85 228,-211 273,-350 14,-41 24,-85 35,-129 83,-347 249,-607 639,-633 197,-13 370,63 501,207z"/>
</svg>