<?xml version="1.0" encoding="UTF-8"?>
<!DOCTYPE svg PUBLIC "-//W3C//DTD SVG 1.1//EN" "http://www.w3.org/Graphics/SVG/1.1/DTD/svg11.dtd">
<svg xmlns="http://www.w3.org/2000/svg" xml:space="preserve" width="580px" height="580px" shape-rendering="geometricPrecision" text-rendering="geometricPrecision" image-rendering="optimizeQuality" fill-rule="nonzero" clip-rule="nonzero" viewBox="0 0 5800 5800" xmlns:xlink="http://www.w3.org/1999/xlink">
	<title>painters_palette_empty icon</title>
	<desc>painters_palette_empty icon from the IconExperience.com I-Collection. Copyright by INCORS GmbH (www.incors.com).</desc>
		<path id="curve28" d="M2700 2100c331,0 600,269 600,600 0,331 -269,600 -600,600 -331,0 -600,-269 -600,-600 0,-331 269,-600 600,-600zm0 200c-221,0 -400,179 -400,400 0,221 179,400 400,400 221,0 400,-179 400,-400 0,-221 -179,-400 -400,-400zm-1702 383c42,14 92,28 144,42 195,55 430,121 558,250 43,44 72,91 89,143 17,50 23,101 23,154 0,297 -296,480 -510,612 -167,103 -349,214 -491,350 -59,57 -95,130 -105,206 -11,76 4,155 45,226 160,273 418,435 708,527 300,95 635,116 939,105 372,-14 739,-89 1079,-229 321,-132 617,-322 868,-573 384,-382 635,-880 722,-1413 29,-181 39,-365 30,-548 -17,-331 -99,-664 -249,-960 -291,-575 -806,-917 -1432,-1035 -312,-58 -636,-54 -944,16 -351,78 -670,238 -943,458 -281,227 -512,517 -677,849 -48,97 -102,205 -130,309 -26,95 -33,192 3,282 21,55 55,99 96,135 49,42 110,72 177,94zm90 235c-55,-16 -107,-30 -152,-45 -90,-30 -174,-73 -244,-133 -65,-56 -118,-125 -152,-212 -55,-137 -47,-275 -10,-409 34,-124 91,-240 143,-344 178,-358 427,-672 731,-917 296,-238 642,-411 1024,-497 335,-75 687,-80 1025,-17 688,130 1254,509 1573,1141 163,321 252,683 270,1041 10,197 -1,394 -33,589 -93,575 -364,1111 -777,1522 -271,270 -589,474 -933,616 -362,149 -753,230 -1148,244 -324,12 -682,-11 -1006,-113 -334,-106 -631,-295 -820,-617 -65,-111 -87,-236 -71,-355 17,-119 73,-233 165,-321 155,-149 343,-265 524,-377 174,-107 415,-256 415,-442 0,-34 -3,-64 -12,-90 -8,-24 -21,-46 -41,-66 -91,-92 -299,-150 -471,-198z"/>
</svg>