<?xml version="1.0" encoding="UTF-8"?>
<!DOCTYPE svg PUBLIC "-//W3C//DTD SVG 1.1//EN" "http://www.w3.org/Graphics/SVG/1.1/DTD/svg11.dtd">
<svg xmlns="http://www.w3.org/2000/svg" xml:space="preserve" width="580px" height="580px" shape-rendering="geometricPrecision" text-rendering="geometricPrecision" image-rendering="optimizeQuality" fill-rule="nonzero" clip-rule="nonzero" viewBox="0 0 5800 5800" xmlns:xlink="http://www.w3.org/1999/xlink">
	<title>paint_bucket icon</title>
	<desc>paint_bucket icon from the IconExperience.com I-Collection. Copyright by INCORS GmbH (www.incors.com).</desc>
		<path id="curve28"  d="M4000 2000c-308,0 -400,226 -400,500l0 300c0,110 -90,200 -200,200 -350,0 -52,-500 -400,-500 -110,0 -200,90 -200,200l-1 1700c0,110 -90,200 -200,200 -111,0 -200,-90 -200,-200l1 -900c0,-200 0,-400 -200,-400 -200,0 -100,400 -400,400 -400,0 0,-900 -800,-900 -200,0 -300,-190 -300,-300l0 -1000 -200 0c-110,0 -200,-90 -200,-200l0 -200c0,-110 90,-200 200,-200l4800 0c110,0 200,90 200,200l0 200c0,110 -90,200 -200,200l-600 0c-500,0 -200,700 -700,700zm1100 -500l0 3900 0 100 -100 0 -4200 0 -100 0 0 -100 0 -2705c84,65 189,105 300,105 202,0 292,55 343,244 52,194 48,436 216,574 69,57 153,82 241,82 198,0 324,-103 400,-269 0,29 0,55 0,69l-1 900c-1,221 179,400 400,400 221,0 400,-179 400,-400l1 -1631c0,0 0,1 0,1 11,106 25,205 92,292 75,98 187,138 308,138 221,0 400,-179 400,-400 0,-146 -2,-398 92,-519 51,-66 128,-81 208,-81 107,0 206,-32 288,-102 119,-102 163,-249 204,-393 12,-43 46,-170 80,-199 7,-6 20,-6 28,-6l400 0z"/>
</svg>