<?xml version="1.0" encoding="UTF-8"?>
<!DOCTYPE svg PUBLIC "-//W3C//DTD SVG 1.1//EN" "http://www.w3.org/Graphics/SVG/1.1/DTD/svg11.dtd">
<svg xmlns="http://www.w3.org/2000/svg" xml:space="preserve" width="580px" height="580px" shape-rendering="geometricPrecision" text-rendering="geometricPrecision" image-rendering="optimizeQuality" fill-rule="nonzero" clip-rule="nonzero" viewBox="0 0 5800 5800" xmlns:xlink="http://www.w3.org/1999/xlink">
	<title>painters_palette icon</title>
	<desc>painters_palette icon from the IconExperience.com I-Collection. Copyright by INCORS GmbH (www.incors.com).</desc>
		<path id="curve28"  d="M1088 2918c-146,-41 -277,-76 -396,-178 -65,-56 -118,-125 -152,-212 -104,-261 17,-521 133,-753 178,-358 427,-672 731,-917 296,-238 642,-411 1024,-497 335,-75 687,-80 1025,-17 332,63 652,192 931,386 278,194 492,457 642,755 163,321 252,683 270,1041 20,394 -45,792 -188,1159 -139,356 -351,683 -622,952 -271,270 -589,474 -933,616 -362,149 -753,230 -1148,244 -324,12 -682,-11 -1006,-113 -334,-106 -631,-295 -820,-617 -65,-111 -87,-236 -71,-355 17,-119 73,-233 165,-321 72,-70 150,-131 231,-187 95,-67 194,-129 293,-190 174,-107 415,-256 415,-442 0,-60 -9,-112 -53,-156 -91,-92 -299,-150 -471,-198zm1612 -718c-276,0 -500,224 -500,500 0,276 224,500 500,500 276,0 500,-224 500,-500 0,-276 -224,-500 -500,-500zm139 1689c-208,52 -353,-35 -455,113 -65,94 -97,87 -238,94 -119,7 -213,99 -213,211 0,79 46,148 115,185 82,43 125,124 113,211 -1,9 -2,18 -2,27 0,117 102,211 227,211 99,0 183,-59 214,-141 6,-16 -20,-211 314,-296 91,-23 152,-104 152,-197 0,-60 -95,-71 -39,-121 119,-105 54,-359 -188,-297zm1345 -1823c106,0 192,-88 192,-196 0,-22 -4,-44 -11,-64 -8,-23 -8,-44 0,-66 7,-20 11,-43 11,-65 0,-87 -54,-160 -129,-187 -109,-39 -16,-208 -159,-208 -50,0 -89,-12 -107,-66 -26,-77 -98,-132 -181,-132 -106,0 -195,89 -192,198 6,247 -192,194 -192,395 0,109 86,197 192,197 129,0 264,-110 313,-28 57,96 71,222 263,222zm194 320c-62,78 -223,75 -290,75 -53,0 -96,44 -96,98 0,51 -12,91 -64,110 -75,27 -128,101 -128,187 0,109 86,197 192,197 71,0 173,-22 203,66 26,76 97,132 181,132 106,0 192,-89 192,-198 0,-103 -75,-356 64,-406 74,-27 128,-100 128,-186 0,-109 -86,-198 -192,-198 -84,0 -141,60 -190,123zm-287 1721c0,-98 -122,-183 24,-292 41,-30 69,-82 69,-134 0,-50 -34,-92 -80,-105 -84,-25 -84,-128 -238,-128 -222,0 -176,195 -291,229 -92,27 -159,111 -159,210 0,69 32,131 83,171 88,69 11,135 11,213 0,91 75,164 168,164 127,0 149,-151 241,-161 113,-13 172,-54 172,-167zm-1193 -3223c-95,0 -228,111 -304,-8 -25,-39 -54,-76 -104,-76 -48,0 -89,29 -102,70 -24,74 -124,74 -124,209 0,89 63,164 151,189 35,10 61,33 71,65 27,82 108,141 205,141 67,0 127,-29 166,-74 32,-37 87,-47 133,-25 20,10 44,16 74,16 88,0 160,-66 160,-147 0,-49 -26,-92 -65,-119 -25,-17 -39,-40 -42,-68 -12,-99 -109,-173 -219,-173zm-1236 1387c349,-116 155,-146 300,-200 153,-56 32,-178 138,-271 161,-140 2,-403 -198,-323 -66,26 -150,-6 -240,-6 -100,0 -265,142 -225,245 38,93 25,155 -75,255 -100,100 0,400 300,300z"/>
</svg>