<?xml version="1.0" encoding="UTF-8"?>
<!DOCTYPE svg PUBLIC "-//W3C//DTD SVG 1.1//EN" "http://www.w3.org/Graphics/SVG/1.1/DTD/svg11.dtd">
<svg xmlns="http://www.w3.org/2000/svg" xml:space="preserve" width="580px" height="580px" shape-rendering="geometricPrecision" text-rendering="geometricPrecision" image-rendering="optimizeQuality" fill-rule="nonzero" clip-rule="nonzero" viewBox="0 0 5800 5800" xmlns:xlink="http://www.w3.org/1999/xlink">
	<title>painting_portrait icon</title>
	<desc>painting_portrait icon from the IconExperience.com I-Collection. Copyright by INCORS GmbH (www.incors.com).</desc>
		<path id="curve28"  d="M700 5000c0,-376 200,-737 200,-1100 0,-338 -200,-645 -200,-1000 0,-376 200,-737 200,-1100 0,-338 -200,-645 -200,-1000 0,-276 224,-500 500,-500 296,0 533,200 800,200 290,0 589,-200 900,-200 311,0 610,200 900,200 267,0 504,-200 800,-200 276,0 500,224 500,500 0,355 -200,662 -200,1000 0,363 200,724 200,1100 0,376 -200,737 -200,1100 0,338 200,645 200,1000 0,276 -224,500 -500,500 -296,0 -533,-200 -800,-200 -290,0 -589,200 -900,200 -311,0 -610,-200 -900,-200 -267,0 -504,200 -800,200 -276,0 -500,-224 -500,-500zm600 -4100l0 3996 3200 4 0 -4000 -3200 0zm200 200l0 3597 100 0 0 -47c0,-189 70,-397 206,-533 60,-61 163,-98 241,-127 134,-51 211,-56 333,-134 114,-68 130,-280 130,-404 -101,-104 -198,-335 -236,-480 -122,-62 -164,-224 -128,-351l-26 -413c-8,-411 385,-639 747,-578 92,16 137,41 211,91 286,-144 629,189 603,483l-27 417c37,128 -5,289 -128,351 -37,143 -132,373 -236,480 3,127 12,333 130,404 122,78 199,83 333,134 78,29 181,66 241,127 136,136 206,343 206,533l0 50 100 0 0 -3600 -2800 0z"/>
</svg>