<?xml version="1.0" encoding="UTF-8"?>
<!DOCTYPE svg PUBLIC "-//W3C//DTD SVG 1.1//EN" "http://www.w3.org/Graphics/SVG/1.1/DTD/svg11.dtd">
<svg xmlns="http://www.w3.org/2000/svg" xml:space="preserve" width="580px" height="580px" shape-rendering="geometricPrecision" text-rendering="geometricPrecision" image-rendering="optimizeQuality" fill-rule="nonzero" clip-rule="nonzero" viewBox="0 0 5800 5800" xmlns:xlink="http://www.w3.org/1999/xlink">
	<title>painting_landscape icon</title>
	<desc>painting_landscape icon from the IconExperience.com I-Collection. Copyright by INCORS GmbH (www.incors.com).</desc>
		<path id="curve28"  d="M4900 1300l-3996 0 -4 3200 4000 0 0 -3200zm-2200 500c-276,0 -500,224 -500,500 0,276 224,500 500,500 276,0 500,-224 500,-500 0,-276 -224,-500 -500,-500zm-94 1606c61,-44 121,-90 179,-138 -112,-49 -222,-101 -332,-154 -204,-99 -399,-217 -635,-214 -270,5 -507,145 -717,301l2 -1701 3597 0 0 1269c-35,-37 -71,-72 -111,-104 -120,-99 -261,-168 -423,-165 -235,6 -419,172 -580,316 -229,206 -459,434 -697,625 -318,256 -649,458 -1070,459 -239,1 -494,-63 -719,-142l1 -305c202,-160 451,-349 720,-353 188,-3 376,112 546,193 79,39 157,76 239,113zm2094 -324c-68,-91 -147,-189 -237,-263 -87,-72 -186,-122 -293,-119 -160,3 -315,143 -450,264 -232,209 -465,439 -706,633 -357,287 -724,501 -1195,503 -242,0 -490,-56 -719,-132l0 332 3600 0 0 -1218zm-3900 -2382c376,0 737,200 1100,200 338,0 645,-200 1000,-200 376,0 737,200 1100,200 338,0 645,-200 1000,-200 276,0 500,224 500,500 0,296 -200,533 -200,800 0,290 200,589 200,900 0,311 -200,610 -200,900 0,267 200,504 200,800 0,276 -224,500 -500,500 -355,0 -662,-200 -1000,-200 -363,0 -724,200 -1100,200 -376,0 -737,-200 -1100,-200 -338,0 -645,200 -1000,200 -276,0 -500,-224 -500,-500 0,-296 200,-533 200,-800 0,-290 -200,-589 -200,-900 0,-311 200,-610 200,-900 0,-267 -200,-504 -200,-800 0,-276 224,-500 500,-500z"/>
</svg>