<?xml version="1.0" encoding="UTF-8"?>
<!DOCTYPE svg PUBLIC "-//W3C//DTD SVG 1.1//EN" "http://www.w3.org/Graphics/SVG/1.1/DTD/svg11.dtd">
<svg xmlns="http://www.w3.org/2000/svg" xml:space="preserve" width="580px" height="580px" shape-rendering="geometricPrecision" text-rendering="geometricPrecision" image-rendering="optimizeQuality" fill-rule="nonzero" clip-rule="nonzero" viewBox="0 0 5800 5800" xmlns:xlink="http://www.w3.org/1999/xlink">
	<title>painting_portrait icon</title>
	<desc>painting_portrait icon from the IconExperience.com I-Collection. Copyright by INCORS GmbH (www.incors.com).</desc>
		<path id="curve28" d="M700 5000c0,-187 52,-381 104,-575 116,-436 134,-562 1,-996 -146,-473 -128,-630 -1,-1104 116,-436 134,-562 1,-996 -53,-170 -105,-340 -105,-529 0,-276 224,-500 500,-500 159,0 298,54 436,107 346,134 434,111 784,-2 425,-138 535,-138 960,0 350,113 438,136 784,2 138,-53 277,-107 436,-107 276,0 500,224 500,500 0,189 -52,359 -105,529 -133,434 -115,560 1,996 135,502 135,648 0,1150 -116,436 -134,562 -1,996 53,170 105,340 105,529 0,276 -224,500 -500,500 -159,0 -298,-54 -436,-107 -346,-134 -434,-111 -784,2 -425,138 -535,138 -960,0 -350,-113 -438,-136 -784,-2 -138,53 -277,107 -436,107 -276,0 -500,-224 -500,-500zm2323 -3196c-34,-22 -60,-39 -85,-51 -57,-25 -138,-34 -200,-33 -238,4 -470,147 -512,394 -5,28 -7,57 -7,87l26 414c1,12 -1,23 -4,34 -13,47 -11,100 6,147 14,38 38,70 72,88 27,13 44,37 51,63 20,74 55,172 100,262 35,70 74,134 111,173 19,19 29,45 29,70 0,67 -4,159 -25,246 -24,100 -69,192 -153,243 -93,59 -160,80 -240,105 -42,13 -82,27 -123,42 -68,26 -151,57 -193,99 -55,56 -98,126 -128,203 -32,83 -48,174 -48,260l0 50 2400 0 0 -50c0,-86 -16,-176 -48,-259 -30,-77 -73,-148 -128,-204 -42,-42 -125,-73 -193,-99 -41,-15 -81,-29 -123,-42 -80,-25 -147,-46 -240,-105 -87,-52 -131,-144 -154,-244 -19,-85 -22,-175 -24,-243 0,-28 11,-53 29,-72 38,-39 77,-103 111,-173 45,-90 81,-189 100,-262 7,-30 28,-53 54,-65 32,-18 56,-49 69,-86 17,-47 19,-101 5,-148 -3,-12 -4,-24 -3,-36l26 -414c4,-68 -9,-123 -39,-184 -31,-60 -77,-115 -130,-156 -84,-64 -190,-98 -289,-48 -33,17 -71,13 -100,-6zm-696 1967c31,-19 51,-66 63,-119 13,-54 18,-113 19,-163 -42,-53 -83,-120 -118,-192 -43,-87 -79,-181 -102,-260 -61,-43 -104,-105 -129,-173 -29,-80 -34,-171 -15,-253l-25 -400c-1,-47 2,-90 9,-130 58,-343 371,-554 706,-560 94,-2 199,12 286,51 23,11 45,23 68,37 154,-53 317,-7 444,90 77,59 142,138 187,225 44,88 68,186 60,282l-25 405c19,82 15,173 -14,253 -25,68 -68,130 -130,173 -23,78 -59,173 -102,261 -35,70 -75,138 -118,190 2,52 6,112 18,165 12,53 31,98 62,117 71,46 130,65 196,86 36,11 74,22 121,40 96,37 203,76 277,150 76,76 133,171 173,273 41,107 62,222 62,331l0 -3550 -2800 0 0 3550c0,-109 21,-224 62,-331 40,-102 97,-197 173,-273 72,-72 178,-112 263,-144 45,-17 89,-32 135,-46 65,-21 121,-38 194,-85zm-1027 1125l0 -3996 3200 0 0 4000c-1067,-1 -2134,-2 -3200,-4zm-304 -421c-48,181 -96,362 -96,525 0,165 135,300 300,300 124,0 244,-46 364,-93 394,-152 520,-130 916,-2 383,124 457,124 840,0 396,-128 522,-150 916,2 120,47 240,93 364,93 165,0 300,-135 300,-300 0,-161 -48,-316 -95,-471 -146,-473 -128,-630 -1,-1104 124,-467 124,-583 0,-1050 -127,-474 -145,-631 1,-1104 47,-155 95,-310 95,-471 0,-165 -135,-300 -300,-300 -124,0 -244,46 -364,93 -394,152 -520,130 -916,2 -383,-124 -457,-124 -840,0 -396,128 -522,150 -916,-2 -120,-47 -240,-93 -364,-93 -165,0 -300,135 -300,300 0,161 48,316 95,471 146,473 128,630 1,1104 -116,436 -134,562 -1,996 146,473 128,630 1,1104z"/>
</svg>