<?xml version="1.0" encoding="UTF-8"?>
<!DOCTYPE svg PUBLIC "-//W3C//DTD SVG 1.1//EN" "http://www.w3.org/Graphics/SVG/1.1/DTD/svg11.dtd">
<svg xmlns="http://www.w3.org/2000/svg" xml:space="preserve" width="580px" height="580px" shape-rendering="geometricPrecision" text-rendering="geometricPrecision" image-rendering="optimizeQuality" fill-rule="nonzero" clip-rule="nonzero" viewBox="0 0 5800 5800" xmlns:xlink="http://www.w3.org/1999/xlink">
	<title>palm_tree icon</title>
	<desc>palm_tree icon from the IconExperience.com I-Collection. Copyright by INCORS GmbH (www.incors.com).</desc>
	<path id="curve0"  d="M3072 869c108,-108 258,-176 424,-176 180,0 354,23 519,65 926,234 1582,1080 1582,2034 0,170 -21,343 -65,517l-194 -48c40,-157 59,-314 59,-469 0,-863 -593,-1629 -1430,-1841 -150,-37 -307,-58 -471,-58 -110,0 -210,45 -283,118l-141 -142zm-1572 4431l200 0c0,-1477 424,-2911 1231,-4147 84,83 206,107 312,70 121,106 212,244 263,397 -469,1171 -706,2418 -706,3680l200 0c0,-124 2,-247 7,-369 578,71 1131,265 1628,569 -1423,0 -2847,0 -4271,0 354,-216 739,-378 1141,-478 -3,92 -5,185 -5,278zm3348 -4717c162,92 306,212 427,352l-150 130c-261,-302 -631,-479 -1030,-493 -17,-4 -33,-9 -50,-13l0 -7c261,-79 549,-68 803,31zm-1176 519c249,318 338,729 240,1122l-194 -48c96,-385 -21,-788 -305,-1065 26,-11 54,-18 83,-18 60,0 119,3 176,9zm465 115c223,399 285,863 172,1307l-193 -48c118,-471 18,-962 -275,-1349 26,6 52,12 77,18 76,19 149,43 219,72zm-1234 -457c-36,-2 -71,-3 -107,-3 -1272,0 -2325,993 -2396,2264l-200 -11c78,-1376 1219,-2453 2596,-2453 115,0 228,8 339,22 -77,39 -180,111 -232,181zm414 -247c299,-266 683,-413 1083,-413 473,0 921,206 1230,564l-151 130c-272,-315 -663,-494 -1079,-494 -258,0 -508,68 -729,200 -118,-9 -238,-13 -354,13zm1307 1007c158,418 183,870 73,1304l-194 -48c128,-507 55,-1034 -208,-1485 120,63 230,141 329,229zm556 1035c-8,189 -35,379 -83,569l-194 -48c101,-401 107,-814 14,-1216 136,207 227,444 263,695zm-2845 -961c37,-213 101,-423 190,-620 76,-10 152,-15 229,-16 -107,212 -182,436 -223,670l-196 -34zm176 -618c-326,410 -515,906 -545,1429l-199 -10c27,-488 184,-957 455,-1362 94,-26 191,-45 289,-57zm-294 58c-486,425 -781,1026 -817,1671l-200 -10c31,-545 231,-1063 574,-1487 140,-73 288,-132 443,-174zm-1517 1861c17,-295 83,-577 190,-838 194,-336 475,-616 812,-809 -479,425 -767,1018 -802,1657l-200 -10z"/>
</svg>