<?xml version="1.0" encoding="UTF-8"?>
<!DOCTYPE svg PUBLIC "-//W3C//DTD SVG 1.1//EN" "http://www.w3.org/Graphics/SVG/1.1/DTD/svg11.dtd">
<svg xmlns="http://www.w3.org/2000/svg" xml:space="preserve" width="580px" height="580px" shape-rendering="geometricPrecision" text-rendering="geometricPrecision" image-rendering="optimizeQuality" fill-rule="nonzero" clip-rule="nonzero" viewBox="0 0 5800 5800" xmlns:xlink="http://www.w3.org/1999/xlink">
	<title>palm_tree icon</title>
	<desc>palm_tree icon from the IconExperience.com I-Collection. Copyright by INCORS GmbH (www.incors.com).</desc>
	<path id="curve0" d="M3072 869c108,-108 258,-176 424,-176 180,0 354,23 519,65 926,234 1582,1080 1582,2034 0,170 -21,343 -65,517l-194 -48c40,-157 59,-314 59,-469 0,-863 -593,-1629 -1430,-1841 -150,-37 -307,-58 -471,-58 -110,0 -210,45 -283,118l-141 -142zm1776 -286c162,92 306,212 427,352l-150 130c-261,-302 -631,-479 -1030,-493 -17,-4 -33,-9 -50,-13l0 -7c112,-34 231,-52 355,-52 159,0 310,30 448,83zm-1176 519c249,318 338,729 240,1122l-194 -48c96,-385 -21,-788 -305,-1065 26,-11 54,-18 83,-18 60,0 119,3 176,9zm465 115c223,399 285,863 172,1307l-193 -48c118,-471 18,-962 -275,-1349 26,6 52,12 77,18 76,19 149,43 219,72zm-1234 -457c-36,-2 -71,-3 -107,-3 -1272,0 -2325,993 -2396,2264l-200 -11c78,-1376 1219,-2453 2596,-2453 115,0 228,8 339,22 -76,39 -145,89 -205,149 -10,10 -19,20 -27,32zm414 -247c676,-604 1719,-538 2313,151l-151 130c-451,-522 -1216,-647 -1808,-294 -58,-4 -116,-7 -175,-7 -61,0 -121,7 -179,20zm1307 1007c158,418 183,870 73,1304l-194 -48c128,-507 55,-1034 -208,-1485 120,63 230,141 329,229zm556 1035c-8,189 -35,379 -83,569l-194 -48c101,-401 107,-814 14,-1216 136,207 227,444 263,695zm-2845 -961c37,-213 101,-423 190,-620 76,-10 152,-15 229,-16 -107,212 -182,436 -223,670l-196 -34zm176 -618c-326,410 -515,906 -545,1429l-199 -10c27,-488 184,-957 455,-1362 94,-26 191,-45 289,-57zm-294 58c-486,425 -781,1026 -817,1671l-200 -10c31,-545 231,-1063 574,-1487 140,-73 288,-132 443,-174zm-1853 4466c354,-216 739,-378 1141,-478 -3,69 -4,138 -5,207 -249,66 -491,157 -722,271l-414 0zm2643 -569c578,71 1131,265 1628,569l-412 0c-384,-189 -797,-314 -1222,-368 2,-67 3,-134 6,-201zm-1307 369c0,-1477 424,-2911 1231,-4147 51,50 116,79 182,85 -795,1210 -1213,2614 -1213,4062l-200 0zm1806 -3680c-469,1171 -706,2418 -706,3680l-200 0c0,-1346 265,-2675 788,-3915 50,72 90,151 118,235zm-2806 1275c17,-295 83,-577 190,-838 107,-185 240,-353 395,-499 126,-119 265,-223 417,-310 -479,425 -767,1018 -802,1657l-200 -10z"/>
</svg>