<?xml version="1.0" encoding="UTF-8"?>
<!DOCTYPE svg PUBLIC "-//W3C//DTD SVG 1.1//EN" "http://www.w3.org/Graphics/SVG/1.1/DTD/svg11.dtd">
<svg xmlns="http://www.w3.org/2000/svg" xml:space="preserve" width="580px" height="580px" shape-rendering="geometricPrecision" text-rendering="geometricPrecision" image-rendering="optimizeQuality" fill-rule="nonzero" clip-rule="nonzero" viewBox="0 0 5800 5800" xmlns:xlink="http://www.w3.org/1999/xlink">
	<title>pan_flute icon</title>
	<desc>pan_flute icon from the IconExperience.com I-Collection. Copyright by INCORS GmbH (www.incors.com).</desc>
	<path id="curve0"  d="M3300 3000c0,218 -182,399 -400,399l0 -1899 -200 0 0 2100c0,220 -180,399 -400,399l0 -2499 -200 0c0,935 -3,1871 -3,2801 0,219 -178,398 -397,398l0 -3199 -200 0c0,1202 -3,2404 -3,3601 0,219 -179,398 -399,398 -219,0 -399,-179 -399,-398l1 -3617c-120,-41 -203,-156 -203,-284l0 -100c0,-128 83,-242 203,-284l0 -416c267,0 533,0 800,0l0 400 200 0 0 -400c132,0 265,0 397,0l3 400 200 0 0 -400c133,0 267,0 400,0l0 400 200 0 0 -400c133,0 267,0 400,0l0 400 200 0 0 -400c133,0 267,0 400,0l0 400 200 0 0 -400c133,0 267,0 400,0l0 400 200 0 0 -400 397 0 0 417c119,43 200,155 200,283l0 100c0,128 -81,240 -200,283l0 318c0,219 -178,398 -397,398l0 -699 -200 0 0 646c-22,202 -197,353 -400,353l0 -999 -200 0 0 1000c0,218 -182,399 -400,399l0 -1399 -200 0 0 1500z"/>
</svg>