<?xml version="1.0" encoding="UTF-8"?>
<!DOCTYPE svg PUBLIC "-//W3C//DTD SVG 1.1//EN" "http://www.w3.org/Graphics/SVG/1.1/DTD/svg11.dtd">
<svg xmlns="http://www.w3.org/2000/svg" xml:space="preserve" width="580px" height="580px" shape-rendering="geometricPrecision" text-rendering="geometricPrecision" image-rendering="optimizeQuality" fill-rule="nonzero" clip-rule="nonzero" viewBox="0 0 5800 5800" xmlns:xlink="http://www.w3.org/1999/xlink">
	<title>pan_flute icon</title>
	<desc>pan_flute icon from the IconExperience.com I-Collection. Copyright by INCORS GmbH (www.incors.com).</desc>
	<path id="curve0"  d="M900 800l398 0 0 -200 -398 0 0 200zm599 0l398 0 0 -200 -398 0 0 200zm600 0l398 0 0 -200 -398 0 0 200zm600 0l398 0 0 -200 -398 0 0 200zm600 0l398 0 0 -200 -398 0 0 200zm600 0l398 0 0 -200 -398 0 0 200zm600 0l398 0 0 -200 -398 0 0 200zm598 17c119,43 200,155 200,283l0 100c0,128 -81,240 -200,283l0 318c0,219 -179,398 -399,398 -74,0 -143,-20 -203,-55 -22,202 -193,355 -397,355 -73,0 -142,-19 -201,-54l0 56c0,220 -178,399 -399,399 -73,0 -142,-20 -201,-55l0 156c0,220 -178,398 -399,398 -73,0 -141,-19 -201,-54l0 256c0,220 -178,398 -399,398 -73,0 -141,-19 -201,-54l0 356c0,220 -179,398 -399,398 -73,0 -142,-19 -201,-54l0 456c0,219 -179,398 -399,398 -219,0 -399,-179 -399,-398l1 -3617c-120,-41 -203,-156 -203,-284l0 -100c0,-128 83,-242 203,-284l0 -416c1466,0 2932,0 4397,0l0 417zm-200 683l-398 0 1 301c0,110 88,198 198,198 111,0 199,-88 199,-198l0 -301zm-600 0l-398 0 1 601c0,109 89,198 198,198 110,0 199,-89 199,-198l0 -601zm-600 0l-398 0 1 1001c0,109 89,198 198,198 110,0 199,-89 199,-198l0 -1001zm-600 0l-398 0 0 1501c0,110 89,198 199,198 110,0 199,-89 199,-198l0 -1501zm-600 0l-398 0 0 2101c0,110 89,198 199,198 110,0 199,-89 199,-198l0 -2101zm-600 0l-398 0 0 2801c0,110 89,198 199,198 111,0 199,-88 199,-198l0 -2801zm-599 0l-399 0 1 3601c0,110 88,198 198,198 111,0 199,-88 199,-198l1 -3601zm3699 -500l-4200 0c-55,0 -100,45 -100,100l0 100c0,55 45,100 100,100l4200 0c55,0 100,-45 100,-100l0 -100c0,-55 -44,-100 -100,-100z"/>
</svg>