<?xml version="1.0" encoding="UTF-8"?>
<!DOCTYPE svg PUBLIC "-//W3C//DTD SVG 1.1//EN" "http://www.w3.org/Graphics/SVG/1.1/DTD/svg11.dtd">
<svg xmlns="http://www.w3.org/2000/svg" xml:space="preserve" width="580px" height="580px" shape-rendering="geometricPrecision" text-rendering="geometricPrecision" image-rendering="optimizeQuality" fill-rule="nonzero" clip-rule="nonzero" viewBox="0 0 5800 5800" xmlns:xlink="http://www.w3.org/1999/xlink">
	<title>paperclip2 icon</title>
	<desc>paperclip2 icon from the IconExperience.com I-Collection. Copyright by INCORS GmbH (www.incors.com).</desc>
		<path id="curve28"  d="M2350 4200c0,83 -67,150 -150,150 -83,0 -150,-67 -150,-150l0 -1593c0,-176 66,-335 190,-460l342 -341c174,-174 462,-174 636,0l342 341c124,125 190,284 190,460l0 2593c0,193 -157,350 -350,350l-1400 0c-192,0 -350,-158 -350,-350l0 -3600c0,-176 66,-335 190,-460l742 -741c174,-175 462,-175 636,0l742 741c124,124 190,285 190,460l0 3000c0,83 -67,150 -150,150 -83,0 -150,-67 -150,-150l0 -3000c0,-95 -30,-172 -96,-241l-748 -748c-58,-58 -154,-58 -212,0l-742 741c-70,71 -102,149 -102,248l0 3600c0,28 22,50 50,50l1400 0c27,0 50,-23 50,-50l0 -2593c0,-99 -32,-177 -102,-247l-342 -342c-58,-58 -154,-58 -212,0l-341 342c-71,70 -103,148 -103,247l0 1593z"/>
</svg>