<?xml version="1.0" encoding="UTF-8"?>
<!DOCTYPE svg PUBLIC "-//W3C//DTD SVG 1.1//EN" "http://www.w3.org/Graphics/SVG/1.1/DTD/svg11.dtd">
<svg xmlns="http://www.w3.org/2000/svg" xml:space="preserve" width="580px" height="580px" shape-rendering="geometricPrecision" text-rendering="geometricPrecision" image-rendering="optimizeQuality" fill-rule="nonzero" clip-rule="nonzero" viewBox="0 0 5800 5800" xmlns:xlink="http://www.w3.org/1999/xlink">
	<title>paper_fan icon</title>
	<desc>paper_fan icon from the IconExperience.com I-Collection. Copyright by INCORS GmbH (www.incors.com).</desc>
	<path id="curve0"  d="M2638 4737l262 -152 262 152c48,27 109,11 136,-37 28,-47 12,-108 -36,-136l-162 -94 2639 -1524 -50 -86c-577,-997 -1638,-1610 -2789,-1610 -1150,0 -2209,611 -2786,1605l-50 86 2637 1529 -163 94c-48,28 -64,89 -36,136 27,48 88,64 136,37zm1022 -821l-759 439 -760 -440c178,-243 458,-385 759,-385 302,0 582,142 760,386zm-2624 -1823l1210 1443c-54,38 -105,81 -152,128l-1211 -1442c49,-45 100,-88 153,-129zm925 -495l644 1771c-65,17 -127,40 -187,68l-645 -1770c62,-25 124,-48 188,-69zm1039 -147l0 1883c-67,-5 -134,-5 -200,0l0 -1883c67,-2 133,-2 200,0zm1917 771l-1211 1443c-47,-48 -98,-90 -153,-129l1211 -1443c53,41 104,84 153,129zm-891 -556l-644 1771c-60,-28 -122,-51 -187,-68l644 -1771c63,21 126,44 187,68z"/>
</svg>