<?xml version="1.0" encoding="UTF-8"?>
<!DOCTYPE svg PUBLIC "-//W3C//DTD SVG 1.1//EN" "http://www.w3.org/Graphics/SVG/1.1/DTD/svg11.dtd">
<svg xmlns="http://www.w3.org/2000/svg" xml:space="preserve" width="580px" height="580px" shape-rendering="geometricPrecision" text-rendering="geometricPrecision" image-rendering="optimizeQuality" fill-rule="nonzero" clip-rule="nonzero" viewBox="0 0 5800 5800" xmlns:xlink="http://www.w3.org/1999/xlink">
	<title>paper_lantern icon</title>
	<desc>paper_lantern icon from the IconExperience.com I-Collection. Copyright by INCORS GmbH (www.incors.com).</desc>
	<path id="curve0" d="M2800 800c0,55 -45,100 -100,100 -55,0 -100,-45 -100,-100l0 -200c0,-165 135,-300 300,-300l2200 0 0 200 -2200 0c-55,0 -100,45 -100,100l0 200zm-700 300c0,-166 67,-316 175,-424 38,-37 80,-70 125,-96 -3,78 -6,177 2,253 -64,71 -102,164 -102,267l800 0c0,-102 -39,-196 -102,-266 5,-43 2,-92 2,-135l146 0c95,106 154,247 154,401l200 0 0 687c611,304 1000,927 1000,1613 0,686 -389,1309 -1000,1613l0 487 -1600 0 0 -487c-611,-304 -1000,-927 -1000,-1613 0,-686 389,-1309 1000,-1613l0 -687 200 0zm1158 800l-1116 0c-625,233 -1042,830 -1042,1500 0,670 417,1267 1042,1500l1116 0c625,-233 1042,-830 1042,-1500 0,-670 -417,-1267 -1042,-1500zm42 3200l-1200 0 0 200 1200 0 0 -200zm0 -3800l-1200 0 0 400 1200 0 0 -400z"/>
</svg>