<?xml version="1.0" encoding="UTF-8"?>
<!DOCTYPE svg PUBLIC "-//W3C//DTD SVG 1.1//EN" "http://www.w3.org/Graphics/SVG/1.1/DTD/svg11.dtd">
<svg xmlns="http://www.w3.org/2000/svg" xml:space="preserve" width="580px" height="580px" shape-rendering="geometricPrecision" text-rendering="geometricPrecision" image-rendering="optimizeQuality" fill-rule="nonzero" clip-rule="nonzero" viewBox="0 0 5800 5800" xmlns:xlink="http://www.w3.org/1999/xlink">
	<title>paper_jet icon</title>
	<desc>paper_jet icon from the IconExperience.com I-Collection. Copyright by INCORS GmbH (www.incors.com).</desc>
	<path id="curve0"  d="M4721 1996l829 415c73,36 74,141 0,178l-794 397c-8,5 -17,9 -26,11l-4406 1092c-31,8 -64,1 -90,-21 -41,-37 -45,-100 -9,-141l2006 -2293c8,-9 18,-17 30,-23l800 -400c27,-14 60,-15 89,0l889 444c18,9 34,23 45,41l-3108 1949 3745 -1649zm-170 1251l-53 265c-8,41 -42,75 -86,80l-2464 300 2603 -645z"/>
</svg>