<?xml version="1.0" encoding="UTF-8"?>
<!DOCTYPE svg PUBLIC "-//W3C//DTD SVG 1.1//EN" "http://www.w3.org/Graphics/SVG/1.1/DTD/svg11.dtd">
<svg xmlns="http://www.w3.org/2000/svg" xml:space="preserve" width="580px" height="580px" shape-rendering="geometricPrecision" text-rendering="geometricPrecision" image-rendering="optimizeQuality" fill-rule="nonzero" clip-rule="nonzero" viewBox="0 0 5800 5800" xmlns:xlink="http://www.w3.org/1999/xlink">
	<title>paper_roll icon</title>
	<desc>paper_roll icon from the IconExperience.com I-Collection. Copyright by INCORS GmbH (www.incors.com).</desc>
		<path id="curve28"  d="M4199 4900c608,0 1101,-492 1101,-1100 0,-497 -403,-900 -900,-900 -497,0 -900,403 -900,900 0,387 313,700 700,700 387,0 700,-313 700,-700 0,-276 -224,-500 -500,-500 -276,0 -500,224 -500,500 0,166 134,300 300,300 166,0 300,-134 300,-300 0,-56 -44,-100 -100,-100 -55,0 -100,45 -100,100 0,55 -45,100 -100,100 -55,0 -100,-45 -100,-100 0,-166 134,-300 300,-300 165,0 300,135 300,300 0,276 -224,500 -500,500 -276,0 -500,-224 -500,-500 0,-387 313,-700 700,-700 387,0 700,313 700,700 0,497 -403,900 -900,900 -267,0 -484,-116 -689,-321l-1946 -1942c-170,-169 -265,-397 -265,-637 0,-607 493,-1100 1100,-1100 314,0 596,143 815,362l1952 1950c199,199 333,484 333,788 0,676 -519,1240 -1192,1296l-108 4 -1941 0 -2100 -2100 1686 0 1577 1578c207,206 485,322 777,322z"/>
</svg>