<?xml version="1.0" encoding="UTF-8"?>
<!DOCTYPE svg PUBLIC "-//W3C//DTD SVG 1.1//EN" "http://www.w3.org/Graphics/SVG/1.1/DTD/svg11.dtd">
<svg xmlns="http://www.w3.org/2000/svg" xml:space="preserve" width="580px" height="580px" shape-rendering="geometricPrecision" text-rendering="geometricPrecision" image-rendering="optimizeQuality" fill-rule="nonzero" clip-rule="nonzero" viewBox="0 0 5800 5800" xmlns:xlink="http://www.w3.org/1999/xlink">
	<title>paper_jet icon</title>
	<desc>paper_jet icon from the IconExperience.com I-Collection. Copyright by INCORS GmbH (www.incors.com).</desc>
	<path id="curve0"  d="M800 3572l2992 -1818 -686 -343 -738 369 -1568 1792zm3138 -1673l-2202 1338 2833 -1276c31,-14 65,-11 92,5l889 445c73,36 74,141 0,178l-794 397c-8,5 -17,9 -26,11l-2816 698 2402 -293 21 -102 214 -53 -53 265c-8,41 -42,75 -86,80l-4100 500c-95,11 -149,-104 -82,-170l2001 -2288c8,-9 18,-17 30,-23l800 -400c27,-14 60,-15 89,0l889 444c25,12 46,34 54,63l61 211 -183 82 -33 -112zm670 263c-1086,489 -2172,978 -3258,1467l3322 -823 611 -306 -675 -338z"/>
</svg>