<?xml version="1.0" encoding="UTF-8"?>
<!DOCTYPE svg PUBLIC "-//W3C//DTD SVG 1.1//EN" "http://www.w3.org/Graphics/SVG/1.1/DTD/svg11.dtd">
<svg xmlns="http://www.w3.org/2000/svg" xml:space="preserve" width="580px" height="580px" shape-rendering="geometricPrecision" text-rendering="geometricPrecision" image-rendering="optimizeQuality" fill-rule="nonzero" clip-rule="nonzero" viewBox="0 0 5800 5800" xmlns:xlink="http://www.w3.org/1999/xlink">
	<title>paper_lantern icon</title>
	<desc>paper_lantern icon from the IconExperience.com I-Collection. Copyright by INCORS GmbH (www.incors.com).</desc>
	<path id="curve0"  d="M3500 4900c0,200 0,400 0,600 -533,0 -1067,0 -1600,0 0,-200 0,-400 0,-600 533,0 1067,0 1600,0zm-1400 -3800c0,-215 115,-413 300,-520 0,7 0,13 0,20 0,72 -6,163 2,233 -64,71 -102,164 -102,267l800 0c0,-102 -39,-196 -102,-266 5,-43 2,-92 2,-135l146 0c95,106 154,247 154,401l200 0 0 800 -1600 0 0 -800 200 0zm700 -300c0,55 -45,100 -100,100 -55,0 -100,-45 -100,-100l0 -200c0,-165 135,-300 300,-300l2200 0 0 200 -2200 0c-55,0 -100,45 -100,100l0 200zm900 1103c500,335 800,893 800,1497 0,604 -300,1163 -800,1497 -2,-109 -91,-197 -200,-197l-1600 0c-109,0 -198,88 -200,197 -499,-334 -800,-893 -800,-1497 0,-604 301,-1163 800,-1497 2,109 91,197 200,197l1600 0c109,0 198,-88 200,-197z"/>
</svg>