<?xml version="1.0" encoding="UTF-8"?>
<!DOCTYPE svg PUBLIC "-//W3C//DTD SVG 1.1//EN" "http://www.w3.org/Graphics/SVG/1.1/DTD/svg11.dtd">
<svg xmlns="http://www.w3.org/2000/svg" xml:space="preserve" width="580px" height="580px" shape-rendering="geometricPrecision" text-rendering="geometricPrecision" image-rendering="optimizeQuality" fill-rule="nonzero" clip-rule="nonzero" viewBox="0 0 5800 5800" xmlns:xlink="http://www.w3.org/1999/xlink">
	<title>paper_fan icon</title>
	<desc>paper_fan icon from the IconExperience.com I-Collection. Copyright by INCORS GmbH (www.incors.com).</desc>
	<path id="curve0"  d="M2638 4737c-48,27 -109,11 -136,-37 -28,-47 -12,-108 36,-136l163 -94 -2637 -1529 50 -86c284,-490 692,-895 1181,-1177 489,-281 1039,-428 1605,-428 1157,0 2215,618 2789,1610l50 86 -2639 1524 162 94c48,28 64,89 36,136 -27,48 -88,64 -136,37l-262 -152 -262 152zm1388 -3071l-644 1771c60,28 117,61 171,99l1211 -1443c-112,-88 -232,-169 -356,-241 -122,-70 -250,-132 -382,-186zm-831 1703l644 -1771c-265,-86 -547,-137 -839,-147l0 1883c67,6 132,18 195,35zm1722 -1147l-1211 1443c47,46 89,97 127,151l1632 -942c-152,-243 -336,-462 -548,-652zm-2017 1308c-301,0 -581,142 -759,385l760 440 759 -439c-176,-242 -457,-386 -760,-386zm-100 -196l0 -1883c-292,10 -574,61 -839,147l644 1771c63,-17 128,-29 195,-35zm-382 103l-645 -1770c-131,52 -257,114 -379,184 -125,72 -245,153 -358,242l1210 1443c55,-38 112,-71 172,-99zm-324 227l-1211 -1442c-211,189 -394,407 -545,648l1630 944c37,-53 79,-104 126,-150z"/>
</svg>