<?xml version="1.0" encoding="UTF-8"?>
<!DOCTYPE svg PUBLIC "-//W3C//DTD SVG 1.1//EN" "http://www.w3.org/Graphics/SVG/1.1/DTD/svg11.dtd">
<svg xmlns="http://www.w3.org/2000/svg" xml:space="preserve" width="580px" height="580px" shape-rendering="geometricPrecision" text-rendering="geometricPrecision" image-rendering="optimizeQuality" fill-rule="nonzero" clip-rule="nonzero" viewBox="0 0 5800 5800" xmlns:xlink="http://www.w3.org/1999/xlink">
	<title>paperclip2 icon</title>
	<desc>paperclip2 icon from the IconExperience.com I-Collection. Copyright by INCORS GmbH (www.incors.com).</desc>
		<path id="curve28" d="M2300 4200c0,55 -45,100 -100,100 -55,0 -100,-45 -100,-100l0 -1593c0,-163 60,-309 176,-424l341 -342c155,-155 411,-155 566,0l341 342c116,115 176,261 176,424l0 2593c0,165 -135,300 -300,300l-1400 0c-165,0 -300,-135 -300,-300l0 -3600c0,-163 60,-309 176,-424l741 -742c155,-155 411,-155 566,0l747 748c112,115 170,257 170,418l0 3000c0,55 -45,100 -100,100 -55,0 -100,-45 -100,-100l0 -3000c0,-109 -36,-200 -112,-278 -242,-212 -513,-513 -747,-746 -77,-78 -205,-78 -282,0l-742 741c-79,79 -117,171 -117,283l0 3600c0,55 45,100 100,100l1400 0c55,0 100,-45 100,-100l0 -2593c0,-112 -38,-203 -117,-283l-342 -341c-77,-78 -205,-78 -282,0l-342 341c-79,80 -117,171 -117,283l0 1593z"/>
</svg>