<?xml version="1.0" encoding="UTF-8"?>
<!DOCTYPE svg PUBLIC "-//W3C//DTD SVG 1.1//EN" "http://www.w3.org/Graphics/SVG/1.1/DTD/svg11.dtd">
<svg xmlns="http://www.w3.org/2000/svg" xml:space="preserve" width="580px" height="580px" shape-rendering="geometricPrecision" text-rendering="geometricPrecision" image-rendering="optimizeQuality" fill-rule="nonzero" clip-rule="nonzero" viewBox="0 0 5800 5800" xmlns:xlink="http://www.w3.org/1999/xlink">
	<title>paper_jet2 icon</title>
	<desc>paper_jet2 icon from the IconExperience.com I-Collection. Copyright by INCORS GmbH (www.incors.com).</desc>
	<path id="curve0"  d="M355 2411l796 -398c11,-6 25,-11 39,-12l4000 -400c75,-8 130,68 103,136 0,0 -734,1833 -800,2000 -11,26 -30,45 -54,55l-794 397c-30,15 -62,14 -90,0l-1103 -551 29 -72 2632 -1776c21,-14 55,-58 17,-76 -37,-18 -98,4 -122,12 -1214,456 -2429,912 -3644,1367l-1009 -504c-74,-37 -72,-142 0,-178zm2023 1412l348 174 -642 562 294 -736zm-483 672l-359 -1254 2408 -902 -1600 1078c-19,13 -32,31 -39,51l-410 1027z"/>
</svg>