<?xml version="1.0" encoding="UTF-8"?>
<!DOCTYPE svg PUBLIC "-//W3C//DTD SVG 1.1//EN" "http://www.w3.org/Graphics/SVG/1.1/DTD/svg11.dtd">
<svg xmlns="http://www.w3.org/2000/svg" xml:space="preserve" width="580px" height="580px" shape-rendering="geometricPrecision" text-rendering="geometricPrecision" image-rendering="optimizeQuality" fill-rule="nonzero" clip-rule="nonzero" viewBox="0 0 5800 5800" xmlns:xlink="http://www.w3.org/1999/xlink">
	<title>paper_roll icon</title>
	<desc>paper_roll icon from the IconExperience.com I-Collection. Copyright by INCORS GmbH (www.incors.com).</desc>
		<path id="curve28"  d="M3511 4379l-1946 -1942c-84,-83 -151,-182 -196,-292 -158,-381 -32,-837 253,-1123 319,-319 798,-412 1210,-228 144,64 273,158 383,268 654,654 1309,1306 1963,1960 199,199 322,474 322,778 0,718 -582,1300 -1300,1300l-1941 0 -2100 -2100 1688 0 200 200 -1406 0 1700 1700 1859 0c608,0 1100,-492 1100,-1100 0,-497 -403,-900 -900,-900 -497,0 -900,403 -900,900 0,387 313,700 700,700 387,0 700,-313 700,-700 0,-276 -224,-500 -500,-500 -276,0 -500,224 -500,500 0,166 134,300 300,300 166,0 300,-134 300,-300 0,-56 -44,-100 -100,-100 -55,0 -100,45 -100,100 0,55 -45,100 -100,100 -55,0 -100,-45 -100,-100 0,-166 134,-300 300,-300 165,0 300,135 300,300 0,276 -224,500 -500,500 -276,0 -500,-224 -500,-500 0,-387 313,-700 700,-700 387,0 700,313 700,700 0,497 -403,900 -900,900 -267,0 -518,-117 -689,-321zm1078 -1663l-1514 -1512c-94,-94 -204,-174 -325,-228 -334,-150 -727,-72 -986,188 -229,228 -338,599 -211,904 36,86 88,163 152,228l1600 1595c-3,-30 -5,-60 -5,-91 0,-607 493,-1100 1100,-1100 64,0 128,6 189,16z"/>
</svg>