<?xml version="1.0" encoding="UTF-8"?>
<!DOCTYPE svg PUBLIC "-//W3C//DTD SVG 1.1//EN" "http://www.w3.org/Graphics/SVG/1.1/DTD/svg11.dtd">
<svg xmlns="http://www.w3.org/2000/svg" xml:space="preserve" width="580px" height="580px" shape-rendering="geometricPrecision" text-rendering="geometricPrecision" image-rendering="optimizeQuality" fill-rule="nonzero" clip-rule="nonzero" viewBox="0 0 5800 5800" xmlns:xlink="http://www.w3.org/1999/xlink">
	<title>paperclip icon</title>
	<desc>paperclip icon from the IconExperience.com I-Collection. Copyright by INCORS GmbH (www.incors.com).</desc>
		<path id="curve28"  d="M2051 4300l-1 -2200c0,-469 381,-850 850,-850 469,0 850,381 850,850l0 2400c0,580 -470,1050 -1050,1050 -580,0 -1050,-470 -1050,-1050l0 -3000c0,-690 560,-1250 1250,-1250 710,0 1253,750 1253,1417l-1 2700 -299 0 0 -2700c0,-500 -411,-1117 -953,-1117 -525,0 -950,425 -950,950l0 3000c0,414 336,750 750,750 414,0 750,-336 750,-750l0 -2400c0,-304 -246,-550 -550,-550 -304,0 -550,246 -550,550l-1 2200 -298 0z"/>
</svg>