<?xml version="1.0" encoding="UTF-8"?>
<!DOCTYPE svg PUBLIC "-//W3C//DTD SVG 1.1//EN" "http://www.w3.org/Graphics/SVG/1.1/DTD/svg11.dtd">
<svg xmlns="http://www.w3.org/2000/svg" xml:space="preserve" width="580px" height="580px" shape-rendering="geometricPrecision" text-rendering="geometricPrecision" image-rendering="optimizeQuality" fill-rule="nonzero" clip-rule="nonzero" viewBox="0 0 5800 5800" xmlns:xlink="http://www.w3.org/1999/xlink">
	<title>parasol icon</title>
	<desc>parasol icon from the IconExperience.com I-Collection. Copyright by INCORS GmbH (www.incors.com).</desc>
	<path id="curve0"  d="M2400 2700l192 -332c56,37 112,70 172,101l-192 332c17,29 26,62 26,98 0,71 -38,136 -99,172l0 2229 800 0 0 200 -1800 0 0 -200 800 0 0 -2229c-61,-35 -99,-101 -99,-172 0,-111 90,-200 200,-199zm1047 -1813l79 -137c27,-47 88,-64 136,-36 48,27 64,88 37,136l-78 135 1711 1861c60,65 70,159 26,235l-141 244 -55 2c-625,24 -1222,-307 -1534,-849 -604,1 -1171,-327 -1472,-850 -626,1 -1210,-350 -1503,-904l-25 -49 141 -243c44,-76 130,-115 216,-95l2462 550z"/>
</svg>