<?xml version="1.0" encoding="utf-8"?>
<!-- Generator: Adobe Illustrator 22.0.0, SVG Export Plug-In . SVG Version: 6.00 Build 0)  -->
<svg version="1.1" xmlns="http://www.w3.org/2000/svg" xmlns:xlink="http://www.w3.org/1999/xlink" x="0px" y="0px"
	 viewBox="0 0 580 580" style="enable-background:new 0 0 580 580;" xml:space="preserve">
<style type="text/css">
	.st0{display:none;}
</style>
<g id="parent_related_record_tokenbox_with_free_input" text-rendering="geometricPrecision" shape-rendering="geometricPrecision" image-rendering="optimizeQuality">
	<g>
		<path d="M141.9,260.4c3,0,5.4-2.4,5.4-5.4v-84.7c0-3-2.4-5.4-5.4-5.4H15.7c-3,0-5.4,2.4-5.4,5.4v41.9v10.8v31.9
			c0,3,2.4,5.4,5.4,5.4h53.1v59.1H15.7c-3,0-5.4,2.4-5.4,5.4v31.9v10.8v41.9c0,3,2.4,5.4,5.4,5.4h126.2c3,0,5.4-2.4,5.4-5.4v-84.7
			c0-3-2.4-5.4-5.4-5.4H88.8v-59.1H141.9z M127.3,339.6V395h-97v-55.4H127.3z"/>
		<g>
			<path d="M190,165v250h380V165H190z M550,395H210V185h340V395z"/>
		</g>
		<polygon points="526,231.3 526,217.7 452.1,217.7 452.1,231.3 482.6,231.3 482.6,355.3 452.1,355.3 452.1,368.9 526,368.9 
			526,355.3 496.2,355.3 496.2,231.3 		"/>
		<g>
			<path d="M314.3,368.4H298v-15.9h-0.4c-7.1,12.2-17.5,18.3-31.3,18.3c-10.1,0-18.1-2.7-23.8-8c-5.7-5.4-8.6-12.5-8.6-21.3
				c0-19,11.2-30.1,33.6-33.2L298,304c0-17.3-7-25.9-21-25.9c-12.2,0-23.3,4.2-33.2,12.5v-16.7c10-6.4,21.5-9.5,34.6-9.5
				c23.9,0,35.8,12.6,35.8,37.9V368.4z M298,317l-24.5,3.4c-7.5,1.1-13.2,2.9-17.1,5.6c-3.8,2.7-5.8,7.4-5.8,14.2
				c0,5,1.8,9,5.3,12.2c3.5,3.1,8.3,4.7,14.2,4.7c8.1,0,14.7-2.8,20-8.5c5.3-5.7,7.9-12.8,7.9-21.5V317z"/>
			<path d="M361.7,353.7h-0.4v14.7H345V217.9h16.3v66.7h0.4c8-13.5,19.7-20.3,35.2-20.3c13,0,23.3,4.6,30.6,13.7
				c7.4,9.1,11.1,21.3,11.1,36.6c0,17-4.1,30.6-12.4,40.9c-8.3,10.2-19.6,15.3-34,15.3C378.7,370.8,368.5,365.1,361.7,353.7z
				 M361.3,312.7v14.2c0,8.4,2.7,15.5,8.2,21.4c5.5,5.9,12.4,8.8,20.8,8.8c9.9,0,17.6-3.8,23.2-11.3c5.6-7.5,8.4-18,8.4-31.5
				c0-11.3-2.6-20.2-7.8-26.6c-5.2-6.4-12.3-9.6-21.3-9.6c-9.5,0-17.1,3.3-22.8,9.9C364.1,294.5,361.3,302.8,361.3,312.7z"/>
		</g>
	</g>
</g>
<g id="hilfslinien" class="st0">
</g>
</svg>
