<?xml version="1.0" encoding="utf-8"?>
<!-- Generator: Adobe Illustrator 19.2.1, SVG Export Plug-In . SVG Version: 6.00 Build 0)  -->
<svg version="1.1" id="Ebene_1" xmlns="http://www.w3.org/2000/svg" xmlns:xlink="http://www.w3.org/1999/xlink" x="0px" y="0px"
	 width="580px" height="580px" viewBox="0 0 580 580" style="enable-background:new 0 0 580 580;" xml:space="preserve">
<g>
	<path d="M141.9,165H15.7c-3,0-5.7,2.4-5.7,5.4v41.9v10.8v31.9c0,3,2.8,4.9,5.7,4.9H69v60H15.7c-3,0-5.7,2-5.7,4.9v31.9v10.8v41.9
		c0,3,2.8,5.4,5.7,5.4h126.2c3,0,5.1-2.4,5.1-5.4v-84.7c0-3-2.1-4.9-5.1-4.9H89v-60h52.9c3,0,5.1-2,5.1-4.9v-84.7
		C147,167.4,144.9,165,141.9,165z M127,340v55H30v-55H127z"/>
	<path d="M190,165v250h380V165H190z M550,395H210V185h340V395z"/>
</g>
</svg>
