<?xml version="1.0" encoding="UTF-8"?>
<!DOCTYPE svg PUBLIC "-//W3C//DTD SVG 1.1//EN" "http://www.w3.org/Graphics/SVG/1.1/DTD/svg11.dtd">
<svg xmlns="http://www.w3.org/2000/svg" xml:space="preserve" width="580px" height="580px" shape-rendering="geometricPrecision" text-rendering="geometricPrecision" image-rendering="optimizeQuality" fill-rule="nonzero" clip-rule="nonzero" viewBox="0 0 5800 5800" xmlns:xlink="http://www.w3.org/1999/xlink">
	<title>parking_meter icon</title>
	<desc>parking_meter icon from the IconExperience.com I-Collection. Copyright by INCORS GmbH (www.incors.com).</desc>
	<path id="curve0"  d="M4071 200l634 1797 -830 2903 -575 0 0 600 -800 0 0 -600 -575 0 -830 -2903 634 -1797 2342 0zm-688 2462l-397 688 -172 -100 397 -687c-96,-41 -201,-63 -311,-63 -442,0 -800,358 -800,800 0,442 358,800 800,800 442,0 800,-358 800,-800 0,-260 -124,-491 -317,-638zm317 -662l0 -1100 -1600 0 0 1100c533,0 1067,0 1600,0zm-887 -200l517 -775 -258 775 -259 0zm-913 -1100l0 1500 2000 0 0 -1500 -2000 0z"/>
</svg>