<?xml version="1.0" encoding="UTF-8"?>
<!DOCTYPE svg PUBLIC "-//W3C//DTD SVG 1.1//EN" "http://www.w3.org/Graphics/SVG/1.1/DTD/svg11.dtd">
<svg xmlns="http://www.w3.org/2000/svg" xml:space="preserve" width="580px" height="580px" shape-rendering="geometricPrecision" text-rendering="geometricPrecision" image-rendering="optimizeQuality" fill-rule="nonzero" clip-rule="nonzero" viewBox="0 0 5800 5800" xmlns:xlink="http://www.w3.org/1999/xlink">
	<title>parking_meter icon</title>
	<desc>parking_meter icon from the IconExperience.com I-Collection. Copyright by INCORS GmbH (www.incors.com).</desc>
	<path id="curve0" d="M3900 700l0 1500 -2000 0 0 -1500 2000 0zm-1200 4200l0 600 -200 0 0 -600 -575 0 -830 -2903 634 -1797 2342 0 634 1797 -830 2903 -575 0 0 600 -200 0 0 -600 -400 0zm-600 -3451c234,-162 511,-249 797,-249 25,0 50,1 74,2l-132 199c-275,13 -534,119 -739,301l0 298c533,0 1067,0 1600,0l0 -292c-94,-85 -202,-155 -319,-207l63 -189c91,38 176,86 256,142l0 -554 -1600 0 0 549zm713 351l517 -775 -258 775 -259 0zm1116 -1400l-2058 0 -566 1603 770 2697 1650 0 770 -2697 -566 -1603zm-1029 2000c497,0 900,403 900,900 0,497 -403,900 -900,900 -497,0 -900,-403 -900,-900 0,-497 403,-900 900,-900zm433 350l-347 600 -172 -100 346 -600c-80,-32 -168,-50 -260,-50 -387,0 -700,313 -700,700 0,387 313,700 700,700 387,0 700,-313 700,-700 0,-216 -98,-417 -267,-550z"/>
</svg>