<?xml version="1.0" encoding="UTF-8"?>
<!DOCTYPE svg PUBLIC "-//W3C//DTD SVG 1.1//EN" "http://www.w3.org/Graphics/SVG/1.1/DTD/svg11.dtd">
<svg xmlns="http://www.w3.org/2000/svg" xml:space="preserve" width="580px" height="580px" shape-rendering="geometricPrecision" text-rendering="geometricPrecision" image-rendering="optimizeQuality" fill-rule="nonzero" clip-rule="nonzero" viewBox="0 0 5800 5800" xmlns:xlink="http://www.w3.org/1999/xlink">
	<title>passport icon</title>
	<desc>passport icon from the IconExperience.com I-Collection. Copyright by INCORS GmbH (www.incors.com).</desc>
		<path id="curve28"  d="M1000 607c4,52 48,93 100,93l3500 0c220,0 400,180 400,400l0 4000c0,220 -180,400 -400,400l-3400 0c-220,0 -400,-180 -400,-400 1,0 0,-4125 0,-4500 0,-83 34,-157 88,-212 55,-54 130,-88 212,-88l3500 0c201,0 372,152 397,351 -105,-93 -242,-150 -392,-151l-3505 0 0 0 -1 0 0 0 -1 0 -1 0 -1 0 0 0 -1 0 0 0 -1 0 0 0c-47,4 -83,35 -92,82l0 0 0 1 0 0 -1 2 0 0 0 1 0 0c-1,7 -1,13 -1,21zm2500 1093c-400,0 -800,0 -1200,0l0 800c0,301 308,565 555,689l45 22 45 -22c247,-124 555,-388 555,-689l0 -800zm-200 200l0 600c0,200 -240,399 -400,488 -160,-89 -400,-288 -400,-488l0 -600 800 0zm643 6l-174 99c87,151 131,320 131,495 0,552 -448,1000 -1000,1000 -552,0 -1000,-448 -1000,-1000 0,-175 44,-344 131,-495l-174 -99c-103,181 -157,386 -157,594 0,663 537,1200 1200,1200 663,0 1200,-537 1200,-1200 0,-208 -54,-413 -157,-594zm157 1994l-2400 0 0 800 2400 0 0 -800zm-200 200l0 400 -2000 0 0 -400 2000 0z"/>
</svg>