<?xml version="1.0" encoding="UTF-8"?>
<!DOCTYPE svg PUBLIC "-//W3C//DTD SVG 1.1//EN" "http://www.w3.org/Graphics/SVG/1.1/DTD/svg11.dtd">
<svg xmlns="http://www.w3.org/2000/svg" xml:space="preserve" width="580px" height="580px" shape-rendering="geometricPrecision" text-rendering="geometricPrecision" image-rendering="optimizeQuality" fill-rule="nonzero" clip-rule="nonzero" viewBox="0 0 5800 5800" xmlns:xlink="http://www.w3.org/1999/xlink">
	<title>password_field icon</title>
	<desc>password_field icon from the IconExperience.com I-Collection. Copyright by INCORS GmbH (www.incors.com).</desc>
		<path id="curve28"  d="M3300 2500l0 227 197 -113 99 172 -197 114 197 114 -99 172 -197 -113 0 227 -200 0 0 -227 -197 113 -99 -172 197 -114 -197 -114 99 -172 197 113 0 -227 200 0zm-1000 0l0 227 197 -113 99 172 -197 114 197 114 -99 172 -197 -113 0 227 -200 0 0 -227 -197 113 -99 -172 197 -114 -197 -114 99 -172 197 113 0 -227 200 0zm-1000 0l0 227 197 -113 99 172 -197 114 197 114 -99 172 -197 -113 0 227 -200 0 0 -227 -197 113 -99 -172 197 -114 -197 -114 99 -172 197 113 0 -227 200 0zm4200 -600l0 2000 -5200 0 0 -2000 5200 0zm-200 200l-4800 0 0 1600 4800 0 0 -1600z"/>
</svg>