<?xml version="1.0" encoding="utf-8"?>
<!-- Generator: Adobe Illustrator 19.2.1, SVG Export Plug-In . SVG Version: 6.00 Build 0)  -->
<svg version="1.1" id="Ebene_1" xmlns="http://www.w3.org/2000/svg" xmlns:xlink="http://www.w3.org/1999/xlink" x="0px" y="0px"
	 width="580px" height="580px" viewBox="0 0 580 580" style="enable-background:new 0 0 580 580;" xml:space="preserve">
<g>
	<path d="M10,115v350h560V115H10z M550,445H30V135h520V445z"/>
	<polygon points="76.6,332.6 86.4,349.9 160,307.3 160,392 180,392 180,307.3 253.9,349.9 264,332.6 190.3,290 264,247.4 
		253.9,230.1 180,272.7 180,188 160,188 160,272.7 86.5,230.1 76.6,247.4 150.3,290 	"/>
	<polygon points="317.5,332.6 327.4,349.9 401,307.3 401,392 421,392 421,307.3 494.9,349.9 504.9,332.6 431.2,290 505,247.4 
		494.9,230.1 421,272.7 421,188 401,188 401,272.7 327.4,230.1 317.5,247.4 391.2,290 	"/>
</g>
</svg>
