<?xml version="1.0" encoding="UTF-8"?>
<!DOCTYPE svg PUBLIC "-//W3C//DTD SVG 1.1//EN" "http://www.w3.org/Graphics/SVG/1.1/DTD/svg11.dtd">
<svg xmlns="http://www.w3.org/2000/svg" xml:space="preserve" width="580px" height="580px" shape-rendering="geometricPrecision" text-rendering="geometricPrecision" image-rendering="optimizeQuality" fill-rule="nonzero" clip-rule="nonzero" viewBox="0 0 5800 5800" xmlns:xlink="http://www.w3.org/1999/xlink">
	<title>passport icon</title>
	<desc>passport icon from the IconExperience.com I-Collection. Copyright by INCORS GmbH (www.incors.com).</desc>
		<path id="curve28" d="M3500 1700l0 800c0,114 -54,255 -166,390 -90,108 -219,214 -389,299l-45 22 -45 -22c-170,-85 -299,-191 -389,-299 -112,-135 -166,-276 -166,-390l0 -800 1200 0zm1300 -600c0,-110 -90,-200 -200,-200l-3500 0c-35,0 -69,-6 -100,-17l0 4217c0,110 90,200 200,200l3400 0c110,0 200,-90 200,-200l0 -4000zm200 0l0 4000c0,220 -180,400 -400,400l-3400 0c-220,0 -400,-180 -400,-400 0,-1500 0,-3000 0,-4500 0,-165 135,-300 300,-300l3500 0c201,0 372,152 397,351 -105,-93 -242,-150 -392,-151l-3505 0c-56,0 -100,44 -100,100 0,55 45,100 100,100l3500 0c220,0 400,180 400,400zm-1061 799c102,177 161,382 161,601 0,663 -537,1200 -1200,1200 -663,0 -1200,-537 -1200,-1200 0,-219 59,-424 161,-601l166 112c-81,145 -127,312 -127,489 0,552 448,1000 1000,1000 552,0 1000,-448 1000,-1000 0,-177 -46,-344 -127,-489l166 -112zm161 2001l0 800 -2400 0 0 -800 2400 0zm-200 200l-2000 0 0 400 2000 0 0 -400zm-600 -2200l-800 0 0 600c0,71 38,166 119,263 66,79 159,157 281,225 122,-68 215,-146 281,-225 81,-97 119,-192 119,-263l0 -600z"/>
</svg>