<?xml version="1.0" encoding="UTF-8"?>
<!DOCTYPE svg PUBLIC "-//W3C//DTD SVG 1.1//EN" "http://www.w3.org/Graphics/SVG/1.1/DTD/svg11.dtd">
<svg xmlns="http://www.w3.org/2000/svg" xml:space="preserve" width="580px" height="580px" shape-rendering="geometricPrecision" text-rendering="geometricPrecision" image-rendering="optimizeQuality" fill-rule="nonzero" clip-rule="nonzero" viewBox="0 0 5800 5800" xmlns:xlink="http://www.w3.org/1999/xlink">
	<title>pastor icon</title>
	<desc>pastor icon from the IconExperience.com I-Collection. Copyright by INCORS GmbH (www.incors.com).</desc>
		<path id="curve28"  d="M4141 3767c193,64 386,127 512,249 111,108 196,243 254,389 62,153 93,318 93,475 0,225 -254,370 -605,461 -465,121 -1113,159 -1495,159 -382,0 -1030,-38 -1495,-159 -351,-91 -605,-236 -605,-461 0,-157 31,-322 93,-476 58,-145 143,-280 254,-388 126,-122 319,-186 513,-249 134,-44 269,-89 368,-150 14,-9 58,-31 66,-43 5,-8 6,-28 6,-67 0,-10 0,-21 3,-31 14,-54 68,-86 121,-73l400 100 0 0c31,8 58,31 70,63 11,31 76,222 86,234l240 0c10,-12 73,-198 84,-229 10,-32 36,-59 72,-68l400 -100c8,-2 17,-3 26,-3 55,1 98,47 98,102 -1,42 0,63 5,71 4,7 24,19 57,38 2,1 5,3 7,4 100,62 236,107 372,152zm-1341 433l0 300 -300 0 0 200 300 0 0 600 200 0 0 -600 300 0 0 -200 -300 0 0 -300 -200 0zm-767 -1738c-7,-27 -25,-50 -52,-64 -65,-32 -111,-90 -136,-157 -29,-77 -33,-165 -11,-243 6,-17 7,-37 2,-56 -20,-82 -37,-168 -50,-254 -31,-221 -30,-444 37,-623 63,-166 188,-296 405,-350 25,-6 52,-11 81,-15 22,-2 44,-12 62,-29 130,-130 390,-184 659,-166 269,18 542,108 699,266 137,136 228,295 268,483 42,194 33,421 -33,688 -4,17 -4,34 1,52 23,79 20,169 -9,247 -25,66 -70,123 -133,156 -27,12 -48,35 -56,65 -3,8 -12,43 -21,79 -46,179 -95,369 -216,488 -19,19 -30,45 -30,73 1,32 -1,72 -5,115 37,-9 70,-16 110,-16 31,1 62,6 91,16 1,-26 3,-52 4,-77 137,-155 190,-358 239,-549 3,-10 5,-20 10,-37 92,-58 156,-145 193,-243 42,-109 49,-233 22,-346 68,-288 76,-536 29,-753 -50,-228 -159,-419 -322,-583 -193,-193 -515,-302 -828,-323 -307,-21 -612,45 -789,200 -25,5 -50,10 -74,16 -291,71 -458,247 -543,473 -81,214 -84,471 -48,721 12,84 28,168 47,249 -26,112 -19,237 22,346 37,98 101,185 193,243 5,16 7,24 8,30 51,196 105,402 242,556 1,24 3,49 5,76 52,-18 109,-21 167,-7l33 9c-3,-43 -6,-83 -6,-118 0,-26 -10,-52 -30,-71 -119,-118 -170,-312 -218,-495l-19 -72z"/>
</svg>