<?xml version="1.0" encoding="UTF-8"?>
<!DOCTYPE svg PUBLIC "-//W3C//DTD SVG 1.1//EN" "http://www.w3.org/Graphics/SVG/1.1/DTD/svg11.dtd">
<svg xmlns="http://www.w3.org/2000/svg" xml:space="preserve" width="580px" height="580px" shape-rendering="geometricPrecision" text-rendering="geometricPrecision" image-rendering="optimizeQuality" fill-rule="nonzero" clip-rule="nonzero" viewBox="0 0 5800 5800" xmlns:xlink="http://www.w3.org/1999/xlink">
	<title>pastor icon</title>
	<desc>pastor icon from the IconExperience.com I-Collection. Copyright by INCORS GmbH (www.incors.com).</desc>
		<path id="curve28"  d="M4395 5341c-465,121 -1113,159 -1495,159 -382,0 -1030,-38 -1495,-159 -351,-91 -605,-236 -605,-461 0,-157 31,-322 93,-476 58,-145 143,-280 254,-388 126,-122 319,-186 513,-249 134,-44 269,-89 368,-150 14,-9 58,-31 66,-43 5,-8 6,-28 6,-67 0,-10 0,-21 3,-31 14,-54 68,-86 121,-73l400 100c31,8 58,31 70,63 11,31 76,222 86,234 32,0 238,10 245,-10l79 -219c10,-32 36,-59 72,-68l400 -100c8,-2 17,-3 26,-3 55,1 98,47 98,102 -1,42 0,63 5,71 7,12 50,33 64,42 100,62 236,107 372,152l0 0c193,64 386,127 512,249 111,108 196,243 254,389 62,153 93,318 93,475 0,225 -254,370 -605,461zm-1595 -1141l0 300 -300 0 0 200 300 0 0 600 200 0 0 -600 300 0 0 -200 -300 0 0 -300 -200 0zm-694 -984c-2,-27 -4,-52 -5,-76 -137,-154 -191,-360 -242,-556 -1,-6 -3,-14 -8,-30 -92,-58 -156,-145 -193,-243 -41,-109 -48,-234 -22,-346 -19,-81 -35,-165 -47,-249 -36,-250 -33,-507 48,-721 85,-226 252,-402 543,-473 24,-6 49,-11 74,-16 177,-155 482,-221 789,-200 313,21 635,130 828,323 163,164 272,355 322,583 47,217 39,465 -29,753 27,113 20,237 -22,346 -37,98 -101,185 -193,243 -5,17 -7,27 -10,37 -49,191 -102,394 -239,549 -1,25 -3,51 -4,77 -29,-10 -60,-15 -91,-16 -27,0 -53,3 -78,9l-400 99c-106,27 -184,107 -214,204l-13 37 -19 -52c-35,-97 -115,-165 -208,-188l-400 -101c-58,-14 -115,-11 -167,7z"/>
</svg>