<?xml version="1.0" encoding="UTF-8"?>
<!DOCTYPE svg PUBLIC "-//W3C//DTD SVG 1.1//EN" "http://www.w3.org/Graphics/SVG/1.1/DTD/svg11.dtd">
<svg xmlns="http://www.w3.org/2000/svg" xml:space="preserve" width="580px" height="580px" shape-rendering="geometricPrecision" text-rendering="geometricPrecision" image-rendering="optimizeQuality" fill-rule="nonzero" clip-rule="nonzero" viewBox="0 0 5800 5800" xmlns:xlink="http://www.w3.org/1999/xlink">
	<title>pawn icon</title>
	<desc>pawn icon from the IconExperience.com I-Collection. Copyright by INCORS GmbH (www.incors.com).</desc>
		<path id="curve28"  d="M3700 1500c0,442 -358,800 -800,800l0 -200c331,0 600,-269 600,-600l200 0zm-800 -1200c663,0 1200,537 1200,1200 0,663 -537,1200 -1200,1200 -663,0 -1200,-537 -1200,-1200 0,-663 537,-1200 1200,-1200zm0 200c-552,0 -1000,448 -1000,1000 0,552 448,1000 1000,1000 552,0 1000,-448 1000,-1000 0,-552 -448,-1000 -1000,-1000zm780 2163l820 2119 0 718 -3200 0 0 -718 820 -2119c56,37 114,71 175,100l-795 2055 0 482 2800 0 0 -482 -795 -2055c61,-29 119,-63 175,-100zm-337 165l553 1843c3,10 4,20 4,29l0 400 -200 0 0 -386 -551 -1836c66,-12 131,-29 194,-50z"/>
</svg>