<?xml version="1.0" encoding="UTF-8"?>
<!DOCTYPE svg PUBLIC "-//W3C//DTD SVG 1.1//EN" "http://www.w3.org/Graphics/SVG/1.1/DTD/svg11.dtd">
<svg xmlns="http://www.w3.org/2000/svg" xml:space="preserve" width="580px" height="580px" shape-rendering="geometricPrecision" text-rendering="geometricPrecision" image-rendering="optimizeQuality" fill-rule="nonzero" clip-rule="nonzero" viewBox="0 0 5800 5800" xmlns:xlink="http://www.w3.org/1999/xlink">
	<title>pawn icon</title>
	<desc>pawn icon from the IconExperience.com I-Collection. Copyright by INCORS GmbH (www.incors.com).</desc>
		<path id="curve28"  d="M2900 300c663,0 1200,537 1200,1200 0,663 -537,1200 -1200,1200 -663,0 -1200,-537 -1200,-1200 0,-663 537,-1200 1200,-1200zm800 1200l-200 0c0,331 -269,600 -600,600l0 200c442,0 800,-358 800,-800zm-20 1163l820 2119 0 718 -3200 0 0 -718 820 -2119c223,150 491,237 780,237 85,0 168,-8 249,-22l551 1836 0 386 200 0 0 -400c0,-9 -1,-19 -4,-29l-553 -1843c120,-40 233,-96 337,-165z"/>
</svg>