<?xml version="1.0" encoding="UTF-8"?>
<!DOCTYPE svg PUBLIC "-//W3C//DTD SVG 1.1//EN" "http://www.w3.org/Graphics/SVG/1.1/DTD/svg11.dtd">
<svg xmlns="http://www.w3.org/2000/svg" xml:space="preserve" width="580px" height="580px" shape-rendering="geometricPrecision" text-rendering="geometricPrecision" image-rendering="optimizeQuality" fill-rule="nonzero" clip-rule="nonzero" viewBox="0 0 5800 5800" xmlns:xlink="http://www.w3.org/1999/xlink">
	<title>pci_card_network icon</title>
	<desc>pci_card_network icon from the IconExperience.com I-Collection. Copyright by INCORS GmbH (www.incors.com).</desc>
		<path id="curve28"  d="M3100 5200l0 -500 -200 0 0 -400 -1000 0 0 400 -600 0 0 -200 400 0 0 -400 1400 0 0 400 1000 0 0 -400 600 0 0 400 200 0 0 -400 200 0c110,0 200,-90 200,-200l0 -2400c0,-110 -90,-200 -200,-200l-3800 0 0 -200 3800 0c220,0 400,180 400,400l0 2400c0,220 -180,400 -400,400l0 400 -600 0 0 -400 -200 0 0 400 -1000 0 0 500 100 0 0 100 900 0 0 200 -900 0 0 100c-133,0 -267,0 -400,0l0 -100 -900 0 0 -200 900 0 0 -100 100 0zm-2800 -4900l500 0c165,0 300,135 300,300l0 4900 -200 0 0 -4900c0,-55 -45,-100 -100,-100l-500 0 0 -200zm3000 1600l0 1600 -1600 0 0 -1600 1600 0zm-200 200l-1200 0 0 1200 1200 0 0 -1200zm1800 -200l0 1200 -1200 0 0 -1200 1200 0zm-200 200l-800 0 0 800 800 0 0 -800z"/>
</svg>