<?xml version="1.0" encoding="UTF-8"?>
<!DOCTYPE svg PUBLIC "-//W3C//DTD SVG 1.1//EN" "http://www.w3.org/Graphics/SVG/1.1/DTD/svg11.dtd">
<svg xmlns="http://www.w3.org/2000/svg" xml:space="preserve" width="580px" height="580px" shape-rendering="geometricPrecision" text-rendering="geometricPrecision" image-rendering="optimizeQuality" fill-rule="nonzero" clip-rule="nonzero" viewBox="0 0 5800 5800" xmlns:xlink="http://www.w3.org/1999/xlink">
	<title>pda icon</title>
	<desc>pda icon from the IconExperience.com I-Collection. Copyright by INCORS GmbH (www.incors.com).</desc>
	<path id="curve0"  d="M1600 500l2600 0c275,0 500,225 500,500l0 3600c0,237 -169,442 -400,490l0 110c0,165 -135,300 -300,300l-2200 0c-165,0 -300,-135 -300,-300l0 -110c-231,-48 -400,-253 -400,-490l0 -3600c0,-275 225,-500 500,-500zm2000 4100c-165,0 -300,135 -300,300 0,165 135,300 300,300 390,0 390,-600 0,-600zm-1400 0c-165,0 -300,135 -300,300 0,165 135,300 300,300 165,0 300,-135 300,-300 0,-165 -135,-300 -300,-300zm703 0c-166,0 -300,135 -300,300 0,165 134,300 300,300 165,0 300,-135 300,-300 0,-165 -135,-300 -300,-300zm-1203 -3700c-110,0 -200,90 -200,200l0 3200c0,110 90,200 200,200l2400 0c110,0 200,-90 200,-200l0 -3200c0,-110 -90,-200 -200,-200l-2400 0zm2400 200l0 3200 -2400 0 0 -3200 2400 0z"/>
</svg>