<?xml version="1.0" encoding="UTF-8"?>
<!DOCTYPE svg PUBLIC "-//W3C//DTD SVG 1.1//EN" "http://www.w3.org/Graphics/SVG/1.1/DTD/svg11.dtd">
<svg xmlns="http://www.w3.org/2000/svg" xml:space="preserve" width="580px" height="580px" shape-rendering="geometricPrecision" text-rendering="geometricPrecision" image-rendering="optimizeQuality" fill-rule="nonzero" clip-rule="nonzero" viewBox="0 0 5800 5800" xmlns:xlink="http://www.w3.org/1999/xlink">
	<title>pda_write icon</title>
	<desc>pda_write icon from the IconExperience.com I-Collection. Copyright by INCORS GmbH (www.incors.com).</desc>
	<path id="curve0"  d="M5259 1600l-359 -359 -1515 1515 -215 574 574 -215 1515 -1515zm-3659 -1100l2600 0c233,0 435,162 487,388l-187 188 0 -76c0,-165 -135,-300 -300,-300l-2600 0c-165,0 -300,135 -300,300l0 3600c0,165 135,300 300,300l100 0 0 300c0,55 45,100 100,100l2200 0c55,0 100,-45 100,-100l0 -300 100 0c165,0 300,-135 300,-300l0 -1676 200 -200 0 1876c0,237 -169,442 -400,490l0 110c0,165 -135,300 -300,300l-2200 0c-165,0 -300,-135 -300,-300l0 -110c-231,-48 -400,-253 -400,-490l0 -3600c0,-275 225,-500 500,-500zm2000 4100c165,0 300,135 300,300 0,165 -135,300 -300,300 -165,0 -300,-135 -300,-300 0,-165 135,-300 300,-300zm0 200c-56,0 -100,44 -100,100 0,56 44,100 100,100 56,0 100,-44 100,-100 0,-56 -44,-100 -100,-100zm-1400 -200c165,0 300,135 300,300 0,165 -135,300 -300,300 -165,0 -300,-135 -300,-300 0,-165 135,-300 300,-300zm0 200c-56,0 -100,44 -100,100 0,56 44,100 100,100 56,0 100,-44 100,-100 0,-56 -44,-100 -100,-100zm703 -200c165,0 300,135 300,300 0,165 -135,300 -300,300 -166,0 -300,-135 -300,-300 0,-165 134,-300 300,-300zm0 200c-56,0 -100,44 -100,100 0,56 44,100 100,100 55,0 100,-44 100,-100 0,-56 -45,-100 -100,-100zm-1203 -3900l2400 0c110,0 200,90 200,200l0 176 -200 200 0 -376 -2400 0 0 3200 2400 0 0 -976 200 -200 0 1176c0,110 -90,200 -200,200l-2400 0c-110,0 -200,-90 -200,-200l0 -3200c0,-110 90,-200 200,-200zm3271 129l500 500c39,39 39,103 0,142l-1601 1599c-9,10 -21,18 -35,23l-800 300c-22,8 -46,9 -70,0 -51,-19 -78,-76 -58,-128l297 -792c4,-16 13,-31 25,-44l1600 -1600c39,-39 103,-39 142,0z"/>
</svg>