<?xml version="1.0" encoding="UTF-8"?>
<!DOCTYPE svg PUBLIC "-//W3C//DTD SVG 1.1//EN" "http://www.w3.org/Graphics/SVG/1.1/DTD/svg11.dtd">
<svg xmlns="http://www.w3.org/2000/svg" xml:space="preserve" width="580px" height="580px" shape-rendering="geometricPrecision" text-rendering="geometricPrecision" image-rendering="optimizeQuality" fill-rule="nonzero" clip-rule="nonzero" viewBox="0 0 5800 5800" xmlns:xlink="http://www.w3.org/1999/xlink">
	<title>pda_write icon</title>
	<desc>pda_write icon from the IconExperience.com I-Collection. Copyright by INCORS GmbH (www.incors.com).</desc>
	<path id="curve0"  d="M3871 3271c-10,9 -22,17 -36,22l-800 300c-22,8 -46,9 -70,0 -51,-19 -78,-76 -58,-128l297 -792c4,-16 13,-31 25,-44l1600 -1600c39,-39 103,-39 142,0l500 500c39,39 39,103 0,142l-1600 1600zm-2271 -2771l2600 0c233,0 435,162 487,388l-387 388 0 -176c0,-110 -90,-200 -200,-200l-2400 0c-110,0 -200,90 -200,200l0 3200c0,110 90,200 200,200l2400 0c110,0 200,-90 200,-200l0 -1176 400 -400 0 1876c0,237 -169,442 -400,490l0 110c0,165 -135,300 -300,300l-2200 0c-165,0 -300,-135 -300,-300l0 -110c-231,-48 -400,-253 -400,-490l0 -3600c0,-275 225,-500 500,-500zm2000 4100c-165,0 -300,135 -300,300 0,165 135,300 300,300 165,0 300,-135 300,-300 0,-165 -135,-300 -300,-300zm-1400 0c-165,0 -300,135 -300,300 0,165 135,300 300,300 165,0 300,-135 300,-300 0,-165 -135,-300 -300,-300zm703 0c-166,0 -300,135 -300,300 0,165 134,300 300,300 165,0 300,-135 300,-300 0,-165 -135,-300 -300,-300zm1197 -3500l0 376 -1012 1012c-38,38 -64,83 -77,132l-291 776c-58,154 21,326 176,384 70,26 144,24 209,0l799 -300c42,-15 78,-39 107,-69l89 -87 0 976 -2400 0 0 -3200 2400 0z"/>
</svg>