<?xml version="1.0" encoding="utf-8"?>
<!-- Generator: Adobe Illustrator 19.2.1, SVG Export Plug-In . SVG Version: 6.00 Build 0)  -->
<svg version="1.1" id="Ebene_1" xmlns="http://www.w3.org/2000/svg" xmlns:xlink="http://www.w3.org/1999/xlink" x="0px" y="0px"
	 width="580px" height="580px" viewBox="0 0 580 580" style="enable-background:new 0 0 580 580;" xml:space="preserve">
<g>
	<path d="M479.7,140.3l-100-100C373.4,33.9,364.6,30,355,30H90v520h400V165C490,155.4,486.1,146.6,479.7,140.3z M390,78.8l51.2,51.2
		H390V78.8z M470,530H110V50h245c8.2,0,15,6.8,15,15v85h85c8.3,0,15,6.7,15,15V530z"/>
	<path d="M348.3,359h-4l-0.7,3.9c-3.7,22.1-21.3,39.5-43.4,43.2l-4.2,0.6v72.2l5.3-0.4c61.1-4.9,109.8-53.4,114.7-114.5l0.4-5h-5.2
		H348.3z M365.6,428.3C351.9,442,335,451.4,316,455.9v-33.5c21-7.3,36.7-23.5,44-43.5h33.5C389,397,379.3,414.6,365.6,428.3z"/>
	<path d="M238.5,353.9c0-16.9,8-32.7,21.7-42.7l3.3-2.4l-32.3-64.6l-4.4,2.7c-37.5,22.7-60.3,63.2-60.3,107
		c0,65.1,50.3,119.5,115.2,124.6l5.4,0.4v-72.2l-4.2-0.7C257.3,401.8,238.5,379.6,238.5,353.9z M267,455.9
		c-20-4.8-38.3-15.5-52.5-30.8c-18-19.5-28-44.8-28-71.2c0-18,4.6-35.9,13.5-51.6c6.1-10.8,14.1-20.5,23.6-28.6l15,30
		c-12.7,13.4-19.9,31.4-19.9,50.2c0,31.3,19.3,58.4,48.3,68.6V455.9z"/>
	<path d="M244.7,237.9l-4.8,1.9l32.3,64.6l3.9-1.2c30.5-9.3,62.4,10.5,67.6,41.8l0.7,4h72.2l-0.4-5.2
		C409.4,259.5,322.3,206.6,244.7,237.9z"/>
</g>
</svg>
