<?xml version="1.0" encoding="UTF-8"?>
<!DOCTYPE svg PUBLIC "-//W3C//DTD SVG 1.1//EN" "http://www.w3.org/Graphics/SVG/1.1/DTD/svg11.dtd">
<svg xmlns="http://www.w3.org/2000/svg" xml:space="preserve" width="580px" height="580px" shape-rendering="geometricPrecision" text-rendering="geometricPrecision" image-rendering="optimizeQuality" fill-rule="nonzero" clip-rule="nonzero" viewBox="0 0 5800 5800" xmlns:xlink="http://www.w3.org/1999/xlink">
	<title>pencil icon</title>
	<desc>pencil icon from the IconExperience.com I-Collection. Copyright by INCORS GmbH (www.incors.com).</desc>
		<path id="curve28"  d="M3915 2457l-142 -142 -1744 1744 142 142 1744 -1744zm-2779 2518l719 -261 -769 -769 -261 719 311 311zm-466 -467l290 -800 2366 -2366 1132 1132 -2366 2366 -800 290 -576 210c-159,58 -314,-97 -256,-256l210 -576zm2798 -3307l636 -636c155,-156 411,-156 566,0l565 565c156,156 156,410 0,566l-636 636 -1131 -1131z"/>
</svg>