<?xml version="1.0" encoding="UTF-8"?>
<!DOCTYPE svg PUBLIC "-//W3C//DTD SVG 1.1//EN" "http://www.w3.org/Graphics/SVG/1.1/DTD/svg11.dtd">
<svg xmlns="http://www.w3.org/2000/svg" xml:space="preserve" width="580px" height="580px" shape-rendering="geometricPrecision" text-rendering="geometricPrecision" image-rendering="optimizeQuality" fill-rule="nonzero" clip-rule="nonzero" viewBox="0 0 5800 5800" xmlns:xlink="http://www.w3.org/1999/xlink">
	<title>pens icon</title>
	<desc>pens icon from the IconExperience.com I-Collection. Copyright by INCORS GmbH (www.incors.com).</desc>
	<path id="curve0"  d="M4715 2500l-428 3000 -2374 0 -428 -3000 3230 0zm-230 200l-2770 0 372 2600 2026 0 372 -2600zm-2425 -1284l322 884 -212 0 -297 -816 187 -68zm1428 884c137,-382 284,-758 444,-1130 131,-306 265,-596 379,-816 54,-103 175,-150 283,-110l385 140c109,40 171,153 146,266 -55,246 -138,553 -233,868 -79,263 -167,534 -254,782l-38 0 -173 0c91,-257 185,-545 270,-827l-587 -213c-147,343 -283,689 -410,1040l-212 0zm-893 0l-415 -1141 -733 267 318 874 -212 0 -573 -1576c-46,-157 38,-322 191,-378l526 -191c161,-59 339,24 397,185l714 1960 -213 0zm85 -933c3,-57 6,-114 9,-170 19,-331 45,-648 78,-897 15,-114 113,-200 228,-200l410 0c115,0 213,86 228,200 32,245 58,556 77,881 -62,145 -122,293 -180,438 -4,-133 -10,-267 -18,-398l-624 0c-12,214 -21,435 -26,646l-182 -500zm820 -346c-17,-258 -39,-499 -65,-695 -2,-16 -14,-26 -30,-26l-410 0c-16,0 -28,10 -30,26 -26,196 -48,437 -65,695l600 0zm1254 261c72,-249 134,-484 176,-675 4,-15 -5,-30 -19,-35l-385 -141c-15,-5 -30,1 -37,15 -92,176 -195,396 -299,631l564 205zm-2989 -940l-527 192c-56,21 -85,85 -65,141l206 564 733 -267 -205 -564c-21,-57 -85,-86 -142,-66z"/>
</svg>