<?xml version="1.0" encoding="UTF-8"?>
<!DOCTYPE svg PUBLIC "-//W3C//DTD SVG 1.1//EN" "http://www.w3.org/Graphics/SVG/1.1/DTD/svg11.dtd">
<svg xmlns="http://www.w3.org/2000/svg" xml:space="preserve" width="580px" height="580px" shape-rendering="geometricPrecision" text-rendering="geometricPrecision" image-rendering="optimizeQuality" fill-rule="nonzero" clip-rule="nonzero" viewBox="0 0 5800 5800" xmlns:xlink="http://www.w3.org/1999/xlink">
	<title>pens icon</title>
	<desc>pens icon from the IconExperience.com I-Collection. Copyright by INCORS GmbH (www.incors.com).</desc>
	<path id="curve0"  d="M4715 2500l-428 3000 -2374 0 -428 -3000 3230 0zm-2035 -1133c3,-49 5,-98 8,-146l1005 0c-150,356 -288,715 -416,1079l-257 0 -340 -933zm20 -346c18,-266 40,-517 67,-721 15,-114 113,-200 228,-200l410 0c115,0 213,86 228,200 27,204 49,455 67,721l-1000 0zm788 1279c134,-374 278,-743 434,-1109l963 351c-77,255 -163,517 -247,758 -383,0 -766,0 -1150,0zm514 -1292c108,-245 215,-473 309,-654 54,-103 175,-150 283,-110l385 140c109,40 171,153 146,266 -45,202 -109,445 -183,700l-940 -342zm-2449 1292l-293 -805 1108 -404 440 1209 -426 0 -322 -884 -187 68 297 816 -617 0zm-361 -993l-212 -583c-46,-157 38,-322 191,-378l526 -191c161,-59 339,24 397,185l205 564 -1107 403z"/>
</svg>