<?xml version="1.0" encoding="UTF-8"?>
<!DOCTYPE svg PUBLIC "-//W3C//DTD SVG 1.1//EN" "http://www.w3.org/Graphics/SVG/1.1/DTD/svg11.dtd">
<svg xmlns="http://www.w3.org/2000/svg" xml:space="preserve" width="580px" height="580px" shape-rendering="geometricPrecision" text-rendering="geometricPrecision" image-rendering="optimizeQuality" fill-rule="nonzero" clip-rule="nonzero" viewBox="0 0 5800 5800" xmlns:xlink="http://www.w3.org/1999/xlink">
	<title>pentagram icon</title>
	<desc>pentagram icon from the IconExperience.com I-Collection. Copyright by INCORS GmbH (www.incors.com).</desc>
		<path id="curve28"  d="M3514 2300l1992 0 -1617 1180 598 1880 -1587 -1158 -1587 1158 598 -1880 -1617 -1180 1992 0 614 -1928 614 1928zm63 200l248 780 1069 -780 -1317 0zm536 2340l-394 -1236 -650 474 1044 762zm-457 -1436l-288 -904 -936 0 -288 904 756 551 756 -551zm-351 -1104l-405 -1272 -405 1272 810 0zm-574 1778l-650 -474 -394 1236 1044 -762zm-1825 -1578l1069 780 248 -780 -1317 0z"/>
</svg>