<?xml version="1.0" encoding="UTF-8"?>
<!DOCTYPE svg PUBLIC "-//W3C//DTD SVG 1.1//EN" "http://www.w3.org/Graphics/SVG/1.1/DTD/svg11.dtd">
<svg xmlns="http://www.w3.org/2000/svg" xml:space="preserve" width="580px" height="580px" shape-rendering="geometricPrecision" text-rendering="geometricPrecision" image-rendering="optimizeQuality" fill-rule="nonzero" clip-rule="nonzero" viewBox="0 0 5800 5800" xmlns:xlink="http://www.w3.org/1999/xlink">
	<title>pentagram icon</title>
	<desc>pentagram icon from the IconExperience.com I-Collection. Copyright by INCORS GmbH (www.incors.com).</desc>
		<path id="curve28"  d="M2900 300c1436,0 2600,1164 2600,2600 0,1436 -1164,2600 -2600,2600 -1436,0 -2600,-1164 -2600,-2600 0,-1436 1164,-2600 2600,-2600zm518 1900l-518 -1623 -518 1623 -1688 0 1370 999 -508 1591 1344 -980 1344 980 -508 -1591 1370 -999 -1688 0zm64 200l191 599 821 -599 -1012 0zm387 1870l-302 -947 -498 363 800 584zm-366 -1147l-230 -723 -746 0 -230 723 603 440 603 -440zm-294 -923l-309 -968 -309 968 618 0zm-478 1486l-498 -363 -302 947 800 -584zm-1425 -1286l821 599 191 -599 -1012 0z"/>
</svg>