<?xml version="1.0" encoding="UTF-8"?>
<!DOCTYPE svg PUBLIC "-//W3C//DTD SVG 1.1//EN" "http://www.w3.org/Graphics/SVG/1.1/DTD/svg11.dtd">
<svg xmlns="http://www.w3.org/2000/svg" xml:space="preserve" width="580px" height="580px" shape-rendering="geometricPrecision" text-rendering="geometricPrecision" image-rendering="optimizeQuality" fill-rule="nonzero" clip-rule="nonzero" viewBox="0 0 5800 5800" xmlns:xlink="http://www.w3.org/1999/xlink">
	<title>perfume icon</title>
	<desc>perfume icon from the IconExperience.com I-Collection. Copyright by INCORS GmbH (www.incors.com).</desc>
		<path id="curve28" d="M2272 1325c39,39 39,103 0,142 -39,39 -103,39 -142,0 -39,-39 -39,-103 0,-142 39,-39 103,-39 142,0zm-400 200c39,39 39,103 0,142 -39,39 -103,39 -142,0 -39,-39 -39,-103 0,-142 39,-39 103,-39 142,0zm0 -400c39,39 39,103 0,142 -39,39 -103,39 -142,0 -39,-39 -39,-103 0,-142 39,-39 103,-39 142,0zm-397 599c39,39 39,103 0,142 -39,39 -102,39 -141,0 -39,-39 -39,-103 0,-142 39,-39 102,-39 141,0zm0 -400c39,39 39,103 0,142 -39,39 -102,39 -141,0 -39,-39 -39,-103 0,-142 39,-39 102,-39 141,0zm0 -399c39,39 39,103 0,142 -39,39 -102,39 -141,0 -39,-39 -39,-103 0,-142 39,-39 102,-39 141,0zm-403 199c39,39 39,103 0,142 -39,39 -103,39 -142,0 -39,-39 -39,-103 0,-142 39,-39 103,-39 142,0zm0 -399c39,39 39,103 0,142 -39,39 -103,39 -142,0 -39,-39 -39,-103 0,-142 39,-39 103,-39 142,0zm0 1200c39,39 39,103 0,142 -39,39 -103,39 -142,0 -39,-39 -39,-103 0,-142 39,-39 103,-39 142,0zm0 -399c39,39 39,103 0,142 -39,39 -103,39 -142,0 -39,-39 -39,-103 0,-142 39,-39 103,-39 142,0zm-401 -598c39,39 39,103 0,142 -39,39 -103,39 -142,0 -39,-39 -39,-103 0,-142 39,-39 103,-39 142,0zm0 -399c39,39 39,103 0,142 -39,39 -103,39 -142,0 -39,-39 -39,-103 0,-142 39,-39 103,-39 142,0zm0 1200c39,39 39,103 0,142 -39,39 -103,39 -142,0 -39,-39 -39,-103 0,-142 39,-39 103,-39 142,0zm0 -399c39,39 39,103 0,142 -39,39 -103,39 -142,0 -39,-39 -39,-103 0,-142 39,-39 103,-39 142,0zm0 799c39,39 39,103 0,142 -39,39 -103,39 -142,0 -39,-39 -39,-103 0,-142 39,-39 103,-39 142,0zm2129 -1029c166,0 300,134 300,300 0,166 -134,300 -300,300 -35,0 -69,-6 -100,-17l0 417 -200 0 0 200 1600 0 0 -200 -200 0 0 -1100c0,-55 -45,-100 -100,-100l-1000 0c-55,0 -100,45 -100,100l0 117c31,-11 65,-17 100,-17zm-200 1600l1400 0c390,0 719,270 948,662 222,378 352,871 352,1338l0 500c0,165 -135,300 -300,300l-3400 0c-165,0 -300,-135 -300,-300l0 -500c0,-491 144,-1012 387,-1396 227,-360 543,-604 913,-604zm0 200c-294,0 -552,206 -745,511 -56,89 -106,186 -151,289l3192 0c-36,-83 -76,-163 -119,-237 -196,-333 -467,-563 -777,-563l-1400 0zm-971 1000c-83,255 -129,532 -129,800l0 500c0,55 45,100 100,100l3400 0c55,0 100,-45 100,-100l0 -500c0,-269 -46,-544 -129,-800l-3342 0zm871 -2900c0,-166 134,-300 300,-300l1000 0c83,0 158,34 212,88 54,54 88,129 88,212l0 900 200 0 0 600 -2000 0 0 -600 200 0c0,-300 0,-600 0,-900z"/>
</svg>