<?xml version="1.0" encoding="UTF-8"?>
<!DOCTYPE svg PUBLIC "-//W3C//DTD SVG 1.1//EN" "http://www.w3.org/Graphics/SVG/1.1/DTD/svg11.dtd">
<svg xmlns="http://www.w3.org/2000/svg" xml:space="preserve" width="580px" height="580px" shape-rendering="geometricPrecision" text-rendering="geometricPrecision" image-rendering="optimizeQuality" fill-rule="nonzero" clip-rule="nonzero" viewBox="0 0 5800 5800" xmlns:xlink="http://www.w3.org/1999/xlink">
	<title>person icon</title>
	<desc>person icon from the IconExperience.com I-Collection. Copyright by INCORS GmbH (www.incors.com).</desc>
		<path id="curve28"  d="M3775 3688l-179 1319c-36,265 -348,493 -696,493 -348,0 -643,-231 -696,-493l-179 -1319c-137,-95 -225,-222 -225,-388 0,-549 127,-1094 419,-1468 179,166 418,268 681,268 263,0 502,-102 681,-268 292,374 419,920 419,1468 0,166 -88,294 -225,388zm-875 -3388c442,0 800,358 800,800 0,442 -358,800 -800,800 -442,0 -800,-358 -800,-800 0,-442 358,-800 800,-800z"/>
</svg>