<?xml version="1.0" encoding="UTF-8"?>
<!DOCTYPE svg PUBLIC "-//W3C//DTD SVG 1.1//EN" "http://www.w3.org/Graphics/SVG/1.1/DTD/svg11.dtd">
<svg xmlns="http://www.w3.org/2000/svg" xml:space="preserve" width="580px" height="580px" shape-rendering="geometricPrecision" text-rendering="geometricPrecision" image-rendering="optimizeQuality" fill-rule="nonzero" clip-rule="nonzero" viewBox="0 0 5800 5800" xmlns:xlink="http://www.w3.org/1999/xlink">
	<title>pet_bottle icon</title>
	<desc>pet_bottle icon from the IconExperience.com I-Collection. Copyright by INCORS GmbH (www.incors.com).</desc>
		<path id="curve28" d="M3500 3600l0 1500 -200 0 0 -1500 200 0zm-200 -1600l0 -100c0,-123 -77,-200 -200,-200l0 -200c234,0 400,166 400,400l0 100 -200 0zm-800 -1700l800 0c110,0 200,90 200,200l0 500c-400,0 -800,0 -1200,0l0 -500c0,-110 90,-200 200,-200zm800 200l-800 0 0 300 800 0 0 -300zm-600 800c-331,0 -600,269 -600,600l2 98c0,7 3,15 9,23 42,62 122,60 123,178 0,116 -79,115 -121,177 -5,8 -8,15 -8,22 0,7 2,15 8,23 42,62 122,60 122,177 -1,119 -81,116 -124,179 -6,8 -9,15 -9,22 0,7 3,15 9,23 42,62 122,60 123,178 0,117 -79,115 -121,177 -5,8 -8,16 -8,22 0,7 3,15 8,23 41,60 123,56 123,178 0,117 -83,118 -128,181 -1,1 -8,19 -8,19l0 1600c0,56 44,100 100,100l1400 0c56,0 100,-44 100,-100l0 -1600c0,-7 -3,-15 -8,-22 -42,-62 -123,-61 -123,-178 0,-122 82,-118 123,-178 5,-8 8,-16 8,-23 0,-6 -3,-14 -8,-22 -42,-62 -121,-60 -121,-177 0,-118 80,-115 123,-178 5,-8 8,-16 8,-23 0,-7 -3,-14 -8,-22 -47,-69 -124,-66 -124,-179 0,-114 80,-115 122,-177 5,-8 8,-16 8,-23 0,-7 -3,-14 -8,-22 -42,-62 -121,-63 -121,-177 0,-115 80,-116 123,-178 5,-8 8,-16 8,-23l-2 -98c0,-331 -269,-600 -600,-600l-400 0zm0 -200l400 0c442,0 800,358 800,800l2 98c0,49 -15,94 -43,135 -16,24 -37,46 -61,66 24,20 44,42 59,65 28,41 43,86 43,134 0,48 -15,93 -43,134 -16,24 -36,46 -60,66 24,20 45,42 62,66 28,41 43,87 43,135 0,49 -15,94 -43,135 -16,24 -37,46 -61,66 24,20 44,42 59,65 28,41 43,86 43,134 0,49 -15,94 -43,135 -16,24 -37,46 -61,66 24,19 45,41 61,65 28,41 43,87 43,135l-1 1600c0,166 -133,300 -299,300l-1400 0c-166,0 -299,-134 -299,-300l-1 -1600c0,-49 17,-94 46,-135 17,-24 38,-46 62,-66 -24,-20 -44,-41 -60,-65 -28,-41 -43,-86 -43,-135 0,-48 15,-93 42,-134 16,-23 36,-45 60,-65 -25,-20 -45,-42 -61,-66 -28,-41 -44,-86 -44,-135 0,-48 16,-94 44,-135 16,-24 37,-46 62,-66 -24,-20 -44,-42 -60,-66 -28,-41 -43,-86 -43,-134 0,-48 15,-93 42,-134 16,-23 36,-45 60,-65 -25,-20 -45,-42 -61,-66 -28,-41 -44,-86 -44,-135l-2 -98c0,-442 358,-800 800,-800z"/>
</svg>