<?xml version="1.0" encoding="UTF-8"?>
<!DOCTYPE svg PUBLIC "-//W3C//DTD SVG 1.1//EN" "http://www.w3.org/Graphics/SVG/1.1/DTD/svg11.dtd">
<svg xmlns="http://www.w3.org/2000/svg" xml:space="preserve" width="580px" height="580px" shape-rendering="geometricPrecision" text-rendering="geometricPrecision" image-rendering="optimizeQuality" fill-rule="nonzero" clip-rule="nonzero" viewBox="0 0 5800 5800" xmlns:xlink="http://www.w3.org/1999/xlink">
	<title>pet_bottle icon</title>
	<desc>pet_bottle icon from the IconExperience.com I-Collection. Copyright by INCORS GmbH (www.incors.com).</desc>
		<path id="curve28"  d="M2700 1100l400 0c442,0 800,358 800,800l2 98c0,82 -43,151 -104,201 60,51 102,119 102,199 0,81 -43,149 -103,200 61,50 105,120 105,201 0,82 -43,151 -104,201 60,51 102,119 102,199 0,81 -43,150 -104,201 61,50 104,119 104,200l-1 1600c0,166 -133,300 -299,300l-1400 0c-166,0 -299,-134 -299,-300l-1 -1600c0,-82 47,-151 108,-201 -60,-50 -103,-119 -103,-200 0,-80 42,-148 102,-199 -61,-50 -105,-119 -105,-201 0,-81 44,-151 106,-201 -60,-51 -103,-119 -103,-200 0,-80 42,-148 102,-199 -61,-50 -105,-119 -105,-201l-2 -98c0,-442 358,-800 800,-800zm800 2500l-200 0 0 1500 200 0 0 -1500zm-200 -1600l200 0 0 -100c0,-234 -166,-400 -400,-400l0 200c123,0 200,77 200,200l0 100zm-800 -1700l800 0c110,0 200,90 200,200l0 500 -1200 0 0 -500c0,-110 90,-200 200,-200z"/>
</svg>