<?xml version="1.0" encoding="UTF-8"?>
<!DOCTYPE svg PUBLIC "-//W3C//DTD SVG 1.1//EN" "http://www.w3.org/Graphics/SVG/1.1/DTD/svg11.dtd">
<svg xmlns="http://www.w3.org/2000/svg" xml:space="preserve" width="580px" height="580px" shape-rendering="geometricPrecision" text-rendering="geometricPrecision" image-rendering="optimizeQuality" fill-rule="nonzero" clip-rule="nonzero" viewBox="0 0 5800 5800" xmlns:xlink="http://www.w3.org/1999/xlink">
	<title>petri_dish icon</title>
	<desc>petri_dish icon from the IconExperience.com I-Collection. Copyright by INCORS GmbH (www.incors.com).</desc>
	<path id="curve0"  d="M3291 3488c-92,127 -20,283 217,365 277,96 707,96 984,0 341,-118 341,-388 0,-506 -33,-12 -69,-22 -107,-31 207,-57 396,-125 561,-204 144,76 263,162 354,255l0 -734c-138,141 -341,265 -595,367 -464,185 -1102,300 -1805,300 -703,0 -1341,-115 -1805,-300 -254,-102 -458,-226 -595,-367l0 734c90,-93 210,-179 354,-255 201,96 437,177 699,239 395,95 856,149 1347,149 133,0 264,-4 391,-12zm2009 -1288c0,-231 -256,-449 -669,-614 -441,-177 -1053,-286 -1731,-286 -678,0 -1290,109 -1731,286 -413,165 -669,383 -669,614 0,231 256,449 669,615 441,176 1053,285 1731,285 678,0 1290,-109 1731,-285 413,-166 669,-384 669,-615zm200 0l0 1600c0,321 -304,603 -795,800 -464,185 -1102,300 -1805,300 -703,0 -1341,-115 -1805,-300 -491,-197 -795,-479 -795,-800l0 -1600c0,-321 304,-603 795,-800 464,-185 1102,-300 1805,-300 703,0 1341,115 1805,300 491,197 795,479 795,800zm-4218 1501c-112,42 -182,112 -182,199 0,87 70,157 182,199 141,53 323,62 472,40 21,92 114,166 254,214 128,45 302,72 492,72 190,0 364,-27 492,-72 159,-55 258,-144 258,-253 0,-109 -99,-198 -258,-253 -128,-45 -302,-72 -492,-72 -156,0 -301,18 -419,50 -28,-53 -85,-95 -163,-124 -180,-68 -456,-68 -636,0zm538 -905c328,-61 694,-96 1080,-96 386,0 752,35 1080,96 -322,67 -689,104 -1080,104 -391,0 -758,-37 -1080,-104z"/>
</svg>