<?xml version="1.0" encoding="UTF-8"?>
<!DOCTYPE svg PUBLIC "-//W3C//DTD SVG 1.1//EN" "http://www.w3.org/Graphics/SVG/1.1/DTD/svg11.dtd">
<svg xmlns="http://www.w3.org/2000/svg" xml:space="preserve" width="580px" height="580px" shape-rendering="geometricPrecision" text-rendering="geometricPrecision" image-rendering="optimizeQuality" fill-rule="nonzero" clip-rule="nonzero" viewBox="0 0 5800 5800" xmlns:xlink="http://www.w3.org/1999/xlink">
	<title>petri_dish icon</title>
	<desc>petri_dish icon from the IconExperience.com I-Collection. Copyright by INCORS GmbH (www.incors.com).</desc>
	<path id="curve0" d="M2992 4353c-128,45 -302,72 -492,72 -190,0 -364,-27 -492,-72 -140,-48 -233,-122 -254,-214 -48,7 -100,11 -154,11 -122,0 -234,-19 -318,-51 -112,-42 -182,-112 -182,-199 0,-87 70,-157 182,-199 84,-32 196,-51 318,-51 122,0 234,19 318,51 78,29 135,71 163,124 118,-32 263,-50 419,-50 190,0 364,27 492,72 159,55 258,144 258,253 0,109 -99,198 -258,253zm-2692 -2153c0,-321 304,-603 795,-800 464,-185 1102,-300 1805,-300 703,0 1341,115 1805,300 491,197 795,479 795,800l0 1600c0,321 -304,603 -795,800 -464,185 -1102,300 -1805,300 -703,0 -1341,-115 -1805,-300 -491,-197 -795,-479 -795,-800 0,0 0,-1467 0,-1600zm5000 1600c-1,-218 -227,-424 -599,-585 27,-10 53,-20 78,-30 58,-23 114,-48 167,-73 144,76 263,162 354,255l0 -734c-138,141 -341,265 -595,367 -464,185 -1102,300 -1805,300 -703,0 -1341,-115 -1805,-300 -254,-102 -458,-226 -595,-367l0 734c90,-93 210,-179 354,-255 53,25 109,50 167,73 25,10 51,20 78,30 -372,161 -599,367 -599,585 0,231 256,449 669,615 441,176 1053,285 1731,285 678,0 1290,-109 1731,-285 413,-166 669,-384 669,-615zm-2400 -900c-392,0 -760,-37 -1082,-103 329,-62 696,-97 1082,-97 386,0 753,35 1082,97 -322,66 -690,103 -1082,103zm1484 416c39,9 75,19 108,31 159,55 258,144 258,253 0,109 -99,198 -258,253 -128,45 -302,72 -492,72 -190,0 -364,-27 -492,-72 -159,-55 -258,-144 -258,-253 0,-40 13,-78 38,-112 400,-24 772,-84 1096,-172zm916 -1116c0,-231 -256,-449 -669,-614 -441,-177 -1053,-286 -1731,-286 -678,0 -1290,109 -1731,286 -413,165 -669,383 -669,614 0,231 256,449 669,615 441,176 1053,285 1731,285 678,0 1290,-109 1731,-285 413,-166 669,-384 669,-615z"/>
</svg>