<?xml version="1.0" encoding="utf-8"?>
<!-- Generator: Adobe Illustrator 23.0.2, SVG Export Plug-In . SVG Version: 6.00 Build 0)  -->
<svg version="1.1" id="Ebene_1" xmlns="http://www.w3.org/2000/svg" xmlns:xlink="http://www.w3.org/1999/xlink" x="0px" y="0px"
	 viewBox="0 0 580 580" style="enable-background:new 0 0 580 580;" xml:space="preserve">
<g>
	<polygon points="153.7,191 18.8,191 77,290 18.8,389 153.7,389 211.8,290 	"/>
	<path d="M325.5,191H190.6l58.1,99l-58.1,99h134.9l58.1-99L325.5,191z M314.1,369h-88.5l46.4-79l-46.4-79h88.5l46.4,79L314.1,369z"
		/>
	<path d="M497.2,191H362.3l58.1,99l-58.1,99h134.9l58.1-99L497.2,191z M485.7,369h-88.5l46.4-79l-46.4-79h88.5l46.4,79L485.7,369z"
		/>
</g>
</svg>
