<?xml version="1.0" encoding="UTF-8"?>
<!DOCTYPE svg PUBLIC "-//W3C//DTD SVG 1.1//EN" "http://www.w3.org/Graphics/SVG/1.1/DTD/svg11.dtd">
<svg xmlns="http://www.w3.org/2000/svg" xml:space="preserve" width="580px" height="580px" shape-rendering="geometricPrecision" text-rendering="geometricPrecision" image-rendering="optimizeQuality" fill-rule="nonzero" clip-rule="nonzero" viewBox="0 0 5800 5800" xmlns:xlink="http://www.w3.org/1999/xlink">
	<title>phone_speaker icon</title>
	<desc>phone_speaker icon from the IconExperience.com I-Collection. Copyright by INCORS GmbH (www.incors.com).</desc>
		<path id="curve28"  d="M2929 4024c48,62 143,113 220,77 229,-107 482,-331 692,-594 205,-257 366,-548 419,-799 19,-87 -42,-175 -116,-216l-146 -80c-148,-81 -282,-285 -192,-452l476 -877c88,-162 273,-202 431,-116l159 87c161,88 322,240 441,414 165,243 244,517 140,800 -206,566 -580,1188 -1026,1746 -446,559 -966,1056 -1465,1374 -252,160 -529,132 -793,10 -281,-131 -409,-281 -590,-513 -56,-72 -82,-154 -78,-234 4,-82 39,-160 107,-219 63,-55 752,-657 753,-657 75,-59 168,-61 255,-32 154,52 220,162 313,281zm-2428 -1428c-121,0 -200,-79 -200,-200l0 -1000c0,-122 78,-200 200,-200l0 -100 599 1 0 1599 -599 0 0 -100zm799 -1640l583 -583c57,-57 124,-81 187,-81 118,0 231,88 231,212l0 2784c0,124 -113,212 -231,212 -63,0 -130,-24 -187,-81l-583 -582 0 -1881zm1201 138c305,152 499,465 499,806 0,340 -191,650 -494,803l-6 -12 0 -216c188,-132 300,-345 300,-575 0,-230 -111,-443 -300,-575l0 -228 1 -3zm-1 -536c593,177 1000,723 1000,1342 0,618 -407,1164 -998,1341l-2 -5 0 -204c480,-170 800,-623 800,-1132 0,-509 -321,-963 -800,-1132l0 -210z"/>
</svg>