<?xml version="1.0" encoding="UTF-8"?>
<!DOCTYPE svg PUBLIC "-//W3C//DTD SVG 1.1//EN" "http://www.w3.org/Graphics/SVG/1.1/DTD/svg11.dtd">
<svg xmlns="http://www.w3.org/2000/svg" xml:space="preserve" width="580px" height="580px" shape-rendering="geometricPrecision" text-rendering="geometricPrecision" image-rendering="optimizeQuality" fill-rule="nonzero" clip-rule="nonzero" viewBox="0 0 5800 5800" xmlns:xlink="http://www.w3.org/1999/xlink">
	<title>phone_conference icon</title>
	<desc>phone_conference icon from the IconExperience.com I-Collection. Copyright by INCORS GmbH (www.incors.com).</desc>
	<path id="curve0"  d="M680 1053l-13 -191c-3,-55 -7,-100 2,-155 40,-254 278,-402 522,-407 88,-1 173,13 251,57 41,-12 83,-15 124,-11 210,20 402,231 386,444l-17 263c13,58 9,122 -11,178 -42,16 -81,35 -117,58 -224,57 -355,195 -423,372 -67,174 -59,370 -22,552 -15,147 32,298 135,406 10,37 22,75 37,112 -290,18 -641,6 -918,-65 -183,-47 -316,-127 -316,-259 0,-77 16,-158 46,-234 69,-169 157,-234 323,-294 32,-11 63,-22 96,-31 42,-13 79,-24 124,-51 38,-25 43,-107 45,-147 -28,-35 -55,-78 -78,-123 -28,-55 -53,-115 -70,-166 -41,-31 -71,-72 -90,-118 -25,-55 -29,-132 -16,-190zm1247 2835c-145,-11 -302,-31 -430,-64 -189,-48 -326,-131 -326,-266 0,-79 16,-163 48,-241 30,-74 74,-143 133,-199 56,-54 136,-82 200,-106 80,-28 162,-47 237,-89 10,-6 1,-108 -1,-121 0,-11 -1,-21 -2,-31 -62,-77 -88,-171 -112,-261 -93,-69 -131,-194 -110,-306 -34,-150 -50,-326 6,-472 56,-144 168,-227 318,-257 95,-74 247,-106 398,-96 288,19 526,171 590,463 24,106 21,225 -11,362 12,59 7,123 -15,180 -19,49 -50,94 -94,126 -24,89 -49,183 -112,260 -1,14 -2,28 -3,42 -4,50 -9,106 0,111 72,45 157,61 236,89 172,62 263,130 334,305 31,78 48,162 48,241 0,117 -102,194 -251,244 -90,-115 -183,-199 -328,-248 -146,-49 -306,-42 -442,64 -5,-7 -284,247 -311,270zm537 -2683c20,-160 21,-317 15,-386 -20,-209 132,-434 335,-491 103,-29 209,-22 308,17 100,-39 205,-46 308,-17 204,57 355,282 336,491 -16,175 9,489 75,657 -65,120 -181,334 -211,389 -79,146 -65,299 -1,433 73,154 185,240 328,319 -270,124 -769,132 -1061,114 15,-37 27,-75 37,-112 103,-108 150,-260 135,-407 96,-479 -121,-895 -604,-1007zm465 2819c48,62 143,113 220,77 229,-107 482,-331 692,-594 205,-257 366,-548 419,-799 19,-87 -42,-175 -116,-216l-146 -80c-148,-81 -282,-285 -192,-452l476 -877c88,-162 273,-202 431,-116l159 87c161,88 322,240 441,414 165,243 244,517 140,800 -206,566 -580,1188 -1026,1746 -446,559 -966,1056 -1465,1374 -252,160 -529,132 -793,10 -281,-131 -409,-281 -590,-513 -56,-72 -82,-154 -78,-234 4,-82 39,-160 107,-219 63,-55 752,-657 753,-657 75,-59 168,-61 255,-32 154,52 220,162 313,281z"/>
</svg>