<?xml version="1.0" encoding="UTF-8"?>
<!DOCTYPE svg PUBLIC "-//W3C//DTD SVG 1.1//EN" "http://www.w3.org/Graphics/SVG/1.1/DTD/svg11.dtd">
<svg xmlns="http://www.w3.org/2000/svg" xml:space="preserve" width="580px" height="580px" shape-rendering="geometricPrecision" text-rendering="geometricPrecision" image-rendering="optimizeQuality" fill-rule="nonzero" clip-rule="nonzero" viewBox="0 0 5800 5800" xmlns:xlink="http://www.w3.org/1999/xlink">
	<title>phone_conference icon</title>
	<desc>phone_conference icon from the IconExperience.com I-Collection. Copyright by INCORS GmbH (www.incors.com).</desc>
	<path id="curve0"  d="M2772 4147l-104 -134c-27,-34 -147,-122 -187,-79l-742 648c-57,50 -46,125 -3,180l113 144c95,122 243,236 403,311 202,93 411,125 603,3 480,-306 983,-787 1416,-1330 433,-543 796,-1145 995,-1690 81,-222 10,-431 -118,-620 -101,-149 -237,-278 -371,-351l-159 -86c-60,-33 -126,-29 -161,35l-475 877c-10,18 -5,45 8,72 22,46 64,88 103,110l147 80c77,43 141,109 180,185 39,76 54,162 36,247 -60,283 -236,603 -459,882 -228,286 -507,532 -763,651 -164,76 -356,1 -462,-135zm53 -256l104 133c48,62 143,113 220,77 229,-107 482,-331 692,-594 205,-257 366,-548 419,-799 9,-38 1,-79 -18,-116 -21,-41 -55,-77 -98,-100l-146 -80c-148,-81 -282,-285 -192,-452l476 -877c88,-162 273,-202 431,-116l159 87c161,88 322,240 441,414 165,243 244,517 140,800 -206,566 -580,1188 -1026,1746 -446,559 -966,1056 -1465,1374 -250,159 -527,133 -793,10 -188,-87 -363,-223 -477,-369l-113 -144c-109,-140 -110,-332 29,-453l742 -649c146,-127 371,-26 475,108zm-587 -273c-104,80 -210,183 -311,270 -145,-11 -302,-31 -430,-64 -189,-48 -326,-131 -326,-266 0,-79 16,-163 48,-241 87,-217 219,-274 432,-337 45,-13 84,-25 131,-53 2,-2 4,-3 7,-4 8,-5 4,-67 -1,-120 0,-12 -1,-22 -2,-32 -62,-77 -88,-171 -112,-261 -44,-32 -75,-77 -94,-126 -22,-57 -27,-121 -16,-180 -8,-36 -15,-75 -21,-113 -17,-124 -15,-251 27,-359 57,-146 169,-228 318,-257 95,-74 247,-106 398,-96 288,19 526,171 590,463 24,106 21,225 -11,362 22,112 -16,237 -109,306 -24,89 -49,183 -112,260 -1,14 -2,28 -3,42 -4,50 -9,106 0,111 46,28 86,42 137,57 97,29 232,73 300,138 59,56 103,125 133,199 31,78 48,162 48,241 0,117 -102,194 -251,244 -15,-20 -30,-40 -47,-59 -69,-80 -173,-152 -281,-189 -146,-49 -306,-42 -442,64zm-1575 -2823c-1,-27 1,-61 6,-88 40,-254 278,-402 522,-407 36,0 73,2 109,8 52,8 96,23 142,49 116,-34 238,1 332,73 59,45 108,105 140,171 28,59 43,124 38,189l-17 263c13,58 9,122 -11,178 -42,16 -81,35 -117,58 -224,57 -355,195 -423,372 -55,144 -60,304 -38,457 4,33 10,64 16,95 -15,147 32,298 135,406 10,37 22,75 37,112 -85,5 -164,8 -227,8 -176,0 -476,-18 -691,-73 -183,-47 -316,-127 -316,-259 0,-77 16,-158 46,-234 29,-71 72,-138 129,-192 54,-52 132,-80 194,-102 32,-11 63,-22 96,-31 53,-16 82,-27 131,-55 28,-16 37,-118 38,-143 -64,-80 -116,-192 -148,-289 -94,-70 -131,-196 -106,-308l-17 -258zm1801 410c20,-160 21,-317 15,-386 -10,-104 23,-214 84,-303 99,-145 254,-221 429,-203 44,5 88,15 130,32 100,-39 205,-46 308,-17 204,57 355,282 336,491 -8,80 -6,279 25,463 13,72 29,140 50,194 -70,129 -141,262 -211,389 -144,268 25,587 273,722l54 30c-42,20 -91,36 -143,49 -216,55 -516,73 -692,73 -63,0 -141,-3 -226,-8 15,-37 27,-75 37,-112 103,-108 150,-260 135,-407 30,-152 31,-288 4,-412 -70,-315 -298,-523 -608,-595z"/>
</svg>