<?xml version="1.0" encoding="UTF-8"?>
<!DOCTYPE svg PUBLIC "-//W3C//DTD SVG 1.1//EN" "http://www.w3.org/Graphics/SVG/1.1/DTD/svg11.dtd">
<svg xmlns="http://www.w3.org/2000/svg" xml:space="preserve" width="580px" height="580px" shape-rendering="geometricPrecision" text-rendering="geometricPrecision" image-rendering="optimizeQuality" fill-rule="nonzero" clip-rule="nonzero" viewBox="0 0 5800 5800" xmlns:xlink="http://www.w3.org/1999/xlink">
	<title>phone_receiver icon</title>
	<desc>phone_receiver icon from the IconExperience.com I-Collection. Copyright by INCORS GmbH (www.incors.com).</desc>
		<path id="curve28"  d="M3892 2890c10,-49 5,-101 -14,-145 -16,-37 -42,-69 -76,-85 -232,-115 -572,-174 -914,-174 -332,0 -662,57 -891,174 -34,17 -60,49 -76,87 -18,43 -23,94 -13,143 31,148 72,269 13,422 -35,93 -102,168 -203,186l-988 179c-184,34 -333,-89 -370,-267l-37 -181c-37,-183 -26,-408 30,-613 53,-191 146,-367 279,-480 73,-63 156,-111 248,-143 573,-195 1298,-293 2021,-293 724,0 1449,98 2022,293 91,31 175,81 248,143 132,112 225,288 277,480 57,204 67,430 29,613l-37 181c-36,178 -185,301 -369,267l-989 -179c-101,-18 -168,-93 -203,-186 -59,-153 -18,-274 13,-422z"/>
</svg>