<?xml version="1.0" encoding="UTF-8"?>
<!DOCTYPE svg PUBLIC "-//W3C//DTD SVG 1.1//EN" "http://www.w3.org/Graphics/SVG/1.1/DTD/svg11.dtd">
<svg xmlns="http://www.w3.org/2000/svg" xml:space="preserve" width="580px" height="580px" shape-rendering="geometricPrecision" text-rendering="geometricPrecision" image-rendering="optimizeQuality" fill-rule="nonzero" clip-rule="nonzero" viewBox="0 0 5800 5800" xmlns:xlink="http://www.w3.org/1999/xlink">
	<title>phone_pick_up icon</title>
	<desc>phone_pick_up icon from the IconExperience.com I-Collection. Copyright by INCORS GmbH (www.incors.com).</desc>
		<path id="curve28" d="M4087 4530l-36 173c-7,41 -3,93 14,138 12,31 29,55 50,61l991 179c33,6 63,-1 85,-18 26,-19 46,-51 54,-93l37 -181c32,-154 22,-345 -26,-521 -42,-156 -115,-296 -214,-381 -54,-46 -116,-82 -183,-105 -552,-188 -1254,-282 -1958,-282 -703,0 -1406,94 -1957,282 -67,23 -130,60 -183,105 -100,85 -173,226 -216,382 -48,176 -58,367 -27,520l38 181c8,42 27,74 53,93 23,17 53,24 86,18l986 -179c22,-4 44,-36 54,-61 17,-45 21,-97 14,-139l-36 -172c-35,-172 32,-365 193,-447 258,-132 621,-196 982,-196 370,-1 743,66 1003,194 164,80 231,276 196,449zm-1287 -1630l0 -2159 -829 830 -142 -142 1071 -1070 1071 1070 -142 142 -829 -830 0 2159 -200 0zm1092 1590c16,-81 -9,-191 -90,-230 -232,-115 -572,-174 -914,-174 -332,0 -662,57 -891,174 -80,41 -105,148 -89,230l36 176c14,75 7,168 -23,246 -34,90 -99,165 -198,185l-993 180c-90,17 -173,-5 -239,-54 -65,-48 -112,-122 -131,-213l-37 -181c-37,-183 -26,-408 30,-613 53,-191 146,-367 279,-480 73,-63 156,-111 248,-143 573,-195 1298,-293 2021,-293 724,0 1449,98 2022,293 91,31 175,81 248,143 132,112 225,288 277,480 57,204 67,430 29,613l-37 181c-18,91 -65,165 -130,213 -66,49 -149,71 -239,54l-994 -180c-99,-20 -164,-94 -198,-185 -30,-78 -37,-171 -23,-246l36 -176z"/>
</svg>