<?xml version="1.0" encoding="UTF-8"?>
<!DOCTYPE svg PUBLIC "-//W3C//DTD SVG 1.1//EN" "http://www.w3.org/Graphics/SVG/1.1/DTD/svg11.dtd">
<svg xmlns="http://www.w3.org/2000/svg" xml:space="preserve" width="580px" height="580px" shape-rendering="geometricPrecision" text-rendering="geometricPrecision" image-rendering="optimizeQuality" fill-rule="nonzero" clip-rule="nonzero" viewBox="0 0 5800 5800" xmlns:xlink="http://www.w3.org/1999/xlink">
	<title>phone_pick_up icon</title>
	<desc>phone_pick_up icon from the IconExperience.com I-Collection. Copyright by INCORS GmbH (www.incors.com).</desc>
		<path id="curve28"  d="M3892 4488c10,-49 5,-100 -14,-144 -16,-38 -42,-69 -76,-86 -232,-114 -572,-174 -914,-174 -332,1 -662,57 -891,175 -34,17 -60,48 -76,87 -18,43 -23,94 -13,142 31,149 72,270 13,422 -35,94 -102,168 -203,187l-988 179c-184,33 -333,-90 -370,-267l-37 -181c-37,-183 -26,-409 30,-613 53,-192 146,-368 279,-480 73,-63 156,-112 248,-143 573,-196 1298,-293 2021,-293 724,0 1449,97 2022,293 91,31 175,80 248,143 132,112 225,288 277,479 57,205 67,431 29,614l-37 181c-36,177 -185,300 -369,267l-989 -179c-101,-19 -168,-93 -203,-187 -59,-152 -18,-273 13,-422zm-1092 -1588l0 -2159 -829 830 -142 -142 1071 -1070 1071 1070 -142 142 -829 -830 0 2159 -200 0z"/>
</svg>