<?xml version="1.0" encoding="UTF-8"?>
<!DOCTYPE svg PUBLIC "-//W3C//DTD SVG 1.1//EN" "http://www.w3.org/Graphics/SVG/1.1/DTD/svg11.dtd">
<svg xmlns="http://www.w3.org/2000/svg" xml:space="preserve" width="580px" height="580px" shape-rendering="geometricPrecision" text-rendering="geometricPrecision" image-rendering="optimizeQuality" fill-rule="nonzero" clip-rule="nonzero" viewBox="0 0 5800 5800" xmlns:xlink="http://www.w3.org/1999/xlink">
	<title>phone_speaker icon</title>
	<desc>phone_speaker icon from the IconExperience.com I-Collection. Copyright by INCORS GmbH (www.incors.com).</desc>
		<path id="curve29"  d="M2501 1094c305,153 499,465 499,806 0,340 -191,650 -494,803l-6 -12 0 -216c188,-131 300,-345 300,-575 0,-230 -111,-443 -300,-575l1 -231zm-1201 147l0 1318 723 723c21,21 77,30 77,10l0 -2784c0,-6 -25,-12 -31,-12 -14,0 -30,7 -46,22l-723 723zm-200 1259l0 -1200 -400 0 0 100 -200 0 0 1000 200 0 0 100 400 0zm-600 100c-121,0 -200,-79 -200,-200l0 -1000c0,-61 18,-109 55,-145 36,-37 84,-55 145,-55l0 -100 658 0 724 -723c57,-57 124,-81 187,-81 118,0 231,88 231,212l0 2784c0,125 -114,212 -231,212 -63,0 -130,-24 -187,-81l-724 -723 -658 0 0 -100zm2000 -2042c593,177 1000,723 1000,1342 0,618 -407,1164 -998,1341l-2 -5 0 -204c480,-170 800,-623 800,-1132 0,-508 -321,-963 -800,-1132l0 -210z"/>
	<path id="curve28"  d="M2772 4147l-104 -134c-27,-34 -147,-122 -187,-79l-742 648c-57,50 -46,125 -3,180l113 144c95,122 243,236 403,311 142,65 290,99 413,76 68,-12 133,-36 190,-73 480,-306 983,-787 1416,-1330 433,-543 796,-1145 995,-1690 24,-67 35,-139 34,-210 -2,-131 -62,-277 -152,-410 -101,-149 -237,-278 -371,-351l-159 -86c-60,-33 -126,-29 -161,35l-475 877c-10,18 -5,45 8,72 22,46 64,88 103,110l147 80c151,83 253,259 216,432 -60,283 -236,603 -459,882 -228,286 -507,532 -763,651 -80,37 -168,39 -250,13 -81,-25 -157,-78 -212,-148zm157 -123c48,62 143,113 220,77 229,-107 482,-331 692,-594 205,-257 366,-548 419,-799 19,-87 -42,-175 -116,-216l-146 -80c-73,-40 -149,-116 -188,-199 -39,-81 -48,-171 -4,-253l476 -877c88,-162 273,-202 431,-116l159 87c161,88 322,240 441,414 110,163 184,347 187,520 1,96 -14,190 -47,280 -206,566 -580,1188 -1026,1746 -446,559 -966,1056 -1465,1374 -79,51 -168,84 -261,101 -166,31 -356,-9 -532,-91 -188,-87 -363,-223 -477,-369l-113 -144c-109,-140 -110,-332 29,-453 63,-55 752,-657 753,-657 141,-110 345,-21 450,99 41,46 80,101 118,150z"/>
</svg>