<?xml version="1.0" encoding="UTF-8"?>
<!DOCTYPE svg PUBLIC "-//W3C//DTD SVG 1.1//EN" "http://www.w3.org/Graphics/SVG/1.1/DTD/svg11.dtd">
<svg xmlns="http://www.w3.org/2000/svg" xml:space="preserve" width="580px" height="580px" shape-rendering="geometricPrecision" text-rendering="geometricPrecision" image-rendering="optimizeQuality" fill-rule="nonzero" clip-rule="nonzero" viewBox="0 0 5800 5800" xmlns:xlink="http://www.w3.org/1999/xlink">
	<title>phone_speech_bubble icon</title>
	<desc>phone_speech_bubble icon from the IconExperience.com I-Collection. Copyright by INCORS GmbH (www.incors.com).</desc>
		<path id="curve28"  d="M2929 4024c48,62 143,113 220,77 229,-107 482,-331 692,-594 205,-257 366,-548 419,-799 19,-87 -42,-175 -116,-216l-146 -80c-148,-81 -282,-285 -192,-452l476 -877c88,-162 273,-202 431,-116l159 87c161,88 322,240 441,414 165,243 244,517 140,800 -206,566 -580,1188 -1026,1746 -446,559 -966,1056 -1465,1374 -252,160 -529,132 -793,10 -281,-131 -409,-281 -590,-513 -56,-72 -82,-154 -78,-234 4,-82 39,-160 107,-219 63,-55 752,-657 753,-657 75,-59 168,-61 255,-32 154,52 220,162 313,281zm-1941 -819c-108,-141 -173,-305 -185,-465 -299,-228 -503,-560 -503,-944 0,-824 858,-1296 1600,-1296 742,0 1600,477 1600,1300 0,823 -858,1299 -1600,1299 -178,0 -273,33 -313,86 -38,51 -33,134 -10,233l43 178 -173 -61c-193,-67 -349,-187 -459,-330z"/>
</svg>