<?xml version="1.0" encoding="UTF-8"?>
<!DOCTYPE svg PUBLIC "-//W3C//DTD SVG 1.1//EN" "http://www.w3.org/Graphics/SVG/1.1/DTD/svg11.dtd">
<svg xmlns="http://www.w3.org/2000/svg" xml:space="preserve" width="580px" height="580px" shape-rendering="geometricPrecision" text-rendering="geometricPrecision" image-rendering="optimizeQuality" fill-rule="nonzero" clip-rule="nonzero" viewBox="0 0 5800 5800" xmlns:xlink="http://www.w3.org/1999/xlink">
	<title>phone_receiver2 icon</title>
	<desc>phone_receiver2 icon from the IconExperience.com I-Collection. Copyright by INCORS GmbH (www.incors.com).</desc>
		<path id="curve28"  d="M2329 3623c48,62 143,113 221,77 228,-107 481,-331 691,-594 205,-257 366,-548 420,-799 18,-87 -43,-175 -117,-216l-146 -80c-148,-81 -282,-285 -192,-452l476 -877c88,-162 273,-202 431,-116l159 87c161,88 322,240 441,414 165,243 244,517 140,800 -206,566 -580,1188 -1026,1746 -446,559 -966,1056 -1465,1374 -252,160 -529,132 -793,10 -281,-131 -409,-281 -590,-513 -56,-72 -82,-155 -78,-234 4,-82 39,-160 107,-219 63,-55 752,-657 753,-657 75,-59 168,-61 255,-32 154,52 220,162 313,281z"/>
</svg>