<?xml version="1.0" encoding="UTF-8"?>
<!DOCTYPE svg PUBLIC "-//W3C//DTD SVG 1.1//EN" "http://www.w3.org/Graphics/SVG/1.1/DTD/svg11.dtd">
<svg xmlns="http://www.w3.org/2000/svg" xml:space="preserve" width="580px" height="580px" shape-rendering="geometricPrecision" text-rendering="geometricPrecision" image-rendering="optimizeQuality" fill-rule="nonzero" clip-rule="nonzero" viewBox="0 0 5800 5800" xmlns:xlink="http://www.w3.org/1999/xlink">
	<title>phone_speech_bubble icon</title>
	<desc>phone_speech_bubble icon from the IconExperience.com I-Collection. Copyright by INCORS GmbH (www.incors.com).</desc>
		<path id="curve29" d="M2772 4147l-104 -134c-27,-34 -147,-122 -187,-79l-742 648c-57,50 -46,125 -3,180l113 144c95,122 243,236 403,311 142,65 290,99 413,76 68,-12 133,-36 190,-73 480,-306 983,-787 1416,-1330 433,-543 796,-1145 995,-1690 24,-67 35,-139 34,-210 -2,-131 -62,-277 -152,-410 -101,-149 -237,-278 -371,-351l-159 -86c-60,-33 -126,-29 -161,35l-475 877c-10,18 -5,45 8,72 22,46 64,88 103,110l147 80c151,83 253,259 216,432 -60,283 -236,603 -459,882 -228,286 -507,532 -763,651 -80,37 -168,39 -250,13 -81,-25 -157,-78 -212,-148zm157 -123c48,62 143,113 220,77 229,-107 482,-331 692,-594 205,-257 366,-548 419,-799 19,-87 -42,-175 -116,-216l-146 -80c-73,-40 -149,-116 -188,-199 -39,-81 -48,-171 -4,-253l476 -877c88,-162 273,-202 431,-116l159 87c161,88 322,240 441,414 110,163 184,347 187,520 1,96 -14,190 -47,280 -206,566 -580,1188 -1026,1746 -446,559 -966,1056 -1465,1374 -79,51 -168,84 -261,101 -166,31 -356,-9 -532,-91 -188,-87 -363,-223 -477,-369l-113 -144c-109,-140 -110,-332 29,-453 63,-55 752,-657 753,-657 141,-110 345,-21 450,99 41,46 80,101 118,150z"/>
	<path id="curve28" d="M1000 2687c1,133 52,275 146,396 56,74 128,139 214,192 2,-78 21,-148 67,-209 77,-104 223,-167 473,-167 391,0 744,-126 998,-329 248,-199 402,-471 402,-770 0,-299 -154,-572 -402,-771 -254,-203 -607,-329 -998,-329 -391,0 -744,126 -999,329 -248,197 -401,469 -401,767 0,157 42,305 117,439 80,142 197,269 341,372l41 29 1 51zm-12 518c-108,-141 -173,-305 -185,-465 -151,-115 -274,-253 -360,-407 -92,-164 -143,-345 -143,-537 0,-362 182,-689 477,-924 289,-230 686,-372 1123,-372 437,0 834,143 1122,374 295,236 478,564 478,926 0,362 -183,689 -478,925 -288,231 -685,374 -1122,374 -178,0 -273,33 -313,86 -38,51 -33,134 -10,233l43 178 -173 -61c-193,-67 -349,-187 -459,-330z"/>
</svg>