<?xml version="1.0" encoding="UTF-8"?>
<!DOCTYPE svg PUBLIC "-//W3C//DTD SVG 1.1//EN" "http://www.w3.org/Graphics/SVG/1.1/DTD/svg11.dtd">
<svg xmlns="http://www.w3.org/2000/svg" xml:space="preserve" width="580px" height="580px" shape-rendering="geometricPrecision" text-rendering="geometricPrecision" image-rendering="optimizeQuality" fill-rule="nonzero" clip-rule="nonzero" viewBox="0 0 5800 5800" xmlns:xlink="http://www.w3.org/1999/xlink">
	<title>photo_landscape icon</title>
	<desc>photo_landscape icon from the IconExperience.com I-Collection. Copyright by INCORS GmbH (www.incors.com).</desc>
		<path id="curve28"  d="M2600 1500c387,0 700,313 700,700 0,387 -313,700 -700,700 -387,0 -700,-313 -700,-700 0,-387 313,-700 700,-700zm-1700 1755c84,-65 172,-129 265,-185 164,-97 341,-166 533,-170 225,-3 419,99 606,198 33,17 65,34 95,49 114,58 226,113 344,168 31,14 61,28 92,42 -56,49 -113,96 -172,141 -119,-55 -237,-113 -354,-173 -34,-17 -66,-34 -98,-51 -165,-87 -337,-177 -509,-174 -153,2 -298,60 -436,141 -127,76 -250,175 -366,271l0 424c249,91 534,165 800,164 470,-1 840,-236 1190,-526 139,-116 272,-244 406,-373 121,-116 243,-228 366,-343 177,-163 379,-352 636,-358 178,-4 331,74 463,186 50,42 96,89 139,137l0 -1523 -4000 0 0 1955zm4000 -110c-76,-106 -166,-220 -268,-307 -98,-83 -209,-141 -330,-138 -180,4 -353,165 -504,304 -122,114 -244,225 -364,341 -134,129 -269,259 -417,382 -390,324 -794,571 -1317,573 -270,0 -546,-65 -800,-153l0 353 4000 0 0 -1355zm600 -2445l0 4400 -5200 0 0 -4400 5200 0zm-200 200l-4800 0 0 4000 4800 0 0 -4000zm-200 200l0 3600 -4400 0 0 -3600 4400 0zm-2146 746c-91,-90 -216,-146 -354,-146 -276,0 -500,224 -500,500 0,276 224,500 500,500 276,0 500,-224 500,-500 0,-138 -56,-263 -146,-354z"/>
</svg>