<?xml version="1.0" encoding="UTF-8"?>
<!DOCTYPE svg PUBLIC "-//W3C//DTD SVG 1.1//EN" "http://www.w3.org/Graphics/SVG/1.1/DTD/svg11.dtd">
<svg xmlns="http://www.w3.org/2000/svg" xml:space="preserve" width="580px" height="580px" shape-rendering="geometricPrecision" text-rendering="geometricPrecision" image-rendering="optimizeQuality" fill-rule="nonzero" clip-rule="nonzero" viewBox="0 0 5800 5800" xmlns:xlink="http://www.w3.org/1999/xlink">
	<title>photos icon</title>
	<desc>photos icon from the IconExperience.com I-Collection. Copyright by INCORS GmbH (www.incors.com).</desc>
	<path id="curve0"  d="M2200 2450c276,0 500,224 500,500 0,276 -224,500 -500,500 -276,0 -500,-224 -500,-500 0,-276 224,-500 500,-500zm-1300 1237c45,-32 92,-62 141,-89 122,-68 253,-114 395,-117 185,-3 342,81 494,163 115,61 231,119 349,175l24 11c-19,17 -38,33 -57,49 -38,32 -76,63 -113,91 -100,-48 -199,-98 -297,-151 -129,-69 -264,-141 -397,-138 -104,1 -205,38 -301,91 -83,46 -162,104 -238,165l0 417c170,56 358,99 538,99 161,-1 310,-35 460,-103 153,-71 308,-177 476,-319 110,-93 217,-196 323,-300 97,-95 195,-186 293,-278 144,-135 309,-291 522,-295 131,-3 245,47 345,124 15,11 29,23 43,35l0 -1017 -3000 0 0 1387zm4100 -2587l0 3500 -304 0 0 -200 104 0 0 -3100 -3700 0 0 200 -200 0 0 -400 4100 0zm492 -600l0 3400 -292 0 0 -200 92 0 0 -3000 -3592 0 0 200 -200 0 0 -400 3992 0zm-1592 3108c-50,-62 -104,-122 -164,-167 -67,-52 -141,-86 -220,-84 -136,3 -271,130 -389,241 -97,92 -194,182 -291,276 -107,104 -214,209 -333,309 -183,154 -352,270 -523,348 -175,80 -351,120 -542,121 -181,0 -365,-37 -538,-89l0 137 3000 0 0 -1092zm596 -1908l0 3600 -4196 0 0 -3600 4196 0zm-200 200l-3796 0 0 3200 3796 0 0 -3200zm-196 200l0 2800 -3400 0 0 -2800 3400 0zm-1900 550c-166,0 -300,134 -300,300 0,166 134,300 300,300 166,0 300,-134 300,-300 0,-166 -134,-300 -300,-300z"/>
</svg>