<?xml version="1.0" encoding="UTF-8"?>
<!DOCTYPE svg PUBLIC "-//W3C//DTD SVG 1.1//EN" "http://www.w3.org/Graphics/SVG/1.1/DTD/svg11.dtd">
<svg xmlns="http://www.w3.org/2000/svg" xml:space="preserve" width="580px" height="580px" shape-rendering="geometricPrecision" text-rendering="geometricPrecision" image-rendering="optimizeQuality" fill-rule="nonzero" clip-rule="nonzero" viewBox="0 0 5800 5800" xmlns:xlink="http://www.w3.org/1999/xlink">
	<title>photographic_filters icon</title>
	<desc>photographic_filters icon from the IconExperience.com I-Collection. Copyright by INCORS GmbH (www.incors.com).</desc>
	<path id="curve0"  d="M3900 3300c0,773 -627,1400 -1400,1400l0 -200c663,0 1200,-537 1200,-1200l200 0zm-1000 -2500c1215,0 2200,985 2200,2200 0,474 -150,914 -405,1273 132,-297 205,-627 205,-973 0,-53 -2,-105 -5,-157 3,-47 5,-95 5,-143 0,-942 -659,-1757 -1577,-1955 -257,-94 -534,-145 -823,-145 -110,0 -217,7 -323,22 226,-79 470,-122 723,-122zm400 -300c1215,0 2200,985 2200,2200 0,474 -150,914 -405,1273 132,-297 205,-627 205,-973 0,-53 -2,-105 -5,-157 3,-47 5,-95 5,-143 0,-942 -659,-1758 -1577,-1955 -257,-94 -534,-145 -823,-145 -110,0 -217,7 -323,22 226,-79 470,-122 723,-122zm-800 600c1215,0 2200,985 2200,2200 0,1215 -985,2200 -2200,2200 -1215,0 -2200,-985 -2200,-2200 0,-1215 985,-2200 2200,-2200zm0 200c-1105,0 -2000,895 -2000,2000 0,1105 895,2000 2000,2000 1105,0 2000,-895 2000,-2000 0,-1105 -895,-2000 -2000,-2000zm0 200c994,0 1800,806 1800,1800 0,994 -806,1800 -1800,1800 -994,0 -1800,-806 -1800,-1800 0,-994 806,-1800 1800,-1800zm0 200c-884,0 -1600,716 -1600,1600 0,442 179,842 469,1131 289,290 689,469 1131,469 884,0 1600,-716 1600,-1600 0,-884 -716,-1600 -1600,-1600z"/>
</svg>