<?xml version="1.0" encoding="UTF-8"?>
<!DOCTYPE svg PUBLIC "-//W3C//DTD SVG 1.1//EN" "http://www.w3.org/Graphics/SVG/1.1/DTD/svg11.dtd">
<svg xmlns="http://www.w3.org/2000/svg" xml:space="preserve" width="580px" height="580px" shape-rendering="geometricPrecision" text-rendering="geometricPrecision" image-rendering="optimizeQuality" fill-rule="nonzero" clip-rule="nonzero" viewBox="0 0 5800 5800" xmlns:xlink="http://www.w3.org/1999/xlink">
	<title>photographic_filter icon</title>
	<desc>photographic_filter icon from the IconExperience.com I-Collection. Copyright by INCORS GmbH (www.incors.com).</desc>
	<path id="curve0"  d="M4600 2900c0,939 -761,1700 -1700,1700l0 -200c828,0 1500,-672 1500,-1500l200 0zm-1700 -2200c1215,0 2200,985 2200,2200 0,1215 -985,2200 -2200,2200 -1215,0 -2200,-985 -2200,-2200 0,-1215 985,-2200 2200,-2200zm0 200c-1105,0 -2000,895 -2000,2000 0,1105 895,2000 2000,2000 1105,0 2000,-895 2000,-2000 0,-1105 -895,-2000 -2000,-2000zm0 -600c1436,0 2600,1164 2600,2600 0,1436 -1164,2600 -2600,2600 -1436,0 -2600,-1164 -2600,-2600 0,-1436 1164,-2600 2600,-2600zm0 200c-1325,0 -2400,1075 -2400,2400 0,1325 1075,2400 2400,2400 1325,0 2400,-1075 2400,-2400 0,-1325 -1075,-2400 -2400,-2400z"/>
</svg>