<?xml version="1.0" encoding="UTF-8"?>
<!DOCTYPE svg PUBLIC "-//W3C//DTD SVG 1.1//EN" "http://www.w3.org/Graphics/SVG/1.1/DTD/svg11.dtd">
<svg xmlns="http://www.w3.org/2000/svg" xml:space="preserve" width="580px" height="580px" shape-rendering="geometricPrecision" text-rendering="geometricPrecision" image-rendering="optimizeQuality" fill-rule="nonzero" clip-rule="nonzero" viewBox="0 0 5800 5800" xmlns:xlink="http://www.w3.org/1999/xlink">
	<title>photos icon</title>
	<desc>photos icon from the IconExperience.com I-Collection. Copyright by INCORS GmbH (www.incors.com).</desc>
	<path id="curve0"  d="M4500 1700l0 3600 -4200 0 0 -3600 4200 0zm-2300 750c-276,0 -500,224 -500,500 0,276 224,500 500,500 276,0 500,-224 500,-500 0,-276 -224,-500 -500,-500zm1900 -350l-3400 0 0 2800 3400 0 0 -2800zm-1171 1410c-188,170 -361,358 -555,521 -274,231 -565,421 -936,422 -180,0 -368,-43 -538,-99l0 -417c151,-121 339,-253 539,-256 133,-3 268,69 397,138 98,53 197,103 297,151 58,-44 115,-91 170,-140 -126,-59 -251,-121 -373,-186 -152,-82 -309,-166 -494,-163 -199,4 -377,94 -536,206l0 -1387 3000 0 0 1017c-110,-96 -239,-163 -388,-159 -243,5 -416,200 -583,352zm134 147c118,-107 290,-297 453,-300 158,-4 293,136 384,251l0 1092 -3000 0 0 -137c173,52 357,89 538,89 423,-1 751,-204 1065,-469 196,-165 370,-353 560,-526zm1937 -2557l0 3500 -300 0 0 -3100 -3800 0 0 -400 4100 0zm500 -600l0 3400 -300 0 0 -3000 -3700 0 0 -400 4000 0z"/>
</svg>