<?xml version="1.0" encoding="UTF-8"?>
<!DOCTYPE svg PUBLIC "-//W3C//DTD SVG 1.1//EN" "http://www.w3.org/Graphics/SVG/1.1/DTD/svg11.dtd">
<svg xmlns="http://www.w3.org/2000/svg" xml:space="preserve" width="580px" height="580px" shape-rendering="geometricPrecision" text-rendering="geometricPrecision" image-rendering="optimizeQuality" fill-rule="nonzero" clip-rule="nonzero" viewBox="0 0 5800 5800" xmlns:xlink="http://www.w3.org/1999/xlink">
	<title>photographic_filters icon</title>
	<desc>photographic_filters icon from the IconExperience.com I-Collection. Copyright by INCORS GmbH (www.incors.com).</desc>
	<path id="curve0"  d="M2500 1100c1215,0 2200,985 2200,2200 0,1215 -985,2200 -2200,2200 -1215,0 -2200,-985 -2200,-2200 0,-1215 985,-2200 2200,-2200zm1400 2200l-200 0c0,663 -537,1200 -1200,1200l0 200c773,0 1400,-627 1400,-1400zm-1400 -1800c-994,0 -1800,806 -1800,1800 0,994 806,1800 1800,1800 994,0 1800,-806 1800,-1800 0,-994 -806,-1800 -1800,-1800zm1600 1800c0,884 -716,1600 -1600,1600 -884,0 -1600,-716 -1600,-1600 0,-884 716,-1600 1600,-1600 884,0 1600,716 1600,1600zm-1200 -2500c1215,0 2200,985 2200,2200 0,474 -150,914 -405,1273 132,-297 205,-627 205,-973 0,-1325 -1075,-2400 -2400,-2400 -110,0 -217,7 -323,22 226,-79 470,-122 723,-122zm400 -300c1215,0 2200,985 2200,2200 0,474 -150,914 -405,1273 132,-297 205,-627 205,-973 0,-1325 -1075,-2400 -2400,-2400 -110,0 -217,7 -323,22 226,-79 470,-122 723,-122z"/>
</svg>