<?xml version="1.0" encoding="UTF-8"?>
<!DOCTYPE svg PUBLIC "-//W3C//DTD SVG 1.1//EN" "http://www.w3.org/Graphics/SVG/1.1/DTD/svg11.dtd">
<svg xmlns="http://www.w3.org/2000/svg" xml:space="preserve" width="580px" height="580px" shape-rendering="geometricPrecision" text-rendering="geometricPrecision" image-rendering="optimizeQuality" fill-rule="nonzero" clip-rule="nonzero" viewBox="0 0 5800 5800" xmlns:xlink="http://www.w3.org/1999/xlink">
	<title>photo_portrait icon</title>
	<desc>photo_portrait icon from the IconExperience.com I-Collection. Copyright by INCORS GmbH (www.incors.com).</desc>
		<path id="curve28"  d="M700 300l4400 0 0 5200 -4400 0 0 -5200zm400 400l0 4400 3600 0 0 -4400 -3600 0zm200 200l0 4000 100 0 0 -70c0,-214 81,-450 237,-604 70,-68 189,-110 279,-144 155,-57 243,-62 384,-151 132,-77 150,-317 150,-458 -117,-117 -229,-378 -272,-542 -141,-71 -190,-254 -149,-398l-30 -468c-8,-465 445,-723 863,-654 107,18 158,47 244,103 329,-164 725,214 695,547l-30 472c41,145 -7,327 -149,398 -42,161 -152,422 -272,542 4,145 13,378 150,458 141,89 229,94 384,151 90,34 209,76 279,144 156,155 237,390 237,604l0 70 100 0 0 -4000 -3200 0z"/>
</svg>