<?xml version="1.0" encoding="UTF-8"?>
<!DOCTYPE svg PUBLIC "-//W3C//DTD SVG 1.1//EN" "http://www.w3.org/Graphics/SVG/1.1/DTD/svg11.dtd">
<svg xmlns="http://www.w3.org/2000/svg" xml:space="preserve" width="580px" height="580px" shape-rendering="geometricPrecision" text-rendering="geometricPrecision" image-rendering="optimizeQuality" fill-rule="nonzero" clip-rule="nonzero" viewBox="0 0 5800 5800" xmlns:xlink="http://www.w3.org/1999/xlink">
	<title>photo_landscape icon</title>
	<desc>photo_landscape icon from the IconExperience.com I-Collection. Copyright by INCORS GmbH (www.incors.com).</desc>
		<path id="curve28"  d="M5500 700l0 4400 -5200 0 0 -4400 5200 0zm-2900 900c331,0 600,269 600,600 0,331 -269,600 -600,600 -331,0 -600,-269 -600,-600 0,-331 269,-600 600,-600zm2500 -500l-4400 0 0 3600 4400 0 0 -3600zm-4200 2836c249,91 534,165 800,164 470,-1 840,-236 1190,-526 264,-219 519,-480 772,-716 177,-163 379,-352 636,-358 247,-5 446,147 602,323l0 -1523 -4000 0 0 1955c84,-65 172,-129 265,-185 438,-260 709,-199 1139,28 174,91 351,178 531,259 -24,21 -165,145 -177,139 -150,-70 -300,-144 -447,-222 -366,-193 -570,-256 -945,-33 -127,76 -250,175 -366,271l0 424zm4000 -791c-134,-187 -344,-451 -598,-445 -180,4 -353,165 -504,304 -256,239 -514,501 -781,723 -390,324 -794,571 -1317,573 -270,0 -546,-65 -800,-153l0 353 4000 0 0 -1355z"/>
</svg>