<?xml version="1.0" encoding="UTF-8"?>
<!DOCTYPE svg PUBLIC "-//W3C//DTD SVG 1.1//EN" "http://www.w3.org/Graphics/SVG/1.1/DTD/svg11.dtd">
<svg xmlns="http://www.w3.org/2000/svg" xml:space="preserve" width="580px" height="580px" shape-rendering="geometricPrecision" text-rendering="geometricPrecision" image-rendering="optimizeQuality" fill-rule="nonzero" clip-rule="nonzero" viewBox="0 0 5800 5800" xmlns:xlink="http://www.w3.org/1999/xlink">
	<title>piece icon</title>
	<desc>piece icon from the IconExperience.com I-Collection. Copyright by INCORS GmbH (www.incors.com).</desc>
		<path id="curve28"  d="M3262 392c375,0 838,229 838,654 0,115 -39,227 -106,320 -11,16 -16,33 -16,49 0,81 85,82 85,85l1435 0 9 783c2,158 -124,283 -281,285 -157,2 -202,-122 -372,-122 -309,0 -454,380 -454,639 0,258 145,638 454,638 170,0 214,-123 370,-122 157,1 284,127 283,285l-8 1614 -1252 0c-229,0 -367,-261 -231,-450 44,-61 69,-128 69,-204 0,-308 -381,-454 -639,-454 -258,0 -638,146 -638,454 0,76 25,143 68,204 37,51 54,109 54,165 0,157 -128,285 -285,285l-1145 0 0 -1400c0,-49 -40,-110 -93,-110 -11,0 -22,4 -33,11 -93,67 -205,107 -320,107 -425,0 -654,-463 -654,-839 0,-376 229,-838 654,-838 115,0 227,39 320,106 47,34 126,37 126,-37l0 -1000 961 0c47,0 85,-37 85,-85 0,-16 -5,-33 -17,-49 -66,-93 -106,-205 -106,-320 0,-425 463,-654 839,-654z"/>
</svg>