<?xml version="1.0" encoding="UTF-8"?>
<!DOCTYPE svg PUBLIC "-//W3C//DTD SVG 1.1//EN" "http://www.w3.org/Graphics/SVG/1.1/DTD/svg11.dtd">
<svg xmlns="http://www.w3.org/2000/svg" xml:space="preserve" width="580px" height="580px" shape-rendering="geometricPrecision" text-rendering="geometricPrecision" image-rendering="optimizeQuality" fill-rule="nonzero" clip-rule="nonzero" viewBox="0 0 5800 5800" xmlns:xlink="http://www.w3.org/1999/xlink">
	<title>piece2 icon</title>
	<desc>piece2 icon from the IconExperience.com I-Collection. Copyright by INCORS GmbH (www.incors.com).</desc>
		<path id="curve28"  d="M4700 4000l0 1299 -998 8c-158,2 -284,-125 -286,-282 0,-57 16,-116 54,-168 43,-61 68,-128 68,-203 0,-309 -380,-454 -638,-454 -258,0 -638,145 -638,454 0,75 25,142 68,203 38,52 54,111 54,168 -2,157 -128,284 -286,282l-998 -8 0 -1299c0,-47 -60,-121 -106,-88 -85,62 -188,98 -294,98 -390,0 -600,-422 -600,-766 0,-345 210,-767 600,-767 106,0 209,36 294,98 10,6 19,9 29,9 25,0 47,-16 61,-36 10,-13 16,-30 16,-48l0 -1000 1039 0c45,-22 58,-86 29,-126 -67,-93 -106,-205 -106,-320 0,-425 462,-654 838,-654 376,0 838,229 838,654 0,115 -39,227 -106,320 -31,43 -16,103 31,126l1037 0 0 1000c0,46 91,74 134,61 95,-30 154,-84 266,-84 390,0 600,422 600,767 0,344 -210,766 -600,766 -106,0 -209,-36 -294,-98 -47,-33 -106,41 -106,88z"/>
</svg>