<?xml version="1.0" encoding="UTF-8"?>
<!DOCTYPE svg PUBLIC "-//W3C//DTD SVG 1.1//EN" "http://www.w3.org/Graphics/SVG/1.1/DTD/svg11.dtd">
<svg xmlns="http://www.w3.org/2000/svg" xml:space="preserve" width="580px" height="580px" shape-rendering="geometricPrecision" text-rendering="geometricPrecision" image-rendering="optimizeQuality" fill-rule="nonzero" clip-rule="nonzero" viewBox="0 0 5800 5800" xmlns:xlink="http://www.w3.org/1999/xlink">
	<title>pieces icon</title>
	<desc>pieces icon from the IconExperience.com I-Collection. Copyright by INCORS GmbH (www.incors.com).</desc>
		<path id="curve28"  d="M4700 3780c34,-24 72,-43 113,-56 46,-15 94,-24 144,-24 252,0 457,205 457,457 0,253 -205,458 -457,458 -50,0 -98,-9 -144,-24 -41,-14 -79,-33 -113,-56l0 365 -865 0c23,34 42,72 56,113 15,46 24,94 24,144 0,252 -205,457 -458,457 -252,0 -457,-205 -457,-457 0,-50 9,-98 24,-144 13,-41 32,-79 56,-113l-780 0 0 -1800 -465 0c23,34 42,72 56,113 15,46 23,94 23,144 0,252 -204,457 -457,457 -252,0 -457,-205 -457,-457 0,-50 9,-98 24,-144 13,-41 32,-79 56,-113l-780 0 0 -1900c0,-252 248,-500 500,-500 1300,0 2600,0 3900,0l0 780c34,-24 72,-43 113,-56 46,-15 94,-24 144,-24 260,0 443,256 443,500 0,244 -183,500 -443,500 -50,0 -98,-9 -144,-24 -41,-13 -79,-32 -113,-56 0,487 0,973 0,1460zm-888 -921c13,-24 22,-50 29,-76 6,-26 9,-53 9,-83 0,-193 -157,-350 -350,-350 -193,0 -350,157 -350,350 0,30 3,57 9,83 7,26 16,52 29,76 15,29 32,77 32,116 0,17 -3,35 -10,52 -19,45 -61,73 -110,73l-600 0 0 1600 600 0c43,0 82,14 113,38 24,18 43,41 56,67 13,26 20,55 20,85 0,38 -11,77 -38,113 -16,22 -29,46 -38,72 -8,25 -13,52 -13,82 0,142 115,257 257,257 142,0 258,-115 258,-257 0,-30 -5,-57 -13,-82 -9,-26 -22,-50 -38,-72 -63,-84 -47,-202 38,-265 31,-23 69,-38 113,-38l685 0 0 -185c0,-44 15,-83 38,-113 18,-25 41,-44 67,-57 64,-32 140,-24 198,19 21,16 46,29 72,38 25,8 52,13 82,13 142,0 257,-116 257,-258 0,-142 -115,-257 -257,-257 -30,0 -57,5 -82,13 -26,9 -50,22 -72,38 -59,44 -134,50 -198,18 -26,-13 -49,-32 -67,-56 -24,-31 -38,-70 -38,-113l0 -700 -600 0c-48,0 -92,-28 -110,-73 -7,-17 -10,-35 -10,-52 0,-39 17,-87 32,-116zm-2187 231c1,-31 8,-60 20,-85 32,-64 98,-104 170,-105l485 0 0 -580c-34,24 -72,43 -113,56 -46,15 -94,24 -144,24 -260,0 -443,-256 -443,-500 0,-244 183,-500 443,-500 50,0 98,9 144,24 41,13 79,32 113,56l0 -580 -1500 0c-142,0 -300,158 -300,300l0 1700 600 0c72,0 137,40 169,105 13,26 20,55 20,85 0,38 -12,78 -38,113 -16,22 -29,46 -38,72 -8,25 -13,52 -13,82 0,142 115,257 257,257 142,0 257,-115 257,-257 0,-30 -4,-57 -12,-82 -9,-26 -22,-50 -38,-72 -27,-36 -39,-75 -39,-113zm1875 -940c304,0 550,246 550,550 0,43 -5,86 -16,129 -6,24 -13,48 -22,71l488 0 0 -600c0,-43 14,-82 38,-113 63,-85 181,-101 265,-38 22,16 46,29 72,38 25,8 52,13 82,13 148,0 243,-167 243,-300 0,-133 -96,-300 -243,-300 -30,0 -57,5 -82,13 -26,9 -50,22 -72,38 -85,64 -203,45 -265,-38 -23,-31 -38,-69 -38,-113l0 -600 -2000 0 0 600c0,29 -7,55 -17,79 -30,65 -95,108 -166,110 -41,1 -83,-10 -120,-38 -22,-16 -46,-29 -72,-38 -25,-8 -52,-13 -82,-13 -147,0 -243,167 -243,300 0,133 95,300 243,300 30,0 57,-5 82,-13 26,-9 50,-22 72,-38 28,-21 58,-32 88,-36 71,-10 142,22 182,80 21,30 33,67 33,107l0 600 488 0c-9,-23 -16,-47 -22,-71 -11,-43 -16,-86 -16,-129 0,-304 246,-550 550,-550z"/>
</svg>