<?xml version="1.0" encoding="UTF-8"?>
<!DOCTYPE svg PUBLIC "-//W3C//DTD SVG 1.1//EN" "http://www.w3.org/Graphics/SVG/1.1/DTD/svg11.dtd">
<svg xmlns="http://www.w3.org/2000/svg" xml:space="preserve" width="580px" height="580px" shape-rendering="geometricPrecision" text-rendering="geometricPrecision" image-rendering="optimizeQuality" fill-rule="nonzero" clip-rule="nonzero" viewBox="0 0 5800 5800" xmlns:xlink="http://www.w3.org/1999/xlink">
	<title>pieces icon</title>
	<desc>pieces icon from the IconExperience.com I-Collection. Copyright by INCORS GmbH (www.incors.com).</desc>
		<path id="curve28"  d="M4700 3100l0 680c75,-51 166,-80 257,-80 252,0 457,205 457,457 0,253 -205,458 -457,458 -91,0 -182,-29 -257,-80l0 365 -865 0c51,75 80,166 80,257 0,252 -205,457 -458,457 -252,0 -457,-205 -457,-457 0,-91 28,-182 80,-257l-780 0 0 -1800 800 0c71,0 120,-57 120,-125 0,-72 -44,-125 -61,-192 -6,-26 -9,-53 -9,-83 0,-97 39,-184 103,-247 63,-64 150,-103 247,-103 97,0 184,39 247,103 64,63 103,150 103,247 0,30 -3,57 -9,83 -17,67 -61,120 -61,192 0,68 49,125 120,125l800 0zm-2400 0l-465 0c51,75 79,166 79,257 0,252 -204,457 -457,457 -252,0 -457,-205 -457,-457 0,-91 28,-182 80,-257l-780 0 0 -1900c0,-252 248,-500 500,-500l1500 0 0 780c-75,-51 -166,-80 -257,-80 -260,0 -443,256 -443,500 0,244 183,500 443,500 91,0 182,-28 257,-80l0 780zm200 -2400l2200 0 0 780c75,-51 166,-80 257,-80 260,0 443,256 443,500 0,244 -183,500 -443,500 -91,0 -182,-28 -257,-80l0 580 -688 0c25,-63 38,-132 38,-200 0,-304 -246,-550 -550,-550 -304,0 -550,246 -550,550 0,68 13,137 38,200l-488 0 0 -600c0,-104 -85,-189 -190,-189 -38,0 -77,11 -113,38 -45,34 -97,51 -154,51 -148,0 -243,-167 -243,-300 0,-133 96,-300 243,-300 57,0 109,17 154,51 35,26 75,38 113,38 105,0 189,-84 190,-189l0 -800z"/>
</svg>