<?xml version="1.0" encoding="UTF-8"?>
<!DOCTYPE svg PUBLIC "-//W3C//DTD SVG 1.1//EN" "http://www.w3.org/Graphics/SVG/1.1/DTD/svg11.dtd">
<svg xmlns="http://www.w3.org/2000/svg" xml:space="preserve" width="580px" height="580px" shape-rendering="geometricPrecision" text-rendering="geometricPrecision" image-rendering="optimizeQuality" fill-rule="nonzero" clip-rule="nonzero" viewBox="0 0 5800 5800" xmlns:xlink="http://www.w3.org/1999/xlink">
	<title>piece icon</title>
	<desc>piece icon from the IconExperience.com I-Collection. Copyright by INCORS GmbH (www.incors.com).</desc>
		<path id="curve28" d="M3962 5215c0,-56 17,-114 54,-165 23,-32 40,-66 52,-100 11,-33 17,-68 17,-104 0,-120 -68,-230 -176,-312 -117,-87 -281,-142 -463,-142 -182,0 -345,55 -462,142 -109,82 -176,192 -176,312 0,36 5,71 16,104 12,34 30,68 52,100 63,87 71,199 22,295 -49,96 -145,155 -253,155l-1145 0 0 -1400c0,-39 -23,-81 -57,-100 -12,-6 -24,-10 -36,-10 -11,0 -22,4 -33,11 -47,34 -99,61 -153,79 -54,18 -110,28 -167,28 -186,0 -353,-98 -471,-257 -113,-150 -183,-356 -183,-582 0,-225 70,-431 183,-582 118,-158 285,-256 471,-256 57,0 113,9 167,27 54,19 106,45 153,79 22,16 45,23 66,23 12,0 23,-2 31,-6 22,-11 29,-31 29,-54l0 -1000 961 0c22,0 75,-22 75,-46 6,-12 10,-25 10,-39 0,-16 -5,-33 -17,-49 -33,-47 -60,-98 -78,-153 -18,-54 -28,-110 -28,-167 0,-186 98,-352 257,-471 150,-113 356,-183 582,-183 225,0 431,70 581,183 159,119 257,285 257,471 0,57 -10,113 -28,167 -18,55 -45,106 -78,153 -11,16 -16,33 -16,49 0,15 9,37 9,40 15,28 44,45 76,45l1435 0 9 783c1,108 -56,204 -152,253 -39,20 -84,32 -129,32 -58,1 -116,-16 -169,-53 -32,-23 -65,-41 -100,-52 -32,-11 -67,-17 -103,-17 -120,0 -231,67 -312,176 -88,117 -142,280 -142,463 0,182 54,345 142,462 81,109 192,176 312,176 36,0 71,-6 103,-17 35,-11 68,-29 100,-52 52,-37 110,-53 167,-53 46,0 90,11 130,32 96,49 154,145 153,253l-7 1514 -1 100 -99 0 -1153 0c-108,0 -203,-59 -253,-155 -20,-39 -31,-84 -32,-130zm200 0c0,15 9,37 9,40 15,28 44,45 76,45l1054 0 7 -1415c0,-32 -17,-60 -46,-75 -12,-6 -25,-10 -39,-10 -16,0 -33,5 -49,17 -47,34 -99,60 -153,78 -54,18 -110,28 -167,28 -186,0 -353,-98 -471,-256 -113,-151 -183,-357 -183,-582 0,-226 70,-432 183,-582 118,-159 285,-257 471,-257 57,0 113,10 167,28 54,18 106,45 153,78 16,12 34,17 50,17 13,0 27,-4 39,-10 28,-15 45,-43 45,-75l-6 -584 -1239 0c-109,0 -204,-59 -253,-155 -13,7 -32,-115 -32,-130 0,-56 16,-114 53,-165 23,-32 41,-66 52,-100 11,-33 17,-68 17,-104 0,-120 -67,-230 -176,-312 -117,-87 -280,-142 -462,-142 -183,0 -346,55 -463,142 -109,82 -176,192 -176,312 0,36 6,71 17,104 11,34 29,68 52,100 37,51 54,109 54,165 0,15 -19,137 -33,130 -49,96 -144,155 -252,155l-761 0 0 800c0,101 -51,190 -143,234 -35,17 -76,26 -117,26 -61,0 -125,-19 -183,-61 -32,-22 -65,-40 -100,-52 -32,-10 -67,-16 -103,-16 -120,0 -231,67 -312,176 -88,117 -142,280 -142,462 0,182 54,346 142,463 81,108 192,176 312,176 36,0 71,-6 103,-17 35,-11 68,-29 100,-52 48,-34 99,-49 150,-49 46,0 92,13 133,36 98,56 160,161 160,274l0 1200 945 0c32,0 61,-17 76,-45 15,-29 12,-63 -7,-89 -34,-47 -60,-98 -79,-153 -18,-54 -27,-110 -27,-167 0,-186 98,-352 256,-471 151,-113 356,-183 582,-183 226,0 432,70 582,183 159,119 257,285 257,471 0,57 -10,113 -28,167 -18,55 -45,106 -79,153 -11,16 -16,33 -16,49z"/>
</svg>