<?xml version="1.0" encoding="UTF-8"?>
<!DOCTYPE svg PUBLIC "-//W3C//DTD SVG 1.1//EN" "http://www.w3.org/Graphics/SVG/1.1/DTD/svg11.dtd">
<svg xmlns="http://www.w3.org/2000/svg" xml:space="preserve" width="580px" height="580px" shape-rendering="geometricPrecision" text-rendering="geometricPrecision" image-rendering="optimizeQuality" fill-rule="nonzero" clip-rule="nonzero" viewBox="0 0 5800 5800" xmlns:xlink="http://www.w3.org/1999/xlink">
	<title>pig icon</title>
	<desc>pig icon from the IconExperience.com I-Collection. Copyright by INCORS GmbH (www.incors.com).</desc>
	<path id="curve0"  d="M904 2700c95,-73 196,-134 295,-177 50,-22 120,-63 205,-113 326,-193 863,-510 1596,-510 629,0 1045,34 1560,420 347,261 439,700 453,1111l9 2c1,-77 37,-146 89,-201 85,-91 179,-121 262,-112 91,10 167,69 203,152 65,146 -1,332 -161,381 34,23 68,43 99,59l-94 176c-108,-58 -225,-135 -305,-230 -35,-6 -69,-13 -101,-21 -2,89 -7,180 -14,270 -28,356 -93,687 -205,1024l-123 369 -510 0 138 -415 0 -192c-114,-15 -254,-52 -376,-105 -80,-34 -154,-75 -212,-123 -101,49 -207,85 -313,110 -202,49 -402,59 -557,54l6 -199c141,5 323,-5 505,-49 80,-19 160,-45 237,-79l-79 -157 178 -90 100 200c27,54 111,106 213,150 138,59 298,95 398,95l100 0 0 415 -62 185 90 0 77 -231c108,-324 169,-636 195,-976 35,-453 44,-1111 -360,-1413 -476,-358 -857,-380 -1440,-380 -679,0 -1186,299 -1495,482 -90,52 -163,96 -226,123 -132,58 -270,153 -384,268 -97,99 -176,211 -217,328 0,104 0,31 0,57 1,352 2,669 -257,1044l132 197c236,-10 605,-96 776,-269l51 -51 301 150 123 368 -76 303 172 0 0 200 -428 0 124 -497 -77 -232 -103 -52c-229,186 -627,281 -916,281l-54 0 -268 -403 42 -57c239,-318 258,-596 259,-898 -49,-36 -77,-72 -105,-109 -36,-46 -72,-93 -206,-138l-94 -32 31 -94c60,-182 212,-276 378,-323 151,-43 316,-46 421,-46zm-394 483c41,-96 101,-188 173,-272 -117,13 -262,47 -342,139 88,43 132,88 169,133zm688 -63c-27,135 25,232 79,334 36,65 72,133 97,215 133,-76 282,-261 332,-402l188 66c-77,218 -339,536 -582,566l-99 13 -12 -100c-13,-103 -57,-185 -99,-264 -73,-135 -141,-262 -100,-468l196 40zm1302 2180l-438 0 138 -415 0 -252 -280 -373 160 -120 320 427 0 348 -62 185 162 0 0 200zm1500 0l-438 0 138 -415 0 -185 200 0 0 215 -62 185 162 0 0 200zm1230 -1830c15,1 29,2 43,2 55,0 98,-6 108,-22 22,-37 24,-73 12,-98 -7,-18 -22,-32 -42,-34 -25,-3 -58,11 -95,50 -11,12 -19,23 -24,33 -13,23 -11,45 -2,69z"/>
</svg>