<?xml version="1.0" encoding="UTF-8"?>
<!DOCTYPE svg PUBLIC "-//W3C//DTD SVG 1.1//EN" "http://www.w3.org/Graphics/SVG/1.1/DTD/svg11.dtd">
<svg xmlns="http://www.w3.org/2000/svg" xml:space="preserve" width="580px" height="580px" shape-rendering="geometricPrecision" text-rendering="geometricPrecision" image-rendering="optimizeQuality" fill-rule="nonzero" clip-rule="nonzero" viewBox="0 0 5800 5800" xmlns:xlink="http://www.w3.org/1999/xlink">
	<title>pig icon</title>
	<desc>pig icon from the IconExperience.com I-Collection. Copyright by INCORS GmbH (www.incors.com).</desc>
	<path id="curve0"  d="M903 2700c96,-73 197,-134 296,-177 50,-22 120,-63 205,-113 326,-193 863,-510 1596,-510 409,0 692,26 927,91 238,67 423,172 633,329 221,167 345,409 405,692 29,132 43,273 48,419l9 2c1,-41 11,-83 34,-126 14,-26 32,-51 55,-75 85,-91 179,-121 262,-112 91,10 167,69 203,152 35,79 35,180 -22,278 -31,52 -80,85 -139,103 34,23 68,43 99,59l-94 176c-108,-58 -225,-135 -305,-230 -35,-6 -69,-13 -101,-21 -2,89 -7,180 -14,270 -28,356 -93,687 -205,1024l-123 369c-46,0 -509,1 -511,0 57,-171 95,-282 139,-415l0 -189c-199,-38 -422,-94 -588,-231 -259,126 -574,174 -860,166l-51 0 -2 300 -246 369 -492 0 139 -418 0 -215 -200 0 0 186 -149 447 -379 0 124 -497 -77 -232 -103 -52c-229,186 -627,281 -916,281l-54 0c-89,-134 -179,-269 -268,-403l42 -57c239,-318 258,-596 259,-898 -2,-1 -1,-84 -1,-94l0 -64c0,-19 -1,-12 5,-31 72,-218 239,-413 420,-553zm295 420l-196 -40c-69,346 166,456 199,732l12 100 99 -13c243,-30 505,-348 582,-566l-188 -66c-50,141 -199,326 -332,402 -58,-192 -218,-341 -176,-549zm4032 350c15,1 29,2 43,2 55,0 98,-6 108,-22 22,-37 24,-73 12,-98 -7,-18 -22,-32 -42,-34 -25,-3 -58,11 -95,50 -29,31 -43,60 -26,102zm-4952 -227c-61,-36 -136,-58 -204,-80l31 -94c60,-182 212,-276 378,-323 33,-9 66,-16 98,-22 -129,138 -232,298 -288,467l-15 52zm3673 2057l-389 0 138 -415 0 -187c121,73 261,126 398,160l-147 442z"/>
</svg>