<?xml version="1.0" encoding="UTF-8"?>
<!DOCTYPE svg PUBLIC "-//W3C//DTD SVG 1.1//EN" "http://www.w3.org/Graphics/SVG/1.1/DTD/svg11.dtd">
<svg xmlns="http://www.w3.org/2000/svg" xml:space="preserve" width="580px" height="580px" shape-rendering="geometricPrecision" text-rendering="geometricPrecision" image-rendering="optimizeQuality" fill-rule="nonzero" clip-rule="nonzero" viewBox="0 0 5800 5800" xmlns:xlink="http://www.w3.org/1999/xlink">
	<title>piggy_bank icon</title>
	<desc>piggy_bank icon from the IconExperience.com I-Collection. Copyright by INCORS GmbH (www.incors.com).</desc>
		<path id="curve29"  d="M3400 500c497,0 900,403 900,900 0,142 -33,276 -91,395 -60,-30 -121,-57 -182,-83 47,-94 73,-200 73,-312 0,-387 -313,-700 -700,-700 -387,0 -700,313 -700,700 0,37 3,74 9,110 -67,5 -133,13 -199,23 -7,-43 -10,-88 -10,-133 0,-497 403,-900 900,-900z"/>
	<path id="curve28"  d="M5200 2700c146,0 228,161 228,290 0,179 -155,337 -329,362 1,16 1,32 1,48 0,398 -173,758 -448,1039l67 734c4,43 -1,84 -14,123 -26,78 -88,146 -163,179 -38,17 -79,25 -122,25l-476 0c-50,0 -97,-11 -139,-33 -42,-22 -78,-54 -107,-95l-226 -323c-171,34 -347,51 -522,51 -71,0 -142,-3 -212,-9l-197 281c-29,41 -65,73 -106,95 -42,22 -89,33 -139,33l-477 0c-43,0 -84,-8 -121,-25 -76,-33 -137,-101 -164,-179 -13,-39 -17,-80 -13,-123l43 -473c-219,-146 -410,-332 -548,-556l-311 -104c-123,-41 -205,-154 -205,-284l0 -712c0,-130 82,-243 205,-284l311 -104c106,-172 243,-322 401,-448 -181,-280 -375,-509 -602,-750l126 -58c145,-66 300,-100 459,-100 363,0 701,178 907,478 209,-52 427,-78 643,-78 589,0 1123,187 1511,490 325,254 548,589 617,964 58,-12 107,-53 136,-104 20,-35 17,-88 0,-124 -6,-14 -8,-22 -14,-26 0,0 0,-183 0,-200zm-4086 134l-346 115c-43,14 -68,50 -68,95l0 712c0,44 25,81 68,95l382 127 19 33c132,227 330,414 552,553l52 33 -54 594c-5,60 40,109 100,109l477 0c34,0 62,-14 82,-42l263 -376c104,11 204,18 309,18 95,0 187,-5 276,-15 115,-12 222,-34 333,-59l302 432c20,28 48,42 83,42l476 0c16,0 29,-3 41,-8 28,-10 50,-35 55,-60 4,-12 6,-26 4,-41l-75 -828 34 -33c256,-248 421,-569 421,-930 0,-410 -215,-782 -562,-1053 -354,-276 -844,-447 -1388,-447 -224,0 -446,29 -662,89l-73 20 -39 -66c-163,-275 -457,-443 -776,-443 -66,0 -131,7 -193,21 -17,3 -34,8 -51,12 178,202 338,418 478,646l49 79 -75 54c-196,143 -336,301 -458,510l-36 12zm586 -334c110,0 200,90 200,200 0,110 -90,200 -200,200 -110,0 -200,-90 -200,-200 0,-110 90,-200 200,-200z"/>
</svg>