<?xml version="1.0" encoding="UTF-8"?>
<!DOCTYPE svg PUBLIC "-//W3C//DTD SVG 1.1//EN" "http://www.w3.org/Graphics/SVG/1.1/DTD/svg11.dtd">
<svg xmlns="http://www.w3.org/2000/svg" xml:space="preserve" width="580px" height="580px" shape-rendering="geometricPrecision" text-rendering="geometricPrecision" image-rendering="optimizeQuality" fill-rule="nonzero" clip-rule="nonzero" viewBox="0 0 5800 5800" xmlns:xlink="http://www.w3.org/1999/xlink">
	<title>piggy_bank icon</title>
	<desc>piggy_bank icon from the IconExperience.com I-Collection. Copyright by INCORS GmbH (www.incors.com).</desc>
		<path id="curve29"  d="M4118 1752l0 0c-367,-167 -778,-252 -1168,-252 -81,0 -161,3 -241,10l-4 0 0 0 -3 0 -6 1 -2 0 -1 0 -3 0 -1 1 -2 0 -3 0 -1 0 -2 0 -3 1 -1 0 -3 0 -1 0 -2 0 -3 1 -1 0 -2 0 -3 0 0 0 -3 0 -2 1 -1 0 -3 0 -2 0 -5 1 0 0 -3 0 -2 0 -1 0 -3 1 -2 0 -1 0 -3 0 -1 0 -2 1 -3 0 0 0 -4 0 -1 1 -2 0 -3 0 -1 0 -2 0 -3 1 0 0c-33,4 -66,8 -99,13 -7,-43 -10,-88 -10,-133 0,-249 101,-474 264,-636 162,-163 388,-264 636,-264 249,0 474,101 636,264 163,162 264,387 264,636 0,142 -33,276 -91,395 -30,-15 -60,-29 -91,-43z"/>
	<path id="curve28"  d="M5201 2906l-1 -206c33,0 65,9 94,26 89,51 134,165 134,264 0,125 -73,235 -175,303 -52,34 -106,52 -154,59 1,16 1,32 1,48 0,398 -173,758 -448,1039l67 734c4,43 -1,84 -14,123 -41,121 -156,204 -285,204l-476 0c-101,0 -188,-46 -246,-128l-226 -323c-74,15 -149,26 -225,35 -98,10 -198,16 -297,16 -42,0 -87,-1 -135,-4 -26,-1 -52,-3 -77,-5l-197 281c-57,82 -145,128 -245,128l-477 0c-129,0 -244,-83 -285,-204 -13,-39 -17,-80 -13,-123l43 -473c-219,-146 -410,-332 -548,-556l-311 -104c-123,-41 -205,-154 -205,-284l0 -712c0,-130 82,-243 205,-284l311 -104c106,-172 243,-322 401,-448 -66,-103 -137,-203 -211,-300 -93,-121 -192,-238 -296,-349l-95 -101 126 -58c145,-66 300,-100 459,-100 363,0 701,178 907,478 209,-52 427,-78 643,-78 589,0 1123,187 1511,490 325,254 548,589 617,964 58,-12 107,-53 136,-104 23,-41 18,-107 -13,-144zm-3501 -406c-110,0 -200,90 -200,200 0,110 90,200 200,200 110,0 200,-90 200,-200 0,-110 -90,-200 -200,-200z"/>
</svg>