<?xml version="1.0" encoding="UTF-8"?>
<!DOCTYPE svg PUBLIC "-//W3C//DTD SVG 1.1//EN" "http://www.w3.org/Graphics/SVG/1.1/DTD/svg11.dtd">
<svg xmlns="http://www.w3.org/2000/svg" xml:space="preserve" width="580px" height="580px" shape-rendering="geometricPrecision" text-rendering="geometricPrecision" image-rendering="optimizeQuality" fill-rule="nonzero" clip-rule="nonzero" viewBox="0 0 5800 5800" xmlns:xlink="http://www.w3.org/1999/xlink">
	<title>pill icon</title>
	<desc>pill icon from the IconExperience.com I-Collection. Copyright by INCORS GmbH (www.incors.com).</desc>
		<path id="curve28" d="M3100 3900l1200 0c552,0 1000,-448 1000,-1000 0,-552 -448,-1000 -1000,-1000l-1200 0 0 -200 1200 0c663,0 1200,537 1200,1200 0,663 -537,1200 -1200,1200l-1200 0 0 -200zm-400 0l0 -2000 -1200 0c-552,0 -1000,448 -1000,1000 0,552 448,1000 1000,1000l1200 0zm200 -2200l0 2400 -1400 0c-663,0 -1200,-537 -1200,-1200 0,-663 537,-1200 1200,-1200l1400 0zm2200 1200c0,442 -358,800 -800,800l-1000 0 0 -200 1000 0c331,0 600,-269 600,-600l200 0z"/>
</svg>