<?xml version="1.0" encoding="UTF-8"?>
<!DOCTYPE svg PUBLIC "-//W3C//DTD SVG 1.1//EN" "http://www.w3.org/Graphics/SVG/1.1/DTD/svg11.dtd">
<svg xmlns="http://www.w3.org/2000/svg" xml:space="preserve" width="580px" height="580px" shape-rendering="geometricPrecision" text-rendering="geometricPrecision" image-rendering="optimizeQuality" fill-rule="nonzero" clip-rule="nonzero" viewBox="0 0 5800 5800" xmlns:xlink="http://www.w3.org/1999/xlink">
	<title>pilot icon</title>
	<desc>pilot icon from the IconExperience.com I-Collection. Copyright by INCORS GmbH (www.incors.com).</desc>
		<path id="curve29"  d="M3005 4286c22,-21 59,-54 96,-88l180 240 416 -415c-176,378 -306,981 -350,1295 -52,3 -102,6 -151,8 -2,-289 -22,-702 -191,-1040zm-1472 -348c-127,46 -293,104 -391,199 -219,213 -332,539 -332,836 0,143 180,251 439,331 71,29 149,54 233,76 444,116 1064,152 1428,152 364,0 984,-36 1428,-152 84,-22 162,-47 233,-76 259,-80 439,-188 439,-331 0,-297 -113,-623 -332,-836 -98,-95 -264,-153 -391,-199 -180,-66 -402,-115 -561,-214 -90,-56 -63,-241 -56,-331 4,-40 7,-79 8,-117 131,-148 181,-342 228,-524 3,-9 5,-18 9,-34 185,-117 255,-358 206,-565 21,-91 36,-177 45,-260 -125,153 -271,207 -466,207 -154,0 -301,-26 -452,-55 -114,-22 -232,-45 -348,-45 -116,0 -234,23 -348,45 -151,29 -298,55 -452,55 -181,0 -323,-50 -446,-185l0 1c11,80 27,160 45,237 -49,207 22,448 206,565 4,15 6,21 7,27 49,187 101,384 231,532 1,30 4,62 6,96 8,101 39,288 -58,353 -149,92 -385,148 -558,212zm1189 256l93 92c-169,338 -189,751 -191,1040 -49,-2 -99,-5 -151,-8 -44,-314 -174,-917 -350,-1295l416 415 183 -244zm443 -243c125,-30 247,-85 345,-170 17,30 38,57 65,80l-273 273 -137 -183zm-509 0l-138 183 -273 -273c27,-23 47,-51 64,-81 98,85 221,140 347,171z"/>
	<path id="curve28"  d="M1768 1415c36,47 77,89 102,114 13,13 18,24 26,39 263,-215 676,-268 1004,-268 328,0 741,53 1004,268 3,-4 5,-8 7,-13 20,-39 92,-101 123,-139 -303,-249 -754,-316 -1134,-316 -379,0 -830,67 -1132,315zm2344 213c6,-5 -28,29 -31,32 -59,113 -124,172 -189,204 -72,36 -134,36 -192,36 -143,0 -278,-26 -414,-52 -127,-24 -255,-48 -386,-48 -131,0 -259,24 -386,48 -136,26 -271,52 -414,52 -51,0 -113,0 -186,-35 -67,-32 -135,-92 -195,-205 -41,-42 -105,-111 -151,-179 1,0 -68,-161 -68,-181 0,-302 177,-557 421,-745 292,-224 685,-355 979,-355 294,0 687,131 979,355 244,188 421,443 421,745 0,67 -33,136 -82,204 -29,41 -66,82 -106,124zm-1712 -928l0 100c0,55 45,100 100,100l306 0c9,38 -30,83 -6,100 13,9 185,0 200,0 44,0 -19,-42 -6,-100l306 0c55,0 100,-45 100,-100l0 -100 -400 0c-14,-58 -51,-100 -94,-100 -44,0 -81,42 -95,100l-411 0z"/>
</svg>