<?xml version="1.0" encoding="UTF-8"?>
<!DOCTYPE svg PUBLIC "-//W3C//DTD SVG 1.1//EN" "http://www.w3.org/Graphics/SVG/1.1/DTD/svg11.dtd">
<svg xmlns="http://www.w3.org/2000/svg" xml:space="preserve" width="580px" height="580px" shape-rendering="geometricPrecision" text-rendering="geometricPrecision" image-rendering="optimizeQuality" fill-rule="nonzero" clip-rule="nonzero" viewBox="0 0 5800 5800" xmlns:xlink="http://www.w3.org/1999/xlink">
	<title>pin icon</title>
	<desc>pin icon from the IconExperience.com I-Collection. Copyright by INCORS GmbH (www.incors.com).</desc>
		<path id="curve28"  d="M5100 1800c0,608 -492,1100 -1100,1100l0 -200c497,0 900,-403 900,-900l200 0zm-1928 1485l-2301 1644 1644 -2301c35,62 74,123 116,180l-902 1263 1263 -902c57,42 118,81 180,116zm828 -2985c828,0 1500,672 1500,1500 0,828 -672,1500 -1500,1500 -828,0 -1500,-672 -1500,-1500 0,-828 672,-1500 1500,-1500zm0 200c-718,0 -1300,582 -1300,1300 0,718 582,1300 1300,1300 718,0 1300,-582 1300,-1300 0,-718 -582,-1300 -1300,-1300z"/>
</svg>