<?xml version="1.0" encoding="UTF-8" standalone="no"?>
<!DOCTYPE svg PUBLIC "-//W3C//DTD SVG 1.1//EN" "http://www.w3.org/Graphics/SVG/1.1/DTD/svg11.dtd">
<svg version="1.1" xmlns="http://www.w3.org/2000/svg" xmlns:xlink="http://www.w3.org/1999/xlink" preserveAspectRatio="xMidYMid meet" viewBox="0 0 640 640" width="640" height="640"><defs><path d="M320.01 640.01L275.03 339.3L139.89 339.05C139.86 332.94 139.84 329.54 139.84 328.86C139.96 302.78 148.82 278.8 163.81 259.68C177.72 241.93 196.82 228.52 218.95 221.62C221.49 208.63 241.8 104.72 244.34 91.74C222.24 79.41 208.56 55.97 208.6 30.68C208.7 15.72 221.01 3.46 235.97 3.41C253.01 3.44 389.33 3.69 406.37 3.72C421.33 3.82 433.59 16.13 433.64 31.09C433.59 56.38 419.82 79.77 397.68 92.02C400.17 105.01 420.1 209 422.59 221.99C444.69 228.97 463.75 242.45 477.59 260.25C492.51 279.43 501.29 303.44 501.31 329.52C501.3 330.2 501.27 333.6 501.22 339.71L366.08 339.47L320.01 640.01ZM384.2 76.02C401.77 68.03 413.15 50.35 413.19 30.98C413.19 27.37 410.09 24.25 406.41 24.17C389.35 24.14 252.91 23.89 235.86 23.86C232.17 23.93 229.06 27.03 229.05 30.64C229.02 50.01 240.33 67.74 257.88 75.79C283.14 75.84 371.57 76 384.2 76.02ZM264.27 96.25L240.13 219.56L401.42 219.86L377.73 96.46L264.27 96.25ZM228.89 240C209.22 245.16 192.07 256.77 179.91 272.35C169.62 285.34 162.87 301.3 160.89 318.71C192.83 318.77 448.36 319.24 480.3 319.3C478.38 301.88 471.69 285.89 461.45 272.87C449.34 257.24 432.23 245.57 412.59 240.33C375.85 240.26 247.26 240.03 228.89 240ZM320.26 503.86L345.49 339.5L295.62 339.41L320.26 503.86Z" id="b1bmYTGFef"></path></defs><g><g><g><use xlink:href="#b1bmYTGFef" opacity="1"  fill-opacity="1"></use><g><use xlink:href="#b1bmYTGFef" opacity="1" fill-opacity="0" stroke="#000000" stroke-width="1" stroke-opacity="0"></use></g></g></g></g></svg>