<?xml version="1.0" encoding="UTF-8"?>
<!DOCTYPE svg PUBLIC "-//W3C//DTD SVG 1.1//EN" "http://www.w3.org/Graphics/SVG/1.1/DTD/svg11.dtd">
<svg xmlns="http://www.w3.org/2000/svg" xml:space="preserve" width="580px" height="580px" shape-rendering="geometricPrecision" text-rendering="geometricPrecision" image-rendering="optimizeQuality" fill-rule="nonzero" clip-rule="nonzero" viewBox="0 0 5800 5800" xmlns:xlink="http://www.w3.org/1999/xlink">
	<title>pin2 icon</title>
	<desc>pin2 icon from the IconExperience.com I-Collection. Copyright by INCORS GmbH (www.incors.com).</desc>
		<path id="curve29" d="M2824 3606l-2395 1765 1765 -2395 -935 -935 70 -71c181,-180 408,-285 644,-314 219,-27 444,12 645,117l1073 -725c-68,-238 -1,-495 174,-670 104,-103 274,-103 378,0l1179 1179c103,104 103,274 0,378 -175,175 -432,242 -670,174l-725 1073c105,201 144,426 117,645 -29,236 -134,463 -314,644l-71 70 -935 -935zm1071 -2575l874 874c177,66 378,22 512,-112 25,-25 25,-68 0,-94l-1180 -1180c-26,-25 -69,-25 -94,0 -134,134 -178,335 -112,512zm688 971l-785 -785 -1019 688 1116 1116 688 -1019zm-752 1238l-1271 -1271c-172,-100 -371,-138 -563,-114 -161,19 -318,83 -452,190l2210 2210c107,-134 171,-291 190,-452 24,-192 -14,-391 -114,-563zm-1495 -121l-965 1310 1310 -965 -345 -345z"/>
</svg>