<?xml version="1.0" encoding="UTF-8"?>
<!DOCTYPE svg PUBLIC "-//W3C//DTD SVG 1.1//EN" "http://www.w3.org/Graphics/SVG/1.1/DTD/svg11.dtd">
<svg xmlns="http://www.w3.org/2000/svg" xml:space="preserve" width="580px" height="580px" shape-rendering="geometricPrecision" text-rendering="geometricPrecision" image-rendering="optimizeQuality" fill-rule="nonzero" clip-rule="nonzero" viewBox="0 0 5800 5800" xmlns:xlink="http://www.w3.org/1999/xlink">
	<title>pineapple icon</title>
	<desc>pineapple icon from the IconExperience.com I-Collection. Copyright by INCORS GmbH (www.incors.com).</desc>
	<path id="curve0" d="M3839 2316c185,222 364,495 488,791 209,499 225,1012 71,1530 -70,234 -174,441 -304,618 -115,158 -287,245 -483,245l-1422 0c-196,0 -368,-87 -483,-245 -130,-177 -234,-384 -304,-618 -154,-518 -138,-1031 71,-1530 124,-296 303,-569 488,-791 59,-70 128,-124 206,-161l6 -3c-79,-46 -172,-81 -273,-98 -141,-24 -299,-9 -455,70l-194 97 52 -211c57,-227 196,-392 377,-497 21,-12 43,-24 66,-34 -114,-11 -255,-5 -432,20l-202 29 101 -178c130,-226 350,-376 603,-448 6,-2 12,-3 17,-5 -147,-68 -304,-116 -458,-167l170 -113c267,-178 739,-175 1033,-60 71,-119 152,-229 239,-324l74 -80 73 80c90,97 164,210 225,332 273,-82 701,-74 946,90l170 113c-154,51 -312,99 -458,167 257,69 486,219 620,453l101 177 -202 -28c-91,-13 -173,-21 -247,-24l1 0c181,105 320,270 377,497l52 211 -194 -97c-156,-79 -314,-94 -455,-70 -101,17 -194,52 -273,98 83,39 153,93 212,164zm-1399 -216l87 0c50,-140 125,-259 218,-359 -155,-100 -342,-156 -527,-159 -240,-5 -494,78 -635,283 121,-26 239,-26 349,-8 205,34 384,131 508,243zm460 -495c213,-153 482,-231 744,-222 125,-54 288,-80 509,-68 -213,-190 -523,-249 -799,-215 -274,33 -535,156 -718,363 94,36 183,84 264,142zm-473 -201c71,-95 156,-177 248,-246 -111,-50 -229,-81 -349,-96 -156,-19 -313,-8 -456,32 -130,37 -248,98 -343,183 241,-12 414,20 543,84 15,8 30,16 44,24 104,-7 210,-1 313,19zm1103 -513c71,-53 159,-104 271,-154 -172,-36 -363,-34 -533,13 18,50 35,101 49,153 71,-9 142,-13 213,-12zm-655 145c80,-39 162,-70 246,-94 -49,-173 -124,-342 -231,-487 -112,141 -205,301 -272,468 89,28 175,66 257,113zm-726 -183c92,-2 184,6 274,21 18,-47 38,-94 60,-140 -188,-68 -409,-76 -604,-34 112,49 200,100 270,153zm593 1247l618 0c124,-112 303,-209 508,-243 110,-18 228,-18 349,8 -141,-205 -395,-288 -635,-283 -160,3 -324,45 -469,125 -158,86 -291,218 -371,393zm-585 299l235 385 295 -484c-89,0 -177,0 -265,0 -101,0 -190,31 -265,99zm352 576l391 642 391 -642 -391 -642 -391 642zm508 834l368 604 391 -642 -368 -604 -391 642zm485 795l367 603c24,-20 45,-43 65,-70 116,-158 209,-345 273,-557 6,-24 13,-47 19,-71l-333 -546 -391 641zm186 689l-303 -497 -307 504 533 0c27,0 52,-2 77,-7zm-420 -689l-368 -603 -368 603 368 604 368 -604zm-485 -795l-391 -642 -368 604 391 642 368 -604zm-508 -834l-253 -415c-138,182 -266,392 -361,616l246 403 368 -604zm838 -675l295 484 235 -385c-75,-68 -164,-99 -265,-99 -88,0 -176,0 -265,0zm412 675l368 604 246 -403c-95,-224 -223,-434 -361,-616l-253 415zm485 796l271 445c13,-101 19,-206 19,-316 0,-162 -27,-325 -74,-483l-216 354zm-1288 1529l-307 -504 -303 497c25,5 50,7 77,7l533 0zm-424 -696l-391 -641 -333 546c6,24 13,47 20,71 63,212 156,399 272,557 20,27 42,50 65,70l367 -603zm-508 -833l-216 -354c-47,158 -74,321 -74,483 0,110 6,215 19,316l271 -445z"/>
</svg>