<?xml version="1.0" encoding="UTF-8"?>
<!DOCTYPE svg PUBLIC "-//W3C//DTD SVG 1.1//EN" "http://www.w3.org/Graphics/SVG/1.1/DTD/svg11.dtd">
<svg xmlns="http://www.w3.org/2000/svg" xml:space="preserve" width="580px" height="580px" shape-rendering="geometricPrecision" text-rendering="geometricPrecision" image-rendering="optimizeQuality" fill-rule="nonzero" clip-rule="nonzero" viewBox="0 0 5800 5800" xmlns:xlink="http://www.w3.org/1999/xlink">
	<title>pineapple icon</title>
	<desc>pineapple icon from the IconExperience.com I-Collection. Copyright by INCORS GmbH (www.incors.com).</desc>
	<path id="curve0"  d="M1551 788l-176 -58 170 -113c85,-57 219,-105 374,-127 141,-21 302,-22 462,10 -29,51 -56,104 -82,158 -254,-19 -517,21 -748,130zm2338 1590c138,173 270,375 376,592l-372 609 -368 -604 364 -597zm473 816c85,227 138,466 138,706 0,205 -21,398 -60,576l-430 -705 352 -577zm3 1543c-68,194 -160,367 -271,518 -35,48 -75,90 -120,124l-472 -775 391 -641 472 774zm-980 -324l-368 -604 391 -642 368 604 -391 642zm-485 -796l-391 -642 391 -642 391 642 -391 642zm-508 -833l-340 -558c106,-84 234,-126 370,-126l387 0 -417 684zm599 -684l387 0c136,0 264,42 370,126l-340 558 -417 -684zm806 3372c-59,18 -121,28 -186,28l-533 0 -61 -100 368 -604 412 676zm-897 -264l-368 -604 368 -603 368 603 -368 604zm-485 -795l-391 -642 368 -604 391 642 -368 604zm-508 -834l-372 -609c106,-217 238,-419 376,-592l364 597 -368 604zm815 1921l-533 0c-65,0 -127,-10 -186,-28l412 -676 368 604 -61 100zm-896 -121c-45,-34 -85,-76 -120,-124 -111,-151 -203,-324 -271,-518l472 -774 391 641 -472 775zm-465 -903c-40,-178 -61,-370 -61,-576 0,-240 53,-479 139,-706l351 577 -429 705zm1262 -2576c203,-326 577,-510 955,-517 417,-9 812,202 919,627l52 211 -194 -97c-155,-78 -324,-100 -494,-63 -139,-107 -307,-161 -483,-161l-755 0zm-684 161c-170,-37 -339,-15 -494,63l-194 97 52 -211c57,-227 196,-392 377,-497 158,-91 348,-134 542,-130 167,3 337,41 492,114 -129,107 -239,242 -319,403 -166,6 -324,60 -456,161zm642 -826c206,-186 473,-300 748,-334 431,-52 912,92 1138,487l101 177 -88 -12c-226,-258 -568,-376 -906,-370 -235,5 -470,68 -674,185 -101,-57 -208,-102 -319,-133zm-1201 255c-89,11 -179,25 -268,38l101 -178c226,-394 707,-539 1138,-486 101,12 201,35 299,69 -112,71 -216,157 -306,258 -346,-36 -709,55 -964,299zm1584 -1257c124,135 220,299 289,477 -126,20 -251,54 -371,104 -120,-58 -247,-101 -375,-127 85,-170 193,-326 310,-454l74 -80 73 80zm426 290c129,-16 256,-12 371,4 155,23 289,71 374,128l170 113 -176 58c-208,-98 -441,-141 -670,-135l-1 -2c-20,-56 -43,-112 -68,-166z"/>
</svg>