<?xml version="1.0" encoding="UTF-8"?>
<!DOCTYPE svg PUBLIC "-//W3C//DTD SVG 1.1//EN" "http://www.w3.org/Graphics/SVG/1.1/DTD/svg11.dtd">
<svg xmlns="http://www.w3.org/2000/svg" xml:space="preserve" width="580px" height="580px" shape-rendering="geometricPrecision" text-rendering="geometricPrecision" image-rendering="optimizeQuality" fill-rule="nonzero" clip-rule="nonzero" viewBox="0 0 5800 5800" xmlns:xlink="http://www.w3.org/1999/xlink">
	<title>pipette icon</title>
	<desc>pipette icon from the IconExperience.com I-Collection. Copyright by INCORS GmbH (www.incors.com).</desc>
		<path id="curve28" d="M5029 771c-145,-146 -337,-191 -527,-166 -197,25 -391,125 -531,266 -186,185 -236,375 -280,539 -76,287 -136,512 -644,585l-6 5 759 759 5 -6c73,-508 298,-568 585,-644 164,-44 354,-94 539,-280 150,-149 252,-359 270,-568 15,-184 -38,-358 -170,-490zm142 -142c175,175 247,405 227,649 -21,256 -146,511 -327,693 -223,222 -441,280 -630,331 -220,58 -391,103 -442,510l-4 34 -195 195 -1041 -1041 195 -195 34 -4c407,-51 452,-222 510,-442 69,-256 138,-436 331,-630 171,-170 407,-290 647,-322 248,-32 501,28 695,222zm-2300 1742l-1300 1300c-134,134 -180,272 -226,410 -54,162 -108,324 -274,490l-430 429 159 159 429 -430c166,-166 328,-220 490,-274 138,-46 276,-92 410,-226l1300 -1300 142 142 -1300 1300c-166,166 -328,220 -490,274 -138,46 -276,92 -410,226l-571 570 -441 -441 570 -571c134,-134 180,-272 226,-410 54,-162 108,-324 274,-490l1300 -1300 142 142z"/>
</svg>