<?xml version="1.0" encoding="UTF-8"?>
<!DOCTYPE svg PUBLIC "-//W3C//DTD SVG 1.1//EN" "http://www.w3.org/Graphics/SVG/1.1/DTD/svg11.dtd">
<svg xmlns="http://www.w3.org/2000/svg" xml:space="preserve" width="580px" height="580px" shape-rendering="geometricPrecision" text-rendering="geometricPrecision" image-rendering="optimizeQuality" fill-rule="nonzero" clip-rule="nonzero" viewBox="0 0 5800 5800" xmlns:xlink="http://www.w3.org/1999/xlink">
	<title>pirates_ship icon</title>
	<desc>pirates_ship icon from the IconExperience.com I-Collection. Copyright by INCORS GmbH (www.incors.com).</desc>
	<path id="curve0"  d="M303 5209c235,0 449,-126 563,-331l87 -157 87 157c114,205 328,331 562,331 234,0 446,-124 561,-328l87 -156 87 157c114,205 328,331 563,331 235,0 451,-128 564,-334l87 -158 88 158c113,205 327,330 562,330 234,0 448,-126 562,-331l87 -157 88 157c113,205 327,331 562,331l0 200c-252,0 -490,-112 -650,-306 -160,194 -397,306 -649,306 -252,0 -489,-112 -649,-305 -160,196 -399,309 -652,309 -253,0 -490,-112 -651,-307 -160,192 -396,303 -647,303 -251,0 -489,-113 -649,-306 -160,194 -398,306 -650,306l0 -200zm820 -871c228,-277 494,-522 789,-726 201,-139 415,-259 641,-358 10,-65 41,-123 85,-167l0 -1c55,-54 130,-88 212,-88l100 0c83,0 158,34 212,88 44,45 75,103 85,168 226,99 440,219 641,358 295,204 561,449 789,726 15,19 22,41 22,64 1,49 0,114 -4,189l-106 190c-79,143 -225,228 -388,228 -163,0 -309,-85 -388,-227l-131 -236c-28,-49 -76,-78 -132,-77 -56,0 -104,28 -131,77l-130 238c-52,94 -138,167 -239,204l0 -1690c0,-27 -11,-52 -29,-70 -19,-18 -44,-30 -71,-30l-100 0c-28,0 -53,11 -71,29 -18,19 -29,44 -29,71l0 1690c-101,-36 -187,-109 -239,-203l-129 -234c-27,-49 -75,-77 -131,-77 -56,0 -104,28 -131,76l-131 234c-80,142 -224,225 -387,225 -162,0 -309,-85 -388,-228l-109 -197c-4,-73 -5,-136 -5,-184 1,-23 9,-45 23,-62zm2477 -338c-110,0 -200,90 -200,200 0,110 90,200 200,200 110,0 200,-90 200,-200 0,-110 -90,-200 -200,-200zm-1400 0c-110,0 -200,90 -200,200 0,110 90,200 200,200 110,0 200,-90 200,-200 0,-110 -90,-200 -200,-200zm704 -1364c113,0 198,-15 250,-59 22,-19 39,-46 52,-81 -88,28 -196,42 -302,42 -106,0 -214,-14 -301,-42 12,35 30,62 52,81 51,44 136,59 249,59zm37 -670l94 178c15,28 -6,61 -37,61l-188 0c-31,0 -52,-33 -37,-61l94 -178c16,-30 59,-30 74,0zm289 297c-1,-166 6,-253 214,-280 11,-2 22,-6 29,-12 6,-5 11,-12 14,-22 6,-17 2,-51 -3,-87 -6,-51 -12,-102 1,-157 18,-79 34,-163 34,-239 0,-68 -12,-132 -46,-184 -46,-69 -119,-118 -202,-151 -117,-45 -252,-60 -367,-60 -115,0 -250,15 -366,60 -84,33 -157,82 -203,151 -34,52 -46,116 -46,184 0,76 16,160 34,239 13,55 7,106 1,157 -5,36 -9,70 -3,87 3,10 8,17 14,22 8,6 18,10 29,12 208,27 215,114 214,280 7,8 23,18 44,28 139,63 425,63 564,0 21,-10 37,-20 44,-28zm-80 -759c110,0 200,89 200,200 0,110 -90,200 -200,200 -110,0 -200,-90 -200,-200 0,-111 90,-200 200,-200zm-500 0c110,0 200,89 200,200 0,110 -90,200 -200,200 -110,0 -200,-90 -200,-200 0,-111 90,-200 200,-200zm779 777c1,36 1,-11 1,35 0,200 -50,329 -145,412 -36,31 -78,55 -124,71 299,116 581,266 840,445 231,160 445,344 639,548 88,30 174,62 261,95 151,-345 264,-670 341,-1040 104,-501 129,-1017 75,-1525 -19,-174 -46,-347 -83,-517 -39,-179 -195,-305 -379,-305l-3910 0c-184,0 -340,126 -379,305 -36,169 -64,341 -83,517 -18,174 -28,349 -28,524 0,342 35,676 103,1000 76,370 190,696 341,1041 88,-33 176,-66 265,-99 192,-202 405,-385 635,-544 261,-180 543,-330 844,-446 -45,-17 -85,-40 -120,-70 -95,-83 -145,-212 -145,-412 0,-46 0,1 1,-35 0,-63 0,-95 -40,-101 -49,-6 -93,-24 -129,-53 -36,-30 -64,-69 -79,-117 -19,-59 -12,-115 -6,-171 4,-34 8,-68 4,-89 -21,-90 -39,-187 -39,-284 0,-104 20,-206 79,-294 71,-108 178,-180 296,-226 143,-57 304,-75 439,-75 136,0 296,18 439,75 119,46 225,118 297,226 58,88 79,190 78,294 0,97 -17,194 -38,284 -5,21 -1,55 3,89 7,56 13,112 -6,171 -15,48 -43,87 -79,117 -36,29 -80,47 -129,53 -40,6 -40,38 -40,101zm-1649 -30c18,8 33,19 47,33 29,30 70,40 110,26l127 -46c34,31 72,56 114,76 1,34 3,68 6,99l-177 65c-39,14 -65,48 -67,90 -2,19 -7,38 -15,56 -36,77 -128,111 -205,74 -58,-26 -93,-86 -89,-149 2,-30 -8,-56 -28,-78 -44,-46 -55,-114 -28,-172 36,-77 128,-110 205,-74zm146 -430l-195 -71c-40,-14 -81,-5 -110,26 -14,14 -30,25 -47,33 -77,36 -169,3 -205,-74 -27,-58 -16,-126 28,-172 20,-22 30,-48 28,-78 -4,-63 31,-123 89,-149 77,-37 169,-3 205,74 8,18 13,37 14,56 3,42 29,76 68,90l97 36c8,71 21,139 36,203 3,14 -5,4 -7,21l-1 5zm1984 -229l97 -36c39,-14 65,-48 68,-90 3,-61 43,-115 101,-136 40,-14 82,-11 118,6 58,26 93,86 89,149 -2,30 8,56 29,78 43,46 54,114 28,172 -17,35 -48,65 -88,80 -58,21 -122,5 -165,-39 -28,-31 -70,-40 -109,-26l-196 71 -1 -5c-2,-17 -10,-7 -7,-21 15,-64 29,-132 36,-203zm-166 672l127 46c40,14 81,4 110,-26 14,-14 30,-25 47,-33 36,-17 78,-20 118,-6 40,15 71,45 87,80 27,58 16,126 -28,172 -20,22 -30,48 -28,78 4,63 -31,123 -89,149 -36,17 -78,20 -118,6 -40,-15 -71,-44 -87,-80 -8,-18 -13,-37 -14,-56 -3,-42 -29,-76 -68,-90l-177 -65c3,-31 5,-65 6,-99 33,-16 65,-35 93,-58 7,-6 15,-12 21,-18zm-1044 -1864c0,-55 45,-100 100,-100l200 0c55,0 100,45 100,100l-400 0zm2635 400l65 0c55,0 100,45 100,100l0 100c0,55 -45,100 -100,100l-11 0c-15,-101 -33,-201 -54,-300zm-4924 300l-11 0c-55,0 -100,-45 -100,-100l0 -100c0,-55 45,-100 100,-100l65 0c-21,99 -39,199 -54,300z"/>
</svg>