<?xml version="1.0" encoding="UTF-8"?>
<!DOCTYPE svg PUBLIC "-//W3C//DTD SVG 1.1//EN" "http://www.w3.org/Graphics/SVG/1.1/DTD/svg11.dtd">
<svg xmlns="http://www.w3.org/2000/svg" xml:space="preserve" width="580px" height="580px" shape-rendering="geometricPrecision" text-rendering="geometricPrecision" image-rendering="optimizeQuality" fill-rule="nonzero" clip-rule="nonzero" viewBox="0 0 5800 5800" xmlns:xlink="http://www.w3.org/1999/xlink">
	<title>pirates_ship icon</title>
	<desc>pirates_ship icon from the IconExperience.com I-Collection. Copyright by INCORS GmbH (www.incors.com).</desc>
	<path id="curve0" d="M303 5209c235,0 449,-126 563,-331l87 -157 87 157c114,205 328,331 562,331 234,0 446,-124 561,-328l87 -156 87 157c114,205 328,331 563,331 235,0 451,-128 564,-334l87 -158 88 158c113,205 327,330 562,330 234,0 448,-126 562,-331l87 -157 88 157c113,205 327,331 562,331l0 200c-252,0 -490,-112 -650,-306 -160,194 -397,306 -649,306 -252,0 -489,-112 -649,-305 -160,196 -399,309 -652,309 -253,0 -490,-112 -651,-307 -160,192 -396,303 -647,303 -251,0 -489,-113 -649,-306 -160,194 -398,306 -650,306l0 -200zm3297 -1209c55,0 105,22 141,59 37,36 59,86 59,141 0,55 -22,105 -59,141 -36,37 -86,59 -141,59 -55,0 -105,-22 -141,-59 -37,-36 -59,-86 -59,-141 0,-55 22,-105 59,-141 36,-37 86,-59 141,-59zm-2477 338c228,-277 494,-522 789,-726 201,-139 415,-259 641,-358 22,-146 149,-256 297,-256l100 0c148,0 275,110 297,256 555,243 1045,616 1430,1084 15,19 22,41 22,64 1,49 0,114 -4,189 -64,114 -121,250 -226,330 2,-25 5,-49 7,-73 15,-163 24,-311 24,-410 -341,-408 -769,-738 -1250,-964l0 1369c-51,66 -121,117 -200,145l0 -1690c0,-55 -45,-100 -100,-100l-100 0c-55,0 -100,45 -100,100l0 1691c-79,-28 -149,-79 -200,-145l0 -1370c-184,86 -359,187 -524,302 -271,187 -516,410 -727,662 1,99 10,247 25,410 2,23 5,46 7,70 -47,-37 -87,-84 -117,-137l-109 -197c-4,-73 -5,-136 -5,-184 1,-23 9,-45 23,-62zm509 -3008c40,15 71,44 87,80 8,18 13,37 14,56 3,42 29,76 68,90l97 36c8,71 21,139 36,203 3,14 -5,4 -7,21l-1 5 -195 -71c-40,-14 -81,-5 -110,26 -14,14 -30,25 -47,33 -36,17 -78,20 -118,6 -40,-15 -71,-45 -87,-80 -17,-36 -20,-78 -6,-119 8,-20 19,-38 34,-53 20,-22 30,-48 28,-78 -1,-20 1,-42 9,-62 15,-40 44,-71 80,-87 36,-17 78,-20 118,-6zm2278 262l97 -36c39,-14 65,-48 68,-90 1,-19 6,-38 14,-56 17,-36 47,-65 87,-80 40,-14 82,-11 118,6 36,16 66,47 80,87 8,20 11,42 9,62 -2,30 8,56 29,78 14,15 25,33 33,53 14,41 11,83 -5,119 -17,35 -48,65 -88,80 -40,14 -82,11 -118,-6 -17,-8 -33,-19 -47,-33 -28,-31 -70,-40 -109,-26l-196 71 -1 -5c-2,-17 -10,-7 -7,-21 15,-64 29,-132 36,-203zm-166 672l127 46c40,14 81,4 110,-26 14,-14 30,-25 47,-33 36,-17 78,-20 118,-6 40,15 71,45 87,80 17,36 20,78 6,119 -8,20 -19,38 -34,53 -20,22 -30,48 -28,78 1,20 -1,42 -9,62 -29,80 -118,122 -198,93 -40,-15 -71,-44 -87,-80 -8,-18 -13,-37 -14,-56 -3,-42 -29,-76 -68,-90l-177 -65c3,-31 5,-65 6,-99 42,-20 80,-45 114,-76zm-1560 175l-177 65c-39,14 -65,48 -67,90 -2,19 -7,38 -15,56 -16,36 -47,65 -87,80 -40,14 -82,11 -118,-6 -36,-16 -65,-47 -80,-87 -7,-20 -10,-42 -9,-62 2,-30 -8,-56 -28,-78 -14,-15 -26,-33 -33,-53 -15,-41 -12,-83 5,-119 16,-35 47,-65 87,-80 40,-14 82,-11 118,6 18,8 33,19 47,33 29,30 70,40 110,26l127 -46c7,6 14,12 21,18 28,23 60,42 93,58 1,34 3,68 6,99zm2961 -591c0,-170 -9,-339 -26,-505 -18,-165 -45,-331 -80,-496 -20,-88 -94,-147 -184,-147l-3910 0c-90,0 -164,59 -184,147 -35,163 -62,329 -80,496 -17,164 -26,332 -26,503 0,330 34,651 98,959 59,287 145,564 254,829 185,-69 351,-129 513,-178 -125,104 -244,215 -356,332 -89,33 -177,66 -265,99l-38 -87c-132,-303 -235,-623 -303,-954 -68,-324 -103,-658 -103,-1000 0,-175 10,-350 28,-524 4,-41 9,-82 15,-122l-98 0c-110,0 -200,-90 -200,-200l0 -100c0,-110 90,-200 200,-200l205 0c68,-124 198,-200 340,-200l1655 0 0 -100c0,-110 90,-200 200,-200l200 0c110,0 200,90 200,200l0 100 1655 0c142,0 272,76 340,200l205 0c110,0 200,90 200,200l0 100c0,110 -90,200 -200,200l-98 0c6,41 11,81 15,122 5,44 39,526 28,526 0,342 -36,677 -103,999 -77,370 -190,695 -341,1040 -87,-33 -173,-65 -261,-95 -103,-108 -210,-210 -324,-306 162,43 321,93 477,148 109,-264 194,-541 254,-828 64,-310 98,-630 98,-958zm-4598 -948l-147 0 0 100 128 0c6,-34 12,-67 19,-100zm2453 -400c0,-25 0,-100 0,-100l-200 0 0 100 200 0zm2272 500l128 0 0 -100 -147 0c7,33 13,67 19,100zm-2368 1636c113,0 198,-15 250,-59 22,-19 39,-46 52,-81 -88,28 -196,42 -302,42 -106,0 -214,-14 -301,-42 12,35 30,62 52,81 51,44 136,59 249,59zm326 -373c-1,-166 6,-253 214,-280 21,-3 37,-13 43,-34 6,-17 2,-51 -3,-87 -6,-51 -12,-102 1,-157 18,-79 34,-163 34,-239 1,-325 -355,-395 -615,-395 -188,0 -456,42 -569,211 -34,52 -46,116 -46,184 0,76 16,160 34,239 13,55 7,106 1,157 -5,36 -9,70 -3,87 6,21 22,31 43,34 208,27 215,114 214,280 7,8 23,18 44,28 69,31 175,47 282,47 107,0 213,-16 282,-47 21,-10 37,-20 44,-28zm55 465c-94,81 -221,108 -381,108 -159,0 -287,-27 -381,-108 -95,-83 -145,-212 -145,-412 0,-18 1,-20 1,-35 0,-63 0,-95 -40,-101 -98,-12 -177,-74 -208,-170 -19,-59 -12,-115 -6,-171 4,-34 8,-68 4,-89 -21,-90 -39,-187 -39,-284 0,-104 20,-206 79,-294 155,-233 472,-301 735,-301 380,0 815,142 814,595 0,97 -17,194 -38,284 -5,21 -1,55 3,89 7,56 13,112 -6,171 -31,96 -109,158 -208,170 -40,6 -40,38 -40,101 0,15 1,17 1,35 0,200 -50,329 -145,412zm-635 -1224c110,0 200,89 200,200 0,110 -90,200 -200,200 -110,0 -200,-90 -200,-200 0,-111 90,-200 200,-200zm500 0c110,0 200,89 200,200 0,110 -90,200 -200,200 -110,0 -200,-90 -200,-200 0,-111 90,-200 200,-200zm-209 462l94 178c15,28 -6,61 -37,61l-188 0c-31,0 -52,-33 -37,-61l94 -178c16,-30 59,-30 74,0zm-741 2034c110,0 200,90 200,200 0,110 -90,200 -200,200 -110,0 -200,-90 -200,-200 0,-110 90,-200 200,-200z"/>
</svg>