<?xml version="1.0" encoding="UTF-8"?>
<!DOCTYPE svg PUBLIC "-//W3C//DTD SVG 1.1//EN" "http://www.w3.org/Graphics/SVG/1.1/DTD/svg11.dtd">
<svg xmlns="http://www.w3.org/2000/svg" xml:space="preserve" width="580px" height="580px" shape-rendering="geometricPrecision" text-rendering="geometricPrecision" image-rendering="optimizeQuality" fill-rule="nonzero" clip-rule="nonzero" viewBox="0 0 5800 5800" xmlns:xlink="http://www.w3.org/1999/xlink">
	<title>plane_tool icon</title>
	<desc>plane_tool icon from the IconExperience.com I-Collection. Copyright by INCORS GmbH (www.incors.com).</desc>
	<path id="curve0"  d="M2100 3100c220,0 400,180 400,400 0,221 -179,400 -400,400 -220,0 -400,-180 -400,-400 0,-221 179,-400 400,-400zm-1600 1000l0 -900c0,-160 77,-310 206,-404l-528 -528 141 -141 583 583c32,-7 65,-10 98,-10l161 0 -532 -532 -67 -68 80 -86c47,-51 101,-89 160,-114 120,-49 269,-50 388,0 61,24 115,61 163,109l691 691 1356 0c197,0 374,116 455,294 148,-95 236,-257 236,-433 0,-122 -71,-324 -129,-485 -3,-10 -44,-128 -44,-128 -43,-117 -77,-240 -100,-368 -22,-125 -34,-252 -34,-380l0 -100 780 0 0 100c0,352 204,536 425,734 295,264 614,551 614,1228 0,337 -106,665 -304,938l201 0 0 1000 -5200 0 0 -1000 200 0zm3400 0l1143 0c233,-259 360,-589 360,-938 0,-589 -284,-845 -547,-1080 -235,-211 -454,-408 -487,-782l-382 0c4,84 13,166 27,245 20,114 51,225 91,333 14,44 30,88 46,131 62,177 140,397 140,552 0,269 -152,515 -391,637l0 902zm1400 200l-4800 0 0 600 4800 0 0 -600zm-3539 -1600l-549 -550c-30,-30 -63,-52 -97,-66 -72,-30 -164,-29 -236,1 -11,5 -23,10 -33,17l598 598 317 0zm1639 200l-2400 0c-165,0 -300,135 -300,300l0 900 3000 0 0 -900c0,-165 -135,-300 -300,-300zm-1300 400c-110,0 -200,90 -200,200 0,111 89,200 200,200 110,0 200,-90 200,-200 0,-111 -89,-200 -200,-200z"/>
</svg>