<?xml version="1.0" encoding="UTF-8"?>
<!DOCTYPE svg PUBLIC "-//W3C//DTD SVG 1.1//EN" "http://www.w3.org/Graphics/SVG/1.1/DTD/svg11.dtd">
<svg xmlns="http://www.w3.org/2000/svg" xml:space="preserve" width="580px" height="580px" shape-rendering="geometricPrecision" text-rendering="geometricPrecision" image-rendering="optimizeQuality" fill-rule="nonzero" clip-rule="nonzero" viewBox="0 0 5800 5800" xmlns:xlink="http://www.w3.org/1999/xlink">
	<title>plant icon</title>
	<desc>plant icon from the IconExperience.com I-Collection. Copyright by INCORS GmbH (www.incors.com).</desc>
		<path id="curve28"  d="M2700 3100c0,-235 -115,-405 -277,-544 -132,160 -315,248 -525,244 -334,-7 -668,-177 -876,-438 -400,-501 -195,-1209 61,-1651 245,328 366,351 769,447 239,57 470,113 630,262 223,208 363,500 233,798 -358,-302 -1122,-174 -1283,-519 169,445 842,428 1191,732 18,16 53,43 169,247 70,-179 170,-356 285,-509 78,-104 154,-214 254,-299 363,-313 870,-395 980,-815 -165,499 -970,378 -1263,818 -98,-161 -105,-434 -42,-607 161,-442 592,-489 989,-580 370,-84 480,-117 748,-378 156,379 249,713 149,1128 -127,528 -559,881 -1100,892 -173,4 -348,-30 -496,-114 -184,217 -396,603 -396,886l1400 0 0 600 -124 0 -439 1580c-36,131 -154,220 -289,220l-1096 0c-135,0 -253,-89 -289,-219l-443 -1581 -120 0 0 -600 1200 0z"/>
</svg>