<?xml version="1.0" encoding="UTF-8"?>
<!DOCTYPE svg PUBLIC "-//W3C//DTD SVG 1.1//EN" "http://www.w3.org/Graphics/SVG/1.1/DTD/svg11.dtd">
<svg xmlns="http://www.w3.org/2000/svg" xml:space="preserve" width="580px" height="580px" shape-rendering="geometricPrecision" text-rendering="geometricPrecision" image-rendering="optimizeQuality" fill-rule="nonzero" clip-rule="nonzero" viewBox="0 0 5800 5800" xmlns:xlink="http://www.w3.org/1999/xlink">
	<title>planks icon</title>
	<desc>planks icon from the IconExperience.com I-Collection. Copyright by INCORS GmbH (www.incors.com).</desc>
	<path id="curve0"  d="M1159 3300l2199 -2200 1200 0 -2199 2200 -1200 0zm3541 -2059l0 800 -2200 2200 0 -800 2200 -2200zm-2400 3059l-1200 0 0 -800 1200 0 0 800zm-1941 0l541 -542 0 542 -541 0zm4541 -2400l659 0 -2400 2400 -435 0 2176 -2176 0 -224zm800 141l0 800 -2400 2395 0 -795 2400 -2400zm-2600 3259l-1206 0 6 -800 1200 0 0 800zm-1600 0l-1200 0 0 -800 1200 0 0 800z"/>
</svg>