<?xml version="1.0" encoding="UTF-8"?>
<!DOCTYPE svg PUBLIC "-//W3C//DTD SVG 1.1//EN" "http://www.w3.org/Graphics/SVG/1.1/DTD/svg11.dtd">
<svg xmlns="http://www.w3.org/2000/svg" xml:space="preserve" width="580px" height="580px" shape-rendering="geometricPrecision" text-rendering="geometricPrecision" image-rendering="optimizeQuality" fill-rule="nonzero" clip-rule="nonzero" viewBox="0 0 5800 5800" xmlns:xlink="http://www.w3.org/1999/xlink">
	<title>planks icon</title>
	<desc>planks icon from the IconExperience.com I-Collection. Copyright by INCORS GmbH (www.incors.com).</desc>
	<path id="curve0"  d="M3358 1100l1342 0 0 800 1000 0 0 941 -2465 2459 -1341 0 2 -265 -254 265 -1342 0 0 -941 800 -801 0 -200 2258 -2258zm1283 1000l-2200 2200 718 0 2200 -2200 -718 0zm-2741 2200l-200 0 0 652 198 -207 2 -445zm-800 0l0 -459 -459 459 459 0zm400 800l0 -600 -1000 0 0 600 1000 0zm4000 -2859l-2201 2201 -3 516 2204 -2199 0 -518zm-2404 2859l4 -600 -1001 0 -4 600 1001 0zm-737 -1800l2000 -2000 -917 0 -2001 2000 918 0zm2141 -1859l-2000 2000 0 518 2000 -2000 0 -518zm-2200 2659l0 -600 -1000 0 0 600 1000 0z"/>
</svg>