<?xml version="1.0" encoding="UTF-8"?>
<!DOCTYPE svg PUBLIC "-//W3C//DTD SVG 1.1//EN" "http://www.w3.org/Graphics/SVG/1.1/DTD/svg11.dtd">
<svg xmlns="http://www.w3.org/2000/svg" xml:space="preserve" width="580px" height="580px" shape-rendering="geometricPrecision" text-rendering="geometricPrecision" image-rendering="optimizeQuality" fill-rule="nonzero" clip-rule="nonzero" viewBox="0 0 5800 5800" xmlns:xlink="http://www.w3.org/1999/xlink">
	<title>planet icon</title>
	<desc>planet icon from the IconExperience.com I-Collection. Copyright by INCORS GmbH (www.incors.com).</desc>
	<path id="curve0"  d="M3840 1606c358,259 576,639 640,1044 63,395 -22,813 -268,1165 -23,3 -50,3 -60,3 -420,-17 -1080,-422 -1429,-675 -352,-257 -772,-617 -1004,-993 -38,-63 -81,-141 -95,-215 259,-343 631,-553 1026,-615 404,-64 833,26 1190,286zm-3448 -528c194,-262 652,-278 1237,-92 190,60 395,141 609,241 -305,120 -581,325 -789,609 -110,131 120,457 195,558 208,282 546,608 962,911 416,302 831,522 1163,633 120,40 501,159 591,14 206,-286 316,-611 336,-939 161,173 301,342 417,504 202,283 550,866 293,1208 -192,259 -650,275 -1235,89 -674,-213 -1344,-607 -1918,-1024 -572,-416 -1154,-931 -1566,-1507 -358,-500 -484,-940 -295,-1205zm2589 3420c-353,18 -714,-80 -1021,-304 -308,-223 -513,-536 -605,-877 253,232 520,445 781,635 261,189 546,377 845,546z"/>
</svg>