<?xml version="1.0" encoding="UTF-8"?>
<!DOCTYPE svg PUBLIC "-//W3C//DTD SVG 1.1//EN" "http://www.w3.org/Graphics/SVG/1.1/DTD/svg11.dtd">
<svg xmlns="http://www.w3.org/2000/svg" xml:space="preserve" width="580px" height="580px" shape-rendering="geometricPrecision" text-rendering="geometricPrecision" image-rendering="optimizeQuality" fill-rule="nonzero" clip-rule="nonzero" viewBox="0 0 5800 5800" xmlns:xlink="http://www.w3.org/1999/xlink">
	<title>plant icon</title>
	<desc>plant icon from the IconExperience.com I-Collection. Copyright by INCORS GmbH (www.incors.com).</desc>
		<path id="curve29" d="M1700 3500l2400 0 0 -200 -2400 0 0 200zm2476 200l-439 1580c-36,131 -154,220 -289,220l-1096 0c-135,0 -253,-89 -289,-219l-443 -1581 -120 0 0 -600 2800 0 0 600 -124 0zm-207 0l-2142 0 428 1527c13,45 50,73 97,73l1096 0c47,0 84,-28 97,-73l424 -1527z"/>
	<path id="curve28" d="M2700 3100c0,-235 -115,-405 -277,-544 -62,75 -133,132 -211,173 -98,50 -204,73 -314,71 -169,-4 -334,-48 -482,-122 -155,-78 -292,-188 -394,-316 -159,-199 -223,-437 -223,-680 0,-287 90,-582 212,-827l72 -144 97 129c143,192 412,256 672,318 239,57 470,113 630,262 136,126 239,282 272,451 29,152 2,311 -107,467l-164 -114c75,-107 94,-215 75,-315 -24,-125 -105,-243 -212,-343 -122,-114 -328,-163 -540,-214 -242,-58 -492,-118 -677,-276 -78,189 -130,400 -130,606 0,201 51,396 179,556 85,106 198,197 327,262 122,61 258,98 397,100 77,2 151,-14 219,-49 51,-26 100,-65 143,-115 -93,-62 -192,-118 -289,-174 -261,-149 -511,-291 -631,-516l176 -94c93,174 318,303 554,437 277,158 567,323 718,589 70,-180 170,-355 285,-509 214,-285 434,-415 642,-539 224,-132 433,-256 592,-575l178 90c-186,371 -419,509 -668,657 -124,74 -253,150 -379,262 105,48 226,67 346,65 178,-4 354,-55 481,-135 234,-146 371,-363 430,-605 57,-236 39,-497 -38,-740 -188,133 -401,182 -622,232 -50,11 -99,23 -149,34 -297,65 -591,129 -696,419 -22,60 -36,167 -24,273 8,74 29,145 68,190l-151 131c-69,-81 -104,-189 -116,-299 -15,-137 5,-280 35,-363 143,-393 491,-470 842,-547 49,-11 98,-21 147,-33 239,-54 469,-106 642,-275l106 -103 56 137c130,314 171,670 93,991 -70,289 -235,550 -518,727 -156,98 -369,161 -582,165 -173,4 -348,-30 -496,-114 -184,217 -396,603 -396,886l-200 0z"/>
</svg>