<?xml version="1.0" encoding="UTF-8"?>
<!DOCTYPE svg PUBLIC "-//W3C//DTD SVG 1.1//EN" "http://www.w3.org/Graphics/SVG/1.1/DTD/svg11.dtd">
<svg xmlns="http://www.w3.org/2000/svg" xml:space="preserve" width="580px" height="580px" shape-rendering="geometricPrecision" text-rendering="geometricPrecision" image-rendering="optimizeQuality" fill-rule="nonzero" clip-rule="nonzero" viewBox="0 0 5800 5800" xmlns:xlink="http://www.w3.org/1999/xlink">
	<title>platform_truck_empty icon</title>
	<desc>platform_truck_empty icon from the IconExperience.com I-Collection. Copyright by INCORS GmbH (www.incors.com).</desc>
		<path id="curve28"  d="M4002 4500c275,1 498,225 498,500 0,276 -224,500 -500,500 -276,0 -500,-224 -500,-500 0,-275 223,-499 498,-500l-2794 0c275,2 496,226 496,500 0,276 -224,500 -500,500 -276,0 -500,-224 -500,-500 0,-274 221,-498 496,-500l-696 0 0 -200 4000 0 0 -3000c0,-38 21,-71 52,-88l795 -497 106 170 -753 470 0 3045c0,55 -45,100 -100,100l-598 0z"/>
</svg>