<?xml version="1.0" encoding="UTF-8"?>
<!DOCTYPE svg PUBLIC "-//W3C//DTD SVG 1.1//EN" "http://www.w3.org/Graphics/SVG/1.1/DTD/svg11.dtd">
<svg xmlns="http://www.w3.org/2000/svg" xml:space="preserve" width="580px" height="580px" shape-rendering="geometricPrecision" text-rendering="geometricPrecision" image-rendering="optimizeQuality" fill-rule="nonzero" clip-rule="nonzero" viewBox="0 0 5800 5800" xmlns:xlink="http://www.w3.org/1999/xlink">
	<title>playing_card_clubs icon</title>
	<desc>playing_card_clubs icon from the IconExperience.com I-Collection. Copyright by INCORS GmbH (www.incors.com).</desc>
		<path id="curve28"  d="M1300 300l3200 0c220,0 400,180 400,400l0 4400c0,220 -180,400 -400,400l-3200 0c-220,0 -400,-180 -400,-400l0 -4400c0,-220 180,-400 400,-400zm1928 2316c135,-100 222,-260 222,-441 0,-304 -246,-550 -550,-550 -304,0 -550,246 -550,550 0,181 87,341 222,441l-3 4c-67,-29 -141,-45 -219,-45 -304,0 -550,246 -550,550 0,304 246,550 550,550 186,0 350,-92 450,-234l0 659 -700 0 0 200 1600 0 0 -200 -700 0 0 -659c100,142 264,234 450,234 304,0 550,-246 550,-550 0,-304 -246,-550 -550,-550 -78,0 -152,16 -219,45l-3 -4z"/>
</svg>