<?xml version="1.0" encoding="UTF-8"?>
<!DOCTYPE svg PUBLIC "-//W3C//DTD SVG 1.1//EN" "http://www.w3.org/Graphics/SVG/1.1/DTD/svg11.dtd">
<svg xmlns="http://www.w3.org/2000/svg" xml:space="preserve" width="580px" height="580px" shape-rendering="geometricPrecision" text-rendering="geometricPrecision" image-rendering="optimizeQuality" fill-rule="nonzero" clip-rule="nonzero" viewBox="0 0 5800 5800" xmlns:xlink="http://www.w3.org/1999/xlink">
	<title>playing_cards_deck icon</title>
	<desc>playing_cards_deck icon from the IconExperience.com I-Collection. Copyright by INCORS GmbH (www.incors.com).</desc>
	<path id="curve0"  d="M5400 4100c55,0 100,45 100,100 0,55 -45,100 -100,100l-3500 0c-55,0 -100,-45 -100,-100 0,-55 45,-100 100,-100l3500 0zm-4922 -2734l2110 -1052c158,-79 352,-14 430,144l1409 2826c79,158 14,352 -144,430l-372 186 -2011 0c-165,0 -300,135 -300,300l0 136 -1266 -2540c-79,-158 -14,-352 144,-430zm2564 502c-125,-238 -463,-350 -705,-229 -126,64 -219,147 -264,285 -140,-48 -273,-21 -401,47 -227,126 -344,457 -226,693 100,197 208,278 404,371 134,63 276,95 419,127 134,30 270,60 393,118l114 54 26 -124c27,-132 85,-259 142,-385 61,-133 120,-264 151,-411 43,-209 45,-349 -53,-546zm-1418 706c-70,-142 14,-363 152,-432 121,-61 203,-57 318,13l135 82 16 -158c14,-135 61,-201 182,-262 141,-69 366,-1 437,142 77,155 69,251 35,415 -25,123 -81,246 -137,369 -45,100 -91,202 -125,311 -107,-38 -216,-63 -325,-87 -131,-29 -261,-58 -376,-113 -152,-72 -234,-124 -312,-280zm1639 -2074l916 0c176,0 321,145 321,321l0 2160 -1237 -2481zm1437 595l783 391c149,74 217,253 155,407l-938 1883 0 -2681zm700 4205c55,0 100,45 100,100 0,55 -45,100 -100,100l-3500 0c-55,0 -100,-45 -100,-100 0,-55 45,-100 100,-100l3500 0zm0 -400c55,0 100,45 100,100 0,55 -45,100 -100,100l-3500 0c-55,0 -100,-45 -100,-100 0,-55 45,-100 100,-100l3500 0zm0 -400c55,0 100,45 100,100 0,55 -45,100 -100,100l-3500 0c-55,0 -100,-45 -100,-100 0,-55 45,-100 100,-100l3500 0z"/>
</svg>