<?xml version="1.0" encoding="UTF-8"?>
<!DOCTYPE svg PUBLIC "-//W3C//DTD SVG 1.1//EN" "http://www.w3.org/Graphics/SVG/1.1/DTD/svg11.dtd">
<svg xmlns="http://www.w3.org/2000/svg" xml:space="preserve" width="580px" height="580px" shape-rendering="geometricPrecision" text-rendering="geometricPrecision" image-rendering="optimizeQuality" fill-rule="nonzero" clip-rule="nonzero" viewBox="0 0 5800 5800" xmlns:xlink="http://www.w3.org/1999/xlink">
	<title>playing_cards_deck icon</title>
	<desc>playing_cards_deck icon from the IconExperience.com I-Collection. Copyright by INCORS GmbH (www.incors.com).</desc>
	<path id="curve0"  d="M5400 4100c55,0 100,45 100,100 0,55 -45,100 -100,100l-3500 0c-55,0 -100,-45 -100,-100 0,-55 45,-100 100,-100l3500 0zm0 400c55,0 100,45 100,100 0,55 -45,100 -100,100l-3500 0c-55,0 -100,-45 -100,-100 0,-55 45,-100 100,-100l3500 0zm-3951 -1829c-68,-136 -62,-285 -12,-414 46,-122 132,-229 235,-286l15 -8c126,-63 253,-85 386,-39 42,-129 130,-215 249,-278 127,-63 264,-70 400,-30 128,37 246,116 312,237 52,100 85,199 89,313 3,88 -11,165 -28,248 -31,147 -90,278 -151,411 -85,189 -126,310 -168,509 -183,-87 -305,-127 -507,-172 -143,-32 -285,-64 -419,-127 -186,-88 -299,-168 -401,-364zm1814 -2171l916 0c176,0 321,145 321,321l0 2160 -200 -400 0 -1760c0,-67 -54,-121 -121,-121l-817 0 -99 -200zm1437 595l783 391c149,74 217,253 155,407l-938 1883 0 -448 749 -1501c29,-59 5,-132 -54,-162l-695 -346 0 -224zm-4222 271l2110 -1052c158,-79 352,-14 430,144l1409 2826c79,158 14,352 -144,430l-372 186 -448 0 731 -365c60,-29 84,-102 55,-162l-1410 -2826c-29,-60 -102,-84 -162,-55l-2110 1053c-30,14 -51,40 -61,70 -10,29 -8,62 7,92l1151 2309c-40,51 -64,115 -64,184l0 136 -1266 -2540c-40,-79 -43,-167 -17,-245 26,-78 82,-146 161,-185zm1299 775c-66,33 -122,103 -154,186 -31,81 -36,172 1,247 78,156 160,208 312,280 115,55 245,84 376,113 109,24 218,49 325,87 34,-109 80,-211 125,-311 56,-123 112,-246 137,-369 15,-71 27,-136 25,-201 -2,-62 -18,-131 -60,-215 -38,-76 -114,-127 -197,-151 -76,-22 -169,-25 -241,11 -121,60 -167,128 -181,261l-16 158 -135 -82c-115,-70 -195,-74 -317,-14zm3623 3159c55,0 100,45 100,100 0,55 -45,100 -100,100l-3500 0c-55,0 -100,-45 -100,-100 0,-55 45,-100 100,-100l3500 0zm0 -400c55,0 100,45 100,100 0,55 -45,100 -100,100l-3500 0c-55,0 -100,-45 -100,-100 0,-55 45,-100 100,-100l3500 0z"/>
</svg>