<?xml version="1.0" encoding="UTF-8"?>
<!DOCTYPE svg PUBLIC "-//W3C//DTD SVG 1.1//EN" "http://www.w3.org/Graphics/SVG/1.1/DTD/svg11.dtd">
<svg xmlns="http://www.w3.org/2000/svg" xml:space="preserve" width="580px" height="580px" shape-rendering="geometricPrecision" text-rendering="geometricPrecision" image-rendering="optimizeQuality" fill-rule="nonzero" clip-rule="nonzero" viewBox="0 0 5800 5800" xmlns:xlink="http://www.w3.org/1999/xlink">
	<title>playing_card_hearts icon</title>
	<desc>playing_card_hearts icon from the IconExperience.com I-Collection. Copyright by INCORS GmbH (www.incors.com).</desc>
		<path id="curve28"  d="M1300 300l3200 0c220,0 400,180 400,400l0 4400c0,220 -180,400 -400,400l-3200 0c-220,0 -400,-180 -400,-400l0 -4400c0,-220 180,-400 400,-400zm2700 2174c0,-316 -267,-582 -596,-582 -212,0 -398,111 -504,278 -106,-167 -292,-278 -504,-278 -329,0 -596,266 -596,582 0,306 109,455 243,627 240,304 608,491 857,807 249,-316 617,-503 857,-807 134,-172 243,-321 243,-627z"/>
</svg>