<?xml version="1.0" encoding="UTF-8"?>
<!DOCTYPE svg PUBLIC "-//W3C//DTD SVG 1.1//EN" "http://www.w3.org/Graphics/SVG/1.1/DTD/svg11.dtd">
<svg xmlns="http://www.w3.org/2000/svg" xml:space="preserve" width="580px" height="580px" shape-rendering="geometricPrecision" text-rendering="geometricPrecision" image-rendering="optimizeQuality" fill-rule="nonzero" clip-rule="nonzero" viewBox="0 0 5800 5800" xmlns:xlink="http://www.w3.org/1999/xlink">
	<title>playing_cards icon</title>
	<desc>playing_cards icon from the IconExperience.com I-Collection. Copyright by INCORS GmbH (www.incors.com).</desc>
		<path id="curve28" d="M2951 2450c48,103 68,191 71,276 3,88 -12,165 -29,248 -30,147 -90,278 -150,411 -57,126 -115,253 -142,385l-26 124 -115 -54c-123,-58 -258,-88 -392,-118 -143,-32 -285,-64 -419,-127 -77,-36 -147,-71 -216,-127 -67,-54 -127,-125 -181,-229 -68,-132 -81,-271 -32,-412 42,-122 128,-230 250,-296 87,-45 175,-67 273,-63 45,2 89,9 132,22 15,-42 36,-81 61,-118 59,-85 130,-140 222,-184 124,-55 260,-58 380,-19 146,48 247,144 313,281zm-1251 -1950l2358 0c177,0 321,144 321,321l0 2681 -200 -401 0 -2280c0,-66 -55,-121 -121,-121l-2358 0c-66,0 -121,55 -121,121l0 282 -200 99 0 -381c0,-177 144,-321 321,-321zm2879 610l844 420c149,75 216,253 154,407l-998 2005 0 -448 798 -1601 11 -21c30,-60 6,-132 -54,-162l-755 -377 0 -223zm-235 3304l-186 373c-79,158 -273,223 -431,144l-207 -103 224 -112 72 36c60,30 133,6 163,-54l65 -132 215 -107c30,-12 58,-27 85,-45zm-1768 -3361l-2111 1052c-60,29 -84,102 -54,162l1409 2827c30,59 103,83 163,53l2110 -1052c60,-30 78,-102 49,-162l-1404 -2826c-30,-60 -103,-84 -162,-54zm246 1680c-2,-77 -26,-148 -61,-217 -38,-76 -106,-131 -185,-157 -80,-26 -170,-22 -251,19 -50,24 -93,61 -124,107 -32,46 -52,99 -57,154l-16 158 -135 -82c-48,-29 -102,-46 -158,-48 -56,-2 -110,10 -160,35 -82,40 -139,110 -166,189 -27,79 -24,166 14,243 35,69 75,130 136,179 50,41 110,70 175,101 115,55 246,84 377,113 108,24 217,49 324,87 34,-109 80,-211 126,-311 56,-123 111,-246 137,-369 15,-70 27,-136 24,-201zm-2446 -807l2110 -1052c158,-79 352,-14 431,144l1419 2849c62,155 -5,333 -154,407l-2134 1063c-154,62 -333,-6 -407,-155l-1409 -2826c-78,-158 -13,-352 144,-430z"/>
</svg>