<?xml version="1.0" encoding="UTF-8"?>
<!DOCTYPE svg PUBLIC "-//W3C//DTD SVG 1.1//EN" "http://www.w3.org/Graphics/SVG/1.1/DTD/svg11.dtd">
<svg xmlns="http://www.w3.org/2000/svg" xml:space="preserve" width="580px" height="580px" shape-rendering="geometricPrecision" text-rendering="geometricPrecision" image-rendering="optimizeQuality" fill-rule="nonzero" clip-rule="nonzero" viewBox="0 0 5800 5800" xmlns:xlink="http://www.w3.org/1999/xlink">
	<title>playing_card_clubs icon</title>
	<desc>playing_card_clubs icon from the IconExperience.com I-Collection. Copyright by INCORS GmbH (www.incors.com).</desc>
		<path id="curve29" d="M1300 300l3200 0c220,0 400,180 400,400l0 4400c0,220 -180,400 -400,400l-3200 0c-220,0 -400,-180 -400,-400l0 -4400c0,-220 180,-400 400,-400zm3200 200l-3200 0c-110,0 -200,90 -200,200l0 4400c0,110 90,200 200,200l3200 0c110,0 200,-90 200,-200l0 -4400c0,-110 -90,-200 -200,-200z"/>
	<path id="curve28" d="M3000 3100l0 77 10 46c46,206 229,352 440,352 249,0 450,-201 450,-450 0,-249 -201,-450 -450,-450 -63,0 -122,12 -179,37l-75 32c-35,-50 -70,-100 -104,-150l77 -58c115,-85 181,-218 181,-361 0,-249 -201,-450 -450,-450 -249,0 -450,201 -450,450 0,143 66,276 181,361l77 58c-34,50 -69,100 -104,150l-75 -32c-57,-25 -116,-37 -179,-37 -249,0 -450,201 -450,450 0,249 201,450 450,450 211,0 394,-146 440,-352l10 -46 0 -77 200 0zm0 494l0 506 700 0 0 200 -1600 0 0 -200 700 0 0 -506c-121,116 -282,181 -450,181 -359,0 -650,-291 -650,-650 0,-349 276,-636 624,-650 -49,-94 -74,-193 -74,-300 0,-359 291,-650 650,-650 359,0 650,291 650,650 0,107 -25,206 -74,300 348,14 624,301 624,650 0,359 -291,650 -650,650 -168,0 -329,-65 -450,-181z"/>
</svg>