<?xml version="1.0" encoding="UTF-8"?>
<!DOCTYPE svg PUBLIC "-//W3C//DTD SVG 1.1//EN" "http://www.w3.org/Graphics/SVG/1.1/DTD/svg11.dtd">
<svg xmlns="http://www.w3.org/2000/svg" xml:space="preserve" width="580px" height="580px" shape-rendering="geometricPrecision" text-rendering="geometricPrecision" image-rendering="optimizeQuality" fill-rule="nonzero" clip-rule="nonzero" viewBox="0 0 5800 5800" xmlns:xlink="http://www.w3.org/1999/xlink">
	<title>playing_card_spades icon</title>
	<desc>playing_card_spades icon from the IconExperience.com I-Collection. Copyright by INCORS GmbH (www.incors.com).</desc>
		<path id="curve29"  d="M1300 300l3200 0c110,0 210,45 283,117 72,73 117,173 117,283l0 4400c0,110 -45,210 -117,283 -73,72 -173,117 -283,117l-3200 0c-110,0 -210,-45 -283,-117 -72,-73 -117,-173 -117,-283l0 -4400c0,-110 45,-210 117,-283 73,-72 173,-117 283,-117zm3200 200l-3200 0c-55,0 -105,23 -141,59 -36,36 -59,86 -59,141l0 4400c0,55 23,105 59,141 36,36 86,59 141,59l3200 0c55,0 105,-23 141,-59 36,-36 59,-86 59,-141l0 -4400c0,-55 -23,-105 -59,-141 -36,-36 -86,-59 -141,-59z"/>
	<path id="curve28"  d="M1700 3230c0,-169 31,-296 80,-405 49,-107 113,-193 185,-283 125,-159 279,-285 436,-411 150,-122 301,-245 420,-397l79 -100 79 100c119,152 270,275 420,397 157,126 311,252 436,411 72,90 136,176 185,283 49,109 80,236 80,405 0,379 -320,683 -696,683 -145,0 -286,-46 -404,-130l0 317 700 0 0 200 -1600 0 0 -200 700 0 0 -317c-118,84 -259,129 -404,129 -376,0 -696,-303 -696,-682zm262 -323c-38,85 -62,186 -62,323 0,269 230,482 496,482 171,0 328,-86 420,-231l84 -134 84 134c92,145 249,231 420,231 266,0 496,-213 496,-482 0,-137 -24,-238 -62,-323 -39,-86 -96,-161 -160,-242 -112,-142 -257,-260 -404,-380 -129,-104 -259,-210 -374,-335 -115,125 -245,231 -374,335 -147,120 -292,238 -404,380 -64,81 -121,156 -160,242z"/>
</svg>