<?xml version="1.0" encoding="UTF-8"?>
<!DOCTYPE svg PUBLIC "-//W3C//DTD SVG 1.1//EN" "http://www.w3.org/Graphics/SVG/1.1/DTD/svg11.dtd">
<svg xmlns="http://www.w3.org/2000/svg" xml:space="preserve" width="580px" height="580px" shape-rendering="geometricPrecision" text-rendering="geometricPrecision" image-rendering="optimizeQuality" fill-rule="nonzero" clip-rule="nonzero" viewBox="0 0 5800 5800" xmlns:xlink="http://www.w3.org/1999/xlink">
	<title>playing_cards icon</title>
	<desc>playing_cards icon from the IconExperience.com I-Collection. Copyright by INCORS GmbH (www.incors.com).</desc>
		<path id="curve28"  d="M4579 1110l844 420c149,75 216,253 154,407l-998 2005 0 -2832zm-4203 816l2110 -1052c158,-79 352,-14 431,144l1419 2849c62,155 -5,333 -154,407l-2134 1063c-154,62 -333,-6 -407,-155l-1409 -2826c-78,-158 -13,-352 144,-430zm2475 546c-101,-203 -359,-289 -571,-184 -137,69 -221,200 -236,342 -121,-74 -277,-86 -414,-18 -212,106 -298,364 -196,567 98,197 216,258 357,326 252,119 550,121 812,245 59,-284 236,-523 293,-796 31,-154 53,-285 -45,-482zm-1151 -1972l2358 0c177,0 321,144 321,321l0 2683 -1283 -2575c-128,-257 -442,-362 -699,-234l-1018 507 0 -381c0,-177 144,-321 321,-321zm2644 3914l-186 373c-79,158 -273,223 -431,144l-207 -104 738 -367c30,-13 59,-28 86,-46z"/>
</svg>