<?xml version="1.0" encoding="UTF-8"?>
<!DOCTYPE svg PUBLIC "-//W3C//DTD SVG 1.1//EN" "http://www.w3.org/Graphics/SVG/1.1/DTD/svg11.dtd">
<svg xmlns="http://www.w3.org/2000/svg" xml:space="preserve" width="580px" height="580px" shape-rendering="geometricPrecision" text-rendering="geometricPrecision" image-rendering="optimizeQuality" fill-rule="nonzero" clip-rule="nonzero" viewBox="0 0 5800 5800" xmlns:xlink="http://www.w3.org/1999/xlink">
	<title>pliers icon</title>
	<desc>pliers icon from the IconExperience.com I-Collection. Copyright by INCORS GmbH (www.incors.com).</desc>
	<path id="curve0" d="M1682 3718c221,0 400,179 400,400 0,221 -179,400 -400,400 -221,0 -400,-179 -400,-400 0,-221 179,-400 400,-400zm3604 -1099l1 -2m0 0l0 0m0 0l0 1m-1 1l1 -1c37,-40 37,-102 -3,-140 -40,-37 -102,-38 -140,0 -319,337 -646,590 -1047,821 -450,261 -988,454 -1498,553 -83,16 -107,28 -161,59l7 27c16,61 25,124 26,187l112 -65c554,-100 1126,-305 1614,-587 421,-243 753,-503 1089,-854zm-3087 1804c56,-94 83,-200 83,-305 0,-332 -268,-600 -600,-600 -105,0 -211,28 -305,83 -240,133 -480,277 -718,415l-146 547 579 -335c13,66 36,130 70,190l-770 445 -113 -196 209 -782 778 -450c50,-29 102,-52 156,-69l128 -220c104,-556 320,-1153 603,-1643 253,-438 523,-784 888,-1133 118,-115 308,-112 423,7 114,118 112,309 -7,424 -322,304 -563,618 -785,1002 -248,430 -434,949 -528,1436 -18,94 -33,133 -62,186 122,71 222,171 293,293 53,-29 92,-44 186,-62 487,-95 1006,-281 1436,-529 384,-222 697,-463 1002,-786 114,-119 306,-120 424,-6 118,116 121,304 6,423 -349,365 -695,635 -1132,888 -490,283 -1087,500 -1644,603l-219 129c-17,53 -39,106 -69,156l-449 778 -782 210 -110 -64 -86 -49 445 -771c59,34 123,58 189,70l-334 579 547 -146 414 -718zm1121 -3767c39,-39 37,-102 0,-141 -38,-40 -101,-40 -141,-2 -350,337 -610,669 -853,1090 -283,489 -486,1060 -586,1615l-65 111c76,2 141,14 214,33 31,-54 43,-78 59,-160 98,-511 291,-1048 551,-1499 233,-402 484,-728 821,-1047zm-1638 3262c-110,0 -200,90 -200,200 0,111 90,200 200,200 111,0 200,-89 200,-200 0,-110 -89,-200 -200,-200z"/>
</svg>