<?xml version="1.0" encoding="UTF-8"?>
<!DOCTYPE svg PUBLIC "-//W3C//DTD SVG 1.1//EN" "http://www.w3.org/Graphics/SVG/1.1/DTD/svg11.dtd">
<svg xmlns="http://www.w3.org/2000/svg" xml:space="preserve" width="580px" height="580px" shape-rendering="geometricPrecision" text-rendering="geometricPrecision" image-rendering="optimizeQuality" fill-rule="nonzero" clip-rule="nonzero" viewBox="0 0 5800 5800" xmlns:xlink="http://www.w3.org/1999/xlink">
	<title>pliers icon</title>
	<desc>pliers icon from the IconExperience.com I-Collection. Copyright by INCORS GmbH (www.incors.com).</desc>
	<path id="curve0"  d="M1682 3718c221,0 400,179 400,400 0,221 -179,400 -400,400 -221,0 -400,-179 -400,-400 0,-221 179,-400 400,-400zm3748 -961c-349,364 -696,636 -1133,889 -490,283 -1087,500 -1644,603l-219 129c-17,53 -39,106 -69,156l-449 778 -782 210c-65,-38 -131,-76 -196,-113l445 -771c92,53 196,80 299,80 332,0 600,-269 600,-600 0,-332 -268,-600 -600,-600 -331,0 -600,269 -600,600 0,104 27,208 80,300l-770 445c-38,-65 -75,-131 -113,-196l209 -782 778 -450c50,-29 102,-52 156,-69l128 -220c104,-556 320,-1153 603,-1643 253,-438 523,-784 888,-1133 118,-115 308,-112 423,7 113,117 112,309 -6,423 -329,329 -551,596 -786,1003 -248,430 -434,949 -528,1436 -18,94 -33,133 -62,186 122,71 222,171 293,293 53,-29 92,-44 186,-62 487,-95 1006,-281 1436,-529 384,-222 697,-463 1002,-786 115,-119 306,-120 425,-5 117,115 120,303 6,421z"/>
</svg>