<?xml version="1.0" encoding="UTF-8"?>
<!DOCTYPE svg PUBLIC "-//W3C//DTD SVG 1.1//EN" "http://www.w3.org/Graphics/SVG/1.1/DTD/svg11.dtd">
<svg xmlns="http://www.w3.org/2000/svg" xml:space="preserve" width="580px" height="580px" shape-rendering="geometricPrecision" text-rendering="geometricPrecision" image-rendering="optimizeQuality" fill-rule="nonzero" clip-rule="nonzero" viewBox="0 0 5800 5800" xmlns:xlink="http://www.w3.org/1999/xlink">
	<title>plug_usb icon</title>
	<desc>plug_usb icon from the IconExperience.com I-Collection. Copyright by INCORS GmbH (www.incors.com).</desc>
		<path id="curve28"  d="M3846 1900l1254 0c110,0 200,90 200,200l0 1600c0,110 -90,200 -200,200l-1254 0c-71,122 -202,200 -346,200l-1500 0c-164,0 -311,-59 -425,-177l-585 -605c-58,-60 -90,-134 -90,-218l0 -100 -600 0 0 -200 600 0 0 -100c0,-84 32,-158 90,-218l585 -605c114,-118 261,-177 425,-177l1500 0c143,0 275,77 346,200zm854 1100l0 500 -400 0 0 -500 400 0zm0 -700l0 500 -400 0 0 -500 400 0zm400 -200l-1200 0 0 1600 1200 0 0 -1600z"/>
</svg>