<?xml version="1.0" encoding="UTF-8"?>
<!DOCTYPE svg PUBLIC "-//W3C//DTD SVG 1.1//EN" "http://www.w3.org/Graphics/SVG/1.1/DTD/svg11.dtd">
<svg xmlns="http://www.w3.org/2000/svg" xml:space="preserve" width="580px" height="580px" shape-rendering="geometricPrecision" text-rendering="geometricPrecision" image-rendering="optimizeQuality" fill-rule="nonzero" clip-rule="nonzero" viewBox="0 0 5800 5800" xmlns:xlink="http://www.w3.org/1999/xlink">
	<title>plug2 icon</title>
	<desc>plug2 icon from the IconExperience.com I-Collection. Copyright by INCORS GmbH (www.incors.com).</desc>
		<path id="curve28"  d="M4700 4900l600 0c55,0 100,-45 100,-100 0,-55 -45,-100 -100,-100l-600 0 0 -800 600 0c55,0 100,-45 100,-100 0,-55 -45,-100 -100,-100l-600 0 0 -200c0,-110 -90,-200 -200,-200l-900 0c-138,0 -263,56 -353,147 -91,90 -147,215 -147,353l0 100c0,55 -45,100 -100,100l-500 0 0 200 -626 0c-455,0 -825,-369 -825,-825 0,-456 370,-825 825,-825l285 0c566,0 1025,-459 1025,-1025 0,-566 -459,-1025 -1025,-1025l-1685 0 0 200 1685 0c456,0 825,369 825,825 0,456 -369,825 -825,825l-285 0c-566,0 -1025,459 -1025,1025 0,566 459,1025 1025,1025l626 0 0 200 500 0c55,0 100,45 100,100l0 100c0,138 56,263 147,353 90,91 215,147 353,147l900 0c110,0 200,-90 200,-200l0 -200z"/>
</svg>