<?xml version="1.0" encoding="UTF-8"?>
<!DOCTYPE svg PUBLIC "-//W3C//DTD SVG 1.1//EN" "http://www.w3.org/Graphics/SVG/1.1/DTD/svg11.dtd">
<svg xmlns="http://www.w3.org/2000/svg" xml:space="preserve" width="580px" height="580px" shape-rendering="geometricPrecision" text-rendering="geometricPrecision" image-rendering="optimizeQuality" fill-rule="nonzero" clip-rule="nonzero" viewBox="0 0 5800 5800" xmlns:xlink="http://www.w3.org/1999/xlink">
	<title>plug icon</title>
	<desc>plug icon from the IconExperience.com I-Collection. Copyright by INCORS GmbH (www.incors.com).</desc>
		<path id="curve28" d="M2100 2400c0,165 -135,300 -300,300l-300 0 0 400 300 0c165,0 300,135 300,300 0,538 227,900 800,900l1000 0 0 100c0,55 45,100 100,100l200 0c55,0 100,-45 100,-100 0,-1000 0,-2000 0,-3000 0,-55 -45,-100 -100,-100l-200 0c-55,0 -100,45 -100,100l0 100 -1000 0c-574,0 -800,362 -800,900zm-200 0c0,-649 313,-1100 1000,-1100l817 0c42,-119 156,-200 283,-200l200 0c165,0 300,135 300,300l0 500 900 0c110,0 200,90 200,200 0,110 -90,200 -200,200l-900 0 0 1200 900 0c110,0 200,90 200,200 0,110 -90,200 -200,200l-900 0 0 500c0,165 -135,300 -300,300l-200 0c-127,0 -241,-81 -283,-200l-817 0c-686,0 -1000,-450 -1000,-1100 0,-55 -45,-100 -100,-100l-500 0 0 -300 -1000 0 0 -200 1000 0 0 -300 500 0c55,0 100,-45 100,-100z"/>
</svg>