<?xml version="1.0" encoding="UTF-8"?>
<!DOCTYPE svg PUBLIC "-//W3C//DTD SVG 1.1//EN" "http://www.w3.org/Graphics/SVG/1.1/DTD/svg11.dtd">
<svg xmlns="http://www.w3.org/2000/svg" xml:space="preserve" width="580px" height="580px" shape-rendering="geometricPrecision" text-rendering="geometricPrecision" image-rendering="optimizeQuality" fill-rule="nonzero" clip-rule="nonzero" viewBox="0 0 5800 5800" xmlns:xlink="http://www.w3.org/1999/xlink">
	<title>plug_cinch icon</title>
	<desc>plug_cinch icon from the IconExperience.com I-Collection. Copyright by INCORS GmbH (www.incors.com).</desc>
		<path id="curve28"  d="M4500 3500l400 0 0 -1200 -400 0 0 1200zm1100 -600c0,110 -90,200 -200,200l-300 0 0 400c0,110 -90,200 -200,200l-454 0c-71,122 -202,200 -346,200l-1600 0c-68,0 -146,-13 -217,-39 -122,-44 -167,-95 -250,-183 -85,-90 -162,-171 -279,-210l-534 -179c-127,-43 -220,-152 -220,-289l-700 0 0 -200 700 0c0,-137 93,-248 221,-289l544 -174c146,-47 245,-180 350,-286 97,-96 250,-151 385,-151l1600 0c143,0 275,77 346,200l454 0c110,0 200,90 200,200l0 400 300 0c110,0 200,90 200,200z"/>
</svg>