<?xml version="1.0" encoding="UTF-8"?>
<!DOCTYPE svg PUBLIC "-//W3C//DTD SVG 1.1//EN" "http://www.w3.org/Graphics/SVG/1.1/DTD/svg11.dtd">
<svg xmlns="http://www.w3.org/2000/svg" xml:space="preserve" width="580px" height="580px" shape-rendering="geometricPrecision" text-rendering="geometricPrecision" image-rendering="optimizeQuality" fill-rule="nonzero" clip-rule="nonzero" viewBox="0 0 5800 5800" xmlns:xlink="http://www.w3.org/1999/xlink">
	<title>plug_usb icon</title>
	<desc>plug_usb icon from the IconExperience.com I-Collection. Copyright by INCORS GmbH (www.incors.com).</desc>
		<path id="curve28"  d="M4700 3000c0,167 0,333 0,500 -133,0 -267,0 -400,0 0,-167 0,-333 0,-500 133,0 267,0 400,0zm-854 -1100l1254 0c110,0 200,90 200,200l0 1600c0,110 -90,200 -200,200l-1254 0c-71,122 -202,200 -346,200l-1500 0c-164,0 -311,-59 -425,-177l-585 -605c-58,-60 -90,-134 -90,-218l0 -100 -600 0 0 -200 600 0 0 -100c0,-84 32,-158 90,-218l585 -605c114,-118 261,-177 425,-177l1500 0c143,0 275,77 346,200zm1254 200l-1200 0 0 1600 1200 0 0 -1600zm-3100 -200c-111,0 -204,36 -282,116l-585 605c-22,23 -33,47 -33,79l0 400c0,32 11,56 33,79l585 605c78,80 171,116 282,116l1500 0c110,0 200,-90 200,-200l0 -1600c0,-110 -90,-200 -200,-200l-1500 0zm2700 400c0,167 0,333 0,500 -133,0 -267,0 -400,0 0,-167 0,-333 0,-500 133,0 267,0 400,0z"/>
</svg>