<?xml version="1.0" encoding="UTF-8"?>
<!DOCTYPE svg PUBLIC "-//W3C//DTD SVG 1.1//EN" "http://www.w3.org/Graphics/SVG/1.1/DTD/svg11.dtd">
<svg xmlns="http://www.w3.org/2000/svg" xml:space="preserve" width="580px" height="580px" shape-rendering="geometricPrecision" text-rendering="geometricPrecision" image-rendering="optimizeQuality" fill-rule="nonzero" clip-rule="nonzero" viewBox="0 0 5800 5800" xmlns:xlink="http://www.w3.org/1999/xlink">
	<title>plug2 icon</title>
	<desc>plug2 icon from the IconExperience.com I-Collection. Copyright by INCORS GmbH (www.incors.com).</desc>
		<path id="curve28" d="M2500 4400l-626 0c-566,0 -1025,-459 -1025,-1025 0,-566 459,-1025 1025,-1025l285 0c456,0 825,-369 825,-825 0,-456 -369,-825 -825,-825l-1685 0 0 -200 1685 0c566,0 1025,459 1025,1025 0,566 -459,1025 -1025,1025l-285 0c-455,0 -825,369 -825,825 0,456 370,825 825,825l626 0 0 -200 500 0c27,0 52,-11 71,-29 18,-19 29,-44 29,-71l0 -100c0,-275 225,-500 500,-500l900 0c110,0 200,90 200,200l0 200 600 0c55,0 100,45 100,100 0,55 -45,100 -100,100l-600 0 0 800 600 0c55,0 100,45 100,100 0,55 -45,100 -100,100l-600 0 0 200c0,110 -90,200 -200,200l-900 0c-276,0 -500,-225 -500,-500l0 -100c0,-27 -11,-52 -29,-71 -19,-18 -44,-29 -71,-29l-500 0 0 -200zm800 300l0 100c0,165 135,300 300,300l900 0c0,-533 0,-1600 0,-1600l-900 0c-165,0 -300,135 -300,300l0 100c0,83 -34,158 -88,212 -54,54 -129,88 -212,88l-300 0 0 200 300 0c83,0 158,34 212,88 54,54 88,129 88,212z"/>
</svg>