<?xml version="1.0" encoding="UTF-8"?>
<!DOCTYPE svg PUBLIC "-//W3C//DTD SVG 1.1//EN" "http://www.w3.org/Graphics/SVG/1.1/DTD/svg11.dtd">
<svg xmlns="http://www.w3.org/2000/svg" xml:space="preserve" width="580px" height="580px" shape-rendering="geometricPrecision" text-rendering="geometricPrecision" image-rendering="optimizeQuality" fill-rule="nonzero" clip-rule="nonzero" viewBox="0 0 5800 5800" xmlns:xlink="http://www.w3.org/1999/xlink">
	<title>plug_cinch icon</title>
	<desc>plug_cinch icon from the IconExperience.com I-Collection. Copyright by INCORS GmbH (www.incors.com).</desc>
		<path id="curve28" d="M4500 3500l400 0 0 -1200 -400 0 0 1200zm600 -800l300 0c110,0 200,90 200,200 0,110 -90,200 -200,200l-300 0 0 400c0,110 -90,200 -200,200l-454 0c-71,122 -202,200 -346,200l-1600 0c-68,0 -146,-13 -217,-39 -68,-24 -131,-60 -178,-107 -12,-13 -42,-45 -72,-76 -85,-90 -162,-171 -279,-210l-534 -179c-127,-43 -220,-152 -220,-289l-700 0 0 -200 700 0c0,-137 93,-248 221,-289l544 -174c114,-37 195,-123 281,-213 23,-23 46,-49 69,-73 48,-47 109,-85 176,-111 68,-26 141,-40 209,-40l1600 0c143,0 275,77 346,200l454 0c110,0 200,90 200,200l0 400zm-1000 -600l-1600 0c-45,0 -93,9 -138,26 -40,16 -77,39 -105,67 -5,4 -67,68 -67,68 -104,110 -202,214 -364,266l-544 174c-46,15 -82,48 -82,99l0 200c0,51 38,84 83,99l534 180c164,55 257,153 361,263 16,16 32,33 68,70 27,26 63,47 104,62 49,17 102,26 150,26l1600 0c110,0 200,-90 200,-200l0 -1200c0,-110 -90,-200 -200,-200z"/>
</svg>