<?xml version="1.0" encoding="UTF-8"?>
<!DOCTYPE svg PUBLIC "-//W3C//DTD SVG 1.1//EN" "http://www.w3.org/Graphics/SVG/1.1/DTD/svg11.dtd">
<svg xmlns="http://www.w3.org/2000/svg" xml:space="preserve" width="580px" height="580px" shape-rendering="geometricPrecision" text-rendering="geometricPrecision" image-rendering="optimizeQuality" fill-rule="nonzero" clip-rule="nonzero" viewBox="0 0 5800 5800" xmlns:xlink="http://www.w3.org/1999/xlink">
	<title>plug_lan icon</title>
	<desc>plug_lan icon from the IconExperience.com I-Collection. Copyright by INCORS GmbH (www.incors.com).</desc>
		<path id="curve28"  d="M700 3000l-600 0 0 -200 600 0 0 -100c0,-140 94,-269 235,-292l444 -75c61,-10 126,-134 187,-249 48,-90 93,-176 149,-233 97,-96 250,-151 385,-151l1600 0c143,0 275,77 346,200l1254 0 0 2000 -1254 0c-71,122 -203,200 -346,200l-1600 0c-135,0 -288,-55 -385,-151 -56,-57 -101,-143 -149,-233 -61,-115 -126,-239 -187,-249l-444 -75c-141,-23 -235,-152 -235,-292l0 -100zm3400 -900l0 374 -1000 300 0 252 1000 300 0 374 1000 0 0 -200 -600 0 0 -200 600 0 0 -300 -600 0 0 -200 600 0 0 -300 -600 0 0 -200 600 0 0 -200 -1000 0z"/>
</svg>