<?xml version="1.0" encoding="UTF-8"?>
<!DOCTYPE svg PUBLIC "-//W3C//DTD SVG 1.1//EN" "http://www.w3.org/Graphics/SVG/1.1/DTD/svg11.dtd">
<svg xmlns="http://www.w3.org/2000/svg" xml:space="preserve" width="580px" height="580px" shape-rendering="geometricPrecision" text-rendering="geometricPrecision" image-rendering="optimizeQuality" fill-rule="nonzero" clip-rule="nonzero" viewBox="0 0 5800 5800" xmlns:xlink="http://www.w3.org/1999/xlink">
	<title>podium2 icon</title>
	<desc>podium2 icon from the IconExperience.com I-Collection. Copyright by INCORS GmbH (www.incors.com).</desc>
	<path id="curve0"  d="M2700 2600l400 0 0 1300 -200 0 0 -1100 -200 0 0 -200zm-400 -500l0 -67 500 -200 0 -439c-399,-50 -700,-391 -700,-794l0 -500 1600 0 0 500c0,403 -301,744 -700,794l0 439 500 200 0 67 -1200 0zm1200 -1500l0 -300 -1200 0 0 300c0,331 269,600 600,600 331,0 600,-269 600,-600zm-1700 2900l0 -1200 2200 0 0 1200 1600 0 0 2000 -5400 0 0 -2000 1600 0zm-1400 200l0 1600 5000 0 0 -1600 -1600 0 0 -1200 -1800 0 0 1200 -1600 0zm300 450c0,-193 157,-350 350,-350l333 0c193,0 350,158 350,350 0,156 -100,290 -249,335l-477 143c-66,20 -107,76 -107,144l0 28 817 0 0 200 -1017 0 0 -228c0,-156 100,-290 250,-335l477 -143c65,-20 106,-76 106,-144 0,-83 -67,-150 -150,-150l-333 0c-83,0 -150,67 -150,150l-200 0zm3367 0c0,-192 157,-350 350,-350l333 0c193,0 350,157 350,350 0,95 -38,183 -106,250 68,67 106,154 106,250 0,193 -157,350 -350,350l-333 0c-193,0 -350,-157 -350,-350l200 0c0,83 67,150 150,150l333 0c83,0 150,-68 150,-150 0,-83 -67,-150 -150,-150l-167 0 0 -200 167 0c83,0 150,-67 150,-150 0,-83 -67,-150 -150,-150l-333 0c-83,0 -150,67 -150,150l-200 0z"/>
</svg>