<?xml version="1.0" encoding="UTF-8"?>
<!DOCTYPE svg PUBLIC "-//W3C//DTD SVG 1.1//EN" "http://www.w3.org/Graphics/SVG/1.1/DTD/svg11.dtd">
<svg xmlns="http://www.w3.org/2000/svg" xml:space="preserve" width="580px" height="580px" shape-rendering="geometricPrecision" text-rendering="geometricPrecision" image-rendering="optimizeQuality" fill-rule="nonzero" clip-rule="nonzero" viewBox="0 0 5800 5800" xmlns:xlink="http://www.w3.org/1999/xlink">
	<title>podium2 icon</title>
	<desc>podium2 icon from the IconExperience.com I-Collection. Copyright by INCORS GmbH (www.incors.com).</desc>
	<path id="curve0"  d="M1800 3500l0 -1200 2200 0 0 1200 1500 0 100 0 0 100 0 1800 0 100 -100 0 -5300 0 0 -2000 1600 0zm900 -900l0 200 200 0 0 1100 200 0 0 -1300 -400 0zm2400 2050c0,-96 -38,-183 -106,-250 68,-67 106,-155 106,-250 0,-193 -157,-350 -350,-350l-333 0c-193,0 -350,158 -350,350l200 0c0,-83 67,-150 150,-150l333 0c83,0 150,67 150,150 0,83 -67,150 -150,150l-167 0 0 200 167 0c83,0 150,67 150,150 0,83 -67,150 -150,150l-333 0c-83,0 -150,-67 -150,-150l-200 0c0,193 157,350 350,350l333 0c193,0 350,-157 350,-350zm-4400 -500l200 0c0,-83 67,-150 150,-150l333 0c83,0 150,67 150,150 0,68 -41,124 -106,144l-477 143c-150,45 -250,179 -250,335l0 228 1017 0 0 -200 -817 0 0 -28c0,-68 41,-124 107,-144l477 -143c149,-45 249,-179 249,-335 0,-192 -157,-350 -350,-350l-333 0c-193,0 -350,157 -350,350zm1600 -2050l0 -67 500 -200 0 -439c-399,-50 -700,-391 -700,-794l0 -500 1600 0 0 500c0,403 -301,744 -700,794l0 439 500 200 0 67 -1200 0z"/>
</svg>