<?xml version="1.0" encoding="UTF-8"?>
<!DOCTYPE svg PUBLIC "-//W3C//DTD SVG 1.1//EN" "http://www.w3.org/Graphics/SVG/1.1/DTD/svg11.dtd">
<svg xmlns="http://www.w3.org/2000/svg" xml:space="preserve" width="580px" height="580px" shape-rendering="geometricPrecision" text-rendering="geometricPrecision" image-rendering="optimizeQuality" fill-rule="nonzero" clip-rule="nonzero" viewBox="0 0 5800 5800" xmlns:xlink="http://www.w3.org/1999/xlink">
	<title>poison icon</title>
	<desc>poison icon from the IconExperience.com I-Collection. Copyright by INCORS GmbH (www.incors.com).</desc>
	<path id="curve0"  d="M2358 600l-80 -400 1244 0 -80 400 -1084 0zm1144 100c137,1 248,113 248,250l0 300c0,138 -112,250 -250,250l0 100c0,55 44,100 99,100l573 4c310,2 528,301 528,595l0 2601c0,331 -269,600 -600,600l-2400 0c-331,0 -600,-269 -600,-600l0 -2601c0,-294 217,-593 528,-595l573 -4c55,0 99,-45 99,-100l0 -100c-138,0 -250,-112 -250,-250l0 -300c0,-137 112,-249 248,-250l1204 0zm-558 2784l112 211c17,34 -7,73 -45,73l-222 0c-38,0 -62,-39 -45,-73l112 -211c18,-36 70,-36 88,0zm306 -535c138,0 250,112 250,250 0,137 -112,250 -250,250 -138,0 -250,-112 -250,-250 0,-138 112,-250 250,-250zm-700 0c138,0 250,112 250,250 0,138 -112,250 -250,250 -138,0 -250,-113 -250,-250 0,-138 112,-250 250,-250zm350 1351c139,0 244,-19 309,-75 36,-31 62,-77 78,-140 -107,40 -248,60 -387,60 -139,0 -280,-20 -387,-60 16,63 42,109 78,140 65,56 170,75 309,75zm407 -457c-2,-191 4,-290 237,-321 18,-2 33,-8 45,-17 10,-9 18,-21 23,-35 7,-24 2,-68 -3,-112 -7,-59 -14,-118 0,-181 23,-94 41,-195 41,-287 1,-85 -15,-165 -57,-230 -139,-208 -462,-260 -693,-260 -231,0 -554,52 -693,260 -42,65 -58,145 -57,230 0,92 18,193 41,287 14,63 7,122 0,181 -5,44 -10,88 -3,112 5,14 13,26 23,35 12,9 27,15 45,17 233,31 239,130 237,321 10,15 32,30 64,44 85,39 213,58 343,58 130,0 258,-19 343,-58 32,-14 54,-29 64,-44zm-407 657c415,0 607,-177 607,-600 0,-32 -1,-4 -1,-41 -1,-86 -1,-131 63,-139 55,-7 105,-28 145,-60 40,-33 70,-76 88,-130 21,-66 13,-130 5,-195 -5,-42 -10,-84 -3,-112 25,-106 45,-220 46,-333 0,-121 -24,-239 -91,-340 -181,-271 -553,-350 -859,-350 -306,0 -678,79 -859,350 -67,101 -91,219 -91,340 1,113 21,227 46,333 7,28 2,70 -3,112 -8,65 -16,129 5,195 18,54 48,97 88,130 40,32 90,53 145,60 64,8 64,53 63,139 0,37 -1,9 -1,41 0,423 192,600 607,600zm706 -562c-2,82 -12,157 -29,223l462 -168c38,-14 78,-4 106,25 41,43 104,58 160,38 78,-29 118,-115 90,-193 -7,-20 -18,-37 -32,-52 -20,-21 -29,-46 -28,-75 2,-20 -1,-41 -8,-61 -29,-77 -115,-117 -193,-89 -56,20 -94,72 -98,131 -3,41 -28,74 -66,88l-364 133zm-147 460c-52,61 -118,108 -198,141l509 185c38,14 63,47 66,88 4,59 42,111 98,132 78,28 164,-12 193,-90 7,-20 10,-41 8,-61 -1,-28 8,-54 28,-75 14,-14 25,-32 32,-52 28,-78 -12,-164 -90,-192 -56,-21 -119,-6 -160,37 -28,30 -68,39 -106,25l-380 -138zm-920 141c-80,-33 -146,-80 -198,-141l-380 138c-38,14 -78,5 -106,-25 -41,-43 -104,-58 -160,-37 -78,28 -118,114 -90,192 7,20 18,38 32,52 20,21 29,47 28,75 -2,20 1,41 8,61 29,78 115,118 193,90 56,-21 94,-73 98,-132 3,-41 28,-74 66,-88l509 -185zm-316 -378c-17,-66 -27,-141 -29,-223l-364 -133c-38,-14 -63,-47 -66,-88 -4,-59 -42,-111 -98,-131 -78,-28 -164,12 -193,89 -7,20 -10,41 -8,61 1,29 -8,54 -28,75 -14,15 -25,32 -32,52 -28,78 12,164 90,193 56,20 119,5 160,-38 28,-29 68,-39 106,-25l462 168z"/>
</svg>