<?xml version="1.0" encoding="UTF-8"?>
<!DOCTYPE svg PUBLIC "-//W3C//DTD SVG 1.1//EN" "http://www.w3.org/Graphics/SVG/1.1/DTD/svg11.dtd">
<svg xmlns="http://www.w3.org/2000/svg" xml:space="preserve" width="580px" height="580px" shape-rendering="geometricPrecision" text-rendering="geometricPrecision" image-rendering="optimizeQuality" fill-rule="nonzero" clip-rule="nonzero" viewBox="0 0 5800 5800" xmlns:xlink="http://www.w3.org/1999/xlink">
	<title>poison icon</title>
	<desc>poison icon from the IconExperience.com I-Collection. Copyright by INCORS GmbH (www.incors.com).</desc>
	<path id="curve0"  d="M2944 3484l112 211c17,34 -7,73 -45,73l-222 0c-38,0 -62,-39 -45,-73l112 -211c18,-36 70,-36 88,0zm-1278 102c39,14 68,43 84,77 8,17 13,36 14,54 3,41 28,74 66,88l364 133c2,82 12,157 29,223l-462 -168c-38,-14 -78,-4 -106,25 -13,14 -29,25 -46,33 -34,16 -75,19 -114,5 -39,-15 -69,-43 -85,-78 -16,-35 -19,-76 -5,-115 7,-20 18,-37 32,-52 20,-21 29,-46 28,-75 -2,-20 1,-41 8,-61 15,-38 43,-68 78,-84 35,-16 76,-19 115,-5zm1940 352l364 -133c38,-14 63,-47 66,-88 1,-18 6,-37 14,-54 16,-34 45,-63 84,-77 39,-14 80,-11 115,5 35,16 63,46 78,84 7,20 10,41 8,61 -1,29 8,54 28,75 14,15 25,32 32,52 14,39 11,80 -5,115 -16,35 -46,63 -85,78 -39,14 -80,11 -114,-5 -17,-8 -33,-19 -46,-33 -28,-29 -68,-39 -106,-25l-462 168c17,-66 27,-141 29,-223zm-147 460l380 138c38,14 78,5 106,-25 13,-13 29,-24 46,-32 34,-16 75,-19 114,-5 39,14 69,43 85,77 16,35 19,76 5,115 -7,20 -18,38 -32,52 -20,21 -29,47 -28,75 2,20 -1,41 -8,61 -15,39 -43,68 -78,85 -35,16 -76,19 -115,5 -39,-15 -68,-43 -84,-78 -8,-17 -13,-35 -14,-54 -3,-41 -28,-74 -66,-88l-509 -185c80,-33 146,-80 198,-141zm-920 141l-509 185c-38,14 -63,47 -66,88 -1,19 -6,37 -14,54 -16,35 -45,63 -84,78 -39,14 -80,11 -115,-5 -35,-17 -63,-46 -78,-85 -7,-20 -10,-41 -8,-61 1,-28 -8,-54 -28,-75 -14,-14 -25,-32 -32,-52 -14,-39 -11,-80 5,-115 16,-34 46,-63 85,-77 39,-14 80,-11 114,5 17,8 33,19 46,32 28,30 68,39 106,25l380 -138c52,61 118,108 198,141zm983 -4339l-100 500 78 0c138,0 250,112 250,250l0 300c0,138 -112,250 -250,250l0 100c0,55 44,100 99,100l573 4c150,1 280,72 374,181 96,110 154,261 154,414l0 2601c0,331 -269,600 -600,600l-2400 0c-331,0 -600,-269 -600,-600l0 -2601c0,-153 58,-304 154,-414 94,-109 224,-180 374,-181l573 -4c55,0 99,-45 99,-100l0 -100c-69,0 -131,-28 -177,-73 -45,-46 -73,-108 -73,-177l0 -300c0,-137 113,-250 250,-250l78 0 -100 -500 1244 0zm-244 200l-756 0 60 300 636 0 60 -300zm-978 900l1200 0c27,0 50,-23 50,-50l0 -300c0,-27 -23,-50 -50,-50 -400,0 -800,0 -1200,0 -28,0 -50,22 -50,50l0 300c0,27 23,50 50,50zm-600 4000l2400 0c220,0 400,-180 400,-400l0 -2601c0,-106 -39,-208 -104,-284 -59,-67 -137,-111 -225,-112l-573 -3c-164,-1 -298,-135 -298,-300l0 -100 -800 0 0 100c0,165 -134,299 -298,300l-573 3c-88,1 -166,45 -225,112 -65,76 -104,178 -104,284l0 2601c0,220 180,400 400,400zm1200 -1000c139,0 244,-19 309,-75 36,-31 62,-77 78,-140 -107,40 -248,60 -387,60 -139,0 -280,-20 -387,-60 16,63 42,109 78,140 65,56 170,75 309,75zm407 -457c-2,-191 4,-290 237,-321 18,-2 33,-8 45,-17 10,-9 18,-21 23,-35 7,-24 2,-68 -3,-112 -7,-59 -14,-118 0,-181 37,-155 78,-375 -16,-517 -139,-208 -462,-260 -693,-260 -231,0 -554,52 -693,260 -94,142 -53,362 -16,517 14,63 7,122 0,181 -5,44 -10,88 -3,112 5,14 13,26 23,35 12,9 27,15 45,17 233,31 239,130 237,321 10,15 32,30 64,44 85,39 213,58 343,58 130,0 258,-19 343,-58 32,-14 54,-29 64,-44zm33 532c-107,94 -255,125 -440,125 -185,0 -333,-31 -440,-125 -109,-94 -167,-243 -167,-475 0,-32 1,-4 1,-41 1,-86 1,-131 -63,-139 -55,-7 -105,-28 -145,-60 -40,-33 -70,-76 -88,-130 -21,-66 -13,-130 -5,-195 5,-42 10,-84 3,-112 -51,-218 -86,-476 45,-673 181,-271 553,-350 859,-350 306,0 678,79 859,350 131,197 96,455 45,673 -7,28 -2,70 3,112 8,65 16,129 -5,195 -18,54 -48,97 -88,130 -40,32 -90,53 -145,60 -64,8 -64,53 -63,139 0,37 1,9 1,41 0,232 -58,381 -167,475zm-790 -1426c138,0 250,112 250,250 0,138 -112,250 -250,250 -138,0 -250,-113 -250,-250 0,-138 112,-250 250,-250zm700 0c138,0 250,112 250,250 0,137 -112,250 -250,250 -138,0 -250,-112 -250,-250 0,-138 112,-250 250,-250z"/>
</svg>