<?xml version="1.0" encoding="UTF-8"?>
<!DOCTYPE svg PUBLIC "-//W3C//DTD SVG 1.1//EN" "http://www.w3.org/Graphics/SVG/1.1/DTD/svg11.dtd">
<svg xmlns="http://www.w3.org/2000/svg" xml:space="preserve" width="580px" height="580px" shape-rendering="geometricPrecision" text-rendering="geometricPrecision" image-rendering="optimizeQuality" fill-rule="nonzero" clip-rule="nonzero" viewBox="0 0 5800 5800" xmlns:xlink="http://www.w3.org/1999/xlink">
	<title>policeman icon</title>
	<desc>policeman icon from the IconExperience.com I-Collection. Copyright by INCORS GmbH (www.incors.com).</desc>
	<path id="curve0"  d="M3989 1664c9,-18 10,-25 25,-39 36,-36 72,-74 103,-111 -264,-307 -834,-393 -1217,-393 -390,0 -942,84 -1216,392 36,43 73,83 113,122 5,10 9,20 14,29 7,-4 14,-9 20,-15 257,-266 717,-328 1069,-328 352,0 812,62 1069,327 6,7 13,12 20,16zm-389 2886l0 279c0,179 95,328 253,410l46 23 46 -23c158,-82 253,-231 253,-410l0 -279c-200,0 -399,0 -598,0zm-900 -3950l0 164c0,109 59,201 154,250l46 24 46 -24c95,-49 154,-141 154,-250l0 -164c-133,0 -267,0 -400,0zm1221 1530c13,-52 24,-103 32,-152 -71,32 -133,32 -191,32 -154,0 -299,-27 -445,-55 -137,-26 -275,-52 -417,-52 -142,0 -280,26 -417,52 -146,28 -291,55 -445,55 -47,0 -104,0 -171,-25 10,49 20,98 32,145 5,19 3,39 -3,56 -37,134 6,311 139,377 27,13 45,37 52,63 46,175 95,411 225,539 20,20 30,46 30,71 0,98 15,196 15,295 105,182 354,250 552,250 196,0 448,-68 554,-249 0,-97 18,-198 16,-293 -1,-29 10,-55 29,-74 115,-113 161,-294 205,-463 9,-35 18,-69 20,-76 8,-30 29,-53 56,-65 132,-68 173,-245 133,-379 -5,-18 -5,-35 -1,-52zm-921 3201l0 -1248 283 351 481 -464c-55,-24 -132,-63 -181,-103l-282 272 -149 -185c-160,36 -334,35 -493,-3l-143 187 -285 -266c-50,39 -128,78 -184,102l494 460 259 -339 0 1236c67,1 133,1 200,0zm-1527 -3769c-43,-63 -73,-130 -73,-190l0 -43c104,-100 181,-192 246,-322 78,-154 98,-279 120,-444 418,49 766,-24 1064,-341l72 -78 73 78c298,318 648,389 1064,341 39,299 110,517 330,732l30 29 1 48c0,71 -35,143 -86,215 -39,53 -88,106 -138,157 -2,126 -21,262 -55,409 49,208 -21,447 -206,565 -4,15 -6,25 -9,34 -47,182 -97,376 -228,524 -3,119 -52,386 42,445 79,42 130,67 213,100 211,71 595,170 745,316 219,213 332,539 332,836 0,143 -180,251 -439,331 -71,29 -149,54 -233,76 -444,116 -1064,152 -1428,152 -364,0 -984,-36 -1428,-152 -84,-22 -162,-47 -233,-76 -259,-80 -439,-188 -439,-331 0,-297 113,-623 332,-836 127,-124 474,-234 657,-289 121,-36 187,-62 298,-126 96,-55 51,-326 46,-445 -138,-156 -186,-363 -238,-559 -184,-117 -255,-358 -206,-565 -18,-77 -34,-157 -45,-237 -8,-52 -13,-104 -17,-156l-3 -5c-43,-44 -111,-118 -161,-193z"/>
</svg>