<?xml version="1.0" encoding="UTF-8"?>
<!DOCTYPE svg PUBLIC "-//W3C//DTD SVG 1.1//EN" "http://www.w3.org/Graphics/SVG/1.1/DTD/svg11.dtd">
<svg xmlns="http://www.w3.org/2000/svg" xml:space="preserve" width="580px" height="580px" shape-rendering="geometricPrecision" text-rendering="geometricPrecision" image-rendering="optimizeQuality" fill-rule="nonzero" clip-rule="nonzero" viewBox="0 0 5800 5800" xmlns:xlink="http://www.w3.org/1999/xlink">
	<title>police_car icon</title>
	<desc>police_car icon from the IconExperience.com I-Collection. Copyright by INCORS GmbH (www.incors.com).</desc>
	<path id="curve0"  d="M5300 4986l0 314c0,110 -90,200 -200,200l-800 0c-110,0 -200,-90 -200,-200l0 -166 268 -134 832 0c32,0 69,-5 100,-14zm-2000 -3686l-800 0 0 200 800 0 0 -200zm-1628 -200c819,0 1637,0 2456,0 132,0 247,84 286,211l41 129c19,62 8,126 -30,178 -38,52 -97,82 -161,82l-44 0c9,4 17,7 25,11 119,59 290,258 439,493 130,203 247,438 303,635l0 0c150,106 276,236 365,378 94,151 148,316 148,483 0,203 0,456 -26,662 -31,250 -107,438 -274,438l-877 0 -378 189c-15,7 -30,11 -45,11l-2000 0c-19,0 -38,-6 -53,-15l-370 -185 -877 0c-167,0 -243,-188 -274,-438 -26,-206 -26,-459 -26,-662 0,-167 54,-332 148,-483 89,-142 215,-272 365,-378 56,-197 173,-432 303,-635 149,-235 320,-434 439,-493 8,-4 16,-7 25,-11l-44 0c-64,0 -123,-30 -161,-82 -38,-52 -49,-116 -30,-178l41 -129c39,-127 154,-211 286,-211zm3078 1661c-57,-146 -142,-306 -234,-450 -132,-208 -273,-378 -361,-422 -85,-42 -321,-65 -572,-77 -442,-21 -924,-21 -1366,0 -251,12 -487,34 -572,77 -88,44 -229,214 -361,422 -92,144 -177,303 -234,450 405,-76 1166,-113 1914,-110 705,2 1402,38 1786,110zm-3050 2373l0 166c0,110 -90,200 -200,200l-800 0c-110,0 -200,-90 -200,-200l0 -314c32,8 67,14 100,14l832 0 268 134zm3592 -1534l-405 0c-123,0 -228,50 -307,144l-380 456 1089 0c11,-160 29,-443 3,-600zm-4783 0c-27,157 -9,440 2,600l1089 0 -380 -456c-79,-94 -184,-144 -307,-144l-404 0zm1504 200c-84,0 -131,99 -76,164l363 436 1200 0 363 -436c55,-65 8,-164 -76,-164l-1774 0z"/>
</svg>