<?xml version="1.0" encoding="UTF-8"?>
<!DOCTYPE svg PUBLIC "-//W3C//DTD SVG 1.1//EN" "http://www.w3.org/Graphics/SVG/1.1/DTD/svg11.dtd">
<svg xmlns="http://www.w3.org/2000/svg" xml:space="preserve" width="580px" height="580px" shape-rendering="geometricPrecision" text-rendering="geometricPrecision" image-rendering="optimizeQuality" fill-rule="nonzero" clip-rule="nonzero" viewBox="0 0 5800 5800" xmlns:xlink="http://www.w3.org/1999/xlink">
	<title>policeman_bobby icon</title>
	<desc>policeman_bobby icon from the IconExperience.com I-Collection. Copyright by INCORS GmbH (www.incors.com).</desc>
	<path id="curve0" d="M2900 700l-90 153 -167 -59 29 174 -166 63 135 115 -87 154 177 2 32 174 137 -113 137 113 32 -174 177 -2 -87 -154 135 -115 -166 -63 29 -174 -167 59 -90 -153zm591 3119c-109,86 -239,148 -351,232l117 156 299 -302c-26,-26 -48,-55 -65,-86zm235 198l-490 495 -169 -226c-31,28 -62,55 -80,74 152,304 171,676 173,938 264,-5 594,-19 885,-57 358,-48 655,-122 655,-241 0,-118 -23,-241 -67,-356 -42,-106 -102,-204 -180,-281 -84,-83 -265,-154 -442,-224 -100,-40 -199,-80 -285,-122zm-1086 1281c2,-262 21,-634 173,-938l-77 -78 -172 230 -490 -495c-86,42 -185,82 -285,122 -177,70 -358,141 -442,224 -78,77 -138,175 -179,281 -45,114 -68,238 -68,356 0,119 297,193 655,241 291,38 621,52 885,57zm-397 -1394l300 303 117 -155c-113,-84 -243,-147 -352,-232 -18,30 -39,59 -65,84zm1180 -305c-6,-55 -8,-109 -10,-163 0,-28 11,-54 29,-72 48,-48 96,-138 141,-239 68,-155 123,-333 152,-442 7,-29 27,-52 52,-64 126,-65 129,-281 74,-392 -4,-9 -7,-18 -8,-27 -244,14 -699,53 -898,184l-55 35 -55 -35c-199,-131 -653,-170 -897,-184 -2,12 -7,24 -13,34 -50,111 -45,323 79,385 26,14 44,37 51,64 29,110 85,288 153,442 45,102 93,192 140,239 19,19 29,45 29,70 5,0 -8,156 -10,170 8,37 99,94 207,160 105,64 221,136 315,231 94,-96 210,-167 315,-231 113,-69 208,-128 209,-165zm243 -3054c130,136 218,323 278,523 71,236 104,495 112,698 65,65 142,162 196,230l156 194c-115,0 -230,-1 -346,2 69,192 32,458 -145,581 -33,116 -86,283 -152,432 -45,103 -96,198 -151,266 2,65 7,130 24,187 16,55 45,103 96,134 3,2 5,3 8,4 84,54 212,105 343,157 195,77 395,156 508,269 99,97 174,219 225,350 54,138 82,286 82,428 0,253 -376,378 -830,438 -413,55 -892,62 -1170,62 -278,0 -757,-7 -1170,-62 -454,-60 -830,-185 -830,-438 0,-141 28,-290 82,-429 51,-130 126,-252 225,-350 113,-112 313,-191 508,-268 131,-52 259,-103 343,-157l4 -1c52,-31 82,-81 100,-139 17,-56 23,-121 25,-185 -55,-67 -107,-163 -152,-266 -65,-148 -119,-315 -152,-432 -177,-123 -214,-389 -145,-581 -116,-3 -231,-2 -346,-2l130 -163 26 -31c54,-68 131,-165 196,-230 8,-203 41,-462 112,-698 60,-200 148,-387 278,-523 117,-123 334,-352 745,-443l21 -4 21 4c411,91 628,320 745,443z"/>
</svg>