<?xml version="1.0" encoding="UTF-8"?>
<!DOCTYPE svg PUBLIC "-//W3C//DTD SVG 1.1//EN" "http://www.w3.org/Graphics/SVG/1.1/DTD/svg11.dtd">
<svg xmlns="http://www.w3.org/2000/svg" xml:space="preserve" width="580px" height="580px" shape-rendering="geometricPrecision" text-rendering="geometricPrecision" image-rendering="optimizeQuality" fill-rule="nonzero" clip-rule="nonzero" viewBox="0 0 5800 5800" xmlns:xlink="http://www.w3.org/1999/xlink">
	<title>police_car icon</title>
	<desc>police_car icon from the IconExperience.com I-Collection. Copyright by INCORS GmbH (www.incors.com).</desc>
	<path id="curve0"  d="M4123 4136l381 -456c97,-116 231,-180 383,-180l380 0c-69,-209 -232,-388 -412,-510 -300,-93 -1126,-140 -1955,-140 -829,0 -1655,47 -1955,140 -136,93 -249,207 -327,332 -36,58 -65,117 -85,178l380 0c152,0 286,64 384,180l380 456c54,66 6,164 -77,164l-1080 0c1,13 3,25 4,38 19,150 43,262 76,262l900 0c15,0 30,4 45,11l378 189 1954 0 370 -185c15,-9 34,-15 53,-15l900 0c33,0 57,-112 76,-262 1,-13 3,-25 4,-38l-1080 0c-22,0 -45,-8 -64,-23 -42,-36 -48,-98 -13,-141zm-2451 -3036c819,0 1637,0 2456,0 132,0 247,84 286,211l41 129c9,31 11,62 6,93 -5,30 -17,59 -36,85 -38,52 -97,82 -161,82l-44 0c9,4 17,7 25,11 119,59 290,258 439,493 130,203 247,438 303,635 278,195 513,508 513,861 0,203 0,456 -26,662 -31,250 -107,438 -274,438l-877 0 -378 189c-15,7 -30,11 -45,11l-2000 0c-19,0 -38,-6 -53,-15l-370 -185 -877 0c-167,0 -243,-188 -274,-438 -26,-206 -26,-459 -26,-662 0,-167 54,-332 148,-483 89,-142 215,-272 365,-378 56,-197 173,-432 303,-635 93,-147 298,-438 464,-504l-44 0c-98,0 -181,-71 -197,-167 -5,-31 -3,-62 6,-93l41 -129c39,-127 154,-211 286,-211zm1628 200l-800 0 0 200 800 0 0 -200zm-1600 3834l0 166c0,110 -90,200 -200,200l-800 0c-110,0 -200,-90 -200,-200l0 -314c33,8 66,14 100,14l100 0 0 300 800 0 0 -266 200 100zm3600 -148l0 314c0,110 -90,200 -200,200l-800 0c-110,0 -200,-90 -200,-200l0 -166 200 -100 0 266 800 0c0,0 0,0 0,0l0 0 0 0c0,0 0,0 0,0l0 -300 100 0c32,0 69,-5 100,-14zm-200 314l0 0 0 0 0 0 0 0zm-1517 -3488c-254,-12 -532,-12 -683,-12 -151,0 -429,0 -683,12 -251,12 -487,34 -572,77 -88,44 -229,214 -361,422 -92,144 -177,304 -234,450 396,-74 1124,-111 1850,-111 726,0 1454,37 1850,111 -57,-146 -142,-306 -234,-450 -132,-208 -273,-378 -361,-422 -85,-42 -321,-65 -572,-77zm-3083 1888c0,122 0,264 6,400l881 0 -244 -292c-60,-72 -137,-108 -230,-108l-413 0zm4794 400c6,-136 6,-278 6,-400l-413 0c-93,0 -170,36 -230,108l-244 292 881 0zm-3281 -400l1774 0c170,0 260,199 153,328l-363 436c-20,23 -48,36 -77,36l-1200 0c-34,0 -64,-17 -82,-43l-358 -429c-25,-30 -40,-66 -45,-103 -10,-75 27,-153 91,-194 32,-20 68,-31 107,-31zm0 200l333 400 1108 0 333 -400c0,0 -1775,-1 -1774,0z"/>
</svg>