<?xml version="1.0" encoding="UTF-8"?>
<!DOCTYPE svg PUBLIC "-//W3C//DTD SVG 1.1//EN" "http://www.w3.org/Graphics/SVG/1.1/DTD/svg11.dtd">
<svg xmlns="http://www.w3.org/2000/svg" xml:space="preserve" width="580px" height="580px" shape-rendering="geometricPrecision" text-rendering="geometricPrecision" image-rendering="optimizeQuality" fill-rule="nonzero" clip-rule="nonzero" viewBox="0 0 5800 5800" xmlns:xlink="http://www.w3.org/1999/xlink">
	<title>policeman_bobby icon</title>
	<desc>policeman_bobby icon from the IconExperience.com I-Collection. Copyright by INCORS GmbH (www.incors.com).</desc>
	<path id="curve0"  d="M2900 700l-90 153 -167 -59 29 174 -166 63 135 115 -87 154 177 2 32 174 137 -113 137 113 32 -174 177 -2 -87 -154 135 -115 -166 -63 29 -174 -167 59 -90 -153zm591 3119c-109,86 -239,148 -351,232l117 156 299 -302c-26,-26 -48,-55 -65,-86zm235 198l-490 495 -169 -226c-31,28 -62,55 -80,74 152,304 171,676 173,938 264,-5 594,-19 885,-57 358,-48 655,-122 655,-241 0,-118 -23,-241 -67,-356 -42,-106 -102,-204 -180,-281 -84,-83 -265,-154 -442,-224 -100,-40 -199,-80 -285,-122zm-1086 1281c2,-262 21,-634 173,-938l-77 -78 -172 230 -490 -495c-86,42 -185,82 -285,122 -177,70 -358,141 -442,224 -78,77 -138,175 -179,281 -45,114 -68,238 -68,356 0,119 297,193 655,241 291,38 621,52 885,57zm-397 -1394l300 303 117 -155c-113,-84 -243,-147 -352,-232 -18,30 -39,59 -65,84zm1423 -3359c130,136 218,323 278,523 71,236 104,495 112,698 122,120 243,288 352,424 -115,0 -230,-1 -346,2 -184,4 -434,18 -661,54 -182,30 -348,73 -446,138l-55 35 -55 -35c-98,-65 -264,-108 -446,-138 -227,-36 -477,-50 -661,-54 -116,-3 -231,-2 -346,-2 106,-132 236,-309 352,-424 8,-203 41,-462 112,-698 60,-200 148,-387 278,-523 117,-123 334,-352 745,-443l21 -4 21 4c411,91 628,320 745,443zm429 1846c-2,148 -57,298 -178,382 -33,116 -86,283 -152,432 -45,103 -96,198 -151,266 2,65 7,130 24,187 19,65 47,102 104,138 84,54 212,105 343,157 195,77 395,156 508,269 99,97 174,219 225,350 54,138 82,286 82,428 0,253 -376,378 -830,438 -413,55 -892,62 -1170,62 -278,0 -757,-7 -1170,-62 -454,-60 -830,-185 -830,-438 0,-141 28,-290 82,-429 51,-130 126,-252 225,-350 113,-112 313,-191 508,-268 131,-52 259,-103 343,-157 55,-30 86,-82 104,-140 17,-56 23,-121 25,-185 -55,-67 -107,-163 -152,-266 -65,-148 -119,-315 -152,-432 -121,-84 -176,-234 -178,-382 220,3 447,18 662,53 101,16 282,50 369,107l164 107 164 -107c87,-57 268,-91 369,-107 215,-35 442,-50 662,-53z"/>
</svg>