<?xml version="1.0" encoding="UTF-8"?>
<!DOCTYPE svg PUBLIC "-//W3C//DTD SVG 1.1//EN" "http://www.w3.org/Graphics/SVG/1.1/DTD/svg11.dtd">
<svg xmlns="http://www.w3.org/2000/svg" xml:space="preserve" width="580px" height="580px" shape-rendering="geometricPrecision" text-rendering="geometricPrecision" image-rendering="optimizeQuality" fill-rule="nonzero" clip-rule="nonzero" viewBox="0 0 5800 5800" xmlns:xlink="http://www.w3.org/1999/xlink">
	<title>policeman icon</title>
	<desc>policeman icon from the IconExperience.com I-Collection. Copyright by INCORS GmbH (www.incors.com).</desc>
	<path id="curve0"  d="M3989 1664c28,-55 86,-100 128,-150 -264,-307 -834,-393 -1217,-393 -390,0 -942,84 -1216,392 41,51 98,95 127,151 7,-4 14,-9 20,-15 257,-266 717,-328 1069,-328 352,0 812,62 1069,327 6,7 13,12 20,16zm-389 2886l0 279c0,179 95,328 253,410l46 23 46 -23c158,-82 253,-231 253,-410l0 -279c-200,0 -399,0 -598,0zm-900 -3950l0 164c0,109 59,201 154,250l46 24 46 -24c95,-49 154,-141 154,-250l0 -164c-133,0 -267,0 -400,0zm300 4731l0 -1248 283 351 481 -464c-55,-24 -132,-63 -181,-103l-282 272 -149 -185c-160,36 -334,35 -493,-3l-143 187 -285 -266c-50,39 -128,78 -184,102l494 460 259 -339 0 1236c67,1 133,1 200,0zm-1527 -3769c-43,-63 -73,-130 -73,-190l0 -43c104,-100 181,-192 246,-322 78,-154 98,-279 120,-444 418,49 766,-24 1064,-341l72 -78 73 78c298,318 648,389 1064,341 39,299 110,517 330,732l30 29 1 48c0,71 -35,143 -86,215 -39,53 -88,106 -138,157 0,2 -8,9 -10,11 -63,120 -132,184 -201,218 -76,37 -142,37 -203,37 -154,0 -299,-27 -445,-55 -137,-26 -275,-52 -417,-52 -142,0 -280,26 -417,52 -146,28 -291,55 -445,55 -54,0 -119,0 -197,-37 -95,-45 -158,-127 -207,-218 -43,-44 -111,-118 -161,-193zm2659 543c-4,16 -7,32 -11,48 49,208 -21,447 -206,565 -4,15 -6,25 -9,34 -47,182 -97,376 -228,524 -3,119 -52,386 42,445 79,42 130,67 213,100 211,71 595,170 745,316 219,213 332,539 332,836 0,143 -180,251 -439,331 -71,29 -149,54 -233,76 -444,116 -1064,152 -1428,152 -364,0 -984,-36 -1428,-152 -84,-22 -162,-47 -233,-76 -259,-80 -439,-188 -439,-331 0,-297 113,-623 332,-836 127,-124 474,-234 657,-289 121,-36 187,-62 298,-126 96,-55 51,-326 46,-445 -138,-156 -186,-363 -238,-559 -184,-117 -255,-358 -206,-565 -3,-12 -5,-23 -8,-35 20,13 41,25 64,36 95,45 180,56 283,56 165,0 322,-28 482,-59 125,-23 253,-48 380,-48 127,0 255,25 380,48 160,31 317,59 482,59 107,0 193,-9 291,-58 28,-13 54,-29 79,-47z"/>
</svg>