<?xml version="1.0" encoding="UTF-8"?>
<!DOCTYPE svg PUBLIC "-//W3C//DTD SVG 1.1//EN" "http://www.w3.org/Graphics/SVG/1.1/DTD/svg11.dtd">
<svg xmlns="http://www.w3.org/2000/svg" xml:space="preserve" width="580px" height="580px" shape-rendering="geometricPrecision" text-rendering="geometricPrecision" image-rendering="optimizeQuality" fill-rule="nonzero" clip-rule="nonzero" viewBox="0 0 5800 5800" xmlns:xlink="http://www.w3.org/1999/xlink">
	<title>pontifex icon</title>
	<desc>pontifex icon from the IconExperience.com I-Collection. Copyright by INCORS GmbH (www.incors.com).</desc>
	<path id="curve0" d="M2500 4500l300 0 0 -300 200 0 0 300 300 0 0 200 -300 0 0 400 -200 0 0 -400 -300 0 0 -200zm1641 -733c193,64 386,127 512,249 111,108 196,243 254,389 62,153 93,318 93,475 0,225 -254,370 -605,461 -465,121 -1113,159 -1495,159 -382,0 -1030,-38 -1495,-159 -351,-91 -605,-236 -605,-461 0,-157 31,-322 93,-476 58,-145 143,-280 254,-388 126,-122 319,-186 513,-249 134,-44 269,-89 368,-150 17,-11 35,-20 52,-31 21,-29 20,-45 20,-79 0,-10 0,-21 3,-31 3,-11 7,-20 12,-29 4,-64 -2,-137 -7,-204 -3,-36 -6,-71 -7,-103 -145,-163 -195,-381 -250,-586 -92,-58 -156,-145 -193,-243 -41,-109 -48,-234 -22,-346 -19,-81 -35,-165 -47,-249 -36,-250 -33,-507 48,-721 72,-192 204,-348 421,-435 185,-287 501,-460 842,-460 314,0 607,146 797,396 65,39 124,83 174,133 163,164 272,355 322,583 47,217 39,465 -29,753 27,113 20,237 -22,346 -37,98 -101,185 -193,243 -55,207 -103,421 -249,586 -1,40 -5,81 -8,124 -5,61 -10,125 -8,182 22,34 14,64 16,102 16,46 30,43 69,67 100,62 236,107 372,152zm-1994 -3026c-168,63 -269,180 -324,324 -67,179 -68,402 -37,623 13,86 30,172 50,254 5,19 4,39 -2,56 -22,78 -18,166 11,243 25,67 71,125 136,157 27,14 45,37 52,64l19 72c48,183 99,377 218,495 20,19 30,45 30,71 0,0 6,118 7,128 5,64 10,132 9,198l308 77c31,8 58,31 70,63 11,31 76,222 86,234l240 0c10,-12 73,-198 84,-229 10,-32 36,-59 72,-68l307 -77c0,-59 5,-120 10,-178 4,-55 8,-107 7,-146 0,-28 11,-54 30,-73 121,-119 170,-309 216,-488 9,-36 18,-71 21,-79 8,-30 29,-53 56,-65 63,-33 108,-90 133,-156 29,-78 32,-168 9,-247 -5,-18 -5,-35 -1,-52 66,-267 75,-494 33,-688 -41,-190 -141,-366 -284,-499l-61 -15c-246,-60 -499,-90 -752,-90 -253,0 -506,30 -753,91zm1931 3216c-146,-49 -294,-97 -414,-172 -72,-46 -128,-72 -152,-160l-236 59 -63 174c-30,82 -102,142 -191,142l-244 0c-89,0 -161,-60 -191,-142l-63 -174 -237 -59c-6,20 -14,37 -25,55 -31,51 -78,78 -129,107 -119,73 -266,122 -411,170 -172,56 -343,112 -436,202 -91,88 -160,199 -208,319 -52,129 -78,269 -78,402 0,111 191,200 455,268 780,203 2110,203 2890,0 264,-68 455,-157 455,-268 0,-134 -26,-273 -78,-402 -47,-120 -117,-231 -208,-319 -93,-90 -264,-146 -436,-202zm-1178 -3657c-191,0 -373,67 -518,190 171,-27 345,-40 518,-40 173,0 347,13 518,40 -145,-123 -327,-190 -518,-190z"/>
</svg>