<?xml version="1.0" encoding="UTF-8"?>
<!DOCTYPE svg PUBLIC "-//W3C//DTD SVG 1.1//EN" "http://www.w3.org/Graphics/SVG/1.1/DTD/svg11.dtd">
<svg xmlns="http://www.w3.org/2000/svg" xml:space="preserve" width="580px" height="580px" shape-rendering="geometricPrecision" text-rendering="geometricPrecision" image-rendering="optimizeQuality" fill-rule="nonzero" clip-rule="nonzero" viewBox="0 0 5800 5800" xmlns:xlink="http://www.w3.org/1999/xlink">
	<title>pontifex icon</title>
	<desc>pontifex icon from the IconExperience.com I-Collection. Copyright by INCORS GmbH (www.incors.com).</desc>
	<path id="curve0"  d="M2500 4500l0 200 300 0 0 400 200 0 0 -400 300 0 0 -200 -300 0 0 -300 -200 0 0 300 -300 0zm1641 -733c193,64 386,127 512,249 111,108 196,243 254,389 62,153 93,318 93,475 0,225 -254,370 -605,461 -465,121 -1113,159 -1495,159 -382,0 -1030,-38 -1495,-159 -351,-91 -605,-236 -605,-461 0,-157 31,-322 93,-476 58,-145 143,-280 254,-388 126,-122 319,-186 513,-249 134,-44 269,-89 368,-150 20,-13 47,-21 59,-42l437 109 63 174c30,82 102,142 191,142l244 0c89,0 161,-60 191,-142l63 -174 436 -109c13,19 28,22 57,40 100,62 236,107 372,152zm-2025 -391c-2,-79 -12,-157 -15,-236 -145,-163 -195,-381 -250,-586 -92,-58 -156,-145 -193,-243 -41,-109 -48,-234 -22,-346 -19,-81 -35,-165 -47,-249 -36,-250 -33,-507 48,-721 72,-192 204,-348 421,-435 185,-287 501,-460 842,-460 314,0 607,146 797,396 65,39 124,83 174,133 163,164 272,355 322,583 47,217 39,465 -29,753 27,113 20,237 -22,346 -37,98 -101,185 -193,243 -55,207 -103,421 -249,586 -2,79 -13,157 -16,236l-508 127c-36,9 -62,36 -72,68 -11,31 -74,217 -84,229l-240 0c-10,-12 -75,-203 -86,-234 -12,-32 -39,-55 -70,-63l-508 -127zm784 -3076c-191,0 -373,67 -518,190 171,-27 345,-40 518,-40 173,0 347,13 518,40 -145,-123 -327,-190 -518,-190z"/>
</svg>