<?xml version="1.0" encoding="UTF-8"?>
<!DOCTYPE svg PUBLIC "-//W3C//DTD SVG 1.1//EN" "http://www.w3.org/Graphics/SVG/1.1/DTD/svg11.dtd">
<svg xmlns="http://www.w3.org/2000/svg" xml:space="preserve" width="580px" height="580px" shape-rendering="geometricPrecision" text-rendering="geometricPrecision" image-rendering="optimizeQuality" fill-rule="nonzero" clip-rule="nonzero" viewBox="0 0 5800 5800" xmlns:xlink="http://www.w3.org/1999/xlink">
	<title>pool_balls icon</title>
	<desc>pool_balls icon from the IconExperience.com I-Collection. Copyright by INCORS GmbH (www.incors.com).</desc>
	<path id="curve0" d="M2900 1196c0,-386 316,-696 700,-696 364,0 671,280 698,644 29,-362 335,-639 698,-639 384,0 700,310 700,696 0,385 -316,695 -700,695 -99,0 -193,-20 -278,-57 174,130 282,334 282,558 0,385 -316,696 -700,696 -110,0 -215,-26 -308,-71l-3 -2c194,129 311,345 311,578 0,386 -316,696 -700,696 -384,0 -700,-310 -700,-696 0,-233 117,-449 311,-578 -94,47 -200,73 -311,73 -111,0 -217,-26 -311,-73 194,129 311,345 311,578l0 0 0 0c0,251 -137,481 -351,603 -105,61 -227,93 -349,93 -384,0 -700,-310 -700,-696 0,-234 118,-449 310,-577 -93,46 -199,72 -310,72 -387,0 -700,-313 -700,-696 0,-221 105,-427 282,-558 -85,37 -179,57 -278,57 -384,0 -700,-310 -700,-695 0,-386 316,-696 700,-696 363,0 668,277 698,639 27,-364 334,-644 698,-644 384,0 700,310 700,696zm-1398 56c-15,202 -118,386 -280,506 85,-36 179,-57 278,-57 111,0 217,26 310,72 -176,-117 -290,-308 -308,-521zm388 567c191,128 309,342 310,576 1,-191 79,-364 205,-490 33,-32 68,-61 106,-86 -94,46 -200,72 -311,72 -111,0 -217,-26 -310,-72zm1010 -623c0,233 -117,449 -311,578 94,-47 200,-73 311,-73 111,0 217,26 311,72 -194,-129 -311,-344 -311,-577zm-700 495c275,0 500,-219 500,-495 0,-276 -225,-496 -500,-496 -275,0 -500,220 -500,496 0,276 225,495 500,495zm1079 -876l813 294c-42,-238 -250,-409 -492,-409 -122,0 -234,43 -321,115zm642 761l-813 -294c42,238 250,409 492,409 122,0 234,-43 321,-115zm-631 243c37,25 72,54 105,86 126,125 204,298 205,489 1,-191 79,-364 205,-489 33,-32 68,-61 106,-86 -94,46 -200,72 -311,72 -111,0 -217,-26 -310,-72zm699 -46c94,-46 200,-72 311,-72 99,0 193,21 278,57 -162,-120 -265,-304 -280,-506 -18,213 -132,404 -309,521zm-2989 623l749 -429c-73,-42 -158,-66 -249,-66 -275,0 -500,219 -500,495zm1000 1l-749 430c73,42 158,66 249,66 138,0 264,-56 354,-146 90,-89 146,-213 146,-350zm-111 578c99,-48 201,-73 311,-73 111,0 217,27 311,73 -193,-129 -310,-343 -311,-576 -1,233 -118,447 -311,576zm1400 0c94,-47 200,-73 311,-73 111,0 217,26 310,72 -189,-126 -309,-340 -310,-574 -1,232 -118,446 -311,575zm-1089 127l433 744c43,-72 67,-157 67,-248 0,-276 -225,-495 -500,-496zm0 992l-433 -744c-43,73 -67,158 -67,248 0,276 225,496 500,496zm1667 -1449l433 -744c-139,0 -264,56 -354,145 -90,90 -146,214 -146,351 0,90 24,175 67,248zm866 -496l-433 744c275,-1 500,-220 500,-496 0,-91 -24,-175 -67,-248zm-1133 1945c275,0 500,-220 500,-496 0,-276 -225,-496 -500,-496 -275,0 -500,220 -500,496 0,276 225,496 500,496zm-700 1406c-384,0 -700,-310 -700,-696 0,-385 316,-695 700,-695 384,0 700,310 700,695 0,386 -316,696 -700,696zm0 -200c275,0 500,-220 500,-496 0,-276 -225,-495 -500,-495 -275,0 -500,219 -500,495 0,276 225,496 500,496zm-2096 -3604c275,0 500,-219 500,-495 0,-276 -225,-496 -500,-496 -275,0 -500,220 -500,496 0,276 225,495 500,495zm4192 0c275,0 500,-219 500,-495 0,-276 -225,-496 -500,-496 -275,0 -500,220 -500,496 0,276 225,495 500,495z"/>
</svg>