<?xml version="1.0" encoding="UTF-8"?>
<!DOCTYPE svg PUBLIC "-//W3C//DTD SVG 1.1//EN" "http://www.w3.org/Graphics/SVG/1.1/DTD/svg11.dtd">
<svg xmlns="http://www.w3.org/2000/svg" xml:space="preserve" width="580px" height="580px" shape-rendering="geometricPrecision" text-rendering="geometricPrecision" image-rendering="optimizeQuality" fill-rule="nonzero" clip-rule="nonzero" viewBox="0 0 5800 5800" xmlns:xlink="http://www.w3.org/1999/xlink">
	<title>pool_balls icon</title>
	<desc>pool_balls icon from the IconExperience.com I-Collection. Copyright by INCORS GmbH (www.incors.com).</desc>
	<path id="curve0"  d="M1890 1819c192,129 309,343 310,576 1,-233 118,-447 311,-576 -194,96 -428,96 -621,0zm-79 -46c-177,-117 -291,-308 -309,-521 -15,202 -118,386 -280,506 188,-80 405,-75 589,15zm2907 66c26,22 53,43 77,66 126,126 205,300 205,492 0,385 -316,696 -700,696 -111,0 -217,-26 -311,-73 194,129 311,345 311,578 0,386 -316,696 -700,696 -384,0 -700,-310 -700,-696 0,386 -316,696 -700,696 -384,0 -700,-310 -700,-696 0,-233 117,-449 311,-578 -94,47 -200,73 -311,73 -384,0 -700,-311 -700,-696 0,-221 105,-427 282,-558 -85,37 -179,57 -278,57 -384,0 -700,-310 -700,-695 0,-386 316,-696 700,-696 363,0 668,277 698,639 27,-364 334,-644 698,-644 384,0 700,310 700,696 0,233 -117,449 -311,578 194,-96 428,-96 622,-1 -194,-129 -311,-344 -311,-577 0,-192 78,-366 205,-492 127,-126 302,-204 495,-204 193,0 368,78 495,204 115,114 190,269 203,440 14,-169 89,-322 203,-435 127,-126 302,-204 495,-204 384,0 700,310 700,696 0,385 -316,695 -700,695 -99,0 -193,-20 -278,-57zm-140 -81c-162,-120 -265,-304 -280,-506 -18,213 -132,404 -309,521 184,-90 401,-96 589,-15zm-1470 -476l813 294c137,-114 202,-291 171,-467l-813 -294c-137,114 -202,292 -171,467zm182 537c37,25 72,54 105,86 126,125 204,298 205,489 1,-232 118,-446 311,-575 -194,96 -428,96 -621,0zm620 1155c-190,-116 -309,-354 -310,-574 -1,232 -118,446 -311,575 94,-47 200,-73 311,-73 111,0 217,26 310,72zm-1010 624c0,-233 117,-449 311,-578 -194,96 -428,96 -622,0 194,129 311,345 311,578zm-389 -623c-193,-129 -310,-343 -311,-576 -1,233 -118,447 -311,576 194,-96 428,-96 622,0zm-1260 -148l749 -430c0,-179 -96,-342 -251,-430l-749 430c0,179 96,342 251,430zm1649 66c275,0 500,-220 500,-496 0,-276 -225,-496 -500,-496 -275,0 -500,220 -500,496 0,276 225,496 500,496zm-1133 457l433 744c179,0 343,-94 433,-248l-433 -744c-179,0 -343,94 -433,248zm2533 -457l433 -744c-90,-154 -254,-248 -433,-248l-433 744c90,155 255,248 433,248zm-1400 2607c-384,0 -700,-310 -700,-696 0,-385 316,-695 700,-695 384,0 700,310 700,695 0,386 -316,696 -700,696z"/>
</svg>