<?xml version="1.0" encoding="UTF-8"?>
<!DOCTYPE svg PUBLIC "-//W3C//DTD SVG 1.1//EN" "http://www.w3.org/Graphics/SVG/1.1/DTD/svg11.dtd">
<svg xmlns="http://www.w3.org/2000/svg" xml:space="preserve" width="580px" height="580px" shape-rendering="geometricPrecision" text-rendering="geometricPrecision" image-rendering="optimizeQuality" fill-rule="nonzero" clip-rule="nonzero" viewBox="0 0 5800 5800" xmlns:xlink="http://www.w3.org/1999/xlink">
	<title>portfolio_folder icon</title>
	<desc>portfolio_folder icon from the IconExperience.com I-Collection. Copyright by INCORS GmbH (www.incors.com).</desc>
		<path id="curve28"  d="M5100 3759l0 282 -1459 1459 -282 0 1741 -1741zm-1741 -3459l282 0 1459 1459 0 282 -1741 -1741zm-283 0l1624 1624 0 1952 -1624 1624 -2376 0 0 -5200 2376 0zm1624 4424l0 776 -776 0 776 -776zm-776 -4424l776 0 0 776 -776 -776zm-224 1000l-2000 0 0 1400 2000 0 0 -1400zm-200 200l-1600 0 0 1000 1600 0 0 -1000zm1400 -1200l200 0 0 1176 -200 -200 0 -976zm200 2024l0 1152 -200 200 0 -1552 200 200zm0 2000l0 1176 -200 0 0 -976 200 -200z"/>
</svg>