<?xml version="1.0" encoding="UTF-8"?>
<!DOCTYPE svg PUBLIC "-//W3C//DTD SVG 1.1//EN" "http://www.w3.org/Graphics/SVG/1.1/DTD/svg11.dtd">
<svg xmlns="http://www.w3.org/2000/svg" xml:space="preserve" width="580px" height="580px" shape-rendering="geometricPrecision" text-rendering="geometricPrecision" image-rendering="optimizeQuality" fill-rule="nonzero" clip-rule="nonzero" viewBox="0 0 5800 5800" xmlns:xlink="http://www.w3.org/1999/xlink">
	<title>portable_barcode_scanner icon</title>
	<desc>portable_barcode_scanner icon from the IconExperience.com I-Collection. Copyright by INCORS GmbH (www.incors.com).</desc>
	<path id="curve0"  d="M2900 3742l0 1458c0,165 -135,300 -300,300l-1600 0c-165,0 -300,-135 -300,-300l0 -1458 -200 -201 0 -1841 2600 0 0 1841 -200 201zm-2000 -1642l0 1200 1800 0 0 -1200 -1800 0zm1600 200l0 800 -1400 0 0 -800 1400 0zm-1400 1400l0 1400 1400 0 0 -1400 -1400 0zm1200 200l0 200 -200 0 0 -200 200 0zm-400 0l0 200 -200 0 0 -200 200 0zm-400 0l0 200 -200 0 0 -200 200 0zm-200 400l0 200 200 0 0 -200 -200 0zm400 200l200 0 0 -200 -200 0 0 200zm400 0l200 0 0 -200 -200 0 0 200zm-800 200l0 200 200 0 0 -200 -200 0zm400 200l200 0 0 -200 -200 0 0 200zm400 0l200 0 0 -200 -200 0 0 200zm-1500 -4600l4600 0c165,0 300,135 300,300l0 3400c0,165 -135,300 -300,300l-2000 0 0 -400 100 0 0 -135c62,-71 100,-164 100,-265l0 -1700c0,-101 -38,-194 -100,-265l0 -835 -200 0 0 713c-65,-17 -133,-13 -200,-13l0 -700 -400 0 0 700 -200 0 0 -700 -200 0 0 700 -400 0 0 -700 -400 0 0 700 -200 0 0 -700 -200 0 0 700 -300 0c-119,0 -227,52 -300,135l0 -935c0,-165 135,-300 300,-300zm4300 400c-133,0 -267,0 -400,0l0 3200c133,0 267,0 400,0l0 -3200zm-600 0l-200 0 0 3200 200 0 0 -3200zm-600 0l-200 0 0 3200 200 0 0 -3200z"/>
</svg>