<?xml version="1.0" encoding="UTF-8"?>
<!DOCTYPE svg PUBLIC "-//W3C//DTD SVG 1.1//EN" "http://www.w3.org/Graphics/SVG/1.1/DTD/svg11.dtd">
<svg xmlns="http://www.w3.org/2000/svg" xml:space="preserve" width="580px" height="580px" shape-rendering="geometricPrecision" text-rendering="geometricPrecision" image-rendering="optimizeQuality" fill-rule="nonzero" clip-rule="nonzero" viewBox="0 0 5800 5800" xmlns:xlink="http://www.w3.org/1999/xlink">
	<title>portfolio_folder icon</title>
	<desc>portfolio_folder icon from the IconExperience.com I-Collection. Copyright by INCORS GmbH (www.incors.com).</desc>
		<path id="curve28"  d="M5100 3759l0 282 -1459 1459 -282 0 1741 -1741zm-1741 -3459l282 0 1459 1459 0 282 -1741 -1741zm341 1000l0 1400 -2000 0 0 -1400 2000 0zm1200 -1000l200 0 0 1176 -200 -200 0 -976zm200 2024l0 1152 -200 200 0 -1552 200 200zm0 2000l0 1176 -200 0 0 -976 200 -200zm-2024 -4024l200 200 -2376 0 0 4800 2376 0 -200 200 -2376 0 0 -5200 2376 0zm1048 5000l376 0 0 -376 200 -200 0 776 -776 0 200 -200zm376 -1224l0 -2352 200 200 0 1952 -200 200zm-576 -3776l776 0 0 776 -200 -200 0 -376 -376 0 -200 -200zm-424 1200l-1600 0 0 1000 1600 0 0 -1000z"/>
</svg>