<?xml version="1.0" encoding="UTF-8"?>
<!DOCTYPE svg PUBLIC "-//W3C//DTD SVG 1.1//EN" "http://www.w3.org/Graphics/SVG/1.1/DTD/svg11.dtd">
<svg xmlns="http://www.w3.org/2000/svg" xml:space="preserve" width="580px" height="580px" shape-rendering="geometricPrecision" text-rendering="geometricPrecision" image-rendering="optimizeQuality" fill-rule="nonzero" clip-rule="nonzero" viewBox="0 0 5800 5800" xmlns:xlink="http://www.w3.org/1999/xlink">
	<title>postage_stamp icon</title>
	<desc>postage_stamp icon from the IconExperience.com I-Collection. Copyright by INCORS GmbH (www.incors.com).</desc>
		<path id="curve28"  d="M4200 900c-110,0 -200,90 -200,200l0 200c0,110 90,200 200,200l100 0c110,0 200,-90 200,-200l0 -200c0,-110 -90,-200 -200,-200l-100 0zm100 200l0 200c0,0 0,0 0,0l0 0 0 0 0 0 -100 0 0 -200c8,0 100,0 100,0zm0 200l0 0 0 0 0 0 0 0zm-700 -400l0 200 100 0 0 400 200 0 0 -500c0,-55 -45,-100 -100,-100l-200 0zm-1646 1287l32 483c-44,149 7,338 156,412 45,169 163,439 285,560 0,145 -19,394 -157,473 -148,92 -241,97 -403,157 -95,34 -220,77 -293,148 -129,125 -209,302 -237,480l3126 0c-28,-178 -108,-355 -237,-480 -73,-71 -198,-114 -293,-148 -162,-60 -255,-65 -403,-157 -144,-82 -154,-324 -157,-473 125,-124 241,-394 285,-560 149,-74 200,-262 156,-412l32 -487c32,-344 -384,-734 -730,-565 -90,-58 -144,-88 -256,-106 -439,-72 -914,195 -906,675zm-1254 -1887l400 0c0,110 90,200 200,200 110,0 200,-90 200,-200l400 0c0,110 90,200 200,200 110,0 200,-90 200,-200l400 0c0,110 90,200 200,200 110,0 200,-90 200,-200l400 0c0,110 90,200 200,200 110,0 200,-90 200,-200l400 0c0,110 90,200 200,200 110,0 200,-90 200,-200l400 0 0 400c-110,0 -200,90 -200,200 0,110 90,200 200,200l0 400c-110,0 -200,90 -200,200 0,110 90,200 200,200l0 400c-110,0 -200,90 -200,200 0,110 90,200 200,200l0 400c-110,0 -200,90 -200,200 0,110 90,200 200,200l0 400c-110,0 -200,90 -200,200 0,110 90,200 200,200l0 400c-110,0 -200,90 -200,200 0,110 90,200 200,200l0 400 -400 0c0,-110 -90,-200 -200,-200 -110,0 -200,90 -200,200l-400 0c0,-110 -90,-200 -200,-200 -110,0 -200,90 -200,200l-400 0c0,-110 -90,-200 -200,-200 -110,0 -200,90 -200,200l-400 0c0,-110 -90,-200 -200,-200 -110,0 -200,90 -200,200l-400 0c0,-110 -90,-200 -200,-200 -110,0 -200,90 -200,200l-400 0 0 -400c110,0 200,-90 200,-200 0,-110 -90,-200 -200,-200l0 -400c110,0 200,-90 200,-200 0,-110 -90,-200 -200,-200l0 -400c110,0 200,-90 200,-200 0,-110 -90,-200 -200,-200l0 -400c110,0 200,-90 200,-200 0,-110 -90,-200 -200,-200l0 -400c110,0 200,-90 200,-200 0,-110 -90,-200 -200,-200l0 -400c110,0 200,-90 200,-200 0,-110 -90,-200 -200,-200l0 -400z"/>
</svg>