<?xml version="1.0" encoding="UTF-8"?>
<!DOCTYPE svg PUBLIC "-//W3C//DTD SVG 1.1//EN" "http://www.w3.org/Graphics/SVG/1.1/DTD/svg11.dtd">
<svg xmlns="http://www.w3.org/2000/svg" xml:space="preserve" width="580px" height="580px" shape-rendering="geometricPrecision" text-rendering="geometricPrecision" image-rendering="optimizeQuality" fill-rule="nonzero" clip-rule="nonzero" viewBox="0 0 5800 5800" xmlns:xlink="http://www.w3.org/1999/xlink">
	<title>post_horn icon</title>
	<desc>post_horn icon from the IconExperience.com I-Collection. Copyright by INCORS GmbH (www.incors.com).</desc>
	<path id="curve0"  d="M4086 3297l365 634c25,44 13,99 -27,129 -323,293 -732,440 -1140,440 -411,0 -822,-149 -1147,-446 -35,-32 -42,-83 -19,-123l364 -634c27,-48 89,-65 136,-38 14,8 25,19 33,31 11,13 21,26 31,37 9,11 21,24 36,39 157,156 361,234 566,234 205,0 410,-78 566,-234 26,-26 48,-51 70,-80 44,-58 131,-51 166,11zm-2688 -1355c35,573 347,1090 833,1390l-286 500c-31,56 -44,119 -37,180 -151,-18 -299,-30 -450,-30 -392,0 -772,0 -1109,132 -69,27 -141,-27 -136,-99 -2,-417 90,-821 264,-1186 175,-367 432,-696 759,-959 64,-51 157,-7 162,72zm2862 1255c-29,-49 -71,-89 -121,-116 29,-88 45,-183 45,-281 0,-497 -403,-900 -900,-900 -497,0 -900,403 -900,900 0,98 16,193 45,281 -39,21 -75,51 -102,88 -219,-136 -403,-324 -532,-547 89,-753 730,-1322 1489,-1322 829,0 1500,672 1500,1500 0,316 -97,609 -264,850l-260 -453zm965 768c-105,28 -218,16 -316,-34l-246 66c3,-53 -8,-107 -34,-157 160,-206 273,-450 324,-717 14,-5 29,-10 43,-14l332 -89c53,-14 108,18 122,71l177 663c15,53 -17,108 -70,122l-332 89z"/>
</svg>