<?xml version="1.0" encoding="UTF-8"?>
<!DOCTYPE svg PUBLIC "-//W3C//DTD SVG 1.1//EN" "http://www.w3.org/Graphics/SVG/1.1/DTD/svg11.dtd">
<svg xmlns="http://www.w3.org/2000/svg" xml:space="preserve" width="580px" height="580px" shape-rendering="geometricPrecision" text-rendering="geometricPrecision" image-rendering="optimizeQuality" fill-rule="nonzero" clip-rule="nonzero" viewBox="0 0 5800 5800" xmlns:xlink="http://www.w3.org/1999/xlink">
	<title>power_drill icon</title>
	<desc>power_drill icon from the IconExperience.com I-Collection. Copyright by INCORS GmbH (www.incors.com).</desc>
		<path id="curve28"  d="M3461 3500l-161 0c-220,0 -400,-180 -400,-400l0 -400c-200,0 -400,0 -600,0l0 -1600 2600 0c331,0 600,269 600,600l0 400c0,215 -117,414 -303,521 -65,37 -132,65 -207,72 -200,18 -181,221 -176,276l483 1829c32,122 7,245 -70,346 -78,100 -190,156 -317,156l-1210 0c-220,0 -400,-180 -400,-400 0,-162 99,-308 248,-370 93,-38 142,-137 117,-234l-204 -796zm-3261 -1800l168 0 -115 400 -53 0 -200 -200 200 -200zm375 0l193 0 -115 400 -192 0 114 -400zm400 0l150 0c91,-351 410,-600 775,-600l200 0 0 1600 -200 0c-365,0 -684,-249 -775,-600l-264 0 114 -400zm2125 1000l0 400c0,110 90,200 200,200l110 0 -115 -447c-22,-91 -102,-153 -195,-153z"/>
</svg>