<?xml version="1.0" encoding="UTF-8"?>
<!DOCTYPE svg PUBLIC "-//W3C//DTD SVG 1.1//EN" "http://www.w3.org/Graphics/SVG/1.1/DTD/svg11.dtd">
<svg xmlns="http://www.w3.org/2000/svg" xml:space="preserve" width="580px" height="580px" shape-rendering="geometricPrecision" text-rendering="geometricPrecision" image-rendering="optimizeQuality" fill-rule="nonzero" clip-rule="nonzero" viewBox="0 0 5800 5800" xmlns:xlink="http://www.w3.org/1999/xlink">
	<title>power_drill icon</title>
	<desc>power_drill icon from the IconExperience.com I-Collection. Copyright by INCORS GmbH (www.incors.com).</desc>
		<path id="curve28"  d="M200 1700l168 0 -115 400 -53 0 -200 -200 200 -200zm375 0l193 0 -115 400 -192 0 114 -400zm400 0l150 0c91,-351 410,-600 775,-600 1000,0 2000,0 3000,0 331,0 600,269 600,600l0 400c0,215 -117,414 -303,521 -65,37 -132,65 -207,72 -200,18 -181,221 -176,276 1,5 1,10 2,15l481 1814c16,61 18,122 6,181 -24,119 -107,227 -216,281 -54,26 -114,40 -177,40l-1210 0c-220,0 -400,-180 -400,-400 0,-162 99,-308 248,-370 93,-38 142,-137 117,-234l-204 -796 -161 0c-220,0 -400,-180 -400,-400l0 -400c-334,0 -667,0 -1000,0 -365,0 -684,-249 -775,-600l-264 0 114 -400zm2435 1600l-115 -447c-22,-91 -102,-153 -195,-153l0 400c0,110 90,200 200,200l110 0zm-1310 -2000l-200 0c-330,0 -600,270 -600,600 0,330 270,600 600,600l200 0 0 -1200zm2513 1658c-12,-125 -7,-430 359,-464 44,-4 88,-25 126,-46 125,-72 202,-204 202,-348l0 -400c0,-220 -180,-400 -400,-400l-2600 0 0 1200 800 0c179,-11 347,135 388,306l370 1440c50,194 -50,392 -234,469 -75,31 -124,104 -124,185 0,110 90,200 200,200l1210 0c33,0 63,-7 89,-19 53,-27 97,-83 109,-141 5,-29 4,-60 -4,-91l-484 -1827 -7 -64z"/>
</svg>