<?xml version="1.0" encoding="UTF-8"?>
<!DOCTYPE svg PUBLIC "-//W3C//DTD SVG 1.1//EN" "http://www.w3.org/Graphics/SVG/1.1/DTD/svg11.dtd">
<svg xmlns="http://www.w3.org/2000/svg" xml:space="preserve" width="580px" height="580px" shape-rendering="geometricPrecision" text-rendering="geometricPrecision" image-rendering="optimizeQuality" fill-rule="nonzero" clip-rule="nonzero" viewBox="0 0 5800 5800" xmlns:xlink="http://www.w3.org/1999/xlink">
	<title>precision_square icon</title>
	<desc>precision_square icon from the IconExperience.com I-Collection. Copyright by INCORS GmbH (www.incors.com).</desc>
		<path id="curve28" d="M5300 300l0 1200 -3004 0 -2 -98c-3,-164 -137,-295 -301,-295 -165,0 -300,135 -300,300 0,166 135,300 300,300l100 0 7 3793c-400,0 -800,0 -1200,0l0 -5200 4400 0zm-3800 1800l394 0 0 -203c-233,-47 -401,-252 -401,-490 0,-276 224,-500 500,-500 235,0 439,164 488,393l219 0 0 -400 200 0 0 400 200 0 0 -200 200 0 0 200 200 0 0 -400 200 0 0 400 200 0 0 -200 200 0 0 200 200 0 0 -400 200 0 0 400 200 0 0 -200 200 0 0 200 200 0 0 -800 -4000 0 0 4800 800 0 0 -200 -200 0 0 -200 199 0 0 -200 -399 0 0 -200 399 0 -1 -200 -198 0 0 -200 198 0 0 -200 -398 0 0 -200 397 0 0 -200 -197 0 0 -200 197 0 -1 -200 -396 0 0 -200 396 0 -1 -200 -195 0 0 -200 195 0 0 -200 -395 0 0 -200z"/>
</svg>