<?xml version="1.0" encoding="UTF-8"?>
<!DOCTYPE svg PUBLIC "-//W3C//DTD SVG 1.1//EN" "http://www.w3.org/Graphics/SVG/1.1/DTD/svg11.dtd">
<svg xmlns="http://www.w3.org/2000/svg" xml:space="preserve" width="580px" height="580px" shape-rendering="geometricPrecision" text-rendering="geometricPrecision" image-rendering="optimizeQuality" fill-rule="nonzero" clip-rule="nonzero" viewBox="0 0 5800 5800" xmlns:xlink="http://www.w3.org/1999/xlink">
	<title>precision_square icon</title>
	<desc>precision_square icon from the IconExperience.com I-Collection. Copyright by INCORS GmbH (www.incors.com).</desc>
		<path id="curve28"  d="M1700 3300l0 200 300 0 0 -200 -300 0zm-200 400l0 200 500 0 0 -200 -500 0zm200 400l0 200 300 0 0 -200 -300 0zm-200 400l0 200 500 0 0 -200 -500 0zm200 400l0 200 300 0 0 -200 -300 0zm0 -2400l0 200 300 0 0 -200 -300 0zm-200 400l0 200 500 0 0 -200 -500 0zm0 -800l0 200 500 0 0 -200 -500 0zm3800 -1800l0 1200 -3004 0 -2 -98c-3,-164 -137,-295 -301,-295 -165,0 -300,135 -300,300 0,166 135,300 300,300l100 0 7 3793c-400,0 -800,0 -1200,0l0 -5200 4400 0zm-400 800l-200 0 0 300 200 0 0 -300zm-400 -200l-200 0 0 500 200 0 0 -500zm-400 200l-200 0 0 300 200 0 0 -300zm-400 -200l-200 0 0 500 200 0 0 -500zm-400 200l-200 0 0 300 200 0 0 -300zm-400 -200l-200 0 0 500 200 0 0 -500z"/>
</svg>