<?xml version="1.0" encoding="UTF-8"?>
<!DOCTYPE svg PUBLIC "-//W3C//DTD SVG 1.1//EN" "http://www.w3.org/Graphics/SVG/1.1/DTD/svg11.dtd">
<svg xmlns="http://www.w3.org/2000/svg" xml:space="preserve" width="580px" height="580px" shape-rendering="geometricPrecision" text-rendering="geometricPrecision" image-rendering="optimizeQuality" fill-rule="nonzero" clip-rule="nonzero" viewBox="0 0 5800 5800" xmlns:xlink="http://www.w3.org/1999/xlink">
	<title>precision_knife icon</title>
	<desc>precision_knife icon from the IconExperience.com I-Collection. Copyright by INCORS GmbH (www.incors.com).</desc>
	<path id="curve0" d="M1486 3749l848 -849c33,-33 83,-38 122,-16 9,5 18,9 26,14l2542 -2404c117,-111 303,-109 418,6l78 78c114,114 117,301 5,418l-2412 2535c6,10 11,19 16,29 22,40 13,87 -17,118l-848 848c-50,50 -133,34 -162,-29 -69,-127 -156,-246 -259,-349 -97,-97 -208,-179 -331,-239 -61,-31 -74,-112 -26,-160zm-23 247c62,30 120,65 176,107l-798 797 517 0 539 -538c41,55 78,112 111,171l-566 567 -1083 0 1104 -1104zm1194 -989c133,98 249,217 346,351l2378 -2499c38,-40 36,-101 -2,-139l-79 -79c-38,-38 -100,-40 -140,-2l-2503 2368zm-672 1000c86,86 162,183 228,287l704 -704c-121,-201 -288,-379 -493,-497l-703 704c96,59 184,131 264,210z"/>
</svg>