<?xml version="1.0" encoding="UTF-8"?>
<!DOCTYPE svg PUBLIC "-//W3C//DTD SVG 1.1//EN" "http://www.w3.org/Graphics/SVG/1.1/DTD/svg11.dtd">
<svg xmlns="http://www.w3.org/2000/svg" xml:space="preserve" width="580px" height="580px" shape-rendering="geometricPrecision" text-rendering="geometricPrecision" image-rendering="optimizeQuality" fill-rule="nonzero" clip-rule="nonzero" viewBox="0 0 5800 5800" xmlns:xlink="http://www.w3.org/1999/xlink">
	<title>presentation2 icon</title>
	<desc>presentation2 icon from the IconExperience.com I-Collection. Copyright by INCORS GmbH (www.incors.com).</desc>
		<path id="curve28" d="M1100 2959l380 -380 409 204 400 -300 475 238 312 389 407 -916 411 616 339 -595 467 -133 0 208 -333 95 -461 805 -389 -584 -392 884 -489 -611 -325 -162 -400 300 -391 -196 -420 420 0 -282zm0 -834l327 -193 473 -473 410 409 400 -300 382 383 400 -500 316 315 422 -337 470 -565 0 312 -330 395 -578 463 -284 -285 -400 500 -418 -417 -400 300 -390 -391 -349 349 -451 267 0 -232zm-500 1575l100 0 0 -3200 -100 0 0 -200c1533,0 3067,0 4600,0l0 200 -100 0 0 3200 100 0 0 200 -2200 0 0 934 1138 474 -76 184 -1162 -484 -1162 484 -76 -184 1138 -474 0 -934 -2200 0 0 -200zm4300 -3200l-4000 0 0 3200 4000 0 0 -3200z"/>
</svg>