<?xml version="1.0" encoding="UTF-8"?>
<!DOCTYPE svg PUBLIC "-//W3C//DTD SVG 1.1//EN" "http://www.w3.org/Graphics/SVG/1.1/DTD/svg11.dtd">
<svg xmlns="http://www.w3.org/2000/svg" xml:space="preserve" width="580px" height="580px" shape-rendering="geometricPrecision" text-rendering="geometricPrecision" image-rendering="optimizeQuality" fill-rule="nonzero" clip-rule="nonzero" viewBox="0 0 5800 5800" xmlns:xlink="http://www.w3.org/1999/xlink">
	<title>pressure_sprayer icon</title>
	<desc>pressure_sprayer icon from the IconExperience.com I-Collection. Copyright by INCORS GmbH (www.incors.com).</desc>
		<path id="curve28"  d="M4900 2500l-200 0 0 2600 200 0 0 -2600zm-900 -800l0 -400 -400 0c-165,0 -300,-135 -300,-300l0 -200c0,-165 135,-300 300,-300l1000 0c165,0 300,135 300,300l0 200c0,165 -135,300 -300,300l-400 0 0 400 700 0c220,0 400,180 400,400l0 3400 -2400 0 0 -3000 -200 0c-220,0 -400,180 -400,400l0 1800c0,331 -269,600 -600,600 -331,0 -600,-269 -600,-600l0 -800 -200 0 0 -1111 119 -488 362 -1 119 489 0 1111 -200 0 0 800c0,221 179,400 400,400 221,0 400,-179 400,-400l0 -1800c0,-331 269,-600 600,-600l200 0 0 -200c0,-220 180,-400 400,-400l700 0zm-2729 371c-39,39 -103,39 -142,0 -39,-39 -39,-103 0,-142 39,-39 103,-39 142,0 39,39 39,103 0,142zm-200 -400c-39,39 -103,39 -142,0 -39,-39 -39,-103 0,-142 39,-39 103,-39 142,0 39,39 39,103 0,142zm400 0c-39,39 -103,39 -142,0 -39,-39 -39,-103 0,-142 39,-39 103,-39 142,0 39,39 39,103 0,142zm-599 -397c-39,39 -103,39 -142,0 -39,-39 -39,-102 0,-141 39,-39 103,-39 142,0 39,39 39,102 0,141zm400 0c-39,39 -103,39 -142,0 -39,-39 -39,-102 0,-141 39,-39 103,-39 142,0 39,39 39,102 0,141zm399 0c-39,39 -103,39 -142,0 -39,-39 -39,-102 0,-141 39,-39 103,-39 142,0 39,39 39,102 0,141zm-199 -403c-39,39 -103,39 -142,0 -39,-39 -39,-103 0,-142 39,-39 103,-39 142,0 39,39 39,103 0,142zm399 0c-39,39 -103,39 -142,0 -39,-39 -39,-103 0,-142 39,-39 103,-39 142,0 39,39 39,103 0,142zm-1200 0c-39,39 -103,39 -142,0 -39,-39 -39,-103 0,-142 39,-39 103,-39 142,0 39,39 39,103 0,142zm399 0c-39,39 -103,39 -142,0 -39,-39 -39,-103 0,-142 39,-39 103,-39 142,0 39,39 39,103 0,142zm3530 -171l-1000 0c-55,0 -100,45 -100,100l0 200c0,55 45,100 100,100l1000 0c55,0 100,-45 100,-100l0 -200c0,-55 -45,-100 -100,-100z"/>
</svg>