<?xml version="1.0" encoding="UTF-8"?>
<!DOCTYPE svg PUBLIC "-//W3C//DTD SVG 1.1//EN" "http://www.w3.org/Graphics/SVG/1.1/DTD/svg11.dtd">
<svg xmlns="http://www.w3.org/2000/svg" xml:space="preserve" width="580px" height="580px" shape-rendering="geometricPrecision" text-rendering="geometricPrecision" image-rendering="optimizeQuality" fill-rule="nonzero" clip-rule="nonzero" viewBox="0 0 5800 5800" xmlns:xlink="http://www.w3.org/1999/xlink">
	<title>press icon</title>
	<desc>press icon from the IconExperience.com I-Collection. Copyright by INCORS GmbH (www.incors.com).</desc>
	<path id="curve0"  d="M2943 900l-343 171 0 -171 -513 0c-45,175 -204,300 -387,300 -221,0 -400,-179 -400,-400 0,-220 180,-400 400,-400 183,0 342,124 387,300l1626 0c45,-176 204,-300 387,-300 220,0 400,180 400,400 0,221 -179,400 -400,400 -183,0 -342,-125 -387,-300l-770 0zm-343 2000l0 -51 600 -300 0 190 -323 161 1823 0 0 800 -3600 0c0,-267 0,-533 0,-800l1500 0zm-1500 1600l3600 0 0 1000 -3600 0 0 -1000zm3800 -2200l-1700 0 0 71 -600 300 0 -222 297 -149 -1997 0c0,1067 0,2133 0,3200 -200,0 -400,0 -600,0l0 -3800 2300 0 0 -51 600 -300 0 222 -257 129 2557 0 0 3800c-200,0 -400,0 -600,0 0,-1067 0,-2133 0,-3200zm-2300 -1051l600 -300 0 222 -600 300 0 -222z"/>
</svg>