<?xml version="1.0" encoding="UTF-8"?>
<!DOCTYPE svg PUBLIC "-//W3C//DTD SVG 1.1//EN" "http://www.w3.org/Graphics/SVG/1.1/DTD/svg11.dtd">
<svg xmlns="http://www.w3.org/2000/svg" xml:space="preserve" width="580px" height="580px" shape-rendering="geometricPrecision" text-rendering="geometricPrecision" image-rendering="optimizeQuality" fill-rule="nonzero" clip-rule="nonzero" viewBox="0 0 5800 5800" xmlns:xlink="http://www.w3.org/1999/xlink">
	<title>presentation_chart icon</title>
	<desc>presentation_chart icon from the IconExperience.com I-Collection. Copyright by INCORS GmbH (www.incors.com).</desc>
		<path id="curve28" d="M4140 1110c273,273 410,632 410,990 0,358 -137,717 -410,990l-71 71 -1060 -1061 1060 -1061 71 71zm-1490 -410c366,0 714,142 976,397l73 71 -932 932 932 932 -73 71c-262,255 -610,397 -976,397 -773,0 -1400,-627 -1400,-1400 0,-773 627,-1400 1400,-1400zm0 200c-663,0 -1200,537 -1200,1200 0,663 537,1200 1200,1200 279,0 546,-96 762,-273l-928 -927 928 -927c-216,-177 -483,-273 -762,-273zm1700 1200c0,-276 -95,-552 -284,-775l-775 775 775 775c189,-223 284,-499 284,-775zm-2688 3208l1138 -474 0 -934 -2200 0 0 -200 100 0 0 -3200 -100 0 0 -200c1533,0 3067,0 4600,0l0 200 -100 0 0 3200 100 0 0 200 -2200 0 0 934 1138 474 -76 184 -1162 -484 -1162 484 -76 -184zm-762 -4808l0 3200 4000 0 0 -3200 -4000 0z"/>
</svg>