<?xml version="1.0" encoding="UTF-8"?>
<!DOCTYPE svg PUBLIC "-//W3C//DTD SVG 1.1//EN" "http://www.w3.org/Graphics/SVG/1.1/DTD/svg11.dtd">
<svg xmlns="http://www.w3.org/2000/svg" xml:space="preserve" width="580px" height="580px" shape-rendering="geometricPrecision" text-rendering="geometricPrecision" image-rendering="optimizeQuality" fill-rule="nonzero" clip-rule="nonzero" viewBox="0 0 5800 5800" xmlns:xlink="http://www.w3.org/1999/xlink">
	<title>presentation_empty icon</title>
	<desc>presentation_empty icon from the IconExperience.com I-Collection. Copyright by INCORS GmbH (www.incors.com).</desc>
		<path id="curve28"  d="M600 3700l100 0 0 -3200 -100 0 0 -200c1533,0 3067,0 4600,0l0 200 -100 0 0 3200 100 0 0 200 -2200 0 0 934 1138 474 -76 184 -1162 -484 -1162 484 -76 -184 1138 -474 0 -934 -2200 0 0 -200zm300 -3200l0 3200 4000 0 0 -3200 -4000 0z"/>
</svg>