<?xml version="1.0" encoding="UTF-8"?>
<!DOCTYPE svg PUBLIC "-//W3C//DTD SVG 1.1//EN" "http://www.w3.org/Graphics/SVG/1.1/DTD/svg11.dtd">
<svg xmlns="http://www.w3.org/2000/svg" xml:space="preserve" width="580px" height="580px" shape-rendering="geometricPrecision" text-rendering="geometricPrecision" image-rendering="optimizeQuality" fill-rule="nonzero" clip-rule="nonzero" viewBox="0 0 5800 5800" xmlns:xlink="http://www.w3.org/1999/xlink">
	<title>presentation_chart icon</title>
	<desc>presentation_chart icon from the IconExperience.com I-Collection. Copyright by INCORS GmbH (www.incors.com).</desc>
		<path id="curve28"  d="M4062 5492l-1162 -484 -1162 484 -76 -184 1138 -474 0 -934 -2200 0 0 -200 100 0 0 -3200 -100 0 0 -200c1533,0 3067,0 4600,0l0 200 -100 0 0 3200 100 0 0 200 -2200 0 0 934 1138 474 -76 184zm-1412 -4692c-718,0 -1300,582 -1300,1300 0,718 582,1300 1300,1300 353,0 673,-141 907,-369l-931 -931 931 -931c-234,-228 -554,-369 -907,-369zm1419 381l-919 919 919 919c508,-507 508,-1331 0,-1838z"/>
</svg>