<?xml version="1.0" encoding="UTF-8"?>
<!DOCTYPE svg PUBLIC "-//W3C//DTD SVG 1.1//EN" "http://www.w3.org/Graphics/SVG/1.1/DTD/svg11.dtd">
<svg xmlns="http://www.w3.org/2000/svg" xml:space="preserve" width="580px" height="580px" shape-rendering="geometricPrecision" text-rendering="geometricPrecision" image-rendering="optimizeQuality" fill-rule="nonzero" clip-rule="nonzero" viewBox="0 0 5800 5800" xmlns:xlink="http://www.w3.org/1999/xlink">
	<title>presentation2 icon</title>
	<desc>presentation2 icon from the IconExperience.com I-Collection. Copyright by INCORS GmbH (www.incors.com).</desc>
		<path id="curve28"  d="M1100 2959l0 282 420 -420 391 196 400 -300 325 162 489 611 392 -884 389 584 461 -805 333 -95 0 -208 -467 133 -339 595 -411 -616 -407 916 -312 -389 -475 -238 -400 300 -409 -204 -380 380zm2962 2533l-1162 -484 -1162 484 -76 -184 1138 -474 0 -934 -2200 0 0 -200 100 0 0 -3200 -100 0 0 -200c1533,0 3067,0 4600,0l0 200 -100 0 0 3200 100 0 0 200 -2200 0 0 934 1138 474 -76 184zm-2962 -3367l0 232 451 -267 349 -349 390 391 400 -300 418 417 400 -500 284 285 578 -463 330 -395 0 -312 -470 565 -422 337 -316 -315 -400 500 -382 -383 -400 300 -410 -409 -473 473 -327 193z"/>
</svg>