<?xml version="1.0" encoding="UTF-8"?>
<!DOCTYPE svg PUBLIC "-//W3C//DTD SVG 1.1//EN" "http://www.w3.org/Graphics/SVG/1.1/DTD/svg11.dtd">
<svg xmlns="http://www.w3.org/2000/svg" xml:space="preserve" width="580px" height="580px" shape-rendering="geometricPrecision" text-rendering="geometricPrecision" image-rendering="optimizeQuality" fill-rule="nonzero" clip-rule="nonzero" viewBox="0 0 5800 5800" xmlns:xlink="http://www.w3.org/1999/xlink">
	<title>pretzel icon</title>
	<desc>pretzel icon from the IconExperience.com I-Collection. Copyright by INCORS GmbH (www.incors.com).</desc>
		<path id="curve28"  d="M1589 3978c-98,49 -218,9 -267,-89 -49,-98 -9,-218 89,-267 471,-236 872,-493 1157,-761 72,102 157,202 255,300l5 4c-312,289 -740,564 -1239,813zm1411 -1878c0,-653 -382,-900 -1000,-900 -801,0 -1400,597 -1400,1400 0,1263 1125,2000 2300,2000 1175,0 2300,-737 2300,-2000 0,-803 -599,-1400 -1400,-1400 -204,0 -377,28 -517,82 -76,-118 -173,-220 -289,-305 214,-116 483,-177 806,-177 1022,0 1800,776 1800,1800 0,1487 -1302,2400 -2700,2400 -1398,0 -2700,-913 -2700,-2400 0,-1024 778,-1800 1800,-1800 839,0 1400,425 1400,1300 0,206 -65,408 -184,604 -120,-125 -210,-248 -262,-368 30,-80 46,-158 46,-236zm1389 1522c98,49 138,169 89,267 -49,98 -169,138 -267,89 -542,-271 -1001,-572 -1317,-888 -313,-313 -494,-646 -494,-990 0,-267 52,-498 157,-690 142,73 237,185 291,336 -32,104 -48,222 -48,354 0,229 138,469 377,707 287,287 709,563 1212,815z"/>
</svg>