<?xml version="1.0" encoding="UTF-8"?>
<!DOCTYPE svg PUBLIC "-//W3C//DTD SVG 1.1//EN" "http://www.w3.org/Graphics/SVG/1.1/DTD/svg11.dtd">
<svg xmlns="http://www.w3.org/2000/svg" xml:space="preserve" width="580px" height="580px" shape-rendering="geometricPrecision" text-rendering="geometricPrecision" image-rendering="optimizeQuality" fill-rule="nonzero" clip-rule="nonzero" viewBox="0 0 5800 5800" xmlns:xlink="http://www.w3.org/1999/xlink">
	<title>pretzel icon</title>
	<desc>pretzel icon from the IconExperience.com I-Collection. Copyright by INCORS GmbH (www.incors.com).</desc>
		<path id="curve28"  d="M4345 3711c49,25 69,84 44,134 -25,49 -84,69 -134,44 -532,-266 -982,-561 -1291,-870 -294,-294 -464,-604 -464,-919 0,-247 47,-461 142,-638 59,44 107,96 146,158 -59,135 -88,296 -88,480 0,258 149,521 406,778 294,294 726,577 1239,833zm-545 -2611c-193,0 -396,24 -576,98 -43,-55 -92,-106 -145,-153 221,-109 477,-145 721,-145 512,0 916,189 1201,475 328,328 499,783 499,1225 0,699 -291,1244 -728,1629 -504,444 -1204,671 -1872,671 -668,0 -1368,-227 -1872,-671 -437,-385 -728,-930 -728,-1629 0,-442 171,-897 499,-1225 324,-324 747,-475 1201,-475 421,0 741,107 960,308 227,207 340,509 340,892 0,178 -54,354 -155,527 -51,-60 -95,-119 -131,-178 56,-117 86,-233 86,-349 0,-326 -91,-578 -274,-746 -181,-166 -456,-254 -826,-254 -400,0 -774,131 -1060,416 -289,289 -440,692 -440,1084 0,635 264,1130 660,1479 467,410 1117,621 1740,621 623,0 1273,-211 1740,-621 396,-349 660,-844 660,-1479 0,-392 -151,-795 -440,-1084 -250,-250 -606,-416 -1060,-416zm-2255 2789c-50,25 -109,5 -134,-44 -25,-50 -5,-109 44,-134 476,-238 882,-498 1173,-769 40,51 84,101 130,152 -304,281 -724,550 -1213,795z"/>
</svg>