<?xml version="1.0" encoding="UTF-8"?>
<!DOCTYPE svg PUBLIC "-//W3C//DTD SVG 1.1//EN" "http://www.w3.org/Graphics/SVG/1.1/DTD/svg11.dtd">
<svg xmlns="http://www.w3.org/2000/svg" xml:space="preserve" width="580px" height="580px" shape-rendering="geometricPrecision" text-rendering="geometricPrecision" image-rendering="optimizeQuality" fill-rule="nonzero" clip-rule="nonzero" viewBox="0 0 5800 5800" xmlns:xlink="http://www.w3.org/1999/xlink">
	<title>price_sticker icon</title>
	<desc>price_sticker icon from the IconExperience.com I-Collection. Copyright by INCORS GmbH (www.incors.com).</desc>
		<path id="curve28"  d="M1328 1896l-9 52c-44,289 -22,576 112,840 146,287 324,457 613,600 204,100 468,279 574,487 121,240 88,493 42,748l-37 203 -620 309c-64,32 -127,34 -190,-1 -44,-24 -79,-63 -111,-109 -114,-162 -258,-228 -411,-296 -240,-109 -496,-225 -718,-669 -221,-443 -164,-717 -112,-973 34,-162 65,-316 2,-504 -42,-125 -12,-249 112,-311l753 -376zm220 -110l1410 -702 -12 50c-55,302 -84,589 60,874 127,250 417,454 663,576 250,123 397,262 523,510 116,228 129,479 92,728l-36 193 -1402 700 10 -57c55,-302 84,-589 -60,-873 -127,-251 -417,-455 -664,-576 -250,-124 -397,-262 -523,-511 -115,-227 -130,-471 -92,-720l31 -192zm1641 -818l608 -303c71,-36 133,-30 190,1 44,24 79,63 111,109 114,162 258,228 411,296 240,109 496,225 718,669 221,443 164,717 112,973 -34,162 -65,316 -2,503 21,62 25,123 7,179 -19,56 -57,103 -119,134l-753 375 9 -52c44,-289 23,-584 -110,-847 -146,-288 -325,-458 -614,-600 -203,-101 -467,-279 -573,-487 -121,-239 -89,-490 -43,-744l48 -206z"/>
</svg>