<?xml version="1.0" encoding="UTF-8"?>
<!DOCTYPE svg PUBLIC "-//W3C//DTD SVG 1.1//EN" "http://www.w3.org/Graphics/SVG/1.1/DTD/svg11.dtd">
<svg xmlns="http://www.w3.org/2000/svg" xml:space="preserve" width="580px" height="580px" shape-rendering="geometricPrecision" text-rendering="geometricPrecision" image-rendering="optimizeQuality" fill-rule="nonzero" clip-rule="nonzero" viewBox="0 0 5800 5800" xmlns:xlink="http://www.w3.org/1999/xlink">
	<title>price_sticker icon</title>
	<desc>price_sticker icon from the IconExperience.com I-Collection. Copyright by INCORS GmbH (www.incors.com).</desc>
		<path id="curve28" d="M2003 5135c-129,64 -227,-4 -301,-110 -114,-162 -258,-228 -411,-296 -240,-109 -496,-225 -718,-669 -221,-443 -164,-717 -112,-973 34,-162 65,-316 2,-504 -41,-123 -12,-250 112,-312 1074,-535 2148,-1071 3222,-1606 129,-64 228,5 301,110 114,162 258,228 411,296 240,109 496,225 718,669 221,443 164,717 112,973 -34,162 -65,316 -2,503 42,126 12,251 -112,313l-3222 1606zm-89 -179l25 -12 729 -370c42,-240 64,-474 -50,-699 -106,-208 -370,-387 -574,-487 -289,-143 -467,-313 -613,-600 -104,-205 -141,-427 -130,-655l-637 317c-28,13 -20,46 -12,70 81,238 44,418 5,607 -46,223 -95,462 95,844 190,381 413,481 621,576 178,80 347,156 492,364 8,11 32,53 49,45zm972 -484l1405 -701c28,-233 9,-465 -99,-677 -126,-248 -273,-387 -523,-510 -246,-122 -536,-326 -663,-576 -111,-218 -121,-443 -91,-680l-1405 701c-28,232 -8,458 99,669 126,249 273,387 523,511 247,121 537,325 664,576 112,220 121,447 90,687zm1614 -805l636 -317c29,-15 21,-43 12,-70 -81,-238 -44,-418 -5,-607 46,-223 95,-462 -95,-844 -190,-381 -413,-481 -621,-576 -178,-80 -347,-156 -492,-364 -8,-11 -32,-54 -48,-45l-754 375c-41,240 -63,474 51,699 106,208 370,386 573,487 289,142 468,312 614,600 104,206 140,432 129,662z"/>
</svg>