<?xml version="1.0" encoding="UTF-8"?>
<!DOCTYPE svg PUBLIC "-//W3C//DTD SVG 1.1//EN" "http://www.w3.org/Graphics/SVG/1.1/DTD/svg11.dtd">
<svg xmlns="http://www.w3.org/2000/svg" xml:space="preserve" width="580px" height="580px" shape-rendering="geometricPrecision" text-rendering="geometricPrecision" image-rendering="optimizeQuality" fill-rule="nonzero" clip-rule="nonzero" viewBox="0 0 5800 5800" xmlns:xlink="http://www.w3.org/1999/xlink">
	<title>print_calculator icon</title>
	<desc>print_calculator icon from the IconExperience.com I-Collection. Copyright by INCORS GmbH (www.incors.com).</desc>
		<path id="curve28"  d="M4100 300c221,0 400,179 400,400 0,220 -180,400 -400,400l0 -200c110,0 200,-90 200,-200 0,-110 -90,-200 -200,-200 -110,0 -200,90 -200,200l0 800 500 0c165,0 300,135 300,300l0 3400c0,165 -135,300 -300,300l-3000 0c-165,0 -300,-135 -300,-300l0 -3400c0,-165 135,-300 300,-300l500 0 0 -800c0,-220 180,-400 400,-400l1800 0zm-400 1600l0 -1200c0,-73 20,-141 54,-200l-1454 0c-111,0 -200,89 -200,200l0 1200 1600 0zm-2200 1400l0 400 600 0 0 -400 -600 0zm800 0l0 400 600 0 0 -400 -600 0zm800 0l0 400 600 0 0 -400 -600 0zm800 0l0 400 400 0 0 -400 -400 0zm-2400 600l0 400 600 0 0 -400 -600 0zm800 0l0 400 600 0 0 -400 -600 0zm800 0l0 400 600 0 0 -400 -600 0zm800 0l0 1000 400 0 0 -1000 -400 0zm-2400 600l0 400 600 0 0 -400 -600 0zm800 0l0 400 600 0 0 -400 -600 0zm800 0l0 400 600 0 0 -400 -600 0zm1200 -2200l-2800 0 0 800 2800 0 0 -800zm-200 200l0 400 -2400 0 0 -400 2400 0z"/>
</svg>