<?xml version="1.0" encoding="UTF-8"?>
<!DOCTYPE svg PUBLIC "-//W3C//DTD SVG 1.1//EN" "http://www.w3.org/Graphics/SVG/1.1/DTD/svg11.dtd">
<svg xmlns="http://www.w3.org/2000/svg" xml:space="preserve" width="580px" height="580px" shape-rendering="geometricPrecision" text-rendering="geometricPrecision" image-rendering="optimizeQuality" fill-rule="nonzero" clip-rule="nonzero" viewBox="0 0 5800 5800" xmlns:xlink="http://www.w3.org/1999/xlink">
	<title>print_layout_single icon</title>
	<desc>print_layout_single icon from the IconExperience.com I-Collection. Copyright by INCORS GmbH (www.incors.com).</desc>
	<path id="curve0" d="M1500 1500l1200 0 0 200 -1200 0 0 -200zm0 -600l1000 0 0 200 -1000 0 0 -200zm0 1600l2800 0 0 200 -2800 0 0 -200zm0 600l2800 0 0 200 -2800 0 0 -200zm0 600l2400 0 0 200 -2400 0 0 -200zm0 800l1200 0 0 200 -1200 0 0 -200zm3400 -4200l0 5200 -4000 0 0 -5200 4000 0zm-200 200l-3600 0 0 4800 3600 0 0 -4800z"/>
</svg>