<?xml version="1.0" encoding="UTF-8"?>
<!DOCTYPE svg PUBLIC "-//W3C//DTD SVG 1.1//EN" "http://www.w3.org/Graphics/SVG/1.1/DTD/svg11.dtd">
<svg xmlns="http://www.w3.org/2000/svg" xml:space="preserve" width="580px" height="580px" shape-rendering="geometricPrecision" text-rendering="geometricPrecision" image-rendering="optimizeQuality" fill-rule="nonzero" clip-rule="nonzero" viewBox="0 0 5800 5800" xmlns:xlink="http://www.w3.org/1999/xlink">
	<title>printer_photo icon</title>
	<desc>printer_photo icon from the IconExperience.com I-Collection. Copyright by INCORS GmbH (www.incors.com).</desc>
	<path id="curve0"  d="M3796 1411l-26 401c36,152 -11,328 -141,422l-10 66 -202 0c7,-48 13,-107 25,-153 8,-30 30,-54 56,-65 78,-43 98,-153 75,-232 -4,-13 -4,-36 -2,-49l26 -410c4,-54 -10,-112 -38,-167 -56,-113 -175,-221 -305,-233 -42,-4 -84,3 -126,23 -35,18 -75,13 -105,-10 -61,-39 -98,-59 -170,-71 -39,-7 -78,-10 -116,-9 -125,2 -247,41 -343,111 -92,68 -159,164 -179,285 -4,27 -7,55 -6,84l26 412c1,12 -1,23 -3,34 -14,46 -12,100 5,146 14,38 39,70 74,88 33,16 53,50 55,85l5 131 -200 0 -3 -71c-55,-43 -94,-100 -118,-164 -30,-80 -35,-171 -15,-253l-26 -398c0,-46 3,-87 9,-126 29,-177 126,-317 258,-414 129,-94 292,-146 458,-149 51,-1 101,2 151,11 80,13 140,35 208,77 59,-20 120,-26 179,-21 200,19 379,167 466,343 43,86 65,180 58,276zm704 2889l-3200 0 0 100c0,55 45,100 100,100l3000 0c55,0 100,-45 100,-100l0 -100zm-3100 -400l3000 0c165,0 300,135 300,300l0 200c0,165 -135,300 -300,300l-3000 0c-165,0 -300,-135 -300,-300l0 -200c0,-165 135,-300 300,-300zm3100 -3600l0 2000c-61,-4 -138,0 -200,0l0 -1800 -2800 0 0 1800 -200 0 0 -2000 3200 0zm500 2200c275,0 500,225 500,500l0 1600c0,275 -225,500 -500,500l-4200 0c-275,0 -500,-225 -500,-500l0 -1600c0,-275 225,-500 500,-500 1400,0 2800,0 4200,0zm0 200l-4200 0c-165,0 -300,135 -300,300l0 1600c0,165 135,300 300,300l4200 0c165,0 300,-135 300,-300l0 -1600c0,-165 -135,-300 -300,-300zm-3900 200c110,0 200,90 200,200 0,110 -90,200 -200,200 -110,0 -200,-90 -200,-200 0,-110 90,-200 200,-200zm600 0c110,0 200,90 200,200 0,110 -90,200 -200,200 -110,0 -200,-90 -200,-200 0,-110 90,-200 200,-200z"/>
</svg>