<?xml version="1.0" encoding="UTF-8"?>
<!DOCTYPE svg PUBLIC "-//W3C//DTD SVG 1.1//EN" "http://www.w3.org/Graphics/SVG/1.1/DTD/svg11.dtd">
<svg xmlns="http://www.w3.org/2000/svg" xml:space="preserve" width="580px" height="580px" shape-rendering="geometricPrecision" text-rendering="geometricPrecision" image-rendering="optimizeQuality" fill-rule="nonzero" clip-rule="nonzero" viewBox="0 0 5800 5800" xmlns:xlink="http://www.w3.org/1999/xlink">
	<title>printer_network icon</title>
	<desc>printer_network icon from the IconExperience.com I-Collection. Copyright by INCORS GmbH (www.incors.com).</desc>
		<path id="curve29" d="M1700 5300l1000 0 0 -100 100 0 0 -300 -2000 0c-275,0 -500,-225 -500,-500l0 -1600c0,-275 225,-500 500,-500l4200 0c275,0 500,225 500,500l0 1600c0,275 -225,500 -500,500l-2000 0 0 300 100 0 0 100 1000 0 0 200 -1000 0 0 100c-133,0 -267,0 -400,0l0 -100 -1000 0 0 -200zm2800 -1200l-3200 0 0 100c0,55 45,100 100,100l3000 0c55,0 100,-45 100,-100l0 -100zm-2800 -1400c110,0 200,90 200,200 0,110 -90,200 -200,200 -110,0 -200,-90 -200,-200 0,-110 90,-200 200,-200zm-600 0c110,0 200,90 200,200 0,110 -90,200 -200,200 -110,0 -200,-90 -200,-200 0,-110 90,-200 200,-200zm300 1000l3000 0c165,0 300,135 300,300l0 200c0,165 -135,300 -300,300l-3000 0c-165,0 -300,-135 -300,-300l0 -200c0,-165 135,-300 300,-300zm3600 -1200l-4200 0c-165,0 -300,135 -300,300l0 1600c0,165 135,300 300,300l4200 0c165,0 300,-135 300,-300l0 -1600c0,-165 -135,-300 -300,-300z"/>
	<path id="curve28" d="M4500 300l0 1800 -200 0 0 -1600 -2800 0 0 1600 -200 0 0 -1800 3200 0zm-2600 600l2000 0 0 200 -2000 0 0 -200zm0 400l2000 0 0 200 -2000 0 0 -200zm0 400l2000 0 0 200 -2000 0 0 -200z"/>
</svg>