<?xml version="1.0" encoding="UTF-8"?>
<!DOCTYPE svg PUBLIC "-//W3C//DTD SVG 1.1//EN" "http://www.w3.org/Graphics/SVG/1.1/DTD/svg11.dtd">
<svg xmlns="http://www.w3.org/2000/svg" xml:space="preserve" width="580px" height="580px" shape-rendering="geometricPrecision" text-rendering="geometricPrecision" image-rendering="optimizeQuality" fill-rule="nonzero" clip-rule="nonzero" viewBox="0 0 5800 5800" xmlns:xlink="http://www.w3.org/1999/xlink">
	<title>printer_photo icon</title>
	<desc>printer_photo icon from the IconExperience.com I-Collection. Copyright by INCORS GmbH (www.incors.com).</desc>
	<path id="curve0"  d="M2009 1412l26 400c-36,148 10,322 133,417l3 71 -871 0 0 -2000 3200 0 0 2000 -881 0 10 -66c130,-94 177,-270 141,-422l26 -403c15,-195 -96,-388 -248,-504 -130,-99 -297,-146 -455,-92 -112,-69 -228,-91 -359,-88 -338,6 -658,215 -716,563 -6,39 -9,80 -9,124zm-309 1488c-110,0 -200,90 -200,200 0,110 90,200 200,200 110,0 200,-90 200,-200 0,-110 -90,-200 -200,-200zm-600 0c-110,0 -200,90 -200,200 0,110 90,200 200,200 110,0 200,-90 200,-200 0,-110 -90,-200 -200,-200zm3900 -400c275,0 500,225 500,500l0 1600c0,275 -225,500 -500,500l-4200 0c-275,0 -500,-225 -500,-500l0 -1600c0,-275 225,-500 500,-500 1400,0 2801,0 4200,0zm-3600 1400c-165,0 -300,135 -300,300l0 200c0,165 135,300 300,300l3000 0c165,0 300,-135 300,-300l0 -200c0,-165 -135,-300 -300,-300l-3000 0zm-100 400l3200 0 0 100c0,55 -45,100 -100,100l-3000 0c-55,0 -100,-45 -100,-100l0 -100z"/>
</svg>