<?xml version="1.0" encoding="UTF-8"?>
<!DOCTYPE svg PUBLIC "-//W3C//DTD SVG 1.1//EN" "http://www.w3.org/Graphics/SVG/1.1/DTD/svg11.dtd">
<svg xmlns="http://www.w3.org/2000/svg" xml:space="preserve" width="580px" height="580px" shape-rendering="geometricPrecision" text-rendering="geometricPrecision" image-rendering="optimizeQuality" fill-rule="nonzero" clip-rule="nonzero" viewBox="0 0 1024 1024" xmlns:xlink="http://www.w3.org/1999/xlink">
	<path d="M900.6,574.8c-4.7,29.9-12.8,59.3-24.1,87.5l44.6,17.8c12.6-31.5,21.6-64.4,26.9-97.8L900.6,574.8z"/>
	<path d="M136.1,676.1c-14.6-39.1-23-81-24.4-124.4c-3.6-106.3,34.4-209,107-289.2C365.9,100,612,81.1,772.1,218.3
		l-146.3-1.8l-0.6,48l200.5,2.4c0.1,0,0.2,0,0.3,0c9.9,0,18.7-6,22.3-15.2c2.4-6.2,2.1-12.9-0.5-18.7L821,44l-47.5,6.8l17.2,120.6
		c-38.8-30.8-82.1-54.3-129.3-70.2C607.2,83,550.5,75.7,492.7,79.5C435,83.3,379.1,98,326.6,123.1
		c-54.3,26-102.6,62.1-143.5,107.3c-40.9,45.2-72,96.8-92.5,153.4c-19.8,54.7-28.8,111.8-26.9,169.6c1.8,54.7,13.4,107.4,34.5,157
		c0.1,0.3,0.3,0.7,0.4,1c0.6,1.5,1.3,3,1.9,4.5c0.2,0.4,0.4,0.9,0.6,1.3c0.3,0.6,0.5,1.2,0.8,1.8c0.3,0.7,0.6,1.4,1,2.1
		c0.3,0.7,0.7,1.4,1,2.2c0.6,1.3,1.2,2.6,1.8,3.8c0.3,0.6,0.6,1.2,0.9,1.8c0.7,1.4,1.3,2.8,2,4.1c0.2,0.5,0.5,1,0.7,1.5
		c0.7,1.5,1.5,3,2.3,4.5c0.2,0.4,0.4,0.7,0.6,1.1c0.8,1.6,1.7,3.2,2.5,4.8c0.1,0.2,0.2,0.5,0.4,0.7c0.9,1.7,1.8,3.4,2.8,5.1
		c0.1,0.1,0.1,0.2,0.2,0.3c2.6,4.8,5.4,9.5,8.2,14.1l0,0c3.7,6.2,7.6,12.3,11.7,18.2l39.7-26.9
		C160.7,731.5,146.8,704.5,136.1,676.1L136.1,676.1z"/>
	<path d="M334.2,940.9c31.4,12.5,64.5,21.2,98.3,26.1l6.8-47.5c-30-4.3-59.4-12.1-87.4-23.2L334.2,940.9z"/>
	<path d="M220.7,809l-34.3,33.6c5.9,6.1,12.1,12,18.4,17.7c18.9,17.1,39.4,32.6,60.9,46l25.4-40.7
		c-19.1-11.9-37.3-25.6-54-40.8C231.5,819.7,226,814.4,220.7,809z"/>
	<path d="M661.4,887.3l19.8,43.7c30.8-13.9,60.1-31.3,87.2-51.7l-28.9-38.3C715.3,859.3,689,874.9,661.4,887.3z"/>
	<path d="M798.3,787.3c-2.5,2.8-5.1,5.5-7.7,8.2l34.7,33.1c2.9-3,5.7-6.1,8.5-9.2c20-22,37.8-46,53.1-71.2l-41-24.9
		C832.3,746,816.2,767.5,798.3,787.3z"/>
	<path d="M507.3,923.1l1.5,48c33.8-1,67.5-5.9,100.4-14.6L597,910.1C567.7,917.8,537.5,922.2,507.3,923.1z"/>
	<path d="M722.5,671c10.7,0,20.5-7.2,23.2-18c0.5-2,0.8-4,0.8-6c0-10.7-7.2-20.5-18-23.2l-214.3-55V294.4
		c0-13.3-10.7-24-24-24s-24,10.7-24,24v283.4c0,1.6,0.2,3.2,0.5,4.8c-0.3,1.6-0.5,3.2-0.5,4.8c0,10.7,7.2,20.5,18,23.2l232.4,59.6
		C718.5,670.7,720.5,671,722.5,671z"/>
</svg>
