<?xml version="1.0" encoding="utf-8"?>
<!-- Generator: Adobe Illustrator 22.0.0, SVG Export Plug-In . SVG Version: 6.00 Build 0)  -->
<svg version="1.1" id="Ebene_1" xmlns="http://www.w3.org/2000/svg" xmlns:xlink="http://www.w3.org/1999/xlink" x="0px" y="0px"
	 viewBox="0 0 580 580" style="enable-background:new 0 0 580 580;" xml:space="preserve">
<g id="processes_x5F_gi">
	<g>
		<rect x="96.2" y="409" width="64.7" height="20"/>
		<rect x="96.2" y="199" width="288.8" height="20"/>
		<rect x="96.2" y="269" width="64.7" height="20"/>
		<rect x="96.2" y="339" width="64.7" height="20"/>
		<polygon points="340.9,42 43,42 43,502 160.9,502 160.9,482 63,482 63,62 331,62 331,129 96.2,129 96.2,149 331,149 331,175 
			419,175 419,258 439,258 439,168 		"/>
	</g>
	<path id="curve28_117_" d="M526.6,540L409.7,431.5L391.2,447c-11.2,9.3-27.2,9.3-38.4,0l-18.5-15.5L218.1,540H526.6z M202,527.7
		l116.8-109.1L202,321.3V527.7z M182,280h380c0,93.4,0,186.7,0,280H182C182,466.7,182,373.3,182,280z M542,321.3l-116.8,97.3
		L542,527.1V321.3z M536.4,300H207.6l158,131.7c3.7,3.1,9.1,3.1,12.8,0L536.4,300z"/>
</g>
</svg>
