<?xml version="1.0" encoding="UTF-8"?>
<!DOCTYPE svg PUBLIC "-//W3C//DTD SVG 1.1//EN" "http://www.w3.org/Graphics/SVG/1.1/DTD/svg11.dtd">
<svg xmlns="http://www.w3.org/2000/svg" xml:space="preserve" width="580px" height="580px" shape-rendering="geometricPrecision" text-rendering="geometricPrecision" image-rendering="optimizeQuality" fill-rule="nonzero" clip-rule="nonzero" viewBox="0 0 5800 5800" xmlns:xlink="http://www.w3.org/1999/xlink">
	<title>progress_bar icon</title>
	<desc>progress_bar icon from the IconExperience.com I-Collection. Copyright by INCORS GmbH (www.incors.com).</desc>
		<path id="curve28"  d="M5500 1900l0 2000 -5200 0 0 -2000 5200 0zm-200 200l-4800 0 0 1600 4800 0 0 -1600zm-4000 200l0 1200c-200,0 -400,0 -600,0l0 -1200c200,0 400,0 600,0zm-200 200l-200 0 0 800 200 0 0 -800zm1000 -200l0 1200c-200,0 -400,0 -600,0l0 -1200c200,0 400,0 600,0zm-200 200l-200 0 0 800 200 0 0 -800zm1000 -200l0 1200c-200,0 -400,0 -600,0l0 -1200c200,0 400,0 600,0zm-200 200l-200 0 0 800 200 0 0 -800zm1000 -200l0 1200c-200,0 -400,0 -600,0l0 -1200c200,0 400,0 600,0zm-200 200l-200 0 0 800 200 0 0 -800z"/>
</svg>