<?xml version="1.0" encoding="UTF-8"?>
<!DOCTYPE svg PUBLIC "-//W3C//DTD SVG 1.1//EN" "http://www.w3.org/Graphics/SVG/1.1/DTD/svg11.dtd">
<svg xmlns="http://www.w3.org/2000/svg" xml:space="preserve" width="580px" height="580px" shape-rendering="geometricPrecision" text-rendering="geometricPrecision" image-rendering="optimizeQuality" fill-rule="nonzero" clip-rule="nonzero" viewBox="0 0 5800 5800" xmlns:xlink="http://www.w3.org/1999/xlink">
	<title>projector icon</title>
	<desc>projector icon from the IconExperience.com I-Collection. Copyright by INCORS GmbH (www.incors.com).</desc>
		<path id="curve28"  d="M2000 3500l0 200c331,0 600,-269 600,-600l-200 0c0,221 -179,400 -400,400zm1700 -200l0 200 1200 0 0 -200 -1200 0zm0 -400l0 200 1200 0 0 -200 -1200 0zm0 -400l0 200 1200 0 0 -200 -1200 0zm-1700 -200c442,0 800,358 800,800 0,442 -358,800 -800,800 -442,0 -800,-358 -800,-800 0,-442 358,-800 800,-800zm-1000 800c0,552 448,1000 1000,1000 552,0 1000,-448 1000,-1000 0,-552 -448,-1000 -1000,-1000 -552,0 -1000,448 -1000,1000zm-300 -1200l579 0c217,-131 468,-200 721,-200 253,0 504,69 721,200l2379 0c220,0 400,180 400,400l0 1800c0,220 -180,400 -400,400l0 200 -1000 0 0 -200 -2400 0 0 200c-333,0 -667,0 -1000,0l0 -200c-220,0 -400,-180 -400,-400l0 -1800c0,-265 135,-400 400,-400z"/>
</svg>