<?xml version="1.0" encoding="UTF-8"?>
<!DOCTYPE svg PUBLIC "-//W3C//DTD SVG 1.1//EN" "http://www.w3.org/Graphics/SVG/1.1/DTD/svg11.dtd">
<svg xmlns="http://www.w3.org/2000/svg" xml:space="preserve" width="580px" height="580px" shape-rendering="geometricPrecision" text-rendering="geometricPrecision" image-rendering="optimizeQuality" fill-rule="nonzero" clip-rule="nonzero" viewBox="0 0 5800 5800" xmlns:xlink="http://www.w3.org/1999/xlink">
	<title>projector icon</title>
	<desc>projector icon from the IconExperience.com I-Collection. Copyright by INCORS GmbH (www.incors.com).</desc>
		<path id="curve28" d="M700 1900l579 0c217,-131 468,-200 721,-200 253,0 504,69 721,200l2379 0c220,0 400,180 400,400l0 1800c0,220 -180,400 -400,400l0 200 -1000 0 0 -200 -2400 0 0 200c-333,0 -667,0 -1000,0l0 -200c-220,0 -400,-180 -400,-400l0 -1800c0,-220 180,-400 400,-400zm1300 1600c221,0 400,-179 400,-400l200 0c0,331 -269,600 -600,600l0 -200zm1700 -200l1200 0 0 200 -1200 0 0 -200zm0 -400l1200 0 0 200 -1200 0 0 -200zm0 -400l1200 0 0 200 -1200 0 0 -200zm-1700 -200c-442,0 -800,358 -800,800 0,442 358,800 800,800 442,0 800,-358 800,-800 0,-442 -358,-800 -800,-800zm0 -200c552,0 1000,448 1000,1000 0,552 -448,1000 -1000,1000 -552,0 -1000,-448 -1000,-1000 0,-552 448,-1000 1000,-1000zm-1300 0c-110,0 -200,90 -200,200l0 1800c0,110 90,200 200,200l200 0 0 200 600 0 0 -200 2800 0 0 200 600 0 0 -200 200 0c110,0 200,-90 200,-200l0 -1800c0,-110 -90,-200 -200,-200l-2435 0c-209,-132 -416,-200 -665,-200 -249,0 -456,68 -665,200l-635 0z"/>
</svg>