<?xml version="1.0" encoding="UTF-8"?>
<!DOCTYPE svg PUBLIC "-//W3C//DTD SVG 1.1//EN" "http://www.w3.org/Graphics/SVG/1.1/DTD/svg11.dtd">
<svg xmlns="http://www.w3.org/2000/svg" xml:space="preserve" width="580px" height="580px" shape-rendering="geometricPrecision" text-rendering="geometricPrecision" image-rendering="optimizeQuality" fill-rule="nonzero" clip-rule="nonzero" viewBox="0 0 5800 5800" xmlns:xlink="http://www.w3.org/1999/xlink">
	<title>pumpkin icon</title>
	<desc>pumpkin icon from the IconExperience.com I-Collection. Copyright by INCORS GmbH (www.incors.com).</desc>
	<path id="curve0" d="M2162 5175c-396,-541 -612,-1183 -612,-1854 0,-672 216,-1314 612,-1855 38,-52 81,-99 128,-140 -60,-17 -123,-26 -190,-26 -183,0 -341,64 -469,195 -468,480 -731,1111 -731,1782 0,672 263,1303 731,1783 63,65 134,113 212,146 78,32 164,49 257,49 41,0 81,-3 119,-10 -20,-22 -39,-45 -57,-70zm328 -3984c37,-18 75,-33 114,-46 19,-106 94,-195 196,-231 0,-293 156,-547 428,-662l77 183c-198,84 -305,267 -305,479 102,36 177,125 196,231 39,13 77,28 114,46 18,-9 37,-18 57,-26 207,-87 459,-87 666,0 84,34 161,83 231,145 44,-6 90,-10 136,-10 277,0 514,125 677,348 343,467 523,1032 523,1611 0,579 -180,1144 -523,1611 -163,223 -400,348 -677,348 -35,0 -69,-2 -102,-5 -236,232 -592,304 -902,189 -148,95 -320,139 -496,139 -176,0 -348,-44 -496,-139 -201,75 -440,71 -637,-12 -97,-40 -186,-100 -265,-177 -33,3 -67,5 -102,5 -277,0 -514,-125 -677,-348 -343,-467 -523,-1032 -523,-1611 0,-579 180,-1144 523,-1611 163,-223 400,-348 677,-348 46,0 92,4 136,10 159,-141 352,-210 564,-210 137,0 269,29 390,91zm1020 135c47,41 90,88 128,140 396,541 612,1183 612,1855 0,671 -216,1313 -612,1854 -18,25 -37,48 -57,70 219,37 431,-24 588,-185 468,-480 731,-1111 731,-1783 0,-671 -263,-1302 -731,-1782 -63,-65 -134,-114 -212,-146 -136,-57 -305,-64 -447,-23zm1406 3426c318,-434 484,-955 484,-1493 0,-538 -166,-1059 -484,-1493 -115,-158 -276,-252 -472,-265 422,498 656,1122 656,1776 0,637 -221,1245 -623,1737 182,-20 331,-114 439,-262zm-3560 -3251c-196,13 -357,107 -472,265 -318,434 -484,955 -484,1493 0,538 166,1059 484,1493 108,148 257,242 439,262 -402,-492 -623,-1100 -623,-1737 0,-654 234,-1278 656,-1776zm967 3556c139,189 344,284 577,284 233,0 438,-95 577,-284 371,-506 573,-1108 573,-1736 0,-629 -202,-1230 -573,-1737 -139,-189 -344,-284 -577,-284 -233,0 -438,95 -577,284 -371,507 -573,1108 -573,1737 0,628 202,1230 573,1736z"/>
</svg>