<?xml version="1.0" encoding="UTF-8"?>
<!DOCTYPE svg PUBLIC "-//W3C//DTD SVG 1.1//EN" "http://www.w3.org/Graphics/SVG/1.1/DTD/svg11.dtd">
<svg xmlns="http://www.w3.org/2000/svg" xml:space="preserve" width="580px" height="580px" shape-rendering="geometricPrecision" text-rendering="geometricPrecision" image-rendering="optimizeQuality" fill-rule="nonzero" clip-rule="nonzero" viewBox="0 0 5800 5800" xmlns:xlink="http://www.w3.org/1999/xlink">
	<title>pumpkin icon</title>
	<desc>pumpkin icon from the IconExperience.com I-Collection. Copyright by INCORS GmbH (www.incors.com).</desc>
	<path id="curve0"  d="M4169 5060c231,-237 417,-517 543,-825 121,-295 188,-619 188,-958 0,-339 -67,-662 -188,-958 -121,-294 -445,-840 -755,-970 -136,-57 -305,-64 -447,-23 245,218 483,718 584,1022 101,308 156,634 156,973 0,338 -55,665 -156,972 -99,300 -301,715 -513,952 220,37 432,-25 588,-185zm-973 -3915c-19,-106 -94,-195 -196,-231l0 -18c0,-201 120,-382 305,-461l-77 -183c-259,109 -428,363 -428,644l0 18c-102,36 -177,125 -196,231 93,-30 192,-45 296,-45 104,0 203,15 296,45zm-906 181c-142,-41 -311,-34 -447,23 -310,130 -634,676 -755,970 -121,296 -188,619 -188,958 0,339 67,663 188,958 126,308 312,588 543,825 156,160 368,222 588,185 -212,-237 -414,-652 -513,-952 -101,-307 -156,-634 -156,-972 0,-339 55,-665 156,-973 101,-304 339,-804 584,-1022zm-394 2904c98,298 243,576 427,827 139,189 344,284 577,284 233,0 438,-95 577,-284 184,-251 329,-529 427,-827 95,-287 146,-592 146,-909 0,-317 -51,-623 -146,-910 -98,-298 -243,-576 -427,-827 -139,-189 -344,-284 -577,-284 -233,0 -438,95 -577,284 -184,251 -329,529 -427,827 -95,287 -146,593 -146,910 0,317 51,622 146,909zm-360 -2920c-175,-27 -359,-1 -516,80 -335,172 -576,680 -686,1020 -87,267 -134,553 -134,849 0,297 47,582 134,850 110,340 351,847 686,1020 147,75 318,103 482,84 -5,-5 -9,-9 -14,-14 -248,-255 -448,-556 -584,-888 -132,-320 -204,-669 -204,-1034 0,-364 72,-713 204,-1033 130,-318 374,-704 632,-934zm2762 3903c164,19 335,-9 482,-84 335,-173 576,-680 686,-1020 87,-268 134,-553 134,-850 0,-296 -47,-582 -134,-849 -110,-340 -351,-848 -686,-1020 -157,-81 -341,-107 -516,-80 16,15 32,30 48,46 248,255 448,556 584,888 132,320 204,669 204,1033 0,365 -72,714 -204,1034 -133,326 -347,654 -598,902z"/>
</svg>