<?xml version="1.0" encoding="UTF-8"?>
<!DOCTYPE svg PUBLIC "-//W3C//DTD SVG 1.1//EN" "http://www.w3.org/Graphics/SVG/1.1/DTD/svg11.dtd">
<svg xmlns="http://www.w3.org/2000/svg" xml:space="preserve" width="580px" height="580px" shape-rendering="geometricPrecision" text-rendering="geometricPrecision" image-rendering="optimizeQuality" fill-rule="nonzero" clip-rule="nonzero" viewBox="0 0 5800 5800" xmlns:xlink="http://www.w3.org/1999/xlink">
	<title>pumpkin_halloween icon</title>
	<desc>pumpkin_halloween icon from the IconExperience.com I-Collection. Copyright by INCORS GmbH (www.incors.com).</desc>
	<path id="curve0" d="M3832 3821l-64 433 318 -172c74,95 137,200 187,313l96 218c-514,-195 -906,-313 -1469,-313 -563,0 -955,118 -1469,313l96 -218c50,-112 113,-217 187,-313l317 172 -64 -433 396 327 24 -535 313 487 200 -500 200 500 312 -486 24 534 396 -327zm-1827 1179l245 0c162,200 394,300 650,300 256,0 488,-100 650,-300l245 0c-44,67 -88,129 -143,187 176,31 367,8 526,-74 111,-57 206,-141 281,-249 258,-374 396,-810 396,-1264 0,-454 -138,-890 -396,-1264 -153,-221 -386,-336 -654,-336 -84,0 -164,11 -239,33 69,57 130,124 184,201 45,64 86,129 125,197 -75,-11 -151,-5 -222,17 -21,-34 -43,-67 -66,-100 -161,-230 -408,-348 -687,-348 -279,0 -526,118 -687,348 -23,33 -45,66 -66,100 -73,-23 -149,-28 -222,-17 39,-68 80,-133 125,-197 54,-77 116,-145 185,-202 -74,-21 -153,-32 -235,-32 -268,0 -501,115 -654,336 -258,374 -396,810 -396,1264 0,454 138,890 396,1264 75,108 170,192 281,249 158,82 347,105 522,75 -55,-59 -100,-121 -144,-188zm439 -3101c52,-24 106,-45 162,-60 22,-102 96,-187 194,-222 0,-291 156,-547 428,-662l77 184c-198,84 -305,267 -305,478 98,35 172,120 194,222 57,16 112,36 165,61 134,-66 285,-100 446,-100 190,0 375,49 537,151 157,5 305,38 436,98 145,65 270,161 368,286 288,363 454,800 454,1265 0,465 -166,902 -454,1265 -197,250 -490,374 -804,384 -257,163 -594,194 -880,94 -169,107 -363,157 -562,157 -198,0 -392,-50 -560,-156 -285,99 -620,67 -876,-95 -316,-8 -612,-133 -810,-384 -288,-363 -454,-800 -454,-1265 0,-465 166,-902 454,-1265 98,-125 223,-221 368,-286 133,-61 282,-94 442,-99 161,-101 346,-150 536,-150 160,0 310,34 444,99zm-1262 3078c-281,-406 -432,-883 -432,-1377 0,-494 151,-971 432,-1377 7,-10 14,-20 21,-30 -155,48 -292,137 -393,265 -261,329 -410,721 -410,1142 0,421 149,813 410,1142 78,98 178,175 294,227 32,15 65,27 99,38 -7,-10 -14,-20 -21,-30zm3421 28c32,-10 63,-22 93,-36 116,-52 216,-129 294,-227 261,-329 410,-721 410,-1142 0,-421 -149,-813 -410,-1142 -100,-126 -234,-215 -387,-263 293,395 452,915 452,1405 0,494 -151,971 -432,1377 -6,9 -13,19 -20,28zm-2231 -1630c-248,0 -496,0 -744,0 124,-217 248,-434 372,-651 124,217 248,434 372,651zm1800 0c-248,0 -496,0 -744,0 124,-217 248,-434 372,-651 124,217 248,434 372,651z"/>
</svg>