<?xml version="1.0" encoding="UTF-8"?>
<!DOCTYPE svg PUBLIC "-//W3C//DTD SVG 1.1//EN" "http://www.w3.org/Graphics/SVG/1.1/DTD/svg11.dtd">
<svg xmlns="http://www.w3.org/2000/svg" xml:space="preserve" width="580px" height="580px" shape-rendering="geometricPrecision" text-rendering="geometricPrecision" image-rendering="optimizeQuality" fill-rule="nonzero" clip-rule="nonzero" viewBox="0 0 5800 5800" xmlns:xlink="http://www.w3.org/1999/xlink">
	<title>pumpkin_halloween icon</title>
	<desc>pumpkin_halloween icon from the IconExperience.com I-Collection. Copyright by INCORS GmbH (www.incors.com).</desc>
	<path id="curve0"  d="M2606 1839c22,-102 96,-187 194,-222l0 -17c0,-281 169,-535 428,-645l77 184c-185,78 -305,260 -305,461l0 17c98,35 172,120 194,222 -93,-26 -192,-39 -294,-39 -102,0 -201,13 -294,39zm-892 2243c-74,96 -137,201 -187,313l-96 218 223 -85c400,-152 819,-228 1246,-228 427,0 846,76 1246,228l223 85 -96 -218c-50,-113 -113,-218 -187,-313l-318 172 64 -429 -396 323 -24 -534 -312 486 -200 -500 -200 500 -313 -487 -24 535 -396 -322 64 428 -317 -172zm2458 -707l-372 -651 -372 651c248,0 496,0 744,0zm-1800 0c-124,-217 -248,-434 -372,-651 -124,217 -248,434 -372,651 248,0 496,0 744,0zm-447 -944c73,-11 149,-6 222,17 97,-155 193,-272 361,-358 237,-120 547,-120 784,0 169,86 264,203 361,358 71,-22 147,-28 222,-17 -84,-147 -178,-288 -309,-398 198,-58 429,-41 612,54 111,57 206,141 281,249 127,184 228,387 295,604 134,427 134,893 0,1320 -67,217 -168,420 -295,604 -153,221 -386,336 -654,336 -94,0 -184,-14 -266,-42 -347,322 -929,323 -1276,1 -82,27 -170,41 -263,41 -268,0 -501,-115 -654,-336 -127,-184 -228,-387 -295,-604 -134,-427 -134,-893 0,-1320 67,-217 168,-420 295,-604 75,-108 170,-192 281,-249 182,-94 411,-111 608,-55 -132,110 -226,251 -310,399zm2417 2818c157,-5 305,-38 436,-98 145,-65 270,-161 368,-286 146,-183 260,-386 338,-602 154,-430 154,-896 0,-1326 -78,-216 -192,-419 -338,-602 -98,-125 -223,-221 -368,-286 -131,-60 -279,-93 -436,-98 109,69 204,160 281,272 139,201 248,422 322,657 146,466 146,974 0,1440 -74,235 -183,456 -322,657 -77,112 -172,203 -281,272zm-2878 0c-160,-4 -309,-37 -442,-98 -145,-65 -270,-161 -368,-286 -146,-183 -260,-386 -338,-602 -154,-430 -154,-896 0,-1326 78,-216 192,-419 338,-602 98,-125 223,-221 368,-286 133,-61 282,-94 442,-99 -110,69 -205,161 -282,273 -139,201 -248,422 -322,657 -146,466 -146,974 0,1440 74,235 183,456 322,657 77,112 172,204 282,272z"/>
</svg>