<?xml version="1.0" encoding="UTF-8"?>
<!DOCTYPE svg PUBLIC "-//W3C//DTD SVG 1.1//EN" "http://www.w3.org/Graphics/SVG/1.1/DTD/svg11.dtd">
<svg xmlns="http://www.w3.org/2000/svg" xml:space="preserve" width="580px" height="580px" shape-rendering="geometricPrecision" text-rendering="geometricPrecision" image-rendering="optimizeQuality" fill-rule="nonzero" clip-rule="nonzero" viewBox="0 0 5800 5800" xmlns:xlink="http://www.w3.org/1999/xlink">
	<title>punching_bag icon</title>
	<desc>punching_bag icon from the IconExperience.com I-Collection. Copyright by INCORS GmbH (www.incors.com).</desc>
	<path id="curve0" d="M1100 5600l0 -5400 2200 0 0 378 310 671c409,134 690,518 690,951l0 2900c0,275 -225,500 -500,500l-1200 0c-275,0 -500,-225 -500,-500l0 -2900c0,-433 281,-817 690,-951l310 -670 0 -179 -1800 0 0 5200 -200 0zm2640 -4067l151 325c23,50 1,110 -49,133 -50,23 -110,1 -133,-49l-241 -524c-55,-12 -111,-18 -168,-18l-200 0c-57,0 -113,6 -167,17l-242 525c-23,50 -83,72 -133,49 -50,-23 -72,-83 -49,-133l151 -325c-224,148 -360,397 -360,667l0 614c595,86 1205,86 1800,0l0 -614c0,-269 -136,-519 -360,-667zm-372 -331l-168 -364 -168 365c22,-2 45,-3 68,-3l200 0c23,0 45,1 68,2zm-1068 1814l0 1398c594,86 1206,86 1800,0l0 -1398c-596,83 -1204,83 -1800,0zm0 1600l0 484c0,165 135,300 300,300l1200 0c165,0 300,-135 300,-300l0 -484c-596,83 -1204,83 -1800,0z"/>
</svg>