<?xml version="1.0" encoding="UTF-8"?>
<!DOCTYPE svg PUBLIC "-//W3C//DTD SVG 1.1//EN" "http://www.w3.org/Graphics/SVG/1.1/DTD/svg11.dtd">
<svg xmlns="http://www.w3.org/2000/svg" xml:space="preserve" width="580px" height="580px" shape-rendering="geometricPrecision" text-rendering="geometricPrecision" image-rendering="optimizeQuality" fill-rule="nonzero" clip-rule="nonzero" viewBox="0 0 5800 5800" xmlns:xlink="http://www.w3.org/1999/xlink">
	<title>punching_bag icon</title>
	<desc>punching_bag icon from the IconExperience.com I-Collection. Copyright by INCORS GmbH (www.incors.com).</desc>
	<path id="curve0"  d="M1100 5600l0 -5400 2200 0 0 378 591 1280c23,50 1,110 -49,133 -50,23 -110,1 -133,-49l-509 -1104 -509 1104c-23,50 -83,72 -133,49 -50,-23 -72,-83 -49,-133l591 -1279 0 -179 -1800 0 0 5200 -200 0zm3200 -3400l0 2900c0,275 -225,500 -500,500l-1200 0c-275,0 -500,-225 -500,-500l0 -2900c0,-380 216,-726 554,-895l-235 511c-47,100 -3,219 97,265 100,47 219,3 265,-97l362 -784 114 0 362 784c46,100 165,144 265,97 100,-46 144,-165 97,-265l-236 -511c339,169 555,515 555,895zm-200 614c-297,43 -598,64 -900,64 -302,0 -603,-21 -900,-64l0 202c299,41 600,62 900,62 300,0 601,-21 900,-62l0 -202zm0 1600c-297,43 -598,64 -900,64 -302,0 -603,-21 -900,-64l0 202c299,41 600,62 900,62 300,0 601,-21 900,-62l0 -202z"/>
</svg>