<?xml version="1.0" encoding="UTF-8"?>
<!DOCTYPE svg PUBLIC "-//W3C//DTD SVG 1.1//EN" "http://www.w3.org/Graphics/SVG/1.1/DTD/svg11.dtd">
<svg xmlns="http://www.w3.org/2000/svg" xml:space="preserve" width="580px" height="580px" shape-rendering="geometricPrecision" text-rendering="geometricPrecision" image-rendering="optimizeQuality" fill-rule="nonzero" clip-rule="nonzero" viewBox="0 0 5800 5800" xmlns:xlink="http://www.w3.org/1999/xlink">
	<title>purchase_order icon</title>
	<desc>purchase_order icon from the IconExperience.com I-Collection. Copyright by INCORS GmbH (www.incors.com).</desc>
		<path id="curve29"  d="M3500 300l0 1400 1400 0 0 3800 -2250 0c63,-84 100,-187 100,-300 0,-61 -11,-120 -32,-175 22,-28 40,-59 55,-92 37,-82 47,-168 34,-252 -13,-86 -50,-166 -110,-232l-113 -126 292 -1023 424 0 0 -600 -537 0c-191,0 -360,120 -424,300l-1439 0 0 -2700 2600 0zm144 13c59,16 111,48 153,90 0,3 998,999 1000,1000 42,42 74,94 90,153 -36,-34 -85,-56 -137,-56l-1050 0 0 -1050c0,-51 -21,-100 -56,-137z"/>
	<path id="curve28"  d="M3100 3100l-337 0c-23,0 -42,14 -48,36l-354 1238 188 209c33,37 54,81 61,128 16,96 -29,196 -111,249 -13,9 -28,16 -43,22 2,2 4,4 6,6 54,55 88,130 88,212 0,166 -134,300 -300,300 -165,0 -300,-135 -300,-300 0,-77 29,-147 77,-200l-854 0c48,53 77,123 77,200 0,166 -134,300 -300,300 -165,0 -300,-135 -300,-300 0,-77 29,-147 77,-200l-27 0 0 -200 1663 0c32,0 55,-27 50,-58 -1,-9 -5,-17 -13,-26l-194 -216 -1052 0c-149,0 -278,-91 -329,-231l-316 -868c-8,-23 -11,-47 -8,-70 7,-48 37,-92 80,-114 21,-11 44,-17 69,-17l1839 0 34 -119c31,-108 128,-181 240,-181l337 0 0 200z"/>
</svg>