<?xml version="1.0" encoding="UTF-8"?>
<!DOCTYPE svg PUBLIC "-//W3C//DTD SVG 1.1//EN" "http://www.w3.org/Graphics/SVG/1.1/DTD/svg11.dtd">
<svg xmlns="http://www.w3.org/2000/svg" xml:space="preserve" width="580px" height="580px" shape-rendering="geometricPrecision" text-rendering="geometricPrecision" image-rendering="optimizeQuality" fill-rule="nonzero" clip-rule="nonzero" viewBox="0 0 5800 5800" xmlns:xlink="http://www.w3.org/1999/xlink">
	<title>purchase_order icon</title>
	<desc>purchase_order icon from the IconExperience.com I-Collection. Copyright by INCORS GmbH (www.incors.com).</desc>
		<path id="curve29" d="M3550 300c96,0 184,39 247,103 0,3 998,999 1000,1000 64,63 103,151 103,247l0 3850 -2250 0c44,-58 75,-126 90,-200l1960 0 0 -3650c0,-83 -67,-150 -150,-150l-850 0 0 -850c0,-82 -68,-150 -150,-150l-2450 0 0 2500 -200 0 0 -2700 2650 0zm350 488l0 512 512 0 -512 -512z"/>
	<path id="curve28" d="M2206 4500l-1052 0c-149,0 -278,-91 -329,-231l-316 -868c-8,-23 -11,-47 -8,-70 7,-48 37,-92 80,-114 21,-11 44,-17 69,-17l1839 0 34 -119c31,-108 128,-181 240,-181l337 0 0 200 -337 0c-23,0 -42,14 -48,36l-354 1238 188 209c67,74 83,178 42,269 -20,45 -52,82 -92,108 -13,9 -28,16 -43,22 60,57 94,135 94,218 0,166 -134,300 -300,300 -165,0 -300,-135 -300,-300 0,-77 29,-147 77,-200l-854 0c48,53 77,123 77,200 0,166 -134,300 -300,300 -165,0 -300,-135 -300,-300 0,-77 29,-147 77,-200l-27 0 0 -200 1663 0c45,0 67,-50 37,-84l-194 -216zm226 -1100l-1711 0 292 801c22,62 75,99 141,99l1021 0 257 -900zm-1482 1700c-56,0 -100,44 -100,100 0,56 44,100 100,100 55,0 100,-45 100,-100 0,-56 -44,-100 -100,-100zm1300 0c-56,0 -100,44 -100,100 0,56 44,100 100,100 55,0 100,-45 100,-100 0,-56 -44,-100 -100,-100z"/>
</svg>