<?xml version="1.0" encoding="UTF-8"?>
<!DOCTYPE svg PUBLIC "-//W3C//DTD SVG 1.1//EN" "http://www.w3.org/Graphics/SVG/1.1/DTD/svg11.dtd">
<svg xmlns="http://www.w3.org/2000/svg" xml:space="preserve" width="580px" height="580px" shape-rendering="geometricPrecision" text-rendering="geometricPrecision" image-rendering="optimizeQuality" fill-rule="nonzero" clip-rule="nonzero" viewBox="0 0 5800 5800" xmlns:xlink="http://www.w3.org/1999/xlink">
	<title>purse icon</title>
	<desc>purse icon from the IconExperience.com I-Collection. Copyright by INCORS GmbH (www.incors.com).</desc>
		<path id="curve28"  d="M5375 3522c78,183 125,379 125,578 0,773 -627,1400 -1400,1400l-2400 0c-773,0 -1400,-627 -1400,-1400 0,-199 47,-395 125,-578l531 -1240c48,-111 155,-182 276,-182l3336 0c121,0 228,71 276,182l531 1240zm-1555 -2022c-49,-69 -117,-123 -194,-157 -59,154 -207,257 -373,257 -90,0 -174,-30 -241,-80 38,-60 66,-128 80,-200 39,51 97,80 161,80 110,0 200,-90 200,-200 0,-111 -90,-200 -200,-200 -64,0 -123,30 -160,80 -15,-72 -43,-140 -81,-200 67,-50 150,-80 241,-80 197,0 365,145 395,339 178,58 324,190 401,361l-229 0zm1180 200c165,0 300,135 300,300l0 500 -200 0 0 -500c0,-55 -45,-100 -100,-100l-4200 0c-55,0 -100,45 -100,100l0 500 -200 0 0 -500c0,-165 135,-300 300,-300l904 0c25,-240 180,-447 403,-540 20,-204 193,-360 398,-360 220,0 400,179 400,400 0,220 -180,400 -400,400 -158,0 -301,-93 -365,-236 -126,70 -213,193 -235,336 1032,0 2063,0 3095,0zm192 1900l-532 -1240c-17,-39 -50,-60 -92,-60l-3336 0c-42,0 -75,21 -92,60l-532 1240c-68,160 -108,326 -108,500 0,663 537,1200 1200,1200l2400 0c663,0 1200,-537 1200,-1200 0,-174 -40,-340 -108,-500zm-2687 -2600c-111,0 -200,89 -200,200 0,110 89,200 200,200 111,0 200,-89 200,-200 0,-110 -90,-200 -200,-200z"/>
</svg>