<?xml version="1.0" encoding="UTF-8"?>
<!DOCTYPE svg PUBLIC "-//W3C//DTD SVG 1.1//EN" "http://www.w3.org/Graphics/SVG/1.1/DTD/svg11.dtd">
<svg xmlns="http://www.w3.org/2000/svg" xml:space="preserve" width="580px" height="580px" shape-rendering="geometricPrecision" text-rendering="geometricPrecision" image-rendering="optimizeQuality" fill-rule="nonzero" clip-rule="nonzero" viewBox="0 0 5800 5800" xmlns:xlink="http://www.w3.org/1999/xlink">
	<title>purse icon</title>
	<desc>purse icon from the IconExperience.com I-Collection. Copyright by INCORS GmbH (www.incors.com).</desc>
		<path id="curve29"  d="M5375 3522c78,183 125,379 125,578 0,387 -157,737 -410,990 -253,253 -603,410 -990,410l-2400 0c-387,0 -737,-157 -990,-410 -253,-253 -410,-603 -410,-990 0,-199 47,-395 125,-578l531 -1240c48,-111 155,-182 276,-182l3336 0c121,0 228,71 276,182l531 1240z"/>
	<path id="curve28"  d="M500 2500l0 -500c0,-165 135,-300 300,-300l904 0c25,-240 180,-447 403,-540 20,-204 193,-360 398,-360 220,0 400,179 400,400 0,221 -180,400 -400,400 -158,0 -301,-93 -365,-236 -126,70 -213,193 -235,336 1032,0 2063,0 3095,0 165,0 300,135 300,300l0 500 -200 0 0 -500c0,-55 -45,-100 -100,-100l-4200 0c-55,0 -100,45 -100,100l0 500 -200 0zm3314 -1008c-48,-65 -113,-116 -188,-149 -59,154 -207,257 -373,257 -90,0 -174,-30 -241,-80 59,-93 93,-203 93,-320 0,-118 -34,-227 -93,-320 67,-50 150,-80 241,-80 197,0 365,145 395,339 131,43 244,125 326,233 29,40 55,83 75,128 -35,0 -220,11 -235,-8z"/>
</svg>