<?xml version="1.0" encoding="UTF-8"?>
<!DOCTYPE svg PUBLIC "-//W3C//DTD SVG 1.1//EN" "http://www.w3.org/Graphics/SVG/1.1/DTD/svg11.dtd">
<svg xmlns="http://www.w3.org/2000/svg" xml:space="preserve" width="580px" height="580px" shape-rendering="geometricPrecision" text-rendering="geometricPrecision" image-rendering="optimizeQuality" fill-rule="nonzero" clip-rule="nonzero" viewBox="0 0 5800 5800" xmlns:xlink="http://www.w3.org/1999/xlink">
	<title>pylon icon</title>
	<desc>pylon icon from the IconExperience.com I-Collection. Copyright by INCORS GmbH (www.incors.com).</desc>
		<path id="curve28" d="M2188 1700l1205 0 -390 -1135c-14,-41 -51,-65 -94,-65l-308 0c-46,0 -84,28 -96,72l-317 1128zm1273 200l-1330 0 -281 1000 1955 0 -344 -1000zm-860 -1600l308 0c128,0 241,79 283,200l1579 4600 729 0 0 200 -5200 0 0 -200 724 0 1288 -4582c37,-130 154,-218 289,-218zm-807 2800l-281 1000 2704 0 -344 -1000 -2079 0zm-337 1200l-225 800 3328 0 -275 -800 -2828 0z"/>
</svg>