<?xml version="1.0" encoding="UTF-8"?>
<!DOCTYPE svg PUBLIC "-//W3C//DTD SVG 1.1//EN" "http://www.w3.org/Graphics/SVG/1.1/DTD/svg11.dtd">
<svg xmlns="http://www.w3.org/2000/svg" xml:space="preserve" width="580px" height="580px" shape-rendering="geometricPrecision" text-rendering="geometricPrecision" image-rendering="optimizeQuality" fill-rule="nonzero" clip-rule="nonzero" viewBox="0 0 5800 5800" xmlns:xlink="http://www.w3.org/1999/xlink">
	<title>pylon icon</title>
	<desc>pylon icon from the IconExperience.com I-Collection. Copyright by INCORS GmbH (www.incors.com).</desc>
		<path id="curve28"  d="M2601 300l308 0c128,0 241,79 283,200l412 1200 -1624 0 332 -1182c37,-130 154,-218 289,-218zm-2301 4800l724 0 225 -800 3248 0 274 800 729 0 0 200c-1733,0 -3467,0 -5200,0l0 -200zm3373 -3200l343 1000 -2373 0 281 -1000 1749 0zm412 1200l343 1000 -3122 0 281 -1000 2498 0z"/>
</svg>