<?xml version="1.0" encoding="UTF-8"?>
<!DOCTYPE svg PUBLIC "-//W3C//DTD SVG 1.1//EN" "http://www.w3.org/Graphics/SVG/1.1/DTD/svg11.dtd">
<svg xmlns="http://www.w3.org/2000/svg" xml:space="preserve" width="580px" height="580px" shape-rendering="geometricPrecision" text-rendering="geometricPrecision" image-rendering="optimizeQuality" fill-rule="nonzero" clip-rule="nonzero" viewBox="0 0 5800 5800" xmlns:xlink="http://www.w3.org/1999/xlink">
	<title>quad icon</title>
	<desc>quad icon from the IconExperience.com I-Collection. Copyright by INCORS GmbH (www.incors.com).</desc>
	<path id="curve0"  d="M1100 3500c442,0 800,358 800,800 0,442 -358,800 -800,800 -442,0 -800,-358 -800,-800 0,-442 358,-800 800,-800zm-361 -600l61 -123c87,-173 254,-277 447,-277l853 0c77,0 162,48 256,102 109,62 235,134 307,105 119,-48 235,-185 341,-310 131,-156 250,-297 396,-297l562 0 -57 -169c-44,-132 -148,-234 -293,-234l-288 0c-55,0 -100,-45 -100,-100 0,-55 45,-100 100,-100l288 0c232,0 411,158 483,372l85 256 473 197c199,83 347,252 347,476l-305 2c-658,-1 -1224,463 -1363,1104l-864 0c-141,-654 -726,-1004 -1368,-1004l-361 0zm4461 100l0 200 -505 -1c-470,-1 -873,332 -972,790 -40,185 -201,315 -391,315l-864 0c-190,0 -351,-130 -391,-316 -101,-468 -526,-688 -977,-688l-800 0 0 -200 800 0c547,0 1052,284 1173,846 20,94 99,158 195,158l864 0c95,0 175,-64 195,-157 120,-550 604,-949 1168,-948 169,0 336,1 505,1zm-500 500c442,0 800,358 800,800 0,442 -358,800 -800,800 -442,0 -800,-358 -800,-800 0,-442 358,-800 800,-800z"/>
</svg>