<?xml version="1.0" encoding="UTF-8"?>
<!DOCTYPE svg PUBLIC "-//W3C//DTD SVG 1.1//EN" "http://www.w3.org/Graphics/SVG/1.1/DTD/svg11.dtd">
<svg xmlns="http://www.w3.org/2000/svg" xml:space="preserve" width="580px" height="580px" shape-rendering="geometricPrecision" text-rendering="geometricPrecision" image-rendering="optimizeQuality" fill-rule="nonzero" clip-rule="nonzero" viewBox="0 0 5800 5800" xmlns:xlink="http://www.w3.org/1999/xlink">
	<title>quad icon</title>
	<desc>quad icon from the IconExperience.com I-Collection. Copyright by INCORS GmbH (www.incors.com).</desc>
	<path id="curve0"  d="M639 3100l161 -323c87,-173 254,-277 447,-277l853 0c77,0 162,48 256,102 109,62 235,134 307,105 119,-48 235,-185 341,-310 131,-156 250,-297 396,-297l562 0 -57 -169c-44,-132 -148,-234 -293,-234l-288 0c-55,0 -100,-45 -100,-100 0,-55 45,-100 100,-100l288 0c232,0 411,158 483,372l85 256 473 197c199,83 347,252 347,476l0 202 200 0 0 200 -505 -1c-470,-1 -873,332 -972,790 -40,185 -201,315 -391,315l-864 0c-190,0 -351,-130 -391,-316 -101,-468 -526,-688 -977,-688l-800 0 0 -200 339 0zm461 400c442,0 800,358 800,800 0,442 -358,800 -800,800 -442,0 -800,-358 -800,-800 0,-442 358,-800 800,-800zm0 200c-331,0 -600,269 -600,600 0,331 269,600 600,600 331,0 600,-269 600,-600 0,-331 -269,-600 -600,-600zm3600 -200c442,0 800,358 800,800 0,442 -358,800 -800,800 -442,0 -800,-358 -800,-800 0,-442 358,-800 800,-800zm0 200c-331,0 -600,269 -600,600 0,331 269,600 600,600 331,0 600,-269 600,-600 0,-331 -269,-600 -600,-600zm100 -700l0 -202c0,-142 -99,-240 -223,-291l-497 -207 -680 0c-54,0 -144,107 -244,225 -121,144 -254,301 -419,368 -161,64 -332,-34 -480,-118 -69,-39 -132,-75 -157,-75l-853 0c-118,0 -216,60 -268,166l-118 234 239 0c547,0 1052,285 1173,847 20,94 99,157 195,157l864 0c96,0 175,-63 196,-157 119,-550 603,-948 1167,-947l105 0z"/>
</svg>