<?xml version="1.0" encoding="UTF-8"?>
<!DOCTYPE svg PUBLIC "-//W3C//DTD SVG 1.1//EN" "http://www.w3.org/Graphics/SVG/1.1/DTD/svg11.dtd">
<svg xmlns="http://www.w3.org/2000/svg" xml:space="preserve" width="580px" height="580px" shape-rendering="geometricPrecision" text-rendering="geometricPrecision" image-rendering="optimizeQuality" fill-rule="nonzero" clip-rule="nonzero" viewBox="0 0 5800 5800" xmlns:xlink="http://www.w3.org/1999/xlink">
	<title>question_and_answer icon</title>
	<desc>question_and_answer icon from the IconExperience.com I-Collection. Copyright by INCORS GmbH (www.incors.com).</desc>
	<path id="curve0"  d="M5030 4563c-29,340 -291,623 -606,732l-172 59 43 -177c21,-88 26,-162 -7,-205 -36,-48 -123,-76 -288,-76 -409,0 -780,-132 -1051,-344 -277,-217 -449,-520 -449,-854 0,-335 172,-637 449,-855 271,-212 642,-343 1051,-343 409,0 781,131 1051,342 278,217 449,518 449,853 0,355 -192,659 -470,868zm-2630 -3163c0,-220 -180,-400 -400,-400l-400 0c-220,0 -400,180 -400,400l0 100 200 0 0 -100c0,-111 89,-200 200,-200l400 0c110,0 200,90 200,200 0,103 -79,190 -182,200 -180,16 -318,166 -318,348l0 52 200 0 0 -52c0,-78 59,-143 136,-150 206,-19 364,-192 364,-398zm1500 2800l0 200 200 0 0 -200 -200 0zm0 -200l200 0 0 -1000 -200 0 0 1000zm-2200 -1800l0 200 200 0 0 -200 -200 0zm-930 363c-278,-209 -470,-513 -470,-868 0,-335 172,-636 449,-853 270,-211 642,-342 1051,-342 409,0 781,131 1051,343 277,218 449,520 449,855 0,334 -172,637 -449,854 -270,212 -642,344 -1051,344 -165,0 -251,28 -288,76 -33,43 -28,116 -7,205l43 177 -172 -59c-315,-109 -577,-392 -606,-732z"/>
</svg>