<?xml version="1.0" encoding="UTF-8"?>
<!DOCTYPE svg PUBLIC "-//W3C//DTD SVG 1.1//EN" "http://www.w3.org/Graphics/SVG/1.1/DTD/svg11.dtd">
<svg xmlns="http://www.w3.org/2000/svg" xml:space="preserve" width="580px" height="580px" shape-rendering="geometricPrecision" text-rendering="geometricPrecision" image-rendering="optimizeQuality" fill-rule="nonzero" clip-rule="nonzero" viewBox="0 0 5800 5800" xmlns:xlink="http://www.w3.org/1999/xlink">
	<title>question icon</title>
	<desc>question icon from the IconExperience.com I-Collection. Copyright by INCORS GmbH (www.incors.com).</desc>
		<path id="curve28"  d="M2900 300c1436,0 2600,1164 2600,2600 0,1436 -1164,2600 -2600,2600 -1436,0 -2600,-1164 -2600,-2600 0,-1436 1164,-2600 2600,-2600zm-100 4000l0 200 200 0 0 -200 -200 0zm1100 -1987c0,443 -305,608 -580,756 -273,147 -520,281 -520,614l0 304 200 0 0 -304c0,-215 197,-321 414,-438 325,-175 686,-370 686,-932 0,-692 -594,-1013 -1217,-1013 -623,0 -1183,336 -1183,1013l200 0c0,-564 473,-813 983,-813 509,0 1017,238 1017,813z"/>
</svg>