<?xml version="1.0" encoding="UTF-8"?>
<!DOCTYPE svg PUBLIC "-//W3C//DTD SVG 1.1//EN" "http://www.w3.org/Graphics/SVG/1.1/DTD/svg11.dtd">
<svg xmlns="http://www.w3.org/2000/svg" xml:space="preserve" width="580px" height="580px" shape-rendering="geometricPrecision" text-rendering="geometricPrecision" image-rendering="optimizeQuality" fill-rule="nonzero" clip-rule="nonzero" viewBox="0 0 5800 5800" xmlns:xlink="http://www.w3.org/1999/xlink">
	<title>quotation_marks icon</title>
	<desc>quotation_marks icon from the IconExperience.com I-Collection. Copyright by INCORS GmbH (www.incors.com).</desc>
		<path id="curve28"  d="M2292 3904l300 0c165,0 300,135 300,300l0 600c0,165 -135,300 -300,300l-600 0c-164,0 -300,-135 -300,-300l0 -900c0,-443 358,-799 799,-799l201 -1 0 600 -200 0c-117,0 -200,83 -200,200zm300 200l-500 0 0 -200c0,-227 174,-400 400,-400l-1 -200c-331,0 -599,269 -599,600l0 900c0,56 45,100 100,100l600 0c56,0 100,-44 100,-100l0 -600c0,-55 -44,-100 -100,-100zm-1501 -1000l201 0c0,200 0,400 0,600l-200 0c-118,0 -200,83 -200,200l300 0c165,0 300,135 300,300l0 600c0,165 -135,300 -300,300l-600 0c-165,0 -300,-135 -300,-300l-1 -900c0,-442 361,-794 800,-800zm101 1000l-500 0 0 -200c0,-227 173,-400 400,-400l-1 -200c-331,0 -600,269 -600,600l1 900c0,56 44,100 100,100l600 0c55,0 100,-44 100,-100l0 -600c0,-55 -45,-100 -100,-100zm2307 -2204l-300 0c-164,0 -300,-135 -300,-300l0 -600c0,-165 136,-300 300,-300l600 0c165,0 300,135 300,300l1 900c0,443 -358,799 -799,800l-202 0 0 -600 200 0c118,0 200,-83 200,-200zm-300 -200l500 0 0 200c0,227 -173,400 -400,400l2 200c330,0 599,-268 599,-600l-1 -900c0,-55 -44,-100 -100,-100l-600 0c-55,0 -100,45 -100,100l0 600c0,55 45,100 100,100zm1701 200l-300 0c-165,0 -300,-135 -300,-300l0 -600c0,-165 135,-300 300,-300l600 0c165,0 300,135 300,300l1 900c0,443 -358,799 -800,800l-201 0c0,-200 0,-400 0,-600l200 0c117,0 200,-83 200,-200zm-300 -200l500 0 0 200c0,227 -173,400 -400,400l1 200c331,0 600,-268 600,-600l-1 -900c0,-55 -45,-100 -100,-100l-600 0c-55,0 -100,45 -100,100l0 600c0,55 45,100 100,100z"/>
</svg>