<?xml version="1.0" encoding="UTF-8"?>
<!DOCTYPE svg PUBLIC "-//W3C//DTD SVG 1.1//EN" "http://www.w3.org/Graphics/SVG/1.1/DTD/svg11.dtd">
<svg xmlns="http://www.w3.org/2000/svg" xml:space="preserve" width="580px" height="580px" shape-rendering="geometricPrecision" text-rendering="geometricPrecision" image-rendering="optimizeQuality" fill-rule="nonzero" clip-rule="nonzero" viewBox="0 0 5800 5800" xmlns:xlink="http://www.w3.org/1999/xlink">
	<title>quotation_marks icon</title>
	<desc>quotation_marks icon from the IconExperience.com I-Collection. Copyright by INCORS GmbH (www.incors.com).</desc>
		<path id="curve28"  d="M4900 1900l-300 0c-165,0 -300,-135 -300,-300l0 -600c0,-165 135,-300 300,-300l600 0c165,0 300,135 300,300l1 900c0,443 -358,799 -800,800l-201 0c0,-200 0,-400 0,-600l200 0c117,0 200,-83 200,-200zm-1401 0l-300 0c-164,0 -300,-135 -300,-300l0 -600c0,-165 136,-300 300,-300l600 0c165,0 300,135 300,300l1 900c0,443 -358,799 -799,800l-202 0 0 -600 200 0c118,0 200,-83 200,-200zm-2607 2004l300 0c165,0 300,135 300,300l0 600c0,165 -135,300 -300,300l-600 0c-165,0 -300,-135 -300,-300l-1 -900c0,-443 358,-799 800,-799l201 -1 0 600 -200 0c-118,0 -200,83 -200,200zm1400 0l300 0c165,0 300,135 300,300l0 600c0,165 -135,300 -300,300l-600 0c-164,0 -300,-135 -300,-300l0 -900c0,-443 358,-799 799,-799l201 -1 0 600 -200 0c-117,0 -200,83 -200,200z"/>
</svg>