<?xml version="1.0" encoding="UTF-8"?>
<!DOCTYPE svg PUBLIC "-//W3C//DTD SVG 1.1//EN" "http://www.w3.org/Graphics/SVG/1.1/DTD/svg11.dtd">
<svg xmlns="http://www.w3.org/2000/svg" xml:space="preserve" width="580px" height="580px" shape-rendering="geometricPrecision" text-rendering="geometricPrecision" image-rendering="optimizeQuality" fill-rule="nonzero" clip-rule="nonzero" viewBox="0 0 5800 5800" xmlns:xlink="http://www.w3.org/1999/xlink">
	<title>quotation_mark2 icon</title>
	<desc>quotation_mark2 icon from the IconExperience.com I-Collection. Copyright by INCORS GmbH (www.incors.com).</desc>
		<path id="curve28"  d="M3900 3100l-500 0c-165,0 -300,-135 -300,-300l0 -1000c0,-165 135,-300 300,-300l1000 0c165,0 300,135 300,300l0 1300c0,663 -537,1200 -1200,1200l-200 0 0 -800 200 0c221,0 400,-179 400,-400zm-2000 0l-500 0c-165,0 -300,-135 -300,-300l0 -1000c0,-165 135,-300 300,-300l1000 0c165,0 300,135 300,300l0 1300c0,663 -537,1200 -1200,1200l-200 0 0 -800 200 0c221,0 400,-179 400,-400z"/>
</svg>