<?xml version="1.0" encoding="UTF-8"?>
<!DOCTYPE svg PUBLIC "-//W3C//DTD SVG 1.1//EN" "http://www.w3.org/Graphics/SVG/1.1/DTD/svg11.dtd">
<svg xmlns="http://www.w3.org/2000/svg" xml:space="preserve" width="580px" height="580px" shape-rendering="geometricPrecision" text-rendering="geometricPrecision" image-rendering="optimizeQuality" fill-rule="nonzero" clip-rule="nonzero" viewBox="0 0 5800 5800" xmlns:xlink="http://www.w3.org/1999/xlink">
	<title>rack_server_network icon</title>
	<desc>rack_server_network icon from the IconExperience.com I-Collection. Copyright by INCORS GmbH (www.incors.com).</desc>
		<path id="curve28"  d="M3600 2900l0 300 300 0 0 -300 -300 0zm-1900 2400l1000 0 0 -100 100 0 0 -900 -2600 0 -100 0 0 -100 0 -800 300 0c55,0 100,-45 100,-100 0,-55 -45,-100 -100,-100l-300 0 0 -900 5600 0 0 900 -300 0c-55,0 -100,45 -100,100 0,55 45,100 100,100l300 0 0 900 -2700 0 0 900 100 0 0 100 1000 0 0 200 -1000 0 0 100c-133,0 -267,0 -400,0l0 -100 -1000 0 0 -200zm3800 -2800l-5200 0 0 500 100 0c165,0 300,135 300,300 0,165 -135,300 -300,300l-100 0 0 500 5200 0 0 -500 -100 0c-165,0 -300,-135 -300,-300 0,-165 135,-300 300,-300l100 0 0 -500zm-1600 900l-300 0 0 300 300 0 0 -300zm-500 300l0 -300 -300 0 0 300 300 0zm-500 0l0 -300 -300 0 0 300 300 0zm-500 0l0 -300 -300 0 0 300 300 0zm-500 0l0 -300 -300 0 0 300 300 0zm-500 0l0 -300 -300 0 0 300 300 0zm-300 -500l300 0 0 -300 -300 0 0 300zm500 -300l0 300 300 0 0 -300 -300 0zm500 0l0 300 300 0 0 -300 -300 0zm500 0l0 300 300 0 0 -300 -300 0zm500 0l0 300 300 0 0 -300 -300 0zm1000 -200c0,400 0,800 0,1200 -1067,0 -2133,0 -3200,0 0,-400 0,-800 0,-1200 1067,0 2133,0 3200,0zm500 300c166,0 300,134 300,300 0,165 -135,300 -300,300 -166,0 -300,-134 -300,-300 0,-165 135,-300 300,-300zm0 200c-56,0 -100,44 -100,100 0,55 45,100 100,100 56,0 100,-44 100,-100 0,-55 -45,-100 -100,-100z"/>
</svg>