<?xml version="1.0" encoding="UTF-8"?>
<!DOCTYPE svg PUBLIC "-//W3C//DTD SVG 1.1//EN" "http://www.w3.org/Graphics/SVG/1.1/DTD/svg11.dtd">
<svg xmlns="http://www.w3.org/2000/svg" xml:space="preserve" width="580px" height="580px" shape-rendering="geometricPrecision" text-rendering="geometricPrecision" image-rendering="optimizeQuality" fill-rule="nonzero" clip-rule="nonzero" viewBox="0 0 5800 5800" xmlns:xlink="http://www.w3.org/1999/xlink">
	<title>rack_servers icon</title>
	<desc>rack_servers icon from the IconExperience.com I-Collection. Copyright by INCORS GmbH (www.incors.com).</desc>
		<path id="curve30"  d="M5500 700l0 500 -200 0c-110,0 -200,90 -200,200 0,110 90,200 200,200l200 0 0 500 -5200 0 0 -500 200 0c110,0 200,-90 200,-200 0,-110 -90,-200 -200,-200l-200 0 0 -500 5200 0zm-3000 500l0 200 200 0 0 -200 -200 0zm0 400l0 200 200 0 0 -200 -200 0zm800 0l0 200 200 0 0 -200 -200 0zm-400 0l0 200 200 0 0 -200 -200 0zm-1600 0l0 200 200 0 0 -200 -200 0zm800 0l0 200 200 0 0 -200 -200 0zm-400 0l0 200 200 0 0 -200 -200 0zm-400 -400l0 200 200 0 0 -200 -200 0zm800 0l0 200 200 0 0 -200 -200 0zm-400 0l0 200 200 0 0 -200 -200 0zm1600 0l0 200 200 0 0 -200 -200 0zm-400 0l0 200 200 0 0 -200 -200 0zm1400 -100c-166,0 -300,134 -300,300 0,166 134,300 300,300 165,0 300,-135 300,-300 0,-165 -135,-300 -300,-300z"/>
	<path id="curve29"  d="M5500 3900l0 500 -200 0c-110,0 -200,90 -200,200 0,110 90,200 200,200l200 0 0 500 -5200 0 0 -500 200 0c110,0 200,-90 200,-200 0,-110 -90,-200 -200,-200l-200 0 0 -500 5200 0zm-3000 500l0 200 200 0 0 -200 -200 0zm0 400l0 200 200 0 0 -200 -200 0zm800 0l0 200 200 0 0 -200 -200 0zm-400 0l0 200 200 0 0 -200 -200 0zm-1600 0l0 200 200 0 0 -200 -200 0zm800 0l0 200 200 0 0 -200 -200 0zm-400 0l0 200 200 0 0 -200 -200 0zm-400 -400l0 200 200 0 0 -200 -200 0zm800 0l0 200 200 0 0 -200 -200 0zm-400 0l0 200 200 0 0 -200 -200 0zm1600 0l0 200 200 0 0 -200 -200 0zm-400 0l0 200 200 0 0 -200 -200 0zm1400 -100c-166,0 -300,134 -300,300 0,166 134,300 300,300 165,0 300,-135 300,-300 0,-165 -135,-300 -300,-300z"/>
	<path id="curve28"  d="M5500 2300l0 500 -200 0c-110,0 -200,90 -200,200 0,110 90,200 200,200l200 0 0 500 -5200 0 0 -500 200 0c110,0 200,-90 200,-200 0,-110 -90,-200 -200,-200l-200 0 0 -500 5200 0zm-3000 500l0 200 200 0 0 -200 -200 0zm0 400l0 200 200 0 0 -200 -200 0zm800 0l0 200 200 0 0 -200 -200 0zm-400 0l0 200 200 0 0 -200 -200 0zm-1600 0l0 200 200 0 0 -200 -200 0zm800 0l0 200 200 0 0 -200 -200 0zm-400 0l0 200 200 0 0 -200 -200 0zm-400 -400l0 200 200 0 0 -200 -200 0zm800 0l0 200 200 0 0 -200 -200 0zm-400 0l0 200 200 0 0 -200 -200 0zm1600 0l0 200 200 0 0 -200 -200 0zm-400 0l0 200 200 0 0 -200 -200 0zm1400 -100c-166,0 -300,134 -300,300 0,166 134,300 300,300 165,0 300,-135 300,-300 0,-165 -135,-300 -300,-300z"/>
</svg>