<?xml version="1.0" encoding="UTF-8"?>
<!DOCTYPE svg PUBLIC "-//W3C//DTD SVG 1.1//EN" "http://www.w3.org/Graphics/SVG/1.1/DTD/svg11.dtd">
<svg xmlns="http://www.w3.org/2000/svg" xml:space="preserve" width="580px" height="580px" shape-rendering="geometricPrecision" text-rendering="geometricPrecision" image-rendering="optimizeQuality" fill-rule="nonzero" clip-rule="nonzero" viewBox="0 0 5800 5800" xmlns:xlink="http://www.w3.org/1999/xlink">
	<title>rack_server_network icon</title>
	<desc>rack_server_network icon from the IconExperience.com I-Collection. Copyright by INCORS GmbH (www.incors.com).</desc>
		<path id="curve29"  d="M2800,5200 2800,4200 3000,4200 3000,5200 3100,5200 3100,5300 4100,5300 4100,5500 3100,5500 3100,5600 3000,5600 2800,5600 2700,5600 2700,5500 1700,5500 1700,5300 2700,5300 2700,5200z"/>
	<path id="curve28"  d="M5700 2300l0 800 -200 0c-110,0 -200,90 -200,200 0,110 90,200 200,200l200 0 0 800 -5600 0 0 -800 200 0c110,0 200,-90 200,-200 0,-110 -90,-200 -200,-200l-200 0 0 -800 5600 0zm-4600 1100l0 300 300 0 0 -300 -300 0zm1500 0l0 300 300 0 0 -300 -300 0zm1000 0l0 300 300 0 0 -300 -300 0zm-500 0l0 300 300 0 0 -300 -300 0zm-500 -500l0 300 300 0 0 -300 -300 0zm1000 0l0 300 300 0 0 -300 -300 0zm-500 0l0 300 300 0 0 -300 -300 0zm-2000 0l0 300 300 0 0 -300 -300 0zm1000 0l0 300 300 0 0 -300 -300 0zm-500 0l0 300 300 0 0 -300 -300 0zm500 500l0 300 300 0 0 -300 -300 0zm-500 0l0 300 300 0 0 -300 -300 0zm3000 -400c-166,0 -300,134 -300,300 0,166 134,300 300,300 165,0 300,-135 300,-300 0,-165 -135,-300 -300,-300z"/>
</svg>