<?xml version="1.0" encoding="UTF-8"?>
<!DOCTYPE svg PUBLIC "-//W3C//DTD SVG 1.1//EN" "http://www.w3.org/Graphics/SVG/1.1/DTD/svg11.dtd">
<svg xmlns="http://www.w3.org/2000/svg" xml:space="preserve" width="580px" height="580px" shape-rendering="geometricPrecision" text-rendering="geometricPrecision" image-rendering="optimizeQuality" fill-rule="nonzero" clip-rule="nonzero" viewBox="0 0 5800 5800" xmlns:xlink="http://www.w3.org/1999/xlink">
	<title>rack_servers icon</title>
	<desc>rack_servers icon from the IconExperience.com I-Collection. Copyright by INCORS GmbH (www.incors.com).</desc>
		<path id="curve28"  d="M3300 4300l0 200 200 0 0 -200 -200 0zm2200 -3800l0 800 -300 0c-55,0 -100,45 -100,100 0,55 45,100 100,100l300 0c0,467 0,933 0,1400l-300 0c-55,0 -100,45 -100,100 0,55 45,100 100,100l300 0c0,467 0,933 0,1400l-300 0c-55,0 -100,45 -100,100 0,55 45,100 100,100l300 0 0 800 -5200 0 0 -800 300 0c132,0 132,-200 0,-200l-200 0 -100 0c0,-467 0,-933 0,-1400l300 0c55,0 100,-45 100,-100 0,-55 -45,-100 -100,-100l-300 0 0 -600c0,-267 0,-533 0,-800l300 0c55,0 100,-45 100,-100 0,-55 -45,-100 -100,-100l-300 0 0 -800 5200 0zm-200 200l-4800 0 0 400 100 0c165,0 300,135 300,300 0,165 -135,300 -300,300l-100 0 0 400 4800 0 0 -400 -100 0c-165,0 -300,-135 -300,-300 0,-165 135,-300 300,-300l100 0 0 -400zm-1600 200c0,333 0,667 0,1000 -867,0 -1733,0 -2600,0 0,-333 0,-667 0,-1000 867,0 1733,0 2600,0zm-200 200l-200 0 0 200 200 0 0 -200zm-400 0l-200 0 0 200 200 0 0 -200zm-400 0l-200 0 0 200 200 0 0 -200zm-400 0l-200 0 0 200 200 0 0 -200zm-400 0l-200 0 0 200 200 0 0 -200zm-400 0l-200 0 0 200 200 0 0 -200zm-200 400l0 200 200 0 0 -200 -200 0zm400 200l200 0 0 -200 -200 0 0 200zm400 0l200 0 0 -200 -200 0 0 200zm400 0l200 0 0 -200 -200 0 0 200zm400 0l200 0 0 -200 -200 0 0 200zm400 0l200 0 0 -200 -200 0 0 200zm1000 -600c165,0 300,135 300,300 0,166 -134,300 -300,300 -165,0 -300,-135 -300,-300 0,-166 134,-300 300,-300zm0 200c-55,0 -100,45 -100,100 0,56 44,100 100,100 55,0 100,-45 100,-100 0,-56 -44,-100 -100,-100zm1000 1000l-4800 0 0 400 100 0c165,0 300,135 300,300 0,165 -135,300 -300,300l-100 0 0 400 4800 0 0 -400 -100 0c-165,0 -300,-135 -300,-300 0,-165 135,-300 300,-300l100 0 0 -400zm-1600 200c0,333 0,667 0,1000 -867,0 -1733,0 -2600,0 0,-333 0,-667 0,-1000 867,0 1733,0 2600,0zm-200 200l-200 0 0 200 200 0 0 -200zm-400 0l-200 0 0 200 200 0 0 -200zm-400 0l-200 0 0 200 200 0 0 -200zm-400 0l-200 0 0 200 200 0 0 -200zm-400 0l-200 0 0 200 200 0 0 -200zm-400 0l-200 0 0 200 200 0 0 -200zm-200 400l0 200 200 0 0 -200 -200 0zm400 200l200 0 0 -200 -200 0 0 200zm400 0l200 0 0 -200 -200 0 0 200zm400 0l200 0 0 -200 -200 0 0 200zm400 0l200 0 0 -200 -200 0 0 200zm400 0l200 0 0 -200 -200 0 0 200zm1000 -600c165,0 300,135 300,300 0,165 -135,300 -300,300 -166,0 -300,-134 -300,-300 0,-166 134,-300 300,-300zm0 200c-55,0 -100,45 -100,100 0,55 45,100 100,100 56,0 100,-44 100,-100 0,-56 -44,-100 -100,-100zm1000 1000l-4800 0 0 400 100 0c165,0 300,135 300,300 0,165 -135,300 -300,300l-100 0 0 400 4800 0 0 -400 -100 0c-165,0 -300,-135 -300,-300 0,-165 135,-300 300,-300l100 0 0 -400zm-1800 800l-200 0 0 200 200 0 0 -200zm-400 200l0 -200 -200 0 0 200 200 0zm-400 0l0 -200 -200 0 0 200 200 0zm-400 0l0 -200 -200 0 0 200 200 0zm-400 0l0 -200 -200 0 0 200 200 0zm-400 0l0 -200 -200 0 0 200 200 0zm-200 -400l200 0 0 -200 -200 0 0 200zm400 -200l0 200 200 0 0 -200 -200 0zm400 0l0 200 200 0 0 -200 -200 0zm400 0l0 200 200 0 0 -200 -200 0zm400 0l0 200 200 0 0 -200 -200 0zm800 -200c0,333 0,667 0,1000 -867,0 -1733,0 -2600,0 0,-333 0,-667 0,-1000 867,0 1733,0 2600,0zm600 200c166,0 300,134 300,300 0,165 -135,300 -300,300 -166,0 -300,-134 -300,-300 0,-165 135,-300 300,-300zm0 200c-56,0 -100,44 -100,100 0,55 45,100 100,100 56,0 100,-44 100,-100 0,-55 -45,-100 -100,-100z"/>
</svg>