<?xml version="1.0" encoding="UTF-8"?>
<!DOCTYPE svg PUBLIC "-//W3C//DTD SVG 1.1//EN" "http://www.w3.org/Graphics/SVG/1.1/DTD/svg11.dtd">
<svg xmlns="http://www.w3.org/2000/svg" xml:space="preserve" width="580px" height="580px" shape-rendering="geometricPrecision" text-rendering="geometricPrecision" image-rendering="optimizeQuality" fill-rule="nonzero" clip-rule="nonzero" viewBox="0 0 5800 5800" xmlns:xlink="http://www.w3.org/1999/xlink">
	<title>radar icon</title>
	<desc>radar icon from the IconExperience.com I-Collection. Copyright by INCORS GmbH (www.incors.com).</desc>
		<path id="curve28"  d="M3093 2952l1433 1433 -141 141 -1433 -1433c-17,5 -34,7 -52,7 -110,0 -200,-90 -200,-200 0,-110 90,-200 200,-200 110,0 200,90 200,200 0,18 -2,35 -7,52zm-193 -2052c1105,0 2000,895 2000,2000 0,428 -136,842 -390,1186l-143 -143c218,-305 333,-667 333,-1043 0,-994 -806,-1800 -1800,-1800l0 -200zm0 1200c442,0 800,358 800,800 0,108 -22,212 -64,312l-156 -156c13,-50 20,-102 20,-156 0,-331 -269,-600 -600,-600l0 -200zm0 -600c773,0 1400,627 1400,1400 0,268 -77,529 -221,755l-145 -145c110,-185 166,-395 166,-610 0,-663 -537,-1200 -1200,-1200l0 -200zm0 -1200c1436,0 2600,1164 2600,2600 0,1436 -1164,2600 -2600,2600 -1436,0 -2600,-1164 -2600,-2600 0,-1436 1164,-2600 2600,-2600zm0 200c-1326,0 -2400,1074 -2400,2400 0,1326 1074,2400 2400,2400 1326,0 2400,-1074 2400,-2400 0,-1326 -1074,-2400 -2400,-2400z"/>
</svg>