<?xml version="1.0" encoding="UTF-8"?>
<!DOCTYPE svg PUBLIC "-//W3C//DTD SVG 1.1//EN" "http://www.w3.org/Graphics/SVG/1.1/DTD/svg11.dtd">
<svg xmlns="http://www.w3.org/2000/svg" xml:space="preserve" width="580px" height="580px" shape-rendering="geometricPrecision" text-rendering="geometricPrecision" image-rendering="optimizeQuality" fill-rule="nonzero" clip-rule="nonzero" viewBox="0 0 5800 5800" xmlns:xlink="http://www.w3.org/1999/xlink">
	<title>radiation icon</title>
	<desc>radiation icon from the IconExperience.com I-Collection. Copyright by INCORS GmbH (www.incors.com).</desc>
		<path id="curve28" d="M4074 864c728,420 1176,1195 1176,2036l0 99 -1451 1 1 -100c0,-323 -171,-620 -451,-781l-86 -50 724 -1255 87 50zm-15 224l-527 912c265,186 435,479 464,801l1052 -1c-32,-698 -401,-1334 -989,-1712zm16 3847c-724,419 -1626,419 -2350,0l-87 -50c242,-418 484,-837 725,-1255l87 50c277,160 623,160 900,0l87 -50c241,418 483,837 724,1255l-86 50zm-187 -125l-527 -912c-291,135 -631,135 -922,0l-527 912c616,319 1360,319 1976,0zm-3338 -1910c0,-841 448,-1615 1175,-2035l86 -50 725 1255 -86 50c-280,162 -450,457 -450,780l0 100c-483,0 -966,0 -1450,0l0 -100zm202 -100l1053 0c29,-321 198,-613 461,-799l-526 -912c-588,378 -956,1013 -988,1711zm2148 -300c-221,0 -400,179 -400,400 0,221 179,400 400,400 221,0 400,-179 400,-400 0,-221 -179,-400 -400,-400zm0 -200c331,0 600,268 600,600 0,331 -269,600 -600,600 -331,0 -600,-269 -600,-600 0,-332 269,-600 600,-600z"/>
</svg>