<?xml version="1.0" encoding="UTF-8"?>
<!DOCTYPE svg PUBLIC "-//W3C//DTD SVG 1.1//EN" "http://www.w3.org/Graphics/SVG/1.1/DTD/svg11.dtd">
<svg xmlns="http://www.w3.org/2000/svg" xml:space="preserve" width="580px" height="580px" shape-rendering="geometricPrecision" text-rendering="geometricPrecision" image-rendering="optimizeQuality" fill-rule="nonzero" clip-rule="nonzero" viewBox="0 0 5800 5800" xmlns:xlink="http://www.w3.org/1999/xlink">
	<title>radio icon</title>
	<desc>radio icon from the IconExperience.com I-Collection. Copyright by INCORS GmbH (www.incors.com).</desc>
		<path id="curve28"  d="M4500 300l0 1700 -200 0 0 -1700 200 0zm-3900 1800l4200 0c165,0 300,135 300,300l0 300 200 0c110,0 200,90 200,200l0 600c0,110 -90,200 -200,200l-200 0 0 1500c0,165 -135,300 -300,300l-4200 0c-165,0 -300,-135 -300,-300l0 -2800c0,-165 135,-300 300,-300zm1400 400c-718,0 -1300,582 -1300,1300 0,718 582,1300 1300,1300 718,0 1300,-582 1300,-1300 0,-718 -582,-1300 -1300,-1300zm1100 1300c0,608 -492,1100 -1100,1100 -608,0 -1100,-492 -1100,-1100 0,-608 492,-1100 1100,-1100 608,0 1100,492 1100,1100z"/>
</svg>