<?xml version="1.0" encoding="utf-8"?>
<!-- Generator: Adobe Illustrator 19.2.1, SVG Export Plug-In . SVG Version: 6.00 Build 0)  -->
<svg version="1.1" id="Ebene_1" xmlns="http://www.w3.org/2000/svg" xmlns:xlink="http://www.w3.org/1999/xlink" x="0px" y="0px"
	 width="580px" height="580px" viewBox="0 0 580 580" style="enable-background:new 0 0 580 580;" xml:space="preserve">
<g>
	<path d="M290,70C168.5,70,70,168.5,70,290s98.5,220,220,220s220-98.5,220-220S411.5,70,290,70z M290,490c-110.6,0-200-89.4-200-200
		S179.4,90,290,90s200,89.4,200,200S400.6,490,290,490z"/>
	<path d="M290,165c-68.8,0-125,56.3-125,125s56.3,125,125,125c69.1,0,125-55.9,125-125S359.1,165,290,165z"/>
</g>
</svg>
