<?xml version="1.0" encoding="utf-8"?>
<!-- Generator: Adobe Illustrator 19.2.1, SVG Export Plug-In . SVG Version: 6.00 Build 0)  -->
<svg version="1.1" id="Ebene_1" xmlns="http://www.w3.org/2000/svg" xmlns:xlink="http://www.w3.org/1999/xlink" x="0px" y="0px"
	 width="580px" height="580px" viewBox="0 0 580 580" style="enable-background:new 0 0 580 580;" xml:space="preserve">
<g>
	<path d="M54,252.5c0-110.6,89.4-200,200-200c45,0,86.4,14.8,119.8,39.8c15.3,3.1,30,7.6,44.1,13.5C377.6,60.8,319.1,32.5,254,32.5
		c-121.5,0-220,98.5-220,220c0,61.8,25.5,117.7,66.6,157.7c-5.2-14.3-9.1-29.1-11.6-44.5C66.9,333.5,54,294.5,54,252.5z"/>
	<path d="M326,107.5c-121.5,0-220,98.5-220,220s98.5,220,220,220s220-98.5,220-220S447.5,107.5,326,107.5z M326,527.5
		c-110.6,0-200-89.4-200-200s89.4-200,200-200s200,89.4,200,200S436.6,527.5,326,527.5z"/>
	<path d="M326,202.5c-68.8,0-125,56.3-125,125s56.3,125,125,125c69.1,0,125-55.9,125-125S395.1,202.5,326,202.5z"/>
</g>
</svg>
