<?xml version="1.0" encoding="UTF-8"?>
<!DOCTYPE svg PUBLIC "-//W3C//DTD SVG 1.1//EN" "http://www.w3.org/Graphics/SVG/1.1/DTD/svg11.dtd">
<svg xmlns="http://www.w3.org/2000/svg" xml:space="preserve" width="580px" height="580px" shape-rendering="geometricPrecision" text-rendering="geometricPrecision" image-rendering="optimizeQuality" fill-rule="nonzero" clip-rule="nonzero" viewBox="0 0 5800 5800" xmlns:xlink="http://www.w3.org/1999/xlink">
	<title>radiation icon</title>
	<desc>radiation icon from the IconExperience.com I-Collection. Copyright by INCORS GmbH (www.incors.com).</desc>
		<path id="curve28"  d="M4074 864c728,420 1176,1195 1176,2036l0 99 -1451 1 1 -100c0,-323 -171,-620 -451,-781l-86 -50 724 -1255 87 50zm-1174 1436c331,0 600,268 600,600 0,331 -269,600 -600,600 -331,0 -600,-269 -600,-600 0,-332 269,-600 600,-600zm1175 2635c-724,419 -1626,419 -2350,0l-87 -50 725 -1255 87 50c277,160 623,160 900,0l87 -50 724 1255 -86 50zm-3525 -2035c0,-841 448,-1615 1175,-2035l86 -50 725 1255 -86 50c-280,162 -450,457 -450,780l0 100 -1450 0 0 -100z"/>
</svg>