<?xml version="1.0" encoding="UTF-8"?>
<!DOCTYPE svg PUBLIC "-//W3C//DTD SVG 1.1//EN" "http://www.w3.org/Graphics/SVG/1.1/DTD/svg11.dtd">
<svg xmlns="http://www.w3.org/2000/svg" xml:space="preserve" width="580px" height="580px" shape-rendering="geometricPrecision" text-rendering="geometricPrecision" image-rendering="optimizeQuality" fill-rule="nonzero" clip-rule="nonzero" viewBox="0 0 5800 5800" xmlns:xlink="http://www.w3.org/1999/xlink">
	<title>rain_drops icon</title>
	<desc>rain_drops icon from the IconExperience.com I-Collection. Copyright by INCORS GmbH (www.incors.com).</desc>
		<path id="curve28"  d="M4097 2324c-5,118 -37,235 -93,339 -103,195 -276,329 -472,389 -196,60 -415,45 -610,-58 -194,-104 -329,-277 -389,-473 -60,-196 -45,-414 59,-609 55,-104 134,-196 229,-266l1281 -871 -5 1549zm1202 1612c-5,118 -37,235 -93,339 -103,195 -276,330 -472,390 -196,59 -415,45 -609,-59 -195,-103 -330,-276 -390,-473 -59,-195 -45,-414 59,-609 55,-104 134,-196 229,-266l1282 -871 -6 1549zm-3200 -600c-5,118 -37,235 -93,339 -103,195 -276,330 -472,390 -196,59 -415,45 -609,-59 -195,-103 -330,-276 -390,-473 -59,-195 -45,-414 59,-609 55,-104 134,-196 229,-266l1126 -765 156 -106 -6 1549z"/>
</svg>