<?xml version="1.0" encoding="UTF-8"?>
<!DOCTYPE svg PUBLIC "-//W3C//DTD SVG 1.1//EN" "http://www.w3.org/Graphics/SVG/1.1/DTD/svg11.dtd">
<svg xmlns="http://www.w3.org/2000/svg" xml:space="preserve" width="580px" height="580px" shape-rendering="geometricPrecision" text-rendering="geometricPrecision" image-rendering="optimizeQuality" fill-rule="nonzero" clip-rule="nonzero" viewBox="0 0 5800 5800" xmlns:xlink="http://www.w3.org/1999/xlink">
	<title>rain_drops icon</title>
	<desc>rain_drops icon from the IconExperience.com I-Collection. Copyright by INCORS GmbH (www.incors.com).</desc>
		<path id="curve28" d="M4097 2324c-5,118 -37,235 -93,339 -207,390 -692,538 -1082,331 -389,-207 -537,-692 -330,-1082 55,-104 134,-196 229,-266l1281 -871 -5 1549zm-199 -9l4 -1163 -962 654c-72,53 -130,121 -172,200 -156,293 -45,655 248,811 293,156 656,45 812,-248 42,-79 66,-164 70,-254zm-1799 1021c-5,118 -37,235 -93,339 -207,390 -692,538 -1081,331 -390,-207 -538,-692 -331,-1082 55,-104 134,-196 229,-266l1282 -871 -6 1549zm-199 -8l4 -1164 -962 654c-72,53 -130,121 -172,200 -155,293 -45,656 248,812 294,155 656,45 812,-248 42,-80 66,-164 70,-254zm3399 608c-5,118 -37,235 -93,339 -207,390 -692,538 -1081,331 -390,-207 -538,-692 -331,-1082 55,-104 134,-196 229,-266l1282 -871 -6 1549zm-199 -8l4 -1164 -962 654c-72,53 -130,121 -172,200 -155,293 -45,656 248,812 294,155 656,45 812,-248 42,-80 66,-164 70,-254z"/>
</svg>