<?xml version="1.0" encoding="UTF-8"?>
<!DOCTYPE svg PUBLIC "-//W3C//DTD SVG 1.1//EN" "http://www.w3.org/Graphics/SVG/1.1/DTD/svg11.dtd">
<svg xmlns="http://www.w3.org/2000/svg" xml:space="preserve" width="580px" height="580px" shape-rendering="geometricPrecision" text-rendering="geometricPrecision" image-rendering="optimizeQuality" fill-rule="nonzero" clip-rule="nonzero" viewBox="0 0 5800 5800" xmlns:xlink="http://www.w3.org/1999/xlink">
	<title>razor icon</title>
	<desc>razor icon from the IconExperience.com I-Collection. Copyright by INCORS GmbH (www.incors.com).</desc>
	<path id="curve0"  d="M4666 3854c380,-67 744,188 811,568 67,380 -188,743 -568,810 -785,139 -1574,44 -2280,-249 -708,-293 -1333,-784 -1790,-1437 -222,-317 -145,-752 172,-974 317,-222 752,-145 974,172 301,430 713,753 1179,946 465,193 984,255 1502,164zm-3278 -919c-110,0 -200,90 -200,200 0,110 90,200 200,200 111,0 200,-90 200,-200 0,-110 -89,-200 -200,-200zm3073 -2507c127,-107 316,-90 422,37l386 459c106,127 90,317 -37,423l-1915 1607c-127,106 -316,89 -423,-37l-450 -537 -296 249c-39,-56 -83,-106 -132,-150 815,-684 1630,-1368 2445,-2051zm-3693 3359l-386 324c-42,35 -105,30 -140,-13 -36,-42 -30,-105 12,-140l398 -334c7,12 15,24 24,36 30,43 61,85 92,127z"/>
</svg>