<?xml version="1.0" encoding="UTF-8"?>
<!DOCTYPE svg PUBLIC "-//W3C//DTD SVG 1.1//EN" "http://www.w3.org/Graphics/SVG/1.1/DTD/svg11.dtd">
<svg xmlns="http://www.w3.org/2000/svg" xml:space="preserve" width="580px" height="580px" shape-rendering="geometricPrecision" text-rendering="geometricPrecision" image-rendering="optimizeQuality" fill-rule="nonzero" clip-rule="nonzero" viewBox="0 0 5800 5800" xmlns:xlink="http://www.w3.org/1999/xlink">
	<title>razor icon</title>
	<desc>razor icon from the IconExperience.com I-Collection. Copyright by INCORS GmbH (www.incors.com).</desc>
	<path id="curve0"  d="M1388 2935c111,0 200,90 200,200 0,110 -89,200 -200,200 -110,0 -200,-90 -200,-200 0,-110 90,-200 200,-200zm3495 -2470l386 459c106,127 90,317 -37,423l-1915 1607c-127,106 -316,89 -423,-37l-450 -537 -296 249c-39,-56 -83,-106 -132,-150l377 -316c689,-578 1379,-1157 2068,-1735 127,-107 316,-90 422,37zm-4115 3322l-386 324c-42,35 -105,30 -140,-13 -36,-42 -30,-105 12,-140l398 -334c35,56 76,111 116,163zm4348 -2734l-386 -460c-35,-42 -99,-47 -141,-12l-1992 1671 451 537c35,42 99,47 141,12l1915 -1607c42,-35 47,-99 12,-141zm-450 2801c380,-67 744,188 811,568 67,380 -188,743 -568,810 -1570,277 -3155,-380 -4070,-1686 -222,-317 -145,-752 172,-974 317,-222 752,-145 974,172 603,861 1647,1292 2681,1110zm35 197c-1111,196 -2232,-269 -2879,-1193 -158,-226 -471,-281 -697,-123 -226,158 -281,471 -123,697 871,1243 2378,1867 3873,1604 272,-48 453,-307 405,-580 -48,-272 -307,-453 -579,-405z"/>
</svg>