<?xml version="1.0" encoding="UTF-8"?>
<!DOCTYPE svg PUBLIC "-//W3C//DTD SVG 1.1//EN" "http://www.w3.org/Graphics/SVG/1.1/DTD/svg11.dtd">
<svg xmlns="http://www.w3.org/2000/svg" xml:space="preserve" width="580px" height="580px" shape-rendering="geometricPrecision" text-rendering="geometricPrecision" image-rendering="optimizeQuality" fill-rule="nonzero" clip-rule="nonzero" viewBox="0 0 5800 5800" xmlns:xlink="http://www.w3.org/1999/xlink">
	<title>reactor icon</title>
	<desc>reactor icon from the IconExperience.com I-Collection. Copyright by INCORS GmbH (www.incors.com).</desc>
	<path id="curve0"  d="M2100 1900c884,0 1600,716 1600,1600l0 2000 -3200 0 0 -2000c0,-884 716,-1600 1600,-1600zm2700 400l0 600c0,442 24,786 109,1126 116,462 332,862 561,1274l-1571 0 0 -200 1233 0c-207,-389 -337,-707 -416,-1026 -90,-359 -116,-716 -116,-1174l0 -400 -1003 0c-47,-70 -99,-137 -155,-200 452,0 905,0 1358,0zm-3224 -523c-19,-27 -36,-56 -52,-86 -253,-86 -424,-325 -424,-592 0,-346 280,-626 626,-626 114,0 226,31 324,90 167,-167 395,-263 632,-263 163,0 324,45 463,130 147,-85 317,-130 487,-130 221,0 437,76 610,214 81,-27 167,-41 254,-41 443,0 804,361 804,805 0,300 -169,577 -435,715 -20,37 -42,73 -67,107l-245 0 -4 -19c79,-82 117,-132 166,-238l33 -16c215,-98 352,-313 352,-549 0,-336 -270,-605 -606,-605 -81,0 -159,15 -234,46l-59 25 -47 -42c-143,-131 -328,-202 -522,-202 -155,0 -304,45 -433,131l-58 39 -56 -41c-118,-84 -258,-129 -403,-129 -211,0 -408,94 -540,259l-63 79 -78 -66c-78,-65 -174,-99 -275,-99 -235,0 -426,190 -426,426 0,194 131,364 320,413l48 12 19 45c26,59 62,112 105,157 -73,13 -145,30 -216,51zm524 323c-773,0 -1400,627 -1400,1400l0 1800 2800 0 0 -1800c0,-773 -627,-1400 -1400,-1400z"/>
</svg>