<?xml version="1.0" encoding="UTF-8"?>
<!DOCTYPE svg PUBLIC "-//W3C//DTD SVG 1.1//EN" "http://www.w3.org/Graphics/SVG/1.1/DTD/svg11.dtd">
<svg xmlns="http://www.w3.org/2000/svg" xml:space="preserve" width="580px" height="580px" shape-rendering="geometricPrecision" text-rendering="geometricPrecision" image-rendering="optimizeQuality" fill-rule="nonzero" clip-rule="nonzero" viewBox="0 0 5800 5800" xmlns:xlink="http://www.w3.org/1999/xlink">
	<title>receipt_printer icon</title>
	<desc>receipt_printer icon from the IconExperience.com I-Collection. Copyright by INCORS GmbH (www.incors.com).</desc>
	<path id="curve0"  d="M3500 2500l400 0 0 200 -400 0 0 -200zm-2200 200l0 -1600c0,-331 269,-600 600,-600l3000 0c331,0 600,269 600,600 0,331 -269,600 -600,600l-200 0 0 -200 200 0c220,0 400,-180 400,-400 0,-220 -180,-400 -400,-400 -220,0 -400,180 -400,400 0,143 8,1600 -9,1600l-191 0 0 -1600c0,-153 58,-294 153,-400l-2553 0c-220,0 -400,180 -400,400l0 1600 -200 0zm3200 800l0 600 -1000 0 0 -600 1000 0zm-200 200l-600 0 0 200 600 0 0 -200zm400 1400l0 400 -3600 0 0 -400 -100 0c-165,0 -300,-135 -300,-300l0 -1600c0,-165 135,-300 300,-300l3800 0c165,0 300,135 300,300l0 1600c0,165 -135,300 -300,300l-100 0zm-3400 0l0 200 3200 0 0 -200 -3200 0zm3500 -2000l-3800 0c-55,0 -100,45 -100,100l0 1600c0,55 45,100 100,100 1267,0 2533,0 3800,0 55,0 100,-45 100,-100l0 -1600c0,-55 -45,-100 -100,-100zm-2800 -2000l2000 0 0 200 -2000 0 0 -200zm-100 600l1200 0 0 200 -1200 0 0 -200zm1600 0l400 0 0 200 -400 0 0 -200zm-1600 400l800 0 0 200 -800 0 0 -200zm1600 0l400 0 0 200 -400 0 0 -200zm-1600 400l1000 0 0 200 -1000 0 0 -200z"/>
</svg>