<?xml version="1.0" encoding="UTF-8"?>
<!DOCTYPE svg PUBLIC "-//W3C//DTD SVG 1.1//EN" "http://www.w3.org/Graphics/SVG/1.1/DTD/svg11.dtd">
<svg xmlns="http://www.w3.org/2000/svg" xml:space="preserve" width="580px" height="580px" shape-rendering="geometricPrecision" text-rendering="geometricPrecision" image-rendering="optimizeQuality" fill-rule="nonzero" clip-rule="nonzero" viewBox="0 0 5800 5800" xmlns:xlink="http://www.w3.org/1999/xlink">
	<title>receipt_book icon</title>
	<desc>receipt_book icon from the IconExperience.com I-Collection. Copyright by INCORS GmbH (www.incors.com).</desc>
		<path id="curve28" d="M2300 2300l0 -2200 200 0c0,460 299,860 717,1165 499,365 1163,593 1698,631 63,3 125,6 188,9l0 2398 -103 -3c-585,-20 -1341,-266 -1900,-675 -466,-340 -800,-793 -800,-1325zm-197 -400l0 200 -1603 0 0 2400 4800 0 0 -2600 200 0 0 2800 -5200 0 0 -2800 1803 0zm397 -1105l0 1505c0,460 299,860 717,1164 495,362 1152,589 1686,631l0 -2000c-570,-41 -1275,-283 -1804,-669 -247,-181 -457,-393 -599,-631z"/>
</svg>