<?xml version="1.0" encoding="UTF-8"?>
<!DOCTYPE svg PUBLIC "-//W3C//DTD SVG 1.1//EN" "http://www.w3.org/Graphics/SVG/1.1/DTD/svg11.dtd">
<svg xmlns="http://www.w3.org/2000/svg" xml:space="preserve" width="580px" height="580px" shape-rendering="geometricPrecision" text-rendering="geometricPrecision" image-rendering="optimizeQuality" fill-rule="nonzero" clip-rule="nonzero" viewBox="0 0 5800 5800" xmlns:xlink="http://www.w3.org/1999/xlink">
	<title>receipt icon</title>
	<desc>receipt icon from the IconExperience.com I-Collection. Copyright by INCORS GmbH (www.incors.com).</desc>
	<path id="curve0"  d="M4700 5500l-3400 0c-331,0 -600,-269 -600,-600l0 -4000c0,-331 269,-600 600,-600l3400 0c331,0 600,269 600,600 0,331 -269,600 -600,600l-200 0 0 -200 200 0c220,0 400,-180 400,-400 0,-220 -180,-400 -400,-400 -220,0 -400,180 -400,400l0 4000c0,220 180,400 400,400 220,0 400,-180 400,-400 0,-106 -42,-207 -117,-283 -73,-72 -173,-117 -283,-117l-200 0 0 -200 200 0c331,0 600,269 600,600 0,331 -269,600 -600,600zm-3400 -200l2953 0c-95,-106 -153,-247 -153,-400l0 -4000c0,-153 58,-294 153,-400l-2953 0c-220,0 -400,180 -400,400l0 4000c0,220 180,400 400,400zm200 -4400l2000 0 0 200 -2000 0 0 -200zm-200 800l1600 0 0 200 -1600 0 0 -200zm2000 0l400 0 0 200 -400 0 0 -200zm-2000 400l1200 0 0 200 -1200 0 0 -200zm2000 0l400 0 0 200 -400 0 0 -200zm-2000 400l1400 0 0 200 -1400 0 0 -200zm2000 0l400 0 0 200 -400 0 0 -200zm-2000 400l1200 0 0 200 -1200 0 0 -200zm2000 0l400 0 0 200 -400 0 0 -200zm-2000 400l1600 0 0 200 -1600 0 0 -200zm2000 0l400 0 0 200 -400 0 0 -200zm-2000 400l1400 0 0 200 -1400 0 0 -200zm2000 0l400 0 0 200 -400 0 0 -200zm-2000 800l1200 0 0 200 -1200 0 0 -200zm1800 0l600 0 0 200 -600 0 0 -200z"/>
</svg>