<?xml version="1.0" encoding="UTF-8"?>
<!DOCTYPE svg PUBLIC "-//W3C//DTD SVG 1.1//EN" "http://www.w3.org/Graphics/SVG/1.1/DTD/svg11.dtd">
<svg xmlns="http://www.w3.org/2000/svg" xml:space="preserve" width="580px" height="580px" shape-rendering="geometricPrecision" text-rendering="geometricPrecision" image-rendering="optimizeQuality" fill-rule="nonzero" clip-rule="nonzero" viewBox="0 0 5800 5800" xmlns:xlink="http://www.w3.org/1999/xlink">
	<title>receipt_printer icon</title>
	<desc>receipt_printer icon from the IconExperience.com I-Collection. Copyright by INCORS GmbH (www.incors.com).</desc>
	<path id="curve0"  d="M5300 1100c0,-220 -180,-400 -400,-400 -220,0 -400,180 -400,400l0 1601 -600 -1 0 -200 -400 0 0 200 -600 0 0 -200 -1000 0 0 200 -600 0 0 -1600c0,-331 269,-600 600,-600l3000 0c331,0 600,269 600,600 0,331 -269,600 -600,600l-200 0 0 -200 200 0c220,0 400,-180 400,-400zm-1800 1000l0 200 400 0 0 -200 -400 0zm-1600 0l0 200 800 0 0 -200 -800 0zm1600 -400l0 200 400 0 0 -200 -400 0zm-1600 0l0 200 1200 0 0 -200 -1200 0zm100 -600l0 200 2000 0 0 -200 -2000 0zm2500 2400l-1000 0 0 600 1000 0 0 -600zm-200 200l-600 0 0 200 600 0 0 -200zm-3300 -800l3800 0c165,0 300,135 300,300l0 1600c0,165 -135,300 -300,300l-100 0 0 400 -3600 0 0 -400 -100 0c-165,0 -300,-135 -300,-300l0 -1600c0,-165 135,-300 300,-300z"/>
</svg>