<?xml version="1.0" encoding="UTF-8"?>
<!DOCTYPE svg PUBLIC "-//W3C//DTD SVG 1.1//EN" "http://www.w3.org/Graphics/SVG/1.1/DTD/svg11.dtd">
<svg xmlns="http://www.w3.org/2000/svg" xml:space="preserve" width="580px" height="580px" shape-rendering="geometricPrecision" text-rendering="geometricPrecision" image-rendering="optimizeQuality" fill-rule="nonzero" clip-rule="nonzero" viewBox="0 0 1024 1024" xmlns:xlink="http://www.w3.org/1999/xlink">
	<path d="M195.1,740.5H836c13.1,0,23.6-10.6,23.6-23.6V307.3c0-13.1-10.6-23.6-23.6-23.6H195.1
		c-13.1,0-23.6,10.6-23.6,23.6v409.6C171.5,729.9,182.1,740.5,195.1,740.5z M218.8,330.9h593.6v362.3H218.8V330.9z"/>
	<path d="M400.2,516.5c18.7-13.3,31-35.5,31-60.6c0-40.7-32.2-73.7-71.9-73.7c-39.7,0-71.9,33-71.9,73.7
		c0,25.1,12.3,47.3,31,60.6C233.4,540.9,251.5,640,251.5,640h215.6C467.1,640,485.3,540.9,400.2,516.5z"/>
	<rect x="503" y="415.8" width="272" height="48"/>
	<rect x="503" y="503.4" width="272" height="48"/>
	<rect x="503" y="591.5" width="272" height="48"/>
	<path d="M935.6,68.2h-844c-13.3,0-24,10.7-24,24v844c0,13.3,10.7,24,24,24h844c13.3,0,24-10.7,24-24v-844
		C959.6,78.9,948.9,68.2,935.6,68.2z M911.6,912.2h-796v-796h796V912.2z"/>
</svg>
