<?xml version="1.0" encoding="utf-8"?>
<!-- Generator: Adobe Illustrator 19.2.1, SVG Export Plug-In . SVG Version: 6.00 Build 0)  -->
<svg version="1.1" id="Ebene_1" xmlns="http://www.w3.org/2000/svg" xmlns:xlink="http://www.w3.org/1999/xlink" x="0px" y="0px"
	 width="580px" height="580px" viewBox="0 0 580 580" style="enable-background:new 0 0 580 580;" xml:space="preserve">
<g>
	<path d="M57,38h245c8.2,0,15,6.7,15,14.9V138h85c8.3,0,15,6.6,15,14.9V202h20v-49.1c0-9.6-3.9-18.4-10.3-24.7l-100-100
		C320.4,21.9,311.5,18,302,18H37v520h146v-20H57V38z M337,66.7l51.2,51.3H337V66.7z"/>
	<path d="M223,242v320h320V242H223z M523,542H243V262h280V542z"/>
	<path d="M320.3,457.3c18.2,12.3,39.6,19.5,60.1,19.5s42-7.2,60.1-19.5c17.5-11.9,32-28.5,39.6-48c0.3-0.9,0.3-1.8,0-2.8
		c-7.6-19.5-22.1-36.2-39.6-48c-18.2-12.3-39.7-19.5-60.1-19.5s-42,7.2-60.1,19.5c-17.5,11.9-32,28.5-39.6,48
		c-0.3,0.9-0.3,1.9,0,2.8C288.3,428.8,302.8,445.4,320.3,457.3z M331.9,370c14.7-10.1,32.1-16,48.5-16s33.8,5.9,48.5,16
		c13.8,9.5,25.2,22.6,31.4,37.9c-6.2,15.4-17.6,28.4-31.4,37.9c-14.7,10.1-32.1,16-48.5,16s-33.8-5.9-48.5-16
		c-13.8-9.5-25.3-22.6-31.5-37.9C306.6,392.6,318.1,379.5,331.9,370z"/>
	<circle cx="380.4" cy="408.2" r="10"/>
	<path d="M380.4,449.1c22.6,0,40.9-18.3,40.9-40.9s-18.3-40.9-40.9-40.9s-40.9,18.3-40.9,40.9S357.9,449.1,380.4,449.1z
		 M380.4,382.3c14.3,0,25.9,11.6,25.9,25.9c0,14.3-11.6,25.9-25.9,25.9s-25.9-11.6-25.9-25.9C354.6,393.9,366.1,382.3,380.4,382.3z"
		/>
</g>
</svg>
