<?xml version="1.0" encoding="UTF-8"?>
<!DOCTYPE svg PUBLIC "-//W3C//DTD SVG 1.1//EN" "http://www.w3.org/Graphics/SVG/1.1/DTD/svg11.dtd">
<svg xmlns="http://www.w3.org/2000/svg" xml:space="preserve" width="580px" height="580px" shape-rendering="geometricPrecision" text-rendering="geometricPrecision" image-rendering="optimizeQuality" fill-rule="nonzero" clip-rule="nonzero" viewBox="0 0 5800 5800" xmlns:xlink="http://www.w3.org/1999/xlink">
	<title>record_player icon</title>
	<desc>record_player icon from the IconExperience.com I-Collection. Copyright by INCORS GmbH (www.incors.com).</desc>
		<path id="curve29" d="M1827 700c-163,50 -318,117 -463,200l-864 0 0 864c-83,145 -150,300 -200,463l0 -1527 1527 0zm1346 0l1127 0 0 200 -664 0c-145,-83 -300,-150 -463,-200zm-2673 3336l0 764 704 0c112,77 231,144 357,200l-1261 0 0 -1427c50,163 117,318 200,463zm3296 764l1504 0 0 -2500 200 0 0 2700 -2061 0c126,-56 245,-123 357,-200zm1704 -4100l0 1400 -400 0 0 1526 -215 372c84,100 97,243 32,357l-106 183c-89,155 -271,195 -425,114 -149,-86 -200,-276 -114,-425l105 -184c68,-117 206,-177 337,-148l186 -321 0 -1474 -400 0 0 -1400 1000 0zm-950 3443l-106 184c-30,52 -12,122 41,153 52,30 122,12 153,-40l106 -185c31,-53 12,-123 -41,-153 -50,-29 -126,-13 -153,41zm750 -3243l-600 0 0 1000 600 0 0 -1000z"/>
	<path id="curve28" d="M2500 2300c331,0 600,269 600,600 0,331 -269,600 -600,600 -331,0 -600,-269 -600,-600 0,-331 269,-600 600,-600zm0 -1500c1160,0 2100,940 2100,2100 0,1160 -940,2100 -2100,2100 -1160,0 -2100,-940 -2100,-2100 0,-1160 940,-2100 2100,-2100zm0 200c-1049,0 -1900,851 -1900,1900 0,1049 851,1900 1900,1900 1049,0 1900,-851 1900,-1900 0,-1049 -851,-1900 -1900,-1900zm0 1000c-378,0 -715,235 -845,590l-188 -68c159,-433 572,-722 1033,-722l0 200zm0 1800c379,0 717,-236 846,-592l188 68c-158,434 -572,724 -1034,724l0 -200zm0 -2200c-546,0 -1034,340 -1221,853l-188 -68c216,-591 780,-985 1409,-985l0 200zm0 2600c547,0 1035,-341 1222,-855l188 68c-216,592 -780,987 -1410,987l0 -200zm0 -1700c-221,0 -400,179 -400,400 0,221 179,400 400,400 221,0 400,-179 400,-400 0,-221 -179,-400 -400,-400z"/>
</svg>