<?xml version="1.0" encoding="UTF-8"?>
<!DOCTYPE svg PUBLIC "-//W3C//DTD SVG 1.1//EN" "http://www.w3.org/Graphics/SVG/1.1/DTD/svg11.dtd">
<svg xmlns="http://www.w3.org/2000/svg" xml:space="preserve" width="580px" height="580px" shape-rendering="geometricPrecision" text-rendering="geometricPrecision" image-rendering="optimizeQuality" fill-rule="nonzero" clip-rule="nonzero" viewBox="0 0 5800 5800" xmlns:xlink="http://www.w3.org/1999/xlink">
	<title>record_player icon</title>
	<desc>record_player icon from the IconExperience.com I-Collection. Copyright by INCORS GmbH (www.incors.com).</desc>
		<path id="curve30"  d="M1827 700c-163,50 -318,117 -463,200l-864 0 0 864c-83,145 -150,300 -200,463l0 -1527 1527 0zm1346 0l1127 0 0 200 -664 0c-145,-83 -300,-150 -463,-200zm-2673 3336l0 764 704 0c112,77 231,144 357,200l-1261 0 0 -1427c50,163 117,318 200,463zm3296 764l1504 0 0 -2500 200 0 0 2700 -2061 0c126,-56 245,-123 357,-200z"/>
	<path id="curve29"  d="M5500 700c0,467 0,933 0,1400l-400 0 0 1526 -215 372c30,36 51,77 63,121 20,76 12,161 -31,236l-106 183c-43,75 -112,125 -189,145 -86,23 -159,9 -236,-31 -75,-43 -125,-112 -146,-189 -20,-77 -11,-162 32,-236l105 -184c43,-74 113,-124 190,-145 47,-12 98,-14 147,-3l186 -321 0 -1474 -400 0c0,-467 0,-933 0,-1400 333,0 667,0 1000,0z"/>
	<path id="curve28"  d="M2500 800c1160,0 2100,940 2100,2100 0,1160 -940,2100 -2100,2100 -1160,0 -2100,-940 -2100,-2100 0,-1160 940,-2100 2100,-2100zm0 1700c-221,0 -400,179 -400,400 0,221 179,400 400,400 221,0 400,-179 400,-400 0,-221 -179,-400 -400,-400zm0 -500l0 -200c-461,0 -874,289 -1033,722l188 68c130,-355 467,-590 845,-590zm0 1800l0 200c462,0 876,-290 1034,-724l-188 -68c-129,356 -467,592 -846,592zm0 -2200l0 -200c-629,0 -1193,394 -1409,985l188 68c187,-513 675,-853 1221,-853zm0 2600l0 200c630,0 1194,-395 1410,-987l-188 -68c-187,514 -675,855 -1222,855z"/>
</svg>