<?xml version="1.0" encoding="UTF-8"?>
<!DOCTYPE svg PUBLIC "-//W3C//DTD SVG 1.1//EN" "http://www.w3.org/Graphics/SVG/1.1/DTD/svg11.dtd">
<svg xmlns="http://www.w3.org/2000/svg" xml:space="preserve" width="580px" height="580px" shape-rendering="geometricPrecision" text-rendering="geometricPrecision" image-rendering="optimizeQuality" fill-rule="nonzero" clip-rule="nonzero" viewBox="0 0 5800 5800" xmlns:xlink="http://www.w3.org/1999/xlink">
	<title>record icon</title>
	<desc>record icon from the IconExperience.com I-Collection. Copyright by INCORS GmbH (www.incors.com).</desc>
		<path id="curve28"  d="M2900 300c1436,0 2600,1164 2600,2600 0,1436 -1164,2600 -2600,2600 -1436,0 -2600,-1164 -2600,-2600 0,-1436 1164,-2600 2600,-2600zm0 2400c110,0 200,90 200,200 0,110 -90,200 -200,200 -110,0 -200,-90 -200,-200 0,-110 90,-200 200,-200zm0 -600c-442,0 -800,358 -800,800 0,442 358,800 800,800 442,0 800,-358 800,-800 0,-442 -358,-800 -800,-800zm-1503 249l188 69c202,-552 727,-918 1315,-918l0 -200c-670,0 -1272,420 -1503,1049zm3007 1098l-188 -68c-201,554 -727,921 -1316,921l0 200c672,0 1274,-421 1504,-1053zm-1504 -2347l0 -200c-839,0 -1590,525 -1878,1313l187 68c260,-710 935,-1181 1691,-1181zm0 3600l0 200c840,0 1592,-527 1880,-1316l-188 -68c-259,712 -935,1184 -1692,1184z"/>
</svg>