<?xml version="1.0" encoding="UTF-8"?>
<!DOCTYPE svg PUBLIC "-//W3C//DTD SVG 1.1//EN" "http://www.w3.org/Graphics/SVG/1.1/DTD/svg11.dtd">
<svg xmlns="http://www.w3.org/2000/svg" xml:space="preserve" width="580px" height="580px" shape-rendering="geometricPrecision" text-rendering="geometricPrecision" image-rendering="optimizeQuality" fill-rule="nonzero" clip-rule="nonzero" viewBox="0 0 5800 5800" xmlns:xlink="http://www.w3.org/1999/xlink">
	<title>recycle icon</title>
	<desc>recycle icon from the IconExperience.com I-Collection. Copyright by INCORS GmbH (www.incors.com).</desc>
	<path id="curve0" d="M3310 4698l-631 -631 142 -141 870 870 -870 871 -142 -141 629 -629 -408 3c-1050,0 -1923,-814 -1995,-1860l197 -53c46,958 838,1713 1798,1713l410 -2zm942 -3052l-231 861 -193 -51 319 -1189 1189 318 -52 193 -859 -230 207 351c170,294 268,636 268,1001 0,668 -331,1286 -881,1658l-145 -144c515,-332 826,-899 826,-1514 0,-330 -89,-639 -244,-905l-204 -349zm-2911 353l-203 357 862 -231 51 193 -1189 319 -319 -1189 193 -52 230 859 195 -343c355,-624 1017,-1012 1739,-1012 314,0 612,73 877,202l-53 197c-247,-127 -527,-199 -824,-199 -645,0 -1237,344 -1559,899z"/>
</svg>