<?xml version="1.0" encoding="UTF-8"?>
<!DOCTYPE svg PUBLIC "-//W3C//DTD SVG 1.1//EN" "http://www.w3.org/Graphics/SVG/1.1/DTD/svg11.dtd">
<svg xmlns="http://www.w3.org/2000/svg" xml:space="preserve" width="580px" height="580px" shape-rendering="geometricPrecision" text-rendering="geometricPrecision" image-rendering="optimizeQuality" fill-rule="nonzero" clip-rule="nonzero" viewBox="0 0 5800 5800" xmlns:xlink="http://www.w3.org/1999/xlink">
	<title>recycle icon</title>
	<desc>recycle icon from the IconExperience.com I-Collection. Copyright by INCORS GmbH (www.incors.com).</desc>
	<path id="curve0"  d="M4287 1902l-169 631 -386 -103 344 -1286 1286 345 -103 386 -625 -168 44 75c204,324 322,707 322,1118 0,694 -340,1338 -909,1730l-289 -289c496,-311 798,-853 798,-1441 0,-397 -120,-667 -313,-998zm-1387 -1102c323,0 630,73 903,204l-106 394c-237,-126 -509,-198 -797,-198 -668,0 -1272,390 -1548,995l622 -166 103 386 -1286 344 -344 -1286 386 -103 167 624 43 -76c364,-686 1076,-1118 1857,-1118zm-1699 2160c32,915 784,1640 1699,1640 57,0 115,0 170,0l-461 -462 282 -283 942 941 -942 942 -282 -283 456 -457c-55,1 -110,2 -165,2 -1095,0 -2008,-843 -2094,-1934l395 -106z"/>
</svg>