<?xml version="1.0" encoding="utf-8"?>
<!-- Generator: Adobe Illustrator 19.2.1, SVG Export Plug-In . SVG Version: 6.00 Build 0)  -->
<svg version="1.1" id="refresh_x5F_gi" xmlns="http://www.w3.org/2000/svg" xmlns:xlink="http://www.w3.org/1999/xlink" x="0px"
	 y="0px" width="580px" height="580px" viewBox="0 0 580 580" style="enable-background:new 0 0 580 580;" xml:space="preserve">
<title>address_book2 icon</title>
<desc>address_book2 icon from the IconExperience.com I-Collection. Copyright by INCORS GmbH (www.incors.com).</desc>
<title>address_book2 icon</title>
<desc>address_book2 icon from the IconExperience.com I-Collection. Copyright by INCORS GmbH (www.incors.com).</desc>
<title>address_book2 icon</title>
<desc>address_book2 icon from the IconExperience.com I-Collection. Copyright by INCORS GmbH (www.incors.com).</desc>
<path id="curve28_5_" d="M277.1,21.4l107,107.1l-107,107.1l-14.2-14.2l83-82.9H290c-110.5,0-200,89.5-200,200s89.5,200,200,200
	s200-89.5,200-200c0-57.5-24.4-111.8-67.5-149.9l13.2-14.9C483,215.6,510,275.4,510,338.5c0,121.5-98.5,220-220,220S70,460,70,338.5
	s98.5-220,220-220h55.9l-83-82.9L277.1,21.4z"/>
</svg>
