<?xml version="1.0" encoding="utf-8"?>
<!-- Generator: Adobe Illustrator 19.2.1, SVG Export Plug-In . SVG Version: 6.00 Build 0)  -->
<svg version="1.1" id="refresh_x5F_group_x5F_gi" xmlns="http://www.w3.org/2000/svg" xmlns:xlink="http://www.w3.org/1999/xlink"
	 x="0px" y="0px" width="580px" height="580px" viewBox="0 0 580 580" style="enable-background:new 0 0 580 580;"
	 xml:space="preserve">
<title>address_book2 icon</title>
<desc>address_book2 icon from the IconExperience.com I-Collection. Copyright by INCORS GmbH (www.incors.com).</desc>
<title>address_book2 icon</title>
<desc>address_book2 icon from the IconExperience.com I-Collection. Copyright by INCORS GmbH (www.incors.com).</desc>
<title>address_book2 icon</title>
<desc>address_book2 icon from the IconExperience.com I-Collection. Copyright by INCORS GmbH (www.incors.com).</desc>
<g>
	<path d="M85,338.8C85,228.3,174.5,139,285,139h55.9l-83,82.7l14.2,14.1l107-107.2l-107-107.1l-14.2,14.4l83,83.1H285
		c-121.5,0-220,98.3-220,219.8c0,118.1,93.1,214.3,210,219.5v-20C169.2,533.1,85,445.9,85,338.8z"/>
	<path d="M483.8,317h20.1c-5.4-55.1-31.3-106.1-73.2-143.3l-13.2,14.9C455.2,222,478.6,267.6,483.8,317z"/>
	<path d="M295,338v220h220V338H295z M495,538H315V358h180V538z"/>
</g>
</svg>
