<?xml version="1.0" encoding="UTF-8"?>
<!DOCTYPE svg PUBLIC "-//W3C//DTD SVG 1.1//EN" "http://www.w3.org/Graphics/SVG/1.1/DTD/svg11.dtd">
<svg xmlns="http://www.w3.org/2000/svg" xml:space="preserve" width="580px" height="580px" shape-rendering="geometricPrecision" text-rendering="geometricPrecision" image-rendering="optimizeQuality" fill-rule="nonzero" clip-rule="nonzero" viewBox="0 0 5800 5800" xmlns:xlink="http://www.w3.org/1999/xlink">
	<title>refresh icon</title>
	<desc>refresh icon from the IconExperience.com I-Collection. Copyright by INCORS GmbH (www.incors.com).</desc>
		<path id="curve28" d="M3171 229l970 971 -970 971 -142 -142 730 -729 -2086 0c-545,0 -973,464 -973,1000l0 1200c0,466 345,880 798,978l-122 122 72 72c-541,-121 -948,-614 -948,-1172l0 -1200c0,-646 519,-1200 1173,-1200l2086 0 -730 -729 142 -142zm-542 5342l-970 -971 970 -971 142 142 -730 729 2082 0c544,0 972,-464 972,-1000l0 -1200c0,-465 -343,-878 -793,-977l122 -123 -70 -71c537,124 941,616 941,1171l0 1200c0,646 -519,1200 -1172,1200l-2082 0 730 729 -142 142z"/>
</svg>