<?xml version="1.0" encoding="UTF-8"?>
<!DOCTYPE svg PUBLIC "-//W3C//DTD SVG 1.1//EN" "http://www.w3.org/Graphics/SVG/1.1/DTD/svg11.dtd">
<svg xmlns="http://www.w3.org/2000/svg" xml:space="preserve" width="580px" height="580px" shape-rendering="geometricPrecision" text-rendering="geometricPrecision" image-rendering="optimizeQuality" fill-rule="nonzero" clip-rule="nonzero" viewBox="0 0 5800 5800" xmlns:xlink="http://www.w3.org/1999/xlink">
	<title>refresh icon</title>
	<desc>refresh icon from the IconExperience.com I-Collection. Copyright by INCORS GmbH (www.incors.com).</desc>
		<path id="curve28"  d="M4642 1125c445,212 753,669 753,1175l0 1200c0,700 -564,1300 -1272,1300l-1840 0 558 559 -282 282 -1042 -1041 1042 -1041 282 282 -558 559 1840 0c489,0 872,-418 872,-900l0 -1200c0,-398 -282,-756 -662,-866l309 -309zm-1401 -966l1042 1041 -1042 1041 -282 -282 558 -559 -1844 0c-490,0 -873,418 -873,900l0 1200c0,402 287,760 667,867 -104,104 -206,207 -309,310 -445,-210 -758,-667 -758,-1177l0 -1200c0,-700 564,-1300 1273,-1300l1844 0 -558 -559 282 -282z"/>
</svg>