<?xml version="1.0" encoding="UTF-8"?>
<!DOCTYPE svg PUBLIC "-//W3C//DTD SVG 1.1//EN" "http://www.w3.org/Graphics/SVG/1.1/DTD/svg11.dtd">
<svg xmlns="http://www.w3.org/2000/svg" xml:space="preserve" width="580px" height="580px" shape-rendering="geometricPrecision" text-rendering="geometricPrecision" image-rendering="optimizeQuality" fill-rule="nonzero" clip-rule="nonzero" viewBox="0 0 5800 5800" xmlns:xlink="http://www.w3.org/1999/xlink">
	<title>registry icon</title>
	<desc>registry icon from the IconExperience.com I-Collection. Copyright by INCORS GmbH (www.incors.com).</desc>
		<path id="curve28"  d="M2500 3300l0 2200 -2200 0 0 -2200 2200 0zm-200 200l-1800 0 0 1800 1800 0 0 -1800zm2600 -200l0 2200 -2200 0 0 -2200 2200 0zm-200 200l-1800 0 0 1800 1800 0 0 -1800zm-2200 -2600l0 2200 -2200 0 0 -2200 2200 0zm-200 200l-1800 0 0 1800 1800 0 0 -1800zm3319 69l-988 1965 -1965 -988 988 -1965 1965 988zm-268 89l-1608 -809 -809 1608 1608 809 809 -1608z"/>
</svg>