<?xml version="1.0" encoding="UTF-8"?>
<!DOCTYPE svg PUBLIC "-//W3C//DTD SVG 1.1//EN" "http://www.w3.org/Graphics/SVG/1.1/DTD/svg11.dtd">
<svg xmlns="http://www.w3.org/2000/svg" xml:space="preserve" width="580px" height="580px" shape-rendering="geometricPrecision" text-rendering="geometricPrecision" image-rendering="optimizeQuality" fill-rule="nonzero" clip-rule="nonzero" viewBox="0 0 5800 5800" xmlns:xlink="http://www.w3.org/1999/xlink">
	<title>remote_control icon</title>
	<desc>remote_control icon from the IconExperience.com I-Collection. Copyright by INCORS GmbH (www.incors.com).</desc>
		<path id="curve29"  d="M4100 2100l0 3400 -2400 0 0 -3400 2400 0zm-200 200l-2000 0 0 3000 2000 0 0 -3000zm-1400 200c166,0 300,134 300,300 0,166 -134,300 -300,300 -166,0 -300,-134 -300,-300 0,-165 135,-300 300,-300zm0 200c-56,0 -100,44 -100,100 0,55 45,100 100,100 55,0 100,-45 100,-100 0,-55 -45,-100 -100,-100zm800 -200c165,0 300,135 300,300 0,166 -134,300 -300,300 -166,0 -300,-134 -300,-300 0,-166 134,-300 300,-300zm0 200c-55,0 -100,45 -100,100 0,55 45,100 100,100 55,0 100,-45 100,-100 0,-56 -44,-100 -100,-100zm-800 600c165,0 300,135 300,300 0,166 -134,300 -300,300 -165,0 -300,-135 -300,-300 0,-166 134,-300 300,-300zm0 200c-55,0 -100,45 -100,100 0,56 44,100 100,100 55,0 100,-45 100,-100 0,-56 -44,-100 -100,-100zm800 -200c166,0 300,134 300,300 0,165 -135,300 -300,300 -166,0 -300,-134 -300,-300 0,-165 135,-300 300,-300zm0 200c-56,0 -100,44 -100,100 0,55 45,100 100,100 56,0 100,-44 100,-100 0,-55 -45,-100 -100,-100zm-800 600c165,0 300,135 300,300 0,166 -134,300 -300,300 -165,0 -300,-135 -300,-300 0,-166 134,-300 300,-300zm0 200c-55,0 -100,45 -100,100 0,56 44,100 100,100 55,0 100,-45 100,-100 0,-56 -44,-100 -100,-100zm800 -200c166,0 300,134 300,300 0,165 -135,300 -300,300 -166,0 -300,-134 -300,-300 0,-165 135,-300 300,-300zm0 200c-56,0 -100,44 -100,100 0,55 45,100 100,100 56,0 100,-44 100,-100 0,-55 -45,-100 -100,-100z"/>
	<path id="curve28"  d="M3129 939c-283,-283 -660,-439 -1060,-439 -401,0 -778,156 -1061,439l-141 -141c319,-319 750,-498 1202,-498 451,0 883,179 1202,498l-142 141zm-1834 283c206,-206 486,-322 778,-322 291,0 572,116 778,322l-142 142c-170,-171 -395,-264 -636,-264 -241,0 -466,93 -636,264l-142 -142zm425 424c93,-93 221,-146 353,-146 132,0 260,53 353,146l-141 142c-57,-57 -132,-88 -212,-88 -81,0 -156,31 -213,88l-140 -142z"/>
</svg>