<?xml version="1.0" encoding="UTF-8"?>
<!DOCTYPE svg PUBLIC "-//W3C//DTD SVG 1.1//EN" "http://www.w3.org/Graphics/SVG/1.1/DTD/svg11.dtd">
<svg xmlns="http://www.w3.org/2000/svg" xml:space="preserve" width="580px" height="580px" shape-rendering="geometricPrecision" text-rendering="geometricPrecision" image-rendering="optimizeQuality" fill-rule="nonzero" clip-rule="nonzero" viewBox="0 0 5800 5800" xmlns:xlink="http://www.w3.org/1999/xlink">
	<title>remote_control2 icon</title>
	<desc>remote_control2 icon from the IconExperience.com I-Collection. Copyright by INCORS GmbH (www.incors.com).</desc>
	<path id="curve0"  d="M2480 1642c-122,-116 -190,-277 -190,-446 0,-160 62,-314 174,-430l143 139c-76,79 -117,182 -117,291 0,115 45,223 128,303l-138 143zm-480 2058c387,0 700,313 700,700 0,387 -313,700 -700,700 -387,0 -700,-313 -700,-700 0,-387 313,-700 700,-700zm276 283c-79,-52 -174,-83 -276,-83 -276,0 -500,224 -500,500 0,276 224,500 500,500 276,0 500,-224 500,-500 0,-102 -30,-197 -83,-276l-346 347 -142 -142 347 -346zm624 -1083c165,0 300,135 300,300l0 200c0,165 -135,300 -300,300 -165,0 -300,-135 -300,-300l0 -200c0,-165 135,-300 300,-300zm0 200c-55,0 -100,45 -100,100l0 200c0,55 45,100 100,100 55,0 100,-45 100,-100l0 -200c0,-55 -45,-100 -100,-100zm100 -1727l0 1127 1160 0c408,0 740,332 740,740l0 1520c0,408 -332,740 -740,740l-2520 0c-408,0 -740,-332 -740,-740l0 -1520c0,-408 332,-740 740,-740l1160 0 0 -1127c-62,-36 -100,-101 -100,-173 0,-110 90,-200 200,-200 110,0 200,90 200,200 0,72 -38,137 -100,173zm1160 1327l-2520 0c-297,0 -540,243 -540,540l0 1520c0,297 243,540 540,540l2520 0c297,0 540,-243 540,-540l0 -1520c0,-297 -243,-540 -540,-540zm-360 1000c387,0 700,313 700,700 0,387 -313,700 -700,700 -387,0 -700,-313 -700,-700 0,-387 313,-700 700,-700zm100 210l0 490 -200 0 0 -490c-232,47 -400,252 -400,490 0,276 224,500 500,500 276,0 500,-224 500,-500 0,-238 -168,-443 -400,-490zm-37 -3726c280,268 437,638 437,1025 0,370 -143,723 -400,989l-143 -139c221,-229 343,-532 343,-850 0,-334 -134,-650 -375,-881l138 -144zm-1926 2032c-280,-268 -437,-638 -437,-1025 0,-370 143,-723 400,-989l143 139c-221,229 -343,532 -343,850 0,334 134,650 375,881l-138 144zm1656 -1746c201,192 314,458 314,736 0,266 -103,520 -288,711l-143 -139c149,-154 231,-358 231,-572 0,-225 -90,-437 -252,-593l138 -143zm-1386 1460c-201,-192 -314,-458 -314,-736 0,-266 103,-520 288,-711l143 139c-149,154 -231,358 -231,572 0,224 90,437 252,593l-138 143zm1113 -1172c122,116 190,277 190,445 0,161 -62,315 -174,431l-143 -139c76,-79 117,-182 117,-292 0,-114 -45,-222 -128,-302l138 -143z"/>
</svg>