<?xml version="1.0" encoding="UTF-8"?>
<!DOCTYPE svg PUBLIC "-//W3C//DTD SVG 1.1//EN" "http://www.w3.org/Graphics/SVG/1.1/DTD/svg11.dtd">
<svg xmlns="http://www.w3.org/2000/svg" xml:space="preserve" width="580px" height="580px" shape-rendering="geometricPrecision" text-rendering="geometricPrecision" image-rendering="optimizeQuality" fill-rule="nonzero" clip-rule="nonzero" viewBox="0 0 5800 5800" xmlns:xlink="http://www.w3.org/1999/xlink">
	<title>remote_control icon</title>
	<desc>remote_control icon from the IconExperience.com I-Collection. Copyright by INCORS GmbH (www.incors.com).</desc>
		<path id="curve29"  d="M3094 975c-274,-274 -638,-425 -1025,-425 -388,0 -752,151 -1026,425l-212 -212c328,-328 774,-513 1238,-513 464,0 909,185 1237,513l-212 212zm-1834 212c215,-215 509,-337 813,-337 304,0 598,122 813,337l-212 212c-161,-161 -373,-249 -601,-249 -228,0 -440,88 -601,249l-212 -212zm425 424c102,-103 243,-161 388,-161 145,0 286,58 388,161l-211 212c-47,-48 -110,-73 -177,-73 -68,0 -130,25 -177,73l-211 -212z"/>
	<path id="curve28"  d="M4100 2100l0 3400c-800,0 -1600,0 -2400,0l0 -3400c800,0 1600,0 2400,0zm-800 2000c-165,0 -300,135 -300,300 0,166 134,300 300,300 165,0 300,-135 300,-300 0,-166 -134,-300 -300,-300zm-800 0c-166,0 -300,134 -300,300 0,165 135,300 300,300 166,0 300,-134 300,-300 0,-165 -135,-300 -300,-300zm800 -800c-165,0 -300,135 -300,300 0,166 134,300 300,300 165,0 300,-135 300,-300 0,-166 -134,-300 -300,-300zm-800 0c-166,0 -300,134 -300,300 0,165 135,300 300,300 166,0 300,-134 300,-300 0,-165 -135,-300 -300,-300zm800 -800c-166,0 -300,134 -300,300 0,166 134,300 300,300 166,0 300,-134 300,-300 0,-165 -135,-300 -300,-300zm-800 0c-165,0 -300,135 -300,300 0,166 134,300 300,300 166,0 300,-134 300,-300 0,-166 -134,-300 -300,-300z"/>
</svg>