<?xml version="1.0" encoding="UTF-8"?>
<!DOCTYPE svg PUBLIC "-//W3C//DTD SVG 1.1//EN" "http://www.w3.org/Graphics/SVG/1.1/DTD/svg11.dtd">
<svg xmlns="http://www.w3.org/2000/svg" xml:space="preserve" width="580px" height="580px" shape-rendering="geometricPrecision" text-rendering="geometricPrecision" image-rendering="optimizeQuality" fill-rule="nonzero" clip-rule="nonzero" viewBox="0 0 5800 5800" xmlns:xlink="http://www.w3.org/1999/xlink">
	<title>repeat icon</title>
	<desc>repeat icon from the IconExperience.com I-Collection. Copyright by INCORS GmbH (www.incors.com).</desc>
		<path id="curve28"  d="M4221 459l1541 1541 -1541 1541 -283 -282 1258 -1259 -1258 -1259 283 -282zm-75 1741l-2646 0c-387,0 -700,313 -700,700l0 1200c0,387 313,700 700,700l1000 0 0 400 -1000 0c-607,0 -1100,-493 -1100,-1100l0 -1200c0,-607 493,-1100 1100,-1100l2646 0 -1058 -1059 283 -282 1541 1541 -1541 1541 -283 -282 1058 -1059z"/>
</svg>