<?xml version="1.0" encoding="utf-8"?>
<!-- Generator: Adobe Illustrator 20.1.0, SVG Export Plug-In . SVG Version: 6.00 Build 0)  -->
<svg version="1.1" id="report_x5F_from_x5F_grid_x5F_gi"
	 xmlns="http://www.w3.org/2000/svg" xmlns:xlink="http://www.w3.org/1999/xlink" x="0px" y="0px" width="580px" height="580px"
	 viewBox="0 0 580 580" style="enable-background:new 0 0 580 580;" xml:space="preserve">
<path d="M250,220v320h320V220H250z M550,520H270V240h280V520z"/>
<polygon points="383.9,440.7 425.5,399.1 469.6,465.3 511,352.9 511,295.1 464.4,421.5 435.4,377.9 428.7,367.7 420,376.3 
	390.3,406.1 347.2,309.4 303,404.1 303,451.2 346.8,357.4 "/>
<path d="M32,519.6v-480h245c8.2,0,15,6.8,15,15v85h85c8.3,0,15,6.7,15,15v23.1h20v-23.1c0-9.6-3.9-18.4-10.3-24.7l-100-100
	c-6.3-6.4-15.1-10.3-24.7-10.3H12v520h201.5v-20H32z M312,68.4l51.2,51.2H312V68.4z"/>
</svg>
