<?xml version="1.0" encoding="utf-8"?>
<!-- Generator: Adobe Illustrator 20.1.0, SVG Export Plug-In . SVG Version: 6.00 Build 0)  -->
<svg version="1.1" id="Ebene_1" xmlns="http://www.w3.org/2000/svg" xmlns:xlink="http://www.w3.org/1999/xlink" x="0px" y="0px"
	 width="580px" height="580px" viewBox="0 0 580 580" style="enable-background:new 0 0 580 580;" xml:space="preserve">
<g>
	<path d="M310,180h20v-80h80v80h20v-80h80v80h20V40H10v460h200v-20h-80v-80h80v-20h-80v-80h80v-20h-80v-80h80v-20h-80v-80h80v80h20
		v-80h80V180z M110,480H30v-80h80V480z M110,380H30v-80h80V380z M110,280H30v-80h80V280z M110,180H30v-80h80V180z M30,80V60h480v20
		H30z"/>
	<path d="M250,220v320h320V220H250z M550,520H270V240h280V520z"/>
	<polygon points="383.9,440.7 425.5,399.1 469.6,465.3 511,352.9 511,295.1 464.4,421.5 435.4,377.9 428.7,367.7 420,376.3 
		390.3,406.1 347.2,309.4 303,404.1 303,451.2 346.8,357.4 	"/>
</g>
</svg>
