<?xml version="1.0" encoding="utf-8"?>
<!-- Generator: Adobe Illustrator 20.0.0, SVG Export Plug-In . SVG Version: 6.00 Build 0)  -->
<svg version="1.1" id="report_x5F_edit_x5F_gi" xmlns="http://www.w3.org/2000/svg" xmlns:xlink="http://www.w3.org/1999/xlink"
	 x="0px" y="0px" width="580px" height="580px" viewBox="0 0 580 580" style="enable-background:new 0 0 580 580;"
	 xml:space="preserve">
<g>
	<polygon points="342,271.7 326.2,314.6 342,298.8 	"/>
	<polygon points="117,219 359,219 359,281.5 378,262.8 378,200 98,200 98,480 197.2,480 204,461 117,461 	"/>
	<polygon points="259.7,380.9 274.2,366.5 266.2,354.5 259.5,344.3 250.8,352.9 221.1,382.7 178.1,286 134,380.7 134,427.8 
		177.7,334 214.7,417.3 256.3,375.7 	"/>
	<path d="M534.6,276L498,239.4c-10-10.1-26.6-10.1-36.6,0L257.9,442.8l-18.8,51.8l-3.5,9.5l-10.1,27.8c-1.7,4.8-0.6,10,3,13.5
		c3.6,3.6,8.8,4.8,13.5,3l27.8-10.1l9.5-3.5l51.8-18.8l203.4-203.5C544.7,302.5,544.7,286.1,534.6,276z M263.9,519.3l-8.2-8.1
		l19.6-53.9l41.8,41.8L263.9,519.3z M334.2,485.7l-44.8-44.6l133.4-133.4l44.8,44.8L334.2,485.7z M517.4,303l-36.7,35.3l-45-44.5
		l36.7-36.3c4-3.8,10.5-3.8,14.5,0l30.5,31.5C521.4,292.9,521.4,299.1,517.4,303z"/>
	<path d="M179.8,530H58V50h244.9c8.2,0,15.1,6.8,15.1,15v85h84.9c8.3,0,15.1,6.7,15.1,15v57.8l11.9-11.9c2.5-2.5,5.1-4.8,8.1-6.9
		v-39c0-9.6-4-18.4-10.4-24.7c-9.7-9.8-100-99.7-100-100c-6.3-6.4-15.1-10.3-24.7-10.3H38v520h142.2
		C178.8,543.5,178.7,536.7,179.8,530z M338,78.8l51.1,51.2H338V78.8z"/>
	<polygon points="418,530 371.8,530 354.9,547 351.8,550 438,550 438,463.9 418,483.9 	"/>
</g>
</svg>
