<?xml version="1.0" encoding="UTF-8"?>
<!DOCTYPE svg PUBLIC "-//W3C//DTD SVG 1.1//EN" "http://www.w3.org/Graphics/SVG/1.1/DTD/svg11.dtd">
<svg xmlns="http://www.w3.org/2000/svg" xml:space="preserve" width="580px" height="580px" shape-rendering="geometricPrecision" text-rendering="geometricPrecision" image-rendering="optimizeQuality" fill-rule="nonzero" clip-rule="nonzero" viewBox="0 0 5800 5800" xmlns:xlink="http://www.w3.org/1999/xlink">
	<title>resize icon</title>
	<desc>resize icon from the IconExperience.com I-Collection. Copyright by INCORS GmbH (www.incors.com).</desc>
		<path id="curve31"  d="M500,3700 2100,3700 2100,5300 500,5300z"/>
	<path id="curve30"  d="M500 500l0 3000 1800 0 0 1800 3000 0 0 -4800 -4800 0zm3200 3000l-1400 0 0 -1400 200 0 0 1059 1859 -1859 -1059 0 0 -200 1400 0 0 1400 -200 0 0 -1059 -1859 1859 1059 0 0 200z"/>
	<path id="curve28"  d="M600 3700l1400 0 100 0 0 100 0 1400 0 100 -100 0 -1400 0 -100 0 0 -100 0 -1400 0 -100 100 0zm1300 200l-1200 0 0 1200 1200 0 0 -1200z"/>
</svg>