<?xml version="1.0" encoding="utf-8"?>
<!-- Generator: Adobe Illustrator 19.2.1, SVG Export Plug-In . SVG Version: 6.00 Build 0)  -->
<svg version="1.1" id="Ebene_1" xmlns="http://www.w3.org/2000/svg" xmlns:xlink="http://www.w3.org/1999/xlink" x="0px" y="0px"
	 width="580px" height="580px" viewBox="0 0 580 580" style="enable-background:new 0 0 580 580;" xml:space="preserve">
<g id="curve28_52_">
	<path d="M290,30c143.6,0,260,116.4,260,260S433.6,550,290,550S30,433.6,30,290S146.4,30,290,30z M290,50C157.4,50,50,157.4,50,290
		s107.4,240,240,240s240-107.4,240-240S422.6,50,290,50z"/>
</g>
<path d="M409,157.9L273,277.5V157.9L122.8,290L273,422.1V302.4l136,119.7V157.9z M253,377.9L153.1,290l99.9-87.9V377.9z M389,377.9
	L289.1,290l99.9-87.9V377.9z"/>
</svg>
