<?xml version="1.0" encoding="utf-8"?>
<!-- Generator: Adobe Illustrator 19.2.1, SVG Export Plug-In . SVG Version: 6.00 Build 0)  -->
<svg version="1.1" id="Ebene_1" xmlns="http://www.w3.org/2000/svg" xmlns:xlink="http://www.w3.org/1999/xlink" x="0px" y="0px"
	 width="580px" height="580px" viewBox="0 0 580 580" style="enable-background:new 0 0 580 580;" xml:space="preserve">
<g>
	<path d="M290,30C146.4,30,30,146.4,30,290s116.4,260,260,260s260-116.4,260-260S433.6,30,290,30z M290,530
		C157.4,530,50,422.6,50,290S157.4,50,290,50s240,107.4,240,240S422.6,530,290,530z"/>
	<path d="M296,277.5L160,157.9v264.2l136-119.7v119.7L446.2,290L296,157.9V277.5z M180,377.9V202.1l99.9,87.9L180,377.9z M316,202.1
		l99.9,87.9L316,377.9V202.1z"/>
</g>
</svg>
