<?xml version="1.0" encoding="utf-8"?>
<!-- Generator: Adobe Illustrator 19.2.1, SVG Export Plug-In . SVG Version: 6.00 Build 0)  -->
<svg version="1.1" id="restart_x5F_gi" xmlns="http://www.w3.org/2000/svg" xmlns:xlink="http://www.w3.org/1999/xlink" x="0px"
	 y="0px" width="580px" height="580px" viewBox="0 0 580 580" style="enable-background:new 0 0 580 580;" xml:space="preserve">
<title>address_book2 icon</title>
<desc>address_book2 icon from the IconExperience.com I-Collection. Copyright by INCORS GmbH (www.incors.com).</desc>
<title>address_book2 icon</title>
<desc>address_book2 icon from the IconExperience.com I-Collection. Copyright by INCORS GmbH (www.incors.com).</desc>
<title>address_book2 icon</title>
<desc>address_book2 icon from the IconExperience.com I-Collection. Copyright by INCORS GmbH (www.incors.com).</desc>
<path id="curve28_7_" d="M317.1,35.6l-83,82.9H290c121.5,0,220,98.5,220,220s-98.5,220-220,220S70,460,70,338.5
	c0-63.2,27-122.9,74.3-164.8l13.2,14.9C114.4,226.8,90,281,90,338.5c0,110.5,89.5,200,200,200s200-89.5,200-200s-89.5-200-200-200
	h-55.9l83,82.9l-14.2,14.2l-107-107.1l107-107.1L317.1,35.6z"/>
</svg>
