<?xml version="1.0" encoding="UTF-8"?>
<!DOCTYPE svg PUBLIC "-//W3C//DTD SVG 1.1//EN" "http://www.w3.org/Graphics/SVG/1.1/DTD/svg11.dtd">
<svg xmlns="http://www.w3.org/2000/svg" xml:space="preserve" width="580px" height="580px" shape-rendering="geometricPrecision" text-rendering="geometricPrecision" image-rendering="optimizeQuality" fill-rule="nonzero" clip-rule="nonzero" viewBox="0 0 5800 5800" xmlns:xlink="http://www.w3.org/1999/xlink">
	<title>reticle icon</title>
	<desc>reticle icon from the IconExperience.com I-Collection. Copyright by INCORS GmbH (www.incors.com).</desc>
		<path id="curve28"  d="M400 2800l502 0c51,-1025 873,-1847 1898,-1898l0 -502 200 0 0 502c1025,51 1847,873 1898,1898l502 0 0 200 -502 0c-51,1025 -873,1847 -1898,1898l0 502 -200 0 0 -502c-1025,-51 -1847,-873 -1898,-1898l-502 0 0 -200zm703 0l1003 0c45,-362 332,-649 694,-694l0 -1003c-915,50 -1647,782 -1697,1697zm1897 -1697l0 1003c362,45 649,332 694,694l1003 0c-50,-915 -782,-1647 -1697,-1697zm1697 1897l-1003 0c-45,362 -332,649 -694,694l0 1003c915,-50 1647,-782 1697,-1697zm-1897 1697l0 -1003c-362,-45 -649,-332 -694,-694l-1003 0c50,915 782,1647 1697,1697zm100 -2397c-331,0 -600,269 -600,600 0,331 269,600 600,600 331,0 600,-269 600,-600 0,-331 -269,-600 -600,-600z"/>
</svg>