<?xml version="1.0" encoding="UTF-8"?>
<!DOCTYPE svg PUBLIC "-//W3C//DTD SVG 1.1//EN" "http://www.w3.org/Graphics/SVG/1.1/DTD/svg11.dtd">
<svg xmlns="http://www.w3.org/2000/svg" xml:space="preserve" width="580px" height="580px" shape-rendering="geometricPrecision" text-rendering="geometricPrecision" image-rendering="optimizeQuality" fill-rule="nonzero" clip-rule="nonzero" viewBox="0 0 5800 5800" xmlns:xlink="http://www.w3.org/1999/xlink">
	<title>rfid_chip icon</title>
	<desc>rfid_chip icon from the IconExperience.com I-Collection. Copyright by INCORS GmbH (www.incors.com).</desc>
		<path id="curve28" d="M1500 5300l-700 0c-165,0 -300,-135 -300,-300l0 -4200c0,-165 135,-300 300,-300l4200 0c165,0 300,135 300,300l0 4200c0,165 -135,300 -300,300l-2300 0c-160,0 -249,-8 -313,-26 -77,-23 -110,-55 -158,-103l-800 -800c-100,-101 -129,-130 -129,-471l0 -2300c0,-165 135,-300 300,-300l2600 0c165,0 300,135 300,300l0 2600c0,165 -135,300 -300,300l-1200 0c-66,0 -138,-9 -206,-32 -62,-20 -119,-52 -165,-97l-400 -400c-51,-52 -84,-114 -104,-181 -18,-62 -25,-127 -25,-190l0 -1200c0,-165 135,-300 300,-300l1000 0c165,0 300,135 300,300l0 1000c0,165 -135,300 -300,300l-1092 0c3,12 5,23 9,34 10,36 27,69 54,95l400 400c22,23 52,39 86,50 44,15 95,21 143,21l1200 0c55,0 100,-45 100,-100l0 -2600c0,-55 -45,-100 -100,-100l-2600 0c-55,0 -100,45 -100,100l0 2300c0,259 16,274 71,329l800 801c26,26 44,44 73,52 42,13 116,18 256,18l2300 0c55,0 100,-45 100,-100l0 -4200c0,-55 -45,-100 -100,-100l-4200 0c-55,0 -100,45 -100,100l0 4200c0,55 45,100 100,100l700 0 0 200z"/>
</svg>