<?xml version="1.0" encoding="UTF-8"?>
<!DOCTYPE svg PUBLIC "-//W3C//DTD SVG 1.1//EN" "http://www.w3.org/Graphics/SVG/1.1/DTD/svg11.dtd">
<svg xmlns="http://www.w3.org/2000/svg" xml:space="preserve" width="580px" height="580px" shape-rendering="geometricPrecision" text-rendering="geometricPrecision" image-rendering="optimizeQuality" fill-rule="nonzero" clip-rule="nonzero" viewBox="0 0 5800 5800" xmlns:xlink="http://www.w3.org/1999/xlink">
	<title>rfid_chip icon</title>
	<desc>rfid_chip icon from the IconExperience.com I-Collection. Copyright by INCORS GmbH (www.incors.com).</desc>
		<path id="curve28"  d="M1500 5349l-700 1c-192,0 -350,-158 -350,-350l0 -4200c0,-193 157,-350 350,-350l4200 0c193,0 350,157 350,350l0 4200c0,193 -157,350 -350,350l-2300 0c-209,0 -352,9 -506,-144l-800 -800c-112,-112 -144,-144 -144,-506l0 -2300c0,-193 157,-350 350,-350l2600 0c192,0 350,158 350,350l0 2600c0,193 -157,350 -350,350l-1200 0c-143,0 -302,-40 -406,-144l-400 -400c-108,-108 -144,-258 -144,-406l0 -1200c0,-193 157,-350 350,-350l1000 0c193,0 350,157 350,350l0 1000c0,192 -158,350 -350,350l-1024 0c7,16 17,31 30,44l400 400c46,46 133,56 194,56l1200 0c27,0 50,-23 50,-50l0 -2600c0,-28 -22,-50 -50,-50l-2600 0c-27,0 -50,23 -50,50l0 2300c0,238 13,250 56,294l800 801c74,73 192,55 294,55l2300 0c27,0 50,-23 50,-50l0 -4200c0,-27 -23,-50 -50,-50l-4200 0c-27,0 -50,23 -50,50l0 4200c0,28 22,50 50,50l700 1 0 298z"/>
</svg>