<?xml version="1.0" encoding="UTF-8"?>
<!DOCTYPE svg PUBLIC "-//W3C//DTD SVG 1.1//EN" "http://www.w3.org/Graphics/SVG/1.1/DTD/svg11.dtd">
<svg xmlns="http://www.w3.org/2000/svg" xml:space="preserve" width="580px" height="580px" shape-rendering="geometricPrecision" text-rendering="geometricPrecision" image-rendering="optimizeQuality" fill-rule="nonzero" clip-rule="nonzero" viewBox="0 0 5800 5800" xmlns:xlink="http://www.w3.org/1999/xlink">
	<title>rfq icon</title>
	<desc>rfq icon from the IconExperience.com I-Collection. Copyright by INCORS GmbH (www.incors.com).</desc>
	<path id="curve0"  d="M1900 4700l200 0 0 200 -200 0 0 -200zm2250 -4400c96,0 184,39 247,103 0,2 914,914 1000,1000 64,63 103,151 103,247l0 3850 -2651 0c113,-56 219,-123 317,-200l2134 0 0 -3650c0,-83 -67,-150 -150,-150l-850 0 0 -850c0,-82 -68,-150 -150,-150l-2450 0 0 1424c-68,10 -135,25 -200,43l0 -1667 2650 0zm350 488l0 512 512 0 -512 -512zm-2500 1312c939,0 1700,761 1700,1700 0,939 -761,1700 -1700,1700 -939,0 -1700,-761 -1700,-1700 0,-939 761,-1700 1700,-1700zm0 200c-828,0 -1500,672 -1500,1500 0,828 672,1500 1500,1500 828,0 1500,-672 1500,-1500 0,-828 -672,-1500 -1500,-1500zm-11 600c-315,0 -589,157 -589,500l-200 0c0,-456 362,-700 789,-700 428,0 811,235 811,700 0,389 -240,522 -454,642 -129,71 -246,137 -246,258l0 200 -200 0 0 -200c0,-238 166,-331 349,-432 166,-93 351,-196 351,-468 0,-351 -296,-500 -611,-500z"/>
</svg>