<?xml version="1.0" encoding="UTF-8"?>
<!DOCTYPE svg PUBLIC "-//W3C//DTD SVG 1.1//EN" "http://www.w3.org/Graphics/SVG/1.1/DTD/svg11.dtd">
<svg xmlns="http://www.w3.org/2000/svg" xml:space="preserve" width="580px" height="580px" shape-rendering="geometricPrecision" text-rendering="geometricPrecision" image-rendering="optimizeQuality" fill-rule="nonzero" clip-rule="nonzero" viewBox="0 0 5800 5800" xmlns:xlink="http://www.w3.org/1999/xlink">
	<title>rfq icon</title>
	<desc>rfq icon from the IconExperience.com I-Collection. Copyright by INCORS GmbH (www.incors.com).</desc>
	<path id="curve0"  d="M1900 4700l0 200 200 0 0 -200 -200 0zm100 -2600c939,0 1700,761 1700,1700 0,939 -761,1700 -1700,1700 -939,0 -1700,-761 -1700,-1700 0,-939 761,-1700 1700,-1700zm-11 800c315,0 611,149 611,500 0,272 -185,375 -351,468 -183,101 -349,194 -349,432l0 200 200 0 0 -200c0,-121 117,-187 246,-258 214,-120 454,-253 454,-642 0,-465 -383,-700 -811,-700 -427,0 -789,244 -789,700l200 0c0,-343 274,-500 589,-500zm2111 -1200l1400 0 0 3800 -2651 0c184,-92 351,-213 494,-357 344,-343 557,-818 557,-1343 0,-525 -213,-1000 -557,-1343 -343,-344 -818,-557 -1343,-557 -173,0 -341,23 -500,67l0 -1667 2600 0c0,467 0,933 0,1400zm144 -1387c59,16 111,48 153,90 0,3 998,999 1000,1000 42,42 74,94 90,153 -36,-34 -85,-56 -137,-56l-1050 0 0 -1050c0,-51 -21,-100 -56,-137z"/>
</svg>