<?xml version="1.0" encoding="utf-8"?>
<!-- Generator: Adobe Illustrator 21.1.0, SVG Export Plug-In . SVG Version: 6.00 Build 0)  -->
<svg version="1.1" id="right_x5F_matrix_x5F_gi" xmlns="http://www.w3.org/2000/svg" xmlns:xlink="http://www.w3.org/1999/xlink"
	 x="0px" y="0px" viewBox="0 0 580 580" style="enable-background:new 0 0 580 580;" xml:space="preserve">
<style type="text/css">
	.st0{display:none;}
	.st1{display:inline;}
	.st2{display:inline;fill:none;stroke:#000000;stroke-width:18;stroke-miterlimit:10;}
	.st3{display:none;fill:#FFFFFF;}
</style>
<g id="excel_x5F_grid_Linien" class="st0">
	<path class="st1" d="M554,80"/>
	<rect x="41.9" y="48" class="st2" width="503.3" height="442"/>
	<line class="st2" x1="98" y1="190" x2="537" y2="190"/>
	<line class="st2" x1="98" y1="290" x2="537" y2="290"/>
	<line class="st2" x1="98" y1="390" x2="537" y2="390"/>
	<line class="st2" x1="43" y1="99" x2="542" y2="99"/>
	<line class="st2" x1="98" y1="53" x2="98" y2="490"/>
	<line class="st2" x1="244" y1="91" x2="244" y2="487"/>
	<line class="st2" x1="397" y1="91" x2="397" y2="487"/>
</g>
<g id="grid_zusammengesetzer_Pfad">
	<path d="M535.2,307.7V381h-21.8c-1.4,2.1-2.9,4.1-4.4,6.1l-0.1,0.1c-3.3,4.2-7,8.1-11,11.8h37.3v82h-21.9v18h39.9V278
		C548.4,288.7,542.4,298.7,535.2,307.7z"/>
	<path d="M148.3,494.2c-0.1-0.1-0.1-0.3-0.2-0.4c-2.2-4-3.8-8.4-4.7-12.8H106v-82h62.6l18-18H106v-82h128v34.7l18-18v-15.9
		c-4.4-7.7-6.8-16.5-6.8-25.6c0-9.1,2.4-17.8,6.8-25.4V199h44.8c-2.1-5.2-2.4-11.1-0.8-16.7c0.1-0.4,0.3-0.9,0.4-1.3H252v-73h99.3
		c12.1-8.1,25.2-14.1,39-18H106V57h429.2v33h-70.6c14.1,3.9,27.2,10.1,39.1,18h31.5v29c7.2,9,13.3,19,18,29.7V39H31.9v460h119.7
		C150.4,497.5,149.3,495.9,148.3,494.2z M106,108h128v73H106V108z M106,199h128v82H106V199z M88,481H49.9V108H88V481z M88,90H49.9
		V57H88V90z"/>
	<path d="M359.5,481h-68.8c-4.6,5.4-11.4,8.9-19.1,8.9h-9.7v4.6c0,1.5-0.1,3-0.4,4.5h98V481z"/>
</g>
<g id="rechtevergabe_Bischöfe_1_">
	<path id="Outline" class="st3" d="M508.9,387.2l0.1-0.1c14-17.8,21.5-38.8,21.5-60.8c0-3.6-0.8-7.2-2.3-10.4
		c22.8-24.6,36.8-57.4,36.8-93.5c0-75.8-61.7-137.5-137.5-137.5c-29.6,0-57.9,9.3-81.8,27s-41.1,42-49.7,70.4
		c-1.9,6.3-1.2,13,1.6,18.6l-37.5,37.5c-9.6,9.5-14.9,22.3-14.9,35.9c0,13,4.8,25.3,13.5,34.8L150,417.5c-4.7,4.7-7.3,11.1-7.3,17.7
		v38.3c0,6.9,1.9,14.1,5.4,20.3c0.1,0.1,0.1,0.3,0.2,0.4c4.1,7,9.9,12.4,16.9,15.7l45.1,22.5c3.5,1.8,7.4,2.6,11.2,2.6
		c6.5,0,12.9-2.5,17.7-7.4l15.4-15.5c4.7-4.7,7.3-11,7.3-17.6v-4.6h9.7c13.8,0,25-11.2,25-25v-9.7h9.7c13.8,0,25-11.2,25-25v-9.7
		h4.6c6.6,0,13-2.6,17.7-7.3l2.2-2.2c1.2,0.8,2.4,1.5,3.7,2.2V560c0,13.8,11.2,25,25,25h69.2c11.1,0,20.5-7.3,23.8-17.3h10.8
		c13.8,0,25-11.2,25-25v-86.6c0-13.8-11.2-25-25-25h-9.6v-17.9C490.4,406.4,500.7,397.5,508.9,387.2z"/>
	<g id="Ebene_193_Schlüsselbund_1_">
		<path id="curve30_3_" d="M427.5,109.9c62.1,0,112.5,50.4,112.5,112.5S489.6,335,427.5,335c-6.2,0-12.4-0.5-18.4-1.5
			c-4.6-1.6-7.6-4.2-7.6-7.2c0-4.8,7.8-8.7,17.3-8.7h8.7c52.6,0,95.2-42.6,95.2-95.2s-42.6-95.2-95.2-95.2
			c-35.5,0-67.9,19.7-84.3,51c-8.5,1.2-16.7,5-23.3,11.3C334.3,142.2,378.1,109.9,427.5,109.9z"/>
		<path id="curve29_10_" d="M176,487.3c-2.7-1.2-4.7-3.3-6.1-5.7c-1.4-2.5-2.2-5.5-2.2-8.1v-38.3L294.1,309l-16.3-16.3
			c-10.1-10.1-10.1-26.7,0-36.7l53.4-53.4c10-10.1,26.7-10.1,36.7,0l30.6,30.6c-6.4,1.4-12.6,3.4-18.4,6.1l-24.4-24.5
			c-3.4-3.4-8.9-3.4-12.3,0L290,268.2c-3.3,3.4-3.4,8.9,0,12.3l28.5,28.5L185.1,442.5v30l32.9,16.4l1.7-1.6v-13.8
			c0-14.8,11.2-26,26-26h8.7v-8.7c0-14.8,11.2-26,26-26h8.7v-8.7c0-7.4,2.4-13.8,6.8-18.4c4.3-4.8,10.6-7.5,18-7.5h14.9l6.4-6.5
			c2.9,5.2,6.1,10.1,9.9,14.6l-9.2,9.2h-22c-2.4,0-4.2,0.7-5.4,2c-1.4,1.5-2.2,3.8-2.2,6.7v26h-26c-5.3,0-8.7,3.4-8.7,8.7v26h-26
			c-5.3,0-8.7,3.4-8.7,8.7v20.9L221.5,510L176,487.3z M362.7,249.3c-8,5.8-15.1,12.9-20.9,20.9l-4-4c-2.6-2.6-3.8-5.9-3.8-9.2
			s1.2-6.7,3.8-9.2l2.5-2.5c2.5-2.6,5.9-3.8,9.2-3.8s6.6,1.2,9.2,3.8L362.7,249.3z"/>
		<path id="curve28_109_" d="M418.8,291.7c11.4,0,22,3.5,29.7,9.3c1.6,1.3,3.2,2.7,4.6,4.1c-8.2,2.6-16.8,3.9-25.6,3.9
			c-4.6,0-9.7-0.3-14.3,0.4c-9.4,1.3-20.1,6.1-20.3,16.4c0,8.2,6.2,13.3,13.4,15.8c0.8,0.3,1.6,0.5,2.7,0.7
			c6.1,1.6,12.3,1.3,18.5,1.3c10.7,0,21.3-1.4,31.4-4.2c-2.3,4.7-6,8.7-10.4,12.1c-7.7,5.8-18.3,9.3-29.7,9.3
			c-11.4,0-21.9-3.5-29.7-9.3c-8.4-6.3-13.6-15.2-13.6-25.3c0-10,5.2-19,13.6-25.3C396.9,295.2,407.4,291.7,418.8,291.7z
			 M470.8,525.4v-17.3h-26v-17.3h26v-17.3h-34.6v-88.2l6.1-1.9c13.7-4.3,25.4-12.2,33.5-22.5c5.4-6.8,9.3-14.5,11.1-22.9
			c6.5-3.4,12.7-7.3,18.6-11.7c0,16.9-6,32.5-16.1,45.3c-9.1,11.4-21.5,20.4-35.8,26.1v58.4h34.6c0,28.8,0,57.7,0,86.6h-34.6V560
			c-23.1,0-46.1,0-69.2,0V397.7c-14.4-5.7-26.7-14.7-35.8-26.1c-10.1-12.7-16.1-28.4-16.1-45.3c0-21.7,9.9-41.3,25.7-55.4
			c15.7-13.9,37.1-22.5,60.8-22.5s45.2,8.6,60.8,22.5c1.6,1.5,3.3,3,4.8,4.6c-4,4.2-8.4,8-13.2,11.3c-1-1-2.1-2.1-3.2-3
			c-12.6-11.2-30-18.1-49.3-18.1s-36.8,6.9-49.3,18.1c-12.3,10.9-19.9,26-19.9,42.5c0,12.8,4.6,24.8,12.4,34.5
			c8.1,10.3,19.8,18.3,33.5,22.5l6.1,1.9v157.4h34.6v-17.3h34.5L470.8,525.4L470.8,525.4z"/>
	</g>
</g>
</svg>
