<?xml version="1.0" encoding="UTF-8"?>
<!DOCTYPE svg PUBLIC "-//W3C//DTD SVG 1.1//EN" "http://www.w3.org/Graphics/SVG/1.1/DTD/svg11.dtd">
<svg xmlns="http://www.w3.org/2000/svg" xml:space="preserve" width="580px" height="580px" shape-rendering="geometricPrecision" text-rendering="geometricPrecision" image-rendering="optimizeQuality" fill-rule="nonzero" clip-rule="nonzero" viewBox="0 0 5800 5800" xmlns:xlink="http://www.w3.org/1999/xlink">
	<title>road_roller icon</title>
	<desc>road_roller icon from the IconExperience.com I-Collection. Copyright by INCORS GmbH (www.incors.com).</desc>
		<path id="curve28"  d="M2900 3500l2500 0c55,0 100,45 100,100l0 600c0,55 -45,100 -100,100l-3100 0 0 -200 3000 0 0 -400 -2400 0 0 -200zm1300 -800c430,0 825,229 1039,600l-239 0c-189,-252 -484,-400 -800,-400 -316,0 -611,148 -800,400l-239 0c214,-371 609,-600 1039,-600zm1039 1800c-214,371 -609,600 -1039,600 -331,0 -631,-134 -849,-351 -73,-74 -138,-158 -190,-249l239 0c189,252 484,400 800,400 316,0 611,-148 800,-400l239 0zm-3939 -2000l0 -1500c0,-55 45,-100 100,-100l1200 0c44,0 81,28 95,67l597 1394c13,32 9,67 -9,94l-400 600c-19,29 -51,45 -83,45l-700 0 0 -200 646 0 341 -511 -553 -1289 -1034 0 0 1600 -400 0c-340,0 -600,126 -600,500l0 151c-27,23 -53,46 -78,71 -45,45 -85,94 -122,145l0 -367c0,-487 347,-700 800,-700l200 0zm-100 800c497,0 900,403 900,900 0,497 -403,900 -900,900 -497,0 -900,-403 -900,-900 0,-497 403,-900 900,-900zm0 200c-387,0 -700,313 -700,700 0,387 313,700 700,700 387,0 700,-313 700,-700 0,-387 -313,-700 -700,-700z"/>
</svg>