<?xml version="1.0" encoding="UTF-8"?>
<!DOCTYPE svg PUBLIC "-//W3C//DTD SVG 1.1//EN" "http://www.w3.org/Graphics/SVG/1.1/DTD/svg11.dtd">
<svg xmlns="http://www.w3.org/2000/svg" xml:space="preserve" width="580px" height="580px" shape-rendering="geometricPrecision" text-rendering="geometricPrecision" image-rendering="optimizeQuality" fill-rule="nonzero" clip-rule="nonzero" viewBox="0 0 5800 5800" xmlns:xlink="http://www.w3.org/1999/xlink">
	<title>road_roller icon</title>
	<desc>road_roller icon from the IconExperience.com I-Collection. Copyright by INCORS GmbH (www.incors.com).</desc>
		<path id="curve31"  d="M1300 2500l0 -1500c0,-55 45,-100 100,-100l1200 0c44,0 81,28 95,67l597 1394c13,32 9,67 -9,94l-558 845 -625 0 -2 265c-206,-292 -539,-465 -898,-465 -360,0 -694,175 -900,467l0 -367c0,-487 347,-700 800,-700l200 0z"/>
	<path id="curve30"  d="M3161 3300c214,-371 609,-600 1039,-600 430,0 825,229 1039,600l-2078 0zm2078 1200c-214,371 -609,600 -1039,600 -430,0 -825,-229 -1039,-600l2078 0z"/>
	<path id="curve29"  d="M2300 3500l3100 0c55,0 100,45 100,100l0 600c0,55 -45,100 -100,100l-3100 0 0 -800z"/>
	<path id="curve28"  d="M1200 3300c497,0 900,403 900,900 0,497 -403,900 -900,900 -497,0 -900,-403 -900,-900 0,-497 403,-900 900,-900z"/>
</svg>