<?xml version="1.0" encoding="UTF-8"?>
<!DOCTYPE svg PUBLIC "-//W3C//DTD SVG 1.1//EN" "http://www.w3.org/Graphics/SVG/1.1/DTD/svg11.dtd">
<svg xmlns="http://www.w3.org/2000/svg" xml:space="preserve" width="580px" height="580px" shape-rendering="geometricPrecision" text-rendering="geometricPrecision" image-rendering="optimizeQuality" fill-rule="nonzero" clip-rule="nonzero" viewBox="0 0 5800 5800" xmlns:xlink="http://www.w3.org/1999/xlink">
	<title>robot icon</title>
	<desc>robot icon from the IconExperience.com I-Collection. Copyright by INCORS GmbH (www.incors.com).</desc>
		<path id="curve28"  d="M4500 4300l0 -200c0,-55 -45,-100 -100,-100l-100 0c-55,0 -100,45 -100,100l0 200 -200 0 0 -200c0,-77 29,-147 77,-200l-77 0 0 -1400 -100 0 0 1100c0,165 -135,300 -300,300l-1400 0c-165,0 -300,-135 -300,-300l0 -1100 -100 0 0 1400 -77 0c48,53 77,123 77,200l0 200 -200 0 0 -200c0,-55 -45,-100 -100,-100l-100 0c-55,0 -100,45 -100,100l0 200 -200 0 0 -200c0,-77 29,-147 77,-200l-77 0 0 -1500c0,-165 135,-300 300,-300l400 0 0 200 100 0 0 -100c0,-165 135,-300 300,-300l500 0 0 -100 -400 0c-110,0 -200,-90 -200,-200l0 -300 -200 0 0 -600 200 0 0 -200c0,-110 90,-200 200,-200l1200 0c110,0 200,90 200,200l0 200 200 0 0 600 -200 0 0 300c0,110 -90,200 -200,200l-400 0 0 100 500 0c165,0 300,135 300,300l0 100 100 0 0 -200 400 0c165,0 300,135 300,300l0 1500 -77 0c48,53 77,123 77,200l0 200 -200 0zm-1293 -3601c-111,0 -200,89 -200,200 0,110 89,200 200,200 110,0 200,-90 200,-200 0,-111 -90,-200 -200,-200zm-600 0c-111,0 -200,89 -200,200 0,110 89,200 200,200 110,0 200,-90 200,-200 0,-111 -90,-200 -200,-200zm193 4501l0 300c-300,0 -600,0 -900,0l0 -300c0,-71 36,-134 95,-170l710 0c58,36 95,100 95,170zm-800 -270l0 -984c61,35 129,54 200,54l500 0 0 930 -700 0zm1900 270l0 300c-300,0 -600,0 -900,0l0 -300c0,-70 37,-134 95,-170l710 0c58,36 95,100 95,170zm-800 -270l0 -930 500 0c71,0 140,-19 200,-54l0 984 -700 0z"/>
</svg>