<?xml version="1.0" encoding="UTF-8"?>
<!DOCTYPE svg PUBLIC "-//W3C//DTD SVG 1.1//EN" "http://www.w3.org/Graphics/SVG/1.1/DTD/svg11.dtd">
<svg xmlns="http://www.w3.org/2000/svg" xml:space="preserve" width="580px" height="580px" shape-rendering="geometricPrecision" text-rendering="geometricPrecision" image-rendering="optimizeQuality" fill-rule="nonzero" clip-rule="nonzero" viewBox="0 0 5800 5800" xmlns:xlink="http://www.w3.org/1999/xlink">
	<title>rocking_horse icon</title>
	<desc>rocking_horse icon from the IconExperience.com I-Collection. Copyright by INCORS GmbH (www.incors.com).</desc>
	<path id="curve0"  d="M5536 4426c-355,298 -758,529 -1188,685 -430,157 -887,239 -1350,239 -464,0 -921,-82 -1351,-239 -430,-156 -833,-387 -1188,-685 64,-77 128,-153 192,-230 159,133 327,252 503,355l326 -699c80,-170 103,-282 129,-411 12,-60 25,-122 42,-191 -192,-307 -274,-523 -323,-886 -16,-113 -26,-237 -29,-375 -54,7 -111,10 -169,11l-145 98c-28,19 -42,40 -54,59 -38,60 -70,110 -210,141 -104,22 -227,-35 -321,-129 -69,-68 -127,-161 -148,-256 -21,-101 -4,-201 76,-282 163,-185 194,-255 221,-317 65,-147 155,-242 270,-349 27,-25 53,-49 79,-76l0 -411 621 124c510,101 629,350 801,710 37,78 76,155 111,234 72,163 158,354 469,354l1100 0c17,0 34,0 50,1 583,27 1047,510 1050,1099l2 600c-97,0 -194,0 -290,1l-12 -601c-1,-332 -161,-532 -427,-636 111,132 174,378 199,489 28,120 28,229 28,247 0,203 24,274 49,343 45,133 52,216 50,358 -2,64 -3,125 12,180l149 558c170,-100 331,-215 484,-343 64,77 128,153 192,230zm-3877 370c30,12 60,23 90,34 396,145 819,220 1249,220 429,0 852,-75 1248,-220 34,-12 67,-25 100,-38l-238 -553c-42,-98 -128,-162 -218,-228 -104,-76 -212,-155 -287,-285 -380,95 -781,99 -1162,12 -114,172 -266,294 -386,391 -76,61 -136,110 -150,140l-246 527z"/>
</svg>