<?xml version="1.0" encoding="UTF-8"?>
<!DOCTYPE svg PUBLIC "-//W3C//DTD SVG 1.1//EN" "http://www.w3.org/Graphics/SVG/1.1/DTD/svg11.dtd">
<svg xmlns="http://www.w3.org/2000/svg" xml:space="preserve" width="580px" height="580px" shape-rendering="geometricPrecision" text-rendering="geometricPrecision" image-rendering="optimizeQuality" fill-rule="nonzero" clip-rule="nonzero" viewBox="0 0 5800 5800" xmlns:xlink="http://www.w3.org/1999/xlink">
	<title>rocking_horse icon</title>
	<desc>rocking_horse icon from the IconExperience.com I-Collection. Copyright by INCORS GmbH (www.incors.com).</desc>
	<path id="curve0"  d="M541 2028c49,49 104,82 138,74 59,-13 71,-30 84,-52 23,-35 48,-74 111,-117l196 -133c147,0 399,-3 488,-140l167 109c-54,82 -132,138 -227,174 1,150 12,279 27,394 49,359 127,542 318,843l24 37c-24,88 -44,174 -63,264 -29,143 -54,267 -142,456l-353 756c48,24 96,47 145,70l269 -579c34,-71 111,-133 207,-211 233,-188 433,-380 471,-685l198 24c-11,89 -33,169 -62,242 326,67 668,61 992,-15 -17,-68 -27,-147 -29,-238l200 -2c5,329 161,444 308,552 112,82 220,161 284,310l257 599c48,-23 97,-47 145,-71l-176 -657c-21,-79 -20,-155 -19,-234 3,-115 -1,-182 -39,-290 -30,-86 -60,-174 -60,-408 0,-15 0,-106 -22,-203 -20,-85 -56,-175 -123,-208l90 -178c133,67 197,210 227,342 28,120 28,229 28,247 0,203 24,274 49,343 45,133 52,216 50,358 -2,64 -3,125 12,180l163 608c176,-103 344,-222 502,-355l128 154c-701,588 -1591,912 -2506,912 -916,0 -1806,-324 -2507,-912l128 -154c162,136 334,257 514,362l347 -744c80,-170 103,-282 129,-411 12,-60 25,-122 42,-191 -192,-307 -274,-523 -323,-886 -16,-113 -26,-237 -29,-375 -54,7 -111,10 -169,11l-145 98c-28,19 -42,40 -54,59 -38,60 -70,110 -210,141 -104,22 -227,-35 -321,-129 -69,-68 -127,-161 -148,-256 -21,-101 -4,-201 76,-282 163,-185 194,-255 221,-317 65,-147 155,-242 270,-349 27,-25 53,-49 79,-76l0 -411 621 124c510,101 629,350 801,710 37,78 76,155 111,234 72,163 158,354 469,354l1100 0c607,0 1097,494 1100,1100l2 600 -199 0 -3 -600c-2,-494 -404,-900 -900,-900l-1100 0c-441,0 -554,-256 -651,-473 -34,-77 -73,-153 -110,-229 -146,-307 -247,-518 -658,-600l-383 -76 0 241c-47,55 -91,100 -143,149 -93,85 -172,164 -223,282 -63,144 -155,260 -261,376 -27,27 -32,63 -23,101 12,58 52,115 93,157zm1097 2813c432,171 894,259 1360,259 468,0 932,-89 1367,-262l-257 -599c-42,-98 -128,-162 -218,-228 -104,-76 -212,-155 -287,-285 -380,95 -781,99 -1162,12 -114,172 -266,294 -386,391 -76,61 -136,110 -150,140l-267 572z"/>
</svg>