<?xml version="1.0" encoding="UTF-8"?>
<!DOCTYPE svg PUBLIC "-//W3C//DTD SVG 1.1//EN" "http://www.w3.org/Graphics/SVG/1.1/DTD/svg11.dtd">
<svg xmlns="http://www.w3.org/2000/svg" xml:space="preserve" width="580px" height="580px" shape-rendering="geometricPrecision" text-rendering="geometricPrecision" image-rendering="optimizeQuality" fill-rule="nonzero" clip-rule="nonzero" viewBox="0 0 5800 5800" xmlns:xlink="http://www.w3.org/1999/xlink">
	<title>roulette_wheel icon</title>
	<desc>roulette_wheel icon from the IconExperience.com I-Collection. Copyright by INCORS GmbH (www.incors.com).</desc>
		<path id="curve28" d="M3006 1304c116,7 228,27 340,59l-56 192c-95,-28 -197,-45 -296,-52l12 -199zm349 2432c-47,100 -166,143 -266,97 -46,-22 -84,-61 -103,-113 -25,-67 -11,-142 35,-197l-82 -225c-119,12 -237,-30 -322,-115 -17,-18 -33,-36 -47,-57l-225 82c-12,70 -61,129 -128,153 -104,38 -219,-15 -256,-119 -38,-104 15,-218 119,-256 67,-25 142,-11 197,35l225 -82c-12,-120 30,-237 115,-322 18,-17 37,-33 57,-47l-82 -225c-71,-12 -129,-61 -153,-129 -38,-103 15,-218 119,-255 52,-19 107,-16 153,6 46,22 84,61 103,113 25,67 11,142 -35,197l82 225c120,-12 237,30 322,115 17,18 33,36 47,57l225 -82c3,-17 8,-34 16,-50 23,-50 64,-86 112,-103 104,-38 219,15 256,119 38,104 -15,218 -119,256 -67,25 -142,11 -197,-35l-225 82c12,119 -30,237 -115,322 -18,17 -36,33 -57,47l82 225c17,3 34,8 50,16 100,46 143,165 97,265zm-455 -3436c1436,0 2600,1164 2600,2600 0,1436 -1164,2600 -2600,2600 -1436,0 -2600,-1164 -2600,-2600 0,-1436 1164,-2600 2600,-2600zm0 200c-1326,0 -2400,1074 -2400,2400 0,1326 1074,2400 2400,2400 1326,0 2400,-1074 2400,-2400 0,-1326 -1074,-2400 -2400,-2400zm141 2259c-77,-78 -205,-78 -282,0 -78,77 -78,205 0,282 77,78 205,78 282,0 78,-77 78,-205 0,-282zm259 -1059c110,0 200,90 200,200 0,110 -90,200 -200,200 -110,0 -200,-90 -200,-200 0,-110 90,-200 200,-200zm246 -264c105,47 206,105 298,173l-118 161c-81,-60 -168,-110 -260,-151l80 -183zm462 310c83,80 157,168 221,264l-166 110c-55,-83 -121,-161 -194,-230l139 -144zm328 448c51,103 90,212 118,324l-194 47c-24,-98 -59,-192 -103,-283l179 -88zm155 534c12,115 12,229 0,344l-199 -21c11,-100 11,-202 0,-302l199 -21zm-37 554c-28,112 -67,221 -118,324l-179 -88c44,-90 79,-185 103,-283l194 47zm-225 508c-64,96 -138,185 -221,264l-139 -144c73,-70 138,-147 194,-230l166 110zm-385 401c-92,68 -193,126 -298,173l-80 -183c92,-41 179,-91 260,-151l118 161zm-498 246c-112,32 -224,52 -340,59l-12 -199c99,-7 201,-24 296,-52l56 192zm-552 59c-116,-7 -228,-27 -340,-59l56 -192c95,28 197,45 296,52l-12 199zm-540 -132c-105,-47 -206,-105 -298,-173l118 -161c81,60 168,110 260,151l-80 183zm-462 -310c-83,-80 -157,-168 -221,-264l166 -110c55,83 121,161 194,230l-139 144zm-328 -448c-51,-103 -90,-212 -118,-324l194 -47c24,98 59,193 103,283l-179 88zm-155 -534c-12,-115 -12,-229 0,-344l199 21c-11,101 -11,201 0,302l-199 21zm37 -554c28,-112 67,-221 118,-324l179 88c-44,90 -79,185 -103,283l-194 -47zm225 -508c64,-96 138,-184 221,-264l139 144c-73,69 -139,147 -194,230l-166 -110zm385 -401c92,-68 193,-126 298,-173l80 183c-92,41 -179,91 -260,151l-118 -161zm498 -246c112,-32 224,-52 340,-59l12 199c-99,7 -201,24 -296,52l-56 -192z"/>
</svg>