<?xml version="1.0" encoding="UTF-8"?>
<!DOCTYPE svg PUBLIC "-//W3C//DTD SVG 1.1//EN" "http://www.w3.org/Graphics/SVG/1.1/DTD/svg11.dtd">
<svg xmlns="http://www.w3.org/2000/svg" xml:space="preserve" width="580px" height="580px" shape-rendering="geometricPrecision" text-rendering="geometricPrecision" image-rendering="optimizeQuality" fill-rule="nonzero" clip-rule="nonzero" viewBox="0 0 5800 5800" xmlns:xlink="http://www.w3.org/1999/xlink">
	<title>roulette_wheel icon</title>
	<desc>roulette_wheel icon from the IconExperience.com I-Collection. Copyright by INCORS GmbH (www.incors.com).</desc>
		<path id="curve28"  d="M2900 300c1436,0 2600,1164 2600,2600 0,1436 -1164,2600 -2600,2600 -1436,0 -2600,-1164 -2600,-2600 0,-1436 1164,-2600 2600,-2600zm-455 1764c-46,100 -3,219 97,265 16,8 33,13 50,16l82 225c-109,75 -174,198 -174,330 0,13 1,26 2,39l-225 82c-55,-46 -130,-60 -197,-35 -104,38 -157,152 -119,256 37,104 152,157 255,119 55,-27 86,-45 113,-103 8,-16 13,-33 16,-50l225 -82c75,109 198,174 330,174 13,0 26,-1 39,-2l82 225c-46,55 -60,130 -35,197 38,104 152,157 256,119 191,-69 167,-349 -34,-384l-82 -225c109,-75 174,-198 174,-330 0,-13 -1,-26 -2,-39l225 -82c55,46 130,60 197,35 104,-38 157,-152 119,-256 -37,-104 -152,-157 -255,-119 -72,35 -115,71 -129,153l-225 82c-75,-109 -198,-174 -330,-174 -13,0 -26,1 -39,2l-82 -225c12,-14 21,-28 29,-44 46,-100 2,-220 -97,-266 -100,-46 -219,-3 -266,97zm561 -760l-12 199c99,7 201,24 296,52l56 -192c-112,-32 -224,-52 -340,-59zm540 132l-80 183c92,41 179,91 260,151l118 -161c-92,-68 -193,-126 -298,-173zm462 310l-139 144c73,69 139,147 194,230l166 -110c-64,-96 -138,-184 -221,-264zm328 448l-179 88c44,91 79,185 103,283l194 -47c-28,-112 -67,-221 -118,-324zm155 534l-199 21c11,100 11,202 0,302l199 21c12,-115 12,-229 0,-344zm-37 554l-194 -47c-24,98 -59,193 -103,283l179 88c51,-103 90,-212 118,-324zm-225 508l-166 -110c-56,83 -121,160 -194,230l139 144c83,-79 157,-168 221,-264zm-385 401l-118 -161c-81,60 -168,110 -260,151l80 183c105,-47 206,-105 298,-173zm-498 246l-56 -192c-95,28 -197,45 -296,52l12 199c116,-7 228,-27 340,-59zm-552 59l12 -199c-99,-7 -201,-24 -296,-52l-56 192c112,32 224,52 340,59zm-540 -132l80 -183c-92,-41 -179,-91 -260,-151l-118 161c92,68 193,126 298,173zm-462 -310l139 -144c-73,-69 -139,-147 -194,-230l-166 110c64,96 138,184 221,264zm-328 -448l179 -88c-44,-90 -79,-185 -103,-283l-194 47c28,112 67,221 118,324zm-155 -534l199 -21c-11,-100 -11,-202 0,-302l-199 -21c-12,115 -12,229 0,344zm37 -554l194 47c24,-98 59,-193 103,-283l-179 -88c-51,103 -90,212 -118,324zm225 -508l166 110c55,-83 121,-161 194,-230l-139 -144c-83,80 -157,168 -221,264zm385 -401l118 161c81,-60 168,-110 260,-151l-80 -183c-105,47 -206,105 -298,173zm498 -246l56 192c95,-28 197,-45 296,-52l-12 -199c-116,7 -228,27 -340,59zm846 337c-110,0 -200,90 -200,200 0,110 90,200 200,200 110,0 200,-90 200,-200 0,-110 -90,-200 -200,-200z"/>
</svg>