<?xml version="1.0" encoding="UTF-8"?>
<!DOCTYPE svg PUBLIC "-//W3C//DTD SVG 1.1//EN" "http://www.w3.org/Graphics/SVG/1.1/DTD/svg11.dtd">
<svg xmlns="http://www.w3.org/2000/svg" xml:space="preserve" width="580px" height="580px" shape-rendering="geometricPrecision" text-rendering="geometricPrecision" image-rendering="optimizeQuality" fill-rule="nonzero" clip-rule="nonzero" viewBox="0 0 5800 5800" xmlns:xlink="http://www.w3.org/1999/xlink">
	<title>route_sign icon</title>
	<desc>route_sign icon from the IconExperience.com I-Collection. Copyright by INCORS GmbH (www.incors.com).</desc>
		<path id="curve28"  d="M2959 320c164,120 375,183 595,202 256,21 523,-17 745,-96l69 -25 656 900c-39,52 -78,104 -118,155 -133,171 -235,301 -207,532 15,125 69,228 124,335 112,218 187,436 233,678 29,152 44,307 44,473 0,364 -94,694 -341,969 -261,289 -649,471 -996,633 -260,122 -583,220 -799,401l-64 53 -64 -53c-216,-181 -539,-279 -799,-401 -347,-162 -735,-344 -996,-633 -247,-275 -341,-605 -341,-969 0,-166 15,-321 44,-473 46,-242 121,-460 233,-678 55,-107 109,-210 124,-335 28,-231 -74,-361 -207,-532 -40,-51 -79,-103 -118,-155l656 -900 69 25c222,79 489,117 745,96 220,-19 431,-82 595,-202l59 -44 59 44zm-59 317c-192,109 -411,165 -629,184 -240,20 -492,-5 -726,-68l-396 544c202,261 307,466 237,803l3028 0c-70,-337 35,-542 237,-803l-396 -544c-234,63 -486,88 -726,68 -218,-19 -437,-75 -629,-184z"/>
</svg>