<?xml version="1.0" encoding="UTF-8"?>
<!DOCTYPE svg PUBLIC "-//W3C//DTD SVG 1.1//EN" "http://www.w3.org/Graphics/SVG/1.1/DTD/svg11.dtd">
<svg xmlns="http://www.w3.org/2000/svg" xml:space="preserve" width="580px" height="580px" shape-rendering="geometricPrecision" text-rendering="geometricPrecision" image-rendering="optimizeQuality" fill-rule="nonzero" clip-rule="nonzero" viewBox="0 0 5800 5800" xmlns:xlink="http://www.w3.org/1999/xlink">
	<title>router icon</title>
	<desc>router icon from the IconExperience.com I-Collection. Copyright by INCORS GmbH (www.incors.com).</desc>
	<path id="curve0" d="M2600 4100c0,133 0,267 0,400 -133,0 -267,0 -400,0 0,-133 0,-267 0,-400 133,0 267,0 400,0zm2900 -1400l0 2200 -5200 0 0 -2200 5200 0zm-200 200l-3600 0 0 300 -200 0 0 -300 -100 0 0 300 -200 0 0 -300 -100 0 0 300 -200 0 0 -300 -400 0 0 1800 4800 0 0 -1800zm-200 800l0 800 -2200 0 0 -800 2200 0zm-200 200l-300 0 0 400 300 0 0 -400zm-500 0l-300 0 0 400 300 0 0 -400zm-500 0l-300 0 0 400 300 0 0 -400zm-500 0l-300 0 0 400 300 0 0 -400zm-2300 200c0,133 0,267 0,400 -133,0 -267,0 -400,0 0,-133 0,-267 0,-400 133,0 267,0 400,0zm500 0c0,133 0,267 0,400 -133,0 -267,0 -400,0 0,-133 0,-267 0,-400 133,0 267,0 400,0zm500 0c0,133 0,267 0,400 -133,0 -267,0 -400,0 0,-133 0,-267 0,-400 133,0 267,0 400,0z"/>
</svg>