<?xml version="1.0" encoding="UTF-8"?>
<!DOCTYPE svg PUBLIC "-//W3C//DTD SVG 1.1//EN" "http://www.w3.org/Graphics/SVG/1.1/DTD/svg11.dtd">
<svg xmlns="http://www.w3.org/2000/svg" xml:space="preserve" width="580px" height="580px" shape-rendering="geometricPrecision" text-rendering="geometricPrecision" image-rendering="optimizeQuality" fill-rule="nonzero" clip-rule="nonzero" viewBox="0 0 5800 5800" xmlns:xlink="http://www.w3.org/1999/xlink">
	<title>route_sign icon</title>
	<desc>route_sign icon from the IconExperience.com I-Collection. Copyright by INCORS GmbH (www.incors.com).</desc>
		<path id="curve28" d="M2959 320c359,264 936,249 1340,106l69 -25 656 900c-39,52 -78,104 -118,155 -133,171 -235,301 -207,532 15,125 69,228 124,335 184,358 277,748 277,1151 0,364 -94,694 -341,969 -261,289 -649,471 -996,633 -26,12 -47,22 -116,55 -88,42 -168,74 -245,104 -153,61 -285,113 -438,242l-64 53 -64 -53c-153,-129 -285,-181 -438,-242 -77,-30 -157,-62 -245,-104 -69,-33 -90,-43 -116,-55 -347,-162 -735,-344 -996,-633 -247,-275 -341,-605 -341,-969 0,-404 92,-792 277,-1151 55,-107 109,-210 124,-335 28,-231 -74,-361 -207,-532 -40,-51 -79,-103 -118,-155l656 -900 69 25c404,143 981,158 1340,-106l59 -44 59 44zm-59 201c-395,251 -958,251 -1394,117l-482 661 27 34c163,208 286,367 248,679 -4,31 -9,60 -15,88l3232 0c-6,-28 -11,-57 -15,-88 -38,-312 85,-471 248,-679l27 -34 -482 -661c-436,134 -999,134 -1394,-117zm1745 1893c-19,-38 -39,-75 -57,-114l-3376 0c-18,39 -38,76 -57,114 -172,333 -255,687 -255,1060 0,316 74,596 289,835 235,260 603,433 932,587 53,25 110,51 117,55 87,41 162,71 233,99 149,59 280,111 429,223 149,-112 280,-164 429,-223 71,-28 146,-58 233,-99 7,-4 64,-30 117,-55 329,-154 697,-327 932,-587 215,-239 289,-519 289,-835 0,-373 -84,-729 -255,-1060z"/>
</svg>