<?xml version="1.0" encoding="utf-8"?>
<!-- Generator: Adobe Illustrator 19.2.1, SVG Export Plug-In . SVG Version: 6.00 Build 0)  -->
<svg version="1.1" id="Ebene_1" xmlns="http://www.w3.org/2000/svg" xmlns:xlink="http://www.w3.org/1999/xlink" x="0px" y="0px"
	 width="580px" height="580px" viewBox="0 0 580 580" style="enable-background:new 0 0 580 580;" xml:space="preserve">
<g>
	<path d="M157,378h80v38.2l20-20V378h18.2l20-20H257v-80h80v38.2l20-19.9V18H37v460h165.8l7.3-20h-53V378z M237,358h-80v-80h80V358z
		 M237,158h-80V78h80V158z M337,158h-80V78h80V158z M57,38h280v20H57V38z M137,458H57v-80h80V458z M137,358H57v-80h80V358z M137,158
		H57V78h80V158z"/>
	<path d="M534.6,288l-36.6-36.6c-10-10.1-26.6-10.1-36.6,0L258,454.8l-18.8,51.8l-3.5,9.5l-10.1,27.8c-1.7,4.8-0.6,10,3,13.5
		c3.6,3.6,8.8,4.8,13.5,3l27.8-10.1l9.5-3.5l51.8-18.8l203.4-203.5C544.7,314.5,544.7,298.1,534.6,288z M263.9,531.3l-8.2-8.1
		l19.6-53.9l41.8,41.8L263.9,531.3z M334.3,497.7l-44.8-44.6l133.4-133.4l44.8,44.8L334.3,497.7z M517.4,315l-36.7,35.3l-45-44.5
		l36.7-36.3c4-3.8,10.5-3.8,14.5,0l30.5,31.5C521.5,304.9,521.5,311.1,517.4,315z"/>
</g>
</svg>
