<?xml version="1.0" encoding="UTF-8"?>
<!DOCTYPE svg PUBLIC "-//W3C//DTD SVG 1.1//EN" "http://www.w3.org/Graphics/SVG/1.1/DTD/svg11.dtd">
<svg xmlns="http://www.w3.org/2000/svg" xml:space="preserve" width="580px" height="580px" shape-rendering="geometricPrecision" text-rendering="geometricPrecision" image-rendering="optimizeQuality" fill-rule="nonzero" clip-rule="nonzero" viewBox="0 0 5800 5800" xmlns:xlink="http://www.w3.org/1999/xlink">
	<title>rubber_stamp icon</title>
	<desc>rubber_stamp icon from the IconExperience.com I-Collection. Copyright by INCORS GmbH (www.incors.com).</desc>
		<path id="curve28"  d="M4605 1367l-330 137c-454,-263 -1027,-183 -1396,191 -23,-108 -62,-209 -117,-301 526,-446 1305,-457 1843,-27zm536 1294c-81,733 -702,1289 -1441,1289 -21,0 -41,0 -61,-1l-42 -291c-1,-5 -1,-9 -2,-13 35,3 70,5 105,5 521,0 977,-351 1111,-853l330 -136zm-2309 -396l2274 -942c140,338 280,677 421,1015l-2323 962 -604 0c-19,0 -47,-21 -69,-45l2605 -1079 -192 -463 -2393 992c19,-39 44,-75 70,-108 92,-97 163,-210 211,-332zm-2532 2435l3200 0 0 200 -3200 0 0 -200zm1156 -2023c-31,-79 -77,-152 -128,-214 -146,-152 -228,-352 -228,-563 0,-442 358,-800 800,-800 442,0 800,358 800,800 0,211 -83,411 -228,563 -51,62 -97,135 -128,214 -28,70 -44,145 -44,223l0 300c0,145 155,300 300,300l600 0c99,0 185,92 199,186l116 814 -3230 0 116 -814c14,-94 100,-186 199,-186l600 0c145,0 300,-155 300,-300l0 -300c0,-78 -16,-153 -44,-223z"/>
</svg>