<?xml version="1.0" encoding="UTF-8"?>
<!DOCTYPE svg PUBLIC "-//W3C//DTD SVG 1.1//EN" "http://www.w3.org/Graphics/SVG/1.1/DTD/svg11.dtd">
<svg xmlns="http://www.w3.org/2000/svg" xml:space="preserve" width="580px" height="580px" shape-rendering="geometricPrecision" text-rendering="geometricPrecision" image-rendering="optimizeQuality" fill-rule="nonzero" clip-rule="nonzero" viewBox="0 0 5800 5800" xmlns:xlink="http://www.w3.org/1999/xlink">
	<title>rubber_stamp icon</title>
	<desc>rubber_stamp icon from the IconExperience.com I-Collection. Copyright by INCORS GmbH (www.incors.com).</desc>
		<path id="curve29" d="M2803 2331l2276 -943 382 923 -2387 989 -474 0c-7,0 -16,-3 -26,-9l2627 -1088 -230 -555 -2377 985c9,-12 18,-24 27,-36 75,-79 137,-169 182,-266zm897 -1231c321,0 616,108 852,289l-219 91c-184,-114 -401,-180 -633,-180 -324,0 -619,129 -835,338 -19,-70 -45,-137 -78,-200 245,-210 564,-338 913,-338zm1388 1583c-41,313 -185,594 -398,807 -253,253 -603,410 -990,410 -23,0 -46,-1 -69,-2l-29 -202c33,3 65,4 98,4 331,0 631,-134 849,-351 155,-156 268,-354 320,-575l219 -91z"/>
	<path id="curve28" d="M300 4700l3200 0 0 200 -3200 0 0 -200zm2892 -1000l-592 0c-128,0 -253,-62 -346,-154 -92,-93 -154,-218 -154,-346l0 -300c0,-200 91,-425 226,-572 111,-115 174,-267 174,-428 0,-331 -269,-600 -600,-600 -331,0 -600,269 -600,600 0,171 65,309 179,433 133,157 221,359 221,567l0 300c0,128 -62,253 -154,346 -93,92 -218,154 -346,154 -198,0 -395,0 -593,1 -5,0 -8,10 -8,13l-84 586 2770 0 -84 -586c0,-3 -4,-8 -9,-14zm-1864 -1237c-146,-152 -228,-352 -228,-563 0,-442 358,-800 800,-800 442,0 800,358 800,800 0,211 -83,411 -228,563 -102,122 -172,277 -172,437l0 300c0,72 38,147 96,204 57,58 132,96 204,96l600 0c99,0 185,92 199,186l116 814 -3230 0 116 -814c14,-94 100,-186 199,-186l600 0c72,0 147,-38 204,-96 58,-57 96,-132 96,-204l0 -300c0,-160 -70,-315 -172,-437z"/>
</svg>