<?xml version="1.0" encoding="UTF-8"?>
<!DOCTYPE svg PUBLIC "-//W3C//DTD SVG 1.1//EN" "http://www.w3.org/Graphics/SVG/1.1/DTD/svg11.dtd">
<svg xmlns="http://www.w3.org/2000/svg" xml:space="preserve" width="580px" height="580px" shape-rendering="geometricPrecision" text-rendering="geometricPrecision" image-rendering="optimizeQuality" fill-rule="nonzero" clip-rule="nonzero" viewBox="0 0 5800 5800" xmlns:xlink="http://www.w3.org/1999/xlink">
	<title>safe_open_full icon</title>
	<desc>safe_open_full icon from the IconExperience.com I-Collection. Copyright by INCORS GmbH (www.incors.com).</desc>
		<path id="curve28" d="M700 900c0,-220 180,-400 400,-400l3600 0c220,0 400,180 400,400l-200 0c0,-110 -90,-200 -200,-200l-3600 0c-110,0 -200,90 -200,200l0 4400 800 0 0 -200 2400 0 0 200 800 0 0 -400 200 0 0 600 -1200 0 0 -200 -2000 0 0 200 -1200 0c0,-1533 0,-3067 0,-4600zm3046 3308l-98 292 452 0 0 200 -2618 0c-212,-10 -382,-186 -382,-400l0 -2800c0,-220 180,-400 400,-400l2600 0 0 200 -2600 0c-110,0 -200,90 -200,200l0 800 21 0 200 -600 743 0 132 397 132 -397 744 0 182 547 182 -547 74 0c-6,32 -10,66 -10,100l0 338 -54 162 54 0 0 200c-800,0 -1600,0 -2400,0l0 1000 21 0 200 -600 743 0 132 397 132 -397 744 0 183 550 183 -550 62 0 0 445 -52 155 52 0 0 200c-800,0 -1600,0 -2400,0l0 600c0,45 15,86 40,119l173 -519 743 0 136 409 136 -409 744 0 183 550 183 -550 62 0 0 100c0,74 16,145 46,208zm1754 -2508l0 2400 -200 0 0 -1100 -200 0 0 1700 -800 0 0 -400 -100 0c-165,0 -300,-135 -300,-300l0 -2200c0,-165 135,-300 300,-300l100 0 0 -400 800 0 0 1700 200 0 0 -1100 200 0zm-600 -400l-400 0 0 400 -300 0c-55,0 -100,45 -100,100l0 2200c0,55 45,100 100,100l300 0 0 400 400 0 0 -3200zm-2779 600l-457 0 -134 400 724 0 -133 -400zm1007 0l-456 0 -134 400 724 0 -134 -400zm-1007 1200l-457 0 -134 400 724 0 -133 -400zm1007 0l-456 0 -134 400 724 0 -134 -400zm-1015 1000l-457 0 -133 400 723 0 -133 -400zm1015 0l-456 0 -134 400 724 0 -134 -400z"/>
</svg>