<?xml version="1.0" encoding="UTF-8"?>
<!DOCTYPE svg PUBLIC "-//W3C//DTD SVG 1.1//EN" "http://www.w3.org/Graphics/SVG/1.1/DTD/svg11.dtd">
<svg xmlns="http://www.w3.org/2000/svg" xml:space="preserve" width="580px" height="580px" shape-rendering="geometricPrecision" text-rendering="geometricPrecision" image-rendering="optimizeQuality" fill-rule="nonzero" clip-rule="nonzero" viewBox="0 0 5800 5800" xmlns:xlink="http://www.w3.org/1999/xlink">
	<title>safety_pin_open icon</title>
	<desc>safety_pin_open icon from the IconExperience.com I-Collection. Copyright by INCORS GmbH (www.incors.com).</desc>
		<path id="curve28"  d="M1744 4763l2952 -1446c253,-124 596,-260 799,-280 -169,174 -357,285 -739,472l-3053 1494c27,-77 42,-158 41,-240zm-723 -520c289,0 522,233 522,521 0,288 -233,522 -521,522 -288,0 -522,-234 -522,-522 0,-122 43,-244 128,-342 536,-700 1089,-1327 1646,-1892 366,-370 732,-714 1097,-1034 -13,-10 -25,-22 -37,-34 -39,-39 -39,-102 0,-141l588 -589c159,-158 367,-237 575,-237 217,0 423,84 575,237 159,159 238,367 238,575 0,209 -79,417 -238,575l-588 589c-39,39 -102,39 -141,0 -10,-10 -18,-22 -23,-35 -88,-178 -133,-316 -133,-435 0,-135 52,-241 156,-344 69,-69 123,-109 169,-142 59,-42 101,-73 149,-168 35,-71 34,-134 11,-182 -14,-30 -36,-55 -63,-73 -29,-20 -62,-33 -97,-38 -36,-4 -74,0 -112,15l84 84c39,39 39,102 0,141 -156,156 -373,312 -604,350 -111,19 -224,11 -334,-36 -376,328 -754,681 -1130,1062 -470,477 -938,999 -1395,1573zm1 200c-178,0 -322,144 -322,321 0,178 144,322 322,322 177,0 321,-144 321,-322 0,-177 -144,-321 -321,-321zm2531 -3058c96,64 196,79 295,62 150,-25 300,-119 422,-226l-95 -95c-39,-39 -39,-102 0,-142 107,-107 240,-143 362,-127 67,8 131,33 185,70 55,39 101,91 130,152 48,100 53,225 -13,357 -70,140 -129,182 -209,241 -40,28 -87,62 -146,121 -64,65 -97,127 -97,203 0,62 19,136 57,227l487 -487c119,-119 179,-277 179,-434 0,-163 -64,-318 -179,-433 -119,-120 -276,-179 -434,-179 -157,0 -314,59 -433,179l-511 511z"/>
</svg>