<?xml version="1.0" encoding="UTF-8"?>
<!DOCTYPE svg PUBLIC "-//W3C//DTD SVG 1.1//EN" "http://www.w3.org/Graphics/SVG/1.1/DTD/svg11.dtd">
<svg xmlns="http://www.w3.org/2000/svg" xml:space="preserve" width="580px" height="580px" shape-rendering="geometricPrecision" text-rendering="geometricPrecision" image-rendering="optimizeQuality" fill-rule="nonzero" clip-rule="nonzero" viewBox="0 0 5800 5800" xmlns:xlink="http://www.w3.org/1999/xlink">
	<title>safety_pin icon</title>
	<desc>safety_pin icon from the IconExperience.com I-Collection. Copyright by INCORS GmbH (www.incors.com).</desc>
		<path id="curve28"  d="M1021 4251c134,0 268,51 369,153 102,102 153,236 153,369 0,134 -51,267 -153,369 -202,203 -535,203 -737,0 -193,-193 -204,-506 -25,-711 536,-700 1089,-1327 1646,-1892 367,-372 736,-717 1102,-1038 -14,-12 -28,-25 -42,-39 -39,-39 -39,-102 0,-141l588 -589c316,-315 835,-315 1150,0 316,316 316,835 0,1150l-588 589c-39,39 -102,39 -141,0 -17,-17 -26,-40 -36,-62 -324,370 -672,743 -1049,1114 -464,458 -969,912 -1523,1357 13,-83 11,-169 -6,-251 502,-410 964,-828 1389,-1248 398,-392 765,-786 1104,-1179 -23,-74 -35,-140 -35,-201 0,-135 52,-241 156,-344 69,-69 123,-109 169,-142 59,-42 101,-73 149,-168 35,-71 34,-134 11,-182 -14,-30 -36,-55 -63,-73 -29,-20 -62,-33 -97,-38 -36,-4 -74,0 -112,15l84 84c39,39 39,102 0,141 -156,156 -373,312 -604,350 -109,18 -220,11 -327,-33 -378,330 -759,685 -1137,1068 -470,477 -938,999 -1395,1572zm1 200c-178,0 -322,144 -322,322 0,178 144,322 322,322 177,0 321,-144 321,-322 0,-178 -144,-322 -321,-322zm2531 -3066c96,64 196,79 295,62 150,-25 300,-119 422,-226l-95 -95c-39,-39 -39,-102 0,-142 107,-107 240,-143 362,-127 67,8 131,33 185,70 55,39 101,91 130,152 48,100 53,225 -13,357 -70,140 -129,182 -209,241 -40,28 -87,62 -146,121 -64,65 -97,127 -97,203 0,62 19,136 57,227l487 -487c238,-238 238,-630 0,-867 -237,-238 -630,-238 -867,0l-511 511z"/>
</svg>