<?xml version="1.0" encoding="UTF-8"?>
<!DOCTYPE svg PUBLIC "-//W3C//DTD SVG 1.1//EN" "http://www.w3.org/Graphics/SVG/1.1/DTD/svg11.dtd">
<svg xmlns="http://www.w3.org/2000/svg" xml:space="preserve" width="580px" height="580px" shape-rendering="geometricPrecision" text-rendering="geometricPrecision" image-rendering="optimizeQuality" fill-rule="nonzero" clip-rule="nonzero" viewBox="0 0 5800 5800" xmlns:xlink="http://www.w3.org/1999/xlink">
	<title>safe_open_empty icon</title>
	<desc>safe_open_empty icon from the IconExperience.com I-Collection. Copyright by INCORS GmbH (www.incors.com).</desc>
		<path id="curve28"  d="M700 900c0,-220 180,-400 400,-400l3600 0c220,0 400,180 400,400l-200 0c0,-110 -90,-200 -200,-200l-3600 0c-110,0 -200,90 -200,200l0 4400 800 0 0 -200 2400 0 0 200 800 0 0 -400 200 0 0 600 -1200 0 0 -200 -2000 0 0 200 -1200 0c0,-1533 0,-3067 0,-4600zm600 2600l2400 0 0 200 -2400 0 0 600c0,110 90,200 200,200l2600 0 0 200 -2600 0c-220,0 -400,-180 -400,-400l0 -2800c0,-220 180,-400 400,-400l2600 0 0 200 -2600 0c-110,0 -200,90 -200,200l0 800 2400 0 0 200 -2400 0 0 1000zm4200 -1800l0 2400 -200 0 0 -1100 -200 0 0 1700 -800 0 0 -400 -100 0c-165,0 -300,-135 -300,-300l0 -2200c0,-165 135,-300 300,-300l100 0 0 -400 800 0 0 1700 200 0 0 -1100 200 0zm-600 -400l-400 0 0 400 -300 0c-55,0 -100,45 -100,100l0 2200c0,55 45,100 100,100l300 0 0 400 400 0 0 -3200z"/>
</svg>