<?xml version="1.0" encoding="UTF-8"?>
<!DOCTYPE svg PUBLIC "-//W3C//DTD SVG 1.1//EN" "http://www.w3.org/Graphics/SVG/1.1/DTD/svg11.dtd">
<svg xmlns="http://www.w3.org/2000/svg" xml:space="preserve" width="580px" height="580px" shape-rendering="geometricPrecision" text-rendering="geometricPrecision" image-rendering="optimizeQuality" fill-rule="nonzero" clip-rule="nonzero" viewBox="0 0 5800 5800" xmlns:xlink="http://www.w3.org/1999/xlink">
	<title>safe icon</title>
	<desc>safe icon from the IconExperience.com I-Collection. Copyright by INCORS GmbH (www.incors.com).</desc>
		<path id="curve28"  d="M3900 5500l0 -200 -2000 0 0 200 -1200 0 0 -4600c0,-220 180,-400 400,-400l3600 0c220,0 400,180 400,400l0 4600 -1200 0zm-871 -2871l504 -503c-366,-300 -900,-300 -1266,0l504 503c81,-39 177,-39 258,0zm142 142c39,81 39,177 0,258l503 504c300,-366 300,-900 0,-1266l-503 504zm-142 400c-81,39 -177,39 -258,0l-504 503c366,300 900,300 1266,0l-504 -503zm-400 -142c-39,-81 -39,-177 0,-258l-503 -504c-300,366 -300,900 0,1266l503 -504zm271 -1329c663,0 1200,537 1200,1200 0,663 -537,1200 -1200,1200 -663,0 -1200,-537 -1200,-1200 0,-663 537,-1200 1200,-1200zm-1400 -600c-220,0 -400,180 -400,400l0 2800c0,220 180,400 400,400l2800 0c220,0 400,-180 400,-400l0 -2800c0,-220 -180,-400 -400,-400l-2800 0zm2800 200l-2800 0c-110,0 -200,90 -200,200l0 2800c0,110 90,200 200,200l2800 0c110,0 200,-90 200,-200l0 -2800c0,-110 -90,-200 -200,-200z"/>
</svg>