<?xml version="1.0" encoding="UTF-8"?>
<!DOCTYPE svg PUBLIC "-//W3C//DTD SVG 1.1//EN" "http://www.w3.org/Graphics/SVG/1.1/DTD/svg11.dtd">
<svg xmlns="http://www.w3.org/2000/svg" xml:space="preserve" width="580px" height="580px" shape-rendering="geometricPrecision" text-rendering="geometricPrecision" image-rendering="optimizeQuality" fill-rule="nonzero" clip-rule="nonzero" viewBox="0 0 5800 5800" xmlns:xlink="http://www.w3.org/1999/xlink">
	<title>safe icon</title>
	<desc>safe icon from the IconExperience.com I-Collection. Copyright by INCORS GmbH (www.incors.com).</desc>
		<path id="curve28"  d="M1700 2900c0,-663 537,-1200 1200,-1200 663,0 1200,537 1200,1200 0,663 -537,1200 -1200,1200 -663,0 -1200,-537 -1200,-1200zm2200 2600l0 -200 -2000 0 0 200 -1200 0 0 -4600c0,-220 180,-400 400,-400l3600 0c220,0 400,180 400,400l0 4600 -1200 0zm200 -200l800 0 0 -4400c0,-110 -90,-200 -200,-200l-3600 0c-110,0 -200,90 -200,200l0 4400 800 0 0 -200 2400 0 0 200zm-2600 -4200l2800 0c220,0 400,180 400,400l0 2800c0,220 -180,400 -400,400l-2800 0c-220,0 -400,-180 -400,-400l0 -2800c0,-220 180,-400 400,-400zm2800 200l-2800 0c-110,0 -200,90 -200,200l0 2800c0,110 90,200 200,200l2800 0c110,0 200,-90 200,-200l0 -2800c0,-110 -90,-200 -200,-200zm-2174 2233l503 -504c-18,-39 -29,-83 -29,-129 0,-46 11,-90 29,-129l-503 -504c-141,172 -226,393 -226,633 0,240 85,460 226,633zm141 -1407l504 503c39,-18 83,-29 129,-29 46,0 90,11 129,29l504 -503c-172,-141 -393,-226 -633,-226 -240,0 -460,85 -633,226zm1407 141l-503 504c18,39 29,83 29,129 0,46 -11,90 -29,129l503 504c141,-173 226,-393 226,-633 0,-240 -85,-461 -226,-633zm-141 1407l-504 -503c-39,18 -83,29 -129,29 -46,0 -90,-11 -129,-29l-504 503c173,141 393,226 633,226 240,0 461,-85 633,-226z"/>
</svg>