<?xml version="1.0" encoding="UTF-8"?>
<!DOCTYPE svg PUBLIC "-//W3C//DTD SVG 1.1//EN" "http://www.w3.org/Graphics/SVG/1.1/DTD/svg11.dtd">
<svg xmlns="http://www.w3.org/2000/svg" xml:space="preserve" width="580px" height="580px" shape-rendering="geometricPrecision" text-rendering="geometricPrecision" image-rendering="optimizeQuality" fill-rule="nonzero" clip-rule="nonzero" viewBox="0 0 5800 5800" xmlns:xlink="http://www.w3.org/1999/xlink">
	<title>safe_out icon</title>
	<desc>safe_out icon from the IconExperience.com I-Collection. Copyright by INCORS GmbH (www.incors.com).</desc>
		<path id="curve28"  d="M700 900c0,-220 180,-400 400,-400l3600 0c220,0 400,180 400,400l-200 0c0,-110 -90,-200 -200,-200l-3600 0c-110,0 -200,90 -200,200l0 686 -200 200 0 -886zm200 3114l0 1286 800 0 0 -200 2400 0 0 200 800 0 0 -400 200 0 0 600 -1200 0 0 -200 -2000 0 0 200 -1200 0 0 -1686 200 200zm400 208l0 78c0,110 90,200 200,200l2600 0 0 200 -2600 0c-220,0 -400,-180 -400,-400l0 -126c61,29 129,46 200,48zm-192 -2799c36,-183 198,-323 392,-323l2600 0 0 200 -2600 0c-65,0 -122,31 -159,79 -79,-4 -160,10 -233,44zm4392 277l0 2400 -200 0 0 -1100 -200 0 0 1700 -800 0 0 -400 -100 0c-83,0 -158,-34 -212,-88 -54,-54 -88,-129 -88,-212l0 -2200c0,-165 135,-300 300,-300l100 0 0 -400 800 0 0 1700 200 0 0 -1100 200 0zm-600 -400l-400 0 0 400 -300 0c-55,0 -100,45 -100,100l0 2200c0,27 11,52 29,71 19,18 44,29 71,29l300 0 0 400 400 0 0 -3200zm-1800 1600l-2466 0 751 751 -141 142 -993 -993 993 -993 141 142 -751 751 2466 0 0 200z"/>
</svg>