<?xml version="1.0" encoding="UTF-8"?>
<!DOCTYPE svg PUBLIC "-//W3C//DTD SVG 1.1//EN" "http://www.w3.org/Graphics/SVG/1.1/DTD/svg11.dtd">
<svg xmlns="http://www.w3.org/2000/svg" xml:space="preserve" width="580px" height="580px" shape-rendering="geometricPrecision" text-rendering="geometricPrecision" image-rendering="optimizeQuality" fill-rule="nonzero" clip-rule="nonzero" viewBox="0 0 5800 5800" xmlns:xlink="http://www.w3.org/1999/xlink">
	<title>safety_pin icon</title>
	<desc>safety_pin icon from the IconExperience.com I-Collection. Copyright by INCORS GmbH (www.incors.com).</desc>
		<path id="curve28"  d="M628 4431c536,-700 1089,-1327 1646,-1892 367,-372 736,-717 1102,-1038 -14,-12 -28,-25 -42,-39 -39,-39 -39,-102 0,-141l588 -589c159,-158 367,-237 575,-237 217,0 423,84 575,237 159,159 238,367 238,575 0,209 -79,417 -238,575l-588 589c-39,39 -102,39 -141,0 -17,-17 -26,-40 -36,-62 -324,370 -672,743 -1049,1114 -464,458 -969,912 -1523,1357 13,-83 11,-169 -6,-251 502,-410 964,-828 1389,-1248 398,-392 765,-786 1104,-1179 -23,-74 -35,-140 -35,-201 0,-135 52,-241 156,-344 69,-69 123,-109 169,-142 59,-42 101,-73 149,-168 46,-93 36,-194 -52,-255 -62,-43 -139,-51 -209,-23l84 84c39,39 39,102 0,141 -156,156 -373,312 -604,350 -109,18 -220,11 -327,-33 -378,330 -759,685 -1137,1068 -470,477 -938,999 -1395,1572l1 0c288,0 521,234 521,522 0,288 -233,522 -521,522 -288,0 -522,-234 -522,-522 0,-122 43,-244 128,-342zm394 20c-178,0 -322,144 -322,322 0,178 144,322 322,322 177,0 321,-144 321,-322 0,-178 -144,-322 -321,-322z"/>
</svg>