<?xml version="1.0" encoding="UTF-8"?>
<!DOCTYPE svg PUBLIC "-//W3C//DTD SVG 1.1//EN" "http://www.w3.org/Graphics/SVG/1.1/DTD/svg11.dtd">
<svg xmlns="http://www.w3.org/2000/svg" xml:space="preserve" width="580px" height="580px" shape-rendering="geometricPrecision" text-rendering="geometricPrecision" image-rendering="optimizeQuality" fill-rule="nonzero" clip-rule="nonzero" viewBox="0 0 5800 5800" xmlns:xlink="http://www.w3.org/1999/xlink">
	<title>safe_open_full icon</title>
	<desc>safe_open_full icon from the IconExperience.com I-Collection. Copyright by INCORS GmbH (www.incors.com).</desc>
		<path id="curve28"  d="M2264 1700l132 397 132 -397 744 0 182 547 182 -547 74 0c-6,32 -10,66 -10,100l0 700 -2300 0 0 -438 121 -362 743 0zm-964 2600c0,109 89,200 200,200l2600 0 0 400 1000 0 0 600 -1200 0 0 -200 -2000 0 0 200 -1200 0 0 -4600c0,-220 180,-400 400,-400l3600 0c220,0 400,180 400,400 -333,0 -667,0 -1000,0l0 400 -2600 0c-110,0 -200,90 -200,200 0,933 0,1867 0,2800zm221 -1400l743 0 132 397 132 -397 744 0 183 550 183 -550 62 0c0,267 0,533 0,800l-2300 0 0 -438 121 -362zm-121 1338l113 -338 743 0 136 409 136 -409 744 0 166 500 -1938 0c-55,0 -100,-45 -100,-100l0 -62zm2501 162l-429 0 166 -500 62 0 0 100c0,163 79,309 201,400zm1599 -2700l0 2400 -200 0 0 -1100 -200 0 0 1700c-267,0 -533,0 -800,0l0 -400 -100 0c-165,0 -300,-135 -300,-300l0 -2200c0,-165 135,-300 300,-300l100 0 0 -400c267,0 533,0 800,0l0 1700 200 0 0 -1100 200 0z"/>
</svg>