<?xml version="1.0" encoding="UTF-8"?>
<!DOCTYPE svg PUBLIC "-//W3C//DTD SVG 1.1//EN" "http://www.w3.org/Graphics/SVG/1.1/DTD/svg11.dtd">
<svg xmlns="http://www.w3.org/2000/svg" xml:space="preserve" width="580px" height="580px" shape-rendering="geometricPrecision" text-rendering="geometricPrecision" image-rendering="optimizeQuality" fill-rule="nonzero" clip-rule="nonzero" viewBox="0 0 5800 5800" xmlns:xlink="http://www.w3.org/1999/xlink">
	<title>safety_glasses icon</title>
	<desc>safety_glasses icon from the IconExperience.com I-Collection. Copyright by INCORS GmbH (www.incors.com).</desc>
	<path id="curve0" d="M300 1900l5200 0c55,0 100,45 100,100l0 300c0,165 -135,300 -300,300l0 900c0,331 -269,600 -600,600l-953 0c-280,0 -518,-188 -583,-461l-127 -527c-16,-67 -68,-110 -137,-110 -69,0 -121,43 -137,110l-127 527c-65,273 -303,461 -583,461l-953 0c-331,0 -600,-269 -600,-600l0 -900c-165,0 -300,-135 -300,-300l0 -300c0,-55 45,-100 100,-100zm4800 700l-4400 0 0 900c0,220 180,400 400,400l953 0c189,0 346,-123 390,-307l126 -527c37,-158 170,-264 331,-264 161,0 294,106 331,264l126 527c44,184 201,307 390,307l953 0c220,0 400,-180 400,-400l0 -900zm-3600 900l554 0 101 -423 194 46 -102 423c-22,93 -98,154 -194,154l-553 0 0 -200zm2600 0c176,0 600,0 600,0l0 -400 200 0 0 400c0,110 -90,200 -200,200l-600 0 0 -200zm1300 -1400l-5000 0 0 200c0,55 45,100 100,100l4800 0c55,0 100,-45 100,-100l0 -200z"/>
</svg>