<?xml version="1.0" encoding="UTF-8"?>
<!DOCTYPE svg PUBLIC "-//W3C//DTD SVG 1.1//EN" "http://www.w3.org/Graphics/SVG/1.1/DTD/svg11.dtd">
<svg xmlns="http://www.w3.org/2000/svg" xml:space="preserve" width="580px" height="580px" shape-rendering="geometricPrecision" text-rendering="geometricPrecision" image-rendering="optimizeQuality" fill-rule="nonzero" clip-rule="nonzero" viewBox="0 0 5800 5800" xmlns:xlink="http://www.w3.org/1999/xlink">
	<title>sailboat icon</title>
	<desc>sailboat icon from the IconExperience.com I-Collection. Copyright by INCORS GmbH (www.incors.com).</desc>
	<path id="curve0" d="M2328 3301c-342,-619 -253,-1731 -33,-2389 -312,320 -584,696 -804,1088 -291,516 -489,1057 -567,1525 423,-184 969,-217 1404,-224zm-1456 999c161,144 298,287 416,422 116,135 213,262 296,378 -145,-6 -305,-87 -406,-199 -13,-16 -27,-32 -41,-48 -159,-184 -355,-380 -599,-575l-222 -178 943 0 400 -400 841 0 0 -201c-491,2 -1204,19 -1649,287l-170 102 20 -198c53,-534 273,-1179 616,-1788 305,-543 710,-1061 1183,-1449l0 -153 200 0 0 72 1981 3128 -1981 -1 0 201 1361 0 200 400 961 0 -127 635 -33 54 -134 -242 50 -247 -4106 0zm-572 1000c235,0 449,-126 563,-331l87 -157 87 157c113,205 328,331 562,331 234,0 446,-124 561,-328l87 -156 87 156c114,206 328,332 563,332 235,0 451,-128 564,-334l87 -159 87 158c114,205 328,331 563,331 234,0 448,-126 562,-331l87 -157 87 157c114,205 328,331 563,331l0 200c-252,0 -490,-113 -650,-307 -160,194 -397,307 -649,307 -252,0 -489,-112 -649,-306 -160,196 -399,310 -652,310 -253,0 -491,-113 -651,-307 -160,192 -396,303 -647,303 -252,0 -489,-113 -649,-307 -160,194 -398,307 -650,307l0 -200zm3639 -1400l-2198 0 -200 200 2498 0 -100 -200zm-1239 -3156l0 2555 1619 1 -1619 -2556zm-200 181c-215,601 -315,1708 0,2278l0 -2278z"/>
</svg>