<?xml version="1.0" encoding="UTF-8"?>
<!DOCTYPE svg PUBLIC "-//W3C//DTD SVG 1.1//EN" "http://www.w3.org/Graphics/SVG/1.1/DTD/svg11.dtd">
<svg xmlns="http://www.w3.org/2000/svg" xml:space="preserve" width="580px" height="580px" shape-rendering="geometricPrecision" text-rendering="geometricPrecision" image-rendering="optimizeQuality" fill-rule="nonzero" clip-rule="nonzero" viewBox="0 0 5800 5800" xmlns:xlink="http://www.w3.org/1999/xlink">
	<title>sailboat icon</title>
	<desc>sailboat icon from the IconExperience.com I-Collection. Copyright by INCORS GmbH (www.incors.com).</desc>
	<path id="curve0"  d="M300 5300c235,0 449,-126 563,-331l87 -157 87 157c113,205 328,331 562,331 234,0 446,-124 561,-328l87 -156 87 156c114,206 328,332 563,332 235,0 451,-128 564,-334l87 -159 87 158c114,205 328,331 563,331 234,0 448,-126 562,-331l87 -157 87 157c114,205 328,331 563,331l0 200c-252,0 -490,-113 -650,-307 -160,194 -397,307 -649,307 -252,0 -489,-112 -649,-306 -160,196 -399,310 -652,310 -253,0 -491,-113 -651,-307 -160,192 -396,303 -647,303 -252,0 -489,-113 -649,-307 -160,194 -398,307 -650,307l0 -200zm1284 -200l0 0c-145,-6 -305,-87 -406,-199 -13,-16 -27,-32 -41,-48 -159,-184 -355,-380 -599,-575l-222 -178 943 0 400 -400 841 0 0 -201c-491,2 -1204,19 -1649,287l-170 102 20 -198c53,-534 273,-1179 616,-1788 305,-543 710,-1061 1183,-1449l0 -153 200 0 0 72 1981 3128 -1981 -1 0 201 1361 0 200 400 961 0 -127 635 -32 53 -41 -73c-36,-66 -100,-103 -175,-103 -74,0 -138,37 -175,103l-87 157c-78,141 -225,228 -387,228 -162,0 -309,-86 -388,-228l-88 -158c-36,-65 -100,-103 -175,-103 -75,0 -139,39 -175,104l-87 159c-77,142 -227,230 -388,230 -162,0 -310,-87 -388,-229l-87 -156c-36,-65 -100,-103 -174,-103 -75,0 -139,37 -175,102l-88 156c-79,141 -224,226 -386,226l-15 0zm916 -4175c-215,601 -315,1708 0,2278l0 -2278z"/>
</svg>