<?xml version="1.0" encoding="UTF-8"?>
<!DOCTYPE svg PUBLIC "-//W3C//DTD SVG 1.1//EN" "http://www.w3.org/Graphics/SVG/1.1/DTD/svg11.dtd">
<svg xmlns="http://www.w3.org/2000/svg" xml:space="preserve" width="580px" height="580px" shape-rendering="geometricPrecision" text-rendering="geometricPrecision" image-rendering="optimizeQuality" fill-rule="nonzero" clip-rule="nonzero" viewBox="0 0 5800 5800" xmlns:xlink="http://www.w3.org/1999/xlink">
	<title>sales_quotation icon</title>
	<desc>sales_quotation icon from the IconExperience.com I-Collection. Copyright by INCORS GmbH (www.incors.com).</desc>
		<path id="curve29" d="M4797 1403c64,63 103,151 103,247l0 3850 -3153 0 401 -200 2552 0 0 -3650c0,-83 -67,-150 -150,-150l-850 0 0 -850c0,-82 -68,-150 -150,-150l-2450 0 0 2360 -200 99 0 -2659 2650 0c96,0 184,39 247,103 0,3 903,902 1000,1000zm-897 -615l0 512 512 0 -512 -512z"/>
	<path id="curve28" d="M428 3418l2203 -1098c104,-52 186,0 246,85 73,104 168,147 268,192 169,77 350,158 506,472 156,313 117,506 79,686 -22,106 -42,208 -2,328 34,100 7,202 -92,251l-2203 1099c-104,51 -186,0 -246,-86 -72,-103 -168,-146 -268,-192 -169,-76 -350,-157 -506,-471 -156,-313 -116,-506 -79,-686 22,-107 43,-208 2,-328 -34,-101 -7,-202 92,-252zm2506 1043c16,-148 2,-294 -66,-428 -83,-164 -178,-254 -343,-335 -175,-86 -378,-230 -468,-408 -69,-135 -84,-276 -71,-425l-856 427c-16,147 -2,293 66,428 83,163 179,253 343,335 175,86 378,230 468,408 69,135 84,276 71,425l856 -427zm-733 -1703c-26,151 -38,300 34,442 69,136 246,254 378,319 204,101 331,222 434,424 65,130 93,271 93,415l403 -200c-1,-3 -2,-7 -4,-12 -57,-171 -31,-298 -4,-431 30,-148 63,-305 -63,-557 -124,-250 -271,-317 -409,-379 -125,-56 -245,-110 -349,-260 -4,-5 -7,-9 -9,-12l-504 251zm-338 2237c26,-152 38,-301 -34,-443 -69,-135 -245,-253 -378,-319 -204,-100 -331,-221 -433,-424 -66,-129 -94,-271 -94,-415l-402 201c0,3 1,7 3,12 58,170 32,297 4,431 -30,147 -63,305 63,557 125,250 271,316 409,378 126,57 245,111 349,260 4,5 7,9 10,13l503 -251z"/>
</svg>