<?xml version="1.0" encoding="UTF-8"?>
<!DOCTYPE svg PUBLIC "-//W3C//DTD SVG 1.1//EN" "http://www.w3.org/Graphics/SVG/1.1/DTD/svg11.dtd">
<svg xmlns="http://www.w3.org/2000/svg" xml:space="preserve" width="580px" height="580px" shape-rendering="geometricPrecision" text-rendering="geometricPrecision" image-rendering="optimizeQuality" fill-rule="nonzero" clip-rule="nonzero" viewBox="0 0 5800 5800" xmlns:xlink="http://www.w3.org/1999/xlink">
	<title>sales_quotation icon</title>
	<desc>sales_quotation icon from the IconExperience.com I-Collection. Copyright by INCORS GmbH (www.incors.com).</desc>
		<path id="curve29"  d="M3500 300l0 1400 1400 0 0 3800 -3154 0 1979 -986c189,-95 259,-300 193,-495 -17,-52 -15,-93 -6,-146 19,-118 47,-218 51,-342 6,-196 -46,-377 -133,-551 -87,-176 -202,-326 -365,-438 -103,-71 -201,-107 -310,-161 -47,-24 -83,-46 -114,-91 -115,-165 -307,-245 -499,-149l-1642 818 0 -2659 2600 0zm144 13c59,16 111,48 153,90 0,3 998,999 1000,1000 42,42 74,94 90,153 -36,-34 -85,-56 -137,-56l-1050 0 0 -1050c0,-51 -21,-100 -56,-137z"/>
	<path id="curve28"  d="M428 3418l517 -257 -6 51c-17,111 -19,216 -6,316 24,191 116,383 252,520 69,70 153,130 266,185 88,44 172,98 242,157 126,109 187,222 190,392 2,83 -12,171 -28,261l-41 200 -381 190c-104,51 -186,0 -246,-86 -72,-103 -168,-146 -268,-192 -169,-76 -350,-157 -506,-471 -156,-313 -116,-506 -79,-686 22,-107 43,-208 2,-328 -34,-101 -7,-202 92,-252zm731 -364l863 -431 -9 50c-18,101 -33,200 -31,301 4,228 89,393 260,540 82,71 181,134 283,184 92,45 160,93 213,147 104,105 177,258 196,404 10,81 8,168 -6,263l-24 187 -863 431c23,-116 43,-233 41,-351 -4,-228 -89,-393 -260,-540 -82,-71 -181,-134 -283,-184 -92,-46 -160,-93 -213,-147 -104,-106 -177,-258 -196,-405 -10,-80 -8,-168 6,-262l1 -3 22 -184zm1087 -542l385 -192c104,-52 186,0 246,85 73,104 168,147 268,192 169,77 350,158 506,472 156,313 117,506 79,686 -22,106 -42,208 -2,328 34,100 7,202 -92,251l-517 258c16,-126 29,-236 13,-368 -25,-191 -117,-382 -253,-520 -68,-69 -153,-129 -266,-185 -88,-43 -172,-97 -242,-157 -126,-109 -187,-222 -190,-391 -1,-84 12,-172 28,-262l37 -197z"/>
</svg>