<?xml version="1.0" encoding="UTF-8"?>
<!DOCTYPE svg PUBLIC "-//W3C//DTD SVG 1.1//EN" "http://www.w3.org/Graphics/SVG/1.1/DTD/svg11.dtd">
<svg xmlns="http://www.w3.org/2000/svg" xml:space="preserve" width="580px" height="580px" shape-rendering="geometricPrecision" text-rendering="geometricPrecision" image-rendering="optimizeQuality" fill-rule="nonzero" clip-rule="nonzero" viewBox="0 0 5800 5800" xmlns:xlink="http://www.w3.org/1999/xlink">
	<title>satellite_dish icon</title>
	<desc>satellite_dish icon from the IconExperience.com I-Collection. Copyright by INCORS GmbH (www.incors.com).</desc>
		<path id="curve28"  d="M3662 4689c5,8 11,16 17,24 136,195 216,432 216,687l0 100 -2400 0 0 -100c0,-484 293,-922 739,-1108l83 -361c361,387 833,651 1345,758zm1249 -262c-1127,369 -2357,-167 -2858,-1241 -437,-936 -210,-2051 559,-2741l92 -82 2324 4026 -117 38zm-920 -2235l526 -304c0,-110 89,-200 200,-200 110,0 200,90 200,200 0,111 -90,200 -200,200 -36,0 -70,-9 -100,-26l-526 303 -100 -173z"/>
</svg>