<?xml version="1.0" encoding="UTF-8"?>
<!DOCTYPE svg PUBLIC "-//W3C//DTD SVG 1.1//EN" "http://www.w3.org/Graphics/SVG/1.1/DTD/svg11.dtd">
<svg xmlns="http://www.w3.org/2000/svg" xml:space="preserve" width="580px" height="580px" shape-rendering="geometricPrecision" text-rendering="geometricPrecision" image-rendering="optimizeQuality" fill-rule="nonzero" clip-rule="nonzero" viewBox="0 0 5800 5800" xmlns:xlink="http://www.w3.org/1999/xlink">
	<title>satellite_dish icon</title>
	<desc>satellite_dish icon from the IconExperience.com I-Collection. Copyright by INCORS GmbH (www.incors.com).</desc>
		<path id="curve28" d="M4911 4427c-1127,369 -2357,-167 -2858,-1241 -437,-936 -210,-2051 559,-2741l92 -82 2324 4026 -117 38zm-181 -155l-2074 -3593c-635,640 -803,1606 -422,2423 439,942 1492,1437 2496,1170zm-739 -2080l526 -304c0,-110 89,-200 200,-200 110,0 200,90 200,200 0,111 -90,200 -200,200 -37,0 -71,-9 -101,-27l-525 304 -100 -173zm-329 2497c152,206 233,455 233,711l0 100 -2400 0 0 -100c0,-484 293,-922 739,-1108l83 -361c53,58 109,112 167,164l-79 346 -51 19c-361,131 -616,458 -654,840l1990 0c-29,-301 -194,-572 -447,-737 135,54 275,96 419,126z"/>
</svg>