<?xml version="1.0" encoding="UTF-8"?>
<!DOCTYPE svg PUBLIC "-//W3C//DTD SVG 1.1//EN" "http://www.w3.org/Graphics/SVG/1.1/DTD/svg11.dtd">
<svg xmlns="http://www.w3.org/2000/svg" xml:space="preserve" width="580px" height="580px" shape-rendering="geometricPrecision" text-rendering="geometricPrecision" image-rendering="optimizeQuality" fill-rule="nonzero" clip-rule="nonzero" viewBox="0 0 5800 5800" xmlns:xlink="http://www.w3.org/1999/xlink">
	<title>satellite icon</title>
	<desc>satellite icon from the IconExperience.com I-Collection. Copyright by INCORS GmbH (www.incors.com).</desc>
	<path id="curve0"  d="M3417 3417c454,-453 1074,-689 1714,-654l38 2c52,53 105,105 157,158l-2404 2404c-52,-53 -104,-105 -157,-158 -37,-665 179,-1278 652,-1752zm2130 485c-185,834 -821,1498 -1645,1720l0 -207c713,-212 1263,-790 1440,-1513l205 0zm-4132 -790l71 -71 70 71 404 404c59,-23 124,-23 183,0l50 -50 -826 -826c-162,-162 -256,-379 -263,-608l-486 0 -241 -241 1414 -1414 242 241 0 486c228,7 445,101 607,263l826 826 50 -50c-23,-59 -23,-124 0,-183l-475 -474 1415 -1414 1272 1272 -1343 1344 -71 71 -70 -71 -404 -404c-59,23 -124,23 -183,0l-50 50 235 235c58,58 87,135 87,212 0,77 -29,154 -87,212l-849 849c-116,116 -308,116 -424,0l-235 -235 -50 50c23,59 23,124 0,183l475 474 -1415 1414 -1272 -1272 1343 -1344zm2487 1881c491,-185 871,-590 1025,-1091l208 0c-167,612 -631,1102 -1233,1302l0 -211zm814 -1091c-138,391 -434,709 -814,875l0 -222c270,-140 483,-372 600,-653l214 0z"/>
</svg>