<?xml version="1.0" encoding="UTF-8"?>
<!DOCTYPE svg PUBLIC "-//W3C//DTD SVG 1.1//EN" "http://www.w3.org/Graphics/SVG/1.1/DTD/svg11.dtd">
<svg xmlns="http://www.w3.org/2000/svg" xml:space="preserve" width="580px" height="580px" shape-rendering="geometricPrecision" text-rendering="geometricPrecision" image-rendering="optimizeQuality" fill-rule="nonzero" clip-rule="nonzero" viewBox="0 0 5800 5800" xmlns:xlink="http://www.w3.org/1999/xlink">
	<title>sausage icon</title>
	<desc>sausage icon from the IconExperience.com I-Collection. Copyright by INCORS GmbH (www.incors.com).</desc>
		<path id="curve28" d="M5002 2125l-67 256 254 -34 -187 -222zm-300 1009c125,-197 108,-467 -46,-644 -153,-176 -392,-220 -593,-99 -174,104 -358,183 -549,236 -194,54 -393,81 -593,81 -207,0 -412,-29 -610,-85 -196,-57 -385,-140 -563,-251 -86,-54 -183,-78 -277,-71 -181,12 -340,137 -410,303 -63,151 -52,347 31,489 40,70 97,128 169,173 251,158 490,266 751,335 261,69 546,99 888,99 343,0 630,-27 892,-92 260,-64 499,-166 745,-315 69,-42 124,-95 165,-159zm168 107c-57,90 -135,165 -230,223 -263,159 -519,268 -800,338 -280,69 -583,98 -940,98 -358,0 -659,-32 -939,-106 -280,-74 -536,-190 -806,-359 -100,-63 -179,-145 -236,-242 -103,-178 -126,-411 -63,-607l-488 -66c-78,-11 -113,-104 -63,-163l428 -510c53,-63 155,-37 173,42l112 424c117,-122 270,-200 440,-211 135,-9 273,24 395,100 162,101 334,177 513,228 180,52 366,78 555,78 184,0 365,-24 539,-73 174,-48 342,-120 501,-215 256,-154 569,-121 789,80l108 -410c18,-79 120,-105 174,-41l426 508c50,60 15,153 -63,163l-456 62c78,211 52,469 -69,659zm-4040 -860l-68 -258 -188 224 256 34z"/>
</svg>