<?xml version="1.0" encoding="UTF-8"?>
<!DOCTYPE svg PUBLIC "-//W3C//DTD SVG 1.1//EN" "http://www.w3.org/Graphics/SVG/1.1/DTD/svg11.dtd">
<svg xmlns="http://www.w3.org/2000/svg" xml:space="preserve" width="580px" height="580px" shape-rendering="geometricPrecision" text-rendering="geometricPrecision" image-rendering="optimizeQuality" fill-rule="nonzero" clip-rule="nonzero" viewBox="0 0 5800 5800" xmlns:xlink="http://www.w3.org/1999/xlink">
	<title>sausage icon</title>
	<desc>sausage icon from the IconExperience.com I-Collection. Copyright by INCORS GmbH (www.incors.com).</desc>
		<path id="curve28"  d="M733 1847c35,-42 98,-48 140,-12 18,14 29,33 33,54l83 313c-111,101 -191,227 -234,370l-387 -52c-54,-7 -93,-58 -85,-112 2,-20 10,-37 22,-51l0 0m4502 2c69,79 118,170 147,268 29,97 37,201 23,309 -28,224 -142,410 -337,528 -563,341 -1088,436 -1740,436 -666,0 -1176,-109 -1745,-465 -100,-63 -179,-145 -236,-242 -114,-197 -129,-457 -41,-667 44,-104 112,-196 203,-271 222,-185 526,-206 772,-53 322,201 689,306 1068,306 368,0 724,-99 1040,-288 284,-171 629,-110 846,139zm-29 -166l80 -303c4,-20 16,-39 33,-54 42,-35 105,-29 141,13l426 508c12,14 20,32 22,51 8,55 -31,105 -85,112l-354 48c-50,-147 -143,-278 -263,-375z"/>
</svg>