<?xml version="1.0" encoding="utf-8"?>
<!-- Generator: Adobe Illustrator 22.0.0, SVG Export Plug-In . SVG Version: 6.00 Build 0)  -->
<svg version="1.1" id="Ebene_1" xmlns="http://www.w3.org/2000/svg" xmlns:xlink="http://www.w3.org/1999/xlink" x="0px" y="0px"
	 viewBox="0 0 580 580" style="enable-background:new 0 0 580 580;" xml:space="preserve">
<g id="save_x5F_and_x5F_close_x5F_gi">
	<g>
		<rect x="182" y="62.9" width="174" height="21.8"/>
		<path d="M443,290.6V19.4c-116,0-232,0-348,0v320l28.2,28c57.3,0,114.7,0,172,0c0,0,0,0,0,0c-6.1,15-9.5,31.5-9.5,48.7
			c0,71.1,57.6,128.7,128.7,128.7s128.7-57.6,128.7-128.7C543.1,354.9,500.3,303.6,443,290.6z M160.3,41.2h217.5h0.1v119.6
			c0,6-4.9,10.9-10.9,10.9H171.2c-6,0-10.9-4.9-10.9-10.9V41.2z M160.2,215.2v10.9v119.6H132l-15.3-15.4V41.2h21.8v119.6
			c0,17.9,14.7,32.6,32.6,32.6h195.8c17.9,0,32.6-14.7,32.6-32.6V41.2h21.8v246.4c-2.3-0.1-4.6-0.2-6.9-0.2c-21,0-40.9,5-58.4,14
			c0,0,0,0,0,0v-75.3v-10.9h-10.9h-174H160.2z M438,289.6c-0.1,0-0.2,0-0.3-0.1C437.8,289.5,437.9,289.5,438,289.6z M435.7,289.2
			c-0.3-0.1-0.6-0.1-1-0.2C435,289.1,435.4,289.1,435.7,289.2z M432.9,288.7c-0.4-0.1-0.7-0.1-1.1-0.2
			C432.1,288.6,432.5,288.7,432.9,288.7z M430,288.3c-0.4,0-0.8-0.1-1.2-0.1C429.2,288.3,429.6,288.3,430,288.3z M427,288
			c-0.4,0-0.8-0.1-1.2-0.1C426.2,287.9,426.6,288,427,288z M182,345.7V236.9h152.3v78.5c-10.8,8.6-20.1,18.8-27.6,30.3H182z
			 M296.4,364.6C296.4,364.6,296.4,364.6,296.4,364.6C296.4,364.6,296.4,364.6,296.4,364.6z M305,348.3
			C305,348.3,305,348.3,305,348.3C305,348.3,305,348.3,305,348.3z M303.4,350.9C303.4,350.9,303.4,350.9,303.4,350.9
			C303.4,350.9,303.4,350.9,303.4,350.9z M301.9,353.5C301.9,353.5,301.9,353.6,301.9,353.5C301.9,353.6,301.9,353.5,301.9,353.5z
			 M300.5,356.2C300.4,356.2,300.4,356.2,300.5,356.2C300.4,356.2,300.4,356.2,300.5,356.2z M299.1,359C299.1,359,299,359,299.1,359
			C299,359,299.1,359,299.1,359z M297.7,361.7C297.7,361.7,297.7,361.8,297.7,361.7C297.7,361.8,297.7,361.7,297.7,361.7z
			 M414.4,524.8c-60,0-108.7-48.7-108.7-108.7c0-60,48.7-108.7,108.7-108.7c60,0,108.7,48.7,108.7,108.7
			C523.1,476.1,474.4,524.8,414.4,524.8z"/>
		<polygon points="225.5,323.9 225.5,280.4 247.3,280.4 247.3,258.6 203.8,258.6 203.8,323.9 		"/>
	</g>
	<polygon points="356.1,485.2 414.4,426.8 472.7,485.2 484.1,473.8 425.7,415.5 484.1,357.2 472.7,345.8 414.4,404.2 356.1,345.8 
		344.7,357.2 403.1,415.5 344.7,473.8 	"/>
	<path d="M215.6,475l-77-77.1l-14.2,14.2l53,52.9h-55.9c-38.5,0-70-31.5-70-70v-54v0h-20v54c0,49.6,40.4,90,90,90h55.9l-53,52.9
		l14.2,14.2L215.6,475z"/>
</g>
</svg>
