<?xml version="1.0" encoding="UTF-8"?>
<!DOCTYPE svg PUBLIC "-//W3C//DTD SVG 1.1//EN" "http://www.w3.org/Graphics/SVG/1.1/DTD/svg11.dtd">
<svg xmlns="http://www.w3.org/2000/svg" xml:space="preserve" width="580px" height="580px" shape-rendering="geometricPrecision" text-rendering="geometricPrecision" image-rendering="optimizeQuality" fill-rule="nonzero" clip-rule="nonzero" viewBox="0 0 5800 5800" xmlns:xlink="http://www.w3.org/1999/xlink">
	<title>save_as icon</title>
	<desc>save_as icon from the IconExperience.com I-Collection. Copyright by INCORS GmbH (www.incors.com).</desc>
		<path id="curve29" d="M5100 300l0 3400 -200 0 0 -3200 -600 0 0 1800c0,276 -224,500 -500,500l-2200 0c-276,0 -500,-224 -500,-500l0 -1800 -600 0 0 4159 241 241 559 0 0 200 -641 0 -359 -359 0 -4441c1600,0 3200,0 4800,0zm-1000 2800l0 600 -200 0 0 -400 -2400 0 0 400 -200 0 0 -600 2800 0zm-2400 -2400l2000 0 0 200 -2000 0 0 -200zm-400 -200l0 1800c0,165 135,300 300,300l2200 0c165,0 300,-135 300,-300l0 -1800 -2800 0z"/>
	<path id="curve28" d="M1900 4900l200 0 0 -400 -200 0 0 -200c200,0 400,0 600,0l0 200 -200 0 0 400 200 0 0 200 -600 0 0 -200zm3600 -1000l0 1600 -4000 0 0 -1600 4000 0zm-200 200l-3600 0 0 1200 3600 0 0 -1200z"/>
</svg>