<?xml version="1.0" encoding="utf-8"?>
<!-- Generator: Adobe Illustrator 19.2.1, SVG Export Plug-In . SVG Version: 6.00 Build 0)  -->
<svg version="1.1" id="Ebene_1" xmlns="http://www.w3.org/2000/svg" xmlns:xlink="http://www.w3.org/1999/xlink" x="0px" y="0px"
	 width="580px" height="580px" viewBox="0 0 580 580" style="enable-background:new 0 0 580 580;" xml:space="preserve">
<g>
	<path d="M231.1,331.3H124.5v-25.2h106.6V331.3z"/>
	<path d="M273.9,352c0-7.4,1.2-14.9,3.5-22.4c2.3-7.5,5.7-14.5,10.1-21c4.4-6.5,9.8-12.4,16.2-17.8c6.4-5.3,13.8-9.6,22-12.7
		c-12.1-6.8-21.7-15.5-28.9-26.1c-7.2-10.6-10.7-22.4-10.7-35.3c0-10.3,2-19.8,6-28.5c4-8.7,9.5-16.3,16.5-22.7
		c7-6.4,15.4-11.4,25-14.9c9.6-3.6,20-5.4,31.3-5.4c11.3,0,21.8,1.8,31.4,5.5c9.6,3.6,18,8.7,25,15c7,6.4,12.5,13.9,16.4,22.7
		c3.9,8.7,5.9,18.2,5.9,28.3c0,12.9-3.6,24.6-10.7,35.3c-7.2,10.6-16.7,19.3-28.5,26.1c8.1,3.1,15.3,7.4,21.7,12.7
		c6.4,5.3,11.7,11.3,16.1,17.8c4.4,6.5,7.7,13.5,10.1,21c2.3,7.5,3.5,14.9,3.5,22.4c0,12.2-2.2,23.4-6.6,33.6
		c-4.4,10.2-10.6,18.8-18.7,26.1s-17.6,12.9-28.7,16.9s-23.4,6.1-36.8,6.1c-13.3,0-25.5-2-36.5-6.1c-11.1-4-20.6-9.7-28.7-16.9
		c-8.1-7.2-14.4-15.9-18.8-26.1S273.9,364.3,273.9,352z M308.7,349.3c0,8.7,1.3,16.6,4,23.6c2.7,7,6.4,13,11.3,18
		c4.9,5,10.8,8.8,17.8,11.4c7,2.7,14.7,4,23.1,4c8.2,0,15.8-1.4,22.7-4.1c6.9-2.7,12.9-6.6,17.9-11.5c5-4.9,8.9-10.9,11.7-18
		c2.8-7,4.2-14.8,4.2-23.4c0-7.8-1.3-15.1-4-22c-2.7-6.8-6.5-12.9-11.4-18.1c-5-5.2-10.9-9.3-17.8-12.3c-6.9-3-14.6-4.5-23.2-4.5
		c-8.1,0-15.5,1.4-22.4,4.2c-6.8,2.8-12.8,6.7-17.8,11.7c-5,5-9,11-11.8,18C310.1,333.3,308.7,340.9,308.7,349.3z M318.6,219.4
		c0,6.6,1.2,12.8,3.6,18.5c2.4,5.7,5.7,10.6,10,14.8c4.2,4.2,9.1,7.6,14.7,10c5.6,2.4,11.6,3.6,18,3.6c6.4,0,12.4-1.2,18.1-3.7
		c5.7-2.5,10.6-5.8,14.7-10.1c4.2-4.2,7.5-9.2,10-14.8c2.5-5.7,3.7-11.7,3.7-18.3c0-6.8-1.2-13-3.6-18.8c-2.4-5.7-5.7-10.7-9.9-14.8
		c-4.2-4.2-9.1-7.5-14.7-9.9c-5.7-2.4-11.8-3.6-18.3-3.6c-6.9,0-13.2,1.2-18.8,3.7c-5.7,2.5-10.5,5.8-14.6,10.1
		c-4.1,4.2-7.3,9.2-9.5,14.9C319.7,206.8,318.6,212.9,318.6,219.4z"/>
</g>
</svg>
