<?xml version="1.0" encoding="UTF-8"?>
<!DOCTYPE svg PUBLIC "-//W3C//DTD SVG 1.1//EN" "http://www.w3.org/Graphics/SVG/1.1/DTD/svg11.dtd">
<svg xmlns="http://www.w3.org/2000/svg" xml:space="preserve" width="580px" height="580px" shape-rendering="geometricPrecision" text-rendering="geometricPrecision" image-rendering="optimizeQuality" fill-rule="nonzero" clip-rule="nonzero" viewBox="0 0 5800 5800" xmlns:xlink="http://www.w3.org/1999/xlink">
	<title>scalpel icon</title>
	<desc>scalpel icon from the IconExperience.com I-Collection. Copyright by INCORS GmbH (www.incors.com).</desc>
	<path id="curve0"  d="M5375 425c233,233 233,616 0,849l-2758 2757c-78,78 -205,78 -282,0l-71 -70c0,0 -384,384 -425,424 -113,113 -311,119 -424,0 -116,-117 -117,-308 0,-424 36,-37 424,-424 424,-425l-70 -71c-78,-77 -78,-204 0,-282l2757 -2758c233,-233 616,-233 849,0zm-2959 3900l-445 446c-466,466 -919,621 -1555,727l-137 23 23 -137c98,-590 297,-1125 727,-1555l446 -445c11,56 38,109 82,152l-283 283c-195,194 -195,513 0,707 194,194 513,194 707,0l283 -283c43,44 96,71 152,82z"/>
</svg>