<?xml version="1.0" encoding="UTF-8"?>
<!DOCTYPE svg PUBLIC "-//W3C//DTD SVG 1.1//EN" "http://www.w3.org/Graphics/SVG/1.1/DTD/svg11.dtd">
<svg xmlns="http://www.w3.org/2000/svg" xml:space="preserve" width="580px" height="580px" shape-rendering="geometricPrecision" text-rendering="geometricPrecision" image-rendering="optimizeQuality" fill-rule="nonzero" clip-rule="nonzero" viewBox="0 0 5800 5800" xmlns:xlink="http://www.w3.org/1999/xlink">
	<title>scales icon</title>
	<desc>scales icon from the IconExperience.com I-Collection. Copyright by INCORS GmbH (www.incors.com).</desc>
		<path id="curve28"  d="M5300 3763l0 -63 -1600 0 0 63c195,216 513,337 800,337 287,0 605,-121 800,-337zm200 73c-245,296 -616,464 -1000,464 -384,0 -755,-167 -1000,-464l0 -336 304 0 586 -1591 -1090 -292 0 3283 500 0c165,0 300,135 300,300l0 300 -2400 0 0 -300c0,-165 135,-300 300,-300l500 0 0 -3498 -1091 -292 557 1590 334 0 0 336c-245,296 -616,464 -1000,464 -384,0 -755,-168 -1000,-464l0 -336 304 0 602 -1634c2,-3 3,-6 4,-9l-152 -41c-67,-18 -121,-61 -154,-116 -53,-89 -47,-199 17,-280 20,-26 46,-47 75,-63l464 -261 1260 337c56,-21 117,-33 180,-33 138,0 263,56 354,146 12,13 24,26 35,40l1243 333 277 459c92,154 -3,352 -185,374l542 1548 334 0 0 336zm-1483 -336l937 0 -456 -1305 -481 1305zm386 -2209l-1009 -271c4,26 6,53 6,80 0,113 -37,216 -100,300l0 10 1278 342c44,12 85,-30 60,-71l-235 -390zm-1891 -507l-1025 -274 -394 221c-6,3 -11,7 -15,13 -12,15 -13,36 -3,53 7,12 19,22 35,26l1295 347c-3,-23 -5,-46 -5,-70 0,-120 42,-230 112,-316zm188 774l0 3342 400 0 0 -3337 -7 -2c-59,25 -124,39 -193,39 -71,0 -139,-15 -200,-42zm-700 3542c-55,0 -100,45 -100,100l0 100 2000 0 0 -100c0,-55 -45,-100 -100,-100 -600,0 -1200,0 -1800,0zm-246 -2400l-456 -1305 -481 1305 937 0zm346 263l0 -63 -1600 0 0 63c195,216 513,337 800,337 287,0 605,-121 800,-337zm800 -2163c-166,0 -300,134 -300,300 0,166 134,300 300,300 166,0 300,-134 300,-300 0,-166 -134,-300 -300,-300z"/>
</svg>