<?xml version="1.0" encoding="UTF-8"?>
<!DOCTYPE svg PUBLIC "-//W3C//DTD SVG 1.1//EN" "http://www.w3.org/Graphics/SVG/1.1/DTD/svg11.dtd">
<svg xmlns="http://www.w3.org/2000/svg" xml:space="preserve" width="580px" height="580px" shape-rendering="geometricPrecision" text-rendering="geometricPrecision" image-rendering="optimizeQuality" fill-rule="nonzero" clip-rule="nonzero" viewBox="0 0 5800 5800" xmlns:xlink="http://www.w3.org/1999/xlink">
	<title>scalpel icon</title>
	<desc>scalpel icon from the IconExperience.com I-Collection. Copyright by INCORS GmbH (www.incors.com).</desc>
	<path id="curve0" d="M1415 4385c-116,-117 -117,-308 0,-424 36,-37 424,-424 424,-425l-70 -71c-78,-77 -78,-204 0,-282l2757 -2758c233,-233 616,-233 849,0 233,233 233,616 0,849l-2758 2757c-78,78 -205,78 -282,0 -2,0 -71,-70 -71,-70l-425 424c-116,116 -307,116 -424,0zm1001 -60l-445 446c-466,466 -919,621 -1555,727l-137 23 23 -137c98,-590 297,-1125 727,-1555l446 -445c16,79 51,122 106,177l-410 410c-364,363 -548,809 -647,1306 536,-101 912,-254 1305,-648l410 -410c55,55 98,90 177,106zm-860 -81c39,38 103,38 142,0l424 -425c78,-77 205,-77 283,0 24,24 47,47 71,71l0 0 2757 -2758c156,-155 156,-410 0,-565 -155,-156 -410,-156 -565,0l-2758 2757c0,0 65,65 71,71 77,78 77,205 0,283l-425 424c-38,39 -39,103 0,142zm920 -354l0 0 0 0zm0 0l0 0 0 0 0 0z"/>
</svg>