<?xml version="1.0" encoding="UTF-8"?>
<!DOCTYPE svg PUBLIC "-//W3C//DTD SVG 1.1//EN" "http://www.w3.org/Graphics/SVG/1.1/DTD/svg11.dtd">
<svg xmlns="http://www.w3.org/2000/svg" xml:space="preserve" width="580px" height="580px" shape-rendering="geometricPrecision" text-rendering="geometricPrecision" image-rendering="optimizeQuality" fill-rule="nonzero" clip-rule="nonzero" viewBox="0 0 5800 5800" xmlns:xlink="http://www.w3.org/1999/xlink">
	<title>scanner icon</title>
	<desc>scanner icon from the IconExperience.com I-Collection. Copyright by INCORS GmbH (www.incors.com).</desc>
		<path id="curve28"  d="M1779 513l3385 2810 -128 154 -3385 -2811 128 -153zm-1179 2987l4600 0c165,0 300,135 300,300l0 600c0,165 -135,300 -300,300l-100 0 0 400 -4400 0 0 -400 -100 0c-165,0 -300,-135 -300,-300l0 -600c0,-165 135,-300 300,-300zm4600 200l-4600 0c-55,0 -100,45 -100,100l0 600c0,55 45,100 100,100l300 0 0 400 4000 0 0 -400 300 0c55,0 100,-45 100,-100l0 -600c0,-55 -45,-100 -100,-100zm-4300 200c110,0 200,90 200,200 0,110 -90,200 -200,200 -110,0 -200,-90 -200,-200 0,-110 90,-200 200,-200z"/>
</svg>