<?xml version="1.0" encoding="utf-8"?>
<!-- Generator: Adobe Illustrator 20.0.0, SVG Export Plug-In . SVG Version: 6.00 Build 0)  -->
<svg version="1.1" id="schedule_x5F_sync_x5F_gi" xmlns="http://www.w3.org/2000/svg" xmlns:xlink="http://www.w3.org/1999/xlink"
	 x="0px" y="0px" width="580px" height="580px" viewBox="0 0 580 580" style="enable-background:new 0 0 580 580;"
	 xml:space="preserve">
<g>
	<rect x="166.2" y="213.9" width="31.3" height="31.3"/>
	<rect x="166.2" y="264.8" width="31.3" height="31.3"/>
	<rect x="166.2" y="163" width="31.3" height="31.3"/>
	<rect x="124.2" y="163" width="31.3" height="31.3"/>
	<rect x="210.5" y="163" width="31.3" height="31.3"/>
	<rect x="254.9" y="163" width="31.3" height="31.3"/>
	<rect x="121.8" y="213.9" width="31.3" height="31.3"/>
	<rect x="77.5" y="213.9" width="31.3" height="31.3"/>
	<rect x="77.5" y="264.8" width="31.3" height="31.3"/>
	<rect x="77.5" y="163" width="31.3" height="31.3"/>
	<rect x="121.8" y="264.8" width="31.3" height="31.3"/>
	<g>
		<polygon points="260.8,54.1 260.8,101.2 289,77.7 		"/>
		<polygon points="105.8,54.1 77.5,77.7 105.8,101.2 		"/>
	</g>
	<rect x="377.8" y="433.8" width="31.3" height="31.3"/>
	<rect x="377.8" y="484.7" width="31.3" height="31.3"/>
	<rect x="377.8" y="382.9" width="31.3" height="31.3"/>
	<rect x="335.8" y="382.9" width="31.3" height="31.3"/>
	<rect x="422.2" y="382.9" width="31.3" height="31.3"/>
	<rect x="422.2" y="434" width="31.3" height="31.3"/>
	<rect x="424.5" y="484.7" width="31.3" height="31.3"/>
	<rect x="466.5" y="382.9" width="31.3" height="31.3"/>
	<rect x="466.5" y="433.8" width="31.3" height="31.3"/>
	<rect x="466.5" y="484.7" width="31.3" height="31.3"/>
	<rect x="333.5" y="433.8" width="31.3" height="31.3"/>
	<rect x="289.2" y="433.8" width="31.3" height="31.3"/>
	<rect x="289.2" y="484.7" width="31.3" height="31.3"/>
	<rect x="289.2" y="382.9" width="31.3" height="31.3"/>
	<rect x="333.5" y="484.7" width="31.3" height="31.3"/>
	<g>
		<polygon points="472.5,274.1 472.5,321.2 500.7,297.6 		"/>
		<polygon points="317.4,274.1 289.2,297.6 317.4,321.2 		"/>
	</g>
	<g id="curve28_68_">
		<path d="M184.6,402.9l77,77.1l-77,77.1l-14.2-14.2l53-52.9h-55.9c-49.6,0-90-40.4-90-90v-70h20v70c0,38.5,31.5,70,70,70h55.9
			l-53-52.9L184.6,402.9z M482.2,250v-70c0-38.5-31.5-70-70-70h-55.9l53,52.9l-14.2,14.2l-77-77.1l77-77.1l14.2,14.2l-53,52.9h55.9
			c49.6,0,90,40.4,90,90v70H482.2z"/>
	</g>
	<g>
		<polygon points="207,340 207,320 118,320 118,330 118,340 		"/>
		<polygon points="331,59.3 331,20 38,20 38,340 58,340 58,134 311,134 311,197 331,197 331,140.7 304.5,114.1 304.3,114 58,114 
			58,40 311,40 311,79.3 		"/>
	</g>
	<polygon points="523,240 523,334 270,334 270,260 463,260 463,250 463,240 250,240 250,439.6 270,459.6 270,354 523,354 523,540 
		270,540 270,500.4 250,520.4 250,560 543,560 543,240 	"/>
</g>
</svg>
