<?xml version="1.0" encoding="utf-8"?>
<!-- Generator: Adobe Illustrator 19.2.1, SVG Export Plug-In . SVG Version: 6.00 Build 0)  -->
<svg version="1.1" id="Ebene_1" xmlns="http://www.w3.org/2000/svg" xmlns:xlink="http://www.w3.org/1999/xlink" x="0px" y="0px"
	 width="580px" height="580px" viewBox="0 0 580 580" style="enable-background:new 0 0 580 580;" xml:space="preserve">
<path id="curve28_40_" d="M342.1,157.9l132,132.1l-132,132.1l-14.2-14.2l108-107.9H110v-20h325.9l-108-107.9L342.1,157.9z M290,30
	c143.6,0,260,116.4,260,260S433.6,550,290,550S30,433.6,30,290S146.4,30,290,30z M290,50C157.4,50,50,157.4,50,290
	s107.4,240,240,240s240-107.4,240-240S422.6,50,290,50z"/>
</svg>
