<?xml version="1.0" encoding="utf-8"?>
<!-- Generator: Adobe Illustrator 20.0.0, SVG Export Plug-In . SVG Version: 6.00 Build 0)  -->
<svg version="1.1" id="schedule_x5F_filter_x5F_gi" xmlns="http://www.w3.org/2000/svg" xmlns:xlink="http://www.w3.org/1999/xlink"
	 x="0px" y="0px" width="580px" height="580px" viewBox="0 0 580 580" style="enable-background:new 0 0 580 580;"
	 xml:space="preserve">
<g>
	<rect x="111" y="332" width="54" height="54"/>
	<rect x="111" y="419" width="54" height="54"/>
	<rect x="111" y="245" width="54" height="54"/>
	<polygon points="408,170.6 456,130.6 408,90.6 	"/>
	<polygon points="172,170.6 172,90.6 124,130.6 	"/>
	<path d="M90,210h400c0,0,7.6,0.3,11.2,0.8c3,0.4,5.8,1,8.8,1.8V50H70v480h234v-20H90V210z M90,70h400v120H90V70z"/>
	<path d="M490,510h-26v1c0,6.2-0.7,12-2.4,19H510v-98.6l-20,17.7V510z"/>
	<path d="M492.3,250.9c-27.8-6.1-66-9.9-108.1-9.9c-42.1,0-80.4,3.8-108.2,9.9c-31.7,7-51.4,18.4-51.8,32.6c-0.5,14.2,0,29.5,0,43.8
		c0,13.4,5.4,25,15.4,33.8c33,29.2,65.7,58.8,99,87.7c3.7,3.2,5.4,7.3,5.4,12.2v75.6c0,12.4,5.4,19.6,13.7,23
		c4.6,1.8,10.1,2.1,15.7,1.2c4.9-0.9,9.9-2.7,14.9-5.2C406.2,546.8,424,528,424,511v-50c0-4.9,2-9,5.7-12.3l98.8-87.5
		c10.1-8.7,15.4-20.5,15.4-33.9V284C544,263.9,507,254.1,492.3,250.9z M524,327.3c0,7.6-2.7,13.9-8.4,18.8
		c-33.3,28.9-66.2,58.5-99.2,87.7c-8,7.1-12.5,16.5-12.5,27.2v50c0,9.2-12.2,20.7-24.5,26.7c-3.4,1.7-6.5,2.9-9.4,3.4
		c-2.1,0.3-3.9,0.4-4.9-0.1c-0.7-0.2-1.2-1.6-1.2-4.4V461c0-10.8-4.2-20.2-12.4-27.3l-99-87.5c-5.7-5-8.7-11.3-8.7-18.9v-20.7
		c9,4.1,19.2,7.7,31.9,10.4c27.8,6.1,66.2,9.9,108.3,9.9c42.1,0,80.3-3.8,108.1-9.9c12.7-2.7,23.7-6.3,31.7-10.4V327.3z
		 M488.3,297.5c-26.5,5.8-63.3,9.4-104,9.4s-77.5-3.6-104-9.4c-22.2-4.9-36-9.8-36-13.5c0-3.8,13.8-8.7,36-13.6
		c26.5-5.8,63.3-9.4,104-9.4s77.5,3.6,104,9.4c22.2,4.9,36,9.8,36,13.6C524.3,287.7,510.5,292.6,488.3,297.5z"/>
</g>
</svg>
