<?xml version="1.0" encoding="utf-8"?>
<!-- Generator: Adobe Illustrator 20.1.0, SVG Export Plug-In . SVG Version: 6.00 Build 0)  -->
<svg version="1.1" id="Ebene_1" xmlns="http://www.w3.org/2000/svg" xmlns:xlink="http://www.w3.org/1999/xlink" x="0px" y="0px"
	 width="580px" height="580px" viewBox="0 0 580 580" style="enable-background:new 0 0 580 580;" xml:space="preserve">
<g>
	<path d="M223,242v294.7l26,25.3c98,0,196,0,294,0V242C436,242,330,242,223,242z M283,262h200v110.5c0,5.5-4.5,9.5-10,9.5H293
		c-5.5,0-10-4-10-9.5V262z M443,542H303V442h140V542z M523,542h-60V432.5V422h-10H293h-10v10.5V542h-25.8L243,528.3V262h20v110.5
		c0,16.5,13.5,29.5,30,29.5h180c16.5,0,30-13,30-29.5V262h20V542z"/>
	<polygon points="407.9,171.1 455.9,131.1 407.9,91.1 	"/>
	<polygon points="172.1,171.1 172.1,91.1 124.1,131.1 	"/>
	<path d="M509.8,210V50h-440v480H183v-20H89.8V210H183h306.8H509.8z M89.8,190V70.4h400V190H89.8z"/>
	<polygon points="129.5,474.3 183,474.3 183,454.3 149.5,454.3 149.5,374.3 183,374.3 183,354.3 129.5,354.3 	"/>
	<polygon points="129.5,325.7 183,325.7 183,305.7 149.5,305.7 149.5,265.7 183,265.7 183,245.7 129.5,245.7 	"/>
	<polygon points="343,482.5 363,482.5 363,462.5 323,462.5 323,522.5 343,522.5 	"/>
	<rect x="303" y="282.5" width="160" height="20"/>
</g>
</svg>
