<?xml version="1.0" encoding="utf-8"?>
<!-- Generator: Adobe Illustrator 20.1.0, SVG Export Plug-In . SVG Version: 6.00 Build 0)  -->
<svg version="1.1" id="Ebene_1" xmlns="http://www.w3.org/2000/svg" xmlns:xlink="http://www.w3.org/1999/xlink" x="0px" y="0px"
	 width="580px" height="580px" viewBox="0 0 580 580" style="enable-background:new 0 0 580 580;" xml:space="preserve">
<g>
	<path d="M69.8,50v480h440V50H69.8z M489.8,510h-400V210h400V510z M489.8,190h-400V70.4h400V190z"/>
	<polygon points="407.9,91.1 407.9,171.1 455.9,131.1 	"/>
	<polygon points="172.1,91.1 124.1,131.1 172.1,171.1 	"/>
	<path d="M279.5,245.7h-150v80h150C279.5,299,279.5,272.4,279.5,245.7z M259.5,305.7h-110v-40h110V305.7z"/>
	<path d="M449.5,245.7h-150v80h150C449.5,299,449.5,272.4,449.5,245.7z M429.5,305.7h-110v-40h110V305.7z"/>
	<path d="M449.5,459.3v-105h-320v120h320V459.3z M429.5,454.3h-280v-80h280V454.3z"/>
</g>
</svg>
