<?xml version="1.0" encoding="utf-8"?>
<!-- Generator: Adobe Illustrator 20.1.0, SVG Export Plug-In . SVG Version: 6.00 Build 0)  -->
<svg version="1.1" id="Ebene_1" xmlns="http://www.w3.org/2000/svg" xmlns:xlink="http://www.w3.org/1999/xlink" x="0px" y="0px"
	 width="580px" height="580px" viewBox="0 0 580 580" style="enable-background:new 0 0 580 580;" xml:space="preserve">
<g>
	<polygon points="407.9,171.1 455.9,131.1 407.9,91.1 	"/>
	<polygon points="172.1,171.1 172.1,91.1 124.1,131.1 	"/>
	<path d="M509.8,210V50h-440v480H183v-20H89.8V210H183h306.8H509.8z M89.8,190V70.4h400V190H89.8z"/>
	<polygon points="129.5,474.3 183,474.3 183,454.3 149.5,454.3 149.5,374.3 183,374.3 183,354.3 129.5,354.3 	"/>
	<polygon points="129.5,325.7 183,325.7 183,305.7 149.5,305.7 149.5,265.7 183,265.7 183,245.7 129.5,245.7 	"/>
	<path d="M223,249.1v312.8h320V249.1H223z M523,542.3H243V268.6h280V542.3z"/>
	<polygon points="310.5,489.4 383.4,416.4 456.3,489.4 470.5,475.2 397.5,402.3 470.5,329.4 456.3,315.2 383.4,388.2 310.5,315.2 
		296.3,329.4 369.3,402.3 296.3,475.2 	"/>
</g>
</svg>
