<?xml version="1.0" encoding="UTF-8"?>
<!DOCTYPE svg PUBLIC "-//W3C//DTD SVG 1.1//EN" "http://www.w3.org/Graphics/SVG/1.1/DTD/svg11.dtd">
<svg xmlns="http://www.w3.org/2000/svg" xml:space="preserve" width="580px" height="580px" shape-rendering="geometricPrecision" text-rendering="geometricPrecision" image-rendering="optimizeQuality" fill-rule="nonzero" clip-rule="nonzero" viewBox="0 0 5800 5800" xmlns:xlink="http://www.w3.org/1999/xlink">
	<title>school icon</title>
	<desc>school icon from the IconExperience.com I-Collection. Copyright by INCORS GmbH (www.incors.com).</desc>
	<path id="curve0"  d="M3600 1000l0 -300c0,-110 -90,-200 -200,-200 -110,0 -200,90 -200,200l0 300c0,110 90,200 200,200 110,0 200,-90 200,-200zm100 4500l1800 0 0 -4000 -5200 0 0 4000 1800 0 0 -1800 1600 0 0 1800zm-1400 -5200l0 450 400 0 0 -450 200 0 0 1100 -200 0 0 -450 -400 0 0 450 -200 0 0 -1100 200 0zm2700 0l0 900 500 0 0 200 -700 0 0 -1100 200 0zm-1500 5200l0 -1600 -1200 0 0 1600 1200 0zm-2800 -2200l0 -1200 800 0 0 200 -600 0 0 1000 -200 0zm0 1600l0 -1200 800 0 0 200 -600 0 0 1000 -200 0zm1200 -1600l0 -1200 800 0 0 200 -600 0 0 1000 -200 0zm1200 0l0 -1200 800 0 0 200 -600 0 0 1000 -200 0zm1200 0l0 -1200 800 0 0 200 -600 0 0 1000 -200 0zm0 1600l0 -1200 800 0 0 200 -600 0 0 1000 -200 0zm-3400 -4275c0,-69 -56,-125 -125,-125l-150 0c-69,0 -125,56 -125,125 0,69 56,125 125,125l150 0c179,0 325,146 325,325 0,179 -146,325 -325,325l-150 0c-179,0 -325,-146 -325,-325l200 0c0,69 56,125 125,125l150 0c69,0 125,-56 125,-125 0,-69 -56,-125 -125,-125l-150 0c-179,0 -325,-146 -325,-325 0,-179 146,-325 325,-325l150 0c179,0 325,146 325,325l-200 0zm900 75c0,-110 -90,-200 -200,-200 -111,0 -200,89 -200,200l0 300c0,110 90,200 200,200 110,0 200,-90 200,-200l200 0c0,220 -180,400 -400,400 -220,0 -400,-180 -400,-400l0 -300c0,-220 180,-400 400,-400 220,0 400,180 400,400l-200 0zm2700 300l0 -300c0,-110 -90,-200 -200,-200 -110,0 -200,90 -200,200l0 300c0,110 90,200 200,200 110,0 200,-90 200,-200zm200 -300l0 300c0,220 -180,400 -400,400 -220,0 -400,-180 -400,-400l0 -300c0,-220 180,-400 400,-400 220,0 400,180 400,400zm-900 0l0 300c0,220 -180,400 -400,400 -220,0 -400,-180 -400,-400l0 -300c0,-220 180,-400 400,-400 220,0 400,180 400,400z"/>
</svg>