<?xml version="1.0" encoding="UTF-8"?>
<!DOCTYPE svg PUBLIC "-//W3C//DTD SVG 1.1//EN" "http://www.w3.org/Graphics/SVG/1.1/DTD/svg11.dtd">
<svg xmlns="http://www.w3.org/2000/svg" xml:space="preserve" width="580px" height="580px" shape-rendering="geometricPrecision" text-rendering="geometricPrecision" image-rendering="optimizeQuality" fill-rule="nonzero" clip-rule="nonzero" viewBox="0 0 5800 5800" xmlns:xlink="http://www.w3.org/1999/xlink">
	<title>schoolboy icon</title>
	<desc>schoolboy icon from the IconExperience.com I-Collection. Copyright by INCORS GmbH (www.incors.com).</desc>
	<path id="curve0"  d="M1900 5224c66,10 133,19 200,27l0 -1347 0 -266c24,-42 37,-91 45,-138l-745 0c-55,0 -100,45 -100,100l0 421c175,-119 405,-159 600,-241 0,481 0,963 0,1444zm2200 -1162l0 1126c58,-11 113,-24 167,-38 250,-66 433,-149 433,-250 0,-239 -89,-503 -261,-673 -75,-74 -204,-121 -339,-165zm-200 1162c0,-481 0,-963 0,-1444 195,82 425,122 600,241l0 -421c0,-55 -45,-100 -100,-100l-745 0c7,48 20,98 45,140 0,537 0,1074 0,1611 67,-8 134,-17 200,-27zm-2200 -36l0 -1126c-135,44 -264,91 -339,165 -172,170 -261,434 -261,673 0,101 183,184 433,250 54,14 109,27 167,38zm318 -2641c31,115 90,303 161,465 47,108 98,203 148,252 19,20 29,45 29,71 0,134 -14,279 -81,399 122,148 449,186 625,186 176,0 501,-38 624,-185 -68,-121 -76,-263 -80,-398 0,-28 11,-54 29,-73 51,-50 102,-145 149,-252 71,-163 129,-351 160,-465 7,-29 27,-52 52,-64 121,-63 136,-259 98,-374 -57,57 -114,114 -171,171 -74,75 -178,179 -309,107 -145,-79 -361,-119 -578,-119 -217,0 -430,40 -568,119 -126,72 -185,-2 -248,-82 -9,-12 -19,-25 -29,-34l-159 -170c-40,116 -27,320 97,382 26,14 44,37 51,64zm882 1573c-197,0 -423,-33 -600,-123l0 1275c227,20 441,28 600,28 159,0 373,-8 600,-28l0 -1275c-177,90 -403,123 -600,123zm1204 -2122c87,206 56,505 -140,639 -34,122 -91,298 -159,455 -34,76 -70,147 -109,208l704 0c165,0 300,135 300,300l0 632c130,192 200,436 200,668 0,214 -246,354 -583,443 -445,117 -1065,157 -1417,157 -352,0 -972,-40 -1417,-157 -337,-89 -583,-229 -583,-443 0,-232 70,-476 200,-669l0 -631c0,-165 135,-300 300,-300l704 0c-38,-60 -75,-132 -108,-208 -68,-156 -125,-332 -160,-455 -194,-133 -228,-433 -140,-639 0,-293 25,-609 189,-861 167,-257 469,-437 1015,-437 546,0 848,180 1015,437 164,252 189,568 189,861zm-321 -22c-260,-126 -598,-176 -883,-176 -285,0 -623,50 -883,176l154 153c8,8 57,73 64,69 167,-86 404,-130 639,-130 247,0 498,48 674,145l235 -237zm-35 -731c-132,-203 -382,-345 -848,-345 -466,0 -716,142 -848,345 -104,160 -140,363 -151,567 291,-152 674,-212 999,-212 325,0 708,60 999,212 -11,-204 -47,-407 -151,-567z"/>
</svg>