<?xml version="1.0" encoding="UTF-8"?>
<!DOCTYPE svg PUBLIC "-//W3C//DTD SVG 1.1//EN" "http://www.w3.org/Graphics/SVG/1.1/DTD/svg11.dtd">
<svg xmlns="http://www.w3.org/2000/svg" xml:space="preserve" width="580px" height="580px" shape-rendering="geometricPrecision" text-rendering="geometricPrecision" image-rendering="optimizeQuality" fill-rule="nonzero" clip-rule="nonzero" viewBox="0 0 5800 5800" xmlns:xlink="http://www.w3.org/1999/xlink">
	<title>schoolboy icon</title>
	<desc>schoolboy icon from the IconExperience.com I-Collection. Copyright by INCORS GmbH (www.incors.com).</desc>
	<path id="curve0"  d="M2100 5251l0 -1347 0 -73c47,69 118,125 206,169 159,80 377,120 594,120 216,0 435,-40 594,-120 88,-44 159,-100 206,-169l0 1420c134,-16 268,-36 400,-63l0 -1337c140,46 283,90 400,170l0 -421c0,-55 -45,-100 -100,-100l-745 0c5,29 -88,166 -108,199 -24,48 -74,89 -142,123 -130,65 -317,98 -505,98 -188,0 -374,-32 -505,-98 -68,-34 -118,-75 -142,-123l-108 -199 -745 0c-55,0 -100,45 -100,100l0 421c117,-80 260,-124 400,-170l0 1337c132,27 266,47 400,63zm2004 -3253c87,206 56,505 -140,639 -34,122 -91,298 -159,455 -34,76 -70,147 -109,208l704 0c165,0 300,135 300,300l0 632c130,192 200,436 200,668 0,214 -246,354 -583,443 -445,117 -1065,157 -1417,157 -352,0 -972,-40 -1417,-157 -337,-89 -583,-229 -583,-443 0,-232 70,-476 200,-669l0 -631c0,-165 135,-300 300,-300l704 0c-38,-60 -75,-132 -108,-208 -68,-156 -125,-332 -160,-455 -194,-133 -228,-433 -140,-639 0,-293 25,-609 189,-861 167,-257 469,-437 1015,-437 546,0 848,180 1015,437 164,252 189,568 189,861zm-321 -22c-260,-126 -598,-176 -883,-176 -285,0 -623,50 -883,176l154 153c8,8 57,73 64,69 167,-86 404,-130 639,-130 247,0 498,48 674,145l235 -237zm-35 -731c-132,-203 -382,-345 -848,-345 -466,0 -716,142 -848,345 -104,160 -140,363 -151,567 291,-152 674,-212 999,-212 325,0 708,60 999,212 -11,-204 -47,-407 -151,-567z"/>
</svg>