<?xml version="1.0" encoding="UTF-8"?>
<!DOCTYPE svg PUBLIC "-//W3C//DTD SVG 1.1//EN" "http://www.w3.org/Graphics/SVG/1.1/DTD/svg11.dtd">
<svg xmlns="http://www.w3.org/2000/svg" xml:space="preserve" width="580px" height="580px" shape-rendering="geometricPrecision" text-rendering="geometricPrecision" image-rendering="optimizeQuality" fill-rule="nonzero" clip-rule="nonzero" viewBox="0 0 5800 5800" xmlns:xlink="http://www.w3.org/1999/xlink">
	<title>schoolbus icon</title>
	<desc>schoolbus icon from the IconExperience.com I-Collection. Copyright by INCORS GmbH (www.incors.com).</desc>
	<path id="curve0"  d="M5300 5083l0 317c0,55 -45,100 -100,100l-900 0c-55,0 -100,-45 -100,-100l0 -166 268 -134 732 0c35,0 69,-6 100,-17zm-3400 -183l202 0 8 -992c2,-335 272,-608 608,-608 115,0 284,-10 392,0 329,6 599,274 599,605l-7 995 198 0 0 -1100c0,-385 -315,-700 -700,-700l-600 0c-385,0 -700,315 -700,700l0 1100zm400 0l500 0 0 -1400 -82 0c-216,0 -417,188 -418,405l0 995zm700 0l500 0 0 -1000c0,-224 -168,-396 -392,-400 -33,2 -74,0 -108,0l0 1400zm-1223 200l-400 -200 -877 0c0,-1300 0,-2600 0,-3900 0,-496 404,-900 900,-900l3000 0c496,0 900,404 900,900l0 3900 -877 0 -400 200 -2246 0zm-177 134l0 166c0,55 -45,100 -100,100l-900 0c-55,0 -100,-45 -100,-100l0 -318c31,11 65,17 100,17l730 0 270 135zm-315 -4499l209 0c-5,-126 -43,-235 -299,-235 -191,0 -303,108 -300,302 2,70 41,125 111,160 48,24 113,38 189,38 46,0 80,6 100,16 -2,72 -32,84 -100,84 -24,0 -88,4 -96,-28l-202 0c15,164 135,228 298,228 191,0 303,-108 300,-302 -2,-95 -73,-152 -157,-178 -25,-8 -228,-28 -243,-36 1,-35 8,-55 20,-66 16,-13 44,-18 80,-18 53,0 78,14 90,35zm1315 2165l600 0c214,0 410,75 565,200l835 0c275,0 500,-225 500,-500l0 -800c0,-110 -90,-200 -200,-200l-4000 0c-111,0 -200,89 -200,200l0 800c0,275 225,500 500,500l835 0c155,-125 351,-200 565,-200zm-1900 1300c1,166 135,300 300,300l400 0c165,0 300,-135 300,-300 0,-165 -135,-300 -300,-300l-400 0c-164,0 -299,134 -300,300zm4400 0c0,-165 -135,-300 -300,-300l-400 0c-165,0 -300,135 -300,300 0,165 135,300 300,300l400 0c165,0 300,-135 300,-300zm-2600 -3700l-200 0 0 800 200 0 0 -300 200 0 0 300 200 0 0 -800 -200 0 0 300 -200 0 0 -300zm800 600c-61,0 -100,-38 -100,-100l0 -200c0,-61 39,-100 100,-100 62,0 100,38 100,100l0 200c0,62 -38,100 -100,100zm0 200c172,0 300,-128 300,-300l0 -200c0,-172 -128,-300 -300,-300 -172,0 -300,128 -300,300l0 200c0,172 128,300 300,300zm700 -200c-61,0 -100,-38 -100,-100l0 -200c0,-61 39,-100 100,-100 62,0 100,38 100,100l0 200c0,62 -38,100 -100,100zm0 200c172,0 300,-128 300,-300l0 -200c0,-172 -128,-300 -300,-300 -172,0 -300,128 -300,300l0 200c0,172 128,300 300,300zm600 -800l-200 0 0 800 600 0 0 -200 -400 0 0 -600zm-2600 300l200 0c0,-172 -128,-300 -300,-300 -172,0 -300,128 -300,300l0 200c0,172 128,300 300,300 172,0 300,-128 300,-300l-200 0c0,62 -38,100 -100,100 -61,0 -100,-38 -100,-100l0 -200c0,-61 39,-100 100,-100 62,0 100,38 100,100zm-705 202c0,3 0,6 0,8 0,-6 0,-15 0,-8z"/>
</svg>