<?xml version="1.0" encoding="UTF-8"?>
<!DOCTYPE svg PUBLIC "-//W3C//DTD SVG 1.1//EN" "http://www.w3.org/Graphics/SVG/1.1/DTD/svg11.dtd">
<svg xmlns="http://www.w3.org/2000/svg" xml:space="preserve" width="580px" height="580px" shape-rendering="geometricPrecision" text-rendering="geometricPrecision" image-rendering="optimizeQuality" fill-rule="nonzero" clip-rule="nonzero" viewBox="0 0 5800 5800" xmlns:xlink="http://www.w3.org/1999/xlink">
	<title>schoolbus2 icon</title>
	<desc>schoolbus2 icon from the IconExperience.com I-Collection. Copyright by INCORS GmbH (www.incors.com).</desc>
	<path id="curve0" d="M3500 3300l-700 0c-55,0 -100,-45 -100,-100l0 -900 200 0 0 800 600 0 0 200zm-2000 0l-700 0c-55,0 -100,-45 -100,-100l0 -900 200 0 0 800 600 0 0 200zm1000 0l-700 0c-55,0 -100,-45 -100,-100l0 -900 200 0 0 800 600 0 0 200zm2000 400l-400 0c-27,0 -52,-12 -70,-30l-301 -299c-19,-20 -29,-45 -29,-71l0 -1000 200 0 0 959 242 241 358 0 0 200zm-3800 900l-300 0c-165,0 -300,-135 -300,-300l0 -1900c0,-276 224,-500 500,-500l3600 0c165,0 300,135 300,300l0 85 277 830 531 118c231,51 392,251 392,488l0 579c0,165 -135,300 -300,300l-300 0 0 -200 300 0c55,0 100,-45 100,-100l0 -579c0,-143 -95,-262 -235,-293l-642 -143 -323 -970 0 -115c0,-55 -45,-100 -100,-100l-3600 0c-165,0 -300,135 -300,300l0 1900c0,55 45,100 100,100l300 0 0 200zm2800 0l-1200 0 0 -200 1200 0 0 200zm800 -700c331,0 600,269 600,600 0,331 -269,600 -600,600 -331,0 -600,-269 -600,-600 0,-331 269,-600 600,-600zm0 200c-221,0 -400,179 -400,400 0,221 179,400 400,400 221,0 400,-179 400,-400 0,-221 -179,-400 -400,-400zm-2800 -200c331,0 600,269 600,600 0,331 -269,600 -600,600 -331,0 -600,-269 -600,-600 0,-331 269,-600 600,-600zm0 200c-221,0 -400,179 -400,400 0,221 179,400 400,400 221,0 400,-179 400,-400 0,-221 -179,-400 -400,-400z"/>
</svg>