<?xml version="1.0" encoding="UTF-8"?>
<!DOCTYPE svg PUBLIC "-//W3C//DTD SVG 1.1//EN" "http://www.w3.org/Graphics/SVG/1.1/DTD/svg11.dtd">
<svg xmlns="http://www.w3.org/2000/svg" xml:space="preserve" width="580px" height="580px" shape-rendering="geometricPrecision" text-rendering="geometricPrecision" image-rendering="optimizeQuality" fill-rule="nonzero" clip-rule="nonzero" viewBox="0 0 5800 5800" xmlns:xlink="http://www.w3.org/1999/xlink">
	<title>schoolbus2 icon</title>
	<desc>schoolbus2 icon from the IconExperience.com I-Collection. Copyright by INCORS GmbH (www.incors.com).</desc>
	<path id="curve0"  d="M4300 3900c331,0 600,269 600,600 0,331 -269,600 -600,600 -331,0 -600,-269 -600,-600 0,-331 269,-600 600,-600zm200 -600c0,-10 -2,-21 -5,-31l-298 -891c-10,-45 -49,-78 -97,-78l-300 0c-55,0 -100,45 -100,100l0 900c0,26 10,51 29,71l199 199c18,18 44,30 72,30l400 0c55,0 100,-45 100,-100l0 -200zm-2100 0c55,0 100,-45 100,-100l0 -800c0,-55 -45,-100 -100,-100l-600 0c-55,0 -100,45 -100,100l0 800c0,55 45,100 100,100l600 0zm1000 0c55,0 100,-45 100,-100l0 -800c0,-55 -45,-100 -100,-100l-600 0c-55,0 -100,45 -100,100 0,267 0,533 0,800 0,55 45,100 100,100l600 0zm-2600 -1000c-55,0 -100,45 -100,100l0 800c0,55 45,100 100,100l600 0c55,0 100,-45 100,-100 0,-267 0,-533 0,-800 0,-55 -45,-100 -100,-100l-600 0zm-400 2300c-165,0 -300,-135 -300,-300l0 -1900c0,-276 224,-500 500,-500l3600 0c165,0 300,135 300,300l0 85 277 830 531 118c231,51 392,251 392,488l0 579c0,165 -135,300 -300,300l-306 0c4,-33 6,-66 6,-100 0,-442 -358,-800 -800,-800 -442,0 -800,358 -800,800 0,34 2,67 6,100l-1212 0c4,-33 6,-66 6,-100 0,-442 -358,-800 -800,-800 -442,0 -800,358 -800,800 0,34 2,67 6,100l-306 0zm1100 -700c331,0 600,269 600,600 0,331 -269,600 -600,600 -331,0 -600,-269 -600,-600 0,-331 269,-600 600,-600z"/>
</svg>