<?xml version="1.0" encoding="UTF-8"?>
<!DOCTYPE svg PUBLIC "-//W3C//DTD SVG 1.1//EN" "http://www.w3.org/Graphics/SVG/1.1/DTD/svg11.dtd">
<svg xmlns="http://www.w3.org/2000/svg" xml:space="preserve" width="580px" height="580px" shape-rendering="geometricPrecision" text-rendering="geometricPrecision" image-rendering="optimizeQuality" fill-rule="nonzero" clip-rule="nonzero" viewBox="0 0 5800 5800" xmlns:xlink="http://www.w3.org/1999/xlink">
	<title>schoolbus icon</title>
	<desc>schoolbus icon from the IconExperience.com I-Collection. Copyright by INCORS GmbH (www.incors.com).</desc>
	<path id="curve0"  d="M1285 735c-12,-21 -37,-35 -90,-35 -36,0 -64,5 -80,18 -12,11 -19,31 -20,66 15,8 218,28 243,36 84,26 155,83 157,178 3,194 -109,302 -300,302 -163,0 -283,-64 -298,-228l202 0c8,32 72,28 96,28 68,0 98,-12 100,-84 -20,-10 -54,-16 -100,-16 -76,0 -141,-14 -189,-38 -70,-35 -109,-90 -111,-160 -3,-194 109,-302 300,-302 256,0 294,109 299,235l-209 0zm-385 665l4000 0c73,0 141,20 200,54l0 -454c0,-385 -315,-700 -700,-700l-3000 0c-385,0 -700,315 -700,700l0 454c59,-34 127,-54 200,-54zm1700 1500l600 0c214,0 410,75 565,200l835 0c275,0 500,-225 500,-500l0 -800c0,-110 -90,-200 -200,-200l-4000 0c-111,0 -200,89 -200,200l0 800c0,275 225,500 500,500l835 0c155,-125 351,-200 565,-200zm1348 400c96,143 152,315 152,500l0 1039 277 -139 723 0 0 -1611c-133,135 -310,211 -500,211l-652 0zm75 1800c-749,0 -1497,0 -2246,0 -133,-67 -266,-133 -400,-200l-877 0c0,-1300 0,-2600 0,-3900 0,-496 404,-900 900,-900l3000 0c496,0 900,404 900,900l0 3900 -877 0c-134,67 -267,133 -400,200zm-2323 -261l0 -1039c0,-185 56,-357 152,-500l-652 0c-190,0 -366,-76 -500,-211l0 1109c1,-164 136,-298 300,-298l400 0c165,0 300,135 300,300 0,165 -135,300 -300,300l-400 0c-165,0 -299,-134 -300,-298l0 498 723 0 277 139zm3600 244l0 317c0,55 -45,100 -100,100l-900 0c-55,0 -100,-45 -100,-100l0 -166 200 -100 0 166 700 0 0 -200 100 0c35,0 69,-6 100,-17zm-3700 151l0 166c0,55 -45,100 -100,100l-900 0c-55,0 -100,-45 -100,-100l0 -318c31,11 65,17 100,17l100 0 0 201 700 0 0 -166 200 100zm-100 -1034c0,-55 -45,-100 -100,-100l-400 0c-55,0 -100,45 -100,100 0,55 45,100 100,100l400 0c55,0 100,-45 100,-100zm3600 0c0,165 -135,300 -300,300l-400 0c-165,0 -300,-135 -300,-300 0,-165 135,-300 300,-300l400 0c165,0 300,135 300,300zm-200 0c0,-55 -45,-100 -100,-100l-400 0c-55,0 -100,45 -100,100 0,55 45,100 100,100l400 0c55,0 100,-45 100,-100zm-1700 -1100l-600 0c-385,0 -700,315 -700,700l0 1100 201 0 9 -992c2,-335 272,-608 608,-608 115,0 284,-10 392,0 329,6 599,274 599,605l-9 995 200 0 0 -1100c0,-385 -315,-700 -700,-700zm-200 400l0 1400 501 0 -1 -1000c0,-224 -168,-396 -392,-400 -33,2 -74,0 -108,0zm-200 0l-82 0c-216,0 -417,188 -418,405l0 995 500 0 0 -1400zm-300 -3000l0 300 200 0 0 -300 200 0 0 800 -200 0 0 -300 -200 0 0 300 -200 0 0 -800 200 0zm800 600c62,0 100,-38 100,-100l0 -200c0,-62 -38,-100 -100,-100 -61,0 -100,39 -100,100l0 200c0,62 39,100 100,100zm0 200c-172,0 -300,-128 -300,-300l0 -200c0,-172 128,-300 300,-300 172,0 300,128 300,300l0 200c0,172 -128,300 -300,300zm700 -200c62,0 100,-38 100,-100l0 -200c0,-62 -38,-100 -100,-100 -61,0 -100,39 -100,100l0 200c0,62 39,100 100,100zm0 200c-172,0 -300,-128 -300,-300l0 -200c0,-172 128,-300 300,-300 172,0 300,128 300,300l0 200c0,172 -128,300 -300,300zm600 -800l0 600 400 0 0 200 -600 0 0 -800 200 0zm-2600 300c0,-62 -38,-100 -100,-100 -61,0 -100,39 -100,100l0 200c0,62 39,100 100,100 62,0 100,-38 100,-100l200 0c0,172 -128,300 -300,300 -172,0 -300,-128 -300,-300l0 -200c0,-172 128,-300 300,-300 172,0 300,128 300,300l-200 0zm-705 202c0,-7 0,2 0,8 0,-2 0,-5 0,-8z"/>
</svg>