<?xml version="1.0" encoding="UTF-8"?>
<!DOCTYPE svg PUBLIC "-//W3C//DTD SVG 1.1//EN" "http://www.w3.org/Graphics/SVG/1.1/DTD/svg11.dtd">
<svg xmlns="http://www.w3.org/2000/svg" xml:space="preserve" width="580px" height="580px" shape-rendering="geometricPrecision" text-rendering="geometricPrecision" image-rendering="optimizeQuality" fill-rule="nonzero" clip-rule="nonzero" viewBox="0 0 5800 5800" xmlns:xlink="http://www.w3.org/1999/xlink">
	<title>scientist icon</title>
	<desc>scientist icon from the IconExperience.com I-Collection. Copyright by INCORS GmbH (www.incors.com).</desc>
		<path id="curve28"  d="M3202 5293c357,-15 804,-57 1143,-145 264,-68 455,-157 455,-268 0,-134 -26,-273 -78,-402 -47,-120 -117,-231 -208,-319 -95,-92 -361,-178 -508,-222 -49,-14 -95,-28 -141,-45 -7,172 -131,347 -274,549 -168,236 -366,514 -389,852zm-1062 -3593l0 0 0 0 60 300 0 0c34,0 400,0 400,0l100 -249 0 -51 -560 0zm60 300c0,0 0,1 0,1l0 -1 0 0 0 0 0 0 0 0zm-60 -300c0,0 -1,0 0,0l0 0c0,0 0,0 0,0 0,0 -1,0 0,0 0,-1 0,0 0,0zm0 -200l580 0c34,0 65,8 94,23 33,18 60,45 79,77l14 0c3,-4 5,-8 8,-12 19,-28 43,-50 71,-65 29,-15 60,-23 94,-23l580 0c72,0 136,38 173,100l186 0c9,-126 1,-241 -22,-346 -105,-486 -491,-717 -967,-749 -269,-18 -529,36 -659,166 -18,17 -40,27 -62,29 -29,4 -56,9 -81,15 -217,54 -342,184 -405,350 -58,155 -67,343 -47,535l191 0c5,-9 12,-18 19,-27 38,-47 93,-73 154,-73zm755 300l-110 274c-30,77 -102,126 -185,126l-400 0c-95,0 -177,-68 -196,-161l-48 -239 -151 0c9,48 20,96 31,142 5,19 4,39 -2,56 -22,78 -18,166 11,243 25,67 71,125 136,157 27,14 45,37 52,64l19 72c48,183 99,377 218,495 20,19 30,45 30,71 0,0 3,103 3,112 4,98 8,193 -3,290 4,31 94,69 204,115 131,54 280,116 396,228 116,-112 265,-174 396,-228 109,-46 199,-83 204,-114 -10,-88 -6,-177 -2,-265 2,-49 3,-97 2,-136 0,-28 11,-54 30,-73 121,-119 170,-309 216,-488 9,-36 18,-71 21,-79 8,-30 29,-53 56,-65 63,-33 108,-90 133,-156 29,-78 32,-168 9,-247 -5,-18 -5,-35 -1,-52 0,0 28,-130 30,-142l-150 0 -48 239c-19,94 -101,161 -196,161l-400 0c-41,0 -79,-12 -112,-34 -33,-22 -58,-54 -73,-92l-110 -274 -10 0zm765 -100l-560 0 0 51 100 249c0,0 366,0 400,0l0 0 60 -300 0 0 0 0zm-60 300c0,0 0,1 0,1l0 -1 0 0 0 0 0 0 0 0zm60 -300c0,0 1,0 0,0l0 0c0,0 0,0 0,0 0,0 1,0 0,0 0,-1 0,0 0,0zm-1556 1520c-1,-28 -3,-56 -3,-80 -137,-154 -191,-360 -242,-556 -1,-6 -3,-14 -8,-30 -92,-58 -156,-145 -193,-243 -41,-109 -48,-234 -22,-346 -19,-81 -35,-165 -47,-249 -36,-250 -33,-507 48,-721 85,-226 252,-402 543,-473 24,-6 49,-11 74,-16 177,-155 482,-221 789,-200 567,38 1026,332 1150,906 47,217 39,465 -29,753 27,113 20,237 -22,346 -37,98 -101,185 -193,243 -5,17 -7,27 -10,37 -49,191 -102,394 -239,548 0,35 -2,70 -3,107 -3,79 -7,164 2,238 5,32 7,62 20,93 8,20 16,27 34,38 115,72 205,99 310,131 69,21 136,43 204,67 126,46 283,104 386,203 111,108 196,243 254,389 62,153 93,318 93,475 0,225 -254,370 -605,461 -465,121 -1113,159 -1495,159 -382,0 -1030,-38 -1495,-159 -351,-91 -605,-236 -605,-461 0,-157 31,-322 93,-476 58,-145 143,-280 254,-388 103,-99 260,-157 386,-203 68,-25 135,-46 204,-67 104,-32 193,-58 307,-129 19,-13 27,-17 36,-40 33,-75 27,-273 24,-357zm1461 490c-54,33 -121,61 -193,91 -59,25 -123,51 -184,84l123 163 294 -294c-16,-14 -29,-28 -40,-44zm-953 175c-61,-33 -125,-59 -184,-84 -72,-30 -139,-58 -194,-91 -10,14 -21,28 -35,40l291 297 122 -162zm1010 134l-46 46 -287 287 -185 -248c-40,37 -80,72 -104,96 85,170 134,358 162,541 79,-153 177,-290 266,-416 80,-112 153,-214 194,-306zm-1449 -11c41,95 116,200 199,317 89,126 187,263 266,416 28,-183 77,-371 162,-541l-100 -100 -190 253 -260 -266 -77 -79zm425 1285c-23,-338 -221,-616 -389,-852 -143,-202 -267,-377 -274,-549 -110,40 -223,68 -334,109 -108,39 -243,88 -315,158 -91,88 -160,199 -208,319 -52,129 -78,269 -78,402 0,111 191,200 455,268 339,88 786,130 1143,145z"/>
</svg>