<?xml version="1.0" encoding="UTF-8"?>
<!DOCTYPE svg PUBLIC "-//W3C//DTD SVG 1.1//EN" "http://www.w3.org/Graphics/SVG/1.1/DTD/svg11.dtd">
<svg xmlns="http://www.w3.org/2000/svg" xml:space="preserve" width="580px" height="580px" shape-rendering="geometricPrecision" text-rendering="geometricPrecision" image-rendering="optimizeQuality" fill-rule="nonzero" clip-rule="nonzero" viewBox="0 0 5800 5800" xmlns:xlink="http://www.w3.org/1999/xlink">
	<title>scientist icon</title>
	<desc>scientist icon from the IconExperience.com I-Collection. Copyright by INCORS GmbH (www.incors.com).</desc>
		<path id="curve28"  d="M3202 5293c357,-15 804,-57 1143,-145 264,-68 455,-157 455,-268 0,-134 -26,-273 -78,-402 -47,-120 -117,-231 -208,-319 -72,-70 -207,-119 -315,-158 -111,-40 -224,-69 -334,-109 -7,172 -131,347 -274,549 -168,236 -366,514 -389,852zm458 -3593l-60 300c0,0 -400,0 -400,0l-100 -249 0 -51 560 0zm-1520 0l560 0 0 51 -100 249c0,0 -400,0 -400,0l-60 -300zm753 -100c-37,-63 -100,-100 -173,-100l-580 0c-61,0 -116,26 -154,73 -7,9 -14,18 -19,27 -50,0 -96,2 -144,3l12 198c39,-1 77,-1 121,-1l48 239c19,94 101,161 196,161l400 0c82,0 155,-50 185,-126l110 -274 10 0 110 274c30,76 103,126 185,126l400 0c95,0 177,-67 196,-161l48 -239c44,0 82,0 121,1l12 -198c-48,-1 -94,-3 -144,-3 -5,-9 -12,-18 -19,-27 -38,-47 -93,-73 -154,-73l-580 0c-73,0 -136,37 -173,100l-14 0zm729 2419l-333 333 -185 -248c-40,37 -80,72 -104,96 85,170 134,358 162,541 79,-153 177,-290 266,-416 80,-112 153,-214 194,-306zm-1449 -11c41,95 116,200 199,317 89,126 187,263 266,416 28,-183 77,-371 162,-541l-100 -100 -190 253 -337 -345zm425 1285c-23,-338 -221,-616 -389,-852 -143,-202 -267,-377 -274,-549 -110,40 -223,68 -334,109 -108,39 -243,88 -315,158 -91,88 -160,199 -208,319 -52,129 -78,269 -78,402 0,111 191,200 455,268 339,88 786,130 1143,145zm1007 -1539c-16,-14 -29,-28 -40,-44 -115,70 -256,110 -377,175l123 163 294 -294zm-1406 -4l291 297 122 -162c-122,-65 -263,-105 -378,-175 -10,14 -21,28 -35,40zm2196 1591c-465,121 -1113,159 -1495,159 -382,0 -1030,-38 -1495,-159 -351,-91 -605,-236 -605,-461 0,-157 31,-322 93,-476 58,-145 143,-280 254,-388 103,-99 260,-157 386,-203 174,-64 351,-97 511,-196 89,-60 64,-302 60,-397 -1,-28 -3,-56 -3,-80 -137,-154 -191,-360 -242,-556 -1,-6 -3,-14 -8,-30 -193,-122 -266,-374 -215,-589 -19,-81 -35,-165 -47,-249 -36,-250 -33,-507 48,-721 85,-226 252,-402 543,-473 24,-6 49,-11 74,-16 177,-155 482,-221 789,-200 567,38 1026,332 1150,906 47,217 39,465 -29,753 51,216 -21,467 -215,589 -5,17 -7,27 -10,37 -49,191 -102,394 -239,548 0,35 -2,70 -3,107 -4,84 -25,319 56,369 115,72 205,99 310,131 182,54 458,142 590,270 111,108 196,243 254,389 62,153 93,318 93,475 0,225 -254,370 -605,461z"/>
</svg>