<?xml version="1.0" encoding="UTF-8"?>
<!DOCTYPE svg PUBLIC "-//W3C//DTD SVG 1.1//EN" "http://www.w3.org/Graphics/SVG/1.1/DTD/svg11.dtd">
<svg xmlns="http://www.w3.org/2000/svg" xml:space="preserve" width="580px" height="580px" shape-rendering="geometricPrecision" text-rendering="geometricPrecision" image-rendering="optimizeQuality" fill-rule="nonzero" clip-rule="nonzero" viewBox="0 0 5800 5800" xmlns:xlink="http://www.w3.org/1999/xlink">
	<title>scooter icon</title>
	<desc>scooter icon from the IconExperience.com I-Collection. Copyright by INCORS GmbH (www.incors.com).</desc>
	<path id="curve0"  d="M3900 1100c-55,0 -100,-45 -100,-100 0,-55 45,-100 100,-100l300 0c52,0 95,39 100,90l518 3110c269,10 482,231 482,500 0,276 -224,500 -500,500 -276,0 -500,-224 -500,-500 0,-208 128,-393 321,-467l-52 -314 -408 582c-135,193 -338,299 -573,299l-1788 0c-55,0 -100,-45 -100,-100 0,-387 -313,-700 -700,-700 -211,0 -408,93 -542,256 -35,43 -98,49 -140,14 -43,-35 -49,-98 -14,-140 172,-209 426,-330 696,-330 458,0 844,345 895,800l1693 0c168,0 313,-75 410,-213l524 -747c1,-1 -372,-2232 -406,-2440l-216 0zm952 3204l46 280c9,54 -27,105 -82,114 -54,9 -105,-27 -114,-82l-47 -279c-95,53 -155,153 -155,263 0,166 134,300 300,300 166,0 300,-134 300,-300 0,-146 -105,-271 -248,-296zm-3852 -204c276,0 500,224 500,500 0,276 -224,500 -500,500 -276,0 -500,-224 -500,-500 0,-276 224,-500 500,-500zm0 200c-166,0 -300,134 -300,300 0,166 134,300 300,300 166,0 300,-134 300,-300 0,-166 -134,-300 -300,-300z"/>
</svg>