<?xml version="1.0" encoding="UTF-8"?>
<!DOCTYPE svg PUBLIC "-//W3C//DTD SVG 1.1//EN" "http://www.w3.org/Graphics/SVG/1.1/DTD/svg11.dtd">
<svg xmlns="http://www.w3.org/2000/svg" xml:space="preserve" width="580px" height="580px" shape-rendering="geometricPrecision" text-rendering="geometricPrecision" image-rendering="optimizeQuality" fill-rule="nonzero" clip-rule="nonzero" viewBox="0 0 5800 5800" xmlns:xlink="http://www.w3.org/1999/xlink">
	<title>scooter icon</title>
	<desc>scooter icon from the IconExperience.com I-Collection. Copyright by INCORS GmbH (www.incors.com).</desc>
	<path id="curve0"  d="M4522 3538l-406 -2438 -216 0c-55,0 -100,-45 -100,-100 0,-55 45,-100 100,-100l300 0c52,0 95,39 100,90l485 2910c-69,2 -135,13 -197,33l-19 -114 -408 582c-135,193 -338,299 -573,299l-1788 0c-55,0 -100,-45 -100,-100 0,-387 -313,-700 -700,-700 -211,0 -408,93 -542,256 -35,43 -98,49 -140,14 -43,-35 -49,-98 -14,-140 172,-209 426,-330 696,-330 458,0 844,345 895,800l1693 0c168,0 313,-75 410,-213l524 -749zm278 562c276,0 500,224 500,500 0,276 -224,500 -500,500 -276,0 -500,-224 -500,-500 0,-276 224,-500 500,-500zm-3800 0c276,0 500,224 500,500 0,276 -224,500 -500,500 -276,0 -500,-224 -500,-500 0,-276 224,-500 500,-500z"/>
</svg>