<?xml version="1.0" encoding="UTF-8"?>
<!DOCTYPE svg PUBLIC "-//W3C//DTD SVG 1.1//EN" "http://www.w3.org/Graphics/SVG/1.1/DTD/svg11.dtd">
<svg xmlns="http://www.w3.org/2000/svg" xml:space="preserve" width="580px" height="580px" shape-rendering="geometricPrecision" text-rendering="geometricPrecision" image-rendering="optimizeQuality" fill-rule="nonzero" clip-rule="nonzero" viewBox="0 0 5800 5800" xmlns:xlink="http://www.w3.org/1999/xlink">
	<title>score_board icon</title>
	<desc>score_board icon from the IconExperience.com I-Collection. Copyright by INCORS GmbH (www.incors.com).</desc>
	<path id="curve0"  d="M5700 900l0 4000 -5600 0 0 -4000 5600 0zm-2200 800l0 200 1400 0 0 -200 -1400 0zm-2600 0l0 200 1400 0 0 -200 -1400 0zm1900 1800l0 200 200 0 0 -200 -200 0zm0 -600l0 200 200 0 0 -200 -200 0zm2100 500l0 500 -600 0 0 200 800 0 0 -1600 -800 0 0 900 600 0zm-400 -200l0 -500 400 0 0 500 -400 0zm-400 -700l-200 0 0 700 -400 0 0 -700 -200 0 0 900 600 0 0 700 200 0 0 -1600zm-2400 0l0 200 600 0 0 1400 200 0 0 -1600 -800 0zm-800 700l0 -500 600 0 0 -200 -800 0 0 1600 800 0 0 -900 -600 0zm400 200l0 500 -400 0 0 -500 400 0z"/>
</svg>