<?xml version="1.0" encoding="UTF-8"?>
<!DOCTYPE svg PUBLIC "-//W3C//DTD SVG 1.1//EN" "http://www.w3.org/Graphics/SVG/1.1/DTD/svg11.dtd">
<svg xmlns="http://www.w3.org/2000/svg" xml:space="preserve" width="580px" height="580px" shape-rendering="geometricPrecision" text-rendering="geometricPrecision" image-rendering="optimizeQuality" fill-rule="nonzero" clip-rule="nonzero" viewBox="0 0 5800 5800" xmlns:xlink="http://www.w3.org/1999/xlink">
	<title>score_board icon</title>
	<desc>score_board icon from the IconExperience.com I-Collection. Copyright by INCORS GmbH (www.incors.com).</desc>
	<path id="curve0" d="M3500 1700l1400 0 0 200 -1400 0 0 -200zm2200 -800l0 4000 -5600 0 0 -4000 5600 0zm-200 200l-5200 0 0 3600 5200 0 0 -3600zm-4600 2100l600 0 0 900 -800 0 0 -1600 800 0 0 200 -600 0 0 500zm400 200l-400 0 0 500 400 0 0 -500zm400 -900l800 0 0 1600 -200 0 0 -1400 -600 0 0 -200zm2400 0l0 1600 -200 0 0 -700 -600 0 0 -900 200 0 0 700 400 0 0 -700 200 0zm800 900l-600 0 0 -900 800 0 0 1600 -800 0 0 -200 600 0 0 -500zm-400 -200l400 0 0 -500 -400 0 0 500zm-1700 -300l200 0 0 200 -200 0 0 -200zm0 600l200 0 0 200 -200 0 0 -200zm-1900 -1800l1400 0 0 200 -1400 0 0 -200z"/>
</svg>