<?xml version="1.0" encoding="UTF-8"?>
<!DOCTYPE svg PUBLIC "-//W3C//DTD SVG 1.1//EN" "http://www.w3.org/Graphics/SVG/1.1/DTD/svg11.dtd">
<svg xmlns="http://www.w3.org/2000/svg" xml:space="preserve" width="580px" height="580px" shape-rendering="geometricPrecision" text-rendering="geometricPrecision" image-rendering="optimizeQuality" fill-rule="nonzero" clip-rule="nonzero" viewBox="0 0 5800 5800" xmlns:xlink="http://www.w3.org/1999/xlink">
	<title>screwdriver icon</title>
	<desc>screwdriver icon from the IconExperience.com I-Collection. Copyright by INCORS GmbH (www.incors.com).</desc>
		<path id="curve28" d="M3029 2929l1723 -1722 242 -42 271 -514 -108 -108 -507 276 -40 246 -1722 1723 -142 -142 1678 -1677 45 -278 724 -394 317 316 -385 732 -277 48 -1677 1678 -142 -142zm-1151 94c25,-26 35,-62 26,-97l-15 -56 411 -411 1041 1041 -370 371 -41 40 -56 -15c-35,-9 -71,1 -97,27 -25,25 -35,61 -26,96l15 56 -40 41 -1155 1155c-300,300 -653,134 -911,-124 -408,-408 -324,-725 -131,-918l1196 -1195 55 15c35,9 72,-1 98,-26zm141 141c-61,60 -143,92 -229,87l-1119 1120c-124,123 -168,336 131,635 173,173 414,336 627,123l1120 -1119c-5,-85 27,-168 87,-229 60,-60 144,-92 229,-87l194 -194 -759 -759 -194 194c5,85 -27,169 -87,229z"/>
</svg>