<?xml version="1.0" encoding="UTF-8"?>
<!DOCTYPE svg PUBLIC "-//W3C//DTD SVG 1.1//EN" "http://www.w3.org/Graphics/SVG/1.1/DTD/svg11.dtd">
<svg xmlns="http://www.w3.org/2000/svg" xml:space="preserve" width="580px" height="580px" shape-rendering="geometricPrecision" text-rendering="geometricPrecision" image-rendering="optimizeQuality" fill-rule="nonzero" clip-rule="nonzero" viewBox="0 0 5800 5800" xmlns:xlink="http://www.w3.org/1999/xlink">
	<title>scroll_bar_horizontal icon</title>
	<desc>scroll_bar_horizontal icon from the IconExperience.com I-Collection. Copyright by INCORS GmbH (www.incors.com).</desc>
		<path id="curve28"  d="M5500 2300l0 1200 -5200 0 0 -1200 5200 0zm-823 782l182 -182 -182 -182 141 -141 323 323 -323 323 -141 -141zm-3695 141l-323 -323 323 -323 141 141 -182 182 182 182 -141 141zm418 -523l3000 0 0 400 -3000 0 0 -400zm3900 -200l-4800 0 0 800 4800 0 0 -800z"/>
</svg>