<?xml version="1.0" encoding="UTF-8"?>
<!DOCTYPE svg PUBLIC "-//W3C//DTD SVG 1.1//EN" "http://www.w3.org/Graphics/SVG/1.1/DTD/svg11.dtd">
<svg xmlns="http://www.w3.org/2000/svg" xml:space="preserve" width="580px" height="580px" shape-rendering="geometricPrecision" text-rendering="geometricPrecision" image-rendering="optimizeQuality" fill-rule="nonzero" clip-rule="nonzero" viewBox="0 0 5800 5800" xmlns:xlink="http://www.w3.org/1999/xlink">
	<title>scroll_bar_vertical icon</title>
	<desc>scroll_bar_vertical icon from the IconExperience.com I-Collection. Copyright by INCORS GmbH (www.incors.com).</desc>
		<path id="curve28" d="M2700 4400l0 -3000 400 0 0 3000 -400 0zm-400 -4100l1200 0 0 5200 -1200 0 0 -5200zm200 200l0 4800 800 0 0 -4800 -800 0zm723 4318l-323 323 -323 -323 141 -141 182 182 182 -182 141 141zm-141 -3695l-182 -182 -182 182 -141 -141 323 -323 323 323 -141 141z"/>
</svg>