<?xml version="1.0" encoding="UTF-8"?>
<!DOCTYPE svg PUBLIC "-//W3C//DTD SVG 1.1//EN" "http://www.w3.org/Graphics/SVG/1.1/DTD/svg11.dtd">
<svg xmlns="http://www.w3.org/2000/svg" xml:space="preserve" width="580px" height="580px" shape-rendering="geometricPrecision" text-rendering="geometricPrecision" image-rendering="optimizeQuality" fill-rule="nonzero" clip-rule="nonzero" viewBox="0 0 5800 5800" xmlns:xlink="http://www.w3.org/1999/xlink">
	<title>scroll2 icon</title>
	<desc>scroll2 icon from the IconExperience.com I-Collection. Copyright by INCORS GmbH (www.incors.com).</desc>
		<path id="curve28"  d="M2600 2500c218,0 400,175 400,394 0,220 -182,394 -400,394 -218,0 -400,-174 -400,-394 0,-219 182,-394 400,-394zm843 -199l1324 1c-40,41 -75,86 -106,135 -114,178 -170,410 -142,648 18,160 83,302 177,409l3 3 -1261 -1c-6,8 -12,16 -18,24 25,46 49,94 73,142 6,11 11,23 17,34l1481 1c23,9 195,0 195,-1 165,-19 305,-116 397,-255 89,-134 133,-310 112,-494 -28,-241 -224,-467 -481,-437 -121,14 -224,85 -290,185 -62,95 -94,218 -80,347 6,72 42,148 95,197 55,53 125,78 201,70 158,-19 246,-176 229,-323 -7,-55 -56,-95 -111,-88 -55,6 -94,55 -88,110 4,30 -3,57 -15,77l-1 -1c-9,15 -22,25 -36,27 -16,1 -31,-6 -42,-17 -20,-19 -30,-44 -33,-70 -9,-76 5,-155 47,-219 34,-51 85,-89 146,-96 145,-17 245,131 260,260 14,126 -9,256 -79,363 -61,91 -150,154 -254,166 -108,12 -208,-29 -286,-103 -92,-87 -145,-208 -160,-333 -22,-192 22,-378 112,-518 84,-133 209,-225 356,-242 55,-6 94,-56 88,-110 -6,-54 -53,-92 -106,-89l-1963 -1c100,41 184,104 239,199zm-1467 -200l-1235 -1c-182,0 -345,93 -462,243 -110,143 -179,339 -179,554 0,215 69,411 179,554 117,150 280,243 462,243l935 0c33,-69 67,-137 99,-199l-1034 -1c-117,0 -225,-63 -304,-165 -85,-109 -137,-262 -137,-432 0,-170 52,-323 137,-432 79,-102 187,-165 304,-165l1088 0c18,-30 37,-60 57,-89 27,-39 57,-76 90,-110zm185 1517c-46,86 -101,193 -149,299 -13,29 -26,57 -38,85 59,-15 116,-25 177,-18 52,5 102,22 163,62 11,8 23,16 36,26 5,-87 10,-181 14,-267 3,-42 5,-83 6,-117 -34,-3 -69,-10 -102,-21 -41,-14 -76,-30 -107,-49zm581 12c15,87 34,198 56,311 7,38 14,76 22,112 7,-7 13,-13 20,-19 51,-47 96,-74 141,-89 71,-24 127,-16 213,16 -19,-40 -38,-80 -58,-121 -51,-100 -103,-198 -147,-273 -43,12 -95,24 -147,37 -33,8 -67,16 -100,26zm430 -146c45,78 95,172 142,267 64,128 124,260 165,361l88 219c-108,-44 -216,-88 -323,-134 -120,-51 -171,-73 -200,-63 -18,7 -40,20 -69,47 -92,85 -182,225 -258,330l-49 -213c-21,-88 -44,-203 -66,-321 -13,-66 -25,-134 -37,-198l-1 35c-8,161 -18,349 -35,481l-26 206c-86,-89 -201,-223 -300,-289 -29,-20 -52,-28 -73,-30 -24,-2 -50,0 -89,9 -126,30 -262,83 -386,126l58 -187c26,-86 69,-190 117,-295 60,-131 128,-264 182,-359l13 7c-45,-66 -75,-141 -106,-224 -11,-28 -33,-57 -55,-86 -1,1 -31,-39 -33,-43 -40,-56 -64,-120 -71,-186 -7,-66 3,-133 32,-197 20,-46 48,-79 76,-113 20,-24 41,-48 52,-73 35,-75 76,-159 130,-235 58,-83 129,-155 221,-197 145,-65 283,-11 411,40 11,4 84,33 91,33 27,8 67,15 111,23 135,25 299,54 374,157 27,37 42,86 52,134 8,42 11,82 14,113 0,6 2,25 3,45 3,49 7,102 17,142 25,94 38,206 26,313 -10,94 -41,184 -99,258 -33,41 -65,72 -99,97zm-1070 -840c-23,50 -53,85 -81,118 -19,23 -38,45 -47,66 -14,32 -19,64 -16,95 4,32 16,64 36,92 5,7 16,22 27,36 0,10 75,112 85,138 28,74 54,141 89,190 31,44 72,78 135,99 29,10 61,14 93,14 34,0 70,-5 106,-11 38,-8 75,-19 112,-30 29,-8 57,-17 80,-23l74 -18c44,-10 88,-21 139,-36 43,-12 77,-24 104,-41 26,-16 50,-37 76,-70 34,-42 51,-97 58,-156 9,-81 -2,-168 -21,-241 -15,-60 -19,-121 -23,-179 -1,-10 -2,-19 -3,-41 -3,-27 -6,-62 -11,-92 -5,-24 -11,-45 -18,-55 -28,-38 -148,-60 -247,-78 -51,-9 -98,-17 -135,-28 0,0 -96,-35 -105,-39 -90,-35 -188,-73 -256,-43 -54,25 -101,73 -140,130 -44,63 -81,137 -111,203zm498 56c-108,0 -200,84 -200,194 0,110 92,194 200,194 108,0 200,-84 200,-194 0,-110 -92,-194 -200,-194z"/>
</svg>