<?xml version="1.0" encoding="UTF-8"?>
<!DOCTYPE svg PUBLIC "-//W3C//DTD SVG 1.1//EN" "http://www.w3.org/Graphics/SVG/1.1/DTD/svg11.dtd">
<svg xmlns="http://www.w3.org/2000/svg" xml:space="preserve" width="580px" height="580px" shape-rendering="geometricPrecision" text-rendering="geometricPrecision" image-rendering="optimizeQuality" fill-rule="nonzero" clip-rule="nonzero" viewBox="0 0 5800 5800" xmlns:xlink="http://www.w3.org/1999/xlink">
	<title>scroll2 icon</title>
	<desc>scroll2 icon from the IconExperience.com I-Collection. Copyright by INCORS GmbH (www.incors.com).</desc>
		<path id="curve28"  d="M741 3694c-410,0 -641,-430 -641,-797 0,-367 231,-797 641,-797l1235 1c-33,34 -63,71 -90,110 -62,89 -108,183 -147,266 0,1 -12,15 -24,29 -38,45 -74,88 -106,161 -43,96 -58,197 -48,297 11,100 47,197 108,282 72,101 69,113 120,223 -36,68 -76,146 -113,226l-935 -1zm2463 -1592l1963 1c53,-3 100,35 106,89 6,54 -33,104 -88,110 -147,17 -272,109 -356,242 -155,241 -177,640 48,851 172,162 410,134 540,-63 100,-152 129,-425 -17,-563 -100,-94 -234,-78 -310,36 -40,62 -83,224 -14,289 61,57 101,-32 94,-86 -6,-55 33,-104 88,-110 55,-7 104,33 111,88 16,138 -61,287 -204,319 -77,17 -160,-4 -226,-66 -145,-136 -114,-393 -15,-544 144,-218 422,-251 612,-72 220,207 203,582 47,818 -92,139 -232,236 -397,255 -24,7 -93,4 -119,1l-1557 -1c-6,-11 -11,-23 -17,-34 -24,-48 -48,-96 -73,-142l7 -9c84,-106 127,-232 142,-359 15,-133 -2,-271 -32,-386 -11,-43 -10,-107 -14,-153 -3,-35 -7,-80 -17,-134 -15,-74 -40,-150 -87,-214 -57,-79 -133,-129 -215,-163zm-1336 532c20,-24 41,-48 52,-73 35,-75 76,-159 130,-235 58,-83 129,-155 221,-197 145,-65 283,-11 411,40 83,32 112,40 202,56 135,25 299,54 374,157 48,67 59,166 66,247 5,61 5,129 20,187 25,94 38,206 26,313 -10,94 -41,184 -99,258 -81,102 -159,144 -282,179 -72,21 -146,38 -219,56 -68,18 -134,41 -204,55 -98,19 -202,22 -298,-10 -110,-37 -181,-96 -235,-172 -50,-70 -81,-149 -114,-236 -15,-40 -61,-90 -88,-129 -40,-56 -64,-120 -71,-186 -13,-127 30,-216 108,-310zm732 -134c-218,0 -400,175 -400,394 0,220 182,394 400,394 218,0 400,-174 400,-394 0,-219 -182,-394 -400,-394zm200 394c0,110 -92,194 -200,194 -108,0 -200,-84 -200,-194 0,-110 92,-194 200,-194 108,0 200,84 200,194zm421 678c31,56 63,118 93,179 64,128 124,260 165,361l88 219c-108,-44 -216,-88 -323,-134 -120,-51 -171,-73 -200,-63 -18,7 -40,20 -69,47 -36,33 -78,82 -130,153l-128 177 -49 -213c-21,-88 -44,-203 -66,-321 -13,-66 -25,-134 -37,-198l-1 35c-8,161 -18,349 -35,481l-26 206 -144 -149c-68,-70 -117,-114 -156,-140 -57,-38 -97,-36 -162,-21 -49,12 -111,32 -201,63l-185 63 58 -187c26,-86 69,-190 117,-295 43,-93 90,-187 132,-267 71,93 161,156 274,194 113,37 234,35 349,13 48,-9 94,-23 141,-37 23,-6 46,-13 69,-19 23,-6 47,-12 71,-18 50,-12 101,-24 151,-38 62,-18 121,-40 176,-73 10,-6 19,-12 28,-18z"/>
</svg>