<?xml version="1.0" encoding="UTF-8"?>
<!DOCTYPE svg PUBLIC "-//W3C//DTD SVG 1.1//EN" "http://www.w3.org/Graphics/SVG/1.1/DTD/svg11.dtd">
<svg xmlns="http://www.w3.org/2000/svg" xml:space="preserve" width="580px" height="580px" shape-rendering="geometricPrecision" text-rendering="geometricPrecision" image-rendering="optimizeQuality" fill-rule="nonzero" clip-rule="nonzero" viewBox="0 0 5800 5800" xmlns:xlink="http://www.w3.org/1999/xlink">
	<title>scroll icon</title>
	<desc>scroll icon from the IconExperience.com I-Collection. Copyright by INCORS GmbH (www.incors.com).</desc>
		<path id="curve28"  d="M4200 5300l-3400 0c-276,0 -500,-224 -500,-500 0,-276 224,-500 500,-500l3100 0c96,0 156,27 173,102 12,54 -14,114 -86,187 -57,57 -87,131 -87,211 0,166 134,300 300,300 166,0 300,-134 300,-300l0 -3800c0,-113 37,-216 100,-300l-3000 0c-166,0 -300,134 -300,300l0 3100 -200 0 0 -3100c0,-276 224,-500 500,-500l3400 0c276,0 500,224 500,500 0,276 -224,500 -500,500l0 -200c166,0 300,-134 300,-300 0,-166 -134,-300 -300,-300 -80,0 -156,31 -212,88 -54,54 -88,129 -88,212l0 3800c0,276 -224,500 -500,500zm-3400 -200l3000 0c-63,-84 -100,-187 -100,-300 0,-108 36,-214 100,-300l-3000 0c-166,0 -300,134 -300,300 0,166 134,300 300,300z"/>
</svg>