<?xml version="1.0" encoding="UTF-8"?>
<!DOCTYPE svg PUBLIC "-//W3C//DTD SVG 1.1//EN" "http://www.w3.org/Graphics/SVG/1.1/DTD/svg11.dtd">
<svg xmlns="http://www.w3.org/2000/svg" xml:space="preserve" width="580px" height="580px" shape-rendering="geometricPrecision" text-rendering="geometricPrecision" image-rendering="optimizeQuality" fill-rule="nonzero" clip-rule="nonzero" viewBox="0 0 5800 5800" xmlns:xlink="http://www.w3.org/1999/xlink">
	<title>sd_card icon</title>
	<desc>sd_card icon from the IconExperience.com I-Collection. Copyright by INCORS GmbH (www.incors.com).</desc>
		<path id="curve28" d="M4500 1100l0 1000c-833,0 -1667,0 -2500,0l0 400c-233,0 -467,0 -700,0l0 -1000 500 0 0 -400c900,0 1800,0 2700,0zm-100 -800c275,0 500,225 500,500l0 4200c0,275 -225,500 -500,500l-3000 0c-275,0 -500,-225 -500,-500l0 -3941 759 -759 2741 0zm0 200l-2659 0 -641 641 0 3859c0,165 135,300 300,300l3000 0c165,0 300,-135 300,-300l0 -4200c0,-165 -135,-300 -300,-300zm-2100 1400l0 -600 -300 0c0,200 0,400 0,600l300 0zm500 0l0 -600 -300 0 0 600 300 0zm500 0l0 -600 -300 0 0 600 300 0zm-1500 -200l-300 0 0 600 300 0 0 -600zm2000 200l0 -600 -300 0 0 600 300 0zm500 -600l-300 0 0 600 300 0 0 -600z"/>
</svg>