<?xml version="1.0" encoding="UTF-8"?>
<!DOCTYPE svg PUBLIC "-//W3C//DTD SVG 1.1//EN" "http://www.w3.org/Graphics/SVG/1.1/DTD/svg11.dtd">
<svg xmlns="http://www.w3.org/2000/svg" xml:space="preserve" width="580px" height="580px" shape-rendering="geometricPrecision" text-rendering="geometricPrecision" image-rendering="optimizeQuality" fill-rule="nonzero" clip-rule="nonzero" viewBox="0 0 5800 5800" xmlns:xlink="http://www.w3.org/1999/xlink">
	<title>sd_card icon</title>
	<desc>sd_card icon from the IconExperience.com I-Collection. Copyright by INCORS GmbH (www.incors.com).</desc>
		<path id="curve28"  d="M1800 1100l0 400 -500 0 0 1000 700 0 0 -400 2500 0 0 -1000 -2700 0zm500 200l0 600 -300 0 0 -600 300 0zm200 0l300 0 0 600 -300 0 0 -600zm-700 1000l-300 0 0 -600 300 0 0 600zm1200 -1000l300 0 0 600 -300 0 0 -600zm500 0l300 0 0 600 -300 0 0 -600zm500 0l0 600 300 0 0 -600 -300 0zm400 -1000c275,0 500,225 500,500l0 4200c0,275 -225,500 -500,500l-3000 0c-275,0 -500,-225 -500,-500l0 -3941 759 -759 2741 0z"/>
</svg>