<?xml version="1.0" encoding="UTF-8"?>
<!DOCTYPE svg PUBLIC "-//W3C//DTD SVG 1.1//EN" "http://www.w3.org/Graphics/SVG/1.1/DTD/svg11.dtd">
<svg xmlns="http://www.w3.org/2000/svg" xml:space="preserve" width="580px" height="580px" shape-rendering="geometricPrecision" text-rendering="geometricPrecision" image-rendering="optimizeQuality" fill-rule="nonzero" clip-rule="nonzero" viewBox="0 0 5800 5800" xmlns:xlink="http://www.w3.org/1999/xlink">
	<title>selection_find icon</title>
	<desc>selection_find icon from the IconExperience.com I-Collection. Copyright by INCORS GmbH (www.incors.com).</desc>
		<path id="curve28"  d="M4609 3079c73,146 76,229 91,382 0,469 -380,848 -848,848 -317,0 -608,-177 -753,-459 -61,31 -128,47 -197,47 -69,0 -138,-17 -200,-48 -145,282 -436,460 -754,460 -468,0 -848,-379 -848,-848 0,-133 31,-262 91,-381l278 -662c59,-142 204,-268 341,-334l86 -195c66,-148 245,-215 398,-215 173,0 356,92 419,261 59,-24 123,-35 187,-35 67,0 135,14 197,40 61,-172 245,-266 421,-266 152,0 332,67 397,215l86 195c137,65 287,192 343,336l265 659zm-3909 -1979l0 -400 400 0 0 200 -200 0 0 200 -200 0zm800 -400l400 0 0 200 -400 0 0 -200zm800 0l400 0 0 200 -400 0 0 -200zm800 0l400 0 0 200 -400 0 0 -200zm800 0l400 0 0 200 -400 0 0 -200zm800 0l400 0 0 400 -200 0 0 -200 -200 0 0 -200zm400 800l0 400 -200 0 0 -400 200 0zm0 800l0 400 -200 0 0 -400 200 0zm0 800l0 400 -200 0 0 -400 200 0zm0 800l0 400 -200 0 0 -400 200 0zm0 800l0 400 -400 0 0 -200 200 0 0 -200 200 0zm-800 400l-400 0 0 -200 400 0 0 200zm-800 0l-400 0 0 -200 400 0 0 200zm-800 0l-400 0 0 -200 400 0 0 200zm-800 0l-400 0 0 -200 400 0 0 200zm-800 0l-400 0 0 -400 200 0 0 200 200 0 0 200zm-400 -800l0 -400 200 0 0 400 -200 0zm0 -800l0 -400 200 0 0 400 -200 0zm0 -800l0 -400 200 0 0 400 -200 0zm0 -800l0 -400 200 0 0 400 -200 0zm3457 592c-47,-124 -189,-208 -306,-255l-119 -267c-31,-70 -146,-96 -214,-96 -92,0 -212,46 -237,145l-83 246c-97,-87 -158,-165 -298,-165 -135,0 -194,71 -291,152l-79 -233c-25,-99 -145,-145 -236,-145 -68,0 -184,26 -215,96l-118 267c-121,49 -256,132 -308,258l-281 669c-46,108 -72,177 -72,297 0,358 290,648 648,648 280,0 529,-179 616,-445l51 -157c53,54 125,143 194,172 58,24 127,24 185,0 68,-28 139,-113 192,-165l51 153c88,265 336,442 615,442 358,0 648,-290 648,-648 0,-84 -15,-165 -47,-243l-296 -726zm-307 1408c-248,0 -450,-202 -450,-450 0,-248 202,-450 450,-450 248,0 450,202 450,450 0,248 -202,450 -450,450zm0 -200c138,0 250,-112 250,-250 0,-138 -112,-250 -250,-250 -138,0 -250,112 -250,250 0,138 112,250 250,250zm-1900 200c-248,0 -450,-202 -450,-450 0,-248 202,-450 450,-450 248,0 450,202 450,450 0,248 -202,450 -450,450zm0 -200c138,0 250,-112 250,-250 0,-138 -112,-250 -250,-250 -138,0 -250,112 -250,250 0,138 112,250 250,250z"/>
</svg>