<?xml version="1.0" encoding="utf-8"?>
<!-- Generator: Adobe Illustrator 21.1.0, SVG Export Plug-In . SVG Version: 6.00 Build 0)  -->
<svg version="1.1" id="Ebene_1" xmlns="http://www.w3.org/2000/svg" xmlns:xlink="http://www.w3.org/1999/xlink" x="0px" y="0px"
	 viewBox="0 0 580 580" style="enable-background:new 0 0 580 580;" xml:space="preserve">
<style type="text/css">
	.st0{fill:none;stroke:#000000;stroke-width:20;stroke-miterlimit:10;}
</style>
<g id="selected_x5F_data_x5F_set_x5F_opens_x5F_in_x5F_new_x5F_view_x2F_window_2">
	<path d="M434.4,143.8"/>
	<g>
		<path d="M418.3,365.9v52.5h-80v-52.5h-20v52.5H266l35.3,20h17v80h-20.2l3.1,3.7l-15.3,13c-1.4,1.1-2.7,2.3-4,3.5H439V365.9H418.3z
			 M418.3,518.4h-80v-80h80V518.4z"/>
		<path d="M245.3,318.4h-7v-80h7v-20.9H39v-100h206.3v-20H19c0,126,0,314,0,441h120.8L118.3,481v37.4h-80v-80h64.1l-7.5-20H38.3v-80
			H65l-7.5-20H38.3v-80h80v80h-29l49,27.8v-7.8h80v53l20,11.3v-64.3h7V318.4z M218.3,318.4h-80v-80h80V318.4z"/>
	</g>
	<path d="M87,340.1l185,104.7l-43.3,23.1l44.3,51.9c-12.6,10.7-25.1,21.5-37.7,32.2L191,500.1l-29.6,39.1L87,340.1z"/>
	<g id="data_set_Kopie">
		<path d="M265.3,45.9v300h300v-300H265.3z M543.3,323.9h-256v-256h256V323.9z"/>
		<line class="st0" x1="325.6" y1="121" x2="506.5" y2="121"/>
		<line class="st0" x1="325.6" y1="171" x2="506.5" y2="171"/>
		<line class="st0" x1="325.6" y1="221" x2="506.5" y2="221"/>
		<line class="st0" x1="325.6" y1="271" x2="416.5" y2="271"/>
	</g>
</g>
</svg>
