<?xml version="1.0" encoding="UTF-8"?>
<!DOCTYPE svg PUBLIC "-//W3C//DTD SVG 1.1//EN" "http://www.w3.org/Graphics/SVG/1.1/DTD/svg11.dtd">
<svg xmlns="http://www.w3.org/2000/svg" xml:space="preserve" width="580px" height="580px" shape-rendering="geometricPrecision" text-rendering="geometricPrecision" image-rendering="optimizeQuality" fill-rule="nonzero" clip-rule="nonzero" viewBox="0 0 5800 5800" xmlns:xlink="http://www.w3.org/1999/xlink">
	<title>selection_view icon</title>
	<desc>selection_view icon from the IconExperience.com I-Collection. Copyright by INCORS GmbH (www.incors.com).</desc>
		<path id="curve28" d="M3219 3071l172 172 -141 141 -171 -171c-210,179 -482,287 -779,287 -663,0 -1200,-537 -1200,-1200 0,-663 537,-1200 1200,-1200 663,0 1200,537 1200,1200 0,294 -105,563 -281,771zm-2519 -1971l0 -400 400 0 0 200 -200 0 0 200 -200 0zm800 -400l400 0 0 200 -400 0 0 -200zm800 0l400 0 0 200 -400 0 0 -200zm800 0l400 0 0 200 -400 0 0 -200zm800 0l400 0 0 200 -400 0 0 -200zm800 0l400 0 0 400 -200 0 0 -200 -200 0 0 -200zm400 800l0 400 -200 0 0 -400 200 0zm0 800l0 400 -200 0 0 -400 200 0zm0 800l0 400 -200 0 0 -400 200 0zm0 800l0 400 -200 0 0 -400 200 0zm0 800l0 400 -400 0 0 -200 200 0 0 -200 200 0zm-800 400l-400 0 0 -200 400 0 0 200zm-800 0l-400 0 0 -200 400 0 0 200zm-800 0l-400 0 0 -200 400 0 0 200zm-800 0l-400 0 0 -200 400 0 0 200zm-800 0l-400 0 0 -400 200 0 0 200 200 0 0 200zm-400 -800l0 -400 200 0 0 400 -200 0zm0 -800l0 -400 200 0 0 400 -200 0zm0 -800l0 -400 200 0 0 400 -200 0zm0 -800l0 -400 200 0 0 400 -200 0zm1600 -600c-552,0 -1000,448 -1000,1000 0,552 448,1000 1000,1000 552,0 1000,-448 1000,-1000 0,-552 -448,-1000 -1000,-1000zm1367 1801l1131 1132 -565 565 -1132 -1131 566 -566zm0 283l-283 283 849 849 283 -283 -849 -849z"/>
</svg>