<?xml version="1.0" encoding="UTF-8"?>
<!DOCTYPE svg PUBLIC "-//W3C//DTD SVG 1.1//EN" "http://www.w3.org/Graphics/SVG/1.1/DTD/svg11.dtd">
<svg xmlns="http://www.w3.org/2000/svg" xml:space="preserve" width="580px" height="580px" shape-rendering="geometricPrecision" text-rendering="geometricPrecision" image-rendering="optimizeQuality" fill-rule="nonzero" clip-rule="nonzero" viewBox="0 0 5800 5800" xmlns:xlink="http://www.w3.org/1999/xlink">
	<title>selection_delete icon</title>
	<desc>selection_delete icon from the IconExperience.com I-Collection. Copyright by INCORS GmbH (www.incors.com).</desc>
		<path id="curve28"  d="M500 500l4800 0 0 4800 -4800 0 0 -4800zm3529 3671l142 -142 -1130 -1129 1130 -1129 -142 -142 -1129 1130 -1129 -1130 -142 142 1130 1129 -1130 1129 142 142 1129 -1130 1129 1130zm-3329 -3071l200 0 0 -200 200 0 0 -200 -400 0 0 400zm800 -400l0 200 400 0 0 -200 -400 0zm800 0l0 200 400 0 0 -200 -400 0zm800 0l0 200 400 0 0 -200 -400 0zm800 0l0 200 400 0 0 -200 -400 0zm800 0l0 200 200 0 0 200 200 0 0 -400 -400 0zm400 800l-200 0 0 400 200 0 0 -400zm0 800l-200 0 0 400 200 0 0 -400zm0 800l-200 0 0 400 200 0 0 -400zm0 800l-200 0 0 400 200 0 0 -400zm0 800l-200 0 0 200 -200 0 0 200 400 0 0 -400zm-800 400l0 -200 -400 0 0 200 400 0zm-800 0l0 -200 -400 0 0 200 400 0zm-800 0l0 -200 -400 0 0 200 400 0zm-800 0l0 -200 -400 0 0 200 400 0zm-800 0l0 -200 -200 0 0 -200 -200 0 0 400 400 0zm-400 -800l200 0 0 -400 -200 0 0 400zm0 -800l200 0 0 -400 -200 0 0 400zm0 -800l200 0 0 -400 -200 0 0 400zm0 -800l200 0 0 -400 -200 0 0 400z"/>
</svg>