<?xml version="1.0" encoding="UTF-8"?>
<!DOCTYPE svg PUBLIC "-//W3C//DTD SVG 1.1//EN" "http://www.w3.org/Graphics/SVG/1.1/DTD/svg11.dtd">
<svg xmlns="http://www.w3.org/2000/svg" xml:space="preserve" width="580px" height="580px" shape-rendering="geometricPrecision" text-rendering="geometricPrecision" image-rendering="optimizeQuality" fill-rule="nonzero" clip-rule="nonzero" viewBox="0 0 5800 5800" xmlns:xlink="http://www.w3.org/1999/xlink">
	<title>selection_recycle icon</title>
	<desc>selection_recycle icon from the IconExperience.com I-Collection. Copyright by INCORS GmbH (www.incors.com).</desc>
		<path id="curve28"  d="M700 1100l0 -400 400 0 0 200 -200 0 0 200 -200 0zm3299 438l-451 121c461,241 752,718 752,1241 0,272 -77,526 -212,740l-203 -54c135,-195 215,-431 215,-686 0,-451 -252,-861 -650,-1067l120 448 -193 52 -209 -779 779 -209 52 193zm-1052 -37l54 203c-720,-60 -1334,532 -1300,1253l328 -328 142 142 -571 570 -571 -570 142 -142 330 331c-34,-814 632,-1486 1446,-1459zm704 2580c-217,139 -475,219 -751,219 -519,0 -992,-286 -1235,-741l149 -148c197,419 619,689 1086,689 239,0 462,-70 649,-191l-448 -120 52 -193 779 209 -209 780 -193 -52 121 -452zm-2151 -3381l400 0 0 200 -400 0 0 -200zm800 0l400 0 0 200 -400 0 0 -200zm800 0l400 0 0 200 -400 0 0 -200zm800 0l400 0 0 200 -400 0 0 -200zm800 0l400 0 0 400 -200 0 0 -200 -200 0 0 -200zm400 800l0 400 -200 0 0 -400 200 0zm0 800l0 400 -200 0 0 -400 200 0zm0 800l0 400 -200 0 0 -400 200 0zm0 800l0 400 -200 0 0 -400 200 0zm0 800l0 400 -400 0 0 -200 200 0 0 -200 200 0zm-800 400l-400 0 0 -200 400 0 0 200zm-800 0l-400 0 0 -200 400 0 0 200zm-800 0l-400 0 0 -200 400 0 0 200zm-800 0l-400 0 0 -200 400 0 0 200zm-800 0l-400 0 0 -400 200 0 0 200 200 0 0 200zm-400 -800l0 -400 200 0 0 400 -200 0zm0 -800l0 -400 200 0 0 400 -200 0zm0 -800l0 -400 200 0 0 400 -200 0zm0 -800l0 -400 200 0 0 400 -200 0z"/>
</svg>