<?xml version="1.0" encoding="utf-8"?>
<!-- Generator: Adobe Illustrator 19.2.1, SVG Export Plug-In . SVG Version: 6.00 Build 0)  -->
<svg version="1.1" id="Ebene_1" xmlns="http://www.w3.org/2000/svg" xmlns:xlink="http://www.w3.org/1999/xlink" x="0px" y="0px"
	 width="580px" height="580px" viewBox="0 0 580 580" style="enable-background:new 0 0 580 580;" xml:space="preserve">
<g>
	<rect x="183" y="230" width="360" height="20"/>
	<rect x="183" y="130" width="360" height="20"/>
	<rect x="183" y="430" width="360" height="20"/>
	<rect x="183" y="330" width="360" height="20"/>
	<path d="M86.5,139c-27.6,0-50,22.4-50,50c0,27.6,22.4,50,50,50s50-22.4,50-50C136.5,161.4,114.1,139,86.5,139z M86.5,219
		c-16.6,0-30-13.4-30-30c0-16.6,13.4-30,30-30s30,13.4,30,30C116.5,205.6,103.1,219,86.5,219z"/>
	<path d="M86.5,340c-27.6,0-50,22.4-50,50c0,27.6,22.4,50,50,50s50-22.4,50-50C136.5,362.4,114.1,340,86.5,340z M86.5,420
		c-16.6,0-30-13.4-30-30c0-16.6,13.4-30,30-30s30,13.4,30,30C116.5,406.6,103.1,420,86.5,420z"/>
</g>
</svg>
