<?xml version="1.0" encoding="UTF-8"?>
<!DOCTYPE svg PUBLIC "-//W3C//DTD SVG 1.1//EN" "http://www.w3.org/Graphics/SVG/1.1/DTD/svg11.dtd">
<svg xmlns="http://www.w3.org/2000/svg" xml:space="preserve" width="580px" height="580px" shape-rendering="geometricPrecision" text-rendering="geometricPrecision" image-rendering="optimizeQuality" fill-rule="nonzero" clip-rule="nonzero" viewBox="0 0 5800 5800" xmlns:xlink="http://www.w3.org/1999/xlink">
	<title>selection_find icon</title>
	<desc>selection_find icon from the IconExperience.com I-Collection. Copyright by INCORS GmbH (www.incors.com).</desc>
		<path id="curve28"  d="M500 500l4800 0 0 4800 -4800 0 0 -4800zm4109 2579l-265 -659c-56,-144 -206,-271 -343,-336l-86 -195c-65,-148 -245,-215 -397,-215 -176,0 -360,94 -421,266 -62,-26 -130,-40 -197,-40 -64,0 -128,11 -187,35 -63,-169 -246,-261 -419,-261 -153,0 -332,67 -398,215l-86 195c-137,66 -282,192 -341,334l-278 662c-60,119 -91,248 -91,381 0,469 380,848 848,848 318,0 609,-178 754,-460 62,31 131,48 200,48 69,0 136,-16 197,-47 145,282 436,459 753,459 468,0 848,-379 848,-848 -15,-153 -18,-236 -91,-382zm-3909 -1979l200 0 0 -200 200 0 0 -200 -400 0 0 400zm800 -400l0 200 400 0 0 -200 -400 0zm800 0l0 200 400 0 0 -200 -400 0zm800 0l0 200 400 0 0 -200 -400 0zm800 0l0 200 400 0 0 -200 -400 0zm800 0l0 200 200 0 0 200 200 0 0 -400 -400 0zm400 800l-200 0 0 400 200 0 0 -400zm0 800l-200 0 0 400 200 0 0 -400zm0 800l-200 0 0 400 200 0 0 -400zm0 800l-200 0 0 400 200 0 0 -400zm0 800l-200 0 0 200 -200 0 0 200 400 0 0 -400zm-800 400l0 -200 -400 0 0 200 400 0zm-800 0l0 -200 -400 0 0 200 400 0zm-800 0l0 -200 -400 0 0 200 400 0zm-800 0l0 -200 -400 0 0 200 400 0zm-800 0l0 -200 -200 0 0 -200 -200 0 0 400 400 0zm-400 -800l200 0 0 -400 -200 0 0 400zm0 -800l200 0 0 -400 -200 0 0 400zm0 -800l200 0 0 -400 -200 0 0 400zm0 -800l200 0 0 -400 -200 0 0 400zm3457 592c-47,-124 -189,-208 -306,-255l-119 -267c-31,-70 -146,-96 -214,-96 -92,0 -212,46 -237,145l-83 246c-97,-87 -158,-165 -298,-165 -135,0 -194,71 -291,152l-79 -233c-25,-99 -145,-145 -236,-145 -68,0 -184,26 -215,96l-118 267c-121,49 -256,132 -308,258l-281 669c-46,108 -72,177 -72,297 0,358 290,648 648,648 280,0 529,-179 616,-445l51 -157c53,54 125,143 194,172 58,24 127,24 185,0 68,-28 139,-113 192,-165l51 153c88,265 336,442 615,442 358,0 648,-290 648,-648 0,-84 -15,-165 -47,-243l-296 -726zm-307 1408c-248,0 -450,-202 -450,-450 0,-248 202,-450 450,-450 248,0 450,202 450,450 0,248 -202,450 -450,450zm-1900 0c-248,0 -450,-202 -450,-450 0,-248 202,-450 450,-450 248,0 450,202 450,450 0,248 -202,450 -450,450z"/>
</svg>