<?xml version="1.0" encoding="UTF-8"?>
<!DOCTYPE svg PUBLIC "-//W3C//DTD SVG 1.1//EN" "http://www.w3.org/Graphics/SVG/1.1/DTD/svg11.dtd">
<svg xmlns="http://www.w3.org/2000/svg" xml:space="preserve" width="580px" height="580px" shape-rendering="geometricPrecision" text-rendering="geometricPrecision" image-rendering="optimizeQuality" fill-rule="nonzero" clip-rule="nonzero" viewBox="0 0 5800 5800" xmlns:xlink="http://www.w3.org/1999/xlink">
	<title>selection_recycle icon</title>
	<desc>selection_recycle icon from the IconExperience.com I-Collection. Copyright by INCORS GmbH (www.incors.com).</desc>
		<path id="curve28"  d="M500 500l4800 0 0 4800 -4800 0 0 -4800zm200 600l200 0 0 -200 200 0 0 -200 -400 0 0 400zm3299 438l-52 -193 -779 209 209 779 193 -52 -120 -448c398,206 650,616 650,1067 0,255 -80,491 -215,686l203 54c135,-214 212,-468 212,-740 0,-523 -291,-1000 -752,-1241l451 -121zm-1099 -38c-773,0 -1400,627 -1400,1400 0,20 0,40 1,60l-330 -331 -142 142 571 570 571 -570 -142 -142 -328 328c-1,-19 -1,-38 -1,-57 0,-663 537,-1200 1200,-1200 34,0 68,1 101,4l-54 -203c-16,-1 -31,-1 -47,-1zm751 2581l-121 452 193 52 209 -780 -779 -209 -52 193 448 120c-187,121 -410,191 -649,191 -467,0 -889,-270 -1086,-689l-149 148c243,455 716,741 1235,741 276,0 534,-80 751,-219zm-2151 -3381l0 200 400 0 0 -200 -400 0zm800 0l0 200 400 0 0 -200 -400 0zm800 0l0 200 400 0 0 -200 -400 0zm800 0l0 200 400 0 0 -200 -400 0zm800 0l0 200 200 0 0 200 200 0 0 -400 -400 0zm400 800l-200 0 0 400 200 0 0 -400zm0 800l-200 0 0 400 200 0 0 -400zm0 800l-200 0 0 400 200 0 0 -400zm0 800l-200 0 0 400 200 0 0 -400zm0 800l-200 0 0 200 -200 0 0 200 400 0 0 -400zm-800 400l0 -200 -400 0 0 200 400 0zm-800 0l0 -200 -400 0 0 200 400 0zm-800 0l0 -200 -400 0 0 200 400 0zm-800 0l0 -200 -400 0 0 200 400 0zm-800 0l0 -200 -200 0 0 -200 -200 0 0 400 400 0zm-400 -800l200 0 0 -400 -200 0 0 400zm0 -800l200 0 0 -400 -200 0 0 400zm0 -800l200 0 0 -400 -200 0 0 400zm0 -800l200 0 0 -400 -200 0 0 400z"/>
</svg>