<?xml version="1.0" encoding="UTF-8"?>
<!DOCTYPE svg PUBLIC "-//W3C//DTD SVG 1.1//EN" "http://www.w3.org/Graphics/SVG/1.1/DTD/svg11.dtd">
<svg xmlns="http://www.w3.org/2000/svg" xml:space="preserve" width="580px" height="580px" shape-rendering="geometricPrecision" text-rendering="geometricPrecision" image-rendering="optimizeQuality" fill-rule="nonzero" clip-rule="nonzero" viewBox="0 0 5800 5800" xmlns:xlink="http://www.w3.org/1999/xlink">
	<title>selection_refresh icon</title>
	<desc>selection_refresh icon from the IconExperience.com I-Collection. Copyright by INCORS GmbH (www.incors.com).</desc>
		<path id="curve28"  d="M3070 1107l693 693 -693 693 -142 -141 452 -452 -1280 0c-330,0 -600,270 -600,600l0 800c0,253 160,478 397,564l-152 153c-271,-135 -445,-412 -445,-717l0 -800c0,-440 360,-800 800,-800l1279 0 -451 -451 142 -142zm-2370 -7l0 -400 400 0 0 200 -200 0 0 200 -200 0zm800 -400l400 0 0 200 -400 0 0 -200zm800 0l400 0 0 200 -400 0 0 -200zm800 0l400 0 0 200 -400 0 0 -200zm800 0l400 0 0 200 -400 0 0 -200zm800 0l400 0 0 400 -200 0 0 -200 -200 0 0 -200zm400 800l0 400 -200 0 0 -400 200 0zm0 800l0 400 -200 0 0 -400 200 0zm0 800l0 400 -200 0 0 -400 200 0zm0 800l0 400 -200 0 0 -400 200 0zm0 800l0 400 -400 0 0 -200 200 0 0 -200 200 0zm-800 400l-400 0 0 -200 400 0 0 200zm-800 0l-400 0 0 -200 400 0 0 200zm-800 0l-400 0 0 -200 400 0 0 200zm-800 0l-400 0 0 -200 400 0 0 200zm-800 0l-400 0 0 -400 200 0 0 200 200 0 0 200zm-400 -800l0 -400 200 0 0 400 -200 0zm0 -800l0 -400 200 0 0 400 -200 0zm0 -800l0 -400 200 0 0 400 -200 0zm0 -800l0 -400 200 0 0 400 -200 0zm3358 -115c269,136 442,412 442,715l0 800c0,440 -360,800 -800,800l-1280 0 452 451 -142 142 -692 -693 692 -693 142 142 -452 451 1280 0c330,0 600,-270 600,-600l0 -800c0,-251 -159,-476 -393,-563l151 -152z"/>
</svg>