<?xml version="1.0" encoding="utf-8"?>
<!-- Generator: Adobe Illustrator 19.2.1, SVG Export Plug-In . SVG Version: 6.00 Build 0)  -->
<svg version="1.1" id="Ebene_1" xmlns="http://www.w3.org/2000/svg" xmlns:xlink="http://www.w3.org/1999/xlink" x="0px" y="0px"
	 width="580px" height="580px" viewBox="0 0 580 580" style="enable-background:new 0 0 580 580;" xml:space="preserve">
<g>
	<polygon points="530,116 450,116 490,164 	"/>
	<path d="M10,70c0,126,0,314,0,441h420V210h140V70H10z M109,490H29v-80h80V490z M109,390H29v-80h80V390z M109,290H29v-80h80V290z
		 M209,490h-80v-80h80V490z M209,390h-80v-80h80V390z M209,290h-80v-80h80V290z M309,490h-80v-80h80V490z M309,390h-80v-80h80V390z
		 M309,290h-80v-80h80V290z M409,490h-80v-80h80V490z M409,390h-80v-80h80V390z M409,290h-80v-80h80V290z M410,190H30V90h380V190z
		 M550,190H430V90h120V190z"/>
</g>
</svg>
