<?xml version="1.0" encoding="utf-8"?>
<!-- Generator: Adobe Illustrator 21.1.0, SVG Export Plug-In . SVG Version: 6.00 Build 0)  -->
<svg version="1.1" id="Ebene_1" xmlns="http://www.w3.org/2000/svg" xmlns:xlink="http://www.w3.org/1999/xlink" x="0px" y="0px"
	 viewBox="0 0 580 580" style="enable-background:new 0 0 580 580;" xml:space="preserve">
<style type="text/css">
	.st0{fill:none;stroke:#000000;stroke-width:20;stroke-miterlimit:10;}
</style>
<g id="selected_x5F_data_x5F_set_x5F_opens_x5F_in_x5F_new_x5F_view_x2F_window_1">
	<path d="M434.4,143.8"/>
	<g>
		<path d="M430,105.9V69.5H10c0,126,0,314,0,441h420v-64.6h-20.7v44.5h-80v-44.5h-20v44.5h-80v-80h21v-20h-21v-80h21v-20h-7
			l-34,33.9v66.1h-80v-80h9l20-20h-29v-9.8l-20,0v9.8h-80v-80h80v10.2l20,0v-10.2h28.8l-20.8-20.9H30v-100h380v16.4H430z
			 M129.3,410.4h80v80h-80V410.4z M109.3,490.4h-80v-80h80V490.4z M109.3,310.4v80h-80v-80H109.3z"/>
		<polygon points="250.3,189.5 222,189.5 242.8,210.4 250.3,210.4 		"/>
	</g>
	<g id="data_set">
		<path d="M270.3,125.9v300h300v-300H270.3z M548.3,403.9h-256v-256h256V403.9z"/>
		<line class="st0" x1="330.6" y1="201" x2="511.5" y2="201"/>
		<line class="st0" x1="330.6" y1="251" x2="511.5" y2="251"/>
		<line class="st0" x1="330.6" y1="301" x2="511.5" y2="301"/>
		<line class="st0" x1="330.6" y1="351" x2="421.5" y2="351"/>
	</g>
	<polygon points="247.7,243.6 177.4,173.1 163.2,187.2 216.6,240.8 66.4,240.5 66.4,260.5 216.3,260.8 163,314 177.1,328.1 
		247.7,257.8 254.7,250.7 	"/>
</g>
</svg>
