<?xml version="1.0" encoding="UTF-8"?>
<!DOCTYPE svg PUBLIC "-//W3C//DTD SVG 1.1//EN" "http://www.w3.org/Graphics/SVG/1.1/DTD/svg11.dtd">
<svg xmlns="http://www.w3.org/2000/svg" xml:space="preserve" width="580px" height="580px" shape-rendering="geometricPrecision" text-rendering="geometricPrecision" image-rendering="optimizeQuality" fill-rule="nonzero" clip-rule="nonzero" viewBox="0 0 5800 5800" xmlns:xlink="http://www.w3.org/1999/xlink">
	<title>senior_citizen2 icon</title>
	<desc>senior_citizen2 icon from the IconExperience.com I-Collection. Copyright by INCORS GmbH (www.incors.com).</desc>
	<path id="curve0"  d="M4038 919c111,132 213,300 273,466 57,160 89,332 89,511 0,124 -15,246 -44,363 -30,119 -75,234 -132,341 -15,29 -84,134 -186,210 -47,34 -102,63 -163,79 -52,118 -111,227 -174,303 2,77 8,155 28,223 20,66 54,124 121,164 104,66 220,110 335,154 173,67 342,132 469,257 226,225 346,564 346,879 0,228 -254,376 -605,469 -464,123 -1113,162 -1495,162 -382,0 -1031,-39 -1495,-162 -351,-93 -605,-241 -605,-469 0,-315 120,-655 346,-879 127,-125 296,-190 469,-257 115,-44 231,-88 333,-153 65,-38 101,-98 122,-167 21,-67 28,-145 30,-220 -62,-75 -120,-181 -171,-298 -65,-8 -121,-27 -170,-51 -108,-52 -179,-135 -196,-168 -53,-103 -94,-214 -121,-330 -28,-114 -42,-231 -42,-350 0,-351 121,-674 323,-930 110,-560 604,-966 1177,-966 517,0 975,331 1138,819zm10 1587c50,-92 88,-191 114,-295 25,-100 38,-206 38,-315 0,-156 -27,-306 -77,-443 -52,-143 -128,-275 -224,-390 -94,-112 -233,-204 -387,-268 -98,-41 -202,-70 -304,-87 34,63 50,135 47,206 -6,131 -20,256 -50,368 -12,43 -26,84 -43,123 60,39 129,73 199,107 133,65 269,131 378,246 86,91 149,207 199,338 47,125 81,265 110,410zm-1134 -2005c206,-42 543,46 735,137 -190,-215 -461,-338 -749,-338 -338,0 -650,169 -835,450 223,-150 488,-241 774,-253 12,0 24,0 35,0 14,1 27,2 40,4zm-863 3266c80,336 202,620 352,822 119,160 254,265 397,299l0 412 200 0 0 -412c143,-34 278,-139 397,-299 150,-202 272,-486 352,-822 -147,340 -485,533 -849,533 -364,0 -702,-193 -849,-533zm-310 -1182c34,-134 73,-263 127,-380 57,-121 129,-228 225,-312 125,-109 280,-172 432,-234 145,-58 286,-116 370,-204 56,-58 92,-135 117,-225 26,-98 38,-208 43,-324 3,-57 -17,-111 -57,-151 -40,-40 -94,-61 -151,-59 -347,14 -660,164 -885,399 -224,234 -362,551 -362,901 0,105 12,207 35,303 24,100 60,195 106,286z"/>
</svg>