<?xml version="1.0" encoding="UTF-8"?>
<!DOCTYPE svg PUBLIC "-//W3C//DTD SVG 1.1//EN" "http://www.w3.org/Graphics/SVG/1.1/DTD/svg11.dtd">
<svg xmlns="http://www.w3.org/2000/svg" xml:space="preserve" width="580px" height="580px" shape-rendering="geometricPrecision" text-rendering="geometricPrecision" image-rendering="optimizeQuality" fill-rule="nonzero" clip-rule="nonzero" viewBox="0 0 5800 5800" xmlns:xlink="http://www.w3.org/1999/xlink">
	<title>senior_citizen icon</title>
	<desc>senior_citizen icon from the IconExperience.com I-Collection. Copyright by INCORS GmbH (www.incors.com).</desc>
	<path id="curve0"  d="M2700 2900l400 0c55,0 100,-45 100,-100 0,-55 -45,-100 -100,-100l-400 0c-55,0 -100,45 -100,100 0,55 45,100 100,100zm650 -800l50 0c220,0 400,-179 400,-400 0,-165 -135,-300 -300,-300l-250 0c-127,0 -240,81 -283,200l-134 0c-43,-119 -156,-200 -283,-200l-250 0c-165,0 -300,135 -300,300 0,220 180,400 400,400l50 0c183,0 342,-125 387,-300l126 0c45,175 205,300 387,300zm-1403 1481c67,-41 102,-91 124,-166 20,-68 26,-146 28,-223 -63,-76 -122,-186 -174,-304 -75,-171 -137,-364 -174,-496 -96,-65 -158,-172 -186,-292 -2,-10 -53,0 -65,0 -221,0 -400,-179 -400,-400 0,-109 45,-213 123,-289 18,-16 27,-35 30,-58 24,-173 173,-303 347,-303 31,0 61,4 90,12 81,-215 205,-413 345,-533 183,-158 526,-237 865,-237 339,0 682,79 865,237 140,120 264,318 345,533 29,-8 59,-12 90,-12 174,0 323,130 347,303 3,23 13,42 30,58 78,76 123,180 123,289 0,221 -179,400 -400,400 -22,0 -43,-2 -64,-5l-1 5c-28,120 -90,227 -186,292 -37,132 -99,325 -174,496 -52,118 -111,228 -174,304 2,77 8,155 28,223 23,77 56,123 125,166 100,64 216,108 331,152 173,67 342,132 469,257 111,111 196,248 254,395 61,156 92,324 92,484 0,228 -254,376 -605,469 -464,123 -1113,162 -1495,162 -382,0 -1031,-39 -1495,-162 -351,-93 -605,-241 -605,-469 0,-160 31,-328 92,-484 58,-147 143,-284 254,-395 127,-125 296,-190 469,-257 115,-44 231,-88 332,-152zm1721 110c-18,-17 -35,-35 -49,-54 -60,42 -141,76 -228,112 -73,31 -153,64 -225,106l145 193 357 -357zm-1487 -54c-13,17 -28,34 -44,49l353 361 144 -192c-72,-42 -152,-75 -225,-106 -87,-36 -168,-70 -228,-112zm-108 269c80,399 196,738 337,984 61,108 125,196 193,263 9,-287 45,-649 197,-953l-100 -100 -190 253 -437 -447zm1124 1247c68,-67 132,-155 193,-263 139,-244 255,-579 335,-974l-436 436 -185 -248c-40,37 -80,72 -104,96 152,304 188,666 197,953zm-897 -3553c-55,0 -100,45 -100,100 0,110 90,200 200,200l50 0c177,0 214,-200 200,-200 0,-55 -45,-100 -100,-100l-250 0zm1100 300c110,0 200,-90 200,-200 0,-55 -45,-100 -100,-100l-250 0c-55,0 -100,45 -100,100 0,110 90,200 200,200m-1702 -335c-21,-23 -35,-48 -44,-75 -8,-27 -11,-56 -7,-86 7,-51 16,-102 28,-152 -83,-13 -162,43 -174,127 -9,70 -39,128 -89,176 -40,39 -62,90 -62,145 0,110 90,200 200,200 111,0 200,-89 200,-200 0,-51 -18,-98 -52,-135zm2504 0c-34,37 -52,84 -52,135 0,111 89,200 200,200 110,0 200,-90 200,-200 0,-55 -22,-106 -62,-145 -50,-48 -80,-106 -89,-176 -12,-84 -91,-140 -174,-127 12,50 21,101 28,152 8,60 -10,116 -51,161zm-1362 1835l220 0c172,0 296,-86 383,-204 112,-153 157,-364 157,-496 0,-226 -150,-400 -382,-400l-536 0c-232,0 -382,174 -382,400 0,132 45,343 157,496 87,118 211,204 383,204zm-222 -322c-84,-115 -118,-276 -118,-378 0,-115 60,-200 182,-200l536 0c122,0 182,85 182,200 0,102 -34,263 -118,378 -52,71 -124,122 -222,122l-220 0c-98,0 -170,-51 -222,-122z"/>
</svg>