<?xml version="1.0" encoding="UTF-8"?>
<!DOCTYPE svg PUBLIC "-//W3C//DTD SVG 1.1//EN" "http://www.w3.org/Graphics/SVG/1.1/DTD/svg11.dtd">
<svg xmlns="http://www.w3.org/2000/svg" xml:space="preserve" width="580px" height="580px" shape-rendering="geometricPrecision" text-rendering="geometricPrecision" image-rendering="optimizeQuality" fill-rule="nonzero" clip-rule="nonzero" viewBox="0 0 5800 5800" xmlns:xlink="http://www.w3.org/1999/xlink">
	<title>senior_citizen2 icon</title>
	<desc>senior_citizen2 icon from the IconExperience.com I-Collection. Copyright by INCORS GmbH (www.incors.com).</desc>
	<path id="curve0" d="M3000 5092l0 207c377,-6 938,-46 1344,-154 264,-70 456,-161 456,-276 0,-262 -98,-550 -287,-737 -97,-96 -246,-154 -399,-213 -60,-23 -120,-46 -179,-72 -87,348 -217,645 -378,861 -159,214 -349,351 -557,384zm-200 207l0 -207c-208,-33 -398,-170 -557,-384 -161,-216 -291,-513 -378,-861 -59,26 -119,49 -179,72 -153,59 -302,117 -399,213 -189,186 -287,475 -287,737 0,115 192,206 456,276 406,108 967,148 1344,154zm1238 -4380c111,132 213,300 273,466 57,160 89,332 89,511 0,124 -15,246 -44,363 -30,119 -75,234 -132,341 -15,29 -84,134 -186,210 -47,34 -102,63 -163,79 -52,118 -111,227 -174,303 2,77 8,155 28,223 20,66 54,124 121,164 104,66 220,110 335,154 173,67 342,132 469,257 226,225 346,564 346,879 0,228 -254,376 -605,469 -464,123 -1113,162 -1495,162 -382,0 -1031,-39 -1495,-162 -351,-93 -605,-241 -605,-469 0,-315 120,-655 346,-879 127,-125 296,-190 469,-257 115,-44 231,-88 333,-153 65,-38 101,-98 122,-167 21,-67 28,-145 30,-220 -62,-75 -120,-181 -171,-298 -65,-8 -121,-27 -170,-51 -108,-52 -179,-135 -196,-168 -53,-103 -94,-214 -121,-330 -28,-114 -42,-231 -42,-350 0,-351 121,-674 323,-930 110,-560 604,-966 1177,-966 517,0 975,331 1138,819zm-509 2166c56,-56 112,-160 163,-277 11,-24 13,-50 30,-71 42,-103 78,-211 107,-303 -22,-95 -47,-186 -78,-268 -40,-108 -91,-201 -157,-270 -83,-88 -203,-147 -321,-204 -75,-37 -149,-73 -217,-117 -5,6 -10,12 -16,17 -115,121 -275,186 -440,252 -137,56 -277,113 -376,199 -73,63 -129,148 -174,246 -26,55 -48,115 -68,177 26,85 59,178 96,269 16,24 19,48 30,73 52,118 108,222 163,277 19,19 29,45 29,70 0,102 -7,213 -39,317 -14,45 -33,89 -57,129 91,317 374,499 696,499 321,0 604,-181 696,-497 -26,-41 -44,-85 -58,-132 -30,-101 -35,-210 -38,-314 0,-28 11,-54 29,-72zm519 -579c50,-92 88,-191 114,-295 25,-100 38,-206 38,-315 0,-156 -27,-306 -77,-443 -52,-143 -128,-275 -224,-390 -94,-112 -233,-204 -387,-268 -98,-41 -202,-70 -304,-87 34,63 50,135 47,206 -6,131 -20,256 -50,368 -12,43 -26,84 -43,123 60,39 129,73 199,107 133,65 269,131 378,246 86,91 149,207 199,338 47,125 81,265 110,410zm-1134 -2005c206,-42 543,46 735,137 -190,-215 -461,-338 -749,-338 -338,0 -650,169 -835,450 223,-150 488,-241 774,-253 12,0 24,0 35,0 14,1 27,2 40,4zm-863 3266c80,336 202,620 352,822 147,196 318,311 497,311 179,0 350,-115 497,-311 150,-202 272,-486 352,-822 -147,340 -485,533 -849,533 -364,0 -702,-193 -849,-533zm-310 -1182c34,-134 73,-263 127,-380 57,-121 129,-228 225,-312 125,-109 280,-172 432,-234 145,-58 286,-116 370,-204 56,-58 92,-135 117,-225 26,-98 38,-208 43,-324 3,-57 -17,-111 -57,-151 -40,-40 -94,-61 -151,-59 -347,14 -660,164 -885,399 -224,234 -362,551 -362,901 0,105 12,207 35,303 24,100 60,195 106,286z"/>
</svg>