<?xml version="1.0" encoding="UTF-8"?>
<!DOCTYPE svg PUBLIC "-//W3C//DTD SVG 1.1//EN" "http://www.w3.org/Graphics/SVG/1.1/DTD/svg11.dtd">
<svg xmlns="http://www.w3.org/2000/svg" xml:space="preserve" width="580px" height="580px" shape-rendering="geometricPrecision" text-rendering="geometricPrecision" image-rendering="optimizeQuality" fill-rule="nonzero" clip-rule="nonzero" viewBox="0 0 5800 5800" xmlns:xlink="http://www.w3.org/1999/xlink">
	<title>senior_citizen icon</title>
	<desc>senior_citizen icon from the IconExperience.com I-Collection. Copyright by INCORS GmbH (www.incors.com).</desc>
	<path id="curve0"  d="M2700 2900c-55,0 -100,-45 -100,-100 0,-55 45,-100 100,-100l400 0c55,0 100,45 100,100 0,55 -45,100 -100,100l-400 0zm650 -800c-182,0 -342,-125 -387,-300l-126 0c-45,175 -204,300 -387,300l-50 0c-220,0 -400,-180 -400,-400 0,-165 135,-300 300,-300l250 0c127,0 240,81 283,200l134 0c43,-119 156,-200 283,-200l250 0c165,0 300,135 300,300 0,221 -180,400 -400,400l-50 0zm-1417 201c33,125 96,329 175,507 51,117 107,221 163,277 21,21 30,49 29,76 -3,93 -7,189 -30,281 4,35 100,75 216,123 136,57 293,122 414,240 120,-118 277,-183 414,-240 116,-48 212,-88 216,-123 -23,-93 -27,-191 -30,-285 0,-28 11,-54 29,-72 56,-56 112,-160 163,-277 79,-178 142,-382 175,-507 7,-29 27,-52 53,-64 61,-32 102,-101 120,-181 4,-15 6,-30 8,-46 -93,-75 -148,-189 -148,-310 0,-99 37,-194 103,-267 -13,-89 -37,-181 -69,-271 -70,-197 -179,-378 -299,-483 -145,-125 -438,-187 -735,-187 -297,0 -590,62 -735,187 -120,105 -229,286 -299,483 -32,90 -56,182 -69,271 66,73 103,168 103,267 0,122 -55,235 -148,310 2,16 4,31 8,46 18,81 59,150 122,181 26,14 44,37 51,64zm14 1280c67,-41 102,-91 124,-166 20,-68 26,-146 28,-223 -63,-76 -122,-186 -174,-304 -75,-171 -137,-364 -174,-496 -96,-65 -158,-172 -186,-292 -2,-10 -53,0 -65,0 -221,0 -400,-179 -400,-400 0,-109 45,-213 123,-289 18,-16 27,-35 30,-58 24,-173 173,-303 347,-303 31,0 61,4 90,12 81,-215 205,-413 345,-533 183,-158 526,-237 865,-237 339,0 682,79 865,237 140,120 264,318 345,533 29,-8 59,-12 90,-12 174,0 323,130 347,303 3,23 13,42 30,58 78,76 123,180 123,289 0,221 -179,400 -400,400 -22,0 -43,-2 -64,-5l-1 5c-28,120 -90,227 -186,292 -37,132 -99,325 -174,496 -52,118 -111,228 -174,304 2,77 8,155 28,223 23,77 56,123 125,166 100,64 216,108 331,152 173,67 342,132 469,257 111,111 196,248 254,395 61,156 92,324 92,484 0,228 -254,376 -605,469 -464,123 -1113,162 -1495,162 -382,0 -1031,-39 -1495,-162 -351,-93 -605,-241 -605,-469 0,-160 31,-328 92,-484 58,-147 143,-284 254,-395 127,-125 296,-190 469,-257 115,-44 231,-88 332,-152zm1399 1705c328,-20 704,-63 998,-141 264,-70 456,-161 456,-276 0,-136 -26,-279 -78,-411 -48,-123 -118,-236 -209,-326 -97,-96 -246,-154 -399,-213 -58,-22 -116,-44 -173,-69 -85,462 -216,855 -377,1139 -67,118 -140,217 -218,297zm322 -1595c-18,-17 -35,-35 -49,-54 -60,42 -141,76 -228,112 -73,31 -153,64 -225,106l145 193 357 -357zm-1487 -54c-13,17 -28,34 -44,49l353 361 144 -192c-72,-42 -152,-75 -225,-106 -87,-36 -168,-70 -228,-112zm-322 213c-57,25 -115,47 -173,69 -153,59 -302,117 -399,213 -91,90 -161,203 -209,326 -52,132 -78,275 -78,411 0,115 192,206 456,276 294,78 670,121 998,141 -78,-80 -151,-179 -218,-297 -161,-284 -292,-677 -377,-1139zm214 56c80,399 196,738 337,984 61,108 125,196 193,263 9,-287 45,-649 197,-953l-100 -100 -120 160 -70 93 -81 -83 -356 -364zm1124 1247c68,-67 132,-155 193,-263 139,-244 255,-579 335,-974l-354 355 -82 81 -69 -92 -116 -156c-40,37 -80,72 -104,96 152,304 188,666 197,953zm-897 -3553c-55,0 -100,45 -100,100 0,110 90,200 200,200l50 0c177,0 214,-200 200,-200 0,-55 -45,-100 -100,-100l-250 0zm1100 300c110,0 200,-90 200,-200 0,-55 -45,-100 -100,-100l-250 0c-55,0 -100,45 -100,100 0,110 90,200 200,200m-1702 -335c-21,-23 -35,-48 -44,-75 -8,-27 -11,-56 -7,-86 7,-51 16,-102 28,-152 -83,-13 -162,43 -174,127 -9,70 -39,128 -89,176 -40,39 -62,90 -62,145 0,110 90,200 200,200 111,0 200,-89 200,-200 0,-51 -18,-98 -52,-135zm2504 0c-34,37 -52,84 -52,135 0,111 89,200 200,200 110,0 200,-90 200,-200 0,-55 -22,-106 -62,-145 -50,-48 -80,-106 -89,-176 -12,-84 -91,-140 -174,-127 12,50 21,101 28,152 8,60 -10,116 -51,161zm-1362 1835c-172,0 -296,-86 -383,-204 -112,-153 -157,-364 -157,-496 0,-226 150,-400 382,-400l536 0c232,0 382,174 382,400 0,132 -45,343 -157,496 -87,118 -211,204 -383,204l-220 0zm-222 -322c52,71 124,122 222,122l220 0c98,0 170,-51 222,-122 84,-115 118,-276 118,-378 0,-115 -60,-200 -182,-200l-536 0c-122,0 -182,85 -182,200 0,102 34,263 118,378z"/>
</svg>