<?xml version="1.0" encoding="UTF-8"?>
<!DOCTYPE svg PUBLIC "-//W3C//DTD SVG 1.1//EN" "http://www.w3.org/Graphics/SVG/1.1/DTD/svg11.dtd">
<svg xmlns="http://www.w3.org/2000/svg" xml:space="preserve" width="580px" height="580px" shape-rendering="geometricPrecision" text-rendering="geometricPrecision" image-rendering="optimizeQuality" fill-rule="nonzero" clip-rule="nonzero" viewBox="0 0 5800 5800" xmlns:xlink="http://www.w3.org/1999/xlink">
	<title>server_mail icon</title>
	<desc>server_mail icon from the IconExperience.com I-Collection. Copyright by INCORS GmbH (www.incors.com).</desc>
		<path id="curve29"  d="M1500 4300l-1200 0 0 -3700c0,-165 135,-300 300,-300l2200 0c165,0 300,135 300,300l0 1900 -400 0 0 -200 -2000 0 0 600 200 0 0 -400 600 0 0 600 -800 0 0 600 200 0 0 -400 600 0 0 1000zm-800 -2200l200 0 0 -400 1600 0 0 400 200 0 0 -600 -2000 0 0 600zm1200 -1400l0 400 800 0 0 -400 -800 0z"/>
	<path id="curve28"  d="M5484 2700l-1820 1517c-37,31 -91,31 -128,0l-1820 -1517 3768 0zm16 246l0 2411 -1368 -1271 1368 -1140zm-139 2554l-3514 0 1376 -1285 185 155c112,93 272,93 384,0l185 -155 1384 1285zm-3661 -136l0 -2418 1368 1140 -1368 1278z"/>
</svg>