<?xml version="1.0" encoding="UTF-8"?>
<!DOCTYPE svg PUBLIC "-//W3C//DTD SVG 1.1//EN" "http://www.w3.org/Graphics/SVG/1.1/DTD/svg11.dtd">
<svg xmlns="http://www.w3.org/2000/svg" xml:space="preserve" width="580px" height="580px" shape-rendering="geometricPrecision" text-rendering="geometricPrecision" image-rendering="optimizeQuality" fill-rule="nonzero" clip-rule="nonzero" viewBox="0 0 5800 5800" xmlns:xlink="http://www.w3.org/1999/xlink">
	<title>server_into icon</title>
	<desc>server_into icon from the IconExperience.com I-Collection. Copyright by INCORS GmbH (www.incors.com).</desc>
	<path id="curve0"  d="M1972 2732l869 869 -869 870 -141 -142 629 -629 -1060 0c-496,0 -900,-404 -900,-900l0 -1100 200 0 0 1100c0,385 315,700 700,700l1058 0 -627 -626 141 -142zm-272 2768l0 -877 201 201 199 -198 0 274 200 0 0 -474 126 -126 1874 0 0 600 200 0 0 -800 -1874 0 498 -499 -501 -501 1677 0 0 600 200 0 0 -800 -2077 0 -522 -521 -201 201 0 -1980c0,-165 135,-300 300,-300l2600 0c165,0 300,135 300,300l0 4900 -3200 0zm2000 -4600l0 400 800 0 0 -400 -800 0zm-1600 1600l200 0 0 -600 2000 0 0 600 200 0 0 -800 -2400 0 0 800z"/>
</svg>