<?xml version="1.0" encoding="UTF-8"?>
<!DOCTYPE svg PUBLIC "-//W3C//DTD SVG 1.1//EN" "http://www.w3.org/Graphics/SVG/1.1/DTD/svg11.dtd">
<svg xmlns="http://www.w3.org/2000/svg" xml:space="preserve" width="580px" height="580px" shape-rendering="geometricPrecision" text-rendering="geometricPrecision" image-rendering="optimizeQuality" fill-rule="nonzero" clip-rule="nonzero" viewBox="0 0 5800 5800" xmlns:xlink="http://www.w3.org/1999/xlink">
	<title>service_bell icon</title>
	<desc>service_bell icon from the IconExperience.com I-Collection. Copyright by INCORS GmbH (www.incors.com).</desc>
		<path id="curve29"  d="M3300 3700l0 200 1700 0c43,0 79,27 93,64 95,189 191,379 378,565 19,20 29,45 29,71l0 200c0,55 -45,100 -100,100l-5000 0c-55,0 -100,-45 -100,-100l0 -200c0,-28 12,-53 30,-72 189,-189 285,-381 381,-572 17,-34 51,-56 89,-56l1700 0 0 -200 800 0zm1639 400l-4078 0c-90,179 -188,359 -361,541l0 59 4800 0 0 -59c-173,-182 -271,-362 -361,-541z"/>
	<path id="curve28"  d="M4500 3200c0,-724 -576,-1300 -1300,-1300l0 -200c835,0 1500,665 1500,1500l-200 0zm-1500 -2294l0 394 200 0c1016,0 1846,786 1897,1800l103 0c59,0 105,50 100,109l0 391c0,55 -45,100 -100,100l-4600 0c-55,0 -100,-45 -100,-100l0 -400c0,-55 45,-100 100,-100l103 0c51,-1014 881,-1800 1897,-1800l200 0 0 -394 -200 0 0 -200 602 0 0 200 -202 0zm200 594l-600 0c-945,0 -1700,755 -1700,1700 0,55 -45,100 -100,100l-100 0 0 200 4400 0 0 -200 -100 0c-55,0 -100,-45 -100,-100 0,-945 -755,-1700 -1700,-1700z"/>
</svg>