<?xml version="1.0" encoding="UTF-8"?>
<!DOCTYPE svg PUBLIC "-//W3C//DTD SVG 1.1//EN" "http://www.w3.org/Graphics/SVG/1.1/DTD/svg11.dtd">
<svg xmlns="http://www.w3.org/2000/svg" xml:space="preserve" width="580px" height="580px" shape-rendering="geometricPrecision" text-rendering="geometricPrecision" image-rendering="optimizeQuality" fill-rule="nonzero" clip-rule="nonzero" viewBox="0 0 5800 5800" xmlns:xlink="http://www.w3.org/1999/xlink">
	<title>server_client_exchange icon</title>
	<desc>server_client_exchange icon from the IconExperience.com I-Collection. Copyright by INCORS GmbH (www.incors.com).</desc>
		<path id="curve30"  d="M300 4300l0 -3700c0,-165 135,-300 300,-300l2200 0c165,0 300,135 300,300l0 1500 -200 0 0 -1500c0,-55 -45,-100 -100,-100l-2200 0c-55,0 -100,45 -100,100l0 3500 205 0c6,69 18,136 37,200l-442 0zm1600 -3600l800 0 0 400 -800 0 0 -400zm-600 2400l600 0 0 200 -600 0 0 -200zm-600 -200l0 -600 1200 0 0 200 -1000 0 0 400 -200 0zm0 -800l0 -600 2000 0 0 600 -200 0 0 -400 -1600 0 0 400 -200 0z"/>
	<path id="curve29"  d="M2900 5300l700 0 0 -400 -676 0 100 -100 -100 -100 2376 0c0,-800 -1,-1601 -1,-2400l201 0 0 2600 -1700 0 0 400 700 0 0 200 -1600 0 0 -200zm-800 -1424l0 -1576 2601 0 0 200 -2401 0 0 1576 -200 -200z"/>
	<path id="curve28"  d="M1971 4029l770 771 -770 771 -142 -142 530 -529 -559 0c-496,0 -900,-404 -900,-900l0 -700 200 0 0 700c0,385 315,700 700,700l559 0 -530 -529 142 -142zm2929 -1529l0 -700c0,-385 -315,-700 -700,-700l-559 0 530 529 -142 142 -770 -771 770 -771 142 142 -530 529 559 0c496,0 900,404 900,900l0 700 -200 0z"/>
</svg>