<?xml version="1.0" encoding="UTF-8"?>
<!DOCTYPE svg PUBLIC "-//W3C//DTD SVG 1.1//EN" "http://www.w3.org/Graphics/SVG/1.1/DTD/svg11.dtd">
<svg xmlns="http://www.w3.org/2000/svg" xml:space="preserve" width="580px" height="580px" shape-rendering="geometricPrecision" text-rendering="geometricPrecision" image-rendering="optimizeQuality" fill-rule="nonzero" clip-rule="nonzero" viewBox="0 0 5800 5800" xmlns:xlink="http://www.w3.org/1999/xlink">
	<title>server_earth icon</title>
	<desc>server_earth icon from the IconExperience.com I-Collection. Copyright by INCORS GmbH (www.incors.com).</desc>
		<path id="curve29"  d="M300 5500l0 -3500c0,-165 135,-300 300,-300l2000 0c165,0 300,135 300,300l0 3500 -2600 0zm400 -400l200 0 0 -400 1400 0 0 400 200 0 0 -600c-600,0 -1200,0 -1800,0l0 600zm0 -800l200 0 0 -400 1400 0 0 400 200 0 0 -600c-600,0 -1200,0 -1800,0l0 600zm0 -800l200 0 0 -400 1400 0 0 400 200 0 0 -600 -1800 0 0 600zm1000 -1400l0 400 800 0 0 -400 -800 0z"/>
	<path id="curve28"  d="M3500 300c1105,0 2000,895 2000,2000 0,1105 -895,2000 -2000,2000 -137,0 -271,-14 -400,-40l0 -2260c0,-275 -225,-500 -500,-500l-574 0c3,-6 7,-10 11,-13 88,-70 165,-160 283,-176 34,-5 14,-122 66,-150 86,-46 92,118 192,11 47,-50 -53,-201 -43,-250 22,-108 132,-105 129,-140 0,-2 -40,-16 -74,-35 -301,176 -547,439 -703,753l-220 0c308,-706 1013,-1200 1833,-1200zm0 200c-215,0 -422,38 -613,107 21,3 37,8 44,18 27,36 -110,271 -17,249 59,-13 147,-103 249,-147 100,-43 190,-20 289,-56 134,-49 159,-129 199,-153 6,-3 11,-7 15,-10 -55,-5 -110,-8 -166,-8zm796 185c-37,17 -76,59 -107,74 -48,23 -139,34 -166,88 -33,67 67,132 5,173 -52,35 -70,72 -105,82 -85,24 -157,-19 -245,52 -92,73 -90,242 -20,276 72,35 178,53 225,-16 28,-40 97,-126 133,-143 74,-35 121,30 170,55 94,48 174,74 158,115 -30,78 83,21 71,-22 -10,-39 -88,-50 -142,-122 -17,-22 87,-42 122,7 32,46 76,134 101,162 30,34 235,-12 322,82 36,39 18,120 -29,144 -79,39 -122,9 -212,-7 -17,-3 -137,2 -154,0 -147,-25 -88,-182 -231,-231 -28,-10 -159,-7 -212,11 -228,81 -230,-61 -357,162 -15,28 -108,88 -154,153 -33,46 -61,103 -65,164 -3,40 -25,227 -22,241 29,146 162,286 301,341 69,28 197,-37 285,-66 97,-34 103,4 144,76 72,126 53,10 86,188 11,62 93,175 91,245 -2,108 -44,128 -57,222 -1,11 117,393 132,411 72,91 280,-128 385,-286 17,-26 180,-312 183,-321 68,-204 -105,-150 197,-538 99,-127 -69,-201 -1,-292 10,-14 74,-19 102,-66 21,-35 30,-85 41,-122 -103,-568 -473,-1044 -975,-1292z"/>
</svg>