<?xml version="1.0" encoding="UTF-8"?>
<!DOCTYPE svg PUBLIC "-//W3C//DTD SVG 1.1//EN" "http://www.w3.org/Graphics/SVG/1.1/DTD/svg11.dtd">
<svg xmlns="http://www.w3.org/2000/svg" xml:space="preserve" width="580px" height="580px" shape-rendering="geometricPrecision" text-rendering="geometricPrecision" image-rendering="optimizeQuality" fill-rule="nonzero" clip-rule="nonzero" viewBox="0 0 5800 5800" xmlns:xlink="http://www.w3.org/1999/xlink">
	<title>server_out icon</title>
	<desc>server_out icon from the IconExperience.com I-Collection. Copyright by INCORS GmbH (www.incors.com).</desc>
	<path id="curve0"  d="M3732 2428l869 -869 870 869 -142 141 -629 -629 0 1060c0,496 -404,900 -900,900l-1100 0 0 -200 1100 0c385,0 700,-315 700,-700l0 -1058 -626 627 -142 -141zm-2432 2472l0 -800c800,0 1600,0 2400,0l0 800 -200 0 0 -600 -2000 0 0 600 -200 0zm-400 600l0 -4900c0,-165 135,-300 300,-300l2600 0c165,0 300,135 300,300l0 1177 -200 200 0 -1377c0,-55 -45,-100 -100,-100l-2600 0c-55,0 -100,45 -100,100l0 4700 2800 0 0 -1205c69,-6 136,-18 200,-37l0 1442 -3200 0zm3000 -2010l0 -664 200 -200 0 773c-58,44 -126,76 -200,91zm-2600 -990l0 -800 2400 0 0 477 -200 200 0 -477 -2000 0 0 600 -200 0zm1600 -1600l800 0 0 400 -800 0 0 -400zm-1600 2800l0 -800 2400 0 0 600 -200 0 0 -400 -2000 0 0 600 -200 0z"/>
</svg>