<?xml version="1.0" encoding="UTF-8"?>
<!DOCTYPE svg PUBLIC "-//W3C//DTD SVG 1.1//EN" "http://www.w3.org/Graphics/SVG/1.1/DTD/svg11.dtd">
<svg xmlns="http://www.w3.org/2000/svg" xml:space="preserve" width="580px" height="580px" shape-rendering="geometricPrecision" text-rendering="geometricPrecision" image-rendering="optimizeQuality" fill-rule="nonzero" clip-rule="nonzero" viewBox="0 0 5800 5800" xmlns:xlink="http://www.w3.org/1999/xlink">
	<title>server_network icon</title>
	<desc>server_network icon from the IconExperience.com I-Collection. Copyright by INCORS GmbH (www.incors.com).</desc>
		<path id="curve28"  d="M3100 900l0 400 800 0 0 -400 -800 0zm-100 4300l100 0 0 100 1000 0 0 200 -1000 0 0 100c-133,0 -267,0 -400,0l0 -100 -1000 0 0 -200 1000 0 0 -100 100 0 0 -700 -1300 0 0 -3700c0,-165 135,-300 300,-300l2200 0c165,0 300,135 300,300l0 3700 -1300 0 0 700zm-1100 -1300l200 0 0 -400 1600 0 0 400 200 0 0 -600 -2000 0 0 600zm0 -800l200 0 0 -400 1600 0 0 400 200 0 0 -600 -2000 0 0 600zm0 -800l200 0 0 -400 1600 0 0 400 200 0 0 -600 -2000 0 0 600z"/>
</svg>