<?xml version="1.0" encoding="UTF-8"?>
<!DOCTYPE svg PUBLIC "-//W3C//DTD SVG 1.1//EN" "http://www.w3.org/Graphics/SVG/1.1/DTD/svg11.dtd">
<svg xmlns="http://www.w3.org/2000/svg" xml:space="preserve" width="580px" height="580px" shape-rendering="geometricPrecision" text-rendering="geometricPrecision" image-rendering="optimizeQuality" fill-rule="nonzero" clip-rule="nonzero" viewBox="0 0 5800 5800" xmlns:xlink="http://www.w3.org/1999/xlink">
	<title>server_mail icon</title>
	<desc>server_mail icon from the IconExperience.com I-Collection. Copyright by INCORS GmbH (www.incors.com).</desc>
		<path id="curve29" d="M300 4300l0 -3700c0,-165 135,-300 300,-300l2200 0c165,0 300,135 300,300l0 1900 -200 0 0 -1900c0,-55 -45,-100 -100,-100l-2200 0c-55,0 -100,45 -100,100l0 3500 1000 0 0 200 -1200 0zm1600 -3600l800 0 0 400 -800 0 0 -400zm-1200 3000l0 -600 800 0 0 200 -600 0 0 400 -200 0zm0 -800l0 -600 2000 0 0 200 -1800 0 0 400 -200 0zm0 -800l0 -600 2000 0 0 600 -200 0 0 -400 -1600 0 0 400 -200 0z"/>
	<path id="curve28" d="M5146 5300l-1169 -1085 -185 155c-112,93 -272,93 -384,0l-185 -155 -1162 1085 3085 0zm-3246 -123l1168 -1091 -1168 -973 0 2064zm-200 -2477l3800 0c0,934 0,1867 0,2800l-3800 0c0,-933 0,-1867 0,-2800zm3600 413l-1168 973 1168 1085 0 -2058zm-56 -213l-3288 0 1580 1317c37,31 91,31 128,0l1580 -1317z"/>
</svg>