<?xml version="1.0" encoding="UTF-8"?>
<!DOCTYPE svg PUBLIC "-//W3C//DTD SVG 1.1//EN" "http://www.w3.org/Graphics/SVG/1.1/DTD/svg11.dtd">
<svg xmlns="http://www.w3.org/2000/svg" xml:space="preserve" width="580px" height="580px" shape-rendering="geometricPrecision" text-rendering="geometricPrecision" image-rendering="optimizeQuality" fill-rule="nonzero" clip-rule="nonzero" viewBox="0 0 5800 5800" xmlns:xlink="http://www.w3.org/1999/xlink">
	<title>server icon</title>
	<desc>server icon from the IconExperience.com I-Collection. Copyright by INCORS GmbH (www.incors.com).</desc>
		<path id="curve28"  d="M1300 5500l0 -4900c0,-165 135,-300 300,-300l2600 0c165,0 300,135 300,300l0 4900 -3200 0zm400 -3000l200 0 0 -600 2000 0 0 600 200 0 0 -800 -2400 0 0 800zm0 1200l200 0 0 -600 2000 0 0 600 200 0 0 -800 -2400 0 0 800zm0 1200l200 0 0 -600 2000 0 0 600 200 0 0 -800 -2400 0 0 800zm1600 -4000l0 400 800 0 0 -400 -800 0z"/>
</svg>