<?xml version="1.0" encoding="UTF-8"?>
<!DOCTYPE svg PUBLIC "-//W3C//DTD SVG 1.1//EN" "http://www.w3.org/Graphics/SVG/1.1/DTD/svg11.dtd">
<svg xmlns="http://www.w3.org/2000/svg" xml:space="preserve" width="580px" height="580px" shape-rendering="geometricPrecision" text-rendering="geometricPrecision" image-rendering="optimizeQuality" fill-rule="nonzero" clip-rule="nonzero" viewBox="0 0 5800 5800" xmlns:xlink="http://www.w3.org/1999/xlink">
	<title>server_out icon</title>
	<desc>server_out icon from the IconExperience.com I-Collection. Copyright by INCORS GmbH (www.incors.com).</desc>
	<path id="curve0"  d="M3732 2428l869 -869 870 869 -142 141 -629 -629 0 1060c0,496 -404,900 -900,900l-1100 0 0 -200 1100 0c385,0 700,-315 700,-700l0 -1058 -626 627 -142 -141zm-2832 3072l0 -4900c0,-165 135,-300 300,-300l2600 0c165,0 300,135 300,300l0 1177 -400 400 0 -477 -2400 0 0 800 200 0 0 -600 2000 0 0 477 -121 122 424 424 212 -212 85 -85 0 773c-84,63 -188,101 -300,101l-100 0 0 -600 -2400 0 0 800 200 0 0 -600 2000 0 0 400 -1100 0 0 600 -1100 0 0 800 200 0 0 -600 2000 0 0 600 200 0 0 -800 100 0c104,0 205,-15 300,-42l0 1442 -3200 0zm2000 -4600l0 400 800 0 0 -400 -800 0z"/>
</svg>