<?xml version="1.0" encoding="UTF-8"?>
<!DOCTYPE svg PUBLIC "-//W3C//DTD SVG 1.1//EN" "http://www.w3.org/Graphics/SVG/1.1/DTD/svg11.dtd">
<svg xmlns="http://www.w3.org/2000/svg" xml:space="preserve" width="580px" height="580px" shape-rendering="geometricPrecision" text-rendering="geometricPrecision" image-rendering="optimizeQuality" fill-rule="nonzero" clip-rule="nonzero" viewBox="0 0 5800 5800" xmlns:xlink="http://www.w3.org/1999/xlink">
	<title>server_client icon</title>
	<desc>server_client icon from the IconExperience.com I-Collection. Copyright by INCORS GmbH (www.incors.com).</desc>
		<path id="curve29"  d="M1900 700l800 0 0 400 -800 0 0 -400zm-1200 3000l0 -600 1200 0 0 -600 -1000 0 0 400 -200 0 0 -600 1200 0 0 -200 600 0 0 -400 -1600 0 0 400 -200 0 0 -600 2000 0 0 600 400 0 0 -1500c0,-165 -135,-300 -300,-300l-2200 0c-165,0 -300,135 -300,300l0 3700 1600 0 0 -1000 -1000 0 0 400 -200 0z"/>
	<path id="curve28"  d="M5500 2300c0,867 0,1733 0,2600l-1700 0 0 400 700 0 0 200 -1600 0 0 -200 700 0 0 -400 -1500 0c0,-867 0,-1733 0,-2600 1133,0 2267,0 3400,0z"/>
</svg>