<?xml version="1.0" encoding="UTF-8"?>
<!DOCTYPE svg PUBLIC "-//W3C//DTD SVG 1.1//EN" "http://www.w3.org/Graphics/SVG/1.1/DTD/svg11.dtd">
<svg xmlns="http://www.w3.org/2000/svg" xml:space="preserve" width="580px" height="580px" shape-rendering="geometricPrecision" text-rendering="geometricPrecision" image-rendering="optimizeQuality" fill-rule="nonzero" clip-rule="nonzero" viewBox="0 0 5800 5800" xmlns:xlink="http://www.w3.org/1999/xlink">
	<title>server_network icon</title>
	<desc>server_network icon from the IconExperience.com I-Collection. Copyright by INCORS GmbH (www.incors.com).</desc>
		<path id="curve28" d="M3100 900l800 0 0 400 -800 0 0 -400zm-100 3600l0 700 100 0 0 100 1000 0 0 200 -1000 0 0 100c-133,0 -267,0 -400,0l0 -100 -1000 0 0 -200 1000 0 0 -100 100 0 0 -700 -1300 0 0 -3700c0,-165 135,-300 300,-300l2200 0c165,0 300,135 300,300l0 3700 -1300 0zm-1300 -200l2400 0 0 -3500c0,-55 -45,-100 -100,-100l-2200 0c-55,0 -100,45 -100,100l0 3500zm200 -2000l0 -600 2000 0 0 600 -200 0 0 -400 -1600 0 0 400 -200 0zm0 800l0 -600 2000 0 0 600 -200 0 0 -400 -1600 0 0 400 -200 0zm0 800l0 -600 2000 0 0 600 -200 0 0 -400 -1600 0 0 400 -200 0z"/>
</svg>