<?xml version="1.0" encoding="UTF-8"?>
<!DOCTYPE svg PUBLIC "-//W3C//DTD SVG 1.1//EN" "http://www.w3.org/Graphics/SVG/1.1/DTD/svg11.dtd">
<svg xmlns="http://www.w3.org/2000/svg" xml:space="preserve" width="580px" height="580px" shape-rendering="geometricPrecision" text-rendering="geometricPrecision" image-rendering="optimizeQuality" fill-rule="nonzero" clip-rule="nonzero" viewBox="0 0 5800 5800" xmlns:xlink="http://www.w3.org/1999/xlink">
	<title>server icon</title>
	<desc>server icon from the IconExperience.com I-Collection. Copyright by INCORS GmbH (www.incors.com).</desc>
		<path id="curve28" d="M3300 900l800 0 0 400 -800 0 0 -400zm-2000 4600l0 -4900c0,-165 135,-300 300,-300l2600 0c165,0 300,135 300,300l0 4900 -3200 0zm200 -200l2800 0 0 -4700c0,-55 -45,-100 -100,-100l-2600 0c-55,0 -100,45 -100,100l0 4700zm200 -2800l0 -800 2400 0 0 800 -200 0 0 -600 -2000 0 0 600 -200 0zm0 1200l0 -800 2400 0 0 800 -200 0 0 -600 -2000 0 0 600 -200 0zm0 1200l0 -800 2400 0 0 800 -200 0 0 -600 -2000 0 0 600 -200 0z"/>
</svg>