<?xml version="1.0" encoding="UTF-8"?>
<!DOCTYPE svg PUBLIC "-//W3C//DTD SVG 1.1//EN" "http://www.w3.org/Graphics/SVG/1.1/DTD/svg11.dtd">
<svg xmlns="http://www.w3.org/2000/svg" xml:space="preserve" width="580px" height="580px" shape-rendering="geometricPrecision" text-rendering="geometricPrecision" image-rendering="optimizeQuality" fill-rule="nonzero" clip-rule="nonzero" viewBox="0 0 5800 5800" xmlns:xlink="http://www.w3.org/1999/xlink">
	<title>server2 icon</title>
	<desc>server2 icon from the IconExperience.com I-Collection. Copyright by INCORS GmbH (www.incors.com).</desc>
		<path id="curve28"  d="M4100 3300l0 600 -2400 0c0,-200 0,-400 0,-600l2400 0zm-2800 2200l0 -4900c0,-165 135,-300 300,-300l2600 0c165,0 300,135 300,300l0 4900 -3200 0zm200 -200l2800 0 0 -4700c0,-55 -45,-100 -100,-100l-2600 0c-55,0 -100,45 -100,100l0 4700zm1400 -1000c221,0 400,180 400,400 0,221 -179,400 -400,400 -220,0 -400,-180 -400,-400 0,-221 179,-400 400,-400zm0 200c-111,0 -200,89 -200,200 0,111 89,200 200,200 110,0 200,-90 200,-200 0,-111 -89,-200 -200,-200zm1200 -3600l0 600 -2400 0c0,-200 0,-400 0,-600l2400 0zm-200 200l-2000 0 0 200 2000 0 0 -200zm200 600l0 600 -2400 0c0,-200 0,-400 0,-600l2400 0zm-200 200l-2000 0 0 200 2000 0 0 -200zm200 600l0 600 -2400 0 0 -600 2400 0zm-200 200l-2000 0 0 200 2000 0 0 -200zm0 800l-2000 0 0 200 2000 0 0 -200z"/>
</svg>