<?xml version="1.0" encoding="UTF-8"?>
<!DOCTYPE svg PUBLIC "-//W3C//DTD SVG 1.1//EN" "http://www.w3.org/Graphics/SVG/1.1/DTD/svg11.dtd">
<svg xmlns="http://www.w3.org/2000/svg" xml:space="preserve" width="580px" height="580px" shape-rendering="geometricPrecision" text-rendering="geometricPrecision" image-rendering="optimizeQuality" fill-rule="nonzero" clip-rule="nonzero" viewBox="0 0 5800 5800" xmlns:xlink="http://www.w3.org/1999/xlink">
	<title>server_id_card icon</title>
	<desc>server_id_card icon from the IconExperience.com I-Collection. Copyright by INCORS GmbH (www.incors.com).</desc>
		<path id="curve28"  d="M2000 2500l3000 0c276,0 500,224 500,500l0 2000c0,276 -224,500 -500,500l-3000 0c-275,0 -500,-224 -500,-500l0 -2000c0,-276 224,-500 500,-500zm-100 -1800l800 0 0 400 -800 0 0 -400zm-1200 3000l0 -600 600 0 0 -100c0,-196 81,-373 211,-500l-611 0 0 400 -200 0 0 -600 2400 0 0 -1700c0,-165 -135,-300 -300,-300l-2200 0c-165,0 -300,135 -300,300l0 3700 1000 0 0 -1000 -400 0 0 400 -200 0zm0 -1600l0 -600 2000 0 0 600 -200 0 0 -400 -1600 0 0 400 -200 0zm4400 900l-1600 0 0 2000 1600 0 0 -2000zm-200 200l0 1600 -10 0c-30,-123 -84,-168 -197,-209 -61,-22 -97,-24 -153,-58 -55,-31 -59,-122 -60,-178 48,-46 92,-147 109,-210 57,-27 76,-98 59,-154l12 -183c13,-129 -146,-275 -278,-212 -34,-22 -55,-33 -97,-40 -168,-26 -349,74 -345,254l12 181c-17,56 3,127 59,154 17,64 62,165 109,210 0,55 -7,148 -60,178 -56,34 -92,36 -153,58 -113,41 -167,86 -197,209l-10 0 0 -1600 1200 0zm-3000 1300l0 200 1000 0 0 -200 -1000 0zm0 -600l0 200 1400 0 0 -200 -1400 0zm0 -600l0 200 1400 0 0 -200 -1400 0z"/>
</svg>