<?xml version="1.0" encoding="UTF-8"?>
<!DOCTYPE svg PUBLIC "-//W3C//DTD SVG 1.1//EN" "http://www.w3.org/Graphics/SVG/1.1/DTD/svg11.dtd">
<svg xmlns="http://www.w3.org/2000/svg" xml:space="preserve" width="580px" height="580px" shape-rendering="geometricPrecision" text-rendering="geometricPrecision" image-rendering="optimizeQuality" fill-rule="nonzero" clip-rule="nonzero" viewBox="0 0 5800 5800" xmlns:xlink="http://www.w3.org/1999/xlink">
	<title>server_mail_download icon</title>
	<desc>server_mail_download icon from the IconExperience.com I-Collection. Copyright by INCORS GmbH (www.incors.com).</desc>
		<path id="curve30"  d="M300 4300l0 -3700c0,-165 135,-300 300,-300l2200 0c165,0 300,135 300,300l0 1900 -200 0 0 -1900c0,-55 -45,-100 -100,-100l-2200 0c-55,0 -100,45 -100,100l0 3500 205 0c6,69 18,136 37,200l-442 0zm1600 -3600l800 0 0 400 -800 0 0 -400zm-1200 2200l0 -600 2000 0 0 200c-600,0 -1200,0 -1800,0l0 400 -200 0zm0 -800l0 -600 2000 0 0 600 -200 0 0 -400 -1600 0 0 400 -200 0z"/>
	<path id="curve29"  d="M5146 5300l-1169 -1085 -185 155c-112,93 -272,93 -384,0l-185 -155 -405 378 -142 -141 392 -366 -1168 -973 0 587 -200 200 0 -1200 3800 0c0,934 0,1867 0,2800l-3176 0 200 -200 2622 0zm154 -2187l-1168 973 1168 1085 0 -2058zm-56 -213l-3288 0 1580 1317c37,31 91,31 128,0l1580 -1317z"/>
	<path id="curve28"  d="M1100 3300l0 700c0,385 315,700 700,700l559 0 -530 -529 142 -142 770 771 -770 771 -142 -142 530 -529 -559 0c-496,0 -900,-404 -900,-900l0 -700 200 0z"/>
</svg>