<?xml version="1.0" encoding="UTF-8"?>
<!DOCTYPE svg PUBLIC "-//W3C//DTD SVG 1.1//EN" "http://www.w3.org/Graphics/SVG/1.1/DTD/svg11.dtd">
<svg xmlns="http://www.w3.org/2000/svg" xml:space="preserve" width="580px" height="580px" shape-rendering="geometricPrecision" text-rendering="geometricPrecision" image-rendering="optimizeQuality" fill-rule="nonzero" clip-rule="nonzero" viewBox="0 0 5800 5800" xmlns:xlink="http://www.w3.org/1999/xlink">
	<title>server2 icon</title>
	<desc>server2 icon from the IconExperience.com I-Collection. Copyright by INCORS GmbH (www.incors.com).</desc>
		<path id="curve28"  d="M4400 5500l-3000 0 -100 0 0 -100 0 -4800c0,-165 135,-300 300,-300l2600 0c165,0 300,135 300,300l0 4800 0 100 -100 0zm-300 -2200c-800,0 -1600,0 -2400,0 0,200 0,400 0,600 800,0 1600,0 2400,0 0,-200 0,-400 0,-600zm0 -800c-800,0 -1600,0 -2400,0 0,200 0,400 0,600 800,0 1600,0 2400,0 0,-200 0,-400 0,-600zm0 -800c-800,0 -1600,0 -2400,0 0,200 0,400 0,600 800,0 1600,0 2400,0 0,-200 0,-400 0,-600zm0 -800c-800,0 -1600,0 -2400,0 0,200 0,400 0,600 800,0 1600,0 2400,0 0,-200 0,-400 0,-600zm-1200 3400c-221,0 -400,179 -400,400 0,220 180,400 400,400 221,0 400,-179 400,-400 0,-220 -179,-400 -400,-400zm0 200c-111,0 -200,89 -200,200 0,111 89,200 200,200 110,0 200,-90 200,-200 0,-111 -89,-200 -200,-200z"/>
</svg>