<?xml version="1.0" encoding="UTF-8"?>
<!DOCTYPE svg PUBLIC "-//W3C//DTD SVG 1.1//EN" "http://www.w3.org/Graphics/SVG/1.1/DTD/svg11.dtd">
<svg xmlns="http://www.w3.org/2000/svg" xml:space="preserve" width="580px" height="580px" shape-rendering="geometricPrecision" text-rendering="geometricPrecision" image-rendering="optimizeQuality" fill-rule="nonzero" clip-rule="nonzero" viewBox="0 0 5800 5800" xmlns:xlink="http://www.w3.org/1999/xlink">
	<title>server_mail_upload icon</title>
	<desc>server_mail_upload icon from the IconExperience.com I-Collection. Copyright by INCORS GmbH (www.incors.com).</desc>
		<path id="curve30"  d="M1900 700l800 0 0 176 381 -381c-44,-117 -155,-195 -281,-195l-2200 0c-80,0 -155,32 -212,88 -54,55 -88,130 -88,212l0 3600 0 100 100 0 1100 0 0 -1000 -600 0 0 400 -200 0 0 -600 800 0 0 -600 -600 0 0 400 -200 0 0 -600 2000 0 0 200 400 0 0 -976 -424 -424 -776 0 0 -400zm-1200 1400l0 -600 2000 0 0 600 -200 0 0 -400 -1600 0 0 400 -200 0z"/>
	<path id="curve29"  d="M5484 2700l-1820 1517c-37,31 -91,31 -128,0l-1820 -1517 3768 0zm16 246l0 2411 -1368 -1271 1368 -1140zm-139 2554l-3514 0 1376 -1285 185 155c112,93 272,93 384,0l185 -155 1384 1285zm-3661 -136l0 -2418 1368 1140 -1368 1278z"/>
	<path id="curve28"  d="M3629 1771l-770 -771 770 -771 142 142 -530 529 559 0c496,0 900,404 900,900l0 700 -200 0 0 -700c0,-385 -315,-700 -700,-700l-559 0 530 529 -142 142z"/>
</svg>