<?xml version="1.0" encoding="UTF-8"?>
<!DOCTYPE svg PUBLIC "-//W3C//DTD SVG 1.1//EN" "http://www.w3.org/Graphics/SVG/1.1/DTD/svg11.dtd">
<svg xmlns="http://www.w3.org/2000/svg" xml:space="preserve" width="580px" height="580px" shape-rendering="geometricPrecision" text-rendering="geometricPrecision" image-rendering="optimizeQuality" fill-rule="nonzero" clip-rule="nonzero" viewBox="0 0 5800 5800" xmlns:xlink="http://www.w3.org/1999/xlink">
	<title>server_id_card icon</title>
	<desc>server_id_card icon from the IconExperience.com I-Collection. Copyright by INCORS GmbH (www.incors.com).</desc>
		<path id="curve29"  d="M300 4300l0 -3700c0,-165 135,-300 300,-300l2200 0c165,0 300,135 300,300l0 1700 -200 0 0 -1700c0,-55 -45,-100 -100,-100l-2200 0c-55,0 -100,45 -100,100l0 3500 800 0 0 200 -1000 0zm1600 -3600l800 0 0 400 -800 0 0 -400zm-1200 3000l0 -600 600 0 0 200 -400 0 0 400 -200 0zm0 -800l0 -600 1300 0c-190,0 -363,76 -489,200l-611 0 0 400 -200 0zm0 -800l0 -600 2000 0 0 600 -200 0 0 -400 -1600 0 0 400 -200 0z"/>
	<path id="curve28"  d="M5100 3000l0 2000 -1600 0 0 -2000 1600 0zm-200 200l-1200 0 0 1600 10 0c14,-57 42,-112 85,-153 28,-27 75,-43 112,-56 61,-22 97,-24 153,-58 53,-30 60,-123 60,-178 -47,-45 -92,-146 -109,-210 -56,-27 -76,-98 -59,-154l-12 -181c-4,-180 178,-280 345,-254 42,7 63,18 97,40 132,-63 291,83 278,212l-12 183c17,56 -2,127 -59,154 -17,63 -61,164 -109,210 1,56 5,147 60,178 56,34 92,36 153,58 37,13 84,29 112,56 43,41 71,96 85,153l10 0 0 -1600zm100 -700c276,0 500,224 500,500l0 2000c0,275 -225,500 -500,500l-3000 0c-275,0 -500,-225 -500,-500l0 -2000c0,-276 224,-500 500,-500l3000 0zm-3100 2000l1000 0 0 200 -1000 0 0 -200zm0 -600l1400 0 0 200 -1400 0 0 -200zm0 -600l1400 0 0 200 -1400 0 0 -200zm100 -600c-165,0 -300,135 -300,300l0 2000c0,165 135,300 300,300l3000 0c165,0 300,-135 300,-300l0 -2000c0,-165 -135,-300 -300,-300l-3000 0z"/>
</svg>