<?xml version="1.0" encoding="UTF-8"?>
<!DOCTYPE svg PUBLIC "-//W3C//DTD SVG 1.1//EN" "http://www.w3.org/Graphics/SVG/1.1/DTD/svg11.dtd">
<svg xmlns="http://www.w3.org/2000/svg" xml:space="preserve" width="580px" height="580px" shape-rendering="geometricPrecision" text-rendering="geometricPrecision" image-rendering="optimizeQuality" fill-rule="nonzero" clip-rule="nonzero" viewBox="0 0 5800 5800" xmlns:xlink="http://www.w3.org/1999/xlink">
	<title>server_cloud icon</title>
	<desc>server_cloud icon from the IconExperience.com I-Collection. Copyright by INCORS GmbH (www.incors.com).</desc>
		<path id="curve28"  d="M1594 1300c95,-547 501,-945 1062,-995 40,-3 79,-5 120,-5 435,0 734,205 986,544 326,-103 685,-53 947,173 284,244 363,612 295,970 340,171 496,436 496,818 0,478 -369,895 -857,895l-1343 0 0 -1900c0,-275 -225,-500 -500,-500l-1206 0zm306 600l0 400 800 0 0 -400 -800 0zm-1200 3000l200 0 0 -400 1600 0 0 400 200 0 0 -600 -2000 0 0 600zm0 -800l200 0 0 -400 1600 0 0 400 200 0 0 -600 -2000 0 0 600zm0 -800l200 0 0 -400 1600 0 0 400 200 0 0 -600 -2000 0 0 600zm-400 2200l0 -3700c0,-165 135,-300 300,-300l2200 0c165,0 300,135 300,300l0 3700 -2800 0z"/>
</svg>