<?xml version="1.0" encoding="UTF-8"?>
<!DOCTYPE svg PUBLIC "-//W3C//DTD SVG 1.1//EN" "http://www.w3.org/Graphics/SVG/1.1/DTD/svg11.dtd">
<svg xmlns="http://www.w3.org/2000/svg" xml:space="preserve" width="580px" height="580px" shape-rendering="geometricPrecision" text-rendering="geometricPrecision" image-rendering="optimizeQuality" fill-rule="nonzero" clip-rule="nonzero" viewBox="0 0 5800 5800" xmlns:xlink="http://www.w3.org/1999/xlink">
	<title>server_mail_download icon</title>
	<desc>server_mail_download icon from the IconExperience.com I-Collection. Copyright by INCORS GmbH (www.incors.com).</desc>
		<path id="curve30"  d="M1900 700l800 0 0 400 -800 0 0 -400zm-1200 2400l800 0 0 -600 -600 0 0 400 -200 0 0 -600 2000 0 0 200 400 0 0 -1900c0,-165 -135,-300 -300,-300l-2200 0c-165,0 -300,135 -300,300l0 3700 442 0c-27,-95 -42,-196 -42,-300l0 -900zm610 1000l190 0 0 -800 -201 0 1 700c0,34 3,68 10,100zm-610 -2000l0 -600 2000 0 0 600 -200 0 0 -400 -1600 0 0 400 -200 0z"/>
	<path id="curve29"  d="M5484 2700l-1820 1517c-37,31 -91,31 -128,0l-1820 -1517 3768 0zm16 246l0 2411 -1368 -1271 1368 -1140zm-139 2554l-3037 0 700 -700 -206 -207 405 -378 185 155c112,93 272,93 384,0l185 -155 1384 1285zm-3661 -1600l0 -954 1368 1140 -392 366 -764 -764 -212 212z"/>
	<path id="curve28"  d="M1100 3300l0 700c0,385 315,700 700,700l559 0 -530 -529 142 -142 770 771 -770 771 -142 -142 530 -529 -559 0c-496,0 -900,-404 -900,-900l0 -700 200 0z"/>
</svg>