<?xml version="1.0" encoding="UTF-8"?>
<!DOCTYPE svg PUBLIC "-//W3C//DTD SVG 1.1//EN" "http://www.w3.org/Graphics/SVG/1.1/DTD/svg11.dtd">
<svg xmlns="http://www.w3.org/2000/svg" xml:space="preserve" width="580px" height="580px" shape-rendering="geometricPrecision" text-rendering="geometricPrecision" image-rendering="optimizeQuality" fill-rule="nonzero" clip-rule="nonzero" viewBox="0 0 5800 5800" xmlns:xlink="http://www.w3.org/1999/xlink">
	<title>service_bell icon</title>
	<desc>service_bell icon from the IconExperience.com I-Collection. Copyright by INCORS GmbH (www.incors.com).</desc>
		<path id="curve29"  d="M2500 3900l0 -100 800 0 0 100 1700 0c43,0 79,27 93,64 95,189 191,379 378,565 19,20 29,45 29,71l0 200c0,55 -45,100 -100,100l-5000 0c-55,0 -100,-45 -100,-100l0 -200c0,-28 12,-53 30,-72 189,-189 285,-381 381,-572 17,-34 51,-56 89,-56l1700 0z"/>
	<path id="curve28"  d="M3000 906l0 394 200 0c528,0 1003,211 1346,554 321,322 527,759 551,1246l103 0c55,0 100,45 100,100 0,133 0,267 0,400 0,55 -45,100 -100,100l-4600 0c-55,0 -100,-45 -100,-100l0 -400c0,-55 45,-100 100,-100l103 0c24,-487 230,-924 551,-1246 343,-343 818,-554 1346,-554l200 0 0 -394 -200 0 0 -200 602 0 0 200 -202 0zm1500 2294l200 0c0,-417 -167,-792 -437,-1063 -271,-271 -646,-437 -1063,-437l0 200c362,0 687,144 922,378 234,235 378,560 378,922z"/>
</svg>