<?xml version="1.0" encoding="UTF-8"?>
<!DOCTYPE svg PUBLIC "-//W3C//DTD SVG 1.1//EN" "http://www.w3.org/Graphics/SVG/1.1/DTD/svg11.dtd">
<svg xmlns="http://www.w3.org/2000/svg" xml:space="preserve" width="580px" height="580px" shape-rendering="geometricPrecision" text-rendering="geometricPrecision" image-rendering="optimizeQuality" fill-rule="nonzero" clip-rule="nonzero" viewBox="0 0 5800 5800" xmlns:xlink="http://www.w3.org/1999/xlink">
	<title>server_document icon</title>
	<desc>server_document icon from the IconExperience.com I-Collection. Copyright by INCORS GmbH (www.incors.com).</desc>
		<path id="curve29"  d="M2500 4300l-2200 0 0 -3700c0,-165 135,-300 300,-300l2200 0c165,0 300,135 300,300l0 1100 -400 0 0 -200 -2000 0 0 600 200 0 0 -400 1600 0 0 600 -1800 0 0 600 200 0 0 -400 1600 0 0 600 -1800 0 0 600 200 0 0 -400 1600 0 0 1000zm-600 -3600l0 400 800 0 0 -400 -800 0z"/>
	<path id="curve28"  d="M5500 3100l0 2400 -2800 0 0 -3600 1600 0 0 1200 1200 0zm-879 -1102l783 782c21,-21 92,153 95,196 -53,-47 -123,-76 -199,-76l-800 0 0 -800c0,-76 -29,-146 -76,-199 76,6 145,41 197,97z"/>
</svg>