<?xml version="1.0" encoding="UTF-8"?>
<!DOCTYPE svg PUBLIC "-//W3C//DTD SVG 1.1//EN" "http://www.w3.org/Graphics/SVG/1.1/DTD/svg11.dtd">
<svg xmlns="http://www.w3.org/2000/svg" xml:space="preserve" width="580px" height="580px" shape-rendering="geometricPrecision" text-rendering="geometricPrecision" image-rendering="optimizeQuality" fill-rule="nonzero" clip-rule="nonzero" viewBox="0 0 5800 5800" xmlns:xlink="http://www.w3.org/1999/xlink">
	<title>server_earth icon</title>
	<desc>server_earth icon from the IconExperience.com I-Collection. Copyright by INCORS GmbH (www.incors.com).</desc>
		<path id="curve29"  d="M5491 2294c0,1102 -893,1995 -1995,1995 -135,0 -268,-13 -396,-39l0 -205c127,29 260,44 396,44 992,0 1795,-803 1795,-1795 0,-109 -9,-216 -28,-319 -9,40 -27,113 -145,192 -55,74 104,155 1,288 -56,70 -127,164 -161,247 -17,41 -22,70 -17,113 17,157 -31,197 -104,326 -62,108 -107,191 -190,286 -49,57 -231,257 -312,154 -17,-20 -137,-398 -134,-420 11,-82 54,-126 56,-215 1,-67 -77,-166 -90,-238 -2,-9 -16,-95 -23,-101 -77,-79 -68,-180 -177,-143 -78,26 -217,96 -294,65 -141,-57 -279,-198 -309,-350 -7,-34 18,-191 22,-243 4,-62 32,-121 68,-171 14,-20 31,-38 48,-55 19,-18 93,-77 102,-93 28,-50 69,-123 128,-139 -30,-5 -60,-16 -85,-28 -78,-37 -69,-167 -40,-232 38,-83 111,-120 200,-120 36,0 70,2 104,-7 22,-6 71,-61 98,-78 40,-27 -48,-91 -12,-163 32,-63 117,-69 173,-96 32,-16 70,-59 111,-75 -7,-4 -14,-7 -21,-10 -173,-82 -362,-137 -561,-159 -5,15 -17,29 -40,43 -66,38 -70,104 -199,151 -106,39 -206,12 -316,71 -61,32 -158,117 -215,130 -15,3 -31,3 -43,-8 -32,-29 0,-110 11,-144 6,-15 32,-88 28,-101 -16,-21 -118,-6 -161,2 -55,25 -108,52 -160,82 33,19 92,39 94,58 5,55 -107,44 -127,142 -4,18 25,87 32,106 31,85 18,224 -88,189 -41,-13 -59,-68 -101,-46 -42,23 -16,142 -71,150 -108,15 -184,100 -265,165l-413 0c316,-728 1034,-1201 1831,-1201 303,0 591,68 849,189 701,330 1146,1035 1146,1806zm-1206 -994c20,24 45,40 72,56 24,15 56,32 63,61 6,25 -10,48 -29,63 -46,38 -105,24 -79,-44 8,-21 -130,-80 -146,-88 -48,-25 -89,-83 -150,-54 -74,35 -107,156 -186,181 47,-1 91,-11 136,-27 44,-15 179,-26 222,-11 148,51 94,205 223,226 18,3 54,0 73,0 21,-1 59,-3 79,0 72,13 125,44 196,9 34,-17 50,-81 23,-110 -81,-88 -277,-35 -317,-82 -22,-24 -43,-65 -59,-93 -27,-46 -54,-108 -121,-87z"/>
	<path id="curve28"  d="M1700 2100l800 0 0 400 -800 0 0 -400zm-1400 3400l0 -3500c0,-165 135,-300 300,-300l2000 0c165,0 300,135 300,300l0 3500 -2600 0zm200 -200l2200 0 0 -3300c0,-55 -45,-100 -100,-100l-2000 0c-55,0 -100,45 -100,100l0 3300zm200 -1800l0 -600 1800 0 0 600 -200 0 0 -400 -1400 0 0 400 -200 0zm0 800l0 -600 1800 0 0 600 -200 0 0 -400 -1400 0 0 400 -200 0zm0 800l0 -600 1800 0 0 600 -200 0 0 -400 -1400 0 0 400 -200 0z"/>
</svg>