<?xml version="1.0" encoding="UTF-8"?>
<!DOCTYPE svg PUBLIC "-//W3C//DTD SVG 1.1//EN" "http://www.w3.org/Graphics/SVG/1.1/DTD/svg11.dtd">
<svg xmlns="http://www.w3.org/2000/svg" xml:space="preserve" width="580px" height="580px" shape-rendering="geometricPrecision" text-rendering="geometricPrecision" image-rendering="optimizeQuality" fill-rule="nonzero" clip-rule="nonzero" viewBox="0 0 5800 5800" xmlns:xlink="http://www.w3.org/1999/xlink">
	<title>set_square icon</title>
	<desc>set_square icon from the IconExperience.com I-Collection. Copyright by INCORS GmbH (www.incors.com).</desc>
	<path id="curve0" d="M2300 3700l400 0 0 200 -400 0 0 -200zm800 0l400 0 0 200 -400 0 0 -200zm-1772 200c143,-754 805,-1303 1574,-1303 770,0 1432,549 1575,1303l-204 0c-140,-642 -711,-1103 -1371,-1103 -659,0 -1230,461 -1370,1103l-204 0zm3934 200l-2362 -2408 -2362 2408c1599,0 3181,0 4724,0zm-2362 -2692l2838 2892 -5676 0 2838 -2892zm-600 1692l400 0 0 200 -400 0 0 -200zm800 0l400 0 0 200 -400 0 0 -200zm-800 300l400 0 0 200 -400 0 0 -200zm800 0l400 0 0 200 -400 0 0 -200z"/>
</svg>