<?xml version="1.0" encoding="UTF-8"?>
<!DOCTYPE svg PUBLIC "-//W3C//DTD SVG 1.1//EN" "http://www.w3.org/Graphics/SVG/1.1/DTD/svg11.dtd">
<svg xmlns="http://www.w3.org/2000/svg" xml:space="preserve" width="580px" height="580px" shape-rendering="geometricPrecision" text-rendering="geometricPrecision" image-rendering="optimizeQuality" fill-rule="nonzero" clip-rule="nonzero" viewBox="0 0 5800 5800" xmlns:xlink="http://www.w3.org/1999/xlink">
	<title>set_square icon</title>
	<desc>set_square icon from the IconExperience.com I-Collection. Copyright by INCORS GmbH (www.incors.com).</desc>
	<path id="curve0"  d="M1328 3900l204 0c140,-642 711,-1103 1370,-1103 660,0 1231,461 1371,1103l204 0c-143,-754 -805,-1303 -1575,-1303 -769,0 -1431,549 -1574,1303zm1772 -800l0 200 400 0 0 -200 -400 0zm0 300l0 200 400 0 0 -200 -400 0zm0 300l0 200 400 0 0 -200 -400 0zm-400 200l0 -200 -400 0 0 200 400 0zm0 -300l0 -200 -400 0 0 200 400 0zm0 -300l0 -200 -400 0 0 200 400 0zm-2638 1000l2838 -2892 2838 2892c-1892,0 -3784,0 -5676,0z"/>
</svg>