<?xml version="1.0" encoding="UTF-8"?>
<!DOCTYPE svg PUBLIC "-//W3C//DTD SVG 1.1//EN" "http://www.w3.org/Graphics/SVG/1.1/DTD/svg11.dtd">
<svg xmlns="http://www.w3.org/2000/svg" xml:space="preserve" width="580px" height="580px" shape-rendering="geometricPrecision" text-rendering="geometricPrecision" image-rendering="optimizeQuality" fill-rule="nonzero" clip-rule="nonzero" viewBox="0 0 5800 5800" xmlns:xlink="http://www.w3.org/1999/xlink">
	<title>shape_ellipse icon</title>
	<desc>shape_ellipse icon from the IconExperience.com I-Collection. Copyright by INCORS GmbH (www.incors.com).</desc>
		<path id="curve28" d="M2900 1200c-669,0 -1274,194 -1710,508 -426,307 -690,729 -690,1192 0,463 264,885 690,1192 436,314 1041,508 1710,508 669,0 1274,-194 1710,-508 426,-307 690,-729 690,-1192 0,-463 -264,-885 -690,-1192 -436,-314 -1041,-508 -1710,-508zm-1826 346c469,-337 1115,-546 1826,-546 711,0 1357,209 1826,546 478,345 774,823 774,1354 0,531 -296,1009 -774,1354 -469,337 -1115,546 -1826,546 -711,0 -1357,-209 -1826,-546 -478,-345 -774,-823 -774,-1354 0,-531 296,-1009 774,-1354z"/>
</svg>