<?xml version="1.0" encoding="UTF-8"?>
<!DOCTYPE svg PUBLIC "-//W3C//DTD SVG 1.1//EN" "http://www.w3.org/Graphics/SVG/1.1/DTD/svg11.dtd">
<svg xmlns="http://www.w3.org/2000/svg" xml:space="preserve" width="580px" height="580px" shape-rendering="geometricPrecision" text-rendering="geometricPrecision" image-rendering="optimizeQuality" fill-rule="nonzero" clip-rule="nonzero" viewBox="0 0 5800 5800" xmlns:xlink="http://www.w3.org/1999/xlink">
	<title>shapes icon</title>
	<desc>shapes icon from the IconExperience.com I-Collection. Copyright by INCORS GmbH (www.incors.com).</desc>
		<path id="curve30"  d="M3700 500l0 674 -703 1218c-307,-304 -730,-492 -1196,-492 -331,0 -640,94 -901,258l0 -1658c933,0 1867,0 2800,0z"/>
	<path id="curve29"  d="M5473 4299l-2119 0c95,-213 149,-449 149,-697 0,-398 -137,-763 -365,-1053l662 -1147 1673 2897z"/>
	<path id="curve28"  d="M1801 2100c829,0 1502,672 1502,1502 0,829 -673,1502 -1502,1502 -830,0 -1502,-673 -1502,-1502 0,-830 672,-1502 1502,-1502z"/>
</svg>