<?xml version="1.0" encoding="UTF-8"?>
<!DOCTYPE svg PUBLIC "-//W3C//DTD SVG 1.1//EN" "http://www.w3.org/Graphics/SVG/1.1/DTD/svg11.dtd">
<svg xmlns="http://www.w3.org/2000/svg" xml:space="preserve" width="580px" height="580px" shape-rendering="geometricPrecision" text-rendering="geometricPrecision" image-rendering="optimizeQuality" fill-rule="nonzero" clip-rule="nonzero" viewBox="0 0 5800 5800" xmlns:xlink="http://www.w3.org/1999/xlink">
	<title>shapes icon</title>
	<desc>shapes icon from the IconExperience.com I-Collection. Copyright by INCORS GmbH (www.incors.com).</desc>
		<path id="curve28" d="M1801 2100c829,0 1502,672 1502,1502 0,829 -673,1502 -1502,1502 -830,0 -1502,-673 -1502,-1502 0,-830 672,-1502 1502,-1502zm3672 2199l-2119 0c29,-65 54,-131 75,-200l1698 0 -1327 -2299 -537 931c-38,-64 -80,-124 -125,-182l662 -1147 1673 2897zm-1773 -3799l0 674 -200 347 0 -821 -2400 0 0 1351c-69,31 -136,67 -200,107l0 -1658 2800 0zm-1899 1800c-719,0 -1302,583 -1302,1302 0,719 583,1302 1302,1302 719,0 1302,-583 1302,-1302 0,-719 -583,-1302 -1302,-1302z"/>
</svg>