<?xml version="1.0" encoding="UTF-8"?>
<!DOCTYPE svg PUBLIC "-//W3C//DTD SVG 1.1//EN" "http://www.w3.org/Graphics/SVG/1.1/DTD/svg11.dtd">
<svg xmlns="http://www.w3.org/2000/svg" xml:space="preserve" width="580px" height="580px" shape-rendering="geometricPrecision" text-rendering="geometricPrecision" image-rendering="optimizeQuality" fill-rule="nonzero" clip-rule="nonzero" viewBox="0 0 5800 5800" xmlns:xlink="http://www.w3.org/1999/xlink">
	<title>shape_hexagon icon</title>
	<desc>shape_hexagon icon from the IconExperience.com I-Collection. Copyright by INCORS GmbH (www.incors.com).</desc>
		<path id="curve28" d="M5100 1630l0 2540c-733,423 -1467,847 -2200,1270 -733,-423 -1467,-847 -2200,-1270l0 -2540c733,-423 1467,-847 2200,-1270 733,423 1467,847 2200,1270zm-2200 -1040c-667,385 -1333,770 -2000,1155l0 2310c667,385 1333,770 2000,1155 667,-385 1333,-770 2000,-1155l0 -2310c-667,-385 -1333,-770 -2000,-1155z"/>
</svg>