<?xml version="1.0" encoding="UTF-8"?>
<!DOCTYPE svg PUBLIC "-//W3C//DTD SVG 1.1//EN" "http://www.w3.org/Graphics/SVG/1.1/DTD/svg11.dtd">
<svg xmlns="http://www.w3.org/2000/svg" xml:space="preserve" width="580px" height="580px" shape-rendering="geometricPrecision" text-rendering="geometricPrecision" image-rendering="optimizeQuality" fill-rule="nonzero" clip-rule="nonzero" viewBox="0 0 5800 5800" xmlns:xlink="http://www.w3.org/1999/xlink">
	<title>shelf_full icon</title>
	<desc>shelf_full icon from the IconExperience.com I-Collection. Copyright by INCORS GmbH (www.incors.com).</desc>
		<path id="curve28"  d="M900 5500l0 -5200 4000 0 0 5200 -200 0 0 -800 -3600 0 0 800 -200 0zm200 -1200l0 200 3600 0 0 -200 -200 0 0 -400c-600,0 -1200,0 -1800,0l0 400 -200 0 0 -600c-600,0 -600,0 -1200,0l0 600 -200 0zm3200 0l-1400 0 0 -200 1400 0 0 200zm-2000 0l-800 0 0 -400 800 0 0 400zm-1200 -1400l0 200 3600 0 0 -200 -200 0 0 -600c-600,0 -800,0 -1400,0l0 600 -200 0 0 -400c-600,0 0,0 -600,0l0 400 -200 0 0 -400c-600,0 0,0 -600,0l0 400 -400 0zm1600 0l-200 0 0 -200 200 0 0 200zm-800 0l-200 0 0 -200 200 0 0 200zm2400 0l-1000 0 0 -400 1000 0 0 400zm-3200 -1400l0 200 3600 0 0 -200 -200 0 0 -600c-600,0 -600,0 -1200,0l0 600 -200 0 0 -800c-600,0 -1200,0 -1800,0l0 800 -200 0zm3200 0l-800 0 0 -400 800 0 0 400zm-1400 0l-1400 0 0 -600 1400 0 0 600z"/>
</svg>