<?xml version="1.0" encoding="UTF-8"?>
<!DOCTYPE svg PUBLIC "-//W3C//DTD SVG 1.1//EN" "http://www.w3.org/Graphics/SVG/1.1/DTD/svg11.dtd">
<svg xmlns="http://www.w3.org/2000/svg" xml:space="preserve" width="580px" height="580px" shape-rendering="geometricPrecision" text-rendering="geometricPrecision" image-rendering="optimizeQuality" fill-rule="nonzero" clip-rule="nonzero" viewBox="0 0 5800 5800" xmlns:xlink="http://www.w3.org/1999/xlink">
	<title>shelf_full icon</title>
	<desc>shelf_full icon from the IconExperience.com I-Collection. Copyright by INCORS GmbH (www.incors.com).</desc>
		<path id="curve28" d="M4500 3900l0 600 200 0 0 -1200c-1200,0 -2400,0 -3600,0l0 1200 200 0 0 -800c400,0 800,0 1200,0l0 800 200 0 0 -600c600,0 1200,0 1800,0zm400 1600l-200 0 0 -800c-1200,0 -2400,0 -3600,0l0 800 -200 0c0,-1733 0,-3467 0,-5200l4000 0c0,1733 0,3467 0,5200zm-200 -2400l0 -1200c-1200,0 -2400,0 -3600,0l0 1200 400 0 0 -600c200,0 400,0 600,0l0 600 200 0 0 -600c200,0 400,0 600,0l0 600 200 0 0 -800c467,0 933,0 1400,0l0 800 200 0zm0 -1400l0 -1200 -3600 0 0 1200 200 0 0 -1000 1800 0 0 1000 200 0 0 -800 1200 0 0 800 200 0zm-1800 -800l-1400 0 0 800 1400 0 0 -800zm1400 200l-800 0 0 600 800 0 0 -600zm0 1400l-1000 0 0 600 1000 0 0 -600zm-2400 200l-200 0 0 400 200 0 0 -400zm800 0l-200 0 0 400 200 0 0 -400zm-400 1200l-800 0 0 600 800 0 0 -600zm2000 200l-1400 0 0 400 1400 0 0 -400z"/>
</svg>