<?xml version="1.0" encoding="UTF-8"?>
<!DOCTYPE svg PUBLIC "-//W3C//DTD SVG 1.1//EN" "http://www.w3.org/Graphics/SVG/1.1/DTD/svg11.dtd">
<svg xmlns="http://www.w3.org/2000/svg" xml:space="preserve" width="580px" height="580px" shape-rendering="geometricPrecision" text-rendering="geometricPrecision" image-rendering="optimizeQuality" fill-rule="nonzero" clip-rule="nonzero" viewBox="0 0 5800 5800" xmlns:xlink="http://www.w3.org/1999/xlink">
	<title>shield icon</title>
	<desc>shield icon from the IconExperience.com I-Collection. Copyright by INCORS GmbH (www.incors.com).</desc>
		<path id="curve28" d="M5100 2300c0,712 -218,1374 -590,1923 -383,564 -930,1009 -1573,1264l-37 15 -37 -15c-643,-255 -1190,-700 -1573,-1264 -372,-549 -590,-1211 -590,-1923l0 -1600 100 0c360,0 712,-32 1051,-93 350,-63 689,-157 1014,-278l35 -13 35 13c325,121 664,215 1014,278 339,61 691,93 1051,93l100 0 0 1600zm-200 0l0 -1401c-335,-5 -664,-38 -986,-96 -314,-56 -619,-137 -914,-239l0 4680c546,-247 1012,-642 1345,-1133 350,-516 555,-1139 555,-1811zm-3445 1811c333,491 799,886 1345,1133l0 -4680c-295,102 -600,183 -914,239 -322,58 -651,91 -986,96l0 1401c0,672 205,1295 555,1811z"/>
</svg>