<?xml version="1.0" encoding="UTF-8"?>
<!DOCTYPE svg PUBLIC "-//W3C//DTD SVG 1.1//EN" "http://www.w3.org/Graphics/SVG/1.1/DTD/svg11.dtd">
<svg xmlns="http://www.w3.org/2000/svg" xml:space="preserve" width="580px" height="580px" shape-rendering="geometricPrecision" text-rendering="geometricPrecision" image-rendering="optimizeQuality" fill-rule="nonzero" clip-rule="nonzero" viewBox="0 0 5800 5800" xmlns:xlink="http://www.w3.org/1999/xlink">
	<title>ship1 icon</title>
	<desc>ship1 icon from the IconExperience.com I-Collection. Copyright by INCORS GmbH (www.incors.com).</desc>
	<path id="curve0"  d="M2768 2729c97,-36 179,-37 276,0l1908 722c-280,424 -464,840 -624,1320 -69,20 -143,23 -213,10 135,-418 307,-855 535,-1231l-1650 -625 0 1857c-65,14 -135,14 -200,0l0 -1852 -1650 620c227,377 400,814 536,1231 -71,13 -146,9 -214,-11 -160,-479 -345,-896 -624,-1319l1920 -722zm-468 -2429l1200 0 0 200 -500 0 0 800 354 0c-34,-59 -54,-127 -54,-200 0,-221 179,-400 400,-400 220,0 400,180 400,400 0,85 -27,164 -72,229 104,49 172,155 172,271l0 200c0,55 -45,100 -100,100l-200 0c0,67 0,133 0,200l108 0c121,0 263,58 295,186l192 779 -227 -86 -159 -645c-1,-4 -8,-10 -19,-16 -21,-11 -49,-18 -82,-18l-2216 0c-33,0 -61,7 -82,18 -11,6 -18,12 -19,16l-160 647 -226 85 192 -780c32,-128 174,-186 295,-186l108 0c0,-67 0,-133 0,-200l-200 0c-55,0 -100,-45 -100,-100l0 -200c0,-116 68,-222 172,-271 -45,-65 -72,-144 -72,-229 0,-220 180,-400 400,-400 221,0 400,179 400,400 0,73 -20,141 -54,200l354 0 0 -800 -500 0 0 -200zm-1997 4689c235,0 449,-126 563,-332l87 -157 87 157c114,205 328,332 562,332 234,0 446,-124 561,-328l87 -156 87 156c114,205 328,332 563,332 235,0 451,-128 564,-334l87 -159 88 158c113,205 327,331 562,331 234,0 448,-126 562,-332l87 -157 88 157c113,206 327,332 562,332l0 200c-252,0 -490,-113 -650,-307 -160,194 -397,307 -649,307 -252,0 -489,-113 -649,-306 -160,196 -399,310 -652,310 -253,0 -490,-113 -651,-308 -160,192 -396,304 -647,304 -251,0 -489,-113 -649,-307 -160,194 -398,307 -650,307l0 -200zm3597 -3489l-200 0 -1600 0 -200 0c-55,0 -100,45 -100,100l0 100 2200 0 0 -100c0,-55 -45,-100 -100,-100zm-200 -600c-110,0 -200,90 -200,200 0,111 89,200 200,200 110,0 200,-90 200,-200 0,-111 -89,-200 -200,-200zm-1600 0c-111,0 -200,89 -200,200 0,110 90,200 200,200 111,0 200,-89 200,-200 0,-110 -90,-200 -200,-200z"/>
</svg>