<?xml version="1.0" encoding="UTF-8"?>
<!DOCTYPE svg PUBLIC "-//W3C//DTD SVG 1.1//EN" "http://www.w3.org/Graphics/SVG/1.1/DTD/svg11.dtd">
<svg xmlns="http://www.w3.org/2000/svg" xml:space="preserve" width="580px" height="580px" shape-rendering="geometricPrecision" text-rendering="geometricPrecision" image-rendering="optimizeQuality" fill-rule="nonzero" clip-rule="nonzero" viewBox="0 0 5800 5800" xmlns:xlink="http://www.w3.org/1999/xlink">
	<title>ships_wheel icon</title>
	<desc>ships_wheel icon from the IconExperience.com I-Collection. Copyright by INCORS GmbH (www.incors.com).</desc>
		<path id="curve28"  d="M3000 302c643,24 1225,282 1666,690l-424 425c-332,-300 -765,-491 -1242,-515l0 -600zm1808 832c408,441 666,1023 690,1666l-600 0c-24,-477 -215,-910 -515,-1242l425 -424zm690 1866c-24,643 -282,1225 -690,1666l-425 -424c300,-332 491,-765 515,-1242l600 0zm-832 1808c-441,408 -1023,666 -1666,690l0 -600c477,-24 910,-215 1242,-515l424 425zm-1866 690c-643,-24 -1225,-282 -1666,-690l424 -425c332,300 765,491 1242,515l0 600zm-1808 -832c-408,-441 -666,-1023 -690,-1666l600 0c24,477 215,910 515,1242l-425 424zm-690 -1866c24,-643 282,-1225 690,-1666l425 424c-300,332 -491,765 -515,1242l-600 0zm832 -1808c441,-408 1023,-666 1666,-690l0 600c-477,24 -910,215 -1242,515l-424 -425zm1866 1316c91,16 175,51 248,103l852 -853c-295,-264 -678,-432 -1100,-455l0 1205zm389 244c52,73 87,157 103,248l1205 0c-23,-422 -191,-805 -455,-1100l-853 852zm103 448c-16,91 -51,175 -103,248l853 852c264,-295 432,-678 455,-1100l-1205 0zm-244 389c-73,52 -157,87 -248,103l0 1205c422,-23 805,-191 1100,-455l-852 -853zm-448 103c-91,-16 -175,-51 -248,-103l-852 853c295,264 678,432 1100,455l0 -1205zm-389 -244c-52,-73 -87,-157 -103,-248l-1205 0c23,422 191,805 455,1100l853 -852zm-103 -448c16,-91 51,-175 103,-248l-853 -852c-264,295 -432,678 -455,1100l1205 0zm244 -389c73,-52 157,-87 248,-103l0 -1205c-422,23 -805,191 -1100,455l852 853zm348 89c-221,0 -400,179 -400,400 0,221 179,400 400,400 221,0 400,-179 400,-400 0,-221 -179,-400 -400,-400z"/>
</svg>