<?xml version="1.0" encoding="UTF-8"?>
<!DOCTYPE svg PUBLIC "-//W3C//DTD SVG 1.1//EN" "http://www.w3.org/Graphics/SVG/1.1/DTD/svg11.dtd">
<svg xmlns="http://www.w3.org/2000/svg" xml:space="preserve" width="580px" height="580px" shape-rendering="geometricPrecision" text-rendering="geometricPrecision" image-rendering="optimizeQuality" fill-rule="nonzero" clip-rule="nonzero" viewBox="0 0 5800 5800" xmlns:xlink="http://www.w3.org/1999/xlink">
	<title>ship2 icon</title>
	<desc>ship2 icon from the IconExperience.com I-Collection. Copyright by INCORS GmbH (www.incors.com).</desc>
	<path id="curve0"  d="M500 4400c0,-277 316,-502 739,-668 492,-192 1140,-313 1561,-330l0 1380c-122,-28 -228,-108 -289,-218l-86 -155c-36,-65 -100,-103 -174,-103 -75,0 -139,37 -175,102l-87 155c-80,142 -224,226 -387,226 -162,0 -309,-86 -388,-228l-86 -156c-37,-66 -101,-103 -175,-103 -75,0 -139,37 -175,103 -76,137 -128,266 -278,339l0 -344zm2500 -2300l0 200 500 0 0 -200 -500 0zm-200 200l0 -200 -500 0 0 200 500 0zm-700 0l0 -200 -400 0 0 200 400 0zm-600 -200l-200 0 0 -300c0,-165 135,-300 300,-300l1200 0 0 -400 -500 0 0 -200 1200 0 0 200 -500 0 0 400 1200 0c165,0 300,135 300,300l0 300 -200 0 0 232c127,54 217,170 238,308l143 927c-507,-208 -1234,-367 -1781,-367 -548,0 -1273,157 -1780,365l142 -925c21,-138 111,-254 238,-308l0 -232zm2600 0l-400 0 0 200 400 0 0 -200zm-1100 1302c420,18 1067,139 1559,332 424,165 741,391 741,666l0 342c-79,-40 -145,-104 -188,-181l-87 -156c-36,-66 -100,-103 -175,-103 -74,0 -138,37 -174,103l-87 156c-79,142 -225,228 -388,228 -163,0 -309,-85 -388,-228l-87 -157c-37,-65 -101,-103 -176,-103 -75,1 -139,39 -175,104l-86 158c-60,110 -167,191 -289,219l0 -1380zm-2697 1587c235,0 449,-126 563,-332l87 -157 87 157c114,205 328,332 562,332 234,0 446,-124 561,-328l87 -156 87 156c114,205 328,332 563,332 235,0 451,-128 564,-334l87 -159 88 158c113,205 327,331 562,331 234,0 448,-126 562,-332l87 -157 88 157c113,206 327,332 562,332l0 511 -5200 0 3 -511z"/>
</svg>