<?xml version="1.0" encoding="UTF-8"?>
<!DOCTYPE svg PUBLIC "-//W3C//DTD SVG 1.1//EN" "http://www.w3.org/Graphics/SVG/1.1/DTD/svg11.dtd">
<svg xmlns="http://www.w3.org/2000/svg" xml:space="preserve" width="580px" height="580px" shape-rendering="geometricPrecision" text-rendering="geometricPrecision" image-rendering="optimizeQuality" fill-rule="nonzero" clip-rule="nonzero" viewBox="0 0 5800 5800" xmlns:xlink="http://www.w3.org/1999/xlink">
	<title>ships_wheel icon</title>
	<desc>ships_wheel icon from the IconExperience.com I-Collection. Copyright by INCORS GmbH (www.incors.com).</desc>
		<path id="curve28" d="M4809 1132l-361 361c317,349 517,805 541,1307l511 0 0 200 -511 0c-24,502 -224,958 -541,1307l361 361 -141 141 -361 -361c-349,317 -805,517 -1307,541l0 511 -200 0 0 -511c-502,-24 -958,-224 -1307,-541l-361 361 -141 -141 361 -361c-317,-349 -517,-805 -541,-1307l-511 0 0 -200 511 0c24,-502 224,-958 541,-1307l-361 -361 141 -141 361 361c349,-317 805,-517 1307,-541l0 -511 200 0 0 511c502,24 958,224 1307,541l361 -361 141 141zm-503 503l-879 879c61,83 102,180 119,286l1243 0c-23,-447 -202,-853 -483,-1165zm483 1365l-1243 0c-17,106 -58,203 -119,286l879 879c281,-312 460,-718 483,-1165zm-624 1306l-879 -879c-83,61 -180,102 -286,119l0 1243c447,-23 853,-202 1165,-483zm-1365 483l0 -1243c-106,-17 -203,-58 -286,-119l-879 879c312,281 718,460 1165,483zm-1306 -624l879 -879c-61,-83 -102,-180 -119,-286l-1243 0c23,447 202,853 483,1165zm-483 -1365l1243 0c17,-106 58,-203 119,-286l-879 -879c-281,312 -460,718 -483,1165zm624 -1306l879 879c83,-61 180,-102 286,-119l0 -1243c-447,23 -853,202 -1165,483zm1365 -483l0 1243c106,17 203,58 286,119l879 -879c-312,-281 -718,-460 -1165,-483zm-100 1436c-250,0 -453,203 -453,453 0,250 203,453 453,453 250,0 453,-203 453,-453 0,-250 -203,-453 -453,-453z"/>
</svg>