<?xml version="1.0" encoding="UTF-8"?>
<!DOCTYPE svg PUBLIC "-//W3C//DTD SVG 1.1//EN" "http://www.w3.org/Graphics/SVG/1.1/DTD/svg11.dtd">
<svg xmlns="http://www.w3.org/2000/svg" xml:space="preserve" width="580px" height="580px" shape-rendering="geometricPrecision" text-rendering="geometricPrecision" image-rendering="optimizeQuality" fill-rule="nonzero" clip-rule="nonzero" viewBox="0 0 5800 5800" xmlns:xlink="http://www.w3.org/1999/xlink">
	<title>ship2 icon</title>
	<desc>ship2 icon from the IconExperience.com I-Collection. Copyright by INCORS GmbH (www.incors.com).</desc>
	<path id="curve0" d="M500 4400c0,-277 316,-502 739,-668 533,-208 1249,-332 1661,-332 411,0 1126,125 1659,334 424,165 741,391 741,666l0 342c-94,-47 -150,-112 -200,-203l0 -139c0,-226 -434,-410 -613,-481 -470,-183 -1086,-299 -1487,-317l0 1180c-65,14 -135,14 -200,0l0 -1180c-402,18 -1019,132 -1489,316 -170,67 -611,251 -611,482l0 145c-49,88 -108,154 -200,199l0 -344zm2500 -2300l0 200 500 0 0 -200 -500 0zm-200 200l0 -200 -500 0 0 200 500 0zm-700 0l0 -200 -400 0 0 200 400 0zm-600 -200l-200 0 0 -300c0,-165 135,-300 300,-300l1200 0 0 -400 -500 0 0 -200 1200 0 0 200 -500 0 0 400 1200 0c165,0 300,135 300,300l0 300 -200 0 0 232c127,54 217,170 238,308l143 927c-71,-29 -143,-55 -215,-80l-126 -818c-15,-99 -97,-169 -197,-169 -829,0 -1657,0 -2486,0 -100,0 -182,70 -197,169l-126 816c-72,25 -144,51 -214,80l142 -925c21,-138 111,-254 238,-308l0 -232zm2600 0l-400 0 0 200 400 0 0 -200zm-3797 2889c235,0 449,-126 563,-332l87 -157 87 157c114,205 328,332 562,332 234,0 446,-124 561,-328l87 -156 87 156c114,205 328,332 563,332 235,0 451,-128 564,-334l87 -159 88 158c113,205 327,331 562,331 234,0 448,-126 562,-332l87 -157 88 157c113,206 327,332 562,332l0 200c-252,0 -490,-113 -650,-307 -160,194 -397,307 -649,307 -252,0 -489,-113 -649,-306 -160,196 -399,310 -652,310 -253,0 -490,-113 -651,-308 -160,192 -396,304 -647,304 -251,0 -489,-113 -649,-307 -160,194 -398,307 -650,307l0 -200zm3897 -3289l-2600 0c-55,0 -100,45 -100,100l0 100c933,0 1867,0 2800,0l0 -100c0,-55 -45,-100 -100,-100z"/>
</svg>