<?xml version="1.0" encoding="UTF-8"?>
<!DOCTYPE svg PUBLIC "-//W3C//DTD SVG 1.1//EN" "http://www.w3.org/Graphics/SVG/1.1/DTD/svg11.dtd">
<svg xmlns="http://www.w3.org/2000/svg" xml:space="preserve" width="580px" height="580px" shape-rendering="geometricPrecision" text-rendering="geometricPrecision" image-rendering="optimizeQuality" fill-rule="nonzero" clip-rule="nonzero" viewBox="0 0 5800 5800" xmlns:xlink="http://www.w3.org/1999/xlink">
	<title>ship1 icon</title>
	<desc>ship1 icon from the IconExperience.com I-Collection. Copyright by INCORS GmbH (www.incors.com).</desc>
	<path id="curve0"  d="M2511 4564c61,110 167,190 289,218l0 -2064 -1952 733 69 104c239,362 417,803 555,1215 41,12 85,19 130,19 163,0 307,-84 387,-226l87 -155c36,-65 100,-102 175,-102 74,0 138,38 174,103l86 155zm-211 -4264l1200 0 0 200 -500 0 0 800 354 0c-34,-59 -54,-127 -54,-200 0,-221 179,-400 400,-400 220,0 400,180 400,400 0,85 -27,164 -72,229 104,49 172,155 172,271l0 200c0,55 -45,100 -100,100l-2400 0c-55,0 -100,-45 -100,-100l0 -200c0,-116 68,-222 172,-271 -45,-65 -72,-144 -72,-229 0,-220 180,-400 400,-400 221,0 400,179 400,400 0,73 -20,141 -54,200l354 0 0 -800 -500 0 0 -200zm1715 1800c118,2 257,61 288,186l192 779 -1381 -523c-143,-54 -273,-54 -416,0l-1393 524 192 -780c31,-125 170,-184 288,-186l2230 0zm-202 2461c79,143 225,228 388,228 44,0 87,-7 127,-18 137,-413 315,-853 555,-1216l69 -104 -1952 -736 0 2067c122,-28 229,-109 289,-219l86 -158c36,-65 100,-103 175,-104 75,0 139,38 176,103l87 157zm-3510 428c235,0 449,-126 563,-332l87 -157 87 157c114,205 328,332 562,332 234,0 446,-124 561,-328l87 -156 87 156c114,205 328,332 563,332 235,0 451,-128 564,-334l87 -159 88 158c113,205 327,331 562,331 234,0 448,-126 562,-332l87 -157 88 157c113,206 327,332 562,332l0 511 -5200 0 3 -511z"/>
</svg>