<?xml version="1.0" encoding="UTF-8"?>
<!DOCTYPE svg PUBLIC "-//W3C//DTD SVG 1.1//EN" "http://www.w3.org/Graphics/SVG/1.1/DTD/svg11.dtd">
<svg xmlns="http://www.w3.org/2000/svg" xml:space="preserve" width="580px" height="580px" shape-rendering="geometricPrecision" text-rendering="geometricPrecision" image-rendering="optimizeQuality" fill-rule="nonzero" clip-rule="nonzero" viewBox="0 0 5800 5800" xmlns:xlink="http://www.w3.org/1999/xlink">
	<title>shopping_basket icon</title>
	<desc>shopping_basket icon from the IconExperience.com I-Collection. Copyright by INCORS GmbH (www.incors.com).</desc>
		<path id="curve28"  d="M4696 4828c-43,142 -133,272 -296,272l-3000 0c-163,0 -253,-130 -296,-272l-604 -2014 0 -514 4800 0 0 514 -604 2014zm304 -2057l0 -71 -351 0 0 550 207 0 144 -479zm-4200 -71l0 71 144 479 207 0 0 -550 -351 0zm234 850l117 390 0 -390 -117 0zm415 1250l502 0 0 -450 -502 0 0 450zm800 0l502 0 0 -450 -502 0 0 450zm800 0l502 0 0 -450 -502 0 0 450zm800 0l502 0 0 -450 -502 0 0 450zm800 -860l117 -390 -117 0 0 390zm-298 110l0 -500 -502 0 0 500 502 0zm-800 0l0 -500 -502 0 0 500 502 0zm-800 0l0 -500 -502 0 0 500 502 0zm-800 0l0 -500 -502 0 0 500 502 0zm-502 -800l502 0 0 -550 -502 0 0 550zm-861 -1150l1406 -1406c58,-59 153,-59 212,0 59,59 59,153 0,212l-1194 1194 -424 0zm4200 0l-1194 -1194c-59,-59 -59,-153 0,-212 59,-59 154,-59 212,0l1406 1406 -424 0zm-2539 1150l502 0 0 -550 -502 0 0 550zm800 0l502 0 0 -550 -502 0 0 550zm800 0l502 0 0 -550 -502 0 0 550z"/>
</svg>