<?xml version="1.0" encoding="UTF-8"?>
<!DOCTYPE svg PUBLIC "-//W3C//DTD SVG 1.1//EN" "http://www.w3.org/Graphics/SVG/1.1/DTD/svg11.dtd">
<svg xmlns="http://www.w3.org/2000/svg" xml:space="preserve" width="580px" height="580px" shape-rendering="geometricPrecision" text-rendering="geometricPrecision" image-rendering="optimizeQuality" fill-rule="nonzero" clip-rule="nonzero" viewBox="0 0 5800 5800" xmlns:xlink="http://www.w3.org/1999/xlink">
	<title>shopping_bag_full icon</title>
	<desc>shopping_bag_full icon from the IconExperience.com I-Collection. Copyright by INCORS GmbH (www.incors.com).</desc>
		<path id="curve30"  d="M4940 1700l-344 -596c54,5 98,15 134,27 88,29 135,77 159,124l237 455 -28 108c-107,589 -160,1183 -160,1782 0,651 65,1261 181,1900l-4438 0c116,-639 181,-1249 181,-1900 0,-599 -53,-1193 -160,-1782l-21 -118 225 -445c24,-48 73,-95 162,-124 10,-4 21,-7 32,-10l0 211c-9,5 -14,9 -16,13l-178 355 4034 0zm-1040 1171c62,-36 100,-102 100,-173 0,-111 -90,-200 -200,-200 -116,0 -200,83 -200,200 0,71 38,137 100,173l0 229c0,442 -358,800 -800,800 -442,0 -800,-358 -800,-800l0 -227c62,-36 100,-101 100,-173 0,-110 -90,-200 -200,-200 -110,0 -200,90 -200,200 0,72 38,137 100,173l0 227c0,552 448,1000 1000,1000 552,0 1000,-448 1000,-1000l0 -229z"/>
	<path id="curve29"  d="M1300 1500l0 -1000c0,-110 90,-200 200,-200l1200 0c110,0 200,90 200,200l0 49 -700 405c-191,110 -257,355 -146,546l0 0 -754 0z"/>
	<path id="curve28"  d="M2285 1500l-58 -100c-55,-96 -23,-218 73,-273l1386 -800c95,-55 217,-23 272,73l636 1100 -2309 0z"/>
</svg>