<?xml version="1.0" encoding="UTF-8"?>
<!DOCTYPE svg PUBLIC "-//W3C//DTD SVG 1.1//EN" "http://www.w3.org/Graphics/SVG/1.1/DTD/svg11.dtd">
<svg xmlns="http://www.w3.org/2000/svg" xml:space="preserve" width="580px" height="580px" shape-rendering="geometricPrecision" text-rendering="geometricPrecision" image-rendering="optimizeQuality" fill-rule="nonzero" clip-rule="nonzero" viewBox="0 0 5800 5800" xmlns:xlink="http://www.w3.org/1999/xlink">
	<title>shopping_basket_full icon</title>
	<desc>shopping_basket_full icon from the IconExperience.com I-Collection. Copyright by INCORS GmbH (www.incors.com).</desc>
	<path id="curve0" d="M4696 4828c-43,142 -133,272 -296,272l-3000 0c-163,0 -253,-130 -296,-272l-604 -2014 0 -514c1600,0 3200,0 4800,0l0 514 -604 2014zm-330 -2728l-462 -800c-1,-1 -1270,733 -1386,799 0,1 -177,1 -200,1 0,-71 38,-137 100,-173l1374 -793c53,-31 102,-44 163,-27 55,15 92,46 122,93l519 900 -230 0zm-2666 0l0 -800c0,-110 90,-200 200,-200l1200 0c55,0 105,22 141,59 13,14 23,25 33,43l-174 100 0 -2 -1200 0 0 800 -200 0zm-1057 0l978 -1655c28,-48 89,-64 137,-36 47,29 63,90 35,137l-918 1554 -232 0zm4282 0l-918 -1554c-28,-47 -12,-108 35,-137 48,-28 109,-12 137,36l978 1655 -232 0zm-1825 -800l0 0 0 0 0 0 0 0 0 0zm0 0c0,-1 0,0 0,0l0 0 0 0zm0 0l0 0 0 0c0,0 0,0 0,0zm2000 1400l-500 0 0 600 346 0 154 -514 0 -86zm-214 800l-286 0 0 600 106 0 180 -600zm-240 800l-46 0 0 154 46 -154zm-246 600l0 -600 -600 0 0 600 600 0zm-800 0l0 -600 -600 0 0 600 600 0zm-800 0l0 -600 -600 0 0 600 600 0zm-800 0l0 -600 -600 0 0 600 600 0zm-800 -446l0 -154 -46 0 46 154zm-106 -354l106 0 0 -600 -286 0 180 600zm-240 -800l346 0 0 -600 -500 0 0 86 154 514zm546 800l600 0 0 -600 -600 0 0 600zm0 -800l600 0 0 -600 -600 0 0 600zm3000 800l0 -600 -600 0 0 600 600 0zm-800 0l0 -600 -600 0 0 600 600 0zm-800 0l0 -600 -600 0 0 600 600 0zm-600 -800l600 0 0 -600 -600 0 0 600zm800 0l600 0 0 -600 -600 0 0 600zm800 0l600 0 0 -600 -600 0 0 600z"/>
</svg>