<?xml version="1.0" encoding="UTF-8"?>
<!DOCTYPE svg PUBLIC "-//W3C//DTD SVG 1.1//EN" "http://www.w3.org/Graphics/SVG/1.1/DTD/svg11.dtd">
<svg xmlns="http://www.w3.org/2000/svg" xml:space="preserve" width="580px" height="580px" shape-rendering="geometricPrecision" text-rendering="geometricPrecision" image-rendering="optimizeQuality" fill-rule="nonzero" clip-rule="nonzero" viewBox="0 0 5800 5800" xmlns:xlink="http://www.w3.org/1999/xlink">
	<title>shopping_bag icon</title>
	<desc>shopping_bag icon from the IconExperience.com I-Collection. Copyright by INCORS GmbH (www.incors.com).</desc>
		<path id="curve28"  d="M3900 2871l0 229c0,552 -448,1000 -1000,1000 -552,0 -1000,-448 -1000,-1000l0 -227c-62,-36 -100,-101 -100,-173 0,-110 90,-200 200,-200 110,0 200,90 200,200 0,72 -38,137 -100,173l0 227c0,442 358,800 800,800 442,0 800,-358 800,-800l0 -229c-62,-36 -100,-102 -100,-173 0,-111 90,-200 200,-200 110,0 200,89 200,200 0,71 -38,137 -100,173zm-2994 -1171l3983 0 -178 -355c-3,-7 -15,-16 -44,-25 -36,-12 -89,-20 -167,-20l-3200 0c-78,0 -133,8 -171,20 -29,10 -42,18 -45,25l-178 355zm4211 12c-60,331 -109,656 -139,992 -26,292 -40,591 -40,896 0,305 14,604 40,896 30,340 80,669 141,1004l-4438 0c61,-335 111,-664 141,-1004 26,-292 40,-591 40,-896 0,-305 -14,-604 -40,-896 -27,-299 -67,-595 -120,-886l-18 -98 -3 -15 225 -450c24,-48 73,-95 162,-124 56,-19 132,-31 232,-31l3200 0c99,0 174,12 230,31 88,29 135,77 159,124l228 457zm-236 188l-3962 0c44,259 78,521 102,787 27,304 41,608 41,913 0,305 -14,609 -41,913 -24,266 -58,528 -102,787l3962 0c-44,-259 -78,-521 -102,-787 -27,-304 -41,-608 -41,-913 0,-305 14,-609 41,-913 24,-266 58,-528 102,-787z"/>
</svg>