<?xml version="1.0" encoding="UTF-8"?>
<!DOCTYPE svg PUBLIC "-//W3C//DTD SVG 1.1//EN" "http://www.w3.org/Graphics/SVG/1.1/DTD/svg11.dtd">
<svg xmlns="http://www.w3.org/2000/svg" xml:space="preserve" width="580px" height="580px" shape-rendering="geometricPrecision" text-rendering="geometricPrecision" image-rendering="optimizeQuality" fill-rule="nonzero" clip-rule="nonzero" viewBox="0 0 5800 5800" xmlns:xlink="http://www.w3.org/1999/xlink">
	<title>shopping_cart2 icon</title>
	<desc>shopping_cart2 icon from the IconExperience.com I-Collection. Copyright by INCORS GmbH (www.incors.com).</desc>
		<path id="curve29"  d="M5500 750l-674 0c-69,0 -125,42 -144,109l-715 2503 394 437c120,134 149,320 76,484 -73,164 -231,267 -411,267l-8 0c167,81 282,252 282,450 0,276 -224,500 -500,500 -276,0 -500,-224 -500,-500 0,-198 115,-369 282,-450l-2164 0c167,81 282,252 282,450 0,276 -224,500 -500,500 -276,0 -500,-224 -500,-500 0,-198 115,-369 282,-450l-282 0 0 -300 3326 0c63,0 112,-32 138,-89 25,-57 16,-115 -26,-161l-449 -500 -2082 0c-255,0 -476,-155 -563,-395l-632 -1737c-22,-62 -13,-128 24,-182 39,-55 97,-86 164,-86l3701 0 93 -323c55,-195 230,-327 432,-327l674 0 0 300zm-1750 2279l23 -80 -23 0 0 80zm108 -378l143 -502 -251 0 0 502 108 0zm229 -800l143 -501 -480 0 0 501 337 0zm-1137 -501l0 501 500 0 0 -501 -500 0zm500 1900l0 -301 -500 0 0 301 500 0zm-800 0l0 -301 -500 0 0 301 500 0zm-800 0l0 -301 -500 0 0 191c64,70 155,110 257,110l243 0zm-800 -858l0 -243 -88 0 88 243zm-197 -541l197 0 0 -501 -379 0 182 501zm497 -501l0 501 500 0 0 -501 -500 0zm800 0l0 501 500 0 0 -501 -500 0zm800 799l0 502 500 0 0 -502 -500 0zm-300 502l0 -502 -500 0 0 502 500 0zm-1300 0l500 0 0 -502 -500 0 0 502z"/>
</svg>