<?xml version="1.0" encoding="UTF-8"?>
<!DOCTYPE svg PUBLIC "-//W3C//DTD SVG 1.1//EN" "http://www.w3.org/Graphics/SVG/1.1/DTD/svg11.dtd">
<svg xmlns="http://www.w3.org/2000/svg" xml:space="preserve" width="580px" height="580px" shape-rendering="geometricPrecision" text-rendering="geometricPrecision" image-rendering="optimizeQuality" fill-rule="nonzero" clip-rule="nonzero" viewBox="0 0 5800 5800" xmlns:xlink="http://www.w3.org/1999/xlink">
	<title>shopping_basket icon</title>
	<desc>shopping_basket icon from the IconExperience.com I-Collection. Copyright by INCORS GmbH (www.incors.com).</desc>
		<path id="curve28" d="M659 2100l1370 -1371c39,-39 103,-39 142,0 39,39 39,103 0,142l-1230 1229 -282 0zm4441 600l-500 0 0 600 346 0 154 -514 0 -86zm-214 800l-286 0 0 600 100 0 0 20 186 -620zm-286 800l0 154 46 -154 -46 0zm-200 600l0 -600 -600 0 0 600 600 0 0 0zm0 -800l0 -600 -600 0 0 600 600 0zm-800 800l0 -600 -600 0 0 600 600 0zm0 -800l0 -600 -600 0 0 600 600 0zm-800 800l0 -600 -600 0 0 600 600 0zm0 -800l0 -600 -600 0 0 600 600 0zm-800 800l0 -600 -600 0 0 600 600 0zm0 -800l0 -600 -600 0 0 600 600 0zm-800 -600l-286 0 180 600 106 0 0 -600zm-346 -200l346 0 0 -600 -500 0 0 86 154 514zm546 0l600 0 0 -600 -600 0 0 600zm3296 1528c-43,142 -133,272 -296,272l-3000 0c-163,0 -253,-130 -296,-272l-604 -2014 0 -514 4800 0 0 514 -604 2014zm163 -2728l-1230 -1229c-39,-39 -39,-103 0,-142 39,-39 103,-39 142,0l1370 1371 -282 0zm-3659 2354l0 -154 -46 0 46 154zm1000 -1154l600 0 0 -600 -600 0 0 600zm800 0l600 0 0 -600 -600 0 0 600zm800 0l600 0 0 -600 -600 0 0 600z"/>
</svg>