<?xml version="1.0" encoding="UTF-8"?>
<!DOCTYPE svg PUBLIC "-//W3C//DTD SVG 1.1//EN" "http://www.w3.org/Graphics/SVG/1.1/DTD/svg11.dtd">
<svg xmlns="http://www.w3.org/2000/svg" xml:space="preserve" width="580px" height="580px" shape-rendering="geometricPrecision" text-rendering="geometricPrecision" image-rendering="optimizeQuality" fill-rule="nonzero" clip-rule="nonzero" viewBox="0 0 5800 5800" xmlns:xlink="http://www.w3.org/1999/xlink">
	<title>shopping_basket_full icon</title>
	<desc>shopping_basket_full icon from the IconExperience.com I-Collection. Copyright by INCORS GmbH (www.incors.com).</desc>
	<path id="curve0"  d="M1700 2100l0 -800c0,-110 90,-200 200,-200l1200 0c73,0 138,40 174,102l-956 551c-128,74 -200,209 -200,347l-418 0zm3600 200l0 514 -604 2014c-43,142 -133,272 -296,272l-3000 0c-163,0 -253,-130 -296,-272l-604 -2014 0 -514c1600,0 3200,0 4800,0zm-1496 -1173c90,-52 205,-26 264,59l528 914 -2278 0c0,-71 38,-137 100,-173 462,-267 924,-533 1386,-800zm1063 973l-903 -1528c-42,-72 -18,-163 53,-206 71,-42 163,-18 205,53l993 1681 -348 0zm-4282 0l993 -1681c42,-71 134,-95 205,-53 71,43 95,134 53,206l-903 1528 -348 0zm4415 671l0 -71 -351 0 0 550 207 0 144 -479zm-4200 -71l0 71 144 479 207 0 0 -550 -351 0zm234 850l117 390 0 -390 -117 0zm415 1250l502 0 0 -450 -502 0 0 450zm800 0l502 0 0 -450 -502 0 0 450zm800 0l502 0 0 -450 -502 0 0 450zm800 0l502 0 0 -450 -502 0 0 450zm800 -860l117 -390 -117 0 0 390zm-298 110l0 -500 -502 0 0 500 502 0zm-800 0l0 -500 -502 0 0 500 502 0zm-800 0l0 -500 -502 0 0 500 502 0zm-800 0l0 -500 -502 0 0 500 502 0zm-502 -800l502 0 0 -550 -502 0 0 550zm800 0l502 0 0 -550 -502 0 0 550zm800 0l502 0 0 -550 -502 0 0 550zm800 0l502 0 0 -550 -502 0 0 550z"/>
</svg>