<?xml version="1.0" encoding="UTF-8"?>
<!DOCTYPE svg PUBLIC "-//W3C//DTD SVG 1.1//EN" "http://www.w3.org/Graphics/SVG/1.1/DTD/svg11.dtd">
<svg xmlns="http://www.w3.org/2000/svg" xml:space="preserve" width="580px" height="580px" shape-rendering="geometricPrecision" text-rendering="geometricPrecision" image-rendering="optimizeQuality" fill-rule="nonzero" clip-rule="nonzero" viewBox="0 0 5800 5800" xmlns:xlink="http://www.w3.org/1999/xlink">
	<title>shopping_bag icon</title>
	<desc>shopping_bag icon from the IconExperience.com I-Collection. Copyright by INCORS GmbH (www.incors.com).</desc>
		<path id="curve28"  d="M5119 1715l-21 103c-107,589 -160,1183 -160,1782 0,651 65,1261 181,1900l-4438 0c116,-638 181,-1251 181,-1900 0,-502 -70,-1288 -160,-1782l-20 -112 2 -6 222 -445c67,-134 261,-155 394,-155l3200 0c133,0 322,21 389,155l230 460zm-4213 -15l3983 0 -178 -355c-19,-39 -176,-45 -211,-45l-3200 0c-34,0 -198,8 -216,45l-178 355zm2994 1171c62,-36 100,-102 100,-173 0,-111 -90,-200 -200,-200 -110,0 -200,89 -200,200 0,71 38,137 100,173l0 229c0,442 -358,800 -800,800 -442,0 -800,-358 -800,-800l0 -227c62,-36 100,-101 100,-173 0,-110 -90,-200 -200,-200 -110,0 -200,90 -200,200 0,72 38,137 100,173l0 227c0,552 448,1000 1000,1000 552,0 1000,-448 1000,-1000l0 -229z"/>
</svg>