<?xml version="1.0" encoding="UTF-8"?>
<!DOCTYPE svg PUBLIC "-//W3C//DTD SVG 1.1//EN" "http://www.w3.org/Graphics/SVG/1.1/DTD/svg11.dtd">
<svg xmlns="http://www.w3.org/2000/svg" xml:space="preserve" width="580px" height="580px" shape-rendering="geometricPrecision" text-rendering="geometricPrecision" image-rendering="optimizeQuality" fill-rule="nonzero" clip-rule="nonzero" viewBox="0 0 5800 5800" xmlns:xlink="http://www.w3.org/1999/xlink">
	<title>shopping_bag_full icon</title>
	<desc>shopping_bag_full icon from the IconExperience.com I-Collection. Copyright by INCORS GmbH (www.incors.com).</desc>
		<path id="curve28"  d="M2285 1500l-72 -129c-35,-91 2,-195 87,-244l24 -14 1362 -786c90,-52 205,-26 264,59l644 1114 -231 0 -570 -988 0 0 -7 -12c0,0 0,0 0,0 -1,0 0,0 0,0l-1 -1 0 1c-118,68 -1385,799 -1385,800 0,0 56,98 115,200l-230 0zm1615 1371l0 229c0,552 -448,1000 -1000,1000 -552,0 -1000,-448 -1000,-1000l0 -227c-62,-36 -100,-101 -100,-173 0,-110 90,-200 200,-200 110,0 200,90 200,200 0,72 -38,137 -100,173l0 227c0,442 358,800 800,800 442,0 800,-358 800,-800l0 -229c-62,-36 -100,-102 -100,-173 0,-111 90,-200 200,-200 110,0 200,89 200,200 0,71 -38,137 -100,173zm-2600 -1371l0 -1000c0,-110 90,-200 200,-200l1200 0c110,0 200,90 200,200l0 49 -200 116 0 -165 -1200 0 0 1000 -200 0zm-394 200c1345,0 2690,0 4034,0l-344 -596c54,5 98,15 134,27 88,29 135,77 159,124l228 457c-60,331 -109,656 -139,992 -26,292 -40,591 -40,896 0,305 14,604 40,896 30,340 80,669 141,1004l-4438 0c61,-335 111,-664 141,-1004 26,-292 40,-591 40,-896 0,-305 -14,-604 -40,-896 -27,-299 -67,-595 -120,-886l-21 -113 225 -450c24,-48 73,-95 162,-124 10,-4 21,-7 32,-10l0 211c-9,5 -14,9 -16,13l-178 355zm3975 200l-3962 0c44,259 78,521 102,787 27,304 41,608 41,913 0,305 -14,609 -41,913 -24,266 -58,528 -102,787l3962 0c-44,-259 -78,-521 -102,-787 -27,-304 -41,-608 -41,-913 0,-305 14,-609 41,-913 24,-266 58,-528 102,-787z"/>
</svg>