<?xml version="1.0" encoding="utf-8"?>
<!-- Generator: Adobe Illustrator 19.2.1, SVG Export Plug-In . SVG Version: 6.00 Build 0)  -->
<svg version="1.1" id="show_x5F_tree_x5F_gi" xmlns="http://www.w3.org/2000/svg" xmlns:xlink="http://www.w3.org/1999/xlink"
	 x="0px" y="0px" width="580px" height="580px" viewBox="0 0 580 580" style="enable-background:new 0 0 580 580;"
	 xml:space="preserve">
<path id="curve28_55_" d="M220,300v160h60v-50c0-5.5,4.5-10,10-10h160c5.5,0,10,4.5,10,10v120c0,5.5-4.5,10-10,10H290
	c-5.5,0-10-4.5-10-10v-50h-80c0-100,0-200,0-300h-70c-5.5,0-10-4.5-10-10V50c0-5.5,4.5-10,10-10h160c5.5,0,10,4.5,10,10v120
	c0,5.5-4.5,10-10,10h-70v100h60v-50c0-5.5,4.5-10,10-10h160c5.5,0,10,4.5,10,10v120c0,5.5-4.5,10-10,10H290c-5.5,0-10-4.5-10-10v-50
	H220z M280,60H140v100h140V60z M440,240H300v100h140V240z M440,420H300v100h140V420z"/>
</svg>
