<?xml version="1.0" encoding="UTF-8"?>
<!DOCTYPE svg PUBLIC "-//W3C//DTD SVG 1.1//EN" "http://www.w3.org/Graphics/SVG/1.1/DTD/svg11.dtd">
<svg xmlns="http://www.w3.org/2000/svg" xml:space="preserve" width="580px" height="580px" shape-rendering="geometricPrecision" text-rendering="geometricPrecision" image-rendering="optimizeQuality" fill-rule="nonzero" clip-rule="nonzero" viewBox="0 0 5800 5800" xmlns:xlink="http://www.w3.org/1999/xlink">
	<title>shower_gel icon</title>
	<desc>shower_gel icon from the IconExperience.com I-Collection. Copyright by INCORS GmbH (www.incors.com).</desc>
	<path id="curve0"  d="M2900 176c308,0 1210,23 1434,258 -261,262 -1166,273 -1434,273 -351,0 -1187,-25 -1434,-273 224,-235 1126,-258 1434,-258zm800 2524l-200 0 0 1000 700 0 0 -200 -500 0 0 -800zm-400 196l0 -200 -700 0 0 1004 700 0 0 -200 -500 0 0 -198 400 0 0 -200 -400 0 0 -206 500 0zm-1100 172l200 0c0,-197 -154,-368 -355,-368l-90 0c-201,0 -355,171 -355,368l0 268c0,197 154,368 355,368l90 0c201,0 355,-171 355,-368l0 -167 -418 0 0 200 215 0c-13,74 -74,135 -152,135l-90 0c-91,0 -155,-81 -155,-168l0 -268c0,-87 64,-168 155,-168l90 0c91,0 155,81 155,168zm2417 -890c-565,100 -1143,146 -1717,146 -574,0 -1152,-46 -1717,-145 -52,-9 -88,-57 -82,-108 7,-446 73,-1049 266,-1458 325,265 1114,294 1533,294 365,0 1190,-14 1533,-294 193,410 260,1018 267,1466 0,50 -36,91 -83,99zm-2885 3254c-415,-816 -632,-1716 -632,-2632 0,-136 5,-272 14,-408l2 -24c11,3 21,6 32,8 577,101 1166,148 1752,148 582,0 1179,-45 1752,-148 1,-1 28,-8 32,-9l2 25c9,136 14,272 14,408 0,916 -217,1816 -632,2632 -55,106 -163,168 -281,168l-1774 0c-118,0 -226,-62 -281,-168z"/>
</svg>