<?xml version="1.0" encoding="UTF-8"?>
<!DOCTYPE svg PUBLIC "-//W3C//DTD SVG 1.1//EN" "http://www.w3.org/Graphics/SVG/1.1/DTD/svg11.dtd">
<svg xmlns="http://www.w3.org/2000/svg" xml:space="preserve" width="580px" height="580px" shape-rendering="geometricPrecision" text-rendering="geometricPrecision" image-rendering="optimizeQuality" fill-rule="nonzero" clip-rule="nonzero" viewBox="0 0 5800 5800" xmlns:xlink="http://www.w3.org/1999/xlink">
	<title>shower_gel icon</title>
	<desc>shower_gel icon from the IconExperience.com I-Collection. Copyright by INCORS GmbH (www.incors.com).</desc>
	<path id="curve0" d="M3700 2700l0 800 500 0 0 200 -700 0 0 -1000 200 0zm951 -325c11,-2 22,-5 33,-8 10,144 16,288 16,433 0,463 -55,916 -160,1351 -108,449 -267,877 -472,1281 -55,106 -163,168 -281,168l-1774 0c-118,0 -226,-62 -281,-168 -205,-404 -364,-832 -472,-1281 -105,-436 -160,-888 -160,-1351 0,-136 5,-272 14,-408l2 -24c11,3 21,6 32,8 55,9 110,18 166,27 -10,132 -14,265 -14,397 0,450 53,886 154,1305 103,431 258,845 457,1236 20,40 58,59 102,59l1774 0c44,0 82,-19 102,-59 199,-391 354,-805 457,-1236 101,-419 154,-855 154,-1305 0,-133 -5,-264 -14,-397 56,-9 111,-18 165,-28zm-34 -197c-565,100 -1143,146 -1717,146 -574,0 -1152,-46 -1717,-145 -52,-9 -88,-57 -82,-108 8,-463 84,-1161 322,-1565 31,-111 209,-198 481,-251 257,-49 609,-79 996,-79 387,0 739,30 996,79 272,53 450,140 481,251 239,405 315,1109 323,1573 0,50 -36,91 -83,99zm-360 -1471c-84,50 -208,91 -361,120 -257,50 -609,80 -996,80 -387,0 -739,-30 -996,-80 -153,-29 -277,-70 -361,-120 -168,363 -227,894 -241,1289 527,88 1064,128 1598,128 534,0 1071,-40 1598,-128 -14,-395 -73,-926 -241,-1289zm-399 -256c-243,-46 -582,-75 -958,-75 -376,0 -714,29 -958,75 -200,39 -324,72 -324,90 0,19 124,52 324,90 244,47 582,76 958,76 376,0 715,-29 958,-76 200,-38 324,-71 324,-90 0,-18 -124,-51 -324,-90zm-1658 2617c0,-87 -64,-168 -155,-168l-90 0c-91,0 -155,81 -155,168l0 268c0,87 64,168 155,168l90 0c78,0 139,-61 152,-135l-215 0 0 -200 318 0 100 0 0 100 0 67c0,197 -154,368 -355,368l-90 0c-201,0 -355,-171 -355,-368l0 -268c0,-197 154,-368 355,-368l90 0c201,0 355,171 355,368l-200 0zm1100 -172l-500 0 0 206 400 0 0 200 -400 0 0 198 500 0 0 200 -700 0 0 -1004 700 0 0 200z"/>
</svg>