<?xml version="1.0" encoding="UTF-8"?>
<!DOCTYPE svg PUBLIC "-//W3C//DTD SVG 1.1//EN" "http://www.w3.org/Graphics/SVG/1.1/DTD/svg11.dtd">
<svg xmlns="http://www.w3.org/2000/svg" xml:space="preserve" width="580px" height="580px" shape-rendering="geometricPrecision" text-rendering="geometricPrecision" image-rendering="optimizeQuality" fill-rule="nonzero" clip-rule="nonzero" viewBox="0 0 5800 5800" xmlns:xlink="http://www.w3.org/1999/xlink">
	<title>shredder icon</title>
	<desc>shredder icon from the IconExperience.com I-Collection. Copyright by INCORS GmbH (www.incors.com).</desc>
		<path id="curve29"  d="M700 1900l200 0 0 400 3800 0 0 -400 200 0c220,0 400,180 400,400l0 1000c0,220 -180,400 -400,400l-4200 0c-220,0 -400,-180 -400,-400l0 -1000c0,-220 180,-400 400,-400zm0 200c-110,0 -200,90 -200,200l0 1000c0,110 90,200 200,200l4200 0c110,0 200,-90 200,-200l0 -1000 0 0c0,-110 -90,-200 -200,-200l0 400 -4200 0 0 -400zm3900 600c165,0 300,135 300,300 0,166 -134,300 -300,300 -166,0 -300,-134 -300,-300 0,-166 134,-300 300,-300zm0 200c-55,0 -100,45 -100,100 0,55 45,100 100,100 55,0 100,-45 100,-100 0,-56 -44,-100 -100,-100z"/>
	<path id="curve28"  d="M1100 2100l0 -1800 2050 0c96,0 184,39 247,103 0,0 916,916 1000,1000 66,65 103,154 103,247l0 450 -200 0 0 -450c0,-83 -67,-150 -150,-150l-850 0 0 -850c0,-82 -68,-150 -150,-150l-1850 0 0 1600 -200 0zm2400 -1312l0 512 512 0 -512 -512zm-2400 3112l200 0 0 1400 -200 0 0 -1400zm400 0l200 0 0 1000 -200 0 0 -1000zm400 0l200 0 0 1600 -200 0 0 -1600zm400 0l200 0 0 1200 -200 0 0 -1200zm400 0l200 0 0 1000 -200 0 0 -1000zm400 0l200 0 0 1200 -200 0 0 -1200zm400 0l200 0 0 1000 -200 0 0 -1000zm400 0l200 0 0 1600 -200 0 0 -1600zm400 0l200 0 0 1200 -200 0 0 -1200z"/>
</svg>