<?xml version="1.0" encoding="UTF-8"?>
<!DOCTYPE svg PUBLIC "-//W3C//DTD SVG 1.1//EN" "http://www.w3.org/Graphics/SVG/1.1/DTD/svg11.dtd">
<svg xmlns="http://www.w3.org/2000/svg" xml:space="preserve" width="580px" height="580px" shape-rendering="geometricPrecision" text-rendering="geometricPrecision" image-rendering="optimizeQuality" fill-rule="nonzero" clip-rule="nonzero" viewBox="0 0 5800 5800" xmlns:xlink="http://www.w3.org/1999/xlink">
	<title>shredder icon</title>
	<desc>shredder icon from the IconExperience.com I-Collection. Copyright by INCORS GmbH (www.incors.com).</desc>
		<path id="curve29"  d="M4300 3900l200 0 0 1200 -200 0 0 -1200zm-400 0l200 0 0 1600 -200 0 0 -1600zm-400 0l200 0 0 1000 -200 0 0 -1000zm-400 0l200 0 0 1200 -200 0 0 -1200zm-400 0l200 0 0 1000 -200 0 0 -1000zm-400 0l200 0 0 1200 -200 0 0 -1200zm-400 0l200 0 0 1600 -200 0 0 -1600zm-400 0l200 0 0 1000 -200 0 0 -1000zm-400 0l200 0 0 1400 -200 0 0 -1400zm-400 -2000l200 0 0 400 3800 0 0 -400 200 0c220,0 400,180 400,400l0 1000c0,220 -180,400 -400,400l-4200 0c-220,0 -400,-180 -400,-400l0 -1000c0,-220 180,-400 400,-400zm3900 800c-166,0 -300,134 -300,300 0,166 134,300 300,300 166,0 300,-134 300,-300 0,-165 -135,-300 -300,-300z"/>
	<path id="curve28"  d="M1100 2100l0 -1800 2050 0c82,0 150,68 150,150l0 1050 1045 0c83,0 150,67 150,150l5 450 -3400 0zm2400 -1594l794 794 -794 0 0 -794z"/>
</svg>