<?xml version="1.0" encoding="UTF-8"?>
<!DOCTYPE svg PUBLIC "-//W3C//DTD SVG 1.1//EN" "http://www.w3.org/Graphics/SVG/1.1/DTD/svg11.dtd">
<svg xmlns="http://www.w3.org/2000/svg" xml:space="preserve" width="580px" height="580px" shape-rendering="geometricPrecision" text-rendering="geometricPrecision" image-rendering="optimizeQuality" fill-rule="nonzero" clip-rule="nonzero" viewBox="0 0 5800 5800" xmlns:xlink="http://www.w3.org/1999/xlink">
	<title>shuttlecock icon</title>
	<desc>shuttlecock icon from the IconExperience.com I-Collection. Copyright by INCORS GmbH (www.incors.com).</desc>
	<path id="curve0"  d="M2051 5021l-272 273c-350,350 -923,350 -1273,0 -350,-350 -350,-923 0,-1273l273 -272c39,-39 102,-39 141,0l1131 1131c39,39 39,102 0,141zm-651 -1076l338 -520 496 -1 -678 678 -156 -157zm298 299l678 -679 1 496 -522 339 -157 -156zm301 300l486 -316 455 202 263 -102 -518 -230 365 -238 636 282 263 -102 -699 -310 365 -238 816 361 264 -102 -880 -389 367 -238 -109 -48c0,-40 0,-80 0,-120l-366 239 0 -960 366 -367 0 -141 -141 0 -366 366 -962 0 239 -366 -120 0 -48 -109 -238 366 -387 -873 -102 263 359 810 -238 366 -308 -695 -102 263 280 632 -238 367 -229 -517 -102 263 201 453 -315 485 -334 -333 1213 -3129c28,-87 150,-95 187,-10l531 1199 1320 0c55,0 99,44 99,99l0 1318 1206 535c80,35 79,152 -5,184l-3140 1214 -334 -334zm435 -1319l366 -366 -694 0 -238 367 566 -1zm566 -566l366 -366 -892 0 -238 366 764 0zm-424 1272l366 -238 0 -693 -367 366 1 565zm565 -368l366 -238 1 -891 -367 366 0 763z"/>
</svg>