<?xml version="1.0" encoding="UTF-8"?>
<!DOCTYPE svg PUBLIC "-//W3C//DTD SVG 1.1//EN" "http://www.w3.org/Graphics/SVG/1.1/DTD/svg11.dtd">
<svg xmlns="http://www.w3.org/2000/svg" xml:space="preserve" width="580px" height="580px" shape-rendering="geometricPrecision" text-rendering="geometricPrecision" image-rendering="optimizeQuality" fill-rule="nonzero" clip-rule="nonzero" viewBox="0 0 5800 5800" xmlns:xlink="http://www.w3.org/1999/xlink">
	<title>shuttlecock icon</title>
	<desc>shuttlecock icon from the IconExperience.com I-Collection. Copyright by INCORS GmbH (www.incors.com).</desc>
	<path id="curve0"  d="M2051 5021l-272 273c-350,350 -923,350 -1273,0 -350,-350 -350,-923 0,-1273l273 -272c39,-39 102,-39 141,0l1131 1131c39,39 39,102 0,141zm-795 -1220l315 -485 -201 -453 -294 759 -154 -154 1213 -3129c28,-87 150,-95 187,-10l531 1199 1311 0c62,-6 114,46 108,108l0 1309 1206 535c84,37 76,159 -10,186l-3135 1212 -154 -154 761 -294 -455 -202 -486 316 -144 -144 522 -339 -1 -496 -678 679 -142 -142 678 -678 -496 1 -338 520 -144 -144zm445 -684l238 -367 -280 -632 -187 482 229 517zm368 -567l238 -366 -359 -810 -187 481 308 695zm368 -566l238 -366 -438 -989 -187 482 387 873zm406 -257l-239 366 962 0 366 -366 -1089 0zm-369 566l-238 366 764 0 366 -366 -892 0zm-368 566l-238 367 566 -1 366 -366 -694 0zm3071 706l-995 -441 -367 238 880 389 482 -186zm-1104 -609l0 -1088 -366 367 0 960 366 -239zm358 897l-816 -361 -365 238 699 310 482 -187zm-924 -528l1 -891 -367 366 0 763 366 -238zm179 817l-636 -282 -365 238 518 230 483 -186zm-744 -449l0 -693 -367 366 1 565 366 -238zm-1305 1460l202 -202 -990 -990 -202 202c-272,272 -272,718 0,990 272,272 718,272 990,0z"/>
</svg>