<?xml version="1.0" encoding="UTF-8"?>
<!DOCTYPE svg PUBLIC "-//W3C//DTD SVG 1.1//EN" "http://www.w3.org/Graphics/SVG/1.1/DTD/svg11.dtd">
<svg xmlns="http://www.w3.org/2000/svg" xml:space="preserve" width="580px" height="580px" shape-rendering="geometricPrecision" text-rendering="geometricPrecision" image-rendering="optimizeQuality" fill-rule="nonzero" clip-rule="nonzero" viewBox="0 0 5800 5800" xmlns:xlink="http://www.w3.org/1999/xlink">
	<title>shutter icon</title>
	<desc>shutter icon from the IconExperience.com I-Collection. Copyright by INCORS GmbH (www.incors.com).</desc>
		<path id="curve28"  d="M2900 300c1436,0 2600,1164 2600,2600 0,1436 -1164,2600 -2600,2600 -1436,0 -2600,-1164 -2600,-2600 0,-1436 1164,-2600 2600,-2600zm0 600c-1105,0 -2000,895 -2000,2000 0,1105 895,2000 2000,2000 1105,0 2000,-895 2000,-2000 0,-1105 -895,-2000 -2000,-2000zm1597 1170c-429,-140 -901,-139 -1330,4 691,397 1130,1122 1164,1918 421,-551 486,-1308 166,-1922zm-367 2145c28,-497 -116,-987 -412,-1388 -168,805 -754,1464 -1532,1726 654,283 1422,150 1944,-338zm-2198 203c-571,-365 -889,-1016 -824,-1693 500,624 1270,943 2064,860 -299,418 -739,715 -1240,833zm-776 -1965c268,402 666,702 1127,847 -308,-685 -263,-1485 119,-2130 -612,176 -1088,666 -1246,1283zm1520 -1339c643,-80 1275,188 1664,706 -732,-162 -1501,40 -2060,546 -2,-453 132,-884 396,-1252z"/>
</svg>