<?xml version="1.0" encoding="UTF-8"?>
<!DOCTYPE svg PUBLIC "-//W3C//DTD SVG 1.1//EN" "http://www.w3.org/Graphics/SVG/1.1/DTD/svg11.dtd">
<svg xmlns="http://www.w3.org/2000/svg" xml:space="preserve" width="580px" height="580px" shape-rendering="geometricPrecision" text-rendering="geometricPrecision" image-rendering="optimizeQuality" fill-rule="nonzero" clip-rule="nonzero" viewBox="0 0 5800 5800" xmlns:xlink="http://www.w3.org/1999/xlink">
	<title>shutter icon</title>
	<desc>shutter icon from the IconExperience.com I-Collection. Copyright by INCORS GmbH (www.incors.com).</desc>
		<path id="curve28" d="M2900 900c1105,0 2000,895 2000,2000 0,1105 -895,2000 -2000,2000 -1105,0 -2000,-895 -2000,-2000 0,-1105 895,-2000 2000,-2000zm0 -600c1436,0 2600,1164 2600,2600 0,1436 -1164,2600 -2600,2600 -1436,0 -2600,-1164 -2600,-2600 0,-1436 1164,-2600 2600,-2600zm0 200c-1326,0 -2400,1074 -2400,2400 0,1326 1074,2400 2400,2400 1326,0 2400,-1074 2400,-2400 0,-1326 -1074,-2400 -2400,-2400zm-1744 1953c268,402 666,702 1127,847 -134,-298 -203,-622 -203,-950 0,-416 110,-822 322,-1180 -612,176 -1088,666 -1246,1283zm1381 911c255,46 519,47 774,0 122,-225 205,-473 239,-737 -175,-185 -386,-341 -626,-455 -236,113 -448,268 -626,456 33,258 114,507 239,736zm635 221c-793,82 -1563,-234 -2064,-860 -5,58 -8,116 -8,175 0,617 314,1187 832,1518 501,-118 941,-415 1240,-833zm1325 -1515c-429,-140 -901,-139 -1330,4 691,397 1130,1122 1164,1918 231,-303 369,-681 369,-1092 0,-299 -73,-582 -203,-830zm-2217 296c556,-504 1325,-708 2060,-546 -340,-453 -871,-720 -1440,-720 -76,0 -151,5 -224,14 -264,368 -398,799 -396,1252zm1850 1849c28,-497 -116,-987 -412,-1388 -168,805 -754,1464 -1532,1726 219,94 460,147 714,147 475,0 908,-184 1230,-485z"/>
</svg>