<?xml version="1.0" encoding="UTF-8"?>
<!DOCTYPE svg PUBLIC "-//W3C//DTD SVG 1.1//EN" "http://www.w3.org/Graphics/SVG/1.1/DTD/svg11.dtd">
<svg xmlns="http://www.w3.org/2000/svg" xml:space="preserve" width="580px" height="580px" shape-rendering="geometricPrecision" text-rendering="geometricPrecision" image-rendering="optimizeQuality" fill-rule="nonzero" clip-rule="nonzero" viewBox="0 0 5800 5800" xmlns:xlink="http://www.w3.org/1999/xlink">
	<title>sickle icon</title>
	<desc>sickle icon from the IconExperience.com I-Collection. Copyright by INCORS GmbH (www.incors.com).</desc>
	<path id="curve0"  d="M1598 3354l648 648c39,39 39,103 0,142l-1008 1008c-197,196 -521,196 -718,0l-72 -72c-196,-197 -196,-521 0,-718l1008 -1008c39,-39 103,-39 142,0zm3706 -1794c456,930 89,2067 -844,2530 -726,360 -1647,193 -2212,-384l-648 -654c-38,-39 -39,-102 1,-141l214 -220c118,-116 310,-115 427,3l218 220c412,418 923,487 1445,228 288,-143 513,-424 622,-750 184,-553 2,-1135 -479,-1464 -183,-126 -396,-202 -616,-220 -55,-4 -96,-52 -92,-107 4,-52 46,-91 97,-92 781,-76 1522,349 1867,1051z"/>
</svg>