<?xml version="1.0" encoding="UTF-8"?>
<!DOCTYPE svg PUBLIC "-//W3C//DTD SVG 1.1//EN" "http://www.w3.org/Graphics/SVG/1.1/DTD/svg11.dtd">
<svg xmlns="http://www.w3.org/2000/svg" xml:space="preserve" width="580px" height="580px" shape-rendering="geometricPrecision" text-rendering="geometricPrecision" image-rendering="optimizeQuality" fill-rule="nonzero" clip-rule="nonzero" viewBox="0 0 5800 5800" xmlns:xlink="http://www.w3.org/1999/xlink">
	<title>sickle icon</title>
	<desc>sickle icon from the IconExperience.com I-Collection. Copyright by INCORS GmbH (www.incors.com).</desc>
	<path id="curve0"  d="M2459 2913c413,419 924,488 1446,229 599,-297 865,-1119 571,-1718 -199,-405 -594,-679 -1044,-716 -55,-4 -96,-52 -92,-107 4,-52 46,-91 97,-92 381,-37 763,46 1093,231 323,182 597,460 774,820 230,469 250,986 98,1443 -153,459 -479,857 -942,1087 -726,360 -1647,193 -2212,-384l-648 -654c-38,-39 -39,-102 1,-141 71,-72 141,-148 214,-220 118,-116 310,-115 427,3l217 219zm2754 28c136,-410 118,-873 -88,-1293 -184,-375 -496,-668 -882,-825 168,134 311,306 412,513 342,697 35,1639 -662,1985 -599,297 -1202,212 -1676,-267l-217 -220c-40,-40 -105,-41 -145,-1 -51,50 -105,104 -146,145 -3,4 528,534 581,588 505,515 1333,666 1982,345 414,-206 705,-561 841,-970zm-3615 413l648 648c39,39 39,103 0,142l-1008 1008c-197,196 -521,196 -718,0l-72 -72c-196,-197 -196,-521 0,-718l1008 -1008c39,-39 103,-39 142,0zm436 719l-507 -506 -937 937c-119,119 -119,315 0,434l72 72c119,119 315,119 434,0l938 -937z"/>
</svg>