<?xml version="1.0" encoding="UTF-8"?>
<!DOCTYPE svg PUBLIC "-//W3C//DTD SVG 1.1//EN" "http://www.w3.org/Graphics/SVG/1.1/DTD/svg11.dtd">
<svg xmlns="http://www.w3.org/2000/svg" xml:space="preserve" width="580px" height="580px" shape-rendering="geometricPrecision" text-rendering="geometricPrecision" image-rendering="optimizeQuality" fill-rule="nonzero" clip-rule="nonzero" viewBox="0 0 5800 5800" xmlns:xlink="http://www.w3.org/1999/xlink">
	<title>signboard_open icon</title>
	<desc>signboard_open icon from the IconExperience.com I-Collection. Copyright by INCORS GmbH (www.incors.com).</desc>
	<path id="curve0" d="M4000 4500l0 -1400c80,0 160,0 240,0l560 1051 0 -1051 200 0 0 1400c-80,0 -160,0 -240,0l-560 -1051 0 1051 -200 0zm691 -2800l-1369 -1095c28,-76 35,-159 20,-239l1667 1334 -318 0zm-3900 0l1667 -1334c-15,80 -8,163 20,239l-1369 1095 -318 0zm4709 200l0 3600 -5200 0 0 -3600 5200 0zm-200 200l-4800 0 0 3200 4800 0 0 -3200zm-2400 -1900c138,0 250,112 250,250 0,138 -112,250 -250,250 -327,0 -327,-500 0,-500zm-1300 3400c0,-165 -135,-300 -300,-300 -165,0 -300,135 -300,300l0 400c0,165 135,300 300,300 165,0 300,-135 300,-300l0 -400zm200 0l0 400c0,276 -225,500 -500,500 -276,0 -500,-225 -500,-500l0 -400c0,-276 225,-500 500,-500 275,0 500,224 500,500zm100 900l0 -1400 600 0c220,0 400,180 400,400 0,220 -180,400 -400,400l-400 0 0 600 -200 0zm200 -1200l0 400 400 0c110,0 200,-90 200,-200 0,-110 -90,-200 -200,-200l-400 0zm1800 0l-700 0 0 400 400 0 0 200 -400 0 0 400 700 0 0 200 -900 0 0 -1400 900 0 0 200z"/>
</svg>