<?xml version="1.0" encoding="UTF-8"?>
<!DOCTYPE svg PUBLIC "-//W3C//DTD SVG 1.1//EN" "http://www.w3.org/Graphics/SVG/1.1/DTD/svg11.dtd">
<svg xmlns="http://www.w3.org/2000/svg" xml:space="preserve" width="580px" height="580px" shape-rendering="geometricPrecision" text-rendering="geometricPrecision" image-rendering="optimizeQuality" fill-rule="nonzero" clip-rule="nonzero" viewBox="0 0 5800 5800" xmlns:xlink="http://www.w3.org/1999/xlink">
	<title>sign_warning_biohazard icon</title>
	<desc>sign_warning_biohazard icon from the IconExperience.com I-Collection. Copyright by INCORS GmbH (www.incors.com).</desc>
		<path id="curve28"  d="M3236 675l2308 4051c146,252 -3,575 -311,575l-4652 -1c-300,1 -474,-317 -325,-574l2308 -4051c148,-261 524,-261 672,0zm-636 2213c34,66 87,121 153,156 108,-30 224,-30 332,0 66,-35 119,-90 152,-156 -202,-85 -435,-85 -637,0zm1210 1819c27,-13 14,-54 -16,-50 -118,17 -243,-4 -355,-69 -265,-152 -355,-491 -203,-755 153,-265 492,-356 756,-203 112,65 193,162 237,274 11,28 54,18 52,-12 -18,-322 -213,-604 -507,-737 33,-320 -114,-630 -384,-807 -26,-17 -55,15 -36,39 74,94 118,213 118,342 0,306 -247,553 -553,553 -306,0 -553,-247 -553,-553 0,-129 44,-248 118,-342 19,-24 -10,-56 -36,-39 -270,177 -417,487 -384,807 -294,132 -489,415 -508,737 -1,30 41,40 52,11 45,-111 125,-209 237,-273 265,-153 603,-62 756,202 153,265 62,603 -202,756 -112,65 -237,86 -356,69 -30,-5 -43,37 -16,50 288,145 631,118 892,-70 261,188 603,216 891,70zm-891 -1253c-109,0 -198,88 -198,198 0,109 89,197 198,197 109,0 197,-88 197,-197 0,-110 -88,-198 -197,-198zm822 300c-74,-5 -147,13 -210,51 -29,115 -89,217 -171,297 -1,74 20,147 62,208 172,-132 291,-330 319,-556zm-1325 556c41,-61 63,-134 62,-208 -82,-80 -143,-182 -171,-297 -63,-38 -137,-56 -210,-51 27,226 146,424 319,556z"/>
</svg>