<?xml version="1.0" encoding="UTF-8"?>
<!DOCTYPE svg PUBLIC "-//W3C//DTD SVG 1.1//EN" "http://www.w3.org/Graphics/SVG/1.1/DTD/svg11.dtd">
<svg xmlns="http://www.w3.org/2000/svg" xml:space="preserve" width="580px" height="580px" shape-rendering="geometricPrecision" text-rendering="geometricPrecision" image-rendering="optimizeQuality" fill-rule="nonzero" clip-rule="nonzero" viewBox="0 0 5800 5800" xmlns:xlink="http://www.w3.org/1999/xlink">
	<title>signboard_for_rent icon</title>
	<desc>signboard_for_rent icon from the IconExperience.com I-Collection. Copyright by INCORS GmbH (www.incors.com).</desc>
	<path id="curve0" d="M2900 3700l0 -1400c82,0 164,0 246,0l654 1090 0 -1090 200 0 0 1400c-82,0 -164,0 -246,0l-654 -1090 0 1090 -200 0zm300 400l0 1400 -600 0 0 -1400 -2300 0 0 -3700 0 -100 100 0 5100 0 0 3800 -2300 0zm-400 0l0 1200 200 0 0 -1200 -200 0zm2500 -3600l-4800 0 0 3400c1600,0 3200,0 4800,0l0 -3400zm-3050 400l-850 0 0 400 600 0 0 200 -600 0 0 600 -200 0 0 -1400 1050 0 0 200zm950 300c0,-165 -135,-300 -300,-300l-100 0c-165,0 -300,135 -300,300l0 400c0,165 135,300 300,300l100 0c165,0 300,-135 300,-300l0 -400zm200 0l0 400c0,276 -224,500 -500,500l-100 0c-276,0 -500,-224 -500,-500l0 -400c0,-276 224,-500 500,-500l100 0c276,0 500,225 500,500zm200 900l0 -1400 700 0c220,0 400,180 400,400 0,161 -97,306 -245,369 155,133 245,326 245,531l0 100 -200 0 0 -100c0,-275 -225,-500 -500,-500l-200 0 0 600 -200 0zm200 -1200l0 400c42,0 500,1 500,0 111,0 200,-89 200,-200 0,-110 -90,-200 -200,-200l-500 0zm-3100 2800l0 -1400 700 0c220,0 400,180 400,400 0,162 -97,306 -245,369 155,133 245,326 245,531l0 100 -200 0 0 -100c0,-275 -225,-500 -500,-500l-200 0 0 600 -200 0zm200 -1200l0 400c42,0 500,1 500,0 111,0 200,-89 200,-200 0,-110 -90,-200 -200,-200l-500 0zm1900 0l-700 0 0 400 400 0 0 200 -400 0 0 400 700 0 0 200 -900 0 0 -1400 900 0 0 200zm1900 0l0 1200 -200 0 0 -1200 -400 0 0 -200c333,0 667,0 1000,0l0 200 -400 0z"/>
</svg>