<?xml version="1.0" encoding="UTF-8"?>
<!DOCTYPE svg PUBLIC "-//W3C//DTD SVG 1.1//EN" "http://www.w3.org/Graphics/SVG/1.1/DTD/svg11.dtd">
<svg xmlns="http://www.w3.org/2000/svg" xml:space="preserve" width="580px" height="580px" shape-rendering="geometricPrecision" text-rendering="geometricPrecision" image-rendering="optimizeQuality" fill-rule="nonzero" clip-rule="nonzero" viewBox="0 0 5800 5800" xmlns:xlink="http://www.w3.org/1999/xlink">
	<title>signboard_for_rent icon</title>
	<desc>signboard_for_rent icon from the IconExperience.com I-Collection. Copyright by INCORS GmbH (www.incors.com).</desc>
	<path id="curve0"  d="M2100 2900l0 -400 700 0 0 -200 -900 0 0 1400 900 0 0 -200 -700 0 0 -400 400 0 0 -200 -400 0zm2200 -2200l-700 0 0 1400 200 0 0 -600 200 0c275,0 500,225 500,500l0 100 200 0 0 -100c0,-205 -90,-398 -245,-531 147,-63 245,-207 245,-369 0,-220 -180,-400 -400,-400zm0 200c110,0 200,90 200,200 0,111 -89,200 -200,200 -167,0 -333,0 -500,0l0 -400 500 0zm-1100 300l0 400c0,165 -135,300 -300,300l-100 0c-165,0 -300,-135 -300,-300l0 -400c0,-165 135,-300 300,-300l100 0c83,0 158,34 212,88 54,54 88,129 88,212zm200 0c0,-138 -56,-263 -147,-353 -90,-91 -215,-147 -353,-147l-100 0c-276,0 -500,224 -500,500l0 400c0,276 224,500 500,500l100 0c276,0 500,-224 500,-500l0 -400zm-1150 -300l0 -200 -1050 0 0 1400 200 0 0 -600 600 0 0 -200 -600 0 0 -400 850 0zm1850 1400l0 200 400 0 0 1200 200 0 0 -1200 400 0 0 -200c-333,0 -667,0 -1000,0zm1400 -2000l0 3800 -5200 0 0 -3800 5200 0zm-2300 4000l0 1200 -600 0 0 -1200 600 0zm-2100 -1200c275,0 500,225 500,500l0 100 200 0 0 -100c0,-205 -90,-398 -245,-531 147,-63 245,-207 245,-369 0,-220 -180,-400 -400,-400l-700 0 0 1400 200 0 0 -600 200 0zm300 -200l-500 0 0 -400 500 0c110,0 200,90 200,200 0,111 -89,200 -200,200zm1500 800l200 0 0 -1090 654 1090 246 0 0 -1400 -200 0 0 1090 -654 -1090c-82,0 -164,0 -246,0l0 1400z"/>
</svg>