<?xml version="1.0" encoding="UTF-8"?>
<!DOCTYPE svg PUBLIC "-//W3C//DTD SVG 1.1//EN" "http://www.w3.org/Graphics/SVG/1.1/DTD/svg11.dtd">
<svg xmlns="http://www.w3.org/2000/svg" xml:space="preserve" width="580px" height="580px" shape-rendering="geometricPrecision" text-rendering="geometricPrecision" image-rendering="optimizeQuality" fill-rule="nonzero" clip-rule="nonzero" viewBox="0 0 5800 5800" xmlns:xlink="http://www.w3.org/1999/xlink">
	<title>sign_warning_flammable icon</title>
	<desc>sign_warning_flammable icon from the IconExperience.com I-Collection. Copyright by INCORS GmbH (www.incors.com).</desc>
		<path id="curve28"  d="M2895 3169l-52 -154 -114 114c-221,221 -124,396 -38,551 35,63 67,120 38,150 -28,29 -51,43 -72,41 -30,-3 -69,-30 -119,-84l-82 -88 -72 97c-66,90 -95,179 -95,263 0,63 16,121 47,174 108,188 359,260 562,260 296,0 589,-170 595,-496 4,-276 -178,-421 -356,-562 -106,-85 -209,-167 -242,-266zm50 -1258l-193 -98 51 210c48,200 -37,257 -140,326 -286,190 -417,410 -347,762 16,77 29,143 -37,211 -62,63 -110,23 -143,-41 -31,-57 -46,-136 -34,-224l45 -359 -223 285c-159,205 -224,418 -224,676 0,681 510,1241 1200,1241 690,0 1200,-560 1200,-1241 0,-322 -169,-840 -395,-1075l-207 -215 36 296c24,199 -15,315 -77,365 -25,20 -55,28 -85,27 -33,-2 -67,-16 -98,-41 -74,-60 -123,-179 -93,-345 4,-21 11,-50 17,-80 51,-242 106,-497 -253,-680zm291 -1236l2308 4051c150,259 -11,575 -311,575l-4652 -1c-300,1 -474,-317 -325,-574l2308 -4051c148,-261 524,-261 672,0z"/>
</svg>