<?xml version="1.0" encoding="UTF-8"?>
<!DOCTYPE svg PUBLIC "-//W3C//DTD SVG 1.1//EN" "http://www.w3.org/Graphics/SVG/1.1/DTD/svg11.dtd">
<svg xmlns="http://www.w3.org/2000/svg" xml:space="preserve" width="580px" height="580px" shape-rendering="geometricPrecision" text-rendering="geometricPrecision" image-rendering="optimizeQuality" fill-rule="nonzero" clip-rule="nonzero" viewBox="0 0 5800 5800" xmlns:xlink="http://www.w3.org/1999/xlink">
	<title>signaling_disc icon</title>
	<desc>signaling_disc icon from the IconExperience.com I-Collection. Copyright by INCORS GmbH (www.incors.com).</desc>
		<path id="curve28"  d="M2000 1100c497,0 900,403 900,900 0,497 -403,900 -900,900 -497,0 -900,-403 -900,-900 0,-497 403,-900 900,-900zm0 -800c939,0 1700,761 1700,1700 0,431 -160,824 -425,1124l314 314 -141 141 -313 -313c-301,270 -699,434 -1135,434 -939,0 -1700,-761 -1700,-1700 0,-939 761,-1700 1700,-1700zm0 200c-828,0 -1500,672 -1500,1500 0,828 672,1500 1500,1500 828,0 1500,-672 1500,-1500 0,-828 -672,-1500 -1500,-1500zm1985 2801l1486 1485 70 71 -70 71 -543 543 -71 70 -71 -70 -1485 -1486 684 -684zm0 283l-401 401 1273 1274 402 -402 -1274 -1273zm-1985 -2284c-387,0 -700,313 -700,700 0,387 313,700 700,700 387,0 700,-313 700,-700 0,-387 -313,-700 -700,-700z"/>
</svg>