<?xml version="1.0" encoding="UTF-8"?>
<!DOCTYPE svg PUBLIC "-//W3C//DTD SVG 1.1//EN" "http://www.w3.org/Graphics/SVG/1.1/DTD/svg11.dtd">
<svg xmlns="http://www.w3.org/2000/svg" xml:space="preserve" width="580px" height="580px" shape-rendering="geometricPrecision" text-rendering="geometricPrecision" image-rendering="optimizeQuality" fill-rule="nonzero" clip-rule="nonzero" viewBox="0 0 5800 5800" xmlns:xlink="http://www.w3.org/1999/xlink">
	<title>signal_strength_5 icon</title>
	<desc>signal_strength_5 icon from the IconExperience.com I-Collection. Copyright by INCORS GmbH (www.incors.com).</desc>
		<path id="curve28"  d="M5300 500l0 4800 -4600 0 0 -1600 800 0 0 -800 800 0 0 -800 800 0 0 -800 800 0 0 -800 1400 0zm-200 200l-1000 0 0 800 -800 0 0 800 -800 0 0 800 -800 0 0 800 -800 0 0 1200 4200 0 0 -4400zm-800 200c200,0 400,0 600,0l0 4000c-200,0 -400,0 -600,0l0 -4000zm-3200 3200c200,0 400,0 600,0l0 800c-200,0 -400,0 -600,0l0 -800zm800 -800c200,0 400,0 600,0l0 1600 -600 0 0 -1600zm800 -800c200,0 400,0 600,0l0 2400c-200,0 -400,0 -600,0l0 -2400zm800 -800c200,0 400,0 600,0l0 3200c-200,0 -400,0 -600,0l0 -3200z"/>
</svg>