<?xml version="1.0" encoding="UTF-8"?>
<!DOCTYPE svg PUBLIC "-//W3C//DTD SVG 1.1//EN" "http://www.w3.org/Graphics/SVG/1.1/DTD/svg11.dtd">
<svg xmlns="http://www.w3.org/2000/svg" xml:space="preserve" width="580px" height="580px" shape-rendering="geometricPrecision" text-rendering="geometricPrecision" image-rendering="optimizeQuality" fill-rule="nonzero" clip-rule="nonzero" viewBox="0 0 5800 5800" xmlns:xlink="http://www.w3.org/1999/xlink">
	<title>sign_warning_biohazard icon</title>
	<desc>sign_warning_biohazard icon from the IconExperience.com I-Collection. Copyright by INCORS GmbH (www.incors.com).</desc>
		<path id="curve28"  d="M2919 2824c113,0 220,23 318,64 -33,66 -86,121 -152,156 -53,-15 -109,-22 -166,-22 -58,0 -113,7 -166,22 -66,-35 -119,-90 -153,-156 98,-41 206,-64 319,-64zm891 1883c-250,127 -557,128 -817,-22 -26,-15 -51,-31 -74,-48 -24,17 -49,33 -74,47 -261,151 -568,149 -818,23 -12,-6 -17,-19 -13,-32 4,-12 16,-20 29,-18 119,17 244,-4 356,-69 264,-153 355,-491 202,-756 -153,-264 -491,-355 -756,-202 -112,64 -192,162 -237,273 -5,13 -18,20 -31,17 -13,-3 -21,-15 -21,-28 16,-280 168,-546 429,-697 26,-15 52,-28 79,-40 -3,-29 -5,-58 -5,-88 0,-301 155,-566 389,-719 11,-8 26,-6 35,4 9,10 9,24 1,35 -74,94 -118,213 -118,342 0,306 247,553 553,553 306,0 553,-247 553,-553 0,-129 -44,-248 -118,-342 -8,-11 -8,-25 1,-35 9,-10 24,-12 35,-4 234,153 389,418 389,719 0,30 -2,59 -5,88 27,12 53,26 78,40 261,151 413,417 429,697 1,13 -8,25 -21,28 -13,3 -26,-4 -31,-16 -44,-112 -125,-209 -237,-274 -264,-153 -603,-62 -756,203 -152,264 -62,603 203,755 112,65 237,86 355,69 14,-2 26,6 30,18 4,13 -2,27 -14,32zm-891 -1253c-109,0 -198,88 -198,198 0,109 89,197 198,197 109,0 197,-88 197,-197 0,-110 -88,-198 -197,-198zm822 300c-28,226 -147,424 -319,556 -42,-61 -63,-134 -62,-208 82,-80 142,-182 171,-297 63,-38 136,-56 210,-51zm-1325 556c-173,-132 -292,-330 -319,-556 73,-5 147,13 210,51 28,115 89,217 171,297 1,74 -21,147 -62,208zm647 -3537c-34,-60 -94,-94 -163,-94 -69,0 -129,34 -163,94l-2308 4053c-34,58 -39,128 -5,187 38,67 102,87 176,87l4633 2c62,0 116,-27 147,-83 33,-61 26,-134 -9,-193l-2308 -4053zm173 -98l2308 4051c148,255 -7,575 -311,575l-4652 -1c-300,1 -474,-317 -325,-574l2308 -4051c150,-264 525,-258 672,0z"/>
</svg>