<?xml version="1.0" encoding="UTF-8"?>
<!DOCTYPE svg PUBLIC "-//W3C//DTD SVG 1.1//EN" "http://www.w3.org/Graphics/SVG/1.1/DTD/svg11.dtd">
<svg xmlns="http://www.w3.org/2000/svg" xml:space="preserve" width="580px" height="580px" shape-rendering="geometricPrecision" text-rendering="geometricPrecision" image-rendering="optimizeQuality" fill-rule="nonzero" clip-rule="nonzero" viewBox="0 0 5800 5800" xmlns:xlink="http://www.w3.org/1999/xlink">
	<title>signboard_closed icon</title>
	<desc>signboard_closed icon from the IconExperience.com I-Collection. Copyright by INCORS GmbH (www.incors.com).</desc>
	<path id="curve0"  d="M2900 200c138,0 250,112 250,250 0,138 -112,250 -250,250 -138,0 -250,-112 -250,-250 0,-138 112,-250 250,-250zm-1700 3488l200 0c0,-192 -158,-350 -350,-350 -193,0 -350,158 -350,350l0 250c0,193 157,350 350,350 192,0 350,-157 350,-350l-200 0c0,83 -67,150 -150,150 -83,0 -150,-67 -150,-150l0 -250c0,-82 67,-150 150,-150 83,0 150,67 150,150zm3200 -349l0 949 350 0c192,0 350,-157 350,-350l0 -250c0,-192 -157,-350 -350,-350l-350 1zm200 199l150 0c83,0 150,68 150,150l0 250c0,83 -67,150 -150,150l-150 1 0 -551zm-1200 88l200 0c0,-158 -129,-288 -287,-288l-126 0c-158,0 -287,130 -287,288 0,158 129,287 287,287l126 0c48,0 87,39 87,88 0,48 -39,87 -87,87l-126 0c-48,0 -87,-39 -87,-87l-200 0c0,158 129,287 287,287l126 0c158,0 287,-129 287,-287 0,-158 -129,-288 -287,-288l-126 0c-48,0 -87,-39 -87,-87 0,-48 39,-88 87,-88l126 0c48,0 87,39 87,88zm500 87l0 -175 400 0 0 -200 -600 0 0 950 600 0 0 -200 -400 0 0 -175 190 0 0 -200 -190 0zm-2220 -370l-200 0 0 945 600 0 0 -200 -400 0 0 -745zm950 345l0 250c0,83 -67,150 -150,150 -83,0 -150,-67 -150,-150l0 -250c0,-82 67,-150 150,-150 83,0 150,67 150,150zm200 0c0,-192 -158,-350 -350,-350 -193,0 -350,158 -350,350l0 250c0,193 157,350 350,350 193,0 350,-157 350,-350l0 -250zm1861 -1988l-1369 -1095c28,-76 35,-159 20,-239l1667 1334 -318 0zm-3900 0l1667 -1334c-15,80 -8,163 20,239l-1369 1095 -318 0zm4709 200l0 3600 -5200 0 0 -3600 5200 0z"/>
</svg>