<?xml version="1.0" encoding="UTF-8"?>
<!DOCTYPE svg PUBLIC "-//W3C//DTD SVG 1.1//EN" "http://www.w3.org/Graphics/SVG/1.1/DTD/svg11.dtd">
<svg xmlns="http://www.w3.org/2000/svg" xml:space="preserve" width="580px" height="580px" shape-rendering="geometricPrecision" text-rendering="geometricPrecision" image-rendering="optimizeQuality" fill-rule="nonzero" clip-rule="nonzero" viewBox="0 0 5800 5800" xmlns:xlink="http://www.w3.org/1999/xlink">
	<title>signboard_closed icon</title>
	<desc>signboard_closed icon from the IconExperience.com I-Collection. Copyright by INCORS GmbH (www.incors.com).</desc>
	<path id="curve0"  d="M2630 3688c0,-83 -67,-150 -150,-150 -83,0 -150,68 -150,150l0 250c0,83 67,150 150,150 83,0 150,-67 150,-150l0 -250zm-1839 -1988l1667 -1334c-15,80 -8,163 20,239l-1369 1095 -318 0zm3900 0l-1369 -1095c28,-76 35,-159 20,-239l1667 1334 -318 0zm809 200l0 3600 -5200 0 0 -3600 5200 0zm-200 200l-4800 0 0 3200 4800 0 0 -3200zm-2400 -1900c138,0 250,112 250,250 0,138 -112,250 -250,250 -138,0 -250,-112 -250,-250 0,-138 112,-250 250,-250zm-70 3488l0 250c0,193 -157,350 -350,350 -193,0 -350,-157 -350,-350l0 -250c0,-192 157,-350 350,-350 192,0 350,158 350,350zm-1150 -345l0 745 400 0 0 200 -600 0 0 -945 200 0zm2220 570l0 175 400 0 0 200 -600 0 0 -950 600 0 0 200 -400 0 0 175 190 0 0 200 -190 0zm-500 -287c0,-49 -39,-88 -87,-88l-126 0c-48,0 -87,40 -87,88 0,48 39,87 87,87l126 0c158,0 287,130 287,288 0,158 -129,287 -287,287l-126 0c-158,0 -287,-129 -287,-287l200 0c0,48 39,87 87,87l126 0c48,0 87,-39 87,-87 0,-49 -39,-88 -87,-88l-126 0c-158,0 -287,-129 -287,-287 0,-158 129,-288 287,-288l126 0c158,0 287,130 287,288l-200 0zm1000 -287l350 -1c193,0 350,158 350,350l0 250c0,193 -158,350 -350,350l-350 0 0 -949zm200 199l0 551 150 -1c83,0 150,-67 150,-150l0 -250c0,-82 -67,-150 -150,-150l-150 0zm-3400 150c0,-83 -67,-150 -150,-150 -83,0 -150,68 -150,150l0 250c0,83 67,150 150,150 83,0 150,-67 150,-150l200 0c0,193 -158,350 -350,350 -193,0 -350,-157 -350,-350l0 -250c0,-192 157,-350 350,-350 192,0 350,158 350,350l-200 0z"/>
</svg>