<?xml version="1.0" encoding="UTF-8"?>
<!DOCTYPE svg PUBLIC "-//W3C//DTD SVG 1.1//EN" "http://www.w3.org/Graphics/SVG/1.1/DTD/svg11.dtd">
<svg xmlns="http://www.w3.org/2000/svg" xml:space="preserve" width="580px" height="580px" shape-rendering="geometricPrecision" text-rendering="geometricPrecision" image-rendering="optimizeQuality" fill-rule="nonzero" clip-rule="nonzero" viewBox="0 0 5800 5800" xmlns:xlink="http://www.w3.org/1999/xlink">
	<title>sign_forbidden icon</title>
	<desc>sign_forbidden icon from the IconExperience.com I-Collection. Copyright by INCORS GmbH (www.incors.com).</desc>
		<path id="curve28"  d="M2746 906c464,-36 939,88 1333,374l95 69 -2819 2819 -69 -95c-286,-394 -411,-868 -374,-1332 78,-979 855,-1757 1834,-1835zm16 200c-880,70 -1581,770 -1651,1650 -30,381 60,769 270,1102l2483 -2482c-334,-210 -722,-301 -1102,-270zm1763 621c286,394 411,868 374,1332 -78,979 -855,1757 -1834,1835 -464,36 -939,-88 -1333,-374l-95 -69 2819 -2819 69 95zm175 1317c30,-381 -60,-769 -270,-1102l-2483 2482c334,210 722,301 1102,270 881,-70 1581,-770 1651,-1650zm-1800 -2744c1436,0 2600,1164 2600,2600 0,1436 -1164,2600 -2600,2600 -1436,0 -2600,-1164 -2600,-2600 0,-1436 1164,-2600 2600,-2600zm0 200c-1326,0 -2400,1074 -2400,2400 0,1326 1074,2400 2400,2400 1326,0 2400,-1074 2400,-2400 0,-1326 -1074,-2400 -2400,-2400z"/>
</svg>