<?xml version="1.0" encoding="UTF-8"?>
<!DOCTYPE svg PUBLIC "-//W3C//DTD SVG 1.1//EN" "http://www.w3.org/Graphics/SVG/1.1/DTD/svg11.dtd">
<svg xmlns="http://www.w3.org/2000/svg" xml:space="preserve" width="580px" height="580px" shape-rendering="geometricPrecision" text-rendering="geometricPrecision" image-rendering="optimizeQuality" fill-rule="nonzero" clip-rule="nonzero" viewBox="0 0 5800 5800" xmlns:xlink="http://www.w3.org/1999/xlink">
	<title>signboard_sold icon</title>
	<desc>signboard_sold icon from the IconExperience.com I-Collection. Copyright by INCORS GmbH (www.incors.com).</desc>
	<path id="curve0"  d="M5500 300l0 3800 -5200 0 0 -3800 5200 0zm-1400 1200l0 1400 500 0c276,0 500,-225 500,-500l0 -400c0,-276 -224,-500 -500,-500l-500 0zm200 200l300 0c165,0 300,135 300,300l0 400c0,165 -135,300 -300,300l-300 0 0 -1000zm-998 -200l-200 0 0 1400 896 0 0 -200 -696 0 0 -1200zm-802 200c165,0 300,135 300,300l0 400c0,165 -135,300 -300,300l-100 0c-165,0 -300,-135 -300,-300l0 -400c0,-165 135,-300 300,-300l100 0zm0 -200l-100 0c-276,0 -500,224 -500,500l0 400c0,276 224,500 500,500l100 0c276,0 500,-224 500,-500l0 -400c0,-275 -225,-500 -500,-500zm-1597 400c0,-110 91,-200 200,-200l297 0c110,0 200,90 200,200l200 0c0,-220 -180,-400 -400,-400l-297 0c-220,0 -399,180 -399,400 -1,220 179,400 399,400l297 0c110,0 200,90 200,200 0,110 -90,200 -200,200l-297 0c-110,0 -200,-90 -200,-200l-200 0c0,220 180,400 400,400l297 0c220,0 400,-180 400,-400 0,-220 -180,-400 -400,-400l-297 0c-110,0 -200,-90 -200,-200zm2297 2400l0 1200 -600 0 0 -1200 600 0z"/>
</svg>