<?xml version="1.0" encoding="UTF-8"?>
<!DOCTYPE svg PUBLIC "-//W3C//DTD SVG 1.1//EN" "http://www.w3.org/Graphics/SVG/1.1/DTD/svg11.dtd">
<svg xmlns="http://www.w3.org/2000/svg" xml:space="preserve" width="580px" height="580px" shape-rendering="geometricPrecision" text-rendering="geometricPrecision" image-rendering="optimizeQuality" fill-rule="nonzero" clip-rule="nonzero" viewBox="0 0 5800 5800" xmlns:xlink="http://www.w3.org/1999/xlink">
	<title>signal_flag_checkered icon</title>
	<desc>signal_flag_checkered icon from the IconExperience.com I-Collection. Copyright by INCORS GmbH (www.incors.com).</desc>
		<path id="curve28"  d="M4700 2569c-222,-75 -461,-113 -700,-113l0 694c238,0 476,36 700,108l0 -689zm-1500 724l0 -693c250,-100 525,-150 800,-150l0 -794c-275,0 -550,50 -800,150l0 -699c-252,95 -526,143 -800,143l0 700c275,0 550,-50 800,-150l0 806c-250,100 -525,150 -800,150l0 694c263,0 525,-48 763,-143 12,-5 25,-9 37,-14zm800 -2343l0 700c239,0 478,38 700,113l0 -694c-221,-79 -460,-119 -700,-119zm-2300 893l0 -912c462,166 1007,159 1463,-24 525,-209 1149,-209 1674,0l63 26 0 2614 -137 -54c-476,-191 -1050,-191 -1526,0 -481,192 -1044,207 -1537,49l0 -905c222,75 461,113 700,113l0 -794c-239,0 -478,-38 -700,-113zm-200 -1143c0,1600 0,3200 0,4800l-200 0 0 -4800 200 0z"/>
</svg>