<?xml version="1.0" encoding="UTF-8"?>
<!DOCTYPE svg PUBLIC "-//W3C//DTD SVG 1.1//EN" "http://www.w3.org/Graphics/SVG/1.1/DTD/svg11.dtd">
<svg xmlns="http://www.w3.org/2000/svg" xml:space="preserve" width="580px" height="580px" shape-rendering="geometricPrecision" text-rendering="geometricPrecision" image-rendering="optimizeQuality" fill-rule="nonzero" clip-rule="nonzero" viewBox="0 0 5800 5800" xmlns:xlink="http://www.w3.org/1999/xlink">
	<title>sign_forbidden icon</title>
	<desc>sign_forbidden icon from the IconExperience.com I-Collection. Copyright by INCORS GmbH (www.incors.com).</desc>
		<path id="curve28"  d="M2900 300c718,0 1368,291 1838,762 471,470 762,1120 762,1838 0,1436 -1164,2600 -2600,2600 -718,0 -1368,-291 -1838,-762 -471,-470 -762,-1120 -762,-1838 0,-1436 1164,-2600 2600,-2600zm-138 806c-880,70 -1581,770 -1651,1650 -30,381 60,769 270,1102l2483 -2482c-334,-210 -722,-301 -1102,-270zm1938 1938c30,-381 -60,-769 -270,-1102l-2483 2482c334,210 722,301 1102,270 881,-70 1581,-770 1651,-1650z"/>
</svg>