<?xml version="1.0" encoding="UTF-8"?>
<!DOCTYPE svg PUBLIC "-//W3C//DTD SVG 1.1//EN" "http://www.w3.org/Graphics/SVG/1.1/DTD/svg11.dtd">
<svg xmlns="http://www.w3.org/2000/svg" xml:space="preserve" width="580px" height="580px" shape-rendering="geometricPrecision" text-rendering="geometricPrecision" image-rendering="optimizeQuality" fill-rule="nonzero" clip-rule="nonzero" viewBox="0 0 5800 5800" xmlns:xlink="http://www.w3.org/1999/xlink">
	<title>sign_yield icon</title>
	<desc>sign_yield icon from the IconExperience.com I-Collection. Copyright by INCORS GmbH (www.incors.com).</desc>
		<path id="curve28" d="M4493 1300l-3186 1 1593 2783 1593 -2784zm344 -200l-1937 3386 -1937 -3384 3874 -2zm-1601 4007c-146,256 -522,262 -672,0l-2308 -4034c-150,-256 26,-573 326,-571l4651 -2c304,0 459,320 311,573l-2308 4034zm-173 -100l2308 -4033c35,-59 42,-131 9,-192 -31,-55 -85,-82 -147,-82l-4652 1c-65,0 -124,29 -157,87 -34,59 -29,128 5,186l2308 4033c73,128 255,125 326,0z"/>
</svg>