<?xml version="1.0" encoding="UTF-8"?>
<!DOCTYPE svg PUBLIC "-//W3C//DTD SVG 1.1//EN" "http://www.w3.org/Graphics/SVG/1.1/DTD/svg11.dtd">
<svg xmlns="http://www.w3.org/2000/svg" xml:space="preserve" width="580px" height="580px" shape-rendering="geometricPrecision" text-rendering="geometricPrecision" image-rendering="optimizeQuality" fill-rule="nonzero" clip-rule="nonzero" viewBox="0 0 5800 5800" xmlns:xlink="http://www.w3.org/1999/xlink">
	<title>signpost icon</title>
	<desc>signpost icon from the IconExperience.com I-Collection. Copyright by INCORS GmbH (www.incors.com).</desc>
		<path id="curve28"  d="M2300 5300l600 0c0,-1200 0,-2400 0,-3600l-1941 0 -600 -600 600 -600 1941 0 0 -100 200 0 0 1300 1742 0 599 600 -600 600 -1741 0 0 2400 600 0 0 200c-467,0 -933,0 -1400,0l0 -200zm800 -3400l0 800 1659 0 400 -400 -401 -400 -1658 0zm-200 -1200l-1859 0 -400 400 400 400 1859 0 0 -800z"/>
</svg>