<?xml version="1.0" encoding="UTF-8"?>
<!DOCTYPE svg PUBLIC "-//W3C//DTD SVG 1.1//EN" "http://www.w3.org/Graphics/SVG/1.1/DTD/svg11.dtd">
<svg xmlns="http://www.w3.org/2000/svg" xml:space="preserve" width="580px" height="580px" shape-rendering="geometricPrecision" text-rendering="geometricPrecision" image-rendering="optimizeQuality" fill-rule="nonzero" clip-rule="nonzero" viewBox="0 0 5800 5800" xmlns:xlink="http://www.w3.org/1999/xlink">
	<title>sign_warning_toxic icon</title>
	<desc>sign_warning_toxic icon from the IconExperience.com I-Collection. Copyright by INCORS GmbH (www.incors.com).</desc>
		<path id="curve28"  d="M3236 675l2308 4051c146,252 -3,575 -311,575l-4652 -1c-300,1 -474,-317 -325,-574l2308 -4051c148,-261 524,-261 672,0zm-292 2809l112 211c17,34 -7,73 -45,73l-222 0c-38,0 -62,-39 -45,-73l112 -211c18,-36 70,-36 88,0zm-44 916c324,0 507,-100 507,-500 0,-170 -16,-257 150,-279 72,-9 127,-52 150,-121 28,-87 -22,-206 0,-300 47,-200 79,-429 -31,-595 -161,-241 -511,-305 -776,-305 -265,0 -615,64 -776,305 -110,166 -78,395 -31,595 22,94 -28,213 0,300 23,69 78,112 150,121 166,22 150,109 150,279 0,400 183,500 507,500zm-350 -1451c138,0 250,112 250,250 0,138 -112,250 -250,250 -138,0 -250,-113 -250,-250 0,-138 112,-250 250,-250zm700 0c138,0 250,112 250,250 0,137 -112,250 -250,250 -138,0 -250,-112 -250,-250 0,-138 112,-250 250,-250zm-757 894c10,15 32,30 64,44 85,39 213,58 343,58 130,0 258,-19 343,-58 32,-14 54,-29 64,-44 0,80 0,164 -20,242 -107,40 -248,60 -387,60 -139,0 -280,-20 -387,-60 -20,-78 -20,-162 -20,-242zm1113 95c-2,82 -12,157 -29,223l462 -168c77,-28 97,32 152,58 75,35 164,2 199,-73 26,-56 15,-122 -27,-167 -20,-21 -29,-46 -28,-75 4,-61 -30,-119 -86,-145 -75,-35 -164,-3 -199,72 -26,55 -2,114 -80,142l-364 133zm-147 460c-52,61 -118,108 -198,141l509 185c78,29 54,87 80,142 35,75 124,108 199,73 56,-27 90,-84 86,-146 -1,-28 8,-54 28,-75 42,-44 53,-111 27,-167 -35,-75 -124,-107 -199,-72 -55,25 -75,86 -152,57l-380 -138zm-920 141c-80,-33 -146,-80 -198,-141l-380 138c-77,29 -97,-32 -152,-57 -75,-35 -164,-3 -199,72 -26,56 -15,123 27,167 20,21 29,47 28,75 -4,62 30,119 86,146 75,35 164,2 199,-73 26,-55 2,-113 80,-142l509 -185zm-316 -378c-17,-66 -27,-141 -29,-223l-364 -133c-78,-28 -54,-87 -80,-142 -35,-75 -124,-107 -199,-72 -56,26 -90,84 -86,145 1,29 -8,54 -28,75 -42,45 -53,111 -27,167 35,75 124,108 199,73 55,-26 75,-86 152,-58l462 168z"/>
</svg>