<?xml version="1.0" encoding="UTF-8"?>
<!DOCTYPE svg PUBLIC "-//W3C//DTD SVG 1.1//EN" "http://www.w3.org/Graphics/SVG/1.1/DTD/svg11.dtd">
<svg xmlns="http://www.w3.org/2000/svg" xml:space="preserve" width="580px" height="580px" shape-rendering="geometricPrecision" text-rendering="geometricPrecision" image-rendering="optimizeQuality" fill-rule="nonzero" clip-rule="nonzero" viewBox="0 0 5800 5800" xmlns:xlink="http://www.w3.org/1999/xlink">
	<title>sign_warning_toxic icon</title>
	<desc>sign_warning_toxic icon from the IconExperience.com I-Collection. Copyright by INCORS GmbH (www.incors.com).</desc>
		<path id="curve28"  d="M2944 3484l112 211c8,16 7,34 -2,49 -9,16 -25,24 -43,24l-222 0c-18,0 -34,-8 -43,-24 -9,-15 -10,-33 -2,-49l112 -211c9,-17 25,-27 44,-27 19,0 35,10 44,27zm-1278 102c39,14 68,43 84,77 8,17 13,36 14,54 3,41 28,74 66,88l364 133c2,82 12,157 29,223l-462 -168c-38,-14 -78,-4 -106,25 -13,14 -29,25 -46,33 -34,16 -75,19 -114,5 -39,-15 -69,-43 -85,-78 -16,-35 -19,-76 -5,-115 7,-20 18,-37 32,-52 20,-21 29,-46 28,-75 -2,-20 1,-41 8,-61 15,-38 43,-68 78,-84 35,-16 76,-19 115,-5zm1940 352l364 -133c38,-14 63,-47 66,-88 1,-18 6,-37 14,-54 16,-34 45,-63 84,-77 39,-14 80,-11 115,5 35,16 63,46 78,84 7,20 10,41 8,61 -1,29 8,54 28,75 14,15 25,32 32,52 14,39 11,80 -5,115 -16,35 -46,63 -85,78 -39,14 -80,11 -114,-5 -17,-8 -33,-19 -46,-33 -28,-29 -68,-39 -106,-25l-462 168c17,-66 27,-141 29,-223zm-147 460l380 138c38,14 78,5 106,-25 13,-13 29,-24 46,-32 34,-16 75,-19 114,-5 39,14 69,43 85,77 16,35 19,76 5,115 -7,20 -18,38 -32,52 -20,21 -29,47 -28,75 2,20 -1,41 -8,61 -15,39 -43,68 -78,85 -35,16 -76,19 -115,5 -39,-15 -68,-43 -84,-78 -8,-17 -13,-35 -14,-54 -3,-41 -28,-74 -66,-88l-509 -185c80,-33 146,-80 198,-141zm-920 141l-509 185c-38,14 -63,47 -66,88 -1,19 -6,37 -14,54 -16,35 -45,63 -84,78 -39,14 -80,11 -115,-5 -35,-17 -63,-46 -78,-85 -7,-20 -10,-41 -8,-61 1,-28 -8,-54 -28,-75 -14,-14 -25,-32 -32,-52 -14,-39 -11,-80 5,-115 16,-34 46,-63 85,-77 39,-14 80,-11 114,5 17,8 33,19 46,32 28,30 68,39 106,25l380 -138c52,61 118,108 198,141zm361 -239c139,0 244,-19 309,-75 36,-31 62,-77 78,-140 -107,40 -248,60 -387,60 -139,0 -280,-20 -387,-60 16,63 42,109 78,140 65,56 170,75 309,75zm407 -457c-2,-191 4,-290 237,-321 18,-2 33,-8 45,-17 10,-9 18,-21 23,-35 7,-24 2,-68 -3,-112 -7,-59 -14,-118 0,-181 23,-94 41,-195 41,-287 1,-85 -15,-165 -57,-230 -58,-86 -148,-146 -250,-186 -141,-56 -304,-74 -443,-74 -139,0 -302,18 -443,74 -102,40 -192,100 -250,186 -42,65 -58,145 -57,230 0,92 18,193 41,287 14,63 7,122 0,181 -5,44 -10,88 -3,112 5,14 13,26 23,35 12,9 27,15 45,17 233,31 239,130 237,321 10,15 32,30 64,44 85,39 213,58 343,58 130,0 258,-19 343,-58 32,-14 54,-29 64,-44zm33 532c-107,94 -255,125 -440,125 -185,0 -333,-31 -440,-125 -109,-94 -167,-243 -167,-475 0,-32 1,-4 1,-41 1,-86 1,-131 -63,-139 -55,-7 -105,-28 -145,-60 -40,-33 -70,-76 -88,-130 -21,-66 -13,-130 -5,-195 5,-42 10,-84 3,-112 -25,-106 -45,-220 -46,-333 0,-121 24,-239 91,-340 83,-125 206,-208 344,-262 167,-66 356,-88 515,-88 159,0 348,22 515,88 138,54 261,137 344,262 67,101 91,219 91,340 -1,113 -21,227 -46,333 -7,28 -2,70 3,112 8,65 16,129 -5,195 -18,54 -48,97 -88,130 -40,32 -90,53 -145,60 -64,8 -64,53 -63,139 0,37 1,9 1,41 0,232 -58,381 -167,475zm-790 -1426c138,0 250,112 250,250 0,138 -112,250 -250,250 -138,0 -250,-113 -250,-250 0,-138 112,-250 250,-250zm700 0c138,0 250,112 250,250 0,137 -112,250 -250,250 -138,0 -250,-112 -250,-250 0,-138 112,-250 250,-250zm-187 -2176c-34,-60 -94,-94 -163,-94 -69,0 -129,34 -163,94l-2308 4053c-34,58 -39,128 -5,187 38,67 102,87 176,87l4633 2c62,0 116,-27 147,-83 33,-61 26,-134 -9,-193l-2308 -4053zm173 -98l2308 4051c148,255 -7,575 -311,575l-4652 -1c-300,1 -474,-317 -325,-574l2308 -4051c150,-264 525,-258 672,0z"/>
</svg>