<?xml version="1.0" encoding="UTF-8"?>
<!DOCTYPE svg PUBLIC "-//W3C//DTD SVG 1.1//EN" "http://www.w3.org/Graphics/SVG/1.1/DTD/svg11.dtd">
<svg xmlns="http://www.w3.org/2000/svg" xml:space="preserve" width="580px" height="580px" shape-rendering="geometricPrecision" text-rendering="geometricPrecision" image-rendering="optimizeQuality" fill-rule="nonzero" clip-rule="nonzero" viewBox="0 0 5800 5800" xmlns:xlink="http://www.w3.org/1999/xlink">
	<title>signboard_for_sale icon</title>
	<desc>signboard_for_sale icon from the IconExperience.com I-Collection. Copyright by INCORS GmbH (www.incors.com).</desc>
	<path id="curve0"  d="M5500 300l0 3800 -5200 0 0 -3800 5200 0zm-2300 4000l0 1200 -600 0 0 -1200 600 0zm800 -2800c275,0 500,225 500,500l0 100 200 0 0 -100c0,-205 -90,-398 -245,-531 144,-61 245,-204 245,-369 0,-220 -180,-400 -400,-400l-700 0 0 1400 200 0 0 -600 200 0zm300 -600l-500 0 0 400c167,0 333,0 500,0 111,0 200,-89 200,-200 0,-110 -90,-200 -200,-200zm-1500 1000c-165,0 -300,-135 -300,-300l0 -400c0,-165 135,-300 300,-300l100 0c165,0 300,135 300,300l0 400c0,165 -135,300 -300,300l-100 0zm0 200l100 0c276,0 500,-224 500,-500l0 -400c0,-275 -224,-500 -500,-500l-100 0c-276,0 -500,224 -500,500l0 400c0,276 224,500 500,500zm-550 -1200l0 -200 -1050 0 0 1400 200 0 0 -600 600 0 0 -200 -600 0 0 -400 850 0zm2050 2000l0 -400 800 0 0 -200 -1000 0 0 1400 1000 0 0 -200 -800 0 0 -400 500 0 0 -200 -500 0zm-1900 -600c-40,0 -77,24 -93,63l-336 849c-26,66 -44,129 -55,192 -11,64 -16,128 -16,196l0 100 200 0 0 -100c0,-58 4,-111 13,-162 2,-13 5,-25 8,-38l658 0c3,13 6,26 8,38 9,52 13,105 13,162l0 100 200 0 0 -100c0,-68 -5,-132 -16,-196 -11,-64 -29,-127 -55,-192l-335 -845c-13,-39 -50,-67 -94,-67l-100 0zm309 900l-518 0 259 -655 259 655zm593 -900l-200 0 0 1400 896 0 0 -200 -696 0 0 -1200zm-2399 400c0,-110 90,-200 200,-200l297 0c110,0 200,90 200,200l200 0c0,-220 -180,-400 -400,-400l-297 0c-220,0 -399,180 -399,400 -1,220 180,400 399,400l297 0c110,0 200,90 200,200 0,110 -90,200 -200,200l-297 0c-110,0 -200,-90 -200,-200l-200 0c0,220 180,400 400,400l297 0c220,0 400,-180 400,-400 0,-220 -180,-400 -400,-400l-297 0c-110,0 -200,-89 -200,-200z"/>
</svg>