<?xml version="1.0" encoding="UTF-8"?>
<!DOCTYPE svg PUBLIC "-//W3C//DTD SVG 1.1//EN" "http://www.w3.org/Graphics/SVG/1.1/DTD/svg11.dtd">
<svg xmlns="http://www.w3.org/2000/svg" xml:space="preserve" width="580px" height="580px" shape-rendering="geometricPrecision" text-rendering="geometricPrecision" image-rendering="optimizeQuality" fill-rule="nonzero" clip-rule="nonzero" viewBox="0 0 5800 5800" xmlns:xlink="http://www.w3.org/1999/xlink">
	<title>sign_stop icon</title>
	<desc>sign_stop icon from the IconExperience.com I-Collection. Copyright by INCORS GmbH (www.incors.com).</desc>
		<path id="curve28"  d="M3729 900l1171 1171 0 1658 -1171 1171 -1658 0 -1171 -1171 0 -1658 1171 -1171 1658 0zm-1574 200l-1055 1055 0 1490 1055 1055 1490 0 1055 -1055 0 -1490 -1055 -1055 -1490 0zm1822 -800l1523 1523 0 2154 -1523 1523 -2154 0 -1523 -1523 0 -2154 1523 -1523 2154 0zm-2071 200l-1406 1406 0 1988 1406 1406 1988 0 1406 -1406 0 -1988 -1406 -1406 -1988 0z"/>
</svg>