<?xml version="1.0" encoding="UTF-8"?>
<!DOCTYPE svg PUBLIC "-//W3C//DTD SVG 1.1//EN" "http://www.w3.org/Graphics/SVG/1.1/DTD/svg11.dtd">
<svg xmlns="http://www.w3.org/2000/svg" xml:space="preserve" width="580px" height="580px" shape-rendering="geometricPrecision" text-rendering="geometricPrecision" image-rendering="optimizeQuality" fill-rule="nonzero" clip-rule="nonzero" viewBox="0 0 5800 5800" xmlns:xlink="http://www.w3.org/1999/xlink">
	<title>sign_warning_flammable icon</title>
	<desc>sign_warning_flammable icon from the IconExperience.com I-Collection. Copyright by INCORS GmbH (www.incors.com).</desc>
		<path id="curve28"  d="M3063 773c-34,-60 -94,-94 -163,-94 -69,0 -129,34 -163,94l-2308 4053c-34,58 -39,128 -5,187 38,67 102,87 176,87l4633 2c62,0 116,-27 147,-83 33,-61 26,-134 -9,-193l-2308 -4053zm173 -98l2308 4051c148,255 -7,575 -311,575l-4652 -1c-300,1 -474,-317 -325,-574l2308 -4051c150,-264 525,-258 672,0zm-341 2494c33,99 136,181 242,266 178,141 360,286 356,562 -3,115 -54,263 -184,368 -94,76 -227,128 -411,128 -173,0 -331,-48 -442,-128 -50,-37 -91,-82 -120,-132 -31,-53 -47,-111 -47,-174 0,-84 29,-173 95,-263l72 -97 82 88c50,54 89,81 119,84 21,2 44,-12 72,-41 29,-30 -3,-87 -38,-150 -86,-155 -183,-330 38,-551l114 -114 52 154zm118 422c-75,-60 -149,-119 -208,-189 -4,65 29,125 60,181 73,132 139,250 6,387 -71,73 -147,109 -235,99 -47,-5 -93,-23 -141,-56 -4,16 -6,31 -6,46 0,27 7,52 20,74 15,26 37,50 65,71 77,56 193,89 324,89 133,0 225,-34 286,-83 78,-63 108,-149 109,-216 4,-178 -140,-292 -280,-403zm-68 -1680c359,183 304,438 253,680 -6,30 -13,59 -17,80 -30,166 19,285 93,345 31,25 65,39 98,41 30,1 60,-7 85,-27 62,-50 101,-166 77,-365l-36 -296 207 215c108,112 205,293 276,487 73,200 119,418 119,588 0,305 -119,646 -357,893 -199,207 -481,348 -843,348 -362,0 -644,-141 -843,-348 -238,-247 -357,-588 -357,-893 0,-138 19,-259 56,-370 38,-111 94,-210 168,-306l223 -285 -45 359c-12,88 3,167 34,224 15,28 33,50 52,63 13,8 27,12 39,10 15,-2 33,-13 52,-32 66,-68 53,-134 37,-211 -27,-138 -60,-299 101,-538 74,-110 164,-170 246,-224 103,-69 188,-126 140,-326l-51 -210 193 98zm58 638c22,-103 44,-210 8,-304 -31,132 -128,197 -238,270 -66,44 -138,92 -190,169 -115,171 -91,288 -71,388 27,133 49,247 -91,390 -51,51 -106,80 -162,89 -64,10 -126,-5 -180,-40 -59,-39 -103,-99 -132,-162 -35,101 -47,204 -47,310 0,259 100,547 301,755 164,170 397,286 699,286 302,0 535,-116 699,-286 201,-208 301,-496 301,-755 0,-148 -41,-341 -107,-521 -22,-61 -48,-121 -75,-177 -27,102 -76,176 -136,224 -65,53 -143,75 -221,71 -74,-4 -149,-34 -213,-86 -124,-100 -208,-287 -163,-535 6,-33 12,-59 18,-86z"/>
</svg>