<?xml version="1.0" encoding="UTF-8"?>
<!DOCTYPE svg PUBLIC "-//W3C//DTD SVG 1.1//EN" "http://www.w3.org/Graphics/SVG/1.1/DTD/svg11.dtd">
<svg xmlns="http://www.w3.org/2000/svg" xml:space="preserve" width="580px" height="580px" shape-rendering="geometricPrecision" text-rendering="geometricPrecision" image-rendering="optimizeQuality" fill-rule="nonzero" clip-rule="nonzero" viewBox="0 0 5800 5800" xmlns:xlink="http://www.w3.org/1999/xlink">
	<title>signboard_sold icon</title>
	<desc>signboard_sold icon from the IconExperience.com I-Collection. Copyright by INCORS GmbH (www.incors.com).</desc>
	<path id="curve0" d="M4100 1500l500 0c276,0 500,224 500,500l0 400c0,275 -224,500 -500,500l-500 0 0 -1400zm-900 2600l0 1300 0 100 -100 0 -400 0 -100 0 0 -100 0 -1300 -2300 0 0 -3800 5200 0 0 3800 -2300 0zm-400 0l0 1200 200 0 0 -1200 -200 0zm2500 -3600l-4800 0 0 3400c1600,0 3200,0 4800,0l0 -3400zm-4397 1400c0,110 90,200 200,200l297 0c110,0 210,45 283,117 72,73 117,173 117,283 0,220 -180,400 -400,400l-297 0c-220,0 -400,-180 -400,-400l200 0c0,110 90,200 200,200l297 0c110,0 200,-90 200,-200 0,-55 -23,-105 -59,-141 -36,-37 -86,-59 -141,-59l-297 0c-220,0 -400,-180 -399,-400 0,-220 179,-400 399,-400l0 0 297 0c220,0 400,180 400,400l-200 0c0,-110 -90,-200 -200,-200l-297 0 0 0c-110,0 -200,90 -200,200zm1897 100c0,-165 -135,-300 -300,-300l-100 0c-165,0 -300,135 -300,300l0 400c0,165 135,300 300,300l100 0c165,0 300,-135 300,-300l0 -400zm200 0l0 400c0,276 -224,500 -500,500l-100 0c-276,0 -500,-224 -500,-500l0 -400c0,-276 224,-500 500,-500l100 0c275,0 500,224 500,500zm302 -500l0 1200 696 0 0 200 -896 0 0 -1400 200 0zm998 200l0 1000 300 0c165,0 300,-135 300,-300l0 -400c0,-165 -135,-300 -300,-300l-300 0z"/>
</svg>