<?xml version="1.0" encoding="UTF-8"?>
<!DOCTYPE svg PUBLIC "-//W3C//DTD SVG 1.1//EN" "http://www.w3.org/Graphics/SVG/1.1/DTD/svg11.dtd">
<svg xmlns="http://www.w3.org/2000/svg" xml:space="preserve" width="580px" height="580px" shape-rendering="geometricPrecision" text-rendering="geometricPrecision" image-rendering="optimizeQuality" fill-rule="nonzero" clip-rule="nonzero" viewBox="0 0 5800 5800" xmlns:xlink="http://www.w3.org/1999/xlink">
	<title>signboard_for_sale icon</title>
	<desc>signboard_for_sale icon from the IconExperience.com I-Collection. Copyright by INCORS GmbH (www.incors.com).</desc>
	<path id="curve0"  d="M4500 2100l0 -100c0,-138 -56,-263 -147,-353 -90,-91 -215,-147 -353,-147l-200 0 0 600 -200 0 0 -1400 700 0c220,0 400,180 400,400 0,162 -98,306 -245,369 14,11 27,24 40,36 126,127 205,302 205,495l0 100 -200 0zm-1300 2000l0 1400c-200,0 -400,0 -600,0l0 -1400 -2300 0 0 -3800 5200 0 0 3800 -2300 0zm-400 0l0 1200 200 0 0 -1200 -200 0zm2500 -3600l-4800 0 0 3400c1600,0 3200,0 4800,0l0 -3400zm-4596 2200c0,-220 179,-400 399,-400l297 0c220,0 400,180 400,400l-200 0c0,-110 -90,-200 -200,-200l-297 0c-110,0 -200,90 -200,200 0,111 90,200 200,200l297 0c220,0 400,180 400,400 0,220 -180,400 -400,400l-297 0c-220,0 -400,-180 -400,-400l200 0c0,110 90,200 200,200l297 0c110,0 200,-90 200,-200 0,-110 -90,-200 -200,-200l-297 0c-219,0 -400,-180 -399,-400zm2598 -400l0 1200 696 0 0 200 -896 0 0 -1400 200 0zm-1402 1400l0 -100c0,-68 5,-132 16,-196 11,-63 29,-126 55,-192l336 -849c16,-39 53,-63 93,-63l100 0c44,0 81,28 94,67l335 845c26,65 44,128 55,192 11,64 16,128 16,196l0 100 -200 0 0 -100c0,-57 -4,-110 -13,-162 -2,-12 -5,-25 -8,-38l-658 0c-3,13 -6,25 -8,38 -9,51 -13,104 -13,162l0 100 -200 0zm809 -500l-259 -655 -259 655 518 0zm2391 -700l-800 0 0 400 500 0 0 200 -500 0 0 400 800 0 0 200 -1000 0 0 -1400 1000 0 0 200zm-2850 -1600l-850 0 0 400 600 0 0 200 -600 0 0 600 -200 0 0 -1400 1050 0 0 200zm950 300c0,-165 -135,-300 -300,-300l-100 0c-165,0 -300,135 -300,300l0 400c0,165 135,300 300,300l100 0c165,0 300,-135 300,-300l0 -400zm200 0l0 400c0,276 -224,500 -500,500l-100 0c-276,0 -500,-224 -500,-500l0 -400c0,-276 224,-500 500,-500l100 0c276,0 500,225 500,500zm900 100c111,0 200,-89 200,-200 0,-110 -90,-200 -200,-200l-500 0 0 400c167,0 333,0 500,0z"/>
</svg>