<?xml version="1.0" encoding="UTF-8"?>
<!DOCTYPE svg PUBLIC "-//W3C//DTD SVG 1.1//EN" "http://www.w3.org/Graphics/SVG/1.1/DTD/svg11.dtd">
<svg xmlns="http://www.w3.org/2000/svg" xml:space="preserve" width="580px" height="580px" shape-rendering="geometricPrecision" text-rendering="geometricPrecision" image-rendering="optimizeQuality" fill-rule="nonzero" clip-rule="nonzero" viewBox="0 0 5800 5800" xmlns:xlink="http://www.w3.org/1999/xlink">
	<title>signal_flag icon</title>
	<desc>signal_flag icon from the IconExperience.com I-Collection. Copyright by INCORS GmbH (www.incors.com).</desc>
		<path id="curve28"  d="M1700 3331c462,166 1007,159 1463,-24 481,-192 1044,-208 1537,-49l0 -2189c-462,-166 -1007,-159 -1463,24 -481,192 -1044,208 -1537,49l0 -211c462,166 1007,159 1463,-24 525,-209 1149,-209 1674,0l63 26 0 67 0 2400 0 147 -137 -54c-476,-191 -1050,-191 -1526,0 -481,192 -1044,207 -1537,49l0 -211zm-200 -2631l0 4800 -200 0 0 -4800 200 0z"/>
</svg>