<?xml version="1.0" encoding="UTF-8"?>
<!DOCTYPE svg PUBLIC "-//W3C//DTD SVG 1.1//EN" "http://www.w3.org/Graphics/SVG/1.1/DTD/svg11.dtd">
<svg xmlns="http://www.w3.org/2000/svg" xml:space="preserve" width="580px" height="580px" shape-rendering="geometricPrecision" text-rendering="geometricPrecision" image-rendering="optimizeQuality" fill-rule="nonzero" clip-rule="nonzero" viewBox="0 0 5800 5800" xmlns:xlink="http://www.w3.org/1999/xlink">
	<title>sign_warning_radiation icon</title>
	<desc>sign_warning_radiation icon from the IconExperience.com I-Collection. Copyright by INCORS GmbH (www.incors.com).</desc>
		<path id="curve28"  d="M3236 675l2308 4051c146,252 -3,575 -311,575l-4652 -1c-300,1 -474,-317 -325,-574l2308 -4051c148,-261 524,-261 672,0zm-150 2671c119,63 203,184 213,325l837 0c0,-458 -249,-857 -619,-1071l-431 746zm26 693c-129,81 -295,81 -425,0l-405 702c380,220 856,220 1236,0l-406 -702zm-611 -368c10,-141 93,-262 212,-324l-431 -747c-369,214 -618,613 -618,1071l837 0zm399 -171c-110,0 -200,90 -200,200 0,110 90,200 200,200 110,0 200,-90 200,-200 0,-110 -90,-200 -200,-200z"/>
</svg>