<?xml version="1.0" encoding="UTF-8"?>
<!DOCTYPE svg PUBLIC "-//W3C//DTD SVG 1.1//EN" "http://www.w3.org/Graphics/SVG/1.1/DTD/svg11.dtd">
<svg xmlns="http://www.w3.org/2000/svg" xml:space="preserve" width="580px" height="580px" shape-rendering="geometricPrecision" text-rendering="geometricPrecision" image-rendering="optimizeQuality" fill-rule="nonzero" clip-rule="nonzero" viewBox="0 0 5800 5800" xmlns:xlink="http://www.w3.org/1999/xlink">
	<title>signal_flag_checkered icon</title>
	<desc>signal_flag_checkered icon from the IconExperience.com I-Collection. Copyright by INCORS GmbH (www.incors.com).</desc>
		<path id="curve28"  d="M1500 700l0 4800 -200 0 0 -4800 200 0zm3200 1869c-222,-75 -461,-113 -700,-113l0 694c238,0 476,36 700,108l0 -689zm-1500 724l0 -693c250,-100 525,-150 800,-150l0 -794c-275,0 -550,50 -800,150l0 -699c-252,95 -526,143 -800,143l0 700c275,0 550,-50 800,-150l0 806c-250,100 -525,150 -800,150l0 694c263,0 525,-48 763,-143 12,-5 25,-9 37,-14zm800 -2343l0 700c239,0 478,38 700,113l0 -694c-221,-79 -460,-119 -700,-119zm-2300 893l0 -912c221,79 460,119 700,119 263,0 525,-48 763,-143 262,-105 550,-157 837,-157 328,0 598,62 900,183l0 2614c-313,-125 -553,-197 -900,-197 -263,0 -525,48 -763,143 -262,105 -550,157 -837,157 -238,0 -476,-36 -700,-108l0 -905c222,75 461,113 700,113l0 -794c-239,0 -478,-38 -700,-113z"/>
</svg>