<?xml version="1.0" encoding="UTF-8"?>
<!DOCTYPE svg PUBLIC "-//W3C//DTD SVG 1.1//EN" "http://www.w3.org/Graphics/SVG/1.1/DTD/svg11.dtd">
<svg xmlns="http://www.w3.org/2000/svg" xml:space="preserve" width="580px" height="580px" shape-rendering="geometricPrecision" text-rendering="geometricPrecision" image-rendering="optimizeQuality" fill-rule="nonzero" clip-rule="nonzero" viewBox="0 0 5800 5800" xmlns:xlink="http://www.w3.org/1999/xlink">
	<title>sim_card icon</title>
	<desc>sim_card icon from the IconExperience.com I-Collection. Copyright by INCORS GmbH (www.incors.com).</desc>
		<path id="curve28"  d="M1700 300l2341 0 859 859 0 3722c0,327 -268,619 -600,619l-2600 0c-330,0 -600,-270 -600,-600l0 -4000c0,-330 270,-600 600,-600zm100 3600l2400 0 0 -596 -1707 0 0 -904 -693 0 0 1500zm700 900l0 -700 -700 0 0 700 700 0zm200 0l600 0 0 -700 -600 0 0 700zm800 0l700 0 0 -700 -700 0 0 700zm0 -2400l0 704 700 0 0 -704 -700 0zm-200 0l-607 0 0 704 607 0 0 -704z"/>
</svg>