<?xml version="1.0" encoding="UTF-8"?>
<!DOCTYPE svg PUBLIC "-//W3C//DTD SVG 1.1//EN" "http://www.w3.org/Graphics/SVG/1.1/DTD/svg11.dtd">
<svg xmlns="http://www.w3.org/2000/svg" xml:space="preserve" width="580px" height="580px" shape-rendering="geometricPrecision" text-rendering="geometricPrecision" image-rendering="optimizeQuality" fill-rule="nonzero" clip-rule="nonzero" viewBox="0 0 5800 5800" xmlns:xlink="http://www.w3.org/1999/xlink">
	<title>sim_card icon</title>
	<desc>sim_card icon from the IconExperience.com I-Collection. Copyright by INCORS GmbH (www.incors.com).</desc>
		<path id="curve28"  d="M1900 3900l2200 0 0 -596 -1507 0 -100 0 0 -100 0 -704 -593 0 0 1400zm-200 -3600l2341 0 859 859 0 3722c0,327 -268,619 -600,619l-2600 0c-330,0 -600,-270 -600,-600l0 -4000c0,-330 270,-600 600,-600zm2259 200l-2259 0c-220,0 -400,180 -400,400l0 4000c0,220 180,400 400,400l2600 0c223,0 400,-201 400,-419l0 -3640 -741 -741zm141 3600l-600 0 0 600 600 0 0 -600zm-800 600l0 -600 -600 0 0 600 600 0zm-800 0l0 -600 -600 0 0 600 600 0zm1800 -2400l0 2600 -2600 0 0 -2600 2600 0zm-207 204l-593 0 0 600 593 0 0 -600zm-793 0l-607 0 0 600 607 0 0 -600z"/>
</svg>