<?xml version="1.0" encoding="utf-8"?>
<!-- Generator: Adobe Illustrator 19.2.1, SVG Export Plug-In . SVG Version: 6.00 Build 0)  -->
<svg version="1.1" id="simple_x5F_selection_x5F_comboboxfix_x5F_values_x5F_gi"
	 xmlns="http://www.w3.org/2000/svg" xmlns:xlink="http://www.w3.org/1999/xlink" x="0px" y="0px" width="580px" height="580px"
	 viewBox="0 0 580 580" style="enable-background:new 0 0 580 580;" xml:space="preserve">
<title>address_book2 icon</title>
<desc>address_book2 icon from the IconExperience.com I-Collection. Copyright by INCORS GmbH (www.incors.com).</desc>
<title>address_book2 icon</title>
<desc>address_book2 icon from the IconExperience.com I-Collection. Copyright by INCORS GmbH (www.incors.com).</desc>
<title>address_book2 icon</title>
<desc>address_book2 icon from the IconExperience.com I-Collection. Copyright by INCORS GmbH (www.incors.com).</desc>
<g>
	<path id="curve28_44_" d="M440,140h100l-50,60L440,140z M570,100v140H430v240H10c0-126.7,0-253.3,0-380H570z M550,120H430v100h120
		V120z M410,120H30v100h380V120z M410,240H30v220h380V240z M70,280h300v20H70V280z M70,340h300v20H70V340z M70,400h300v20H70V400z"
		/>
</g>
</svg>
