<?xml version="1.0" encoding="UTF-8"?>
<!DOCTYPE svg PUBLIC "-//W3C//DTD SVG 1.1//EN" "http://www.w3.org/Graphics/SVG/1.1/DTD/svg11.dtd">
<svg xmlns="http://www.w3.org/2000/svg" xml:space="preserve" width="580px" height="580px" shape-rendering="geometricPrecision" text-rendering="geometricPrecision" image-rendering="optimizeQuality" fill-rule="nonzero" clip-rule="nonzero" viewBox="0 0 5800 5800" xmlns:xlink="http://www.w3.org/1999/xlink">
	<title>singer icon</title>
	<desc>singer icon from the IconExperience.com I-Collection. Copyright by INCORS GmbH (www.incors.com).</desc>
		<path id="curve29"  d="M1639 1856c-13,-194 -36,-411 -39,-602 -1,-60 3,-117 12,-172 40,-250 179,-450 369,-587 186,-135 423,-210 664,-215 204,-3 366,30 539,137 90,-34 182,-45 272,-36 286,27 544,240 667,493 59,119 88,249 78,376l-40 606c56,219 -16,475 -213,599 -66,220 -193,511 -347,684 3,82 9,181 30,270 19,82 47,160 122,206 115,72 205,99 310,131 186,56 462,146 590,270 111,108 196,243 254,389 62,153 93,318 93,475 0,225 -254,370 -605,461 -465,121 -1113,159 -1495,159 -258,0 -638,-17 -1000,-66l0 -1324 223 -193c22,2 44,3 67,3 392,0 710,-318 710,-710 0,-392 -318,-710 -710,-710 -108,0 -209,24 -301,67 -14,-39 -26,-77 -37,-112 -196,-124 -269,-381 -213,-599zm-339 3455c-295,-92 -500,-229 -500,-431 0,-155 31,-318 90,-470 4,5 46,54 46,54 54,54 123,95 188,116 60,20 121,25 176,12l0 719z"/>
	<path id="curve28"  d="M2190 2700c282,0 510,228 510,510 0,282 -228,510 -510,510 -44,0 -86,-6 -127,-16l-363 315 0 1481 -200 0 0 -1308 -226 196c-90,78 -340,-172 -262,-262l684 -789c0,0 -16,-101 -16,-127 0,-282 228,-510 510,-510z"/>
</svg>