<?xml version="1.0" encoding="UTF-8"?>
<!DOCTYPE svg PUBLIC "-//W3C//DTD SVG 1.1//EN" "http://www.w3.org/Graphics/SVG/1.1/DTD/svg11.dtd">
<svg xmlns="http://www.w3.org/2000/svg" xml:space="preserve" width="580px" height="580px" shape-rendering="geometricPrecision" text-rendering="geometricPrecision" image-rendering="optimizeQuality" fill-rule="nonzero" clip-rule="nonzero" viewBox="0 0 5800 5800" xmlns:xlink="http://www.w3.org/1999/xlink">
	<title>singer icon</title>
	<desc>singer icon from the IconExperience.com I-Collection. Copyright by INCORS GmbH (www.incors.com).</desc>
		<path id="curve29" d="M3749 3613c119,74 209,101 314,133 69,21 136,42 204,67 126,46 283,104 386,203 111,108 196,243 254,389 62,153 93,318 93,475 0,225 -254,370 -605,461 -465,121 -1113,159 -1495,159 -258,0 -638,-17 -1000,-66l0 -201c359,49 742,67 1000,67 372,0 1001,-36 1445,-152 264,-68 455,-157 455,-268 0,-134 -26,-273 -78,-402 -47,-120 -117,-231 -208,-319 -72,-70 -207,-119 -315,-158 -64,-23 -127,-44 -193,-64 -119,-36 -220,-66 -360,-153 -117,-70 -178,-194 -210,-329 -28,-122 -33,-253 -36,-353 0,-28 11,-54 30,-73 63,-62 125,-161 180,-269 71,-137 127,-287 157,-398 8,-30 29,-53 56,-65 63,-33 108,-90 133,-156 29,-78 32,-168 9,-247 -1,-3 -4,-34 -4,-34l40 -620c7,-103 -11,-186 -57,-279 -48,-99 -124,-191 -214,-260 -88,-67 -189,-112 -292,-122 -73,-7 -148,5 -220,40 -32,16 -69,12 -97,-6l0 0c-54,-34 -96,-60 -139,-79 -42,-18 -87,-31 -149,-41 -61,-10 -123,-15 -185,-14 -200,4 -396,66 -550,177 -149,108 -258,264 -289,458 -2,11 -15,132 -10,132l40 614c1,13 -1,27 -6,39 -21,77 -17,165 12,242 25,67 71,125 136,157 27,14 45,37 52,64 3,-3 41,128 47,146 -67,11 -131,31 -191,59 -14,-39 -26,-77 -37,-112 -92,-58 -157,-145 -194,-244 -42,-112 -49,-240 -19,-355l-39 -598c-3,-54 3,-123 12,-176 40,-250 179,-450 369,-587 186,-135 423,-210 664,-215 74,-1 148,4 220,16 81,13 141,31 197,55 41,19 79,40 122,66 90,-34 182,-45 272,-36 142,13 279,73 395,162 114,87 210,203 272,331 59,119 88,249 78,376l-40 606c30,115 24,243 -19,355 -37,99 -101,186 -194,244 -35,117 -91,262 -159,396 -56,108 -120,211 -188,288 3,82 9,181 30,270 20,88 55,166 118,204zm-2449 1698c-295,-92 -500,-229 -500,-431 0,-155 31,-318 90,-470 44,59 96,104 162,139 -34,108 -52,222 -52,331 0,88 120,162 300,223l0 208z"/>
	<path id="curve28" d="M1700 4019l0 1481 -200 0 0 -1308 -226 196c-35,31 -131,0 -197,-65 -65,-66 -96,-162 -65,-197l684 -789c0,0 -16,-101 -16,-127 0,-282 228,-510 510,-510 282,0 510,228 510,510 0,282 -228,510 -510,510 -44,0 -86,-6 -127,-16l-363 315z"/>
</svg>