<?xml version="1.0" encoding="utf-8"?>
<!-- Generator: Adobe Illustrator 19.2.1, SVG Export Plug-In . SVG Version: 6.00 Build 0)  -->
<svg version="1.1" id="Ebene_1" xmlns="http://www.w3.org/2000/svg" xmlns:xlink="http://www.w3.org/1999/xlink" x="0px" y="0px"
	 width="580px" height="580px" viewBox="0 0 580 580" style="enable-background:new 0 0 580 580;" xml:space="preserve">
<g>
	<path d="M180.3,389.8H153V184.1c-2.1,2.1-5.2,4.5-9.2,7.2c-4,2.7-8.6,5.4-13.6,8.1c-5,2.7-10.4,5.1-15.9,7.5
		c-5.6,2.3-11,4.2-16.4,5.5v-27.6c6-1.7,12.3-3.9,19-6.7c6.7-2.8,13.3-6,19.8-9.5s12.6-7.1,18.3-11c5.8-3.8,10.7-7.6,14.9-11.2h10.3
		V389.8z"/>
	<path d="M295.8,351.9l-26.6,81.7h-19.4l19.4-81.7H295.8z"/>
	<path d="M445.2,214.1c0-7.3-1.1-13.7-3.4-19.1c-2.3-5.4-5.4-9.9-9.3-13.5c-3.9-3.6-8.5-6.3-13.9-8.1c-5.3-1.8-11.1-2.7-17.3-2.7
		c-5.3,0-10.5,0.7-15.6,2.2c-5.1,1.4-10,3.4-14.9,6c-4.8,2.5-9.5,5.6-13.9,9.1c-4.5,3.5-8.7,7.5-12.5,11.8v-29.2
		c7.6-7.4,16.2-13.1,25.6-17c9.5-3.9,21-5.9,34.6-5.9c9.7,0,18.8,1.4,27.1,4.2s15.5,6.9,21.6,12.4c6.1,5.4,10.9,12.1,14.4,20.1
		s5.2,17.1,5.2,27.4c0,9.4-1.1,17.9-3.2,25.6s-5.4,14.8-9.8,21.6c-4.4,6.8-9.9,13.2-16.5,19.4c-6.6,6.2-14.4,12.5-23.4,18.9
		c-11.2,8-20.4,14.8-27.6,20.4c-7.3,5.6-13,10.9-17.3,15.9c-4.3,4.9-7.3,9.9-9,14.8c-1.7,4.9-2.6,10.6-2.6,17h118.5v24.4H335.2V378
		c0-10.2,1.1-19.1,3.3-26.9c2.2-7.7,5.9-15.1,11-22.1c5.1-7,11.8-13.9,20-20.9c8.2-7,18.3-14.8,30.3-23.6
		c8.6-6.2,15.9-12.1,21.7-17.8s10.5-11.3,14-16.9c3.5-5.6,6.1-11.4,7.6-17.2S445.2,220.7,445.2,214.1z"/>
</g>
</svg>
