<?xml version="1.0" encoding="UTF-8"?>
<!DOCTYPE svg PUBLIC "-//W3C//DTD SVG 1.1//EN" "http://www.w3.org/Graphics/SVG/1.1/DTD/svg11.dtd">
<svg xmlns="http://www.w3.org/2000/svg" xml:space="preserve" width="580px" height="580px" shape-rendering="geometricPrecision" text-rendering="geometricPrecision" image-rendering="optimizeQuality" fill-rule="nonzero" clip-rule="nonzero" viewBox="0 0 5800 5800" xmlns:xlink="http://www.w3.org/1999/xlink">
	<title>sixpack_beer icon</title>
	<desc>sixpack_beer icon from the IconExperience.com I-Collection. Copyright by INCORS GmbH (www.incors.com).</desc>
	<path id="curve0"  d="M5600 3800l0 1200c0,165 -135,300 -300,300l-4800 0c-165,0 -300,-135 -300,-300l0 -1200 5400 0zm-200 -2100l-171 0c-19,-54 -30,-103 -30,-144l1 -156 100 0 0 -400c0,-269 -215,-500 -488,-500l-424 0c-273,0 -488,231 -488,500l0 400 101 0 -1 156c0,42 -11,91 -29,144l-442 0c-19,-54 -30,-103 -30,-144l1 -156 100 0 0 -400c0,-133 -52,-256 -137,-346 -89,-95 -213,-154 -351,-154l-425 0c-272,0 -487,231 -487,500l0 400 101 0 -1 156c0,42 -11,91 -29,144l-442 0c-19,-54 -30,-103 -30,-144l1 -156 100 0 0 -400c0,-269 -215,-500 -488,-500l-425 0c-272,0 -487,231 -487,500l0 400 101 0 -1 156c0,42 -11,91 -29,144l-171 0 0 394c-103,237 -200,513 -200,869l0 -2063c0,-331 269,-600 600,-600l4200 0c331,0 600,269 600,600l0 2063c0,-356 -97,-632 -200,-869l0 -394zm-1300 -700c0,-160 124,-300 288,-300l424 0c164,0 288,140 288,300l0 200 -100 0 0 356c0,139 70,292 149,466 116,254 251,548 251,941l0 637 -300 0 0 -400 -1000 0 0 400 -300 0 0 -637c0,-393 135,-687 251,-941 79,-173 149,-326 149,-466l0 -356 -100 0 0 -200zm800 2400l-600 0 0 200 600 0 0 -200zm-4200 -2400c0,-160 124,-300 287,-300l425 0c164,0 288,140 288,300l0 200 -100 0 0 356c0,139 70,292 149,466 116,254 251,548 251,941l0 637 -300 0 0 -400 -1000 0 0 400 -300 0 0 -637c0,-393 135,-687 251,-941 79,-173 149,-326 149,-466l0 -356 0 0 -100 0 0 -200zm200 0l600 0c0,-50 -35,-100 -88,-100l-425 0c-52,0 -87,50 -87,100zm600 2400l-600 0 0 200 600 0 0 -200zm900 -2400c0,-160 124,-300 287,-300l425 0c81,0 153,35 206,90 50,55 82,129 82,210l0 200 -100 0 0 356c0,139 70,292 149,466 116,253 251,548 251,941l0 637 -300 0 0 -400 -1000 0 0 400 -300 0 0 -637c0,-393 135,-687 251,-941 79,-173 149,-326 149,-466l0 -356 -100 0 0 -200zm200 0l600 0c0,-29 -11,-55 -28,-73 -15,-17 -37,-27 -60,-27l-425 0c-52,0 -87,50 -87,100zm600 2400l-600 0 0 200 600 0 0 -200zm1100 -2400l600 0c0,-50 -35,-100 -88,-100l-424 0c-53,0 -88,50 -88,100z"/>
</svg>