<?xml version="1.0" encoding="UTF-8"?>
<!DOCTYPE svg PUBLIC "-//W3C//DTD SVG 1.1//EN" "http://www.w3.org/Graphics/SVG/1.1/DTD/svg11.dtd">
<svg xmlns="http://www.w3.org/2000/svg" xml:space="preserve" width="580px" height="580px" shape-rendering="geometricPrecision" text-rendering="geometricPrecision" image-rendering="optimizeQuality" fill-rule="nonzero" clip-rule="nonzero" viewBox="0 0 5800 5800" xmlns:xlink="http://www.w3.org/1999/xlink">
	<title>sixpack_beer icon</title>
	<desc>sixpack_beer icon from the IconExperience.com I-Collection. Copyright by INCORS GmbH (www.incors.com).</desc>
	<path id="curve0" d="M5500 3800l100 0 0 100 0 1100c0,165 -135,300 -300,300l-4800 0c-165,0 -300,-135 -300,-300l0 -1200 5300 0zm-1400 -2800c0,-160 124,-300 288,-300l424 0c164,0 288,140 288,300l0 200 -100 0 0 356c0,139 70,292 149,466 116,254 251,548 251,941l0 637 -200 0 0 -637c0,-351 -125,-624 -232,-858 -89,-195 -168,-366 -168,-549l0 -356 -400 0 0 356c0,182 -79,354 -168,549 -107,234 -232,507 -232,858l0 637 -200 0 0 -637c0,-393 135,-687 251,-941 79,-173 149,-326 149,-466l0 -356 0 0 -100 0 0 -200zm1300 700l-171 0c-19,-54 -30,-103 -30,-144l1 -56 200 0 0 -600c0,-220 -180,-400 -400,-400l-4200 0c-220,0 -400,180 -400,400l0 600 201 0 -1 56c0,42 -11,91 -29,144l-171 0 0 394c-103,237 -200,513 -200,869l0 -2063c0,-331 269,-600 600,-600l4200 0c331,0 600,269 600,600l0 2063c0,-356 -97,-632 -200,-869l0 -394zm-1429 0l-442 0c-19,-54 -30,-103 -30,-144l1 -56 501 0 -1 56c0,42 -11,91 -29,144zm-2171 -200l501 0 -1 56c0,42 -11,91 -29,144l-442 0c-19,-54 -30,-103 -30,-144l1 -56zm900 -300l0 356c0,182 -79,354 -168,549 -107,234 -232,507 -232,858l0 637 -200 0 0 -637c0,-393 135,-687 251,-941 79,-173 149,-326 149,-466l0 -356 0 0 -100 0 0 -200c0,-160 124,-300 287,-300l425 0c164,0 288,140 288,300l0 200 -100 0 0 356c0,139 70,292 149,466 116,253 251,548 251,941l0 637 -200 0 0 -637c0,-351 -125,-624 -232,-858 -89,-195 -168,-366 -168,-549l0 -356 -400 0zm700 2000l0 400 -200 0 0 -200 -600 0 0 200 -200 0 0 -400 1000 0zm-800 -2200l600 0c0,-50 -35,-100 -88,-100l-425 0c-52,0 -87,50 -87,100zm-1600 200l0 356c0,182 -79,354 -168,549 -107,234 -232,507 -232,858l0 637 -200 0 0 -637c0,-393 135,-687 251,-941 79,-173 149,-326 149,-466l0 -356 0 0 -100 0 0 -200c0,-160 124,-300 287,-300l425 0c164,0 288,140 288,300l0 200 -100 0 0 356c0,139 70,292 149,466 116,254 251,548 251,941l0 637 -200 0 0 -637c0,-351 -125,-624 -232,-858 -89,-195 -168,-366 -168,-549l0 -356 -400 0zm700 2000l0 400 -200 0 0 -200 -600 0 0 200 -200 0 0 -400 1000 0zm-800 -2200l600 0c0,-50 -35,-100 -88,-100l-425 0c-52,0 -87,50 -87,100zm4200 2200l0 400 -200 0 0 -200 -600 0 0 200 -200 0 0 -400 1000 0zm-800 -2200l600 0c0,-50 -35,-100 -88,-100l-424 0c-53,0 -88,50 -88,100zm1100 3000l-5000 0 0 1000c0,55 45,100 100,100l4800 0c55,0 100,-45 100,-100l0 -1000z"/>
</svg>