<?xml version="1.0" encoding="UTF-8"?>
<!DOCTYPE svg PUBLIC "-//W3C//DTD SVG 1.1//EN" "http://www.w3.org/Graphics/SVG/1.1/DTD/svg11.dtd">
<svg xmlns="http://www.w3.org/2000/svg" xml:space="preserve" width="580px" height="580px" shape-rendering="geometricPrecision" text-rendering="geometricPrecision" image-rendering="optimizeQuality" fill-rule="nonzero" clip-rule="nonzero" viewBox="0 0 5800 5800" xmlns:xlink="http://www.w3.org/1999/xlink">
	<title>sizes icon</title>
	<desc>sizes icon from the IconExperience.com I-Collection. Copyright by INCORS GmbH (www.incors.com).</desc>
		<path id="curve30" d="M2500,300 2500,700 2300,700 2300,500 500,500 500,2300 700,2300 700,2500 300,2500 300,300z"/>
	<path id="curve29" d="M3902,1100 3902,1500 3702,1500 3702,1300 1300,1300 1300,3700 1500,3700 1500,3900 1100,3900 1100,1100z"/>
	<path id="curve28" d="M5500 1900l0 3600 -3600 0 0 -3600 3600 0zm-200 200l-3200 0 0 3200 3200 0 0 -3200z"/>
</svg>