<?xml version="1.0" encoding="UTF-8"?>
<!DOCTYPE svg PUBLIC "-//W3C//DTD SVG 1.1//EN" "http://www.w3.org/Graphics/SVG/1.1/DTD/svg11.dtd">
<svg xmlns="http://www.w3.org/2000/svg" xml:space="preserve" width="580px" height="580px" shape-rendering="geometricPrecision" text-rendering="geometricPrecision" image-rendering="optimizeQuality" fill-rule="nonzero" clip-rule="nonzero" viewBox="0 0 5800 5800" xmlns:xlink="http://www.w3.org/1999/xlink">
	<title>skateboard icon</title>
	<desc>skateboard icon from the IconExperience.com I-Collection. Copyright by INCORS GmbH (www.incors.com).</desc>
	<path id="curve0"  d="M4200 3795c221,0 400,179 400,400 0,220 -180,400 -400,400 -221,0 -400,-180 -400,-400 0,-220 180,-400 400,-400zm0 200c-111,0 -200,89 -200,200 0,111 89,200 200,200 111,0 200,-89 200,-200 0,-110 -90,-200 -200,-200zm-2600 -200c220,0 400,180 400,400 0,220 -180,400 -400,400 -221,0 -400,-179 -400,-400 0,-220 180,-400 400,-400zm0 200c-111,0 -200,89 -200,200 0,111 90,200 200,200 111,0 200,-89 200,-200 0,-111 -89,-200 -200,-200zm3731 -879c38,-40 101,-41 141,-3 39,38 41,101 2,141 -270,280 -638,441 -1028,441l-3089 0c-390,0 -756,-161 -1026,-441 -39,-40 -37,-103 2,-141 40,-38 103,-37 141,3 233,240 548,379 883,379l3089 0c337,0 651,-138 885,-379z"/>
</svg>