<?xml version="1.0" encoding="UTF-8"?>
<!DOCTYPE svg PUBLIC "-//W3C//DTD SVG 1.1//EN" "http://www.w3.org/Graphics/SVG/1.1/DTD/svg11.dtd">
<svg xmlns="http://www.w3.org/2000/svg" xml:space="preserve" width="580px" height="580px" shape-rendering="geometricPrecision" text-rendering="geometricPrecision" image-rendering="optimizeQuality" fill-rule="nonzero" clip-rule="nonzero" viewBox="0 0 5800 5800" xmlns:xlink="http://www.w3.org/1999/xlink">
	<title>skin_cow icon</title>
	<desc>skin_cow icon from the IconExperience.com I-Collection. Copyright by INCORS GmbH (www.incors.com).</desc>
		<path id="curve28"  d="M2900 5050c-559,0 -1107,136 -1601,399l-85 46 -48 -84c-182,-319 -459,-578 -790,-736l-145 -70 127 -99c344,-267 542,-671 542,-1106 0,-422 -188,-817 -515,-1085l-85 -69 78 -78c265,-268 441,-612 500,-984l13 -85 87 1c511,8 978,-281 1197,-743l27 -57 1396 0 27 57c219,462 686,752 1197,743l87 -1 13 85c59,372 235,716 500,984l78 78 -85 69c-327,268 -515,663 -515,1085 0,435 198,839 542,1106l127 99 -145 70c-331,158 -608,417 -790,736l-48 84 -85 -46c-494,-263 -1042,-399 -1601,-399zm1912 -1060c-73,-185 -112,-385 -112,-590 0,-67 4,-134 12,-200 -4,0 -8,0 -12,0 -276,0 -500,179 -500,400 0,221 224,400 500,400 39,0 76,-3 112,-10zm-416 -2745c-253,-71 -482,-206 -665,-392 -299,26 -531,216 -531,447 0,162 114,304 284,383 71,33 114,98 116,176 5,189 182,341 400,341 221,0 400,-157 400,-350 0,-60 -17,-116 -47,-165 -40,-65 -41,-140 -3,-205 32,-55 50,-116 50,-180 0,-19 -2,-37 -4,-55zm-2858 -44c-151,57 -312,91 -478,98 -71,348 -231,667 -467,932 225,211 382,478 457,772l0 0c571,64 752,-203 1050,-203 300,0 238,518 800,500 331,-11 500,-143 500,-319 0,-215 -200,-381 -400,-381 -200,0 -1000,-200 -600,-700 400,-500 -397,-700 -800,-700 -22,0 -42,0 -62,1zm-674 3549c166,135 310,297 426,479 287,-144 591,-247 904,-310l0 0c-46,-293 -339,-519 -694,-519 -282,0 -526,143 -636,350zm2236 -950c-276,0 -500,179 -500,400 0,221 224,400 500,400 276,0 500,-179 500,-400 0,-221 -224,-400 -500,-400z"/>
</svg>