<?xml version="1.0" encoding="UTF-8"?>
<!DOCTYPE svg PUBLIC "-//W3C//DTD SVG 1.1//EN" "http://www.w3.org/Graphics/SVG/1.1/DTD/svg11.dtd">
<svg xmlns="http://www.w3.org/2000/svg" xml:space="preserve" width="580px" height="580px" shape-rendering="geometricPrecision" text-rendering="geometricPrecision" image-rendering="optimizeQuality" fill-rule="nonzero" clip-rule="nonzero" viewBox="0 0 5800 5800" xmlns:xlink="http://www.w3.org/1999/xlink">
	<title>skin_tiger icon</title>
	<desc>skin_tiger icon from the IconExperience.com I-Collection. Copyright by INCORS GmbH (www.incors.com).</desc>
	<path id="curve0"  d="M2900 5050c559,0 1107,136 1601,399l85 46 48 -84c182,-319 459,-578 790,-736l145 -70 -127 -99c-344,-267 -542,-671 -542,-1106 0,-422 188,-817 515,-1085l85 -69 -78 -78c-265,-268 -441,-612 -500,-984l-13 -85c-37,0 -73,1 -109,1 -503,0 -959,-288 -1175,-743l-27 -57 -1396 0 -27 57c-216,455 -672,743 -1175,743 -36,0 -72,-1 -109,-1l-13 85c-59,372 -235,716 -500,984l-78 78 85 69c327,268 515,663 515,1085 0,435 -198,839 -542,1106l-127 99 145 70c331,158 608,417 790,736l48 84 85 -46c494,-263 1042,-399 1601,-399zm-1300 -3550c342,0 634,-140 865,-251 169,-82 310,-149 435,-149 125,0 266,67 435,149 231,111 523,251 865,251l0 200c-388,0 -702,-152 -951,-271 -146,-71 -267,-129 -349,-129 -82,0 -203,58 -349,129 -249,119 -563,271 -951,271l0 -200zm-100 600c372,0 687,-141 937,-252 181,-81 331,-148 463,-148 132,0 282,67 463,148 250,111 565,252 937,252l0 200c-414,0 -751,-151 -1019,-270 -159,-71 -290,-130 -381,-130 -91,0 -222,59 -381,130 -268,119 -605,270 -1019,270l0 -200zm-95 600c399,0 737,-141 1006,-253 192,-81 351,-147 489,-147 138,0 297,66 489,147 269,112 607,253 1006,253l0 200c-440,0 -798,-150 -1082,-269 -172,-72 -314,-131 -413,-131 -99,0 -241,59 -413,131 -284,119 -642,269 -1082,269l0 -200zm0 600c399,0 737,-141 1006,-253 192,-81 351,-147 489,-147 138,0 297,66 489,147 269,112 607,253 1006,253l0 200c-440,0 -798,-150 -1082,-269 -172,-72 -314,-131 -413,-131 -99,0 -241,59 -413,131 -284,119 -642,269 -1082,269l0 -200zm95 600c372,0 687,-141 937,-252 181,-81 331,-148 463,-148 132,0 282,67 463,148 250,111 565,252 937,252l0 200c-414,0 -751,-151 -1019,-270 -159,-71 -290,-130 -381,-130 -91,0 -222,59 -381,130 -268,119 -605,270 -1019,270l0 -200zm100 600c342,0 634,-140 865,-251 169,-82 310,-149 435,-149 125,0 266,67 435,149 231,111 523,251 865,251l0 200c-388,0 -702,-152 -951,-271 -146,-71 -267,-129 -349,-129 -82,0 -203,58 -349,129 -249,119 -563,271 -951,271l0 -200z"/>
</svg>