<?xml version="1.0" encoding="UTF-8"?>
<!DOCTYPE svg PUBLIC "-//W3C//DTD SVG 1.1//EN" "http://www.w3.org/Graphics/SVG/1.1/DTD/svg11.dtd">
<svg xmlns="http://www.w3.org/2000/svg" xml:space="preserve" width="580px" height="580px" shape-rendering="geometricPrecision" text-rendering="geometricPrecision" image-rendering="optimizeQuality" fill-rule="nonzero" clip-rule="nonzero" viewBox="0 0 5800 5800" xmlns:xlink="http://www.w3.org/1999/xlink">
	<title>skin_cow icon</title>
	<desc>skin_cow icon from the IconExperience.com I-Collection. Copyright by INCORS GmbH (www.incors.com).</desc>
		<path id="curve28" d="M3100 3700c161,0 308,53 416,139 114,92 184,219 184,361 0,142 -70,269 -184,361 -108,86 -255,139 -416,139 -161,0 -308,-53 -416,-139 -114,-92 -184,-219 -184,-361 0,-142 70,-269 184,-361 108,-86 255,-139 416,-139zm-2081 -802c350,48 549,-34 717,-104 121,-50 229,-94 364,-94 178,0 254,112 342,240 84,123 183,269 455,260 141,-4 247,-32 316,-76 58,-37 87,-87 87,-143 0,-75 -35,-143 -87,-193 -58,-54 -136,-88 -213,-88 -88,0 -280,-34 -450,-110 -104,-46 -201,-108 -268,-188 -75,-90 -113,-200 -82,-331 17,-73 56,-150 122,-233 46,-57 72,-107 82,-151 14,-58 -3,-108 -40,-151 -47,-53 -122,-98 -210,-133 -177,-71 -397,-103 -554,-103 -348,0 -435,52 -574,138 -35,128 -83,250 -142,366 -79,155 -177,299 -292,427 196,183 343,413 427,667zm718 -1792c156,14 337,50 491,112 116,46 218,108 287,187 78,90 114,199 83,328 -17,72 -56,148 -120,229 -46,58 -73,109 -83,154 -15,62 4,114 40,158 46,55 118,99 196,134 142,63 298,92 369,92 129,0 257,55 350,144 90,86 150,204 150,337 0,126 -61,234 -180,311 -99,62 -238,102 -417,108 -381,12 -514,-183 -626,-348 -56,-81 -104,-152 -177,-152 -97,0 -187,37 -288,79 -179,73 -387,160 -739,126 18,96 27,194 27,295 0,252 -59,490 -163,703 -85,174 -202,331 -341,463 65,37 127,78 187,122 141,-248 432,-388 717,-388 365,0 736,233 792,601 198,-33 401,-51 608,-51 560,0 1110,129 1610,380 174,-274 413,-502 694,-664 -146,-138 -265,-302 -351,-483 -50,11 -102,17 -153,17 -285,0 -600,-188 -600,-500 0,-312 315,-500 600,-500 9,0 18,0 28,1 63,-333 232,-638 480,-870 -236,-264 -398,-585 -468,-932 -82,-3 -163,-13 -241,-29 1,10 1,20 1,30 0,40 -6,80 -16,119 -11,39 -27,76 -47,111 -10,17 -15,34 -15,51 0,17 6,35 16,52 20,33 36,68 46,104 10,37 16,74 16,113 0,268 -246,450 -500,450 -250,0 -492,-176 -499,-439 -1,-20 -7,-38 -16,-52 -10,-15 -24,-27 -42,-36 -188,-87 -343,-256 -343,-473 0,-157 83,-298 216,-398 91,-68 206,-117 334,-139 -68,-81 -127,-169 -177,-263l-1146 0c-123,232 -305,429 -527,569 -21,13 -42,25 -63,37zm2101 -155c-12,-1 -25,-1 -38,-1 -144,0 -273,43 -364,112 -84,62 -136,147 -136,238 0,137 111,239 226,292 53,25 95,61 125,107 30,46 47,99 49,157 4,153 160,244 300,244 143,0 300,-94 300,-250 0,-40 -11,-79 -32,-113 -30,-48 -45,-100 -45,-153 -1,-53 13,-106 41,-154 12,-21 21,-43 27,-65 6,-20 9,-42 9,-65 0,-22 -3,-43 -8,-63 -3,-10 -6,-19 -10,-29 -161,-59 -312,-147 -444,-257zm-1742 3989c-41,-281 -331,-440 -596,-440 -223,0 -460,108 -559,317 134,121 252,260 349,413 256,-128 526,-226 806,-290zm2682 -1046c-50,-154 -78,-324 -78,-494 0,-34 1,-67 3,-100l-3 0c-172,0 -400,102 -400,300 0,198 228,300 400,300 27,0 53,-2 78,-6zm-1878 1156c-559,0 -1107,136 -1601,399l-85 46 -48 -84c-182,-319 -459,-578 -790,-736l-145 -70 127 -99c168,-130 306,-298 400,-491 91,-185 142,-394 142,-615 0,-422 -188,-817 -515,-1085l-85 -69 78 -78c131,-133 242,-285 328,-453 83,-165 142,-343 172,-531l13 -85c37,0 73,1 109,1 503,0 959,-288 1175,-743l27 -57 1396 0 27 57c216,455 672,743 1175,743 36,0 72,-1 109,-1l13 85c59,372 235,716 500,984l78 78 -85 69c-327,268 -515,663 -515,1085 0,435 198,839 542,1106l127 99 -145 70c-331,158 -608,417 -790,736l-48 84 -85 -46c-494,-263 -1042,-399 -1601,-399zm491 -1055c-73,-59 -176,-95 -291,-95 -115,0 -218,36 -291,95 -68,54 -109,126 -109,205 0,79 41,151 109,205 73,59 176,95 291,95 115,0 218,-36 291,-95 67,-54 109,-126 109,-205 0,-79 -42,-151 -109,-205z"/>
</svg>