<?xml version="1.0" encoding="UTF-8"?>
<!DOCTYPE svg PUBLIC "-//W3C//DTD SVG 1.1//EN" "http://www.w3.org/Graphics/SVG/1.1/DTD/svg11.dtd">
<svg xmlns="http://www.w3.org/2000/svg" xml:space="preserve" width="580px" height="580px" shape-rendering="geometricPrecision" text-rendering="geometricPrecision" image-rendering="optimizeQuality" fill-rule="nonzero" clip-rule="nonzero" viewBox="0 0 5800 5800" xmlns:xlink="http://www.w3.org/1999/xlink">
	<title>skull icon</title>
	<desc>skull icon from the IconExperience.com I-Collection. Copyright by INCORS GmbH (www.incors.com).</desc>
		<path id="curve28"  d="M2112 2250c-303,0 -550,246 -550,550 0,304 247,550 550,550 304,0 551,-246 551,-550 0,-304 -247,-550 -551,-550zm1575 0c-303,0 -550,246 -550,550 0,304 247,550 550,550 304,0 550,-246 550,-550 0,-304 -246,-550 -550,-550zm-787 -1550l0 0c519,0 1060,108 1457,463 433,388 543,935 543,1337 0,281 -79,545 -191,800 54,123 80,243 80,353 0,250 -131,451 -355,559 -92,43 -199,72 -321,83l36 293c18,140 -28,357 -195,378 -44,5 -103,-3 -144,-18 -67,96 -195,176 -313,176 -68,0 -113,-9 -148,-23 -64,70 -155,99 -249,99 -68,0 -142,-29 -199,-67 -58,41 -130,67 -201,67 -95,0 -183,-30 -247,-101 -35,16 -80,25 -150,25 -118,0 -246,-80 -313,-176 -125,47 -247,15 -306,-116 -33,-73 -43,-165 -33,-244l36 -293c-118,-11 -223,-40 -313,-83 -227,-109 -360,-312 -360,-565 0,-109 25,-226 77,-347 -112,-255 -191,-520 -191,-800 0,-343 80,-791 372,-1157 292,-364 792,-643 1628,-643zm127 2685c-52,-112 -202,-112 -254,0l-258 558c-53,117 47,259 172,214l123 -45c61,-22 119,-22 180,0l123 45c125,45 225,-97 172,-214l-258 -558z"/>
</svg>