<?xml version="1.0" encoding="UTF-8"?>
<!DOCTYPE svg PUBLIC "-//W3C//DTD SVG 1.1//EN" "http://www.w3.org/Graphics/SVG/1.1/DTD/svg11.dtd">
<svg xmlns="http://www.w3.org/2000/svg" xml:space="preserve" width="580px" height="580px" shape-rendering="geometricPrecision" text-rendering="geometricPrecision" image-rendering="optimizeQuality" fill-rule="nonzero" clip-rule="nonzero" viewBox="0 0 5800 5800" xmlns:xlink="http://www.w3.org/1999/xlink">
	<title>skull2 icon</title>
	<desc>skull2 icon from the IconExperience.com I-Collection. Copyright by INCORS GmbH (www.incors.com).</desc>
		<path id="curve30"  d="M4714 4015c-14,5 -28,10 -43,14 -56,-3 -113,2 -168,15 -52,-5 -102,-20 -145,-43 -69,-36 -149,-30 -220,-4l-41 15 -429 -160c119,-117 187,-262 216,-438l38 -15c74,-27 137,-76 167,-150 23,-53 59,-104 106,-147 121,-111 304,-158 461,-105 129,44 220,152 226,287 1,31 -2,61 -9,90 -1,6 -1,10 0,12 0,2 3,4 6,7 24,18 46,40 64,65 82,110 78,251 7,367 -49,81 -132,151 -236,190zm-2096 549l-836 312c-73,27 -137,76 -167,149 -23,54 -59,105 -105,148 -121,111 -304,158 -462,105 -103,-35 -167,-98 -208,-198 -21,-57 -23,-120 -9,-179 1,-6 1,-10 0,-12 0,-2 -2,-4 -6,-7 -49,-37 -87,-87 -107,-145 -34,-95 -18,-198 36,-287 49,-82 132,-152 236,-190 44,-17 88,-26 131,-30 51,11 102,15 151,14 26,8 51,17 74,29 70,37 149,31 220,5l142 -53 910 339z"/>
	<path id="curve29"  d="M4959 5082c-35,95 -112,161 -207,194 -88,30 -193,30 -296,-6 -120,-47 -220,-125 -270,-247 -30,-73 -94,-122 -167,-149l-2354 -878c-71,-26 -150,-32 -219,5 -110,57 -241,56 -356,13 -104,-38 -187,-108 -236,-190 -54,-89 -70,-191 -36,-287 20,-57 58,-108 107,-144 8,-6 8,-9 6,-19 -39,-165 52,-321 217,-377 157,-53 340,-6 461,105 47,43 83,93 105,147 30,74 94,123 167,150l37 14c35,190 121,345 261,464 174,148 416,223 734,223 228,0 412,-36 558,-108l764 284c71,27 150,32 219,-4 110,-57 242,-56 356,-14 104,39 187,109 236,191 54,88 70,191 36,287 -20,57 -58,107 -107,144 -3,3 -6,5 -6,7 -1,2 -1,6 0,12 15,61 12,124 -10,183z"/>
	<path id="curve28"  d="M2300 3152c0,73 0,145 9,218 157,53 375,80 591,80 216,0 434,-27 591,-80 9,-73 9,-145 9,-218 -105,65 -350,98 -600,98 -250,0 -495,-33 -600,-98zm124 -1500c-178,0 -324,146 -324,324 0,179 145,324 324,324 178,0 323,-145 323,-324 0,-178 -145,-324 -323,-324zm565 747c-17,-35 -50,-55 -89,-55 -39,0 -72,20 -89,55l-183 365c-40,80 37,168 121,139l88 -29c43,-14 83,-14 126,0l88 29c84,29 161,-59 121,-139l-183 -365zm387 -747c-178,0 -323,146 -323,324 0,179 145,324 323,324 179,0 324,-145 324,-324 0,-178 -145,-324 -324,-324zm-1410 -640c201,-183 502,-312 947,-312 442,0 739,129 935,310 285,264 352,634 352,890 0,215 -52,454 -189,625 36,135 43,286 -38,407 -63,95 -163,143 -273,160l0 108c0,225 -31,397 -152,520 -118,120 -312,179 -635,179 -336,0 -535,-59 -656,-178 -126,-124 -157,-295 -157,-521l0 -107c-109,-16 -209,-62 -273,-155 -84,-121 -74,-276 -38,-413 -137,-170 -189,-410 -189,-625 0,-256 76,-625 366,-888z"/>
</svg>