<?xml version="1.0" encoding="UTF-8"?>
<!DOCTYPE svg PUBLIC "-//W3C//DTD SVG 1.1//EN" "http://www.w3.org/Graphics/SVG/1.1/DTD/svg11.dtd">
<svg xmlns="http://www.w3.org/2000/svg" xml:space="preserve" width="580px" height="580px" shape-rendering="geometricPrecision" text-rendering="geometricPrecision" image-rendering="optimizeQuality" fill-rule="nonzero" clip-rule="nonzero" viewBox="0 0 5800 5800" xmlns:xlink="http://www.w3.org/1999/xlink">
	<title>skull icon</title>
	<desc>skull icon from the IconExperience.com I-Collection. Copyright by INCORS GmbH (www.incors.com).</desc>
		<path id="curve28" d="M2112 2250c304,0 551,246 551,550 0,304 -247,550 -551,550 -303,0 -550,-246 -550,-550 0,-304 247,-550 550,-550zm915 1135l258 558c26,57 18,121 -20,169 -38,48 -96,65 -152,45l-123 -45c-61,-22 -119,-22 -180,0l-123 45c-56,20 -114,3 -152,-45 -38,-48 -46,-112 -20,-169l258 -558c25,-54 72,-85 127,-85 55,0 102,31 127,85zm1482 -126c51,-111 99,-231 134,-359 149,-540 4,-1210 -418,-1588 -271,-242 -689,-412 -1325,-412 -764,0 -1214,245 -1472,568 -232,289 -328,666 -328,1032 0,141 22,275 57,400 35,128 83,248 134,359 13,28 11,60 -2,86 -51,107 -75,209 -75,302 0,175 89,310 246,386 90,43 204,67 340,67 62,0 108,55 99,116l-50 396c-1,11 -2,23 -2,35 0,37 6,75 19,103 4,10 2,16 4,17 29,0 45,-3 56,-8 9,-5 20,-17 33,-31 37,-41 100,-45 141,-8 19,17 29,39 32,62l1 0c4,34 27,66 57,91 36,31 80,51 113,51 67,0 85,-16 114,-40l0 -1 0 0 1 -1c42,-36 105,-30 141,12 8,9 14,20 18,32 11,26 25,44 42,55 20,13 47,19 81,19 22,0 44,-7 63,-16 31,-15 47,-25 48,-27 27,-49 87,-66 135,-40 19,10 34,26 42,44 2,1 20,7 50,21 21,10 44,18 62,18 34,0 64,-6 86,-20 15,-10 28,-27 36,-52 17,-53 73,-82 125,-65 17,5 31,14 42,26 26,21 46,35 108,35 67,0 162,-73 170,-142 7,-55 57,-94 112,-87 28,4 51,18 67,39 11,11 20,20 28,25 11,5 27,8 56,8 2,-1 0,-7 4,-17 12,-28 19,-65 19,-103 0,-12 -1,-24 -2,-35l-50 -400c-7,-55 32,-105 87,-111 1,0 12,-1 12,-1 140,0 256,-24 348,-68 155,-74 241,-206 241,-379 0,-95 -26,-200 -79,-310 -13,-28 -12,-58 -1,-84zm-1609 -2559c691,0 1153,191 1457,463 433,388 543,935 543,1337 0,159 -25,310 -65,453 -34,123 -78,239 -126,347 54,123 80,243 80,353 0,250 -131,451 -355,559 -92,43 -199,72 -321,83l36 293c3,19 4,39 4,59 0,64 -13,131 -37,185 -32,72 -86,124 -162,134 -44,5 -103,-3 -144,-18 -67,96 -195,176 -313,176 -68,0 -113,-9 -148,-23 -16,18 -35,33 -55,46 -56,37 -123,53 -194,53 -51,0 -103,-16 -147,-37 -18,-9 -36,-19 -52,-30 -15,11 -33,22 -51,30 -43,21 -95,37 -150,37 -72,0 -135,-16 -190,-52 -21,-14 -40,-30 -57,-49 -35,16 -80,25 -150,25 -78,0 -171,-38 -242,-99 -27,-23 -51,-49 -71,-77 -33,12 -72,19 -121,19 -8,0 -15,0 -23,-1 -76,-10 -130,-62 -162,-134 -25,-54 -37,-122 -37,-185 0,-20 1,-40 4,-59l36 -293c-118,-11 -223,-40 -313,-83 -227,-109 -360,-312 -360,-565 0,-109 25,-226 77,-347 -48,-108 -92,-224 -126,-347 -40,-143 -65,-294 -65,-453 0,-412 112,-831 372,-1157 292,-364 792,-643 1628,-643zm787 1550c304,0 550,246 550,550 0,304 -246,550 -550,550 -303,0 -550,-246 -550,-550 0,-304 247,-550 550,-550z"/>
</svg>