<?xml version="1.0" encoding="UTF-8"?>
<!DOCTYPE svg PUBLIC "-//W3C//DTD SVG 1.1//EN" "http://www.w3.org/Graphics/SVG/1.1/DTD/svg11.dtd">
<svg xmlns="http://www.w3.org/2000/svg" xml:space="preserve" width="580px" height="580px" shape-rendering="geometricPrecision" text-rendering="geometricPrecision" image-rendering="optimizeQuality" fill-rule="nonzero" clip-rule="nonzero" viewBox="0 0 5800 5800" xmlns:xlink="http://www.w3.org/1999/xlink">
	<title>skull2 icon</title>
	<desc>skull2 icon from the IconExperience.com I-Collection. Copyright by INCORS GmbH (www.incors.com).</desc>
		<path id="curve28"  d="M2424 1652c178,0 323,146 323,324 0,179 -145,324 -323,324 -179,0 -324,-145 -324,-324 0,-178 146,-324 324,-324zm2247 2377c-56,-3 -113,2 -168,15 -52,-5 -102,-20 -145,-43 -69,-36 -149,-30 -220,-4l-41 15 -285 -106 256 -96c126,-46 262,-48 382,15 59,31 134,26 195,3 60,-22 108,-61 135,-107 23,-38 31,-80 18,-117 -8,-22 -21,-38 -39,-52 -35,-27 -61,-60 -74,-100 -14,-38 -16,-80 -6,-123 3,-13 4,-25 4,-36 -3,-53 -41,-90 -91,-107 -88,-30 -196,1 -263,63 -25,23 -44,49 -55,76 -52,126 -157,214 -282,261l-182 68c36,-73 60,-153 74,-240l38 -15c74,-27 137,-76 167,-150 23,-53 59,-104 106,-147 121,-111 304,-159 461,-105 130,44 220,153 226,287 1,31 -2,61 -9,90 -2,10 -2,13 6,19 24,18 46,40 64,65 18,24 33,51 43,80 34,95 18,198 -36,287 -61,101 -165,173 -279,204zm307 960c-7,134 -96,243 -226,287 -157,53 -340,5 -461,-105 -47,-43 -83,-94 -105,-148 -30,-73 -94,-122 -167,-149l-2354 -878c-71,-26 -150,-32 -219,5 -110,57 -242,56 -356,13 -104,-38 -187,-108 -236,-190 -54,-89 -70,-191 -36,-287 10,-29 25,-56 43,-80 18,-25 40,-46 64,-64 8,-6 8,-9 6,-19 -39,-165 52,-321 217,-377 157,-53 340,-6 461,105 47,43 83,93 105,147 30,74 94,123 167,150l37 14c17,89 44,170 83,243l-190 -70c-125,-47 -230,-136 -281,-261 -12,-27 -30,-53 -55,-76 -68,-62 -176,-93 -263,-63 -67,23 -103,76 -87,143 10,43 8,84 -5,123 -14,39 -39,73 -75,100 -18,14 -31,30 -39,52 -13,36 -5,78 18,117 27,45 75,84 135,107 61,22 136,27 195,-4 120,-63 256,-61 381,-14l2354 877c125,47 229,135 281,261 12,27 30,53 55,76 68,61 176,92 263,63 50,-17 88,-54 91,-107 2,0 -4,-33 -4,-36 -10,-43 -8,-85 5,-123 14,-39 39,-73 75,-100 10,-7 18,-15 24,-24 6,-8 11,-18 15,-28 13,-37 5,-79 -18,-117 -27,-45 -75,-84 -135,-107 -61,-22 -136,-27 -195,4 -120,62 -256,61 -381,14l-1015 -378c123,-17 229,-48 321,-93l764 284c71,27 150,32 219,-4 110,-57 242,-56 356,-14 188,71 345,271 272,478 -20,57 -58,107 -107,144 -8,6 -8,9 -6,19 7,29 10,59 9,90zm-2360 -425l-836 312c-73,27 -137,76 -167,149 -23,54 -59,105 -105,148 -121,111 -304,158 -462,105 -165,-56 -256,-212 -217,-377 2,-10 2,-13 -6,-19 -24,-18 -46,-40 -64,-65 -18,-24 -33,-51 -43,-80 -34,-95 -18,-198 36,-287 49,-82 132,-152 236,-190 44,-17 88,-26 131,-30 51,11 102,15 151,14 26,8 51,17 74,29 31,16 65,25 100,26 38,1 79,-6 120,-21l142 -53 285 106 -357 133c-66,25 -132,36 -195,34 -66,-2 -129,-18 -187,-48 -59,-31 -134,-26 -194,-4 -61,23 -108,62 -136,107 -23,39 -31,81 -18,118 6,17 24,40 39,52 36,26 61,60 75,100 13,38 15,80 5,123 -16,68 21,120 87,143 88,30 196,-2 263,-63 25,-23 44,-49 55,-76 52,-126 157,-214 282,-261l620 -231 286 106zm758 -2912c179,0 324,146 324,324 0,179 -145,324 -324,324 -178,0 -323,-145 -323,-324 0,-178 145,-324 323,-324zm-387 747l183 365c18,37 13,79 -14,110 -27,31 -68,42 -107,29l-88 -29c-43,-14 -83,-14 -126,0l-88 29c-39,13 -80,2 -107,-29 -27,-31 -32,-73 -14,-110l183 -365c17,-35 50,-55 89,-55 39,0 72,20 89,55zm848 304c0,-50 -10,-108 -32,-172l-19 -58 43 -44c46,-45 92,-117 125,-215 28,-85 46,-189 46,-314 0,-217 -55,-528 -287,-744 -162,-150 -414,-256 -800,-256 -388,0 -645,107 -813,259 -238,216 -300,526 -300,741 0,125 18,229 46,314 33,98 79,170 125,215l43 43 -19 58c-22,69 -33,129 -33,180 0,87 29,146 115,174 33,10 74,16 123,16l100 0 0 100 0 152c105,65 350,98 600,98 250,0 495,-33 600,-98l0 -152 0 -100 100 0c48,0 87,-6 120,-16 86,-29 117,-93 117,-181zm-1528 667c12,90 38,160 87,209 83,80 239,121 517,121 264,0 414,-40 492,-120 49,-49 74,-120 86,-210 -157,53 -375,80 -591,80 -216,0 -434,-27 -591,-80zm1728 -667c0,88 -21,165 -64,229 -43,65 -107,113 -191,141 -26,8 -53,15 -82,19l0 108c0,225 -31,397 -152,520 -118,120 -312,179 -635,179 -336,0 -535,-59 -656,-178 -126,-124 -157,-295 -157,-521l0 -107c-30,-4 -58,-11 -84,-19 -82,-27 -145,-72 -189,-136 -43,-62 -65,-138 -65,-228 0,-56 9,-117 27,-185 -50,-62 -97,-145 -132,-249 -34,-104 -57,-230 -57,-376 0,-256 76,-625 366,-888 201,-183 502,-312 947,-312 442,0 739,129 935,310 285,264 352,634 352,890 0,146 -23,272 -57,376 -35,104 -82,187 -132,249 17,63 26,123 26,178z"/>
</svg>