<?xml version="1.0" encoding="UTF-8"?>
<!DOCTYPE svg PUBLIC "-//W3C//DTD SVG 1.1//EN" "http://www.w3.org/Graphics/SVG/1.1/DTD/svg11.dtd">
<svg xmlns="http://www.w3.org/2000/svg" xml:space="preserve" width="580px" height="580px" shape-rendering="geometricPrecision" text-rendering="geometricPrecision" image-rendering="optimizeQuality" fill-rule="nonzero" clip-rule="nonzero" viewBox="0 0 5800 5800" xmlns:xlink="http://www.w3.org/1999/xlink">
	<title>sledge icon</title>
	<desc>sledge icon from the IconExperience.com I-Collection. Copyright by INCORS GmbH (www.incors.com).</desc>
	<path id="curve0"  d="M5500 4504c55,0 100,45 100,100 0,56 -45,100 -100,100l-3596 0c-941,0 -1704,-763 -1704,-1704 0,-227 46,-454 134,-663 22,-51 80,-75 131,-53 50,21 74,80 53,130 -66,156 -105,321 -115,490l5097 0 0 200 -700 0 0 1400 700 0zm-5096 -1400c54,788 710,1400 1500,1400l296 0 0 -1400 -1796 0zm1996 0l0 1400 2200 0 0 -1400 -2200 0z"/>
</svg>