<?xml version="1.0" encoding="UTF-8"?>
<!DOCTYPE svg PUBLIC "-//W3C//DTD SVG 1.1//EN" "http://www.w3.org/Graphics/SVG/1.1/DTD/svg11.dtd">
<svg xmlns="http://www.w3.org/2000/svg" xml:space="preserve" width="580px" height="580px" shape-rendering="geometricPrecision" text-rendering="geometricPrecision" image-rendering="optimizeQuality" fill-rule="nonzero" clip-rule="nonzero" viewBox="0 0 5800 5800" xmlns:xlink="http://www.w3.org/1999/xlink">
	<title>sledge icon</title>
	<desc>sledge icon from the IconExperience.com I-Collection. Copyright by INCORS GmbH (www.incors.com).</desc>
	<path id="curve0"  d="M603 2900l4897 0 0 400 -600 0 0 1001 500 -1c110,0 199,90 199,200 0,110 -89,200 -199,200l-3496 4c-691,0 -1311,-417 -1574,-1053 -84,-201 -130,-421 -130,-651 0,-226 46,-454 134,-663 43,-101 160,-149 261,-106 102,42 149,159 106,261 -55,130 -88,266 -98,408zm3897 1400l0 -1000 -2000 0 0 1000 2000 0zm-2400 0l0 -1000 -1466 0c16,69 38,136 64,200 66,158 163,301 284,422 247,247 569,378 918,378l200 0z"/>
</svg>