<?xml version="1.0" encoding="UTF-8"?>
<!DOCTYPE svg PUBLIC "-//W3C//DTD SVG 1.1//EN" "http://www.w3.org/Graphics/SVG/1.1/DTD/svg11.dtd">
<svg xmlns="http://www.w3.org/2000/svg" xml:space="preserve" width="580px" height="580px" shape-rendering="geometricPrecision" text-rendering="geometricPrecision" image-rendering="optimizeQuality" fill-rule="nonzero" clip-rule="nonzero" viewBox="0 0 5800 5800" xmlns:xlink="http://www.w3.org/1999/xlink">
	<title>slingshot icon</title>
	<desc>slingshot icon from the IconExperience.com I-Collection. Copyright by INCORS GmbH (www.incors.com).</desc>
	<path id="curve0" d="M4650 1800c227,0 419,170 447,395 71,-17 139,-38 203,-62l0 -332c0,55 -45,99 -100,99 -55,0 -100,-45 -100,-100 0,-68 -6,-134 -16,-198 -155,32 -320,48 -484,48 -215,0 -430,-27 -624,-82 38,59 75,120 111,183 27,48 10,109 -38,136 -48,27 -109,10 -136,-38 -4,-8 -9,-15 -13,-23l0 307c93,36 195,63 301,82 18,-234 214,-415 449,-415zm423 604c-65,177 -234,296 -423,296 -182,0 -346,-110 -415,-277 -171,-26 -333,-69 -475,-132 -37,-16 -60,-53 -60,-91l0 -677c-112,-149 -233,-278 -359,-390 34,-63 73,-117 117,-162 113,97 221,207 322,331 23,-5 46,-1 67,10 214,92 483,138 753,138 148,0 296,-14 434,-42 -158,-450 -606,-790 -1086,-806 -457,-16 -767,264 -887,698l139 0c59,0 105,50 100,109l0 291 0 0c55,0 100,45 100,100 0,55 -45,100 -100,100l0 0 0 340c0,326 -113,627 -302,867 -176,223 -419,392 -698,475l0 1618c0,165 -135,300 -300,300l-400 0c-165,0 -300,-135 -300,-300l0 -1618c-590,-176 -1000,-725 -1000,-1342l0 -340 0 0c-55,0 -100,-45 -100,-100 0,-55 45,-100 100,-100l0 0 0 -300c0,-55 45,-100 100,-100l277 0c159,-474 550,-781 1038,-872 291,-54 612,-31 932,75 103,34 206,77 308,128 -41,51 -80,106 -115,166 -85,-41 -170,-76 -256,-104 -288,-95 -575,-116 -833,-69 -391,73 -712,304 -861,676l110 0c59,0 105,50 100,109l0 291 0 0c55,0 100,45 100,100 0,55 -45,100 -100,100l0 0 0 340c0,330 270,600 600,600l200 0c330,0 600,-270 600,-600l0 -340 0 0c-55,0 -100,-45 -100,-100 0,-55 45,-100 100,-100l0 0 0 -300c0,-55 45,-100 100,-100l255 0c131,-548 526,-917 1099,-898 567,20 1093,420 1274,956 46,-15 90,-31 132,-49 66,-29 140,20 140,91l0 800c0,44 -28,81 -68,95 -110,47 -231,84 -359,109zm205 -852c14,79 22,161 22,247l0 -254c-7,2 -15,4 -22,7zm-2578 148l400 0 0 -200 -400 0 0 200zm400 200l-400 0 0 340c0,441 -360,800 -800,800l-200 0c-440,0 -800,-359 -800,-800l0 -340 -400 0 0 340c0,554 381,1038 922,1168 47,11 78,52 78,97l0 1695c0,55 45,100 100,100l400 0c55,0 100,-45 100,-100l0 -1695c0,-45 31,-86 77,-97 268,-63 500,-216 665,-424 162,-205 258,-464 258,-744l0 -340zm-2200 -200l0 -200 -400 0 0 200 400 0zm3750 300c-138,0 -250,112 -250,250 0,138 112,250 250,250 138,0 250,-112 250,-250 0,-138 -112,-250 -250,-250z"/>
</svg>