<?xml version="1.0" encoding="UTF-8"?>
<!DOCTYPE svg PUBLIC "-//W3C//DTD SVG 1.1//EN" "http://www.w3.org/Graphics/SVG/1.1/DTD/svg11.dtd">
<svg xmlns="http://www.w3.org/2000/svg" xml:space="preserve" width="580px" height="580px" shape-rendering="geometricPrecision" text-rendering="geometricPrecision" image-rendering="optimizeQuality" fill-rule="nonzero" clip-rule="nonzero" viewBox="0 0 5800 5800" xmlns:xlink="http://www.w3.org/1999/xlink">
	<title>slingshot icon</title>
	<desc>slingshot icon from the IconExperience.com I-Collection. Copyright by INCORS GmbH (www.incors.com).</desc>
	<path id="curve0"  d="M3300 1700l-800 0 0 -300c0,-55 45,-100 100,-100 200,0 400,0 600,0 55,0 100,45 100,100 0,100 0,200 0,300zm1350 100c248,0 450,202 450,450 0,248 -202,450 -450,450 -248,0 -450,-202 -450,-450 0,-248 202,-450 450,-450zm-1733 -700c175,-449 555,-714 1037,-698 567,20 1093,420 1274,956 46,-15 90,-31 132,-49 51,-22 109,1 131,51 6,13 9,27 9,40l0 800c0,44 -28,81 -68,95 -44,19 -91,36 -139,52 5,-32 7,-64 7,-97 0,-359 -291,-650 -650,-650 -359,0 -650,291 -650,650 0,44 4,86 13,128 -89,-23 -174,-52 -253,-87 -37,-16 -60,-53 -60,-91l0 -677c-112,-149 -233,-278 -359,-390 34,-63 73,-117 117,-162 113,97 221,207 322,331 7,-1 13,-2 20,-2 17,0 33,4 47,12 214,92 483,138 753,138 148,0 296,-14 434,-42 -158,-450 -606,-790 -1086,-806 -365,-13 -656,166 -813,498l-218 0zm383 800l0 340c0,617 -410,1166 -1000,1342l0 1618c0,165 -135,300 -300,300l-400 0c-165,0 -300,-135 -300,-300l0 -1618c-590,-176 -1000,-725 -1000,-1342l0 -340 800 0 0 340c0,330 270,600 600,600l200 0c330,0 600,-270 600,-600l0 -340 800 0zm-3000 -200l0 -300c0,-55 45,-100 100,-100 200,0 400,0 600,0 55,0 100,45 100,100 0,93 0,202 0,300l-800 0zm463 -600c195,-368 545,-596 952,-672 422,-78 861,12 1240,203 -41,51 -80,106 -115,166 -334,-163 -721,-241 -1089,-173 -306,57 -581,215 -756,476l-232 0z"/>
</svg>