<?xml version="1.0" encoding="UTF-8"?>
<!DOCTYPE svg PUBLIC "-//W3C//DTD SVG 1.1//EN" "http://www.w3.org/Graphics/SVG/1.1/DTD/svg11.dtd">
<svg xmlns="http://www.w3.org/2000/svg" xml:space="preserve" width="580px" height="580px" shape-rendering="geometricPrecision" text-rendering="geometricPrecision" image-rendering="optimizeQuality" fill-rule="nonzero" clip-rule="nonzero" viewBox="0 0 5800 5800" xmlns:xlink="http://www.w3.org/1999/xlink">
	<title>small_truck icon</title>
	<desc>small_truck icon from the IconExperience.com I-Collection. Copyright by INCORS GmbH (www.incors.com).</desc>
		<path id="curve28" d="M400 1100l3200 0c55,0 100,45 100,100l0 2400c0,55 -45,100 -100,100l-3200 0c-55,0 -100,-45 -100,-100l0 -2400c0,-55 45,-100 100,-100zm3100 200l-3000 0 0 2200 3000 0 0 -2200zm-2700 3200l-400 0c-55,0 -100,-45 -100,-100l0 -500 200 0 0 400 300 0 0 200zm3100 -2400l1000 0c46,0 85,31 96,74l497 1290c1,4 7,36 7,36l0 900c0,55 -45,100 -100,100l-400 0 0 -200 300 0 0 -783 -468 -1217 -932 0 0 -200zm-500 2400l-1000 0 0 -200 1000 0 0 200zm800 -600c331,0 600,269 600,600 0,331 -269,600 -600,600 -331,0 -600,-269 -600,-600 0,-331 269,-600 600,-600zm0 200c-221,0 -400,179 -400,400 0,221 179,400 400,400 221,0 400,-179 400,-400 0,-221 -179,-400 -400,-400zm-2600 -200c331,0 600,269 600,600 0,331 -269,600 -600,600 -331,0 -600,-269 -600,-600 0,-331 269,-600 600,-600zm0 200c-221,0 -400,179 -400,400 0,221 179,400 400,400 221,0 400,-179 400,-400 0,-221 -179,-400 -400,-400z"/>
</svg>