<?xml version="1.0" encoding="UTF-8"?>
<!DOCTYPE svg PUBLIC "-//W3C//DTD SVG 1.1//EN" "http://www.w3.org/Graphics/SVG/1.1/DTD/svg11.dtd">
<svg xmlns="http://www.w3.org/2000/svg" xml:space="preserve" width="580px" height="580px" shape-rendering="geometricPrecision" text-rendering="geometricPrecision" image-rendering="optimizeQuality" fill-rule="nonzero" clip-rule="nonzero" viewBox="0 0 5800 5800" xmlns:xlink="http://www.w3.org/1999/xlink">
	<title>small_truck icon</title>
	<desc>small_truck icon from the IconExperience.com I-Collection. Copyright by INCORS GmbH (www.incors.com).</desc>
		<path id="curve30"  d="M3900 2100l1000 0c46,0 85,31 96,74l497 1290c4,12 7,24 7,36l0 900c0,55 -45,100 -100,100l-400 0 -25 -200c-91,-352 -410,-600 -775,-600 -104,0 -206,20 -300,58l0 -1658zm-500 2400l-1000 0c0,-230 -98,-448 -271,-600l1542 0c-173,152 -271,370 -271,600zm-2600 0l-400 0c-55,0 -100,-45 -100,-100l0 -500 771 0c-13,11 -25,22 -37,34 -150,151 -234,353 -234,566z"/>
	<path id="curve29"  d="M400 1100l3200 0c55,0 100,45 100,100l0 2400c0,55 -45,100 -100,100l-3200 0c-55,0 -100,-45 -100,-100l0 -2400c0,-55 45,-100 100,-100z"/>
	<path id="curve28"  d="M4200 3900c331,0 600,269 600,600 0,331 -269,600 -600,600 -331,0 -600,-269 -600,-600 0,-331 269,-600 600,-600zm-2600 0c331,0 600,269 600,600 0,331 -269,600 -600,600 -331,0 -600,-269 -600,-600 0,-331 269,-600 600,-600z"/>
</svg>