<?xml version="1.0" encoding="UTF-8"?>
<!DOCTYPE svg PUBLIC "-//W3C//DTD SVG 1.1//EN" "http://www.w3.org/Graphics/SVG/1.1/DTD/svg11.dtd">
<svg xmlns="http://www.w3.org/2000/svg" xml:space="preserve" width="580px" height="580px" shape-rendering="geometricPrecision" text-rendering="geometricPrecision" image-rendering="optimizeQuality" fill-rule="nonzero" clip-rule="nonzero" viewBox="0 0 5800 5800" xmlns:xlink="http://www.w3.org/1999/xlink">
	<title>smartphone_cloud icon</title>
	<desc>smartphone_cloud icon from the IconExperience.com I-Collection. Copyright by INCORS GmbH (www.incors.com).</desc>
		<path id="curve29"  d="M3295 3500l1348 0c378,0 657,-327 657,-695 0,-339 -142,-537 -450,-670l-78 -34 20 -82c77,-306 36,-636 -213,-851 -228,-196 -545,-219 -819,-112l-73 28 -45 -64c-219,-315 -466,-520 -866,-520 -35,0 -69,1 -102,4 -374,33 -675,251 -816,596l-213 0c153,-452 531,-753 1011,-795 40,-3 79,-5 120,-5 435,0 734,205 986,544 326,-103 685,-53 947,173 284,244 363,612 295,970 340,171 496,436 496,818 0,478 -369,895 -857,895l-1348 0 0 -200z"/>
	<path id="curve28"  d="M1500 1800c-55,0 -100,-45 -100,-100 0,-55 45,-100 100,-100l400 0c55,0 100,45 100,100 0,55 -45,100 -100,100l-400 0zm-600 -500l1595 0c330,0 600,270 600,600l0 3200c0,330 -270,600 -600,600l-1595 0c-330,0 -600,-270 -600,-600l0 -3200c0,-330 270,-600 600,-600zm1595 200l-1595 0c-220,0 -400,180 -400,400l0 3200c0,220 180,400 400,400l1595 0c219,0 400,-180 400,-400l0 -3200c0,-220 -181,-400 -400,-400zm-795 3400c110,0 200,90 200,200 0,110 -90,200 -200,200 -110,0 -200,-90 -200,-200 0,-110 90,-200 200,-200zm1000 -3000l0 2800 -2000 0 0 -2800 2000 0zm-200 200l-1600 0 0 2400 1600 0 0 -2400z"/>
</svg>