<?xml version="1.0" encoding="UTF-8"?>
<!DOCTYPE svg PUBLIC "-//W3C//DTD SVG 1.1//EN" "http://www.w3.org/Graphics/SVG/1.1/DTD/svg11.dtd">
<svg xmlns="http://www.w3.org/2000/svg" xml:space="preserve" width="580px" height="580px" shape-rendering="geometricPrecision" text-rendering="geometricPrecision" image-rendering="optimizeQuality" fill-rule="nonzero" clip-rule="nonzero" viewBox="0 0 5800 5800" xmlns:xlink="http://www.w3.org/1999/xlink">
	<title>smartphone icon</title>
	<desc>smartphone icon from the IconExperience.com I-Collection. Copyright by INCORS GmbH (www.incors.com).</desc>
		<path id="curve28"  d="M2600 800l600 0c55,0 100,-45 100,-100 0,-55 -45,-100 -100,-100l-600 0c-55,0 -100,45 -100,100 0,55 45,100 100,100zm303 3797c-166,0 -300,135 -300,300 0,166 134,300 300,300 165,0 300,-134 300,-300 0,-165 -135,-300 -300,-300zm-1303 -4397l2600 0c275,0 500,225 500,500l0 4300c0,275 -225,500 -500,500l-2600 0c-275,0 -500,-225 -500,-500l0 -4300c0,-275 225,-500 500,-500zm0 900l0 3300 2600 0 0 -3300 -2600 0z"/>
</svg>