<?xml version="1.0" encoding="UTF-8"?>
<!DOCTYPE svg PUBLIC "-//W3C//DTD SVG 1.1//EN" "http://www.w3.org/Graphics/SVG/1.1/DTD/svg11.dtd">
<svg xmlns="http://www.w3.org/2000/svg" xml:space="preserve" width="580px" height="580px" shape-rendering="geometricPrecision" text-rendering="geometricPrecision" image-rendering="optimizeQuality" fill-rule="nonzero" clip-rule="nonzero" viewBox="0 0 5800 5800" xmlns:xlink="http://www.w3.org/1999/xlink">
	<title>smartcard icon</title>
	<desc>smartcard icon from the IconExperience.com I-Collection. Copyright by INCORS GmbH (www.incors.com).</desc>
		<path id="curve28"  d="M800 900l4200 0c276,0 500,225 500,500l0 300 -5200 0 0 -300c0,-276 224,-500 500,-500zm4700 1000l0 2000 -5200 0 0 -2000 5200 0zm0 2200l0 300c0,275 -225,500 -500,500l-4200 0c-275,0 -500,-225 -500,-500l0 -300 5200 0zm-4600 -900l0 200 1000 0 0 -200 -300 0 0 -200 300 0 0 -200 -300 0 0 -200 300 0 0 -200 -1000 0 0 200 300 0 0 200 -300 0 0 200 300 0 0 200 -300 0z"/>
</svg>