<?xml version="1.0" encoding="UTF-8"?>
<!DOCTYPE svg PUBLIC "-//W3C//DTD SVG 1.1//EN" "http://www.w3.org/Graphics/SVG/1.1/DTD/svg11.dtd">
<svg xmlns="http://www.w3.org/2000/svg" xml:space="preserve" width="580px" height="580px" shape-rendering="geometricPrecision" text-rendering="geometricPrecision" image-rendering="optimizeQuality" fill-rule="nonzero" clip-rule="nonzero" viewBox="0 0 5800 5800" xmlns:xlink="http://www.w3.org/1999/xlink">
	<title>smartphone_cloud icon</title>
	<desc>smartphone_cloud icon from the IconExperience.com I-Collection. Copyright by INCORS GmbH (www.incors.com).</desc>
		<path id="curve28"  d="M1645 1100c153,-452 531,-753 1011,-795 40,-3 79,-5 120,-5 435,0 734,205 986,544 764,-240 1391,359 1242,1143 340,171 496,436 496,818 0,478 -369,895 -857,895l-1348 0 0 -1800c0,-441 -360,-800 -800,-800l-850 0zm-745 200l1595 0c330,0 600,270 600,600l0 3200c0,330 -270,600 -600,600l-1595 0c-330,0 -600,-270 -600,-600l0 -3200c0,-330 270,-600 600,-600zm600 500l400 0c55,0 100,-45 100,-100 0,-55 -45,-100 -100,-100l-400 0c-55,0 -100,45 -100,100 0,55 45,100 100,100zm200 3100c-110,0 -200,90 -200,200 0,110 90,200 200,200 110,0 200,-90 200,-200 0,-110 -90,-200 -200,-200zm-1000 -3000l0 2800 2000 0 0 -2800 -2000 0z"/>
</svg>