<?xml version="1.0" encoding="UTF-8"?>
<!DOCTYPE svg PUBLIC "-//W3C//DTD SVG 1.1//EN" "http://www.w3.org/Graphics/SVG/1.1/DTD/svg11.dtd">
<svg xmlns="http://www.w3.org/2000/svg" xml:space="preserve" width="580px" height="580px" shape-rendering="geometricPrecision" text-rendering="geometricPrecision" image-rendering="optimizeQuality" fill-rule="nonzero" clip-rule="nonzero" viewBox="0 0 5800 5800" xmlns:xlink="http://www.w3.org/1999/xlink">
	<title>sms icon</title>
	<desc>sms icon from the IconExperience.com I-Collection. Copyright by INCORS GmbH (www.incors.com).</desc>
	<path id="curve0"  d="M4664 4160c-34,580 -500,1057 -1033,1235l-172 57 44 -176c43,-172 49,-319 -26,-414 -80,-101 -255,-162 -577,-162 -712,0 -1358,-221 -1827,-578 -478,-363 -773,-866 -773,-1422 0,-556 295,-1059 773,-1422 469,-357 1115,-578 1827,-578 713,0 1359,220 1828,575 477,362 772,864 772,1420 0,293 -82,572 -231,823 -144,244 -351,462 -605,642zm-964 -1660c0,220 180,400 400,400l400 0c110,0 200,90 200,200 0,111 -89,200 -200,200l-400 0c-110,0 -200,-90 -200,-200l-200 0c0,220 180,400 400,400l400 0c220,0 400,-180 400,-400 0,-220 -180,-400 -400,-400l-400 0c-110,0 -200,-90 -200,-200 0,-110 90,-200 200,-200l400 0c111,0 200,89 200,200l200 0c0,-220 -180,-400 -400,-400l-400 0c-220,0 -400,180 -400,400zm-2600 0c0,-110 90,-200 200,-200l400 0c110,0 200,90 200,200l200 0c0,-220 -180,-400 -400,-400l-400 0c-220,0 -400,180 -400,400 0,220 180,400 400,400l400 0c55,0 105,22 141,59 36,36 59,86 59,141 0,110 -90,200 -200,200l-400 0c-111,0 -200,-89 -200,-200l-200 0c0,220 180,400 400,400l400 0c220,0 400,-180 400,-400 0,-110 -45,-210 -117,-283 -73,-72 -173,-117 -283,-117l-400 0c-110,0 -200,-90 -200,-200zm1200 1000l200 0 0 -1102 293 502c71,0 143,0 214,0l293 -502 0 1102 200 0 0 -1400c-86,0 -171,0 -257,0l-343 588 -343 -588c-86,0 -171,0 -257,0l0 1400z"/>
</svg>