<?xml version="1.0" encoding="UTF-8"?>
<!DOCTYPE svg PUBLIC "-//W3C//DTD SVG 1.1//EN" "http://www.w3.org/Graphics/SVG/1.1/DTD/svg11.dtd">
<svg xmlns="http://www.w3.org/2000/svg" xml:space="preserve" width="580px" height="580px" shape-rendering="geometricPrecision" text-rendering="geometricPrecision" image-rendering="optimizeQuality" fill-rule="nonzero" clip-rule="nonzero" viewBox="0 0 5800 5800" xmlns:xlink="http://www.w3.org/1999/xlink">
	<title>snowman icon</title>
	<desc>snowman icon from the IconExperience.com I-Collection. Copyright by INCORS GmbH (www.incors.com).</desc>
	<path id="curve0"  d="M2900 100c552,0 1000,448 1000,1000 0,552 -448,1000 -1000,1000 -552,0 -1000,-448 -1000,-1000 0,-552 448,-1000 1000,-1000zm-2524 2203l373 -93 91 -92 -62 -21 -498 -99 40 -196 502 101 46 15 -66 -402 196 -32 85 505 714 238c51,-120 122,-231 209,-327 14,17 30,33 45,49 226,225 530,351 849,351 319,0 623,-126 849,-351 15,-16 31,-32 45,-49 68,75 125,158 172,249l771 -145 182 -364 210 -211 142 142 -190 189 -99 198 300 -56 36 196 -218 41 345 172 -90 178 -578 -289 -733 137c36,114 56,236 56,363 0,663 -537,1200 -1200,1200 -663,0 -1200,-537 -1200,-1200 0,-98 12,-193 34,-284l-682 -227 -201 201 -427 107 -48 -194zm2774 -1703c-83,0 -150,67 -150,150 0,83 67,150 150,150 83,0 150,-67 150,-150 0,-83 -67,-150 -150,-150zm-500 0c-83,0 -150,67 -150,150 0,83 67,150 150,150 83,0 150,-67 150,-150 0,-83 -67,-150 -150,-150zm390 648c0,-54 -22,-117 -52,-162 -57,-85 -145,-134 -243,-69l-300 200c-46,30 -59,93 -28,138 19,29 51,45 83,45l400 0c99,0 140,-65 140,-152zm972 2302c313,302 488,715 488,1150 0,260 -63,517 -185,746 -18,34 -52,54 -88,54l-2654 0c-41,0 -76,-25 -92,-60 -119,-228 -181,-482 -181,-740 0,-435 175,-847 488,-1150 265,347 674,550 1112,550 372,0 727,-147 990,-410 44,-44 85,-91 122,-140z"/>
</svg>