<?xml version="1.0" encoding="UTF-8"?>
<!DOCTYPE svg PUBLIC "-//W3C//DTD SVG 1.1//EN" "http://www.w3.org/Graphics/SVG/1.1/DTD/svg11.dtd">
<svg xmlns="http://www.w3.org/2000/svg" xml:space="preserve" width="580px" height="580px" shape-rendering="geometricPrecision" text-rendering="geometricPrecision" image-rendering="optimizeQuality" fill-rule="nonzero" clip-rule="nonzero" viewBox="0 0 5800 5800" xmlns:xlink="http://www.w3.org/1999/xlink">
	<title>snowflake icon</title>
	<desc>snowflake icon from the IconExperience.com I-Collection. Copyright by INCORS GmbH (www.incors.com).</desc>
		<path id="curve28"  d="M3000 302c885,34 1656,509 2100,1212l-400 232 0 -546 -200 0 0 661 -653 377 23 -1020 -870 543 0 -767 572 -330 -100 -173 -472 273 0 -462zm2200 1385c192,362 300,775 300,1213 0,438 -108,851 -300,1213l-401 -232 473 -272 -99 -173 -573 330 -653 -377 895 -490 -906 -482 664 -383 573 330 99 -173 -473 -272 401 -232zm-100 2599c-443,703 -1215,1178 -2100,1212l0 -462 473 273 99 -173 -572 -330 0 -755 872 530 -36 -1025 664 383 0 661 200 0 0 -546 400 232zm-2300 1212c-885,-34 -1656,-509 -2100,-1212l400 -232 0 546 200 0 0 -661 653 -377 -23 1020 870 -543 0 767 -572 330 100 173 472 -273 0 462zm-2200 -1385c-192,-362 -300,-775 -300,-1213 0,-438 108,-851 300,-1213l400 231 -472 273 100 173 572 -330 653 377 -895 490 906 482 -664 383 -572 -330 -100 173 472 272 -400 232zm100 -2599c443,-703 1215,-1178 2100,-1212l0 462 -473 -273 -99 173 572 330 0 755 -872 -530 36 1025 -664 -383 0 -661 -200 0 0 546 -400 -232zm2300 482l0 247 420 242 225 -131 17 -772 -662 414zm0 477l0 254 220 -127 -220 -127zm0 600l0 254 220 -127 -220 -127zm0 484l0 262 660 400 -27 -781 -213 -123 -420 242zm-200 247l0 -247 -420 -242 -225 131 -17 772 662 -414zm0 -477l0 -254 -220 127 220 127zm0 -600l0 -254 -220 127 220 127zm0 -484l0 -262 -660 -400 27 781 213 123 420 -242zm300 657l220 127 0 -254 -220 127zm420 243l225 130 677 -372 -690 -366 -212 122 0 486zm-820 -243l-220 -127 0 254 220 -127zm-420 -243l-225 -130 -677 372 690 366 212 -122 0 -486z"/>
</svg>