<?xml version="1.0" encoding="UTF-8"?>
<!DOCTYPE svg PUBLIC "-//W3C//DTD SVG 1.1//EN" "http://www.w3.org/Graphics/SVG/1.1/DTD/svg11.dtd">
<svg xmlns="http://www.w3.org/2000/svg" xml:space="preserve" width="580px" height="580px" shape-rendering="geometricPrecision" text-rendering="geometricPrecision" image-rendering="optimizeQuality" fill-rule="nonzero" clip-rule="nonzero" viewBox="0 0 5800 5800" xmlns:xlink="http://www.w3.org/1999/xlink">
	<title>snowman icon</title>
	<desc>snowman icon from the IconExperience.com I-Collection. Copyright by INCORS GmbH (www.incors.com).</desc>
	<path id="curve0"  d="M376 2303l373 -93 91 -92 -62 -21 -498 -99 40 -196 502 101 46 15 -66 -402 196 -32 85 505 714 238c78,-181 200,-341 354,-465 -156,-176 -251,-408 -251,-662 0,-552 448,-1000 1000,-1000 552,0 1000,448 1000,1000 0,254 -95,486 -251,662 131,106 240,237 317,387l771 -145 182 -364 210 -211 142 142 -190 189 -99 198 300 -56 36 196 -218 41 345 172 -90 178 -578 -289 -733 137c36,114 56,236 56,363 0,270 -89,519 -240,720 403,303 640,774 640,1280 0,260 -63,517 -185,746 -18,34 -52,54 -88,54l-2654 0c-41,0 -76,-25 -92,-60 -119,-228 -181,-482 -181,-740 0,-506 237,-977 640,-1280 -151,-201 -240,-450 -240,-720 0,-98 12,-193 34,-284l-682 -227 -201 201 -427 107 -48 -194zm1924 -403c-252,189 -400,484 -400,800 0,552 448,1000 1000,1000 552,0 1000,-448 1000,-1000 0,-316 -148,-611 -400,-800 -167,126 -375,200 -600,200 -225,0 -433,-74 -600,-200zm1427 1670c-216,204 -507,330 -827,330 -320,0 -611,-126 -827,-330 -360,264 -573,681 -573,1130 0,208 45,412 135,600l2530 0c90,-188 135,-392 135,-600 0,-448 -213,-866 -573,-1130zm-827 -3270c-442,0 -800,358 -800,800 0,221 90,421 234,566 145,144 345,234 566,234 221,0 421,-90 566,-234 144,-145 234,-345 234,-566 0,-442 -358,-800 -800,-800zm140 948c0,87 -41,152 -140,152l-400 0c-98,0 -138,-128 -55,-183l300 -200c98,-65 186,-16 243,69 30,45 52,108 52,162zm-390 -648c83,0 150,67 150,150 0,83 -67,150 -150,150 -83,0 -150,-67 -150,-150 0,-83 67,-150 150,-150zm500 0c83,0 150,67 150,150 0,83 -67,150 -150,150 -83,0 -150,-67 -150,-150 0,-83 67,-150 150,-150z"/>
</svg>