<?xml version="1.0" encoding="UTF-8"?>
<!DOCTYPE svg PUBLIC "-//W3C//DTD SVG 1.1//EN" "http://www.w3.org/Graphics/SVG/1.1/DTD/svg11.dtd">
<svg xmlns="http://www.w3.org/2000/svg" xml:space="preserve" width="580px" height="580px" shape-rendering="geometricPrecision" text-rendering="geometricPrecision" image-rendering="optimizeQuality" fill-rule="nonzero" clip-rule="nonzero" viewBox="0 0 5800 5800" xmlns:xlink="http://www.w3.org/1999/xlink">
	<title>snowflake icon</title>
	<desc>snowflake icon from the IconExperience.com I-Collection. Copyright by INCORS GmbH (www.incors.com).</desc>
		<path id="curve28"  d="M5272 3609l-473 272 403 233 -100 172 -402 -232 0 546 -200 0 0 -661 -664 -383 36 1025 -872 -530 0 755 572 330 -99 173 -473 -273 0 464 -200 0 0 -464 -472 273 -100 -173 572 -330 0 -767 -870 543 23 -1020 -653 377 0 661 -200 0 0 -546 -402 232 -100 -172 402 -233 -472 -272 100 -173 572 330 664 -383 -906 -482 895 -490 -653 -377 -572 330 -100 -173 472 -273 -402 -232 100 -172 402 232 0 -546 200 0 0 661 664 383 -36 -1025 872 530 0 -755 -572 -330 99 -173 473 273 0 -464 200 0 0 464 472 -273 100 173 -572 330 0 767 870 -543 -23 1020 653 -377 0 -661 200 0 0 546 402 -232 100 172 -403 233 473 272 -99 173 -573 -330 -664 383 906 482 -895 490 653 377 573 -330 99 173zm-2272 -1613l0 247 210 121 210 121 225 -131 17 -772 -662 414zm0 477l0 254 220 -127 -110 -64 -110 -63zm0 600l0 254 110 -63 110 -64 -220 -127zm0 484l0 262 660 400 -27 -781 -213 -123 -210 121 -210 121zm-200 247l0 -247 -210 -121 -210 -121 -225 131 -17 772 662 -414zm0 -477l0 -254 -220 127 110 64 110 63zm0 -600l0 -254 -110 63 -110 64 220 127zm0 -484l0 -262 -660 -400 27 781 213 123 210 -121 210 -121zm300 657l220 127 0 -127 0 -127 -220 127zm420 243l225 130 677 -372 -690 -366 -212 122 0 243 0 243zm-820 -243l-220 -127 0 127 0 127 220 -127zm-420 -243l-225 -130 -677 372 690 366 212 -122 0 -243 0 -243z"/>
</svg>