<?xml version="1.0" encoding="UTF-8"?>
<!DOCTYPE svg PUBLIC "-//W3C//DTD SVG 1.1//EN" "http://www.w3.org/Graphics/SVG/1.1/DTD/svg11.dtd">
<svg xmlns="http://www.w3.org/2000/svg" xml:space="preserve" width="580px" height="580px" shape-rendering="geometricPrecision" text-rendering="geometricPrecision" image-rendering="optimizeQuality" fill-rule="nonzero" clip-rule="nonzero" viewBox="0 0 5800 5800" xmlns:xlink="http://www.w3.org/1999/xlink">
	<title>soap_dispenser icon</title>
	<desc>soap_dispenser icon from the IconExperience.com I-Collection. Copyright by INCORS GmbH (www.incors.com).</desc>
		<path id="curve29"  d="M2000 1500l300 0 0 -800c0,-220 180,-400 400,-400l400 0c220,0 400,180 400,400l555 0c135,0 245,110 245,245l0 155 -200 0 0 -155c0,-22 -21,-45 -45,-45l-555 0 0 600 300 0c275,0 500,225 500,500l0 3500 -2800 0 0 -3500c0,-275 225,-500 500,-500zm1000 200l0 1800 -200 0 0 -1800 -800 0c-165,0 -300,135 -300,300l0 3300 2400 0 0 -3300c0,-165 -135,-300 -300,-300l-800 0z"/>
	<path id="curve28"  d="M2600,2900 2600,3700 3200,3700 3200,2900 3900,2900 3900,5100 1900,5100 1900,2900z"/>
</svg>