<?xml version="1.0" encoding="UTF-8"?>
<!DOCTYPE svg PUBLIC "-//W3C//DTD SVG 1.1//EN" "http://www.w3.org/Graphics/SVG/1.1/DTD/svg11.dtd">
<svg xmlns="http://www.w3.org/2000/svg" xml:space="preserve" width="580px" height="580px" shape-rendering="geometricPrecision" text-rendering="geometricPrecision" image-rendering="optimizeQuality" fill-rule="nonzero" clip-rule="nonzero" viewBox="0 0 5800 5800" xmlns:xlink="http://www.w3.org/1999/xlink">
	<title>soap_dispenser icon</title>
	<desc>soap_dispenser icon from the IconExperience.com I-Collection. Copyright by INCORS GmbH (www.incors.com).</desc>
		<path id="curve28" d="M2600 2900l0 200 -500 0 0 1800 1600 0 0 -1800 -500 0 0 -200 700 0 0 2200 -2000 0 0 -2200 700 0zm400 -1200l0 1800 -200 0 0 -1800 -800 0c-165,0 -300,135 -300,300l0 3300 2400 0 0 -3300c0,-165 -135,-300 -300,-300l-800 0zm-300 -1400l400 0c220,0 400,180 400,400l555 0c135,0 245,110 245,245l0 155 -200 0 0 -155c0,-25 -20,-45 -45,-45l-555 0 0 600 300 0c275,0 500,225 500,500l0 3500 -2800 0 0 -3500c0,-275 225,-500 500,-500l300 0 0 -800c0,-220 180,-400 400,-400zm400 200l-400 0c-110,0 -200,90 -200,200l0 800 800 0 0 -800c0,-110 -90,-200 -200,-200z"/>
</svg>