<?xml version="1.0" encoding="UTF-8"?>
<!DOCTYPE svg PUBLIC "-//W3C//DTD SVG 1.1//EN" "http://www.w3.org/Graphics/SVG/1.1/DTD/svg11.dtd">
<svg xmlns="http://www.w3.org/2000/svg" xml:space="preserve" width="580px" height="580px" shape-rendering="geometricPrecision" text-rendering="geometricPrecision" image-rendering="optimizeQuality" fill-rule="nonzero" clip-rule="nonzero" viewBox="0 0 5800 5800" xmlns:xlink="http://www.w3.org/1999/xlink">
	<title>soccer_ball icon</title>
	<desc>soccer_ball icon from the IconExperience.com I-Collection. Copyright by INCORS GmbH (www.incors.com).</desc>
		<path id="curve28"  d="M2900 300c1436,0 2600,1164 2600,2600 0,1436 -1164,2600 -2600,2600 -1436,0 -2600,-1164 -2600,-2600 0,-1436 1164,-2600 2600,-2600zm2290 2069l-288 658 -38 849 78 46 138 -143c179,-445 217,-943 110,-1410zm-2140 -1588l744 386 739 74 20 -12c-360,-355 -823,-586 -1325,-656l-178 44 0 164zm1701 3567l47 -163 -84 -50 -708 451 -395 506 20 42c443,-145 833,-419 1120,-786zm-2580 787l19 -40 -398 -510 -704 -449 -85 51 46 161c288,367 679,642 1122,787zm-1451 -1356l139 144 77 -45 -38 -855 -287 -656 0 0c-109,467 -71,966 109,1412zm526 -2549l20 12 740 -75 744 -386 0 -164 -178 -44c-502,70 -966,301 -1326,657zm2596 243l-248 545 467 766 595 58 256 -584 -436 -722 -634 -63zm-501 705l-882 0 -457 750 438 758 920 0 438 -758 -457 -750zm-1135 -160l-248 -545 -636 64 -434 717 257 588 594 -58 467 -766zm1164 1968l-940 0 -347 485 356 457c307,0 614,0 921,0l357 -458 -347 -484z"/>
</svg>