<?xml version="1.0" encoding="UTF-8"?>
<!DOCTYPE svg PUBLIC "-//W3C//DTD SVG 1.1//EN" "http://www.w3.org/Graphics/SVG/1.1/DTD/svg11.dtd">
<svg xmlns="http://www.w3.org/2000/svg" xml:space="preserve" width="580px" height="580px" shape-rendering="geometricPrecision" text-rendering="geometricPrecision" image-rendering="optimizeQuality" fill-rule="nonzero" clip-rule="nonzero" viewBox="0 0 5800 5800" xmlns:xlink="http://www.w3.org/1999/xlink">
	<title>soccer_ball icon</title>
	<desc>soccer_ball icon from the IconExperience.com I-Collection. Copyright by INCORS GmbH (www.incors.com).</desc>
		<path id="curve28"  d="M2900 300c1436,0 2600,1164 2600,2600 0,1489 -1225,2615 -2626,2600 -1426,-14 -2574,-1174 -2574,-2600 0,-1436 1164,-2600 2600,-2600zm1896 4071l61 -210 -144 -85 -742 473 -419 537 53 109c473,-145 889,-434 1191,-824zm155 -386l172 -179c114,-279 177,-585 177,-906 0,-206 -26,-406 -75,-596l-70 20 -302 692 -40 888 138 81zm-4274 -179l174 181 136 -81 -40 -894 -300 -686 -72 -22c-49,191 -75,390 -75,596 0,321 63,627 177,906zm267 357c67,235 80,255 259,434 274,274 614,482 994,598l52 -106 -422 -541 -738 -471 -145 86zm2282 -3641l-226 56 0 233 779 405 765 76 90 -52c-375,-391 -871,-645 -1408,-718zm-426 56l-226 -56c-538,73 -1034,327 -1409,719l90 52 765 -77 780 -405 0 -233zm-811 842l-697 70 -460 760 282 645 655 -64 493 -809 -273 -602zm2517 69l-695 -69 -273 602 493 809 656 64 281 -641 -462 -765zm-2485 2983l394 506c323,0 646,0 969,0l395 -506 -383 -536 -992 0 -383 536zm390 -736l978 0 467 -809 -487 -799 -938 0 -487 799 467 809z"/>
</svg>