<?xml version="1.0" encoding="UTF-8"?>
<!DOCTYPE svg PUBLIC "-//W3C//DTD SVG 1.1//EN" "http://www.w3.org/Graphics/SVG/1.1/DTD/svg11.dtd">
<svg xmlns="http://www.w3.org/2000/svg" xml:space="preserve" width="580px" height="580px" shape-rendering="geometricPrecision" text-rendering="geometricPrecision" image-rendering="optimizeQuality" fill-rule="nonzero" clip-rule="nonzero" viewBox="0 0 5800 5800" xmlns:xlink="http://www.w3.org/1999/xlink">
	<title>solar_panel icon</title>
	<desc>solar_panel icon from the IconExperience.com I-Collection. Copyright by INCORS GmbH (www.incors.com).</desc>
	<path id="curve0"  d="M3700 3900l0 800 200 200 800 0 200 -200 0 -800 -200 -200 -800 0 -200 200zm-2800 0l0 800 200 200 800 0 200 -200 0 -800 -200 -200 -800 0 -200 200zm1400 0l0 800 200 200 800 0 200 -200 0 -800 -200 -200 -800 0 -200 200zm1400 -1400l0 800 200 200 800 0 200 -200 0 -800 -200 -200 -800 0 -200 200zm-2800 0l0 800 200 200 800 0 200 -200 0 -800 -200 -200 -800 0 -200 200zm1400 0l0 800 200 200 800 0 200 -200 0 -800 -200 -200 -800 0 -200 200zm1400 -1400l0 800 200 200 800 0 200 -200 0 -800 -200 -200 -800 0 -200 200zm-2800 0l0 800 200 200 800 0 200 -200 0 -800 -200 -200 -800 0 -200 200zm1400 0l0 800 200 200 800 0 200 -200 0 -800 -200 -200 -800 0 -200 200zm3000 -600l0 4800 -4800 0 0 -4800 4800 0z"/>
</svg>