<?xml version="1.0" encoding="UTF-8"?>
<!DOCTYPE svg PUBLIC "-//W3C//DTD SVG 1.1//EN" "http://www.w3.org/Graphics/SVG/1.1/DTD/svg11.dtd">
<svg xmlns="http://www.w3.org/2000/svg" xml:space="preserve" width="580px" height="580px" shape-rendering="geometricPrecision" text-rendering="geometricPrecision" image-rendering="optimizeQuality" fill-rule="nonzero" clip-rule="nonzero" viewBox="0 0 5800 5800" xmlns:xlink="http://www.w3.org/1999/xlink">
	<title>sort_az_descending2 icon</title>
	<desc>sort_az_descending2 icon from the IconExperience.com I-Collection. Copyright by INCORS GmbH (www.incors.com).</desc>
		<path id="curve28" d="M1900 700l0 4359 1129 -1130 142 142 -1371 1370 -1371 -1370 142 -142 1129 1130 0 -4359 200 0zm1600 4600l0 -200c0,-101 9,-177 25,-251 16,-73 39,-142 68,-231l412 -1249c14,-42 53,-69 95,-69l400 0c46,0 85,31 96,73l396 1246c10,32 21,64 32,97 43,126 76,222 76,384l0 200 -200 0 0 -200c0,-79 -10,-140 -27,-200l-1154 0c-13,60 -19,121 -19,200l0 200 -200 0zm1308 -600c-2,-7 -5,-14 -7,-21l-374 -1179 -255 0 -389 1180 -6 20 1031 0zm-1308 -4000l1600 0 0 217c0,81 -31,155 -88,212l0 0 -1283 1283c-28,28 -29,49 -29,88l1400 0 0 200 -1600 0 0 -217c0,-81 31,-155 88,-212l1283 -1283c21,-21 29,-42 29,-71l0 -17 -1400 0 0 -200z"/>
</svg>