<?xml version="1.0" encoding="UTF-8"?>
<!DOCTYPE svg PUBLIC "-//W3C//DTD SVG 1.1//EN" "http://www.w3.org/Graphics/SVG/1.1/DTD/svg11.dtd">
<svg xmlns="http://www.w3.org/2000/svg" xml:space="preserve" width="580px" height="580px" shape-rendering="geometricPrecision" text-rendering="geometricPrecision" image-rendering="optimizeQuality" fill-rule="nonzero" clip-rule="nonzero" viewBox="0 0 5800 5800" xmlns:xlink="http://www.w3.org/1999/xlink">
	<title>sort_ascending icon</title>
	<desc>sort_ascending icon from the IconExperience.com I-Collection. Copyright by INCORS GmbH (www.incors.com).</desc>
		<path id="curve28"  d="M3100 4900l2200 0 0 200 -2200 0 0 -200zm400 -1000l1800 0 0 200 -1800 0 0 -200zm400 -1000l1400 0 0 200 -1400 0 0 -200zm400 -1000l1000 0 0 200 -1000 0 0 -200zm400 -1000l600 0 0 200 -600 0 0 -200zm-4271 1029l1371 -1370 1371 1370 -142 142 -1129 -1130 0 4359 -200 0 0 -4359 -1129 1130 -142 -142z"/>
</svg>