<?xml version="1.0" encoding="UTF-8"?>
<!DOCTYPE svg PUBLIC "-//W3C//DTD SVG 1.1//EN" "http://www.w3.org/Graphics/SVG/1.1/DTD/svg11.dtd">
<svg xmlns="http://www.w3.org/2000/svg" xml:space="preserve" width="580px" height="580px" shape-rendering="geometricPrecision" text-rendering="geometricPrecision" image-rendering="optimizeQuality" fill-rule="nonzero" clip-rule="nonzero" viewBox="0 0 5800 5800" xmlns:xlink="http://www.w3.org/1999/xlink">
	<title>sort_ascending2 icon</title>
	<desc>sort_ascending2 icon from the IconExperience.com I-Collection. Copyright by INCORS GmbH (www.incors.com).</desc>
		<path id="curve28"  d="M359 1859l1441 -1442 1441 1442 -282 282 -960 -959 0 4118 -398 0 0 -4118 -960 959 -282 -282zm3141 -58l1800 0 0 398 -1800 0 0 -398zm400 1000l1400 0 0 398 -1400 0 0 -398zm400 1000l1000 0 0 398 -1000 0 0 -398zm400 1000l600 0 0 398 -600 0 0 -398zm-1600 -4000l2200 0 0 398 -2200 0 0 -398z"/>
</svg>