<?xml version="1.0" encoding="UTF-8"?>
<!DOCTYPE svg PUBLIC "-//W3C//DTD SVG 1.1//EN" "http://www.w3.org/Graphics/SVG/1.1/DTD/svg11.dtd">
<svg xmlns="http://www.w3.org/2000/svg" xml:space="preserve" width="580px" height="580px" shape-rendering="geometricPrecision" text-rendering="geometricPrecision" image-rendering="optimizeQuality" fill-rule="nonzero" clip-rule="nonzero" viewBox="0 0 5800 5800" xmlns:xlink="http://www.w3.org/1999/xlink">
	<title>sort_az_descending icon</title>
	<desc>sort_az_descending icon from the IconExperience.com I-Collection. Copyright by INCORS GmbH (www.incors.com).</desc>
		<path id="curve28"  d="M3241 4141l-1441 1442 -1441 -1442 282 -282 959 958 0 -4217 400 0 0 4217 959 -958 282 282zm160 -1441l0 -200c0,-199 36,-328 97,-514l412 -1249c28,-84 106,-137 190,-137l400 0c92,0 170,62 193,147l398 1256c59,177 109,302 109,497l0 200 -400 0c0,-95 7,-207 -7,-300l-989 0c-10,96 -5,203 -5,300l-398 0zm1270 -700l-317 -1000 -109 0 -330 1000 756 0zm-1171 1200l1700 0 0 317c0,107 -42,207 -118,283l-1199 1200 1217 0 0 400 -1700 0 0 -317c0,-107 42,-208 117,-283l1200 -1200 -1217 0 0 -400z"/>
</svg>