<?xml version="1.0" encoding="UTF-8"?>
<!DOCTYPE svg PUBLIC "-//W3C//DTD SVG 1.1//EN" "http://www.w3.org/Graphics/SVG/1.1/DTD/svg11.dtd">
<svg xmlns="http://www.w3.org/2000/svg" xml:space="preserve" width="580px" height="580px" shape-rendering="geometricPrecision" text-rendering="geometricPrecision" image-rendering="optimizeQuality" fill-rule="nonzero" clip-rule="nonzero" viewBox="0 0 5800 5800" xmlns:xlink="http://www.w3.org/1999/xlink">
	<title>sort_19_descending icon</title>
	<desc>sort_19_descending icon from the IconExperience.com I-Collection. Copyright by INCORS GmbH (www.incors.com).</desc>
		<path id="curve28" d="M1900 700l0 4359 1129 -1130 142 142 -1371 1370 -1371 -1370 142 -142 1129 1130 0 -4359 200 0zm2400 2600l400 0 0 2000 -200 0 0 -1800 -200 0 0 -200zm-600 -1100c0,165 135,300 300,300l600 0c165,0 300,-135 300,-300l0 -500c-84,63 -188,100 -300,100l-600 0c-275,0 -500,-225 -500,-500l0 -100c0,-275 225,-500 500,-500l600 0c275,0 500,225 500,500l0 100 0 900c0,276 -224,500 -500,500l-600 0c-275,0 -500,-225 -500,-500l200 0zm1200 -900l0 -100c0,-165 -135,-300 -300,-300l-600 0c-165,0 -300,135 -300,300l0 100c0,165 135,300 300,300l600 0c165,0 300,-135 300,-300z"/>
</svg>