<?xml version="1.0" encoding="UTF-8"?>
<!DOCTYPE svg PUBLIC "-//W3C//DTD SVG 1.1//EN" "http://www.w3.org/Graphics/SVG/1.1/DTD/svg11.dtd">
<svg xmlns="http://www.w3.org/2000/svg" xml:space="preserve" width="580px" height="580px" shape-rendering="geometricPrecision" text-rendering="geometricPrecision" image-rendering="optimizeQuality" fill-rule="nonzero" clip-rule="nonzero" viewBox="0 0 5800 5800" xmlns:xlink="http://www.w3.org/1999/xlink">
	<title>sort_19_descending icon</title>
	<desc>sort_19_descending icon from the IconExperience.com I-Collection. Copyright by INCORS GmbH (www.incors.com).</desc>
		<path id="curve28"  d="M4200 3200l600 0 0 2100 -400 0 0 -1700 -200 0 0 -400zm-400 -1000c0,110 90,200 200,200l600 0c110,0 200,-90 200,-200l0 -334c-63,22 -130,34 -200,34l-600 0c-331,0 -600,-269 -600,-600l0 -100c0,-331 269,-600 600,-600l600 0c331,0 600,269 600,600l0 100 0 900c0,331 -269,600 -600,600l-600 0c-331,0 -600,-269 -600,-600l400 0zm1000 -900l0 -100c0,-110 -90,-200 -200,-200l-600 0c-110,0 -200,90 -200,200l0 100c0,110 90,200 200,200l600 0c55,0 105,-23 141,-59 36,-36 59,-86 59,-141zm-1559 2841l-1441 1442 -1441 -1442 282 -282 959 958 0 -4217 400 0 0 4217 959 -958 282 282z"/>
</svg>