<?xml version="1.0" encoding="UTF-8"?>
<!DOCTYPE svg PUBLIC "-//W3C//DTD SVG 1.1//EN" "http://www.w3.org/Graphics/SVG/1.1/DTD/svg11.dtd">
<svg xmlns="http://www.w3.org/2000/svg" xml:space="preserve" width="580px" height="580px" shape-rendering="geometricPrecision" text-rendering="geometricPrecision" image-rendering="optimizeQuality" fill-rule="nonzero" clip-rule="nonzero" viewBox="0 0 5800 5800" xmlns:xlink="http://www.w3.org/1999/xlink">
	<title>sort_up_down_question icon</title>
	<desc>sort_up_down_question icon from the IconExperience.com I-Collection. Copyright by INCORS GmbH (www.incors.com).</desc>
		<path id="curve28"  d="M359 1659l1441 -1442 1441 1442 -282 282 -959 -958 0 3834 959 -958 282 282 -1441 1442 -1441 -1442 282 -282 959 958 0 -3834 -959 958 -282 -282zm5041 741c-1,447 -267,596 -506,729 -102,57 -194,108 -194,171l0 200 -400 0 0 -200c0,-297 191,-403 400,-520 143,-79 301,-167 300,-380 0,-293 -253,-401 -511,-400 -258,0 -489,114 -489,400l-400 0c0,-512 406,-800 889,-800 484,1 911,278 911,800zm-1100 1400l400 0 0 400 -400 0 0 -400z"/>
</svg>