<?xml version="1.0" encoding="UTF-8"?>
<!DOCTYPE svg PUBLIC "-//W3C//DTD SVG 1.1//EN" "http://www.w3.org/Graphics/SVG/1.1/DTD/svg11.dtd">
<svg xmlns="http://www.w3.org/2000/svg" xml:space="preserve" width="580px" height="580px" shape-rendering="geometricPrecision" text-rendering="geometricPrecision" image-rendering="optimizeQuality" fill-rule="nonzero" clip-rule="nonzero" viewBox="0 0 5800 5800" xmlns:xlink="http://www.w3.org/1999/xlink">
	<title>sort_up_down_question icon</title>
	<desc>sort_up_down_question icon from the IconExperience.com I-Collection. Copyright by INCORS GmbH (www.incors.com).</desc>
		<path id="curve28"  d="M5300 2400c0,389 -239,522 -454,642 -129,71 -246,137 -246,258l0 200 -200 0 0 -200c0,-238 166,-331 349,-432 166,-93 351,-196 351,-468 0,-351 -296,-500 -611,-500 -315,0 -589,157 -589,500l-200 0c0,-456 362,-700 789,-700 428,0 811,235 811,700zm-900 1500l200 0 0 200 -200 0 0 -200zm-3971 -2171l1371 -1370 1371 1370 -142 142 -1129 -1130 0 4318 1129 -1130 142 142 -1371 1370 -1371 -1370 142 -142 1129 1130 0 -4318 -1129 1130 -142 -142z"/>
</svg>