<?xml version="1.0" encoding="UTF-8"?>
<!DOCTYPE svg PUBLIC "-//W3C//DTD SVG 1.1//EN" "http://www.w3.org/Graphics/SVG/1.1/DTD/svg11.dtd">
<svg xmlns="http://www.w3.org/2000/svg" xml:space="preserve" width="580px" height="580px" shape-rendering="geometricPrecision" text-rendering="geometricPrecision" image-rendering="optimizeQuality" fill-rule="nonzero" clip-rule="nonzero" viewBox="0 0 5800 5800" xmlns:xlink="http://www.w3.org/1999/xlink">
	<title>sort_descending2 icon</title>
	<desc>sort_descending2 icon from the IconExperience.com I-Collection. Copyright by INCORS GmbH (www.incors.com).</desc>
		<path id="curve28"  d="M1900 700l0 4359 1129 -1130 142 142 -1371 1370 -1371 -1370 142 -142 1129 1130 0 -4359 200 0zm1600 3200l1800 0 0 200 -1800 0 0 -200zm400 -1000l1400 0 0 200 -1400 0 0 -200zm400 -1000l1000 0 0 200 -1000 0 0 -200zm400 -1000l600 0 0 200 -600 0 0 -200zm-1600 4000l2200 0 0 200 -2200 0 0 -200z"/>
</svg>