<?xml version="1.0" encoding="utf-8"?>
<!-- Generator: Adobe Illustrator 19.2.1, SVG Export Plug-In . SVG Version: 6.00 Build 0)  -->
<svg version="1.1" id="space_x5F_gi" xmlns="http://www.w3.org/2000/svg" xmlns:xlink="http://www.w3.org/1999/xlink" x="0px"
	 y="0px" width="580px" height="580px" viewBox="0 0 580 580" style="enable-background:new 0 0 580 580;" xml:space="preserve">
<title>address_book2 icon</title>
<desc>address_book2 icon from the IconExperience.com I-Collection. Copyright by INCORS GmbH (www.incors.com).</desc>
<title>address_book2 icon</title>
<desc>address_book2 icon from the IconExperience.com I-Collection. Copyright by INCORS GmbH (www.incors.com).</desc>
<title>address_book2 icon</title>
<desc>address_book2 icon from the IconExperience.com I-Collection. Copyright by INCORS GmbH (www.incors.com).</desc>
<path id="curve28_3_" d="M280,505.9V350h20v155.9l62.9-63l14.2,14.2l-87.1,87l-87.1-87l14.2-14.2L280,505.9z M350,280h155.9
	l-63-62.9l14.2-14.2l87,87.1l-87,87.1l-14.2-14.2l63-62.9H350V280z M280,230V74.1l-62.9,63l-14.2-14.2l87.1-87l87.1,87l-14.2,14.2
	l-62.9-63V230H280z M122.9,377.1l-87-87.1l87-87.1l14.2,14.2l-63,62.9H230v20H74.1l63,62.9L122.9,377.1z"/>
</svg>
