<?xml version="1.0" encoding="UTF-8"?>
<!DOCTYPE svg PUBLIC "-//W3C//DTD SVG 1.1//EN" "http://www.w3.org/Graphics/SVG/1.1/DTD/svg11.dtd">
<svg xmlns="http://www.w3.org/2000/svg" xml:space="preserve" width="580px" height="580px" shape-rendering="geometricPrecision" text-rendering="geometricPrecision" image-rendering="optimizeQuality" fill-rule="nonzero" clip-rule="nonzero" viewBox="0 0 5800 5800" xmlns:xlink="http://www.w3.org/1999/xlink">
	<title>spam icon</title>
	<desc>spam icon from the IconExperience.com I-Collection. Copyright by INCORS GmbH (www.incors.com).</desc>
		<path id="curve28"  d="M3126 1181l735 719 -1933 0c-2,-128 46,-256 142,-355l350 -357c191,-196 511,-199 706,-7zm-1398 719l-944 0c108,-127 256,-263 374,-384 187,-191 497,-199 694,-20 -82,119 -125,260 -124,404zm2049 -362l58 -57c196,-192 515,-189 707,7l396 412 -792 0c-114,-122 -249,-245 -369,-362zm-3177 2962l4600 0c197,0 296,150 296,300 0,150 -99,300 -296,300l-4600 0c-197,0 -296,-150 -296,-300 0,-150 99,-300 296,-300zm0 -2400l4600 0c165,0 300,135 300,300 0,165 -135,300 -300,300l-4600 0c-165,0 -300,-135 -300,-300 0,-165 135,-300 300,-300zm4700 790l0 1419c-32,-6 -65,-9 -100,-9l-500 0 0 -1400 500 0c34,0 68,-3 100,-10zm-4800 1419l0 -1419c32,7 66,10 100,10l3900 0 0 1400 -3900 0c-35,0 -68,3 -100,9z"/>
</svg>