<?xml version="1.0" encoding="UTF-8"?>
<!DOCTYPE svg PUBLIC "-//W3C//DTD SVG 1.1//EN" "http://www.w3.org/Graphics/SVG/1.1/DTD/svg11.dtd">
<svg xmlns="http://www.w3.org/2000/svg" xml:space="preserve" width="580px" height="580px" shape-rendering="geometricPrecision" text-rendering="geometricPrecision" image-rendering="optimizeQuality" fill-rule="nonzero" clip-rule="nonzero" viewBox="0 0 5800 5800" xmlns:xlink="http://www.w3.org/1999/xlink">
	<title>spam icon</title>
	<desc>spam icon from the IconExperience.com I-Collection. Copyright by INCORS GmbH (www.incors.com).</desc>
		<path id="curve29" d="M600 2500l4600 0c55,0 100,-45 100,-100 0,-55 -45,-100 -100,-100l-4600 0c-55,0 -100,45 -100,100 0,55 45,100 100,100zm4700 183l0 1834c119,43 200,156 200,283 0,165 -135,300 -300,300l-4600 0c-165,0 -300,-135 -300,-300 0,-127 81,-240 200,-283l0 -1834c-119,-43 -200,-156 -200,-283 0,-165 135,-300 300,-300l4600 0c165,0 300,135 300,300 0,127 -81,240 -200,283zm-100 2017l-4600 0c-55,0 -100,45 -100,100 0,55 45,100 100,100l4600 0c55,0 100,-45 100,-100 0,-55 -45,-100 -100,-100zm-500 -1800l0 1400 -200 0 0 -1400 200 0zm400 -200l-4400 0 0 1800 4400 0 0 -1800z"/>
	<path id="curve28" d="M3576 1900l-590 -577c-117,-115 -309,-113 -424,5l-350 357c-58,59 -86,137 -85,214l-199 1c-2,-128 46,-256 142,-355l350 -357c191,-196 511,-199 706,-7l735 719 -285 0zm-1871 -267c-120,-98 -296,-88 -404,23l-239 244 -278 0c8,-9 16,-18 25,-27l349 -357c185,-189 489,-200 687,-26l-140 143zm2072 -95l58 -57c196,-192 515,-189 707,7l349 357c17,18 33,36 47,55l-272 0 -266 -272c-116,-118 -307,-120 -425,-5l-56 54 -142 -139z"/>
</svg>