<?xml version="1.0" encoding="UTF-8"?>
<!DOCTYPE svg PUBLIC "-//W3C//DTD SVG 1.1//EN" "http://www.w3.org/Graphics/SVG/1.1/DTD/svg11.dtd">
<svg xmlns="http://www.w3.org/2000/svg" xml:space="preserve" width="580px" height="580px" shape-rendering="geometricPrecision" text-rendering="geometricPrecision" image-rendering="optimizeQuality" fill-rule="nonzero" clip-rule="nonzero" viewBox="0 0 5800 5800" xmlns:xlink="http://www.w3.org/1999/xlink">
	<title>spellcheck2 icon</title>
	<desc>spellcheck2 icon from the IconExperience.com I-Collection. Copyright by INCORS GmbH (www.incors.com).</desc>
		<path id="curve28" d="M700 3300l0 -100c0,-68 5,-132 16,-196 11,-63 29,-126 55,-192l336 -849c16,-39 53,-63 93,-63l200 0c44,0 81,28 94,67l335 845c24,61 44,127 55,192 11,64 16,128 16,196l0 100 -200 0 0 -100c0,-57 -4,-110 -13,-162 -2,-13 -5,-25 -8,-38l-758 0c-3,13 -6,25 -8,38 -9,51 -13,104 -13,162l0 100 -200 0zm909 -500l-277 -700 -64 0 -277 700 618 0zm691 500c0,-467 0,-933 0,-1400l700 0c220,0 400,180 400,400 0,98 -36,187 -94,257 28,17 54,37 77,60 72,73 117,173 117,283 0,220 -180,400 -400,400 -267,0 -533,0 -800,0zm200 -600l0 400 600 0c55,0 105,-22 141,-59 38,-37 59,-88 59,-141 0,-55 -22,-105 -59,-141 -36,-37 -86,-59 -141,-59l-600 0zm0 -600l0 400 500 0c111,0 200,-89 200,-200 0,-110 -90,-200 -200,-200l-500 0zm2400 300c0,-165 -135,-300 -300,-300l-200 0c-165,0 -300,135 -300,300l0 400c0,165 135,300 300,300l200 0c165,0 300,-135 300,-300l200 0c0,276 -224,500 -500,500l-200 0c-276,0 -500,-224 -500,-500l0 -400c0,-276 225,-500 500,-500l200 0c276,0 500,224 500,500l-200 0zm-3578 1378c-90,-5 -173,27 -237,91 -110,110 -232,154 -387,151l4 -199c100,2 170,-22 242,-93 100,-101 242,-158 385,-149 140,-1 277,54 376,154 67,67 152,96 246,91 96,2 184,-31 249,-96 101,-101 243,-158 386,-149 141,-1 276,54 376,154 67,67 152,96 246,91 96,2 183,-31 249,-96 101,-101 243,-158 386,-149 140,-1 276,54 376,154 67,67 152,96 246,91 94,1 182,-29 249,-96 101,-101 253,-137 392,-128l-12 200c-81,-6 -179,10 -239,69 -103,103 -240,155 -384,154 -147,9 -289,-45 -393,-149 -63,-63 -150,-98 -242,-96 -91,-5 -173,27 -238,91 -102,103 -240,155 -384,154 -147,9 -289,-45 -393,-149 -62,-63 -149,-98 -242,-96 -91,-5 -173,27 -237,91 -103,103 -241,155 -385,154 -147,9 -288,-45 -393,-149 -63,-63 -148,-98 -242,-96z"/>
</svg>