<?xml version="1.0" encoding="UTF-8"?>
<!DOCTYPE svg PUBLIC "-//W3C//DTD SVG 1.1//EN" "http://www.w3.org/Graphics/SVG/1.1/DTD/svg11.dtd">
<svg xmlns="http://www.w3.org/2000/svg" xml:space="preserve" width="580px" height="580px" shape-rendering="geometricPrecision" text-rendering="geometricPrecision" image-rendering="optimizeQuality" fill-rule="nonzero" clip-rule="nonzero" viewBox="0 0 5800 5800" xmlns:xlink="http://www.w3.org/1999/xlink">
	<title>spellcheck2 icon</title>
	<desc>spellcheck2 icon from the IconExperience.com I-Collection. Copyright by INCORS GmbH (www.incors.com).</desc>
		<path id="curve28"  d="M991 2800l618 0 -277 -700 -64 0 -277 700zm3935 1140c-161,159 -234,183 -450,183 -175,10 -346,-54 -469,-178 -87,-89 -249,-93 -338,-5 -120,120 -281,183 -450,183 -174,10 -345,-54 -469,-178 -84,-86 -259,-84 -338,-5 -120,120 -281,183 -450,183 -175,10 -344,-54 -468,-178 -88,-87 -250,-94 -338,-5 -130,129 -277,183 -459,180l6 -398c73,1 118,-13 170,-65 120,-120 291,-188 462,-178 164,1 325,67 441,183 -20,20 218,131 354,-5 120,-120 291,-188 462,-178 165,1 323,66 441,183 90,89 264,84 353,-5 121,-120 292,-188 462,-178 166,1 324,66 441,183 90,88 267,84 354,-5 122,-122 301,-167 470,-156l-25 398c-51,-3 -124,4 -162,41zm-26 -1540c0,-165 -135,-300 -300,-300l-200 0c-165,0 -300,135 -300,300l0 400c0,165 135,300 300,300l200 0c165,0 300,-135 300,-300l200 0c0,276 -224,500 -500,500l-200 0c-276,0 -500,-224 -500,-500l0 -400c0,-276 225,-500 500,-500l200 0c276,0 500,224 500,500l-200 0zm-1500 -100c0,98 -36,187 -94,257 120,72 194,202 194,343 0,220 -180,400 -400,400l-800 0c0,-467 0,-933 0,-1400l700 0c220,0 400,180 400,400zm-100 600c0,-110 -90,-200 -200,-200l-600 0 0 400 600 0c55,0 105,-22 141,-59 37,-36 59,-86 59,-141zm-100 -600c0,-110 -90,-200 -200,-200l-500 0 0 400 500 0c111,0 200,-89 200,-200zm-1521 700l-758 0c-3,13 -6,25 -8,38 -9,51 -13,104 -13,162l0 100 -200 0 0 -100c0,-68 5,-132 16,-196 11,-63 29,-126 55,-192l336 -849c16,-39 53,-63 93,-63l200 0c44,0 81,28 94,67l335 845c24,61 44,127 55,192 11,64 16,128 16,196l0 100 -200 0 0 -100c0,-57 -4,-110 -13,-162 -2,-13 -5,-25 -8,-38z"/>
</svg>