<?xml version="1.0" encoding="UTF-8"?>
<!DOCTYPE svg PUBLIC "-//W3C//DTD SVG 1.1//EN" "http://www.w3.org/Graphics/SVG/1.1/DTD/svg11.dtd">
<svg xmlns="http://www.w3.org/2000/svg" xml:space="preserve" width="580px" height="580px" shape-rendering="geometricPrecision" text-rendering="geometricPrecision" image-rendering="optimizeQuality" fill-rule="nonzero" clip-rule="nonzero" viewBox="0 0 5800 5800" xmlns:xlink="http://www.w3.org/1999/xlink">
	<title>spellcheck icon</title>
	<desc>spellcheck icon from the IconExperience.com I-Collection. Copyright by INCORS GmbH (www.incors.com).</desc>
		<path id="curve28"  d="M991 2800l618 0 -277 -700 -64 0 -277 700zm3650 141l-2041 2042 -1041 -1042 282 -282 759 758 1759 -1758 282 282zm259 -541c0,-165 -135,-300 -300,-300l-200 0c-165,0 -300,135 -300,300l0 376 -176 176c-16,-48 -24,-99 -24,-152l0 -400c0,-276 225,-500 500,-500l200 0c276,0 500,224 500,500l-200 0zm-275 699c155,-13 275,-144 275,-299l200 0c0,276 -224,500 -500,500l-176 0 201 -201zm-1125 -199c0,220 -180,400 -400,400 -267,0 -533,0 -800,0l0 -1400 700 0c220,0 400,180 400,400 0,98 -36,187 -94,257 120,72 194,202 194,343zm-200 0c0,-110 -90,-200 -200,-200l-600 0 0 400 600 0c110,0 200,-90 200,-200zm-100 -600c0,-110 -90,-200 -200,-200l-500 0 0 400 500 0c111,0 200,-89 200,-200zm-1521 700l-758 0c-3,13 -6,25 -8,38 -9,51 -13,104 -13,162l0 100 -200 0 0 -100c0,-68 5,-132 16,-196 11,-63 29,-126 55,-192l336 -849c16,-39 53,-63 93,-63l200 0c44,0 81,28 94,67l335 845c24,61 44,127 55,192 11,64 16,128 16,196l0 100 -200 0 0 -100c0,-57 -4,-110 -13,-162 -2,-13 -5,-25 -8,-38z"/>
</svg>