<?xml version="1.0" encoding="UTF-8"?>
<!DOCTYPE svg PUBLIC "-//W3C//DTD SVG 1.1//EN" "http://www.w3.org/Graphics/SVG/1.1/DTD/svg11.dtd">
<svg xmlns="http://www.w3.org/2000/svg" xml:space="preserve" width="580px" height="580px" shape-rendering="geometricPrecision" text-rendering="geometricPrecision" image-rendering="optimizeQuality" fill-rule="nonzero" clip-rule="nonzero" viewBox="0 0 5800 5800" xmlns:xlink="http://www.w3.org/1999/xlink">
	<title>spider icon</title>
	<desc>spider icon from the IconExperience.com I-Collection. Copyright by INCORS GmbH (www.incors.com).</desc>
		<path id="curve28"  d="M1700 300l0 829 341 694 392 400c60,-57 131,-103 208,-135 -9,-20 -15,-43 -15,-67 0,-87 71,-158 158,-158 44,0 83,18 112,46 7,7 5,3 8,0 29,-28 68,-46 112,-46 87,0 158,71 158,158 0,24 -6,47 -15,67 77,32 148,78 208,135l392 -400 341 -694 0 -829 200 0 0 874 -377 766 -432 441c11,19 21,39 30,59l679 -49 510 -445 193 -867 194 42 -207 933 -610 532 -706 51c5,37 6,74 4,112l687 100 518 389 310 827 -186 70 -290 -773 -430 -322 -648 -95c-5,14 -10,28 -16,42l498 559 479 845 0 1109 -200 0 0 -1057 -442 -779 -447 -501c-42,47 -90,89 -143,123 348,183 532,579 532,961 0,512 -346,1053 -900,1053 -554,0 -900,-541 -900,-1053 0,-428 218,-796 532,-961 -53,-34 -101,-76 -143,-123l-447 501 -442 779 0 1057 -200 0 0 -1109 479 -845 499 -559c-7,-14 -12,-28 -17,-42l-648 95 -430 322 -290 773 -186 -70 310 -827 518 -389 687 -100c-2,-37 -1,-75 4,-112l-706 -51 -610 -532 -207 -933 194 -42 193 867 510 445 679 49c9,-20 19,-40 30,-59l-432 -441 -377 -766 0 -874 200 0z"/>
</svg>