<?xml version="1.0" encoding="UTF-8"?>
<!DOCTYPE svg PUBLIC "-//W3C//DTD SVG 1.1//EN" "http://www.w3.org/Graphics/SVG/1.1/DTD/svg11.dtd">
<svg xmlns="http://www.w3.org/2000/svg" xml:space="preserve" width="580px" height="580px" shape-rendering="geometricPrecision" text-rendering="geometricPrecision" image-rendering="optimizeQuality" fill-rule="nonzero" clip-rule="nonzero" viewBox="0 0 5800 5800" xmlns:xlink="http://www.w3.org/1999/xlink">
	<title>spider icon</title>
	<desc>spider icon from the IconExperience.com I-Collection. Copyright by INCORS GmbH (www.incors.com).</desc>
		<path id="curve28"  d="M3159 2088c77,32 148,78 208,135l392 -400 341 -694 0 -829 200 0 0 874 -377 766 -432 441c11,19 21,39 30,59l679 -49 510 -445 193 -867 194 42 -207 933 -610 532 -706 51c3,26 5,52 5,79 0,11 0,22 -1,33l687 100 518 389 310 827 -186 70 -290 -773 -430 -322 -648 -95c-5,14 -10,28 -16,42l498 559 479 845 0 1109 -200 0 0 -1057 -442 -779 -447 -501c-42,47 -90,89 -143,123 103,54 196,131 274,224 159,189 258,450 258,737 0,288 -99,548 -258,738 -163,195 -390,315 -642,315 -252,0 -479,-120 -642,-315 -159,-190 -258,-450 -258,-738 0,-428 218,-796 532,-961 -40,-26 -78,-56 -112,-90 -11,-11 -21,-22 -31,-33l-447 501 -442 779 0 1057 -200 0 0 -1109 479 -845 499 -559c-7,-14 -12,-28 -17,-42l-648 95 -430 322 -290 773 -186 -70 310 -827 518 -389 687 -100c-1,-11 -1,-22 -1,-33 0,-27 2,-53 5,-79l-706 -51 -610 -532 -207 -933 194 -42 193 867 510 445 679 49c9,-20 19,-40 30,-59l-432 -441 -377 -766 0 -874 200 0 0 829 341 694 392 400c60,-57 131,-103 208,-135 -9,-20 -15,-43 -15,-67 0,-87 71,-158 158,-158 44,0 86,18 116,51 30,-33 72,-51 116,-51 87,0 158,71 158,158 0,24 -6,47 -15,67zm230 1550c-126,-150 -299,-243 -489,-243 -387,0 -700,381 -700,852 0,239 81,455 211,610 126,150 299,243 489,243 190,0 363,-93 489,-243 130,-155 211,-371 211,-610 0,-239 -81,-454 -211,-609zm-489 -1401c-265,0 -479,214 -479,479 0,264 214,479 479,479 265,0 479,-215 479,-479 0,-265 -214,-479 -479,-479z"/>
</svg>