<?xml version="1.0" encoding="UTF-8"?>
<!DOCTYPE svg PUBLIC "-//W3C//DTD SVG 1.1//EN" "http://www.w3.org/Graphics/SVG/1.1/DTD/svg11.dtd">
<svg xmlns="http://www.w3.org/2000/svg" xml:space="preserve" width="580px" height="580px" shape-rendering="geometricPrecision" text-rendering="geometricPrecision" image-rendering="optimizeQuality" fill-rule="nonzero" clip-rule="nonzero" viewBox="0 0 5800 5800" xmlns:xlink="http://www.w3.org/1999/xlink">
	<title>spirit_level icon</title>
	<desc>spirit_level icon from the IconExperience.com I-Collection. Copyright by INCORS GmbH (www.incors.com).</desc>
		<path id="curve28" d="M3200 2900c0,68 -44,125 -114,160 -50,25 -116,40 -186,40 -70,0 -136,-15 -186,-40 -70,-35 -114,-92 -114,-160l-100 0 0 400 800 0 0 -400 -100 0zm-1447 -200c-52,58 -92,125 -119,200l-1134 0 0 1000 4800 0 0 -1000 -1134 0c-27,-75 -67,-142 -119,-200l1453 0 0 1400 -5200 0 0 -1400 1453 0zm447 800c-220,0 -400,-180 -400,-400 0,-220 180,-400 400,-400 467,0 933,0 1400,0 220,0 400,180 400,400 0,220 -180,400 -400,400 -467,0 -933,0 -1400,0zm0 -200l100 0 0 -400 -100 0c-111,0 -200,89 -200,200 0,111 89,200 200,200zm1300 0l100 0c111,0 200,-89 200,-200 0,-111 -89,-200 -200,-200l-100 0 0 400z"/>
</svg>