<?xml version="1.0" encoding="UTF-8"?>
<!DOCTYPE svg PUBLIC "-//W3C//DTD SVG 1.1//EN" "http://www.w3.org/Graphics/SVG/1.1/DTD/svg11.dtd">
<svg xmlns="http://www.w3.org/2000/svg" xml:space="preserve" width="580px" height="580px" shape-rendering="geometricPrecision" text-rendering="geometricPrecision" image-rendering="optimizeQuality" fill-rule="nonzero" clip-rule="nonzero" viewBox="0 0 5800 5800" xmlns:xlink="http://www.w3.org/1999/xlink">
	<title>spirit_level icon</title>
	<desc>spirit_level icon from the IconExperience.com I-Collection. Copyright by INCORS GmbH (www.incors.com).</desc>
		<path id="curve28"  d="M2200 3500c-220,0 -400,-180 -400,-400 0,-220 180,-400 400,-400 467,0 933,0 1400,0 220,0 400,180 400,400 0,220 -180,400 -400,400 -467,0 -933,0 -1400,0zm-447 -800c-95,106 -153,246 -153,400 0,331 269,600 600,600l1400 0c331,0 600,-269 600,-600 0,-154 -58,-294 -153,-400l1453 0 0 1400 -5200 0 0 -1400 1453 0zm1447 200c0,146 -180,200 -300,200 -120,0 -300,-54 -300,-200l-100 0 0 400 800 0 0 -400 -100 0zm300 0l0 400 100 0c111,0 200,-89 200,-200 0,-111 -89,-200 -200,-200l-100 0zm-1200 400l0 -400 -100 0c-111,0 -200,89 -200,200 0,111 89,200 200,200l100 0z"/>
</svg>