<?xml version="1.0" encoding="UTF-8"?>
<!DOCTYPE svg PUBLIC "-//W3C//DTD SVG 1.1//EN" "http://www.w3.org/Graphics/SVG/1.1/DTD/svg11.dtd">
<svg xmlns="http://www.w3.org/2000/svg" xml:space="preserve" width="580px" height="580px" shape-rendering="geometricPrecision" text-rendering="geometricPrecision" image-rendering="optimizeQuality" fill-rule="nonzero" clip-rule="nonzero" viewBox="0 0 5800 5800" xmlns:xlink="http://www.w3.org/1999/xlink">
	<title>sponge icon</title>
	<desc>sponge icon from the IconExperience.com I-Collection. Copyright by INCORS GmbH (www.incors.com).</desc>
	<path id="curve0"  d="M2100 700l1200 0c771,0 1400,629 1400,1400l0 2000c0,771 -629,1400 -1400,1400l-1200 0c-771,0 -1400,-629 -1400,-1400l0 -2000c0,-771 629,-1400 1400,-1400zm1600 600c-233,0 -420,201 -398,434 -240,84 -402,311 -402,566 0,331 269,600 600,600 331,0 600,-269 600,-600 0,-119 -36,-235 -102,-334 66,-73 102,-168 102,-266 0,-221 -179,-400 -400,-400zm200 400c0,69 -35,132 -93,169 -56,35 -62,114 -14,158 69,75 107,171 107,273 0,221 -179,400 -400,400 -221,0 -400,-179 -400,-400 0,-196 142,-364 335,-395 54,-9 92,-60 83,-114 -6,-35 -18,-51 -18,-91 0,-111 90,-200 200,-200 110,0 200,89 200,200zm-2200 1800c-221,0 -400,179 -400,400 0,144 78,277 202,347 -1,18 -2,36 -2,53 0,331 269,600 600,600 331,0 600,-269 600,-600 0,-352 -303,-629 -653,-598 -70,-124 -203,-202 -347,-202zm192 342c15,50 67,80 117,68 0,0 41,-7 45,-8 14,-1 29,-2 46,-2 221,0 400,179 400,400 0,221 -179,400 -400,400 -221,0 -400,-179 -400,-400 0,-31 3,-60 10,-91 12,-53 -20,-106 -73,-119 -82,-27 -137,-104 -137,-190 0,-110 90,-200 200,-200 88,0 166,57 192,142zm1413 458c-221,0 -400,179 -400,400 0,221 179,400 400,400 221,0 400,-179 400,-400 0,-221 -179,-400 -400,-400zm200 400c0,110 -90,200 -200,200 -111,0 -200,-90 -200,-200 0,-110 89,-200 200,-200 110,0 200,90 200,200zm195 -1400c-221,0 -400,179 -400,400 0,221 179,400 400,400 221,0 400,-179 400,-400 0,-221 -179,-400 -400,-400zm200 400c0,110 -90,200 -200,200 -110,0 -200,-90 -200,-200 0,-110 90,-200 200,-200 110,0 200,90 200,200zm-1400 -2600c-220,0 -400,180 -400,400 0,221 179,400 400,400 220,0 400,-180 400,-400 0,-221 -179,-400 -400,-400zm200 400c0,111 -89,200 -200,200 -110,0 -200,-90 -200,-200 0,-111 89,-200 200,-200 110,0 200,90 200,200zm-1100 400c-276,0 -500,224 -500,500 0,276 224,500 500,500 276,0 500,-224 500,-500 0,-276 -224,-500 -500,-500zm300 500c0,166 -134,300 -300,300 -166,0 -300,-134 -300,-300 0,-166 134,-300 300,-300 166,0 300,134 300,300zm600 300c-221,0 -400,179 -400,400 0,221 179,400 400,400 221,0 400,-179 400,-400 0,-221 -179,-400 -400,-400zm200 400c0,110 -90,200 -200,200 -110,0 -200,-90 -200,-200 0,-110 90,-200 200,-200 110,0 200,90 200,200zm-1004 -2545c84,-59 174,-109 269,-149 166,-68 346,-106 535,-106l1200 0c771,0 1400,629 1400,1400l0 2000c0,289 -89,568 -255,804 34,-131 52,-266 52,-404l0 -2000c0,-880 -717,-1597 -1597,-1597l-1200 0c-138,0 -273,18 -404,52z"/>
</svg>