<?xml version="1.0" encoding="UTF-8"?>
<!DOCTYPE svg PUBLIC "-//W3C//DTD SVG 1.1//EN" "http://www.w3.org/Graphics/SVG/1.1/DTD/svg11.dtd">
<svg xmlns="http://www.w3.org/2000/svg" xml:space="preserve" width="580px" height="580px" shape-rendering="geometricPrecision" text-rendering="geometricPrecision" image-rendering="optimizeQuality" fill-rule="nonzero" clip-rule="nonzero" viewBox="0 0 5800 5800" xmlns:xlink="http://www.w3.org/1999/xlink">
	<title>sponge icon</title>
	<desc>sponge icon from the IconExperience.com I-Collection. Copyright by INCORS GmbH (www.incors.com).</desc>
	<path id="curve0" d="M3700 1300c221,0 400,179 400,400 0,98 -36,193 -102,266 23,35 43,71 59,110 28,70 43,145 43,224 0,331 -269,600 -600,600 -331,0 -600,-269 -600,-600 0,-148 54,-283 143,-388 68,-80 157,-142 259,-178 -1,-11 -2,-23 -2,-34 0,-221 179,-400 400,-400zm-1600 -600l1200 0c771,0 1400,629 1400,1400l0 2000c0,107 -12,212 -35,312 58,-78 106,-163 144,-254 59,-141 91,-296 91,-458l0 -2000c0,-661 -539,-1200 -1200,-1200l-1200 0c-258,0 -506,82 -712,235 100,-23 205,-35 312,-35zm2189 4389c-262,263 -617,411 -989,411l-1200 0c-771,0 -1400,-629 -1400,-1400l0 -2000c0,-189 38,-369 106,-535 72,-171 176,-325 305,-454l400 -400c262,-263 617,-411 989,-411l1200 0c771,0 1400,629 1400,1400l0 2000c0,189 -38,369 -106,534 -72,172 -176,326 -305,455l-400 400zm-989 -4189l-1200 0c-320,0 -622,126 -848,352 -111,111 -200,244 -261,390 -59,141 -91,296 -91,458l0 2000c0,661 539,1200 1200,1200l1200 0c665,0 1200,-543 1200,-1200l0 -2000c0,-661 -539,-1200 -1200,-1200zm-800 1800c221,0 400,179 400,400 0,221 -179,400 -400,400 -221,0 -400,-179 -400,-400 0,-221 179,-400 400,-400zm0 200c-110,0 -200,90 -200,200 0,110 90,200 200,200 110,0 200,-90 200,-200 0,-110 -90,-200 -200,-200zm-900 -1000c276,0 500,224 500,500 0,276 -224,500 -500,500 -276,0 -500,-224 -500,-500 0,-276 224,-500 500,-500zm0 200c-166,0 -300,134 -300,300 0,166 134,300 300,300 166,0 300,-134 300,-300 0,-166 -134,-300 -300,-300zm900 -1000c221,0 400,179 400,400 0,220 -180,400 -400,400 -221,0 -400,-179 -400,-400 0,-220 180,-400 400,-400zm0 200c-111,0 -200,89 -200,200 0,110 90,200 200,200 111,0 200,-89 200,-200 0,-110 -90,-200 -200,-200zm1200 2000c221,0 400,179 400,400 0,221 -179,400 -400,400 -221,0 -400,-179 -400,-400 0,-221 179,-400 400,-400zm0 200c-110,0 -200,90 -200,200 0,110 90,200 200,200 110,0 200,-90 200,-200 0,-110 -90,-200 -200,-200zm-395 800c221,0 400,179 400,400 0,221 -179,400 -400,400 -221,0 -400,-179 -400,-400 0,-221 179,-400 400,-400zm0 200c-111,0 -200,90 -200,200 0,110 89,200 200,200 110,0 200,-90 200,-200 0,-110 -90,-200 -200,-200zm-1605 -1000c144,0 277,78 347,202 18,-1 36,-2 53,-2 331,0 600,269 600,600 0,331 -269,600 -600,600 -331,0 -600,-269 -600,-600 0,-17 1,-35 2,-53 -124,-70 -202,-203 -202,-347 0,-221 179,-400 400,-400zm0 200c-110,0 -200,90 -200,200 0,86 55,163 137,190 53,13 85,66 73,119 -7,31 -10,60 -10,91 0,221 179,400 400,400 221,0 400,-179 400,-400 0,-240 -209,-424 -446,-398 -4,1 -45,8 -45,8 -50,12 -102,-18 -117,-68 -26,-85 -104,-142 -192,-142zm1803 -1964c3,20 12,37 15,55 9,54 -29,105 -83,114 -95,15 -180,65 -240,136 -59,70 -95,160 -95,259 0,221 179,400 400,400 221,0 400,-179 400,-400 0,-53 -10,-104 -29,-150 -18,-46 -45,-87 -78,-123 -7,-6 -12,-13 -17,-20 -29,-47 -16,-108 31,-138 58,-37 93,-100 93,-169 0,-111 -90,-200 -200,-200 -110,0 -200,89 -200,200 0,14 1,26 3,36z"/>
</svg>