<?xml version="1.0" encoding="UTF-8"?>
<!DOCTYPE svg PUBLIC "-//W3C//DTD SVG 1.1//EN" "http://www.w3.org/Graphics/SVG/1.1/DTD/svg11.dtd">
<svg xmlns="http://www.w3.org/2000/svg" xml:space="preserve" width="580px" height="580px" shape-rendering="geometricPrecision" text-rendering="geometricPrecision" image-rendering="optimizeQuality" fill-rule="nonzero" clip-rule="nonzero" viewBox="0 0 5800 5800" xmlns:xlink="http://www.w3.org/1999/xlink">
	<title>spray_can icon</title>
	<desc>spray_can icon from the IconExperience.com I-Collection. Copyright by INCORS GmbH (www.incors.com).</desc>
		<path id="curve28" d="M2900 801c111,0 200,89 200,199 0,111 -89,200 -200,200l0 0 0 300 -200 0 0 200 1000 0 0 -200 -200 0 0 -750c-4,0 -4,-50 -50,-50l-500 0c-27,0 -50,23 -50,50l0 51zm50 -301l500 0c137,0 250,113 250,250l0 550 100 0 100 0 0 100 0 300 200 0c55,0 105,23 141,59 36,36 59,86 59,141l-5 3400c0,55 -23,105 -59,141 -36,36 -86,59 -141,59l-1800 0c-55,0 -105,-23 -141,-59 -36,-36 -59,-86 -59,-141l5 -3400c1,-110 90,-200 200,-200l200 0 0 -400 200 0 0 -550c0,-69 28,-131 73,-177 46,-45 108,-73 177,-73zm950 1800l0 2800 -200 0 0 -2800 200 0zm200 -400l-1800 0 -5 3400 0 0 0 0 0 0 0 0 0 0 1800 0c-2,-2 5,-3075 5,-3400l0 0 0 0 0 0 0 0 0 0 0 0 0 0 0 0 0 0 0 0 0 0 0 0 0 0zm0 0l0 0 0 0c0,0 0,0 0,0zm-1805 3400l0 0 0 0c0,0 0,0 0,0zm0 0l0 0m176 -4371c39,39 39,103 0,142 -39,39 -103,39 -142,0 -39,-39 -39,-103 0,-142 39,-39 103,-39 142,0zm-400 200c39,39 39,103 0,142 -39,39 -103,39 -142,0 -39,-39 -39,-103 0,-142 39,-39 103,-39 142,0zm0 -400c39,39 39,103 0,142 -39,39 -103,39 -142,0 -39,-39 -39,-103 0,-142 39,-39 103,-39 142,0zm-397 599c39,39 39,103 0,142 -39,39 -102,39 -141,0 -39,-39 -39,-103 0,-142 39,-39 102,-39 141,0zm0 -400c39,39 39,103 0,142 -39,39 -102,39 -141,0 -39,-39 -39,-103 0,-142 39,-39 102,-39 141,0zm0 -399c39,39 39,103 0,142 -39,39 -102,39 -141,0 -39,-39 -39,-103 0,-142 39,-39 102,-39 141,0zm-403 199c39,39 39,103 0,142 -39,39 -103,39 -142,0 -39,-39 -39,-103 0,-142 39,-39 103,-39 142,0zm0 -399c39,39 39,103 0,142 -39,39 -103,39 -142,0 -39,-39 -39,-103 0,-142 39,-39 103,-39 142,0zm0 1200c39,39 39,103 0,142 -39,39 -103,39 -142,0 -39,-39 -39,-103 0,-142 39,-39 103,-39 142,0zm0 -399c39,39 39,103 0,142 -39,39 -103,39 -142,0 -39,-39 -39,-103 0,-142 39,-39 103,-39 142,0z"/>
</svg>