<?xml version="1.0" encoding="UTF-8"?>
<!DOCTYPE svg PUBLIC "-//W3C//DTD SVG 1.1//EN" "http://www.w3.org/Graphics/SVG/1.1/DTD/svg11.dtd">
<svg xmlns="http://www.w3.org/2000/svg" xml:space="preserve" width="580px" height="580px" shape-rendering="geometricPrecision" text-rendering="geometricPrecision" image-rendering="optimizeQuality" fill-rule="nonzero" clip-rule="nonzero" viewBox="0 0 5800 5800" xmlns:xlink="http://www.w3.org/1999/xlink">
	<title>spray_can icon</title>
	<desc>spray_can icon from the IconExperience.com I-Collection. Copyright by INCORS GmbH (www.incors.com).</desc>
		<path id="curve28"  d="M2950 500l500 0c137,0 250,113 250,250l0 550 200 0 0 200 -1400 0 0 -200 200 0 0 -292c4,107 92,192 200,192 110,0 200,-90 200,-200 0,-110 -90,-200 -200,-200 -108,0 -196,85 -200,192l0 -242c0,-138 112,-250 250,-250zm1150 1200c110,1 200,90 200,200l-5 3400c-1,110 -89,200 -200,200l-1800 0c-110,-1 -200,-90 -200,-200l5 -3400c1,-110 90,-200 200,-200l1800 0zm-200 600l-200 0 0 2800 200 0 0 -2800zm-2629 -1170c39,39 39,103 0,142 -39,39 -103,39 -142,0 -39,-39 -39,-103 0,-142 39,-39 103,-39 142,0zm0 399c39,39 39,103 0,142 -39,39 -103,39 -142,0 -39,-39 -39,-103 0,-142 39,-39 103,-39 142,0zm0 -1200c39,39 39,103 0,142 -39,39 -103,39 -142,0 -39,-39 -39,-103 0,-142 39,-39 103,-39 142,0zm0 399c39,39 39,103 0,142 -39,39 -103,39 -142,0 -39,-39 -39,-103 0,-142 39,-39 103,-39 142,0zm403 -199c39,39 39,103 0,142 -39,39 -102,39 -141,0 -39,-39 -39,-103 0,-142 39,-39 102,-39 141,0zm0 399c39,39 39,103 0,142 -39,39 -102,39 -141,0 -39,-39 -39,-103 0,-142 39,-39 102,-39 141,0zm0 400c39,39 39,103 0,142 -39,39 -102,39 -141,0 -39,-39 -39,-103 0,-142 39,-39 102,-39 141,0zm397 -599c39,39 39,103 0,142 -39,39 -103,39 -142,0 -39,-39 -39,-103 0,-142 39,-39 103,-39 142,0zm0 400c39,39 39,103 0,142 -39,39 -103,39 -142,0 -39,-39 -39,-103 0,-142 39,-39 103,-39 142,0zm400 -200c39,39 39,103 0,142 -39,39 -103,39 -142,0 -39,-39 -39,-103 0,-142 39,-39 103,-39 142,0z"/>
</svg>