<?xml version="1.0" encoding="UTF-8"?>
<!DOCTYPE svg PUBLIC "-//W3C//DTD SVG 1.1//EN" "http://www.w3.org/Graphics/SVG/1.1/DTD/svg11.dtd">
<svg xmlns="http://www.w3.org/2000/svg" xml:space="preserve" width="580px" height="580px" shape-rendering="geometricPrecision" text-rendering="geometricPrecision" image-rendering="optimizeQuality" fill-rule="nonzero" clip-rule="nonzero" viewBox="0 0 5800 5800" xmlns:xlink="http://www.w3.org/1999/xlink">
	<title>spreadsheed_sort_ascending icon</title>
	<desc>spreadsheed_sort_ascending icon from the IconExperience.com I-Collection. Copyright by INCORS GmbH (www.incors.com).</desc>
		<path id="curve29"  d="M4700,2521 4700,5080 5350,4430 5491,4571 4600,5463 3709,4571 3850,4430 4500,5080 4500,2521z"/>
	<path id="curve28"  d="M1300 500l0 1000 -1000 0 0 -1000 1000 0zm-600 4600l600 0c0,133 0,267 0,400l-1000 0 0 -3800 1000 0 0 200 -600 0 0 1000 600 0 0 200 -600 0 0 1000 600 0 0 200 -600 0 0 800zm4200 -4200l0 600c133,0 267,0 400,0l0 -1000 -3800 0 0 1000 200 0 0 -600 1000 0 0 600 200 0 0 -600 1000 0 0 600 200 0 0 -600 800 0zm400 800l0 2214 -200 186 0 -2200 -1000 0 0 2200 -200 -186 0 -814 -1000 0 0 1000 714 0 -200 200 -514 0 0 1000 972 0 200 200 -2572 0 0 -3800 3800 0zm-3600 2400l1000 0 0 -1000 -1000 0 0 1000zm1000 200l-1000 0 0 1000 1000 0 0 -1000zm-1000 -1400l1000 0 0 -1000 -1000 0 0 1000zm1200 0l1000 0 0 -1000 -1000 0 0 1000z"/>
</svg>