<?xml version="1.0" encoding="UTF-8"?>
<!DOCTYPE svg PUBLIC "-//W3C//DTD SVG 1.1//EN" "http://www.w3.org/Graphics/SVG/1.1/DTD/svg11.dtd">
<svg xmlns="http://www.w3.org/2000/svg" xml:space="preserve" width="580px" height="580px" shape-rendering="geometricPrecision" text-rendering="geometricPrecision" image-rendering="optimizeQuality" fill-rule="nonzero" clip-rule="nonzero" viewBox="0 0 5800 5800" xmlns:xlink="http://www.w3.org/1999/xlink">
	<title>spreadsheed_chart icon</title>
	<desc>spreadsheed_chart icon from the IconExperience.com I-Collection. Copyright by INCORS GmbH (www.incors.com).</desc>
		<path id="curve29"  d="M5500 2300l0 3200 -3200 0 0 -3200 3200 0zm-3000 2777l0 223 111 0 516 -1032 701 701 361 -732 339 329 772 -1543 0 -446 -828 1657 -341 -331 -359 728 -699 -699 -573 1145z"/>
	<path id="curve28"  d="M1300 500l0 1000 -1000 0 0 -1000 1000 0zm400 400l1000 0 0 600 200 0 0 -600 1000 0 0 600 200 0 0 -600 800 0 0 600c133,0 267,0 400,0l0 -1000 -3800 0 0 1000 200 0 0 -600zm3600 800l0 400 -200 0 0 -200 -1000 0 0 200 -200 0 0 -200 -1000 0 0 200 -200 0 0 -200 -1000 0 0 1000 400 0 0 200 -400 0 0 1000 400 0 0 200 -400 0 0 1000 400 0 0 200 -600 0 0 -3800 3800 0zm-4000 0l0 200 -600 0 0 1000 600 0 0 200 -600 0 0 1000 600 0 0 200 -600 0 0 800 600 0c0,133 0,267 0,400l-1000 0 0 -3800 1000 0z"/>
</svg>