<?xml version="1.0" encoding="UTF-8"?>
<!DOCTYPE svg PUBLIC "-//W3C//DTD SVG 1.1//EN" "http://www.w3.org/Graphics/SVG/1.1/DTD/svg11.dtd">
<svg xmlns="http://www.w3.org/2000/svg" xml:space="preserve" width="580px" height="580px" shape-rendering="geometricPrecision" text-rendering="geometricPrecision" image-rendering="optimizeQuality" fill-rule="nonzero" clip-rule="nonzero" viewBox="0 0 5800 5800" xmlns:xlink="http://www.w3.org/1999/xlink">
	<title>spreadsheed_data icon</title>
	<desc>spreadsheed_data icon from the IconExperience.com I-Collection. Copyright by INCORS GmbH (www.incors.com).</desc>
		<path id="curve29" d="M1300 5500l-1000 0 0 -3800 1000 0 0 200 -800 0 0 1000 800 0 0 200 -800 0 0 1000 800 0 0 200 -800 0 0 1000 800 0 0 200zm0 -5000l0 1000 -1000 0 0 -1000 1000 0zm400 200l0 800 -200 0 0 -1000 3800 0 0 1000 -200 0 0 -800 -1000 0 0 800 -200 0 0 -800 -1000 0 0 800 -200 0 0 -800 -1000 0zm0 3400l800 0 0 200 -800 0 0 1000 800 0 0 64 90 89 48 47 -1138 0 0 -3800 3800 0 0 200c-820,0 -1639,0 -2459,0l-88 87 -53 52 0 -139 -1000 0 0 1000 800 0 0 64 36 36 -36 36 0 64 -800 0 0 1000z"/>
	<path id="curve28" d="M5278 2100l222 219 0 562 -120 119 120 119 0 562 -120 119 120 119 0 562 -120 119 120 119 0 562 -222 219 -2356 0 -222 -219 0 -562 120 -119 -120 -119 0 -562 120 -119 -120 -119 0 -562 120 -119 -120 -119 0 -562 222 -219 2356 0zm-81 2600l-2194 0 -103 101 0 398 103 101 2194 0 103 -101 0 -398 -103 -101zm0 -800l-2194 0 -103 101 0 398 103 101 2194 0 103 -101 0 -398 -103 -101zm0 -800l-2194 0 -103 101 0 398 103 101 2194 0 103 -101 0 -398 -103 -101zm0 -800l-2194 0 -103 101 0 398 103 101 2194 0 103 -101 0 -398 -103 -101z"/>
</svg>