<?xml version="1.0" encoding="UTF-8"?>
<!DOCTYPE svg PUBLIC "-//W3C//DTD SVG 1.1//EN" "http://www.w3.org/Graphics/SVG/1.1/DTD/svg11.dtd">
<svg xmlns="http://www.w3.org/2000/svg" xml:space="preserve" width="580px" height="580px" shape-rendering="geometricPrecision" text-rendering="geometricPrecision" image-rendering="optimizeQuality" fill-rule="nonzero" clip-rule="nonzero" viewBox="0 0 5800 5800" xmlns:xlink="http://www.w3.org/1999/xlink">
	<title>spreadsheed_column icon</title>
	<desc>spreadsheed_column icon from the IconExperience.com I-Collection. Copyright by INCORS GmbH (www.incors.com).</desc>
		<path id="curve28"  d="M1300 5500l-1000 0 0 -3800 1000 0 0 200 -800 0 0 1000 800 0 0 200 -800 0 0 1000 800 0 0 200 -800 0 0 1000 800 0 0 200zm0 -5000l0 1000 -1000 0 0 -1000 1000 0zm400 200l0 800 -200 0 0 -1000 3800 0 0 1000 -200 0 0 -800 -1000 0 0 800 -200 0 0 -800 -1000 0 0 800 -200 0 0 -800 -1000 0zm0 3400l1000 0 0 -1000 -1000 0 0 1000zm2400 0l1000 0 0 -1000 -1000 0 0 1000zm1000 200l-1000 0 0 1000 1000 0 0 -1000zm-2400 0l-1000 0 0 1000 1000 0 0 -1000zm-1000 -1400l1000 0 0 -1000 -1000 0 0 1000zm2400 0l1000 0 0 -1000 -1000 0 0 1000zm1200 -1200c0,1267 0,2533 0,3800l-3800 0 0 -3800 3800 0z"/>
</svg>