<?xml version="1.0" encoding="UTF-8"?>
<!DOCTYPE svg PUBLIC "-//W3C//DTD SVG 1.1//EN" "http://www.w3.org/Graphics/SVG/1.1/DTD/svg11.dtd">
<svg xmlns="http://www.w3.org/2000/svg" xml:space="preserve" width="580px" height="580px" shape-rendering="geometricPrecision" text-rendering="geometricPrecision" image-rendering="optimizeQuality" fill-rule="nonzero" clip-rule="nonzero" viewBox="0 0 5800 5800" xmlns:xlink="http://www.w3.org/1999/xlink">
	<title>spreadsheed_row icon</title>
	<desc>spreadsheed_row icon from the IconExperience.com I-Collection. Copyright by INCORS GmbH (www.incors.com).</desc>
		<path id="curve28"  d="M1300 500l0 1000 -1000 0 0 -1000 1000 0zm400 400l1000 0 0 600 200 0 0 -600 1000 0 0 600 200 0 0 -600 800 0 0 600c133,0 267,0 400,0l0 -1000 -3800 0 0 1000 200 0 0 -600zm3600 800l0 3800 -3800 0 0 -3800 3800 0zm-200 2600l-1000 0 0 1000 1000 0 0 -1000zm-1200 0l-1000 0 0 1000 1000 0 0 -1000zm-1200 0l-1000 0 0 1000 1000 0 0 -1000zm-1000 -1400l1000 0 0 -1000 -1000 0 0 1000zm1200 0l1000 0 0 -1000 -1000 0 0 1000zm1200 0l1000 0 0 -1000 -1000 0 0 1000zm-2800 -1200l0 200 -600 0 0 1000 600 0 0 200 -600 0 0 1000 600 0 0 200 -600 0 0 800 600 0c0,133 0,267 0,400l-1000 0 0 -3800 1000 0z"/>
</svg>