<?xml version="1.0" encoding="UTF-8"?>
<!DOCTYPE svg PUBLIC "-//W3C//DTD SVG 1.1//EN" "http://www.w3.org/Graphics/SVG/1.1/DTD/svg11.dtd">
<svg xmlns="http://www.w3.org/2000/svg" xml:space="preserve" width="580px" height="580px" shape-rendering="geometricPrecision" text-rendering="geometricPrecision" image-rendering="optimizeQuality" fill-rule="nonzero" clip-rule="nonzero" viewBox="0 0 5800 5800" xmlns:xlink="http://www.w3.org/1999/xlink">
	<title>spreadsheed_sort_ascending icon</title>
	<desc>spreadsheed_sort_ascending icon from the IconExperience.com I-Collection. Copyright by INCORS GmbH (www.incors.com).</desc>
		<path id="curve28" d="M1300 5500l-1000 0 0 -3800 1000 0 0 200 -800 0 0 1000 800 0 0 200 -800 0 0 1000 800 0 0 200 -800 0 0 1000 800 0 0 200zm0 -5000l0 1000 -1000 0 0 -1000 1000 0zm400 200l0 800 -200 0 0 -1000 3800 0 0 1000 -200 0 0 -800 -1000 0 0 800 -200 0 0 -800 -1000 0 0 800 -200 0 0 -800 -1000 0zm0 3400l1000 0 0 -1000 -1000 0 0 1000zm1200 0l580 0c-19,14 -37,30 -54,47 -46,45 -80,97 -105,153l-421 0 0 1000 972 0 200 200 -2572 0 0 -3800 3800 0 0 2315c-73,18 -142,53 -202,104l2 -2219 -1000 0 2 2219c-60,-51 -129,-86 -202,-104l0 -915 -1000 0 0 1000zm2400 1228l0 172 -172 0 172 -172zm-2600 -1028l-1000 0 0 1000 1000 0 0 -1000zm-1000 -1400l1000 0 0 -1000 -1000 0 0 1000zm1200 0l1000 0 0 -1000 -1000 0 0 1000zm950 1530l650 650 0 -2559 200 0 0 2559 650 -650 141 141 -891 892 -891 -892 141 -141z"/>
</svg>