<?xml version="1.0" encoding="UTF-8"?>
<!DOCTYPE svg PUBLIC "-//W3C//DTD SVG 1.1//EN" "http://www.w3.org/Graphics/SVG/1.1/DTD/svg11.dtd">
<svg xmlns="http://www.w3.org/2000/svg" xml:space="preserve" width="580px" height="580px" shape-rendering="geometricPrecision" text-rendering="geometricPrecision" image-rendering="optimizeQuality" fill-rule="nonzero" clip-rule="nonzero" viewBox="0 0 5800 5800" xmlns:xlink="http://www.w3.org/1999/xlink">
	<title>spreadsheed_data icon</title>
	<desc>spreadsheed_data icon from the IconExperience.com I-Collection. Copyright by INCORS GmbH (www.incors.com).</desc>
		<path id="curve29"  d="M1300 500l0 1000 -1000 0 0 -1000 1000 0zm4000 1200l0 200 -2483 0 -117 117 0 -117 -1000 0 0 1000 917 0 -117 117 0 83 -800 0 0 1000 800 0 0 200 -800 0 0 1000 800 0 0 83 117 117 -1117 0 0 -3800 3800 0zm-4000 0l0 200 -600 0 0 1000 600 0 0 200 -600 0 0 1000 600 0 0 200 -600 0 0 800 600 0 0 400 -1000 0 0 -3800 1000 0zm200 -1200l3800 0 0 1000 -400 0 0 -600 -800 0 0 600 -200 0 0 -600 -1000 0 0 600 -200 0 0 -600 -1000 0 0 600 -200 0 0 -1000z"/>
	<path id="curve28"  d="M2700 2300l200 -200 2400 0 200 200 0 400 -100 100 -2600 0 -100 -100 0 -400zm0 2600l100 -100 2600 0 100 100 0 400 -200 200 -2400 0 -200 -200 0 -400zm0 -900l100 -100 2600 0 100 100 0 500 -100 100 -2600 0 -100 -100 0 -500zm0 -900l100 -100 2600 0 100 100 0 500 -100 100 -2600 0 -100 -100 0 -500z"/>
</svg>