<?xml version="1.0" encoding="UTF-8"?>
<!DOCTYPE svg PUBLIC "-//W3C//DTD SVG 1.1//EN" "http://www.w3.org/Graphics/SVG/1.1/DTD/svg11.dtd">
<svg xmlns="http://www.w3.org/2000/svg" xml:space="preserve" width="580px" height="580px" shape-rendering="geometricPrecision" text-rendering="geometricPrecision" image-rendering="optimizeQuality" fill-rule="nonzero" clip-rule="nonzero" viewBox="0 0 5800 5800" xmlns:xlink="http://www.w3.org/1999/xlink">
	<title>spreadsheed_sort_descending icon</title>
	<desc>spreadsheed_sort_descending icon from the IconExperience.com I-Collection. Copyright by INCORS GmbH (www.incors.com).</desc>
		<path id="curve29"  d="M1300 5500l-1000 0 0 -3800 1000 0 0 200 -800 0 0 1000 800 0 0 200 -800 0 0 1000 800 0 0 200 -800 0 0 1000 800 0 0 200zm0 -5000l0 1000 -1000 0 0 -1000 1000 0zm400 200l0 800 -200 0 0 -1000 3800 0 0 1000 -200 0 0 -800 -1000 0 0 800 -200 0 0 -800 -1000 0 0 800 -200 0 0 -800 -1000 0zm0 3400l1000 0 0 -1000 -1000 0 0 1000zm1200 0l1000 0 0 -94c72,-18 140,-52 200,-102 0,533 2,1066 2,1596l-2602 0 0 -3800 3800 0 0 993 -200 -200 0 -593 -1000 0 0 593 -200 200 0 -793 -1000 0 0 1000 793 0 -200 200 -593 0 0 1000zm2400 -94l0 1494 -202 0c0,-530 2,-1063 2,-1596 60,50 128,84 200,102zm-1400 294l-1000 0 0 1000 1000 0 0 -1000zm-1200 0l-1000 0 0 1000 1000 0 0 -1000zm-1000 -1400l1000 0 0 -1000 -1000 0 0 1000z"/>
	<path id="curve28"  d="M3709,3450 4600,2559 5491,3450 5350,3591 4700,2941 4700,5500 4500,5500 4500,2941 3850,3591z"/>
</svg>