<?xml version="1.0" encoding="UTF-8"?>
<!DOCTYPE svg PUBLIC "-//W3C//DTD SVG 1.1//EN" "http://www.w3.org/Graphics/SVG/1.1/DTD/svg11.dtd">
<svg xmlns="http://www.w3.org/2000/svg" xml:space="preserve" width="580px" height="580px" shape-rendering="geometricPrecision" text-rendering="geometricPrecision" image-rendering="optimizeQuality" fill-rule="nonzero" clip-rule="nonzero" viewBox="0 0 5800 5800" xmlns:xlink="http://www.w3.org/1999/xlink">
	<title>spreadsheed_chart icon</title>
	<desc>spreadsheed_chart icon from the IconExperience.com I-Collection. Copyright by INCORS GmbH (www.incors.com).</desc>
		<path id="curve29" d="M1300 5500l-1000 0 0 -3800 1000 0 0 200 -800 0 0 1000 800 0 0 200 -800 0 0 1000 800 0 0 200 -800 0 0 1000 800 0 0 200zm0 -5000l0 1000 -1000 0 0 -1000 1000 0zm400 200l0 800 -200 0 0 -1000 3800 0 0 1000 -200 0 0 -800 -1000 0 0 800 -200 0 0 -800 -1000 0 0 800 -200 0 0 -800 -1000 0zm0 3400l400 0 0 200 -400 0 0 1000 400 0 0 200 -600 0 0 -3800 3800 0 0 400 -200 0 0 -200 -1000 0 0 200 -200 0 0 -200 -1000 0 0 200 -200 0 0 -200 -1000 0 0 1000 400 0 0 200 -400 0 0 1000z"/>
	<path id="curve28" d="M5500 2300l0 3200 -3200 0 0 -3200 3200 0zm-200 200l-2800 0 0 2800 2800 0 0 -2800zm-2600 2177l373 -745 699 699 359 -728 341 331 628 -1249 0 444 -572 1137 -339 -329 -361 732 -701 -701 -416 832 -11 0 0 -423z"/>
</svg>