<?xml version="1.0" encoding="UTF-8"?>
<!DOCTYPE svg PUBLIC "-//W3C//DTD SVG 1.1//EN" "http://www.w3.org/Graphics/SVG/1.1/DTD/svg11.dtd">
<svg xmlns="http://www.w3.org/2000/svg" xml:space="preserve" width="580px" height="580px" shape-rendering="geometricPrecision" text-rendering="geometricPrecision" image-rendering="optimizeQuality" fill-rule="nonzero" clip-rule="nonzero" viewBox="0 0 5800 5800" xmlns:xlink="http://www.w3.org/1999/xlink">
	<title>spreadsheed_sum icon</title>
	<desc>spreadsheed_sum icon from the IconExperience.com I-Collection. Copyright by INCORS GmbH (www.incors.com).</desc>
		<path id="curve29"  d="M5500 2300l0 3200 -3200 0 0 -3200 3200 0zm-900 1000l200 0 0 -600 -1800 0 0 441 759 759 -859 859 0 341 2000 0 0 -530 -200 0 0 330 -1600 0 0 -59 941 -941 -841 -841 0 -159 1400 0 0 400z"/>
	<path id="curve28"  d="M1300 500l0 1000 -1000 0 0 -1000 1000 0zm3800 1400l0 200c133,0 67,0 200,0l0 -400 -3800 0 0 3800 600 0 0 -200 -400 0 0 -1000 400 0 0 -200 -400 0 0 -1000 400 0 0 -200 -400 0 0 -1000 1000 0 0 200 200 0 0 -200 1000 0 0 200 200 0 0 -200 1000 0zm-3800 -200l0 200 -600 0 0 1000 600 0 0 200 -600 0 0 1000 600 0 0 200 -600 0 0 800 600 0c0,133 0,267 0,400l-1000 0 0 -3800 1000 0zm200 -1200l3800 0 0 1000c-133,0 -267,0 -400,0l0 -600 -800 0 0 600 -200 0 0 -600 -1000 0 0 600 -200 0 0 -600 -1000 0 0 600 -200 0 0 -1000z"/>
</svg>