<?xml version="1.0" encoding="UTF-8"?>
<!DOCTYPE svg PUBLIC "-//W3C//DTD SVG 1.1//EN" "http://www.w3.org/Graphics/SVG/1.1/DTD/svg11.dtd">
<svg xmlns="http://www.w3.org/2000/svg" xml:space="preserve" width="580px" height="580px" shape-rendering="geometricPrecision" text-rendering="geometricPrecision" image-rendering="optimizeQuality" fill-rule="nonzero" clip-rule="nonzero" viewBox="0 0 5800 5800" xmlns:xlink="http://www.w3.org/1999/xlink">
	<title>spy icon</title>
	<desc>spy icon from the IconExperience.com I-Collection. Copyright by INCORS GmbH (www.incors.com).</desc>
		<path id="curve28"  d="M2039 525c107,-300 1615,-300 1722,0l216 600c723,100 923,200 923,400 0,155 -298,283 -708,371 -6,55 -15,112 -28,169 27,113 20,237 -22,346 -29,79 -77,150 -142,206l0 83c0,193 0,476 -86,852 66,39 134,76 203,114 196,106 397,215 536,350 111,108 196,243 254,389 62,153 93,318 93,475 0,225 -254,370 -605,461 -465,121 -1113,159 -1495,159 -382,0 -1030,-38 -1495,-159 -351,-91 -605,-236 -605,-461 0,-157 31,-322 93,-476 58,-145 143,-280 254,-388 139,-135 340,-244 536,-350 67,-37 134,-74 199,-111 -82,-290 -82,-572 -82,-855l0 -84c-155,-131 -210,-357 -164,-551 -13,-59 -23,-117 -29,-173 -406,-88 -707,-214 -707,-367 0,-200 200,-300 923,-400l216 -600zm1947 1410c-343,58 -734,90 -1086,90 -342,0 -737,-33 -1086,-93 5,36 13,72 22,110 5,19 4,39 -2,56 -40,143 6,331 147,400 27,14 45,37 52,64l28 107 484 242 26 18c101,102 193,229 266,357 28,48 53,97 74,144 25,-46 51,-94 78,-142 87,-152 185,-303 241,-359l25 -18 484 -242 7 -28c9,-36 18,-71 21,-79 8,-30 29,-53 56,-65 63,-33 108,-90 133,-156 29,-78 32,-168 9,-247 -5,-18 -5,-35 -1,-52 0,0 20,-98 22,-107z"/>
</svg>