<?xml version="1.0" encoding="UTF-8"?>
<!DOCTYPE svg PUBLIC "-//W3C//DTD SVG 1.1//EN" "http://www.w3.org/Graphics/SVG/1.1/DTD/svg11.dtd">
<svg xmlns="http://www.w3.org/2000/svg" xml:space="preserve" width="580px" height="580px" shape-rendering="geometricPrecision" text-rendering="geometricPrecision" image-rendering="optimizeQuality" fill-rule="nonzero" clip-rule="nonzero" viewBox="0 0 5800 5800" xmlns:xlink="http://www.w3.org/1999/xlink">
	<title>spy icon</title>
	<desc>spy icon from the IconExperience.com I-Collection. Copyright by INCORS GmbH (www.incors.com).</desc>
		<path id="curve28"  d="M2039 525c107,-300 1615,-300 1722,0l216 600c723,100 923,200 923,400 0,300 -1120,500 -2000,500 -838,0 -2000,-200 -2000,-500 0,-200 200,-300 923,-400l216 -600zm2356 4816c-465,121 -1113,159 -1495,159 -382,0 -1030,-38 -1495,-159 -351,-91 -605,-236 -605,-461 0,-157 31,-322 93,-476 58,-145 143,-280 254,-388 139,-135 340,-244 536,-350 67,-37 134,-74 199,-111 -82,-290 -82,-572 -82,-855l0 -161 745 372 26 18c101,102 193,229 266,357 28,48 53,97 74,144 25,-46 51,-94 78,-142 87,-152 185,-303 241,-359l25 -18 745 -372 0 161c0,193 0,476 -86,852 66,39 134,76 203,114 196,106 397,215 536,350 111,108 196,243 254,389 62,153 93,318 93,475 0,225 -254,370 -605,461zm-2774 -3115c-2,-42 1,-84 8,-124 213,43 433,72 641,92 209,20 420,31 630,31 175,0 351,-7 525,-21 243,-19 500,-49 747,-99 6,40 9,80 7,120l-1013 507 -78 56c-59,60 -122,151 -177,240 -60,-86 -126,-168 -199,-240l-33 -34 -1058 -528z"/>
</svg>