<?xml version="1.0" encoding="UTF-8"?>
<!DOCTYPE svg PUBLIC "-//W3C//DTD SVG 1.1//EN" "http://www.w3.org/Graphics/SVG/1.1/DTD/svg11.dtd">
<svg xmlns="http://www.w3.org/2000/svg" xml:space="preserve" width="580px" height="580px" shape-rendering="geometricPrecision" text-rendering="geometricPrecision" image-rendering="optimizeQuality" fill-rule="nonzero" clip-rule="nonzero" viewBox="0 0 5800 5800" xmlns:xlink="http://www.w3.org/1999/xlink">
	<title>ssd_drive icon</title>
	<desc>ssd_drive icon from the IconExperience.com I-Collection. Copyright by INCORS GmbH (www.incors.com).</desc>
		<path id="curve28"  d="M4500 4700c110,0 200,90 200,200 0,110 -90,200 -200,200 -110,0 -200,-90 -200,-200 0,-110 90,-200 200,-200zm-3400 -4400l3600 0c220,0 400,180 400,400l0 4400c0,220 -180,400 -400,400l-3600 0c-220,0 -400,-180 -400,-400l0 -4400c0,-220 180,-400 400,-400zm3600 200l-3600 0c-110,0 -200,90 -200,200l0 4400c0,110 90,200 200,200l3600 0c110,0 200,-90 200,-200l0 -4400c0,-110 -90,-200 -200,-200zm-1700 800l0 400 300 0 0 -400 200 0 0 400 200 0c220,0 400,180 400,400l0 200 400 0 0 200 -400 0 0 300 400 0 0 200 -400 0 0 300 400 0 0 200 -400 0 0 200c0,220 -180,400 -400,400l-200 0 0 400 -200 0 0 -400 -300 0 0 400 -200 0 0 -400 -300 0 0 400 -200 0 0 -400 0 0 -200 0c-220,0 -400,-180 -400,-400l0 -200 -400 0 0 -200 400 0 0 -300 -400 0 0 -200 400 0 0 -300 -400 0 0 -200 400 0 0 -200c0,-220 180,-400 400,-400l200 0 0 -400 200 0 0 400 300 0 0 -400 200 0zm700 600l-1600 0c-110,0 -200,90 -200,200l0 1600c0,110 90,200 200,200l139 0 117 -234c51,-103 152,-166 268,-166l552 0c116,0 217,63 268,166l117 234 139 0c110,0 200,-90 200,-200l0 -1600c0,-110 -90,-200 -200,-200zm-1239 2000l878 0 -73 -145c-18,-36 -50,-55 -90,-55l-552 0c-40,0 -72,19 -90,55l-73 145zm-1161 -3200c110,0 200,90 200,200 0,110 -90,200 -200,200 -110,0 -200,-90 -200,-200 0,-110 90,-200 200,-200zm3200 0c110,0 200,90 200,200 0,110 -90,200 -200,200 -110,0 -200,-90 -200,-200 0,-110 90,-200 200,-200zm-3200 4000c110,0 200,90 200,200 0,110 -90,200 -200,200 -110,0 -200,-90 -200,-200 0,-110 90,-200 200,-200z"/>
</svg>