<?xml version="1.0" encoding="UTF-8"?>
<!DOCTYPE svg PUBLIC "-//W3C//DTD SVG 1.1//EN" "http://www.w3.org/Graphics/SVG/1.1/DTD/svg11.dtd">
<svg xmlns="http://www.w3.org/2000/svg" xml:space="preserve" width="580px" height="580px" shape-rendering="geometricPrecision" text-rendering="geometricPrecision" image-rendering="optimizeQuality" fill-rule="nonzero" clip-rule="nonzero" viewBox="0 0 5800 5800" xmlns:xlink="http://www.w3.org/1999/xlink">
	<title>standby icon</title>
	<desc>standby icon from the IconExperience.com I-Collection. Copyright by INCORS GmbH (www.incors.com).</desc>
		<path id="curve28"  d="M3300 838c985,190 1700,1056 1700,2062 0,1160 -940,2100 -2100,2100 -1160,0 -2100,-940 -2100,-2100 0,-1006 715,-1872 1700,-2062l0 204c-873,187 -1500,962 -1500,1858 0,1049 851,1900 1900,1900 1049,0 1900,-851 1900,-1900 0,-896 -627,-1671 -1500,-1858l0 -204zm-300 -538l0 2000 -200 0 0 -2000 200 0z"/>
</svg>