<?xml version="1.0" encoding="UTF-8"?>
<!DOCTYPE svg PUBLIC "-//W3C//DTD SVG 1.1//EN" "http://www.w3.org/Graphics/SVG/1.1/DTD/svg11.dtd">
<svg xmlns="http://www.w3.org/2000/svg" xml:space="preserve" width="580px" height="580px" shape-rendering="geometricPrecision" text-rendering="geometricPrecision" image-rendering="optimizeQuality" fill-rule="nonzero" clip-rule="nonzero" viewBox="0 0 5800 5800" xmlns:xlink="http://www.w3.org/1999/xlink">
	<title>stapler icon</title>
	<desc>stapler icon from the IconExperience.com I-Collection. Copyright by INCORS GmbH (www.incors.com).</desc>
		<path id="curve30"  d="M1993 3751l278 278c90,90 270,271 529,271l1200 0 1041 0 359 359 0 441 -4700 0c-220,0 -400,-180 -400,-400l0 -800c182,243 473,400 800,400 390,0 728,-223 893,-549z"/>
	<path id="curve29"  d="M4700 3400l0 600 0 100 -100 0 -600 0 -1200 0c-166,0 -302,-127 -376,-200l2076 0 0 -500 200 0z"/>
	<path id="curve28"  d="M1875 3500c-91,361 -403,600 -775,600 -433,0 -800,-367 -800,-800l0 -1c5,-418 206,-698 491,-883 382,-247 913,-316 1309,-316l2500 0c275,0 500,225 500,500l0 900 -3225 0zm-775 -400c-110,0 -200,90 -200,200 0,110 90,200 200,200 110,0 200,-90 200,-200 0,-110 -90,-200 -200,-200z"/>
</svg>