<?xml version="1.0" encoding="UTF-8"?>
<!DOCTYPE svg PUBLIC "-//W3C//DTD SVG 1.1//EN" "http://www.w3.org/Graphics/SVG/1.1/DTD/svg11.dtd">
<svg xmlns="http://www.w3.org/2000/svg" xml:space="preserve" width="580px" height="580px" shape-rendering="geometricPrecision" text-rendering="geometricPrecision" image-rendering="optimizeQuality" fill-rule="nonzero" clip-rule="nonzero" viewBox="0 0 5800 5800" xmlns:xlink="http://www.w3.org/1999/xlink">
	<title>stapler icon</title>
	<desc>stapler icon from the IconExperience.com I-Collection. Copyright by INCORS GmbH (www.incors.com).</desc>
		<path id="curve28"  d="M1993 3751l278 278c90,90 270,271 529,271l2241 0 359 359 0 441 -4700 0c-220,0 -400,-180 -400,-400l0 -800c57,76 124,143 200,200l0 600c0,110 90,200 200,200l4500 0 0 -159 -241 -241 -2159 0c-341,0 -561,-220 -671,-329l-247 -248c42,-53 80,-111 111,-172zm-1693 -451c5,-419 206,-699 491,-884 382,-247 913,-316 1309,-316l2500 0c275,0 500,225 500,500l0 900 -400 0 0 600 -1900 0c-166,0 -302,-127 -376,-200l2076 0 0 -400 -2625 0c-91,361 -403,600 -775,600 -433,0 -800,-367 -800,-800zm800 -200c110,0 200,90 200,200 0,110 -90,200 -200,200 -110,0 -200,-90 -200,-200 0,-110 90,-200 200,-200zm-600 200c0,323 277,600 600,600 307,0 551,-210 594,-514l12 -86 3194 0 0 -700c0,-165 -135,-300 -300,-300l-2500 0c-368,0 -858,62 -1200,283 -233,151 -397,379 -400,717z"/>
</svg>