<?xml version="1.0" encoding="UTF-8"?>
<!DOCTYPE svg PUBLIC "-//W3C//DTD SVG 1.1//EN" "http://www.w3.org/Graphics/SVG/1.1/DTD/svg11.dtd">
<svg xmlns="http://www.w3.org/2000/svg" xml:space="preserve" width="580px" height="580px" shape-rendering="geometricPrecision" text-rendering="geometricPrecision" image-rendering="optimizeQuality" fill-rule="nonzero" clip-rule="nonzero" viewBox="0 0 5800 5800" xmlns:xlink="http://www.w3.org/1999/xlink">
	<title>star_of_david icon</title>
	<desc>star_of_david icon from the IconExperience.com I-Collection. Copyright by INCORS GmbH (www.incors.com).</desc>
		<path id="curve28"  d="M2900 300c1436,0 2600,1164 2600,2600 0,1436 -1164,2600 -2600,2600 -1436,0 -2600,-1164 -2600,-2600 0,-1436 1164,-2600 2600,-2600zm-691 3800l691 1200 691 -1200 1381 0 -690 -1200 690 -1200 -1381 0 -691 -1200 -691 1200 -1381 0 690 1200 -690 1200 1381 0zm-115 -200l-461 -800 -461 800 922 0zm345 -2200l922 0 -461 -800 -461 800zm1728 1400l-461 800 922 0 -461 -800zm-2995 -1200l461 800 461 -800 -922 0zm576 1000l576 1000 1152 0 576 -1000 -576 -1000 -1152 0 -576 1000zm691 1200l461 800 461 -800 -922 0zm1728 -1400l461 -800 -922 0 461 800z"/>
</svg>