<?xml version="1.0" encoding="UTF-8"?>
<!DOCTYPE svg PUBLIC "-//W3C//DTD SVG 1.1//EN" "http://www.w3.org/Graphics/SVG/1.1/DTD/svg11.dtd">
<svg xmlns="http://www.w3.org/2000/svg" xml:space="preserve" width="580px" height="580px" shape-rendering="geometricPrecision" text-rendering="geometricPrecision" image-rendering="optimizeQuality" fill-rule="nonzero" clip-rule="nonzero" viewBox="0 0 5800 5800" xmlns:xlink="http://www.w3.org/1999/xlink">
	<title>star_of_david icon</title>
	<desc>star_of_david icon from the IconExperience.com I-Collection. Copyright by INCORS GmbH (www.incors.com).</desc>
		<path id="curve28" d="M2153 4308l-1626 0 812 -1405 -812 -1403 1622 0 751 -1299 751 1299 1622 0 -812 1403 812 1405 -1626 0 -747 1291 -747 -1291zm-116 -200l-583 -1006 -581 1006 1164 0zm-1164 -2408l581 1003 580 -1003 -1161 0zm696 1203l698 1205 1266 0 698 -1205 -695 -1203 -1272 0 -695 1203zm814 1405l517 893 517 -893 -1034 0zm-3 -2808l1040 0 -520 -901 -520 901zm2547 200l-1161 0 580 1003 581 -1003zm-581 1402l-583 1006 1164 0 -581 -1006z"/>
</svg>