<?xml version="1.0" encoding="UTF-8"?>
<!DOCTYPE svg PUBLIC "-//W3C//DTD SVG 1.1//EN" "http://www.w3.org/Graphics/SVG/1.1/DTD/svg11.dtd">
<svg xmlns="http://www.w3.org/2000/svg" xml:space="preserve" width="580px" height="580px" shape-rendering="geometricPrecision" text-rendering="geometricPrecision" image-rendering="optimizeQuality" fill-rule="nonzero" clip-rule="nonzero" viewBox="0 0 5800 5800" xmlns:xlink="http://www.w3.org/1999/xlink">
	<title>star_and_crescent icon</title>
	<desc>star_and_crescent icon from the IconExperience.com I-Collection. Copyright by INCORS GmbH (www.incors.com).</desc>
		<path id="curve28"  d="M2700 500c296,0 756,83 1015,225l278 152 -315 35c-1012,112 -1778,970 -1778,1988 0,1018 766,1876 1778,1988l349 38 -317 151c-292,139 -687,223 -1010,223 -1325,0 -2400,-1075 -2400,-2400 0,-1325 1075,-2400 2400,-2400zm1197 1924l559 -783 4 962 920 291 -916 301 8 963 -569 -776 -913 305 562 -782 -572 -774 917 293z"/>
</svg>