<?xml version="1.0" encoding="utf-8"?>
<!-- Generator: Adobe Illustrator 19.2.1, SVG Export Plug-In . SVG Version: 6.00 Build 0)  -->
<svg version="1.1" id="static_x5F_label_x5F_gi" xmlns="http://www.w3.org/2000/svg" xmlns:xlink="http://www.w3.org/1999/xlink"
	 x="0px" y="0px" width="580px" height="580px" viewBox="0 0 580 580" style="enable-background:new 0 0 580 580;"
	 xml:space="preserve">
<title>address_book2 icon</title>
<desc>address_book2 icon from the IconExperience.com I-Collection. Copyright by INCORS GmbH (www.incors.com).</desc>
<title>address_book2 icon</title>
<desc>address_book2 icon from the IconExperience.com I-Collection. Copyright by INCORS GmbH (www.incors.com).</desc>
<title>address_book2 icon</title>
<desc>address_book2 icon from the IconExperience.com I-Collection. Copyright by INCORS GmbH (www.incors.com).</desc>
<path d="M331.9,83.6c6,0,11.2,4.2,12.5,9.9l78.5,244.1c2.1,6.2,3.9,11.6,5.5,16.9c9.4,27.7,16.1,47.5,16.1,81.8v59.1h-25.7v-59.1
	c0-17.4-2.1-30.8-5.4-43.9H165c-2.4,12.7-3.6,26.1-3.6,43.9v59.1h-25.7v-59.1c0-20.1,1.4-35.5,4.5-50.8c3.1-15.1,7.7-29.6,14-48.1
	l84.7-245c1.8-5.4,6.8-8.8,12.1-8.8H331.9 M171.6,366.7h233.9l-1.4-4.1c-1.8-5.4-3.7-11.1-5.7-17.1l-75.9-236.1h-62.4l-81.6,236.4
	C175.8,353.3,173.5,360.2,171.6,366.7 M331.9,63.6H251c-14.1,0-26.5,9-31,22.3l-84.6,244.9l0,0l0,0c-6.9,20.2-11.5,35-14.7,50.6l0,0
	l0,0c-3.4,16.8-4.9,33.7-4.9,54.8v59.1v20h20h25.7h20v-20v-59.1c0-8.9,0.3-16.7,1-23.9h214.7c1.2,7.6,1.7,15.3,1.7,23.9v59.1v20h20
	h25.7h20v-20v-59.1c0-37.7-7.5-60-17.1-88.1c-1.7-5.3-3.5-10.7-5.5-16.8L363.6,88c-1.8-6.7-5.7-12.8-11.2-17.2
	C346.6,66.1,339.3,63.6,331.9,63.6L331.9,63.6z M274.4,129.3h33.6l69.9,217.4H199.3L274.4,129.3L274.4,129.3z"/>
</svg>
