<?xml version="1.0" encoding="UTF-8"?>
<!DOCTYPE svg PUBLIC "-//W3C//DTD SVG 1.1//EN" "http://www.w3.org/Graphics/SVG/1.1/DTD/svg11.dtd">
<svg xmlns="http://www.w3.org/2000/svg" xml:space="preserve" width="580px" height="580px" shape-rendering="geometricPrecision" text-rendering="geometricPrecision" image-rendering="optimizeQuality" fill-rule="nonzero" clip-rule="nonzero" viewBox="0 0 5800 5800" xmlns:xlink="http://www.w3.org/1999/xlink">
	<title>steering_wheel icon</title>
	<desc>steering_wheel icon from the IconExperience.com I-Collection. Copyright by INCORS GmbH (www.incors.com).</desc>
		<path id="curve28"  d="M2900 1100c-994,0 -1800,806 -1800,1800 0,994 806,1800 1800,1800 994,0 1800,-806 1800,-1800 0,-994 -806,-1800 -1800,-1800zm500 2900l0 420c-157,52 -325,80 -500,80 -175,0 -343,-28 -500,-80l0 -420c0,-497 -403,-900 -900,-900l-188 0c-8,-66 -12,-132 -12,-200 0,-291 78,-565 214,-800l2772 0c136,235 214,509 214,800 0,68 -4,134 -12,200l-188 0c-497,0 -900,403 -900,900zm-500 -1400c-166,0 -300,134 -300,300 0,166 134,300 300,300 166,0 300,-134 300,-300 0,-166 -134,-300 -300,-300zm0 -2300c1436,0 2600,1164 2600,2600 0,1436 -1164,2600 -2600,2600 -1436,0 -2600,-1164 -2600,-2600 0,-1436 1164,-2600 2600,-2600z"/>
</svg>