<?xml version="1.0" encoding="UTF-8"?>
<!DOCTYPE svg PUBLIC "-//W3C//DTD SVG 1.1//EN" "http://www.w3.org/Graphics/SVG/1.1/DTD/svg11.dtd">
<svg xmlns="http://www.w3.org/2000/svg" xml:space="preserve" width="580px" height="580px" shape-rendering="geometricPrecision" text-rendering="geometricPrecision" image-rendering="optimizeQuality" fill-rule="nonzero" clip-rule="nonzero" viewBox="0 0 5800 5800" xmlns:xlink="http://www.w3.org/1999/xlink">
	<title>steering_wheel icon</title>
	<desc>steering_wheel icon from the IconExperience.com I-Collection. Copyright by INCORS GmbH (www.incors.com).</desc>
		<path id="curve28"  d="M2900 2500c220,0 400,180 400,400 0,220 -180,400 -400,400 -220,0 -400,-180 -400,-400 0,-220 180,-400 400,-400zm0 -1600c1105,0 2000,895 2000,2000 0,1105 -895,2000 -2000,2000 -1105,0 -2000,-895 -2000,-2000 0,-1105 895,-2000 2000,-2000zm0 200c-686,0 -1309,389 -1613,1000l3226 0c-304,-611 -927,-1000 -1613,-1000zm-1698 1200c-66,188 -102,390 -102,600l400 0c608,0 1100,492 1100,1100l0 675c98,16 198,25 300,25 102,0 202,-9 300,-25l0 -675c0,-607 493,-1100 1100,-1100l400 0 0 0c0,-210 -36,-412 -102,-600l-3396 0zm-91 800c80,723 592,1328 1289,1530l0 -630c0,-497 -403,-900 -900,-900l-389 0zm2289 1530c697,-202 1209,-807 1289,-1530l-389 0c-497,0 -900,403 -900,900l0 630zm-500 -4330c1436,0 2600,1164 2600,2600 0,1436 -1164,2600 -2600,2600 -1436,0 -2600,-1164 -2600,-2600 0,-1436 1164,-2600 2600,-2600zm0 200c-1326,0 -2400,1074 -2400,2400 0,1326 1074,2400 2400,2400 1326,0 2400,-1074 2400,-2400 0,-1326 -1074,-2400 -2400,-2400zm0 2200c-111,0 -200,89 -200,200 0,111 89,200 200,200 111,0 200,-89 200,-200 0,-111 -89,-200 -200,-200z"/>
</svg>