<?xml version="1.0" encoding="UTF-8"?>
<!DOCTYPE svg PUBLIC "-//W3C//DTD SVG 1.1//EN" "http://www.w3.org/Graphics/SVG/1.1/DTD/svg11.dtd">
<svg xmlns="http://www.w3.org/2000/svg" xml:space="preserve" width="580px" height="580px" shape-rendering="geometricPrecision" text-rendering="geometricPrecision" image-rendering="optimizeQuality" fill-rule="nonzero" clip-rule="nonzero" viewBox="0 0 5800 5800" xmlns:xlink="http://www.w3.org/1999/xlink">
	<title>step icon</title>
	<desc>step icon from the IconExperience.com I-Collection. Copyright by INCORS GmbH (www.incors.com).</desc>
		<path id="curve28"  d="M4997 1728c-19,295 -71,542 -149,779 -77,237 -180,461 -303,714l-37 77 -1268 -397 17 -88c66,-336 55,-464 26,-778l-6 -74c-23,-247 -22,-493 41,-719 64,-234 193,-444 427,-611 142,-100 285,-139 421,-130 117,8 226,50 326,118 95,64 181,152 254,254 170,240 271,564 251,855zm-339 718c73,-223 122,-455 140,-731 17,-247 -69,-522 -214,-726 -60,-83 -129,-154 -204,-205 -71,-48 -148,-78 -227,-83 -92,-7 -191,21 -292,93 -192,137 -298,309 -351,501 -55,199 -55,422 -35,649l7 73c27,307 40,448 -12,747l933 292c103,-215 190,-410 255,-610zm-1325 763l1109 360c-12,65 -22,128 -42,191 -45,149 -133,309 -258,425 -133,122 -306,195 -518,156 -45,-8 -90,-22 -133,-39 -393,-155 -429,-570 -320,-927 21,-66 47,-130 73,-195l89 29zm876 495l-846 -275 -1 4c-76,250 -84,571 202,684 31,12 64,22 96,28 140,25 257,-24 347,-107 97,-90 166,-216 202,-334zm-3205 -993c18,276 66,508 139,730 66,200 152,396 256,611l933 -293c-52,-298 -40,-439 -12,-746l7 -74c20,-226 20,-449 -35,-648 -53,-192 -159,-365 -351,-501 -101,-72 -200,-100 -293,-94 -179,13 -330,149 -430,289 -145,204 -231,479 -214,726zm-50 792c-78,-238 -130,-484 -150,-779 -19,-291 81,-616 252,-855 136,-192 336,-355 579,-372 137,-9 280,29 422,130 233,167 362,377 427,611 63,226 63,471 41,719 -29,328 -46,520 19,852l18 88 -1268 397c-126,-259 -251,-517 -340,-791zm1485 922l-846 275c36,118 104,244 202,334 90,83 206,132 346,107 33,-6 66,-16 96,-28 133,-53 204,-150 232,-265 31,-127 14,-277 -29,-419l-1 -4zm-996 113l1026 -333 89 -29c26,65 52,128 72,195 53,173 73,360 33,524 -43,175 -151,323 -352,403 -43,17 -88,30 -134,39 -211,38 -385,-34 -518,-157 -125,-115 -212,-276 -257,-424 -20,-64 -30,-126 -42,-191l83 -27z"/>
</svg>