<?xml version="1.0" encoding="UTF-8"?>
<!DOCTYPE svg PUBLIC "-//W3C//DTD SVG 1.1//EN" "http://www.w3.org/Graphics/SVG/1.1/DTD/svg11.dtd">
<svg xmlns="http://www.w3.org/2000/svg" xml:space="preserve" width="580px" height="580px" shape-rendering="geometricPrecision" text-rendering="geometricPrecision" image-rendering="optimizeQuality" fill-rule="nonzero" clip-rule="nonzero" viewBox="0 0 5800 5800" xmlns:xlink="http://www.w3.org/1999/xlink">
	<title>stethoscope icon</title>
	<desc>stethoscope icon from the IconExperience.com I-Collection. Copyright by INCORS GmbH (www.incors.com).</desc>
	<path id="curve0"  d="M4800 1200c110,0 200,90 200,200 0,110 -90,200 -200,200 -110,0 -200,-90 -200,-200 0,-110 90,-200 200,-200zm-3300 2600c0,-238 -119,-327 -242,-419 -176,-131 -358,-267 -358,-681l0 -200c0,-132 -54,-241 -160,-320 -277,-208 -440,-534 -440,-880 0,-291 116,-572 322,-778 103,-102 235,-171 378,-195l0 -77c0,-55 45,-100 100,-100 110,0 200,90 200,200l0 100c0,110 -90,200 -200,200 -55,0 -100,-45 -100,-100l0 -19c-90,21 -171,67 -236,133 -171,170 -264,395 -264,636 0,285 132,549 360,720 154,116 240,287 240,480l0 200c0,313 141,419 277,520 82,62 163,122 223,209 60,-87 141,-147 223,-209 136,-101 277,-207 277,-520l0 -200c0,-194 85,-363 240,-480 228,-171 360,-435 360,-720 0,-241 -93,-466 -264,-636 -65,-66 -146,-112 -236,-133l0 19c0,55 -45,100 -100,100 -110,0 -200,-90 -200,-200l0 -100c0,-110 90,-200 200,-200 55,0 100,45 100,100l0 77c143,24 275,93 378,195 206,206 322,487 322,778 0,346 -163,672 -440,880 -105,79 -160,189 -160,320l0 200c0,414 -182,550 -358,681 -123,92 -242,181 -242,419 0,828 672,1500 1500,1500 828,0 1500,-672 1500,-1500l0 -1707c-344,-49 -600,-345 -600,-693 0,-387 313,-700 700,-700 387,0 700,313 700,700 0,348 -256,644 -600,693l0 1707c0,939 -761,1700 -1700,1700 -939,0 -1700,-761 -1700,-1700zm3300 -2900c-276,0 -500,224 -500,500 0,276 224,500 500,500 276,0 500,-224 500,-500 0,-276 -224,-500 -500,-500z"/>
</svg>