<?xml version="1.0" encoding="UTF-8"?>
<!DOCTYPE svg PUBLIC "-//W3C//DTD SVG 1.1//EN" "http://www.w3.org/Graphics/SVG/1.1/DTD/svg11.dtd">
<svg xmlns="http://www.w3.org/2000/svg" xml:space="preserve" width="580px" height="580px" shape-rendering="geometricPrecision" text-rendering="geometricPrecision" image-rendering="optimizeQuality" fill-rule="nonzero" clip-rule="nonzero" viewBox="0 0 5800 5800" xmlns:xlink="http://www.w3.org/1999/xlink">
	<title>stethoscope icon</title>
	<desc>stethoscope icon from the IconExperience.com I-Collection. Copyright by INCORS GmbH (www.incors.com).</desc>
	<path id="curve0"  d="M4800 1200c-110,0 -200,90 -200,200 0,110 90,200 200,200 110,0 200,-90 200,-200 0,-110 -90,-200 -200,-200zm-3400 2702c0,-189 -99,-263 -202,-340 -195,-145 -398,-297 -398,-760l0 -200c0,-101 -39,-180 -119,-241 -149,-111 -270,-256 -354,-424 -81,-162 -127,-344 -127,-535 0,-434 261,-928 700,-1053 1,-110 90,-199 200,-199 164,0 300,136 300,300l0 100c0,164 -136,300 -300,300 -69,0 -130,-35 -166,-88 -212,110 -334,411 -334,640 0,129 30,251 83,357 56,112 137,209 237,283 179,135 280,335 280,560l0 200c0,263 121,353 237,440 57,42 113,84 163,133 50,-49 106,-91 163,-133 116,-87 237,-177 237,-440l0 -200c0,-226 101,-425 280,-560 100,-74 181,-171 237,-283 53,-106 83,-228 83,-357 0,-232 -123,-530 -334,-640 -36,53 -97,88 -166,88 -165,0 -300,-135 -300,-300l0 -100c0,-165 135,-300 300,-300 110,0 199,89 200,199 439,125 700,617 700,1053 0,191 -46,373 -127,535 -84,168 -205,313 -354,424 -80,60 -119,141 -119,241l0 200c0,463 -203,615 -398,760 -96,72 -188,141 -201,302 34,747 651,1336 1399,1336 773,0 1400,-627 1400,-1400l0 -1729c-292,-87 -500,-358 -500,-671 0,-387 313,-700 700,-700 387,0 700,313 700,700 0,313 -208,584 -500,671l0 1729c0,994 -806,1800 -1800,1800 -935,0 -1716,-717 -1794,-1648l0 0 0 -1 -1 -4 0 0 0 0 -1 -5 -1 -5 0 0 -1 -4 0 -1 0 0 0 -1 0 -1 0 -1 0 -1 0 -1 0 0 0 -1 -1 0 0 -3 0 -1 0 0 0 0 0 -1 0 -2 0 -1 0 -1 0 0 0 -1 -1 -1 0 0 0 -1 0 -1 0 -1 0 0 0 -1 0 -4 0 0 0 -1 0 -3 0 -1 0 0z"/>
</svg>