<?xml version="1.0" encoding="UTF-8"?>
<!DOCTYPE svg PUBLIC "-//W3C//DTD SVG 1.1//EN" "http://www.w3.org/Graphics/SVG/1.1/DTD/svg11.dtd">
<svg xmlns="http://www.w3.org/2000/svg" xml:space="preserve" width="580px" height="580px" shape-rendering="geometricPrecision" text-rendering="geometricPrecision" image-rendering="optimizeQuality" fill-rule="nonzero" clip-rule="nonzero" viewBox="0 0 5800 5800" xmlns:xlink="http://www.w3.org/1999/xlink">
	<title>sticky_note_text icon</title>
	<desc>sticky_note_text icon from the IconExperience.com I-Collection. Copyright by INCORS GmbH (www.incors.com).</desc>
		<path id="curve28"  d="M1593 500c135,0 165,3 292,75l3165 1578c-55,19 -109,51 -156,98l-794 798 -2549 -2549 42 0zm-493 4000l0 200 3600 0 0 -200 -3600 0zm0 -800l0 200 3600 0 0 -200 -3600 0zm4200 -1176l0 2776 -4800 0 0 -4800 639 0c98,8 177,47 245,116l685 684 -969 0 0 200 1169 0 600 600 -1769 0 0 200 1969 0 600 600 -2569 0 0 200 2769 0 231 231 230 -231 370 0 0 -200 -171 0 507 -508c30,-31 65,-49 101,-56 141,-28 163,66 163,188z"/>
</svg>