<?xml version="1.0" encoding="UTF-8"?>
<!DOCTYPE svg PUBLIC "-//W3C//DTD SVG 1.1//EN" "http://www.w3.org/Graphics/SVG/1.1/DTD/svg11.dtd">
<svg xmlns="http://www.w3.org/2000/svg" xml:space="preserve" width="580px" height="580px" shape-rendering="geometricPrecision" text-rendering="geometricPrecision" image-rendering="optimizeQuality" fill-rule="nonzero" clip-rule="nonzero" viewBox="0 0 5800 5800" xmlns:xlink="http://www.w3.org/1999/xlink">
	<title>sticky_note icon</title>
	<desc>sticky_note icon from the IconExperience.com I-Collection. Copyright by INCORS GmbH (www.incors.com).</desc>
		<path id="curve28"  d="M4678 2191l-2285 -1139 1707 1707 517 -518c20,-19 40,-36 61,-50zm-2879 -1436c-75,-37 -118,-55 -206,-55l-893 0 0 4400 4400 0 0 -2576c0,-179 -215,-268 -341,-141l-659 658 -2224 -2224c-32,-26 -70,-57 -77,-62zm86 -180l3174 1583c148,64 241,205 241,366l0 2776 -4800 0 0 -4800 1093 0c102,0 203,25 292,75z"/>
</svg>