<?xml version="1.0" encoding="UTF-8"?>
<!DOCTYPE svg PUBLIC "-//W3C//DTD SVG 1.1//EN" "http://www.w3.org/Graphics/SVG/1.1/DTD/svg11.dtd">
<svg xmlns="http://www.w3.org/2000/svg" xml:space="preserve" width="580px" height="580px" shape-rendering="geometricPrecision" text-rendering="geometricPrecision" image-rendering="optimizeQuality" fill-rule="nonzero" clip-rule="nonzero" viewBox="0 0 5800 5800" xmlns:xlink="http://www.w3.org/1999/xlink">
	<title>stockbroker2 icon</title>
	<desc>stockbroker2 icon from the IconExperience.com I-Collection. Copyright by INCORS GmbH (www.incors.com).</desc>
		<path id="curve28"  d="M1784 1400l16 0 0 -433c0,-1023 2200,-1022 2200,0l0 433 16 0c485,0 478,379 161,477l-77 -77 -2400 0 -77 77c-317,-98 -324,-477 161,-477zm2326 510c-4,114 -21,237 -52,367 47,199 -20,428 -197,542 -50,187 -93,379 -225,530 -2,54 -8,109 -11,163 -8,109 -8,219 49,254 112,60 164,85 286,121 113,34 239,77 346,125 100,38 208,86 278,155 208,203 316,513 316,796 0,206 -459,346 -639,392 -423,111 -1014,145 -1361,145 -347,0 -938,-34 -1361,-145 -180,-46 -639,-186 -639,-392 0,-283 108,-593 316,-796 70,-69 178,-116 278,-155 107,-48 233,-91 346,-125 115,-34 178,-59 283,-119 61,-35 60,-157 52,-274 -1,-13 -10,-144 -10,-145 -131,-149 -176,-344 -226,-530 -176,-114 -243,-344 -197,-542 -28,-116 -49,-239 -58,-361l16 -16 2400 0 10 10zm-640 1926c-91,77 -204,128 -319,156l123 165 253 -252c-24,-21 -42,-44 -57,-69zm-820 156c-117,-29 -230,-80 -321,-158 -15,26 -33,50 -56,71l253 252 124 -165zm-167 1295c50,3 98,5 145,7 2,-275 21,-665 181,-985l-85 -85 -177 237 -397 -397c167,358 290,924 333,1223zm833 0c42,-300 163,-867 331,-1220l-394 394 -175 -233c-33,31 -67,61 -87,81 160,320 179,710 181,985 47,-2 95,-4 144,-7z"/>
</svg>