<?xml version="1.0" encoding="UTF-8"?>
<!DOCTYPE svg PUBLIC "-//W3C//DTD SVG 1.1//EN" "http://www.w3.org/Graphics/SVG/1.1/DTD/svg11.dtd">
<svg xmlns="http://www.w3.org/2000/svg" xml:space="preserve" width="580px" height="580px" shape-rendering="geometricPrecision" text-rendering="geometricPrecision" image-rendering="optimizeQuality" fill-rule="nonzero" clip-rule="nonzero" viewBox="0 0 5800 5800" xmlns:xlink="http://www.w3.org/1999/xlink">
	<title>stock_ticker icon</title>
	<desc>stock_ticker icon from the IconExperience.com I-Collection. Copyright by INCORS GmbH (www.incors.com).</desc>
		<path id="curve28"  d="M900 4100l0 -2000c0,-994 806,-1800 1800,-1800 994,0 1800,806 1800,1800l0 2000 -200 0 0 -2000c0,-884 -716,-1600 -1600,-1600 -884,0 -1600,716 -1600,1600l0 2000 -200 0zm3800 200l100 0c276,0 500,-224 500,-500l200 0c0,387 -313,700 -700,700l-100 0 0 -200zm-2000 -3500c718,0 1300,582 1300,1300 0,492 -277,940 -714,1161 78,35 149,84 209,144 127,127 205,302 205,495 0,32 8,61 23,89l-175 95c-31,-56 -48,-120 -48,-184 0,-138 -56,-263 -146,-354 -91,-90 -216,-146 -354,-146l-300 0c-221,0 -428,-55 -610,-152 21,-46 44,-90 69,-134 137,-240 321,-449 540,-614 109,1 211,-40 288,-117 72,-73 117,-173 117,-283 0,-220 -180,-400 -400,-400 -200,0 -369,148 -396,345 -277,214 -506,482 -680,791 -144,-210 -228,-463 -228,-736 0,-718 582,-1300 1300,-1300zm-1200 3300c0,-430 113,-834 312,-1184 174,-305 412,-569 697,-771 -3,-15 -5,-30 -5,-45 0,-111 89,-200 200,-200 111,0 200,89 200,200 0,110 -90,200 -200,200 -20,0 -40,-3 -58,-8 -270,188 -497,435 -661,723 -181,320 -285,690 -285,1085l-200 0zm3000 510c231,48 400,253 400,490l0 400 -4400 0 0 -400c0,-237 169,-443 400,-490l0 -310 3600 0 0 310z"/>
</svg>