<?xml version="1.0" encoding="UTF-8"?>
<!DOCTYPE svg PUBLIC "-//W3C//DTD SVG 1.1//EN" "http://www.w3.org/Graphics/SVG/1.1/DTD/svg11.dtd">
<svg xmlns="http://www.w3.org/2000/svg" xml:space="preserve" width="580px" height="580px" shape-rendering="geometricPrecision" text-rendering="geometricPrecision" image-rendering="optimizeQuality" fill-rule="nonzero" clip-rule="nonzero" viewBox="0 0 5800 5800" xmlns:xlink="http://www.w3.org/1999/xlink">
	<title>stockbroker2 icon</title>
	<desc>stockbroker2 icon from the IconExperience.com I-Collection. Copyright by INCORS GmbH (www.incors.com).</desc>
		<path id="curve28"  d="M3172 5294c47,-2 95,-4 144,-7 42,-300 163,-867 331,-1220l-394 394 -175 -233c-33,31 -67,61 -87,81 160,320 179,710 181,985zm-1388 -3894l16 0 0 -433c0,-1023 2200,-1022 2200,0l0 433 16 0c517,0 475,430 95,492 -3,120 -21,248 -53,385 24,104 18,218 -20,318 -34,90 -93,170 -177,224 -3,13 -5,22 -8,30 -45,173 -92,358 -217,500 -2,55 -8,108 -11,163 -6,75 -20,211 55,258 104,65 185,89 280,117 63,19 124,39 186,62 50,18 105,38 160,63 100,38 208,86 278,155 208,203 316,513 316,796 0,127 -150,225 -372,300 -78,36 -168,67 -267,92 -423,111 -1014,145 -1361,145 -347,0 -938,-34 -1361,-145 -99,-25 -189,-56 -267,-92 -222,-75 -372,-173 -372,-300 0,-283 108,-593 316,-796 70,-69 178,-116 278,-155 55,-24 110,-45 160,-63 62,-23 123,-43 186,-62 115,-34 178,-59 283,-119 61,-35 60,-157 52,-274 -4,-48 -8,-96 -10,-145 -116,-115 -179,-351 -220,-506 -1,-6 -2,-10 -6,-24 -84,-54 -142,-134 -176,-224 -38,-100 -45,-214 -21,-318 -30,-124 -52,-256 -60,-386 -373,-66 -412,-491 102,-491zm1682 1838c108,-107 153,-278 194,-439 9,-34 18,-67 19,-72 8,-30 29,-54 56,-66 56,-28 94,-78 116,-136 26,-69 29,-149 9,-219 -6,-18 -6,-35 -2,-52 37,-147 60,-302 52,-454l-2032 0c1,16 1,33 2,49 6,135 29,274 62,405 4,19 3,39 -3,56 -19,69 -16,147 10,215 23,59 62,110 120,138 26,13 45,37 52,64 0,0 16,62 17,66 43,165 89,340 196,445 19,19 29,45 29,71 1,0 9,143 10,158 3,40 5,81 5,122 40,68 103,121 179,159 100,50 220,75 342,75 121,0 241,-25 342,-74 76,-39 140,-91 180,-158 1,-40 3,-80 6,-119 4,-51 10,-102 10,-152l0 0 0 -2 0 0 0 -2 0 0 0 -1 0 0 0 -2 0 0 0 -2 0 0c-1,-28 11,-54 29,-73zm4 598c-42,35 -89,66 -140,91 -56,28 -116,50 -179,65l123 165 253 -252c-24,-21 -42,-44 -57,-69zm-820 156c-64,-16 -125,-38 -182,-66 -51,-26 -98,-56 -139,-92 -15,26 -33,50 -56,71l253 252 124 -165zm-167 1295c50,3 98,5 145,7 2,-275 21,-665 181,-985l-85 -85 -177 237 -397 -397c167,358 290,924 333,1223z"/>
</svg>