<?xml version="1.0" encoding="UTF-8"?>
<!DOCTYPE svg PUBLIC "-//W3C//DTD SVG 1.1//EN" "http://www.w3.org/Graphics/SVG/1.1/DTD/svg11.dtd">
<svg xmlns="http://www.w3.org/2000/svg" xml:space="preserve" width="580px" height="580px" shape-rendering="geometricPrecision" text-rendering="geometricPrecision" image-rendering="optimizeQuality" fill-rule="nonzero" clip-rule="nonzero" viewBox="0 0 5800 5800" xmlns:xlink="http://www.w3.org/1999/xlink">
	<title>stock_ticker icon</title>
	<desc>stock_ticker icon from the IconExperience.com I-Collection. Copyright by INCORS GmbH (www.incors.com).</desc>
		<path id="curve28"  d="M4700 4300l100 0c276,0 500,-224 500,-500l200 0c0,387 -313,700 -700,700l-100 0 0 -200zm-3800 -200l0 -2000c0,-994 806,-1800 1800,-1800 994,0 1800,806 1800,1800l0 2000 -200 0 0 -2000c0,-884 -716,-1600 -1600,-1600 -884,0 -1600,716 -1600,1600l0 2000 -200 0zm1800 -3300c718,0 1300,582 1300,1300 0,492 -277,940 -714,1161 78,35 149,84 209,144 127,127 205,302 205,495 0,32 8,61 23,89l-175 95c-31,-56 -48,-120 -48,-184 0,-276 -224,-500 -500,-500l-300 0c-221,0 -428,-55 -610,-152 21,-46 44,-90 69,-134 8,-15 17,-28 25,-42 154,82 329,128 516,128 608,0 1100,-492 1100,-1100 0,-608 -492,-1100 -1100,-1100 -608,0 -1100,492 -1100,1100 0,199 53,385 145,546 -42,62 -80,125 -117,190 -144,-210 -228,-463 -228,-736 0,-718 582,-1300 1300,-1300zm1800 3810c98,20 185,69 253,137 91,90 147,215 147,353l0 400 -4400 0 0 -400c0,-237 169,-443 400,-490l0 -310c1200,0 2400,0 3600,0l0 310zm112 278c-55,-54 -130,-88 -212,-88l-100 0 0 -300 -3200 0 0 300 -100 0c-165,0 -300,135 -300,300l0 200 4000 0 0 -200c0,-82 -34,-157 -88,-212zm-1908 -3188c220,0 400,180 400,400 0,221 -179,400 -400,400 -87,0 -167,-27 -232,-74 -491,419 -772,1027 -772,1674l-200 0c0,-705 308,-1370 843,-1826 -25,-53 -39,-112 -39,-174 0,-220 179,-400 400,-400z"/>
</svg>