<?xml version="1.0" encoding="UTF-8"?>
<!DOCTYPE svg PUBLIC "-//W3C//DTD SVG 1.1//EN" "http://www.w3.org/Graphics/SVG/1.1/DTD/svg11.dtd">
<svg xmlns="http://www.w3.org/2000/svg" xml:space="preserve" width="580px" height="580px" shape-rendering="geometricPrecision" text-rendering="geometricPrecision" image-rendering="optimizeQuality" fill-rule="nonzero" clip-rule="nonzero" viewBox="0 0 5800 5800" xmlns:xlink="http://www.w3.org/1999/xlink">
	<title>stockbroker icon</title>
	<desc>stockbroker icon from the IconExperience.com I-Collection. Copyright by INCORS GmbH (www.incors.com).</desc>
		<path id="curve28"  d="M4300 4039l0 1121c120,-29 500,-125 500,-280 0,-355 -154,-703 -500,-841zm-200 1162l0 -1235c-130,-42 -252,-71 -376,-137l-427 534 -193 -259c-40,37 -80,72 -104,96 178,356 198,791 200,1093 277,-11 607,-39 900,-92zm-2400 -1235l0 1235c293,53 623,81 900,92 2,-302 22,-737 200,-1093l-100 -100 -197 263 -427 -534c-124,66 -246,95 -376,137zm-200 1194l0 -1121c-346,138 -500,486 -500,841 0,155 380,250 500,280zm1659 -1314l144 191 260 -324c-13,-16 -24,-32 -33,-49 -104,91 -236,150 -371,182zm-922 -134l260 325 144 -191c-135,-32 -268,-91 -373,-184 -9,18 -19,34 -31,50zm-601 -1747c-19,-81 -35,-165 -47,-249 -36,-250 -33,-507 48,-721 106,-283 324,-438 617,-489 177,-155 482,-221 789,-200 567,38 1026,332 1150,906 47,217 39,465 -29,753 51,216 -21,467 -215,589 -55,207 -103,421 -249,586 -1,40 -5,81 -8,124 -12,141 -24,299 55,348 117,62 184,94 316,134 182,54 459,143 590,270 225,219 347,553 347,864 0,225 -254,370 -605,461 -465,121 -1113,159 -1495,159 -382,0 -1030,-38 -1495,-159 -351,-91 -605,-236 -605,-461 0,-311 122,-645 347,-864 133,-129 407,-215 590,-270 125,-38 202,-69 313,-133 83,-47 69,-223 58,-370 -3,-36 -6,-71 -7,-103 -137,-154 -191,-360 -242,-556 -1,-6 -3,-14 -8,-30 -193,-122 -266,-374 -215,-589z"/>
</svg>