<?xml version="1.0" encoding="UTF-8"?>
<!DOCTYPE svg PUBLIC "-//W3C//DTD SVG 1.1//EN" "http://www.w3.org/Graphics/SVG/1.1/DTD/svg11.dtd">
<svg xmlns="http://www.w3.org/2000/svg" xml:space="preserve" width="580px" height="580px" shape-rendering="geometricPrecision" text-rendering="geometricPrecision" image-rendering="optimizeQuality" fill-rule="nonzero" clip-rule="nonzero" viewBox="0 0 5800 5800" xmlns:xlink="http://www.w3.org/1999/xlink">
	<title>stopwatch2 icon</title>
	<desc>stopwatch2 icon from the IconExperience.com I-Collection. Copyright by INCORS GmbH (www.incors.com).</desc>
		<path id="curve28" d="M3133 3291l969 970 -141 141 -970 -969c-28,11 -59,17 -91,17 -138,0 -250,-113 -250,-250 0,-138 112,-250 250,-250 138,0 250,112 250,250 0,32 -6,63 -17,91zm-233 -1691c884,0 1600,716 1600,1600 0,321 -96,634 -277,899l-144 -144c145,-226 221,-486 221,-755 0,-773 -627,-1400 -1400,-1400l0 -200zm400 -462c305,59 593,186 843,370l305 -305 424 424 -301 301c279,367 429,811 429,1272 0,1160 -940,2100 -2100,2100 -1160,0 -2100,-940 -2100,-2100 0,-1004 714,-1872 1700,-2062l0 -238 -400 0c0,-200 0,-400 0,-600l1600 0 0 600 -400 0 0 238zm-115 183l-85 -13 0 -608 400 0 0 -200 -1200 0 0 200 400 0 0 608 -85 13c-929,140 -1615,941 -1615,1879 0,1049 851,1900 1900,1900 1049,0 1900,-851 1900,-1900 0,-446 -154,-873 -439,-1216l-59 -70 288 -287 -142 -142 -289 289c-303,-243 -583,-394 -974,-453z"/>
</svg>