<?xml version="1.0" encoding="UTF-8"?>
<!DOCTYPE svg PUBLIC "-//W3C//DTD SVG 1.1//EN" "http://www.w3.org/Graphics/SVG/1.1/DTD/svg11.dtd">
<svg xmlns="http://www.w3.org/2000/svg" xml:space="preserve" width="580px" height="580px" shape-rendering="geometricPrecision" text-rendering="geometricPrecision" image-rendering="optimizeQuality" fill-rule="nonzero" clip-rule="nonzero" viewBox="0 0 5800 5800" xmlns:xlink="http://www.w3.org/1999/xlink">
	<title>stopwatch2 icon</title>
	<desc>stopwatch2 icon from the IconExperience.com I-Collection. Copyright by INCORS GmbH (www.incors.com).</desc>
		<path id="curve28"  d="M3300 1138c305,59 593,186 843,370l305 -305c142,141 283,282 424,424l-301 301c279,367 429,811 429,1272 0,1160 -940,2100 -2100,2100 -1160,0 -2100,-940 -2100,-2100 0,-1004 714,-1872 1700,-2062l0 -238 -400 0c0,-200 0,-400 0,-600l1600 0 0 600 -400 0 0 238zm-400 462l0 200c773,0 1400,627 1400,1400 0,269 -76,529 -221,755l144 144c181,-265 277,-578 277,-899 0,-884 -716,-1600 -1600,-1600zm0 1350c-138,0 -250,112 -250,250 0,137 112,250 250,250 32,0 63,-6 91,-17l970 969 141 -141 -969 -970c11,-28 17,-59 17,-91 0,-138 -112,-250 -250,-250z"/>
</svg>