<?xml version="1.0" encoding="UTF-8"?>
<!DOCTYPE svg PUBLIC "-//W3C//DTD SVG 1.1//EN" "http://www.w3.org/Graphics/SVG/1.1/DTD/svg11.dtd">
<svg xmlns="http://www.w3.org/2000/svg" xml:space="preserve" width="580px" height="580px" shape-rendering="geometricPrecision" text-rendering="geometricPrecision" image-rendering="optimizeQuality" fill-rule="nonzero" clip-rule="nonzero" viewBox="0 0 5800 5800" xmlns:xlink="http://www.w3.org/1999/xlink">
	<title>store icon</title>
	<desc>store icon from the IconExperience.com I-Collection. Copyright by INCORS GmbH (www.incors.com).</desc>
		<path id="curve28"  d="M3750 4000c83,0 150,67 150,150 0,83 -67,150 -150,150 -83,0 -150,-68 -150,-150 0,-82 68,-150 150,-150zm1550 -1007l0 2507c-1600,0 -3200,0 -4800,0l0 -2507c62,36 129,64 200,82l0 2225 2600 0 0 -2200c467,0 933,0 1400,0l0 2200 400 0 0 -2225c71,-18 138,-46 200,-82zm-4800 -1467l0 -1026 4800 0 0 1026 -200 -232 0 -594 -4400 0 0 594 -200 232zm1400 1574c400,0 800,0 1200,0l0 1800 -2200 0 0 -1800 1000 0zm1000 200l-1800 0 0 1400 1800 0 0 -1400zm1600 0l-1000 0 0 2000 1000 0 0 -2000zm1000 -1000c0,331 -269,600 -600,600 -202,0 -389,-101 -500,-268 -111,167 -298,268 -500,268 -202,0 -389,-101 -500,-268 -111,167 -298,268 -500,268 -202,0 -389,-101 -500,-268 -22,33 -48,64 -76,92 -108,109 -258,176 -424,176 -202,0 -389,-101 -500,-268 -111,167 -298,268 -500,268 -331,0 -600,-269 -600,-600l0 -237 830 -963 3540 0 830 963 0 237zm-4200 2l0 -226 401 -776 -480 0 -721 837 0 163c0,221 179,400 400,400 220,0 399,-178 400,-398zm626 -1002l-426 824 0 176c0,221 179,400 400,400 110,0 210,-45 283,-117 72,-73 117,-173 117,-283l0 -200 137 -800 -511 0zm713 0l-139 808 0 192c0,221 179,400 400,400 214,0 391,-169 400,-382l0 -210 -139 -808 -522 0zm724 0l137 800 0 218c9,213 186,382 400,382 221,0 400,-179 400,-400l0 -176 -426 -824 -511 0zm736 0l401 776 0 224c0,221 179,400 400,400 221,0 400,-179 400,-400l0 -163 -721 -837 -480 0z"/>
</svg>