<?xml version="1.0" encoding="UTF-8"?>
<!DOCTYPE svg PUBLIC "-//W3C//DTD SVG 1.1//EN" "http://www.w3.org/Graphics/SVG/1.1/DTD/svg11.dtd">
<svg xmlns="http://www.w3.org/2000/svg" xml:space="preserve" width="580px" height="580px" shape-rendering="geometricPrecision" text-rendering="geometricPrecision" image-rendering="optimizeQuality" fill-rule="nonzero" clip-rule="nonzero" viewBox="0 0 5800 5800" xmlns:xlink="http://www.w3.org/1999/xlink">
	<title>stroller icon</title>
	<desc>stroller icon from the IconExperience.com I-Collection. Copyright by INCORS GmbH (www.incors.com).</desc>
	<path id="curve0"  d="M3800 3700c387,0 700,313 700,700 0,387 -313,700 -700,700 -387,0 -700,-313 -700,-700 0,-387 313,-700 700,-700zm-1210 269l939 -940c186,-186 262,-389 262,-651 0,-595 483,-1078 1079,-1078l326 0c55,0 100,45 100,100 0,55 -45,100 -100,100l-326 0c-485,0 -879,393 -879,878 0,315 -97,570 -320,793l-1000 1000c-19,-71 -46,-139 -81,-202zm-1590 -1269l0 -401c0,-882 716,-1599 1599,-1599l99 0 2 1400 922 0c-20,90 -31,183 -31,278 0,209 -54,361 -203,510l-612 612 -976 0c-442,0 -800,-358 -800,-800zm3251 -600l349 0 0 600c0,442 -358,800 -800,800l-176 0 188 -188c260,-260 379,-567 379,-934 0,-99 22,-193 60,-278zm-2451 1600c387,0 700,313 700,700 0,387 -313,700 -700,700 -387,0 -700,-313 -700,-700 0,-387 313,-700 700,-700z"/>
</svg>