<?xml version="1.0" encoding="UTF-8"?>
<!DOCTYPE svg PUBLIC "-//W3C//DTD SVG 1.1//EN" "http://www.w3.org/Graphics/SVG/1.1/DTD/svg11.dtd">
<svg xmlns="http://www.w3.org/2000/svg" xml:space="preserve" width="580px" height="580px" shape-rendering="geometricPrecision" text-rendering="geometricPrecision" image-rendering="optimizeQuality" fill-rule="nonzero" clip-rule="nonzero" viewBox="0 0 5800 5800" xmlns:xlink="http://www.w3.org/1999/xlink">
	<title>suitcase2 icon</title>
	<desc>suitcase2 icon from the IconExperience.com I-Collection. Copyright by INCORS GmbH (www.incors.com).</desc>
		<path id="curve28"  d="M1000 1297l399 0 -1 93c-46,534 -472,960 -1006,1004l-92 2 0 -399c0,-385 315,-700 700,-700zm1100 0l0 -397c0,-220 180,-400 400,-400l800 0c220,0 400,180 400,400l0 397 500 0c0,35 -3,83 1,116 54,629 562,1132 1191,1184 33,3 74,1 108,1l0 1402c-33,0 -81,-3 -113,1 -628,54 -1135,554 -1187,1184 -2,34 0,77 0,112l-2600 0c0,-33 2,-72 0,-105 -52,-631 -560,-1142 -1192,-1194 0,0 -99,1 -108,1l0 -1404 94 -2c5,0 9,0 14,0 631,-52 1135,-555 1190,-1186 -1,0 0,-100 0,-110l502 0zm1400 0l0 -397c0,-110 -90,-200 -200,-200l-800 0c-110,0 -200,90 -200,200l0 397 1200 0zm900 0l400 0c385,0 700,315 700,700l0 402 -92 -1c-532,-44 -962,-469 -1008,-1002l0 -99zm1100 2903l0 397c0,386 -315,700 -700,700l-400 0 0 -100c46,-532 473,-951 1004,-997l96 0zm-4100 1097l-400 0c-385,0 -700,-314 -700,-700l0 -399 93 -1c533,45 961,475 1007,1007l0 93z"/>
</svg>