<?xml version="1.0" encoding="UTF-8"?>
<!DOCTYPE svg PUBLIC "-//W3C//DTD SVG 1.1//EN" "http://www.w3.org/Graphics/SVG/1.1/DTD/svg11.dtd">
<svg xmlns="http://www.w3.org/2000/svg" xml:space="preserve" width="580px" height="580px" shape-rendering="geometricPrecision" text-rendering="geometricPrecision" image-rendering="optimizeQuality" fill-rule="nonzero" clip-rule="nonzero" viewBox="0 0 5800 5800" xmlns:xlink="http://www.w3.org/1999/xlink">
	<title>suitcase2 icon</title>
	<desc>suitcase2 icon from the IconExperience.com I-Collection. Copyright by INCORS GmbH (www.incors.com).</desc>
		<path id="curve28"  d="M1000 1297l1100 0 0 -397c0,-220 180,-400 400,-400l800 0c220,0 400,180 400,400l0 397 1100 0c385,0 700,315 700,700l0 2600c0,386 -315,700 -700,700l-3800 0c-385,0 -700,-314 -700,-700l0 -2600c0,-385 315,-700 700,-700zm1300 0l1200 0 0 -397c0,-110 -90,-200 -200,-200l-800 0c-110,0 -200,90 -200,200l0 397zm2500 200l-383 0c81,449 434,804 883,887l0 -387c0,-274 -225,-500 -500,-500zm-585 0l-2630 0c-87,558 -527,999 -1085,1085l0 1427c559,86 1001,529 1085,1088l2626 0c84,-561 528,-1004 1089,-1089l0 -1422c-559,-86 -1001,-529 -1085,-1089zm-2833 0l-382 0c-275,0 -500,226 -500,500l0 382c447,-82 800,-434 882,-882zm3918 3100l0 -386c-450,81 -806,436 -887,886l387 0c275,0 500,-225 500,-500zm-4300 500l383 0c-81,-448 -434,-803 -883,-886l0 386c0,275 225,500 500,500z"/>
</svg>