<?xml version="1.0" encoding="UTF-8"?>
<!DOCTYPE svg PUBLIC "-//W3C//DTD SVG 1.1//EN" "http://www.w3.org/Graphics/SVG/1.1/DTD/svg11.dtd">
<svg xmlns="http://www.w3.org/2000/svg" xml:space="preserve" width="580px" height="580px" shape-rendering="geometricPrecision" text-rendering="geometricPrecision" image-rendering="optimizeQuality" fill-rule="nonzero" clip-rule="nonzero" viewBox="0 0 5800 5800" xmlns:xlink="http://www.w3.org/1999/xlink">
	<title>suitcase icon</title>
	<desc>suitcase icon from the IconExperience.com I-Collection. Copyright by INCORS GmbH (www.incors.com).</desc>
		<path id="curve28"  d="M1000 1300l100 0 0 4000 -100 0c-385,0 -700,-315 -700,-700l0 -2600c0,-385 315,-700 700,-700zm1100 0l0 -400c0,-220 180,-400 400,-400l800 0c220,0 400,180 400,400l0 400 800 0 0 4000 -3200 0 0 -4000 800 0zm1400 0l0 -400c0,-110 -90,-200 -200,-200l-800 0c-110,0 -200,90 -200,200l0 400 1200 0zm1200 0l100 0c385,0 700,315 700,700l0 2600c0,385 -315,700 -700,700l-100 0 0 -4000z"/>
</svg>