<?xml version="1.0" encoding="UTF-8"?>
<!DOCTYPE svg PUBLIC "-//W3C//DTD SVG 1.1//EN" "http://www.w3.org/Graphics/SVG/1.1/DTD/svg11.dtd">
<svg xmlns="http://www.w3.org/2000/svg" xml:space="preserve" width="580px" height="580px" shape-rendering="geometricPrecision" text-rendering="geometricPrecision" image-rendering="optimizeQuality" fill-rule="nonzero" clip-rule="nonzero" viewBox="0 0 5800 5800" xmlns:xlink="http://www.w3.org/1999/xlink">
	<title>sun icon</title>
	<desc>sun icon from the IconExperience.com I-Collection. Copyright by INCORS GmbH (www.incors.com).</desc>
		<path id="curve28"  d="M1564 5015l300 -520 172 100 -300 520 -172 -100zm2200 -3810l300 -520 172 100 -300 520 -172 -100zm-2979 359l520 300 -100 172 -520 -300 100 -172zm3810 2200l520 300 -100 172 -520 -300 100 -172zm-3910 300l520 -300 100 172 -520 300 -100 -172zm3810 -2200l520 -300 100 172 -520 300 -100 -172zm-2759 -1179l300 520 -172 100 -300 -520 172 -100zm2200 3810l300 520 -172 100 -300 -520 172 -100zm-3536 -1695l600 0 0 200 -600 0 0 -200zm4400 0l600 0 0 200 -600 0 0 -200zm-1800 -2400l0 600 -200 0 0 -600 200 0zm0 4400l0 600 -200 0 0 -600 200 0zm-100 -3500c884,0 1600,716 1600,1600 0,884 -716,1600 -1600,1600 -884,0 -1600,-716 -1600,-1600 0,-884 716,-1600 1600,-1600zm0 200c-773,0 -1400,627 -1400,1400 0,773 627,1400 1400,1400 773,0 1400,-627 1400,-1400 0,-773 -627,-1400 -1400,-1400z"/>
</svg>