<?xml version="1.0" encoding="UTF-8"?>
<!DOCTYPE svg PUBLIC "-//W3C//DTD SVG 1.1//EN" "http://www.w3.org/Graphics/SVG/1.1/DTD/svg11.dtd">
<svg xmlns="http://www.w3.org/2000/svg" xml:space="preserve" width="580px" height="580px" shape-rendering="geometricPrecision" text-rendering="geometricPrecision" image-rendering="optimizeQuality" fill-rule="nonzero" clip-rule="nonzero" viewBox="0 0 5800 5800" xmlns:xlink="http://www.w3.org/1999/xlink">
	<title>sun_dimmed icon</title>
	<desc>sun_dimmed icon from the IconExperience.com I-Collection. Copyright by INCORS GmbH (www.incors.com).</desc>
		<path id="curve28" d="M2900 1300c884,0 1600,716 1600,1600 0,884 -716,1600 -1600,1600 -884,0 -1600,-716 -1600,-1600 0,-884 716,-1600 1600,-1600zm1200 2014c47,0 90,16 124,43 47,-136 73,-282 76,-434 -5,106 -93,191 -200,191 -110,0 -200,-90 -200,-200 0,-111 90,-200 200,-200 182,0 200,189 200,186 0,-152 -24,-298 -69,-435 -35,30 -81,49 -131,49 -110,0 -200,-90 -200,-200 0,-97 69,-178 161,-196 -50,-75 -108,-145 -171,-208 -55,-55 -115,-105 -178,-151 -25,82 -101,141 -191,141 -110,0 -200,-90 -200,-200 0,-46 15,-88 41,-122 -144,-50 -300,-78 -462,-78 -157,0 -307,26 -448,73 36,36 59,87 59,142 0,110 -90,200 -200,200 -101,0 -185,-75 -198,-173 -149,101 -277,231 -377,380 96,15 170,98 170,198 0,110 -90,200 -200,200 -53,0 -101,-21 -137,-55 -47,144 -70,293 -69,444 2,-108 91,-195 200,-195 110,0 200,89 200,200 0,110 -90,200 -200,200 -108,0 -195,-85 -200,-191 3,151 29,297 76,434 34,-27 77,-43 124,-43 110,0 200,89 200,200 0,91 -61,168 -145,192 96,136 216,255 354,349 25,-82 101,-141 191,-141 110,0 200,89 200,200 0,43 -14,84 -37,116 113,38 234,61 358,68 -71,-31 -121,-102 -121,-184 0,-111 90,-200 200,-200 110,0 200,89 200,200 0,82 -50,153 -121,184 124,-7 245,-30 358,-68 -23,-32 -37,-73 -37,-116 0,-111 90,-200 200,-200 90,0 166,59 191,141 138,-94 258,-213 354,-349 -84,-24 -145,-101 -145,-192 0,-111 90,-200 200,-200zm-600 0c110,0 200,89 200,200 0,110 -90,200 -200,200 -110,0 -200,-90 -200,-200 0,-111 90,-200 200,-200zm0 -600c110,0 200,89 200,200 0,110 -90,200 -200,200 -110,0 -200,-90 -200,-200 0,-111 90,-200 200,-200zm0 -600c110,0 200,89 200,200 0,110 -90,200 -200,200 -110,0 -200,-90 -200,-200 0,-111 90,-200 200,-200zm-1200 1200c110,0 200,89 200,200 0,110 -90,200 -200,200 -110,0 -200,-90 -200,-200 0,-111 90,-200 200,-200zm600 0c110,0 200,89 200,200 0,110 -90,200 -200,200 -110,0 -200,-90 -200,-200 0,-111 90,-200 200,-200zm0 -1800c110,0 200,89 200,200 0,110 -90,200 -200,200 -110,0 -200,-90 -200,-200 0,-111 90,-200 200,-200zm0 1200c110,0 200,89 200,200 0,110 -90,200 -200,200 -110,0 -200,-90 -200,-200 0,-111 90,-200 200,-200zm0 -600c110,0 200,89 200,200 0,110 -90,200 -200,200 -110,0 -200,-90 -200,-200 0,-111 90,-200 200,-200zm-600 600c110,0 200,89 200,200 0,110 -90,200 -200,200 -110,0 -200,-90 -200,-200 0,-111 90,-200 200,-200zm0 -600c110,0 200,89 200,200 0,110 -90,200 -200,200 -110,0 -200,-90 -200,-200 0,-111 90,-200 200,-200zm-736 2901l300 -520 172 100 -300 520 -172 -100zm2200 -3810l300 -520 172 100 -300 520 -172 -100zm-2979 359l520 300 -100 172 -520 -300 100 -172zm3810 2200l520 300 -100 172 -520 -300 100 -172zm-3910 300l520 -300 100 172 -520 300 -100 -172zm3810 -2200l520 -300 100 172 -520 300 -100 -172zm-2759 -1179l300 520 -172 100 -300 -520 172 -100zm2200 3810l300 520 -172 100 -300 -520 172 -100zm-3536 -1695l600 0 0 200 -600 0 0 -200zm4400 0l600 0 0 200 -600 0 0 -200zm-1800 -2400l0 600 -200 0 0 -600 200 0zm0 4400l0 600 -200 0 0 -600 200 0z"/>
</svg>