<?xml version="1.0" encoding="UTF-8"?>
<!DOCTYPE svg PUBLIC "-//W3C//DTD SVG 1.1//EN" "http://www.w3.org/Graphics/SVG/1.1/DTD/svg11.dtd">
<svg xmlns="http://www.w3.org/2000/svg" xml:space="preserve" width="580px" height="580px" shape-rendering="geometricPrecision" text-rendering="geometricPrecision" image-rendering="optimizeQuality" fill-rule="nonzero" clip-rule="nonzero" viewBox="0 0 5800 5800" xmlns:xlink="http://www.w3.org/1999/xlink">
	<title>sun_half icon</title>
	<desc>sun_half icon from the IconExperience.com I-Collection. Copyright by INCORS GmbH (www.incors.com).</desc>
		<path id="curve28" d="M2900 1300c884,0 1600,716 1600,1600 0,884 -716,1600 -1600,1600 -884,0 -1600,-716 -1600,-1600 0,-884 716,-1600 1600,-1600zm-100 2996l0 -2792c-732,51 -1300,662 -1300,1396 0,734 568,1345 1300,1396zm200 -3896l0 600 -200 0 0 -600 200 0zm0 4400l0 600 -200 0 0 -600 200 0zm-2600 -2000l600 0 0 200 -600 0 0 -200zm1336 -2115l300 520 -172 100 -300 -520 172 -100zm-1051 3379l520 -300 100 172 -520 300 -100 -172zm100 -2500l520 300 -100 172 -520 -300 100 -172zm779 3451l300 -520 172 100 -300 520 -172 -100z"/>
</svg>