<?xml version="1.0" encoding="UTF-8"?>
<!DOCTYPE svg PUBLIC "-//W3C//DTD SVG 1.1//EN" "http://www.w3.org/Graphics/SVG/1.1/DTD/svg11.dtd">
<svg xmlns="http://www.w3.org/2000/svg" xml:space="preserve" width="580px" height="580px" shape-rendering="geometricPrecision" text-rendering="geometricPrecision" image-rendering="optimizeQuality" fill-rule="nonzero" clip-rule="nonzero" viewBox="0 0 5800 5800" xmlns:xlink="http://www.w3.org/1999/xlink">
	<title>sun_dimmed icon</title>
	<desc>sun_dimmed icon from the IconExperience.com I-Collection. Copyright by INCORS GmbH (www.incors.com).</desc>
		<path id="curve28"  d="M2900 300c1436,0 2600,1164 2600,2600 0,1436 -1164,2600 -2600,2600 -1436,0 -2600,-1164 -2600,-2600 0,-1436 1164,-2600 2600,-2600zm-1236 4542l172 100 300 -520 -172 -100 -300 520zm2000 -3464l172 99 300 -519 -172 -99 -300 519zm-2806 2586l100 172 520 -300 -100 -172 -520 300zm3464 -2000l100 172 520 -300 -100 -172 -520 300zm-3722 836l0 200 600 0 0 -200 -600 0zm4000 0l0 200 600 0 0 -200 -600 0zm-3642 -1136l-100 172 520 300 100 -172 -520 -300zm3464 2000l-99 172 519 300 99 -172 -519 -300zm-2586 -2806l-172 100 300 520 172 -100 -300 -520zm2000 3464l-172 100 300 520 172 -100 -300 -520zm-836 -3722l-200 0 0 600 200 0 0 -600zm0 4000l-200 0 0 600 200 0 0 -600zm-100 -3100c-773,0 -1400,627 -1400,1400 0,773 627,1400 1400,1400 773,0 1400,-627 1400,-1400 0,-773 -627,-1400 -1400,-1400zm1005 2056c46,-70 85,-146 115,-226 -70,31 -120,102 -120,184 0,14 2,29 5,42zm-1005 -1856c-68,0 -135,6 -200,17 2,109 90,197 200,197 110,0 198,-88 200,-197 -65,-11 -132,-17 -200,-17zm439 83c31,69 101,117 182,117 13,0 25,-1 37,-3 -68,-46 -142,-84 -219,-114zm571 469c-7,19 -10,40 -10,62 0,87 55,160 132,188 -31,-89 -72,-173 -122,-250zm176 462c-104,8 -186,94 -186,200 0,104 80,189 181,199 13,-69 19,-140 19,-213 0,-63 -5,-125 -14,-186zm-549 1203c-12,-2 -24,-3 -37,-3 -78,0 -146,45 -179,110 76,-29 148,-64 216,-107zm-439 167c-15,-96 -98,-170 -198,-170 -100,0 -183,74 -198,170 65,10 131,16 198,16 67,0 133,-6 198,-16zm-619 -60c-33,-65 -101,-110 -179,-110 -13,0 -25,1 -37,3 68,43 140,78 216,107zm-584 -468c3,-13 5,-27 5,-42 0,-82 -50,-153 -120,-184 30,80 69,156 115,226zm-176 -443c101,-10 181,-95 181,-199 0,-106 -82,-192 -186,-200 -9,61 -14,123 -14,186 0,73 6,144 19,213zm45 -602c82,-25 142,-101 142,-191 0,-25 -5,-50 -13,-72 -53,81 -97,170 -129,263zm472 -611c23,10 48,15 75,15 92,0 170,-63 193,-148 -95,33 -185,78 -268,133zm64 214c-110,0 -200,89 -200,200 0,110 90,200 200,200 110,0 200,-90 200,-200 0,-111 -90,-200 -200,-200zm0 600c-110,0 -200,89 -200,200 0,110 90,200 200,200 110,0 200,-90 200,-200 0,-111 -90,-200 -200,-200zm600 -600c-110,0 -200,89 -200,200 0,110 90,200 200,200 110,0 200,-90 200,-200 0,-111 -90,-200 -200,-200zm0 600c-110,0 -200,89 -200,200 0,110 90,200 200,200 110,0 200,-90 200,-200 0,-111 -90,-200 -200,-200zm0 600c-110,0 -200,89 -200,200 0,110 90,200 200,200 110,0 200,-90 200,-200 0,-111 -90,-200 -200,-200zm-600 0c-110,0 -200,89 -200,200 0,110 90,200 200,200 110,0 200,-90 200,-200 0,-111 -90,-200 -200,-200zm1200 -1200c-110,0 -200,89 -200,200 0,110 90,200 200,200 110,0 200,-90 200,-200 0,-111 -90,-200 -200,-200zm0 600c-110,0 -200,89 -200,200 0,110 90,200 200,200 110,0 200,-90 200,-200 0,-111 -90,-200 -200,-200zm0 600c-110,0 -200,89 -200,200 0,110 90,200 200,200 110,0 200,-90 200,-200 0,-111 -90,-200 -200,-200z"/>
</svg>