<?xml version="1.0" encoding="UTF-8"?>
<!DOCTYPE svg PUBLIC "-//W3C//DTD SVG 1.1//EN" "http://www.w3.org/Graphics/SVG/1.1/DTD/svg11.dtd">
<svg xmlns="http://www.w3.org/2000/svg" xml:space="preserve" width="580px" height="580px" shape-rendering="geometricPrecision" text-rendering="geometricPrecision" image-rendering="optimizeQuality" fill-rule="nonzero" clip-rule="nonzero" viewBox="0 0 5800 5800" xmlns:xlink="http://www.w3.org/1999/xlink">
	<title>sun_half icon</title>
	<desc>sun_half icon from the IconExperience.com I-Collection. Copyright by INCORS GmbH (www.incors.com).</desc>
		<path id="curve28"  d="M2900 300c-1436,0 -2600,1164 -2600,2600 0,1436 1164,2600 2600,2600 1436,0 2600,-1164 2600,-2600 0,-1436 -1164,-2600 -2600,-2600zm0 1200c773,0 1400,627 1400,1400 0,773 -627,1400 -1400,1400 -773,0 -1400,-627 -1400,-1400 0,-773 627,-1400 1400,-1400zm0 2600c663,0 1200,-537 1200,-1200 0,-663 -537,-1200 -1200,-1200l0 2400zm-764 -2722l-172 99 -300 -519 172 -99 300 519zm-658 586l-100 172 -520 -300 100 -172 520 300zm-278 836l0 200 -600 0 0 -200 600 0zm178 864l99 172 -519 300 -99 -172 519 -300zm586 658l172 100 -300 520 -172 -100 300 -520zm836 -3722l200 0 0 600 -200 0 0 -600zm0 4000l200 0 0 600 -200 0 0 -600z"/>
</svg>