<?xml version="1.0" encoding="UTF-8"?>
<!DOCTYPE svg PUBLIC "-//W3C//DTD SVG 1.1//EN" "http://www.w3.org/Graphics/SVG/1.1/DTD/svg11.dtd">
<svg xmlns="http://www.w3.org/2000/svg" xml:space="preserve" width="580px" height="580px" shape-rendering="geometricPrecision" text-rendering="geometricPrecision" image-rendering="optimizeQuality" fill-rule="nonzero" clip-rule="nonzero" viewBox="0 0 5800 5800" xmlns:xlink="http://www.w3.org/1999/xlink">
	<title>sun icon</title>
	<desc>sun icon from the IconExperience.com I-Collection. Copyright by INCORS GmbH (www.incors.com).</desc>
		<path id="curve28"  d="M2900 300c1436,0 2600,1164 2600,2600 0,1436 -1164,2600 -2600,2600 -1436,0 -2600,-1164 -2600,-2600 0,-1436 1164,-2600 2600,-2600zm0 1200c-773,0 -1400,627 -1400,1400 0,773 627,1400 1400,1400 773,0 1400,-627 1400,-1400 0,-773 -627,-1400 -1400,-1400zm-1236 3342l172 100 300 -520 -172 -100 -300 520zm2000 -3464l172 99 300 -519 -172 -99 -300 519zm-2806 2586l100 172 520 -300 -100 -172 -520 300zm3464 -2000l100 172 520 -300 -100 -172 -520 300zm-3722 836l0 200 600 0 0 -200 -600 0zm4000 0l0 200 600 0 0 -200 -600 0zm-3642 -1136l-100 172 520 300 100 -172 -520 -300zm3464 2000l-99 172 519 300 99 -172 -519 -300zm-2586 -2806l-172 100 300 520 172 -100 -300 -520zm2000 3464l-172 100 300 520 172 -100 -300 -520zm-836 -3722l-200 0 0 600 200 0 0 -600zm0 4000l-200 0 0 600 200 0 0 -600z"/>
</svg>