<?xml version="1.0" encoding="UTF-8"?>
<!DOCTYPE svg PUBLIC "-//W3C//DTD SVG 1.1//EN" "http://www.w3.org/Graphics/SVG/1.1/DTD/svg11.dtd">
<svg xmlns="http://www.w3.org/2000/svg" xml:space="preserve" width="580px" height="580px" shape-rendering="geometricPrecision" text-rendering="geometricPrecision" image-rendering="optimizeQuality" fill-rule="nonzero" clip-rule="nonzero" viewBox="0 0 5800 5800" xmlns:xlink="http://www.w3.org/1999/xlink">
	<title>sunglasses icon</title>
	<desc>sunglasses icon from the IconExperience.com I-Collection. Copyright by INCORS GmbH (www.incors.com).</desc>
		<path id="curve28" d="M1100 1900l800 0c223,0 420,46 561,131 50,30 92,64 127,103 40,44 90,66 149,66l326 0c59,0 109,-22 149,-66 35,-39 77,-73 127,-103 141,-85 338,-131 561,-131l800 0c150,0 341,58 482,157 61,43 114,94 152,153 38,58 98,90 167,90l199 0 0 300 -106 0c-99,0 -182,71 -198,169l-98 623c-19,122 -108,243 -216,335 -121,102 -271,173 -382,173l-700 0c-180,0 -317,-69 -430,-182 -105,-105 -185,-246 -260,-405l-141 -298c-34,-72 -102,-115 -181,-115l-176 0c-79,0 -147,43 -181,115l-141 298c-75,159 -155,300 -260,405 -113,113 -250,182 -430,182l-700 0c-111,0 -261,-71 -382,-173 -108,-92 -197,-213 -216,-335l-98 -623c-16,-98 -99,-169 -198,-169l-106 0 0 -300 199 0c69,0 129,-32 167,-90 38,-59 91,-110 152,-153 141,-99 332,-157 482,-157z"/>
</svg>