<?xml version="1.0" encoding="UTF-8"?>
<!DOCTYPE svg PUBLIC "-//W3C//DTD SVG 1.1//EN" "http://www.w3.org/Graphics/SVG/1.1/DTD/svg11.dtd">
<svg xmlns="http://www.w3.org/2000/svg" xml:space="preserve" width="580px" height="580px" shape-rendering="geometricPrecision" text-rendering="geometricPrecision" image-rendering="optimizeQuality" fill-rule="nonzero" clip-rule="nonzero" viewBox="0 0 5800 5800" xmlns:xlink="http://www.w3.org/1999/xlink">
	<title>surgeon icon</title>
	<desc>surgeon icon from the IconExperience.com I-Collection. Copyright by INCORS GmbH (www.incors.com).</desc>
		<path id="curve28"  d="M2282 3633c138,78 376,117 618,117 241,0 478,-39 617,-116 -34,-84 -37,-183 -32,-282 -13,21 -33,37 -57,44 -160,53 -345,79 -528,79 -184,0 -370,-27 -531,-80 -24,-8 -42,-24 -54,-43 4,98 0,197 -33,281zm1291 -653c90,-119 133,-283 173,-439 9,-36 18,-71 21,-79l0 0c7,-27 25,-50 52,-64 66,-32 111,-90 137,-157 9,-24 15,-49 20,-75l-285 285 -118 529zm-24 -670l427 -428c14,-76 19,-158 21,-234 -245,68 -673,102 -1097,102 -422,0 -848,-34 -1094,-101 3,79 7,162 19,234l426 427c187,43 417,65 649,65 232,0 462,-22 649,-65zm-1440 141l-284 -285c4,26 11,51 20,75 25,66 69,123 132,156 27,12 48,35 56,65l19 72c42,159 86,327 175,445l-118 -528zm791 124c-197,0 -394,-15 -569,-46l154 693c126,35 270,53 415,53 145,0 289,-18 415,-53l154 -693c-175,31 -372,46 -569,46zm851 1039c117,73 207,100 312,132 69,21 136,42 204,67 126,46 283,104 386,203 111,108 196,243 254,389 62,153 93,318 93,475 0,225 -254,370 -605,461 -465,121 -1113,159 -1495,159 -382,0 -1030,-38 -1495,-159 -351,-91 -605,-236 -605,-461 0,-157 31,-322 93,-476 58,-145 143,-280 254,-388 103,-99 260,-157 386,-203 68,-24 135,-46 204,-67 105,-32 195,-59 312,-132 84,-48 70,-224 59,-371 -3,-36 -6,-71 -7,-103 -137,-154 -191,-360 -242,-556 -1,-6 -3,-14 -8,-30 -92,-58 -156,-145 -193,-243 -40,-106 -48,-226 -24,-336l2 -11c-21,-105 -26,-225 -30,-336 -1,-40 -3,-79 -6,-122l0 -3 0 0 0 0 0 0 0 0 0 -2 0 0 0 0 0 -1 0 0c0,-430 208,-742 417,-1055 0,-6 24,-26 30,-30 168,-110 513,-165 853,-165 342,0 689,56 855,167 7,4 12,9 17,14 115,115 230,291 311,494 71,177 117,376 117,575 0,148 -5,320 -36,464l2 11c24,111 16,231 -24,336 -37,98 -101,185 -193,243 -5,17 -7,27 -10,37 -49,191 -102,394 -239,549 -1,40 -5,81 -8,124 -12,142 -25,302 59,350zm-1601 173c-137,84 -238,115 -356,150 -65,20 -129,40 -193,64 -108,39 -243,88 -315,158 -91,88 -160,199 -208,319 -52,129 -78,269 -78,402 0,111 191,200 455,268 444,116 1073,152 1445,152 372,0 1001,-36 1445,-152 264,-68 455,-157 455,-268 0,-134 -26,-273 -78,-402 -47,-120 -117,-231 -208,-319 -72,-70 -207,-119 -315,-158 -62,-23 -130,-45 -193,-64 -118,-35 -219,-66 -356,-150 -167,109 -460,163 -750,163 -289,0 -583,-54 -750,-163zm750 -3337c-297,0 -589,41 -729,124 -177,265 -351,532 -369,866 180,73 637,110 1098,110 462,0 918,-37 1098,-110 -8,-152 -45,-304 -100,-441 -70,-173 -165,-322 -261,-421 -137,-85 -435,-128 -737,-128z"/>
</svg>