<?xml version="1.0" encoding="UTF-8"?>
<!DOCTYPE svg PUBLIC "-//W3C//DTD SVG 1.1//EN" "http://www.w3.org/Graphics/SVG/1.1/DTD/svg11.dtd">
<svg xmlns="http://www.w3.org/2000/svg" xml:space="preserve" width="580px" height="580px" shape-rendering="geometricPrecision" text-rendering="geometricPrecision" image-rendering="optimizeQuality" fill-rule="nonzero" clip-rule="nonzero" viewBox="0 0 5800 5800" xmlns:xlink="http://www.w3.org/1999/xlink">
	<title>surgeon icon</title>
	<desc>surgeon icon from the IconExperience.com I-Collection. Copyright by INCORS GmbH (www.incors.com).</desc>
		<path id="curve28"  d="M2047 415c168,-110 513,-165 853,-165 190,0 735,38 872,181 115,115 230,291 311,494 51,128 89,267 107,409l-140 79c-215,124 -850,129 -1101,129 -524,0 -1054,-45 -1199,-129l-139 -79c45,-350 220,-603 406,-889 7,-11 26,-28 30,-30zm2151 1144c0,33 -1,68 -2,104l-647 647c-187,43 -417,65 -649,65 -232,0 -462,-22 -649,-65l-644 -644c-1,-35 -2,-71 -4,-106l47 27c176,100 747,155 1299,155 519,0 1027,-56 1201,-155l48 -28zm-32 416c24,111 16,231 -24,336 -37,98 -101,185 -193,243 -5,17 -7,27 -10,37 -30,117 -62,238 -113,350l-280 160 145 -650 475 -476zm-473 1273c-7,86 -20,186 -1,271l-147 98c-133,89 -387,133 -645,133 -187,0 -485,-27 -645,-133l-148 -99c20,-87 7,-203 1,-270l242 139c104,59 427,88 550,88 121,0 441,-26 550,-88l243 -139zm-1718 -306c-52,-113 -84,-238 -116,-358 -1,-6 -3,-14 -8,-30 -92,-58 -156,-145 -193,-243 -40,-106 -48,-226 -24,-336l475 476 145 650 -279 -159zm1862 720c78,39 147,60 226,84 186,56 462,146 590,270 111,108 196,243 254,389 62,153 93,318 93,475 0,225 -254,370 -605,461 -465,121 -1113,159 -1495,159 -382,0 -1030,-38 -1495,-159 -351,-91 -605,-236 -605,-461 0,-157 31,-322 93,-476 58,-145 143,-280 254,-388 128,-124 404,-214 590,-270 78,-24 148,-45 226,-84l182 121c193,129 527,167 755,167 292,0 588,-56 755,-167l182 -121z"/>
</svg>