<?xml version="1.0" encoding="UTF-8"?>
<!DOCTYPE svg PUBLIC "-//W3C//DTD SVG 1.1//EN" "http://www.w3.org/Graphics/SVG/1.1/DTD/svg11.dtd">
<svg xmlns="http://www.w3.org/2000/svg" xml:space="preserve" width="580px" height="580px" shape-rendering="geometricPrecision" text-rendering="geometricPrecision" image-rendering="optimizeQuality" fill-rule="nonzero" clip-rule="nonzero" viewBox="0 0 5800 5800" xmlns:xlink="http://www.w3.org/1999/xlink">
	<title>surveillance_camera icon</title>
	<desc>surveillance_camera icon from the IconExperience.com I-Collection. Copyright by INCORS GmbH (www.incors.com).</desc>
		<path id="curve28"  d="M2599 3927l-884 510 -450 -779 219 -126 486 -50 -433 249 250 434 633 -365 179 127zm2468 -1310c-745,430 -1489,860 -2234,1290l-818 -595 -1005 106 -232 -402 1342 -775c-13,-46 -20,-93 -20,-141 0,-238 168,-443 400,-490l0 -1110 -800 0 0 -200 1800 0 0 200 -800 0 0 1110c100,21 191,72 262,145 398,-230 795,-459 1193,-689 239,-137 545,-55 682,183l401 693c135,234 58,533 -171,675zm-4017 472l68 117 915 -97 38 -4 31 23 744 541c703,-405 1406,-812 2109,-1217 139,-80 190,-260 115,-401l-405 -702c-82,-143 -268,-192 -410,-110 -1068,617 -2137,1233 -3205,1850zm1550 -1289c-166,0 -300,134 -300,300 0,12 1,24 2,36l478 -276c-52,-40 -115,-60 -180,-60z"/>
</svg>