<?xml version="1.0" encoding="UTF-8"?>
<!DOCTYPE svg PUBLIC "-//W3C//DTD SVG 1.1//EN" "http://www.w3.org/Graphics/SVG/1.1/DTD/svg11.dtd">
<svg xmlns="http://www.w3.org/2000/svg" xml:space="preserve" width="580px" height="580px" shape-rendering="geometricPrecision" text-rendering="geometricPrecision" image-rendering="optimizeQuality" fill-rule="nonzero" clip-rule="nonzero" viewBox="0 0 5800 5800" xmlns:xlink="http://www.w3.org/1999/xlink">
	<title>surveillance_camera2 icon</title>
	<desc>surveillance_camera2 icon from the IconExperience.com I-Collection. Copyright by INCORS GmbH (www.incors.com).</desc>
		<path id="curve28"  d="M2399 3927l-884 510 -450 -779 219 -126 492 -51 623 446zm1556 -2861c238,-137 545,-55 683,183l400 693c137,238 55,545 -183,682l-883 510c18,53 28,110 28,166 0,238 -168,443 -400,490l0 290c0,121 99,220 220,220l1280 0 0 -800 200 0 0 1800 -200 0 0 -800 -1280 0c-231,0 -420,-189 -420,-420l0 -290c-109,-22 -207,-80 -279,-164l-488 281 -818 -595 -1005 106 -232 -402 3377 -1950z"/>
</svg>