<?xml version="1.0" encoding="UTF-8"?>
<!DOCTYPE svg PUBLIC "-//W3C//DTD SVG 1.1//EN" "http://www.w3.org/Graphics/SVG/1.1/DTD/svg11.dtd">
<svg xmlns="http://www.w3.org/2000/svg" xml:space="preserve" width="580px" height="580px" shape-rendering="geometricPrecision" text-rendering="geometricPrecision" image-rendering="optimizeQuality" fill-rule="nonzero" clip-rule="nonzero" viewBox="0 0 5800 5800" xmlns:xlink="http://www.w3.org/1999/xlink">
	<title>surveillance_camera2 icon</title>
	<desc>surveillance_camera2 icon from the IconExperience.com I-Collection. Copyright by INCORS GmbH (www.incors.com).</desc>
		<path id="curve28" d="M2399 3927l-884 510 -450 -779 219 -126 486 -50 -433 249 250 434 633 -365 179 127zm2239 -2678c36,64 413,715 413,718 119,236 32,525 -196,657 -295,170 -589,340 -883,510 18,53 28,110 28,166 0,238 -168,443 -400,490l0 290c0,121 99,220 220,220l1280 0 0 -800 200 0 0 1800 -200 0 0 -800 -1280 0c-231,0 -420,-189 -420,-420l0 -290c-109,-22 -207,-80 -279,-164l-488 281 -818 -595 -1005 106 -232 -402c1125,-650 2251,-1300 3377,-1950 238,-137 545,-55 683,183zm118 1202c141,-82 191,-267 109,-409l-400 -693c-82,-142 -268,-192 -410,-110 -1068,617 -2137,1233 -3205,1850l68 117 953 -101 775 564c703,-406 1409,-808 2110,-1218zm-956 849c0,-22 -2,-43 -6,-63 -165,95 -330,191 -495,286 55,50 126,77 201,77 166,0 300,-134 300,-300z"/>
</svg>