<?xml version="1.0" encoding="UTF-8"?>
<!DOCTYPE svg PUBLIC "-//W3C//DTD SVG 1.1//EN" "http://www.w3.org/Graphics/SVG/1.1/DTD/svg11.dtd">
<svg xmlns="http://www.w3.org/2000/svg" xml:space="preserve" width="580px" height="580px" shape-rendering="geometricPrecision" text-rendering="geometricPrecision" image-rendering="optimizeQuality" fill-rule="nonzero" clip-rule="nonzero" viewBox="0 0 5800 5800" xmlns:xlink="http://www.w3.org/1999/xlink">
	<title>switch2_on icon</title>
	<desc>switch2_on icon from the IconExperience.com I-Collection. Copyright by INCORS GmbH (www.incors.com).</desc>
		<path id="curve28"  d="M1885 2808c7,-67 10,-132 10,-199l0 -1709c0,-110 90,-200 200,-200l1600 0c110,0 200,90 200,200l0 1709c0,67 3,132 10,199l183 1736c6,60 -4,115 -32,169l-200 386 -1921 15 -203 -403c-26,-52 -36,-108 -30,-166l183 -1737zm15 -2508l2000 0c440,0 800,360 800,800l0 3600c0,440 -360,800 -800,800l-2000 0c-440,0 -800,-360 -800,-800l0 -3600c0,-440 360,-800 800,-800zm2000 200l-2000 0c-330,0 -600,270 -600,600l0 3600c0,330 270,600 600,600l2000 0c330,0 600,-270 600,-600l0 -3600c0,-330 -270,-600 -600,-600zm-900 600l0 1400 -200 0 0 -1400 200 0zm-1093 3400l1976 0 -176 -1672c-8,-73 -12,-146 -12,-219 0,-483 0,-1709 0,-1709 -533,0 -1067,0 -1600,0 0,0 0,1567 0,1709 0,73 -4,146 -12,219l-176 1672zm893 -1605l200 0c275,0 500,225 500,500l0 405c0,275 -225,500 -500,500l-200 0c-275,0 -500,-225 -500,-500l0 -405c0,-275 225,-500 500,-500zm200 200l-200 0c-165,0 -300,135 -300,300l0 405c0,165 135,300 300,300l200 0c165,0 300,-135 300,-300l0 -405c0,-165 -135,-300 -300,-300z"/>
</svg>