<?xml version="1.0" encoding="UTF-8"?>
<!DOCTYPE svg PUBLIC "-//W3C//DTD SVG 1.1//EN" "http://www.w3.org/Graphics/SVG/1.1/DTD/svg11.dtd">
<svg xmlns="http://www.w3.org/2000/svg" xml:space="preserve" width="580px" height="580px" shape-rendering="geometricPrecision" text-rendering="geometricPrecision" image-rendering="optimizeQuality" fill-rule="nonzero" clip-rule="nonzero" viewBox="0 0 5800 5800" xmlns:xlink="http://www.w3.org/1999/xlink">
	<title>switch3_off icon</title>
	<desc>switch3_off icon from the IconExperience.com I-Collection. Copyright by INCORS GmbH (www.incors.com).</desc>
		<path id="curve28"  d="M1669 1700c-659,0 -1169,550 -1169,1200 0,654 546,1200 1200,1200l2400 0c663,0 1200,-537 1200,-1200 0,-663 -537,-1200 -1200,-1200l-2431 0zm0 -200l2431 0c773,0 1400,627 1400,1400 0,773 -627,1400 -1400,1400l-2400 0c-765,0 -1400,-635 -1400,-1400 0,-760 601,-1400 1369,-1400zm31 400c552,0 1000,448 1000,1000 0,552 -448,1000 -1000,1000 -552,0 -1000,-448 -1000,-1000 0,-552 448,-1000 1000,-1000zm0 200c-442,0 -800,358 -800,800 0,442 358,800 800,800 442,0 800,-358 800,-800 0,-442 -358,-800 -800,-800zm0 600c-55,-1 -100,46 -100,100l0 200c0,57 45,99 101,100 54,0 99,-45 99,-100l0 -200c0,-55 -45,-100 -100,-100zm300 100l0 200c0,165 -135,300 -300,300 -166,-3 -300,-133 -300,-300l0 -200c0,-165 135,-300 300,-300 166,2 300,133 300,300z"/>
</svg>