<?xml version="1.0" encoding="UTF-8"?>
<!DOCTYPE svg PUBLIC "-//W3C//DTD SVG 1.1//EN" "http://www.w3.org/Graphics/SVG/1.1/DTD/svg11.dtd">
<svg xmlns="http://www.w3.org/2000/svg" xml:space="preserve" width="580px" height="580px" shape-rendering="geometricPrecision" text-rendering="geometricPrecision" image-rendering="optimizeQuality" fill-rule="nonzero" clip-rule="nonzero" viewBox="0 0 5800 5800" xmlns:xlink="http://www.w3.org/1999/xlink">
	<title>switch_off icon</title>
	<desc>switch_off icon from the IconExperience.com I-Collection. Copyright by INCORS GmbH (www.incors.com).</desc>
		<path id="curve28"  d="M3000 1100l0 1400 -200 0 0 -1400 200 0zm900 1800l0 1900c0,165 -135,300 -300,300l-1400 0c-165,0 -300,-135 -300,-300l0 -1900 2000 0zm-1113 400c-275,0 -500,225 -500,500l0 405c0,275 225,500 500,500l200 0c276,0 500,-225 500,-500l0 -405c0,-275 -224,-500 -500,-500l-200 0zm200 200c165,0 300,135 300,300l0 405c0,165 -135,300 -300,300l-200 0c-165,0 -300,-135 -300,-300l0 -405c0,-165 135,-300 300,-300l200 0zm-787 -3400l1400 0c495,0 900,405 900,900l0 3800c0,495 -405,900 -900,900l-1400 0c-495,0 -900,-405 -900,-900l0 -3800c0,-495 405,-900 900,-900zm1400 200l-1400 0c-385,0 -700,315 -700,700l0 3800c0,385 315,700 700,700l1400 0c385,0 700,-315 700,-700l0 -3800c0,-385 -315,-700 -700,-700z"/>
</svg>