<?xml version="1.0" encoding="UTF-8"?>
<!DOCTYPE svg PUBLIC "-//W3C//DTD SVG 1.1//EN" "http://www.w3.org/Graphics/SVG/1.1/DTD/svg11.dtd">
<svg xmlns="http://www.w3.org/2000/svg" xml:space="preserve" width="580px" height="580px" shape-rendering="geometricPrecision" text-rendering="geometricPrecision" image-rendering="optimizeQuality" fill-rule="nonzero" clip-rule="nonzero" viewBox="0 0 5800 5800" xmlns:xlink="http://www.w3.org/1999/xlink">
	<title>switch3_off icon</title>
	<desc>switch3_off icon from the IconExperience.com I-Collection. Copyright by INCORS GmbH (www.incors.com).</desc>
		<path id="curve28"  d="M1669 1500l2431 0c773,0 1400,627 1400,1400 0,773 -627,1400 -1400,1400l-2400 0c-765,0 -1400,-635 -1400,-1400 0,-760 601,-1400 1369,-1400zm31 400c-552,0 -1000,448 -1000,1000 0,552 448,1000 1000,1000 552,0 1000,-448 1000,-1000 0,-552 -448,-1000 -1000,-1000zm0 1200c-55,0 -100,-45 -100,-100l0 -200c0,-55 44,-100 100,-100 55,0 100,45 100,100l0 200c0,55 -45,100 -100,100zm-1 200c166,0 301,-135 301,-300l0 -200c0,-165 -134,-299 -299,-300 -166,0 -301,135 -301,300l0 200c0,164 134,299 299,300z"/>
</svg>