<?xml version="1.0" encoding="UTF-8"?>
<!DOCTYPE svg PUBLIC "-//W3C//DTD SVG 1.1//EN" "http://www.w3.org/Graphics/SVG/1.1/DTD/svg11.dtd">
<svg xmlns="http://www.w3.org/2000/svg" xml:space="preserve" width="580px" height="580px" shape-rendering="geometricPrecision" text-rendering="geometricPrecision" image-rendering="optimizeQuality" fill-rule="nonzero" clip-rule="nonzero" viewBox="0 0 5800 5800" xmlns:xlink="http://www.w3.org/1999/xlink">
	<title>switch2_on icon</title>
	<desc>switch2_on icon from the IconExperience.com I-Collection. Copyright by INCORS GmbH (www.incors.com).</desc>
		<path id="curve28"  d="M1900 300l2000 0c440,0 800,360 800,800l0 3600c0,440 -360,800 -800,800l-2000 0c-440,0 -800,-360 -800,-800l0 -3600c0,-440 360,-800 800,-800zm1938 4400l-1887 0 107 213 1676 -13 104 -200zm-1038 -1805c-275,0 -500,225 -500,500l0 405c0,275 225,500 500,500l200 0c275,0 500,-225 500,-500l0 -405c0,-275 -225,-500 -500,-500l-200 0zm200 200c165,0 300,135 300,300l0 405c0,165 -135,300 -300,300l-200 0c-165,0 -300,-135 -300,-300l0 -405c0,-165 135,-300 300,-300l200 0zm695 -2195l0 0 0 0 0 0 0 0zm-1600 0l0 0 0 0 0 0 0 0zm-393 3645c-6,58 4,114 30,166l203 403 1921 -15 200 -386c28,-54 38,-109 32,-169l-183 -1736c-7,-67 -10,-132 -10,-199l0 -1709c0,-110 -90,-200 -200,-200l-1600 0c-110,0 -200,90 -200,200l0 1709c0,67 -3,132 -10,199l-183 1737zm205 -45l176 -1672c8,-73 12,-146 12,-219l0 -1709c0,0 0,0 0,0l0 0 0 0c0,0 0,0 0,0l1600 0c0,0 0,0 0,0l0 0 0 0c0,0 0,0 0,0l0 1709c0,73 4,146 12,219l176 1672 -1976 0zm1093 -3400l-200 0 0 1400 200 0 0 -1400z"/>
</svg>