<?xml version="1.0" encoding="UTF-8"?>
<!DOCTYPE svg PUBLIC "-//W3C//DTD SVG 1.1//EN" "http://www.w3.org/Graphics/SVG/1.1/DTD/svg11.dtd">
<svg xmlns="http://www.w3.org/2000/svg" xml:space="preserve" width="580px" height="580px" shape-rendering="geometricPrecision" text-rendering="geometricPrecision" image-rendering="optimizeQuality" fill-rule="nonzero" clip-rule="nonzero" viewBox="0 0 5800 5800" xmlns:xlink="http://www.w3.org/1999/xlink">
	<title>switch2_off icon</title>
	<desc>switch2_off icon from the IconExperience.com I-Collection. Copyright by INCORS GmbH (www.incors.com).</desc>
		<path id="curve28"  d="M1900 300l2000 0c440,0 800,360 800,800l0 3600c0,440 -360,800 -800,800l-2000 0c-440,0 -800,-360 -800,-800l0 -3600c0,-440 360,-800 800,-800zm900 4205c-165,0 -300,-135 -300,-300l0 -405c0,-165 135,-300 300,-300l200 0c165,0 300,135 300,300l0 405c0,165 -135,300 -300,300l-200 0zm200 200c275,0 500,-225 500,-500l0 -405c0,-275 -225,-500 -500,-500l-200 0c-275,0 -500,225 -500,500l0 405c0,275 225,500 500,500l200 0zm-1060 -4005l-203 402c-26,52 -36,107 -30,165l183 1732c7,66 10,131 10,198l0 1703c0,110 90,200 200,200l1600 0c110,0 200,-90 200,-200l0 -1703c0,-67 3,-132 10,-198l183 -1731c6,-59 -4,-115 -32,-168l-200 -385 -1921 -15zm-29 600l1978 0 -177 1678c-8,73 -12,146 -12,219l0 1703 -1600 0 0 -1703c0,-73 -4,-146 -12,-219l-177 -1678zm889 1600l200 0 0 -1400 -200 0 0 1400z"/>
</svg>