<?xml version="1.0" encoding="UTF-8"?>
<!DOCTYPE svg PUBLIC "-//W3C//DTD SVG 1.1//EN" "http://www.w3.org/Graphics/SVG/1.1/DTD/svg11.dtd">
<svg xmlns="http://www.w3.org/2000/svg" xml:space="preserve" width="580px" height="580px" shape-rendering="geometricPrecision" text-rendering="geometricPrecision" image-rendering="optimizeQuality" fill-rule="nonzero" clip-rule="nonzero" viewBox="0 0 5800 5800" xmlns:xlink="http://www.w3.org/1999/xlink">
	<title>sword icon</title>
	<desc>sword icon from the IconExperience.com I-Collection. Copyright by INCORS GmbH (www.incors.com).</desc>
		<path id="curve28"  d="M3761 2689l-2418 2611 -843 0 0 -843 2611 -2418 254 254 -2336 2336 142 142 2336 -2336 254 254zm890 -1098l-710 709 630 629 -142 142c-568,-569 -1131,-1132 -1700,-1700l142 -142 629 630 709 -710c-6,-32 -9,-66 -9,-99 0,-304 246,-550 550,-550 304,0 550,246 550,550 0,304 -246,550 -550,550 -33,0 -67,-3 -99,-9z"/>
</svg>