<?xml version="1.0" encoding="UTF-8"?>
<!DOCTYPE svg PUBLIC "-//W3C//DTD SVG 1.1//EN" "http://www.w3.org/Graphics/SVG/1.1/DTD/svg11.dtd">
<svg xmlns="http://www.w3.org/2000/svg" xml:space="preserve" width="580px" height="580px" shape-rendering="geometricPrecision" text-rendering="geometricPrecision" image-rendering="optimizeQuality" fill-rule="nonzero" clip-rule="nonzero" viewBox="0 0 5800 5800" xmlns:xlink="http://www.w3.org/1999/xlink">
	<title>symbol_questionmark icon</title>
	<desc>symbol_questionmark icon from the IconExperience.com I-Collection. Copyright by INCORS GmbH (www.incors.com).</desc>
	<path id="curve0"  d="M2900 300c1436,0 2600,1164 2600,2600 0,1436 -1164,2600 -2600,2600 -1436,0 -2600,-1164 -2600,-2600 0,-1436 1164,-2600 2600,-2600zm-100 4600l0 200 200 0 0 -200 -200 0zm76 -4199c-860,-1 -1632,449 -1632,1391l200 0c0,-794 661,-1192 1432,-1192 744,0 1480,354 1480,1192 0,651 -444,890 -843,1106 -373,201 -713,384 -713,831l0 522 200 0 0 -522c0,-328 289,-484 608,-656 448,-242 947,-511 947,-1281 1,-955 -820,-1391 -1679,-1391z"/>
</svg>