<?xml version="1.0" encoding="UTF-8"?>
<!DOCTYPE svg PUBLIC "-//W3C//DTD SVG 1.1//EN" "http://www.w3.org/Graphics/SVG/1.1/DTD/svg11.dtd">
<svg xmlns="http://www.w3.org/2000/svg" xml:space="preserve" width="580px" height="580px" shape-rendering="geometricPrecision" text-rendering="geometricPrecision" image-rendering="optimizeQuality" fill-rule="nonzero" clip-rule="nonzero" viewBox="0 0 5800 5800" xmlns:xlink="http://www.w3.org/1999/xlink">
	<title>symbol_at icon</title>
	<desc>symbol_at icon from the IconExperience.com I-Collection. Copyright by INCORS GmbH (www.incors.com).</desc>
	<path id="curve0" d="M4634 4837c-479,429 -1092,663 -1734,663 -1436,0 -2600,-1164 -2600,-2600 0,-1436 1164,-2600 2600,-2600 1436,0 2600,1164 2600,2600 0,358 -66,710 -208,1039 -123,284 -413,452 -717,480 -270,25 -546,-60 -730,-266 -106,-120 -182,-280 -205,-482 -238,367 -585,629 -1040,629 -768,0 -1200,-566 -1200,-1300 0,-855 745,-1600 1600,-1600 392,0 832,164 1033,519l71 -246 192 54 -400 1400c-123,430 -56,721 98,893 140,158 357,220 563,201 236,-22 460,-148 551,-360 132,-305 192,-630 192,-961 0,-1326 -1074,-2400 -2400,-2400 -1326,0 -2400,1074 -2400,2400 0,1326 1074,2400 2400,2400 592,0 1160,-216 1601,-611l133 148zm-931 -1760l234 -819c-52,-452 -529,-658 -937,-658 -745,0 -1400,655 -1400,1400 0,623 342,1100 1000,1100 585,0 934,-523 1103,-1023z"/>
</svg>