<?xml version="1.0" encoding="UTF-8"?>
<!DOCTYPE svg PUBLIC "-//W3C//DTD SVG 1.1//EN" "http://www.w3.org/Graphics/SVG/1.1/DTD/svg11.dtd">
<svg xmlns="http://www.w3.org/2000/svg" xml:space="preserve" width="580px" height="580px" shape-rendering="geometricPrecision" text-rendering="geometricPrecision" image-rendering="optimizeQuality" fill-rule="nonzero" clip-rule="nonzero" viewBox="0 0 5800 5800" xmlns:xlink="http://www.w3.org/1999/xlink">
	<title>symbol_hash icon</title>
	<desc>symbol_hash icon from the IconExperience.com I-Collection. Copyright by INCORS GmbH (www.incors.com).</desc>
	<path id="curve0"  d="M2900 300c1436,0 2600,1164 2600,2600 0,1436 -1164,2600 -2600,2600 -1436,0 -2600,-1164 -2600,-2600 0,-1436 1164,-2600 2600,-2600zm-1459 1800l-69 200 921 0 -413 1200 -921 0 -69 200 921 0 -379 1100 212 0 378 -1100 1285 0 -379 1100 211 0 379 -1100 841 0 69 -200 -841 0 413 -1200 841 0 69 -200 -841 0 379 -1100 -212 0 -378 1100 -1285 0 379 -1100 -211 0 -379 1100 -921 0zm2348 200l-414 1200 -1284 0 414 -1200 1284 0z"/>
</svg>