<?xml version="1.0" encoding="UTF-8"?>
<!DOCTYPE svg PUBLIC "-//W3C//DTD SVG 1.1//EN" "http://www.w3.org/Graphics/SVG/1.1/DTD/svg11.dtd">
<svg xmlns="http://www.w3.org/2000/svg" xml:space="preserve" width="580px" height="580px" shape-rendering="geometricPrecision" text-rendering="geometricPrecision" image-rendering="optimizeQuality" fill-rule="nonzero" clip-rule="nonzero" viewBox="0 0 5800 5800" xmlns:xlink="http://www.w3.org/1999/xlink">
	<title>symbol_q icon</title>
	<desc>symbol_q icon from the IconExperience.com I-Collection. Copyright by INCORS GmbH (www.incors.com).</desc>
	<path id="curve0" d="M2500 500l800 0c881,0 1600,719 1600,1600l0 1600c0,405 -152,775 -401,1058l472 471 -142 142 -471 -472c-283,249 -653,401 -1058,401l-800 0c-881,0 -1600,-719 -1600,-1600l0 -1600c0,-881 719,-1600 1600,-1600zm871 3129l986 987c214,-246 343,-566 343,-916l0 -1600c0,-771 -629,-1400 -1400,-1400l-800 0c-771,0 -1400,629 -1400,1400l0 1600c0,771 629,1400 1400,1400l800 0c350,0 670,-129 916,-343l-987 -986 142 -142z"/>
</svg>