<?xml version="1.0" encoding="UTF-8"?>
<!DOCTYPE svg PUBLIC "-//W3C//DTD SVG 1.1//EN" "http://www.w3.org/Graphics/SVG/1.1/DTD/svg11.dtd">
<svg xmlns="http://www.w3.org/2000/svg" xml:space="preserve" width="580px" height="580px" shape-rendering="geometricPrecision" text-rendering="geometricPrecision" image-rendering="optimizeQuality" fill-rule="nonzero" clip-rule="nonzero" viewBox="0 0 5800 5800" xmlns:xlink="http://www.w3.org/1999/xlink">
	<title>symbol_euro icon</title>
	<desc>symbol_euro icon from the IconExperience.com I-Collection. Copyright by INCORS GmbH (www.incors.com).</desc>
	<path id="curve0"  d="M2900 300c1436,0 2600,1164 2600,2600 0,1436 -1164,2600 -2600,2600 -1436,0 -2600,-1164 -2600,-2600 0,-1436 1164,-2600 2600,-2600zm-1105 2100c237,-688 855,-1298 1618,-1298 374,0 713,153 966,426l62 -220c-280,-261 -640,-406 -1028,-406 -874,0 -1579,701 -1828,1498l-744 0 -56 200 748 0c-43,196 -61,399 -52,600l-866 0 -56 200 941 0c115,815 715,1502 1577,1502 503,0 964,-240 1304,-599l-64 -227c-309,368 -750,626 -1240,626 -750,0 -1265,-597 -1375,-1302l1673 0 56 -200 -1749 0c-11,-201 9,-404 55,-600l1864 0 56 -200 -1862 0z"/>
</svg>