<?xml version="1.0" encoding="UTF-8"?>
<!DOCTYPE svg PUBLIC "-//W3C//DTD SVG 1.1//EN" "http://www.w3.org/Graphics/SVG/1.1/DTD/svg11.dtd">
<svg xmlns="http://www.w3.org/2000/svg" xml:space="preserve" width="580px" height="580px" shape-rendering="geometricPrecision" text-rendering="geometricPrecision" image-rendering="optimizeQuality" fill-rule="nonzero" clip-rule="nonzero" viewBox="0 0 5800 5800" xmlns:xlink="http://www.w3.org/1999/xlink">
	<title>paragraph icon</title>
	<desc>paragraph icon from the IconExperience.com I-Collection. Copyright by INCORS GmbH (www.incors.com).</desc>
	<path id="curve0" d="M1988 2000c-299,155 -488,463 -488,800 0,496 404,900 900,900l1000 0c148,0 288,36 412,100 299,-155 488,-462 488,-800 0,-496 -404,-900 -900,-900l-1000 0c-148,0 -288,-36 -412,-100zm2006 1925c195,171 306,416 306,675 0,496 -404,900 -900,900l-1000 0c-496,0 -900,-404 -900,-900l0 -100 200 0 0 100c0,385 315,700 700,700l1000 0c385,0 700,-315 700,-700 0,-385 -315,-700 -700,-700l-1000 0c-606,0 -1100,-494 -1100,-1100 0,-374 191,-722 506,-925 -194,-171 -306,-416 -306,-675 0,-496 404,-900 900,-900l1000 0c496,0 900,404 900,900l0 100 -200 0 0 -100c0,-385 -315,-700 -700,-700l-1000 0c-385,0 -700,315 -700,700 0,385 315,700 700,700l1000 0c606,0 1100,494 1100,1100 0,375 -192,722 -506,925z"/>
</svg>