<?xml version="1.0" encoding="UTF-8"?>
<!DOCTYPE svg PUBLIC "-//W3C//DTD SVG 1.1//EN" "http://www.w3.org/Graphics/SVG/1.1/DTD/svg11.dtd">
<svg xmlns="http://www.w3.org/2000/svg" xml:space="preserve" width="580px" height="580px" shape-rendering="geometricPrecision" text-rendering="geometricPrecision" image-rendering="optimizeQuality" fill-rule="nonzero" clip-rule="nonzero" viewBox="0 0 5800 5800" xmlns:xlink="http://www.w3.org/1999/xlink">
	<title>symbol_dollar_euro icon</title>
	<desc>symbol_dollar_euro icon from the IconExperience.com I-Collection. Copyright by INCORS GmbH (www.incors.com).</desc>
	<path id="curve0"  d="M2900 300c1436,0 2600,1164 2600,2600 0,1436 -1164,2600 -2600,2600 -1436,0 -2600,-1164 -2600,-2600 0,-1436 1164,-2600 2600,-2600zm-347 2400l-67 200 372 0c-37,131 -57,268 -61,404l-445 0 -67 200 519 0c56,580 449,1100 1058,1154 248,22 493,-39 709,-163 118,-68 228,-154 325,-255l-64 -227c-103,126 -225,231 -360,308 -180,104 -385,156 -593,138 -504,-45 -821,-479 -874,-955l1185 0 56 -200 -1249 0c4,-137 28,-273 69,-404l1295 0 56 -200 -1272 0c195,-404 589,-737 1054,-737 265,0 502,110 678,306l62 -220c-204,-185 -463,-286 -740,-286 -577,0 -1059,424 -1272,937l-374 0zm322 -925l200 0c0,-427 -348,-775 -775,-775l-200 0 0 -275 -200 0 0 275 -200 0c-427,0 -775,348 -775,775 0,427 348,775 775,775l200 0 0 1150 -200 0c-317,0 -575,-258 -575,-575l-200 0c0,427 348,775 775,775l200 0 0 275 200 0 0 -275 200 0c129,0 251,-32 358,-88 -10,-35 -18,-72 -26,-108l-624 0 92 -276 0 -878 200 0c50,0 99,6 145,19l321 0c7,-16 14,-31 22,-46 -134,-108 -303,-173 -488,-173l-200 0 0 -1150 200 0c317,0 575,258 575,575zm-975 -575l-200 0c-317,0 -575,258 -575,575 0,317 258,575 575,575l200 0 0 -1150z"/>
</svg>