<?xml version="1.0" encoding="UTF-8"?>
<!DOCTYPE svg PUBLIC "-//W3C//DTD SVG 1.1//EN" "http://www.w3.org/Graphics/SVG/1.1/DTD/svg11.dtd">
<svg xmlns="http://www.w3.org/2000/svg" xml:space="preserve" width="580px" height="580px" shape-rendering="geometricPrecision" text-rendering="geometricPrecision" image-rendering="optimizeQuality" fill-rule="nonzero" clip-rule="nonzero" viewBox="0 0 5800 5800" xmlns:xlink="http://www.w3.org/1999/xlink">
	<title>symbol_dollar_euro icon</title>
	<desc>symbol_dollar_euro icon from the IconExperience.com I-Collection. Copyright by INCORS GmbH (www.incors.com).</desc>
	<path id="curve0"  d="M2900 1500c0,-441 -359,-800 -800,-800l-300 0 0 1600 300 0c253,0 484,95 661,250 -8,17 -15,33 -23,50l-251 0c-115,-64 -247,-100 -387,-100l-300 0 0 1195 -135 405 0 0 923 0c5,21 11,42 16,63 -148,87 -320,137 -504,137l-300 0 0 400 -200 0 0 -400 -300 0c-551,0 -1000,-449 -1000,-1000l200 0c0,441 359,800 800,800l300 0 0 -1600 -300 0c-551,0 -1000,-449 -1000,-1000 0,-551 449,-1000 1000,-1000l300 0 0 -400 200 0 0 400 300 0c551,0 1000,449 1000,1000l-200 0zm-1300 -800l-300 0c-441,0 -800,359 -800,800 0,440 359,800 800,800l300 0 0 -1600zm2966 800c367,0 708,136 976,385l-62 220c-240,-260 -560,-405 -914,-405 -672,0 -1230,506 -1479,1100l1746 0 -57 200 -1761 0c-40,131 -66,268 -79,409 -8,96 -10,194 -4,291l1646 0 -56 200 -1567 0c105,609 536,1138 1181,1195 502,44 968,-211 1284,-589l65 227c-355,374 -845,607 -1367,561 -749,-66 -1255,-681 -1365,-1394l-791 0 56 -200 714 0c-6,-103 -4,-206 5,-309 12,-134 36,-265 70,-391l-590 0 56 -200 599 0c265,-704 910,-1300 1694,-1300z"/>
</svg>