<?xml version="1.0" encoding="UTF-8"?>
<!DOCTYPE svg PUBLIC "-//W3C//DTD SVG 1.1//EN" "http://www.w3.org/Graphics/SVG/1.1/DTD/svg11.dtd">
<svg xmlns="http://www.w3.org/2000/svg" xml:space="preserve" width="580px" height="580px" shape-rendering="geometricPrecision" text-rendering="geometricPrecision" image-rendering="optimizeQuality" fill-rule="nonzero" clip-rule="nonzero" viewBox="0 0 5800 5800" xmlns:xlink="http://www.w3.org/1999/xlink">
	<title>symbol_yen icon</title>
	<desc>symbol_yen icon from the IconExperience.com I-Collection. Copyright by INCORS GmbH (www.incors.com).</desc>
	<path id="curve0" d="M1500 3900l1300 0 0 -800 -1300 0 0 -200 1300 0 0 -58 -1481 -1439c-146,-142 -219,-323 -219,-526l0 -377 200 0 0 377c0,150 50,278 158,383l1442 1401 1442 -1401c108,-105 158,-233 158,-383l0 -377 200 0 0 377c0,203 -73,384 -219,526l-1481 1439 0 58 1300 0 0 200 -1300 0 0 800 1300 0 0 200 -1300 0 0 1200 -200 0 0 -1200 -1300 0 0 -200z"/>
</svg>