<?xml version="1.0" encoding="UTF-8"?>
<!DOCTYPE svg PUBLIC "-//W3C//DTD SVG 1.1//EN" "http://www.w3.org/Graphics/SVG/1.1/DTD/svg11.dtd">
<svg xmlns="http://www.w3.org/2000/svg" xml:space="preserve" width="580px" height="580px" shape-rendering="geometricPrecision" text-rendering="geometricPrecision" image-rendering="optimizeQuality" fill-rule="nonzero" clip-rule="nonzero" viewBox="0 0 5800 5800" xmlns:xlink="http://www.w3.org/1999/xlink">
	<title>paragraph icon</title>
	<desc>paragraph icon from the IconExperience.com I-Collection. Copyright by INCORS GmbH (www.incors.com).</desc>
	<path id="curve0"  d="M2900 300c1436,0 2600,1164 2600,2600 0,1436 -1164,2600 -2600,2600 -1436,0 -2600,-1164 -2600,-2600 0,-1436 1164,-2600 2600,-2600zm802 3379c-109,-56 -232,-87 -362,-87l-880 0c-430,0 -780,-351 -780,-780 0,-290 161,-555 418,-691 109,56 232,87 362,87l880 0c430,0 780,350 780,780 0,290 -161,555 -418,691zm-1785 -1682c-272,182 -437,487 -437,815 0,540 440,980 980,980l880 0c333,0 604,271 604,604 0,333 -271,604 -604,604l-880 0c-332,0 -604,-272 -604,-604l0 -88 -200 0 0 88c0,443 361,804 804,804l880 0c443,0 804,-361 804,-804 0,-221 -90,-423 -236,-568 -8,-8 -17,-17 -26,-25 273,-182 438,-487 438,-815 0,-540 -440,-980 -980,-980l-880 0c-333,0 -604,-271 -604,-604 0,-333 271,-604 604,-604l880 0c333,0 604,271 604,604l0 88 200 0 0 -88c0,-443 -361,-804 -804,-804l-880 0c-443,0 -804,361 -804,804 0,226 95,440 261,593z"/>
</svg>