<?xml version="1.0" encoding="UTF-8"?>
<!DOCTYPE svg PUBLIC "-//W3C//DTD SVG 1.1//EN" "http://www.w3.org/Graphics/SVG/1.1/DTD/svg11.dtd">
<svg xmlns="http://www.w3.org/2000/svg" xml:space="preserve" width="580px" height="580px" shape-rendering="geometricPrecision" text-rendering="geometricPrecision" image-rendering="optimizeQuality" fill-rule="nonzero" clip-rule="nonzero" viewBox="0 0 5800 5800" xmlns:xlink="http://www.w3.org/1999/xlink">
	<title>symbol_hash icon</title>
	<desc>symbol_hash icon from the IconExperience.com I-Collection. Copyright by INCORS GmbH (www.incors.com).</desc>
	<path id="curve0" d="M1050 1900l1188 0 482 -1400 212 0 -482 1400 1692 0 482 -1400 211 0 -482 1400 1086 0 -69 200 -1086 0 -550 1600 1085 0 -69 200 -1085 0 -482 1400 -212 0 482 -1400 -1692 0 -482 1400 -211 0 482 -1400 -1189 0 69 -200 1188 0 551 -1600 -1188 0 69 -200zm3023 200l-1692 0 -551 1600 1692 0 551 -1600z"/>
</svg>