<?xml version="1.0" encoding="UTF-8"?>
<!DOCTYPE svg PUBLIC "-//W3C//DTD SVG 1.1//EN" "http://www.w3.org/Graphics/SVG/1.1/DTD/svg11.dtd">
<svg xmlns="http://www.w3.org/2000/svg" xml:space="preserve" width="580px" height="580px" shape-rendering="geometricPrecision" text-rendering="geometricPrecision" image-rendering="optimizeQuality" fill-rule="nonzero" clip-rule="nonzero" viewBox="0 0 5800 5800" xmlns:xlink="http://www.w3.org/1999/xlink">
	<title>symbol_male icon</title>
	<desc>symbol_male icon from the IconExperience.com I-Collection. Copyright by INCORS GmbH (www.incors.com).</desc>
		<path id="curve28" d="M4900 1041l-1400 1400c248,282 399,652 399,1058 0,883 -716,1599 -1600,1599 -883,0 -1600,-716 -1600,-1599 0,-884 717,-1600 1600,-1600 407,0 778,151 1060,401l1400 -1400 -1259 0 0 -200 1600 0 0 1600 -200 0 0 -1259zm-2601 1058c-773,0 -1400,626 -1400,1400 0,773 627,1399 1400,1399 773,0 1400,-626 1400,-1399 0,-774 -627,-1400 -1400,-1400z"/>
</svg>