<?xml version="1.0" encoding="UTF-8"?>
<!DOCTYPE svg PUBLIC "-//W3C//DTD SVG 1.1//EN" "http://www.w3.org/Graphics/SVG/1.1/DTD/svg11.dtd">
<svg xmlns="http://www.w3.org/2000/svg" xml:space="preserve" width="580px" height="580px" shape-rendering="geometricPrecision" text-rendering="geometricPrecision" image-rendering="optimizeQuality" fill-rule="nonzero" clip-rule="nonzero" viewBox="0 0 5800 5800" xmlns:xlink="http://www.w3.org/1999/xlink">
	<title>symbol_dollar icon</title>
	<desc>symbol_dollar icon from the IconExperience.com I-Collection. Copyright by INCORS GmbH (www.incors.com).</desc>
	<path id="curve0"  d="M2900 300c1436,0 2600,1164 2600,2600 0,1436 -1164,2600 -2600,2600 -1436,0 -2600,-1164 -2600,-2600 0,-1436 1164,-2600 2600,-2600zm98 200l-200 0 0 400 -398 0c-578,0 -1050,472 -1050,1050 0,578 472,1050 1050,1050l398 0 0 1700 -443 0c-468,0 -850,-382 -850,-850l-200 0c0,578 471,1050 1050,1050l443 0 0 400 200 0 0 -400 397 0c579,0 1050,-472 1050,-1050 0,-578 -471,-1050 -1050,-1050l-397 0 0 -1700 397 0c468,0 850,382 850,850l200 0c0,-578 -471,-1050 -1050,-1050l-397 0 0 -400zm0 2500l0 1700 397 0c468,0 850,-382 850,-850 0,-468 -382,-850 -850,-850l-397 0zm-200 -200l0 -1700 -398 0c-468,0 -850,382 -850,850 0,468 382,850 850,850l398 0z"/>
</svg>