<?xml version="1.0" encoding="UTF-8"?>
<!DOCTYPE svg PUBLIC "-//W3C//DTD SVG 1.1//EN" "http://www.w3.org/Graphics/SVG/1.1/DTD/svg11.dtd">
<svg xmlns="http://www.w3.org/2000/svg" xml:space="preserve" width="580px" height="580px" shape-rendering="geometricPrecision" text-rendering="geometricPrecision" image-rendering="optimizeQuality" fill-rule="nonzero" clip-rule="nonzero" viewBox="0 0 5800 5800" xmlns:xlink="http://www.w3.org/1999/xlink">
	<title>symbol_copyright icon</title>
	<desc>symbol_copyright icon from the IconExperience.com I-Collection. Copyright by INCORS GmbH (www.incors.com).</desc>
	<path id="curve0"  d="M2900 300c1436,0 2600,1164 2600,2600 0,1436 -1164,2600 -2600,2600 -1436,0 -2600,-1164 -2600,-2600 0,-1436 1164,-2600 2600,-2600zm1100 3023c0,455 -372,827 -827,827l-546 0c-455,0 -827,-372 -827,-827l0 -846c0,-455 372,-827 827,-827l546 0c455,0 827,372 827,827l-200 0c0,-345 -282,-627 -627,-627l-546 0c-345,0 -627,282 -627,627l0 846c0,345 282,627 627,627l546 0c345,0 627,-282 627,-627l200 0zm-1100 -2423c-1105,0 -2000,895 -2000,2000 0,1105 895,2000 2000,2000 1105,0 2000,-895 2000,-2000 0,-1105 -895,-2000 -2000,-2000zm0 200c-994,0 -1800,806 -1800,1800 0,994 806,1800 1800,1800 994,0 1800,-806 1800,-1800 0,-994 -806,-1800 -1800,-1800z"/>
</svg>