<?xml version="1.0" encoding="UTF-8"?>
<!DOCTYPE svg PUBLIC "-//W3C//DTD SVG 1.1//EN" "http://www.w3.org/Graphics/SVG/1.1/DTD/svg11.dtd">
<svg xmlns="http://www.w3.org/2000/svg" xml:space="preserve" width="580px" height="580px" shape-rendering="geometricPrecision" text-rendering="geometricPrecision" image-rendering="optimizeQuality" fill-rule="nonzero" clip-rule="nonzero" viewBox="0 0 5800 5800" xmlns:xlink="http://www.w3.org/1999/xlink">
	<title>symbol_dollar icon</title>
	<desc>symbol_dollar icon from the IconExperience.com I-Collection. Copyright by INCORS GmbH (www.incors.com).</desc>
	<path id="curve0" d="M4400 1850c0,-523 -427,-950 -950,-950l-450 0 0 1900 450 0c634,0 1150,516 1150,1150 0,633 -516,1150 -1150,1150l-450 0 0 400 -200 0 0 -400 -500 0c-633,0 -1150,-516 -1150,-1150l200 0c0,523 427,950 950,950l500 0 0 -1900 -450 0c-634,0 -1150,-516 -1150,-1150 0,-634 516,-1150 1150,-1150l450 0 0 -400 200 0 0 400 450 0c634,0 1150,516 1150,1150l-200 0zm-1600 -950l-450 0c-523,0 -950,427 -950,950 0,523 427,950 950,950l450 0 0 -1900zm200 4000l450 0c523,0 950,-427 950,-950 0,-523 -427,-950 -950,-950l-450 0 0 1900z"/>
</svg>