<?xml version="1.0" encoding="UTF-8"?>
<!DOCTYPE svg PUBLIC "-//W3C//DTD SVG 1.1//EN" "http://www.w3.org/Graphics/SVG/1.1/DTD/svg11.dtd">
<svg xmlns="http://www.w3.org/2000/svg" xml:space="preserve" width="580px" height="580px" shape-rendering="geometricPrecision" text-rendering="geometricPrecision" image-rendering="optimizeQuality" fill-rule="nonzero" clip-rule="nonzero" viewBox="0 0 5800 5800" xmlns:xlink="http://www.w3.org/1999/xlink">
	<title>symbol_q icon</title>
	<desc>symbol_q icon from the IconExperience.com I-Collection. Copyright by INCORS GmbH (www.incors.com).</desc>
	<path id="curve0"  d="M2900 300c1436,0 2600,1164 2600,2600 0,1436 -1164,2600 -2600,2600 -1436,0 -2600,-1164 -2600,-2600 0,-1436 1164,-2600 2600,-2600zm387 3161l762 762c156,-188 251,-429 251,-691l0 -1263c0,-596 -487,-1083 -1084,-1083l-631 0c-597,0 -1084,487 -1084,1083l0 1263c0,596 487,1083 1084,1083l631 0c263,0 504,-94 692,-250l-763 -763 142 -141zm904 904c192,-224 309,-516 309,-833l0 -1263c0,-707 -577,-1283 -1284,-1283l-631 0c-707,0 -1284,576 -1284,1283l0 1263c0,707 577,1283 1284,1283l631 0c318,0 609,-116 834,-308l358 358 141 -142 -358 -358z"/>
</svg>