<?xml version="1.0" encoding="UTF-8"?>
<!DOCTYPE svg PUBLIC "-//W3C//DTD SVG 1.1//EN" "http://www.w3.org/Graphics/SVG/1.1/DTD/svg11.dtd">
<svg xmlns="http://www.w3.org/2000/svg" xml:space="preserve" width="580px" height="580px" shape-rendering="geometricPrecision" text-rendering="geometricPrecision" image-rendering="optimizeQuality" fill-rule="nonzero" clip-rule="nonzero" viewBox="0 0 5800 5800" xmlns:xlink="http://www.w3.org/1999/xlink">
	<title>symbol_euro icon</title>
	<desc>symbol_euro icon from the IconExperience.com I-Collection. Copyright by INCORS GmbH (www.incors.com).</desc>
	<path id="curve0" d="M489 3300l1082 0c-1,-14 -7,-164 -5,-164 0,-215 25,-427 74,-636l-925 0 57 -200 922 0c298,-956 1144,-1798 2192,-1798 468,0 900,174 1239,494l-62 220c-310,-330 -722,-514 -1177,-514 -937,0 -1696,751 -1982,1598l2277 0 -57 200 -2279 0c-51,206 -79,423 -79,636 0,0 5,150 6,164l2126 0 -57 200 -2048 0c123,809 686,1520 1541,1595 645,57 1244,-265 1653,-748l65 228c-449,477 -1072,778 -1735,720 -960,-85 -1598,-883 -1726,-1795l-1159 0 57 -200z"/>
</svg>