<?xml version="1.0" encoding="UTF-8"?>
<!DOCTYPE svg PUBLIC "-//W3C//DTD SVG 1.1//EN" "http://www.w3.org/Graphics/SVG/1.1/DTD/svg11.dtd">
<svg xmlns="http://www.w3.org/2000/svg" xml:space="preserve" width="580px" height="580px" shape-rendering="geometricPrecision" text-rendering="geometricPrecision" image-rendering="optimizeQuality" fill-rule="nonzero" clip-rule="nonzero" viewBox="0 0 5800 5800" xmlns:xlink="http://www.w3.org/1999/xlink">
	<title>symbol_percent icon</title>
	<desc>symbol_percent icon from the IconExperience.com I-Collection. Copyright by INCORS GmbH (www.incors.com).</desc>
	<path id="curve0"  d="M4600 4147c0,-246 -201,-447 -447,-447l-206 0c-246,0 -447,201 -447,447l0 506c0,246 201,447 447,447l206 0c246,0 447,-201 447,-447l0 -506zm200 0l0 506c0,356 -291,647 -647,647l-206 0c-356,0 -647,-291 -647,-647l0 -506c0,-356 291,-647 647,-647l206 0c356,0 647,291 647,647zm-2500 -3000c0,-246 -201,-447 -447,-447l-206 0c-246,0 -447,201 -447,447l0 506c0,246 201,447 447,447l206 0c246,0 447,-201 447,-447l0 -506zm200 0l0 506c0,356 -291,647 -647,647l-206 0c-356,0 -647,-291 -647,-647l0 -506c0,-356 291,-647 647,-647l206 0c356,0 647,291 647,647zm-1156 4153l2880 -4800 232 0 -2880 4800 -232 0z"/>
</svg>