<?xml version="1.0" encoding="UTF-8"?>
<!DOCTYPE svg PUBLIC "-//W3C//DTD SVG 1.1//EN" "http://www.w3.org/Graphics/SVG/1.1/DTD/svg11.dtd">
<svg xmlns="http://www.w3.org/2000/svg" xml:space="preserve" width="580px" height="580px" shape-rendering="geometricPrecision" text-rendering="geometricPrecision" image-rendering="optimizeQuality" fill-rule="nonzero" clip-rule="nonzero" viewBox="0 0 5800 5800" xmlns:xlink="http://www.w3.org/1999/xlink">
	<title>symbol_yuan icon</title>
	<desc>symbol_yuan icon from the IconExperience.com I-Collection. Copyright by INCORS GmbH (www.incors.com).</desc>
	<path id="curve0" d="M5300 4400l0 325c0,327 -280,575 -600,575l-600 0c-324,0 -600,-276 -600,-600l0 -2400 -1000 0 0 400c0,1373 -654,2236 -1974,2596l-52 -192c1233,-336 1826,-1122 1826,-2404l0 -400 -1600 0 0 -200c1467,0 2933,0 4400,0l0 200 -1400 0 0 2400c0,213 187,400 400,400l600 0c209,0 400,-158 400,-375l0 -325 200 0zm-4200 -3900l3600 0 0 200 -3600 0 0 -200z"/>
</svg>