<?xml version="1.0" encoding="UTF-8"?>
<!DOCTYPE svg PUBLIC "-//W3C//DTD SVG 1.1//EN" "http://www.w3.org/Graphics/SVG/1.1/DTD/svg11.dtd">
<svg xmlns="http://www.w3.org/2000/svg" xml:space="preserve" width="580px" height="580px" shape-rendering="geometricPrecision" text-rendering="geometricPrecision" image-rendering="optimizeQuality" fill-rule="nonzero" clip-rule="nonzero" viewBox="0 0 5800 5800" xmlns:xlink="http://www.w3.org/1999/xlink">
	<title>symbol_at icon</title>
	<desc>symbol_at icon from the IconExperience.com I-Collection. Copyright by INCORS GmbH (www.incors.com).</desc>
	<path id="curve0"  d="M2900 300c1436,0 2600,1164 2600,2600 0,1436 -1164,2600 -2600,2600 -1436,0 -2600,-1164 -2600,-2600 0,-1436 1164,-2600 2600,-2600zm548 3250c45,234 192,416 419,493 321,110 733,-19 873,-344 109,-253 160,-523 160,-799 0,-1105 -895,-2000 -2000,-2000 -1105,0 -2000,895 -2000,2000 0,1105 895,2000 2000,2000 494,0 966,-180 1334,-510l-133 -148c-331,296 -757,458 -1201,458 -994,0 -1800,-806 -1800,-1800 0,-994 806,-1800 1800,-1800 994,0 1800,806 1800,1800 0,248 -45,492 -144,721 -98,228 -401,310 -624,233 -336,-115 -335,-483 -252,-775l304 -1064 -192 -54 -39 135c-168,-246 -488,-360 -777,-360 -663,0 -1240,577 -1240,1240 0,675 425,1012 936,1012 239,0 441,-93 606,-243 62,-58 119,-123 170,-195zm215 -1139c-40,-329 -392,-475 -687,-475 -553,0 -1040,487 -1040,1040 0,541 335,812 736,812 186,0 343,-72 471,-190 153,-140 268,-344 344,-569l176 -618z"/>
</svg>