<?xml version="1.0" encoding="UTF-8"?>
<!DOCTYPE svg PUBLIC "-//W3C//DTD SVG 1.1//EN" "http://www.w3.org/Graphics/SVG/1.1/DTD/svg11.dtd">
<svg xmlns="http://www.w3.org/2000/svg" xml:space="preserve" width="580px" height="580px" shape-rendering="geometricPrecision" text-rendering="geometricPrecision" image-rendering="optimizeQuality" fill-rule="nonzero" clip-rule="nonzero" viewBox="0 0 5800 5800" xmlns:xlink="http://www.w3.org/1999/xlink">
	<title>symbol_questionmark icon</title>
	<desc>symbol_questionmark icon from the IconExperience.com I-Collection. Copyright by INCORS GmbH (www.incors.com).</desc>
	<path id="curve0"  d="M2873 501c933,0 1827,472 1827,1511 0,837 -543,1129 -1031,1392 -351,190 -669,362 -669,725l0 571 -200 0 0 -571c0,-483 369,-682 774,-900 439,-237 926,-500 926,-1217 0,-923 -810,-1311 -1627,-1311 -819,0 -1573,409 -1573,1311l-200 0c0,-1016 841,-1511 1773,-1511zm-73 4599l200 0 0 200 -200 0 0 -200z"/>
</svg>