<?xml version="1.0" encoding="UTF-8"?>
<!DOCTYPE svg PUBLIC "-//W3C//DTD SVG 1.1//EN" "http://www.w3.org/Graphics/SVG/1.1/DTD/svg11.dtd">
<svg xmlns="http://www.w3.org/2000/svg" xml:space="preserve" width="580px" height="580px" shape-rendering="geometricPrecision" text-rendering="geometricPrecision" image-rendering="optimizeQuality" fill-rule="nonzero" clip-rule="nonzero" viewBox="0 0 5800 5800" xmlns:xlink="http://www.w3.org/1999/xlink">
	<title>symbol_percent icon</title>
	<desc>symbol_percent icon from the IconExperience.com I-Collection. Copyright by INCORS GmbH (www.incors.com).</desc>
	<path id="curve0"  d="M2900 300c1436,0 2600,1164 2600,2600 0,1436 -1164,2600 -2600,2600 -1436,0 -2600,-1164 -2600,-2600 0,-1436 1164,-2600 2600,-2600zm1340 3598l0 404c0,186 -152,338 -338,338l-164 0c-186,0 -338,-152 -338,-338l0 -404c0,-186 152,-338 338,-338l164 0c186,0 338,152 338,338zm200 0c0,-296 -242,-538 -538,-538l-164 0c-296,0 -538,242 -538,538l0 404c0,297 241,538 538,538l164 0c296,0 538,-242 538,-538l0 -404zm-2040 -2400l0 404c0,186 -152,338 -338,338l-164 0c-186,0 -338,-152 -338,-338l0 -404c0,-186 152,-338 338,-338l164 0c186,0 338,152 338,338zm200 0c0,-296 -242,-538 -538,-538l-164 0c-296,0 -538,242 -538,538l0 404c0,296 242,538 538,538l164 0c296,0 538,-242 538,-538l0 -404zm-956 3302l232 0 2280 -3800 -232 0 -2280 3800z"/>
</svg>