<?xml version="1.0" encoding="UTF-8"?>
<!DOCTYPE svg PUBLIC "-//W3C//DTD SVG 1.1//EN" "http://www.w3.org/Graphics/SVG/1.1/DTD/svg11.dtd">
<svg xmlns="http://www.w3.org/2000/svg" xml:space="preserve" width="580px" height="580px" shape-rendering="geometricPrecision" text-rendering="geometricPrecision" image-rendering="optimizeQuality" fill-rule="nonzero" clip-rule="nonzero" viewBox="0 0 5800 5800" xmlns:xlink="http://www.w3.org/1999/xlink">
	<title>symbol_yuan icon</title>
	<desc>symbol_yuan icon from the IconExperience.com I-Collection. Copyright by INCORS GmbH (www.incors.com).</desc>
	<path id="curve0"  d="M2900 300c1436,0 2600,1164 2600,2600 0,1436 -1164,2600 -2600,2600 -1436,0 -2600,-1164 -2600,-2600 0,-1436 1164,-2600 2600,-2600zm-1530 1900l0 200 1067 0 0 261c0,496 -130,858 -350,1118 -221,261 -534,426 -898,525l52 192c402,-109 749,-293 998,-588 250,-296 398,-700 398,-1247l0 -261 566 0 0 1652c0,121 52,233 134,315 81,81 193,133 314,133l418 0c120,0 233,-47 315,-125 81,-78 133,-185 133,-305l0 -227 -200 0 0 227c0,63 -28,119 -71,160 -45,44 -109,70 -177,70l-418 0c-65,0 -127,-29 -173,-75 -46,-45 -75,-107 -75,-173l0 -1652 1027 0 0 -200 -3060 0zm278 -1100l0 200 2504 0 0 -200 -2504 0z"/>
</svg>