<?xml version="1.0" encoding="UTF-8"?>
<!DOCTYPE svg PUBLIC "-//W3C//DTD SVG 1.1//EN" "http://www.w3.org/Graphics/SVG/1.1/DTD/svg11.dtd">
<svg xmlns="http://www.w3.org/2000/svg" xml:space="preserve" width="580px" height="580px" shape-rendering="geometricPrecision" text-rendering="geometricPrecision" image-rendering="optimizeQuality" fill-rule="nonzero" clip-rule="nonzero" viewBox="0 0 5800 5800" xmlns:xlink="http://www.w3.org/1999/xlink">
	<title>symbol_yen icon</title>
	<desc>symbol_yen icon from the IconExperience.com I-Collection. Copyright by INCORS GmbH (www.incors.com).</desc>
	<path id="curve0"  d="M2900 300c1436,0 2600,1164 2600,2600 0,1436 -1164,2600 -2600,2600 -1436,0 -2600,-1164 -2600,-2600 0,-1436 1164,-2600 2600,-2600zm1500 800l-200 0 0 314c0,121 -39,223 -127,308l-1173 1139 -1173 -1139c-88,-85 -127,-187 -127,-308l0 -314 -200 0 0 314c0,174 63,329 188,451l1212 1177 0 58 -1067 0 0 200 1067 0 0 600 -1067 0 0 200 1067 0 0 1000 200 0 0 -1000 1067 0 0 -200 -1067 0 0 -600 1067 0 0 -200 -1067 0 0 -58 1213 -1177c124,-122 187,-277 187,-451l0 -314z"/>
</svg>