<?xml version="1.0" encoding="UTF-8"?>
<!DOCTYPE svg PUBLIC "-//W3C//DTD SVG 1.1//EN" "http://www.w3.org/Graphics/SVG/1.1/DTD/svg11.dtd">
<svg xmlns="http://www.w3.org/2000/svg" xml:space="preserve" width="580px" height="580px" shape-rendering="geometricPrecision" text-rendering="geometricPrecision" image-rendering="optimizeQuality" fill-rule="nonzero" clip-rule="nonzero" viewBox="0 0 5800 5800" xmlns:xlink="http://www.w3.org/1999/xlink">
	<title>symbol_pound icon</title>
	<desc>symbol_pound icon from the IconExperience.com I-Collection. Copyright by INCORS GmbH (www.incors.com).</desc>
	<path id="curve0"  d="M1900 3500c0,594 -163,1297 -625,1707 115,-39 220,-88 325,-137 285,-133 577,-270 1100,-270 329,0 629,142 915,277 242,114 474,223 685,223 284,0 556,-114 717,-355l166 110c-197,296 -534,445 -883,445 -255,0 -507,-119 -770,-243 -266,-125 -545,-257 -830,-257 -480,0 -752,127 -1016,250 -270,127 -534,250 -984,250l0 -203c759,-208 1000,-1101 1000,-1797 0,-71 -2,-137 -6,-200l-794 0 0 -200 776 0c-22,-173 -55,-320 -86,-459 -47,-209 -90,-402 -90,-641 0,-968 860,-1700 1800,-1700 752,0 1475,471 1717,1193l-189 63c-215,-641 -862,-1056 -1528,-1056 -830,0 -1600,642 -1600,1500 0,219 41,401 85,597 34,151 69,311 92,503l1423 0 0 200 -1406 0c4,63 6,130 6,200z"/>
</svg>