<?xml version="1.0" encoding="UTF-8"?>
<!DOCTYPE svg PUBLIC "-//W3C//DTD SVG 1.1//EN" "http://www.w3.org/Graphics/SVG/1.1/DTD/svg11.dtd">
<svg xmlns="http://www.w3.org/2000/svg" xml:space="preserve" width="580px" height="580px" shape-rendering="geometricPrecision" text-rendering="geometricPrecision" image-rendering="optimizeQuality" fill-rule="nonzero" clip-rule="nonzero" viewBox="0 0 5800 5800" xmlns:xlink="http://www.w3.org/1999/xlink">
	<title>synagogue icon</title>
	<desc>synagogue icon from the IconExperience.com I-Collection. Copyright by INCORS GmbH (www.incors.com).</desc>
	<path id="curve0"  d="M1394 1870l1506 -1721 1506 1721 -705 705 -217 -375 289 -500 -578 0 -295 -512 -295 512 -578 0 289 500 -217 375 -705 -705zm3706 2630l0 -800c0,-221 -179,-400 -400,-400 -220,0 -400,180 -400,400l0 800 800 0zm-3600 0l0 -800c0,-220 -180,-400 -400,-400 -221,0 -400,179 -400,400l0 800c267,0 533,0 800,0zm1869 -2499l-58 -101 116 0 -58 101zm-880 -101l-58 101 -58 -101 116 0zm1211 800l0 2800 -300 0 0 -1200c0,-276 -224,-500 -500,-500 -276,0 -500,224 -500,500l0 1200 -300 0 0 -2800 505 0 209 362 86 150 86 -150 209 -362 505 0zm-865 0l130 0 -65 113 -65 -113zm592 -200l-58 -101 -58 101 116 0zm-173 -300l-173 -300 -362 0 -173 300 173 300 362 0 173 -300zm-289 -500l-65 -113 -65 113 130 0zm-534 699l-58 101 116 0 -58 -101zm2269 -540l800 800 0 2841 -1600 0 0 -2841 800 -800zm-3600 0l800 800 0 2841 -1600 0 0 -2841 800 -800z"/>
</svg>