<?xml version="1.0" encoding="UTF-8"?>
<!DOCTYPE svg PUBLIC "-//W3C//DTD SVG 1.1//EN" "http://www.w3.org/Graphics/SVG/1.1/DTD/svg11.dtd">
<svg xmlns="http://www.w3.org/2000/svg" xml:space="preserve" width="580px" height="580px" shape-rendering="geometricPrecision" text-rendering="geometricPrecision" image-rendering="optimizeQuality" fill-rule="nonzero" clip-rule="nonzero" viewBox="0 0 5800 5800" xmlns:xlink="http://www.w3.org/1999/xlink">
	<title>synagogue icon</title>
	<desc>synagogue icon from the IconExperience.com I-Collection. Copyright by INCORS GmbH (www.incors.com).</desc>
	<path id="curve0" d="M4500 4300l400 0 0 -600c0,-110 -90,-200 -200,-200 -111,0 -200,89 -200,200l0 600zm-3400 -2441l162 162 1638 -1872 1638 1872 162 -162 800 800 0 2841c-700,0 -1400,0 -2100,0l0 -1200c0,-276 -224,-500 -500,-500 -276,0 -500,224 -500,500l0 1200c-700,0 -1400,0 -2100,0l0 -2841 800 -800zm3297 303l-1497 -1711 -1497 1711 497 497 0 2641 300 0 0 -1000c0,-387 313,-700 700,-700 387,0 700,313 700,700l0 1000 300 0 0 -2641 497 -497zm-3297 -21l-600 600 0 2559 1200 0 0 -2559 -600 -600zm3600 0l-600 600 0 2559 1200 0 0 -2559 -600 -600zm-1505 -441l578 0 -289 500 289 500 -578 0 -295 512 -295 -512 -578 0 289 -500 -289 -500 578 0 295 -512 295 512zm116 200l58 101 58 -101 -116 0zm-346 800l-130 0 65 113 65 -113zm-534 -699l58 -101 -116 0 58 101zm996 499l-58 -101 -58 101 116 0zm-173 -300l-173 -300 -362 0 -173 300 173 300 362 0 173 -300zm-289 -500l-65 -113 -65 113 130 0zm-534 699l-58 101 116 0 -58 -101zm-1531 1901l400 0 0 -600c0,-111 -89,-200 -200,-200 -110,0 -200,90 -200,200l0 600zm-200 200l0 -800c0,-221 179,-400 400,-400 220,0 400,180 400,400l0 800 -800 0zm3600 0l0 -800c0,-220 180,-400 400,-400 221,0 400,179 400,400l0 800c-267,0 -533,0 -800,0z"/>
</svg>