<?xml version="1.0" encoding="UTF-8"?>
<!DOCTYPE svg PUBLIC "-//W3C//DTD SVG 1.1//EN" "http://www.w3.org/Graphics/SVG/1.1/DTD/svg11.dtd">
<svg xmlns="http://www.w3.org/2000/svg" xml:space="preserve" width="580px" height="580px" shape-rendering="geometricPrecision" text-rendering="geometricPrecision" image-rendering="optimizeQuality" fill-rule="nonzero" clip-rule="nonzero" viewBox="0 0 5800 5800" xmlns:xlink="http://www.w3.org/1999/xlink">
	<title>system icon</title>
	<desc>system icon from the IconExperience.com I-Collection. Copyright by INCORS GmbH (www.incors.com).</desc>
	<path id="curve0"  d="M2900 1550c83,0 150,67 150,150 0,83 -67,150 -150,150 -83,0 -150,-67 -150,-150 0,-83 67,-150 150,-150zm100 2950l0 800 1100 0 0 200 -2400 0 0 -200 1100 0 0 -800 200 0zm2500 -4000l0 3800 -5200 0 0 -3800 5200 0zm-200 200l-4800 0 0 3400 4800 0 0 -3400zm-2400 300c773,0 1400,627 1400,1400 0,773 -627,1400 -1400,1400 -773,0 -1400,-627 -1400,-1400 0,-773 627,-1400 1400,-1400zm0 200c-663,0 -1200,537 -1200,1200 0,663 537,1200 1200,1200 663,0 1200,-537 1200,-1200 0,-663 -537,-1200 -1200,-1200zm-300 800l400 0 0 1000 200 0 0 200 -600 0 0 -200 200 0 0 -800 -200 0 0 -200z"/>
</svg>