<?xml version="1.0" encoding="UTF-8"?>
<!DOCTYPE svg PUBLIC "-//W3C//DTD SVG 1.1//EN" "http://www.w3.org/Graphics/SVG/1.1/DTD/svg11.dtd">
<svg xmlns="http://www.w3.org/2000/svg" xml:space="preserve" width="580px" height="580px" shape-rendering="geometricPrecision" text-rendering="geometricPrecision" image-rendering="optimizeQuality" fill-rule="nonzero" clip-rule="nonzero" viewBox="0 0 5800 5800" xmlns:xlink="http://www.w3.org/1999/xlink">
	<title>tab_pane icon</title>
	<desc>tab_pane icon from the IconExperience.com I-Collection. Copyright by INCORS GmbH (www.incors.com).</desc>
		<path id="curve28"  d="M2700 1200l0 500 2500 0 100 0 0 100 0 3300 -4800 0 0 -3900c0,-165 135,-300 300,-300l1600 0c165,0 300,135 300,300zm2000 0l0 300 -800 0 0 -300c0,-112 -37,-216 -100,-300l600 0c165,0 300,135 300,300zm-1000 0l0 300 -800 0 0 -300c0,-112 -37,-216 -100,-300l600 0c165,0 300,135 300,300z"/>
</svg>