<?xml version="1.0" encoding="utf-8"?>
<!-- Generator: Adobe Illustrator 19.2.1, SVG Export Plug-In . SVG Version: 6.00 Build 0)  -->
<svg version="1.1" id="tab_x5F_gi" xmlns="http://www.w3.org/2000/svg" xmlns:xlink="http://www.w3.org/1999/xlink" x="0px" y="0px"
	 width="580px" height="580px" viewBox="0 0 580 580" style="enable-background:new 0 0 580 580;" xml:space="preserve">
<g>
	<path d="M370,270v30h-20v-30c0-5.5-4.5-10-10-10h-51c-1.5-7.4-4.6-14.2-9-20h60C356.5,240,370,253.5,370,270z"/>
	<path d="M470,270v30h-20v-30c0-5.5-4.5-10-10-10h-51c-1.5-7.4-4.6-14.2-9-20h60C456.5,240,470,253.5,470,270z"/>
	<path d="M270,320v-50c0-16.5-13.5-30-30-30H80c-16.5,0-30,13.5-30,30v70h480v-20H270z"/>
</g>
</svg>
