<?xml version="1.0" encoding="UTF-8"?>
<!DOCTYPE svg PUBLIC "-//W3C//DTD SVG 1.1//EN" "http://www.w3.org/Graphics/SVG/1.1/DTD/svg11.dtd">
<svg xmlns="http://www.w3.org/2000/svg" xml:space="preserve" width="580px" height="580px" shape-rendering="geometricPrecision" text-rendering="geometricPrecision" image-rendering="optimizeQuality" fill-rule="nonzero" clip-rule="nonzero" viewBox="0 0 5800 5800" xmlns:xlink="http://www.w3.org/1999/xlink">
	<title>tab_pane icon</title>
	<desc>tab_pane icon from the IconExperience.com I-Collection. Copyright by INCORS GmbH (www.incors.com).</desc>
		<path id="curve28" d="M2700 1200l0 500 2600 0 0 3400 -4800 0 0 -3900c0,-165 135,-300 300,-300l1600 0c165,0 300,135 300,300zm1000 0l0 300 -200 0 0 -300c0,-55 -45,-100 -100,-100l-510 0c-15,-74 -46,-142 -90,-200l600 0c165,0 300,135 300,300zm1000 0l0 300 -200 0 0 -300c0,-55 -45,-100 -100,-100l-510 0c-15,-74 -46,-142 -90,-200l600 0c165,0 300,135 300,300zm-2200 0c0,-55 -45,-100 -100,-100l-1600 0c-55,0 -100,45 -100,100l0 3700 4400 0 0 -3000 -2600 0 0 -700z"/>
</svg>