<?xml version="1.0" encoding="utf-8"?>
<!-- Generator: Adobe Illustrator 19.2.1, SVG Export Plug-In . SVG Version: 6.00 Build 0)  -->
<svg version="1.1" id="tab_x5F_container_x5F_gi" xmlns="http://www.w3.org/2000/svg" xmlns:xlink="http://www.w3.org/1999/xlink"
	 x="0px" y="0px" width="580px" height="580px" viewBox="0 0 580 580" style="enable-background:new 0 0 580 580;"
	 xml:space="preserve">
<g>
	<path d="M340,100c5.5,0,10,4.5,10,10v30h20v-30c0-16.5-13.5-30-30-30h-60c4.4,5.8,7.5,12.6,9,20H340z"/>
	<path d="M440,100c5.5,0,10,4.5,10,10v30h20v-30c0-16.5-13.5-30-30-30h-60c4.4,5.8,7.5,12.6,9,20H440z"/>
	<path d="M270,160v-50c0-16.5-13.5-30-30-30H80c-16.5,0-30,13.5-30,30v390h480V160H270z M510,480H70V180h440V480z"/>
</g>
</svg>
