<?xml version="1.0" encoding="utf-8"?>
<!-- Generator: Adobe Illustrator 20.1.0, SVG Export Plug-In . SVG Version: 6.00 Build 0)  -->
<svg version="1.1" id="Ebene_1" xmlns="http://www.w3.org/2000/svg" xmlns:xlink="http://www.w3.org/1999/xlink" x="0px" y="0px"
	 width="580px" height="580px" viewBox="0 0 580 580" style="enable-background:new 0 0 580 580;" xml:space="preserve">
<path d="M467,366.8c-38.4,0-70.2,28.3-74.9,66.3H302V128H188.8c-5.1-37-36.7-65.3-74.8-65.3c-41.6,0-75.5,33.7-75.5,75.4
	s33.9,75.7,75.5,75.7c38.1,0,69.6-28.8,74.8-64.8H281v305h111.4c5.6,36,36.9,63.8,74.6,63.8c41.6,0,75.5-33.9,75.5-75.5
	S508.6,366.8,467,366.8z M114,192.5c-30.1,0-54.5-24.4-54.5-54.5S84,83.5,114,83.5s54.5,24.4,54.5,54.5S144.1,192.5,114,192.5z
	 M467,496.5c-30.1,0-54.5-24.4-54.5-54.5s24.4-54.5,54.5-54.5s54.5,24.4,54.5,54.5S497.1,496.5,467,496.5z"/>
</svg>
