<?xml version="1.0" encoding="UTF-8"?>
<!DOCTYPE svg PUBLIC "-//W3C//DTD SVG 1.1//EN" "http://www.w3.org/Graphics/SVG/1.1/DTD/svg11.dtd">
<svg xmlns="http://www.w3.org/2000/svg" xml:space="preserve" width="580px" height="580px" shape-rendering="geometricPrecision" text-rendering="geometricPrecision" image-rendering="optimizeQuality" fill-rule="nonzero" clip-rule="nonzero" viewBox="0 0 5800 5800" xmlns:xlink="http://www.w3.org/1999/xlink">
	<title>tablet_computer_touch icon</title>
	<desc>tablet_computer_touch icon from the IconExperience.com I-Collection. Copyright by INCORS GmbH (www.incors.com).</desc>
		<path id="curve28"  d="M2600 5100c-55,0 -100,-45 -100,-100 0,-55 45,-100 100,-100l600 0c55,0 100,45 100,100 0,55 -45,100 -100,100l-600 0zm2400 -4500l0 4600c0,165 -135,300 -300,300l-3600 0c-165,0 -300,-135 -300,-300l0 -4600c0,-165 135,-300 300,-300l3600 0c165,0 300,135 300,300zm-200 4600l0 -4600c0,-55 -45,-100 -100,-100l-3600 0c-55,0 -100,45 -100,100l0 4600c0,55 45,100 100,100l3600 0c55,0 100,-45 100,-100zm-200 -4500l0 4000 -3400 0 0 -4000 3400 0zm-200 200l-3000 0 0 3600 3000 0 0 -3600zm-1497 1200c276,0 500,224 500,500 0,276 -224,500 -500,500 -276,0 -500,-224 -500,-500 0,-276 224,-500 500,-500zm0 200c-166,0 -300,134 -300,300 0,166 134,300 300,300 166,0 300,-134 300,-300 0,-166 -134,-300 -300,-300zm0 -650c525,0 950,425 950,950 0,525 -425,950 -950,950 -525,0 -950,-425 -950,-950 0,-525 425,-950 950,-950zm0 200c-414,0 -750,336 -750,750 0,414 336,750 750,750 414,0 750,-336 750,-750 0,-414 -336,-750 -750,-750zm-3 -650c773,0 1400,627 1400,1400 0,773 -627,1400 -1400,1400 -773,0 -1400,-627 -1400,-1400 0,-773 627,-1400 1400,-1400zm0 200c-663,0 -1200,537 -1200,1200 0,663 537,1200 1200,1200 663,0 1200,-537 1200,-1200 0,-663 -537,-1200 -1200,-1200z"/>
</svg>