<?xml version="1.0" encoding="utf-8"?>
<!-- Generator: Adobe Illustrator 26.5.0, SVG Export Plug-In . SVG Version: 6.00 Build 0)  -->
<svg version="1.1" id="Ebene_1" xmlns="http://www.w3.org/2000/svg" xmlns:xlink="http://www.w3.org/1999/xlink" x="0px" y="0px"
	 viewBox="0 0 580 580" style="enable-background:new 0 0 580 580;" xml:space="preserve">
<style type="text/css">
	.st0{fill:black;}
</style>
<g>
	<path class="st0" d="M310.2,179h20V101h80V179h20V101h80V179h20V41h-520v460h199.6v-20h-79.6v-80h79.6v-20h-79.6v-80h79.6v-20
		h-79.6v-80h79.6v-20h-79.6v-80h80V179h20V101h80V179z M110.2,481h-80v-80h80V481z M110.2,381h-80v-80h80V381z M110.2,281h-80v-80
		h80V281z M110.2,181h-80v-80h80V181z M30.2,81V61h480v20H30.2z"/>
	<path class="st0" d="M249.8,219v320h320V219H249.8z M549.8,519h-280V239h280V519z"/>
	<path class="st0" d="M360.4,483.7l52.8-167.1h86.6v-20h-91c-6.1,0-11.6,4-13.4,9.9l-35.5,112.5l-10.4-31.1
		c-1.7-6.1-7.1-10.3-13.5-10.3h-16.2v20h11.8L360.4,483.7z"/>
</g>
</svg>
