<?xml version="1.0" encoding="UTF-8" standalone="no"?>
<!-- Generator: Adobe Illustrator 20.1.0, SVG Export Plug-In . SVG Version: 6.00 Build 0)  -->

<svg
   version="1.1"
   id="Ebene_1"
   x="0px"
   y="0px"
   width="580px"
   height="580px"
   viewBox="0 0 580 580"
   style="enable-background:new 0 0 580 580;"
   xml:space="preserve"
   xmlns="http://www.w3.org/2000/svg"
   xmlns:svg="http://www.w3.org/2000/svg"><defs
   id="defs7" />
<path
   d="M 307.7,136.863 307.71378,453 H 402 v 69.5 c 0,5.5 4.5,10.5 10,10.5 h 120 c 5.5,0 10,-5 10,-10.5 v -160 C 542,357 537.5,353 532,353 H 412 c -5.5,0 -10,4 -10,9.5 V 432 H 329.18622 L 329.2,136.863 M 178,57.5 C 178.02216,52.000045 173.5,48 168,48 H 48 c -5.5,0 -10,4 -10,9.5 v 160 c 0,5.5 4.5,10.5 10,10.5 h 120 c 5.5,0 10,-5 10,-10.5 M 158,208 H 58 V 68 H 158 Z M 522,513 H 422 V 373 h 100 z"
   id="path2" />
<path
   id="rect1313"
   style="fill:none;fill-opacity:1;stroke:#000000;stroke-width:20;stroke-linejoin:round"
   d="m 167.99876,136.86316 75.59055,-37.795278 75.59055,37.795278 -75.59054,37.79528 z" /></svg>
