<?xml version="1.0" encoding="UTF-8"?>
<!DOCTYPE svg PUBLIC "-//W3C//DTD SVG 1.1//EN" "http://www.w3.org/Graphics/SVG/1.1/DTD/svg11.dtd">
<svg xmlns="http://www.w3.org/2000/svg" xml:space="preserve" width="580px" height="580px" shape-rendering="geometricPrecision" text-rendering="geometricPrecision" image-rendering="optimizeQuality" fill-rule="nonzero" clip-rule="nonzero" viewBox="0 0 5800 5800" xmlns:xlink="http://www.w3.org/1999/xlink">
	<title>tables icon</title>
	<desc>tables icon from the IconExperience.com I-Collection. Copyright by INCORS GmbH (www.incors.com).</desc>
		<path id="curve29"  d="M4300,1500 4300,1100 3500,1100 3500,1500 3300,1500 3300,1100 2500,1100 2500,1500 2300,1500 2300,1100 1500,1100 1500,1500 1300,1500 1300,500 5500,500 5500,4100 4700,4100 4700,3900 5300,3900 5300,3100 4700,3100 4700,2900 5300,2900 5300,2100 4700,2100 4700,1900 5300,1900 5300,1100 4500,1100 4500,1500z"/>
	<path id="curve28"  d="M4500 1700l0 3600 -4200 0 0 -3600 4200 0zm-200 3400l0 -800 -800 0 0 800 800 0zm0 -1000l0 -800 -800 0 0 800 800 0zm0 -1000l0 -800 -800 0 0 800 800 0zm-3800 2000l800 0 0 -800 -800 0 0 800zm1000 0l800 0 0 -800 -800 0 0 800zm1000 0l800 0 0 -800 -800 0 0 800zm-2000 -2800l0 800 800 0 0 -800 -800 0zm0 1000l0 800 800 0 0 -800 -800 0zm2800 -1000l-800 0 0 800 800 0 0 -800zm-1000 0l-800 0 0 800 800 0 0 -800zm1000 1000l-800 0 0 800 800 0 0 -800zm-1000 0l-800 0 0 800 800 0 0 -800z"/>
</svg>