<?xml version="1.0" encoding="UTF-8"?>
<!DOCTYPE svg PUBLIC "-//W3C//DTD SVG 1.1//EN" "http://www.w3.org/Graphics/SVG/1.1/DTD/svg11.dtd">
<svg xmlns="http://www.w3.org/2000/svg" xml:space="preserve" width="580px" height="580px" shape-rendering="geometricPrecision" text-rendering="geometricPrecision" image-rendering="optimizeQuality" fill-rule="nonzero" clip-rule="nonzero" viewBox="0 0 5800 5800" xmlns:xlink="http://www.w3.org/1999/xlink">
	<title>table_tennis_racket icon</title>
	<desc>table_tennis_racket icon from the IconExperience.com I-Collection. Copyright by INCORS GmbH (www.incors.com).</desc>
	<path id="curve0" d="M1518 3471c110,-99 72,-371 36,-496 -200,-697 -135,-1295 394,-1824 781,-781 2003,-941 2823,-122 819,820 659,2042 -122,2823 -529,529 -1127,594 -1824,394 -109,-31 -439,-101 -524,0l-776 968c-7,9 -15,19 -25,26 -112,105 -265,60 -405,-29 -115,-73 -223,-177 -276,-230 -53,-53 -157,-161 -230,-276 -91,-143 -136,-299 -23,-412 4,-5 8,-8 13,-12l939 -810zm2990 240c702,-703 862,-1800 121,-2540 -740,-741 -1837,-581 -2540,121 -318,319 -464,673 -436,1119l1736 1736c446,28 800,-118 1119,-436zm-2857 -91l-943 814c-26,26 5,93 50,164 62,98 154,194 202,242 48,48 144,140 242,202 69,44 134,74 162,53 2,-2 4,-4 6,-6l776 -969c157,-190 528,-125 734,-66 60,17 120,32 178,45l-1357 -1357c13,58 28,118 45,178 61,211 85,538 -95,700z"/>
</svg>