<?xml version="1.0" encoding="UTF-8"?>
<!DOCTYPE svg PUBLIC "-//W3C//DTD SVG 1.1//EN" "http://www.w3.org/Graphics/SVG/1.1/DTD/svg11.dtd">
<svg xmlns="http://www.w3.org/2000/svg" xml:space="preserve" width="580px" height="580px" shape-rendering="geometricPrecision" text-rendering="geometricPrecision" image-rendering="optimizeQuality" fill-rule="nonzero" clip-rule="nonzero" viewBox="0 0 5800 5800" xmlns:xlink="http://www.w3.org/1999/xlink">
	<title>tables icon</title>
	<desc>tables icon from the IconExperience.com I-Collection. Copyright by INCORS GmbH (www.incors.com).</desc>
		<path id="curve29"  d="M5500 500l0 3600 -800 0 0 -200 600 0 0 -800 -600 0 0 -200 600 0 0 -800 -600 0 0 -200 600 0 0 -800 -800 0 0 400 -200 0 0 -400 -800 0 0 400 -200 0 0 -400 -800 0 0 400 -200 0 0 -400 -800 0 0 400 -200 0 0 -1000 4200 0zm-4000 400l3800 0 0 -200 -3800 0 0 200z"/>
	<path id="curve28"  d="M4500 1700l0 3600 -4200 0 0 -3600 4200 0zm-4000 400l3800 0 0 -200 -3800 0 0 200zm3800 200l-800 0 0 800 800 0 0 -800zm-1000 0l-800 0 0 800 800 0 0 -800zm-1000 0l-800 0 0 800 800 0 0 -800zm-1000 0l-800 0 0 800 800 0 0 -800zm3000 1000l-800 0 0 800 800 0 0 -800zm-1000 0l-800 0 0 800 800 0 0 -800zm-1000 0l-800 0 0 800 800 0 0 -800zm-1000 0l-800 0 0 800 800 0 0 -800zm3000 1000l-800 0 0 800 800 0 0 -800zm-1000 0l-800 0 0 800 800 0 0 -800zm-1000 0l-800 0 0 800 800 0 0 -800zm-1000 0l-800 0 0 800 800 0 0 -800z"/>
</svg>