<?xml version="1.0" encoding="utf-8"?>
<!-- Generator: Adobe Illustrator 20.1.0, SVG Export Plug-In . SVG Version: 6.00 Build 0)  -->
<svg version="1.1" id="Ebene_1" xmlns="http://www.w3.org/2000/svg" xmlns:xlink="http://www.w3.org/1999/xlink" x="0px" y="0px"
	 width="580px" height="580px" viewBox="0 0 580 580" style="enable-background:new 0 0 580 580;" xml:space="preserve">
<path d="M532,353H412c-5.5,0-10,4-10,9.5V432H302V127H178V57.5c0-5.5-4.5-9.5-10-9.5H48c-5.5,0-10,4-10,9.5v160
	c0,5.5,4.5,10.5,10,10.5h120c5.5,0,10-5,10-10.5V148h103v305h121v69.5c0,5.5,4.5,10.5,10,10.5h120c5.5,0,10-5,10-10.5v-160
	C542,357,537.5,353,532,353z M158,208H58V68h100V208z M522,513H422V373h100V513z"/>
</svg>
