<?xml version="1.0" encoding="utf-8"?>
<!-- Generator: Adobe Illustrator 20.1.0, SVG Export Plug-In . SVG Version: 6.00 Build 0)  -->
<svg version="1.1" id="Ebene_1" xmlns="http://www.w3.org/2000/svg" xmlns:xlink="http://www.w3.org/1999/xlink" x="0px" y="0px"
	 width="580px" height="580px" viewBox="0 0 580 580" style="enable-background:new 0 0 580 580;" xml:space="preserve">
<path d="M412,306h120c5.5,0,10-4.8,10-10.3v-160c0-5.5-4.5-9.8-10-9.8H412c-5.5,0-10,4.3-10,9.8V205H302v-78H178V57.5
	c0-5.5-4.5-9.5-10-9.5H48c-5.5,0-10,4-10,9.5v160c0,5.5,4.5,10.5,10,10.5h120c5.5,0,10-5,10-10.5V148h103v305h121v69.5
	c0,5.5,4.5,10.5,10,10.5h120c5.5,0,10-5,10-10.5v-160c0-5.5-4.5-9.5-10-9.5H412c-5.5,0-10,4-10,9.5V432H302V226h100v69.8
	C402,301.3,406.5,306,412,306z M422,146h100v140H422V146z M158,208H58V68h100V208z M422,373h100v140H422V373z"/>
</svg>
