<?xml version="1.0" encoding="UTF-8" standalone="no"?>
<!-- Generator: Adobe Illustrator 20.1.0, SVG Export Plug-In . SVG Version: 6.00 Build 0)  -->

<svg
   version="1.1"
   id="Ebene_1"
   x="0px"
   y="0px"
   width="580px"
   height="580px"
   viewBox="0 0 580 580"
   style="enable-background:new 0 0 580 580;"
   xml:space="preserve"
   xmlns="http://www.w3.org/2000/svg"
   xmlns:svg="http://www.w3.org/2000/svg"><defs
   id="defs1" />
<path
   d="m 412,306 h 120 c 5.5,0 10,-4.8 10,-10.3 v -160 c 0,-5.5 -4.5,-9.8 -10,-9.8 H 412 c -5.5,0 -10,4.3 -10,9.8 V 205 H 302 V 127 H 178 V 57.5 C 178,52 173.5,48 168,48 H 48 c -5.5,0 -10,4 -10,9.5 v 160 c 0,5.5 4.5,10.5 10,10.5 h 120 c 5.5,0 10,-5 10,-10.5 V 148 h 103 v 305 h 121 v 69.5 c 0,5.5 4.5,10.5 10,10.5 h 120 c 5.5,0 10,-5 10,-10.5 v -160 C 542,357 537.5,353 532,353 H 412 c -5.5,0 -10,4 -10,9.5 V 432 H 302 V 226 h 100 v 69.8 c 0,5.5 4.5,10.2 10,10.2 z M 422,146 H 522 V 286 H 422 Z m 0,227 H 522 V 513 H 422 Z"
   id="path1" />
</svg>
