<?xml version="1.0" encoding="utf-8"?>
<!-- Generator: Adobe Illustrator 27.8.0, SVG Export Plug-In . SVG Version: 6.00 Build 0)  -->
<svg version="1.1"
	 id="Ebene_1" xmlns:svg="http://www.w3.org/2000/svg" xmlns:sodipodi="http://sodipodi.sourceforge.net/DTD/sodipodi-0.dtd" xmlns:inkscape="http://www.inkscape.org/namespaces/inkscape"
	 xmlns="http://www.w3.org/2000/svg" xmlns:xlink="http://www.w3.org/1999/xlink" x="0px" y="0px" viewBox="0 0 580 580"
	 style="enable-background:new 0 0 580 580;" xml:space="preserve">
<style type="text/css">
	.st0{stroke:#000000;stroke-width:20;stroke-linejoin:round;}
</style>
<sodipodi:namedview  bordercolor="#666666" borderopacity="1.0" id="namedview6" inkscape:current-layer="Ebene_1" inkscape:cx="289.66781" inkscape:cy="290" inkscape:pagecheckerboard="0" inkscape:pageopacity="0.0" inkscape:pageshadow="2" inkscape:window-height="1234" inkscape:window-maximized="0" inkscape:window-width="1981" inkscape:window-x="182" inkscape:window-y="182" inkscape:zoom="1.5051724" pagecolor="#ffffff" showgrid="false">
	</sodipodi:namedview>
<path id="path2" d="M307.7,136.9l0,316.1H402v69.5c0,5.5,4.5,10.5,10,10.5h120c5.5,0,10-5,10-10.5v-160c0-5.5-4.5-9.5-10-9.5H412
	c-5.5,0-10,4-10,9.5V432h-72.8l0-295.1 M178,57.5c0-5.5-4.5-9.5-10-9.5H48c-5.5,0-10,4-10,9.5v160c0,5.5,4.5,10.5,10,10.5h120
	c5.5,0,10-5,10-10.5 M158,208H58V68h100V208z M522,513H422V373h100V513z"/>
<path id="rect1313" class="st0" d="M168,136.9l75.6-37.8l75.6,37.8l-75.6,37.8L168,136.9z"/>
</svg>
