<?xml version="1.0" encoding="UTF-8"?>
<!DOCTYPE svg PUBLIC "-//W3C//DTD SVG 1.1//EN" "http://www.w3.org/Graphics/SVG/1.1/DTD/svg11.dtd">
<svg xmlns="http://www.w3.org/2000/svg" xml:space="preserve" width="580px" height="580px" shape-rendering="geometricPrecision" text-rendering="geometricPrecision" image-rendering="optimizeQuality" fill-rule="nonzero" clip-rule="nonzero" viewBox="0 0 5800 5800" xmlns:xlink="http://www.w3.org/1999/xlink">
	<title>table_selection_column icon</title>
	<desc>table_selection_column icon from the IconExperience.com I-Collection. Copyright by INCORS GmbH (www.incors.com).</desc>
		<path id="curve28" d="M5500 700l0 4600 -5200 0 0 -4600 5200 0zm-1200 4400l0 -800 -800 0 0 800 800 0zm0 -1000l0 -800 -800 0 0 800 800 0zm0 -1000l0 -800 -800 0 0 800 800 0zm0 -1000l0 -800 -800 0 0 800 800 0zm200 -800l0 800 800 0 0 -800 -800 0zm0 1000l0 800 800 0 0 -800 -800 0zm0 1000l0 800 800 0 0 -800 -800 0zm0 1000l0 800 800 0 0 -800 -800 0zm-1200 800l0 -800 -800 0 0 800 800 0zm0 -1000l0 -800 -800 0 0 800 800 0zm0 -1000l0 -800 -800 0 0 800 800 0zm0 -1000l0 -800 -800 0 0 800 800 0zm-2000 3000l0 -800 -800 0 0 800 800 0zm0 -1000l0 -800 -800 0 0 800 800 0zm0 -1000l0 -800 -800 0 0 800 800 0zm0 -1000l0 -800 -800 0 0 800 800 0zm-800 -1000l4800 0 0 -200 -4800 0 0 200z"/>
</svg>