<?xml version="1.0" encoding="UTF-8"?>
<!DOCTYPE svg PUBLIC "-//W3C//DTD SVG 1.1//EN" "http://www.w3.org/Graphics/SVG/1.1/DTD/svg11.dtd">
<svg xmlns="http://www.w3.org/2000/svg" xml:space="preserve" width="580px" height="580px" shape-rendering="geometricPrecision" text-rendering="geometricPrecision" image-rendering="optimizeQuality" fill-rule="nonzero" clip-rule="nonzero" viewBox="0 0 5800 5800" xmlns:xlink="http://www.w3.org/1999/xlink">
	<title>table_selection_all icon</title>
	<desc>table_selection_all icon from the IconExperience.com I-Collection. Copyright by INCORS GmbH (www.incors.com).</desc>
		<path id="curve28" d="M5500 700l0 4600 -5200 0 0 -4600 5200 0zm-1000 3600l800 0 0 -200 -800 0 0 -800 800 0 0 -200 -800 0 0 -800 800 0 0 -200 -800 0 0 -800 -200 0 0 800 -800 0 0 -800 -200 0 0 800 -800 0 0 -800 -200 0 0 800 -800 0 0 -800 -200 0 0 800 -800 0 0 200 800 0 0 800 -800 0 0 200 800 0 0 800 -800 0 0 200 800 0 0 800 200 0 0 -800 800 0 0 800 200 0 0 -800 800 0 0 800 200 0 0 -800 800 0 0 800 200 0 0 -800zm-1000 -1000l800 0 0 800 -800 0 0 -800zm0 -1000l800 0 0 800 -800 0 0 -800zm-1000 1000l800 0 0 800 -800 0 0 -800zm-1000 0l800 0 0 800 -800 0 0 -800zm1000 -1000l800 0 0 800 -800 0 0 -800zm-1000 0l800 0 0 800 -800 0 0 -800zm-1000 -1200l4800 0 0 -200 -4800 0 0 200z"/>
</svg>