<?xml version="1.0" encoding="UTF-8"?>
<!DOCTYPE svg PUBLIC "-//W3C//DTD SVG 1.1//EN" "http://www.w3.org/Graphics/SVG/1.1/DTD/svg11.dtd">
<svg xmlns="http://www.w3.org/2000/svg" xml:space="preserve" width="580px" height="580px" shape-rendering="geometricPrecision" text-rendering="geometricPrecision" image-rendering="optimizeQuality" fill-rule="nonzero" clip-rule="nonzero" viewBox="0 0 5800 5800" xmlns:xlink="http://www.w3.org/1999/xlink">
	<title>table_tennis_racket icon</title>
	<desc>table_tennis_racket icon from the IconExperience.com I-Collection. Copyright by INCORS GmbH (www.incors.com).</desc>
	<path id="curve0"  d="M2301 4246l-776 968c-7,9 -15,19 -25,26 -112,105 -265,60 -405,-29 -115,-73 -223,-177 -276,-230 -53,-53 -157,-161 -230,-276 -91,-143 -136,-299 -23,-412 1,-1 11,-11 13,-12l939 -810c41,-36 61,-99 69,-170 13,-110 -7,-234 -33,-326 -48,-166 -79,-323 -94,-474l1839 1839c-151,-15 -308,-46 -474,-94 -109,-31 -439,-101 -524,0zm2348 -394c-297,297 -640,473 -1060,496l-2137 -2137c23,-420 199,-763 496,-1060 375,-375 868,-616 1372,-659 509,-43 1028,115 1451,537 423,423 580,942 537,1451 -43,504 -284,997 -659,1372z"/>
</svg>