<?xml version="1.0" encoding="UTF-8"?>
<!DOCTYPE svg PUBLIC "-//W3C//DTD SVG 1.1//EN" "http://www.w3.org/Graphics/SVG/1.1/DTD/svg11.dtd">
<svg xmlns="http://www.w3.org/2000/svg" xml:space="preserve" width="580px" height="580px" shape-rendering="geometricPrecision" text-rendering="geometricPrecision" image-rendering="optimizeQuality" fill-rule="nonzero" clip-rule="nonzero" viewBox="0 0 5800 5800" xmlns:xlink="http://www.w3.org/1999/xlink">
	<title>tag icon</title>
	<desc>tag icon from the IconExperience.com I-Collection. Copyright by INCORS GmbH (www.incors.com).</desc>
		<path id="curve28" d="M5067 3226l-1838 1838 -2267 -2267 1838 -1838 2267 2267zm-282 0l-1985 -1985 -1556 1556 1985 1984 1556 -1555zm-3305 -2049c0,165 -134,300 -300,300 -165,0 -300,-134 -300,-300 0,-165 135,-300 300,-300 166,0 300,135 300,300zm-200 0c0,-55 -44,-100 -100,-100 -55,0 -100,44 -100,100 0,56 45,100 100,100 56,0 100,-44 100,-100zm3999 1695c194,193 194,514 0,707l-1697 1697c-193,194 -514,193 -707,0l-2375 -2377 1 -1928c0,-261 212,-473 474,-473l1929 0 2375 2374zm-141 142l-2316 -2316 -1847 0c-152,0 -274,122 -274,273l-2 1845 2318 2319c116,116 308,116 424,0l1697 -1697c116,-116 116,-308 0,-424z"/>
</svg>