<?xml version="1.0" encoding="UTF-8"?>
<!DOCTYPE svg PUBLIC "-//W3C//DTD SVG 1.1//EN" "http://www.w3.org/Graphics/SVG/1.1/DTD/svg11.dtd">
<svg xmlns="http://www.w3.org/2000/svg" xml:space="preserve" width="580px" height="580px" shape-rendering="geometricPrecision" text-rendering="geometricPrecision" image-rendering="optimizeQuality" fill-rule="nonzero" clip-rule="nonzero" viewBox="0 0 5800 5800" xmlns:xlink="http://www.w3.org/1999/xlink">
	<title>tag icon</title>
	<desc>tag icon from the IconExperience.com I-Collection. Copyright by INCORS GmbH (www.incors.com).</desc>
		<path id="curve28"  d="M4785 3226l-1556 1555 -1985 -1984 1556 -1556 1985 1985zm494 -354c194,193 194,514 0,707l-1697 1697c-193,193 -513,194 -707,0l-2375 -2377 1 -1928c0,-261 212,-473 474,-473l1929 0 2375 2374zm-212 354l-2267 -2267 -1838 1838 2267 2267 1838 -1838zm-3745 -2190c-78,-78 -205,-78 -283,0 -78,78 -78,205 0,283 78,78 205,78 283,0 78,-78 78,-205 0,-283z"/>
</svg>