<?xml version="1.0" encoding="UTF-8"?>
<!DOCTYPE svg PUBLIC "-//W3C//DTD SVG 1.1//EN" "http://www.w3.org/Graphics/SVG/1.1/DTD/svg11.dtd">
<svg xmlns="http://www.w3.org/2000/svg" xml:space="preserve" width="580px" height="580px" shape-rendering="geometricPrecision" text-rendering="geometricPrecision" image-rendering="optimizeQuality" fill-rule="nonzero" clip-rule="nonzero" viewBox="0 0 5800 5800" xmlns:xlink="http://www.w3.org/1999/xlink">
	<title>tags icon</title>
	<desc>tags icon from the IconExperience.com I-Collection. Copyright by INCORS GmbH (www.incors.com).</desc>
		<path id="curve28"  d="M4582 3526l-1982 -1985 -1556 1556 1982 1985 1556 -1556zm495 -354c193,193 193,514 0,707l-1698 1697c-193,193 -513,194 -706,0l-2376 -2377 1 -1928c0,-261 212,-473 474,-473l1929 0 2376 2374zm-212 354l-2265 -2267 -1838 1838 2265 2267 1838 -1838zm-3746 -2190c-78,-78 -204,-78 -283,0 -78,78 -78,205 0,283 79,78 205,78 283,0 78,-78 78,-205 0,-283zm4358 1236c193,193 193,514 0,707l-75 76c-31,-122 -93,-234 -184,-324l-2434 -2433 -2012 0c-23,0 -46,1 -69,3 35,-231 235,-403 469,-403l1929 0 2376 2374z"/>
</svg>