<?xml version="1.0" encoding="UTF-8"?>
<!DOCTYPE svg PUBLIC "-//W3C//DTD SVG 1.1//EN" "http://www.w3.org/Graphics/SVG/1.1/DTD/svg11.dtd">
<svg xmlns="http://www.w3.org/2000/svg" xml:space="preserve" width="580px" height="580px" shape-rendering="geometricPrecision" text-rendering="geometricPrecision" image-rendering="optimizeQuality" fill-rule="nonzero" clip-rule="nonzero" viewBox="0 0 5800 5800" xmlns:xlink="http://www.w3.org/1999/xlink">
	<title>tank_truck icon</title>
	<desc>tank_truck icon from the IconExperience.com I-Collection. Copyright by INCORS GmbH (www.incors.com).</desc>
		<path id="curve28" d="M950 4000c304,0 550,246 550,550 0,304 -246,550 -550,550 -304,0 -550,-246 -550,-550 0,-304 246,-550 550,-550zm1850 -2000l0 0 300 0c202,0 324,245 370,558 17,109 25,226 25,342 0,116 -8,233 -25,342 -46,313 -168,558 -370,558l-2400 0c-202,0 -324,-245 -370,-558 -17,-109 -25,-226 -25,-342 0,-116 8,-233 25,-342 46,-313 168,-558 370,-558l300 0 0 0c0,-75 60,-133 157,-165 64,-22 150,-35 243,-35 93,0 179,13 243,35 97,32 157,90 157,165l200 0c0,-89 81,-140 157,-165 64,-22 150,-35 243,-35 93,0 179,13 243,35 97,32 157,90 157,165zm-200 100c0,-20 4,-69 -19,-76 -44,-15 -108,-24 -181,-24 -73,0 -137,9 -181,24 -30,10 -19,46 -19,76l0 100c-200,0 -400,0 -600,0l0 -100c2,-27 12,-66 -19,-76 -44,-15 -108,-24 -181,-24 -73,0 -137,9 -182,24 -25,8 -18,48 -18,70l0 106 -500 0c-81,0 -140,170 -173,387 -14,98 -22,205 -22,313 0,108 8,215 22,313 33,217 92,387 173,387l2400 0c81,0 140,-170 173,-387 14,-98 22,-205 22,-313 0,-108 -8,-215 -22,-313 -33,-217 -92,-387 -173,-387l-500 0 0 -100zm200 2100l900 0 0 -1500c0,-55 45,-100 100,-100l900 0c33,0 63,16 81,42l698 897c14,18 21,40 21,61l0 800 -200 0 0 -766 -649 -834 -751 0 0 1500c0,55 -45,100 -100,100l-1000 0 0 -200zm1750 -200c304,0 550,246 550,550 0,304 -246,550 -550,550 -304,0 -550,-246 -550,-550 0,-304 246,-550 550,-550zm0 200c-193,0 -350,157 -350,350 0,193 157,350 350,350 193,0 350,-157 350,-350 0,-193 -157,-350 -350,-350zm-2400 -200c304,0 550,246 550,550 0,304 -246,550 -550,550 -304,0 -550,-246 -550,-550 0,-304 246,-550 550,-550zm0 200c-193,0 -350,157 -350,350 0,193 157,350 350,350 193,0 350,-157 350,-350 0,-193 -157,-350 -350,-350zm-1200 0c-193,0 -350,157 -350,350 0,193 157,350 350,350 193,0 350,-157 350,-350 0,-193 -157,-350 -350,-350z"/>
</svg>