<?xml version="1.0" encoding="UTF-8"?>
<!DOCTYPE svg PUBLIC "-//W3C//DTD SVG 1.1//EN" "http://www.w3.org/Graphics/SVG/1.1/DTD/svg11.dtd">
<svg xmlns="http://www.w3.org/2000/svg" xml:space="preserve" width="580px" height="580px" shape-rendering="geometricPrecision" text-rendering="geometricPrecision" image-rendering="optimizeQuality" fill-rule="nonzero" clip-rule="nonzero" viewBox="0 0 5800 5800" xmlns:xlink="http://www.w3.org/1999/xlink">
	<title>tank icon</title>
	<desc>tank icon from the IconExperience.com I-Collection. Copyright by INCORS GmbH (www.incors.com).</desc>
	<path id="curve0" d="M4695 4790l-769 256c-68,35 -145,54 -226,54 -7,0 -14,0 -21,0 -660,-2 -1320,-5 -1979,-5 -66,0 -129,-13 -187,-36l-808 -269c-86,-19 -163,-62 -223,-122 -82,-81 -132,-194 -132,-318 0,-248 202,-450 450,-450 1267,0 2533,0 3800,0 249,0 450,202 450,450 0,124 -50,237 -132,318 -60,60 -137,104 -223,122zm-1395 109c-63,-83 -100,-187 -100,-299 0,-276 224,-500 500,-500 193,0 368,111 451,285 -1,-12 -1,-23 -1,-35 0,-93 28,-179 76,-250l-2460 0c112,14 212,66 288,142 90,90 146,215 146,353 0,113 -38,218 -101,302l199 0c-62,-83 -98,-186 -98,-297 0,-276 224,-500 500,-500 138,0 263,56 354,146 90,91 146,216 146,354 0,112 -37,216 -99,299l199 0zm-1666 -799l-460 0c55,82 81,180 75,279 73,-152 218,-257 385,-279zm1031 798l69 0c151,-17 266,-145 266,-298 0,-83 -34,-158 -88,-212 -54,-54 -129,-88 -212,-88 -166,0 -300,134 -300,300 0,152 114,280 265,298zm-965 -2098l0 -200c0,-275 225,-500 500,-500l800 0c194,0 370,113 453,288l2028 -400 38 196 -2019 398c2,72 0,146 0,218l94 0c166,0 311,75 407,210l350 490 372 0 422 211 -90 178 -378 -189 -3954 0 -378 189 -90 -178 422 -211 172 0 350 -490c96,-135 241,-210 407,-210l94 0zm1600 0l0 -200c0,-165 -135,-300 -300,-300l-800 0c-165,0 -300,135 -300,300l0 200 1400 0zm294 200l-1988 0c-101,0 -186,43 -244,125l-268 375 3012 0 -268 -375c-58,-82 -143,-125 -244,-125zm-2368 1753c-22,-64 -30,-133 -24,-200 -30,59 -73,110 -124,151l148 49zm686 -370c-54,-54 -129,-88 -212,-88 -166,0 -300,135 -300,300 0,83 34,158 88,212 54,55 129,88 212,88 83,0 158,-33 212,-88 54,-54 88,-129 88,-212 0,-83 -34,-158 -88,-212zm2088 217c0,-166 -134,-300 -300,-300 -166,0 -300,134 -300,300 0,166 134,300 300,300 164,0 300,-137 300,-300zm176 153l146 -49c-52,-41 -94,-93 -124,-152 6,68 -1,136 -22,201zm-3376 -653c-138,0 -250,112 -250,250 0,69 28,132 73,177 42,42 73,50 127,68 154,32 300,-86 300,-245 0,-138 -112,-250 -250,-250zm3973 430c49,-46 77,-111 77,-180 0,-138 -112,-250 -250,-250 -138,0 -250,112 -250,250 0,138 112,250 250,250 62,0 129,-27 173,-70z"/>
</svg>