<?xml version="1.0" encoding="UTF-8"?>
<!DOCTYPE svg PUBLIC "-//W3C//DTD SVG 1.1//EN" "http://www.w3.org/Graphics/SVG/1.1/DTD/svg11.dtd">
<svg xmlns="http://www.w3.org/2000/svg" xml:space="preserve" width="580px" height="580px" shape-rendering="geometricPrecision" text-rendering="geometricPrecision" image-rendering="optimizeQuality" fill-rule="nonzero" clip-rule="nonzero" viewBox="0 0 5800 5800" xmlns:xlink="http://www.w3.org/1999/xlink">
	<title>tape_measure2 icon</title>
	<desc>tape_measure2 icon from the IconExperience.com I-Collection. Copyright by INCORS GmbH (www.incors.com).</desc>
		<path id="curve28"  d="M1459 4500l-200 -200 282 0 200 200 318 0 -200 -200 282 0 200 200 318 0 -200 -200 282 0 200 200 318 0 -200 -200 282 0 200 200c125,0 249,0 373,0 763,0 1386,-614 1386,-1379 0,-663 -541,-1194 -1200,-1194 -661,0 -1200,531 -1200,1194 0,560 456,1009 1014,1009 559,0 1015,-449 1015,-1009 0,-458 -373,-825 -829,-825 -456,0 -829,367 -829,825 0,355 289,639 643,639 354,0 643,-284 643,-639 0,-253 -205,-455 -457,-455 -252,0 -457,202 -457,455 0,150 122,270 271,270 150,0 272,-120 272,-270 0,-48 -38,-85 -86,-85 -47,0 -86,37 -86,85 0,55 -44,100 -100,100 -55,0 -100,-45 -100,-100 0,-157 129,-285 286,-285 157,0 286,128 286,285 0,259 -213,470 -472,470 -259,0 -471,-211 -471,-470 0,-362 296,-655 657,-655 361,0 657,293 657,655 0,464 -379,839 -843,839 -463,0 -843,-375 -843,-839 0,-567 463,-1025 1029,-1025 566,0 1029,458 1029,1025 0,669 -547,1209 -1215,1209 -267,0 -513,-86 -714,-231l-2386 1 420 400 225 0zm-498 200l-866 -800 2878 0 -563 -520c-239,-220 -360,-538 -360,-859 0,-772 630,-1394 1400,-1394 372,0 715,154 986,404l656 607c252,252 408,599 408,983 0,874 -713,1579 -1586,1579 -984,0 -1968,0 -2953,0z"/>
</svg>