<?xml version="1.0" encoding="UTF-8"?>
<!DOCTYPE svg PUBLIC "-//W3C//DTD SVG 1.1//EN" "http://www.w3.org/Graphics/SVG/1.1/DTD/svg11.dtd">
<svg xmlns="http://www.w3.org/2000/svg" xml:space="preserve" width="580px" height="580px" shape-rendering="geometricPrecision" text-rendering="geometricPrecision" image-rendering="optimizeQuality" fill-rule="nonzero" clip-rule="nonzero" viewBox="0 0 5800 5800" xmlns:xlink="http://www.w3.org/1999/xlink">
	<title>tape_measure icon</title>
	<desc>tape_measure icon from the IconExperience.com I-Collection. Copyright by INCORS GmbH (www.incors.com).</desc>
		<path id="curve28"  d="M500 3900l0 1000 200 0 0 -400 200 0 0 400 200 0 0 -400 200 0 0 400 200 0 0 -400 200 0 0 400 166 0c53,76 115,143 188,200l-1954 0 0 -1400 1600 0 0 200 -1200 0zm2128 -2400l2145 0c400,0 727,327 727,727l0 2145c0,401 -327,728 -727,728l-2145 0c-401,0 -728,-327 -728,-728l0 -2145c0,-400 327,-727 728,-727zm2145 200l-2145 0c-290,0 -528,238 -528,527l0 2145c0,290 238,528 528,528l2145 0c289,0 527,-238 527,-528l0 -2145c0,-289 -238,-527 -527,-527zm-1073 605c552,0 1000,448 1000,1000 0,552 -448,1000 -1000,1000 -552,0 -1000,-448 -1000,-1000 0,-552 448,-1000 1000,-1000zm0 200c-442,0 -800,358 -800,800 0,442 358,800 800,800 442,0 800,-358 800,-800 0,-442 -358,-800 -800,-800z"/>
</svg>