<?xml version="1.0" encoding="UTF-8"?>
<!DOCTYPE svg PUBLIC "-//W3C//DTD SVG 1.1//EN" "http://www.w3.org/Graphics/SVG/1.1/DTD/svg11.dtd">
<svg xmlns="http://www.w3.org/2000/svg" xml:space="preserve" width="580px" height="580px" shape-rendering="geometricPrecision" text-rendering="geometricPrecision" image-rendering="optimizeQuality" fill-rule="nonzero" clip-rule="nonzero" viewBox="0 0 5800 5800" xmlns:xlink="http://www.w3.org/1999/xlink">
	<title>tape_measure2 icon</title>
	<desc>tape_measure2 icon from the IconExperience.com I-Collection. Copyright by INCORS GmbH (www.incors.com).</desc>
		<path id="curve28" d="M3200 4099l-2386 1 420 400 225 0 -200 -200 282 0 200 200 318 0 -200 -200 282 0 200 200 318 0 -200 -200 282 0 200 200 318 0 -200 -200 282 0 200 200c125,0 249,0 373,0 763,0 1386,-614 1386,-1379 0,-372 -152,-661 -420,-908 -209,-178 -482,-286 -780,-286 -661,0 -1200,531 -1200,1194 0,560 456,1009 1014,1009 559,0 1015,-449 1015,-1009 0,-458 -373,-825 -829,-825 -456,0 -829,367 -829,825 0,355 289,639 643,639 354,0 643,-284 643,-639 0,-253 -205,-455 -457,-455 -252,0 -457,202 -457,455 0,150 122,270 271,270 150,0 272,-120 272,-270 0,-24 -10,-45 -25,-60 -15,-15 -37,-25 -61,-25 -24,0 -46,10 -61,25 -15,15 -25,36 -25,60 0,55 -44,100 -100,100 -55,0 -100,-45 -100,-100 0,-157 129,-285 286,-285 157,0 286,128 286,285 0,259 -213,470 -472,470 -259,0 -471,-211 -471,-470 0,-362 296,-655 657,-655 361,0 657,293 657,655 0,464 -379,839 -843,839 -463,0 -843,-375 -843,-839 0,-567 463,-1025 1029,-1025 566,0 1029,458 1029,1025 0,669 -547,1209 -1215,1209 -267,0 -513,-86 -714,-231zm-227 -199l-563 -520c-116,-107 -206,-238 -267,-385 -61,-146 -93,-307 -93,-474 0,-385 157,-734 410,-986 254,-252 604,-408 990,-408 185,0 359,38 520,104 174,71 331,176 466,300l580 536c307,265 484,647 484,1054 0,874 -713,1579 -1586,1579 -984,0 -1968,0 -2953,0l-866 -800 2878 0zm1411 -2145l-83 -77c-119,-109 -256,-201 -406,-263 -137,-56 -286,-88 -445,-88 -332,0 -632,133 -849,349 -217,216 -351,515 -351,845 0,141 27,276 78,398 50,120 123,227 217,314l189 175c-22,-92 -34,-188 -34,-287 0,-772 630,-1394 1400,-1394 97,0 193,10 284,28z"/>
</svg>