<?xml version="1.0" encoding="UTF-8"?>
<!DOCTYPE svg PUBLIC "-//W3C//DTD SVG 1.1//EN" "http://www.w3.org/Graphics/SVG/1.1/DTD/svg11.dtd">
<svg xmlns="http://www.w3.org/2000/svg" xml:space="preserve" width="580px" height="580px" shape-rendering="geometricPrecision" text-rendering="geometricPrecision" image-rendering="optimizeQuality" fill-rule="nonzero" clip-rule="nonzero" viewBox="0 0 5800 5800" xmlns:xlink="http://www.w3.org/1999/xlink">
	<title>target icon</title>
	<desc>target icon from the IconExperience.com I-Collection. Copyright by INCORS GmbH (www.incors.com).</desc>
		<path id="curve28"  d="M2900 300c1436,0 2600,1164 2600,2600 0,1436 -1164,2600 -2600,2600 -1436,0 -2600,-1164 -2600,-2600 0,-1436 1164,-2600 2600,-2600zm6 1606c549,0 994,445 994,994 0,549 -445,994 -994,994 -550,0 -995,-445 -995,-994 0,-549 445,-994 995,-994zm0 -800c991,0 1794,803 1794,1794 0,991 -803,1794 -1794,1794 -991,0 -1795,-803 -1795,-1794 0,-991 804,-1794 1795,-1794zm0 200c-881,0 -1595,713 -1595,1594 0,881 714,1594 1595,1594 880,0 1594,-713 1594,-1594 0,-881 -714,-1594 -1594,-1594zm-6 -806c-1326,0 -2400,1074 -2400,2400 0,1326 1074,2400 2400,2400 1326,0 2400,-1074 2400,-2400 0,-1326 -1074,-2400 -2400,-2400z"/>
</svg>