<?xml version="1.0" encoding="UTF-8"?>
<!DOCTYPE svg PUBLIC "-//W3C//DTD SVG 1.1//EN" "http://www.w3.org/Graphics/SVG/1.1/DTD/svg11.dtd">
<svg xmlns="http://www.w3.org/2000/svg" xml:space="preserve" width="580px" height="580px" shape-rendering="geometricPrecision" text-rendering="geometricPrecision" image-rendering="optimizeQuality" fill-rule="nonzero" clip-rule="nonzero" viewBox="0 0 5800 5800" xmlns:xlink="http://www.w3.org/1999/xlink">
	<title>taxi icon</title>
	<desc>taxi icon from the IconExperience.com I-Collection. Copyright by INCORS GmbH (www.incors.com).</desc>
	<path id="curve0"  d="M5300 4986l0 314c0,110 -90,200 -200,200l-800 0c-110,0 -200,-90 -200,-200l0 -166 268 -134 832 0c32,0 69,-5 100,-14zm-1800 -3986c45,0 83,29 95,70l181 452c200,16 377,43 469,89 116,58 278,268 423,516 135,233 261,504 319,712 150,106 276,236 365,378 94,151 148,316 148,483 0,203 0,456 -26,662 -31,250 -107,438 -274,438l-877 0 -378 189c-15,7 -30,11 -45,11l-2000 0c-19,0 -38,-6 -53,-15l-370 -185 -877 0c-167,0 -243,-188 -274,-438 -26,-206 -26,-459 -26,-662 0,-167 54,-332 148,-483 89,-143 215,-273 365,-378 59,-211 187,-486 324,-721 144,-243 303,-449 418,-507 92,-46 269,-73 469,-89l183 -459c16,-39 53,-63 93,-63l1200 0zm-435 700c-111,0 -222,0 -333,0 -340,1 -929,10 -1087,89 -80,40 -210,216 -336,430 -102,175 -198,372 -261,542 404,-76 1167,-113 1916,-110 706,2 1405,39 1788,111 -62,-168 -156,-362 -257,-535 -127,-218 -259,-398 -340,-438 -158,-79 -751,-88 -1090,-89zm-1365 3434l0 166c0,110 -90,200 -200,200l-800 0c-110,0 -200,-90 -200,-200l0 -314c32,8 67,14 100,14l832 0 268 134zm3592 -1534l-405 0c-123,0 -228,50 -307,144l-380 456 1089 0c11,-160 29,-443 3,-600zm-4783 0c-27,157 -9,440 2,600l1089 0 -380 -456c-79,-94 -184,-144 -307,-144l-404 0zm1504 200c-84,0 -131,99 -76,164l363 436 1200 0 363 -436c55,-65 8,-164 -76,-164l-1774 0z"/>
</svg>