<?xml version="1.0" encoding="UTF-8"?>
<!DOCTYPE svg PUBLIC "-//W3C//DTD SVG 1.1//EN" "http://www.w3.org/Graphics/SVG/1.1/DTD/svg11.dtd">
<svg xmlns="http://www.w3.org/2000/svg" xml:space="preserve" width="580px" height="580px" shape-rendering="geometricPrecision" text-rendering="geometricPrecision" image-rendering="optimizeQuality" fill-rule="nonzero" clip-rule="nonzero" viewBox="0 0 5800 5800" xmlns:xlink="http://www.w3.org/1999/xlink">
	<title>taxi icon</title>
	<desc>taxi icon from the IconExperience.com I-Collection. Copyright by INCORS GmbH (www.incors.com).</desc>
	<path id="curve0"  d="M3500 1000c45,0 83,29 95,70l182 454c202,16 379,43 468,87 116,58 278,268 423,516 135,233 261,504 319,712 278,196 513,508 513,861 0,203 0,456 -26,662 -31,250 -107,438 -274,438l-877 0 -378 189c-15,7 -30,11 -45,11l-2000 0c-19,0 -38,-6 -53,-15l-370 -185 -877 0c-167,0 -243,-188 -274,-438 -26,-206 -26,-459 -26,-662 0,-353 235,-665 513,-861 58,-208 184,-479 319,-712 145,-248 307,-458 423,-516 89,-44 266,-71 468,-87l184 -461c16,-39 53,-63 93,-63l1200 0zm1800 3986l0 314c0,55 -22,105 -59,141 -36,37 -86,59 -141,59l-800 0c-110,0 -200,-90 -200,-200l0 -166 200 -100 0 266 800 0c0,0 0,0 0,0l0 0 0 0c0,0 0,0 0,0l0 -300 100 0c32,0 69,-5 100,-14zm-200 314l0 0 0 0 0 0 0 0zm-3600 0c0,0 0,0 0,0l0 0c0,0 0,0 0,0l0 0zm200 -166l0 166c0,110 -90,200 -200,200l-800 0c-110,0 -200,-90 -200,-200l0 -314c33,8 66,14 100,14l100 0 0 300 800 0 0 0 0 0 0 0 0 0 0 -266 200 100zm517 -3422c-251,12 -487,34 -572,77 -81,40 -213,220 -340,438 -101,173 -195,367 -257,535 395,-75 1125,-112 1852,-112 727,0 1457,37 1852,112 -62,-168 -156,-362 -257,-535 -127,-218 -259,-398 -340,-438 -85,-42 -321,-65 -572,-77 -187,-9 -435,-13 -683,-13 -247,0 -495,4 -683,13zm-1272 1278c-180,122 -343,301 -412,510l380 0c75,0 147,16 212,46 65,31 123,76 172,134l380 456c54,66 6,164 -77,164l-1080 0c5,48 32,300 80,300l900 0c0,0 41,9 45,11l378 189 1954 0 370 -185c15,-9 34,-15 53,-15l900 0c48,0 75,-252 80,-300l-1080 0c-83,0 -131,-98 -77,-164l381 -456c97,-116 231,-180 383,-180l380 0c-69,-209 -232,-388 -412,-510 -300,-93 -1126,-140 -1955,-140 -829,0 -1655,47 -1955,140zm-445 710c0,122 0,264 6,400l881 0 -244 -292c-29,-36 -64,-63 -102,-81 -38,-18 -81,-27 -128,-27l-413 0zm4794 400c6,-136 6,-278 6,-400l-413 0c-93,0 -170,36 -230,108l-244 292 881 0zm-3281 -400l1774 0c78,0 147,44 180,115 17,36 23,74 18,110 -5,37 -20,73 -45,103l-363 436c-20,23 -48,36 -77,36l-1200 0c-34,0 -64,-17 -82,-43l-358 -429c-25,-30 -40,-66 -45,-103 -5,-36 1,-74 18,-110 16,-35 42,-64 73,-84 32,-20 68,-31 107,-31zm0 200c-2,0 283,340 333,400l1108 0 333 -400c0,0 -1517,0 -1774,0zm1420 -2700l-1066 0 -120 300c218,0 435,0 653,0 218,0 435,0 653,0l-120 -300z"/>
</svg>