<?xml version="1.0" encoding="UTF-8"?>
<!DOCTYPE svg PUBLIC "-//W3C//DTD SVG 1.1//EN" "http://www.w3.org/Graphics/SVG/1.1/DTD/svg11.dtd">
<svg xmlns="http://www.w3.org/2000/svg" xml:space="preserve" width="580px" height="580px" shape-rendering="geometricPrecision" text-rendering="geometricPrecision" image-rendering="optimizeQuality" fill-rule="nonzero" clip-rule="nonzero" viewBox="0 0 5800 5800" xmlns:xlink="http://www.w3.org/1999/xlink">
	<title>tea_bag icon</title>
	<desc>tea_bag icon from the IconExperience.com I-Collection. Copyright by INCORS GmbH (www.incors.com).</desc>
	<path id="curve0"  d="M4700 3758l0 -258c0,-214 49,-313 109,-434 83,-168 191,-386 191,-1166 0,-828 -672,-1500 -1500,-1500 -608,0 -1100,492 -1100,1100l0 200 -200 0 0 -200c0,-718 582,-1300 1300,-1300 939,0 1700,761 1700,1700 0,825 -120,1068 -212,1254 -49,98 -88,177 -88,346l0 258 571 571c21,22 31,51 29,80l0 991c0,55 -45,100 -100,100l-1200 0c-55,0 -100,-45 -100,-100l0 -1000c0,-28 12,-54 30,-72l570 -570zm-2300 -1858l0 100c0,55 -45,100 -100,100 -55,0 -100,-45 -100,-100l0 -100 200 0zm-1147 -1000l872 0c-80,184 -125,387 -125,600l0 200c-55,0 -100,45 -100,100 0,55 45,100 100,100l0 100c0,166 134,300 300,300 166,0 300,-134 300,-300l0 -100c55,0 100,-45 100,-100 0,-55 -45,-100 -100,-100l0 -200c0,-231 87,-441 229,-600l425 0c132,0 245,83 285,209l661 2077 0 790 -211 211c-55,54 -89,130 -89,213l0 1000c0,35 6,69 17,100l-3217 0c-165,0 -300,-135 -300,-300l0 -2012 564 -2067c36,-131 152,-221 289,-221z"/>
</svg>