<?xml version="1.0" encoding="UTF-8"?>
<!DOCTYPE svg PUBLIC "-//W3C//DTD SVG 1.1//EN" "http://www.w3.org/Graphics/SVG/1.1/DTD/svg11.dtd">
<svg xmlns="http://www.w3.org/2000/svg" xml:space="preserve" width="580px" height="580px" shape-rendering="geometricPrecision" text-rendering="geometricPrecision" image-rendering="optimizeQuality" fill-rule="nonzero" clip-rule="nonzero" viewBox="0 0 5800 5800" xmlns:xlink="http://www.w3.org/1999/xlink">
	<title>tea_bag icon</title>
	<desc>tea_bag icon from the IconExperience.com I-Collection. Copyright by INCORS GmbH (www.incors.com).</desc>
	<path id="curve0" d="M2000 1900c-55,0 -100,-45 -100,-100 0,-55 45,-100 100,-100l200 0 0 -200c0,-718 582,-1300 1300,-1300 939,0 1700,761 1700,1700 0,825 -120,1068 -212,1254 -49,98 -88,177 -88,346l0 258 571 571c21,22 31,51 29,80l0 991c0,55 -45,100 -100,100l-1200 0c-55,0 -100,-45 -100,-100l0 -1000c0,-28 12,-54 30,-72l570 -570 0 -258c0,-214 49,-313 109,-434 83,-168 191,-386 191,-1166 0,-828 -672,-1500 -1500,-1500 -608,0 -1100,492 -1100,1100l0 200 200 0c55,0 100,45 100,100 0,55 -45,100 -100,100l-200 0 0 100c0,55 -45,100 -100,100 -55,0 -100,-45 -100,-100l0 -100 -200 0zm-747 -1000l872 0c-28,64 -52,131 -71,200l-801 0c-47,0 -85,29 -97,74l-556 2038 0 1988c0,55 45,100 100,100l3200 0 0 100c0,35 6,69 17,100l-3217 0c-165,0 -300,-135 -300,-300l0 -2012 564 -2067c36,-131 152,-221 289,-221zm2747 3276l0 -962 -651 -2045c-13,-43 -50,-69 -95,-69l-560 0c36,-73 81,-140 135,-200l425 0c132,0 245,83 285,209l661 2077 0 790 -200 200zm800 -235l-500 500 0 859 1000 0 0 -858 -500 -501z"/>
</svg>