<?xml version="1.0" encoding="UTF-8"?>
<!DOCTYPE svg PUBLIC "-//W3C//DTD SVG 1.1//EN" "http://www.w3.org/Graphics/SVG/1.1/DTD/svg11.dtd">
<svg xmlns="http://www.w3.org/2000/svg" xml:space="preserve" width="580px" height="580px" shape-rendering="geometricPrecision" text-rendering="geometricPrecision" image-rendering="optimizeQuality" fill-rule="nonzero" clip-rule="nonzero" viewBox="0 0 5800 5800" xmlns:xlink="http://www.w3.org/1999/xlink">
	<title>teacher icon</title>
	<desc>teacher icon from the IconExperience.com I-Collection. Copyright by INCORS GmbH (www.incors.com).</desc>
	<path id="curve0"  d="M5500 500l0 3810c-42,-63 -90,-123 -144,-176 -136,-131 -374,-213 -563,-269 -69,-21 -127,-39 -195,-81 -7,-4 -20,-10 -24,-16 5,-6 10,-11 16,-17 23,-8 60,-17 63,-44 1,-12 2,-24 2,-35 96,-133 140,-280 177,-421 167,-148 236,-379 203,-596 52,-245 56,-460 14,-653 -120,-556 -567,-861 -1120,-898 -274,-18 -552,39 -741,175 -196,45 -367,140 -488,303 -6,-25 -8,-52 -6,-78 9,-178 62,-302 138,-382 87,-92 207,-128 326,-122 55,3 102,-39 105,-94 2,-55 -40,-102 -95,-105 -173,-9 -349,46 -480,183 -107,113 -181,279 -193,510 -6,108 24,219 88,307 -78,209 -83,450 -49,682 8,57 19,115 31,172 -33,217 37,448 203,596 38,143 83,291 178,422l1 16c2,29 34,43 56,55 7,7 15,15 22,23 -4,7 -23,17 -31,22 -64,39 -121,56 -187,76 -35,10 -71,21 -113,35l-1794 0 0 400c-200,0 -400,0 -600,0l0 -3800 5200 0zm-1029 3442c21,4 40,15 55,31 75,42 138,61 210,83 153,46 375,119 481,221 90,89 160,199 208,318 50,125 75,260 75,388 0,191 -210,313 -499,388 -374,97 -895,128 -1201,128 -306,0 -827,-31 -1201,-128 -289,-75 -499,-197 -499,-388 0,-128 26,-263 76,-388 47,-119 117,-229 207,-318 86,-82 214,-129 316,-167 55,-20 109,-37 165,-54 73,-22 137,-41 213,-84 14,-15 31,-25 50,-30l13 -7c-1,-11 0,-23 3,-35 15,-54 7,-178 3,-226 -2,-26 -4,-52 -5,-75 -109,-126 -152,-292 -193,-448l-4 -17c-156,-102 -216,-306 -175,-483 -6,-24 -11,-47 -16,-71l246 0 35 175c16,84 90,145 175,145l317 0c74,0 139,-45 166,-114l82 -206 52 0 81 206c27,69 93,114 166,114l315 0c86,0 159,-62 175,-145l35 -175 249 0c-5,23 -10,47 -16,71 41,177 -18,380 -175,483l-5 23c-40,152 -82,315 -192,441 -1,31 -3,61 -6,93 -8,106 5,157 11,247l7 4zm131 282c-17,133 -114,267 -225,420 -131,181 -285,394 -310,648 280,-13 622,-46 884,-114 202,-53 349,-118 349,-195 0,-105 -20,-214 -61,-315 -37,-93 -91,-179 -162,-248 -72,-70 -284,-138 -398,-173 -26,-7 -52,-15 -77,-23zm-596 623c104,-192 286,-384 367,-566l-256 320 -169 -226c-26,25 -52,48 -68,64 64,128 103,269 126,408zm-844 -2547l459 0c60,0 114,29 148,80l62 0c33,-50 88,-80 148,-80l456 0c61,0 115,30 149,80l290 0c9,-122 2,-233 -20,-336 -102,-468 -476,-710 -938,-741 -248,-16 -495,36 -642,162 -239,43 -416,171 -503,403 -58,153 -67,333 -49,512l291 0c34,-50 89,-80 149,-80zm428 200l-403 0 40 200 284 0 79 -200zm820 0l-401 0 79 200 283 0 39 -200zm-1084 1559l-15 9 166 208 82 -109c-30,-8 -60,-18 -88,-30 -53,-20 -101,-47 -145,-78zm-327 164c-26,9 -51,16 -78,24 -52,16 -103,32 -154,51 -84,31 -190,69 -244,122 -71,69 -125,155 -162,248 -40,101 -61,210 -61,315 0,77 147,142 349,195 262,68 605,101 886,114 -26,-254 -180,-467 -311,-648 -110,-153 -208,-288 -225,-421zm596 622c23,-138 61,-279 125,-406l-66 -66 -171 228 -254 -317c83,183 262,370 366,561zm692 -775l-17 -8c-43,30 -90,55 -141,75 -28,12 -58,22 -88,30l82 109 164 -206zm-3987 430l0 200 1634 0c16,-68 38,-135 65,-200l-1699 0zm1223 -3315c-45,20 -70,70 -56,119 89,314 177,628 265,943 12,51 62,85 115,76 56,-10 108,-22 157,-36 165,-46 283,-113 358,-190 88,-89 120,-192 102,-296 -2,-10 -5,-20 -8,-32 -42,-149 -125,-219 -234,-242 30,-66 32,-147 3,-250 -4,-15 -9,-29 -15,-41 -38,-86 -107,-136 -201,-154 -77,-14 -169,-4 -273,25 -66,19 -138,45 -213,78zm160 150l70 249c110,-32 196,-61 246,-97 42,-31 56,-76 33,-156 -8,-32 -27,-47 -59,-52 -45,-9 -108,-1 -184,20 -33,10 -68,22 -106,36zm125 442c226,-62 416,-96 456,46 15,52 -9,98 -45,135 -51,53 -140,101 -269,137 -15,5 -32,9 -49,13l-93 -331zm-847 905c-14,-69 -20,-141 -22,-216l341 -232c83,84 172,158 262,213 47,29 108,14 137,-33 29,-47 14,-108 -33,-137 -116,-71 -232,-182 -334,-303 -124,-147 -226,-309 -285,-435l0 0c-13,-29 -41,-51 -75,-56 -54,-9 -105,29 -114,83 -5,31 -13,83 -22,137 -35,206 -74,445 -78,679 -9,23 -9,50 1,75 2,89 9,177 26,262 10,54 62,89 116,79 54,-10 90,-62 80,-116zm184 -598c-57,-68 -109,-139 -155,-209 -18,111 -34,228 -44,345l199 -136z"/>
</svg>