<?xml version="1.0" encoding="UTF-8"?>
<!DOCTYPE svg PUBLIC "-//W3C//DTD SVG 1.1//EN" "http://www.w3.org/Graphics/SVG/1.1/DTD/svg11.dtd">
<svg xmlns="http://www.w3.org/2000/svg" xml:space="preserve" width="580px" height="580px" shape-rendering="geometricPrecision" text-rendering="geometricPrecision" image-rendering="optimizeQuality" fill-rule="nonzero" clip-rule="nonzero" viewBox="0 0 5800 5800" xmlns:xlink="http://www.w3.org/1999/xlink">
	<title>teddy_bear icon</title>
	<desc>teddy_bear icon from the IconExperience.com I-Collection. Copyright by INCORS GmbH (www.incors.com).</desc>
	<path id="curve0"  d="M2189 2688c-367,-240 -589,-647 -589,-1088 0,-43 2,-85 6,-127 -299,-86 -506,-361 -506,-673 0,-387 313,-700 700,-700 193,0 368,78 495,205 31,32 60,66 85,103 159,-69 335,-108 520,-108 185,0 361,39 520,108 25,-37 54,-71 85,-103 127,-127 302,-205 495,-205 387,0 700,313 700,700 0,312 -207,587 -506,673 4,42 6,84 6,127 0,441 -222,848 -589,1088 88,-110 139,-241 139,-383 0,-198 -98,-375 -258,-502 -71,-58 -155,-105 -247,-138 -13,-62 -56,-114 -118,-151 -60,-36 -141,-59 -228,-59 -87,0 -168,23 -228,59 -63,37 -105,90 -118,151 -92,34 -175,81 -245,138 -160,127 -258,304 -258,502 0,142 51,273 139,383zm-812 1136c175,-82 367,-84 535,-23 169,61 314,187 396,361l253 544c163,349 10,768 -338,930 -349,163 -768,11 -931,-338l-253 -544c-163,-349 -10,-768 338,-930zm3046 0c-175,-82 -367,-84 -535,-23 -169,61 -314,187 -396,361l-253 544c-163,349 -10,768 338,930 349,163 768,11 931,-338l253 -544c163,-349 10,-768 -338,-930zm-566 -226c-85,-60 -174,-111 -269,-153 58,61 108,129 148,204 -181,87 -334,234 -425,429l-253 544c-130,277 -107,601 55,859 -140,25 -285,25 -426,0 162,-258 185,-582 55,-859l-253 -544c-91,-195 -244,-342 -425,-429 40,-74 90,-143 147,-203 -96,43 -187,95 -271,154 -207,-65 -437,-56 -647,42 -258,121 -441,355 -500,632 -279,-42 -493,-283 -493,-574 0,-385 227,-700 547,-928 233,-166 516,-286 796,-354 278,426 749,682 1257,682 510,0 980,-257 1257,-682 280,68 563,188 796,354 320,228 547,543 547,928 0,291 -214,532 -493,574 -59,-277 -242,-511 -500,-632 -211,-98 -441,-107 -650,-44zm-457 -2498c-110,0 -200,90 -200,200 0,110 90,200 200,200 110,0 200,-90 200,-200 0,-110 -90,-200 -200,-200zm-1000 0c-110,0 -200,90 -200,200 0,110 90,200 200,200 110,0 200,-90 200,-200 0,-110 -90,-200 -200,-200zm968 858c-53,-43 -116,-78 -186,-104 -16,15 -34,29 -55,41 -36,22 -79,38 -127,48l0 220 171 171c39,39 39,102 0,141 -39,39 -103,39 -142,0l-129 -129 -129 129c-39,39 -103,39 -142,0 -39,-39 -39,-102 0,-141l171 -171 0 -219c-48,-10 -92,-27 -129,-49 -20,-12 -39,-25 -54,-41 -70,26 -132,62 -185,104 -113,90 -182,212 -182,347 0,134 69,256 182,346 118,95 284,154 468,154 184,0 350,-59 468,-154 113,-90 182,-212 182,-346 0,-135 -69,-257 -182,-347z"/>
</svg>