<?xml version="1.0" encoding="UTF-8"?>
<!DOCTYPE svg PUBLIC "-//W3C//DTD SVG 1.1//EN" "http://www.w3.org/Graphics/SVG/1.1/DTD/svg11.dtd">
<svg xmlns="http://www.w3.org/2000/svg" xml:space="preserve" width="580px" height="580px" shape-rendering="geometricPrecision" text-rendering="geometricPrecision" image-rendering="optimizeQuality" fill-rule="nonzero" clip-rule="nonzero" viewBox="0 0 5800 5800" xmlns:xlink="http://www.w3.org/1999/xlink">
	<title>teddy_bear icon</title>
	<desc>teddy_bear icon from the IconExperience.com I-Collection. Copyright by INCORS GmbH (www.incors.com).</desc>
	<path id="curve0"  d="M793 4274c-279,-42 -493,-283 -493,-574 0,-385 227,-700 547,-928 233,-166 516,-286 796,-354 40,62 84,120 133,175 -283,57 -577,173 -813,341 -271,193 -463,454 -463,766 0,203 158,368 358,380 -29,62 -50,127 -65,194zm3630 -450c-349,-163 -768,-11 -931,338l-253 544c-163,349 -10,768 338,930 349,163 768,11 931,-338l253 -544c163,-349 10,-768 -338,-930zm-85 181c250,116 358,415 242,664l-254 544c-116,250 -414,358 -664,242 -250,-116 -358,-415 -242,-664l254 -544c116,-250 414,-358 664,-242zm-2961 -181c349,-163 768,-11 931,338l253 544c163,349 10,768 -338,930 -349,163 -768,11 -931,-338l-253 -544c-163,-349 -10,-768 338,-930zm85 181c-250,116 -358,415 -242,664l254 544c116,250 414,358 664,242 250,-116 358,-415 242,-664l-254 -544c-116,-250 -414,-358 -664,-242zm1938 -2905c110,0 200,90 200,200 0,110 -90,200 -200,200 -110,0 -200,-90 -200,-200 0,-110 90,-200 200,-200zm-1000 0c110,0 200,90 200,200 0,110 -90,200 -200,200 -110,0 -200,-90 -200,-200 0,-110 90,-200 200,-200zm371 1375c-39,39 -103,39 -142,0 -39,-39 -39,-102 0,-141l171 -171 0 -219c-66,-14 -134,-42 -183,-90 -191,72 -367,233 -367,451 0,134 69,256 182,346 118,95 284,154 468,154 184,0 350,-59 468,-154 113,-90 182,-212 182,-346 0,-219 -176,-380 -368,-451 -49,47 -116,76 -182,89l0 220 171 171c39,39 39,102 0,141 -39,39 -103,39 -142,0l-129 -129 -129 129zm128 -1020c87,0 168,23 228,59 62,37 105,89 118,151 271,99 502,329 505,633 156,-190 250,-433 250,-698 0,-608 -492,-1100 -1100,-1100 -608,0 -1100,492 -1100,1100 0,265 94,508 250,698 3,-303 233,-533 503,-633 13,-61 55,-114 118,-151 60,-36 141,-59 228,-59zm712 1233c-34,43 -74,83 -119,119 -131,104 -303,175 -495,193l-194 0c-192,-18 -364,-89 -495,-193 -45,-36 -85,-76 -119,-119 -75,-49 -145,-105 -208,-169 -235,-235 -381,-560 -381,-919 0,-43 2,-85 6,-127 -299,-86 -506,-361 -506,-673 0,-387 313,-700 700,-700 193,0 368,78 495,205 31,32 60,66 85,103 159,-69 335,-108 520,-108 185,0 361,39 520,108 25,-37 54,-71 85,-103 272,-272 718,-272 990,0 127,127 205,302 205,495 0,312 -207,587 -506,673 4,42 6,84 6,127 0,359 -146,684 -381,919 -63,64 -133,120 -208,169zm-13 -2185c277,177 479,452 561,771 203,-68 341,-259 341,-474 0,-138 -56,-263 -146,-354 -195,-194 -513,-194 -708,0 -17,18 -33,37 -48,57zm-1957 771c82,-319 284,-594 561,-771 -15,-20 -31,-39 -48,-57 -91,-90 -216,-146 -354,-146 -276,0 -500,224 -500,500 0,215 138,406 341,474zm1136 4018c82,10 164,11 246,1 22,66 53,129 90,188 -140,25 -285,25 -426,0 37,-59 68,-122 90,-189zm-1106 -1733c154,-136 332,-247 529,-325l0 217c-92,42 -179,92 -260,149 -87,-27 -177,-41 -269,-41zm1929 -326c197,79 376,190 530,326 -92,0 -183,14 -269,41 -82,-57 -169,-107 -261,-150l0 -217zm1342 847c200,-12 358,-177 358,-380 0,-312 -192,-573 -463,-766 -236,-168 -530,-284 -813,-341 49,-55 93,-113 133,-175 280,68 563,188 796,354 320,228 547,543 547,928 0,291 -214,532 -493,574 -15,-67 -36,-132 -65,-194z"/>
</svg>