<?xml version="1.0" encoding="UTF-8"?>
<!DOCTYPE svg PUBLIC "-//W3C//DTD SVG 1.1//EN" "http://www.w3.org/Graphics/SVG/1.1/DTD/svg11.dtd">
<svg xmlns="http://www.w3.org/2000/svg" xml:space="preserve" width="580px" height="580px" shape-rendering="geometricPrecision" text-rendering="geometricPrecision" image-rendering="optimizeQuality" fill-rule="nonzero" clip-rule="nonzero" viewBox="0 0 5800 5800" xmlns:xlink="http://www.w3.org/1999/xlink">
	<title>telephone_box icon</title>
	<desc>telephone_box icon from the IconExperience.com I-Collection. Copyright by INCORS GmbH (www.incors.com).</desc>
		<path id="curve28"  d="M1300 5500l0 -4400c0,-440 360,-800 800,-800l1600 0c440,0 800,360 800,800l0 4400 -3200 0zm1540 -4114l-28 -27c-30,-31 -85,-43 -120,-13l-163 139c-36,31 -25,83 5,113l30 30c76,74 205,102 293,31 216,-173 370,-415 438,-684 27,-108 -52,-215 -151,-253l-39 -16c-40,-15 -91,-3 -104,42l-59 207c-13,45 21,89 62,105l36 14c16,6 30,22 28,40 -13,117 -79,221 -180,281 -15,9 -36,3 -48,-9zm-940 2914l0 -600 400 0 0 600 -400 0zm600 0l0 -600 800 0 0 600 -800 0zm1000 0l0 -600 400 0 0 600 -400 0zm400 200l0 400 -400 0 0 -400 400 0zm-600 0l0 400 -800 0 0 -400 800 0zm-1000 0l0 400 -400 0 0 -400 400 0zm-400 -1000l0 -600 400 0 0 600 -400 0zm600 0l0 -600 800 0 0 600 -800 0zm1000 0l0 -600 400 0 0 600 -400 0zm-1600 -800l0 -600 400 0 0 600 -400 0zm600 0l0 -600 800 0 0 600 -800 0zm1000 0l0 -600 400 0 0 600 -400 0zm600 -800l-2400 0 0 3200 2400 0 0 -3200z"/>
</svg>