<?xml version="1.0" encoding="UTF-8"?>
<!DOCTYPE svg PUBLIC "-//W3C//DTD SVG 1.1//EN" "http://www.w3.org/Graphics/SVG/1.1/DTD/svg11.dtd">
<svg xmlns="http://www.w3.org/2000/svg" xml:space="preserve" width="580px" height="580px" shape-rendering="geometricPrecision" text-rendering="geometricPrecision" image-rendering="optimizeQuality" fill-rule="nonzero" clip-rule="nonzero" viewBox="0 0 5800 5800" xmlns:xlink="http://www.w3.org/1999/xlink">
	<title>telephone icon</title>
	<desc>telephone icon from the IconExperience.com I-Collection. Copyright by INCORS GmbH (www.incors.com).</desc>
		<path id="curve28" d="M3300 4100l600 0 0 400 -600 0 0 -400zm1500 -3400l-2615 0c-43,-76 -98,-143 -164,-200l2779 0c275,0 500,225 500,500l0 3800c0,275 -225,500 -500,500l-2779 0c66,-57 121,-124 164,-200l2615 0c165,0 300,-135 300,-300l0 -3800c0,-165 -135,-300 -300,-300zm-2700 900c0,248 -115,407 -210,537 -49,67 -90,124 -90,163l0 1200c0,80 45,129 95,184 96,104 205,224 205,516l0 400c0,228 -60,401 -179,521 -120,119 -293,179 -521,179l-200 0c-228,0 -401,-60 -521,-179 -119,-120 -179,-293 -179,-521l0 -400c0,-300 113,-425 209,-532 49,-54 91,-101 91,-168l0 -1200c0,-80 -45,-129 -95,-184 -96,-104 -205,-224 -205,-516l0 -400c0,-456 244,-700 700,-700l200 0c456,0 700,244 700,700l0 400zm-372 420c78,-106 172,-236 172,-420l0 -400c0,-344 -156,-500 -500,-500l-200 0c-344,0 -500,156 -500,500l0 400c0,216 81,305 152,382 78,85 148,161 148,318l0 1200c0,144 -66,217 -142,302 -73,80 -158,175 -158,398l0 400c0,172 40,299 121,379 80,81 207,121 379,121l200 0c172,0 299,-40 379,-121 81,-80 121,-207 121,-379l0 -400c0,-216 -81,-305 -152,-382 -78,-85 -148,-162 -148,-318l0 -1200c0,-104 59,-185 128,-280zm2972 -920l0 800 -2200 0 0 -800 2200 0zm-200 200l-1800 0 0 400 1800 0 0 -400zm-400 2200l600 0 0 400 -600 0 0 -400zm-800 0l600 0 0 400 -600 0 0 -400zm-800 0l600 0 0 400 -600 0 0 -400zm1600 -600l600 0 0 400 -600 0 0 -400zm-800 0l600 0 0 400 -600 0 0 -400zm-800 0l600 0 0 400 -600 0 0 -400zm1600 -600l600 0 0 400 -600 0 0 -400zm-800 0l600 0 0 400 -600 0 0 -400zm-800 0l600 0 0 400 -600 0 0 -400z"/>
</svg>