<?xml version="1.0" encoding="UTF-8"?>
<!DOCTYPE svg PUBLIC "-//W3C//DTD SVG 1.1//EN" "http://www.w3.org/Graphics/SVG/1.1/DTD/svg11.dtd">
<svg xmlns="http://www.w3.org/2000/svg" xml:space="preserve" width="580px" height="580px" shape-rendering="geometricPrecision" text-rendering="geometricPrecision" image-rendering="optimizeQuality" fill-rule="nonzero" clip-rule="nonzero" viewBox="0 0 5800 5800" xmlns:xlink="http://www.w3.org/1999/xlink">
	<title>telephone2 icon</title>
	<desc>telephone2 icon from the IconExperience.com I-Collection. Copyright by INCORS GmbH (www.incors.com).</desc>
		<path id="curve28"  d="M3992 2189c16,-81 -9,-191 -90,-230 -232,-115 -623,-174 -1015,-174 -383,0 -761,57 -990,174 -80,41 -105,149 -89,230l36 177c31,164 -36,393 -221,431l-893 163c5,28 -312,18 -370,-267l-37 -181c-37,-181 -28,-370 26,-542 52,-168 147,-321 281,-435 73,-62 158,-112 249,-143 570,-195 1296,-292 2021,-292 725,0 1451,97 2021,292 27,9 188,90 249,143 133,116 229,267 281,435 54,172 63,361 26,542l-37 181c-36,177 -186,301 -370,267l-893 -163c-185,-38 -251,-267 -221,-431l36 -177zm-1092 711c-508,0 -1000,364 -1000,900 0,536 492,900 1000,900 508,0 1000,-364 1000,-900 0,-536 -492,-900 -1000,-900zm800 900c0,424 -403,700 -800,700 -397,0 -800,-276 -800,-700 0,-424 403,-700 800,-700 397,0 800,276 800,700zm0 -1469l0 269c0,210 257,345 540,493 407,214 860,452 860,1007l0 700c0,275 -225,500 -500,500l-3400 0c-275,0 -500,-225 -500,-500l0 -700c0,-555 453,-793 860,-1007 283,-148 540,-283 540,-493l0 -269c200,-109 576,-126 800,-126 224,0 600,17 800,126z"/>
</svg>