<?xml version="1.0" encoding="UTF-8"?>
<!DOCTYPE svg PUBLIC "-//W3C//DTD SVG 1.1//EN" "http://www.w3.org/Graphics/SVG/1.1/DTD/svg11.dtd">
<svg xmlns="http://www.w3.org/2000/svg" xml:space="preserve" width="580px" height="580px" shape-rendering="geometricPrecision" text-rendering="geometricPrecision" image-rendering="optimizeQuality" fill-rule="nonzero" clip-rule="nonzero" viewBox="0 0 5800 5800" xmlns:xlink="http://www.w3.org/1999/xlink">
	<title>telephone icon</title>
	<desc>telephone icon from the IconExperience.com I-Collection. Copyright by INCORS GmbH (www.incors.com).</desc>
		<path id="curve28"  d="M2100 1600c0,248 -115,407 -210,537 -49,67 -90,124 -90,163l0 1200c0,80 45,129 95,184 96,104 205,224 205,516l0 400c0,456 -244,700 -700,700l-200 0c-456,0 -700,-244 -700,-700l0 -400c0,-300 113,-425 209,-532 49,-54 91,-101 91,-168l0 -1200c0,-80 -45,-129 -95,-184 -96,-104 -205,-224 -205,-516l0 -400c0,-456 244,-700 700,-700l200 0c456,0 700,244 700,700l0 400zm1200 2500l0 400 600 0 0 -400 -600 0zm800 -600l0 400 600 0 0 -400 -600 0zm-800 0l0 400 600 0 0 -400 -600 0zm-800 0l0 400 600 0 0 -400 -600 0zm1600 -600l0 400 600 0 0 -400 -600 0zm-800 0l0 400 600 0 0 -400 -600 0zm-800 0l0 400 600 0 0 -400 -600 0zm1600 -600l0 400 600 0 0 -400 -600 0zm-800 0l0 400 600 0 0 -400 -600 0zm-800 0l0 400 600 0 0 -400 -600 0zm2200 -1200l-2200 0 0 800 2200 0c0,-267 0,-533 0,-800zm-2679 -600l2779 0c275,0 500,225 500,500l0 3800c0,275 -225,500 -500,500l-2779 0c208,-179 278,-433 278,-700l1 -400c0,-369 -138,-519 -258,-651 -22,-24 -42,-45 -42,-49l0 -1200c0,-26 24,-7 52,-46 111,-153 248,-341 248,-654l0 -400c0,-267 -71,-521 -279,-700z"/>
</svg>