<?xml version="1.0" encoding="UTF-8"?>
<!DOCTYPE svg PUBLIC "-//W3C//DTD SVG 1.1//EN" "http://www.w3.org/Graphics/SVG/1.1/DTD/svg11.dtd">
<svg xmlns="http://www.w3.org/2000/svg" xml:space="preserve" width="580px" height="580px" shape-rendering="geometricPrecision" text-rendering="geometricPrecision" image-rendering="optimizeQuality" fill-rule="nonzero" clip-rule="nonzero" viewBox="0 0 5800 5800" xmlns:xlink="http://www.w3.org/1999/xlink">
	<title>telephone_box icon</title>
	<desc>telephone_box icon from the IconExperience.com I-Collection. Copyright by INCORS GmbH (www.incors.com).</desc>
		<path id="curve28" d="M2840 1386c12,12 33,18 48,9 101,-60 167,-164 180,-281 2,-18 -12,-34 -28,-40l-36 -14c-41,-16 -75,-60 -62,-105l59 -207c13,-45 64,-57 104,-42l39 16c99,38 178,145 151,253 -68,269 -222,511 -438,684 -88,71 -217,43 -293,-31l-30 -30c-30,-30 -41,-82 -5,-113l163 -139c35,-30 90,-18 120,13l28 27zm-1540 4114l0 -4400c0,-440 360,-800 800,-800l1600 0c440,0 800,360 800,800l0 4400 -3200 0zm200 -200l2800 0 0 -4200c0,-330 -270,-600 -600,-600l-1600 0c-330,0 -600,270 -600,600l0 4200zm2600 -3400l0 3200 -2400 0 0 -3200 2400 0zm-200 200l-400 0 0 600 400 0 0 -600zm-600 0l-800 0 0 600 800 0 0 -600zm-1000 0l-400 0 0 600 400 0 0 -600zm-400 800l0 600 400 0 0 -600 -400 0zm0 800l0 600 400 0 0 -600 -400 0zm0 800l0 400 400 0 0 -400 -400 0zm600 400l800 0 0 -400 -800 0 0 400zm1000 0l400 0 0 -400 -400 0 0 400zm400 -600l0 -600 -400 0 0 600 400 0zm0 -800l0 -600 -400 0 0 600 400 0zm-1400 -600l0 600 800 0 0 -600 -800 0zm0 800l0 600 800 0 0 -600 -800 0z"/>
</svg>