<?xml version="1.0" encoding="UTF-8"?>
<!DOCTYPE svg PUBLIC "-//W3C//DTD SVG 1.1//EN" "http://www.w3.org/Graphics/SVG/1.1/DTD/svg11.dtd">
<svg xmlns="http://www.w3.org/2000/svg" xml:space="preserve" width="580px" height="580px" shape-rendering="geometricPrecision" text-rendering="geometricPrecision" image-rendering="optimizeQuality" fill-rule="nonzero" clip-rule="nonzero" viewBox="0 0 5800 5800" xmlns:xlink="http://www.w3.org/1999/xlink">
	<title>telephone2 icon</title>
	<desc>telephone2 icon from the IconExperience.com I-Collection. Copyright by INCORS GmbH (www.incors.com).</desc>
		<path id="curve28"  d="M3700 2300l0 300c0,210 257,345 540,493 407,214 860,452 860,1007l0 700c0,275 -225,500 -500,500l-3400 0c-275,0 -500,-225 -500,-500l0 -700c0,-555 453,-793 860,-1007 283,-148 540,-283 540,-493l0 -300 200 0 0 300c0,330 -308,492 -648,670 -356,187 -752,395 -752,830l0 700c0,165 135,300 300,300l3400 0c165,0 300,-135 300,-300l0 -700c0,-435 -396,-643 -752,-830 -339,-178 -648,-340 -648,-670l0 -300 200 0zm517 302l888 162c34,6 63,-1 86,-18 26,-19 45,-52 54,-93l37 -181c30,-147 22,-302 -22,-442 -51,-166 -156,-319 -308,-406 -29,-17 -61,-31 -95,-43 -548,-187 -1252,-281 -1957,-281 -705,0 -1409,94 -1957,281 -69,23 -129,59 -183,105 -105,89 -179,210 -220,344 -44,140 -52,295 -22,442l37 181c15,70 63,125 139,111l887 -162c28,-4 45,-38 54,-62 17,-44 21,-96 14,-138l-36 -173c-18,-88 -9,-180 24,-259 33,-80 91,-148 169,-188 258,-132 670,-196 1081,-196 420,0 844,66 1104,194 80,39 138,107 171,187 34,80 43,173 25,262l-35 170c-8,45 -4,97 13,141 12,32 29,56 52,62zm-3 167c-102,-21 -201,-67 -235,-158 -30,-77 -37,-170 -23,-250l36 -172c10,-49 5,-100 -14,-144 -16,-38 -42,-69 -76,-86 -232,-115 -623,-174 -1015,-174 -383,0 -761,57 -990,174 -34,18 -60,49 -76,87 -18,44 -23,94 -13,143l36 177c14,75 7,168 -22,245 -54,142 -222,189 -204,187l-888 162c-184,34 -334,-89 -370,-267l-37 -181c-37,-181 -28,-370 26,-542 52,-168 147,-321 281,-435 73,-62 158,-112 249,-143 570,-195 1296,-292 2021,-292 725,0 1451,97 2021,292 45,15 88,35 130,59 195,112 334,306 400,519 54,172 63,361 26,542l-37 181c-19,91 -65,165 -130,213 -66,49 -116,42 -206,26l-890 -163zm-1314 131c508,0 1000,364 1000,900 0,536 -492,900 -1000,900 -508,0 -1000,-364 -1000,-900 0,-536 492,-900 1000,-900zm0 200c-397,0 -800,276 -800,700 0,424 403,700 800,700 397,0 800,-276 800,-700 0,-424 -403,-700 -800,-700z"/>
</svg>