<?xml version="1.0" encoding="UTF-8"?>
<!DOCTYPE svg PUBLIC "-//W3C//DTD SVG 1.1//EN" "http://www.w3.org/Graphics/SVG/1.1/DTD/svg11.dtd">
<svg xmlns="http://www.w3.org/2000/svg" xml:space="preserve" width="580px" height="580px" shape-rendering="geometricPrecision" text-rendering="geometricPrecision" image-rendering="optimizeQuality" fill-rule="nonzero" clip-rule="nonzero" viewBox="0 0 5800 5800" xmlns:xlink="http://www.w3.org/1999/xlink">
	<title>temple icon</title>
	<desc>temple icon from the IconExperience.com I-Collection. Copyright by INCORS GmbH (www.incors.com).</desc>
		<path id="curve28"  d="M4900 2300l0 200c0,70 0,240 -187,287 82,626 87,1172 87,1713l300 0 0 200 200 0 0 200 200 0c0,200 0,400 0,600l-5200 0c0,-200 0,-400 0,-600l200 0 0 -200 200 0 0 -200 300 0c0,-264 1,-530 13,-816 11,-287 33,-583 75,-899 -137,-40 -188,-151 -188,-285l0 -200 -200 0 0 -300 -261 0 -175 -349 2636 -1160 2636 1160 -175 349 -261 0 0 300 -200 0zm-4000 2400l0 200 -200 0 0 200 -200 0 0 200 4800 0 0 -200 -200 0 0 -200 -200 0 0 -200c-1333,0 -2667,0 -4000,0zm2900 -200c0,-264 1,-530 13,-816 11,-287 33,-583 75,-899 -137,-40 -188,-151 -188,-285l0 -200 -200 0 0 200c0,70 0,240 -187,287 82,626 87,1172 87,1713l400 0zm-1400 0c0,-264 1,-530 13,-816 11,-287 33,-583 75,-899 -137,-40 -188,-151 -188,-285l0 -200 -200 0 0 200c0,70 0,240 -187,287 82,626 87,1172 87,1713l400 0zm2500 -2400l0 -300 339 0 25 -51 -2364 -1040 -2364 1040 25 51 339 0 0 300c1333,0 2667,0 4000,0zm-2000 -943l-1234 543 2468 0 -1234 -543zm0 -218l1800 792c0,56 0,112 0,169l-3600 0c0,-57 0,-113 0,-169l1800 -792zm-1000 1561l0 -200 -800 0 0 200c0,78 17,100 100,100l115 0 -16 114c-50,347 -75,669 -87,977 -11,270 -12,539 -12,809l600 0c0,-564 -6,-1133 -99,-1786l-16 -114 115 0c100,0 100,-73 100,-100zm1400 0l0 -200 -800 0 0 200c0,78 17,100 100,100l115 0 -16 114c-50,347 -75,669 -87,977 -11,270 -12,539 -12,809l600 0c0,-564 -6,-1133 -99,-1786l-16 -114 115 0c100,0 100,-73 100,-100zm1400 0l0 -200 -800 0 0 200c0,78 17,100 100,100l115 0 -16 114c-50,347 -75,669 -87,977 -11,270 -12,539 -12,809l600 0c0,-564 -6,-1133 -99,-1786l-16 -114 115 0c100,0 100,-73 100,-100z"/>
</svg>