<?xml version="1.0" encoding="utf-8"?>
<!-- Generator: Adobe Illustrator 26.5.0, SVG Export Plug-In . SVG Version: 6.00 Build 0)  -->
<svg version="1.1" id="Ebene_1" xmlns="http://www.w3.org/2000/svg" xmlns:xlink="http://www.w3.org/1999/xlink" x="0px" y="0px"
	 viewBox="0 0 580 580" style="enable-background:new 0 0 580 580;" xml:space="preserve">
<style type="text/css">
	.st0{fill:black;}
</style>
<g>
	<path class="st0" d="M429,80H149v103h280V80z M409,163H169v-63h240V163z"/>
	<path class="st0" d="M90,20v540h400V20H90z M470,540H110V40h360V540z"/>
	<path class="st0" d="M290,320.2h139V203H290V320.2z M310,223h99v77.2h-99V223z"/>
	<path class="st0" d="M290,459h139V341.8H290V459z M310,361.8h99V439h-99V361.8z"/>
	<path class="st0" d="M269,203H149v256h120V203z M249,439h-80V223h80V439z"/>
	<rect x="149" y="480" class="st0" width="280" height="20"/>
</g>
</svg>
