<?xml version="1.0" encoding="UTF-8"?>
<!DOCTYPE svg PUBLIC "-//W3C//DTD SVG 1.1//EN" "http://www.w3.org/Graphics/SVG/1.1/DTD/svg11.dtd">
<svg xmlns="http://www.w3.org/2000/svg" xml:space="preserve" width="580px" height="580px" shape-rendering="geometricPrecision" text-rendering="geometricPrecision" image-rendering="optimizeQuality" fill-rule="nonzero" clip-rule="nonzero" viewBox="0 0 5800 5800" xmlns:xlink="http://www.w3.org/1999/xlink">
	<title>temple icon</title>
	<desc>temple icon from the IconExperience.com I-Collection. Copyright by INCORS GmbH (www.incors.com).</desc>
		<path id="curve28"  d="M5100 4500l0 200 200 0 0 200 200 0c0,200 0,400 0,600l-5200 0 0 -600 200 0 0 -200 200 0 0 -200c1467,0 2933,0 4400,0zm-3000 -2000c0,70 0,240 -187,287 72,549 84,1037 87,1513l-1000 0c1,-199 4,-402 13,-616 11,-287 33,-583 75,-899 -137,-40 -188,-151 -188,-285l1200 0zm2800 0c0,70 0,240 -187,287 72,549 84,1037 87,1513l-1000 0c1,-199 4,-402 13,-616 11,-287 33,-583 75,-899 -137,-40 -188,-151 -188,-285l1200 0zm-1400 0c0,70 0,240 -187,287 72,549 84,1037 87,1513l-1000 0c1,-199 4,-402 13,-616 11,-287 33,-583 75,-899 -137,-40 -188,-151 -188,-285l1200 0zm-600 -2009l2636 1160c-58,116 -116,233 -175,349l-261 0 0 300 -4400 0 0 -300 -261 0 -175 -349 2636 -1160zm0 666l-1234 543 2468 0 -1234 -543zm0 -218l-1800 792c0,56 0,112 0,169l3600 0c0,-57 0,-113 0,-169l-1800 -792z"/>
</svg>