<?xml version="1.0" encoding="utf-8"?>
<!-- Generator: Adobe Illustrator 26.5.0, SVG Export Plug-In . SVG Version: 6.00 Build 0)  -->
<svg version="1.1" id="Ebene_1" xmlns="http://www.w3.org/2000/svg" xmlns:xlink="http://www.w3.org/1999/xlink" x="0px" y="0px"
	 viewBox="0 0 580 580" style="enable-background:new 0 0 580 580;" xml:space="preserve">
<style type="text/css">
	
</style>
<g>
	<path class="st0" d="M368.5,79.7h-280v103h280V79.7z M348.5,162.7h-240v-63h240V162.7z"/>
	<polygon class="st0" points="368.5,240.3 368.5,202.7 229.5,202.7 229.5,240.3 249.5,240.3 249.5,222.7 348.5,222.7 348.5,240.3 	
		"/>
	<path class="st0" d="M170.5,280.3c0,93.3,0,186.7,0,280h380c0-93.3,0-186.6,0-280H170.5z M524.9,300.3L366.9,432
		c-3.7,3.1-9.1,3.1-12.8,0l-158-131.7H524.9z M190.5,321.6l116.8,97.3L190.5,528V321.6z M206.6,540.3l116.2-108.5l18.5,15.5
		c11.2,9.3,27.2,9.3,38.4,0l18.5-15.5l116.9,108.5H206.6z M530.5,527.4L413.7,418.9l116.8-97.3V527.4z"/>
	<polygon class="st0" points="108.5,222.7 188.5,222.7 188.5,240.3 208.5,240.3 208.5,202.7 88.5,202.7 88.5,458.7 130.5,458.7 
		130.5,438.7 108.5,438.7 	"/>
	<rect x="88.5" y="479.7" class="st0" width="42" height="20"/>
	<polygon class="st0" points="49.5,39.7 409.5,39.7 409.5,240.3 429.5,240.3 429.5,19.7 29.5,19.7 29.5,559.7 130.5,559.7 
		130.5,539.7 49.5,539.7 	"/>
</g>
</svg>
