<?xml version="1.0" encoding="utf-8"?>
<!-- Generator: Adobe Illustrator 26.5.0, SVG Export Plug-In . SVG Version: 6.00 Build 0)  -->
<svg version="1.1" id="Ebene_1" xmlns="http://www.w3.org/2000/svg" xmlns:xlink="http://www.w3.org/1999/xlink" x="0px" y="0px"
	 viewBox="0 0 580 580" style="enable-background:new 0 0 580 580;" xml:space="preserve">
<style type="text/css">
	.st0{fill:black;}
</style>
<g>
	<polygon class="st0" points="108.1,99 348.1,99 348.1,159 368.1,159 368.1,79 88.1,79 88.1,182 187.8,182 187.8,162 108.1,162 	"/>
	<path class="st0" d="M351.7,300.1V260h80v40.1h18V260h80v40.1h19.9V200h-320v360h60.5v-20h-40.4v-80h40.4v-20h-40.4v-80h40.4v-20
		h-40.4v-80h80v40.1H351.7z M249.7,240v-20h280v20H249.7z"/>
	<path class="st0" d="M409.4,528.4l36.3-114.8h52.7v-20h-58.1c-5.5,0-10.4,3.6-12,8.8l-19.3,61.2l-3.1-9.2
		c-1.5-5.4-6.4-9.2-12.1-9.2h-10.3v20h5L409.4,528.4z"/>
	<path class="st0" d="M330.9,340v220h220V340H330.9z M530.9,540h-180V360h180V540z"/>
	<polygon class="st0" points="88.1,458 187.8,458 187.8,438 108.1,438 108.1,222 187.8,222 187.8,202 88.1,202 	"/>
	<rect x="88.1" y="479" class="st0" width="99.7" height="20"/>
	<polygon class="st0" points="49.1,40 409.1,40 409.1,159 429.1,159 429.1,20 29.1,20 29.1,560 187.8,560 187.8,540 49.1,540 	"/>
</g>
</svg>
