<?xml version="1.0" encoding="utf-8"?>
<!-- Generator: Adobe Illustrator 26.5.0, SVG Export Plug-In . SVG Version: 6.00 Build 0)  -->
<svg version="1.1" id="Ebene_1" xmlns="http://www.w3.org/2000/svg" xmlns:xlink="http://www.w3.org/1999/xlink" x="0px" y="0px"
	 viewBox="0 0 580 580" style="enable-background:new 0 0 580 580;" xml:space="preserve">
<style type="text/css">
	.st0{fill:black;}
</style>
<g>
	<path class="st0" d="M368.5,79.7h-280v103h280V79.7z M348.5,162.7h-240v-63h240V162.7z"/>
	<polygon class="st0" points="368.5,240.3 368.5,202.7 229.5,202.7 229.5,240.3 249.5,240.3 249.5,222.7 348.5,222.7 348.5,240.3 	
		"/>
	<polygon class="st0" points="108.5,222.7 188.5,222.7 188.5,240.3 208.5,240.3 208.5,202.7 88.5,202.7 88.5,458.7 130.5,458.7 
		130.5,438.7 108.5,438.7 	"/>
	<rect x="88.5" y="479.7" class="st0" width="42" height="20"/>
	<polygon class="st0" points="49.5,39.7 409.5,39.7 409.5,240.3 429.5,240.3 429.5,19.7 29.5,19.7 29.5,559.7 130.5,559.7 
		130.5,539.7 49.5,539.7 	"/>
	<path class="st0" d="M530,300.7v240H190v-240H530 M550,280.7H170v280h380V280.7L550,280.7z"/>
	<rect x="229.8" y="401.5" class="st0" width="161.2" height="20"/>
	<rect x="229.8" y="480.8" class="st0" width="161.2" height="20"/>
	<rect x="229.8" y="441.1" class="st0" width="161.2" height="20"/>
	<path class="st0" d="M510,329.9v-9.4h-15.8c-0.9,3.8-4.3,6.6-8.4,6.6s-7.5-2.8-8.4-6.6h-12.9c-0.9,3.8-4.3,6.6-8.4,6.6
		s-7.5-2.8-8.4-6.6h-16.9v9.5c3.4,1.1,5.9,4.4,5.9,8.2s-2.5,7.1-5.9,8.2v9.2c3.4,1.1,5.9,4.4,5.9,8.2c0,3.8-2.5,7.1-5.9,8.2v10.8
		c3.4,1.1,5.9,4.4,5.9,8.2s-2.5,7.1-5.9,8.2v10.3h16.5c1.2-3.3,4.4-5.6,8.1-5.6c3.7,0,6.8,2.3,8.1,5.6h14.1c1.2-3.4,4.4-5.8,8.2-5.8
		s7,2.4,8.2,5.8H510v-10.2c-3.7-1-6.5-4.4-6.5-8.4s2.7-7.4,6.5-8.4v-10.5c-3.7-1-6.5-4.4-6.5-8.4c0-4,2.7-7.4,6.5-8.4v-8.8
		c-3.7-1-6.5-4.4-6.5-8.4S506.3,330.9,510,329.9z M490,389.6h-39.2v-49.2H490V389.6z"/>
</g>
</svg>
