<?xml version="1.0" encoding="UTF-8"?>
<!DOCTYPE svg PUBLIC "-//W3C//DTD SVG 1.1//EN" "http://www.w3.org/Graphics/SVG/1.1/DTD/svg11.dtd">
<svg xmlns="http://www.w3.org/2000/svg" xml:space="preserve" width="580px" height="580px" shape-rendering="geometricPrecision" text-rendering="geometricPrecision" image-rendering="optimizeQuality" fill-rule="nonzero" clip-rule="nonzero" viewBox="0 0 5800 5800" xmlns:xlink="http://www.w3.org/1999/xlink">
	<title>tennis_ball icon</title>
	<desc>tennis_ball icon from the IconExperience.com I-Collection. Copyright by INCORS GmbH (www.incors.com).</desc>
		<path id="curve28" d="M2900 300c718,0 1368,291 1838,762 471,470 762,1120 762,1838 0,718 -291,1368 -762,1838 -470,471 -1120,762 -1838,762 -718,0 -1368,-291 -1838,-762 -471,-470 -762,-1120 -762,-1838 0,-718 291,-1368 762,-1838 470,-471 1120,-762 1838,-762zm1730 936c-429,516 -1062,814 -1732,814 -670,0 -1302,-297 -1730,-811 -414,431 -668,1016 -668,1661 0,645 254,1230 668,1661 428,-514 1060,-811 1730,-811 670,0 1303,298 1732,814 415,-432 670,-1018 670,-1664 0,-646 -255,-1232 -670,-1664zm-3318 -136c391,477 969,750 1586,750 618,0 1196,-274 1587,-752 -423,-372 -978,-598 -1585,-598 -609,0 -1165,227 -1588,600zm0 3600c423,373 979,600 1588,600 607,0 1162,-226 1585,-598 -391,-478 -969,-752 -1587,-752 -617,0 -1195,273 -1586,750z"/>
</svg>