<?xml version="1.0" encoding="UTF-8"?>
<!DOCTYPE svg PUBLIC "-//W3C//DTD SVG 1.1//EN" "http://www.w3.org/Graphics/SVG/1.1/DTD/svg11.dtd">
<svg xmlns="http://www.w3.org/2000/svg" xml:space="preserve" width="580px" height="580px" shape-rendering="geometricPrecision" text-rendering="geometricPrecision" image-rendering="optimizeQuality" fill-rule="nonzero" clip-rule="nonzero" viewBox="0 0 5800 5800" xmlns:xlink="http://www.w3.org/1999/xlink">
	<title>tennis_ball icon</title>
	<desc>tennis_ball icon from the IconExperience.com I-Collection. Copyright by INCORS GmbH (www.incors.com).</desc>
		<path id="curve28"  d="M2900 300c590,0 1134,196 1570,527 62,47 24,97 -9,140 -370,495 -945,783 -1563,783 -618,0 -1191,-287 -1562,-781 -32,-42 -71,-92 -9,-140 437,-332 982,-529 1573,-529zm1988 925c382,452 612,1037 612,1675 0,638 -230,1223 -611,1675 -33,39 -94,38 -125,-3 -445,-580 -1135,-922 -1866,-922 -732,0 -1419,341 -1864,920 -31,40 -92,41 -125,2 -380,-452 -609,-1035 -609,-1672 0,-637 229,-1220 609,-1672 33,-40 94,-38 125,2 445,579 1132,920 1864,920 732,0 1421,-342 1866,-922 31,-41 91,-42 124,-3zm-419 3748c-436,331 -980,527 -1569,527 -591,0 -1136,-197 -1573,-529 -56,-43 -21,-100 9,-140 371,-494 944,-781 1562,-781 619,0 1192,287 1562,783 33,44 71,93 9,140z"/>
</svg>