<?xml version="1.0" encoding="UTF-8"?>
<!DOCTYPE svg PUBLIC "-//W3C//DTD SVG 1.1//EN" "http://www.w3.org/Graphics/SVG/1.1/DTD/svg11.dtd">
<svg xmlns="http://www.w3.org/2000/svg" xml:space="preserve" width="580px" height="580px" shape-rendering="geometricPrecision" text-rendering="geometricPrecision" image-rendering="optimizeQuality" fill-rule="nonzero" clip-rule="nonzero" viewBox="0 0 5800 5800" xmlns:xlink="http://www.w3.org/1999/xlink">
	<title>tennis_racket icon</title>
	<desc>tennis_racket icon from the IconExperience.com I-Collection. Copyright by INCORS GmbH (www.incors.com).</desc>
	<path id="curve0"  d="M3870 3391c-191,20 -378,6 -553,-43 -417,-52 -833,97 -1129,393l-286 286c2,5 3,10 4,16 9,35 7,72 -5,108l-149 447c-5,15 -14,29 -24,39l-936 936c-77,78 -205,78 -283,0l-282 -282c-78,-78 -78,-206 0,-283l935 -936c14,-14 31,-23 49,-27l438 -146c35,-12 71,-14 104,-6l294 -293c295,-296 444,-710 393,-1125 -24,-198 -53,-337 -31,-545 91,-881 872,-1662 1753,-1753 896,-93 1554,565 1461,1461 -91,881 -872,1662 -1753,1753zm-1239 -524c-22,143 -63,281 -123,412 130,-59 267,-100 408,-122 -110,-80 -207,-178 -285,-290zm2794 -1249c79,-769 -474,-1322 -1243,-1243 -785,82 -1493,790 -1575,1575 -58,560 226,1067 787,1211 150,39 301,48 456,32 785,-82 1493,-790 1575,-1575z"/>
</svg>