<?xml version="1.0" encoding="UTF-8"?>
<!DOCTYPE svg PUBLIC "-//W3C//DTD SVG 1.1//EN" "http://www.w3.org/Graphics/SVG/1.1/DTD/svg11.dtd">
<svg xmlns="http://www.w3.org/2000/svg" xml:space="preserve" width="580px" height="580px" shape-rendering="geometricPrecision" text-rendering="geometricPrecision" image-rendering="optimizeQuality" fill-rule="nonzero" clip-rule="nonzero" viewBox="0 0 5800 5800" xmlns:xlink="http://www.w3.org/1999/xlink">
	<title>tennis_racket icon</title>
	<desc>tennis_racket icon from the IconExperience.com I-Collection. Copyright by INCORS GmbH (www.incors.com).</desc>
	<path id="curve0"  d="M2989 757c342,-341 765,-538 1173,-580 896,-93 1554,565 1461,1461 -42,408 -239,831 -580,1173 -342,341 -765,538 -1173,580 -191,20 -378,6 -553,-43 -417,-52 -833,97 -1129,393l-286 286c13,41 12,84 -1,124l-149 447c-5,15 -14,29 -24,39l0 1 -936 935c-77,78 -205,78 -283,0l-282 -282c-78,-78 -78,-205 0,-283l935 -936c14,-14 31,-23 49,-27l438 -146c35,-12 71,-14 104,-6l294 -293c305,-305 453,-736 388,-1164 -4,-26 -6,-49 -11,-76 -26,-139 -30,-283 -15,-430 42,-408 239,-831 580,-1173zm-358 2110c-22,143 -63,281 -123,412 130,-59 267,-100 408,-122 -110,-80 -207,-178 -285,-290zm500 -1968c-309,308 -486,687 -524,1051 -38,372 74,719 315,952 247,240 592,325 928,291 364,-38 743,-215 1051,-524 309,-308 486,-687 524,-1051 79,-769 -474,-1322 -1243,-1243 -364,38 -743,215 -1051,524zm-1420 3189l-423 141 -920 920c0,1 258,258 283,283l920 -920 141 -423c0,0 0,-1 0,-1 0,0 0,0 0,0l0 0 0 0 0 0 0 0 0 0c0,0 0,1 -1,1 0,-1 1,-1 1,-1l0 0 0 0 0 0c0,0 0,0 0,0 0,0 -1,0 -1,0zm1 0l0 0"/>
</svg>