<?xml version="1.0" encoding="UTF-8"?>
<!DOCTYPE svg PUBLIC "-//W3C//DTD SVG 1.1//EN" "http://www.w3.org/Graphics/SVG/1.1/DTD/svg11.dtd">
<svg xmlns="http://www.w3.org/2000/svg" xml:space="preserve" width="580px" height="580px" shape-rendering="geometricPrecision" text-rendering="geometricPrecision" image-rendering="optimizeQuality" fill-rule="nonzero" clip-rule="nonzero" viewBox="0 0 5800 5800" xmlns:xlink="http://www.w3.org/1999/xlink">
	<title>tent icon</title>
	<desc>tent icon from the IconExperience.com I-Collection. Copyright by INCORS GmbH (www.incors.com).</desc>
		<path id="curve28"  d="M3587 548l-574 1052 574 1052c214,391 438,790 708,1227 345,559 715,1090 1101,1621l-1954 0c-189,-331 -363,-660 -509,-1012 -91,-217 -168,-434 -242,-669 -80,209 -172,420 -276,636 -171,357 -361,702 -557,1045l-1454 0c382,-526 750,-1052 1092,-1605 267,-432 492,-830 717,-1243l574 -1052 -574 -1052 174 -96 513 940 513 -940 174 96z"/>
</svg>