<?xml version="1.0" encoding="UTF-8"?>
<!DOCTYPE svg PUBLIC "-//W3C//DTD SVG 1.1//EN" "http://www.w3.org/Graphics/SVG/1.1/DTD/svg11.dtd">
<svg xmlns="http://www.w3.org/2000/svg" xml:space="preserve" width="580px" height="580px" shape-rendering="geometricPrecision" text-rendering="geometricPrecision" image-rendering="optimizeQuality" fill-rule="nonzero" clip-rule="nonzero" viewBox="0 0 5800 5800" xmlns:xlink="http://www.w3.org/1999/xlink">
	<title>tent icon</title>
	<desc>tent icon from the IconExperience.com I-Collection. Copyright by INCORS GmbH (www.incors.com).</desc>
		<path id="curve28"  d="M3587 548l-574 1052 574 1052c214,391 438,790 708,1227 269,436 586,913 986,1462l115 159 -1954 0c-189,-331 -363,-660 -509,-1012 -91,-217 -168,-434 -242,-669 -80,209 -172,420 -276,636 -171,357 -361,702 -557,1045 -485,0 -969,0 -1454,0 382,-526 750,-1052 1092,-1605 267,-432 492,-830 717,-1243l574 -1052 -574 -1052 174 -96 513 940 513 -940 174 96zm-687 1260l-513 940c-226,415 -452,816 -721,1252 -245,395 -524,817 -871,1300l947 0c188,-331 353,-638 493,-930 149,-310 272,-606 370,-901l103 -306 88 310c99,346 198,643 321,939 117,281 257,563 441,888l1447 0c-348,-485 -632,-916 -879,-1316 -273,-442 -499,-843 -713,-1236l-513 -940z"/>
</svg>