<?xml version="1.0" encoding="UTF-8"?>
<!DOCTYPE svg PUBLIC "-//W3C//DTD SVG 1.1//EN" "http://www.w3.org/Graphics/SVG/1.1/DTD/svg11.dtd">
<svg xmlns="http://www.w3.org/2000/svg" xml:space="preserve" width="580px" height="580px" shape-rendering="geometricPrecision" text-rendering="geometricPrecision" image-rendering="optimizeQuality" fill-rule="nonzero" clip-rule="nonzero" viewBox="0 0 5800 5800" xmlns:xlink="http://www.w3.org/1999/xlink">
	<title>terrorist icon</title>
	<desc>terrorist icon from the IconExperience.com I-Collection. Copyright by INCORS GmbH (www.incors.com).</desc>
		<path id="curve28"  d="M2895 300c912,0 1403,621 1405,1498 0,436 -220,865 -411,1247 -37,75 -37,152 -17,231 23,90 70,185 117,279 25,51 4,93 -29,129 100,48 202,91 307,129 126,46 283,104 386,203 111,108 196,243 254,389 62,153 93,318 93,475 0,225 -254,370 -605,461 -465,121 -1113,159 -1495,159 -382,0 -1030,-38 -1495,-159 -351,-91 -605,-236 -605,-461 0,-157 31,-322 93,-476 58,-145 143,-280 254,-388 103,-99 260,-157 386,-203 106,-39 208,-81 310,-131 -44,-30 -56,-89 -28,-135 87,-175 172,-349 96,-502 -190,-380 -411,-812 -411,-1245 1,-847 515,-1498 1395,-1500zm755 3561c-191,64 -438,101 -695,101 -260,0 -534,-36 -775,-118 -176,100 -359,183 -549,252 -93,34 -218,79 -276,135 -80,78 -142,178 -185,286 -46,116 -70,241 -70,362 16,46 201,118 250,134 225,75 469,112 703,138 281,33 564,49 847,49 283,0 566,-16 847,-49 234,-26 478,-63 703,-138 49,-16 234,-88 250,-134 0,-121 -24,-246 -70,-362 -43,-108 -105,-208 -185,-286 -58,-56 -183,-101 -276,-135 -179,-65 -352,-143 -519,-235zm-1421 -2461c-115,0 -229,35 -229,233 0,197 114,267 229,267 228,0 571,0 571,-375 0,-125 -343,-125 -571,-125zm1342 0c-228,0 -571,0 -571,125 0,375 343,375 571,375 115,0 229,-70 229,-267 0,-198 -114,-233 -229,-233zm-671 1200c-200,0 -400,90 -400,200 0,110 179,100 400,100 221,0 400,10 400,-100 0,-110 -200,-200 -400,-200z"/>
</svg>