<?xml version="1.0" encoding="UTF-8"?>
<!DOCTYPE svg PUBLIC "-//W3C//DTD SVG 1.1//EN" "http://www.w3.org/Graphics/SVG/1.1/DTD/svg11.dtd">
<svg xmlns="http://www.w3.org/2000/svg" xml:space="preserve" width="580px" height="580px" shape-rendering="geometricPrecision" text-rendering="geometricPrecision" image-rendering="optimizeQuality" fill-rule="nonzero" clip-rule="nonzero" viewBox="0 0 5800 5800" xmlns:xlink="http://www.w3.org/1999/xlink">
	<title>terrorist icon</title>
	<desc>terrorist icon from the IconExperience.com I-Collection. Copyright by INCORS GmbH (www.incors.com).</desc>
		<path id="curve28"  d="M2895 300c450,0 800,151 1040,417 238,262 364,634 365,1081 0,215 -53,426 -132,637 -76,204 -178,407 -279,610 -37,75 -37,152 -17,231 23,90 70,185 117,279 17,35 13,75 -9,104 1,1 -18,23 -20,25 101,48 202,91 307,129 126,46 283,104 386,203 111,108 196,243 254,389 62,153 93,318 93,475 0,225 -254,370 -605,461 -465,121 -1113,159 -1495,159 -382,0 -1030,-38 -1495,-159 -351,-91 -605,-236 -605,-461 0,-157 31,-322 93,-476 58,-145 143,-280 254,-388 103,-99 260,-157 386,-203 106,-39 208,-81 310,-131 -44,-30 -56,-89 -28,-135 87,-175 172,-349 96,-502 -101,-203 -203,-406 -279,-610 -79,-211 -132,-422 -132,-635 0,-436 136,-816 384,-1084 240,-260 583,-415 1011,-416zm877 3513c-201,94 -501,149 -817,149 -305,0 -629,-49 -898,-165 -37,20 -74,39 -112,58 -112,54 -227,104 -344,146 -108,39 -243,88 -315,158 -91,88 -160,199 -208,319 -52,129 -78,269 -78,402 0,111 191,200 455,268 444,116 1073,152 1445,152 372,0 1001,-36 1445,-152 264,-68 455,-157 455,-268 0,-134 -26,-273 -78,-402 -47,-120 -117,-231 -208,-319 -72,-70 -207,-119 -315,-158 -118,-43 -231,-91 -344,-146 -28,-14 -55,-28 -83,-42zm-1543 -2413c-115,0 -229,35 -229,233 0,197 114,267 229,267 228,0 571,0 571,-375 0,-125 -343,-125 -571,-125zm1342 0c-228,0 -571,0 -571,125 0,375 343,375 571,375 115,0 229,-70 229,-267 0,-198 -114,-233 -229,-233zm-671 1200c-200,0 -400,90 -400,200 0,110 179,100 400,100 221,0 400,10 400,-100 0,-110 -200,-200 -400,-200z"/>
</svg>