<?xml version="1.0" encoding="UTF-8"?>
<!DOCTYPE svg PUBLIC "-//W3C//DTD SVG 1.1//EN" "http://www.w3.org/Graphics/SVG/1.1/DTD/svg11.dtd">
<svg xmlns="http://www.w3.org/2000/svg" xml:space="preserve" width="580px" height="580px" shape-rendering="geometricPrecision" text-rendering="geometricPrecision" image-rendering="optimizeQuality" fill-rule="nonzero" clip-rule="nonzero" viewBox="0 0 5800 5800" xmlns:xlink="http://www.w3.org/1999/xlink">
	<title>text_tree icon</title>
	<desc>text_tree icon from the IconExperience.com I-Collection. Copyright by INCORS GmbH (www.incors.com).</desc>
	<path id="curve0"  d="M2900 2800l0 200 1600 0 0 -200 -1600 0zm0 -700l0 200 1600 0 0 -200 -1600 0zm-400 -700l0 200 1600 0 0 -200 -1600 0zm0 -700l0 200 1600 0 0 -200 -1600 0zm0 3500l0 200 1600 0 0 -200 -1600 0zm0 -700l0 200 1600 0 0 -200 -1600 0zm100 1600l0 -200 -700 0 0 -500 300 0 0 -200 -700 0 0 -500 700 0 0 -200 -700 0 0 -1900 200 0 0 1400 900 0 0 -200 -700 0 0 -500 700 0 0 -200 -700 0 0 -500 300 0 0 -200 -700 0 0 -500 700 0 0 -200 -900 0 0 3700 400 0 0 700 900 0zm1900 0l0 -200 -1600 0 0 200 1600 0zm600 -5000l0 5600 -4400 0 0 -5600 4400 0z"/>
</svg>