<?xml version="1.0" encoding="UTF-8"?>
<!DOCTYPE svg PUBLIC "-//W3C//DTD SVG 1.1//EN" "http://www.w3.org/Graphics/SVG/1.1/DTD/svg11.dtd">
<svg xmlns="http://www.w3.org/2000/svg" xml:space="preserve" width="580px" height="580px" shape-rendering="geometricPrecision" text-rendering="geometricPrecision" image-rendering="optimizeQuality" fill-rule="nonzero" clip-rule="nonzero" viewBox="0 0 5800 5800" xmlns:xlink="http://www.w3.org/1999/xlink">
	<title>text_align_justified icon</title>
	<desc>text_align_justified icon from the IconExperience.com I-Collection. Copyright by INCORS GmbH (www.incors.com).</desc>
		<path id="curve28" d="M1100 4100l3600 0 0 200 -3600 0 0 -200zm0 -800l3600 0 0 200 -3600 0 0 -200zm0 -800l3600 0 0 200 -3600 0 0 -200zm4000 -2200l0 5200 -200 0 0 -5200 200 0zm-4000 4600l2800 0 0 200 -2800 0 0 -200zm0 -3200l3600 0 0 200 -3600 0 0 -200zm0 -800l3600 0 0 200 -3600 0 0 -200zm-200 -600l0 5200 -200 0 0 -5200 200 0z"/>
</svg>