<?xml version="1.0" encoding="UTF-8"?>
<!DOCTYPE svg PUBLIC "-//W3C//DTD SVG 1.1//EN" "http://www.w3.org/Graphics/SVG/1.1/DTD/svg11.dtd">
<svg xmlns="http://www.w3.org/2000/svg" xml:space="preserve" width="580px" height="580px" shape-rendering="geometricPrecision" text-rendering="geometricPrecision" image-rendering="optimizeQuality" fill-rule="nonzero" clip-rule="nonzero" viewBox="0 0 5800 5800" xmlns:xlink="http://www.w3.org/1999/xlink">
	<title>text_braille icon</title>
	<desc>text_braille icon from the IconExperience.com I-Collection. Copyright by INCORS GmbH (www.incors.com).</desc>
		<path id="curve28"  d="M5100 100l0 5600 -4400 0 0 -5600 4400 0zm-1700 4400c166,0 300,134 300,300 0,165 -135,300 -300,300 -166,0 -300,-134 -300,-300 0,-165 135,-300 300,-300zm0 -700c166,0 300,134 300,300 0,165 -135,300 -300,300 -166,0 -300,-134 -300,-300 0,-165 135,-300 300,-300zm700 0c166,0 300,134 300,300 0,165 -135,300 -300,300 -166,0 -300,-134 -300,-300 0,-165 135,-300 300,-300zm4 -699c165,0 300,135 300,300 0,165 -135,300 -300,300 -166,0 -300,-134 -300,-300 0,-165 134,-300 300,-300zm-704 -2401c165,0 300,135 300,300 0,166 -134,300 -300,300 -165,0 -300,-135 -300,-300 0,-166 134,-300 300,-300zm700 700c165,0 300,135 300,300 0,166 -134,300 -300,300 -165,0 -300,-135 -300,-300 0,-166 134,-300 300,-300zm-2400 1700c165,0 300,135 300,300 0,166 -134,300 -300,300 -165,0 -300,-135 -300,-300 0,-166 134,-300 300,-300zm700 1400c165,0 300,135 300,300 0,166 -134,300 -300,300 -165,0 -300,-135 -300,-300 0,-166 134,-300 300,-300zm-700 0c165,0 300,135 300,300 0,166 -134,300 -300,300 -165,0 -300,-135 -300,-300 0,-166 134,-300 300,-300zm704 -1399c165,0 300,135 300,300 0,166 -135,300 -300,300 -166,0 -300,-135 -300,-300 0,-165 134,-300 300,-300zm-704 -1001c166,0 300,134 300,300 0,165 -135,300 -300,300 -166,0 -300,-134 -300,-300 0,-165 135,-300 300,-300zm0 -700c166,0 300,134 300,300 0,165 -135,300 -300,300 -166,0 -300,-134 -300,-300 0,-165 135,-300 300,-300zm700 0c166,0 300,134 300,300 0,165 -135,300 -300,300 -166,0 -300,-134 -300,-300 0,-165 135,-300 300,-300zm4 -699c165,0 300,135 300,300 0,165 -135,300 -300,300 -166,0 -300,-134 -300,-300 0,-165 134,-300 300,-300zm2496 -401l-4000 0 0 5200 4000 0 0 -5200z"/>
</svg>