<?xml version="1.0" encoding="utf-8"?>
<!-- Generator: Adobe Illustrator 19.2.1, SVG Export Plug-In . SVG Version: 6.00 Build 0)  -->
<svg version="1.1" id="Ebene_1" xmlns="http://www.w3.org/2000/svg" xmlns:xlink="http://www.w3.org/1999/xlink" x="0px" y="0px"
	 width="580px" height="580px" viewBox="0 0 580 580" style="enable-background:new 0 0 580 580;" xml:space="preserve">
<g>
	<polygon points="503,380 459,380 459,197 503,197 503,177 394,177 394,197 439,197 439,380 394,380 394,400 503,400 	"/>
	<path d="M84.9,390.9c8.4,7.9,20.1,11.9,35.1,11.9c20.3,0,35.7-8.9,46.1-26.9h0.9v23h24v-97.3c0-37.3-17.7-56-53-56
		c-19.2,0-36,4.7-51,14.1v24.6c14-12.3,30.8-18.5,48.8-18.5c20.6,0,30.9,12.7,30.9,38.2l-45,6.3c-33,4.6-49.5,20.9-49.5,48.9
		C72.2,372.5,76.4,383,84.9,390.9z M105.3,336.7c5.7-4,14.2-6.7,25.4-8.3l36.3-5v14.9c0,12.8-4,23.4-11.8,31.7s-17.7,12.5-29.6,12.5
		c-8.7,0-15.7-2.3-20.9-7c-5.2-4.6-7.9-10.6-7.9-17.9C96.8,347.6,99.6,340.6,105.3,336.7z"/>
	<path d="M260,378h0.6c10.2,16,25.1,25,45,25c21.2,0,37.9-7.6,50.1-22.7c12.2-15.1,18.3-35.2,18.3-60.3c0-22.6-5.4-40.6-16.3-54
		c-10.9-13.4-26-20-45.2-20c-22.8,0-40,10-51.9,30H260v-99h-24v222h24V378z M260,317.1c0-14.6,4.2-26.8,12.7-36.5
		c8.5-9.7,19.7-14.6,33.7-14.6c13.2,0,23.6,4.7,31.3,14.2c7.7,9.5,11.6,22.6,11.6,39.3c0,19.8-4.1,35.3-12.4,46.4
		c-8.3,11.1-19.7,16.7-34.2,16.7c-12.4,0-22.6-4.3-30.7-13S260,350.5,260,338V317.1z"/>
	<path d="M10,115v350h560V115H10z M550,445H30V135h520V445z"/>
</g>
</svg>
