<?xml version="1.0" encoding="utf-8"?>
<!-- Generator: Adobe Illustrator 19.2.1, SVG Export Plug-In . SVG Version: 6.00 Build 0)  -->
<svg version="1.1" id="Ebene_1" xmlns="http://www.w3.org/2000/svg" xmlns:xlink="http://www.w3.org/1999/xlink" x="0px" y="0px"
	 width="580px" height="580px" viewBox="0 0 580 580" style="enable-background:new 0 0 580 580;" xml:space="preserve">
<g>
	<path d="M94.1,192L18.9,388h25.6l19.6-55h83.1l20.8,55h25.4l-75.5-196H94.1z M71.7,313l30.5-83.7c1.2-3.2,2.2-8.3,3.1-13.3h0.5
		c1,6,2,10.6,3,13.3l30.8,83.7H71.7z"/>
	<path d="M322,283.8v-0.5c10-3.5,18.7-9.3,24.8-17.5s9-17.9,9-29c0-13.3-5-24.1-14.9-32.4c-9.9-8.3-23.4-12.4-40.4-12.4H245v196
		h56.8c18.3,0,33.5-5.2,45.5-15.6s18-24,18-40.7c0-13.5-3.8-24.4-11.8-32.9C345.7,290.4,335,285.4,322,283.8z M268,213h26
		c25.1,0,37.6,9.4,37.6,28.5c0,11-3.6,19.5-10.8,25.5c-7.2,6.1-17.1,9-29.7,9H268V213z M330.2,357.6c-7.4,6.4-17.9,9.4-31.4,9.4H268
		v-70h26c31.5,0,47.3,11.4,47.3,34.5C341.3,342.6,337.6,351.2,330.2,357.6z"/>
	<path d="M514.5,209.5c17,0,32.5,3.9,46.5,11.8v-24.5c-12-5.4-27.6-8.1-46.2-8.1c-29,0-52.9,9.7-71.8,29
		c-18.9,19.3-28.3,44.7-28.3,76c0,29.2,8.4,52.7,25.2,70.7c16.8,18,39.1,26.9,67,26.9c21.6,0,39.1-3.8,54.1-11.5v-22.3
		c-14,8.8-31.5,13.1-51.1,13.1c-21.2,0-38.4-7.1-51.5-21.3c-13.1-14.2-19.6-33.2-19.6-57.1c0-25.2,7-45.3,21-60.3
		C473.7,217,492,209.5,514.5,209.5z"/>
</g>
</svg>
