<?xml version="1.0" encoding="UTF-8"?>
<!DOCTYPE svg PUBLIC "-//W3C//DTD SVG 1.1//EN" "http://www.w3.org/Graphics/SVG/1.1/DTD/svg11.dtd">
<svg xmlns="http://www.w3.org/2000/svg" xml:space="preserve" width="580px" height="580px" shape-rendering="geometricPrecision" text-rendering="geometricPrecision" image-rendering="optimizeQuality" fill-rule="nonzero" clip-rule="nonzero" viewBox="0 0 5800 5800" xmlns:xlink="http://www.w3.org/1999/xlink">
	<title>text icon</title>
	<desc>text icon from the IconExperience.com I-Collection. Copyright by INCORS GmbH (www.incors.com).</desc>
		<path id="curve28"  d="M2500 4900l2000 0 0 200 -2000 0 0 -200zm1200 -700l800 0 0 200 -800 0 0 -200zm-400 -2100l1200 0 0 200 -1200 0 0 -200zm-1200 -700l1200 0 0 200 -1200 0 0 -200zm800 2800l600 0 0 200 -600 0 0 -200zm-1600 0l1422 0 0 200 -1422 0 0 -200zm0 700l1000 0 0 200 -1000 0 0 -200zm2000 -1400l1200 0 0 200 -1200 0 0 -200zm-2000 0l1800 0 0 200 -1800 0 0 -200zm900 -700l2300 0 0 200 -2300 0 0 -200zm-900 0l711 0 0 200 -711 0 0 -200zm0 -700l1800 0 0 200 -1800 0 0 -200zm2200 -700l1000 0 0 200 -1000 0 0 -200zm-2200 0l600 0 0 200 -600 0 0 -200zm0 -700l3200 0 0 200 -3200 0 0 -200zm3800 -600l0 5600 -4400 0 0 -5600 4400 0zm-200 200l-4000 0 0 5200 4000 0 0 -5200z"/>
</svg>