<?xml version="1.0" encoding="UTF-8"?>
<!DOCTYPE svg PUBLIC "-//W3C//DTD SVG 1.1//EN" "http://www.w3.org/Graphics/SVG/1.1/DTD/svg11.dtd">
<svg xmlns="http://www.w3.org/2000/svg" xml:space="preserve" width="580px" height="580px" shape-rendering="geometricPrecision" text-rendering="geometricPrecision" image-rendering="optimizeQuality" fill-rule="nonzero" clip-rule="nonzero" viewBox="0 0 5800 5800" xmlns:xlink="http://www.w3.org/1999/xlink">
	<title>text_align_left icon</title>
	<desc>text_align_left icon from the IconExperience.com I-Collection. Copyright by INCORS GmbH (www.incors.com).</desc>
		<path id="curve28"  d="M1000 300l0 5200 -400 0 0 -5200 400 0zm200 500l3900 0 0 400 -3900 0 0 -400zm0 800l3500 0 0 400 -3500 0 0 -400zm0 800l1900 0 0 400 -1900 0 0 -400zm0 800l3100 0 0 400 -3100 0 0 -400zm0 800l3900 0 0 400 -3900 0 0 -400zm0 800l2700 0 0 400 -2700 0 0 -400z"/>
</svg>