<?xml version="1.0" encoding="UTF-8"?>
<!DOCTYPE svg PUBLIC "-//W3C//DTD SVG 1.1//EN" "http://www.w3.org/Graphics/SVG/1.1/DTD/svg11.dtd">
<svg xmlns="http://www.w3.org/2000/svg" xml:space="preserve" width="580px" height="580px" shape-rendering="geometricPrecision" text-rendering="geometricPrecision" image-rendering="optimizeQuality" fill-rule="nonzero" clip-rule="nonzero" viewBox="0 0 5800 5800" xmlns:xlink="http://www.w3.org/1999/xlink">
	<title>text_speaker icon</title>
	<desc>text_speaker icon from the IconExperience.com I-Collection. Copyright by INCORS GmbH (www.incors.com).</desc>
		<path id="curve29"  d="M5100 100l0 2751c-63,-51 -130,-96 -200,-137l0 -2414 -4000 0 0 5200 2494 0c74,71 150,140 224,200l-2918 0 0 -5600 4400 0zm0 5249l0 351 -600 0 0 -49c229,-69 411,-150 600,-302zm-1800 -3249l1200 0 0 200 -1200 0 0 -200zm-1200 -700l1200 0 0 200 -1200 0 0 -200zm-800 2800l800 0 0 200 -800 0 0 -200zm0 700l854 0c35,61 85,111 146,146l0 54 -1000 0 0 -200zm0 -1400l800 0 0 200 -800 0 0 -200zm900 -700l1131 0 -240 200 -891 0 0 -200zm-900 0l711 0 0 200 -711 0 0 -200zm0 -700l1800 0 0 200 -1800 0 0 -200zm2200 -700l1000 0 0 200 -1000 0 0 -200zm-2200 0l600 0 0 200 -600 0 0 -200zm0 -700l3200 0 0 200 -3200 0 0 -200z"/>
	<path id="curve28"  d="M3888 5618l-724 -723 -658 0 0 -100c-121,0 -200,-79 -200,-200l0 -1000c0,-122 78,-200 200,-200l0 -100 658 0 724 -723c57,-57 124,-81 187,-81 117,0 231,87 231,212l0 2784c0,125 -114,212 -231,212 -63,0 -130,-24 -187,-81zm612 -2860c593,177 1000,723 1000,1342 0,618 -407,1164 -998,1341l-2 -5 0 -204c480,-170 800,-623 800,-1132 0,-508 -321,-963 -800,-1132l0 -210zm1 536c305,153 499,465 499,806 0,340 -191,650 -494,803l-6 3 0 -231c188,-131 300,-345 300,-575 0,-230 -111,-443 -300,-575l1 -231zm-395 2193l0 -2784c0,-6 -25,-12 -31,-12 -14,0 -30,7 -46,22l-729 729 0 1306 729 729c0,8 53,40 77,10zm-1006 -792l0 -1200 -394 0 0 100 -200 0 0 1000 200 0 0 100 394 0z"/>
</svg>