<?xml version="1.0" encoding="UTF-8"?>
<!DOCTYPE svg PUBLIC "-//W3C//DTD SVG 1.1//EN" "http://www.w3.org/Graphics/SVG/1.1/DTD/svg11.dtd">
<svg xmlns="http://www.w3.org/2000/svg" xml:space="preserve" width="580px" height="580px" shape-rendering="geometricPrecision" text-rendering="geometricPrecision" image-rendering="optimizeQuality" fill-rule="nonzero" clip-rule="nonzero" viewBox="0 0 5800 5800" xmlns:xlink="http://www.w3.org/1999/xlink">
	<title>text_align_center icon</title>
	<desc>text_align_center icon from the IconExperience.com I-Collection. Copyright by INCORS GmbH (www.incors.com).</desc>
		<path id="curve28"  d="M3100 300l0 5200 -400 0 0 -5200 400 0zm-1600 4500l1000 0 0 400 -1000 0 0 -400zm1800 0l1000 0 0 400 -1000 0 0 -400zm-2400 -4000l1600 0 0 400 -1600 0 0 -400zm2400 0l1600 0 0 400 -1600 0 0 -400zm-2200 800l1400 0 0 400 -1400 0 0 -400zm2200 0l1400 0 0 400 -1400 0 0 -400zm-1400 800l600 0 0 400 -600 0 0 -400zm1400 0l600 0 0 400 -600 0 0 -400zm-2000 800l1200 0 0 400 -1200 0 0 -400zm2000 0l1200 0 0 400 -1200 0 0 -400zm-2400 800l1600 0 0 400 -1600 0 0 -400zm2400 0l1600 0 0 400 -1600 0 0 -400z"/>
</svg>