<?xml version="1.0" encoding="UTF-8"?>
<!DOCTYPE svg PUBLIC "-//W3C//DTD SVG 1.1//EN" "http://www.w3.org/Graphics/SVG/1.1/DTD/svg11.dtd">
<svg xmlns="http://www.w3.org/2000/svg" xml:space="preserve" width="580px" height="580px" shape-rendering="geometricPrecision" text-rendering="geometricPrecision" image-rendering="optimizeQuality" fill-rule="nonzero" clip-rule="nonzero" viewBox="0 0 5800 5800" xmlns:xlink="http://www.w3.org/1999/xlink">
	<title>text_binary icon</title>
	<desc>text_binary icon from the IconExperience.com I-Collection. Copyright by INCORS GmbH (www.incors.com).</desc>
	<path id="curve0"  d="M5100 100l0 5600 -4400 0 0 -5600 4400 0zm-3800 4800l400 0 0 200 -400 0 0 -200zm600 0l400 0 0 200 -400 0 0 -200zm800 0l400 0 0 200 -400 0 0 -200zm700 0l500 0 0 200 -500 0 0 -200zm900 0l200 0 0 200 -200 0 0 -200zm-3000 -700l200 0 0 200 -200 0 0 -200zm400 0l200 0 0 200 -200 0 0 -200zm600 0l400 0 0 200 -400 0 0 -200zm600 0l200 0 0 200 -200 0 0 -200zm400 0l400 0 0 200 -400 0 0 -200zm600 0l200 0 0 200 -200 0 0 -200zm400 0l200 0 0 200 -200 0 0 -200zm-3000 -700l400 0 0 200 -400 0 0 -200zm600 0l400 0 0 200 -400 0 0 -200zm600 0l200 0 0 200 -200 0 0 -200zm400 0l400 0 0 200 -400 0 0 -200zm600 0l400 0 0 200 -400 0 0 -200zm800 0l200 0 0 200 -200 0 0 -200zm-3000 -700l200 0 0 200 -200 0 0 -200zm600 0l400 0 0 200 -400 0 0 -200zm600 0l400 0 0 200 -400 0 0 -200zm800 0l400 0 0 200 -400 0 0 -200zm800 0l400 0 0 200 -400 0 0 -200zm-2800 -700l400 0 0 200 -400 0 0 -200zm600 0l400 0 0 200 -400 0 0 -200zm800 0l400 0 0 200 -400 0 0 -200zm700 0l500 0 0 200 -500 0 0 -200zm900 0l200 0 0 200 -200 0 0 -200zm-3000 -700l400 0 0 200 -400 0 0 -200zm600 0l400 0 0 200 -400 0 0 -200zm600 0l200 0 0 200 -200 0 0 -200zm400 0l400 0 0 200 -400 0 0 -200zm600 0l200 0 0 200 -200 0 0 -200zm600 0l400 0 0 200 -400 0 0 -200zm-2800 -700l200 0 0 200 -200 0 0 -200zm400 0l200 0 0 200 -200 0 0 -200zm600 0l400 0 0 200 -400 0 0 -200zm600 0l200 0 0 200 -200 0 0 -200zm400 0l400 0 0 200 -400 0 0 -200zm600 0l200 0 0 200 -200 0 0 -200zm400 0l200 0 0 200 -200 0 0 -200zm600 -400l-4000 0 0 5200 4000 0 0 -5200z"/>
</svg>