<?xml version="1.0" encoding="UTF-8"?>
<!DOCTYPE svg PUBLIC "-//W3C//DTD SVG 1.1//EN" "http://www.w3.org/Graphics/SVG/1.1/DTD/svg11.dtd">
<svg xmlns="http://www.w3.org/2000/svg" xml:space="preserve" width="580px" height="580px" shape-rendering="geometricPrecision" text-rendering="geometricPrecision" image-rendering="optimizeQuality" fill-rule="nonzero" clip-rule="nonzero" viewBox="0 0 5800 5800" xmlns:xlink="http://www.w3.org/1999/xlink">
	<title>text icon</title>
	<desc>text icon from the IconExperience.com I-Collection. Copyright by INCORS GmbH (www.incors.com).</desc>
		<path id="curve28"  d="M5100 100l0 5600c-1467,0 -2933,0 -4400,0l0 -5600c1467,0 2933,0 4400,0zm-2600 4800l0 200 2000 0 0 -200 -2000 0zm1200 -700l0 200 800 0 0 -200 -800 0zm-400 -2100l0 200 1200 0 0 -200 -1200 0zm-1200 -700l0 200 1200 0 0 -200 -1200 0zm800 2800l0 200 600 0 0 -200 -600 0zm-1600 0l0 200 1422 0 0 -200 -1422 0zm0 700l0 200 1000 0 0 -200 -1000 0zm2000 -1400l0 200 1200 0 0 -200 -1200 0zm-2000 0l0 200 1800 0 0 -200 -1800 0zm900 -700l0 200 2300 0 0 -200 -2300 0zm-900 0l0 200 711 0 0 -200 -711 0zm0 -700l0 200 1800 0 0 -200 -1800 0zm2200 -700l0 200 1000 0 0 -200 -1000 0zm-2200 0l0 200 600 0 0 -200 -600 0zm0 -700l0 200 3200 0 0 -200 -3200 0z"/>
</svg>