<?xml version="1.0" encoding="UTF-8"?>
<!DOCTYPE svg PUBLIC "-//W3C//DTD SVG 1.1//EN" "http://www.w3.org/Graphics/SVG/1.1/DTD/svg11.dtd">
<svg xmlns="http://www.w3.org/2000/svg" xml:space="preserve" width="580px" height="580px" shape-rendering="geometricPrecision" text-rendering="geometricPrecision" image-rendering="optimizeQuality" fill-rule="nonzero" clip-rule="nonzero" viewBox="0 0 5800 5800" xmlns:xlink="http://www.w3.org/1999/xlink">
	<title>text_speaker icon</title>
	<desc>text_speaker icon from the IconExperience.com I-Collection. Copyright by INCORS GmbH (www.incors.com).</desc>
		<path id="curve28"  d="M5100 100l0 2751c-158,-127 -342,-225 -545,-285l-90 -27c-59,-127 -178,-214 -315,-239l350 0 0 -200 -1200 0 0 200 689 0c-94,17 -179,63 -248,132l-370 368 -1171 0 0 200 970 0 -101 100 -569 0c-221,0 -400,179 -400,400l-800 0 0 200 800 0 0 500 -800 0 0 200 800 0 0 300c0,73 20,141 54,200l-854 0 0 200 1000 0 0 -54c59,34 127,54 200,54l579 0 604 605 -2983 -5 0 -5600 4400 0zm0 5249l0 351 -660 0c7,-12 14,-25 21,-38 243,-74 428,-143 639,-313zm-3000 -3949l0 200 1200 0 0 -200 -1200 0zm-800 1400l0 200 711 0 0 -200 -711 0zm0 -700l0 200 1800 0 0 -200 -1800 0zm2200 -700l0 200 1000 0 0 -200 -1000 0zm-2200 0l0 200 600 0 0 -200 -600 0zm0 -700l0 200 3200 0 0 -200 -3200 0zm1201 4096c-121,0 -200,-79 -200,-200l0 -1000c0,-122 78,-200 200,-200l0 -99 599 0 0 1599 -599 0 0 -100zm799 -1640l583 -583c57,-57 124,-81 187,-81 62,0 126,25 170,69 38,38 61,88 61,143l0 2784c0,56 -23,105 -61,143 -44,44 -108,69 -170,69 -63,0 -130,-24 -187,-81l0 0 -583 -582 0 -1881zm1201 138c305,153 499,465 499,806 0,340 -191,650 -494,803l-6 -228c188,-131 300,-345 300,-575 0,-230 -111,-443 -300,-575l1 -231zm-1 -536c593,177 1000,723 1000,1342 0,618 -407,1164 -998,1341l-2 -209c480,-170 800,-623 800,-1132 0,-508 -321,-963 -800,-1132l0 -210z"/>
</svg>