<?xml version="1.0" encoding="UTF-8"?>
<!DOCTYPE svg PUBLIC "-//W3C//DTD SVG 1.1//EN" "http://www.w3.org/Graphics/SVG/1.1/DTD/svg11.dtd">
<svg xmlns="http://www.w3.org/2000/svg" xml:space="preserve" width="580px" height="580px" shape-rendering="geometricPrecision" text-rendering="geometricPrecision" image-rendering="optimizeQuality" fill-rule="nonzero" clip-rule="nonzero" viewBox="0 0 5800 5800" xmlns:xlink="http://www.w3.org/1999/xlink">
	<title>text_align_center icon</title>
	<desc>text_align_center icon from the IconExperience.com I-Collection. Copyright by INCORS GmbH (www.incors.com).</desc>
		<path id="curve28" d="M3000 300l0 5200 -200 0 0 -5200 200 0zm-1500 4600l1100 0 0 200 -1100 0 0 -200zm1700 0l1100 0 0 200 -1100 0 0 -200zm-2300 -4000l1700 0 0 200 -1700 0 0 -200zm2300 0l1700 0 0 200 -1700 0 0 -200zm-2100 800l1500 0 0 200 -1500 0 0 -200zm2100 0l1500 0 0 200 -1500 0 0 -200zm-1300 800l700 0 0 200 -700 0 0 -200zm1300 0l700 0 0 200 -700 0 0 -200zm-1900 800l1300 0 0 200 -1300 0 0 -200zm1900 0l1300 0 0 200 -1300 0 0 -200zm-2300 800l1700 0 0 200 -1700 0 0 -200zm2300 0l1700 0 0 200 -1700 0 0 -200z"/>
</svg>