<?xml version="1.0" encoding="UTF-8"?>
<!DOCTYPE svg PUBLIC "-//W3C//DTD SVG 1.1//EN" "http://www.w3.org/Graphics/SVG/1.1/DTD/svg11.dtd">
<svg xmlns="http://www.w3.org/2000/svg" xml:space="preserve" width="580px" height="580px" shape-rendering="geometricPrecision" text-rendering="geometricPrecision" image-rendering="optimizeQuality" fill-rule="nonzero" clip-rule="nonzero" viewBox="0 0 5800 5800" xmlns:xlink="http://www.w3.org/1999/xlink">
	<title>text_align_right icon</title>
	<desc>text_align_right icon from the IconExperience.com I-Collection. Copyright by INCORS GmbH (www.incors.com).</desc>
		<path id="curve28" d="M5100 300l0 5200 -200 0 0 -5200 200 0zm-400 800l-4000 0 0 -200 4000 0 0 200zm0 800l-3600 0 0 -200 3600 0 0 200zm0 800l-2000 0 0 -200 2000 0 0 200zm0 800l-3200 0 0 -200 3200 0 0 200zm0 800l-4000 0 0 -200 4000 0 0 200zm0 800l-2800 0 0 -200 2800 0 0 200z"/>
</svg>