<?xml version="1.0" encoding="UTF-8"?>
<!DOCTYPE svg PUBLIC "-//W3C//DTD SVG 1.1//EN" "http://www.w3.org/Graphics/SVG/1.1/DTD/svg11.dtd">
<svg xmlns="http://www.w3.org/2000/svg" xml:space="preserve" width="580px" height="580px" shape-rendering="geometricPrecision" text-rendering="geometricPrecision" image-rendering="optimizeQuality" fill-rule="nonzero" clip-rule="nonzero" viewBox="0 0 5800 5800" xmlns:xlink="http://www.w3.org/1999/xlink">
	<title>thermometer icon</title>
	<desc>thermometer icon from the IconExperience.com I-Collection. Copyright by INCORS GmbH (www.incors.com).</desc>
		<path id="curve28"  d="M2900 1700l0 2717c43,15 81,40 112,71 54,54 88,129 88,212 0,165 -135,300 -300,300 -165,0 -300,-135 -300,-300 0,-83 34,-158 88,-212 31,-31 69,-56 112,-71l0 -2717 200 0zm800 -400l500 0 0 200 -500 0 0 -200zm-400 2776c189,152 300,381 300,624 0,442 -358,800 -800,800 -442,0 -800,-358 -800,-800 0,-243 111,-472 300,-624l0 -3076c0,-276 224,-500 500,-500 275,0 500,225 500,500l0 3076zm-156 132c-26,-18 -44,-48 -44,-82l0 -3126c0,-165 -135,-300 -300,-300 -165,0 -300,135 -300,300l0 3126c0,31 -15,62 -43,81 -162,113 -257,295 -257,493 0,331 269,600 600,600 331,0 600,-269 600,-600 0,-197 -94,-379 -256,-492zm556 -2308l500 0 0 200 -500 0 0 -200zm0 600l500 0 0 200 -500 0 0 -200zm0 600l500 0 0 200 -500 0 0 -200zm0 600l500 0 0 200 -500 0 0 -200z"/>
</svg>