<?xml version="1.0" encoding="UTF-8"?>
<!DOCTYPE svg PUBLIC "-//W3C//DTD SVG 1.1//EN" "http://www.w3.org/Graphics/SVG/1.1/DTD/svg11.dtd">
<svg xmlns="http://www.w3.org/2000/svg" xml:space="preserve" width="580px" height="580px" shape-rendering="geometricPrecision" text-rendering="geometricPrecision" image-rendering="optimizeQuality" fill-rule="nonzero" clip-rule="nonzero" viewBox="0 0 5800 5800" xmlns:xlink="http://www.w3.org/1999/xlink">
	<title>thermometer2 icon</title>
	<desc>thermometer2 icon from the IconExperience.com I-Collection. Copyright by INCORS GmbH (www.incors.com).</desc>
		<path id="curve28" d="M4122 529c315,-315 833,-315 1149,0 315,316 315,834 0,1149 -869,869 -1738,1736 -2607,2604 -158,159 -366,238 -574,238 -109,0 -218,-22 -320,-66l156 -156c54,15 109,22 164,22 157,0 313,-60 433,-179l38 -38 -220 -220 142 -142 220 220 417 -417 -220 -220 141 -141 221 220 424 -424 -220 -220 141 -142 221 221 425 -425 -221 -221 142 -141 221 220c245,-244 489,-489 734,-734 238,-238 238,-628 0,-866 -238,-238 -628,-238 -866,0l-735 734 221 221 -141 142 -222 -222 -425 425 222 222 -142 141 -221 -222 -425 424 222 223 -141 141 -222 -222 -418 417 223 222 -142 142 -222 -223c-13,13 -26,26 -38,38 -120,120 -180,277 -180,433 0,57 8,113 24,168l-157 156c-44,-103 -67,-213 -67,-324 0,-207 80,-415 238,-574m-403 1979c-58,59 -135,88 -212,88 -77,0 -154,-29 -212,-88 -57,-56 -88,-132 -88,-212 0,-77 29,-153 88,-212l188 -189c59,-58 136,-88 213,-88 44,0 88,10 129,30 280,-281 560,-561 841,-841l141 -141c328,-328 655,-656 983,-983l141 -142c269,-268 537,-536 805,-805l142 142c-643,643 -1287,1286 -1930,1929l-141 141c-280,281 -561,561 -841,841 20,41 30,85 30,129 0,77 -30,154 -88,213l-189 188z"/>
</svg>