<?xml version="1.0" encoding="UTF-8"?>
<!DOCTYPE svg PUBLIC "-//W3C//DTD SVG 1.1//EN" "http://www.w3.org/Graphics/SVG/1.1/DTD/svg11.dtd">
<svg xmlns="http://www.w3.org/2000/svg" xml:space="preserve" width="580px" height="580px" shape-rendering="geometricPrecision" text-rendering="geometricPrecision" image-rendering="optimizeQuality" fill-rule="nonzero" clip-rule="nonzero" viewBox="0 0 5800 5800" xmlns:xlink="http://www.w3.org/1999/xlink">
	<title>thermometer2 icon</title>
	<desc>thermometer2 icon from the IconExperience.com I-Collection. Copyright by INCORS GmbH (www.incors.com).</desc>
		<path id="curve29"  d="M2656 4291c-241,240 -598,297 -894,172l571 -571 219 219 142 -141 -220 -220 417 -417 220 220 142 -141 -220 -220 424 -425 220 221 142 -142 -221 -220 426 -425 220 220 142 -141 -221 -221c79,-79 159,-159 238,-238 78,-78 78,-205 0,-283 -47,-47 -94,-94 -141,-141 -78,-78 -205,-78 -283,0 -79,79 -159,159 -238,238l-222 -221 -141 141 221 221 -425 426 -222 -222 -141 141 222 222 -425 424 -221 -222 -142 142 222 222 -417 417 -222 -222 -142 141 222 222 -572 572c-127,-297 -71,-656 171,-897l2606 -2604c316,-316 833,-316 1149,0 316,316 316,833 0,1149l-2606 2604z"/>
	<path id="curve28"  d="M4262 1679l-2912 2912c53,112 34,250 -58,341l-189 189c-116,116 -307,116 -424,0 -116,-117 -116,-307 0,-424l189 -189c92,-92 230,-111 341,-58l2912 -2912 141 141z"/>
</svg>