<?xml version="1.0" encoding="UTF-8"?>
<!DOCTYPE svg PUBLIC "-//W3C//DTD SVG 1.1//EN" "http://www.w3.org/Graphics/SVG/1.1/DTD/svg11.dtd">
<svg xmlns="http://www.w3.org/2000/svg" xml:space="preserve" width="580px" height="580px" shape-rendering="geometricPrecision" text-rendering="geometricPrecision" image-rendering="optimizeQuality" fill-rule="nonzero" clip-rule="nonzero" viewBox="0 0 5800 5800" xmlns:xlink="http://www.w3.org/1999/xlink">
	<title>thought icon</title>
	<desc>thought icon from the IconExperience.com I-Collection. Copyright by INCORS GmbH (www.incors.com).</desc>
		<path id="curve28"  d="M4400 3300c387,0 700,313 700,700 0,387 -313,700 -700,700 -387,0 -700,-313 -700,-700 0,-387 313,-700 700,-700zm0 200c-276,0 -500,224 -500,500 0,276 224,500 500,500 276,0 500,-224 500,-500 0,-276 -224,-500 -500,-500zm-1000 1000c276,0 500,224 500,500 0,276 -224,500 -500,500 -276,0 -500,-224 -500,-500 0,-276 224,-500 500,-500zm0 200c-166,0 -300,134 -300,300 0,166 134,300 300,300 166,0 300,-134 300,-300 0,-166 -134,-300 -300,-300zm360 -3870c335,-145 722,-109 1013,114 291,223 410,574 335,932 143,192 201,422 191,653 -8,171 -53,342 -128,498 -50,101 -112,196 -187,280 -51,-42 -108,-80 -169,-110 70,-75 130,-163 176,-258 64,-132 102,-276 108,-418 9,-201 -44,-399 -176,-557l-32 -40 12 -49c75,-294 -8,-586 -251,-772 -254,-195 -596,-208 -878,-59l-79 42 -51 -75c-103,-157 -255,-287 -454,-377 -187,-85 -418,-134 -690,-134 -282,0 -563,101 -777,267 -201,156 -342,367 -364,601l-8 77 -76 12c-125,20 -290,113 -413,269 -95,121 -162,280 -162,474 0,228 44,409 129,545 83,133 209,226 375,278l65 21 4 69c12,208 126,400 292,543 174,150 405,244 635,244 235,0 412,-40 554,-102 141,-63 250,-149 347,-242l75 -72 69 78c46,52 107,94 178,124 37,16 78,28 121,36 -20,62 -34,128 -40,196 -56,-11 -109,-27 -158,-48 -66,-27 -126,-63 -177,-106 -95,83 -202,158 -334,216 -166,74 -370,120 -635,120 -278,0 -556,-113 -765,-292 -188,-162 -322,-378 -354,-616 -182,-70 -323,-184 -422,-342 -105,-167 -159,-384 -159,-650 0,-243 85,-444 205,-597 133,-170 312,-281 465,-326 47,-263 208,-496 431,-668 248,-191 573,-309 899,-309 302,0 559,55 772,152 205,92 367,222 488,378z"/>
</svg>