<?xml version="1.0" encoding="UTF-8"?>
<!DOCTYPE svg PUBLIC "-//W3C//DTD SVG 1.1//EN" "http://www.w3.org/Graphics/SVG/1.1/DTD/svg11.dtd">
<svg xmlns="http://www.w3.org/2000/svg" xml:space="preserve" width="580px" height="580px" shape-rendering="geometricPrecision" text-rendering="geometricPrecision" image-rendering="optimizeQuality" fill-rule="nonzero" clip-rule="nonzero" viewBox="0 0 5800 5800" xmlns:xlink="http://www.w3.org/1999/xlink">
	<title>thought icon</title>
	<desc>thought icon from the IconExperience.com I-Collection. Copyright by INCORS GmbH (www.incors.com).</desc>
		<path id="curve30"  d="M3760 830c335,-145 722,-109 1013,114 291,223 410,574 335,932 143,192 201,422 191,653 -13,283 -127,565 -315,778 -157,-129 -358,-207 -578,-207 -465,0 -860,353 -902,818 -122,-23 -239,-75 -335,-154 -284,248 -594,336 -969,336 -509,0 -1048,-387 -1119,-908 -432,-167 -581,-555 -581,-992 0,-408 273,-807 670,-923 106,-595 760,-977 1330,-977 474,0 959,142 1260,530z"/>
	<path id="curve29"  d="M3400 4500c276,0 500,224 500,500 0,276 -224,500 -500,500 -276,0 -500,-224 -500,-500 0,-276 224,-500 500,-500z"/>
	<path id="curve28"  d="M4400 3300c387,0 700,313 700,700 0,387 -313,700 -700,700 -387,0 -700,-313 -700,-700 0,-387 313,-700 700,-700z"/>
</svg>