<?xml version="1.0" encoding="UTF-8"?>
<!DOCTYPE svg PUBLIC "-//W3C//DTD SVG 1.1//EN" "http://www.w3.org/Graphics/SVG/1.1/DTD/svg11.dtd">
<svg xmlns="http://www.w3.org/2000/svg" xml:space="preserve" width="580px" height="580px" shape-rendering="geometricPrecision" text-rendering="geometricPrecision" image-rendering="optimizeQuality" fill-rule="nonzero" clip-rule="nonzero" viewBox="0 0 5800 5800" xmlns:xlink="http://www.w3.org/1999/xlink">
	<title>thread icon</title>
	<desc>thread icon from the IconExperience.com I-Collection. Copyright by INCORS GmbH (www.incors.com).</desc>
		<path id="curve30"  d="M4400 5000c0,-107 -46,-174 -107,-206 -54,-29 -118,-29 -174,-3 -67,32 -121,101 -124,194 -9,56 26,185 48,238 11,26 23,51 37,75 -50,-3 -111,-9 -179,-17l-3001 -379 3001 -379c137,-17 241,-21 299,-21 221,0 400,179 400,400 0,104 -39,198 -104,269 -14,-8 -26,-18 -37,-30 -39,-38 -59,-87 -59,-141z"/>
	<path id="curve29"  d="M517 3900l3166 0c-42,-120 -156,-200 -283,-200l-2600 0c-127,0 -241,81 -283,200zm-217 200l0 -100c0,-276 224,-500 500,-500l2600 0c276,0 500,224 500,500l0 100 -3600 0zm3600 -3800l0 100c0,276 -224,500 -500,500l-2600 0c-276,0 -500,-224 -500,-500l0 -100 3600 0zm-217 200l-3166 0c42,119 156,200 283,200l2600 0c127,0 241,-80 283,-200z"/>
	<path id="curve28"  d="M4600 5300c55,0 100,45 100,100 0,55 -45,100 -100,100 -138,0 -263,-56 -354,-146 -90,-91 -146,-216 -146,-354 0,-55 45,-100 100,-100 55,0 100,45 100,100 0,83 34,158 88,212 54,54 129,88 212,88zm700 -1396c0,-334 -271,-600 -604,-600 -1331,0 -2664,-4 -3996,-4l0 -200 4000 0c438,2 800,365 800,804 -58,483 -329,795 -842,798 -25,-58 -61,-110 -104,-154 -12,-12 -25,-23 -38,-34 45,-9 90,-12 136,-12 348,0 647,-237 648,-598zm-4600 -1204l2800 0 0 200 -2800 0 0 -200zm0 -400l2800 0 0 200 -2800 0 0 -200zm0 -400l2800 0 0 200 -2800 0 0 -200zm0 -400l2800 0 0 200 -2800 0 0 -200zm0 -400l2800 0 0 200 -2800 0 0 -200z"/>
</svg>