<?xml version="1.0" encoding="UTF-8"?>
<!DOCTYPE svg PUBLIC "-//W3C//DTD SVG 1.1//EN" "http://www.w3.org/Graphics/SVG/1.1/DTD/svg11.dtd">
<svg xmlns="http://www.w3.org/2000/svg" xml:space="preserve" width="580px" height="580px" shape-rendering="geometricPrecision" text-rendering="geometricPrecision" image-rendering="optimizeQuality" fill-rule="nonzero" clip-rule="nonzero" viewBox="0 0 5800 5800" xmlns:xlink="http://www.w3.org/1999/xlink">
	<title>thread icon</title>
	<desc>thread icon from the IconExperience.com I-Collection. Copyright by INCORS GmbH (www.incors.com).</desc>
		<path id="curve28"  d="M700 1100l2800 0 0 200 -2800 0 0 -200zm3200 -800l0 100c0,276 -224,500 -500,500l-2600 0c-276,0 -500,-224 -500,-500l0 -100 3600 0zm-3600 3800l0 -100c0,-276 224,-500 500,-500l2600 0c276,0 500,224 500,500l0 100c-1200,0 -2400,0 -3600,0zm3780 1198c-50,-3 -111,-9 -179,-17l-3001 -379 3001 -379c137,-17 241,-21 299,-21 221,0 400,179 400,400 0,104 -39,198 -104,269 -24,-15 -81,-70 -81,-95 -3,-6 -15,-76 -15,-76 0,-160 -128,-280 -281,-209 -169,80 -134,290 -76,432 11,26 23,51 37,75zm-3380 -3798l2800 0 0 200 -2800 0 0 -200zm0 400l2800 0 0 200 -2800 0 0 -200zm0 400l2800 0 0 200 -2800 0 0 -200zm0 400l2800 0 0 200 -2800 0 0 -200zm4800 1205c-1,468 -389,794 -842,797 -25,-58 -61,-110 -104,-154 -12,-12 -25,-23 -38,-34 45,-9 90,-12 136,-12 348,0 647,-237 648,-598 0,-334 -271,-600 -604,-600 -1331,0 -2664,-4 -3996,-4l0 -200 4000 0c439,2 800,366 800,805zm-900 1395c55,0 100,45 100,100 0,55 -45,100 -100,100 -276,0 -500,-224 -500,-500 0,-55 45,-100 100,-100 55,0 100,45 100,100 0,166 134,300 300,300z"/>
</svg>