<?xml version="1.0" encoding="UTF-8"?>
<!DOCTYPE svg PUBLIC "-//W3C//DTD SVG 1.1//EN" "http://www.w3.org/Graphics/SVG/1.1/DTD/svg11.dtd">
<svg xmlns="http://www.w3.org/2000/svg" xml:space="preserve" width="580px" height="580px" shape-rendering="geometricPrecision" text-rendering="geometricPrecision" image-rendering="optimizeQuality" fill-rule="nonzero" clip-rule="nonzero" viewBox="0 0 5800 5800" xmlns:xlink="http://www.w3.org/1999/xlink">
	<title>ticket icon</title>
	<desc>ticket icon from the IconExperience.com I-Collection. Copyright by INCORS GmbH (www.incors.com).</desc>
		<path id="curve28"  d="M5300 2002c0,110 89,198 199,198l1 200c-177,0 -214,199 -200,199 0,111 88,201 200,201l0 200c-111,0 -200,89 -200,200 0,110 89,200 200,200l0 200c-111,0 -200,89 -200,199 0,111 89,201 200,201l0 199c-166,0 -300,135 -300,301l0 100 -4600 0 0 -100c0,-166 -134,-301 -300,-301l0 -199c111,0 200,-90 200,-201 0,-108 -87,-199 -199,-199l-1 -200c110,0 200,-90 200,-200 0,-111 -89,-200 -200,-200l0 -200c111,0 200,-89 200,-200 0,-109 -87,-200 -199,-200l0 -200c112,0 199,-91 199,-199 0,-111 -89,-201 -200,-201l0 -199c166,0 300,-135 300,-301l0 -100 4600 0 0 100c0,166 134,301 300,301l0 199c-112,0 -200,91 -200,202zm-4100 798l0 200 3400 0 0 -200 -3400 0zm0 700l0 200 3400 0 0 -200 -3400 0zm0 -1400l0 200 3400 0 0 -200 -3400 0z"/>
</svg>