<?xml version="1.0" encoding="UTF-8"?>
<!DOCTYPE svg PUBLIC "-//W3C//DTD SVG 1.1//EN" "http://www.w3.org/Graphics/SVG/1.1/DTD/svg11.dtd">
<svg xmlns="http://www.w3.org/2000/svg" xml:space="preserve" width="580px" height="580px" shape-rendering="geometricPrecision" text-rendering="geometricPrecision" image-rendering="optimizeQuality" fill-rule="nonzero" clip-rule="nonzero" viewBox="0 0 5800 5800" xmlns:xlink="http://www.w3.org/1999/xlink">
	<title>ticket icon</title>
	<desc>ticket icon from the IconExperience.com I-Collection. Copyright by INCORS GmbH (www.incors.com).</desc>
		<path id="curve28" d="M5219 1717c-106,-75 -183,-189 -209,-317l-4220 0c-26,128 -103,242 -211,315 78,76 121,177 121,286 -1,115 -49,223 -135,299 85,76 134,184 135,299 0,116 -50,225 -136,301 86,76 136,184 136,300 0,110 -45,210 -117,283 -6,5 -12,11 -19,17 7,5 13,11 18,17 72,72 117,171 118,282 0,109 -43,210 -121,286 108,73 185,187 211,315l4220 0c26,-128 103,-242 211,-315 -78,-76 -121,-176 -121,-286 1,-115 50,-223 136,-299 -87,-76 -136,-185 -136,-300 0,-116 50,-224 136,-300 -86,-76 -136,-185 -136,-301 1,-115 49,-223 135,-299 -85,-76 -134,-183 -135,-299 0,-110 45,-210 119,-284zm-4019 383l3400 0 0 200 -3400 0 0 -200zm0 1400l3400 0 0 200 -3400 0 0 -200zm0 -700l3400 0 0 200 -3400 0 0 -200zm4100 -799c0,112 89,199 200,199l0 200c-54,0 -104,20 -142,58 -36,36 -58,86 -58,141 0,112 89,201 200,201l0 200c-111,0 -200,89 -200,200 0,55 22,105 59,141 36,36 86,59 141,59l-1 200c-110,0 -199,89 -199,199 0,111 89,201 200,201l0 199c-166,0 -300,135 -300,301l0 100 -100 0 -4400 0 -100 0 0 -100c0,-166 -134,-301 -300,-301l0 -199c111,0 200,-90 200,-201 0,-55 -22,-105 -58,-141 -36,-36 -86,-58 -141,-58l-1 -200c55,0 105,-23 141,-59 37,-36 59,-86 59,-141 0,-111 -89,-200 -200,-200l0 -200c112,0 200,-90 200,-201 0,-110 -89,-199 -199,-199l0 -200c98,0 229,-115 199,-199 0,-111 -89,-201 -200,-201l0 -199c166,0 300,-135 300,-301l0 -100 100 0 4500 0 0 100c0,166 134,301 300,301l0 199c-55,0 -105,23 -142,59 -36,36 -58,86 -58,142z"/>
</svg>