<?xml version="1.0" encoding="UTF-8"?>
<!DOCTYPE svg PUBLIC "-//W3C//DTD SVG 1.1//EN" "http://www.w3.org/Graphics/SVG/1.1/DTD/svg11.dtd">
<svg xmlns="http://www.w3.org/2000/svg" xml:space="preserve" width="580px" height="580px" shape-rendering="geometricPrecision" text-rendering="geometricPrecision" image-rendering="optimizeQuality" fill-rule="nonzero" clip-rule="nonzero" viewBox="0 0 5800 5800" xmlns:xlink="http://www.w3.org/1999/xlink">
	<title>timer icon</title>
	<desc>timer icon from the IconExperience.com I-Collection. Copyright by INCORS GmbH (www.incors.com).</desc>
		<path id="curve28"  d="M2900 300c1436,0 2600,1164 2600,2600 0,1436 -1164,2600 -2600,2600 -1436,0 -2600,-1164 -2600,-2600 0,-1436 1164,-2600 2600,-2600zm1286 573c-57,-36 -114,-69 -173,-100l-249 432 172 100 250 -432zm-1186 -371c-200,-8 0,-8 -200,0l0 498 200 0 0 -498zm-1213 271c-59,31 -116,64 -172,100l249 432 172 -100 -249 -432zm-914 841c-36,57 -69,114 -100,173l432 249 100 -172 -432 -250zm-371 1186c-3,67 -3,133 0,200l498 0 0 -200 -498 0zm271 1213c31,59 64,116 100,172l432 -249 -100 -172 -432 249zm841 914c57,36 114,69 173,100l249 -432 -172 -100 -250 432zm1186 371c67,3 133,3 200,0l0 -498 -200 0 0 498zm1213 -271c59,-31 116,-64 172,-100l-249 -431 -172 99 249 432zm914 -841c36,-57 69,-114 100,-173l-432 -249 -100 172 432 250zm371 -1186c3,-67 3,-133 0,-200l-498 0 0 200 498 0zm-271 -1213c-31,-59 -64,-116 -100,-172l-431 249 99 172 432 -249zm-1740 654l-387 -1289 -387 1289c-135,115 -213,281 -213,459 0,174 74,337 205,452l105 1048 580 0 105 -1048c131,-115 205,-278 205,-452 0,-178 -78,-344 -213,-459zm-387 859c-219,0 -400,-179 -400,-400 0,-221 181,-400 400,-400 219,0 400,179 400,400 0,221 -181,400 -400,400z"/>
</svg>