<?xml version="1.0" encoding="UTF-8"?>
<!DOCTYPE svg PUBLIC "-//W3C//DTD SVG 1.1//EN" "http://www.w3.org/Graphics/SVG/1.1/DTD/svg11.dtd">
<svg xmlns="http://www.w3.org/2000/svg" xml:space="preserve" width="580px" height="580px" shape-rendering="geometricPrecision" text-rendering="geometricPrecision" image-rendering="optimizeQuality" fill-rule="nonzero" clip-rule="nonzero" viewBox="0 0 5800 5800" xmlns:xlink="http://www.w3.org/1999/xlink">
	<title>timer icon</title>
	<desc>timer icon from the IconExperience.com I-Collection. Copyright by INCORS GmbH (www.incors.com).</desc>
		<path id="curve28"  d="M2900 3300c219,0 400,-179 400,-400 0,-222 -181,-400 -400,-400 -219,0 -400,178 -400,400 0,221 181,400 400,400zm0 -3000c1436,0 2600,1164 2600,2600 0,1436 -1164,2600 -2600,2600 -1436,0 -2600,-1164 -2600,-2600 0,-1436 1164,-2600 2600,-2600zm1286 573l-250 432 -172 -100 249 -432c-305,-160 -649,-256 -1013,-271l0 498 -200 0 0 -498c-364,15 -708,111 -1013,271l249 432 -172 100 -249 -432c-299,190 -552,443 -742,741l432 250 -100 172 -432 -249c-160,305 -256,649 -271,1013l498 0 0 200 -498 0c15,364 111,708 271,1013l432 -249 100 172 -432 249c190,299 443,552 741,742l250 -432 172 100 -249 432c305,160 649,256 1013,271l0 -498 200 0 0 498c365,-15 708,-111 1013,-271l-249 -432 172 -99 249 431c299,-189 552,-443 742,-741l-432 -250 100 -172 432 249c160,-305 256,-649 271,-1013l-498 0 0 -200 498 0c-15,-365 -111,-708 -271,-1013l-432 249 -99 -172 431 -249c-189,-299 -443,-552 -741,-742zm-891 2479l-105 1048c-193,0 -387,0 -580,0l-105 -1048c-131,-115 -205,-278 -205,-452 0,-178 78,-344 213,-459l387 -1289 387 1289c135,115 213,281 213,459 0,174 -74,337 -205,452z"/>
</svg>