<?xml version="1.0" encoding="utf-8"?>
<!-- Generator: Adobe Illustrator 19.2.1, SVG Export Plug-In . SVG Version: 6.00 Build 0)  -->
<svg version="1.1" id="Ebene_1" xmlns="http://www.w3.org/2000/svg" xmlns:xlink="http://www.w3.org/1999/xlink" x="0px" y="0px"
	 width="580px" height="580px" viewBox="0 0 580 580" style="enable-background:new 0 0 580 580;" xml:space="preserve">
<g>
	<path d="M120.8,260.4L104,276.6l-29.4-27.8l-13.7,14.5l29.8,28.2c0.7,6.4,6.2,11.4,12.8,11.4c6.2,0,11.4-4.4,12.6-10.2l18.6-17.8
		L120.8,260.4z"/>
	<path d="M551.6,282.9l-70.5-70.4l-14.1,14l53.5,53.5H410.4c-4.9-40.6-39.5-72-81.4-72c-41.9,0-76.5,31.4-81.4,72h-62.7
		c-4.9-40.6-39.5-72-81.4-72c-45.3,0-82,36.7-82,82c0,45.3,36.7,82,82,82c41.9,0,76.5-31.4,81.4-72h62.7c4.9,40.6,39.5,72,81.4,72
		c41.9,0,76.5-31.4,81.4-72h109.8L467,353.3l14.1,14.1l70.5-70.4l7-7.1L551.6,282.9z M103.1,352c-34.3,0-62-27.8-62-62
		c0-34.3,27.8-62,62-62c34.3,0,62,27.8,62,62C165.2,324.3,137.4,352,103.1,352z M328.7,352c-34.3,0-62-27.8-62-62
		c0-34.3,27.8-62,62-62s62,27.8,62,62C390.7,324.3,362.9,352,328.7,352z"/>
	<path d="M346.3,260.4l-16.8,16.2l-29.4-27.8l-13.7,14.5l29.8,28.2c0.7,6.4,6.2,11.4,12.8,11.4c6.2,0,11.4-4.4,12.6-10.2l18.6-17.8
		L346.3,260.4z"/>
</g>
</svg>
