<?xml version="1.0" encoding="UTF-8"?>
<!DOCTYPE svg PUBLIC "-//W3C//DTD SVG 1.1//EN" "http://www.w3.org/Graphics/SVG/1.1/DTD/svg11.dtd">
<svg xmlns="http://www.w3.org/2000/svg" xml:space="preserve" width="580px" height="580px" shape-rendering="geometricPrecision" text-rendering="geometricPrecision" image-rendering="optimizeQuality" fill-rule="nonzero" clip-rule="nonzero" viewBox="0 0 5800 5800" xmlns:xlink="http://www.w3.org/1999/xlink">
	<title>toaster icon</title>
	<desc>toaster icon from the IconExperience.com I-Collection. Copyright by INCORS GmbH (www.incors.com).</desc>
	<path id="curve0"  d="M500 2200c0,-165 135,-300 300,-300l4200 0c165,0 300,135 300,300l0 2800c0,165 -135,300 -300,300l-600 0c-169,0 -200,-200 -200,-200l-2600 0c-3,0 -28,200 -200,200l-600 0c-165,0 -300,-135 -300,-300l0 -2800zm3716 -1039c32,-33 75,-49 124,-68 38,-14 82,-31 100,-50 39,-39 60,-89 60,-143 0,-111 -89,-200 -200,-200l-2800 0c-111,0 -200,89 -200,200 0,54 21,104 60,143 18,19 62,36 100,50 49,19 92,35 124,67 61,61 70,127 -13,211 -19,19 -41,34 -65,51 -47,33 -106,75 -106,178l0 100 -200 0 0 -100c0,-190 91,-269 171,-327 -53,-20 -109,-45 -154,-90 -74,-76 -117,-177 -117,-283 0,-220 180,-400 400,-400l2800 0c220,0 400,180 400,400 0,106 -43,207 -117,283 -45,45 -101,70 -154,90 80,58 171,137 171,327l0 100 -200 0 0 -100c0,-103 -59,-145 -106,-178 -24,-17 -46,-32 -65,-51 -83,-83 -74,-149 -13,-210zm-3516 3839c0,55 45,100 100,100l600 0c3,0 28,-200 200,-200l2600 0c173,0 199,200 200,200l600 0c55,0 100,-45 100,-100l0 -2800c0,-55 -45,-100 -100,-100l-4200 0c-55,0 -100,45 -100,100l0 2800z"/>
</svg>