<?xml version="1.0" encoding="UTF-8"?>
<!DOCTYPE svg PUBLIC "-//W3C//DTD SVG 1.1//EN" "http://www.w3.org/Graphics/SVG/1.1/DTD/svg11.dtd">
<svg xmlns="http://www.w3.org/2000/svg" xml:space="preserve" width="580px" height="580px" shape-rendering="geometricPrecision" text-rendering="geometricPrecision" image-rendering="optimizeQuality" fill-rule="nonzero" clip-rule="nonzero" viewBox="0 0 5800 5800" xmlns:xlink="http://www.w3.org/1999/xlink">
	<title>toaster icon</title>
	<desc>toaster icon from the IconExperience.com I-Collection. Copyright by INCORS GmbH (www.incors.com).</desc>
	<path id="curve0"  d="M500 2200c0,-165 135,-300 300,-300l4200 0c165,0 300,135 300,300l0 2800c0,165 -135,300 -300,300l-600 0c-169,0 -200,-200 -200,-200l-2600 0c-3,0 -28,200 -200,200l-600 0c-165,0 -300,-135 -300,-300l0 -2800zm700 -500l0 -100c0,-190 91,-269 171,-327 -53,-20 -109,-45 -154,-90 -74,-76 -117,-177 -117,-283 0,-220 180,-400 400,-400l2800 0c220,0 400,180 400,400 0,106 -43,207 -117,283 -45,45 -101,70 -154,90 80,58 171,137 171,327l0 100 -3400 0z"/>
</svg>