<?xml version="1.0" encoding="UTF-8"?>
<!DOCTYPE svg PUBLIC "-//W3C//DTD SVG 1.1//EN" "http://www.w3.org/Graphics/SVG/1.1/DTD/svg11.dtd">
<svg xmlns="http://www.w3.org/2000/svg" xml:space="preserve" width="580px" height="580px" shape-rendering="geometricPrecision" text-rendering="geometricPrecision" image-rendering="optimizeQuality" fill-rule="nonzero" clip-rule="nonzero" viewBox="0 0 5800 5800" xmlns:xlink="http://www.w3.org/1999/xlink">
	<title>tobacco_pipe icon</title>
	<desc>tobacco_pipe icon from the IconExperience.com I-Collection. Copyright by INCORS GmbH (www.incors.com).</desc>
	<path id="curve0"  d="M2000 5500c-1056,0 -1700,-903 -1700,-1897l0 -903c0,-104 96,-200 200,-200l2002 0c103,2 198,96 198,200l0 782c59,-148 100,-332 100,-582 0,-1148 852,-2000 2000,-2000l342 0c35,-58 97,-93 165,-93 106,0 193,87 193,193l0 400c0,106 -87,193 -193,193 -68,0 -130,-36 -165,-93l-42 0c-604,0 -1200,470 -1200,1100l0 1000c0,1106 -794,1900 -1900,1900z"/>
</svg>