<?xml version="1.0" encoding="UTF-8"?>
<!DOCTYPE svg PUBLIC "-//W3C//DTD SVG 1.1//EN" "http://www.w3.org/Graphics/SVG/1.1/DTD/svg11.dtd">
<svg xmlns="http://www.w3.org/2000/svg" xml:space="preserve" width="580px" height="580px" shape-rendering="geometricPrecision" text-rendering="geometricPrecision" image-rendering="optimizeQuality" fill-rule="nonzero" clip-rule="nonzero" viewBox="0 0 5800 5800" xmlns:xlink="http://www.w3.org/1999/xlink">
	<title>toilet icon</title>
	<desc>toilet icon from the IconExperience.com I-Collection. Copyright by INCORS GmbH (www.incors.com).</desc>
	<path id="curve0" d="M4200 3793l0 8c0,425 -208,823 -557,1066 -29,21 -43,47 -43,83l0 198c0,87 -35,165 -100,223 -170,152 -385,228 -600,228 -215,0 -430,-76 -600,-228 -65,-58 -100,-136 -100,-223l0 -198c0,-36 -14,-62 -43,-83 -349,-243 -557,-641 -557,-1066l0 -8c59,58 129,111 210,157 41,305 209,578 461,754 82,57 129,146 129,246l0 198c0,31 10,54 33,75 132,117 299,176 467,176 168,0 335,-59 467,-176 23,-21 33,-44 33,-75l0 -198c0,-100 47,-189 129,-246 252,-176 420,-449 461,-754 81,-46 151,-99 210,-157zm-1300 -744c219,0 418,33 565,87 176,65 285,166 285,288 0,123 -109,224 -285,289 -147,54 -346,87 -565,87 -219,0 -418,-33 -565,-87 -176,-65 -285,-166 -285,-289 0,-122 109,-223 285,-288 147,-54 346,-87 565,-87zm496 274c-125,-46 -300,-74 -496,-74 -196,0 -371,28 -496,74 -95,35 -154,72 -154,101 0,30 59,67 154,102 125,46 300,74 496,74 196,0 371,-28 496,-74 95,-35 154,-72 154,-102 0,-29 -59,-66 -154,-101zm-496 577c317,0 602,-58 807,-153 181,-83 293,-190 293,-301 0,-37 -13,-71 -33,-103l-323 -543 -1488 0 -324 546c-20,31 -32,63 -32,100 0,111 112,218 293,301 205,95 490,153 807,153zm1162 -2181l-255 966 331 556c39,63 62,131 62,205 0,196 -157,366 -410,482 -229,106 -544,172 -890,172 -346,0 -661,-66 -890,-172 -253,-116 -410,-286 -410,-482 0,-73 24,-145 63,-207l330 -554 -256 -969c-24,-98 -37,-199 -37,-297 0,-663 537,-1200 1200,-1200 663,0 1200,537 1200,1200 0,100 -13,203 -38,300zm-193 -50c21,-83 31,-164 31,-250 0,-552 -448,-1000 -1000,-1000 -552,0 -1000,448 -1000,1000 0,85 9,163 30,247l247 934 1446 0 246 -931z"/>
</svg>