<?xml version="1.0" encoding="UTF-8"?>
<!DOCTYPE svg PUBLIC "-//W3C//DTD SVG 1.1//EN" "http://www.w3.org/Graphics/SVG/1.1/DTD/svg11.dtd">
<svg xmlns="http://www.w3.org/2000/svg" xml:space="preserve" width="580px" height="580px" shape-rendering="geometricPrecision" text-rendering="geometricPrecision" image-rendering="optimizeQuality" fill-rule="nonzero" clip-rule="nonzero" viewBox="0 0 5800 5800" xmlns:xlink="http://www.w3.org/1999/xlink">
	<title>toilet icon</title>
	<desc>toilet icon from the IconExperience.com I-Collection. Copyright by INCORS GmbH (www.incors.com).</desc>
	<path id="curve0"  d="M3790 3928c-229,106 -544,172 -890,172 -346,0 -661,-66 -890,-172 -253,-116 -410,-286 -410,-482 0,-73 24,-145 63,-207l321 -539 1832 0 322 541c39,63 62,131 62,205 0,196 -157,366 -410,482zm272 -2209l-206 781 -1912 0 -206 -780c-25,-95 -38,-203 -38,-301 0,-663 537,-1200 1200,-1200 663,0 1200,537 1200,1200 0,100 -13,203 -38,300zm-1727 1417c-176,65 -285,166 -285,288 0,123 109,224 285,289 317,116 813,116 1130,0 176,-65 285,-166 285,-289 0,-122 -109,-223 -285,-288 -317,-116 -813,-116 -1130,0zm1862 759c-14,181 -64,353 -144,507 -98,186 -239,346 -410,465 -29,21 -43,47 -43,83l0 198c0,43 -9,84 -26,123 -17,37 -42,71 -74,100 -170,152 -385,228 -600,228 -215,0 -430,-76 -600,-228 -32,-29 -57,-63 -74,-100 -17,-39 -26,-80 -26,-123l0 -198c0,-36 -14,-62 -43,-83 -171,-119 -312,-279 -410,-465 -80,-154 -131,-326 -144,-507 85,83 195,155 323,215 255,117 600,190 974,190 374,0 719,-73 974,-190 128,-60 238,-132 323,-215z"/>
</svg>