<?xml version="1.0" encoding="UTF-8"?>
<!DOCTYPE svg PUBLIC "-//W3C//DTD SVG 1.1//EN" "http://www.w3.org/Graphics/SVG/1.1/DTD/svg11.dtd">
<svg xmlns="http://www.w3.org/2000/svg" xml:space="preserve" width="580px" height="580px" shape-rendering="geometricPrecision" text-rendering="geometricPrecision" image-rendering="optimizeQuality" fill-rule="nonzero" clip-rule="nonzero" viewBox="0 0 5800 5800" xmlns:xlink="http://www.w3.org/1999/xlink">
	<title>toilet_paper icon</title>
	<desc>toilet_paper icon from the IconExperience.com I-Collection. Copyright by INCORS GmbH (www.incors.com).</desc>
	<path id="curve0"  d="M3500 2700c442,0 800,358 800,800 0,442 -358,800 -800,800 -442,0 -800,-358 -800,-800 0,-442 358,-800 800,-800zm-2114 1800l-745 0 800 800 1186 0c-195,-95 -379,-223 -541,-386 -335,-334 -669,-668 -1004,-1002 -390,-391 -586,-903 -586,-1415 0,-1104 896,-2000 2000,-2000 512,0 1024,196 1415,586 -1,0 920,919 1003,1003 391,390 586,902 586,1414 0,1105 -895,2000 -2000,2000 -714,0 -1428,0 -2142,0l-1200 -1200 1028 0 200 200zm225 -343c-74,-212 -111,-435 -111,-657 0,-1105 895,-2000 2000,-2000 222,0 444,37 655,110l-386 -385c-351,-352 -812,-528 -1273,-528 -994,0 -1800,806 -1800,1800 0,461 176,922 528,1273 129,129 258,258 387,387zm1889 -2457c-994,0 -1800,806 -1800,1800 0,461 176,921 527,1273 352,351 812,527 1273,527 994,0 1800,-806 1800,-1800 0,-994 -806,-1800 -1800,-1800zm0 1200c-331,0 -600,269 -600,600 0,331 269,600 600,600 331,0 600,-269 600,-600 0,-331 -269,-600 -600,-600z"/>
</svg>