<?xml version="1.0" encoding="UTF-8"?>
<!DOCTYPE svg PUBLIC "-//W3C//DTD SVG 1.1//EN" "http://www.w3.org/Graphics/SVG/1.1/DTD/svg11.dtd">
<svg xmlns="http://www.w3.org/2000/svg" xml:space="preserve" width="580px" height="580px" shape-rendering="geometricPrecision" text-rendering="geometricPrecision" image-rendering="optimizeQuality" fill-rule="nonzero" clip-rule="nonzero" viewBox="0 0 5800 5800" xmlns:xlink="http://www.w3.org/1999/xlink">
	<title>toilet_paper icon</title>
	<desc>toilet_paper icon from the IconExperience.com I-Collection. Copyright by INCORS GmbH (www.incors.com).</desc>
	<path id="curve0"  d="M1437 4266c-91,-247 -137,-506 -137,-766 0,-1215 985,-2200 2200,-2200 259,0 518,45 764,136l-353 -353c-391,-390 -903,-586 -1415,-586 -1104,0 -2000,896 -2000,2000 0,512 196,1024 586,1415 118,118 237,236 355,354zm1145 1234c-237,-109 -461,-265 -646,-450l-750 -750 -1028 0 1200 1200 1224 0zm918 -2700c387,0 700,313 700,700 0,387 -313,700 -700,700 -387,0 -700,-313 -700,-700 0,-387 313,-700 700,-700zm-2000 700c0,1105 895,2000 2000,2000 1105,0 2000,-895 2000,-2000 0,-1105 -895,-2000 -2000,-2000 -1105,0 -2000,895 -2000,2000z"/>
</svg>