<?xml version="1.0" encoding="UTF-8"?>
<!DOCTYPE svg PUBLIC "-//W3C//DTD SVG 1.1//EN" "http://www.w3.org/Graphics/SVG/1.1/DTD/svg11.dtd">
<svg xmlns="http://www.w3.org/2000/svg" xml:space="preserve" width="580px" height="580px" shape-rendering="geometricPrecision" text-rendering="geometricPrecision" image-rendering="optimizeQuality" fill-rule="nonzero" clip-rule="nonzero" viewBox="0 0 5800 5800" xmlns:xlink="http://www.w3.org/1999/xlink">
	<title>toolbox icon</title>
	<desc>toolbox icon from the IconExperience.com I-Collection. Copyright by INCORS GmbH (www.incors.com).</desc>
		<path id="curve30" d="M900 700l4000 0 0 -200c200,0 400,0 600,0l0 4500c0,165 -135,300 -300,300l-4600 0c-165,0 -300,-135 -300,-300l0 -4500c200,0 400,0 600,0l0 200zm0 2800l4000 0 0 -371 200 -200 0 771c-1467,0 -2933,0 -4400,0l0 -734c48,77 105,149 168,212 11,11 21,21 32,31l0 291zm4200 -2800c0,499 0,998 0,1497l-200 -200 0 -697 -922 0c-34,-22 -68,-41 -104,-59 -96,-46 -200,-77 -305,-90 -95,-12 -193,-9 -290,9 -96,17 -189,49 -276,94 -25,12 -48,28 -68,46l-617 0c-30,-17 -60,-34 -91,-49 -125,-60 -259,-100 -394,-116l-149 -18 -104 110 -68 73 -612 0 0 644 -101 54 -99 53c0,-450 0,-901 0,-1351l-200 0 0 4300c0,55 45,100 100,100l4600 0c55,0 100,-45 100,-100l0 -2337c9,-32 14,-66 14,-100 0,-33 -5,-67 -14,-100l0 -1763 -200 0zm-200 200l-4000 0 0 200 4000 0 0 -200z"/>
	<path id="curve29" d="M4435 2293c-88,-87 -93,-177 -98,-253 -1,-22 3,-37 0,-40l-195 -195c-3,-3 -17,1 -39,0 -77,-4 -167,-10 -255,-99 -43,-43 -93,-79 -147,-105 -57,-28 -118,-46 -180,-53 -66,-9 -132,-6 -196,9 47,25 92,53 130,79 75,52 159,123 219,209 50,72 84,154 83,245 0,51 -11,98 -31,141 -20,45 -49,86 -84,121l-494 493 -153 -130 505 -505c19,-19 34,-39 44,-61 9,-19 14,-39 14,-60 0,-45 -19,-89 -48,-130 -44,-63 -109,-118 -169,-159 -34,-24 -75,-49 -117,-71 -37,-19 -75,-37 -113,-50 -26,-9 -48,-25 -63,-45 -16,-21 -26,-46 -28,-74 -2,-26 5,-52 18,-75 12,-23 32,-42 56,-54 70,-36 144,-61 221,-75 76,-14 153,-17 230,-7 84,11 166,35 242,72 75,37 144,85 203,145 34,35 83,37 124,40 63,3 118,7 169,57l196 196c50,51 54,106 57,169 3,41 6,89 40,124 0,10 48,28 59,30 22,4 45,1 66,-8l63 -30 49 50 252 251c33,33 49,75 49,118 0,43 -16,86 -49,118l-391 391c-32,33 -75,49 -118,49 -42,0 -85,-16 -117,-49l-252 -252 -50 -49 30 -63c9,-21 12,-44 8,-66 -3,-22 -14,-42 -30,-59 -14,-13 -28,-25 -42,-31 -11,-5 -22,-8 -35,-7 -47,3 -103,62 -151,110 -15,16 -20,21 -25,26l-431 431 -153 -130 443 -442c20,-21 22,-23 23,-24 72,-73 157,-161 280,-170 48,-4 93,6 134,26 37,17 70,42 98,70 47,47 75,105 86,165 7,38 6,77 -1,115l185 185 344 -344 -185 -185c-38,7 -77,8 -115,1 -60,-10 -118,-39 -165,-86z"/>
	<path id="curve28" d="M2109 3285c-26,-31 -269,-6 -390,6l-52 6c-135,11 -253,-8 -363,-53 -107,-45 -203,-115 -295,-207 -91,-91 -165,-203 -217,-324 -52,-120 -81,-250 -84,-378l-1 -61c84,-45 168,-90 252,-135l460 460 434 -131 155 -464 -454 -458 206 -219 50 6c113,14 226,48 330,98 104,50 199,117 279,196 94,94 165,192 210,302 46,112 65,232 54,368 -5,67 -1,178 13,282 9,71 23,136 40,177l638 544 -308 0 -476 -406 -23 -30c-33,-61 -55,-158 -69,-258 -16,-119 -20,-247 -14,-324 8,-104 -5,-195 -39,-277 -35,-84 -91,-161 -167,-236 -63,-64 -141,-118 -225,-158 -69,-34 -143,-58 -218,-72l-3 4 330 333c23,23 38,51 45,81 8,30 6,62 -4,94l-166 495c-9,27 -23,50 -42,68 -20,20 -44,34 -71,42l-464 139c-61,18 -125,2 -170,-43l-367 -367 -12 6c9,82 31,166 65,244 42,98 101,188 173,261 75,74 150,129 232,163 80,34 168,47 269,39 3,-1 49,-5 49,-5 151,-15 450,-46 554,54l170 153 -298 0 -16 -15z"/>
</svg>