<?xml version="1.0" encoding="UTF-8"?>
<!DOCTYPE svg PUBLIC "-//W3C//DTD SVG 1.1//EN" "http://www.w3.org/Graphics/SVG/1.1/DTD/svg11.dtd">
<svg xmlns="http://www.w3.org/2000/svg" xml:space="preserve" width="580px" height="580px" shape-rendering="geometricPrecision" text-rendering="geometricPrecision" image-rendering="optimizeQuality" fill-rule="nonzero" clip-rule="nonzero" viewBox="0 0 5800 5800" xmlns:xlink="http://www.w3.org/1999/xlink">
	<title>tools icon</title>
	<desc>tools icon from the IconExperience.com I-Collection. Copyright by INCORS GmbH (www.incors.com).</desc>
		<path id="curve29"  d="M2638 3886l-1345 1327c-191,189 -510,-42 -657,-194 -144,-146 -355,-451 -165,-632l1090 -1033c34,-2 68,-6 102,-9 137,-14 373,-88 393,-65l582 606zm491 -1828l328 -328c120,-120 110,-257 18,-390 -63,-90 -156,-168 -241,-227 -97,-68 -211,-130 -323,-169 -124,-43 -137,-212 -19,-272 184,-95 390,-134 596,-108 110,14 219,46 320,95 98,48 189,112 266,190 57,58 131,62 194,66 79,4 148,8 207,68l267 267c60,59 64,128 69,207 4,63 8,137 65,194 89,88 178,53 275,7l393 394c74,74 74,196 0,270l-535 535c-74,74 -195,74 -270,0l-393 -394c28,-60 56,-104 44,-175 -14,-81 -99,-169 -186,-162 -78,5 -160,90 -229,161l-436 437 -362 -360c-28,-90 -41,-211 -48,-306z"/>
	<path id="curve28"  d="M2207 3150c-57,-67 -522,-6 -636,3 -177,15 -334,-10 -478,-70 -302,-126 -553,-408 -681,-705 -83,-193 -109,-357 -113,-564 100,-54 201,-108 301,-162l626 625 632 -190 225 -675 -612 -616 245 -260c179,22 325,57 489,136 276,133 533,377 651,662 61,147 86,307 71,487 -13,161 13,507 80,655l1924 1913c182,180 -32,479 -175,620 -141,139 -434,343 -609,161l-1940 -2020z"/>
</svg>