<?xml version="1.0" encoding="UTF-8"?>
<!DOCTYPE svg PUBLIC "-//W3C//DTD SVG 1.1//EN" "http://www.w3.org/Graphics/SVG/1.1/DTD/svg11.dtd">
<svg xmlns="http://www.w3.org/2000/svg" xml:space="preserve" width="580px" height="580px" shape-rendering="geometricPrecision" text-rendering="geometricPrecision" image-rendering="optimizeQuality" fill-rule="nonzero" clip-rule="nonzero" viewBox="0 0 5800 5800" xmlns:xlink="http://www.w3.org/1999/xlink">
	<title>tools icon</title>
	<desc>tools icon from the IconExperience.com I-Collection. Copyright by INCORS GmbH (www.incors.com).</desc>
		<path id="curve29"  d="M4479 2047c59,58 94,131 108,206 9,54 7,109 -7,162l294 294 523 -522 -294 -294c-53,14 -109,16 -162,6 -76,-13 -148,-49 -206,-107 -111,-110 -118,-225 -123,-323 -3,-38 -5,-71 -11,-78l-267 -267c-6,-6 -39,-8 -77,-10 -98,-6 -215,-12 -325,-125 -61,-62 -133,-113 -211,-151 -81,-39 -169,-65 -258,-76 -83,-10 -165,-8 -244,6 -44,8 -86,20 -128,34 24,11 48,23 72,36 67,35 131,74 185,111 99,69 211,164 290,277 65,93 108,198 107,313 -1,130 -56,242 -147,333l-435 435c-8,-35 -14,-76 -20,-120 -6,-43 -11,-87 -14,-129l328 -328c52,-52 89,-116 89,-191 1,-70 -28,-137 -71,-199 -63,-90 -156,-168 -241,-227 -48,-33 -104,-68 -164,-99 -52,-27 -106,-52 -159,-70 -29,-10 -53,-28 -70,-50 -17,-23 -28,-50 -30,-80 -4,-60 28,-115 81,-142 92,-48 190,-81 292,-100 99,-18 202,-21 304,-8 110,14 219,46 320,95 98,48 189,112 266,190 57,58 131,62 194,66 79,4 148,8 207,68l267 267c60,59 64,128 69,207 4,63 8,137 65,194 28,28 63,45 99,51 38,7 77,2 112,-14l64 -30 49 50 344 344c74,74 74,196 0,270l-535 535c-37,37 -86,56 -135,56 -48,0 -97,-19 -135,-56l-344 -344 -49 -50 29 -63c17,-35 21,-74 15,-112 -11,-64 -61,-122 -119,-150 -21,-9 -43,-14 -67,-12 -78,5 -160,90 -229,161l-34 35 -402 402 -142 -141 402 -402c23,-23 28,-28 33,-33 93,-96 205,-211 358,-222 60,-4 115,8 165,32 47,22 88,53 124,89zm-1841 1839l-1345 1327c-121,119 -309,74 -484,-46 -60,-42 -120,-93 -173,-148 -54,-55 -103,-115 -142,-175 -108,-169 -141,-344 -23,-457l1090 -1033c34,-2 68,-6 102,-9 71,-8 169,-31 250,-49l-1304 1236c-34,32 -5,114 53,204 32,49 72,99 116,144 45,46 95,88 144,122 99,69 193,106 231,69l1347 -1329 138 144z"/>
	<path id="curve28"  d="M1642 3146c-198,20 -360,16 -549,-63 -302,-126 -553,-408 -681,-705 -68,-160 -108,-333 -112,-503l-1 -61 301 -162 626 625 632 -190 225 -675 -612 -616 245 -260 50 6c150,18 300,63 439,130 138,67 266,156 372,261 125,125 219,256 279,401 61,147 86,307 71,487 -7,92 -2,247 18,393 14,105 35,203 62,262l1924 1913c114,113 75,290 -36,455 -78,115 -189,225 -306,301 -162,106 -332,139 -442,25l-1936 -2016c-63,-70 -470,-18 -569,-8zm-20 -198c204,-21 611,-63 733,68l1936 2016c29,30 106,0 190,-54 94,-62 185,-153 248,-246 60,-88 93,-170 62,-202l-1947 -1934c-57,-109 -80,-235 -97,-356 -21,-160 -27,-332 -19,-435 12,-148 -8,-278 -56,-395 -49,-119 -129,-229 -236,-335 -90,-90 -199,-166 -318,-223 -103,-50 -215,-86 -327,-105l-42 46 476 480c27,27 45,59 53,94 8,35 6,71 -6,108l-226 676c-20,62 -68,108 -130,127l-634 190c-71,22 -144,3 -196,-49l-522 -521 -61 33c9,124 42,250 93,369 107,249 320,493 574,599 154,64 289,65 452,49z"/>
</svg>