<?xml version="1.0" encoding="UTF-8"?>
<!DOCTYPE svg PUBLIC "-//W3C//DTD SVG 1.1//EN" "http://www.w3.org/Graphics/SVG/1.1/DTD/svg11.dtd">
<svg xmlns="http://www.w3.org/2000/svg" xml:space="preserve" width="580px" height="580px" shape-rendering="geometricPrecision" text-rendering="geometricPrecision" image-rendering="optimizeQuality" fill-rule="nonzero" clip-rule="nonzero" viewBox="0 0 5800 5800" xmlns:xlink="http://www.w3.org/1999/xlink">
	<title>toolbox icon</title>
	<desc>toolbox icon from the IconExperience.com I-Collection. Copyright by INCORS GmbH (www.incors.com).</desc>
		<path id="curve30"  d="M2995 2715l505 -505c33,-33 57,-73 58,-121 0,-45 -19,-89 -48,-130 -44,-63 -109,-118 -169,-159 -69,-48 -150,-93 -230,-121 -52,-18 -87,-64 -91,-119 -3,-54 26,-104 74,-129 70,-36 144,-61 221,-75 161,-29 325,-6 472,65 75,37 144,85 203,145 34,35 83,37 124,40 63,3 118,7 169,57l196 196c50,51 54,106 57,169 3,41 6,89 40,124 0,27 92,37 125,22l63 -30 301 301c65,65 65,171 0,236l-391 391c-65,65 -171,65 -235,0l-252 -252 -50 -49 30 -63c19,-42 10,-92 -22,-125 -21,-20 -46,-40 -77,-38 -47,3 -103,62 -151,110 -149,154 -304,305 -456,457l-466 -397z"/>
	<path id="curve29"  d="M1719 3291l-52 6c-267,22 -472,-74 -658,-260 -91,-91 -165,-203 -217,-324 -66,-153 -82,-276 -85,-439 84,-45 168,-90 252,-135l460 460 434 -131 155 -464 -454 -458 206 -219c255,31 475,116 659,300 189,189 286,400 264,670 -5,67 -1,178 13,282 9,71 23,136 40,177l638 544 -1249 0c-64,-63 -318,-17 -406,-9z"/>
	<path id="curve28"  d="M1000 700l3800 0 0 600 -822 0c-280,-182 -781,-230 -1043,0l-617 0c-30,-17 -60,-34 -91,-49 -191,-92 -341,-110 -543,-134l-172 183 -512 0 0 -600zm3900 -200c200,0 400,0 600,0l0 4500c0,165 -135,300 -300,300l-4600 0c-165,0 -300,-135 -300,-300l0 -4500 600 0c0,481 0,963 0,1444 -132,71 -263,141 -395,212l4 183c7,328 153,646 391,870l0 291 4000 0 0 -371 306 -306c143,-143 143,-377 0,-519l-306 -307c0,-499 0,-998 0,-1497z"/>
</svg>