<?xml version="1.0" encoding="UTF-8"?>
<!DOCTYPE svg PUBLIC "-//W3C//DTD SVG 1.1//EN" "http://www.w3.org/Graphics/SVG/1.1/DTD/svg11.dtd">
<svg xmlns="http://www.w3.org/2000/svg" xml:space="preserve" width="580px" height="580px" shape-rendering="geometricPrecision" text-rendering="geometricPrecision" image-rendering="optimizeQuality" fill-rule="nonzero" clip-rule="nonzero" viewBox="0 0 5800 5800" xmlns:xlink="http://www.w3.org/1999/xlink">
	<title>tooth icon</title>
	<desc>tooth icon from the IconExperience.com I-Collection. Copyright by INCORS GmbH (www.incors.com).</desc>
		<path id="curve28"  d="M3623 5300c97,0 176,-76 238,-173 71,-112 118,-253 147,-355 50,-176 83,-365 103,-556 20,-191 28,-386 28,-572 0,-199 79,-394 153,-574 17,-42 33,-82 41,-104 53,-136 95,-266 124,-399 28,-131 43,-265 43,-411 0,-173 -3,-355 -17,-533 -13,-178 -37,-354 -77,-517 -43,-174 -103,-330 -200,-440 -91,-102 -219,-166 -403,-166 -102,0 -220,37 -347,77 -167,52 -349,109 -556,109 -209,0 -391,-57 -557,-109 -127,-40 -243,-77 -346,-77 -184,0 -312,64 -403,166 -97,110 -157,266 -200,440 -40,163 -64,339 -77,517 -14,178 -17,360 -17,533 0,147 15,281 43,412 28,133 70,263 124,400 16,42 28,73 41,104 74,180 153,375 153,572 0,186 7,380 27,569 19,190 50,379 99,554 29,104 76,246 147,359 62,98 142,174 244,174 193,0 211,-387 220,-589 1,-21 2,-39 3,-51 1,-33 2,-65 4,-100 12,-351 31,-934 495,-934 464,0 483,583 495,934 2,35 3,67 4,100 1,12 2,30 3,51 9,202 27,589 221,589zm406 -66c-94,149 -226,266 -406,266 -385,0 -408,-513 -420,-781 -1,-15 -2,-30 -3,-49 -1,-27 -3,-64 -4,-104 -9,-278 -25,-740 -296,-740 -271,0 -287,462 -296,740 -1,40 -3,77 -4,104 -1,19 -2,34 -3,49 -12,268 -35,781 -419,781 -185,0 -317,-117 -412,-267 -85,-135 -139,-296 -171,-413 -52,-187 -86,-386 -106,-587 -20,-201 -28,-401 -28,-589 0,-161 -71,-335 -137,-497 -17,-40 -33,-80 -43,-107 -58,-147 -103,-287 -133,-431 -31,-145 -48,-293 -48,-453 0,-175 3,-361 18,-548 14,-187 39,-374 82,-550 50,-201 123,-386 245,-524 128,-144 304,-234 552,-234 132,0 263,41 405,86 152,48 318,100 498,100 178,0 344,-52 496,-100 143,-45 275,-86 407,-86 248,0 424,90 552,234 122,138 195,323 245,524 43,176 68,363 83,550 14,187 17,373 17,548 0,160 -17,307 -48,452 -31,143 -76,284 -133,430 -18,48 -30,77 -42,107 -67,163 -138,339 -138,499 0,189 -8,391 -30,593 -21,202 -55,403 -108,589 -33,115 -87,274 -172,408z"/>
</svg>