<?xml version="1.0" encoding="UTF-8"?>
<!DOCTYPE svg PUBLIC "-//W3C//DTD SVG 1.1//EN" "http://www.w3.org/Graphics/SVG/1.1/DTD/svg11.dtd">
<svg xmlns="http://www.w3.org/2000/svg" xml:space="preserve" width="580px" height="580px" shape-rendering="geometricPrecision" text-rendering="geometricPrecision" image-rendering="optimizeQuality" fill-rule="nonzero" clip-rule="nonzero" viewBox="0 0 5800 5800" xmlns:xlink="http://www.w3.org/1999/xlink">
	<title>tooth_carious icon</title>
	<desc>tooth_carious icon from the IconExperience.com I-Collection. Copyright by INCORS GmbH (www.incors.com).</desc>
		<path id="curve28"  d="M4029 5234c-94,149 -226,266 -406,266 -419,0 -416,-610 -427,-934 -9,-278 -25,-740 -296,-740 -271,0 -287,462 -296,740 -11,324 -8,934 -426,934 -185,0 -317,-117 -412,-267 -85,-135 -139,-296 -171,-413 -52,-187 -86,-386 -106,-587 -20,-201 -28,-401 -28,-589 0,-161 -71,-335 -137,-497 -72,-177 -136,-350 -176,-538 -31,-145 -48,-293 -48,-453 0,-363 13,-744 100,-1098 104,-422 317,-758 797,-758 296,0 577,186 903,186 325,0 608,-186 903,-186 480,0 693,336 797,758 12,49 22,98 32,147l-632 -505 -100 600 -600 -100 300 600 -500 400 600 200 0 600 500 -300 200 400 300 -899c-3,143 -20,276 -48,407 -40,186 -104,361 -175,537 -67,163 -138,339 -138,499 0,189 -8,391 -30,593 -21,202 -55,403 -108,589 -33,115 -87,274 -172,408z"/>
</svg>