<?xml version="1.0" encoding="UTF-8"?>
<!DOCTYPE svg PUBLIC "-//W3C//DTD SVG 1.1//EN" "http://www.w3.org/Graphics/SVG/1.1/DTD/svg11.dtd">
<svg xmlns="http://www.w3.org/2000/svg" xml:space="preserve" width="580px" height="580px" shape-rendering="geometricPrecision" text-rendering="geometricPrecision" image-rendering="optimizeQuality" fill-rule="nonzero" clip-rule="nonzero" viewBox="0 0 5800 5800" xmlns:xlink="http://www.w3.org/1999/xlink">
	<title>torii icon</title>
	<desc>torii icon from the IconExperience.com I-Collection. Copyright by INCORS GmbH (www.incors.com).</desc>
	<path id="curve0"  d="M5235 1228c-137,32 -274,62 -413,88l60 584 218 0c110,0 200,90 200,200l0 400c0,110 -90,200 -200,200l-136 0 205 2000 31 0c165,0 300,135 300,300l0 300 -1400 0 0 -300c0,-135 91,-253 220,-289l-206 -2011 -2458 0 -180 2010c131,34 224,154 224,290l0 300 -1400 0 0 -300c0,-165 135,-300 300,-300l27 0 179 -2000 -106 0c-110,0 -200,-90 -200,-200l0 -400c0,-110 90,-200 200,-200l178 0 53 -593c-122,-24 -245,-50 -366,-79 -72,-17 -128,-71 -147,-143l-194 -725 153 26c833,143 1678,214 2523,214 845,0 1690,-71 2523,-214l153 -26 -194 725c-19,72 -75,126 -147,143zm-609 124c-147,26 -294,48 -443,67l336 3281 450 0 -343 -3348zm-641 90c-357,38 -719,58 -1085,58 -381,0 -759,-21 -1130,-63l-42 463 2304 0 -47 -458zm-2413 -29c-149,-20 -297,-43 -444,-69l-301 3356 450 0 295 -3287zm-172 3487l-800 0c-55,0 -100,45 -100,100l0 100 1000 0 0 -100c0,-55 -45,-100 -100,-100zm2652 -2800l-2342 0 -36 400 2419 0 -41 -400zm892 400l156 0 0 -400 -197 0 41 400zm-4120 0l36 -400 -160 0 0 400 124 0zm4276 -400l0 0c0,0 0,0 0,0 0,0 0,0 0,0l0 0 0 0zm0 0c0,0 0,0 0,0l0 0 0 0zm0 0l0 0 0 0c0,0 0,0 0,0zm100 2800l-800 0c-55,0 -100,45 -100,100l0 100 1000 0 0 -100c0,-55 -45,-100 -100,-100zm-11 -3867l114 -424c-795,127 -1598,191 -2403,191 -805,0 -1608,-64 -2403,-191l114 424c750,178 1518,267 2289,267 771,0 1539,-89 2289,-267z"/>
</svg>