<?xml version="1.0" encoding="UTF-8"?>
<!DOCTYPE svg PUBLIC "-//W3C//DTD SVG 1.1//EN" "http://www.w3.org/Graphics/SVG/1.1/DTD/svg11.dtd">
<svg xmlns="http://www.w3.org/2000/svg" xml:space="preserve" width="580px" height="580px" shape-rendering="geometricPrecision" text-rendering="geometricPrecision" image-rendering="optimizeQuality" fill-rule="nonzero" clip-rule="nonzero" viewBox="0 0 5800 5800" xmlns:xlink="http://www.w3.org/1999/xlink">
	<title>torii icon</title>
	<desc>torii icon from the IconExperience.com I-Collection. Copyright by INCORS GmbH (www.incors.com).</desc>
	<path id="curve0"  d="M5235 1228c-137,32 -274,62 -413,88l60 584 218 0c110,0 200,90 200,200l0 400c0,110 -90,200 -200,200l-136 0 205 2000 31 0c165,0 300,135 300,300l0 300 -1400 0 0 -300c0,-135 91,-253 220,-289l-206 -2011 -2458 0 -180 2010c131,34 224,154 224,290l0 300 -1400 0 0 -300c0,-165 135,-300 300,-300l27 0 179 -2000 -106 0c-110,0 -200,-90 -200,-200l0 -400c0,-110 90,-200 200,-200l178 0 53 -593c-122,-24 -245,-50 -366,-79 -72,-17 -128,-71 -147,-143l-194 -725 153 26c833,143 1678,214 2523,214 845,0 1690,-71 2523,-214l153 -26 -194 725c-19,72 -75,126 -147,143zm-1250 214c-357,38 -719,58 -1085,58 -381,0 -759,-21 -1130,-63l-42 463 2304 0 -47 -458z"/>
</svg>