<?xml version="1.0" encoding="UTF-8"?>
<!DOCTYPE svg PUBLIC "-//W3C//DTD SVG 1.1//EN" "http://www.w3.org/Graphics/SVG/1.1/DTD/svg11.dtd">
<svg xmlns="http://www.w3.org/2000/svg" xml:space="preserve" width="580px" height="580px" shape-rendering="geometricPrecision" text-rendering="geometricPrecision" image-rendering="optimizeQuality" fill-rule="nonzero" clip-rule="nonzero" viewBox="0 0 5800 5800" xmlns:xlink="http://www.w3.org/1999/xlink">
	<title>torpedo icon</title>
	<desc>torpedo icon from the IconExperience.com I-Collection. Copyright by INCORS GmbH (www.incors.com).</desc>
		<path id="curve28"  d="M2100 2300l0 1195 1532 -11 1068 -356 0 -455 -1210 -373 -1390 0zm-200 1197l0 -1197 -400 0 0 1200 400 -3zm-1700 -596c0,-210 163,-396 382,-535 254,-162 591,-266 818,-266l2118 0 1182 365 0 -165c0,-165 135,-300 300,-300l400 0c165,0 300,135 300,300l0 1200c0,165 -135,300 -300,300l-400 0c-165,0 -300,-135 -300,-300l0 -162 -1035 345 -2270 17c-206,0 -499,-85 -738,-220 -254,-143 -455,-346 -457,-579zm200 0c1,148 157,294 354,405 176,99 381,167 546,188l0 -1187c-187,23 -423,107 -611,227 -166,105 -289,235 -289,367zm5000 -701l-400 0c-55,0 -100,45 -100,100 0,400 0,800 0,1200 0,55 45,100 100,100l400 0c55,0 100,-45 100,-100l0 -1200c0,-55 -45,-100 -100,-100z"/>
</svg>