<?xml version="1.0" encoding="UTF-8"?>
<!DOCTYPE svg PUBLIC "-//W3C//DTD SVG 1.1//EN" "http://www.w3.org/Graphics/SVG/1.1/DTD/svg11.dtd">
<svg xmlns="http://www.w3.org/2000/svg" xml:space="preserve" width="580px" height="580px" shape-rendering="geometricPrecision" text-rendering="geometricPrecision" image-rendering="optimizeQuality" fill-rule="nonzero" clip-rule="nonzero" viewBox="0 0 5800 5800" xmlns:xlink="http://www.w3.org/1999/xlink">
	<title>touch icon</title>
	<desc>touch icon from the IconExperience.com I-Collection. Copyright by INCORS GmbH (www.incors.com).</desc>
		<path id="curve28"  d="M2906 2306c328,0 594,266 594,594 0,328 -266,594 -594,594 -329,0 -595,-266 -595,-594 0,-328 266,-594 595,-594zm0 200c-218,0 -395,176 -395,394 0,218 177,394 395,394 217,0 394,-176 394,-394 0,-218 -177,-394 -394,-394zm0 -1200c880,0 1594,713 1594,1594 0,881 -714,1594 -1594,1594 -881,0 -1595,-713 -1595,-1594 0,-881 714,-1594 1595,-1594zm0 200c-771,0 -1395,624 -1395,1394 0,770 624,1394 1395,1394 770,0 1394,-624 1394,-1394 0,-770 -624,-1394 -1394,-1394zm-6 -1206c1436,0 2600,1164 2600,2600 0,1436 -1164,2600 -2600,2600 -1436,0 -2600,-1164 -2600,-2600 0,-1436 1164,-2600 2600,-2600zm0 200c-1326,0 -2400,1074 -2400,2400 0,1326 1074,2400 2400,2400 1326,0 2400,-1074 2400,-2400 0,-1326 -1074,-2400 -2400,-2400z"/>
</svg>