<?xml version="1.0" encoding="UTF-8"?>
<!DOCTYPE svg PUBLIC "-//W3C//DTD SVG 1.1//EN" "http://www.w3.org/Graphics/SVG/1.1/DTD/svg11.dtd">
<svg xmlns="http://www.w3.org/2000/svg" xml:space="preserve" width="580px" height="580px" shape-rendering="geometricPrecision" text-rendering="geometricPrecision" image-rendering="optimizeQuality" fill-rule="nonzero" clip-rule="nonzero" viewBox="0 0 5800 5800" xmlns:xlink="http://www.w3.org/1999/xlink">
	<title>touch icon</title>
	<desc>touch icon from the IconExperience.com I-Collection. Copyright by INCORS GmbH (www.incors.com).</desc>
		<path id="curve28"  d="M2906 2206c383,0 694,311 694,694 0,384 -311,694 -694,694 -384,0 -695,-310 -695,-694 0,-383 311,-694 695,-694zm0 400c-163,0 -295,131 -295,294 0,163 132,294 295,294 162,0 294,-131 294,-294 0,-163 -132,-294 -294,-294zm0 -1400c935,0 1694,758 1694,1694 0,936 -759,1694 -1694,1694 -936,0 -1695,-758 -1695,-1694 0,-936 759,-1694 1695,-1694zm0 400c-715,0 -1295,579 -1295,1294 0,715 580,1294 1295,1294 714,0 1294,-579 1294,-1294 0,-715 -580,-1294 -1294,-1294zm-6 -1406c1491,0 2700,1209 2700,2700 0,1491 -1209,2700 -2700,2700 -1491,0 -2700,-1209 -2700,-2700 0,-1491 1209,-2700 2700,-2700zm0 400c-1270,0 -2300,1030 -2300,2300 0,1270 1030,2300 2300,2300 1270,0 2300,-1030 2300,-2300 0,-1270 -1030,-2300 -2300,-2300z"/>
</svg>