<?xml version="1.0" encoding="UTF-8"?>
<!DOCTYPE svg PUBLIC "-//W3C//DTD SVG 1.1//EN" "http://www.w3.org/Graphics/SVG/1.1/DTD/svg11.dtd">
<svg xmlns="http://www.w3.org/2000/svg" xml:space="preserve" width="580px" height="580px" shape-rendering="geometricPrecision" text-rendering="geometricPrecision" image-rendering="optimizeQuality" fill-rule="nonzero" clip-rule="nonzero" viewBox="0 0 5800 5800" xmlns:xlink="http://www.w3.org/1999/xlink">
	<title>tower_crane icon</title>
	<desc>tower_crane icon from the IconExperience.com I-Collection. Copyright by INCORS GmbH (www.incors.com).</desc>
		<path id="curve28"  d="M3200 1500l900 0 0 1500c-467,0 -933,0 -1400,0l0 -1000c0,-276 224,-500 500,-500zm-2193 2550c0,138 -112,250 -250,250 -137,0 -250,-112 -250,-250 0,-116 81,-217 194,-243l0 -2c-92,-2 -167,-79 -167,-170 0,-29 8,-58 24,-85l95 -165c12,-21 28,-38 47,-52l0 -1133 200 0 0 1133c19,13 35,31 47,52l95 165c16,27 24,56 24,85 0,91 -75,168 -166,170l-1 194 -142 1c-27,0 -50,22 -50,50 0,28 22,50 50,50 28,0 50,-22 50,-50l200 0zm3393 -1950l-200 0 0 -600 200 0 0 600zm-1800 0l-2000 0c-76,0 -145,-43 -179,-111 -34,-68 -26,-148 20,-209l113 -151c60,-79 145,-129 246,-129l2069 0c-168,111 -269,298 -269,500l0 100zm-1393 -700l2253 -991c34,-15 72,-10 100,11l1514 980 -367 0 -973 -630 145 630 -679 0 -79 0 160 -695 -1578 695 -496 0zm2693 1700l0 2200 796 0 0 200c-799,0 -1597,0 -2396,0l0 -200 800 0 0 -2200 800 0zm1600 -1600l0 1200 -1000 0 0 -1200 1000 0z"/>
</svg>