<?xml version="1.0" encoding="UTF-8"?>
<!DOCTYPE svg PUBLIC "-//W3C//DTD SVG 1.1//EN" "http://www.w3.org/Graphics/SVG/1.1/DTD/svg11.dtd">
<svg xmlns="http://www.w3.org/2000/svg" xml:space="preserve" width="580px" height="580px" shape-rendering="geometricPrecision" text-rendering="geometricPrecision" image-rendering="optimizeQuality" fill-rule="nonzero" clip-rule="nonzero" viewBox="0 0 5800 5800" xmlns:xlink="http://www.w3.org/1999/xlink">
	<title>tower_crane icon</title>
	<desc>tower_crane icon from the IconExperience.com I-Collection. Copyright by INCORS GmbH (www.incors.com).</desc>
		<path id="curve28" d="M1007 4050c0,138 -112,250 -250,250 -137,0 -250,-112 -250,-250 0,-116 81,-217 194,-243l0 -2c-60,-2 -114,-34 -143,-85 -31,-54 -31,-116 0,-170l95 -165c12,-21 28,-38 47,-52l0 -1233 -100 0c-117,0 -210,-101 -199,-218 3,-36 17,-71 40,-102l113 -151c60,-79 145,-129 246,-129l179 0 2481 -1091c34,-15 72,-10 100,11l1669 1080 271 0 0 1200 -1000 0 0 -600 -400 0 0 900 -200 0 0 2300 796 0 0 200c-799,0 -1597,0 -2396,0l0 -200 800 0 0 -2300 -400 0 0 -900 -1800 0 0 1233c19,13 35,31 47,52l95 165c31,54 31,116 0,170 -29,51 -83,83 -142,85l0 95 -1 99 -99 1 -43 0c-27,0 -50,22 -50,50 0,28 22,50 50,50 28,0 50,-22 50,-50l200 0zm3093 -2150l400 0 0 -200 -400 0 0 200zm-1300 -200l-2000 0c-38,0 -65,19 -87,49l-113 151c0,0 1077,0 2110,0 15,-74 47,-142 90,-200zm2062 -200l-1128 -730 166 720 0 10c321,0 641,0 962,0zm-1562 1500l0 2300 400 0 0 -2300 -400 0zm-19 -2295l-1806 795 1625 0 0 -10 181 -785zm417 795c-27,-117 -198,-855 -198,-855 0,0 -171,738 -198,855l396 0zm202 200l-700 0c-165,0 -300,135 -300,300l0 800 1000 0 0 -1100zm1400 0l-600 0 0 800 600 0 0 -800z"/>
</svg>