<?xml version="1.0" encoding="UTF-8"?>
<!DOCTYPE svg PUBLIC "-//W3C//DTD SVG 1.1//EN" "http://www.w3.org/Graphics/SVG/1.1/DTD/svg11.dtd">
<svg xmlns="http://www.w3.org/2000/svg" xml:space="preserve" width="580px" height="580px" shape-rendering="geometricPrecision" text-rendering="geometricPrecision" image-rendering="optimizeQuality" fill-rule="nonzero" clip-rule="nonzero" viewBox="0 0 5800 5800" xmlns:xlink="http://www.w3.org/1999/xlink">
	<title>tractor icon</title>
	<desc>tractor icon from the IconExperience.com I-Collection. Copyright by INCORS GmbH (www.incors.com).</desc>
		<path id="curve29"  d="M4600 3700c497,0 900,403 900,900 0,497 -403,900 -900,900 -497,0 -900,-403 -900,-900 0,-497 403,-900 900,-900zm-3100 -600c663,0 1200,537 1200,1200 0,663 -537,1200 -1200,1200 -663,0 -1200,-537 -1200,-1200 0,-663 537,-1200 1200,-1200z"/>
	<path id="curve28"  d="M900 1100l2200 0 0 200 -162 0 438 1313 1042 189c204,37 414,90 575,174 183,95 307,229 307,424l0 351c-197,-161 -439,-251 -700,-251 -531,0 -986,380 -1082,900 -2,0 -13,91 -13,100l-619 0c9,-65 14,-132 14,-200 0,-773 -627,-1400 -1400,-1400 -376,0 -733,149 -997,417l-142 -140c301,-306 710,-477 1139,-477 884,0 1600,716 1600,1600l200 0c0,-994 -806,-1800 -1800,-1800 -276,0 -537,62 -771,173l343 -1373 -172 0 0 -200z"/>
</svg>