<?xml version="1.0" encoding="UTF-8"?>
<!DOCTYPE svg PUBLIC "-//W3C//DTD SVG 1.1//EN" "http://www.w3.org/Graphics/SVG/1.1/DTD/svg11.dtd">
<svg xmlns="http://www.w3.org/2000/svg" xml:space="preserve" width="580px" height="580px" shape-rendering="geometricPrecision" text-rendering="geometricPrecision" image-rendering="optimizeQuality" fill-rule="nonzero" clip-rule="nonzero" viewBox="0 0 5800 5800" xmlns:xlink="http://www.w3.org/1999/xlink">
	<title>tractor icon</title>
	<desc>tractor icon from the IconExperience.com I-Collection. Copyright by INCORS GmbH (www.incors.com).</desc>
		<path id="curve28"  d="M1500 3100c663,0 1200,537 1200,1200 0,663 -537,1200 -1200,1200 -663,0 -1200,-537 -1200,-1200 0,-663 537,-1200 1200,-1200zm-1139 77c301,-306 710,-477 1139,-477 884,0 1600,716 1600,1600l441 0c-18,64 -30,131 -36,200l-619 0c9,-65 14,-132 14,-200 0,-773 -627,-1400 -1400,-1400 -376,0 -733,149 -997,417l-142 -140zm539 -2077c733,0 1467,0 2200,0l0 200 -162 0 438 1313 1042 189c204,37 414,90 575,174 183,95 307,229 307,424l0 351c-61,-50 -128,-94 -200,-131l0 -220c0,-105 -80,-185 -199,-247 -141,-74 -332,-121 -519,-155l-1100 -200c-34,-6 -65,-31 -77,-67l-477 -1431 -1450 0 -321 1284c-78,25 -154,55 -228,90l343 -1374 -172 0 0 -200zm3700 2600c497,0 900,403 900,900 0,497 -403,900 -900,900 -497,0 -900,-403 -900,-900 0,-497 403,-900 900,-900zm0 200c-387,0 -700,313 -700,700 0,387 313,700 700,700 387,0 700,-313 700,-700 0,-387 -313,-700 -700,-700zm-3100 -600c-552,0 -1000,448 -1000,1000 0,552 448,1000 1000,1000 552,0 1000,-448 1000,-1000 0,-552 -448,-1000 -1000,-1000z"/>
</svg>