<?xml version="1.0" encoding="UTF-8"?>
<!DOCTYPE svg PUBLIC "-//W3C//DTD SVG 1.1//EN" "http://www.w3.org/Graphics/SVG/1.1/DTD/svg11.dtd">
<svg xmlns="http://www.w3.org/2000/svg" xml:space="preserve" width="580px" height="580px" shape-rendering="geometricPrecision" text-rendering="geometricPrecision" image-rendering="optimizeQuality" fill-rule="nonzero" clip-rule="nonzero" viewBox="0 0 5800 5800" xmlns:xlink="http://www.w3.org/1999/xlink">
	<title>tram icon</title>
	<desc>tram icon from the IconExperience.com I-Collection. Copyright by INCORS GmbH (www.incors.com).</desc>
	<path id="curve0"  d="M2900 684l1051 630 143 86 -143 86 -691 414 1940 0c143,0 257,100 293,235 112,424 207,823 207,1265l0 800c0,165 -135,300 -300,300l-5000 0c-165,0 -300,-135 -300,-300l0 -800c0,-442 95,-841 207,-1265 36,-135 150,-235 293,-235l1940 0 -834 -500 1194 -716zm-2600 2716c0,55 45,100 100,100l600 0c55,0 100,-45 100,-100l0 -1100c0,-55 -45,-100 -100,-100l-426 0c-49,0 -90,36 -99,83 -96,371 -175,731 -175,1117zm3400 -1200c-55,0 -100,45 -100,100l0 800c0,55 45,100 100,100 233,0 467,0 700,0 55,0 100,-45 100,-100l0 -800c0,-55 -45,-100 -100,-100m-1800 0c-55,0 -100,45 -100,100l0 800c0,55 45,100 100,100l700 0c55,0 100,-45 100,-100 0,-267 0,-533 0,-800 0,-55 -45,-100 -100,-100m-1800 0c-55,0 -100,45 -100,100l0 800c0,55 45,100 100,100l700 0c55,0 100,-45 100,-100l0 -791c0,-3 0,-6 0,-9 0,-55 -45,-100 -100,-100l-700 0zm3300 0c-55,0 -100,45 -100,100l0 1100c0,55 45,100 100,100l599 0c55,0 99,-45 99,-100 -1,-387 -79,-745 -176,-1117 -9,-47 -50,-83 -99,-83l-423 0zm490 2500c-47,232 -252,400 -490,400 -238,0 -443,-168 -490,-400l980 0zm-1000 0c-47,232 -252,400 -490,400 -238,0 -443,-168 -490,-400l980 0zm-1800 0c-47,232 -252,400 -490,400 -238,0 -443,-168 -490,-400l980 0zm-1000 0c-47,232 -252,400 -490,400 -238,0 -443,-168 -490,-400l980 0zm1410 -3784l-806 484 806 484 806 -484 -806 -484z"/>
</svg>