<?xml version="1.0" encoding="UTF-8"?>
<!DOCTYPE svg PUBLIC "-//W3C//DTD SVG 1.1//EN" "http://www.w3.org/Graphics/SVG/1.1/DTD/svg11.dtd">
<svg xmlns="http://www.w3.org/2000/svg" xml:space="preserve" width="580px" height="580px" shape-rendering="geometricPrecision" text-rendering="geometricPrecision" image-rendering="optimizeQuality" fill-rule="nonzero" clip-rule="nonzero" viewBox="0 0 5800 5800" xmlns:xlink="http://www.w3.org/1999/xlink">
	<title>tram icon</title>
	<desc>tram icon from the IconExperience.com I-Collection. Copyright by INCORS GmbH (www.incors.com).</desc>
	<path id="curve0"  d="M2900 684l1194 716 -834 500 1940 0c143,0 257,100 293,235 56,212 107,412 145,618 38,208 62,418 62,647l0 800c0,165 -135,300 -300,300l-5000 0c-165,0 -300,-135 -300,-300l0 -800c0,-229 24,-439 62,-647 38,-206 89,-406 145,-618 36,-135 150,-235 293,-235l1940 0 -834 -500 1194 -716zm2390 4016c-47,232 -252,400 -490,400 -238,0 -443,-168 -490,-400l207 0c42,120 156,200 283,200 127,0 241,-80 283,-200l207 0zm-1000 0c-47,232 -252,400 -490,400 -238,0 -443,-168 -490,-400l207 0c42,120 156,200 283,200 127,0 241,-80 283,-200l207 0zm-1800 0c-47,232 -252,400 -490,400 -238,0 -443,-168 -490,-400l207 0c42,120 156,200 283,200 127,0 241,-80 283,-200l207 0zm-1000 0c-47,232 -252,400 -490,400 -238,0 -443,-168 -490,-400l207 0c42,120 156,200 283,200 127,0 241,-80 283,-200l207 0zm-890 -2600c-52,0 -87,38 -100,86 -55,210 -106,406 -142,603 -36,194 -58,393 -58,611l0 800c0,55 45,100 100,100l5000 0c55,0 100,-45 100,-100l0 -800c0,-218 -22,-417 -58,-611 -36,-197 -87,-393 -142,-603 -13,-48 -48,-86 -100,-86 -1541,0 -3059,0 -4600,0zm4700 1400l-500 0c-55,0 -100,-45 -100,-100l0 -1100 200 0 0 1000 400 0 0 200zm-3100 -300l-700 0c-55,0 -100,-45 -100,-100l0 -800 200 0 0 700 600 0 0 200zm1100 0l-700 0c-55,0 -100,-45 -100,-100l0 -800 200 0 0 700 600 0 0 200zm1100 0l-700 0c-55,0 -100,-45 -100,-100l0 -800 200 0 0 700 600 0 0 200zm-3900 100l400 0 0 -1000 200 0 0 1100c0,55 -45,100 -100,100l-500 0 0 -200zm2400 -2384l-806 484 806 484 806 -484 -806 -484z"/>
</svg>