<?xml version="1.0" encoding="utf-8"?>
<!-- Generator: Adobe Illustrator 19.2.1, SVG Export Plug-In . SVG Version: 6.00 Build 0)  -->
<svg version="1.1" id="Ebene_1" xmlns="http://www.w3.org/2000/svg" xmlns:xlink="http://www.w3.org/1999/xlink" x="0px" y="0px"
	 width="580px" height="580px" viewBox="0 0 580 580" style="enable-background:new 0 0 580 580;" xml:space="preserve">
<g>
	<path d="M390,518H30V38h245.3c8.2,0,14.7,6.7,14.7,14.9V138h85.3c8.3,0,14.7,6.6,14.7,14.9V240h20v-87.1c0-9.6-3.7-18.4-10.1-24.7
		c-9.7-9.8-99.9-99.7-99.9-100c-6.3-6.4-15-10.3-24.6-10.3H10v520h400V340h-20V518z M310,66.7l51.5,51.3H310V66.7z"/>
	<polygon points="562.6,282.9 462.6,182.9 448.4,197.1 531.4,280 265,280 265,300 531.4,300 448.4,382.9 462.6,397.1 562.6,297.1 
		569.6,290 	"/>
</g>
</svg>
