<?xml version="1.0" encoding="utf-8"?>
<!-- Generator: Adobe Illustrator 19.2.1, SVG Export Plug-In . SVG Version: 6.00 Build 0)  -->
<svg version="1.1" id="Ebene_1" xmlns="http://www.w3.org/2000/svg" xmlns:xlink="http://www.w3.org/1999/xlink" x="0px" y="0px"
	 width="580px" height="580px" viewBox="0 0 580 580" style="enable-background:new 0 0 580 580;" xml:space="preserve">
<g>
	<path d="M546.7,372.9c-21.2-22-49.9-30.4-75.6-32.9c2.7-10.1,4.1-16.6,4.3-17.2l-19.5-4.3c-1.2,5.6-3,12.7-5.2,20.6
		c-1.5,0-3.1,0-4.5,0.1c-17.6,0.5-36.1,3.4-53.6,8.1c0-17.2,0.1-35,0.1-51.7c31.4-2.8,77.4-14.9,108.4-32.6l-9.9-17.4
		c-27.7,15.8-69.9,27-98.5,29.9c0-29.8,0-52.4,0-55l-20,0c0,0.7,0,24.2,0,55.7c-25.4-0.6-58.2-5.2-58.5-5.3l-2.8,19.8
		c1.6,0.2,34.7,4.9,61.3,5.5c0,18.5,0,38.5-0.1,57.4c-9.2,3.4-17.7,7.3-25.4,11.6c-32.1,18.1-54.3,53.3-54.1,85.6
		c0.1,21.6,10.2,39,28.4,48.9c18.9,10.3,37.6,11.4,55.6,3.2c3.8-1.8,7.6-3.9,11.4-6.5c5.1,6.5,9.9,9.8,11.8,10.9l10.3-17.2
		c-0.7-0.4-3.7-2.4-7-6.8c17.3-18,33.4-45.8,47.9-82.9c5.7-14.7,10.4-28.8,14.1-40.9c22.8,1.7,48.6,8.4,66.8,27.2
		c13.2,13.7,18.3,27.1,15.5,40.8c-6.7,32.3-54.6,58.7-72.4,66.1l7.7,18.5c3-1.3,74.2-31.4,84.3-80.5
		C571.6,411.2,564.6,391.5,546.7,372.9z M368.8,484.7c-12.2,5.5-24.5,4.7-37.7-2.5c-14.8-8.1-17.9-21.6-18-31.5
		c-0.2-25,18.3-53.6,43.9-68c4.8-2.7,10-5.2,15.5-7.5c-0.1,29.7-0.2,53.9-0.3,61.4c-0.3,18,2.5,31.8,6.5,42.2
		C375.4,481.2,372.1,483.2,368.8,484.7z M394.7,463.2c-1.7-7-2.7-15.6-2.5-26.2c0.2-8.3,0.3-36,0.3-68.9c16.7-4.9,34.9-8.1,52.2-8.8
		C433.7,393.8,416.5,436.6,394.7,463.2z"/>
	<path d="M125.7,70L11.1,369h39l29.8-84h126.7l31.7,84H277L162,70H125.7z M91.5,254L138,126.3c1.8-4.9,3.4-11.3,4.8-20.3h0.8
		c1.5,9,3.1,16.2,4.6,20.3L195.1,254H91.5z"/>
</g>
</svg>
