<?xml version="1.0" encoding="UTF-8"?>
<!DOCTYPE svg PUBLIC "-//W3C//DTD SVG 1.1//EN" "http://www.w3.org/Graphics/SVG/1.1/DTD/svg11.dtd">
<svg xmlns="http://www.w3.org/2000/svg" xml:space="preserve" width="580px" height="580px" shape-rendering="geometricPrecision" text-rendering="geometricPrecision" image-rendering="optimizeQuality" fill-rule="nonzero" clip-rule="nonzero" viewBox="0 0 5800 5800" xmlns:xlink="http://www.w3.org/1999/xlink">
	<title>tree icon</title>
	<desc>tree icon from the IconExperience.com I-Collection. Copyright by INCORS GmbH (www.incors.com).</desc>
		<path id="curve29"  d="M2184 4127c-33,4 -67,6 -100,6 -142,0 -275,-36 -393,-98 -95,-51 -180,-120 -248,-203 -64,25 -132,37 -200,37 -154,0 -294,-63 -395,-164 -102,-101 -164,-241 -164,-395l0 -7c-118,-121 -184,-283 -184,-452 0,-92 20,-185 58,-269 -37,-57 -58,-123 -58,-191 0,-93 40,-181 105,-247 -2,-9 -4,-17 -5,-25 -25,-143 7,-290 89,-410 47,-69 110,-127 183,-169 -3,-23 -5,-46 -5,-67 0,-155 63,-294 164,-396 101,-101 241,-163 396,-163 23,0 48,1 72,4 112,-179 315,-280 525,-280 31,0 63,2 94,7l11 2c78,-120 211,-193 354,-193 116,0 226,48 306,132 78,-27 162,-40 245,-40 139,0 283,38 399,115 15,-4 30,-8 45,-12 35,-7 71,-11 107,-11 155,0 301,70 398,190 107,-11 214,15 305,70 82,50 151,125 194,218 153,-24 301,26 406,141 112,123 154,297 119,458 75,49 124,118 146,197 22,78 18,165 -12,250 -4,11 -8,21 -13,32 14,19 26,39 36,60 45,91 54,188 36,278 -21,99 -75,194 -152,259 58,137 53,288 -7,424 -75,170 -226,295 -400,355 -26,113 -105,197 -208,246 -121,58 -273,70 -401,28 -86,54 -182,91 -281,107 4,-5 7,-11 10,-17 76,-77 178,-139 305,-213 316,-185 559,-351 710,-703 65,-152 -7,-329 -159,-394 -61,-26 -126,-30 -186,-15 -18,-22 -40,-42 -65,-59 -137,-91 -324,-54 -416,84 -32,48 -89,90 -156,125 27,-136 -44,-278 -177,-335 -44,-18 -90,-26 -134,-23 -30,-85 -97,-155 -189,-185 -157,-52 -326,33 -378,190 -25,74 -114,174 -165,234 -95,111 -183,218 -247,341 -127,-50 -279,-117 -313,-254 -40,-160 -204,-258 -364,-218 -77,19 -140,68 -180,131 -62,-36 -137,-49 -212,-33 -160,36 -263,197 -227,358 53,241 155,455 324,637 126,135 268,230 423,328 67,43 179,108 224,175 0,9 1,16 5,22z"/>
	<path id="curve28"  d="M4117 2745c30,-46 93,-59 138,-28 46,30 59,93 28,138 -159,239 -454,334 -734,424 -110,36 -218,71 -308,112 -50,22 -109,0 -132,-50 -1,-3 -9,-41 -9,-41 0,-205 54,-268 136,-364 48,-56 109,-127 172,-275 22,-51 80,-74 131,-53 51,22 74,80 53,131 -75,176 -147,260 -204,327 -23,26 -42,48 -56,75 51,-18 103,-34 156,-51 247,-80 508,-164 629,-345zm-1012 -276c18,-52 74,-81 126,-64 52,18 81,74 64,126 -47,140 -142,252 -241,367 -124,146 -254,299 -254,502 0,55 -45,100 -100,100 -21,0 -40,-6 -56,-17 -69,-41 -152,-75 -237,-110 -255,-104 -520,-211 -604,-549 -13,-53 19,-108 73,-121 53,-13 108,19 121,73 60,239 276,327 485,412 46,19 91,37 135,57 45,-192 168,-337 286,-476 85,-100 168,-198 202,-300zm1303 392c22,-51 80,-74 131,-53 51,22 74,80 53,131 -139,325 -386,468 -627,609 -286,167 -563,328 -565,845l98 591c33,198 208,316 402,316 55,0 100,45 100,100 0,55 -45,100 -100,100 -290,0 -550,-190 -598,-484l-99 -593c-2,-7 -3,-15 -3,-23 0,-637 327,-828 665,-1025 213,-124 430,-250 543,-514zm-2508 2639c-55,0 -100,-45 -100,-100 0,-55 45,-100 100,-100 191,0 373,-114 401,-314l100 -700c41,-285 -133,-395 -339,-525 -254,-161 -550,-347 -659,-840 -12,-53 22,-106 76,-118 53,-12 106,22 118,76 92,410 349,573 571,713 266,168 490,309 431,722l-100 700c-43,297 -309,486 -599,486z"/>
</svg>