<?xml version="1.0" encoding="UTF-8"?>
<!DOCTYPE svg PUBLIC "-//W3C//DTD SVG 1.1//EN" "http://www.w3.org/Graphics/SVG/1.1/DTD/svg11.dtd">
<svg xmlns="http://www.w3.org/2000/svg" xml:space="preserve" width="580px" height="580px" shape-rendering="geometricPrecision" text-rendering="geometricPrecision" image-rendering="optimizeQuality" fill-rule="nonzero" clip-rule="nonzero" viewBox="0 0 5800 5800" xmlns:xlink="http://www.w3.org/1999/xlink">
	<title>tree icon</title>
	<desc>tree icon from the IconExperience.com I-Collection. Copyright by INCORS GmbH (www.incors.com).</desc>
		<path id="curve29"  d="M684 3307c-117,-128 -184,-282 -184,-456 0,-92 20,-185 58,-269 -37,-57 -58,-123 -58,-191 0,-93 40,-181 105,-247 -33,-151 -3,-308 84,-435 47,-69 110,-127 183,-169 -3,-23 -5,-46 -5,-67 0,-155 63,-294 164,-396 124,-123 295,-181 468,-159 133,-213 385,-309 630,-271 78,-120 211,-193 354,-193 74,0 144,20 205,54 37,21 71,47 101,78 78,-27 162,-40 245,-40 139,0 283,38 399,115 49,-15 101,-23 152,-23 155,0 301,70 398,190 107,-11 214,15 305,70 82,50 151,125 194,218 153,-24 301,26 406,141 112,123 154,297 119,458 75,49 124,118 146,197 22,78 18,165 -12,250 -4,11 -8,21 -13,32 128,179 98,420 -55,573 0,2 -22,21 -25,24 10,25 19,51 26,77 29,117 16,237 -33,347 -75,170 -226,295 -400,355 -26,113 -105,197 -208,246 -121,58 -273,70 -401,28 -51,32 -106,59 -165,78 -37,13 -76,23 -116,29 86,-97 199,-163 314,-231 31,-17 61,-35 91,-53 64,7 133,-3 191,-31 59,-29 103,-74 103,-142l0 -31c24,-21 47,-42 70,-65 145,-36 276,-124 338,-264 31,-70 40,-145 22,-217 -9,-35 -24,-70 -46,-103l-63 -94 102 -50c144,-73 185,-272 65,-392l-55 -55 41 -67c33,-55 55,-126 37,-190 -15,-54 -57,-87 -108,-105l-99 -35 40 -97c46,-112 29,-247 -54,-338 -76,-84 -183,-99 -289,-61l-105 37 -25 -109 -2 -8c-21,-80 -72,-143 -135,-182 -69,-41 -142,-52 -220,-34l-72 19 -38 -64c-57,-94 -159,-151 -269,-151 -44,0 -87,9 -128,27l-57 25 -48 -40c-86,-73 -206,-104 -318,-104 -80,0 -163,16 -235,50l-80 39 -47 -76c-41,-66 -112,-105 -189,-105 -92,0 -174,56 -207,143l-33 87c-76,-23 -138,-46 -219,-46 -158,0 -316,83 -380,232l-34 81 -85 -24c-124,-35 -260,0 -352,92 -92,91 -127,226 -93,350l24 87 -84 33c-67,26 -125,73 -166,132 -39,58 -62,128 -62,203 0,74 22,125 46,192l-63 43c-44,31 -75,77 -75,132 0,42 18,80 47,109l55 54 -39 67c-42,71 -63,147 -63,230 0,129 55,252 152,338l38 34 -5 50c-21,211 146,396 358,396 64,0 125,-16 180,-48l81 -47 52 78c88,131 222,225 376,263 84,53 205,121 252,212 -33,4 -67,6 -100,6 -142,0 -275,-36 -393,-98 -95,-51 -180,-120 -248,-203 -64,25 -132,37 -200,37 -309,0 -559,-250 -559,-562z"/>
	<path id="curve28"  d="M4408 2861c22,-51 80,-74 131,-53 51,22 74,80 53,131 -139,325 -386,468 -627,609 -286,167 -563,328 -565,845l98 591c14,83 60,168 137,229 65,53 154,87 265,87 55,0 100,45 100,100 0,55 -45,100 -100,100 -160,0 -291,-52 -389,-131 -117,-94 -188,-225 -209,-353l-99 -593c-2,-7 -3,-15 -3,-23 0,-637 327,-828 665,-1025 213,-124 430,-250 543,-514zm-2508 2639c-55,0 -100,-45 -100,-100 0,-55 45,-100 100,-100 113,0 203,-35 269,-87 75,-61 120,-144 132,-227l100 -700c41,-285 -133,-395 -339,-525 -254,-161 -550,-347 -659,-840 -12,-53 22,-106 76,-118 53,-12 106,22 118,76 92,410 349,573 571,713 266,168 490,309 431,722l-100 700c-19,130 -89,261 -206,354 -99,80 -232,132 -393,132zm1200 -2200c0,-205 54,-268 136,-364 48,-56 109,-127 172,-275 22,-51 80,-74 131,-53 51,22 74,80 53,131 -75,176 -147,260 -204,327 -23,26 -42,48 -56,75 51,-18 103,-34 156,-51 247,-80 508,-164 629,-345 30,-46 93,-59 138,-28 46,30 59,93 28,138 -159,239 -454,334 -734,424 -110,36 -218,71 -308,112 -50,22 -109,0 -132,-50 -6,-13 -9,-27 -9,-41zm5 -831c18,-52 74,-81 126,-64 52,18 81,74 64,126 -47,140 -142,252 -241,367 -124,146 -254,299 -254,502 0,55 -45,100 -100,100 -21,0 -40,-6 -56,-17 -69,-41 -152,-75 -237,-110 -255,-104 -520,-211 -604,-549 -13,-53 19,-108 73,-121 53,-13 108,19 121,73 60,239 276,327 485,412 46,19 91,37 135,57 45,-192 168,-337 286,-476 85,-100 168,-198 202,-300z"/>
</svg>