<?xml version="1.0" encoding="UTF-8"?>
<!DOCTYPE svg PUBLIC "-//W3C//DTD SVG 1.1//EN" "http://www.w3.org/Graphics/SVG/1.1/DTD/svg11.dtd">
<svg xmlns="http://www.w3.org/2000/svg" xml:space="preserve" width="580px" height="580px" shape-rendering="geometricPrecision" text-rendering="geometricPrecision" image-rendering="optimizeQuality" fill-rule="nonzero" clip-rule="nonzero" viewBox="0 0 5800 5800" xmlns:xlink="http://www.w3.org/1999/xlink">
	<title>trojan_horse icon</title>
	<desc>trojan_horse icon from the IconExperience.com I-Collection. Copyright by INCORS GmbH (www.incors.com).</desc>
		<path id="curve28"  d="M2900 3870l0 830c349,3 700,0 1049,0l151 -321 0 -638 -226 -225 -974 354zm345 1030c33,59 53,126 53,199 0,220 -179,399 -399,399 -220,0 -399,-179 -399,-399 0,-73 19,-140 53,-199l-308 0c33,59 53,126 53,199 0,220 -179,399 -399,399 -220,0 -399,-180 -399,-399 0,-73 19,-140 53,-199l-253 0 0 -200 213 0 187 -326 0 -1167 -164 -902 -155 155 -220 440 -502 0c-52,-52 -104,-104 -156,-155l-101 -1357 355 -355 -203 -400 948 -236 751 214 540 541 97 582 333 166 691 0 743 212 434 542 209 732 0 1314 200 0 0 200 -255 0c33,59 53,126 53,199 0,219 -180,399 -399,399 -220,0 -399,-179 -399,-399 0,-73 19,-140 53,-199l-308 0c33,59 53,126 53,199 0,219 -180,399 -399,399 -220,0 -399,-179 -399,-399 0,-73 19,-140 53,-199l-308 0z"/>
</svg>