<?xml version="1.0" encoding="UTF-8"?>
<!DOCTYPE svg PUBLIC "-//W3C//DTD SVG 1.1//EN" "http://www.w3.org/Graphics/SVG/1.1/DTD/svg11.dtd">
<svg xmlns="http://www.w3.org/2000/svg" xml:space="preserve" width="580px" height="580px" shape-rendering="geometricPrecision" text-rendering="geometricPrecision" image-rendering="optimizeQuality" fill-rule="nonzero" clip-rule="nonzero" viewBox="0 0 5800 5800" xmlns:xlink="http://www.w3.org/1999/xlink">
	<title>trojan_horse icon</title>
	<desc>trojan_horse icon from the IconExperience.com I-Collection. Copyright by INCORS GmbH (www.incors.com).</desc>
		<path id="curve28" d="M2700 4699l0 -969 1226 -446 374 375 0 762 -131 279 931 0 0 -1286 -191 -668 -366 -458 -657 -188 -709 0 -467 -234 -103 -618 -459 -459 -650 -186 -652 164 122 241 33 65 -51 51 -342 341 89 1190 44 45 298 0 180 -360 445 -445 236 1298 0 1233 -150 264 950 9zm-1400 1l213 0 187 -326 0 -1167 -164 -902 -155 155 -220 440 -502 0 -156 -155 -101 -1357 355 -355 -203 -400 948 -236 751 214 540 541 97 582 333 166 691 0 743 212 434 542 209 732 0 1314 200 0 0 200 -255 0c33,59 53,126 53,199 0,219 -180,399 -399,399 -220,0 -399,-179 -399,-399 0,-73 19,-140 53,-199l-308 0c33,59 53,126 53,199 0,219 -180,399 -399,399 -220,0 -399,-179 -399,-399 0,-73 19,-140 53,-199l-308 0c33,59 53,126 53,199 0,110 -45,210 -117,282 -72,72 -172,117 -282,117 -220,0 -399,-179 -399,-399 0,-73 19,-140 53,-199l-308 0c33,59 53,126 53,199 0,220 -179,399 -399,399 -220,0 -399,-180 -399,-399 0,-73 19,-140 53,-199l-253 0 0 -200zm2649 0l151 -321 0 -638 -226 -225 -974 354 0 830c349,3 700,0 1049,0zm947 200c-109,1 -196,90 -196,199 0,110 89,199 199,199 110,0 199,-89 199,-199 0,-113 -90,-199 -202,-199zm-1000 0c-54,1 -102,23 -138,58 -36,36 -58,86 -58,141 0,110 89,199 199,199 110,0 199,-89 199,-199 0,-113 -90,-199 -202,-199zm-1001 0c-109,3 -195,89 -195,199 0,110 89,199 199,199 55,0 104,-23 140,-59 36,-36 59,-85 59,-140 0,-111 -92,-202 -203,-199zm-996 0c-112,1 -199,90 -199,199 0,110 88,199 199,199 110,0 199,-89 199,-199 0,-109 -88,-198 -199,-199z"/>
</svg>