<?xml version="1.0" encoding="UTF-8"?>
<!DOCTYPE svg PUBLIC "-//W3C//DTD SVG 1.1//EN" "http://www.w3.org/Graphics/SVG/1.1/DTD/svg11.dtd">
<svg xmlns="http://www.w3.org/2000/svg" xml:space="preserve" width="580px" height="580px" shape-rendering="geometricPrecision" text-rendering="geometricPrecision" image-rendering="optimizeQuality" fill-rule="nonzero" clip-rule="nonzero" viewBox="0 0 5800 5800" xmlns:xlink="http://www.w3.org/1999/xlink">
	<title>truck_trailer icon</title>
	<desc>truck_trailer icon from the IconExperience.com I-Collection. Copyright by INCORS GmbH (www.incors.com).</desc>
	<path id="curve0"  d="M4700 4300l700 0c55,0 100,45 100,100 0,55 -45,100 -100,100 -367,0 -733,0 -1100,0l0 600 -200 0 0 -600 -802 0c-26,-394 -353,-700 -748,-700 -269,0 -516,144 -650,376 -134,-232 -381,-376 -650,-376 -395,0 -722,306 -748,700l-202 0 0 -1000 4400 0 0 800zm-4400 -1000l0 -2100c0,-55 45,-100 100,-100l4200 0c55,0 100,45 100,100l0 2100 -4400 0zm950 700c304,0 550,246 550,550 0,304 -246,550 -550,550 -304,0 -550,-246 -550,-550 0,-304 246,-550 550,-550zm1300 0c304,0 550,246 550,550 0,304 -246,550 -550,550 -304,0 -550,-246 -550,-550 0,-304 246,-550 550,-550z"/>
</svg>