<?xml version="1.0" encoding="UTF-8"?>
<!DOCTYPE svg PUBLIC "-//W3C//DTD SVG 1.1//EN" "http://www.w3.org/Graphics/SVG/1.1/DTD/svg11.dtd">
<svg xmlns="http://www.w3.org/2000/svg" xml:space="preserve" width="580px" height="580px" shape-rendering="geometricPrecision" text-rendering="geometricPrecision" image-rendering="optimizeQuality" fill-rule="nonzero" clip-rule="nonzero" viewBox="0 0 5800 5800" xmlns:xlink="http://www.w3.org/1999/xlink">
	<title>truck icon</title>
	<desc>truck icon from the IconExperience.com I-Collection. Copyright by INCORS GmbH (www.incors.com).</desc>
		<path id="curve28"  d="M4700 5083l0 317c0,55 -45,100 -100,100l-800 0c-55,0 -100,-45 -100,-100l0 -216 168 -84 732 0c35,0 69,-6 100,-17zm-2600 51l0 266c0,55 -45,100 -100,100l-800 0c-55,0 -100,-45 -100,-100l0 -317c31,11 65,17 100,17l832 0 68 34zm-1400 -1234l0 -3500c0,-55 45,-100 100,-100l4200 0c55,0 100,45 100,100l0 3500 -200 0 0 -2300c0,-274 -226,-500 -500,-500l-3000 0c-274,0 -500,226 -500,500l1 2300 -201 0zm4000 -2300l0 3200c0,55 -45,100 -100,100l-777 0 -378 189c-15,7 -30,11 -45,11l-900 0c-19,0 -38,-6 -53,-15l-370 -185 -877 0c-55,0 -100,-45 -100,-100 0,-299 1,-3200 0,-3200 0,-165 135,-300 300,-300l3000 0c165,0 300,135 300,300zm-200 500l-3200 0 0 800c0,220 180,400 400,400l2400 0c220,0 400,-180 400,-400l0 -800zm-3200 1900l0 400 900 0 -400 -400 -500 0zm3200 0l-500 0 -400 400 900 0 0 -400z"/>
</svg>