<?xml version="1.0" encoding="UTF-8"?>
<!DOCTYPE svg PUBLIC "-//W3C//DTD SVG 1.1//EN" "http://www.w3.org/Graphics/SVG/1.1/DTD/svg11.dtd">
<svg xmlns="http://www.w3.org/2000/svg" xml:space="preserve" width="580px" height="580px" shape-rendering="geometricPrecision" text-rendering="geometricPrecision" image-rendering="optimizeQuality" fill-rule="nonzero" clip-rule="nonzero" viewBox="0 0 5800 5800" xmlns:xlink="http://www.w3.org/1999/xlink">
	<title>truck_container icon</title>
	<desc>truck_container icon from the IconExperience.com I-Collection. Copyright by INCORS GmbH (www.incors.com).</desc>
		<path id="curve30"  d="M2800 4200l900 0 0 -1600c0,-55 45,-100 100,-100l900 0c37,0 70,20 87,50l695 993c12,17 18,37 18,57l0 800 -266 0c-69,-315 -349,-550 -684,-550 -335,0 -615,235 -684,550l-1066 0 0 -200z"/>
	<path id="curve29"  d="M950 4000c304,0 550,246 550,550 0,304 -246,550 -550,550 -304,0 -550,-246 -550,-550 0,-304 246,-550 550,-550zm3600 0c304,0 550,246 550,550 0,304 -246,550 -550,550 -304,0 -550,-246 -550,-550 0,-304 246,-550 550,-550zm-2400 0c304,0 550,246 550,550 0,304 -246,550 -550,550 -304,0 -550,-246 -550,-550 0,-304 246,-550 550,-550z"/>
	<path id="curve28"  d="M400 1900l3000 0c55,0 100,45 100,100l0 1700c0,55 -45,100 -100,100l-3000 0c-55,0 -100,-45 -100,-100l0 -1700c0,-55 45,-100 100,-100zm700 200l-200 0 0 1500 200 0 0 -1500zm600 0l-200 0 0 1500 200 0 0 -1500zm600 0l-200 0 0 1500 200 0 0 -1500zm400 0l0 1500 200 0 0 -1500 -200 0z"/>
</svg>