<?xml version="1.0" encoding="UTF-8"?>
<!DOCTYPE svg PUBLIC "-//W3C//DTD SVG 1.1//EN" "http://www.w3.org/Graphics/SVG/1.1/DTD/svg11.dtd">
<svg xmlns="http://www.w3.org/2000/svg" xml:space="preserve" width="580px" height="580px" shape-rendering="geometricPrecision" text-rendering="geometricPrecision" image-rendering="optimizeQuality" fill-rule="nonzero" clip-rule="nonzero" viewBox="0 0 5800 5800" xmlns:xlink="http://www.w3.org/1999/xlink">
	<title>truck icon</title>
	<desc>truck icon from the IconExperience.com I-Collection. Copyright by INCORS GmbH (www.incors.com).</desc>
		<path id="curve28" d="M1300 1900l3200 0 0 -300c0,-55 -45,-100 -100,-100l-3000 0c-55,0 -100,45 -100,100l0 300zm3400 3183l0 317c0,55 -45,100 -100,100l-800 0c-55,0 -100,-45 -100,-100l0 -216 168 -84 32 0 0 200 600 0 0 -200 100 0c35,0 69,-6 100,-17zm-2600 51l0 266c0,55 -45,100 -100,100l-800 0c-55,0 -100,-45 -100,-100l0 -317c31,11 65,17 100,17l100 0 0 200 600 0 0 -200 132 0 68 34zm2600 -334c0,55 -45,100 -100,100l-777 0 -378 189c-15,7 -30,11 -45,11l-900 0c-19,0 -38,-6 -53,-15l-370 -185 -877 0c-55,0 -100,-45 -100,-100 0,-267 1,-3200 0,-3200 0,-165 135,-300 300,-300l3000 0c165,0 300,135 300,300 0,1067 0,2133 0,3200zm-200 -1453c-106,95 -247,153 -400,153l-2400 0c-154,0 -294,-58 -400,-154l0 554 500 0c28,0 54,12 72,30l399 399c39,39 39,103 0,142 -20,19 -45,29 -71,29l-900 0 0 200 800 0c15,0 30,4 45,11l378 189 854 0 370 -185c15,-9 34,-15 53,-15l700 0 0 -200 -900 0c-26,0 -51,-10 -71,-29 -39,-39 -39,-103 0,-142l401 -399c18,-18 43,-30 70,-30l500 0 0 -553zm-2741 753l-459 0 0 200 659 0 -200 -200zm2741 0l-458 0 -201 200 659 0 0 -200zm-3800 -200l0 -3500c0,-55 45,-100 100,-100l4200 0c55,0 100,45 100,100l0 3500 -200 0 0 -3400 -4000 0 0 3400 -200 0zm3800 -1800l-3200 0 0 800c0,220 180,400 400,400l2400 0c220,0 400,-180 400,-400l0 -800z"/>
</svg>