<?xml version="1.0" encoding="UTF-8"?>
<!DOCTYPE svg PUBLIC "-//W3C//DTD SVG 1.1//EN" "http://www.w3.org/Graphics/SVG/1.1/DTD/svg11.dtd">
<svg xmlns="http://www.w3.org/2000/svg" xml:space="preserve" width="580px" height="580px" shape-rendering="geometricPrecision" text-rendering="geometricPrecision" image-rendering="optimizeQuality" fill-rule="nonzero" clip-rule="nonzero" viewBox="0 0 5800 5800" xmlns:xlink="http://www.w3.org/1999/xlink">
	<title>truck_trailer icon</title>
	<desc>truck_trailer icon from the IconExperience.com I-Collection. Copyright by INCORS GmbH (www.incors.com).</desc>
	<path id="curve0"  d="M4300 4300l200 0 0 -800 -4000 0 0 800 43 0c-23,63 -37,130 -41,200l-202 0 0 -3300c0,-55 45,-100 100,-100l4200 0c55,0 100,45 100,100l0 3100 700 0c55,0 100,45 100,100 0,55 -45,100 -100,100 -367,0 -733,0 -1100,0l0 600 -200 0 0 -600 -802 0c-4,-70 -18,-137 -41,-200l1043 0zm200 -3000l-4000 0 0 2000 4000 0 0 -2000zm-3250 2700c304,0 550,246 550,550 0,304 -246,550 -550,550 -304,0 -550,-246 -550,-550 0,-304 246,-550 550,-550zm0 200c-193,0 -350,157 -350,350 0,193 157,350 350,350 193,0 350,-157 350,-350 0,-193 -157,-350 -350,-350zm1300 -200c304,0 550,246 550,550 0,304 -246,550 -550,550 -304,0 -550,-246 -550,-550 0,-304 246,-550 550,-550zm0 200c-193,0 -350,157 -350,350 0,193 157,350 350,350 193,0 350,-157 350,-350 0,-193 -157,-350 -350,-350z"/>
</svg>