<?xml version="1.0" encoding="UTF-8"?>
<!DOCTYPE svg PUBLIC "-//W3C//DTD SVG 1.1//EN" "http://www.w3.org/Graphics/SVG/1.1/DTD/svg11.dtd">
<svg xmlns="http://www.w3.org/2000/svg" xml:space="preserve" width="580px" height="580px" shape-rendering="geometricPrecision" text-rendering="geometricPrecision" image-rendering="optimizeQuality" fill-rule="nonzero" clip-rule="nonzero" viewBox="0 0 5800 5800" xmlns:xlink="http://www.w3.org/1999/xlink">
	<title>tv icon</title>
	<desc>tv icon from the IconExperience.com I-Collection. Copyright by INCORS GmbH (www.incors.com).</desc>
		<path id="curve28"  d="M2110 1600c13,-64 38,-123 73,-176l-1054 -1053 142 -142 1053 1054c79,-53 174,-83 276,-83 137,0 262,55 352,145l1693 -1128 110 166 -1692 1128c12,29 21,58 27,89l2410 0 0 3700 -400 0 0 200 -800 0 0 -200 -2800 0 0 200 -800 0 0 -200 -400 0 0 -3700 1810 0zm2190 700l800 0 0 200 -800 0 0 -200zm0 400l800 0 0 200 -800 0 0 -200zm0 400l800 0 0 200 -800 0 0 -200zm400 600c110,0 200,90 200,200 0,110 -90,200 -200,200 -110,0 -200,-90 -200,-200 0,-110 90,-200 200,-200zm0 600c110,0 200,90 200,200 0,110 -90,200 -200,200 -110,0 -200,-90 -200,-200 0,-110 90,-200 200,-200zm600 -2500l-2417 0c11,-31 17,-65 17,-100 0,-166 -134,-300 -300,-300 -166,0 -300,134 -300,300 0,35 6,69 17,100l-1817 0 0 3300 400 0 0 200 400 0 0 -200 3200 0 0 200 400 0 0 -200 400 0 0 -3300zm-4000 200c733,0 1467,0 2200,0 330,0 600,270 600,600l0 1700c0,330 -270,600 -600,600l-2200 0c-330,0 -600,-270 -600,-600l0 -1700c0,-330 270,-600 600,-600zm2200 200l-2200 0c-220,0 -400,180 -400,400l0 1700c0,220 180,400 400,400l2200 0c220,0 400,-180 400,-400l0 -1700c0,-220 -180,-400 -400,-400z"/>
</svg>