<?xml version="1.0" encoding="UTF-8"?>
<!DOCTYPE svg PUBLIC "-//W3C//DTD SVG 1.1//EN" "http://www.w3.org/Graphics/SVG/1.1/DTD/svg11.dtd">
<svg xmlns="http://www.w3.org/2000/svg" xml:space="preserve" width="580px" height="580px" shape-rendering="geometricPrecision" text-rendering="geometricPrecision" image-rendering="optimizeQuality" fill-rule="nonzero" clip-rule="nonzero" viewBox="0 0 5800 5800" xmlns:xlink="http://www.w3.org/1999/xlink">
	<title>tv icon</title>
	<desc>tv icon from the IconExperience.com I-Collection. Copyright by INCORS GmbH (www.incors.com).</desc>
		<path id="curve28"  d="M4700 4300c-110,0 -200,90 -200,200 0,110 90,200 200,200 110,0 200,-90 200,-200 0,-110 -90,-200 -200,-200zm-3429 -4071l1053 1054c79,-53 174,-83 276,-83 137,0 262,55 352,145l1693 -1128 110 166 -1692 1128c12,29 21,58 27,89l2410 0 0 3700 -400 0 0 200c-267,0 -533,0 -800,0l0 -200 -2800 0 0 200 -800 0 0 -200 -400 0 0 -3700 1810 0c13,-64 38,-123 73,-176l-1054 -1053 142 -142zm3429 3471c-110,0 -200,90 -200,200 0,110 90,200 200,200 110,0 200,-90 200,-200 0,-110 -90,-200 -200,-200zm-400 -600l0 200 800 0 0 -200 -800 0zm0 -400l0 200 800 0 0 -200 -800 0zm0 -400l0 200 800 0 0 -200 -800 0zm-3000 -300c-330,0 -600,270 -600,600l0 1700c0,330 270,600 600,600l2200 0c330,0 600,-270 600,-600l0 -1700c0,-330 -270,-600 -600,-600l-2200 0zm2200 200c220,0 400,180 400,400l0 1700c0,220 -180,400 -400,400l-2200 0c-220,0 -400,-180 -400,-400l0 -1700c0,-220 180,-400 400,-400l2200 0z"/>
</svg>