<?xml version="1.0" encoding="UTF-8"?>
<!DOCTYPE svg PUBLIC "-//W3C//DTD SVG 1.1//EN" "http://www.w3.org/Graphics/SVG/1.1/DTD/svg11.dtd">
<svg xmlns="http://www.w3.org/2000/svg" xml:space="preserve" width="580px" height="580px" shape-rendering="geometricPrecision" text-rendering="geometricPrecision" image-rendering="optimizeQuality" fill-rule="nonzero" clip-rule="nonzero" viewBox="0 0 5800 5800" xmlns:xlink="http://www.w3.org/1999/xlink">
	<title>tweezers icon</title>
	<desc>tweezers icon from the IconExperience.com I-Collection. Copyright by INCORS GmbH (www.incors.com).</desc>
	<path id="curve0"  d="M4549 390c157,-157 415,-157 572,0 157,157 157,415 0,572 -1195,1150 -2397,2305 -3592,3455l-387 934c-54,132 -247,227 -381,171 -11,-4 -21,-9 -30,-15 -131,-83 -211,-235 -148,-387l391 -944c30,-74 68,-132 123,-189l3452 -3597zm-633 2009l-1550 1906 -270 975c-22,78 -87,144 -156,183 -68,38 -167,59 -239,19 -138,-68 -233,-207 -189,-364l154 -554 2250 -2165z"/>
</svg>