<?xml version="1.0" encoding="UTF-8"?>
<!DOCTYPE svg PUBLIC "-//W3C//DTD SVG 1.1//EN" "http://www.w3.org/Graphics/SVG/1.1/DTD/svg11.dtd">
<svg xmlns="http://www.w3.org/2000/svg" xml:space="preserve" width="580px" height="580px" shape-rendering="geometricPrecision" text-rendering="geometricPrecision" image-rendering="optimizeQuality" fill-rule="nonzero" clip-rule="nonzero" viewBox="0 0 5800 5800" xmlns:xlink="http://www.w3.org/1999/xlink">
	<title>tweezers icon</title>
	<desc>tweezers icon from the IconExperience.com I-Collection. Copyright by INCORS GmbH (www.incors.com).</desc>
	<path id="curve0"  d="M4950 1127l-2585 3178 -270 975c-22,78 -86,144 -156,183 -64,35 -138,51 -202,33 -12,-3 -26,-8 -37,-14 -68,-34 -126,-85 -162,-147 -36,-64 -48,-138 -27,-217l155 -559c6,-3 12,-8 17,-13l264 -254 -243 879c-7,24 -3,46 8,65 15,27 42,50 75,66 17,8 41,-5 55,-13 22,-12 54,-38 61,-62l275 -994 19 -37 1574 -1935 -2242 2156 -387 934c-5,14 -12,26 -19,37 -35,55 -94,100 -157,126 -68,27 -144,34 -205,8 -11,-4 -21,-9 -30,-15 -66,-42 -119,-101 -148,-170 -28,-67 -32,-142 0,-217l391 -944c30,-73 68,-132 123,-189l3451 -3596c158,-158 416,-158 573,-1 157,157 157,415 0,572 -2,2 -5,4 -7,6l-164 159zm-260 -596l-3450 3594c-35,38 -62,79 -82,126l-391 944c-9,23 -8,46 0,66 12,29 38,56 71,77 11,4 31,-1 53,-9 21,-9 58,-31 67,-54l394 -950c5,-14 13,-27 24,-38l3603 -3465c40,-41 60,-93 60,-146 0,-52 -20,-105 -60,-145 -79,-79 -210,-79 -289,0z"/>
</svg>