<?xml version="1.0" encoding="UTF-8"?>
<!DOCTYPE svg PUBLIC "-//W3C//DTD SVG 1.1//EN" "http://www.w3.org/Graphics/SVG/1.1/DTD/svg11.dtd">
<svg xmlns="http://www.w3.org/2000/svg" xml:space="preserve" width="580px" height="580px" shape-rendering="geometricPrecision" text-rendering="geometricPrecision" image-rendering="optimizeQuality" fill-rule="nonzero" clip-rule="nonzero" viewBox="0 0 5800 5800" xmlns:xlink="http://www.w3.org/1999/xlink">
	<title>typewriter icon</title>
	<desc>typewriter icon from the IconExperience.com I-Collection. Copyright by INCORS GmbH (www.incors.com).</desc>
	<path id="curve0"  d="M2004 2700c3,-9 7,-19 13,-27 197,-295 529,-473 883,-473 354,0 687,178 883,473 6,8 10,18 13,27l-243 0c-163,-191 -401,-300 -653,-300 -252,0 -490,109 -654,300l-242 0zm-1653 300c-13,0 -24,0 -37,-2 -62,-10 -109,-64 -109,-128 0,-7 2,-15 2,-21l84 -502c11,-63 38,-118 84,-163l525 -525 0 515 -309 297 -83 402c-16,74 -81,127 -157,127zm749 -1600l200 0 0 100 200 0 0 200 -200 0 0 200 200 0 0 200 -200 0 0 100 -200 0c0,-267 0,-533 0,-800zm3600 0c0,267 0,533 0,800l-200 0 0 -100 -200 0 0 -200 200 0 0 -200 -200 0 0 -200 200 0 0 -100 200 0zm-2700 3499c-110,0 -200,-89 -200,-199 0,-110 90,-200 200,-200l1800 0c111,0 200,90 200,200 0,110 -90,200 -200,200 0,-1 -1800,-2 -1800,-1zm-350 -1497c110,0 200,90 200,200 0,110 -90,200 -200,200 -110,0 -200,-90 -200,-200 0,-110 90,-200 200,-200zm-250 -502c110,0 200,90 200,200 0,110 -90,200 -200,200 -110,0 -200,-90 -200,-200 0,-110 90,-200 200,-200zm500 2c55,0 105,22 141,59 36,36 59,86 59,141 0,55 -23,105 -59,141 -2,3 -5,5 -8,8 -35,32 -82,51 -133,51 -55,0 -105,-22 -142,-59 -36,-36 -58,-86 -58,-141 0,-55 22,-105 58,-141 37,-37 87,-59 142,-59zm500 0c110,0 200,90 200,200 0,110 -90,200 -200,200 -110,0 -200,-90 -200,-200 0,-110 90,-200 200,-200zm700 196c0,110 -90,200 -200,200 -110,0 -200,-90 -200,-200 0,-113 88,-198 200,-198 113,0 200,85 200,198zm500 0c0,110 -90,200 -200,200 -110,0 -200,-90 -200,-200 0,-113 88,-198 200,-198 112,0 200,85 200,198zm500 0c0,110 -90,200 -200,200 -110,0 -200,-90 -200,-200 0,-113 88,-198 200,-198 112,0 200,85 200,198zm300 -200c110,0 200,90 200,200 0,110 -90,200 -200,200 -110,0 -200,-90 -200,-200 0,-110 90,-200 200,-200zm-2250 504c110,0 200,90 200,200 0,110 -90,200 -200,200 -111,0 -200,-90 -200,-200 0,-110 90,-200 200,-200zm500 0c110,0 200,90 200,200 0,110 -90,200 -200,200 -110,0 -200,-90 -200,-200 0,-110 90,-200 200,-200zm500 -4c110,0 200,90 200,200 0,110 -90,200 -200,200 -110,0 -200,-90 -200,-200 0,-110 90,-200 200,-200zm500 0c110,0 200,90 200,200 0,110 -89,200 -200,200 -110,0 -200,-90 -200,-200 0,-110 90,-200 200,-200zm500 0c111,0 200,90 200,200 0,110 -89,200 -200,200 -110,0 -200,-90 -200,-200 0,-110 90,-200 200,-200zm-2250 504c110,0 200,90 200,200 0,110 -90,200 -200,200 -55,0 -105,-22 -142,-59 -36,-36 -58,-86 -58,-141 0,-110 89,-200 200,-200zm500 0c110,0 200,90 200,200 0,110 -90,200 -200,200 -110,0 -200,-90 -200,-200 0,-110 90,-200 200,-200zm500 -4c110,0 200,90 200,200 0,110 -90,200 -200,200 -110,0 -200,-90 -200,-200 0,-110 90,-200 200,-200zm500 0c110,0 200,90 200,200 0,110 -90,200 -200,200 -110,0 -200,-90 -200,-200 0,-110 90,-200 200,-200zm500 0c110,0 200,90 200,200 0,110 -90,200 -200,200 -110,0 -200,-90 -200,-200 0,-110 90,-200 200,-200zm-2498 -1598l98 0 0 200 -98 0c-137,0 -251,86 -289,217l-426 1491c-18,66 -27,131 -27,196 0,309 206,584 504,669 62,17 128,27 197,27l3078 0c69,0 135,-10 197,-27 298,-85 504,-360 504,-669 0,-65 -9,-131 -27,-196l-426 -1491c-38,-131 -152,-217 -289,-217l-98 0 0 -200 98 0c226,0 419,146 481,363l426 1490c24,84 35,169 35,251 0,398 -266,752 -649,861 -80,23 -164,35 -252,35l-3078 0c-88,0 -172,-12 -252,-35 -383,-109 -649,-463 -649,-861 0,-82 11,-167 35,-251l426 -1490c62,-217 255,-363 481,-363zm298 200l0 -1800 2400 0 0 1800 -200 0 0 -1600 -2000 0 0 1600 -200 0z"/>
</svg>