<?xml version="1.0" encoding="UTF-8"?>
<!DOCTYPE svg PUBLIC "-//W3C//DTD SVG 1.1//EN" "http://www.w3.org/Graphics/SVG/1.1/DTD/svg11.dtd">
<svg xmlns="http://www.w3.org/2000/svg" xml:space="preserve" width="580px" height="580px" shape-rendering="geometricPrecision" text-rendering="geometricPrecision" image-rendering="optimizeQuality" fill-rule="nonzero" clip-rule="nonzero" viewBox="0 0 5800 5800" xmlns:xlink="http://www.w3.org/1999/xlink">
	<title>typewriter icon</title>
	<desc>typewriter icon from the IconExperience.com I-Collection. Copyright by INCORS GmbH (www.incors.com).</desc>
	<path id="curve0"  d="M1402 2300l98 0 0 400c168,0 336,0 504,0 4,-13 10,-24 18,-34 197,-291 527,-466 878,-466 354,0 687,178 883,473 6,8 10,18 13,27 168,0 336,0 504,0l0 -400 98 0c226,0 419,146 481,363l426 1490c24,84 35,169 35,251 0,398 -266,752 -649,861 -80,23 -164,35 -252,35l-3078 0c-88,0 -172,-12 -252,-35 -383,-109 -649,-463 -649,-861 0,-82 11,-167 35,-251l426 -1490c62,-217 255,-363 481,-363zm2998 598c-110,0 -200,90 -200,200 0,110 90,200 200,200 110,0 200,-90 200,-200 0,-110 -90,-200 -200,-200zm-500 0c-110,0 -200,90 -200,200 0,110 90,200 200,200 110,0 200,-90 200,-200 0,-110 -90,-200 -200,-200zm-500 0c-110,0 -200,90 -200,200 0,110 90,200 200,200 110,0 200,-90 200,-200 0,-110 -90,-200 -200,-200zm-500 0c-110,0 -200,90 -200,200 0,110 90,200 200,200 110,0 200,-90 200,-200 0,-110 -90,-200 -200,-200zm-500 4c-110,0 -200,90 -200,200 0,110 90,200 200,200 110,0 200,-90 200,-200 0,-110 -90,-200 -200,-200zm-500 0c-111,0 -200,90 -200,200 0,110 89,200 200,200 110,0 200,-90 200,-200 0,-110 -90,-200 -200,-200zm-500 -2c-110,0 -200,90 -200,200 0,110 90,200 200,200 110,0 200,-90 200,-200 0,-110 -90,-200 -200,-200zm-1193 -51l84 -502c11,-63 38,-118 84,-163l525 -525 0 515 -309 297 -83 402c-16,74 -81,127 -157,127 -13,0 -24,0 -37,-2 -62,-10 -109,-64 -109,-128 0,-6 1,-13 2,-21zm893 -1449l200 0 0 100 200 0 0 600 -200 0 0 100 -200 0c0,-267 0,-533 0,-800zm2806 1100c-238,-314 -612,-500 -1006,-500 -394,0 -767,186 -1005,500l-195 0 0 -1800 2400 0 0 1800 -194 0zm794 -1100c0,267 0,533 0,800l-200 0 0 -100 -200 0 0 -600 200 0 0 -100 200 0zm-800 2498c-110,0 -200,90 -200,200 0,110 90,200 200,200 110,0 200,-90 200,-200 0,-110 -90,-200 -200,-200zm-500 0c-110,0 -200,90 -200,200 0,110 90,200 200,200 110,0 200,-90 200,-200 0,-110 -90,-200 -200,-200zm-500 0c-110,0 -200,90 -200,200 0,110 90,200 200,200 110,0 200,-90 200,-200 0,-110 -90,-200 -200,-200zm-500 4c-110,0 -200,90 -200,200 0,110 90,200 200,200 110,0 200,-90 200,-200 0,-110 -90,-200 -200,-200zm-500 0c-111,0 -200,90 -200,200 0,110 89,200 200,200 110,0 200,-90 200,-200 0,-110 -90,-200 -200,-200zm2250 -504c-110,0 -200,90 -200,200 0,110 90,200 200,200 111,0 200,-90 200,-200 0,-110 -89,-200 -200,-200zm-500 0c-110,0 -200,90 -200,200 0,110 90,200 200,200 111,0 200,-90 200,-200 0,-110 -90,-200 -200,-200zm-500 0c-55,0 -105,22 -141,59 -37,36 -59,86 -59,141 0,55 22,105 59,141 36,37 86,59 141,59 55,0 105,-22 141,-59 37,-36 59,-86 59,-141 0,-55 -22,-105 -59,-141 -36,-37 -86,-59 -141,-59zm-500 4c-110,0 -200,90 -200,200 0,110 90,200 200,200 110,0 200,-90 200,-200 0,-110 -90,-200 -200,-200zm-500 0c-110,0 -200,90 -200,200 0,110 89,200 200,200 110,0 200,-90 200,-200 0,-110 -90,-200 -200,-200zm-500 0c-110,0 -200,90 -200,200 0,110 90,200 200,200 110,0 200,-90 200,-200 0,-110 -90,-200 -200,-200zm2150 1098l-1800 0c-110,0 -200,90 -200,200 0,110 90,199 200,199 600,-2 1200,2 1800,1 110,0 200,-90 200,-200 0,-110 -89,-200 -200,-200z"/>
</svg>