<?xml version="1.0" encoding="UTF-8"?>
<!DOCTYPE svg PUBLIC "-//W3C//DTD SVG 1.1//EN" "http://www.w3.org/Graphics/SVG/1.1/DTD/svg11.dtd">
<svg xmlns="http://www.w3.org/2000/svg" xml:space="preserve" width="580px" height="580px" shape-rendering="geometricPrecision" text-rendering="geometricPrecision" image-rendering="optimizeQuality" fill-rule="nonzero" clip-rule="nonzero" viewBox="0 0 5800 5800" xmlns:xlink="http://www.w3.org/1999/xlink">
	<title>ufo icon</title>
	<desc>ufo icon from the IconExperience.com I-Collection. Copyright by INCORS GmbH (www.incors.com).</desc>
		<path id="curve28"  d="M1307 2700c0,-847 800,-1400 1593,-1400 793,0 1593,553 1593,1400l-200 0c0,-734 -712,-1200 -1393,-1200 -681,0 -1393,466 -1393,1200l-200 0zm-186 -207c-10,3 -21,6 -31,9 -424,114 -686,256 -686,398 0,142 262,284 686,398 462,125 1102,202 1810,202 708,0 1348,-77 1810,-202 424,-114 686,-256 686,-398 0,-142 -262,-284 -686,-398 -10,-3 -21,-6 -31,-9 -11,-74 -28,-147 -49,-218 45,11 89,22 132,34 515,139 834,347 834,591 0,244 -319,452 -834,591 -478,129 -1137,209 -1862,209 -725,0 -1384,-80 -1862,-209 -515,-139 -834,-347 -834,-591 0,-244 319,-452 834,-591 43,-12 87,-23 132,-34 -21,71 -38,144 -49,218zm1779 1607c357,0 680,-93 922,-244 36,-4 71,-8 106,-12 90,-10 178,-21 264,-34 -321,342 -835,490 -1292,490 -457,0 -971,-148 -1292,-490 86,13 174,24 264,34 35,4 70,8 106,12 242,151 565,244 922,244zm0 -2100c276,0 500,224 500,500 0,276 -224,500 -500,500 -276,0 -500,-224 -500,-500 0,-276 224,-500 500,-500zm0 200c-166,0 -300,134 -300,300 0,166 134,300 300,300 166,0 300,-134 300,-300 0,-166 -134,-300 -300,-300z"/>
</svg>