<?xml version="1.0" encoding="UTF-8"?>
<!DOCTYPE svg PUBLIC "-//W3C//DTD SVG 1.1//EN" "http://www.w3.org/Graphics/SVG/1.1/DTD/svg11.dtd">
<svg xmlns="http://www.w3.org/2000/svg" xml:space="preserve" width="580px" height="580px" shape-rendering="geometricPrecision" text-rendering="geometricPrecision" image-rendering="optimizeQuality" fill-rule="nonzero" clip-rule="nonzero" viewBox="0 0 5800 5800" xmlns:xlink="http://www.w3.org/1999/xlink">
	<title>ufo icon</title>
	<desc>ufo icon from the IconExperience.com I-Collection. Copyright by INCORS GmbH (www.incors.com).</desc>
		<path id="curve28"  d="M1307 2800l0 -100c0,-847 800,-1400 1593,-1400 793,0 1593,553 1593,1400l0 100 207 0c-13,-189 -12,-336 -70,-525 45,11 89,22 132,34 515,139 834,347 834,591 0,244 -319,452 -834,591 -478,129 -1137,209 -1862,209 -725,0 -1384,-80 -1862,-209 -515,-139 -834,-347 -834,-591 0,-244 319,-452 834,-591 43,-12 87,-23 132,-34 -58,189 -57,336 -70,525l207 0zm1593 -800c-276,0 -500,224 -500,500 0,276 224,500 500,500 276,0 500,-224 500,-500 0,-276 -224,-500 -500,-500zm0 2300c-457,0 -971,-148 -1292,-490 426,63 862,90 1292,90 430,0 866,-27 1292,-90 -321,342 -835,490 -1292,490z"/>
</svg>