<?xml version="1.0" encoding="utf-8"?>
<!-- Generator: Adobe Illustrator 19.2.1, SVG Export Plug-In . SVG Version: 6.00 Build 0)  -->
<svg version="1.1" id="Ebene_1" xmlns="http://www.w3.org/2000/svg" xmlns:xlink="http://www.w3.org/1999/xlink" x="0px" y="0px"
	 width="580px" height="580px" viewBox="0 0 580 580" style="enable-background:new 0 0 580 580;" xml:space="preserve">
<g>
	<path d="M259.2,350.6c0,12.6-2.4,24.1-7.1,34.5c-4.8,10.4-11.5,19.2-20.1,26.6c-8.7,7.4-19,13.1-31.2,17.1s-25.5,6.1-40,6.1
		c-26.7,0-47.9-5.1-63.7-15.2v-34.4c18.9,14.8,40.5,22.3,64.8,22.3c9.8,0,18.6-1.2,26.5-3.7c7.9-2.5,14.6-6.1,20.3-10.7
		s10-10.4,13.1-17c3.1-6.6,4.6-14.1,4.6-22.5c0-36.6-26-54.9-78.1-54.9h-23.2v-27.1h22.1c46.1,0,69.1-17.2,69.1-51.6
		c0-31.8-17.6-47.7-52.7-47.7c-19.8,0-38.3,6.6-55.7,19.9v-31.1c17.8-10.7,39.1-16,63.7-16c11.7,0,22.3,1.6,31.8,4.9
		c9.5,3.3,17.6,7.8,24.4,13.7c6.8,5.9,12,12.9,15.7,21.1s5.6,17.3,5.6,27.1c0,36.9-18.6,60.5-55.9,71.1v0.8c9.5,1,18.3,3.4,26.4,6.9
		c8.1,3.6,15,8.2,20.9,14c5.9,5.7,10.4,12.5,13.8,20.2C257.6,332.7,259.2,341.3,259.2,350.6z"/>
	<path d="M439.5,223.3c0-8.6-1.3-16.1-4-22.5c-2.7-6.4-6.3-11.7-10.9-15.9c-4.6-4.2-10.1-7.4-16.3-9.5c-6.3-2.1-13-3.1-20.3-3.1
		c-6.3,0-12.4,0.8-18.4,2.5c-6,1.7-11.8,4-17.5,7c-5.7,3-11.1,6.6-16.4,10.7c-5.3,4.2-10.2,8.8-14.7,13.9v-34.4
		c9-8.7,19-15.4,30.2-20c11.1-4.6,24.7-6.9,40.7-6.9c11.5,0,22.1,1.7,31.8,5s18.2,8.2,25.4,14.6c7.2,6.4,12.8,14.3,16.9,23.6
		s6.2,20.1,6.2,32.2c0,11.1-1.3,21.1-3.8,30.1s-6.4,17.5-11.5,25.4c-5.1,7.9-11.6,15.6-19.4,22.9c-7.8,7.3-17,14.7-27.5,22.3
		c-13.2,9.4-24,17.4-32.5,24c-8.5,6.6-15.3,12.9-20.3,18.7c-5,5.8-8.5,11.6-10.5,17.4c-2,5.8-3,12.5-3,20h139.5v28.7H310v-13.9
		c0-12,1.3-22.5,3.9-31.6c2.6-9.1,6.9-17.8,12.9-26c6-8.2,13.8-16.4,23.5-24.6c9.7-8.2,21.6-17.4,35.6-27.7
		c10.2-7.3,18.7-14.3,25.5-20.9s12.3-13.3,16.5-19.9c4.2-6.6,7.1-13.4,8.9-20.2S439.5,231,439.5,223.3z"/>
</g>
</svg>
