<?xml version="1.0" encoding="UTF-8"?>
<!DOCTYPE svg PUBLIC "-//W3C//DTD SVG 1.1//EN" "http://www.w3.org/Graphics/SVG/1.1/DTD/svg11.dtd">
<svg xmlns="http://www.w3.org/2000/svg" xml:space="preserve" width="580px" height="580px" shape-rendering="geometricPrecision" text-rendering="geometricPrecision" image-rendering="optimizeQuality" fill-rule="nonzero" clip-rule="nonzero" viewBox="0 0 5800 5800" xmlns:xlink="http://www.w3.org/1999/xlink">
	<title>umbrella_closed icon</title>
	<desc>umbrella_closed icon from the IconExperience.com I-Collection. Copyright by INCORS GmbH (www.incors.com).</desc>
		<path id="curve6"  d="M3300 5400c-138,0 -263,-56 -353,-147 -91,-90 -147,-215 -147,-353l0 -300 200 0 0 300c0,83 34,158 88,212 118,117 306,117 424,0 54,-54 88,-129 88,-212l0 -100 200 0 0 100c0,138 -56,263 -147,353 -90,91 -215,147 -353,147zm-672 -1000l-23 -69c-205,-616 -205,-1625 -205,-2331 0,-274 41,-529 95,-729 78,-286 207,-471 305,-471l0 -300c0,-55 45,-100 100,-100 55,0 100,45 100,100l0 300c98,0 227,185 305,471 54,200 95,455 95,729 0,350 0,774 -25,1193 -26,420 -77,828 -180,1138l-23 69c-181,0 -363,0 -544,0z"/>
</svg>