<?xml version="1.0" encoding="UTF-8"?>
<!DOCTYPE svg PUBLIC "-//W3C//DTD SVG 1.1//EN" "http://www.w3.org/Graphics/SVG/1.1/DTD/svg11.dtd">
<svg xmlns="http://www.w3.org/2000/svg" xml:space="preserve" width="580px" height="580px" shape-rendering="geometricPrecision" text-rendering="geometricPrecision" image-rendering="optimizeQuality" fill-rule="nonzero" clip-rule="nonzero" viewBox="0 0 5800 5800" xmlns:xlink="http://www.w3.org/1999/xlink">
	<title>umbrella_open icon</title>
	<desc>umbrella_open icon from the IconExperience.com I-Collection. Copyright by INCORS GmbH (www.incors.com).</desc>
		<path id="curve6" d="M733 2496c34,-12 68,-22 103,-31 112,-29 227,-42 336,-42 143,0 310,24 462,83 99,38 191,90 268,159 103,-72 230,-125 363,-162 215,-60 449,-80 625,-80 176,0 410,20 625,80 134,37 260,90 363,162 77,-69 169,-121 268,-159 152,-59 319,-83 463,-83 108,0 223,13 336,42 34,9 68,19 102,31 -237,-1050 -1120,-1496 -2147,-1496 -1026,0 -1926,433 -2167,1496zm2067 -1996c0,-55 45,-100 100,-100 55,0 100,45 100,100l0 301c1177,33 2104,634 2279,1855 0,0 -11,63 -14,68 -30,46 -91,60 -138,31 -70,-44 -149,-76 -232,-97 -94,-24 -192,-35 -286,-35 -124,0 -266,20 -392,69 -98,37 -187,92 -250,168 -35,47 -104,54 -148,13 -87,-81 -216,-139 -357,-178 -194,-54 -409,-72 -572,-72 -163,0 -378,18 -572,72 -149,42 -242,85 -362,182 -43,35 -105,29 -140,-14 -63,-77 -153,-133 -253,-171 -126,-49 -268,-69 -391,-69 -95,0 -193,11 -286,35 -82,21 -160,52 -229,95 -20,13 -45,20 -71,16 -55,-7 -93,-58 -85,-113 177,-1230 1115,-1823 2299,-1855l0 -301zm200 2300l0 1600 -200 0 0 -1600 200 0zm0 1800l0 300c0,165 135,300 300,300 165,0 300,-135 300,-300l0 -100 200 0 0 100c0,276 -224,500 -500,500 -276,0 -500,-224 -500,-500l0 -300 200 0z"/>
</svg>