<?xml version="1.0" encoding="UTF-8"?>
<!DOCTYPE svg PUBLIC "-//W3C//DTD SVG 1.1//EN" "http://www.w3.org/Graphics/SVG/1.1/DTD/svg11.dtd">
<svg xmlns="http://www.w3.org/2000/svg" xml:space="preserve" width="580px" height="580px" shape-rendering="geometricPrecision" text-rendering="geometricPrecision" image-rendering="optimizeQuality" fill-rule="nonzero" clip-rule="nonzero" viewBox="0 0 5800 5800" xmlns:xlink="http://www.w3.org/1999/xlink">
	<title>umbrella_open icon</title>
	<desc>umbrella_open icon from the IconExperience.com I-Collection. Copyright by INCORS GmbH (www.incors.com).</desc>
		<path id="curve6"  d="M3000 4600l0 300c0,83 34,158 88,212 118,117 307,117 424,0 54,-54 88,-129 88,-212l0 -100 200 0 0 100c0,138 -56,263 -147,353 -195,196 -511,196 -706,0 -91,-90 -147,-215 -147,-353l0 -300 200 0zm2279 -1944c3,23 -1,47 -14,68 -30,46 -91,60 -138,31 -150,-94 -343,-132 -518,-132 -216,0 -498,63 -642,237 -35,47 -104,54 -148,13 -210,-195 -654,-250 -929,-250 -279,0 -719,55 -931,252 -46,37 -108,31 -143,-12 -144,-176 -427,-240 -644,-240 -175,0 -366,37 -515,130 -20,13 -45,20 -71,16 -55,-7 -93,-58 -85,-113 177,-1230 1115,-1823 2299,-1855l0 -301c0,-55 45,-100 100,-100 55,0 100,45 100,100l0 301c1177,33 2104,634 2279,1855zm-2279 144l0 1600 -200 0 0 -1600 200 0z"/>
</svg>