<?xml version="1.0" encoding="UTF-8"?>
<!DOCTYPE svg PUBLIC "-//W3C//DTD SVG 1.1//EN" "http://www.w3.org/Graphics/SVG/1.1/DTD/svg11.dtd">
<svg xmlns="http://www.w3.org/2000/svg" xml:space="preserve" width="580px" height="580px" shape-rendering="geometricPrecision" text-rendering="geometricPrecision" image-rendering="optimizeQuality" fill-rule="nonzero" clip-rule="nonzero" viewBox="0 0 5800 5800" xmlns:xlink="http://www.w3.org/1999/xlink">
	<title>umbrella_closed icon</title>
	<desc>umbrella_closed icon from the IconExperience.com I-Collection. Copyright by INCORS GmbH (www.incors.com).</desc>
		<path id="curve6" d="M2773 4200l254 0c83,-282 126,-644 148,-1018 25,-406 25,-832 25,-1182 0,-257 -37,-493 -87,-676 -54,-197 -99,-324 -113,-324l-200 0c-13,0 -59,127 -113,324 -50,183 -87,419 -87,676 0,667 0,1610 173,2200zm27 -3700c0,-55 45,-100 100,-100 55,0 100,45 100,100l0 300c98,0 227,185 305,471 54,200 95,455 95,729 0,350 0,774 -25,1193 -26,420 -77,828 -180,1138l-23 69c-181,0 -363,0 -544,0l-23 -69c-205,-616 -205,-1625 -205,-2331 0,-274 41,-529 95,-729 78,-286 207,-471 305,-471l0 -300zm200 4100l0 300c0,165 135,300 300,300 165,0 300,-135 300,-300l0 -100 200 0 0 100c0,276 -224,500 -500,500 -275,0 -500,-225 -500,-500l0 -300 200 0z"/>
</svg>