<?xml version="1.0" encoding="UTF-8"?>
<!DOCTYPE svg PUBLIC "-//W3C//DTD SVG 1.1//EN" "http://www.w3.org/Graphics/SVG/1.1/DTD/svg11.dtd">
<svg xmlns="http://www.w3.org/2000/svg" xml:space="preserve" width="580px" height="580px" shape-rendering="geometricPrecision" text-rendering="geometricPrecision" image-rendering="optimizeQuality" fill-rule="nonzero" clip-rule="nonzero" viewBox="0 0 5800 5800" xmlns:xlink="http://www.w3.org/1999/xlink">
	<title>uninstall icon</title>
	<desc>uninstall icon from the IconExperience.com I-Collection. Copyright by INCORS GmbH (www.incors.com).</desc>
		<path id="curve28" d="M1271 1071l-630 629 1659 0 0 200 -1659 0 630 629 -142 142 -870 -871 870 -871 142 142zm-571 -272l0 -499 4400 0 0 3000 -2100 0 0 400 900 0 0 200 -2000 0 0 -200 900 0 0 -400 -2100 0 0 -499 200 199 0 100 4000 0 0 -2600 -4000 0 0 100 -200 199zm500 4101l500 0 0 200 -500 0 0 -200zm2900 0l500 0 0 200 -500 0 0 -200zm-2700 -400l400 0 0 200 -400 0 0 -200zm600 0l200 0 0 200 -200 0 0 -200zm400 0l200 0 0 200 -200 0 0 -200zm400 0l200 0 0 200 -200 0 0 -200zm400 0l200 0 0 200 -200 0 0 -200zm400 0l200 0 0 200 -200 0 0 -200zm400 0l400 0 0 200 -400 0 0 -200zm-2100 400l2000 0 0 200 -2000 0 0 -200zm3226 400l-554 -950c0,0 -32,-35 -36,-38 -14,-8 -32,-12 -51,-12l-3170 0c-38,0 -67,16 -87,49l-554 951 4452 0zm0 200l-4452 0c-36,0 -70,-9 -100,-27 -61,-35 -100,-103 -100,-173 0,-36 9,-70 27,-101l555 -950c27,-47 65,-84 109,-109 45,-26 96,-40 150,-40l3170 0c108,0 205,56 259,149l555 950c18,31 27,65 27,101 0,70 -39,138 -100,173 -30,18 -64,27 -100,27z"/>
</svg>