<?xml version="1.0" encoding="utf-8"?>
<!-- Generator: Adobe Illustrator 19.2.1, SVG Export Plug-In . SVG Version: 6.00 Build 0)  -->
<svg version="1.1" id="unique_x5F_field_x5F_gi" xmlns="http://www.w3.org/2000/svg" xmlns:xlink="http://www.w3.org/1999/xlink"
	 x="0px" y="0px" width="580px" height="580px" viewBox="0 0 580 580" style="enable-background:new 0 0 580 580;"
	 xml:space="preserve">
<g>
	<path d="M310,400.7c0-27.6-22.4-50-50-50s-50,22.4-50,50c0,16.3-2,32.3-5.7,47.9c-4.6,20.2-11.9,39.6-20.6,58.3
		c-2.3,5-0.2,11,4.8,13.3s10.9,0.2,13.2-4.8c9.4-20,17.1-40.8,22.1-62.3c4-17.2,6.2-34.6,6.2-52.4c0-16.6,13.4-30,30-30
		s30,13.4,30,30c0,21.8-2.6,43.1-7.3,63.9c-5.5,24.4-13.8,47.8-24,70.5c-2.3,5.1-0.1,11,5,13.2c5,2.3,10.9,0.1,13.2-4.9
		c10.7-23.9,19.5-48.9,25.3-74.5C307.2,446.6,310,423.8,310,400.7z"/>
	<path d="M260,310.7c-49.7,0-90,40.3-90,90c0,28.2-7.7,55-18.7,80.8c-2.2,5,0.2,10.9,5.3,13c5,2.2,10.9-0.2,13.1-5.2
		c12.1-28.3,20.3-57.6,20.3-88.6c0-38.6,31.4-70,70-70s70,31.4,70,70c0,23.3-2.6,46.3-7.4,68.7c-4.8,22.5-11.8,44.6-20.6,66.2
		c-2.1,5.1,0.4,11,5.5,13c5.1,2.1,10.9-0.4,13-5.5c9.2-22.6,16.6-45.8,21.6-69.6c5.1-23.8,7.9-48.1,7.9-72.8
		C350,351,309.7,310.7,260,310.7z"/>
	<path d="M260,270.7c-71.8,0-130,58.2-130,130c0,16-3.3,31.7-8.4,46.8c-1.7,5.2,1.1,10.8,6.3,12.6c5.2,1.7,10.9-1.1,12.6-6.3
		c5.7-17.1,9.5-35.1,9.5-53.1c0-60.7,49.3-110,110-110s110,49.3,110,110c0,21.1-1.9,41.8-5.4,62.2c-3.6,20.5-8.8,40.7-15.4,60.4
		c-1.7,5.2,1.1,10.9,6.3,12.6c5.2,1.8,10.9-1,12.6-6.3c7-20.8,12.5-41.9,16.2-63.3c3.7-21.6,5.7-43.5,5.7-65.6
		C390,328.9,331.8,270.7,260,270.7z"/>
	<path d="M260,230.7c-90.2,0-165,70.8-169.7,160.9c-0.3,5.5,3.9,10.2,9.4,10.5c5.5,0.3,10.2-3.9,10.5-9.4
		c4.2-79.6,70.2-142,149.8-142c82.8,0,150,67.2,150,150c0,15.5-0.9,30.7-2.6,45.8c-1.8,15.6-4.5,30.9-8,46.1
		c-1.2,5.4,2.1,10.7,7.5,12c5.4,1.2,10.7-2.2,11.9-7.5c3.7-16,6.5-32.1,8.4-48.4c1.8-15.9,2.8-31.9,2.8-48
		C430,306.9,353.8,230.7,260,230.7z"/>
	<path d="M260,190.7c-40.2,0-77.9,11.4-109.9,31.1c-33,20.3-60,49.6-77.6,84.4c-2.5,4.9-0.5,10.9,4.4,13.4
		c4.9,2.5,10.9,0.5,13.4-4.4c15.9-31.5,40.4-58,70.3-76.5c28.9-17.7,62.9-28,99.4-28c104.9,0,190,85.1,190,190
		c0,11.5-0.4,22.8-1.3,34.2c-0.5,5.5,3.6,10.3,9.1,10.8c5.5,0.4,10.3-3.7,10.8-9.2c0.9-11.9,1.4-23.9,1.4-35.8
		C470,284.8,375.9,190.7,260,190.7z"/>
	<path d="M260,150.7c-70.5,0-137.2,29.5-184.7,81.6c-3.7,4.1-3.4,10.4,0.7,14.1c4.1,3.7,10.4,3.4,14.1-0.7
		c43.7-47.9,105-75,169.9-75c106.4,0,199.2,73.1,223.8,176.7c1.2,5.4,6.6,8.7,12,7.4c5.4-1.2,8.7-6.6,7.4-12
		C476.5,230.4,375.5,150.7,260,150.7z"/>
	<path d="M507.5,249.6C454.6,163.3,361.2,110.7,260,110.7c-59.7,0-117.4,18.2-166.3,52.5c-4.5,3.2-5.6,9.4-2.4,13.9
		c3.1,4.5,9.4,5.6,13.9,2.4c45.5-31.9,99.3-48.8,154.8-48.8c94.2,0,181.2,48.9,230.4,129.3c2.9,4.7,9.1,6.2,13.8,3.3
		C508.9,260.4,510.3,254.3,507.5,249.6z"/>
	<path d="M138,115.7c38.7-16.6,79.9-25,122-25c79.3,0,154.6,29.9,212.3,84.2c4,3.8,10.3,3.6,14.1-0.4c3.8-4,3.6-10.4-0.4-14.1
		c-61.3-57.7-141.8-89.7-226-89.7c-44.5,0-88.8,9-129.8,26.6c-5,2.1-7.4,8-5.2,13.1C127.1,115.4,133,117.8,138,115.7z"/>
	<path d="M201.7,55.5c19.3-3.2,38.8-4.8,58.3-4.8c55.4,0,109.5,12.8,158.9,38.1c4.9,2.5,10.9,0.5,13.4-4.4
		c2.5-4.9,0.5-10.9-4.4-13.4c-52-26.5-109.5-40.3-167.9-40.3c-20.6,0-41.2,1.7-61.6,5.2c-5.4,0.9-9.1,6-8.2,11.4
		C191.1,52.8,196.3,56.4,201.7,55.5z"/>
	<path d="M270,400.7c0-5.5-4.5-10-10-10s-10,4.5-10,10c0,18.9-2.3,38.5-7.2,59c-4.9,20.6-12.6,42.3-23.5,65.3
		c-2.3,5-0.2,11,4.8,13.3c5,2.4,10.9,0.2,13.3-4.7c11.4-24.2,19.5-47.2,24.8-69.3C267.6,442,270,420.9,270,400.7z"/>
	<polygon points="70,461 50,461 50,521 110,521 110,501 70,501 	"/>
	<polygon points="510,501 470,501 470,521 530,521 530,461 510,461 	"/>
	<polygon points="470,41 470,61 510,61 510,101 530,101 530,41 	"/>
	<polygon points="70,61 110,61 110,41 50,41 50,101 70,101 	"/>
</g>
</svg>
