<?xml version="1.0" encoding="utf-8"?>
<!-- Generator: Adobe Illustrator 19.2.1, SVG Export Plug-In . SVG Version: 6.00 Build 0)  -->
<svg version="1.1" id="Ebene_1" xmlns="http://www.w3.org/2000/svg" xmlns:xlink="http://www.w3.org/1999/xlink" x="0px" y="0px"
	 width="580px" height="580px" viewBox="0 0 580 580" style="enable-background:new 0 0 580 580;" xml:space="preserve">
<g>
	<path d="M234.7,248.8h-25.4l-20.8-55h-83.1l-19.6,55H60.2l75.2-196.1h23.8L234.7,248.8z M180.9,173.2l-30.8-83.5
		c-1-2.7-2-7.1-3-13.1h-0.5c-0.9,5.6-2,9.9-3.1,13.1L113,173.2H180.9z"/>
	<path d="M354.5,179.6h-74.6V162h74.6V179.6z"/>
	<path d="M519.8,73.5h-76.6v67.8h70.8V162h-70.8v86.8h-23V52.8h99.5V73.5z"/>
	<path d="M204.4,425c0,16.4-1.5,30.9-4.4,43.6c-3,12.7-7.2,23.4-12.9,32.1c-5.6,8.7-12.5,15.3-20.6,19.8c-8.2,4.5-17.4,6.8-27.8,6.8
		c-9.8,0-18.6-2.2-26.3-6.5c-7.7-4.3-14.2-10.6-19.5-18.9c-5.3-8.3-9.3-18.5-12-30.6c-2.7-12.1-4.1-25.9-4.1-41.5
		c0-17.1,1.4-32.3,4.3-45.4s7.1-24.1,12.6-33c5.6-8.9,12.5-15.6,20.7-20.1c8.2-4.5,17.7-6.8,28.4-6.8
		C183.8,324.5,204.4,358,204.4,425z M181.4,427.2c0-55.8-13.3-83.7-39.8-83.7c-28,0-42,28.4-42,85.2c0,53,13.7,79.4,41.2,79.4
		C167.9,508.1,181.4,481.1,181.4,427.2z"/>
	<path d="M332.6,454.6h-74.6V437h74.6V454.6z"/>
	<path d="M509.9,414c0,18-1.8,33.9-5.3,47.9c-3.6,14-8.8,25.8-15.6,35.5s-15.2,17.1-25,22.1s-21.1,7.6-33.6,7.6
		c-12.9,0-24.3-2.3-34.2-6.8v-21.5c10.8,6.1,22.4,9.2,34.7,9.2c8.8,0,16.7-1.8,23.7-5.5c7-3.6,12.9-9,17.7-15.9
		c4.8-7,8.5-15.6,11.1-25.8c2.6-10.2,3.8-21.9,3.8-35.1h-0.5c-8.4,16.9-23,25.3-43.8,25.3c-8.4,0-16.1-1.5-23.1-4.4
		c-7-3-13.1-7.2-18.2-12.6c-5.1-5.4-9.1-11.9-11.9-19.3c-2.8-7.5-4.2-15.7-4.2-24.7c0-9.7,1.6-18.5,4.7-26.5
		c3.1-8,7.5-14.9,13.1-20.7c5.6-5.8,12.3-10.3,20-13.5c7.7-3.2,16.1-4.8,25.2-4.8c9.8,0,18.6,2,26.2,5.9c7.6,4,14,9.8,19.2,17.4
		c5.2,7.6,9.2,17,11.9,28.1C508.5,387,509.9,399.7,509.9,414z M485.7,393.9c0-7.6-1-14.4-2.9-20.6c-2-6.2-4.7-11.5-8.1-15.9
		c-3.5-4.4-7.6-7.8-12.4-10.3c-4.8-2.4-10-3.6-15.7-3.6c-5.4,0-10.4,1.1-15,3.2c-4.6,2.1-8.7,5.2-12.1,9c-3.4,3.9-6.1,8.5-8.1,13.8
		c-2,5.3-2.9,11.1-2.9,17.4c0,6.9,0.9,13.1,2.8,18.6c1.9,5.5,4.5,10.1,8,13.9c3.5,3.8,7.6,6.7,12.5,8.7c4.9,2,10.3,3,16.2,3
		c5.2,0,10.1-1,14.7-2.9c4.6-2,8.6-4.6,12-7.9c3.4-3.3,6.1-7.2,8.1-11.8C484.7,404,485.7,399.1,485.7,393.9z"/>
</g>
</svg>
