<?xml version="1.0" encoding="UTF-8"?>
<!DOCTYPE svg PUBLIC "-//W3C//DTD SVG 1.1//EN" "http://www.w3.org/Graphics/SVG/1.1/DTD/svg11.dtd">
<svg xmlns="http://www.w3.org/2000/svg" xml:space="preserve" width="580px" height="580px" shape-rendering="geometricPrecision" text-rendering="geometricPrecision" image-rendering="optimizeQuality" fill-rule="nonzero" clip-rule="nonzero" viewBox="0 0 5800 5800" xmlns:xlink="http://www.w3.org/1999/xlink">
	<title>university icon</title>
	<desc>university icon from the IconExperience.com I-Collection. Copyright by INCORS GmbH (www.incors.com).</desc>
	<path id="curve0" d="M2200 3900l1400 0 0 800 300 0 0 -3200 -600 0 0 -400 -800 0 0 400 -600 0 0 3200 300 0 0 -800zm-1700 800l0 -2600 1000 0 0 200 -800 0 0 2400 200 0 0 -2000 200 0 0 2000 200 0 0 -2000 200 0 0 2000 200 0 0 -3400 600 0 0 -400 1200 0 0 400 600 0 0 3400 200 0 0 -2000 200 0 0 2000 200 0 0 -2000 200 0 0 2000 200 0 0 -2400 -800 0 0 -200 1000 0 0 2600 100 0 0 200 200 0 0 600 -5400 0 0 -600 200 0 0 -200 100 0zm4700 200l-4600 0 0 200 -200 0 0 200 5000 0 0 -200 -200 0 0 -200zm-2800 -3000l0 1800 -200 0 0 -1800 200 0zm400 0l0 1800 -200 0 0 -1800 200 0zm400 0l0 1800 -200 0 0 -1800 200 0zm400 0l0 1800 -200 0 0 -1800 200 0z"/>
</svg>