<?xml version="1.0" encoding="UTF-8"?>
<!DOCTYPE svg PUBLIC "-//W3C//DTD SVG 1.1//EN" "http://www.w3.org/Graphics/SVG/1.1/DTD/svg11.dtd">
<svg xmlns="http://www.w3.org/2000/svg" xml:space="preserve" width="580px" height="580px" shape-rendering="geometricPrecision" text-rendering="geometricPrecision" image-rendering="optimizeQuality" fill-rule="nonzero" clip-rule="nonzero" viewBox="0 0 5800 5800" xmlns:xlink="http://www.w3.org/1999/xlink">
	<title>upload icon</title>
	<desc>upload icon from the IconExperience.com I-Collection. Copyright by INCORS GmbH (www.incors.com).</desc>
		<path id="curve29" d="M4900 2300c0,605 -271,1173 -740,1553l-142 -142c431,-342 682,-859 682,-1411 0,-109 -10,-216 -28,-319 -9,39 -24,115 -147,197 -56,75 104,156 1,289 -56,72 -127,165 -162,249 -17,41 -22,70 -17,114 18,157 -31,197 -104,327 -62,108 -108,191 -191,287 -26,30 -90,101 -156,145l-247 -247c-26,-83 -47,-155 -45,-165 11,-83 54,-127 56,-216 1,-68 -77,-167 -90,-239 -2,-9 -16,-95 -23,-102 -77,-79 -69,-181 -179,-143 -77,26 -217,96 -295,65 -142,-57 -279,-199 -310,-351 -7,-35 18,-193 22,-244 4,-63 33,-122 68,-172 14,-20 32,-39 49,-56 19,-17 93,-77 103,-93 28,-50 69,-123 128,-139 -31,-6 -60,-16 -86,-29 -78,-37 -69,-167 -40,-233 38,-83 112,-120 201,-121 36,0 70,3 105,-7 22,-6 71,-60 98,-78 40,-27 -48,-91 -12,-163 32,-64 117,-69 173,-97 35,-16 75,-63 117,-77 -8,-4 -15,-8 -23,-12 -175,-82 -365,-137 -566,-159 -4,16 -16,32 -40,46 -67,39 -71,105 -200,152 -107,40 -207,12 -318,71 -61,33 -159,118 -216,131 -15,3 -31,3 -43,-8 -32,-29 0,-111 11,-144 6,-16 32,-90 28,-102 -16,-21 -122,-5 -164,2 -54,25 -107,52 -159,82 33,19 94,39 95,58 5,56 -108,45 -128,143 -3,18 25,87 32,106 32,86 18,226 -88,191 -41,-14 -59,-69 -101,-46 -42,22 -16,142 -72,150 -110,15 -187,104 -270,169 -35,27 -60,169 -133,221 -24,17 -142,93 -180,127 -5,22 -32,136 -31,151 7,55 28,111 54,160 13,24 39,69 60,87 50,44 102,-26 175,-3 55,17 97,47 138,86 83,80 200,129 256,194 22,27 24,41 32,72 6,23 23,35 42,46 47,28 109,51 160,71 40,17 184,69 204,106 53,103 -34,164 -58,256 -18,69 41,205 -44,241 -86,36 -147,84 -151,174l-351 352c-469,-381 -740,-948 -740,-1553 0,-1105 895,-2000 2000,-2000 1115,0 2000,907 2000,2000zm-1212 -992c21,24 45,40 73,56 24,15 55,32 63,61 6,25 -10,49 -29,64 -47,37 -106,23 -79,-45 8,-20 -131,-80 -147,-88 -49,-25 -90,-83 -151,-55 -74,36 -107,157 -187,182 47,0 92,-10 137,-26 43,-16 179,-27 222,-12 149,51 96,206 225,227 18,3 54,0 73,0 21,-1 60,-3 79,0 73,13 126,45 197,9 34,-17 50,-81 24,-110 -82,-88 -278,-36 -319,-82 -22,-24 -43,-66 -60,-94 -27,-46 -54,-108 -121,-87zm-2174 2140c-19,-45 -26,-103 -32,-152 -4,-40 -13,-151 -39,-180 -84,-96 -202,-248 -223,-374 -15,-93 -28,-194 -18,-288 0,-27 -77,-145 -102,-181 0,9 0,18 0,27 0,436 155,837 414,1148z"/>
	<path id="curve28" d="M1829,4229 2900,3159 3971,4229 3829,4371 3000,3541 3000,5500 2800,5500 2800,3541 1971,4371z"/>
</svg>