<?xml version="1.0" encoding="UTF-8"?>
<!DOCTYPE svg PUBLIC "-//W3C//DTD SVG 1.1//EN" "http://www.w3.org/Graphics/SVG/1.1/DTD/svg11.dtd">
<svg xmlns="http://www.w3.org/2000/svg" xml:space="preserve" width="580px" height="580px" shape-rendering="geometricPrecision" text-rendering="geometricPrecision" image-rendering="optimizeQuality" fill-rule="nonzero" clip-rule="nonzero" viewBox="0 0 5800 5800" xmlns:xlink="http://www.w3.org/1999/xlink">
	<title>upload icon</title>
	<desc>upload icon from the IconExperience.com I-Collection. Copyright by INCORS GmbH (www.incors.com).</desc>
		<path id="curve29"  d="M2900 300c1105,0 2000,895 2000,2000 0,700 -359,1315 -903,1673l-956 -956c-77,-78 -205,-78 -282,0l-832 832c-55,-166 44,-182 34,-302 -10,-114 52,-179 164,-226 69,-29 13,-156 32,-230 26,-98 109,-152 61,-245 -22,-42 -271,-117 -361,-171 -115,-69 37,-88 -240,-234 -68,-36 -115,-133 -229,-168 -71,-22 -122,56 -185,0 -28,-25 -114,-151 -123,-282 -12,71 -20,143 -24,217 74,97 148,222 146,250 -9,86 1,183 18,287 18,113 123,257 221,368 47,53 35,244 74,341 26,62 99,154 180,245 69,59 142,114 219,162l-111 112c-544,-358 -903,-973 -903,-1673 0,-1105 895,-2000 2000,-2000zm123 1327c-15,28 -108,88 -154,153 -33,46 -61,103 -65,164 -3,40 -25,227 -22,241 29,146 162,286 301,341 69,28 197,-37 285,-66 97,-33 103,4 144,76 72,126 53,10 86,188 11,62 93,175 91,245 -2,108 -44,128 -57,222 -1,11 117,393 132,411 72,91 280,-128 385,-286 17,-26 180,-312 183,-321 68,-204 -105,-150 197,-538 99,-127 -69,-201 -1,-292 10,-14 74,-19 102,-66 35,-58 37,-158 69,-168 3,-1 7,-1 10,-1 -85,-417 -310,-783 -625,-1046 -45,-14 -89,-39 -141,-70 -67,-41 -129,-90 -197,-129 -49,-29 -112,52 -157,74 -48,23 -139,34 -166,88 -33,67 67,132 5,173 -52,35 -70,72 -105,82 -85,24 -157,-19 -245,52 -92,73 -90,242 -20,276 72,35 178,53 225,-16 28,-40 97,-126 133,-143 74,-35 121,30 170,55 94,48 174,74 158,115 -30,78 83,21 71,-22 -10,-39 -88,-50 -142,-122 -17,-22 87,-42 122,7 32,46 76,134 101,162 30,34 235,-12 322,82 36,39 18,120 -29,144 -79,39 -122,9 -212,-7 -17,-3 -137,2 -154,0 -147,-25 -88,-182 -231,-231 -28,-10 -159,-7 -212,12 -228,80 -230,-62 -357,161zm59 -1164c-60,-6 -121,-9 -182,-9 -276,0 -539,61 -774,170 90,-20 184,-28 205,1 27,36 -110,271 -17,249 59,-13 147,-103 249,-147 100,-43 190,-20 289,-56 134,-49 159,-129 199,-153 28,-16 36,-35 31,-55zm-1130 253c-414,248 -723,654 -843,1134 26,-30 115,-85 194,-140 67,-47 100,-197 134,-223 88,-70 165,-160 283,-176 34,-5 14,-122 66,-150 86,-46 92,118 192,11 47,-50 -53,-201 -43,-250 22,-108 132,-105 129,-140 0,-3 -90,-34 -112,-66z"/>
	<path id="curve28"  d="M3000,5500 3000,3541 3829,4371 3971,4229 2900,3159 1829,4229 1971,4371 2800,3541 2800,5500z"/>
</svg>