<?xml version="1.0" encoding="UTF-8"?>
<!DOCTYPE svg PUBLIC "-//W3C//DTD SVG 1.1//EN" "http://www.w3.org/Graphics/SVG/1.1/DTD/svg11.dtd">
<svg xmlns="http://www.w3.org/2000/svg" xml:space="preserve" width="580px" height="580px" shape-rendering="geometricPrecision" text-rendering="geometricPrecision" image-rendering="optimizeQuality" fill-rule="nonzero" clip-rule="nonzero" viewBox="0 0 5800 5800" xmlns:xlink="http://www.w3.org/1999/xlink">
	<title>user_mobilephone icon</title>
	<desc>user_mobilephone icon from the IconExperience.com I-Collection. Copyright by INCORS GmbH (www.incors.com).</desc>
	<path id="curve0"  d="M1300 3500l200 0c55,0 100,45 100,100l0 200c0,55 -45,100 -100,100l-200 0c-55,0 -100,-45 -100,-100l0 -200c0,-55 45,-100 100,-100zm-700 -1800l1600 0c165,0 300,135 300,300l0 3200c0,165 -135,300 -300,300l-1600 0c-165,0 -300,-135 -300,-300l0 -3200c0,-165 135,-300 300,-300zm3900 1697c-108,-62 -164,-176 -193,-299 -25,-108 -29,-223 -32,-311 0,-29 11,-55 30,-73 126,-126 245,-409 291,-580 8,-30 29,-53 56,-65 118,-61 153,-219 118,-339 -4,-14 -4,-26 -3,-41l35 -543c20,-256 -233,-536 -482,-559 -62,-6 -126,4 -186,34 -32,16 -69,12 -98,-6 -46,-29 -82,-52 -119,-68 -84,-37 -196,-49 -287,-47 -173,3 -342,56 -474,152 -128,93 -222,227 -249,393 -6,37 -9,74 -8,113l35 538c1,14 -1,27 -5,39 -33,119 5,277 122,336 27,13 45,37 53,63 26,98 75,227 136,346 48,95 102,181 155,233 20,20 30,46 30,71 0,86 -6,203 -33,314 -30,124 -88,239 -192,299 -121,75 -210,101 -314,133 -64,19 -125,39 -187,62l0 -212c48,-17 90,-30 130,-42 90,-27 167,-50 268,-113 52,-30 82,-97 101,-174 19,-75 25,-159 27,-228 -59,-68 -115,-157 -164,-252 -58,-116 -108,-241 -139,-345 -172,-111 -237,-339 -188,-533l-34 -522c-1,-8 4,-120 10,-158 37,-223 160,-400 329,-522 165,-120 374,-187 588,-190 120,-3 259,14 370,63 35,15 67,33 103,55 78,-29 159,-38 238,-30 360,33 692,410 663,775l-35 529c49,195 -15,422 -188,533 -58,194 -168,444 -302,596 2,71 8,155 26,230 17,76 47,142 98,171 92,58 169,85 271,115 48,15 100,30 161,53 123,45 265,95 361,188 98,95 174,215 225,344 54,136 82,282 82,421 0,204 -227,335 -539,417 -408,106 -976,139 -1311,139 -293,0 -765,-25 -1151,-103l0 -204c376,81 856,107 1151,107 325,0 874,-32 1261,-132 225,-59 389,-134 389,-224 0,-115 -23,-236 -67,-348 -41,-103 -101,-199 -179,-274 -69,-68 -197,-109 -291,-144 -55,-20 -104,-35 -149,-48 -104,-32 -193,-58 -314,-133zm-2300 -1497l-1600 0c-55,0 -100,45 -100,100l0 3200c0,55 45,100 100,100l1600 0c55,0 100,-45 100,-100l0 -3200c0,-55 -45,-100 -100,-100zm-100 200l0 1300 -1400 0 0 -1300 1400 0zm-200 200l-1000 0 0 900 1000 0 0 -900zm-1100 2800c-55,0 -100,-45 -100,-100 0,-55 45,-100 100,-100l200 0c55,0 100,45 100,100 0,55 -45,100 -100,100l-200 0zm0 -400c-55,0 -100,-45 -100,-100 0,-55 45,-100 100,-100l200 0c55,0 100,45 100,100 0,55 -45,100 -100,100l-200 0zm0 -400c-55,0 -100,-45 -100,-100 0,-55 45,-100 100,-100l200 0c55,0 100,45 100,100 0,55 -45,100 -100,100l-200 0zm0 -400c-55,0 -100,-45 -100,-100 0,-55 45,-100 100,-100l200 0c55,0 100,45 100,100 0,55 -45,100 -100,100l-200 0zm500 1200c-55,0 -100,-45 -100,-100 0,-55 45,-100 100,-100l200 0c55,0 100,45 100,100 0,55 -45,100 -100,100l-200 0zm0 -400c-55,0 -100,-45 -100,-100 0,-55 45,-100 100,-100l200 0c55,0 100,45 100,100 0,55 -45,100 -100,100l-200 0zm0 -400c-55,0 -100,-45 -100,-100 0,-55 45,-100 100,-100l200 0c55,0 100,45 100,100 0,55 -45,100 -100,100l-200 0zm500 800c-55,0 -100,-45 -100,-100 0,-55 45,-100 100,-100l200 0c55,0 100,45 100,100 0,55 -45,100 -100,100l-200 0zm0 -400c-55,0 -100,-45 -100,-100 0,-55 45,-100 100,-100l200 0c55,0 100,45 100,100 0,55 -45,100 -100,100l-200 0zm0 -400c-55,0 -100,-45 -100,-100 0,-55 45,-100 100,-100l200 0c55,0 100,45 100,100 0,55 -45,100 -100,100l-200 0zm0 -400c-55,0 -100,-45 -100,-100 0,-55 45,-100 100,-100l200 0c55,0 100,45 100,100 0,55 -45,100 -100,100l-200 0z"/>
</svg>