<?xml version="1.0" encoding="UTF-8"?>
<!DOCTYPE svg PUBLIC "-//W3C//DTD SVG 1.1//EN" "http://www.w3.org/Graphics/SVG/1.1/DTD/svg11.dtd">
<svg xmlns="http://www.w3.org/2000/svg" xml:space="preserve" width="580px" height="580px" shape-rendering="geometricPrecision" text-rendering="geometricPrecision" image-rendering="optimizeQuality" fill-rule="nonzero" clip-rule="nonzero" viewBox="0 0 5800 5800" xmlns:xlink="http://www.w3.org/1999/xlink">
	<title>user_mobilephone icon</title>
	<desc>user_mobilephone icon from the IconExperience.com I-Collection. Copyright by INCORS GmbH (www.incors.com).</desc>
	<path id="curve0"  d="M600 1700l1600 0c165,0 300,135 300,300l0 3200c0,165 -135,300 -300,300l-1600 0c-165,0 -300,-135 -300,-300l0 -3200c0,-165 135,-300 300,-300zm700 1800c-55,0 -100,45 -100,100l0 200c0,55 45,100 100,100l200 0c55,0 100,-45 100,-100l0 -200c0,-55 -45,-100 -100,-100l-200 0zm500 400l200 0c55,0 100,-45 100,-100 0,-55 -45,-100 -100,-100l-200 0c-55,0 -100,45 -100,100 0,55 45,100 100,100zm0 400l200 0c55,0 100,-45 100,-100 0,-55 -45,-100 -100,-100l-200 0c-55,0 -100,45 -100,100 0,55 45,100 100,100zm0 400l200 0c55,0 100,-45 100,-100 0,-55 -45,-100 -100,-100l-200 0c-55,0 -100,45 -100,100 0,55 45,100 100,100zm0 400l200 0c55,0 100,-45 100,-100 0,-55 -45,-100 -100,-100l-200 0c-55,0 -100,45 -100,100 0,55 45,100 100,100zm-500 -800l200 0c55,0 100,-45 100,-100 0,-55 -45,-100 -100,-100l-200 0c-55,0 -100,45 -100,100 0,55 45,100 100,100zm0 400l200 0c55,0 100,-45 100,-100 0,-55 -45,-100 -100,-100l-200 0c-55,0 -100,45 -100,100 0,55 45,100 100,100zm0 400l200 0c55,0 100,-45 100,-100 0,-55 -45,-100 -100,-100l-200 0c-55,0 -100,45 -100,100 0,55 45,100 100,100zm-500 -1200l200 0c55,0 100,-45 100,-100 0,-55 -45,-100 -100,-100l-200 0c-55,0 -100,45 -100,100 0,55 45,100 100,100zm0 400l200 0c55,0 100,-45 100,-100 0,-55 -45,-100 -100,-100l-200 0c-55,0 -100,45 -100,100 0,55 45,100 100,100zm0 400l200 0c55,0 100,-45 100,-100 0,-55 -45,-100 -100,-100l-200 0c-55,0 -100,45 -100,100 0,55 45,100 100,100zm0 400l200 0c55,0 100,-45 100,-100 0,-55 -45,-100 -100,-100l-200 0c-55,0 -100,45 -100,100 0,55 45,100 100,100zm1300 -3000l-1400 0 0 1300 1400 0 0 -1300zm-200 200l0 900 -1000 0 0 -900 1000 0zm2700 923c97,58 164,83 271,115 48,15 100,30 161,53 308,113 459,214 586,532 54,136 82,282 82,421 0,204 -227,335 -539,417 -408,106 -976,139 -1311,139 -293,0 -765,-25 -1151,-103l0 -1417c147,-52 260,-76 401,-157 49,-28 79,-95 98,-172 19,-75 25,-159 27,-228 -133,-152 -245,-404 -303,-597 -81,-52 -137,-129 -170,-216 -38,-100 -44,-215 -18,-317 -11,-170 -32,-359 -34,-527 -1,-53 2,-104 10,-153 37,-223 160,-400 329,-522 165,-120 374,-187 588,-190 174,-4 323,26 473,118 78,-29 159,-38 238,-30 254,23 483,213 593,438 56,114 75,213 70,339l-35 527c26,103 21,217 -17,317 -33,87 -90,164 -171,216 -58,194 -168,444 -302,596 2,71 8,155 26,230 17,76 47,142 98,171z"/>
</svg>