<?xml version="1.0" encoding="utf-8"?>
<!-- Generator: Adobe Illustrator 19.2.1, SVG Export Plug-In . SVG Version: 6.00 Build 0)  -->
<svg version="1.1" id="user_x5F_management_x5F_gi" xmlns="http://www.w3.org/2000/svg" xmlns:xlink="http://www.w3.org/1999/xlink"
	 x="0px" y="0px" width="580px" height="580px" viewBox="0 0 580 580" style="enable-background:new 0 0 580 580;"
	 xml:space="preserve">
<style type="text/css">
	.st0{display:none;}
</style>
<title>address_book2 icon</title>
<desc>address_book2 icon from the IconExperience.com I-Collection. Copyright by INCORS GmbH (www.incors.com).</desc>
<title>address_book2 icon</title>
<desc>address_book2 icon from the IconExperience.com I-Collection. Copyright by INCORS GmbH (www.incors.com).</desc>
<title>address_book2 icon</title>
<desc>address_book2 icon from the IconExperience.com I-Collection. Copyright by INCORS GmbH (www.incors.com).</desc>
<path id="curve28_9_" class="st0" d="M517.5,175.3c6.4,6.3,10.3,15.1,10.3,24.7v385h-400V65h265c9.6,0,18.4,3.9,24.7,10.3
	C417.5,75.6,507.8,165.5,517.5,175.3z M427.8,113.8V165H479L427.8,113.8z M392.8,85h-245v480h360V200c0-8.3-6.7-15-15-15h-85v-85
	C407.8,91.8,401,85,392.8,85z"/>
<g>
	<path d="M287.3,79.7c34.7,0,67.3,8.8,95.8,24.4c0.6-8.7,0.8-16.6,0.6-22.2c-29.1-14.2-61.8-22.2-96.4-22.2s-67.4,8-96.5,22.3
		l-1.2,17.2c0.4,1.8,0.6,3.7,0.7,5.6C219,88.8,252.1,79.7,287.3,79.7z"/>
	<path d="M487,279.7c0,78.2-45.3,148.9-115.9,181.6c5.9,3.8,10.6,9.2,14.5,15.1C460,439.1,507,363.2,507,279.7c0-1.2,0-2.4,0-3.5
		c-6,0.9-13,1.6-20,2.2V279.7z"/>
	<path d="M203.4,461.4C132.7,428.8,87,358,87,279.7v-1.3c-6-0.6-13-1.3-20-2.2c0,1.1,0,2.3,0,3.5c0,83.7,47.4,159.7,121.9,196.9
		C191.4,472.8,201.4,462.8,203.4,461.4z"/>
	<path d="M537.7,189.7c-5.3-5.1-12.9-7.8-18.4-9.8l-0.1,0c-2.9-1.1-5.3-1.8-7.5-2.4c-0.3-0.1-0.6-0.2-1-0.3
		c7.9-2.1,15.6-6.2,21-14.3l3.9-5.9l-4.2-5.7c-9.3-12.3-11.3-51.7-10-65.1c1.8-19.3-12.1-40-30.5-45.2c-9.1-2.5-18.5-2-27.5,1.4
		c-9-3.4-18.4-3.9-27.5-1.4l-0.1,0c-18.3,5.2-32.2,25.9-30.4,45.2c1.2,13.4-0.8,52.7-10,65.1l-4.2,5.7l3.9,5.9
		c5.4,8.1,13,12.2,21,14.3c-0.3,0.1-0.6,0.2-1,0.3c-2.2,0.7-4.6,1.4-7.5,2.4l-0.1,0c-5.6,2-13.2,4.6-18.4,9.7
		c-9.8,9.5-15.7,24-15.7,38.8c0,19.3,29.1,24.7,38.7,26.5c17.2,3.2,37.8,4.3,51.3,4.3s34-1.1,51.3-4.3c9.6-1.8,38.7-7.2,38.7-26.5
		C553.3,213.7,547.5,199.2,537.7,189.7z M506.3,236.1c-15,2.4-32,3.2-43,3.2s-28-0.8-43-3.2c-20.2-3.2-25.8-7.3-27-8.5
		c0.2-9,3.9-18.2,9.6-23.6c2.1-2.1,7.5-4,11.1-5.2l0.3-0.1c2.4-0.9,4.4-1.5,6.5-2.1c4.7-1.4,9.6-2.9,15.7-6.7
		c7.8-4.5,11.6-10,12.8-19l1.4-10.9h-11.3c-9.8,0-18.1-0.7-23.5-4c10.8-23.3,10.2-64,9.5-71.5c-0.9-9.8,6.8-21.6,16-24.2
		c5.8-1.6,11.8-1,17.6,1.9l4.5,2.2l4.5-2.2c5.9-2.9,11.8-3.6,17.6-2c9.1,2.6,16.9,14.3,16,24.1c-0.7,7.4-1.3,48.4,9.5,71.7
		c-5.4,3.3-13.7,4-23.5,4h-11.2l1.2,10.7c1,9.2,4.7,14.7,12.8,19.3c6.1,3.8,11,5.2,15.7,6.6c2,0.6,4.1,1.2,6.5,2l0.3,0.1
		c3.6,1.3,9,3.1,11.1,5.2c5.8,5.6,9.4,14.6,9.6,23.6C532.1,228.8,526.4,232.9,506.3,236.1z"/>
	<path d="M168,254.9c9.6-1.8,38.7-7.2,38.7-26.5c0-14.7-5.8-29.2-15.6-38.8c-5.3-5.1-12.9-7.8-18.4-9.8l-0.1,0
		c-2.9-1-5.3-1.8-7.5-2.4c-4.2-1.3-7-2.1-11-4.6l-0.4-0.2c-0.4-0.2-2.2-1.8-2.8-11.7c5.8-7.4,10.4-18,12.9-25.6
		c8-6.3,11.9-17.4,9.5-28.2l1.5-23.1c1.1-12.7-6-26.6-17.8-34.9c-8.9-6.2-18.9-8.2-28.1-5.7c-3.4-1.9-7.1-3.3-12.4-4.2l-0.1,0
		c-15.7-2.5-31.8,1.8-43,11.6c-9.6,8.3-14.8,20-14.5,32.8l1.5,23.5c-2.4,10.8,1.4,22,9.5,28.2c2.5,7.7,7.2,18.4,12.9,25.7
		c-0.4,7.9-2.2,11.2-2.9,11.7l-0.4,0.2c-3.9,2.5-6.7,3.3-11,4.6c-2.2,0.7-4.6,1.4-7.5,2.4l-0.1,0c-5.6,2-13.2,4.6-18.4,9.7
		c-9.8,9.5-15.7,24-15.7,38.8c0,19.3,29.1,24.7,38.7,26.5c17.2,3.2,37.8,4.3,51.3,4.3S150.7,258.1,168,254.9z M46.7,227.6
		c0.2-9,3.9-18.2,9.6-23.6c2.1-2.1,7.5-4,11.1-5.2l0.3-0.1c2.4-0.9,4.4-1.5,6.5-2.1c4.7-1.4,9.2-2.9,15.4-6.7
		c8.5-5,12.5-15.9,12.5-32.6v-4.2l-2.6-2.9c-4.3-4.3-9.5-16-11.7-23.9l-1.1-4.4l-4-2c-2.8-1.4-3.7-5.9-2.7-9.1l0.5-1.7l-1.7-26.1
		c-0.1-8.5,4.1-14,7.7-17.1c6.7-5.8,16.9-8.5,26.7-7c3.8,0.7,5.2,1.4,9.3,4l4.7,3l5-2.4c5.3-2.6,10.6,0.2,13.3,2.1
		c5.9,4.1,9.8,11.1,9.3,16.7l-1.7,26.9l0.5,1.7c0.9,3.2,0,7.7-2.7,9.1l-4.1,2l-1.2,4.4c-2.1,8-7.3,19.4-11.8,23.9l-3.1,3l0.1,4.3
		c0.2,8.2,0.6,25.1,12.8,32.3c6.2,3.9,11,5.3,15.7,6.7c2,0.6,4.1,1.2,6.5,2.1l0.3,0.1c3.6,1.3,9,3.2,11.1,5.2
		c5.8,5.6,9.4,14.6,9.6,23.6c-1.2,1.2-6.9,5.3-27,8.5c-15,2.4-32,3.2-43,3.2s-28-0.8-43-3.2C53.6,232.9,47.9,228.8,46.7,227.6z"/>
	<path d="M344,462.4l-0.9-0.3c-3-1.1-5.5-1.8-7.7-2.5c-4.1-1.2-6.8-2-10.6-4.3c-0.5-1.8-0.1-6.2,0.1-8.7c0.1-1,0.2-2.1,0.2-3.1
		c5.3-6.9,7.5-15.2,9.3-22.1c7.6-6.1,11.4-16.7,9.5-27.1c5.4-24.3,0.9-43.2-13.7-57.8c-8.4-8.4-21.9-13.7-37.2-14.7
		c-14-0.9-26.3,2.2-34.3,8.4c-10.2,2.1-18.3,7.3-23.6,15.1c-9.6,14.2-8,34-4.6,48.9c-2,10.4,1.8,21,9.5,27.1
		c1.9,7.4,4.2,15.5,9.4,22.2c0.1,0.7,0.1,1.5,0.2,2.3c0.2,2.7,0.6,7.6,0,9.6c-3.7,2.2-6.5,3-10.5,4.2c-2.2,0.7-4.7,1.4-7.7,2.5
		l-0.4,0.2c-5.4,2-12.9,4.7-18,9.7c-9.8,9.5-15.7,24-15.7,38.8c0,19.3,29.1,24.7,38.7,26.5c17.2,3.2,37.8,4.3,51.3,4.3
		c13.5,0,34.1-1.1,51.3-4.3c9.6-1.8,38.7-7.2,38.7-26.5c0-14.8-5.9-29.3-15.7-38.8C356.6,467.1,349.3,464.4,344,462.4z M330.2,518.4
		c-15,2.4-32,3.2-43,3.2s-28-0.8-43-3.2c-20.2-3.2-25.8-7.3-27-8.5c0.2-9,3.9-18,9.6-23.6c2.1-2,7.4-3.9,10.9-5.2l0.5-0.2
		c2.4-0.9,4.5-1.5,6.6-2.1c4.6-1.4,9.5-2.8,15.6-6.6c10.8-6.4,9.6-19.9,9-27.9c-0.1-1.8-0.4-3.4-0.4-4.6v-4.1l-2.8-2.9
		c-3.7-3.7-5.4-10.6-7.2-17.4c-0.2-0.9-0.4-1.8-0.7-2.7l-1.2-4.4l-4-2c-2.8-1.4-3.7-5.9-2.7-9l0.8-2.6l-0.6-2.6
		c-3.8-15.6-3.4-28.5,1.2-35.3c2.6-3.9,6.8-6.2,12.9-7l3.3-0.5l2.4-2.4c2.9-2.9,10.7-5.5,21.5-4.9c10.2,0.6,19.5,4,24.3,8.9
		c10,10,12.4,22.7,7.8,41.2l-0.6,2.6l0.7,2.6c0.9,3.3,0.1,7.7-2.7,9.1l-4,2l-1.2,4.4c-0.3,1.1-0.6,2.1-0.9,3.2
		c-1.8,6.8-3.4,13.2-7.1,16.8l-3,3l0.1,4.3c0,1.3-0.1,3.2-0.3,5.1c-0.6,7.8-1.7,20.9,9.2,27.2c6.1,3.7,10.9,5.2,15.6,6.6
		c2,0.6,4.2,1.2,6.5,2.1l0.9,0.3c3.4,1.3,8.5,3.1,10.6,5.1c5.8,5.6,9.4,14.6,9.6,23.6C356,511.1,350.4,515.2,330.2,518.4z"/>
</g>
</svg>
