<?xml version="1.0" encoding="UTF-8"?>
<!DOCTYPE svg PUBLIC "-//W3C//DTD SVG 1.1//EN" "http://www.w3.org/Graphics/SVG/1.1/DTD/svg11.dtd">
<svg xmlns="http://www.w3.org/2000/svg" xml:space="preserve" width="580px" height="580px" shape-rendering="geometricPrecision" text-rendering="geometricPrecision" image-rendering="optimizeQuality" fill-rule="nonzero" clip-rule="nonzero" viewBox="0 0 5800 5800" xmlns:xlink="http://www.w3.org/1999/xlink">
	<title>users4 icon</title>
	<desc>users4 icon from the IconExperience.com I-Collection. Copyright by INCORS GmbH (www.incors.com).</desc>
		<path id="curve28"  d="M3609 4483c-90,-27 -164,-53 -244,-105 -139,-83 -126,-240 -115,-379 3,-36 6,-69 5,-92 0,-28 11,-54 30,-73 72,-71 102,-190 131,-301l14 -52c8,-30 29,-53 55,-65l69 -82c16,-43 18,-94 5,-138 -5,-18 -5,-36 -1,-52 41,-168 47,-311 21,-431 -65,-301 -304,-442 -600,-460 -165,-10 -322,21 -398,98 -18,17 -39,27 -62,29 -17,2 -33,5 -48,9 -128,31 -201,108 -238,206 -42,110 -42,249 -22,387 8,55 19,110 31,162 5,19 4,38 -2,56 -12,43 -9,92 7,134 13,36 37,67 71,84 27,13 45,37 52,63 3,11 5,19 13,48 30,114 61,235 132,305 20,19 30,45 30,71 0,24 2,52 4,81 11,143 25,313 -119,396 -93,57 -160,77 -239,101 -33,10 -69,20 -109,35 -6,2 -13,5 -19,7 -66,24 -147,54 -188,94 -55,53 -98,121 -127,194 -32,80 -48,166 -48,249 0,52 113,100 270,141 285,74 690,97 930,97 240,0 645,-23 930,-97 157,-41 270,-89 270,-141 0,-83 -16,-169 -48,-248 -29,-74 -72,-142 -127,-195 -59,-57 -230,-111 -316,-136zm2 -905c-34,129 -68,261 -157,366 -1,24 -2,47 -4,70 -7,81 -14,172 17,193 77,42 115,59 199,84 46,14 90,29 134,45 86,31 192,70 264,140 76,73 134,165 173,264 42,104 63,216 63,322 0,166 -176,270 -420,334 -305,79 -730,104 -980,104 -250,0 -675,-25 -980,-104 -244,-64 -420,-168 -420,-334 0,-106 21,-218 63,-322 39,-99 97,-191 173,-264 71,-69 174,-108 258,-138 43,-19 95,-33 140,-47 65,-19 121,-36 190,-79 2,-1 4,-3 6,-4 35,-19 27,-122 20,-207 -1,-20 -3,-38 -4,-56 -88,-105 -123,-239 -157,-370 -61,-45 -104,-104 -129,-170 -28,-75 -34,-160 -17,-237 -12,-52 -22,-105 -30,-157 -24,-168 -22,-341 33,-487 60,-157 176,-279 378,-329 13,-3 27,-6 40,-9 123,-102 324,-145 526,-132 388,24 700,227 784,617 32,143 27,307 -17,496 17,78 12,163 -17,238 -25,66 -67,125 -129,173zm-1251 -2131c-7,15 -11,30 -14,47 -52,-62 -114,-116 -182,-159 -1,-16 -1,-33 -1,-49 0,-147 42,-317 134,-461 95,-148 241,-269 448,-310 48,-10 100,-15 155,-15 55,0 107,5 155,15 207,41 353,162 448,310 92,144 134,314 134,461 0,20 0,41 -2,60 -19,12 -38,24 -55,37 -46,33 -88,71 -126,112 -4,-28 -14,-42 -22,-66 -1,-5 -3,-51 -3,-51 6,-28 8,-59 8,-92 0,-113 -32,-243 -102,-353 -68,-106 -172,-193 -319,-222 -36,-7 -74,-11 -116,-11 -42,0 -80,4 -116,11 -147,29 -251,116 -319,222 -70,110 -102,240 -102,353 0,33 2,64 8,92 5,25 0,49 -11,69zm-1109 1966c-28,40 -64,69 -111,96 -83,51 -143,69 -214,90 -37,11 -72,25 -109,36 -58,21 -131,48 -166,81 -47,47 -84,105 -109,169 -28,69 -42,144 -42,215 0,40 97,79 230,114 251,65 608,85 820,85 26,0 55,0 86,-1 -13,11 -26,23 -39,35 -51,49 -96,105 -134,165 -224,-5 -544,-29 -783,-91 -220,-58 -380,-153 -380,-307 0,-95 19,-195 56,-289 36,-89 88,-171 156,-237 66,-64 161,-99 237,-127 40,-15 80,-27 120,-39 54,-17 100,-30 156,-64 -155,-12 -317,-57 -420,-212l-39 -58 42 -57c57,-76 95,-213 120,-362 40,-240 42,-500 33,-604 -12,-128 28,-262 102,-372 119,-178 306,-272 520,-250 56,6 112,21 167,44 55,-23 111,-38 167,-44 214,-22 400,72 520,250 66,99 105,216 104,332 -77,22 -145,53 -204,90 1,-26 2,-49 4,-68 7,-81 -20,-169 -70,-243 -77,-116 -193,-177 -332,-162 -49,5 -98,20 -144,43l-45 22 -45 -22c-47,-24 -95,-38 -144,-43 -139,-15 -255,46 -332,162 -50,74 -77,162 -70,243 11,115 9,398 -34,655 -23,141 -60,276 -114,379 98,82 265,82 394,82l112 0c-10,90 -12,187 -66,264zm3509 -78c62,36 103,53 171,73 41,12 80,25 120,40 76,28 171,62 237,126 68,66 120,149 156,238 37,94 56,194 56,289 0,153 -160,249 -380,306 -238,62 -558,87 -783,92 -38,-60 -83,-117 -134,-166 -12,-12 -25,-23 -38,-34 30,1 59,1 85,1 212,0 569,-20 820,-86 133,-34 230,-73 230,-113 0,-72 -14,-147 -42,-216 -25,-63 -62,-122 -109,-168 -35,-34 -108,-60 -166,-82 -36,-13 -72,-24 -109,-35 -71,-22 -131,-40 -214,-91 -81,-46 -122,-129 -143,-218 -17,-73 -20,-152 -22,-211 0,-29 11,-55 30,-74 33,-32 66,-84 96,-143 39,-77 70,-159 86,-221 8,-30 29,-53 56,-65 25,-14 44,-38 54,-66 14,-36 16,-78 5,-115 -4,-12 -5,-23 -4,-34l23 -356c3,-53 -5,-92 -28,-140 -26,-51 -65,-98 -112,-134 -44,-34 -95,-57 -145,-62 -35,-3 -71,2 -104,19 -33,16 -70,12 -98,-6 -29,-18 -52,-32 -74,-42 -21,-9 -44,-16 -75,-21 -33,-5 -66,-8 -99,-7 -107,2 -211,35 -292,94 -77,56 -134,136 -150,235 -3,22 -5,44 -5,67l6 94c-59,-52 -128,-97 -204,-133 1,-20 3,-40 6,-60 26,-156 112,-280 230,-365 114,-83 258,-128 406,-131 45,-1 90,2 134,9 50,8 88,20 123,35 20,9 39,19 58,30 52,-16 104,-21 156,-16 90,8 176,46 249,101 70,54 130,126 168,206 37,74 56,155 49,237l-22 343c17,72 13,152 -14,223 -23,59 -61,113 -115,151 -21,67 -53,147 -90,221 -30,59 -65,115 -103,161 2,41 6,88 16,131 9,41 24,76 48,89z"/>
</svg>