<?xml version="1.0" encoding="UTF-8"?>
<!DOCTYPE svg PUBLIC "-//W3C//DTD SVG 1.1//EN" "http://www.w3.org/Graphics/SVG/1.1/DTD/svg11.dtd">
<svg xmlns="http://www.w3.org/2000/svg" xml:space="preserve" width="580px" height="580px" shape-rendering="geometricPrecision" text-rendering="geometricPrecision" image-rendering="optimizeQuality" fill-rule="nonzero" clip-rule="nonzero" viewBox="0 0 5800 5800" xmlns:xlink="http://www.w3.org/1999/xlink">
	<title>user_message icon</title>
	<desc>user_message icon from the IconExperience.com I-Collection. Copyright by INCORS GmbH (www.incors.com).</desc>
		<path id="curve29"  d="M970 2563c-278,-209 -470,-513 -470,-868 0,-767 815,-1195 1500,-1195 408,0 829,134 1133,413 -197,26 -385,98 -540,208 -206,148 -356,364 -400,637 -9,59 -15,130 -11,190l30 470c-25,128 -14,268 34,392 8,22 18,44 29,65 -89,14 -181,21 -275,21 -165,0 -251,28 -288,76 -33,43 -28,116 -7,205l43 177 -172 -59c-315,-109 -577,-392 -606,-732z"/>
	<path id="curve28"  d="M2413 2433l-32 -497c-3,-45 2,-102 9,-147 35,-216 155,-387 320,-505 161,-115 365,-180 574,-183 171,-4 314,24 460,113 78,-28 157,-37 234,-29 249,24 476,208 582,429 48,100 72,208 63,315l-33 504c48,189 -16,407 -185,514 -56,185 -163,422 -292,567 3,68 8,146 25,216 16,71 45,133 93,161 88,54 167,81 264,109 158,47 397,124 508,230 97,92 171,207 221,330 53,131 79,271 79,405 0,198 -221,324 -526,402 -396,101 -949,133 -1275,133 -326,0 -880,-32 -1275,-133 -306,-78 -527,-204 -527,-402 0,-134 27,-274 80,-405 50,-123 124,-238 220,-330 112,-106 350,-183 508,-230 108,-31 166,-54 264,-109 47,-26 75,-90 93,-162 18,-70 24,-149 26,-214 -129,-145 -236,-384 -293,-568 -167,-107 -232,-326 -185,-514z"/>
</svg>