<?xml version="1.0" encoding="UTF-8"?>
<!DOCTYPE svg PUBLIC "-//W3C//DTD SVG 1.1//EN" "http://www.w3.org/Graphics/SVG/1.1/DTD/svg11.dtd">
<svg xmlns="http://www.w3.org/2000/svg" xml:space="preserve" width="580px" height="580px" shape-rendering="geometricPrecision" text-rendering="geometricPrecision" image-rendering="optimizeQuality" fill-rule="nonzero" clip-rule="nonzero" viewBox="0 0 5800 5800" xmlns:xlink="http://www.w3.org/1999/xlink">
	<title>users_family icon</title>
	<desc>users_family icon from the IconExperience.com I-Collection. Copyright by INCORS GmbH (www.incors.com).</desc>
		<path id="curve30"  d="M1678 604c75,8 150,28 222,59 72,-31 147,-51 222,-59 266,-28 498,88 649,309 57,84 98,179 117,277 -63,72 -110,156 -145,247 -76,198 -80,427 -49,646 8,55 18,109 29,162 -8,53 -9,106 -4,160 -40,1 -80,5 -119,10 -33,-4 -66,-8 -100,-9 -282,-17 -513,79 -685,228 -169,147 -277,348 -317,545 -29,145 -18,343 7,479 21,117 61,221 132,299 37,94 98,207 180,307 -119,50 -225,126 -310,222 -243,-16 -515,-48 -734,-104 -274,-71 -473,-186 -473,-367 0,-119 24,-245 71,-362 45,-111 111,-214 197,-296 100,-96 309,-164 453,-207 77,-22 142,-42 227,-94l3 -1c22,-13 40,-25 54,-37 -220,-8 -466,-48 -613,-265l-40 -59 44 -57c77,-102 129,-283 162,-478 52,-312 55,-650 43,-785 -15,-158 36,-324 128,-461 151,-221 383,-337 649,-309z"/>
	<path id="curve29"  d="M5027 4781c-351,91 -840,119 -1127,119l-11 0c-24,-142 -81,-269 -165,-376 -89,-114 -207,-203 -341,-260 81,-100 142,-213 180,-306 71,-79 111,-183 132,-300 26,-141 36,-332 7,-479 -40,-197 -148,-398 -317,-545 -124,-108 -280,-188 -464,-218 -9,-58 -7,-118 6,-175 -15,-60 -27,-123 -36,-185 -27,-190 -24,-385 38,-548 67,-175 197,-311 423,-367 17,-4 35,-8 53,-11 139,-117 371,-166 604,-151 240,16 487,100 636,249 127,125 211,272 249,447 36,163 30,350 -21,566 38,167 -18,357 -165,455l-5 18c-37,142 -76,294 -179,412 -1,28 -3,56 -5,84 -8,99 -17,210 30,237 77,48 145,71 230,96 142,43 353,111 453,208 86,83 152,186 197,298 47,117 71,243 71,364 0,182 -199,297 -473,368z"/>
	<path id="curve28"  d="M1701 3623c-17,-93 -19,-200 -19,-304l0 0c0,-1 0,-3 0,-5 2,-33 6,-65 12,-96 32,-156 118,-316 252,-433 136,-118 319,-193 543,-180 37,2 74,6 111,13 37,-7 74,-11 111,-13 224,-13 407,62 543,180 134,117 220,277 252,433 5,29 9,58 11,88 1,4 1,9 1,13 0,104 -2,210 -19,304 -17,94 -49,172 -107,222 -29,87 -90,209 -179,311 -53,61 -117,116 -191,154 47,51 126,89 192,107 142,38 266,118 353,230 83,107 133,241 133,395 0,157 -146,270 -347,346 -231,87 -545,131 -753,131 -208,0 -522,-44 -753,-131 -201,-76 -347,-189 -347,-346 0,-154 50,-288 133,-395 87,-112 211,-192 353,-230 58,-16 126,-47 173,-89 7,-6 13,-12 19,-18 -74,-38 -138,-93 -191,-154 -90,-102 -150,-224 -179,-311 -58,-50 -90,-128 -107,-222z"/>
</svg>