<?xml version="1.0" encoding="UTF-8"?>
<!DOCTYPE svg PUBLIC "-//W3C//DTD SVG 1.1//EN" "http://www.w3.org/Graphics/SVG/1.1/DTD/svg11.dtd">
<svg xmlns="http://www.w3.org/2000/svg" xml:space="preserve" width="580px" height="580px" shape-rendering="geometricPrecision" text-rendering="geometricPrecision" image-rendering="optimizeQuality" fill-rule="nonzero" clip-rule="nonzero" viewBox="0 0 5800 5800" xmlns:xlink="http://www.w3.org/1999/xlink">
	<title>users_family icon</title>
	<desc>users_family icon from the IconExperience.com I-Collection. Copyright by INCORS GmbH (www.incors.com).</desc>
		<path id="curve28"  d="M2406 4255c0,88 -47,163 -115,223 -71,63 -170,110 -253,132 -101,27 -188,82 -248,160 -56,72 -90,164 -90,272 0,56 92,112 218,159 207,79 492,118 682,118 190,0 475,-39 682,-118 126,-47 218,-103 218,-159 0,-108 -34,-200 -90,-272 -60,-78 -147,-133 -248,-160 -83,-22 -182,-69 -253,-132 -68,-60 -115,-135 -115,-223 0,-49 35,-90 81,-99 73,-22 136,-72 188,-131 80,-92 130,-202 146,-265 7,-29 26,-51 50,-64 20,-11 34,-53 44,-108 16,-89 13,-179 15,-269 -1,-20 -4,-40 -8,-62 -57,-281 -303,-469 -588,-453 -32,2 -66,6 -102,13 -14,3 -28,3 -41,0 -36,-7 -69,-11 -101,-13 -285,-16 -531,172 -588,453 -1,5 -10,62 -8,62 0,97 2,194 15,269 10,56 24,97 44,108 27,14 44,38 50,65 17,65 66,173 146,264 53,61 119,113 195,134 44,12 74,52 74,96zm1494 445c-22,0 -46,0 -71,-1 28,63 48,130 60,201l11 0c287,0 776,-28 1127,-119 274,-71 473,-186 473,-368 0,-121 -24,-247 -71,-364 -45,-112 -111,-215 -197,-298 -81,-78 -201,-122 -298,-157 -52,-19 -102,-35 -155,-51 -77,-23 -143,-43 -228,-95 -49,-28 -40,-139 -32,-238 2,-28 4,-56 5,-84 103,-118 142,-270 179,-412l5 -18c70,-46 119,-113 147,-188 32,-84 38,-180 18,-267 51,-216 57,-403 21,-566 -38,-175 -122,-322 -249,-447 -149,-149 -396,-233 -636,-249 -233,-15 -465,34 -604,151 -18,3 -36,7 -53,11 -226,56 -356,192 -423,367 -62,163 -65,358 -38,548 9,62 21,125 36,185 -13,57 -15,117 -6,175 86,14 166,39 239,73 -12,-16 -21,-33 -28,-52 -20,-53 -22,-113 -7,-166 5,-17 6,-35 1,-53 -15,-62 -28,-126 -37,-190 -23,-160 -22,-321 27,-449 44,-116 132,-206 284,-244 5,-1 64,-12 64,-12 20,-3 40,-12 56,-28 92,-92 280,-129 476,-116 197,13 395,77 509,190 98,98 164,212 194,348 30,140 23,305 -25,501 -4,16 -4,34 1,52 16,53 14,114 -7,167 -16,43 -44,79 -83,101 -28,11 -51,35 -59,66 -2,6 -7,26 -16,60 -33,129 -69,267 -155,351 0,0 -30,67 -30,74 1,27 -2,65 -5,106 -13,157 -28,335 131,425 145,63 269,109 415,161 79,29 177,65 228,113 65,63 115,143 150,229 37,93 56,193 56,290 0,68 -136,127 -323,175 -330,85 -799,112 -1077,112zm-2222 -4096c75,8 150,28 222,59 72,-31 147,-51 222,-59 266,-28 498,88 649,309 57,84 98,179 117,277 -63,72 -110,156 -145,247 -22,57 -38,116 -48,177 -2,-110 0,-201 6,-258 10,-112 -27,-231 -95,-331 -109,-160 -271,-243 -464,-222 -66,7 -133,27 -198,59l-44 22 -44 -22c-65,-32 -132,-52 -198,-59 -193,-21 -355,62 -464,222 -68,100 -105,219 -95,331 14,146 11,507 -44,835 -32,188 -82,368 -156,499 133,129 369,129 551,129l113 0 -14 112c-9,77 -30,134 -64,182 -33,47 -77,81 -133,113l0 1c-105,65 -183,88 -275,115 -39,11 -80,24 -127,41l-16 5c-79,29 -177,64 -228,112 -65,63 -115,142 -150,227 -37,93 -56,193 -56,288 0,67 136,126 322,174 276,70 648,101 925,109 -91,48 -172,111 -240,188 -243,-16 -515,-48 -734,-104 -274,-71 -473,-186 -473,-367 0,-119 24,-245 71,-362 45,-111 111,-214 197,-296 81,-78 202,-121 299,-156l15 -6c54,-19 98,-32 139,-45 77,-22 142,-42 227,-94l3 -1c22,-13 40,-25 54,-37 -220,-8 -466,-48 -613,-265l-40 -59 44 -57c77,-102 129,-283 162,-478 52,-312 55,-650 43,-785 -15,-158 36,-324 128,-461 151,-221 383,-337 649,-309zm16 2614c76,-379 410,-635 795,-613 37,2 74,6 111,13 37,-7 74,-11 111,-13 385,-22 719,234 795,613 6,30 12,71 12,101 0,104 -2,210 -19,304 -17,94 -49,172 -107,222 -29,87 -90,209 -179,311 -53,61 -117,116 -191,154 6,6 12,12 19,18 47,42 115,73 173,89 142,38 266,118 353,230 83,107 133,241 133,395 0,157 -146,270 -347,346 -231,87 -545,131 -753,131 -208,0 -522,-44 -753,-131 -201,-76 -347,-189 -347,-346 0,-154 50,-288 133,-395 87,-112 211,-192 353,-230 58,-16 126,-47 173,-89 7,-6 13,-12 19,-18 -74,-38 -138,-93 -191,-154 -90,-102 -150,-224 -179,-311 -58,-50 -90,-128 -107,-222 -16,-90 -19,-204 -19,-290 0,-38 5,-78 12,-115z"/>
</svg>