<?xml version="1.0" encoding="UTF-8"?>
<!DOCTYPE svg PUBLIC "-//W3C//DTD SVG 1.1//EN" "http://www.w3.org/Graphics/SVG/1.1/DTD/svg11.dtd">
<svg xmlns="http://www.w3.org/2000/svg" xml:space="preserve" width="580px" height="580px" shape-rendering="geometricPrecision" text-rendering="geometricPrecision" image-rendering="optimizeQuality" fill-rule="nonzero" clip-rule="nonzero" viewBox="0 0 5800 5800" xmlns:xlink="http://www.w3.org/1999/xlink">
	<title>user_telephone icon</title>
	<desc>user_telephone icon from the IconExperience.com I-Collection. Copyright by INCORS GmbH (www.incors.com).</desc>
		<path id="curve29" d="M4620 1130l-33 503c25,99 19,209 -18,306 -32,83 -88,158 -167,208 -30,98 -78,218 -135,328 -46,90 -100,175 -157,239 2,68 7,146 24,216 17,71 45,133 95,162 99,60 174,82 263,108 59,18 116,36 174,57 109,39 244,88 334,173 96,92 170,207 220,330 53,131 80,271 80,405 0,198 -221,324 -527,402 -266,68 -604,105 -896,122 -23,-72 -64,-139 -123,-195 303,-12 682,-47 970,-121 218,-55 376,-125 376,-208 0,-109 -22,-224 -65,-330 -40,-98 -98,-189 -173,-260 -59,-57 -172,-98 -263,-130 -54,-20 -108,-37 -164,-53 -101,-30 -187,-56 -305,-127 -106,-60 -161,-169 -190,-288 -25,-105 -29,-215 -31,-299 0,-29 11,-55 30,-74 53,-51 105,-132 151,-220 59,-115 107,-238 132,-330 8,-29 27,-51 52,-64 53,-25 89,-70 109,-123 45,-117 -2,-147 3,-230l35 -522c6,-73 -11,-145 -44,-214 -40,-83 -102,-158 -178,-216 -122,-93 -279,-139 -424,-70 -33,16 -71,12 -99,-7 -45,-28 -79,-49 -113,-64 -34,-14 -72,-25 -124,-33 -211,-34 -441,10 -616,135 -124,89 -214,216 -239,374 -6,33 -8,68 -8,103l34 514c1,13 -1,26 -5,38 -17,62 -14,131 9,192 20,53 56,98 108,123 29,14 48,40 54,69 26,92 73,213 131,324 46,90 99,171 150,221 20,20 30,46 31,72 0,82 -6,195 -32,301 -30,120 -87,230 -190,288 -117,71 -204,97 -305,127 -55,16 -109,33 -163,53 -91,32 -204,73 -264,130 -59,56 -107,124 -145,199 -46,-58 -89,-119 -127,-179 38,-60 83,-116 135,-165 89,-85 225,-134 333,-173 58,-21 116,-39 175,-57 87,-25 162,-47 260,-107 50,-28 79,-92 97,-164 17,-70 24,-149 25,-214 -57,-65 -111,-150 -158,-240 -56,-110 -104,-229 -134,-328 -79,-50 -135,-125 -167,-209 -37,-96 -43,-206 -18,-305l-33 -499c-1,-52 2,-100 10,-145 34,-216 154,-387 319,-505 217,-155 503,-212 765,-170 69,11 121,26 171,47 34,15 65,32 99,53 200,-73 414,-14 580,113 99,76 182,177 236,287 48,100 72,208 63,316z"/>
	<path id="curve28" d="M538 2976c-27,-74 -39,-149 -38,-227 5,-290 259,-611 507,-744l125 -68c135,-72 294,-38 370,99l375 682c42,78 29,162 -12,234 -34,61 -91,115 -146,146l-118 63c-48,26 -93,86 -81,143 42,192 167,414 326,611 164,202 361,374 539,456 21,9 46,9 70,2 30,-10 58,-29 80,-56 7,-10 89,-114 90,-113 91,-106 268,-179 390,-82l592 509c118,101 120,265 26,383l-89 112c-174,219 -532,417 -817,365 -77,-14 -146,-40 -213,-81 -396,-248 -808,-636 -1162,-1072 -354,-436 -650,-921 -814,-1362zm187 -70c157,422 442,887 782,1306 341,420 736,793 1112,1029 43,26 94,45 143,54 211,38 499,-133 626,-293l88 -112c27,-33 37,-77 1,-108l-587 -504c-27,-16 -100,38 -117,59l-82 104c-46,58 -110,101 -178,122 -69,21 -143,20 -211,-11 -206,-94 -429,-287 -610,-511 -178,-220 -319,-472 -367,-695 -32,-146 54,-292 181,-360l117 -63c53,-30 65,-58 79,-110l-375 -680c-22,-41 -64,-40 -101,-20l-124 67c-183,99 -399,356 -402,572 -1,51 7,106 25,154z"/>
</svg>