<?xml version="1.0" encoding="UTF-8"?>
<!DOCTYPE svg PUBLIC "-//W3C//DTD SVG 1.1//EN" "http://www.w3.org/Graphics/SVG/1.1/DTD/svg11.dtd">
<svg xmlns="http://www.w3.org/2000/svg" xml:space="preserve" width="580px" height="580px" shape-rendering="geometricPrecision" text-rendering="geometricPrecision" image-rendering="optimizeQuality" fill-rule="nonzero" clip-rule="nonzero" viewBox="0 0 5800 5800" xmlns:xlink="http://www.w3.org/1999/xlink">
	<title>users_meeting icon</title>
	<desc>users_meeting icon from the IconExperience.com I-Collection. Copyright by INCORS GmbH (www.incors.com).</desc>
		<path id="curve28" d="M2467 3773c2,8 3,13 10,40 25,94 51,195 108,251 20,19 30,45 30,71 0,20 2,43 4,67 9,126 21,275 -109,350 -80,49 -138,66 -205,87 -35,10 -70,21 -104,34 -56,20 -125,45 -158,77 -45,44 -80,99 -104,159 -26,66 -39,137 -39,205 0,149 684,186 1000,186 202,0 544,-20 783,-82 126,-32 217,-69 217,-104 0,-68 -13,-139 -39,-205 -24,-60 -59,-115 -104,-159 -33,-32 -102,-57 -158,-77 -34,-13 -68,-24 -104,-34 -68,-21 -127,-39 -209,-90 -126,-76 -115,-214 -105,-336 3,-30 5,-58 4,-76 0,-28 11,-54 30,-73 58,-57 83,-155 107,-248 6,-24 9,-36 11,-43 8,-31 29,-54 56,-66 23,-12 40,-34 50,-60 13,-34 14,-73 4,-108 -5,-17 -5,-35 -1,-52l0 0c34,-140 39,-258 18,-358 -54,-247 -250,-360 -491,-376 -137,-10 -266,16 -328,78 -18,17 -39,27 -62,29 -14,2 -26,4 -38,7 -228,56 -237,293 -209,485 7,46 16,92 26,135 5,19 4,38 -2,56 -9,33 -7,71 6,104 10,27 28,50 52,62 27,13 45,37 53,64zm-1211 -2169c48,5 97,18 144,37 108,-44 224,-52 337,-20 221,63 383,311 362,538 -8,86 -6,296 24,496 -65,67 -113,147 -147,236l-3 10c-18,-59 -32,-123 -42,-187 -38,-225 -39,-472 -30,-573 12,-132 -89,-291 -218,-328 -82,-23 -163,-12 -238,26l-45 22 -45 -22c-39,-20 -80,-32 -120,-36 -117,-13 -213,39 -278,135 -41,62 -64,135 -58,203 9,101 8,348 -30,573 -20,119 -50,234 -95,323 83,63 219,63 326,63l112 0 -13 112c-7,57 -22,100 -48,137 -61,87 -194,139 -290,167 -62,19 -194,61 -233,99 -40,39 -71,89 -93,142 -23,59 -35,122 -35,183 0,27 80,57 190,86 217,56 527,74 710,74 229,0 501,-19 722,-77 18,62 42,125 76,185 -12,4 -25,8 -38,11 -238,62 -567,81 -760,81 -193,0 -522,-19 -760,-81 -197,-51 -340,-138 -340,-279 0,-84 17,-173 50,-256 32,-79 78,-153 139,-212 72,-69 213,-116 315,-147 34,-10 64,-19 96,-34 -125,-16 -250,-61 -333,-186l-39 -58 42 -57c49,-64 81,-181 102,-309 35,-207 37,-432 29,-522 -11,-114 25,-234 91,-331 106,-160 273,-244 464,-224zm669 1690c3,44 7,79 12,114 5,37 12,74 19,110l0 4 -17 -6c-95,-28 -231,-81 -291,-167 -26,-38 -41,-81 -47,-138l-12 -111 111 0c75,0 157,0 230,-18 -8,67 -10,136 -5,212zm2925 -30c-18,-12 -29,-39 -36,-71 -8,-34 -11,-72 -13,-106 32,-40 62,-88 88,-139 32,-63 59,-131 78,-189 47,-35 81,-83 101,-136 24,-63 28,-134 13,-199l19 -296c6,-74 -11,-147 -44,-213 -69,-142 -213,-259 -373,-274 -45,-4 -90,-1 -135,13 -16,-9 -31,-17 -47,-24 -32,-14 -65,-24 -110,-31 -39,-7 -79,-9 -119,-9 -266,5 -521,168 -565,443 -5,30 -8,61 -7,97l19 294c-15,65 -10,136 13,199 21,53 54,101 101,136 19,58 46,126 78,189 26,51 56,99 88,139 -1,34 -5,72 -13,105 -8,32 -14,56 -42,75 -26,16 -50,27 -73,36 -2,43 -20,200 -27,219 168,-51 290,-96 336,-283 16,-67 20,-138 20,-189 0,-26 -10,-52 -30,-71 -27,-26 -55,-71 -81,-122 -33,-65 -60,-136 -74,-189 -7,-27 -26,-50 -52,-64 -21,-10 -35,-29 -44,-51 -10,-28 -12,-60 -5,-88 4,-12 6,-25 5,-38l-20 -307c0,-19 2,-37 4,-55 29,-177 205,-272 372,-275 28,-1 56,1 84,6 26,4 45,9 62,17 18,8 38,20 62,36 29,18 66,21 98,5 27,-13 56,-17 84,-15 89,9 174,85 212,163 18,36 27,73 24,111l-20 314c-3,14 3,31 4,34 8,29 7,63 -4,92 -8,21 -22,40 -41,50 -26,12 -47,35 -55,65 -14,53 -41,124 -74,189 -26,50 -54,95 -81,122 -19,19 -30,45 -30,73 2,53 4,122 19,187 19,78 55,151 126,194 63,41 123,62 194,83 31,10 63,20 93,31 50,18 112,41 140,68 41,39 72,89 93,142 23,59 35,122 35,183 0,27 -80,57 -190,86 -217,56 -527,74 -710,74 -228,0 -501,-19 -721,-77 -19,62 -42,125 -77,185 13,4 25,8 38,11 238,62 567,81 760,81 193,0 522,-19 760,-81 197,-51 340,-138 340,-279 0,-84 -17,-173 -50,-256 -32,-79 -78,-153 -139,-212 -59,-57 -143,-88 -211,-112 -34,-13 -69,-24 -104,-35 -49,-15 -91,-27 -146,-61zm-259 -2177c28,-113 32,-208 15,-288 -43,-197 -199,-285 -390,-298 -108,-7 -210,12 -258,60 -17,17 -39,27 -62,29 -81,12 -144,51 -174,131 -27,71 -28,164 -14,256 5,38 12,75 21,110 5,19 4,38 -2,55 -6,24 -5,51 4,75 7,19 19,34 35,42 27,13 45,37 53,64 0,0 8,33 8,33 13,48 26,98 45,140 -27,15 -53,31 -78,49 -30,22 -58,45 -84,71 -37,-64 -56,-135 -74,-204 -43,-32 -73,-76 -91,-125 -21,-55 -26,-118 -15,-176 -8,-34 -15,-70 -20,-106 -17,-122 -16,-247 25,-354 53,-143 160,-225 307,-254 93,-74 240,-105 387,-95 282,19 510,170 572,455 23,103 20,220 -11,354 12,58 7,121 -14,176 -18,49 -49,93 -92,125 -2,9 -4,19 -7,29 -34,-2 -67,-1 -101,4 -31,-13 -62,-24 -98,-32 5,-18 10,-36 14,-54 6,-23 7,-28 10,-36 8,-30 28,-53 55,-65 15,-9 26,-24 32,-41 10,-25 11,-53 3,-78 -5,-17 -5,-35 -1,-52zm-1109 413l70 350c-19,47 -34,97 -42,151 -7,41 -10,84 -9,130 1,91 11,190 17,282 -6,36 -8,74 -6,111 -11,-8 -22,-15 -34,-22l-160 -802 -836 0 -165 823 -9 4c-16,-149 -16,-287 -10,-350 10,-109 -10,-220 -51,-322l71 -355 1164 0zm-1405 -431c5,-23 7,-49 7,-77 0,-95 -27,-205 -86,-297 -84,-132 -212,-195 -364,-195 -153,0 -280,63 -364,195 -59,92 -86,202 -86,297 0,28 2,54 7,77 5,25 0,49 -11,69 -13,28 -16,63 -9,95 5,26 16,47 32,55 28,14 46,37 53,64 5,16 10,34 17,53 -75,-7 -150,-3 -224,13 -37,-39 -62,-90 -73,-144 -14,-64 -9,-135 13,-197 -3,-27 -5,-56 -5,-85 0,-129 37,-279 118,-405 121,-190 310,-287 532,-287 221,0 410,97 532,287 81,126 118,276 118,405 0,29 -2,58 -6,85 23,62 28,133 14,197 -14,66 -47,126 -99,167 -18,58 -45,125 -77,188l-4 8c-46,-52 -98,-98 -157,-135 25,-53 45,-108 56,-150 8,-30 29,-53 56,-65 15,-10 25,-30 30,-54 7,-33 3,-70 -11,-100 -11,-21 -13,-43 -9,-64zm207 2794c-51,-37 -87,-89 -109,-146 -25,-65 -30,-138 -16,-206 -10,-43 -18,-87 -25,-131 -43,-303 19,-623 359,-707 11,-2 21,-5 32,-7 108,-87 282,-124 457,-113 332,22 600,199 673,534 27,123 23,263 -14,424 14,68 9,141 -16,206 -21,57 -58,109 -110,148 -27,107 -56,218 -131,309 -1,18 -2,36 -4,55 -5,63 -11,135 8,148 58,37 110,54 164,70 39,12 77,24 115,38 74,27 165,60 229,122 65,64 116,143 150,229 36,90 54,186 54,278 0,149 -154,242 -367,297 -260,68 -621,89 -833,89 -379,0 -1200,-77 -1200,-386 0,-91 18,-188 54,-278 34,-86 85,-165 150,-229 64,-62 155,-95 229,-122 38,-14 76,-26 115,-38 53,-16 99,-30 159,-67 24,-13 18,-95 12,-163 -1,-15 -2,-29 -3,-42 -74,-91 -104,-205 -132,-312z"/>
</svg>