<?xml version="1.0" encoding="UTF-8"?>
<!DOCTYPE svg PUBLIC "-//W3C//DTD SVG 1.1//EN" "http://www.w3.org/Graphics/SVG/1.1/DTD/svg11.dtd">
<svg xmlns="http://www.w3.org/2000/svg" xml:space="preserve" width="580px" height="580px" shape-rendering="geometricPrecision" text-rendering="geometricPrecision" image-rendering="optimizeQuality" fill-rule="nonzero" clip-rule="nonzero" viewBox="0 0 5800 5800" xmlns:xlink="http://www.w3.org/1999/xlink">
	<title>users2 icon</title>
	<desc>users2 icon from the IconExperience.com I-Collection. Copyright by INCORS GmbH (www.incors.com).</desc>
		<path id="curve29"  d="M3611 2659c-116,-83 -161,-239 -129,-375l-22 -337c0,0 6,-102 7,-111 26,-156 112,-280 230,-366 114,-82 258,-128 406,-131 113,-2 217,17 315,75 52,-17 104,-22 156,-17 90,9 176,46 249,102 70,54 130,126 168,205 40,81 53,150 49,240l-22 340c32,137 -12,292 -129,375 -40,126 -108,279 -193,381 2,42 6,89 16,131 9,41 24,77 48,90 58,36 106,53 171,73 115,34 276,88 357,166 68,66 120,149 156,238 37,93 56,193 56,289 0,153 -160,249 -380,306 -271,70 -648,93 -870,93 -222,0 -599,-23 -870,-93 -220,-57 -380,-153 -380,-306 0,-96 19,-196 56,-290 36,-89 88,-171 156,-237 81,-78 243,-132 357,-166 74,-22 105,-35 171,-73 27,-15 42,-63 48,-91 11,-42 15,-89 16,-130 -84,-102 -153,-255 -193,-381z"/>
	<path id="curve28"  d="M1383 1355c56,6 112,20 167,43 55,-23 111,-37 167,-43 214,-23 400,71 520,250 74,110 114,244 102,371 -9,105 -7,365 33,605 25,148 63,285 120,362 13,17 4,115 4,115 -74,111 -182,166 -298,193 -42,9 -83,15 -124,19 56,33 103,47 157,63 112,34 274,86 357,166 68,66 120,149 156,238 37,93 56,194 56,289 0,153 -160,249 -380,306 -271,71 -648,93 -870,93 -222,0 -599,-22 -870,-93 -220,-57 -380,-153 -380,-306 0,-95 19,-196 56,-289 36,-89 88,-172 156,-238 80,-78 243,-132 357,-166 54,-16 100,-30 156,-63 -155,-13 -317,-57 -420,-212 -25,-37 -22,-85 5,-118 56,-77 94,-213 118,-359 40,-240 42,-500 33,-605 -12,-127 28,-261 102,-371 119,-178 306,-273 520,-250z"/>
</svg>