<?xml version="1.0" encoding="UTF-8"?>
<!DOCTYPE svg PUBLIC "-//W3C//DTD SVG 1.1//EN" "http://www.w3.org/Graphics/SVG/1.1/DTD/svg11.dtd">
<svg xmlns="http://www.w3.org/2000/svg" xml:space="preserve" width="580px" height="580px" shape-rendering="geometricPrecision" text-rendering="geometricPrecision" image-rendering="optimizeQuality" fill-rule="nonzero" clip-rule="nonzero" viewBox="0 0 5800 5800" xmlns:xlink="http://www.w3.org/1999/xlink">
	<title>user_monitor icon</title>
	<desc>user_monitor icon from the IconExperience.com I-Collection. Copyright by INCORS GmbH (www.incors.com).</desc>
		<path id="curve29"  d="M2613 1633l-32 -497c-3,-45 2,-102 9,-147 35,-216 155,-387 320,-505 161,-115 365,-180 574,-183 171,-4 314,24 460,113 78,-28 157,-37 234,-29 249,24 476,208 582,429 48,100 72,208 63,315l-33 504c48,189 -16,407 -185,514 -56,185 -163,422 -292,567 3,68 8,146 25,216 16,71 45,133 93,161 -8,16 242,103 264,109 158,47 397,124 508,230 97,92 171,207 221,330 53,131 79,271 79,405 0,198 -221,324 -526,402 -396,101 -949,133 -1275,133 -161,0 -377,-8 -602,-28l0 -1772c0,-28 -6,-54 -16,-79 4,-37 6,-73 7,-106 -129,-145 -236,-384 -293,-568 -167,-107 -232,-326 -185,-514z"/>
	<path id="curve28"  d="M1000,5300 1500,5300 1500,4900 300,4900 300,2900 2900,2900 2900,4900 1700,4900 1700,5300 2200,5300 2200,5500 1000,5500z"/>
</svg>