<?xml version="1.0" encoding="UTF-8"?>
<!DOCTYPE svg PUBLIC "-//W3C//DTD SVG 1.1//EN" "http://www.w3.org/Graphics/SVG/1.1/DTD/svg11.dtd">
<svg xmlns="http://www.w3.org/2000/svg" xml:space="preserve" width="580px" height="580px" shape-rendering="geometricPrecision" text-rendering="geometricPrecision" image-rendering="optimizeQuality" fill-rule="nonzero" clip-rule="nonzero" viewBox="0 0 5800 5800" xmlns:xlink="http://www.w3.org/1999/xlink">
	<title>user_earth icon</title>
	<desc>user_earth icon from the IconExperience.com I-Collection. Copyright by INCORS GmbH (www.incors.com).</desc>
		<path id="curve29"  d="M5421 1767c46,169 70,345 70,527 0,551 -223,1050 -584,1411 -315,315 -735,525 -1202,573 -44,-68 -96,-132 -155,-190 474,-14 903,-212 1216,-525 325,-324 525,-773 525,-1269 0,-109 -9,-216 -28,-319 -9,40 -27,113 -145,192 -55,74 104,155 1,288 -56,70 -127,164 -161,247 -17,41 -22,70 -17,113 17,157 -31,197 -104,326 -62,108 -107,191 -190,286 -49,57 -231,257 -312,154 -17,-20 -137,-398 -134,-420 11,-82 54,-126 56,-215 1,-67 -77,-166 -90,-238 -2,-9 -16,-95 -23,-101 -77,-79 -68,-180 -177,-143 -78,26 -217,96 -294,65 -141,-57 -279,-198 -309,-350 -7,-34 18,-191 22,-243 4,-62 32,-121 68,-171 14,-20 31,-38 48,-55 19,-18 93,-77 102,-93 28,-50 69,-123 128,-139 -30,-5 -60,-16 -85,-28 -78,-37 -69,-167 -40,-232 38,-83 111,-120 200,-120 36,0 70,2 104,-7 22,-6 71,-61 98,-78 40,-27 -48,-91 -12,-163 32,-63 117,-69 173,-96 32,-16 70,-59 111,-75 -7,-4 -14,-7 -21,-10 -173,-82 -362,-137 -561,-159 -5,15 -17,29 -40,43 -66,38 -70,104 -199,151 -106,39 -206,12 -316,71 -61,32 -158,117 -215,130 -15,3 -31,3 -43,-8 -32,-29 0,-110 11,-144 6,-15 32,-88 28,-101 -16,-21 -118,-6 -161,2 -55,25 -108,52 -160,82 33,19 92,39 94,58 5,55 -107,44 -127,142 -3,14 15,61 25,89 -64,-23 -131,-38 -199,-45 -76,-7 -152,-3 -228,13 -15,-7 -29,-14 -45,-21 -30,-13 -60,-24 -92,-33 379,-409 906,-640 1464,-640 303,0 591,68 849,189 529,249 922,717 1076,1279zm-1136 -467c20,24 45,40 72,56 24,15 56,32 63,61 6,25 -10,48 -29,63 -46,38 -105,24 -79,-44 8,-21 -130,-80 -146,-88 -48,-25 -89,-83 -150,-54 -74,35 -107,156 -186,181 47,-1 91,-11 136,-27 44,-15 179,-26 222,-11 148,51 94,205 223,226 18,3 54,0 73,0 21,-1 59,-3 79,0 72,13 125,44 196,9 34,-17 50,-81 23,-110 -81,-88 -277,-35 -317,-82 -22,-24 -43,-65 -59,-93 -27,-46 -54,-108 -121,-87z"/>
	<path id="curve28"  d="M2534 4059c-107,-60 -162,-170 -190,-289 -25,-104 -29,-214 -31,-298 -1,-29 11,-55 30,-74 52,-51 104,-132 150,-221 60,-114 107,-238 132,-329 8,-29 28,-52 53,-64 52,-25 88,-70 108,-123 24,-62 26,-133 8,-196 -4,-11 -5,-23 -4,-34l34 -522c6,-73 -10,-146 -44,-214 -39,-83 -102,-159 -177,-216 -122,-93 -280,-140 -424,-70 -34,16 -71,12 -100,-8 -44,-27 -79,-48 -113,-63 -34,-15 -71,-25 -123,-34 -211,-33 -442,11 -617,136 -124,89 -214,216 -239,374 -5,33 -8,67 -7,103l34 514c1,13 -1,26 -5,38 -18,61 -15,131 9,192 20,53 56,98 108,123 28,14 47,40 54,69 25,91 72,212 130,324 47,89 99,171 151,221 20,20 30,45 30,71 0,83 -6,196 -32,302 -30,119 -86,230 -189,288 -118,71 -204,97 -305,127 -56,16 -110,33 -164,52 -91,33 -204,73 -263,130 -75,72 -133,162 -173,261 -43,106 -65,221 -65,330 0,83 158,152 376,208 377,96 911,127 1226,127 315,0 848,-31 1226,-127 217,-56 375,-125 375,-208 0,-109 -21,-224 -64,-330 -41,-98 -98,-189 -173,-261 -60,-57 -173,-97 -264,-130 -54,-19 -108,-36 -163,-52 -102,-30 -188,-56 -305,-127zm99 -174c98,61 174,83 262,109 59,18 117,36 175,57 108,39 244,88 333,173 97,92 171,207 221,330 53,130 79,271 79,405 0,197 -221,324 -526,402 -396,101 -949,133 -1275,133 -326,0 -880,-32 -1275,-133 -306,-78 -527,-205 -527,-402 0,-134 27,-275 80,-405 50,-123 124,-238 220,-330 90,-85 225,-134 334,-173 53,-25 117,-40 174,-57 88,-26 162,-48 261,-108 50,-28 78,-91 96,-163 18,-71 24,-149 26,-215 -57,-64 -111,-149 -158,-240 -57,-109 -105,-229 -135,-327 -79,-51 -134,-125 -166,-209 -38,-97 -44,-207 -19,-305l-33 -500c0,-51 3,-99 10,-144 35,-216 155,-388 320,-506 216,-155 502,-211 764,-170 69,12 121,27 171,48 34,15 66,32 99,52 201,-72 414,-13 580,113 100,76 183,177 236,288 48,100 72,208 63,316l-33 503c25,99 20,209 -18,305 -32,84 -87,158 -167,209 -30,98 -77,218 -134,328 -47,90 -101,174 -158,239 3,67 8,146 25,216 16,71 45,133 95,161z"/>
</svg>