<?xml version="1.0" encoding="UTF-8"?>
<!DOCTYPE svg PUBLIC "-//W3C//DTD SVG 1.1//EN" "http://www.w3.org/Graphics/SVG/1.1/DTD/svg11.dtd">
<svg xmlns="http://www.w3.org/2000/svg" xml:space="preserve" width="580px" height="580px" shape-rendering="geometricPrecision" text-rendering="geometricPrecision" image-rendering="optimizeQuality" fill-rule="nonzero" clip-rule="nonzero" viewBox="0 0 5800 5800" xmlns:xlink="http://www.w3.org/1999/xlink">
	<title>users4 icon</title>
	<desc>users4 icon from the IconExperience.com I-Collection. Copyright by INCORS GmbH (www.incors.com).</desc>
		<path id="curve28"  d="M3880 5396c-305,79 -730,104 -980,104 -250,0 -675,-25 -980,-104 -244,-64 -420,-168 -420,-334 0,-106 21,-218 63,-322 39,-99 97,-191 173,-264 89,-86 272,-147 398,-185 65,-19 121,-36 190,-79 2,-1 4,-3 6,-4 35,-19 27,-122 20,-207 -1,-20 -3,-38 -4,-56 -88,-105 -123,-239 -156,-366l-2 -7c-127,-88 -177,-257 -145,-404 -12,-52 -22,-105 -30,-157 -24,-168 -22,-341 33,-487 73,-192 219,-301 418,-338 123,-102 324,-145 526,-132 388,24 700,227 784,617 32,143 27,307 -17,496 32,149 -17,317 -145,405l-3 11c-32,124 -66,256 -155,361 -1,24 -2,47 -4,70 -7,81 -14,172 17,193 2,1 4,2 6,3 71,45 127,61 193,81 127,39 309,98 398,185 76,73 134,165 173,264 42,104 63,216 63,322 0,166 -176,270 -420,334zm-1716 -4061c-1,-16 -1,-33 -1,-49 0,-147 42,-317 134,-461 138,-215 352,-325 603,-325 251,0 465,110 603,325 92,144 134,314 134,461 0,20 0,41 -2,60 -19,12 -38,24 -55,37 -159,115 -275,283 -310,495 -1,7 -2,14 -3,21 -86,-24 -176,-39 -265,-45 -162,-10 -327,12 -467,66 -15,-125 -62,-247 -132,-351 -63,-93 -144,-175 -239,-234zm1297 635c1,-20 3,-40 6,-60 26,-156 112,-280 230,-365 114,-83 258,-128 406,-131 45,-1 90,2 134,9 50,8 88,20 123,35 20,9 39,19 58,30 52,-16 104,-21 156,-16 90,8 176,46 249,101 70,54 130,126 168,206 37,74 56,155 49,235l-22 345c32,136 -12,292 -129,374 -21,67 -53,147 -90,221 -30,59 -65,115 -103,161 2,41 6,88 16,131 9,41 24,76 48,90l3 2c61,38 110,53 168,70 115,35 276,88 357,166 68,66 120,149 156,238 37,94 56,194 56,289 0,153 -160,249 -380,306 -238,62 -558,87 -783,92 -38,-60 -83,-117 -134,-166 -120,-116 -317,-184 -480,-233 -38,-12 -72,-22 -107,-38 93,-114 132,-224 172,-377 139,-130 197,-326 172,-512 43,-203 45,-383 10,-545 -63,-288 -244,-531 -509,-658zm-2078 -541c56,6 112,21 167,44 55,-23 111,-38 167,-44 214,-22 400,72 520,250 66,99 105,216 104,332 -254,73 -403,236 -482,443 -68,181 -72,387 -44,585 7,45 15,90 25,135 -25,186 34,381 172,511 34,128 77,259 172,377 -35,16 -69,26 -107,38 -163,49 -360,117 -480,233 -51,49 -96,105 -134,165 -224,-5 -544,-29 -783,-91 -220,-58 -380,-153 -380,-307 0,-95 19,-195 56,-289 36,-89 88,-171 156,-237 80,-78 243,-132 357,-166 54,-17 100,-30 156,-64 -155,-12 -317,-57 -420,-212l-39 -58 42 -57c57,-76 95,-213 120,-362 40,-240 42,-500 33,-604 -12,-128 28,-262 102,-372 119,-178 306,-272 520,-250z"/>
</svg>