<?xml version="1.0" encoding="UTF-8"?>
<!DOCTYPE svg PUBLIC "-//W3C//DTD SVG 1.1//EN" "http://www.w3.org/Graphics/SVG/1.1/DTD/svg11.dtd">
<svg xmlns="http://www.w3.org/2000/svg" xml:space="preserve" width="580px" height="580px" shape-rendering="geometricPrecision" text-rendering="geometricPrecision" image-rendering="optimizeQuality" fill-rule="nonzero" clip-rule="nonzero" viewBox="0 0 5800 5800" xmlns:xlink="http://www.w3.org/1999/xlink">
	<title>user_headset icon</title>
	<desc>user_headset icon from the IconExperience.com I-Collection. Copyright by INCORS GmbH (www.incors.com).</desc>
		<path id="curve29"  d="M3700 1300l0 200 0 1000c0,35 6,69 17,100l-77 0 -6 -7c-1,1 -3,2 -5,3 6,-4 12,-8 5,-3l6 7 -19 0c2,-1 5,-2 8,-4 -10,2 -31,4 -69,4l-113 0c-79,-62 -184,-100 -297,-100 -225,0 -450,160 -450,400 0,240 225,400 450,400 113,0 218,-38 297,-100 56,0 113,2 168,-2 -14,20 -29,38 -44,55 2,78 8,171 28,255 19,82 52,155 107,189 119,61 171,88 300,127 178,53 440,139 563,258 106,103 187,232 243,371 58,146 88,303 88,453 0,216 -243,356 -579,443 -442,115 -1058,151 -1421,151 -363,0 -979,-36 -1421,-151 -336,-87 -579,-227 -579,-443 0,-149 30,-307 88,-454 56,-138 137,-267 243,-370 122,-119 385,-205 563,-258 120,-36 187,-63 296,-126 56,-31 90,-107 111,-192 20,-83 27,-176 29,-252 -118,-134 -213,-329 -277,-496 88,-52 147,-148 147,-258l0 -1200c0,-163 89,-304 212,-404 163,-134 379,-196 588,-196 209,0 425,62 588,196 123,100 212,241 212,404z"/>
	<path id="curve28"  d="M3162 2700c98,0 182,40 228,100l230 0c154,0 319,-35 367,-201 -49,-6 -87,-48 -87,-99l0 -1200c0,-511 -543,-800 -1000,-800 -457,0 -1000,289 -1000,800l0 1200c0,55 -45,100 -100,100l-300 0c-220,0 -400,-180 -400,-400l0 -600c0,-220 180,-400 400,-400l206 0c68,-574 658,-900 1194,-900 536,0 1126,326 1194,900l206 0c220,0 400,180 400,400l0 600c0,220 -180,400 -400,400l-108 0c-51,291 -300,400 -572,400l-230 0c-46,60 -130,100 -228,100 -144,0 -262,-90 -262,-200 0,-110 118,-200 262,-200z"/>
</svg>