<?xml version="1.0" encoding="UTF-8"?>
<!DOCTYPE svg PUBLIC "-//W3C//DTD SVG 1.1//EN" "http://www.w3.org/Graphics/SVG/1.1/DTD/svg11.dtd">
<svg xmlns="http://www.w3.org/2000/svg" xml:space="preserve" width="580px" height="580px" shape-rendering="geometricPrecision" text-rendering="geometricPrecision" image-rendering="optimizeQuality" fill-rule="nonzero" clip-rule="nonzero" viewBox="0 0 5800 5800" xmlns:xlink="http://www.w3.org/1999/xlink">
	<title>user_earth icon</title>
	<desc>user_earth icon from the IconExperience.com I-Collection. Copyright by INCORS GmbH (www.incors.com).</desc>
		<path id="curve29"  d="M813 2427l-32 -497c-3,-46 2,-103 9,-147 35,-216 155,-388 320,-506 161,-115 365,-179 574,-183 171,-3 314,25 460,113 78,-28 157,-36 234,-28 249,23 476,208 582,429 48,100 72,208 63,314l-33 505c48,188 -16,407 -185,514 -56,185 -163,422 -292,567 3,67 8,146 25,216 16,71 45,133 93,160 88,55 167,81 264,110 158,47 397,124 508,230 97,92 171,207 221,330 53,130 79,271 79,405 0,197 -221,324 -526,402 -396,101 -949,133 -1275,133 -326,0 -880,-32 -1275,-133 -306,-78 -527,-205 -527,-402 0,-134 27,-275 80,-405 50,-123 124,-238 220,-330 112,-106 350,-183 508,-230 108,-32 166,-55 264,-110 47,-26 75,-89 93,-161 18,-71 24,-149 26,-215 -129,-145 -236,-383 -293,-567 -167,-107 -232,-326 -185,-514z"/>
	<path id="curve28"  d="M3500 300c1105,0 2000,895 2000,2000 0,1033 -783,1883 -1788,1989 -48,-77 -105,-147 -171,-210 -144,-137 -399,-221 -589,-277 -74,-21 -141,-43 -207,-82 -5,-13 -10,-32 -13,-42 -8,-33 -12,-69 -15,-104 110,-147 200,-338 259,-511 186,-156 264,-414 216,-652l31 -475c12,-141 -20,-286 -83,-415 -113,-236 -330,-432 -582,-509 -14,-38 -27,-72 -23,-90 22,-108 132,-105 129,-140 0,-2 -40,-16 -74,-35 -112,65 -216,143 -311,230 -37,3 -74,8 -111,16 -44,-22 -89,-39 -134,-53 365,-394 887,-640 1466,-640zm0 200c-215,0 -422,38 -613,107 21,3 37,8 44,18 27,36 -110,271 -17,249 59,-13 147,-103 249,-147 100,-43 190,-20 289,-56 134,-49 159,-129 199,-153 6,-3 11,-7 15,-10 -55,-5 -110,-8 -166,-8zm1771 1477c-103,-568 -473,-1044 -975,-1292 -37,17 -76,59 -107,74 -48,23 -139,34 -166,88 -33,67 67,132 5,173 -52,35 -70,72 -105,82 -85,24 -157,-19 -245,52 -92,73 -90,242 -20,276 72,35 178,53 225,-16 28,-40 97,-126 133,-143 74,-35 121,30 170,55 94,48 174,74 158,115 -30,78 83,21 71,-22 -10,-39 -88,-50 -142,-122 -17,-22 87,-42 122,7 32,46 76,134 101,162 30,34 235,-12 322,82 36,39 18,120 -29,144 -79,39 -122,9 -212,-7 -17,-3 -137,2 -154,0 -147,-25 -88,-182 -231,-231 -28,-10 -159,-7 -212,11 -228,81 -230,-61 -357,162 -15,28 -108,88 -154,153 -33,46 -61,103 -65,164 -3,40 -25,227 -22,241 29,146 162,286 301,341 69,28 197,-37 285,-66 97,-34 103,4 144,76 72,126 53,10 86,188 11,62 93,175 91,245 -2,108 -44,128 -57,222 -1,11 117,393 132,411 72,91 280,-128 385,-286 17,-26 180,-312 183,-321 68,-204 -105,-150 197,-538 99,-127 -69,-201 -1,-292 10,-14 74,-19 102,-66 21,-35 30,-85 41,-122z"/>
</svg>