<?xml version="1.0" encoding="UTF-8"?>
<!DOCTYPE svg PUBLIC "-//W3C//DTD SVG 1.1//EN" "http://www.w3.org/Graphics/SVG/1.1/DTD/svg11.dtd">
<svg xmlns="http://www.w3.org/2000/svg" xml:space="preserve" width="580px" height="580px" shape-rendering="geometricPrecision" text-rendering="geometricPrecision" image-rendering="optimizeQuality" fill-rule="nonzero" clip-rule="nonzero" viewBox="0 0 5800 5800" xmlns:xlink="http://www.w3.org/1999/xlink">
	<title>users icon</title>
	<desc>users icon from the IconExperience.com I-Collection. Copyright by INCORS GmbH (www.incors.com).</desc>
		<path id="curve29"  d="M2929 1505c-10,-144 -27,-306 -29,-449 -1,-47 2,-91 9,-133 32,-195 139,-350 287,-457 144,-104 326,-162 513,-165 150,-3 278,21 407,100 67,-24 136,-31 204,-25 111,10 218,57 308,126 89,68 163,158 212,258 45,92 69,194 61,293l-30 452c42,170 -14,368 -164,467 -50,165 -143,374 -256,506 2,59 7,127 21,189 13,54 31,108 81,138 84,53 149,72 226,96 145,43 353,111 453,209 86,83 152,187 197,299 47,119 71,246 71,366 0,183 -199,299 -473,370 -351,92 -840,120 -1127,120 -131,0 -304,-6 -487,-21 -14,-15 -27,-29 -42,-42 -84,-83 -187,-132 -281,-170 69,-49 132,-111 185,-191l117 -175 -128 -170c-56,-75 -97,-228 -125,-399 -12,-75 -22,-151 -29,-225 42,-15 85,-34 134,-64 53,-36 69,-83 83,-143 10,3 22,-171 23,-187 -113,-131 -207,-341 -257,-506 -150,-99 -206,-297 -164,-467z"/>
	<path id="curve28"  d="M1678 1556c75,8 149,28 222,59 72,-31 147,-51 222,-59 270,-26 496,85 649,313 92,138 143,305 128,465 -12,138 -9,480 43,796 33,198 85,381 163,485l42 57 -39 58c-91,138 -226,206 -370,239 -83,19 -166,26 -246,29 14,14 33,27 57,40 87,49 135,69 230,97 145,44 353,112 453,209 86,84 152,188 197,300 47,118 71,245 71,366 0,183 -199,299 -473,370 -351,91 -840,120 -1127,120 -287,0 -776,-29 -1127,-120 -274,-71 -473,-187 -473,-370 0,-120 24,-248 71,-366 45,-112 111,-216 197,-300 100,-97 309,-165 453,-209 77,-23 142,-42 226,-95l3 -2c24,-13 43,-26 57,-40 -221,-7 -468,-47 -615,-268l-39 -58 42 -57c78,-104 130,-287 163,-485 52,-316 55,-658 43,-796 -15,-160 36,-327 128,-465 150,-223 382,-341 649,-313z"/>
</svg>