<?xml version="1.0" encoding="UTF-8"?>
<!DOCTYPE svg PUBLIC "-//W3C//DTD SVG 1.1//EN" "http://www.w3.org/Graphics/SVG/1.1/DTD/svg11.dtd">
<svg xmlns="http://www.w3.org/2000/svg" xml:space="preserve" width="580px" height="580px" shape-rendering="geometricPrecision" text-rendering="geometricPrecision" image-rendering="optimizeQuality" fill-rule="nonzero" clip-rule="nonzero" viewBox="0 0 5800 5800" xmlns:xlink="http://www.w3.org/1999/xlink">
	<title>user_headphones icon</title>
	<desc>user_headphones icon from the IconExperience.com I-Collection. Copyright by INCORS GmbH (www.incors.com).</desc>
		<path id="curve29"  d="M2430 3215c0,93 -6,219 -36,338 -32,133 -93,255 -204,319 -131,80 -227,109 -339,143 -62,19 -123,38 -184,60 -102,38 -229,84 -297,150 -86,83 -151,188 -197,301 -48,122 -73,254 -73,380 0,103 180,186 429,250 421,110 1018,144 1371,144 353,0 950,-34 1371,-144 249,-64 429,-147 429,-250 0,-126 -25,-258 -73,-380 -46,-113 -111,-218 -197,-301 -68,-66 -195,-112 -298,-150 -61,-22 -121,-41 -183,-60 -113,-34 -210,-63 -343,-146 -113,-67 -171,-186 -201,-316 -28,-116 -32,-241 -35,-336 0,-28 11,-54 30,-73l0 0c59,-59 118,-152 170,-254 58,-113 105,-234 136,-332 16,85 69,157 141,200 -28,73 -61,150 -98,223 -53,102 -113,199 -178,272 2,78 8,171 28,255 19,82 52,155 110,190 113,70 198,96 297,126 66,20 130,40 194,64 121,44 271,99 369,194 106,103 187,232 243,371 58,146 88,303 88,453 0,216 -243,356 -579,443 -442,115 -1058,151 -1421,151 -363,0 -979,-36 -1421,-151 -336,-87 -579,-227 -579,-443 0,-149 30,-307 88,-454 56,-138 137,-267 243,-370 123,-119 387,-206 563,-258 98,-30 182,-55 293,-124 59,-33 93,-109 114,-194 20,-83 27,-176 29,-252 -65,-73 -126,-171 -178,-274 -37,-73 -71,-149 -99,-222 72,-43 125,-115 141,-200 31,99 79,219 136,331 52,104 112,197 170,255 20,19 30,45 30,71z"/>
	<path id="curve28"  d="M4300 1400l-200 0 0 1000 200 0c110,0 200,-90 200,-200l0 -600c0,-111 -89,-200 -200,-200zm-2594 -200c28,-240 158,-454 353,-614 216,-177 514,-286 841,-286 327,0 625,109 841,286 195,160 325,374 353,614l206 0c220,0 400,180 400,400l0 600c0,220 -180,400 -400,400l-300 0c-55,0 -100,-45 -100,-100l0 -1200c0,-217 -109,-415 -285,-559 -182,-149 -435,-241 -715,-241 -280,0 -533,92 -715,241 -176,144 -285,342 -285,559l0 1200c0,55 -45,100 -100,100l-300 0c-220,0 -400,-180 -400,-400l0 -600c0,-220 180,-400 400,-400l206 0zm-6 200l-200 0c-111,0 -200,89 -200,200l0 600c0,110 90,200 200,200l200 0 0 -1000z"/>
</svg>