<?xml version="1.0" encoding="UTF-8"?>
<!DOCTYPE svg PUBLIC "-//W3C//DTD SVG 1.1//EN" "http://www.w3.org/Graphics/SVG/1.1/DTD/svg11.dtd">
<svg xmlns="http://www.w3.org/2000/svg" xml:space="preserve" width="580px" height="580px" shape-rendering="geometricPrecision" text-rendering="geometricPrecision" image-rendering="optimizeQuality" fill-rule="nonzero" clip-rule="nonzero" viewBox="0 0 5800 5800" xmlns:xlink="http://www.w3.org/1999/xlink">
	<title>user_smartphone icon</title>
	<desc>user_smartphone icon from the IconExperience.com I-Collection. Copyright by INCORS GmbH (www.incors.com).</desc>
		<path id="curve29"  d="M2734 1493c-11,-170 -32,-359 -34,-527 -1,-53 2,-104 10,-153 37,-223 160,-400 329,-522 165,-120 374,-187 588,-190 177,-4 322,25 473,118 78,-29 159,-38 238,-30 254,23 483,213 593,438 52,106 79,222 70,336l-35 530c49,195 -15,422 -188,533 -58,194 -168,444 -302,596 2,71 8,155 26,230 17,76 47,142 98,171 92,58 169,85 271,115 164,50 408,130 522,241 98,95 174,215 225,344 54,136 82,282 82,421 0,204 -227,335 -539,417 -408,106 -976,139 -1311,139 -243,0 -611,-18 -950,-68l0 -1516c161,-52 256,-92 298,-265 19,-75 25,-159 27,-228 -133,-152 -245,-404 -303,-597 -172,-111 -237,-339 -188,-533z"/>
	<path id="curve28"  d="M654 1900l1692 0c194,0 354,160 354,354l0 2892c0,194 -160,354 -354,354l-1692 0c-194,0 -354,-160 -354,-354l0 -2892c0,-195 159,-354 354,-354zm646 500l400 0c55,0 100,-45 100,-100 0,-55 -45,-100 -100,-100l-400 0c-55,0 -100,45 -100,100 0,55 45,100 100,100zm200 2400c-110,0 -200,90 -200,200 0,110 90,200 200,200 110,0 200,-90 200,-200 0,-110 -90,-200 -200,-200zm800 -2300l-1600 0 0 2200 1600 0 0 -2200z"/>
</svg>