<?xml version="1.0" encoding="UTF-8"?>
<!DOCTYPE svg PUBLIC "-//W3C//DTD SVG 1.1//EN" "http://www.w3.org/Graphics/SVG/1.1/DTD/svg11.dtd">
<svg xmlns="http://www.w3.org/2000/svg" xml:space="preserve" width="580px" height="580px" shape-rendering="geometricPrecision" text-rendering="geometricPrecision" image-rendering="optimizeQuality" fill-rule="nonzero" clip-rule="nonzero" viewBox="0 0 5800 5800" xmlns:xlink="http://www.w3.org/1999/xlink">
	<title>users2 icon</title>
	<desc>users2 icon from the IconExperience.com I-Collection. Copyright by INCORS GmbH (www.incors.com).</desc>
		<path id="curve29" d="M3840 3435c-83,51 -143,69 -214,90 -36,11 -73,23 -109,36 -58,21 -131,48 -166,82 -47,46 -84,104 -109,168 -28,69 -42,144 -42,216 0,39 97,78 230,113 251,65 608,86 820,86 212,0 569,-21 820,-86 133,-35 230,-74 230,-113 0,-72 -14,-147 -42,-216 -25,-64 -62,-122 -109,-168 -35,-34 -108,-61 -166,-82 -36,-13 -72,-25 -109,-36 -71,-21 -131,-39 -214,-90 -81,-47 -122,-129 -143,-218 -17,-74 -20,-152 -22,-212 0,-28 11,-54 30,-73 32,-32 66,-85 96,-144 39,-76 70,-159 86,-220 8,-30 29,-53 56,-65 25,-14 44,-38 54,-66 14,-37 16,-79 5,-116 -4,-11 -5,-23 -4,-34l23 -356c3,-52 -5,-92 -28,-139 -26,-52 -65,-99 -112,-135 -44,-34 -95,-57 -145,-61 -35,-4 -71,2 -104,18 -33,16 -70,13 -98,-5 0,0 -66,-39 -74,-42 -21,-10 -44,-16 -75,-21 -33,-6 -66,-8 -99,-7 -199,3 -407,118 -442,329 -1,5 -7,66 -5,66l23 353c1,14 -1,27 -5,39 -9,35 -7,75 6,111 11,29 30,54 57,67 27,13 45,37 53,64 16,61 48,144 86,220 31,59 64,112 96,144 20,19 30,45 30,71 11,0 -19,199 -23,217 -23,90 -65,171 -142,215zm-52 -263c11,-44 15,-91 16,-132 -37,-45 -72,-102 -103,-161 -37,-74 -69,-153 -90,-220 -54,-38 -92,-92 -115,-152 -26,-70 -31,-150 -14,-223l-22 -337c-2,-35 2,-77 7,-111 51,-309 338,-491 636,-497 45,0 90,3 134,10 50,8 88,19 123,35 20,9 39,18 58,30 52,-17 104,-22 156,-17 90,9 176,46 249,102 70,54 130,126 168,205 40,81 53,150 49,240l-22 340c17,73 13,153 -14,223 -23,60 -61,114 -115,152 -21,67 -53,146 -90,220 -30,59 -65,116 -103,161 2,42 6,89 16,131 7,34 19,74 51,92 61,39 110,53 168,71 41,12 80,25 120,39 76,28 171,63 237,127 68,66 120,149 156,238 37,93 56,193 56,289 0,153 -160,249 -380,306 -271,70 -648,93 -870,93 -222,0 -599,-23 -870,-93 -220,-57 -380,-153 -380,-306 0,-96 19,-196 56,-290 36,-89 88,-171 156,-237 66,-64 161,-99 237,-127 40,-15 80,-27 120,-39 57,-17 105,-32 165,-69 35,-23 44,-53 54,-93z"/>
	<path id="curve28" d="M1166 1374c72,-21 144,-27 217,-19 56,6 112,20 167,43 55,-23 111,-37 167,-43 73,-8 145,-2 217,19 247,70 428,348 405,602 -9,105 -7,365 33,605 25,148 63,285 120,362l43 56 -39 59c-74,111 -182,166 -298,193 -42,9 -83,15 -124,19 56,33 103,47 157,63 41,12 80,25 120,40 76,28 171,62 237,126 68,66 120,149 156,238 37,93 56,194 56,289 0,153 -160,249 -380,306 -271,71 -648,93 -870,93 -222,0 -599,-22 -870,-93 -220,-57 -380,-153 -380,-306 0,-95 19,-196 56,-289 36,-89 88,-172 156,-238 66,-64 161,-98 237,-126 40,-15 80,-28 120,-40 54,-16 100,-30 156,-63 -155,-13 -317,-57 -420,-212l-39 -59 42 -56c57,-77 95,-214 120,-362 40,-240 42,-500 33,-605 -23,-254 158,-532 405,-602zm791 2058c-47,-27 -83,-56 -110,-95 -28,-40 -44,-88 -51,-152l-12 -110 111 0c81,0 177,0 258,-19 51,-12 98,-31 136,-64 -54,-102 -90,-238 -114,-379 -43,-256 -45,-539 -34,-655 14,-159 -106,-348 -262,-392 -47,-14 -94,-18 -140,-13 -49,5 -98,20 -144,44l-45 22 -45 -22c-47,-24 -95,-39 -144,-44 -46,-5 -93,-1 -140,13 -156,44 -276,233 -262,392 11,116 9,399 -34,655 -23,141 -60,277 -114,379 98,83 265,83 394,83l112 0 -13 112c-7,63 -24,110 -53,151 -28,41 -64,69 -111,96 -83,51 -143,69 -214,91 -74,22 -227,71 -275,117 -47,46 -84,105 -109,168 -28,69 -42,144 -42,216 0,40 97,79 230,113 251,65 608,86 820,86 212,0 569,-20 820,-86 133,-34 230,-73 230,-113 0,-72 -14,-147 -42,-216 -25,-63 -62,-122 -109,-168 -35,-34 -108,-60 -166,-82 -36,-13 -72,-24 -109,-35 -72,-22 -132,-40 -217,-93z"/>
</svg>