<?xml version="1.0" encoding="UTF-8"?>
<!DOCTYPE svg PUBLIC "-//W3C//DTD SVG 1.1//EN" "http://www.w3.org/Graphics/SVG/1.1/DTD/svg11.dtd">
<svg xmlns="http://www.w3.org/2000/svg" xml:space="preserve" width="580px" height="580px" shape-rendering="geometricPrecision" text-rendering="geometricPrecision" image-rendering="optimizeQuality" fill-rule="nonzero" clip-rule="nonzero" viewBox="0 0 5800 5800" xmlns:xlink="http://www.w3.org/1999/xlink">
	<title>users5 icon</title>
	<desc>users5 icon from the IconExperience.com I-Collection. Copyright by INCORS GmbH (www.incors.com).</desc>
		<path id="curve28"  d="M2545 3905c0,24 2,52 4,81 11,143 25,313 -119,396 -120,65 -238,104 -367,143 -66,24 -147,54 -188,94 -55,53 -98,121 -127,194 -32,80 -48,166 -48,249 0,52 113,100 270,141 285,74 690,97 930,97 240,0 645,-23 930,-97 157,-41 270,-89 270,-141 0,-83 -16,-169 -48,-248 -29,-74 -72,-142 -127,-195 -42,-41 -125,-71 -192,-96 -42,-14 -82,-28 -124,-40 -90,-27 -164,-53 -244,-105 -139,-83 -126,-240 -115,-379 3,-36 6,-69 5,-92 0,-28 11,-54 30,-73 72,-71 102,-190 131,-301l14 -52c8,-30 29,-53 55,-65l69 -82c16,-43 18,-94 5,-138 -1,-4 -1,-52 -1,-52 41,-168 47,-311 21,-431 -65,-301 -304,-442 -600,-460 -165,-10 -322,21 -398,98 -18,17 -39,27 -62,29 -134,20 -237,84 -286,215 -42,110 -42,249 -22,387 8,55 19,110 31,162 5,19 4,38 -2,56 -12,43 -9,92 7,134 13,36 37,67 71,84 27,13 45,37 52,63 1,0 12,46 13,48 30,114 61,235 132,305 20,19 30,45 30,71zm-356 -330c-61,-45 -104,-104 -129,-170 -28,-75 -34,-160 -17,-237 -12,-52 -22,-105 -30,-157 -24,-168 -22,-341 33,-487 73,-192 219,-301 418,-338 123,-102 324,-145 526,-132 388,24 700,227 784,617 32,143 27,307 -17,496 17,78 12,163 -17,238 -25,66 -67,125 -128,167 -35,132 -67,265 -158,372 -1,24 -2,47 -4,70 -7,81 -14,172 20,195 74,46 130,62 196,82 11,4 121,38 121,40 96,35 203,73 277,145 76,73 134,165 173,264 42,104 63,216 63,322 0,166 -176,270 -420,334 -305,79 -730,104 -980,104 -250,0 -675,-25 -980,-104 -244,-64 -420,-168 -420,-334 0,-106 21,-218 63,-322 39,-99 97,-191 173,-264 71,-69 174,-108 258,-138 43,-19 95,-33 140,-47 80,-24 124,-41 196,-83 35,-19 27,-122 20,-207 -1,-20 -3,-38 -4,-56 -88,-105 -123,-239 -157,-370zm2251 -1648c-26,-17 -46,-29 -66,-38 -45,-20 -107,-26 -155,-25 -178,3 -365,106 -395,293 -8,45 -3,83 0,128 -51,-74 -116,-149 -187,-206 67,-261 320,-409 579,-414 78,-2 166,9 238,41 18,8 34,16 51,26 47,-14 94,-19 141,-14 167,15 316,137 389,285 34,69 51,145 45,221l-20 312c16,67 11,141 -13,207 -21,55 -57,105 -106,141 -20,61 -48,133 -82,199 -27,54 -59,105 -93,146 2,37 5,78 14,115 8,34 20,64 40,77 58,36 102,49 154,65 106,32 255,81 330,154 63,61 111,138 144,220 34,86 52,179 52,267 0,145 -149,235 -353,288 -247,64 -554,85 -809,85 -38,-61 -83,-117 -135,-167 -14,-14 -28,-26 -43,-38 71,4 136,5 190,5 193,0 518,-19 747,-78 117,-31 203,-64 203,-95 0,-65 -13,-132 -37,-194 -23,-56 -56,-109 -99,-150 -42,-41 -179,-85 -247,-106 -66,-19 -122,-36 -201,-86 -74,-45 -112,-120 -131,-202 -16,-67 -18,-139 -20,-194 0,-29 11,-55 30,-74 29,-28 59,-76 86,-128 35,-70 63,-145 78,-200 8,-30 29,-53 55,-65 22,-12 37,-32 46,-56 12,-31 13,-68 4,-100 -4,-11 -5,-22 -4,-34l21 -325c3,-46 -5,-81 -25,-123 -41,-83 -132,-165 -228,-174 -30,-3 -61,2 -90,16 -33,16 -69,13 -98,-5zm-2459 312c6,-73 -18,-151 -62,-216 -69,-104 -172,-158 -296,-145 -68,7 -114,31 -173,61 -102,-51 -181,-83 -298,-50 -68,19 -128,70 -171,134 -44,65 -68,143 -62,216 10,105 8,365 -31,600 -21,126 -54,248 -102,342 88,69 235,69 349,69l112 0 -13 112c-13,110 -59,178 -154,232 -98,60 -191,79 -296,116 -52,19 -118,43 -148,73 -43,41 -76,93 -99,150 -24,62 -37,129 -37,194 0,31 86,64 203,95 229,59 554,78 747,78 54,0 119,-1 190,-5 -15,12 -29,24 -43,38 -52,50 -97,106 -135,167 -255,0 -562,-21 -809,-85 -204,-53 -353,-143 -353,-288 0,-88 18,-181 52,-267 33,-82 81,-159 145,-220 74,-73 222,-122 329,-154 40,-12 76,-23 116,-43 -135,-15 -273,-60 -363,-195l-39 -59 43 -56c51,-69 86,-193 108,-327 36,-218 38,-455 30,-550 -11,-118 26,-243 94,-344 68,-102 168,-182 282,-215 119,-34 240,-25 353,21 50,-20 101,-33 152,-38 198,-22 371,66 483,232 35,53 62,112 79,173 -73,42 -134,95 -183,154zm539 -512c5,-24 7,-52 7,-82 0,-230 -136,-462 -373,-509 -31,-6 -66,-10 -103,-10 -37,0 -71,4 -103,10 -180,36 -298,173 -348,343 -6,1 -13,1 -19,2 -44,5 -88,14 -131,26 -19,-5 -39,-10 -59,-15 55,-271 238,-496 518,-552 45,-9 92,-14 142,-14 51,0 98,5 143,14 331,66 533,380 533,705 0,31 -2,61 -6,90 15,41 23,86 23,130 -74,12 -144,30 -210,55 3,-7 5,-14 7,-21 7,-36 3,-76 -12,-107 -10,-20 -14,-42 -9,-65zm783 182c-32,-62 -41,-136 -28,-205 -8,-34 -14,-70 -19,-105 -18,-121 -16,-245 24,-351 53,-141 159,-223 305,-252 92,-73 238,-104 383,-94 280,19 506,169 567,451 12,52 17,108 15,167 -6,1 -12,1 -18,2 -47,-20 -96,-35 -161,-45 -7,-1 -14,-3 -21,-4 -1,-27 -5,-53 -10,-78 -42,-194 -196,-281 -385,-294 -107,-7 -207,12 -254,59 -18,17 -39,27 -62,29 -80,12 -142,50 -172,129 -27,71 -27,162 -14,253 6,37 13,74 22,109 4,19 3,38 -3,55 -11,45 1,93 44,117 -22,37 -40,76 -55,118 -50,-24 -103,-44 -158,-61z"/>
</svg>