<?xml version="1.0" encoding="UTF-8"?>
<!DOCTYPE svg PUBLIC "-//W3C//DTD SVG 1.1//EN" "http://www.w3.org/Graphics/SVG/1.1/DTD/svg11.dtd">
<svg xmlns="http://www.w3.org/2000/svg" xml:space="preserve" width="580px" height="580px" shape-rendering="geometricPrecision" text-rendering="geometricPrecision" image-rendering="optimizeQuality" fill-rule="nonzero" clip-rule="nonzero" viewBox="0 0 5800 5800" xmlns:xlink="http://www.w3.org/1999/xlink">
	<title>user_message icon</title>
	<desc>user_message icon from the IconExperience.com I-Collection. Copyright by INCORS GmbH (www.incors.com).</desc>
		<path id="curve29"  d="M1166 2510c1,119 49,246 135,356 50,64 114,122 189,168 3,-68 23,-129 64,-183 73,-97 211,-155 446,-155 72,0 142,-5 210,-14 8,44 20,87 36,128 8,22 18,44 29,65 -89,14 -181,21 -275,21 -165,0 -251,28 -288,76 -33,43 -28,116 -7,205l43 177 -172 -59c-182,-63 -328,-173 -432,-306 -101,-128 -162,-278 -174,-426 -278,-209 -470,-513 -470,-868 0,-335 172,-636 449,-853 270,-211 642,-342 1051,-342 409,0 781,131 1051,343 28,23 55,46 82,70 -84,11 -166,30 -245,57 -232,-167 -544,-270 -888,-270 -364,0 -692,114 -929,299 -229,180 -371,426 -371,696 0,306 180,563 424,734l42 30 0 51z"/>
	<path id="curve28"  d="M2870 4065c-156,95 -303,120 -469,180 -233,83 -338,150 -436,390 -43,106 -65,221 -65,330 0,83 158,153 376,208 377,97 911,127 1226,127 315,0 848,-30 1226,-127 217,-55 375,-125 375,-208 0,-109 -21,-224 -64,-330 -41,-98 -98,-189 -173,-260 -60,-57 -173,-98 -264,-130 -54,-20 -108,-37 -163,-53 -102,-30 -188,-56 -305,-127 -107,-60 -162,-169 -190,-288 -25,-105 -29,-215 -31,-299 -1,-29 11,-55 30,-74 52,-51 104,-132 150,-220 60,-115 107,-238 132,-330 8,-29 28,-51 53,-64 52,-25 88,-70 108,-123 24,-61 26,-132 8,-195 -1,-3 -4,-35 -4,-35l34 -522c14,-167 -96,-334 -221,-430 -122,-93 -280,-139 -424,-70 -34,16 -71,12 -100,-7 -44,-28 -79,-49 -113,-64 -81,-35 -191,-46 -279,-44 -168,3 -332,54 -461,146 -124,89 -214,216 -239,374 -1,9 -11,103 -7,103l34 514c1,13 -1,26 -5,38 -18,62 -15,131 9,192 20,53 56,98 108,123 28,14 47,40 54,69 25,92 72,213 130,324 47,90 99,171 151,221 20,20 30,46 30,72 0,82 -6,195 -32,301 -30,120 -86,230 -189,288zm-101 -172c50,-28 78,-92 96,-164 18,-70 24,-149 26,-214 -57,-64 -111,-150 -158,-240 -57,-110 -105,-229 -135,-328 -79,-50 -134,-125 -166,-209 -38,-96 -44,-206 -19,-305l-32 -497c-3,-45 2,-102 9,-147 35,-216 155,-387 320,-505 161,-115 365,-180 574,-183 118,-3 252,13 361,60 34,15 66,32 99,53 201,-73 414,-14 580,113 181,138 319,368 299,603l-33 503c25,99 20,209 -18,306 -32,83 -87,158 -167,208 -30,98 -77,218 -134,328 -47,90 -101,175 -158,239 3,68 8,146 25,216 16,71 45,133 95,162 98,60 174,82 262,108 59,18 117,36 175,57 108,39 244,88 333,173 97,92 171,207 221,330 53,131 79,271 79,405 0,198 -221,324 -526,402 -396,101 -949,133 -1275,133 -326,0 -880,-32 -1275,-133 -306,-78 -527,-204 -527,-402 0,-134 27,-274 80,-405 119,-294 266,-399 554,-503 149,-54 297,-81 435,-164z"/>
</svg>