<?xml version="1.0" encoding="utf-8"?>
<!-- Generator: Adobe Illustrator 23.1.0, SVG Export Plug-In . SVG Version: 6.00 Build 0)  -->
<svg version="1.1" id="user_x5F_active_x5F_directory"
	 xmlns="http://www.w3.org/2000/svg" xmlns:xlink="http://www.w3.org/1999/xlink" x="0px" y="0px" viewBox="0 0 580 580"
	 style="enable-background:new 0 0 580 580;" xml:space="preserve">
<g>
	<path d="M562,323.2c-4.5-11.3-11.2-21.7-20.1-30.1c-8.3-8-20.6-12.4-30.4-15.9c-5.2-1.8-10.3-3.5-15.5-5.1
		c-7.7-2.2-14.1-4.2-22.4-9.2c-5.1-3.1-3-17-2.5-22.1c0.1-2.7,0.3-5.2,0.5-7.9c10.3-12,14.2-26.9,17.9-41.1l0.3-1.2
		c6.9-4.7,11.9-11.5,14.8-19.1c3.2-8.7,3.9-18.2,2-27.1c5.1-21.5,5.7-40.2,2-56.6c-3.8-17.7-12.5-32.4-25.3-45.1
		c-15.2-15-40.3-23.6-64.7-25.1c-23.4-1.6-46.9,3.3-61.1,15c-2,0.3-3.7,0.7-5.4,1.2c-17.7,4.4-29.7,13.7-37.3,25.9
		c8.8,1.1,17.3,2.9,25.5,5.3c4.5-4,10.2-7.1,17.5-8.9c0.6-0.2,6.5-1.3,6.5-1.3c2.3-0.3,4.6-1.4,6.5-3.2c8.9-8.8,27.3-12.4,46.5-11.1
		s38.8,7.5,49.9,18.5c9.7,9.5,16.1,20.6,18.9,33.6c3,13.7,2.3,29.9-2.4,49c0,0,0,5.5,0.1,6.1c1.5,5,1.3,10.6-0.6,15.6
		c-1.5,3.9-4.3,7.4-8.2,9.4c-2.9,1.4-5.2,3.9-6.1,7.3c-1,3.9-1.4,5-1.6,5.9c-3.3,12.7-6.8,26.2-15,34.2c-2.3,2.2-3.6,5.2-3.6,8.5
		c0.1,2.4-0.2,6.4-0.6,10.3c-1.3,16.2-2.8,34.4,14,43.9c10.6,6.5,18.4,8.7,27.5,11.4c4.8,1.4,9.6,2.8,14.3,4.6
		c7.7,2.8,17.4,6.2,22.3,10.9c6.2,6,11.2,13.7,14.5,22.2c3.7,9,5.5,18.7,5.5,28.1c0,5.8-13,11.2-31.1,15.8c-11,2.8-23.7,5-36.6,6.7
		c1,2.2,2,4.5,2.9,6.8c2,5,3.8,10.1,5.2,15.3c12-1.7,23.6-3.8,34.1-6.5c28.1-7.2,48.5-19.1,48.5-38.1
		C569.3,347.8,566.9,335,562,323.2z"/>
	<path d="M424.3,374c-8.3-8-20.6-12.4-30.4-15.9c-5.2-1.8-10.3-3.5-15.5-5.1c-7.7-2.2-14.1-4.2-22.4-9.2c-5.1-3.1-3-17-2.5-22.1
		c0.1-2.7,0.3-5.2,0.5-7.9c10.3-12,14.2-26.9,17.9-41.1l0.3-1.2c6.9-4.7,11.9-11.5,14.8-19.1c3.2-8.7,3.9-18.2,2-27.1
		c5.1-21.5,5.7-40.2,2-56.6c-3.8-17.7-12.5-32.4-25.3-45.1c-15.2-15-40.3-23.6-64.7-25.1c-23.4-1.6-46.9,3.3-61.1,15
		c-2,0.3-3.7,0.7-5.4,1.2c-22.9,5.7-36.1,19.5-43,37.2c-3.6,9.3-5.3,19.5-5.6,30.1H209c0.3-7.9,1.5-15.3,4-21.8
		c4.2-11,12.6-19.5,27.1-23.1c0.6-0.2,6.5-1.3,6.5-1.3c2.3-0.3,4.6-1.4,6.5-3.2c8.9-8.8,27.3-12.4,46.5-11.1
		c19.3,1.3,38.8,7.5,49.9,18.5c9.7,9.5,16.1,20.6,18.9,33.6c3,13.7,2.3,29.9-2.4,49c0,0,0,5.5,0.1,6.1c1.5,5,1.3,10.6-0.6,15.6
		c-1.5,3.9-4.3,7.4-8.2,9.4c-2.9,1.4-5.2,3.9-6.1,7.3c-1,3.9-1.4,5-1.6,5.9c-3.3,12.7-6.8,26.2-15,34.2c-2.3,2.2-3.6,5.2-3.6,8.5
		c0.1,2.4-0.2,6.4-0.6,10.3c-1.3,16.2-2.8,34.4,14,43.9c10.6,6.5,18.4,8.7,27.5,11.4c4.8,1.4,9.6,2.8,14.3,4.6
		c7.7,2.8,17.4,6.2,22.3,10.9c6.2,6,11.2,13.7,14.5,22.2c3.7,9,5.5,18.7,5.5,28.1c0,5.8-13,11.2-31.1,15.8
		c-20,5.1-45.2,8.1-68.2,9.7v23.1c24.5-1.6,51.8-4.9,73.8-10.5c28.1-7.2,48.5-19.1,48.5-38.1c0-12.1-2.4-24.9-7.3-36.7
		C439.9,392.8,433.2,382.4,424.3,374z"/>
	<path d="M32.9,222.6l-22.2,21.9v56.2L23.1,313l-11.7,11.5v56.2l11.7,11.5l-12.4,12.3v56.2l12,11.9l-12,11.9v56.2
		c7.4,7.3,14.8,14.6,22.2,21.9h235.6c7.4-7.3,14.8-14.6,22.2-21.9v-56.3l-12-11.8l12-11.9v-56.2L279,393l11.7-11.5v-57.8L279,312.2
		l11.7-11.5v-56.2l-22.2-21.9H32.9z M260.4,542.6H41l-10.3-10.1v-39.8L41,482.6h219.4l10.3,10.1v39.8h0L260.4,542.6z M260.4,462.6
		H41l-10.3-10.1v-39.8L41,402.6h219.4l10.3,10.1v39.8h0L260.4,462.6z M271.4,372.5l-10.3,10.1H41.7l-10.3-10.1v-39.8l10.3-10.1
		h219.4l10.3,10.1L271.4,372.5L271.4,372.5z M270.7,292.5l-10.3,10.1H41l-10.3-10.1v-39.8L41,242.6h219.4l10.3,10.1V292.5z"/>
</g>
</svg>
