<?xml version="1.0" encoding="UTF-8"?>
<!DOCTYPE svg PUBLIC "-//W3C//DTD SVG 1.1//EN" "http://www.w3.org/Graphics/SVG/1.1/DTD/svg11.dtd">
<svg xmlns="http://www.w3.org/2000/svg" xml:space="preserve" width="580px" height="580px" shape-rendering="geometricPrecision" text-rendering="geometricPrecision" image-rendering="optimizeQuality" fill-rule="nonzero" clip-rule="nonzero" viewBox="0 0 5800 5800" xmlns:xlink="http://www.w3.org/1999/xlink">
	<title>user icon</title>
	<desc>user icon from the IconExperience.com I-Collection. Copyright by INCORS GmbH (www.incors.com).</desc>
		<path id="curve28"  d="M1639 1856l-39 -598c-3,-54 3,-123 12,-176 40,-250 179,-450 369,-587 186,-135 423,-210 664,-215 204,-3 366,30 539,137 90,-34 182,-45 272,-36 286,27 544,240 667,493 59,119 88,249 78,376l-40 606c56,219 -16,475 -213,599 -66,220 -193,511 -347,684 3,82 9,181 30,270 20,88 55,166 115,202 125,66 180,94 317,135 186,56 462,146 590,270 111,108 196,243 254,389 62,153 93,318 93,475 0,225 -254,370 -605,461 -465,121 -1113,159 -1495,159 -382,0 -1030,-38 -1495,-159 -351,-91 -605,-236 -605,-461 0,-157 31,-322 93,-476 58,-145 143,-280 254,-388 128,-124 404,-214 590,-270 127,-38 198,-66 313,-133 59,-33 96,-112 118,-201 21,-94 30,-178 32,-273 -153,-172 -282,-465 -348,-684 -196,-124 -269,-381 -213,-599z"/>
</svg>