<?xml version="1.0" encoding="utf-8"?>
<!-- Generator: Adobe Illustrator 20.0.0, SVG Export Plug-In . SVG Version: 6.00 Build 0)  -->
<svg version="1.1" id="user_x5F_active_x5F_directory"
	 xmlns="http://www.w3.org/2000/svg" xmlns:xlink="http://www.w3.org/1999/xlink" x="0px" y="0px" width="580px" height="580px"
	 viewBox="0 0 580 580" style="enable-background:new 0 0 580 580;" xml:space="preserve">
<path d="M539.9,441.5c-5.8-14.6-14.3-28.1-25.4-38.9c-10.3-9.9-26-15.7-38.6-20.3c-18-6.7-35.1-9.6-51.8-20
	c-6.3-3.8-9.8-11.6-11.8-20.4c-2.1-8.9-2.7-18.8-3-27c6.8-7.7,13.2-18,18.8-28.8c6.8-13.4,12.4-27.9,15.9-39.6
	c9.3-5.8,15.7-14.5,19.4-24.4c4.3-11.2,4.9-24,1.9-35.5l4-60.6c1-12.7-1.9-25.7-7.8-37.6c-6.2-12.8-15.8-24.4-27.2-33.1
	c-19.1-14.6-43.7-21.3-66.7-12.6c-4.3-2.6-8.1-4.7-12.2-6.6c-12.4-5.4-28.1-7.3-41.7-7.1c-48.2,0.9-95.2,30.1-103.3,80.2
	c-0.9,5.3-1.5,12.2-1.2,17.6L212,170h20l-2.9-44.4c-0.1-4.6,0.3-9,1-13.2c6.5-40.3,45.6-62.7,83.9-63.5c10.6-0.1,23.6,1.2,33.4,5.5
	c4.3,1.9,8.5,4.5,13.9,7.9c2.8,1.8,6.5,2.2,9.7,0.6c17.4-8.5,36.4-3,51.2,8.2c9,6.9,16.6,16.1,21.4,26c4.3,8.8,6.6,18.2,5.8,27.5
	l-4.1,62.4c0,1.1,0.1,2.2,0.4,3.4c2.3,7.9,2,16.9-0.9,24.7c-2.5,6.6-7,12.3-13.3,15.6c-2.7,1.2-4.8,3.5-5.6,6.5
	c-3,11.1-8.6,26.1-15.7,39.8c-5.5,10.8-11.7,20.7-18,26.9c-1.9,1.9-3,4.5-3,7.3c0.3,10,0.8,23.1,3.6,35.3c3.2,13.5,9.3,25.9,21,32.9
	c18.2,11.4,35.7,14.6,55.3,21.7c10.8,3.9,24.3,8.8,31.5,15.8c9.1,8.8,16.1,19.9,20.8,31.9c5.2,12.9,7.8,26.8,7.8,40.2
	c0,11.1-19.1,20-45.5,26.8c-40.3,10.5-96,14.5-133.7,15.1v20c38.8-0.6,96.3-4.8,138.7-15.8c35.1-9.1,60.5-23.6,60.5-46.1
	C549.2,473.3,546.1,456.8,539.9,441.5z"/>
<path d="M310,231.9L287.8,210H52.2L30,231.9v56.2l12.4,12.3l-11.7,11.5v56.2l11.7,11.5L30,391.9v56.2L42,460l-12,11.9v56.2
	c7.4,7.3,14.8,14.6,22.2,21.9h235.6c7.4-7.3,14.8-14.6,22.2-21.9v-56.3L298,460l12-11.9v-56.2l-11.7-11.5l11.7-11.5v-57.8
	l-11.7-11.5l11.7-11.5V231.9z M50,240.1L60.3,230h219.4l10.3,10.1v39.8L279.7,290H60.3L50,279.9V240.1z M290,519.9L279.7,530H60.3
	L50,519.9v-39.8L60.3,470h219.4l10.3,10.1V519.9z M290,439.9L279.7,450H60.3L50,439.9v-39.8L60.3,390h219.4l10.3,10.1V439.9z
	 M290.7,359.9L280.4,370H61l-10.3-10.1v-39.8L61,310h219.4l10.3,10.1V359.9z"/>
</svg>
