<?xml version="1.0" encoding="UTF-8"?>
<!DOCTYPE svg PUBLIC "-//W3C//DTD SVG 1.1//EN" "http://www.w3.org/Graphics/SVG/1.1/DTD/svg11.dtd">
<svg xmlns="http://www.w3.org/2000/svg" xml:space="preserve" width="580px" height="580px" shape-rendering="geometricPrecision" text-rendering="geometricPrecision" image-rendering="optimizeQuality" fill-rule="nonzero" clip-rule="nonzero" viewBox="0 0 5800 5800" xmlns:xlink="http://www.w3.org/1999/xlink">
	<title>users_crowd icon</title>
	<desc>users_crowd icon from the IconExperience.com I-Collection. Copyright by INCORS GmbH (www.incors.com).</desc>
		<path id="curve28"  d="M3568 4008c99,-74 139,-206 115,-325 33,-147 37,-275 12,-387 -27,-124 -86,-228 -174,-317 -106,-105 -279,-165 -446,-176 -160,-11 -320,23 -420,103 -160,32 -275,120 -333,274 -44,116 -46,253 -27,385 6,40 13,79 22,118 -23,119 16,251 115,325 26,97 53,199 119,281 3,32 17,164 -1,174 -11,7 -22,14 -34,20 -63,33 -139,48 -206,73 -78,28 -161,58 -221,116 -61,59 -107,133 -139,212 -33,83 -50,172 -50,256 0,141 143,228 340,279 238,62 567,81 760,81 193,0 522,-19 760,-81 197,-51 340,-138 340,-279 0,-84 -17,-173 -50,-256 -32,-79 -78,-153 -139,-212 -59,-57 -143,-87 -210,-112 -50,-19 -250,-71 -258,-109 -5,-23 -1,-71 3,-115 1,-16 2,-31 3,-47 65,-81 94,-182 119,-281zm307 -3168c66,-61 151,-108 254,-128 38,-8 78,-12 121,-12 43,0 83,4 121,12 161,32 276,126 350,242 72,112 104,244 104,357 0,25 -1,49 -4,72 19,56 23,118 11,174 -3,14 -7,28 -12,42 -49,-32 -102,-57 -159,-73 -89,-25 -182,-32 -273,-19 -2,-48 -7,-93 -17,-137 -30,-141 -97,-260 -199,-362 -78,-78 -184,-134 -297,-168zm-2704 1614c44,5 87,15 129,32 42,-17 85,-27 129,-32 175,-19 329,59 427,205 60,90 93,200 83,305 -7,81 -5,281 26,467 19,114 47,218 90,274l42 57 -39 58c-69,104 -168,148 -270,166 48,18 97,30 146,48 62,23 138,51 193,104 56,54 98,121 127,194 4,9 7,18 11,28 -114,39 -228,85 -315,170 -82,78 -143,176 -185,280 -8,21 -16,41 -22,62 -162,20 -329,28 -443,28 -174,0 -472,-18 -686,-73 -182,-48 -314,-129 -314,-261 0,-77 15,-158 46,-234 29,-73 71,-140 127,-194 55,-53 131,-81 193,-104 49,-17 98,-30 146,-48 -102,-18 -201,-62 -270,-166l-39 -58 42 -57c43,-56 71,-160 90,-274 31,-186 33,-386 26,-467 -10,-105 23,-215 83,-305 98,-146 252,-224 427,-205zm3969 540l-17 266c25,112 -11,238 -105,308 -16,52 -41,113 -69,169 -23,45 -49,88 -78,124 2,37 7,127 42,148 66,42 139,54 212,81 71,26 147,53 202,107 56,54 98,122 127,194 31,76 46,157 46,234 0,133 -132,214 -314,261 -214,56 -512,73 -686,73 -61,0 -138,-2 -221,-7 -35,-158 -112,-310 -229,-422 -102,-99 -256,-154 -391,-194 36,-61 59,-124 77,-185 65,-39 152,-67 225,-89 43,-13 79,-24 123,-51 23,-15 28,-36 34,-61 7,-29 10,-60 11,-89 -28,-36 -55,-79 -78,-124 -28,-56 -53,-117 -69,-169 -30,-22 -54,-50 -72,-81 3,-83 -4,-160 -19,-234 -6,-24 -12,-48 -19,-71l-12 -183c0,0 5,-84 6,-92 21,-128 92,-230 188,-300 93,-67 211,-104 331,-106 36,-1 72,1 108,7 53,9 95,23 141,49 41,-12 81,-15 121,-11 75,7 146,38 206,84 58,44 107,103 139,168 30,61 45,128 40,196zm-1146 -1276c58,-17 118,-21 177,-15 44,4 87,15 129,32 42,-17 85,-28 129,-32 59,-6 119,-2 177,15 102,29 190,101 250,190 60,90 93,200 83,305 -3,37 -5,100 -2,175 -52,-21 -107,-35 -164,-40 -36,-4 -73,-4 -110,1 -41,-17 -84,-29 -138,-38 -47,-7 -95,-11 -144,-10 -160,3 -319,54 -444,144 -131,95 -228,232 -263,405 -20,-20 -40,-39 -62,-57 9,-35 17,-74 23,-113 31,-186 33,-387 26,-467 -10,-105 23,-215 83,-305 60,-89 148,-161 250,-190zm-735 324c83,83 139,181 164,298 22,99 20,212 -6,339 -104,-42 -218,-68 -329,-75 -186,-13 -378,26 -517,117 -173,45 -292,136 -370,257 -29,-31 -50,-68 -64,-108 -3,-33 -8,-66 -16,-98 -1,-24 1,-47 6,-70 -9,-36 -16,-72 -21,-109 -18,-124 -16,-253 25,-362 46,-121 135,-215 290,-253 8,-2 16,-4 24,-5 94,-75 242,-107 391,-97 158,10 323,66 423,166zm-2538 128c1,-124 36,-270 115,-392 117,-183 301,-278 516,-278 214,0 398,95 515,278 62,97 98,207 110,310 -12,23 -23,48 -32,73 -30,78 -44,162 -48,246 -69,-59 -149,-105 -236,-130 -83,-24 -168,-31 -253,-21 -36,3 -72,10 -108,20 -36,-10 -71,-17 -108,-21 -85,-9 -170,-2 -253,22 -85,25 -164,69 -231,126 -5,-50 1,-103 19,-151 -4,-26 -6,-53 -6,-82zm2764 -171c-26,-35 -54,-68 -85,-98 -95,-96 -230,-162 -372,-197 -4,-23 -8,-46 -12,-69 -15,-109 -14,-222 23,-318 48,-128 143,-203 276,-230 84,-65 214,-93 343,-85 139,9 284,59 373,147 74,74 123,161 145,263 6,30 10,60 12,92 -84,-8 -167,-1 -249,22 -148,42 -275,144 -360,271 -41,62 -73,130 -94,202zm-698 -1496c38,4 76,13 113,27 37,-14 75,-23 113,-27 160,-17 301,53 390,187 26,38 46,81 60,125 -84,16 -164,44 -231,86 -184,51 -298,162 -363,306 -42,-68 -97,-128 -159,-176 -85,-65 -189,-109 -300,-120 -30,-2 -60,-3 -90,0 5,-78 33,-155 77,-221 89,-134 230,-204 390,-187zm-1755 858c1,-17 2,-33 5,-49 -7,-31 -12,-61 -17,-92 -15,-109 -14,-222 23,-318 48,-128 144,-203 276,-231 84,-64 214,-92 343,-84 139,9 284,59 373,147 35,36 66,75 91,119 -1,6 -2,12 -2,18 -29,-3 -57,-4 -86,-3 -156,2 -308,51 -429,139 -101,73 -182,172 -227,293 -119,-3 -239,16 -350,61zm554 -29c32,-66 81,-121 140,-163 88,-64 200,-100 315,-102 83,-2 164,12 237,53 38,-11 76,-14 114,-10 71,6 140,36 197,80 55,42 102,99 132,161 29,59 44,123 39,186l-9 138c-142,5 -282,43 -390,112 -88,24 -162,60 -223,106 -24,-77 -58,-152 -103,-223 -98,-153 -245,-281 -449,-338z"/>
</svg>