<?xml version="1.0" encoding="UTF-8"?>
<!DOCTYPE svg PUBLIC "-//W3C//DTD SVG 1.1//EN" "http://www.w3.org/Graphics/SVG/1.1/DTD/svg11.dtd">
<svg xmlns="http://www.w3.org/2000/svg" xml:space="preserve" width="580px" height="580px" shape-rendering="geometricPrecision" text-rendering="geometricPrecision" image-rendering="optimizeQuality" fill-rule="nonzero" clip-rule="nonzero" viewBox="0 0 5800 5800" xmlns:xlink="http://www.w3.org/1999/xlink">
	<title>users_relation2 icon</title>
	<desc>users_relation2 icon from the IconExperience.com I-Collection. Copyright by INCORS GmbH (www.incors.com).</desc>
		<path id="curve30"  d="M2900 700c607,0 1158,246 1556,644 25,26 50,52 75,79 -11,3 -22,7 -33,11 -87,-30 -178,-40 -270,-29 -353,-314 -818,-505 -1328,-505 -530,0 -1011,206 -1369,542 -23,1 -47,3 -70,8 -55,-27 -110,-41 -170,-50 417,-448 997,-700 1609,-700zm1698 3598c-419,509 -1038,802 -1698,802 -660,0 -1279,-293 -1698,-801 89,2 177,1 266,-3 377,387 891,604 1432,604 541,0 1055,-217 1432,-604 89,4 177,5 266,2z"/>
	<path id="curve29"  d="M699 2028l20 306c-27,95 5,215 99,261 29,108 104,279 181,356 0,92 -12,250 -99,300 -94,58 -153,61 -256,99 -60,22 -140,49 -186,95 -104,100 -158,255 -158,395 0,208 684,260 999,260 316,0 999,-52 999,-260 0,-140 -54,-294 -158,-395 -46,-46 -125,-73 -186,-95 -103,-38 -162,-41 -255,-99 -91,-52 -98,-205 -100,-300 80,-79 153,-250 181,-356 95,-46 127,-165 99,-261l20 -309c21,-218 -244,-466 -463,-358 -57,-37 -91,-56 -162,-68 -279,-45 -580,124 -575,429z"/>
	<path id="curve28"  d="M4188 1616c104,-30 210,-17 310,33 100,-50 206,-63 310,-33 174,50 307,252 290,433 -14,158 0,700 150,900 -100,151 -300,151 -450,151 9,79 37,114 100,150 94,58 153,61 256,99 60,22 140,50 186,95 104,101 158,255 158,396 0,208 -684,260 -1000,260 -316,0 -1001,-52 -1001,-260 0,-141 54,-295 159,-396 46,-45 126,-73 186,-95 103,-38 162,-41 256,-99 60,-35 90,-70 100,-150 -150,0 -350,0 -450,-151 150,-200 164,-742 150,-900 -17,-181 116,-383 290,-433z"/>
</svg>