<?xml version="1.0" encoding="UTF-8"?>
<!DOCTYPE svg PUBLIC "-//W3C//DTD SVG 1.1//EN" "http://www.w3.org/Graphics/SVG/1.1/DTD/svg11.dtd">
<svg xmlns="http://www.w3.org/2000/svg" xml:space="preserve" width="580px" height="580px" shape-rendering="geometricPrecision" text-rendering="geometricPrecision" image-rendering="optimizeQuality" fill-rule="nonzero" clip-rule="nonzero" viewBox="0 0 5800 5800" xmlns:xlink="http://www.w3.org/1999/xlink">
	<title>users_meeting icon</title>
	<desc>users_meeting icon from the IconExperience.com I-Collection. Copyright by INCORS GmbH (www.incors.com).</desc>
		<path id="curve28"  d="M3733 5411c-260,68 -621,89 -833,89 -379,0 -1200,-77 -1200,-386 0,-183 72,-379 204,-507 78,-75 233,-127 344,-160 53,-16 99,-30 156,-65 37,-24 18,-127 15,-165 -1,-15 -2,-29 -3,-42 -74,-91 -104,-205 -132,-312l0 0c-108,-79 -151,-223 -125,-352 -10,-43 -18,-87 -25,-131 -20,-144 -18,-293 29,-419 52,-137 154,-244 330,-288 11,-2 21,-5 32,-7 108,-87 282,-124 457,-113 182,12 370,77 484,191 96,96 160,209 189,343 27,123 23,263 -14,424 27,129 -16,273 -125,352l-1 3c-27,106 -56,217 -131,308 -1,18 -2,36 -4,55 -5,63 -11,135 8,148 63,35 96,49 164,70 111,33 266,85 344,160 132,128 204,324 204,507 0,149 -154,242 -367,297zm-2670 -3790c113,-32 228,-24 337,20 105,-42 229,-51 337,-20 110,31 206,109 271,207 66,97 102,217 91,331 -8,86 -6,296 24,496 -159,163 -221,424 -198,647 3,36 7,71 12,106 5,37 12,74 19,110 -19,165 33,337 151,455 22,79 48,159 91,235 -12,4 -25,8 -38,11 -238,62 -567,81 -760,81 -193,0 -522,-19 -760,-81 -197,-51 -340,-138 -340,-279 0,-84 17,-173 50,-256 32,-79 78,-153 139,-212 72,-69 213,-116 315,-147 34,-10 64,-19 96,-34 -125,-16 -250,-61 -333,-186l-39 -58 42 -57c49,-64 81,-181 102,-309 35,-207 37,-432 29,-522 -11,-114 25,-234 91,-331 65,-98 161,-176 271,-207zm2419 -121l16 80 54 270c-19,47 -34,97 -42,151 -7,41 -10,84 -9,130 1,91 11,190 17,282 -6,36 -8,74 -6,111 -145,-101 -335,-158 -517,-170 -201,-13 -407,28 -555,127 -48,12 -92,28 -132,46 -16,-149 -16,-287 -10,-350 10,-109 -10,-220 -51,-322l55 -275 16 -80 1164 0zm228 116c-37,-64 -56,-135 -74,-204 -91,-69 -127,-191 -106,-301 -8,-34 -15,-70 -20,-106 -17,-122 -16,-247 25,-354 45,-119 133,-212 285,-249 7,-2 15,-4 22,-5 93,-74 240,-105 387,-95 154,10 314,65 411,163 82,82 136,177 161,292 23,103 20,220 -11,354 22,110 -14,232 -106,301 -2,9 -4,19 -7,29 -34,-2 -67,-1 -101,4 -45,-20 -92,-33 -153,-43 -51,-8 -102,-12 -154,-11 -172,3 -341,57 -475,154 -30,22 -58,45 -84,71zm-2721 -539c-3,-27 -5,-56 -5,-85 0,-129 37,-279 118,-405 121,-190 310,-287 532,-287 221,0 410,97 532,287 81,126 118,276 118,405 0,29 -2,58 -6,85 45,122 21,281 -85,364 -18,58 -45,125 -77,188l-4 8c-85,-97 -196,-173 -320,-208 -128,-37 -264,-36 -392,1 -114,-33 -234,-37 -351,-12 -84,-87 -100,-230 -60,-341zm2730 1347c-6,-96 -18,-202 -19,-296 -1,-34 2,-65 7,-95 22,-139 99,-250 204,-326 101,-73 230,-114 361,-117 98,-1 191,14 276,64 45,-14 90,-17 135,-13 81,7 158,41 223,91 118,90 206,242 194,394l-19 298c28,122 -11,260 -114,335 -35,109 -93,238 -166,328 2,47 8,151 52,178 52,33 94,45 143,60 102,31 243,78 315,147 122,119 189,299 189,468 0,141 -143,228 -340,279 -238,62 -567,81 -760,81 -193,0 -522,-19 -760,-81 -13,-3 -25,-7 -38,-11 44,-77 70,-157 91,-235 119,-118 171,-290 151,-456 15,-74 24,-146 27,-214 68,-26 97,-37 115,-111 8,-33 12,-71 13,-105 -72,-89 -131,-219 -166,-328 -102,-75 -142,-214 -114,-335z"/>
</svg>