<?xml version="1.0" encoding="UTF-8"?>
<!DOCTYPE svg PUBLIC "-//W3C//DTD SVG 1.1//EN" "http://www.w3.org/Graphics/SVG/1.1/DTD/svg11.dtd">
<svg xmlns="http://www.w3.org/2000/svg" xml:space="preserve" width="580px" height="580px" shape-rendering="geometricPrecision" text-rendering="geometricPrecision" image-rendering="optimizeQuality" fill-rule="nonzero" clip-rule="nonzero" viewBox="0 0 5800 5800" xmlns:xlink="http://www.w3.org/1999/xlink">
	<title>user_telephone icon</title>
	<desc>user_telephone icon from the IconExperience.com I-Collection. Copyright by INCORS GmbH (www.incors.com).</desc>
		<path id="curve29"  d="M2410 1633l-33 -497c-15,-257 124,-505 329,-652 161,-115 366,-180 575,-183 171,-4 313,24 460,113 77,-28 156,-37 234,-29 249,24 475,208 582,429 48,100 72,208 63,315l-33 504c48,189 -17,407 -185,514 -57,185 -163,422 -292,567 2,68 7,146 24,216 17,71 45,133 94,161 -8,16 242,103 264,109 158,47 397,124 508,230 96,92 170,207 220,330 53,131 80,271 80,405 0,198 -221,324 -527,402 -266,68 -604,105 -896,122 -25,-79 -72,-151 -140,-210l-598 -513c-127,-101 -277,-108 -412,-63 -98,33 -191,99 -253,170 -1,-1 -63,78 -68,84 -133,-77 -278,-212 -405,-368 -51,-63 -98,-129 -139,-194 38,-60 83,-116 135,-165 93,-89 232,-136 352,-179 62,-23 110,-37 156,-51 107,-31 166,-54 264,-109 46,-26 75,-90 93,-162 17,-70 24,-149 25,-214 -128,-145 -236,-384 -292,-568 -168,-107 -233,-326 -185,-514z"/>
	<path id="curve28"  d="M2535 4317c7,-10 89,-114 90,-113 91,-106 268,-179 390,-82l592 509c118,101 120,265 26,383l-89 112c-92,116 -233,224 -385,293 -214,98 -440,119 -645,-9 -396,-248 -808,-636 -1162,-1072 -354,-436 -650,-921 -814,-1362 -13,-40 -38,-204 -38,-227 3,-139 63,-287 152,-416 95,-138 226,-259 355,-328l125 -68c68,-36 140,-46 206,-29 68,17 126,60 164,128l375 682c42,78 29,162 -12,234 -34,61 -91,115 -146,146l-118 63c-29,16 -54,41 -68,69 -13,24 -18,50 -13,74 42,192 167,414 326,611 164,202 361,374 539,456 52,24 117,-13 150,-54z"/>
</svg>