<?xml version="1.0" encoding="UTF-8"?>
<!DOCTYPE svg PUBLIC "-//W3C//DTD SVG 1.1//EN" "http://www.w3.org/Graphics/SVG/1.1/DTD/svg11.dtd">
<svg xmlns="http://www.w3.org/2000/svg" xml:space="preserve" width="580px" height="580px" shape-rendering="geometricPrecision" text-rendering="geometricPrecision" image-rendering="optimizeQuality" fill-rule="nonzero" clip-rule="nonzero" viewBox="0 0 5800 5800" xmlns:xlink="http://www.w3.org/1999/xlink">
	<title>user_headphones icon</title>
	<desc>user_headphones icon from the IconExperience.com I-Collection. Copyright by INCORS GmbH (www.incors.com).</desc>
		<path id="curve29"  d="M3700 1300l0 200 0 1000c0,110 59,206 147,258 -64,167 -158,362 -276,495 2,78 8,171 28,255 19,82 52,155 107,189 119,61 171,88 300,127 178,53 440,139 563,258 106,103 187,232 243,371 58,146 88,303 88,453 0,216 -243,356 -579,443 -442,115 -1058,151 -1421,151 -363,0 -979,-36 -1421,-151 -336,-87 -579,-227 -579,-443 0,-149 30,-307 88,-454 56,-138 137,-267 243,-370 122,-119 385,-205 563,-258 120,-36 187,-63 296,-126 56,-31 90,-107 111,-192 20,-83 27,-176 29,-252 -118,-134 -213,-329 -277,-496 88,-52 147,-148 147,-258l0 -1200c0,-163 89,-304 212,-404 163,-134 379,-196 588,-196 209,0 425,62 588,196 123,100 212,241 212,404z"/>
	<path id="curve28"  d="M1706 1200c68,-574 658,-900 1194,-900 536,0 1126,326 1194,900l206 0c220,0 400,180 400,400l0 600c0,220 -180,400 -400,400l-300 0c-55,0 -100,-45 -100,-100l0 -1200c0,-511 -543,-800 -1000,-800 -457,0 -1000,289 -1000,800l0 1200c0,55 -45,100 -100,100l-300 0c-220,0 -400,-180 -400,-400l0 -600c0,-220 180,-400 400,-400l206 0z"/>
</svg>