<?xml version="1.0" encoding="UTF-8"?>
<!DOCTYPE svg PUBLIC "-//W3C//DTD SVG 1.1//EN" "http://www.w3.org/Graphics/SVG/1.1/DTD/svg11.dtd">
<svg xmlns="http://www.w3.org/2000/svg" xml:space="preserve" width="580px" height="580px" shape-rendering="geometricPrecision" text-rendering="geometricPrecision" image-rendering="optimizeQuality" fill-rule="nonzero" clip-rule="nonzero" viewBox="0 0 5800 5800" xmlns:xlink="http://www.w3.org/1999/xlink">
	<title>users5 icon</title>
	<desc>users5 icon from the IconExperience.com I-Collection. Copyright by INCORS GmbH (www.incors.com).</desc>
		<path id="curve28"  d="M3880 5396c-305,79 -730,104 -980,104 -250,0 -675,-25 -980,-104 -244,-64 -420,-168 -420,-334 0,-106 21,-218 63,-322 39,-99 97,-191 173,-264 89,-87 272,-147 398,-185 80,-24 124,-41 196,-83 35,-19 27,-122 20,-207 -1,-20 -3,-38 -4,-56 -90,-108 -123,-241 -158,-373 -127,-88 -177,-257 -145,-404 -12,-52 -22,-105 -30,-157 -24,-168 -22,-341 33,-487 73,-192 219,-301 418,-338 123,-102 324,-145 526,-132 388,24 700,227 784,617 32,143 27,307 -17,496 32,149 -17,317 -145,405 -35,132 -67,265 -158,372 -1,24 -2,47 -4,70 -7,81 -14,172 17,193 2,1 4,2 6,3 71,45 127,61 193,81 126,38 309,98 398,185 76,73 134,165 173,264 42,104 63,216 63,322 0,166 -176,270 -420,334zm-2489 -3904c55,-271 238,-496 518,-552 45,-9 92,-14 142,-14 51,0 98,5 143,14 331,66 533,380 533,705 0,31 -2,61 -6,90 15,41 23,86 23,130 -137,21 -264,66 -365,136 -10,2 -20,5 -30,8 -23,-74 -56,-145 -99,-208 -93,-139 -231,-250 -393,-296 -90,-26 -183,-34 -276,-24 -44,5 -88,14 -131,26 -19,-5 -39,-10 -59,-15zm2246 587c67,-261 320,-409 579,-414 102,-2 199,15 289,67 47,-14 94,-19 141,-14 84,8 164,43 232,94 66,50 121,117 157,191 34,69 51,145 45,219l-20 314c29,126 -12,270 -119,348 -20,61 -48,133 -82,199 -27,54 -59,105 -93,146 2,37 5,78 14,115 8,34 20,64 37,76 61,32 91,46 157,66 106,32 255,81 330,154 63,61 111,138 144,220 34,86 52,179 52,267 0,145 -149,235 -353,288 -247,64 -554,85 -809,85 -38,-61 -83,-117 -135,-167 -100,-97 -220,-143 -347,-189 1,-3 -120,-40 -133,-44 -38,-12 -72,-22 -107,-38 93,-114 132,-224 172,-377 139,-130 197,-326 172,-512 43,-203 45,-383 10,-545 -45,-209 -165,-414 -333,-549zm-2339 -400c51,6 102,19 152,39 50,-20 101,-33 152,-38 198,-22 371,66 483,232 35,53 62,112 79,173 -150,87 -247,216 -305,369 -68,181 -72,387 -44,585 7,45 15,90 25,135 -25,186 34,381 172,511 34,128 77,259 172,377 -35,16 -69,26 -107,38 -39,12 -81,24 -133,43 -126,47 -248,94 -347,190 -52,50 -97,106 -135,167 -255,0 -562,-21 -809,-85 -204,-53 -353,-143 -353,-288 0,-88 18,-181 52,-267 33,-82 81,-159 145,-220 74,-73 222,-122 329,-154 40,-12 76,-23 116,-43 -135,-15 -273,-60 -363,-195l-39 -59 43 -56c51,-69 86,-193 108,-327 36,-218 38,-455 30,-550 -11,-118 26,-243 94,-344 129,-192 269,-233 483,-233zm2005 230c-5,-10 -9,-20 -13,-30 -21,-55 -26,-118 -15,-175 -8,-34 -14,-70 -19,-105 -18,-121 -16,-245 24,-351 45,-118 132,-210 283,-247 7,-2 15,-4 22,-5 92,-73 238,-104 383,-94 280,19 506,169 567,451 8,33 39,163 -3,169 -98,-42 -213,-58 -320,-56 -177,3 -351,58 -489,158 -119,86 -212,203 -262,346 -50,-24 -103,-44 -158,-61z"/>
</svg>