<?xml version="1.0" encoding="UTF-8"?>
<!DOCTYPE svg PUBLIC "-//W3C//DTD SVG 1.1//EN" "http://www.w3.org/Graphics/SVG/1.1/DTD/svg11.dtd">
<svg xmlns="http://www.w3.org/2000/svg" xml:space="preserve" width="580px" height="580px" shape-rendering="geometricPrecision" text-rendering="geometricPrecision" image-rendering="optimizeQuality" fill-rule="nonzero" clip-rule="nonzero" viewBox="0 0 5800 5800" xmlns:xlink="http://www.w3.org/1999/xlink">
	<title>utility_knife icon</title>
	<desc>utility_knife icon from the IconExperience.com I-Collection. Copyright by INCORS GmbH (www.incors.com).</desc>
		<path id="curve30" d="M3773 3474l-1409 1403c-150,142 -394,146 -541,-2l-582 -613c-146,-154 -150,-399 2,-550l2647 -2642c260,-259 690,-258 950,0l463 463c262,262 262,691 0,953l-733 733c-123,124 -291,140 -459,156 -132,13 -264,26 -338,99zm-140 -142c124,-123 291,-139 459,-155 132,-13 263,-26 337,-99l733 -734c184,-184 184,-485 0,-669l-463 -463c-183,-182 -484,-183 -667,0l-2648 2641c-75,75 -69,197 2,272l575 606c72,75 191,72 265,2l1407 -1401z"/>
	<path id="curve29" d="M4130 1429c96,-93 246,-94 341,0l300 300c94,95 95,246 0,341l-601 601c-95,95 -245,94 -340,0l-303 -303c-90,-93 -110,-242 -14,-338l617 -601zm140 142l-607 593c-16,16 -16,41 0,57l308 308c17,17 41,17 58,0l601 -600c16,-17 16,-41 -1,-58l-300 -300c-17,-18 -42,-16 -59,0z"/>
	<path id="curve28" d="M1471,4371 541,5300 1259,5300 1829,4729 1971,4871 1341,5500 59,5500 1329,4229z"/>
</svg>