<?xml version="1.0" encoding="UTF-8"?>
<!DOCTYPE svg PUBLIC "-//W3C//DTD SVG 1.1//EN" "http://www.w3.org/Graphics/SVG/1.1/DTD/svg11.dtd">
<svg xmlns="http://www.w3.org/2000/svg" xml:space="preserve" width="580px" height="580px" shape-rendering="geometricPrecision" text-rendering="geometricPrecision" image-rendering="optimizeQuality" fill-rule="nonzero" clip-rule="nonzero" viewBox="0 0 5800 5800" xmlns:xlink="http://www.w3.org/1999/xlink">
	<title>utility_knife icon</title>
	<desc>utility_knife icon from the IconExperience.com I-Collection. Copyright by INCORS GmbH (www.incors.com).</desc>
		<path id="curve29"  d="M3773 3474l-1409 1403c-150,142 -394,146 -541,-2l-582 -613c-146,-154 -150,-399 2,-550l2647 -2642c260,-259 690,-258 950,0l463 463c262,262 262,691 0,953l-733 733c-123,124 -291,140 -459,156 -132,13 -264,26 -338,99zm357 -2045l-617 601c-96,96 -76,245 14,338l303 303c95,94 245,95 340,0l601 -601c95,-95 94,-246 0,-341l-300 -300c-95,-94 -245,-93 -341,0zm140 142l-607 593c-16,16 -16,41 0,57l308 308c17,17 41,17 58,0l601 -600c16,-17 16,-41 -1,-58l-300 -300c-17,-18 -42,-16 -59,0z"/>
	<path id="curve28"  d="M1759 5082l-418 418 -1282 0 1068 -1068 554 584c25,25 51,47 78,66z"/>
</svg>