<?xml version="1.0" encoding="UTF-8"?>
<!DOCTYPE svg PUBLIC "-//W3C//DTD SVG 1.1//EN" "http://www.w3.org/Graphics/SVG/1.1/DTD/svg11.dtd">
<svg xmlns="http://www.w3.org/2000/svg" xml:space="preserve" width="580px" height="580px" shape-rendering="geometricPrecision" text-rendering="geometricPrecision" image-rendering="optimizeQuality" fill-rule="nonzero" clip-rule="nonzero" viewBox="0 0 5800 5800" xmlns:xlink="http://www.w3.org/1999/xlink">
	<title>vacuum_cleaner icon</title>
	<desc>vacuum_cleaner icon from the IconExperience.com I-Collection. Copyright by INCORS GmbH (www.incors.com).</desc>
	<path id="curve0"  d="M400 300l2000 0c55,0 100,45 100,100l0 200c0,165 -135,300 -300,300l-200 0 0 100c0,165 -135,300 -300,300l-200 0 0 3500c0,275 225,500 500,500 275,0 500,-225 500,-500l0 -2950c0,-523 427,-950 950,-950 523,0 950,427 950,950l0 50 100 0 0 417c576,96 1000,597 1000,1183l0 1600c0,220 -180,400 -400,400l-1600 0c-220,0 -400,-180 -400,-400l0 -1600c0,-586 424,-1087 1000,-1183l0 -417 100 0 0 -50c0,-413 -337,-750 -750,-750 -413,0 -750,337 -750,750l0 2950c0,386 -314,700 -700,700 -386,0 -700,-314 -700,-700l0 -3500 -200 0c-165,0 -300,-135 -300,-300l0 -100 -200 0c-165,0 -300,-135 -300,-300l0 -200c0,-55 45,-100 100,-100zm3900 2200c-552,0 -1000,448 -1000,1000l0 1600c0,111 89,200 200,200l1600 0c110,0 200,-90 200,-200l0 -1600c0,-552 -448,-1000 -1000,-1000zm0 270c193,0 350,157 350,350 0,193 -157,350 -350,350 -193,0 -350,-157 -350,-350 0,-193 157,-350 350,-350zm0 200c-83,0 -150,67 -150,150 0,84 67,150 150,150 83,0 150,-67 150,-150 0,-83 -67,-150 -150,-150zm-2500 -2070l-800 0 0 100c0,55 45,100 100,100l300 0 300 0c55,0 100,-45 100,-100l0 -100zm500 -400l-1800 0 0 100c0,55 45,100 100,100l1600 0c55,0 100,-45 100,-100l0 -100z"/>
</svg>