<?xml version="1.0" encoding="UTF-8"?>
<!DOCTYPE svg PUBLIC "-//W3C//DTD SVG 1.1//EN" "http://www.w3.org/Graphics/SVG/1.1/DTD/svg11.dtd">
<svg xmlns="http://www.w3.org/2000/svg" xml:space="preserve" width="580px" height="580px" shape-rendering="geometricPrecision" text-rendering="geometricPrecision" image-rendering="optimizeQuality" fill-rule="nonzero" clip-rule="nonzero" viewBox="0 0 5800 5800" xmlns:xlink="http://www.w3.org/1999/xlink">
	<title>vector_circle icon</title>
	<desc>vector_circle icon from the IconExperience.com I-Collection. Copyright by INCORS GmbH (www.incors.com).</desc>
		<path id="curve28"  d="M3500 731c760,210 1359,809 1569,1569l-208 0c-199,-650 -711,-1162 -1361,-1361l0 -208zm1569 2769c-210,760 -807,1358 -1566,1568l0 -208c648,-199 1159,-711 1358,-1360l208 0zm-2767 1570c-761,-209 -1361,-809 -1571,-1570l208 0c199,651 713,1164 1363,1362l0 208zm-1571 -2770c210,-760 809,-1359 1569,-1569l0 208c-650,199 -1162,711 -1361,1361l-208 0zm4769 100l0 1000 -1000 0 0 -1000 1000 0zm-200 200l-600 0 0 600 600 0 0 -600zm-1900 1900l0 1000 -1000 0 0 -1000 1000 0zm-200 200l-600 0 0 600 600 0 0 -600zm200 -4400l0 1000 -1000 0 0 -1000 1000 0zm-200 200l-600 0 0 600 600 0 0 -600zm-1900 1900l0 1000 -1000 0 0 -1000 1000 0zm-200 200l-600 0 0 600 600 0 0 -600z"/>
</svg>