<?xml version="1.0" encoding="UTF-8"?>
<!DOCTYPE svg PUBLIC "-//W3C//DTD SVG 1.1//EN" "http://www.w3.org/Graphics/SVG/1.1/DTD/svg11.dtd">
<svg xmlns="http://www.w3.org/2000/svg" xml:space="preserve" width="580px" height="580px" shape-rendering="geometricPrecision" text-rendering="geometricPrecision" image-rendering="optimizeQuality" fill-rule="nonzero" clip-rule="nonzero" viewBox="0 0 5800 5800" xmlns:xlink="http://www.w3.org/1999/xlink">
	<title>vector_curve_quadratic icon</title>
	<desc>vector_curve_quadratic icon from the IconExperience.com I-Collection. Copyright by INCORS GmbH (www.incors.com).</desc>
		<path id="curve28"  d="M1500 4300c0,333 0,667 0,1000 -333,0 -667,0 -1000,0 0,-333 0,-667 0,-1000 333,0 667,0 1000,0zm3800 -3800c0,333 0,667 0,1000l-1000 0c0,-333 0,-667 0,-1000 333,0 667,0 1000,0zm-4400 3600c0,-1767 1433,-3200 3200,-3200l0 200c-1657,0 -3000,1343 -3000,3000l-200 0z"/>
</svg>