<?xml version="1.0" encoding="UTF-8"?>
<!DOCTYPE svg PUBLIC "-//W3C//DTD SVG 1.1//EN" "http://www.w3.org/Graphics/SVG/1.1/DTD/svg11.dtd">
<svg xmlns="http://www.w3.org/2000/svg" xml:space="preserve" width="580px" height="580px" shape-rendering="geometricPrecision" text-rendering="geometricPrecision" image-rendering="optimizeQuality" fill-rule="nonzero" clip-rule="nonzero" viewBox="0 0 5800 5800" xmlns:xlink="http://www.w3.org/1999/xlink">
	<title>vector_ellipse icon</title>
	<desc>vector_ellipse icon from the IconExperience.com I-Collection. Copyright by INCORS GmbH (www.incors.com).</desc>
		<path id="curve28" d="M3500 1454c373,68 707,198 975,372 206,135 373,295 489,474l-247 0c-94,-113 -212,-216 -351,-306 -238,-155 -534,-272 -866,-337l0 -203zm1464 2046c-116,179 -283,339 -489,474 -268,174 -602,304 -975,372l0 -203c332,-65 628,-182 866,-337 139,-90 257,-193 351,-306l247 0zm-2664 846c-373,-68 -707,-198 -975,-372 -206,-135 -373,-295 -489,-474l247 0c94,113 212,216 351,306 238,155 534,272 866,337l0 203zm-1464 -2046c116,-179 283,-339 489,-474 268,-174 602,-304 975,-372l0 203c-332,65 -628,182 -866,337 -139,90 -257,193 -351,306l-247 0zm4664 100l0 1000c-333,0 -667,0 -1000,0l0 -1000c333,0 667,0 1000,0zm-200 200l-600 0 0 600 600 0 0 -600zm-1900 1100l0 1000 -1000 0 0 -1000c333,0 667,0 1000,0zm-200 200l-600 0 0 600 600 0 0 -600zm200 -2800c0,333 0,667 0,1000l-1000 0c0,-333 0,-667 0,-1000l1000 0zm-200 200l-600 0 0 600 600 0 0 -600zm-1900 1100l0 1000c-333,0 -667,0 -1000,0l0 -1000c333,0 667,0 1000,0zm-200 200l-600 0 0 600 600 0 0 -600z"/>
</svg>