<?xml version="1.0" encoding="UTF-8"?>
<!DOCTYPE svg PUBLIC "-//W3C//DTD SVG 1.1//EN" "http://www.w3.org/Graphics/SVG/1.1/DTD/svg11.dtd">
<svg xmlns="http://www.w3.org/2000/svg" xml:space="preserve" width="580px" height="580px" shape-rendering="geometricPrecision" text-rendering="geometricPrecision" image-rendering="optimizeQuality" fill-rule="nonzero" clip-rule="nonzero" viewBox="0 0 5800 5800" xmlns:xlink="http://www.w3.org/1999/xlink">
	<title>vector_square icon</title>
	<desc>vector_square icon from the IconExperience.com I-Collection. Copyright by INCORS GmbH (www.incors.com).</desc>
		<path id="curve28" d="M900 4200l0 -2600 200 0 0 2600 -200 0zm3800 0l0 -2600 200 0 0 2600 -200 0zm-3100 -3300l2600 0 0 200 -2600 0 0 -200zm3700 -400c0,333 0,667 0,1000 -333,0 -667,0 -1000,0 0,-333 0,-667 0,-1000 333,0 667,0 1000,0zm-200 200l-600 0 0 600 600 0 0 -600zm-3500 4000l2600 0 0 200 -2600 0 0 -200zm3700 -400c0,333 0,667 0,1000 -333,0 -667,0 -1000,0 0,-333 0,-667 0,-1000 333,0 667,0 1000,0zm-200 200l-600 0 0 600 600 0 0 -600zm-3600 -4000l0 1000 -1000 0 0 -1000 1000 0zm-200 200l-600 0 0 600 600 0 0 -600zm200 3600c0,333 0,667 0,1000 -333,0 -667,0 -1000,0l0 -1000c333,0 667,0 1000,0zm-200 200l-600 0 0 600 600 0 0 -600z"/>
</svg>