<?xml version="1.0" encoding="UTF-8"?>
<!DOCTYPE svg PUBLIC "-//W3C//DTD SVG 1.1//EN" "http://www.w3.org/Graphics/SVG/1.1/DTD/svg11.dtd">
<svg xmlns="http://www.w3.org/2000/svg" xml:space="preserve" width="580px" height="580px" shape-rendering="geometricPrecision" text-rendering="geometricPrecision" image-rendering="optimizeQuality" fill-rule="nonzero" clip-rule="nonzero" viewBox="0 0 5800 5800" xmlns:xlink="http://www.w3.org/1999/xlink">
	<title>vector_triangle icon</title>
	<desc>vector_triangle icon from the IconExperience.com I-Collection. Copyright by INCORS GmbH (www.incors.com).</desc>
		<path id="curve28"  d="M1300 4100c0,333 0,667 0,1000 -333,0 -667,0 -1000,0 0,-333 0,-667 0,-1000 333,0 667,0 1000,0zm2100 -3400c0,333 0,667 0,1000 -333,0 -667,0 -1000,0 0,-333 0,-667 0,-1000 333,0 667,0 1000,0zm2100 3400c0,333 0,667 0,1000 -333,0 -667,0 -1000,0 0,-333 0,-667 0,-1000 333,0 667,0 1000,0zm-4587 -149l1300 -2300 174 98 -1300 2300 -174 -98zm3800 98l-1300 -2300 174 -98 1300 2300 -174 98zm-3313 451l3000 0 0 200 -3000 0 0 -200z"/>
</svg>