<?xml version="1.0" encoding="UTF-8"?>
<!DOCTYPE svg PUBLIC "-//W3C//DTD SVG 1.1//EN" "http://www.w3.org/Graphics/SVG/1.1/DTD/svg11.dtd">
<svg xmlns="http://www.w3.org/2000/svg" xml:space="preserve" width="580px" height="580px" shape-rendering="geometricPrecision" text-rendering="geometricPrecision" image-rendering="optimizeQuality" fill-rule="nonzero" clip-rule="nonzero" viewBox="0 0 5800 5800" xmlns:xlink="http://www.w3.org/1999/xlink">
	<title>vector_square icon</title>
	<desc>vector_square icon from the IconExperience.com I-Collection. Copyright by INCORS GmbH (www.incors.com).</desc>
		<path id="curve28"  d="M1600 4700l2600 0 0 200 -2600 0 0 -200zm0 -3800l2600 0 0 200 -2600 0 0 -200zm3100 3300l0 -2600 200 0 0 2600 -200 0zm-3800 0l0 -2600 200 0 0 2600 -200 0zm600 100c0,333 0,667 0,1000 -333,0 -667,0 -1000,0 0,-333 0,-667 0,-1000 333,0 667,0 1000,0zm0 -3800l0 1000 -1000 0 0 -1000 1000 0zm3800 3800c0,333 0,667 0,1000 -333,0 -667,0 -1000,0 0,-333 0,-667 0,-1000 333,0 667,0 1000,0zm0 -3800c0,333 0,667 0,1000 -333,0 -667,0 -1000,0 0,-333 0,-667 0,-1000 333,0 667,0 1000,0z"/>
</svg>