<?xml version="1.0" encoding="UTF-8"?>
<!DOCTYPE svg PUBLIC "-//W3C//DTD SVG 1.1//EN" "http://www.w3.org/Graphics/SVG/1.1/DTD/svg11.dtd">
<svg xmlns="http://www.w3.org/2000/svg" xml:space="preserve" width="580px" height="580px" shape-rendering="geometricPrecision" text-rendering="geometricPrecision" image-rendering="optimizeQuality" fill-rule="nonzero" clip-rule="nonzero" viewBox="0 0 5800 5800" xmlns:xlink="http://www.w3.org/1999/xlink">
	<title>vending_machine icon</title>
	<desc>vending_machine icon from the IconExperience.com I-Collection. Copyright by INCORS GmbH (www.incors.com).</desc>
	<path id="curve0" d="M4300 4300l0 400 -200 0 0 -400 200 0zm400 -4200l0 5400 -3600 0 0 -5400 3600 0zm-200 200l-3200 0 0 5000 3200 0 0 -5000zm-200 200l0 3600 -2800 0 0 -3600 2800 0zm-200 200l-2400 0 0 800 498 0c-165,-1 -298,-135 -298,-300 0,-165 135,-300 300,-300 166,0 300,134 300,300 0,164 -134,299 -298,300l696 0c-165,-1 -298,-135 -298,-300 0,-165 135,-300 300,-300 166,0 300,134 300,300 0,165 -133,299 -298,300l696 0c-165,-1 -298,-135 -298,-300 0,-165 135,-300 300,-300 166,0 300,134 300,300 0,165 -133,299 -298,300l498 0 0 -800zm-2400 1000l0 1000 500 0c-166,0 -300,-134 -300,-300 0,-165 135,-300 300,-300 166,0 300,134 300,300 0,165 -135,300 -300,300l700 0c-166,0 -300,-134 -300,-300 0,-165 135,-300 300,-300 166,0 300,134 300,300 0,166 -134,300 -300,300l700 0c-166,0 -300,-134 -300,-300 0,-165 135,-300 300,-300 166,0 300,134 300,300 0,166 -134,300 -300,300l500 0 0 -1000 -2400 0zm0 1200l0 1000 498 0c-165,-1 -298,-135 -298,-300 0,-165 135,-300 300,-300 166,0 300,134 300,300 0,165 -133,299 -298,300l696 0c-165,-1 -298,-135 -298,-300 0,-165 135,-300 300,-300 166,0 300,134 300,300 0,164 -134,299 -298,300l696 0c-165,-1 -298,-135 -298,-300 0,-165 135,-300 300,-300 166,0 300,134 300,300 0,164 -134,299 -298,300l498 0 0 -1000 -2400 0zm2200 1400l0 800 -2200 0 0 -800 2200 0zm-200 200l-1800 0 0 400 1800 0 0 -400zm-1500 -2200c-56,0 -100,44 -100,100 0,55 45,100 100,100 56,0 100,-44 100,-100 0,-55 -45,-100 -100,-100zm700 0c-56,0 -100,44 -100,100 0,55 45,100 100,100 55,0 100,-45 100,-100 0,-55 -45,-100 -100,-100zm700 0c-56,0 -100,44 -100,100 0,55 45,100 100,100 55,0 100,-45 100,-100 0,-55 -45,-100 -100,-100zm-1400 1200c-56,0 -100,44 -100,100 0,55 45,100 100,100 55,0 100,-45 100,-100 0,-55 -45,-100 -100,-100zm700 0c-56,0 -100,44 -100,100 0,55 45,100 100,100 56,0 100,-44 100,-100 0,-55 -45,-100 -100,-100zm700 0c-56,0 -100,44 -100,100 0,55 45,100 100,100 56,0 100,-44 100,-100 0,-55 -45,-100 -100,-100zm-1400 -2400c-56,0 -100,44 -100,100 0,55 45,100 100,100 56,0 100,-44 100,-100 0,-55 -45,-100 -100,-100zm700 0c-56,0 -100,44 -100,100 0,55 45,100 100,100 55,0 100,-45 100,-100 0,-55 -45,-100 -100,-100zm700 0c-56,0 -100,44 -100,100 0,55 45,100 100,100 55,0 100,-45 100,-100 0,-55 -45,-100 -100,-100z"/>
</svg>