<?xml version="1.0" encoding="UTF-8"?>
<!DOCTYPE svg PUBLIC "-//W3C//DTD SVG 1.1//EN" "http://www.w3.org/Graphics/SVG/1.1/DTD/svg11.dtd">
<svg xmlns="http://www.w3.org/2000/svg" xml:space="preserve" width="580px" height="580px" shape-rendering="geometricPrecision" text-rendering="geometricPrecision" image-rendering="optimizeQuality" fill-rule="nonzero" clip-rule="nonzero" viewBox="0 0 5800 5800" xmlns:xlink="http://www.w3.org/1999/xlink">
	<title>video_chat2 icon</title>
	<desc>video_chat2 icon from the IconExperience.com I-Collection. Copyright by INCORS GmbH (www.incors.com).</desc>
		<path id="curve28"  d="M3000 4500l0 800 1100 0 0 200 -2400 0 0 -200 1100 0 0 -800 200 0zm2500 -4000l0 3800 -5200 0 0 -3800 5200 0zm-1083 3600c-36,-146 -109,-286 -218,-390 -71,-68 -194,-110 -286,-143 -159,-57 -250,-62 -395,-151 -140,-79 -150,-311 -154,-455 123,-119 236,-379 280,-539 146,-71 195,-251 152,-396l31 -469c32,-331 -376,-706 -714,-543 -88,-57 -141,-85 -250,-103 -430,-69 -895,188 -887,650l31 465c-42,143 8,325 152,396 45,163 160,423 280,539 0,140 -19,379 -154,455 -144,89 -235,94 -394,151 -93,33 -215,75 -287,143 -108,103 -182,244 -218,390l3031 0z"/>
</svg>