<?xml version="1.0" encoding="UTF-8"?>
<!DOCTYPE svg PUBLIC "-//W3C//DTD SVG 1.1//EN" "http://www.w3.org/Graphics/SVG/1.1/DTD/svg11.dtd">
<svg xmlns="http://www.w3.org/2000/svg" xml:space="preserve" width="580px" height="580px" shape-rendering="geometricPrecision" text-rendering="geometricPrecision" image-rendering="optimizeQuality" fill-rule="nonzero" clip-rule="nonzero" viewBox="0 0 5800 5800" xmlns:xlink="http://www.w3.org/1999/xlink">
	<title>video_camera icon</title>
	<desc>video_camera icon from the IconExperience.com I-Collection. Copyright by INCORS GmbH (www.incors.com).</desc>
		<path id="curve28"  d="M1117 4900l-17 0c-220,0 -400,-180 -400,-400l0 -1382c62,56 129,106 200,151l0 1231c0,110 90,200 200,200l200 0 0 100c0,55 45,100 100,100l600 0c55,0 100,-45 100,-100l0 -100 200 0c110,0 200,-90 200,-200l0 -500 300 0 0 -900 0 0 0 0c0,0 0,0 0,0 0,0 0,0 0,0l0 0 0 0 -80 0c60,-56 115,-116 165,-181 21,10 40,24 56,40 37,36 59,86 59,141l0 900c0,55 -22,105 -59,141 -36,37 -86,59 -141,59l-100 0 0 300c0,220 -180,400 -400,400l-17 0c-43,118 -155,200 -283,200l-600 0c-127,0 -241,-81 -283,-200zm1083 -2900c0,276 -224,500 -500,500l0 -200c166,0 300,-134 300,-300l200 0zm-500 -900c497,0 900,403 900,900 0,497 -403,900 -900,900 -497,0 -900,-403 -900,-900 0,-497 403,-900 900,-900zm0 200c-387,0 -700,313 -700,700 0,387 313,700 700,700 387,0 700,-313 700,-700 0,-387 -313,-700 -700,-700zm0 -600c718,0 1300,582 1300,1300 0,718 -582,1300 -1300,1300 -718,0 -1300,-582 -1300,-1300 0,-718 582,-1300 1300,-1300zm0 200c-608,0 -1100,492 -1100,1100 0,608 492,1100 1100,1100 608,0 1100,-492 1100,-1100 0,-608 -492,-1100 -1100,-1100zm3400 1200c220,0 400,180 400,400l0 1600c0,220 -180,400 -400,400l-1800 0c-115,0 -224,-50 -300,-136l0 -18c55,-32 102,-77 137,-131 37,53 98,85 163,85l1800 0c110,0 200,-90 200,-200l0 -1600c0,-110 -90,-200 -200,-200l-1800 0c-61,0 -99,22 -144,61 20,-80 33,-163 40,-247 33,-9 68,-14 104,-14l1800 0z"/>
</svg>