<?xml version="1.0" encoding="UTF-8"?>
<!DOCTYPE svg PUBLIC "-//W3C//DTD SVG 1.1//EN" "http://www.w3.org/Graphics/SVG/1.1/DTD/svg11.dtd">
<svg xmlns="http://www.w3.org/2000/svg" xml:space="preserve" width="580px" height="580px" shape-rendering="geometricPrecision" text-rendering="geometricPrecision" image-rendering="optimizeQuality" fill-rule="nonzero" clip-rule="nonzero" viewBox="0 0 5800 5800" xmlns:xlink="http://www.w3.org/1999/xlink">
	<title>video_chat icon</title>
	<desc>video_chat icon from the IconExperience.com I-Collection. Copyright by INCORS GmbH (www.incors.com).</desc>
		<path id="curve28"  d="M600 700l4600 0c165,0 300,135 300,300l0 4100 -5200 0 0 -4100c0,-165 135,-300 300,-300zm1376 1661c-8,-462 457,-719 887,-650 109,18 162,46 250,103 338,-163 746,212 714,543l-31 469c43,145 -6,325 -152,396 -44,160 -157,420 -280,539 4,144 14,376 154,455 145,89 236,94 395,151 92,33 215,75 286,143 109,104 182,244 218,390l883 0 0 -3400 -4800 0 0 3400 886 0c36,-146 110,-287 218,-390 72,-68 194,-110 287,-143 159,-57 250,-62 394,-151 135,-76 154,-315 154,-455 -120,-116 -235,-376 -280,-539 -144,-71 -194,-253 -152,-396l-31 -465zm-1476 -1061l4800 0 0 -300c0,-55 -45,-100 -100,-100l-4600 0c-55,0 -100,45 -100,100l0 300z"/>
</svg>