<?xml version="1.0" encoding="UTF-8"?>
<!DOCTYPE svg PUBLIC "-//W3C//DTD SVG 1.1//EN" "http://www.w3.org/Graphics/SVG/1.1/DTD/svg11.dtd">
<svg xmlns="http://www.w3.org/2000/svg" xml:space="preserve" width="580px" height="580px" shape-rendering="geometricPrecision" text-rendering="geometricPrecision" image-rendering="optimizeQuality" fill-rule="nonzero" clip-rule="nonzero" viewBox="0 0 5800 5800" xmlns:xlink="http://www.w3.org/1999/xlink">
	<title>videotape icon</title>
	<desc>videotape icon from the IconExperience.com I-Collection. Copyright by INCORS GmbH (www.incors.com).</desc>
		<path id="curve28"  d="M4000 3600c276,0 500,-224 500,-500 0,-276 -224,-500 -500,-500l0 -200c387,0 700,313 700,700 0,387 -313,700 -700,700l0 -200zm0 -700c110,0 200,90 200,200 0,110 -90,200 -200,200l0 -400zm-3500 -1200l4800 0 0 200 -4800 0 0 -200zm5200 400l0 2600 -5600 0 0 -2600 200 0 0 2400 5200 0 0 -2400 200 0zm-1900 300l0 1400 -1800 0 0 -1400 1800 0zm-200 200l-1400 0 0 1000 1400 0 0 -1000zm-1800 300l0 400c-110,0 -200,-90 -200,-200 0,-110 90,-200 200,-200zm-1700 -1000l0 -800 5600 0 0 800 -200 0 0 -600 -5200 0 0 600 -200 0zm1700 1900c-387,0 -700,-313 -700,-700 0,-387 313,-700 700,-700l0 200c-276,0 -500,224 -500,500 0,276 224,500 500,500l0 200z"/>
</svg>