<?xml version="1.0" encoding="UTF-8"?>
<!DOCTYPE svg PUBLIC "-//W3C//DTD SVG 1.1//EN" "http://www.w3.org/Graphics/SVG/1.1/DTD/svg11.dtd">
<svg xmlns="http://www.w3.org/2000/svg" xml:space="preserve" width="580px" height="580px" shape-rendering="geometricPrecision" text-rendering="geometricPrecision" image-rendering="optimizeQuality" fill-rule="nonzero" clip-rule="nonzero" viewBox="0 0 5800 5800" xmlns:xlink="http://www.w3.org/1999/xlink">
	<title>videotape icon</title>
	<desc>videotape icon from the IconExperience.com I-Collection. Copyright by INCORS GmbH (www.incors.com).</desc>
		<path id="curve28"  d="M100 1900l0 -800 5600 0 0 800 -200 0 0 -600 -5200 0 0 600 -200 0zm5200 200l400 0 0 2600 -5600 0 0 -2600 400 0 0 -600 4800 0 0 600zm-1300 1500l0 200c387,0 700,-313 700,-700 0,-387 -313,-700 -700,-700l0 200c276,0 500,224 500,500 0,276 -224,500 -500,500zm-2200 200l0 -200c-276,0 -500,-224 -500,-500 0,-276 224,-500 500,-500l0 -200c-387,0 -700,313 -700,700 0,387 313,700 700,700zm200 -1400l0 1400 1800 0 0 -1400 -1800 0zm1600 200l0 1000 -1400 0 0 -1000 1400 0z"/>
</svg>