<?xml version="1.0" encoding="UTF-8"?>
<!DOCTYPE svg PUBLIC "-//W3C//DTD SVG 1.1//EN" "http://www.w3.org/Graphics/SVG/1.1/DTD/svg11.dtd">
<svg xmlns="http://www.w3.org/2000/svg" xml:space="preserve" width="580px" height="580px" shape-rendering="geometricPrecision" text-rendering="geometricPrecision" image-rendering="optimizeQuality" fill-rule="nonzero" clip-rule="nonzero" viewBox="0 0 5800 5800" xmlns:xlink="http://www.w3.org/1999/xlink">
	<title>view_1_1 icon</title>
	<desc>view_1_1 icon from the IconExperience.com I-Collection. Copyright by INCORS GmbH (www.incors.com).</desc>
		<path id="curve28"  d="M3058 3331c-290,231 -658,369 -1058,369 -939,0 -1700,-761 -1700,-1700 0,-939 761,-1700 1700,-1700 939,0 1700,761 1700,1700 0,395 -135,758 -360,1047l320 320 -283 283 -319 -319zm-1758 -631l200 0 0 -1400 -400 0 0 200 200 0 0 1200zm1200 0l200 0 0 -1400 -400 0 0 200 200 0 0 1200zm-500 -900c-55,0 -100,45 -100,100 0,55 45,100 100,100 55,0 100,-45 100,-100 0,-55 -45,-100 -100,-100zm0 400c-55,0 -100,45 -100,100 0,55 45,100 100,100 55,0 100,-45 100,-100 0,-55 -45,-100 -100,-100zm1985 1101l1556 1556 -684 684 -1556 -1556 684 -684z"/>
</svg>