<?xml version="1.0" encoding="UTF-8"?>
<!DOCTYPE svg PUBLIC "-//W3C//DTD SVG 1.1//EN" "http://www.w3.org/Graphics/SVG/1.1/DTD/svg11.dtd">
<svg xmlns="http://www.w3.org/2000/svg" xml:space="preserve" width="580px" height="580px" shape-rendering="geometricPrecision" text-rendering="geometricPrecision" image-rendering="optimizeQuality" fill-rule="nonzero" clip-rule="nonzero" viewBox="0 0 5800 5800" xmlns:xlink="http://www.w3.org/1999/xlink">
	<title>violin icon</title>
	<desc>violin icon from the IconExperience.com I-Collection. Copyright by INCORS GmbH (www.incors.com).</desc>
	<path id="curve0"  d="M5320 1328c-41,-41 -36,-94 -5,-146l-66 -66 -78 78 -161 108 92 92c53,-31 106,-36 147,5 78,78 78,205 0,283 -77,78 -205,78 -283,0 -41,-41 -36,-94 -5,-147l-121 -120 -93 62 -998 1039c153,159 271,322 291,609 27,380 -344,729 -662,874l-49 22 -45 -28c-206,-126 -445,-98 -615,73 -184,183 -189,507 -12,696l36 38 -11 51c-44,205 -148,395 -297,544 -219,218 -545,284 -844,262 -339,-24 -581,-172 -747,-310 -51,0 -102,-20 -141,-59l-141 -141c-39,-39 -59,-90 -59,-140 -138,-167 -286,-408 -310,-748 -22,-299 44,-625 262,-844 149,-149 339,-253 544,-297l51 -11 38 36c189,177 513,172 696,-12 171,-170 199,-409 73,-615l-28 -45 22 -49c145,-318 494,-689 874,-662 287,20 450,138 609,291l1039 -998 62 -93 -120 -121c-53,31 -106,36 -147,-5 -38,-38 -59,-89 -59,-142 0,-51 20,-102 59,-141 39,-39 90,-59 141,-59 51,0 103,20 142,59 41,41 36,94 5,147l92 92 108 -161 78 -78 -66 -66c-52,31 -106,36 -147,-5 -39,-39 -58,-90 -58,-141 0,-51 19,-103 58,-142 39,-39 91,-58 142,-58 51,0 102,19 141,58 43,43 34,99 6,147l65 65 71 -70c127,-127 352,-106 474,16l75 75c121,122 143,348 16,474l-70 71 65 65c48,-28 103,-37 147,6 75,75 78,196 7,275 -71,87 -213,84 -290,7zm-3465 2193l-141 141 424 424 141 -141 -424 -424zm-258 682c-49,-49 -109,-86 -174,-109l-120 120c-70,163 -171,313 -296,438l-354 354 0 0 0 0 0 0c0,0 0,0 0,0 0,0 0,0 0,0l0 0 0 0 0 0c12,12 141,141 141,141 1,0 324,-323 354,-354 125,-125 275,-226 438,-296l120 -120c-23,-65 -60,-125 -109,-174z"/>
</svg>