<?xml version="1.0" encoding="UTF-8"?>
<!DOCTYPE svg PUBLIC "-//W3C//DTD SVG 1.1//EN" "http://www.w3.org/Graphics/SVG/1.1/DTD/svg11.dtd">
<svg xmlns="http://www.w3.org/2000/svg" xml:space="preserve" width="580px" height="580px" shape-rendering="geometricPrecision" text-rendering="geometricPrecision" image-rendering="optimizeQuality" fill-rule="nonzero" clip-rule="nonzero" viewBox="0 0 5800 5800" xmlns:xlink="http://www.w3.org/1999/xlink">
	<title>violin icon</title>
	<desc>violin icon from the IconExperience.com I-Collection. Copyright by INCORS GmbH (www.incors.com).</desc>
	<path id="curve0" d="M1855 3521l424 424 -141 141 -424 -424 141 -141zm-117 541c116,115 155,224 188,378l-225 225c-159,65 -290,148 -412,270l-306 306c140,103 328,200 572,217 241,17 512,-27 689,-205 111,-111 190,-245 231,-397 -214,-270 -192,-687 52,-931 221,-221 535,-273 813,-129 138,-71 272,-178 368,-302 88,-112 142,-236 133,-355 -15,-216 -108,-349 -230,-478l-658 685c-166,-166 -333,-333 -499,-499l685 -658c-129,-122 -262,-215 -478,-230 -119,-9 -243,45 -355,133 -124,96 -231,230 -302,368 144,278 92,592 -129,813 -244,244 -661,266 -931,52 -152,41 -286,120 -397,231 -178,177 -222,448 -205,689 17,244 114,432 217,572l306 -306c113,-113 201,-245 262,-392l8 -20 225 -225c154,33 263,72 378,188zm3923 -2875c0,48 -17,96 -51,134 -34,42 -95,66 -149,66 -51,0 -102,-19 -141,-59 -41,-41 -36,-94 -5,-146l-66 -66 -78 78 -161 108 92 92c53,-31 106,-36 147,5 39,39 59,91 59,142 0,51 -20,102 -59,141 -39,39 -90,59 -141,59 -48,0 -96,-17 -134,-52 -3,-2 -5,-4 -8,-7 -41,-41 -36,-94 -5,-147l-121 -120 -93 62 -998 1039c153,159 271,322 291,609 13,172 -59,343 -175,492 -126,162 -307,300 -487,382l-49 22 -45 -28c-206,-126 -445,-98 -615,73 -184,183 -189,507 -12,696l36 38 -11 51c-44,205 -148,395 -297,544 -219,218 -545,284 -844,262 -339,-24 -581,-172 -747,-310 -51,0 -102,-20 -141,-59l-141 -141c-39,-39 -59,-90 -59,-140 -138,-167 -286,-408 -310,-748 -22,-299 44,-625 262,-844 149,-149 339,-253 544,-297l51 -11 38 36c189,177 513,172 696,-12 171,-170 199,-409 73,-615l-28 -45 22 -49c82,-180 220,-361 382,-487 149,-116 320,-188 492,-175 287,20 450,138 609,291l1039 -998 62 -93 -120 -121c-49,29 -104,38 -147,-5 -39,-39 -59,-91 -59,-142 0,-51 22,-106 59,-141 39,-39 90,-59 141,-59 51,0 103,20 142,59 41,41 36,94 5,147l92 92 108 -161 78 -78 -66 -66c-52,31 -106,36 -147,-5 -39,-39 -58,-90 -58,-141 0,-51 19,-103 58,-142 39,-39 91,-58 142,-58 51,0 102,19 141,58 5,5 10,11 13,16 26,39 20,85 -7,131l65 65 71 -70c64,-64 151,-90 236,-86 89,5 178,42 238,102l75 75c59,60 95,145 101,229 6,89 -20,180 -85,245l-70 71 65 65c48,-28 103,-37 147,6 38,39 58,90 58,141zm-3986 3120c-21,-38 -46,-73 -78,-104 -31,-32 -66,-57 -104,-78 -23,-12 -46,-22 -70,-31l-120 120c-70,163 -171,313 -296,438l-354 354 0 0 0 0 0 0c0,0 0,0 0,0 0,0 0,0 0,0l0 0 0 0 0 0c12,12 141,141 141,141 1,0 324,-323 354,-354 125,-125 275,-226 438,-296l120 -120c-9,-24 -19,-47 -31,-70zm1064 -1458l212 212 1669 -1739 424 -283 276 -276c21,-21 29,-55 26,-89 -2,-40 -18,-78 -43,-103l-74 -74c-26,-26 -66,-42 -106,-44 -33,-2 -65,6 -86,27l-276 276 -283 424 -1739 1669z"/>
</svg>