<?xml version="1.0" encoding="UTF-8"?>
<!DOCTYPE svg PUBLIC "-//W3C//DTD SVG 1.1//EN" "http://www.w3.org/Graphics/SVG/1.1/DTD/svg11.dtd">
<svg xmlns="http://www.w3.org/2000/svg" xml:space="preserve" width="580px" height="580px" shape-rendering="geometricPrecision" text-rendering="geometricPrecision" image-rendering="optimizeQuality" fill-rule="nonzero" clip-rule="nonzero" viewBox="0 0 5800 5800" xmlns:xlink="http://www.w3.org/1999/xlink">
	<title>virus icon</title>
	<desc>virus icon from the IconExperience.com I-Collection. Copyright by INCORS GmbH (www.incors.com).</desc>
		<path id="curve28"  d="M2900 1400c25,0 51,1 76,2l-72 359c-22,108 49,214 157,235 108,22 213,-49 235,-157l73 -364c54,18 107,38 158,62 68,-196 254,-337 473,-337 276,0 500,224 500,500 0,204 -122,379 -297,457 41,71 76,147 105,225l-460 125c-106,29 -169,140 -141,245 29,106 140,169 245,141l443 -121c3,42 5,85 5,128 0,127 -16,249 -45,367l-81 -32c-102,-41 -219,9 -259,111 -41,102 9,219 111,259l80 33c-79,139 -179,265 -297,372 -35,-7 -72,-10 -109,-10 -37,0 -73,3 -108,10l-218 -384c-55,-96 -178,-129 -273,-75 -96,55 -129,177 -75,273l219 384c-38,45 -70,96 -94,151 -113,27 -230,41 -351,41 -56,0 -111,-3 -165,-9l60 -283c23,-107 -46,-214 -154,-237 -107,-23 -213,47 -236,154l-58 270c-131,-52 -252,-122 -362,-206l43 -36c84,-70 96,-196 25,-281 -70,-84 -196,-96 -281,-25l-69 57c-146,-193 -246,-422 -285,-672l304 -33c109,-13 189,-111 177,-221 -12,-109 -111,-189 -221,-177l-269 30c15,-130 46,-256 92,-374l403 218c97,53 219,17 271,-80 53,-96 17,-218 -79,-270l-401 -219c66,-88 140,-168 223,-240 -186,-73 -318,-254 -318,-466 0,-276 224,-500 500,-500 276,0 500,224 500,500 0,46 -6,91 -18,134 102,-22 209,-34 318,-34zm-1624 1447l413 -46c55,-6 104,33 110,88 6,55 -33,104 -88,110l-413 46c-23,255 -237,455 -498,455 -276,0 -500,-224 -500,-500 0,-276 224,-500 500,-500 223,0 411,146 476,347zm2024 -2547c276,0 500,224 500,500 0,275 -223,499 -498,500l-104 520c-11,54 -63,89 -118,78 -54,-11 -89,-63 -78,-118l104 -519c-180,-76 -306,-254 -306,-461 0,-276 224,-500 500,-500zm-2200 1100c276,0 500,224 500,500 0,54 -9,106 -25,155l473 257c48,27 66,87 39,136 -26,48 -86,66 -135,39l-475 -259c-92,105 -226,172 -377,172 -276,0 -500,-224 -500,-500 0,-276 224,-500 500,-500zm200 2500c118,0 227,41 313,110l223 -187c43,-35 105,-29 141,13 35,43 29,105 -13,141l-224 186c38,70 60,151 60,237 0,276 -224,500 -500,500 -276,0 -500,-224 -500,-500 0,-276 224,-500 500,-500zm1100 600l5 0 97 -454c12,-54 65,-88 119,-77 54,11 88,64 77,118l-98 455c177,77 300,253 300,458 0,276 -224,500 -500,500 -276,0 -500,-224 -500,-500 0,-276 224,-500 500,-500zm2500 -1300c276,0 500,224 500,500 0,276 -224,500 -500,500 -276,0 -500,-224 -500,-500 0,-31 3,-60 8,-89l-245 -98c-51,-21 -76,-79 -56,-130 21,-51 79,-76 130,-56l245 98c90,-135 243,-225 418,-225zm100 -1300c276,0 500,224 500,500 0,276 -224,500 -500,500 -195,0 -364,-112 -447,-275l-627 171c-53,15 -108,-17 -122,-70 -15,-53 17,-108 70,-122l627 -171c-1,-11 -1,-22 -1,-33 0,-276 224,-500 500,-500zm-1200 3200c-276,0 -500,-224 -500,-500 0,-150 66,-284 170,-376l-257 -449c-27,-48 -10,-109 37,-137 48,-27 109,-11 137,37l257 450c49,-16 101,-25 156,-25 276,0 500,224 500,500 0,276 -224,500 -500,500z"/>
</svg>