<?xml version="1.0" encoding="UTF-8"?>
<!DOCTYPE svg PUBLIC "-//W3C//DTD SVG 1.1//EN" "http://www.w3.org/Graphics/SVG/1.1/DTD/svg11.dtd">
<svg xmlns="http://www.w3.org/2000/svg" xml:space="preserve" width="580px" height="580px" shape-rendering="geometricPrecision" text-rendering="geometricPrecision" image-rendering="optimizeQuality" fill-rule="nonzero" clip-rule="nonzero" viewBox="0 0 5800 5800" xmlns:xlink="http://www.w3.org/1999/xlink">
	<title>virus icon</title>
	<desc>virus icon from the IconExperience.com I-Collection. Copyright by INCORS GmbH (www.incors.com).</desc>
		<path id="curve28"  d="M2900 1400c60,0 118,3 176,10l30 -149c-180,-76 -306,-254 -306,-461 0,-276 224,-500 500,-500 276,0 500,224 500,500 0,275 -223,499 -498,500l-29 147c88,22 173,53 254,90 68,-196 254,-337 473,-337 276,0 500,224 500,500 0,204 -122,379 -297,457 57,100 103,207 136,320l162 -44c-1,-11 -1,-22 -1,-33 0,-276 224,-500 500,-500 276,0 500,224 500,500 0,276 -224,500 -500,500 -195,0 -364,-112 -447,-275l-170 47c11,74 17,150 17,228 0,162 -26,317 -73,463l155 62c90,-135 243,-225 418,-225 276,0 500,224 500,500 0,276 -224,500 -500,500 -276,0 -500,-224 -500,-500 0,-31 3,-60 8,-89l-155 -62c-105,218 -261,407 -453,551 276,0 500,224 500,500 0,276 -224,500 -500,500 -276,0 -500,-224 -500,-500 0,-104 32,-201 86,-281 -152,53 -316,81 -486,81 -90,0 -179,-8 -264,-23l-36 165c177,77 300,253 300,458 0,276 -224,500 -500,500 -276,0 -500,-224 -500,-500 0,-276 224,-500 500,-500l5 0 37 -171c-200,-64 -382,-169 -535,-305l-167 139c38,70 60,151 60,237 0,276 -224,500 -500,500 -276,0 -500,-224 -500,-500 0,-276 224,-500 500,-500 118,0 227,41 313,110l153 -128c-201,-232 -332,-526 -360,-849l-108 12c-23,255 -237,455 -498,455 -276,0 -500,-224 -500,-500 0,-276 224,-500 500,-500 223,0 411,146 476,347l125 -14c9,-203 59,-396 140,-570l-64 -35c-92,105 -226,172 -377,172 -276,0 -500,-224 -500,-500 0,-276 224,-500 500,-500 276,0 500,224 500,500 0,54 -9,106 -25,155l63 34c78,-121 172,-229 280,-323 -186,-73 -318,-254 -318,-466 0,-276 224,-500 500,-500 276,0 500,224 500,500 0,46 -6,91 -18,134 102,-22 209,-34 318,-34zm-1297 1410l86 -9c55,-6 104,33 110,88 6,55 -33,104 -88,110l-106 12c44,524 399,959 879,1121l18 -86c12,-54 65,-88 119,-77 54,11 88,64 77,118l-20 94c72,12 146,19 222,19 177,0 346,-35 500,-100l-187 -325c-27,-48 -10,-109 37,-137 48,-27 109,-11 137,37l191 335c373,-229 622,-640 622,-1110 0,-59 -4,-118 -12,-175l-262 71c-53,15 -108,-17 -122,-70 -15,-53 17,-108 70,-122l272 -74c-128,-433 -475,-771 -913,-887l-35 177c-11,54 -63,89 -118,78 -54,-11 -89,-63 -78,-118l35 -173c-45,-5 -91,-7 -137,-7 -454,0 -853,233 -1086,585l234 127c48,27 66,87 39,136 -26,48 -86,66 -135,39l-235 -128c-63,139 -103,291 -114,451zm560 -1217c43,-24 88,-47 134,-67 63,-55 103,-136 103,-226 0,-166 -134,-300 -300,-300 -166,0 -300,134 -300,300 0,166 134,300 300,300 22,0 43,-2 63,-7zm1137 -1093c-166,0 -300,134 -300,300 0,166 134,300 300,300 166,0 300,-134 300,-300 0,-166 -134,-300 -300,-300zm-2200 1100c-166,0 -300,134 -300,300 0,166 134,300 300,300 166,0 300,-134 300,-300 0,-166 -134,-300 -300,-300zm-300 1100c-166,0 -300,134 -300,300 0,166 134,300 300,300 166,0 300,-134 300,-300 0,-166 -134,-300 -300,-300zm500 1400c-166,0 -300,134 -300,300 0,166 134,300 300,300 166,0 300,-134 300,-300 0,-166 -134,-300 -300,-300zm1100 600c-166,0 -300,134 -300,300 0,166 134,300 300,300 166,0 300,-134 300,-300 0,-166 -134,-300 -300,-300zm1400 -400c-166,0 -300,134 -300,300 0,166 134,300 300,300 166,0 300,-134 300,-300 0,-166 -134,-300 -300,-300zm1100 -900c-166,0 -300,134 -300,300 0,166 134,300 300,300 166,0 300,-134 300,-300 0,-166 -134,-300 -300,-300zm100 -1300c-166,0 -300,134 -300,300 0,166 134,300 300,300 166,0 300,-134 300,-300 0,-166 -134,-300 -300,-300zm-1293 -465c147,94 277,213 383,351 122,-38 210,-152 210,-286 0,-166 -134,-300 -300,-300 -143,0 -263,101 -293,235z"/>
</svg>