<?xml version="1.0" encoding="UTF-8"?>
<!DOCTYPE svg PUBLIC "-//W3C//DTD SVG 1.1//EN" "http://www.w3.org/Graphics/SVG/1.1/DTD/svg11.dtd">
<svg xmlns="http://www.w3.org/2000/svg" xml:space="preserve" width="580px" height="580px" shape-rendering="geometricPrecision" text-rendering="geometricPrecision" image-rendering="optimizeQuality" fill-rule="nonzero" clip-rule="nonzero" viewBox="0 0 5800 5800" xmlns:xlink="http://www.w3.org/1999/xlink">
	<title>voice_recorder icon</title>
	<desc>voice_recorder icon from the IconExperience.com I-Collection. Copyright by INCORS GmbH (www.incors.com).</desc>
	<path id="curve0" d="M4500 300l0 5200 -3200 0 0 -5200c1067,0 2133,0 3200,0zm-400 200l0 200c-200,0 -400,0 -600,0l0 -200 -2000 0 0 4800 2800 0 0 -4800 -200 0zm-200 3100c83,0 150,67 150,150 0,83 -67,150 -150,150 -83,0 -150,-68 -150,-150 0,-82 68,-150 150,-150zm0 400c83,0 150,67 150,150 0,83 -67,150 -150,150 -83,0 -150,-68 -150,-150 0,-82 68,-150 150,-150zm0 400c83,0 150,67 150,150 0,83 -67,150 -150,150 -83,0 -150,-68 -150,-150 0,-82 68,-150 150,-150zm-2000 -800c82,0 150,68 150,150 0,83 -67,150 -150,150 -83,0 -150,-67 -150,-150 0,-83 68,-150 150,-150zm0 400c82,0 150,68 150,150 0,83 -67,150 -150,150 -83,0 -150,-67 -150,-150 0,-83 68,-150 150,-150zm0 400c82,0 150,68 150,150 0,83 -67,150 -150,150 -83,0 -150,-67 -150,-150 0,-83 68,-150 150,-150zm1200 -1200c83,0 150,67 150,150 0,83 -67,150 -150,150 -83,0 -150,-68 -150,-150 0,-82 68,-150 150,-150zm-400 0c82,0 150,68 150,150 0,83 -67,150 -150,150 -83,0 -150,-67 -150,-150 0,-83 68,-150 150,-150zm-403 0c83,0 150,68 150,150 0,83 -67,150 -150,150 -82,0 -150,-67 -150,-150 0,-83 68,-150 150,-150zm1203 0c83,0 150,67 150,150 0,83 -67,150 -150,150 -83,0 -150,-68 -150,-150 0,-82 68,-150 150,-150zm-400 400c83,0 150,67 150,150 0,83 -67,150 -150,150 -83,0 -150,-68 -150,-150 0,-82 68,-150 150,-150zm-400 0c82,0 150,68 150,150 0,83 -67,150 -150,150 -83,0 -150,-67 -150,-150 0,-83 68,-150 150,-150zm-403 0c83,0 150,68 150,150 0,83 -67,150 -150,150 -82,0 -150,-67 -150,-150 0,-83 68,-150 150,-150zm1203 0c83,0 150,67 150,150 0,83 -67,150 -150,150 -83,0 -150,-68 -150,-150 0,-82 68,-150 150,-150zm-400 400c83,0 150,67 150,150 0,83 -67,150 -150,150 -83,0 -150,-68 -150,-150 0,-82 68,-150 150,-150zm-400 0c82,0 150,68 150,150 0,83 -67,150 -150,150 -83,0 -150,-67 -150,-150 0,-83 68,-150 150,-150zm-403 0c83,0 150,68 150,150 0,83 -67,150 -150,150 -82,0 -150,-67 -150,-150 0,-83 68,-150 150,-150zm1203 0c83,0 150,67 150,150 0,83 -67,150 -150,150 -83,0 -150,-68 -150,-150 0,-82 68,-150 150,-150zm-400 400c83,0 150,67 150,150 0,83 -67,150 -150,150 -83,0 -150,-68 -150,-150 0,-82 68,-150 150,-150zm-400 0c82,0 150,68 150,150 0,83 -67,150 -150,150 -83,0 -150,-67 -150,-150 0,-83 68,-150 150,-150zm-403 0c83,0 150,68 150,150 0,83 -67,150 -150,150 -82,0 -150,-67 -150,-150 0,-83 68,-150 150,-150zm1203 0c83,0 150,67 150,150 0,83 -67,150 -150,150 -83,0 -150,-68 -150,-150 0,-82 68,-150 150,-150zm-400 400c83,0 150,67 150,150 0,83 -67,150 -150,150 -83,0 -150,-68 -150,-150 0,-82 68,-150 150,-150zm-400 0c82,0 150,68 150,150 0,83 -67,150 -150,150 -83,0 -150,-67 -150,-150 0,-83 68,-150 150,-150zm-403 0c83,0 150,68 150,150 0,83 -67,150 -150,150 -82,0 -150,-67 -150,-150 0,-83 68,-150 150,-150zm1203 0c83,0 150,67 150,150 0,83 -67,150 -150,150 -83,0 -150,-68 -150,-150 0,-82 68,-150 150,-150zm-200 -2300l0 200 400 0 0 -200 -400 0zm-800 200l0 -200 -400 0 0 200 400 0zm200 -200l0 200 400 0 0 -200 -400 0zm1200 -200l0 600c-667,0 -1333,0 -2000,0l0 -600c667,0 1333,0 2000,0zm200 -1400l0 1200 -2400 0 0 -1200 2400 0zm-200 200l-2000 0 0 800 2000 0 0 -800z"/>
</svg>