<?xml version="1.0" encoding="UTF-8"?>
<!DOCTYPE svg PUBLIC "-//W3C//DTD SVG 1.1//EN" "http://www.w3.org/Graphics/SVG/1.1/DTD/svg11.dtd">
<svg xmlns="http://www.w3.org/2000/svg" xml:space="preserve" width="580px" height="580px" shape-rendering="geometricPrecision" text-rendering="geometricPrecision" image-rendering="optimizeQuality" fill-rule="nonzero" clip-rule="nonzero" viewBox="0 0 5800 5800" xmlns:xlink="http://www.w3.org/1999/xlink">
	<title>voice_recorder icon</title>
	<desc>voice_recorder icon from the IconExperience.com I-Collection. Copyright by INCORS GmbH (www.incors.com).</desc>
	<path id="curve0"  d="M3500 300c0,100 0,300 0,400 200,0 400,0 600,0 0,-100 0,-300 0,-400l400 0 0 5200 -3200 0 0 -5200 2200 0zm400 3300c-82,0 -150,68 -150,150 0,82 67,150 150,150 83,0 150,-67 150,-150 0,-83 -67,-150 -150,-150zm0 400c-82,0 -150,68 -150,150 0,82 67,150 150,150 83,0 150,-67 150,-150 0,-83 -67,-150 -150,-150zm0 400c-82,0 -150,68 -150,150 0,82 67,150 150,150 83,0 150,-67 150,-150 0,-83 -67,-150 -150,-150zm-2000 -800c-82,0 -150,67 -150,150 0,83 67,150 150,150 83,0 150,-67 150,-150 0,-82 -68,-150 -150,-150zm0 400c-82,0 -150,67 -150,150 0,83 67,150 150,150 83,0 150,-67 150,-150 0,-82 -68,-150 -150,-150zm0 400c-82,0 -150,67 -150,150 0,83 67,150 150,150 83,0 150,-67 150,-150 0,-82 -68,-150 -150,-150zm1200 -1200c-82,0 -150,68 -150,150 0,82 67,150 150,150 83,0 150,-67 150,-150 0,-83 -67,-150 -150,-150zm-400 0c-82,0 -150,67 -150,150 0,83 67,150 150,150 83,0 150,-67 150,-150 0,-82 -68,-150 -150,-150zm-403 0c-82,0 -150,67 -150,150 0,83 68,150 150,150 83,0 150,-67 150,-150 0,-82 -67,-150 -150,-150zm1203 0c-82,0 -150,68 -150,150 0,82 67,150 150,150 83,0 150,-67 150,-150 0,-83 -67,-150 -150,-150zm-400 400c-82,0 -150,68 -150,150 0,82 67,150 150,150 83,0 150,-67 150,-150 0,-83 -67,-150 -150,-150zm-400 0c-82,0 -150,67 -150,150 0,83 67,150 150,150 83,0 150,-67 150,-150 0,-82 -68,-150 -150,-150zm-403 0c-82,0 -150,67 -150,150 0,83 68,150 150,150 83,0 150,-67 150,-150 0,-82 -67,-150 -150,-150zm1203 0c-82,0 -150,68 -150,150 0,82 67,150 150,150 83,0 150,-67 150,-150 0,-83 -67,-150 -150,-150zm-400 400c-82,0 -150,68 -150,150 0,82 67,150 150,150 83,0 150,-67 150,-150 0,-83 -67,-150 -150,-150zm-400 0c-82,0 -150,67 -150,150 0,83 67,150 150,150 83,0 150,-67 150,-150 0,-82 -68,-150 -150,-150zm-403 0c-82,0 -150,67 -150,150 0,83 68,150 150,150 83,0 150,-67 150,-150 0,-82 -67,-150 -150,-150zm1203 0c-82,0 -150,68 -150,150 0,82 67,150 150,150 83,0 150,-67 150,-150 0,-83 -67,-150 -150,-150zm-400 400c-82,0 -150,68 -150,150 0,82 67,150 150,150 83,0 150,-67 150,-150 0,-83 -67,-150 -150,-150zm-400 0c-82,0 -150,67 -150,150 0,83 67,150 150,150 83,0 150,-67 150,-150 0,-82 -68,-150 -150,-150zm-403 0c-82,0 -150,67 -150,150 0,83 68,150 150,150 83,0 150,-67 150,-150 0,-82 -67,-150 -150,-150zm1203 0c-82,0 -150,68 -150,150 0,82 67,150 150,150 83,0 150,-67 150,-150 0,-83 -67,-150 -150,-150zm-400 400c-82,0 -150,68 -150,150 0,82 67,150 150,150 83,0 150,-67 150,-150 0,-83 -67,-150 -150,-150zm-400 0c-82,0 -150,67 -150,150 0,83 67,150 150,150 83,0 150,-67 150,-150 0,-82 -68,-150 -150,-150zm-403 0c-82,0 -150,67 -150,150 0,83 68,150 150,150 83,0 150,-67 150,-150 0,-82 -67,-150 -150,-150zm1203 0c-82,0 -150,68 -150,150 0,82 67,150 150,150 83,0 150,-67 150,-150 0,-83 -67,-150 -150,-150zm400 -2500c-667,0 -1333,0 -2000,0 0,200 0,400 0,600 667,0 1333,0 2000,0 0,-200 0,-400 0,-600zm-200 200l0 200 -400 0 0 -200 400 0zm-600 0l0 200 -400 0 0 -200 400 0zm-600 0l0 200 -400 0 0 -200 400 0zm1600 -1600l-2400 0 0 1200 2400 0 0 -1200zm-200 200l0 800 -2000 0 0 -800 2000 0z"/>
</svg>