<?xml version="1.0" encoding="UTF-8"?>
<!DOCTYPE svg PUBLIC "-//W3C//DTD SVG 1.1//EN" "http://www.w3.org/Graphics/SVG/1.1/DTD/svg11.dtd">
<svg xmlns="http://www.w3.org/2000/svg" xml:space="preserve" width="580px" height="580px" shape-rendering="geometricPrecision" text-rendering="geometricPrecision" image-rendering="optimizeQuality" fill-rule="nonzero" clip-rule="nonzero" viewBox="0 0 5800 5800" xmlns:xlink="http://www.w3.org/1999/xlink">
	<title>voodoo_doll icon</title>
	<desc>voodoo_doll icon from the IconExperience.com I-Collection. Copyright by INCORS GmbH (www.incors.com).</desc>
	<path id="curve0"  d="M5098 4200c165,0 300,135 300,300 0,165 -135,300 -300,300 -165,0 -300,-135 -300,-300 0,-20 2,-39 5,-57l-790 -456 -1014 -644 50 -86 1064 556 792 458c52,-44 120,-71 193,-71zm-909 119l3 3c24,175 46,351 69,527 42,319 -109,643 -438,725 -316,79 -639,-114 -723,-428l-200 -746c0,0 0,0 1,0l0 0 0 0c-1,0 -1,0 -1,0 0,0 0,0 -1,0l0 0 0 0c1,0 1,0 1,0l-200 746c-86,320 -415,510 -735,425 -323,-87 -467,-407 -426,-722 11,-90 15,-120 19,-152 81,-626 145,-1118 345,-1671 -152,78 -283,164 -376,247 -166,146 -304,190 -430,172 -125,-18 -225,-95 -322,-192 -212,-213 -213,-560 0,-773 199,-199 426,-370 674,-507 5,1 982,907 1074,1001 78,78 204,78 282,0l71 -71c75,-75 78,-197 6,-276l-833 -905c120,-35 243,-63 369,-84 -200,-151 -318,-387 -318,-638 0,-442 358,-800 800,-800 442,0 800,358 800,800 0,251 -118,487 -319,639 78,12 154,28 230,46l-583 635c-78,78 -78,205 0,283l71 71c76,75 198,78 277,5l842 -774c297,146 570,341 805,575 212,212 212,560 0,773 -97,97 -197,174 -322,192 -126,18 -265,-26 -430,-172 -93,-82 -223,-168 -374,-245 66,181 117,355 158,530l-906 -474c-96,-55 -218,-23 -273,73l-46 79c-59,93 -31,217 62,276l1014 643 283 164zm585 -3250l-650 650 -883 813 -71 -70 813 -884 652 -652c-18,-38 -28,-81 -28,-126 0,-165 135,-300 300,-300 165,0 300,135 300,300 0,165 -135,300 -300,300 -48,0 -93,-11 -133,-31zm-3501 160l648 649 814 884 -71 70 -884 -813 -649 -648c-39,18 -83,29 -129,29 -165,0 -300,-135 -300,-300 0,-165 135,-300 300,-300 165,0 300,135 300,300 0,46 -10,90 -29,129z"/>
</svg>