<?xml version="1.0" encoding="UTF-8"?>
<!DOCTYPE svg PUBLIC "-//W3C//DTD SVG 1.1//EN" "http://www.w3.org/Graphics/SVG/1.1/DTD/svg11.dtd">
<svg xmlns="http://www.w3.org/2000/svg" xml:space="preserve" width="580px" height="580px" shape-rendering="geometricPrecision" text-rendering="geometricPrecision" image-rendering="optimizeQuality" fill-rule="nonzero" clip-rule="nonzero" viewBox="0 0 5800 5800" xmlns:xlink="http://www.w3.org/1999/xlink">
	<title>walkie_talkie icon</title>
	<desc>walkie_talkie icon from the IconExperience.com I-Collection. Copyright by INCORS GmbH (www.incors.com).</desc>
		<path id="curve28" d="M2700 900l0 200 1000 0 0 -800 200 0 0 800 400 0 0 4400 -2800 0 0 -4400 400 0 0 -200 800 0zm-200 200l-400 0 0 200 -400 0 0 4000 2400 0 0 -4000 -1600 0 0 -200zm1400 400l0 1600 -2000 0 0 -1600 2000 0zm-200 200l-1600 0 0 1200 1600 0 0 -1200zm-800 1600c497,0 900,403 900,900 0,497 -403,900 -900,900 -497,0 -900,-403 -900,-900 0,-497 403,-900 900,-900zm0 200c-387,0 -700,313 -700,700 0,387 313,700 700,700 387,0 700,-313 700,-700 0,-387 -313,-700 -700,-700z"/>
</svg>