<?xml version="1.0" encoding="UTF-8"?>
<!DOCTYPE svg PUBLIC "-//W3C//DTD SVG 1.1//EN" "http://www.w3.org/Graphics/SVG/1.1/DTD/svg11.dtd">
<svg xmlns="http://www.w3.org/2000/svg" xml:space="preserve" width="580px" height="580px" shape-rendering="geometricPrecision" text-rendering="geometricPrecision" image-rendering="optimizeQuality" fill-rule="nonzero" clip-rule="nonzero" viewBox="0 0 5800 5800" xmlns:xlink="http://www.w3.org/1999/xlink">
	<title>wallet_empty icon</title>
	<desc>wallet_empty icon from the IconExperience.com I-Collection. Copyright by INCORS GmbH (www.incors.com).</desc>
	<path id="curve0" d="M1300 3300c220,0 400,180 400,400 0,221 -179,400 -400,400 -220,0 -400,-180 -400,-400 0,-221 179,-400 400,-400zm-499 2200l-201 0c-165,0 -300,-135 -300,-300l0 -500 200 0 0 500c0,55 45,100 100,100l110 0c15,74 47,142 91,200zm-501 -2800l0 -700c0,-165 135,-300 300,-300l201 0c-44,58 -76,126 -91,200l-110 0c-55,0 -100,45 -100,100l0 700 -200 0zm600 0l0 -700c0,-165 135,-300 300,-300l4000 0c165,0 300,135 300,300l0 3200c0,165 -135,300 -300,300l-4000 0c-165,0 -300,-135 -300,-300l0 -500 200 0 0 500c0,55 45,100 100,100l4000 0c55,0 100,-45 100,-100l0 -3200c0,-55 -45,-100 -100,-100l-4000 0c-55,0 -100,45 -100,100l0 700 -200 0zm-600 200l1300 0c276,0 500,224 500,500l0 600c0,276 -224,500 -500,500l-1300 0c-110,0 -200,-90 -200,-200l0 -1200c0,-110 90,-200 200,-200zm1300 200l-1300 0 0 1200 1300 0c165,0 300,-135 300,-300l0 -600c0,-165 -135,-300 -300,-300zm-300 400c-110,0 -200,90 -200,200 0,111 89,200 200,200 110,0 200,-90 200,-200 0,-111 -89,-200 -200,-200z"/>
</svg>