<?xml version="1.0" encoding="UTF-8"?>
<!DOCTYPE svg PUBLIC "-//W3C//DTD SVG 1.1//EN" "http://www.w3.org/Graphics/SVG/1.1/DTD/svg11.dtd">
<svg xmlns="http://www.w3.org/2000/svg" xml:space="preserve" width="580px" height="580px" shape-rendering="geometricPrecision" text-rendering="geometricPrecision" image-rendering="optimizeQuality" fill-rule="nonzero" clip-rule="nonzero" viewBox="0 0 5800 5800" xmlns:xlink="http://www.w3.org/1999/xlink">
	<title>wall_barbed_wire icon</title>
	<desc>wall_barbed_wire icon from the IconExperience.com I-Collection. Copyright by INCORS GmbH (www.incors.com).</desc>
		<path id="curve28" d="M5000 900c0,276 -149,525 -392,705 162,61 346,95 542,95l50 0 0 200 -50 0c-277,0 -536,-62 -750,-168 -214,106 -473,168 -750,168 -257,0 -519,-54 -750,-168 -214,106 -473,168 -750,168 -277,0 -536,-62 -750,-168 -214,106 -473,168 -750,168l-50 0 0 -200 50 0c196,0 380,-34 542,-95 -58,-43 -110,-89 -157,-140l-370 147 213 -346 8 -13c-56,-110 -86,-229 -86,-353 0,-116 33,-224 89,-315l-150 -382 325 200c96,-65 211,-103 336,-103 38,0 71,4 108,10 122,22 232,81 316,166 47,46 86,101 115,161l363 -10 -303 240c0,3 0,33 1,33 0,276 -149,525 -392,705 162,61 346,95 542,95 196,0 380,-34 542,-95 -80,-59 -150,-127 -208,-200l-378 78 254 -287c-39,-93 -60,-193 -60,-296 0,-166 67,-316 176,-424 108,-109 258,-176 424,-176 128,0 247,40 345,109l399 -158 -219 358c47,86 75,185 75,291 0,276 -149,525 -392,705 162,61 346,95 542,95 196,0 380,-34 542,-95 -62,-46 -118,-96 -167,-151l-401 82 258 -291c-53,-107 -82,-223 -82,-345 0,-23 1,-47 4,-69l-300 -239 375 10c26,-46 59,-89 97,-126 113,-113 264,-176 424,-176 149,0 285,54 390,144l350 -139 -202 329c39,80 62,170 62,266zm500 1200c0,1133 0,2267 0,3400 -1733,0 -3467,0 -5200,0 0,-1133 0,-2267 0,-3400 1733,0 3467,0 5200,0zm-200 200l-800 0 0 600 800 0 0 -600zm-4800 800l0 600 800 0 0 -600 -800 0zm0 800l0 600c600,0 1200,0 1800,0l0 -600c-600,0 -1200,0 -1800,0zm0 800l0 600 800 0 0 -600 -800 0zm4800 -200l0 -600 -800 0 0 600 800 0zm-3000 -2200l-1800 0 0 600 1800 0 0 -600zm1200 800l0 600 900 0 100 0 800 0 0 -600 -1800 0zm-200 0l-1800 0 0 600c600,0 1200,0 1800,0l0 -600zm1000 -800l-1800 0 0 600 1800 0 0 -600zm0 1600c-600,0 -1200,0 -1800,0l0 600 800 0 100 0 100 0 800 0 0 -600zm-800 800l0 600 1800 0 0 -600c-600,0 -1200,0 -1800,0zm-200 0c-600,0 -1200,0 -1800,0l0 600 1800 0 0 -600zm-2800 -4400l0 1700 -200 0 0 -1700 200 0zm5000 0l0 1700 -200 0 0 -1700 200 0zm-700 600c0,-110 -45,-210 -117,-283 -50,-50 -112,-86 -183,-104l-113 340 -111 -333c-61,19 -115,53 -159,97 -72,73 -117,173 -117,283 0,215 124,411 324,556 24,17 50,34 76,49 26,-15 52,-32 76,-49 35,-26 68,-53 99,-82l-53 -70 -178 -240 287 85 97 29c46,-87 72,-181 72,-278zm-1500 0c0,-110 -45,-210 -117,-283 -73,-72 -173,-117 -283,-117 -63,0 -124,15 -177,41l3 4 212 345 -401 -158c-24,51 -37,108 -37,168 0,214 124,411 324,556 24,17 50,34 76,49 26,-15 52,-32 76,-49 23,-17 46,-35 67,-54l-198 -322 358 141c62,-99 97,-207 97,-321zm-1500 0c0,-110 -45,-210 -117,-283 -12,-11 -24,-22 -37,-32l-49 43 -223 199 60 -293 6 -32c-13,-1 -26,-2 -40,-2 -110,0 -210,45 -283,117 -72,73 -117,173 -117,283 0,215 124,411 324,556 24,17 50,34 76,49 26,-15 52,-32 76,-49 29,-22 57,-44 84,-68l-202 -329 357 142c55,-93 85,-195 85,-301z"/>
</svg>