<?xml version="1.0" encoding="UTF-8"?>
<!DOCTYPE svg PUBLIC "-//W3C//DTD SVG 1.1//EN" "http://www.w3.org/Graphics/SVG/1.1/DTD/svg11.dtd">
<svg xmlns="http://www.w3.org/2000/svg" xml:space="preserve" width="580px" height="580px" shape-rendering="geometricPrecision" text-rendering="geometricPrecision" image-rendering="optimizeQuality" fill-rule="nonzero" clip-rule="nonzero" viewBox="0 0 5800 5800" xmlns:xlink="http://www.w3.org/1999/xlink">
	<title>warehouse icon</title>
	<desc>warehouse icon from the IconExperience.com I-Collection. Copyright by INCORS GmbH (www.incors.com).</desc>
	<path id="curve0" d="M3000 4300l0 1000 700 0 0 -1000 -700 0zm2300 -989l0 2189 -4800 0 0 -2189 -355 178 -90 -178 2845 -1422 2845 1422 -90 178 -355 -178zm-4600 -100l0 2089 1200 0 0 -1200 2000 0 0 1200 1200 0 0 -2089 -2200 -1100 -2200 1100zm2100 2089l0 -1000 -700 0 0 1000 700 0z"/>
</svg>