<?xml version="1.0" encoding="UTF-8"?>
<!DOCTYPE svg PUBLIC "-//W3C//DTD SVG 1.1//EN" "http://www.w3.org/Graphics/SVG/1.1/DTD/svg11.dtd">
<svg xmlns="http://www.w3.org/2000/svg" xml:space="preserve" width="580px" height="580px" shape-rendering="geometricPrecision" text-rendering="geometricPrecision" image-rendering="optimizeQuality" fill-rule="nonzero" clip-rule="nonzero" viewBox="0 0 5800 5800" xmlns:xlink="http://www.w3.org/1999/xlink">
	<title>washing_powder icon</title>
	<desc>washing_powder icon from the IconExperience.com I-Collection. Copyright by INCORS GmbH (www.incors.com).</desc>
	<path id="curve0"  d="M4771 4871l-531 530 -29 30c-83,-330 -89,-656 -99,-995 -12,-407 -12,-864 -12,-1136 0,-105 6,-204 15,-297 31,-294 108,-560 198,-840 67,-213 127,-365 176,-494 16,-41 31,-80 46,-118 30,119 76,242 125,374 113,302 240,643 240,1082 0,458 0,1512 -103,1818 -4,17 -13,33 -26,46zm-2471 -971c331,0 600,269 600,600 0,331 -269,600 -600,600 -331,0 -600,-269 -600,-600 0,-331 269,-600 600,-600zm0 200c-221,0 -400,179 -400,400 0,221 179,400 400,400 221,0 400,-179 400,-400 0,-221 -179,-400 -400,-400zm700 -1200c276,0 500,224 500,500 0,276 -224,500 -500,500 -276,0 -500,-224 -500,-500 0,-276 224,-500 500,-500zm0 200c-166,0 -300,134 -300,300 0,166 134,300 300,300 166,0 300,-134 300,-300 0,-166 -134,-300 -300,-300zm-800 -700c166,0 300,134 300,300 0,165 -135,300 -300,300 -166,0 -300,-134 -300,-300 0,-165 135,-300 300,-300zm0 200c-56,0 -100,44 -100,100 0,55 45,100 100,100 56,0 100,-44 100,-100 0,-55 -45,-100 -100,-100zm2300 -2198c0,-57 -45,-102 -100,-102l-3000 0c-55,0 -100,45 -100,100l0 900c0,236 -76,476 -161,742 -112,352 -239,750 -239,1258 0,540 0,1815 105,2131 14,42 53,69 95,69l2922 0 -19 -77c-52,-165 -78,-560 -90,-982 -13,-434 -13,-877 -13,-1141 0,-109 6,-215 17,-317 32,-310 112,-585 206,-881 70,-221 130,-375 180,-505 127,-328 191,-492 197,-1195zm-900 598c0,110 -90,200 -200,200l-1000 0c-110,0 -200,-90 -200,-200 0,-110 90,-200 200,-200l1000 0c110,0 200,90 200,200z"/>
</svg>