<?xml version="1.0" encoding="UTF-8"?>
<!DOCTYPE svg PUBLIC "-//W3C//DTD SVG 1.1//EN" "http://www.w3.org/Graphics/SVG/1.1/DTD/svg11.dtd">
<svg xmlns="http://www.w3.org/2000/svg" xml:space="preserve" width="580px" height="580px" shape-rendering="geometricPrecision" text-rendering="geometricPrecision" image-rendering="optimizeQuality" fill-rule="nonzero" clip-rule="nonzero" viewBox="0 0 5800 5800" xmlns:xlink="http://www.w3.org/1999/xlink">
	<title>washing_powder icon</title>
	<desc>washing_powder icon from the IconExperience.com I-Collection. Copyright by INCORS GmbH (www.incors.com).</desc>
	<path id="curve0" d="M2300 3900c331,0 600,269 600,600 0,331 -269,600 -600,600 -331,0 -600,-269 -600,-600 0,-331 269,-600 600,-600zm-1000 -2600l0 -900c0,-55 45,-100 100,-100l3000 0c55,0 100,45 100,100l0 900c0,197 76,399 160,625 113,302 240,643 240,1082 0,458 0,1512 -103,1818 -4,17 -13,33 -26,46l-600 600c-20,19 -45,29 -71,29l-3000 0c-48,0 -88,-34 -98,-79 -51,-167 -77,-560 -89,-980 -13,-434 -13,-877 -13,-1141 0,-508 127,-906 239,-1258 85,-266 161,-506 161,-742zm3113 529c-26,89 -55,180 -84,273 -108,338 -229,718 -229,1198 0,457 0,1450 60,1898l453 -452c87,-289 87,-1298 87,-1739 0,-405 -120,-727 -227,-1013 -21,-56 -41,-111 -60,-165zm-2913 -1329l0 800c0,265 -81,519 -171,802 -108,338 -229,718 -229,1198 0,272 0,729 12,1136 11,357 30,690 65,864l2798 0c-75,-448 -75,-1517 -75,-2000 0,-508 127,-906 239,-1258 85,-266 161,-506 161,-742l0 -800 -2800 0zm900 200l1000 0c165,0 300,135 300,300 0,165 -135,300 -300,300l-1000 0c-165,0 -300,-135 -300,-300 0,-165 135,-300 300,-300zm1000 200l-1000 0c-55,0 -100,45 -100,100 0,55 45,100 100,100l1000 0c55,0 100,-45 100,-100 0,-55 -45,-100 -100,-100zm-1200 1500c166,0 300,134 300,300 0,165 -135,300 -300,300 -166,0 -300,-134 -300,-300 0,-165 135,-300 300,-300zm0 200c-56,0 -100,44 -100,100 0,55 45,100 100,100 56,0 100,-44 100,-100 0,-55 -45,-100 -100,-100zm800 300c276,0 500,224 500,500 0,276 -224,500 -500,500 -276,0 -500,-224 -500,-500 0,-276 224,-500 500,-500zm0 200c-166,0 -300,134 -300,300 0,166 134,300 300,300 166,0 300,-134 300,-300 0,-166 -134,-300 -300,-300zm-700 1000c-221,0 -400,179 -400,400 0,221 179,400 400,400 221,0 400,-179 400,-400 0,-221 -179,-400 -400,-400z"/>
</svg>