<?xml version="1.0" encoding="UTF-8"?>
<!DOCTYPE svg PUBLIC "-//W3C//DTD SVG 1.1//EN" "http://www.w3.org/Graphics/SVG/1.1/DTD/svg11.dtd">
<svg xmlns="http://www.w3.org/2000/svg" xml:space="preserve" width="580px" height="580px" shape-rendering="geometricPrecision" text-rendering="geometricPrecision" image-rendering="optimizeQuality" fill-rule="nonzero" clip-rule="nonzero" viewBox="0 0 5800 5800" xmlns:xlink="http://www.w3.org/1999/xlink">
	<title>water_fish icon</title>
	<desc>water_fish icon from the IconExperience.com I-Collection. Copyright by INCORS GmbH (www.incors.com).</desc>
		<path id="curve28"  d="M2450 3900c83,0 150,67 150,150 0,83 -67,150 -150,150 -83,0 -150,-67 -150,-150 0,-83 67,-150 150,-150zm-2147 -1089c235,0 449,-126 563,-332l87 -157 87 157c114,205 328,332 562,332 234,0 446,-125 561,-328l87 -156 87 156c114,205 328,332 563,332 235,0 451,-128 564,-335l87 -158 88 158c113,205 327,331 562,331 234,0 448,-127 562,-332l87 -157 88 157c113,206 327,332 562,332l0 2689c-1732,0 -3465,0 -5197,0l0 -2689zm2934 776l75 -129c11,-17 18,-36 18,-58 0,-55 -45,-100 -100,-100l-500 0 0 0c-35,0 -68,18 -86,50l-101 176c-215,41 -426,122 -580,233 -160,116 -263,265 -263,441 0,174 97,319 248,432 148,111 351,191 561,235l100 174c16,35 50,59 91,59l500 0 0 0c17,0 34,-5 50,-14 47,-27 64,-88 36,-136l-73 -127c27,-11 53,-23 79,-36 60,-31 116,-67 169,-108 22,-18 58,-30 94,-32 25,-1 47,2 57,11 15,13 29,28 43,45 85,95 176,197 545,197 55,0 100,-45 100,-100 0,-112 -27,-218 -53,-324 -24,-94 -47,-188 -47,-276 0,-88 23,-182 47,-276 26,-106 53,-212 53,-324 0,-55 -45,-100 -100,-100 -356,0 -438,98 -527,204 -18,22 -36,44 -61,66 -4,4 -19,3 -38,0 -41,-6 -85,-27 -113,-49 -49,-38 -101,-72 -157,-102 -22,-11 -44,-22 -67,-32z"/>
</svg>