<?xml version="1.0" encoding="UTF-8"?>
<!DOCTYPE svg PUBLIC "-//W3C//DTD SVG 1.1//EN" "http://www.w3.org/Graphics/SVG/1.1/DTD/svg11.dtd">
<svg xmlns="http://www.w3.org/2000/svg" xml:space="preserve" width="580px" height="580px" shape-rendering="geometricPrecision" text-rendering="geometricPrecision" image-rendering="optimizeQuality" fill-rule="nonzero" clip-rule="nonzero" viewBox="0 0 5800 5800" xmlns:xlink="http://www.w3.org/1999/xlink">
	<title>water icon</title>
	<desc>water icon from the IconExperience.com I-Collection. Copyright by INCORS GmbH (www.incors.com).</desc>
		<path id="curve28"  d="M303 2811c235,0 449,-126 563,-332l87 -157 87 157c114,205 328,332 562,332 234,0 446,-125 561,-328l87 -156 87 156c114,205 328,332 563,332 235,0 451,-128 564,-335l87 -158 88 158c113,205 327,331 562,331 234,0 448,-127 562,-332l87 -157 88 157c113,206 327,332 562,332l0 2689c-1732,0 -3465,0 -5197,0l0 -2689z"/>
</svg>