<?xml version="1.0" encoding="UTF-8"?>
<!DOCTYPE svg PUBLIC "-//W3C//DTD SVG 1.1//EN" "http://www.w3.org/Graphics/SVG/1.1/DTD/svg11.dtd">
<svg xmlns="http://www.w3.org/2000/svg" xml:space="preserve" width="580px" height="580px" shape-rendering="geometricPrecision" text-rendering="geometricPrecision" image-rendering="optimizeQuality" fill-rule="nonzero" clip-rule="nonzero" viewBox="0 0 5800 5800" xmlns:xlink="http://www.w3.org/1999/xlink">
	<title>water_fish icon</title>
	<desc>water_fish icon from the IconExperience.com I-Collection. Copyright by INCORS GmbH (www.incors.com).</desc>
		<path id="curve29"  d="M2450 3900c83,0 150,67 150,150 0,83 -67,150 -150,150 -83,0 -150,-67 -150,-150 0,-83 67,-150 150,-150zm787 -313c23,10 45,21 67,32 56,30 108,64 157,102 28,22 72,43 113,49 19,3 34,4 38,0 25,-22 43,-44 61,-66 89,-106 171,-204 527,-204 55,0 100,45 100,100 0,112 -27,218 -53,324 -24,94 -47,188 -47,276 0,88 23,182 47,276 26,106 53,212 53,324 0,55 -45,100 -100,100 -369,0 -460,-102 -545,-197 -14,-17 -28,-32 -43,-45 -10,-9 -32,-12 -57,-11 -36,2 -72,14 -94,32 -53,41 -109,77 -169,108 -26,13 -52,25 -79,36l73 127c39,67 -11,150 -86,150l-500 0c-41,0 -75,-24 -91,-59l-100 -174c-210,-44 -413,-124 -561,-235 -151,-113 -248,-258 -248,-432 0,-176 103,-325 263,-441 154,-111 365,-192 580,-233l101 -176c18,-32 51,-50 86,-50l500 0c55,0 100,45 100,100 0,22 -7,41 -18,58l-75 129zm-647 1093c28,5 54,22 69,49l98 171 271 0 -45 -78c-6,-9 -11,-19 -13,-30 -14,-53 17,-108 71,-122 57,-15 110,-36 160,-61 50,-26 96,-55 138,-88 52,-41 130,-68 204,-73 74,-4 148,13 201,60 24,20 42,41 61,62 47,53 98,110 286,126 -9,-56 -23,-114 -38,-172 -26,-106 -53,-212 -53,-324 0,-112 27,-218 53,-324 15,-58 29,-115 38,-172 -171,16 -216,70 -265,128 -24,29 -49,59 -82,88 -55,49 -128,59 -202,47 -74,-12 -152,-49 -203,-88 -39,-31 -82,-59 -128,-83 -46,-24 -95,-44 -147,-60 0,0 -20,-8 -22,-9 -47,-28 -64,-89 -37,-136l53 -91 -271 0 -93 162c-14,27 -40,47 -73,53 -201,32 -400,104 -541,206 -109,79 -180,175 -180,279 0,104 65,196 167,272 134,100 326,171 523,208z"/>
	<path id="curve28"  d="M303 2811c235,0 449,-126 563,-332l87 -157 87 157c114,205 328,332 562,332 234,0 446,-125 561,-328l87 -156 87 156c114,205 328,332 563,332 235,0 451,-128 564,-335l87 -158 88 158c113,205 327,331 562,331 234,0 448,-127 562,-332l87 -157 88 157c113,206 327,332 562,332l0 200c-252,0 -490,-113 -650,-307 -160,194 -397,307 -649,307 -252,0 -489,-113 -649,-306 -160,196 -399,310 -652,310 -253,0 -490,-113 -651,-308 -160,192 -396,304 -647,304 -251,0 -489,-114 -649,-307 -160,194 -398,307 -650,307l0 -200z"/>
</svg>