<?xml version="1.0" encoding="UTF-8"?>
<!DOCTYPE svg PUBLIC "-//W3C//DTD SVG 1.1//EN" "http://www.w3.org/Graphics/SVG/1.1/DTD/svg11.dtd">
<svg xmlns="http://www.w3.org/2000/svg" xml:space="preserve" width="580px" height="580px" shape-rendering="geometricPrecision" text-rendering="geometricPrecision" image-rendering="optimizeQuality" fill-rule="nonzero" clip-rule="nonzero" viewBox="0 0 5800 5800" xmlns:xlink="http://www.w3.org/1999/xlink">
	<title>watering_can icon</title>
	<desc>watering_can icon from the IconExperience.com I-Collection. Copyright by INCORS GmbH (www.incors.com).</desc>
		<path id="curve28"  d="M3300 2500l-2000 0c0,800 0,1600 0,2400l2057 0 1370 -1468c49,-53 106,-63 166,-47 41,12 79,37 115,68 33,29 66,66 97,100 8,9 17,18 24,27 39,-44 81,-125 115,-230 33,-102 56,-223 56,-350 0,-113 -20,-222 -51,-316 -35,-110 -83,-199 -128,-252 -9,16 -19,34 -29,53 -39,70 -80,145 -121,186l-1671 1670c0,-613 0,-1227 0,-1841zm-1400 -1400c695,0 1287,513 1386,1200l214 0 0 1559 1329 -1330c43,-43 98,-162 135,-223 13,-22 26,-40 38,-54 27,-33 59,-52 98,-52 33,0 67,12 100,34 23,16 47,38 70,65 61,71 125,186 169,324 37,113 61,243 61,377 0,148 -27,291 -66,412 -37,113 -149,388 -313,388 -34,0 -64,-15 -94,-40 -25,-22 -49,-49 -71,-74 -30,-34 -64,-73 -100,-99l-1413 1513 -2343 0 0 -1451c-376,-262 -600,-691 -600,-1149 0,-773 627,-1400 1400,-1400zm0 200c-663,0 -1200,537 -1200,1200 0,343 144,666 400,895 0,-365 0,-730 0,-1095 661,0 1322,0 1984,0 -97,-578 -598,-1000 -1184,-1000z"/>
</svg>