<?xml version="1.0" encoding="UTF-8"?>
<!DOCTYPE svg PUBLIC "-//W3C//DTD SVG 1.1//EN" "http://www.w3.org/Graphics/SVG/1.1/DTD/svg11.dtd">
<svg xmlns="http://www.w3.org/2000/svg" xml:space="preserve" width="580px" height="580px" shape-rendering="geometricPrecision" text-rendering="geometricPrecision" image-rendering="optimizeQuality" fill-rule="nonzero" clip-rule="nonzero" viewBox="0 0 5800 5800" xmlns:xlink="http://www.w3.org/1999/xlink">
	<title>water_tap icon</title>
	<desc>water_tap icon from the IconExperience.com I-Collection. Copyright by INCORS GmbH (www.incors.com).</desc>
		<path id="curve28" d="M2500 300c131,0 242,83 283,200l717 0 0 200 -717 0c-30,86 -99,154 -184,183l0 222c277,28 531,172 698,395l903 0c193,0 368,79 495,205 126,127 205,302 205,495l0 1300 -1200 0 0 -800 -403 0c-189,251 -485,400 -799,400 -315,0 -611,-149 -800,-400l-698 0 0 300c0,337 -294,500 -600,500l-100 0 0 -2800 100 0c306,0 600,163 600,500l0 300 698 0c168,-224 422,-368 701,-395l0 -223c-85,-30 -152,-97 -182,-182l-717 0 0 -200 717 0c41,-117 152,-200 283,-200zm1800 3806c-55,90 -110,169 -160,242 -109,155 -195,278 -195,415 0,193 168,333 355,333 187,0 355,-140 355,-333 0,-137 -86,-260 -195,-415 -50,-73 -105,-152 -160,-242zm-324 127c75,-106 160,-227 235,-378l89 -178 89 178c75,151 160,272 235,379 129,184 231,331 231,529 0,303 -258,533 -555,533 -297,0 -555,-230 -555,-533 0,-198 102,-345 231,-530zm-1478 -2933c-269,0 -517,132 -666,355l-30 45 -802 0 0 800 802 0 30 45c149,223 397,355 666,355 268,0 516,-132 665,-355l30 -45 507 0c110,0 200,90 200,200l0 600 800 0 0 -1100c0,-138 -56,-263 -147,-353 -90,-91 -215,-147 -353,-147l-1007 0 -30 -45c-149,-223 -397,-355 -665,-355zm-1698 -100c0,-179 -138,-269 -300,-293l0 2386c162,-24 300,-114 300,-293 0,-600 0,-1200 0,-1800z"/>
</svg>