<?xml version="1.0" encoding="UTF-8"?>
<!DOCTYPE svg PUBLIC "-//W3C//DTD SVG 1.1//EN" "http://www.w3.org/Graphics/SVG/1.1/DTD/svg11.dtd">
<svg xmlns="http://www.w3.org/2000/svg" xml:space="preserve" width="580px" height="580px" shape-rendering="geometricPrecision" text-rendering="geometricPrecision" image-rendering="optimizeQuality" fill-rule="nonzero" clip-rule="nonzero" viewBox="0 0 5800 5800" xmlns:xlink="http://www.w3.org/1999/xlink">
	<title>wax_seal icon</title>
	<desc>wax_seal icon from the IconExperience.com I-Collection. Copyright by INCORS GmbH (www.incors.com).</desc>
		<path id="curve28" d="M1679 1396c-48,99 -112,173 -175,245 -52,61 -103,120 -133,184 -43,95 -59,193 -49,288 11,97 48,191 110,276 22,30 46,59 69,88 70,87 140,175 184,286 71,182 137,345 232,475 91,123 211,219 396,278 86,28 176,39 268,40 200,1 375,-45 566,-100 233,-67 471,-114 705,-178 114,-32 205,-64 284,-111 78,-45 147,-106 221,-196 97,-118 148,-270 167,-430 24,-205 -3,-423 -53,-607 -33,-125 -43,-263 -53,-393 -7,-108 -15,-220 -36,-326 -14,-71 -35,-138 -66,-180 -99,-132 -419,-187 -684,-234 -117,-20 -224,-38 -307,-63 -79,-24 -160,-54 -243,-86 -244,-92 -509,-193 -728,-97 -157,68 -286,197 -395,346 -113,157 -204,335 -280,495zm126 2298c-108,195 -231,431 -343,667 -75,159 -145,316 -200,459 130,-41 233,-71 320,-91 134,-31 231,-38 328,-28 105,11 206,43 329,123 82,52 173,126 283,228 26,-270 43,-602 58,-893 4,-71 8,-140 11,-205 68,0 135,-4 201,-12 -4,72 -8,148 -12,227 -20,371 -42,808 -82,1109l-27 200 -143 -143c-170,-170 -295,-277 -397,-343 -93,-61 -167,-85 -241,-93 -74,-8 -152,-1 -263,25 -118,27 -273,75 -496,148l-186 61 60 -186c62,-194 164,-432 277,-671 121,-257 258,-517 375,-725 44,51 93,99 148,143zm1145 -2694c580,0 1050,470 1050,1050 0,580 -470,1050 -1050,1050 -580,0 -1050,-470 -1050,-1050 0,-580 470,-1050 1050,-1050zm0 200c-469,0 -850,381 -850,850 0,469 381,850 850,850 469,0 850,-381 850,-850 0,-469 -381,-850 -850,-850zm276 2649c33,191 75,417 119,644 37,184 74,367 110,530 85,-102 159,-181 227,-241 107,-96 199,-148 287,-177 192,-63 350,2 721,155l21 8c-83,-182 -183,-388 -287,-590 -104,-202 -211,-399 -310,-564 66,-23 127,-49 185,-80 97,165 201,357 302,552 153,297 297,602 391,829l91 219 -220 -88c-87,-35 -172,-70 -248,-101 -323,-134 -461,-190 -584,-150 -63,20 -132,61 -217,136 -91,82 -198,202 -330,377l-128 170 -49 -207c-48,-202 -104,-469 -158,-740 -42,-217 -83,-438 -117,-631 70,-16 132,-34 194,-51zm-1872 -2338c54,-63 109,-127 145,-201 81,-169 177,-359 299,-526 126,-175 281,-327 477,-412 292,-128 597,-13 877,93 80,31 157,60 229,82 71,20 173,38 284,58 301,52 664,115 811,311 52,70 83,164 102,260 23,115 31,234 40,351 8,121 17,248 46,355 55,206 86,450 58,683 -23,194 -87,382 -211,533 -90,110 -176,185 -274,242 -96,56 -201,93 -332,130 -233,64 -470,111 -703,178 -211,60 -401,108 -622,107 -111,-1 -222,-15 -328,-49 -230,-74 -381,-195 -496,-350 -109,-150 -181,-325 -257,-520 -33,-83 -93,-159 -153,-234 -26,-31 -51,-63 -75,-95 -83,-114 -133,-241 -147,-373 -14,-130 7,-263 66,-392 42,-91 102,-160 164,-231z"/>
</svg>