<?xml version="1.0" encoding="UTF-8"?>
<!DOCTYPE svg PUBLIC "-//W3C//DTD SVG 1.1//EN" "http://www.w3.org/Graphics/SVG/1.1/DTD/svg11.dtd">
<svg xmlns="http://www.w3.org/2000/svg" xml:space="preserve" width="580px" height="580px" shape-rendering="geometricPrecision" text-rendering="geometricPrecision" image-rendering="optimizeQuality" fill-rule="nonzero" clip-rule="nonzero" viewBox="0 0 5800 5800" xmlns:xlink="http://www.w3.org/1999/xlink">
	<title>wax_seal_broken icon</title>
	<desc>wax_seal_broken icon from the IconExperience.com I-Collection. Copyright by INCORS GmbH (www.incors.com).</desc>
		<path id="curve28" d="M3381 547c33,9 67,17 101,24 55,11 117,22 183,34 301,52 664,115 811,311 52,70 83,164 102,260 18,89 26,180 32,250 2,26 5,63 8,101 8,121 17,248 46,355 55,206 86,450 58,683 -23,194 -87,382 -211,533 -90,110 -176,185 -274,242 -96,56 -201,93 -332,130 -120,33 -234,60 -348,87 -64,15 -128,30 -176,42 -56,14 -118,31 -179,49 -66,19 -132,38 -202,54 -34,-342 -68,-684 -103,-1026l476 -761 -499 -499c165,-274 329,-548 493,-823l14 -46zm110 229l-174 290c411,155 683,544 683,984 0,507 -364,943 -861,1033l36 365c50,-15 102,-29 159,-43 69,-17 123,-30 177,-43 117,-27 233,-55 341,-84 114,-32 205,-64 284,-111 78,-45 147,-106 221,-196 97,-118 148,-270 167,-430 24,-205 -3,-423 -53,-607 -33,-125 -43,-263 -53,-393 -2,-30 -4,-60 -7,-99 -6,-64 -13,-148 -29,-227 -14,-71 -35,-138 -66,-180 -99,-132 -419,-187 -684,-234 -49,-8 -97,-16 -141,-25zm-279 465l-86 143 501 501 -524 839 16 159c11,-2 23,-5 35,-8 379,-93 646,-434 646,-825 0,-369 -238,-696 -588,-809zm-1533 155c-48,99 -112,173 -175,245 -52,61 -103,120 -133,184 -43,95 -59,193 -49,288 11,97 48,191 110,276 22,30 46,59 69,88 70,87 140,175 184,286 71,182 137,345 232,475 91,123 211,219 396,278 86,28 176,39 268,40 16,0 33,0 49,-1l-155 -568c-352,-179 -575,-540 -575,-937 0,-298 125,-579 345,-778l315 -756c-71,-1 -141,10 -206,39 -157,68 -286,197 -395,346 -113,157 -204,335 -280,495zm1205 2331c-99,17 -201,29 -304,28 -111,-1 -222,-15 -328,-49 -230,-74 -381,-195 -496,-350 -109,-150 -181,-325 -257,-520 -33,-83 -93,-159 -153,-234 -26,-31 -51,-63 -75,-95 -83,-114 -133,-241 -147,-373 -14,-130 7,-263 66,-392 42,-91 102,-160 164,-231 54,-63 109,-127 145,-201 81,-169 177,-359 299,-526 126,-175 281,-327 477,-412 187,-82 379,-64 567,-13 -141,339 -283,678 -424,1018l607 606 -418 731c92,337 185,675 277,1013zm-602 -2203c-114,145 -182,327 -182,526 0,248 107,482 295,644l-2 -8 382 -669 -493 -493zm-477 2170c-108,195 -231,431 -343,667 -75,159 -145,316 -200,459 130,-41 233,-71 320,-91 134,-31 231,-38 328,-28 105,11 206,43 329,123 82,52 173,126 283,228 26,-270 43,-602 58,-893 4,-71 8,-140 11,-205 68,0 135,-4 201,-12 -4,72 -8,148 -12,227 -20,371 -42,808 -82,1109l-27 200 -143 -143c-170,-170 -295,-277 -397,-343 -93,-61 -167,-85 -241,-93 -74,-8 -152,-1 -263,25 -118,27 -273,75 -496,148l-186 61 60 -186c62,-194 164,-432 277,-671 121,-257 258,-517 375,-725 44,51 93,99 148,143zm1421 155c33,191 75,417 119,644 37,184 74,367 110,530 85,-102 159,-181 227,-241 107,-96 199,-148 287,-177 192,-63 350,2 721,155l21 8c-83,-182 -183,-388 -287,-590 -104,-202 -211,-399 -310,-564 66,-23 127,-49 185,-80 97,165 201,357 302,552 153,297 297,602 391,829l91 219 -220 -88c-87,-35 -172,-70 -248,-101 -323,-134 -461,-190 -584,-150 -63,20 -132,61 -217,136 -91,82 -198,202 -330,377l-128 170 -49 -207c-48,-202 -104,-469 -158,-740 -42,-217 -83,-438 -117,-631 70,-16 132,-34 194,-51z"/>
</svg>