<?xml version="1.0" encoding="UTF-8"?>
<!DOCTYPE svg PUBLIC "-//W3C//DTD SVG 1.1//EN" "http://www.w3.org/Graphics/SVG/1.1/DTD/svg11.dtd">
<svg xmlns="http://www.w3.org/2000/svg" xml:space="preserve" width="580px" height="580px" shape-rendering="geometricPrecision" text-rendering="geometricPrecision" image-rendering="optimizeQuality" fill-rule="nonzero" clip-rule="nonzero" viewBox="0 0 5800 5800" xmlns:xlink="http://www.w3.org/1999/xlink">
	<title>wax_seal_broken icon</title>
	<desc>wax_seal_broken icon from the IconExperience.com I-Collection. Copyright by INCORS GmbH (www.incors.com).</desc>
		<path id="curve28"  d="M2424 1382l601 601 -418 731c92,337 184,675 277,1013 -208,37 -429,45 -632,-21 -230,-74 -381,-195 -496,-350 -109,-150 -181,-325 -257,-520 -47,-120 -151,-225 -228,-329 -83,-114 -133,-241 -147,-373 -14,-130 7,-263 66,-392 77,-168 232,-273 309,-432 81,-169 177,-359 299,-526 126,-175 281,-327 477,-412 187,-82 379,-64 567,-13 -141,339 -283,678 -424,1018l6 5zm-29 1312c-188,-162 -295,-396 -295,-644 0,-199 68,-381 182,-526l-100 -101 63 -151c-220,199 -345,480 -345,778 0,397 223,758 575,937l-80 -293zm922 -1628l-105 175c350,113 588,440 588,809 0,405 -286,754 -681,833l20 200c497,-90 861,-526 861,-1033 0,-439 -273,-831 -683,-984zm-420 1610l476 -762 -499 -499c173,-288 346,-576 519,-865 70,19 167,36 272,55 301,52 664,115 811,311 52,70 83,164 102,260 23,115 31,234 40,351 8,121 17,248 46,355 55,206 86,450 58,683 -23,194 -87,382 -211,533 -178,216 -341,298 -606,372 -233,64 -470,111 -703,178 -66,19 -132,38 -202,54 -35,-342 -69,-684 -103,-1026zm-105 1266c-4,72 -8,148 -12,227 -20,371 -42,808 -82,1109l-27 200 -143 -143c-170,-170 -295,-277 -397,-343 -173,-112 -308,-113 -504,-68 -118,27 -273,75 -496,148l-186 61 60 -186c62,-194 164,-432 277,-671 121,-257 258,-517 375,-725 130,150 297,269 534,345 127,41 258,58 388,58 72,1 143,-4 213,-12zm1507 -408c97,165 201,357 302,552 153,297 297,602 391,829l91 219 -220 -88c-87,-35 -172,-70 -248,-101 -323,-134 -461,-190 -584,-150 -203,66 -424,349 -547,513l-128 170 -49 -207c-48,-202 -104,-469 -158,-740 -42,-217 -83,-438 -117,-631 81,-19 153,-39 224,-60 233,-67 469,-113 702,-178 131,-36 240,-74 341,-128z"/>
</svg>