<?xml version="1.0" encoding="UTF-8"?>
<!DOCTYPE svg PUBLIC "-//W3C//DTD SVG 1.1//EN" "http://www.w3.org/Graphics/SVG/1.1/DTD/svg11.dtd">
<svg xmlns="http://www.w3.org/2000/svg" xml:space="preserve" width="580px" height="580px" shape-rendering="geometricPrecision" text-rendering="geometricPrecision" image-rendering="optimizeQuality" fill-rule="nonzero" clip-rule="nonzero" viewBox="0 0 5800 5800" xmlns:xlink="http://www.w3.org/1999/xlink">
	<title>wax_seal icon</title>
	<desc>wax_seal icon from the IconExperience.com I-Collection. Copyright by INCORS GmbH (www.incors.com).</desc>
		<path id="curve28"  d="M2792 3942c-4,72 -8,148 -12,227 -20,371 -42,808 -82,1109l-27 200 -143 -143c-170,-170 -295,-277 -397,-343 -173,-112 -308,-113 -504,-68 -118,27 -273,75 -496,148l-186 61 60 -186c62,-194 164,-432 277,-671 121,-257 258,-517 375,-725 130,150 297,269 534,345 127,41 258,58 388,58 72,1 143,-4 213,-12zm1507 -408c97,165 201,357 302,552 153,297 297,602 391,829l91 219 -220 -88c-87,-35 -172,-70 -248,-101 -323,-134 -461,-190 -584,-150 -63,20 -132,61 -217,136 -91,82 -198,202 -330,377l-128 170 -49 -207c-48,-202 -104,-469 -158,-740 -42,-217 -83,-438 -117,-631 81,-19 153,-39 224,-60 117,-33 228,-61 346,-89 112,-26 225,-53 356,-89 131,-36 240,-74 341,-128zm-2800 -2224c81,-169 177,-359 299,-526 126,-175 281,-327 477,-412 292,-128 597,-13 877,93 80,31 157,60 229,82 71,20 173,38 284,58 301,52 664,115 811,311 52,70 83,164 102,260 23,115 31,234 40,351 8,121 17,248 46,355 55,206 86,450 58,683 -23,194 -87,382 -211,533 -90,110 -176,185 -274,242 -96,56 -201,93 -332,130 -120,33 -234,60 -348,87 -120,28 -237,57 -355,91 -97,28 -194,55 -302,76 2,12 -294,31 -320,31 -111,-1 -222,-15 -328,-49 -230,-74 -381,-195 -496,-350 -109,-150 -181,-325 -257,-520 -33,-83 -93,-159 -153,-234 -26,-31 -51,-63 -75,-95 -83,-114 -133,-241 -147,-373 -14,-130 7,-263 66,-392 77,-168 232,-273 309,-432zm1451 -310c-580,0 -1050,470 -1050,1050 0,580 470,1050 1050,1050 580,0 1050,-470 1050,-1050 0,-580 -470,-1050 -1050,-1050zm850 1050c0,469 -381,850 -850,850 -469,0 -850,-381 -850,-850 0,-469 381,-850 850,-850 469,0 850,381 850,850z"/>
</svg>