<?xml version="1.0" encoding="UTF-8"?>
<!DOCTYPE svg PUBLIC "-//W3C//DTD SVG 1.1//EN" "http://www.w3.org/Graphics/SVG/1.1/DTD/svg11.dtd">
<svg xmlns="http://www.w3.org/2000/svg" xml:space="preserve" width="580px" height="580px" shape-rendering="geometricPrecision" text-rendering="geometricPrecision" image-rendering="optimizeQuality" fill-rule="nonzero" clip-rule="nonzero" viewBox="0 0 5800 5800" xmlns:xlink="http://www.w3.org/1999/xlink">
	<title>web icon</title>
	<desc>web icon from the IconExperience.com I-Collection. Copyright by INCORS GmbH (www.incors.com).</desc>
		<path id="curve28" d="M5268 2397c-687,682 -999,1663 -827,2616l147 201 -162 117 -163 -224c-859,-441 -1891,-435 -2743,23l-146 201 -162 -117 163 -224c155,-956 -169,-1932 -869,-2602l-237 -77 62 -190 263 86c957,-148 1785,-758 2206,-1631l0 -249 200 0 0 277c437,864 1272,1464 2232,1594l237 -77 62 190 -263 86zm-2268 -1395l0 699c329,357 726,644 1169,843l675 -219c-757,-196 -1415,-670 -1844,-1323zm0 985l0 937 895 -291c-328,-170 -630,-389 -895,-646zm-200 937l0 -942c-263,260 -564,479 -891,652l891 290zm0 -1230l0 -708c-420,659 -1074,1138 -1827,1344l664 216c440,-202 838,-493 1163,-852zm-62 1420l-895 -291c166,331 281,684 345,1049l550 -758zm-1169 -380l-674 -220c497,603 751,1374 714,2154l411 -565c-57,-481 -210,-949 -451,-1369zm1331 497l-553 762c365,-55 738,-56 1104,-4l-551 -758zm-722 994l-417 574c725,-286 1540,-289 2269,-13l-411 -566c-475,-95 -968,-94 -1441,5zm884 -1111l553 761c61,-365 175,-719 338,-1051l-891 290zm722 994l417 574c-48,-780 200,-1553 688,-2162l-665 216c-237,422 -388,890 -440,1372z"/>
</svg>