<?xml version="1.0" encoding="UTF-8"?>
<!DOCTYPE svg PUBLIC "-//W3C//DTD SVG 1.1//EN" "http://www.w3.org/Graphics/SVG/1.1/DTD/svg11.dtd">
<svg xmlns="http://www.w3.org/2000/svg" xml:space="preserve" width="580px" height="580px" shape-rendering="geometricPrecision" text-rendering="geometricPrecision" image-rendering="optimizeQuality" fill-rule="nonzero" clip-rule="nonzero" viewBox="0 0 5800 5800" xmlns:xlink="http://www.w3.org/1999/xlink">
	<title>web icon</title>
	<desc>web icon from the IconExperience.com I-Collection. Copyright by INCORS GmbH (www.incors.com).</desc>
		<path id="curve28"  d="M3000 302c1090,41 2007,753 2353,1734l-180 59c-930,-125 -1751,-733 -2173,-1567l0 -226zm1786 1919l-642 208c-430,-194 -825,-497 -1144,-843l0 -661c416,629 1055,1102 1786,1296zm-914 296l-872 284 0 -928c258,252 553,475 872,644zm1540 -290c57,215 88,440 88,673 0,829 -388,1567 -992,2043l-117 -161c-166,-917 149,-1830 806,-2485l215 -70zm-1260 2226l-395 -544c51,-460 209,-884 436,-1286l626 -203c-462,576 -707,1294 -667,2033zm-563 -775l-505 -695 836 -271c-155,307 -270,628 -331,966zm757 1383c-413,277 -911,439 -1446,439 -535,0 -1033,-162 -1446,-439l117 -162c820,-440 1814,-447 2642,-22l133 184zm-2536 -491l395 -543c456,-95 930,-97 1387,-5l389 535c-698,-261 -1476,-258 -2171,13zm564 -776l526 -724 524 721c-348,-49 -703,-48 -1050,3zm-1082 1149c-604,-476 -992,-1214 -992,-2043 0,-245 34,-483 98,-708l190 62c673,645 986,1585 837,2506l-133 183zm-317 -2563l638 207c232,404 380,855 434,1318l-389 534c32,-746 -210,-1481 -683,-2059zm912 296l851 276 -524 722c-60,-347 -170,-683 -327,-998zm-1428 -674c355,-964 1264,-1659 2341,-1700l0 199c-406,841 -1203,1428 -2125,1571l-216 -70zm2341 -1093l0 671c-313,345 -696,624 -1119,819l-629 -204c720,-200 1344,-658 1748,-1286zm0 958l0 896 -848 -276c311,-165 597,-373 848,-620z"/>
</svg>