<?xml version="1.0" encoding="UTF-8"?>
<!DOCTYPE svg PUBLIC "-//W3C//DTD SVG 1.1//EN" "http://www.w3.org/Graphics/SVG/1.1/DTD/svg11.dtd">
<svg xmlns="http://www.w3.org/2000/svg" xml:space="preserve" width="580px" height="580px" shape-rendering="geometricPrecision" text-rendering="geometricPrecision" image-rendering="optimizeQuality" fill-rule="nonzero" clip-rule="nonzero" viewBox="0 0 5800 5800" xmlns:xlink="http://www.w3.org/1999/xlink">
	<title>webcam icon</title>
	<desc>webcam icon from the IconExperience.com I-Collection. Copyright by INCORS GmbH (www.incors.com).</desc>
		<path id="curve28"  d="M2900 300c1105,0 2000,895 2000,2000 0,1105 -895,2000 -2000,2000 -1105,0 -2000,-895 -2000,-2000 0,-1105 895,-2000 2000,-2000zm600 2000l-200 0c0,221 -179,400 -400,400l0 200c331,0 600,-269 600,-600zm-600 -1000c-552,0 -1000,448 -1000,1000 0,552 448,1000 1000,1000 552,0 1000,-448 1000,-1000 0,-552 -448,-1000 -1000,-1000zm800 1000c0,442 -358,800 -800,800 -442,0 -800,-358 -800,-800 0,-442 358,-800 800,-800 442,0 800,358 800,800zm1000 2659l0 541 -3600 0c0,-180 0,-361 0,-541l770 -770c339,171 646,261 1030,261 381,0 692,-90 1030,-261l770 770z"/>
</svg>