<?xml version="1.0" encoding="UTF-8"?>
<!DOCTYPE svg PUBLIC "-//W3C//DTD SVG 1.1//EN" "http://www.w3.org/Graphics/SVG/1.1/DTD/svg11.dtd">
<svg xmlns="http://www.w3.org/2000/svg" xml:space="preserve" width="580px" height="580px" shape-rendering="geometricPrecision" text-rendering="geometricPrecision" image-rendering="optimizeQuality" fill-rule="nonzero" clip-rule="nonzero" viewBox="0 0 5800 5800" xmlns:xlink="http://www.w3.org/1999/xlink">
	<title>webcam icon</title>
	<desc>webcam icon from the IconExperience.com I-Collection. Copyright by INCORS GmbH (www.incors.com).</desc>
		<path id="curve28" d="M3500 2300c0,331 -269,600 -600,600l0 -200c221,0 400,-179 400,-400l200 0zm-600 -2000c1105,0 2000,895 2000,2000 0,1105 -895,2000 -2000,2000 -1105,0 -2000,-895 -2000,-2000 0,-1105 895,-2000 2000,-2000zm0 200c-994,0 -1800,806 -1800,1800 0,994 806,1800 1800,1800 994,0 1800,-806 1800,-1800 0,-994 -806,-1800 -1800,-1800zm0 800c552,0 1000,448 1000,1000 0,552 -448,1000 -1000,1000 -552,0 -1000,-448 -1000,-1000 0,-552 448,-1000 1000,-1000zm0 200c-442,0 -800,358 -800,800 0,442 358,800 800,800 442,0 800,-358 800,-800 0,-442 -358,-800 -800,-800zm1800 3459l0 41 0 500 -3600 0 0 -541 770 -770 64 33c300,151 630,228 966,228 336,0 666,-77 966,-228l64 -33 770 770zm-200 82l-610 -610c-310,145 -648,219 -990,219 -342,0 -680,-74 -990,-219l-610 610 0 259 3200 0 0 -259z"/>
</svg>