<?xml version="1.0" encoding="UTF-8"?>
<!DOCTYPE svg PUBLIC "-//W3C//DTD SVG 1.1//EN" "http://www.w3.org/Graphics/SVG/1.1/DTD/svg11.dtd">
<svg xmlns="http://www.w3.org/2000/svg" xml:space="preserve" width="580px" height="580px" shape-rendering="geometricPrecision" text-rendering="geometricPrecision" image-rendering="optimizeQuality" fill-rule="nonzero" clip-rule="nonzero" viewBox="0 0 5800 5800" xmlns:xlink="http://www.w3.org/1999/xlink">
	<title>wedding_rings icon</title>
	<desc>wedding_rings icon from the IconExperience.com I-Collection. Copyright by INCORS GmbH (www.incors.com).</desc>
	<path id="curve0"  d="M1900 4398c-884,0 -1600,-717 -1600,-1600 0,-884 716,-1600 1600,-1600 304,0 588,85 830,232 -104,89 -198,190 -280,301 -165,-85 -352,-133 -550,-133 -663,0 -1200,537 -1200,1200 0,662 537,1200 1200,1200 663,0 1200,-538 1200,-1200 0,-162 -32,-316 -90,-457 68,-131 163,-246 280,-336 134,234 210,504 210,793 0,883 -716,1600 -1600,1600zm2000 -3200c884,0 1600,716 1600,1600 0,883 -716,1600 -1600,1600 -304,0 -588,-85 -830,-232 104,-90 198,-191 280,-302 165,86 352,134 550,134 663,0 1200,-538 1200,-1200 0,-663 -537,-1200 -1200,-1200 -663,0 -1200,537 -1200,1200 0,161 32,316 90,456 -67,131 -163,246 -280,336 -134,-233 -210,-504 -210,-792 0,-884 716,-1600 1600,-1600z"/>
</svg>