<?xml version="1.0" encoding="UTF-8"?>
<!DOCTYPE svg PUBLIC "-//W3C//DTD SVG 1.1//EN" "http://www.w3.org/Graphics/SVG/1.1/DTD/svg11.dtd">
<svg xmlns="http://www.w3.org/2000/svg" xml:space="preserve" width="580px" height="580px" shape-rendering="geometricPrecision" text-rendering="geometricPrecision" image-rendering="optimizeQuality" fill-rule="nonzero" clip-rule="nonzero" viewBox="0 0 5800 5800" xmlns:xlink="http://www.w3.org/1999/xlink">
	<title>wedding_rings icon</title>
	<desc>wedding_rings icon from the IconExperience.com I-Collection. Copyright by INCORS GmbH (www.incors.com).</desc>
	<path id="curve0" d="M3900 1198c884,0 1600,716 1600,1600 0,883 -716,1600 -1600,1600 -304,0 -588,-85 -830,-232 53,-45 103,-93 150,-144 201,112 433,176 680,176 773,0 1400,-627 1400,-1400 0,-774 -627,-1400 -1400,-1400 -773,0 -1400,626 -1400,1400 0,309 100,595 270,826 -46,49 -96,94 -150,134 -201,-268 -320,-600 -320,-960 0,-884 716,-1600 1600,-1600zm-400 1600c0,883 -716,1600 -1600,1600 -884,0 -1600,-717 -1600,-1600 0,-884 716,-1600 1600,-1600 304,0 588,85 830,232 -53,45 -103,93 -150,144 -201,-112 -433,-176 -680,-176 -773,0 -1400,626 -1400,1400 0,773 627,1400 1400,1400 773,0 1400,-627 1400,-1400 0,-309 -100,-595 -270,-827 46,-48 96,-93 150,-133 201,267 320,599 320,960z"/>
</svg>