<?xml version="1.0" encoding="utf-8"?>
<!-- Generator: Adobe Illustrator 19.2.1, SVG Export Plug-In . SVG Version: 6.00 Build 0)  -->
<svg version="1.1" id="Ebene_1" xmlns="http://www.w3.org/2000/svg" xmlns:xlink="http://www.w3.org/1999/xlink" x="0px" y="0px"
	 width="580px" height="580px" viewBox="0 0 580 580" style="enable-background:new 0 0 580 580;" xml:space="preserve">
<g>
	<rect x="111" y="333" width="54" height="54"/>
	<rect x="111" y="420" width="54" height="54"/>
	<rect x="111" y="246" width="54" height="53"/>
	<polygon points="408,171.1 456,131.1 408,91.1 	"/>
	<polygon points="172,171.1 172,91.1 124,131.1 	"/>
	<path d="M90,210h400h20V50H70v480h113v-20H90V210z M90,70h400v120H90V70z"/>
	<path d="M223,249v313h320V249H223z M523,542H243V269h280V542z"/>
	<path d="M388.1,384.2c-6.1,12.6-11.5,25.2-16.4,37.7c-4.9,12.5-9.1,25-12.8,37.5c-3.6,12.5-6.4,24.6-8.4,37.6h29.7
		c2.1-14,5.1-27.9,9-41.4c3.9-13.5,8.5-26.9,13.8-40.1c5.3-13.3,11.4-26.5,17.9-39.6c6.5-13.1,13-26.4,21-39.9v-14H325v24h82.5
		C400.6,359,394.2,371.6,388.1,384.2z"/>
</g>
</svg>
