<?xml version="1.0" encoding="UTF-8"?>
<!DOCTYPE svg PUBLIC "-//W3C//DTD SVG 1.1//EN" "http://www.w3.org/Graphics/SVG/1.1/DTD/svg11.dtd">
<svg xmlns="http://www.w3.org/2000/svg" xml:space="preserve" width="580px" height="580px" shape-rendering="geometricPrecision" text-rendering="geometricPrecision" image-rendering="optimizeQuality" fill-rule="nonzero" clip-rule="nonzero" viewBox="0 0 5800 5800" xmlns:xlink="http://www.w3.org/1999/xlink">
	<title>weight icon</title>
	<desc>weight icon from the IconExperience.com I-Collection. Copyright by INCORS GmbH (www.incors.com).</desc>
		<path id="curve28" d="M2900 700c331,0 600,269 600,600 0,154 -58,294 -153,400l585 0c162,0 310,118 356,271l795 2600c71,233 -103,529 -356,529l-3654 0c-255,0 -425,-297 -357,-528l772 -2600c45,-154 195,-272 356,-272l609 0c-95,-106 -153,-246 -153,-400 0,-331 269,-600 600,-600zm1032 1200l-2088 0c-73,0 -144,59 -165,128l-771 2600c-6,18 -8,36 -8,55 0,84 56,187 141,212 10,3 21,5 32,5l3654 0c12,0 23,-2 33,-5 84,-25 140,-127 140,-211 0,-19 -2,-38 -8,-55l-794 -2600c-21,-69 -92,-129 -166,-129zm-1032 -1000c-221,0 -400,179 -400,400 0,221 179,400 400,400 221,0 400,-179 400,-400 0,-221 -179,-400 -400,-400z"/>
</svg>