<?xml version="1.0" encoding="UTF-8"?>
<!DOCTYPE svg PUBLIC "-//W3C//DTD SVG 1.1//EN" "http://www.w3.org/Graphics/SVG/1.1/DTD/svg11.dtd">
<svg xmlns="http://www.w3.org/2000/svg" xml:space="preserve" width="580px" height="580px" shape-rendering="geometricPrecision" text-rendering="geometricPrecision" image-rendering="optimizeQuality" fill-rule="nonzero" clip-rule="nonzero" viewBox="0 0 5800 5800" xmlns:xlink="http://www.w3.org/1999/xlink">
	<title>weight2 icon</title>
	<desc>weight2 icon from the IconExperience.com I-Collection. Copyright by INCORS GmbH (www.incors.com).</desc>
		<path id="curve28"  d="M4500 2384l0 3116 -3200 0 0 -3116c0,-237 166,-406 394,-446 141,-25 302,-59 423,-129 106,-62 183,-157 183,-309 0,-57 -8,-94 -27,-119 -38,-48 -137,-81 -196,-102 -178,-64 -377,-135 -377,-379 0,-615 699,-800 1200,-800 501,0 1200,185 1200,800 0,244 -199,315 -377,379 -59,21 -158,54 -196,102 -19,25 -27,62 -27,119 0,152 77,247 183,309 121,70 282,104 423,129 228,40 394,209 394,446z"/>
</svg>