<?xml version="1.0" encoding="UTF-8"?>
<!DOCTYPE svg PUBLIC "-//W3C//DTD SVG 1.1//EN" "http://www.w3.org/Graphics/SVG/1.1/DTD/svg11.dtd">
<svg xmlns="http://www.w3.org/2000/svg" xml:space="preserve" width="580px" height="580px" shape-rendering="geometricPrecision" text-rendering="geometricPrecision" image-rendering="optimizeQuality" fill-rule="nonzero" clip-rule="nonzero" viewBox="0 0 5800 5800" xmlns:xlink="http://www.w3.org/1999/xlink">
	<title>weight icon</title>
	<desc>weight icon from the IconExperience.com I-Collection. Copyright by INCORS GmbH (www.incors.com).</desc>
		<path id="curve28"  d="M2900 700c331,0 600,269 600,600 0,154 -58,294 -153,400l585 0c162,0 310,118 356,271l795 2600c12,38 17,76 17,113 0,172 -115,351 -282,402 -30,9 -61,14 -91,14l-3654 0c-30,0 -60,-5 -89,-13 -169,-50 -284,-231 -284,-404 0,-37 5,-74 16,-111l772 -2600c45,-154 195,-272 356,-272l609 0c-95,-106 -153,-246 -153,-400 0,-331 269,-600 600,-600zm0 200c-221,0 -400,179 -400,400 0,221 179,400 400,400 221,0 400,-179 400,-400 0,-221 -179,-400 -400,-400z"/>
</svg>