<?xml version="1.0" encoding="UTF-8"?>
<!DOCTYPE svg PUBLIC "-//W3C//DTD SVG 1.1//EN" "http://www.w3.org/Graphics/SVG/1.1/DTD/svg11.dtd">
<svg xmlns="http://www.w3.org/2000/svg" xml:space="preserve" width="580px" height="580px" shape-rendering="geometricPrecision" text-rendering="geometricPrecision" image-rendering="optimizeQuality" fill-rule="nonzero" clip-rule="nonzero" viewBox="0 0 5800 5800" xmlns:xlink="http://www.w3.org/1999/xlink">
	<title>weight2 icon</title>
	<desc>weight2 icon from the IconExperience.com I-Collection. Copyright by INCORS GmbH (www.incors.com).</desc>
		<path id="curve28"  d="M4500 2384l0 3116 -3200 0 0 -3116c0,-237 166,-406 394,-446 141,-25 302,-59 423,-129 106,-62 183,-157 183,-309 0,-57 -8,-94 -27,-119 -38,-48 -137,-81 -196,-102 -178,-64 -377,-135 -377,-379 0,-274 138,-461 335,-587 253,-161 604,-213 865,-213 261,0 612,52 865,213 197,126 335,313 335,587 0,244 -199,315 -377,379 -59,21 -158,54 -196,102 -19,25 -27,62 -27,119 0,152 77,247 183,309 121,70 282,104 423,129 228,40 394,209 394,446zm-200 2916l0 -2916c0,-141 -95,-226 -228,-249 -158,-28 -340,-67 -489,-153 -164,-96 -282,-243 -283,-482 0,-104 22,-179 70,-241 69,-90 182,-130 286,-168 115,-41 244,-87 244,-191 0,-194 -100,-328 -242,-419 -215,-137 -525,-181 -758,-181 -233,0 -543,44 -758,181 -142,91 -242,225 -242,419 0,104 129,150 244,191 104,38 217,78 286,168 48,62 70,137 70,241 -1,239 -119,386 -283,482 -149,86 -331,125 -489,153 -133,23 -228,108 -228,249l0 2916 2800 0z"/>
</svg>