<?xml version="1.0" encoding="UTF-8"?>
<!DOCTYPE svg PUBLIC "-//W3C//DTD SVG 1.1//EN" "http://www.w3.org/Graphics/SVG/1.1/DTD/svg11.dtd">
<svg xmlns="http://www.w3.org/2000/svg" xml:space="preserve" width="580px" height="580px" shape-rendering="geometricPrecision" text-rendering="geometricPrecision" image-rendering="optimizeQuality" fill-rule="nonzero" clip-rule="nonzero" viewBox="0 0 5800 5800" xmlns:xlink="http://www.w3.org/1999/xlink">
	<title>wheat icon</title>
	<desc>wheat icon from the IconExperience.com I-Collection. Copyright by INCORS GmbH (www.incors.com).</desc>
	<path id="curve0"  d="M3002 5299l1 401 -200 0 0 -404c-185,5 -366,-59 -501,-185 -172,-160 -243,-397 -178,-624l15 -55c26,-7 51,-13 77,-19 -109,-153 -144,-345 -92,-526l15 -55c26,-7 51,-13 77,-19 -109,-153 -144,-345 -92,-526l15 -55c26,-7 51,-13 77,-19 -109,-153 -144,-345 -92,-526l15 -55 57 -14c7,-2 13,-4 20,-5 -109,-153 -144,-345 -92,-526l15 -55 57 -14c104,-26 214,-29 320,-7 25,-217 157,-414 344,-527l49 -29 50 28c187,104 333,314 350,529 100,-18 204,-15 303,10l56 14 16 55c52,181 17,373 -92,526 6,1 13,3 20,5l56 14 16 55c52,181 17,373 -92,526 25,5 51,12 76,19l16 55c52,181 17,373 -92,526 25,5 51,12 76,19l16 55c52,181 17,373 -92,526 25,5 51,12 76,19l16 55c65,227 -7,463 -178,623 -137,128 -319,192 -504,185zm-2 -4021l0 -1178 200 0 0 1310c-65,-56 -126,-92 -200,-132zm-400 155l0 -1333 200 0 0 1188c-74,44 -136,85 -200,145zm800 221l0 -1254 200 0 0 1415c-44,-8 -89,-13 -133,-14 -18,-51 -40,-100 -67,-147zm-1200 159l0 -1413 200 0 0 1307c-14,29 -27,59 -38,90 -54,0 -108,5 -162,16z"/>
</svg>