<?xml version="1.0" encoding="UTF-8"?>
<!DOCTYPE svg PUBLIC "-//W3C//DTD SVG 1.1//EN" "http://www.w3.org/Graphics/SVG/1.1/DTD/svg11.dtd">
<svg xmlns="http://www.w3.org/2000/svg" xml:space="preserve" width="580px" height="580px" shape-rendering="geometricPrecision" text-rendering="geometricPrecision" image-rendering="optimizeQuality" fill-rule="nonzero" clip-rule="nonzero" viewBox="0 0 5800 5800" xmlns:xlink="http://www.w3.org/1999/xlink">
	<title>wheat icon</title>
	<desc>wheat icon from the IconExperience.com I-Collection. Copyright by INCORS GmbH (www.incors.com).</desc>
	<path id="curve0"  d="M2961 5096c291,37 584,-184 543,-492 -227,-29 -465,97 -531,324 -15,55 -19,112 -12,168zm0 -600c38,5 77,5 116,2 74,-44 156,-74 241,-88 132,-92 208,-244 186,-406 -291,-37 -584,184 -543,492zm-158 800c-67,2 -133,-5 -198,-21 -111,-28 -216,-83 -303,-164 -172,-160 -243,-397 -178,-624l15 -55c26,-7 51,-13 77,-19 -109,-153 -144,-345 -92,-526l15 -55c26,-7 51,-13 77,-19 -109,-153 -144,-345 -92,-526l15 -55c26,-7 51,-13 77,-19 -109,-153 -144,-345 -92,-526l15 -55c26,-7 51,-13 77,-19 -42,-59 -73,-124 -92,-190 -32,-110 -32,-226 0,-336l15 -55 57 -14c104,-26 214,-29 320,-7 25,-217 157,-414 344,-527l49 -29 50 28c187,104 333,314 350,529 100,-18 204,-15 303,10l56 14 16 55c52,181 17,373 -92,526 25,5 51,12 76,19l16 55c31,110 31,226 0,336 -19,66 -50,131 -92,190 6,1 13,3 20,5l56 14 16 55c52,181 17,373 -92,526 25,5 51,12 76,19l16 55c52,181 17,373 -92,526 6,1 13,3 20,5l56 14 16 55c65,227 -7,463 -178,623 -137,128 -319,192 -504,185l1 401 -200 0 0 -404zm-314 -890c85,14 168,44 242,88 10,1 19,2 29,2 -8,-89 4,-180 35,-264 -98,-171 -299,-256 -491,-232 -22,162 53,314 185,406zm472 -510c38,5 77,5 116,2 74,-44 156,-74 241,-88 132,-92 208,-244 186,-406 -291,-37 -584,184 -543,492zm-472 -90c85,14 168,44 242,88 10,1 19,2 29,2 -8,-89 4,-180 35,-264 -98,-171 -299,-256 -491,-232 -22,162 53,314 185,406zm472 -510c38,5 77,5 116,2 74,-44 156,-74 241,-88 132,-92 208,-244 186,-406 -291,-37 -584,184 -543,492zm-472 -90c85,14 168,44 242,88 10,1 19,2 29,2 -8,-89 4,-180 35,-264 -98,-171 -299,-256 -491,-232 -22,162 53,314 185,406zm472 -510c38,5 77,5 116,2 74,-44 156,-74 241,-88 132,-93 208,-245 186,-406 -291,-37 -584,184 -543,492zm-472 -90c85,14 168,44 242,88 10,1 19,2 29,2 -8,-89 4,-180 35,-264 -98,-171 -299,-256 -491,-232 -22,162 53,314 185,406zm622 -527c9,-151 -81,-301 -199,-389 -119,92 -200,240 -202,392 75,41 141,95 195,160 57,-67 128,-123 206,-163zm-111 -801l0 -1178 200 0 0 1310c-65,-56 -126,-92 -200,-132zm-400 155l0 -1333 200 0 0 1188c-74,44 -136,85 -200,145zm800 221l0 -1254 200 0 0 1415c-44,-8 -89,-13 -133,-14 -18,-51 -40,-100 -67,-147zm-1200 159l0 -1413 200 0 0 1307c-14,29 -27,59 -38,90 -54,0 -108,5 -162,16zm560 3283c-7,-75 0,-150 21,-223 4,-14 9,-28 14,-41 -98,-172 -299,-256 -491,-232 -19,138 33,270 134,365 88,81 203,126 322,131z"/>
</svg>