<?xml version="1.0" encoding="UTF-8"?>
<!DOCTYPE svg PUBLIC "-//W3C//DTD SVG 1.1//EN" "http://www.w3.org/Graphics/SVG/1.1/DTD/svg11.dtd">
<svg xmlns="http://www.w3.org/2000/svg" xml:space="preserve" width="580px" height="580px" shape-rendering="geometricPrecision" text-rendering="geometricPrecision" image-rendering="optimizeQuality" fill-rule="nonzero" clip-rule="nonzero" viewBox="0 0 5800 5800" xmlns:xlink="http://www.w3.org/1999/xlink">
	<title>wheelbarrow icon</title>
	<desc>wheelbarrow icon from the IconExperience.com I-Collection. Copyright by INCORS GmbH (www.incors.com).</desc>
	<path id="curve0"  d="M5366 3106c52,-18 109,8 128,60 19,52 -8,109 -60,128l-1699 618 -105 1333c-12,151 -150,255 -296,255l-190 0c-128,0 -228,-82 -280,-195l-428 -921 -1402 510c-52,18 -109,-8 -128,-60 -18,-52 8,-109 60,-128 1467,-533 2933,-1066 4400,-1600zm-4366 994c192,0 366,77 492,203l-594 216c-155,56 -236,228 -179,383 56,155 228,236 383,179l595 -216c-33,359 -336,635 -697,635 -387,0 -700,-313 -700,-700 0,-387 313,-700 700,-700zm3200 -1600c70,0 118,71 94,135l-197 721 -2402 873 -1468 -1561c-60,-64 -13,-168 73,-168l3900 0zm-1576 1816l421 905c19,42 50,79 99,79l190 0c42,0 93,-24 97,-71l98 -1242 -905 329z"/>
</svg>