<?xml version="1.0" encoding="UTF-8"?>
<!DOCTYPE svg PUBLIC "-//W3C//DTD SVG 1.1//EN" "http://www.w3.org/Graphics/SVG/1.1/DTD/svg11.dtd">
<svg xmlns="http://www.w3.org/2000/svg" xml:space="preserve" width="580px" height="580px" shape-rendering="geometricPrecision" text-rendering="geometricPrecision" image-rendering="optimizeQuality" fill-rule="nonzero" clip-rule="nonzero" viewBox="0 0 5800 5800" xmlns:xlink="http://www.w3.org/1999/xlink">
	<title>wheelbarrow_full icon</title>
	<desc>wheelbarrow_full icon from the IconExperience.com I-Collection. Copyright by INCORS GmbH (www.incors.com).</desc>
	<path id="curve0"  d="M2450 4167l0 0 0 0c2,-1 5,-2 7,-3l0 0 0 0 0 0 438 -159 705 -257c4,-1 8,-3 12,-4 125,-47 210,-141 245,-269l212 -775 -3538 0 1336 1421c113,119 275,158 429,102l154 -56zm1750 -1667c70,0 118,71 94,135l-244 892c-6,23 -14,45 -22,66l1338 -487c52,-18 109,8 128,60 19,52 -8,109 -60,128l-1699 618 -105 1333c-12,151 -150,255 -296,255l-190 0c-128,0 -228,-82 -280,-195l-428 -921 -751 273c90,432 -239,843 -685,843 -387,0 -700,-313 -700,-700 0,-387 313,-700 700,-700 259,0 495,142 617,369l257 -93c-55,-30 -106,-70 -152,-119l-1495 -1589c-60,-64 -13,-168 73,-168 1300,0 2600,0 3900,0zm-3537 -200l866 -867c186,-185 429,-278 673,-278 244,0 487,93 673,278l866 867 -282 0 -726 -725c-146,-147 -339,-220 -531,-220 -192,0 -385,73 -531,220l-726 725 -282 0zm337 2000c-276,0 -500,224 -500,500 0,276 224,500 500,500 307,0 539,-273 495,-574l-461 168c-52,18 -109,-8 -128,-60 -18,-52 8,-109 60,-128l460 -167c-90,-148 -251,-239 -426,-239zm2529 -313l-905 329 421 905c19,42 50,79 99,79l190 0c42,0 93,-24 97,-71l98 -1242z"/>
</svg>