<?xml version="1.0" encoding="UTF-8"?>
<!DOCTYPE svg PUBLIC "-//W3C//DTD SVG 1.1//EN" "http://www.w3.org/Graphics/SVG/1.1/DTD/svg11.dtd">
<svg xmlns="http://www.w3.org/2000/svg" xml:space="preserve" width="580px" height="580px" shape-rendering="geometricPrecision" text-rendering="geometricPrecision" image-rendering="optimizeQuality" fill-rule="nonzero" clip-rule="nonzero" viewBox="0 0 5800 5800" xmlns:xlink="http://www.w3.org/1999/xlink">
	<title>wheelchair icon</title>
	<desc>wheelchair icon from the IconExperience.com I-Collection. Copyright by INCORS GmbH (www.incors.com).</desc>
	<path id="curve0"  d="M2300 2300c884,0 1600,716 1600,1600 0,884 -716,1600 -1600,1600 -884,0 -1600,-716 -1600,-1600 0,-884 716,-1600 1600,-1600zm-623 -399l2222 -1 2 200 -2186 0 18 91c-65,22 -128,47 -189,75l-245 -1281c-9,-50 -48,-85 -99,-85l-500 0 0 -200 500 0c146,0 268,105 295,247l182 954zm623 1599c-221,0 -400,179 -400,400 0,221 179,400 400,400 221,0 400,-179 400,-400 0,-221 -179,-400 -400,-400zm200 400c0,111 -90,200 -200,200 -111,0 -200,-89 -200,-200 0,-110 89,-200 200,-200 110,0 200,90 200,200zm1498 -600l302 0c220,0 400,180 400,400l0 1382c0,6 0,12 0,18 0,220 -180,400 -400,400 -221,0 -400,-179 -400,-400 0,-220 180,-400 400,-400 73,0 141,20 200,54l0 -1054c0,-110 -90,-200 -200,-200l-245 0c-15,-68 -34,-135 -57,-200z"/>
</svg>