<?xml version="1.0" encoding="UTF-8"?>
<!DOCTYPE svg PUBLIC "-//W3C//DTD SVG 1.1//EN" "http://www.w3.org/Graphics/SVG/1.1/DTD/svg11.dtd">
<svg xmlns="http://www.w3.org/2000/svg" xml:space="preserve" width="580px" height="580px" shape-rendering="geometricPrecision" text-rendering="geometricPrecision" image-rendering="optimizeQuality" fill-rule="nonzero" clip-rule="nonzero" viewBox="0 0 5800 5800" xmlns:xlink="http://www.w3.org/1999/xlink">
	<title>wheel_loader icon</title>
	<desc>wheel_loader icon from the IconExperience.com I-Collection. Copyright by INCORS GmbH (www.incors.com).</desc>
		<path id="curve30"  d="M4380 2703l-831 92 -674 771c-36,41 -99,45 -141,9 -41,-36 -45,-99 -9,-141l696 -796c16,-20 40,-34 68,-37l820 -91c-34,-146 -25,-298 28,-438 123,-330 403,-480 709,-604l512 1432 142 0 0 200 -700 0c-267,0 -498,-167 -620,-397z"/>
	<path id="curve29"  d="M504 4389l-159 -106c-29,-19 -45,-51 -45,-83l0 -1200c0,-43 27,-79 64,-93l736 -368 0 -1139c0,-55 45,-100 100,-100l1400 0c49,0 90,35 98,81l297 1189c12,36 2,74 -24,101l-494 593c-6,6 -77,36 -77,36l-900 0c-552,0 -1000,448 -1000,1000 0,30 1,60 4,89z"/>
	<path id="curve28"  d="M3700 3500c442,0 800,358 800,800 0,442 -358,800 -800,800 -442,0 -800,-358 -800,-800 0,-442 358,-800 800,-800zm-2200 0c442,0 800,358 800,800 0,442 -358,800 -800,800 -442,0 -800,-358 -800,-800 0,-442 358,-800 800,-800z"/>
</svg>