<?xml version="1.0" encoding="UTF-8"?>
<!DOCTYPE svg PUBLIC "-//W3C//DTD SVG 1.1//EN" "http://www.w3.org/Graphics/SVG/1.1/DTD/svg11.dtd">
<svg xmlns="http://www.w3.org/2000/svg" xml:space="preserve" width="580px" height="580px" shape-rendering="geometricPrecision" text-rendering="geometricPrecision" image-rendering="optimizeQuality" fill-rule="nonzero" clip-rule="nonzero" viewBox="0 0 5800 5800" xmlns:xlink="http://www.w3.org/1999/xlink">
	<title>wheel icon</title>
	<desc>wheel icon from the IconExperience.com I-Collection. Copyright by INCORS GmbH (www.incors.com).</desc>
		<path id="curve28"  d="M2900 300c1436,0 2600,1164 2600,2600 0,1436 -1164,2600 -2600,2600 -1436,0 -2600,-1164 -2600,-2600 0,-1436 1164,-2600 2600,-2600zm803 2004l444 -144c113,189 183,406 199,638l-447 145c10,-230 -58,-454 -196,-639zm15 1171l275 378c-148,170 -334,303 -543,389l-276 -380c221,-63 413,-200 544,-387zm-1092 387l-276 380c-209,-86 -395,-219 -543,-389l275 -378c131,187 324,324 544,387zm-725 -919l-447 -145c16,-232 86,-449 199,-638l444 144c-138,185 -206,409 -196,639zm665 -986l0 -468c107,-26 219,-39 334,-39 115,0 227,13 334,39l0 468c-214,-76 -454,-76 -668,0zm334 143c-442,0 -800,358 -800,800 0,442 358,800 800,800 442,0 800,-358 800,-800 0,-442 -358,-800 -800,-800zm0 -850c-911,0 -1650,739 -1650,1650 0,911 739,1650 1650,1650 911,0 1650,-739 1650,-1650 0,-911 -739,-1650 -1650,-1650z"/>
</svg>