<?xml version="1.0" encoding="UTF-8"?>
<!DOCTYPE svg PUBLIC "-//W3C//DTD SVG 1.1//EN" "http://www.w3.org/Graphics/SVG/1.1/DTD/svg11.dtd">
<svg xmlns="http://www.w3.org/2000/svg" xml:space="preserve" width="580px" height="580px" shape-rendering="geometricPrecision" text-rendering="geometricPrecision" image-rendering="optimizeQuality" fill-rule="nonzero" clip-rule="nonzero" viewBox="0 0 5800 5800" xmlns:xlink="http://www.w3.org/1999/xlink">
	<title>wheel icon</title>
	<desc>wheel icon from the IconExperience.com I-Collection. Copyright by INCORS GmbH (www.incors.com).</desc>
		<path id="curve28" d="M2900 1900c45,0 90,3 134,9l0 -553c-44,-4 -89,-6 -134,-6 -45,0 -89,2 -134,6l0 553c44,-6 89,-9 134,-9zm334 57c188,67 351,188 469,347l542 -175c-69,-119 -153,-229 -249,-325 -205,-205 -468,-353 -762,-418l0 571zm574 523c37,81 64,167 79,257l527 -171c-20,-89 -47,-174 -80,-256l-526 170zm91 463c-8,198 -74,380 -181,532l335 461c247,-275 397,-638 397,-1036 0,-45 -2,-90 -6,-134l-545 177zm-315 687c-65,61 -139,113 -219,155l326 448c77,-46 150,-98 218,-156l-325 -447zm-410 232c-87,25 -179,38 -274,38 -95,0 -187,-13 -274,-38l-337 463c188,80 394,125 611,125 217,0 423,-45 611,-125l-337 -463zm-739 -77c-80,-42 -154,-94 -219,-155l-325 447c68,58 141,110 218,156l326 -448zm-353 -310c-107,-152 -173,-334 -181,-532l-545 -177c-4,44 -6,89 -6,134 0,398 150,761 397,1036l335 -461zm-169 -738c15,-90 42,-176 79,-257l-526 -170c-33,82 -60,167 -80,256l527 171zm184 -433c118,-159 281,-280 469,-347l0 -571c-427,94 -794,365 -1011,743l542 175zm-937 398c138,-872 778,-1552 1740,-1552 986,0 1750,799 1750,1750 0,976 -791,1750 -1750,1750 -1041,0 -1844,-891 -1740,-1948zm1740 -2402c1436,0 2600,1164 2600,2600 0,1436 -1164,2600 -2600,2600 -1436,0 -2600,-1164 -2600,-2600 0,-1436 1164,-2600 2600,-2600zm0 200c-1325,0 -2400,1075 -2400,2400 0,1326 1074,2400 2400,2400 1325,0 2400,-1075 2400,-2400 0,-1326 -1074,-2400 -2400,-2400zm0 1600c-442,0 -800,358 -800,800 0,442 358,800 800,800 442,0 800,-358 800,-800 0,-442 -358,-800 -800,-800z"/>
</svg>