<?xml version="1.0" encoding="UTF-8"?>
<!DOCTYPE svg PUBLIC "-//W3C//DTD SVG 1.1//EN" "http://www.w3.org/Graphics/SVG/1.1/DTD/svg11.dtd">
<svg xmlns="http://www.w3.org/2000/svg" xml:space="preserve" width="580px" height="580px" shape-rendering="geometricPrecision" text-rendering="geometricPrecision" image-rendering="optimizeQuality" fill-rule="nonzero" clip-rule="nonzero" viewBox="0 0 5800 5800" xmlns:xlink="http://www.w3.org/1999/xlink">
	<title>wheel_loader icon</title>
	<desc>wheel_loader icon from the IconExperience.com I-Collection. Copyright by INCORS GmbH (www.incors.com).</desc>
		<path id="curve28"  d="M3700 3500c442,0 800,358 800,800 0,442 -358,800 -800,800 -442,0 -800,-358 -800,-800 0,-442 358,-800 800,-800zm1645 -600l-416 -1165c-222,111 -350,256 -406,407 -37,100 -43,204 -24,302 46,239 246,456 501,456l345 0zm-4841 1489l-159 -106c-29,-19 -45,-51 -45,-83l0 -1200c0,-43 27,-79 64,-93l736 -368 0 -1139c0,-55 45,-100 100,-100l1400 0c49,0 90,35 98,81l299 1195c9,34 -2,69 -25,93l-495 595c-6,6 -77,36 -77,36l-600 0 0 -200 554 0 437 -525 -269 -1075 -1222 0 0 1100c0,36 -21,72 -55,89l-745 372 0 1085 11 8c-12,78 -14,157 -7,235zm3876 -1686l-831 92 -674 771c-36,41 -99,45 -141,9 -41,-36 -45,-99 -9,-141l696 -796c16,-20 40,-34 68,-37l820 -91c-3,-10 -5,-19 -6,-28 -26,-132 -17,-273 34,-410 123,-330 403,-480 709,-604l512 1432 142 0 0 200 -700 0c-267,0 -498,-167 -620,-397zm-2880 797c442,0 800,358 800,800 0,442 -358,800 -800,800 -442,0 -800,-358 -800,-800 0,-442 358,-800 800,-800zm0 200c-331,0 -600,269 -600,600 0,331 269,600 600,600 331,0 600,-269 600,-600 0,-331 -269,-600 -600,-600zm2200 0c-331,0 -600,269 -600,600 0,331 269,600 600,600 331,0 600,-269 600,-600 0,-331 -269,-600 -600,-600z"/>
</svg>