<?xml version="1.0" encoding="UTF-8"?>
<!DOCTYPE svg PUBLIC "-//W3C//DTD SVG 1.1//EN" "http://www.w3.org/Graphics/SVG/1.1/DTD/svg11.dtd">
<svg xmlns="http://www.w3.org/2000/svg" xml:space="preserve" width="580px" height="580px" shape-rendering="geometricPrecision" text-rendering="geometricPrecision" image-rendering="optimizeQuality" fill-rule="nonzero" clip-rule="nonzero" viewBox="0 0 5800 5800" xmlns:xlink="http://www.w3.org/1999/xlink">
	<title>whistle icon</title>
	<desc>whistle icon from the IconExperience.com I-Collection. Copyright by INCORS GmbH (www.incors.com).</desc>
		<path id="curve28" d="M3300 2600c497,0 900,403 900,900 0,497 -403,900 -900,900 -497,0 -900,-403 -900,-900 0,-497 403,-900 900,-900zm-1600 900c0,-171 0,-600 -500,-600l-319 0 0 200 -581 0 0 -1200 3000 1c759,0 1414,533 1567,1274 66,-47 146,-75 233,-75 221,0 400,179 400,400 0,220 -180,400 -400,400 -87,0 -167,-28 -233,-75 -153,741 -808,1275 -1567,1275 -884,0 -1600,-716 -1600,-1600zm-500 -800c700,0 700,571 700,800 0,773 627,1400 1400,1400 764,0 1409,-631 1400,-1401 -1,-772 -627,-1399 -1400,-1399l-2800 0 0 800 181 0 0 -200 519 0zm3900 600c-111,0 -199,88 -200,199 0,111 89,201 200,201 111,0 200,-89 200,-200 0,-110 -90,-200 -200,-200zm-1800 -500c-387,0 -700,314 -700,700 0,387 313,700 700,700 387,0 700,-313 700,-700 0,-386 -313,-700 -700,-700z"/>
</svg>