<?xml version="1.0" encoding="utf-8"?>
<!-- Generator: Adobe Illustrator 27.3.1, SVG Export Plug-In . SVG Version: 6.00 Build 0)  -->
<svg version="1.1" id="Ebene_1" xmlns="http://www.w3.org/2000/svg" xmlns:xlink="http://www.w3.org/1999/xlink" x="0px" y="0px"
	 viewBox="0 0 580 580" style="enable-background:new 0 0 580 580;" xml:space="preserve">
<style type="text/css">

</style>
<g>
	<path class="st0" d="M418.4,530h-360V50h245c8.2,0,15,6.8,15,15v85h85c8.3,0,15,6.7,15,15v32.7h20V165c0-9.6-3.9-18.4-10.3-24.7
		c-9.7-9.8-100-99.7-100-100C321.8,33.9,313,30,303.4,30h-265v520h400v-53.5h-20V530z M338.4,78.8l51.2,51.2h-51.2V78.8z"/>
	<path class="st0" d="M221.6,216.2v261.4h320V216.2H221.6z M521.6,457.7h-280V237.9h280V457.7z"/>
</g>
</svg>
