<?xml version="1.0" encoding="UTF-8"?>
<!DOCTYPE svg PUBLIC "-//W3C//DTD SVG 1.1//EN" "http://www.w3.org/Graphics/SVG/1.1/DTD/svg11.dtd">
<svg xmlns="http://www.w3.org/2000/svg" xml:space="preserve" width="580px" height="580px" shape-rendering="geometricPrecision" text-rendering="geometricPrecision" image-rendering="optimizeQuality" fill-rule="nonzero" clip-rule="nonzero" viewBox="0 0 5800 5800" xmlns:xlink="http://www.w3.org/1999/xlink">
	<title>window_explorer icon</title>
	<desc>window_explorer icon from the IconExperience.com I-Collection. Copyright by INCORS GmbH (www.incors.com).</desc>
	<path id="curve0"  d="M700 3500l1000 0 0 200 -1000 0 0 -200zm2800 -1600l0 800 -1200 0 0 -800 1200 0zm-200 200l-800 0 0 400 800 0 0 -400zm1600 -200c0,267 0,533 0,800l-1200 0 0 -800 1200 0zm-200 200l-800 0 0 400 800 0 0 -400zm-1200 800l0 800 -1200 0 0 -800 1200 0zm-200 200l-800 0 0 400 800 0 0 -400zm1600 -200c0,267 0,533 0,800l-1200 0 0 -800 1200 0zm-200 200l-800 0 0 400 800 0 0 -400zm-1200 800l0 800 -1200 0 0 -800 1200 0zm-200 200l-800 0 0 400 800 0 0 -400zm1600 -200c0,267 0,533 0,800l-1200 0 0 -800 1200 0zm-200 200l-800 0 0 400 800 0 0 -400zm-4000 -2200l1000 0 0 200 -1000 0 0 -200zm0 400l1000 0 0 200 -1000 0 0 -200zm0 400l1000 0 0 200 -1000 0 0 -200zm0 400l1000 0 0 200 -1000 0 0 -200zm1200 -1600l-1600 0 0 3600 1600 0 0 -3600zm-1600 -200l0 -300c0,-165 135,-300 300,-300l4600 0c165,0 300,135 300,300l0 300 -5200 0zm5200 200l-3400 0 0 3600 3400 0 0 -3600z"/>
</svg>