<?xml version="1.0" encoding="UTF-8"?>
<!DOCTYPE svg PUBLIC "-//W3C//DTD SVG 1.1//EN" "http://www.w3.org/Graphics/SVG/1.1/DTD/svg11.dtd">
<svg xmlns="http://www.w3.org/2000/svg" xml:space="preserve" width="580px" height="580px" shape-rendering="geometricPrecision" text-rendering="geometricPrecision" image-rendering="optimizeQuality" fill-rule="nonzero" clip-rule="nonzero" viewBox="0 0 5800 5800" xmlns:xlink="http://www.w3.org/1999/xlink">
	<title>windows icon</title>
	<desc>windows icon from the IconExperience.com I-Collection. Copyright by INCORS GmbH (www.incors.com).</desc>
		<path id="curve29"  d="M1400 700l3800 0c165,0 300,135 300,300l0 300 -4400 0 0 -300c0,-165 135,-300 300,-300zm4100 800l0 2800 -600 0 0 -2100c0,-275 -225,-500 -500,-500l-3300 0 0 -200 4400 0z"/>
	<path id="curve28"  d="M600 1900l3800 0c165,0 300,135 300,300l0 300 -4400 0 0 -300c0,-165 135,-300 300,-300zm4100 800l0 2803 -4400 0 0 -2803 4400 0z"/>
</svg>