<?xml version="1.0" encoding="UTF-8"?>
<!DOCTYPE svg PUBLIC "-//W3C//DTD SVG 1.1//EN" "http://www.w3.org/Graphics/SVG/1.1/DTD/svg11.dtd">
<svg xmlns="http://www.w3.org/2000/svg" xml:space="preserve" width="580px" height="580px" shape-rendering="geometricPrecision" text-rendering="geometricPrecision" image-rendering="optimizeQuality" fill-rule="nonzero" clip-rule="nonzero" viewBox="0 0 5800 5800" xmlns:xlink="http://www.w3.org/1999/xlink">
	<title>window_sidebar icon</title>
	<desc>window_sidebar icon from the IconExperience.com I-Collection. Copyright by INCORS GmbH (www.incors.com).</desc>
		<path id="curve28"  d="M4100 1500l0 3600 -3800 0 0 -3600 3800 0zm-3800 -200l0 -300c0,-165 135,-300 300,-300l4600 0c165,0 300,135 300,300l0 300 -5200 0zm5200 200l0 3600 -1200 0 0 -3600 1200 0zm-1000 2400l0 600 600 0 0 -600 -600 0zm0 -1000l0 600 600 0 0 -600 -600 0zm0 -1000l0 600 600 0 0 -600 -600 0z"/>
</svg>