<?xml version="1.0" encoding="UTF-8"?>
<!DOCTYPE svg PUBLIC "-//W3C//DTD SVG 1.1//EN" "http://www.w3.org/Graphics/SVG/1.1/DTD/svg11.dtd">
<svg xmlns="http://www.w3.org/2000/svg" xml:space="preserve" width="580px" height="580px" shape-rendering="geometricPrecision" text-rendering="geometricPrecision" image-rendering="optimizeQuality" fill-rule="nonzero" clip-rule="nonzero" viewBox="0 0 5800 5800" xmlns:xlink="http://www.w3.org/1999/xlink">
	<title>window_oscillograph icon</title>
	<desc>window_oscillograph icon from the IconExperience.com I-Collection. Copyright by INCORS GmbH (www.incors.com).</desc>
		<path id="curve28"  d="M600 700l4600 0c165,0 300,135 300,300l0 300 -5200 0 0 -300c0,-165 135,-300 300,-300zm4900 800l0 3600 -5200 0 0 -3600 5200 0zm-4800 1800l0 200 830 0 238 -159 347 578 260 -607 347 1388 286 -1814 265 1410 345 -1036 265 529 328 -437 147 148 742 -3 0 -199 -658 2 -253 -252 -272 363 -335 -671 -255 764 -335 -1790 -314 1986 -253 -1012 -340 793 -253 -422 -362 241 -770 0z"/>
</svg>