<?xml version="1.0" encoding="UTF-8"?>
<!DOCTYPE svg PUBLIC "-//W3C//DTD SVG 1.1//EN" "http://www.w3.org/Graphics/SVG/1.1/DTD/svg11.dtd">
<svg xmlns="http://www.w3.org/2000/svg" xml:space="preserve" width="580px" height="580px" shape-rendering="geometricPrecision" text-rendering="geometricPrecision" image-rendering="optimizeQuality" fill-rule="nonzero" clip-rule="nonzero" viewBox="0 0 5800 5800" xmlns:xlink="http://www.w3.org/1999/xlink">
	<title>window_close icon</title>
	<desc>window_close icon from the IconExperience.com I-Collection. Copyright by INCORS GmbH (www.incors.com).</desc>
		<path id="curve29"  d="M2500 3300l3000 0 0 1800 -5200 0 0 -3600 2200 0 0 1800zm-2200 -2000l0 -300c0,-165 135,-300 300,-300l1900 0 0 600 -2200 0z"/>
	<path id="curve28"  d="M5500 300l0 2800 -2800 0 0 -2800 2800 0zm-2129 529l-142 142 730 729 -730 729 142 142 729 -730 729 730 142 -142 -730 -729 730 -729 -142 -142 -729 730 -729 -730z"/>
</svg>