<?xml version="1.0" encoding="UTF-8"?>
<!DOCTYPE svg PUBLIC "-//W3C//DTD SVG 1.1//EN" "http://www.w3.org/Graphics/SVG/1.1/DTD/svg11.dtd">
<svg xmlns="http://www.w3.org/2000/svg" xml:space="preserve" width="580px" height="580px" shape-rendering="geometricPrecision" text-rendering="geometricPrecision" image-rendering="optimizeQuality" fill-rule="nonzero" clip-rule="nonzero" viewBox="0 0 5800 5800" xmlns:xlink="http://www.w3.org/1999/xlink">
	<title>windup_key icon</title>
	<desc>windup_key icon from the IconExperience.com I-Collection. Copyright by INCORS GmbH (www.incors.com).</desc>
		<path id="curve28"  d="M2300 5500l0 -2200 -400 0 0 -400 -300 0c-351,0 -683,-129 -923,-349 -230,-212 -377,-506 -377,-851 0,-359 134,-720 357,-984 212,-251 505,-416 843,-416 280,0 493,77 710,156 206,74 416,150 690,150 278,0 490,-77 698,-152 216,-78 427,-154 702,-154 338,0 631,165 843,416 223,264 357,625 357,984 0,345 -147,639 -377,851 -240,220 -572,349 -923,349l-300 0 0 400 -400 0 0 2200c-400,0 -800,0 -1200,0zm-599 -4300c-276,0 -500,224 -500,500 0,276 224,500 500,500 276,0 500,-224 500,-500 0,-276 -224,-500 -500,-500zm2397 12c-276,0 -500,224 -500,500 0,276 224,500 500,500 276,0 500,-224 500,-500 0,-276 -224,-500 -500,-500z"/>
</svg>