<?xml version="1.0" encoding="UTF-8"?>
<!DOCTYPE svg PUBLIC "-//W3C//DTD SVG 1.1//EN" "http://www.w3.org/Graphics/SVG/1.1/DTD/svg11.dtd">
<svg xmlns="http://www.w3.org/2000/svg" xml:space="preserve" width="580px" height="580px" shape-rendering="geometricPrecision" text-rendering="geometricPrecision" image-rendering="optimizeQuality" fill-rule="nonzero" clip-rule="nonzero" viewBox="0 0 5800 5800" xmlns:xlink="http://www.w3.org/1999/xlink">
	<title>window_font icon</title>
	<desc>window_font icon from the IconExperience.com I-Collection. Copyright by INCORS GmbH (www.incors.com).</desc>
		<path id="curve29"  d="M3121 3667l702 0 0 -998 -46 0 -656 998zm-1344 -367l1031 0c-128,-400 -254,-800 -381,-1200l-255 0 -389 1180 -6 20zm977 200l-1035 0c-13,60 -19,121 -19,200l0 200 -200 0 0 -200c0,-101 9,-177 25,-251 16,-73 39,-142 68,-231l412 -1249c14,-42 53,-69 95,-69l400 0c46,0 85,31 96,73l379 1192 -221 335zm1069 367l-833 0 -264 402 197 0 0 200c-203,0 -397,0 -600,0l0 -200 165 0 1182 -1800c118,0 236,0 354,0l0 1800 199 0 0 200 -600 0 0 -200 200 0 0 -402z"/>
	<path id="curve28"  d="M600 700l4600 0c165,0 300,135 300,300l0 4100 -5200 0 0 -4100c0,-165 135,-300 300,-300zm-100 600l4800 0 0 -300c0,-55 -45,-100 -100,-100l-4600 0c-55,0 -100,45 -100,100l0 300zm4800 200l-4800 0 0 3400 4800 0 0 -3400z"/>
</svg>