<?xml version="1.0" encoding="UTF-8"?>
<!DOCTYPE svg PUBLIC "-//W3C//DTD SVG 1.1//EN" "http://www.w3.org/Graphics/SVG/1.1/DTD/svg11.dtd">
<svg xmlns="http://www.w3.org/2000/svg" xml:space="preserve" width="580px" height="580px" shape-rendering="geometricPrecision" text-rendering="geometricPrecision" image-rendering="optimizeQuality" fill-rule="nonzero" clip-rule="nonzero" viewBox="0 0 5800 5800" xmlns:xlink="http://www.w3.org/1999/xlink">
	<title>windup_key icon</title>
	<desc>windup_key icon from the IconExperience.com I-Collection. Copyright by INCORS GmbH (www.incors.com).</desc>
		<path id="curve28"  d="M4098 1112c331,0 600,268 600,600 0,331 -269,600 -600,600 -331,0 -600,-269 -600,-600 0,-332 269,-600 600,-600zm-1598 4188l800 0 0 -2200 400 0 0 -400 500 0c301,0 584,-109 789,-296 190,-175 311,-418 311,-704 0,-555 -393,-1200 -1000,-1200 -242,0 -437,70 -635,142 -225,81 -455,164 -765,164 -307,0 -534,-82 -758,-163 -199,-72 -396,-143 -642,-143 -607,0 -1000,645 -1000,1200 0,286 121,529 311,704 205,187 488,296 789,296l500 0 0 400 400 0 0 2200zm-200 200l0 -2200 -400 0 0 -400 -300 0c-351,0 -683,-129 -923,-349 -230,-212 -377,-506 -377,-851 0,-667 479,-1400 1200,-1400 280,0 493,77 710,156 206,74 416,150 690,150 278,0 490,-77 698,-152 216,-78 427,-154 702,-154 721,0 1200,733 1200,1400 0,345 -147,639 -377,851 -240,220 -572,349 -923,349l-300 0 0 400 -400 0 0 2200 -1200 0zm-599 -4400c331,0 600,269 600,600 0,331 -269,600 -600,600 -332,0 -600,-269 -600,-600 0,-331 268,-600 600,-600zm0 200c-221,0 -400,179 -400,400 0,221 179,400 400,400 221,0 400,-179 400,-400 0,-221 -179,-400 -400,-400zm2397 12c-221,0 -400,179 -400,400 0,221 179,400 400,400 221,0 400,-179 400,-400 0,-221 -179,-400 -400,-400z"/>
</svg>