<?xml version="1.0" encoding="UTF-8"?>
<!DOCTYPE svg PUBLIC "-//W3C//DTD SVG 1.1//EN" "http://www.w3.org/Graphics/SVG/1.1/DTD/svg11.dtd">
<svg xmlns="http://www.w3.org/2000/svg" xml:space="preserve" width="580px" height="580px" shape-rendering="geometricPrecision" text-rendering="geometricPrecision" image-rendering="optimizeQuality" fill-rule="nonzero" clip-rule="nonzero" viewBox="0 0 5800 5800" xmlns:xlink="http://www.w3.org/1999/xlink">
	<title>windsock icon</title>
	<desc>windsock icon from the IconExperience.com I-Collection. Copyright by INCORS GmbH (www.incors.com).</desc>
		<path id="curve28" d="M1500 1238l0 2124c0,64 55,109 117,99l683 -120 0 -2082 -683 -120c-62,-10 -117,36 -117,99zm3000 406l0 1312 800 -140 0 -1032 -800 -140zm-200 1347l0 -1382 -800 -140 0 1662 800 -140zm-3200 -1191l-509 500 509 500 0 300 -600 -600 0 3000 -200 0 0 -3200 800 -800 0 300zm2200 1366l0 -1732 -800 -140 0 2012 800 -140zm-2000 196l0 -2124c0,-186 166,-328 352,-295l3761 658c49,6 87,48 87,99l0 1200c0,48 -34,90 -83,98l-3765 659c-183,32 -352,-107 -352,-295z"/>
</svg>