<?xml version="1.0" encoding="UTF-8"?>
<!DOCTYPE svg PUBLIC "-//W3C//DTD SVG 1.1//EN" "http://www.w3.org/Graphics/SVG/1.1/DTD/svg11.dtd">
<svg xmlns="http://www.w3.org/2000/svg" xml:space="preserve" width="580px" height="580px" shape-rendering="geometricPrecision" text-rendering="geometricPrecision" image-rendering="optimizeQuality" fill-rule="nonzero" clip-rule="nonzero" viewBox="0 0 5800 5800" xmlns:xlink="http://www.w3.org/1999/xlink">
	<title>window_close icon</title>
	<desc>window_close icon from the IconExperience.com I-Collection. Copyright by INCORS GmbH (www.incors.com).</desc>
		<path id="curve29"  d="M600 700l1900 0 0 200 -1900 0c-55,0 -100,45 -100,100l0 300 2000 0 0 200 -2000 0 0 3400 4800 0 0 -1600 200 0 0 1800 -5200 0 0 -4100c0,-165 135,-300 300,-300z"/>
	<path id="curve28"  d="M5300 500l-2400 0 0 2400 2400 0 0 -2400zm-2071 1929l730 -729 -730 -729 142 -142 729 730 729 -730 142 142 -730 729 730 729 -142 142 -729 -730 -729 730 -142 -142zm2271 -2129l0 2800 -2800 0 0 -2800 2800 0z"/>
</svg>