<?xml version="1.0" encoding="UTF-8"?>
<!DOCTYPE svg PUBLIC "-//W3C//DTD SVG 1.1//EN" "http://www.w3.org/Graphics/SVG/1.1/DTD/svg11.dtd">
<svg xmlns="http://www.w3.org/2000/svg" xml:space="preserve" width="580px" height="580px" shape-rendering="geometricPrecision" text-rendering="geometricPrecision" image-rendering="optimizeQuality" fill-rule="nonzero" clip-rule="nonzero" viewBox="0 0 5800 5800" xmlns:xlink="http://www.w3.org/1999/xlink">
	<title>windmill icon</title>
	<desc>windmill icon from the IconExperience.com I-Collection. Copyright by INCORS GmbH (www.incors.com).</desc>
	<path id="curve0"  d="M3716 2454l-387 -341 -132 151c62,100 70,226 21,333l151 132 140 -159 1651 1453 -612 697 -1652 -1454 341 -387 -151 -132c-100,62 -226,70 -333,21l-132 151 159 140 -1453 1651 -697 -612 1454 -1652 387 341 133 -151c-63,-100 -71,-226 -22,-333l-151 -132 -140 159 -1651 -1453 612 -697 1652 1454 -341 387 151 132c100,-62 226,-70 333,-21l132 -151 -159 -140 1453 -1651c233,204 465,408 697,612l-1454 1652zm-3016 2546c0,-146 28,-320 74,-510l571 502 1401 -1592 1820 1602 458 -521c47,194 76,370 76,519l0 500 -4400 0 0 -500zm2354 -3500l-808 -711c266,-183 525,-289 654,-289 143,0 447,119 742,332l-588 668zm1341 485c3,38 5,76 5,115 0,329 126,773 271,1226l-821 -722 545 -619zm-3218 1189c124,-399 223,-782 223,-1074 0,-89 11,-176 32,-260l518 456 -773 878z"/>
</svg>