<?xml version="1.0" encoding="UTF-8"?>
<!DOCTYPE svg PUBLIC "-//W3C//DTD SVG 1.1//EN" "http://www.w3.org/Graphics/SVG/1.1/DTD/svg11.dtd">
<svg xmlns="http://www.w3.org/2000/svg" xml:space="preserve" width="580px" height="580px" shape-rendering="geometricPrecision" text-rendering="geometricPrecision" image-rendering="optimizeQuality" fill-rule="nonzero" clip-rule="nonzero" viewBox="0 0 5800 5800" xmlns:xlink="http://www.w3.org/1999/xlink">
	<title>window_key icon</title>
	<desc>window_key icon from the IconExperience.com I-Collection. Copyright by INCORS GmbH (www.incors.com).</desc>
		<path id="curve29" d="M2984 3700l-324 0 -30 -37 -88 -106c0,0 -7,-8 -8,-9 -14,-12 -33,-18 -52,-18 -19,0 -38,6 -52,18 -1,0 -7,8 -8,9l-91 107 -76 91 -77 -91 -91 -107c-2,-3 -5,-6 -8,-9 -14,-12 -33,-18 -52,-18 -19,0 -37,6 -52,18 -2,0 -90,106 -99,116l-76 91 -76 -91 -91 -107c-3,-3 -5,-6 -8,-9 -29,-23 -76,-23 -104,0 -3,3 -6,6 -8,9l-140 162 -33 39 -177 -16c-28,-1 -53,-10 -76,-27 -22,-16 -39,-38 -51,-65l-3 -8 -99 -327c-10,-26 -13,-54 -9,-82 4,-30 17,-58 37,-82l136 -162c10,-11 37,-35 60,-52 26,-20 58,-35 88,-35l1737 -1c74,-169 192,-313 341,-418 163,-115 362,-183 576,-183 276,0 526,112 707,293 181,181 293,431 293,707 0,276 -112,526 -293,707 -181,181 -431,293 -707,293 -214,0 -413,-68 -576,-183 -148,-105 -267,-249 -340,-417zm1116 -800c221,0 400,179 400,400 0,220 -180,400 -400,400 -221,0 -400,-179 -400,-400 0,-220 180,-400 400,-400zm0 200c-111,0 -200,89 -200,200 0,110 90,200 200,200 111,0 200,-89 200,-200 0,-110 -90,-200 -200,-200zm-1347 400l298 0 71 0 23 67c56,157 160,292 294,387 130,92 289,146 461,146 221,0 421,-90 566,-234 144,-145 234,-345 234,-566 0,-221 -90,-421 -234,-566 -145,-144 -345,-234 -566,-234 -172,0 -331,54 -461,146 -134,95 -238,230 -294,387l-23 67 -1851 1c-10,7 -18,15 -20,17l-123 146 85 282 42 4 105 -122c10,-12 21,-22 32,-32 51,-43 116,-65 181,-65l0 0c64,0 129,22 181,65 11,10 21,20 31,32l15 17 15 -17c2,-3 32,-32 31,-32 52,-43 117,-65 181,-65 65,0 130,22 181,65 11,10 22,20 32,32l15 17 14 -17c9,-11 20,-21 32,-32l0 0c51,-43 116,-65 181,-65 64,0 129,22 181,65 11,10 22,20 31,32l1 1 58 71z"/>
	<path id="curve28" d="M600 700l4600 0c165,0 300,135 300,300l0 4100 -5200 0 0 -4100c0,-165 135,-300 300,-300zm4600 200l-4600 0c-55,0 -100,45 -100,100l0 300 4800 0 0 -300c0,-55 -45,-100 -100,-100zm-4700 600l0 3400 4800 0 0 -3400 -4800 0z"/>
</svg>