<?xml version="1.0" encoding="UTF-8"?>
<!DOCTYPE svg PUBLIC "-//W3C//DTD SVG 1.1//EN" "http://www.w3.org/Graphics/SVG/1.1/DTD/svg11.dtd">
<svg xmlns="http://www.w3.org/2000/svg" xml:space="preserve" width="580px" height="580px" shape-rendering="geometricPrecision" text-rendering="geometricPrecision" image-rendering="optimizeQuality" fill-rule="nonzero" clip-rule="nonzero" viewBox="0 0 5800 5800" xmlns:xlink="http://www.w3.org/1999/xlink">
	<title>window_logon icon</title>
	<desc>window_logon icon from the IconExperience.com I-Collection. Copyright by INCORS GmbH (www.incors.com).</desc>
	<path id="curve0"  d="M900 3100l0 1200 4000 0 0 -1200 -4000 0zm3800 200l0 800 -3600 0 0 -800 3600 0zm-2000 197c-110,0 -200,90 -200,200 0,111 90,200 200,200 110,0 200,-89 200,-200 0,-110 -90,-200 -200,-200zm-600 0c-110,0 -200,90 -200,200 0,111 90,200 200,200 110,0 200,-89 200,-200 0,-110 -90,-200 -200,-200zm-600 0c-110,0 -200,90 -200,200 0,111 90,200 200,200 110,0 200,-89 200,-200 0,-110 -90,-200 -200,-200zm-900 -2797l4600 0c165,0 300,135 300,300l0 300 -5200 0 0 -300c0,-165 135,-300 300,-300zm4900 800l0 3600 -5200 0 0 -3600 5200 0z"/>
</svg>