<?xml version="1.0" encoding="UTF-8"?>
<!DOCTYPE svg PUBLIC "-//W3C//DTD SVG 1.1//EN" "http://www.w3.org/Graphics/SVG/1.1/DTD/svg11.dtd">
<svg xmlns="http://www.w3.org/2000/svg" xml:space="preserve" width="580px" height="580px" shape-rendering="geometricPrecision" text-rendering="geometricPrecision" image-rendering="optimizeQuality" fill-rule="nonzero" clip-rule="nonzero" viewBox="0 0 5800 5800" xmlns:xlink="http://www.w3.org/1999/xlink">
	<title>wind_engine icon</title>
	<desc>wind_engine icon from the IconExperience.com I-Collection. Copyright by INCORS GmbH (www.incors.com).</desc>
		<path id="curve28"  d="M2800 5109l0 -2209 200 0 0 2209 -200 0zm104 -3209c21,0 42,2 62,5l394 -1469 -576 1027c-15,31 -32,68 -40,98 -3,11 85,187 137,294 9,16 16,32 23,45zm247 88c94,76 149,190 149,312 0,22 -2,44 -5,65l330 35c107,11 156,83 201,150 0,1 16,24 20,29l697 1173c36,68 -1,140 -50,189 -49,50 -120,89 -189,56l-27 -20 -1291 -1286c-28,6 -57,9 -86,9 -81,0 -156,-24 -219,-66l-241 310c-66,89 -154,91 -254,99l-1373 17c-78,-3 -121,-71 -139,-137 -7,-26 -11,-54 -10,-78 2,-68 28,-101 86,-128l1754 -475c18,-124 93,-231 202,-292 -44,-88 -179,-349 -155,-440 12,-44 34,-92 52,-131l674 -1203c24,-39 63,-57 109,-60 48,-4 111,13 152,39 55,34 82,73 67,138l-454 1695zm56 568c-11,14 -23,26 -36,38l1106 1102 -602 -1014c-16,-23 -53,-82 -71,-84l-397 -42zm-662 -72c-7,-13 -13,-27 -19,-41l-1533 416 1177 -15c26,-2 100,-5 111,-20l264 -340zm355 -384c-110,0 -200,90 -200,200 0,110 90,200 200,200 110,0 200,-90 200,-200 0,-110 -90,-200 -200,-200zm-1395 3199l2800 0 0 200 -2800 0 0 -200z"/>
</svg>