<?xml version="1.0" encoding="UTF-8"?>
<!DOCTYPE svg PUBLIC "-//W3C//DTD SVG 1.1//EN" "http://www.w3.org/Graphics/SVG/1.1/DTD/svg11.dtd">
<svg xmlns="http://www.w3.org/2000/svg" xml:space="preserve" width="580px" height="580px" shape-rendering="geometricPrecision" text-rendering="geometricPrecision" image-rendering="optimizeQuality" fill-rule="nonzero" clip-rule="nonzero" viewBox="0 0 5800 5800" xmlns:xlink="http://www.w3.org/1999/xlink">
	<title>window_cd icon</title>
	<desc>window_cd icon from the IconExperience.com I-Collection. Copyright by INCORS GmbH (www.incors.com).</desc>
		<path id="curve29" d="M600 300l4200 0c165,0 300,135 300,300l0 1672c-63,-62 -130,-119 -200,-172l0 -1000 -4400 0 0 3000 1240 0c14,68 31,135 52,200l-1492 0 0 -3700c0,-165 135,-300 300,-300zm-100 600l4400 0 0 -300c0,-55 -45,-100 -100,-100l-4200 0c-55,0 -100,45 -100,100l0 300z"/>
	<path id="curve28" d="M3700 3300c221,0 400,179 400,400 0,220 -180,400 -400,400 -221,0 -400,-179 -400,-400 0,-220 180,-400 400,-400zm0 -1400c994,0 1800,806 1800,1800 0,994 -806,1800 -1800,1800 -994,0 -1800,-806 -1800,-1800 0,-994 806,-1800 1800,-1800zm1524 1311l-748 293c16,63 24,128 24,196 0,442 -358,800 -800,800 -83,0 -163,-13 -238,-36l-332 731c177,68 369,105 570,105 884,0 1600,-716 1600,-1600 0,-170 -27,-335 -76,-489zm-821 107l748 -292c-146,-315 -393,-575 -699,-739l-333 732c119,73 217,176 284,299zm-465 -382l332 -731c-177,-68 -369,-105 -570,-105 -884,0 -1600,716 -1600,1600 0,170 27,335 76,489l748 -293c-16,-63 -24,-128 -24,-196 0,-442 358,-800 800,-800 83,0 163,13 238,36zm-941 1146l-748 292c146,315 393,575 699,739l333 -732c-119,-73 -217,-176 -284,-299zm703 -982c-331,0 -600,269 -600,600 0,331 269,600 600,600 331,0 600,-269 600,-600 0,-331 -269,-600 -600,-600zm0 400c-111,0 -200,89 -200,200 0,110 90,200 200,200 111,0 200,-89 200,-200 0,-111 -90,-200 -200,-200z"/>
</svg>