<?xml version="1.0" encoding="UTF-8"?>
<!DOCTYPE svg PUBLIC "-//W3C//DTD SVG 1.1//EN" "http://www.w3.org/Graphics/SVG/1.1/DTD/svg11.dtd">
<svg xmlns="http://www.w3.org/2000/svg" xml:space="preserve" width="580px" height="580px" shape-rendering="geometricPrecision" text-rendering="geometricPrecision" image-rendering="optimizeQuality" fill-rule="nonzero" clip-rule="nonzero" viewBox="0 0 5800 5800" xmlns:xlink="http://www.w3.org/1999/xlink">
	<title>window_earth icon</title>
	<desc>window_earth icon from the IconExperience.com I-Collection. Copyright by INCORS GmbH (www.incors.com).</desc>
		<path id="curve28"  d="M3429 2528c14,-5 42,0 52,9 10,8 26,39 33,50 11,20 26,48 41,64 27,31 160,-4 216,56 19,20 8,65 -16,77 -49,24 -85,3 -135,-6 -31,-6 -73,5 -103,0 -89,-15 -52,-120 -153,-154 -29,-10 -121,-3 -150,7 -32,12 -63,18 -96,19 -3,0 -5,0 -8,0 21,-5 40,-15 53,-35 15,-22 61,-81 84,-92 42,-20 70,20 103,37 14,8 107,46 101,62 -18,45 21,53 52,29 43,-35 10,-62 -24,-83 -19,-11 -36,-23 -50,-40zm-536 -714c-772,0 -1393,624 -1393,1393 0,769 624,1393 1393,1393 769,0 1393,-627 1393,-1393 0,-766 -621,-1393 -1393,-1393zm504 311c-16,12 -31,26 -44,33 -38,18 -96,22 -117,65 -25,48 36,92 7,111 -18,12 -51,49 -67,53 -24,7 -47,5 -71,5 -61,0 -110,25 -135,81 -20,44 -26,132 26,157 19,9 42,17 65,20 -1,1 -3,1 -4,1 -41,9 -70,61 -89,95 -13,22 -78,65 -103,101 -24,34 -44,74 -47,116 -2,35 -19,142 -14,166 20,102 114,199 209,237 53,21 148,-26 200,-44 77,-26 67,38 110,86 26,28 21,42 29,82 9,48 62,116 61,162 -1,59 -31,92 -38,147 -2,14 80,272 91,286 55,69 178,-67 211,-105 56,-65 87,-122 129,-195 14,-25 28,-49 42,-74 32,-57 37,-81 29,-148 -10,-87 71,-182 122,-247 70,-90 -39,-145 -1,-196 21,-16 47,-9 69,-46 3,-4 6,-12 9,-21 7,50 10,101 10,154 0,329 -133,628 -349,844 -216,215 -514,349 -844,349 -238,0 -460,-70 -647,-190 -1,-7 -2,-14 -2,-21 -4,-57 39,-86 33,-150 -6,-75 38,-112 103,-139 56,-24 17,-117 29,-163 16,-62 75,-104 39,-173 -13,-25 -111,-61 -138,-71 -32,-14 -128,-44 -137,-81 -6,-21 -7,-30 -22,-48 -26,-31 -76,-59 -111,-77 -57,-30 -75,-89 -156,-114 -49,-15 -85,33 -120,2 -21,-19 -42,-58 -57,-97 7,-70 21,-138 40,-204 33,-23 73,-49 84,-57 49,-35 66,-131 90,-150 57,-45 109,-105 184,-116 37,-5 19,-86 49,-101 43,-24 59,82 132,4 23,-25 6,-73 -4,-101 -5,-13 -25,-60 -22,-73 14,-67 90,-60 87,-97 -1,-7 -14,-14 -30,-21 57,-32 117,-59 179,-81 4,2 6,3 8,5 8,22 -59,138 -27,167 8,7 18,7 28,5 45,-10 116,-77 169,-99 62,-27 129,-14 193,-38 87,-32 91,-76 135,-102 140,12 273,49 395,106zm-1697 1099c21,33 43,72 43,84 -6,64 2,132 13,195 13,86 94,189 151,254 18,20 23,95 27,123 1,14 3,29 6,44 -148,-195 -236,-437 -240,-700zm-1100 -2524l4600 0c165,0 300,135 300,300l0 300 -5200 0 0 -300c0,-165 135,-300 300,-300zm4900 800l0 3600 -5200 0 0 -3600 5200 0z"/>
</svg>