<?xml version="1.0" encoding="UTF-8"?>
<!DOCTYPE svg PUBLIC "-//W3C//DTD SVG 1.1//EN" "http://www.w3.org/Graphics/SVG/1.1/DTD/svg11.dtd">
<svg xmlns="http://www.w3.org/2000/svg" xml:space="preserve" width="580px" height="580px" shape-rendering="geometricPrecision" text-rendering="geometricPrecision" image-rendering="optimizeQuality" fill-rule="nonzero" clip-rule="nonzero" viewBox="0 0 5800 5800" xmlns:xlink="http://www.w3.org/1999/xlink">
	<title>window_cd icon</title>
	<desc>window_cd icon from the IconExperience.com I-Collection. Copyright by INCORS GmbH (www.incors.com).</desc>
		<path id="curve28"  d="M600 300l4200 0c165,0 300,135 300,300l0 100 -4800 0 0 -100c0,-165 135,-300 300,-300zm4500 600l0 1372c-361,-354 -855,-572 -1400,-572 -1105,0 -2000,895 -2000,2000 0,209 32,411 92,600l-1492 0 0 -3400 4800 0zm-1400 2400c-220,0 -400,180 -400,400 0,221 179,400 400,400 220,0 400,-180 400,-400 0,-221 -179,-400 -400,-400zm0 -1400c994,0 1800,806 1800,1800 0,994 -806,1800 -1800,1800 -994,0 -1800,-806 -1800,-1800 0,-994 806,-1800 1800,-1800zm0 1100c-387,0 -700,313 -700,700 0,387 313,700 700,700 387,0 700,-313 700,-700 0,-387 -313,-700 -700,-700zm200 700c0,111 -89,200 -200,200 -110,0 -200,-90 -200,-200 0,-111 89,-200 200,-200 110,0 200,89 200,200zm261 -773l291 -640c-59,-31 -119,-59 -182,-82l-291 639c64,21 125,49 182,83zm409 540l654 -256c-20,-63 -45,-125 -73,-185l-654 255c31,59 55,122 73,186zm-1331 1006l-291 640c59,31 119,59 182,82l291 -639c-64,-21 -125,-49 -182,-83zm-409 -540l-654 256c20,63 45,125 73,185l654 -255c-31,-59 -55,-122 -73,-186z"/>
</svg>