<?xml version="1.0" encoding="UTF-8"?>
<!DOCTYPE svg PUBLIC "-//W3C//DTD SVG 1.1//EN" "http://www.w3.org/Graphics/SVG/1.1/DTD/svg11.dtd">
<svg xmlns="http://www.w3.org/2000/svg" xml:space="preserve" width="580px" height="580px" shape-rendering="geometricPrecision" text-rendering="geometricPrecision" image-rendering="optimizeQuality" fill-rule="nonzero" clip-rule="nonzero" viewBox="0 0 5800 5800" xmlns:xlink="http://www.w3.org/1999/xlink">
	<title>window_key icon</title>
	<desc>window_key icon from the IconExperience.com I-Collection. Copyright by INCORS GmbH (www.incors.com).</desc>
		<path id="curve28"  d="M600 700l4600 0c165,0 300,135 300,300l0 300 -5200 0 0 -300c0,-165 135,-300 300,-300zm4900 800l0 3600 -5200 0 0 -3600 5200 0zm-2516 2200c159,364 518,600 916,600 552,0 1000,-448 1000,-1000 0,-552 -448,-1000 -1000,-1000 -398,0 -758,236 -917,601l-1737 1c-51,0 -116,50 -148,87l-136 162c-39,46 -49,108 -28,164l102 335c22,53 69,90 127,92l177 16 173 -201c26,-32 80,-35 112,-9 47,41 128,151 175,207 21,-26 173,-207 175,-207 29,-24 76,-24 104,0 48,41 129,151 176,207l167 -198c27,-32 80,-35 112,-9 39,34 89,107 126,152l324 0zm1116 -800c-220,0 -400,180 -400,400 0,221 179,400 400,400 220,0 400,-180 400,-400 0,-221 -179,-400 -400,-400z"/>
</svg>