<?xml version="1.0" encoding="UTF-8"?>
<!DOCTYPE svg PUBLIC "-//W3C//DTD SVG 1.1//EN" "http://www.w3.org/Graphics/SVG/1.1/DTD/svg11.dtd">
<svg xmlns="http://www.w3.org/2000/svg" xml:space="preserve" width="580px" height="580px" shape-rendering="geometricPrecision" text-rendering="geometricPrecision" image-rendering="optimizeQuality" fill-rule="nonzero" clip-rule="nonzero" viewBox="0 0 5800 5800" xmlns:xlink="http://www.w3.org/1999/xlink">
	<title>wind_engines icon</title>
	<desc>wind_engines icon from the IconExperience.com I-Collection. Copyright by INCORS GmbH (www.incors.com).</desc>
	<path id="curve0" d="M3008 2600c14,0 28,1 41,3l326 -1215 -471 838c-12,28 -27,60 -34,86 -2,7 118,247 138,288zm-1108 2500l0 -1255 200 -3 0 1258 -200 0zm0 -2201l0 -299 200 0 0 245 -200 54zm1000 2201l9 -1472c60,8 122,8 182,0l17 18 -8 1454 -200 0zm-1800 199l3610 0 0 200 -3610 0 0 -200zm2917 -3592c9,0 19,1 28,3l293 -1091 -418 745c-12,25 -25,55 -32,78 -1,5 111,229 129,265zm1330 1733c-52,54 -141,93 -204,31l-1075 -1071c-85,19 -173,4 -248,-39l-189 244c-14,18 -29,33 -45,44 -27,-49 -61,-95 -99,-136l19 -73 176 -226c-3,-5 -6,-11 -8,-17l-111 30 60 -223 27 -7c17,-102 79,-190 168,-242 -25,-51 -56,-114 -81,-175l93 -346c14,-53 14,-75 5,-128l469 -835c38,-61 112,-67 175,-51 73,19 151,78 129,162l-379 1413c84,76 127,188 115,301l267 28c102,11 146,81 197,157l581 979c38,63 5,133 -42,180zm-2964 -727l-314 -312c-84,16 -172,1 -246,-43l-192 247c-59,79 -143,85 -233,89l-1143 14c-94,-3 -142,-114 -140,-197 2,-55 31,-107 85,-121l1457 -395c18,-99 77,-185 162,-238 -56,-113 -144,-292 -124,-366 10,-38 29,-79 45,-113l564 -1007c38,-61 112,-67 175,-51 73,19 151,78 129,162l-377 1408c89,76 134,190 120,306l167 18c-13,30 -25,62 -34,95 -8,30 -10,65 -6,101l-212 -22c-4,5 -9,10 -13,14l236 236c-44,52 -80,111 -106,175zm1877 -426c-3,4 -7,8 -11,12l826 822 -438 -737c-10,-15 -47,-59 -47,-62l-330 -35zm-311 -374c-80,26 -123,112 -97,191 25,79 111,123 190,97 79,-26 123,-111 97,-191 -26,-79 -111,-122 -190,-97zm-1933 -207c10,0 20,1 30,2l292 -1089 -418 745c-12,25 -25,55 -32,78 -1,4 71,148 114,235l14 29zm-330 502c-2,-4 -4,-8 -6,-13l-1144 311 855 -11c20,-2 76,-3 82,-12l213 -275zm317 -303c-84,0 -151,67 -151,151 0,84 67,151 151,151 83,0 151,-67 151,-151 0,-83 -68,-151 -151,-151zm1897 3195l0 -665 200 198 0 467 -200 0zm0 -2151l0 -349 200 0 0 639c-53,-89 -125,-218 -200,-290zm-666 -265c97,81 147,206 130,331l281 30c106,12 152,85 205,165l621 1045c35,65 1,134 -46,181 -53,54 -144,96 -208,33l-1146 -1142c-91,18 -186,1 -265,-48l-208 268c-62,82 -150,88 -243,93l-1216 15c-74,-3 -116,-66 -134,-130 -25,-88 -9,-158 76,-197l1557 -422c18,-106 81,-199 174,-254 -59,-119 -156,-314 -135,-392 12,-44 33,-89 52,-130l596 -1061c39,-62 114,-67 179,-51 74,20 155,79 133,164l-403 1502zm44 523c-7,8 -14,15 -22,23l915 912 -491 -828c-11,-15 -45,-69 -56,-70l-346 -37zm-608 -79c-3,-7 -7,-14 -10,-21l-1274 345 962 -11c18,-2 84,-5 90,-14l232 -299zm330 -328c-92,0 -167,75 -167,167 0,92 75,167 167,167 93,0 167,-74 167,-167 0,-93 -74,-167 -167,-167z"/>
</svg>