<?xml version="1.0" encoding="UTF-8"?>
<!DOCTYPE svg PUBLIC "-//W3C//DTD SVG 1.1//EN" "http://www.w3.org/Graphics/SVG/1.1/DTD/svg11.dtd">
<svg xmlns="http://www.w3.org/2000/svg" xml:space="preserve" width="580px" height="580px" shape-rendering="geometricPrecision" text-rendering="geometricPrecision" image-rendering="optimizeQuality" fill-rule="nonzero" clip-rule="nonzero" viewBox="0 0 5800 5800" xmlns:xlink="http://www.w3.org/1999/xlink">
	<title>window_equalizer icon</title>
	<desc>window_equalizer icon from the IconExperience.com I-Collection. Copyright by INCORS GmbH (www.incors.com).</desc>
		<path id="curve28"  d="M600 700l4600 0c165,0 300,135 300,300l0 300 -5200 0 0 -300c0,-165 135,-300 300,-300zm4900 800l0 3600 -5200 0 0 -3600 5200 0zm-4700 3000l0 200 700 0 0 -200 -700 0zm1150 0l0 200 700 0 0 -200 -700 0zm1150 0l0 200 700 0 0 -200 -700 0zm1150 0l0 200 700 0 0 -200 -700 0zm-3450 -400l0 200 700 0 0 -200 -700 0zm1150 0l0 200 700 0 0 -200 -700 0zm1150 0l0 200 700 0 0 -200 -700 0zm1150 0l0 200 700 0 0 -200 -700 0zm-3450 -400l0 200 700 0 0 -200 -700 0zm1150 0l0 200 700 0 0 -200 -700 0zm1150 0l0 200 700 0 0 -200 -700 0zm1150 0l0 200 700 0 0 -200 -700 0zm-3450 -400l0 200 700 0 0 -200 -700 0zm2300 0l0 200 700 0 0 -200 -700 0zm0 -400l0 200 700 0 0 -200 -700 0zm0 -400l0 200 700 0 0 -200 -700 0zm1150 800l0 200 700 0 0 -200 -700 0zm-1150 -1200l0 200 700 0 0 -200 -700 0zm1150 800l0 200 700 0 0 -200 -700 0z"/>
</svg>