<?xml version="1.0" encoding="UTF-8"?>
<!DOCTYPE svg PUBLIC "-//W3C//DTD SVG 1.1//EN" "http://www.w3.org/Graphics/SVG/1.1/DTD/svg11.dtd">
<svg xmlns="http://www.w3.org/2000/svg" xml:space="preserve" width="580px" height="580px" shape-rendering="geometricPrecision" text-rendering="geometricPrecision" image-rendering="optimizeQuality" fill-rule="nonzero" clip-rule="nonzero" viewBox="0 0 5800 5800" xmlns:xlink="http://www.w3.org/1999/xlink">
	<title>window_environment icon</title>
	<desc>window_environment icon from the IconExperience.com I-Collection. Copyright by INCORS GmbH (www.incors.com).</desc>
	<path id="curve0"  d="M600 700l4600 0c165,0 300,135 300,300l0 300 -5200 0 0 -300c0,-165 135,-300 300,-300zm2300 1100c-387,0 -737,157 -990,410 -253,253 -410,603 -410,990 0,773 627,1400 1400,1400 773,0 1400,-627 1400,-1400 0,-773 -627,-1400 -1400,-1400zm488 303c135,61 257,145 361,248 23,24 45,48 66,73l-266 0c-24,-68 -52,-131 -82,-189 -25,-47 -51,-91 -79,-132zm221 521l344 0c79,143 129,305 143,476l-422 0c-6,-169 -29,-329 -65,-476zm65 676l422 0c-14,171 -64,333 -143,476l-344 0c36,-147 59,-307 65,-476zm-125 676l266 0c-21,25 -43,49 -66,73 -104,103 -226,187 -361,248 68,-99 120,-209 161,-321zm-1137 321c-165,-74 -311,-184 -427,-321l266 0c24,68 52,131 82,189 25,47 51,91 79,132zm-221 -521l-344 0c-79,-143 -129,-305 -143,-476l422 0c6,169 29,329 65,476zm-65 -676l-422 0c14,-171 64,-333 143,-476l344 0c-36,147 -59,307 -65,476zm125 -676l-266 0c21,-25 43,-49 66,-73 104,-103 226,-187 361,-248 -28,41 -54,85 -79,132 -30,58 -58,121 -82,189zm1038 -97c16,31 31,63 46,97l-335 0 0 -404c108,42 209,152 289,307zm-489 -307l0 404 -335 0c15,-34 30,-66 46,-97 80,-155 181,-265 289,-307zm-403 604l403 0 0 476 -474 0c7,-171 32,-332 71,-476zm-71 676l474 0 0 476 -403 0c-39,-144 -64,-305 -71,-476zm139 676l335 0 0 404c-158,-62 -271,-252 -335,-404zm535 404l0 -404 335 0c-64,152 -177,342 -335,404zm403 -604l-403 0 0 -476 474 0c-7,171 -32,332 -71,476zm71 -676l-474 0 0 -476 403 0c39,144 64,305 71,476zm2026 -1600l0 3600 -5200 0 0 -3600 5200 0z"/>
</svg>