<?xml version="1.0" encoding="UTF-8"?>
<!DOCTYPE svg PUBLIC "-//W3C//DTD SVG 1.1//EN" "http://www.w3.org/Graphics/SVG/1.1/DTD/svg11.dtd">
<svg xmlns="http://www.w3.org/2000/svg" xml:space="preserve" width="580px" height="580px" shape-rendering="geometricPrecision" text-rendering="geometricPrecision" image-rendering="optimizeQuality" fill-rule="nonzero" clip-rule="nonzero" viewBox="0 0 5800 5800" xmlns:xlink="http://www.w3.org/1999/xlink">
	<title>window_network icon</title>
	<desc>window_network icon from the IconExperience.com I-Collection. Copyright by INCORS GmbH (www.incors.com).</desc>
		<path id="curve28"  d="M3000 5200l100 0 0 100 1000 0 0 200 -1000 0 0 100c-133,0 -267,0 -400,0l0 -100 -1000 0 0 -200 1000 0 0 -100 100 0 0 -498 -2500 0 0 -4100c0,-165 135,-300 300,-300l4600 0c165,0 300,135 300,300l0 4100 -2500 0 0 498zm2300 -698l0 -3400 -4800 0 0 3400c1603,0 3197,0 4800,0zm-100 -4000l-4600 0c-55,0 -100,44 -100,100l0 300 4800 0 0 -300c0,-56 -45,-100 -100,-100z"/>
</svg>