<?xml version="1.0" encoding="UTF-8"?>
<!DOCTYPE svg PUBLIC "-//W3C//DTD SVG 1.1//EN" "http://www.w3.org/Graphics/SVG/1.1/DTD/svg11.dtd">
<svg xmlns="http://www.w3.org/2000/svg" xml:space="preserve" width="580px" height="580px" shape-rendering="geometricPrecision" text-rendering="geometricPrecision" image-rendering="optimizeQuality" fill-rule="nonzero" clip-rule="nonzero" viewBox="0 0 5800 5800" xmlns:xlink="http://www.w3.org/1999/xlink">
	<title>windows icon</title>
	<desc>windows icon from the IconExperience.com I-Collection. Copyright by INCORS GmbH (www.incors.com).</desc>
		<path id="curve29"  d="M1400 700l3800 0c165,0 300,135 300,300l0 3300 -600 0 0 -200 400 0 0 -2600 -4000 0 0 200 -200 0 0 -700c0,-165 135,-300 300,-300zm-100 600l4000 0 0 -300c0,-55 -45,-100 -100,-100l-3800 0c-55,0 -100,45 -100,100l0 300z"/>
	<path id="curve28"  d="M600 1900l3800 0c165,0 300,135 300,300l0 3303 -4400 0 0 -3303c0,-165 135,-300 300,-300zm-100 603l4000 0 0 -303c0,-55 -44,-100 -100,-100l-3800 0c-56,0 -100,45 -100,100l0 303zm4000 200l-4000 0 0 2600 4000 0 0 -2600z"/>
</svg>