<?xml version="1.0" encoding="UTF-8"?>
<!DOCTYPE svg PUBLIC "-//W3C//DTD SVG 1.1//EN" "http://www.w3.org/Graphics/SVG/1.1/DTD/svg11.dtd">
<svg xmlns="http://www.w3.org/2000/svg" xml:space="preserve" width="580px" height="580px" shape-rendering="geometricPrecision" text-rendering="geometricPrecision" image-rendering="optimizeQuality" fill-rule="nonzero" clip-rule="nonzero" viewBox="0 0 5800 5800" xmlns:xlink="http://www.w3.org/1999/xlink">
	<title>window_environment icon</title>
	<desc>window_environment icon from the IconExperience.com I-Collection. Copyright by INCORS GmbH (www.incors.com).</desc>
	<path id="curve0" d="M1847 3776l344 0c-36,-147 -59,-307 -65,-476l-422 0c14,171 64,333 143,476zm-1247 -3076l4600 0c165,0 300,135 300,300l0 4100 -5200 0 0 -4100c0,-165 135,-300 300,-300zm4600 200l-4600 0c-55,0 -100,45 -100,100l0 300 4800 0 0 -300c0,-55 -45,-100 -100,-100zm-4700 600l0 3400 4800 0 0 -3400 -4800 0zm1204 1600l422 0c6,-169 29,-329 65,-476l-344 0c-79,143 -129,305 -143,476zm281 -676l266 0c24,-68 52,-131 82,-189 25,-47 51,-91 79,-132 -165,74 -311,184 -427,321zm1403 -321c68,99 120,209 161,321l266 0c-116,-137 -262,-247 -427,-321zm565 521l-344 0c36,147 59,307 65,476l422 0c-14,-171 -64,-333 -143,-476zm143 676l-422 0c-6,169 -29,329 -65,476l344 0c79,-143 129,-305 143,-476zm-281 676l-266 0c-41,112 -93,222 -161,321 165,-74 311,-184 427,-321zm-1403 321c-68,-99 -120,-209 -161,-321l-266 0c116,137 262,247 427,321zm488 -2497c773,0 1400,627 1400,1400 0,773 -627,1400 -1400,1400 -773,0 -1400,-627 -1400,-1400 0,-773 627,-1400 1400,-1400zm-503 1976l403 0 0 -476 -474 0c7,171 32,332 71,476zm-71 -676l474 0 0 -476 -403 0c-39,144 -64,305 -71,476zm139 -676l335 0 0 -404c-158,62 -271,252 -335,404zm535 -404l0 404 335 0c-64,-152 -177,-342 -335,-404zm403 604l-403 0 0 476 474 0c-7,-171 -32,-332 -71,-476zm71 676l-474 0 0 476 403 0c39,-144 64,-305 71,-476zm-139 676l-335 0 0 404c158,-62 271,-252 335,-404zm-535 404l0 -404 -335 0c64,152 177,342 335,404z"/>
</svg>