<?xml version="1.0" encoding="UTF-8"?>
<!DOCTYPE svg PUBLIC "-//W3C//DTD SVG 1.1//EN" "http://www.w3.org/Graphics/SVG/1.1/DTD/svg11.dtd">
<svg xmlns="http://www.w3.org/2000/svg" xml:space="preserve" width="580px" height="580px" shape-rendering="geometricPrecision" text-rendering="geometricPrecision" image-rendering="optimizeQuality" fill-rule="nonzero" clip-rule="nonzero" viewBox="0 0 5800 5800" xmlns:xlink="http://www.w3.org/1999/xlink">
	<title>windows_close icon</title>
	<desc>windows_close icon from the IconExperience.com I-Collection. Copyright by INCORS GmbH (www.incors.com).</desc>
		<path id="curve29"  d="M1400 1900l1100 0 0 200 -1100 0c-56,0 -100,45 -100,100l0 303 1200 0 0 200 -1200 0 0 2600 4000 0 0 -1203 200 0 0 1403 -4400 0 0 -3303c0,-165 135,-300 300,-300zm-800 -1200l3800 0c127,0 241,81 283,200 -1361,0 -2722,0 -4083,0 -55,0 -100,45 -100,100l0 300 2000 0 0 200 -2000 0 0 2600 400 0 0 200 -600 0 0 -3300c0,-165 135,-300 300,-300z"/>
	<path id="curve28"  d="M5300 1300l-2400 0 0 2400 2400 0 0 -2400zm-1929 329l729 730 729 -730 142 142 -730 729 730 729 -142 142 -729 -730 -729 730 -142 -142 730 -729 -730 -729 142 -142zm2129 -529l0 2800 -2800 0 0 -2800 2800 0z"/>
</svg>