<?xml version="1.0" encoding="UTF-8"?>
<!DOCTYPE svg PUBLIC "-//W3C//DTD SVG 1.1//EN" "http://www.w3.org/Graphics/SVG/1.1/DTD/svg11.dtd">
<svg xmlns="http://www.w3.org/2000/svg" xml:space="preserve" width="580px" height="580px" shape-rendering="geometricPrecision" text-rendering="geometricPrecision" image-rendering="optimizeQuality" fill-rule="nonzero" clip-rule="nonzero" viewBox="0 0 5800 5800" xmlns:xlink="http://www.w3.org/1999/xlink">
	<title>windsock icon</title>
	<desc>windsock icon from the IconExperience.com I-Collection. Copyright by INCORS GmbH (www.incors.com).</desc>
		<path id="curve29"  d="M1100,1800 591,2300 1100,2800 1100,3100 500,2500 500,5500 300,5500 300,2300 1100,1500z"/>
	<path id="curve28"  d="M2400 3324l1000 -175 0 -1698 -1000 -175 0 2048zm2000 -350l900 -158 0 -1032 -900 -158 0 1348zm-3100 388l0 -2124c0,-187 168,-328 352,-295l3761 658c49,6 87,48 87,99l0 1200c0,48 -34,90 -83,98l-3765 659c-184,33 -352,-108 -352,-295z"/>
</svg>