<?xml version="1.0" encoding="UTF-8"?>
<!DOCTYPE svg PUBLIC "-//W3C//DTD SVG 1.1//EN" "http://www.w3.org/Graphics/SVG/1.1/DTD/svg11.dtd">
<svg xmlns="http://www.w3.org/2000/svg" xml:space="preserve" width="580px" height="580px" shape-rendering="geometricPrecision" text-rendering="geometricPrecision" image-rendering="optimizeQuality" fill-rule="nonzero" clip-rule="nonzero" viewBox="0 0 5800 5800" xmlns:xlink="http://www.w3.org/1999/xlink">
	<title>window_font icon</title>
	<desc>window_font icon from the IconExperience.com I-Collection. Copyright by INCORS GmbH (www.incors.com).</desc>
		<path id="curve28"  d="M600 700l4600 0c165,0 300,135 300,300l0 300 -5200 0 0 -300c0,-165 135,-300 300,-300zm4900 800l0 3600 -5200 0 0 -3600 5200 0zm-3012 2769l-165 0 0 200c203,0 397,0 600,0l0 -200 -197 0 264 -402 833 0 0 402 -200 0 0 200 600 0 0 -200 -199 0 0 -1800c-118,0 -236,0 -354,0l-1182 1800zm1289 -1600l46 0 0 998 -702 0 656 -998zm-2277 1231l200 0 0 -200c0,-79 6,-140 19,-200l1035 0 221 -335 -379 -1192c-11,-42 -50,-73 -96,-73l-400 0c-42,0 -81,27 -95,69l-412 1249c-29,89 -52,158 -68,231 -16,74 -25,150 -25,251l0 200zm1308 -600l-1031 0 395 -1200 255 0c127,400 254,800 381,1200z"/>
</svg>