<?xml version="1.0" encoding="UTF-8"?>
<!DOCTYPE svg PUBLIC "-//W3C//DTD SVG 1.1//EN" "http://www.w3.org/Graphics/SVG/1.1/DTD/svg11.dtd">
<svg xmlns="http://www.w3.org/2000/svg" xml:space="preserve" width="580px" height="580px" shape-rendering="geometricPrecision" text-rendering="geometricPrecision" image-rendering="optimizeQuality" fill-rule="nonzero" clip-rule="nonzero" viewBox="0 0 5800 5800" xmlns:xlink="http://www.w3.org/1999/xlink">
	<title>window_logon icon</title>
	<desc>window_logon icon from the IconExperience.com I-Collection. Copyright by INCORS GmbH (www.incors.com).</desc>
	<path id="curve0" d="M2700 3497c110,0 200,90 200,200 0,111 -90,200 -200,200 -110,0 -200,-89 -200,-200 0,-110 90,-200 200,-200zm-2100 -2797l4600 0c165,0 300,135 300,300l0 4100 -5200 0 0 -4100c0,-165 135,-300 300,-300zm4600 200l-4600 0c-55,0 -100,45 -100,100l0 300 4800 0 0 -300c0,-55 -45,-100 -100,-100zm-4700 600l0 3400 4800 0 0 -3400 -4800 0zm4400 1600l0 1200 -4000 0 0 -1200 4000 0zm-200 200l-3600 0 0 800 3600 0 0 -800zm-3200 197c110,0 200,90 200,200 0,111 -90,200 -200,200 -110,0 -200,-89 -200,-200 0,-110 90,-200 200,-200zm600 0c110,0 200,90 200,200 0,111 -90,200 -200,200 -110,0 -200,-89 -200,-200 0,-110 90,-200 200,-200z"/>
</svg>