<?xml version="1.0" encoding="UTF-8"?>
<!DOCTYPE svg PUBLIC "-//W3C//DTD SVG 1.1//EN" "http://www.w3.org/Graphics/SVG/1.1/DTD/svg11.dtd">
<svg xmlns="http://www.w3.org/2000/svg" xml:space="preserve" width="580px" height="580px" shape-rendering="geometricPrecision" text-rendering="geometricPrecision" image-rendering="optimizeQuality" fill-rule="nonzero" clip-rule="nonzero" viewBox="0 0 5800 5800" xmlns:xlink="http://www.w3.org/1999/xlink">
	<title>window_network icon</title>
	<desc>window_network icon from the IconExperience.com I-Collection. Copyright by INCORS GmbH (www.incors.com).</desc>
		<path id="curve29"  d="M600 302l4600 0c165,0 300,135 300,300l0 298 -5200 0 0 -298c0,-165 135,-300 300,-300zm4900 798l0 3602 -5200 0 0 -3602 5200 0z"/>
	<path id="curve28"  d="M3000,5200 3100,5200 3100,5300 4100,5300 4100,5500 3100,5500 3100,5600 3000,5600 2800,5600 2700,5600 2700,5500 1700,5500 1700,5300 2700,5300 2700,5200 2800,5200 2800,4500 3000,4500z"/>
</svg>