<?xml version="1.0" encoding="UTF-8"?>
<!DOCTYPE svg PUBLIC "-//W3C//DTD SVG 1.1//EN" "http://www.w3.org/Graphics/SVG/1.1/DTD/svg11.dtd">
<svg xmlns="http://www.w3.org/2000/svg" xml:space="preserve" width="580px" height="580px" shape-rendering="geometricPrecision" text-rendering="geometricPrecision" image-rendering="optimizeQuality" fill-rule="nonzero" clip-rule="nonzero" viewBox="0 0 5800 5800" xmlns:xlink="http://www.w3.org/1999/xlink">
	<title>wind_engines icon</title>
	<desc>wind_engines icon from the IconExperience.com I-Collection. Copyright by INCORS GmbH (www.incors.com).</desc>
	<path id="curve0"  d="M4471 4255c21,39 17,81 -2,120 -20,42 -62,85 -103,106 -39,21 -82,27 -122,7l-27 -19 -1146 -1142c154,-30 272,-156 293,-312l281 30c98,11 158,86 205,165l621 1045zm-1665 -976l-208 268c-62,82 -150,88 -243,93l-1212 15c-76,0 -120,-64 -138,-130 -22,-77 -12,-144 60,-193l1573 -426c-25,147 42,294 168,373zm518 -2208c24,-39 62,-57 106,-60 45,-4 104,12 142,36 50,30 65,64 69,119l-407 1518c-119,-99 -290,-112 -422,-32 -59,-119 -156,-314 -135,-392 12,-44 33,-89 52,-130l595 -1059zm-324 1729c-92,0 -167,75 -167,167 0,92 75,167 167,167 93,0 167,-74 167,-167 0,-93 -74,-167 -167,-167zm-100 2300l9 -1472c60,8 122,8 182,0l17 18 -8 1454 -200 0zm-1000 0l0 -1255 200 -3 0 1258 -200 0zm0 -2201l0 -299 200 0 0 245 -200 54zm2049 -986c-80,26 -123,112 -97,191 25,79 111,123 190,97 79,-26 123,-111 97,-191 -26,-79 -111,-122 -190,-97zm842 344c6,8 11,16 17,24l583 983c21,38 17,79 -1,118 -10,20 -26,41 -43,58 -17,18 -37,34 -57,44 -38,20 -80,26 -120,6l-27 -19 -1075 -1071c149,-32 260,-154 276,-304l267 28c97,10 140,73 180,133zm-971 104l-189 244 0 0c-14,18 -29,33 -45,44 -27,-49 -61,-95 -99,-136l136 -509 27 -7c-26,144 42,291 170,364zm-1437 352l-314 -312c150,-29 265,-153 282,-305l167 18c-63,147 -49,232 7,385 -61,61 -109,134 -142,214zm1435 -958c-25,-51 -56,-114 -81,-175l93 -346c14,-53 14,-75 5,-128l467 -831c24,-40 60,-59 106,-62 44,-3 100,11 137,35 56,34 69,73 63,134l-379 1413c-114,-101 -280,-118 -411,-40zm-1815 150c-84,0 -151,67 -151,151 0,84 67,151 151,151 83,0 151,-67 151,-151 0,-83 -68,-151 -151,-151zm-180 453l-192 247c-59,79 -143,85 -233,89l-1138 14c-46,0 -81,-23 -106,-61 -25,-37 -40,-91 -39,-136 2,-57 24,-86 69,-117l1473 -399c-26,144 42,289 166,363zm-4 -601c-56,-113 -144,-292 -124,-366 11,-42 31,-84 50,-124l559 -996c23,-37 61,-55 104,-58 44,-3 100,11 137,35 49,30 63,63 67,118l-381 1424c-116,-99 -283,-112 -412,-33zm2081 3343l0 -665 200 198 0 467 -200 0zm0 -2151l0 -349 200 0 0 639c-53,-89 -125,-218 -200,-290zm-2395 2350l2800 0 0 200 -2800 0 0 -200z"/>
</svg>