<?xml version="1.0" encoding="UTF-8"?>
<!DOCTYPE svg PUBLIC "-//W3C//DTD SVG 1.1//EN" "http://www.w3.org/Graphics/SVG/1.1/DTD/svg11.dtd">
<svg xmlns="http://www.w3.org/2000/svg" xml:space="preserve" width="580px" height="580px" shape-rendering="geometricPrecision" text-rendering="geometricPrecision" image-rendering="optimizeQuality" fill-rule="nonzero" clip-rule="nonzero" viewBox="0 0 5800 5800" xmlns:xlink="http://www.w3.org/1999/xlink">
	<title>wind_engine_offshore icon</title>
	<desc>wind_engine_offshore icon from the IconExperience.com I-Collection. Copyright by INCORS GmbH (www.incors.com).</desc>
		<path id="curve28"  d="M2900 2100c110,0 200,90 200,200 0,110 -90,200 -200,200 -110,0 -200,-90 -200,-200 0,-110 90,-200 200,-200zm-2200 2900c160,190 386,300 650,300 372,0 561,-170 773,-444 217,279 409,444 787,443 378,0 571,-166 788,-445 208,268 396,446 760,447 260,0 486,-115 642,-301l0 275c-183,137 -404,227 -642,226 -294,-1 -564,-118 -761,-315 -203,201 -487,313 -787,314 -300,0 -584,-112 -787,-312 -199,198 -482,312 -779,312 -242,0 -456,-73 -643,-213l-1 -287zm2006 -3050c-44,-88 -179,-349 -155,-440 13,-49 36,-98 58,-144l666 -1186c41,-69 120,-74 190,-56 26,7 53,18 73,31 40,24 67,60 70,106l-3 32 -454 1695c-126,-101 -304,-116 -445,-38zm589 415l330 35c112,12 164,93 221,179l694 1169c25,41 20,87 0,128 -10,22 -27,45 -47,65 -19,19 -41,37 -63,48 -52,28 -90,26 -141,1l-1303 -1299c159,-35 282,-165 309,-326zm-614 269l-241 310c-67,91 -160,92 -263,99l-1364 17c-78,-3 -121,-71 -139,-137 -7,-26 -11,-54 -10,-78 2,-57 30,-112 86,-128l1754 -475c-18,125 23,251 113,341 19,19 41,36 64,51zm69 2448l0 -2182 300 0 0 2186c-46,9 -93,13 -140,13 -54,0 -108,-5 -160,-17z"/>
</svg>