<?xml version="1.0" encoding="UTF-8"?>
<!DOCTYPE svg PUBLIC "-//W3C//DTD SVG 1.1//EN" "http://www.w3.org/Graphics/SVG/1.1/DTD/svg11.dtd">
<svg xmlns="http://www.w3.org/2000/svg" xml:space="preserve" width="580px" height="580px" shape-rendering="geometricPrecision" text-rendering="geometricPrecision" image-rendering="optimizeQuality" fill-rule="nonzero" clip-rule="nonzero" viewBox="0 0 5800 5800" xmlns:xlink="http://www.w3.org/1999/xlink">
	<title>window_dialog icon</title>
	<desc>window_dialog icon from the IconExperience.com I-Collection. Copyright by INCORS GmbH (www.incors.com).</desc>
		<path id="curve28"  d="M1299 3900c0,200 0,400 0,600 466,0 933,0 1400,0 0,-200 0,-400 0,-600 -467,0 -934,0 -1400,0zm1 -1800l3200 0 0 1400 -3200 0 0 -1400zm1800 1800c0,200 0,400 0,600 467,0 933,0 1400,0 0,-200 0,-400 0,-600 -467,0 -933,0 -1400,0zm-2000 -2000c0,600 0,1200 0,1800 1200,0 2400,0 3600,0 0,-600 0,-1200 0,-1800 -1200,0 -2400,0 -3600,0zm-500 -1200l4600 0c165,0 300,135 300,300l0 300 -5200 0 0 -300c0,-165 135,-300 300,-300zm4900 800l0 3600 -5200 0 0 -3600 5200 0z"/>
</svg>