<?xml version="1.0" encoding="UTF-8"?>
<!DOCTYPE svg PUBLIC "-//W3C//DTD SVG 1.1//EN" "http://www.w3.org/Graphics/SVG/1.1/DTD/svg11.dtd">
<svg xmlns="http://www.w3.org/2000/svg" xml:space="preserve" width="580px" height="580px" shape-rendering="geometricPrecision" text-rendering="geometricPrecision" image-rendering="optimizeQuality" fill-rule="nonzero" clip-rule="nonzero" viewBox="0 0 5800 5800" xmlns:xlink="http://www.w3.org/1999/xlink">
	<title>window_oscillograph icon</title>
	<desc>window_oscillograph icon from the IconExperience.com I-Collection. Copyright by INCORS GmbH (www.incors.com).</desc>
		<path id="curve29" d="M600 700l4600 0c165,0 300,135 300,300l0 4100 -5200 0 0 -4100c0,-165 135,-300 300,-300zm-100 600l4800 0 0 -300c0,-55 -45,-100 -100,-100l-4600 0c-55,0 -100,45 -100,100l0 300zm4800 200l-4800 0 0 3400 4800 0 0 -3400z"/>
	<path id="curve28" d="M700,3300 1470,3300 1832,3059 2085,3481 2425,2688 2678,3700 2902,2285 2992,1714 3098,2282 3327,3504 3582,2740 3917,3411 4189,3048 4442,3300 5100,3298 5100,3497 4358,3500 4211,3352 3883,3789 3618,3260 3273,4296 3008,2886 2722,4700 2375,3312 2115,3919 1768,3341 1530,3500 700,3500z"/>
</svg>