<?xml version="1.0" encoding="UTF-8"?>
<!DOCTYPE svg PUBLIC "-//W3C//DTD SVG 1.1//EN" "http://www.w3.org/Graphics/SVG/1.1/DTD/svg11.dtd">
<svg xmlns="http://www.w3.org/2000/svg" xml:space="preserve" width="580px" height="580px" shape-rendering="geometricPrecision" text-rendering="geometricPrecision" image-rendering="optimizeQuality" fill-rule="nonzero" clip-rule="nonzero" viewBox="0 0 5800 5800" xmlns:xlink="http://www.w3.org/1999/xlink">
	<title>windmill icon</title>
	<desc>windmill icon from the IconExperience.com I-Collection. Copyright by INCORS GmbH (www.incors.com).</desc>
	<path id="curve0"  d="M3047 2132l132 -151 -159 -140 1453 -1651 697 612 -1454 1652 -387 -341 -132 151c62,100 70,226 21,333l151 132 140 -159 1651 1453 -612 697 -1652 -1454 341 -387 -151 -132c-100,62 -226,70 -333,21l-132 151 159 140 -1453 1651 -697 -612 1454 -1652 387 341 133 -151c-63,-100 -71,-226 -22,-333l-151 -132 -140 159 -1651 -1453 612 -697 1652 1454 -341 387 151 132c100,-62 226,-70 333,-21zm-2347 2868c0,-146 28,-320 74,-510l171 151c-28,134 -45,255 -45,359l0 300 4000 0 0 -300c0,-97 -15,-210 -39,-333l163 -186c47,194 76,370 76,519l0 500 -4400 0 0 -500zm3684 -1926c-92,-314 -165,-615 -181,-872l192 -217c3,38 5,76 5,115 0,329 126,773 271,1226l-287 -252zm-873 -2093c-250,-180 -497,-281 -611,-281 -97,0 -291,81 -502,223l-152 -134c266,-183 525,-289 654,-289 143,0 447,119 742,332l-131 149zm-2334 2193c124,-399 223,-782 223,-1074 0,-89 11,-176 32,-260l175 154c-5,35 -7,70 -7,106 0,211 -46,459 -114,724l-309 350zm1445 -1522l-1352 -1189 -348 396 1351 1189 349 -396zm-520 1076l-1189 1352 396 348 1189 -1351 -396 -349zm1076 520l1352 1189 348 -396 -1351 -1189 -349 396zm520 -1076l1189 -1352 -396 -348 -1189 1351 396 349zm-798 128c-83,0 -150,67 -150,150 0,83 67,150 150,150 83,0 150,-67 150,-150 0,-83 -67,-150 -150,-150z"/>
</svg>