<?xml version="1.0" encoding="UTF-8"?>
<!DOCTYPE svg PUBLIC "-//W3C//DTD SVG 1.1//EN" "http://www.w3.org/Graphics/SVG/1.1/DTD/svg11.dtd">
<svg xmlns="http://www.w3.org/2000/svg" xml:space="preserve" width="580px" height="580px" shape-rendering="geometricPrecision" text-rendering="geometricPrecision" image-rendering="optimizeQuality" fill-rule="nonzero" clip-rule="nonzero" viewBox="0 0 5800 5800" xmlns:xlink="http://www.w3.org/1999/xlink">
	<title>windows_close icon</title>
	<desc>windows_close icon from the IconExperience.com I-Collection. Copyright by INCORS GmbH (www.incors.com).</desc>
		<path id="curve30"  d="M4400 700l-3800 0c-165,0 -300,135 -300,300l0 300 2200 0 0 -400 2183 0c-42,-116 -153,-200 -283,-200zm-4100 800l0 2800 600 0 0 -2100c0,-275 225,-500 500,-500l1100 0 0 -200 -2200 0z"/>
	<path id="curve29"  d="M2500 1900l-1100 0c-165,0 -300,135 -300,300l0 300 1400 0 0 -600zm-1400 800l0 2803 4400 0 0 -1403 -3000 0 0 -1400 -1400 0z"/>
	<path id="curve28"  d="M5500 1100l0 2800 -2800 0 0 -2800 2800 0zm-2129 529l-142 142 730 729 -730 729 142 142 729 -730 729 730 142 -142 -730 -729 730 -729 -142 -142 -729 730 -729 -730z"/>
</svg>