<?xml version="1.0" encoding="UTF-8"?>
<!DOCTYPE svg PUBLIC "-//W3C//DTD SVG 1.1//EN" "http://www.w3.org/Graphics/SVG/1.1/DTD/svg11.dtd">
<svg xmlns="http://www.w3.org/2000/svg" xml:space="preserve" width="580px" height="580px" shape-rendering="geometricPrecision" text-rendering="geometricPrecision" image-rendering="optimizeQuality" fill-rule="nonzero" clip-rule="nonzero" viewBox="0 0 5800 5800" xmlns:xlink="http://www.w3.org/1999/xlink">
	<title>wine_bottle icon</title>
	<desc>wine_bottle icon from the IconExperience.com I-Collection. Copyright by INCORS GmbH (www.incors.com).</desc>
		<path id="curve28"  d="M3300 700c0,200 0,400 0,600l-800 0 0 -600 -100 0 0 -500c333,0 667,0 1000,0 0,167 0,333 0,500l-100 0zm0 800l0 203c0,78 43,179 125,201 239,61 375,252 375,496l0 3100c-600,0 -1200,0 -1800,0l0 -3100c0,-244 136,-435 375,-496 82,-22 125,-123 125,-201l0 -203 800 0zm100 1100l-1000 0 0 1600 1000 0 0 -1600z"/>
</svg>