<?xml version="1.0" encoding="UTF-8"?>
<!DOCTYPE svg PUBLIC "-//W3C//DTD SVG 1.1//EN" "http://www.w3.org/Graphics/SVG/1.1/DTD/svg11.dtd">
<svg xmlns="http://www.w3.org/2000/svg" xml:space="preserve" width="580px" height="580px" shape-rendering="geometricPrecision" text-rendering="geometricPrecision" image-rendering="optimizeQuality" fill-rule="nonzero" clip-rule="nonzero" viewBox="0 0 5800 5800" xmlns:xlink="http://www.w3.org/1999/xlink">
	<title>wine icon</title>
	<desc>wine icon from the IconExperience.com I-Collection. Copyright by INCORS GmbH (www.incors.com).</desc>
		<path id="curve29" d="M2400 1500l-400 0 0 203c0,170 -103,349 -275,393 -151,40 -225,151 -225,304l0 2900 1400 0 0 -2900c0,-153 -74,-264 -225,-304 -173,-44 -275,-222 -275,-393l0 -203zm200 -800c0,335 0,668 0,1003 0,78 43,179 125,201 239,61 375,252 375,496l0 3100c-600,0 -1200,0 -1800,0l0 -3100c0,-244 136,-435 375,-496 82,-22 125,-123 125,-201l0 -1003 -100 0 0 -500 1000 0 0 500 -100 0 0 0zm-200 600l0 -800 100 0 0 -100 -600 0 0 100 100 0 0 800 400 0zm300 1300l0 1600c-333,0 -667,0 -1000,0l0 -1600 1000 0zm-200 200l-600 0 0 1200 600 0 0 -1200z"/>
	<path id="curve28" d="M3300 3347l0 -847 1800 0 0 847c0,503 -382,953 -900,953 -518,0 -900,-450 -900,-953zm400 1953l400 0 0 -900 200 0 0 900 400 0 0 200c-333,0 -667,0 -1000,0l0 -200zm-200 -2600l0 647c0,393 292,753 700,753 408,0 700,-360 700,-753l0 -647 -1400 0z"/>
</svg>