<?xml version="1.0" encoding="UTF-8"?>
<!DOCTYPE svg PUBLIC "-//W3C//DTD SVG 1.1//EN" "http://www.w3.org/Graphics/SVG/1.1/DTD/svg11.dtd">
<svg xmlns="http://www.w3.org/2000/svg" xml:space="preserve" width="580px" height="580px" shape-rendering="geometricPrecision" text-rendering="geometricPrecision" image-rendering="optimizeQuality" fill-rule="nonzero" clip-rule="nonzero" viewBox="0 0 5800 5800" xmlns:xlink="http://www.w3.org/1999/xlink">
	<title>wine icon</title>
	<desc>wine icon from the IconExperience.com I-Collection. Copyright by INCORS GmbH (www.incors.com).</desc>
		<path id="curve29"  d="M2600 700c0,46 0,341 0,600l-800 0 0 -600 -100 0 0 -500 1000 0 0 500 -100 0zm0 800c0,119 0,203 0,203 0,78 43,179 125,201 239,61 375,252 375,496l0 3100 -1800 0 0 -3100c0,-244 136,-435 375,-496 82,-22 125,-123 125,-201l0 -203 800 0zm-900 1100l0 1600 1000 0 0 -1600 -1000 0z"/>
	<path id="curve28"  d="M3300 3347l0 -847 1800 0 0 847c0,503 -382,953 -900,953 -518,0 -900,-450 -900,-953zm400 1953l400 0 0 -900 200 0 0 900 400 0 0 200 -1000 0 0 -200z"/>
</svg>