<?xml version="1.0" encoding="UTF-8"?>
<!DOCTYPE svg PUBLIC "-//W3C//DTD SVG 1.1//EN" "http://www.w3.org/Graphics/SVG/1.1/DTD/svg11.dtd">
<svg xmlns="http://www.w3.org/2000/svg" xml:space="preserve" width="580px" height="580px" shape-rendering="geometricPrecision" text-rendering="geometricPrecision" image-rendering="optimizeQuality" fill-rule="nonzero" clip-rule="nonzero" viewBox="0 0 5800 5800" xmlns:xlink="http://www.w3.org/1999/xlink">
	<title>wine_glass icon</title>
	<desc>wine_glass icon from the IconExperience.com I-Collection. Copyright by INCORS GmbH (www.incors.com).</desc>
		<path id="curve28"  d="M3050 3500l0 1700 1050 0 0 300 -2400 0 0 -300 1050 0 0 -1700 300 0zm-157 -800l0 200c658,0 1207,-540 1207,-1200l0 -1000 -200 0 0 1000c0,550 -458,1000 -1007,1000zm-1593 -1000l0 -1400 3200 0 0 1400c0,880 -720,1600 -1600,1600 -440,0 -840,-180 -1130,-470 -290,-290 -470,-690 -470,-1130z"/>
</svg>