<?xml version="1.0" encoding="UTF-8"?>
<!DOCTYPE svg PUBLIC "-//W3C//DTD SVG 1.1//EN" "http://www.w3.org/Graphics/SVG/1.1/DTD/svg11.dtd">
<svg xmlns="http://www.w3.org/2000/svg" xml:space="preserve" width="580px" height="580px" shape-rendering="geometricPrecision" text-rendering="geometricPrecision" image-rendering="optimizeQuality" fill-rule="nonzero" clip-rule="nonzero" viewBox="0 0 5800 5800" xmlns:xlink="http://www.w3.org/1999/xlink">
	<title>wine_glass icon</title>
	<desc>wine_glass icon from the IconExperience.com I-Collection. Copyright by INCORS GmbH (www.incors.com).</desc>
		<path id="curve28"  d="M1300 1700l0 -1400 3200 0 0 1400c0,880 -720,1600 -1600,1600 -880,0 -1600,-720 -1600,-1600zm200 -1200l0 1200c0,770 630,1400 1400,1400 770,0 1400,-630 1400,-1400l0 -1200 -2800 0zm1393 2200c549,0 1007,-450 1007,-1000l0 -1000 200 0 0 1000c0,660 -549,1200 -1207,1200l0 -200zm107 800l0 1800 1100 0 0 200 -2400 0 0 -200 1100 0 0 -1800 200 0z"/>
</svg>