<?xml version="1.0" encoding="UTF-8"?>
<!DOCTYPE svg PUBLIC "-//W3C//DTD SVG 1.1//EN" "http://www.w3.org/Graphics/SVG/1.1/DTD/svg11.dtd">
<svg xmlns="http://www.w3.org/2000/svg" xml:space="preserve" width="580px" height="580px" shape-rendering="geometricPrecision" text-rendering="geometricPrecision" image-rendering="optimizeQuality" fill-rule="nonzero" clip-rule="nonzero" viewBox="0 0 5800 5800" xmlns:xlink="http://www.w3.org/1999/xlink">
	<title>wlan_router icon</title>
	<desc>wlan_router icon from the IconExperience.com I-Collection. Copyright by INCORS GmbH (www.incors.com).</desc>
		<path id="curve28" d="M4900 3500c0,133 0,267 0,400l-1000 0c0,-133 0,-267 0,-400l1000 0zm-3000 -400l0 400 200 0 0 -400 200 0 0 400 200 0 0 -400 200 0 0 400 200 0 0 -400 2600 0 0 2000 -4400 0 0 -2000 800 0zm-200 200l-400 0 0 1600 4000 0 0 -1600 -2200 0 0 400 -1400 0 0 -400zm-1200 -2600l0 3510c0,52 52,90 100,90l300 0 0 200 -300 0c-157,0 -300,-128 -300,-290l0 -3510 200 0z"/>
</svg>