<?xml version="1.0" encoding="UTF-8"?>
<!DOCTYPE svg PUBLIC "-//W3C//DTD SVG 1.1//EN" "http://www.w3.org/Graphics/SVG/1.1/DTD/svg11.dtd">
<svg xmlns="http://www.w3.org/2000/svg" xml:space="preserve" width="580px" height="580px" shape-rendering="geometricPrecision" text-rendering="geometricPrecision" image-rendering="optimizeQuality" fill-rule="nonzero" clip-rule="nonzero" viewBox="0 0 5800 5800" xmlns:xlink="http://www.w3.org/1999/xlink">
	<title>wlan_antenna icon</title>
	<desc>wlan_antenna icon from the IconExperience.com I-Collection. Copyright by INCORS GmbH (www.incors.com).</desc>
		<path id="curve28"  d="M3100 2546l0 2954 -400 0 0 -2954c-124,-71 -200,-203 -200,-346 0,-220 180,-400 400,-400 220,0 400,180 400,400 0,143 -76,275 -200,346zm-878 448c-233,-199 -368,-489 -368,-796 0,-306 134,-596 366,-795l194 228c-166,143 -260,347 -260,567 0,220 95,426 263,569l-195 227zm1360 -1593c234,200 368,490 368,797 0,308 -136,599 -371,799l-193 -229c168,-143 264,-349 264,-570 0,-220 -95,-426 -262,-569l194 -228zm-1859 2086c-363,-333 -569,-797 -569,-1289 0,-490 205,-956 566,-1287l203 220c-301,276 -469,659 -469,1067 0,407 170,793 470,1068l-201 221zm2359 -2578c363,332 568,796 568,1289 0,493 -206,959 -571,1291l-201 -221c302,-276 472,-661 472,-1070 0,-407 -170,-794 -470,-1069l202 -220zm-2856 3072c-493,-463 -772,-1107 -772,-1783 0,-677 277,-1317 769,-1781l206 218c-432,407 -675,969 -675,1563 0,596 242,1156 677,1565l-205 218zm3353 -3566c492,463 771,1107 771,1783 0,677 -280,1322 -774,1785l-205 -218c436,-409 679,-970 679,-1567 0,-596 -242,-1157 -676,-1565l205 -218z"/>
</svg>