<?xml version="1.0" encoding="UTF-8"?>
<!DOCTYPE svg PUBLIC "-//W3C//DTD SVG 1.1//EN" "http://www.w3.org/Graphics/SVG/1.1/DTD/svg11.dtd">
<svg xmlns="http://www.w3.org/2000/svg" xml:space="preserve" width="580px" height="580px" shape-rendering="geometricPrecision" text-rendering="geometricPrecision" image-rendering="optimizeQuality" fill-rule="nonzero" clip-rule="nonzero" viewBox="0 0 5800 5800" xmlns:xlink="http://www.w3.org/1999/xlink">
	<title>wlan_antenna icon</title>
	<desc>wlan_antenna icon from the IconExperience.com I-Collection. Copyright by INCORS GmbH (www.incors.com).</desc>
		<path id="curve28"  d="M2900 1900c165,0 300,135 300,300 0,127 -80,241 -200,283l0 3017 -200 0 0 -3017c-120,-42 -200,-156 -200,-283 0,-165 135,-300 300,-300zm-645 1056c-223,-189 -351,-466 -351,-758 0,-291 128,-567 348,-757l130 152c-177,152 -278,371 -278,605 0,234 102,455 280,607l-129 151zm1295 -1517c222,190 350,466 350,759 0,294 -129,571 -353,761l-129 -153c180,-152 282,-373 282,-608 0,-235 -101,-455 -280,-607l130 -152zm-1794 2011c-352,-323 -552,-774 -552,-1252 0,-476 199,-928 550,-1250l135 147c-310,285 -485,681 -485,1103 0,421 176,820 487,1105l-135 147zm2292 -2504c353,322 552,774 552,1252 0,479 -200,932 -554,1254l-135 -147c313,-285 489,-684 489,-1107 0,-422 -175,-821 -486,-1105l134 -147zm-2788 2998c-483,-454 -756,-1084 -756,-1746 0,-663 272,-1290 754,-1745l136 146c-441,416 -690,992 -690,1599 0,609 249,1183 693,1601l-137 145zm3284 -3493c483,454 756,1084 756,1747 0,663 -274,1295 -758,1749l-137 -146c446,-418 695,-993 695,-1603 0,-610 -248,-1184 -692,-1601l136 -146zm-1644 1649c-56,0 -100,44 -100,100 0,55 45,100 100,100 55,0 100,-45 100,-100 0,-56 -44,-100 -100,-100z"/>
</svg>