<?xml version="1.0" encoding="UTF-8"?>
<!DOCTYPE svg PUBLIC "-//W3C//DTD SVG 1.1//EN" "http://www.w3.org/Graphics/SVG/1.1/DTD/svg11.dtd">
<svg xmlns="http://www.w3.org/2000/svg" xml:space="preserve" width="580px" height="580px" shape-rendering="geometricPrecision" text-rendering="geometricPrecision" image-rendering="optimizeQuality" fill-rule="nonzero" clip-rule="nonzero" viewBox="0 0 5800 5800" xmlns:xlink="http://www.w3.org/1999/xlink">
	<title>woman icon</title>
	<desc>woman icon from the IconExperience.com I-Collection. Copyright by INCORS GmbH (www.incors.com).</desc>
	<path id="curve0"  d="M1656 3587c-30,-121 -72,-250 -116,-386 -113,-346 -240,-739 -240,-1201 0,-155 12,-300 34,-433 90,-539 409,-1080 1017,-1080 0,1 106,6 116,8 171,-142 416,-195 633,-195 878,0 1400,902 1400,1700 0,444 -89,708 -187,1000 -57,171 -118,352 -165,589 -168,-82 -598,-268 -644,-454 143,-158 224,-366 281,-568 240,-148 267,-402 194,-653 -635,-127 -893,-265 -1301,-776l-86 -107 -75 114c-98,147 -253,255 -400,358 -118,82 -215,154 -317,256l0 229c-57,218 19,458 215,579 28,99 63,201 108,298 45,98 102,191 173,270 -46,186 -473,371 -640,452zm2571 266c348,205 673,466 673,947 0,228 -252,390 -598,500 -433,136 -1028,200 -1402,200 -374,0 -969,-64 -1402,-200 -346,-110 -598,-272 -598,-500 0,-482 326,-743 674,-948 207,-116 428,-197 628,-331 41,365 180,1579 698,1579 518,0 657,-1214 698,-1579 201,134 422,215 629,332zm-1827 -502c62,-74 100,-157 100,-251l0 -41 -30 -30c-68,-68 -122,-154 -166,-248 -45,-98 -80,-204 -108,-307l-11 -43c-179,-89 -241,-227 -185,-418l0 -171c192,-175 423,-280 603,-482 367,432 662,610 1213,725 17,132 -37,265 -160,326l-41 20c-67,250 -126,441 -315,628 0,122 19,194 100,292 0,358 -96,897 -228,1227 -82,205 -174,322 -272,322 -98,0 -190,-117 -272,-322 -101,-253 -177,-628 -228,-1082l0 -145z"/>
</svg>