<?xml version="1.0" encoding="UTF-8"?>
<!DOCTYPE svg PUBLIC "-//W3C//DTD SVG 1.1//EN" "http://www.w3.org/Graphics/SVG/1.1/DTD/svg11.dtd">
<svg xmlns="http://www.w3.org/2000/svg" xml:space="preserve" width="580px" height="580px" shape-rendering="geometricPrecision" text-rendering="geometricPrecision" image-rendering="optimizeQuality" fill-rule="nonzero" clip-rule="nonzero" viewBox="0 0 5800 5800" xmlns:xlink="http://www.w3.org/1999/xlink">
	<title>woman3 icon</title>
	<desc>woman3 icon from the IconExperience.com I-Collection. Copyright by INCORS GmbH (www.incors.com).</desc>
	<path id="curve0"  d="M3000 4648l0 651c350,-10 821,-70 1169,-186 250,-83 431,-189 431,-313 0,-424 -313,-558 -625,-692 -65,-28 -130,-56 -194,-87 84,175 181,393 117,600 -10,45 -50,79 -98,79 -107,0 -225,-21 -344,-42 -180,-33 -360,-65 -456,-10zm1087 -838c0,-44 -10,-92 -26,-138l-38 -112 117 -18c172,-27 296,-207 224,-372l-30 -69 58 -48c151,-126 109,-248 21,-404l-37 -66 53 -54c160,-160 160,-298 0,-458l-70 -71 70 -71c65,-64 142,-182 26,-240l-89 -44 45 -90c44,-87 35,-238 -28,-321 -13,-18 -28,-31 -44,-39 -27,-14 -62,-16 -108,0l-131 43 0 -138c0,-12 -3,-24 -10,-36 -54,-110 -246,-191 -363,-191 -33,0 -61,5 -82,16l-107 53 -34 -114c-58,-200 -372,-258 -554,-258 -182,0 -496,58 -554,258l-34 114 -107 -53c-38,-19 -84,-28 -130,-28 -72,0 -181,27 -216,98 -6,12 -9,26 -9,41l0 100 -100 0c-124,0 -211,84 -211,207 0,52 18,112 30,163 -41,12 -93,23 -130,40 -84,41 -130,142 -104,232 6,23 25,56 36,79l-50 50c-86,85 -150,168 -159,252 -9,83 33,181 159,306l53 54 -37 66c-88,156 -121,376 32,504l57 48 -30 69c-59,136 17,292 150,350 23,10 48,17 74,22l118 18 -38 112c-16,46 -26,94 -26,138 0,62 12,90 79,90 120,-52 236,-106 331,-175 6,-5 12,-10 19,-14 58,-35 94,-114 116,-203 22,-89 29,-188 31,-269 -73,-80 -131,-174 -177,-274 -45,-97 -80,-199 -108,-298 -92,-57 -158,-140 -195,-234 -45,-113 -50,-242 -16,-361l13 -42 38 -19c108,-54 246,-138 381,-254 101,-87 200,-191 281,-312l76 -114 85 107c319,399 646,457 1033,525 68,13 139,25 209,39l59 12 17 58c35,120 30,248 -15,361 -38,94 -103,177 -196,234 -28,98 -61,198 -106,295 -46,100 -104,195 -178,277 3,82 9,181 30,270 20,87 54,164 113,201 8,4 16,9 22,15 95,69 211,123 331,175 69,0 90,-14 90,-90zm200 0c0,56 -11,111 -35,157 -7,12 -14,24 -23,35 307,143 571,331 571,798 0,229 -239,392 -568,502 -406,135 -961,198 -1332,198 -371,0 -926,-63 -1332,-198 -329,-110 -568,-273 -568,-502 0,-472 269,-658 579,-802 -8,-10 -14,-20 -20,-31 -41,-78 -41,-172 -26,-257 -5,-2 -11,-5 -17,-7 -195,-85 -317,-293 -284,-505 2,-14 5,-27 9,-40 -161,-180 -158,-431 -62,-640 -135,-153 -180,-289 -166,-416 14,-123 81,-228 174,-329 -35,-172 45,-355 203,-437 -1,-10 -1,-20 -1,-29 0,-199 130,-361 326,-399 5,-13 10,-26 16,-38 71,-141 243,-209 394,-209 41,0 82,4 122,14 134,-226 455,-305 703,-305 249,0 572,80 706,309 23,-4 47,-6 71,-6 196,0 462,128 546,312 57,-3 109,9 155,31 46,23 84,57 114,97 92,122 114,304 78,447 6,5 11,10 17,15 99,100 95,235 36,354 -12,24 -26,47 -41,68 162,203 155,421 -11,619 95,195 109,379 -50,544 3,12 5,25 7,38 34,212 -89,420 -283,505 -6,2 -12,5 -18,7 6,33 10,67 10,100zm-1487 1489l0 -650c-92,-48 -273,-18 -455,12 -27,4 -345,53 -345,39 -42,0 -81,-27 -95,-69 -65,-197 8,-420 85,-596 -54,25 -109,49 -165,73 -312,134 -625,268 -625,692 0,124 181,230 431,313 348,116 819,176 1169,186zm-496 -1451c34,228 301,414 488,544 38,27 73,52 104,75 81,-71 165,-132 245,-189 177,-126 333,-238 356,-429 -86,-72 -134,-179 -161,-294 -28,-122 -33,-253 -36,-353l-1 -43 31 -30c70,-69 124,-157 168,-251 45,-97 78,-202 106,-304l11 -43 41 -20c67,-34 114,-89 140,-152 21,-54 28,-114 20,-173 -48,-9 -94,-18 -140,-26 -394,-69 -731,-129 -1070,-500 -74,94 -157,177 -241,249 -131,112 -266,199 -379,258 -11,65 -5,132 19,191 26,64 72,119 139,153l41 20 11 43c28,103 63,209 108,307 44,94 98,180 166,248l30 30 0 41c0,97 -7,230 -37,355 -29,115 -77,222 -159,293zm-121 245c-56,124 -113,275 -103,403 74,-6 153,-19 233,-32 66,-11 132,-22 196,-29 -123,-94 -247,-207 -326,-342zm1093 334c70,8 143,21 215,34 78,14 155,28 227,35 6,-118 -53,-256 -110,-373 -78,120 -200,209 -332,304z"/>
</svg>