<?xml version="1.0" encoding="UTF-8"?>
<!DOCTYPE svg PUBLIC "-//W3C//DTD SVG 1.1//EN" "http://www.w3.org/Graphics/SVG/1.1/DTD/svg11.dtd">
<svg xmlns="http://www.w3.org/2000/svg" xml:space="preserve" width="580px" height="580px" shape-rendering="geometricPrecision" text-rendering="geometricPrecision" image-rendering="optimizeQuality" fill-rule="nonzero" clip-rule="nonzero" viewBox="0 0 5800 5800" xmlns:xlink="http://www.w3.org/1999/xlink">
	<title>woman3 icon</title>
	<desc>woman3 icon from the IconExperience.com I-Collection. Copyright by INCORS GmbH (www.incors.com).</desc>
	<path id="curve0"  d="M1578 3998c173,-81 367,-146 524,-251 -1,17 -2,31 -3,43 -7,34 -35,95 -67,166 -87,194 -203,452 -128,675 14,42 52,69 94,69 107,0 225,-21 344,-42 181,-33 362,-65 458,-9l0 650c67,1 133,1 200,0l0 -651c96,-55 276,-23 456,10 119,21 237,42 344,42 42,0 81,-27 95,-69 74,-223 -42,-481 -129,-675 -32,-71 -60,-132 -67,-166 -1,-12 -1,-27 -1,-43 159,106 357,173 531,255 307,143 571,331 571,798 0,229 -239,392 -568,502 -406,135 -961,198 -1332,198 -371,0 -926,-63 -1332,-198 -329,-110 -568,-273 -568,-502 0,-472 269,-658 578,-802zm727 -151c81,-71 130,-178 158,-292 32,-133 37,-260 37,-396 -187,-185 -249,-381 -315,-628 -151,-75 -229,-188 -199,-364 234,-124 456,-299 620,-507 339,371 676,431 1070,500 46,8 92,17 140,26 8,59 1,119 -20,173 -38,95 -95,129 -181,172 -32,119 -65,235 -117,347 -54,118 -108,192 -199,281 4,133 7,266 37,396 27,113 74,219 157,291 -38,180 -199,304 -376,440 -72,56 -147,114 -218,177 -71,-63 -146,-121 -218,-177 -176,-135 -337,-259 -376,-439zm230 579c-136,-105 -262,-206 -344,-336 -57,129 -118,281 -111,406 152,-14 302,-54 455,-70zm1072 -336c-81,130 -208,231 -344,336 153,16 303,56 456,70 6,-125 -55,-277 -112,-406zm-101 -747c58,196 447,321 626,397 52,23 104,45 155,68 0,-32 -4,-65 -10,-98 105,-41 193,-117 247,-216 57,-102 75,-221 47,-334 67,-69 108,-145 118,-237 11,-89 -11,-189 -68,-307 86,-102 129,-208 129,-316 0,-104 -39,-204 -118,-303 48,-68 85,-152 83,-238 -2,-79 -35,-148 -95,-199 36,-143 14,-325 -78,-447 -65,-86 -160,-134 -269,-128 -1,-3 -3,-7 -4,-10 -43,-85 -129,-162 -229,-216 -97,-52 -211,-86 -313,-86 -24,0 -48,2 -71,6 -134,-229 -457,-309 -706,-309 -248,0 -569,79 -703,305 -115,-28 -243,-15 -349,37 -83,41 -153,107 -183,196 -206,40 -339,220 -325,428 -158,82 -238,265 -203,437 -93,101 -160,206 -174,329 -14,127 31,263 166,416 -54,118 -74,235 -65,340 11,117 55,220 127,300 -29,114 -11,234 45,336 55,99 143,175 247,216 -5,31 -9,63 -9,94 227,-104 715,-255 771,-465 3,-35 4,-69 5,-100 -144,-158 -227,-369 -285,-572 -229,-141 -270,-393 -198,-637 360,-180 552,-364 776,-699 364,456 550,532 1118,632 89,16 178,33 268,51 72,248 48,504 -194,653 -58,204 -140,413 -284,572 1,33 3,68 5,104z"/>
</svg>