<?xml version="1.0" encoding="UTF-8"?>
<!DOCTYPE svg PUBLIC "-//W3C//DTD SVG 1.1//EN" "http://www.w3.org/Graphics/SVG/1.1/DTD/svg11.dtd">
<svg xmlns="http://www.w3.org/2000/svg" xml:space="preserve" width="580px" height="580px" shape-rendering="geometricPrecision" text-rendering="geometricPrecision" image-rendering="optimizeQuality" fill-rule="nonzero" clip-rule="nonzero" viewBox="0 0 5800 5800" xmlns:xlink="http://www.w3.org/1999/xlink">
	<title>woman2 icon</title>
	<desc>woman2 icon from the IconExperience.com I-Collection. Copyright by INCORS GmbH (www.incors.com).</desc>
	<path id="curve0" d="M2134 3725c6,-5 12,-10 19,-14 123,-74 144,-341 147,-472 -144,-158 -227,-369 -285,-572 -201,-124 -275,-373 -211,-595l13 -42c276,-138 526,-325 700,-585l76 -114 85 107c319,399 646,457 1033,525 68,13 139,25 209,39l59 12 17 58c35,120 30,248 -15,361 -38,94 -103,177 -196,234 -58,204 -140,413 -284,572 3,82 9,181 30,270 22,94 47,157 129,211 110,83 251,143 393,204 50,22 101,43 150,66 -21,-128 -20,-288 57,-397 -55,-69 -99,-146 -125,-222 -51,-154 -24,-311 116,-408 -183,-272 -175,-414 -160,-682 4,-77 9,-166 9,-281 0,-777 -224,-1400 -1100,-1400 -146,0 -356,97 -459,200 -267,0 -453,108 -605,328 -146,211 -236,511 -236,872 0,174 0,303 -27,446 -21,113 -60,231 -128,382 171,77 191,260 148,423 -24,94 -73,201 -149,317 113,98 104,261 63,417 46,-21 93,-41 140,-61 139,-59 278,-119 387,-199zm2310 394c205,135 356,328 356,681 0,229 -239,392 -568,502 -406,135 -961,198 -1332,198 -371,0 -926,-63 -1332,-198 -329,-110 -568,-273 -568,-502 0,-350 148,-543 352,-678 13,-35 27,-72 37,-104 45,-133 80,-290 -20,-323l-132 -44 83 -111c97,-129 156,-244 181,-340 26,-102 26,-200 -101,-200l-161 0c94,-190 198,-381 238,-591 23,-122 23,-244 23,-409 0,-402 103,-742 272,-985 174,-252 417,-401 690,-414 124,-101 379,-201 538,-201 993,0 1300,708 1300,1600 0,112 -5,208 -10,292 -14,250 -20,368 190,648l83 111 -132 44c-56,18 -111,51 -119,114 -15,111 86,248 159,320l98 98 -124 62c-105,52 -33,346 -1,430zm-1824 11c90,71 188,147 280,232 88,-80 175,-146 257,-208 138,-105 257,-195 322,-321 -75,-72 -118,-172 -143,-278 -28,-122 -33,-253 -36,-353l-1 -43 31 -30c145,-143 221,-362 274,-555l11 -43 41 -20c67,-34 114,-89 140,-152 21,-54 28,-114 20,-173 -48,-9 -94,-18 -140,-26 -394,-69 -731,-129 -1070,-500 -164,208 -386,383 -620,507 -30,176 48,289 199,364 67,248 128,442 315,628 0,217 -17,525 -189,683 37,75 163,173 309,288zm-124 157c-149,-118 -282,-222 -349,-333 -102,59 -212,107 -322,154 -312,134 -625,268 -625,692 0,124 181,230 431,313 383,128 913,187 1269,187 356,0 886,-59 1269,-187 250,-83 431,-189 431,-313 0,-424 -313,-558 -625,-692 -114,-49 -227,-98 -332,-160 -83,150 -214,250 -366,365 -95,72 -200,151 -306,258 -39,39 -103,39 -142,0 -105,-105 -224,-199 -333,-284z"/>
</svg>