<?xml version="1.0" encoding="UTF-8"?>
<!DOCTYPE svg PUBLIC "-//W3C//DTD SVG 1.1//EN" "http://www.w3.org/Graphics/SVG/1.1/DTD/svg11.dtd">
<svg xmlns="http://www.w3.org/2000/svg" xml:space="preserve" width="580px" height="580px" shape-rendering="geometricPrecision" text-rendering="geometricPrecision" image-rendering="optimizeQuality" fill-rule="nonzero" clip-rule="nonzero" viewBox="0 0 5800 5800" xmlns:xlink="http://www.w3.org/1999/xlink">
	<title>woman icon</title>
	<desc>woman icon from the IconExperience.com I-Collection. Copyright by INCORS GmbH (www.incors.com).</desc>
	<path id="curve0" d="M2351 687c-505,0 -747,475 -820,913 -20,121 -31,254 -31,400 0,432 122,808 230,1140 62,193 120,371 150,542 97,-54 187,-107 260,-162 55,-41 110,-102 130,-168 21,-65 28,-140 30,-213 -73,-80 -131,-174 -177,-274 -45,-97 -80,-199 -108,-298 -196,-121 -272,-361 -215,-579l0 -229c102,-102 199,-174 317,-256 147,-103 302,-211 400,-358l75 -114 86 107c408,511 666,649 1301,776 73,251 46,505 -194,653 -28,98 -61,198 -106,295 -46,100 -104,195 -178,277 3,74 8,149 28,214 23,75 71,123 131,167 75,57 168,111 268,166 51,-316 126,-540 196,-749 93,-275 176,-524 176,-937 0,-422 -138,-795 -357,-1065 -220,-270 -520,-435 -843,-435 -224,0 -404,45 -566,207 -62,-10 -119,-20 -183,-20zm0 -199c39,0 78,2 116,7 171,-142 416,-195 633,-195 385,0 741,193 998,509 247,304 402,722 402,1191 0,444 -89,708 -187,1000 -72,217 -150,449 -198,789 387,216 785,478 785,1011 0,228 -252,390 -598,500 -433,136 -1028,200 -1402,200 -374,0 -969,-64 -1402,-200 -346,-110 -598,-272 -598,-500 0,-536 403,-798 793,-1015 -21,-176 -84,-371 -153,-584 -113,-346 -240,-739 -240,-1201 0,-155 12,-300 34,-433 90,-539 409,-1080 1017,-1079zm54 3049c50,436 125,795 223,1041 82,205 174,322 272,322 98,0 190,-117 272,-322 98,-245 172,-604 223,-1039 -25,-40 -44,-83 -57,-129 -34,-113 -36,-233 -39,-351 91,-89 145,-163 199,-281 45,-97 78,-202 106,-304l11 -43 41 -20c123,-61 177,-194 160,-326 -551,-115 -846,-293 -1213,-725 -109,122 -243,216 -372,306 -83,59 -165,116 -231,176l0 171c-57,194 6,329 185,418 32,120 66,236 119,350 54,116 106,189 196,278 0,120 -2,236 -39,352 -14,44 -32,87 -56,126zm1170 168c-52,388 -125,713 -218,947 -114,286 -266,448 -457,448 -191,0 -343,-162 -457,-448 -93,-234 -166,-559 -218,-947 -101,70 -218,135 -340,201 -367,202 -785,430 -785,894 0,121 193,225 458,309 413,130 982,191 1342,191 360,0 929,-61 1342,-191 265,-84 458,-188 458,-309 0,-464 -418,-692 -785,-894 -122,-66 -239,-131 -340,-201z"/>
</svg>