<?xml version="1.0" encoding="UTF-8"?>
<!DOCTYPE svg PUBLIC "-//W3C//DTD SVG 1.1//EN" "http://www.w3.org/Graphics/SVG/1.1/DTD/svg11.dtd">
<svg xmlns="http://www.w3.org/2000/svg" xml:space="preserve" width="580px" height="580px" shape-rendering="geometricPrecision" text-rendering="geometricPrecision" image-rendering="optimizeQuality" fill-rule="nonzero" clip-rule="nonzero" viewBox="0 0 5800 5800" xmlns:xlink="http://www.w3.org/1999/xlink">
	<title>woman2 icon</title>
	<desc>woman2 icon from the IconExperience.com I-Collection. Copyright by INCORS GmbH (www.incors.com).</desc>
	<path id="curve0"  d="M1207 4240c115,-116 416,-212 672,-291 82,-26 160,-50 232,-75 41,143 200,267 385,413 109,85 228,179 333,284 39,39 103,39 142,0 106,-107 211,-186 306,-258 176,-134 325,-247 403,-443 74,27 156,52 241,79 256,79 560,179 675,294 124,127 204,299 204,557 0,229 -239,392 -568,502 -406,135 -961,198 -1332,198 -371,0 -926,-63 -1332,-198 -329,-110 -568,-273 -568,-502 0,-259 81,-432 207,-560zm1413 -110c-146,-115 -272,-213 -309,-288 78,-71 124,-176 152,-287 32,-132 37,-262 37,-396 -187,-185 -249,-383 -315,-628 -86,-43 -142,-77 -180,-173 -24,-59 -30,-126 -19,-191 234,-124 456,-299 620,-507 339,371 676,431 1070,500 46,8 92,17 140,26 17,131 -37,264 -160,325l-41 20c-67,251 -126,441 -316,628 6,217 12,512 180,674 -65,126 -184,216 -322,321 -82,62 -169,128 -257,208 -92,-85 -190,-161 -280,-232zm943 -522c-49,-108 -58,-252 -62,-369 144,-159 226,-368 284,-572 202,-124 276,-372 211,-595l-17 -58c-90,-18 -179,-35 -268,-51 -387,-68 -714,-126 -1033,-525l-85 -107 -76 114c-174,260 -424,447 -700,585 -71,242 -31,495 198,637 58,203 141,414 285,572 -2,81 -9,180 -31,269 -9,36 -20,70 -35,100 -8,24 -197,83 -414,150 -131,41 -270,84 -396,134 19,-92 14,-174 -55,-197l-132 -44c103,-138 220,-282 264,-451 14,-57 16,-104 6,-139 -15,-50 -60,-61 -107,-61l-161 0c94,-190 198,-381 238,-591 23,-122 23,-244 23,-409 0,-402 103,-742 272,-985 174,-252 417,-401 690,-414 124,-101 379,-201 538,-201 993,0 1300,708 1300,1600 0,112 -5,208 -10,292 -14,250 -20,368 190,648l83 111 -132 44c-56,18 -111,51 -119,114 -4,30 1,64 13,100 24,74 78,153 146,220l98 98 -124 62c-58,29 -56,154 -52,210 -131,-53 -276,-98 -413,-141 -217,-67 -410,-125 -417,-150z"/>
</svg>