<?xml version="1.0" encoding="UTF-8"?>
<!DOCTYPE svg PUBLIC "-//W3C//DTD SVG 1.1//EN" "http://www.w3.org/Graphics/SVG/1.1/DTD/svg11.dtd">
<svg xmlns="http://www.w3.org/2000/svg" xml:space="preserve" width="580px" height="580px" shape-rendering="geometricPrecision" text-rendering="geometricPrecision" image-rendering="optimizeQuality" fill-rule="nonzero" clip-rule="nonzero" viewBox="0 0 5800 5800" xmlns:xlink="http://www.w3.org/1999/xlink">
	<title>wooden_pallet icon</title>
	<desc>wooden_pallet icon from the IconExperience.com I-Collection. Copyright by INCORS GmbH (www.incors.com).</desc>
	<path id="curve0"  d="M4700 500l0 1800 800 0 0 941c-619,620 -1239,1239 -1859,1859l-941 0 0 -800c-467,0 -933,0 -1400,0l0 459 259 -259 282 0 -600 600 -941 0 0 -941 800 -800 0 -1800 1059 -1059 2541 0zm0 2000l0 341 -1059 1059 -400 0 -200 200 518 0 1600 -1600 -459 0zm-1741 1400l-518 0 -200 200 518 0 200 -200zm-800 0l-518 0 -200 200 518 0 200 -200zm-800 0l-259 0 0 -259 -459 459 518 0 200 -200zm-259 1000l0 -600 -600 0 0 600 600 0zm2600 -659l0 518 1600 -1600 0 -518 -1600 1600zm-200 659l0 -600 -600 0 0 600 600 0zm-1200 -2800l0 -400 -1000 0 0 2000 2200 0 0 -2000 -1000 0 0 400 -200 0zm-859 -600l918 0 800 -800 -918 0 -800 800zm2000 -800l-800 800 918 0 800 -800 -918 0zm1059 141l-800 800 0 1918 800 -800 0 -1918z"/>
</svg>