<?xml version="1.0" encoding="UTF-8"?>
<!DOCTYPE svg PUBLIC "-//W3C//DTD SVG 1.1//EN" "http://www.w3.org/Graphics/SVG/1.1/DTD/svg11.dtd">
<svg xmlns="http://www.w3.org/2000/svg" xml:space="preserve" width="580px" height="580px" shape-rendering="geometricPrecision" text-rendering="geometricPrecision" image-rendering="optimizeQuality" fill-rule="nonzero" clip-rule="nonzero" viewBox="0 0 5800 5800" xmlns:xlink="http://www.w3.org/1999/xlink">
	<title>wooden_pallet_empty icon</title>
	<desc>wooden_pallet_empty icon from the IconExperience.com I-Collection. Copyright by INCORS GmbH (www.incors.com).</desc>
	<path id="curve0"  d="M2809 2300l-1800 1800 -650 0 1800 -1800 650 0zm282 0l568 0 -1800 1800 -568 0 1800 -1800zm850 0l568 0 -1800 1800 -568 0 1800 -1800zm850 0l568 0 -1800 1800 -568 0 1800 -1800zm709 141l0 800 -1800 1800 0 -800 1800 -1800zm-2000 2659l-800 0 0 -800 800 0 0 800zm-1659 -600l-541 541 0 -541 541 0zm-741 600l-800 0 0 -800 800 0 0 800z"/>
</svg>