<?xml version="1.0" encoding="UTF-8"?>
<!DOCTYPE svg PUBLIC "-//W3C//DTD SVG 1.1//EN" "http://www.w3.org/Graphics/SVG/1.1/DTD/svg11.dtd">
<svg xmlns="http://www.w3.org/2000/svg" xml:space="preserve" width="580px" height="580px" shape-rendering="geometricPrecision" text-rendering="geometricPrecision" image-rendering="optimizeQuality" fill-rule="nonzero" clip-rule="nonzero" viewBox="0 0 5800 5800" xmlns:xlink="http://www.w3.org/1999/xlink">
	<title>wooden_pallet_empty icon</title>
	<desc>wooden_pallet_empty icon from the IconExperience.com I-Collection. Copyright by INCORS GmbH (www.incors.com).</desc>
	<path id="curve0"  d="M5500 2300l0 941c-620,620 -1239,1239 -1859,1859l-941 0 0 -800c-467,0 -933,0 -1400,0l0 459 259 -259 282 0 -600 600 -941 0 0 -941 1859 -1859 3341 0zm-1659 200l-1600 1600 518 0 1600 -1600 -518 0zm-1882 1600l1600 -1600 -518 0 -1600 1600 518 0zm2682 -1600l-1600 1600 518 0 1600 -1600 -518 0zm-3482 1600l1600 -1600 -518 0 -1600 1600 518 0zm-59 800l0 -600 -600 0 0 600 600 0zm2600 -659l0 518 1600 -1600 0 -518 -1600 1600zm-200 659l0 -600 -600 0 0 600 600 0z"/>
</svg>