<?xml version="1.0" encoding="UTF-8"?>
<!DOCTYPE svg PUBLIC "-//W3C//DTD SVG 1.1//EN" "http://www.w3.org/Graphics/SVG/1.1/DTD/svg11.dtd">
<svg xmlns="http://www.w3.org/2000/svg" xml:space="preserve" width="580px" height="580px" shape-rendering="geometricPrecision" text-rendering="geometricPrecision" image-rendering="optimizeQuality" fill-rule="nonzero" clip-rule="nonzero" viewBox="0 0 5800 5800" xmlns:xlink="http://www.w3.org/1999/xlink">
	<title>workstation_network icon</title>
	<desc>workstation_network icon from the IconExperience.com I-Collection. Copyright by INCORS GmbH (www.incors.com).</desc>
	<path id="curve0" d="M4100 3900l0 -3400 1200 0 0 3400 200 0 0 600 -700 0 0 600 100 0 0 100 800 0 0 200 -800 0 0 100c-133,0 -267,0 -400,0l0 -100 -800 0 0 -200 800 0 0 -100 100 0 0 -600 -700 0 0 -600 200 0zm200 0l800 0 0 -3200 -800 0 0 3200zm-400 -3400l0 2800 -3600 0 0 -2800 3600 0zm-200 200l-3200 0 0 2400 3200 0 0 -2400zm-1500 2800l0 800 900 0 0 200 -2000 0 0 -200 900 0 0 -800 200 0zm2500 -2400c110,0 200,90 200,200 0,110 -90,200 -200,200 -110,0 -200,-90 -200,-200 0,-110 90,-200 200,-200zm600 3000l-1200 0 0 200 1200 0 0 -200z"/>
</svg>