<?xml version="1.0" encoding="UTF-8"?>
<!DOCTYPE svg PUBLIC "-//W3C//DTD SVG 1.1//EN" "http://www.w3.org/Graphics/SVG/1.1/DTD/svg11.dtd">
<svg xmlns="http://www.w3.org/2000/svg" xml:space="preserve" width="580px" height="580px" shape-rendering="geometricPrecision" text-rendering="geometricPrecision" image-rendering="optimizeQuality" fill-rule="nonzero" clip-rule="nonzero" viewBox="0 0 5800 5800" xmlns:xlink="http://www.w3.org/1999/xlink">
	<title>worker2 icon</title>
	<desc>worker2 icon from the IconExperience.com I-Collection. Copyright by INCORS GmbH (www.incors.com).</desc>
	<path id="curve0"  d="M4271 1871l-76 75 -33 312c29,115 23,242 -20,353 -37,98 -101,185 -193,243 -5,17 -7,27 -10,37 -49,191 -102,393 -238,547 2,65 8,116 24,155 31,73 132,125 199,166 48,29 82,49 115,65 62,30 141,57 207,81 67,25 176,83 279,147 99,60 194,127 245,177 241,234 226,542 230,851 0,225 -254,370 -605,461 -476,124 -1005,158 -1495,159 -482,-1 -1029,-38 -1495,-159 -351,-91 -605,-236 -605,-461l0 -31c0,-293 0,-597 230,-820 51,-50 146,-117 245,-177 122,-76 223,-126 348,-172 138,-52 208,-106 331,-169 121,-70 142,-139 146,-272 -144,-164 -194,-380 -249,-585 -195,-123 -267,-379 -213,-596l-33 -312 -76 -75c-33,-34 -38,-85 -14,-124l85 -170c7,-605 300,-1085 908,-1232 10,-21 26,-39 46,-49 105,-64 226,-96 346,-96 123,0 247,33 353,100 18,11 31,27 38,45 609,147 902,627 909,1232l89 178c20,40 11,86 -18,116zm-571 2029c-189,252 -484,400 -800,400 -316,0 -611,-148 -800,-401l0 801 1600 0 0 -800zm-170 -571c121,-119 170,-309 216,-488 9,-36 19,-71 21,-79 8,-30 29,-53 56,-65 63,-33 108,-90 133,-156 29,-78 32,-168 9,-247 -4,-13 -5,-26 -3,-39l9 -84 -200 200c-20,19 -45,29 -71,29l-1600 0c-28,0 -54,-12 -72,-30l-199 -199 9 84c2,15 0,30 -4,43 -40,143 6,331 147,400 27,14 45,37 52,64l19 72c48,183 99,377 218,495 20,19 30,45 30,71 0,117 -9,230 -75,331 148,230 401,369 675,369 274,0 526,-139 674,-368 -13,-20 -23,-40 -32,-61 -34,-80 -39,-163 -42,-269 0,-28 11,-54 30,-73zm-1730 -1729c0,15 -4,30 -11,45l-68 135 420 420 1518 0 420 -420 -64 -127c-9,-15 -15,-34 -15,-53 0,-495 -205,-902 -700,-1047l0 547 -200 0 0 -656c-62,-29 -131,-44 -200,-44 -69,0 -138,15 -200,44l0 656 -200 0 0 -547c-495,146 -700,553 -700,1047zm2500 2551l0 1209c120,-29 500,-125 500,-280 3,-233 10,-534 -170,-709 -40,-39 -122,-96 -210,-150 -40,-25 -82,-49 -120,-70zm-2799 1209l0 -1209c-38,20 -80,45 -121,70 -88,54 -170,111 -210,150 -171,166 -171,427 -170,678l0 31c0,155 380,251 501,280z"/>
</svg>