<?xml version="1.0" encoding="UTF-8"?>
<!DOCTYPE svg PUBLIC "-//W3C//DTD SVG 1.1//EN" "http://www.w3.org/Graphics/SVG/1.1/DTD/svg11.dtd">
<svg xmlns="http://www.w3.org/2000/svg" xml:space="preserve" width="580px" height="580px" shape-rendering="geometricPrecision" text-rendering="geometricPrecision" image-rendering="optimizeQuality" fill-rule="nonzero" clip-rule="nonzero" viewBox="0 0 5800 5800" xmlns:xlink="http://www.w3.org/1999/xlink">
	<title>worker icon</title>
	<desc>worker icon from the IconExperience.com I-Collection. Copyright by INCORS GmbH (www.incors.com).</desc>
		<path id="curve28" d="M4100 5401l0 -1336c-59,-23 -101,-39 -144,-60 -38,-18 -73,-38 -118,-64 -96,170 -210,322 -342,455 -143,143 -309,264 -496,364l0 739c306,-5 733,-31 1100,-98zm-2300 -3801c0,15 -4,30 -11,45l-68 135 420 420 1518 0 420 -420 -64 -127c-9,-15 -15,-34 -15,-53 0,-495 -205,-902 -700,-1047l0 547 -200 0 0 -656c-62,-29 -131,-44 -200,-44 -69,0 -138,15 -200,44l0 656 -200 0 0 -547c-495,146 -700,553 -700,1047zm147 2115c71,-40 108,-79 127,-123 18,-41 24,-91 26,-153 -136,-154 -190,-360 -241,-555 -1,-6 -3,-14 -8,-30 -92,-58 -156,-145 -193,-243 -42,-111 -49,-239 -20,-353l-33 -312 -76 -75c-33,-34 -38,-85 -14,-124l85 -170c7,-605 300,-1085 908,-1232 10,-21 26,-39 46,-49 105,-64 226,-96 346,-96 123,0 247,33 353,100 18,11 31,27 38,45 609,147 902,627 909,1232l89 178c20,40 11,86 -19,115l-75 76 -33 312c55,218 -17,473 -213,596 -5,17 -7,27 -10,37 -49,191 -102,393 -238,547 2,65 8,116 24,155 26,60 75,90 128,122 92,57 141,87 189,110 47,23 102,43 204,80 67,25 176,83 279,147 99,60 194,127 245,177 230,224 230,527 230,820l0 31c0,225 -254,370 -605,461 -465,121 -1113,159 -1495,159 -382,0 -1030,-38 -1495,-159 -351,-91 -605,-236 -605,-461 0,-306 -7,-621 230,-851 51,-50 146,-117 245,-177 103,-64 212,-122 279,-147 102,-37 157,-57 204,-80 47,-22 96,-52 189,-110zm1583 -386c121,-119 170,-309 216,-488 9,-36 19,-71 21,-79 8,-30 29,-53 56,-65 141,-73 184,-260 142,-403 -4,-13 -5,-26 -3,-39l9 -84 -200 200c-20,19 -45,29 -71,29l-1600 0c-28,0 -54,-12 -72,-30l-199 -199 9 84c2,15 0,30 -4,43 -22,78 -18,166 11,243 25,67 71,125 136,157 27,14 45,37 52,64l19 72c48,183 99,377 218,495 20,19 30,45 30,71 0,104 -8,191 -43,271 -26,61 -66,114 -127,162 87,158 193,298 316,421 131,132 283,243 454,334 171,-91 323,-202 454,-334 123,-123 229,-263 316,-421 -63,-49 -103,-101 -128,-162 -34,-80 -39,-163 -42,-269 0,-28 11,-54 30,-73zm770 822l0 1209c15,-4 30,-8 45,-12 264,-68 455,-157 455,-268l0 -31c1,-251 1,-512 -170,-678 -40,-39 -122,-96 -210,-150 -41,-25 -82,-49 -120,-70zm-2338 -210c-45,26 -80,46 -118,64 -43,21 -85,37 -144,60l0 1336c367,67 794,93 1100,98l0 -739c-187,-100 -353,-221 -496,-364 -132,-133 -247,-285 -342,-455zm-462 210c-38,21 -79,45 -120,70 -88,54 -170,111 -210,150 -180,175 -173,476 -170,709 0,111 191,200 455,268 15,4 30,8 45,12l0 -1209z"/>
</svg>