<?xml version="1.0" encoding="UTF-8"?>
<!DOCTYPE svg PUBLIC "-//W3C//DTD SVG 1.1//EN" "http://www.w3.org/Graphics/SVG/1.1/DTD/svg11.dtd">
<svg xmlns="http://www.w3.org/2000/svg" xml:space="preserve" width="580px" height="580px" shape-rendering="geometricPrecision" text-rendering="geometricPrecision" image-rendering="optimizeQuality" fill-rule="nonzero" clip-rule="nonzero" viewBox="0 0 5800 5800" xmlns:xlink="http://www.w3.org/1999/xlink">
	<title>workstation icon</title>
	<desc>workstation icon from the IconExperience.com I-Collection. Copyright by INCORS GmbH (www.incors.com).</desc>
		<path id="curve29"  d="M4300 4900l0 -3400 1200 0 0 3400 200 0 0 600c-533,0 -1067,0 -1600,0l0 -600 200 0zm200 0l800 0 0 -3200 -800 0 0 3200zm400 -2800c110,0 200,90 200,200 0,110 -90,200 -200,200 -110,0 -200,-90 -200,-200 0,-110 90,-200 200,-200zm600 3000c-400,0 -800,0 -1200,0l0 200 1200 0 0 -200z"/>
	<path id="curve28"  d="M1200 5300l900 0 0 -800 200 0 0 800 900 0 0 200 -2000 0 0 -200zm2900 -4000l0 3000 -3800 0 0 -3000 3800 0zm-200 200l-3400 0 0 2600 3400 0 0 -2600z"/>
</svg>