<?xml version="1.0" encoding="UTF-8"?>
<!DOCTYPE svg PUBLIC "-//W3C//DTD SVG 1.1//EN" "http://www.w3.org/Graphics/SVG/1.1/DTD/svg11.dtd">
<svg xmlns="http://www.w3.org/2000/svg" xml:space="preserve" width="580px" height="580px" shape-rendering="geometricPrecision" text-rendering="geometricPrecision" image-rendering="optimizeQuality" fill-rule="nonzero" clip-rule="nonzero" viewBox="0 0 5800 5800" xmlns:xlink="http://www.w3.org/1999/xlink">
	<title>workstation icon</title>
	<desc>workstation icon from the IconExperience.com I-Collection. Copyright by INCORS GmbH (www.incors.com).</desc>
		<path id="curve29"  d="M5700 4900c0,200 0,400 0,600 -533,0 -1067,0 -1600,0 0,-200 0,-400 0,-600 533,0 1067,0 1600,0zm-1400 -100l0 -3300c400,0 800,0 1200,0l0 3300 -1200 0zm600 -2700c-110,0 -200,90 -200,200 0,110 90,200 200,200 110,0 200,-90 200,-200 0,-110 -90,-200 -200,-200z"/>
	<path id="curve28"  d="M4100 1300l0 3000 -3800 0 0 -3000 3800 0zm-2900 4000l900 0 0 -800 200 0 0 800 900 0 0 200 -2000 0 0 -200z"/>
</svg>