<?xml version="1.0" encoding="UTF-8"?>
<!DOCTYPE svg PUBLIC "-//W3C//DTD SVG 1.1//EN" "http://www.w3.org/Graphics/SVG/1.1/DTD/svg11.dtd">
<svg xmlns="http://www.w3.org/2000/svg" xml:space="preserve" width="580px" height="580px" shape-rendering="geometricPrecision" text-rendering="geometricPrecision" image-rendering="optimizeQuality" fill-rule="nonzero" clip-rule="nonzero" viewBox="0 0 5800 5800" xmlns:xlink="http://www.w3.org/1999/xlink">
	<title>workstation_network icon</title>
	<desc>workstation_network icon from the IconExperience.com I-Collection. Copyright by INCORS GmbH (www.incors.com).</desc>
	<path id="curve0"  d="M4800 4500l0 600 100 0 0 100 800 0 0 200 -800 0 0 100c-133,0 -267,0 -400,0l0 -100 -800 0 0 -200 800 0 0 -100 100 0 0 -600 -700 0c0,-200 0,-400 0,-600l1600 0c0,200 0,400 0,600l-700 0zm-700 -700l0 -3300 1200 0 0 3300 -1200 0zm600 -2700c-110,0 -200,90 -200,200 0,110 90,200 200,200 110,0 200,-90 200,-200 0,-110 -90,-200 -200,-200zm-3600 3200l900 0 0 -800 200 0 0 800 900 0 0 200 -2000 0 0 -200zm2800 -3800l0 2800 -3600 0 0 -2800 3600 0z"/>
</svg>