<?xml version="1.0" encoding="UTF-8"?>
<!DOCTYPE svg PUBLIC "-//W3C//DTD SVG 1.1//EN" "http://www.w3.org/Graphics/SVG/1.1/DTD/svg11.dtd">
<svg xmlns="http://www.w3.org/2000/svg" xml:space="preserve" width="580px" height="580px" shape-rendering="geometricPrecision" text-rendering="geometricPrecision" image-rendering="optimizeQuality" fill-rule="nonzero" clip-rule="nonzero" viewBox="0 0 5800 5800" xmlns:xlink="http://www.w3.org/1999/xlink">
	<title>worker icon</title>
	<desc>worker icon from the IconExperience.com I-Collection. Copyright by INCORS GmbH (www.incors.com).</desc>
		<path id="curve28"  d="M2700 230c65,-20 133,-30 200,-30 68,0 136,10 201,30l-1 870 200 0 0 -753c266,66 488,202 646,408 158,206 250,480 254,822l89 178c20,40 11,86 -19,115l-499 501c-20,19 -45,29 -71,29l-1600 0c-28,0 -54,-12 -72,-30l-499 -499c-33,-34 -38,-85 -14,-124l85 -170c4,-342 96,-616 254,-822 158,-206 380,-342 646,-408l0 753 200 0 0 -870zm1400 5171l0 -1336c-96,-36 -174,-72 -262,-124 -96,170 -210,322 -342,455 -143,143 -309,264 -496,364l0 739c306,-5 733,-31 1100,-98zm-2138 -1460c-88,52 -166,88 -262,124l0 1336c367,67 794,93 1100,98l0 -739c-187,-100 -353,-221 -496,-364 -132,-133 -247,-285 -342,-455zm2201 -1680c28,114 21,240 -21,350 -37,98 -101,185 -193,243 -55,207 -102,419 -248,584 2,65 8,116 24,155 36,86 232,191 317,232 176,84 303,116 483,227 99,60 194,127 245,177 230,224 230,527 230,820l0 31c0,225 -254,370 -605,461 -465,121 -1113,159 -1495,159 -382,0 -1030,-38 -1495,-159 -351,-91 -605,-236 -605,-461l0 -31c0,-293 0,-597 230,-820 51,-50 146,-117 245,-177 180,-111 307,-143 483,-227 83,-40 277,-143 316,-233 18,-41 24,-91 26,-153 -144,-164 -194,-380 -249,-585 -92,-58 -156,-145 -193,-243 -42,-110 -48,-236 -21,-349l250 249c54,56 132,89 213,89l1600 0c80,0 156,-32 212,-88l251 -251z"/>
</svg>