<?xml version="1.0" encoding="utf-8"?>
<!-- Generator: Adobe Illustrator 23.0.3, SVG Export Plug-In . SVG Version: 6.00 Build 0)  -->
<svg version="1.1" id="Ebene_1" xmlns="http://www.w3.org/2000/svg" xmlns:xlink="http://www.w3.org/1999/xlink" x="0px" y="0px"
	 viewBox="0 0 580 580" style="enable-background:new 0 0 580 580;" xml:space="preserve">
<g>
	<path d="M369,37.6l-160,0c-5.5,0-10,4.5-10,10v120c0,5.5,4.5,10,10,10l160,0c5.5,0,10-4.5,10-10v-120C379,42.1,374.5,37.6,369,37.6
		z M359,157.6l-140,0v-100l140,0V157.6z"/>
	<path d="M369,221.6l-160,0c-5.5,0-10,4.5-10,10v120c0,5.5,4.5,10,10,10l160,0c5.5,0,10-4.5,10-10v-120
		C379,226.1,374.5,221.6,369,221.6z M359,341.6l-140,0v-100l140,0V341.6z"/>
	<path d="M369,402.4l-160,0c-5.5,0-10,4.5-10,10v120c0,5.5,4.5,10,10,10l160,0c5.5,0,10-4.5,10-10v-120
		C379,406.9,374.5,402.4,369,402.4z M359,522.4l-140,0v-100l140,0V522.4z"/>
	<polygon points="107.4,429.9 140.5,462.4 58.9,462.4 58.9,300 148.9,300 148.9,280 38.9,280 38.9,482.4 140.6,482.4 140.6,482.6 
		108.1,515.7 122.3,529.7 178.9,472.3 121.5,415.7 	"/>
	<polygon points="540.2,97.3 430.2,97.3 430.2,117.3 520.2,117.3 520.2,279.8 437.5,279.8 470.5,247.2 456.5,233 399,289.6 
		455.7,347.1 469.9,333 437.3,300 437.3,299.8 540.2,299.8 	"/>
</g>
</svg>
