<?xml version="1.0" encoding="UTF-8"?>
<!DOCTYPE svg PUBLIC "-//W3C//DTD SVG 1.1//EN" "http://www.w3.org/Graphics/SVG/1.1/DTD/svg11.dtd">
<svg xmlns="http://www.w3.org/2000/svg" xml:space="preserve" width="580px" height="580px" shape-rendering="geometricPrecision" text-rendering="geometricPrecision" image-rendering="optimizeQuality" fill-rule="nonzero" clip-rule="nonzero" viewBox="0 0 5800 5800" xmlns:xlink="http://www.w3.org/1999/xlink">
	<title>workplace icon</title>
	<desc>workplace icon from the IconExperience.com I-Collection. Copyright by INCORS GmbH (www.incors.com).</desc>
		<path id="curve29"  d="M501 5199l555 -950c54,-93 151,-149 259,-149l3170 0c108,0 205,56 259,149l555 950c36,62 36,138 0,200 -36,63 -101,101 -173,101l-4452 0c-72,0 -137,-38 -173,-101 -36,-62 -36,-138 0,-200zm2499 -1899l0 400 900 0 0 200 -2000 0 0 -200 900 0 0 -400 -2100 0 0 -3000 4400 0 0 3000 -2100 0zm-1800 1600l0 200 500 0 0 -200 -500 0zm2900 0l0 200 500 0 0 -200 -500 0zm-2700 -400l0 200 400 0 0 -200 -400 0zm600 0l0 200 200 0 0 -200 -200 0zm400 0l0 200 200 0 0 -200 -200 0zm400 0l0 200 200 0 0 -200 -200 0zm400 0l0 200 200 0 0 -200 -200 0zm400 0l0 200 200 0 0 -200 -200 0zm400 0l0 200 400 0 0 -200 -400 0zm-2100 400l0 200 2000 0 0 -200 -2000 0z"/>
</svg>