<?xml version="1.0" encoding="UTF-8"?>
<!DOCTYPE svg PUBLIC "-//W3C//DTD SVG 1.1//EN" "http://www.w3.org/Graphics/SVG/1.1/DTD/svg11.dtd">
<svg xmlns="http://www.w3.org/2000/svg" xml:space="preserve" width="580px" height="580px" shape-rendering="geometricPrecision" text-rendering="geometricPrecision" image-rendering="optimizeQuality" fill-rule="nonzero" clip-rule="nonzero" viewBox="0 0 5800 5800" xmlns:xlink="http://www.w3.org/1999/xlink">
	<title>worker2 icon</title>
	<desc>worker2 icon from the IconExperience.com I-Collection. Copyright by INCORS GmbH (www.incors.com).</desc>
	<path id="curve0"  d="M2700 230c65,-20 133,-30 200,-30 68,0 136,10 201,30l-1 870 200 0 0 -753c266,66 488,202 646,408 158,206 250,480 254,822l89 178c20,40 11,86 -19,115l-499 501c-20,19 -45,29 -71,29l-1600 0c-28,0 -54,-12 -72,-30l-499 -499c-33,-34 -38,-85 -14,-124l85 -170c4,-342 96,-616 254,-822 158,-206 380,-342 646,-408l0 753 200 0 0 -870zm-622 3639c-9,6 -18,12 -28,18 -156,97 -255,143 -427,206 -31,11 -74,32 -122,58l0 1209c440,106 1040,140 1399,140 359,0 959,-34 1400,-140l0 -1209c-48,-26 -92,-47 -123,-58 -104,-38 -161,-59 -221,-88 -75,-36 -161,-87 -234,-135 45,-66 68,-105 91,-181 6,5 12,9 17,13 68,42 140,89 212,123 47,23 102,43 204,80 67,25 176,83 279,147 99,60 194,127 245,177 230,224 230,527 230,820l0 31c0,225 -254,370 -605,461 -465,121 -1113,159 -1495,159 -382,0 -1030,-38 -1495,-159 -351,-91 -605,-236 -605,-461l0 -31c0,-514 35,-727 475,-997 103,-64 212,-122 279,-147 171,-62 258,-105 414,-202 6,-5 12,-9 18,-14 20,66 53,123 92,180zm1622 31l0 800 -1600 0 0 -801c189,253 484,401 800,401 316,0 611,-148 800,-400zm1 -462c0,9 1,18 1,27l-68 154c-127,292 -415,481 -734,481 -319,0 -608,-189 -734,-481l-67 -164c0,-5 0,-11 1,-16 -144,-164 -194,-380 -249,-585 -92,-58 -156,-145 -193,-243 -42,-110 -48,-236 -21,-349l250 249c54,56 132,89 213,89l1600 0c80,0 156,-32 212,-88l251 -251c28,114 21,240 -21,350 -37,98 -101,185 -193,243 -55,207 -102,419 -248,584z"/>
</svg>