<?xml version="1.0" encoding="utf-8"?>
<!-- Generator: Adobe Illustrator 19.2.1, SVG Export Plug-In . SVG Version: 6.00 Build 0)  -->
<svg version="1.1" id="Ebene_1" xmlns="http://www.w3.org/2000/svg" xmlns:xlink="http://www.w3.org/1999/xlink" x="0px" y="0px"
	 width="580px" height="580px" viewBox="0 0 580 580" style="enable-background:new 0 0 580 580;" xml:space="preserve">
<g>
	<rect x="111" y="333" width="54" height="54"/>
	<rect x="111" y="420" width="54" height="54"/>
	<rect x="111" y="246" width="54" height="53"/>
	<polygon points="408,171.1 456,131.1 408,91.1 	"/>
	<polygon points="172,171.1 172,91.1 124,131.1 	"/>
	<path d="M90,210h400h20V50H70v480h113v-20H90V210z M90,70h400v120H90V70z"/>
	<path d="M223,249v313h320V249H223z M523,542H243V269h280V542z"/>
	<path d="M418.6,484.4c11.6-10.5,17.4-24.4,17.4-41.7c0-16.5-5.1-29.5-15.2-39.1c-10.1-9.5-24.5-14.3-43-14.3
		c-4.6,0-9.6,0.1-15.3,0.5l2.9-43.8H428v-24h-86.1l-6.2,92c14.4-1,24-1.5,28.7-1.5c13.8,0,24.3,2.8,31.7,8.3
		c7.4,5.5,11,13.3,11,23.2c0,10.1-3.6,18.2-10.9,24.2c-7.2,6.1-16.6,9.1-28.5,9.1c-11.8,0-23.7-3.9-34.7-11.6v27.2
		c8,4.8,20.9,7.2,38,7.2C391.3,500.1,407,494.9,418.6,484.4z"/>
</g>
</svg>
