<?xml version="1.0" encoding="UTF-8"?>
<!DOCTYPE svg PUBLIC "-//W3C//DTD SVG 1.1//EN" "http://www.w3.org/Graphics/SVG/1.1/DTD/svg11.dtd">
<svg xmlns="http://www.w3.org/2000/svg" xml:space="preserve" width="580px" height="580px" shape-rendering="geometricPrecision" text-rendering="geometricPrecision" image-rendering="optimizeQuality" fill-rule="nonzero" clip-rule="nonzero" viewBox="0 0 5800 5800" xmlns:xlink="http://www.w3.org/1999/xlink">
	<title>worm icon</title>
	<desc>worm icon from the IconExperience.com I-Collection. Copyright by INCORS GmbH (www.incors.com).</desc>
	<path id="curve0"  d="M1026 1042c-161,-34 -276,-177 -276,-342 0,-193 157,-350 350,-350 76,0 147,25 205,66 -186,76 -308,256 -308,458 0,59 10,116 29,168zm3962 3414c-248,0 -450,201 -450,450 0,248 202,450 450,450 249,0 450,-202 450,-450 0,-249 -201,-450 -450,-450zm-211 958c-57,24 -120,38 -186,38 -260,0 -471,-211 -471,-472 0,-266 221,-479 487,-471 -108,104 -169,246 -169,397 0,222 134,423 339,508zm-626 -69c-261,-14 -466,-231 -466,-493 0,-272 221,-492 493,-492 93,0 181,26 255,71 -165,48 -301,168 -368,327 -83,195 -49,423 86,587zm-504 -229c-226,-59 -385,-263 -385,-498 0,-284 230,-514 514,-514 142,0 271,56 370,156 -151,8 -287,73 -387,173 -180,180 -225,456 -112,683zm-398 -182c-262,-38 -456,-264 -456,-530 0,-296 239,-535 535,-535 140,0 267,53 363,141 -214,30 -397,171 -481,369 -76,179 -61,388 39,555zm-227 28c-209,93 -457,47 -620,-116 -100,-101 -163,-240 -163,-394 0,-361 340,-626 689,-541 -149,121 -235,301 -235,493 0,233 126,446 329,558zm-418 119c-99,80 -226,128 -364,128 -319,0 -578,-259 -578,-578 0,-333 280,-597 612,-578 -84,111 -135,249 -135,399 0,289 190,544 465,629zm-786 81c-220,84 -471,30 -637,-137 -233,-233 -233,-615 0,-848 181,-182 459,-227 689,-115 -192,126 -308,339 -308,569 0,208 94,402 256,531zm-798 -176c-174,-138 -319,-306 -429,-494 -286,-490 -319,-1099 -86,-1616 100,-225 249,-428 438,-597 98,-87 250,-24 261,104 26,292 209,549 477,668 95,42 123,162 58,243 -124,153 -143,368 -48,540 15,29 34,56 56,81 -231,-47 -470,24 -637,191 -234,234 -272,604 -90,880zm179 -2798c224,-218 586,-216 808,5 223,224 223,590 0,814 -43,42 -92,78 -147,106 -23,-69 -72,-124 -139,-153 -235,-104 -395,-330 -417,-586 -7,-75 -45,-142 -105,-186zm574 -241c100,-77 225,-123 362,-123 327,0 592,266 592,593 0,327 -264,592 -591,593 87,-114 139,-256 139,-410 0,-307 -207,-575 -502,-653zm707 -130c400,-151 826,148 826,571 0,399 -379,693 -766,591 180,-130 287,-338 287,-562 0,-248 -132,-476 -347,-600zm636 -2c393,-86 764,214 764,614 0,444 -446,743 -853,588 233,-123 379,-364 379,-629 0,-227 -108,-439 -290,-573zm556 20c402,-82 776,225 776,633 0,450 -447,757 -863,609 242,-125 395,-374 395,-648 0,-237 -115,-458 -308,-594zm419 -55c246,-100 531,-42 719,146 120,120 195,286 195,470 0,399 -349,706 -743,660 181,-142 286,-358 286,-588 0,-301 -181,-572 -457,-688zm50 -122c126,-195 341,-313 574,-313 376,0 682,305 682,682 0,236 -122,454 -322,579 76,-266 2,-554 -194,-751 -194,-193 -477,-268 -740,-197zm-40 -116c-23,-402 295,-742 699,-742 387,0 700,313 700,700 0,92 -18,180 -50,260 -112,-308 -406,-515 -735,-515 -240,0 -465,109 -614,297zm-101 -26c-129,-124 -201,-294 -201,-473 0,-363 293,-656 656,-656 243,0 466,134 580,348 -283,-86 -591,-10 -801,199 -154,155 -238,364 -234,582zm-122 15c-332,-9 -595,-280 -595,-612 0,-338 274,-612 612,-612 86,0 168,17 242,49 -267,124 -438,391 -438,687 0,186 67,357 179,488zm-423 -52c-34,7 -70,10 -105,10 -314,0 -569,-255 -569,-569 0,-314 255,-569 569,-569 35,0 69,4 103,10 -171,135 -271,340 -271,558 0,220 101,425 273,560zm-465 5c-49,15 -101,23 -155,23 -290,0 -525,-235 -525,-525 0,-302 255,-542 556,-524 -115,120 -185,283 -185,462 0,230 117,441 309,564zm-454 47c-57,24 -119,37 -184,37 -266,0 -481,-216 -481,-482 0,-259 206,-472 465,-481 -79,105 -126,236 -126,377 0,230 125,440 326,549zm-577 -16c-23,4 -46,6 -70,6 -242,0 -438,-196 -438,-438 0,-242 196,-437 438,-437 26,0 52,2 77,6 -125,111 -195,268 -195,434 0,164 68,318 188,429zm-581 -264c-166,-49 -281,-203 -281,-377 0,-218 176,-394 393,-394 94,0 180,33 247,87 -228,67 -386,277 -386,516 0,59 10,115 27,168z"/>
</svg>