<?xml version="1.0" encoding="UTF-8"?>
<!DOCTYPE svg PUBLIC "-//W3C//DTD SVG 1.1//EN" "http://www.w3.org/Graphics/SVG/1.1/DTD/svg11.dtd">
<svg xmlns="http://www.w3.org/2000/svg" xml:space="preserve" width="580px" height="580px" shape-rendering="geometricPrecision" text-rendering="geometricPrecision" image-rendering="optimizeQuality" fill-rule="nonzero" clip-rule="nonzero" viewBox="0 0 5800 5800" xmlns:xlink="http://www.w3.org/1999/xlink">
	<title>worm icon</title>
	<desc>worm icon from the IconExperience.com I-Collection. Copyright by INCORS GmbH (www.incors.com).</desc>
	<path id="curve0"  d="M4988 4406c276,0 500,223 500,500 0,276 -224,500 -500,500 -29,0 -57,-3 -85,-8 -189,141 -452,137 -636,-10 -199,33 -399,-46 -521,-206 -152,-8 -294,-78 -395,-192 -74,2 -147,-8 -217,-33 -126,84 -279,118 -428,96 -200,221 -531,271 -788,118 -168,92 -372,105 -551,35 -49,10 -98,2 -141,-23 -573,-323 -926,-926 -926,-1583 0,-264 57,-516 159,-743 106,-237 261,-446 451,-615 58,-51 135,-66 208,-40 134,-162 338,-245 547,-224 122,-130 291,-204 470,-204 80,0 158,15 229,43 193,-112 434,-119 633,-17 177,-71 380,-65 551,19 131,-51 277,-61 414,-29 24,-15 49,-29 75,-41 10,-25 22,-48 34,-72 -4,-15 -7,-32 -10,-48 -25,-16 -48,-35 -70,-54 -144,21 -292,-6 -419,-77 -149,57 -319,54 -466,-9 -139,75 -307,89 -457,38 -84,57 -187,91 -297,91 -104,0 -201,-30 -283,-82 -227,91 -490,-3 -608,-219 -147,-10 -278,-91 -353,-217l-8 0c-221,0 -400,-179 -400,-400 0,-221 180,-400 400,-400 117,0 226,51 303,139 28,-6 57,-9 87,-9 136,0 264,62 348,168 81,-8 163,3 238,35 80,-50 175,-78 276,-78 31,0 61,3 90,8 103,-97 241,-156 393,-156 49,0 97,7 143,18 104,-77 232,-124 372,-124 77,0 152,15 220,41 96,-54 207,-85 325,-85 134,0 258,39 362,108 63,-19 129,-28 198,-28 195,0 371,79 499,206 78,78 138,174 173,282 258,125 423,386 423,675 0,146 -42,283 -114,398 7,42 11,85 11,129 0,302 -185,571 -464,681 -120,246 -368,402 -643,402 -71,0 -140,-10 -205,-30 -210,114 -467,112 -675,-5 -183,60 -386,38 -553,-60 -156,53 -332,44 -483,-24 -120,61 -259,83 -392,61 -60,57 -130,102 -208,132 3,52 -14,101 -47,141 -63,78 -96,175 -96,275 0,149 75,288 201,369 35,22 61,52 77,87 4,2 7,5 11,7 125,-60 268,-76 404,-47 176,-171 440,-219 665,-121 228,-130 517,-91 704,95 20,20 38,42 55,64 185,7 355,105 454,261 116,16 220,68 301,145 60,-4 119,2 177,17 75,-45 164,-71 258,-71zm-317 886c-116,-95 -183,-236 -183,-386 0,-89 23,-172 64,-245 -161,20 -282,157 -282,319 0,209 198,363 401,312zm-356 -754c-42,-18 -88,-28 -137,-28 -190,0 -343,153 -343,342 0,165 117,307 279,337 -28,-64 -44,-134 -44,-209 0,-180 93,-346 245,-442zm-307 -201c-234,-193 -596,-30 -596,281 0,151 93,286 233,340 -53,-268 102,-535 363,-621zm-447 -241c-153,-115 -370,-100 -505,36 -70,69 -113,166 -113,272 0,178 121,332 292,375 -81,-276 58,-572 326,-683zm-699 -46c-248,-40 -473,152 -473,402 0,225 183,407 407,407 48,0 94,-8 137,-23 -122,-111 -190,-267 -190,-432 0,-133 44,-255 119,-354zm-619 152l-3 0c-118,0 -225,48 -303,126 -166,166 -166,439 0,606 148,148 386,167 555,44 -187,-109 -303,-308 -303,-526 0,-89 19,-174 54,-250zm-452 -11c-57,-26 -120,-40 -186,-40 -249,0 -450,201 -450,450 0,249 201,450 450,450 51,0 101,-9 147,-25 -88,-108 -140,-245 -140,-395 0,-171 68,-326 179,-440zm-205 -240c-69,-104 -105,-226 -105,-351 0,-146 50,-287 142,-401 3,-4 2,-9 -3,-11 -159,-71 -293,-182 -390,-319 -98,-138 -160,-301 -175,-473 -1,-7 -7,-9 -12,-5 -170,151 -308,337 -402,547 -91,202 -141,426 -141,662 0,429 168,836 470,1140 -86,-396 207,-777 616,-789zm125 -941c185,-49 314,-218 314,-410 0,-235 -190,-425 -425,-425 -140,0 -269,68 -349,182 32,167 36,249 142,396 77,109 182,197 307,253 4,1 7,3 11,4zm181 -963c204,108 333,320 333,553 0,92 -20,180 -56,259 109,-9 206,-56 279,-128 80,-81 129,-191 129,-314 0,-122 -49,-233 -129,-313 -80,-80 -191,-130 -313,-130 -90,0 -174,27 -243,73zm725 796c280,48 539,-167 539,-454 0,-308 -294,-526 -586,-444 133,122 207,292 207,472 0,163 -60,312 -160,426zm507 48c166,45 344,-1 466,-123 86,-87 140,-206 140,-339 0,-286 -251,-509 -537,-475 102,116 163,268 163,435 0,194 -84,376 -232,502zm561 60c311,74 613,-160 613,-483 0,-294 -253,-522 -544,-494 109,120 176,280 176,455 0,203 -90,392 -245,522zm655 -41c137,0 267,-54 364,-151 200,-199 200,-527 0,-727 -131,-131 -322,-181 -500,-132 185,130 294,341 294,568 0,168 -59,322 -158,442zm713 -473c123,-101 194,-251 194,-410 0,-294 -238,-532 -532,-532 -157,0 -304,68 -406,187 201,-8 394,66 536,209 145,145 220,342 208,546zm280 -802c11,-43 17,-88 17,-135 0,-304 -246,-550 -550,-550 -288,0 -528,223 -549,510 127,-103 288,-165 464,-165 252,0 484,129 618,340zm-463 -882c-95,-136 -249,-216 -415,-216 -280,0 -506,226 -506,506 0,121 42,233 114,320 70,-381 420,-646 807,-610zm-838 -276c-164,-50 -343,-6 -464,115 -84,84 -135,199 -135,327 0,128 51,244 135,327 70,70 162,118 265,132 -54,-100 -84,-214 -84,-335 0,-224 104,-432 283,-566zm-651 861c-93,-114 -149,-260 -149,-419 0,-158 56,-303 148,-416 -242,-18 -449,174 -449,417 0,112 43,217 123,296 86,87 205,131 327,122zm-565 -730c-200,10 -356,175 -356,374 0,207 168,375 375,375 24,0 48,-2 71,-6 -109,-112 -175,-264 -175,-431 0,-114 31,-221 85,-312zm-511 150c-163,24 -284,163 -284,328 0,183 148,332 331,332 32,0 63,-5 93,-14 -118,-109 -185,-261 -185,-422 0,-79 16,-155 45,-224zm-402 612c-52,-82 -82,-179 -82,-284 0,-107 32,-206 86,-290 -165,-11 -306,121 -306,287 0,165 138,295 302,287zm-501 -269c-7,-173 79,-336 225,-429 -39,-26 -86,-42 -137,-42 -134,0 -243,109 -243,244 0,101 61,191 155,227zm-355 -208c-6,-140 53,-273 161,-362 -31,-19 -68,-31 -108,-31 -111,0 -200,89 -200,200 0,90 60,169 147,193zm3941 3713c-166,0 -300,134 -300,300 0,165 134,300 300,300 166,0 300,-135 300,-300 0,-166 -134,-300 -300,-300z"/>
</svg>