<?xml version="1.0" encoding="UTF-8"?>
<!DOCTYPE svg PUBLIC "-//W3C//DTD SVG 1.1//EN" "http://www.w3.org/Graphics/SVG/1.1/DTD/svg11.dtd">
<svg xmlns="http://www.w3.org/2000/svg" xml:space="preserve" width="580px" height="580px" shape-rendering="geometricPrecision" text-rendering="geometricPrecision" image-rendering="optimizeQuality" fill-rule="nonzero" clip-rule="nonzero" viewBox="0 0 5800 5800" xmlns:xlink="http://www.w3.org/1999/xlink">
	<title>wrench icon</title>
	<desc>wrench icon from the IconExperience.com I-Collection. Copyright by INCORS GmbH (www.incors.com).</desc>
		<path id="curve28"  d="M2092 2080l231 -692c0,0 -462,-466 -625,-630l248 -263 50 6c153,18 307,64 448,133 141,68 272,158 380,266 256,256 387,539 357,906 -8,94 -2,253 18,402 15,108 36,208 64,269l1967 1955c116,115 76,295 -37,463 -79,117 -193,229 -312,307 -165,107 -338,142 -449,26l-1983 -2065c-59,-69 -535,-7 -652,3 -181,15 -341,-10 -488,-72 -145,-60 -275,-155 -400,-280 -123,-123 -224,-275 -295,-440 -70,-163 -110,-340 -114,-513l-1 -61 305 -164c91,90 637,638 639,639 0,0 593,-178 649,-195z"/>
</svg>