<?xml version="1.0" encoding="UTF-8"?>
<!DOCTYPE svg PUBLIC "-//W3C//DTD SVG 1.1//EN" "http://www.w3.org/Graphics/SVG/1.1/DTD/svg11.dtd">
<svg xmlns="http://www.w3.org/2000/svg" xml:space="preserve" width="580px" height="580px" shape-rendering="geometricPrecision" text-rendering="geometricPrecision" image-rendering="optimizeQuality" fill-rule="nonzero" clip-rule="nonzero" viewBox="0 0 5800 5800" xmlns:xlink="http://www.w3.org/1999/xlink">
	<title>wrench icon</title>
	<desc>wrench icon from the IconExperience.com I-Collection. Copyright by INCORS GmbH (www.incors.com).</desc>
		<path id="curve28"  d="M2092 2080l231 -692c0,0 -462,-466 -625,-630l248 -263 50 6c153,18 307,64 448,133 141,68 272,158 380,266 127,128 223,261 285,409 62,150 87,313 72,497 -8,94 -2,253 18,402 15,108 36,208 64,269l1967 1955c116,115 76,295 -37,463 -39,58 -88,115 -142,168 -53,53 -111,100 -170,139 -165,107 -338,142 -449,26l-1983 -2065c-50,-59 -403,-23 -579,-5 -35,4 -65,7 -73,8 -360,30 -637,-101 -888,-352 -246,-246 -402,-605 -409,-953l-1 -61c102,-55 203,-110 305,-164 56,55 639,639 639,639 0,0 593,-178 649,-195zm-243 880c209,-21 624,-64 748,69l1979 2061c30,31 110,1 197,-55 47,-31 94,-70 139,-114 43,-43 83,-90 115,-138 62,-91 96,-176 63,-209l-1997 -1992c-43,-81 -73,-212 -91,-348 -22,-163 -29,-339 -20,-444 12,-152 -8,-285 -58,-405 -50,-122 -132,-234 -241,-344 -92,-92 -204,-169 -325,-228 -107,-51 -221,-88 -337,-107l-45 49 488 492c54,55 72,131 48,204l-231 692c-21,63 -69,109 -132,128l-648 195c-72,21 -146,2 -199,-50l-534 -534 -65 35c21,276 151,560 347,756 209,209 429,319 731,293 29,-2 47,-4 68,-6z"/>
</svg>