<?xml version="1.0" encoding="UTF-8"?>
<!DOCTYPE svg PUBLIC "-//W3C//DTD SVG 1.1//EN" "http://www.w3.org/Graphics/SVG/1.1/DTD/svg11.dtd">
<svg xmlns="http://www.w3.org/2000/svg" xml:space="preserve" width="580px" height="580px" shape-rendering="geometricPrecision" text-rendering="geometricPrecision" image-rendering="optimizeQuality" fill-rule="nonzero" clip-rule="nonzero" viewBox="0 0 5800 5800" xmlns:xlink="http://www.w3.org/1999/xlink">
	<title>wristwatch icon</title>
	<desc>wristwatch icon from the IconExperience.com I-Collection. Copyright by INCORS GmbH (www.incors.com).</desc>
	<path id="curve0"  d="M4100 2700c0,-55 45,-100 100,-100 55,0 100,45 100,100l0 400c0,55 -45,100 -100,100 -55,0 -100,-45 -100,-100l0 -198c-1,662 -538,1198 -1200,1198 -663,0 -1200,-537 -1200,-1200 0,-663 537,-1200 1200,-1200 662,0 1199,536 1200,1198l0 -198zm-1729 -471l-142 142 478 478c-4,16 -6,33 -6,50 0,111 90,200 200,200 110,0 200,-89 200,-200 0,-18 -2,-35 -7,-52l277 -276 -142 -142 -276 277c-17,-5 -34,-7 -52,-7 -18,0 -36,3 -53,7l-477 -477zm-107 -577c24,-156 36,-363 36,-652l0 -500c0,-165 135,-300 300,-300l600 0c165,0 300,135 300,300l0 500c0,289 12,496 36,652 -191,-97 -407,-152 -636,-152 -229,0 -445,55 -636,152zm1272 2496c-24,156 -36,363 -36,652l0 500c0,165 -135,300 -300,300l-600 0c-165,0 -300,-135 -300,-300l0 -500c0,-289 -12,-496 -36,-652 191,97 407,152 636,152 229,0 445,-55 636,-152z"/>
</svg>