<?xml version="1.0" encoding="UTF-8"?>
<!DOCTYPE svg PUBLIC "-//W3C//DTD SVG 1.1//EN" "http://www.w3.org/Graphics/SVG/1.1/DTD/svg11.dtd">
<svg xmlns="http://www.w3.org/2000/svg" xml:space="preserve" width="580px" height="580px" shape-rendering="geometricPrecision" text-rendering="geometricPrecision" image-rendering="optimizeQuality" fill-rule="nonzero" clip-rule="nonzero" viewBox="0 0 5800 5800" xmlns:xlink="http://www.w3.org/1999/xlink">
	<title>wristwatch icon</title>
	<desc>wristwatch icon from the IconExperience.com I-Collection. Copyright by INCORS GmbH (www.incors.com).</desc>
	<path id="curve0" d="M4100 2700c0,-55 45,-100 100,-100 55,0 100,45 100,100l0 400c0,55 -45,100 -100,100 -55,0 -100,-45 -100,-100l0 -198c-1,662 -538,1198 -1200,1198 -663,0 -1200,-537 -1200,-1200 0,-663 537,-1200 1200,-1200 662,0 1199,536 1200,1198l0 -198zm-1623 1535c15,149 23,332 23,565l0 500c0,55 45,100 100,100l600 0c55,0 100,-45 100,-100l0 -500c0,-233 8,-416 23,-565 74,-23 145,-53 213,-87 -24,156 -36,363 -36,652l0 500c0,165 -135,300 -300,300l-600 0c-165,0 -300,-135 -300,-300l0 -500c0,-289 -12,-496 -36,-652 68,34 139,64 213,87zm-213 -2583c24,-156 36,-363 36,-652l0 -500c0,-165 135,-300 300,-300l600 0c165,0 300,135 300,300l0 500c0,289 12,496 36,652 -68,-34 -139,-64 -213,-87 -15,-149 -23,-332 -23,-565l0 -500c0,-55 -45,-100 -100,-100l-600 0c-55,0 -100,45 -100,100l0 500c0,233 -8,416 -23,565 -74,23 -145,53 -213,87zm636 248c-552,0 -1000,448 -1000,1000 0,552 448,1000 1000,1000 552,0 1000,-448 1000,-1000 0,-552 -448,-1000 -1000,-1000zm-529 329l477 477c34,-9 70,-9 105,0l276 -277 142 142 -277 276c5,17 7,34 7,52 0,111 -90,200 -200,200 -110,0 -200,-89 -200,-200 0,-17 2,-34 6,-50l-478 -478 142 -142z"/>
</svg>