<?xml version="1.0" encoding="UTF-8"?>
<!DOCTYPE svg PUBLIC "-//W3C//DTD SVG 1.1//EN" "http://www.w3.org/Graphics/SVG/1.1/DTD/svg11.dtd">
<svg xmlns="http://www.w3.org/2000/svg" xml:space="preserve" width="580px" height="580px" shape-rendering="geometricPrecision" text-rendering="geometricPrecision" image-rendering="optimizeQuality" fill-rule="nonzero" clip-rule="nonzero" viewBox="0 0 5800 5800" xmlns:xlink="http://www.w3.org/1999/xlink">
	<title>x-ray icon</title>
	<desc>x-ray icon from the IconExperience.com I-Collection. Copyright by INCORS GmbH (www.incors.com).</desc>
	<path id="curve0"  d="M2300 3727c377,109 823,109 1200,0l0 206c-384,101 -816,101 -1200,0l0 -206zm2200 -2927l-3200 0 0 4200 3200 0 0 -4200zm-2541 711c199,-182 497,-311 941,-311 444,0 742,129 941,311 287,263 359,633 359,889 0,153 -24,306 -61,435 -34,118 -79,219 -128,288 36,135 43,287 -38,409 -43,65 -107,113 -191,141 -26,8 -53,15 -82,20l0 107c0,226 -35,398 -160,521 -121,119 -318,179 -640,179 -336,-1 -533,-60 -651,-180 -122,-124 -149,-295 -149,-520l0 -107c-30,-4 -58,-11 -84,-19 -82,-27 -145,-72 -189,-136 -84,-122 -74,-278 -38,-415 -49,-69 -94,-170 -128,-288 -37,-129 -61,-282 -61,-435 0,-256 72,-626 359,-889zm-759 -1311l3400 0c276,0 500,224 500,500l0 4400c0,276 -224,500 -500,500l-3400 0c-276,0 -500,-224 -500,-500l0 -4400c0,-276 224,-500 500,-500zm3400 200l-3400 0c-165,0 -300,135 -300,300l0 4400c0,165 135,300 300,300l3400 0c165,0 300,-135 300,-300l0 -4400c0,-165 -135,-300 -300,-300zm-1200 1700c221,0 400,179 400,400 0,221 -179,400 -400,400 -220,0 -400,-180 -400,-400 0,-221 179,-400 400,-400zm-405 759l193 387c20,39 14,84 -14,117 -59,67 -138,23 -207,0 -45,-15 -89,-15 -134,0 -69,23 -148,67 -207,0 -28,-33 -34,-78 -14,-117l193 -387c39,-78 151,-78 190,0zm-595 -759c216,0 400,171 400,390 0,219 -184,389 -400,389 -216,0 -400,-170 -400,-389 0,-219 184,-390 400,-390z"/>
</svg>