<?xml version="1.0" encoding="UTF-8"?>
<!DOCTYPE svg PUBLIC "-//W3C//DTD SVG 1.1//EN" "http://www.w3.org/Graphics/SVG/1.1/DTD/svg11.dtd">
<svg xmlns="http://www.w3.org/2000/svg" xml:space="preserve" width="580px" height="580px" shape-rendering="geometricPrecision" text-rendering="geometricPrecision" image-rendering="optimizeQuality" fill-rule="nonzero" clip-rule="nonzero" viewBox="0 0 5800 5800" xmlns:xlink="http://www.w3.org/1999/xlink">
	<title>x-ray icon</title>
	<desc>x-ray icon from the IconExperience.com I-Collection. Copyright by INCORS GmbH (www.incors.com).</desc>
	<path id="curve0"  d="M2300 3727c188,54 393,81 600,81 207,0 412,-27 600,-81l0 206c-192,50 -396,75 -600,75 -204,0 -408,-25 -600,-75l0 -206zm-1100 -3527c-276,0 -500,224 -500,500l0 4400c0,276 224,500 500,500l3400 0c276,0 500,-224 500,-500l0 -4400c0,-276 -224,-500 -500,-500l-3400 0zm1700 1000c750,0 1300,410 1300,1200 0,153 -24,306 -61,435 -34,118 -79,219 -128,288 36,135 43,287 -38,409 -63,95 -163,143 -273,161l0 107c0,226 -35,398 -160,521 -121,119 -318,179 -640,179 -336,-1 -533,-60 -651,-180 -122,-124 -149,-295 -149,-520l0 -107c-109,-16 -209,-62 -273,-155 -84,-122 -74,-278 -38,-415 -49,-69 -94,-170 -128,-288 -37,-129 -61,-282 -61,-435 0,-790 550,-1200 1300,-1200zm1800 -600l0 4600 -3600 0 0 -4600 3600 0zm-200 200l-3200 0 0 4200 3200 0 0 -4200zm-1100 1300c221,0 400,179 400,400 0,221 -179,400 -400,400 -220,0 -400,-180 -400,-400 0,-221 179,-400 400,-400zm-405 759l193 387c43,84 -38,178 -128,148l-93 -31c-45,-15 -89,-15 -134,0l-93 31c-90,30 -171,-64 -128,-148l193 -387c39,-78 151,-78 190,0zm-595 -759c216,0 400,171 400,390 0,219 -184,389 -400,389 -216,0 -400,-170 -400,-389 0,-219 184,-390 400,-390z"/>
</svg>