<?xml version="1.0" encoding="UTF-8"?>
<svg id="Ebene_12_Kopie" data-name="Ebene 12 Kopie" xmlns="http://www.w3.org/2000/svg" viewBox="0 0 580 580">
  <path d="M169.29,127.9v20h-.43v-.13h-65.33v.13h-.3v65.21h-20v-65.21h-.29v-.13H17.6v-19.87h65.63V62.27h20v65.63h66.06ZM169.91,249.26v17.9h-.62v-17.9h.62ZM99.9,455.04v17.89h304.2v-17.89H99.9ZM99.9,392.41v17.9h304.2v-17.9H99.9ZM484.62,356.63v-17.9c-9.93,0-17.9-7.78-17.9-17.8,0-5.01,1.97-9.49,5.19-12.71,1.49-1.45,3.23-2.67,5.13-3.57h-24.24c-2.55,4.91-3.97,10.44-3.97,16.28.09,10.38,4.47,19.95,12.08,26.75-7.7,6.8-11.99,16.46-12.08,26.75,0,10.38,4.47,20.13,12.17,26.93-7.7,6.8-12.17,16.46-12.17,26.84s4.38,20.04,12.17,26.84c-7.7,6.8-12.08,16.46-12.17,26.75,0,9.84,3.85,18.79,10.83,25.59-9.67,6.53-16.56,16.73-18.88,28.18H63.22c-2.33-11.45-9.22-21.65-18.88-28.18,6.98-6.8,10.83-15.84,10.83-25.59-.09-9.93-4.12-18.79-10.56-25.23-.45-.54-.98-1.07-1.61-1.52.63-.54,1.16-1.07,1.7-1.52,6.44-6.53,10.47-15.48,10.47-25.32,0-10.38-4.48-20.04-12.17-26.84,7.69-6.8,12.17-16.55,12.17-26.93-.09-10.29-4.48-19.95-12.08-26.75,7.69-6.8,11.99-16.46,12.08-26.75,0-9.75-3.85-18.79-10.83-25.59,9.66-6.53,16.55-16.73,18.88-28.18h106.07v-17.9H46.22v8.95c0,14.85-11.99,26.93-26.84,26.93v17.8c9.93,0,17.89,8.06,17.89,17.99,2.69,7.51-9.03,17.8-17.8,17.8v17.9c9.84,0,17.8,7.96,17.8,17.8s-7.87,17.98-17.89,17.98v17.9c9.93,0,17.89,7.96,17.89,17.89,0,4.92-1.96,9.39-5.28,12.62-3.22,3.22-7.69,5.27-12.61,5.27l.09,17.9c4.92,0,9.39,1.97,12.61,5.19,3.23,3.22,5.19,7.69,5.19,12.61,0,9.93-7.96,17.99-17.89,17.99v17.8c14.85,0,26.84,12.08,26.84,26.93v8.95h411.56v-8.95c0-14.85,11.99-26.93,26.84-26.93v-17.8c-9.93,0-17.9-8.06-17.9-17.99s7.97-17.8,17.81-17.8l.09-17.9c-4.92,0-9.4-2.05-12.62-5.27-3.31-3.23-5.28-7.7-5.28-12.62,0-9.93,7.97-17.89,17.9-17.89v-17.9c-9.93,0-17.9-7.96-17.9-17.98,0-4.92,1.97-9.39,5.19-12.62,3.4-3.4,7.88-5.18,12.71-5.18ZM99.9,329.78v17.9h304.2v-17.9H99.9ZM564.61,37.26v246.78H187.19V37.26h377.42ZM201.7,256.89l11.02-7.63,26.36-18.25,16.55-11.46,64.74-44.82-33.33-26.83-24.85-20-60.49-48.69v177.68ZM543.05,269.52l-123.24-85.35-25.84,20.83c-10.67,8.56-25.33,8.56-36,0l-25.84-20.83-93.99,65.09-25.84,17.9-3.41,2.36h334.16ZM550.09,79.36l-118.52,95.37,118.52,82.09V79.36ZM550.09,51.78H201.77v6.24c0,1.84.64,3.1,1.97,4.25.09.09.18.17.28.25l81.22,65.38,7.99,6.43,73.81,59.42c5.3,4.28,12.56,4.28,17.86,0l163.02-131.23c1.16-.94,1.96-2.03,2.17-3.56v-7.18Z"/>
</svg>