<?xml version="1.0" encoding="UTF-8"?>
<svg id="Ebene_12" data-name="Ebene 12" xmlns="http://www.w3.org/2000/svg" viewBox="0 0 580 580">
  <path d="M104.95,115.06v17.89h304.19v-17.89H104.95ZM104.95,177.69v17.89h304.19v-17.89H104.95ZM104.95,240.32v17.89h304.19v-17.89H104.95ZM489.67,88.22v-17.81c-14.86,0-26.84-12.07-26.84-26.93v-8.94H51.27v8.94c0,14.86-11.99,26.93-26.84,26.93v17.81c9.93,0,17.89,8.05,17.89,17.98,2.69,7.52-9.03,17.81-17.8,17.81v17.89c9.84,0,17.8,7.96,17.8,17.8s-7.87,17.99-17.89,17.99v17.89c9.93,0,17.89,7.96,17.89,17.9,0,4.92-1.97,9.39-5.28,12.61-3.22,3.22-7.69,5.28-12.61,5.28l.09,17.89c4.92,0,9.39,1.97,12.61,5.19s5.19,7.7,5.19,12.62c0,9.93-7.96,17.98-17.89,17.98v17.8c14.85,0,26.84,12.08,26.84,26.93v8.95h111.88v-17.89h-94.88c-2.33-11.45-9.22-21.65-18.88-28.18,6.98-6.8,10.83-15.84,10.83-25.59-.09-9.93-4.12-18.79-10.56-25.23-.45-.54-.98-1.08-1.61-1.52.63-.54,1.16-1.08,1.7-1.53,6.44-6.53,10.47-15.47,10.47-25.31,0-10.38-4.48-20.05-12.17-26.85,7.69-6.8,12.17-16.55,12.17-26.93-.09-10.28-4.48-19.95-12.08-26.75,7.69-6.8,11.99-16.46,12.08-26.75,0-9.75-3.85-18.79-10.83-25.59,9.66-6.53,16.55-16.73,18.88-28.18h377.56c2.32,11.45,9.21,21.65,18.7,28.36-6.62,6.62-10.65,15.57-10.65,25.41.09,10.38,4.47,19.95,12.08,26.75-7.7,6.8-11.99,16.47-12.08,26.75,0,10.38,4.47,20.13,12.17,26.93-7.7,6.8-12.17,16.47-12.17,26.85s4.38,20.04,12.17,26.84c-7.7,6.8-12.08,16.46-12.17,26.75,0,9.84,3.85,18.79,10.82,25.59-.88.59-1.74,1.22-2.57,1.88h27.54v-9.49c-9.93,0-17.9-8.05-17.9-17.98s7.97-17.81,17.81-17.81l.09-17.89c-4.92,0-9.4-2.06-12.62-5.28-3.31-3.22-5.28-7.69-5.28-12.61,0-9.94,7.97-17.9,17.9-17.9v-17.89c-9.93,0-17.9-7.96-17.9-17.99,0-4.92,1.97-9.39,5.19-12.61,3.4-3.4,7.88-5.19,12.71-5.19v-17.89c-9.93,0-17.9-7.79-17.9-17.81,0-5.01,1.97-9.48,5.19-12.7,3.31-3.22,7.79-5.28,12.71-5.28ZM104.95,240.32v17.89h304.19v-17.89H104.95ZM104.95,177.69v17.89h304.19v-17.89H104.95ZM104.95,115.06v17.89h304.19v-17.89H104.95ZM104.95,115.06v17.89h304.19v-17.89H104.95ZM104.95,177.69v17.89h304.19v-17.89H104.95ZM104.95,240.32v17.89h304.19v-17.89H104.95ZM104.95,240.32v17.89h304.19v-17.89H104.95ZM104.95,177.69v17.89h304.19v-17.89H104.95ZM104.95,115.06v17.89h304.19v-17.89H104.95ZM104.95,177.69v17.89h304.19v-17.89H104.95ZM104.95,240.32v17.89h304.19v-17.89H104.95ZM104.95,115.06v17.89h304.19v-17.89H104.95ZM104.95,240.32v17.89h304.19v-17.89H104.95ZM104.95,177.69v17.89h304.19v-17.89H104.95ZM104.95,115.06v17.89h304.19v-17.89H104.95ZM178.15,305.35v246.78h377.42v-246.78H178.15ZM192.66,347.3l118.67,95.52-118.67,82.16v-177.68ZM199.85,537.61l123.24-85.35,25.84,20.83c10.67,8.56,25.33,8.56,36,0l25.84-20.83,123.24,85.35H199.85ZM541.05,524.91l-118.52-82.09,118.52-95.37v177.46ZM541.05,327.05c-.21,1.53-1.01,2.62-2.17,3.56l-163.02,131.23c-5.3,4.28-12.56,4.28-17.86,0l-152.92-123.11-10.09-8.12c-1.53-1.23-2.25-2.54-2.25-4.5v-6.24h348.31v7.18ZM138.08,435.11l-43.21-43.29v37.49c0,31.45,25.73,57.17,57.17,57.17h9.39c.49,5.64,1.06,11.11,1.72,16.34h-11.11c-40.51,0-73.51-33-73.51-73.51v-37.49l-43.21,43.29-11.6-11.6,62.97-62.89,62.97,62.89-11.6,11.6Z"/>
</svg>