<?xml version="1.0" encoding="UTF-8"?>
<svg id="gi_goal_definition" xmlns="http://www.w3.org/2000/svg" viewBox="0 0 580 580">
  <path d="M386,236.9c-22.2-7.5-46.1-11.3-70-11.3v69.4c23.8,0,47.6,3.6,70,10.8v-68.9ZM236,309.3v-69.3c25-10,52.5-15,80-15v-79.4c-27.5,0-55,5-80,15v-69.9c-25.2,9.5-52.6,14.3-80,14.3v70c27.5,0,55-5,80-15v80.6c-25,10-52.5,15-80,15v69.4c26.3,0,52.5-4.8,76.3-14.3,1.2-.5,2.5-.9,3.7-1.4ZM316,75v70c23.9,0,47.8,3.8,70,11.3v-69.4c-22.1-7.9-46-11.9-70-11.9ZM86,164.3v-91.2c46.2,16.6,100.7,15.9,146.3-2.4,52.5-20.9,114.9-20.9,167.4,0l6.3,2.6v261.4l-13.7-5.4c-47.6-19.1-105-19.1-152.6,0-48.1,19.2-104.4,20.7-153.7,4.9v-90.5c22.2,7.5,46.1,11.3,70,11.3v-79.4c-23.9,0-47.8-3.8-70-11.3ZM66,50v480h-20V50h20ZM224.4,500.4c-1.1-6.1-2.7-12.1-5.2-18.4-7.4-25-23.7-59.9-33.8-85.3-1.3-3.9-5-6.7-9.4-6.7h-20c-4,0-7.7,2.4-9.3,6.3l-33.6,84.9c-2.6,6.6-4.4,12.9-5.5,19.2-1.1,6.4-1.6,12.8-1.6,19.6v10h20v-10c0-5.8.4-11.1,1.3-16.2.2-1.3.5-2.5.8-3.8h75.8c.3,1.3.6,2.5.8,3.8.9,5.2,1.3,10.4,1.3,16.2v10h20v-10c0-6.8-.5-13.2-1.6-19.6ZM135.1,480l27.7-70h6.4l27.7,70h-61.8ZM366.6,455.7c6.1-7.2,9.4-16.3,9.4-25.7,0-22-18-40-40-40h-70v140h80c22,0,40-18,40-40,0-14.1-7.4-27-19.4-34.3ZM286,410h50c11,0,20,8.9,20,20s-8.9,20-20,20h-50v-40ZM346,510h-60v-40h60c11,0,20,9,20,20s-9,20-20,20ZM546,440h-20c0-16.5-13.5-30-30-30h-20c-16.5,0-30,13.5-30,30v40c0,16.5,13.5,30,30,30h20c16.5,0,30-13.5,30-30h20c0,27.5-22.4,50-50,50h-20c-27.6,0-50-22.5-50-50v-40c0-27.5,22.5-50,50-50h20c27.6,0,50,22.4,50,50Z"/>
</svg>