<?xml version="1.0" encoding="UTF-8"?>
<svg id="Shortcut_Mail_ablegen_Business_Mail_"
    xmlns="http://www.w3.org/2000/svg" viewBox="0 0 1021 1021.45">
    <defs>
        <style>.cls-1{stroke-width:36.23px;}.cls-1,.cls-2{fill:none;stroke:#4d4d4d;}.cls-2{stroke-linecap:round;stroke-linejoin:round;stroke-width:36px;}</style>
    </defs>
    <path class="cls-1" d="m933.06,607.2c0,29.03-27.12,52.56-60.58,52.56H145.56c-33.46,0-60.58-23.53-60.58-52.56V137.23c0-29.03,27.12-52.56,60.58-52.56h726.92c33.46,0,60.58,23.53,60.58,52.56v469.97Z"/>
    <polyline class="cls-2" points="712.24 784.06 509 955.53 305.76 784.06"/>
    <line class="cls-2" x1="508" y1="940.54" x2="508" y2="661.39"/>
    <line class="cls-1" x1="100.69" y1="645.06" x2="274.83" y2="467.89"/>
    <line class="cls-1" x1="310.35" y1="282.86" x2="84" y2="133.95"/>
    <line class="cls-1" x1="936" y1="133.95" x2="726.01" y2="271.46"/>
    <line class="cls-1" x1="728.28" y1="453.6" x2="918.95" y2="645.06"/>
    <path class="cls-2" d="m600.46,411.71c-10.44,41.23-70.42,96.62-142.36,96.62-41.07,0-76.48-28.43-76.48-76.21,0-75,69.4-143.34,167.84-143.34,29.74,0,57.36,5.44,75.78,12.7l-24.78,110.22c-7.66,33.17-15.07,84.1,49.85,85.78,44.59,1.49,94.42-50.03,94.42-135.89,0-109.02-76.06-187.42-211.58-187.42-142.51,0-262.29,97.07-262.29,248.64,0,124.69,95.3,202.35,224.7,202.35,49.83,0,96.17-8.96,132.02-26.13"/>
</svg>