<?xml version="1.0" encoding="UTF-8"?><svg id="shortcut-service" xmlns="http://www.w3.org/2000/svg" viewBox="0 0 1021 1021.45"><defs><style>.cls-1{fill:none;stroke:#4d4d4d;stroke-width:48px;}</style></defs><path class="cls-1" d="m706,583.45c-11.88-10.75-24.25-18.91-35.95-25.1-30.88-16.33-57.05-18.9-57.05-18.9,0,0-30,36-113,67-8.95,3.34-47.5,11.09-76,11.67-28.5-.58-67.05-8.33-76-11.67-83-31-113-67-113-67,0,0-49.07,5.65-93,44-63,55-63,157-63,157v190h407"/><circle class="cls-1" cx="424" cy="285.45" r="201"/><path id="Hörer" class="cls-1" d="m889.7,310.96c-56.27-25.49-123.48,1.96-150.12,61.29-26.63,59.34-2.6,128.1,53.67,153.58,5.27,2.39,10.64,4.31,16.06,5.79-4.71,19.23-15.28,56.01-34.46,92.94-21.95,42.27-49,81.73-59.39,96.43-2.94-1.68-5.98-3.25-9.12-4.67-56.27-25.49-123.48,1.96-150.12,61.29-26.63,59.34-2.6,128.1,53.67,153.58,47.43,21.48,102.63,5.36,134.75-35.76h0s63.56-76.45,130.93-213.93c51.99-106.1,70.48-203.97,76.22-243.11,10.59-52.15-13.95-105.63-62.09-127.44Z"/></svg>