
<?xml version="1.0" encoding="utf-8"?>
<!-- Generator: Adobe Illustrator 24.2.3, SVG Export Plug-In . SVG Version: 6.00 Build 0)  -->
<svg version="1.1" id="Ebene_1" xmlns="http://www.w3.org/2000/svg" xmlns:xlink="http://www.w3.org/1999/xlink" x="0px" y="0px"
	 viewBox="0 0 580 580" style="enable-background:new 0 0 580 580;" xml:space="preserve">
<style type="text/css">
	.st0{fill:#FFFFFF;}
</style>
<rect x="0.5" y="0.7" class="st0" width="579.1" height="579.1"/>
<path d="M509.9,202.4c-6-5.9-14.6-13.5-25.8-22.8c-18.4-15.3-44-35.3-76.1-59.4c-54.5-41-109.6-80.5-110.2-80.8
	c-4.7-3.4-11-3.4-15.7,0c-0.6,0.4-56,39.8-110.7,80.8c-32.2,24.2-57.9,44.1-76.4,59.4c-11.2,9.2-19.9,16.9-25.9,22.8
	c-8.6,8.4-13.6,14.7-13.6,22v274.9c0,24.6,20.3,44.6,45.2,44.6h377.5c24.9,0,45.1-20,45.1-44.6V224.5
	C523.4,217.2,518.5,210.9,509.9,202.4z M366.3,346.4l130-95.9V494L366.3,346.4z M119.5,194.7c18.7-15.2,43.8-34.5,74.4-57.4
	c40.2-30,79.7-58.5,96.1-70.2c16.3,11.7,55.6,40.1,95.6,70.2c30.5,22.9,55.4,42.2,74.1,57.4c16.1,13.1,25.3,21.4,30.6,26.5
	L289.6,369.2L89.2,220.8C94.6,215.6,103.8,207.4,119.5,194.7z M82.7,495.1V249.7l130.7,96.9L82.7,495.1z M100.8,516.8
	c-0.4,0-0.7,0-1.1,0l135.6-154l46.2,34.2c2.4,1.8,5.2,2.7,8.1,2.7c2.8,0,5.7-0.9,8-2.6l46.8-34.5l135.8,154.2
	c-0.6,0.1-1.2,0.1-1.9,0.1H100.8z"/>
</svg>
